<svg width="796" height="577" viewBox="0 0 796 577" fill="none" xmlns="http://www.w3.org/2000/svg">
<g filter="url(#filter0_d_561_2285)">
<mask id="path-1-inside-1_561_2285" fill="white">
<path d="M24 31C24 27.134 27.134 24 31 24H765C768.866 24 772 27.134 772 31V88H24V31Z"/>
</mask>
<path d="M24 31C24 27.134 27.134 24 31 24H765C768.866 24 772 27.134 772 31V88H24V31Z" fill="#F8F8F8"/>
<path d="M24 24H772H24ZM772 89H24V87H772V89ZM24 88V24V88ZM772 24V88V24Z" fill="#EEEEEE" mask="url(#path-1-inside-1_561_2285)"/>
<mask id="path-3-inside-2_561_2285" fill="white">
<path d="M24 546C24 549.866 27.134 553 31 553H765C768.866 553 772 549.866 772 546V485H24V546Z"/>
</mask>
<path d="M24 546C24 549.866 27.134 553 31 553H765C768.866 553 772 549.866 772 546V485H24V546Z" fill="white"/>
<path d="M24 553H772H24ZM772 484H24V486H772V484ZM24 485V553V485ZM772 553V485V553Z" fill="#EEEEEE" mask="url(#path-3-inside-2_561_2285)"/>
<rect x="24" y="88" width="748" height="397" fill="white"/>
<path d="M59.5 48.67V50.3H54.87V63H52.93V50.3H48.28V48.67H59.5ZM63.2369 52.87V63H61.4569V52.87H63.2369ZM63.6369 49.69C63.6369 49.8633 63.6002 50.0267 63.5269 50.18C63.4602 50.3267 63.3669 50.46 63.2469 50.58C63.1335 50.6933 63.0002 50.7833 62.8469 50.85C62.6935 50.9167 62.5302 50.95 62.3569 50.95C62.1835 50.95 62.0202 50.9167 61.8669 50.85C61.7202 50.7833 61.5869 50.6933 61.4669 50.58C61.3535 50.46 61.2635 50.3267 61.1969 50.18C61.1302 50.0267 61.0969 49.8633 61.0969 49.69C61.0969 49.5167 61.1302 49.3533 61.1969 49.2C61.2635 49.04 61.3535 48.9033 61.4669 48.79C61.5869 48.67 61.7202 48.5767 61.8669 48.51C62.0202 48.4433 62.1835 48.41 62.3569 48.41C62.5302 48.41 62.6935 48.4433 62.8469 48.51C63.0002 48.5767 63.1335 48.67 63.2469 48.79C63.3669 48.9033 63.4602 49.04 63.5269 49.2C63.6002 49.3533 63.6369 49.5167 63.6369 49.69ZM69.4441 63.16C68.6441 63.16 68.0274 62.9367 67.5941 62.49C67.1674 62.0433 66.9541 61.4 66.9541 60.56V54.36H65.7341C65.6274 54.36 65.5374 54.33 65.4641 54.27C65.3907 54.2033 65.3541 54.1033 65.3541 53.97V53.26L67.0141 53.05L67.4241 49.92C67.4374 49.82 67.4807 49.74 67.5541 49.68C67.6274 49.6133 67.7207 49.58 67.8341 49.58H68.7341V53.07H71.6341V54.36H68.7341V60.44C68.7341 60.8667 68.8374 61.1833 69.0441 61.39C69.2507 61.5967 69.5174 61.7 69.8441 61.7C70.0307 61.7 70.1907 61.6767 70.3241 61.63C70.4641 61.5767 70.5841 61.52 70.6841 61.46C70.7841 61.4 70.8674 61.3467 70.9341 61.3C71.0074 61.2467 71.0707 61.22 71.1241 61.22C71.2174 61.22 71.3007 61.2767 71.3741 61.39L71.8941 62.24C71.5874 62.5267 71.2174 62.7533 70.7841 62.92C70.3507 63.08 69.9041 63.16 69.4441 63.16ZM75.815 48.27V63H74.035V48.27H75.815ZM82.9622 52.71C83.5689 52.71 84.1289 52.8133 84.6422 53.02C85.1555 53.22 85.5989 53.5133 85.9722 53.9C86.3455 54.28 86.6355 54.7533 86.8422 55.32C87.0555 55.88 87.1622 56.52 87.1622 57.24C87.1622 57.52 87.1322 57.7067 87.0722 57.8C87.0122 57.8933 86.8989 57.94 86.7322 57.94H79.9922C80.0055 58.58 80.0922 59.1367 80.2522 59.61C80.4122 60.0833 80.6322 60.48 80.9122 60.8C81.1922 61.1133 81.5255 61.35 81.9122 61.51C82.2989 61.6633 82.7322 61.74 83.2122 61.74C83.6589 61.74 84.0422 61.69 84.3622 61.59C84.6889 61.4833 84.9689 61.37 85.2022 61.25C85.4355 61.13 85.6289 61.02 85.7822 60.92C85.9422 60.8133 86.0789 60.76 86.1922 60.76C86.3389 60.76 86.4522 60.8167 86.5322 60.93L87.0322 61.58C86.8122 61.8467 86.5489 62.08 86.2422 62.28C85.9355 62.4733 85.6055 62.6333 85.2522 62.76C84.9055 62.8867 84.5455 62.98 84.1722 63.04C83.7989 63.1067 83.4289 63.14 83.0622 63.14C82.3622 63.14 81.7155 63.0233 81.1222 62.79C80.5355 62.55 80.0255 62.2033 79.5922 61.75C79.1655 61.29 78.8322 60.7233 78.5922 60.05C78.3522 59.3767 78.2322 58.6033 78.2322 57.73C78.2322 57.0233 78.3389 56.3633 78.5522 55.75C78.7722 55.1367 79.0855 54.6067 79.4922 54.16C79.8989 53.7067 80.3955 53.3533 80.9822 53.1C81.5689 52.84 82.2289 52.71 82.9622 52.71ZM83.0022 54.02C82.1422 54.02 81.4655 54.27 80.9722 54.77C80.4789 55.2633 80.1722 55.95 80.0522 56.83H85.5622C85.5622 56.4167 85.5055 56.04 85.3922 55.7C85.2789 55.3533 85.1122 55.0567 84.8922 54.81C84.6722 54.5567 84.4022 54.3633 84.0822 54.23C83.7689 54.09 83.4089 54.02 83.0022 54.02Z" fill="black"/>
<rect x="716.5" y="40.5" width="31" height="31" rx="15.5" stroke="#0064D1"/>
<path fill-rule="evenodd" clip-rule="evenodd" d="M726.282 49.9057C726.637 49.5508 727.212 49.5508 727.567 49.9057L738.095 60.433C738.449 60.7878 738.449 61.3631 738.095 61.718C737.74 62.0728 737.164 62.0728 736.81 61.718L726.282 51.1907C725.927 50.8359 725.927 50.2605 726.282 49.9057Z" fill="#0064D1"/>
<path fill-rule="evenodd" clip-rule="evenodd" d="M737.718 49.9057C737.363 49.5508 736.788 49.5508 736.433 49.9057L725.906 60.433C725.551 60.7878 725.551 61.3631 725.906 61.718C726.26 62.0728 726.836 62.0728 727.191 61.718L737.718 51.1907C738.073 50.8359 738.073 50.2605 737.718 49.9057Z" fill="#0064D1"/>
</g>
<rect x="661" y="500" width="87" height="38" rx="19" fill="#0064D1"/>
<path d="M680.908 525V513.536H684.564C685.268 513.536 685.873 513.605 686.38 513.744C686.892 513.883 687.31 514.08 687.636 514.336C687.966 514.592 688.209 514.907 688.364 515.28C688.524 515.648 688.604 516.064 688.604 516.528C688.604 516.811 688.558 517.083 688.468 517.344C688.382 517.605 688.249 517.848 688.068 518.072C687.892 518.296 687.668 518.496 687.396 518.672C687.129 518.848 686.814 518.992 686.452 519.104C687.289 519.269 687.921 519.571 688.348 520.008C688.774 520.445 688.988 521.021 688.988 521.736C688.988 522.221 688.897 522.664 688.716 523.064C688.54 523.464 688.278 523.808 687.932 524.096C687.59 524.384 687.169 524.608 686.668 524.768C686.172 524.923 685.604 525 684.964 525H680.908ZM682.46 519.776V523.768H684.94C685.382 523.768 685.761 523.717 686.076 523.616C686.396 523.515 686.657 523.373 686.86 523.192C687.068 523.005 687.22 522.787 687.316 522.536C687.412 522.28 687.46 522 687.46 521.696C687.46 521.104 687.249 520.637 686.828 520.296C686.412 519.949 685.78 519.776 684.932 519.776H682.46ZM682.46 518.672H684.508C684.945 518.672 685.324 518.624 685.644 518.528C685.964 518.432 686.228 518.299 686.436 518.128C686.649 517.957 686.806 517.752 686.908 517.512C687.009 517.267 687.06 517 687.06 516.712C687.06 516.04 686.857 515.547 686.452 515.232C686.046 514.917 685.417 514.76 684.564 514.76H682.46V518.672ZM692.275 516.896V522.064C692.275 522.677 692.416 523.152 692.699 523.488C692.982 523.824 693.408 523.992 693.979 523.992C694.395 523.992 694.787 523.893 695.155 523.696C695.523 523.499 695.862 523.224 696.171 522.872V516.896H697.595V525H696.747C696.544 525 696.416 524.901 696.363 524.704L696.251 523.832C695.899 524.221 695.504 524.536 695.067 524.776C694.63 525.011 694.128 525.128 693.563 525.128C693.12 525.128 692.728 525.056 692.387 524.912C692.051 524.763 691.768 524.555 691.539 524.288C691.31 524.021 691.136 523.699 691.019 523.32C690.907 522.941 690.851 522.523 690.851 522.064V516.896H692.275ZM702.39 525.128C701.75 525.128 701.256 524.949 700.91 524.592C700.568 524.235 700.398 523.72 700.398 523.048V518.088H699.422C699.336 518.088 699.264 518.064 699.206 518.016C699.147 517.963 699.118 517.883 699.118 517.776V517.208L700.446 517.04L700.774 514.536C700.784 514.456 700.819 514.392 700.878 514.344C700.936 514.291 701.011 514.264 701.102 514.264H701.822V517.056H704.142V518.088H701.822V522.952C701.822 523.293 701.904 523.547 702.07 523.712C702.235 523.877 702.448 523.96 702.71 523.96C702.859 523.96 702.987 523.941 703.094 523.904C703.206 523.861 703.302 523.816 703.382 523.768C703.462 523.72 703.528 523.677 703.582 523.64C703.64 523.597 703.691 523.576 703.734 523.576C703.808 523.576 703.875 523.621 703.934 523.712L704.35 524.392C704.104 524.621 703.808 524.803 703.462 524.936C703.115 525.064 702.758 525.128 702.39 525.128ZM708.358 525.128C707.718 525.128 707.225 524.949 706.878 524.592C706.537 524.235 706.366 523.72 706.366 523.048V518.088H705.39C705.305 518.088 705.233 518.064 705.174 518.016C705.116 517.963 705.086 517.883 705.086 517.776V517.208L706.414 517.04L706.742 514.536C706.753 514.456 706.788 514.392 706.846 514.344C706.905 514.291 706.98 514.264 707.07 514.264H707.79V517.056H710.11V518.088H707.79V522.952C707.79 523.293 707.873 523.547 708.038 523.712C708.204 523.877 708.417 523.96 708.678 523.96C708.828 523.96 708.956 523.941 709.062 523.904C709.174 523.861 709.27 523.816 709.35 523.768C709.43 523.72 709.497 523.677 709.55 523.64C709.609 523.597 709.66 523.576 709.702 523.576C709.777 523.576 709.844 523.621 709.902 523.712L710.318 524.392C710.073 524.621 709.777 524.803 709.43 524.936C709.084 525.064 708.726 525.128 708.358 525.128ZM715.151 516.768C715.743 516.768 716.276 516.867 716.751 517.064C717.231 517.261 717.636 517.541 717.967 517.904C718.303 518.267 718.559 518.707 718.735 519.224C718.916 519.736 719.007 520.309 719.007 520.944C719.007 521.584 718.916 522.16 718.735 522.672C718.559 523.184 718.303 523.621 717.967 523.984C717.636 524.347 717.231 524.627 716.751 524.824C716.276 525.016 715.743 525.112 715.151 525.112C714.559 525.112 714.023 525.016 713.543 524.824C713.068 524.627 712.663 524.347 712.327 523.984C711.991 523.621 711.732 523.184 711.551 522.672C711.37 522.16 711.279 521.584 711.279 520.944C711.279 520.309 711.37 519.736 711.551 519.224C711.732 518.707 711.991 518.267 712.327 517.904C712.663 517.541 713.068 517.261 713.543 517.064C714.023 516.867 714.559 516.768 715.151 516.768ZM715.151 524C715.951 524 716.548 523.733 716.943 523.2C717.338 522.661 717.535 521.912 717.535 520.952C717.535 519.987 717.338 519.235 716.943 518.696C716.548 518.157 715.951 517.888 715.151 517.888C714.746 517.888 714.394 517.957 714.095 518.096C713.796 518.235 713.546 518.435 713.343 518.696C713.146 518.957 712.996 519.28 712.895 519.664C712.799 520.043 712.751 520.472 712.751 520.952C712.751 521.432 712.799 521.861 712.895 522.24C712.996 522.619 713.146 522.939 713.343 523.2C713.546 523.456 713.796 523.653 714.095 523.792C714.394 523.931 714.746 524 715.151 524ZM720.762 525V516.896H721.61C721.812 516.896 721.94 516.995 721.994 517.192L722.106 518.072C722.458 517.683 722.85 517.368 723.282 517.128C723.719 516.888 724.223 516.768 724.794 516.768C725.236 516.768 725.626 516.843 725.962 516.992C726.303 517.136 726.586 517.344 726.81 517.616C727.039 517.883 727.212 518.205 727.33 518.584C727.447 518.963 727.506 519.381 727.506 519.84V525H726.082V519.84C726.082 519.227 725.94 518.752 725.658 518.416C725.38 518.075 724.954 517.904 724.378 517.904C723.956 517.904 723.562 518.005 723.194 518.208C722.831 518.411 722.495 518.685 722.186 519.032V525H720.762Z" fill="white"/>
<path d="M57.0984 104.536V105.84H53.3944V116H51.8424V105.84H48.1224V104.536H57.0984ZM62.4559 116H61.8239C61.6853 116 61.5733 115.979 61.4879 115.936C61.4026 115.893 61.3466 115.803 61.3199 115.664L61.1599 114.912C60.9466 115.104 60.7386 115.277 60.5359 115.432C60.3333 115.581 60.1199 115.709 59.8959 115.816C59.6719 115.917 59.4319 115.995 59.1759 116.048C58.9253 116.101 58.6453 116.128 58.3359 116.128C58.0213 116.128 57.7253 116.085 57.4479 116C57.1759 115.909 56.9386 115.776 56.7359 115.6C56.5333 115.424 56.3706 115.203 56.2479 114.936C56.1306 114.664 56.0719 114.344 56.0719 113.976C56.0719 113.656 56.1599 113.349 56.3359 113.056C56.5119 112.757 56.7946 112.493 57.1839 112.264C57.5786 112.035 58.0933 111.848 58.7279 111.704C59.3626 111.555 60.1386 111.469 61.0559 111.448V110.816C61.0559 110.187 60.9199 109.712 60.6479 109.392C60.3813 109.067 59.9839 108.904 59.4559 108.904C59.1093 108.904 58.8159 108.949 58.5759 109.04C58.3413 109.125 58.1359 109.224 57.9599 109.336C57.7893 109.443 57.6399 109.541 57.5119 109.632C57.3893 109.717 57.2666 109.76 57.1439 109.76C57.0479 109.76 56.9626 109.736 56.8879 109.688C56.8186 109.635 56.7626 109.571 56.7199 109.496L56.4639 109.04C56.9119 108.608 57.3946 108.285 57.9119 108.072C58.4293 107.859 59.0026 107.752 59.6319 107.752C60.0853 107.752 60.4879 107.827 60.8399 107.976C61.1919 108.125 61.4879 108.333 61.7279 108.6C61.9679 108.867 62.1493 109.189 62.2719 109.568C62.3946 109.947 62.4559 110.363 62.4559 110.816V116ZM58.7599 115.128C59.0106 115.128 59.2399 115.104 59.4479 115.056C59.6559 115.003 59.8506 114.931 60.0319 114.84C60.2186 114.744 60.3946 114.629 60.5599 114.496C60.7306 114.363 60.8959 114.211 61.0559 114.04V112.352C60.3999 112.373 59.8426 112.427 59.3839 112.512C58.9253 112.592 58.5519 112.699 58.2639 112.832C57.9759 112.965 57.7653 113.123 57.6319 113.304C57.5039 113.485 57.4399 113.688 57.4399 113.912C57.4399 114.125 57.4746 114.309 57.5439 114.464C57.6133 114.619 57.7066 114.747 57.8239 114.848C57.9413 114.944 58.0799 115.016 58.2399 115.064C58.3999 115.107 58.5733 115.128 58.7599 115.128ZM64.6613 116V104.216H66.0933V109.064C66.4293 108.675 66.8133 108.363 67.2453 108.128C67.6826 107.888 68.1813 107.768 68.7413 107.768C69.2106 107.768 69.6346 107.856 70.0133 108.032C70.392 108.208 70.7146 108.472 70.9813 108.824C71.248 109.171 71.4533 109.603 71.5973 110.12C71.7413 110.632 71.8133 111.224 71.8133 111.896C71.8133 112.493 71.7333 113.051 71.5733 113.568C71.4133 114.08 71.1813 114.525 70.8773 114.904C70.5786 115.277 70.2106 115.573 69.7733 115.792C69.3413 116.005 68.8533 116.112 68.3093 116.112C67.7866 116.112 67.3413 116.011 66.9733 115.808C66.6106 115.605 66.2933 115.323 66.0213 114.96L65.9493 115.696C65.9066 115.899 65.784 116 65.5813 116H64.6613ZM68.2773 108.904C67.8133 108.904 67.4053 109.011 67.0533 109.224C66.7066 109.437 66.3866 109.739 66.0933 110.128V114.048C66.3493 114.4 66.632 114.648 66.9413 114.792C67.256 114.936 67.6053 115.008 67.9893 115.008C68.7466 115.008 69.328 114.739 69.7333 114.2C70.1386 113.661 70.3413 112.893 70.3413 111.896C70.3413 111.368 70.2933 110.915 70.1973 110.536C70.1066 110.157 69.9733 109.848 69.7973 109.608C69.6213 109.363 69.4053 109.184 69.1493 109.072C68.8933 108.96 68.6026 108.904 68.2773 108.904ZM78.2286 104.216V116H76.8046V104.216H78.2286ZM86.6903 116H86.0583C85.9196 116 85.8076 115.979 85.7223 115.936C85.637 115.893 85.581 115.803 85.5543 115.664L85.3943 114.912C85.181 115.104 84.973 115.277 84.7703 115.432C84.5676 115.581 84.3543 115.709 84.1303 115.816C83.9063 115.917 83.6663 115.995 83.4103 116.048C83.1596 116.101 82.8796 116.128 82.5703 116.128C82.2556 116.128 81.9596 116.085 81.6823 116C81.4103 115.909 81.173 115.776 80.9703 115.6C80.7676 115.424 80.605 115.203 80.4823 114.936C80.365 114.664 80.3063 114.344 80.3063 113.976C80.3063 113.656 80.3943 113.349 80.5703 113.056C80.7463 112.757 81.029 112.493 81.4183 112.264C81.813 112.035 82.3276 111.848 82.9623 111.704C83.597 111.555 84.373 111.469 85.2903 111.448V110.816C85.2903 110.187 85.1543 109.712 84.8823 109.392C84.6156 109.067 84.2183 108.904 83.6903 108.904C83.3436 108.904 83.0503 108.949 82.8103 109.04C82.5756 109.125 82.3703 109.224 82.1943 109.336C82.0236 109.443 81.8743 109.541 81.7463 109.632C81.6236 109.717 81.501 109.76 81.3783 109.76C81.2823 109.76 81.197 109.736 81.1223 109.688C81.053 109.635 80.997 109.571 80.9543 109.496L80.6983 109.04C81.1463 108.608 81.629 108.285 82.1463 108.072C82.6636 107.859 83.237 107.752 83.8663 107.752C84.3196 107.752 84.7223 107.827 85.0743 107.976C85.4263 108.125 85.7223 108.333 85.9623 108.6C86.2023 108.867 86.3836 109.189 86.5063 109.568C86.629 109.947 86.6903 110.363 86.6903 110.816V116ZM82.9943 115.128C83.245 115.128 83.4743 115.104 83.6823 115.056C83.8903 115.003 84.085 114.931 84.2663 114.84C84.453 114.744 84.629 114.629 84.7943 114.496C84.965 114.363 85.1303 114.211 85.2903 114.04V112.352C84.6343 112.373 84.077 112.427 83.6183 112.512C83.1596 112.592 82.7863 112.699 82.4983 112.832C82.2103 112.965 81.9996 113.123 81.8663 113.304C81.7383 113.485 81.6743 113.688 81.6743 113.912C81.6743 114.125 81.709 114.309 81.7783 114.464C81.8476 114.619 81.941 114.747 82.0583 114.848C82.1756 114.944 82.3143 115.016 82.4743 115.064C82.6343 115.107 82.8076 115.128 82.9943 115.128ZM88.8957 116V104.216H90.3277V109.064C90.6637 108.675 91.0477 108.363 91.4797 108.128C91.917 107.888 92.4157 107.768 92.9757 107.768C93.445 107.768 93.869 107.856 94.2477 108.032C94.6264 108.208 94.949 108.472 95.2157 108.824C95.4824 109.171 95.6877 109.603 95.8317 110.12C95.9757 110.632 96.0477 111.224 96.0477 111.896C96.0477 112.493 95.9677 113.051 95.8077 113.568C95.6477 114.08 95.4157 114.525 95.1117 114.904C94.813 115.277 94.445 115.573 94.0077 115.792C93.5757 116.005 93.0877 116.112 92.5437 116.112C92.021 116.112 91.5757 116.011 91.2077 115.808C90.845 115.605 90.5277 115.323 90.2557 114.96L90.1837 115.696C90.141 115.899 90.0184 116 89.8157 116H88.8957ZM92.5117 108.904C92.0477 108.904 91.6397 109.011 91.2877 109.224C90.941 109.437 90.621 109.739 90.3277 110.128V114.048C90.5837 114.4 90.8664 114.648 91.1757 114.792C91.4904 114.936 91.8397 115.008 92.2237 115.008C92.981 115.008 93.5624 114.739 93.9677 114.2C94.373 113.661 94.5757 112.893 94.5757 111.896C94.5757 111.368 94.5277 110.915 94.4317 110.536C94.341 110.157 94.2077 109.848 94.0317 109.608C93.8557 109.363 93.6397 109.184 93.3837 109.072C93.1277 108.96 92.837 108.904 92.5117 108.904ZM100.993 107.768C101.479 107.768 101.927 107.851 102.337 108.016C102.748 108.176 103.103 108.411 103.401 108.72C103.7 109.024 103.932 109.403 104.097 109.856C104.268 110.304 104.353 110.816 104.353 111.392C104.353 111.616 104.329 111.765 104.281 111.84C104.233 111.915 104.143 111.952 104.009 111.952H98.6172C98.6279 112.464 98.6972 112.909 98.8252 113.288C98.9532 113.667 99.1292 113.984 99.3532 114.24C99.5772 114.491 99.8439 114.68 100.153 114.808C100.463 114.931 100.809 114.992 101.193 114.992C101.551 114.992 101.857 114.952 102.113 114.872C102.375 114.787 102.599 114.696 102.785 114.6C102.972 114.504 103.127 114.416 103.249 114.336C103.377 114.251 103.487 114.208 103.577 114.208C103.695 114.208 103.785 114.253 103.849 114.344L104.249 114.864C104.073 115.077 103.863 115.264 103.617 115.424C103.372 115.579 103.108 115.707 102.825 115.808C102.548 115.909 102.26 115.984 101.961 116.032C101.663 116.085 101.367 116.112 101.073 116.112C100.513 116.112 99.9959 116.019 99.5212 115.832C99.0519 115.64 98.6439 115.363 98.2972 115C97.9559 114.632 97.6892 114.179 97.4972 113.64C97.3052 113.101 97.2092 112.483 97.2092 111.784C97.2092 111.219 97.2945 110.691 97.4652 110.2C97.6412 109.709 97.8919 109.285 98.2172 108.928C98.5425 108.565 98.9399 108.283 99.4092 108.08C99.8785 107.872 100.407 107.768 100.993 107.768ZM101.025 108.816C100.337 108.816 99.7959 109.016 99.4012 109.416C99.0065 109.811 98.7612 110.36 98.6652 111.064H103.073C103.073 110.733 103.028 110.432 102.937 110.16C102.847 109.883 102.713 109.645 102.537 109.448C102.361 109.245 102.145 109.091 101.889 108.984C101.639 108.872 101.351 108.816 101.025 108.816ZM107.76 104.216V116H106.336V104.216H107.76Z" fill="black"/>
<line x1="24" y1="130" x2="132" y2="130" stroke="#0064D1" stroke-width="2"/>
<path d="M165.098 104.536V105.84H161.394V116H159.842V105.84H156.122V104.536H165.098ZM170.456 116H169.824C169.685 116 169.573 115.979 169.488 115.936C169.403 115.893 169.347 115.803 169.32 115.664L169.16 114.912C168.947 115.104 168.739 115.277 168.536 115.432C168.333 115.581 168.12 115.709 167.896 115.816C167.672 115.917 167.432 115.995 167.176 116.048C166.925 116.101 166.645 116.128 166.336 116.128C166.021 116.128 165.725 116.085 165.448 116C165.176 115.909 164.939 115.776 164.736 115.6C164.533 115.424 164.371 115.203 164.248 114.936C164.131 114.664 164.072 114.344 164.072 113.976C164.072 113.656 164.16 113.349 164.336 113.056C164.512 112.757 164.795 112.493 165.184 112.264C165.579 112.035 166.093 111.848 166.728 111.704C167.363 111.555 168.139 111.469 169.056 111.448V110.816C169.056 110.187 168.92 109.712 168.648 109.392C168.381 109.067 167.984 108.904 167.456 108.904C167.109 108.904 166.816 108.949 166.576 109.04C166.341 109.125 166.136 109.224 165.96 109.336C165.789 109.443 165.64 109.541 165.512 109.632C165.389 109.717 165.267 109.76 165.144 109.76C165.048 109.76 164.963 109.736 164.888 109.688C164.819 109.635 164.763 109.571 164.72 109.496L164.464 109.04C164.912 108.608 165.395 108.285 165.912 108.072C166.429 107.859 167.003 107.752 167.632 107.752C168.085 107.752 168.488 107.827 168.84 107.976C169.192 108.125 169.488 108.333 169.728 108.6C169.968 108.867 170.149 109.189 170.272 109.568C170.395 109.947 170.456 110.363 170.456 110.816V116ZM166.76 115.128C167.011 115.128 167.24 115.104 167.448 115.056C167.656 115.003 167.851 114.931 168.032 114.84C168.219 114.744 168.395 114.629 168.56 114.496C168.731 114.363 168.896 114.211 169.056 114.04V112.352C168.4 112.373 167.843 112.427 167.384 112.512C166.925 112.592 166.552 112.699 166.264 112.832C165.976 112.965 165.765 113.123 165.632 113.304C165.504 113.485 165.44 113.688 165.44 113.912C165.44 114.125 165.475 114.309 165.544 114.464C165.613 114.619 165.707 114.747 165.824 114.848C165.941 114.944 166.08 115.016 166.24 115.064C166.4 115.107 166.573 115.128 166.76 115.128ZM172.661 116V104.216H174.093V109.064C174.429 108.675 174.813 108.363 175.245 108.128C175.683 107.888 176.181 107.768 176.741 107.768C177.211 107.768 177.635 107.856 178.013 108.032C178.392 108.208 178.715 108.472 178.981 108.824C179.248 109.171 179.453 109.603 179.597 110.12C179.741 110.632 179.813 111.224 179.813 111.896C179.813 112.493 179.733 113.051 179.573 113.568C179.413 114.08 179.181 114.525 178.877 114.904C178.579 115.277 178.211 115.573 177.773 115.792C177.341 116.005 176.853 116.112 176.309 116.112C175.787 116.112 175.341 116.011 174.973 115.808C174.611 115.605 174.293 115.323 174.021 114.96L173.949 115.696C173.907 115.899 173.784 116 173.581 116H172.661ZM176.277 108.904C175.813 108.904 175.405 109.011 175.053 109.224C174.707 109.437 174.387 109.739 174.093 110.128V114.048C174.349 114.4 174.632 114.648 174.941 114.792C175.256 114.936 175.605 115.008 175.989 115.008C176.747 115.008 177.328 114.739 177.733 114.2C178.139 113.661 178.341 112.893 178.341 111.896C178.341 111.368 178.293 110.915 178.197 110.536C178.107 110.157 177.973 109.848 177.797 109.608C177.621 109.363 177.405 109.184 177.149 109.072C176.893 108.96 176.603 108.904 176.277 108.904ZM186.229 104.216V116H184.805V104.216H186.229ZM194.69 116H194.058C193.92 116 193.808 115.979 193.722 115.936C193.637 115.893 193.581 115.803 193.554 115.664L193.394 114.912C193.181 115.104 192.973 115.277 192.77 115.432C192.568 115.581 192.354 115.709 192.13 115.816C191.906 115.917 191.666 115.995 191.41 116.048C191.16 116.101 190.88 116.128 190.57 116.128C190.256 116.128 189.96 116.085 189.682 116C189.41 115.909 189.173 115.776 188.97 115.6C188.768 115.424 188.605 115.203 188.482 114.936C188.365 114.664 188.306 114.344 188.306 113.976C188.306 113.656 188.394 113.349 188.57 113.056C188.746 112.757 189.029 112.493 189.418 112.264C189.813 112.035 190.328 111.848 190.962 111.704C191.597 111.555 192.373 111.469 193.29 111.448V110.816C193.29 110.187 193.154 109.712 192.882 109.392C192.616 109.067 192.218 108.904 191.69 108.904C191.344 108.904 191.05 108.949 190.81 109.04C190.576 109.125 190.37 109.224 190.194 109.336C190.024 109.443 189.874 109.541 189.746 109.632C189.624 109.717 189.501 109.76 189.378 109.76C189.282 109.76 189.197 109.736 189.122 109.688C189.053 109.635 188.997 109.571 188.954 109.496L188.698 109.04C189.146 108.608 189.629 108.285 190.146 108.072C190.664 107.859 191.237 107.752 191.866 107.752C192.32 107.752 192.722 107.827 193.074 107.976C193.426 108.125 193.722 108.333 193.962 108.6C194.202 108.867 194.384 109.189 194.506 109.568C194.629 109.947 194.69 110.363 194.69 110.816V116ZM190.994 115.128C191.245 115.128 191.474 115.104 191.682 115.056C191.89 115.003 192.085 114.931 192.266 114.84C192.453 114.744 192.629 114.629 192.794 114.496C192.965 114.363 193.13 114.211 193.29 114.04V112.352C192.634 112.373 192.077 112.427 191.618 112.512C191.16 112.592 190.786 112.699 190.498 112.832C190.21 112.965 190 113.123 189.866 113.304C189.738 113.485 189.674 113.688 189.674 113.912C189.674 114.125 189.709 114.309 189.778 114.464C189.848 114.619 189.941 114.747 190.058 114.848C190.176 114.944 190.314 115.016 190.474 115.064C190.634 115.107 190.808 115.128 190.994 115.128ZM196.896 116V104.216H198.328V109.064C198.664 108.675 199.048 108.363 199.48 108.128C199.917 107.888 200.416 107.768 200.976 107.768C201.445 107.768 201.869 107.856 202.248 108.032C202.626 108.208 202.949 108.472 203.216 108.824C203.482 109.171 203.688 109.603 203.832 110.12C203.976 110.632 204.048 111.224 204.048 111.896C204.048 112.493 203.968 113.051 203.808 113.568C203.648 114.08 203.416 114.525 203.112 114.904C202.813 115.277 202.445 115.573 202.008 115.792C201.576 116.005 201.088 116.112 200.544 116.112C200.021 116.112 199.576 116.011 199.208 115.808C198.845 115.605 198.528 115.323 198.256 114.96L198.184 115.696C198.141 115.899 198.018 116 197.816 116H196.896ZM200.512 108.904C200.048 108.904 199.64 109.011 199.288 109.224C198.941 109.437 198.621 109.739 198.328 110.128V114.048C198.584 114.4 198.866 114.648 199.176 114.792C199.49 114.936 199.84 115.008 200.224 115.008C200.981 115.008 201.562 114.739 201.968 114.2C202.373 113.661 202.576 112.893 202.576 111.896C202.576 111.368 202.528 110.915 202.432 110.536C202.341 110.157 202.208 109.848 202.032 109.608C201.856 109.363 201.64 109.184 201.384 109.072C201.128 108.96 200.837 108.904 200.512 108.904ZM208.993 107.768C209.479 107.768 209.927 107.851 210.337 108.016C210.748 108.176 211.103 108.411 211.401 108.72C211.7 109.024 211.932 109.403 212.097 109.856C212.268 110.304 212.353 110.816 212.353 111.392C212.353 111.616 212.329 111.765 212.281 111.84C212.233 111.915 212.143 111.952 212.009 111.952H206.617C206.628 112.464 206.697 112.909 206.825 113.288C206.953 113.667 207.129 113.984 207.353 114.24C207.577 114.491 207.844 114.68 208.153 114.808C208.463 114.931 208.809 114.992 209.193 114.992C209.551 114.992 209.857 114.952 210.113 114.872C210.375 114.787 210.599 114.696 210.785 114.6C210.972 114.504 211.127 114.416 211.249 114.336C211.377 114.251 211.487 114.208 211.577 114.208C211.695 114.208 211.785 114.253 211.849 114.344L212.249 114.864C212.073 115.077 211.863 115.264 211.617 115.424C211.372 115.579 211.108 115.707 210.825 115.808C210.548 115.909 210.26 115.984 209.961 116.032C209.663 116.085 209.367 116.112 209.073 116.112C208.513 116.112 207.996 116.019 207.521 115.832C207.052 115.64 206.644 115.363 206.297 115C205.956 114.632 205.689 114.179 205.497 113.64C205.305 113.101 205.209 112.483 205.209 111.784C205.209 111.219 205.295 110.691 205.465 110.2C205.641 109.709 205.892 109.285 206.217 108.928C206.543 108.565 206.94 108.283 207.409 108.08C207.879 107.872 208.407 107.768 208.993 107.768ZM209.025 108.816C208.337 108.816 207.796 109.016 207.401 109.416C207.007 109.811 206.761 110.36 206.665 111.064H211.073C211.073 110.733 211.028 110.432 210.937 110.16C210.847 109.883 210.713 109.645 210.537 109.448C210.361 109.245 210.145 109.091 209.889 108.984C209.639 108.872 209.351 108.816 209.025 108.816ZM215.76 104.216V116H214.336V104.216H215.76Z" fill="black"/>
<line x1="132" y1="130.5" x2="240" y2="130.5" stroke="#D8D8D8"/>
<path d="M273.098 104.536V105.84H269.394V116H267.842V105.84H264.122V104.536H273.098ZM278.456 116H277.824C277.685 116 277.573 115.979 277.488 115.936C277.403 115.893 277.347 115.803 277.32 115.664L277.16 114.912C276.947 115.104 276.739 115.277 276.536 115.432C276.333 115.581 276.12 115.709 275.896 115.816C275.672 115.917 275.432 115.995 275.176 116.048C274.925 116.101 274.645 116.128 274.336 116.128C274.021 116.128 273.725 116.085 273.448 116C273.176 115.909 272.939 115.776 272.736 115.6C272.533 115.424 272.371 115.203 272.248 114.936C272.131 114.664 272.072 114.344 272.072 113.976C272.072 113.656 272.16 113.349 272.336 113.056C272.512 112.757 272.795 112.493 273.184 112.264C273.579 112.035 274.093 111.848 274.728 111.704C275.363 111.555 276.139 111.469 277.056 111.448V110.816C277.056 110.187 276.92 109.712 276.648 109.392C276.381 109.067 275.984 108.904 275.456 108.904C275.109 108.904 274.816 108.949 274.576 109.04C274.341 109.125 274.136 109.224 273.96 109.336C273.789 109.443 273.64 109.541 273.512 109.632C273.389 109.717 273.267 109.76 273.144 109.76C273.048 109.76 272.963 109.736 272.888 109.688C272.819 109.635 272.763 109.571 272.72 109.496L272.464 109.04C272.912 108.608 273.395 108.285 273.912 108.072C274.429 107.859 275.003 107.752 275.632 107.752C276.085 107.752 276.488 107.827 276.84 107.976C277.192 108.125 277.488 108.333 277.728 108.6C277.968 108.867 278.149 109.189 278.272 109.568C278.395 109.947 278.456 110.363 278.456 110.816V116ZM274.76 115.128C275.011 115.128 275.24 115.104 275.448 115.056C275.656 115.003 275.851 114.931 276.032 114.84C276.219 114.744 276.395 114.629 276.56 114.496C276.731 114.363 276.896 114.211 277.056 114.04V112.352C276.4 112.373 275.843 112.427 275.384 112.512C274.925 112.592 274.552 112.699 274.264 112.832C273.976 112.965 273.765 113.123 273.632 113.304C273.504 113.485 273.44 113.688 273.44 113.912C273.44 114.125 273.475 114.309 273.544 114.464C273.613 114.619 273.707 114.747 273.824 114.848C273.941 114.944 274.08 115.016 274.24 115.064C274.4 115.107 274.573 115.128 274.76 115.128ZM280.661 116V104.216H282.093V109.064C282.429 108.675 282.813 108.363 283.245 108.128C283.683 107.888 284.181 107.768 284.741 107.768C285.211 107.768 285.635 107.856 286.013 108.032C286.392 108.208 286.715 108.472 286.981 108.824C287.248 109.171 287.453 109.603 287.597 110.12C287.741 110.632 287.813 111.224 287.813 111.896C287.813 112.493 287.733 113.051 287.573 113.568C287.413 114.08 287.181 114.525 286.877 114.904C286.579 115.277 286.211 115.573 285.773 115.792C285.341 116.005 284.853 116.112 284.309 116.112C283.787 116.112 283.341 116.011 282.973 115.808C282.611 115.605 282.293 115.323 282.021 114.96L281.949 115.696C281.907 115.899 281.784 116 281.581 116H280.661ZM284.277 108.904C283.813 108.904 283.405 109.011 283.053 109.224C282.707 109.437 282.387 109.739 282.093 110.128V114.048C282.349 114.4 282.632 114.648 282.941 114.792C283.256 114.936 283.605 115.008 283.989 115.008C284.747 115.008 285.328 114.739 285.733 114.2C286.139 113.661 286.341 112.893 286.341 111.896C286.341 111.368 286.293 110.915 286.197 110.536C286.107 110.157 285.973 109.848 285.797 109.608C285.621 109.363 285.405 109.184 285.149 109.072C284.893 108.96 284.603 108.904 284.277 108.904ZM294.229 104.216V116H292.805V104.216H294.229ZM302.69 116H302.058C301.92 116 301.808 115.979 301.722 115.936C301.637 115.893 301.581 115.803 301.554 115.664L301.394 114.912C301.181 115.104 300.973 115.277 300.77 115.432C300.568 115.581 300.354 115.709 300.13 115.816C299.906 115.917 299.666 115.995 299.41 116.048C299.16 116.101 298.88 116.128 298.57 116.128C298.256 116.128 297.96 116.085 297.682 116C297.41 115.909 297.173 115.776 296.97 115.6C296.768 115.424 296.605 115.203 296.482 114.936C296.365 114.664 296.306 114.344 296.306 113.976C296.306 113.656 296.394 113.349 296.57 113.056C296.746 112.757 297.029 112.493 297.418 112.264C297.813 112.035 298.328 111.848 298.962 111.704C299.597 111.555 300.373 111.469 301.29 111.448V110.816C301.29 110.187 301.154 109.712 300.882 109.392C300.616 109.067 300.218 108.904 299.69 108.904C299.344 108.904 299.05 108.949 298.81 109.04C298.576 109.125 298.37 109.224 298.194 109.336C298.024 109.443 297.874 109.541 297.746 109.632C297.624 109.717 297.501 109.76 297.378 109.76C297.282 109.76 297.197 109.736 297.122 109.688C297.053 109.635 296.997 109.571 296.954 109.496L296.698 109.04C297.146 108.608 297.629 108.285 298.146 108.072C298.664 107.859 299.237 107.752 299.866 107.752C300.32 107.752 300.722 107.827 301.074 107.976C301.426 108.125 301.722 108.333 301.962 108.6C302.202 108.867 302.384 109.189 302.506 109.568C302.629 109.947 302.69 110.363 302.69 110.816V116ZM298.994 115.128C299.245 115.128 299.474 115.104 299.682 115.056C299.89 115.003 300.085 114.931 300.266 114.84C300.453 114.744 300.629 114.629 300.794 114.496C300.965 114.363 301.13 114.211 301.29 114.04V112.352C300.634 112.373 300.077 112.427 299.618 112.512C299.16 112.592 298.786 112.699 298.498 112.832C298.21 112.965 298 113.123 297.866 113.304C297.738 113.485 297.674 113.688 297.674 113.912C297.674 114.125 297.709 114.309 297.778 114.464C297.848 114.619 297.941 114.747 298.058 114.848C298.176 114.944 298.314 115.016 298.474 115.064C298.634 115.107 298.808 115.128 298.994 115.128ZM304.896 116V104.216H306.328V109.064C306.664 108.675 307.048 108.363 307.48 108.128C307.917 107.888 308.416 107.768 308.976 107.768C309.445 107.768 309.869 107.856 310.248 108.032C310.626 108.208 310.949 108.472 311.216 108.824C311.482 109.171 311.688 109.603 311.832 110.12C311.976 110.632 312.048 111.224 312.048 111.896C312.048 112.493 311.968 113.051 311.808 113.568C311.648 114.08 311.416 114.525 311.112 114.904C310.813 115.277 310.445 115.573 310.008 115.792C309.576 116.005 309.088 116.112 308.544 116.112C308.021 116.112 307.576 116.011 307.208 115.808C306.845 115.605 306.528 115.323 306.256 114.96L306.184 115.696C306.141 115.899 306.018 116 305.816 116H304.896ZM308.512 108.904C308.048 108.904 307.64 109.011 307.288 109.224C306.941 109.437 306.621 109.739 306.328 110.128V114.048C306.584 114.4 306.866 114.648 307.176 114.792C307.49 114.936 307.84 115.008 308.224 115.008C308.981 115.008 309.562 114.739 309.968 114.2C310.373 113.661 310.576 112.893 310.576 111.896C310.576 111.368 310.528 110.915 310.432 110.536C310.341 110.157 310.208 109.848 310.032 109.608C309.856 109.363 309.64 109.184 309.384 109.072C309.128 108.96 308.837 108.904 308.512 108.904ZM316.993 107.768C317.479 107.768 317.927 107.851 318.337 108.016C318.748 108.176 319.103 108.411 319.401 108.72C319.7 109.024 319.932 109.403 320.097 109.856C320.268 110.304 320.353 110.816 320.353 111.392C320.353 111.616 320.329 111.765 320.281 111.84C320.233 111.915 320.143 111.952 320.009 111.952H314.617C314.628 112.464 314.697 112.909 314.825 113.288C314.953 113.667 315.129 113.984 315.353 114.24C315.577 114.491 315.844 114.68 316.153 114.808C316.463 114.931 316.809 114.992 317.193 114.992C317.551 114.992 317.857 114.952 318.113 114.872C318.375 114.787 318.599 114.696 318.785 114.6C318.972 114.504 319.127 114.416 319.249 114.336C319.377 114.251 319.487 114.208 319.577 114.208C319.695 114.208 319.785 114.253 319.849 114.344L320.249 114.864C320.073 115.077 319.863 115.264 319.617 115.424C319.372 115.579 319.108 115.707 318.825 115.808C318.548 115.909 318.26 115.984 317.961 116.032C317.663 116.085 317.367 116.112 317.073 116.112C316.513 116.112 315.996 116.019 315.521 115.832C315.052 115.64 314.644 115.363 314.297 115C313.956 114.632 313.689 114.179 313.497 113.64C313.305 113.101 313.209 112.483 313.209 111.784C313.209 111.219 313.295 110.691 313.465 110.2C313.641 109.709 313.892 109.285 314.217 108.928C314.543 108.565 314.94 108.283 315.409 108.08C315.879 107.872 316.407 107.768 316.993 107.768ZM317.025 108.816C316.337 108.816 315.796 109.016 315.401 109.416C315.007 109.811 314.761 110.36 314.665 111.064H319.073C319.073 110.733 319.028 110.432 318.937 110.16C318.847 109.883 318.713 109.645 318.537 109.448C318.361 109.245 318.145 109.091 317.889 108.984C317.639 108.872 317.351 108.816 317.025 108.816ZM323.76 104.216V116H322.336V104.216H323.76Z" fill="black"/>
<line x1="240" y1="130.5" x2="348" y2="130.5" stroke="#D8D8D8"/>
<line x1="349" y1="130.5" x2="772" y2="130.5" stroke="#D8D8D8"/>
<path d="M50.944 178.696H55.904V180H49.392V168.536H50.944V178.696ZM63.3388 180H62.7068C62.5681 180 62.4561 179.979 62.3708 179.936C62.2854 179.893 62.2294 179.803 62.2028 179.664L62.0428 178.912C61.8294 179.104 61.6214 179.277 61.4188 179.432C61.2161 179.581 61.0028 179.709 60.7788 179.816C60.5548 179.917 60.3148 179.995 60.0588 180.048C59.8081 180.101 59.5281 180.128 59.2188 180.128C58.9041 180.128 58.6081 180.085 58.3307 180C58.0588 179.909 57.8214 179.776 57.6188 179.6C57.4161 179.424 57.2534 179.203 57.1308 178.936C57.0134 178.664 56.9548 178.344 56.9548 177.976C56.9548 177.656 57.0428 177.349 57.2188 177.056C57.3948 176.757 57.6774 176.493 58.0668 176.264C58.4614 176.035 58.9761 175.848 59.6108 175.704C60.2454 175.555 61.0214 175.469 61.9388 175.448V174.816C61.9388 174.187 61.8028 173.712 61.5308 173.392C61.2641 173.067 60.8668 172.904 60.3388 172.904C59.9921 172.904 59.6988 172.949 59.4588 173.04C59.2241 173.125 59.0188 173.224 58.8428 173.336C58.6721 173.443 58.5228 173.541 58.3948 173.632C58.2721 173.717 58.1494 173.76 58.0268 173.76C57.9308 173.76 57.8454 173.736 57.7708 173.688C57.7014 173.635 57.6454 173.571 57.6028 173.496L57.3468 173.04C57.7948 172.608 58.2774 172.285 58.7948 172.072C59.3121 171.859 59.8854 171.752 60.5148 171.752C60.9681 171.752 61.3708 171.827 61.7228 171.976C62.0748 172.125 62.3708 172.333 62.6108 172.6C62.8508 172.867 63.0321 173.189 63.1548 173.568C63.2774 173.947 63.3388 174.363 63.3388 174.816V180ZM59.6428 179.128C59.8934 179.128 60.1228 179.104 60.3307 179.056C60.5388 179.003 60.7334 178.931 60.9148 178.84C61.1014 178.744 61.2774 178.629 61.4428 178.496C61.6134 178.363 61.7788 178.211 61.9388 178.04V176.352C61.2828 176.373 60.7254 176.427 60.2668 176.512C59.8081 176.592 59.4348 176.699 59.1468 176.832C58.8588 176.965 58.6481 177.123 58.5148 177.304C58.3868 177.485 58.3228 177.688 58.3228 177.912C58.3228 178.125 58.3574 178.309 58.4268 178.464C58.4961 178.619 58.5894 178.747 58.7068 178.848C58.8241 178.944 58.9628 179.016 59.1228 179.064C59.2828 179.107 59.4561 179.128 59.6428 179.128ZM65.5441 180V168.216H66.9761V173.064C67.3121 172.675 67.6961 172.363 68.1281 172.128C68.5655 171.888 69.0641 171.768 69.6241 171.768C70.0935 171.768 70.5175 171.856 70.8961 172.032C71.2748 172.208 71.5975 172.472 71.8641 172.824C72.1308 173.171 72.3361 173.603 72.4801 174.12C72.6241 174.632 72.6961 175.224 72.6961 175.896C72.6961 176.493 72.6161 177.051 72.4561 177.568C72.2961 178.08 72.0641 178.525 71.7601 178.904C71.4615 179.277 71.0935 179.573 70.6561 179.792C70.2241 180.005 69.7361 180.112 69.1921 180.112C68.6695 180.112 68.2241 180.011 67.8561 179.808C67.4935 179.605 67.1761 179.323 66.9041 178.96L66.8321 179.696C66.7895 179.899 66.6668 180 66.4641 180H65.5441ZM69.1601 172.904C68.6961 172.904 68.2881 173.011 67.9361 173.224C67.5895 173.437 67.2695 173.739 66.9761 174.128V178.048C67.2321 178.4 67.5148 178.648 67.8241 178.792C68.1388 178.936 68.4881 179.008 68.8721 179.008C69.6295 179.008 70.2108 178.739 70.6161 178.2C71.0215 177.661 71.2241 176.893 71.2241 175.896C71.2241 175.368 71.1761 174.915 71.0801 174.536C70.9895 174.157 70.8561 173.848 70.6801 173.608C70.5041 173.363 70.2881 173.184 70.0321 173.072C69.7761 172.96 69.4855 172.904 69.1601 172.904ZM77.6416 171.768C78.127 171.768 78.575 171.851 78.9856 172.016C79.3963 172.176 79.751 172.411 80.0496 172.72C80.3483 173.024 80.5803 173.403 80.7456 173.856C80.9163 174.304 81.0016 174.816 81.0016 175.392C81.0016 175.616 80.9776 175.765 80.9296 175.84C80.8816 175.915 80.791 175.952 80.6576 175.952H75.2656C75.2763 176.464 75.3456 176.909 75.4736 177.288C75.6016 177.667 75.7776 177.984 76.0016 178.24C76.2256 178.491 76.4923 178.68 76.8016 178.808C77.111 178.931 77.4576 178.992 77.8416 178.992C78.199 178.992 78.5056 178.952 78.7616 178.872C79.023 178.787 79.247 178.696 79.4336 178.6C79.6203 178.504 79.775 178.416 79.8976 178.336C80.0256 178.251 80.135 178.208 80.2256 178.208C80.343 178.208 80.4336 178.253 80.4976 178.344L80.8976 178.864C80.7216 179.077 80.511 179.264 80.2656 179.424C80.0203 179.579 79.7563 179.707 79.4736 179.808C79.1963 179.909 78.9083 179.984 78.6096 180.032C78.311 180.085 78.015 180.112 77.7216 180.112C77.1616 180.112 76.6443 180.019 76.1696 179.832C75.7003 179.64 75.2923 179.363 74.9456 179C74.6043 178.632 74.3376 178.179 74.1456 177.64C73.9536 177.101 73.8576 176.483 73.8576 175.784C73.8576 175.219 73.943 174.691 74.1136 174.2C74.2896 173.709 74.5403 173.285 74.8656 172.928C75.191 172.565 75.5883 172.283 76.0576 172.08C76.527 171.872 77.055 171.768 77.6416 171.768ZM77.6736 172.816C76.9856 172.816 76.4443 173.016 76.0496 173.416C75.655 173.811 75.4096 174.36 75.3136 175.064H79.7216C79.7216 174.733 79.6763 174.432 79.5856 174.16C79.495 173.883 79.3616 173.645 79.1856 173.448C79.0096 173.245 78.7936 173.091 78.5376 172.984C78.287 172.872 77.999 172.816 77.6736 172.816ZM84.4083 168.216V180H82.9843V168.216H84.4083Z" fill="black"/>
<rect x="292.5" y="155.5" width="455" height="37" rx="3.5" stroke="#979797"/>
<path d="M316.04 174.272C316.04 175.131 315.904 175.92 315.632 176.64C315.36 177.355 314.976 177.971 314.48 178.488C313.984 179.005 313.387 179.408 312.688 179.696C311.995 179.979 311.227 180.12 310.384 180.12C309.541 180.12 308.773 179.979 308.08 179.696C307.387 179.408 306.792 179.005 306.296 178.488C305.8 177.971 305.416 177.355 305.144 176.64C304.872 175.92 304.736 175.131 304.736 174.272C304.736 173.413 304.872 172.627 305.144 171.912C305.416 171.192 305.8 170.573 306.296 170.056C306.792 169.533 307.387 169.128 308.08 168.84C308.773 168.552 309.541 168.408 310.384 168.408C311.227 168.408 311.995 168.552 312.688 168.84C313.387 169.128 313.984 169.533 314.48 170.056C314.976 170.573 315.36 171.192 315.632 171.912C315.904 172.627 316.04 173.413 316.04 174.272ZM314.448 174.272C314.448 173.568 314.352 172.936 314.16 172.376C313.968 171.816 313.696 171.344 313.344 170.96C312.992 170.571 312.565 170.272 312.064 170.064C311.563 169.856 311.003 169.752 310.384 169.752C309.771 169.752 309.213 169.856 308.712 170.064C308.211 170.272 307.781 170.571 307.424 170.96C307.072 171.344 306.8 171.816 306.608 172.376C306.416 172.936 306.32 173.568 306.32 174.272C306.32 174.976 306.416 175.608 306.608 176.168C306.8 176.723 307.072 177.195 307.424 177.584C307.781 177.968 308.211 178.264 308.712 178.472C309.213 178.675 309.771 178.776 310.384 178.776C311.003 178.776 311.563 178.675 312.064 178.472C312.565 178.264 312.992 177.968 313.344 177.584C313.696 177.195 313.968 176.723 314.16 176.168C314.352 175.608 314.448 174.976 314.448 174.272ZM317.934 182.744V171.896H318.782C318.984 171.896 319.112 171.995 319.166 172.192L319.286 173.152C319.632 172.731 320.027 172.392 320.47 172.136C320.918 171.88 321.432 171.752 322.014 171.752C322.478 171.752 322.899 171.843 323.278 172.024C323.656 172.2 323.979 172.464 324.246 172.816C324.512 173.163 324.718 173.595 324.862 174.112C325.006 174.629 325.078 175.224 325.078 175.896C325.078 176.493 324.998 177.051 324.838 177.568C324.678 178.08 324.448 178.525 324.15 178.904C323.851 179.277 323.483 179.573 323.046 179.792C322.614 180.005 322.126 180.112 321.582 180.112C321.08 180.112 320.651 180.029 320.294 179.864C319.942 179.699 319.63 179.464 319.358 179.16V182.744H317.934ZM321.542 172.904C321.078 172.904 320.67 173.011 320.318 173.224C319.971 173.437 319.651 173.739 319.358 174.128V178.048C319.619 178.4 319.904 178.648 320.214 178.792C320.528 178.936 320.878 179.008 321.262 179.008C322.014 179.008 322.592 178.739 322.998 178.2C323.403 177.661 323.606 176.893 323.606 175.896C323.606 175.368 323.558 174.915 323.462 174.536C323.371 174.157 323.238 173.848 323.062 173.608C322.886 173.363 322.67 173.184 322.414 173.072C322.158 172.96 321.867 172.904 321.542 172.904ZM329.218 180.128C328.578 180.128 328.084 179.949 327.738 179.592C327.396 179.235 327.226 178.72 327.226 178.048V173.088H326.25C326.164 173.088 326.092 173.064 326.034 173.016C325.975 172.963 325.946 172.883 325.946 172.776V172.208L327.274 172.04L327.602 169.536C327.612 169.456 327.647 169.392 327.706 169.344C327.764 169.291 327.839 169.264 327.93 169.264H328.65V172.056H330.97V173.088H328.65V177.952C328.65 178.293 328.732 178.547 328.898 178.712C329.063 178.877 329.276 178.96 329.538 178.96C329.687 178.96 329.815 178.941 329.922 178.904C330.034 178.861 330.13 178.816 330.21 178.768C330.29 178.72 330.356 178.677 330.41 178.64C330.468 178.597 330.519 178.576 330.562 178.576C330.636 178.576 330.703 178.621 330.762 178.712L331.178 179.392C330.932 179.621 330.636 179.803 330.29 179.936C329.943 180.064 329.586 180.128 329.218 180.128ZM334.315 171.896V180H332.891V171.896H334.315ZM334.635 169.352C334.635 169.491 334.605 169.621 334.547 169.744C334.493 169.861 334.419 169.968 334.323 170.064C334.232 170.155 334.125 170.227 334.003 170.28C333.88 170.333 333.749 170.36 333.611 170.36C333.472 170.36 333.341 170.333 333.219 170.28C333.101 170.227 332.995 170.155 332.899 170.064C332.808 169.968 332.736 169.861 332.683 169.744C332.629 169.621 332.603 169.491 332.603 169.352C332.603 169.213 332.629 169.083 332.683 168.96C332.736 168.832 332.808 168.723 332.899 168.632C332.995 168.536 333.101 168.461 333.219 168.408C333.341 168.355 333.472 168.328 333.611 168.328C333.749 168.328 333.88 168.355 334.003 168.408C334.125 168.461 334.232 168.536 334.323 168.632C334.419 168.723 334.493 168.832 334.547 168.96C334.605 169.083 334.635 169.213 334.635 169.352ZM340.104 171.768C340.696 171.768 341.23 171.867 341.704 172.064C342.184 172.261 342.59 172.541 342.92 172.904C343.256 173.267 343.512 173.707 343.688 174.224C343.87 174.736 343.96 175.309 343.96 175.944C343.96 176.584 343.87 177.16 343.688 177.672C343.512 178.184 343.256 178.621 342.92 178.984C342.59 179.347 342.184 179.627 341.704 179.824C341.23 180.016 340.696 180.112 340.104 180.112C339.512 180.112 338.976 180.016 338.496 179.824C338.022 179.627 337.616 179.347 337.28 178.984C336.944 178.621 336.686 178.184 336.504 177.672C336.323 177.16 336.232 176.584 336.232 175.944C336.232 175.309 336.323 174.736 336.504 174.224C336.686 173.707 336.944 173.267 337.28 172.904C337.616 172.541 338.022 172.261 338.496 172.064C338.976 171.867 339.512 171.768 340.104 171.768ZM340.104 179C340.904 179 341.502 178.733 341.896 178.2C342.291 177.661 342.488 176.912 342.488 175.952C342.488 174.987 342.291 174.235 341.896 173.696C341.502 173.157 340.904 172.888 340.104 172.888C339.699 172.888 339.347 172.957 339.048 173.096C338.75 173.235 338.499 173.435 338.296 173.696C338.099 173.957 337.95 174.28 337.848 174.664C337.752 175.043 337.704 175.472 337.704 175.952C337.704 176.432 337.752 176.861 337.848 177.24C337.95 177.619 338.099 177.939 338.296 178.2C338.499 178.456 338.75 178.653 339.048 178.792C339.347 178.931 339.699 179 340.104 179ZM345.715 180V171.896H346.563C346.766 171.896 346.894 171.995 346.947 172.192L347.059 173.072C347.411 172.683 347.803 172.368 348.235 172.128C348.672 171.888 349.176 171.768 349.747 171.768C350.19 171.768 350.579 171.843 350.915 171.992C351.256 172.136 351.539 172.344 351.763 172.616C351.992 172.883 352.166 173.205 352.283 173.584C352.4 173.963 352.459 174.381 352.459 174.84V180H351.035V174.84C351.035 174.227 350.894 173.752 350.611 173.416C350.334 173.075 349.907 172.904 349.331 172.904C348.91 172.904 348.515 173.005 348.147 173.208C347.784 173.411 347.448 173.685 347.139 174.032V180H345.715ZM358.827 178.912H361.291V171.096C361.291 170.861 361.299 170.624 361.315 170.384L359.267 172.136C359.214 172.179 359.161 172.211 359.107 172.232C359.054 172.248 359.003 172.256 358.955 172.256C358.875 172.256 358.803 172.24 358.739 172.208C358.675 172.171 358.627 172.128 358.595 172.08L358.147 171.464L361.555 168.512H362.715V178.912H364.971V180H358.827V178.912Z" fill="black"/>
<path fill-rule="evenodd" clip-rule="evenodd" d="M722.707 171.707C723.098 171.317 723.731 171.317 724.121 171.707L728.707 176.293C729.098 176.683 729.098 177.317 728.707 177.707C728.317 178.098 727.683 178.098 727.293 177.707L722.707 173.121C722.317 172.731 722.317 172.098 722.707 171.707Z" fill="black"/>
<path fill-rule="evenodd" clip-rule="evenodd" d="M733.293 171.707C732.902 171.317 732.269 171.317 731.879 171.707L727.293 176.293C726.902 176.683 726.902 177.317 727.293 177.707C727.683 178.098 728.317 178.098 728.707 177.707L733.293 173.121C733.683 172.731 733.683 172.098 733.293 171.707Z" fill="black"/>
<rect x="292.5" y="217.5" width="455" height="121" rx="3.5" stroke="#979797"/>
<path d="M50.944 229.696H55.904V231H49.392V219.536H50.944V229.696ZM63.3388 231H62.7068C62.5681 231 62.4561 230.979 62.3708 230.936C62.2854 230.893 62.2294 230.803 62.2028 230.664L62.0428 229.912C61.8294 230.104 61.6214 230.277 61.4188 230.432C61.2161 230.581 61.0028 230.709 60.7788 230.816C60.5548 230.917 60.3148 230.995 60.0588 231.048C59.8081 231.101 59.5281 231.128 59.2188 231.128C58.9041 231.128 58.6081 231.085 58.3307 231C58.0588 230.909 57.8214 230.776 57.6188 230.6C57.4161 230.424 57.2534 230.203 57.1308 229.936C57.0134 229.664 56.9548 229.344 56.9548 228.976C56.9548 228.656 57.0428 228.349 57.2188 228.056C57.3948 227.757 57.6774 227.493 58.0668 227.264C58.4614 227.035 58.9761 226.848 59.6108 226.704C60.2454 226.555 61.0214 226.469 61.9388 226.448V225.816C61.9388 225.187 61.8028 224.712 61.5308 224.392C61.2641 224.067 60.8668 223.904 60.3388 223.904C59.9921 223.904 59.6988 223.949 59.4588 224.04C59.2241 224.125 59.0188 224.224 58.8428 224.336C58.6721 224.443 58.5228 224.541 58.3948 224.632C58.2721 224.717 58.1494 224.76 58.0268 224.76C57.9308 224.76 57.8454 224.736 57.7708 224.688C57.7014 224.635 57.6454 224.571 57.6028 224.496L57.3468 224.04C57.7948 223.608 58.2774 223.285 58.7948 223.072C59.3121 222.859 59.8854 222.752 60.5148 222.752C60.9681 222.752 61.3708 222.827 61.7228 222.976C62.0748 223.125 62.3708 223.333 62.6108 223.6C62.8508 223.867 63.0321 224.189 63.1548 224.568C63.2774 224.947 63.3388 225.363 63.3388 225.816V231ZM59.6428 230.128C59.8934 230.128 60.1228 230.104 60.3307 230.056C60.5388 230.003 60.7334 229.931 60.9148 229.84C61.1014 229.744 61.2774 229.629 61.4428 229.496C61.6134 229.363 61.7788 229.211 61.9388 229.04V227.352C61.2828 227.373 60.7254 227.427 60.2668 227.512C59.8081 227.592 59.4348 227.699 59.1468 227.832C58.8588 227.965 58.6481 228.123 58.5148 228.304C58.3868 228.485 58.3228 228.688 58.3228 228.912C58.3228 229.125 58.3574 229.309 58.4268 229.464C58.4961 229.619 58.5894 229.747 58.7068 229.848C58.8241 229.944 58.9628 230.016 59.1228 230.064C59.2828 230.107 59.4561 230.128 59.6428 230.128ZM65.5441 231V219.216H66.9761V224.064C67.3121 223.675 67.6961 223.363 68.1281 223.128C68.5655 222.888 69.0641 222.768 69.6241 222.768C70.0935 222.768 70.5175 222.856 70.8961 223.032C71.2748 223.208 71.5975 223.472 71.8641 223.824C72.1308 224.171 72.3361 224.603 72.4801 225.12C72.6241 225.632 72.6961 226.224 72.6961 226.896C72.6961 227.493 72.6161 228.051 72.4561 228.568C72.2961 229.08 72.0641 229.525 71.7601 229.904C71.4615 230.277 71.0935 230.573 70.6561 230.792C70.2241 231.005 69.7361 231.112 69.1921 231.112C68.6695 231.112 68.2241 231.011 67.8561 230.808C67.4935 230.605 67.1761 230.323 66.9041 229.96L66.8321 230.696C66.7895 230.899 66.6668 231 66.4641 231H65.5441ZM69.1601 223.904C68.6961 223.904 68.2881 224.011 67.9361 224.224C67.5895 224.437 67.2695 224.739 66.9761 225.128V229.048C67.2321 229.4 67.5148 229.648 67.8241 229.792C68.1388 229.936 68.4881 230.008 68.8721 230.008C69.6295 230.008 70.2108 229.739 70.6161 229.2C71.0215 228.661 71.2241 227.893 71.2241 226.896C71.2241 226.368 71.1761 225.915 71.0801 225.536C70.9895 225.157 70.8561 224.848 70.6801 224.608C70.5041 224.363 70.2881 224.184 70.0321 224.072C69.7761 223.96 69.4855 223.904 69.1601 223.904ZM77.6416 222.768C78.127 222.768 78.575 222.851 78.9856 223.016C79.3963 223.176 79.751 223.411 80.0496 223.72C80.3483 224.024 80.5803 224.403 80.7456 224.856C80.9163 225.304 81.0016 225.816 81.0016 226.392C81.0016 226.616 80.9776 226.765 80.9296 226.84C80.8816 226.915 80.791 226.952 80.6576 226.952H75.2656C75.2763 227.464 75.3456 227.909 75.4736 228.288C75.6016 228.667 75.7776 228.984 76.0016 229.24C76.2256 229.491 76.4923 229.68 76.8016 229.808C77.111 229.931 77.4576 229.992 77.8416 229.992C78.199 229.992 78.5056 229.952 78.7616 229.872C79.023 229.787 79.247 229.696 79.4336 229.6C79.6203 229.504 79.775 229.416 79.8976 229.336C80.0256 229.251 80.135 229.208 80.2256 229.208C80.343 229.208 80.4336 229.253 80.4976 229.344L80.8976 229.864C80.7216 230.077 80.511 230.264 80.2656 230.424C80.0203 230.579 79.7563 230.707 79.4736 230.808C79.1963 230.909 78.9083 230.984 78.6096 231.032C78.311 231.085 78.015 231.112 77.7216 231.112C77.1616 231.112 76.6443 231.019 76.1696 230.832C75.7003 230.64 75.2923 230.363 74.9456 230C74.6043 229.632 74.3376 229.179 74.1456 228.64C73.9536 228.101 73.8576 227.483 73.8576 226.784C73.8576 226.219 73.943 225.691 74.1136 225.2C74.2896 224.709 74.5403 224.285 74.8656 223.928C75.191 223.565 75.5883 223.283 76.0576 223.08C76.527 222.872 77.055 222.768 77.6416 222.768ZM77.6736 223.816C76.9856 223.816 76.4443 224.016 76.0496 224.416C75.655 224.811 75.4096 225.36 75.3136 226.064H79.7216C79.7216 225.733 79.6763 225.432 79.5856 225.16C79.495 224.883 79.3616 224.645 79.1856 224.448C79.0096 224.245 78.7936 224.091 78.5376 223.984C78.287 223.872 77.999 223.816 77.6736 223.816ZM84.4083 219.216V231H82.9843V219.216H84.4083Z" fill="black"/>
<path d="M307.096 238.712V243H305.552V231.536H308.936C309.661 231.536 310.291 231.621 310.824 231.792C311.363 231.957 311.808 232.195 312.16 232.504C312.512 232.813 312.773 233.187 312.944 233.624C313.12 234.061 313.208 234.549 313.208 235.088C313.208 235.621 313.115 236.109 312.928 236.552C312.741 236.995 312.467 237.376 312.104 237.696C311.747 238.016 311.301 238.267 310.768 238.448C310.235 238.624 309.624 238.712 308.936 238.712H307.096ZM307.096 237.48H308.936C309.379 237.48 309.768 237.421 310.104 237.304C310.445 237.187 310.731 237.024 310.96 236.816C311.189 236.603 311.363 236.349 311.48 236.056C311.597 235.763 311.656 235.44 311.656 235.088C311.656 234.357 311.429 233.787 310.976 233.376C310.528 232.965 309.848 232.76 308.936 232.76H307.096V237.48ZM316.533 231.216V243H315.109V231.216H316.533ZM324.995 243H324.363C324.224 243 324.112 242.979 324.027 242.936C323.942 242.893 323.886 242.803 323.859 242.664L323.699 241.912C323.486 242.104 323.278 242.277 323.075 242.432C322.872 242.581 322.659 242.709 322.435 242.816C322.211 242.917 321.971 242.995 321.715 243.048C321.464 243.101 321.184 243.128 320.875 243.128C320.56 243.128 320.264 243.085 319.987 243C319.715 242.909 319.478 242.776 319.275 242.6C319.072 242.424 318.91 242.203 318.787 241.936C318.67 241.664 318.611 241.344 318.611 240.976C318.611 240.656 318.699 240.349 318.875 240.056C319.051 239.757 319.334 239.493 319.723 239.264C320.118 239.035 320.632 238.848 321.267 238.704C321.902 238.555 322.678 238.469 323.595 238.448V237.816C323.595 237.187 323.459 236.712 323.187 236.392C322.92 236.067 322.523 235.904 321.995 235.904C321.648 235.904 321.355 235.949 321.115 236.04C320.88 236.125 320.675 236.224 320.499 236.336C320.328 236.443 320.179 236.541 320.051 236.632C319.928 236.717 319.806 236.76 319.683 236.76C319.587 236.76 319.502 236.736 319.427 236.688C319.358 236.635 319.302 236.571 319.259 236.496L319.003 236.04C319.451 235.608 319.934 235.285 320.451 235.072C320.968 234.859 321.542 234.752 322.171 234.752C322.624 234.752 323.027 234.827 323.379 234.976C323.731 235.125 324.027 235.333 324.267 235.6C324.507 235.867 324.688 236.189 324.811 236.568C324.934 236.947 324.995 237.363 324.995 237.816V243ZM321.299 242.128C321.55 242.128 321.779 242.104 321.987 242.056C322.195 242.003 322.39 241.931 322.571 241.84C322.758 241.744 322.934 241.629 323.099 241.496C323.27 241.363 323.435 241.211 323.595 241.04V239.352C322.939 239.373 322.382 239.427 321.923 239.512C321.464 239.592 321.091 239.699 320.803 239.832C320.515 239.965 320.304 240.123 320.171 240.304C320.043 240.485 319.979 240.688 319.979 240.912C319.979 241.125 320.014 241.309 320.083 241.464C320.152 241.619 320.246 241.747 320.363 241.848C320.48 241.944 320.619 242.016 320.779 242.064C320.939 242.107 321.112 242.128 321.299 242.128ZM332.68 236.336C332.638 236.395 332.595 236.44 332.552 236.472C332.51 236.504 332.448 236.52 332.368 236.52C332.288 236.52 332.2 236.488 332.104 236.424C332.014 236.355 331.896 236.28 331.752 236.2C331.608 236.12 331.432 236.048 331.224 235.984C331.022 235.915 330.771 235.88 330.472 235.88C330.078 235.88 329.728 235.952 329.424 236.096C329.12 236.235 328.864 236.437 328.656 236.704C328.454 236.971 328.299 237.293 328.192 237.672C328.091 238.051 328.04 238.475 328.04 238.944C328.04 239.435 328.096 239.872 328.208 240.256C328.32 240.635 328.478 240.955 328.68 241.216C328.883 241.472 329.128 241.669 329.416 241.808C329.71 241.941 330.038 242.008 330.4 242.008C330.747 242.008 331.032 241.968 331.256 241.888C331.48 241.803 331.667 241.709 331.816 241.608C331.966 241.507 332.088 241.416 332.184 241.336C332.28 241.251 332.376 241.208 332.472 241.208C332.595 241.208 332.686 241.253 332.744 241.344L333.144 241.864C332.792 242.296 332.352 242.613 331.824 242.816C331.296 243.013 330.739 243.112 330.152 243.112C329.646 243.112 329.174 243.019 328.736 242.832C328.304 242.645 327.928 242.376 327.608 242.024C327.288 241.667 327.035 241.229 326.848 240.712C326.667 240.195 326.576 239.605 326.576 238.944C326.576 238.341 326.659 237.784 326.824 237.272C326.995 236.76 327.24 236.32 327.56 235.952C327.886 235.579 328.286 235.288 328.76 235.08C329.235 234.872 329.779 234.768 330.392 234.768C330.958 234.768 331.459 234.861 331.896 235.048C332.334 235.229 332.72 235.488 333.056 235.824L332.68 236.336ZM337.829 234.768C338.314 234.768 338.762 234.851 339.173 235.016C339.584 235.176 339.938 235.411 340.237 235.72C340.536 236.024 340.768 236.403 340.933 236.856C341.104 237.304 341.189 237.816 341.189 238.392C341.189 238.616 341.165 238.765 341.117 238.84C341.069 238.915 340.978 238.952 340.845 238.952H335.453C335.464 239.464 335.533 239.909 335.661 240.288C335.789 240.667 335.965 240.984 336.189 241.24C336.413 241.491 336.68 241.68 336.989 241.808C337.298 241.931 337.645 241.992 338.029 241.992C338.386 241.992 338.693 241.952 338.949 241.872C339.21 241.787 339.434 241.696 339.621 241.6C339.808 241.504 339.962 241.416 340.085 241.336C340.213 241.251 340.322 241.208 340.413 241.208C340.53 241.208 340.621 241.253 340.685 241.344L341.085 241.864C340.909 242.077 340.698 242.264 340.453 242.424C340.208 242.579 339.944 242.707 339.661 242.808C339.384 242.909 339.096 242.984 338.797 243.032C338.498 243.085 338.202 243.112 337.909 243.112C337.349 243.112 336.832 243.019 336.357 242.832C335.888 242.64 335.48 242.363 335.133 242C334.792 241.632 334.525 241.179 334.333 240.64C334.141 240.101 334.045 239.483 334.045 238.784C334.045 238.219 334.13 237.691 334.301 237.2C334.477 236.709 334.728 236.285 335.053 235.928C335.378 235.565 335.776 235.283 336.245 235.08C336.714 234.872 337.242 234.768 337.829 234.768ZM337.861 235.816C337.173 235.816 336.632 236.016 336.237 236.416C335.842 236.811 335.597 237.36 335.501 238.064H339.909C339.909 237.733 339.864 237.432 339.773 237.16C339.682 236.883 339.549 236.645 339.373 236.448C339.197 236.245 338.981 236.091 338.725 235.984C338.474 235.872 338.186 235.816 337.861 235.816ZM343.012 243V231.216H344.436V235.984C344.782 235.616 345.166 235.323 345.588 235.104C346.009 234.88 346.494 234.768 347.044 234.768C347.486 234.768 347.876 234.843 348.212 234.992C348.553 235.136 348.836 235.344 349.06 235.616C349.289 235.883 349.462 236.205 349.58 236.584C349.697 236.963 349.756 237.381 349.756 237.84V243H348.332V237.84C348.332 237.227 348.19 236.752 347.908 236.416C347.63 236.075 347.204 235.904 346.628 235.904C346.206 235.904 345.812 236.005 345.444 236.208C345.081 236.411 344.745 236.685 344.436 237.032V243H343.012ZM355.182 234.768C355.774 234.768 356.308 234.867 356.782 235.064C357.262 235.261 357.668 235.541 357.998 235.904C358.334 236.267 358.59 236.707 358.766 237.224C358.948 237.736 359.038 238.309 359.038 238.944C359.038 239.584 358.948 240.16 358.766 240.672C358.59 241.184 358.334 241.621 357.998 241.984C357.668 242.347 357.262 242.627 356.782 242.824C356.308 243.016 355.774 243.112 355.182 243.112C354.59 243.112 354.054 243.016 353.574 242.824C353.1 242.627 352.694 242.347 352.358 241.984C352.022 241.621 351.764 241.184 351.582 240.672C351.401 240.16 351.31 239.584 351.31 238.944C351.31 238.309 351.401 237.736 351.582 237.224C351.764 236.707 352.022 236.267 352.358 235.904C352.694 235.541 353.1 235.261 353.574 235.064C354.054 234.867 354.59 234.768 355.182 234.768ZM355.182 242C355.982 242 356.58 241.733 356.974 241.2C357.369 240.661 357.566 239.912 357.566 238.952C357.566 237.987 357.369 237.235 356.974 236.696C356.58 236.157 355.982 235.888 355.182 235.888C354.777 235.888 354.425 235.957 354.126 236.096C353.828 236.235 353.577 236.435 353.374 236.696C353.177 236.957 353.028 237.28 352.926 237.664C352.83 238.043 352.782 238.472 352.782 238.952C352.782 239.432 352.83 239.861 352.926 240.24C353.028 240.619 353.177 240.939 353.374 241.2C353.577 241.456 353.828 241.653 354.126 241.792C354.425 241.931 354.777 242 355.182 242ZM362.377 231.216V243H360.953V231.216H362.377ZM370.591 243C370.388 243 370.26 242.901 370.207 242.704L370.079 241.72C369.732 242.141 369.335 242.48 368.887 242.736C368.444 242.987 367.935 243.112 367.359 243.112C366.895 243.112 366.473 243.024 366.095 242.848C365.716 242.667 365.393 242.403 365.127 242.056C364.86 241.709 364.655 241.277 364.511 240.76C364.367 240.243 364.295 239.648 364.295 238.976C364.295 238.379 364.375 237.824 364.535 237.312C364.695 236.795 364.924 236.347 365.223 235.968C365.527 235.589 365.895 235.293 366.327 235.08C366.759 234.861 367.249 234.752 367.799 234.752C368.295 234.752 368.719 234.837 369.071 235.008C369.423 235.173 369.737 235.408 370.015 235.712V231.216H371.439V243H370.591ZM367.831 241.96C368.295 241.96 368.7 241.853 369.047 241.64C369.399 241.427 369.721 241.125 370.015 240.736V236.816C369.753 236.464 369.465 236.219 369.151 236.08C368.841 235.936 368.497 235.864 368.119 235.864C367.361 235.864 366.78 236.133 366.375 236.672C365.969 237.211 365.767 237.979 365.767 238.976C365.767 239.504 365.812 239.957 365.903 240.336C365.993 240.709 366.127 241.019 366.303 241.264C366.479 241.504 366.695 241.68 366.951 241.792C367.207 241.904 367.5 241.96 367.831 241.96ZM377.032 234.768C377.518 234.768 377.966 234.851 378.376 235.016C378.787 235.176 379.142 235.411 379.44 235.72C379.739 236.024 379.971 236.403 380.136 236.856C380.307 237.304 380.392 237.816 380.392 238.392C380.392 238.616 380.368 238.765 380.32 238.84C380.272 238.915 380.182 238.952 380.048 238.952H374.656C374.667 239.464 374.736 239.909 374.864 240.288C374.992 240.667 375.168 240.984 375.392 241.24C375.616 241.491 375.883 241.68 376.192 241.808C376.502 241.931 376.848 241.992 377.232 241.992C377.59 241.992 377.896 241.952 378.152 241.872C378.414 241.787 378.638 241.696 378.824 241.6C379.011 241.504 379.166 241.416 379.288 241.336C379.416 241.251 379.526 241.208 379.616 241.208C379.734 241.208 379.824 241.253 379.888 241.344L380.288 241.864C380.112 242.077 379.902 242.264 379.656 242.424C379.411 242.579 379.147 242.707 378.864 242.808C378.587 242.909 378.299 242.984 378 243.032C377.702 243.085 377.406 243.112 377.112 243.112C376.552 243.112 376.035 243.019 375.56 242.832C375.091 242.64 374.683 242.363 374.336 242C373.995 241.632 373.728 241.179 373.536 240.64C373.344 240.101 373.248 239.483 373.248 238.784C373.248 238.219 373.334 237.691 373.504 237.2C373.68 236.709 373.931 236.285 374.256 235.928C374.582 235.565 374.979 235.283 375.448 235.08C375.918 234.872 376.446 234.768 377.032 234.768ZM377.064 235.816C376.376 235.816 375.835 236.016 375.44 236.416C375.046 236.811 374.8 237.36 374.704 238.064H379.112C379.112 237.733 379.067 237.432 378.976 237.16C378.886 236.883 378.752 236.645 378.576 236.448C378.4 236.245 378.184 236.091 377.928 235.984C377.678 235.872 377.39 235.816 377.064 235.816ZM382.215 243V234.896H383.031C383.186 234.896 383.292 234.925 383.351 234.984C383.41 235.043 383.45 235.144 383.471 235.288L383.567 236.552C383.844 235.987 384.186 235.547 384.591 235.232C385.002 234.912 385.482 234.752 386.031 234.752C386.255 234.752 386.458 234.779 386.639 234.832C386.82 234.88 386.988 234.949 387.143 235.04L386.959 236.104C386.922 236.237 386.839 236.304 386.711 236.304C386.636 236.304 386.522 236.28 386.367 236.232C386.212 236.179 385.996 236.152 385.719 236.152C385.223 236.152 384.807 236.296 384.471 236.584C384.14 236.872 383.863 237.291 383.639 237.84V243H382.215Z" fill="#BBBBBB"/>
<path d="M50.944 375.696H55.904V377H49.392V365.536H50.944V375.696ZM63.3388 377H62.7068C62.5681 377 62.4561 376.979 62.3708 376.936C62.2854 376.893 62.2294 376.803 62.2028 376.664L62.0428 375.912C61.8294 376.104 61.6214 376.277 61.4188 376.432C61.2161 376.581 61.0028 376.709 60.7788 376.816C60.5548 376.917 60.3148 376.995 60.0588 377.048C59.8081 377.101 59.5281 377.128 59.2188 377.128C58.9041 377.128 58.6081 377.085 58.3307 377C58.0588 376.909 57.8214 376.776 57.6188 376.6C57.4161 376.424 57.2534 376.203 57.1308 375.936C57.0134 375.664 56.9548 375.344 56.9548 374.976C56.9548 374.656 57.0428 374.349 57.2188 374.056C57.3948 373.757 57.6774 373.493 58.0668 373.264C58.4614 373.035 58.9761 372.848 59.6108 372.704C60.2454 372.555 61.0214 372.469 61.9388 372.448V371.816C61.9388 371.187 61.8028 370.712 61.5308 370.392C61.2641 370.067 60.8668 369.904 60.3388 369.904C59.9921 369.904 59.6988 369.949 59.4588 370.04C59.2241 370.125 59.0188 370.224 58.8428 370.336C58.6721 370.443 58.5228 370.541 58.3948 370.632C58.2721 370.717 58.1494 370.76 58.0268 370.76C57.9308 370.76 57.8454 370.736 57.7708 370.688C57.7014 370.635 57.6454 370.571 57.6028 370.496L57.3468 370.04C57.7948 369.608 58.2774 369.285 58.7948 369.072C59.3121 368.859 59.8854 368.752 60.5148 368.752C60.9681 368.752 61.3708 368.827 61.7228 368.976C62.0748 369.125 62.3708 369.333 62.6108 369.6C62.8508 369.867 63.0321 370.189 63.1548 370.568C63.2774 370.947 63.3388 371.363 63.3388 371.816V377ZM59.6428 376.128C59.8934 376.128 60.1228 376.104 60.3307 376.056C60.5388 376.003 60.7334 375.931 60.9148 375.84C61.1014 375.744 61.2774 375.629 61.4428 375.496C61.6134 375.363 61.7788 375.211 61.9388 375.04V373.352C61.2828 373.373 60.7254 373.427 60.2668 373.512C59.8081 373.592 59.4348 373.699 59.1468 373.832C58.8588 373.965 58.6481 374.123 58.5148 374.304C58.3868 374.485 58.3228 374.688 58.3228 374.912C58.3228 375.125 58.3574 375.309 58.4268 375.464C58.4961 375.619 58.5894 375.747 58.7068 375.848C58.8241 375.944 58.9628 376.016 59.1228 376.064C59.2828 376.107 59.4561 376.128 59.6428 376.128ZM65.5441 377V365.216H66.9761V370.064C67.3121 369.675 67.6961 369.363 68.1281 369.128C68.5655 368.888 69.0641 368.768 69.6241 368.768C70.0935 368.768 70.5175 368.856 70.8961 369.032C71.2748 369.208 71.5975 369.472 71.8641 369.824C72.1308 370.171 72.3361 370.603 72.4801 371.12C72.6241 371.632 72.6961 372.224 72.6961 372.896C72.6961 373.493 72.6161 374.051 72.4561 374.568C72.2961 375.08 72.0641 375.525 71.7601 375.904C71.4615 376.277 71.0935 376.573 70.6561 376.792C70.2241 377.005 69.7361 377.112 69.1921 377.112C68.6695 377.112 68.2241 377.011 67.8561 376.808C67.4935 376.605 67.1761 376.323 66.9041 375.96L66.8321 376.696C66.7895 376.899 66.6668 377 66.4641 377H65.5441ZM69.1601 369.904C68.6961 369.904 68.2881 370.011 67.9361 370.224C67.5895 370.437 67.2695 370.739 66.9761 371.128V375.048C67.2321 375.4 67.5148 375.648 67.8241 375.792C68.1388 375.936 68.4881 376.008 68.8721 376.008C69.6295 376.008 70.2108 375.739 70.6161 375.2C71.0215 374.661 71.2241 373.893 71.2241 372.896C71.2241 372.368 71.1761 371.915 71.0801 371.536C70.9895 371.157 70.8561 370.848 70.6801 370.608C70.5041 370.363 70.2881 370.184 70.0321 370.072C69.7761 369.96 69.4855 369.904 69.1601 369.904ZM77.6416 368.768C78.127 368.768 78.575 368.851 78.9856 369.016C79.3963 369.176 79.751 369.411 80.0496 369.72C80.3483 370.024 80.5803 370.403 80.7456 370.856C80.9163 371.304 81.0016 371.816 81.0016 372.392C81.0016 372.616 80.9776 372.765 80.9296 372.84C80.8816 372.915 80.791 372.952 80.6576 372.952H75.2656C75.2763 373.464 75.3456 373.909 75.4736 374.288C75.6016 374.667 75.7776 374.984 76.0016 375.24C76.2256 375.491 76.4923 375.68 76.8016 375.808C77.111 375.931 77.4576 375.992 77.8416 375.992C78.199 375.992 78.5056 375.952 78.7616 375.872C79.023 375.787 79.247 375.696 79.4336 375.6C79.6203 375.504 79.775 375.416 79.8976 375.336C80.0256 375.251 80.135 375.208 80.2256 375.208C80.343 375.208 80.4336 375.253 80.4976 375.344L80.8976 375.864C80.7216 376.077 80.511 376.264 80.2656 376.424C80.0203 376.579 79.7563 376.707 79.4736 376.808C79.1963 376.909 78.9083 376.984 78.6096 377.032C78.311 377.085 78.015 377.112 77.7216 377.112C77.1616 377.112 76.6443 377.019 76.1696 376.832C75.7003 376.64 75.2923 376.363 74.9456 376C74.6043 375.632 74.3376 375.179 74.1456 374.64C73.9536 374.101 73.8576 373.483 73.8576 372.784C73.8576 372.219 73.943 371.691 74.1136 371.2C74.2896 370.709 74.5403 370.285 74.8656 369.928C75.191 369.565 75.5883 369.283 76.0576 369.08C76.527 368.872 77.055 368.768 77.6416 368.768ZM77.6736 369.816C76.9856 369.816 76.4443 370.016 76.0496 370.416C75.655 370.811 75.4096 371.36 75.3136 372.064H79.7216C79.7216 371.733 79.6763 371.432 79.5856 371.16C79.495 370.883 79.3616 370.645 79.1856 370.448C79.0096 370.245 78.7936 370.091 78.5376 369.984C78.287 369.872 77.999 369.816 77.6736 369.816ZM84.4083 365.216V377H82.9843V365.216H84.4083Z" fill="black"/>
<path d="M336.04 404.272C336.04 405.131 335.904 405.92 335.632 406.64C335.36 407.355 334.976 407.971 334.48 408.488C333.984 409.005 333.387 409.408 332.688 409.696C331.995 409.979 331.227 410.12 330.384 410.12C329.541 410.12 328.773 409.979 328.08 409.696C327.387 409.408 326.792 409.005 326.296 408.488C325.8 407.971 325.416 407.355 325.144 406.64C324.872 405.92 324.736 405.131 324.736 404.272C324.736 403.413 324.872 402.627 325.144 401.912C325.416 401.192 325.8 400.573 326.296 400.056C326.792 399.533 327.387 399.128 328.08 398.84C328.773 398.552 329.541 398.408 330.384 398.408C331.227 398.408 331.995 398.552 332.688 398.84C333.387 399.128 333.984 399.533 334.48 400.056C334.976 400.573 335.36 401.192 335.632 401.912C335.904 402.627 336.04 403.413 336.04 404.272ZM334.448 404.272C334.448 403.568 334.352 402.936 334.16 402.376C333.968 401.816 333.696 401.344 333.344 400.96C332.992 400.571 332.565 400.272 332.064 400.064C331.563 399.856 331.003 399.752 330.384 399.752C329.771 399.752 329.213 399.856 328.712 400.064C328.211 400.272 327.781 400.571 327.424 400.96C327.072 401.344 326.8 401.816 326.608 402.376C326.416 402.936 326.32 403.568 326.32 404.272C326.32 404.976 326.416 405.608 326.608 406.168C326.8 406.723 327.072 407.195 327.424 407.584C327.781 407.968 328.211 408.264 328.712 408.472C329.213 408.675 329.771 408.776 330.384 408.776C331.003 408.776 331.563 408.675 332.064 408.472C332.565 408.264 332.992 407.968 333.344 407.584C333.696 407.195 333.968 406.723 334.16 406.168C334.352 405.608 334.448 404.976 334.448 404.272ZM337.934 412.744V401.896H338.782C338.984 401.896 339.112 401.995 339.166 402.192L339.286 403.152C339.632 402.731 340.027 402.392 340.47 402.136C340.918 401.88 341.432 401.752 342.014 401.752C342.478 401.752 342.899 401.843 343.278 402.024C343.656 402.2 343.979 402.464 344.246 402.816C344.512 403.163 344.718 403.595 344.862 404.112C345.006 404.629 345.078 405.224 345.078 405.896C345.078 406.493 344.998 407.051 344.838 407.568C344.678 408.08 344.448 408.525 344.15 408.904C343.851 409.277 343.483 409.573 343.046 409.792C342.614 410.005 342.126 410.112 341.582 410.112C341.08 410.112 340.651 410.029 340.294 409.864C339.942 409.699 339.63 409.464 339.358 409.16V412.744H337.934ZM341.542 402.904C341.078 402.904 340.67 403.011 340.318 403.224C339.971 403.437 339.651 403.739 339.358 404.128V408.048C339.619 408.4 339.904 408.648 340.214 408.792C340.528 408.936 340.878 409.008 341.262 409.008C342.014 409.008 342.592 408.739 342.998 408.2C343.403 407.661 343.606 406.893 343.606 405.896C343.606 405.368 343.558 404.915 343.462 404.536C343.371 404.157 343.238 403.848 343.062 403.608C342.886 403.363 342.67 403.184 342.414 403.072C342.158 402.96 341.867 402.904 341.542 402.904ZM349.218 410.128C348.578 410.128 348.084 409.949 347.738 409.592C347.396 409.235 347.226 408.72 347.226 408.048V403.088H346.25C346.164 403.088 346.092 403.064 346.034 403.016C345.975 402.963 345.946 402.883 345.946 402.776V402.208L347.274 402.04L347.602 399.536C347.612 399.456 347.647 399.392 347.706 399.344C347.764 399.291 347.839 399.264 347.93 399.264H348.65V402.056H350.97V403.088H348.65V407.952C348.65 408.293 348.732 408.547 348.898 408.712C349.063 408.877 349.276 408.96 349.538 408.96C349.687 408.96 349.815 408.941 349.922 408.904C350.034 408.861 350.13 408.816 350.21 408.768C350.29 408.72 350.356 408.677 350.41 408.64C350.468 408.597 350.519 408.576 350.562 408.576C350.636 408.576 350.703 408.621 350.762 408.712L351.178 409.392C350.932 409.621 350.636 409.803 350.29 409.936C349.943 410.064 349.586 410.128 349.218 410.128ZM354.315 401.896V410H352.891V401.896H354.315ZM354.635 399.352C354.635 399.491 354.605 399.621 354.547 399.744C354.493 399.861 354.419 399.968 354.323 400.064C354.232 400.155 354.125 400.227 354.003 400.28C353.88 400.333 353.749 400.36 353.611 400.36C353.472 400.36 353.341 400.333 353.219 400.28C353.101 400.227 352.995 400.155 352.899 400.064C352.808 399.968 352.736 399.861 352.683 399.744C352.629 399.621 352.603 399.491 352.603 399.352C352.603 399.213 352.629 399.083 352.683 398.96C352.736 398.832 352.808 398.723 352.899 398.632C352.995 398.536 353.101 398.461 353.219 398.408C353.341 398.355 353.472 398.328 353.611 398.328C353.749 398.328 353.88 398.355 354.003 398.408C354.125 398.461 354.232 398.536 354.323 398.632C354.419 398.723 354.493 398.832 354.547 398.96C354.605 399.083 354.635 399.213 354.635 399.352ZM360.104 401.768C360.696 401.768 361.23 401.867 361.704 402.064C362.184 402.261 362.59 402.541 362.92 402.904C363.256 403.267 363.512 403.707 363.688 404.224C363.87 404.736 363.96 405.309 363.96 405.944C363.96 406.584 363.87 407.16 363.688 407.672C363.512 408.184 363.256 408.621 362.92 408.984C362.59 409.347 362.184 409.627 361.704 409.824C361.23 410.016 360.696 410.112 360.104 410.112C359.512 410.112 358.976 410.016 358.496 409.824C358.022 409.627 357.616 409.347 357.28 408.984C356.944 408.621 356.686 408.184 356.504 407.672C356.323 407.16 356.232 406.584 356.232 405.944C356.232 405.309 356.323 404.736 356.504 404.224C356.686 403.707 356.944 403.267 357.28 402.904C357.616 402.541 358.022 402.261 358.496 402.064C358.976 401.867 359.512 401.768 360.104 401.768ZM360.104 409C360.904 409 361.502 408.733 361.896 408.2C362.291 407.661 362.488 406.912 362.488 405.952C362.488 404.987 362.291 404.235 361.896 403.696C361.502 403.157 360.904 402.888 360.104 402.888C359.699 402.888 359.347 402.957 359.048 403.096C358.75 403.235 358.499 403.435 358.296 403.696C358.099 403.957 357.95 404.28 357.848 404.664C357.752 405.043 357.704 405.472 357.704 405.952C357.704 406.432 357.752 406.861 357.848 407.24C357.95 407.619 358.099 407.939 358.296 408.2C358.499 408.456 358.75 408.653 359.048 408.792C359.347 408.931 359.699 409 360.104 409ZM365.715 410V401.896H366.563C366.766 401.896 366.894 401.995 366.947 402.192L367.059 403.072C367.411 402.683 367.803 402.368 368.235 402.128C368.672 401.888 369.176 401.768 369.747 401.768C370.19 401.768 370.579 401.843 370.915 401.992C371.256 402.136 371.539 402.344 371.763 402.616C371.992 402.883 372.166 403.205 372.283 403.584C372.4 403.963 372.459 404.381 372.459 404.84V410H371.035V404.84C371.035 404.227 370.894 403.752 370.611 403.416C370.334 403.075 369.907 402.904 369.331 402.904C368.91 402.904 368.515 403.005 368.147 403.208C367.784 403.411 367.448 403.685 367.139 404.032V410H365.715ZM381.339 398.408C381.825 398.408 382.278 398.48 382.699 398.624C383.121 398.768 383.483 398.979 383.787 399.256C384.097 399.528 384.339 399.861 384.515 400.256C384.691 400.651 384.779 401.099 384.779 401.6C384.779 402.027 384.715 402.421 384.587 402.784C384.459 403.147 384.286 403.496 384.067 403.832C383.849 404.163 383.595 404.485 383.307 404.8C383.025 405.109 382.723 405.427 382.403 405.752L379.387 408.84C379.601 408.781 379.817 408.736 380.035 408.704C380.254 408.667 380.465 408.648 380.667 408.648H384.507C384.662 408.648 384.785 408.693 384.875 408.784C384.966 408.875 385.011 408.992 385.011 409.136V410H377.363V409.512C377.363 409.411 377.382 409.307 377.419 409.2C377.462 409.093 377.529 408.995 377.619 408.904L381.291 405.216C381.595 404.907 381.873 404.611 382.123 404.328C382.374 404.04 382.587 403.752 382.763 403.464C382.945 403.176 383.083 402.885 383.179 402.592C383.275 402.293 383.323 401.976 383.323 401.64C383.323 401.304 383.27 401.011 383.163 400.76C383.057 400.504 382.91 400.293 382.723 400.128C382.537 399.963 382.318 399.84 382.067 399.76C381.817 399.675 381.547 399.632 381.259 399.632C380.971 399.632 380.705 399.675 380.459 399.76C380.214 399.845 379.995 399.965 379.803 400.12C379.617 400.269 379.457 400.448 379.323 400.656C379.195 400.864 379.105 401.093 379.051 401.344C379.009 401.499 378.945 401.611 378.859 401.68C378.774 401.749 378.662 401.784 378.523 401.784C378.497 401.784 378.467 401.784 378.435 401.784C378.409 401.779 378.377 401.773 378.339 401.768L377.595 401.64C377.67 401.117 377.814 400.656 378.027 400.256C378.241 399.851 378.51 399.512 378.835 399.24C379.166 398.968 379.542 398.763 379.963 398.624C380.39 398.48 380.849 398.408 381.339 398.408Z" fill="black"/>
<circle cx="303" cy="404" r="10" fill="white" stroke="#D8D8D8" stroke-width="2"/>
<path d="M336.04 434.272C336.04 435.131 335.904 435.92 335.632 436.64C335.36 437.355 334.976 437.971 334.48 438.488C333.984 439.005 333.387 439.408 332.688 439.696C331.995 439.979 331.227 440.12 330.384 440.12C329.541 440.12 328.773 439.979 328.08 439.696C327.387 439.408 326.792 439.005 326.296 438.488C325.8 437.971 325.416 437.355 325.144 436.64C324.872 435.92 324.736 435.131 324.736 434.272C324.736 433.413 324.872 432.627 325.144 431.912C325.416 431.192 325.8 430.573 326.296 430.056C326.792 429.533 327.387 429.128 328.08 428.84C328.773 428.552 329.541 428.408 330.384 428.408C331.227 428.408 331.995 428.552 332.688 428.84C333.387 429.128 333.984 429.533 334.48 430.056C334.976 430.573 335.36 431.192 335.632 431.912C335.904 432.627 336.04 433.413 336.04 434.272ZM334.448 434.272C334.448 433.568 334.352 432.936 334.16 432.376C333.968 431.816 333.696 431.344 333.344 430.96C332.992 430.571 332.565 430.272 332.064 430.064C331.563 429.856 331.003 429.752 330.384 429.752C329.771 429.752 329.213 429.856 328.712 430.064C328.211 430.272 327.781 430.571 327.424 430.96C327.072 431.344 326.8 431.816 326.608 432.376C326.416 432.936 326.32 433.568 326.32 434.272C326.32 434.976 326.416 435.608 326.608 436.168C326.8 436.723 327.072 437.195 327.424 437.584C327.781 437.968 328.211 438.264 328.712 438.472C329.213 438.675 329.771 438.776 330.384 438.776C331.003 438.776 331.563 438.675 332.064 438.472C332.565 438.264 332.992 437.968 333.344 437.584C333.696 437.195 333.968 436.723 334.16 436.168C334.352 435.608 334.448 434.976 334.448 434.272ZM337.934 442.744V431.896H338.782C338.984 431.896 339.112 431.995 339.166 432.192L339.286 433.152C339.632 432.731 340.027 432.392 340.47 432.136C340.918 431.88 341.432 431.752 342.014 431.752C342.478 431.752 342.899 431.843 343.278 432.024C343.656 432.2 343.979 432.464 344.246 432.816C344.512 433.163 344.718 433.595 344.862 434.112C345.006 434.629 345.078 435.224 345.078 435.896C345.078 436.493 344.998 437.051 344.838 437.568C344.678 438.08 344.448 438.525 344.15 438.904C343.851 439.277 343.483 439.573 343.046 439.792C342.614 440.005 342.126 440.112 341.582 440.112C341.08 440.112 340.651 440.029 340.294 439.864C339.942 439.699 339.63 439.464 339.358 439.16V442.744H337.934ZM341.542 432.904C341.078 432.904 340.67 433.011 340.318 433.224C339.971 433.437 339.651 433.739 339.358 434.128V438.048C339.619 438.4 339.904 438.648 340.214 438.792C340.528 438.936 340.878 439.008 341.262 439.008C342.014 439.008 342.592 438.739 342.998 438.2C343.403 437.661 343.606 436.893 343.606 435.896C343.606 435.368 343.558 434.915 343.462 434.536C343.371 434.157 343.238 433.848 343.062 433.608C342.886 433.363 342.67 433.184 342.414 433.072C342.158 432.96 341.867 432.904 341.542 432.904ZM349.218 440.128C348.578 440.128 348.084 439.949 347.738 439.592C347.396 439.235 347.226 438.72 347.226 438.048V433.088H346.25C346.164 433.088 346.092 433.064 346.034 433.016C345.975 432.963 345.946 432.883 345.946 432.776V432.208L347.274 432.04L347.602 429.536C347.612 429.456 347.647 429.392 347.706 429.344C347.764 429.291 347.839 429.264 347.93 429.264H348.65V432.056H350.97V433.088H348.65V437.952C348.65 438.293 348.732 438.547 348.898 438.712C349.063 438.877 349.276 438.96 349.538 438.96C349.687 438.96 349.815 438.941 349.922 438.904C350.034 438.861 350.13 438.816 350.21 438.768C350.29 438.72 350.356 438.677 350.41 438.64C350.468 438.597 350.519 438.576 350.562 438.576C350.636 438.576 350.703 438.621 350.762 438.712L351.178 439.392C350.932 439.621 350.636 439.803 350.29 439.936C349.943 440.064 349.586 440.128 349.218 440.128ZM354.315 431.896V440H352.891V431.896H354.315ZM354.635 429.352C354.635 429.491 354.605 429.621 354.547 429.744C354.493 429.861 354.419 429.968 354.323 430.064C354.232 430.155 354.125 430.227 354.003 430.28C353.88 430.333 353.749 430.36 353.611 430.36C353.472 430.36 353.341 430.333 353.219 430.28C353.101 430.227 352.995 430.155 352.899 430.064C352.808 429.968 352.736 429.861 352.683 429.744C352.629 429.621 352.603 429.491 352.603 429.352C352.603 429.213 352.629 429.083 352.683 428.96C352.736 428.832 352.808 428.723 352.899 428.632C352.995 428.536 353.101 428.461 353.219 428.408C353.341 428.355 353.472 428.328 353.611 428.328C353.749 428.328 353.88 428.355 354.003 428.408C354.125 428.461 354.232 428.536 354.323 428.632C354.419 428.723 354.493 428.832 354.547 428.96C354.605 429.083 354.635 429.213 354.635 429.352ZM360.104 431.768C360.696 431.768 361.23 431.867 361.704 432.064C362.184 432.261 362.59 432.541 362.92 432.904C363.256 433.267 363.512 433.707 363.688 434.224C363.87 434.736 363.96 435.309 363.96 435.944C363.96 436.584 363.87 437.16 363.688 437.672C363.512 438.184 363.256 438.621 362.92 438.984C362.59 439.347 362.184 439.627 361.704 439.824C361.23 440.016 360.696 440.112 360.104 440.112C359.512 440.112 358.976 440.016 358.496 439.824C358.022 439.627 357.616 439.347 357.28 438.984C356.944 438.621 356.686 438.184 356.504 437.672C356.323 437.16 356.232 436.584 356.232 435.944C356.232 435.309 356.323 434.736 356.504 434.224C356.686 433.707 356.944 433.267 357.28 432.904C357.616 432.541 358.022 432.261 358.496 432.064C358.976 431.867 359.512 431.768 360.104 431.768ZM360.104 439C360.904 439 361.502 438.733 361.896 438.2C362.291 437.661 362.488 436.912 362.488 435.952C362.488 434.987 362.291 434.235 361.896 433.696C361.502 433.157 360.904 432.888 360.104 432.888C359.699 432.888 359.347 432.957 359.048 433.096C358.75 433.235 358.499 433.435 358.296 433.696C358.099 433.957 357.95 434.28 357.848 434.664C357.752 435.043 357.704 435.472 357.704 435.952C357.704 436.432 357.752 436.861 357.848 437.24C357.95 437.619 358.099 437.939 358.296 438.2C358.499 438.456 358.75 438.653 359.048 438.792C359.347 438.931 359.699 439 360.104 439ZM365.715 440V431.896H366.563C366.766 431.896 366.894 431.995 366.947 432.192L367.059 433.072C367.411 432.683 367.803 432.368 368.235 432.128C368.672 431.888 369.176 431.768 369.747 431.768C370.19 431.768 370.579 431.843 370.915 431.992C371.256 432.136 371.539 432.344 371.763 432.616C371.992 432.883 372.166 433.205 372.283 433.584C372.4 433.963 372.459 434.381 372.459 434.84V440H371.035V434.84C371.035 434.227 370.894 433.752 370.611 433.416C370.334 433.075 369.907 432.904 369.331 432.904C368.91 432.904 368.515 433.005 368.147 433.208C367.784 433.411 367.448 433.685 367.139 434.032V440H365.715ZM381.491 428.408C381.977 428.408 382.425 428.477 382.835 428.616C383.246 428.755 383.598 428.952 383.891 429.208C384.19 429.464 384.422 429.773 384.587 430.136C384.753 430.499 384.835 430.901 384.835 431.344C384.835 431.707 384.787 432.032 384.691 432.32C384.601 432.603 384.467 432.853 384.291 433.072C384.121 433.285 383.913 433.467 383.667 433.616C383.422 433.765 383.147 433.885 382.843 433.976C383.59 434.173 384.15 434.504 384.523 434.968C384.902 435.432 385.091 436.013 385.091 436.712C385.091 437.24 384.99 437.715 384.787 438.136C384.59 438.557 384.318 438.917 383.971 439.216C383.625 439.509 383.219 439.736 382.755 439.896C382.297 440.051 381.803 440.128 381.275 440.128C380.667 440.128 380.147 440.053 379.715 439.904C379.283 439.749 378.918 439.539 378.619 439.272C378.321 439.005 378.075 438.691 377.883 438.328C377.691 437.96 377.529 437.563 377.395 437.136L378.003 436.88C378.115 436.832 378.227 436.808 378.339 436.808C378.446 436.808 378.539 436.832 378.619 436.88C378.705 436.923 378.769 436.992 378.811 437.088C378.822 437.109 378.833 437.133 378.843 437.16C378.854 437.181 378.865 437.205 378.875 437.232C378.95 437.387 379.041 437.563 379.147 437.76C379.254 437.952 379.398 438.133 379.579 438.304C379.761 438.475 379.985 438.619 380.251 438.736C380.523 438.853 380.859 438.912 381.259 438.912C381.659 438.912 382.009 438.848 382.307 438.72C382.611 438.587 382.862 438.416 383.059 438.208C383.262 438 383.414 437.768 383.515 437.512C383.617 437.256 383.667 437.003 383.667 436.752C383.667 436.443 383.625 436.16 383.539 435.904C383.459 435.648 383.31 435.427 383.091 435.24C382.878 435.053 382.579 434.907 382.195 434.8C381.817 434.693 381.329 434.64 380.731 434.64V433.608C381.217 433.603 381.63 433.549 381.971 433.448C382.318 433.347 382.601 433.208 382.819 433.032C383.038 432.856 383.195 432.645 383.291 432.4C383.393 432.155 383.443 431.883 383.443 431.584C383.443 431.253 383.39 430.965 383.283 430.72C383.182 430.475 383.041 430.272 382.859 430.112C382.678 429.952 382.462 429.832 382.211 429.752C381.966 429.672 381.699 429.632 381.411 429.632C381.123 429.632 380.857 429.675 380.611 429.76C380.366 429.845 380.147 429.965 379.955 430.12C379.769 430.269 379.611 430.451 379.483 430.664C379.355 430.872 379.259 431.099 379.195 431.344C379.153 431.499 379.089 431.611 379.003 431.68C378.918 431.749 378.809 431.784 378.675 431.784C378.649 431.784 378.619 431.784 378.587 431.784C378.561 431.779 378.529 431.773 378.491 431.768L377.747 431.64C377.822 431.117 377.966 430.656 378.179 430.256C378.393 429.851 378.662 429.512 378.987 429.24C379.318 428.968 379.694 428.763 380.115 428.624C380.542 428.48 381.001 428.408 381.491 428.408Z" fill="black"/>
<circle cx="303" cy="434" r="10" fill="white" stroke="#D8D8D8" stroke-width="2"/>
<path d="M336.04 374.272C336.04 375.131 335.904 375.92 335.632 376.64C335.36 377.355 334.976 377.971 334.48 378.488C333.984 379.005 333.387 379.408 332.688 379.696C331.995 379.979 331.227 380.12 330.384 380.12C329.541 380.12 328.773 379.979 328.08 379.696C327.387 379.408 326.792 379.005 326.296 378.488C325.8 377.971 325.416 377.355 325.144 376.64C324.872 375.92 324.736 375.131 324.736 374.272C324.736 373.413 324.872 372.627 325.144 371.912C325.416 371.192 325.8 370.573 326.296 370.056C326.792 369.533 327.387 369.128 328.08 368.84C328.773 368.552 329.541 368.408 330.384 368.408C331.227 368.408 331.995 368.552 332.688 368.84C333.387 369.128 333.984 369.533 334.48 370.056C334.976 370.573 335.36 371.192 335.632 371.912C335.904 372.627 336.04 373.413 336.04 374.272ZM334.448 374.272C334.448 373.568 334.352 372.936 334.16 372.376C333.968 371.816 333.696 371.344 333.344 370.96C332.992 370.571 332.565 370.272 332.064 370.064C331.563 369.856 331.003 369.752 330.384 369.752C329.771 369.752 329.213 369.856 328.712 370.064C328.211 370.272 327.781 370.571 327.424 370.96C327.072 371.344 326.8 371.816 326.608 372.376C326.416 372.936 326.32 373.568 326.32 374.272C326.32 374.976 326.416 375.608 326.608 376.168C326.8 376.723 327.072 377.195 327.424 377.584C327.781 377.968 328.211 378.264 328.712 378.472C329.213 378.675 329.771 378.776 330.384 378.776C331.003 378.776 331.563 378.675 332.064 378.472C332.565 378.264 332.992 377.968 333.344 377.584C333.696 377.195 333.968 376.723 334.16 376.168C334.352 375.608 334.448 374.976 334.448 374.272ZM337.934 382.744V371.896H338.782C338.984 371.896 339.112 371.995 339.166 372.192L339.286 373.152C339.632 372.731 340.027 372.392 340.47 372.136C340.918 371.88 341.432 371.752 342.014 371.752C342.478 371.752 342.899 371.843 343.278 372.024C343.656 372.2 343.979 372.464 344.246 372.816C344.512 373.163 344.718 373.595 344.862 374.112C345.006 374.629 345.078 375.224 345.078 375.896C345.078 376.493 344.998 377.051 344.838 377.568C344.678 378.08 344.448 378.525 344.15 378.904C343.851 379.277 343.483 379.573 343.046 379.792C342.614 380.005 342.126 380.112 341.582 380.112C341.08 380.112 340.651 380.029 340.294 379.864C339.942 379.699 339.63 379.464 339.358 379.16V382.744H337.934ZM341.542 372.904C341.078 372.904 340.67 373.011 340.318 373.224C339.971 373.437 339.651 373.739 339.358 374.128V378.048C339.619 378.4 339.904 378.648 340.214 378.792C340.528 378.936 340.878 379.008 341.262 379.008C342.014 379.008 342.592 378.739 342.998 378.2C343.403 377.661 343.606 376.893 343.606 375.896C343.606 375.368 343.558 374.915 343.462 374.536C343.371 374.157 343.238 373.848 343.062 373.608C342.886 373.363 342.67 373.184 342.414 373.072C342.158 372.96 341.867 372.904 341.542 372.904ZM349.218 380.128C348.578 380.128 348.084 379.949 347.738 379.592C347.396 379.235 347.226 378.72 347.226 378.048V373.088H346.25C346.164 373.088 346.092 373.064 346.034 373.016C345.975 372.963 345.946 372.883 345.946 372.776V372.208L347.274 372.04L347.602 369.536C347.612 369.456 347.647 369.392 347.706 369.344C347.764 369.291 347.839 369.264 347.93 369.264H348.65V372.056H350.97V373.088H348.65V377.952C348.65 378.293 348.732 378.547 348.898 378.712C349.063 378.877 349.276 378.96 349.538 378.96C349.687 378.96 349.815 378.941 349.922 378.904C350.034 378.861 350.13 378.816 350.21 378.768C350.29 378.72 350.356 378.677 350.41 378.64C350.468 378.597 350.519 378.576 350.562 378.576C350.636 378.576 350.703 378.621 350.762 378.712L351.178 379.392C350.932 379.621 350.636 379.803 350.29 379.936C349.943 380.064 349.586 380.128 349.218 380.128ZM354.315 371.896V380H352.891V371.896H354.315ZM354.635 369.352C354.635 369.491 354.605 369.621 354.547 369.744C354.493 369.861 354.419 369.968 354.323 370.064C354.232 370.155 354.125 370.227 354.003 370.28C353.88 370.333 353.749 370.36 353.611 370.36C353.472 370.36 353.341 370.333 353.219 370.28C353.101 370.227 352.995 370.155 352.899 370.064C352.808 369.968 352.736 369.861 352.683 369.744C352.629 369.621 352.603 369.491 352.603 369.352C352.603 369.213 352.629 369.083 352.683 368.96C352.736 368.832 352.808 368.723 352.899 368.632C352.995 368.536 353.101 368.461 353.219 368.408C353.341 368.355 353.472 368.328 353.611 368.328C353.749 368.328 353.88 368.355 354.003 368.408C354.125 368.461 354.232 368.536 354.323 368.632C354.419 368.723 354.493 368.832 354.547 368.96C354.605 369.083 354.635 369.213 354.635 369.352ZM360.104 371.768C360.696 371.768 361.23 371.867 361.704 372.064C362.184 372.261 362.59 372.541 362.92 372.904C363.256 373.267 363.512 373.707 363.688 374.224C363.87 374.736 363.96 375.309 363.96 375.944C363.96 376.584 363.87 377.16 363.688 377.672C363.512 378.184 363.256 378.621 362.92 378.984C362.59 379.347 362.184 379.627 361.704 379.824C361.23 380.016 360.696 380.112 360.104 380.112C359.512 380.112 358.976 380.016 358.496 379.824C358.022 379.627 357.616 379.347 357.28 378.984C356.944 378.621 356.686 378.184 356.504 377.672C356.323 377.16 356.232 376.584 356.232 375.944C356.232 375.309 356.323 374.736 356.504 374.224C356.686 373.707 356.944 373.267 357.28 372.904C357.616 372.541 358.022 372.261 358.496 372.064C358.976 371.867 359.512 371.768 360.104 371.768ZM360.104 379C360.904 379 361.502 378.733 361.896 378.2C362.291 377.661 362.488 376.912 362.488 375.952C362.488 374.987 362.291 374.235 361.896 373.696C361.502 373.157 360.904 372.888 360.104 372.888C359.699 372.888 359.347 372.957 359.048 373.096C358.75 373.235 358.499 373.435 358.296 373.696C358.099 373.957 357.95 374.28 357.848 374.664C357.752 375.043 357.704 375.472 357.704 375.952C357.704 376.432 357.752 376.861 357.848 377.24C357.95 377.619 358.099 377.939 358.296 378.2C358.499 378.456 358.75 378.653 359.048 378.792C359.347 378.931 359.699 379 360.104 379ZM365.715 380V371.896H366.563C366.766 371.896 366.894 371.995 366.947 372.192L367.059 373.072C367.411 372.683 367.803 372.368 368.235 372.128C368.672 371.888 369.176 371.768 369.747 371.768C370.19 371.768 370.579 371.843 370.915 371.992C371.256 372.136 371.539 372.344 371.763 372.616C371.992 372.883 372.166 373.205 372.283 373.584C372.4 373.963 372.459 374.381 372.459 374.84V380H371.035V374.84C371.035 374.227 370.894 373.752 370.611 373.416C370.334 373.075 369.907 372.904 369.331 372.904C368.91 372.904 368.515 373.005 368.147 373.208C367.784 373.411 367.448 373.685 367.139 374.032V380H365.715ZM378.827 378.912H381.291V371.096C381.291 370.861 381.299 370.624 381.315 370.384L379.267 372.136C379.214 372.179 379.161 372.211 379.107 372.232C379.054 372.248 379.003 372.256 378.955 372.256C378.875 372.256 378.803 372.24 378.739 372.208C378.675 372.171 378.627 372.128 378.595 372.08L378.147 371.464L381.555 368.512H382.715V378.912H384.971V380H378.827V378.912Z" fill="black"/>
<circle cx="303" cy="374" r="10" fill="white" stroke="#D8D8D8" stroke-width="2"/>
<circle cx="303" cy="374" r="8" fill="white" stroke="#0064D1" stroke-width="6"/>
<defs>
<filter id="filter0_d_561_2285" x="0" y="0" width="796" height="577" filterUnits="userSpaceOnUse" color-interpolation-filters="sRGB">
<feFlood flood-opacity="0" result="BackgroundImageFix"/>
<feColorMatrix in="SourceAlpha" type="matrix" values="0 0 0 0 0 0 0 0 0 0 0 0 0 0 0 0 0 0 127 0" result="hardAlpha"/>
<feOffset/>
<feGaussianBlur stdDeviation="12"/>
<feComposite in2="hardAlpha" operator="out"/>
<feColorMatrix type="matrix" values="0 0 0 0 0 0 0 0 0 0 0 0 0 0 0 0 0 0 0.15 0"/>
<feBlend mode="normal" in2="BackgroundImageFix" result="effect1_dropShadow_561_2285"/>
<feBlend mode="normal" in="SourceGraphic" in2="effect1_dropShadow_561_2285" result="shape"/>
</filter>
</defs>
</svg>
