<svg width="800" height="530" viewBox="0 0 800 530" fill="none" xmlns="http://www.w3.org/2000/svg">
<path d="M0 530H800V0H0V530Z" fill="#D1D1D1"/>
<rect x="27" y="68" width="232" height="29" fill="white"/>
<path d="M0 50H800V20H0V50Z" fill="#171717"/>
<rect x="27" y="144" width="747" height="366" fill="#F8F8F8"/>
<rect x="274" y="232" width="252" height="21" fill="#D1D1D1"/>
<rect x="274" y="273" width="252" height="21" fill="#D1D1D1"/>
<rect x="274" y="314" width="252" height="21" fill="#D1D1D1"/>
<rect x="274" y="355" width="252" height="63" fill="#D1D1D1"/>
<rect x="274" y="191" width="126" height="21" fill="#D1D1D1"/>
<rect x="406.632" y="191" width="119.368" height="21" fill="#D1D1D1"/>
<rect x="650" y="456" width="106" height="38" rx="19" fill="#0064D1"/>
<rect x="665" y="468" width="79" height="15" fill="white" fill-opacity="0.09"/>
<rect x="27" y="119" width="70" height="25" fill="#F8F8F8"/>
<rect x="27" y="142" width="70" height="2" fill="#0064D1"/>
<rect x="99" y="119" width="70" height="25" fill="#E0E0E0"/>
<rect x="171" y="119" width="70" height="25" fill="#E0E0E0"/>
<rect x="40" y="128" width="44" height="7" fill="#626262"/>
<rect x="112" y="128" width="44" height="7" fill="#626262"/>
<rect x="184" y="128" width="44" height="7" fill="#626262"/>
</svg>
