<svg width="243" height="38" viewBox="0 0 243 38" fill="none" xmlns="http://www.w3.org/2000/svg">
<rect x="203" y="13" width="12" height="12" transform="rotate(90 203 13)" fill="#F4A8D8"/>
<rect x="24" y="7" width="24" height="24" transform="rotate(90 24 7)" fill="#FB3F3F" fill-opacity="0.6"/>
<rect x="107" y="7" width="24" height="24" transform="rotate(90 107 7)" fill="#FB3F3F" fill-opacity="0.6"/>
<rect x="131" y="7" width="24" height="24" transform="rotate(90 131 7)" fill="#FB3F3F" fill-opacity="0.6"/>
<rect x="243" y="7" width="24" height="24" transform="rotate(90 243 7)" fill="#FB3F3F" fill-opacity="0.6"/>
<mask id="path-6-inside-1_560_2157" fill="white">
<path d="M0 2H108V38H0V2Z"/>
</mask>
<path d="M107 2V38H109V2H107ZM1 38V2H-1V38H1Z" fill="#E3E3E3" mask="url(#path-6-inside-1_560_2157)"/>
<path fill-rule="evenodd" clip-rule="evenodd" d="M108 3H0V2C0 0.895431 0.895429 0 2 0H106C107.105 0 108 0.895431 108 2V3Z" fill="#0064D1"/>
<path d="M33.0984 13.536V14.84H29.3944V25H27.8424V14.84H24.1224V13.536H33.0984ZM38.4559 25H37.8239C37.6853 25 37.5733 24.9787 37.4879 24.936C37.4026 24.8933 37.3466 24.8027 37.3199 24.664L37.1599 23.912C36.9466 24.104 36.7386 24.2773 36.5359 24.432C36.3333 24.5813 36.1199 24.7093 35.8959 24.816C35.6719 24.9173 35.4319 24.9947 35.1759 25.048C34.9253 25.1013 34.6453 25.128 34.3359 25.128C34.0213 25.128 33.7253 25.0853 33.4479 25C33.1759 24.9093 32.9386 24.776 32.7359 24.6C32.5333 24.424 32.3706 24.2027 32.2479 23.936C32.1306 23.664 32.0719 23.344 32.0719 22.976C32.0719 22.656 32.1599 22.3493 32.3359 22.056C32.5119 21.7573 32.7946 21.4933 33.1839 21.264C33.5786 21.0347 34.0933 20.848 34.7279 20.704C35.3626 20.5547 36.1386 20.4693 37.0559 20.448V19.816C37.0559 19.1867 36.9199 18.712 36.6479 18.392C36.3813 18.0667 35.9839 17.904 35.4559 17.904C35.1093 17.904 34.8159 17.9493 34.5759 18.04C34.3413 18.1253 34.1359 18.224 33.9599 18.336C33.7893 18.4427 33.6399 18.5413 33.5119 18.632C33.3893 18.7173 33.2666 18.76 33.1439 18.76C33.0479 18.76 32.9626 18.736 32.8879 18.688C32.8186 18.6347 32.7626 18.5707 32.7199 18.496L32.4639 18.04C32.9119 17.608 33.3946 17.2853 33.9119 17.072C34.4293 16.8587 35.0026 16.752 35.6319 16.752C36.0853 16.752 36.4879 16.8267 36.8399 16.976C37.1919 17.1253 37.4879 17.3333 37.7279 17.6C37.9679 17.8667 38.1493 18.1893 38.2719 18.568C38.3946 18.9467 38.4559 19.3627 38.4559 19.816V25ZM34.7599 24.128C35.0106 24.128 35.2399 24.104 35.4479 24.056C35.6559 24.0027 35.8506 23.9307 36.0319 23.84C36.2186 23.744 36.3946 23.6293 36.5599 23.496C36.7306 23.3627 36.8959 23.2107 37.0559 23.04V21.352C36.3999 21.3733 35.8426 21.4267 35.3839 21.512C34.9253 21.592 34.5519 21.6987 34.2639 21.832C33.9759 21.9653 33.7653 22.1227 33.6319 22.304C33.5039 22.4853 33.4399 22.688 33.4399 22.912C33.4399 23.1253 33.4746 23.3093 33.5439 23.464C33.6133 23.6187 33.7066 23.7467 33.8239 23.848C33.9413 23.944 34.0799 24.016 34.2399 24.064C34.3999 24.1067 34.5733 24.128 34.7599 24.128ZM40.6613 25V13.216H42.0933V18.064C42.4293 17.6747 42.8133 17.3627 43.2453 17.128C43.6826 16.888 44.1813 16.768 44.7413 16.768C45.2106 16.768 45.6346 16.856 46.0133 17.032C46.392 17.208 46.7146 17.472 46.9813 17.824C47.248 18.1707 47.4533 18.6027 47.5973 19.12C47.7413 19.632 47.8133 20.224 47.8133 20.896C47.8133 21.4933 47.7333 22.0507 47.5733 22.568C47.4133 23.08 47.1813 23.5253 46.8773 23.904C46.5786 24.2773 46.2106 24.5733 45.7733 24.792C45.3413 25.0053 44.8533 25.112 44.3093 25.112C43.7866 25.112 43.3413 25.0107 42.9733 24.808C42.6106 24.6053 42.2933 24.3227 42.0213 23.96L41.9493 24.696C41.9066 24.8987 41.784 25 41.5813 25H40.6613ZM44.2773 17.904C43.8133 17.904 43.4053 18.0107 43.0533 18.224C42.7066 18.4373 42.3866 18.7387 42.0933 19.128V23.048C42.3493 23.4 42.632 23.648 42.9413 23.792C43.256 23.936 43.6053 24.008 43.9893 24.008C44.7466 24.008 45.328 23.7387 45.7333 23.2C46.1386 22.6613 46.3413 21.8933 46.3413 20.896C46.3413 20.368 46.2933 19.9147 46.1973 19.536C46.1066 19.1573 45.9733 18.848 45.7973 18.608C45.6213 18.3627 45.4053 18.184 45.1493 18.072C44.8933 17.96 44.6026 17.904 44.2773 17.904ZM54.2286 13.216V25H52.8046V13.216H54.2286ZM62.6903 25H62.0583C61.9196 25 61.8076 24.9787 61.7223 24.936C61.637 24.8933 61.581 24.8027 61.5543 24.664L61.3943 23.912C61.181 24.104 60.973 24.2773 60.7703 24.432C60.5676 24.5813 60.3543 24.7093 60.1303 24.816C59.9063 24.9173 59.6663 24.9947 59.4103 25.048C59.1596 25.1013 58.8796 25.128 58.5703 25.128C58.2556 25.128 57.9596 25.0853 57.6823 25C57.4103 24.9093 57.173 24.776 56.9703 24.6C56.7676 24.424 56.605 24.2027 56.4823 23.936C56.365 23.664 56.3063 23.344 56.3063 22.976C56.3063 22.656 56.3943 22.3493 56.5703 22.056C56.7463 21.7573 57.029 21.4933 57.4183 21.264C57.813 21.0347 58.3276 20.848 58.9623 20.704C59.597 20.5547 60.373 20.4693 61.2903 20.448V19.816C61.2903 19.1867 61.1543 18.712 60.8823 18.392C60.6156 18.0667 60.2183 17.904 59.6903 17.904C59.3436 17.904 59.0503 17.9493 58.8103 18.04C58.5756 18.1253 58.3703 18.224 58.1943 18.336C58.0236 18.4427 57.8743 18.5413 57.7463 18.632C57.6236 18.7173 57.501 18.76 57.3783 18.76C57.2823 18.76 57.197 18.736 57.1223 18.688C57.053 18.6347 56.997 18.5707 56.9543 18.496L56.6983 18.04C57.1463 17.608 57.629 17.2853 58.1463 17.072C58.6636 16.8587 59.237 16.752 59.8663 16.752C60.3196 16.752 60.7223 16.8267 61.0743 16.976C61.4263 17.1253 61.7223 17.3333 61.9623 17.6C62.2023 17.8667 62.3836 18.1893 62.5063 18.568C62.629 18.9467 62.6903 19.3627 62.6903 19.816V25ZM58.9943 24.128C59.245 24.128 59.4743 24.104 59.6823 24.056C59.8903 24.0027 60.085 23.9307 60.2663 23.84C60.453 23.744 60.629 23.6293 60.7943 23.496C60.965 23.3627 61.1303 23.2107 61.2903 23.04V21.352C60.6343 21.3733 60.077 21.4267 59.6183 21.512C59.1596 21.592 58.7863 21.6987 58.4983 21.832C58.2103 21.9653 57.9996 22.1227 57.8663 22.304C57.7383 22.4853 57.6743 22.688 57.6743 22.912C57.6743 23.1253 57.709 23.3093 57.7783 23.464C57.8476 23.6187 57.941 23.7467 58.0583 23.848C58.1756 23.944 58.3143 24.016 58.4743 24.064C58.6343 24.1067 58.8076 24.128 58.9943 24.128ZM64.8957 25V13.216H66.3277V18.064C66.6637 17.6747 67.0477 17.3627 67.4797 17.128C67.917 16.888 68.4157 16.768 68.9757 16.768C69.445 16.768 69.869 16.856 70.2477 17.032C70.6264 17.208 70.949 17.472 71.2157 17.824C71.4824 18.1707 71.6877 18.6027 71.8317 19.12C71.9757 19.632 72.0477 20.224 72.0477 20.896C72.0477 21.4933 71.9677 22.0507 71.8077 22.568C71.6477 23.08 71.4157 23.5253 71.1117 23.904C70.813 24.2773 70.445 24.5733 70.0077 24.792C69.5757 25.0053 69.0877 25.112 68.5437 25.112C68.021 25.112 67.5757 25.0107 67.2077 24.808C66.845 24.6053 66.5277 24.3227 66.2557 23.96L66.1837 24.696C66.141 24.8987 66.0184 25 65.8157 25H64.8957ZM68.5117 17.904C68.0477 17.904 67.6397 18.0107 67.2877 18.224C66.941 18.4373 66.621 18.7387 66.3277 19.128V23.048C66.5837 23.4 66.8664 23.648 67.1757 23.792C67.4904 23.936 67.8397 24.008 68.2237 24.008C68.981 24.008 69.5624 23.7387 69.9677 23.2C70.373 22.6613 70.5757 21.8933 70.5757 20.896C70.5757 20.368 70.5277 19.9147 70.4317 19.536C70.341 19.1573 70.2077 18.848 70.0317 18.608C69.8557 18.3627 69.6397 18.184 69.3837 18.072C69.1277 17.96 68.837 17.904 68.5117 17.904ZM76.9932 16.768C77.4785 16.768 77.9265 16.8507 78.3372 17.016C78.7479 17.176 79.1025 17.4107 79.4012 17.72C79.6999 18.024 79.9319 18.4027 80.0972 18.856C80.2679 19.304 80.3532 19.816 80.3532 20.392C80.3532 20.616 80.3292 20.7653 80.2812 20.84C80.2332 20.9147 80.1425 20.952 80.0092 20.952H74.6172C74.6279 21.464 74.6972 21.9093 74.8252 22.288C74.9532 22.6667 75.1292 22.984 75.3532 23.24C75.5772 23.4907 75.8439 23.68 76.1532 23.808C76.4625 23.9307 76.8092 23.992 77.1932 23.992C77.5505 23.992 77.8572 23.952 78.1132 23.872C78.3745 23.7867 78.5985 23.696 78.7852 23.6C78.9719 23.504 79.1265 23.416 79.2492 23.336C79.3772 23.2507 79.4865 23.208 79.5772 23.208C79.6945 23.208 79.7852 23.2533 79.8492 23.344L80.2492 23.864C80.0732 24.0773 79.8625 24.264 79.6172 24.424C79.3719 24.5787 79.1079 24.7067 78.8252 24.808C78.5479 24.9093 78.2599 24.984 77.9612 25.032C77.6625 25.0853 77.3665 25.112 77.0732 25.112C76.5132 25.112 75.9959 25.0187 75.5212 24.832C75.0519 24.64 74.6439 24.3627 74.2972 24C73.9559 23.632 73.6892 23.1787 73.4972 22.64C73.3052 22.1013 73.2092 21.4827 73.2092 20.784C73.2092 20.2187 73.2945 19.6907 73.4652 19.2C73.6412 18.7093 73.8919 18.2853 74.2172 17.928C74.5425 17.5653 74.9399 17.2827 75.4092 17.08C75.8785 16.872 76.4065 16.768 76.9932 16.768ZM77.0252 17.816C76.3372 17.816 75.7959 18.016 75.4012 18.416C75.0065 18.8107 74.7612 19.36 74.6652 20.064H79.0732C79.0732 19.7333 79.0279 19.432 78.9372 19.16C78.8465 18.8827 78.7132 18.6453 78.5372 18.448C78.3612 18.2453 78.1452 18.0907 77.8892 17.984C77.6385 17.872 77.3505 17.816 77.0252 17.816ZM83.7598 13.216V25H82.3358V13.216H83.7598Z" fill="black"/>
<mask id="path-10-inside-2_560_2157" fill="white">
<path d="M107 2H243V38H107V2Z"/>
</mask>
<path d="M243 37H107V39H243V37Z" fill="#E3E3E3" mask="url(#path-10-inside-2_560_2157)"/>
<path d="M140.098 13.536V14.84H136.394V25H134.842V14.84H131.122V13.536H140.098ZM145.456 25H144.824C144.685 25 144.573 24.9787 144.488 24.936C144.403 24.8933 144.347 24.8027 144.32 24.664L144.16 23.912C143.947 24.104 143.739 24.2773 143.536 24.432C143.333 24.5813 143.12 24.7093 142.896 24.816C142.672 24.9173 142.432 24.9947 142.176 25.048C141.925 25.1013 141.645 25.128 141.336 25.128C141.021 25.128 140.725 25.0853 140.448 25C140.176 24.9093 139.939 24.776 139.736 24.6C139.533 24.424 139.371 24.2027 139.248 23.936C139.131 23.664 139.072 23.344 139.072 22.976C139.072 22.656 139.16 22.3493 139.336 22.056C139.512 21.7573 139.795 21.4933 140.184 21.264C140.579 21.0347 141.093 20.848 141.728 20.704C142.363 20.5547 143.139 20.4693 144.056 20.448V19.816C144.056 19.1867 143.92 18.712 143.648 18.392C143.381 18.0667 142.984 17.904 142.456 17.904C142.109 17.904 141.816 17.9493 141.576 18.04C141.341 18.1253 141.136 18.224 140.96 18.336C140.789 18.4427 140.64 18.5413 140.512 18.632C140.389 18.7173 140.267 18.76 140.144 18.76C140.048 18.76 139.963 18.736 139.888 18.688C139.819 18.6347 139.763 18.5707 139.72 18.496L139.464 18.04C139.912 17.608 140.395 17.2853 140.912 17.072C141.429 16.8587 142.003 16.752 142.632 16.752C143.085 16.752 143.488 16.8267 143.84 16.976C144.192 17.1253 144.488 17.3333 144.728 17.6C144.968 17.8667 145.149 18.1893 145.272 18.568C145.395 18.9467 145.456 19.3627 145.456 19.816V25ZM141.76 24.128C142.011 24.128 142.24 24.104 142.448 24.056C142.656 24.0027 142.851 23.9307 143.032 23.84C143.219 23.744 143.395 23.6293 143.56 23.496C143.731 23.3627 143.896 23.2107 144.056 23.04V21.352C143.4 21.3733 142.843 21.4267 142.384 21.512C141.925 21.592 141.552 21.6987 141.264 21.832C140.976 21.9653 140.765 22.1227 140.632 22.304C140.504 22.4853 140.44 22.688 140.44 22.912C140.44 23.1253 140.475 23.3093 140.544 23.464C140.613 23.6187 140.707 23.7467 140.824 23.848C140.941 23.944 141.08 24.016 141.24 24.064C141.4 24.1067 141.573 24.128 141.76 24.128ZM147.661 25V13.216H149.093V18.064C149.429 17.6747 149.813 17.3627 150.245 17.128C150.683 16.888 151.181 16.768 151.741 16.768C152.211 16.768 152.635 16.856 153.013 17.032C153.392 17.208 153.715 17.472 153.981 17.824C154.248 18.1707 154.453 18.6027 154.597 19.12C154.741 19.632 154.813 20.224 154.813 20.896C154.813 21.4933 154.733 22.0507 154.573 22.568C154.413 23.08 154.181 23.5253 153.877 23.904C153.579 24.2773 153.211 24.5733 152.773 24.792C152.341 25.0053 151.853 25.112 151.309 25.112C150.787 25.112 150.341 25.0107 149.973 24.808C149.611 24.6053 149.293 24.3227 149.021 23.96L148.949 24.696C148.907 24.8987 148.784 25 148.581 25H147.661ZM151.277 17.904C150.813 17.904 150.405 18.0107 150.053 18.224C149.707 18.4373 149.387 18.7387 149.093 19.128V23.048C149.349 23.4 149.632 23.648 149.941 23.792C150.256 23.936 150.605 24.008 150.989 24.008C151.747 24.008 152.328 23.7387 152.733 23.2C153.139 22.6613 153.341 21.8933 153.341 20.896C153.341 20.368 153.293 19.9147 153.197 19.536C153.107 19.1573 152.973 18.848 152.797 18.608C152.621 18.3627 152.405 18.184 152.149 18.072C151.893 17.96 151.603 17.904 151.277 17.904ZM161.229 13.216V25H159.805V13.216H161.229ZM169.69 25H169.058C168.92 25 168.808 24.9787 168.722 24.936C168.637 24.8933 168.581 24.8027 168.554 24.664L168.394 23.912C168.181 24.104 167.973 24.2773 167.77 24.432C167.568 24.5813 167.354 24.7093 167.13 24.816C166.906 24.9173 166.666 24.9947 166.41 25.048C166.16 25.1013 165.88 25.128 165.57 25.128C165.256 25.128 164.96 25.0853 164.682 25C164.41 24.9093 164.173 24.776 163.97 24.6C163.768 24.424 163.605 24.2027 163.482 23.936C163.365 23.664 163.306 23.344 163.306 22.976C163.306 22.656 163.394 22.3493 163.57 22.056C163.746 21.7573 164.029 21.4933 164.418 21.264C164.813 21.0347 165.328 20.848 165.962 20.704C166.597 20.5547 167.373 20.4693 168.29 20.448V19.816C168.29 19.1867 168.154 18.712 167.882 18.392C167.616 18.0667 167.218 17.904 166.69 17.904C166.344 17.904 166.05 17.9493 165.81 18.04C165.576 18.1253 165.37 18.224 165.194 18.336C165.024 18.4427 164.874 18.5413 164.746 18.632C164.624 18.7173 164.501 18.76 164.378 18.76C164.282 18.76 164.197 18.736 164.122 18.688C164.053 18.6347 163.997 18.5707 163.954 18.496L163.698 18.04C164.146 17.608 164.629 17.2853 165.146 17.072C165.664 16.8587 166.237 16.752 166.866 16.752C167.32 16.752 167.722 16.8267 168.074 16.976C168.426 17.1253 168.722 17.3333 168.962 17.6C169.202 17.8667 169.384 18.1893 169.506 18.568C169.629 18.9467 169.69 19.3627 169.69 19.816V25ZM165.994 24.128C166.245 24.128 166.474 24.104 166.682 24.056C166.89 24.0027 167.085 23.9307 167.266 23.84C167.453 23.744 167.629 23.6293 167.794 23.496C167.965 23.3627 168.13 23.2107 168.29 23.04V21.352C167.634 21.3733 167.077 21.4267 166.618 21.512C166.16 21.592 165.786 21.6987 165.498 21.832C165.21 21.9653 165 22.1227 164.866 22.304C164.738 22.4853 164.674 22.688 164.674 22.912C164.674 23.1253 164.709 23.3093 164.778 23.464C164.848 23.6187 164.941 23.7467 165.058 23.848C165.176 23.944 165.314 24.016 165.474 24.064C165.634 24.1067 165.808 24.128 165.994 24.128ZM171.896 25V13.216H173.328V18.064C173.664 17.6747 174.048 17.3627 174.48 17.128C174.917 16.888 175.416 16.768 175.976 16.768C176.445 16.768 176.869 16.856 177.248 17.032C177.626 17.208 177.949 17.472 178.216 17.824C178.482 18.1707 178.688 18.6027 178.832 19.12C178.976 19.632 179.048 20.224 179.048 20.896C179.048 21.4933 178.968 22.0507 178.808 22.568C178.648 23.08 178.416 23.5253 178.112 23.904C177.813 24.2773 177.445 24.5733 177.008 24.792C176.576 25.0053 176.088 25.112 175.544 25.112C175.021 25.112 174.576 25.0107 174.208 24.808C173.845 24.6053 173.528 24.3227 173.256 23.96L173.184 24.696C173.141 24.8987 173.018 25 172.816 25H171.896ZM175.512 17.904C175.048 17.904 174.64 18.0107 174.288 18.224C173.941 18.4373 173.621 18.7387 173.328 19.128V23.048C173.584 23.4 173.866 23.648 174.176 23.792C174.49 23.936 174.84 24.008 175.224 24.008C175.981 24.008 176.562 23.7387 176.968 23.2C177.373 22.6613 177.576 21.8933 177.576 20.896C177.576 20.368 177.528 19.9147 177.432 19.536C177.341 19.1573 177.208 18.848 177.032 18.608C176.856 18.3627 176.64 18.184 176.384 18.072C176.128 17.96 175.837 17.904 175.512 17.904ZM183.993 16.768C184.479 16.768 184.927 16.8507 185.337 17.016C185.748 17.176 186.103 17.4107 186.401 17.72C186.7 18.024 186.932 18.4027 187.097 18.856C187.268 19.304 187.353 19.816 187.353 20.392C187.353 20.616 187.329 20.7653 187.281 20.84C187.233 20.9147 187.143 20.952 187.009 20.952H181.617C181.628 21.464 181.697 21.9093 181.825 22.288C181.953 22.6667 182.129 22.984 182.353 23.24C182.577 23.4907 182.844 23.68 183.153 23.808C183.463 23.9307 183.809 23.992 184.193 23.992C184.551 23.992 184.857 23.952 185.113 23.872C185.375 23.7867 185.599 23.696 185.785 23.6C185.972 23.504 186.127 23.416 186.249 23.336C186.377 23.2507 186.487 23.208 186.577 23.208C186.695 23.208 186.785 23.2533 186.849 23.344L187.249 23.864C187.073 24.0773 186.863 24.264 186.617 24.424C186.372 24.5787 186.108 24.7067 185.825 24.808C185.548 24.9093 185.26 24.984 184.961 25.032C184.663 25.0853 184.367 25.112 184.073 25.112C183.513 25.112 182.996 25.0187 182.521 24.832C182.052 24.64 181.644 24.3627 181.297 24C180.956 23.632 180.689 23.1787 180.497 22.64C180.305 22.1013 180.209 21.4827 180.209 20.784C180.209 20.2187 180.295 19.6907 180.465 19.2C180.641 18.7093 180.892 18.2853 181.217 17.928C181.543 17.5653 181.94 17.2827 182.409 17.08C182.879 16.872 183.407 16.768 183.993 16.768ZM184.025 17.816C183.337 17.816 182.796 18.016 182.401 18.416C182.007 18.8107 181.761 19.36 181.665 20.064H186.073C186.073 19.7333 186.028 19.432 185.937 19.16C185.847 18.8827 185.713 18.6453 185.537 18.448C185.361 18.2453 185.145 18.0907 184.889 17.984C184.639 17.872 184.351 17.816 184.025 17.816ZM190.76 13.216V25H189.336V13.216H190.76Z" fill="black"/>
<g clip-path="url(#clip0_560_2157)">
<path d="M218.858 24.4963L211.907 12.4549C211.504 11.7572 210.496 11.7572 210.093 12.4549L203.142 24.4963C202.739 25.194 203.243 26.0686 204.049 26.0686H217.951C218.757 26.0686 219.261 25.194 218.858 24.4963ZM211.01 16.163C211.455 16.163 211.816 16.5331 211.803 16.9786L211.672 21.5514C211.662 21.9118 211.367 22.1967 211.007 22.1967C210.646 22.1967 210.351 21.9085 210.342 21.5514L210.214 16.9786C210.204 16.5331 210.561 16.163 211.01 16.163ZM211 24.434C210.545 24.434 210.175 24.0639 210.175 23.6086C210.175 23.1532 210.545 22.7831 211 22.7831C211.455 22.7831 211.825 23.1532 211.825 23.6086C211.825 24.0639 211.455 24.434 211 24.434Z" fill="#FFCA14"/>
</g>
<defs>
<clipPath id="clip0_560_2157">
<rect width="16" height="16" fill="white" transform="translate(203 11)"/>
</clipPath>
</defs>
</svg>
