<svg width="324" height="38" viewBox="0 0 324 38" fill="none" xmlns="http://www.w3.org/2000/svg">
<path fill-rule="evenodd" clip-rule="evenodd" d="M108 3H0V2C0 0.895431 0.895429 0 2 0H106C107.105 0 108 0.895431 108 2V3Z" fill="#0064D1"/>
<mask id="path-2-inside-1_559_2038" fill="white">
<path d="M0 2H108V38H0V2Z"/>
</mask>
<path d="M107 2V38H109V2H107ZM1 38V2H-1V38H1Z" fill="#E3E3E3" mask="url(#path-2-inside-1_559_2038)"/>
<path d="M33.0984 13.536V14.84H29.3944V25H27.8424V14.84H24.1224V13.536H33.0984ZM38.4559 25H37.8239C37.6853 25 37.5733 24.9787 37.4879 24.936C37.4026 24.8933 37.3466 24.8027 37.3199 24.664L37.1599 23.912C36.9466 24.104 36.7386 24.2773 36.5359 24.432C36.3333 24.5813 36.1199 24.7093 35.8959 24.816C35.6719 24.9173 35.4319 24.9947 35.1759 25.048C34.9253 25.1013 34.6453 25.128 34.3359 25.128C34.0213 25.128 33.7253 25.0853 33.4479 25C33.1759 24.9093 32.9386 24.776 32.7359 24.6C32.5333 24.424 32.3706 24.2027 32.2479 23.936C32.1306 23.664 32.0719 23.344 32.0719 22.976C32.0719 22.656 32.1599 22.3493 32.3359 22.056C32.5119 21.7573 32.7946 21.4933 33.1839 21.264C33.5786 21.0347 34.0933 20.848 34.7279 20.704C35.3626 20.5547 36.1386 20.4693 37.0559 20.448V19.816C37.0559 19.1867 36.9199 18.712 36.6479 18.392C36.3813 18.0667 35.9839 17.904 35.4559 17.904C35.1093 17.904 34.8159 17.9493 34.5759 18.04C34.3413 18.1253 34.1359 18.224 33.9599 18.336C33.7893 18.4427 33.6399 18.5413 33.5119 18.632C33.3893 18.7173 33.2666 18.76 33.1439 18.76C33.0479 18.76 32.9626 18.736 32.8879 18.688C32.8186 18.6347 32.7626 18.5707 32.7199 18.496L32.4639 18.04C32.9119 17.608 33.3946 17.2853 33.9119 17.072C34.4293 16.8587 35.0026 16.752 35.6319 16.752C36.0853 16.752 36.4879 16.8267 36.8399 16.976C37.1919 17.1253 37.4879 17.3333 37.7279 17.6C37.9679 17.8667 38.1493 18.1893 38.2719 18.568C38.3946 18.9467 38.4559 19.3627 38.4559 19.816V25ZM34.7599 24.128C35.0106 24.128 35.2399 24.104 35.4479 24.056C35.6559 24.0027 35.8506 23.9307 36.0319 23.84C36.2186 23.744 36.3946 23.6293 36.5599 23.496C36.7306 23.3627 36.8959 23.2107 37.0559 23.04V21.352C36.3999 21.3733 35.8426 21.4267 35.3839 21.512C34.9253 21.592 34.5519 21.6987 34.2639 21.832C33.9759 21.9653 33.7653 22.1227 33.6319 22.304C33.5039 22.4853 33.4399 22.688 33.4399 22.912C33.4399 23.1253 33.4746 23.3093 33.5439 23.464C33.6133 23.6187 33.7066 23.7467 33.8239 23.848C33.9413 23.944 34.0799 24.016 34.2399 24.064C34.3999 24.1067 34.5733 24.128 34.7599 24.128ZM40.6613 25V13.216H42.0933V18.064C42.4293 17.6747 42.8133 17.3627 43.2453 17.128C43.6826 16.888 44.1813 16.768 44.7413 16.768C45.2106 16.768 45.6346 16.856 46.0133 17.032C46.392 17.208 46.7146 17.472 46.9813 17.824C47.248 18.1707 47.4533 18.6027 47.5973 19.12C47.7413 19.632 47.8133 20.224 47.8133 20.896C47.8133 21.4933 47.7333 22.0507 47.5733 22.568C47.4133 23.08 47.1813 23.5253 46.8773 23.904C46.5786 24.2773 46.2106 24.5733 45.7733 24.792C45.3413 25.0053 44.8533 25.112 44.3093 25.112C43.7866 25.112 43.3413 25.0107 42.9733 24.808C42.6106 24.6053 42.2933 24.3227 42.0213 23.96L41.9493 24.696C41.9066 24.8987 41.784 25 41.5813 25H40.6613ZM44.2773 17.904C43.8133 17.904 43.4053 18.0107 43.0533 18.224C42.7066 18.4373 42.3866 18.7387 42.0933 19.128V23.048C42.3493 23.4 42.632 23.648 42.9413 23.792C43.256 23.936 43.6053 24.008 43.9893 24.008C44.7466 24.008 45.328 23.7387 45.7333 23.2C46.1386 22.6613 46.3413 21.8933 46.3413 20.896C46.3413 20.368 46.2933 19.9147 46.1973 19.536C46.1066 19.1573 45.9733 18.848 45.7973 18.608C45.6213 18.3627 45.4053 18.184 45.1493 18.072C44.8933 17.96 44.6026 17.904 44.2773 17.904ZM54.2286 13.216V25H52.8046V13.216H54.2286ZM62.6903 25H62.0583C61.9196 25 61.8076 24.9787 61.7223 24.936C61.637 24.8933 61.581 24.8027 61.5543 24.664L61.3943 23.912C61.181 24.104 60.973 24.2773 60.7703 24.432C60.5676 24.5813 60.3543 24.7093 60.1303 24.816C59.9063 24.9173 59.6663 24.9947 59.4103 25.048C59.1596 25.1013 58.8796 25.128 58.5703 25.128C58.2556 25.128 57.9596 25.0853 57.6823 25C57.4103 24.9093 57.173 24.776 56.9703 24.6C56.7676 24.424 56.605 24.2027 56.4823 23.936C56.365 23.664 56.3063 23.344 56.3063 22.976C56.3063 22.656 56.3943 22.3493 56.5703 22.056C56.7463 21.7573 57.029 21.4933 57.4183 21.264C57.813 21.0347 58.3276 20.848 58.9623 20.704C59.597 20.5547 60.373 20.4693 61.2903 20.448V19.816C61.2903 19.1867 61.1543 18.712 60.8823 18.392C60.6156 18.0667 60.2183 17.904 59.6903 17.904C59.3436 17.904 59.0503 17.9493 58.8103 18.04C58.5756 18.1253 58.3703 18.224 58.1943 18.336C58.0236 18.4427 57.8743 18.5413 57.7463 18.632C57.6236 18.7173 57.501 18.76 57.3783 18.76C57.2823 18.76 57.197 18.736 57.1223 18.688C57.053 18.6347 56.997 18.5707 56.9543 18.496L56.6983 18.04C57.1463 17.608 57.629 17.2853 58.1463 17.072C58.6636 16.8587 59.237 16.752 59.8663 16.752C60.3196 16.752 60.7223 16.8267 61.0743 16.976C61.4263 17.1253 61.7223 17.3333 61.9623 17.6C62.2023 17.8667 62.3836 18.1893 62.5063 18.568C62.629 18.9467 62.6903 19.3627 62.6903 19.816V25ZM58.9943 24.128C59.245 24.128 59.4743 24.104 59.6823 24.056C59.8903 24.0027 60.085 23.9307 60.2663 23.84C60.453 23.744 60.629 23.6293 60.7943 23.496C60.965 23.3627 61.1303 23.2107 61.2903 23.04V21.352C60.6343 21.3733 60.077 21.4267 59.6183 21.512C59.1596 21.592 58.7863 21.6987 58.4983 21.832C58.2103 21.9653 57.9996 22.1227 57.8663 22.304C57.7383 22.4853 57.6743 22.688 57.6743 22.912C57.6743 23.1253 57.709 23.3093 57.7783 23.464C57.8476 23.6187 57.941 23.7467 58.0583 23.848C58.1756 23.944 58.3143 24.016 58.4743 24.064C58.6343 24.1067 58.8076 24.128 58.9943 24.128ZM64.8957 25V13.216H66.3277V18.064C66.6637 17.6747 67.0477 17.3627 67.4797 17.128C67.917 16.888 68.4157 16.768 68.9757 16.768C69.445 16.768 69.869 16.856 70.2477 17.032C70.6264 17.208 70.949 17.472 71.2157 17.824C71.4824 18.1707 71.6877 18.6027 71.8317 19.12C71.9757 19.632 72.0477 20.224 72.0477 20.896C72.0477 21.4933 71.9677 22.0507 71.8077 22.568C71.6477 23.08 71.4157 23.5253 71.1117 23.904C70.813 24.2773 70.445 24.5733 70.0077 24.792C69.5757 25.0053 69.0877 25.112 68.5437 25.112C68.021 25.112 67.5757 25.0107 67.2077 24.808C66.845 24.6053 66.5277 24.3227 66.2557 23.96L66.1837 24.696C66.141 24.8987 66.0184 25 65.8157 25H64.8957ZM68.5117 17.904C68.0477 17.904 67.6397 18.0107 67.2877 18.224C66.941 18.4373 66.621 18.7387 66.3277 19.128V23.048C66.5837 23.4 66.8664 23.648 67.1757 23.792C67.4904 23.936 67.8397 24.008 68.2237 24.008C68.981 24.008 69.5624 23.7387 69.9677 23.2C70.373 22.6613 70.5757 21.8933 70.5757 20.896C70.5757 20.368 70.5277 19.9147 70.4317 19.536C70.341 19.1573 70.2077 18.848 70.0317 18.608C69.8557 18.3627 69.6397 18.184 69.3837 18.072C69.1277 17.96 68.837 17.904 68.5117 17.904ZM76.9932 16.768C77.4785 16.768 77.9265 16.8507 78.3372 17.016C78.7479 17.176 79.1025 17.4107 79.4012 17.72C79.6999 18.024 79.9319 18.4027 80.0972 18.856C80.2679 19.304 80.3532 19.816 80.3532 20.392C80.3532 20.616 80.3292 20.7653 80.2812 20.84C80.2332 20.9147 80.1425 20.952 80.0092 20.952H74.6172C74.6279 21.464 74.6972 21.9093 74.8252 22.288C74.9532 22.6667 75.1292 22.984 75.3532 23.24C75.5772 23.4907 75.8439 23.68 76.1532 23.808C76.4625 23.9307 76.8092 23.992 77.1932 23.992C77.5505 23.992 77.8572 23.952 78.1132 23.872C78.3745 23.7867 78.5985 23.696 78.7852 23.6C78.9719 23.504 79.1265 23.416 79.2492 23.336C79.3772 23.2507 79.4865 23.208 79.5772 23.208C79.6945 23.208 79.7852 23.2533 79.8492 23.344L80.2492 23.864C80.0732 24.0773 79.8625 24.264 79.6172 24.424C79.3719 24.5787 79.1079 24.7067 78.8252 24.808C78.5479 24.9093 78.2599 24.984 77.9612 25.032C77.6625 25.0853 77.3665 25.112 77.0732 25.112C76.5132 25.112 75.9959 25.0187 75.5212 24.832C75.0519 24.64 74.6439 24.3627 74.2972 24C73.9559 23.632 73.6892 23.1787 73.4972 22.64C73.3052 22.1013 73.2092 21.4827 73.2092 20.784C73.2092 20.2187 73.2945 19.6907 73.4652 19.2C73.6412 18.7093 73.8919 18.2853 74.2172 17.928C74.5425 17.5653 74.9399 17.2827 75.4092 17.08C75.8785 16.872 76.4065 16.768 76.9932 16.768ZM77.0252 17.816C76.3372 17.816 75.7959 18.016 75.4012 18.416C75.0065 18.8107 74.7612 19.36 74.6652 20.064H79.0732C79.0732 19.7333 79.0279 19.432 78.9372 19.16C78.8465 18.8827 78.7132 18.6453 78.5372 18.448C78.3612 18.2453 78.1452 18.0907 77.8892 17.984C77.6385 17.872 77.3505 17.816 77.0252 17.816ZM83.7598 13.216V25H82.3358V13.216H83.7598Z" fill="black"/>
<mask id="path-5-inside-2_559_2038" fill="white">
<path d="M108 2H216V38H108V2Z"/>
</mask>
<path d="M216 37H108V39H216V37Z" fill="#E3E3E3" mask="url(#path-5-inside-2_559_2038)"/>
<path d="M141.098 13.536V14.84H137.394V25H135.842V14.84H132.122V13.536H141.098ZM146.456 25H145.824C145.685 25 145.573 24.9787 145.488 24.936C145.403 24.8933 145.347 24.8027 145.32 24.664L145.16 23.912C144.947 24.104 144.739 24.2773 144.536 24.432C144.333 24.5813 144.12 24.7093 143.896 24.816C143.672 24.9173 143.432 24.9947 143.176 25.048C142.925 25.1013 142.645 25.128 142.336 25.128C142.021 25.128 141.725 25.0853 141.448 25C141.176 24.9093 140.939 24.776 140.736 24.6C140.533 24.424 140.371 24.2027 140.248 23.936C140.131 23.664 140.072 23.344 140.072 22.976C140.072 22.656 140.16 22.3493 140.336 22.056C140.512 21.7573 140.795 21.4933 141.184 21.264C141.579 21.0347 142.093 20.848 142.728 20.704C143.363 20.5547 144.139 20.4693 145.056 20.448V19.816C145.056 19.1867 144.92 18.712 144.648 18.392C144.381 18.0667 143.984 17.904 143.456 17.904C143.109 17.904 142.816 17.9493 142.576 18.04C142.341 18.1253 142.136 18.224 141.96 18.336C141.789 18.4427 141.64 18.5413 141.512 18.632C141.389 18.7173 141.267 18.76 141.144 18.76C141.048 18.76 140.963 18.736 140.888 18.688C140.819 18.6347 140.763 18.5707 140.72 18.496L140.464 18.04C140.912 17.608 141.395 17.2853 141.912 17.072C142.429 16.8587 143.003 16.752 143.632 16.752C144.085 16.752 144.488 16.8267 144.84 16.976C145.192 17.1253 145.488 17.3333 145.728 17.6C145.968 17.8667 146.149 18.1893 146.272 18.568C146.395 18.9467 146.456 19.3627 146.456 19.816V25ZM142.76 24.128C143.011 24.128 143.24 24.104 143.448 24.056C143.656 24.0027 143.851 23.9307 144.032 23.84C144.219 23.744 144.395 23.6293 144.56 23.496C144.731 23.3627 144.896 23.2107 145.056 23.04V21.352C144.4 21.3733 143.843 21.4267 143.384 21.512C142.925 21.592 142.552 21.6987 142.264 21.832C141.976 21.9653 141.765 22.1227 141.632 22.304C141.504 22.4853 141.44 22.688 141.44 22.912C141.44 23.1253 141.475 23.3093 141.544 23.464C141.613 23.6187 141.707 23.7467 141.824 23.848C141.941 23.944 142.08 24.016 142.24 24.064C142.4 24.1067 142.573 24.128 142.76 24.128ZM148.661 25V13.216H150.093V18.064C150.429 17.6747 150.813 17.3627 151.245 17.128C151.683 16.888 152.181 16.768 152.741 16.768C153.211 16.768 153.635 16.856 154.013 17.032C154.392 17.208 154.715 17.472 154.981 17.824C155.248 18.1707 155.453 18.6027 155.597 19.12C155.741 19.632 155.813 20.224 155.813 20.896C155.813 21.4933 155.733 22.0507 155.573 22.568C155.413 23.08 155.181 23.5253 154.877 23.904C154.579 24.2773 154.211 24.5733 153.773 24.792C153.341 25.0053 152.853 25.112 152.309 25.112C151.787 25.112 151.341 25.0107 150.973 24.808C150.611 24.6053 150.293 24.3227 150.021 23.96L149.949 24.696C149.907 24.8987 149.784 25 149.581 25H148.661ZM152.277 17.904C151.813 17.904 151.405 18.0107 151.053 18.224C150.707 18.4373 150.387 18.7387 150.093 19.128V23.048C150.349 23.4 150.632 23.648 150.941 23.792C151.256 23.936 151.605 24.008 151.989 24.008C152.747 24.008 153.328 23.7387 153.733 23.2C154.139 22.6613 154.341 21.8933 154.341 20.896C154.341 20.368 154.293 19.9147 154.197 19.536C154.107 19.1573 153.973 18.848 153.797 18.608C153.621 18.3627 153.405 18.184 153.149 18.072C152.893 17.96 152.603 17.904 152.277 17.904ZM162.229 13.216V25H160.805V13.216H162.229ZM170.69 25H170.058C169.92 25 169.808 24.9787 169.722 24.936C169.637 24.8933 169.581 24.8027 169.554 24.664L169.394 23.912C169.181 24.104 168.973 24.2773 168.77 24.432C168.568 24.5813 168.354 24.7093 168.13 24.816C167.906 24.9173 167.666 24.9947 167.41 25.048C167.16 25.1013 166.88 25.128 166.57 25.128C166.256 25.128 165.96 25.0853 165.682 25C165.41 24.9093 165.173 24.776 164.97 24.6C164.768 24.424 164.605 24.2027 164.482 23.936C164.365 23.664 164.306 23.344 164.306 22.976C164.306 22.656 164.394 22.3493 164.57 22.056C164.746 21.7573 165.029 21.4933 165.418 21.264C165.813 21.0347 166.328 20.848 166.962 20.704C167.597 20.5547 168.373 20.4693 169.29 20.448V19.816C169.29 19.1867 169.154 18.712 168.882 18.392C168.616 18.0667 168.218 17.904 167.69 17.904C167.344 17.904 167.05 17.9493 166.81 18.04C166.576 18.1253 166.37 18.224 166.194 18.336C166.024 18.4427 165.874 18.5413 165.746 18.632C165.624 18.7173 165.501 18.76 165.378 18.76C165.282 18.76 165.197 18.736 165.122 18.688C165.053 18.6347 164.997 18.5707 164.954 18.496L164.698 18.04C165.146 17.608 165.629 17.2853 166.146 17.072C166.664 16.8587 167.237 16.752 167.866 16.752C168.32 16.752 168.722 16.8267 169.074 16.976C169.426 17.1253 169.722 17.3333 169.962 17.6C170.202 17.8667 170.384 18.1893 170.506 18.568C170.629 18.9467 170.69 19.3627 170.69 19.816V25ZM166.994 24.128C167.245 24.128 167.474 24.104 167.682 24.056C167.89 24.0027 168.085 23.9307 168.266 23.84C168.453 23.744 168.629 23.6293 168.794 23.496C168.965 23.3627 169.13 23.2107 169.29 23.04V21.352C168.634 21.3733 168.077 21.4267 167.618 21.512C167.16 21.592 166.786 21.6987 166.498 21.832C166.21 21.9653 166 22.1227 165.866 22.304C165.738 22.4853 165.674 22.688 165.674 22.912C165.674 23.1253 165.709 23.3093 165.778 23.464C165.848 23.6187 165.941 23.7467 166.058 23.848C166.176 23.944 166.314 24.016 166.474 24.064C166.634 24.1067 166.808 24.128 166.994 24.128ZM172.896 25V13.216H174.328V18.064C174.664 17.6747 175.048 17.3627 175.48 17.128C175.917 16.888 176.416 16.768 176.976 16.768C177.445 16.768 177.869 16.856 178.248 17.032C178.626 17.208 178.949 17.472 179.216 17.824C179.482 18.1707 179.688 18.6027 179.832 19.12C179.976 19.632 180.048 20.224 180.048 20.896C180.048 21.4933 179.968 22.0507 179.808 22.568C179.648 23.08 179.416 23.5253 179.112 23.904C178.813 24.2773 178.445 24.5733 178.008 24.792C177.576 25.0053 177.088 25.112 176.544 25.112C176.021 25.112 175.576 25.0107 175.208 24.808C174.845 24.6053 174.528 24.3227 174.256 23.96L174.184 24.696C174.141 24.8987 174.018 25 173.816 25H172.896ZM176.512 17.904C176.048 17.904 175.64 18.0107 175.288 18.224C174.941 18.4373 174.621 18.7387 174.328 19.128V23.048C174.584 23.4 174.866 23.648 175.176 23.792C175.49 23.936 175.84 24.008 176.224 24.008C176.981 24.008 177.562 23.7387 177.968 23.2C178.373 22.6613 178.576 21.8933 178.576 20.896C178.576 20.368 178.528 19.9147 178.432 19.536C178.341 19.1573 178.208 18.848 178.032 18.608C177.856 18.3627 177.64 18.184 177.384 18.072C177.128 17.96 176.837 17.904 176.512 17.904ZM184.993 16.768C185.479 16.768 185.927 16.8507 186.337 17.016C186.748 17.176 187.103 17.4107 187.401 17.72C187.7 18.024 187.932 18.4027 188.097 18.856C188.268 19.304 188.353 19.816 188.353 20.392C188.353 20.616 188.329 20.7653 188.281 20.84C188.233 20.9147 188.143 20.952 188.009 20.952H182.617C182.628 21.464 182.697 21.9093 182.825 22.288C182.953 22.6667 183.129 22.984 183.353 23.24C183.577 23.4907 183.844 23.68 184.153 23.808C184.463 23.9307 184.809 23.992 185.193 23.992C185.551 23.992 185.857 23.952 186.113 23.872C186.375 23.7867 186.599 23.696 186.785 23.6C186.972 23.504 187.127 23.416 187.249 23.336C187.377 23.2507 187.487 23.208 187.577 23.208C187.695 23.208 187.785 23.2533 187.849 23.344L188.249 23.864C188.073 24.0773 187.863 24.264 187.617 24.424C187.372 24.5787 187.108 24.7067 186.825 24.808C186.548 24.9093 186.26 24.984 185.961 25.032C185.663 25.0853 185.367 25.112 185.073 25.112C184.513 25.112 183.996 25.0187 183.521 24.832C183.052 24.64 182.644 24.3627 182.297 24C181.956 23.632 181.689 23.1787 181.497 22.64C181.305 22.1013 181.209 21.4827 181.209 20.784C181.209 20.2187 181.295 19.6907 181.465 19.2C181.641 18.7093 181.892 18.2853 182.217 17.928C182.543 17.5653 182.94 17.2827 183.409 17.08C183.879 16.872 184.407 16.768 184.993 16.768ZM185.025 17.816C184.337 17.816 183.796 18.016 183.401 18.416C183.007 18.8107 182.761 19.36 182.665 20.064H187.073C187.073 19.7333 187.028 19.432 186.937 19.16C186.847 18.8827 186.713 18.6453 186.537 18.448C186.361 18.2453 186.145 18.0907 185.889 17.984C185.639 17.872 185.351 17.816 185.025 17.816ZM191.76 13.216V25H190.336V13.216H191.76Z" fill="black"/>
<mask id="path-8-inside-3_559_2038" fill="white">
<path d="M216 2H324V38H216V2Z"/>
</mask>
<path d="M324 37H216V39H324V37Z" fill="#E3E3E3" mask="url(#path-8-inside-3_559_2038)"/>
<path d="M249.098 13.536V14.84H245.394V25H243.842V14.84H240.122V13.536H249.098ZM254.456 25H253.824C253.685 25 253.573 24.9787 253.488 24.936C253.403 24.8933 253.347 24.8027 253.32 24.664L253.16 23.912C252.947 24.104 252.739 24.2773 252.536 24.432C252.333 24.5813 252.12 24.7093 251.896 24.816C251.672 24.9173 251.432 24.9947 251.176 25.048C250.925 25.1013 250.645 25.128 250.336 25.128C250.021 25.128 249.725 25.0853 249.448 25C249.176 24.9093 248.939 24.776 248.736 24.6C248.533 24.424 248.371 24.2027 248.248 23.936C248.131 23.664 248.072 23.344 248.072 22.976C248.072 22.656 248.16 22.3493 248.336 22.056C248.512 21.7573 248.795 21.4933 249.184 21.264C249.579 21.0347 250.093 20.848 250.728 20.704C251.363 20.5547 252.139 20.4693 253.056 20.448V19.816C253.056 19.1867 252.92 18.712 252.648 18.392C252.381 18.0667 251.984 17.904 251.456 17.904C251.109 17.904 250.816 17.9493 250.576 18.04C250.341 18.1253 250.136 18.224 249.96 18.336C249.789 18.4427 249.64 18.5413 249.512 18.632C249.389 18.7173 249.267 18.76 249.144 18.76C249.048 18.76 248.963 18.736 248.888 18.688C248.819 18.6347 248.763 18.5707 248.72 18.496L248.464 18.04C248.912 17.608 249.395 17.2853 249.912 17.072C250.429 16.8587 251.003 16.752 251.632 16.752C252.085 16.752 252.488 16.8267 252.84 16.976C253.192 17.1253 253.488 17.3333 253.728 17.6C253.968 17.8667 254.149 18.1893 254.272 18.568C254.395 18.9467 254.456 19.3627 254.456 19.816V25ZM250.76 24.128C251.011 24.128 251.24 24.104 251.448 24.056C251.656 24.0027 251.851 23.9307 252.032 23.84C252.219 23.744 252.395 23.6293 252.56 23.496C252.731 23.3627 252.896 23.2107 253.056 23.04V21.352C252.4 21.3733 251.843 21.4267 251.384 21.512C250.925 21.592 250.552 21.6987 250.264 21.832C249.976 21.9653 249.765 22.1227 249.632 22.304C249.504 22.4853 249.44 22.688 249.44 22.912C249.44 23.1253 249.475 23.3093 249.544 23.464C249.613 23.6187 249.707 23.7467 249.824 23.848C249.941 23.944 250.08 24.016 250.24 24.064C250.4 24.1067 250.573 24.128 250.76 24.128ZM256.661 25V13.216H258.093V18.064C258.429 17.6747 258.813 17.3627 259.245 17.128C259.683 16.888 260.181 16.768 260.741 16.768C261.211 16.768 261.635 16.856 262.013 17.032C262.392 17.208 262.715 17.472 262.981 17.824C263.248 18.1707 263.453 18.6027 263.597 19.12C263.741 19.632 263.813 20.224 263.813 20.896C263.813 21.4933 263.733 22.0507 263.573 22.568C263.413 23.08 263.181 23.5253 262.877 23.904C262.579 24.2773 262.211 24.5733 261.773 24.792C261.341 25.0053 260.853 25.112 260.309 25.112C259.787 25.112 259.341 25.0107 258.973 24.808C258.611 24.6053 258.293 24.3227 258.021 23.96L257.949 24.696C257.907 24.8987 257.784 25 257.581 25H256.661ZM260.277 17.904C259.813 17.904 259.405 18.0107 259.053 18.224C258.707 18.4373 258.387 18.7387 258.093 19.128V23.048C258.349 23.4 258.632 23.648 258.941 23.792C259.256 23.936 259.605 24.008 259.989 24.008C260.747 24.008 261.328 23.7387 261.733 23.2C262.139 22.6613 262.341 21.8933 262.341 20.896C262.341 20.368 262.293 19.9147 262.197 19.536C262.107 19.1573 261.973 18.848 261.797 18.608C261.621 18.3627 261.405 18.184 261.149 18.072C260.893 17.96 260.603 17.904 260.277 17.904ZM270.229 13.216V25H268.805V13.216H270.229ZM278.69 25H278.058C277.92 25 277.808 24.9787 277.722 24.936C277.637 24.8933 277.581 24.8027 277.554 24.664L277.394 23.912C277.181 24.104 276.973 24.2773 276.77 24.432C276.568 24.5813 276.354 24.7093 276.13 24.816C275.906 24.9173 275.666 24.9947 275.41 25.048C275.16 25.1013 274.88 25.128 274.57 25.128C274.256 25.128 273.96 25.0853 273.682 25C273.41 24.9093 273.173 24.776 272.97 24.6C272.768 24.424 272.605 24.2027 272.482 23.936C272.365 23.664 272.306 23.344 272.306 22.976C272.306 22.656 272.394 22.3493 272.57 22.056C272.746 21.7573 273.029 21.4933 273.418 21.264C273.813 21.0347 274.328 20.848 274.962 20.704C275.597 20.5547 276.373 20.4693 277.29 20.448V19.816C277.29 19.1867 277.154 18.712 276.882 18.392C276.616 18.0667 276.218 17.904 275.69 17.904C275.344 17.904 275.05 17.9493 274.81 18.04C274.576 18.1253 274.37 18.224 274.194 18.336C274.024 18.4427 273.874 18.5413 273.746 18.632C273.624 18.7173 273.501 18.76 273.378 18.76C273.282 18.76 273.197 18.736 273.122 18.688C273.053 18.6347 272.997 18.5707 272.954 18.496L272.698 18.04C273.146 17.608 273.629 17.2853 274.146 17.072C274.664 16.8587 275.237 16.752 275.866 16.752C276.32 16.752 276.722 16.8267 277.074 16.976C277.426 17.1253 277.722 17.3333 277.962 17.6C278.202 17.8667 278.384 18.1893 278.506 18.568C278.629 18.9467 278.69 19.3627 278.69 19.816V25ZM274.994 24.128C275.245 24.128 275.474 24.104 275.682 24.056C275.89 24.0027 276.085 23.9307 276.266 23.84C276.453 23.744 276.629 23.6293 276.794 23.496C276.965 23.3627 277.13 23.2107 277.29 23.04V21.352C276.634 21.3733 276.077 21.4267 275.618 21.512C275.16 21.592 274.786 21.6987 274.498 21.832C274.21 21.9653 274 22.1227 273.866 22.304C273.738 22.4853 273.674 22.688 273.674 22.912C273.674 23.1253 273.709 23.3093 273.778 23.464C273.848 23.6187 273.941 23.7467 274.058 23.848C274.176 23.944 274.314 24.016 274.474 24.064C274.634 24.1067 274.808 24.128 274.994 24.128ZM280.896 25V13.216H282.328V18.064C282.664 17.6747 283.048 17.3627 283.48 17.128C283.917 16.888 284.416 16.768 284.976 16.768C285.445 16.768 285.869 16.856 286.248 17.032C286.626 17.208 286.949 17.472 287.216 17.824C287.482 18.1707 287.688 18.6027 287.832 19.12C287.976 19.632 288.048 20.224 288.048 20.896C288.048 21.4933 287.968 22.0507 287.808 22.568C287.648 23.08 287.416 23.5253 287.112 23.904C286.813 24.2773 286.445 24.5733 286.008 24.792C285.576 25.0053 285.088 25.112 284.544 25.112C284.021 25.112 283.576 25.0107 283.208 24.808C282.845 24.6053 282.528 24.3227 282.256 23.96L282.184 24.696C282.141 24.8987 282.018 25 281.816 25H280.896ZM284.512 17.904C284.048 17.904 283.64 18.0107 283.288 18.224C282.941 18.4373 282.621 18.7387 282.328 19.128V23.048C282.584 23.4 282.866 23.648 283.176 23.792C283.49 23.936 283.84 24.008 284.224 24.008C284.981 24.008 285.562 23.7387 285.968 23.2C286.373 22.6613 286.576 21.8933 286.576 20.896C286.576 20.368 286.528 19.9147 286.432 19.536C286.341 19.1573 286.208 18.848 286.032 18.608C285.856 18.3627 285.64 18.184 285.384 18.072C285.128 17.96 284.837 17.904 284.512 17.904ZM292.993 16.768C293.479 16.768 293.927 16.8507 294.337 17.016C294.748 17.176 295.103 17.4107 295.401 17.72C295.7 18.024 295.932 18.4027 296.097 18.856C296.268 19.304 296.353 19.816 296.353 20.392C296.353 20.616 296.329 20.7653 296.281 20.84C296.233 20.9147 296.143 20.952 296.009 20.952H290.617C290.628 21.464 290.697 21.9093 290.825 22.288C290.953 22.6667 291.129 22.984 291.353 23.24C291.577 23.4907 291.844 23.68 292.153 23.808C292.463 23.9307 292.809 23.992 293.193 23.992C293.551 23.992 293.857 23.952 294.113 23.872C294.375 23.7867 294.599 23.696 294.785 23.6C294.972 23.504 295.127 23.416 295.249 23.336C295.377 23.2507 295.487 23.208 295.577 23.208C295.695 23.208 295.785 23.2533 295.849 23.344L296.249 23.864C296.073 24.0773 295.863 24.264 295.617 24.424C295.372 24.5787 295.108 24.7067 294.825 24.808C294.548 24.9093 294.26 24.984 293.961 25.032C293.663 25.0853 293.367 25.112 293.073 25.112C292.513 25.112 291.996 25.0187 291.521 24.832C291.052 24.64 290.644 24.3627 290.297 24C289.956 23.632 289.689 23.1787 289.497 22.64C289.305 22.1013 289.209 21.4827 289.209 20.784C289.209 20.2187 289.295 19.6907 289.465 19.2C289.641 18.7093 289.892 18.2853 290.217 17.928C290.543 17.5653 290.94 17.2827 291.409 17.08C291.879 16.872 292.407 16.768 292.993 16.768ZM293.025 17.816C292.337 17.816 291.796 18.016 291.401 18.416C291.007 18.8107 290.761 19.36 290.665 20.064H295.073C295.073 19.7333 295.028 19.432 294.937 19.16C294.847 18.8827 294.713 18.6453 294.537 18.448C294.361 18.2453 294.145 18.0907 293.889 17.984C293.639 17.872 293.351 17.816 293.025 17.816ZM299.76 13.216V25H298.336V13.216H299.76Z" fill="black"/>
</svg>
