<svg width="240" height="112" viewBox="0 0 240 112" fill="none" xmlns="http://www.w3.org/2000/svg">
<path d="M108.472 74.632C108.557 74.632 108.635 74.6667 108.704 74.736L109.312 75.4C108.843 75.944 108.272 76.368 107.6 76.672C106.933 76.976 106.128 77.128 105.184 77.128C104.357 77.128 103.608 76.9867 102.936 76.704C102.264 76.416 101.691 76.016 101.216 75.504C100.741 74.9867 100.373 74.368 100.112 73.648C99.8507 72.928 99.72 72.136 99.72 71.272C99.72 70.408 99.8587 69.616 100.136 68.896C100.419 68.176 100.813 67.5573 101.32 67.04C101.827 66.5227 102.432 66.1227 103.136 65.84C103.845 65.552 104.627 65.408 105.48 65.408C106.323 65.408 107.048 65.5387 107.656 65.8C108.269 66.0613 108.813 66.416 109.288 66.864L108.784 67.576C108.747 67.6293 108.704 67.6747 108.656 67.712C108.608 67.744 108.539 67.76 108.448 67.76C108.379 67.76 108.304 67.736 108.224 67.688C108.149 67.6347 108.059 67.5707 107.952 67.496C107.845 67.4213 107.72 67.3413 107.576 67.256C107.432 67.1707 107.261 67.0907 107.064 67.016C106.867 66.9413 106.637 66.88 106.376 66.832C106.115 66.7787 105.813 66.752 105.472 66.752C104.859 66.752 104.296 66.8587 103.784 67.072C103.277 67.28 102.84 67.5787 102.472 67.968C102.104 68.3573 101.816 68.832 101.608 69.392C101.405 69.952 101.304 70.5787 101.304 71.272C101.304 71.9867 101.405 72.624 101.608 73.184C101.816 73.744 102.096 74.2187 102.448 74.608C102.805 74.992 103.227 75.2853 103.712 75.488C104.197 75.6907 104.72 75.792 105.28 75.792C105.621 75.792 105.928 75.7733 106.2 75.736C106.472 75.6933 106.723 75.6293 106.952 75.544C107.187 75.4587 107.403 75.352 107.6 75.224C107.803 75.0907 108.005 74.9333 108.208 74.752C108.299 74.672 108.387 74.632 108.472 74.632ZM111.121 77V65.216H112.545V69.984C112.892 69.616 113.276 69.3227 113.697 69.104C114.118 68.88 114.604 68.768 115.153 68.768C115.596 68.768 115.985 68.8427 116.321 68.992C116.662 69.136 116.945 69.344 117.169 69.616C117.398 69.8827 117.572 70.2053 117.689 70.584C117.806 70.9627 117.865 71.3813 117.865 71.84V77H116.441V71.84C116.441 71.2267 116.3 70.752 116.017 70.416C115.74 70.0747 115.313 69.904 114.737 69.904C114.316 69.904 113.921 70.0053 113.553 70.208C113.19 70.4107 112.854 70.6853 112.545 71.032V77H111.121ZM123.22 68.768C123.705 68.768 124.153 68.8507 124.564 69.016C124.974 69.176 125.329 69.4107 125.628 69.72C125.926 70.024 126.158 70.4027 126.324 70.856C126.494 71.304 126.58 71.816 126.58 72.392C126.58 72.616 126.556 72.7653 126.508 72.84C126.46 72.9147 126.369 72.952 126.236 72.952H120.844C120.854 73.464 120.924 73.9093 121.052 74.288C121.18 74.6667 121.356 74.984 121.58 75.24C121.804 75.4907 122.07 75.68 122.38 75.808C122.689 75.9307 123.036 75.992 123.42 75.992C123.777 75.992 124.084 75.952 124.34 75.872C124.601 75.7867 124.825 75.696 125.012 75.6C125.198 75.504 125.353 75.416 125.476 75.336C125.604 75.2507 125.713 75.208 125.804 75.208C125.921 75.208 126.012 75.2533 126.076 75.344L126.476 75.864C126.3 76.0773 126.089 76.264 125.844 76.424C125.598 76.5787 125.334 76.7067 125.052 76.808C124.774 76.9093 124.486 76.984 124.188 77.032C123.889 77.0853 123.593 77.112 123.3 77.112C122.74 77.112 122.222 77.0187 121.748 76.832C121.278 76.64 120.87 76.3627 120.524 76C120.182 75.632 119.916 75.1787 119.724 74.64C119.532 74.1013 119.436 73.4827 119.436 72.784C119.436 72.2187 119.521 71.6907 119.692 71.2C119.868 70.7093 120.118 70.2853 120.444 69.928C120.769 69.5653 121.166 69.2827 121.636 69.08C122.105 68.872 122.633 68.768 123.22 68.768ZM123.252 69.816C122.564 69.816 122.022 70.016 121.628 70.416C121.233 70.8107 120.988 71.36 120.892 72.064H125.3C125.3 71.7333 125.254 71.432 125.164 71.16C125.073 70.8827 124.94 70.6453 124.764 70.448C124.588 70.2453 124.372 70.0907 124.116 69.984C123.865 69.872 123.577 69.816 123.252 69.816ZM133.93 70.336C133.888 70.3947 133.845 70.44 133.802 70.472C133.76 70.504 133.698 70.52 133.618 70.52C133.538 70.52 133.45 70.488 133.354 70.424C133.264 70.3547 133.146 70.28 133.002 70.2C132.858 70.12 132.682 70.048 132.474 69.984C132.272 69.9147 132.021 69.88 131.722 69.88C131.328 69.88 130.978 69.952 130.674 70.096C130.37 70.2347 130.114 70.4373 129.906 70.704C129.704 70.9707 129.549 71.2933 129.442 71.672C129.341 72.0507 129.29 72.4747 129.29 72.944C129.29 73.4347 129.346 73.872 129.458 74.256C129.57 74.6347 129.728 74.9547 129.93 75.216C130.133 75.472 130.378 75.6693 130.666 75.808C130.96 75.9413 131.288 76.008 131.65 76.008C131.997 76.008 132.282 75.968 132.506 75.888C132.73 75.8027 132.917 75.7093 133.066 75.608C133.216 75.5067 133.338 75.416 133.434 75.336C133.53 75.2507 133.626 75.208 133.722 75.208C133.845 75.208 133.936 75.2533 133.994 75.344L134.394 75.864C134.042 76.296 133.602 76.6133 133.074 76.816C132.546 77.0133 131.989 77.112 131.402 77.112C130.896 77.112 130.424 77.0187 129.986 76.832C129.554 76.6453 129.178 76.376 128.858 76.024C128.538 75.6667 128.285 75.2293 128.098 74.712C127.917 74.1947 127.826 73.6053 127.826 72.944C127.826 72.3413 127.909 71.784 128.074 71.272C128.245 70.76 128.49 70.32 128.81 69.952C129.136 69.5787 129.536 69.288 130.01 69.08C130.485 68.872 131.029 68.768 131.642 68.768C132.208 68.768 132.709 68.8613 133.146 69.048C133.584 69.2293 133.97 69.488 134.306 69.824L133.93 70.336ZM137.351 65.216V72.152H137.719C137.826 72.152 137.914 72.1387 137.983 72.112C138.052 72.08 138.13 72.0187 138.215 71.928L140.775 69.184C140.855 69.0987 140.935 69.0293 141.015 68.976C141.095 68.9227 141.202 68.896 141.335 68.896H142.631L139.647 72.072C139.572 72.1627 139.498 72.2427 139.423 72.312C139.354 72.3813 139.274 72.4427 139.183 72.496C139.279 72.56 139.364 72.6347 139.439 72.72C139.519 72.8 139.594 72.8933 139.663 73L142.831 77H141.551C141.434 77 141.332 76.9787 141.247 76.936C141.167 76.888 141.09 76.816 141.015 76.72L138.351 73.4C138.271 73.288 138.191 73.216 138.111 73.184C138.031 73.1467 137.911 73.128 137.751 73.128H137.351V77H135.919V65.216H137.351ZM144.31 77V65.216H145.742V70.064C146.078 69.6747 146.462 69.3627 146.894 69.128C147.331 68.888 147.83 68.768 148.39 68.768C148.859 68.768 149.283 68.856 149.662 69.032C150.04 69.208 150.363 69.472 150.63 69.824C150.896 70.1707 151.102 70.6027 151.246 71.12C151.39 71.632 151.462 72.224 151.462 72.896C151.462 73.4933 151.382 74.0507 151.222 74.568C151.062 75.08 150.83 75.5253 150.526 75.904C150.227 76.2773 149.859 76.5733 149.422 76.792C148.99 77.0053 148.502 77.112 147.958 77.112C147.435 77.112 146.99 77.0107 146.622 76.808C146.259 76.6053 145.942 76.3227 145.67 75.96L145.598 76.696C145.555 76.8987 145.432 77 145.23 77H144.31ZM147.926 69.904C147.462 69.904 147.054 70.0107 146.702 70.224C146.355 70.4373 146.035 70.7387 145.742 71.128V75.048C145.998 75.4 146.28 75.648 146.59 75.792C146.904 75.936 147.254 76.008 147.638 76.008C148.395 76.008 148.976 75.7387 149.382 75.2C149.787 74.6613 149.99 73.8933 149.99 72.896C149.99 72.368 149.942 71.9147 149.846 71.536C149.755 71.1573 149.622 70.848 149.446 70.608C149.27 70.3627 149.054 70.184 148.798 70.072C148.542 69.96 148.251 69.904 147.926 69.904ZM156.479 68.768C157.071 68.768 157.605 68.8667 158.079 69.064C158.559 69.2613 158.965 69.5413 159.295 69.904C159.631 70.2667 159.887 70.7067 160.063 71.224C160.245 71.736 160.335 72.3093 160.335 72.944C160.335 73.584 160.245 74.16 160.063 74.672C159.887 75.184 159.631 75.6213 159.295 75.984C158.965 76.3467 158.559 76.6267 158.079 76.824C157.605 77.016 157.071 77.112 156.479 77.112C155.887 77.112 155.351 77.016 154.871 76.824C154.397 76.6267 153.991 76.3467 153.655 75.984C153.319 75.6213 153.061 75.184 152.879 74.672C152.698 74.16 152.607 73.584 152.607 72.944C152.607 72.3093 152.698 71.736 152.879 71.224C153.061 70.7067 153.319 70.2667 153.655 69.904C153.991 69.5413 154.397 69.2613 154.871 69.064C155.351 68.8667 155.887 68.768 156.479 68.768ZM156.479 76C157.279 76 157.877 75.7333 158.271 75.2C158.666 74.6613 158.863 73.912 158.863 72.952C158.863 71.9867 158.666 71.2347 158.271 70.696C157.877 70.1573 157.279 69.888 156.479 69.888C156.074 69.888 155.722 69.9573 155.423 70.096C155.125 70.2347 154.874 70.4347 154.671 70.696C154.474 70.9573 154.325 71.28 154.223 71.664C154.127 72.0427 154.079 72.472 154.079 72.952C154.079 73.432 154.127 73.8613 154.223 74.24C154.325 74.6187 154.474 74.9387 154.671 75.2C154.874 75.456 155.125 75.6533 155.423 75.792C155.722 75.9307 156.074 76 156.479 76ZM163.502 72.848L160.774 68.896H162.142C162.259 68.896 162.344 68.9147 162.398 68.952C162.451 68.9893 162.499 69.0427 162.542 69.112L164.526 72.152C164.574 72.0027 164.643 71.8533 164.734 71.704L166.478 69.144C166.531 69.0693 166.584 69.0107 166.638 68.968C166.691 68.92 166.758 68.896 166.838 68.896H168.15L165.422 72.768L168.262 77H166.894C166.776 77 166.683 76.9707 166.614 76.912C166.55 76.848 166.496 76.7787 166.454 76.704L164.414 73.528C164.376 73.6827 164.32 73.8213 164.246 73.944L162.358 76.704C162.304 76.7787 162.246 76.848 162.182 76.912C162.123 76.9707 162.04 77 161.934 77H160.662L163.502 72.848ZM173.89 75.912H176.354V68.096C176.354 67.8613 176.362 67.624 176.378 67.384L174.33 69.136C174.276 69.1787 174.223 69.2107 174.17 69.232C174.116 69.248 174.066 69.256 174.018 69.256C173.938 69.256 173.866 69.24 173.802 69.208C173.738 69.1707 173.69 69.128 173.658 69.08L173.21 68.464L176.618 65.512H177.778V75.912H180.034V77H173.89V75.912Z" fill="black"/>
<rect x="67" y="60" width="22" height="22" rx="4" fill="#0064D1"/>
<path fill-rule="evenodd" clip-rule="evenodd" d="M84.581 68.4423C85.1397 67.8836 85.1397 66.9777 84.581 66.419C84.0223 65.8603 83.1164 65.8603 82.5577 66.419L76.1503 72.8264L73.4423 70.1184C72.8836 69.5597 71.9777 69.5597 71.419 70.1184C70.8603 70.6771 70.8603 71.5829 71.419 72.1416L75.1184 75.8409C75.649 76.3715 76.4926 76.3982 77.0547 75.9211C77.1407 75.8661 77.2222 75.8011 77.2973 75.7259L84.581 68.4423Z" fill="white"/>
<circle cx="16" cy="70" r="16" fill="#FF7A00"/>
<line x1="24" y1="70.5" x2="54" y2="70.5" stroke="#FF7A00"/>
<path d="M13.152 74.52H15.496V67.776C15.496 67.5147 15.504 67.24 15.52 66.952L13.856 68.344C13.7867 68.4027 13.7147 68.4427 13.64 68.464C13.5707 68.4853 13.5013 68.496 13.432 68.496C13.3253 68.496 13.2267 68.4747 13.136 68.432C13.0507 68.384 12.9867 68.3307 12.944 68.272L12.32 67.416L15.848 64.416H17.472V74.52H19.552V76H13.152V74.52Z" fill="white"/>
<circle r="2.5" transform="matrix(1 0 0 -1 54.5 70.5)" fill="#FF7A00"/>
<circle cx="136" cy="16" r="16" fill="#FF7A00"/>
<line x1="136.5" y1="22" x2="136.5" y2="51" stroke="#FF7A00"/>
<path d="M135.816 10.304C136.349 10.304 136.837 10.384 137.28 10.544C137.723 10.6987 138.101 10.92 138.416 11.208C138.731 11.496 138.976 11.8427 139.152 12.248C139.328 12.6533 139.416 13.104 139.416 13.6C139.416 14.0267 139.352 14.4213 139.224 14.784C139.101 15.1467 138.933 15.4933 138.72 15.824C138.512 16.1547 138.267 16.4747 137.984 16.784C137.701 17.0933 137.405 17.408 137.096 17.728L134.488 20.392C134.744 20.3173 134.995 20.2613 135.24 20.224C135.485 20.1813 135.72 20.16 135.944 20.16H138.912C139.125 20.16 139.293 20.2213 139.416 20.344C139.544 20.4613 139.608 20.6187 139.608 20.816V22H131.672V21.344C131.672 21.2107 131.699 21.072 131.752 20.928C131.811 20.784 131.901 20.6507 132.024 20.528L135.536 17.008C135.829 16.7093 136.091 16.424 136.32 16.152C136.555 15.88 136.749 15.6107 136.904 15.344C137.064 15.0773 137.184 14.808 137.264 14.536C137.349 14.2587 137.392 13.968 137.392 13.664C137.392 13.3867 137.352 13.144 137.272 12.936C137.192 12.7227 137.077 12.544 136.928 12.4C136.779 12.256 136.6 12.1493 136.392 12.08C136.189 12.0053 135.96 11.968 135.704 11.968C135.229 11.968 134.837 12.088 134.528 12.328C134.224 12.568 134.011 12.8907 133.888 13.296C133.829 13.4987 133.741 13.6453 133.624 13.736C133.507 13.8213 133.357 13.864 133.176 13.864C133.096 13.864 133.008 13.856 132.912 13.84L131.872 13.656C131.952 13.1013 132.107 12.616 132.336 12.2C132.565 11.7787 132.851 11.4293 133.192 11.152C133.539 10.8693 133.933 10.6587 134.376 10.52C134.824 10.376 135.304 10.304 135.816 10.304Z" fill="white"/>
<circle r="2.5" transform="matrix(1 0 0 -1 136.5 51.5)" fill="#FF7A00"/>
<circle cx="224" cy="96" r="16" fill="#FF7A00"/>
<line x1="224" y1="96.5" x2="153" y2="96.5" stroke="#FF7A00"/>
<path d="M224 90.304C224.533 90.304 225.013 90.3813 225.44 90.536C225.872 90.6853 226.24 90.896 226.544 91.168C226.848 91.4347 227.08 91.7493 227.24 92.112C227.405 92.4747 227.488 92.8667 227.488 93.288C227.488 93.656 227.445 93.9813 227.36 94.264C227.28 94.5413 227.16 94.784 227 94.992C226.845 95.2 226.653 95.376 226.424 95.52C226.2 95.664 225.944 95.784 225.656 95.88C226.349 96.0987 226.867 96.432 227.208 96.88C227.549 97.328 227.72 97.8907 227.72 98.568C227.72 99.144 227.613 99.6533 227.4 100.096C227.187 100.539 226.899 100.912 226.536 101.216C226.173 101.515 225.752 101.741 225.272 101.896C224.797 102.051 224.293 102.128 223.76 102.128C223.179 102.128 222.672 102.061 222.24 101.928C221.808 101.795 221.432 101.597 221.112 101.336C220.792 101.075 220.52 100.755 220.296 100.376C220.072 99.9973 219.88 99.56 219.72 99.064L220.592 98.704C220.741 98.64 220.893 98.608 221.048 98.608C221.187 98.608 221.309 98.6373 221.416 98.696C221.528 98.7547 221.613 98.84 221.672 98.952C221.768 99.1387 221.872 99.3227 221.984 99.504C222.101 99.6853 222.24 99.848 222.4 99.992C222.56 100.131 222.747 100.245 222.96 100.336C223.179 100.421 223.437 100.464 223.736 100.464C224.072 100.464 224.365 100.411 224.616 100.304C224.867 100.192 225.075 100.048 225.24 99.872C225.411 99.696 225.536 99.5013 225.616 99.288C225.701 99.0693 225.744 98.8507 225.744 98.632C225.744 98.3547 225.715 98.104 225.656 97.88C225.597 97.6507 225.475 97.456 225.288 97.296C225.101 97.136 224.832 97.0107 224.48 96.92C224.133 96.8293 223.667 96.784 223.08 96.784V95.376C223.565 95.3707 223.968 95.3253 224.288 95.24C224.608 95.1547 224.861 95.0373 225.048 94.888C225.24 94.7333 225.373 94.5493 225.448 94.336C225.523 94.1227 225.56 93.888 225.56 93.632C225.56 93.0827 225.411 92.6693 225.112 92.392C224.813 92.1093 224.405 91.968 223.888 91.968C223.419 91.968 223.029 92.0933 222.72 92.344C222.411 92.5893 222.195 92.9067 222.072 93.296C222.008 93.4987 221.92 93.6453 221.808 93.736C221.696 93.8213 221.549 93.864 221.368 93.864C221.283 93.864 221.192 93.856 221.096 93.84L220.056 93.656C220.136 93.1013 220.291 92.616 220.52 92.2C220.749 91.7787 221.035 91.4293 221.376 91.152C221.723 90.8693 222.117 90.6587 222.56 90.52C223.008 90.376 223.488 90.304 224 90.304Z" fill="white"/>
<circle r="2.5" transform="matrix(1 0 0 -1 151.5 96.5)" fill="#FF7A00"/>
<path d="M77.352 101H75.987V96.436H70.583V101H69.218V90.969H70.583V95.442H75.987V90.969H77.352V101ZM82.411 93.797C82.8357 93.797 83.2277 93.8693 83.587 94.014C83.9464 94.154 84.2567 94.3593 84.518 94.63C84.7794 94.896 84.9824 95.2273 85.127 95.624C85.2764 96.016 85.351 96.464 85.351 96.968C85.351 97.164 85.33 97.2947 85.288 97.36C85.246 97.4253 85.1667 97.458 85.05 97.458H80.332C80.3414 97.906 80.402 98.2957 80.514 98.627C80.626 98.9583 80.78 99.236 80.976 99.46C81.172 99.6793 81.4054 99.845 81.676 99.957C81.9467 100.064 82.25 100.118 82.586 100.118C82.8987 100.118 83.167 100.083 83.391 100.013C83.6197 99.9383 83.8157 99.859 83.979 99.775C84.1424 99.691 84.2777 99.614 84.385 99.544C84.497 99.4693 84.5927 99.432 84.672 99.432C84.7747 99.432 84.854 99.4717 84.91 99.551L85.26 100.006C85.106 100.193 84.9217 100.356 84.707 100.496C84.4924 100.631 84.2614 100.743 84.014 100.832C83.7714 100.921 83.5194 100.986 83.258 101.028C82.9967 101.075 82.7377 101.098 82.481 101.098C81.991 101.098 81.5384 101.016 81.123 100.853C80.7124 100.685 80.3554 100.442 80.052 100.125C79.7534 99.803 79.52 99.4063 79.352 98.935C79.184 98.4637 79.1 97.9223 79.1 97.311C79.1 96.8163 79.1747 96.3543 79.324 95.925C79.478 95.4957 79.6974 95.1247 79.982 94.812C80.2667 94.4947 80.6144 94.2473 81.025 94.07C81.4357 93.888 81.8977 93.797 82.411 93.797ZM82.439 94.714C81.837 94.714 81.3634 94.889 81.018 95.239C80.6727 95.5843 80.458 96.065 80.374 96.681H84.231C84.231 96.3917 84.1914 96.128 84.112 95.89C84.0327 95.6473 83.916 95.4397 83.762 95.267C83.608 95.0897 83.419 94.9543 83.195 94.861C82.9757 94.763 82.7237 94.714 82.439 94.714ZM88.3318 90.689V101H87.0858V90.689H88.3318ZM90.5279 103.401V93.909H91.2699C91.4472 93.909 91.5592 93.9953 91.6059 94.168L91.7109 95.008C92.0142 94.6393 92.3595 94.343 92.7469 94.119C93.1389 93.895 93.5892 93.783 94.0979 93.783C94.5039 93.783 94.8725 93.8623 95.2039 94.021C95.5352 94.175 95.8175 94.406 96.0509 94.714C96.2842 95.0173 96.4639 95.3953 96.5899 95.848C96.7159 96.3007 96.7789 96.821 96.7789 97.409C96.7789 97.9317 96.7089 98.4193 96.5689 98.872C96.4289 99.32 96.2282 99.7097 95.9669 100.041C95.7055 100.368 95.3835 100.627 95.0009 100.818C94.6229 101.005 94.1959 101.098 93.7199 101.098C93.2812 101.098 92.9055 101.026 92.5929 100.881C92.2849 100.736 92.0119 100.531 91.7739 100.265V103.401H90.5279ZM93.6849 94.791C93.2789 94.791 92.9219 94.8843 92.6139 95.071C92.3105 95.2577 92.0305 95.5213 91.7739 95.862V99.292C92.0025 99.6 92.2522 99.817 92.5229 99.943C92.7982 100.069 93.1039 100.132 93.4399 100.132C94.0979 100.132 94.6042 99.8963 94.9589 99.425C95.3135 98.9537 95.4909 98.2817 95.4909 97.409C95.4909 96.947 95.4489 96.5503 95.3649 96.219C95.2855 95.8877 95.1689 95.617 95.0149 95.407C94.8609 95.1923 94.6719 95.036 94.4479 94.938C94.2239 94.84 93.9695 94.791 93.6849 94.791ZM101.059 93.797C101.484 93.797 101.876 93.8693 102.235 94.014C102.595 94.154 102.905 94.3593 103.166 94.63C103.428 94.896 103.631 95.2273 103.775 95.624C103.925 96.016 103.999 96.464 103.999 96.968C103.999 97.164 103.978 97.2947 103.936 97.36C103.894 97.4253 103.815 97.458 103.698 97.458H98.9805C98.9898 97.906 99.0505 98.2957 99.1625 98.627C99.2745 98.9583 99.4285 99.236 99.6245 99.46C99.8205 99.6793 100.054 99.845 100.324 99.957C100.595 100.064 100.898 100.118 101.234 100.118C101.547 100.118 101.815 100.083 102.039 100.013C102.268 99.9383 102.464 99.859 102.627 99.775C102.791 99.691 102.926 99.614 103.033 99.544C103.145 99.4693 103.241 99.432 103.32 99.432C103.423 99.432 103.502 99.4717 103.558 99.551L103.908 100.006C103.754 100.193 103.57 100.356 103.355 100.496C103.141 100.631 102.91 100.743 102.662 100.832C102.42 100.921 102.168 100.986 101.906 101.028C101.645 101.075 101.386 101.098 101.129 101.098C100.639 101.098 100.187 101.016 99.7715 100.853C99.3608 100.685 99.0038 100.442 98.7005 100.125C98.4018 99.803 98.1685 99.4063 98.0005 98.935C97.8325 98.4637 97.7485 97.9223 97.7485 97.311C97.7485 96.8163 97.8231 96.3543 97.9725 95.925C98.1265 95.4957 98.3458 95.1247 98.6305 94.812C98.9151 94.4947 99.2628 94.2473 99.6735 94.07C100.084 93.888 100.546 93.797 101.059 93.797ZM101.087 94.714C100.485 94.714 100.012 94.889 99.6665 95.239C99.3211 95.5843 99.1065 96.065 99.0225 96.681H102.879C102.879 96.3917 102.84 96.128 102.76 95.89C102.681 95.6473 102.564 95.4397 102.41 95.267C102.256 95.0897 102.067 94.9543 101.843 94.861C101.624 94.763 101.372 94.714 101.087 94.714ZM105.594 101V93.909H106.308C106.444 93.909 106.537 93.9347 106.588 93.986C106.64 94.0373 106.675 94.126 106.693 94.252L106.777 95.358C107.02 94.8633 107.319 94.4783 107.673 94.203C108.033 93.923 108.453 93.783 108.933 93.783C109.129 93.783 109.307 93.8063 109.465 93.853C109.624 93.895 109.771 93.9557 109.906 94.035L109.745 94.966C109.713 95.0827 109.64 95.141 109.528 95.141C109.463 95.141 109.363 95.12 109.227 95.078C109.092 95.0313 108.903 95.008 108.66 95.008C108.226 95.008 107.862 95.134 107.568 95.386C107.279 95.638 107.036 96.0043 106.84 96.485V101H105.594ZM116.097 101.112C115.537 101.112 115.105 100.956 114.802 100.643C114.503 100.33 114.354 99.88 114.354 99.292V94.952H113.5C113.425 94.952 113.362 94.931 113.311 94.889C113.259 94.8423 113.234 94.7723 113.234 94.679V94.182L114.396 94.035L114.683 91.844C114.692 91.774 114.722 91.718 114.774 91.676C114.825 91.6293 114.89 91.606 114.97 91.606H115.6V94.049H117.63V94.952H115.6V99.208C115.6 99.5067 115.672 99.7283 115.817 99.873C115.961 100.018 116.148 100.09 116.377 100.09C116.507 100.09 116.619 100.074 116.713 100.041C116.811 100.004 116.895 99.964 116.965 99.922C117.035 99.88 117.093 99.8427 117.14 99.81C117.191 99.7727 117.235 99.754 117.273 99.754C117.338 99.754 117.396 99.7937 117.448 99.873L117.812 100.468C117.597 100.669 117.338 100.827 117.035 100.944C116.731 101.056 116.419 101.112 116.097 101.112ZM121.977 93.797C122.402 93.797 122.794 93.8693 123.153 94.014C123.513 94.154 123.823 94.3593 124.084 94.63C124.346 94.896 124.549 95.2273 124.693 95.624C124.843 96.016 124.917 96.464 124.917 96.968C124.917 97.164 124.896 97.2947 124.854 97.36C124.812 97.4253 124.733 97.458 124.616 97.458H119.898C119.908 97.906 119.968 98.2957 120.08 98.627C120.192 98.9583 120.346 99.236 120.542 99.46C120.738 99.6793 120.972 99.845 121.242 99.957C121.513 100.064 121.816 100.118 122.152 100.118C122.465 100.118 122.733 100.083 122.957 100.013C123.186 99.9383 123.382 99.859 123.545 99.775C123.709 99.691 123.844 99.614 123.951 99.544C124.063 99.4693 124.159 99.432 124.238 99.432C124.341 99.432 124.42 99.4717 124.476 99.551L124.826 100.006C124.672 100.193 124.488 100.356 124.273 100.496C124.059 100.631 123.828 100.743 123.58 100.832C123.338 100.921 123.086 100.986 122.824 101.028C122.563 101.075 122.304 101.098 122.047 101.098C121.557 101.098 121.105 101.016 120.689 100.853C120.279 100.685 119.922 100.442 119.618 100.125C119.32 99.803 119.086 99.4063 118.918 98.935C118.75 98.4637 118.666 97.9223 118.666 97.311C118.666 96.8163 118.741 96.3543 118.89 95.925C119.044 95.4957 119.264 95.1247 119.548 94.812C119.833 94.4947 120.181 94.2473 120.591 94.07C121.002 93.888 121.464 93.797 121.977 93.797ZM122.005 94.714C121.403 94.714 120.93 94.889 120.584 95.239C120.239 95.5843 120.024 96.065 119.94 96.681H123.797C123.797 96.3917 123.758 96.128 123.678 95.89C123.599 95.6473 123.482 95.4397 123.328 95.267C123.174 95.0897 122.985 94.9543 122.761 94.861C122.542 94.763 122.29 94.714 122.005 94.714ZM127.747 97.367L125.36 93.909H126.557C126.66 93.909 126.735 93.9253 126.781 93.958C126.828 93.9907 126.87 94.0373 126.907 94.098L128.643 96.758C128.685 96.6273 128.746 96.4967 128.825 96.366L130.351 94.126C130.398 94.0607 130.445 94.0093 130.491 93.972C130.538 93.93 130.596 93.909 130.666 93.909H131.814L129.427 97.297L131.912 101H130.715C130.613 101 130.531 100.974 130.47 100.923C130.414 100.867 130.368 100.806 130.33 100.741L128.545 97.962C128.513 98.0973 128.464 98.2187 128.398 98.326L126.746 100.741C126.7 100.806 126.648 100.867 126.592 100.923C126.541 100.974 126.469 101 126.375 101H125.262L127.747 97.367ZM135.292 101.112C134.732 101.112 134.3 100.956 133.997 100.643C133.698 100.33 133.549 99.88 133.549 99.292V94.952H132.695C132.62 94.952 132.557 94.931 132.506 94.889C132.455 94.8423 132.429 94.7723 132.429 94.679V94.182L133.591 94.035L133.878 91.844C133.887 91.774 133.918 91.718 133.969 91.676C134.02 91.6293 134.086 91.606 134.165 91.606H134.795V94.049H136.825V94.952H134.795V99.208C134.795 99.5067 134.867 99.7283 135.012 99.873C135.157 100.018 135.343 100.09 135.572 100.09C135.703 100.09 135.815 100.074 135.908 100.041C136.006 100.004 136.09 99.964 136.16 99.922C136.23 99.88 136.288 99.8427 136.335 99.81C136.386 99.7727 136.431 99.754 136.468 99.754C136.533 99.754 136.592 99.7937 136.643 99.873L137.007 100.468C136.792 100.669 136.533 100.827 136.23 100.944C135.927 101.056 135.614 101.112 135.292 101.112Z" fill="#6A6A6A"/>
</svg>
