<svg width="112" height="82" viewBox="0 0 112 82" fill="none" xmlns="http://www.w3.org/2000/svg">
<path d="M39.472 14.632C39.5573 14.632 39.6347 14.6667 39.704 14.736L40.312 15.4C39.8427 15.944 39.272 16.368 38.6 16.672C37.9333 16.976 37.128 17.128 36.184 17.128C35.3573 17.128 34.608 16.9867 33.936 16.704C33.264 16.416 32.6907 16.016 32.216 15.504C31.7413 14.9867 31.3733 14.368 31.112 13.648C30.8507 12.928 30.72 12.136 30.72 11.272C30.72 10.408 30.8587 9.616 31.136 8.896C31.4187 8.176 31.8133 7.55733 32.32 7.04C32.8267 6.52267 33.432 6.12267 34.136 5.84C34.8453 5.552 35.6267 5.408 36.48 5.408C37.3227 5.408 38.048 5.53867 38.656 5.8C39.2693 6.06133 39.8133 6.416 40.288 6.864L39.784 7.576C39.7467 7.62933 39.704 7.67467 39.656 7.712C39.608 7.744 39.5387 7.76 39.448 7.76C39.3787 7.76 39.304 7.736 39.224 7.688C39.1493 7.63467 39.0587 7.57067 38.952 7.496C38.8453 7.42133 38.72 7.34133 38.576 7.256C38.432 7.17067 38.2613 7.09067 38.064 7.016C37.8667 6.94133 37.6373 6.88 37.376 6.832C37.1147 6.77867 36.8133 6.752 36.472 6.752C35.8587 6.752 35.296 6.85867 34.784 7.072C34.2773 7.28 33.84 7.57867 33.472 7.968C33.104 8.35733 32.816 8.832 32.608 9.392C32.4053 9.952 32.304 10.5787 32.304 11.272C32.304 11.9867 32.4053 12.624 32.608 13.184C32.816 13.744 33.096 14.2187 33.448 14.608C33.8053 14.992 34.2267 15.2853 34.712 15.488C35.1973 15.6907 35.72 15.792 36.28 15.792C36.6213 15.792 36.928 15.7733 37.2 15.736C37.472 15.6933 37.7227 15.6293 37.952 15.544C38.1867 15.4587 38.4027 15.352 38.6 15.224C38.8027 15.0907 39.0053 14.9333 39.208 14.752C39.2987 14.672 39.3867 14.632 39.472 14.632ZM42.1211 17V5.216H43.5451V9.984C43.8918 9.616 44.2758 9.32267 44.6971 9.104C45.1185 8.88 45.6038 8.768 46.1531 8.768C46.5958 8.768 46.9851 8.84267 47.3211 8.992C47.6625 9.136 47.9451 9.344 48.1691 9.616C48.3985 9.88267 48.5718 10.2053 48.6891 10.584C48.8065 10.9627 48.8651 11.3813 48.8651 11.84V17H47.4411V11.84C47.4411 11.2267 47.2998 10.752 47.0171 10.416C46.7398 10.0747 46.3131 9.904 45.7371 9.904C45.3158 9.904 44.9211 10.0053 44.5531 10.208C44.1905 10.4107 43.8545 10.6853 43.5451 11.032V17H42.1211ZM54.2198 8.768C54.7051 8.768 55.1531 8.85067 55.5638 9.016C55.9744 9.176 56.3291 9.41067 56.6278 9.72C56.9264 10.024 57.1584 10.4027 57.3238 10.856C57.4944 11.304 57.5798 11.816 57.5798 12.392C57.5798 12.616 57.5558 12.7653 57.5078 12.84C57.4598 12.9147 57.3691 12.952 57.2358 12.952H51.8438C51.8544 13.464 51.9238 13.9093 52.0518 14.288C52.1798 14.6667 52.3558 14.984 52.5798 15.24C52.8038 15.4907 53.0704 15.68 53.3798 15.808C53.6891 15.9307 54.0358 15.992 54.4198 15.992C54.7771 15.992 55.0838 15.952 55.3398 15.872C55.6011 15.7867 55.8251 15.696 56.0118 15.6C56.1984 15.504 56.3531 15.416 56.4758 15.336C56.6038 15.2507 56.7131 15.208 56.8038 15.208C56.9211 15.208 57.0118 15.2533 57.0758 15.344L57.4758 15.864C57.2998 16.0773 57.0891 16.264 56.8438 16.424C56.5984 16.5787 56.3344 16.7067 56.0518 16.808C55.7744 16.9093 55.4864 16.984 55.1878 17.032C54.8891 17.0853 54.5931 17.112 54.2998 17.112C53.7398 17.112 53.2224 17.0187 52.7478 16.832C52.2784 16.64 51.8704 16.3627 51.5238 16C51.1824 15.632 50.9158 15.1787 50.7238 14.64C50.5318 14.1013 50.4358 13.4827 50.4358 12.784C50.4358 12.2187 50.5211 11.6907 50.6918 11.2C50.8678 10.7093 51.1184 10.2853 51.4438 9.928C51.7691 9.56533 52.1664 9.28267 52.6358 9.08C53.1051 8.872 53.6331 8.768 54.2198 8.768ZM54.2517 9.816C53.5638 9.816 53.0224 10.016 52.6278 10.416C52.2331 10.8107 51.9878 11.36 51.8918 12.064H56.2998C56.2998 11.7333 56.2544 11.432 56.1638 11.16C56.0731 10.8827 55.9398 10.6453 55.7638 10.448C55.5878 10.2453 55.3718 10.0907 55.1158 9.984C54.8651 9.872 54.5771 9.816 54.2517 9.816ZM64.9304 10.336C64.8877 10.3947 64.845 10.44 64.8024 10.472C64.7597 10.504 64.6984 10.52 64.6184 10.52C64.5384 10.52 64.4504 10.488 64.3544 10.424C64.2637 10.3547 64.1464 10.28 64.0024 10.2C63.8584 10.12 63.6824 10.048 63.4744 9.984C63.2717 9.91467 63.021 9.88 62.7224 9.88C62.3277 9.88 61.9784 9.952 61.6744 10.096C61.3704 10.2347 61.1144 10.4373 60.9064 10.704C60.7037 10.9707 60.549 11.2933 60.4424 11.672C60.341 12.0507 60.2904 12.4747 60.2904 12.944C60.2904 13.4347 60.3464 13.872 60.4584 14.256C60.5704 14.6347 60.7277 14.9547 60.9304 15.216C61.133 15.472 61.3784 15.6693 61.6664 15.808C61.9597 15.9413 62.2877 16.008 62.6504 16.008C62.997 16.008 63.2824 15.968 63.5064 15.888C63.7304 15.8027 63.917 15.7093 64.0664 15.608C64.2157 15.5067 64.3384 15.416 64.4344 15.336C64.5304 15.2507 64.6264 15.208 64.7224 15.208C64.845 15.208 64.9357 15.2533 64.9944 15.344L65.3944 15.864C65.0424 16.296 64.6024 16.6133 64.0744 16.816C63.5464 17.0133 62.989 17.112 62.4024 17.112C61.8957 17.112 61.4237 17.0187 60.9864 16.832C60.5544 16.6453 60.1784 16.376 59.8584 16.024C59.5384 15.6667 59.285 15.2293 59.0984 14.712C58.917 14.1947 58.8264 13.6053 58.8264 12.944C58.8264 12.3413 58.909 11.784 59.0744 11.272C59.245 10.76 59.4904 10.32 59.8104 9.952C60.1357 9.57867 60.5357 9.288 61.0104 9.08C61.485 8.872 62.029 8.768 62.6424 8.768C63.2077 8.768 63.709 8.86133 64.1464 9.048C64.5837 9.22933 64.9704 9.488 65.3064 9.824L64.9304 10.336ZM68.3511 5.216V12.152H68.7191C68.8258 12.152 68.9138 12.1387 68.9831 12.112C69.0525 12.08 69.1298 12.0187 69.2151 11.928L71.7751 9.184C71.8551 9.09867 71.9351 9.02933 72.0151 8.976C72.0951 8.92267 72.2018 8.896 72.3351 8.896H73.6311L70.6471 12.072C70.5725 12.1627 70.4978 12.2427 70.4231 12.312C70.3538 12.3813 70.2738 12.4427 70.1831 12.496C70.2791 12.56 70.3645 12.6347 70.4391 12.72C70.5191 12.8 70.5938 12.8933 70.6631 13L73.8311 17H72.5511C72.4338 17 72.3325 16.9787 72.2471 16.936C72.1671 16.888 72.0898 16.816 72.0151 16.72L69.3511 13.4C69.2711 13.288 69.1911 13.216 69.1111 13.184C69.0311 13.1467 68.9111 13.128 68.7511 13.128H68.3511V17H66.9191V5.216H68.3511ZM75.3098 17V5.216H76.7418V10.064C77.0778 9.67467 77.4618 9.36267 77.8938 9.128C78.3311 8.888 78.8298 8.768 79.3898 8.768C79.8591 8.768 80.2831 8.856 80.6618 9.032C81.0404 9.208 81.3631 9.472 81.6298 9.824C81.8964 10.1707 82.1018 10.6027 82.2458 11.12C82.3898 11.632 82.4618 12.224 82.4618 12.896C82.4618 13.4933 82.3818 14.0507 82.2218 14.568C82.0618 15.08 81.8298 15.5253 81.5258 15.904C81.2271 16.2773 80.8591 16.5733 80.4218 16.792C79.9898 17.0053 79.5018 17.112 78.9578 17.112C78.4351 17.112 77.9898 17.0107 77.6218 16.808C77.2591 16.6053 76.9418 16.3227 76.6698 15.96L76.5978 16.696C76.5551 16.8987 76.4324 17 76.2298 17H75.3098ZM78.9258 9.904C78.4618 9.904 78.0538 10.0107 77.7018 10.224C77.3551 10.4373 77.0351 10.7387 76.7418 11.128V15.048C76.9978 15.4 77.2804 15.648 77.5898 15.792C77.9044 15.936 78.2538 16.008 78.6378 16.008C79.3951 16.008 79.9764 15.7387 80.3818 15.2C80.7871 14.6613 80.9898 13.8933 80.9898 12.896C80.9898 12.368 80.9418 11.9147 80.8458 11.536C80.7551 11.1573 80.6218 10.848 80.4458 10.608C80.2698 10.3627 80.0538 10.184 79.7978 10.072C79.5418 9.96 79.2511 9.904 78.9258 9.904ZM87.4793 8.768C88.0713 8.768 88.6046 8.86667 89.0793 9.064C89.5593 9.26133 89.9646 9.54133 90.2953 9.904C90.6313 10.2667 90.8873 10.7067 91.0633 11.224C91.2446 11.736 91.3353 12.3093 91.3353 12.944C91.3353 13.584 91.2446 14.16 91.0633 14.672C90.8873 15.184 90.6313 15.6213 90.2953 15.984C89.9646 16.3467 89.5593 16.6267 89.0793 16.824C88.6046 17.016 88.0713 17.112 87.4793 17.112C86.8873 17.112 86.3513 17.016 85.8713 16.824C85.3966 16.6267 84.9913 16.3467 84.6553 15.984C84.3193 15.6213 84.0606 15.184 83.8793 14.672C83.6979 14.16 83.6073 13.584 83.6073 12.944C83.6073 12.3093 83.6979 11.736 83.8793 11.224C84.0606 10.7067 84.3193 10.2667 84.6553 9.904C84.9913 9.54133 85.3966 9.26133 85.8713 9.064C86.3513 8.86667 86.8873 8.768 87.4793 8.768ZM87.4793 16C88.2793 16 88.8766 15.7333 89.2713 15.2C89.6659 14.6613 89.8633 13.912 89.8633 12.952C89.8633 11.9867 89.6659 11.2347 89.2713 10.696C88.8766 10.1573 88.2793 9.888 87.4793 9.888C87.0739 9.888 86.7219 9.95733 86.4233 10.096C86.1246 10.2347 85.8739 10.4347 85.6713 10.696C85.4739 10.9573 85.3246 11.28 85.2233 11.664C85.1273 12.0427 85.0793 12.472 85.0793 12.952C85.0793 13.432 85.1273 13.8613 85.2233 14.24C85.3246 14.6187 85.4739 14.9387 85.6713 15.2C85.8739 15.456 86.1246 15.6533 86.4233 15.792C86.7219 15.9307 87.0739 16 87.4793 16ZM94.5015 12.848L91.7735 8.896H93.1415C93.2588 8.896 93.3442 8.91467 93.3975 8.952C93.4508 8.98933 93.4988 9.04267 93.5415 9.112L95.5255 12.152C95.5735 12.0027 95.6428 11.8533 95.7335 11.704L97.4775 9.144C97.5308 9.06933 97.5842 9.01067 97.6375 8.968C97.6908 8.92 97.7575 8.896 97.8375 8.896H99.1495L96.4215 12.768L99.2615 17H97.8935C97.7762 17 97.6828 16.9707 97.6135 16.912C97.5495 16.848 97.4962 16.7787 97.4535 16.704L95.4135 13.528C95.3762 13.6827 95.3202 13.8213 95.2455 13.944L93.3575 16.704C93.3042 16.7787 93.2455 16.848 93.1815 16.912C93.1228 16.9707 93.0402 17 92.9335 17H91.6615L94.5015 12.848ZM104.89 15.912H107.354V8.096C107.354 7.86133 107.362 7.624 107.378 7.384L105.33 9.136C105.276 9.17867 105.223 9.21067 105.17 9.232C105.116 9.248 105.066 9.256 105.018 9.256C104.938 9.256 104.866 9.24 104.802 9.208C104.738 9.17067 104.69 9.128 104.658 9.08L104.21 8.464L107.618 5.512H108.778V15.912H111.034V17H104.89V15.912Z" fill="black"/>
<rect width="22" height="22" rx="4" fill="#0064D1"/>
<path fill-rule="evenodd" clip-rule="evenodd" d="M17.581 8.44227C18.1397 7.88356 18.1397 6.97773 17.581 6.41903C17.0223 5.86032 16.1164 5.86032 15.5577 6.41903L9.15034 12.8264L6.44227 10.1184C5.88356 9.55965 4.97773 9.55965 4.41903 10.1184C3.86032 10.6771 3.86032 11.5829 4.41903 12.1416L8.11837 15.8409C8.64895 16.3715 9.4926 16.3982 10.0547 15.9211C10.1407 15.8661 10.2222 15.8011 10.2973 15.7259L17.581 8.44227Z" fill="white"/>
<path d="M39.472 44.632C39.5573 44.632 39.6347 44.6667 39.704 44.736L40.312 45.4C39.8427 45.944 39.272 46.368 38.6 46.672C37.9333 46.976 37.128 47.128 36.184 47.128C35.3573 47.128 34.608 46.9867 33.936 46.704C33.264 46.416 32.6907 46.016 32.216 45.504C31.7413 44.9867 31.3733 44.368 31.112 43.648C30.8507 42.928 30.72 42.136 30.72 41.272C30.72 40.408 30.8587 39.616 31.136 38.896C31.4187 38.176 31.8133 37.5573 32.32 37.04C32.8267 36.5227 33.432 36.1227 34.136 35.84C34.8453 35.552 35.6267 35.408 36.48 35.408C37.3227 35.408 38.048 35.5387 38.656 35.8C39.2693 36.0613 39.8133 36.416 40.288 36.864L39.784 37.576C39.7467 37.6293 39.704 37.6747 39.656 37.712C39.608 37.744 39.5387 37.76 39.448 37.76C39.3787 37.76 39.304 37.736 39.224 37.688C39.1493 37.6347 39.0587 37.5707 38.952 37.496C38.8453 37.4213 38.72 37.3413 38.576 37.256C38.432 37.1707 38.2613 37.0907 38.064 37.016C37.8667 36.9413 37.6373 36.88 37.376 36.832C37.1147 36.7787 36.8133 36.752 36.472 36.752C35.8587 36.752 35.296 36.8587 34.784 37.072C34.2773 37.28 33.84 37.5787 33.472 37.968C33.104 38.3573 32.816 38.832 32.608 39.392C32.4053 39.952 32.304 40.5787 32.304 41.272C32.304 41.9867 32.4053 42.624 32.608 43.184C32.816 43.744 33.096 44.2187 33.448 44.608C33.8053 44.992 34.2267 45.2853 34.712 45.488C35.1973 45.6907 35.72 45.792 36.28 45.792C36.6213 45.792 36.928 45.7733 37.2 45.736C37.472 45.6933 37.7227 45.6293 37.952 45.544C38.1867 45.4587 38.4027 45.352 38.6 45.224C38.8027 45.0907 39.0053 44.9333 39.208 44.752C39.2987 44.672 39.3867 44.632 39.472 44.632ZM42.1211 47V35.216H43.5451V39.984C43.8918 39.616 44.2758 39.3227 44.6971 39.104C45.1185 38.88 45.6038 38.768 46.1531 38.768C46.5958 38.768 46.9851 38.8427 47.3211 38.992C47.6625 39.136 47.9451 39.344 48.1691 39.616C48.3985 39.8827 48.5718 40.2053 48.6891 40.584C48.8065 40.9627 48.8651 41.3813 48.8651 41.84V47H47.4411V41.84C47.4411 41.2267 47.2998 40.752 47.0171 40.416C46.7398 40.0747 46.3131 39.904 45.7371 39.904C45.3158 39.904 44.9211 40.0053 44.5531 40.208C44.1905 40.4107 43.8545 40.6853 43.5451 41.032V47H42.1211ZM54.2198 38.768C54.7051 38.768 55.1531 38.8507 55.5638 39.016C55.9744 39.176 56.3291 39.4107 56.6278 39.72C56.9264 40.024 57.1584 40.4027 57.3238 40.856C57.4944 41.304 57.5798 41.816 57.5798 42.392C57.5798 42.616 57.5558 42.7653 57.5078 42.84C57.4598 42.9147 57.3691 42.952 57.2358 42.952H51.8438C51.8544 43.464 51.9238 43.9093 52.0518 44.288C52.1798 44.6667 52.3558 44.984 52.5798 45.24C52.8038 45.4907 53.0704 45.68 53.3798 45.808C53.6891 45.9307 54.0358 45.992 54.4198 45.992C54.7771 45.992 55.0838 45.952 55.3398 45.872C55.6011 45.7867 55.8251 45.696 56.0118 45.6C56.1984 45.504 56.3531 45.416 56.4758 45.336C56.6038 45.2507 56.7131 45.208 56.8038 45.208C56.9211 45.208 57.0118 45.2533 57.0758 45.344L57.4758 45.864C57.2998 46.0773 57.0891 46.264 56.8438 46.424C56.5984 46.5787 56.3344 46.7067 56.0518 46.808C55.7744 46.9093 55.4864 46.984 55.1878 47.032C54.8891 47.0853 54.5931 47.112 54.2998 47.112C53.7398 47.112 53.2224 47.0187 52.7478 46.832C52.2784 46.64 51.8704 46.3627 51.5238 46C51.1824 45.632 50.9158 45.1787 50.7238 44.64C50.5318 44.1013 50.4358 43.4827 50.4358 42.784C50.4358 42.2187 50.5211 41.6907 50.6918 41.2C50.8678 40.7093 51.1184 40.2853 51.4438 39.928C51.7691 39.5653 52.1664 39.2827 52.6358 39.08C53.1051 38.872 53.6331 38.768 54.2198 38.768ZM54.2517 39.816C53.5638 39.816 53.0224 40.016 52.6278 40.416C52.2331 40.8107 51.9878 41.36 51.8918 42.064H56.2998C56.2998 41.7333 56.2544 41.432 56.1638 41.16C56.0731 40.8827 55.9398 40.6453 55.7638 40.448C55.5878 40.2453 55.3718 40.0907 55.1158 39.984C54.8651 39.872 54.5771 39.816 54.2517 39.816ZM64.9304 40.336C64.8877 40.3947 64.845 40.44 64.8024 40.472C64.7597 40.504 64.6984 40.52 64.6184 40.52C64.5384 40.52 64.4504 40.488 64.3544 40.424C64.2637 40.3547 64.1464 40.28 64.0024 40.2C63.8584 40.12 63.6824 40.048 63.4744 39.984C63.2717 39.9147 63.021 39.88 62.7224 39.88C62.3277 39.88 61.9784 39.952 61.6744 40.096C61.3704 40.2347 61.1144 40.4373 60.9064 40.704C60.7037 40.9707 60.549 41.2933 60.4424 41.672C60.341 42.0507 60.2904 42.4747 60.2904 42.944C60.2904 43.4347 60.3464 43.872 60.4584 44.256C60.5704 44.6347 60.7277 44.9547 60.9304 45.216C61.133 45.472 61.3784 45.6693 61.6664 45.808C61.9597 45.9413 62.2877 46.008 62.6504 46.008C62.997 46.008 63.2824 45.968 63.5064 45.888C63.7304 45.8027 63.917 45.7093 64.0664 45.608C64.2157 45.5067 64.3384 45.416 64.4344 45.336C64.5304 45.2507 64.6264 45.208 64.7224 45.208C64.845 45.208 64.9357 45.2533 64.9944 45.344L65.3944 45.864C65.0424 46.296 64.6024 46.6133 64.0744 46.816C63.5464 47.0133 62.989 47.112 62.4024 47.112C61.8957 47.112 61.4237 47.0187 60.9864 46.832C60.5544 46.6453 60.1784 46.376 59.8584 46.024C59.5384 45.6667 59.285 45.2293 59.0984 44.712C58.917 44.1947 58.8264 43.6053 58.8264 42.944C58.8264 42.3413 58.909 41.784 59.0744 41.272C59.245 40.76 59.4904 40.32 59.8104 39.952C60.1357 39.5787 60.5357 39.288 61.0104 39.08C61.485 38.872 62.029 38.768 62.6424 38.768C63.2077 38.768 63.709 38.8613 64.1464 39.048C64.5837 39.2293 64.9704 39.488 65.3064 39.824L64.9304 40.336ZM68.3511 35.216V42.152H68.7191C68.8258 42.152 68.9138 42.1387 68.9831 42.112C69.0525 42.08 69.1298 42.0187 69.2151 41.928L71.7751 39.184C71.8551 39.0987 71.9351 39.0293 72.0151 38.976C72.0951 38.9227 72.2018 38.896 72.3351 38.896H73.6311L70.6471 42.072C70.5725 42.1627 70.4978 42.2427 70.4231 42.312C70.3538 42.3813 70.2738 42.4427 70.1831 42.496C70.2791 42.56 70.3645 42.6347 70.4391 42.72C70.5191 42.8 70.5938 42.8933 70.6631 43L73.8311 47H72.5511C72.4338 47 72.3325 46.9787 72.2471 46.936C72.1671 46.888 72.0898 46.816 72.0151 46.72L69.3511 43.4C69.2711 43.288 69.1911 43.216 69.1111 43.184C69.0311 43.1467 68.9111 43.128 68.7511 43.128H68.3511V47H66.9191V35.216H68.3511ZM75.3098 47V35.216H76.7418V40.064C77.0778 39.6747 77.4618 39.3627 77.8938 39.128C78.3311 38.888 78.8298 38.768 79.3898 38.768C79.8591 38.768 80.2831 38.856 80.6618 39.032C81.0404 39.208 81.3631 39.472 81.6298 39.824C81.8964 40.1707 82.1018 40.6027 82.2458 41.12C82.3898 41.632 82.4618 42.224 82.4618 42.896C82.4618 43.4933 82.3818 44.0507 82.2218 44.568C82.0618 45.08 81.8298 45.5253 81.5258 45.904C81.2271 46.2773 80.8591 46.5733 80.4218 46.792C79.9898 47.0053 79.5018 47.112 78.9578 47.112C78.4351 47.112 77.9898 47.0107 77.6218 46.808C77.2591 46.6053 76.9418 46.3227 76.6698 45.96L76.5978 46.696C76.5551 46.8987 76.4324 47 76.2298 47H75.3098ZM78.9258 39.904C78.4618 39.904 78.0538 40.0107 77.7018 40.224C77.3551 40.4373 77.0351 40.7387 76.7418 41.128V45.048C76.9978 45.4 77.2804 45.648 77.5898 45.792C77.9044 45.936 78.2538 46.008 78.6378 46.008C79.3951 46.008 79.9764 45.7387 80.3818 45.2C80.7871 44.6613 80.9898 43.8933 80.9898 42.896C80.9898 42.368 80.9418 41.9147 80.8458 41.536C80.7551 41.1573 80.6218 40.848 80.4458 40.608C80.2698 40.3627 80.0538 40.184 79.7978 40.072C79.5418 39.96 79.2511 39.904 78.9258 39.904ZM87.4793 38.768C88.0713 38.768 88.6046 38.8667 89.0793 39.064C89.5593 39.2613 89.9646 39.5413 90.2953 39.904C90.6313 40.2667 90.8873 40.7067 91.0633 41.224C91.2446 41.736 91.3353 42.3093 91.3353 42.944C91.3353 43.584 91.2446 44.16 91.0633 44.672C90.8873 45.184 90.6313 45.6213 90.2953 45.984C89.9646 46.3467 89.5593 46.6267 89.0793 46.824C88.6046 47.016 88.0713 47.112 87.4793 47.112C86.8873 47.112 86.3513 47.016 85.8713 46.824C85.3966 46.6267 84.9913 46.3467 84.6553 45.984C84.3193 45.6213 84.0606 45.184 83.8793 44.672C83.6979 44.16 83.6073 43.584 83.6073 42.944C83.6073 42.3093 83.6979 41.736 83.8793 41.224C84.0606 40.7067 84.3193 40.2667 84.6553 39.904C84.9913 39.5413 85.3966 39.2613 85.8713 39.064C86.3513 38.8667 86.8873 38.768 87.4793 38.768ZM87.4793 46C88.2793 46 88.8766 45.7333 89.2713 45.2C89.6659 44.6613 89.8633 43.912 89.8633 42.952C89.8633 41.9867 89.6659 41.2347 89.2713 40.696C88.8766 40.1573 88.2793 39.888 87.4793 39.888C87.0739 39.888 86.7219 39.9573 86.4233 40.096C86.1246 40.2347 85.8739 40.4347 85.6713 40.696C85.4739 40.9573 85.3246 41.28 85.2233 41.664C85.1273 42.0427 85.0793 42.472 85.0793 42.952C85.0793 43.432 85.1273 43.8613 85.2233 44.24C85.3246 44.6187 85.4739 44.9387 85.6713 45.2C85.8739 45.456 86.1246 45.6533 86.4233 45.792C86.7219 45.9307 87.0739 46 87.4793 46ZM94.5015 42.848L91.7735 38.896H93.1415C93.2588 38.896 93.3442 38.9147 93.3975 38.952C93.4508 38.9893 93.4988 39.0427 93.5415 39.112L95.5255 42.152C95.5735 42.0027 95.6428 41.8533 95.7335 41.704L97.4775 39.144C97.5308 39.0693 97.5842 39.0107 97.6375 38.968C97.6908 38.92 97.7575 38.896 97.8375 38.896H99.1495L96.4215 42.768L99.2615 47H97.8935C97.7762 47 97.6828 46.9707 97.6135 46.912C97.5495 46.848 97.4962 46.7787 97.4535 46.704L95.4135 43.528C95.3762 43.6827 95.3202 43.8213 95.2455 43.944L93.3575 46.704C93.3042 46.7787 93.2455 46.848 93.1815 46.912C93.1228 46.9707 93.0402 47 92.9335 47H91.6615L94.5015 42.848ZM107.402 35.408C107.887 35.408 108.34 35.48 108.762 35.624C109.183 35.768 109.546 35.9787 109.85 36.256C110.159 36.528 110.402 36.8613 110.578 37.256C110.754 37.6507 110.842 38.0987 110.842 38.6C110.842 39.0267 110.778 39.4213 110.65 39.784C110.522 40.1467 110.348 40.496 110.13 40.832C109.911 41.1627 109.658 41.4853 109.37 41.8C109.087 42.1093 108.786 42.4267 108.466 42.752L105.45 45.84C105.663 45.7813 105.879 45.736 106.098 45.704C106.316 45.6667 106.527 45.648 106.73 45.648H110.57C110.724 45.648 110.847 45.6933 110.938 45.784C111.028 45.8747 111.074 45.992 111.074 46.136V47H103.426V46.512C103.426 46.4107 103.444 46.3067 103.482 46.2C103.524 46.0933 103.591 45.9947 103.682 45.904L107.354 42.216C107.658 41.9067 107.935 41.6107 108.186 41.328C108.436 41.04 108.65 40.752 108.826 40.464C109.007 40.176 109.146 39.8853 109.242 39.592C109.338 39.2933 109.386 38.976 109.386 38.64C109.386 38.304 109.332 38.0107 109.226 37.76C109.119 37.504 108.972 37.2933 108.786 37.128C108.599 36.9627 108.38 36.84 108.13 36.76C107.879 36.6747 107.61 36.632 107.322 36.632C107.034 36.632 106.767 36.6747 106.522 36.76C106.276 36.8453 106.058 36.9653 105.866 37.12C105.679 37.2693 105.519 37.448 105.386 37.656C105.258 37.864 105.167 38.0933 105.114 38.344C105.071 38.4987 105.007 38.6107 104.922 38.68C104.836 38.7493 104.724 38.784 104.586 38.784C104.559 38.784 104.53 38.784 104.498 38.784C104.471 38.7787 104.439 38.7733 104.402 38.768L103.658 38.64C103.732 38.1173 103.876 37.656 104.09 37.256C104.303 36.8507 104.572 36.512 104.898 36.24C105.228 35.968 105.604 35.7627 106.026 35.624C106.452 35.48 106.911 35.408 107.402 35.408Z" fill="black"/>
<rect x="0.5" y="30.5" width="21" height="21" rx="3.5" fill="white" stroke="#D8D8D8"/>
<path d="M39.472 74.632C39.5573 74.632 39.6347 74.6667 39.704 74.736L40.312 75.4C39.8427 75.944 39.272 76.368 38.6 76.672C37.9333 76.976 37.128 77.128 36.184 77.128C35.3573 77.128 34.608 76.9867 33.936 76.704C33.264 76.416 32.6907 76.016 32.216 75.504C31.7413 74.9867 31.3733 74.368 31.112 73.648C30.8507 72.928 30.72 72.136 30.72 71.272C30.72 70.408 30.8587 69.616 31.136 68.896C31.4187 68.176 31.8133 67.5573 32.32 67.04C32.8267 66.5227 33.432 66.1227 34.136 65.84C34.8453 65.552 35.6267 65.408 36.48 65.408C37.3227 65.408 38.048 65.5387 38.656 65.8C39.2693 66.0613 39.8133 66.416 40.288 66.864L39.784 67.576C39.7467 67.6293 39.704 67.6747 39.656 67.712C39.608 67.744 39.5387 67.76 39.448 67.76C39.3787 67.76 39.304 67.736 39.224 67.688C39.1493 67.6347 39.0587 67.5707 38.952 67.496C38.8453 67.4213 38.72 67.3413 38.576 67.256C38.432 67.1707 38.2613 67.0907 38.064 67.016C37.8667 66.9413 37.6373 66.88 37.376 66.832C37.1147 66.7787 36.8133 66.752 36.472 66.752C35.8587 66.752 35.296 66.8587 34.784 67.072C34.2773 67.28 33.84 67.5787 33.472 67.968C33.104 68.3573 32.816 68.832 32.608 69.392C32.4053 69.952 32.304 70.5787 32.304 71.272C32.304 71.9867 32.4053 72.624 32.608 73.184C32.816 73.744 33.096 74.2187 33.448 74.608C33.8053 74.992 34.2267 75.2853 34.712 75.488C35.1973 75.6907 35.72 75.792 36.28 75.792C36.6213 75.792 36.928 75.7733 37.2 75.736C37.472 75.6933 37.7227 75.6293 37.952 75.544C38.1867 75.4587 38.4027 75.352 38.6 75.224C38.8027 75.0907 39.0053 74.9333 39.208 74.752C39.2987 74.672 39.3867 74.632 39.472 74.632ZM42.1211 77V65.216H43.5451V69.984C43.8918 69.616 44.2758 69.3227 44.6971 69.104C45.1185 68.88 45.6038 68.768 46.1531 68.768C46.5958 68.768 46.9851 68.8427 47.3211 68.992C47.6625 69.136 47.9451 69.344 48.1691 69.616C48.3985 69.8827 48.5718 70.2053 48.6891 70.584C48.8065 70.9627 48.8651 71.3813 48.8651 71.84V77H47.4411V71.84C47.4411 71.2267 47.2998 70.752 47.0171 70.416C46.7398 70.0747 46.3131 69.904 45.7371 69.904C45.3158 69.904 44.9211 70.0053 44.5531 70.208C44.1905 70.4107 43.8545 70.6853 43.5451 71.032V77H42.1211ZM54.2198 68.768C54.7051 68.768 55.1531 68.8507 55.5638 69.016C55.9744 69.176 56.3291 69.4107 56.6278 69.72C56.9264 70.024 57.1584 70.4027 57.3238 70.856C57.4944 71.304 57.5798 71.816 57.5798 72.392C57.5798 72.616 57.5558 72.7653 57.5078 72.84C57.4598 72.9147 57.3691 72.952 57.2358 72.952H51.8438C51.8544 73.464 51.9238 73.9093 52.0518 74.288C52.1798 74.6667 52.3558 74.984 52.5798 75.24C52.8038 75.4907 53.0704 75.68 53.3798 75.808C53.6891 75.9307 54.0358 75.992 54.4198 75.992C54.7771 75.992 55.0838 75.952 55.3398 75.872C55.6011 75.7867 55.8251 75.696 56.0118 75.6C56.1984 75.504 56.3531 75.416 56.4758 75.336C56.6038 75.2507 56.7131 75.208 56.8038 75.208C56.9211 75.208 57.0118 75.2533 57.0758 75.344L57.4758 75.864C57.2998 76.0773 57.0891 76.264 56.8438 76.424C56.5984 76.5787 56.3344 76.7067 56.0518 76.808C55.7744 76.9093 55.4864 76.984 55.1878 77.032C54.8891 77.0853 54.5931 77.112 54.2998 77.112C53.7398 77.112 53.2224 77.0187 52.7478 76.832C52.2784 76.64 51.8704 76.3627 51.5238 76C51.1824 75.632 50.9158 75.1787 50.7238 74.64C50.5318 74.1013 50.4358 73.4827 50.4358 72.784C50.4358 72.2187 50.5211 71.6907 50.6918 71.2C50.8678 70.7093 51.1184 70.2853 51.4438 69.928C51.7691 69.5653 52.1664 69.2827 52.6358 69.08C53.1051 68.872 53.6331 68.768 54.2198 68.768ZM54.2517 69.816C53.5638 69.816 53.0224 70.016 52.6278 70.416C52.2331 70.8107 51.9878 71.36 51.8918 72.064H56.2998C56.2998 71.7333 56.2544 71.432 56.1638 71.16C56.0731 70.8827 55.9398 70.6453 55.7638 70.448C55.5878 70.2453 55.3718 70.0907 55.1158 69.984C54.8651 69.872 54.5771 69.816 54.2517 69.816ZM64.9304 70.336C64.8877 70.3947 64.845 70.44 64.8024 70.472C64.7597 70.504 64.6984 70.52 64.6184 70.52C64.5384 70.52 64.4504 70.488 64.3544 70.424C64.2637 70.3547 64.1464 70.28 64.0024 70.2C63.8584 70.12 63.6824 70.048 63.4744 69.984C63.2717 69.9147 63.021 69.88 62.7224 69.88C62.3277 69.88 61.9784 69.952 61.6744 70.096C61.3704 70.2347 61.1144 70.4373 60.9064 70.704C60.7037 70.9707 60.549 71.2933 60.4424 71.672C60.341 72.0507 60.2904 72.4747 60.2904 72.944C60.2904 73.4347 60.3464 73.872 60.4584 74.256C60.5704 74.6347 60.7277 74.9547 60.9304 75.216C61.133 75.472 61.3784 75.6693 61.6664 75.808C61.9597 75.9413 62.2877 76.008 62.6504 76.008C62.997 76.008 63.2824 75.968 63.5064 75.888C63.7304 75.8027 63.917 75.7093 64.0664 75.608C64.2157 75.5067 64.3384 75.416 64.4344 75.336C64.5304 75.2507 64.6264 75.208 64.7224 75.208C64.845 75.208 64.9357 75.2533 64.9944 75.344L65.3944 75.864C65.0424 76.296 64.6024 76.6133 64.0744 76.816C63.5464 77.0133 62.989 77.112 62.4024 77.112C61.8957 77.112 61.4237 77.0187 60.9864 76.832C60.5544 76.6453 60.1784 76.376 59.8584 76.024C59.5384 75.6667 59.285 75.2293 59.0984 74.712C58.917 74.1947 58.8264 73.6053 58.8264 72.944C58.8264 72.3413 58.909 71.784 59.0744 71.272C59.245 70.76 59.4904 70.32 59.8104 69.952C60.1357 69.5787 60.5357 69.288 61.0104 69.08C61.485 68.872 62.029 68.768 62.6424 68.768C63.2077 68.768 63.709 68.8613 64.1464 69.048C64.5837 69.2293 64.9704 69.488 65.3064 69.824L64.9304 70.336ZM68.3511 65.216V72.152H68.7191C68.8258 72.152 68.9138 72.1387 68.9831 72.112C69.0525 72.08 69.1298 72.0187 69.2151 71.928L71.7751 69.184C71.8551 69.0987 71.9351 69.0293 72.0151 68.976C72.0951 68.9227 72.2018 68.896 72.3351 68.896H73.6311L70.6471 72.072C70.5725 72.1627 70.4978 72.2427 70.4231 72.312C70.3538 72.3813 70.2738 72.4427 70.1831 72.496C70.2791 72.56 70.3645 72.6347 70.4391 72.72C70.5191 72.8 70.5938 72.8933 70.6631 73L73.8311 77H72.5511C72.4338 77 72.3325 76.9787 72.2471 76.936C72.1671 76.888 72.0898 76.816 72.0151 76.72L69.3511 73.4C69.2711 73.288 69.1911 73.216 69.1111 73.184C69.0311 73.1467 68.9111 73.128 68.7511 73.128H68.3511V77H66.9191V65.216H68.3511ZM75.3098 77V65.216H76.7418V70.064C77.0778 69.6747 77.4618 69.3627 77.8938 69.128C78.3311 68.888 78.8298 68.768 79.3898 68.768C79.8591 68.768 80.2831 68.856 80.6618 69.032C81.0404 69.208 81.3631 69.472 81.6298 69.824C81.8964 70.1707 82.1018 70.6027 82.2458 71.12C82.3898 71.632 82.4618 72.224 82.4618 72.896C82.4618 73.4933 82.3818 74.0507 82.2218 74.568C82.0618 75.08 81.8298 75.5253 81.5258 75.904C81.2271 76.2773 80.8591 76.5733 80.4218 76.792C79.9898 77.0053 79.5018 77.112 78.9578 77.112C78.4351 77.112 77.9898 77.0107 77.6218 76.808C77.2591 76.6053 76.9418 76.3227 76.6698 75.96L76.5978 76.696C76.5551 76.8987 76.4324 77 76.2298 77H75.3098ZM78.9258 69.904C78.4618 69.904 78.0538 70.0107 77.7018 70.224C77.3551 70.4373 77.0351 70.7387 76.7418 71.128V75.048C76.9978 75.4 77.2804 75.648 77.5898 75.792C77.9044 75.936 78.2538 76.008 78.6378 76.008C79.3951 76.008 79.9764 75.7387 80.3818 75.2C80.7871 74.6613 80.9898 73.8933 80.9898 72.896C80.9898 72.368 80.9418 71.9147 80.8458 71.536C80.7551 71.1573 80.6218 70.848 80.4458 70.608C80.2698 70.3627 80.0538 70.184 79.7978 70.072C79.5418 69.96 79.2511 69.904 78.9258 69.904ZM87.4793 68.768C88.0713 68.768 88.6046 68.8667 89.0793 69.064C89.5593 69.2613 89.9646 69.5413 90.2953 69.904C90.6313 70.2667 90.8873 70.7067 91.0633 71.224C91.2446 71.736 91.3353 72.3093 91.3353 72.944C91.3353 73.584 91.2446 74.16 91.0633 74.672C90.8873 75.184 90.6313 75.6213 90.2953 75.984C89.9646 76.3467 89.5593 76.6267 89.0793 76.824C88.6046 77.016 88.0713 77.112 87.4793 77.112C86.8873 77.112 86.3513 77.016 85.8713 76.824C85.3966 76.6267 84.9913 76.3467 84.6553 75.984C84.3193 75.6213 84.0606 75.184 83.8793 74.672C83.6979 74.16 83.6073 73.584 83.6073 72.944C83.6073 72.3093 83.6979 71.736 83.8793 71.224C84.0606 70.7067 84.3193 70.2667 84.6553 69.904C84.9913 69.5413 85.3966 69.2613 85.8713 69.064C86.3513 68.8667 86.8873 68.768 87.4793 68.768ZM87.4793 76C88.2793 76 88.8766 75.7333 89.2713 75.2C89.6659 74.6613 89.8633 73.912 89.8633 72.952C89.8633 71.9867 89.6659 71.2347 89.2713 70.696C88.8766 70.1573 88.2793 69.888 87.4793 69.888C87.0739 69.888 86.7219 69.9573 86.4233 70.096C86.1246 70.2347 85.8739 70.4347 85.6713 70.696C85.4739 70.9573 85.3246 71.28 85.2233 71.664C85.1273 72.0427 85.0793 72.472 85.0793 72.952C85.0793 73.432 85.1273 73.8613 85.2233 74.24C85.3246 74.6187 85.4739 74.9387 85.6713 75.2C85.8739 75.456 86.1246 75.6533 86.4233 75.792C86.7219 75.9307 87.0739 76 87.4793 76ZM94.5015 72.848L91.7735 68.896H93.1415C93.2588 68.896 93.3442 68.9147 93.3975 68.952C93.4508 68.9893 93.4988 69.0427 93.5415 69.112L95.5255 72.152C95.5735 72.0027 95.6428 71.8533 95.7335 71.704L97.4775 69.144C97.5308 69.0693 97.5842 69.0107 97.6375 68.968C97.6908 68.92 97.7575 68.896 97.8375 68.896H99.1495L96.4215 72.768L99.2615 77H97.8935C97.7762 77 97.6828 76.9707 97.6135 76.912C97.5495 76.848 97.4962 76.7787 97.4535 76.704L95.4135 73.528C95.3762 73.6827 95.3202 73.8213 95.2455 73.944L93.3575 76.704C93.3042 76.7787 93.2455 76.848 93.1815 76.912C93.1228 76.9707 93.0402 77 92.9335 77H91.6615L94.5015 72.848ZM107.554 65.408C108.039 65.408 108.487 65.4773 108.898 65.616C109.308 65.7547 109.66 65.952 109.954 66.208C110.252 66.464 110.484 66.7733 110.65 67.136C110.815 67.4987 110.898 67.9013 110.898 68.344C110.898 68.7067 110.85 69.032 110.754 69.32C110.663 69.6027 110.53 69.8533 110.354 70.072C110.183 70.2853 109.975 70.4667 109.73 70.616C109.484 70.7653 109.21 70.8853 108.906 70.976C109.652 71.1733 110.212 71.504 110.586 71.968C110.964 72.432 111.154 73.0133 111.154 73.712C111.154 74.24 111.052 74.7147 110.85 75.136C110.652 75.5573 110.38 75.9173 110.034 76.216C109.687 76.5093 109.282 76.736 108.818 76.896C108.359 77.0507 107.866 77.128 107.338 77.128C106.73 77.128 106.21 77.0533 105.778 76.904C105.346 76.7493 104.98 76.5387 104.682 76.272C104.383 76.0053 104.138 75.6907 103.946 75.328C103.754 74.96 103.591 74.5627 103.458 74.136L104.066 73.88C104.178 73.832 104.29 73.808 104.402 73.808C104.508 73.808 104.602 73.832 104.682 73.88C104.767 73.9227 104.831 73.992 104.874 74.088C104.884 74.1093 104.895 74.1333 104.906 74.16C104.916 74.1813 104.927 74.2053 104.938 74.232C105.012 74.3867 105.103 74.5627 105.21 74.76C105.316 74.952 105.46 75.1333 105.642 75.304C105.823 75.4747 106.047 75.6187 106.314 75.736C106.586 75.8533 106.922 75.912 107.322 75.912C107.722 75.912 108.071 75.848 108.37 75.72C108.674 75.5867 108.924 75.416 109.122 75.208C109.324 75 109.476 74.768 109.578 74.512C109.679 74.256 109.73 74.0027 109.73 73.752C109.73 73.4427 109.687 73.16 109.602 72.904C109.522 72.648 109.372 72.4267 109.154 72.24C108.94 72.0533 108.642 71.9067 108.258 71.8C107.879 71.6933 107.391 71.64 106.794 71.64V70.608C107.279 70.6027 107.692 70.5493 108.034 70.448C108.38 70.3467 108.663 70.208 108.882 70.032C109.1 69.856 109.258 69.6453 109.354 69.4C109.455 69.1547 109.506 68.8827 109.506 68.584C109.506 68.2533 109.452 67.9653 109.346 67.72C109.244 67.4747 109.103 67.272 108.922 67.112C108.74 66.952 108.524 66.832 108.274 66.752C108.028 66.672 107.762 66.632 107.474 66.632C107.186 66.632 106.919 66.6747 106.674 66.76C106.428 66.8453 106.21 66.9653 106.018 67.12C105.831 67.2693 105.674 67.4507 105.546 67.664C105.418 67.872 105.322 68.0987 105.258 68.344C105.215 68.4987 105.151 68.6107 105.066 68.68C104.98 68.7493 104.871 68.784 104.738 68.784C104.711 68.784 104.682 68.784 104.65 68.784C104.623 68.7787 104.591 68.7733 104.554 68.768L103.81 68.64C103.884 68.1173 104.028 67.656 104.242 67.256C104.455 66.8507 104.724 66.512 105.05 66.24C105.38 65.968 105.756 65.7627 106.178 65.624C106.604 65.48 107.063 65.408 107.554 65.408Z" fill="black"/>
<rect x="0.5" y="60.5" width="21" height="21" rx="3.5" fill="white" stroke="#D8D8D8"/>
</svg>
