<svg width="800" height="530" viewBox="0 0 800 530" fill="none" xmlns="http://www.w3.org/2000/svg">
<path d="M0 530H800V0H0V530Z" fill="#D1D1D1"/>
<rect x="27" y="68" width="232" height="29" fill="white"/>
<path d="M0 50H800V20H0V50Z" fill="#171717"/>
<rect x="27" y="116" width="747" height="394" fill="white"/>
<rect x="27" y="116" width="747" height="35" fill="#626262"/>
<rect x="739" y="81" width="35" height="35" fill="white"/>
<rect x="27" y="189" width="747" height="35" fill="#F9F9F9"/>
<rect x="27" y="262" width="747" height="35" fill="#F9F9F9"/>
<rect x="27" y="336" width="747" height="35" fill="#F9F9F9"/>
<rect x="27" y="410" width="747" height="35" fill="#F9F9F9"/>
<rect x="648" y="457" width="106" height="38" rx="19" fill="#0064D1"/>
<rect x="663" y="469" width="79" height="15" fill="white" fill-opacity="0.09"/>
<g filter="url(#filter0_d_555_618)">
<rect x="581" y="116" width="193" height="127" fill="white"/>
</g>
<rect x="633" y="144" width="118" height="10" fill="#D1D1D1"/>
<rect x="633" y="174" width="118" height="10" fill="#D1D1D1"/>
<rect x="633" y="204" width="118" height="10" fill="#D1D1D1"/>
<rect x="600" y="169" width="20" height="20" rx="3" fill="white" stroke="#D8D8D8" stroke-width="2"/>
<rect x="600" y="199" width="20" height="20" rx="3" fill="white" stroke="#D8D8D8" stroke-width="2"/>
<rect x="599" y="138" width="22" height="22" rx="4" fill="#0064D1"/>
<path fill-rule="evenodd" clip-rule="evenodd" d="M616.581 146.442C617.14 145.884 617.14 144.978 616.581 144.419C616.022 143.86 615.116 143.86 614.558 144.419L608.15 150.826L605.442 148.118C604.884 147.56 603.978 147.56 603.419 148.118C602.86 148.677 602.86 149.583 603.419 150.142L607.118 153.841C607.649 154.372 608.493 154.398 609.055 153.921C609.141 153.866 609.222 153.801 609.297 153.726L616.581 146.442Z" fill="white"/>
<defs>
<filter id="filter0_d_555_618" x="577" y="116" width="201" height="135" filterUnits="userSpaceOnUse" color-interpolation-filters="sRGB">
<feFlood flood-opacity="0" result="BackgroundImageFix"/>
<feColorMatrix in="SourceAlpha" type="matrix" values="0 0 0 0 0 0 0 0 0 0 0 0 0 0 0 0 0 0 127 0" result="hardAlpha"/>
<feOffset dy="4"/>
<feGaussianBlur stdDeviation="2"/>
<feComposite in2="hardAlpha" operator="out"/>
<feColorMatrix type="matrix" values="0 0 0 0 0 0 0 0 0 0 0 0 0 0 0 0 0 0 0.25 0"/>
<feBlend mode="normal" in2="BackgroundImageFix" result="effect1_dropShadow_555_618"/>
<feBlend mode="normal" in="SourceGraphic" in2="effect1_dropShadow_555_618" result="shape"/>
</filter>
</defs>
</svg>
