<svg width="130" height="103" viewBox="0 0 130 103" fill="none" xmlns="http://www.w3.org/2000/svg">
<path d="M40.472 14.632C40.5573 14.632 40.6347 14.6667 40.704 14.736L41.312 15.4C40.8427 15.944 40.272 16.368 39.6 16.672C38.9333 16.976 38.128 17.128 37.184 17.128C36.3573 17.128 35.608 16.9867 34.936 16.704C34.264 16.416 33.6907 16.016 33.216 15.504C32.7413 14.9867 32.3733 14.368 32.112 13.648C31.8507 12.928 31.72 12.136 31.72 11.272C31.72 10.408 31.8587 9.616 32.136 8.896C32.4187 8.176 32.8133 7.55733 33.32 7.04C33.8267 6.52267 34.432 6.12267 35.136 5.84C35.8453 5.552 36.6267 5.408 37.48 5.408C38.3227 5.408 39.048 5.53867 39.656 5.8C40.2693 6.06133 40.8133 6.416 41.288 6.864L40.784 7.576C40.7467 7.62933 40.704 7.67467 40.656 7.712C40.608 7.744 40.5387 7.76 40.448 7.76C40.3787 7.76 40.304 7.736 40.224 7.688C40.1493 7.63467 40.0587 7.57067 39.952 7.496C39.8453 7.42133 39.72 7.34133 39.576 7.256C39.432 7.17067 39.2613 7.09067 39.064 7.016C38.8667 6.94133 38.6373 6.88 38.376 6.832C38.1147 6.77867 37.8133 6.752 37.472 6.752C36.8587 6.752 36.296 6.85867 35.784 7.072C35.2773 7.28 34.84 7.57867 34.472 7.968C34.104 8.35733 33.816 8.832 33.608 9.392C33.4053 9.952 33.304 10.5787 33.304 11.272C33.304 11.9867 33.4053 12.624 33.608 13.184C33.816 13.744 34.096 14.2187 34.448 14.608C34.8053 14.992 35.2267 15.2853 35.712 15.488C36.1973 15.6907 36.72 15.792 37.28 15.792C37.6213 15.792 37.928 15.7733 38.2 15.736C38.472 15.6933 38.7227 15.6293 38.952 15.544C39.1867 15.4587 39.4027 15.352 39.6 15.224C39.8027 15.0907 40.0053 14.9333 40.208 14.752C40.2987 14.672 40.3867 14.632 40.472 14.632ZM43.1211 17V5.216H44.5451V9.984C44.8918 9.616 45.2758 9.32267 45.6971 9.104C46.1185 8.88 46.6038 8.768 47.1531 8.768C47.5958 8.768 47.9851 8.84267 48.3211 8.992C48.6625 9.136 48.9451 9.344 49.1691 9.616C49.3985 9.88267 49.5718 10.2053 49.6891 10.584C49.8065 10.9627 49.8651 11.3813 49.8651 11.84V17H48.4411V11.84C48.4411 11.2267 48.2998 10.752 48.0171 10.416C47.7398 10.0747 47.3131 9.904 46.7371 9.904C46.3158 9.904 45.9211 10.0053 45.5531 10.208C45.1905 10.4107 44.8545 10.6853 44.5451 11.032V17H43.1211ZM55.2198 8.768C55.7051 8.768 56.1531 8.85067 56.5638 9.016C56.9744 9.176 57.3291 9.41067 57.6278 9.72C57.9264 10.024 58.1584 10.4027 58.3238 10.856C58.4944 11.304 58.5798 11.816 58.5798 12.392C58.5798 12.616 58.5558 12.7653 58.5078 12.84C58.4598 12.9147 58.3691 12.952 58.2358 12.952H52.8438C52.8544 13.464 52.9238 13.9093 53.0518 14.288C53.1798 14.6667 53.3558 14.984 53.5798 15.24C53.8038 15.4907 54.0704 15.68 54.3798 15.808C54.6891 15.9307 55.0358 15.992 55.4198 15.992C55.7771 15.992 56.0838 15.952 56.3398 15.872C56.6011 15.7867 56.8251 15.696 57.0118 15.6C57.1984 15.504 57.3531 15.416 57.4758 15.336C57.6038 15.2507 57.7131 15.208 57.8038 15.208C57.9211 15.208 58.0118 15.2533 58.0758 15.344L58.4758 15.864C58.2998 16.0773 58.0891 16.264 57.8438 16.424C57.5984 16.5787 57.3344 16.7067 57.0518 16.808C56.7744 16.9093 56.4864 16.984 56.1878 17.032C55.8891 17.0853 55.5931 17.112 55.2998 17.112C54.7398 17.112 54.2224 17.0187 53.7478 16.832C53.2784 16.64 52.8704 16.3627 52.5238 16C52.1824 15.632 51.9158 15.1787 51.7238 14.64C51.5318 14.1013 51.4358 13.4827 51.4358 12.784C51.4358 12.2187 51.5211 11.6907 51.6918 11.2C51.8678 10.7093 52.1184 10.2853 52.4438 9.928C52.7691 9.56533 53.1664 9.28267 53.6358 9.08C54.1051 8.872 54.6331 8.768 55.2198 8.768ZM55.2517 9.816C54.5638 9.816 54.0224 10.016 53.6278 10.416C53.2331 10.8107 52.9878 11.36 52.8918 12.064H57.2998C57.2998 11.7333 57.2544 11.432 57.1638 11.16C57.0731 10.8827 56.9398 10.6453 56.7638 10.448C56.5878 10.2453 56.3718 10.0907 56.1158 9.984C55.8651 9.872 55.5771 9.816 55.2517 9.816ZM65.9304 10.336C65.8877 10.3947 65.845 10.44 65.8024 10.472C65.7597 10.504 65.6984 10.52 65.6184 10.52C65.5384 10.52 65.4504 10.488 65.3544 10.424C65.2637 10.3547 65.1464 10.28 65.0024 10.2C64.8584 10.12 64.6824 10.048 64.4744 9.984C64.2717 9.91467 64.021 9.88 63.7224 9.88C63.3277 9.88 62.9784 9.952 62.6744 10.096C62.3704 10.2347 62.1144 10.4373 61.9064 10.704C61.7037 10.9707 61.549 11.2933 61.4424 11.672C61.341 12.0507 61.2904 12.4747 61.2904 12.944C61.2904 13.4347 61.3464 13.872 61.4584 14.256C61.5704 14.6347 61.7277 14.9547 61.9304 15.216C62.133 15.472 62.3784 15.6693 62.6664 15.808C62.9597 15.9413 63.2877 16.008 63.6504 16.008C63.997 16.008 64.2824 15.968 64.5064 15.888C64.7304 15.8027 64.917 15.7093 65.0664 15.608C65.2157 15.5067 65.3384 15.416 65.4344 15.336C65.5304 15.2507 65.6264 15.208 65.7224 15.208C65.845 15.208 65.9357 15.2533 65.9944 15.344L66.3944 15.864C66.0424 16.296 65.6024 16.6133 65.0744 16.816C64.5464 17.0133 63.989 17.112 63.4024 17.112C62.8957 17.112 62.4237 17.0187 61.9864 16.832C61.5544 16.6453 61.1784 16.376 60.8584 16.024C60.5384 15.6667 60.285 15.2293 60.0984 14.712C59.917 14.1947 59.8264 13.6053 59.8264 12.944C59.8264 12.3413 59.909 11.784 60.0744 11.272C60.245 10.76 60.4904 10.32 60.8104 9.952C61.1357 9.57867 61.5357 9.288 62.0104 9.08C62.485 8.872 63.029 8.768 63.6424 8.768C64.2077 8.768 64.709 8.86133 65.1464 9.048C65.5837 9.22933 65.9704 9.488 66.3064 9.824L65.9304 10.336ZM69.3511 5.216V12.152H69.7191C69.8258 12.152 69.9138 12.1387 69.9831 12.112C70.0525 12.08 70.1298 12.0187 70.2151 11.928L72.7751 9.184C72.8551 9.09867 72.9351 9.02933 73.0151 8.976C73.0951 8.92267 73.2018 8.896 73.3351 8.896H74.6311L71.6471 12.072C71.5725 12.1627 71.4978 12.2427 71.4231 12.312C71.3538 12.3813 71.2738 12.4427 71.1831 12.496C71.2791 12.56 71.3645 12.6347 71.4391 12.72C71.5191 12.8 71.5938 12.8933 71.6631 13L74.8311 17H73.5511C73.4338 17 73.3325 16.9787 73.2471 16.936C73.1671 16.888 73.0898 16.816 73.0151 16.72L70.3511 13.4C70.2711 13.288 70.1911 13.216 70.1111 13.184C70.0311 13.1467 69.9111 13.128 69.7511 13.128H69.3511V17H67.9191V5.216H69.3511ZM76.3098 17V5.216H77.7418V10.064C78.0778 9.67467 78.4618 9.36267 78.8938 9.128C79.3311 8.888 79.8298 8.768 80.3898 8.768C80.8591 8.768 81.2831 8.856 81.6618 9.032C82.0404 9.208 82.3631 9.472 82.6298 9.824C82.8964 10.1707 83.1018 10.6027 83.2458 11.12C83.3898 11.632 83.4618 12.224 83.4618 12.896C83.4618 13.4933 83.3818 14.0507 83.2218 14.568C83.0618 15.08 82.8298 15.5253 82.5258 15.904C82.2271 16.2773 81.8591 16.5733 81.4218 16.792C80.9898 17.0053 80.5018 17.112 79.9578 17.112C79.4351 17.112 78.9898 17.0107 78.6218 16.808C78.2591 16.6053 77.9418 16.3227 77.6698 15.96L77.5978 16.696C77.5551 16.8987 77.4324 17 77.2298 17H76.3098ZM79.9258 9.904C79.4618 9.904 79.0538 10.0107 78.7018 10.224C78.3551 10.4373 78.0351 10.7387 77.7418 11.128V15.048C77.9978 15.4 78.2804 15.648 78.5898 15.792C78.9044 15.936 79.2538 16.008 79.6378 16.008C80.3951 16.008 80.9764 15.7387 81.3818 15.2C81.7871 14.6613 81.9898 13.8933 81.9898 12.896C81.9898 12.368 81.9418 11.9147 81.8458 11.536C81.7551 11.1573 81.6218 10.848 81.4458 10.608C81.2698 10.3627 81.0538 10.184 80.7978 10.072C80.5418 9.96 80.2511 9.904 79.9258 9.904ZM88.4793 8.768C89.0713 8.768 89.6046 8.86667 90.0793 9.064C90.5593 9.26133 90.9646 9.54133 91.2953 9.904C91.6313 10.2667 91.8873 10.7067 92.0633 11.224C92.2446 11.736 92.3353 12.3093 92.3353 12.944C92.3353 13.584 92.2446 14.16 92.0633 14.672C91.8873 15.184 91.6313 15.6213 91.2953 15.984C90.9646 16.3467 90.5593 16.6267 90.0793 16.824C89.6046 17.016 89.0713 17.112 88.4793 17.112C87.8873 17.112 87.3513 17.016 86.8713 16.824C86.3966 16.6267 85.9913 16.3467 85.6553 15.984C85.3193 15.6213 85.0606 15.184 84.8793 14.672C84.6979 14.16 84.6073 13.584 84.6073 12.944C84.6073 12.3093 84.6979 11.736 84.8793 11.224C85.0606 10.7067 85.3193 10.2667 85.6553 9.904C85.9913 9.54133 86.3966 9.26133 86.8713 9.064C87.3513 8.86667 87.8873 8.768 88.4793 8.768ZM88.4793 16C89.2793 16 89.8766 15.7333 90.2713 15.2C90.6659 14.6613 90.8633 13.912 90.8633 12.952C90.8633 11.9867 90.6659 11.2347 90.2713 10.696C89.8766 10.1573 89.2793 9.888 88.4793 9.888C88.0739 9.888 87.7219 9.95733 87.4233 10.096C87.1246 10.2347 86.8739 10.4347 86.6713 10.696C86.4739 10.9573 86.3246 11.28 86.2233 11.664C86.1273 12.0427 86.0793 12.472 86.0793 12.952C86.0793 13.432 86.1273 13.8613 86.2233 14.24C86.3246 14.6187 86.4739 14.9387 86.6713 15.2C86.8739 15.456 87.1246 15.6533 87.4233 15.792C87.7219 15.9307 88.0739 16 88.4793 16ZM95.5015 12.848L92.7735 8.896H94.1415C94.2588 8.896 94.3442 8.91467 94.3975 8.952C94.4508 8.98933 94.4988 9.04267 94.5415 9.112L96.5255 12.152C96.5735 12.0027 96.6428 11.8533 96.7335 11.704L98.4775 9.144C98.5308 9.06933 98.5842 9.01067 98.6375 8.968C98.6908 8.92 98.7575 8.896 98.8375 8.896H100.15L97.4215 12.768L100.262 17H98.8935C98.7762 17 98.6828 16.9707 98.6135 16.912C98.5495 16.848 98.4962 16.7787 98.4535 16.704L96.4135 13.528C96.3762 13.6827 96.3202 13.8213 96.2455 13.944L94.3575 16.704C94.3042 16.7787 94.2455 16.848 94.1815 16.912C94.1228 16.9707 94.0402 17 93.9335 17H92.6615L95.5015 12.848ZM105.89 15.912H108.354V8.096C108.354 7.86133 108.362 7.624 108.378 7.384L106.33 9.136C106.276 9.17867 106.223 9.21067 106.17 9.232C106.116 9.248 106.066 9.256 106.018 9.256C105.938 9.256 105.866 9.24 105.802 9.208C105.738 9.17067 105.69 9.128 105.658 9.08L105.21 8.464L108.618 5.512H109.778V15.912H112.034V17H105.89V15.912Z" fill="black"/>
<rect x="1.5" y="0.5" width="21" height="21" rx="3.5" fill="white" stroke="#FF4944"/>
<path d="M40.472 44.632C40.5573 44.632 40.6347 44.6667 40.704 44.736L41.312 45.4C40.8427 45.944 40.272 46.368 39.6 46.672C38.9333 46.976 38.128 47.128 37.184 47.128C36.3573 47.128 35.608 46.9867 34.936 46.704C34.264 46.416 33.6907 46.016 33.216 45.504C32.7413 44.9867 32.3733 44.368 32.112 43.648C31.8507 42.928 31.72 42.136 31.72 41.272C31.72 40.408 31.8587 39.616 32.136 38.896C32.4187 38.176 32.8133 37.5573 33.32 37.04C33.8267 36.5227 34.432 36.1227 35.136 35.84C35.8453 35.552 36.6267 35.408 37.48 35.408C38.3227 35.408 39.048 35.5387 39.656 35.8C40.2693 36.0613 40.8133 36.416 41.288 36.864L40.784 37.576C40.7467 37.6293 40.704 37.6747 40.656 37.712C40.608 37.744 40.5387 37.76 40.448 37.76C40.3787 37.76 40.304 37.736 40.224 37.688C40.1493 37.6347 40.0587 37.5707 39.952 37.496C39.8453 37.4213 39.72 37.3413 39.576 37.256C39.432 37.1707 39.2613 37.0907 39.064 37.016C38.8667 36.9413 38.6373 36.88 38.376 36.832C38.1147 36.7787 37.8133 36.752 37.472 36.752C36.8587 36.752 36.296 36.8587 35.784 37.072C35.2773 37.28 34.84 37.5787 34.472 37.968C34.104 38.3573 33.816 38.832 33.608 39.392C33.4053 39.952 33.304 40.5787 33.304 41.272C33.304 41.9867 33.4053 42.624 33.608 43.184C33.816 43.744 34.096 44.2187 34.448 44.608C34.8053 44.992 35.2267 45.2853 35.712 45.488C36.1973 45.6907 36.72 45.792 37.28 45.792C37.6213 45.792 37.928 45.7733 38.2 45.736C38.472 45.6933 38.7227 45.6293 38.952 45.544C39.1867 45.4587 39.4027 45.352 39.6 45.224C39.8027 45.0907 40.0053 44.9333 40.208 44.752C40.2987 44.672 40.3867 44.632 40.472 44.632ZM43.1211 47V35.216H44.5451V39.984C44.8918 39.616 45.2758 39.3227 45.6971 39.104C46.1185 38.88 46.6038 38.768 47.1531 38.768C47.5958 38.768 47.9851 38.8427 48.3211 38.992C48.6625 39.136 48.9451 39.344 49.1691 39.616C49.3985 39.8827 49.5718 40.2053 49.6891 40.584C49.8065 40.9627 49.8651 41.3813 49.8651 41.84V47H48.4411V41.84C48.4411 41.2267 48.2998 40.752 48.0171 40.416C47.7398 40.0747 47.3131 39.904 46.7371 39.904C46.3158 39.904 45.9211 40.0053 45.5531 40.208C45.1905 40.4107 44.8545 40.6853 44.5451 41.032V47H43.1211ZM55.2198 38.768C55.7051 38.768 56.1531 38.8507 56.5638 39.016C56.9744 39.176 57.3291 39.4107 57.6278 39.72C57.9264 40.024 58.1584 40.4027 58.3238 40.856C58.4944 41.304 58.5798 41.816 58.5798 42.392C58.5798 42.616 58.5558 42.7653 58.5078 42.84C58.4598 42.9147 58.3691 42.952 58.2358 42.952H52.8438C52.8544 43.464 52.9238 43.9093 53.0518 44.288C53.1798 44.6667 53.3558 44.984 53.5798 45.24C53.8038 45.4907 54.0704 45.68 54.3798 45.808C54.6891 45.9307 55.0358 45.992 55.4198 45.992C55.7771 45.992 56.0838 45.952 56.3398 45.872C56.6011 45.7867 56.8251 45.696 57.0118 45.6C57.1984 45.504 57.3531 45.416 57.4758 45.336C57.6038 45.2507 57.7131 45.208 57.8038 45.208C57.9211 45.208 58.0118 45.2533 58.0758 45.344L58.4758 45.864C58.2998 46.0773 58.0891 46.264 57.8438 46.424C57.5984 46.5787 57.3344 46.7067 57.0518 46.808C56.7744 46.9093 56.4864 46.984 56.1878 47.032C55.8891 47.0853 55.5931 47.112 55.2998 47.112C54.7398 47.112 54.2224 47.0187 53.7478 46.832C53.2784 46.64 52.8704 46.3627 52.5238 46C52.1824 45.632 51.9158 45.1787 51.7238 44.64C51.5318 44.1013 51.4358 43.4827 51.4358 42.784C51.4358 42.2187 51.5211 41.6907 51.6918 41.2C51.8678 40.7093 52.1184 40.2853 52.4438 39.928C52.7691 39.5653 53.1664 39.2827 53.6358 39.08C54.1051 38.872 54.6331 38.768 55.2198 38.768ZM55.2517 39.816C54.5638 39.816 54.0224 40.016 53.6278 40.416C53.2331 40.8107 52.9878 41.36 52.8918 42.064H57.2998C57.2998 41.7333 57.2544 41.432 57.1638 41.16C57.0731 40.8827 56.9398 40.6453 56.7638 40.448C56.5878 40.2453 56.3718 40.0907 56.1158 39.984C55.8651 39.872 55.5771 39.816 55.2517 39.816ZM65.9304 40.336C65.8877 40.3947 65.845 40.44 65.8024 40.472C65.7597 40.504 65.6984 40.52 65.6184 40.52C65.5384 40.52 65.4504 40.488 65.3544 40.424C65.2637 40.3547 65.1464 40.28 65.0024 40.2C64.8584 40.12 64.6824 40.048 64.4744 39.984C64.2717 39.9147 64.021 39.88 63.7224 39.88C63.3277 39.88 62.9784 39.952 62.6744 40.096C62.3704 40.2347 62.1144 40.4373 61.9064 40.704C61.7037 40.9707 61.549 41.2933 61.4424 41.672C61.341 42.0507 61.2904 42.4747 61.2904 42.944C61.2904 43.4347 61.3464 43.872 61.4584 44.256C61.5704 44.6347 61.7277 44.9547 61.9304 45.216C62.133 45.472 62.3784 45.6693 62.6664 45.808C62.9597 45.9413 63.2877 46.008 63.6504 46.008C63.997 46.008 64.2824 45.968 64.5064 45.888C64.7304 45.8027 64.917 45.7093 65.0664 45.608C65.2157 45.5067 65.3384 45.416 65.4344 45.336C65.5304 45.2507 65.6264 45.208 65.7224 45.208C65.845 45.208 65.9357 45.2533 65.9944 45.344L66.3944 45.864C66.0424 46.296 65.6024 46.6133 65.0744 46.816C64.5464 47.0133 63.989 47.112 63.4024 47.112C62.8957 47.112 62.4237 47.0187 61.9864 46.832C61.5544 46.6453 61.1784 46.376 60.8584 46.024C60.5384 45.6667 60.285 45.2293 60.0984 44.712C59.917 44.1947 59.8264 43.6053 59.8264 42.944C59.8264 42.3413 59.909 41.784 60.0744 41.272C60.245 40.76 60.4904 40.32 60.8104 39.952C61.1357 39.5787 61.5357 39.288 62.0104 39.08C62.485 38.872 63.029 38.768 63.6424 38.768C64.2077 38.768 64.709 38.8613 65.1464 39.048C65.5837 39.2293 65.9704 39.488 66.3064 39.824L65.9304 40.336ZM69.3511 35.216V42.152H69.7191C69.8258 42.152 69.9138 42.1387 69.9831 42.112C70.0525 42.08 70.1298 42.0187 70.2151 41.928L72.7751 39.184C72.8551 39.0987 72.9351 39.0293 73.0151 38.976C73.0951 38.9227 73.2018 38.896 73.3351 38.896H74.6311L71.6471 42.072C71.5725 42.1627 71.4978 42.2427 71.4231 42.312C71.3538 42.3813 71.2738 42.4427 71.1831 42.496C71.2791 42.56 71.3645 42.6347 71.4391 42.72C71.5191 42.8 71.5938 42.8933 71.6631 43L74.8311 47H73.5511C73.4338 47 73.3325 46.9787 73.2471 46.936C73.1671 46.888 73.0898 46.816 73.0151 46.72L70.3511 43.4C70.2711 43.288 70.1911 43.216 70.1111 43.184C70.0311 43.1467 69.9111 43.128 69.7511 43.128H69.3511V47H67.9191V35.216H69.3511ZM76.3098 47V35.216H77.7418V40.064C78.0778 39.6747 78.4618 39.3627 78.8938 39.128C79.3311 38.888 79.8298 38.768 80.3898 38.768C80.8591 38.768 81.2831 38.856 81.6618 39.032C82.0404 39.208 82.3631 39.472 82.6298 39.824C82.8964 40.1707 83.1018 40.6027 83.2458 41.12C83.3898 41.632 83.4618 42.224 83.4618 42.896C83.4618 43.4933 83.3818 44.0507 83.2218 44.568C83.0618 45.08 82.8298 45.5253 82.5258 45.904C82.2271 46.2773 81.8591 46.5733 81.4218 46.792C80.9898 47.0053 80.5018 47.112 79.9578 47.112C79.4351 47.112 78.9898 47.0107 78.6218 46.808C78.2591 46.6053 77.9418 46.3227 77.6698 45.96L77.5978 46.696C77.5551 46.8987 77.4324 47 77.2298 47H76.3098ZM79.9258 39.904C79.4618 39.904 79.0538 40.0107 78.7018 40.224C78.3551 40.4373 78.0351 40.7387 77.7418 41.128V45.048C77.9978 45.4 78.2804 45.648 78.5898 45.792C78.9044 45.936 79.2538 46.008 79.6378 46.008C80.3951 46.008 80.9764 45.7387 81.3818 45.2C81.7871 44.6613 81.9898 43.8933 81.9898 42.896C81.9898 42.368 81.9418 41.9147 81.8458 41.536C81.7551 41.1573 81.6218 40.848 81.4458 40.608C81.2698 40.3627 81.0538 40.184 80.7978 40.072C80.5418 39.96 80.2511 39.904 79.9258 39.904ZM88.4793 38.768C89.0713 38.768 89.6046 38.8667 90.0793 39.064C90.5593 39.2613 90.9646 39.5413 91.2953 39.904C91.6313 40.2667 91.8873 40.7067 92.0633 41.224C92.2446 41.736 92.3353 42.3093 92.3353 42.944C92.3353 43.584 92.2446 44.16 92.0633 44.672C91.8873 45.184 91.6313 45.6213 91.2953 45.984C90.9646 46.3467 90.5593 46.6267 90.0793 46.824C89.6046 47.016 89.0713 47.112 88.4793 47.112C87.8873 47.112 87.3513 47.016 86.8713 46.824C86.3966 46.6267 85.9913 46.3467 85.6553 45.984C85.3193 45.6213 85.0606 45.184 84.8793 44.672C84.6979 44.16 84.6073 43.584 84.6073 42.944C84.6073 42.3093 84.6979 41.736 84.8793 41.224C85.0606 40.7067 85.3193 40.2667 85.6553 39.904C85.9913 39.5413 86.3966 39.2613 86.8713 39.064C87.3513 38.8667 87.8873 38.768 88.4793 38.768ZM88.4793 46C89.2793 46 89.8766 45.7333 90.2713 45.2C90.6659 44.6613 90.8633 43.912 90.8633 42.952C90.8633 41.9867 90.6659 41.2347 90.2713 40.696C89.8766 40.1573 89.2793 39.888 88.4793 39.888C88.0739 39.888 87.7219 39.9573 87.4233 40.096C87.1246 40.2347 86.8739 40.4347 86.6713 40.696C86.4739 40.9573 86.3246 41.28 86.2233 41.664C86.1273 42.0427 86.0793 42.472 86.0793 42.952C86.0793 43.432 86.1273 43.8613 86.2233 44.24C86.3246 44.6187 86.4739 44.9387 86.6713 45.2C86.8739 45.456 87.1246 45.6533 87.4233 45.792C87.7219 45.9307 88.0739 46 88.4793 46ZM95.5015 42.848L92.7735 38.896H94.1415C94.2588 38.896 94.3442 38.9147 94.3975 38.952C94.4508 38.9893 94.4988 39.0427 94.5415 39.112L96.5255 42.152C96.5735 42.0027 96.6428 41.8533 96.7335 41.704L98.4775 39.144C98.5308 39.0693 98.5842 39.0107 98.6375 38.968C98.6908 38.92 98.7575 38.896 98.8375 38.896H100.15L97.4215 42.768L100.262 47H98.8935C98.7762 47 98.6828 46.9707 98.6135 46.912C98.5495 46.848 98.4962 46.7787 98.4535 46.704L96.4135 43.528C96.3762 43.6827 96.3202 43.8213 96.2455 43.944L94.3575 46.704C94.3042 46.7787 94.2455 46.848 94.1815 46.912C94.1228 46.9707 94.0402 47 93.9335 47H92.6615L95.5015 42.848ZM108.402 35.408C108.887 35.408 109.34 35.48 109.762 35.624C110.183 35.768 110.546 35.9787 110.85 36.256C111.159 36.528 111.402 36.8613 111.578 37.256C111.754 37.6507 111.842 38.0987 111.842 38.6C111.842 39.0267 111.778 39.4213 111.65 39.784C111.522 40.1467 111.348 40.496 111.13 40.832C110.911 41.1627 110.658 41.4853 110.37 41.8C110.087 42.1093 109.786 42.4267 109.466 42.752L106.45 45.84C106.663 45.7813 106.879 45.736 107.098 45.704C107.316 45.6667 107.527 45.648 107.73 45.648H111.57C111.724 45.648 111.847 45.6933 111.938 45.784C112.028 45.8747 112.074 45.992 112.074 46.136V47H104.426V46.512C104.426 46.4107 104.444 46.3067 104.482 46.2C104.524 46.0933 104.591 45.9947 104.682 45.904L108.354 42.216C108.658 41.9067 108.935 41.6107 109.186 41.328C109.436 41.04 109.65 40.752 109.826 40.464C110.007 40.176 110.146 39.8853 110.242 39.592C110.338 39.2933 110.386 38.976 110.386 38.64C110.386 38.304 110.332 38.0107 110.226 37.76C110.119 37.504 109.972 37.2933 109.786 37.128C109.599 36.9627 109.38 36.84 109.13 36.76C108.879 36.6747 108.61 36.632 108.322 36.632C108.034 36.632 107.767 36.6747 107.522 36.76C107.276 36.8453 107.058 36.9653 106.866 37.12C106.679 37.2693 106.519 37.448 106.386 37.656C106.258 37.864 106.167 38.0933 106.114 38.344C106.071 38.4987 106.007 38.6107 105.922 38.68C105.836 38.7493 105.724 38.784 105.586 38.784C105.559 38.784 105.53 38.784 105.498 38.784C105.471 38.7787 105.439 38.7733 105.402 38.768L104.658 38.64C104.732 38.1173 104.876 37.656 105.09 37.256C105.303 36.8507 105.572 36.512 105.898 36.24C106.228 35.968 106.604 35.7627 107.026 35.624C107.452 35.48 107.911 35.408 108.402 35.408Z" fill="black"/>
<rect x="1.5" y="30.5" width="21" height="21" rx="3.5" fill="white" stroke="#FF4944"/>
<path d="M40.472 74.632C40.5573 74.632 40.6347 74.6667 40.704 74.736L41.312 75.4C40.8427 75.944 40.272 76.368 39.6 76.672C38.9333 76.976 38.128 77.128 37.184 77.128C36.3573 77.128 35.608 76.9867 34.936 76.704C34.264 76.416 33.6907 76.016 33.216 75.504C32.7413 74.9867 32.3733 74.368 32.112 73.648C31.8507 72.928 31.72 72.136 31.72 71.272C31.72 70.408 31.8587 69.616 32.136 68.896C32.4187 68.176 32.8133 67.5573 33.32 67.04C33.8267 66.5227 34.432 66.1227 35.136 65.84C35.8453 65.552 36.6267 65.408 37.48 65.408C38.3227 65.408 39.048 65.5387 39.656 65.8C40.2693 66.0613 40.8133 66.416 41.288 66.864L40.784 67.576C40.7467 67.6293 40.704 67.6747 40.656 67.712C40.608 67.744 40.5387 67.76 40.448 67.76C40.3787 67.76 40.304 67.736 40.224 67.688C40.1493 67.6347 40.0587 67.5707 39.952 67.496C39.8453 67.4213 39.72 67.3413 39.576 67.256C39.432 67.1707 39.2613 67.0907 39.064 67.016C38.8667 66.9413 38.6373 66.88 38.376 66.832C38.1147 66.7787 37.8133 66.752 37.472 66.752C36.8587 66.752 36.296 66.8587 35.784 67.072C35.2773 67.28 34.84 67.5787 34.472 67.968C34.104 68.3573 33.816 68.832 33.608 69.392C33.4053 69.952 33.304 70.5787 33.304 71.272C33.304 71.9867 33.4053 72.624 33.608 73.184C33.816 73.744 34.096 74.2187 34.448 74.608C34.8053 74.992 35.2267 75.2853 35.712 75.488C36.1973 75.6907 36.72 75.792 37.28 75.792C37.6213 75.792 37.928 75.7733 38.2 75.736C38.472 75.6933 38.7227 75.6293 38.952 75.544C39.1867 75.4587 39.4027 75.352 39.6 75.224C39.8027 75.0907 40.0053 74.9333 40.208 74.752C40.2987 74.672 40.3867 74.632 40.472 74.632ZM43.1211 77V65.216H44.5451V69.984C44.8918 69.616 45.2758 69.3227 45.6971 69.104C46.1185 68.88 46.6038 68.768 47.1531 68.768C47.5958 68.768 47.9851 68.8427 48.3211 68.992C48.6625 69.136 48.9451 69.344 49.1691 69.616C49.3985 69.8827 49.5718 70.2053 49.6891 70.584C49.8065 70.9627 49.8651 71.3813 49.8651 71.84V77H48.4411V71.84C48.4411 71.2267 48.2998 70.752 48.0171 70.416C47.7398 70.0747 47.3131 69.904 46.7371 69.904C46.3158 69.904 45.9211 70.0053 45.5531 70.208C45.1905 70.4107 44.8545 70.6853 44.5451 71.032V77H43.1211ZM55.2198 68.768C55.7051 68.768 56.1531 68.8507 56.5638 69.016C56.9744 69.176 57.3291 69.4107 57.6278 69.72C57.9264 70.024 58.1584 70.4027 58.3238 70.856C58.4944 71.304 58.5798 71.816 58.5798 72.392C58.5798 72.616 58.5558 72.7653 58.5078 72.84C58.4598 72.9147 58.3691 72.952 58.2358 72.952H52.8438C52.8544 73.464 52.9238 73.9093 53.0518 74.288C53.1798 74.6667 53.3558 74.984 53.5798 75.24C53.8038 75.4907 54.0704 75.68 54.3798 75.808C54.6891 75.9307 55.0358 75.992 55.4198 75.992C55.7771 75.992 56.0838 75.952 56.3398 75.872C56.6011 75.7867 56.8251 75.696 57.0118 75.6C57.1984 75.504 57.3531 75.416 57.4758 75.336C57.6038 75.2507 57.7131 75.208 57.8038 75.208C57.9211 75.208 58.0118 75.2533 58.0758 75.344L58.4758 75.864C58.2998 76.0773 58.0891 76.264 57.8438 76.424C57.5984 76.5787 57.3344 76.7067 57.0518 76.808C56.7744 76.9093 56.4864 76.984 56.1878 77.032C55.8891 77.0853 55.5931 77.112 55.2998 77.112C54.7398 77.112 54.2224 77.0187 53.7478 76.832C53.2784 76.64 52.8704 76.3627 52.5238 76C52.1824 75.632 51.9158 75.1787 51.7238 74.64C51.5318 74.1013 51.4358 73.4827 51.4358 72.784C51.4358 72.2187 51.5211 71.6907 51.6918 71.2C51.8678 70.7093 52.1184 70.2853 52.4438 69.928C52.7691 69.5653 53.1664 69.2827 53.6358 69.08C54.1051 68.872 54.6331 68.768 55.2198 68.768ZM55.2517 69.816C54.5638 69.816 54.0224 70.016 53.6278 70.416C53.2331 70.8107 52.9878 71.36 52.8918 72.064H57.2998C57.2998 71.7333 57.2544 71.432 57.1638 71.16C57.0731 70.8827 56.9398 70.6453 56.7638 70.448C56.5878 70.2453 56.3718 70.0907 56.1158 69.984C55.8651 69.872 55.5771 69.816 55.2517 69.816ZM65.9304 70.336C65.8877 70.3947 65.845 70.44 65.8024 70.472C65.7597 70.504 65.6984 70.52 65.6184 70.52C65.5384 70.52 65.4504 70.488 65.3544 70.424C65.2637 70.3547 65.1464 70.28 65.0024 70.2C64.8584 70.12 64.6824 70.048 64.4744 69.984C64.2717 69.9147 64.021 69.88 63.7224 69.88C63.3277 69.88 62.9784 69.952 62.6744 70.096C62.3704 70.2347 62.1144 70.4373 61.9064 70.704C61.7037 70.9707 61.549 71.2933 61.4424 71.672C61.341 72.0507 61.2904 72.4747 61.2904 72.944C61.2904 73.4347 61.3464 73.872 61.4584 74.256C61.5704 74.6347 61.7277 74.9547 61.9304 75.216C62.133 75.472 62.3784 75.6693 62.6664 75.808C62.9597 75.9413 63.2877 76.008 63.6504 76.008C63.997 76.008 64.2824 75.968 64.5064 75.888C64.7304 75.8027 64.917 75.7093 65.0664 75.608C65.2157 75.5067 65.3384 75.416 65.4344 75.336C65.5304 75.2507 65.6264 75.208 65.7224 75.208C65.845 75.208 65.9357 75.2533 65.9944 75.344L66.3944 75.864C66.0424 76.296 65.6024 76.6133 65.0744 76.816C64.5464 77.0133 63.989 77.112 63.4024 77.112C62.8957 77.112 62.4237 77.0187 61.9864 76.832C61.5544 76.6453 61.1784 76.376 60.8584 76.024C60.5384 75.6667 60.285 75.2293 60.0984 74.712C59.917 74.1947 59.8264 73.6053 59.8264 72.944C59.8264 72.3413 59.909 71.784 60.0744 71.272C60.245 70.76 60.4904 70.32 60.8104 69.952C61.1357 69.5787 61.5357 69.288 62.0104 69.08C62.485 68.872 63.029 68.768 63.6424 68.768C64.2077 68.768 64.709 68.8613 65.1464 69.048C65.5837 69.2293 65.9704 69.488 66.3064 69.824L65.9304 70.336ZM69.3511 65.216V72.152H69.7191C69.8258 72.152 69.9138 72.1387 69.9831 72.112C70.0525 72.08 70.1298 72.0187 70.2151 71.928L72.7751 69.184C72.8551 69.0987 72.9351 69.0293 73.0151 68.976C73.0951 68.9227 73.2018 68.896 73.3351 68.896H74.6311L71.6471 72.072C71.5725 72.1627 71.4978 72.2427 71.4231 72.312C71.3538 72.3813 71.2738 72.4427 71.1831 72.496C71.2791 72.56 71.3645 72.6347 71.4391 72.72C71.5191 72.8 71.5938 72.8933 71.6631 73L74.8311 77H73.5511C73.4338 77 73.3325 76.9787 73.2471 76.936C73.1671 76.888 73.0898 76.816 73.0151 76.72L70.3511 73.4C70.2711 73.288 70.1911 73.216 70.1111 73.184C70.0311 73.1467 69.9111 73.128 69.7511 73.128H69.3511V77H67.9191V65.216H69.3511ZM76.3098 77V65.216H77.7418V70.064C78.0778 69.6747 78.4618 69.3627 78.8938 69.128C79.3311 68.888 79.8298 68.768 80.3898 68.768C80.8591 68.768 81.2831 68.856 81.6618 69.032C82.0404 69.208 82.3631 69.472 82.6298 69.824C82.8964 70.1707 83.1018 70.6027 83.2458 71.12C83.3898 71.632 83.4618 72.224 83.4618 72.896C83.4618 73.4933 83.3818 74.0507 83.2218 74.568C83.0618 75.08 82.8298 75.5253 82.5258 75.904C82.2271 76.2773 81.8591 76.5733 81.4218 76.792C80.9898 77.0053 80.5018 77.112 79.9578 77.112C79.4351 77.112 78.9898 77.0107 78.6218 76.808C78.2591 76.6053 77.9418 76.3227 77.6698 75.96L77.5978 76.696C77.5551 76.8987 77.4324 77 77.2298 77H76.3098ZM79.9258 69.904C79.4618 69.904 79.0538 70.0107 78.7018 70.224C78.3551 70.4373 78.0351 70.7387 77.7418 71.128V75.048C77.9978 75.4 78.2804 75.648 78.5898 75.792C78.9044 75.936 79.2538 76.008 79.6378 76.008C80.3951 76.008 80.9764 75.7387 81.3818 75.2C81.7871 74.6613 81.9898 73.8933 81.9898 72.896C81.9898 72.368 81.9418 71.9147 81.8458 71.536C81.7551 71.1573 81.6218 70.848 81.4458 70.608C81.2698 70.3627 81.0538 70.184 80.7978 70.072C80.5418 69.96 80.2511 69.904 79.9258 69.904ZM88.4793 68.768C89.0713 68.768 89.6046 68.8667 90.0793 69.064C90.5593 69.2613 90.9646 69.5413 91.2953 69.904C91.6313 70.2667 91.8873 70.7067 92.0633 71.224C92.2446 71.736 92.3353 72.3093 92.3353 72.944C92.3353 73.584 92.2446 74.16 92.0633 74.672C91.8873 75.184 91.6313 75.6213 91.2953 75.984C90.9646 76.3467 90.5593 76.6267 90.0793 76.824C89.6046 77.016 89.0713 77.112 88.4793 77.112C87.8873 77.112 87.3513 77.016 86.8713 76.824C86.3966 76.6267 85.9913 76.3467 85.6553 75.984C85.3193 75.6213 85.0606 75.184 84.8793 74.672C84.6979 74.16 84.6073 73.584 84.6073 72.944C84.6073 72.3093 84.6979 71.736 84.8793 71.224C85.0606 70.7067 85.3193 70.2667 85.6553 69.904C85.9913 69.5413 86.3966 69.2613 86.8713 69.064C87.3513 68.8667 87.8873 68.768 88.4793 68.768ZM88.4793 76C89.2793 76 89.8766 75.7333 90.2713 75.2C90.6659 74.6613 90.8633 73.912 90.8633 72.952C90.8633 71.9867 90.6659 71.2347 90.2713 70.696C89.8766 70.1573 89.2793 69.888 88.4793 69.888C88.0739 69.888 87.7219 69.9573 87.4233 70.096C87.1246 70.2347 86.8739 70.4347 86.6713 70.696C86.4739 70.9573 86.3246 71.28 86.2233 71.664C86.1273 72.0427 86.0793 72.472 86.0793 72.952C86.0793 73.432 86.1273 73.8613 86.2233 74.24C86.3246 74.6187 86.4739 74.9387 86.6713 75.2C86.8739 75.456 87.1246 75.6533 87.4233 75.792C87.7219 75.9307 88.0739 76 88.4793 76ZM95.5015 72.848L92.7735 68.896H94.1415C94.2588 68.896 94.3442 68.9147 94.3975 68.952C94.4508 68.9893 94.4988 69.0427 94.5415 69.112L96.5255 72.152C96.5735 72.0027 96.6428 71.8533 96.7335 71.704L98.4775 69.144C98.5308 69.0693 98.5842 69.0107 98.6375 68.968C98.6908 68.92 98.7575 68.896 98.8375 68.896H100.15L97.4215 72.768L100.262 77H98.8935C98.7762 77 98.6828 76.9707 98.6135 76.912C98.5495 76.848 98.4962 76.7787 98.4535 76.704L96.4135 73.528C96.3762 73.6827 96.3202 73.8213 96.2455 73.944L94.3575 76.704C94.3042 76.7787 94.2455 76.848 94.1815 76.912C94.1228 76.9707 94.0402 77 93.9335 77H92.6615L95.5015 72.848ZM108.554 65.408C109.039 65.408 109.487 65.4773 109.898 65.616C110.308 65.7547 110.66 65.952 110.954 66.208C111.252 66.464 111.484 66.7733 111.65 67.136C111.815 67.4987 111.898 67.9013 111.898 68.344C111.898 68.7067 111.85 69.032 111.754 69.32C111.663 69.6027 111.53 69.8533 111.354 70.072C111.183 70.2853 110.975 70.4667 110.73 70.616C110.484 70.7653 110.21 70.8853 109.906 70.976C110.652 71.1733 111.212 71.504 111.586 71.968C111.964 72.432 112.154 73.0133 112.154 73.712C112.154 74.24 112.052 74.7147 111.85 75.136C111.652 75.5573 111.38 75.9173 111.034 76.216C110.687 76.5093 110.282 76.736 109.818 76.896C109.359 77.0507 108.866 77.128 108.338 77.128C107.73 77.128 107.21 77.0533 106.778 76.904C106.346 76.7493 105.98 76.5387 105.682 76.272C105.383 76.0053 105.138 75.6907 104.946 75.328C104.754 74.96 104.591 74.5627 104.458 74.136L105.066 73.88C105.178 73.832 105.29 73.808 105.402 73.808C105.508 73.808 105.602 73.832 105.682 73.88C105.767 73.9227 105.831 73.992 105.874 74.088C105.884 74.1093 105.895 74.1333 105.906 74.16C105.916 74.1813 105.927 74.2053 105.938 74.232C106.012 74.3867 106.103 74.5627 106.21 74.76C106.316 74.952 106.46 75.1333 106.642 75.304C106.823 75.4747 107.047 75.6187 107.314 75.736C107.586 75.8533 107.922 75.912 108.322 75.912C108.722 75.912 109.071 75.848 109.37 75.72C109.674 75.5867 109.924 75.416 110.122 75.208C110.324 75 110.476 74.768 110.578 74.512C110.679 74.256 110.73 74.0027 110.73 73.752C110.73 73.4427 110.687 73.16 110.602 72.904C110.522 72.648 110.372 72.4267 110.154 72.24C109.94 72.0533 109.642 71.9067 109.258 71.8C108.879 71.6933 108.391 71.64 107.794 71.64V70.608C108.279 70.6027 108.692 70.5493 109.034 70.448C109.38 70.3467 109.663 70.208 109.882 70.032C110.1 69.856 110.258 69.6453 110.354 69.4C110.455 69.1547 110.506 68.8827 110.506 68.584C110.506 68.2533 110.452 67.9653 110.346 67.72C110.244 67.4747 110.103 67.272 109.922 67.112C109.74 66.952 109.524 66.832 109.274 66.752C109.028 66.672 108.762 66.632 108.474 66.632C108.186 66.632 107.919 66.6747 107.674 66.76C107.428 66.8453 107.21 66.9653 107.018 67.12C106.831 67.2693 106.674 67.4507 106.546 67.664C106.418 67.872 106.322 68.0987 106.258 68.344C106.215 68.4987 106.151 68.6107 106.066 68.68C105.98 68.7493 105.871 68.784 105.738 68.784C105.711 68.784 105.682 68.784 105.65 68.784C105.623 68.7787 105.591 68.7733 105.554 68.768L104.81 68.64C104.884 68.1173 105.028 67.656 105.242 67.256C105.455 66.8507 105.724 66.512 106.05 66.24C106.38 65.968 106.756 65.7627 107.178 65.624C107.604 65.48 108.063 65.408 108.554 65.408Z" fill="black"/>
<rect x="1.5" y="60.5" width="21" height="21" rx="3.5" fill="white" stroke="#FF4944"/>
<path d="M7.399 89.969V91.075H2.583V94.407H6.482V95.471H2.583V98.894H7.399V100H1.218V89.969H7.399ZM9.15677 100V92.909H9.87077C10.0061 92.909 10.0994 92.9347 10.1508 92.986C10.2021 93.0373 10.2371 93.126 10.2558 93.252L10.3398 94.358C10.5824 93.8633 10.8811 93.4783 11.2358 93.203C11.5951 92.923 12.0151 92.783 12.4958 92.783C12.6918 92.783 12.8691 92.8063 13.0278 92.853C13.1864 92.895 13.3334 92.9557 13.4688 93.035L13.3078 93.966C13.2751 94.0827 13.2028 94.141 13.0908 94.141C13.0254 94.141 12.9251 94.12 12.7898 94.078C12.6544 94.0313 12.4654 94.008 12.2228 94.008C11.7888 94.008 11.4248 94.134 11.1308 94.386C10.8414 94.638 10.5988 95.0043 10.4028 95.485V100H9.15677ZM14.8033 100V92.909H15.5173C15.6526 92.909 15.7459 92.9347 15.7973 92.986C15.8486 93.0373 15.8836 93.126 15.9023 93.252L15.9863 94.358C16.2289 93.8633 16.5276 93.4783 16.8823 93.203C17.2416 92.923 17.6616 92.783 18.1423 92.783C18.3383 92.783 18.5156 92.8063 18.6743 92.853C18.8329 92.895 18.9799 92.9557 19.1153 93.035L18.9543 93.966C18.9216 94.0827 18.8493 94.141 18.7373 94.141C18.6719 94.141 18.5716 94.12 18.4363 94.078C18.3009 94.0313 18.1119 94.008 17.8693 94.008C17.4353 94.008 17.0713 94.134 16.7773 94.386C16.4879 94.638 16.2453 95.0043 16.0493 95.485V100H14.8033ZM23.3197 92.797C23.8377 92.797 24.3044 92.8833 24.7197 93.056C25.1397 93.2287 25.4944 93.4737 25.7837 93.791C26.0777 94.1083 26.3017 94.4933 26.4557 94.946C26.6144 95.394 26.6937 95.8957 26.6937 96.451C26.6937 97.011 26.6144 97.515 26.4557 97.963C26.3017 98.411 26.0777 98.7937 25.7837 99.111C25.4944 99.4283 25.1397 99.6733 24.7197 99.846C24.3044 100.014 23.8377 100.098 23.3197 100.098C22.8017 100.098 22.3327 100.014 21.9127 99.846C21.4974 99.6733 21.1427 99.4283 20.8487 99.111C20.5547 98.7937 20.3284 98.411 20.1697 97.963C20.0111 97.515 19.9317 97.011 19.9317 96.451C19.9317 95.8957 20.0111 95.394 20.1697 94.946C20.3284 94.4933 20.5547 94.1083 20.8487 93.791C21.1427 93.4737 21.4974 93.2287 21.9127 93.056C22.3327 92.8833 22.8017 92.797 23.3197 92.797ZM23.3197 99.125C24.0197 99.125 24.5424 98.8917 24.8877 98.425C25.2331 97.9537 25.4057 97.298 25.4057 96.458C25.4057 95.6133 25.2331 94.9553 24.8877 94.484C24.5424 94.0127 24.0197 93.777 23.3197 93.777C22.9651 93.777 22.6571 93.8377 22.3957 93.959C22.1344 94.0803 21.9151 94.2553 21.7377 94.484C21.5651 94.7127 21.4344 94.995 21.3457 95.331C21.2617 95.6623 21.2197 96.038 21.2197 96.458C21.2197 96.878 21.2617 97.2537 21.3457 97.585C21.4344 97.9163 21.5651 98.1963 21.7377 98.425C21.9151 98.649 22.1344 98.8217 22.3957 98.943C22.6571 99.0643 22.9651 99.125 23.3197 99.125ZM28.229 100V92.909H28.943C29.0784 92.909 29.1717 92.9347 29.223 92.986C29.2744 93.0373 29.3094 93.126 29.328 93.252L29.412 94.358C29.6547 93.8633 29.9534 93.4783 30.308 93.203C30.6674 92.923 31.0874 92.783 31.568 92.783C31.764 92.783 31.9414 92.8063 32.1 92.853C32.2587 92.895 32.4057 92.9557 32.541 93.035L32.38 93.966C32.3474 94.0827 32.275 94.141 32.163 94.141C32.0977 94.141 31.9974 94.12 31.862 94.078C31.7267 94.0313 31.5377 94.008 31.295 94.008C30.861 94.008 30.497 94.134 30.203 94.386C29.9137 94.638 29.671 95.0043 29.475 95.485V100H28.229ZM36.5825 100V92.909H37.3245C37.5019 92.909 37.6139 92.9953 37.6605 93.168L37.7515 93.896C38.0129 93.574 38.3045 93.3103 38.6265 93.105C38.9532 92.8997 39.3312 92.797 39.7605 92.797C40.2412 92.797 40.6285 92.93 40.9225 93.196C41.2212 93.462 41.4359 93.8213 41.5665 94.274C41.6645 94.0173 41.7929 93.7957 41.9515 93.609C42.1149 93.4223 42.2969 93.2683 42.4975 93.147C42.6982 93.0257 42.9105 92.937 43.1345 92.881C43.3632 92.825 43.5942 92.797 43.8275 92.797C44.2009 92.797 44.5322 92.8577 44.8215 92.979C45.1155 93.0957 45.3629 93.2683 45.5635 93.497C45.7689 93.7257 45.9252 94.008 46.0325 94.344C46.1399 94.6753 46.1935 95.0557 46.1935 95.485V100H44.9475V95.485C44.9475 94.9297 44.8262 94.5097 44.5835 94.225C44.3409 93.9357 43.9885 93.791 43.5265 93.791C43.3212 93.791 43.1252 93.8283 42.9385 93.903C42.7565 93.973 42.5955 94.078 42.4555 94.218C42.3155 94.358 42.2035 94.5353 42.1195 94.75C42.0402 94.96 42.0005 95.205 42.0005 95.485V100H40.7545V95.485C40.7545 94.9157 40.6402 94.491 40.4115 94.211C40.1829 93.931 39.8492 93.791 39.4105 93.791C39.1025 93.791 38.8155 93.875 38.5495 94.043C38.2882 94.2063 38.0479 94.4303 37.8285 94.715V100H36.5825ZM50.8876 92.797C51.3123 92.797 51.7043 92.8693 52.0636 93.014C52.4229 93.154 52.7333 93.3593 52.9946 93.63C53.2559 93.896 53.4589 94.2273 53.6036 94.624C53.7529 95.016 53.8276 95.464 53.8276 95.968C53.8276 96.164 53.8066 96.2947 53.7646 96.36C53.7226 96.4253 53.6433 96.458 53.5266 96.458H48.8086C48.8179 96.906 48.8786 97.2957 48.9906 97.627C49.1026 97.9583 49.2566 98.236 49.4526 98.46C49.6486 98.6793 49.8819 98.845 50.1526 98.957C50.4233 99.0643 50.7266 99.118 51.0626 99.118C51.3753 99.118 51.6436 99.083 51.8676 99.013C52.0963 98.9383 52.2923 98.859 52.4556 98.775C52.6189 98.691 52.7543 98.614 52.8616 98.544C52.9736 98.4693 53.0693 98.432 53.1486 98.432C53.2513 98.432 53.3306 98.4717 53.3866 98.551L53.7366 99.006C53.5826 99.1927 53.3983 99.356 53.1836 99.496C52.9689 99.6313 52.7379 99.7433 52.4906 99.832C52.2479 99.9207 51.9959 99.986 51.7346 100.028C51.4733 100.075 51.2143 100.098 50.9576 100.098C50.4676 100.098 50.0149 100.016 49.5996 99.853C49.1889 99.685 48.8319 99.4423 48.5286 99.125C48.2299 98.803 47.9966 98.4063 47.8286 97.935C47.6606 97.4637 47.5766 96.9223 47.5766 96.311C47.5766 95.8163 47.6513 95.3543 47.8006 94.925C47.9546 94.4957 48.1739 94.1247 48.4586 93.812C48.7433 93.4947 49.0909 93.2473 49.5016 93.07C49.9123 92.888 50.3743 92.797 50.8876 92.797ZM50.9156 93.714C50.3136 93.714 49.8399 93.889 49.4946 94.239C49.1493 94.5843 48.9346 95.065 48.8506 95.681H52.7076C52.7076 95.3917 52.6679 95.128 52.5886 94.89C52.5093 94.6473 52.3926 94.4397 52.2386 94.267C52.0846 94.0897 51.8956 93.9543 51.6716 93.861C51.4523 93.763 51.2003 93.714 50.9156 93.714ZM59.4824 94.078C59.4264 94.1807 59.3401 94.232 59.2234 94.232C59.1534 94.232 59.0741 94.2063 58.9854 94.155C58.8967 94.1037 58.7871 94.0477 58.6564 93.987C58.5304 93.9217 58.3787 93.8633 58.2014 93.812C58.0241 93.756 57.8141 93.728 57.5714 93.728C57.3614 93.728 57.1724 93.756 57.0044 93.812C56.8364 93.8633 56.6917 93.9357 56.5704 94.029C56.4537 94.1223 56.3627 94.232 56.2974 94.358C56.2367 94.4793 56.2064 94.6123 56.2064 94.757C56.2064 94.939 56.2577 95.0907 56.3604 95.212C56.4677 95.3333 56.6077 95.4383 56.7804 95.527C56.9531 95.6157 57.1491 95.695 57.3684 95.765C57.5877 95.8303 57.8117 95.9027 58.0404 95.982C58.2737 96.0567 58.5001 96.1407 58.7194 96.234C58.9387 96.3273 59.1347 96.444 59.3074 96.584C59.4801 96.724 59.6177 96.8967 59.7204 97.102C59.8277 97.3027 59.8814 97.5453 59.8814 97.83C59.8814 98.1567 59.8231 98.46 59.7064 98.74C59.5897 99.0153 59.4171 99.2557 59.1884 99.461C58.9597 99.6617 58.6797 99.8203 58.3484 99.937C58.0171 100.054 57.6344 100.112 57.2004 100.112C56.7057 100.112 56.2577 100.033 55.8564 99.874C55.4551 99.7107 55.1144 99.503 54.8344 99.251L55.1284 98.775C55.1657 98.7143 55.2101 98.6677 55.2614 98.635C55.3127 98.6023 55.3804 98.586 55.4644 98.586C55.5484 98.586 55.6371 98.6187 55.7304 98.684C55.8237 98.7493 55.9357 98.8217 56.0664 98.901C56.2017 98.9803 56.3627 99.0527 56.5494 99.118C56.7407 99.1833 56.9787 99.216 57.2634 99.216C57.5061 99.216 57.7184 99.1857 57.9004 99.125C58.0824 99.0597 58.2341 98.9733 58.3554 98.866C58.4767 98.7587 58.5654 98.635 58.6214 98.495C58.6821 98.355 58.7124 98.2057 58.7124 98.047C58.7124 97.851 58.6587 97.69 58.5514 97.564C58.4487 97.4333 58.3111 97.3237 58.1384 97.235C57.9657 97.1417 57.7674 97.0623 57.5434 96.997C57.3241 96.927 57.0977 96.8547 56.8644 96.78C56.6357 96.7053 56.4094 96.6213 56.1854 96.528C55.9661 96.43 55.7701 96.3087 55.5974 96.164C55.4247 96.0193 55.2847 95.842 55.1774 95.632C55.0747 95.4173 55.0234 95.1583 55.0234 94.855C55.0234 94.5843 55.0794 94.3253 55.1914 94.078C55.3034 93.826 55.4667 93.6067 55.6814 93.42C55.8961 93.2287 56.1597 93.077 56.4724 92.965C56.7851 92.853 57.1421 92.797 57.5434 92.797C58.0101 92.797 58.4277 92.8717 58.7964 93.021C59.1697 93.1657 59.4917 93.3663 59.7624 93.623L59.4824 94.078ZM65.5527 94.078C65.4967 94.1807 65.4104 94.232 65.2937 94.232C65.2237 94.232 65.1444 94.2063 65.0557 94.155C64.967 94.1037 64.8574 94.0477 64.7267 93.987C64.6007 93.9217 64.449 93.8633 64.2717 93.812C64.0944 93.756 63.8844 93.728 63.6417 93.728C63.4317 93.728 63.2427 93.756 63.0747 93.812C62.9067 93.8633 62.762 93.9357 62.6407 94.029C62.524 94.1223 62.433 94.232 62.3677 94.358C62.307 94.4793 62.2767 94.6123 62.2767 94.757C62.2767 94.939 62.328 95.0907 62.4307 95.212C62.538 95.3333 62.678 95.4383 62.8507 95.527C63.0234 95.6157 63.2194 95.695 63.4387 95.765C63.658 95.8303 63.882 95.9027 64.1107 95.982C64.344 96.0567 64.5704 96.1407 64.7897 96.234C65.009 96.3273 65.205 96.444 65.3777 96.584C65.5504 96.724 65.688 96.8967 65.7907 97.102C65.898 97.3027 65.9517 97.5453 65.9517 97.83C65.9517 98.1567 65.8934 98.46 65.7767 98.74C65.66 99.0153 65.4874 99.2557 65.2587 99.461C65.03 99.6617 64.75 99.8203 64.4187 99.937C64.0874 100.054 63.7047 100.112 63.2707 100.112C62.776 100.112 62.328 100.033 61.9267 99.874C61.5254 99.7107 61.1847 99.503 60.9047 99.251L61.1987 98.775C61.236 98.7143 61.2804 98.6677 61.3317 98.635C61.383 98.6023 61.4507 98.586 61.5347 98.586C61.6187 98.586 61.7074 98.6187 61.8007 98.684C61.894 98.7493 62.006 98.8217 62.1367 98.901C62.272 98.9803 62.433 99.0527 62.6197 99.118C62.811 99.1833 63.049 99.216 63.3337 99.216C63.5764 99.216 63.7887 99.1857 63.9707 99.125C64.1527 99.0597 64.3044 98.9733 64.4257 98.866C64.547 98.7587 64.6357 98.635 64.6917 98.495C64.7524 98.355 64.7827 98.2057 64.7827 98.047C64.7827 97.851 64.729 97.69 64.6217 97.564C64.519 97.4333 64.3814 97.3237 64.2087 97.235C64.036 97.1417 63.8377 97.0623 63.6137 96.997C63.3944 96.927 63.168 96.8547 62.9347 96.78C62.706 96.7053 62.4797 96.6213 62.2557 96.528C62.0364 96.43 61.8404 96.3087 61.6677 96.164C61.495 96.0193 61.355 95.842 61.2477 95.632C61.145 95.4173 61.0937 95.1583 61.0937 94.855C61.0937 94.5843 61.1497 94.3253 61.2617 94.078C61.3737 93.826 61.537 93.6067 61.7517 93.42C61.9664 93.2287 62.23 93.077 62.5427 92.965C62.8554 92.853 63.2124 92.797 63.6137 92.797C64.0804 92.797 64.498 92.8717 64.8667 93.021C65.24 93.1657 65.562 93.3663 65.8327 93.623L65.5527 94.078ZM72.771 100H72.218C72.0967 100 71.9987 99.9813 71.924 99.944C71.8493 99.9067 71.8003 99.8273 71.777 99.706L71.637 99.048C71.4503 99.216 71.2683 99.3677 71.091 99.503C70.9137 99.6337 70.727 99.7457 70.531 99.839C70.335 99.9277 70.125 99.9953 69.901 100.042C69.6817 100.089 69.4367 100.112 69.166 100.112C68.8907 100.112 68.6317 100.075 68.389 100C68.151 99.9207 67.9433 99.804 67.766 99.65C67.5887 99.496 67.4463 99.3023 67.339 99.069C67.2363 98.831 67.185 98.551 67.185 98.229C67.185 97.949 67.262 97.6807 67.416 97.424C67.57 97.1627 67.8173 96.9317 68.158 96.731C68.5033 96.5303 68.9537 96.367 69.509 96.241C70.0643 96.1103 70.7433 96.0357 71.546 96.017V95.464C71.546 94.9133 71.427 94.498 71.189 94.218C70.9557 93.9333 70.608 93.791 70.146 93.791C69.8427 93.791 69.586 93.8307 69.376 93.91C69.1707 93.9847 68.991 94.071 68.837 94.169C68.6877 94.2623 68.557 94.3487 68.445 94.428C68.3377 94.5027 68.2303 94.54 68.123 94.54C68.039 94.54 67.9643 94.519 67.899 94.477C67.8383 94.4303 67.7893 94.3743 67.752 94.309L67.528 93.91C67.92 93.532 68.3423 93.2497 68.795 93.063C69.2477 92.8763 69.7493 92.783 70.3 92.783C70.6967 92.783 71.049 92.8483 71.357 92.979C71.665 93.1097 71.924 93.2917 72.134 93.525C72.344 93.7583 72.5027 94.0407 72.61 94.372C72.7173 94.7033 72.771 95.0673 72.771 95.464V100ZM69.537 99.237C69.7563 99.237 69.957 99.216 70.139 99.174C70.321 99.1273 70.4913 99.0643 70.65 98.985C70.8133 98.901 70.9673 98.8007 71.112 98.684C71.2613 98.5673 71.406 98.4343 71.546 98.285V96.808C70.972 96.8267 70.4843 96.8733 70.083 96.948C69.6817 97.018 69.355 97.1113 69.103 97.228C68.851 97.3447 68.6667 97.4823 68.55 97.641C68.438 97.7997 68.382 97.977 68.382 98.173C68.382 98.3597 68.4123 98.5207 68.473 98.656C68.5337 98.7913 68.6153 98.9033 68.718 98.992C68.8207 99.076 68.942 99.139 69.082 99.181C69.222 99.2183 69.3737 99.237 69.537 99.237ZM77.0457 92.79C77.3537 92.79 77.6407 92.825 77.9067 92.895C78.1774 92.9603 78.4224 93.0583 78.6417 93.189H80.5667V93.651C80.5667 93.805 80.4687 93.903 80.2727 93.945L79.4677 94.057C79.6264 94.3603 79.7057 94.6987 79.7057 95.072C79.7057 95.4173 79.6381 95.7323 79.5027 96.017C79.3721 96.297 79.1877 96.5373 78.9497 96.738C78.7164 96.9387 78.4364 97.0927 78.1097 97.2C77.7877 97.3073 77.4331 97.361 77.0457 97.361C76.7144 97.361 76.4017 97.3213 76.1077 97.242C75.9584 97.3353 75.8441 97.4357 75.7647 97.543C75.6901 97.6503 75.6527 97.7553 75.6527 97.858C75.6527 98.026 75.7204 98.1543 75.8557 98.243C75.9911 98.327 76.1707 98.3877 76.3947 98.425C76.6187 98.4623 76.8731 98.4857 77.1577 98.495C77.4424 98.5043 77.7317 98.5207 78.0257 98.544C78.3244 98.5627 78.6161 98.5977 78.9007 98.649C79.1854 98.7003 79.4397 98.7843 79.6637 98.901C79.8877 99.0177 80.0674 99.1787 80.2027 99.384C80.3381 99.5893 80.4057 99.8553 80.4057 100.182C80.4057 100.485 80.3287 100.779 80.1747 101.064C80.0254 101.349 79.8084 101.601 79.5237 101.82C79.2391 102.044 78.8914 102.221 78.4807 102.352C78.0701 102.487 77.6057 102.555 77.0877 102.555C76.5697 102.555 76.1147 102.504 75.7227 102.401C75.3354 102.298 75.0134 102.161 74.7567 101.988C74.5001 101.815 74.3064 101.615 74.1757 101.386C74.0497 101.162 73.9867 100.926 73.9867 100.679C73.9867 100.329 74.0964 100.033 74.3157 99.79C74.5397 99.5427 74.8454 99.3467 75.2327 99.202C75.0321 99.1087 74.8711 98.985 74.7497 98.831C74.6331 98.6723 74.5747 98.4623 74.5747 98.201C74.5747 98.0983 74.5934 97.9933 74.6307 97.886C74.6681 97.774 74.7241 97.6643 74.7987 97.557C74.8781 97.4497 74.9737 97.347 75.0857 97.249C75.1977 97.151 75.3284 97.0647 75.4777 96.99C75.1277 96.794 74.8524 96.535 74.6517 96.213C74.4557 95.8863 74.3577 95.506 74.3577 95.072C74.3577 94.7267 74.4231 94.414 74.5537 94.134C74.6891 93.8493 74.8757 93.609 75.1137 93.413C75.3517 93.2123 75.6341 93.0583 75.9607 92.951C76.2921 92.8437 76.6537 92.79 77.0457 92.79ZM79.2577 100.385C79.2577 100.208 79.2087 100.065 79.1107 99.958C79.0127 99.8507 78.8797 99.769 78.7117 99.713C78.5437 99.6523 78.3501 99.608 78.1307 99.58C77.9114 99.552 77.6804 99.5333 77.4377 99.524C77.1951 99.51 76.9477 99.496 76.6957 99.482C76.4437 99.468 76.2034 99.4423 75.9747 99.405C75.7087 99.531 75.4917 99.685 75.3237 99.867C75.1604 100.049 75.0787 100.266 75.0787 100.518C75.0787 100.677 75.1184 100.824 75.1977 100.959C75.2817 101.099 75.4077 101.218 75.5757 101.316C75.7437 101.419 75.9537 101.498 76.2057 101.554C76.4624 101.615 76.7634 101.645 77.1087 101.645C77.4447 101.645 77.7457 101.615 78.0117 101.554C78.2777 101.493 78.5017 101.407 78.6837 101.295C78.8704 101.183 79.0127 101.05 79.1107 100.896C79.2087 100.742 79.2577 100.572 79.2577 100.385ZM77.0457 96.535C77.2977 96.535 77.5194 96.5 77.7107 96.43C77.9067 96.36 78.0701 96.262 78.2007 96.136C78.3314 96.01 78.4294 95.8607 78.4947 95.688C78.5601 95.5107 78.5927 95.317 78.5927 95.107C78.5927 94.673 78.4597 94.3277 78.1937 94.071C77.9324 93.8143 77.5497 93.686 77.0457 93.686C76.5464 93.686 76.1637 93.8143 75.8977 94.071C75.6364 94.3277 75.5057 94.673 75.5057 95.107C75.5057 95.317 75.5384 95.5107 75.6037 95.688C75.6737 95.8607 75.7741 96.01 75.9047 96.136C76.0354 96.262 76.1964 96.36 76.3877 96.43C76.5791 96.5 76.7984 96.535 77.0457 96.535ZM84.6161 92.797C85.0408 92.797 85.4328 92.8693 85.7921 93.014C86.1514 93.154 86.4618 93.3593 86.7231 93.63C86.9844 93.896 87.1874 94.2273 87.3321 94.624C87.4814 95.016 87.5561 95.464 87.5561 95.968C87.5561 96.164 87.5351 96.2947 87.4931 96.36C87.4511 96.4253 87.3718 96.458 87.2551 96.458H82.5371C82.5464 96.906 82.6071 97.2957 82.7191 97.627C82.8311 97.9583 82.9851 98.236 83.1811 98.46C83.3771 98.6793 83.6104 98.845 83.8811 98.957C84.1518 99.0643 84.4551 99.118 84.7911 99.118C85.1038 99.118 85.3721 99.083 85.5961 99.013C85.8248 98.9383 86.0208 98.859 86.1841 98.775C86.3474 98.691 86.4828 98.614 86.5901 98.544C86.7021 98.4693 86.7978 98.432 86.8771 98.432C86.9798 98.432 87.0591 98.4717 87.1151 98.551L87.4651 99.006C87.3111 99.1927 87.1268 99.356 86.9121 99.496C86.6974 99.6313 86.4664 99.7433 86.2191 99.832C85.9764 99.9207 85.7244 99.986 85.4631 100.028C85.2018 100.075 84.9428 100.098 84.6861 100.098C84.1961 100.098 83.7434 100.016 83.3281 99.853C82.9174 99.685 82.5604 99.4423 82.2571 99.125C81.9584 98.803 81.7251 98.4063 81.5571 97.935C81.3891 97.4637 81.3051 96.9223 81.3051 96.311C81.3051 95.8163 81.3798 95.3543 81.5291 94.925C81.6831 94.4957 81.9024 94.1247 82.1871 93.812C82.4718 93.4947 82.8194 93.2473 83.2301 93.07C83.6408 92.888 84.1028 92.797 84.6161 92.797ZM84.6441 93.714C84.0421 93.714 83.5684 93.889 83.2231 94.239C82.8778 94.5843 82.6631 95.065 82.5791 95.681H86.4361C86.4361 95.3917 86.3964 95.128 86.3171 94.89C86.2378 94.6473 86.1211 94.4397 85.9671 94.267C85.8131 94.0897 85.6241 93.9543 85.4001 93.861C85.1808 93.763 84.9288 93.714 84.6441 93.714Z" fill="#FF4944"/>
</svg>
