<svg width="384" height="43" viewBox="0 0 384 43" fill="none" xmlns="http://www.w3.org/2000/svg">
<path d="M176.472 14.632C176.557 14.632 176.635 14.6667 176.704 14.736L177.312 15.4C176.843 15.944 176.272 16.368 175.6 16.672C174.933 16.976 174.128 17.128 173.184 17.128C172.357 17.128 171.608 16.9867 170.936 16.704C170.264 16.416 169.691 16.016 169.216 15.504C168.741 14.9867 168.373 14.368 168.112 13.648C167.851 12.928 167.72 12.136 167.72 11.272C167.72 10.408 167.859 9.616 168.136 8.896C168.419 8.176 168.813 7.55733 169.32 7.04C169.827 6.52267 170.432 6.12267 171.136 5.84C171.845 5.552 172.627 5.408 173.48 5.408C174.323 5.408 175.048 5.53867 175.656 5.8C176.269 6.06133 176.813 6.416 177.288 6.864L176.784 7.576C176.747 7.62933 176.704 7.67467 176.656 7.712C176.608 7.744 176.539 7.76 176.448 7.76C176.379 7.76 176.304 7.736 176.224 7.688C176.149 7.63467 176.059 7.57067 175.952 7.496C175.845 7.42133 175.72 7.34133 175.576 7.256C175.432 7.17067 175.261 7.09067 175.064 7.016C174.867 6.94133 174.637 6.88 174.376 6.832C174.115 6.77867 173.813 6.752 173.472 6.752C172.859 6.752 172.296 6.85867 171.784 7.072C171.277 7.28 170.84 7.57867 170.472 7.968C170.104 8.35733 169.816 8.832 169.608 9.392C169.405 9.952 169.304 10.5787 169.304 11.272C169.304 11.9867 169.405 12.624 169.608 13.184C169.816 13.744 170.096 14.2187 170.448 14.608C170.805 14.992 171.227 15.2853 171.712 15.488C172.197 15.6907 172.72 15.792 173.28 15.792C173.621 15.792 173.928 15.7733 174.2 15.736C174.472 15.6933 174.723 15.6293 174.952 15.544C175.187 15.4587 175.403 15.352 175.6 15.224C175.803 15.0907 176.005 14.9333 176.208 14.752C176.299 14.672 176.387 14.632 176.472 14.632ZM179.121 17V5.216H180.545V9.984C180.892 9.616 181.276 9.32267 181.697 9.104C182.118 8.88 182.604 8.768 183.153 8.768C183.596 8.768 183.985 8.84267 184.321 8.992C184.662 9.136 184.945 9.344 185.169 9.616C185.398 9.88267 185.572 10.2053 185.689 10.584C185.806 10.9627 185.865 11.3813 185.865 11.84V17H184.441V11.84C184.441 11.2267 184.3 10.752 184.017 10.416C183.74 10.0747 183.313 9.904 182.737 9.904C182.316 9.904 181.921 10.0053 181.553 10.208C181.19 10.4107 180.854 10.6853 180.545 11.032V17H179.121ZM191.22 8.768C191.705 8.768 192.153 8.85067 192.564 9.016C192.974 9.176 193.329 9.41067 193.628 9.72C193.926 10.024 194.158 10.4027 194.324 10.856C194.494 11.304 194.58 11.816 194.58 12.392C194.58 12.616 194.556 12.7653 194.508 12.84C194.46 12.9147 194.369 12.952 194.236 12.952H188.844C188.854 13.464 188.924 13.9093 189.052 14.288C189.18 14.6667 189.356 14.984 189.58 15.24C189.804 15.4907 190.07 15.68 190.38 15.808C190.689 15.9307 191.036 15.992 191.42 15.992C191.777 15.992 192.084 15.952 192.34 15.872C192.601 15.7867 192.825 15.696 193.012 15.6C193.198 15.504 193.353 15.416 193.476 15.336C193.604 15.2507 193.713 15.208 193.804 15.208C193.921 15.208 194.012 15.2533 194.076 15.344L194.476 15.864C194.3 16.0773 194.089 16.264 193.844 16.424C193.598 16.5787 193.334 16.7067 193.052 16.808C192.774 16.9093 192.486 16.984 192.188 17.032C191.889 17.0853 191.593 17.112 191.3 17.112C190.74 17.112 190.222 17.0187 189.748 16.832C189.278 16.64 188.87 16.3627 188.524 16C188.182 15.632 187.916 15.1787 187.724 14.64C187.532 14.1013 187.436 13.4827 187.436 12.784C187.436 12.2187 187.521 11.6907 187.692 11.2C187.868 10.7093 188.118 10.2853 188.444 9.928C188.769 9.56533 189.166 9.28267 189.636 9.08C190.105 8.872 190.633 8.768 191.22 8.768ZM191.252 9.816C190.564 9.816 190.022 10.016 189.628 10.416C189.233 10.8107 188.988 11.36 188.892 12.064H193.3C193.3 11.7333 193.254 11.432 193.164 11.16C193.073 10.8827 192.94 10.6453 192.764 10.448C192.588 10.2453 192.372 10.0907 192.116 9.984C191.865 9.872 191.577 9.816 191.252 9.816ZM201.93 10.336C201.888 10.3947 201.845 10.44 201.802 10.472C201.76 10.504 201.698 10.52 201.618 10.52C201.538 10.52 201.45 10.488 201.354 10.424C201.264 10.3547 201.146 10.28 201.002 10.2C200.858 10.12 200.682 10.048 200.474 9.984C200.272 9.91467 200.021 9.88 199.722 9.88C199.328 9.88 198.978 9.952 198.674 10.096C198.37 10.2347 198.114 10.4373 197.906 10.704C197.704 10.9707 197.549 11.2933 197.442 11.672C197.341 12.0507 197.29 12.4747 197.29 12.944C197.29 13.4347 197.346 13.872 197.458 14.256C197.57 14.6347 197.728 14.9547 197.93 15.216C198.133 15.472 198.378 15.6693 198.666 15.808C198.96 15.9413 199.288 16.008 199.65 16.008C199.997 16.008 200.282 15.968 200.506 15.888C200.73 15.8027 200.917 15.7093 201.066 15.608C201.216 15.5067 201.338 15.416 201.434 15.336C201.53 15.2507 201.626 15.208 201.722 15.208C201.845 15.208 201.936 15.2533 201.994 15.344L202.394 15.864C202.042 16.296 201.602 16.6133 201.074 16.816C200.546 17.0133 199.989 17.112 199.402 17.112C198.896 17.112 198.424 17.0187 197.986 16.832C197.554 16.6453 197.178 16.376 196.858 16.024C196.538 15.6667 196.285 15.2293 196.098 14.712C195.917 14.1947 195.826 13.6053 195.826 12.944C195.826 12.3413 195.909 11.784 196.074 11.272C196.245 10.76 196.49 10.32 196.81 9.952C197.136 9.57867 197.536 9.288 198.01 9.08C198.485 8.872 199.029 8.768 199.642 8.768C200.208 8.768 200.709 8.86133 201.146 9.048C201.584 9.22933 201.97 9.488 202.306 9.824L201.93 10.336ZM205.351 5.216V12.152H205.719C205.826 12.152 205.914 12.1387 205.983 12.112C206.052 12.08 206.13 12.0187 206.215 11.928L208.775 9.184C208.855 9.09867 208.935 9.02933 209.015 8.976C209.095 8.92267 209.202 8.896 209.335 8.896H210.631L207.647 12.072C207.572 12.1627 207.498 12.2427 207.423 12.312C207.354 12.3813 207.274 12.4427 207.183 12.496C207.279 12.56 207.364 12.6347 207.439 12.72C207.519 12.8 207.594 12.8933 207.663 13L210.831 17H209.551C209.434 17 209.332 16.9787 209.247 16.936C209.167 16.888 209.09 16.816 209.015 16.72L206.351 13.4C206.271 13.288 206.191 13.216 206.111 13.184C206.031 13.1467 205.911 13.128 205.751 13.128H205.351V17H203.919V5.216H205.351ZM212.31 17V5.216H213.742V10.064C214.078 9.67467 214.462 9.36267 214.894 9.128C215.331 8.888 215.83 8.768 216.39 8.768C216.859 8.768 217.283 8.856 217.662 9.032C218.04 9.208 218.363 9.472 218.63 9.824C218.896 10.1707 219.102 10.6027 219.246 11.12C219.39 11.632 219.462 12.224 219.462 12.896C219.462 13.4933 219.382 14.0507 219.222 14.568C219.062 15.08 218.83 15.5253 218.526 15.904C218.227 16.2773 217.859 16.5733 217.422 16.792C216.99 17.0053 216.502 17.112 215.958 17.112C215.435 17.112 214.99 17.0107 214.622 16.808C214.259 16.6053 213.942 16.3227 213.67 15.96L213.598 16.696C213.555 16.8987 213.432 17 213.23 17H212.31ZM215.926 9.904C215.462 9.904 215.054 10.0107 214.702 10.224C214.355 10.4373 214.035 10.7387 213.742 11.128V15.048C213.998 15.4 214.28 15.648 214.59 15.792C214.904 15.936 215.254 16.008 215.638 16.008C216.395 16.008 216.976 15.7387 217.382 15.2C217.787 14.6613 217.99 13.8933 217.99 12.896C217.99 12.368 217.942 11.9147 217.846 11.536C217.755 11.1573 217.622 10.848 217.446 10.608C217.27 10.3627 217.054 10.184 216.798 10.072C216.542 9.96 216.251 9.904 215.926 9.904ZM224.479 8.768C225.071 8.768 225.605 8.86667 226.079 9.064C226.559 9.26133 226.965 9.54133 227.295 9.904C227.631 10.2667 227.887 10.7067 228.063 11.224C228.245 11.736 228.335 12.3093 228.335 12.944C228.335 13.584 228.245 14.16 228.063 14.672C227.887 15.184 227.631 15.6213 227.295 15.984C226.965 16.3467 226.559 16.6267 226.079 16.824C225.605 17.016 225.071 17.112 224.479 17.112C223.887 17.112 223.351 17.016 222.871 16.824C222.397 16.6267 221.991 16.3467 221.655 15.984C221.319 15.6213 221.061 15.184 220.879 14.672C220.698 14.16 220.607 13.584 220.607 12.944C220.607 12.3093 220.698 11.736 220.879 11.224C221.061 10.7067 221.319 10.2667 221.655 9.904C221.991 9.54133 222.397 9.26133 222.871 9.064C223.351 8.86667 223.887 8.768 224.479 8.768ZM224.479 16C225.279 16 225.877 15.7333 226.271 15.2C226.666 14.6613 226.863 13.912 226.863 12.952C226.863 11.9867 226.666 11.2347 226.271 10.696C225.877 10.1573 225.279 9.888 224.479 9.888C224.074 9.888 223.722 9.95733 223.423 10.096C223.125 10.2347 222.874 10.4347 222.671 10.696C222.474 10.9573 222.325 11.28 222.223 11.664C222.127 12.0427 222.079 12.472 222.079 12.952C222.079 13.432 222.127 13.8613 222.223 14.24C222.325 14.6187 222.474 14.9387 222.671 15.2C222.874 15.456 223.125 15.6533 223.423 15.792C223.722 15.9307 224.074 16 224.479 16ZM231.502 12.848L228.774 8.896H230.142C230.259 8.896 230.344 8.91467 230.398 8.952C230.451 8.98933 230.499 9.04267 230.542 9.112L232.526 12.152C232.574 12.0027 232.643 11.8533 232.734 11.704L234.478 9.144C234.531 9.06933 234.584 9.01067 234.638 8.968C234.691 8.92 234.758 8.896 234.838 8.896H236.15L233.422 12.768L236.262 17H234.894C234.776 17 234.683 16.9707 234.614 16.912C234.55 16.848 234.496 16.7787 234.454 16.704L232.414 13.528C232.376 13.6827 232.32 13.8213 232.246 13.944L230.358 16.704C230.304 16.7787 230.246 16.848 230.182 16.912C230.123 16.9707 230.04 17 229.934 17H228.662L231.502 12.848ZM244.402 5.408C244.887 5.408 245.34 5.48 245.762 5.624C246.183 5.768 246.546 5.97867 246.85 6.256C247.159 6.528 247.402 6.86133 247.578 7.256C247.754 7.65067 247.842 8.09867 247.842 8.6C247.842 9.02667 247.778 9.42133 247.65 9.784C247.522 10.1467 247.348 10.496 247.13 10.832C246.911 11.1627 246.658 11.4853 246.37 11.8C246.087 12.1093 245.786 12.4267 245.466 12.752L242.45 15.84C242.663 15.7813 242.879 15.736 243.098 15.704C243.316 15.6667 243.527 15.648 243.73 15.648H247.57C247.724 15.648 247.847 15.6933 247.938 15.784C248.028 15.8747 248.074 15.992 248.074 16.136V17H240.426V16.512C240.426 16.4107 240.444 16.3067 240.482 16.2C240.524 16.0933 240.591 15.9947 240.682 15.904L244.354 12.216C244.658 11.9067 244.935 11.6107 245.186 11.328C245.436 11.04 245.65 10.752 245.826 10.464C246.007 10.176 246.146 9.88533 246.242 9.592C246.338 9.29333 246.386 8.976 246.386 8.64C246.386 8.304 246.332 8.01067 246.226 7.76C246.119 7.504 245.972 7.29333 245.786 7.128C245.599 6.96267 245.38 6.84 245.13 6.76C244.879 6.67467 244.61 6.632 244.322 6.632C244.034 6.632 243.767 6.67467 243.522 6.76C243.276 6.84533 243.058 6.96533 242.866 7.12C242.679 7.26933 242.519 7.448 242.386 7.656C242.258 7.864 242.167 8.09333 242.114 8.344C242.071 8.49867 242.007 8.61067 241.922 8.68C241.836 8.74933 241.724 8.784 241.586 8.784C241.559 8.784 241.53 8.784 241.498 8.784C241.471 8.77867 241.439 8.77333 241.402 8.768L240.658 8.64C240.732 8.11733 240.876 7.656 241.09 7.256C241.303 6.85067 241.572 6.512 241.898 6.24C242.228 5.968 242.604 5.76267 243.026 5.624C243.452 5.48 243.911 5.408 244.402 5.408Z" fill="black"/>
<rect x="137.5" y="0.5" width="21" height="21" rx="3.5" fill="white" stroke="#D8D8D8"/>
<path d="M311.472 14.632C311.557 14.632 311.635 14.6667 311.704 14.736L312.312 15.4C311.843 15.944 311.272 16.368 310.6 16.672C309.933 16.976 309.128 17.128 308.184 17.128C307.357 17.128 306.608 16.9867 305.936 16.704C305.264 16.416 304.691 16.016 304.216 15.504C303.741 14.9867 303.373 14.368 303.112 13.648C302.851 12.928 302.72 12.136 302.72 11.272C302.72 10.408 302.859 9.616 303.136 8.896C303.419 8.176 303.813 7.55733 304.32 7.04C304.827 6.52267 305.432 6.12267 306.136 5.84C306.845 5.552 307.627 5.408 308.48 5.408C309.323 5.408 310.048 5.53867 310.656 5.8C311.269 6.06133 311.813 6.416 312.288 6.864L311.784 7.576C311.747 7.62933 311.704 7.67467 311.656 7.712C311.608 7.744 311.539 7.76 311.448 7.76C311.379 7.76 311.304 7.736 311.224 7.688C311.149 7.63467 311.059 7.57067 310.952 7.496C310.845 7.42133 310.72 7.34133 310.576 7.256C310.432 7.17067 310.261 7.09067 310.064 7.016C309.867 6.94133 309.637 6.88 309.376 6.832C309.115 6.77867 308.813 6.752 308.472 6.752C307.859 6.752 307.296 6.85867 306.784 7.072C306.277 7.28 305.84 7.57867 305.472 7.968C305.104 8.35733 304.816 8.832 304.608 9.392C304.405 9.952 304.304 10.5787 304.304 11.272C304.304 11.9867 304.405 12.624 304.608 13.184C304.816 13.744 305.096 14.2187 305.448 14.608C305.805 14.992 306.227 15.2853 306.712 15.488C307.197 15.6907 307.72 15.792 308.28 15.792C308.621 15.792 308.928 15.7733 309.2 15.736C309.472 15.6933 309.723 15.6293 309.952 15.544C310.187 15.4587 310.403 15.352 310.6 15.224C310.803 15.0907 311.005 14.9333 311.208 14.752C311.299 14.672 311.387 14.632 311.472 14.632ZM314.121 17V5.216H315.545V9.984C315.892 9.616 316.276 9.32267 316.697 9.104C317.118 8.88 317.604 8.768 318.153 8.768C318.596 8.768 318.985 8.84267 319.321 8.992C319.662 9.136 319.945 9.344 320.169 9.616C320.398 9.88267 320.572 10.2053 320.689 10.584C320.806 10.9627 320.865 11.3813 320.865 11.84V17H319.441V11.84C319.441 11.2267 319.3 10.752 319.017 10.416C318.74 10.0747 318.313 9.904 317.737 9.904C317.316 9.904 316.921 10.0053 316.553 10.208C316.19 10.4107 315.854 10.6853 315.545 11.032V17H314.121ZM326.22 8.768C326.705 8.768 327.153 8.85067 327.564 9.016C327.974 9.176 328.329 9.41067 328.628 9.72C328.926 10.024 329.158 10.4027 329.324 10.856C329.494 11.304 329.58 11.816 329.58 12.392C329.58 12.616 329.556 12.7653 329.508 12.84C329.46 12.9147 329.369 12.952 329.236 12.952H323.844C323.854 13.464 323.924 13.9093 324.052 14.288C324.18 14.6667 324.356 14.984 324.58 15.24C324.804 15.4907 325.07 15.68 325.38 15.808C325.689 15.9307 326.036 15.992 326.42 15.992C326.777 15.992 327.084 15.952 327.34 15.872C327.601 15.7867 327.825 15.696 328.012 15.6C328.198 15.504 328.353 15.416 328.476 15.336C328.604 15.2507 328.713 15.208 328.804 15.208C328.921 15.208 329.012 15.2533 329.076 15.344L329.476 15.864C329.3 16.0773 329.089 16.264 328.844 16.424C328.598 16.5787 328.334 16.7067 328.052 16.808C327.774 16.9093 327.486 16.984 327.188 17.032C326.889 17.0853 326.593 17.112 326.3 17.112C325.74 17.112 325.222 17.0187 324.748 16.832C324.278 16.64 323.87 16.3627 323.524 16C323.182 15.632 322.916 15.1787 322.724 14.64C322.532 14.1013 322.436 13.4827 322.436 12.784C322.436 12.2187 322.521 11.6907 322.692 11.2C322.868 10.7093 323.118 10.2853 323.444 9.928C323.769 9.56533 324.166 9.28267 324.636 9.08C325.105 8.872 325.633 8.768 326.22 8.768ZM326.252 9.816C325.564 9.816 325.022 10.016 324.628 10.416C324.233 10.8107 323.988 11.36 323.892 12.064H328.3C328.3 11.7333 328.254 11.432 328.164 11.16C328.073 10.8827 327.94 10.6453 327.764 10.448C327.588 10.2453 327.372 10.0907 327.116 9.984C326.865 9.872 326.577 9.816 326.252 9.816ZM336.93 10.336C336.888 10.3947 336.845 10.44 336.802 10.472C336.76 10.504 336.698 10.52 336.618 10.52C336.538 10.52 336.45 10.488 336.354 10.424C336.264 10.3547 336.146 10.28 336.002 10.2C335.858 10.12 335.682 10.048 335.474 9.984C335.272 9.91467 335.021 9.88 334.722 9.88C334.328 9.88 333.978 9.952 333.674 10.096C333.37 10.2347 333.114 10.4373 332.906 10.704C332.704 10.9707 332.549 11.2933 332.442 11.672C332.341 12.0507 332.29 12.4747 332.29 12.944C332.29 13.4347 332.346 13.872 332.458 14.256C332.57 14.6347 332.728 14.9547 332.93 15.216C333.133 15.472 333.378 15.6693 333.666 15.808C333.96 15.9413 334.288 16.008 334.65 16.008C334.997 16.008 335.282 15.968 335.506 15.888C335.73 15.8027 335.917 15.7093 336.066 15.608C336.216 15.5067 336.338 15.416 336.434 15.336C336.53 15.2507 336.626 15.208 336.722 15.208C336.845 15.208 336.936 15.2533 336.994 15.344L337.394 15.864C337.042 16.296 336.602 16.6133 336.074 16.816C335.546 17.0133 334.989 17.112 334.402 17.112C333.896 17.112 333.424 17.0187 332.986 16.832C332.554 16.6453 332.178 16.376 331.858 16.024C331.538 15.6667 331.285 15.2293 331.098 14.712C330.917 14.1947 330.826 13.6053 330.826 12.944C330.826 12.3413 330.909 11.784 331.074 11.272C331.245 10.76 331.49 10.32 331.81 9.952C332.136 9.57867 332.536 9.288 333.01 9.08C333.485 8.872 334.029 8.768 334.642 8.768C335.208 8.768 335.709 8.86133 336.146 9.048C336.584 9.22933 336.97 9.488 337.306 9.824L336.93 10.336ZM340.351 5.216V12.152H340.719C340.826 12.152 340.914 12.1387 340.983 12.112C341.052 12.08 341.13 12.0187 341.215 11.928L343.775 9.184C343.855 9.09867 343.935 9.02933 344.015 8.976C344.095 8.92267 344.202 8.896 344.335 8.896H345.631L342.647 12.072C342.572 12.1627 342.498 12.2427 342.423 12.312C342.354 12.3813 342.274 12.4427 342.183 12.496C342.279 12.56 342.364 12.6347 342.439 12.72C342.519 12.8 342.594 12.8933 342.663 13L345.831 17H344.551C344.434 17 344.332 16.9787 344.247 16.936C344.167 16.888 344.09 16.816 344.015 16.72L341.351 13.4C341.271 13.288 341.191 13.216 341.111 13.184C341.031 13.1467 340.911 13.128 340.751 13.128H340.351V17H338.919V5.216H340.351ZM347.31 17V5.216H348.742V10.064C349.078 9.67467 349.462 9.36267 349.894 9.128C350.331 8.888 350.83 8.768 351.39 8.768C351.859 8.768 352.283 8.856 352.662 9.032C353.04 9.208 353.363 9.472 353.63 9.824C353.896 10.1707 354.102 10.6027 354.246 11.12C354.39 11.632 354.462 12.224 354.462 12.896C354.462 13.4933 354.382 14.0507 354.222 14.568C354.062 15.08 353.83 15.5253 353.526 15.904C353.227 16.2773 352.859 16.5733 352.422 16.792C351.99 17.0053 351.502 17.112 350.958 17.112C350.435 17.112 349.99 17.0107 349.622 16.808C349.259 16.6053 348.942 16.3227 348.67 15.96L348.598 16.696C348.555 16.8987 348.432 17 348.23 17H347.31ZM350.926 9.904C350.462 9.904 350.054 10.0107 349.702 10.224C349.355 10.4373 349.035 10.7387 348.742 11.128V15.048C348.998 15.4 349.28 15.648 349.59 15.792C349.904 15.936 350.254 16.008 350.638 16.008C351.395 16.008 351.976 15.7387 352.382 15.2C352.787 14.6613 352.99 13.8933 352.99 12.896C352.99 12.368 352.942 11.9147 352.846 11.536C352.755 11.1573 352.622 10.848 352.446 10.608C352.27 10.3627 352.054 10.184 351.798 10.072C351.542 9.96 351.251 9.904 350.926 9.904ZM359.479 8.768C360.071 8.768 360.605 8.86667 361.079 9.064C361.559 9.26133 361.965 9.54133 362.295 9.904C362.631 10.2667 362.887 10.7067 363.063 11.224C363.245 11.736 363.335 12.3093 363.335 12.944C363.335 13.584 363.245 14.16 363.063 14.672C362.887 15.184 362.631 15.6213 362.295 15.984C361.965 16.3467 361.559 16.6267 361.079 16.824C360.605 17.016 360.071 17.112 359.479 17.112C358.887 17.112 358.351 17.016 357.871 16.824C357.397 16.6267 356.991 16.3467 356.655 15.984C356.319 15.6213 356.061 15.184 355.879 14.672C355.698 14.16 355.607 13.584 355.607 12.944C355.607 12.3093 355.698 11.736 355.879 11.224C356.061 10.7067 356.319 10.2667 356.655 9.904C356.991 9.54133 357.397 9.26133 357.871 9.064C358.351 8.86667 358.887 8.768 359.479 8.768ZM359.479 16C360.279 16 360.877 15.7333 361.271 15.2C361.666 14.6613 361.863 13.912 361.863 12.952C361.863 11.9867 361.666 11.2347 361.271 10.696C360.877 10.1573 360.279 9.888 359.479 9.888C359.074 9.888 358.722 9.95733 358.423 10.096C358.125 10.2347 357.874 10.4347 357.671 10.696C357.474 10.9573 357.325 11.28 357.223 11.664C357.127 12.0427 357.079 12.472 357.079 12.952C357.079 13.432 357.127 13.8613 357.223 14.24C357.325 14.6187 357.474 14.9387 357.671 15.2C357.874 15.456 358.125 15.6533 358.423 15.792C358.722 15.9307 359.074 16 359.479 16ZM366.502 12.848L363.774 8.896H365.142C365.259 8.896 365.344 8.91467 365.398 8.952C365.451 8.98933 365.499 9.04267 365.542 9.112L367.526 12.152C367.574 12.0027 367.643 11.8533 367.734 11.704L369.478 9.144C369.531 9.06933 369.584 9.01067 369.638 8.968C369.691 8.92 369.758 8.896 369.838 8.896H371.15L368.422 12.768L371.262 17H369.894C369.776 17 369.683 16.9707 369.614 16.912C369.55 16.848 369.496 16.7787 369.454 16.704L367.414 13.528C367.376 13.6827 367.32 13.8213 367.246 13.944L365.358 16.704C365.304 16.7787 365.246 16.848 365.182 16.912C365.123 16.9707 365.04 17 364.934 17H363.662L366.502 12.848ZM379.554 5.408C380.039 5.408 380.487 5.47733 380.898 5.616C381.308 5.75467 381.66 5.952 381.954 6.208C382.252 6.464 382.484 6.77333 382.65 7.136C382.815 7.49867 382.898 7.90133 382.898 8.344C382.898 8.70667 382.85 9.032 382.754 9.32C382.663 9.60267 382.53 9.85333 382.354 10.072C382.183 10.2853 381.975 10.4667 381.73 10.616C381.484 10.7653 381.21 10.8853 380.906 10.976C381.652 11.1733 382.212 11.504 382.586 11.968C382.964 12.432 383.154 13.0133 383.154 13.712C383.154 14.24 383.052 14.7147 382.85 15.136C382.652 15.5573 382.38 15.9173 382.034 16.216C381.687 16.5093 381.282 16.736 380.818 16.896C380.359 17.0507 379.866 17.128 379.338 17.128C378.73 17.128 378.21 17.0533 377.778 16.904C377.346 16.7493 376.98 16.5387 376.682 16.272C376.383 16.0053 376.138 15.6907 375.946 15.328C375.754 14.96 375.591 14.5627 375.458 14.136L376.066 13.88C376.178 13.832 376.29 13.808 376.402 13.808C376.508 13.808 376.602 13.832 376.682 13.88C376.767 13.9227 376.831 13.992 376.874 14.088C376.884 14.1093 376.895 14.1333 376.906 14.16C376.916 14.1813 376.927 14.2053 376.938 14.232C377.012 14.3867 377.103 14.5627 377.21 14.76C377.316 14.952 377.46 15.1333 377.642 15.304C377.823 15.4747 378.047 15.6187 378.314 15.736C378.586 15.8533 378.922 15.912 379.322 15.912C379.722 15.912 380.071 15.848 380.37 15.72C380.674 15.5867 380.924 15.416 381.122 15.208C381.324 15 381.476 14.768 381.578 14.512C381.679 14.256 381.73 14.0027 381.73 13.752C381.73 13.4427 381.687 13.16 381.602 12.904C381.522 12.648 381.372 12.4267 381.154 12.24C380.94 12.0533 380.642 11.9067 380.258 11.8C379.879 11.6933 379.391 11.64 378.794 11.64V10.608C379.279 10.6027 379.692 10.5493 380.034 10.448C380.38 10.3467 380.663 10.208 380.882 10.032C381.1 9.856 381.258 9.64533 381.354 9.4C381.455 9.15467 381.506 8.88267 381.506 8.584C381.506 8.25333 381.452 7.96533 381.346 7.72C381.244 7.47467 381.103 7.272 380.922 7.112C380.74 6.952 380.524 6.832 380.274 6.752C380.028 6.672 379.762 6.632 379.474 6.632C379.186 6.632 378.919 6.67467 378.674 6.76C378.428 6.84533 378.21 6.96533 378.018 7.12C377.831 7.26933 377.674 7.45067 377.546 7.664C377.418 7.872 377.322 8.09867 377.258 8.344C377.215 8.49867 377.151 8.61067 377.066 8.68C376.98 8.74933 376.871 8.784 376.738 8.784C376.711 8.784 376.682 8.784 376.65 8.784C376.623 8.77867 376.591 8.77333 376.554 8.768L375.81 8.64C375.884 8.11733 376.028 7.656 376.242 7.256C376.455 6.85067 376.724 6.512 377.05 6.24C377.38 5.968 377.756 5.76267 378.178 5.624C378.604 5.48 379.063 5.408 379.554 5.408Z" fill="black"/>
<rect x="272.5" y="0.5" width="21" height="21" rx="3.5" fill="white" stroke="#D8D8D8"/>
<path d="M40.472 14.632C40.5573 14.632 40.6347 14.6667 40.704 14.736L41.312 15.4C40.8427 15.944 40.272 16.368 39.6 16.672C38.9333 16.976 38.128 17.128 37.184 17.128C36.3573 17.128 35.608 16.9867 34.936 16.704C34.264 16.416 33.6907 16.016 33.216 15.504C32.7413 14.9867 32.3733 14.368 32.112 13.648C31.8507 12.928 31.72 12.136 31.72 11.272C31.72 10.408 31.8587 9.616 32.136 8.896C32.4187 8.176 32.8133 7.55733 33.32 7.04C33.8267 6.52267 34.432 6.12267 35.136 5.84C35.8453 5.552 36.6267 5.408 37.48 5.408C38.3227 5.408 39.048 5.53867 39.656 5.8C40.2693 6.06133 40.8133 6.416 41.288 6.864L40.784 7.576C40.7467 7.62933 40.704 7.67467 40.656 7.712C40.608 7.744 40.5387 7.76 40.448 7.76C40.3787 7.76 40.304 7.736 40.224 7.688C40.1493 7.63467 40.0587 7.57067 39.952 7.496C39.8453 7.42133 39.72 7.34133 39.576 7.256C39.432 7.17067 39.2613 7.09067 39.064 7.016C38.8667 6.94133 38.6373 6.88 38.376 6.832C38.1147 6.77867 37.8133 6.752 37.472 6.752C36.8587 6.752 36.296 6.85867 35.784 7.072C35.2773 7.28 34.84 7.57867 34.472 7.968C34.104 8.35733 33.816 8.832 33.608 9.392C33.4053 9.952 33.304 10.5787 33.304 11.272C33.304 11.9867 33.4053 12.624 33.608 13.184C33.816 13.744 34.096 14.2187 34.448 14.608C34.8053 14.992 35.2267 15.2853 35.712 15.488C36.1973 15.6907 36.72 15.792 37.28 15.792C37.6213 15.792 37.928 15.7733 38.2 15.736C38.472 15.6933 38.7227 15.6293 38.952 15.544C39.1867 15.4587 39.4027 15.352 39.6 15.224C39.8027 15.0907 40.0053 14.9333 40.208 14.752C40.2987 14.672 40.3867 14.632 40.472 14.632ZM43.1211 17V5.216H44.5451V9.984C44.8918 9.616 45.2758 9.32267 45.6971 9.104C46.1185 8.88 46.6038 8.768 47.1531 8.768C47.5958 8.768 47.9851 8.84267 48.3211 8.992C48.6625 9.136 48.9451 9.344 49.1691 9.616C49.3985 9.88267 49.5718 10.2053 49.6891 10.584C49.8065 10.9627 49.8651 11.3813 49.8651 11.84V17H48.4411V11.84C48.4411 11.2267 48.2998 10.752 48.0171 10.416C47.7398 10.0747 47.3131 9.904 46.7371 9.904C46.3158 9.904 45.9211 10.0053 45.5531 10.208C45.1905 10.4107 44.8545 10.6853 44.5451 11.032V17H43.1211ZM55.2198 8.768C55.7051 8.768 56.1531 8.85067 56.5638 9.016C56.9744 9.176 57.3291 9.41067 57.6278 9.72C57.9264 10.024 58.1584 10.4027 58.3238 10.856C58.4944 11.304 58.5798 11.816 58.5798 12.392C58.5798 12.616 58.5558 12.7653 58.5078 12.84C58.4598 12.9147 58.3691 12.952 58.2358 12.952H52.8438C52.8544 13.464 52.9238 13.9093 53.0518 14.288C53.1798 14.6667 53.3558 14.984 53.5798 15.24C53.8038 15.4907 54.0704 15.68 54.3798 15.808C54.6891 15.9307 55.0358 15.992 55.4198 15.992C55.7771 15.992 56.0838 15.952 56.3398 15.872C56.6011 15.7867 56.8251 15.696 57.0118 15.6C57.1984 15.504 57.3531 15.416 57.4758 15.336C57.6038 15.2507 57.7131 15.208 57.8038 15.208C57.9211 15.208 58.0118 15.2533 58.0758 15.344L58.4758 15.864C58.2998 16.0773 58.0891 16.264 57.8438 16.424C57.5984 16.5787 57.3344 16.7067 57.0518 16.808C56.7744 16.9093 56.4864 16.984 56.1878 17.032C55.8891 17.0853 55.5931 17.112 55.2998 17.112C54.7398 17.112 54.2224 17.0187 53.7478 16.832C53.2784 16.64 52.8704 16.3627 52.5238 16C52.1824 15.632 51.9158 15.1787 51.7238 14.64C51.5318 14.1013 51.4358 13.4827 51.4358 12.784C51.4358 12.2187 51.5211 11.6907 51.6918 11.2C51.8678 10.7093 52.1184 10.2853 52.4438 9.928C52.7691 9.56533 53.1664 9.28267 53.6358 9.08C54.1051 8.872 54.6331 8.768 55.2198 8.768ZM55.2517 9.816C54.5638 9.816 54.0224 10.016 53.6278 10.416C53.2331 10.8107 52.9878 11.36 52.8918 12.064H57.2998C57.2998 11.7333 57.2544 11.432 57.1638 11.16C57.0731 10.8827 56.9398 10.6453 56.7638 10.448C56.5878 10.2453 56.3718 10.0907 56.1158 9.984C55.8651 9.872 55.5771 9.816 55.2517 9.816ZM65.9304 10.336C65.8877 10.3947 65.845 10.44 65.8024 10.472C65.7597 10.504 65.6984 10.52 65.6184 10.52C65.5384 10.52 65.4504 10.488 65.3544 10.424C65.2637 10.3547 65.1464 10.28 65.0024 10.2C64.8584 10.12 64.6824 10.048 64.4744 9.984C64.2717 9.91467 64.021 9.88 63.7224 9.88C63.3277 9.88 62.9784 9.952 62.6744 10.096C62.3704 10.2347 62.1144 10.4373 61.9064 10.704C61.7037 10.9707 61.549 11.2933 61.4424 11.672C61.341 12.0507 61.2904 12.4747 61.2904 12.944C61.2904 13.4347 61.3464 13.872 61.4584 14.256C61.5704 14.6347 61.7277 14.9547 61.9304 15.216C62.133 15.472 62.3784 15.6693 62.6664 15.808C62.9597 15.9413 63.2877 16.008 63.6504 16.008C63.997 16.008 64.2824 15.968 64.5064 15.888C64.7304 15.8027 64.917 15.7093 65.0664 15.608C65.2157 15.5067 65.3384 15.416 65.4344 15.336C65.5304 15.2507 65.6264 15.208 65.7224 15.208C65.845 15.208 65.9357 15.2533 65.9944 15.344L66.3944 15.864C66.0424 16.296 65.6024 16.6133 65.0744 16.816C64.5464 17.0133 63.989 17.112 63.4024 17.112C62.8957 17.112 62.4237 17.0187 61.9864 16.832C61.5544 16.6453 61.1784 16.376 60.8584 16.024C60.5384 15.6667 60.285 15.2293 60.0984 14.712C59.917 14.1947 59.8264 13.6053 59.8264 12.944C59.8264 12.3413 59.909 11.784 60.0744 11.272C60.245 10.76 60.4904 10.32 60.8104 9.952C61.1357 9.57867 61.5357 9.288 62.0104 9.08C62.485 8.872 63.029 8.768 63.6424 8.768C64.2077 8.768 64.709 8.86133 65.1464 9.048C65.5837 9.22933 65.9704 9.488 66.3064 9.824L65.9304 10.336ZM69.3511 5.216V12.152H69.7191C69.8258 12.152 69.9138 12.1387 69.9831 12.112C70.0525 12.08 70.1298 12.0187 70.2151 11.928L72.7751 9.184C72.8551 9.09867 72.9351 9.02933 73.0151 8.976C73.0951 8.92267 73.2018 8.896 73.3351 8.896H74.6311L71.6471 12.072C71.5725 12.1627 71.4978 12.2427 71.4231 12.312C71.3538 12.3813 71.2738 12.4427 71.1831 12.496C71.2791 12.56 71.3645 12.6347 71.4391 12.72C71.5191 12.8 71.5938 12.8933 71.6631 13L74.8311 17H73.5511C73.4338 17 73.3325 16.9787 73.2471 16.936C73.1671 16.888 73.0898 16.816 73.0151 16.72L70.3511 13.4C70.2711 13.288 70.1911 13.216 70.1111 13.184C70.0311 13.1467 69.9111 13.128 69.7511 13.128H69.3511V17H67.9191V5.216H69.3511ZM76.3098 17V5.216H77.7418V10.064C78.0778 9.67467 78.4618 9.36267 78.8938 9.128C79.3311 8.888 79.8298 8.768 80.3898 8.768C80.8591 8.768 81.2831 8.856 81.6618 9.032C82.0404 9.208 82.3631 9.472 82.6298 9.824C82.8964 10.1707 83.1018 10.6027 83.2458 11.12C83.3898 11.632 83.4618 12.224 83.4618 12.896C83.4618 13.4933 83.3818 14.0507 83.2218 14.568C83.0618 15.08 82.8298 15.5253 82.5258 15.904C82.2271 16.2773 81.8591 16.5733 81.4218 16.792C80.9898 17.0053 80.5018 17.112 79.9578 17.112C79.4351 17.112 78.9898 17.0107 78.6218 16.808C78.2591 16.6053 77.9418 16.3227 77.6698 15.96L77.5978 16.696C77.5551 16.8987 77.4324 17 77.2298 17H76.3098ZM79.9258 9.904C79.4618 9.904 79.0538 10.0107 78.7018 10.224C78.3551 10.4373 78.0351 10.7387 77.7418 11.128V15.048C77.9978 15.4 78.2804 15.648 78.5898 15.792C78.9044 15.936 79.2538 16.008 79.6378 16.008C80.3951 16.008 80.9764 15.7387 81.3818 15.2C81.7871 14.6613 81.9898 13.8933 81.9898 12.896C81.9898 12.368 81.9418 11.9147 81.8458 11.536C81.7551 11.1573 81.6218 10.848 81.4458 10.608C81.2698 10.3627 81.0538 10.184 80.7978 10.072C80.5418 9.96 80.2511 9.904 79.9258 9.904ZM88.4793 8.768C89.0713 8.768 89.6046 8.86667 90.0793 9.064C90.5593 9.26133 90.9646 9.54133 91.2953 9.904C91.6313 10.2667 91.8873 10.7067 92.0633 11.224C92.2446 11.736 92.3353 12.3093 92.3353 12.944C92.3353 13.584 92.2446 14.16 92.0633 14.672C91.8873 15.184 91.6313 15.6213 91.2953 15.984C90.9646 16.3467 90.5593 16.6267 90.0793 16.824C89.6046 17.016 89.0713 17.112 88.4793 17.112C87.8873 17.112 87.3513 17.016 86.8713 16.824C86.3966 16.6267 85.9913 16.3467 85.6553 15.984C85.3193 15.6213 85.0606 15.184 84.8793 14.672C84.6979 14.16 84.6073 13.584 84.6073 12.944C84.6073 12.3093 84.6979 11.736 84.8793 11.224C85.0606 10.7067 85.3193 10.2667 85.6553 9.904C85.9913 9.54133 86.3966 9.26133 86.8713 9.064C87.3513 8.86667 87.8873 8.768 88.4793 8.768ZM88.4793 16C89.2793 16 89.8766 15.7333 90.2713 15.2C90.6659 14.6613 90.8633 13.912 90.8633 12.952C90.8633 11.9867 90.6659 11.2347 90.2713 10.696C89.8766 10.1573 89.2793 9.888 88.4793 9.888C88.0739 9.888 87.7219 9.95733 87.4233 10.096C87.1246 10.2347 86.8739 10.4347 86.6713 10.696C86.4739 10.9573 86.3246 11.28 86.2233 11.664C86.1273 12.0427 86.0793 12.472 86.0793 12.952C86.0793 13.432 86.1273 13.8613 86.2233 14.24C86.3246 14.6187 86.4739 14.9387 86.6713 15.2C86.8739 15.456 87.1246 15.6533 87.4233 15.792C87.7219 15.9307 88.0739 16 88.4793 16ZM95.5015 12.848L92.7735 8.896H94.1415C94.2588 8.896 94.3442 8.91467 94.3975 8.952C94.4508 8.98933 94.4988 9.04267 94.5415 9.112L96.5255 12.152C96.5735 12.0027 96.6428 11.8533 96.7335 11.704L98.4775 9.144C98.5308 9.06933 98.5842 9.01067 98.6375 8.968C98.6908 8.92 98.7575 8.896 98.8375 8.896H100.15L97.4215 12.768L100.262 17H98.8935C98.7762 17 98.6828 16.9707 98.6135 16.912C98.5495 16.848 98.4962 16.7787 98.4535 16.704L96.4135 13.528C96.3762 13.6827 96.3202 13.8213 96.2455 13.944L94.3575 16.704C94.3042 16.7787 94.2455 16.848 94.1815 16.912C94.1228 16.9707 94.0402 17 93.9335 17H92.6615L95.5015 12.848ZM105.89 15.912H108.354V8.096C108.354 7.86133 108.362 7.624 108.378 7.384L106.33 9.136C106.276 9.17867 106.223 9.21067 106.17 9.232C106.116 9.248 106.066 9.256 106.018 9.256C105.938 9.256 105.866 9.24 105.802 9.208C105.738 9.17067 105.69 9.128 105.658 9.08L105.21 8.464L108.618 5.512H109.778V15.912H112.034V17H105.89V15.912Z" fill="black"/>
<rect x="1" width="22" height="22" rx="4" fill="#0064D1"/>
<path fill-rule="evenodd" clip-rule="evenodd" d="M18.581 8.44227C19.1397 7.88356 19.1397 6.97773 18.581 6.41903C18.0223 5.86032 17.1164 5.86032 16.5577 6.41903L10.1503 12.8264L7.44227 10.1184C6.88356 9.55965 5.97773 9.55965 5.41903 10.1184C4.86032 10.6771 4.86032 11.5829 5.41903 12.1416L9.11837 15.8409C9.64895 16.3715 10.4926 16.3982 11.0547 15.9211C11.1407 15.8661 11.2222 15.8011 11.2973 15.7259L18.581 8.44227Z" fill="white"/>
<path d="M9.352 40H7.987V35.436H2.583V40H1.218V29.969H2.583V34.442H7.987V29.969H9.352V40ZM14.411 32.797C14.8357 32.797 15.2277 32.8693 15.587 33.014C15.9464 33.154 16.2567 33.3593 16.518 33.63C16.7794 33.896 16.9824 34.2273 17.127 34.624C17.2764 35.016 17.351 35.464 17.351 35.968C17.351 36.164 17.33 36.2947 17.288 36.36C17.246 36.4253 17.1667 36.458 17.05 36.458H12.332C12.3414 36.906 12.402 37.2957 12.514 37.627C12.626 37.9583 12.78 38.236 12.976 38.46C13.172 38.6793 13.4054 38.845 13.676 38.957C13.9467 39.0643 14.25 39.118 14.586 39.118C14.8987 39.118 15.167 39.083 15.391 39.013C15.6197 38.9383 15.8157 38.859 15.979 38.775C16.1424 38.691 16.2777 38.614 16.385 38.544C16.497 38.4693 16.5927 38.432 16.672 38.432C16.7747 38.432 16.854 38.4717 16.91 38.551L17.26 39.006C17.106 39.1927 16.9217 39.356 16.707 39.496C16.4924 39.6313 16.2614 39.7433 16.014 39.832C15.7714 39.9207 15.5194 39.986 15.258 40.028C14.9967 40.0747 14.7377 40.098 14.481 40.098C13.991 40.098 13.5384 40.0163 13.123 39.853C12.7124 39.685 12.3554 39.4423 12.052 39.125C11.7534 38.803 11.52 38.4063 11.352 37.935C11.184 37.4637 11.1 36.9223 11.1 36.311C11.1 35.8163 11.1747 35.3543 11.324 34.925C11.478 34.4957 11.6974 34.1247 11.982 33.812C12.2667 33.4947 12.6144 33.2473 13.025 33.07C13.4357 32.888 13.8977 32.797 14.411 32.797ZM14.439 33.714C13.837 33.714 13.3634 33.889 13.018 34.239C12.6727 34.5843 12.458 35.065 12.374 35.681H16.231C16.231 35.3917 16.1914 35.128 16.112 34.89C16.0327 34.6473 15.916 34.4397 15.762 34.267C15.608 34.0897 15.419 33.9543 15.195 33.861C14.9757 33.763 14.7237 33.714 14.439 33.714ZM20.3318 29.689V40H19.0858V29.689H20.3318ZM22.5279 42.401V32.909H23.2699C23.4472 32.909 23.5592 32.9953 23.6059 33.168L23.7109 34.008C24.0142 33.6393 24.3595 33.343 24.7469 33.119C25.1389 32.895 25.5892 32.783 26.0979 32.783C26.5039 32.783 26.8725 32.8623 27.2039 33.021C27.5352 33.175 27.8175 33.406 28.0509 33.714C28.2842 34.0173 28.4639 34.3953 28.5899 34.848C28.7159 35.3007 28.7789 35.821 28.7789 36.409C28.7789 36.9317 28.7089 37.4193 28.5689 37.872C28.4289 38.32 28.2282 38.7097 27.9669 39.041C27.7055 39.3677 27.3835 39.6267 27.0009 39.818C26.6229 40.0047 26.1959 40.098 25.7199 40.098C25.2812 40.098 24.9055 40.0257 24.5929 39.881C24.2849 39.7363 24.0119 39.531 23.7739 39.265V42.401H22.5279ZM25.6849 33.791C25.2789 33.791 24.9219 33.8843 24.6139 34.071C24.3105 34.2577 24.0305 34.5213 23.7739 34.862V38.292C24.0025 38.6 24.2522 38.817 24.5229 38.943C24.7982 39.069 25.1039 39.132 25.4399 39.132C26.0979 39.132 26.6042 38.8963 26.9589 38.425C27.3135 37.9537 27.4909 37.2817 27.4909 36.409C27.4909 35.947 27.4489 35.5503 27.3649 35.219C27.2855 34.8877 27.1689 34.617 27.0149 34.407C26.8609 34.1923 26.6719 34.036 26.4479 33.938C26.2239 33.84 25.9695 33.791 25.6849 33.791ZM33.0595 32.797C33.4841 32.797 33.8761 32.8693 34.2355 33.014C34.5948 33.154 34.9051 33.3593 35.1665 33.63C35.4278 33.896 35.6308 34.2273 35.7755 34.624C35.9248 35.016 35.9995 35.464 35.9995 35.968C35.9995 36.164 35.9785 36.2947 35.9365 36.36C35.8945 36.4253 35.8151 36.458 35.6985 36.458H30.9805C30.9898 36.906 31.0505 37.2957 31.1625 37.627C31.2745 37.9583 31.4285 38.236 31.6245 38.46C31.8205 38.6793 32.0538 38.845 32.3245 38.957C32.5951 39.0643 32.8985 39.118 33.2345 39.118C33.5471 39.118 33.8155 39.083 34.0395 39.013C34.2681 38.9383 34.4641 38.859 34.6275 38.775C34.7908 38.691 34.9261 38.614 35.0335 38.544C35.1455 38.4693 35.2411 38.432 35.3205 38.432C35.4231 38.432 35.5025 38.4717 35.5585 38.551L35.9085 39.006C35.7545 39.1927 35.5701 39.356 35.3555 39.496C35.1408 39.6313 34.9098 39.7433 34.6625 39.832C34.4198 39.9207 34.1678 39.986 33.9065 40.028C33.6451 40.0747 33.3861 40.098 33.1295 40.098C32.6395 40.098 32.1868 40.0163 31.7715 39.853C31.3608 39.685 31.0038 39.4423 30.7005 39.125C30.4018 38.803 30.1685 38.4063 30.0005 37.935C29.8325 37.4637 29.7485 36.9223 29.7485 36.311C29.7485 35.8163 29.8231 35.3543 29.9725 34.925C30.1265 34.4957 30.3458 34.1247 30.6305 33.812C30.9151 33.4947 31.2628 33.2473 31.6735 33.07C32.0841 32.888 32.5461 32.797 33.0595 32.797ZM33.0875 33.714C32.4855 33.714 32.0118 33.889 31.6665 34.239C31.3211 34.5843 31.1065 35.065 31.0225 35.681H34.8795C34.8795 35.3917 34.8398 35.128 34.7605 34.89C34.6811 34.6473 34.5645 34.4397 34.4105 34.267C34.2565 34.0897 34.0675 33.9543 33.8435 33.861C33.6241 33.763 33.3721 33.714 33.0875 33.714ZM37.5943 40V32.909H38.3083C38.4436 32.909 38.5369 32.9347 38.5883 32.986C38.6396 33.0373 38.6746 33.126 38.6933 33.252L38.7773 34.358C39.0199 33.8633 39.3186 33.4783 39.6733 33.203C40.0326 32.923 40.4526 32.783 40.9333 32.783C41.1293 32.783 41.3066 32.8063 41.4653 32.853C41.6239 32.895 41.7709 32.9557 41.9063 33.035L41.7453 33.966C41.7126 34.0827 41.6403 34.141 41.5283 34.141C41.4629 34.141 41.3626 34.12 41.2273 34.078C41.0919 34.0313 40.9029 34.008 40.6603 34.008C40.2263 34.008 39.8623 34.134 39.5683 34.386C39.2789 34.638 39.0363 35.0043 38.8403 35.485V40H37.5943ZM48.0968 40.112C47.5368 40.112 47.1051 39.9557 46.8018 39.643C46.5031 39.3303 46.3538 38.88 46.3538 38.292V33.952H45.4998C45.4251 33.952 45.3621 33.931 45.3108 33.889C45.2594 33.8423 45.2338 33.7723 45.2338 33.679V33.182L46.3958 33.035L46.6828 30.844C46.6921 30.774 46.7224 30.718 46.7738 30.676C46.8251 30.6293 46.8904 30.606 46.9698 30.606H47.5998V33.049H49.6298V33.952H47.5998V38.208C47.5998 38.5067 47.6721 38.7283 47.8168 38.873C47.9614 39.0177 48.1481 39.09 48.3768 39.09C48.5074 39.09 48.6194 39.0737 48.7128 39.041C48.8108 39.0037 48.8948 38.964 48.9648 38.922C49.0348 38.88 49.0931 38.8427 49.1398 38.81C49.1911 38.7727 49.2354 38.754 49.2728 38.754C49.3381 38.754 49.3964 38.7937 49.4478 38.873L49.8118 39.468C49.5971 39.6687 49.3381 39.8273 49.0348 39.944C48.7314 40.056 48.4188 40.112 48.0968 40.112ZM53.9774 32.797C54.4021 32.797 54.7941 32.8693 55.1534 33.014C55.5128 33.154 55.8231 33.3593 56.0844 33.63C56.3458 33.896 56.5488 34.2273 56.6934 34.624C56.8428 35.016 56.9174 35.464 56.9174 35.968C56.9174 36.164 56.8964 36.2947 56.8544 36.36C56.8124 36.4253 56.7331 36.458 56.6164 36.458H51.8984C51.9078 36.906 51.9684 37.2957 52.0804 37.627C52.1924 37.9583 52.3464 38.236 52.5424 38.46C52.7384 38.6793 52.9718 38.845 53.2424 38.957C53.5131 39.0643 53.8164 39.118 54.1524 39.118C54.4651 39.118 54.7334 39.083 54.9574 39.013C55.1861 38.9383 55.3821 38.859 55.5454 38.775C55.7088 38.691 55.8441 38.614 55.9514 38.544C56.0634 38.4693 56.1591 38.432 56.2384 38.432C56.3411 38.432 56.4204 38.4717 56.4764 38.551L56.8264 39.006C56.6724 39.1927 56.4881 39.356 56.2734 39.496C56.0588 39.6313 55.8278 39.7433 55.5804 39.832C55.3378 39.9207 55.0858 39.986 54.8244 40.028C54.5631 40.0747 54.3041 40.098 54.0474 40.098C53.5574 40.098 53.1048 40.0163 52.6894 39.853C52.2788 39.685 51.9218 39.4423 51.6184 39.125C51.3198 38.803 51.0864 38.4063 50.9184 37.935C50.7504 37.4637 50.6664 36.9223 50.6664 36.311C50.6664 35.8163 50.7411 35.3543 50.8904 34.925C51.0444 34.4957 51.2638 34.1247 51.5484 33.812C51.8331 33.4947 52.1808 33.2473 52.5914 33.07C53.0021 32.888 53.4641 32.797 53.9774 32.797ZM54.0054 33.714C53.4034 33.714 52.9298 33.889 52.5844 34.239C52.2391 34.5843 52.0244 35.065 51.9404 35.681H55.7974C55.7974 35.3917 55.7578 35.128 55.6784 34.89C55.5991 34.6473 55.4824 34.4397 55.3284 34.267C55.1744 34.0897 54.9854 33.9543 54.7614 33.861C54.5421 33.763 54.2901 33.714 54.0054 33.714ZM59.7474 36.367L57.3604 32.909H58.5574C58.6601 32.909 58.7347 32.9253 58.7814 32.958C58.8281 32.9907 58.8701 33.0373 58.9074 33.098L60.6434 35.758C60.6854 35.6273 60.7461 35.4967 60.8254 35.366L62.3514 33.126C62.3981 33.0607 62.4447 33.0093 62.4914 32.972C62.5381 32.93 62.5964 32.909 62.6664 32.909H63.8144L61.4274 36.297L63.9124 40H62.7154C62.6127 40 62.5311 39.9743 62.4704 39.923C62.4144 39.867 62.3677 39.8063 62.3304 39.741L60.5454 36.962C60.5127 37.0973 60.4637 37.2187 60.3984 37.326L58.7464 39.741C58.6997 39.8063 58.6484 39.867 58.5924 39.923C58.5411 39.9743 58.4687 40 58.3754 40H57.2624L59.7474 36.367ZM67.2921 40.112C66.7321 40.112 66.3004 39.9557 65.9971 39.643C65.6984 39.3303 65.5491 38.88 65.5491 38.292V33.952H64.6951C64.6204 33.952 64.5574 33.931 64.5061 33.889C64.4548 33.8423 64.4291 33.7723 64.4291 33.679V33.182L65.5911 33.035L65.8781 30.844C65.8874 30.774 65.9178 30.718 65.9691 30.676C66.0204 30.6293 66.0858 30.606 66.1651 30.606H66.7951V33.049H68.8251V33.952H66.7951V38.208C66.7951 38.5067 66.8674 38.7283 67.0121 38.873C67.1568 39.0177 67.3434 39.09 67.5721 39.09C67.7028 39.09 67.8148 39.0737 67.9081 39.041C68.0061 39.0037 68.0901 38.964 68.1601 38.922C68.2301 38.88 68.2884 38.8427 68.3351 38.81C68.3864 38.7727 68.4308 38.754 68.4681 38.754C68.5334 38.754 68.5918 38.7937 68.6431 38.873L69.0071 39.468C68.7924 39.6687 68.5334 39.8273 68.2301 39.944C67.9268 40.056 67.6141 40.112 67.2921 40.112Z" fill="#6A6A6A"/>
</svg>
