<svg width="800" height="530" viewBox="0 0 800 530" fill="none" xmlns="http://www.w3.org/2000/svg">
<path d="M0 530H800V0H0V530Z" fill="#626262"/>
<path d="M0 20H800V0H0V20Z" fill="#DFDFDF"/>
<rect x="248" y="100" width="303" height="331" fill="white"/>
<rect x="277" y="133" width="247" height="20" fill="#D1D1D1"/>
<rect x="423" y="373" width="106" height="38" rx="19" fill="#0064D1"/>
<rect x="438" y="385" width="79" height="15" fill="white" fill-opacity="0.09"/>
<rect x="311" y="180" width="118" height="10" fill="#D1D1D1"/>
<rect x="311" y="210" width="118" height="10" fill="#D1D1D1"/>
<rect x="311" y="240" width="118" height="10" fill="#D1D1D1"/>
<rect x="278" y="205" width="20" height="20" rx="3" fill="white" stroke="#D8D8D8" stroke-width="2"/>
<rect x="278" y="235" width="20" height="20" rx="3" fill="white" stroke="#D8D8D8" stroke-width="2"/>
<rect x="277" y="174" width="22" height="22" rx="4" fill="#0064D1"/>
<path fill-rule="evenodd" clip-rule="evenodd" d="M294.581 182.442C295.14 181.884 295.14 180.978 294.581 180.419C294.022 179.86 293.116 179.86 292.558 180.419L286.15 186.826L283.442 184.118C282.884 183.56 281.978 183.56 281.419 184.118C280.86 184.677 280.86 185.583 281.419 186.142L285.118 189.841C285.649 190.372 286.493 190.398 287.055 189.921C287.141 189.866 287.222 189.801 287.297 189.726L294.581 182.442Z" fill="white"/>
</svg>
