<svg width="569" height="107" viewBox="0 0 569 107" fill="none" xmlns="http://www.w3.org/2000/svg">
<rect x="64.5" y="35.5" width="455" height="37" rx="3.5" stroke="#979797"/>
<path d="M481.5 35.5H516C517.933 35.5 519.5 37.067 519.5 39V69C519.5 70.933 517.933 72.5 516 72.5H481.5V35.5Z" stroke="#979797"/>
<path d="M66.944 21.696H71.904V23H65.392V11.536H66.944V21.696ZM79.3388 23H78.7068C78.5681 23 78.4561 22.9787 78.3708 22.936C78.2854 22.8933 78.2294 22.8027 78.2028 22.664L78.0428 21.912C77.8294 22.104 77.6214 22.2773 77.4188 22.432C77.2161 22.5813 77.0028 22.7093 76.7788 22.816C76.5548 22.9173 76.3148 22.9947 76.0588 23.048C75.8081 23.1013 75.5281 23.128 75.2188 23.128C74.9041 23.128 74.6081 23.0853 74.3307 23C74.0588 22.9093 73.8214 22.776 73.6188 22.6C73.4161 22.424 73.2534 22.2027 73.1308 21.936C73.0134 21.664 72.9548 21.344 72.9548 20.976C72.9548 20.656 73.0428 20.3493 73.2188 20.056C73.3948 19.7573 73.6774 19.4933 74.0668 19.264C74.4614 19.0347 74.9761 18.848 75.6108 18.704C76.2454 18.5547 77.0214 18.4693 77.9388 18.448V17.816C77.9388 17.1867 77.8028 16.712 77.5308 16.392C77.2641 16.0667 76.8668 15.904 76.3388 15.904C75.9921 15.904 75.6988 15.9493 75.4588 16.04C75.2241 16.1253 75.0188 16.224 74.8428 16.336C74.6721 16.4427 74.5228 16.5413 74.3948 16.632C74.2721 16.7173 74.1494 16.76 74.0268 16.76C73.9308 16.76 73.8454 16.736 73.7708 16.688C73.7014 16.6347 73.6454 16.5707 73.6028 16.496L73.3468 16.04C73.7948 15.608 74.2774 15.2853 74.7948 15.072C75.3121 14.8587 75.8854 14.752 76.5148 14.752C76.9681 14.752 77.3708 14.8267 77.7228 14.976C78.0748 15.1253 78.3708 15.3333 78.6108 15.6C78.8508 15.8667 79.0321 16.1893 79.1548 16.568C79.2774 16.9467 79.3388 17.3627 79.3388 17.816V23ZM75.6428 22.128C75.8934 22.128 76.1228 22.104 76.3307 22.056C76.5388 22.0027 76.7334 21.9307 76.9148 21.84C77.1014 21.744 77.2774 21.6293 77.4428 21.496C77.6134 21.3627 77.7788 21.2107 77.9388 21.04V19.352C77.2828 19.3733 76.7254 19.4267 76.2668 19.512C75.8081 19.592 75.4348 19.6987 75.1468 19.832C74.8588 19.9653 74.6481 20.1227 74.5148 20.304C74.3868 20.4853 74.3228 20.688 74.3228 20.912C74.3228 21.1253 74.3574 21.3093 74.4268 21.464C74.4961 21.6187 74.5894 21.7467 74.7068 21.848C74.8241 21.944 74.9628 22.016 75.1228 22.064C75.2828 22.1067 75.4561 22.128 75.6428 22.128ZM81.5441 23V11.216H82.9761V16.064C83.3121 15.6747 83.6961 15.3627 84.1281 15.128C84.5655 14.888 85.0641 14.768 85.6241 14.768C86.0935 14.768 86.5175 14.856 86.8961 15.032C87.2748 15.208 87.5975 15.472 87.8641 15.824C88.1308 16.1707 88.3361 16.6027 88.4801 17.12C88.6241 17.632 88.6961 18.224 88.6961 18.896C88.6961 19.4933 88.6161 20.0507 88.4561 20.568C88.2961 21.08 88.0641 21.5253 87.7601 21.904C87.4615 22.2773 87.0935 22.5733 86.6561 22.792C86.2241 23.0053 85.7361 23.112 85.1921 23.112C84.6695 23.112 84.2241 23.0107 83.8561 22.808C83.4935 22.6053 83.1761 22.3227 82.9041 21.96L82.8321 22.696C82.7895 22.8987 82.6668 23 82.4641 23H81.5441ZM85.1601 15.904C84.6961 15.904 84.2881 16.0107 83.9361 16.224C83.5895 16.4373 83.2695 16.7387 82.9761 17.128V21.048C83.2321 21.4 83.5148 21.648 83.8241 21.792C84.1388 21.936 84.4881 22.008 84.8721 22.008C85.6295 22.008 86.2108 21.7387 86.6161 21.2C87.0215 20.6613 87.2241 19.8933 87.2241 18.896C87.2241 18.368 87.1761 17.9147 87.0801 17.536C86.9895 17.1573 86.8561 16.848 86.6801 16.608C86.5041 16.3627 86.2881 16.184 86.0321 16.072C85.7761 15.96 85.4855 15.904 85.1601 15.904ZM93.6416 14.768C94.127 14.768 94.575 14.8507 94.9856 15.016C95.3963 15.176 95.751 15.4107 96.0496 15.72C96.3483 16.024 96.5803 16.4027 96.7456 16.856C96.9163 17.304 97.0016 17.816 97.0016 18.392C97.0016 18.616 96.9776 18.7653 96.9296 18.84C96.8816 18.9147 96.791 18.952 96.6576 18.952H91.2656C91.2763 19.464 91.3456 19.9093 91.4736 20.288C91.6016 20.6667 91.7776 20.984 92.0016 21.24C92.2256 21.4907 92.4923 21.68 92.8016 21.808C93.111 21.9307 93.4576 21.992 93.8416 21.992C94.199 21.992 94.5056 21.952 94.7616 21.872C95.023 21.7867 95.247 21.696 95.4336 21.6C95.6203 21.504 95.775 21.416 95.8976 21.336C96.0256 21.2507 96.135 21.208 96.2256 21.208C96.343 21.208 96.4336 21.2533 96.4976 21.344L96.8976 21.864C96.7216 22.0773 96.511 22.264 96.2656 22.424C96.0203 22.5787 95.7563 22.7067 95.4736 22.808C95.1963 22.9093 94.9083 22.984 94.6096 23.032C94.311 23.0853 94.015 23.112 93.7216 23.112C93.1616 23.112 92.6443 23.0187 92.1696 22.832C91.7003 22.64 91.2923 22.3627 90.9456 22C90.6043 21.632 90.3376 21.1787 90.1456 20.64C89.9536 20.1013 89.8576 19.4827 89.8576 18.784C89.8576 18.2187 89.943 17.6907 90.1136 17.2C90.2896 16.7093 90.5403 16.2853 90.8656 15.928C91.191 15.5653 91.5883 15.2827 92.0576 15.08C92.527 14.872 93.055 14.768 93.6416 14.768ZM93.6736 15.816C92.9856 15.816 92.4443 16.016 92.0496 16.416C91.655 16.8107 91.4096 17.36 91.3136 18.064H95.7216C95.7216 17.7333 95.6763 17.432 95.5856 17.16C95.495 16.8827 95.3616 16.6453 95.1856 16.448C95.0096 16.2453 94.7936 16.0907 94.5376 15.984C94.287 15.872 93.999 15.816 93.6736 15.816ZM100.408 11.216V23H98.9843V11.216H100.408Z" fill="black"/>
<path d="M79.096 55.712V60H77.552V48.536H80.936C81.6613 48.536 82.2907 48.6213 82.824 48.792C83.3627 48.9573 83.808 49.1947 84.16 49.504C84.512 49.8133 84.7733 50.1867 84.944 50.624C85.12 51.0613 85.208 51.5493 85.208 52.088C85.208 52.6213 85.1147 53.1093 84.928 53.552C84.7413 53.9947 84.4667 54.376 84.104 54.696C83.7467 55.016 83.3013 55.2667 82.768 55.448C82.2347 55.624 81.624 55.712 80.936 55.712H79.096ZM79.096 54.48H80.936C81.3787 54.48 81.768 54.4213 82.104 54.304C82.4453 54.1867 82.7307 54.024 82.96 53.816C83.1893 53.6027 83.3627 53.3493 83.48 53.056C83.5973 52.7627 83.656 52.44 83.656 52.088C83.656 51.3573 83.4293 50.7867 82.976 50.376C82.528 49.9653 81.848 49.76 80.936 49.76H79.096V54.48ZM88.5333 48.216V60H87.1093V48.216H88.5333ZM96.995 60H96.363C96.2243 60 96.1123 59.9787 96.027 59.936C95.9417 59.8933 95.8857 59.8027 95.859 59.664L95.699 58.912C95.4857 59.104 95.2777 59.2773 95.075 59.432C94.8723 59.5813 94.659 59.7093 94.435 59.816C94.211 59.9173 93.971 59.9947 93.715 60.048C93.4643 60.1013 93.1843 60.128 92.875 60.128C92.5603 60.128 92.2643 60.0853 91.987 60C91.715 59.9093 91.4777 59.776 91.275 59.6C91.0723 59.424 90.9097 59.2027 90.787 58.936C90.6697 58.664 90.611 58.344 90.611 57.976C90.611 57.656 90.699 57.3493 90.875 57.056C91.051 56.7573 91.3337 56.4933 91.723 56.264C92.1177 56.0347 92.6323 55.848 93.267 55.704C93.9017 55.5547 94.6777 55.4693 95.595 55.448V54.816C95.595 54.1867 95.459 53.712 95.187 53.392C94.9203 53.0667 94.523 52.904 93.995 52.904C93.6483 52.904 93.355 52.9493 93.115 53.04C92.8803 53.1253 92.675 53.224 92.499 53.336C92.3283 53.4427 92.179 53.5413 92.051 53.632C91.9283 53.7173 91.8057 53.76 91.683 53.76C91.587 53.76 91.5017 53.736 91.427 53.688C91.3577 53.6347 91.3017 53.5707 91.259 53.496L91.003 53.04C91.451 52.608 91.9337 52.2853 92.451 52.072C92.9683 51.8587 93.5417 51.752 94.171 51.752C94.6243 51.752 95.027 51.8267 95.379 51.976C95.731 52.1253 96.027 52.3333 96.267 52.6C96.507 52.8667 96.6883 53.1893 96.811 53.568C96.9337 53.9467 96.995 54.3627 96.995 54.816V60ZM93.299 59.128C93.5497 59.128 93.779 59.104 93.987 59.056C94.195 59.0027 94.3897 58.9307 94.571 58.84C94.7577 58.744 94.9337 58.6293 95.099 58.496C95.2697 58.3627 95.435 58.2107 95.595 58.04V56.352C94.939 56.3733 94.3817 56.4267 93.923 56.512C93.4643 56.592 93.091 56.6987 92.803 56.832C92.515 56.9653 92.3043 57.1227 92.171 57.304C92.043 57.4853 91.979 57.688 91.979 57.912C91.979 58.1253 92.0137 58.3093 92.083 58.464C92.1523 58.6187 92.2457 58.7467 92.363 58.848C92.4803 58.944 92.619 59.016 92.779 59.064C92.939 59.1067 93.1123 59.128 93.299 59.128ZM104.68 53.336C104.638 53.3947 104.595 53.44 104.552 53.472C104.51 53.504 104.448 53.52 104.368 53.52C104.288 53.52 104.2 53.488 104.104 53.424C104.014 53.3547 103.896 53.28 103.752 53.2C103.608 53.12 103.432 53.048 103.224 52.984C103.022 52.9147 102.771 52.88 102.472 52.88C102.078 52.88 101.728 52.952 101.424 53.096C101.12 53.2347 100.864 53.4373 100.656 53.704C100.454 53.9707 100.299 54.2933 100.192 54.672C100.091 55.0507 100.04 55.4747 100.04 55.944C100.04 56.4347 100.096 56.872 100.208 57.256C100.32 57.6347 100.478 57.9547 100.68 58.216C100.883 58.472 101.128 58.6693 101.416 58.808C101.71 58.9413 102.038 59.008 102.4 59.008C102.747 59.008 103.032 58.968 103.256 58.888C103.48 58.8027 103.667 58.7093 103.816 58.608C103.966 58.5067 104.088 58.416 104.184 58.336C104.28 58.2507 104.376 58.208 104.472 58.208C104.595 58.208 104.686 58.2533 104.744 58.344L105.144 58.864C104.792 59.296 104.352 59.6133 103.824 59.816C103.296 60.0133 102.739 60.112 102.152 60.112C101.646 60.112 101.174 60.0187 100.736 59.832C100.304 59.6453 99.9284 59.376 99.6084 59.024C99.2884 58.6667 99.035 58.2293 98.8484 57.712C98.667 57.1947 98.5764 56.6053 98.5764 55.944C98.5764 55.3413 98.659 54.784 98.8244 54.272C98.995 53.76 99.2404 53.32 99.5604 52.952C99.8857 52.5787 100.286 52.288 100.76 52.08C101.235 51.872 101.779 51.768 102.392 51.768C102.958 51.768 103.459 51.8613 103.896 52.048C104.334 52.2293 104.72 52.488 105.056 52.824L104.68 53.336ZM109.829 51.768C110.314 51.768 110.762 51.8507 111.173 52.016C111.584 52.176 111.938 52.4107 112.237 52.72C112.536 53.024 112.768 53.4027 112.933 53.856C113.104 54.304 113.189 54.816 113.189 55.392C113.189 55.616 113.165 55.7653 113.117 55.84C113.069 55.9147 112.978 55.952 112.845 55.952H107.453C107.464 56.464 107.533 56.9093 107.661 57.288C107.789 57.6667 107.965 57.984 108.189 58.24C108.413 58.4907 108.68 58.68 108.989 58.808C109.298 58.9307 109.645 58.992 110.029 58.992C110.386 58.992 110.693 58.952 110.949 58.872C111.21 58.7867 111.434 58.696 111.621 58.6C111.808 58.504 111.962 58.416 112.085 58.336C112.213 58.2507 112.322 58.208 112.413 58.208C112.53 58.208 112.621 58.2533 112.685 58.344L113.085 58.864C112.909 59.0773 112.698 59.264 112.453 59.424C112.208 59.5787 111.944 59.7067 111.661 59.808C111.384 59.9093 111.096 59.984 110.797 60.032C110.498 60.0853 110.202 60.112 109.909 60.112C109.349 60.112 108.832 60.0187 108.357 59.832C107.888 59.64 107.48 59.3627 107.133 59C106.792 58.632 106.525 58.1787 106.333 57.64C106.141 57.1013 106.045 56.4827 106.045 55.784C106.045 55.2187 106.13 54.6907 106.301 54.2C106.477 53.7093 106.728 53.2853 107.053 52.928C107.378 52.5653 107.776 52.2827 108.245 52.08C108.714 51.872 109.242 51.768 109.829 51.768ZM109.861 52.816C109.173 52.816 108.632 53.016 108.237 53.416C107.842 53.8107 107.597 54.36 107.501 55.064H111.909C111.909 54.7333 111.864 54.432 111.773 54.16C111.682 53.8827 111.549 53.6453 111.373 53.448C111.197 53.2453 110.981 53.0907 110.725 52.984C110.474 52.872 110.186 52.816 109.861 52.816ZM115.012 60V48.216H116.436V52.984C116.782 52.616 117.166 52.3227 117.588 52.104C118.009 51.88 118.494 51.768 119.044 51.768C119.486 51.768 119.876 51.8427 120.212 51.992C120.553 52.136 120.836 52.344 121.06 52.616C121.289 52.8827 121.462 53.2053 121.58 53.584C121.697 53.9627 121.756 54.3813 121.756 54.84V60H120.332V54.84C120.332 54.2267 120.19 53.752 119.908 53.416C119.63 53.0747 119.204 52.904 118.628 52.904C118.206 52.904 117.812 53.0053 117.444 53.208C117.081 53.4107 116.745 53.6853 116.436 54.032V60H115.012ZM127.182 51.768C127.774 51.768 128.308 51.8667 128.782 52.064C129.262 52.2613 129.668 52.5413 129.998 52.904C130.334 53.2667 130.59 53.7067 130.766 54.224C130.948 54.736 131.038 55.3093 131.038 55.944C131.038 56.584 130.948 57.16 130.766 57.672C130.59 58.184 130.334 58.6213 129.998 58.984C129.668 59.3467 129.262 59.6267 128.782 59.824C128.308 60.016 127.774 60.112 127.182 60.112C126.59 60.112 126.054 60.016 125.574 59.824C125.1 59.6267 124.694 59.3467 124.358 58.984C124.022 58.6213 123.764 58.184 123.582 57.672C123.401 57.16 123.31 56.584 123.31 55.944C123.31 55.3093 123.401 54.736 123.582 54.224C123.764 53.7067 124.022 53.2667 124.358 52.904C124.694 52.5413 125.1 52.2613 125.574 52.064C126.054 51.8667 126.59 51.768 127.182 51.768ZM127.182 59C127.982 59 128.58 58.7333 128.974 58.2C129.369 57.6613 129.566 56.912 129.566 55.952C129.566 54.9867 129.369 54.2347 128.974 53.696C128.58 53.1573 127.982 52.888 127.182 52.888C126.777 52.888 126.425 52.9573 126.126 53.096C125.828 53.2347 125.577 53.4347 125.374 53.696C125.177 53.9573 125.028 54.28 124.926 54.664C124.83 55.0427 124.782 55.472 124.782 55.952C124.782 56.432 124.83 56.8613 124.926 57.24C125.028 57.6187 125.177 57.9387 125.374 58.2C125.577 58.456 125.828 58.6533 126.126 58.792C126.425 58.9307 126.777 59 127.182 59ZM134.377 48.216V60H132.953V48.216H134.377ZM142.591 60C142.388 60 142.26 59.9013 142.207 59.704L142.079 58.72C141.732 59.1413 141.335 59.48 140.887 59.736C140.444 59.9867 139.935 60.112 139.359 60.112C138.895 60.112 138.473 60.024 138.095 59.848C137.716 59.6667 137.393 59.4027 137.127 59.056C136.86 58.7093 136.655 58.2773 136.511 57.76C136.367 57.2427 136.295 56.648 136.295 55.976C136.295 55.3787 136.375 54.824 136.535 54.312C136.695 53.7947 136.924 53.3467 137.223 52.968C137.527 52.5893 137.895 52.2933 138.327 52.08C138.759 51.8613 139.249 51.752 139.799 51.752C140.295 51.752 140.719 51.8373 141.071 52.008C141.423 52.1733 141.737 52.408 142.015 52.712V48.216H143.439V60H142.591ZM139.831 58.96C140.295 58.96 140.7 58.8533 141.047 58.64C141.399 58.4267 141.721 58.1253 142.015 57.736V53.816C141.753 53.464 141.465 53.2187 141.151 53.08C140.841 52.936 140.497 52.864 140.119 52.864C139.361 52.864 138.78 53.1333 138.375 53.672C137.969 54.2107 137.767 54.9787 137.767 55.976C137.767 56.504 137.812 56.9573 137.903 57.336C137.993 57.7093 138.127 58.0187 138.303 58.264C138.479 58.504 138.695 58.68 138.951 58.792C139.207 58.904 139.5 58.96 139.831 58.96ZM149.032 51.768C149.518 51.768 149.966 51.8507 150.376 52.016C150.787 52.176 151.142 52.4107 151.44 52.72C151.739 53.024 151.971 53.4027 152.136 53.856C152.307 54.304 152.392 54.816 152.392 55.392C152.392 55.616 152.368 55.7653 152.32 55.84C152.272 55.9147 152.182 55.952 152.048 55.952H146.656C146.667 56.464 146.736 56.9093 146.864 57.288C146.992 57.6667 147.168 57.984 147.392 58.24C147.616 58.4907 147.883 58.68 148.192 58.808C148.502 58.9307 148.848 58.992 149.232 58.992C149.59 58.992 149.896 58.952 150.152 58.872C150.414 58.7867 150.638 58.696 150.824 58.6C151.011 58.504 151.166 58.416 151.288 58.336C151.416 58.2507 151.526 58.208 151.616 58.208C151.734 58.208 151.824 58.2533 151.888 58.344L152.288 58.864C152.112 59.0773 151.902 59.264 151.656 59.424C151.411 59.5787 151.147 59.7067 150.864 59.808C150.587 59.9093 150.299 59.984 150 60.032C149.702 60.0853 149.406 60.112 149.112 60.112C148.552 60.112 148.035 60.0187 147.56 59.832C147.091 59.64 146.683 59.3627 146.336 59C145.995 58.632 145.728 58.1787 145.536 57.64C145.344 57.1013 145.248 56.4827 145.248 55.784C145.248 55.2187 145.334 54.6907 145.504 54.2C145.68 53.7093 145.931 53.2853 146.256 52.928C146.582 52.5653 146.979 52.2827 147.448 52.08C147.918 51.872 148.446 51.768 149.032 51.768ZM149.064 52.816C148.376 52.816 147.835 53.016 147.44 53.416C147.046 53.8107 146.8 54.36 146.704 55.064H151.112C151.112 54.7333 151.067 54.432 150.976 54.16C150.886 53.8827 150.752 53.6453 150.576 53.448C150.4 53.2453 150.184 53.0907 149.928 52.984C149.678 52.872 149.39 52.816 149.064 52.816ZM154.215 60V51.896H155.031C155.186 51.896 155.292 51.9253 155.351 51.984C155.41 52.0427 155.45 52.144 155.471 52.288L155.567 53.552C155.844 52.9867 156.186 52.5467 156.591 52.232C157.002 51.912 157.482 51.752 158.031 51.752C158.255 51.752 158.458 51.7787 158.639 51.832C158.82 51.88 158.988 51.9493 159.143 52.04L158.959 53.104C158.922 53.2373 158.839 53.304 158.711 53.304C158.636 53.304 158.522 53.28 158.367 53.232C158.212 53.1787 157.996 53.152 157.719 53.152C157.223 53.152 156.807 53.296 156.471 53.584C156.14 53.872 155.863 54.2907 155.639 54.84V60H154.215Z" fill="#BBBBBB"/>
<path d="M73.352 94H71.987V89.436H66.583V94H65.218V83.969H66.583V88.442H71.987V83.969H73.352V94ZM78.411 86.797C78.8357 86.797 79.2277 86.8693 79.587 87.014C79.9464 87.154 80.2567 87.3593 80.518 87.63C80.7794 87.896 80.9824 88.2273 81.127 88.624C81.2764 89.016 81.351 89.464 81.351 89.968C81.351 90.164 81.33 90.2947 81.288 90.36C81.246 90.4253 81.1667 90.458 81.05 90.458H76.332C76.3414 90.906 76.402 91.2957 76.514 91.627C76.626 91.9583 76.78 92.236 76.976 92.46C77.172 92.6793 77.4054 92.845 77.676 92.957C77.9467 93.0643 78.25 93.118 78.586 93.118C78.8987 93.118 79.167 93.083 79.391 93.013C79.6197 92.9383 79.8157 92.859 79.979 92.775C80.1424 92.691 80.2777 92.614 80.385 92.544C80.497 92.4693 80.5927 92.432 80.672 92.432C80.7747 92.432 80.854 92.4717 80.91 92.551L81.26 93.006C81.106 93.1927 80.9217 93.356 80.707 93.496C80.4924 93.6313 80.2614 93.7433 80.014 93.832C79.7714 93.9207 79.5194 93.986 79.258 94.028C78.9967 94.0747 78.7377 94.098 78.481 94.098C77.991 94.098 77.5384 94.0163 77.123 93.853C76.7124 93.685 76.3554 93.4423 76.052 93.125C75.7534 92.803 75.52 92.4063 75.352 91.935C75.184 91.4637 75.1 90.9223 75.1 90.311C75.1 89.8163 75.1747 89.3543 75.324 88.925C75.478 88.4957 75.6974 88.1247 75.982 87.812C76.2667 87.4947 76.6144 87.2473 77.025 87.07C77.4357 86.888 77.8977 86.797 78.411 86.797ZM78.439 87.714C77.837 87.714 77.3634 87.889 77.018 88.239C76.6727 88.5843 76.458 89.065 76.374 89.681H80.231C80.231 89.3917 80.1914 89.128 80.112 88.89C80.0327 88.6473 79.916 88.4397 79.762 88.267C79.608 88.0897 79.419 87.9543 79.195 87.861C78.9757 87.763 78.7237 87.714 78.439 87.714ZM84.3318 83.689V94H83.0858V83.689H84.3318ZM86.5279 96.401V86.909H87.2699C87.4472 86.909 87.5592 86.9953 87.6059 87.168L87.7109 88.008C88.0142 87.6393 88.3595 87.343 88.7469 87.119C89.1389 86.895 89.5892 86.783 90.0979 86.783C90.5039 86.783 90.8725 86.8623 91.2039 87.021C91.5352 87.175 91.8175 87.406 92.0509 87.714C92.2842 88.0173 92.4639 88.3953 92.5899 88.848C92.7159 89.3007 92.7789 89.821 92.7789 90.409C92.7789 90.9317 92.7089 91.4193 92.5689 91.872C92.4289 92.32 92.2282 92.7097 91.9669 93.041C91.7055 93.3677 91.3835 93.6267 91.0009 93.818C90.6229 94.0047 90.1959 94.098 89.7199 94.098C89.2812 94.098 88.9055 94.0257 88.5929 93.881C88.2849 93.7363 88.0119 93.531 87.7739 93.265V96.401H86.5279ZM89.6849 87.791C89.2789 87.791 88.9219 87.8843 88.6139 88.071C88.3105 88.2577 88.0305 88.5213 87.7739 88.862V92.292C88.0025 92.6 88.2522 92.817 88.5229 92.943C88.7982 93.069 89.1039 93.132 89.4399 93.132C90.0979 93.132 90.6042 92.8963 90.9589 92.425C91.3135 91.9537 91.4909 91.2817 91.4909 90.409C91.4909 89.947 91.4489 89.5503 91.3649 89.219C91.2855 88.8877 91.1689 88.617 91.0149 88.407C90.8609 88.1923 90.6719 88.036 90.4479 87.938C90.2239 87.84 89.9695 87.791 89.6849 87.791ZM97.0595 86.797C97.4841 86.797 97.8761 86.8693 98.2355 87.014C98.5948 87.154 98.9051 87.3593 99.1665 87.63C99.4278 87.896 99.6308 88.2273 99.7755 88.624C99.9248 89.016 99.9995 89.464 99.9995 89.968C99.9995 90.164 99.9785 90.2947 99.9365 90.36C99.8945 90.4253 99.8151 90.458 99.6985 90.458H94.9805C94.9898 90.906 95.0505 91.2957 95.1625 91.627C95.2745 91.9583 95.4285 92.236 95.6245 92.46C95.8205 92.6793 96.0538 92.845 96.3245 92.957C96.5951 93.0643 96.8985 93.118 97.2345 93.118C97.5471 93.118 97.8155 93.083 98.0395 93.013C98.2681 92.9383 98.4641 92.859 98.6275 92.775C98.7908 92.691 98.9261 92.614 99.0335 92.544C99.1455 92.4693 99.2411 92.432 99.3205 92.432C99.4231 92.432 99.5025 92.4717 99.5585 92.551L99.9085 93.006C99.7545 93.1927 99.5701 93.356 99.3555 93.496C99.1408 93.6313 98.9098 93.7433 98.6625 93.832C98.4198 93.9207 98.1678 93.986 97.9065 94.028C97.6451 94.0747 97.3861 94.098 97.1295 94.098C96.6395 94.098 96.1868 94.0163 95.7715 93.853C95.3608 93.685 95.0038 93.4423 94.7005 93.125C94.4018 92.803 94.1685 92.4063 94.0005 91.935C93.8325 91.4637 93.7485 90.9223 93.7485 90.311C93.7485 89.8163 93.8231 89.3543 93.9725 88.925C94.1265 88.4957 94.3458 88.1247 94.6305 87.812C94.9151 87.4947 95.2628 87.2473 95.6735 87.07C96.0841 86.888 96.5461 86.797 97.0595 86.797ZM97.0875 87.714C96.4855 87.714 96.0118 87.889 95.6665 88.239C95.3211 88.5843 95.1065 89.065 95.0225 89.681H98.8795C98.8795 89.3917 98.8398 89.128 98.7605 88.89C98.6811 88.6473 98.5645 88.4397 98.4105 88.267C98.2565 88.0897 98.0675 87.9543 97.8435 87.861C97.6241 87.763 97.3721 87.714 97.0875 87.714ZM101.594 94V86.909H102.308C102.444 86.909 102.537 86.9347 102.588 86.986C102.64 87.0373 102.675 87.126 102.693 87.252L102.777 88.358C103.02 87.8633 103.319 87.4783 103.673 87.203C104.033 86.923 104.453 86.783 104.933 86.783C105.129 86.783 105.307 86.8063 105.465 86.853C105.624 86.895 105.771 86.9557 105.906 87.035L105.745 87.966C105.713 88.0827 105.64 88.141 105.528 88.141C105.463 88.141 105.363 88.12 105.227 88.078C105.092 88.0313 104.903 88.008 104.66 88.008C104.226 88.008 103.862 88.134 103.568 88.386C103.279 88.638 103.036 89.0043 102.84 89.485V94H101.594ZM112.097 94.112C111.537 94.112 111.105 93.9557 110.802 93.643C110.503 93.3303 110.354 92.88 110.354 92.292V87.952H109.5C109.425 87.952 109.362 87.931 109.311 87.889C109.259 87.8423 109.234 87.7723 109.234 87.679V87.182L110.396 87.035L110.683 84.844C110.692 84.774 110.722 84.718 110.774 84.676C110.825 84.6293 110.89 84.606 110.97 84.606H111.6V87.049H113.63V87.952H111.6V92.208C111.6 92.5067 111.672 92.7283 111.817 92.873C111.961 93.0177 112.148 93.09 112.377 93.09C112.507 93.09 112.619 93.0737 112.713 93.041C112.811 93.0037 112.895 92.964 112.965 92.922C113.035 92.88 113.093 92.8427 113.14 92.81C113.191 92.7727 113.235 92.754 113.273 92.754C113.338 92.754 113.396 92.7937 113.448 92.873L113.812 93.468C113.597 93.6687 113.338 93.8273 113.035 93.944C112.731 94.056 112.419 94.112 112.097 94.112ZM117.977 86.797C118.402 86.797 118.794 86.8693 119.153 87.014C119.513 87.154 119.823 87.3593 120.084 87.63C120.346 87.896 120.549 88.2273 120.693 88.624C120.843 89.016 120.917 89.464 120.917 89.968C120.917 90.164 120.896 90.2947 120.854 90.36C120.812 90.4253 120.733 90.458 120.616 90.458H115.898C115.908 90.906 115.968 91.2957 116.08 91.627C116.192 91.9583 116.346 92.236 116.542 92.46C116.738 92.6793 116.972 92.845 117.242 92.957C117.513 93.0643 117.816 93.118 118.152 93.118C118.465 93.118 118.733 93.083 118.957 93.013C119.186 92.9383 119.382 92.859 119.545 92.775C119.709 92.691 119.844 92.614 119.951 92.544C120.063 92.4693 120.159 92.432 120.238 92.432C120.341 92.432 120.42 92.4717 120.476 92.551L120.826 93.006C120.672 93.1927 120.488 93.356 120.273 93.496C120.059 93.6313 119.828 93.7433 119.58 93.832C119.338 93.9207 119.086 93.986 118.824 94.028C118.563 94.0747 118.304 94.098 118.047 94.098C117.557 94.098 117.105 94.0163 116.689 93.853C116.279 93.685 115.922 93.4423 115.618 93.125C115.32 92.803 115.086 92.4063 114.918 91.935C114.75 91.4637 114.666 90.9223 114.666 90.311C114.666 89.8163 114.741 89.3543 114.89 88.925C115.044 88.4957 115.264 88.1247 115.548 87.812C115.833 87.4947 116.181 87.2473 116.591 87.07C117.002 86.888 117.464 86.797 117.977 86.797ZM118.005 87.714C117.403 87.714 116.93 87.889 116.584 88.239C116.239 88.5843 116.024 89.065 115.94 89.681H119.797C119.797 89.3917 119.758 89.128 119.678 88.89C119.599 88.6473 119.482 88.4397 119.328 88.267C119.174 88.0897 118.985 87.9543 118.761 87.861C118.542 87.763 118.29 87.714 118.005 87.714ZM123.747 90.367L121.36 86.909H122.557C122.66 86.909 122.735 86.9253 122.781 86.958C122.828 86.9907 122.87 87.0373 122.907 87.098L124.643 89.758C124.685 89.6273 124.746 89.4967 124.825 89.366L126.351 87.126C126.398 87.0607 126.445 87.0093 126.491 86.972C126.538 86.93 126.596 86.909 126.666 86.909H127.814L125.427 90.297L127.912 94H126.715C126.613 94 126.531 93.9743 126.47 93.923C126.414 93.867 126.368 93.8063 126.33 93.741L124.545 90.962C124.513 91.0973 124.464 91.2187 124.398 91.326L122.746 93.741C122.7 93.8063 122.648 93.867 122.592 93.923C122.541 93.9743 122.469 94 122.375 94H121.262L123.747 90.367ZM131.292 94.112C130.732 94.112 130.3 93.9557 129.997 93.643C129.698 93.3303 129.549 92.88 129.549 92.292V87.952H128.695C128.62 87.952 128.557 87.931 128.506 87.889C128.455 87.8423 128.429 87.7723 128.429 87.679V87.182L129.591 87.035L129.878 84.844C129.887 84.774 129.918 84.718 129.969 84.676C130.02 84.6293 130.086 84.606 130.165 84.606H130.795V87.049H132.825V87.952H130.795V92.208C130.795 92.5067 130.867 92.7283 131.012 92.873C131.157 93.0177 131.343 93.09 131.572 93.09C131.703 93.09 131.815 93.0737 131.908 93.041C132.006 93.0037 132.09 92.964 132.16 92.922C132.23 92.88 132.288 92.8427 132.335 92.81C132.386 92.7727 132.431 92.754 132.468 92.754C132.533 92.754 132.592 92.7937 132.643 92.873L133.007 93.468C132.792 93.6687 132.533 93.8273 132.23 93.944C131.927 94.056 131.614 94.112 131.292 94.112Z" fill="#6A6A6A"/>
<circle cx="496.5" cy="54.5" r="1.5" fill="black"/>
<circle cx="500.5" cy="54.5" r="1.5" fill="black"/>
<circle cx="504.5" cy="54.5" r="1.5" fill="black"/>
<circle cx="553" cy="54" r="16" fill="#FF7A00"/>
<line x1="543" y1="54.5" x2="513" y2="54.5" stroke="#FF7A00"/>
<path d="M552.816 48.304C553.349 48.304 553.837 48.384 554.28 48.544C554.723 48.6987 555.101 48.92 555.416 49.208C555.731 49.496 555.976 49.8427 556.152 50.248C556.328 50.6533 556.416 51.104 556.416 51.6C556.416 52.0267 556.352 52.4213 556.224 52.784C556.101 53.1467 555.933 53.4933 555.72 53.824C555.512 54.1547 555.267 54.4747 554.984 54.784C554.701 55.0933 554.405 55.408 554.096 55.728L551.488 58.392C551.744 58.3173 551.995 58.2613 552.24 58.224C552.485 58.1813 552.72 58.16 552.944 58.16H555.912C556.125 58.16 556.293 58.2213 556.416 58.344C556.544 58.4613 556.608 58.6187 556.608 58.816V60H548.672V59.344C548.672 59.2107 548.699 59.072 548.752 58.928C548.811 58.784 548.901 58.6507 549.024 58.528L552.536 55.008C552.829 54.7093 553.091 54.424 553.32 54.152C553.555 53.88 553.749 53.6107 553.904 53.344C554.064 53.0773 554.184 52.808 554.264 52.536C554.349 52.2587 554.392 51.968 554.392 51.664C554.392 51.3867 554.352 51.144 554.272 50.936C554.192 50.7227 554.077 50.544 553.928 50.4C553.779 50.256 553.6 50.1493 553.392 50.08C553.189 50.0053 552.96 49.968 552.704 49.968C552.229 49.968 551.837 50.088 551.528 50.328C551.224 50.568 551.011 50.8907 550.888 51.296C550.829 51.4987 550.741 51.6453 550.624 51.736C550.507 51.8213 550.357 51.864 550.176 51.864C550.096 51.864 550.008 51.856 549.912 51.84L548.872 51.656C548.952 51.1013 549.107 50.616 549.336 50.2C549.565 49.7787 549.851 49.4293 550.192 49.152C550.539 48.8693 550.933 48.6587 551.376 48.52C551.824 48.376 552.304 48.304 552.816 48.304Z" fill="white"/>
<circle r="2.5" transform="matrix(-1 0 0 1 512.5 54.5)" fill="#FF7A00"/>
<circle cx="16" cy="16" r="16" fill="#FF7A00"/>
<line x1="25" y1="16.5" x2="55" y2="16.5" stroke="#FF7A00"/>
<path d="M13.152 20.52H15.496V13.776C15.496 13.5147 15.504 13.24 15.52 12.952L13.856 14.344C13.7867 14.4027 13.7147 14.4427 13.64 14.464C13.5707 14.4853 13.5013 14.496 13.432 14.496C13.3253 14.496 13.2267 14.4747 13.136 14.432C13.0507 14.384 12.9867 14.3307 12.944 14.272L12.32 13.416L15.848 10.416H17.472V20.52H19.552V22H13.152V20.52Z" fill="white"/>
<circle r="2.5" transform="matrix(1 0 0 -1 55.5 16.5)" fill="#FF7A00"/>
<circle cx="16" cy="54" r="16" fill="#FF7A00"/>
<line x1="25" y1="54.5" x2="55" y2="54.5" stroke="#FF7A00"/>
<path d="M16 48.304C16.5333 48.304 17.0133 48.3813 17.44 48.536C17.872 48.6853 18.24 48.896 18.544 49.168C18.848 49.4347 19.08 49.7493 19.24 50.112C19.4053 50.4747 19.488 50.8667 19.488 51.288C19.488 51.656 19.4453 51.9813 19.36 52.264C19.28 52.5413 19.16 52.784 19 52.992C18.8453 53.2 18.6533 53.376 18.424 53.52C18.2 53.664 17.944 53.784 17.656 53.88C18.3493 54.0987 18.8667 54.432 19.208 54.88C19.5493 55.328 19.72 55.8907 19.72 56.568C19.72 57.144 19.6133 57.6533 19.4 58.096C19.1867 58.5387 18.8987 58.912 18.536 59.216C18.1733 59.5147 17.752 59.7413 17.272 59.896C16.7973 60.0507 16.2933 60.128 15.76 60.128C15.1787 60.128 14.672 60.0613 14.24 59.928C13.808 59.7947 13.432 59.5973 13.112 59.336C12.792 59.0747 12.52 58.7547 12.296 58.376C12.072 57.9973 11.88 57.56 11.72 57.064L12.592 56.704C12.7413 56.64 12.8933 56.608 13.048 56.608C13.1867 56.608 13.3093 56.6373 13.416 56.696C13.528 56.7547 13.6133 56.84 13.672 56.952C13.768 57.1387 13.872 57.3227 13.984 57.504C14.1013 57.6853 14.24 57.848 14.4 57.992C14.56 58.1307 14.7467 58.2453 14.96 58.336C15.1787 58.4213 15.4373 58.464 15.736 58.464C16.072 58.464 16.3653 58.4107 16.616 58.304C16.8667 58.192 17.0747 58.048 17.24 57.872C17.4107 57.696 17.536 57.5013 17.616 57.288C17.7013 57.0693 17.744 56.8507 17.744 56.632C17.744 56.3547 17.7147 56.104 17.656 55.88C17.5973 55.6507 17.4747 55.456 17.288 55.296C17.1013 55.136 16.832 55.0107 16.48 54.92C16.1333 54.8293 15.6667 54.784 15.08 54.784V53.376C15.5653 53.3707 15.968 53.3253 16.288 53.24C16.608 53.1547 16.8613 53.0373 17.048 52.888C17.24 52.7333 17.3733 52.5493 17.448 52.336C17.5227 52.1227 17.56 51.888 17.56 51.632C17.56 51.0827 17.4107 50.6693 17.112 50.392C16.8133 50.1093 16.4053 49.968 15.888 49.968C15.4187 49.968 15.0293 50.0933 14.72 50.344C14.4107 50.5893 14.1947 50.9067 14.072 51.296C14.008 51.4987 13.92 51.6453 13.808 51.736C13.696 51.8213 13.5493 51.864 13.368 51.864C13.2827 51.864 13.192 51.856 13.096 51.84L12.056 51.656C12.136 51.1013 12.2907 50.616 12.52 50.2C12.7493 49.7787 13.0347 49.4293 13.376 49.152C13.7227 48.8693 14.1173 48.6587 14.56 48.52C15.008 48.376 15.488 48.304 16 48.304Z" fill="white"/>
<circle r="2.5" transform="matrix(1 0 0 -1 55.5 54.5)" fill="#FF7A00"/>
<circle cx="16" cy="91" r="16" fill="#FF7A00"/>
<line x1="25" y1="91.5" x2="55" y2="91.5" stroke="#FF7A00"/>
<path d="M18.536 92.64H19.992V93.784C19.992 93.8907 19.9573 93.984 19.888 94.064C19.8187 94.1387 19.7173 94.176 19.584 94.176H18.536V97H16.808V94.176H11.928C11.7947 94.176 11.6773 94.136 11.576 94.056C11.4747 93.9707 11.4107 93.8667 11.384 93.744L11.184 92.744L16.664 85.424H18.536V92.64ZM16.808 88.856C16.808 88.6853 16.8133 88.5013 16.824 88.304C16.8347 88.1067 16.8533 87.9013 16.88 87.688L13.288 92.64H16.808V88.856Z" fill="white"/>
<circle r="2.5" transform="matrix(1 0 0 -1 55.5 91.5)" fill="#FF7A00"/>
</svg>
