<svg width="224" height="192" viewBox="0 0 224 192" fill="none" xmlns="http://www.w3.org/2000/svg">
<rect width="224" height="32" rx="4" fill="#F2FAFF"/>
<path fill-rule="evenodd" clip-rule="evenodd" d="M11.7071 12.7071C12.0976 12.3166 12.7308 12.3166 13.1213 12.7071L17.7071 17.2929C18.0976 17.6834 18.0976 18.3166 17.7071 18.7071C17.3166 19.0976 16.6834 19.0976 16.2929 18.7071L11.7071 14.1213C11.3166 13.7308 11.3166 13.0976 11.7071 12.7071Z" fill="black"/>
<path fill-rule="evenodd" clip-rule="evenodd" d="M22.2929 12.7071C21.9024 12.3166 21.2692 12.3166 20.8787 12.7071L16.2929 17.2929C15.9024 17.6834 15.9024 18.3166 16.2929 18.7071C16.6834 19.0976 17.3166 19.0976 17.7071 18.7071L22.2929 14.1213C22.6834 13.7308 22.6834 13.0976 22.2929 12.7071Z" fill="black"/>
<path fill-rule="evenodd" clip-rule="evenodd" d="M14 181.293C13.6095 180.902 13.6095 180.269 14 179.879L18.5858 175.293C18.9763 174.902 19.6095 174.902 20 175.293C20.3905 175.683 20.3905 176.317 20 176.707L15.4142 181.293C15.0237 181.683 14.3905 181.683 14 181.293Z" fill="black"/>
<path fill-rule="evenodd" clip-rule="evenodd" d="M14 170.707C13.6095 171.098 13.6095 171.731 14 172.121L18.5858 176.707C18.9763 177.098 19.6095 177.098 20 176.707C20.3905 176.317 20.3905 175.683 20 175.293L15.4142 170.707C15.0237 170.317 14.3905 170.317 14 170.707Z" fill="black"/>
<path fill-rule="evenodd" clip-rule="evenodd" d="M33.7071 85.2929C33.3166 84.9024 33.3166 84.2692 33.7071 83.8787L38.2929 79.2929C38.6834 78.9024 39.3166 78.9024 39.7071 79.2929C40.0976 79.6834 40.0976 80.3166 39.7071 80.7071L35.1213 85.2929C34.7308 85.6834 34.0976 85.6834 33.7071 85.2929Z" fill="black"/>
<path fill-rule="evenodd" clip-rule="evenodd" d="M33.7071 74.7071C33.3166 75.0976 33.3166 75.7308 33.7071 76.1213L38.2929 80.7071C38.6834 81.0976 39.3166 81.0976 39.7071 80.7071C40.0976 80.3166 40.0976 79.6834 39.7071 79.2929L35.1213 74.7071C34.7308 74.3166 34.0976 74.3166 33.7071 74.7071Z" fill="black"/>
<path d="M57.096 17.712V22H55.552V10.536H58.936C59.6613 10.536 60.2907 10.6213 60.824 10.792C61.3627 10.9573 61.808 11.1947 62.16 11.504C62.512 11.8133 62.7733 12.1867 62.944 12.624C63.12 13.0613 63.208 13.5493 63.208 14.088C63.208 14.6213 63.1147 15.1093 62.928 15.552C62.7413 15.9947 62.4667 16.376 62.104 16.696C61.7467 17.016 61.3013 17.2667 60.768 17.448C60.2347 17.624 59.624 17.712 58.936 17.712H57.096ZM57.096 16.48H58.936C59.3787 16.48 59.768 16.4213 60.104 16.304C60.4453 16.1867 60.7307 16.024 60.96 15.816C61.1893 15.6027 61.3627 15.3493 61.48 15.056C61.5973 14.7627 61.656 14.44 61.656 14.088C61.656 13.3573 61.4293 12.7867 60.976 12.376C60.528 11.9653 59.848 11.76 58.936 11.76H57.096V16.48ZM70.495 22H69.863C69.7243 22 69.6123 21.9787 69.527 21.936C69.4417 21.8933 69.3857 21.8027 69.359 21.664L69.199 20.912C68.9857 21.104 68.7777 21.2773 68.575 21.432C68.3723 21.5813 68.159 21.7093 67.935 21.816C67.711 21.9173 67.471 21.9947 67.215 22.048C66.9643 22.1013 66.6843 22.128 66.375 22.128C66.0603 22.128 65.7643 22.0853 65.487 22C65.215 21.9093 64.9777 21.776 64.775 21.6C64.5723 21.424 64.4097 21.2027 64.287 20.936C64.1697 20.664 64.111 20.344 64.111 19.976C64.111 19.656 64.199 19.3493 64.375 19.056C64.551 18.7573 64.8337 18.4933 65.223 18.264C65.6177 18.0347 66.1323 17.848 66.767 17.704C67.4017 17.5547 68.1777 17.4693 69.095 17.448V16.816C69.095 16.1867 68.959 15.712 68.687 15.392C68.4203 15.0667 68.023 14.904 67.495 14.904C67.1483 14.904 66.855 14.9493 66.615 15.04C66.3803 15.1253 66.175 15.224 65.999 15.336C65.8283 15.4427 65.679 15.5413 65.551 15.632C65.4283 15.7173 65.3057 15.76 65.183 15.76C65.087 15.76 65.0017 15.736 64.927 15.688C64.8577 15.6347 64.8017 15.5707 64.759 15.496L64.503 15.04C64.951 14.608 65.4337 14.2853 65.951 14.072C66.4683 13.8587 67.0417 13.752 67.671 13.752C68.1243 13.752 68.527 13.8267 68.879 13.976C69.231 14.1253 69.527 14.3333 69.767 14.6C70.007 14.8667 70.1883 15.1893 70.311 15.568C70.4337 15.9467 70.495 16.3627 70.495 16.816V22ZM66.799 21.128C67.0497 21.128 67.279 21.104 67.487 21.056C67.695 21.0027 67.8897 20.9307 68.071 20.84C68.2577 20.744 68.4337 20.6293 68.599 20.496C68.7697 20.3627 68.935 20.2107 69.095 20.04V18.352C68.439 18.3733 67.8817 18.4267 67.423 18.512C66.9643 18.592 66.591 18.6987 66.303 18.832C66.015 18.9653 65.8043 19.1227 65.671 19.304C65.543 19.4853 65.479 19.688 65.479 19.912C65.479 20.1253 65.5137 20.3093 65.583 20.464C65.6523 20.6187 65.7457 20.7467 65.863 20.848C65.9803 20.944 66.119 21.016 66.279 21.064C66.439 21.1067 66.6123 21.128 66.799 21.128ZM72.6524 22V13.896H73.4684C73.623 13.896 73.7297 13.9253 73.7884 13.984C73.847 14.0427 73.887 14.144 73.9084 14.288L74.0044 15.552C74.2817 14.9867 74.623 14.5467 75.0284 14.232C75.439 13.912 75.919 13.752 76.4684 13.752C76.6924 13.752 76.895 13.7787 77.0764 13.832C77.2577 13.88 77.4257 13.9493 77.5804 14.04L77.3964 15.104C77.359 15.2373 77.2764 15.304 77.1484 15.304C77.0737 15.304 76.959 15.28 76.8044 15.232C76.6497 15.1787 76.4337 15.152 76.1564 15.152C75.6604 15.152 75.2444 15.296 74.9084 15.584C74.5777 15.872 74.3004 16.2907 74.0764 16.84V22H72.6524ZM82.3135 13.768C82.7988 13.768 83.2468 13.8507 83.6575 14.016C84.0682 14.176 84.4228 14.4107 84.7215 14.72C85.0202 15.024 85.2522 15.4027 85.4175 15.856C85.5882 16.304 85.6735 16.816 85.6735 17.392C85.6735 17.616 85.6495 17.7653 85.6015 17.84C85.5535 17.9147 85.4628 17.952 85.3295 17.952H79.9375C79.9482 18.464 80.0175 18.9093 80.1455 19.288C80.2735 19.6667 80.4495 19.984 80.6735 20.24C80.8975 20.4907 81.1642 20.68 81.4735 20.808C81.7828 20.9307 82.1295 20.992 82.5135 20.992C82.8708 20.992 83.1775 20.952 83.4335 20.872C83.6948 20.7867 83.9188 20.696 84.1055 20.6C84.2922 20.504 84.4468 20.416 84.5695 20.336C84.6975 20.2507 84.8068 20.208 84.8975 20.208C85.0148 20.208 85.1055 20.2533 85.1695 20.344L85.5695 20.864C85.3935 21.0773 85.1828 21.264 84.9375 21.424C84.6922 21.5787 84.4282 21.7067 84.1455 21.808C83.8682 21.9093 83.5802 21.984 83.2815 22.032C82.9828 22.0853 82.6868 22.112 82.3935 22.112C81.8335 22.112 81.3162 22.0187 80.8415 21.832C80.3722 21.64 79.9642 21.3627 79.6175 21C79.2762 20.632 79.0095 20.1787 78.8175 19.64C78.6255 19.1013 78.5295 18.4827 78.5295 17.784C78.5295 17.2187 78.6148 16.6907 78.7855 16.2C78.9615 15.7093 79.2122 15.2853 79.5375 14.928C79.8628 14.5653 80.2602 14.2827 80.7295 14.08C81.1988 13.872 81.7268 13.768 82.3135 13.768ZM82.3455 14.816C81.6575 14.816 81.1162 15.016 80.7215 15.416C80.3268 15.8107 80.0815 16.36 79.9855 17.064H84.3935C84.3935 16.7333 84.3482 16.432 84.2575 16.16C84.1668 15.8827 84.0335 15.6453 83.8575 15.448C83.6815 15.2453 83.4655 15.0907 83.2095 14.984C82.9588 14.872 82.6708 14.816 82.3455 14.816ZM87.4961 22V13.896H88.3441C88.5468 13.896 88.6748 13.9947 88.7281 14.192L88.8401 15.072C89.1921 14.6827 89.5841 14.368 90.0161 14.128C90.4535 13.888 90.9575 13.768 91.5281 13.768C91.9708 13.768 92.3601 13.8427 92.6961 13.992C93.0375 14.136 93.3201 14.344 93.5441 14.616C93.7735 14.8827 93.9468 15.2053 94.0641 15.584C94.1815 15.9627 94.2401 16.3813 94.2401 16.84V22H92.8161V16.84C92.8161 16.2267 92.6748 15.752 92.3921 15.416C92.1148 15.0747 91.6881 14.904 91.1121 14.904C90.6908 14.904 90.2961 15.0053 89.9281 15.208C89.5655 15.4107 89.2295 15.6853 88.9201 16.032V22H87.4961ZM98.8428 22.128C98.2028 22.128 97.7094 21.9493 97.3628 21.592C97.0214 21.2347 96.8508 20.72 96.8508 20.048V15.088H95.8748C95.7894 15.088 95.7174 15.064 95.6588 15.016C95.6001 14.9627 95.5708 14.8827 95.5708 14.776V14.208L96.8988 14.04L97.2268 11.536C97.2374 11.456 97.2721 11.392 97.3307 11.344C97.3894 11.2907 97.4641 11.264 97.5548 11.264H98.2748V14.056H100.595V15.088H98.2748V19.952C98.2748 20.2933 98.3574 20.5467 98.5228 20.712C98.6881 20.8773 98.9014 20.96 99.1628 20.96C99.3121 20.96 99.4401 20.9413 99.5468 20.904C99.6588 20.8613 99.7548 20.816 99.8348 20.768C99.9148 20.72 99.9814 20.6773 100.035 20.64C100.093 20.5973 100.144 20.576 100.187 20.576C100.261 20.576 100.328 20.6213 100.387 20.712L100.803 21.392C100.557 21.6213 100.261 21.8027 99.9148 21.936C99.5681 22.064 99.2108 22.128 98.8428 22.128ZM106.577 20.912H109.041V13.096C109.041 12.8613 109.049 12.624 109.065 12.384L107.017 14.136C106.964 14.1787 106.911 14.2107 106.857 14.232C106.804 14.248 106.753 14.256 106.705 14.256C106.625 14.256 106.553 14.24 106.489 14.208C106.425 14.1707 106.377 14.128 106.345 14.08L105.897 13.464L109.305 10.512H110.465V20.912H112.721V22H106.577V20.912Z" fill="black"/>
<path d="M57.096 177.712V182H55.552V170.536H58.936C59.6613 170.536 60.2907 170.621 60.824 170.792C61.3627 170.957 61.808 171.195 62.16 171.504C62.512 171.813 62.7733 172.187 62.944 172.624C63.12 173.061 63.208 173.549 63.208 174.088C63.208 174.621 63.1147 175.109 62.928 175.552C62.7413 175.995 62.4667 176.376 62.104 176.696C61.7467 177.016 61.3013 177.267 60.768 177.448C60.2347 177.624 59.624 177.712 58.936 177.712H57.096ZM57.096 176.48H58.936C59.3787 176.48 59.768 176.421 60.104 176.304C60.4453 176.187 60.7307 176.024 60.96 175.816C61.1893 175.603 61.3627 175.349 61.48 175.056C61.5973 174.763 61.656 174.44 61.656 174.088C61.656 173.357 61.4293 172.787 60.976 172.376C60.528 171.965 59.848 171.76 58.936 171.76H57.096V176.48ZM70.495 182H69.863C69.7243 182 69.6123 181.979 69.527 181.936C69.4417 181.893 69.3857 181.803 69.359 181.664L69.199 180.912C68.9857 181.104 68.7777 181.277 68.575 181.432C68.3723 181.581 68.159 181.709 67.935 181.816C67.711 181.917 67.471 181.995 67.215 182.048C66.9643 182.101 66.6843 182.128 66.375 182.128C66.0603 182.128 65.7643 182.085 65.487 182C65.215 181.909 64.9777 181.776 64.775 181.6C64.5723 181.424 64.4097 181.203 64.287 180.936C64.1697 180.664 64.111 180.344 64.111 179.976C64.111 179.656 64.199 179.349 64.375 179.056C64.551 178.757 64.8337 178.493 65.223 178.264C65.6177 178.035 66.1323 177.848 66.767 177.704C67.4017 177.555 68.1777 177.469 69.095 177.448V176.816C69.095 176.187 68.959 175.712 68.687 175.392C68.4203 175.067 68.023 174.904 67.495 174.904C67.1483 174.904 66.855 174.949 66.615 175.04C66.3803 175.125 66.175 175.224 65.999 175.336C65.8283 175.443 65.679 175.541 65.551 175.632C65.4283 175.717 65.3057 175.76 65.183 175.76C65.087 175.76 65.0017 175.736 64.927 175.688C64.8577 175.635 64.8017 175.571 64.759 175.496L64.503 175.04C64.951 174.608 65.4337 174.285 65.951 174.072C66.4683 173.859 67.0417 173.752 67.671 173.752C68.1243 173.752 68.527 173.827 68.879 173.976C69.231 174.125 69.527 174.333 69.767 174.6C70.007 174.867 70.1883 175.189 70.311 175.568C70.4337 175.947 70.495 176.363 70.495 176.816V182ZM66.799 181.128C67.0497 181.128 67.279 181.104 67.487 181.056C67.695 181.003 67.8897 180.931 68.071 180.84C68.2577 180.744 68.4337 180.629 68.599 180.496C68.7697 180.363 68.935 180.211 69.095 180.04V178.352C68.439 178.373 67.8817 178.427 67.423 178.512C66.9643 178.592 66.591 178.699 66.303 178.832C66.015 178.965 65.8043 179.123 65.671 179.304C65.543 179.485 65.479 179.688 65.479 179.912C65.479 180.125 65.5137 180.309 65.583 180.464C65.6523 180.619 65.7457 180.747 65.863 180.848C65.9803 180.944 66.119 181.016 66.279 181.064C66.439 181.107 66.6123 181.128 66.799 181.128ZM72.6524 182V173.896H73.4684C73.623 173.896 73.7297 173.925 73.7884 173.984C73.847 174.043 73.887 174.144 73.9084 174.288L74.0044 175.552C74.2817 174.987 74.623 174.547 75.0284 174.232C75.439 173.912 75.919 173.752 76.4684 173.752C76.6924 173.752 76.895 173.779 77.0764 173.832C77.2577 173.88 77.4257 173.949 77.5804 174.04L77.3964 175.104C77.359 175.237 77.2764 175.304 77.1484 175.304C77.0737 175.304 76.959 175.28 76.8044 175.232C76.6497 175.179 76.4337 175.152 76.1564 175.152C75.6604 175.152 75.2444 175.296 74.9084 175.584C74.5777 175.872 74.3004 176.291 74.0764 176.84V182H72.6524ZM82.3135 173.768C82.7988 173.768 83.2468 173.851 83.6575 174.016C84.0682 174.176 84.4228 174.411 84.7215 174.72C85.0202 175.024 85.2522 175.403 85.4175 175.856C85.5882 176.304 85.6735 176.816 85.6735 177.392C85.6735 177.616 85.6495 177.765 85.6015 177.84C85.5535 177.915 85.4628 177.952 85.3295 177.952H79.9375C79.9482 178.464 80.0175 178.909 80.1455 179.288C80.2735 179.667 80.4495 179.984 80.6735 180.24C80.8975 180.491 81.1642 180.68 81.4735 180.808C81.7828 180.931 82.1295 180.992 82.5135 180.992C82.8708 180.992 83.1775 180.952 83.4335 180.872C83.6948 180.787 83.9188 180.696 84.1055 180.6C84.2922 180.504 84.4468 180.416 84.5695 180.336C84.6975 180.251 84.8068 180.208 84.8975 180.208C85.0148 180.208 85.1055 180.253 85.1695 180.344L85.5695 180.864C85.3935 181.077 85.1828 181.264 84.9375 181.424C84.6922 181.579 84.4282 181.707 84.1455 181.808C83.8682 181.909 83.5802 181.984 83.2815 182.032C82.9828 182.085 82.6868 182.112 82.3935 182.112C81.8335 182.112 81.3162 182.019 80.8415 181.832C80.3722 181.64 79.9642 181.363 79.6175 181C79.2762 180.632 79.0095 180.179 78.8175 179.64C78.6255 179.101 78.5295 178.483 78.5295 177.784C78.5295 177.219 78.6148 176.691 78.7855 176.2C78.9615 175.709 79.2122 175.285 79.5375 174.928C79.8628 174.565 80.2602 174.283 80.7295 174.08C81.1988 173.872 81.7268 173.768 82.3135 173.768ZM82.3455 174.816C81.6575 174.816 81.1162 175.016 80.7215 175.416C80.3268 175.811 80.0815 176.36 79.9855 177.064H84.3935C84.3935 176.733 84.3482 176.432 84.2575 176.16C84.1668 175.883 84.0335 175.645 83.8575 175.448C83.6815 175.245 83.4655 175.091 83.2095 174.984C82.9588 174.872 82.6708 174.816 82.3455 174.816ZM87.4961 182V173.896H88.3441C88.5468 173.896 88.6748 173.995 88.7281 174.192L88.8401 175.072C89.1921 174.683 89.5841 174.368 90.0161 174.128C90.4535 173.888 90.9575 173.768 91.5281 173.768C91.9708 173.768 92.3601 173.843 92.6961 173.992C93.0375 174.136 93.3201 174.344 93.5441 174.616C93.7735 174.883 93.9468 175.205 94.0641 175.584C94.1815 175.963 94.2401 176.381 94.2401 176.84V182H92.8161V176.84C92.8161 176.227 92.6748 175.752 92.3921 175.416C92.1148 175.075 91.6881 174.904 91.1121 174.904C90.6908 174.904 90.2961 175.005 89.9281 175.208C89.5655 175.411 89.2295 175.685 88.9201 176.032V182H87.4961ZM98.8428 182.128C98.2028 182.128 97.7094 181.949 97.3628 181.592C97.0214 181.235 96.8508 180.72 96.8508 180.048V175.088H95.8748C95.7894 175.088 95.7174 175.064 95.6588 175.016C95.6001 174.963 95.5708 174.883 95.5708 174.776V174.208L96.8988 174.04L97.2268 171.536C97.2374 171.456 97.2721 171.392 97.3307 171.344C97.3894 171.291 97.4641 171.264 97.5548 171.264H98.2748V174.056H100.595V175.088H98.2748V179.952C98.2748 180.293 98.3574 180.547 98.5228 180.712C98.6881 180.877 98.9014 180.96 99.1628 180.96C99.3121 180.96 99.4401 180.941 99.5468 180.904C99.6588 180.861 99.7548 180.816 99.8348 180.768C99.9148 180.72 99.9814 180.677 100.035 180.64C100.093 180.597 100.144 180.576 100.187 180.576C100.261 180.576 100.328 180.621 100.387 180.712L100.803 181.392C100.557 181.621 100.261 181.803 99.9148 181.936C99.5681 182.064 99.2108 182.128 98.8428 182.128ZM109.089 170.408C109.575 170.408 110.028 170.48 110.449 170.624C110.871 170.768 111.233 170.979 111.537 171.256C111.847 171.528 112.089 171.861 112.265 172.256C112.441 172.651 112.529 173.099 112.529 173.6C112.529 174.027 112.465 174.421 112.337 174.784C112.209 175.147 112.036 175.496 111.817 175.832C111.599 176.163 111.345 176.485 111.057 176.8C110.775 177.109 110.473 177.427 110.153 177.752L107.137 180.84C107.351 180.781 107.567 180.736 107.785 180.704C108.004 180.667 108.215 180.648 108.417 180.648H112.257C112.412 180.648 112.535 180.693 112.625 180.784C112.716 180.875 112.761 180.992 112.761 181.136V182H105.113V181.512C105.113 181.411 105.132 181.307 105.169 181.2C105.212 181.093 105.279 180.995 105.369 180.904L109.041 177.216C109.345 176.907 109.623 176.611 109.873 176.328C110.124 176.04 110.337 175.752 110.513 175.464C110.695 175.176 110.833 174.885 110.929 174.592C111.025 174.293 111.073 173.976 111.073 173.64C111.073 173.304 111.02 173.011 110.913 172.76C110.807 172.504 110.66 172.293 110.473 172.128C110.287 171.963 110.068 171.84 109.817 171.76C109.567 171.675 109.297 171.632 109.009 171.632C108.721 171.632 108.455 171.675 108.209 171.76C107.964 171.845 107.745 171.965 107.553 172.12C107.367 172.269 107.207 172.448 107.073 172.656C106.945 172.864 106.855 173.093 106.801 173.344C106.759 173.499 106.695 173.611 106.609 173.68C106.524 173.749 106.412 173.784 106.273 173.784C106.247 173.784 106.217 173.784 106.185 173.784C106.159 173.779 106.127 173.773 106.089 173.768L105.345 173.64C105.42 173.117 105.564 172.656 105.777 172.256C105.991 171.851 106.26 171.512 106.585 171.24C106.916 170.968 107.292 170.763 107.713 170.624C108.14 170.48 108.599 170.408 109.089 170.408Z" fill="black"/>
<path d="M83.472 51.632C83.5573 51.632 83.6347 51.6667 83.704 51.736L84.312 52.4C83.8427 52.944 83.272 53.368 82.6 53.672C81.9333 53.976 81.128 54.128 80.184 54.128C79.3573 54.128 78.608 53.9867 77.936 53.704C77.264 53.416 76.6907 53.016 76.216 52.504C75.7413 51.9867 75.3733 51.368 75.112 50.648C74.8507 49.928 74.72 49.136 74.72 48.272C74.72 47.408 74.8587 46.616 75.136 45.896C75.4187 45.176 75.8133 44.5573 76.32 44.04C76.8267 43.5227 77.432 43.1227 78.136 42.84C78.8453 42.552 79.6267 42.408 80.48 42.408C81.3227 42.408 82.048 42.5387 82.656 42.8C83.2693 43.0613 83.8133 43.416 84.288 43.864L83.784 44.576C83.7467 44.6293 83.704 44.6747 83.656 44.712C83.608 44.744 83.5387 44.76 83.448 44.76C83.3787 44.76 83.304 44.736 83.224 44.688C83.1493 44.6347 83.0587 44.5707 82.952 44.496C82.8453 44.4213 82.72 44.3413 82.576 44.256C82.432 44.1707 82.2613 44.0907 82.064 44.016C81.8667 43.9413 81.6373 43.88 81.376 43.832C81.1147 43.7787 80.8133 43.752 80.472 43.752C79.8587 43.752 79.296 43.8587 78.784 44.072C78.2773 44.28 77.84 44.5787 77.472 44.968C77.104 45.3573 76.816 45.832 76.608 46.392C76.4053 46.952 76.304 47.5787 76.304 48.272C76.304 48.9867 76.4053 49.624 76.608 50.184C76.816 50.744 77.096 51.2187 77.448 51.608C77.8053 51.992 78.2267 52.2853 78.712 52.488C79.1973 52.6907 79.72 52.792 80.28 52.792C80.6213 52.792 80.928 52.7733 81.2 52.736C81.472 52.6933 81.7227 52.6293 81.952 52.544C82.1867 52.4587 82.4027 52.352 82.6 52.224C82.8027 52.0907 83.0053 51.9333 83.208 51.752C83.2987 51.672 83.3867 51.632 83.472 51.632ZM86.1211 54V42.216H87.5451V46.984C87.8918 46.616 88.2758 46.3227 88.6971 46.104C89.1185 45.88 89.6038 45.768 90.1531 45.768C90.5958 45.768 90.9851 45.8427 91.3211 45.992C91.6625 46.136 91.9451 46.344 92.1691 46.616C92.3985 46.8827 92.5718 47.2053 92.6891 47.584C92.8065 47.9627 92.8651 48.3813 92.8651 48.84V54H91.4411V48.84C91.4411 48.2267 91.2998 47.752 91.0171 47.416C90.7398 47.0747 90.3131 46.904 89.7371 46.904C89.3158 46.904 88.9211 47.0053 88.5531 47.208C88.1905 47.4107 87.8545 47.6853 87.5451 48.032V54H86.1211ZM96.5958 45.896V54H95.1718V45.896H96.5958ZM96.9158 43.352C96.9158 43.4907 96.8864 43.6213 96.8278 43.744C96.7744 43.8613 96.6998 43.968 96.6038 44.064C96.5131 44.1547 96.4064 44.2267 96.2838 44.28C96.1611 44.3333 96.0304 44.36 95.8918 44.36C95.7531 44.36 95.6224 44.3333 95.4998 44.28C95.3824 44.2267 95.2758 44.1547 95.1798 44.064C95.0891 43.968 95.0171 43.8613 94.9638 43.744C94.9104 43.6213 94.8838 43.4907 94.8838 43.352C94.8838 43.2133 94.9104 43.0827 94.9638 42.96C95.0171 42.832 95.0891 42.7227 95.1798 42.632C95.2758 42.536 95.3824 42.4613 95.4998 42.408C95.6224 42.3547 95.7531 42.328 95.8918 42.328C96.0304 42.328 96.1611 42.3547 96.2838 42.408C96.4064 42.4613 96.5131 42.536 96.6038 42.632C96.6998 42.7227 96.7744 42.832 96.8278 42.96C96.8864 43.0827 96.9158 43.2133 96.9158 43.352ZM100.69 42.216V54H99.2655V42.216H100.69ZM108.903 54C108.701 54 108.573 53.9013 108.519 53.704L108.391 52.72C108.045 53.1413 107.647 53.48 107.199 53.736C106.757 53.9867 106.247 54.112 105.671 54.112C105.207 54.112 104.786 54.024 104.407 53.848C104.029 53.6667 103.706 53.4027 103.439 53.056C103.173 52.7093 102.967 52.2773 102.823 51.76C102.679 51.2427 102.607 50.648 102.607 49.976C102.607 49.3787 102.687 48.824 102.847 48.312C103.007 47.7947 103.237 47.3467 103.535 46.968C103.839 46.5893 104.207 46.2933 104.639 46.08C105.071 45.8613 105.562 45.752 106.111 45.752C106.607 45.752 107.031 45.8373 107.383 46.008C107.735 46.1733 108.05 46.408 108.327 46.712V42.216H109.751V54H108.903ZM106.143 52.96C106.607 52.96 107.013 52.8533 107.359 52.64C107.711 52.4267 108.034 52.1253 108.327 51.736V47.816C108.066 47.464 107.778 47.2187 107.463 47.08C107.154 46.936 106.81 46.864 106.431 46.864C105.674 46.864 105.093 47.1333 104.687 47.672C104.282 48.2107 104.079 48.9787 104.079 49.976C104.079 50.504 104.125 50.9573 104.215 51.336C104.306 51.7093 104.439 52.0187 104.615 52.264C104.791 52.504 105.007 52.68 105.263 52.792C105.519 52.904 105.813 52.96 106.143 52.96ZM116.359 52.912H118.823V45.096C118.823 44.8613 118.831 44.624 118.847 44.384L116.799 46.136C116.745 46.1787 116.692 46.2107 116.639 46.232C116.585 46.248 116.535 46.256 116.487 46.256C116.407 46.256 116.335 46.24 116.271 46.208C116.207 46.1707 116.159 46.128 116.127 46.08L115.679 45.464L119.087 42.512H120.247V52.912H122.503V54H116.359V52.912ZM83.472 83.632C83.5573 83.632 83.6347 83.6667 83.704 83.736L84.312 84.4C83.8427 84.944 83.272 85.368 82.6 85.672C81.9333 85.976 81.128 86.128 80.184 86.128C79.3573 86.128 78.608 85.9867 77.936 85.704C77.264 85.416 76.6907 85.016 76.216 84.504C75.7413 83.9867 75.3733 83.368 75.112 82.648C74.8507 81.928 74.72 81.136 74.72 80.272C74.72 79.408 74.8587 78.616 75.136 77.896C75.4187 77.176 75.8133 76.5573 76.32 76.04C76.8267 75.5227 77.432 75.1227 78.136 74.84C78.8453 74.552 79.6267 74.408 80.48 74.408C81.3227 74.408 82.048 74.5387 82.656 74.8C83.2693 75.0613 83.8133 75.416 84.288 75.864L83.784 76.576C83.7467 76.6293 83.704 76.6747 83.656 76.712C83.608 76.744 83.5387 76.76 83.448 76.76C83.3787 76.76 83.304 76.736 83.224 76.688C83.1493 76.6347 83.0587 76.5707 82.952 76.496C82.8453 76.4213 82.72 76.3413 82.576 76.256C82.432 76.1707 82.2613 76.0907 82.064 76.016C81.8667 75.9413 81.6373 75.88 81.376 75.832C81.1147 75.7787 80.8133 75.752 80.472 75.752C79.8587 75.752 79.296 75.8587 78.784 76.072C78.2773 76.28 77.84 76.5787 77.472 76.968C77.104 77.3573 76.816 77.832 76.608 78.392C76.4053 78.952 76.304 79.5787 76.304 80.272C76.304 80.9867 76.4053 81.624 76.608 82.184C76.816 82.744 77.096 83.2187 77.448 83.608C77.8053 83.992 78.2267 84.2853 78.712 84.488C79.1973 84.6907 79.72 84.792 80.28 84.792C80.6213 84.792 80.928 84.7733 81.2 84.736C81.472 84.6933 81.7227 84.6293 81.952 84.544C82.1867 84.4587 82.4027 84.352 82.6 84.224C82.8027 84.0907 83.0053 83.9333 83.208 83.752C83.2987 83.672 83.3867 83.632 83.472 83.632ZM86.1211 86V74.216H87.5451V78.984C87.8918 78.616 88.2758 78.3227 88.6971 78.104C89.1185 77.88 89.6038 77.768 90.1531 77.768C90.5958 77.768 90.9851 77.8427 91.3211 77.992C91.6625 78.136 91.9451 78.344 92.1691 78.616C92.3985 78.8827 92.5718 79.2053 92.6891 79.584C92.8065 79.9627 92.8651 80.3813 92.8651 80.84V86H91.4411V80.84C91.4411 80.2267 91.2998 79.752 91.0171 79.416C90.7398 79.0747 90.3131 78.904 89.7371 78.904C89.3158 78.904 88.9211 79.0053 88.5531 79.208C88.1905 79.4107 87.8545 79.6853 87.5451 80.032V86H86.1211ZM96.5958 77.896V86H95.1718V77.896H96.5958ZM96.9158 75.352C96.9158 75.4907 96.8864 75.6213 96.8278 75.744C96.7744 75.8613 96.6998 75.968 96.6038 76.064C96.5131 76.1547 96.4064 76.2267 96.2838 76.28C96.1611 76.3333 96.0304 76.36 95.8918 76.36C95.7531 76.36 95.6224 76.3333 95.4998 76.28C95.3824 76.2267 95.2758 76.1547 95.1798 76.064C95.0891 75.968 95.0171 75.8613 94.9638 75.744C94.9104 75.6213 94.8838 75.4907 94.8838 75.352C94.8838 75.2133 94.9104 75.0827 94.9638 74.96C95.0171 74.832 95.0891 74.7227 95.1798 74.632C95.2758 74.536 95.3824 74.4613 95.4998 74.408C95.6224 74.3547 95.7531 74.328 95.8918 74.328C96.0304 74.328 96.1611 74.3547 96.2838 74.408C96.4064 74.4613 96.5131 74.536 96.6038 74.632C96.6998 74.7227 96.7744 74.832 96.8278 74.96C96.8864 75.0827 96.9158 75.2133 96.9158 75.352ZM100.69 74.216V86H99.2655V74.216H100.69ZM108.903 86C108.701 86 108.573 85.9013 108.519 85.704L108.391 84.72C108.045 85.1413 107.647 85.48 107.199 85.736C106.757 85.9867 106.247 86.112 105.671 86.112C105.207 86.112 104.786 86.024 104.407 85.848C104.029 85.6667 103.706 85.4027 103.439 85.056C103.173 84.7093 102.967 84.2773 102.823 83.76C102.679 83.2427 102.607 82.648 102.607 81.976C102.607 81.3787 102.687 80.824 102.847 80.312C103.007 79.7947 103.237 79.3467 103.535 78.968C103.839 78.5893 104.207 78.2933 104.639 78.08C105.071 77.8613 105.562 77.752 106.111 77.752C106.607 77.752 107.031 77.8373 107.383 78.008C107.735 78.1733 108.05 78.408 108.327 78.712V74.216H109.751V86H108.903ZM106.143 84.96C106.607 84.96 107.013 84.8533 107.359 84.64C107.711 84.4267 108.034 84.1253 108.327 83.736V79.816C108.066 79.464 107.778 79.2187 107.463 79.08C107.154 78.936 106.81 78.864 106.431 78.864C105.674 78.864 105.093 79.1333 104.687 79.672C104.282 80.2107 104.079 80.9787 104.079 81.976C104.079 82.504 104.125 82.9573 104.215 83.336C104.306 83.7093 104.439 84.0187 104.615 84.264C104.791 84.504 105.007 84.68 105.263 84.792C105.519 84.904 105.813 84.96 106.143 84.96ZM118.871 74.408C119.356 74.408 119.809 74.48 120.231 74.624C120.652 74.768 121.015 74.9787 121.319 75.256C121.628 75.528 121.871 75.8613 122.047 76.256C122.223 76.6507 122.311 77.0987 122.311 77.6C122.311 78.0267 122.247 78.4213 122.119 78.784C121.991 79.1467 121.817 79.496 121.599 79.832C121.38 80.1627 121.127 80.4853 120.839 80.8C120.556 81.1093 120.255 81.4267 119.935 81.752L116.919 84.84C117.132 84.7813 117.348 84.736 117.567 84.704C117.785 84.6667 117.996 84.648 118.199 84.648H122.039C122.193 84.648 122.316 84.6933 122.407 84.784C122.497 84.8747 122.543 84.992 122.543 85.136V86H114.895V85.512C114.895 85.4107 114.913 85.3067 114.951 85.2C114.993 85.0933 115.06 84.9947 115.151 84.904L118.823 81.216C119.127 80.9067 119.404 80.6107 119.655 80.328C119.905 80.04 120.119 79.752 120.295 79.464C120.476 79.176 120.615 78.8853 120.711 78.592C120.807 78.2933 120.855 77.976 120.855 77.64C120.855 77.304 120.801 77.0107 120.695 76.76C120.588 76.504 120.441 76.2933 120.255 76.128C120.068 75.9627 119.849 75.84 119.599 75.76C119.348 75.6747 119.079 75.632 118.791 75.632C118.503 75.632 118.236 75.6747 117.991 75.76C117.745 75.8453 117.527 75.9653 117.335 76.12C117.148 76.2693 116.988 76.448 116.855 76.656C116.727 76.864 116.636 77.0933 116.583 77.344C116.54 77.4987 116.476 77.6107 116.391 77.68C116.305 77.7493 116.193 77.784 116.055 77.784C116.028 77.784 115.999 77.784 115.967 77.784C115.94 77.7787 115.908 77.7733 115.871 77.768L115.127 77.64C115.201 77.1173 115.345 76.656 115.559 76.256C115.772 75.8507 116.041 75.512 116.367 75.24C116.697 74.968 117.073 74.7627 117.495 74.624C117.921 74.48 118.38 74.408 118.871 74.408ZM83.472 115.632C83.5573 115.632 83.6347 115.667 83.704 115.736L84.312 116.4C83.8427 116.944 83.272 117.368 82.6 117.672C81.9333 117.976 81.128 118.128 80.184 118.128C79.3573 118.128 78.608 117.987 77.936 117.704C77.264 117.416 76.6907 117.016 76.216 116.504C75.7413 115.987 75.3733 115.368 75.112 114.648C74.8507 113.928 74.72 113.136 74.72 112.272C74.72 111.408 74.8587 110.616 75.136 109.896C75.4187 109.176 75.8133 108.557 76.32 108.04C76.8267 107.523 77.432 107.123 78.136 106.84C78.8453 106.552 79.6267 106.408 80.48 106.408C81.3227 106.408 82.048 106.539 82.656 106.8C83.2693 107.061 83.8133 107.416 84.288 107.864L83.784 108.576C83.7467 108.629 83.704 108.675 83.656 108.712C83.608 108.744 83.5387 108.76 83.448 108.76C83.3787 108.76 83.304 108.736 83.224 108.688C83.1493 108.635 83.0587 108.571 82.952 108.496C82.8453 108.421 82.72 108.341 82.576 108.256C82.432 108.171 82.2613 108.091 82.064 108.016C81.8667 107.941 81.6373 107.88 81.376 107.832C81.1147 107.779 80.8133 107.752 80.472 107.752C79.8587 107.752 79.296 107.859 78.784 108.072C78.2773 108.28 77.84 108.579 77.472 108.968C77.104 109.357 76.816 109.832 76.608 110.392C76.4053 110.952 76.304 111.579 76.304 112.272C76.304 112.987 76.4053 113.624 76.608 114.184C76.816 114.744 77.096 115.219 77.448 115.608C77.8053 115.992 78.2267 116.285 78.712 116.488C79.1973 116.691 79.72 116.792 80.28 116.792C80.6213 116.792 80.928 116.773 81.2 116.736C81.472 116.693 81.7227 116.629 81.952 116.544C82.1867 116.459 82.4027 116.352 82.6 116.224C82.8027 116.091 83.0053 115.933 83.208 115.752C83.2987 115.672 83.3867 115.632 83.472 115.632ZM86.1211 118V106.216H87.5451V110.984C87.8918 110.616 88.2758 110.323 88.6971 110.104C89.1185 109.88 89.6038 109.768 90.1531 109.768C90.5958 109.768 90.9851 109.843 91.3211 109.992C91.6625 110.136 91.9451 110.344 92.1691 110.616C92.3985 110.883 92.5718 111.205 92.6891 111.584C92.8065 111.963 92.8651 112.381 92.8651 112.84V118H91.4411V112.84C91.4411 112.227 91.2998 111.752 91.0171 111.416C90.7398 111.075 90.3131 110.904 89.7371 110.904C89.3158 110.904 88.9211 111.005 88.5531 111.208C88.1905 111.411 87.8545 111.685 87.5451 112.032V118H86.1211ZM96.5958 109.896V118H95.1718V109.896H96.5958ZM96.9158 107.352C96.9158 107.491 96.8864 107.621 96.8278 107.744C96.7744 107.861 96.6998 107.968 96.6038 108.064C96.5131 108.155 96.4064 108.227 96.2838 108.28C96.1611 108.333 96.0304 108.36 95.8918 108.36C95.7531 108.36 95.6224 108.333 95.4998 108.28C95.3824 108.227 95.2758 108.155 95.1798 108.064C95.0891 107.968 95.0171 107.861 94.9638 107.744C94.9104 107.621 94.8838 107.491 94.8838 107.352C94.8838 107.213 94.9104 107.083 94.9638 106.96C95.0171 106.832 95.0891 106.723 95.1798 106.632C95.2758 106.536 95.3824 106.461 95.4998 106.408C95.6224 106.355 95.7531 106.328 95.8918 106.328C96.0304 106.328 96.1611 106.355 96.2838 106.408C96.4064 106.461 96.5131 106.536 96.6038 106.632C96.6998 106.723 96.7744 106.832 96.8278 106.96C96.8864 107.083 96.9158 107.213 96.9158 107.352ZM100.69 106.216V118H99.2655V106.216H100.69ZM108.903 118C108.701 118 108.573 117.901 108.519 117.704L108.391 116.72C108.045 117.141 107.647 117.48 107.199 117.736C106.757 117.987 106.247 118.112 105.671 118.112C105.207 118.112 104.786 118.024 104.407 117.848C104.029 117.667 103.706 117.403 103.439 117.056C103.173 116.709 102.967 116.277 102.823 115.76C102.679 115.243 102.607 114.648 102.607 113.976C102.607 113.379 102.687 112.824 102.847 112.312C103.007 111.795 103.237 111.347 103.535 110.968C103.839 110.589 104.207 110.293 104.639 110.08C105.071 109.861 105.562 109.752 106.111 109.752C106.607 109.752 107.031 109.837 107.383 110.008C107.735 110.173 108.05 110.408 108.327 110.712V106.216H109.751V118H108.903ZM106.143 116.96C106.607 116.96 107.013 116.853 107.359 116.64C107.711 116.427 108.034 116.125 108.327 115.736V111.816C108.066 111.464 107.778 111.219 107.463 111.08C107.154 110.936 106.81 110.864 106.431 110.864C105.674 110.864 105.093 111.133 104.687 111.672C104.282 112.211 104.079 112.979 104.079 113.976C104.079 114.504 104.125 114.957 104.215 115.336C104.306 115.709 104.439 116.019 104.615 116.264C104.791 116.504 105.007 116.68 105.263 116.792C105.519 116.904 105.813 116.96 106.143 116.96ZM119.023 106.408C119.508 106.408 119.956 106.477 120.367 106.616C120.777 106.755 121.129 106.952 121.423 107.208C121.721 107.464 121.953 107.773 122.119 108.136C122.284 108.499 122.367 108.901 122.367 109.344C122.367 109.707 122.319 110.032 122.223 110.32C122.132 110.603 121.999 110.853 121.823 111.072C121.652 111.285 121.444 111.467 121.199 111.616C120.953 111.765 120.679 111.885 120.375 111.976C121.121 112.173 121.681 112.504 122.055 112.968C122.433 113.432 122.623 114.013 122.623 114.712C122.623 115.24 122.521 115.715 122.319 116.136C122.121 116.557 121.849 116.917 121.503 117.216C121.156 117.509 120.751 117.736 120.287 117.896C119.828 118.051 119.335 118.128 118.807 118.128C118.199 118.128 117.679 118.053 117.247 117.904C116.815 117.749 116.449 117.539 116.151 117.272C115.852 117.005 115.607 116.691 115.415 116.328C115.223 115.96 115.06 115.563 114.927 115.136L115.535 114.88C115.647 114.832 115.759 114.808 115.871 114.808C115.977 114.808 116.071 114.832 116.151 114.88C116.236 114.923 116.3 114.992 116.343 115.088C116.353 115.109 116.364 115.133 116.375 115.16C116.385 115.181 116.396 115.205 116.407 115.232C116.481 115.387 116.572 115.563 116.679 115.76C116.785 115.952 116.929 116.133 117.111 116.304C117.292 116.475 117.516 116.619 117.783 116.736C118.055 116.853 118.391 116.912 118.791 116.912C119.191 116.912 119.54 116.848 119.839 116.72C120.143 116.587 120.393 116.416 120.591 116.208C120.793 116 120.945 115.768 121.047 115.512C121.148 115.256 121.199 115.003 121.199 114.752C121.199 114.443 121.156 114.16 121.071 113.904C120.991 113.648 120.841 113.427 120.623 113.24C120.409 113.053 120.111 112.907 119.727 112.8C119.348 112.693 118.86 112.64 118.263 112.64V111.608C118.748 111.603 119.161 111.549 119.503 111.448C119.849 111.347 120.132 111.208 120.351 111.032C120.569 110.856 120.727 110.645 120.823 110.4C120.924 110.155 120.975 109.883 120.975 109.584C120.975 109.253 120.921 108.965 120.815 108.72C120.713 108.475 120.572 108.272 120.391 108.112C120.209 107.952 119.993 107.832 119.743 107.752C119.497 107.672 119.231 107.632 118.943 107.632C118.655 107.632 118.388 107.675 118.143 107.76C117.897 107.845 117.679 107.965 117.487 108.12C117.3 108.269 117.143 108.451 117.015 108.664C116.887 108.872 116.791 109.099 116.727 109.344C116.684 109.499 116.62 109.611 116.535 109.68C116.449 109.749 116.34 109.784 116.207 109.784C116.18 109.784 116.151 109.784 116.118 109.784C116.092 109.779 116.06 109.773 116.023 109.768L115.279 109.64C115.353 109.117 115.497 108.656 115.711 108.256C115.924 107.851 116.193 107.512 116.519 107.24C116.849 106.968 117.225 106.763 117.647 106.624C118.073 106.48 118.532 106.408 119.023 106.408ZM83.472 147.632C83.5573 147.632 83.6347 147.667 83.704 147.736L84.312 148.4C83.8427 148.944 83.272 149.368 82.6 149.672C81.9333 149.976 81.128 150.128 80.184 150.128C79.3573 150.128 78.608 149.987 77.936 149.704C77.264 149.416 76.6907 149.016 76.216 148.504C75.7413 147.987 75.3733 147.368 75.112 146.648C74.8507 145.928 74.72 145.136 74.72 144.272C74.72 143.408 74.8587 142.616 75.136 141.896C75.4187 141.176 75.8133 140.557 76.32 140.04C76.8267 139.523 77.432 139.123 78.136 138.84C78.8453 138.552 79.6267 138.408 80.48 138.408C81.3227 138.408 82.048 138.539 82.656 138.8C83.2693 139.061 83.8133 139.416 84.288 139.864L83.784 140.576C83.7467 140.629 83.704 140.675 83.656 140.712C83.608 140.744 83.5387 140.76 83.448 140.76C83.3787 140.76 83.304 140.736 83.224 140.688C83.1493 140.635 83.0587 140.571 82.952 140.496C82.8453 140.421 82.72 140.341 82.576 140.256C82.432 140.171 82.2613 140.091 82.064 140.016C81.8667 139.941 81.6373 139.88 81.376 139.832C81.1147 139.779 80.8133 139.752 80.472 139.752C79.8587 139.752 79.296 139.859 78.784 140.072C78.2773 140.28 77.84 140.579 77.472 140.968C77.104 141.357 76.816 141.832 76.608 142.392C76.4053 142.952 76.304 143.579 76.304 144.272C76.304 144.987 76.4053 145.624 76.608 146.184C76.816 146.744 77.096 147.219 77.448 147.608C77.8053 147.992 78.2267 148.285 78.712 148.488C79.1973 148.691 79.72 148.792 80.28 148.792C80.6213 148.792 80.928 148.773 81.2 148.736C81.472 148.693 81.7227 148.629 81.952 148.544C82.1867 148.459 82.4027 148.352 82.6 148.224C82.8027 148.091 83.0053 147.933 83.208 147.752C83.2987 147.672 83.3867 147.632 83.472 147.632ZM86.1211 150V138.216H87.5451V142.984C87.8918 142.616 88.2758 142.323 88.6971 142.104C89.1185 141.88 89.6038 141.768 90.1531 141.768C90.5958 141.768 90.9851 141.843 91.3211 141.992C91.6625 142.136 91.9451 142.344 92.1691 142.616C92.3985 142.883 92.5718 143.205 92.6891 143.584C92.8065 143.963 92.8651 144.381 92.8651 144.84V150H91.4411V144.84C91.4411 144.227 91.2998 143.752 91.0171 143.416C90.7398 143.075 90.3131 142.904 89.7371 142.904C89.3158 142.904 88.9211 143.005 88.5531 143.208C88.1905 143.411 87.8545 143.685 87.5451 144.032V150H86.1211ZM96.5958 141.896V150H95.1718V141.896H96.5958ZM96.9158 139.352C96.9158 139.491 96.8864 139.621 96.8278 139.744C96.7744 139.861 96.6998 139.968 96.6038 140.064C96.5131 140.155 96.4064 140.227 96.2838 140.28C96.1611 140.333 96.0304 140.36 95.8918 140.36C95.7531 140.36 95.6224 140.333 95.4998 140.28C95.3824 140.227 95.2758 140.155 95.1798 140.064C95.0891 139.968 95.0171 139.861 94.9638 139.744C94.9104 139.621 94.8838 139.491 94.8838 139.352C94.8838 139.213 94.9104 139.083 94.9638 138.96C95.0171 138.832 95.0891 138.723 95.1798 138.632C95.2758 138.536 95.3824 138.461 95.4998 138.408C95.6224 138.355 95.7531 138.328 95.8918 138.328C96.0304 138.328 96.1611 138.355 96.2838 138.408C96.4064 138.461 96.5131 138.536 96.6038 138.632C96.6998 138.723 96.7744 138.832 96.8278 138.96C96.8864 139.083 96.9158 139.213 96.9158 139.352ZM100.69 138.216V150H99.2655V138.216H100.69ZM108.903 150C108.701 150 108.573 149.901 108.519 149.704L108.391 148.72C108.045 149.141 107.647 149.48 107.199 149.736C106.757 149.987 106.247 150.112 105.671 150.112C105.207 150.112 104.786 150.024 104.407 149.848C104.029 149.667 103.706 149.403 103.439 149.056C103.173 148.709 102.967 148.277 102.823 147.76C102.679 147.243 102.607 146.648 102.607 145.976C102.607 145.379 102.687 144.824 102.847 144.312C103.007 143.795 103.237 143.347 103.535 142.968C103.839 142.589 104.207 142.293 104.639 142.08C105.071 141.861 105.562 141.752 106.111 141.752C106.607 141.752 107.031 141.837 107.383 142.008C107.735 142.173 108.05 142.408 108.327 142.712V138.216H109.751V150H108.903ZM106.143 148.96C106.607 148.96 107.013 148.853 107.359 148.64C107.711 148.427 108.034 148.125 108.327 147.736V143.816C108.066 143.464 107.778 143.219 107.463 143.08C107.154 142.936 106.81 142.864 106.431 142.864C105.674 142.864 105.093 143.133 104.687 143.672C104.282 144.211 104.079 144.979 104.079 145.976C104.079 146.504 104.125 146.957 104.215 147.336C104.306 147.709 104.439 148.019 104.615 148.264C104.791 148.504 105.007 148.68 105.263 148.792C105.519 148.904 105.813 148.96 106.143 148.96ZM121.287 145.864H123.023V146.68C123.023 146.765 122.996 146.837 122.943 146.896C122.895 146.955 122.817 146.984 122.711 146.984H121.287V150H120.031V146.984H114.951C114.844 146.984 114.751 146.955 114.671 146.896C114.596 146.832 114.548 146.755 114.527 146.664L114.383 145.936L119.959 138.536H121.287V145.864ZM120.031 141.136C120.031 140.997 120.033 140.848 120.039 140.688C120.049 140.528 120.068 140.363 120.095 140.192L115.927 145.864H120.031V141.136Z" fill="black"/>
<path d="M59.5517 40H51V56H63.293V43.7687L59.5517 40ZM59.7417 41.1157L62.1854 43.5773H59.7417V41.1157ZM51.6512 55.3488V40.6512H59.0905V44.2285H62.6418V55.3488H51.6512V55.3488Z" fill="black"/>
<path d="M58.1899 43.5773H52.8989V44.2285H58.1899V43.5773Z" fill="black"/>
<path d="M61.3942 46.5607H52.8989V47.2119H61.3942V46.5607Z" fill="black"/>
<path d="M61.3942 49.544H52.8989V50.1952H61.3942V49.544Z" fill="black"/>
<path d="M61.3942 52.5274H52.8989V53.1786H61.3942V52.5274Z" fill="black"/>
<path d="M59.5517 104H51V120H63.293V107.769L59.5517 104ZM59.7417 105.116L62.1854 107.577H59.7417V105.116ZM51.6512 119.349V104.651H59.0905V108.228H62.6418V119.349H51.6512V119.349Z" fill="black"/>
<path d="M58.1899 107.577H52.8989V108.228H58.1899V107.577Z" fill="black"/>
<path d="M61.3942 110.561H52.8989V111.212H61.3942V110.561Z" fill="black"/>
<path d="M61.3942 113.544H52.8989V114.195H61.3942V113.544Z" fill="black"/>
<path d="M61.3942 116.527H52.8989V117.179H61.3942V116.527Z" fill="black"/>
<path d="M59.5517 135H51V151H63.293V138.769L59.5517 135ZM59.7417 136.116L62.1854 138.577H59.7417V136.116ZM51.6512 150.349V135.651H59.0905V139.228H62.6418V150.349H51.6512V150.349Z" fill="black"/>
<path d="M58.1899 138.577H52.8989V139.228H58.1899V138.577Z" fill="black"/>
<path d="M61.3942 141.561H52.8989V142.212H61.3942V141.561Z" fill="black"/>
<path d="M61.3942 144.544H52.8989V145.195H61.3942V144.544Z" fill="black"/>
<path d="M61.3942 147.527H52.8989V148.179H61.3942V147.527Z" fill="black"/>
<path d="M44.8868 10.2722C44.8149 10.1997 44.7167 10.1592 44.6147 10.1592H34.3744V10.1988L33.8843 9.00316L29 9V21.8004H44.996V20.9816L45 10.5451C44.9997 10.4425 44.9598 10.3446 44.8868 10.2722ZM44.2283 10.9303L44.2278 11.8245H35.0406L34.6738 10.9303H44.2283ZM44.2254 21.0296H29.7702V9.77133L33.3669 9.77392L34.5235 12.5952H44.2258V21.0296H44.2254V21.0296Z" fill="#010002"/>
<path d="M44.8868 171.272C44.8149 171.2 44.7167 171.159 44.6147 171.159H34.3744V171.199L33.8843 170.003L29 170V182.8H44.996V181.982L45 171.545C44.9997 171.443 44.9598 171.345 44.8868 171.272ZM44.2283 171.93L44.2278 172.824H35.0406L34.6738 171.93H44.2283ZM44.2254 182.03H29.7702V170.771L33.3669 170.774L34.5235 173.595H44.2258V182.03H44.2254V182.03Z" fill="#010002"/>
<path d="M64.8868 75.2722C64.8149 75.1997 64.7167 75.1592 64.6147 75.1592H54.3744V75.1988L53.8843 74.0032L49 74V86.8004H64.996V85.9816L65 75.5451C64.9997 75.4425 64.9598 75.3446 64.8868 75.2722ZM64.2283 75.9303L64.2278 76.8245H55.0406L54.6738 75.9303H64.2283ZM64.2254 86.0296H49.7702V74.7713L53.3669 74.7739L54.5235 77.5952H64.2258V86.0296H64.2254V86.0296Z" fill="#010002"/>
</svg>
