<svg width="123" height="393" viewBox="0 0 123 393" fill="none" xmlns="http://www.w3.org/2000/svg">
<path d="M8.464 10.432V12.144H3.336V15.568H7.664V17.288H3.336V22H1.168V10.432H8.464ZM12.1444 13.792V22H10.1684V13.792H12.1444ZM12.4404 11.4C12.4404 11.5707 12.4057 11.7307 12.3364 11.88C12.267 12.0293 12.1737 12.16 12.0564 12.272C11.9444 12.384 11.811 12.4747 11.6564 12.544C11.5017 12.608 11.3364 12.64 11.1604 12.64C10.9897 12.64 10.827 12.608 10.6724 12.544C10.523 12.4747 10.3924 12.384 10.2804 12.272C10.1684 12.16 10.0777 12.0293 10.0084 11.88C9.94438 11.7307 9.91238 11.5707 9.91238 11.4C9.91238 11.224 9.94438 11.0587 10.0084 10.904C10.0777 10.7493 10.1684 10.616 10.2804 10.504C10.3924 10.392 10.523 10.304 10.6724 10.24C10.827 10.1707 10.9897 10.136 11.1604 10.136C11.3364 10.136 11.5017 10.1707 11.6564 10.24C11.811 10.304 11.9444 10.392 12.0564 10.504C12.1737 10.616 12.267 10.7493 12.3364 10.904C12.4057 11.0587 12.4404 11.224 12.4404 11.4ZM14.3841 22V13.792H15.5441C15.7468 13.792 15.8881 13.8293 15.9681 13.904C16.0481 13.9787 16.1015 14.1067 16.1281 14.288L16.2481 15.28C16.5415 14.7733 16.8855 14.3733 17.2801 14.08C17.6748 13.7867 18.1175 13.64 18.6081 13.64C19.0135 13.64 19.3495 13.7333 19.6161 13.92L19.3601 15.4C19.3441 15.496 19.3095 15.5653 19.2561 15.608C19.2028 15.6453 19.1308 15.664 19.0401 15.664C18.9601 15.664 18.8508 15.6453 18.7121 15.608C18.5735 15.5707 18.3895 15.552 18.1601 15.552C17.7495 15.552 17.3975 15.6667 17.1041 15.896C16.8108 16.12 16.5628 16.4507 16.3601 16.888V22H14.3841ZM25.7874 15.392C25.734 15.4773 25.678 15.5387 25.6194 15.576C25.5607 15.608 25.486 15.624 25.3954 15.624C25.2994 15.624 25.1954 15.5973 25.0834 15.544C24.9767 15.4907 24.8514 15.432 24.7074 15.368C24.5634 15.2987 24.398 15.2373 24.2114 15.184C24.03 15.1307 23.814 15.104 23.5634 15.104C23.174 15.104 22.8674 15.1867 22.6434 15.352C22.4194 15.5173 22.3074 15.7333 22.3074 16C22.3074 16.176 22.3634 16.3253 22.4754 16.448C22.5927 16.5653 22.7447 16.6693 22.9314 16.76C23.1234 16.8507 23.3394 16.9333 23.5794 17.008C23.8194 17.0773 24.0647 17.1547 24.3154 17.24C24.566 17.3253 24.8114 17.424 25.0514 17.536C25.2914 17.6427 25.5047 17.7813 25.6914 17.952C25.8834 18.1173 26.0354 18.3173 26.1474 18.552C26.2647 18.7867 26.3234 19.0693 26.3234 19.4C26.3234 19.7947 26.2514 20.16 26.1074 20.496C25.9634 20.8267 25.7527 21.1147 25.4754 21.36C25.198 21.6 24.854 21.7893 24.4434 21.928C24.038 22.0613 23.5714 22.128 23.0434 22.128C22.7607 22.128 22.4834 22.1013 22.2114 22.048C21.9447 22 21.686 21.9307 21.4354 21.84C21.19 21.7493 20.9607 21.6427 20.7474 21.52C20.5394 21.3973 20.3554 21.264 20.1954 21.12L20.6514 20.368C20.71 20.2773 20.7794 20.208 20.8594 20.16C20.9394 20.112 21.0407 20.088 21.1634 20.088C21.286 20.088 21.4007 20.1227 21.5074 20.192C21.6194 20.2613 21.7474 20.336 21.8914 20.416C22.0354 20.496 22.2034 20.5707 22.3954 20.64C22.5927 20.7093 22.8407 20.744 23.1394 20.744C23.374 20.744 23.574 20.7173 23.7394 20.664C23.91 20.6053 24.0487 20.5307 24.1554 20.44C24.2674 20.3493 24.3474 20.2453 24.3954 20.128C24.4487 20.0053 24.4754 19.88 24.4754 19.752C24.4754 19.56 24.4167 19.4027 24.2994 19.28C24.1874 19.1573 24.0354 19.0507 23.8434 18.96C23.6567 18.8693 23.4407 18.7893 23.1954 18.72C22.9554 18.6453 22.7074 18.5653 22.4514 18.48C22.2007 18.3947 21.9527 18.296 21.7074 18.184C21.4674 18.0667 21.2514 17.92 21.0594 17.744C20.8727 17.568 20.7207 17.352 20.6034 17.096C20.4914 16.84 20.4354 16.5307 20.4354 16.168C20.4354 15.832 20.502 15.512 20.6354 15.208C20.7687 14.904 20.9634 14.64 21.2194 14.416C21.4807 14.1867 21.8034 14.0053 22.1874 13.872C22.5767 13.7333 23.0247 13.664 23.5314 13.664C24.0967 13.664 24.6114 13.7573 25.0754 13.944C25.5394 14.1307 25.926 14.376 26.2354 14.68L25.7874 15.392ZM30.5958 22.128C29.8864 22.128 29.3398 21.928 28.9557 21.528C28.5718 21.1227 28.3798 20.5653 28.3798 19.856V15.272H27.5478C27.4411 15.272 27.3478 15.2373 27.2678 15.168C27.1931 15.0987 27.1558 14.9947 27.1558 14.856V14.072L28.4758 13.856L28.8918 11.616C28.9131 11.5093 28.9611 11.4267 29.0358 11.368C29.1158 11.3093 29.2144 11.28 29.3318 11.28H30.3558V13.864H32.5158V15.272H30.3558V19.72C30.3558 19.976 30.4198 20.176 30.5478 20.32C30.6758 20.464 30.8464 20.536 31.0598 20.536C31.1824 20.536 31.2838 20.5227 31.3637 20.496C31.4491 20.464 31.5211 20.432 31.5798 20.4C31.6438 20.368 31.6998 20.3387 31.7478 20.312C31.7958 20.28 31.8438 20.264 31.8918 20.264C31.9504 20.264 31.9984 20.28 32.0358 20.312C32.0731 20.3387 32.1131 20.3813 32.1558 20.44L32.7478 21.4C32.4598 21.64 32.1291 21.8213 31.7558 21.944C31.3824 22.0667 30.9958 22.128 30.5958 22.128ZM39.877 22.128C39.1677 22.128 38.621 21.928 38.237 21.528C37.853 21.1227 37.661 20.5653 37.661 19.856V15.272H36.829C36.7223 15.272 36.629 15.2373 36.549 15.168C36.4743 15.0987 36.437 14.9947 36.437 14.856V14.072L37.757 13.856L38.173 11.616C38.1943 11.5093 38.2423 11.4267 38.317 11.368C38.397 11.3093 38.4957 11.28 38.613 11.28H39.637V13.864H41.797V15.272H39.637V19.72C39.637 19.976 39.701 20.176 39.829 20.32C39.957 20.464 40.1277 20.536 40.341 20.536C40.4637 20.536 40.565 20.5227 40.645 20.496C40.7303 20.464 40.8023 20.432 40.861 20.4C40.925 20.368 40.981 20.3387 41.029 20.312C41.077 20.28 41.125 20.264 41.173 20.264C41.2317 20.264 41.2797 20.28 41.317 20.312C41.3543 20.3387 41.3943 20.3813 41.437 20.44L42.029 21.4C41.741 21.64 41.4103 21.8213 41.037 21.944C40.6637 22.0667 40.277 22.128 39.877 22.128ZM43.3685 22V13.792H44.5285C44.7312 13.792 44.8725 13.8293 44.9525 13.904C45.0325 13.9787 45.0858 14.1067 45.1125 14.288L45.2325 15.28C45.5258 14.7733 45.8698 14.3733 46.2645 14.08C46.6592 13.7867 47.1018 13.64 47.5925 13.64C47.9978 13.64 48.3338 13.7333 48.6005 13.92L48.3445 15.4C48.3285 15.496 48.2938 15.5653 48.2405 15.608C48.1872 15.6453 48.1152 15.664 48.0245 15.664C47.9445 15.664 47.8352 15.6453 47.6965 15.608C47.5578 15.5707 47.3738 15.552 47.1445 15.552C46.7338 15.552 46.3818 15.6667 46.0885 15.896C45.7952 16.12 45.5472 16.4507 45.3445 16.888V22H43.3685ZM53.2918 13.664C53.8091 13.664 54.2838 13.7467 54.7158 13.912C55.1531 14.0773 55.5291 14.32 55.8438 14.64C56.1584 14.9547 56.4038 15.344 56.5798 15.808C56.7558 16.2667 56.8438 16.792 56.8438 17.384C56.8438 17.5333 56.8358 17.6587 56.8198 17.76C56.8091 17.856 56.7851 17.9333 56.7478 17.992C56.7158 18.0453 56.6704 18.0853 56.6118 18.112C56.5531 18.1333 56.4784 18.144 56.3878 18.144H51.3158C51.3744 18.9867 51.6011 19.6053 51.9958 20C52.3904 20.3947 52.9131 20.592 53.5638 20.592C53.8838 20.592 54.1584 20.5547 54.3878 20.48C54.6224 20.4053 54.8251 20.3227 54.9958 20.232C55.1718 20.1413 55.3238 20.0587 55.4518 19.984C55.5851 19.9093 55.7131 19.872 55.8358 19.872C55.9158 19.872 55.9851 19.888 56.0438 19.92C56.1024 19.952 56.1531 19.9973 56.1958 20.056L56.7718 20.776C56.5531 21.032 56.3078 21.248 56.0358 21.424C55.7638 21.5947 55.4784 21.7333 55.1798 21.84C54.8864 21.9413 54.5851 22.0133 54.2758 22.056C53.9718 22.0987 53.6758 22.12 53.3878 22.12C52.8171 22.12 52.2864 22.0267 51.7958 21.84C51.3051 21.648 50.8784 21.368 50.5158 21C50.1531 20.6267 49.8678 20.168 49.6598 19.624C49.4518 19.0747 49.3478 18.44 49.3478 17.72C49.3478 17.16 49.4384 16.6347 49.6198 16.144C49.8011 15.648 50.0598 15.2187 50.3958 14.856C50.7371 14.488 51.1504 14.1973 51.6358 13.984C52.1264 13.7707 52.6784 13.664 53.2918 13.664ZM53.3318 15.08C52.7558 15.08 52.3051 15.2427 51.9798 15.568C51.6544 15.8933 51.4464 16.3547 51.3558 16.952H55.0678C55.0678 16.696 55.0331 16.456 54.9638 16.232C54.8944 16.0027 54.7878 15.8027 54.6438 15.632C54.4998 15.4613 54.3184 15.328 54.0998 15.232C53.8811 15.1307 53.6251 15.08 53.3318 15.08ZM61.8386 13.664C62.356 13.664 62.8306 13.7467 63.2626 13.912C63.7 14.0773 64.076 14.32 64.3906 14.64C64.7053 14.9547 64.9506 15.344 65.1266 15.808C65.3026 16.2667 65.3906 16.792 65.3906 17.384C65.3906 17.5333 65.3826 17.6587 65.3666 17.76C65.356 17.856 65.332 17.9333 65.2946 17.992C65.2626 18.0453 65.2173 18.0853 65.1586 18.112C65.1 18.1333 65.0253 18.144 64.9346 18.144H59.8626C59.9213 18.9867 60.148 19.6053 60.5426 20C60.9373 20.3947 61.46 20.592 62.1106 20.592C62.4306 20.592 62.7053 20.5547 62.9346 20.48C63.1693 20.4053 63.372 20.3227 63.5426 20.232C63.7186 20.1413 63.8706 20.0587 63.9986 19.984C64.132 19.9093 64.26 19.872 64.3826 19.872C64.4626 19.872 64.532 19.888 64.5906 19.92C64.6493 19.952 64.7 19.9973 64.7426 20.056L65.3186 20.776C65.1 21.032 64.8546 21.248 64.5826 21.424C64.3106 21.5947 64.0253 21.7333 63.7266 21.84C63.4333 21.9413 63.132 22.0133 62.8226 22.056C62.5186 22.0987 62.2226 22.12 61.9346 22.12C61.364 22.12 60.8333 22.0267 60.3426 21.84C59.852 21.648 59.4253 21.368 59.0626 21C58.7 20.6267 58.4146 20.168 58.2066 19.624C57.9986 19.0747 57.8946 18.44 57.8946 17.72C57.8946 17.16 57.9853 16.6347 58.1666 16.144C58.348 15.648 58.6066 15.2187 58.9426 14.856C59.284 14.488 59.6973 14.1973 60.1826 13.984C60.6733 13.7707 61.2253 13.664 61.8386 13.664ZM61.8786 15.08C61.3026 15.08 60.852 15.2427 60.5266 15.568C60.2013 15.8933 59.9933 16.3547 59.9026 16.952H63.6146C63.6146 16.696 63.58 16.456 63.5106 16.232C63.4413 16.0027 63.3346 15.8027 63.1906 15.632C63.0466 15.4613 62.8653 15.328 62.6466 15.232C62.428 15.1307 62.172 15.08 61.8786 15.08ZM74.1993 22H72.4073L69.1433 13.792H70.7833C70.9273 13.792 71.0473 13.8267 71.1432 13.896C71.2446 13.9653 71.3139 14.0533 71.3513 14.16L72.9353 18.544C73.0259 18.8 73.1006 19.0507 73.1593 19.296C73.2233 19.5413 73.2792 19.7867 73.3273 20.032C73.3753 19.7867 73.4286 19.5413 73.4873 19.296C73.5513 19.0507 73.6313 18.8 73.7273 18.544L75.3513 14.16C75.3886 14.0533 75.4553 13.9653 75.5513 13.896C75.6473 13.8267 75.7619 13.792 75.8953 13.792H77.4553L74.1993 22ZM80.7225 13.792V22H78.7465V13.792H80.7225ZM81.0185 11.4C81.0185 11.5707 80.9838 11.7307 80.9145 11.88C80.8452 12.0293 80.7518 12.16 80.6345 12.272C80.5225 12.384 80.3892 12.4747 80.2345 12.544C80.0798 12.608 79.9145 12.64 79.7385 12.64C79.5678 12.64 79.4052 12.608 79.2505 12.544C79.1012 12.4747 78.9705 12.384 78.8585 12.272C78.7465 12.16 78.6558 12.0293 78.5865 11.88C78.5225 11.7307 78.4905 11.5707 78.4905 11.4C78.4905 11.224 78.5225 11.0587 78.5865 10.904C78.6558 10.7493 78.7465 10.616 78.8585 10.504C78.9705 10.392 79.1012 10.304 79.2505 10.24C79.4052 10.1707 79.5678 10.136 79.7385 10.136C79.9145 10.136 80.0798 10.1707 80.2345 10.24C80.3892 10.304 80.5225 10.392 80.6345 10.504C80.7518 10.616 80.8452 10.7493 80.9145 10.904C80.9838 11.0587 81.0185 11.224 81.0185 11.4ZM86.3543 13.664C86.8716 13.664 87.3463 13.7467 87.7783 13.912C88.2156 14.0773 88.5916 14.32 88.9063 14.64C89.2209 14.9547 89.4663 15.344 89.6423 15.808C89.8183 16.2667 89.9062 16.792 89.9062 17.384C89.9062 17.5333 89.8983 17.6587 89.8823 17.76C89.8716 17.856 89.8476 17.9333 89.8103 17.992C89.7783 18.0453 89.7329 18.0853 89.6743 18.112C89.6156 18.1333 89.5409 18.144 89.4503 18.144H84.3783C84.4369 18.9867 84.6636 19.6053 85.0583 20C85.4529 20.3947 85.9756 20.592 86.6263 20.592C86.9463 20.592 87.2209 20.5547 87.4503 20.48C87.6849 20.4053 87.8876 20.3227 88.0583 20.232C88.2343 20.1413 88.3863 20.0587 88.5143 19.984C88.6476 19.9093 88.7756 19.872 88.8983 19.872C88.9783 19.872 89.0476 19.888 89.1063 19.92C89.1649 19.952 89.2156 19.9973 89.2583 20.056L89.8343 20.776C89.6156 21.032 89.3703 21.248 89.0983 21.424C88.8263 21.5947 88.5409 21.7333 88.2423 21.84C87.9489 21.9413 87.6476 22.0133 87.3383 22.056C87.0343 22.0987 86.7383 22.12 86.4503 22.12C85.8796 22.12 85.3489 22.0267 84.8583 21.84C84.3676 21.648 83.9409 21.368 83.5783 21C83.2156 20.6267 82.9303 20.168 82.7223 19.624C82.5143 19.0747 82.4103 18.44 82.4103 17.72C82.4103 17.16 82.5009 16.6347 82.6823 16.144C82.8636 15.648 83.1223 15.2187 83.4583 14.856C83.7996 14.488 84.2129 14.1973 84.6983 13.984C85.1889 13.7707 85.7409 13.664 86.3543 13.664ZM86.3943 15.08C85.8183 15.08 85.3676 15.2427 85.0423 15.568C84.7169 15.8933 84.5089 16.3547 84.4183 16.952H88.1303C88.1303 16.696 88.0956 16.456 88.0263 16.232C87.9569 16.0027 87.8503 15.8027 87.7063 15.632C87.5623 15.4613 87.3809 15.328 87.1623 15.232C86.9436 15.1307 86.6876 15.08 86.3943 15.08ZM90.5091 13.792H92.0771C92.2265 13.792 92.3518 13.8267 92.4531 13.896C92.5545 13.9653 92.6185 14.0533 92.6451 14.16L93.8211 18.544C93.8851 18.784 93.9358 19.0187 93.9731 19.248C94.0158 19.4773 94.0558 19.7067 94.0931 19.936C94.1518 19.7067 94.2131 19.4773 94.2771 19.248C94.3465 19.0187 94.4185 18.784 94.4931 18.544L95.8531 14.144C95.8851 14.0373 95.9491 13.9493 96.0451 13.88C96.1411 13.8107 96.2531 13.776 96.3811 13.776H97.2531C97.3971 13.776 97.5171 13.8107 97.6131 13.88C97.7091 13.9493 97.7731 14.0373 97.8051 14.144L99.1491 18.624C99.2185 18.8533 99.2798 19.0773 99.3331 19.296C99.3918 19.5093 99.4478 19.7253 99.5011 19.944C99.5385 19.7147 99.5785 19.4853 99.6211 19.256C99.6691 19.0267 99.7278 18.7893 99.7971 18.544L101.013 14.16C101.04 14.0533 101.104 13.9653 101.205 13.896C101.306 13.8267 101.424 13.792 101.557 13.792H103.053L100.453 22H98.8611C98.6905 22 98.5678 21.8827 98.4931 21.648L97.0131 16.904C96.9651 16.7493 96.9198 16.5947 96.8771 16.44C96.8398 16.28 96.8078 16.1227 96.7811 15.968C96.7491 16.128 96.7145 16.288 96.6771 16.448C96.6398 16.6027 96.5971 16.76 96.5491 16.92L95.0531 21.648C94.9785 21.8827 94.8345 22 94.6211 22H93.1091L90.5091 13.792Z" fill="black"/>
<path fill-rule="evenodd" clip-rule="evenodd" d="M1.70708 49.7071C2.0976 49.3166 2.73077 49.3166 3.12129 49.7071L7.70708 54.2929C8.0976 54.6834 8.0976 55.3166 7.70708 55.7071C7.31655 56.0976 6.68339 56.0976 6.29286 55.7071L1.70708 51.1213C1.31655 50.7308 1.31655 50.0976 1.70708 49.7071Z" fill="black"/>
<path fill-rule="evenodd" clip-rule="evenodd" d="M12.2929 49.7071C11.9024 49.3166 11.2692 49.3166 10.8787 49.7071L6.29292 54.2929C5.9024 54.6834 5.9024 55.3166 6.29292 55.7071C6.68345 56.0976 7.31661 56.0976 7.70714 55.7071L12.2929 51.1213C12.6834 50.7308 12.6834 50.0976 12.2929 49.7071Z" fill="black"/>
<path fill-rule="evenodd" clip-rule="evenodd" d="M23.7071 122.293C23.3166 121.902 23.3166 121.269 23.7071 120.879L28.2929 116.293C28.6834 115.902 29.3166 115.902 29.7071 116.293C30.0976 116.683 30.0976 117.317 29.7071 117.707L25.1213 122.293C24.7308 122.683 24.0976 122.683 23.7071 122.293Z" fill="black"/>
<path fill-rule="evenodd" clip-rule="evenodd" d="M23.7071 111.707C23.3166 112.098 23.3166 112.731 23.7071 113.121L28.2929 117.707C28.6834 118.098 29.3166 118.098 29.7071 117.707C30.0976 117.317 30.0976 116.683 29.7071 116.293L25.1213 111.707C24.7308 111.317 24.0976 111.317 23.7071 111.707Z" fill="black"/>
<path d="M47.096 54.712V59H45.552V47.536H48.936C49.6613 47.536 50.2907 47.6213 50.824 47.792C51.3627 47.9573 51.808 48.1947 52.16 48.504C52.512 48.8133 52.7733 49.1867 52.944 49.624C53.12 50.0613 53.208 50.5493 53.208 51.088C53.208 51.6213 53.1147 52.1093 52.928 52.552C52.7413 52.9947 52.4667 53.376 52.104 53.696C51.7467 54.016 51.3013 54.2667 50.768 54.448C50.2347 54.624 49.624 54.712 48.936 54.712H47.096ZM47.096 53.48H48.936C49.3787 53.48 49.768 53.4213 50.104 53.304C50.4453 53.1867 50.7307 53.024 50.96 52.816C51.1893 52.6027 51.3627 52.3493 51.48 52.056C51.5973 51.7627 51.656 51.44 51.656 51.088C51.656 50.3573 51.4293 49.7867 50.976 49.376C50.528 48.9653 49.848 48.76 48.936 48.76H47.096V53.48ZM60.495 59H59.863C59.7243 59 59.6123 58.9787 59.527 58.936C59.4417 58.8933 59.3857 58.8027 59.359 58.664L59.199 57.912C58.9857 58.104 58.7777 58.2773 58.575 58.432C58.3723 58.5813 58.159 58.7093 57.935 58.816C57.711 58.9173 57.471 58.9947 57.215 59.048C56.9643 59.1013 56.6843 59.128 56.375 59.128C56.0603 59.128 55.7643 59.0853 55.487 59C55.215 58.9093 54.9777 58.776 54.775 58.6C54.5723 58.424 54.4097 58.2027 54.287 57.936C54.1697 57.664 54.111 57.344 54.111 56.976C54.111 56.656 54.199 56.3493 54.375 56.056C54.551 55.7573 54.8337 55.4933 55.223 55.264C55.6177 55.0347 56.1323 54.848 56.767 54.704C57.4017 54.5547 58.1777 54.4693 59.095 54.448V53.816C59.095 53.1867 58.959 52.712 58.687 52.392C58.4203 52.0667 58.023 51.904 57.495 51.904C57.1483 51.904 56.855 51.9493 56.615 52.04C56.3803 52.1253 56.175 52.224 55.999 52.336C55.8283 52.4427 55.679 52.5413 55.551 52.632C55.4283 52.7173 55.3057 52.76 55.183 52.76C55.087 52.76 55.0017 52.736 54.927 52.688C54.8577 52.6347 54.8017 52.5707 54.759 52.496L54.503 52.04C54.951 51.608 55.4337 51.2853 55.951 51.072C56.4683 50.8587 57.0417 50.752 57.671 50.752C58.1243 50.752 58.527 50.8267 58.879 50.976C59.231 51.1253 59.527 51.3333 59.767 51.6C60.007 51.8667 60.1883 52.1893 60.311 52.568C60.4337 52.9467 60.495 53.3627 60.495 53.816V59ZM56.799 58.128C57.0497 58.128 57.279 58.104 57.487 58.056C57.695 58.0027 57.8897 57.9307 58.071 57.84C58.2577 57.744 58.4337 57.6293 58.599 57.496C58.7697 57.3627 58.935 57.2107 59.095 57.04V55.352C58.439 55.3733 57.8817 55.4267 57.423 55.512C56.9643 55.592 56.591 55.6987 56.303 55.832C56.015 55.9653 55.8043 56.1227 55.671 56.304C55.543 56.4853 55.479 56.688 55.479 56.912C55.479 57.1253 55.5137 57.3093 55.583 57.464C55.6523 57.6187 55.7457 57.7467 55.863 57.848C55.9803 57.944 56.119 58.016 56.279 58.064C56.439 58.1067 56.6123 58.128 56.799 58.128ZM62.6524 59V50.896H63.4684C63.623 50.896 63.7297 50.9253 63.7884 50.984C63.847 51.0427 63.887 51.144 63.9084 51.288L64.0044 52.552C64.2817 51.9867 64.623 51.5467 65.0284 51.232C65.439 50.912 65.919 50.752 66.4684 50.752C66.6924 50.752 66.895 50.7787 67.0764 50.832C67.2577 50.88 67.4257 50.9493 67.5804 51.04L67.3964 52.104C67.359 52.2373 67.2764 52.304 67.1484 52.304C67.0737 52.304 66.959 52.28 66.8044 52.232C66.6497 52.1787 66.4337 52.152 66.1564 52.152C65.6604 52.152 65.2444 52.296 64.9084 52.584C64.5777 52.872 64.3004 53.2907 64.0764 53.84V59H62.6524ZM72.3135 50.768C72.7988 50.768 73.2468 50.8507 73.6575 51.016C74.0682 51.176 74.4228 51.4107 74.7215 51.72C75.0202 52.024 75.2522 52.4027 75.4175 52.856C75.5882 53.304 75.6735 53.816 75.6735 54.392C75.6735 54.616 75.6495 54.7653 75.6015 54.84C75.5535 54.9147 75.4628 54.952 75.3295 54.952H69.9375C69.9482 55.464 70.0175 55.9093 70.1455 56.288C70.2735 56.6667 70.4495 56.984 70.6735 57.24C70.8975 57.4907 71.1642 57.68 71.4735 57.808C71.7828 57.9307 72.1295 57.992 72.5135 57.992C72.8708 57.992 73.1775 57.952 73.4335 57.872C73.6948 57.7867 73.9188 57.696 74.1055 57.6C74.2922 57.504 74.4468 57.416 74.5695 57.336C74.6975 57.2507 74.8068 57.208 74.8975 57.208C75.0148 57.208 75.1055 57.2533 75.1695 57.344L75.5695 57.864C75.3935 58.0773 75.1828 58.264 74.9375 58.424C74.6922 58.5787 74.4282 58.7067 74.1455 58.808C73.8682 58.9093 73.5802 58.984 73.2815 59.032C72.9828 59.0853 72.6868 59.112 72.3935 59.112C71.8335 59.112 71.3162 59.0187 70.8415 58.832C70.3722 58.64 69.9642 58.3627 69.6175 58C69.2762 57.632 69.0095 57.1787 68.8175 56.64C68.6255 56.1013 68.5295 55.4827 68.5295 54.784C68.5295 54.2187 68.6148 53.6907 68.7855 53.2C68.9615 52.7093 69.2122 52.2853 69.5375 51.928C69.8628 51.5653 70.2602 51.2827 70.7295 51.08C71.1988 50.872 71.7268 50.768 72.3135 50.768ZM72.3455 51.816C71.6575 51.816 71.1162 52.016 70.7215 52.416C70.3268 52.8107 70.0815 53.36 69.9855 54.064H74.3935C74.3935 53.7333 74.3482 53.432 74.2575 53.16C74.1668 52.8827 74.0335 52.6453 73.8575 52.448C73.6815 52.2453 73.4655 52.0907 73.2095 51.984C72.9588 51.872 72.6708 51.816 72.3455 51.816ZM77.4961 59V50.896H78.3441C78.5468 50.896 78.6748 50.9947 78.7281 51.192L78.8401 52.072C79.1921 51.6827 79.5841 51.368 80.0161 51.128C80.4535 50.888 80.9575 50.768 81.5281 50.768C81.9708 50.768 82.3601 50.8427 82.6961 50.992C83.0375 51.136 83.3201 51.344 83.5441 51.616C83.7735 51.8827 83.9468 52.2053 84.0641 52.584C84.1815 52.9627 84.2401 53.3813 84.2401 53.84V59H82.8161V53.84C82.8161 53.2267 82.6748 52.752 82.3921 52.416C82.1148 52.0747 81.6881 51.904 81.1121 51.904C80.6908 51.904 80.2961 52.0053 79.9281 52.208C79.5655 52.4107 79.2295 52.6853 78.9201 53.032V59H77.4961ZM88.8428 59.128C88.2028 59.128 87.7094 58.9493 87.3628 58.592C87.0214 58.2347 86.8508 57.72 86.8508 57.048V52.088H85.8748C85.7894 52.088 85.7174 52.064 85.6588 52.016C85.6001 51.9627 85.5708 51.8827 85.5708 51.776V51.208L86.8988 51.04L87.2268 48.536C87.2374 48.456 87.2721 48.392 87.3307 48.344C87.3894 48.2907 87.4641 48.264 87.5548 48.264H88.2748V51.056H90.5948V52.088H88.2748V56.952C88.2748 57.2933 88.3574 57.5467 88.5228 57.712C88.6881 57.8773 88.9014 57.96 89.1628 57.96C89.3121 57.96 89.4401 57.9413 89.5468 57.904C89.6588 57.8613 89.7548 57.816 89.8348 57.768C89.9148 57.72 89.9814 57.6773 90.0348 57.64C90.0934 57.5973 90.1441 57.576 90.1868 57.576C90.2614 57.576 90.3281 57.6213 90.3868 57.712L90.8028 58.392C90.5574 58.6213 90.2614 58.8027 89.9148 58.936C89.5681 59.064 89.2108 59.128 88.8428 59.128ZM96.5773 57.912H99.0413V50.096C99.0413 49.8613 99.0493 49.624 99.0653 49.384L97.0173 51.136C96.9639 51.1787 96.9106 51.2107 96.8573 51.232C96.8039 51.248 96.7533 51.256 96.7053 51.256C96.6253 51.256 96.5533 51.24 96.4893 51.208C96.4253 51.1707 96.3773 51.128 96.3453 51.08L95.8973 50.464L99.3053 47.512H100.465V57.912H102.721V59H96.5773V57.912Z" fill="black"/>
<path d="M73.472 88.632C73.5573 88.632 73.6347 88.6667 73.704 88.736L74.312 89.4C73.8427 89.944 73.272 90.368 72.6 90.672C71.9333 90.976 71.128 91.128 70.184 91.128C69.3573 91.128 68.608 90.9867 67.936 90.704C67.264 90.416 66.6907 90.016 66.216 89.504C65.7413 88.9867 65.3733 88.368 65.112 87.648C64.8507 86.928 64.72 86.136 64.72 85.272C64.72 84.408 64.8587 83.616 65.136 82.896C65.4187 82.176 65.8133 81.5573 66.32 81.04C66.8267 80.5227 67.432 80.1227 68.136 79.84C68.8453 79.552 69.6267 79.408 70.48 79.408C71.3227 79.408 72.048 79.5387 72.656 79.8C73.2693 80.0613 73.8133 80.416 74.288 80.864L73.784 81.576C73.7467 81.6293 73.704 81.6747 73.656 81.712C73.608 81.744 73.5387 81.76 73.448 81.76C73.3787 81.76 73.304 81.736 73.224 81.688C73.1493 81.6347 73.0587 81.5707 72.952 81.496C72.8453 81.4213 72.72 81.3413 72.576 81.256C72.432 81.1707 72.2613 81.0907 72.064 81.016C71.8667 80.9413 71.6373 80.88 71.376 80.832C71.1147 80.7787 70.8133 80.752 70.472 80.752C69.8587 80.752 69.296 80.8587 68.784 81.072C68.2773 81.28 67.84 81.5787 67.472 81.968C67.104 82.3573 66.816 82.832 66.608 83.392C66.4053 83.952 66.304 84.5787 66.304 85.272C66.304 85.9867 66.4053 86.624 66.608 87.184C66.816 87.744 67.096 88.2187 67.448 88.608C67.8053 88.992 68.2267 89.2853 68.712 89.488C69.1973 89.6907 69.72 89.792 70.28 89.792C70.6213 89.792 70.928 89.7733 71.2 89.736C71.472 89.6933 71.7227 89.6293 71.952 89.544C72.1867 89.4587 72.4027 89.352 72.6 89.224C72.8027 89.0907 73.0053 88.9333 73.208 88.752C73.2987 88.672 73.3867 88.632 73.472 88.632ZM76.1211 91V79.216H77.5451V83.984C77.8918 83.616 78.2758 83.3227 78.6971 83.104C79.1185 82.88 79.6038 82.768 80.1531 82.768C80.5958 82.768 80.9851 82.8427 81.3211 82.992C81.6625 83.136 81.9451 83.344 82.1691 83.616C82.3985 83.8827 82.5718 84.2053 82.6891 84.584C82.8065 84.9627 82.8651 85.3813 82.8651 85.84V91H81.4411V85.84C81.4411 85.2267 81.2998 84.752 81.0171 84.416C80.7398 84.0747 80.3131 83.904 79.7371 83.904C79.3158 83.904 78.9211 84.0053 78.5531 84.208C78.1905 84.4107 77.8545 84.6853 77.5451 85.032V91H76.1211ZM86.5958 82.896V91H85.1718V82.896H86.5958ZM86.9158 80.352C86.9158 80.4907 86.8864 80.6213 86.8278 80.744C86.7744 80.8613 86.6998 80.968 86.6038 81.064C86.5131 81.1547 86.4064 81.2267 86.2838 81.28C86.1611 81.3333 86.0304 81.36 85.8918 81.36C85.7531 81.36 85.6224 81.3333 85.4998 81.28C85.3824 81.2267 85.2758 81.1547 85.1798 81.064C85.0891 80.968 85.0171 80.8613 84.9638 80.744C84.9104 80.6213 84.8838 80.4907 84.8838 80.352C84.8838 80.2133 84.9104 80.0827 84.9638 79.96C85.0171 79.832 85.0891 79.7227 85.1798 79.632C85.2758 79.536 85.3824 79.4613 85.4998 79.408C85.6224 79.3547 85.7531 79.328 85.8918 79.328C86.0304 79.328 86.1611 79.3547 86.2838 79.408C86.4064 79.4613 86.5131 79.536 86.6038 79.632C86.6998 79.7227 86.7744 79.832 86.8278 79.96C86.8864 80.0827 86.9158 80.2133 86.9158 80.352ZM90.6895 79.216V91H89.2655V79.216H90.6895ZM98.9033 91C98.7006 91 98.5726 90.9013 98.5193 90.704L98.3913 89.72C98.0446 90.1413 97.6473 90.48 97.1993 90.736C96.7566 90.9867 96.2473 91.112 95.6713 91.112C95.2073 91.112 94.7859 91.024 94.4073 90.848C94.0286 90.6667 93.7059 90.4027 93.4393 90.056C93.1726 89.7093 92.9673 89.2773 92.8233 88.76C92.6793 88.2427 92.6073 87.648 92.6073 86.976C92.6073 86.3787 92.6873 85.824 92.8473 85.312C93.0073 84.7947 93.2366 84.3467 93.5353 83.968C93.8393 83.5893 94.2073 83.2933 94.6393 83.08C95.0713 82.8613 95.5619 82.752 96.1113 82.752C96.6073 82.752 97.0313 82.8373 97.3833 83.008C97.7353 83.1733 98.0499 83.408 98.3273 83.712V79.216H99.7513V91H98.9033ZM96.1432 89.96C96.6073 89.96 97.0126 89.8533 97.3593 89.64C97.7113 89.4267 98.0339 89.1253 98.3273 88.736V84.816C98.0659 84.464 97.7779 84.2187 97.4633 84.08C97.1539 83.936 96.8099 83.864 96.4313 83.864C95.6739 83.864 95.0926 84.1333 94.6873 84.672C94.2819 85.2107 94.0793 85.9787 94.0793 86.976C94.0793 87.504 94.1246 87.9573 94.2153 88.336C94.3059 88.7093 94.4393 89.0187 94.6153 89.264C94.7913 89.504 95.0073 89.68 95.2633 89.792C95.5193 89.904 95.8126 89.96 96.1432 89.96ZM106.359 89.912H108.823V82.096C108.823 81.8613 108.831 81.624 108.847 81.384L106.799 83.136C106.745 83.1787 106.692 83.2107 106.639 83.232C106.585 83.248 106.535 83.256 106.487 83.256C106.407 83.256 106.335 83.24 106.271 83.208C106.207 83.1707 106.159 83.128 106.127 83.08L105.679 82.464L109.087 79.512H110.247V89.912H112.503V91H106.359V89.912ZM73.472 120.632C73.5573 120.632 73.6347 120.667 73.704 120.736L74.312 121.4C73.8427 121.944 73.272 122.368 72.6 122.672C71.9333 122.976 71.128 123.128 70.184 123.128C69.3573 123.128 68.608 122.987 67.936 122.704C67.264 122.416 66.6907 122.016 66.216 121.504C65.7413 120.987 65.3733 120.368 65.112 119.648C64.8507 118.928 64.72 118.136 64.72 117.272C64.72 116.408 64.8587 115.616 65.136 114.896C65.4187 114.176 65.8133 113.557 66.32 113.04C66.8267 112.523 67.432 112.123 68.136 111.84C68.8453 111.552 69.6267 111.408 70.48 111.408C71.3227 111.408 72.048 111.539 72.656 111.8C73.2693 112.061 73.8133 112.416 74.288 112.864L73.784 113.576C73.7467 113.629 73.704 113.675 73.656 113.712C73.608 113.744 73.5387 113.76 73.448 113.76C73.3787 113.76 73.304 113.736 73.224 113.688C73.1493 113.635 73.0587 113.571 72.952 113.496C72.8453 113.421 72.72 113.341 72.576 113.256C72.432 113.171 72.2613 113.091 72.064 113.016C71.8667 112.941 71.6373 112.88 71.376 112.832C71.1147 112.779 70.8133 112.752 70.472 112.752C69.8587 112.752 69.296 112.859 68.784 113.072C68.2773 113.28 67.84 113.579 67.472 113.968C67.104 114.357 66.816 114.832 66.608 115.392C66.4053 115.952 66.304 116.579 66.304 117.272C66.304 117.987 66.4053 118.624 66.608 119.184C66.816 119.744 67.096 120.219 67.448 120.608C67.8053 120.992 68.2267 121.285 68.712 121.488C69.1973 121.691 69.72 121.792 70.28 121.792C70.6213 121.792 70.928 121.773 71.2 121.736C71.472 121.693 71.7227 121.629 71.952 121.544C72.1867 121.459 72.4027 121.352 72.6 121.224C72.8027 121.091 73.0053 120.933 73.208 120.752C73.2987 120.672 73.3867 120.632 73.472 120.632ZM76.1211 123V111.216H77.5451V115.984C77.8918 115.616 78.2758 115.323 78.6971 115.104C79.1185 114.88 79.6038 114.768 80.1531 114.768C80.5958 114.768 80.9851 114.843 81.3211 114.992C81.6625 115.136 81.9451 115.344 82.1691 115.616C82.3985 115.883 82.5718 116.205 82.6891 116.584C82.8065 116.963 82.8651 117.381 82.8651 117.84V123H81.4411V117.84C81.4411 117.227 81.2998 116.752 81.0171 116.416C80.7398 116.075 80.3131 115.904 79.7371 115.904C79.3158 115.904 78.9211 116.005 78.5531 116.208C78.1905 116.411 77.8545 116.685 77.5451 117.032V123H76.1211ZM86.5958 114.896V123H85.1718V114.896H86.5958ZM86.9158 112.352C86.9158 112.491 86.8864 112.621 86.8278 112.744C86.7744 112.861 86.6998 112.968 86.6038 113.064C86.5131 113.155 86.4064 113.227 86.2838 113.28C86.1611 113.333 86.0304 113.36 85.8918 113.36C85.7531 113.36 85.6224 113.333 85.4998 113.28C85.3824 113.227 85.2758 113.155 85.1798 113.064C85.0891 112.968 85.0171 112.861 84.9638 112.744C84.9104 112.621 84.8838 112.491 84.8838 112.352C84.8838 112.213 84.9104 112.083 84.9638 111.96C85.0171 111.832 85.0891 111.723 85.1798 111.632C85.2758 111.536 85.3824 111.461 85.4998 111.408C85.6224 111.355 85.7531 111.328 85.8918 111.328C86.0304 111.328 86.1611 111.355 86.2838 111.408C86.4064 111.461 86.5131 111.536 86.6038 111.632C86.6998 111.723 86.7744 111.832 86.8278 111.96C86.8864 112.083 86.9158 112.213 86.9158 112.352ZM90.6895 111.216V123H89.2655V111.216H90.6895ZM98.9033 123C98.7006 123 98.5726 122.901 98.5193 122.704L98.3913 121.72C98.0446 122.141 97.6473 122.48 97.1993 122.736C96.7566 122.987 96.2473 123.112 95.6713 123.112C95.2073 123.112 94.7859 123.024 94.4073 122.848C94.0286 122.667 93.7059 122.403 93.4393 122.056C93.1726 121.709 92.9673 121.277 92.8233 120.76C92.6793 120.243 92.6073 119.648 92.6073 118.976C92.6073 118.379 92.6873 117.824 92.8473 117.312C93.0073 116.795 93.2366 116.347 93.5353 115.968C93.8393 115.589 94.2073 115.293 94.6393 115.08C95.0713 114.861 95.5619 114.752 96.1113 114.752C96.6073 114.752 97.0313 114.837 97.3833 115.008C97.7353 115.173 98.0499 115.408 98.3273 115.712V111.216H99.7513V123H98.9033ZM96.1432 121.96C96.6073 121.96 97.0126 121.853 97.3593 121.64C97.7113 121.427 98.0339 121.125 98.3273 120.736V116.816C98.0659 116.464 97.7779 116.219 97.4633 116.08C97.1539 115.936 96.8099 115.864 96.4313 115.864C95.6739 115.864 95.0926 116.133 94.6873 116.672C94.2819 117.211 94.0793 117.979 94.0793 118.976C94.0793 119.504 94.1246 119.957 94.2153 120.336C94.3059 120.709 94.4393 121.019 94.6153 121.264C94.7913 121.504 95.0073 121.68 95.2633 121.792C95.5193 121.904 95.8126 121.96 96.1432 121.96ZM108.871 111.408C109.356 111.408 109.809 111.48 110.231 111.624C110.652 111.768 111.015 111.979 111.319 112.256C111.628 112.528 111.871 112.861 112.047 113.256C112.223 113.651 112.311 114.099 112.311 114.6C112.311 115.027 112.247 115.421 112.119 115.784C111.991 116.147 111.817 116.496 111.599 116.832C111.38 117.163 111.127 117.485 110.839 117.8C110.556 118.109 110.255 118.427 109.935 118.752L106.919 121.84C107.132 121.781 107.348 121.736 107.567 121.704C107.785 121.667 107.996 121.648 108.199 121.648H112.039C112.193 121.648 112.316 121.693 112.407 121.784C112.497 121.875 112.543 121.992 112.543 122.136V123H104.895V122.512C104.895 122.411 104.913 122.307 104.951 122.2C104.993 122.093 105.06 121.995 105.151 121.904L108.823 118.216C109.127 117.907 109.404 117.611 109.655 117.328C109.905 117.04 110.119 116.752 110.295 116.464C110.476 116.176 110.615 115.885 110.711 115.592C110.807 115.293 110.855 114.976 110.855 114.64C110.855 114.304 110.801 114.011 110.695 113.76C110.588 113.504 110.441 113.293 110.255 113.128C110.068 112.963 109.849 112.84 109.599 112.76C109.348 112.675 109.079 112.632 108.791 112.632C108.503 112.632 108.236 112.675 107.991 112.76C107.745 112.845 107.527 112.965 107.335 113.12C107.148 113.269 106.988 113.448 106.855 113.656C106.727 113.864 106.636 114.093 106.583 114.344C106.54 114.499 106.476 114.611 106.391 114.68C106.305 114.749 106.193 114.784 106.055 114.784C106.028 114.784 105.999 114.784 105.967 114.784C105.94 114.779 105.908 114.773 105.871 114.768L105.127 114.64C105.201 114.117 105.345 113.656 105.559 113.256C105.772 112.851 106.041 112.512 106.367 112.24C106.697 111.968 107.073 111.763 107.495 111.624C107.921 111.48 108.38 111.408 108.871 111.408ZM73.472 152.632C73.5573 152.632 73.6347 152.667 73.704 152.736L74.312 153.4C73.8427 153.944 73.272 154.368 72.6 154.672C71.9333 154.976 71.128 155.128 70.184 155.128C69.3573 155.128 68.608 154.987 67.936 154.704C67.264 154.416 66.6907 154.016 66.216 153.504C65.7413 152.987 65.3733 152.368 65.112 151.648C64.8507 150.928 64.72 150.136 64.72 149.272C64.72 148.408 64.8587 147.616 65.136 146.896C65.4187 146.176 65.8133 145.557 66.32 145.04C66.8267 144.523 67.432 144.123 68.136 143.84C68.8453 143.552 69.6267 143.408 70.48 143.408C71.3227 143.408 72.048 143.539 72.656 143.8C73.2693 144.061 73.8133 144.416 74.288 144.864L73.784 145.576C73.7467 145.629 73.704 145.675 73.656 145.712C73.608 145.744 73.5387 145.76 73.448 145.76C73.3787 145.76 73.304 145.736 73.224 145.688C73.1493 145.635 73.0587 145.571 72.952 145.496C72.8453 145.421 72.72 145.341 72.576 145.256C72.432 145.171 72.2613 145.091 72.064 145.016C71.8667 144.941 71.6373 144.88 71.376 144.832C71.1147 144.779 70.8133 144.752 70.472 144.752C69.8587 144.752 69.296 144.859 68.784 145.072C68.2773 145.28 67.84 145.579 67.472 145.968C67.104 146.357 66.816 146.832 66.608 147.392C66.4053 147.952 66.304 148.579 66.304 149.272C66.304 149.987 66.4053 150.624 66.608 151.184C66.816 151.744 67.096 152.219 67.448 152.608C67.8053 152.992 68.2267 153.285 68.712 153.488C69.1973 153.691 69.72 153.792 70.28 153.792C70.6213 153.792 70.928 153.773 71.2 153.736C71.472 153.693 71.7227 153.629 71.952 153.544C72.1867 153.459 72.4027 153.352 72.6 153.224C72.8027 153.091 73.0053 152.933 73.208 152.752C73.2987 152.672 73.3867 152.632 73.472 152.632ZM76.1211 155V143.216H77.5451V147.984C77.8918 147.616 78.2758 147.323 78.6971 147.104C79.1185 146.88 79.6038 146.768 80.1531 146.768C80.5958 146.768 80.9851 146.843 81.3211 146.992C81.6625 147.136 81.9451 147.344 82.1691 147.616C82.3985 147.883 82.5718 148.205 82.6891 148.584C82.8065 148.963 82.8651 149.381 82.8651 149.84V155H81.4411V149.84C81.4411 149.227 81.2998 148.752 81.0171 148.416C80.7398 148.075 80.3131 147.904 79.7371 147.904C79.3158 147.904 78.9211 148.005 78.5531 148.208C78.1905 148.411 77.8545 148.685 77.5451 149.032V155H76.1211ZM86.5958 146.896V155H85.1718V146.896H86.5958ZM86.9158 144.352C86.9158 144.491 86.8864 144.621 86.8278 144.744C86.7744 144.861 86.6998 144.968 86.6038 145.064C86.5131 145.155 86.4064 145.227 86.2838 145.28C86.1611 145.333 86.0304 145.36 85.8918 145.36C85.7531 145.36 85.6224 145.333 85.4998 145.28C85.3824 145.227 85.2758 145.155 85.1798 145.064C85.0891 144.968 85.0171 144.861 84.9638 144.744C84.9104 144.621 84.8838 144.491 84.8838 144.352C84.8838 144.213 84.9104 144.083 84.9638 143.96C85.0171 143.832 85.0891 143.723 85.1798 143.632C85.2758 143.536 85.3824 143.461 85.4998 143.408C85.6224 143.355 85.7531 143.328 85.8918 143.328C86.0304 143.328 86.1611 143.355 86.2838 143.408C86.4064 143.461 86.5131 143.536 86.6038 143.632C86.6998 143.723 86.7744 143.832 86.8278 143.96C86.8864 144.083 86.9158 144.213 86.9158 144.352ZM90.6895 143.216V155H89.2655V143.216H90.6895ZM98.9033 155C98.7006 155 98.5726 154.901 98.5193 154.704L98.3913 153.72C98.0446 154.141 97.6473 154.48 97.1993 154.736C96.7566 154.987 96.2473 155.112 95.6713 155.112C95.2073 155.112 94.7859 155.024 94.4073 154.848C94.0286 154.667 93.7059 154.403 93.4393 154.056C93.1726 153.709 92.9673 153.277 92.8233 152.76C92.6793 152.243 92.6073 151.648 92.6073 150.976C92.6073 150.379 92.6873 149.824 92.8473 149.312C93.0073 148.795 93.2366 148.347 93.5353 147.968C93.8393 147.589 94.2073 147.293 94.6393 147.08C95.0713 146.861 95.5619 146.752 96.1113 146.752C96.6073 146.752 97.0313 146.837 97.3833 147.008C97.7353 147.173 98.0499 147.408 98.3273 147.712V143.216H99.7513V155H98.9033ZM96.1432 153.96C96.6073 153.96 97.0126 153.853 97.3593 153.64C97.7113 153.427 98.0339 153.125 98.3273 152.736V148.816C98.0659 148.464 97.7779 148.219 97.4633 148.08C97.1539 147.936 96.8099 147.864 96.4313 147.864C95.6739 147.864 95.0926 148.133 94.6873 148.672C94.2819 149.211 94.0793 149.979 94.0793 150.976C94.0793 151.504 94.1246 151.957 94.2153 152.336C94.3059 152.709 94.4393 153.019 94.6153 153.264C94.7913 153.504 95.0073 153.68 95.2633 153.792C95.5193 153.904 95.8126 153.96 96.1432 153.96ZM109.023 143.408C109.508 143.408 109.956 143.477 110.367 143.616C110.777 143.755 111.129 143.952 111.423 144.208C111.721 144.464 111.953 144.773 112.119 145.136C112.284 145.499 112.367 145.901 112.367 146.344C112.367 146.707 112.319 147.032 112.223 147.32C112.132 147.603 111.999 147.853 111.823 148.072C111.652 148.285 111.444 148.467 111.199 148.616C110.953 148.765 110.679 148.885 110.375 148.976C111.121 149.173 111.681 149.504 112.055 149.968C112.433 150.432 112.623 151.013 112.623 151.712C112.623 152.24 112.521 152.715 112.319 153.136C112.121 153.557 111.849 153.917 111.503 154.216C111.156 154.509 110.751 154.736 110.287 154.896C109.828 155.051 109.335 155.128 108.807 155.128C108.199 155.128 107.679 155.053 107.247 154.904C106.815 154.749 106.449 154.539 106.151 154.272C105.852 154.005 105.607 153.691 105.415 153.328C105.223 152.96 105.06 152.563 104.927 152.136L105.535 151.88C105.647 151.832 105.759 151.808 105.871 151.808C105.977 151.808 106.071 151.832 106.151 151.88C106.236 151.923 106.3 151.992 106.343 152.088C106.353 152.109 106.364 152.133 106.375 152.16C106.385 152.181 106.396 152.205 106.407 152.232C106.481 152.387 106.572 152.563 106.679 152.76C106.785 152.952 106.929 153.133 107.111 153.304C107.292 153.475 107.516 153.619 107.783 153.736C108.055 153.853 108.391 153.912 108.791 153.912C109.191 153.912 109.54 153.848 109.839 153.72C110.143 153.587 110.393 153.416 110.591 153.208C110.793 153 110.945 152.768 111.047 152.512C111.148 152.256 111.199 152.003 111.199 151.752C111.199 151.443 111.156 151.16 111.071 150.904C110.991 150.648 110.841 150.427 110.623 150.24C110.409 150.053 110.111 149.907 109.727 149.8C109.348 149.693 108.86 149.64 108.263 149.64V148.608C108.748 148.603 109.161 148.549 109.503 148.448C109.849 148.347 110.132 148.208 110.351 148.032C110.569 147.856 110.727 147.645 110.823 147.4C110.924 147.155 110.975 146.883 110.975 146.584C110.975 146.253 110.921 145.965 110.815 145.72C110.713 145.475 110.572 145.272 110.391 145.112C110.209 144.952 109.993 144.832 109.743 144.752C109.497 144.672 109.231 144.632 108.943 144.632C108.655 144.632 108.388 144.675 108.143 144.76C107.897 144.845 107.679 144.965 107.487 145.12C107.3 145.269 107.143 145.451 107.015 145.664C106.887 145.872 106.791 146.099 106.727 146.344C106.684 146.499 106.62 146.611 106.535 146.68C106.449 146.749 106.34 146.784 106.207 146.784C106.18 146.784 106.151 146.784 106.118 146.784C106.092 146.779 106.06 146.773 106.023 146.768L105.279 146.64C105.353 146.117 105.497 145.656 105.711 145.256C105.924 144.851 106.193 144.512 106.519 144.24C106.849 143.968 107.225 143.763 107.647 143.624C108.073 143.48 108.532 143.408 109.023 143.408ZM73.472 184.632C73.5573 184.632 73.6347 184.667 73.704 184.736L74.312 185.4C73.8427 185.944 73.272 186.368 72.6 186.672C71.9333 186.976 71.128 187.128 70.184 187.128C69.3573 187.128 68.608 186.987 67.936 186.704C67.264 186.416 66.6907 186.016 66.216 185.504C65.7413 184.987 65.3733 184.368 65.112 183.648C64.8507 182.928 64.72 182.136 64.72 181.272C64.72 180.408 64.8587 179.616 65.136 178.896C65.4187 178.176 65.8133 177.557 66.32 177.04C66.8267 176.523 67.432 176.123 68.136 175.84C68.8453 175.552 69.6267 175.408 70.48 175.408C71.3227 175.408 72.048 175.539 72.656 175.8C73.2693 176.061 73.8133 176.416 74.288 176.864L73.784 177.576C73.7467 177.629 73.704 177.675 73.656 177.712C73.608 177.744 73.5387 177.76 73.448 177.76C73.3787 177.76 73.304 177.736 73.224 177.688C73.1493 177.635 73.0587 177.571 72.952 177.496C72.8453 177.421 72.72 177.341 72.576 177.256C72.432 177.171 72.2613 177.091 72.064 177.016C71.8667 176.941 71.6373 176.88 71.376 176.832C71.1147 176.779 70.8133 176.752 70.472 176.752C69.8587 176.752 69.296 176.859 68.784 177.072C68.2773 177.28 67.84 177.579 67.472 177.968C67.104 178.357 66.816 178.832 66.608 179.392C66.4053 179.952 66.304 180.579 66.304 181.272C66.304 181.987 66.4053 182.624 66.608 183.184C66.816 183.744 67.096 184.219 67.448 184.608C67.8053 184.992 68.2267 185.285 68.712 185.488C69.1973 185.691 69.72 185.792 70.28 185.792C70.6213 185.792 70.928 185.773 71.2 185.736C71.472 185.693 71.7227 185.629 71.952 185.544C72.1867 185.459 72.4027 185.352 72.6 185.224C72.8027 185.091 73.0053 184.933 73.208 184.752C73.2987 184.672 73.3867 184.632 73.472 184.632ZM76.1211 187V175.216H77.5451V179.984C77.8918 179.616 78.2758 179.323 78.6971 179.104C79.1185 178.88 79.6038 178.768 80.1531 178.768C80.5958 178.768 80.9851 178.843 81.3211 178.992C81.6625 179.136 81.9451 179.344 82.1691 179.616C82.3985 179.883 82.5718 180.205 82.6891 180.584C82.8065 180.963 82.8651 181.381 82.8651 181.84V187H81.4411V181.84C81.4411 181.227 81.2998 180.752 81.0171 180.416C80.7398 180.075 80.3131 179.904 79.7371 179.904C79.3158 179.904 78.9211 180.005 78.5531 180.208C78.1905 180.411 77.8545 180.685 77.5451 181.032V187H76.1211ZM86.5958 178.896V187H85.1718V178.896H86.5958ZM86.9158 176.352C86.9158 176.491 86.8864 176.621 86.8278 176.744C86.7744 176.861 86.6998 176.968 86.6038 177.064C86.5131 177.155 86.4064 177.227 86.2838 177.28C86.1611 177.333 86.0304 177.36 85.8918 177.36C85.7531 177.36 85.6224 177.333 85.4998 177.28C85.3824 177.227 85.2758 177.155 85.1798 177.064C85.0891 176.968 85.0171 176.861 84.9638 176.744C84.9104 176.621 84.8838 176.491 84.8838 176.352C84.8838 176.213 84.9104 176.083 84.9638 175.96C85.0171 175.832 85.0891 175.723 85.1798 175.632C85.2758 175.536 85.3824 175.461 85.4998 175.408C85.6224 175.355 85.7531 175.328 85.8918 175.328C86.0304 175.328 86.1611 175.355 86.2838 175.408C86.4064 175.461 86.5131 175.536 86.6038 175.632C86.6998 175.723 86.7744 175.832 86.8278 175.96C86.8864 176.083 86.9158 176.213 86.9158 176.352ZM90.6895 175.216V187H89.2655V175.216H90.6895ZM98.9033 187C98.7006 187 98.5726 186.901 98.5193 186.704L98.3913 185.72C98.0446 186.141 97.6473 186.48 97.1993 186.736C96.7566 186.987 96.2473 187.112 95.6713 187.112C95.2073 187.112 94.7859 187.024 94.4073 186.848C94.0286 186.667 93.7059 186.403 93.4393 186.056C93.1726 185.709 92.9673 185.277 92.8233 184.76C92.6793 184.243 92.6073 183.648 92.6073 182.976C92.6073 182.379 92.6873 181.824 92.8473 181.312C93.0073 180.795 93.2366 180.347 93.5353 179.968C93.8393 179.589 94.2073 179.293 94.6393 179.08C95.0713 178.861 95.5619 178.752 96.1113 178.752C96.6073 178.752 97.0313 178.837 97.3833 179.008C97.7353 179.173 98.0499 179.408 98.3273 179.712V175.216H99.7513V187H98.9033ZM96.1432 185.96C96.6073 185.96 97.0126 185.853 97.3593 185.64C97.7113 185.427 98.0339 185.125 98.3273 184.736V180.816C98.0659 180.464 97.7779 180.219 97.4633 180.08C97.1539 179.936 96.8099 179.864 96.4313 179.864C95.6739 179.864 95.0926 180.133 94.6873 180.672C94.2819 181.211 94.0793 181.979 94.0793 182.976C94.0793 183.504 94.1246 183.957 94.2153 184.336C94.3059 184.709 94.4393 185.019 94.6153 185.264C94.7913 185.504 95.0073 185.68 95.2633 185.792C95.5193 185.904 95.8126 185.96 96.1432 185.96ZM111.287 182.864H113.023V183.68C113.023 183.765 112.996 183.837 112.943 183.896C112.895 183.955 112.817 183.984 112.711 183.984H111.287V187H110.031V183.984H104.951C104.844 183.984 104.751 183.955 104.671 183.896C104.596 183.832 104.548 183.755 104.527 183.664L104.383 182.936L109.959 175.536H111.287V182.864ZM110.031 178.136C110.031 177.997 110.033 177.848 110.039 177.688C110.049 177.528 110.068 177.363 110.095 177.192L105.927 182.864H110.031V178.136Z" fill="black"/>
<path d="M49.5517 77H41V93H53.293V80.7687L49.5517 77ZM49.7417 78.1157L52.1854 80.5773H49.7417V78.1157V78.1157ZM41.6512 92.3488V77.6512H49.0905V81.2285H52.6418V92.3488H41.6512V92.3488Z" fill="black"/>
<path d="M48.1898 80.5773H42.8989V81.2285H48.1898V80.5773Z" fill="black"/>
<path d="M51.3941 83.5607H42.8989V84.2119H51.3941V83.5607Z" fill="black"/>
<path d="M51.3941 86.5441H42.8989V87.1952H51.3941V86.5441Z" fill="black"/>
<path d="M51.3941 89.5274H42.8989V90.1786H51.3941V89.5274Z" fill="black"/>
<path d="M49.5517 141H41V157H53.293V144.769L49.5517 141ZM49.7417 142.116L52.1854 144.577H49.7417V142.116V142.116ZM41.6512 156.349V141.651H49.0905V145.228H52.6418V156.349H41.6512V156.349Z" fill="black"/>
<path d="M48.1898 144.577H42.8989V145.228H48.1898V144.577Z" fill="black"/>
<path d="M51.3941 147.561H42.8989V148.212H51.3941V147.561Z" fill="black"/>
<path d="M51.3941 150.544H42.8989V151.195H51.3941V150.544Z" fill="black"/>
<path d="M51.3941 153.527H42.8989V154.179H51.3941V153.527Z" fill="black"/>
<path d="M49.5517 172H41V188H53.293V175.769L49.5517 172ZM49.7417 173.116L52.1854 175.577H49.7417V173.116V173.116ZM41.6512 187.349V172.651H49.0905V176.228H52.6418V187.349H41.6512V187.349Z" fill="black"/>
<path d="M48.1898 175.577H42.8989V176.228H48.1898V175.577Z" fill="black"/>
<path d="M51.3941 178.561H42.8989V179.212H51.3941V178.561Z" fill="black"/>
<path d="M51.3941 181.544H42.8989V182.195H51.3941V181.544Z" fill="black"/>
<path d="M51.3941 184.527H42.8989V185.179H51.3941V184.527Z" fill="black"/>
<path d="M34.8868 47.2722C34.8149 47.1997 34.7167 47.1592 34.6147 47.1592H24.3744V47.1988L23.8843 46.0032L19 46V58.8004H34.996V57.9816L35 47.5451C34.9997 47.4425 34.9598 47.3446 34.8868 47.2722ZM34.2283 47.9303L34.2278 48.8245H25.0406L24.6738 47.9303H34.2283ZM34.2254 58.0296H19.7702V46.7713L23.3669 46.7739L24.5235 49.5952H34.2258V58.0296H34.2254V58.0296Z" fill="#010002"/>
<path d="M54.8868 112.272C54.8149 112.2 54.7167 112.159 54.6147 112.159H44.3744V112.199L43.8843 111.003L39 111V123.8H54.996V122.982L55 112.545C54.9997 112.443 54.9598 112.345 54.8868 112.272ZM54.2283 112.93L54.2278 113.824H45.0406L44.6738 112.93H54.2283ZM54.2254 123.03H39.7702V111.771L43.3669 111.774L44.5235 114.595H54.2258V123.03H54.2254V123.03Z" fill="#010002"/>
<path d="M7.368 240.536C7.30933 240.653 7.24 240.736 7.16 240.784C7.08533 240.832 6.99467 240.856 6.888 240.856C6.78133 240.856 6.66133 240.816 6.528 240.736C6.39467 240.651 6.23733 240.557 6.056 240.456C5.87467 240.355 5.66133 240.264 5.416 240.184C5.176 240.099 4.89067 240.056 4.56 240.056C4.26133 240.056 4 240.093 3.776 240.168C3.55733 240.237 3.37067 240.336 3.216 240.464C3.06667 240.592 2.95467 240.747 2.88 240.928C2.80533 241.104 2.768 241.299 2.768 241.512C2.768 241.784 2.84267 242.011 2.992 242.192C3.14667 242.373 3.34933 242.528 3.6 242.656C3.85067 242.784 4.136 242.899 4.456 243C4.776 243.101 5.10133 243.211 5.432 243.328C5.768 243.44 6.096 243.573 6.416 243.728C6.736 243.877 7.02133 244.069 7.272 244.304C7.52267 244.533 7.72267 244.816 7.872 245.152C8.02667 245.488 8.104 245.896 8.104 246.376C8.104 246.899 8.01333 247.389 7.832 247.848C7.656 248.301 7.39467 248.699 7.048 249.04C6.70667 249.376 6.288 249.643 5.792 249.84C5.296 250.032 4.728 250.128 4.088 250.128C3.72 250.128 3.35733 250.091 3 250.016C2.64267 249.947 2.29867 249.845 1.968 249.712C1.64267 249.579 1.336 249.419 1.048 249.232C0.765333 249.045 0.512 248.837 0.288 248.608L0.912 247.576C0.970667 247.501 1.04 247.44 1.12 247.392C1.20533 247.339 1.29867 247.312 1.4 247.312C1.53333 247.312 1.67733 247.368 1.832 247.48C1.98667 247.587 2.168 247.707 2.376 247.84C2.58933 247.973 2.83733 248.096 3.12 248.208C3.408 248.315 3.752 248.368 4.152 248.368C4.76533 248.368 5.24 248.224 5.576 247.936C5.912 247.643 6.08 247.224 6.08 246.68C6.08 246.376 6.00267 246.128 5.848 245.936C5.69867 245.744 5.49867 245.584 5.248 245.456C4.99733 245.323 4.712 245.211 4.392 245.12C4.072 245.029 3.74667 244.931 3.416 244.824C3.08533 244.717 2.76 244.589 2.44 244.44C2.12 244.291 1.83467 244.096 1.584 243.856C1.33333 243.616 1.13067 243.317 0.976 242.96C0.826667 242.597 0.752 242.152 0.752 241.624C0.752 241.203 0.834667 240.792 1 240.392C1.17067 239.992 1.416 239.637 1.736 239.328C2.06133 239.019 2.45867 238.771 2.928 238.584C3.39733 238.397 3.93333 238.304 4.536 238.304C5.21867 238.304 5.848 238.411 6.424 238.624C7 238.837 7.49067 239.136 7.896 239.52L7.368 240.536ZM13.0261 241.664C13.5435 241.664 14.0181 241.747 14.4501 241.912C14.8875 242.077 15.2635 242.32 15.5781 242.64C15.8928 242.955 16.1381 243.344 16.3141 243.808C16.4901 244.267 16.5781 244.792 16.5781 245.384C16.5781 245.533 16.5701 245.659 16.5541 245.76C16.5435 245.856 16.5195 245.933 16.4821 245.992C16.4501 246.045 16.4048 246.085 16.3461 246.112C16.2875 246.133 16.2128 246.144 16.1221 246.144H11.0501C11.1088 246.987 11.3355 247.605 11.7301 248C12.1248 248.395 12.6475 248.592 13.2981 248.592C13.6181 248.592 13.8928 248.555 14.1221 248.48C14.3568 248.405 14.5595 248.323 14.7301 248.232C14.9061 248.141 15.0581 248.059 15.1861 247.984C15.3195 247.909 15.4475 247.872 15.5701 247.872C15.6501 247.872 15.7195 247.888 15.7781 247.92C15.8368 247.952 15.8875 247.997 15.9301 248.056L16.5061 248.776C16.2875 249.032 16.0421 249.248 15.7701 249.424C15.4981 249.595 15.2128 249.733 14.9141 249.84C14.6208 249.941 14.3195 250.013 14.0101 250.056C13.7061 250.099 13.4101 250.12 13.1221 250.12C12.5515 250.12 12.0208 250.027 11.5301 249.84C11.0395 249.648 10.6128 249.368 10.2501 249C9.88746 248.627 9.60213 248.168 9.39413 247.624C9.18613 247.075 9.08213 246.44 9.08213 245.72C9.08213 245.16 9.17279 244.635 9.35413 244.144C9.53546 243.648 9.79413 243.219 10.1301 242.856C10.4715 242.488 10.8848 242.197 11.3701 241.984C11.8608 241.771 12.4128 241.664 13.0261 241.664ZM13.0661 243.08C12.4901 243.08 12.0395 243.243 11.7141 243.568C11.3888 243.893 11.1808 244.355 11.0901 244.952H14.8021C14.8021 244.696 14.7675 244.456 14.6981 244.232C14.6288 244.003 14.5221 243.803 14.3781 243.632C14.2341 243.461 14.0528 243.328 13.8341 243.232C13.6155 243.131 13.3595 243.08 13.0661 243.08ZM23.949 243.528C23.8903 243.603 23.8317 243.661 23.773 243.704C23.7197 243.747 23.6397 243.768 23.533 243.768C23.4317 243.768 23.333 243.739 23.237 243.68C23.141 243.616 23.0263 243.547 22.893 243.472C22.7597 243.392 22.5997 243.323 22.413 243.264C22.2317 243.2 22.005 243.168 21.733 243.168C21.3863 243.168 21.0823 243.232 20.821 243.36C20.5597 243.483 20.341 243.661 20.165 243.896C19.9943 244.131 19.8663 244.416 19.781 244.752C19.6957 245.083 19.653 245.459 19.653 245.88C19.653 246.317 19.6983 246.707 19.789 247.048C19.885 247.389 20.021 247.677 20.197 247.912C20.373 248.141 20.5863 248.317 20.837 248.44C21.0877 248.557 21.3703 248.616 21.685 248.616C21.9997 248.616 22.253 248.579 22.445 248.504C22.6423 248.424 22.8077 248.339 22.941 248.248C23.0743 248.152 23.189 248.067 23.285 247.992C23.3863 247.912 23.4983 247.872 23.621 247.872C23.781 247.872 23.901 247.933 23.981 248.056L24.549 248.776C24.3303 249.032 24.093 249.248 23.837 249.424C23.581 249.595 23.3143 249.733 23.037 249.84C22.765 249.941 22.4823 250.013 22.189 250.056C21.8957 250.099 21.605 250.12 21.317 250.12C20.8103 250.12 20.333 250.027 19.885 249.84C19.437 249.648 19.045 249.371 18.709 249.008C18.3783 248.645 18.1143 248.203 17.917 247.68C17.725 247.152 17.629 246.552 17.629 245.88C17.629 245.277 17.7143 244.72 17.885 244.208C18.061 243.691 18.317 243.245 18.653 242.872C18.989 242.493 19.405 242.197 19.901 241.984C20.397 241.771 20.9677 241.664 21.613 241.664C22.2263 241.664 22.7623 241.763 23.221 241.96C23.685 242.157 24.101 242.44 24.469 242.808L23.949 243.528ZM29.31 241.664C29.9233 241.664 30.478 241.763 30.974 241.96C31.4753 242.157 31.902 242.437 32.254 242.8C32.606 243.163 32.878 243.605 33.07 244.128C33.262 244.651 33.358 245.235 33.358 245.88C33.358 246.531 33.262 247.117 33.07 247.64C32.878 248.163 32.606 248.608 32.254 248.976C31.902 249.344 31.4753 249.627 30.974 249.824C30.478 250.021 29.9233 250.12 29.31 250.12C28.6967 250.12 28.1393 250.021 27.638 249.824C27.1367 249.627 26.7073 249.344 26.35 248.976C25.998 248.608 25.7233 248.163 25.526 247.64C25.334 247.117 25.238 246.531 25.238 245.88C25.238 245.235 25.334 244.651 25.526 244.128C25.7233 243.605 25.998 243.163 26.35 242.8C26.7073 242.437 27.1367 242.157 27.638 241.96C28.1393 241.763 28.6967 241.664 29.31 241.664ZM29.31 248.6C29.9927 248.6 30.4967 248.371 30.822 247.912C31.1527 247.453 31.318 246.781 31.318 245.896C31.318 245.011 31.1527 244.336 30.822 243.872C30.4967 243.408 29.9927 243.176 29.31 243.176C28.6167 243.176 28.1047 243.411 27.774 243.88C27.4433 244.344 27.278 245.016 27.278 245.896C27.278 246.776 27.4433 247.448 27.774 247.912C28.1047 248.371 28.6167 248.6 29.31 248.6ZM34.8997 250V241.792H36.1078C36.3638 241.792 36.5318 241.912 36.6118 242.152L36.7478 242.8C36.9131 242.629 37.0864 242.475 37.2678 242.336C37.4544 242.197 37.6491 242.077 37.8518 241.976C38.0598 241.875 38.2811 241.797 38.5158 241.744C38.7504 241.691 39.0064 241.664 39.2838 241.664C39.7318 241.664 40.1291 241.741 40.4758 241.896C40.8224 242.045 41.1104 242.259 41.3398 242.536C41.5744 242.808 41.7504 243.136 41.8678 243.52C41.9904 243.899 42.0518 244.317 42.0518 244.776V250H40.0758V244.776C40.0758 244.275 39.9584 243.888 39.7238 243.616C39.4944 243.339 39.1478 243.2 38.6838 243.2C38.3424 243.2 38.0224 243.277 37.7238 243.432C37.4251 243.587 37.1424 243.797 36.8758 244.064V250H34.8997ZM49.7695 250C49.5135 250 49.3455 249.88 49.2655 249.64L49.1055 248.848C48.9348 249.04 48.7562 249.213 48.5695 249.368C48.3828 249.523 48.1802 249.656 47.9615 249.768C47.7482 249.88 47.5162 249.965 47.2655 250.024C47.0202 250.088 46.7535 250.12 46.4655 250.12C46.0175 250.12 45.6068 250.027 45.2335 249.84C44.8602 249.653 44.5375 249.384 44.2655 249.032C43.9988 248.675 43.7908 248.235 43.6415 247.712C43.4975 247.189 43.4255 246.592 43.4255 245.92C43.4255 245.312 43.5082 244.747 43.6735 244.224C43.8388 243.701 44.0762 243.248 44.3855 242.864C44.6948 242.48 45.0655 242.181 45.4975 241.968C45.9295 241.749 46.4148 241.64 46.9535 241.64C47.4122 241.64 47.8042 241.715 48.1295 241.864C48.4548 242.008 48.7455 242.203 49.0015 242.448V238.112H50.9775V250H49.7695ZM47.1375 248.552C47.5482 248.552 47.8975 248.467 48.1855 248.296C48.4735 248.125 48.7455 247.883 49.0015 247.568V243.888C48.7775 243.616 48.5322 243.424 48.2655 243.312C48.0042 243.2 47.7215 243.144 47.4175 243.144C47.1188 243.144 46.8468 243.2 46.6015 243.312C46.3615 243.424 46.1562 243.595 45.9855 243.824C45.8202 244.048 45.6922 244.336 45.6015 244.688C45.5108 245.035 45.4655 245.445 45.4655 245.92C45.4655 246.4 45.5028 246.808 45.5775 247.144C45.6575 247.475 45.7695 247.747 45.9135 247.96C46.0575 248.168 46.2335 248.32 46.4415 248.416C46.6495 248.507 46.8815 248.552 47.1375 248.552ZM58.9083 250.128C58.1989 250.128 57.6523 249.928 57.2682 249.528C56.8843 249.123 56.6923 248.565 56.6923 247.856V243.272H55.8603C55.7536 243.272 55.6603 243.237 55.5803 243.168C55.5056 243.099 55.4683 242.995 55.4683 242.856V242.072L56.7883 241.856L57.2043 239.616C57.2256 239.509 57.2736 239.427 57.3483 239.368C57.4283 239.309 57.5269 239.28 57.6443 239.28H58.6683V241.864H60.8283V243.272H58.6683V247.72C58.6683 247.976 58.7323 248.176 58.8603 248.32C58.9883 248.464 59.1589 248.536 59.3723 248.536C59.4949 248.536 59.5963 248.523 59.6762 248.496C59.7616 248.464 59.8336 248.432 59.8923 248.4C59.9563 248.368 60.0123 248.339 60.0603 248.312C60.1083 248.28 60.1563 248.264 60.2043 248.264C60.2629 248.264 60.3109 248.28 60.3483 248.312C60.3856 248.339 60.4256 248.381 60.4683 248.44L61.0603 249.4C60.7723 249.64 60.4416 249.821 60.0683 249.944C59.6949 250.067 59.3083 250.128 58.9083 250.128ZM62.3997 250V241.792H63.5598C63.7624 241.792 63.9038 241.829 63.9838 241.904C64.0638 241.979 64.1171 242.107 64.1438 242.288L64.2638 243.28C64.5571 242.773 64.9011 242.373 65.2958 242.08C65.6904 241.787 66.1331 241.64 66.6238 241.64C67.0291 241.64 67.3651 241.733 67.6318 241.92L67.3758 243.4C67.3598 243.496 67.3251 243.565 67.2718 243.608C67.2184 243.645 67.1464 243.664 67.0558 243.664C66.9758 243.664 66.8664 243.645 66.7278 243.608C66.5891 243.571 66.4051 243.552 66.1758 243.552C65.7651 243.552 65.4131 243.667 65.1198 243.896C64.8264 244.12 64.5784 244.451 64.3758 244.888V250H62.3997ZM72.323 241.664C72.8403 241.664 73.315 241.747 73.747 241.912C74.1843 242.077 74.5603 242.32 74.875 242.64C75.1897 242.955 75.435 243.344 75.611 243.808C75.787 244.267 75.875 244.792 75.875 245.384C75.875 245.533 75.867 245.659 75.851 245.76C75.8403 245.856 75.8163 245.933 75.779 245.992C75.747 246.045 75.7017 246.085 75.643 246.112C75.5843 246.133 75.5097 246.144 75.419 246.144H70.347C70.4057 246.987 70.6323 247.605 71.027 248C71.4217 248.395 71.9443 248.592 72.595 248.592C72.915 248.592 73.1897 248.555 73.419 248.48C73.6537 248.405 73.8563 248.323 74.027 248.232C74.203 248.141 74.355 248.059 74.483 247.984C74.6163 247.909 74.7443 247.872 74.867 247.872C74.947 247.872 75.0163 247.888 75.075 247.92C75.1337 247.952 75.1843 247.997 75.227 248.056L75.803 248.776C75.5843 249.032 75.339 249.248 75.067 249.424C74.795 249.595 74.5097 249.733 74.211 249.84C73.9177 249.941 73.6163 250.013 73.307 250.056C73.003 250.099 72.707 250.12 72.419 250.12C71.8483 250.12 71.3177 250.027 70.827 249.84C70.3363 249.648 69.9097 249.368 69.547 249C69.1843 248.627 68.899 248.168 68.691 247.624C68.483 247.075 68.379 246.44 68.379 245.72C68.379 245.16 68.4697 244.635 68.651 244.144C68.8323 243.648 69.091 243.219 69.427 242.856C69.7683 242.488 70.1817 242.197 70.667 241.984C71.1577 241.771 71.7097 241.664 72.323 241.664ZM72.363 243.08C71.787 243.08 71.3363 243.243 71.011 243.568C70.6857 243.893 70.4777 244.355 70.387 244.952H74.099C74.099 244.696 74.0643 244.456 73.995 244.232C73.9257 244.003 73.819 243.803 73.675 243.632C73.531 243.461 73.3497 243.328 73.131 243.232C72.9123 243.131 72.6563 243.08 72.363 243.08ZM80.8699 241.664C81.3872 241.664 81.8619 241.747 82.2939 241.912C82.7312 242.077 83.1072 242.32 83.4219 242.64C83.7365 242.955 83.9819 243.344 84.1579 243.808C84.3339 244.267 84.4219 244.792 84.4219 245.384C84.4219 245.533 84.4139 245.659 84.3979 245.76C84.3872 245.856 84.3632 245.933 84.3259 245.992C84.2939 246.045 84.2485 246.085 84.1899 246.112C84.1312 246.133 84.0565 246.144 83.9659 246.144H78.8939C78.9525 246.987 79.1792 247.605 79.5739 248C79.9685 248.395 80.4912 248.592 81.1419 248.592C81.4619 248.592 81.7365 248.555 81.9659 248.48C82.2005 248.405 82.4032 248.323 82.5739 248.232C82.7499 248.141 82.9019 248.059 83.0299 247.984C83.1632 247.909 83.2912 247.872 83.4139 247.872C83.4939 247.872 83.5632 247.888 83.6219 247.92C83.6805 247.952 83.7312 247.997 83.7739 248.056L84.3499 248.776C84.1312 249.032 83.8859 249.248 83.6139 249.424C83.3419 249.595 83.0565 249.733 82.7579 249.84C82.4645 249.941 82.1632 250.013 81.8539 250.056C81.5499 250.099 81.2539 250.12 80.9659 250.12C80.3952 250.12 79.8645 250.027 79.3739 249.84C78.8832 249.648 78.4565 249.368 78.0939 249C77.7312 248.627 77.4459 248.168 77.2379 247.624C77.0299 247.075 76.9259 246.44 76.9259 245.72C76.9259 245.16 77.0165 244.635 77.1979 244.144C77.3792 243.648 77.6379 243.219 77.9739 242.856C78.3152 242.488 78.7285 242.197 79.2139 241.984C79.7045 241.771 80.2565 241.664 80.8699 241.664ZM80.9099 243.08C80.3339 243.08 79.8832 243.243 79.5579 243.568C79.2325 243.893 79.0245 244.355 78.9339 244.952H82.6459C82.6459 244.696 82.6112 244.456 82.5419 244.232C82.4725 244.003 82.3659 243.803 82.2219 243.632C82.0779 243.461 81.8965 243.328 81.6779 243.232C81.4592 243.131 81.2032 243.08 80.9099 243.08ZM93.2305 250H91.4385L88.1745 241.792H89.8145C89.9585 241.792 90.0785 241.827 90.1745 241.896C90.2758 241.965 90.3452 242.053 90.3825 242.16L91.9665 246.544C92.0572 246.8 92.1318 247.051 92.1905 247.296C92.2545 247.541 92.3105 247.787 92.3585 248.032C92.4065 247.787 92.4598 247.541 92.5185 247.296C92.5825 247.051 92.6625 246.8 92.7585 246.544L94.3825 242.16C94.4198 242.053 94.4865 241.965 94.5825 241.896C94.6785 241.827 94.7932 241.792 94.9265 241.792H96.4865L93.2305 250ZM99.7538 241.792V250H97.7778V241.792H99.7538ZM100.05 239.4C100.05 239.571 100.015 239.731 99.9458 239.88C99.8764 240.029 99.7831 240.16 99.6658 240.272C99.5538 240.384 99.4204 240.475 99.2658 240.544C99.1111 240.608 98.9458 240.64 98.7698 240.64C98.5991 240.64 98.4364 240.608 98.2818 240.544C98.1324 240.475 98.0018 240.384 97.8898 240.272C97.7778 240.16 97.6871 240.029 97.6178 239.88C97.5538 239.731 97.5218 239.571 97.5218 239.4C97.5218 239.224 97.5538 239.059 97.6178 238.904C97.6871 238.749 97.7778 238.616 97.8898 238.504C98.0018 238.392 98.1324 238.304 98.2818 238.24C98.4364 238.171 98.5991 238.136 98.7698 238.136C98.9458 238.136 99.1111 238.171 99.2658 238.24C99.4204 238.304 99.5538 238.392 99.6658 238.504C99.7831 238.616 99.8764 238.749 99.9458 238.904C100.015 239.059 100.05 239.224 100.05 239.4ZM105.386 241.664C105.903 241.664 106.378 241.747 106.81 241.912C107.247 242.077 107.623 242.32 107.938 242.64C108.252 242.955 108.498 243.344 108.674 243.808C108.85 244.267 108.938 244.792 108.938 245.384C108.938 245.533 108.93 245.659 108.914 245.76C108.903 245.856 108.879 245.933 108.842 245.992C108.81 246.045 108.764 246.085 108.706 246.112C108.647 246.133 108.572 246.144 108.482 246.144H103.41C103.468 246.987 103.695 247.605 104.09 248C104.484 248.395 105.007 248.592 105.658 248.592C105.978 248.592 106.252 248.555 106.482 248.48C106.716 248.405 106.919 248.323 107.09 248.232C107.266 248.141 107.418 248.059 107.546 247.984C107.679 247.909 107.807 247.872 107.93 247.872C108.01 247.872 108.079 247.888 108.138 247.92C108.196 247.952 108.247 247.997 108.29 248.056L108.866 248.776C108.647 249.032 108.402 249.248 108.13 249.424C107.858 249.595 107.572 249.733 107.274 249.84C106.98 249.941 106.679 250.013 106.37 250.056C106.066 250.099 105.77 250.12 105.482 250.12C104.911 250.12 104.38 250.027 103.89 249.84C103.399 249.648 102.972 249.368 102.61 249C102.247 248.627 101.962 248.168 101.754 247.624C101.546 247.075 101.442 246.44 101.442 245.72C101.442 245.16 101.532 244.635 101.714 244.144C101.895 243.648 102.154 243.219 102.49 242.856C102.831 242.488 103.244 242.197 103.73 241.984C104.22 241.771 104.772 241.664 105.386 241.664ZM105.426 243.08C104.85 243.08 104.399 243.243 104.074 243.568C103.748 243.893 103.54 244.355 103.45 244.952H107.162C107.162 244.696 107.127 244.456 107.058 244.232C106.988 244.003 106.882 243.803 106.738 243.632C106.594 243.461 106.412 243.328 106.194 243.232C105.975 243.131 105.719 243.08 105.426 243.08ZM109.54 241.792H111.108C111.258 241.792 111.383 241.827 111.484 241.896C111.586 241.965 111.65 242.053 111.676 242.16L112.852 246.544C112.916 246.784 112.967 247.019 113.004 247.248C113.047 247.477 113.087 247.707 113.124 247.936C113.183 247.707 113.244 247.477 113.308 247.248C113.378 247.019 113.45 246.784 113.524 246.544L114.884 242.144C114.916 242.037 114.98 241.949 115.076 241.88C115.172 241.811 115.284 241.776 115.412 241.776H116.284C116.428 241.776 116.548 241.811 116.644 241.88C116.74 241.949 116.804 242.037 116.836 242.144L118.18 246.624C118.25 246.853 118.311 247.077 118.364 247.296C118.423 247.509 118.479 247.725 118.532 247.944C118.57 247.715 118.61 247.485 118.652 247.256C118.7 247.027 118.759 246.789 118.828 246.544L120.044 242.16C120.071 242.053 120.135 241.965 120.236 241.896C120.338 241.827 120.455 241.792 120.588 241.792H122.084L119.484 250H117.892C117.722 250 117.599 249.883 117.524 249.648L116.044 244.904C115.996 244.749 115.951 244.595 115.908 244.44C115.871 244.28 115.839 244.123 115.812 243.968C115.78 244.128 115.746 244.288 115.708 244.448C115.671 244.603 115.628 244.76 115.58 244.92L114.084 249.648C114.01 249.883 113.866 250 113.652 250H112.14L109.54 241.792Z" fill="black"/>
<path fill-rule="evenodd" clip-rule="evenodd" d="M1.70708 277.707C2.0976 277.317 2.73077 277.317 3.12129 277.707L7.70708 282.293C8.0976 282.683 8.0976 283.317 7.70708 283.707C7.31655 284.098 6.68339 284.098 6.29286 283.707L1.70708 279.121C1.31655 278.731 1.31655 278.098 1.70708 277.707Z" fill="black"/>
<path fill-rule="evenodd" clip-rule="evenodd" d="M12.2929 277.707C11.9024 277.317 11.2692 277.317 10.8787 277.707L6.29292 282.293C5.9024 282.683 5.9024 283.317 6.29292 283.707C6.68345 284.098 7.31661 284.098 7.70714 283.707L12.2929 279.121C12.6834 278.731 12.6834 278.098 12.2929 277.707Z" fill="black"/>
<path fill-rule="evenodd" clip-rule="evenodd" d="M23.7071 350.293C23.3166 349.902 23.3166 349.269 23.7071 348.879L28.2929 344.293C28.6834 343.902 29.3166 343.902 29.7071 344.293C30.0976 344.683 30.0976 345.317 29.7071 345.707L25.1213 350.293C24.7308 350.683 24.0976 350.683 23.7071 350.293Z" fill="black"/>
<path fill-rule="evenodd" clip-rule="evenodd" d="M23.7071 339.707C23.3166 340.098 23.3166 340.731 23.7071 341.121L28.2929 345.707C28.6834 346.098 29.3166 346.098 29.7071 345.707C30.0976 345.317 30.0976 344.683 29.7071 344.293L25.1213 339.707C24.7308 339.317 24.0976 339.317 23.7071 339.707Z" fill="black"/>
<path d="M47.096 282.712V287H45.552V275.536H48.936C49.6613 275.536 50.2907 275.621 50.824 275.792C51.3627 275.957 51.808 276.195 52.16 276.504C52.512 276.813 52.7733 277.187 52.944 277.624C53.12 278.061 53.208 278.549 53.208 279.088C53.208 279.621 53.1147 280.109 52.928 280.552C52.7413 280.995 52.4667 281.376 52.104 281.696C51.7467 282.016 51.3013 282.267 50.768 282.448C50.2347 282.624 49.624 282.712 48.936 282.712H47.096ZM47.096 281.48H48.936C49.3787 281.48 49.768 281.421 50.104 281.304C50.4453 281.187 50.7307 281.024 50.96 280.816C51.1893 280.603 51.3627 280.349 51.48 280.056C51.5973 279.763 51.656 279.44 51.656 279.088C51.656 278.357 51.4293 277.787 50.976 277.376C50.528 276.965 49.848 276.76 48.936 276.76H47.096V281.48ZM60.495 287H59.863C59.7243 287 59.6123 286.979 59.527 286.936C59.4417 286.893 59.3857 286.803 59.359 286.664L59.199 285.912C58.9857 286.104 58.7777 286.277 58.575 286.432C58.3723 286.581 58.159 286.709 57.935 286.816C57.711 286.917 57.471 286.995 57.215 287.048C56.9643 287.101 56.6843 287.128 56.375 287.128C56.0603 287.128 55.7643 287.085 55.487 287C55.215 286.909 54.9777 286.776 54.775 286.6C54.5723 286.424 54.4097 286.203 54.287 285.936C54.1697 285.664 54.111 285.344 54.111 284.976C54.111 284.656 54.199 284.349 54.375 284.056C54.551 283.757 54.8337 283.493 55.223 283.264C55.6177 283.035 56.1323 282.848 56.767 282.704C57.4017 282.555 58.1777 282.469 59.095 282.448V281.816C59.095 281.187 58.959 280.712 58.687 280.392C58.4203 280.067 58.023 279.904 57.495 279.904C57.1483 279.904 56.855 279.949 56.615 280.04C56.3803 280.125 56.175 280.224 55.999 280.336C55.8283 280.443 55.679 280.541 55.551 280.632C55.4283 280.717 55.3057 280.76 55.183 280.76C55.087 280.76 55.0017 280.736 54.927 280.688C54.8577 280.635 54.8017 280.571 54.759 280.496L54.503 280.04C54.951 279.608 55.4337 279.285 55.951 279.072C56.4683 278.859 57.0417 278.752 57.671 278.752C58.1243 278.752 58.527 278.827 58.879 278.976C59.231 279.125 59.527 279.333 59.767 279.6C60.007 279.867 60.1883 280.189 60.311 280.568C60.4337 280.947 60.495 281.363 60.495 281.816V287ZM56.799 286.128C57.0497 286.128 57.279 286.104 57.487 286.056C57.695 286.003 57.8897 285.931 58.071 285.84C58.2577 285.744 58.4337 285.629 58.599 285.496C58.7697 285.363 58.935 285.211 59.095 285.04V283.352C58.439 283.373 57.8817 283.427 57.423 283.512C56.9643 283.592 56.591 283.699 56.303 283.832C56.015 283.965 55.8043 284.123 55.671 284.304C55.543 284.485 55.479 284.688 55.479 284.912C55.479 285.125 55.5137 285.309 55.583 285.464C55.6523 285.619 55.7457 285.747 55.863 285.848C55.9803 285.944 56.119 286.016 56.279 286.064C56.439 286.107 56.6123 286.128 56.799 286.128ZM62.6524 287V278.896H63.4684C63.623 278.896 63.7297 278.925 63.7884 278.984C63.847 279.043 63.887 279.144 63.9084 279.288L64.0044 280.552C64.2817 279.987 64.623 279.547 65.0284 279.232C65.439 278.912 65.919 278.752 66.4684 278.752C66.6924 278.752 66.895 278.779 67.0764 278.832C67.2577 278.88 67.4257 278.949 67.5804 279.04L67.3964 280.104C67.359 280.237 67.2764 280.304 67.1484 280.304C67.0737 280.304 66.959 280.28 66.8044 280.232C66.6497 280.179 66.4337 280.152 66.1564 280.152C65.6604 280.152 65.2444 280.296 64.9084 280.584C64.5777 280.872 64.3004 281.291 64.0764 281.84V287H62.6524ZM72.3135 278.768C72.7988 278.768 73.2468 278.851 73.6575 279.016C74.0682 279.176 74.4228 279.411 74.7215 279.72C75.0202 280.024 75.2522 280.403 75.4175 280.856C75.5882 281.304 75.6735 281.816 75.6735 282.392C75.6735 282.616 75.6495 282.765 75.6015 282.84C75.5535 282.915 75.4628 282.952 75.3295 282.952H69.9375C69.9482 283.464 70.0175 283.909 70.1455 284.288C70.2735 284.667 70.4495 284.984 70.6735 285.24C70.8975 285.491 71.1642 285.68 71.4735 285.808C71.7828 285.931 72.1295 285.992 72.5135 285.992C72.8708 285.992 73.1775 285.952 73.4335 285.872C73.6948 285.787 73.9188 285.696 74.1055 285.6C74.2922 285.504 74.4468 285.416 74.5695 285.336C74.6975 285.251 74.8068 285.208 74.8975 285.208C75.0148 285.208 75.1055 285.253 75.1695 285.344L75.5695 285.864C75.3935 286.077 75.1828 286.264 74.9375 286.424C74.6922 286.579 74.4282 286.707 74.1455 286.808C73.8682 286.909 73.5802 286.984 73.2815 287.032C72.9828 287.085 72.6868 287.112 72.3935 287.112C71.8335 287.112 71.3162 287.019 70.8415 286.832C70.3722 286.64 69.9642 286.363 69.6175 286C69.2762 285.632 69.0095 285.179 68.8175 284.64C68.6255 284.101 68.5295 283.483 68.5295 282.784C68.5295 282.219 68.6148 281.691 68.7855 281.2C68.9615 280.709 69.2122 280.285 69.5375 279.928C69.8628 279.565 70.2602 279.283 70.7295 279.08C71.1988 278.872 71.7268 278.768 72.3135 278.768ZM72.3455 279.816C71.6575 279.816 71.1162 280.016 70.7215 280.416C70.3268 280.811 70.0815 281.36 69.9855 282.064H74.3935C74.3935 281.733 74.3482 281.432 74.2575 281.16C74.1668 280.883 74.0335 280.645 73.8575 280.448C73.6815 280.245 73.4655 280.091 73.2095 279.984C72.9588 279.872 72.6708 279.816 72.3455 279.816ZM77.4961 287V278.896H78.3441C78.5468 278.896 78.6748 278.995 78.7281 279.192L78.8401 280.072C79.1921 279.683 79.5841 279.368 80.0161 279.128C80.4535 278.888 80.9575 278.768 81.5281 278.768C81.9708 278.768 82.3601 278.843 82.6961 278.992C83.0375 279.136 83.3201 279.344 83.5441 279.616C83.7735 279.883 83.9468 280.205 84.0641 280.584C84.1815 280.963 84.2401 281.381 84.2401 281.84V287H82.8161V281.84C82.8161 281.227 82.6748 280.752 82.3921 280.416C82.1148 280.075 81.6881 279.904 81.1121 279.904C80.6908 279.904 80.2961 280.005 79.9281 280.208C79.5655 280.411 79.2295 280.685 78.9201 281.032V287H77.4961ZM88.8428 287.128C88.2028 287.128 87.7094 286.949 87.3628 286.592C87.0214 286.235 86.8508 285.72 86.8508 285.048V280.088H85.8748C85.7894 280.088 85.7174 280.064 85.6588 280.016C85.6001 279.963 85.5708 279.883 85.5708 279.776V279.208L86.8988 279.04L87.2268 276.536C87.2374 276.456 87.2721 276.392 87.3307 276.344C87.3894 276.291 87.4641 276.264 87.5548 276.264H88.2748V279.056H90.5948V280.088H88.2748V284.952C88.2748 285.293 88.3574 285.547 88.5228 285.712C88.6881 285.877 88.9014 285.96 89.1628 285.96C89.3121 285.96 89.4401 285.941 89.5468 285.904C89.6588 285.861 89.7548 285.816 89.8348 285.768C89.9148 285.72 89.9814 285.677 90.0348 285.64C90.0934 285.597 90.1441 285.576 90.1868 285.576C90.2614 285.576 90.3281 285.621 90.3868 285.712L90.8028 286.392C90.5574 286.621 90.2614 286.803 89.9148 286.936C89.5681 287.064 89.2108 287.128 88.8428 287.128ZM96.5773 285.912H99.0413V278.096C99.0413 277.861 99.0493 277.624 99.0653 277.384L97.0173 279.136C96.9639 279.179 96.9106 279.211 96.8573 279.232C96.8039 279.248 96.7533 279.256 96.7053 279.256C96.6253 279.256 96.5533 279.24 96.4893 279.208C96.4253 279.171 96.3773 279.128 96.3453 279.08L95.8973 278.464L99.3053 275.512H100.465V285.912H102.721V287H96.5773V285.912Z" fill="black"/>
<path d="M73.472 316.632C73.5573 316.632 73.6347 316.667 73.704 316.736L74.312 317.4C73.8427 317.944 73.272 318.368 72.6 318.672C71.9333 318.976 71.128 319.128 70.184 319.128C69.3573 319.128 68.608 318.987 67.936 318.704C67.264 318.416 66.6907 318.016 66.216 317.504C65.7413 316.987 65.3733 316.368 65.112 315.648C64.8507 314.928 64.72 314.136 64.72 313.272C64.72 312.408 64.8587 311.616 65.136 310.896C65.4187 310.176 65.8133 309.557 66.32 309.04C66.8267 308.523 67.432 308.123 68.136 307.84C68.8453 307.552 69.6267 307.408 70.48 307.408C71.3227 307.408 72.048 307.539 72.656 307.8C73.2693 308.061 73.8133 308.416 74.288 308.864L73.784 309.576C73.7467 309.629 73.704 309.675 73.656 309.712C73.608 309.744 73.5387 309.76 73.448 309.76C73.3787 309.76 73.304 309.736 73.224 309.688C73.1493 309.635 73.0587 309.571 72.952 309.496C72.8453 309.421 72.72 309.341 72.576 309.256C72.432 309.171 72.2613 309.091 72.064 309.016C71.8667 308.941 71.6373 308.88 71.376 308.832C71.1147 308.779 70.8133 308.752 70.472 308.752C69.8587 308.752 69.296 308.859 68.784 309.072C68.2773 309.28 67.84 309.579 67.472 309.968C67.104 310.357 66.816 310.832 66.608 311.392C66.4053 311.952 66.304 312.579 66.304 313.272C66.304 313.987 66.4053 314.624 66.608 315.184C66.816 315.744 67.096 316.219 67.448 316.608C67.8053 316.992 68.2267 317.285 68.712 317.488C69.1973 317.691 69.72 317.792 70.28 317.792C70.6213 317.792 70.928 317.773 71.2 317.736C71.472 317.693 71.7227 317.629 71.952 317.544C72.1867 317.459 72.4027 317.352 72.6 317.224C72.8027 317.091 73.0053 316.933 73.208 316.752C73.2987 316.672 73.3867 316.632 73.472 316.632ZM76.1211 319V307.216H77.5451V311.984C77.8918 311.616 78.2758 311.323 78.6971 311.104C79.1185 310.88 79.6038 310.768 80.1531 310.768C80.5958 310.768 80.9851 310.843 81.3211 310.992C81.6625 311.136 81.9451 311.344 82.1691 311.616C82.3985 311.883 82.5718 312.205 82.6891 312.584C82.8065 312.963 82.8651 313.381 82.8651 313.84V319H81.4411V313.84C81.4411 313.227 81.2998 312.752 81.0171 312.416C80.7398 312.075 80.3131 311.904 79.7371 311.904C79.3158 311.904 78.9211 312.005 78.5531 312.208C78.1905 312.411 77.8545 312.685 77.5451 313.032V319H76.1211ZM86.5958 310.896V319H85.1718V310.896H86.5958ZM86.9158 308.352C86.9158 308.491 86.8864 308.621 86.8278 308.744C86.7744 308.861 86.6998 308.968 86.6038 309.064C86.5131 309.155 86.4064 309.227 86.2838 309.28C86.1611 309.333 86.0304 309.36 85.8918 309.36C85.7531 309.36 85.6224 309.333 85.4998 309.28C85.3824 309.227 85.2758 309.155 85.1798 309.064C85.0891 308.968 85.0171 308.861 84.9638 308.744C84.9104 308.621 84.8838 308.491 84.8838 308.352C84.8838 308.213 84.9104 308.083 84.9638 307.96C85.0171 307.832 85.0891 307.723 85.1798 307.632C85.2758 307.536 85.3824 307.461 85.4998 307.408C85.6224 307.355 85.7531 307.328 85.8918 307.328C86.0304 307.328 86.1611 307.355 86.2838 307.408C86.4064 307.461 86.5131 307.536 86.6038 307.632C86.6998 307.723 86.7744 307.832 86.8278 307.96C86.8864 308.083 86.9158 308.213 86.9158 308.352ZM90.6895 307.216V319H89.2655V307.216H90.6895ZM98.9033 319C98.7006 319 98.5726 318.901 98.5193 318.704L98.3913 317.72C98.0446 318.141 97.6473 318.48 97.1993 318.736C96.7566 318.987 96.2473 319.112 95.6713 319.112C95.2073 319.112 94.7859 319.024 94.4073 318.848C94.0286 318.667 93.7059 318.403 93.4393 318.056C93.1726 317.709 92.9673 317.277 92.8233 316.76C92.6793 316.243 92.6073 315.648 92.6073 314.976C92.6073 314.379 92.6873 313.824 92.8473 313.312C93.0073 312.795 93.2366 312.347 93.5353 311.968C93.8393 311.589 94.2073 311.293 94.6393 311.08C95.0713 310.861 95.5619 310.752 96.1113 310.752C96.6073 310.752 97.0313 310.837 97.3833 311.008C97.7353 311.173 98.0499 311.408 98.3273 311.712V307.216H99.7513V319H98.9033ZM96.1432 317.96C96.6073 317.96 97.0126 317.853 97.3593 317.64C97.7113 317.427 98.0339 317.125 98.3273 316.736V312.816C98.0659 312.464 97.7779 312.219 97.4633 312.08C97.1539 311.936 96.8099 311.864 96.4313 311.864C95.6739 311.864 95.0926 312.133 94.6873 312.672C94.2819 313.211 94.0793 313.979 94.0793 314.976C94.0793 315.504 94.1246 315.957 94.2153 316.336C94.3059 316.709 94.4393 317.019 94.6153 317.264C94.7913 317.504 95.0073 317.68 95.2633 317.792C95.5193 317.904 95.8126 317.96 96.1432 317.96ZM106.359 317.912H108.823V310.096C108.823 309.861 108.831 309.624 108.847 309.384L106.799 311.136C106.745 311.179 106.692 311.211 106.639 311.232C106.585 311.248 106.535 311.256 106.487 311.256C106.407 311.256 106.335 311.24 106.271 311.208C106.207 311.171 106.159 311.128 106.127 311.08L105.679 310.464L109.087 307.512H110.247V317.912H112.503V319H106.359V317.912ZM73.472 348.632C73.5573 348.632 73.6347 348.667 73.704 348.736L74.312 349.4C73.8427 349.944 73.272 350.368 72.6 350.672C71.9333 350.976 71.128 351.128 70.184 351.128C69.3573 351.128 68.608 350.987 67.936 350.704C67.264 350.416 66.6907 350.016 66.216 349.504C65.7413 348.987 65.3733 348.368 65.112 347.648C64.8507 346.928 64.72 346.136 64.72 345.272C64.72 344.408 64.8587 343.616 65.136 342.896C65.4187 342.176 65.8133 341.557 66.32 341.04C66.8267 340.523 67.432 340.123 68.136 339.84C68.8453 339.552 69.6267 339.408 70.48 339.408C71.3227 339.408 72.048 339.539 72.656 339.8C73.2693 340.061 73.8133 340.416 74.288 340.864L73.784 341.576C73.7467 341.629 73.704 341.675 73.656 341.712C73.608 341.744 73.5387 341.76 73.448 341.76C73.3787 341.76 73.304 341.736 73.224 341.688C73.1493 341.635 73.0587 341.571 72.952 341.496C72.8453 341.421 72.72 341.341 72.576 341.256C72.432 341.171 72.2613 341.091 72.064 341.016C71.8667 340.941 71.6373 340.88 71.376 340.832C71.1147 340.779 70.8133 340.752 70.472 340.752C69.8587 340.752 69.296 340.859 68.784 341.072C68.2773 341.28 67.84 341.579 67.472 341.968C67.104 342.357 66.816 342.832 66.608 343.392C66.4053 343.952 66.304 344.579 66.304 345.272C66.304 345.987 66.4053 346.624 66.608 347.184C66.816 347.744 67.096 348.219 67.448 348.608C67.8053 348.992 68.2267 349.285 68.712 349.488C69.1973 349.691 69.72 349.792 70.28 349.792C70.6213 349.792 70.928 349.773 71.2 349.736C71.472 349.693 71.7227 349.629 71.952 349.544C72.1867 349.459 72.4027 349.352 72.6 349.224C72.8027 349.091 73.0053 348.933 73.208 348.752C73.2987 348.672 73.3867 348.632 73.472 348.632ZM76.1211 351V339.216H77.5451V343.984C77.8918 343.616 78.2758 343.323 78.6971 343.104C79.1185 342.88 79.6038 342.768 80.1531 342.768C80.5958 342.768 80.9851 342.843 81.3211 342.992C81.6625 343.136 81.9451 343.344 82.1691 343.616C82.3985 343.883 82.5718 344.205 82.6891 344.584C82.8065 344.963 82.8651 345.381 82.8651 345.84V351H81.4411V345.84C81.4411 345.227 81.2998 344.752 81.0171 344.416C80.7398 344.075 80.3131 343.904 79.7371 343.904C79.3158 343.904 78.9211 344.005 78.5531 344.208C78.1905 344.411 77.8545 344.685 77.5451 345.032V351H76.1211ZM86.5958 342.896V351H85.1718V342.896H86.5958ZM86.9158 340.352C86.9158 340.491 86.8864 340.621 86.8278 340.744C86.7744 340.861 86.6998 340.968 86.6038 341.064C86.5131 341.155 86.4064 341.227 86.2838 341.28C86.1611 341.333 86.0304 341.36 85.8918 341.36C85.7531 341.36 85.6224 341.333 85.4998 341.28C85.3824 341.227 85.2758 341.155 85.1798 341.064C85.0891 340.968 85.0171 340.861 84.9638 340.744C84.9104 340.621 84.8838 340.491 84.8838 340.352C84.8838 340.213 84.9104 340.083 84.9638 339.96C85.0171 339.832 85.0891 339.723 85.1798 339.632C85.2758 339.536 85.3824 339.461 85.4998 339.408C85.6224 339.355 85.7531 339.328 85.8918 339.328C86.0304 339.328 86.1611 339.355 86.2838 339.408C86.4064 339.461 86.5131 339.536 86.6038 339.632C86.6998 339.723 86.7744 339.832 86.8278 339.96C86.8864 340.083 86.9158 340.213 86.9158 340.352ZM90.6895 339.216V351H89.2655V339.216H90.6895ZM98.9033 351C98.7006 351 98.5726 350.901 98.5193 350.704L98.3913 349.72C98.0446 350.141 97.6473 350.48 97.1993 350.736C96.7566 350.987 96.2473 351.112 95.6713 351.112C95.2073 351.112 94.7859 351.024 94.4073 350.848C94.0286 350.667 93.7059 350.403 93.4393 350.056C93.1726 349.709 92.9673 349.277 92.8233 348.76C92.6793 348.243 92.6073 347.648 92.6073 346.976C92.6073 346.379 92.6873 345.824 92.8473 345.312C93.0073 344.795 93.2366 344.347 93.5353 343.968C93.8393 343.589 94.2073 343.293 94.6393 343.08C95.0713 342.861 95.5619 342.752 96.1113 342.752C96.6073 342.752 97.0313 342.837 97.3833 343.008C97.7353 343.173 98.0499 343.408 98.3273 343.712V339.216H99.7513V351H98.9033ZM96.1432 349.96C96.6073 349.96 97.0126 349.853 97.3593 349.64C97.7113 349.427 98.0339 349.125 98.3273 348.736V344.816C98.0659 344.464 97.7779 344.219 97.4633 344.08C97.1539 343.936 96.8099 343.864 96.4313 343.864C95.6739 343.864 95.0926 344.133 94.6873 344.672C94.2819 345.211 94.0793 345.979 94.0793 346.976C94.0793 347.504 94.1246 347.957 94.2153 348.336C94.3059 348.709 94.4393 349.019 94.6153 349.264C94.7913 349.504 95.0073 349.68 95.2633 349.792C95.5193 349.904 95.8126 349.96 96.1432 349.96ZM108.871 339.408C109.356 339.408 109.809 339.48 110.231 339.624C110.652 339.768 111.015 339.979 111.319 340.256C111.628 340.528 111.871 340.861 112.047 341.256C112.223 341.651 112.311 342.099 112.311 342.6C112.311 343.027 112.247 343.421 112.119 343.784C111.991 344.147 111.817 344.496 111.599 344.832C111.38 345.163 111.127 345.485 110.839 345.8C110.556 346.109 110.255 346.427 109.935 346.752L106.919 349.84C107.132 349.781 107.348 349.736 107.567 349.704C107.785 349.667 107.996 349.648 108.199 349.648H112.039C112.193 349.648 112.316 349.693 112.407 349.784C112.497 349.875 112.543 349.992 112.543 350.136V351H104.895V350.512C104.895 350.411 104.913 350.307 104.951 350.2C104.993 350.093 105.06 349.995 105.151 349.904L108.823 346.216C109.127 345.907 109.404 345.611 109.655 345.328C109.905 345.04 110.119 344.752 110.295 344.464C110.476 344.176 110.615 343.885 110.711 343.592C110.807 343.293 110.855 342.976 110.855 342.64C110.855 342.304 110.801 342.011 110.695 341.76C110.588 341.504 110.441 341.293 110.255 341.128C110.068 340.963 109.849 340.84 109.599 340.76C109.348 340.675 109.079 340.632 108.791 340.632C108.503 340.632 108.236 340.675 107.991 340.76C107.745 340.845 107.527 340.965 107.335 341.12C107.148 341.269 106.988 341.448 106.855 341.656C106.727 341.864 106.636 342.093 106.583 342.344C106.54 342.499 106.476 342.611 106.391 342.68C106.305 342.749 106.193 342.784 106.055 342.784C106.028 342.784 105.999 342.784 105.967 342.784C105.94 342.779 105.908 342.773 105.871 342.768L105.127 342.64C105.201 342.117 105.345 341.656 105.559 341.256C105.772 340.851 106.041 340.512 106.367 340.24C106.697 339.968 107.073 339.763 107.495 339.624C107.921 339.48 108.38 339.408 108.871 339.408ZM73.472 380.632C73.5573 380.632 73.6347 380.667 73.704 380.736L74.312 381.4C73.8427 381.944 73.272 382.368 72.6 382.672C71.9333 382.976 71.128 383.128 70.184 383.128C69.3573 383.128 68.608 382.987 67.936 382.704C67.264 382.416 66.6907 382.016 66.216 381.504C65.7413 380.987 65.3733 380.368 65.112 379.648C64.8507 378.928 64.72 378.136 64.72 377.272C64.72 376.408 64.8587 375.616 65.136 374.896C65.4187 374.176 65.8133 373.557 66.32 373.04C66.8267 372.523 67.432 372.123 68.136 371.84C68.8453 371.552 69.6267 371.408 70.48 371.408C71.3227 371.408 72.048 371.539 72.656 371.8C73.2693 372.061 73.8133 372.416 74.288 372.864L73.784 373.576C73.7467 373.629 73.704 373.675 73.656 373.712C73.608 373.744 73.5387 373.76 73.448 373.76C73.3787 373.76 73.304 373.736 73.224 373.688C73.1493 373.635 73.0587 373.571 72.952 373.496C72.8453 373.421 72.72 373.341 72.576 373.256C72.432 373.171 72.2613 373.091 72.064 373.016C71.8667 372.941 71.6373 372.88 71.376 372.832C71.1147 372.779 70.8133 372.752 70.472 372.752C69.8587 372.752 69.296 372.859 68.784 373.072C68.2773 373.28 67.84 373.579 67.472 373.968C67.104 374.357 66.816 374.832 66.608 375.392C66.4053 375.952 66.304 376.579 66.304 377.272C66.304 377.987 66.4053 378.624 66.608 379.184C66.816 379.744 67.096 380.219 67.448 380.608C67.8053 380.992 68.2267 381.285 68.712 381.488C69.1973 381.691 69.72 381.792 70.28 381.792C70.6213 381.792 70.928 381.773 71.2 381.736C71.472 381.693 71.7227 381.629 71.952 381.544C72.1867 381.459 72.4027 381.352 72.6 381.224C72.8027 381.091 73.0053 380.933 73.208 380.752C73.2987 380.672 73.3867 380.632 73.472 380.632ZM76.1211 383V371.216H77.5451V375.984C77.8918 375.616 78.2758 375.323 78.6971 375.104C79.1185 374.88 79.6038 374.768 80.1531 374.768C80.5958 374.768 80.9851 374.843 81.3211 374.992C81.6625 375.136 81.9451 375.344 82.1691 375.616C82.3985 375.883 82.5718 376.205 82.6891 376.584C82.8065 376.963 82.8651 377.381 82.8651 377.84V383H81.4411V377.84C81.4411 377.227 81.2998 376.752 81.0171 376.416C80.7398 376.075 80.3131 375.904 79.7371 375.904C79.3158 375.904 78.9211 376.005 78.5531 376.208C78.1905 376.411 77.8545 376.685 77.5451 377.032V383H76.1211ZM86.5958 374.896V383H85.1718V374.896H86.5958ZM86.9158 372.352C86.9158 372.491 86.8864 372.621 86.8278 372.744C86.7744 372.861 86.6998 372.968 86.6038 373.064C86.5131 373.155 86.4064 373.227 86.2838 373.28C86.1611 373.333 86.0304 373.36 85.8918 373.36C85.7531 373.36 85.6224 373.333 85.4998 373.28C85.3824 373.227 85.2758 373.155 85.1798 373.064C85.0891 372.968 85.0171 372.861 84.9638 372.744C84.9104 372.621 84.8838 372.491 84.8838 372.352C84.8838 372.213 84.9104 372.083 84.9638 371.96C85.0171 371.832 85.0891 371.723 85.1798 371.632C85.2758 371.536 85.3824 371.461 85.4998 371.408C85.6224 371.355 85.7531 371.328 85.8918 371.328C86.0304 371.328 86.1611 371.355 86.2838 371.408C86.4064 371.461 86.5131 371.536 86.6038 371.632C86.6998 371.723 86.7744 371.832 86.8278 371.96C86.8864 372.083 86.9158 372.213 86.9158 372.352ZM90.6895 371.216V383H89.2655V371.216H90.6895ZM98.9033 383C98.7006 383 98.5726 382.901 98.5193 382.704L98.3913 381.72C98.0446 382.141 97.6473 382.48 97.1993 382.736C96.7566 382.987 96.2473 383.112 95.6713 383.112C95.2073 383.112 94.7859 383.024 94.4073 382.848C94.0286 382.667 93.7059 382.403 93.4393 382.056C93.1726 381.709 92.9673 381.277 92.8233 380.76C92.6793 380.243 92.6073 379.648 92.6073 378.976C92.6073 378.379 92.6873 377.824 92.8473 377.312C93.0073 376.795 93.2366 376.347 93.5353 375.968C93.8393 375.589 94.2073 375.293 94.6393 375.08C95.0713 374.861 95.5619 374.752 96.1113 374.752C96.6073 374.752 97.0313 374.837 97.3833 375.008C97.7353 375.173 98.0499 375.408 98.3273 375.712V371.216H99.7513V383H98.9033ZM96.1432 381.96C96.6073 381.96 97.0126 381.853 97.3593 381.64C97.7113 381.427 98.0339 381.125 98.3273 380.736V376.816C98.0659 376.464 97.7779 376.219 97.4633 376.08C97.1539 375.936 96.8099 375.864 96.4313 375.864C95.6739 375.864 95.0926 376.133 94.6873 376.672C94.2819 377.211 94.0793 377.979 94.0793 378.976C94.0793 379.504 94.1246 379.957 94.2153 380.336C94.3059 380.709 94.4393 381.019 94.6153 381.264C94.7913 381.504 95.0073 381.68 95.2633 381.792C95.5193 381.904 95.8126 381.96 96.1432 381.96ZM109.023 371.408C109.508 371.408 109.956 371.477 110.367 371.616C110.777 371.755 111.129 371.952 111.423 372.208C111.721 372.464 111.953 372.773 112.119 373.136C112.284 373.499 112.367 373.901 112.367 374.344C112.367 374.707 112.319 375.032 112.223 375.32C112.132 375.603 111.999 375.853 111.823 376.072C111.652 376.285 111.444 376.467 111.199 376.616C110.953 376.765 110.679 376.885 110.375 376.976C111.121 377.173 111.681 377.504 112.055 377.968C112.433 378.432 112.623 379.013 112.623 379.712C112.623 380.24 112.521 380.715 112.319 381.136C112.121 381.557 111.849 381.917 111.503 382.216C111.156 382.509 110.751 382.736 110.287 382.896C109.828 383.051 109.335 383.128 108.807 383.128C108.199 383.128 107.679 383.053 107.247 382.904C106.815 382.749 106.449 382.539 106.151 382.272C105.852 382.005 105.607 381.691 105.415 381.328C105.223 380.96 105.06 380.563 104.927 380.136L105.535 379.88C105.647 379.832 105.759 379.808 105.871 379.808C105.977 379.808 106.071 379.832 106.151 379.88C106.236 379.923 106.3 379.992 106.343 380.088C106.353 380.109 106.364 380.133 106.375 380.16C106.385 380.181 106.396 380.205 106.407 380.232C106.481 380.387 106.572 380.563 106.679 380.76C106.785 380.952 106.929 381.133 107.111 381.304C107.292 381.475 107.516 381.619 107.783 381.736C108.055 381.853 108.391 381.912 108.791 381.912C109.191 381.912 109.54 381.848 109.839 381.72C110.143 381.587 110.393 381.416 110.591 381.208C110.793 381 110.945 380.768 111.047 380.512C111.148 380.256 111.199 380.003 111.199 379.752C111.199 379.443 111.156 379.16 111.071 378.904C110.991 378.648 110.841 378.427 110.623 378.24C110.409 378.053 110.111 377.907 109.727 377.8C109.348 377.693 108.86 377.64 108.263 377.64V376.608C108.748 376.603 109.161 376.549 109.503 376.448C109.849 376.347 110.132 376.208 110.351 376.032C110.569 375.856 110.727 375.645 110.823 375.4C110.924 375.155 110.975 374.883 110.975 374.584C110.975 374.253 110.921 373.965 110.815 373.72C110.713 373.475 110.572 373.272 110.391 373.112C110.209 372.952 109.993 372.832 109.743 372.752C109.497 372.672 109.231 372.632 108.943 372.632C108.655 372.632 108.388 372.675 108.143 372.76C107.897 372.845 107.679 372.965 107.487 373.12C107.3 373.269 107.143 373.451 107.015 373.664C106.887 373.872 106.791 374.099 106.727 374.344C106.684 374.499 106.62 374.611 106.535 374.68C106.449 374.749 106.34 374.784 106.207 374.784C106.18 374.784 106.151 374.784 106.118 374.784C106.092 374.779 106.06 374.773 106.023 374.768L105.279 374.64C105.353 374.117 105.497 373.656 105.711 373.256C105.924 372.851 106.193 372.512 106.519 372.24C106.849 371.968 107.225 371.763 107.647 371.624C108.073 371.48 108.532 371.408 109.023 371.408Z" fill="black"/>
<path d="M49.5517 305H41V321H53.293V308.769L49.5517 305ZM49.7417 306.116L52.1854 308.577H49.7417V306.116V306.116ZM41.6512 320.349V305.651H49.0905V309.228H52.6418V320.349H41.6512V320.349Z" fill="black"/>
<path d="M48.1898 308.577H42.8989V309.228H48.1898V308.577Z" fill="black"/>
<path d="M51.3941 311.561H42.8989V312.212H51.3941V311.561Z" fill="black"/>
<path d="M51.3941 314.544H42.8989V315.195H51.3941V314.544Z" fill="black"/>
<path d="M51.3941 317.527H42.8989V318.179H51.3941V317.527Z" fill="black"/>
<path d="M49.5517 369H41V385H53.293V372.769L49.5517 369ZM49.7417 370.116L52.1854 372.577H49.7417V370.116V370.116ZM41.6512 384.349V369.651H49.0905V373.228H52.6418V384.349H41.6512V384.349Z" fill="black"/>
<path d="M48.1898 372.577H42.8989V373.228H48.1898V372.577Z" fill="black"/>
<path d="M51.3941 375.561H42.8989V376.212H51.3941V375.561Z" fill="black"/>
<path d="M51.3941 378.544H42.8989V379.195H51.3941V378.544Z" fill="black"/>
<path d="M51.3941 381.527H42.8989V382.179H51.3941V381.527Z" fill="black"/>
<path d="M34.8868 275.272C34.8149 275.2 34.7167 275.159 34.6147 275.159H24.3744V275.199L23.8843 274.003L19 274V286.8H34.996V285.982L35 275.545C34.9997 275.443 34.9598 275.345 34.8868 275.272ZM34.2283 275.93L34.2278 276.824H25.0406L24.6738 275.93H34.2283ZM34.2254 286.03H19.7702V274.771L23.3669 274.774L24.5235 277.595H34.2258V286.03H34.2254V286.03Z" fill="#010002"/>
<path d="M54.8868 340.272C54.8149 340.2 54.7167 340.159 54.6147 340.159H44.3744V340.199L43.8843 339.003L39 339V351.8H54.996V350.982L55 340.545C54.9997 340.443 54.9598 340.345 54.8868 340.272ZM54.2283 340.93L54.2278 341.824H45.0406L44.6738 340.93H54.2283ZM54.2254 351.03H39.7702V339.771L43.3669 339.774L44.5235 342.595H54.2258V351.03H54.2254V351.03Z" fill="#010002"/>
</svg>
