<svg width="113" height="192" viewBox="0 0 113 192" fill="none" xmlns="http://www.w3.org/2000/svg">
<path fill-rule="evenodd" clip-rule="evenodd" d="M0.707108 12.7071C1.09763 12.3166 1.7308 12.3166 2.12132 12.7071L6.70711 17.2929C7.09763 17.6834 7.09763 18.3166 6.70711 18.7071C6.31658 19.0976 5.68342 19.0976 5.2929 18.7071L0.707108 14.1213C0.316584 13.7308 0.316584 13.0976 0.707108 12.7071Z" fill="black"/>
<path fill-rule="evenodd" clip-rule="evenodd" d="M11.2929 12.7071C10.9024 12.3166 10.2692 12.3166 9.87868 12.7071L5.29289 17.2929C4.90237 17.6834 4.90237 18.3166 5.29289 18.7071C5.68342 19.0976 6.31658 19.0976 6.7071 18.7071L11.2929 14.1213C11.6834 13.7308 11.6834 13.0976 11.2929 12.7071Z" fill="black"/>
<path fill-rule="evenodd" clip-rule="evenodd" d="M3 181.293C2.60947 180.902 2.60947 180.269 3 179.879L7.58579 175.293C7.97631 174.902 8.60947 174.902 9 175.293C9.39052 175.683 9.39052 176.317 9 176.707L4.41421 181.293C4.02369 181.683 3.39052 181.683 3 181.293Z" fill="black"/>
<path fill-rule="evenodd" clip-rule="evenodd" d="M3 170.707C2.60947 171.098 2.60947 171.731 3 172.121L7.58579 176.707C7.97631 177.098 8.60948 177.098 9 176.707C9.39052 176.317 9.39052 175.683 9 175.293L4.41421 170.707C4.02369 170.317 3.39052 170.317 3 170.707Z" fill="black"/>
<path fill-rule="evenodd" clip-rule="evenodd" d="M22.7071 85.2929C22.3166 84.9024 22.3166 84.2692 22.7071 83.8787L27.2929 79.2929C27.6834 78.9024 28.3166 78.9024 28.7071 79.2929C29.0976 79.6834 29.0976 80.3166 28.7071 80.7071L24.1213 85.2929C23.7308 85.6834 23.0976 85.6834 22.7071 85.2929Z" fill="black"/>
<path fill-rule="evenodd" clip-rule="evenodd" d="M22.7071 74.7071C22.3166 75.0976 22.3166 75.7308 22.7071 76.1213L27.2929 80.7071C27.6834 81.0976 28.3166 81.0976 28.7071 80.7071C29.0976 80.3166 29.0976 79.6834 28.7071 79.2929L24.1213 74.7071C23.7308 74.3166 23.0976 74.3166 22.7071 74.7071Z" fill="black"/>
<path d="M46.096 17.712V22H44.552V10.536H47.936C48.6613 10.536 49.2907 10.6213 49.824 10.792C50.3627 10.9573 50.808 11.1947 51.16 11.504C51.512 11.8133 51.7733 12.1867 51.944 12.624C52.12 13.0613 52.208 13.5493 52.208 14.088C52.208 14.6213 52.1147 15.1093 51.928 15.552C51.7413 15.9947 51.4667 16.376 51.104 16.696C50.7467 17.016 50.3013 17.2667 49.768 17.448C49.2347 17.624 48.624 17.712 47.936 17.712H46.096ZM46.096 16.48H47.936C48.3787 16.48 48.768 16.4213 49.104 16.304C49.4453 16.1867 49.7307 16.024 49.96 15.816C50.1893 15.6027 50.3627 15.3493 50.48 15.056C50.5973 14.7627 50.656 14.44 50.656 14.088C50.656 13.3573 50.4293 12.7867 49.976 12.376C49.528 11.9653 48.848 11.76 47.936 11.76H46.096V16.48ZM59.495 22H58.863C58.7243 22 58.6123 21.9787 58.527 21.936C58.4417 21.8933 58.3857 21.8027 58.359 21.664L58.199 20.912C57.9857 21.104 57.7777 21.2773 57.575 21.432C57.3723 21.5813 57.159 21.7093 56.935 21.816C56.711 21.9173 56.471 21.9947 56.215 22.048C55.9643 22.1013 55.6843 22.128 55.375 22.128C55.0603 22.128 54.7643 22.0853 54.487 22C54.215 21.9093 53.9777 21.776 53.775 21.6C53.5723 21.424 53.4097 21.2027 53.287 20.936C53.1697 20.664 53.111 20.344 53.111 19.976C53.111 19.656 53.199 19.3493 53.375 19.056C53.551 18.7573 53.8337 18.4933 54.223 18.264C54.6177 18.0347 55.1323 17.848 55.767 17.704C56.4017 17.5547 57.1777 17.4693 58.095 17.448V16.816C58.095 16.1867 57.959 15.712 57.687 15.392C57.4203 15.0667 57.023 14.904 56.495 14.904C56.1483 14.904 55.855 14.9493 55.615 15.04C55.3803 15.1253 55.175 15.224 54.999 15.336C54.8283 15.4427 54.679 15.5413 54.551 15.632C54.4283 15.7173 54.3057 15.76 54.183 15.76C54.087 15.76 54.0017 15.736 53.927 15.688C53.8577 15.6347 53.8017 15.5707 53.759 15.496L53.503 15.04C53.951 14.608 54.4337 14.2853 54.951 14.072C55.4683 13.8587 56.0417 13.752 56.671 13.752C57.1243 13.752 57.527 13.8267 57.879 13.976C58.231 14.1253 58.527 14.3333 58.767 14.6C59.007 14.8667 59.1883 15.1893 59.311 15.568C59.4337 15.9467 59.495 16.3627 59.495 16.816V22ZM55.799 21.128C56.0497 21.128 56.279 21.104 56.487 21.056C56.695 21.0027 56.8897 20.9307 57.071 20.84C57.2577 20.744 57.4337 20.6293 57.599 20.496C57.7697 20.3627 57.935 20.2107 58.095 20.04V18.352C57.439 18.3733 56.8817 18.4267 56.423 18.512C55.9643 18.592 55.591 18.6987 55.303 18.832C55.015 18.9653 54.8043 19.1227 54.671 19.304C54.543 19.4853 54.479 19.688 54.479 19.912C54.479 20.1253 54.5137 20.3093 54.583 20.464C54.6523 20.6187 54.7457 20.7467 54.863 20.848C54.9803 20.944 55.119 21.016 55.279 21.064C55.439 21.1067 55.6123 21.128 55.799 21.128ZM61.6524 22V13.896H62.4684C62.623 13.896 62.7297 13.9253 62.7884 13.984C62.847 14.0427 62.887 14.144 62.9084 14.288L63.0044 15.552C63.2817 14.9867 63.623 14.5467 64.0284 14.232C64.439 13.912 64.919 13.752 65.4684 13.752C65.6924 13.752 65.895 13.7787 66.0764 13.832C66.2577 13.88 66.4257 13.9493 66.5804 14.04L66.3964 15.104C66.359 15.2373 66.2764 15.304 66.1484 15.304C66.0737 15.304 65.959 15.28 65.8044 15.232C65.6497 15.1787 65.4337 15.152 65.1564 15.152C64.6604 15.152 64.2444 15.296 63.9084 15.584C63.5777 15.872 63.3004 16.2907 63.0764 16.84V22H61.6524ZM71.3135 13.768C71.7988 13.768 72.2468 13.8507 72.6575 14.016C73.0682 14.176 73.4228 14.4107 73.7215 14.72C74.0202 15.024 74.2522 15.4027 74.4175 15.856C74.5882 16.304 74.6735 16.816 74.6735 17.392C74.6735 17.616 74.6495 17.7653 74.6015 17.84C74.5535 17.9147 74.4628 17.952 74.3295 17.952H68.9375C68.9482 18.464 69.0175 18.9093 69.1455 19.288C69.2735 19.6667 69.4495 19.984 69.6735 20.24C69.8975 20.4907 70.1642 20.68 70.4735 20.808C70.7828 20.9307 71.1295 20.992 71.5135 20.992C71.8708 20.992 72.1775 20.952 72.4335 20.872C72.6948 20.7867 72.9188 20.696 73.1055 20.6C73.2922 20.504 73.4468 20.416 73.5695 20.336C73.6975 20.2507 73.8068 20.208 73.8975 20.208C74.0148 20.208 74.1055 20.2533 74.1695 20.344L74.5695 20.864C74.3935 21.0773 74.1828 21.264 73.9375 21.424C73.6922 21.5787 73.4282 21.7067 73.1455 21.808C72.8682 21.9093 72.5802 21.984 72.2815 22.032C71.9828 22.0853 71.6868 22.112 71.3935 22.112C70.8335 22.112 70.3162 22.0187 69.8415 21.832C69.3722 21.64 68.9642 21.3627 68.6175 21C68.2762 20.632 68.0095 20.1787 67.8175 19.64C67.6255 19.1013 67.5295 18.4827 67.5295 17.784C67.5295 17.2187 67.6148 16.6907 67.7855 16.2C67.9615 15.7093 68.2122 15.2853 68.5375 14.928C68.8628 14.5653 69.2602 14.2827 69.7295 14.08C70.1988 13.872 70.7268 13.768 71.3135 13.768ZM71.3455 14.816C70.6575 14.816 70.1162 15.016 69.7215 15.416C69.3268 15.8107 69.0815 16.36 68.9855 17.064H73.3935C73.3935 16.7333 73.3482 16.432 73.2575 16.16C73.1668 15.8827 73.0335 15.6453 72.8575 15.448C72.6815 15.2453 72.4655 15.0907 72.2095 14.984C71.9588 14.872 71.6708 14.816 71.3455 14.816ZM76.4961 22V13.896H77.3441C77.5468 13.896 77.6748 13.9947 77.7281 14.192L77.8401 15.072C78.1921 14.6827 78.5841 14.368 79.0161 14.128C79.4535 13.888 79.9575 13.768 80.5281 13.768C80.9708 13.768 81.3601 13.8427 81.6961 13.992C82.0375 14.136 82.3201 14.344 82.5441 14.616C82.7735 14.8827 82.9468 15.2053 83.0641 15.584C83.1815 15.9627 83.2401 16.3813 83.2401 16.84V22H81.8161V16.84C81.8161 16.2267 81.6748 15.752 81.3921 15.416C81.1148 15.0747 80.6881 14.904 80.1121 14.904C79.6908 14.904 79.2961 15.0053 78.9281 15.208C78.5655 15.4107 78.2295 15.6853 77.9201 16.032V22H76.4961ZM87.8428 22.128C87.2028 22.128 86.7094 21.9493 86.3628 21.592C86.0214 21.2347 85.8508 20.72 85.8508 20.048V15.088H84.8748C84.7894 15.088 84.7174 15.064 84.6588 15.016C84.6001 14.9627 84.5708 14.8827 84.5708 14.776V14.208L85.8988 14.04L86.2268 11.536C86.2374 11.456 86.2721 11.392 86.3307 11.344C86.3894 11.2907 86.4641 11.264 86.5548 11.264H87.2748V14.056H89.5948V15.088H87.2748V19.952C87.2748 20.2933 87.3574 20.5467 87.5228 20.712C87.6881 20.8773 87.9014 20.96 88.1628 20.96C88.3121 20.96 88.4401 20.9413 88.5468 20.904C88.6588 20.8613 88.7548 20.816 88.8348 20.768C88.9148 20.72 88.9814 20.6773 89.0348 20.64C89.0934 20.5973 89.1441 20.576 89.1868 20.576C89.2614 20.576 89.3281 20.6213 89.3868 20.712L89.8028 21.392C89.5574 21.6213 89.2614 21.8027 88.9148 21.936C88.5681 22.064 88.2108 22.128 87.8428 22.128ZM95.5773 20.912H98.0413V13.096C98.0413 12.8613 98.0493 12.624 98.0653 12.384L96.0173 14.136C95.9639 14.1787 95.9106 14.2107 95.8573 14.232C95.8039 14.248 95.7533 14.256 95.7053 14.256C95.6253 14.256 95.5533 14.24 95.4893 14.208C95.4253 14.1707 95.3773 14.128 95.3453 14.08L94.8973 13.464L98.3053 10.512H99.4653V20.912H101.721V22H95.5773V20.912Z" fill="black"/>
<path d="M46.096 177.712V182H44.552V170.536H47.936C48.6613 170.536 49.2907 170.621 49.824 170.792C50.3627 170.957 50.808 171.195 51.16 171.504C51.512 171.813 51.7733 172.187 51.944 172.624C52.12 173.061 52.208 173.549 52.208 174.088C52.208 174.621 52.1147 175.109 51.928 175.552C51.7413 175.995 51.4667 176.376 51.104 176.696C50.7467 177.016 50.3013 177.267 49.768 177.448C49.2347 177.624 48.624 177.712 47.936 177.712H46.096ZM46.096 176.48H47.936C48.3787 176.48 48.768 176.421 49.104 176.304C49.4453 176.187 49.7307 176.024 49.96 175.816C50.1893 175.603 50.3627 175.349 50.48 175.056C50.5973 174.763 50.656 174.44 50.656 174.088C50.656 173.357 50.4293 172.787 49.976 172.376C49.528 171.965 48.848 171.76 47.936 171.76H46.096V176.48ZM59.495 182H58.863C58.7243 182 58.6123 181.979 58.527 181.936C58.4417 181.893 58.3857 181.803 58.359 181.664L58.199 180.912C57.9857 181.104 57.7777 181.277 57.575 181.432C57.3723 181.581 57.159 181.709 56.935 181.816C56.711 181.917 56.471 181.995 56.215 182.048C55.9643 182.101 55.6843 182.128 55.375 182.128C55.0603 182.128 54.7643 182.085 54.487 182C54.215 181.909 53.9777 181.776 53.775 181.6C53.5723 181.424 53.4097 181.203 53.287 180.936C53.1697 180.664 53.111 180.344 53.111 179.976C53.111 179.656 53.199 179.349 53.375 179.056C53.551 178.757 53.8337 178.493 54.223 178.264C54.6177 178.035 55.1323 177.848 55.767 177.704C56.4017 177.555 57.1777 177.469 58.095 177.448V176.816C58.095 176.187 57.959 175.712 57.687 175.392C57.4203 175.067 57.023 174.904 56.495 174.904C56.1483 174.904 55.855 174.949 55.615 175.04C55.3803 175.125 55.175 175.224 54.999 175.336C54.8283 175.443 54.679 175.541 54.551 175.632C54.4283 175.717 54.3057 175.76 54.183 175.76C54.087 175.76 54.0017 175.736 53.927 175.688C53.8577 175.635 53.8017 175.571 53.759 175.496L53.503 175.04C53.951 174.608 54.4337 174.285 54.951 174.072C55.4683 173.859 56.0417 173.752 56.671 173.752C57.1243 173.752 57.527 173.827 57.879 173.976C58.231 174.125 58.527 174.333 58.767 174.6C59.007 174.867 59.1883 175.189 59.311 175.568C59.4337 175.947 59.495 176.363 59.495 176.816V182ZM55.799 181.128C56.0497 181.128 56.279 181.104 56.487 181.056C56.695 181.003 56.8897 180.931 57.071 180.84C57.2577 180.744 57.4337 180.629 57.599 180.496C57.7697 180.363 57.935 180.211 58.095 180.04V178.352C57.439 178.373 56.8817 178.427 56.423 178.512C55.9643 178.592 55.591 178.699 55.303 178.832C55.015 178.965 54.8043 179.123 54.671 179.304C54.543 179.485 54.479 179.688 54.479 179.912C54.479 180.125 54.5137 180.309 54.583 180.464C54.6523 180.619 54.7457 180.747 54.863 180.848C54.9803 180.944 55.119 181.016 55.279 181.064C55.439 181.107 55.6123 181.128 55.799 181.128ZM61.6524 182V173.896H62.4684C62.623 173.896 62.7297 173.925 62.7884 173.984C62.847 174.043 62.887 174.144 62.9084 174.288L63.0044 175.552C63.2817 174.987 63.623 174.547 64.0284 174.232C64.439 173.912 64.919 173.752 65.4684 173.752C65.6924 173.752 65.895 173.779 66.0764 173.832C66.2577 173.88 66.4257 173.949 66.5804 174.04L66.3964 175.104C66.359 175.237 66.2764 175.304 66.1484 175.304C66.0737 175.304 65.959 175.28 65.8044 175.232C65.6497 175.179 65.4337 175.152 65.1564 175.152C64.6604 175.152 64.2444 175.296 63.9084 175.584C63.5777 175.872 63.3004 176.291 63.0764 176.84V182H61.6524ZM71.3135 173.768C71.7988 173.768 72.2468 173.851 72.6575 174.016C73.0682 174.176 73.4228 174.411 73.7215 174.72C74.0202 175.024 74.2522 175.403 74.4175 175.856C74.5882 176.304 74.6735 176.816 74.6735 177.392C74.6735 177.616 74.6495 177.765 74.6015 177.84C74.5535 177.915 74.4628 177.952 74.3295 177.952H68.9375C68.9482 178.464 69.0175 178.909 69.1455 179.288C69.2735 179.667 69.4495 179.984 69.6735 180.24C69.8975 180.491 70.1642 180.68 70.4735 180.808C70.7828 180.931 71.1295 180.992 71.5135 180.992C71.8708 180.992 72.1775 180.952 72.4335 180.872C72.6948 180.787 72.9188 180.696 73.1055 180.6C73.2922 180.504 73.4468 180.416 73.5695 180.336C73.6975 180.251 73.8068 180.208 73.8975 180.208C74.0148 180.208 74.1055 180.253 74.1695 180.344L74.5695 180.864C74.3935 181.077 74.1828 181.264 73.9375 181.424C73.6922 181.579 73.4282 181.707 73.1455 181.808C72.8682 181.909 72.5802 181.984 72.2815 182.032C71.9828 182.085 71.6868 182.112 71.3935 182.112C70.8335 182.112 70.3162 182.019 69.8415 181.832C69.3722 181.64 68.9642 181.363 68.6175 181C68.2762 180.632 68.0095 180.179 67.8175 179.64C67.6255 179.101 67.5295 178.483 67.5295 177.784C67.5295 177.219 67.6148 176.691 67.7855 176.2C67.9615 175.709 68.2122 175.285 68.5375 174.928C68.8628 174.565 69.2602 174.283 69.7295 174.08C70.1988 173.872 70.7268 173.768 71.3135 173.768ZM71.3455 174.816C70.6575 174.816 70.1162 175.016 69.7215 175.416C69.3268 175.811 69.0815 176.36 68.9855 177.064H73.3935C73.3935 176.733 73.3482 176.432 73.2575 176.16C73.1668 175.883 73.0335 175.645 72.8575 175.448C72.6815 175.245 72.4655 175.091 72.2095 174.984C71.9588 174.872 71.6708 174.816 71.3455 174.816ZM76.4961 182V173.896H77.3441C77.5468 173.896 77.6748 173.995 77.7281 174.192L77.8401 175.072C78.1921 174.683 78.5841 174.368 79.0161 174.128C79.4535 173.888 79.9575 173.768 80.5281 173.768C80.9708 173.768 81.3601 173.843 81.6961 173.992C82.0375 174.136 82.3201 174.344 82.5441 174.616C82.7735 174.883 82.9468 175.205 83.0641 175.584C83.1815 175.963 83.2401 176.381 83.2401 176.84V182H81.8161V176.84C81.8161 176.227 81.6748 175.752 81.3921 175.416C81.1148 175.075 80.6881 174.904 80.1121 174.904C79.6908 174.904 79.2961 175.005 78.9281 175.208C78.5655 175.411 78.2295 175.685 77.9201 176.032V182H76.4961ZM87.8428 182.128C87.2028 182.128 86.7094 181.949 86.3628 181.592C86.0214 181.235 85.8508 180.72 85.8508 180.048V175.088H84.8748C84.7894 175.088 84.7174 175.064 84.6588 175.016C84.6001 174.963 84.5708 174.883 84.5708 174.776V174.208L85.8988 174.04L86.2268 171.536C86.2374 171.456 86.2721 171.392 86.3307 171.344C86.3894 171.291 86.4641 171.264 86.5548 171.264H87.2748V174.056H89.5948V175.088H87.2748V179.952C87.2748 180.293 87.3574 180.547 87.5228 180.712C87.6881 180.877 87.9014 180.96 88.1628 180.96C88.3121 180.96 88.4401 180.941 88.5468 180.904C88.6588 180.861 88.7548 180.816 88.8348 180.768C88.9148 180.72 88.9814 180.677 89.0348 180.64C89.0934 180.597 89.1441 180.576 89.1868 180.576C89.2614 180.576 89.3281 180.621 89.3868 180.712L89.8028 181.392C89.5574 181.621 89.2614 181.803 88.9148 181.936C88.5681 182.064 88.2108 182.128 87.8428 182.128ZM98.0893 170.408C98.5746 170.408 99.0279 170.48 99.4493 170.624C99.8706 170.768 100.233 170.979 100.537 171.256C100.847 171.528 101.089 171.861 101.265 172.256C101.441 172.651 101.529 173.099 101.529 173.6C101.529 174.027 101.465 174.421 101.337 174.784C101.209 175.147 101.036 175.496 100.817 175.832C100.599 176.163 100.345 176.485 100.057 176.8C99.7746 177.109 99.4733 177.427 99.1533 177.752L96.1373 180.84C96.3506 180.781 96.5666 180.736 96.7853 180.704C97.0039 180.667 97.2146 180.648 97.4173 180.648H101.257C101.412 180.648 101.535 180.693 101.625 180.784C101.716 180.875 101.761 180.992 101.761 181.136V182H94.1133V181.512C94.1133 181.411 94.1319 181.307 94.1693 181.2C94.2119 181.093 94.2786 180.995 94.3693 180.904L98.0413 177.216C98.3453 176.907 98.6226 176.611 98.8733 176.328C99.1239 176.04 99.3373 175.752 99.5133 175.464C99.6946 175.176 99.8333 174.885 99.9293 174.592C100.025 174.293 100.073 173.976 100.073 173.64C100.073 173.304 100.02 173.011 99.9133 172.76C99.8066 172.504 99.6599 172.293 99.4733 172.128C99.2866 171.963 99.0679 171.84 98.8173 171.76C98.5666 171.675 98.2973 171.632 98.0093 171.632C97.7213 171.632 97.4546 171.675 97.2093 171.76C96.9639 171.845 96.7453 171.965 96.5533 172.12C96.3666 172.269 96.2066 172.448 96.0733 172.656C95.9453 172.864 95.8546 173.093 95.8013 173.344C95.7586 173.499 95.6946 173.611 95.6093 173.68C95.5239 173.749 95.4119 173.784 95.2733 173.784C95.2466 173.784 95.2173 173.784 95.1853 173.784C95.1586 173.779 95.1266 173.773 95.0893 173.768L94.3453 173.64C94.4199 173.117 94.5639 172.656 94.7773 172.256C94.9906 171.851 95.2599 171.512 95.5853 171.24C95.9159 170.968 96.2919 170.763 96.7133 170.624C97.1399 170.48 97.5986 170.408 98.0893 170.408Z" fill="black"/>
<path d="M72.472 51.632C72.5573 51.632 72.6347 51.6667 72.704 51.736L73.312 52.4C72.8427 52.944 72.272 53.368 71.6 53.672C70.9333 53.976 70.128 54.128 69.184 54.128C68.3573 54.128 67.608 53.9867 66.936 53.704C66.264 53.416 65.6907 53.016 65.216 52.504C64.7413 51.9867 64.3733 51.368 64.112 50.648C63.8507 49.928 63.72 49.136 63.72 48.272C63.72 47.408 63.8587 46.616 64.136 45.896C64.4187 45.176 64.8133 44.5573 65.32 44.04C65.8267 43.5227 66.432 43.1227 67.136 42.84C67.8453 42.552 68.6267 42.408 69.48 42.408C70.3227 42.408 71.048 42.5387 71.656 42.8C72.2693 43.0613 72.8133 43.416 73.288 43.864L72.784 44.576C72.7467 44.6293 72.704 44.6747 72.656 44.712C72.608 44.744 72.5387 44.76 72.448 44.76C72.3787 44.76 72.304 44.736 72.224 44.688C72.1493 44.6347 72.0587 44.5707 71.952 44.496C71.8453 44.4213 71.72 44.3413 71.576 44.256C71.432 44.1707 71.2613 44.0907 71.064 44.016C70.8667 43.9413 70.6373 43.88 70.376 43.832C70.1147 43.7787 69.8133 43.752 69.472 43.752C68.8587 43.752 68.296 43.8587 67.784 44.072C67.2773 44.28 66.84 44.5787 66.472 44.968C66.104 45.3573 65.816 45.832 65.608 46.392C65.4053 46.952 65.304 47.5787 65.304 48.272C65.304 48.9867 65.4053 49.624 65.608 50.184C65.816 50.744 66.096 51.2187 66.448 51.608C66.8053 51.992 67.2267 52.2853 67.712 52.488C68.1973 52.6907 68.72 52.792 69.28 52.792C69.6213 52.792 69.928 52.7733 70.2 52.736C70.472 52.6933 70.7227 52.6293 70.952 52.544C71.1867 52.4587 71.4027 52.352 71.6 52.224C71.8027 52.0907 72.0053 51.9333 72.208 51.752C72.2987 51.672 72.3867 51.632 72.472 51.632ZM75.1211 54V42.216H76.5451V46.984C76.8918 46.616 77.2758 46.3227 77.6971 46.104C78.1185 45.88 78.6038 45.768 79.1531 45.768C79.5958 45.768 79.9851 45.8427 80.3211 45.992C80.6625 46.136 80.9451 46.344 81.1691 46.616C81.3985 46.8827 81.5718 47.2053 81.6891 47.584C81.8065 47.9627 81.8651 48.3813 81.8651 48.84V54H80.4411V48.84C80.4411 48.2267 80.2998 47.752 80.0171 47.416C79.7398 47.0747 79.3131 46.904 78.7371 46.904C78.3158 46.904 77.9211 47.0053 77.5531 47.208C77.1905 47.4107 76.8545 47.6853 76.5451 48.032V54H75.1211ZM85.5958 45.896V54H84.1718V45.896H85.5958ZM85.9158 43.352C85.9158 43.4907 85.8864 43.6213 85.8278 43.744C85.7744 43.8613 85.6998 43.968 85.6038 44.064C85.5131 44.1547 85.4064 44.2267 85.2838 44.28C85.1611 44.3333 85.0304 44.36 84.8918 44.36C84.7531 44.36 84.6224 44.3333 84.4998 44.28C84.3824 44.2267 84.2758 44.1547 84.1798 44.064C84.0891 43.968 84.0171 43.8613 83.9638 43.744C83.9104 43.6213 83.8838 43.4907 83.8838 43.352C83.8838 43.2133 83.9104 43.0827 83.9638 42.96C84.0171 42.832 84.0891 42.7227 84.1798 42.632C84.2758 42.536 84.3824 42.4613 84.4998 42.408C84.6224 42.3547 84.7531 42.328 84.8918 42.328C85.0304 42.328 85.1611 42.3547 85.2838 42.408C85.4064 42.4613 85.5131 42.536 85.6038 42.632C85.6998 42.7227 85.7744 42.832 85.8278 42.96C85.8864 43.0827 85.9158 43.2133 85.9158 43.352ZM89.6895 42.216V54H88.2655V42.216H89.6895ZM97.9033 54C97.7006 54 97.5726 53.9013 97.5193 53.704L97.3913 52.72C97.0446 53.1413 96.6473 53.48 96.1993 53.736C95.7566 53.9867 95.2473 54.112 94.6713 54.112C94.2073 54.112 93.7859 54.024 93.4073 53.848C93.0286 53.6667 92.7059 53.4027 92.4393 53.056C92.1726 52.7093 91.9673 52.2773 91.8233 51.76C91.6793 51.2427 91.6073 50.648 91.6073 49.976C91.6073 49.3787 91.6873 48.824 91.8473 48.312C92.0073 47.7947 92.2366 47.3467 92.5353 46.968C92.8393 46.5893 93.2073 46.2933 93.6393 46.08C94.0713 45.8613 94.5619 45.752 95.1113 45.752C95.6073 45.752 96.0313 45.8373 96.3833 46.008C96.7353 46.1733 97.0499 46.408 97.3273 46.712V42.216H98.7513V54H97.9033ZM95.1432 52.96C95.6073 52.96 96.0126 52.8533 96.3593 52.64C96.7113 52.4267 97.0339 52.1253 97.3273 51.736V47.816C97.0659 47.464 96.7779 47.2187 96.4633 47.08C96.1539 46.936 95.8099 46.864 95.4313 46.864C94.6739 46.864 94.0926 47.1333 93.6873 47.672C93.2819 48.2107 93.0793 48.9787 93.0793 49.976C93.0793 50.504 93.1246 50.9573 93.2153 51.336C93.3059 51.7093 93.4393 52.0187 93.6153 52.264C93.7913 52.504 94.0073 52.68 94.2633 52.792C94.5193 52.904 94.8126 52.96 95.1432 52.96ZM105.359 52.912H107.823V45.096C107.823 44.8613 107.831 44.624 107.847 44.384L105.799 46.136C105.745 46.1787 105.692 46.2107 105.639 46.232C105.585 46.248 105.535 46.256 105.487 46.256C105.407 46.256 105.335 46.24 105.271 46.208C105.207 46.1707 105.159 46.128 105.127 46.08L104.679 45.464L108.087 42.512H109.247V52.912H111.503V54H105.359V52.912ZM72.472 83.632C72.5573 83.632 72.6347 83.6667 72.704 83.736L73.312 84.4C72.8427 84.944 72.272 85.368 71.6 85.672C70.9333 85.976 70.128 86.128 69.184 86.128C68.3573 86.128 67.608 85.9867 66.936 85.704C66.264 85.416 65.6907 85.016 65.216 84.504C64.7413 83.9867 64.3733 83.368 64.112 82.648C63.8507 81.928 63.72 81.136 63.72 80.272C63.72 79.408 63.8587 78.616 64.136 77.896C64.4187 77.176 64.8133 76.5573 65.32 76.04C65.8267 75.5227 66.432 75.1227 67.136 74.84C67.8453 74.552 68.6267 74.408 69.48 74.408C70.3227 74.408 71.048 74.5387 71.656 74.8C72.2693 75.0613 72.8133 75.416 73.288 75.864L72.784 76.576C72.7467 76.6293 72.704 76.6747 72.656 76.712C72.608 76.744 72.5387 76.76 72.448 76.76C72.3787 76.76 72.304 76.736 72.224 76.688C72.1493 76.6347 72.0587 76.5707 71.952 76.496C71.8453 76.4213 71.72 76.3413 71.576 76.256C71.432 76.1707 71.2613 76.0907 71.064 76.016C70.8667 75.9413 70.6373 75.88 70.376 75.832C70.1147 75.7787 69.8133 75.752 69.472 75.752C68.8587 75.752 68.296 75.8587 67.784 76.072C67.2773 76.28 66.84 76.5787 66.472 76.968C66.104 77.3573 65.816 77.832 65.608 78.392C65.4053 78.952 65.304 79.5787 65.304 80.272C65.304 80.9867 65.4053 81.624 65.608 82.184C65.816 82.744 66.096 83.2187 66.448 83.608C66.8053 83.992 67.2267 84.2853 67.712 84.488C68.1973 84.6907 68.72 84.792 69.28 84.792C69.6213 84.792 69.928 84.7733 70.2 84.736C70.472 84.6933 70.7227 84.6293 70.952 84.544C71.1867 84.4587 71.4027 84.352 71.6 84.224C71.8027 84.0907 72.0053 83.9333 72.208 83.752C72.2987 83.672 72.3867 83.632 72.472 83.632ZM75.1211 86V74.216H76.5451V78.984C76.8918 78.616 77.2758 78.3227 77.6971 78.104C78.1185 77.88 78.6038 77.768 79.1531 77.768C79.5958 77.768 79.9851 77.8427 80.3211 77.992C80.6625 78.136 80.9451 78.344 81.1691 78.616C81.3985 78.8827 81.5718 79.2053 81.6891 79.584C81.8065 79.9627 81.8651 80.3813 81.8651 80.84V86H80.4411V80.84C80.4411 80.2267 80.2998 79.752 80.0171 79.416C79.7398 79.0747 79.3131 78.904 78.7371 78.904C78.3158 78.904 77.9211 79.0053 77.5531 79.208C77.1905 79.4107 76.8545 79.6853 76.5451 80.032V86H75.1211ZM85.5958 77.896V86H84.1718V77.896H85.5958ZM85.9158 75.352C85.9158 75.4907 85.8864 75.6213 85.8278 75.744C85.7744 75.8613 85.6998 75.968 85.6038 76.064C85.5131 76.1547 85.4064 76.2267 85.2838 76.28C85.1611 76.3333 85.0304 76.36 84.8918 76.36C84.7531 76.36 84.6224 76.3333 84.4998 76.28C84.3824 76.2267 84.2758 76.1547 84.1798 76.064C84.0891 75.968 84.0171 75.8613 83.9638 75.744C83.9104 75.6213 83.8838 75.4907 83.8838 75.352C83.8838 75.2133 83.9104 75.0827 83.9638 74.96C84.0171 74.832 84.0891 74.7227 84.1798 74.632C84.2758 74.536 84.3824 74.4613 84.4998 74.408C84.6224 74.3547 84.7531 74.328 84.8918 74.328C85.0304 74.328 85.1611 74.3547 85.2838 74.408C85.4064 74.4613 85.5131 74.536 85.6038 74.632C85.6998 74.7227 85.7744 74.832 85.8278 74.96C85.8864 75.0827 85.9158 75.2133 85.9158 75.352ZM89.6895 74.216V86H88.2655V74.216H89.6895ZM97.9033 86C97.7006 86 97.5726 85.9013 97.5193 85.704L97.3913 84.72C97.0446 85.1413 96.6473 85.48 96.1993 85.736C95.7566 85.9867 95.2473 86.112 94.6713 86.112C94.2073 86.112 93.7859 86.024 93.4073 85.848C93.0286 85.6667 92.7059 85.4027 92.4393 85.056C92.1726 84.7093 91.9673 84.2773 91.8233 83.76C91.6793 83.2427 91.6073 82.648 91.6073 81.976C91.6073 81.3787 91.6873 80.824 91.8473 80.312C92.0073 79.7947 92.2366 79.3467 92.5353 78.968C92.8393 78.5893 93.2073 78.2933 93.6393 78.08C94.0713 77.8613 94.5619 77.752 95.1113 77.752C95.6073 77.752 96.0313 77.8373 96.3833 78.008C96.7353 78.1733 97.0499 78.408 97.3273 78.712V74.216H98.7513V86H97.9033ZM95.1432 84.96C95.6073 84.96 96.0126 84.8533 96.3593 84.64C96.7113 84.4267 97.0339 84.1253 97.3273 83.736V79.816C97.0659 79.464 96.7779 79.2187 96.4633 79.08C96.1539 78.936 95.8099 78.864 95.4313 78.864C94.6739 78.864 94.0926 79.1333 93.6873 79.672C93.2819 80.2107 93.0793 80.9787 93.0793 81.976C93.0793 82.504 93.1246 82.9573 93.2153 83.336C93.3059 83.7093 93.4393 84.0187 93.6153 84.264C93.7913 84.504 94.0073 84.68 94.2633 84.792C94.5193 84.904 94.8126 84.96 95.1432 84.96ZM107.871 74.408C108.356 74.408 108.809 74.48 109.231 74.624C109.652 74.768 110.015 74.9787 110.319 75.256C110.628 75.528 110.871 75.8613 111.047 76.256C111.223 76.6507 111.311 77.0987 111.311 77.6C111.311 78.0267 111.247 78.4213 111.119 78.784C110.991 79.1467 110.817 79.496 110.599 79.832C110.38 80.1627 110.127 80.4853 109.839 80.8C109.556 81.1093 109.255 81.4267 108.935 81.752L105.919 84.84C106.132 84.7813 106.348 84.736 106.567 84.704C106.785 84.6667 106.996 84.648 107.199 84.648H111.039C111.193 84.648 111.316 84.6933 111.407 84.784C111.497 84.8747 111.543 84.992 111.543 85.136V86H103.895V85.512C103.895 85.4107 103.913 85.3067 103.951 85.2C103.993 85.0933 104.06 84.9947 104.151 84.904L107.823 81.216C108.127 80.9067 108.404 80.6107 108.655 80.328C108.905 80.04 109.119 79.752 109.295 79.464C109.476 79.176 109.615 78.8853 109.711 78.592C109.807 78.2933 109.855 77.976 109.855 77.64C109.855 77.304 109.801 77.0107 109.695 76.76C109.588 76.504 109.441 76.2933 109.255 76.128C109.068 75.9627 108.849 75.84 108.599 75.76C108.348 75.6747 108.079 75.632 107.791 75.632C107.503 75.632 107.236 75.6747 106.991 75.76C106.745 75.8453 106.527 75.9653 106.335 76.12C106.148 76.2693 105.988 76.448 105.855 76.656C105.727 76.864 105.636 77.0933 105.583 77.344C105.54 77.4987 105.476 77.6107 105.391 77.68C105.305 77.7493 105.193 77.784 105.055 77.784C105.028 77.784 104.999 77.784 104.967 77.784C104.94 77.7787 104.908 77.7733 104.871 77.768L104.127 77.64C104.201 77.1173 104.345 76.656 104.559 76.256C104.772 75.8507 105.041 75.512 105.367 75.24C105.697 74.968 106.073 74.7627 106.495 74.624C106.921 74.48 107.38 74.408 107.871 74.408ZM72.472 115.632C72.5573 115.632 72.6347 115.667 72.704 115.736L73.312 116.4C72.8427 116.944 72.272 117.368 71.6 117.672C70.9333 117.976 70.128 118.128 69.184 118.128C68.3573 118.128 67.608 117.987 66.936 117.704C66.264 117.416 65.6907 117.016 65.216 116.504C64.7413 115.987 64.3733 115.368 64.112 114.648C63.8507 113.928 63.72 113.136 63.72 112.272C63.72 111.408 63.8587 110.616 64.136 109.896C64.4187 109.176 64.8133 108.557 65.32 108.04C65.8267 107.523 66.432 107.123 67.136 106.84C67.8453 106.552 68.6267 106.408 69.48 106.408C70.3227 106.408 71.048 106.539 71.656 106.8C72.2693 107.061 72.8133 107.416 73.288 107.864L72.784 108.576C72.7467 108.629 72.704 108.675 72.656 108.712C72.608 108.744 72.5387 108.76 72.448 108.76C72.3787 108.76 72.304 108.736 72.224 108.688C72.1493 108.635 72.0587 108.571 71.952 108.496C71.8453 108.421 71.72 108.341 71.576 108.256C71.432 108.171 71.2613 108.091 71.064 108.016C70.8667 107.941 70.6373 107.88 70.376 107.832C70.1147 107.779 69.8133 107.752 69.472 107.752C68.8587 107.752 68.296 107.859 67.784 108.072C67.2773 108.28 66.84 108.579 66.472 108.968C66.104 109.357 65.816 109.832 65.608 110.392C65.4053 110.952 65.304 111.579 65.304 112.272C65.304 112.987 65.4053 113.624 65.608 114.184C65.816 114.744 66.096 115.219 66.448 115.608C66.8053 115.992 67.2267 116.285 67.712 116.488C68.1973 116.691 68.72 116.792 69.28 116.792C69.6213 116.792 69.928 116.773 70.2 116.736C70.472 116.693 70.7227 116.629 70.952 116.544C71.1867 116.459 71.4027 116.352 71.6 116.224C71.8027 116.091 72.0053 115.933 72.208 115.752C72.2987 115.672 72.3867 115.632 72.472 115.632ZM75.1211 118V106.216H76.5451V110.984C76.8918 110.616 77.2758 110.323 77.6971 110.104C78.1185 109.88 78.6038 109.768 79.1531 109.768C79.5958 109.768 79.9851 109.843 80.3211 109.992C80.6625 110.136 80.9451 110.344 81.1691 110.616C81.3985 110.883 81.5718 111.205 81.6891 111.584C81.8065 111.963 81.8651 112.381 81.8651 112.84V118H80.4411V112.84C80.4411 112.227 80.2998 111.752 80.0171 111.416C79.7398 111.075 79.3131 110.904 78.7371 110.904C78.3158 110.904 77.9211 111.005 77.5531 111.208C77.1905 111.411 76.8545 111.685 76.5451 112.032V118H75.1211ZM85.5958 109.896V118H84.1718V109.896H85.5958ZM85.9158 107.352C85.9158 107.491 85.8864 107.621 85.8278 107.744C85.7744 107.861 85.6998 107.968 85.6038 108.064C85.5131 108.155 85.4064 108.227 85.2838 108.28C85.1611 108.333 85.0304 108.36 84.8918 108.36C84.7531 108.36 84.6224 108.333 84.4998 108.28C84.3824 108.227 84.2758 108.155 84.1798 108.064C84.0891 107.968 84.0171 107.861 83.9638 107.744C83.9104 107.621 83.8838 107.491 83.8838 107.352C83.8838 107.213 83.9104 107.083 83.9638 106.96C84.0171 106.832 84.0891 106.723 84.1798 106.632C84.2758 106.536 84.3824 106.461 84.4998 106.408C84.6224 106.355 84.7531 106.328 84.8918 106.328C85.0304 106.328 85.1611 106.355 85.2838 106.408C85.4064 106.461 85.5131 106.536 85.6038 106.632C85.6998 106.723 85.7744 106.832 85.8278 106.96C85.8864 107.083 85.9158 107.213 85.9158 107.352ZM89.6895 106.216V118H88.2655V106.216H89.6895ZM97.9033 118C97.7006 118 97.5726 117.901 97.5193 117.704L97.3913 116.72C97.0446 117.141 96.6473 117.48 96.1993 117.736C95.7566 117.987 95.2473 118.112 94.6713 118.112C94.2073 118.112 93.7859 118.024 93.4073 117.848C93.0286 117.667 92.7059 117.403 92.4393 117.056C92.1726 116.709 91.9673 116.277 91.8233 115.76C91.6793 115.243 91.6073 114.648 91.6073 113.976C91.6073 113.379 91.6873 112.824 91.8473 112.312C92.0073 111.795 92.2366 111.347 92.5353 110.968C92.8393 110.589 93.2073 110.293 93.6393 110.08C94.0713 109.861 94.5619 109.752 95.1113 109.752C95.6073 109.752 96.0313 109.837 96.3833 110.008C96.7353 110.173 97.0499 110.408 97.3273 110.712V106.216H98.7513V118H97.9033ZM95.1432 116.96C95.6073 116.96 96.0126 116.853 96.3593 116.64C96.7113 116.427 97.0339 116.125 97.3273 115.736V111.816C97.0659 111.464 96.7779 111.219 96.4633 111.08C96.1539 110.936 95.8099 110.864 95.4313 110.864C94.6739 110.864 94.0926 111.133 93.6873 111.672C93.2819 112.211 93.0793 112.979 93.0793 113.976C93.0793 114.504 93.1246 114.957 93.2153 115.336C93.3059 115.709 93.4393 116.019 93.6153 116.264C93.7913 116.504 94.0073 116.68 94.2633 116.792C94.5193 116.904 94.8126 116.96 95.1432 116.96ZM108.023 106.408C108.508 106.408 108.956 106.477 109.367 106.616C109.777 106.755 110.129 106.952 110.423 107.208C110.721 107.464 110.953 107.773 111.119 108.136C111.284 108.499 111.367 108.901 111.367 109.344C111.367 109.707 111.319 110.032 111.223 110.32C111.132 110.603 110.999 110.853 110.823 111.072C110.652 111.285 110.444 111.467 110.199 111.616C109.953 111.765 109.679 111.885 109.375 111.976C110.121 112.173 110.681 112.504 111.055 112.968C111.433 113.432 111.623 114.013 111.623 114.712C111.623 115.24 111.521 115.715 111.319 116.136C111.121 116.557 110.849 116.917 110.503 117.216C110.156 117.509 109.751 117.736 109.287 117.896C108.828 118.051 108.335 118.128 107.807 118.128C107.199 118.128 106.679 118.053 106.247 117.904C105.815 117.749 105.449 117.539 105.151 117.272C104.852 117.005 104.607 116.691 104.415 116.328C104.223 115.96 104.06 115.563 103.927 115.136L104.535 114.88C104.647 114.832 104.759 114.808 104.871 114.808C104.977 114.808 105.071 114.832 105.151 114.88C105.236 114.923 105.3 114.992 105.343 115.088C105.353 115.109 105.364 115.133 105.375 115.16C105.385 115.181 105.396 115.205 105.407 115.232C105.481 115.387 105.572 115.563 105.679 115.76C105.785 115.952 105.929 116.133 106.111 116.304C106.292 116.475 106.516 116.619 106.783 116.736C107.055 116.853 107.391 116.912 107.791 116.912C108.191 116.912 108.54 116.848 108.839 116.72C109.143 116.587 109.393 116.416 109.591 116.208C109.793 116 109.945 115.768 110.047 115.512C110.148 115.256 110.199 115.003 110.199 114.752C110.199 114.443 110.156 114.16 110.071 113.904C109.991 113.648 109.841 113.427 109.623 113.24C109.409 113.053 109.111 112.907 108.727 112.8C108.348 112.693 107.86 112.64 107.263 112.64V111.608C107.748 111.603 108.161 111.549 108.503 111.448C108.849 111.347 109.132 111.208 109.351 111.032C109.569 110.856 109.727 110.645 109.823 110.4C109.924 110.155 109.975 109.883 109.975 109.584C109.975 109.253 109.921 108.965 109.815 108.72C109.713 108.475 109.572 108.272 109.391 108.112C109.209 107.952 108.993 107.832 108.743 107.752C108.497 107.672 108.231 107.632 107.943 107.632C107.655 107.632 107.388 107.675 107.143 107.76C106.897 107.845 106.679 107.965 106.487 108.12C106.3 108.269 106.143 108.451 106.015 108.664C105.887 108.872 105.791 109.099 105.727 109.344C105.684 109.499 105.62 109.611 105.535 109.68C105.449 109.749 105.34 109.784 105.207 109.784C105.18 109.784 105.151 109.784 105.118 109.784C105.092 109.779 105.06 109.773 105.023 109.768L104.279 109.64C104.353 109.117 104.497 108.656 104.711 108.256C104.924 107.851 105.193 107.512 105.519 107.24C105.849 106.968 106.225 106.763 106.647 106.624C107.073 106.48 107.532 106.408 108.023 106.408ZM72.472 147.632C72.5573 147.632 72.6347 147.667 72.704 147.736L73.312 148.4C72.8427 148.944 72.272 149.368 71.6 149.672C70.9333 149.976 70.128 150.128 69.184 150.128C68.3573 150.128 67.608 149.987 66.936 149.704C66.264 149.416 65.6907 149.016 65.216 148.504C64.7413 147.987 64.3733 147.368 64.112 146.648C63.8507 145.928 63.72 145.136 63.72 144.272C63.72 143.408 63.8587 142.616 64.136 141.896C64.4187 141.176 64.8133 140.557 65.32 140.04C65.8267 139.523 66.432 139.123 67.136 138.84C67.8453 138.552 68.6267 138.408 69.48 138.408C70.3227 138.408 71.048 138.539 71.656 138.8C72.2693 139.061 72.8133 139.416 73.288 139.864L72.784 140.576C72.7467 140.629 72.704 140.675 72.656 140.712C72.608 140.744 72.5387 140.76 72.448 140.76C72.3787 140.76 72.304 140.736 72.224 140.688C72.1493 140.635 72.0587 140.571 71.952 140.496C71.8453 140.421 71.72 140.341 71.576 140.256C71.432 140.171 71.2613 140.091 71.064 140.016C70.8667 139.941 70.6373 139.88 70.376 139.832C70.1147 139.779 69.8133 139.752 69.472 139.752C68.8587 139.752 68.296 139.859 67.784 140.072C67.2773 140.28 66.84 140.579 66.472 140.968C66.104 141.357 65.816 141.832 65.608 142.392C65.4053 142.952 65.304 143.579 65.304 144.272C65.304 144.987 65.4053 145.624 65.608 146.184C65.816 146.744 66.096 147.219 66.448 147.608C66.8053 147.992 67.2267 148.285 67.712 148.488C68.1973 148.691 68.72 148.792 69.28 148.792C69.6213 148.792 69.928 148.773 70.2 148.736C70.472 148.693 70.7227 148.629 70.952 148.544C71.1867 148.459 71.4027 148.352 71.6 148.224C71.8027 148.091 72.0053 147.933 72.208 147.752C72.2987 147.672 72.3867 147.632 72.472 147.632ZM75.1211 150V138.216H76.5451V142.984C76.8918 142.616 77.2758 142.323 77.6971 142.104C78.1185 141.88 78.6038 141.768 79.1531 141.768C79.5958 141.768 79.9851 141.843 80.3211 141.992C80.6625 142.136 80.9451 142.344 81.1691 142.616C81.3985 142.883 81.5718 143.205 81.6891 143.584C81.8065 143.963 81.8651 144.381 81.8651 144.84V150H80.4411V144.84C80.4411 144.227 80.2998 143.752 80.0171 143.416C79.7398 143.075 79.3131 142.904 78.7371 142.904C78.3158 142.904 77.9211 143.005 77.5531 143.208C77.1905 143.411 76.8545 143.685 76.5451 144.032V150H75.1211ZM85.5958 141.896V150H84.1718V141.896H85.5958ZM85.9158 139.352C85.9158 139.491 85.8864 139.621 85.8278 139.744C85.7744 139.861 85.6998 139.968 85.6038 140.064C85.5131 140.155 85.4064 140.227 85.2838 140.28C85.1611 140.333 85.0304 140.36 84.8918 140.36C84.7531 140.36 84.6224 140.333 84.4998 140.28C84.3824 140.227 84.2758 140.155 84.1798 140.064C84.0891 139.968 84.0171 139.861 83.9638 139.744C83.9104 139.621 83.8838 139.491 83.8838 139.352C83.8838 139.213 83.9104 139.083 83.9638 138.96C84.0171 138.832 84.0891 138.723 84.1798 138.632C84.2758 138.536 84.3824 138.461 84.4998 138.408C84.6224 138.355 84.7531 138.328 84.8918 138.328C85.0304 138.328 85.1611 138.355 85.2838 138.408C85.4064 138.461 85.5131 138.536 85.6038 138.632C85.6998 138.723 85.7744 138.832 85.8278 138.96C85.8864 139.083 85.9158 139.213 85.9158 139.352ZM89.6895 138.216V150H88.2655V138.216H89.6895ZM97.9033 150C97.7006 150 97.5726 149.901 97.5193 149.704L97.3913 148.72C97.0446 149.141 96.6473 149.48 96.1993 149.736C95.7566 149.987 95.2473 150.112 94.6713 150.112C94.2073 150.112 93.7859 150.024 93.4073 149.848C93.0286 149.667 92.7059 149.403 92.4393 149.056C92.1726 148.709 91.9673 148.277 91.8233 147.76C91.6793 147.243 91.6073 146.648 91.6073 145.976C91.6073 145.379 91.6873 144.824 91.8473 144.312C92.0073 143.795 92.2366 143.347 92.5353 142.968C92.8393 142.589 93.2073 142.293 93.6393 142.08C94.0713 141.861 94.5619 141.752 95.1113 141.752C95.6073 141.752 96.0313 141.837 96.3833 142.008C96.7353 142.173 97.0499 142.408 97.3273 142.712V138.216H98.7513V150H97.9033ZM95.1432 148.96C95.6073 148.96 96.0126 148.853 96.3593 148.64C96.7113 148.427 97.0339 148.125 97.3273 147.736V143.816C97.0659 143.464 96.7779 143.219 96.4633 143.08C96.1539 142.936 95.8099 142.864 95.4313 142.864C94.6739 142.864 94.0926 143.133 93.6873 143.672C93.2819 144.211 93.0793 144.979 93.0793 145.976C93.0793 146.504 93.1246 146.957 93.2153 147.336C93.3059 147.709 93.4393 148.019 93.6153 148.264C93.7913 148.504 94.0073 148.68 94.2633 148.792C94.5193 148.904 94.8126 148.96 95.1432 148.96ZM110.287 145.864H112.023V146.68C112.023 146.765 111.996 146.837 111.943 146.896C111.895 146.955 111.817 146.984 111.711 146.984H110.287V150H109.031V146.984H103.951C103.844 146.984 103.751 146.955 103.671 146.896C103.596 146.832 103.548 146.755 103.527 146.664L103.383 145.936L108.959 138.536H110.287V145.864ZM109.031 141.136C109.031 140.997 109.033 140.848 109.039 140.688C109.049 140.528 109.068 140.363 109.095 140.192L104.927 145.864H109.031V141.136Z" fill="black"/>
<path d="M48.5517 40H40V56H52.293V43.7687L48.5517 40ZM48.7417 41.1157L51.1854 43.5773H48.7417V41.1157V41.1157ZM40.6512 55.3488V40.6512H48.0905V44.2285H51.6418V55.3488H40.6512V55.3488Z" fill="black"/>
<path d="M47.1899 43.5773H41.8989V44.2285H47.1899V43.5773Z" fill="black"/>
<path d="M50.3942 46.5607H41.8989V47.2119H50.3942V46.5607Z" fill="black"/>
<path d="M50.3942 49.5441H41.8989V50.1952H50.3942V49.5441Z" fill="black"/>
<path d="M50.3942 52.5274H41.8989V53.1786H50.3942V52.5274Z" fill="black"/>
<path d="M48.5517 104H40V120H52.293V107.769L48.5517 104ZM48.7417 105.116L51.1854 107.577H48.7417V105.116V105.116ZM40.6512 119.349V104.651H48.0905V108.228H51.6418V119.349H40.6512V119.349Z" fill="black"/>
<path d="M47.1899 107.577H41.8989V108.228H47.1899V107.577Z" fill="black"/>
<path d="M50.3942 110.561H41.8989V111.212H50.3942V110.561Z" fill="black"/>
<path d="M50.3942 113.544H41.8989V114.195H50.3942V113.544Z" fill="black"/>
<path d="M50.3942 116.527H41.8989V117.179H50.3942V116.527Z" fill="black"/>
<path d="M48.5517 135H40V151H52.293V138.769L48.5517 135ZM48.7417 136.116L51.1854 138.577H48.7417V136.116V136.116ZM40.6512 150.349V135.651H48.0905V139.228H51.6418V150.349H40.6512V150.349Z" fill="black"/>
<path d="M47.1899 138.577H41.8989V139.228H47.1899V138.577Z" fill="black"/>
<path d="M50.3942 141.561H41.8989V142.212H50.3942V141.561Z" fill="black"/>
<path d="M50.3942 144.544H41.8989V145.195H50.3942V144.544Z" fill="black"/>
<path d="M50.3942 147.527H41.8989V148.179H50.3942V147.527Z" fill="black"/>
<path d="M33.8868 10.2722C33.8149 10.1997 33.7167 10.1592 33.6147 10.1592H23.3744V10.1988L22.8843 9.00316L18 9V21.8004H33.996V20.9816L34 10.5451C33.9997 10.4425 33.9598 10.3446 33.8868 10.2722ZM33.2283 10.9303L33.2278 11.8245H24.0406L23.6738 10.9303H33.2283ZM33.2254 21.0296H18.7702V9.77133L22.3669 9.77392L23.5235 12.5952H33.2258V21.0296H33.2254V21.0296Z" fill="#010002"/>
<path d="M33.8868 171.272C33.8149 171.2 33.7167 171.159 33.6147 171.159H23.3744V171.199L22.8843 170.003L18 170V182.8H33.996V181.982L34 171.545C33.9997 171.443 33.9598 171.345 33.8868 171.272ZM33.2283 171.93L33.2278 172.824H24.0406L23.6738 171.93H33.2283ZM33.2254 182.03H18.7702V170.771L22.3669 170.774L23.5235 173.595H33.2258V182.03H33.2254V182.03Z" fill="#010002"/>
<path d="M53.8868 75.2722C53.8149 75.1997 53.7167 75.1592 53.6147 75.1592H43.3744V75.1988L42.8843 74.0032L38 74V86.8004H53.996V85.9816L54 75.5451C53.9997 75.4425 53.9598 75.3446 53.8868 75.2722ZM53.2283 75.9303L53.2278 76.8245H44.0406L43.6738 75.9303H53.2283ZM53.2254 86.0296H38.7702V74.7713L42.3669 74.7739L43.5235 77.5952H53.2258V86.0296H53.2254V86.0296Z" fill="#010002"/>
</svg>
