<svg width="337" height="195" viewBox="0 0 337 195" fill="none" xmlns="http://www.w3.org/2000/svg">
<g filter="url(#filter0_d_575_609)">
<path d="M5 0H332C334.209 0 336 1.79086 336 4V189C336 191.209 334.209 193 332 193H5C2.79086 193 1 191.209 1 189V4C1 1.79086 2.79086 0 5 0Z" fill="black"/>
</g>
<path d="M5 0H332C334.209 0 336 1.79086 336 4V189C336 191.209 334.209 193 332 193H5C2.79086 193 1 191.209 1 189V4C1 1.79086 2.79086 0 5 0Z" fill="#F4F4F4"/>
<path fill-rule="evenodd" clip-rule="evenodd" d="M6 1H331C333.209 1 335 2.79086 335 5V64H2V5C2 2.79086 3.79086 1 6 1Z" fill="white"/>
<path d="M71.36 42H69.41V35.48H61.69V42H59.74V27.67H61.69V34.06H69.41V27.67H71.36V42ZM84.9572 39.04C85.0639 39.04 85.1605 39.0833 85.2472 39.17L86.0072 40C85.4205 40.68 84.7072 41.21 83.8672 41.59C83.0339 41.97 82.0272 42.16 80.8472 42.16C79.8139 42.16 78.8772 41.9833 78.0372 41.63C77.1972 41.27 76.4805 40.77 75.8872 40.13C75.2939 39.4833 74.8339 38.71 74.5072 37.81C74.1805 36.91 74.0172 35.92 74.0172 34.84C74.0172 33.76 74.1905 32.77 74.5372 31.87C74.8905 30.97 75.3839 30.1967 76.0172 29.55C76.6505 28.9033 77.4072 28.4033 78.2872 28.05C79.1739 27.69 80.1505 27.51 81.2172 27.51C82.2705 27.51 83.1772 27.6733 83.9372 28C84.7039 28.3267 85.3839 28.77 85.9772 29.33L85.3472 30.22C85.3005 30.2867 85.2472 30.3433 85.1872 30.39C85.1272 30.43 85.0405 30.45 84.9272 30.45C84.8405 30.45 84.7472 30.42 84.6472 30.36C84.5539 30.2933 84.4405 30.2133 84.3072 30.12C84.1739 30.0267 84.0172 29.9267 83.8372 29.82C83.6572 29.7133 83.4439 29.6133 83.1972 29.52C82.9505 29.4267 82.6639 29.35 82.3372 29.29C82.0105 29.2233 81.6339 29.19 81.2072 29.19C80.4405 29.19 79.7372 29.3233 79.0972 29.59C78.4639 29.85 77.9172 30.2233 77.4572 30.71C76.9972 31.1967 76.6372 31.79 76.3772 32.49C76.1239 33.19 75.9972 33.9733 75.9972 34.84C75.9972 35.7333 76.1239 36.53 76.3772 37.23C76.6372 37.93 76.9872 38.5233 77.4272 39.01C77.8739 39.49 78.4005 39.8567 79.0072 40.11C79.6139 40.3633 80.2672 40.49 80.9672 40.49C81.3939 40.49 81.7772 40.4667 82.1172 40.42C82.4572 40.3667 82.7705 40.2867 83.0572 40.18C83.3505 40.0733 83.6205 39.94 83.8672 39.78C84.1205 39.6133 84.3739 39.4167 84.6272 39.19C84.7405 39.09 84.8505 39.04 84.9572 39.04ZM100.339 42H98.8386C98.6653 42 98.5253 41.9567 98.4186 41.87C98.3119 41.7833 98.2319 41.6733 98.1786 41.54L96.8386 38.08H90.4086L89.0686 41.54C89.0219 41.66 88.9419 41.7667 88.8286 41.86C88.7153 41.9533 88.5753 42 88.4086 42H86.9086L92.6386 27.67H94.6086L100.339 42ZM90.9486 36.68H96.2986L94.0486 30.85C93.9019 30.49 93.7586 30.04 93.6186 29.5C93.5453 29.7733 93.4719 30.0267 93.3986 30.26C93.3319 30.4867 93.2653 30.6867 93.1986 30.86L90.9486 36.68ZM103.272 40.64H106.352V30.87C106.352 30.5767 106.362 30.28 106.382 29.98L103.822 32.17C103.756 32.2233 103.689 32.2633 103.622 32.29C103.556 32.31 103.492 32.32 103.432 32.32C103.332 32.32 103.242 32.3 103.162 32.26C103.082 32.2133 103.022 32.16 102.982 32.1L102.422 31.33L106.682 27.64H108.132V40.64H110.952V42H103.272V40.64ZM117.481 42.21C117.388 42.4433 117.248 42.6167 117.061 42.73C116.881 42.8433 116.694 42.9 116.501 42.9H115.751L121.761 27.93C121.848 27.7167 121.971 27.5533 122.131 27.44C122.291 27.3267 122.481 27.27 122.701 27.27H123.451L117.481 42.21ZM130.069 40.64H133.149V30.87C133.149 30.5767 133.159 30.28 133.179 29.98L130.619 32.17C130.553 32.2233 130.486 32.2633 130.419 32.29C130.353 32.31 130.289 32.32 130.229 32.32C130.129 32.32 130.039 32.3 129.959 32.26C129.879 32.2133 129.819 32.16 129.779 32.1L129.219 31.33L133.479 27.64H134.929V40.64H137.749V42H130.069V40.64Z" fill="black"/>
<path d="M36.5 22.5H22.5C19.7386 22.5 17.5 24.7386 17.5 27.5V41.5C17.5 44.2614 19.7386 46.5 22.5 46.5H36.5C39.2614 46.5 41.5 44.2614 41.5 41.5V27.5C41.5 24.7386 39.2614 22.5 36.5 22.5Z" fill="white" stroke="#CCCDCD"/>
<path d="M318 16H258C256.343 16 255 17.3431 255 19V36C255 37.6569 256.343 39 258 39H318C319.657 39 321 37.6569 321 36V19C321 17.3431 319.657 16 318 16Z" fill="#C2D95D"/>
<path d="M268.2 28.814V33H266.849V22.969H269.684C270.319 22.969 270.867 23.0343 271.329 23.165C271.791 23.291 272.171 23.4753 272.47 23.718C272.773 23.9607 272.997 24.2547 273.142 24.6C273.287 24.9407 273.359 25.3233 273.359 25.748C273.359 26.1027 273.303 26.434 273.191 26.742C273.079 27.05 272.916 27.3277 272.701 27.575C272.491 27.8177 272.232 28.0253 271.924 28.198C271.621 28.3707 271.275 28.5013 270.888 28.59C271.056 28.688 271.205 28.8303 271.336 29.017L274.262 33H273.058C272.811 33 272.629 32.9043 272.512 32.713L269.908 29.129C269.829 29.017 269.742 28.9377 269.649 28.891C269.556 28.8397 269.416 28.814 269.229 28.814H268.2ZM268.2 27.827H269.621C270.018 27.827 270.365 27.7803 270.664 27.687C270.967 27.589 271.219 27.4537 271.42 27.281C271.625 27.1037 271.779 26.8937 271.882 26.651C271.985 26.4083 272.036 26.14 272.036 25.846C272.036 25.2487 271.838 24.7983 271.441 24.495C271.049 24.1917 270.463 24.04 269.684 24.04H268.2V27.827ZM281.9 22.969V24.075H277.084V27.407H280.983V28.471H277.084V31.894H281.9V33H275.719V22.969H281.9ZM292.107 33H291.057C290.935 33 290.837 32.9697 290.763 32.909C290.688 32.8483 290.632 32.7713 290.595 32.678L289.657 30.256H285.156L284.218 32.678C284.185 32.762 284.129 32.8367 284.05 32.902C283.97 32.9673 283.872 33 283.756 33H282.706L286.717 22.969H288.096L292.107 33ZM285.534 29.276H289.279L287.704 25.195C287.601 24.943 287.501 24.628 287.403 24.25C287.351 24.4413 287.3 24.6187 287.249 24.782C287.202 24.9407 287.155 25.0807 287.109 25.202L285.534 29.276ZM302.063 27.988C302.063 28.7393 301.944 29.423 301.706 30.039C301.468 30.655 301.132 31.1823 300.698 31.621C300.264 32.0597 299.744 32.4003 299.137 32.643C298.531 32.881 297.859 33 297.121 33H293.369V22.969H297.121C297.859 22.969 298.531 23.0903 299.137 23.333C299.744 23.571 300.264 23.9117 300.698 24.355C301.132 24.7937 301.468 25.321 301.706 25.937C301.944 26.553 302.063 27.2367 302.063 27.988ZM300.67 27.988C300.67 27.372 300.586 26.8213 300.418 26.336C300.25 25.8507 300.012 25.44 299.704 25.104C299.396 24.768 299.023 24.5113 298.584 24.334C298.146 24.1567 297.658 24.068 297.121 24.068H294.734V31.901H297.121C297.658 31.901 298.146 31.8123 298.584 31.635C299.023 31.4577 299.396 31.2033 299.704 30.872C300.012 30.536 300.25 30.1253 300.418 29.64C300.586 29.1547 300.67 28.604 300.67 27.988ZM307.214 29.01V33H305.863V29.01L302.188 22.969H303.378C303.499 22.969 303.595 22.9993 303.665 23.06C303.735 23.1207 303.795 23.1953 303.847 23.284L306.143 27.183C306.236 27.3463 306.313 27.5003 306.374 27.645C306.439 27.7897 306.497 27.932 306.549 28.072C306.6 27.9273 306.656 27.7827 306.717 27.638C306.777 27.4933 306.854 27.3417 306.948 27.183L309.237 23.284C309.279 23.2093 309.335 23.1393 309.405 23.074C309.479 23.004 309.575 22.969 309.692 22.969H310.896L307.214 29.01Z" fill="black"/>
<path d="M322.8 169.272C322.8 170.275 322.691 171.144 322.472 171.88C322.259 172.611 321.965 173.216 321.592 173.696C321.219 174.176 320.776 174.533 320.264 174.768C319.757 175.003 319.213 175.12 318.632 175.12C318.045 175.12 317.499 175.003 316.992 174.768C316.491 174.533 316.053 174.176 315.68 173.696C315.307 173.216 315.013 172.611 314.8 171.88C314.587 171.144 314.48 170.275 314.48 169.272C314.48 168.269 314.587 167.4 314.8 166.664C315.013 165.928 315.307 165.32 315.68 164.84C316.053 164.355 316.491 163.995 316.992 163.76C317.499 163.525 318.045 163.408 318.632 163.408C319.213 163.408 319.757 163.525 320.264 163.76C320.776 163.995 321.219 164.355 321.592 164.84C321.965 165.32 322.259 165.928 322.472 166.664C322.691 167.4 322.8 168.269 322.8 169.272ZM321.32 169.272C321.32 168.397 321.245 167.664 321.096 167.072C320.952 166.475 320.755 165.995 320.504 165.632C320.259 165.269 319.973 165.011 319.648 164.856C319.323 164.696 318.984 164.616 318.632 164.616C318.28 164.616 317.941 164.696 317.616 164.856C317.291 165.011 317.005 165.269 316.76 165.632C316.515 165.995 316.317 166.475 316.168 167.072C316.024 167.664 315.952 168.397 315.952 169.272C315.952 170.147 316.024 170.88 316.168 171.472C316.317 172.064 316.515 172.541 316.76 172.904C317.005 173.267 317.291 173.528 317.616 173.688C317.941 173.843 318.28 173.92 318.632 173.92C318.984 173.92 319.323 173.843 319.648 173.688C319.973 173.528 320.259 173.267 320.504 172.904C320.755 172.541 320.952 172.064 321.096 171.472C321.245 170.88 321.32 170.147 321.32 169.272Z" fill="#3F3F3F"/>
<path d="M228.544 152.61V156H226.93V147.324H229.576C230.168 147.324 230.674 147.386 231.094 147.51C231.518 147.63 231.864 147.8 232.132 148.02C232.404 148.24 232.602 148.504 232.726 148.812C232.854 149.116 232.918 149.452 232.918 149.82C232.918 150.112 232.874 150.388 232.786 150.648C232.702 150.908 232.578 151.144 232.414 151.356C232.254 151.568 232.054 151.754 231.814 151.914C231.578 152.074 231.308 152.202 231.004 152.298C231.208 152.414 231.384 152.58 231.532 152.796L233.704 156H232.252C232.112 156 231.992 155.972 231.892 155.916C231.796 155.86 231.714 155.78 231.646 155.676L229.822 152.898C229.754 152.794 229.678 152.72 229.594 152.676C229.514 152.632 229.394 152.61 229.234 152.61H228.544ZM228.544 151.452H229.552C229.856 151.452 230.12 151.414 230.344 151.338C230.572 151.262 230.758 151.158 230.902 151.026C231.05 150.89 231.16 150.73 231.232 150.546C231.304 150.362 231.34 150.16 231.34 149.94C231.34 149.5 231.194 149.162 230.902 148.926C230.614 148.69 230.172 148.572 229.576 148.572H228.544V151.452ZM240.211 147.324V148.608H236.365V151.014H239.395V152.256H236.365V154.71H240.211V156H234.739V147.324H240.211ZM245.962 152.4C246.03 152.528 246.092 152.662 246.148 152.802C246.208 152.938 246.266 153.076 246.322 153.216C246.378 153.072 246.436 152.93 246.496 152.79C246.556 152.65 246.62 152.516 246.688 152.388L249.256 147.582C249.288 147.522 249.32 147.474 249.352 147.438C249.388 147.402 249.426 147.376 249.466 147.36C249.51 147.344 249.558 147.334 249.61 147.33C249.662 147.326 249.724 147.324 249.796 147.324H251.014V156H249.592V150.396C249.592 150.292 249.594 150.178 249.598 150.054C249.606 149.93 249.616 149.804 249.628 149.676L247.006 154.596C246.946 154.708 246.868 154.796 246.772 154.86C246.676 154.92 246.564 154.95 246.436 154.95H246.214C246.086 154.95 245.974 154.92 245.878 154.86C245.782 154.796 245.704 154.708 245.644 154.596L242.986 149.658C243.002 149.79 243.012 149.92 243.016 150.048C243.024 150.172 243.028 150.288 243.028 150.396V156H241.606V147.324H242.824C242.896 147.324 242.958 147.326 243.01 147.33C243.062 147.334 243.108 147.344 243.148 147.36C243.192 147.376 243.232 147.402 243.268 147.438C243.304 147.474 243.338 147.522 243.37 147.582L245.962 152.4ZM260.389 156H259.141C259.001 156 258.885 155.966 258.793 155.898C258.705 155.826 258.641 155.738 258.601 155.634L257.953 153.864H254.359L253.711 155.634C253.679 155.726 253.615 155.81 253.519 155.886C253.427 155.962 253.313 156 253.177 156H251.923L255.331 147.324H256.981L260.389 156ZM254.773 152.724H257.539L256.483 149.838C256.435 149.71 256.381 149.56 256.321 149.388C256.265 149.212 256.209 149.022 256.153 148.818C256.097 149.022 256.041 149.212 255.985 149.388C255.933 149.564 255.881 149.718 255.829 149.85L254.773 152.724ZM263.1 156H261.48V147.324H263.1V156ZM265.902 147.324C265.974 147.324 266.034 147.328 266.082 147.336C266.13 147.34 266.172 147.352 266.208 147.372C266.248 147.388 266.286 147.414 266.322 147.45C266.358 147.482 266.398 147.526 266.442 147.582L270.996 153.384C270.98 153.244 270.968 153.108 270.96 152.976C270.956 152.84 270.954 152.714 270.954 152.598V147.324H272.376V156H271.542C271.414 156 271.308 155.98 271.224 155.94C271.14 155.9 271.058 155.828 270.978 155.724L266.442 149.946C266.454 150.074 266.462 150.202 266.466 150.33C266.474 150.454 266.478 150.568 266.478 150.672V156H265.056V147.324H265.902ZM275.944 156H274.324V147.324H275.944V156ZM278.745 147.324C278.817 147.324 278.877 147.328 278.925 147.336C278.973 147.34 279.015 147.352 279.051 147.372C279.091 147.388 279.129 147.414 279.165 147.45C279.201 147.482 279.241 147.526 279.285 147.582L283.839 153.384C283.823 153.244 283.811 153.108 283.803 152.976C283.799 152.84 283.797 152.714 283.797 152.598V147.324H285.219V156H284.385C284.257 156 284.151 155.98 284.067 155.94C283.983 155.9 283.901 155.828 283.821 155.724L279.285 149.946C279.297 150.074 279.305 150.202 279.309 150.33C279.317 150.454 279.321 150.568 279.321 150.672V156H277.899V147.324H278.745ZM290.954 154.812C291.318 154.812 291.634 154.78 291.902 154.716C292.174 154.648 292.432 154.556 292.676 154.44V152.862H291.59C291.486 152.862 291.404 152.834 291.344 152.778C291.284 152.718 291.254 152.646 291.254 152.562V151.65H294.14V155.16C293.92 155.32 293.69 155.46 293.45 155.58C293.214 155.696 292.96 155.792 292.688 155.868C292.42 155.944 292.132 156 291.824 156.036C291.516 156.076 291.184 156.096 290.828 156.096C290.196 156.096 289.614 155.986 289.082 155.766C288.55 155.546 288.09 155.24 287.702 154.848C287.314 154.456 287.01 153.988 286.79 153.444C286.574 152.9 286.466 152.306 286.466 151.662C286.466 151.01 286.572 150.412 286.784 149.868C286.996 149.324 287.296 148.856 287.684 148.464C288.076 148.072 288.55 147.768 289.106 147.552C289.662 147.336 290.286 147.228 290.978 147.228C291.686 147.228 292.298 147.334 292.814 147.546C293.334 147.754 293.774 148.026 294.134 148.362L293.666 149.094C293.574 149.242 293.452 149.316 293.3 149.316C293.204 149.316 293.106 149.284 293.006 149.22C292.878 149.144 292.746 149.068 292.61 148.992C292.478 148.916 292.33 148.85 292.166 148.794C292.006 148.738 291.824 148.692 291.62 148.656C291.42 148.62 291.188 148.602 290.924 148.602C290.496 148.602 290.108 148.674 289.76 148.818C289.416 148.962 289.122 149.168 288.878 149.436C288.634 149.704 288.446 150.026 288.314 150.402C288.182 150.778 288.116 151.198 288.116 151.662C288.116 152.162 288.186 152.608 288.326 153C288.466 153.388 288.662 153.716 288.914 153.984C289.166 154.252 289.466 154.458 289.814 154.602C290.162 154.742 290.542 154.812 290.954 154.812ZM302.612 148.902C302.568 148.99 302.516 149.052 302.456 149.088C302.4 149.124 302.332 149.142 302.252 149.142C302.172 149.142 302.082 149.112 301.982 149.052C301.882 148.988 301.764 148.918 301.628 148.842C301.492 148.766 301.332 148.698 301.148 148.638C300.968 148.574 300.754 148.542 300.506 148.542C300.282 148.542 300.086 148.57 299.918 148.626C299.754 148.678 299.614 148.752 299.498 148.848C299.386 148.944 299.302 149.06 299.246 149.196C299.19 149.328 299.162 149.474 299.162 149.634C299.162 149.838 299.218 150.008 299.33 150.144C299.446 150.28 299.598 150.396 299.786 150.492C299.974 150.588 300.188 150.674 300.428 150.75C300.668 150.826 300.912 150.908 301.16 150.996C301.412 151.08 301.658 151.18 301.898 151.296C302.138 151.408 302.352 151.552 302.54 151.728C302.728 151.9 302.878 152.112 302.99 152.364C303.106 152.616 303.164 152.922 303.164 153.282C303.164 153.674 303.096 154.042 302.96 154.386C302.828 154.726 302.632 155.024 302.372 155.28C302.116 155.532 301.802 155.732 301.43 155.88C301.058 156.024 300.632 156.096 300.152 156.096C299.876 156.096 299.604 156.068 299.336 156.012C299.068 155.96 298.81 155.884 298.562 155.784C298.318 155.684 298.088 155.564 297.872 155.424C297.66 155.284 297.47 155.128 297.302 154.956L297.77 154.182C297.814 154.126 297.866 154.08 297.926 154.044C297.99 154.004 298.06 153.984 298.136 153.984C298.236 153.984 298.344 154.026 298.46 154.11C298.576 154.19 298.712 154.28 298.868 154.38C299.028 154.48 299.214 154.572 299.426 154.656C299.642 154.736 299.9 154.776 300.2 154.776C300.66 154.776 301.016 154.668 301.268 154.452C301.52 154.232 301.646 153.918 301.646 153.51C301.646 153.282 301.588 153.096 301.472 152.952C301.36 152.808 301.21 152.688 301.022 152.592C300.834 152.492 300.62 152.408 300.38 152.34C300.14 152.272 299.896 152.198 299.648 152.118C299.4 152.038 299.156 151.942 298.916 151.83C298.676 151.718 298.462 151.572 298.274 151.392C298.086 151.212 297.934 150.988 297.818 150.72C297.706 150.448 297.65 150.114 297.65 149.718C297.65 149.402 297.712 149.094 297.836 148.794C297.964 148.494 298.148 148.228 298.388 147.996C298.632 147.764 298.93 147.578 299.282 147.438C299.634 147.298 300.036 147.228 300.488 147.228C301 147.228 301.472 147.308 301.904 147.468C302.336 147.628 302.704 147.852 303.008 148.14L302.612 148.902ZM309.868 147.324V148.608H306.022V151.014H309.052V152.256H306.022V154.71H309.868V156H304.396V147.324H309.868ZM317.377 147.324V148.65H314.767V156H313.153V148.65H310.531V147.324H317.377ZM323.049 148.902C323.005 148.99 322.953 149.052 322.893 149.088C322.837 149.124 322.769 149.142 322.689 149.142C322.609 149.142 322.519 149.112 322.419 149.052C322.319 148.988 322.201 148.918 322.065 148.842C321.929 148.766 321.769 148.698 321.585 148.638C321.405 148.574 321.191 148.542 320.943 148.542C320.719 148.542 320.523 148.57 320.355 148.626C320.191 148.678 320.051 148.752 319.935 148.848C319.823 148.944 319.739 149.06 319.683 149.196C319.627 149.328 319.599 149.474 319.599 149.634C319.599 149.838 319.655 150.008 319.767 150.144C319.883 150.28 320.035 150.396 320.223 150.492C320.411 150.588 320.625 150.674 320.865 150.75C321.105 150.826 321.349 150.908 321.597 150.996C321.849 151.08 322.095 151.18 322.335 151.296C322.575 151.408 322.789 151.552 322.977 151.728C323.165 151.9 323.315 152.112 323.427 152.364C323.543 152.616 323.601 152.922 323.601 153.282C323.601 153.674 323.533 154.042 323.397 154.386C323.265 154.726 323.069 155.024 322.809 155.28C322.553 155.532 322.239 155.732 321.867 155.88C321.495 156.024 321.069 156.096 320.589 156.096C320.313 156.096 320.041 156.068 319.773 156.012C319.505 155.96 319.247 155.884 318.999 155.784C318.755 155.684 318.525 155.564 318.309 155.424C318.097 155.284 317.907 155.128 317.739 154.956L318.207 154.182C318.251 154.126 318.303 154.08 318.363 154.044C318.427 154.004 318.497 153.984 318.573 153.984C318.673 153.984 318.781 154.026 318.897 154.11C319.013 154.19 319.149 154.28 319.305 154.38C319.465 154.48 319.651 154.572 319.863 154.656C320.079 154.736 320.337 154.776 320.637 154.776C321.097 154.776 321.453 154.668 321.705 154.452C321.957 154.232 322.083 153.918 322.083 153.51C322.083 153.282 322.025 153.096 321.909 152.952C321.797 152.808 321.647 152.688 321.459 152.592C321.271 152.492 321.057 152.408 320.817 152.34C320.577 152.272 320.333 152.198 320.085 152.118C319.837 152.038 319.593 151.942 319.353 151.83C319.113 151.718 318.899 151.572 318.711 151.392C318.523 151.212 318.371 150.988 318.255 150.72C318.143 150.448 318.087 150.114 318.087 149.718C318.087 149.402 318.149 149.094 318.273 148.794C318.401 148.494 318.585 148.228 318.825 147.996C319.069 147.764 319.367 147.578 319.719 147.438C320.071 147.298 320.473 147.228 320.925 147.228C321.437 147.228 321.909 147.308 322.341 147.468C322.773 147.628 323.141 147.852 323.445 148.14L323.049 148.902Z" fill="#9B9B9B"/>
<path d="M260.99 83.324V84.65H258.38V92H256.766V84.65H254.144V83.324H260.99ZM267.485 83.324V84.608H263.639V87.014H266.669V88.256H263.639V90.71H267.485V92H262.013V83.324H267.485ZM273.53 84.902C273.486 84.99 273.434 85.052 273.374 85.088C273.318 85.124 273.25 85.142 273.17 85.142C273.09 85.142 273 85.112 272.9 85.052C272.8 84.988 272.682 84.918 272.546 84.842C272.41 84.766 272.25 84.698 272.066 84.638C271.886 84.574 271.672 84.542 271.424 84.542C271.2 84.542 271.004 84.57 270.836 84.626C270.672 84.678 270.532 84.752 270.416 84.848C270.304 84.944 270.22 85.06 270.164 85.196C270.108 85.328 270.08 85.474 270.08 85.634C270.08 85.838 270.136 86.008 270.248 86.144C270.364 86.28 270.516 86.396 270.704 86.492C270.892 86.588 271.106 86.674 271.346 86.75C271.586 86.826 271.83 86.908 272.078 86.996C272.33 87.08 272.576 87.18 272.816 87.296C273.056 87.408 273.27 87.552 273.458 87.728C273.646 87.9 273.796 88.112 273.908 88.364C274.024 88.616 274.082 88.922 274.082 89.282C274.082 89.674 274.014 90.042 273.878 90.386C273.746 90.726 273.55 91.024 273.29 91.28C273.034 91.532 272.72 91.732 272.348 91.88C271.976 92.024 271.55 92.096 271.07 92.096C270.794 92.096 270.522 92.068 270.254 92.012C269.986 91.96 269.728 91.884 269.48 91.784C269.236 91.684 269.006 91.564 268.79 91.424C268.578 91.284 268.388 91.128 268.22 90.956L268.688 90.182C268.732 90.126 268.784 90.08 268.844 90.044C268.908 90.004 268.978 89.984 269.054 89.984C269.154 89.984 269.262 90.026 269.378 90.11C269.494 90.19 269.63 90.28 269.786 90.38C269.946 90.48 270.132 90.572 270.344 90.656C270.56 90.736 270.818 90.776 271.118 90.776C271.578 90.776 271.934 90.668 272.186 90.452C272.438 90.232 272.564 89.918 272.564 89.51C272.564 89.282 272.506 89.096 272.39 88.952C272.278 88.808 272.128 88.688 271.94 88.592C271.752 88.492 271.538 88.408 271.298 88.34C271.058 88.272 270.814 88.198 270.566 88.118C270.318 88.038 270.074 87.942 269.834 87.83C269.594 87.718 269.38 87.572 269.192 87.392C269.004 87.212 268.852 86.988 268.736 86.72C268.624 86.448 268.568 86.114 268.568 85.718C268.568 85.402 268.63 85.094 268.754 84.794C268.882 84.494 269.066 84.228 269.306 83.996C269.55 83.764 269.848 83.578 270.2 83.438C270.552 83.298 270.954 83.228 271.406 83.228C271.918 83.228 272.39 83.308 272.822 83.468C273.254 83.628 273.622 83.852 273.926 84.14L273.53 84.902ZM281.428 83.324V84.65H278.818V92H277.204V84.65H274.582V83.324H281.428ZM286.439 88.61V92H284.825V83.324H287.471C288.063 83.324 288.569 83.386 288.989 83.51C289.413 83.63 289.759 83.8 290.027 84.02C290.299 84.24 290.497 84.504 290.621 84.812C290.749 85.116 290.813 85.452 290.813 85.82C290.813 86.112 290.769 86.388 290.681 86.648C290.597 86.908 290.473 87.144 290.309 87.356C290.149 87.568 289.949 87.754 289.709 87.914C289.473 88.074 289.203 88.202 288.899 88.298C289.103 88.414 289.279 88.58 289.427 88.796L291.599 92H290.147C290.007 92 289.887 91.972 289.787 91.916C289.691 91.86 289.609 91.78 289.541 91.676L287.717 88.898C287.649 88.794 287.573 88.72 287.489 88.676C287.409 88.632 287.289 88.61 287.129 88.61H286.439ZM286.439 87.452H287.447C287.751 87.452 288.015 87.414 288.239 87.338C288.467 87.262 288.653 87.158 288.797 87.026C288.945 86.89 289.055 86.73 289.127 86.546C289.199 86.362 289.235 86.16 289.235 85.94C289.235 85.5 289.089 85.162 288.797 84.926C288.509 84.69 288.067 84.572 287.471 84.572H286.439V87.452ZM298.106 83.324V84.608H294.26V87.014H297.29V88.256H294.26V90.71H298.106V92H292.634V83.324H298.106ZM307.127 92H305.879C305.739 92 305.623 91.966 305.531 91.898C305.443 91.826 305.379 91.738 305.339 91.634L304.691 89.864H301.097L300.449 91.634C300.417 91.726 300.353 91.81 300.257 91.886C300.165 91.962 300.051 92 299.915 92H298.661L302.069 83.324H303.719L307.127 92ZM301.511 88.724H304.277L303.221 85.838C303.173 85.71 303.119 85.56 303.059 85.388C303.003 85.212 302.947 85.022 302.891 84.818C302.835 85.022 302.779 85.212 302.723 85.388C302.671 85.564 302.619 85.718 302.567 85.85L301.511 88.724ZM315.725 87.662C315.725 88.298 315.619 88.882 315.407 89.414C315.195 89.946 314.897 90.404 314.513 90.788C314.129 91.172 313.667 91.47 313.127 91.682C312.587 91.894 311.989 92 311.333 92H308.021V83.324H311.333C311.989 83.324 312.587 83.432 313.127 83.648C313.667 83.86 314.129 84.158 314.513 84.542C314.897 84.922 315.195 85.378 315.407 85.91C315.619 86.442 315.725 87.026 315.725 87.662ZM314.075 87.662C314.075 87.186 314.011 86.76 313.883 86.384C313.755 86.004 313.573 85.684 313.337 85.424C313.101 85.16 312.813 84.958 312.473 84.818C312.137 84.678 311.757 84.608 311.333 84.608H309.647V90.716H311.333C311.757 90.716 312.137 90.646 312.473 90.506C312.813 90.366 313.101 90.166 313.337 89.906C313.573 89.642 313.755 89.322 313.883 88.946C314.011 88.566 314.075 88.138 314.075 87.662ZM320.363 88.628V92H318.749V88.628L315.587 83.324H317.009C317.149 83.324 317.259 83.358 317.339 83.426C317.423 83.494 317.493 83.58 317.549 83.684L319.139 86.582C319.231 86.754 319.311 86.918 319.379 87.074C319.447 87.226 319.509 87.376 319.565 87.524C319.617 87.372 319.675 87.22 319.739 87.068C319.807 86.912 319.887 86.75 319.979 86.582L321.557 83.684C321.601 83.596 321.667 83.514 321.755 83.438C321.843 83.362 321.955 83.324 322.091 83.324H323.519L320.363 88.628Z" fill="#9B9B9B"/>
<path d="M21.096 163.712V168H19.552V156.536H22.936C23.6613 156.536 24.2907 156.621 24.824 156.792C25.3627 156.957 25.808 157.195 26.16 157.504C26.512 157.813 26.7733 158.187 26.944 158.624C27.12 159.061 27.208 159.549 27.208 160.088C27.208 160.621 27.1147 161.109 26.928 161.552C26.7413 161.995 26.4667 162.376 26.104 162.696C25.7467 163.016 25.3013 163.267 24.768 163.448C24.2347 163.624 23.624 163.712 22.936 163.712H21.096ZM21.096 162.48H22.936C23.3787 162.48 23.768 162.421 24.104 162.304C24.4453 162.187 24.7307 162.024 24.96 161.816C25.1893 161.603 25.3627 161.349 25.48 161.056C25.5973 160.763 25.656 160.44 25.656 160.088C25.656 159.357 25.4293 158.787 24.976 158.376C24.528 157.965 23.848 157.76 22.936 157.76H21.096V162.48ZM28.9493 168V159.896H29.7653C29.9199 159.896 30.0266 159.925 30.0853 159.984C30.1439 160.043 30.1839 160.144 30.2053 160.288L30.3013 161.552C30.5786 160.987 30.9199 160.547 31.3253 160.232C31.7359 159.912 32.2159 159.752 32.7653 159.752C32.9893 159.752 33.1919 159.779 33.3733 159.832C33.5546 159.88 33.7226 159.949 33.8773 160.04L33.6933 161.104C33.6559 161.237 33.5733 161.304 33.4453 161.304C33.3706 161.304 33.2559 161.28 33.1013 161.232C32.9466 161.179 32.7306 161.152 32.4533 161.152C31.9573 161.152 31.5413 161.296 31.2053 161.584C30.8746 161.872 30.5973 162.291 30.3733 162.84V168H28.9493ZM36.9864 159.896V168H35.5624V159.896H36.9864ZM37.3064 157.352C37.3064 157.491 37.277 157.621 37.2184 157.744C37.165 157.861 37.0904 157.968 36.9944 158.064C36.9037 158.155 36.797 158.227 36.6744 158.28C36.5517 158.333 36.421 158.36 36.2824 158.36C36.1437 158.36 36.013 158.333 35.8904 158.28C35.773 158.227 35.6664 158.155 35.5704 158.064C35.4797 157.968 35.4077 157.861 35.3544 157.744C35.301 157.621 35.2744 157.491 35.2744 157.352C35.2744 157.213 35.301 157.083 35.3544 156.96C35.4077 156.832 35.4797 156.723 35.5704 156.632C35.6664 156.536 35.773 156.461 35.8904 156.408C36.013 156.355 36.1437 156.328 36.2824 156.328C36.421 156.328 36.5517 156.355 36.6744 156.408C36.797 156.461 36.9037 156.536 36.9944 156.632C37.0904 156.723 37.165 156.832 37.2184 156.96C37.277 157.083 37.3064 157.213 37.3064 157.352ZM42.7761 159.768C43.3681 159.768 43.9015 159.867 44.3761 160.064C44.8561 160.261 45.2615 160.541 45.5921 160.904C45.9281 161.267 46.1841 161.707 46.3601 162.224C46.5415 162.736 46.6321 163.309 46.6321 163.944C46.6321 164.584 46.5415 165.16 46.3601 165.672C46.1841 166.184 45.9281 166.621 45.5921 166.984C45.2615 167.347 44.8561 167.627 44.3761 167.824C43.9015 168.016 43.3681 168.112 42.7761 168.112C42.1841 168.112 41.6481 168.016 41.1681 167.824C40.6935 167.627 40.2881 167.347 39.9521 166.984C39.6161 166.621 39.3575 166.184 39.1761 165.672C38.9948 165.16 38.9041 164.584 38.9041 163.944C38.9041 163.309 38.9948 162.736 39.1761 162.224C39.3575 161.707 39.6161 161.267 39.9521 160.904C40.2881 160.541 40.6935 160.261 41.1681 160.064C41.6481 159.867 42.1841 159.768 42.7761 159.768ZM42.7761 167C43.5761 167 44.1735 166.733 44.5681 166.2C44.9628 165.661 45.1601 164.912 45.1601 163.952C45.1601 162.987 44.9628 162.235 44.5681 161.696C44.1735 161.157 43.5761 160.888 42.7761 160.888C42.3708 160.888 42.0188 160.957 41.7201 161.096C41.4215 161.235 41.1708 161.435 40.9681 161.696C40.7708 161.957 40.6215 162.28 40.5201 162.664C40.4241 163.043 40.3761 163.472 40.3761 163.952C40.3761 164.432 40.4241 164.861 40.5201 165.24C40.6215 165.619 40.7708 165.939 40.9681 166.2C41.1708 166.456 41.4215 166.653 41.7201 166.792C42.0188 166.931 42.3708 167 42.7761 167ZM48.3868 168V159.896H49.2028C49.3574 159.896 49.4641 159.925 49.5228 159.984C49.5814 160.043 49.6214 160.144 49.6428 160.288L49.7388 161.552C50.0161 160.987 50.3574 160.547 50.7628 160.232C51.1734 159.912 51.6534 159.752 52.2028 159.752C52.4268 159.752 52.6294 159.779 52.8108 159.832C52.9921 159.88 53.1601 159.949 53.3148 160.04L53.1308 161.104C53.0934 161.237 53.0108 161.304 52.8828 161.304C52.8081 161.304 52.6934 161.28 52.5388 161.232C52.3841 161.179 52.1681 161.152 51.8908 161.152C51.3948 161.152 50.9788 161.296 50.6428 161.584C50.3121 161.872 50.0348 162.291 49.8108 162.84V168H48.3868ZM56.4239 159.896V168H54.9999V159.896H56.4239ZM56.7439 157.352C56.7439 157.491 56.7145 157.621 56.6559 157.744C56.6025 157.861 56.5279 157.968 56.4319 158.064C56.3412 158.155 56.2345 158.227 56.1119 158.28C55.9892 158.333 55.8585 158.36 55.7199 158.36C55.5812 158.36 55.4505 158.333 55.3279 158.28C55.2105 158.227 55.1039 158.155 55.0079 158.064C54.9172 157.968 54.8452 157.861 54.7919 157.744C54.7385 157.621 54.7119 157.491 54.7119 157.352C54.7119 157.213 54.7385 157.083 54.7919 156.96C54.8452 156.832 54.9172 156.723 55.0079 156.632C55.1039 156.536 55.2105 156.461 55.3279 156.408C55.4505 156.355 55.5812 156.328 55.7199 156.328C55.8585 156.328 55.9892 156.355 56.1119 156.408C56.2345 156.461 56.3412 156.536 56.4319 156.632C56.5279 156.723 56.6025 156.832 56.6559 156.96C56.7145 157.083 56.7439 157.213 56.7439 157.352ZM61.3896 168.128C60.7496 168.128 60.2563 167.949 59.9096 167.592C59.5683 167.235 59.3976 166.72 59.3976 166.048V161.088H58.4216C58.3363 161.088 58.2643 161.064 58.2056 161.016C58.147 160.963 58.1176 160.883 58.1176 160.776V160.208L59.4456 160.04L59.7736 157.536C59.7843 157.456 59.819 157.392 59.8776 157.344C59.9363 157.291 60.011 157.264 60.1016 157.264H60.8216V160.056H63.1416V161.088H60.8216V165.952C60.8216 166.293 60.9043 166.547 61.0696 166.712C61.235 166.877 61.4483 166.96 61.7096 166.96C61.859 166.96 61.987 166.941 62.0936 166.904C62.2056 166.861 62.3016 166.816 62.3816 166.768C62.4616 166.72 62.5283 166.677 62.5816 166.64C62.6403 166.597 62.691 166.576 62.7336 166.576C62.8083 166.576 62.875 166.621 62.9336 166.712L63.3496 167.392C63.1043 167.621 62.8083 167.803 62.4616 167.936C62.115 168.064 61.7576 168.128 61.3896 168.128ZM67.2784 170.392C67.2304 170.499 67.169 170.584 67.0944 170.648C67.025 170.712 66.9157 170.744 66.7664 170.744H65.7104L67.1904 167.528L63.8464 159.896H65.0784C65.201 159.896 65.297 159.928 65.3664 159.992C65.4357 160.051 65.4864 160.117 65.5184 160.192L67.6864 165.296C67.7344 165.413 67.7744 165.531 67.8064 165.648C67.8437 165.765 67.8757 165.885 67.9024 166.008C67.9397 165.885 67.977 165.765 68.0144 165.648C68.0517 165.531 68.0944 165.411 68.1424 165.288L70.2464 160.192C70.2784 160.107 70.3317 160.037 70.4064 159.984C70.4864 159.925 70.5717 159.896 70.6624 159.896H71.7984L67.2784 170.392Z" fill="#6A6A6A"/>
<path fill-rule="evenodd" clip-rule="evenodd" d="M335 4V6L2 6V5C2 2.79086 3.79086 1 6 1L332 1C333.657 1 335 2.34315 335 4Z" fill="#DEDEDE"/>
<path fill-rule="evenodd" clip-rule="evenodd" d="M169 1V6L2 6V4C2 2.34315 3.34315 1 5 1L169 1Z" fill="#959595"/>
<path opacity="0.180362" d="M18.5 132.5H321.5" stroke="#8C8C8C" stroke-linecap="square"/>
<path d="M257.574 49.784V53H256.416V44.402H258.954C259.498 44.402 259.97 44.466 260.37 44.594C260.774 44.718 261.108 44.896 261.372 45.128C261.636 45.36 261.832 45.64 261.96 45.968C262.092 46.296 262.158 46.662 262.158 47.066C262.158 47.466 262.088 47.832 261.948 48.164C261.808 48.496 261.602 48.782 261.33 49.022C261.062 49.262 260.728 49.45 260.328 49.586C259.928 49.718 259.47 49.784 258.954 49.784H257.574ZM257.574 48.86H258.954C259.286 48.86 259.578 48.816 259.83 48.728C260.086 48.64 260.3 48.518 260.472 48.362C260.644 48.202 260.774 48.012 260.862 47.792C260.95 47.572 260.994 47.33 260.994 47.066C260.994 46.518 260.824 46.09 260.484 45.782C260.148 45.474 259.638 45.32 258.954 45.32H257.574V48.86ZM263.464 53V46.922H264.076C264.192 46.922 264.272 46.944 264.316 46.988C264.36 47.032 264.39 47.108 264.406 47.216L264.478 48.164C264.686 47.74 264.942 47.41 265.246 47.174C265.554 46.934 265.914 46.814 266.326 46.814C266.494 46.814 266.646 46.834 266.782 46.874C266.918 46.91 267.044 46.962 267.16 47.03L267.022 47.828C266.994 47.928 266.932 47.978 266.836 47.978C266.78 47.978 266.694 47.96 266.578 47.924C266.462 47.884 266.3 47.864 266.092 47.864C265.72 47.864 265.408 47.972 265.156 48.188C264.908 48.404 264.7 48.718 264.532 49.13V53H263.464ZM270.764 46.826C271.208 46.826 271.608 46.9 271.964 47.048C272.324 47.196 272.628 47.406 272.876 47.678C273.128 47.95 273.32 48.28 273.452 48.668C273.588 49.052 273.656 49.482 273.656 49.958C273.656 50.438 273.588 50.87 273.452 51.254C273.32 51.638 273.128 51.966 272.876 52.238C272.628 52.51 272.324 52.72 271.964 52.868C271.608 53.012 271.208 53.084 270.764 53.084C270.32 53.084 269.918 53.012 269.558 52.868C269.202 52.72 268.898 52.51 268.646 52.238C268.394 51.966 268.2 51.638 268.064 51.254C267.928 50.87 267.86 50.438 267.86 49.958C267.86 49.482 267.928 49.052 268.064 48.668C268.2 48.28 268.394 47.95 268.646 47.678C268.898 47.406 269.202 47.196 269.558 47.048C269.918 46.9 270.32 46.826 270.764 46.826ZM270.764 52.25C271.364 52.25 271.812 52.05 272.108 51.65C272.404 51.246 272.552 50.684 272.552 49.964C272.552 49.24 272.404 48.676 272.108 48.272C271.812 47.868 271.364 47.666 270.764 47.666C270.46 47.666 270.196 47.718 269.972 47.822C269.748 47.926 269.56 48.076 269.408 48.272C269.26 48.468 269.148 48.71 269.072 48.998C269 49.282 268.964 49.604 268.964 49.964C268.964 50.324 269 50.646 269.072 50.93C269.148 51.214 269.26 51.454 269.408 51.65C269.56 51.842 269.748 51.99 269.972 52.094C270.196 52.198 270.46 52.25 270.764 52.25ZM279.118 48.002C279.086 48.046 279.054 48.08 279.022 48.104C278.99 48.128 278.944 48.14 278.884 48.14C278.824 48.14 278.758 48.116 278.686 48.068C278.618 48.016 278.53 47.96 278.422 47.9C278.314 47.84 278.182 47.786 278.026 47.738C277.874 47.686 277.686 47.66 277.462 47.66C277.166 47.66 276.904 47.714 276.676 47.822C276.448 47.926 276.256 48.078 276.1 48.278C275.948 48.478 275.832 48.72 275.752 49.004C275.676 49.288 275.638 49.606 275.638 49.958C275.638 50.326 275.68 50.654 275.764 50.942C275.848 51.226 275.966 51.466 276.118 51.662C276.27 51.854 276.454 52.002 276.67 52.106C276.89 52.206 277.136 52.256 277.408 52.256C277.668 52.256 277.882 52.226 278.05 52.166C278.218 52.102 278.358 52.032 278.47 51.956C278.582 51.88 278.674 51.812 278.746 51.752C278.818 51.688 278.89 51.656 278.962 51.656C279.054 51.656 279.122 51.69 279.166 51.758L279.466 52.148C279.202 52.472 278.872 52.71 278.476 52.862C278.08 53.01 277.662 53.084 277.222 53.084C276.842 53.084 276.488 53.014 276.16 52.874C275.836 52.734 275.554 52.532 275.314 52.268C275.074 52 274.884 51.672 274.744 51.284C274.608 50.896 274.54 50.454 274.54 49.958C274.54 49.506 274.602 49.088 274.726 48.704C274.854 48.32 275.038 47.99 275.278 47.714C275.522 47.434 275.822 47.216 276.178 47.06C276.534 46.904 276.942 46.826 277.402 46.826C277.826 46.826 278.202 46.896 278.53 47.036C278.858 47.172 279.148 47.366 279.4 47.618L279.118 48.002ZM282.979 46.826C283.343 46.826 283.679 46.888 283.987 47.012C284.295 47.132 284.561 47.308 284.785 47.54C285.009 47.768 285.183 48.052 285.307 48.392C285.435 48.728 285.499 49.112 285.499 49.544C285.499 49.712 285.481 49.824 285.445 49.88C285.409 49.936 285.341 49.964 285.241 49.964H281.197C281.205 50.348 281.257 50.682 281.353 50.966C281.449 51.25 281.581 51.488 281.749 51.68C281.917 51.868 282.117 52.01 282.349 52.106C282.581 52.198 282.841 52.244 283.129 52.244C283.397 52.244 283.627 52.214 283.819 52.154C284.015 52.09 284.183 52.022 284.323 51.95C284.463 51.878 284.579 51.812 284.671 51.752C284.767 51.688 284.849 51.656 284.917 51.656C285.005 51.656 285.073 51.69 285.121 51.758L285.421 52.148C285.289 52.308 285.131 52.448 284.947 52.568C284.763 52.684 284.565 52.78 284.353 52.856C284.145 52.932 283.929 52.988 283.705 53.024C283.481 53.064 283.259 53.084 283.039 53.084C282.619 53.084 282.231 53.014 281.875 52.874C281.523 52.73 281.217 52.522 280.957 52.25C280.701 51.974 280.501 51.634 280.357 51.23C280.213 50.826 280.141 50.362 280.141 49.838C280.141 49.414 280.205 49.018 280.333 48.65C280.465 48.282 280.653 47.964 280.897 47.696C281.141 47.424 281.439 47.212 281.791 47.06C282.143 46.904 282.539 46.826 282.979 46.826ZM283.003 47.612C282.487 47.612 282.081 47.762 281.785 48.062C281.489 48.358 281.305 48.77 281.233 49.298H284.539C284.539 49.05 284.505 48.824 284.437 48.62C284.369 48.412 284.269 48.234 284.137 48.086C284.005 47.934 283.843 47.818 283.651 47.738C283.463 47.654 283.247 47.612 283.003 47.612ZM290.346 47.924C290.298 48.012 290.224 48.056 290.124 48.056C290.064 48.056 289.996 48.034 289.92 47.99C289.844 47.946 289.75 47.898 289.638 47.846C289.53 47.79 289.4 47.74 289.248 47.696C289.096 47.648 288.916 47.624 288.708 47.624C288.528 47.624 288.366 47.648 288.222 47.696C288.078 47.74 287.954 47.802 287.85 47.882C287.75 47.962 287.672 48.056 287.616 48.164C287.564 48.268 287.538 48.382 287.538 48.506C287.538 48.662 287.582 48.792 287.67 48.896C287.762 49 287.882 49.09 288.03 49.166C288.178 49.242 288.346 49.31 288.534 49.37C288.722 49.426 288.914 49.488 289.11 49.556C289.31 49.62 289.504 49.692 289.692 49.772C289.88 49.852 290.048 49.952 290.196 50.072C290.344 50.192 290.462 50.34 290.55 50.516C290.642 50.688 290.688 50.896 290.688 51.14C290.688 51.42 290.638 51.68 290.538 51.92C290.438 52.156 290.29 52.362 290.094 52.538C289.898 52.71 289.658 52.846 289.374 52.946C289.09 53.046 288.762 53.096 288.39 53.096C287.966 53.096 287.582 53.028 287.238 52.892C286.894 52.752 286.602 52.574 286.362 52.358L286.614 51.95C286.646 51.898 286.684 51.858 286.728 51.83C286.772 51.802 286.83 51.788 286.902 51.788C286.974 51.788 287.05 51.816 287.13 51.872C287.21 51.928 287.306 51.99 287.418 52.058C287.534 52.126 287.672 52.188 287.832 52.244C287.996 52.3 288.2 52.328 288.444 52.328C288.652 52.328 288.834 52.302 288.99 52.25C289.146 52.194 289.276 52.12 289.38 52.028C289.484 51.936 289.56 51.83 289.608 51.71C289.66 51.59 289.686 51.462 289.686 51.326C289.686 51.158 289.64 51.02 289.548 50.912C289.46 50.8 289.342 50.706 289.194 50.63C289.046 50.55 288.876 50.482 288.684 50.426C288.496 50.366 288.302 50.304 288.102 50.24C287.906 50.176 287.712 50.104 287.52 50.024C287.332 49.94 287.164 49.836 287.016 49.712C286.868 49.588 286.748 49.436 286.656 49.256C286.568 49.072 286.524 48.85 286.524 48.59C286.524 48.358 286.572 48.136 286.668 47.924C286.764 47.708 286.904 47.52 287.088 47.36C287.272 47.196 287.498 47.066 287.766 46.97C288.034 46.874 288.34 46.826 288.684 46.826C289.084 46.826 289.442 46.89 289.758 47.018C290.078 47.142 290.354 47.314 290.586 47.534L290.346 47.924ZM295.549 47.924C295.501 48.012 295.427 48.056 295.327 48.056C295.267 48.056 295.199 48.034 295.123 47.99C295.047 47.946 294.953 47.898 294.841 47.846C294.733 47.79 294.603 47.74 294.451 47.696C294.299 47.648 294.119 47.624 293.911 47.624C293.731 47.624 293.569 47.648 293.425 47.696C293.281 47.74 293.157 47.802 293.053 47.882C292.953 47.962 292.875 48.056 292.819 48.164C292.767 48.268 292.741 48.382 292.741 48.506C292.741 48.662 292.785 48.792 292.873 48.896C292.965 49 293.085 49.09 293.233 49.166C293.381 49.242 293.549 49.31 293.737 49.37C293.925 49.426 294.117 49.488 294.313 49.556C294.513 49.62 294.707 49.692 294.895 49.772C295.083 49.852 295.251 49.952 295.399 50.072C295.547 50.192 295.665 50.34 295.753 50.516C295.845 50.688 295.891 50.896 295.891 51.14C295.891 51.42 295.841 51.68 295.741 51.92C295.641 52.156 295.493 52.362 295.297 52.538C295.101 52.71 294.861 52.846 294.577 52.946C294.293 53.046 293.965 53.096 293.593 53.096C293.169 53.096 292.785 53.028 292.441 52.892C292.097 52.752 291.805 52.574 291.565 52.358L291.817 51.95C291.849 51.898 291.887 51.858 291.931 51.83C291.975 51.802 292.033 51.788 292.105 51.788C292.177 51.788 292.253 51.816 292.333 51.872C292.413 51.928 292.509 51.99 292.621 52.058C292.737 52.126 292.875 52.188 293.035 52.244C293.199 52.3 293.403 52.328 293.647 52.328C293.855 52.328 294.037 52.302 294.193 52.25C294.349 52.194 294.479 52.12 294.583 52.028C294.687 51.936 294.763 51.83 294.811 51.71C294.863 51.59 294.889 51.462 294.889 51.326C294.889 51.158 294.843 51.02 294.751 50.912C294.663 50.8 294.545 50.706 294.397 50.63C294.249 50.55 294.079 50.482 293.887 50.426C293.699 50.366 293.505 50.304 293.305 50.24C293.109 50.176 292.915 50.104 292.723 50.024C292.535 49.94 292.367 49.836 292.219 49.712C292.071 49.588 291.951 49.436 291.859 49.256C291.771 49.072 291.727 48.85 291.727 48.59C291.727 48.358 291.775 48.136 291.871 47.924C291.967 47.708 292.107 47.52 292.291 47.36C292.475 47.196 292.701 47.066 292.969 46.97C293.237 46.874 293.543 46.826 293.887 46.826C294.287 46.826 294.645 46.89 294.961 47.018C295.281 47.142 295.557 47.314 295.789 47.534L295.549 47.924ZM298.461 46.922V53H297.393V46.922H298.461ZM298.701 45.014C298.701 45.118 298.679 45.216 298.635 45.308C298.595 45.396 298.539 45.476 298.467 45.548C298.399 45.616 298.319 45.67 298.227 45.71C298.135 45.75 298.037 45.77 297.933 45.77C297.829 45.77 297.731 45.75 297.639 45.71C297.551 45.67 297.471 45.616 297.399 45.548C297.331 45.476 297.277 45.396 297.237 45.308C297.197 45.216 297.177 45.118 297.177 45.014C297.177 44.91 297.197 44.812 297.237 44.72C297.277 44.624 297.331 44.542 297.399 44.474C297.471 44.402 297.551 44.346 297.639 44.306C297.731 44.266 297.829 44.246 297.933 44.246C298.037 44.246 298.135 44.266 298.227 44.306C298.319 44.346 298.399 44.402 298.467 44.474C298.539 44.542 298.595 44.624 298.635 44.72C298.679 44.812 298.701 44.91 298.701 45.014ZM300.343 53V46.922H300.979C301.131 46.922 301.227 46.996 301.267 47.144L301.351 47.804C301.615 47.512 301.909 47.276 302.233 47.096C302.561 46.916 302.939 46.826 303.367 46.826C303.699 46.826 303.991 46.882 304.243 46.994C304.499 47.102 304.711 47.258 304.879 47.462C305.051 47.662 305.181 47.904 305.269 48.188C305.357 48.472 305.401 48.786 305.401 49.13V53H304.333V49.13C304.333 48.67 304.227 48.314 304.015 48.062C303.807 47.806 303.487 47.678 303.055 47.678C302.739 47.678 302.443 47.754 302.167 47.906C301.895 48.058 301.643 48.264 301.411 48.524V53H300.343ZM309.057 46.82C309.321 46.82 309.567 46.85 309.795 46.91C310.027 46.966 310.237 47.05 310.425 47.162H312.075V47.558C312.075 47.69 311.991 47.774 311.823 47.81L311.133 47.906C311.269 48.166 311.337 48.456 311.337 48.776C311.337 49.072 311.279 49.342 311.163 49.586C311.051 49.826 310.893 50.032 310.689 50.204C310.489 50.376 310.249 50.508 309.969 50.6C309.693 50.692 309.389 50.738 309.057 50.738C308.773 50.738 308.505 50.704 308.253 50.636C308.125 50.716 308.027 50.802 307.959 50.894C307.895 50.986 307.863 51.076 307.863 51.164C307.863 51.308 307.921 51.418 308.037 51.494C308.153 51.566 308.307 51.618 308.499 51.65C308.691 51.682 308.909 51.702 309.153 51.71C309.397 51.718 309.645 51.732 309.897 51.752C310.153 51.768 310.403 51.798 310.647 51.842C310.891 51.886 311.109 51.958 311.301 52.058C311.493 52.158 311.647 52.296 311.763 52.472C311.879 52.648 311.937 52.876 311.937 53.156C311.937 53.416 311.871 53.668 311.739 53.912C311.611 54.156 311.425 54.372 311.181 54.56C310.937 54.752 310.639 54.904 310.287 55.016C309.935 55.132 309.537 55.19 309.093 55.19C308.649 55.19 308.259 55.146 307.923 55.058C307.591 54.97 307.315 54.852 307.095 54.704C306.875 54.556 306.709 54.384 306.597 54.188C306.489 53.996 306.435 53.794 306.435 53.582C306.435 53.282 306.529 53.028 306.717 52.82C306.909 52.608 307.171 52.44 307.503 52.316C307.331 52.236 307.193 52.13 307.089 51.998C306.989 51.862 306.939 51.682 306.939 51.458C306.939 51.37 306.955 51.28 306.987 51.188C307.019 51.092 307.067 50.998 307.131 50.906C307.199 50.814 307.281 50.726 307.377 50.642C307.473 50.558 307.585 50.484 307.713 50.42C307.413 50.252 307.177 50.03 307.005 49.754C306.837 49.474 306.753 49.148 306.753 48.776C306.753 48.48 306.809 48.212 306.921 47.972C307.037 47.728 307.197 47.522 307.401 47.354C307.605 47.182 307.847 47.05 308.127 46.958C308.411 46.866 308.721 46.82 309.057 46.82ZM310.953 53.33C310.953 53.178 310.911 53.056 310.827 52.964C310.743 52.872 310.629 52.802 310.485 52.754C310.341 52.702 310.175 52.664 309.987 52.64C309.799 52.616 309.601 52.6 309.393 52.592C309.185 52.58 308.973 52.568 308.757 52.556C308.541 52.544 308.335 52.522 308.139 52.49C307.911 52.598 307.725 52.73 307.581 52.886C307.441 53.042 307.371 53.228 307.371 53.444C307.371 53.58 307.405 53.706 307.473 53.822C307.545 53.942 307.653 54.044 307.797 54.128C307.941 54.216 308.121 54.284 308.337 54.332C308.557 54.384 308.815 54.41 309.111 54.41C309.399 54.41 309.657 54.384 309.885 54.332C310.113 54.28 310.305 54.206 310.461 54.11C310.621 54.014 310.743 53.9 310.827 53.768C310.911 53.636 310.953 53.49 310.953 53.33ZM309.057 50.03C309.273 50.03 309.463 50 309.627 49.94C309.795 49.88 309.935 49.796 310.047 49.688C310.159 49.58 310.243 49.452 310.299 49.304C310.355 49.152 310.383 48.986 310.383 48.806C310.383 48.434 310.269 48.138 310.041 47.918C309.817 47.698 309.489 47.588 309.057 47.588C308.629 47.588 308.301 47.698 308.073 47.918C307.849 48.138 307.737 48.434 307.737 48.806C307.737 48.986 307.765 49.152 307.821 49.304C307.881 49.452 307.967 49.58 308.079 49.688C308.191 49.796 308.329 49.88 308.493 49.94C308.657 50 308.845 50.03 309.057 50.03ZM312.792 52.34C312.792 52.236 312.81 52.138 312.846 52.046C312.886 51.954 312.938 51.874 313.002 51.806C313.07 51.738 313.15 51.684 313.242 51.644C313.334 51.604 313.432 51.584 313.536 51.584C313.64 51.584 313.738 51.604 313.83 51.644C313.922 51.684 314.002 51.738 314.07 51.806C314.138 51.874 314.19 51.954 314.226 52.046C314.266 52.138 314.286 52.236 314.286 52.34C314.286 52.448 314.266 52.548 314.226 52.64C314.19 52.728 314.138 52.806 314.07 52.874C314.002 52.942 313.922 52.994 313.83 53.03C313.738 53.07 313.64 53.09 313.536 53.09C313.432 53.09 313.334 53.07 313.242 53.03C313.15 52.994 313.07 52.942 313.002 52.874C312.938 52.806 312.886 52.728 312.846 52.64C312.81 52.548 312.792 52.448 312.792 52.34ZM318.966 52.34C318.966 52.236 318.984 52.138 319.02 52.046C319.06 51.954 319.112 51.874 319.176 51.806C319.244 51.738 319.324 51.684 319.416 51.644C319.508 51.604 319.606 51.584 319.71 51.584C319.814 51.584 319.912 51.604 320.004 51.644C320.096 51.684 320.176 51.738 320.244 51.806C320.312 51.874 320.364 51.954 320.4 52.046C320.44 52.138 320.46 52.236 320.46 52.34C320.46 52.448 320.44 52.548 320.4 52.64C320.364 52.728 320.312 52.806 320.244 52.874C320.176 52.942 320.096 52.994 320.004 53.03C319.912 53.07 319.814 53.09 319.71 53.09C319.606 53.09 319.508 53.07 319.416 53.03C319.324 52.994 319.244 52.942 319.176 52.874C319.112 52.806 319.06 52.728 319.02 52.64C318.984 52.548 318.966 52.448 318.966 52.34ZM315.876 52.34C315.876 52.236 315.894 52.138 315.93 52.046C315.97 51.954 316.022 51.874 316.086 51.806C316.154 51.738 316.234 51.684 316.326 51.644C316.418 51.604 316.516 51.584 316.62 51.584C316.724 51.584 316.822 51.604 316.914 51.644C317.006 51.684 317.086 51.738 317.154 51.806C317.222 51.874 317.274 51.954 317.31 52.046C317.35 52.138 317.37 52.236 317.37 52.34C317.37 52.448 317.35 52.548 317.31 52.64C317.274 52.728 317.222 52.806 317.154 52.874C317.086 52.942 317.006 52.994 316.914 53.03C316.822 53.07 316.724 53.09 316.62 53.09C316.516 53.09 316.418 53.07 316.326 53.03C316.234 52.994 316.154 52.942 316.086 52.874C316.022 52.806 315.97 52.728 315.93 52.64C315.894 52.548 315.876 52.448 315.876 52.34Z" fill="#9B9B9B"/>
<path d="M310.577 101.45C310.577 101.703 310.497 101.913 310.337 102.08C310.177 102.24 309.907 102.32 309.527 102.32H305.027L304.367 106.08C305.114 105.92 305.804 105.84 306.437 105.84C307.184 105.84 307.84 105.95 308.407 106.17C308.98 106.39 309.46 106.693 309.847 107.08C310.234 107.467 310.524 107.923 310.717 108.45C310.917 108.977 311.017 109.55 311.017 110.17C311.017 110.93 310.884 111.617 310.617 112.23C310.35 112.843 309.984 113.37 309.517 113.81C309.057 114.243 308.514 114.577 307.887 114.81C307.26 115.043 306.584 115.16 305.857 115.16C305.437 115.16 305.034 115.117 304.647 115.03C304.26 114.95 303.9 114.84 303.567 114.7C303.234 114.56 302.924 114.4 302.637 114.22C302.35 114.04 302.097 113.85 301.877 113.65L302.417 112.89C302.537 112.717 302.697 112.63 302.897 112.63C303.024 112.63 303.17 112.683 303.337 112.79C303.51 112.89 303.717 113.003 303.957 113.13C304.197 113.257 304.477 113.373 304.797 113.48C305.124 113.58 305.51 113.63 305.957 113.63C306.457 113.63 306.907 113.55 307.307 113.39C307.707 113.23 308.047 113.003 308.327 112.71C308.614 112.41 308.834 112.053 308.987 111.64C309.14 111.227 309.217 110.763 309.217 110.25C309.217 109.803 309.15 109.4 309.017 109.04C308.89 108.68 308.694 108.373 308.427 108.12C308.167 107.867 307.84 107.67 307.447 107.53C307.054 107.39 306.594 107.32 306.067 107.32C305.707 107.32 305.334 107.35 304.947 107.41C304.56 107.47 304.16 107.567 303.747 107.7L302.627 107.37L303.787 100.67H310.577V101.45ZM323.398 107.84C323.398 109.093 323.262 110.18 322.988 111.1C322.722 112.013 322.355 112.77 321.888 113.37C321.422 113.97 320.868 114.417 320.228 114.71C319.595 115.003 318.915 115.15 318.188 115.15C317.455 115.15 316.772 115.003 316.138 114.71C315.512 114.417 314.965 113.97 314.498 113.37C314.032 112.77 313.665 112.013 313.398 111.1C313.132 110.18 312.998 109.093 312.998 107.84C312.998 106.587 313.132 105.5 313.398 104.58C313.665 103.66 314.032 102.9 314.498 102.3C314.965 101.693 315.512 101.243 316.138 100.95C316.772 100.657 317.455 100.51 318.188 100.51C318.915 100.51 319.595 100.657 320.228 100.95C320.868 101.243 321.422 101.693 321.888 102.3C322.355 102.9 322.722 103.66 322.988 104.58C323.262 105.5 323.398 106.587 323.398 107.84ZM321.548 107.84C321.548 106.747 321.455 105.83 321.268 105.09C321.088 104.343 320.842 103.743 320.528 103.29C320.222 102.837 319.865 102.513 319.458 102.32C319.052 102.12 318.628 102.02 318.188 102.02C317.748 102.02 317.325 102.12 316.918 102.32C316.512 102.513 316.155 102.837 315.848 103.29C315.542 103.743 315.295 104.343 315.108 105.09C314.928 105.83 314.838 106.747 314.838 107.84C314.838 108.933 314.928 109.85 315.108 110.59C315.295 111.33 315.542 111.927 315.848 112.38C316.155 112.833 316.512 113.16 316.918 113.36C317.325 113.553 317.748 113.65 318.188 113.65C318.628 113.65 319.052 113.553 319.458 113.36C319.865 113.16 320.222 112.833 320.528 112.38C320.842 111.927 321.088 111.33 321.268 110.59C321.455 109.85 321.548 108.933 321.548 107.84Z" fill="#3F3F3F"/>
<path d="M22.526 84.902C22.482 84.99 22.43 85.052 22.37 85.088C22.314 85.124 22.246 85.142 22.166 85.142C22.086 85.142 21.996 85.112 21.896 85.052C21.796 84.988 21.678 84.918 21.542 84.842C21.406 84.766 21.246 84.698 21.062 84.638C20.882 84.574 20.668 84.542 20.42 84.542C20.196 84.542 20 84.57 19.832 84.626C19.668 84.678 19.528 84.752 19.412 84.848C19.3 84.944 19.216 85.06 19.16 85.196C19.104 85.328 19.076 85.474 19.076 85.634C19.076 85.838 19.132 86.008 19.244 86.144C19.36 86.28 19.512 86.396 19.7 86.492C19.888 86.588 20.102 86.674 20.342 86.75C20.582 86.826 20.826 86.908 21.074 86.996C21.326 87.08 21.572 87.18 21.812 87.296C22.052 87.408 22.266 87.552 22.454 87.728C22.642 87.9 22.792 88.112 22.904 88.364C23.02 88.616 23.078 88.922 23.078 89.282C23.078 89.674 23.01 90.042 22.874 90.386C22.742 90.726 22.546 91.024 22.286 91.28C22.03 91.532 21.716 91.732 21.344 91.88C20.972 92.024 20.546 92.096 20.066 92.096C19.79 92.096 19.518 92.068 19.25 92.012C18.982 91.96 18.724 91.884 18.476 91.784C18.232 91.684 18.002 91.564 17.786 91.424C17.574 91.284 17.384 91.128 17.216 90.956L17.684 90.182C17.728 90.126 17.78 90.08 17.84 90.044C17.904 90.004 17.974 89.984 18.05 89.984C18.15 89.984 18.258 90.026 18.374 90.11C18.49 90.19 18.626 90.28 18.782 90.38C18.942 90.48 19.128 90.572 19.34 90.656C19.556 90.736 19.814 90.776 20.114 90.776C20.574 90.776 20.93 90.668 21.182 90.452C21.434 90.232 21.56 89.918 21.56 89.51C21.56 89.282 21.502 89.096 21.386 88.952C21.274 88.808 21.124 88.688 20.936 88.592C20.748 88.492 20.534 88.408 20.294 88.34C20.054 88.272 19.81 88.198 19.562 88.118C19.314 88.038 19.07 87.942 18.83 87.83C18.59 87.718 18.376 87.572 18.188 87.392C18 87.212 17.848 86.988 17.732 86.72C17.62 86.448 17.564 86.114 17.564 85.718C17.564 85.402 17.626 85.094 17.75 84.794C17.878 84.494 18.062 84.228 18.302 83.996C18.546 83.764 18.844 83.578 19.196 83.438C19.548 83.298 19.95 83.228 20.402 83.228C20.914 83.228 21.386 83.308 21.818 83.468C22.25 83.628 22.618 83.852 22.922 84.14L22.526 84.902ZM26.1276 92H24.5076V83.324H26.1276V92ZM34.281 83.324V83.918C34.281 84.102 34.229 84.27 34.125 84.422L29.673 90.71H34.173V92H27.579V91.364C27.579 91.284 27.593 91.208 27.621 91.136C27.649 91.06 27.685 90.99 27.729 90.926L32.193 84.608H27.861V83.324H34.281ZM40.9613 83.324V84.608H37.1153V87.014H40.1453V88.256H37.1153V90.71H40.9613V92H35.4893V83.324H40.9613Z" fill="#9B9B9B"/>
<path d="M25.79 109.82C25.8833 109.98 25.9633 110.15 26.03 110.33C26.1033 110.503 26.1733 110.68 26.24 110.86C26.3067 110.673 26.3767 110.497 26.45 110.33C26.5233 110.157 26.6067 109.983 26.7 109.81L31.55 101C31.6367 100.847 31.7267 100.753 31.82 100.72C31.9133 100.687 32.0467 100.67 32.22 100.67H33.65V115H31.95V104.47C31.95 104.33 31.9533 104.18 31.96 104.02C31.9667 103.86 31.9767 103.697 31.99 103.53L27.08 112.49C26.9133 112.79 26.68 112.94 26.38 112.94H26.1C25.8 112.94 25.5667 112.79 25.4 112.49L20.38 103.5C20.4 103.673 20.4133 103.843 20.42 104.01C20.4333 104.177 20.44 104.33 20.44 104.47V115H18.74V100.67H20.17C20.3433 100.67 20.4767 100.687 20.57 100.72C20.6633 100.753 20.7533 100.847 20.84 101L25.79 109.82Z" fill="#3F3F3F"/>
<path d="M126.5 147.5H86.5C85.3954 147.5 84.5 148.395 84.5 149.5V172.5C84.5 173.605 85.3954 174.5 86.5 174.5H126.5C127.605 174.5 128.5 173.605 128.5 172.5V149.5C128.5 148.395 127.605 147.5 126.5 147.5Z" fill="white" stroke="#D4D4D4"/>
<path d="M114.5 159.5L117.5 162.5M120.5 159.5L117.5 162.5" stroke="#6A6A6A" stroke-linecap="round"/>
<path d="M96.009 166.048H98.165V159.209C98.165 159.004 98.172 158.796 98.186 158.586L96.394 160.119C96.3473 160.156 96.3007 160.184 96.254 160.203C96.2073 160.217 96.163 160.224 96.121 160.224C96.051 160.224 95.988 160.21 95.932 160.182C95.876 160.149 95.834 160.112 95.806 160.07L95.414 159.531L98.396 156.948H99.411V166.048H101.385V167H96.009V166.048Z" fill="#6A6A6A"/>
<defs>
<filter id="filter0_d_575_609" x="0" y="0" width="337" height="195" filterUnits="userSpaceOnUse" color-interpolation-filters="sRGB">
<feFlood flood-opacity="0" result="BackgroundImageFix"/>
<feColorMatrix in="SourceAlpha" type="matrix" values="0 0 0 0 0 0 0 0 0 0 0 0 0 0 0 0 0 0 127 0" result="hardAlpha"/>
<feOffset dy="1"/>
<feGaussianBlur stdDeviation="0.5"/>
<feColorMatrix type="matrix" values="0 0 0 0 0 0 0 0 0 0 0 0 0 0 0 0 0 0 0.126727 0"/>
<feBlend mode="normal" in2="BackgroundImageFix" result="effect1_dropShadow_575_609"/>
<feBlend mode="normal" in="SourceGraphic" in2="effect1_dropShadow_575_609" result="shape"/>
</filter>
</defs>
</svg>
