<?xml version="1.0" encoding="UTF-8"?>
<svg width="337px" height="195px" viewBox="0 0 337 195" version="1.1" xmlns="http://www.w3.org/2000/svg" xmlns:xlink="http://www.w3.org/1999/xlink">
    <title>Group 3</title>
    <defs>
        <path d="M4,0 L331,0 C333.209139,-4.05812251e-16 335,1.790861 335,4 L335,189 C335,191.209139 333.209139,193 331,193 L4,193 C1.790861,193 5.59961202e-15,191.209139 0,189 L0,4 C-2.705415e-16,1.790861 1.790861,3.95852593e-15 4,0 Z" id="path-1"></path>
        <filter x="-0.6%" y="-0.5%" width="101.2%" height="102.1%" filterUnits="objectBoundingBox" id="filter-2">
            <feOffset dx="0" dy="1" in="SourceAlpha" result="shadowOffsetOuter1"></feOffset>
            <feGaussianBlur stdDeviation="0.5" in="shadowOffsetOuter1" result="shadowBlurOuter1"></feGaussianBlur>
            <feColorMatrix values="0 0 0 0 0   0 0 0 0 0   0 0 0 0 0  0 0 0 0.126726676 0" type="matrix" in="shadowBlurOuter1"></feColorMatrix>
        </filter>
    </defs>
    <g id="--------------" stroke="none" stroke-width="1" fill="none" fill-rule="evenodd">
        <g id="Materials-Detail" transform="translate(-608.000000, -116.000000)">
            <g id="Group-3" transform="translate(609.000000, 116.000000)">
                <g id="Rectangle-4">
                    <use fill="black" fill-opacity="1" filter="url(#filter-2)" xlink:href="#path-1"></use>
                    <use fill="#F4F4F4" fill-rule="evenodd" xlink:href="#path-1"></use>
                </g>
                <path d="M5,1 L330,1 C332.209139,1 334,2.790861 334,5 L334,64 L334,64 L1,64 L1,5 C1,2.790861 2.790861,1 5,1 Z" id="Rectangle-4" fill="#FFFFFF"></path>
                <text id="HCA1-/-1" font-family="Lato-Regular, Lato" font-size="20" font-weight="normal" fill="#000000">
                    <tspan x="57" y="42">HCA1 / 1</tspan>
                </text>
                <rect id="Rectangle-8" stroke="#CCCDCD" fill="#FFFFFF" x="16.5" y="22.5" width="24" height="24" rx="5"></rect>
                <g id="Group-14" transform="translate(254.000000, 16.000000)">
                    <rect id="Rectangle" fill="#C2D95D" x="0" y="0" width="66" height="23" rx="3"></rect>
                    <text id="READY" font-family="Lato-Regular, Lato" font-size="14" font-weight="normal" fill="#000000">
                        <tspan x="10.491" y="17">READY</tspan>
                    </text>
                </g>
                <text id="SIZE" font-family="Lato-Bold, Lato" font-size="12" font-weight="bold" letter-spacing="1" fill="#9B9B9B">
                    <tspan x="156" y="156">SIZE</tspan>
                </text>
                <text id="M" font-family="Lato-Regular, Lato" font-size="16" font-weight="normal" fill="#3F3F3F">
                    <tspan x="163" y="175">M</tspan>
                </text>
                <text id="0" font-family="Lato-Regular, Lato" font-size="16" font-weight="normal" fill="#3F3F3F">
                    <tspan x="313" y="175">0</tspan>
                </text>
                <text id="REMAINING-SETS" font-family="Lato-Bold, Lato" font-size="12" font-weight="bold" letter-spacing="1" fill="#9B9B9B">
                    <tspan x="211" y="156">REMAINING SETS</tspan>
                </text>
                <g id="Group-2" transform="translate(17.000000, 152.000000)" fill="#6A6A6A" font-family="Lato-Regular, Lato" font-size="16" font-weight="normal">
                    <text id="Priority">
                        <tspan x="0" y="16">Priority</tspan>
                    </text>
                </g>
                <path d="M168,-163 L170,-163 L170,-163 L170,170 L169,170 C166.790861,170 165,168.209139 165,166 L165,-160 C165,-161.656854 166.343146,-163 168,-163 Z" id="Rectangle-4" fill="#DEDEDE" transform="translate(167.500000, 3.500000) rotate(-270.000000) translate(-167.500000, -3.500000) "></path>
                <path d="M82,-80 L87,-80 L87,87 L85,87 C83.3431458,87 82,85.6568542 82,84 L82,-80 L82,-80 Z" id="Rectangle-4" fill="#959595" transform="translate(84.500000, 3.500000) rotate(-270.000000) translate(-84.500000, -3.500000) "></path>
                <line x1="17.5" y1="132.5" x2="320.5" y2="132.5" id="Line-23" stroke="#8C8C8C" opacity="0.180361793" stroke-linecap="square"></line>
                <text id="Processing…" font-family="Lato-Regular, Lato" font-size="12" font-weight="normal" fill="#9B9B9B">
                    <tspan x="254.252" y="53">Processing…</tspan>
                </text>
                <text id="TEST-READY-50" font-family="Lato-Bold, Lato" font-size="12" font-weight="bold" line-spacing="23" letter-spacing="1">
                    <tspan x="240.502" y="84" fill="#9B9B9B">TEST READY</tspan>
                    <tspan x="320" y="84" font-family="Lato-Regular, Lato" font-weight="normal" fill="#9B9B9B"></tspan>
                    <tspan x="292.92" y="107" font-family="Lato-Regular, Lato" font-size="20" font-weight="normal" fill="#3F3F3F">50</tspan>
                </text>
                <g id="Group-6" transform="translate(83.000000, 147.000000)">
                    <rect id="Rectangle" stroke="#D4D4D4" fill="#FFFFFF" x="0.5" y="0.5" width="44" height="27" rx="2"></rect>
                    <path d="M30.5,12.5 L33.5,15.5 M36.5,12.5 L33.5,15.5" id="Combined-Shape" stroke="#6A6A6A" stroke-linecap="round"></path>
                    <text id="1" font-family="Lato-Regular, Lato" font-size="14" font-weight="normal" fill="#6A6A6A">
                        <tspan x="10" y="20">1</tspan>
                    </text>
                </g>
            </g>
        </g>
    </g>
</svg>