<svg width="174" height="38" viewBox="0 0 174 38" fill="none" xmlns="http://www.w3.org/2000/svg">
<path d="M171 0H3C1.34315 0 0 1.34315 0 3V35C0 36.6569 1.34315 38 3 38H171C172.657 38 174 36.6569 174 35V3C174 1.34315 172.657 0 171 0Z" fill="white"/>
<path d="M58.33 6.878V8.425H55.285V17H53.402V8.425H50.343V6.878H58.33ZM61.2662 9.818V17H59.5372V9.818H61.2662ZM61.5252 7.725C61.5252 7.87433 61.4948 8.01433 61.4342 8.145C61.3735 8.27567 61.2918 8.39 61.1892 8.488C61.0912 8.586 60.9745 8.66533 60.8392 8.726C60.7038 8.782 60.5592 8.81 60.4052 8.81C60.2558 8.81 60.1135 8.782 59.9782 8.726C59.8475 8.66533 59.7332 8.586 59.6352 8.488C59.5372 8.39 59.4578 8.27567 59.3972 8.145C59.3412 8.01433 59.3132 7.87433 59.3132 7.725C59.3132 7.571 59.3412 7.42633 59.3972 7.291C59.4578 7.15567 59.5372 7.039 59.6352 6.941C59.7332 6.843 59.8475 6.766 59.9782 6.71C60.1135 6.64933 60.2558 6.619 60.4052 6.619C60.5592 6.619 60.7038 6.64933 60.8392 6.71C60.9745 6.766 61.0912 6.843 61.1892 6.941C61.2918 7.039 61.3735 7.15567 61.4342 7.291C61.4948 7.42633 61.5252 7.571 61.5252 7.725ZM65.5849 17.112C64.9643 17.112 64.4859 16.937 64.1499 16.587C63.8139 16.2323 63.6459 15.7447 63.6459 15.124V11.113H62.9179C62.8246 11.113 62.7429 11.0827 62.6729 11.022C62.6076 10.9613 62.5749 10.8703 62.5749 10.749V10.063L63.7299 9.874L64.0939 7.914C64.1126 7.82067 64.1546 7.74833 64.2199 7.697C64.2899 7.64567 64.3763 7.62 64.4789 7.62H65.3749V9.881H67.2649V11.113H65.3749V15.005C65.3749 15.229 65.4309 15.404 65.5429 15.53C65.6549 15.656 65.8043 15.719 65.9909 15.719C66.0983 15.719 66.1869 15.7073 66.2569 15.684C66.3316 15.656 66.3946 15.628 66.4459 15.6C66.5019 15.572 66.5509 15.5463 66.5929 15.523C66.6349 15.495 66.6769 15.481 66.7189 15.481C66.7703 15.481 66.8123 15.495 66.8449 15.523C66.8776 15.5463 66.9126 15.5837 66.9499 15.635L67.4679 16.475C67.2159 16.685 66.9266 16.8437 66.5999 16.951C66.2733 17.0583 65.9349 17.112 65.5849 17.112ZM70.481 6.598V17H68.752V6.598H70.481ZM75.4088 9.706C75.8615 9.706 76.2768 9.77833 76.6548 9.923C77.0375 10.0677 77.3665 10.28 77.6418 10.56C77.9171 10.8353 78.1318 11.176 78.2858 11.582C78.4398 11.9833 78.5168 12.443 78.5168 12.961C78.5168 13.0917 78.5098 13.2013 78.4958 13.29C78.4865 13.374 78.4655 13.4417 78.4328 13.493C78.4048 13.5397 78.3651 13.5747 78.3138 13.598C78.2625 13.6167 78.1971 13.626 78.1178 13.626H73.6798C73.7311 14.3633 73.9295 14.9047 74.2748 15.25C74.6201 15.5953 75.0775 15.768 75.6468 15.768C75.9268 15.768 76.1671 15.7353 76.3678 15.67C76.5731 15.6047 76.7505 15.5323 76.8998 15.453C77.0538 15.3737 77.1868 15.3013 77.2988 15.236C77.4155 15.1707 77.5275 15.138 77.6348 15.138C77.7048 15.138 77.7655 15.152 77.8168 15.18C77.8681 15.208 77.9125 15.2477 77.9498 15.299L78.4538 15.929C78.2625 16.153 78.0478 16.342 77.8098 16.496C77.5718 16.6453 77.3221 16.7667 77.0608 16.86C76.8041 16.9487 76.5405 17.0117 76.2698 17.049C76.0038 17.0863 75.7448 17.105 75.4928 17.105C74.9935 17.105 74.5291 17.0233 74.0998 16.86C73.6705 16.692 73.2971 16.447 72.9798 16.125C72.6625 15.7983 72.4128 15.397 72.2308 14.921C72.0488 14.4403 71.9578 13.885 71.9578 13.255C71.9578 12.765 72.0371 12.3053 72.1958 11.876C72.3545 11.442 72.5808 11.0663 72.8748 10.749C73.1735 10.427 73.5351 10.1727 73.9598 9.986C74.3891 9.79933 74.8721 9.706 75.4088 9.706ZM75.4438 10.945C74.9398 10.945 74.5455 11.0873 74.2608 11.372C73.9761 11.6567 73.7941 12.0603 73.7148 12.583H76.9628C76.9628 12.359 76.9325 12.149 76.8718 11.953C76.8111 11.7523 76.7178 11.5773 76.5918 11.428C76.4658 11.2787 76.3071 11.162 76.1158 11.078C75.9245 10.9893 75.7005 10.945 75.4438 10.945ZM56.433 22.299C56.391 22.3783 56.3303 22.418 56.251 22.418C56.1903 22.418 56.111 22.376 56.013 22.292C55.9197 22.2033 55.7913 22.1077 55.628 22.005C55.4647 21.8977 55.2593 21.7997 55.012 21.711C54.7693 21.6223 54.4683 21.578 54.109 21.578C53.7497 21.578 53.4323 21.6293 53.157 21.732C52.8863 21.8347 52.6577 21.9747 52.471 22.152C52.289 22.3293 52.149 22.5347 52.051 22.768C51.9577 23.0013 51.911 23.2463 51.911 23.503C51.911 23.839 51.981 24.1167 52.121 24.336C52.2657 24.5553 52.4547 24.742 52.688 24.896C52.9213 25.05 53.185 25.1807 53.479 25.288C53.7777 25.3907 54.0833 25.4933 54.396 25.596C54.7087 25.6987 55.012 25.813 55.306 25.939C55.6047 26.0603 55.8707 26.2143 56.104 26.401C56.3373 26.5877 56.524 26.8187 56.664 27.094C56.8087 27.3647 56.881 27.703 56.881 28.109C56.881 28.5243 56.8087 28.9163 56.664 29.285C56.524 29.649 56.3187 29.9663 56.048 30.237C55.7773 30.5077 55.446 30.7223 55.054 30.881C54.662 31.035 54.214 31.112 53.71 31.112C53.0567 31.112 52.4943 30.9977 52.023 30.769C51.5517 30.5357 51.1387 30.2183 50.784 29.817L50.98 29.509C51.036 29.439 51.1013 29.404 51.176 29.404C51.218 29.404 51.2717 29.432 51.337 29.488C51.4023 29.544 51.4817 29.614 51.575 29.698C51.6683 29.7773 51.7803 29.866 51.911 29.964C52.0417 30.0573 52.1933 30.146 52.366 30.23C52.5387 30.3093 52.737 30.377 52.961 30.433C53.185 30.489 53.4393 30.517 53.724 30.517C54.116 30.517 54.466 30.4587 54.774 30.342C55.082 30.2207 55.341 30.0573 55.551 29.852C55.7657 29.6467 55.929 29.404 56.041 29.124C56.153 28.8393 56.209 28.536 56.209 28.214C56.209 27.864 56.1367 27.577 55.992 27.353C55.852 27.1243 55.6653 26.9353 55.432 26.786C55.1987 26.632 54.9327 26.5037 54.634 26.401C54.34 26.2983 54.0367 26.198 53.724 26.1C53.4113 26.002 53.1057 25.8923 52.807 25.771C52.513 25.6497 52.2493 25.4957 52.016 25.309C51.7827 25.1177 51.5937 24.882 51.449 24.602C51.309 24.3173 51.239 23.9627 51.239 23.538C51.239 23.2067 51.302 22.887 51.428 22.579C51.554 22.271 51.7383 22.0003 51.981 21.767C52.2237 21.529 52.5223 21.34 52.877 21.2C53.2363 21.0553 53.6447 20.983 54.102 20.983C54.6153 20.983 55.075 21.0647 55.481 21.228C55.8917 21.3913 56.265 21.641 56.601 21.977L56.433 22.299ZM60.5274 31.112C60.0561 31.112 59.6874 30.9813 59.4214 30.72C59.1601 30.4587 59.0294 30.055 59.0294 29.509V24.749H58.0284C57.9771 24.749 57.9351 24.735 57.9024 24.707C57.8698 24.679 57.8534 24.6393 57.8534 24.588V24.329L59.0434 24.245L59.2114 21.753C59.2161 21.711 59.2324 21.6737 59.2604 21.641C59.2931 21.6083 59.3351 21.592 59.3864 21.592H59.7014V24.252H61.8924V24.749H59.7014V29.474C59.7014 29.6653 59.7248 29.831 59.7714 29.971C59.8228 30.1063 59.8904 30.2183 59.9744 30.307C60.0631 30.3957 60.1658 30.461 60.2824 30.503C60.3991 30.545 60.5251 30.566 60.6604 30.566C60.8284 30.566 60.9731 30.5427 61.0944 30.496C61.2158 30.4447 61.3208 30.391 61.4094 30.335C61.4981 30.2743 61.5704 30.2207 61.6264 30.174C61.6824 30.1227 61.7268 30.097 61.7594 30.097C61.7968 30.097 61.8341 30.1203 61.8714 30.167L62.0534 30.461C61.8761 30.657 61.6498 30.8157 61.3744 30.937C61.1038 31.0537 60.8214 31.112 60.5274 31.112ZM68.0587 31C67.9187 31 67.8323 30.9347 67.7997 30.804L67.7017 29.915C67.5103 30.1017 67.319 30.2697 67.1277 30.419C66.941 30.5683 66.745 30.6943 66.5397 30.797C66.3343 30.8997 66.1127 30.9767 65.8747 31.028C65.6367 31.084 65.3753 31.112 65.0907 31.112C64.8527 31.112 64.6217 31.077 64.3977 31.007C64.1737 30.937 63.9753 30.8297 63.8027 30.685C63.63 30.5403 63.49 30.356 63.3827 30.132C63.28 29.9033 63.2287 29.6303 63.2287 29.313C63.2287 29.019 63.3127 28.746 63.4807 28.494C63.6487 28.242 63.91 28.0227 64.2647 27.836C64.624 27.6493 65.0837 27.5 65.6437 27.388C66.2083 27.276 66.885 27.2107 67.6737 27.192V26.464C67.6737 25.82 67.5337 25.3253 67.2537 24.98C66.9783 24.63 66.5677 24.455 66.0217 24.455C65.6857 24.455 65.3987 24.5017 65.1607 24.595C64.9273 24.6883 64.729 24.791 64.5657 24.903C64.4023 25.015 64.2693 25.1177 64.1667 25.211C64.064 25.3043 63.9777 25.351 63.9077 25.351C63.8143 25.351 63.7443 25.309 63.6977 25.225L63.5787 25.022C63.9427 24.658 64.3253 24.3827 64.7267 24.196C65.128 24.0093 65.583 23.916 66.0917 23.916C66.465 23.916 66.7917 23.9767 67.0717 24.098C67.3517 24.2147 67.5827 24.385 67.7647 24.609C67.9513 24.8283 68.0913 25.0967 68.1847 25.414C68.278 25.7267 68.3247 26.0767 68.3247 26.464V31H68.0587ZM65.2587 30.629C65.5293 30.629 65.7767 30.601 66.0007 30.545C66.2293 30.4843 66.4393 30.4027 66.6307 30.3C66.8267 30.1927 67.0087 30.0667 67.1767 29.922C67.3447 29.7773 67.5103 29.621 67.6737 29.453V27.64C67.011 27.6587 66.4393 27.71 65.9587 27.794C65.4827 27.8733 65.0883 27.983 64.7757 28.123C64.4677 28.263 64.239 28.431 64.0897 28.627C63.945 28.8183 63.8727 29.0377 63.8727 29.285C63.8727 29.5183 63.91 29.7213 63.9847 29.894C64.064 30.062 64.1667 30.202 64.2927 30.314C64.4187 30.4213 64.5657 30.5007 64.7337 30.552C64.9017 30.6033 65.0767 30.629 65.2587 30.629ZM72.3263 31.112C71.8549 31.112 71.4863 30.9813 71.2203 30.72C70.9589 30.4587 70.8283 30.055 70.8283 29.509V24.749H69.8273C69.7759 24.749 69.7339 24.735 69.7013 24.707C69.6686 24.679 69.6523 24.6393 69.6523 24.588V24.329L70.8423 24.245L71.0103 21.753C71.0149 21.711 71.0313 21.6737 71.0593 21.641C71.0919 21.6083 71.1339 21.592 71.1853 21.592H71.5003V24.252H73.6913V24.749H71.5003V29.474C71.5003 29.6653 71.5236 29.831 71.5703 29.971C71.6216 30.1063 71.6893 30.2183 71.7733 30.307C71.8619 30.3957 71.9646 30.461 72.0813 30.503C72.1979 30.545 72.3239 30.566 72.4593 30.566C72.6273 30.566 72.7719 30.5427 72.8933 30.496C73.0146 30.4447 73.1196 30.391 73.2083 30.335C73.2969 30.2743 73.3693 30.2207 73.4253 30.174C73.4813 30.1227 73.5256 30.097 73.5583 30.097C73.5956 30.097 73.6329 30.1203 73.6703 30.167L73.8523 30.461C73.6749 30.657 73.4486 30.8157 73.1733 30.937C72.9026 31.0537 72.6203 31.112 72.3263 31.112ZM78.0375 23.923C78.4295 23.923 78.7912 23.9907 79.1225 24.126C79.4585 24.2613 79.7478 24.4597 79.9905 24.721C80.2378 24.9777 80.4292 25.295 80.5645 25.673C80.7045 26.051 80.7745 26.485 80.7745 26.975C80.7745 27.0777 80.7582 27.1477 80.7255 27.185C80.6975 27.2223 80.6508 27.241 80.5855 27.241H75.5525V27.374C75.5525 27.8967 75.6132 28.3563 75.7345 28.753C75.8558 29.1497 76.0285 29.4833 76.2525 29.754C76.4765 30.02 76.7472 30.2207 77.0645 30.356C77.3818 30.4913 77.7365 30.559 78.1285 30.559C78.4785 30.559 78.7818 30.5217 79.0385 30.447C79.2952 30.3677 79.5098 30.2813 79.6825 30.188C79.8598 30.09 79.9998 30.0037 80.1025 29.929C80.2052 29.8497 80.2798 29.81 80.3265 29.81C80.3872 29.81 80.4338 29.8333 80.4665 29.88L80.6485 30.104C80.5365 30.244 80.3872 30.3747 80.2005 30.496C80.0185 30.6173 79.8132 30.7223 79.5845 30.811C79.3605 30.895 79.1178 30.9627 78.8565 31.014C78.5998 31.0653 78.3408 31.091 78.0795 31.091C77.6035 31.091 77.1695 31.0093 76.7775 30.846C76.3855 30.678 76.0495 30.4353 75.7695 30.118C75.4895 29.8007 75.2725 29.4133 75.1185 28.956C74.9692 28.494 74.8945 27.9667 74.8945 27.374C74.8945 26.8747 74.9645 26.415 75.1045 25.995C75.2492 25.5703 75.4545 25.2063 75.7205 24.903C75.9912 24.595 76.3202 24.3547 76.7075 24.182C77.0995 24.0093 77.5428 23.923 78.0375 23.923ZM78.0445 24.42C77.6852 24.42 77.3632 24.476 77.0785 24.588C76.7938 24.7 76.5465 24.861 76.3365 25.071C76.1312 25.281 75.9632 25.533 75.8325 25.827C75.7065 26.121 75.6225 26.45 75.5805 26.814H80.1725C80.1725 26.4407 80.1212 26.107 80.0185 25.813C79.9158 25.5143 79.7712 25.2623 79.5845 25.057C79.3978 24.8517 79.1738 24.6953 78.9125 24.588C78.6512 24.476 78.3618 24.42 78.0445 24.42Z" fill="#3F3F3F"/>
<path d="M33 16H17C15.3431 16 14 17.3431 14 19C14 20.6569 15.3431 22 17 22H33C34.6569 22 36 20.6569 36 19C36 17.3431 34.6569 16 33 16Z" fill="#C2D95D"/>
</svg>
