<svg width="174" height="38" viewBox="0 0 174 38" fill="none" xmlns="http://www.w3.org/2000/svg">
<path d="M171 0H3C1.34315 0 0 1.34315 0 3V35C0 36.6569 1.34315 38 3 38H171C172.657 38 174 36.6569 174 35V3C174 1.34315 172.657 0 171 0Z" fill="white"/>
<path d="M59.737 17H57.84V12.576H53.094V17H51.197V6.878H53.094V11.232H57.84V6.878H59.737V17ZM68.737 14.613C68.8397 14.613 68.9284 14.6527 69.003 14.732L69.745 15.537C69.3344 16.0457 68.828 16.4353 68.226 16.706C67.6287 16.9767 66.91 17.112 66.07 17.112C65.3187 17.112 64.642 16.9837 64.04 16.727C63.4427 16.4703 62.9317 16.1133 62.507 15.656C62.0824 15.1987 61.7557 14.6527 61.527 14.018C61.303 13.3833 61.191 12.6903 61.191 11.939C61.191 11.1783 61.317 10.483 61.569 9.853C61.821 9.21833 62.1757 8.67233 62.633 8.215C63.0904 7.75767 63.6364 7.403 64.271 7.151C64.9104 6.89433 65.615 6.766 66.385 6.766C67.1364 6.766 67.792 6.88733 68.352 7.13C68.9167 7.368 69.3997 7.68533 69.801 8.082L69.171 8.957C69.1337 9.013 69.0847 9.062 69.024 9.104C68.968 9.146 68.8887 9.167 68.786 9.167C68.6787 9.167 68.569 9.125 68.457 9.041C68.345 8.957 68.2027 8.866 68.03 8.768C67.8574 8.67 67.638 8.579 67.372 8.495C67.1107 8.411 66.777 8.369 66.371 8.369C65.895 8.369 65.4564 8.453 65.055 8.621C64.6584 8.78433 64.3154 9.02 64.026 9.328C63.7414 9.636 63.5174 10.0117 63.354 10.455C63.1954 10.8937 63.116 11.3883 63.116 11.939C63.116 12.5083 63.1954 13.0147 63.354 13.458C63.5174 13.9013 63.7367 14.2747 64.012 14.578C64.2874 14.8813 64.6117 15.1147 64.985 15.278C65.3584 15.4367 65.7597 15.516 66.189 15.516C66.4457 15.516 66.6767 15.502 66.882 15.474C67.092 15.446 67.2834 15.4017 67.456 15.341C67.6334 15.2803 67.799 15.2033 67.953 15.11C68.1117 15.012 68.268 14.893 68.422 14.753C68.4687 14.711 68.5177 14.6783 68.569 14.655C68.6204 14.627 68.6764 14.613 68.737 14.613ZM80.0686 17H78.6126C78.4493 17 78.3139 16.9603 78.2066 16.881C78.1039 16.797 78.0293 16.6943 77.9826 16.573L77.2266 14.508H73.0336L72.2776 16.573C72.2403 16.6803 72.1656 16.7783 72.0536 16.867C71.9463 16.9557 71.8133 17 71.6546 17H70.1916L74.1676 6.878H76.0926L80.0686 17ZM73.5166 13.178H76.7436L75.5116 9.811C75.4556 9.66167 75.3926 9.48667 75.3226 9.286C75.2573 9.08067 75.1919 8.859 75.1266 8.621C75.0613 8.859 74.9959 9.08067 74.9306 9.286C74.8699 9.49133 74.8093 9.671 74.7486 9.825L73.5166 13.178ZM84.6791 15.705H86.7301V9.804C86.7301 9.57533 86.7371 9.335 86.7511 9.083L85.2951 10.301C85.2344 10.3523 85.1714 10.3873 85.1061 10.406C85.0454 10.4247 84.9847 10.434 84.9241 10.434C84.8307 10.434 84.7444 10.4153 84.6651 10.378C84.5904 10.336 84.5344 10.2893 84.4971 10.238L83.9511 9.489L87.0381 6.864H88.4591V15.705H90.2791V17H84.6791V15.705ZM52.569 26.52V31H51.855V21.095H54.382C55.5253 21.095 56.3793 21.3167 56.944 21.76C57.5087 22.1987 57.791 22.845 57.791 23.699C57.791 24.077 57.7257 24.4223 57.595 24.735C57.4643 25.0477 57.2753 25.323 57.028 25.561C56.7853 25.7943 56.4913 25.988 56.146 26.142C55.8007 26.2913 55.411 26.3893 54.977 26.436C55.089 26.506 55.1893 26.5993 55.278 26.716L58.687 31H58.064C57.9893 31 57.924 30.986 57.868 30.958C57.8167 30.93 57.7653 30.8833 57.714 30.818L54.543 26.8C54.4637 26.6973 54.3773 26.625 54.284 26.583C54.1953 26.541 54.0553 26.52 53.864 26.52H52.569ZM52.569 25.988H54.291C54.7297 25.988 55.1217 25.9367 55.467 25.834C55.817 25.7267 56.111 25.575 56.349 25.379C56.5917 25.183 56.776 24.9473 56.902 24.672C57.028 24.3967 57.091 24.0863 57.091 23.741C57.091 23.0363 56.86 22.5137 56.398 22.173C55.936 21.8323 55.264 21.662 54.382 21.662H52.569V25.988ZM62.766 23.923C63.158 23.923 63.5197 23.9907 63.851 24.126C64.187 24.2613 64.4764 24.4597 64.719 24.721C64.9664 24.9777 65.1577 25.295 65.293 25.673C65.433 26.051 65.503 26.485 65.503 26.975C65.503 27.0777 65.4867 27.1477 65.454 27.185C65.426 27.2223 65.3794 27.241 65.314 27.241H60.281V27.374C60.281 27.8967 60.3417 28.3563 60.463 28.753C60.5844 29.1497 60.757 29.4833 60.981 29.754C61.205 30.02 61.4757 30.2207 61.793 30.356C62.1104 30.4913 62.465 30.559 62.857 30.559C63.207 30.559 63.5104 30.5217 63.767 30.447C64.0237 30.3677 64.2384 30.2813 64.411 30.188C64.5884 30.09 64.7284 30.0037 64.831 29.929C64.9337 29.8497 65.0084 29.81 65.055 29.81C65.1157 29.81 65.1624 29.8333 65.195 29.88L65.377 30.104C65.265 30.244 65.1157 30.3747 64.929 30.496C64.747 30.6173 64.5417 30.7223 64.313 30.811C64.089 30.895 63.8464 30.9627 63.585 31.014C63.3284 31.0653 63.0694 31.091 62.808 31.091C62.332 31.091 61.898 31.0093 61.506 30.846C61.114 30.678 60.778 30.4353 60.498 30.118C60.218 29.8007 60.001 29.4133 59.847 28.956C59.6977 28.494 59.623 27.9667 59.623 27.374C59.623 26.8747 59.693 26.415 59.833 25.995C59.9777 25.5703 60.183 25.2063 60.449 24.903C60.7197 24.595 61.0487 24.3547 61.436 24.182C61.828 24.0093 62.2714 23.923 62.766 23.923ZM62.773 24.42C62.4137 24.42 62.0917 24.476 61.807 24.588C61.5224 24.7 61.275 24.861 61.065 25.071C60.8597 25.281 60.6917 25.533 60.561 25.827C60.435 26.121 60.351 26.45 60.309 26.814H64.901C64.901 26.4407 64.8497 26.107 64.747 25.813C64.6444 25.5143 64.4997 25.2623 64.313 25.057C64.1264 24.8517 63.9024 24.6953 63.641 24.588C63.3797 24.476 63.0904 24.42 62.773 24.42ZM71.7364 31C71.5964 31 71.5101 30.9347 71.4774 30.804L71.3794 29.915C71.1881 30.1017 70.9967 30.2697 70.8054 30.419C70.6187 30.5683 70.4227 30.6943 70.2174 30.797C70.0121 30.8997 69.7904 30.9767 69.5524 31.028C69.3144 31.084 69.0531 31.112 68.7684 31.112C68.5304 31.112 68.2994 31.077 68.0754 31.007C67.8514 30.937 67.6531 30.8297 67.4804 30.685C67.3077 30.5403 67.1677 30.356 67.0604 30.132C66.9577 29.9033 66.9064 29.6303 66.9064 29.313C66.9064 29.019 66.9904 28.746 67.1584 28.494C67.3264 28.242 67.5877 28.0227 67.9424 27.836C68.3017 27.6493 68.7614 27.5 69.3214 27.388C69.8861 27.276 70.5627 27.2107 71.3514 27.192V26.464C71.3514 25.82 71.2114 25.3253 70.9314 24.98C70.6561 24.63 70.2454 24.455 69.6994 24.455C69.3634 24.455 69.0764 24.5017 68.8384 24.595C68.6051 24.6883 68.4067 24.791 68.2434 24.903C68.0801 25.015 67.9471 25.1177 67.8444 25.211C67.7417 25.3043 67.6554 25.351 67.5854 25.351C67.4921 25.351 67.4221 25.309 67.3754 25.225L67.2564 25.022C67.6204 24.658 68.0031 24.3827 68.4044 24.196C68.8057 24.0093 69.2607 23.916 69.7694 23.916C70.1427 23.916 70.4694 23.9767 70.7494 24.098C71.0294 24.2147 71.2604 24.385 71.4424 24.609C71.6291 24.8283 71.7691 25.0967 71.8624 25.414C71.9557 25.7267 72.0024 26.0767 72.0024 26.464V31H71.7364ZM68.9364 30.629C69.2071 30.629 69.4544 30.601 69.6784 30.545C69.9071 30.4843 70.1171 30.4027 70.3084 30.3C70.5044 30.1927 70.6864 30.0667 70.8544 29.922C71.0224 29.7773 71.1881 29.621 71.3514 29.453V27.64C70.6887 27.6587 70.1171 27.71 69.6364 27.794C69.1604 27.8733 68.7661 27.983 68.4534 28.123C68.1454 28.263 67.9167 28.431 67.7674 28.627C67.6227 28.8183 67.5504 29.0377 67.5504 29.285C67.5504 29.5183 67.5877 29.7213 67.6624 29.894C67.7417 30.062 67.8444 30.202 67.9704 30.314C68.0964 30.4213 68.2434 30.5007 68.4114 30.552C68.5794 30.6033 68.7544 30.629 68.9364 30.629ZM79.035 31C78.9183 31 78.8507 30.9393 78.832 30.818L78.762 29.719C78.454 30.139 78.0923 30.4727 77.677 30.72C77.2663 30.9673 76.8043 31.091 76.291 31.091C75.437 31.091 74.7697 30.7947 74.289 30.202C73.813 29.6093 73.575 28.7203 73.575 27.535C73.575 27.0263 73.6403 26.5527 73.771 26.114C73.9063 25.6707 74.1023 25.288 74.359 24.966C74.6203 24.6393 74.9377 24.3827 75.311 24.196C75.689 24.0093 76.123 23.916 76.613 23.916C77.0843 23.916 77.4927 24.0047 77.838 24.182C78.1833 24.3547 78.482 24.609 78.734 24.945V20.815H79.406V31H79.035ZM76.48 30.552C76.942 30.552 77.3597 30.433 77.733 30.195C78.1063 29.957 78.44 29.6257 78.734 29.201V25.526C78.4633 25.1293 78.1647 24.8493 77.838 24.686C77.516 24.5227 77.1497 24.441 76.739 24.441C76.3283 24.441 75.969 24.5157 75.661 24.665C75.353 24.8143 75.094 25.0267 74.884 25.302C74.6787 25.5727 74.5223 25.8993 74.415 26.282C74.3123 26.66 74.261 27.0777 74.261 27.535C74.261 28.571 74.4523 29.334 74.835 29.824C75.2177 30.3093 75.766 30.552 76.48 30.552ZM83.2616 33.24C83.2336 33.3053 83.1962 33.359 83.1496 33.401C83.1076 33.443 83.0446 33.464 82.9606 33.464H82.4846L83.7096 30.741L80.7626 24.035H81.3156C81.3856 24.035 81.4392 24.0537 81.4766 24.091C81.5186 24.1237 81.5489 24.161 81.5676 24.203L83.9126 29.621C83.9406 29.691 83.9639 29.7633 83.9826 29.838C84.0059 29.908 84.0269 29.9803 84.0456 30.055C84.0689 29.9803 84.0922 29.908 84.1156 29.838C84.1436 29.7633 84.1716 29.691 84.1996 29.621L86.5166 24.203C86.5399 24.1517 86.5726 24.112 86.6146 24.084C86.6566 24.0513 86.7032 24.035 86.7546 24.035H87.2656L83.2616 33.24Z" fill="#3F3F3F"/>
<path d="M33 16H17C15.3431 16 14 17.3431 14 19C14 20.6569 15.3431 22 17 22H33C34.6569 22 36 20.6569 36 19C36 17.3431 34.6569 16 33 16Z" fill="#C2D95D"/>
</svg>
