<svg width="452" height="114" viewBox="0 0 452 114" fill="none" xmlns="http://www.w3.org/2000/svg">
<path d="M6.99 3.324V4.65H4.38V12H2.766V4.65H0.144V3.324H6.99ZM9.83072 12H8.21072V3.324H9.83072V12ZM17.9002 3.324V4.65H15.2902V12H13.6762V4.65H11.0542V3.324H17.9002ZM20.5369 10.668H24.0109V12H18.9229V3.324H20.5369V10.668ZM30.5941 3.324V4.608H26.7481V7.014H29.7781V8.256H26.7481V10.71H30.5941V12H25.1221V3.324H30.5941Z" fill="#9B9B9B"/>
<path d="M0.056 18.969H1.141C1.26233 18.969 1.36033 18.9993 1.435 19.06C1.50967 19.1207 1.56567 19.1977 1.603 19.291L4.438 26.368C4.50333 26.5267 4.56167 26.6993 4.613 26.886C4.669 27.0727 4.72267 27.2663 4.774 27.467C4.816 27.2663 4.86033 27.0727 4.907 26.886C4.95833 26.6993 5.01667 26.5267 5.082 26.368L7.903 19.291C7.93567 19.2117 7.99167 19.1393 8.071 19.074C8.15033 19.004 8.24833 18.969 8.365 18.969H9.457L5.369 29H4.144L0.056 18.969ZM14.939 29H14.386C14.2647 29 14.1667 28.9813 14.092 28.944C14.0173 28.9067 13.9683 28.8273 13.945 28.706L13.805 28.048C13.6183 28.216 13.4363 28.3677 13.259 28.503C13.0817 28.6337 12.895 28.7457 12.699 28.839C12.503 28.9277 12.293 28.9953 12.069 29.042C11.8497 29.0887 11.6047 29.112 11.334 29.112C11.0587 29.112 10.7997 29.0747 10.557 29C10.319 28.9207 10.1113 28.804 9.93398 28.65C9.75665 28.496 9.61432 28.3023 9.50698 28.069C9.40432 27.831 9.35298 27.551 9.35298 27.229C9.35298 26.949 9.42998 26.6807 9.58398 26.424C9.73798 26.1627 9.98532 25.9317 10.326 25.731C10.6713 25.5303 11.1217 25.367 11.677 25.241C12.2323 25.1103 12.9113 25.0357 13.714 25.017V24.464C13.714 23.9133 13.595 23.498 13.357 23.218C13.1237 22.9333 12.776 22.791 12.314 22.791C12.0107 22.791 11.754 22.8307 11.544 22.91C11.3387 22.9847 11.159 23.071 11.005 23.169C10.8557 23.2623 10.725 23.3487 10.613 23.428C10.5057 23.5027 10.3983 23.54 10.291 23.54C10.207 23.54 10.1323 23.519 10.067 23.477C10.0063 23.4303 9.95732 23.3743 9.91998 23.309L9.69598 22.91C10.088 22.532 10.5103 22.2497 10.963 22.063C11.4157 21.8763 11.9173 21.783 12.468 21.783C12.8647 21.783 13.217 21.8483 13.525 21.979C13.833 22.1097 14.092 22.2917 14.302 22.525C14.512 22.7583 14.6707 23.0407 14.778 23.372C14.8853 23.7033 14.939 24.0673 14.939 24.464V29ZM11.705 28.237C11.9243 28.237 12.125 28.216 12.307 28.174C12.489 28.1273 12.6593 28.0643 12.818 27.985C12.9813 27.901 13.1353 27.8007 13.28 27.684C13.4293 27.5673 13.574 27.4343 13.714 27.285V25.808C13.14 25.8267 12.6523 25.8733 12.251 25.948C11.8497 26.018 11.523 26.1113 11.271 26.228C11.019 26.3447 10.8347 26.4823 10.718 26.641C10.606 26.7997 10.55 26.977 10.55 27.173C10.55 27.3597 10.5803 27.5207 10.641 27.656C10.7017 27.7913 10.7833 27.9033 10.886 27.992C10.9887 28.076 11.11 28.139 11.25 28.181C11.39 28.2183 11.5417 28.237 11.705 28.237ZM18.2127 18.689V29H16.9667V18.689H18.2127ZM21.4867 21.909V26.431C21.4867 26.9677 21.6104 27.383 21.8577 27.677C22.1051 27.971 22.4784 28.118 22.9777 28.118C23.3417 28.118 23.6847 28.0317 24.0067 27.859C24.3287 27.6863 24.6251 27.446 24.8957 27.138V21.909H26.1417V29H25.3997C25.2224 29 25.1104 28.9137 25.0637 28.741L24.9657 27.978C24.6577 28.3187 24.3124 28.594 23.9297 28.804C23.5471 29.0093 23.1084 29.112 22.6137 29.112C22.2264 29.112 21.8834 29.049 21.5847 28.923C21.2907 28.7923 21.0434 28.6103 20.8427 28.377C20.6421 28.1437 20.4904 27.8613 20.3877 27.53C20.2897 27.1987 20.2407 26.8323 20.2407 26.431V21.909H21.4867ZM30.995 21.797C31.4197 21.797 31.8117 21.8693 32.171 22.014C32.5303 22.154 32.8407 22.3593 33.102 22.63C33.3633 22.896 33.5663 23.2273 33.711 23.624C33.8603 24.016 33.935 24.464 33.935 24.968C33.935 25.164 33.914 25.2947 33.872 25.36C33.83 25.4253 33.7507 25.458 33.634 25.458H28.916C28.9253 25.906 28.986 26.2957 29.098 26.627C29.21 26.9583 29.364 27.236 29.56 27.46C29.756 27.6793 29.9893 27.845 30.26 27.957C30.5307 28.0643 30.834 28.118 31.17 28.118C31.4827 28.118 31.751 28.083 31.975 28.013C32.2037 27.9383 32.3997 27.859 32.563 27.775C32.7263 27.691 32.8617 27.614 32.969 27.544C33.081 27.4693 33.1767 27.432 33.256 27.432C33.3587 27.432 33.438 27.4717 33.494 27.551L33.844 28.006C33.69 28.1927 33.5057 28.356 33.291 28.496C33.0763 28.6313 32.8453 28.7433 32.598 28.832C32.3553 28.9207 32.1033 28.986 31.842 29.028C31.5807 29.0747 31.3217 29.098 31.065 29.098C30.575 29.098 30.1223 29.0163 29.707 28.853C29.2963 28.685 28.9393 28.4423 28.636 28.125C28.3373 27.803 28.104 27.4063 27.936 26.935C27.768 26.4637 27.684 25.9223 27.684 25.311C27.684 24.8163 27.7587 24.3543 27.908 23.925C28.062 23.4957 28.2813 23.1247 28.566 22.812C28.8507 22.4947 29.1983 22.2473 29.609 22.07C30.0197 21.888 30.4817 21.797 30.995 21.797ZM31.023 22.714C30.421 22.714 29.9473 22.889 29.602 23.239C29.2567 23.5843 29.042 24.065 28.958 24.681H32.815C32.815 24.3917 32.7753 24.128 32.696 23.89C32.6167 23.6473 32.5 23.4397 32.346 23.267C32.192 23.0897 32.003 22.9543 31.779 22.861C31.5597 22.763 31.3077 22.714 31.023 22.714Z" fill="#3F3F3F"/>
<path d="M9.198 77.662C9.198 78.298 9.092 78.888 8.88 79.432C8.668 79.972 8.37 80.44 7.986 80.836C7.602 81.232 7.14 81.542 6.6 81.766C6.06 81.986 5.462 82.096 4.806 82.096C4.15 82.096 3.55 81.986 3.006 81.766C2.466 81.542 2.002 81.232 1.614 80.836C1.23 80.44 0.932 79.972 0.72 79.432C0.508 78.888 0.402 78.298 0.402 77.662C0.402 77.026 0.508 76.438 0.72 75.898C0.932 75.354 1.23 74.884 1.614 74.488C2.002 74.092 2.466 73.784 3.006 73.564C3.55 73.34 4.15 73.228 4.806 73.228C5.462 73.228 6.06 73.34 6.6 73.564C7.14 73.788 7.602 74.098 7.986 74.494C8.37 74.886 8.668 75.354 8.88 75.898C9.092 76.438 9.198 77.026 9.198 77.662ZM7.542 77.662C7.542 77.186 7.478 76.76 7.35 76.384C7.226 76.004 7.046 75.682 6.81 75.418C6.574 75.154 6.286 74.952 5.946 74.812C5.61 74.672 5.23 74.602 4.806 74.602C4.382 74.602 4 74.672 3.66 74.812C3.32 74.952 3.03 75.154 2.79 75.418C2.554 75.682 2.372 76.004 2.244 76.384C2.116 76.76 2.052 77.186 2.052 77.662C2.052 78.138 2.116 78.566 2.244 78.946C2.372 79.322 2.554 79.642 2.79 79.906C3.03 80.166 3.32 80.366 3.66 80.506C4 80.646 4.382 80.716 4.806 80.716C5.23 80.716 5.61 80.646 5.946 80.506C6.286 80.366 6.574 80.166 6.81 79.906C7.046 79.642 7.226 79.322 7.35 78.946C7.478 78.566 7.542 78.138 7.542 77.662ZM9.28181 73.324H10.5838C10.7238 73.324 10.8378 73.358 10.9258 73.426C11.0138 73.494 11.0798 73.582 11.1238 73.69L13.1638 78.982C13.2318 79.154 13.2958 79.344 13.3558 79.552C13.4198 79.756 13.4798 79.972 13.5358 80.2C13.6278 79.74 13.7418 79.334 13.8778 78.982L15.9118 73.69C15.9478 73.598 16.0118 73.514 16.1038 73.438C16.1958 73.362 16.3098 73.324 16.4458 73.324H17.7478L14.2438 82H12.7858L9.28181 73.324ZM24.1253 73.324V74.608H20.2793V77.014H23.3093V78.256H20.2793V80.71H24.1253V82H18.6533V73.324H24.1253ZM27.1885 78.61V82H25.5745V73.324H28.2205C28.8125 73.324 29.3185 73.386 29.7385 73.51C30.1625 73.63 30.5085 73.8 30.7765 74.02C31.0485 74.24 31.2465 74.504 31.3705 74.812C31.4985 75.116 31.5625 75.452 31.5625 75.82C31.5625 76.112 31.5185 76.388 31.4305 76.648C31.3465 76.908 31.2225 77.144 31.0585 77.356C30.8985 77.568 30.6985 77.754 30.4585 77.914C30.2225 78.074 29.9525 78.202 29.6485 78.298C29.8525 78.414 30.0285 78.58 30.1765 78.796L32.3485 82H30.8965C30.7565 82 30.6365 81.972 30.5365 81.916C30.4405 81.86 30.3585 81.78 30.2905 81.676L28.4665 78.898C28.3985 78.794 28.3225 78.72 28.2385 78.676C28.1585 78.632 28.0385 78.61 27.8785 78.61H27.1885ZM27.1885 77.452H28.1965C28.5005 77.452 28.7645 77.414 28.9885 77.338C29.2165 77.262 29.4025 77.158 29.5465 77.026C29.6945 76.89 29.8045 76.73 29.8765 76.546C29.9485 76.362 29.9845 76.16 29.9845 75.94C29.9845 75.5 29.8385 75.162 29.5465 74.926C29.2585 74.69 28.8165 74.572 28.2205 74.572H27.1885V77.452ZM34.9978 80.668H38.4718V82H33.3838V73.324H34.9978V80.668ZM41.401 82H39.781V73.324H41.401V82ZM44.2025 73.324C44.2745 73.324 44.3345 73.328 44.3825 73.336C44.4305 73.34 44.4725 73.352 44.5085 73.372C44.5485 73.388 44.5865 73.414 44.6225 73.45C44.6585 73.482 44.6985 73.526 44.7425 73.582L49.2965 79.384C49.2805 79.244 49.2685 79.108 49.2605 78.976C49.2565 78.84 49.2545 78.714 49.2545 78.598V73.324H50.6765V82H49.8425C49.7145 82 49.6085 81.98 49.5245 81.94C49.4405 81.9 49.3585 81.828 49.2785 81.724L44.7425 75.946C44.7545 76.074 44.7625 76.202 44.7665 76.33C44.7745 76.454 44.7785 76.568 44.7785 76.672V82H43.3565V73.324H44.2025ZM57.8988 73.324V74.608H54.0528V77.014H57.0828V78.256H54.0528V80.71H57.8988V82H52.4268V73.324H57.8988Z" fill="#9B9B9B"/>
<path d="M1.218 99V88.969H4.417C5.033 88.969 5.56267 89.0297 6.006 89.151C6.454 89.2723 6.82033 89.445 7.105 89.669C7.39433 89.893 7.60667 90.1683 7.742 90.495C7.882 90.817 7.952 91.181 7.952 91.587C7.952 91.8343 7.91233 92.0723 7.833 92.301C7.75833 92.5297 7.64167 92.742 7.483 92.938C7.329 93.134 7.133 93.309 6.895 93.463C6.66167 93.617 6.38633 93.743 6.069 93.841C6.80167 93.9857 7.35467 94.2493 7.728 94.632C8.10133 95.0147 8.288 95.5187 8.288 96.144C8.288 96.5687 8.20867 96.956 8.05 97.306C7.896 97.656 7.66733 97.957 7.364 98.209C7.06533 98.461 6.69667 98.657 6.258 98.797C5.824 98.9323 5.327 99 4.767 99H1.218ZM2.576 94.429V97.922H4.746C5.13333 97.922 5.46467 97.8777 5.74 97.789C6.02 97.7003 6.24867 97.5767 6.426 97.418C6.608 97.2547 6.741 97.0633 6.825 96.844C6.909 96.62 6.951 96.375 6.951 96.109C6.951 95.591 6.76667 95.1827 6.398 94.884C6.034 94.5807 5.481 94.429 4.739 94.429H2.576ZM2.576 93.463H4.368C4.75067 93.463 5.082 93.421 5.362 93.337C5.642 93.253 5.873 93.1363 6.055 92.987C6.24167 92.8377 6.37933 92.658 6.468 92.448C6.55667 92.2333 6.601 92 6.601 91.748C6.601 91.16 6.42367 90.7283 6.069 90.453C5.71433 90.1777 5.16367 90.04 4.417 90.04H2.576V93.463ZM12.9565 91.797C13.4745 91.797 13.9411 91.8833 14.3565 92.056C14.7765 92.2287 15.1311 92.4737 15.4205 92.791C15.7145 93.1083 15.9385 93.4933 16.0925 93.946C16.2511 94.394 16.3305 94.8957 16.3305 95.451C16.3305 96.011 16.2511 96.515 16.0925 96.963C15.9385 97.411 15.7145 97.7937 15.4205 98.111C15.1311 98.4283 14.7765 98.6733 14.3565 98.846C13.9411 99.014 13.4745 99.098 12.9565 99.098C12.4385 99.098 11.9695 99.014 11.5495 98.846C11.1341 98.6733 10.7795 98.4283 10.4855 98.111C10.1915 97.7937 9.96512 97.411 9.80645 96.963C9.64779 96.515 9.56845 96.011 9.56845 95.451C9.56845 94.8957 9.64779 94.394 9.80645 93.946C9.96512 93.4933 10.1915 93.1083 10.4855 92.791C10.7795 92.4737 11.1341 92.2287 11.5495 92.056C11.9695 91.8833 12.4385 91.797 12.9565 91.797ZM12.9565 98.125C13.6565 98.125 14.1791 97.8917 14.5245 97.425C14.8698 96.9537 15.0425 96.298 15.0425 95.458C15.0425 94.6133 14.8698 93.9553 14.5245 93.484C14.1791 93.0127 13.6565 92.777 12.9565 92.777C12.6018 92.777 12.2938 92.8377 12.0325 92.959C11.7711 93.0803 11.5518 93.2553 11.3745 93.484C11.2018 93.7127 11.0711 93.995 10.9825 94.331C10.8985 94.6623 10.8565 95.038 10.8565 95.458C10.8565 95.878 10.8985 96.2537 10.9825 96.585C11.0711 96.9163 11.2018 97.1963 11.3745 97.425C11.5518 97.649 11.7711 97.8217 12.0325 97.943C12.2938 98.0643 12.6018 98.125 12.9565 98.125ZM22.8568 99C22.6794 99 22.5674 98.9137 22.5208 98.741L22.4088 97.88C22.1054 98.2487 21.7578 98.545 21.3658 98.769C20.9784 98.9883 20.5328 99.098 20.0288 99.098C19.6228 99.098 19.2541 99.021 18.9228 98.867C18.5914 98.7083 18.3091 98.4773 18.0758 98.174C17.8424 97.8707 17.6628 97.4927 17.5368 97.04C17.4108 96.5873 17.3478 96.067 17.3478 95.479C17.3478 94.9563 17.4178 94.471 17.5578 94.023C17.6978 93.5703 17.8984 93.1783 18.1598 92.847C18.4258 92.5157 18.7478 92.2567 19.1258 92.07C19.5038 91.8787 19.9331 91.783 20.4138 91.783C20.8478 91.783 21.2188 91.8577 21.5268 92.007C21.8348 92.1517 22.1101 92.357 22.3528 92.623V88.689H23.5988V99H22.8568ZM20.4417 98.09C20.8478 98.09 21.2024 97.9967 21.5058 97.81C21.8138 97.6233 22.0961 97.3597 22.3528 97.019V93.589C22.1241 93.281 21.8721 93.0663 21.5968 92.945C21.3261 92.819 21.0251 92.756 20.6938 92.756C20.0311 92.756 19.5224 92.9917 19.1678 93.463C18.8131 93.9343 18.6358 94.6063 18.6358 95.479C18.6358 95.941 18.6754 96.3377 18.7548 96.669C18.8341 96.9957 18.9508 97.2663 19.1048 97.481C19.2588 97.691 19.4478 97.845 19.6718 97.943C19.8958 98.041 20.1524 98.09 20.4417 98.09ZM27.7651 101.093C27.7231 101.186 27.6694 101.261 27.6041 101.317C27.5434 101.373 27.4477 101.401 27.3171 101.401H26.3931L27.6881 98.587L24.7621 91.909H25.8401C25.9474 91.909 26.0314 91.937 26.0921 91.993C26.1527 92.0443 26.1971 92.1027 26.2251 92.168L28.1221 96.634C28.1641 96.7367 28.1991 96.8393 28.2271 96.942C28.2597 97.0447 28.2877 97.1497 28.3111 97.257C28.3437 97.1497 28.3764 97.0447 28.4091 96.942C28.4417 96.8393 28.4791 96.7343 28.5211 96.627L30.3621 92.168C30.3901 92.0933 30.4367 92.0327 30.5021 91.986C30.5721 91.9347 30.6467 91.909 30.7261 91.909H31.7201L27.7651 101.093ZM38.7422 88.857C39.1668 88.857 39.5635 88.92 39.9322 89.046C40.3008 89.172 40.6182 89.3563 40.8842 89.599C41.1548 89.837 41.3672 90.1287 41.5212 90.474C41.6752 90.8193 41.7522 91.2113 41.7522 91.65C41.7522 92.0233 41.6962 92.3687 41.5842 92.686C41.4722 93.0033 41.3205 93.309 41.1292 93.603C40.9378 93.8923 40.7162 94.1747 40.4642 94.45C40.2168 94.7207 39.9532 94.9983 39.6732 95.283L37.0342 97.985C37.2208 97.9337 37.4098 97.894 37.6012 97.866C37.7925 97.8333 37.9768 97.817 38.1542 97.817H41.5142C41.6495 97.817 41.7568 97.8567 41.8362 97.936C41.9155 98.0153 41.9552 98.118 41.9552 98.244V99H35.2632V98.573C35.2632 98.4843 35.2795 98.3933 35.3122 98.3C35.3495 98.2067 35.4078 98.1203 35.4872 98.041L38.7002 94.814C38.9662 94.5433 39.2088 94.2843 39.4282 94.037C39.6475 93.785 39.8342 93.533 39.9882 93.281C40.1468 93.029 40.2682 92.7747 40.3522 92.518C40.4362 92.2567 40.4782 91.979 40.4782 91.685C40.4782 91.391 40.4315 91.1343 40.3382 90.915C40.2448 90.691 40.1165 90.5067 39.9532 90.362C39.7898 90.2173 39.5985 90.11 39.3792 90.04C39.1598 89.9653 38.9242 89.928 38.6722 89.928C38.4202 89.928 38.1868 89.9653 37.9722 90.04C37.7575 90.1147 37.5662 90.2197 37.3982 90.355C37.2348 90.4857 37.0948 90.642 36.9782 90.824C36.8662 91.006 36.7868 91.2067 36.7402 91.426C36.7028 91.5613 36.6468 91.6593 36.5722 91.72C36.4975 91.7807 36.3995 91.811 36.2782 91.811C36.2548 91.811 36.2292 91.811 36.2012 91.811C36.1778 91.8063 36.1498 91.8017 36.1172 91.797L35.4662 91.685C35.5315 91.2277 35.6575 90.824 35.8442 90.474C36.0308 90.1193 36.2665 89.823 36.5512 89.585C36.8405 89.347 37.1695 89.1673 37.5382 89.046C37.9115 88.92 38.3128 88.857 38.7422 88.857Z" fill="#3F3F3F"/>
<path d="M117.99 3.324V4.65H115.38V12H113.766V4.65H111.144V3.324H117.99ZM120.831 12H119.211V3.324H120.831V12ZM128.9 3.324V4.65H126.29V12H124.676V4.65H122.054V3.324H128.9ZM131.537 10.668H135.011V12H129.923V3.324H131.537V10.668ZM141.594 3.324V4.608H137.748V7.014H140.778V8.256H137.748V10.71H141.594V12H136.122V3.324H141.594Z" fill="#9B9B9B"/>
<path d="M111.064 19.536H112.304C112.443 19.536 112.555 19.5707 112.64 19.64C112.725 19.7093 112.789 19.7973 112.832 19.904L116.072 27.992C116.147 28.1733 116.213 28.3707 116.272 28.584C116.336 28.7973 116.397 29.0187 116.456 29.248C116.504 29.0187 116.555 28.7973 116.608 28.584C116.667 28.3707 116.733 28.1733 116.808 27.992L120.032 19.904C120.069 19.8133 120.133 19.7307 120.224 19.656C120.315 19.576 120.427 19.536 120.56 19.536H121.808L117.136 31H115.736L111.064 19.536ZM128.073 31H127.441C127.302 31 127.19 30.9787 127.105 30.936C127.02 30.8933 126.964 30.8027 126.937 30.664L126.777 29.912C126.564 30.104 126.356 30.2773 126.153 30.432C125.95 30.5813 125.737 30.7093 125.513 30.816C125.289 30.9173 125.049 30.9947 124.793 31.048C124.542 31.1013 124.262 31.128 123.953 31.128C123.638 31.128 123.342 31.0853 123.065 31C122.793 30.9093 122.556 30.776 122.353 30.6C122.15 30.424 121.988 30.2027 121.865 29.936C121.748 29.664 121.689 29.344 121.689 28.976C121.689 28.656 121.777 28.3493 121.953 28.056C122.129 27.7573 122.412 27.4933 122.801 27.264C123.196 27.0347 123.71 26.848 124.345 26.704C124.98 26.5547 125.756 26.4693 126.673 26.448V25.816C126.673 25.1867 126.537 24.712 126.265 24.392C125.998 24.0667 125.601 23.904 125.073 23.904C124.726 23.904 124.433 23.9493 124.193 24.04C123.958 24.1253 123.753 24.224 123.577 24.336C123.406 24.4427 123.257 24.5413 123.129 24.632C123.006 24.7173 122.884 24.76 122.761 24.76C122.665 24.76 122.58 24.736 122.505 24.688C122.436 24.6347 122.38 24.5707 122.337 24.496L122.081 24.04C122.529 23.608 123.012 23.2853 123.529 23.072C124.046 22.8587 124.62 22.752 125.249 22.752C125.702 22.752 126.105 22.8267 126.457 22.976C126.809 23.1253 127.105 23.3333 127.345 23.6C127.585 23.8667 127.766 24.1893 127.889 24.568C128.012 24.9467 128.073 25.3627 128.073 25.816V31ZM124.377 30.128C124.628 30.128 124.857 30.104 125.065 30.056C125.273 30.0027 125.468 29.9307 125.649 29.84C125.836 29.744 126.012 29.6293 126.177 29.496C126.348 29.3627 126.513 29.2107 126.673 29.04V27.352C126.017 27.3733 125.46 27.4267 125.001 27.512C124.542 27.592 124.169 27.6987 123.881 27.832C123.593 27.9653 123.382 28.1227 123.249 28.304C123.121 28.4853 123.057 28.688 123.057 28.912C123.057 29.1253 123.092 29.3093 123.161 29.464C123.23 29.6187 123.324 29.7467 123.441 29.848C123.558 29.944 123.697 30.016 123.857 30.064C124.017 30.1067 124.19 30.128 124.377 30.128ZM131.815 19.216V31H130.391V19.216H131.815ZM135.556 22.896V28.064C135.556 28.6773 135.698 29.152 135.98 29.488C136.263 29.824 136.69 29.992 137.26 29.992C137.676 29.992 138.068 29.8933 138.436 29.696C138.804 29.4987 139.143 29.224 139.452 28.872V22.896H140.876V31H140.028C139.826 31 139.698 30.9013 139.644 30.704L139.532 29.832C139.18 30.2213 138.786 30.536 138.348 30.776C137.911 31.0107 137.41 31.128 136.844 31.128C136.402 31.128 136.01 31.056 135.668 30.912C135.332 30.7627 135.05 30.5547 134.82 30.288C134.591 30.0213 134.418 29.6987 134.3 29.32C134.188 28.9413 134.132 28.5227 134.132 28.064V22.896H135.556ZM146.423 22.768C146.908 22.768 147.356 22.8507 147.767 23.016C148.178 23.176 148.532 23.4107 148.831 23.72C149.13 24.024 149.362 24.4027 149.527 24.856C149.698 25.304 149.783 25.816 149.783 26.392C149.783 26.616 149.759 26.7653 149.711 26.84C149.663 26.9147 149.572 26.952 149.439 26.952H144.047C144.058 27.464 144.127 27.9093 144.255 28.288C144.383 28.6667 144.559 28.984 144.783 29.24C145.007 29.4907 145.274 29.68 145.583 29.808C145.892 29.9307 146.239 29.992 146.623 29.992C146.98 29.992 147.287 29.952 147.543 29.872C147.804 29.7867 148.028 29.696 148.215 29.6C148.402 29.504 148.556 29.416 148.679 29.336C148.807 29.2507 148.916 29.208 149.007 29.208C149.124 29.208 149.215 29.2533 149.279 29.344L149.679 29.864C149.503 30.0773 149.292 30.264 149.047 30.424C148.802 30.5787 148.538 30.7067 148.255 30.808C147.978 30.9093 147.69 30.984 147.391 31.032C147.092 31.0853 146.796 31.112 146.503 31.112C145.943 31.112 145.426 31.0187 144.951 30.832C144.482 30.64 144.074 30.3627 143.727 30C143.386 29.632 143.119 29.1787 142.927 28.64C142.735 28.1013 142.639 27.4827 142.639 26.784C142.639 26.2187 142.724 25.6907 142.895 25.2C143.071 24.7093 143.322 24.2853 143.647 23.928C143.972 23.5653 144.37 23.2827 144.839 23.08C145.308 22.872 145.836 22.768 146.423 22.768ZM146.455 23.816C145.767 23.816 145.226 24.016 144.831 24.416C144.436 24.8107 144.191 25.36 144.095 26.064H148.503C148.503 25.7333 148.458 25.432 148.367 25.16C148.276 24.8827 148.143 24.6453 147.967 24.448C147.791 24.2453 147.575 24.0907 147.319 23.984C147.068 23.872 146.78 23.816 146.455 23.816Z" fill="#3F3F3F"/>
<path d="M120.198 77.662C120.198 78.298 120.092 78.888 119.88 79.432C119.668 79.972 119.37 80.44 118.986 80.836C118.602 81.232 118.14 81.542 117.6 81.766C117.06 81.986 116.462 82.096 115.806 82.096C115.15 82.096 114.55 81.986 114.006 81.766C113.466 81.542 113.002 81.232 112.614 80.836C112.23 80.44 111.932 79.972 111.72 79.432C111.508 78.888 111.402 78.298 111.402 77.662C111.402 77.026 111.508 76.438 111.72 75.898C111.932 75.354 112.23 74.884 112.614 74.488C113.002 74.092 113.466 73.784 114.006 73.564C114.55 73.34 115.15 73.228 115.806 73.228C116.462 73.228 117.06 73.34 117.6 73.564C118.14 73.788 118.602 74.098 118.986 74.494C119.37 74.886 119.668 75.354 119.88 75.898C120.092 76.438 120.198 77.026 120.198 77.662ZM118.542 77.662C118.542 77.186 118.478 76.76 118.35 76.384C118.226 76.004 118.046 75.682 117.81 75.418C117.574 75.154 117.286 74.952 116.946 74.812C116.61 74.672 116.23 74.602 115.806 74.602C115.382 74.602 115 74.672 114.66 74.812C114.32 74.952 114.03 75.154 113.79 75.418C113.554 75.682 113.372 76.004 113.244 76.384C113.116 76.76 113.052 77.186 113.052 77.662C113.052 78.138 113.116 78.566 113.244 78.946C113.372 79.322 113.554 79.642 113.79 79.906C114.03 80.166 114.32 80.366 114.66 80.506C115 80.646 115.382 80.716 115.806 80.716C116.23 80.716 116.61 80.646 116.946 80.506C117.286 80.366 117.574 80.166 117.81 79.906C118.046 79.642 118.226 79.322 118.35 78.946C118.478 78.566 118.542 78.138 118.542 77.662ZM120.282 73.324H121.584C121.724 73.324 121.838 73.358 121.926 73.426C122.014 73.494 122.08 73.582 122.124 73.69L124.164 78.982C124.232 79.154 124.296 79.344 124.356 79.552C124.42 79.756 124.48 79.972 124.536 80.2C124.628 79.74 124.742 79.334 124.878 78.982L126.912 73.69C126.948 73.598 127.012 73.514 127.104 73.438C127.196 73.362 127.31 73.324 127.446 73.324H128.748L125.244 82H123.786L120.282 73.324ZM135.125 73.324V74.608H131.279V77.014H134.309V78.256H131.279V80.71H135.125V82H129.653V73.324H135.125ZM138.189 78.61V82H136.575V73.324H139.221C139.813 73.324 140.319 73.386 140.739 73.51C141.163 73.63 141.509 73.8 141.777 74.02C142.049 74.24 142.247 74.504 142.371 74.812C142.499 75.116 142.563 75.452 142.563 75.82C142.563 76.112 142.519 76.388 142.431 76.648C142.347 76.908 142.223 77.144 142.059 77.356C141.899 77.568 141.699 77.754 141.459 77.914C141.223 78.074 140.953 78.202 140.649 78.298C140.853 78.414 141.029 78.58 141.177 78.796L143.349 82H141.897C141.757 82 141.637 81.972 141.537 81.916C141.441 81.86 141.359 81.78 141.291 81.676L139.467 78.898C139.399 78.794 139.323 78.72 139.239 78.676C139.159 78.632 139.039 78.61 138.879 78.61H138.189ZM138.189 77.452H139.197C139.501 77.452 139.765 77.414 139.989 77.338C140.217 77.262 140.403 77.158 140.547 77.026C140.695 76.89 140.805 76.73 140.877 76.546C140.949 76.362 140.985 76.16 140.985 75.94C140.985 75.5 140.839 75.162 140.547 74.926C140.259 74.69 139.817 74.572 139.221 74.572H138.189V77.452ZM145.998 80.668H149.472V82H144.384V73.324H145.998V80.668ZM152.401 82H150.781V73.324H152.401V82ZM155.202 73.324C155.274 73.324 155.334 73.328 155.382 73.336C155.43 73.34 155.472 73.352 155.508 73.372C155.548 73.388 155.586 73.414 155.622 73.45C155.658 73.482 155.698 73.526 155.742 73.582L160.296 79.384C160.28 79.244 160.268 79.108 160.26 78.976C160.256 78.84 160.254 78.714 160.254 78.598V73.324H161.676V82H160.842C160.714 82 160.608 81.98 160.524 81.94C160.44 81.9 160.358 81.828 160.278 81.724L155.742 75.946C155.754 76.074 155.762 76.202 155.766 76.33C155.774 76.454 155.778 76.568 155.778 76.672V82H154.356V73.324H155.202ZM168.899 73.324V74.608H165.053V77.014H168.083V78.256H165.053V80.71H168.899V82H163.427V73.324H168.899Z" fill="#9B9B9B"/>
<path d="M112.392 101V89.536H116.048C116.752 89.536 117.357 89.6053 117.864 89.744C118.376 89.8827 118.795 90.08 119.12 90.336C119.451 90.592 119.693 90.9067 119.848 91.28C120.008 91.648 120.088 92.064 120.088 92.528C120.088 92.8107 120.043 93.0827 119.952 93.344C119.867 93.6053 119.733 93.848 119.552 94.072C119.376 94.296 119.152 94.496 118.88 94.672C118.613 94.848 118.299 94.992 117.936 95.104C118.773 95.2693 119.405 95.5707 119.832 96.008C120.259 96.4453 120.472 97.0213 120.472 97.736C120.472 98.2213 120.381 98.664 120.2 99.064C120.024 99.464 119.763 99.808 119.416 100.096C119.075 100.384 118.653 100.608 118.152 100.768C117.656 100.923 117.088 101 116.448 101H112.392ZM113.944 95.776V99.768H116.424C116.867 99.768 117.245 99.7173 117.56 99.616C117.88 99.5147 118.141 99.3733 118.344 99.192C118.552 99.0053 118.704 98.7867 118.8 98.536C118.896 98.28 118.944 98 118.944 97.696C118.944 97.104 118.733 96.6373 118.312 96.296C117.896 95.9493 117.264 95.776 116.416 95.776H113.944ZM113.944 94.672H115.992C116.429 94.672 116.808 94.624 117.128 94.528C117.448 94.432 117.712 94.2987 117.92 94.128C118.133 93.9573 118.291 93.752 118.392 93.512C118.493 93.2667 118.544 93 118.544 92.712C118.544 92.04 118.341 91.5467 117.936 91.232C117.531 90.9173 116.901 90.76 116.048 90.76H113.944V94.672ZM125.807 92.768C126.399 92.768 126.933 92.8667 127.407 93.064C127.887 93.2613 128.293 93.5413 128.623 93.904C128.959 94.2667 129.215 94.7067 129.391 95.224C129.573 95.736 129.663 96.3093 129.663 96.944C129.663 97.584 129.573 98.16 129.391 98.672C129.215 99.184 128.959 99.6213 128.623 99.984C128.293 100.347 127.887 100.627 127.407 100.824C126.933 101.016 126.399 101.112 125.807 101.112C125.215 101.112 124.679 101.016 124.199 100.824C123.725 100.627 123.319 100.347 122.983 99.984C122.647 99.6213 122.389 99.184 122.207 98.672C122.026 98.16 121.935 97.584 121.935 96.944C121.935 96.3093 122.026 95.736 122.207 95.224C122.389 94.7067 122.647 94.2667 122.983 93.904C123.319 93.5413 123.725 93.2613 124.199 93.064C124.679 92.8667 125.215 92.768 125.807 92.768ZM125.807 100C126.607 100 127.205 99.7333 127.599 99.2C127.994 98.6613 128.191 97.912 128.191 96.952C128.191 95.9867 127.994 95.2347 127.599 94.696C127.205 94.1573 126.607 93.888 125.807 93.888C125.402 93.888 125.05 93.9573 124.751 94.096C124.453 94.2347 124.202 94.4347 123.999 94.696C123.802 94.9573 123.653 95.28 123.551 95.664C123.455 96.0427 123.407 96.472 123.407 96.952C123.407 97.432 123.455 97.8613 123.551 98.24C123.653 98.6187 123.802 98.9387 123.999 99.2C124.202 99.456 124.453 99.6533 124.751 99.792C125.05 99.9307 125.402 100 125.807 100ZM137.122 101C136.919 101 136.791 100.901 136.738 100.704L136.61 99.72C136.263 100.141 135.866 100.48 135.418 100.736C134.975 100.987 134.466 101.112 133.89 101.112C133.426 101.112 133.005 101.024 132.626 100.848C132.247 100.667 131.925 100.403 131.658 100.056C131.391 99.7093 131.186 99.2773 131.042 98.76C130.898 98.2427 130.826 97.648 130.826 96.976C130.826 96.3787 130.906 95.824 131.066 95.312C131.226 94.7947 131.455 94.3467 131.754 93.968C132.058 93.5893 132.426 93.2933 132.858 93.08C133.29 92.8613 133.781 92.752 134.33 92.752C134.826 92.752 135.25 92.8373 135.602 93.008C135.954 93.1733 136.269 93.408 136.546 93.712V89.216H137.97V101H137.122ZM134.362 99.96C134.826 99.96 135.231 99.8533 135.578 99.64C135.93 99.4267 136.253 99.1253 136.546 98.736V94.816C136.285 94.464 135.997 94.2187 135.682 94.08C135.373 93.936 135.029 93.864 134.65 93.864C133.893 93.864 133.311 94.1333 132.906 94.672C132.501 95.2107 132.298 95.9787 132.298 96.976C132.298 97.504 132.343 97.9573 132.434 98.336C132.525 98.7093 132.658 99.0187 132.834 99.264C133.01 99.504 133.226 99.68 133.482 99.792C133.738 99.904 134.031 99.96 134.362 99.96ZM142.732 103.392C142.684 103.499 142.622 103.584 142.548 103.648C142.478 103.712 142.369 103.744 142.22 103.744H141.164L142.644 100.528L139.3 92.896H140.532C140.654 92.896 140.75 92.928 140.82 92.992C140.889 93.0507 140.94 93.1173 140.972 93.192L143.14 98.296C143.188 98.4133 143.228 98.5307 143.26 98.648C143.297 98.7653 143.329 98.8853 143.356 99.008C143.393 98.8853 143.43 98.7653 143.468 98.648C143.505 98.5307 143.548 98.4107 143.595 98.288L145.7 93.192C145.732 93.1067 145.785 93.0373 145.86 92.984C145.94 92.9253 146.025 92.896 146.116 92.896H147.252L142.732 103.392ZM152.765 99.912H155.229V92.096C155.229 91.8613 155.237 91.624 155.253 91.384L153.205 93.136C153.151 93.1787 153.098 93.2107 153.045 93.232C152.991 93.248 152.941 93.256 152.893 93.256C152.813 93.256 152.741 93.24 152.677 93.208C152.613 93.1707 152.565 93.128 152.533 93.08L152.085 92.464L155.493 89.512H156.653V99.912H158.909V101H152.765V99.912Z" fill="#3F3F3F"/>
<path d="M229.99 3.324V4.65H227.38V12H225.766V4.65H223.144V3.324H229.99ZM232.831 12H231.211V3.324H232.831V12ZM240.9 3.324V4.65H238.29V12H236.676V4.65H234.054V3.324H240.9ZM243.537 10.668H247.011V12H241.923V3.324H243.537V10.668ZM253.594 3.324V4.608H249.748V7.014H252.778V8.256H249.748V10.71H253.594V12H248.122V3.324H253.594Z" fill="#9B9B9B"/>
<path d="M223.08 20.67H224.63C224.803 20.67 224.943 20.7133 225.05 20.8C225.157 20.8867 225.237 20.9967 225.29 21.13L229.34 31.24C229.433 31.4667 229.517 31.7133 229.59 31.98C229.67 32.2467 229.747 32.5233 229.82 32.81C229.88 32.5233 229.943 32.2467 230.01 31.98C230.083 31.7133 230.167 31.4667 230.26 31.24L234.29 21.13C234.337 21.0167 234.417 20.9133 234.53 20.82C234.643 20.72 234.783 20.67 234.95 20.67H236.51L230.67 35H228.92L223.08 20.67ZM244.341 35H243.551C243.378 35 243.238 34.9733 243.131 34.92C243.025 34.8667 242.955 34.7533 242.921 34.58L242.721 33.64C242.455 33.88 242.195 34.0967 241.941 34.29C241.688 34.4767 241.421 34.6367 241.141 34.77C240.861 34.8967 240.561 34.9933 240.241 35.06C239.928 35.1267 239.578 35.16 239.191 35.16C238.798 35.16 238.428 35.1067 238.081 35C237.741 34.8867 237.445 34.72 237.191 34.5C236.938 34.28 236.735 34.0033 236.581 33.67C236.435 33.33 236.361 32.93 236.361 32.47C236.361 32.07 236.471 31.6867 236.691 31.32C236.911 30.9467 237.265 30.6167 237.751 30.33C238.245 30.0433 238.888 29.81 239.681 29.63C240.475 29.4433 241.445 29.3367 242.591 29.31V28.52C242.591 27.7333 242.421 27.14 242.081 26.74C241.748 26.3333 241.251 26.13 240.591 26.13C240.158 26.13 239.791 26.1867 239.491 26.3C239.198 26.4067 238.941 26.53 238.721 26.67C238.508 26.8033 238.321 26.9267 238.161 27.04C238.008 27.1467 237.855 27.2 237.701 27.2C237.581 27.2 237.475 27.17 237.381 27.11C237.295 27.0433 237.225 26.9633 237.171 26.87L236.851 26.3C237.411 25.76 238.015 25.3567 238.661 25.09C239.308 24.8233 240.025 24.69 240.811 24.69C241.378 24.69 241.881 24.7833 242.321 24.97C242.761 25.1567 243.131 25.4167 243.431 25.75C243.731 26.0833 243.958 26.4867 244.111 26.96C244.265 27.4333 244.341 27.9533 244.341 28.52V35ZM239.721 33.91C240.035 33.91 240.321 33.88 240.581 33.82C240.841 33.7533 241.085 33.6633 241.311 33.55C241.545 33.43 241.765 33.2867 241.971 33.12C242.185 32.9533 242.391 32.7633 242.591 32.55V30.44C241.771 30.4667 241.075 30.5333 240.501 30.64C239.928 30.74 239.461 30.8733 239.101 31.04C238.741 31.2067 238.478 31.4033 238.311 31.63C238.151 31.8567 238.071 32.11 238.071 32.39C238.071 32.6567 238.115 32.8867 238.201 33.08C238.288 33.2733 238.405 33.4333 238.551 33.56C238.698 33.68 238.871 33.77 239.071 33.83C239.271 33.8833 239.488 33.91 239.721 33.91ZM249.018 20.27V35H247.238V20.27H249.018ZM253.695 24.87V31.33C253.695 32.0967 253.872 32.69 254.225 33.11C254.579 33.53 255.112 33.74 255.825 33.74C256.345 33.74 256.835 33.6167 257.295 33.37C257.755 33.1233 258.179 32.78 258.565 32.34V24.87H260.345V35H259.285C259.032 35 258.872 34.8767 258.805 34.63L258.665 33.54C258.225 34.0267 257.732 34.42 257.185 34.72C256.639 35.0133 256.012 35.16 255.305 35.16C254.752 35.16 254.262 35.07 253.835 34.89C253.415 34.7033 253.062 34.4433 252.775 34.11C252.489 33.7767 252.272 33.3733 252.125 32.9C251.985 32.4267 251.915 31.9033 251.915 31.33V24.87H253.695ZM267.279 24.71C267.885 24.71 268.445 24.8133 268.959 25.02C269.472 25.22 269.915 25.5133 270.289 25.9C270.662 26.28 270.952 26.7533 271.159 27.32C271.372 27.88 271.479 28.52 271.479 29.24C271.479 29.52 271.449 29.7067 271.389 29.8C271.329 29.8933 271.215 29.94 271.049 29.94H264.309C264.322 30.58 264.409 31.1367 264.569 31.61C264.729 32.0833 264.949 32.48 265.229 32.8C265.509 33.1133 265.842 33.35 266.229 33.51C266.615 33.6633 267.049 33.74 267.529 33.74C267.975 33.74 268.359 33.69 268.679 33.59C269.005 33.4833 269.285 33.37 269.519 33.25C269.752 33.13 269.945 33.02 270.099 32.92C270.259 32.8133 270.395 32.76 270.509 32.76C270.655 32.76 270.769 32.8167 270.849 32.93L271.349 33.58C271.129 33.8467 270.865 34.08 270.559 34.28C270.252 34.4733 269.922 34.6333 269.569 34.76C269.222 34.8867 268.862 34.98 268.489 35.04C268.115 35.1067 267.745 35.14 267.379 35.14C266.679 35.14 266.032 35.0233 265.439 34.79C264.852 34.55 264.342 34.2033 263.909 33.75C263.482 33.29 263.149 32.7233 262.909 32.05C262.669 31.3767 262.549 30.6033 262.549 29.73C262.549 29.0233 262.655 28.3633 262.869 27.75C263.089 27.1367 263.402 26.6067 263.809 26.16C264.215 25.7067 264.712 25.3533 265.299 25.1C265.885 24.84 266.545 24.71 267.279 24.71ZM267.319 26.02C266.459 26.02 265.782 26.27 265.289 26.77C264.795 27.2633 264.489 27.95 264.369 28.83H269.879C269.879 28.4167 269.822 28.04 269.709 27.7C269.595 27.3533 269.429 27.0567 269.209 26.81C268.989 26.5567 268.719 26.3633 268.399 26.23C268.085 26.09 267.725 26.02 267.319 26.02Z" fill="#3F3F3F"/>
<path d="M232.198 77.662C232.198 78.298 232.092 78.888 231.88 79.432C231.668 79.972 231.37 80.44 230.986 80.836C230.602 81.232 230.14 81.542 229.6 81.766C229.06 81.986 228.462 82.096 227.806 82.096C227.15 82.096 226.55 81.986 226.006 81.766C225.466 81.542 225.002 81.232 224.614 80.836C224.23 80.44 223.932 79.972 223.72 79.432C223.508 78.888 223.402 78.298 223.402 77.662C223.402 77.026 223.508 76.438 223.72 75.898C223.932 75.354 224.23 74.884 224.614 74.488C225.002 74.092 225.466 73.784 226.006 73.564C226.55 73.34 227.15 73.228 227.806 73.228C228.462 73.228 229.06 73.34 229.6 73.564C230.14 73.788 230.602 74.098 230.986 74.494C231.37 74.886 231.668 75.354 231.88 75.898C232.092 76.438 232.198 77.026 232.198 77.662ZM230.542 77.662C230.542 77.186 230.478 76.76 230.35 76.384C230.226 76.004 230.046 75.682 229.81 75.418C229.574 75.154 229.286 74.952 228.946 74.812C228.61 74.672 228.23 74.602 227.806 74.602C227.382 74.602 227 74.672 226.66 74.812C226.32 74.952 226.03 75.154 225.79 75.418C225.554 75.682 225.372 76.004 225.244 76.384C225.116 76.76 225.052 77.186 225.052 77.662C225.052 78.138 225.116 78.566 225.244 78.946C225.372 79.322 225.554 79.642 225.79 79.906C226.03 80.166 226.32 80.366 226.66 80.506C227 80.646 227.382 80.716 227.806 80.716C228.23 80.716 228.61 80.646 228.946 80.506C229.286 80.366 229.574 80.166 229.81 79.906C230.046 79.642 230.226 79.322 230.35 78.946C230.478 78.566 230.542 78.138 230.542 77.662ZM232.282 73.324H233.584C233.724 73.324 233.838 73.358 233.926 73.426C234.014 73.494 234.08 73.582 234.124 73.69L236.164 78.982C236.232 79.154 236.296 79.344 236.356 79.552C236.42 79.756 236.48 79.972 236.536 80.2C236.628 79.74 236.742 79.334 236.878 78.982L238.912 73.69C238.948 73.598 239.012 73.514 239.104 73.438C239.196 73.362 239.31 73.324 239.446 73.324H240.748L237.244 82H235.786L232.282 73.324ZM247.125 73.324V74.608H243.279V77.014H246.309V78.256H243.279V80.71H247.125V82H241.653V73.324H247.125ZM250.189 78.61V82H248.575V73.324H251.221C251.813 73.324 252.319 73.386 252.739 73.51C253.163 73.63 253.509 73.8 253.777 74.02C254.049 74.24 254.247 74.504 254.371 74.812C254.499 75.116 254.563 75.452 254.563 75.82C254.563 76.112 254.519 76.388 254.431 76.648C254.347 76.908 254.223 77.144 254.059 77.356C253.899 77.568 253.699 77.754 253.459 77.914C253.223 78.074 252.953 78.202 252.649 78.298C252.853 78.414 253.029 78.58 253.177 78.796L255.349 82H253.897C253.757 82 253.637 81.972 253.537 81.916C253.441 81.86 253.359 81.78 253.291 81.676L251.467 78.898C251.399 78.794 251.323 78.72 251.239 78.676C251.159 78.632 251.039 78.61 250.879 78.61H250.189ZM250.189 77.452H251.197C251.501 77.452 251.765 77.414 251.989 77.338C252.217 77.262 252.403 77.158 252.547 77.026C252.695 76.89 252.805 76.73 252.877 76.546C252.949 76.362 252.985 76.16 252.985 75.94C252.985 75.5 252.839 75.162 252.547 74.926C252.259 74.69 251.817 74.572 251.221 74.572H250.189V77.452ZM257.998 80.668H261.472V82H256.384V73.324H257.998V80.668ZM264.401 82H262.781V73.324H264.401V82ZM267.202 73.324C267.274 73.324 267.334 73.328 267.382 73.336C267.43 73.34 267.472 73.352 267.508 73.372C267.548 73.388 267.586 73.414 267.622 73.45C267.658 73.482 267.698 73.526 267.742 73.582L272.296 79.384C272.28 79.244 272.268 79.108 272.26 78.976C272.256 78.84 272.254 78.714 272.254 78.598V73.324H273.676V82H272.842C272.714 82 272.608 81.98 272.524 81.94C272.44 81.9 272.358 81.828 272.278 81.724L267.742 75.946C267.754 76.074 267.762 76.202 267.766 76.33C267.774 76.454 267.778 76.568 267.778 76.672V82H266.356V73.324H267.202ZM280.899 73.324V74.608H277.053V77.014H280.083V78.256H277.053V80.71H280.899V82H275.427V73.324H280.899Z" fill="#9B9B9B"/>
<path d="M232.08 92.91C232.02 93.01 231.957 93.0867 231.89 93.14C231.823 93.1867 231.737 93.21 231.63 93.21C231.517 93.21 231.383 93.1533 231.23 93.04C231.083 92.9267 230.893 92.8033 230.66 92.67C230.433 92.53 230.157 92.4033 229.83 92.29C229.51 92.1767 229.12 92.12 228.66 92.12C228.227 92.12 227.843 92.18 227.51 92.3C227.177 92.4133 226.897 92.57 226.67 92.77C226.45 92.97 226.283 93.2067 226.17 93.48C226.057 93.7467 226 94.0367 226 94.35C226 94.75 226.097 95.0833 226.29 95.35C226.49 95.61 226.75 95.8333 227.07 96.02C227.397 96.2067 227.763 96.37 228.17 96.51C228.583 96.6433 229.003 96.7833 229.43 96.93C229.863 97.0767 230.283 97.2433 230.69 97.43C231.103 97.61 231.47 97.84 231.79 98.12C232.117 98.4 232.377 98.7433 232.57 99.15C232.77 99.5567 232.87 100.057 232.87 100.65C232.87 101.277 232.763 101.867 232.55 102.42C232.337 102.967 232.023 103.443 231.61 103.85C231.203 104.257 230.7 104.577 230.1 104.81C229.507 105.043 228.83 105.16 228.07 105.16C227.143 105.16 226.297 104.993 225.53 104.66C224.77 104.32 224.12 103.863 223.58 103.29L224.14 102.37C224.193 102.297 224.257 102.237 224.33 102.19C224.41 102.137 224.497 102.11 224.59 102.11C224.73 102.11 224.89 102.187 225.07 102.34C225.25 102.487 225.473 102.65 225.74 102.83C226.013 103.01 226.34 103.177 226.72 103.33C227.107 103.477 227.577 103.55 228.13 103.55C228.59 103.55 229 103.487 229.36 103.36C229.72 103.233 230.023 103.057 230.27 102.83C230.523 102.597 230.717 102.32 230.85 102C230.983 101.68 231.05 101.323 231.05 100.93C231.05 100.497 230.95 100.143 230.75 99.87C230.557 99.59 230.3 99.3567 229.98 99.17C229.66 98.9833 229.293 98.8267 228.88 98.7C228.473 98.5667 228.053 98.4333 227.62 98.3C227.193 98.16 226.773 98 226.36 97.82C225.953 97.64 225.59 97.4067 225.27 97.12C224.95 96.8333 224.69 96.4767 224.49 96.05C224.297 95.6167 224.2 95.0833 224.2 94.45C224.2 93.9433 224.297 93.4533 224.49 92.98C224.69 92.5067 224.977 92.0867 225.35 91.72C225.723 91.3533 226.183 91.06 226.73 90.84C227.283 90.62 227.917 90.51 228.63 90.51C229.43 90.51 230.16 90.6367 230.82 90.89C231.48 91.1433 232.057 91.51 232.55 91.99L232.08 92.91ZM236.605 94.87V101.33C236.605 102.097 236.782 102.69 237.135 103.11C237.489 103.53 238.022 103.74 238.735 103.74C239.255 103.74 239.745 103.617 240.205 103.37C240.665 103.123 241.089 102.78 241.475 102.34V94.87H243.255V105H242.195C241.942 105 241.782 104.877 241.715 104.63L241.575 103.54C241.135 104.027 240.642 104.42 240.095 104.72C239.549 105.013 238.922 105.16 238.215 105.16C237.662 105.16 237.172 105.07 236.745 104.89C236.325 104.703 235.972 104.443 235.685 104.11C235.399 103.777 235.182 103.373 235.035 102.9C234.895 102.427 234.825 101.903 234.825 101.33V94.87H236.605ZM246.239 105V90.27H248.029V96.33C248.449 95.8433 248.929 95.4533 249.469 95.16C250.015 94.86 250.639 94.71 251.339 94.71C251.925 94.71 252.455 94.82 252.929 95.04C253.402 95.26 253.805 95.59 254.139 96.03C254.472 96.4633 254.729 97.0033 254.909 97.65C255.089 98.29 255.179 99.03 255.179 99.87C255.179 100.617 255.079 101.313 254.879 101.96C254.679 102.6 254.389 103.157 254.009 103.63C253.635 104.097 253.175 104.467 252.629 104.74C252.089 105.007 251.479 105.14 250.799 105.14C250.145 105.14 249.589 105.013 249.129 104.76C248.675 104.507 248.279 104.153 247.939 103.7L247.849 104.62C247.795 104.873 247.642 105 247.389 105H246.239ZM250.759 96.13C250.179 96.13 249.669 96.2633 249.229 96.53C248.795 96.7967 248.395 97.1733 248.029 97.66V102.56C248.349 103 248.702 103.31 249.089 103.49C249.482 103.67 249.919 103.76 250.399 103.76C251.345 103.76 252.072 103.423 252.579 102.75C253.085 102.077 253.339 101.117 253.339 99.87C253.339 99.21 253.279 98.6433 253.159 98.17C253.045 97.6967 252.879 97.31 252.659 97.01C252.439 96.7033 252.169 96.48 251.849 96.34C251.529 96.2 251.165 96.13 250.759 96.13ZM260.421 105.16C259.621 105.16 259.004 104.937 258.571 104.49C258.144 104.043 257.931 103.4 257.931 102.56V96.36H256.711C256.604 96.36 256.514 96.33 256.441 96.27C256.367 96.2033 256.331 96.1033 256.331 95.97V95.26L257.991 95.05L258.401 91.92C258.414 91.82 258.457 91.74 258.531 91.68C258.604 91.6133 258.697 91.58 258.811 91.58H259.711V95.07H262.611V96.36H259.711V102.44C259.711 102.867 259.814 103.183 260.021 103.39C260.227 103.597 260.494 103.7 260.821 103.7C261.007 103.7 261.167 103.677 261.301 103.63C261.441 103.577 261.561 103.52 261.661 103.46C261.761 103.4 261.844 103.347 261.911 103.3C261.984 103.247 262.047 103.22 262.101 103.22C262.194 103.22 262.277 103.277 262.351 103.39L262.871 104.24C262.564 104.527 262.194 104.753 261.761 104.92C261.327 105.08 260.881 105.16 260.421 105.16ZM266.792 94.87V105H265.012V94.87H266.792ZM267.192 91.69C267.192 91.8633 267.155 92.0267 267.082 92.18C267.015 92.3267 266.922 92.46 266.802 92.58C266.688 92.6933 266.555 92.7833 266.402 92.85C266.248 92.9167 266.085 92.95 265.912 92.95C265.738 92.95 265.575 92.9167 265.422 92.85C265.275 92.7833 265.142 92.6933 265.022 92.58C264.908 92.46 264.818 92.3267 264.752 92.18C264.685 92.0267 264.652 91.8633 264.652 91.69C264.652 91.5167 264.685 91.3533 264.752 91.2C264.818 91.04 264.908 90.9033 265.022 90.79C265.142 90.67 265.275 90.5767 265.422 90.51C265.575 90.4433 265.738 90.41 265.912 90.41C266.085 90.41 266.248 90.4433 266.402 90.51C266.555 90.5767 266.688 90.67 266.802 90.79C266.922 90.9033 267.015 91.04 267.082 91.2C267.155 91.3533 267.192 91.5167 267.192 91.69ZM272.999 105.16C272.199 105.16 271.582 104.937 271.149 104.49C270.722 104.043 270.509 103.4 270.509 102.56V96.36H269.289C269.182 96.36 269.092 96.33 269.019 96.27C268.945 96.2033 268.909 96.1033 268.909 95.97V95.26L270.569 95.05L270.979 91.92C270.992 91.82 271.035 91.74 271.109 91.68C271.182 91.6133 271.275 91.58 271.389 91.58H272.289V95.07H275.189V96.36H272.289V102.44C272.289 102.867 272.392 103.183 272.599 103.39C272.805 103.597 273.072 103.7 273.399 103.7C273.585 103.7 273.745 103.677 273.879 103.63C274.019 103.577 274.139 103.52 274.239 103.46C274.339 103.4 274.422 103.347 274.489 103.3C274.562 103.247 274.625 103.22 274.679 103.22C274.772 103.22 274.855 103.277 274.929 103.39L275.449 104.24C275.142 104.527 274.772 104.753 274.339 104.92C273.905 105.08 273.459 105.16 272.999 105.16ZM279.37 90.27V105H277.59V90.27H279.37ZM286.517 94.71C287.124 94.71 287.684 94.8133 288.197 95.02C288.71 95.22 289.154 95.5133 289.527 95.9C289.9 96.28 290.19 96.7533 290.397 97.32C290.61 97.88 290.717 98.52 290.717 99.24C290.717 99.52 290.687 99.7067 290.627 99.8C290.567 99.8933 290.454 99.94 290.287 99.94H283.547C283.56 100.58 283.647 101.137 283.807 101.61C283.967 102.083 284.187 102.48 284.467 102.8C284.747 103.113 285.08 103.35 285.467 103.51C285.854 103.663 286.287 103.74 286.767 103.74C287.214 103.74 287.597 103.69 287.917 103.59C288.244 103.483 288.524 103.37 288.757 103.25C288.99 103.13 289.184 103.02 289.337 102.92C289.497 102.813 289.634 102.76 289.747 102.76C289.894 102.76 290.007 102.817 290.087 102.93L290.587 103.58C290.367 103.847 290.104 104.08 289.797 104.28C289.49 104.473 289.16 104.633 288.807 104.76C288.46 104.887 288.1 104.98 287.727 105.04C287.354 105.107 286.984 105.14 286.617 105.14C285.917 105.14 285.27 105.023 284.677 104.79C284.09 104.55 283.58 104.203 283.147 103.75C282.72 103.29 282.387 102.723 282.147 102.05C281.907 101.377 281.787 100.603 281.787 99.73C281.787 99.0233 281.894 98.3633 282.107 97.75C282.327 97.1367 282.64 96.6067 283.047 96.16C283.454 95.7067 283.95 95.3533 284.537 95.1C285.124 94.84 285.784 94.71 286.517 94.71ZM286.557 96.02C285.697 96.02 285.02 96.27 284.527 96.77C284.034 97.2633 283.727 97.95 283.607 98.83H289.117C289.117 98.4167 289.06 98.04 288.947 97.7C288.834 97.3533 288.667 97.0567 288.447 96.81C288.227 96.5567 287.957 96.3633 287.637 96.23C287.324 96.09 286.964 96.02 286.557 96.02ZM301.412 90.51C302.019 90.51 302.586 90.6 303.112 90.78C303.639 90.96 304.092 91.2233 304.472 91.57C304.859 91.91 305.162 92.3267 305.382 92.82C305.602 93.3133 305.712 93.8733 305.712 94.5C305.712 95.0333 305.632 95.5267 305.472 95.98C305.312 96.4333 305.096 96.87 304.822 97.29C304.549 97.7033 304.232 98.1067 303.872 98.5C303.519 98.8867 303.142 99.2833 302.742 99.69L298.972 103.55C299.239 103.477 299.509 103.42 299.782 103.38C300.056 103.333 300.319 103.31 300.572 103.31H305.372C305.566 103.31 305.719 103.367 305.832 103.48C305.946 103.593 306.002 103.74 306.002 103.92V105H296.442V104.39C296.442 104.263 296.466 104.133 296.512 104C296.566 103.867 296.649 103.743 296.762 103.63L301.352 99.02C301.732 98.6333 302.079 98.2633 302.392 97.91C302.706 97.55 302.972 97.19 303.192 96.83C303.419 96.47 303.592 96.1067 303.712 95.74C303.832 95.3667 303.892 94.97 303.892 94.55C303.892 94.13 303.826 93.7633 303.692 93.45C303.559 93.13 303.376 92.8667 303.142 92.66C302.909 92.4533 302.636 92.3 302.322 92.2C302.009 92.0933 301.672 92.04 301.312 92.04C300.952 92.04 300.619 92.0933 300.312 92.2C300.006 92.3067 299.732 92.4567 299.492 92.65C299.259 92.8367 299.059 93.06 298.892 93.32C298.732 93.58 298.619 93.8667 298.552 94.18C298.499 94.3733 298.419 94.5133 298.312 94.6C298.206 94.6867 298.066 94.73 297.892 94.73C297.859 94.73 297.822 94.73 297.782 94.73C297.749 94.7233 297.709 94.7167 297.662 94.71L296.732 94.55C296.826 93.8967 297.006 93.32 297.272 92.82C297.539 92.3133 297.876 91.89 298.282 91.55C298.696 91.21 299.166 90.9533 299.692 90.78C300.226 90.6 300.799 90.51 301.412 90.51Z" fill="#3F3F3F"/>
<path d="M357.99 3.324V4.65H355.38V12H353.766V4.65H351.144V3.324H357.99ZM360.831 12H359.211V3.324H360.831V12ZM368.9 3.324V4.65H366.29V12H364.676V4.65H362.054V3.324H368.9ZM371.537 10.668H375.011V12H369.923V3.324H371.537V10.668ZM381.594 3.324V4.608H377.748V7.014H380.778V8.256H377.748V10.71H381.594V12H376.122V3.324H381.594Z" fill="#9B9B9B"/>
<path d="M351.096 21.804H352.956C353.164 21.804 353.332 21.856 353.46 21.96C353.588 22.064 353.684 22.196 353.748 22.356L358.608 34.488C358.72 34.76 358.82 35.056 358.908 35.376C359.004 35.696 359.096 36.028 359.184 36.372C359.256 36.028 359.332 35.696 359.412 35.376C359.5 35.056 359.6 34.76 359.712 34.488L364.548 22.356C364.604 22.22 364.7 22.096 364.836 21.984C364.972 21.864 365.14 21.804 365.34 21.804H367.212L360.204 39H358.104L351.096 21.804ZM376.61 39H375.662C375.454 39 375.286 38.968 375.158 38.904C375.03 38.84 374.946 38.704 374.906 38.496L374.666 37.368C374.346 37.656 374.034 37.916 373.73 38.148C373.426 38.372 373.106 38.564 372.77 38.724C372.434 38.876 372.074 38.992 371.69 39.072C371.314 39.152 370.894 39.192 370.43 39.192C369.958 39.192 369.514 39.128 369.098 39C368.69 38.864 368.334 38.664 368.03 38.4C367.726 38.136 367.482 37.804 367.298 37.404C367.122 36.996 367.034 36.516 367.034 35.964C367.034 35.484 367.166 35.024 367.43 34.584C367.694 34.136 368.118 33.74 368.702 33.396C369.294 33.052 370.066 32.772 371.018 32.556C371.97 32.332 373.134 32.204 374.51 32.172V31.224C374.51 30.28 374.306 29.568 373.898 29.088C373.498 28.6 372.902 28.356 372.11 28.356C371.59 28.356 371.15 28.424 370.79 28.56C370.438 28.688 370.13 28.836 369.866 29.004C369.61 29.164 369.386 29.312 369.194 29.448C369.01 29.576 368.826 29.64 368.642 29.64C368.498 29.64 368.37 29.604 368.258 29.532C368.154 29.452 368.07 29.356 368.006 29.244L367.622 28.56C368.294 27.912 369.018 27.428 369.794 27.108C370.57 26.788 371.43 26.628 372.374 26.628C373.054 26.628 373.658 26.74 374.186 26.964C374.714 27.188 375.158 27.5 375.518 27.9C375.878 28.3 376.15 28.784 376.334 29.352C376.518 29.92 376.61 30.544 376.61 31.224V39ZM371.066 37.692C371.442 37.692 371.786 37.656 372.098 37.584C372.41 37.504 372.702 37.396 372.974 37.26C373.254 37.116 373.518 36.944 373.766 36.744C374.022 36.544 374.27 36.316 374.51 36.06V33.528C373.526 33.56 372.69 33.64 372.002 33.768C371.314 33.888 370.754 34.048 370.322 34.248C369.89 34.448 369.574 34.684 369.374 34.956C369.182 35.228 369.086 35.532 369.086 35.868C369.086 36.188 369.138 36.464 369.242 36.696C369.346 36.928 369.486 37.12 369.662 37.272C369.838 37.416 370.046 37.524 370.286 37.596C370.526 37.66 370.786 37.692 371.066 37.692ZM382.222 21.324V39H380.086V21.324H382.222ZM387.834 26.844V34.596C387.834 35.516 388.046 36.228 388.47 36.732C388.894 37.236 389.534 37.488 390.39 37.488C391.014 37.488 391.602 37.34 392.154 37.044C392.706 36.748 393.214 36.336 393.678 35.808V26.844H395.814V39H394.542C394.238 39 394.046 38.852 393.966 38.556L393.798 37.248C393.27 37.832 392.678 38.304 392.022 38.664C391.366 39.016 390.614 39.192 389.766 39.192C389.102 39.192 388.514 39.084 388.002 38.868C387.498 38.644 387.074 38.332 386.73 37.932C386.386 37.532 386.126 37.048 385.95 36.48C385.782 35.912 385.698 35.284 385.698 34.596V26.844H387.834ZM404.134 26.652C404.862 26.652 405.534 26.776 406.15 27.024C406.766 27.264 407.298 27.616 407.746 28.08C408.194 28.536 408.542 29.104 408.79 29.784C409.046 30.456 409.174 31.224 409.174 32.088C409.174 32.424 409.138 32.648 409.066 32.76C408.994 32.872 408.858 32.928 408.658 32.928H400.57C400.586 33.696 400.69 34.364 400.882 34.932C401.074 35.5 401.338 35.976 401.674 36.36C402.01 36.736 402.41 37.02 402.874 37.212C403.338 37.396 403.858 37.488 404.434 37.488C404.97 37.488 405.43 37.428 405.814 37.308C406.206 37.18 406.542 37.044 406.822 36.9C407.102 36.756 407.334 36.624 407.518 36.504C407.71 36.376 407.874 36.312 408.01 36.312C408.186 36.312 408.322 36.38 408.418 36.516L409.018 37.296C408.754 37.616 408.438 37.896 408.07 38.136C407.702 38.368 407.306 38.56 406.882 38.712C406.466 38.864 406.034 38.976 405.586 39.048C405.138 39.128 404.694 39.168 404.254 39.168C403.414 39.168 402.638 39.028 401.926 38.748C401.222 38.46 400.61 38.044 400.09 37.5C399.578 36.948 399.178 36.268 398.89 35.46C398.602 34.652 398.458 33.724 398.458 32.676C398.458 31.828 398.586 31.036 398.842 30.3C399.106 29.564 399.482 28.928 399.97 28.392C400.458 27.848 401.054 27.424 401.758 27.12C402.462 26.808 403.254 26.652 404.134 26.652ZM404.182 28.224C403.15 28.224 402.338 28.524 401.746 29.124C401.154 29.716 400.786 30.54 400.642 31.596H407.254C407.254 31.1 407.186 30.648 407.05 30.24C406.914 29.824 406.714 29.468 406.45 29.172C406.186 28.868 405.862 28.636 405.478 28.476C405.102 28.308 404.67 28.224 404.182 28.224Z" fill="#3F3F3F"/>
<path d="M360.198 77.662C360.198 78.298 360.092 78.888 359.88 79.432C359.668 79.972 359.37 80.44 358.986 80.836C358.602 81.232 358.14 81.542 357.6 81.766C357.06 81.986 356.462 82.096 355.806 82.096C355.15 82.096 354.55 81.986 354.006 81.766C353.466 81.542 353.002 81.232 352.614 80.836C352.23 80.44 351.932 79.972 351.72 79.432C351.508 78.888 351.402 78.298 351.402 77.662C351.402 77.026 351.508 76.438 351.72 75.898C351.932 75.354 352.23 74.884 352.614 74.488C353.002 74.092 353.466 73.784 354.006 73.564C354.55 73.34 355.15 73.228 355.806 73.228C356.462 73.228 357.06 73.34 357.6 73.564C358.14 73.788 358.602 74.098 358.986 74.494C359.37 74.886 359.668 75.354 359.88 75.898C360.092 76.438 360.198 77.026 360.198 77.662ZM358.542 77.662C358.542 77.186 358.478 76.76 358.35 76.384C358.226 76.004 358.046 75.682 357.81 75.418C357.574 75.154 357.286 74.952 356.946 74.812C356.61 74.672 356.23 74.602 355.806 74.602C355.382 74.602 355 74.672 354.66 74.812C354.32 74.952 354.03 75.154 353.79 75.418C353.554 75.682 353.372 76.004 353.244 76.384C353.116 76.76 353.052 77.186 353.052 77.662C353.052 78.138 353.116 78.566 353.244 78.946C353.372 79.322 353.554 79.642 353.79 79.906C354.03 80.166 354.32 80.366 354.66 80.506C355 80.646 355.382 80.716 355.806 80.716C356.23 80.716 356.61 80.646 356.946 80.506C357.286 80.366 357.574 80.166 357.81 79.906C358.046 79.642 358.226 79.322 358.35 78.946C358.478 78.566 358.542 78.138 358.542 77.662ZM360.282 73.324H361.584C361.724 73.324 361.838 73.358 361.926 73.426C362.014 73.494 362.08 73.582 362.124 73.69L364.164 78.982C364.232 79.154 364.296 79.344 364.356 79.552C364.42 79.756 364.48 79.972 364.536 80.2C364.628 79.74 364.742 79.334 364.878 78.982L366.912 73.69C366.948 73.598 367.012 73.514 367.104 73.438C367.196 73.362 367.31 73.324 367.446 73.324H368.748L365.244 82H363.786L360.282 73.324ZM375.125 73.324V74.608H371.279V77.014H374.309V78.256H371.279V80.71H375.125V82H369.653V73.324H375.125ZM378.189 78.61V82H376.575V73.324H379.221C379.813 73.324 380.319 73.386 380.739 73.51C381.163 73.63 381.509 73.8 381.777 74.02C382.049 74.24 382.247 74.504 382.371 74.812C382.499 75.116 382.563 75.452 382.563 75.82C382.563 76.112 382.519 76.388 382.431 76.648C382.347 76.908 382.223 77.144 382.059 77.356C381.899 77.568 381.699 77.754 381.459 77.914C381.223 78.074 380.953 78.202 380.649 78.298C380.853 78.414 381.029 78.58 381.177 78.796L383.349 82H381.897C381.757 82 381.637 81.972 381.537 81.916C381.441 81.86 381.359 81.78 381.291 81.676L379.467 78.898C379.399 78.794 379.323 78.72 379.239 78.676C379.159 78.632 379.039 78.61 378.879 78.61H378.189ZM378.189 77.452H379.197C379.501 77.452 379.765 77.414 379.989 77.338C380.217 77.262 380.403 77.158 380.547 77.026C380.695 76.89 380.805 76.73 380.877 76.546C380.949 76.362 380.985 76.16 380.985 75.94C380.985 75.5 380.839 75.162 380.547 74.926C380.259 74.69 379.817 74.572 379.221 74.572H378.189V77.452ZM385.998 80.668H389.472V82H384.384V73.324H385.998V80.668ZM392.401 82H390.781V73.324H392.401V82ZM395.202 73.324C395.274 73.324 395.334 73.328 395.382 73.336C395.43 73.34 395.472 73.352 395.508 73.372C395.548 73.388 395.586 73.414 395.622 73.45C395.658 73.482 395.698 73.526 395.742 73.582L400.296 79.384C400.28 79.244 400.268 79.108 400.26 78.976C400.256 78.84 400.254 78.714 400.254 78.598V73.324H401.676V82H400.842C400.714 82 400.608 81.98 400.524 81.94C400.44 81.9 400.358 81.828 400.278 81.724L395.742 75.946C395.754 76.074 395.762 76.202 395.766 76.33C395.774 76.454 395.778 76.568 395.778 76.672V82H394.356V73.324H395.202ZM408.899 73.324V74.608H405.053V77.014H408.083V78.256H405.053V80.71H408.899V82H403.427V73.324H408.899Z" fill="#9B9B9B"/>
<path d="M361.896 94.492C361.824 94.612 361.748 94.704 361.668 94.768C361.588 94.824 361.484 94.852 361.356 94.852C361.22 94.852 361.06 94.784 360.876 94.648C360.7 94.512 360.472 94.364 360.192 94.204C359.92 94.036 359.588 93.884 359.196 93.748C358.812 93.612 358.344 93.544 357.792 93.544C357.272 93.544 356.812 93.616 356.412 93.76C356.012 93.896 355.676 94.084 355.404 94.324C355.14 94.564 354.94 94.848 354.804 95.176C354.668 95.496 354.6 95.844 354.6 96.22C354.6 96.7 354.716 97.1 354.948 97.42C355.188 97.732 355.5 98 355.884 98.224C356.276 98.448 356.716 98.644 357.204 98.812C357.7 98.972 358.204 99.14 358.716 99.316C359.236 99.492 359.74 99.692 360.228 99.916C360.724 100.132 361.164 100.408 361.548 100.744C361.94 101.08 362.252 101.492 362.484 101.98C362.724 102.468 362.844 103.068 362.844 103.78C362.844 104.532 362.716 105.24 362.46 105.904C362.204 106.56 361.828 107.132 361.332 107.62C360.844 108.108 360.24 108.492 359.52 108.772C358.808 109.052 357.996 109.192 357.084 109.192C355.972 109.192 354.956 108.992 354.036 108.592C353.124 108.184 352.344 107.636 351.696 106.948L352.368 105.844C352.432 105.756 352.508 105.684 352.596 105.628C352.692 105.564 352.796 105.532 352.908 105.532C353.076 105.532 353.268 105.624 353.484 105.808C353.7 105.984 353.968 106.18 354.288 106.396C354.616 106.612 355.008 106.812 355.464 106.996C355.928 107.172 356.492 107.26 357.156 107.26C357.708 107.26 358.2 107.184 358.632 107.032C359.064 106.88 359.428 106.668 359.724 106.396C360.028 106.116 360.26 105.784 360.42 105.4C360.58 105.016 360.66 104.588 360.66 104.116C360.66 103.596 360.54 103.172 360.3 102.844C360.068 102.508 359.76 102.228 359.376 102.004C358.992 101.78 358.552 101.592 358.056 101.44C357.568 101.28 357.064 101.12 356.544 100.96C356.032 100.792 355.528 100.6 355.032 100.384C354.544 100.168 354.108 99.888 353.724 99.544C353.34 99.2 353.028 98.772 352.788 98.26C352.556 97.74 352.44 97.1 352.44 96.34C352.44 95.732 352.556 95.144 352.788 94.576C353.028 94.008 353.372 93.504 353.82 93.064C354.268 92.624 354.82 92.272 355.476 92.008C356.14 91.744 356.9 91.612 357.756 91.612C358.716 91.612 359.592 91.764 360.384 92.068C361.176 92.372 361.868 92.812 362.46 93.388L361.896 94.492ZM367.327 96.844V104.596C367.327 105.516 367.539 106.228 367.963 106.732C368.387 107.236 369.027 107.488 369.883 107.488C370.507 107.488 371.095 107.34 371.647 107.044C372.199 106.748 372.707 106.336 373.171 105.808V96.844H375.307V109H374.035C373.731 109 373.539 108.852 373.459 108.556L373.291 107.248C372.763 107.832 372.171 108.304 371.515 108.664C370.859 109.016 370.107 109.192 369.259 109.192C368.595 109.192 368.007 109.084 367.495 108.868C366.991 108.644 366.567 108.332 366.223 107.932C365.879 107.532 365.619 107.048 365.443 106.48C365.275 105.912 365.191 105.284 365.191 104.596V96.844H367.327ZM378.887 109V91.324H381.035V98.596C381.539 98.012 382.115 97.544 382.763 97.192C383.419 96.832 384.167 96.652 385.007 96.652C385.711 96.652 386.347 96.784 386.915 97.048C387.483 97.312 387.967 97.708 388.367 98.236C388.767 98.756 389.075 99.404 389.291 100.18C389.507 100.948 389.615 101.836 389.615 102.844C389.615 103.74 389.495 104.576 389.255 105.352C389.015 106.12 388.667 106.788 388.211 107.356C387.763 107.916 387.211 108.36 386.555 108.688C385.907 109.008 385.175 109.168 384.359 109.168C383.575 109.168 382.907 109.016 382.355 108.712C381.811 108.408 381.335 107.984 380.927 107.44L380.819 108.544C380.755 108.848 380.571 109 380.267 109H378.887ZM384.311 98.356C383.615 98.356 383.003 98.516 382.475 98.836C381.955 99.156 381.475 99.608 381.035 100.192V106.072C381.419 106.6 381.843 106.972 382.307 107.188C382.779 107.404 383.303 107.512 383.879 107.512C385.015 107.512 385.887 107.108 386.495 106.3C387.103 105.492 387.407 104.34 387.407 102.844C387.407 102.052 387.335 101.372 387.191 100.804C387.055 100.236 386.855 99.772 386.591 99.412C386.327 99.044 386.003 98.776 385.619 98.608C385.235 98.44 384.799 98.356 384.311 98.356ZM395.905 109.192C394.945 109.192 394.205 108.924 393.685 108.388C393.173 107.852 392.917 107.08 392.917 106.072V98.632H391.453C391.325 98.632 391.217 98.596 391.129 98.524C391.041 98.444 390.997 98.324 390.997 98.164V97.312L392.989 97.06L393.481 93.304C393.497 93.184 393.549 93.088 393.637 93.016C393.725 92.936 393.837 92.896 393.973 92.896H395.053V97.084H398.533V98.632H395.053V105.928C395.053 106.44 395.177 106.82 395.425 107.068C395.673 107.316 395.993 107.44 396.385 107.44C396.609 107.44 396.801 107.412 396.961 107.356C397.129 107.292 397.273 107.224 397.393 107.152C397.513 107.08 397.613 107.016 397.693 106.96C397.781 106.896 397.857 106.864 397.921 106.864C398.033 106.864 398.133 106.932 398.221 107.068L398.845 108.088C398.477 108.432 398.033 108.704 397.513 108.904C396.993 109.096 396.457 109.192 395.905 109.192ZM403.55 96.844V109H401.414V96.844H403.55ZM404.03 93.028C404.03 93.236 403.986 93.432 403.898 93.616C403.818 93.792 403.706 93.952 403.562 94.096C403.426 94.232 403.266 94.34 403.082 94.42C402.898 94.5 402.702 94.54 402.494 94.54C402.286 94.54 402.09 94.5 401.906 94.42C401.73 94.34 401.57 94.232 401.426 94.096C401.29 93.952 401.182 93.792 401.102 93.616C401.022 93.432 400.982 93.236 400.982 93.028C400.982 92.82 401.022 92.624 401.102 92.44C401.182 92.248 401.29 92.084 401.426 91.948C401.57 91.804 401.73 91.692 401.906 91.612C402.09 91.532 402.286 91.492 402.494 91.492C402.702 91.492 402.898 91.532 403.082 91.612C403.266 91.692 403.426 91.804 403.562 91.948C403.706 92.084 403.818 92.248 403.898 92.44C403.986 92.624 404.03 92.82 404.03 93.028ZM410.999 109.192C410.039 109.192 409.299 108.924 408.779 108.388C408.267 107.852 408.011 107.08 408.011 106.072V98.632H406.547C406.419 98.632 406.311 98.596 406.223 98.524C406.135 98.444 406.091 98.324 406.091 98.164V97.312L408.083 97.06L408.575 93.304C408.591 93.184 408.643 93.088 408.73 93.016C408.819 92.936 408.931 92.896 409.067 92.896H410.147V97.084H413.627V98.632H410.147V105.928C410.147 106.44 410.271 106.82 410.519 107.068C410.767 107.316 411.087 107.44 411.479 107.44C411.703 107.44 411.895 107.412 412.055 107.356C412.223 107.292 412.367 107.224 412.487 107.152C412.607 107.08 412.707 107.016 412.787 106.96C412.875 106.896 412.951 106.864 413.015 106.864C413.127 106.864 413.227 106.932 413.315 107.068L413.939 108.088C413.571 108.432 413.127 108.704 412.607 108.904C412.087 109.096 411.551 109.192 410.999 109.192ZM418.644 91.324V109H416.508V91.324H418.644ZM427.22 96.652C427.948 96.652 428.62 96.776 429.236 97.024C429.852 97.264 430.384 97.616 430.832 98.08C431.28 98.536 431.628 99.104 431.876 99.784C432.132 100.456 432.26 101.224 432.26 102.088C432.26 102.424 432.224 102.648 432.152 102.76C432.08 102.872 431.944 102.928 431.744 102.928H423.656C423.672 103.696 423.776 104.364 423.968 104.932C424.16 105.5 424.424 105.976 424.76 106.36C425.096 106.736 425.496 107.02 425.96 107.212C426.424 107.396 426.944 107.488 427.52 107.488C428.056 107.488 428.516 107.428 428.9 107.308C429.292 107.18 429.628 107.044 429.908 106.9C430.188 106.756 430.42 106.624 430.604 106.504C430.796 106.376 430.96 106.312 431.096 106.312C431.272 106.312 431.408 106.38 431.504 106.516L432.104 107.296C431.84 107.616 431.524 107.896 431.156 108.136C430.788 108.368 430.392 108.56 429.968 108.712C429.552 108.864 429.12 108.976 428.672 109.048C428.224 109.128 427.78 109.168 427.34 109.168C426.5 109.168 425.724 109.028 425.012 108.748C424.308 108.46 423.696 108.044 423.176 107.5C422.664 106.948 422.264 106.268 421.976 105.46C421.688 104.652 421.544 103.724 421.544 102.676C421.544 101.828 421.672 101.036 421.928 100.3C422.192 99.564 422.568 98.928 423.056 98.392C423.544 97.848 424.14 97.424 424.844 97.12C425.548 96.808 426.34 96.652 427.22 96.652ZM427.268 98.224C426.236 98.224 425.424 98.524 424.832 99.124C424.24 99.716 423.872 100.54 423.728 101.596H430.34C430.34 101.1 430.272 100.648 430.136 100.24C430 99.824 429.8 99.468 429.536 99.172C429.272 98.868 428.948 98.636 428.564 98.476C428.188 98.308 427.756 98.224 427.268 98.224ZM441.327 107.368H445.023V95.644C445.023 95.292 445.035 94.936 445.059 94.576L441.987 97.204C441.907 97.268 441.827 97.316 441.747 97.348C441.667 97.372 441.591 97.384 441.519 97.384C441.399 97.384 441.291 97.36 441.195 97.312C441.099 97.256 441.027 97.192 440.979 97.12L440.307 96.196L445.419 91.768H447.159V107.368H450.543V109H441.327V107.368Z" fill="#3F3F3F"/>
</svg>
