<svg width="392" height="34" viewBox="0 0 392 34" fill="none" xmlns="http://www.w3.org/2000/svg">
<g opacity="0.3">
<rect x="42" y="1" width="32" height="32" rx="16" stroke="#0064D1"/>
<path fill-rule="evenodd" clip-rule="evenodd" d="M61.2977 10.3509C61.1039 10.1571 60.7898 10.1571 60.596 10.3509L54.3509 16.596C54.1571 16.7898 54.1571 17.1039 54.3509 17.2977C54.5447 17.4915 54.8588 17.4915 55.0526 17.2977L61.2977 11.0526C61.4915 10.8588 61.4915 10.5446 61.2977 10.3509Z" fill="#0064D1"/>
<path fill-rule="evenodd" clip-rule="evenodd" d="M61.2977 23.6491C61.1039 23.8429 60.7898 23.8429 60.596 23.6491L54.3509 17.404C54.1571 17.2102 54.1571 16.8961 54.3509 16.7023C54.5447 16.5085 54.8588 16.5085 55.0526 16.7023L61.2977 22.9474C61.4915 23.1412 61.4915 23.4554 61.2977 23.6491Z" fill="#0064D1"/>
</g>
<g opacity="0.3">
<rect x="1" y="1" width="32" height="32" rx="16" stroke="#0064D1"/>
<path fill-rule="evenodd" clip-rule="evenodd" d="M22.2977 10.3509C22.1039 10.1571 21.7898 10.1571 21.596 10.3509L15.3509 16.596C15.1571 16.7898 15.1571 17.1039 15.3509 17.2977C15.5447 17.4915 15.8588 17.4915 16.0526 17.2977L22.2977 11.0526C22.4915 10.8588 22.4915 10.5446 22.2977 10.3509Z" fill="#0064D1"/>
<path fill-rule="evenodd" clip-rule="evenodd" d="M22.2977 23.6491C22.1039 23.8429 21.7898 23.8429 21.596 23.6491L15.3509 17.404C15.1571 17.2102 15.1571 16.8961 15.3509 16.7023C15.5447 16.5085 15.8588 16.5085 16.0526 16.7023L22.2977 22.9474C22.4915 23.1412 22.4915 23.4554 22.2977 23.6491Z" fill="#0064D1"/>
<path fill-rule="evenodd" clip-rule="evenodd" d="M12.8243 9.91213C12.5503 9.91213 12.3281 10.2287 12.3281 10.6192L12.3281 23.205C12.3281 23.5955 12.5503 23.9121 12.8243 23.9121C13.0983 23.9121 13.3205 23.5955 13.3205 23.205L13.3205 10.6192C13.3205 10.2287 13.0983 9.91213 12.8243 9.91213Z" fill="#0064D1"/>
</g>
<rect x="318" y="1" width="32" height="32" rx="16" stroke="#0064D1"/>
<path fill-rule="evenodd" clip-rule="evenodd" d="M331.351 10.3509C331.545 10.1571 331.859 10.1571 332.053 10.3509L338.298 16.596C338.492 16.7898 338.492 17.1039 338.298 17.2977C338.104 17.4915 337.79 17.4915 337.596 17.2977L331.351 11.0526C331.157 10.8588 331.157 10.5446 331.351 10.3509Z" fill="#0064D1"/>
<path fill-rule="evenodd" clip-rule="evenodd" d="M331.351 23.6491C331.545 23.8429 331.859 23.8429 332.053 23.6491L338.298 17.404C338.492 17.2102 338.492 16.8961 338.298 16.7023C338.104 16.5085 337.79 16.5085 337.596 16.7023L331.351 22.9474C331.157 23.1412 331.157 23.4554 331.351 23.6491Z" fill="#0064D1"/>
<rect x="359" y="1" width="32" height="32" rx="16" stroke="#0064D1"/>
<path fill-rule="evenodd" clip-rule="evenodd" d="M369.351 10.3509C369.545 10.1571 369.859 10.1571 370.053 10.3509L376.298 16.596C376.492 16.7898 376.492 17.1039 376.298 17.2977C376.104 17.4915 375.79 17.4915 375.596 17.2977L369.351 11.0526C369.157 10.8588 369.157 10.5446 369.351 10.3509Z" fill="#0064D1"/>
<path fill-rule="evenodd" clip-rule="evenodd" d="M369.351 23.6491C369.545 23.8429 369.859 23.8429 370.053 23.6491L376.298 17.404C376.492 17.2102 376.492 16.8961 376.298 16.7023C376.104 16.5085 375.79 16.5085 375.596 16.7023L369.351 22.9474C369.157 23.1412 369.157 23.4554 369.351 23.6491Z" fill="#0064D1"/>
<path fill-rule="evenodd" clip-rule="evenodd" d="M378.5 10C378.776 10 379 10.3166 379 10.7071L379 23.2929C379 23.6834 378.776 24 378.5 24C378.224 24 378 23.6834 378 23.2929L378 10.7071C378 10.3166 378.224 10 378.5 10Z" fill="#0064D1"/>
<rect x="139" y="1" width="32" height="32" rx="16" stroke="#0064D1"/>
<path d="M154.646 11.857C155.071 11.857 155.468 11.92 155.836 12.046C156.205 12.172 156.522 12.3563 156.788 12.599C157.059 12.837 157.271 13.1287 157.425 13.474C157.579 13.8193 157.656 14.2113 157.656 14.65C157.656 15.0233 157.6 15.3687 157.488 15.686C157.376 16.0033 157.225 16.309 157.033 16.603C156.842 16.8923 156.62 17.1747 156.368 17.45C156.121 17.7207 155.857 17.9983 155.577 18.283L152.938 20.985C153.125 20.9337 153.314 20.894 153.505 20.866C153.697 20.8333 153.881 20.817 154.058 20.817H157.418C157.554 20.817 157.661 20.8567 157.74 20.936C157.82 21.0153 157.859 21.118 157.859 21.244V22H151.167V21.573C151.167 21.4843 151.184 21.3933 151.216 21.3C151.254 21.2067 151.312 21.1203 151.391 21.041L154.604 17.814C154.87 17.5433 155.113 17.2843 155.332 17.037C155.552 16.785 155.738 16.533 155.892 16.281C156.051 16.029 156.172 15.7747 156.256 15.518C156.34 15.2567 156.382 14.979 156.382 14.685C156.382 14.391 156.336 14.1343 156.242 13.915C156.149 13.691 156.021 13.5067 155.857 13.362C155.694 13.2173 155.503 13.11 155.283 13.04C155.064 12.9653 154.828 12.928 154.576 12.928C154.324 12.928 154.091 12.9653 153.876 13.04C153.662 13.1147 153.47 13.2197 153.302 13.355C153.139 13.4857 152.999 13.642 152.882 13.824C152.77 14.006 152.691 14.2067 152.644 14.426C152.607 14.5613 152.551 14.6593 152.476 14.72C152.402 14.7807 152.304 14.811 152.182 14.811C152.159 14.811 152.133 14.811 152.105 14.811C152.082 14.8063 152.054 14.8017 152.021 14.797L151.37 14.685C151.436 14.2277 151.562 13.824 151.748 13.474C151.935 13.1193 152.171 12.823 152.455 12.585C152.745 12.347 153.074 12.1673 153.442 12.046C153.816 11.92 154.217 11.857 154.646 11.857Z" fill="#0064D1"/>
<rect x="180" y="1" width="32" height="32" rx="16" stroke="#0064D1"/>
<path d="M195.779 11.857C196.204 11.857 196.596 11.9177 196.955 12.039C197.315 12.1603 197.623 12.333 197.879 12.557C198.141 12.781 198.344 13.0517 198.488 13.369C198.633 13.6863 198.705 14.0387 198.705 14.426C198.705 14.7433 198.663 15.028 198.579 15.28C198.5 15.5273 198.383 15.7467 198.229 15.938C198.08 16.1247 197.898 16.2833 197.683 16.414C197.469 16.5447 197.228 16.6497 196.962 16.729C197.616 16.9017 198.106 17.191 198.432 17.597C198.764 18.003 198.929 18.5117 198.929 19.123C198.929 19.585 198.841 20.0003 198.663 20.369C198.491 20.7377 198.253 21.0527 197.949 21.314C197.646 21.5707 197.291 21.769 196.885 21.909C196.484 22.0443 196.052 22.112 195.59 22.112C195.058 22.112 194.603 22.0467 194.225 21.916C193.847 21.7807 193.528 21.5963 193.266 21.363C193.005 21.1297 192.79 20.8543 192.622 20.537C192.454 20.215 192.312 19.8673 192.195 19.494L192.727 19.27C192.825 19.228 192.923 19.207 193.021 19.207C193.115 19.207 193.196 19.228 193.266 19.27C193.341 19.3073 193.397 19.368 193.434 19.452C193.444 19.4707 193.453 19.4917 193.462 19.515C193.472 19.5337 193.481 19.5547 193.49 19.578C193.556 19.7133 193.635 19.8673 193.728 20.04C193.822 20.208 193.948 20.3667 194.106 20.516C194.265 20.6653 194.461 20.7913 194.694 20.894C194.932 20.9967 195.226 21.048 195.576 21.048C195.926 21.048 196.232 20.992 196.493 20.88C196.759 20.7633 196.979 20.614 197.151 20.432C197.329 20.25 197.462 20.047 197.55 19.823C197.639 19.599 197.683 19.3773 197.683 19.158C197.683 18.8873 197.646 18.64 197.571 18.416C197.501 18.192 197.371 17.9983 197.179 17.835C196.993 17.6717 196.731 17.5433 196.395 17.45C196.064 17.3567 195.637 17.31 195.114 17.31V16.407C195.539 16.4023 195.901 16.3557 196.199 16.267C196.503 16.1783 196.75 16.057 196.941 15.903C197.133 15.749 197.27 15.5647 197.354 15.35C197.443 15.1353 197.487 14.8973 197.487 14.636C197.487 14.3467 197.441 14.0947 197.347 13.88C197.259 13.6653 197.135 13.488 196.976 13.348C196.818 13.208 196.629 13.103 196.409 13.033C196.195 12.963 195.961 12.928 195.709 12.928C195.457 12.928 195.224 12.9653 195.009 13.04C194.795 13.1147 194.603 13.2197 194.435 13.355C194.272 13.4857 194.134 13.6443 194.022 13.831C193.91 14.013 193.826 14.2113 193.77 14.426C193.733 14.5613 193.677 14.6593 193.602 14.72C193.528 14.7807 193.432 14.811 193.315 14.811C193.292 14.811 193.266 14.811 193.238 14.811C193.215 14.8063 193.187 14.8017 193.154 14.797L192.503 14.685C192.569 14.2277 192.695 13.824 192.881 13.474C193.068 13.1193 193.304 12.823 193.588 12.585C193.878 12.347 194.207 12.1673 194.575 12.046C194.949 11.92 195.35 11.857 195.779 11.857Z" fill="#0064D1"/>
<rect x="221" y="1" width="32" height="32" rx="16" stroke="#0064D1"/>
<path d="M238.76 18.381H240.279V19.095C240.279 19.1697 240.256 19.2327 240.209 19.284C240.167 19.3353 240.1 19.361 240.006 19.361H238.76V22H237.661V19.361H233.216C233.123 19.361 233.041 19.3353 232.971 19.284C232.906 19.228 232.864 19.1603 232.845 19.081L232.719 18.444L237.598 11.969H238.76V18.381ZM237.661 14.244C237.661 14.1227 237.664 13.992 237.668 13.852C237.678 13.712 237.694 13.5673 237.717 13.418L234.07 18.381H237.661V14.244Z" fill="#0064D1"/>
<rect x="262" y="1" width="32" height="32" rx="16" stroke="#0064D1"/>
<path d="M280.285 12.515C280.285 12.6923 280.229 12.8393 280.117 12.956C280.005 13.068 279.816 13.124 279.55 13.124H276.4L275.938 15.756C276.461 15.644 276.944 15.588 277.387 15.588C277.91 15.588 278.37 15.665 278.766 15.819C279.168 15.973 279.504 16.1853 279.774 16.456C280.045 16.7267 280.248 17.0463 280.383 17.415C280.523 17.7837 280.593 18.185 280.593 18.619C280.593 19.151 280.5 19.6317 280.313 20.061C280.127 20.4903 279.87 20.859 279.543 21.167C279.221 21.4703 278.841 21.7037 278.402 21.867C277.964 22.0303 277.49 22.112 276.981 22.112C276.687 22.112 276.405 22.0817 276.134 22.021C275.864 21.965 275.612 21.888 275.378 21.79C275.145 21.692 274.928 21.58 274.727 21.454C274.527 21.328 274.349 21.195 274.195 21.055L274.573 20.523C274.657 20.4017 274.769 20.341 274.909 20.341C274.998 20.341 275.101 20.3783 275.217 20.453C275.339 20.523 275.483 20.6023 275.651 20.691C275.819 20.7797 276.015 20.8613 276.239 20.936C276.468 21.006 276.739 21.041 277.051 21.041C277.401 21.041 277.716 20.985 277.996 20.873C278.276 20.761 278.514 20.6023 278.71 20.397C278.911 20.187 279.065 19.9373 279.172 19.648C279.28 19.3587 279.333 19.0343 279.333 18.675C279.333 18.3623 279.287 18.08 279.193 17.828C279.105 17.576 278.967 17.3613 278.78 17.184C278.598 17.0067 278.37 16.869 278.094 16.771C277.819 16.673 277.497 16.624 277.128 16.624C276.876 16.624 276.615 16.645 276.344 16.687C276.074 16.729 275.794 16.7967 275.504 16.89L274.72 16.659L275.532 11.969H280.285V12.515Z" fill="#0064D1"/>
<rect x="98" y="1" width="32" height="32" rx="16" fill="#0064D1" stroke="#0064D1"/>
<path d="M111.448 21.048H113.604V14.209C113.604 14.0037 113.611 13.796 113.625 13.586L111.833 15.119C111.787 15.1563 111.74 15.1843 111.693 15.203C111.647 15.217 111.602 15.224 111.56 15.224C111.49 15.224 111.427 15.21 111.371 15.182C111.315 15.1493 111.273 15.112 111.245 15.07L110.853 14.531L113.835 11.948H114.85V21.048H116.824V22H111.448V21.048Z" fill="white"/>
</svg>
