<svg width="398" height="40" viewBox="0 0 398 40" fill="none" xmlns="http://www.w3.org/2000/svg">
<rect opacity="0.3" x="42" y="1" width="38" height="38" rx="19" stroke="#0064D1"/>
<g opacity="0.3">
<path fill-rule="evenodd" clip-rule="evenodd" d="M64.3402 12.401C64.1188 12.1795 63.7597 12.1795 63.5383 12.401L56.401 19.5383C56.1795 19.7597 56.1795 20.1188 56.401 20.3403C56.6225 20.5617 56.9815 20.5617 57.203 20.3403L64.3402 13.203C64.5617 12.9815 64.5617 12.6225 64.3402 12.401Z" fill="#0064D1"/>
<path fill-rule="evenodd" clip-rule="evenodd" d="M64.3402 27.599C64.1188 27.8205 63.7597 27.8205 63.5383 27.599L56.401 20.4617C56.1795 20.2403 56.1795 19.8812 56.401 19.6597C56.6225 19.4383 56.9815 19.4383 57.203 19.6597L64.3402 26.797C64.5617 27.0185 64.5617 27.3775 64.3402 27.599Z" fill="#0064D1"/>
</g>
<g opacity="0.3">
<path fill-rule="evenodd" clip-rule="evenodd" d="M25.3402 12.401C25.1188 12.1795 24.7597 12.1795 24.5383 12.401L17.401 19.5383C17.1795 19.7597 17.1795 20.1188 17.401 20.3403C17.6225 20.5617 17.9815 20.5617 18.203 20.3403L25.3402 13.203C25.5617 12.9815 25.5617 12.6225 25.3402 12.401Z" fill="#0064D1"/>
<path fill-rule="evenodd" clip-rule="evenodd" d="M25.3402 27.599C25.1188 27.8205 24.7597 27.8205 24.5383 27.599L17.401 20.4617C17.1795 20.2403 17.1795 19.8812 17.401 19.6597C17.6225 19.4383 17.9815 19.4383 18.203 19.6597L25.3402 26.797C25.5617 27.0185 25.5617 27.3775 25.3402 27.599Z" fill="#0064D1"/>
<path fill-rule="evenodd" clip-rule="evenodd" d="M14.3706 12C14.0574 12 13.8035 12.3618 13.8035 12.8081L13.8035 27.1919C13.8035 27.6382 14.0574 28 14.3706 28C14.6838 28 14.9377 27.6382 14.9377 27.1919L14.9377 12.8081C14.9377 12.3618 14.6838 12 14.3706 12Z" fill="#0064D1"/>
</g>
<rect opacity="0.3" x="1" y="1" width="38" height="38" rx="19" stroke="#0064D1"/>
<rect x="139" y="1" width="38" height="38" rx="19" stroke="#0064D1"/>
<path d="M158.167 13.408C158.653 13.408 159.106 13.48 159.527 13.624C159.949 13.768 160.311 13.9787 160.615 14.256C160.925 14.528 161.167 14.8613 161.343 15.256C161.519 15.6507 161.607 16.0987 161.607 16.6C161.607 17.0267 161.543 17.4213 161.415 17.784C161.287 18.1467 161.114 18.496 160.895 18.832C160.677 19.1627 160.423 19.4853 160.135 19.8C159.853 20.1093 159.551 20.4267 159.231 20.752L156.215 23.84C156.429 23.7813 156.645 23.736 156.863 23.704C157.082 23.6667 157.293 23.648 157.495 23.648H161.335C161.49 23.648 161.613 23.6933 161.703 23.784C161.794 23.8747 161.839 23.992 161.839 24.136V25H154.191V24.512C154.191 24.4107 154.21 24.3067 154.247 24.2C154.29 24.0933 154.357 23.9947 154.447 23.904L158.119 20.216C158.423 19.9067 158.701 19.6107 158.951 19.328C159.202 19.04 159.415 18.752 159.591 18.464C159.773 18.176 159.911 17.8853 160.007 17.592C160.103 17.2933 160.151 16.976 160.151 16.64C160.151 16.304 160.098 16.0107 159.991 15.76C159.885 15.504 159.738 15.2933 159.551 15.128C159.365 14.9627 159.146 14.84 158.895 14.76C158.645 14.6747 158.375 14.632 158.087 14.632C157.799 14.632 157.533 14.6747 157.287 14.76C157.042 14.8453 156.823 14.9653 156.631 15.12C156.445 15.2693 156.285 15.448 156.151 15.656C156.023 15.864 155.933 16.0933 155.879 16.344C155.837 16.4987 155.773 16.6107 155.687 16.68C155.602 16.7493 155.49 16.784 155.351 16.784C155.325 16.784 155.295 16.784 155.263 16.784C155.237 16.7787 155.205 16.7733 155.167 16.768L154.423 16.64C154.498 16.1173 154.642 15.656 154.855 15.256C155.069 14.8507 155.338 14.512 155.663 14.24C155.994 13.968 156.37 13.7627 156.791 13.624C157.218 13.48 157.677 13.408 158.167 13.408Z" fill="#0064D1"/>
<rect x="180" y="1" width="38" height="38" rx="19" stroke="#0064D1"/>
<path d="M199.319 13.408C199.805 13.408 200.253 13.4773 200.663 13.616C201.074 13.7547 201.426 13.952 201.719 14.208C202.018 14.464 202.25 14.7733 202.415 15.136C202.581 15.4987 202.663 15.9013 202.663 16.344C202.663 16.7067 202.615 17.032 202.519 17.32C202.429 17.6027 202.295 17.8533 202.119 18.072C201.949 18.2853 201.741 18.4667 201.495 18.616C201.25 18.7653 200.975 18.8853 200.671 18.976C201.418 19.1733 201.978 19.504 202.351 19.968C202.73 20.432 202.919 21.0133 202.919 21.712C202.919 22.24 202.818 22.7147 202.615 23.136C202.418 23.5573 202.146 23.9173 201.799 24.216C201.453 24.5093 201.047 24.736 200.583 24.896C200.125 25.0507 199.631 25.128 199.103 25.128C198.495 25.128 197.975 25.0533 197.543 24.904C197.111 24.7493 196.746 24.5387 196.447 24.272C196.149 24.0053 195.903 23.6907 195.711 23.328C195.519 22.96 195.357 22.5627 195.223 22.136L195.831 21.88C195.943 21.832 196.055 21.808 196.167 21.808C196.274 21.808 196.367 21.832 196.447 21.88C196.533 21.9227 196.597 21.992 196.639 22.088C196.65 22.1093 196.661 22.1333 196.671 22.16C196.682 22.1813 196.693 22.2053 196.703 22.232C196.778 22.3867 196.869 22.5627 196.975 22.76C197.082 22.952 197.226 23.1333 197.407 23.304C197.589 23.4747 197.813 23.6187 198.079 23.736C198.351 23.8533 198.687 23.912 199.087 23.912C199.487 23.912 199.837 23.848 200.135 23.72C200.439 23.5867 200.69 23.416 200.887 23.208C201.09 23 201.242 22.768 201.343 22.512C201.445 22.256 201.495 22.0027 201.495 21.752C201.495 21.4427 201.453 21.16 201.367 20.904C201.287 20.648 201.138 20.4267 200.919 20.24C200.706 20.0533 200.407 19.9067 200.023 19.8C199.645 19.6933 199.157 19.64 198.559 19.64V18.608C199.045 18.6027 199.458 18.5493 199.799 18.448C200.146 18.3467 200.429 18.208 200.647 18.032C200.866 17.856 201.023 17.6453 201.119 17.4C201.221 17.1547 201.271 16.8827 201.271 16.584C201.271 16.2533 201.218 15.9653 201.111 15.72C201.01 15.4747 200.869 15.272 200.687 15.112C200.506 14.952 200.29 14.832 200.039 14.752C199.794 14.672 199.527 14.632 199.239 14.632C198.951 14.632 198.685 14.6747 198.439 14.76C198.194 14.8453 197.975 14.9653 197.783 15.12C197.597 15.2693 197.439 15.4507 197.311 15.664C197.183 15.872 197.087 16.0987 197.023 16.344C196.981 16.4987 196.917 16.6107 196.831 16.68C196.746 16.7493 196.637 16.784 196.503 16.784C196.477 16.784 196.447 16.784 196.415 16.784C196.389 16.7787 196.357 16.7733 196.319 16.768L195.575 16.64C195.65 16.1173 195.794 15.656 196.007 15.256C196.221 14.8507 196.49 14.512 196.815 14.24C197.146 13.968 197.522 13.7627 197.943 13.624C198.37 13.48 198.829 13.408 199.319 13.408Z" fill="#0064D1"/>
<rect x="221" y="1" width="38" height="38" rx="19" stroke="#0064D1"/>
<path d="M241.583 20.864H243.319V21.68C243.319 21.7653 243.293 21.8373 243.239 21.896C243.191 21.9547 243.114 21.984 243.007 21.984H241.583V25H240.327V21.984H235.247C235.141 21.984 235.047 21.9547 234.967 21.896C234.893 21.832 234.845 21.7547 234.823 21.664L234.679 20.936L240.255 13.536H241.583V20.864ZM240.327 16.136C240.327 15.9973 240.33 15.848 240.335 15.688C240.346 15.528 240.365 15.3627 240.391 15.192L236.223 20.864H240.327V16.136Z" fill="#0064D1"/>
<rect x="262" y="1" width="38" height="38" rx="19" stroke="#0064D1"/>
<path d="M284.183 14.16C284.183 14.3627 284.119 14.5307 283.991 14.664C283.863 14.792 283.647 14.856 283.343 14.856H279.743L279.215 17.864C279.813 17.736 280.365 17.672 280.871 17.672C281.469 17.672 281.994 17.76 282.447 17.936C282.906 18.112 283.29 18.3547 283.599 18.664C283.909 18.9733 284.141 19.3387 284.295 19.76C284.455 20.1813 284.535 20.64 284.535 21.136C284.535 21.744 284.429 22.2933 284.215 22.784C284.002 23.2747 283.709 23.696 283.335 24.048C282.967 24.3947 282.533 24.6613 282.031 24.848C281.53 25.0347 280.989 25.128 280.407 25.128C280.071 25.128 279.749 25.0933 279.439 25.024C279.13 24.96 278.842 24.872 278.575 24.76C278.309 24.648 278.061 24.52 277.831 24.376C277.602 24.232 277.399 24.08 277.223 23.92L277.655 23.312C277.751 23.1733 277.879 23.104 278.039 23.104C278.141 23.104 278.258 23.1467 278.391 23.232C278.53 23.312 278.695 23.4027 278.887 23.504C279.079 23.6053 279.303 23.6987 279.559 23.784C279.821 23.864 280.13 23.904 280.487 23.904C280.887 23.904 281.247 23.84 281.567 23.712C281.887 23.584 282.159 23.4027 282.383 23.168C282.613 22.928 282.789 22.6427 282.911 22.312C283.034 21.9813 283.095 21.6107 283.095 21.2C283.095 20.8427 283.042 20.52 282.935 20.232C282.834 19.944 282.677 19.6987 282.463 19.496C282.255 19.2933 281.994 19.136 281.679 19.024C281.365 18.912 280.997 18.856 280.575 18.856C280.287 18.856 279.989 18.88 279.679 18.928C279.37 18.976 279.05 19.0533 278.719 19.16L277.823 18.896L278.751 13.536H284.183V14.16Z" fill="#0064D1"/>
<rect x="98" y="1" width="38" height="38" rx="19" fill="#0064D1" stroke="#0064D1"/>
<path d="M113.655 23.912H116.119V16.096C116.119 15.8613 116.127 15.624 116.143 15.384L114.095 17.136C114.042 17.1787 113.989 17.2107 113.935 17.232C113.882 17.248 113.831 17.256 113.783 17.256C113.703 17.256 113.631 17.24 113.567 17.208C113.503 17.1707 113.455 17.128 113.423 17.08L112.975 16.464L116.383 13.512H117.543V23.912H119.799V25H113.655V23.912Z" fill="white"/>
<rect x="359" y="1" width="38" height="38" rx="19" stroke="#0064D1"/>
<path fill-rule="evenodd" clip-rule="evenodd" d="M373.401 12.401C373.622 12.1795 373.982 12.1795 374.203 12.401L381.34 19.5383C381.562 19.7597 381.562 20.1188 381.34 20.3403C381.119 20.5617 380.76 20.5617 380.538 20.3403L373.401 13.203C373.18 12.9815 373.18 12.6225 373.401 12.401Z" fill="#0064D1"/>
<path fill-rule="evenodd" clip-rule="evenodd" d="M373.401 27.599C373.622 27.8205 373.982 27.8205 374.203 27.599L381.34 20.4617C381.562 20.2403 381.562 19.8812 381.34 19.6597C381.119 19.4383 380.76 19.4383 380.538 19.6597L373.401 26.797C373.18 27.0185 373.18 27.3775 373.401 27.599Z" fill="#0064D1"/>
<path fill-rule="evenodd" clip-rule="evenodd" d="M331.205 12.401C331.426 12.1795 331.785 12.1795 332.006 12.401L339.144 19.5383C339.365 19.7597 339.365 20.1188 339.144 20.3403C338.922 20.5617 338.563 20.5617 338.342 20.3403L331.205 13.203C330.983 12.9815 330.983 12.6225 331.205 12.401Z" fill="#0064D1"/>
<path fill-rule="evenodd" clip-rule="evenodd" d="M331.205 27.599C331.426 27.8205 331.785 27.8205 332.006 27.599L339.144 20.4617C339.365 20.2403 339.365 19.8812 339.144 19.6597C338.922 19.4383 338.563 19.4383 338.342 19.6597L331.205 26.797C330.983 27.0185 330.983 27.3775 331.205 27.599Z" fill="#0064D1"/>
<path fill-rule="evenodd" clip-rule="evenodd" d="M342.174 12C342.487 12 342.741 12.3618 342.741 12.8081L342.741 27.1919C342.741 27.6382 342.487 28 342.174 28C341.861 28 341.607 27.6382 341.607 27.1919L341.607 12.8081C341.607 12.3618 341.861 12 342.174 12Z" fill="#0064D1"/>
<rect x="318" y="1" width="38" height="38" rx="19" stroke="#0064D1"/>
</svg>
