<svg width="755" height="60" viewBox="0 0 755 60" fill="none" xmlns="http://www.w3.org/2000/svg">
<g opacity="0.3">
<rect x="681" y="14" width="32" height="32" rx="16" stroke="#2656C9"/>
<path fill-rule="evenodd" clip-rule="evenodd" d="M700.298 23.3509C700.104 23.1571 699.79 23.1571 699.596 23.3509L693.351 29.596C693.157 29.7898 693.157 30.1039 693.351 30.2977C693.545 30.4915 693.859 30.4915 694.053 30.2977L700.298 24.0526C700.491 23.8588 700.491 23.5446 700.298 23.3509Z" fill="#2656C9"/>
<path fill-rule="evenodd" clip-rule="evenodd" d="M700.298 36.6491C700.104 36.8429 699.79 36.8429 699.596 36.6491L693.351 30.404C693.157 30.2102 693.157 29.8961 693.351 29.7023C693.545 29.5085 693.859 29.5085 694.053 29.7023L700.298 35.9474C700.491 36.1412 700.491 36.4554 700.298 36.6491Z" fill="#2656C9"/>
</g>
<rect x="722" y="14" width="32" height="32" rx="16" stroke="#2656C9"/>
<path fill-rule="evenodd" clip-rule="evenodd" d="M735.351 23.3509C735.545 23.1571 735.859 23.1571 736.053 23.3509L742.298 29.596C742.491 29.7898 742.491 30.1039 742.298 30.2977C742.104 30.4915 741.79 30.4915 741.596 30.2977L735.351 24.0526C735.157 23.8588 735.157 23.5446 735.351 23.3509Z" fill="#2656C9"/>
<path fill-rule="evenodd" clip-rule="evenodd" d="M735.351 36.6491C735.545 36.8429 735.859 36.8429 736.053 36.6491L742.298 30.404C742.491 30.2102 742.491 29.8961 742.298 29.7023C742.104 29.5085 741.79 29.5085 741.596 29.7023L735.351 35.9474C735.157 36.1412 735.157 36.4554 735.351 36.6491Z" fill="#2656C9"/>
<path d="M244.003 24.408C244.489 24.408 244.942 24.48 245.363 24.624C245.785 24.768 246.147 24.9787 246.451 25.256C246.761 25.528 247.003 25.8613 247.179 26.256C247.355 26.6507 247.443 27.0987 247.443 27.6C247.443 28.0267 247.379 28.4213 247.251 28.784C247.123 29.1467 246.95 29.496 246.731 29.832C246.513 30.1627 246.259 30.4853 245.971 30.8C245.689 31.1093 245.387 31.4267 245.067 31.752L242.051 34.84C242.265 34.7813 242.481 34.736 242.699 34.704C242.918 34.6667 243.129 34.648 243.331 34.648H247.171C247.326 34.648 247.449 34.6933 247.539 34.784C247.63 34.8747 247.675 34.992 247.675 35.136V36H240.027V35.512C240.027 35.4107 240.046 35.3067 240.083 35.2C240.126 35.0933 240.193 34.9947 240.283 34.904L243.955 31.216C244.259 30.9067 244.537 30.6107 244.787 30.328C245.038 30.04 245.251 29.752 245.427 29.464C245.609 29.176 245.747 28.8853 245.843 28.592C245.939 28.2933 245.987 27.976 245.987 27.64C245.987 27.304 245.934 27.0107 245.827 26.76C245.721 26.504 245.574 26.2933 245.387 26.128C245.201 25.9627 244.982 25.84 244.731 25.76C244.481 25.6747 244.211 25.632 243.923 25.632C243.635 25.632 243.369 25.6747 243.123 25.76C242.878 25.8453 242.659 25.9653 242.467 26.12C242.281 26.2693 242.121 26.448 241.987 26.656C241.859 26.864 241.769 27.0933 241.715 27.344C241.673 27.4987 241.609 27.6107 241.523 27.68C241.438 27.7493 241.326 27.784 241.187 27.784C241.161 27.784 241.131 27.784 241.099 27.784C241.073 27.7787 241.041 27.7733 241.003 27.768L240.259 27.64C240.334 27.1173 240.478 26.656 240.691 26.256C240.905 25.8507 241.174 25.512 241.499 25.24C241.83 24.968 242.206 24.7627 242.627 24.624C243.054 24.48 243.513 24.408 244.003 24.408ZM250.773 34.912H253.237V27.096C253.237 26.8613 253.245 26.624 253.261 26.384L251.213 28.136C251.159 28.1787 251.106 28.2107 251.053 28.232C250.999 28.248 250.949 28.256 250.901 28.256C250.821 28.256 250.749 28.24 250.685 28.208C250.621 28.1707 250.573 28.128 250.541 28.08L250.093 27.464L253.501 24.512H254.661V34.912H256.917V36H250.773V34.912ZM258.558 30.6H262.51V31.808H258.558V30.6ZM270.529 31.864H272.265V32.68C272.265 32.7653 272.238 32.8373 272.185 32.896C272.137 32.9547 272.059 32.984 271.953 32.984H270.529V36H269.273V32.984H264.193C264.086 32.984 263.993 32.9547 263.913 32.896C263.838 32.832 263.79 32.7547 263.769 32.664L263.625 31.936L269.201 24.536H270.529V31.864ZM269.273 27.136C269.273 26.9973 269.275 26.848 269.281 26.688C269.291 26.528 269.31 26.3627 269.337 26.192L265.169 31.864H269.273V27.136ZM281.386 30.272C281.386 31.2747 281.277 32.144 281.058 32.88C280.845 33.6107 280.551 34.216 280.178 34.696C279.805 35.176 279.362 35.5333 278.85 35.768C278.343 36.0027 277.799 36.12 277.218 36.12C276.631 36.12 276.085 36.0027 275.578 35.768C275.077 35.5333 274.639 35.176 274.266 34.696C273.893 34.216 273.599 33.6107 273.386 32.88C273.173 32.144 273.066 31.2747 273.066 30.272C273.066 29.2693 273.173 28.4 273.386 27.664C273.599 26.928 273.893 26.32 274.266 25.84C274.639 25.3547 275.077 24.9947 275.578 24.76C276.085 24.5253 276.631 24.408 277.218 24.408C277.799 24.408 278.343 24.5253 278.85 24.76C279.362 24.9947 279.805 25.3547 280.178 25.84C280.551 26.32 280.845 26.928 281.058 27.664C281.277 28.4 281.386 29.2693 281.386 30.272ZM279.906 30.272C279.906 29.3973 279.831 28.664 279.682 28.072C279.538 27.4747 279.341 26.9947 279.09 26.632C278.845 26.2693 278.559 26.0107 278.234 25.856C277.909 25.696 277.57 25.616 277.218 25.616C276.866 25.616 276.527 25.696 276.202 25.856C275.877 26.0107 275.591 26.2693 275.346 26.632C275.101 26.9947 274.903 27.4747 274.754 28.072C274.61 28.664 274.538 29.3973 274.538 30.272C274.538 31.1467 274.61 31.88 274.754 32.472C274.903 33.064 275.101 33.5413 275.346 33.904C275.591 34.2667 275.877 34.528 276.202 34.688C276.527 34.8427 276.866 34.92 277.218 34.92C277.57 34.92 277.909 34.8427 278.234 34.688C278.559 34.528 278.845 34.2667 279.09 33.904C279.341 33.5413 279.538 33.064 279.682 32.472C279.831 31.88 279.906 31.1467 279.906 30.272ZM289.409 27.768C290.001 27.768 290.534 27.8667 291.009 28.064C291.489 28.2613 291.894 28.5413 292.225 28.904C292.561 29.2667 292.817 29.7067 292.993 30.224C293.174 30.736 293.265 31.3093 293.265 31.944C293.265 32.584 293.174 33.16 292.993 33.672C292.817 34.184 292.561 34.6213 292.225 34.984C291.894 35.3467 291.489 35.6267 291.009 35.824C290.534 36.016 290.001 36.112 289.409 36.112C288.817 36.112 288.281 36.016 287.801 35.824C287.326 35.6267 286.921 35.3467 286.585 34.984C286.249 34.6213 285.99 34.184 285.809 33.672C285.628 33.16 285.537 32.584 285.537 31.944C285.537 31.3093 285.628 30.736 285.809 30.224C285.99 29.7067 286.249 29.2667 286.585 28.904C286.921 28.5413 287.326 28.2613 287.801 28.064C288.281 27.8667 288.817 27.768 289.409 27.768ZM289.409 35C290.209 35 290.806 34.7333 291.201 34.2C291.596 33.6613 291.793 32.912 291.793 31.952C291.793 30.9867 291.596 30.2347 291.201 29.696C290.806 29.1573 290.209 28.888 289.409 28.888C289.004 28.888 288.652 28.9573 288.353 29.096C288.054 29.2347 287.804 29.4347 287.601 29.696C287.404 29.9573 287.254 30.28 287.153 30.664C287.057 31.0427 287.009 31.472 287.009 31.952C287.009 32.432 287.057 32.8613 287.153 33.24C287.254 33.6187 287.404 33.9387 287.601 34.2C287.804 34.456 288.054 34.6533 288.353 34.792C288.652 34.9307 289.004 35 289.409 35ZM295.34 36V29.112L294.444 29.008C294.332 28.9813 294.238 28.9413 294.164 28.888C294.094 28.8293 294.06 28.7467 294.06 28.64V28.056H295.34V27.272C295.34 26.808 295.404 26.3973 295.532 26.04C295.665 25.6773 295.852 25.3733 296.092 25.128C296.337 24.8773 296.63 24.688 296.972 24.56C297.313 24.432 297.697 24.368 298.124 24.368C298.486 24.368 298.822 24.4213 299.132 24.528L299.1 25.24C299.094 25.3467 299.049 25.4107 298.964 25.432C298.878 25.4533 298.758 25.464 298.604 25.464H298.356C298.11 25.464 297.886 25.496 297.684 25.56C297.486 25.624 297.316 25.728 297.172 25.872C297.028 26.016 296.916 26.2053 296.836 26.44C296.761 26.6747 296.724 26.9653 296.724 27.312V28.056H299.068V29.088H296.772V36H295.34ZM304.632 34.912H307.096V27.096C307.096 26.8613 307.104 26.624 307.12 26.384L305.072 28.136C305.019 28.1787 304.965 28.2107 304.912 28.232C304.859 28.248 304.808 28.256 304.76 28.256C304.68 28.256 304.608 28.24 304.544 28.208C304.48 28.1707 304.432 28.128 304.4 28.08L303.952 27.464L307.36 24.512H308.52V34.912H310.776V36H304.632V34.912ZM320.417 30.272C320.417 31.2747 320.308 32.144 320.089 32.88C319.876 33.6107 319.583 34.216 319.209 34.696C318.836 35.176 318.393 35.5333 317.881 35.768C317.375 36.0027 316.831 36.12 316.249 36.12C315.663 36.12 315.116 36.0027 314.609 35.768C314.108 35.5333 313.671 35.176 313.297 34.696C312.924 34.216 312.631 33.6107 312.417 32.88C312.204 32.144 312.097 31.2747 312.097 30.272C312.097 29.2693 312.204 28.4 312.417 27.664C312.631 26.928 312.924 26.32 313.297 25.84C313.671 25.3547 314.108 24.9947 314.609 24.76C315.116 24.5253 315.663 24.408 316.249 24.408C316.831 24.408 317.375 24.5253 317.881 24.76C318.393 24.9947 318.836 25.3547 319.209 25.84C319.583 26.32 319.876 26.928 320.089 27.664C320.308 28.4 320.417 29.2693 320.417 30.272ZM318.937 30.272C318.937 29.3973 318.863 28.664 318.713 28.072C318.569 27.4747 318.372 26.9947 318.121 26.632C317.876 26.2693 317.591 26.0107 317.265 25.856C316.94 25.696 316.601 25.616 316.249 25.616C315.897 25.616 315.559 25.696 315.233 25.856C314.908 26.0107 314.623 26.2693 314.377 26.632C314.132 26.9947 313.935 27.4747 313.785 28.072C313.641 28.664 313.569 29.3973 313.569 30.272C313.569 31.1467 313.641 31.88 313.785 32.472C313.935 33.064 314.132 33.5413 314.377 33.904C314.623 34.2667 314.908 34.528 315.233 34.688C315.559 34.8427 315.897 34.92 316.249 34.92C316.601 34.92 316.94 34.8427 317.265 34.688C317.591 34.528 317.876 34.2667 318.121 33.904C318.372 33.5413 318.569 33.064 318.713 32.472C318.863 31.88 318.937 31.1467 318.937 30.272ZM325.858 24.408C326.344 24.408 326.792 24.4773 327.202 24.616C327.613 24.7547 327.965 24.952 328.258 25.208C328.557 25.464 328.789 25.7733 328.954 26.136C329.12 26.4987 329.202 26.9013 329.202 27.344C329.202 27.7067 329.154 28.032 329.058 28.32C328.968 28.6027 328.834 28.8533 328.658 29.072C328.488 29.2853 328.28 29.4667 328.034 29.616C327.789 29.7653 327.514 29.8853 327.21 29.976C327.957 30.1733 328.517 30.504 328.89 30.968C329.269 31.432 329.458 32.0133 329.458 32.712C329.458 33.24 329.357 33.7147 329.154 34.136C328.957 34.5573 328.685 34.9173 328.338 35.216C327.992 35.5093 327.586 35.736 327.122 35.896C326.664 36.0507 326.17 36.128 325.642 36.128C325.034 36.128 324.514 36.0533 324.082 35.904C323.65 35.7493 323.285 35.5387 322.986 35.272C322.688 35.0053 322.442 34.6907 322.25 34.328C322.058 33.96 321.896 33.5627 321.762 33.136L322.37 32.88C322.482 32.832 322.594 32.808 322.706 32.808C322.813 32.808 322.906 32.832 322.986 32.88C323.072 32.9227 323.136 32.992 323.178 33.088C323.189 33.1093 323.2 33.1333 323.21 33.16C323.221 33.1813 323.232 33.2053 323.242 33.232C323.317 33.3867 323.408 33.5627 323.514 33.76C323.621 33.952 323.765 34.1333 323.946 34.304C324.128 34.4747 324.352 34.6187 324.618 34.736C324.89 34.8533 325.226 34.912 325.626 34.912C326.026 34.912 326.376 34.848 326.674 34.72C326.978 34.5867 327.229 34.416 327.426 34.208C327.629 34 327.781 33.768 327.882 33.512C327.984 33.256 328.034 33.0027 328.034 32.752C328.034 32.4427 327.992 32.16 327.906 31.904C327.826 31.648 327.677 31.4267 327.458 31.24C327.245 31.0533 326.946 30.9067 326.562 30.8C326.184 30.6933 325.696 30.64 325.098 30.64V29.608C325.584 29.6027 325.997 29.5493 326.338 29.448C326.685 29.3467 326.968 29.208 327.186 29.032C327.405 28.856 327.562 28.6453 327.658 28.4C327.76 28.1547 327.81 27.8827 327.81 27.584C327.81 27.2533 327.757 26.9653 327.65 26.72C327.549 26.4747 327.408 26.272 327.226 26.112C327.045 25.952 326.829 25.832 326.578 25.752C326.333 25.672 326.066 25.632 325.778 25.632C325.49 25.632 325.224 25.6747 324.978 25.76C324.733 25.8453 324.514 25.9653 324.322 26.12C324.136 26.2693 323.978 26.4507 323.85 26.664C323.722 26.872 323.626 27.0987 323.562 27.344C323.52 27.4987 323.456 27.6107 323.37 27.68C323.285 27.7493 323.176 27.784 323.042 27.784C323.016 27.784 322.986 27.784 322.954 27.784C322.928 27.7787 322.896 27.7733 322.858 27.768L322.114 27.64C322.189 27.1173 322.333 26.656 322.546 26.256C322.76 25.8507 323.029 25.512 323.354 25.24C323.685 24.968 324.061 24.7627 324.482 24.624C324.909 24.48 325.368 24.408 325.858 24.408ZM336.025 27.896V36H334.601V27.896H336.025ZM336.345 25.352C336.345 25.4907 336.316 25.6213 336.257 25.744C336.204 25.8613 336.129 25.968 336.033 26.064C335.943 26.1547 335.836 26.2267 335.713 26.28C335.591 26.3333 335.46 26.36 335.321 26.36C335.183 26.36 335.052 26.3333 334.929 26.28C334.812 26.2267 334.705 26.1547 334.609 26.064C334.519 25.968 334.447 25.8613 334.393 25.744C334.34 25.6213 334.313 25.4907 334.313 25.352C334.313 25.2133 334.34 25.0827 334.393 24.96C334.447 24.832 334.519 24.7227 334.609 24.632C334.705 24.536 334.812 24.4613 334.929 24.408C335.052 24.3547 335.183 24.328 335.321 24.328C335.46 24.328 335.591 24.3547 335.713 24.408C335.836 24.4613 335.943 24.536 336.033 24.632C336.129 24.7227 336.204 24.832 336.257 24.96C336.316 25.0827 336.345 25.2133 336.345 25.352ZM340.991 36.128C340.351 36.128 339.858 35.9493 339.511 35.592C339.17 35.2347 338.999 34.72 338.999 34.048V29.088H338.023C337.938 29.088 337.866 29.064 337.807 29.016C337.749 28.9627 337.719 28.8827 337.719 28.776V28.208L339.047 28.04L339.375 25.536C339.386 25.456 339.421 25.392 339.479 25.344C339.538 25.2907 339.613 25.264 339.703 25.264H340.423V28.056H342.743V29.088H340.423V33.952C340.423 34.2933 340.506 34.5467 340.671 34.712C340.837 34.8773 341.05 34.96 341.311 34.96C341.461 34.96 341.589 34.9413 341.695 34.904C341.807 34.8613 341.903 34.816 341.983 34.768C342.063 34.72 342.13 34.6773 342.183 34.64C342.242 34.5973 342.293 34.576 342.335 34.576C342.41 34.576 342.477 34.6213 342.535 34.712L342.951 35.392C342.706 35.6213 342.41 35.8027 342.063 35.936C341.717 36.064 341.359 36.128 340.991 36.128ZM347.712 27.768C348.197 27.768 348.645 27.8507 349.056 28.016C349.467 28.176 349.821 28.4107 350.12 28.72C350.419 29.024 350.651 29.4027 350.816 29.856C350.987 30.304 351.072 30.816 351.072 31.392C351.072 31.616 351.048 31.7653 351 31.84C350.952 31.9147 350.861 31.952 350.728 31.952H345.336C345.347 32.464 345.416 32.9093 345.544 33.288C345.672 33.6667 345.848 33.984 346.072 34.24C346.296 34.4907 346.563 34.68 346.872 34.808C347.181 34.9307 347.528 34.992 347.912 34.992C348.269 34.992 348.576 34.952 348.832 34.872C349.093 34.7867 349.317 34.696 349.504 34.6C349.691 34.504 349.845 34.416 349.968 34.336C350.096 34.2507 350.205 34.208 350.296 34.208C350.413 34.208 350.504 34.2533 350.568 34.344L350.968 34.864C350.792 35.0773 350.581 35.264 350.336 35.424C350.091 35.5787 349.827 35.7067 349.544 35.808C349.267 35.9093 348.979 35.984 348.68 36.032C348.381 36.0853 348.085 36.112 347.792 36.112C347.232 36.112 346.715 36.0187 346.24 35.832C345.771 35.64 345.363 35.3627 345.016 35C344.675 34.632 344.408 34.1787 344.216 33.64C344.024 33.1013 343.928 32.4827 343.928 31.784C343.928 31.2187 344.013 30.6907 344.184 30.2C344.36 29.7093 344.611 29.2853 344.936 28.928C345.261 28.5653 345.659 28.2827 346.128 28.08C346.597 27.872 347.125 27.768 347.712 27.768ZM347.744 28.816C347.056 28.816 346.515 29.016 346.12 29.416C345.725 29.8107 345.48 30.36 345.384 31.064H349.792C349.792 30.7333 349.747 30.432 349.656 30.16C349.565 29.8827 349.432 29.6453 349.256 29.448C349.08 29.2453 348.864 29.0907 348.608 28.984C348.357 28.872 348.069 28.816 347.744 28.816ZM352.895 36V27.896H353.743C353.945 27.896 354.073 27.9947 354.127 28.192L354.231 29.024C354.529 28.656 354.863 28.3547 355.231 28.12C355.604 27.8853 356.036 27.768 356.527 27.768C357.076 27.768 357.519 27.92 357.855 28.224C358.196 28.528 358.441 28.9387 358.591 29.456C358.703 29.1627 358.849 28.9093 359.031 28.696C359.217 28.4827 359.425 28.3067 359.655 28.168C359.884 28.0293 360.127 27.928 360.383 27.864C360.644 27.8 360.908 27.768 361.175 27.768C361.601 27.768 361.98 27.8373 362.311 27.976C362.647 28.1093 362.929 28.3067 363.159 28.568C363.393 28.8293 363.572 29.152 363.695 29.536C363.817 29.9147 363.879 30.3493 363.879 30.84V36H362.455V30.84C362.455 30.2053 362.316 29.7253 362.039 29.4C361.761 29.0693 361.359 28.904 360.831 28.904C360.596 28.904 360.372 28.9467 360.159 29.032C359.951 29.112 359.767 29.232 359.607 29.392C359.447 29.552 359.319 29.7547 359.223 30C359.132 30.24 359.087 30.52 359.087 30.84V36H357.663V30.84C357.663 30.1893 357.532 29.704 357.271 29.384C357.009 29.064 356.628 28.904 356.127 28.904C355.775 28.904 355.447 29 355.143 29.192C354.844 29.3787 354.569 29.6347 354.319 29.96V36H352.895ZM370.675 29.232C370.611 29.3493 370.513 29.408 370.379 29.408C370.299 29.408 370.209 29.3787 370.107 29.32C370.006 29.2613 369.881 29.1973 369.731 29.128C369.587 29.0533 369.414 28.9867 369.211 28.928C369.009 28.864 368.769 28.832 368.491 28.832C368.251 28.832 368.035 28.864 367.843 28.928C367.651 28.9867 367.486 29.0693 367.347 29.176C367.214 29.2827 367.11 29.408 367.035 29.552C366.966 29.6907 366.931 29.8427 366.931 30.008C366.931 30.216 366.99 30.3893 367.107 30.528C367.23 30.6667 367.39 30.7867 367.587 30.888C367.785 30.9893 368.009 31.08 368.259 31.16C368.51 31.2347 368.766 31.3173 369.027 31.408C369.294 31.4933 369.553 31.5893 369.803 31.696C370.054 31.8027 370.278 31.936 370.475 32.096C370.673 32.256 370.83 32.4533 370.947 32.688C371.07 32.9173 371.131 33.1947 371.131 33.52C371.131 33.8933 371.065 34.24 370.931 34.56C370.798 34.8747 370.601 35.1493 370.339 35.384C370.078 35.6133 369.758 35.7947 369.379 35.928C369.001 36.0613 368.563 36.128 368.067 36.128C367.502 36.128 366.99 36.0373 366.531 35.856C366.073 35.6693 365.683 35.432 365.363 35.144L365.699 34.6C365.742 34.5307 365.793 34.4773 365.851 34.44C365.91 34.4027 365.987 34.384 366.083 34.384C366.179 34.384 366.281 34.4213 366.387 34.496C366.494 34.5707 366.622 34.6533 366.771 34.744C366.926 34.8347 367.11 34.9173 367.323 34.992C367.542 35.0667 367.814 35.104 368.139 35.104C368.417 35.104 368.659 35.0693 368.867 35C369.075 34.9253 369.249 34.8267 369.387 34.704C369.526 34.5813 369.627 34.44 369.691 34.28C369.761 34.12 369.795 33.9493 369.795 33.768C369.795 33.544 369.734 33.36 369.611 33.216C369.494 33.0667 369.337 32.9413 369.139 32.84C368.942 32.7333 368.715 32.6427 368.459 32.568C368.209 32.488 367.95 32.4053 367.683 32.32C367.422 32.2347 367.163 32.1387 366.907 32.032C366.657 31.92 366.433 31.7813 366.235 31.616C366.038 31.4507 365.878 31.248 365.755 31.008C365.638 30.7627 365.579 30.4667 365.579 30.12C365.579 29.8107 365.643 29.5147 365.771 29.232C365.899 28.944 366.086 28.6933 366.331 28.48C366.577 28.2613 366.878 28.088 367.235 27.96C367.593 27.832 368.001 27.768 368.459 27.768C368.993 27.768 369.47 27.8533 369.891 28.024C370.318 28.1893 370.686 28.4187 370.995 28.712L370.675 29.232Z" fill="black"/>
<path d="M3.232 36H1.68V24.536H3.232V36ZM8.53025 36.128C7.89025 36.128 7.39692 35.9493 7.05025 35.592C6.70892 35.2347 6.53825 34.72 6.53825 34.048V29.088H5.56225C5.47692 29.088 5.40492 29.064 5.34625 29.016C5.28758 28.9627 5.25825 28.8827 5.25825 28.776V28.208L6.58625 28.04L6.91425 25.536C6.92492 25.456 6.95958 25.392 7.01825 25.344C7.07692 25.2907 7.15158 25.264 7.24225 25.264H7.96225V28.056H10.2823V29.088H7.96225V33.952C7.96225 34.2933 8.04492 34.5467 8.21025 34.712C8.37558 34.8773 8.58892 34.96 8.85025 34.96C8.99958 34.96 9.12758 34.9413 9.23425 34.904C9.34625 34.8613 9.44225 34.816 9.52225 34.768C9.60225 34.72 9.66892 34.6773 9.72225 34.64C9.78092 34.5973 9.83158 34.576 9.87425 34.576C9.94892 34.576 10.0156 34.6213 10.0743 34.712L10.4903 35.392C10.2449 35.6213 9.94892 35.8027 9.60225 35.936C9.25558 36.064 8.89825 36.128 8.53025 36.128ZM15.251 27.768C15.7363 27.768 16.1843 27.8507 16.595 28.016C17.0057 28.176 17.3603 28.4107 17.659 28.72C17.9577 29.024 18.1897 29.4027 18.355 29.856C18.5257 30.304 18.611 30.816 18.611 31.392C18.611 31.616 18.587 31.7653 18.539 31.84C18.491 31.9147 18.4003 31.952 18.267 31.952H12.875C12.8857 32.464 12.955 32.9093 13.083 33.288C13.211 33.6667 13.387 33.984 13.611 34.24C13.835 34.4907 14.1017 34.68 14.411 34.808C14.7203 34.9307 15.067 34.992 15.451 34.992C15.8083 34.992 16.115 34.952 16.371 34.872C16.6323 34.7867 16.8563 34.696 17.043 34.6C17.2297 34.504 17.3843 34.416 17.507 34.336C17.635 34.2507 17.7443 34.208 17.835 34.208C17.9523 34.208 18.043 34.2533 18.107 34.344L18.507 34.864C18.331 35.0773 18.1203 35.264 17.875 35.424C17.6297 35.5787 17.3657 35.7067 17.083 35.808C16.8057 35.9093 16.5177 35.984 16.219 36.032C15.9203 36.0853 15.6243 36.112 15.331 36.112C14.771 36.112 14.2537 36.0187 13.779 35.832C13.3097 35.64 12.9017 35.3627 12.555 35C12.2137 34.632 11.947 34.1787 11.755 33.64C11.563 33.1013 11.467 32.4827 11.467 31.784C11.467 31.2187 11.5523 30.6907 11.723 30.2C11.899 29.7093 12.1497 29.2853 12.475 28.928C12.8003 28.5653 13.1977 28.2827 13.667 28.08C14.1363 27.872 14.6643 27.768 15.251 27.768ZM15.283 28.816C14.595 28.816 14.0537 29.016 13.659 29.416C13.2643 29.8107 13.019 30.36 12.923 31.064H17.331C17.331 30.7333 17.2857 30.432 17.195 30.16C17.1043 29.8827 16.971 29.6453 16.795 29.448C16.619 29.2453 16.403 29.0907 16.147 28.984C15.8963 28.872 15.6083 28.816 15.283 28.816ZM20.4336 36V27.896H21.2816C21.4843 27.896 21.6123 27.9947 21.6656 28.192L21.7696 29.024C22.0683 28.656 22.4016 28.3547 22.7696 28.12C23.143 27.8853 23.575 27.768 24.0656 27.768C24.615 27.768 25.0576 27.92 25.3936 28.224C25.735 28.528 25.9803 28.9387 26.1296 29.456C26.2416 29.1627 26.3883 28.9093 26.5696 28.696C26.7563 28.4827 26.9643 28.3067 27.1936 28.168C27.423 28.0293 27.6656 27.928 27.9216 27.864C28.183 27.8 28.447 27.768 28.7136 27.768C29.1403 27.768 29.519 27.8373 29.8496 27.976C30.1856 28.1093 30.4683 28.3067 30.6976 28.568C30.9323 28.8293 31.111 29.152 31.2336 29.536C31.3563 29.9147 31.4176 30.3493 31.4176 30.84V36H29.9936V30.84C29.9936 30.2053 29.855 29.7253 29.5776 29.4C29.3003 29.0693 28.8976 28.904 28.3696 28.904C28.135 28.904 27.911 28.9467 27.6976 29.032C27.4896 29.112 27.3056 29.232 27.1456 29.392C26.9856 29.552 26.8576 29.7547 26.7616 30C26.671 30.24 26.6256 30.52 26.6256 30.84V36H25.2016V30.84C25.2016 30.1893 25.071 29.704 24.8096 29.384C24.5483 29.064 24.167 28.904 23.6656 28.904C23.3136 28.904 22.9856 29 22.6816 29.192C22.383 29.3787 22.1083 29.6347 21.8576 29.96V36H20.4336ZM38.2143 29.232C38.1503 29.3493 38.0516 29.408 37.9183 29.408C37.8383 29.408 37.7476 29.3787 37.6463 29.32C37.5449 29.2613 37.4196 29.1973 37.2703 29.128C37.1263 29.0533 36.9529 28.9867 36.7503 28.928C36.5476 28.864 36.3076 28.832 36.0303 28.832C35.7903 28.832 35.5743 28.864 35.3823 28.928C35.1903 28.9867 35.0249 29.0693 34.8863 29.176C34.7529 29.2827 34.6489 29.408 34.5743 29.552C34.5049 29.6907 34.4703 29.8427 34.4703 30.008C34.4703 30.216 34.5289 30.3893 34.6463 30.528C34.7689 30.6667 34.9289 30.7867 35.1263 30.888C35.3236 30.9893 35.5476 31.08 35.7983 31.16C36.0489 31.2347 36.3049 31.3173 36.5663 31.408C36.8329 31.4933 37.0916 31.5893 37.3423 31.696C37.5929 31.8027 37.8169 31.936 38.0143 32.096C38.2116 32.256 38.3689 32.4533 38.4863 32.688C38.6089 32.9173 38.6703 33.1947 38.6703 33.52C38.6703 33.8933 38.6036 34.24 38.4703 34.56C38.3369 34.8747 38.1396 35.1493 37.8783 35.384C37.6169 35.6133 37.2969 35.7947 36.9183 35.928C36.5396 36.0613 36.1023 36.128 35.6063 36.128C35.0409 36.128 34.5289 36.0373 34.0703 35.856C33.6116 35.6693 33.2223 35.432 32.9023 35.144L33.2383 34.6C33.2809 34.5307 33.3316 34.4773 33.3903 34.44C33.4489 34.4027 33.5263 34.384 33.6223 34.384C33.7183 34.384 33.8196 34.4213 33.9263 34.496C34.0329 34.5707 34.1609 34.6533 34.3103 34.744C34.4649 34.8347 34.6489 34.9173 34.8623 34.992C35.0809 35.0667 35.3529 35.104 35.6783 35.104C35.9556 35.104 36.1983 35.0693 36.4062 35C36.6143 34.9253 36.7876 34.8267 36.9262 34.704C37.0649 34.5813 37.1663 34.44 37.2303 34.28C37.2996 34.12 37.3343 33.9493 37.3343 33.768C37.3343 33.544 37.2729 33.36 37.1503 33.216C37.0329 33.0667 36.8756 32.9413 36.6783 32.84C36.4809 32.7333 36.2543 32.6427 35.9983 32.568C35.7476 32.488 35.4889 32.4053 35.2223 32.32C34.9609 32.2347 34.7023 32.1387 34.4463 32.032C34.1956 31.92 33.9716 31.7813 33.7743 31.616C33.5769 31.4507 33.4169 31.248 33.2943 31.008C33.1769 30.7627 33.1183 30.4667 33.1183 30.12C33.1183 29.8107 33.1823 29.5147 33.3103 29.232C33.4383 28.944 33.6249 28.6933 33.8703 28.48C34.1156 28.2613 34.4169 28.088 34.7743 27.96C35.1316 27.832 35.5396 27.768 35.9983 27.768C36.5316 27.768 37.0089 27.8533 37.4303 28.024C37.8569 28.1893 38.2249 28.4187 38.5343 28.712L38.2143 29.232ZM43.6055 38.744V27.896H44.4535C44.6562 27.896 44.7842 27.9947 44.8375 28.192L44.9575 29.152C45.3042 28.7307 45.6988 28.392 46.1415 28.136C46.5895 27.88 47.1042 27.752 47.6855 27.752C48.1495 27.752 48.5708 27.8427 48.9495 28.024C49.3282 28.2 49.6508 28.464 49.9175 28.816C50.1842 29.1627 50.3895 29.5947 50.5335 30.112C50.6775 30.6293 50.7495 31.224 50.7495 31.896C50.7495 32.4933 50.6695 33.0507 50.5095 33.568C50.3495 34.08 50.1202 34.5253 49.8215 34.904C49.5228 35.2773 49.1548 35.5733 48.7175 35.792C48.2855 36.0053 47.7975 36.112 47.2535 36.112C46.7522 36.112 46.3228 36.0293 45.9655 35.864C45.6135 35.6987 45.3015 35.464 45.0295 35.16V38.744H43.6055ZM47.2135 28.904C46.7495 28.904 46.3415 29.0107 45.9895 29.224C45.6428 29.4373 45.3228 29.7387 45.0295 30.128V34.048C45.2908 34.4 45.5762 34.648 45.8855 34.792C46.2002 34.936 46.5495 35.008 46.9335 35.008C47.6855 35.008 48.2642 34.7387 48.6695 34.2C49.0748 33.6613 49.2775 32.8933 49.2775 31.896C49.2775 31.368 49.2295 30.9147 49.1335 30.536C49.0428 30.1573 48.9095 29.848 48.7335 29.608C48.5575 29.3627 48.3415 29.184 48.0855 29.072C47.8295 28.96 47.5388 28.904 47.2135 28.904ZM55.6416 27.768C56.127 27.768 56.575 27.8507 56.9856 28.016C57.3963 28.176 57.751 28.4107 58.0496 28.72C58.3483 29.024 58.5803 29.4027 58.7456 29.856C58.9163 30.304 59.0016 30.816 59.0016 31.392C59.0016 31.616 58.9776 31.7653 58.9296 31.84C58.8816 31.9147 58.791 31.952 58.6576 31.952H53.2656C53.2763 32.464 53.3456 32.9093 53.4736 33.288C53.6016 33.6667 53.7776 33.984 54.0016 34.24C54.2256 34.4907 54.4923 34.68 54.8016 34.808C55.111 34.9307 55.4576 34.992 55.8416 34.992C56.199 34.992 56.5056 34.952 56.7616 34.872C57.023 34.7867 57.247 34.696 57.4336 34.6C57.6203 34.504 57.775 34.416 57.8976 34.336C58.0256 34.2507 58.135 34.208 58.2256 34.208C58.343 34.208 58.4336 34.2533 58.4976 34.344L58.8976 34.864C58.7216 35.0773 58.511 35.264 58.2656 35.424C58.0203 35.5787 57.7563 35.7067 57.4736 35.808C57.1963 35.9093 56.9083 35.984 56.6096 36.032C56.311 36.0853 56.015 36.112 55.7216 36.112C55.1616 36.112 54.6443 36.0187 54.1696 35.832C53.7003 35.64 53.2923 35.3627 52.9456 35C52.6043 34.632 52.3376 34.1787 52.1456 33.64C51.9536 33.1013 51.8576 32.4827 51.8576 31.784C51.8576 31.2187 51.943 30.6907 52.1136 30.2C52.2896 29.7093 52.5403 29.2853 52.8656 28.928C53.191 28.5653 53.5883 28.2827 54.0576 28.08C54.527 27.872 55.055 27.768 55.6416 27.768ZM55.6736 28.816C54.9856 28.816 54.4443 29.016 54.0496 29.416C53.655 29.8107 53.4096 30.36 53.3136 31.064H57.7216C57.7216 30.7333 57.6763 30.432 57.5856 30.16C57.495 29.8827 57.3616 29.6453 57.1856 29.448C57.0096 29.2453 56.7936 29.0907 56.5376 28.984C56.287 28.872 55.999 28.816 55.6736 28.816ZM60.8243 36V27.896H61.6403C61.7949 27.896 61.9016 27.9253 61.9603 27.984C62.0189 28.0427 62.0589 28.144 62.0803 28.288L62.1763 29.552C62.4536 28.9867 62.7949 28.5467 63.2003 28.232C63.6109 27.912 64.0909 27.752 64.6403 27.752C64.8643 27.752 65.0669 27.7787 65.2483 27.832C65.4296 27.88 65.5976 27.9493 65.7523 28.04L65.5683 29.104C65.5309 29.2373 65.4483 29.304 65.3203 29.304C65.2456 29.304 65.1309 29.28 64.9763 29.232C64.8216 29.1787 64.6056 29.152 64.3283 29.152C63.8323 29.152 63.4163 29.296 63.0803 29.584C62.7496 29.872 62.4723 30.2907 62.2483 30.84V36H60.8243ZM70.3711 38.744V27.896H71.2191C71.4218 27.896 71.5498 27.9947 71.6031 28.192L71.7231 29.152C72.0698 28.7307 72.4645 28.392 72.9071 28.136C73.3551 27.88 73.8698 27.752 74.4511 27.752C74.9151 27.752 75.3365 27.8427 75.7151 28.024C76.0938 28.2 76.4165 28.464 76.6831 28.816C76.9498 29.1627 77.1551 29.5947 77.2991 30.112C77.4431 30.6293 77.5151 31.224 77.5151 31.896C77.5151 32.4933 77.4351 33.0507 77.2751 33.568C77.1151 34.08 76.8858 34.5253 76.5871 34.904C76.2885 35.2773 75.9205 35.5733 75.4831 35.792C75.0511 36.0053 74.5631 36.112 74.0191 36.112C73.5178 36.112 73.0885 36.0293 72.7311 35.864C72.3791 35.6987 72.0671 35.464 71.7951 35.16V38.744H70.3711ZM73.9791 28.904C73.5151 28.904 73.1071 29.0107 72.7551 29.224C72.4085 29.4373 72.0885 29.7387 71.7951 30.128V34.048C72.0565 34.4 72.3418 34.648 72.6511 34.792C72.9658 34.936 73.3151 35.008 73.6991 35.008C74.4511 35.008 75.0298 34.7387 75.4351 34.2C75.8405 33.6613 76.0431 32.8933 76.0431 31.896C76.0431 31.368 75.9951 30.9147 75.8991 30.536C75.8085 30.1573 75.6751 29.848 75.4991 29.608C75.3231 29.3627 75.1071 29.184 74.8511 29.072C74.5951 28.96 74.3045 28.904 73.9791 28.904ZM85.1513 36H84.5193C84.3806 36 84.2686 35.9787 84.1833 35.936C84.0979 35.8933 84.0419 35.8027 84.0153 35.664L83.8553 34.912C83.6419 35.104 83.4339 35.2773 83.2313 35.432C83.0286 35.5813 82.8153 35.7093 82.5913 35.816C82.3673 35.9173 82.1273 35.9947 81.8713 36.048C81.6206 36.1013 81.3406 36.128 81.0313 36.128C80.7166 36.128 80.4206 36.0853 80.1432 36C79.8713 35.9093 79.6339 35.776 79.4313 35.6C79.2286 35.424 79.0659 35.2027 78.9433 34.936C78.8259 34.664 78.7673 34.344 78.7673 33.976C78.7673 33.656 78.8553 33.3493 79.0312 33.056C79.2073 32.7573 79.4899 32.4933 79.8793 32.264C80.2739 32.0347 80.7886 31.848 81.4233 31.704C82.0579 31.5547 82.8339 31.4693 83.7513 31.448V30.816C83.7513 30.1867 83.6153 29.712 83.3433 29.392C83.0766 29.0667 82.6793 28.904 82.1513 28.904C81.8046 28.904 81.5113 28.9493 81.2713 29.04C81.0366 29.1253 80.8313 29.224 80.6553 29.336C80.4846 29.4427 80.3353 29.5413 80.2073 29.632C80.0846 29.7173 79.9619 29.76 79.8393 29.76C79.7433 29.76 79.6579 29.736 79.5833 29.688C79.5139 29.6347 79.4579 29.5707 79.4153 29.496L79.1593 29.04C79.6073 28.608 80.0899 28.2853 80.6073 28.072C81.1246 27.8587 81.6979 27.752 82.3273 27.752C82.7806 27.752 83.1833 27.8267 83.5353 27.976C83.8873 28.1253 84.1833 28.3333 84.4233 28.6C84.6633 28.8667 84.8446 29.1893 84.9673 29.568C85.0899 29.9467 85.1513 30.3627 85.1513 30.816V36ZM81.4553 35.128C81.7059 35.128 81.9353 35.104 82.1432 35.056C82.3513 35.0027 82.5459 34.9307 82.7273 34.84C82.9139 34.744 83.0899 34.6293 83.2553 34.496C83.4259 34.3627 83.5913 34.2107 83.7513 34.04V32.352C83.0953 32.3733 82.5379 32.4267 82.0793 32.512C81.6206 32.592 81.2473 32.6987 80.9593 32.832C80.6713 32.9653 80.4606 33.1227 80.3273 33.304C80.1993 33.4853 80.1353 33.688 80.1353 33.912C80.1353 34.1253 80.1699 34.3093 80.2393 34.464C80.3086 34.6187 80.4019 34.7467 80.5193 34.848C80.6366 34.944 80.7753 35.016 80.9353 35.064C81.0953 35.1067 81.2686 35.128 81.4553 35.128ZM90.0366 27.76C90.3886 27.76 90.7166 27.8 91.0206 27.88C91.33 27.9547 91.61 28.0667 91.8606 28.216H94.0606V28.744C94.0606 28.92 93.9486 29.032 93.7246 29.08L92.8046 29.208C92.986 29.5547 93.0766 29.9413 93.0766 30.368C93.0766 30.7627 92.9993 31.1227 92.8446 31.448C92.6953 31.768 92.4846 32.0427 92.2126 32.272C91.946 32.5013 91.626 32.6773 91.2526 32.8C90.8846 32.9227 90.4793 32.984 90.0366 32.984C89.658 32.984 89.3006 32.9387 88.9646 32.848C88.794 32.9547 88.6633 33.0693 88.5726 33.192C88.4873 33.3147 88.4446 33.4347 88.4446 33.552C88.4446 33.744 88.522 33.8907 88.6766 33.992C88.8313 34.088 89.0366 34.1573 89.2926 34.2C89.5486 34.2427 89.8393 34.2693 90.1646 34.28C90.49 34.2907 90.8206 34.3093 91.1566 34.336C91.498 34.3573 91.8313 34.3973 92.1566 34.456C92.482 34.5147 92.7726 34.6107 93.0286 34.744C93.2846 34.8773 93.49 35.0613 93.6446 35.296C93.7993 35.5307 93.8766 35.8347 93.8766 36.208C93.8766 36.5547 93.7886 36.8907 93.6126 37.216C93.442 37.5413 93.194 37.8293 92.8686 38.08C92.5433 38.336 92.146 38.5387 91.6766 38.688C91.2073 38.8427 90.6766 38.92 90.0846 38.92C89.4926 38.92 88.9726 38.8613 88.5246 38.744C88.082 38.6267 87.714 38.4693 87.4206 38.272C87.1273 38.0747 86.906 37.8453 86.7566 37.584C86.6126 37.328 86.5406 37.0587 86.5406 36.776C86.5406 36.376 86.666 36.0373 86.9166 35.76C87.1726 35.4773 87.522 35.2533 87.9646 35.088C87.7353 34.9813 87.5513 34.84 87.4126 34.664C87.2793 34.4827 87.2126 34.2427 87.2126 33.944C87.2126 33.8267 87.234 33.7067 87.2766 33.584C87.3193 33.456 87.3833 33.3307 87.4686 33.208C87.5593 33.0853 87.6686 32.968 87.7966 32.856C87.9246 32.744 88.074 32.6453 88.2446 32.56C87.8446 32.336 87.53 32.04 87.3006 31.672C87.0766 31.2987 86.9646 30.864 86.9646 30.368C86.9646 29.9733 87.0393 29.616 87.1886 29.296C87.3433 28.9707 87.5566 28.696 87.8286 28.472C88.1006 28.2427 88.4233 28.0667 88.7966 27.944C89.1753 27.8213 89.5886 27.76 90.0366 27.76ZM92.5646 36.44C92.5646 36.2373 92.5086 36.0747 92.3966 35.952C92.2846 35.8293 92.1326 35.736 91.9406 35.672C91.7486 35.6027 91.5273 35.552 91.2766 35.52C91.026 35.488 90.762 35.4667 90.4846 35.456C90.2073 35.44 89.9246 35.424 89.6366 35.408C89.3486 35.392 89.074 35.3627 88.8126 35.32C88.5086 35.464 88.2606 35.64 88.0686 35.848C87.882 36.056 87.7886 36.304 87.7886 36.592C87.7886 36.7733 87.834 36.9413 87.9246 37.096C88.0206 37.256 88.1646 37.392 88.3566 37.504C88.5486 37.6213 88.7886 37.712 89.0766 37.776C89.37 37.8453 89.714 37.88 90.1086 37.88C90.4926 37.88 90.8366 37.8453 91.1406 37.776C91.4446 37.7067 91.7006 37.608 91.9086 37.48C92.122 37.352 92.2846 37.2 92.3966 37.024C92.5086 36.848 92.5646 36.6533 92.5646 36.44ZM90.0366 32.04C90.3246 32.04 90.578 32 90.7966 31.92C91.0206 31.84 91.2073 31.728 91.3566 31.584C91.506 31.44 91.618 31.2693 91.6926 31.072C91.7673 30.8693 91.8046 30.648 91.8046 30.408C91.8046 29.912 91.6526 29.5173 91.3486 29.224C91.05 28.9307 90.6126 28.784 90.0366 28.784C89.466 28.784 89.0286 28.9307 88.7246 29.224C88.426 29.5173 88.2766 29.912 88.2766 30.408C88.2766 30.648 88.314 30.8693 88.3886 31.072C88.4686 31.2693 88.5833 31.44 88.7326 31.584C88.882 31.728 89.066 31.84 89.2846 31.92C89.5033 32 89.754 32.04 90.0366 32.04ZM98.6885 27.768C99.1738 27.768 99.6218 27.8507 100.033 28.016C100.443 28.176 100.798 28.4107 101.097 28.72C101.395 29.024 101.627 29.4027 101.793 29.856C101.963 30.304 102.049 30.816 102.049 31.392C102.049 31.616 102.025 31.7653 101.977 31.84C101.929 31.9147 101.838 31.952 101.705 31.952H96.3125C96.3232 32.464 96.3925 32.9093 96.5205 33.288C96.6485 33.6667 96.8245 33.984 97.0485 34.24C97.2725 34.4907 97.5392 34.68 97.8485 34.808C98.1578 34.9307 98.5045 34.992 98.8885 34.992C99.2458 34.992 99.5525 34.952 99.8085 34.872C100.07 34.7867 100.294 34.696 100.481 34.6C100.667 34.504 100.822 34.416 100.945 34.336C101.073 34.2507 101.182 34.208 101.273 34.208C101.39 34.208 101.481 34.2533 101.545 34.344L101.945 34.864C101.769 35.0773 101.558 35.264 101.313 35.424C101.067 35.5787 100.803 35.7067 100.521 35.808C100.243 35.9093 99.9552 35.984 99.6565 36.032C99.3578 36.0853 99.0618 36.112 98.7685 36.112C98.2085 36.112 97.6912 36.0187 97.2165 35.832C96.7472 35.64 96.3392 35.3627 95.9925 35C95.6512 34.632 95.3845 34.1787 95.1925 33.64C95.0005 33.1013 94.9045 32.4827 94.9045 31.784C94.9045 31.2187 94.9898 30.6907 95.1605 30.2C95.3365 29.7093 95.5872 29.2853 95.9125 28.928C96.2378 28.5653 96.6352 28.2827 97.1045 28.08C97.5738 27.872 98.1018 27.768 98.6885 27.768ZM98.7205 28.816C98.0325 28.816 97.4912 29.016 97.0965 29.416C96.7018 29.8107 96.4565 30.36 96.3605 31.064H100.769C100.769 30.7333 100.723 30.432 100.633 30.16C100.542 29.8827 100.409 29.6453 100.233 29.448C100.057 29.2453 99.8405 29.0907 99.5845 28.984C99.3338 28.872 99.0458 28.816 98.7205 28.816ZM103.727 35.12C103.727 34.9813 103.751 34.8507 103.799 34.728C103.852 34.6053 103.922 34.4987 104.007 34.408C104.098 34.3173 104.204 34.2453 104.327 34.192C104.45 34.1387 104.58 34.112 104.719 34.112C104.858 34.112 104.988 34.1387 105.111 34.192C105.234 34.2453 105.34 34.3173 105.431 34.408C105.522 34.4987 105.591 34.6053 105.639 34.728C105.692 34.8507 105.719 34.9813 105.719 35.12C105.719 35.264 105.692 35.3973 105.639 35.52C105.591 35.6373 105.522 35.7413 105.431 35.832C105.34 35.9227 105.234 35.992 105.111 36.04C104.988 36.0933 104.858 36.12 104.719 36.12C104.58 36.12 104.45 36.0933 104.327 36.04C104.204 35.992 104.098 35.9227 104.007 35.832C103.922 35.7413 103.852 35.6373 103.799 35.52C103.751 35.3973 103.727 35.264 103.727 35.12ZM103.727 29.12C103.727 28.9813 103.751 28.8507 103.799 28.728C103.852 28.6053 103.922 28.4987 104.007 28.408C104.098 28.3173 104.204 28.2453 104.327 28.192C104.45 28.1387 104.58 28.112 104.719 28.112C104.858 28.112 104.988 28.1387 105.111 28.192C105.234 28.2453 105.34 28.3173 105.431 28.408C105.522 28.4987 105.591 28.6053 105.639 28.728C105.692 28.8507 105.719 28.9813 105.719 29.12C105.719 29.264 105.692 29.3973 105.639 29.52C105.591 29.6373 105.522 29.7413 105.431 29.832C105.34 29.9227 105.234 29.9947 105.111 30.048C104.988 30.096 104.858 30.12 104.719 30.12C104.58 30.12 104.45 30.096 104.327 30.048C104.204 29.9947 104.098 29.9227 104.007 29.832C103.922 29.7413 103.852 29.6373 103.799 29.52C103.751 29.3973 103.727 29.264 103.727 29.12Z" fill="black"/>
<path d="M138.808 24.408C139.293 24.408 139.747 24.48 140.168 24.624C140.589 24.768 140.952 24.9787 141.256 25.256C141.565 25.528 141.808 25.8613 141.984 26.256C142.16 26.6507 142.248 27.0987 142.248 27.6C142.248 28.0267 142.184 28.4213 142.056 28.784C141.928 29.1467 141.755 29.496 141.536 29.832C141.317 30.1627 141.064 30.4853 140.776 30.8C140.493 31.1093 140.192 31.4267 139.872 31.752L136.856 34.84C137.069 34.7813 137.285 34.736 137.504 34.704C137.723 34.6667 137.933 34.648 138.136 34.648H141.976C142.131 34.648 142.253 34.6933 142.344 34.784C142.435 34.8747 142.48 34.992 142.48 35.136V36H134.832V35.512C134.832 35.4107 134.851 35.3067 134.888 35.2C134.931 35.0933 134.997 34.9947 135.088 34.904L138.76 31.216C139.064 30.9067 139.341 30.6107 139.592 30.328C139.843 30.04 140.056 29.752 140.232 29.464C140.413 29.176 140.552 28.8853 140.648 28.592C140.744 28.2933 140.792 27.976 140.792 27.64C140.792 27.304 140.739 27.0107 140.632 26.76C140.525 26.504 140.379 26.2933 140.192 26.128C140.005 25.9627 139.787 25.84 139.536 25.76C139.285 25.6747 139.016 25.632 138.728 25.632C138.44 25.632 138.173 25.6747 137.928 25.76C137.683 25.8453 137.464 25.9653 137.272 26.12C137.085 26.2693 136.925 26.448 136.792 26.656C136.664 26.864 136.573 27.0933 136.52 27.344C136.477 27.4987 136.413 27.6107 136.328 27.68C136.243 27.7493 136.131 27.784 135.992 27.784C135.965 27.784 135.936 27.784 135.904 27.784C135.877 27.7787 135.845 27.7733 135.808 27.768L135.064 27.64C135.139 27.1173 135.283 26.656 135.496 26.256C135.709 25.8507 135.979 25.512 136.304 25.24C136.635 24.968 137.011 24.7627 137.432 24.624C137.859 24.48 138.317 24.408 138.808 24.408ZM152.081 30.272C152.081 31.2747 151.972 32.144 151.753 32.88C151.54 33.6107 151.247 34.216 150.873 34.696C150.5 35.176 150.057 35.5333 149.545 35.768C149.039 36.0027 148.495 36.12 147.913 36.12C147.327 36.12 146.78 36.0027 146.273 35.768C145.772 35.5333 145.335 35.176 144.961 34.696C144.588 34.216 144.295 33.6107 144.081 32.88C143.868 32.144 143.761 31.2747 143.761 30.272C143.761 29.2693 143.868 28.4 144.081 27.664C144.295 26.928 144.588 26.32 144.961 25.84C145.335 25.3547 145.772 24.9947 146.273 24.76C146.78 24.5253 147.327 24.408 147.913 24.408C148.495 24.408 149.039 24.5253 149.545 24.76C150.057 24.9947 150.5 25.3547 150.873 25.84C151.247 26.32 151.54 26.928 151.753 27.664C151.972 28.4 152.081 29.2693 152.081 30.272ZM150.601 30.272C150.601 29.3973 150.527 28.664 150.377 28.072C150.233 27.4747 150.036 26.9947 149.785 26.632C149.54 26.2693 149.255 26.0107 148.929 25.856C148.604 25.696 148.265 25.616 147.913 25.616C147.561 25.616 147.223 25.696 146.897 25.856C146.572 26.0107 146.287 26.2693 146.041 26.632C145.796 26.9947 145.599 27.4747 145.449 28.072C145.305 28.664 145.233 29.3973 145.233 30.272C145.233 31.1467 145.305 31.88 145.449 32.472C145.599 33.064 145.796 33.5413 146.041 33.904C146.287 34.2667 146.572 34.528 146.897 34.688C147.223 34.8427 147.561 34.92 147.913 34.92C148.265 34.92 148.604 34.8427 148.929 34.688C149.255 34.528 149.54 34.2667 149.785 33.904C150.036 33.5413 150.233 33.064 150.377 32.472C150.527 31.88 150.601 31.1467 150.601 30.272Z" fill="black"/>
<rect x="122.5" y="11.5" width="73" height="37" rx="3.5" stroke="#979797"/>
<path fill-rule="evenodd" clip-rule="evenodd" d="M171.707 26.7071C172.098 26.3166 172.731 26.3166 173.121 26.7071L177.707 31.2929C178.098 31.6834 178.098 32.3166 177.707 32.7071C177.317 33.0976 176.683 33.0976 176.293 32.7071L171.707 28.1213C171.317 27.7308 171.317 27.0976 171.707 26.7071Z" fill="black"/>
<path fill-rule="evenodd" clip-rule="evenodd" d="M182.293 26.7071C181.902 26.3166 181.269 26.3166 180.879 26.7071L176.293 31.2929C175.902 31.6834 175.902 32.3166 176.293 32.7071C176.683 33.0976 177.317 33.0976 177.707 32.7071L182.293 28.1213C182.683 27.7308 182.683 27.0976 182.293 26.7071Z" fill="black"/>
<path d="M562.854 28.768C563.446 28.768 563.98 28.8667 564.454 29.064C564.934 29.2613 565.34 29.5413 565.67 29.904C566.006 30.2667 566.262 30.7067 566.438 31.224C566.62 31.736 566.71 32.3093 566.71 32.944C566.71 33.584 566.62 34.16 566.438 34.672C566.262 35.184 566.006 35.6213 565.67 35.984C565.34 36.3467 564.934 36.6267 564.454 36.824C563.98 37.016 563.446 37.112 562.854 37.112C562.262 37.112 561.726 37.016 561.246 36.824C560.772 36.6267 560.366 36.3467 560.03 35.984C559.694 35.6213 559.436 35.184 559.254 34.672C559.073 34.16 558.982 33.584 558.982 32.944C558.982 32.3093 559.073 31.736 559.254 31.224C559.436 30.7067 559.694 30.2667 560.03 29.904C560.366 29.5413 560.772 29.2613 561.246 29.064C561.726 28.8667 562.262 28.768 562.854 28.768ZM562.854 36C563.654 36 564.252 35.7333 564.646 35.2C565.041 34.6613 565.238 33.912 565.238 32.952C565.238 31.9867 565.041 31.2347 564.646 30.696C564.252 30.1573 563.654 29.888 562.854 29.888C562.449 29.888 562.097 29.9573 561.798 30.096C561.5 30.2347 561.249 30.4347 561.046 30.696C560.849 30.9573 560.7 31.28 560.598 31.664C560.502 32.0427 560.454 32.472 560.454 32.952C560.454 33.432 560.502 33.8613 560.598 34.24C560.7 34.6187 560.849 34.9387 561.046 35.2C561.249 35.456 561.5 35.6533 561.798 35.792C562.097 35.9307 562.449 36 562.854 36ZM568.785 37V30.112L567.889 30.008C567.777 29.9813 567.684 29.9413 567.609 29.888C567.54 29.8293 567.505 29.7467 567.505 29.64V29.056H568.785V28.272C568.785 27.808 568.849 27.3973 568.977 27.04C569.11 26.6773 569.297 26.3733 569.537 26.128C569.782 25.8773 570.076 25.688 570.417 25.56C570.758 25.432 571.142 25.368 571.569 25.368C571.932 25.368 572.268 25.4213 572.577 25.528L572.545 26.24C572.54 26.3467 572.494 26.4107 572.409 26.432C572.324 26.4533 572.204 26.464 572.049 26.464H571.801C571.556 26.464 571.332 26.496 571.129 26.56C570.932 26.624 570.761 26.728 570.617 26.872C570.473 27.016 570.361 27.2053 570.281 27.44C570.206 27.6747 570.169 27.9653 570.169 28.312V29.056H572.513V30.088H570.217V37H568.785ZM580.981 29.976C581.44 29.976 581.875 30.0533 582.285 30.208C582.696 30.3573 583.056 30.5787 583.365 30.872C583.675 31.16 583.92 31.5173 584.101 31.944C584.283 32.3653 584.373 32.848 584.373 33.392C584.373 33.92 584.277 34.4107 584.085 34.864C583.893 35.3173 583.624 35.712 583.277 36.048C582.936 36.384 582.523 36.648 582.037 36.84C581.552 37.032 581.019 37.128 580.437 37.128C579.861 37.128 579.339 37.0373 578.869 36.856C578.405 36.6693 578.008 36.408 577.677 36.072C577.347 35.7307 577.091 35.32 576.909 34.84C576.733 34.3547 576.645 33.8133 576.645 33.216C576.645 32.7147 576.757 32.1813 576.981 31.616C577.205 31.0507 577.56 30.4427 578.045 29.792L580.949 25.88C581.024 25.784 581.128 25.704 581.261 25.64C581.395 25.5707 581.547 25.536 581.717 25.536H582.981L579.005 30.568C579.277 30.3813 579.579 30.2373 579.909 30.136C580.24 30.0293 580.597 29.976 580.981 29.976ZM578.021 33.464C578.021 33.832 578.075 34.168 578.181 34.472C578.288 34.776 578.443 35.0373 578.645 35.256C578.853 35.4747 579.104 35.6453 579.397 35.768C579.696 35.8853 580.035 35.944 580.413 35.944C580.797 35.944 581.144 35.8827 581.453 35.76C581.763 35.6373 582.027 35.4667 582.245 35.248C582.469 35.0293 582.64 34.7707 582.757 34.472C582.88 34.1733 582.941 33.848 582.941 33.496C582.941 33.1227 582.883 32.7867 582.765 32.488C582.648 32.184 582.483 31.928 582.269 31.72C582.056 31.5067 581.8 31.344 581.501 31.232C581.203 31.12 580.875 31.064 580.517 31.064C580.133 31.064 579.787 31.1307 579.477 31.264C579.168 31.392 578.904 31.568 578.685 31.792C578.472 32.0107 578.307 32.2667 578.189 32.56C578.077 32.848 578.021 33.1493 578.021 33.464ZM589.324 39.744V28.896H590.172C590.375 28.896 590.503 28.9947 590.556 29.192L590.676 30.152C591.023 29.7307 591.418 29.392 591.86 29.136C592.308 28.88 592.823 28.752 593.404 28.752C593.868 28.752 594.29 28.8427 594.668 29.024C595.047 29.2 595.37 29.464 595.636 29.816C595.903 30.1627 596.108 30.5947 596.252 31.112C596.396 31.6293 596.468 32.224 596.468 32.896C596.468 33.4933 596.388 34.0507 596.228 34.568C596.068 35.08 595.839 35.5253 595.54 35.904C595.242 36.2773 594.874 36.5733 594.436 36.792C594.004 37.0053 593.516 37.112 592.972 37.112C592.471 37.112 592.042 37.0293 591.684 36.864C591.332 36.6987 591.02 36.464 590.748 36.16V39.744H589.324ZM592.932 29.904C592.468 29.904 592.06 30.0107 591.708 30.224C591.362 30.4373 591.042 30.7387 590.748 31.128V35.048C591.01 35.4 591.295 35.648 591.604 35.792C591.919 35.936 592.268 36.008 592.652 36.008C593.404 36.008 593.983 35.7387 594.388 35.2C594.794 34.6613 594.996 33.8933 594.996 32.896C594.996 32.368 594.948 31.9147 594.852 31.536C594.762 31.1573 594.628 30.848 594.452 30.608C594.276 30.3627 594.06 30.184 593.804 30.072C593.548 29.96 593.258 29.904 592.932 29.904ZM604.104 37H603.472C603.334 37 603.222 36.9787 603.136 36.936C603.051 36.8933 602.995 36.8027 602.968 36.664L602.808 35.912C602.595 36.104 602.387 36.2773 602.184 36.432C601.982 36.5813 601.768 36.7093 601.544 36.816C601.32 36.9173 601.08 36.9947 600.824 37.048C600.574 37.1013 600.294 37.128 599.984 37.128C599.67 37.128 599.374 37.0853 599.096 37C598.824 36.9093 598.587 36.776 598.384 36.6C598.182 36.424 598.019 36.2027 597.896 35.936C597.779 35.664 597.72 35.344 597.72 34.976C597.72 34.656 597.808 34.3493 597.984 34.056C598.16 33.7573 598.443 33.4933 598.832 33.264C599.227 33.0347 599.742 32.848 600.376 32.704C601.011 32.5547 601.787 32.4693 602.704 32.448V31.816C602.704 31.1867 602.568 30.712 602.296 30.392C602.03 30.0667 601.632 29.904 601.104 29.904C600.758 29.904 600.464 29.9493 600.224 30.04C599.99 30.1253 599.784 30.224 599.608 30.336C599.438 30.4427 599.288 30.5413 599.16 30.632C599.038 30.7173 598.915 30.76 598.792 30.76C598.696 30.76 598.611 30.736 598.536 30.688C598.467 30.6347 598.411 30.5707 598.368 30.496L598.112 30.04C598.56 29.608 599.043 29.2853 599.56 29.072C600.078 28.8587 600.651 28.752 601.28 28.752C601.734 28.752 602.136 28.8267 602.488 28.976C602.84 29.1253 603.136 29.3333 603.376 29.6C603.616 29.8667 603.798 30.1893 603.92 30.568C604.043 30.9467 604.104 31.3627 604.104 31.816V37ZM600.408 36.128C600.659 36.128 600.888 36.104 601.096 36.056C601.304 36.0027 601.499 35.9307 601.68 35.84C601.867 35.744 602.043 35.6293 602.208 35.496C602.379 35.3627 602.544 35.2107 602.704 35.04V33.352C602.048 33.3733 601.491 33.4267 601.032 33.512C600.574 33.592 600.2 33.6987 599.912 33.832C599.624 33.9653 599.414 34.1227 599.28 34.304C599.152 34.4853 599.088 34.688 599.088 34.912C599.088 35.1253 599.123 35.3093 599.192 35.464C599.262 35.6187 599.355 35.7467 599.472 35.848C599.59 35.944 599.728 36.016 599.888 36.064C600.048 36.1067 600.222 36.128 600.408 36.128ZM608.99 28.76C609.342 28.76 609.67 28.8 609.974 28.88C610.283 28.9547 610.563 29.0667 610.814 29.216H613.014V29.744C613.014 29.92 612.902 30.032 612.678 30.08L611.758 30.208C611.939 30.5547 612.03 30.9413 612.03 31.368C612.03 31.7627 611.952 32.1227 611.798 32.448C611.648 32.768 611.438 33.0427 611.166 33.272C610.899 33.5013 610.579 33.6773 610.206 33.8C609.838 33.9227 609.432 33.984 608.99 33.984C608.611 33.984 608.254 33.9387 607.918 33.848C607.747 33.9547 607.616 34.0693 607.526 34.192C607.44 34.3147 607.398 34.4347 607.398 34.552C607.398 34.744 607.475 34.8907 607.63 34.992C607.784 35.088 607.99 35.1573 608.246 35.2C608.502 35.2427 608.792 35.2693 609.118 35.28C609.443 35.2907 609.774 35.3093 610.11 35.336C610.451 35.3573 610.784 35.3973 611.11 35.456C611.435 35.5147 611.726 35.6107 611.982 35.744C612.238 35.8773 612.443 36.0613 612.598 36.296C612.752 36.5307 612.83 36.8347 612.83 37.208C612.83 37.5547 612.742 37.8907 612.566 38.216C612.395 38.5413 612.147 38.8293 611.822 39.08C611.496 39.336 611.099 39.5387 610.63 39.688C610.16 39.8427 609.63 39.92 609.038 39.92C608.446 39.92 607.926 39.8613 607.478 39.744C607.035 39.6267 606.667 39.4693 606.374 39.272C606.08 39.0747 605.859 38.8453 605.71 38.584C605.566 38.328 605.494 38.0587 605.494 37.776C605.494 37.376 605.619 37.0373 605.87 36.76C606.126 36.4773 606.475 36.2533 606.918 36.088C606.688 35.9813 606.504 35.84 606.366 35.664C606.232 35.4827 606.166 35.2427 606.166 34.944C606.166 34.8267 606.187 34.7067 606.23 34.584C606.272 34.456 606.336 34.3307 606.422 34.208C606.512 34.0853 606.622 33.968 606.75 33.856C606.878 33.744 607.027 33.6453 607.198 33.56C606.798 33.336 606.483 33.04 606.254 32.672C606.03 32.2987 605.918 31.864 605.918 31.368C605.918 30.9733 605.992 30.616 606.142 30.296C606.296 29.9707 606.51 29.696 606.782 29.472C607.054 29.2427 607.376 29.0667 607.75 28.944C608.128 28.8213 608.542 28.76 608.99 28.76ZM611.518 37.44C611.518 37.2373 611.462 37.0747 611.35 36.952C611.238 36.8293 611.086 36.736 610.894 36.672C610.702 36.6027 610.48 36.552 610.23 36.52C609.979 36.488 609.715 36.4667 609.438 36.456C609.16 36.44 608.878 36.424 608.59 36.408C608.302 36.392 608.027 36.3627 607.766 36.32C607.462 36.464 607.214 36.64 607.022 36.848C606.835 37.056 606.742 37.304 606.742 37.592C606.742 37.7733 606.787 37.9413 606.878 38.096C606.974 38.256 607.118 38.392 607.31 38.504C607.502 38.6213 607.742 38.712 608.03 38.776C608.323 38.8453 608.667 38.88 609.062 38.88C609.446 38.88 609.79 38.8453 610.094 38.776C610.398 38.7067 610.654 38.608 610.862 38.48C611.075 38.352 611.238 38.2 611.35 38.024C611.462 37.848 611.518 37.6533 611.518 37.44ZM608.99 33.04C609.278 33.04 609.531 33 609.75 32.92C609.974 32.84 610.16 32.728 610.31 32.584C610.459 32.44 610.571 32.2693 610.646 32.072C610.72 31.8693 610.758 31.648 610.758 31.408C610.758 30.912 610.606 30.5173 610.302 30.224C610.003 29.9307 609.566 29.784 608.99 29.784C608.419 29.784 607.982 29.9307 607.678 30.224C607.379 30.5173 607.23 30.912 607.23 31.408C607.23 31.648 607.267 31.8693 607.342 32.072C607.422 32.2693 607.536 32.44 607.686 32.584C607.835 32.728 608.019 32.84 608.238 32.92C608.456 33 608.707 33.04 608.99 33.04ZM617.642 28.768C618.127 28.768 618.575 28.8507 618.986 29.016C619.396 29.176 619.751 29.4107 620.05 29.72C620.348 30.024 620.58 30.4027 620.746 30.856C620.916 31.304 621.002 31.816 621.002 32.392C621.002 32.616 620.978 32.7653 620.93 32.84C620.882 32.9147 620.791 32.952 620.658 32.952H615.266C615.276 33.464 615.346 33.9093 615.474 34.288C615.602 34.6667 615.778 34.984 616.002 35.24C616.226 35.4907 616.492 35.68 616.802 35.808C617.111 35.9307 617.458 35.992 617.842 35.992C618.199 35.992 618.506 35.952 618.762 35.872C619.023 35.7867 619.247 35.696 619.434 35.6C619.62 35.504 619.775 35.416 619.898 35.336C620.026 35.2507 620.135 35.208 620.226 35.208C620.343 35.208 620.434 35.2533 620.498 35.344L620.898 35.864C620.722 36.0773 620.511 36.264 620.266 36.424C620.02 36.5787 619.756 36.7067 619.474 36.808C619.196 36.9093 618.908 36.984 618.61 37.032C618.311 37.0853 618.015 37.112 617.722 37.112C617.162 37.112 616.644 37.0187 616.17 36.832C615.7 36.64 615.292 36.3627 614.946 36C614.604 35.632 614.338 35.1787 614.146 34.64C613.954 34.1013 613.858 33.4827 613.858 32.784C613.858 32.2187 613.943 31.6907 614.114 31.2C614.29 30.7093 614.54 30.2853 614.866 29.928C615.191 29.5653 615.588 29.2827 616.058 29.08C616.527 28.872 617.055 28.768 617.642 28.768ZM617.674 29.816C616.986 29.816 616.444 30.016 616.05 30.416C615.655 30.8107 615.41 31.36 615.314 32.064H619.722C619.722 31.7333 619.676 31.432 619.586 31.16C619.495 30.8827 619.362 30.6453 619.186 30.448C619.01 30.2453 618.794 30.0907 618.538 29.984C618.287 29.872 617.999 29.816 617.674 29.816ZM627.464 30.232C627.4 30.3493 627.302 30.408 627.168 30.408C627.088 30.408 626.998 30.3787 626.896 30.32C626.795 30.2613 626.67 30.1973 626.52 30.128C626.376 30.0533 626.203 29.9867 626 29.928C625.798 29.864 625.558 29.832 625.28 29.832C625.04 29.832 624.824 29.864 624.632 29.928C624.44 29.9867 624.275 30.0693 624.136 30.176C624.003 30.2827 623.899 30.408 623.824 30.552C623.755 30.6907 623.72 30.8427 623.72 31.008C623.72 31.216 623.779 31.3893 623.896 31.528C624.019 31.6667 624.179 31.7867 624.376 31.888C624.574 31.9893 624.798 32.08 625.048 32.16C625.299 32.2347 625.555 32.3173 625.816 32.408C626.083 32.4933 626.342 32.5893 626.592 32.696C626.843 32.8027 627.067 32.936 627.264 33.096C627.462 33.256 627.619 33.4533 627.736 33.688C627.859 33.9173 627.92 34.1947 627.92 34.52C627.92 34.8933 627.854 35.24 627.72 35.56C627.587 35.8747 627.39 36.1493 627.128 36.384C626.867 36.6133 626.547 36.7947 626.168 36.928C625.79 37.0613 625.352 37.128 624.856 37.128C624.291 37.128 623.779 37.0373 623.32 36.856C622.862 36.6693 622.472 36.432 622.152 36.144L622.488 35.6C622.531 35.5307 622.582 35.4773 622.64 35.44C622.699 35.4027 622.776 35.384 622.872 35.384C622.968 35.384 623.07 35.4213 623.176 35.496C623.283 35.5707 623.411 35.6533 623.56 35.744C623.715 35.8347 623.899 35.9173 624.112 35.992C624.331 36.0667 624.603 36.104 624.928 36.104C625.206 36.104 625.448 36.0693 625.656 36C625.864 35.9253 626.038 35.8267 626.176 35.704C626.315 35.5813 626.416 35.44 626.48 35.28C626.55 35.12 626.584 34.9493 626.584 34.768C626.584 34.544 626.523 34.36 626.4 34.216C626.283 34.0667 626.126 33.9413 625.928 33.84C625.731 33.7333 625.504 33.6427 625.248 33.568C624.998 33.488 624.739 33.4053 624.472 33.32C624.211 33.2347 623.952 33.1387 623.696 33.032C623.446 32.92 623.222 32.7813 623.024 32.616C622.827 32.4507 622.667 32.248 622.544 32.008C622.427 31.7627 622.368 31.4667 622.368 31.12C622.368 30.8107 622.432 30.5147 622.56 30.232C622.688 29.944 622.875 29.6933 623.12 29.48C623.366 29.2613 623.667 29.088 624.024 28.96C624.382 28.832 624.79 28.768 625.248 28.768C625.782 28.768 626.259 28.8533 626.68 29.024C627.107 29.1893 627.475 29.4187 627.784 29.712L627.464 30.232Z" fill="black"/>
<path d="M492.808 24.408C493.293 24.408 493.747 24.48 494.168 24.624C494.589 24.768 494.952 24.9787 495.256 25.256C495.565 25.528 495.808 25.8613 495.984 26.256C496.16 26.6507 496.248 27.0987 496.248 27.6C496.248 28.0267 496.184 28.4213 496.056 28.784C495.928 29.1467 495.755 29.496 495.536 29.832C495.317 30.1627 495.064 30.4853 494.776 30.8C494.493 31.1093 494.192 31.4267 493.872 31.752L490.856 34.84C491.069 34.7813 491.285 34.736 491.504 34.704C491.723 34.6667 491.933 34.648 492.136 34.648H495.976C496.131 34.648 496.253 34.6933 496.344 34.784C496.435 34.8747 496.48 34.992 496.48 35.136V36H488.832V35.512C488.832 35.4107 488.851 35.3067 488.888 35.2C488.931 35.0933 488.997 34.9947 489.088 34.904L492.76 31.216C493.064 30.9067 493.341 30.6107 493.592 30.328C493.843 30.04 494.056 29.752 494.232 29.464C494.413 29.176 494.552 28.8853 494.648 28.592C494.744 28.2933 494.792 27.976 494.792 27.64C494.792 27.304 494.739 27.0107 494.632 26.76C494.525 26.504 494.379 26.2933 494.192 26.128C494.005 25.9627 493.787 25.84 493.536 25.76C493.285 25.6747 493.016 25.632 492.728 25.632C492.44 25.632 492.173 25.6747 491.928 25.76C491.683 25.8453 491.464 25.9653 491.272 26.12C491.085 26.2693 490.925 26.448 490.792 26.656C490.664 26.864 490.573 27.0933 490.52 27.344C490.477 27.4987 490.413 27.6107 490.328 27.68C490.243 27.7493 490.131 27.784 489.992 27.784C489.965 27.784 489.936 27.784 489.904 27.784C489.877 27.7787 489.845 27.7733 489.808 27.768L489.064 27.64C489.139 27.1173 489.283 26.656 489.496 26.256C489.709 25.8507 489.979 25.512 490.304 25.24C490.635 24.968 491.011 24.7627 491.432 24.624C491.859 24.48 492.317 24.408 492.808 24.408Z" fill="black"/>
<rect x="476.5" y="11.5" width="73" height="37" rx="3.5" stroke="#979797"/>
<path fill-rule="evenodd" clip-rule="evenodd" d="M525.707 26.7071C526.098 26.3166 526.731 26.3166 527.121 26.7071L531.707 31.2929C532.098 31.6834 532.098 32.3166 531.707 32.7071C531.317 33.0976 530.683 33.0976 530.293 32.7071L525.707 28.1213C525.317 27.7308 525.317 27.0976 525.707 26.7071Z" fill="black"/>
<path fill-rule="evenodd" clip-rule="evenodd" d="M536.293 26.7071C535.902 26.3166 535.269 26.3166 534.879 26.7071L530.293 31.2929C529.902 31.6834 529.902 32.3166 530.293 32.7071C530.683 33.0976 531.317 33.0976 531.707 32.7071L536.293 28.1213C536.683 27.7308 536.683 27.0976 536.293 26.7071Z" fill="black"/>
<line x1="220.5" y1="2.18557e-08" x2="220.5" y2="60" stroke="#D8D8D8"/>
<line x1="656.5" y1="2.18557e-08" x2="656.5" y2="60" stroke="#D8D8D8"/>
</svg>
