<svg width="755" height="60" viewBox="0 0 755 60" fill="none" xmlns="http://www.w3.org/2000/svg">
<rect x="681" y="14" width="32" height="32" rx="16" stroke="#2656C9"/>
<path fill-rule="evenodd" clip-rule="evenodd" d="M700.298 23.3509C700.104 23.1571 699.79 23.1571 699.596 23.3509L693.351 29.596C693.157 29.7898 693.157 30.1039 693.351 30.2977C693.545 30.4915 693.859 30.4915 694.053 30.2977L700.298 24.0526C700.491 23.8588 700.491 23.5446 700.298 23.3509Z" fill="#2656C9"/>
<path fill-rule="evenodd" clip-rule="evenodd" d="M700.298 36.6491C700.104 36.8429 699.79 36.8429 699.596 36.6491L693.351 30.404C693.157 30.2102 693.157 29.8961 693.351 29.7023C693.545 29.5085 693.859 29.5085 694.053 29.7023L700.298 35.9474C700.491 36.1412 700.491 36.4554 700.298 36.6491Z" fill="#2656C9"/>
<rect x="722" y="14" width="32" height="32" rx="16" stroke="#2656C9"/>
<path fill-rule="evenodd" clip-rule="evenodd" d="M735.351 23.3509C735.545 23.1571 735.859 23.1571 736.053 23.3509L742.298 29.596C742.491 29.7898 742.491 30.1039 742.298 30.2977C742.104 30.4915 741.79 30.4915 741.596 30.2977L735.351 24.0526C735.157 23.8588 735.157 23.5446 735.351 23.3509Z" fill="#2656C9"/>
<path fill-rule="evenodd" clip-rule="evenodd" d="M735.351 36.6491C735.545 36.8429 735.859 36.8429 736.053 36.6491L742.298 30.404C742.491 30.2102 742.491 29.8961 742.298 29.7023C742.104 29.5085 741.79 29.5085 741.596 29.7023L735.351 35.9474C735.157 36.1412 735.157 36.4554 735.351 36.6491Z" fill="#2656C9"/>
<path d="M241.296 34.912H243.76V27.096C243.76 26.8613 243.768 26.624 243.784 26.384L241.736 28.136C241.683 28.1787 241.629 28.2107 241.576 28.232C241.523 28.248 241.472 28.256 241.424 28.256C241.344 28.256 241.272 28.24 241.208 28.208C241.144 28.1707 241.096 28.128 241.064 28.08L240.616 27.464L244.024 24.512H245.184V34.912H247.44V36H241.296V34.912ZM249.081 30.6H253.033V31.808H249.081V30.6ZM258.636 24.408C259.121 24.408 259.575 24.48 259.996 24.624C260.417 24.768 260.78 24.9787 261.084 25.256C261.393 25.528 261.636 25.8613 261.812 26.256C261.988 26.6507 262.076 27.0987 262.076 27.6C262.076 28.0267 262.012 28.4213 261.884 28.784C261.756 29.1467 261.583 29.496 261.364 29.832C261.145 30.1627 260.892 30.4853 260.604 30.8C260.321 31.1093 260.02 31.4267 259.7 31.752L256.684 34.84C256.897 34.7813 257.113 34.736 257.332 34.704C257.551 34.6667 257.761 34.648 257.964 34.648H261.804C261.959 34.648 262.081 34.6933 262.172 34.784C262.263 34.8747 262.308 34.992 262.308 35.136V36H254.66V35.512C254.66 35.4107 254.679 35.3067 254.716 35.2C254.759 35.0933 254.825 34.9947 254.916 34.904L258.588 31.216C258.892 30.9067 259.169 30.6107 259.42 30.328C259.671 30.04 259.884 29.752 260.06 29.464C260.241 29.176 260.38 28.8853 260.476 28.592C260.572 28.2933 260.62 27.976 260.62 27.64C260.62 27.304 260.567 27.0107 260.46 26.76C260.353 26.504 260.207 26.2933 260.02 26.128C259.833 25.9627 259.615 25.84 259.364 25.76C259.113 25.6747 258.844 25.632 258.556 25.632C258.268 25.632 258.001 25.6747 257.756 25.76C257.511 25.8453 257.292 25.9653 257.1 26.12C256.913 26.2693 256.753 26.448 256.62 26.656C256.492 26.864 256.401 27.0933 256.348 27.344C256.305 27.4987 256.241 27.6107 256.156 27.68C256.071 27.7493 255.959 27.784 255.82 27.784C255.793 27.784 255.764 27.784 255.732 27.784C255.705 27.7787 255.673 27.7733 255.636 27.768L254.892 27.64C254.967 27.1173 255.111 26.656 255.324 26.256C255.537 25.8507 255.807 25.512 256.132 25.24C256.463 24.968 256.839 24.7627 257.26 24.624C257.687 24.48 258.145 24.408 258.636 24.408ZM271.909 30.272C271.909 31.2747 271.8 32.144 271.581 32.88C271.368 33.6107 271.075 34.216 270.701 34.696C270.328 35.176 269.885 35.5333 269.373 35.768C268.867 36.0027 268.323 36.12 267.741 36.12C267.155 36.12 266.608 36.0027 266.101 35.768C265.6 35.5333 265.163 35.176 264.789 34.696C264.416 34.216 264.123 33.6107 263.909 32.88C263.696 32.144 263.589 31.2747 263.589 30.272C263.589 29.2693 263.696 28.4 263.909 27.664C264.123 26.928 264.416 26.32 264.789 25.84C265.163 25.3547 265.6 24.9947 266.101 24.76C266.608 24.5253 267.155 24.408 267.741 24.408C268.323 24.408 268.867 24.5253 269.373 24.76C269.885 24.9947 270.328 25.3547 270.701 25.84C271.075 26.32 271.368 26.928 271.581 27.664C271.8 28.4 271.909 29.2693 271.909 30.272ZM270.429 30.272C270.429 29.3973 270.355 28.664 270.205 28.072C270.061 27.4747 269.864 26.9947 269.613 26.632C269.368 26.2693 269.083 26.0107 268.757 25.856C268.432 25.696 268.093 25.616 267.741 25.616C267.389 25.616 267.051 25.696 266.725 25.856C266.4 26.0107 266.115 26.2693 265.869 26.632C265.624 26.9947 265.427 27.4747 265.277 28.072C265.133 28.664 265.061 29.3973 265.061 30.272C265.061 31.1467 265.133 31.88 265.277 32.472C265.427 33.064 265.624 33.5413 265.869 33.904C266.115 34.2667 266.4 34.528 266.725 34.688C267.051 34.8427 267.389 34.92 267.741 34.92C268.093 34.92 268.432 34.8427 268.757 34.688C269.083 34.528 269.368 34.2667 269.613 33.904C269.864 33.5413 270.061 33.064 270.205 32.472C270.355 31.88 270.429 31.1467 270.429 30.272ZM278.236 27.896V36H276.812V27.896H278.236ZM278.556 25.352C278.556 25.4907 278.527 25.6213 278.468 25.744C278.415 25.8613 278.34 25.968 278.244 26.064C278.154 26.1547 278.047 26.2267 277.924 26.28C277.802 26.3333 277.671 26.36 277.532 26.36C277.394 26.36 277.263 26.3333 277.14 26.28C277.023 26.2267 276.916 26.1547 276.82 26.064C276.73 25.968 276.658 25.8613 276.604 25.744C276.551 25.6213 276.524 25.4907 276.524 25.352C276.524 25.2133 276.551 25.0827 276.604 24.96C276.658 24.832 276.73 24.7227 276.82 24.632C276.916 24.536 277.023 24.4613 277.14 24.408C277.263 24.3547 277.394 24.328 277.532 24.328C277.671 24.328 277.802 24.3547 277.924 24.408C278.047 24.4613 278.154 24.536 278.244 24.632C278.34 24.7227 278.415 24.832 278.468 24.96C278.527 25.0827 278.556 25.2133 278.556 25.352ZM283.202 36.128C282.562 36.128 282.069 35.9493 281.722 35.592C281.381 35.2347 281.21 34.72 281.21 34.048V29.088H280.234C280.149 29.088 280.077 29.064 280.018 29.016C279.959 28.9627 279.93 28.8827 279.93 28.776V28.208L281.258 28.04L281.586 25.536C281.597 25.456 281.631 25.392 281.69 25.344C281.749 25.2907 281.823 25.264 281.914 25.264H282.634V28.056H284.954V29.088H282.634V33.952C282.634 34.2933 282.717 34.5467 282.882 34.712C283.047 34.8773 283.261 34.96 283.522 34.96C283.671 34.96 283.799 34.9413 283.906 34.904C284.018 34.8613 284.114 34.816 284.194 34.768C284.274 34.72 284.341 34.6773 284.394 34.64C284.453 34.5973 284.503 34.576 284.546 34.576C284.621 34.576 284.687 34.6213 284.746 34.712L285.162 35.392C284.917 35.6213 284.621 35.8027 284.274 35.936C283.927 36.064 283.57 36.128 283.202 36.128ZM289.923 27.768C290.408 27.768 290.856 27.8507 291.267 28.016C291.678 28.176 292.032 28.4107 292.331 28.72C292.63 29.024 292.862 29.4027 293.027 29.856C293.198 30.304 293.283 30.816 293.283 31.392C293.283 31.616 293.259 31.7653 293.211 31.84C293.163 31.9147 293.072 31.952 292.939 31.952H287.547C287.558 32.464 287.627 32.9093 287.755 33.288C287.883 33.6667 288.059 33.984 288.283 34.24C288.507 34.4907 288.774 34.68 289.083 34.808C289.392 34.9307 289.739 34.992 290.123 34.992C290.48 34.992 290.787 34.952 291.043 34.872C291.304 34.7867 291.528 34.696 291.715 34.6C291.902 34.504 292.056 34.416 292.179 34.336C292.307 34.2507 292.416 34.208 292.507 34.208C292.624 34.208 292.715 34.2533 292.779 34.344L293.179 34.864C293.003 35.0773 292.792 35.264 292.547 35.424C292.302 35.5787 292.038 35.7067 291.755 35.808C291.478 35.9093 291.19 35.984 290.891 36.032C290.592 36.0853 290.296 36.112 290.003 36.112C289.443 36.112 288.926 36.0187 288.451 35.832C287.982 35.64 287.574 35.3627 287.227 35C286.886 34.632 286.619 34.1787 286.427 33.64C286.235 33.1013 286.139 32.4827 286.139 31.784C286.139 31.2187 286.224 30.6907 286.395 30.2C286.571 29.7093 286.822 29.2853 287.147 28.928C287.472 28.5653 287.87 28.2827 288.339 28.08C288.808 27.872 289.336 27.768 289.923 27.768ZM289.955 28.816C289.267 28.816 288.726 29.016 288.331 29.416C287.936 29.8107 287.691 30.36 287.595 31.064H292.003C292.003 30.7333 291.958 30.432 291.867 30.16C291.776 29.8827 291.643 29.6453 291.467 29.448C291.291 29.2453 291.075 29.0907 290.819 28.984C290.568 28.872 290.28 28.816 289.955 28.816ZM295.106 36V27.896H295.954C296.156 27.896 296.284 27.9947 296.338 28.192L296.442 29.024C296.74 28.656 297.074 28.3547 297.442 28.12C297.815 27.8853 298.247 27.768 298.738 27.768C299.287 27.768 299.73 27.92 300.066 28.224C300.407 28.528 300.652 28.9387 300.802 29.456C300.914 29.1627 301.06 28.9093 301.242 28.696C301.428 28.4827 301.636 28.3067 301.866 28.168C302.095 28.0293 302.338 27.928 302.594 27.864C302.855 27.8 303.119 27.768 303.386 27.768C303.812 27.768 304.191 27.8373 304.522 27.976C304.858 28.1093 305.14 28.3067 305.37 28.568C305.604 28.8293 305.783 29.152 305.906 29.536C306.028 29.9147 306.09 30.3493 306.09 30.84V36H304.666V30.84C304.666 30.2053 304.527 29.7253 304.25 29.4C303.972 29.0693 303.57 28.904 303.042 28.904C302.807 28.904 302.583 28.9467 302.37 29.032C302.162 29.112 301.978 29.232 301.818 29.392C301.658 29.552 301.53 29.7547 301.434 30C301.343 30.24 301.298 30.52 301.298 30.84V36H299.874V30.84C299.874 30.1893 299.743 29.704 299.482 29.384C299.22 29.064 298.839 28.904 298.338 28.904C297.986 28.904 297.658 29 297.354 29.192C297.055 29.3787 296.78 29.6347 296.53 29.96V36H295.106ZM312.886 29.232C312.822 29.3493 312.723 29.408 312.59 29.408C312.51 29.408 312.419 29.3787 312.318 29.32C312.217 29.2613 312.091 29.1973 311.942 29.128C311.798 29.0533 311.625 28.9867 311.422 28.928C311.219 28.864 310.979 28.832 310.702 28.832C310.462 28.832 310.246 28.864 310.054 28.928C309.862 28.9867 309.697 29.0693 309.558 29.176C309.425 29.2827 309.321 29.408 309.246 29.552C309.177 29.6907 309.142 29.8427 309.142 30.008C309.142 30.216 309.201 30.3893 309.318 30.528C309.441 30.6667 309.601 30.7867 309.798 30.888C309.995 30.9893 310.219 31.08 310.47 31.16C310.721 31.2347 310.977 31.3173 311.238 31.408C311.505 31.4933 311.763 31.5893 312.014 31.696C312.265 31.8027 312.489 31.936 312.686 32.096C312.883 32.256 313.041 32.4533 313.158 32.688C313.281 32.9173 313.342 33.1947 313.342 33.52C313.342 33.8933 313.275 34.24 313.142 34.56C313.009 34.8747 312.811 35.1493 312.55 35.384C312.289 35.6133 311.969 35.7947 311.59 35.928C311.211 36.0613 310.774 36.128 310.278 36.128C309.713 36.128 309.201 36.0373 308.742 35.856C308.283 35.6693 307.894 35.432 307.574 35.144L307.91 34.6C307.953 34.5307 308.003 34.4773 308.062 34.44C308.121 34.4027 308.198 34.384 308.294 34.384C308.39 34.384 308.491 34.4213 308.598 34.496C308.705 34.5707 308.833 34.6533 308.982 34.744C309.137 34.8347 309.321 34.9173 309.534 34.992C309.753 35.0667 310.025 35.104 310.35 35.104C310.627 35.104 310.87 35.0693 311.078 35C311.286 34.9253 311.459 34.8267 311.598 34.704C311.737 34.5813 311.838 34.44 311.902 34.28C311.971 34.12 312.006 33.9493 312.006 33.768C312.006 33.544 311.945 33.36 311.822 33.216C311.705 33.0667 311.547 32.9413 311.35 32.84C311.153 32.7333 310.926 32.6427 310.67 32.568C310.419 32.488 310.161 32.4053 309.894 32.32C309.633 32.2347 309.374 32.1387 309.118 32.032C308.867 31.92 308.643 31.7813 308.446 31.616C308.249 31.4507 308.089 31.248 307.966 31.008C307.849 30.7627 307.79 30.4667 307.79 30.12C307.79 29.8107 307.854 29.5147 307.982 29.232C308.11 28.944 308.297 28.6933 308.542 28.48C308.787 28.2613 309.089 28.088 309.446 27.96C309.803 27.832 310.211 27.768 310.67 27.768C311.203 27.768 311.681 27.8533 312.102 28.024C312.529 28.1893 312.897 28.4187 313.206 28.712L312.886 29.232Z" fill="black"/>
<path d="M3.232 36H1.68V24.536H3.232V36ZM8.53025 36.128C7.89025 36.128 7.39692 35.9493 7.05025 35.592C6.70892 35.2347 6.53825 34.72 6.53825 34.048V29.088H5.56225C5.47692 29.088 5.40492 29.064 5.34625 29.016C5.28758 28.9627 5.25825 28.8827 5.25825 28.776V28.208L6.58625 28.04L6.91425 25.536C6.92492 25.456 6.95958 25.392 7.01825 25.344C7.07692 25.2907 7.15158 25.264 7.24225 25.264H7.96225V28.056H10.2823V29.088H7.96225V33.952C7.96225 34.2933 8.04492 34.5467 8.21025 34.712C8.37558 34.8773 8.58892 34.96 8.85025 34.96C8.99958 34.96 9.12758 34.9413 9.23425 34.904C9.34625 34.8613 9.44225 34.816 9.52225 34.768C9.60225 34.72 9.66892 34.6773 9.72225 34.64C9.78092 34.5973 9.83158 34.576 9.87425 34.576C9.94892 34.576 10.0156 34.6213 10.0743 34.712L10.4903 35.392C10.2449 35.6213 9.94892 35.8027 9.60225 35.936C9.25558 36.064 8.89825 36.128 8.53025 36.128ZM15.251 27.768C15.7363 27.768 16.1843 27.8507 16.595 28.016C17.0057 28.176 17.3603 28.4107 17.659 28.72C17.9577 29.024 18.1897 29.4027 18.355 29.856C18.5257 30.304 18.611 30.816 18.611 31.392C18.611 31.616 18.587 31.7653 18.539 31.84C18.491 31.9147 18.4003 31.952 18.267 31.952H12.875C12.8857 32.464 12.955 32.9093 13.083 33.288C13.211 33.6667 13.387 33.984 13.611 34.24C13.835 34.4907 14.1017 34.68 14.411 34.808C14.7203 34.9307 15.067 34.992 15.451 34.992C15.8083 34.992 16.115 34.952 16.371 34.872C16.6323 34.7867 16.8563 34.696 17.043 34.6C17.2297 34.504 17.3843 34.416 17.507 34.336C17.635 34.2507 17.7443 34.208 17.835 34.208C17.9523 34.208 18.043 34.2533 18.107 34.344L18.507 34.864C18.331 35.0773 18.1203 35.264 17.875 35.424C17.6297 35.5787 17.3657 35.7067 17.083 35.808C16.8057 35.9093 16.5177 35.984 16.219 36.032C15.9203 36.0853 15.6243 36.112 15.331 36.112C14.771 36.112 14.2537 36.0187 13.779 35.832C13.3097 35.64 12.9017 35.3627 12.555 35C12.2137 34.632 11.947 34.1787 11.755 33.64C11.563 33.1013 11.467 32.4827 11.467 31.784C11.467 31.2187 11.5523 30.6907 11.723 30.2C11.899 29.7093 12.1497 29.2853 12.475 28.928C12.8003 28.5653 13.1977 28.2827 13.667 28.08C14.1363 27.872 14.6643 27.768 15.251 27.768ZM15.283 28.816C14.595 28.816 14.0537 29.016 13.659 29.416C13.2643 29.8107 13.019 30.36 12.923 31.064H17.331C17.331 30.7333 17.2857 30.432 17.195 30.16C17.1043 29.8827 16.971 29.6453 16.795 29.448C16.619 29.2453 16.403 29.0907 16.147 28.984C15.8963 28.872 15.6083 28.816 15.283 28.816ZM20.4336 36V27.896H21.2816C21.4843 27.896 21.6123 27.9947 21.6656 28.192L21.7696 29.024C22.0683 28.656 22.4016 28.3547 22.7696 28.12C23.143 27.8853 23.575 27.768 24.0656 27.768C24.615 27.768 25.0576 27.92 25.3936 28.224C25.735 28.528 25.9803 28.9387 26.1296 29.456C26.2416 29.1627 26.3883 28.9093 26.5696 28.696C26.7563 28.4827 26.9643 28.3067 27.1936 28.168C27.423 28.0293 27.6656 27.928 27.9216 27.864C28.183 27.8 28.447 27.768 28.7136 27.768C29.1403 27.768 29.519 27.8373 29.8496 27.976C30.1856 28.1093 30.4683 28.3067 30.6976 28.568C30.9323 28.8293 31.111 29.152 31.2336 29.536C31.3563 29.9147 31.4176 30.3493 31.4176 30.84V36H29.9936V30.84C29.9936 30.2053 29.855 29.7253 29.5776 29.4C29.3003 29.0693 28.8976 28.904 28.3696 28.904C28.135 28.904 27.911 28.9467 27.6976 29.032C27.4896 29.112 27.3056 29.232 27.1456 29.392C26.9856 29.552 26.8576 29.7547 26.7616 30C26.671 30.24 26.6256 30.52 26.6256 30.84V36H25.2016V30.84C25.2016 30.1893 25.071 29.704 24.8096 29.384C24.5483 29.064 24.167 28.904 23.6656 28.904C23.3136 28.904 22.9856 29 22.6816 29.192C22.383 29.3787 22.1083 29.6347 21.8576 29.96V36H20.4336ZM38.2143 29.232C38.1503 29.3493 38.0516 29.408 37.9183 29.408C37.8383 29.408 37.7476 29.3787 37.6463 29.32C37.5449 29.2613 37.4196 29.1973 37.2703 29.128C37.1263 29.0533 36.9529 28.9867 36.7503 28.928C36.5476 28.864 36.3076 28.832 36.0303 28.832C35.7903 28.832 35.5743 28.864 35.3823 28.928C35.1903 28.9867 35.0249 29.0693 34.8863 29.176C34.7529 29.2827 34.6489 29.408 34.5743 29.552C34.5049 29.6907 34.4703 29.8427 34.4703 30.008C34.4703 30.216 34.5289 30.3893 34.6463 30.528C34.7689 30.6667 34.9289 30.7867 35.1263 30.888C35.3236 30.9893 35.5476 31.08 35.7983 31.16C36.0489 31.2347 36.3049 31.3173 36.5663 31.408C36.8329 31.4933 37.0916 31.5893 37.3423 31.696C37.5929 31.8027 37.8169 31.936 38.0143 32.096C38.2116 32.256 38.3689 32.4533 38.4863 32.688C38.6089 32.9173 38.6703 33.1947 38.6703 33.52C38.6703 33.8933 38.6036 34.24 38.4703 34.56C38.3369 34.8747 38.1396 35.1493 37.8783 35.384C37.6169 35.6133 37.2969 35.7947 36.9183 35.928C36.5396 36.0613 36.1023 36.128 35.6063 36.128C35.0409 36.128 34.5289 36.0373 34.0703 35.856C33.6116 35.6693 33.2223 35.432 32.9023 35.144L33.2383 34.6C33.2809 34.5307 33.3316 34.4773 33.3903 34.44C33.4489 34.4027 33.5263 34.384 33.6223 34.384C33.7183 34.384 33.8196 34.4213 33.9263 34.496C34.0329 34.5707 34.1609 34.6533 34.3103 34.744C34.4649 34.8347 34.6489 34.9173 34.8623 34.992C35.0809 35.0667 35.3529 35.104 35.6783 35.104C35.9556 35.104 36.1983 35.0693 36.4062 35C36.6143 34.9253 36.7876 34.8267 36.9262 34.704C37.0649 34.5813 37.1663 34.44 37.2303 34.28C37.2996 34.12 37.3343 33.9493 37.3343 33.768C37.3343 33.544 37.2729 33.36 37.1503 33.216C37.0329 33.0667 36.8756 32.9413 36.6783 32.84C36.4809 32.7333 36.2543 32.6427 35.9983 32.568C35.7476 32.488 35.4889 32.4053 35.2223 32.32C34.9609 32.2347 34.7023 32.1387 34.4463 32.032C34.1956 31.92 33.9716 31.7813 33.7743 31.616C33.5769 31.4507 33.4169 31.248 33.2943 31.008C33.1769 30.7627 33.1183 30.4667 33.1183 30.12C33.1183 29.8107 33.1823 29.5147 33.3103 29.232C33.4383 28.944 33.6249 28.6933 33.8703 28.48C34.1156 28.2613 34.4169 28.088 34.7743 27.96C35.1316 27.832 35.5396 27.768 35.9983 27.768C36.5316 27.768 37.0089 27.8533 37.4303 28.024C37.8569 28.1893 38.2249 28.4187 38.5343 28.712L38.2143 29.232ZM43.6055 38.744V27.896H44.4535C44.6562 27.896 44.7842 27.9947 44.8375 28.192L44.9575 29.152C45.3042 28.7307 45.6988 28.392 46.1415 28.136C46.5895 27.88 47.1042 27.752 47.6855 27.752C48.1495 27.752 48.5708 27.8427 48.9495 28.024C49.3282 28.2 49.6508 28.464 49.9175 28.816C50.1842 29.1627 50.3895 29.5947 50.5335 30.112C50.6775 30.6293 50.7495 31.224 50.7495 31.896C50.7495 32.4933 50.6695 33.0507 50.5095 33.568C50.3495 34.08 50.1202 34.5253 49.8215 34.904C49.5228 35.2773 49.1548 35.5733 48.7175 35.792C48.2855 36.0053 47.7975 36.112 47.2535 36.112C46.7522 36.112 46.3228 36.0293 45.9655 35.864C45.6135 35.6987 45.3015 35.464 45.0295 35.16V38.744H43.6055ZM47.2135 28.904C46.7495 28.904 46.3415 29.0107 45.9895 29.224C45.6428 29.4373 45.3228 29.7387 45.0295 30.128V34.048C45.2908 34.4 45.5762 34.648 45.8855 34.792C46.2002 34.936 46.5495 35.008 46.9335 35.008C47.6855 35.008 48.2642 34.7387 48.6695 34.2C49.0748 33.6613 49.2775 32.8933 49.2775 31.896C49.2775 31.368 49.2295 30.9147 49.1335 30.536C49.0428 30.1573 48.9095 29.848 48.7335 29.608C48.5575 29.3627 48.3415 29.184 48.0855 29.072C47.8295 28.96 47.5388 28.904 47.2135 28.904ZM55.6416 27.768C56.127 27.768 56.575 27.8507 56.9856 28.016C57.3963 28.176 57.751 28.4107 58.0496 28.72C58.3483 29.024 58.5803 29.4027 58.7456 29.856C58.9163 30.304 59.0016 30.816 59.0016 31.392C59.0016 31.616 58.9776 31.7653 58.9296 31.84C58.8816 31.9147 58.791 31.952 58.6576 31.952H53.2656C53.2763 32.464 53.3456 32.9093 53.4736 33.288C53.6016 33.6667 53.7776 33.984 54.0016 34.24C54.2256 34.4907 54.4923 34.68 54.8016 34.808C55.111 34.9307 55.4576 34.992 55.8416 34.992C56.199 34.992 56.5056 34.952 56.7616 34.872C57.023 34.7867 57.247 34.696 57.4336 34.6C57.6203 34.504 57.775 34.416 57.8976 34.336C58.0256 34.2507 58.135 34.208 58.2256 34.208C58.343 34.208 58.4336 34.2533 58.4976 34.344L58.8976 34.864C58.7216 35.0773 58.511 35.264 58.2656 35.424C58.0203 35.5787 57.7563 35.7067 57.4736 35.808C57.1963 35.9093 56.9083 35.984 56.6096 36.032C56.311 36.0853 56.015 36.112 55.7216 36.112C55.1616 36.112 54.6443 36.0187 54.1696 35.832C53.7003 35.64 53.2923 35.3627 52.9456 35C52.6043 34.632 52.3376 34.1787 52.1456 33.64C51.9536 33.1013 51.8576 32.4827 51.8576 31.784C51.8576 31.2187 51.943 30.6907 52.1136 30.2C52.2896 29.7093 52.5403 29.2853 52.8656 28.928C53.191 28.5653 53.5883 28.2827 54.0576 28.08C54.527 27.872 55.055 27.768 55.6416 27.768ZM55.6736 28.816C54.9856 28.816 54.4443 29.016 54.0496 29.416C53.655 29.8107 53.4096 30.36 53.3136 31.064H57.7216C57.7216 30.7333 57.6763 30.432 57.5856 30.16C57.495 29.8827 57.3616 29.6453 57.1856 29.448C57.0096 29.2453 56.7936 29.0907 56.5376 28.984C56.287 28.872 55.999 28.816 55.6736 28.816ZM60.8243 36V27.896H61.6403C61.7949 27.896 61.9016 27.9253 61.9603 27.984C62.0189 28.0427 62.0589 28.144 62.0803 28.288L62.1763 29.552C62.4536 28.9867 62.7949 28.5467 63.2003 28.232C63.6109 27.912 64.0909 27.752 64.6403 27.752C64.8643 27.752 65.0669 27.7787 65.2483 27.832C65.4296 27.88 65.5976 27.9493 65.7523 28.04L65.5683 29.104C65.5309 29.2373 65.4483 29.304 65.3203 29.304C65.2456 29.304 65.1309 29.28 64.9763 29.232C64.8216 29.1787 64.6056 29.152 64.3283 29.152C63.8323 29.152 63.4163 29.296 63.0803 29.584C62.7496 29.872 62.4723 30.2907 62.2483 30.84V36H60.8243ZM70.3711 38.744V27.896H71.2191C71.4218 27.896 71.5498 27.9947 71.6031 28.192L71.7231 29.152C72.0698 28.7307 72.4645 28.392 72.9071 28.136C73.3551 27.88 73.8698 27.752 74.4511 27.752C74.9151 27.752 75.3365 27.8427 75.7151 28.024C76.0938 28.2 76.4165 28.464 76.6831 28.816C76.9498 29.1627 77.1551 29.5947 77.2991 30.112C77.4431 30.6293 77.5151 31.224 77.5151 31.896C77.5151 32.4933 77.4351 33.0507 77.2751 33.568C77.1151 34.08 76.8858 34.5253 76.5871 34.904C76.2885 35.2773 75.9205 35.5733 75.4831 35.792C75.0511 36.0053 74.5631 36.112 74.0191 36.112C73.5178 36.112 73.0885 36.0293 72.7311 35.864C72.3791 35.6987 72.0671 35.464 71.7951 35.16V38.744H70.3711ZM73.9791 28.904C73.5151 28.904 73.1071 29.0107 72.7551 29.224C72.4085 29.4373 72.0885 29.7387 71.7951 30.128V34.048C72.0565 34.4 72.3418 34.648 72.6511 34.792C72.9658 34.936 73.3151 35.008 73.6991 35.008C74.4511 35.008 75.0298 34.7387 75.4351 34.2C75.8405 33.6613 76.0431 32.8933 76.0431 31.896C76.0431 31.368 75.9951 30.9147 75.8991 30.536C75.8085 30.1573 75.6751 29.848 75.4991 29.608C75.3231 29.3627 75.1071 29.184 74.8511 29.072C74.5951 28.96 74.3045 28.904 73.9791 28.904ZM85.1513 36H84.5193C84.3806 36 84.2686 35.9787 84.1833 35.936C84.0979 35.8933 84.0419 35.8027 84.0153 35.664L83.8553 34.912C83.6419 35.104 83.4339 35.2773 83.2313 35.432C83.0286 35.5813 82.8153 35.7093 82.5913 35.816C82.3673 35.9173 82.1273 35.9947 81.8713 36.048C81.6206 36.1013 81.3406 36.128 81.0313 36.128C80.7166 36.128 80.4206 36.0853 80.1432 36C79.8713 35.9093 79.6339 35.776 79.4313 35.6C79.2286 35.424 79.0659 35.2027 78.9433 34.936C78.8259 34.664 78.7673 34.344 78.7673 33.976C78.7673 33.656 78.8553 33.3493 79.0312 33.056C79.2073 32.7573 79.4899 32.4933 79.8793 32.264C80.2739 32.0347 80.7886 31.848 81.4233 31.704C82.0579 31.5547 82.8339 31.4693 83.7513 31.448V30.816C83.7513 30.1867 83.6153 29.712 83.3433 29.392C83.0766 29.0667 82.6793 28.904 82.1513 28.904C81.8046 28.904 81.5113 28.9493 81.2713 29.04C81.0366 29.1253 80.8313 29.224 80.6553 29.336C80.4846 29.4427 80.3353 29.5413 80.2073 29.632C80.0846 29.7173 79.9619 29.76 79.8393 29.76C79.7433 29.76 79.6579 29.736 79.5833 29.688C79.5139 29.6347 79.4579 29.5707 79.4153 29.496L79.1593 29.04C79.6073 28.608 80.0899 28.2853 80.6073 28.072C81.1246 27.8587 81.6979 27.752 82.3273 27.752C82.7806 27.752 83.1833 27.8267 83.5353 27.976C83.8873 28.1253 84.1833 28.3333 84.4233 28.6C84.6633 28.8667 84.8446 29.1893 84.9673 29.568C85.0899 29.9467 85.1513 30.3627 85.1513 30.816V36ZM81.4553 35.128C81.7059 35.128 81.9353 35.104 82.1432 35.056C82.3513 35.0027 82.5459 34.9307 82.7273 34.84C82.9139 34.744 83.0899 34.6293 83.2553 34.496C83.4259 34.3627 83.5913 34.2107 83.7513 34.04V32.352C83.0953 32.3733 82.5379 32.4267 82.0793 32.512C81.6206 32.592 81.2473 32.6987 80.9593 32.832C80.6713 32.9653 80.4606 33.1227 80.3273 33.304C80.1993 33.4853 80.1353 33.688 80.1353 33.912C80.1353 34.1253 80.1699 34.3093 80.2393 34.464C80.3086 34.6187 80.4019 34.7467 80.5193 34.848C80.6366 34.944 80.7753 35.016 80.9353 35.064C81.0953 35.1067 81.2686 35.128 81.4553 35.128ZM90.0366 27.76C90.3886 27.76 90.7166 27.8 91.0206 27.88C91.33 27.9547 91.61 28.0667 91.8606 28.216H94.0606V28.744C94.0606 28.92 93.9486 29.032 93.7246 29.08L92.8046 29.208C92.986 29.5547 93.0766 29.9413 93.0766 30.368C93.0766 30.7627 92.9993 31.1227 92.8446 31.448C92.6953 31.768 92.4846 32.0427 92.2126 32.272C91.946 32.5013 91.626 32.6773 91.2526 32.8C90.8846 32.9227 90.4793 32.984 90.0366 32.984C89.658 32.984 89.3006 32.9387 88.9646 32.848C88.794 32.9547 88.6633 33.0693 88.5726 33.192C88.4873 33.3147 88.4446 33.4347 88.4446 33.552C88.4446 33.744 88.522 33.8907 88.6766 33.992C88.8313 34.088 89.0366 34.1573 89.2926 34.2C89.5486 34.2427 89.8393 34.2693 90.1646 34.28C90.49 34.2907 90.8206 34.3093 91.1566 34.336C91.498 34.3573 91.8313 34.3973 92.1566 34.456C92.482 34.5147 92.7726 34.6107 93.0286 34.744C93.2846 34.8773 93.49 35.0613 93.6446 35.296C93.7993 35.5307 93.8766 35.8347 93.8766 36.208C93.8766 36.5547 93.7886 36.8907 93.6126 37.216C93.442 37.5413 93.194 37.8293 92.8686 38.08C92.5433 38.336 92.146 38.5387 91.6766 38.688C91.2073 38.8427 90.6766 38.92 90.0846 38.92C89.4926 38.92 88.9726 38.8613 88.5246 38.744C88.082 38.6267 87.714 38.4693 87.4206 38.272C87.1273 38.0747 86.906 37.8453 86.7566 37.584C86.6126 37.328 86.5406 37.0587 86.5406 36.776C86.5406 36.376 86.666 36.0373 86.9166 35.76C87.1726 35.4773 87.522 35.2533 87.9646 35.088C87.7353 34.9813 87.5513 34.84 87.4126 34.664C87.2793 34.4827 87.2126 34.2427 87.2126 33.944C87.2126 33.8267 87.234 33.7067 87.2766 33.584C87.3193 33.456 87.3833 33.3307 87.4686 33.208C87.5593 33.0853 87.6686 32.968 87.7966 32.856C87.9246 32.744 88.074 32.6453 88.2446 32.56C87.8446 32.336 87.53 32.04 87.3006 31.672C87.0766 31.2987 86.9646 30.864 86.9646 30.368C86.9646 29.9733 87.0393 29.616 87.1886 29.296C87.3433 28.9707 87.5566 28.696 87.8286 28.472C88.1006 28.2427 88.4233 28.0667 88.7966 27.944C89.1753 27.8213 89.5886 27.76 90.0366 27.76ZM92.5646 36.44C92.5646 36.2373 92.5086 36.0747 92.3966 35.952C92.2846 35.8293 92.1326 35.736 91.9406 35.672C91.7486 35.6027 91.5273 35.552 91.2766 35.52C91.026 35.488 90.762 35.4667 90.4846 35.456C90.2073 35.44 89.9246 35.424 89.6366 35.408C89.3486 35.392 89.074 35.3627 88.8126 35.32C88.5086 35.464 88.2606 35.64 88.0686 35.848C87.882 36.056 87.7886 36.304 87.7886 36.592C87.7886 36.7733 87.834 36.9413 87.9246 37.096C88.0206 37.256 88.1646 37.392 88.3566 37.504C88.5486 37.6213 88.7886 37.712 89.0766 37.776C89.37 37.8453 89.714 37.88 90.1086 37.88C90.4926 37.88 90.8366 37.8453 91.1406 37.776C91.4446 37.7067 91.7006 37.608 91.9086 37.48C92.122 37.352 92.2846 37.2 92.3966 37.024C92.5086 36.848 92.5646 36.6533 92.5646 36.44ZM90.0366 32.04C90.3246 32.04 90.578 32 90.7966 31.92C91.0206 31.84 91.2073 31.728 91.3566 31.584C91.506 31.44 91.618 31.2693 91.6926 31.072C91.7673 30.8693 91.8046 30.648 91.8046 30.408C91.8046 29.912 91.6526 29.5173 91.3486 29.224C91.05 28.9307 90.6126 28.784 90.0366 28.784C89.466 28.784 89.0286 28.9307 88.7246 29.224C88.426 29.5173 88.2766 29.912 88.2766 30.408C88.2766 30.648 88.314 30.8693 88.3886 31.072C88.4686 31.2693 88.5833 31.44 88.7326 31.584C88.882 31.728 89.066 31.84 89.2846 31.92C89.5033 32 89.754 32.04 90.0366 32.04ZM98.6885 27.768C99.1738 27.768 99.6218 27.8507 100.033 28.016C100.443 28.176 100.798 28.4107 101.097 28.72C101.395 29.024 101.627 29.4027 101.793 29.856C101.963 30.304 102.049 30.816 102.049 31.392C102.049 31.616 102.025 31.7653 101.977 31.84C101.929 31.9147 101.838 31.952 101.705 31.952H96.3125C96.3232 32.464 96.3925 32.9093 96.5205 33.288C96.6485 33.6667 96.8245 33.984 97.0485 34.24C97.2725 34.4907 97.5392 34.68 97.8485 34.808C98.1578 34.9307 98.5045 34.992 98.8885 34.992C99.2458 34.992 99.5525 34.952 99.8085 34.872C100.07 34.7867 100.294 34.696 100.481 34.6C100.667 34.504 100.822 34.416 100.945 34.336C101.073 34.2507 101.182 34.208 101.273 34.208C101.39 34.208 101.481 34.2533 101.545 34.344L101.945 34.864C101.769 35.0773 101.558 35.264 101.313 35.424C101.067 35.5787 100.803 35.7067 100.521 35.808C100.243 35.9093 99.9552 35.984 99.6565 36.032C99.3578 36.0853 99.0618 36.112 98.7685 36.112C98.2085 36.112 97.6912 36.0187 97.2165 35.832C96.7472 35.64 96.3392 35.3627 95.9925 35C95.6512 34.632 95.3845 34.1787 95.1925 33.64C95.0005 33.1013 94.9045 32.4827 94.9045 31.784C94.9045 31.2187 94.9898 30.6907 95.1605 30.2C95.3365 29.7093 95.5872 29.2853 95.9125 28.928C96.2378 28.5653 96.6352 28.2827 97.1045 28.08C97.5738 27.872 98.1018 27.768 98.6885 27.768ZM98.7205 28.816C98.0325 28.816 97.4912 29.016 97.0965 29.416C96.7018 29.8107 96.4565 30.36 96.3605 31.064H100.769C100.769 30.7333 100.723 30.432 100.633 30.16C100.542 29.8827 100.409 29.6453 100.233 29.448C100.057 29.2453 99.8405 29.0907 99.5845 28.984C99.3338 28.872 99.0458 28.816 98.7205 28.816ZM103.727 35.12C103.727 34.9813 103.751 34.8507 103.799 34.728C103.852 34.6053 103.922 34.4987 104.007 34.408C104.098 34.3173 104.204 34.2453 104.327 34.192C104.45 34.1387 104.58 34.112 104.719 34.112C104.858 34.112 104.988 34.1387 105.111 34.192C105.234 34.2453 105.34 34.3173 105.431 34.408C105.522 34.4987 105.591 34.6053 105.639 34.728C105.692 34.8507 105.719 34.9813 105.719 35.12C105.719 35.264 105.692 35.3973 105.639 35.52C105.591 35.6373 105.522 35.7413 105.431 35.832C105.34 35.9227 105.234 35.992 105.111 36.04C104.988 36.0933 104.858 36.12 104.719 36.12C104.58 36.12 104.45 36.0933 104.327 36.04C104.204 35.992 104.098 35.9227 104.007 35.832C103.922 35.7413 103.852 35.6373 103.799 35.52C103.751 35.3973 103.727 35.264 103.727 35.12ZM103.727 29.12C103.727 28.9813 103.751 28.8507 103.799 28.728C103.852 28.6053 103.922 28.4987 104.007 28.408C104.098 28.3173 104.204 28.2453 104.327 28.192C104.45 28.1387 104.58 28.112 104.719 28.112C104.858 28.112 104.988 28.1387 105.111 28.192C105.234 28.2453 105.34 28.3173 105.431 28.408C105.522 28.4987 105.591 28.6053 105.639 28.728C105.692 28.8507 105.719 28.9813 105.719 29.12C105.719 29.264 105.692 29.3973 105.639 29.52C105.591 29.6373 105.522 29.7413 105.431 29.832C105.34 29.9227 105.234 29.9947 105.111 30.048C104.988 30.096 104.858 30.12 104.719 30.12C104.58 30.12 104.45 30.096 104.327 30.048C104.204 29.9947 104.098 29.9227 104.007 29.832C103.922 29.7413 103.852 29.6373 103.799 29.52C103.751 29.3973 103.727 29.264 103.727 29.12Z" fill="black"/>
<path d="M138.808 24.408C139.293 24.408 139.747 24.48 140.168 24.624C140.589 24.768 140.952 24.9787 141.256 25.256C141.565 25.528 141.808 25.8613 141.984 26.256C142.16 26.6507 142.248 27.0987 142.248 27.6C142.248 28.0267 142.184 28.4213 142.056 28.784C141.928 29.1467 141.755 29.496 141.536 29.832C141.317 30.1627 141.064 30.4853 140.776 30.8C140.493 31.1093 140.192 31.4267 139.872 31.752L136.856 34.84C137.069 34.7813 137.285 34.736 137.504 34.704C137.723 34.6667 137.933 34.648 138.136 34.648H141.976C142.131 34.648 142.253 34.6933 142.344 34.784C142.435 34.8747 142.48 34.992 142.48 35.136V36H134.832V35.512C134.832 35.4107 134.851 35.3067 134.888 35.2C134.931 35.0933 134.997 34.9947 135.088 34.904L138.76 31.216C139.064 30.9067 139.341 30.6107 139.592 30.328C139.843 30.04 140.056 29.752 140.232 29.464C140.413 29.176 140.552 28.8853 140.648 28.592C140.744 28.2933 140.792 27.976 140.792 27.64C140.792 27.304 140.739 27.0107 140.632 26.76C140.525 26.504 140.379 26.2933 140.192 26.128C140.005 25.9627 139.787 25.84 139.536 25.76C139.285 25.6747 139.016 25.632 138.728 25.632C138.44 25.632 138.173 25.6747 137.928 25.76C137.683 25.8453 137.464 25.9653 137.272 26.12C137.085 26.2693 136.925 26.448 136.792 26.656C136.664 26.864 136.573 27.0933 136.52 27.344C136.477 27.4987 136.413 27.6107 136.328 27.68C136.243 27.7493 136.131 27.784 135.992 27.784C135.965 27.784 135.936 27.784 135.904 27.784C135.877 27.7787 135.845 27.7733 135.808 27.768L135.064 27.64C135.139 27.1173 135.283 26.656 135.496 26.256C135.709 25.8507 135.979 25.512 136.304 25.24C136.635 24.968 137.011 24.7627 137.432 24.624C137.859 24.48 138.317 24.408 138.808 24.408ZM152.081 30.272C152.081 31.2747 151.972 32.144 151.753 32.88C151.54 33.6107 151.247 34.216 150.873 34.696C150.5 35.176 150.057 35.5333 149.545 35.768C149.039 36.0027 148.495 36.12 147.913 36.12C147.327 36.12 146.78 36.0027 146.273 35.768C145.772 35.5333 145.335 35.176 144.961 34.696C144.588 34.216 144.295 33.6107 144.081 32.88C143.868 32.144 143.761 31.2747 143.761 30.272C143.761 29.2693 143.868 28.4 144.081 27.664C144.295 26.928 144.588 26.32 144.961 25.84C145.335 25.3547 145.772 24.9947 146.273 24.76C146.78 24.5253 147.327 24.408 147.913 24.408C148.495 24.408 149.039 24.5253 149.545 24.76C150.057 24.9947 150.5 25.3547 150.873 25.84C151.247 26.32 151.54 26.928 151.753 27.664C151.972 28.4 152.081 29.2693 152.081 30.272ZM150.601 30.272C150.601 29.3973 150.527 28.664 150.377 28.072C150.233 27.4747 150.036 26.9947 149.785 26.632C149.54 26.2693 149.255 26.0107 148.929 25.856C148.604 25.696 148.265 25.616 147.913 25.616C147.561 25.616 147.223 25.696 146.897 25.856C146.572 26.0107 146.287 26.2693 146.041 26.632C145.796 26.9947 145.599 27.4747 145.449 28.072C145.305 28.664 145.233 29.3973 145.233 30.272C145.233 31.1467 145.305 31.88 145.449 32.472C145.599 33.064 145.796 33.5413 146.041 33.904C146.287 34.2667 146.572 34.528 146.897 34.688C147.223 34.8427 147.561 34.92 147.913 34.92C148.265 34.92 148.604 34.8427 148.929 34.688C149.255 34.528 149.54 34.2667 149.785 33.904C150.036 33.5413 150.233 33.064 150.377 32.472C150.527 31.88 150.601 31.1467 150.601 30.272Z" fill="black"/>
<rect x="122.5" y="11.5" width="73" height="37" rx="3.5" stroke="#979797"/>
<path fill-rule="evenodd" clip-rule="evenodd" d="M171.707 26.7071C172.098 26.3166 172.731 26.3166 173.121 26.7071L177.707 31.2929C178.098 31.6834 178.098 32.3166 177.707 32.7071C177.317 33.0976 176.683 33.0976 176.293 32.7071L171.707 28.1213C171.317 27.7308 171.317 27.0976 171.707 26.7071Z" fill="black"/>
<path fill-rule="evenodd" clip-rule="evenodd" d="M182.293 26.7071C181.902 26.3166 181.269 26.3166 180.879 26.7071L176.293 31.2929C175.902 31.6834 175.902 32.3166 176.293 32.7071C176.683 33.0976 177.317 33.0976 177.707 32.7071L182.293 28.1213C182.683 27.7308 182.683 27.0976 182.293 26.7071Z" fill="black"/>
<path d="M584.231 38.744V27.896H585.079C585.281 27.896 585.409 27.9947 585.463 28.192L585.583 29.152C585.929 28.7307 586.324 28.392 586.767 28.136C587.215 27.88 587.729 27.752 588.311 27.752C588.775 27.752 589.196 27.8427 589.575 28.024C589.953 28.2 590.276 28.464 590.543 28.816C590.809 29.1627 591.015 29.5947 591.159 30.112C591.303 30.6293 591.375 31.224 591.375 31.896C591.375 32.4933 591.295 33.0507 591.135 33.568C590.975 34.08 590.745 34.5253 590.447 34.904C590.148 35.2773 589.78 35.5733 589.343 35.792C588.911 36.0053 588.423 36.112 587.879 36.112C587.377 36.112 586.948 36.0293 586.591 35.864C586.239 35.6987 585.927 35.464 585.655 35.16V38.744H584.231ZM587.839 28.904C587.375 28.904 586.967 29.0107 586.615 29.224C586.268 29.4373 585.948 29.7387 585.655 30.128V34.048C585.916 34.4 586.201 34.648 586.511 34.792C586.825 34.936 587.175 35.008 587.559 35.008C588.311 35.008 588.889 34.7387 589.295 34.2C589.7 33.6613 589.903 32.8933 589.903 31.896C589.903 31.368 589.855 30.9147 589.759 30.536C589.668 30.1573 589.535 29.848 589.359 29.608C589.183 29.3627 588.967 29.184 588.711 29.072C588.455 28.96 588.164 28.904 587.839 28.904ZM599.011 36H598.379C598.24 36 598.128 35.9787 598.043 35.936C597.957 35.8933 597.901 35.8027 597.875 35.664L597.715 34.912C597.501 35.104 597.293 35.2773 597.091 35.432C596.888 35.5813 596.675 35.7093 596.451 35.816C596.227 35.9173 595.987 35.9947 595.731 36.048C595.48 36.1013 595.2 36.128 594.891 36.128C594.576 36.128 594.28 36.0853 594.003 36C593.731 35.9093 593.493 35.776 593.291 35.6C593.088 35.424 592.925 35.2027 592.803 34.936C592.685 34.664 592.627 34.344 592.627 33.976C592.627 33.656 592.715 33.3493 592.891 33.056C593.067 32.7573 593.349 32.4933 593.739 32.264C594.133 32.0347 594.648 31.848 595.283 31.704C595.917 31.5547 596.693 31.4693 597.611 31.448V30.816C597.611 30.1867 597.475 29.712 597.203 29.392C596.936 29.0667 596.539 28.904 596.011 28.904C595.664 28.904 595.371 28.9493 595.131 29.04C594.896 29.1253 594.691 29.224 594.515 29.336C594.344 29.4427 594.195 29.5413 594.067 29.632C593.944 29.7173 593.821 29.76 593.699 29.76C593.603 29.76 593.517 29.736 593.443 29.688C593.373 29.6347 593.317 29.5707 593.275 29.496L593.019 29.04C593.467 28.608 593.949 28.2853 594.467 28.072C594.984 27.8587 595.557 27.752 596.187 27.752C596.64 27.752 597.043 27.8267 597.395 27.976C597.747 28.1253 598.043 28.3333 598.283 28.6C598.523 28.8667 598.704 29.1893 598.827 29.568C598.949 29.9467 599.011 30.3627 599.011 30.816V36ZM595.315 35.128C595.565 35.128 595.795 35.104 596.003 35.056C596.211 35.0027 596.405 34.9307 596.587 34.84C596.773 34.744 596.949 34.6293 597.115 34.496C597.285 34.3627 597.451 34.2107 597.611 34.04V32.352C596.955 32.3733 596.397 32.4267 595.939 32.512C595.48 32.592 595.107 32.6987 594.819 32.832C594.531 32.9653 594.32 33.1227 594.187 33.304C594.059 33.4853 593.995 33.688 593.995 33.912C593.995 34.1253 594.029 34.3093 594.099 34.464C594.168 34.6187 594.261 34.7467 594.379 34.848C594.496 34.944 594.635 35.016 594.795 35.064C594.955 35.1067 595.128 35.128 595.315 35.128ZM603.896 27.76C604.248 27.76 604.576 27.8 604.88 27.88C605.189 27.9547 605.469 28.0667 605.72 28.216H607.92V28.744C607.92 28.92 607.808 29.032 607.584 29.08L606.664 29.208C606.845 29.5547 606.936 29.9413 606.936 30.368C606.936 30.7627 606.859 31.1227 606.704 31.448C606.555 31.768 606.344 32.0427 606.072 32.272C605.805 32.5013 605.485 32.6773 605.112 32.8C604.744 32.9227 604.339 32.984 603.896 32.984C603.517 32.984 603.16 32.9387 602.824 32.848C602.653 32.9547 602.523 33.0693 602.432 33.192C602.347 33.3147 602.304 33.4347 602.304 33.552C602.304 33.744 602.381 33.8907 602.536 33.992C602.691 34.088 602.896 34.1573 603.152 34.2C603.408 34.2427 603.699 34.2693 604.024 34.28C604.349 34.2907 604.68 34.3093 605.016 34.336C605.357 34.3573 605.691 34.3973 606.016 34.456C606.341 34.5147 606.632 34.6107 606.888 34.744C607.144 34.8773 607.349 35.0613 607.504 35.296C607.659 35.5307 607.736 35.8347 607.736 36.208C607.736 36.5547 607.648 36.8907 607.472 37.216C607.301 37.5413 607.053 37.8293 606.728 38.08C606.403 38.336 606.005 38.5387 605.536 38.688C605.067 38.8427 604.536 38.92 603.944 38.92C603.352 38.92 602.832 38.8613 602.384 38.744C601.941 38.6267 601.573 38.4693 601.28 38.272C600.987 38.0747 600.765 37.8453 600.616 37.584C600.472 37.328 600.4 37.0587 600.4 36.776C600.4 36.376 600.525 36.0373 600.776 35.76C601.032 35.4773 601.381 35.2533 601.824 35.088C601.595 34.9813 601.411 34.84 601.272 34.664C601.139 34.4827 601.072 34.2427 601.072 33.944C601.072 33.8267 601.093 33.7067 601.136 33.584C601.179 33.456 601.243 33.3307 601.328 33.208C601.419 33.0853 601.528 32.968 601.656 32.856C601.784 32.744 601.933 32.6453 602.104 32.56C601.704 32.336 601.389 32.04 601.16 31.672C600.936 31.2987 600.824 30.864 600.824 30.368C600.824 29.9733 600.899 29.616 601.048 29.296C601.203 28.9707 601.416 28.696 601.688 28.472C601.96 28.2427 602.283 28.0667 602.656 27.944C603.035 27.8213 603.448 27.76 603.896 27.76ZM606.424 36.44C606.424 36.2373 606.368 36.0747 606.256 35.952C606.144 35.8293 605.992 35.736 605.8 35.672C605.608 35.6027 605.387 35.552 605.136 35.52C604.885 35.488 604.621 35.4667 604.344 35.456C604.067 35.44 603.784 35.424 603.496 35.408C603.208 35.392 602.933 35.3627 602.672 35.32C602.368 35.464 602.12 35.64 601.928 35.848C601.741 36.056 601.648 36.304 601.648 36.592C601.648 36.7733 601.693 36.9413 601.784 37.096C601.88 37.256 602.024 37.392 602.216 37.504C602.408 37.6213 602.648 37.712 602.936 37.776C603.229 37.8453 603.573 37.88 603.968 37.88C604.352 37.88 604.696 37.8453 605 37.776C605.304 37.7067 605.56 37.608 605.768 37.48C605.981 37.352 606.144 37.2 606.256 37.024C606.368 36.848 606.424 36.6533 606.424 36.44ZM603.896 32.04C604.184 32.04 604.437 32 604.656 31.92C604.88 31.84 605.067 31.728 605.216 31.584C605.365 31.44 605.477 31.2693 605.552 31.072C605.627 30.8693 605.664 30.648 605.664 30.408C605.664 29.912 605.512 29.5173 605.208 29.224C604.909 28.9307 604.472 28.784 603.896 28.784C603.325 28.784 602.888 28.9307 602.584 29.224C602.285 29.5173 602.136 29.912 602.136 30.408C602.136 30.648 602.173 30.8693 602.248 31.072C602.328 31.2693 602.443 31.44 602.592 31.584C602.741 31.728 602.925 31.84 603.144 31.92C603.363 32 603.613 32.04 603.896 32.04ZM612.548 27.768C613.033 27.768 613.481 27.8507 613.892 28.016C614.303 28.176 614.657 28.4107 614.956 28.72C615.255 29.024 615.487 29.4027 615.652 29.856C615.823 30.304 615.908 30.816 615.908 31.392C615.908 31.616 615.884 31.7653 615.836 31.84C615.788 31.9147 615.697 31.952 615.564 31.952H610.172C610.183 32.464 610.252 32.9093 610.38 33.288C610.508 33.6667 610.684 33.984 610.908 34.24C611.132 34.4907 611.399 34.68 611.708 34.808C612.017 34.9307 612.364 34.992 612.748 34.992C613.105 34.992 613.412 34.952 613.668 34.872C613.929 34.7867 614.153 34.696 614.34 34.6C614.527 34.504 614.681 34.416 614.804 34.336C614.932 34.2507 615.041 34.208 615.132 34.208C615.249 34.208 615.34 34.2533 615.404 34.344L615.804 34.864C615.628 35.0773 615.417 35.264 615.172 35.424C614.927 35.5787 614.663 35.7067 614.38 35.808C614.103 35.9093 613.815 35.984 613.516 36.032C613.217 36.0853 612.921 36.112 612.628 36.112C612.068 36.112 611.551 36.0187 611.076 35.832C610.607 35.64 610.199 35.3627 609.852 35C609.511 34.632 609.244 34.1787 609.052 33.64C608.86 33.1013 608.764 32.4827 608.764 31.784C608.764 31.2187 608.849 30.6907 609.02 30.2C609.196 29.7093 609.447 29.2853 609.772 28.928C610.097 28.5653 610.495 28.2827 610.964 28.08C611.433 27.872 611.961 27.768 612.548 27.768ZM612.58 28.816C611.892 28.816 611.351 29.016 610.956 29.416C610.561 29.8107 610.316 30.36 610.22 31.064H614.628C614.628 30.7333 614.583 30.432 614.492 30.16C614.401 29.8827 614.268 29.6453 614.092 29.448C613.916 29.2453 613.7 29.0907 613.444 28.984C613.193 28.872 612.905 28.816 612.58 28.816ZM621.952 34.912H624.416V27.096C624.416 26.8613 624.424 26.624 624.44 26.384L622.392 28.136C622.339 28.1787 622.286 28.2107 622.232 28.232C622.179 28.248 622.128 28.256 622.08 28.256C622 28.256 621.928 28.24 621.864 28.208C621.8 28.1707 621.752 28.128 621.72 28.08L621.272 27.464L624.68 24.512H625.84V34.912H628.096V36H621.952V34.912Z" fill="black"/>
<path d="M516.296 34.912H518.76V27.096C518.76 26.8613 518.768 26.624 518.784 26.384L516.736 28.136C516.683 28.1787 516.629 28.2107 516.576 28.232C516.523 28.248 516.472 28.256 516.424 28.256C516.344 28.256 516.272 28.24 516.208 28.208C516.144 28.1707 516.096 28.128 516.064 28.08L515.616 27.464L519.024 24.512H520.184V34.912H522.44V36H516.296V34.912Z" fill="black"/>
<rect x="502.5" y="11.5" width="73" height="37" rx="3.5" stroke="#979797"/>
<path fill-rule="evenodd" clip-rule="evenodd" d="M551.707 26.7071C552.098 26.3166 552.731 26.3166 553.121 26.7071L557.707 31.2929C558.098 31.6834 558.098 32.3166 557.707 32.7071C557.317 33.0976 556.683 33.0976 556.293 32.7071L551.707 28.1213C551.317 27.7308 551.317 27.0976 551.707 26.7071Z" fill="black"/>
<path fill-rule="evenodd" clip-rule="evenodd" d="M562.293 26.7071C561.902 26.3166 561.269 26.3166 560.879 26.7071L556.293 31.2929C555.902 31.6834 555.902 32.3166 556.293 32.7071C556.683 33.0976 557.317 33.0976 557.707 32.7071L562.293 28.1213C562.683 27.7308 562.683 27.0976 562.293 26.7071Z" fill="black"/>
<line x1="220.5" y1="2.18557e-08" x2="220.5" y2="60" stroke="#D8D8D8"/>
<line x1="656.5" y1="2.18557e-08" x2="656.5" y2="60" stroke="#D8D8D8"/>
</svg>
