<svg width="977" height="50" viewBox="0 0 977 50" fill="none" xmlns="http://www.w3.org/2000/svg">
<rect width="977" height="50" fill="#F2FAFF"/>
<path d="M68.944 29.696H73.904V31H67.392V19.536H68.944V29.696ZM81.3388 31H80.7068C80.5681 31 80.4561 30.9787 80.3708 30.936C80.2854 30.8933 80.2294 30.8027 80.2028 30.664L80.0428 29.912C79.8294 30.104 79.6214 30.2773 79.4188 30.432C79.2161 30.5813 79.0028 30.7093 78.7788 30.816C78.5548 30.9173 78.3148 30.9947 78.0588 31.048C77.8081 31.1013 77.5281 31.128 77.2188 31.128C76.9041 31.128 76.6081 31.0853 76.3307 31C76.0588 30.9093 75.8214 30.776 75.6188 30.6C75.4161 30.424 75.2534 30.2027 75.1308 29.936C75.0134 29.664 74.9548 29.344 74.9548 28.976C74.9548 28.656 75.0428 28.3493 75.2188 28.056C75.3948 27.7573 75.6774 27.4933 76.0668 27.264C76.4614 27.0347 76.9761 26.848 77.6108 26.704C78.2454 26.5547 79.0214 26.4693 79.9388 26.448V25.816C79.9388 25.1867 79.8028 24.712 79.5308 24.392C79.2641 24.0667 78.8668 23.904 78.3388 23.904C77.9921 23.904 77.6988 23.9493 77.4588 24.04C77.2241 24.1253 77.0188 24.224 76.8428 24.336C76.6721 24.4427 76.5228 24.5413 76.3948 24.632C76.2721 24.7173 76.1494 24.76 76.0268 24.76C75.9308 24.76 75.8454 24.736 75.7708 24.688C75.7014 24.6347 75.6454 24.5707 75.6028 24.496L75.3468 24.04C75.7948 23.608 76.2774 23.2853 76.7948 23.072C77.3121 22.8587 77.8854 22.752 78.5148 22.752C78.9681 22.752 79.3708 22.8267 79.7228 22.976C80.0748 23.1253 80.3708 23.3333 80.6108 23.6C80.8508 23.8667 81.0321 24.1893 81.1548 24.568C81.2774 24.9467 81.3388 25.3627 81.3388 25.816V31ZM77.6428 30.128C77.8934 30.128 78.1228 30.104 78.3307 30.056C78.5388 30.0027 78.7334 29.9307 78.9148 29.84C79.1014 29.744 79.2774 29.6293 79.4428 29.496C79.6134 29.3627 79.7788 29.2107 79.9388 29.04V27.352C79.2828 27.3733 78.7254 27.4267 78.2668 27.512C77.8081 27.592 77.4348 27.6987 77.1468 27.832C76.8588 27.9653 76.6481 28.1227 76.5148 28.304C76.3868 28.4853 76.3228 28.688 76.3228 28.912C76.3228 29.1253 76.3574 29.3093 76.4268 29.464C76.4961 29.6187 76.5894 29.7467 76.7068 29.848C76.8241 29.944 76.9628 30.016 77.1228 30.064C77.2828 30.1067 77.4561 30.128 77.6428 30.128ZM83.4961 31V22.896H84.3121C84.4668 22.896 84.5735 22.9253 84.6321 22.984C84.6908 23.0427 84.7308 23.144 84.7521 23.288L84.8481 24.552C85.1255 23.9867 85.4668 23.5467 85.8721 23.232C86.2828 22.912 86.7628 22.752 87.3121 22.752C87.5361 22.752 87.7388 22.7787 87.9201 22.832C88.1015 22.88 88.2695 22.9493 88.4241 23.04L88.2401 24.104C88.2028 24.2373 88.1201 24.304 87.9921 24.304C87.9175 24.304 87.8028 24.28 87.6481 24.232C87.4935 24.1787 87.2775 24.152 87.0001 24.152C86.5041 24.152 86.0881 24.296 85.7521 24.584C85.4215 24.872 85.1441 25.2907 84.9201 25.84V31H83.4961ZM92.6773 22.76C93.0293 22.76 93.3573 22.8 93.6613 22.88C93.9706 22.9547 94.2506 23.0667 94.5013 23.216H96.7013V23.744C96.7013 23.92 96.5893 24.032 96.3653 24.08L95.4453 24.208C95.6266 24.5547 95.7173 24.9413 95.7173 25.368C95.7173 25.7627 95.6399 26.1227 95.4853 26.448C95.3359 26.768 95.1253 27.0427 94.8533 27.272C94.5866 27.5013 94.2666 27.6773 93.8933 27.8C93.5253 27.9227 93.1199 27.984 92.6773 27.984C92.2986 27.984 91.9413 27.9387 91.6053 27.848C91.4346 27.9547 91.3039 28.0693 91.2133 28.192C91.1279 28.3147 91.0853 28.4347 91.0853 28.552C91.0853 28.744 91.1626 28.8907 91.3173 28.992C91.4719 29.088 91.6773 29.1573 91.9333 29.2C92.1893 29.2427 92.4799 29.2693 92.8053 29.28C93.1306 29.2907 93.4613 29.3093 93.7973 29.336C94.1386 29.3573 94.4719 29.3973 94.7973 29.456C95.1226 29.5147 95.4133 29.6107 95.6693 29.744C95.9253 29.8773 96.1306 30.0613 96.2853 30.296C96.4399 30.5307 96.5173 30.8347 96.5173 31.208C96.5173 31.5547 96.4293 31.8907 96.2533 32.216C96.0826 32.5413 95.8346 32.8293 95.5093 33.08C95.1839 33.336 94.7866 33.5387 94.3173 33.688C93.8479 33.8427 93.3173 33.92 92.7253 33.92C92.1333 33.92 91.6133 33.8613 91.1653 33.744C90.7226 33.6267 90.3546 33.4693 90.0613 33.272C89.7679 33.0747 89.5466 32.8453 89.3973 32.584C89.2533 32.328 89.1813 32.0587 89.1813 31.776C89.1813 31.376 89.3066 31.0373 89.5573 30.76C89.8133 30.4773 90.1626 30.2533 90.6053 30.088C90.3759 29.9813 90.1919 29.84 90.0533 29.664C89.9199 29.4827 89.8533 29.2427 89.8533 28.944C89.8533 28.8267 89.8746 28.7067 89.9173 28.584C89.9599 28.456 90.0239 28.3307 90.1093 28.208C90.1999 28.0853 90.3093 27.968 90.4373 27.856C90.5653 27.744 90.7146 27.6453 90.8853 27.56C90.4853 27.336 90.1706 27.04 89.9413 26.672C89.7173 26.2987 89.6053 25.864 89.6053 25.368C89.6053 24.9733 89.6799 24.616 89.8293 24.296C89.9839 23.9707 90.1973 23.696 90.4693 23.472C90.7413 23.2427 91.0639 23.0667 91.4373 22.944C91.8159 22.8213 92.2293 22.76 92.6773 22.76ZM95.2053 31.44C95.2053 31.2373 95.1493 31.0747 95.0373 30.952C94.9253 30.8293 94.7733 30.736 94.5813 30.672C94.3893 30.6027 94.1679 30.552 93.9173 30.52C93.6666 30.488 93.4026 30.4667 93.1253 30.456C92.8479 30.44 92.5653 30.424 92.2773 30.408C91.9893 30.392 91.7146 30.3627 91.4533 30.32C91.1493 30.464 90.9013 30.64 90.7093 30.848C90.5226 31.056 90.4293 31.304 90.4293 31.592C90.4293 31.7733 90.4746 31.9413 90.5653 32.096C90.6613 32.256 90.8053 32.392 90.9973 32.504C91.1893 32.6213 91.4293 32.712 91.7173 32.776C92.0106 32.8453 92.3546 32.88 92.7493 32.88C93.1333 32.88 93.4773 32.8453 93.7812 32.776C94.0853 32.7067 94.3413 32.608 94.5493 32.48C94.7626 32.352 94.9253 32.2 95.0373 32.024C95.1493 31.848 95.2053 31.6533 95.2053 31.44ZM92.6773 27.04C92.9653 27.04 93.2186 27 93.4373 26.92C93.6613 26.84 93.8479 26.728 93.9973 26.584C94.1466 26.44 94.2586 26.2693 94.3333 26.072C94.4079 25.8693 94.4453 25.648 94.4453 25.408C94.4453 24.912 94.2933 24.5173 93.9893 24.224C93.6906 23.9307 93.2533 23.784 92.6773 23.784C92.1066 23.784 91.6693 23.9307 91.3653 24.224C91.0666 24.5173 90.9173 24.912 90.9173 25.408C90.9173 25.648 90.9546 25.8693 91.0293 26.072C91.1093 26.2693 91.2239 26.44 91.3733 26.584C91.5226 26.728 91.7066 26.84 91.9253 26.92C92.1439 27 92.3946 27.04 92.6773 27.04ZM101.329 22.768C101.814 22.768 102.262 22.8507 102.673 23.016C103.084 23.176 103.438 23.4107 103.737 23.72C104.036 24.024 104.268 24.4027 104.433 24.856C104.604 25.304 104.689 25.816 104.689 26.392C104.689 26.616 104.665 26.7653 104.617 26.84C104.569 26.9147 104.478 26.952 104.345 26.952H98.9531C98.9638 27.464 99.0331 27.9093 99.1611 28.288C99.2891 28.6667 99.4651 28.984 99.6891 29.24C99.9131 29.4907 100.18 29.68 100.489 29.808C100.798 29.9307 101.145 29.992 101.529 29.992C101.886 29.992 102.193 29.952 102.449 29.872C102.71 29.7867 102.934 29.696 103.121 29.6C103.308 29.504 103.462 29.416 103.585 29.336C103.713 29.2507 103.822 29.208 103.913 29.208C104.03 29.208 104.121 29.2533 104.185 29.344L104.585 29.864C104.409 30.0773 104.198 30.264 103.953 30.424C103.708 30.5787 103.444 30.7067 103.161 30.808C102.884 30.9093 102.596 30.984 102.297 31.032C101.998 31.0853 101.702 31.112 101.409 31.112C100.849 31.112 100.332 31.0187 99.8571 30.832C99.3878 30.64 98.9798 30.3627 98.6331 30C98.2918 29.632 98.0251 29.1787 97.8331 28.64C97.6411 28.1013 97.5451 27.4827 97.5451 26.784C97.5451 26.2187 97.6305 25.6907 97.8011 25.2C97.9771 24.7093 98.2278 24.2853 98.5531 23.928C98.8785 23.5653 99.2758 23.2827 99.7451 23.08C100.214 22.872 100.742 22.768 101.329 22.768ZM101.361 23.816C100.673 23.816 100.132 24.016 99.7371 24.416C99.3425 24.8107 99.0971 25.36 99.0011 26.064H103.409C103.409 25.7333 103.364 25.432 103.273 25.16C103.182 24.8827 103.049 24.6453 102.873 24.448C102.697 24.2453 102.481 24.0907 102.225 23.984C101.974 23.872 101.686 23.816 101.361 23.816ZM115.134 24.336C115.091 24.3947 115.048 24.44 115.006 24.472C114.963 24.504 114.902 24.52 114.822 24.52C114.742 24.52 114.654 24.488 114.558 24.424C114.467 24.3547 114.35 24.28 114.206 24.2C114.062 24.12 113.886 24.048 113.678 23.984C113.475 23.9147 113.224 23.88 112.926 23.88C112.531 23.88 112.182 23.952 111.878 24.096C111.574 24.2347 111.318 24.4373 111.11 24.704C110.907 24.9707 110.752 25.2933 110.646 25.672C110.544 26.0507 110.493 26.4747 110.493 26.944C110.493 27.4347 110.55 27.872 110.662 28.256C110.774 28.6347 110.931 28.9547 111.134 29.216C111.336 29.472 111.582 29.6693 111.87 29.808C112.163 29.9413 112.491 30.008 112.854 30.008C113.2 30.008 113.486 29.968 113.71 29.888C113.934 29.8027 114.12 29.7093 114.27 29.608C114.419 29.5067 114.542 29.416 114.638 29.336C114.734 29.2507 114.83 29.208 114.926 29.208C115.048 29.208 115.139 29.2533 115.198 29.344L115.598 29.864C115.246 30.296 114.806 30.6133 114.278 30.816C113.75 31.0133 113.192 31.112 112.606 31.112C112.099 31.112 111.627 31.0187 111.19 30.832C110.758 30.6453 110.382 30.376 110.062 30.024C109.742 29.6667 109.488 29.2293 109.302 28.712C109.12 28.1947 109.03 27.6053 109.03 26.944C109.03 26.3413 109.112 25.784 109.278 25.272C109.448 24.76 109.694 24.32 110.014 23.952C110.339 23.5787 110.739 23.288 111.214 23.08C111.688 22.872 112.232 22.768 112.845 22.768C113.411 22.768 113.912 22.8613 114.35 23.048C114.787 23.2293 115.174 23.488 115.51 23.824L115.134 24.336ZM120.282 22.768C120.768 22.768 121.216 22.8507 121.626 23.016C122.037 23.176 122.392 23.4107 122.69 23.72C122.989 24.024 123.221 24.4027 123.386 24.856C123.557 25.304 123.642 25.816 123.642 26.392C123.642 26.616 123.618 26.7653 123.57 26.84C123.522 26.9147 123.432 26.952 123.298 26.952H117.906C117.917 27.464 117.986 27.9093 118.114 28.288C118.242 28.6667 118.418 28.984 118.642 29.24C118.866 29.4907 119.133 29.68 119.442 29.808C119.752 29.9307 120.098 29.992 120.482 29.992C120.84 29.992 121.146 29.952 121.402 29.872C121.664 29.7867 121.888 29.696 122.074 29.6C122.261 29.504 122.416 29.416 122.538 29.336C122.666 29.2507 122.776 29.208 122.866 29.208C122.984 29.208 123.074 29.2533 123.138 29.344L123.538 29.864C123.362 30.0773 123.152 30.264 122.906 30.424C122.661 30.5787 122.397 30.7067 122.114 30.808C121.837 30.9093 121.549 30.984 121.25 31.032C120.952 31.0853 120.656 31.112 120.362 31.112C119.802 31.112 119.285 31.0187 118.81 30.832C118.341 30.64 117.933 30.3627 117.586 30C117.245 29.632 116.978 29.1787 116.786 28.64C116.594 28.1013 116.498 27.4827 116.498 26.784C116.498 26.2187 116.584 25.6907 116.754 25.2C116.93 24.7093 117.181 24.2853 117.506 23.928C117.832 23.5653 118.229 23.2827 118.698 23.08C119.168 22.872 119.696 22.768 120.282 22.768ZM120.314 23.816C119.626 23.816 119.085 24.016 118.69 24.416C118.296 24.8107 118.05 25.36 117.954 26.064H122.362C122.362 25.7333 122.317 25.432 122.226 25.16C122.136 24.8827 122.002 24.6453 121.826 24.448C121.65 24.2453 121.434 24.0907 121.178 23.984C120.928 23.872 120.64 23.816 120.314 23.816ZM127.049 19.216V31H125.625V19.216H127.049ZM131.143 19.216V31H129.719V19.216H131.143ZM136.746 31V19.216H138.17V23.984C138.517 23.616 138.901 23.3227 139.322 23.104C139.743 22.88 140.229 22.768 140.778 22.768C141.221 22.768 141.61 22.8427 141.946 22.992C142.287 23.136 142.57 23.344 142.794 23.616C143.023 23.8827 143.197 24.2053 143.314 24.584C143.431 24.9627 143.49 25.3813 143.49 25.84V31H142.066V25.84C142.066 25.2267 141.925 24.752 141.642 24.416C141.365 24.0747 140.938 23.904 140.362 23.904C139.941 23.904 139.546 24.0053 139.178 24.208C138.815 24.4107 138.479 24.6853 138.17 25.032V31H136.746ZM148.845 22.768C149.33 22.768 149.778 22.8507 150.189 23.016C150.599 23.176 150.954 23.4107 151.253 23.72C151.551 24.024 151.783 24.4027 151.949 24.856C152.119 25.304 152.205 25.816 152.205 26.392C152.205 26.616 152.181 26.7653 152.133 26.84C152.085 26.9147 151.994 26.952 151.861 26.952H146.469C146.479 27.464 146.549 27.9093 146.677 28.288C146.805 28.6667 146.981 28.984 147.205 29.24C147.429 29.4907 147.695 29.68 148.005 29.808C148.314 29.9307 148.661 29.992 149.045 29.992C149.402 29.992 149.709 29.952 149.965 29.872C150.226 29.7867 150.45 29.696 150.637 29.6C150.823 29.504 150.978 29.416 151.101 29.336C151.229 29.2507 151.338 29.208 151.429 29.208C151.546 29.208 151.637 29.2533 151.701 29.344L152.101 29.864C151.925 30.0773 151.714 30.264 151.469 30.424C151.223 30.5787 150.959 30.7067 150.677 30.808C150.399 30.9093 150.111 30.984 149.813 31.032C149.514 31.0853 149.218 31.112 148.925 31.112C148.365 31.112 147.847 31.0187 147.373 30.832C146.903 30.64 146.495 30.3627 146.149 30C145.807 29.632 145.541 29.1787 145.349 28.64C145.157 28.1013 145.061 27.4827 145.061 26.784C145.061 26.2187 145.146 25.6907 145.317 25.2C145.493 24.7093 145.743 24.2853 146.069 23.928C146.394 23.5653 146.791 23.2827 147.261 23.08C147.73 22.872 148.258 22.768 148.845 22.768ZM148.877 23.816C148.189 23.816 147.647 24.016 147.253 24.416C146.858 24.8107 146.613 25.36 146.517 26.064H150.925C150.925 25.7333 150.879 25.432 150.789 25.16C150.698 24.8827 150.565 24.6453 150.389 24.448C150.213 24.2453 149.997 24.0907 149.741 23.984C149.49 23.872 149.202 23.816 148.877 23.816ZM155.611 22.896V31H154.187V22.896H155.611ZM155.931 20.352C155.931 20.4907 155.902 20.6213 155.843 20.744C155.79 20.8613 155.715 20.968 155.619 21.064C155.529 21.1547 155.422 21.2267 155.299 21.28C155.177 21.3333 155.046 21.36 154.907 21.36C154.769 21.36 154.638 21.3333 154.515 21.28C154.398 21.2267 154.291 21.1547 154.195 21.064C154.105 20.968 154.033 20.8613 153.979 20.744C153.926 20.6213 153.899 20.4907 153.899 20.352C153.899 20.2133 153.926 20.0827 153.979 19.96C154.033 19.832 154.105 19.7227 154.195 19.632C154.291 19.536 154.398 19.4613 154.515 19.408C154.638 19.3547 154.769 19.328 154.907 19.328C155.046 19.328 155.177 19.3547 155.299 19.408C155.422 19.4613 155.529 19.536 155.619 19.632C155.715 19.7227 155.79 19.832 155.843 19.96C155.902 20.0827 155.931 20.2133 155.931 20.352ZM160.849 22.76C161.201 22.76 161.529 22.8 161.833 22.88C162.142 22.9547 162.422 23.0667 162.673 23.216H164.873V23.744C164.873 23.92 164.761 24.032 164.537 24.08L163.617 24.208C163.798 24.5547 163.889 24.9413 163.889 25.368C163.889 25.7627 163.812 26.1227 163.657 26.448C163.508 26.768 163.297 27.0427 163.025 27.272C162.758 27.5013 162.438 27.6773 162.065 27.8C161.697 27.9227 161.292 27.984 160.849 27.984C160.47 27.984 160.113 27.9387 159.777 27.848C159.606 27.9547 159.476 28.0693 159.385 28.192C159.3 28.3147 159.257 28.4347 159.257 28.552C159.257 28.744 159.334 28.8907 159.489 28.992C159.644 29.088 159.849 29.1573 160.105 29.2C160.361 29.2427 160.652 29.2693 160.977 29.28C161.302 29.2907 161.633 29.3093 161.969 29.336C162.31 29.3573 162.644 29.3973 162.969 29.456C163.294 29.5147 163.585 29.6107 163.841 29.744C164.097 29.8773 164.302 30.0613 164.457 30.296C164.612 30.5307 164.689 30.8347 164.689 31.208C164.689 31.5547 164.601 31.8907 164.425 32.216C164.254 32.5413 164.006 32.8293 163.681 33.08C163.356 33.336 162.958 33.5387 162.489 33.688C162.02 33.8427 161.489 33.92 160.897 33.92C160.305 33.92 159.785 33.8613 159.337 33.744C158.894 33.6267 158.526 33.4693 158.233 33.272C157.94 33.0747 157.718 32.8453 157.569 32.584C157.425 32.328 157.353 32.0587 157.353 31.776C157.353 31.376 157.478 31.0373 157.729 30.76C157.985 30.4773 158.334 30.2533 158.777 30.088C158.548 29.9813 158.364 29.84 158.225 29.664C158.092 29.4827 158.025 29.2427 158.025 28.944C158.025 28.8267 158.046 28.7067 158.089 28.584C158.132 28.456 158.196 28.3307 158.281 28.208C158.372 28.0853 158.481 27.968 158.609 27.856C158.737 27.744 158.886 27.6453 159.057 27.56C158.657 27.336 158.342 27.04 158.113 26.672C157.889 26.2987 157.777 25.864 157.777 25.368C157.777 24.9733 157.852 24.616 158.001 24.296C158.156 23.9707 158.369 23.696 158.641 23.472C158.913 23.2427 159.236 23.0667 159.609 22.944C159.988 22.8213 160.401 22.76 160.849 22.76ZM163.377 31.44C163.377 31.2373 163.321 31.0747 163.209 30.952C163.097 30.8293 162.945 30.736 162.753 30.672C162.561 30.6027 162.34 30.552 162.089 30.52C161.838 30.488 161.574 30.4667 161.297 30.456C161.02 30.44 160.737 30.424 160.449 30.408C160.161 30.392 159.886 30.3627 159.625 30.32C159.321 30.464 159.073 30.64 158.881 30.848C158.694 31.056 158.601 31.304 158.601 31.592C158.601 31.7733 158.646 31.9413 158.737 32.096C158.833 32.256 158.977 32.392 159.169 32.504C159.361 32.6213 159.601 32.712 159.889 32.776C160.182 32.8453 160.526 32.88 160.921 32.88C161.305 32.88 161.649 32.8453 161.953 32.776C162.257 32.7067 162.513 32.608 162.721 32.48C162.934 32.352 163.097 32.2 163.209 32.024C163.321 31.848 163.377 31.6533 163.377 31.44ZM160.849 27.04C161.137 27.04 161.39 27 161.609 26.92C161.833 26.84 162.02 26.728 162.169 26.584C162.318 26.44 162.43 26.2693 162.505 26.072C162.58 25.8693 162.617 25.648 162.617 25.408C162.617 24.912 162.465 24.5173 162.161 24.224C161.862 23.9307 161.425 23.784 160.849 23.784C160.278 23.784 159.841 23.9307 159.537 24.224C159.238 24.5173 159.089 24.912 159.089 25.408C159.089 25.648 159.126 25.8693 159.201 26.072C159.281 26.2693 159.396 26.44 159.545 26.584C159.694 26.728 159.878 26.84 160.097 26.92C160.316 27 160.566 27.04 160.849 27.04ZM166.293 31V19.216H167.717V23.984C168.064 23.616 168.448 23.3227 168.869 23.104C169.29 22.88 169.776 22.768 170.325 22.768C170.768 22.768 171.157 22.8427 171.493 22.992C171.834 23.136 172.117 23.344 172.341 23.616C172.57 23.8827 172.744 24.2053 172.861 24.584C172.978 24.9627 173.037 25.3813 173.037 25.84V31H171.613V25.84C171.613 25.2267 171.472 24.752 171.189 24.416C170.912 24.0747 170.485 23.904 169.909 23.904C169.488 23.904 169.093 24.0053 168.725 24.208C168.362 24.4107 168.026 24.6853 167.717 25.032V31H166.293ZM177.64 31.128C177 31.128 176.506 30.9493 176.16 30.592C175.818 30.2347 175.648 29.72 175.648 29.048V24.088H174.672C174.586 24.088 174.514 24.064 174.456 24.016C174.397 23.9627 174.368 23.8827 174.368 23.776V23.208L175.696 23.04L176.024 20.536C176.034 20.456 176.069 20.392 176.128 20.344C176.186 20.2907 176.261 20.264 176.352 20.264H177.072V23.056H179.392V24.088H177.072V28.952C177.072 29.2933 177.154 29.5467 177.32 29.712C177.485 29.8773 177.698 29.96 177.96 29.96C178.109 29.96 178.237 29.9413 178.344 29.904C178.456 29.8613 178.552 29.816 178.632 29.768C178.712 29.72 178.778 29.6773 178.832 29.64C178.89 29.5973 178.941 29.576 178.984 29.576C179.058 29.576 179.125 29.6213 179.184 29.712L179.6 30.392C179.354 30.6213 179.058 30.8027 178.712 30.936C178.365 31.064 178.008 31.128 177.64 31.128Z" fill="black"/>
<path d="M310.944 29.696H315.904V31H309.392V19.536H310.944V29.696ZM323.339 31H322.707C322.568 31 322.456 30.9787 322.371 30.936C322.285 30.8933 322.229 30.8027 322.203 30.664L322.043 29.912C321.829 30.104 321.621 30.2773 321.419 30.432C321.216 30.5813 321.003 30.7093 320.779 30.816C320.555 30.9173 320.315 30.9947 320.059 31.048C319.808 31.1013 319.528 31.128 319.219 31.128C318.904 31.128 318.608 31.0853 318.331 31C318.059 30.9093 317.821 30.776 317.619 30.6C317.416 30.424 317.253 30.2027 317.131 29.936C317.013 29.664 316.955 29.344 316.955 28.976C316.955 28.656 317.043 28.3493 317.219 28.056C317.395 27.7573 317.677 27.4933 318.067 27.264C318.461 27.0347 318.976 26.848 319.611 26.704C320.245 26.5547 321.021 26.4693 321.939 26.448V25.816C321.939 25.1867 321.803 24.712 321.531 24.392C321.264 24.0667 320.867 23.904 320.339 23.904C319.992 23.904 319.699 23.9493 319.459 24.04C319.224 24.1253 319.019 24.224 318.843 24.336C318.672 24.4427 318.523 24.5413 318.395 24.632C318.272 24.7173 318.149 24.76 318.027 24.76C317.931 24.76 317.845 24.736 317.771 24.688C317.701 24.6347 317.645 24.5707 317.603 24.496L317.347 24.04C317.795 23.608 318.277 23.2853 318.795 23.072C319.312 22.8587 319.885 22.752 320.515 22.752C320.968 22.752 321.371 22.8267 321.723 22.976C322.075 23.1253 322.371 23.3333 322.611 23.6C322.851 23.8667 323.032 24.1893 323.155 24.568C323.277 24.9467 323.339 25.3627 323.339 25.816V31ZM319.643 30.128C319.893 30.128 320.123 30.104 320.331 30.056C320.539 30.0027 320.733 29.9307 320.915 29.84C321.101 29.744 321.277 29.6293 321.443 29.496C321.613 29.3627 321.779 29.2107 321.939 29.04V27.352C321.283 27.3733 320.725 27.4267 320.267 27.512C319.808 27.592 319.435 27.6987 319.147 27.832C318.859 27.9653 318.648 28.1227 318.515 28.304C318.387 28.4853 318.323 28.688 318.323 28.912C318.323 29.1253 318.357 29.3093 318.427 29.464C318.496 29.6187 318.589 29.7467 318.707 29.848C318.824 29.944 318.963 30.016 319.123 30.064C319.283 30.1067 319.456 30.128 319.643 30.128ZM325.496 31V22.896H326.312C326.467 22.896 326.573 22.9253 326.632 22.984C326.691 23.0427 326.731 23.144 326.752 23.288L326.848 24.552C327.125 23.9867 327.467 23.5467 327.872 23.232C328.283 22.912 328.763 22.752 329.312 22.752C329.536 22.752 329.739 22.7787 329.92 22.832C330.101 22.88 330.269 22.9493 330.424 23.04L330.24 24.104C330.203 24.2373 330.12 24.304 329.992 24.304C329.917 24.304 329.803 24.28 329.648 24.232C329.493 24.1787 329.277 24.152 329 24.152C328.504 24.152 328.088 24.296 327.752 24.584C327.421 24.872 327.144 25.2907 326.92 25.84V31H325.496ZM334.677 22.76C335.029 22.76 335.357 22.8 335.661 22.88C335.971 22.9547 336.251 23.0667 336.501 23.216H338.701V23.744C338.701 23.92 338.589 24.032 338.365 24.08L337.445 24.208C337.627 24.5547 337.717 24.9413 337.717 25.368C337.717 25.7627 337.64 26.1227 337.485 26.448C337.336 26.768 337.125 27.0427 336.853 27.272C336.587 27.5013 336.267 27.6773 335.893 27.8C335.525 27.9227 335.12 27.984 334.677 27.984C334.299 27.984 333.941 27.9387 333.605 27.848C333.435 27.9547 333.304 28.0693 333.213 28.192C333.128 28.3147 333.085 28.4347 333.085 28.552C333.085 28.744 333.163 28.8907 333.317 28.992C333.472 29.088 333.677 29.1573 333.933 29.2C334.189 29.2427 334.48 29.2693 334.805 29.28C335.131 29.2907 335.461 29.3093 335.797 29.336C336.139 29.3573 336.472 29.3973 336.797 29.456C337.123 29.5147 337.413 29.6107 337.669 29.744C337.925 29.8773 338.131 30.0613 338.285 30.296C338.44 30.5307 338.517 30.8347 338.517 31.208C338.517 31.5547 338.429 31.8907 338.253 32.216C338.083 32.5413 337.835 32.8293 337.509 33.08C337.184 33.336 336.787 33.5387 336.317 33.688C335.848 33.8427 335.317 33.92 334.725 33.92C334.133 33.92 333.613 33.8613 333.165 33.744C332.723 33.6267 332.355 33.4693 332.061 33.272C331.768 33.0747 331.547 32.8453 331.397 32.584C331.253 32.328 331.181 32.0587 331.181 31.776C331.181 31.376 331.307 31.0373 331.557 30.76C331.813 30.4773 332.163 30.2533 332.605 30.088C332.376 29.9813 332.192 29.84 332.053 29.664C331.92 29.4827 331.853 29.2427 331.853 28.944C331.853 28.8267 331.875 28.7067 331.917 28.584C331.96 28.456 332.024 28.3307 332.109 28.208C332.2 28.0853 332.309 27.968 332.437 27.856C332.565 27.744 332.715 27.6453 332.885 27.56C332.485 27.336 332.171 27.04 331.941 26.672C331.717 26.2987 331.605 25.864 331.605 25.368C331.605 24.9733 331.68 24.616 331.829 24.296C331.984 23.9707 332.197 23.696 332.469 23.472C332.741 23.2427 333.064 23.0667 333.437 22.944C333.816 22.8213 334.229 22.76 334.677 22.76ZM337.205 31.44C337.205 31.2373 337.149 31.0747 337.037 30.952C336.925 30.8293 336.773 30.736 336.581 30.672C336.389 30.6027 336.168 30.552 335.917 30.52C335.667 30.488 335.403 30.4667 335.125 30.456C334.848 30.44 334.565 30.424 334.277 30.408C333.989 30.392 333.715 30.3627 333.453 30.32C333.149 30.464 332.901 30.64 332.709 30.848C332.523 31.056 332.429 31.304 332.429 31.592C332.429 31.7733 332.475 31.9413 332.565 32.096C332.661 32.256 332.805 32.392 332.997 32.504C333.189 32.6213 333.429 32.712 333.717 32.776C334.011 32.8453 334.355 32.88 334.749 32.88C335.133 32.88 335.477 32.8453 335.781 32.776C336.085 32.7067 336.341 32.608 336.549 32.48C336.763 32.352 336.925 32.2 337.037 32.024C337.149 31.848 337.205 31.6533 337.205 31.44ZM334.677 27.04C334.965 27.04 335.219 27 335.437 26.92C335.661 26.84 335.848 26.728 335.997 26.584C336.147 26.44 336.259 26.2693 336.333 26.072C336.408 25.8693 336.445 25.648 336.445 25.408C336.445 24.912 336.293 24.5173 335.989 24.224C335.691 23.9307 335.253 23.784 334.677 23.784C334.107 23.784 333.669 23.9307 333.365 24.224C333.067 24.5173 332.917 24.912 332.917 25.408C332.917 25.648 332.955 25.8693 333.029 26.072C333.109 26.2693 333.224 26.44 333.373 26.584C333.523 26.728 333.707 26.84 333.925 26.92C334.144 27 334.395 27.04 334.677 27.04ZM343.329 22.768C343.814 22.768 344.262 22.8507 344.673 23.016C345.084 23.176 345.438 23.4107 345.737 23.72C346.036 24.024 346.268 24.4027 346.433 24.856C346.604 25.304 346.689 25.816 346.689 26.392C346.689 26.616 346.665 26.7653 346.617 26.84C346.569 26.9147 346.478 26.952 346.345 26.952H340.953C340.964 27.464 341.033 27.9093 341.161 28.288C341.289 28.6667 341.465 28.984 341.689 29.24C341.913 29.4907 342.18 29.68 342.489 29.808C342.798 29.9307 343.145 29.992 343.529 29.992C343.886 29.992 344.193 29.952 344.449 29.872C344.71 29.7867 344.934 29.696 345.121 29.6C345.308 29.504 345.462 29.416 345.585 29.336C345.713 29.2507 345.822 29.208 345.913 29.208C346.03 29.208 346.121 29.2533 346.185 29.344L346.585 29.864C346.409 30.0773 346.198 30.264 345.953 30.424C345.708 30.5787 345.444 30.7067 345.161 30.808C344.884 30.9093 344.596 30.984 344.297 31.032C343.998 31.0853 343.702 31.112 343.409 31.112C342.849 31.112 342.332 31.0187 341.857 30.832C341.388 30.64 340.98 30.3627 340.633 30C340.292 29.632 340.025 29.1787 339.833 28.64C339.641 28.1013 339.545 27.4827 339.545 26.784C339.545 26.2187 339.63 25.6907 339.801 25.2C339.977 24.7093 340.228 24.2853 340.553 23.928C340.878 23.5653 341.276 23.2827 341.745 23.08C342.214 22.872 342.742 22.768 343.329 22.768ZM343.361 23.816C342.673 23.816 342.132 24.016 341.737 24.416C341.342 24.8107 341.097 25.36 341.001 26.064H345.409C345.409 25.7333 345.364 25.432 345.273 25.16C345.182 24.8827 345.049 24.6453 344.873 24.448C344.697 24.2453 344.481 24.0907 344.225 23.984C343.974 23.872 343.686 23.816 343.361 23.816ZM357.134 24.336C357.091 24.3947 357.048 24.44 357.006 24.472C356.963 24.504 356.902 24.52 356.822 24.52C356.742 24.52 356.654 24.488 356.558 24.424C356.467 24.3547 356.35 24.28 356.206 24.2C356.062 24.12 355.886 24.048 355.678 23.984C355.475 23.9147 355.224 23.88 354.926 23.88C354.531 23.88 354.182 23.952 353.878 24.096C353.574 24.2347 353.318 24.4373 353.11 24.704C352.907 24.9707 352.752 25.2933 352.646 25.672C352.544 26.0507 352.493 26.4747 352.493 26.944C352.493 27.4347 352.55 27.872 352.662 28.256C352.774 28.6347 352.931 28.9547 353.134 29.216C353.336 29.472 353.582 29.6693 353.87 29.808C354.163 29.9413 354.491 30.008 354.854 30.008C355.2 30.008 355.486 29.968 355.71 29.888C355.934 29.8027 356.12 29.7093 356.27 29.608C356.419 29.5067 356.542 29.416 356.638 29.336C356.734 29.2507 356.83 29.208 356.926 29.208C357.048 29.208 357.139 29.2533 357.198 29.344L357.598 29.864C357.246 30.296 356.806 30.6133 356.278 30.816C355.75 31.0133 355.192 31.112 354.606 31.112C354.099 31.112 353.627 31.0187 353.19 30.832C352.758 30.6453 352.382 30.376 352.062 30.024C351.742 29.6667 351.488 29.2293 351.302 28.712C351.12 28.1947 351.03 27.6053 351.03 26.944C351.03 26.3413 351.112 25.784 351.278 25.272C351.448 24.76 351.694 24.32 352.014 23.952C352.339 23.5787 352.739 23.288 353.214 23.08C353.688 22.872 354.232 22.768 354.845 22.768C355.411 22.768 355.912 22.8613 356.35 23.048C356.787 23.2293 357.174 23.488 357.51 23.824L357.134 24.336ZM362.282 22.768C362.768 22.768 363.216 22.8507 363.626 23.016C364.037 23.176 364.392 23.4107 364.69 23.72C364.989 24.024 365.221 24.4027 365.386 24.856C365.557 25.304 365.642 25.816 365.642 26.392C365.642 26.616 365.618 26.7653 365.57 26.84C365.522 26.9147 365.432 26.952 365.298 26.952H359.906C359.917 27.464 359.986 27.9093 360.114 28.288C360.242 28.6667 360.418 28.984 360.642 29.24C360.866 29.4907 361.133 29.68 361.442 29.808C361.752 29.9307 362.098 29.992 362.482 29.992C362.84 29.992 363.146 29.952 363.402 29.872C363.664 29.7867 363.888 29.696 364.074 29.6C364.261 29.504 364.416 29.416 364.538 29.336C364.666 29.2507 364.776 29.208 364.866 29.208C364.984 29.208 365.074 29.2533 365.138 29.344L365.538 29.864C365.362 30.0773 365.152 30.264 364.906 30.424C364.661 30.5787 364.397 30.7067 364.114 30.808C363.837 30.9093 363.549 30.984 363.25 31.032C362.952 31.0853 362.656 31.112 362.362 31.112C361.802 31.112 361.285 31.0187 360.81 30.832C360.341 30.64 359.933 30.3627 359.586 30C359.245 29.632 358.978 29.1787 358.786 28.64C358.594 28.1013 358.498 27.4827 358.498 26.784C358.498 26.2187 358.584 25.6907 358.754 25.2C358.93 24.7093 359.181 24.2853 359.506 23.928C359.832 23.5653 360.229 23.2827 360.698 23.08C361.168 22.872 361.696 22.768 362.282 22.768ZM362.314 23.816C361.626 23.816 361.085 24.016 360.69 24.416C360.296 24.8107 360.05 25.36 359.954 26.064H364.362C364.362 25.7333 364.317 25.432 364.226 25.16C364.136 24.8827 364.002 24.6453 363.826 24.448C363.65 24.2453 363.434 24.0907 363.178 23.984C362.928 23.872 362.64 23.816 362.314 23.816ZM369.049 19.216V31H367.625V19.216H369.049ZM373.143 19.216V31H371.719V19.216H373.143ZM378.746 31V19.216H380.17V23.984C380.517 23.616 380.901 23.3227 381.322 23.104C381.743 22.88 382.229 22.768 382.778 22.768C383.221 22.768 383.61 22.8427 383.946 22.992C384.287 23.136 384.57 23.344 384.794 23.616C385.023 23.8827 385.197 24.2053 385.314 24.584C385.431 24.9627 385.49 25.3813 385.49 25.84V31H384.066V25.84C384.066 25.2267 383.925 24.752 383.642 24.416C383.365 24.0747 382.938 23.904 382.362 23.904C381.941 23.904 381.546 24.0053 381.178 24.208C380.815 24.4107 380.479 24.6853 380.17 25.032V31H378.746ZM390.845 22.768C391.33 22.768 391.778 22.8507 392.189 23.016C392.599 23.176 392.954 23.4107 393.253 23.72C393.551 24.024 393.783 24.4027 393.949 24.856C394.119 25.304 394.205 25.816 394.205 26.392C394.205 26.616 394.181 26.7653 394.133 26.84C394.085 26.9147 393.994 26.952 393.861 26.952H388.469C388.479 27.464 388.549 27.9093 388.677 28.288C388.805 28.6667 388.981 28.984 389.205 29.24C389.429 29.4907 389.695 29.68 390.005 29.808C390.314 29.9307 390.661 29.992 391.045 29.992C391.402 29.992 391.709 29.952 391.965 29.872C392.226 29.7867 392.45 29.696 392.637 29.6C392.823 29.504 392.978 29.416 393.101 29.336C393.229 29.2507 393.338 29.208 393.429 29.208C393.546 29.208 393.637 29.2533 393.701 29.344L394.101 29.864C393.925 30.0773 393.714 30.264 393.469 30.424C393.223 30.5787 392.959 30.7067 392.677 30.808C392.399 30.9093 392.111 30.984 391.813 31.032C391.514 31.0853 391.218 31.112 390.925 31.112C390.365 31.112 389.847 31.0187 389.373 30.832C388.903 30.64 388.495 30.3627 388.149 30C387.807 29.632 387.541 29.1787 387.349 28.64C387.157 28.1013 387.061 27.4827 387.061 26.784C387.061 26.2187 387.146 25.6907 387.317 25.2C387.493 24.7093 387.743 24.2853 388.069 23.928C388.394 23.5653 388.791 23.2827 389.261 23.08C389.73 22.872 390.258 22.768 390.845 22.768ZM390.877 23.816C390.189 23.816 389.647 24.016 389.253 24.416C388.858 24.8107 388.613 25.36 388.517 26.064H392.925C392.925 25.7333 392.879 25.432 392.789 25.16C392.698 24.8827 392.565 24.6453 392.389 24.448C392.213 24.2453 391.997 24.0907 391.741 23.984C391.49 23.872 391.202 23.816 390.877 23.816ZM397.611 22.896V31H396.187V22.896H397.611ZM397.931 20.352C397.931 20.4907 397.902 20.6213 397.843 20.744C397.79 20.8613 397.715 20.968 397.619 21.064C397.529 21.1547 397.422 21.2267 397.299 21.28C397.177 21.3333 397.046 21.36 396.907 21.36C396.769 21.36 396.638 21.3333 396.515 21.28C396.398 21.2267 396.291 21.1547 396.195 21.064C396.105 20.968 396.033 20.8613 395.979 20.744C395.926 20.6213 395.899 20.4907 395.899 20.352C395.899 20.2133 395.926 20.0827 395.979 19.96C396.033 19.832 396.105 19.7227 396.195 19.632C396.291 19.536 396.398 19.4613 396.515 19.408C396.638 19.3547 396.769 19.328 396.907 19.328C397.046 19.328 397.177 19.3547 397.299 19.408C397.422 19.4613 397.529 19.536 397.619 19.632C397.715 19.7227 397.79 19.832 397.843 19.96C397.902 20.0827 397.931 20.2133 397.931 20.352ZM402.849 22.76C403.201 22.76 403.529 22.8 403.833 22.88C404.142 22.9547 404.422 23.0667 404.673 23.216H406.873V23.744C406.873 23.92 406.761 24.032 406.537 24.08L405.617 24.208C405.798 24.5547 405.889 24.9413 405.889 25.368C405.889 25.7627 405.812 26.1227 405.657 26.448C405.508 26.768 405.297 27.0427 405.025 27.272C404.758 27.5013 404.438 27.6773 404.065 27.8C403.697 27.9227 403.292 27.984 402.849 27.984C402.47 27.984 402.113 27.9387 401.777 27.848C401.606 27.9547 401.476 28.0693 401.385 28.192C401.3 28.3147 401.257 28.4347 401.257 28.552C401.257 28.744 401.334 28.8907 401.489 28.992C401.644 29.088 401.849 29.1573 402.105 29.2C402.361 29.2427 402.652 29.2693 402.977 29.28C403.302 29.2907 403.633 29.3093 403.969 29.336C404.31 29.3573 404.644 29.3973 404.969 29.456C405.294 29.5147 405.585 29.6107 405.841 29.744C406.097 29.8773 406.302 30.0613 406.457 30.296C406.612 30.5307 406.689 30.8347 406.689 31.208C406.689 31.5547 406.601 31.8907 406.425 32.216C406.254 32.5413 406.006 32.8293 405.681 33.08C405.356 33.336 404.958 33.5387 404.489 33.688C404.02 33.8427 403.489 33.92 402.897 33.92C402.305 33.92 401.785 33.8613 401.337 33.744C400.894 33.6267 400.526 33.4693 400.233 33.272C399.94 33.0747 399.718 32.8453 399.569 32.584C399.425 32.328 399.353 32.0587 399.353 31.776C399.353 31.376 399.478 31.0373 399.729 30.76C399.985 30.4773 400.334 30.2533 400.777 30.088C400.548 29.9813 400.364 29.84 400.225 29.664C400.092 29.4827 400.025 29.2427 400.025 28.944C400.025 28.8267 400.046 28.7067 400.089 28.584C400.132 28.456 400.196 28.3307 400.281 28.208C400.372 28.0853 400.481 27.968 400.609 27.856C400.737 27.744 400.886 27.6453 401.057 27.56C400.657 27.336 400.342 27.04 400.113 26.672C399.889 26.2987 399.777 25.864 399.777 25.368C399.777 24.9733 399.852 24.616 400.001 24.296C400.156 23.9707 400.369 23.696 400.641 23.472C400.913 23.2427 401.236 23.0667 401.609 22.944C401.988 22.8213 402.401 22.76 402.849 22.76ZM405.377 31.44C405.377 31.2373 405.321 31.0747 405.209 30.952C405.097 30.8293 404.945 30.736 404.753 30.672C404.561 30.6027 404.34 30.552 404.089 30.52C403.838 30.488 403.574 30.4667 403.297 30.456C403.02 30.44 402.737 30.424 402.449 30.408C402.161 30.392 401.886 30.3627 401.625 30.32C401.321 30.464 401.073 30.64 400.881 30.848C400.694 31.056 400.601 31.304 400.601 31.592C400.601 31.7733 400.646 31.9413 400.737 32.096C400.833 32.256 400.977 32.392 401.169 32.504C401.361 32.6213 401.601 32.712 401.889 32.776C402.182 32.8453 402.526 32.88 402.921 32.88C403.305 32.88 403.649 32.8453 403.953 32.776C404.257 32.7067 404.513 32.608 404.721 32.48C404.934 32.352 405.097 32.2 405.209 32.024C405.321 31.848 405.377 31.6533 405.377 31.44ZM402.849 27.04C403.137 27.04 403.39 27 403.609 26.92C403.833 26.84 404.02 26.728 404.169 26.584C404.318 26.44 404.43 26.2693 404.505 26.072C404.58 25.8693 404.617 25.648 404.617 25.408C404.617 24.912 404.465 24.5173 404.161 24.224C403.862 23.9307 403.425 23.784 402.849 23.784C402.278 23.784 401.841 23.9307 401.537 24.224C401.238 24.5173 401.089 24.912 401.089 25.408C401.089 25.648 401.126 25.8693 401.201 26.072C401.281 26.2693 401.396 26.44 401.545 26.584C401.694 26.728 401.878 26.84 402.097 26.92C402.316 27 402.566 27.04 402.849 27.04ZM408.293 31V19.216H409.717V23.984C410.064 23.616 410.448 23.3227 410.869 23.104C411.29 22.88 411.776 22.768 412.325 22.768C412.768 22.768 413.157 22.8427 413.493 22.992C413.834 23.136 414.117 23.344 414.341 23.616C414.57 23.8827 414.744 24.2053 414.861 24.584C414.978 24.9627 415.037 25.3813 415.037 25.84V31H413.613V25.84C413.613 25.2267 413.472 24.752 413.189 24.416C412.912 24.0747 412.485 23.904 411.909 23.904C411.488 23.904 411.093 24.0053 410.725 24.208C410.362 24.4107 410.026 24.6853 409.717 25.032V31H408.293ZM419.64 31.128C419 31.128 418.506 30.9493 418.16 30.592C417.818 30.2347 417.648 29.72 417.648 29.048V24.088H416.672C416.586 24.088 416.514 24.064 416.456 24.016C416.397 23.9627 416.368 23.8827 416.368 23.776V23.208L417.696 23.04L418.024 20.536C418.034 20.456 418.069 20.392 418.128 20.344C418.186 20.2907 418.261 20.264 418.352 20.264H419.072V23.056H421.392V24.088H419.072V28.952C419.072 29.2933 419.154 29.5467 419.32 29.712C419.485 29.8773 419.698 29.96 419.96 29.96C420.109 29.96 420.237 29.9413 420.344 29.904C420.456 29.8613 420.552 29.816 420.632 29.768C420.712 29.72 420.778 29.6773 420.832 29.64C420.89 29.5973 420.941 29.576 420.984 29.576C421.058 29.576 421.125 29.6213 421.184 29.712L421.6 30.392C421.354 30.6213 421.058 30.8027 420.712 30.936C420.365 31.064 420.008 31.128 419.64 31.128Z" fill="black"/>
<path d="M497.944 29.696H502.904V31H496.392V19.536H497.944V29.696ZM510.339 31H509.707C509.568 31 509.456 30.9787 509.371 30.936C509.285 30.8933 509.229 30.8027 509.203 30.664L509.043 29.912C508.829 30.104 508.621 30.2773 508.419 30.432C508.216 30.5813 508.003 30.7093 507.779 30.816C507.555 30.9173 507.315 30.9947 507.059 31.048C506.808 31.1013 506.528 31.128 506.219 31.128C505.904 31.128 505.608 31.0853 505.331 31C505.059 30.9093 504.821 30.776 504.619 30.6C504.416 30.424 504.253 30.2027 504.131 29.936C504.013 29.664 503.955 29.344 503.955 28.976C503.955 28.656 504.043 28.3493 504.219 28.056C504.395 27.7573 504.677 27.4933 505.067 27.264C505.461 27.0347 505.976 26.848 506.611 26.704C507.245 26.5547 508.021 26.4693 508.939 26.448V25.816C508.939 25.1867 508.803 24.712 508.531 24.392C508.264 24.0667 507.867 23.904 507.339 23.904C506.992 23.904 506.699 23.9493 506.459 24.04C506.224 24.1253 506.019 24.224 505.843 24.336C505.672 24.4427 505.523 24.5413 505.395 24.632C505.272 24.7173 505.149 24.76 505.027 24.76C504.931 24.76 504.845 24.736 504.771 24.688C504.701 24.6347 504.645 24.5707 504.603 24.496L504.347 24.04C504.795 23.608 505.277 23.2853 505.795 23.072C506.312 22.8587 506.885 22.752 507.515 22.752C507.968 22.752 508.371 22.8267 508.723 22.976C509.075 23.1253 509.371 23.3333 509.611 23.6C509.851 23.8667 510.032 24.1893 510.155 24.568C510.277 24.9467 510.339 25.3627 510.339 25.816V31ZM506.643 30.128C506.893 30.128 507.123 30.104 507.331 30.056C507.539 30.0027 507.733 29.9307 507.915 29.84C508.101 29.744 508.277 29.6293 508.443 29.496C508.613 29.3627 508.779 29.2107 508.939 29.04V27.352C508.283 27.3733 507.725 27.4267 507.267 27.512C506.808 27.592 506.435 27.6987 506.147 27.832C505.859 27.9653 505.648 28.1227 505.515 28.304C505.387 28.4853 505.323 28.688 505.323 28.912C505.323 29.1253 505.357 29.3093 505.427 29.464C505.496 29.6187 505.589 29.7467 505.707 29.848C505.824 29.944 505.963 30.016 506.123 30.064C506.283 30.1067 506.456 30.128 506.643 30.128ZM512.496 31V22.896H513.312C513.467 22.896 513.573 22.9253 513.632 22.984C513.691 23.0427 513.731 23.144 513.752 23.288L513.848 24.552C514.125 23.9867 514.467 23.5467 514.872 23.232C515.283 22.912 515.763 22.752 516.312 22.752C516.536 22.752 516.739 22.7787 516.92 22.832C517.101 22.88 517.269 22.9493 517.424 23.04L517.24 24.104C517.203 24.2373 517.12 24.304 516.992 24.304C516.917 24.304 516.803 24.28 516.648 24.232C516.493 24.1787 516.277 24.152 516 24.152C515.504 24.152 515.088 24.296 514.752 24.584C514.421 24.872 514.144 25.2907 513.92 25.84V31H512.496ZM521.677 22.76C522.029 22.76 522.357 22.8 522.661 22.88C522.971 22.9547 523.251 23.0667 523.501 23.216H525.701V23.744C525.701 23.92 525.589 24.032 525.365 24.08L524.445 24.208C524.627 24.5547 524.717 24.9413 524.717 25.368C524.717 25.7627 524.64 26.1227 524.485 26.448C524.336 26.768 524.125 27.0427 523.853 27.272C523.587 27.5013 523.267 27.6773 522.893 27.8C522.525 27.9227 522.12 27.984 521.677 27.984C521.299 27.984 520.941 27.9387 520.605 27.848C520.435 27.9547 520.304 28.0693 520.213 28.192C520.128 28.3147 520.085 28.4347 520.085 28.552C520.085 28.744 520.163 28.8907 520.317 28.992C520.472 29.088 520.677 29.1573 520.933 29.2C521.189 29.2427 521.48 29.2693 521.805 29.28C522.131 29.2907 522.461 29.3093 522.797 29.336C523.139 29.3573 523.472 29.3973 523.797 29.456C524.123 29.5147 524.413 29.6107 524.669 29.744C524.925 29.8773 525.131 30.0613 525.285 30.296C525.44 30.5307 525.517 30.8347 525.517 31.208C525.517 31.5547 525.429 31.8907 525.253 32.216C525.083 32.5413 524.835 32.8293 524.509 33.08C524.184 33.336 523.787 33.5387 523.317 33.688C522.848 33.8427 522.317 33.92 521.725 33.92C521.133 33.92 520.613 33.8613 520.165 33.744C519.723 33.6267 519.355 33.4693 519.061 33.272C518.768 33.0747 518.547 32.8453 518.397 32.584C518.253 32.328 518.181 32.0587 518.181 31.776C518.181 31.376 518.307 31.0373 518.557 30.76C518.813 30.4773 519.163 30.2533 519.605 30.088C519.376 29.9813 519.192 29.84 519.053 29.664C518.92 29.4827 518.853 29.2427 518.853 28.944C518.853 28.8267 518.875 28.7067 518.917 28.584C518.96 28.456 519.024 28.3307 519.109 28.208C519.2 28.0853 519.309 27.968 519.437 27.856C519.565 27.744 519.715 27.6453 519.885 27.56C519.485 27.336 519.171 27.04 518.941 26.672C518.717 26.2987 518.605 25.864 518.605 25.368C518.605 24.9733 518.68 24.616 518.829 24.296C518.984 23.9707 519.197 23.696 519.469 23.472C519.741 23.2427 520.064 23.0667 520.437 22.944C520.816 22.8213 521.229 22.76 521.677 22.76ZM524.205 31.44C524.205 31.2373 524.149 31.0747 524.037 30.952C523.925 30.8293 523.773 30.736 523.581 30.672C523.389 30.6027 523.168 30.552 522.917 30.52C522.667 30.488 522.403 30.4667 522.125 30.456C521.848 30.44 521.565 30.424 521.277 30.408C520.989 30.392 520.715 30.3627 520.453 30.32C520.149 30.464 519.901 30.64 519.709 30.848C519.523 31.056 519.429 31.304 519.429 31.592C519.429 31.7733 519.475 31.9413 519.565 32.096C519.661 32.256 519.805 32.392 519.997 32.504C520.189 32.6213 520.429 32.712 520.717 32.776C521.011 32.8453 521.355 32.88 521.749 32.88C522.133 32.88 522.477 32.8453 522.781 32.776C523.085 32.7067 523.341 32.608 523.549 32.48C523.763 32.352 523.925 32.2 524.037 32.024C524.149 31.848 524.205 31.6533 524.205 31.44ZM521.677 27.04C521.965 27.04 522.219 27 522.437 26.92C522.661 26.84 522.848 26.728 522.997 26.584C523.147 26.44 523.259 26.2693 523.333 26.072C523.408 25.8693 523.445 25.648 523.445 25.408C523.445 24.912 523.293 24.5173 522.989 24.224C522.691 23.9307 522.253 23.784 521.677 23.784C521.107 23.784 520.669 23.9307 520.365 24.224C520.067 24.5173 519.917 24.912 519.917 25.408C519.917 25.648 519.955 25.8693 520.029 26.072C520.109 26.2693 520.224 26.44 520.373 26.584C520.523 26.728 520.707 26.84 520.925 26.92C521.144 27 521.395 27.04 521.677 27.04ZM530.329 22.768C530.814 22.768 531.262 22.8507 531.673 23.016C532.084 23.176 532.438 23.4107 532.737 23.72C533.036 24.024 533.268 24.4027 533.433 24.856C533.604 25.304 533.689 25.816 533.689 26.392C533.689 26.616 533.665 26.7653 533.617 26.84C533.569 26.9147 533.478 26.952 533.345 26.952H527.953C527.964 27.464 528.033 27.9093 528.161 28.288C528.289 28.6667 528.465 28.984 528.689 29.24C528.913 29.4907 529.18 29.68 529.489 29.808C529.798 29.9307 530.145 29.992 530.529 29.992C530.886 29.992 531.193 29.952 531.449 29.872C531.71 29.7867 531.934 29.696 532.121 29.6C532.308 29.504 532.462 29.416 532.585 29.336C532.713 29.2507 532.822 29.208 532.913 29.208C533.03 29.208 533.121 29.2533 533.185 29.344L533.585 29.864C533.409 30.0773 533.198 30.264 532.953 30.424C532.708 30.5787 532.444 30.7067 532.161 30.808C531.884 30.9093 531.596 30.984 531.297 31.032C530.998 31.0853 530.702 31.112 530.409 31.112C529.849 31.112 529.332 31.0187 528.857 30.832C528.388 30.64 527.98 30.3627 527.633 30C527.292 29.632 527.025 29.1787 526.833 28.64C526.641 28.1013 526.545 27.4827 526.545 26.784C526.545 26.2187 526.63 25.6907 526.801 25.2C526.977 24.7093 527.228 24.2853 527.553 23.928C527.878 23.5653 528.276 23.2827 528.745 23.08C529.214 22.872 529.742 22.768 530.329 22.768ZM530.361 23.816C529.673 23.816 529.132 24.016 528.737 24.416C528.342 24.8107 528.097 25.36 528.001 26.064H532.409C532.409 25.7333 532.364 25.432 532.273 25.16C532.182 24.8827 532.049 24.6453 531.873 24.448C531.697 24.2453 531.481 24.0907 531.225 23.984C530.974 23.872 530.686 23.816 530.361 23.816ZM544.134 24.336C544.091 24.3947 544.048 24.44 544.006 24.472C543.963 24.504 543.902 24.52 543.822 24.52C543.742 24.52 543.654 24.488 543.558 24.424C543.467 24.3547 543.35 24.28 543.206 24.2C543.062 24.12 542.886 24.048 542.678 23.984C542.475 23.9147 542.224 23.88 541.926 23.88C541.531 23.88 541.182 23.952 540.878 24.096C540.574 24.2347 540.318 24.4373 540.11 24.704C539.907 24.9707 539.752 25.2933 539.646 25.672C539.544 26.0507 539.493 26.4747 539.493 26.944C539.493 27.4347 539.55 27.872 539.662 28.256C539.774 28.6347 539.931 28.9547 540.134 29.216C540.336 29.472 540.582 29.6693 540.87 29.808C541.163 29.9413 541.491 30.008 541.854 30.008C542.2 30.008 542.486 29.968 542.71 29.888C542.934 29.8027 543.12 29.7093 543.27 29.608C543.419 29.5067 543.542 29.416 543.638 29.336C543.734 29.2507 543.83 29.208 543.926 29.208C544.048 29.208 544.139 29.2533 544.198 29.344L544.598 29.864C544.246 30.296 543.806 30.6133 543.278 30.816C542.75 31.0133 542.192 31.112 541.606 31.112C541.099 31.112 540.627 31.0187 540.19 30.832C539.758 30.6453 539.382 30.376 539.062 30.024C538.742 29.6667 538.488 29.2293 538.302 28.712C538.12 28.1947 538.03 27.6053 538.03 26.944C538.03 26.3413 538.112 25.784 538.278 25.272C538.448 24.76 538.694 24.32 539.014 23.952C539.339 23.5787 539.739 23.288 540.214 23.08C540.688 22.872 541.232 22.768 541.845 22.768C542.411 22.768 542.912 22.8613 543.35 23.048C543.787 23.2293 544.174 23.488 544.51 23.824L544.134 24.336ZM549.282 22.768C549.768 22.768 550.216 22.8507 550.626 23.016C551.037 23.176 551.392 23.4107 551.69 23.72C551.989 24.024 552.221 24.4027 552.386 24.856C552.557 25.304 552.642 25.816 552.642 26.392C552.642 26.616 552.618 26.7653 552.57 26.84C552.522 26.9147 552.432 26.952 552.298 26.952H546.906C546.917 27.464 546.986 27.9093 547.114 28.288C547.242 28.6667 547.418 28.984 547.642 29.24C547.866 29.4907 548.133 29.68 548.442 29.808C548.752 29.9307 549.098 29.992 549.482 29.992C549.84 29.992 550.146 29.952 550.402 29.872C550.664 29.7867 550.888 29.696 551.074 29.6C551.261 29.504 551.416 29.416 551.538 29.336C551.666 29.2507 551.776 29.208 551.866 29.208C551.984 29.208 552.074 29.2533 552.138 29.344L552.538 29.864C552.362 30.0773 552.152 30.264 551.906 30.424C551.661 30.5787 551.397 30.7067 551.114 30.808C550.837 30.9093 550.549 30.984 550.25 31.032C549.952 31.0853 549.656 31.112 549.362 31.112C548.802 31.112 548.285 31.0187 547.81 30.832C547.341 30.64 546.933 30.3627 546.586 30C546.245 29.632 545.978 29.1787 545.786 28.64C545.594 28.1013 545.498 27.4827 545.498 26.784C545.498 26.2187 545.584 25.6907 545.754 25.2C545.93 24.7093 546.181 24.2853 546.506 23.928C546.832 23.5653 547.229 23.2827 547.698 23.08C548.168 22.872 548.696 22.768 549.282 22.768ZM549.314 23.816C548.626 23.816 548.085 24.016 547.69 24.416C547.296 24.8107 547.05 25.36 546.954 26.064H551.362C551.362 25.7333 551.317 25.432 551.226 25.16C551.136 24.8827 551.002 24.6453 550.826 24.448C550.65 24.2453 550.434 24.0907 550.178 23.984C549.928 23.872 549.64 23.816 549.314 23.816ZM556.049 19.216V31H554.625V19.216H556.049ZM560.143 19.216V31H558.719V19.216H560.143ZM565.746 31V19.216H567.17V23.984C567.517 23.616 567.901 23.3227 568.322 23.104C568.743 22.88 569.229 22.768 569.778 22.768C570.221 22.768 570.61 22.8427 570.946 22.992C571.287 23.136 571.57 23.344 571.794 23.616C572.023 23.8827 572.197 24.2053 572.314 24.584C572.431 24.9627 572.49 25.3813 572.49 25.84V31H571.066V25.84C571.066 25.2267 570.925 24.752 570.642 24.416C570.365 24.0747 569.938 23.904 569.362 23.904C568.941 23.904 568.546 24.0053 568.178 24.208C567.815 24.4107 567.479 24.6853 567.17 25.032V31H565.746ZM577.845 22.768C578.33 22.768 578.778 22.8507 579.189 23.016C579.599 23.176 579.954 23.4107 580.253 23.72C580.551 24.024 580.783 24.4027 580.949 24.856C581.119 25.304 581.205 25.816 581.205 26.392C581.205 26.616 581.181 26.7653 581.133 26.84C581.085 26.9147 580.994 26.952 580.861 26.952H575.469C575.479 27.464 575.549 27.9093 575.677 28.288C575.805 28.6667 575.981 28.984 576.205 29.24C576.429 29.4907 576.695 29.68 577.005 29.808C577.314 29.9307 577.661 29.992 578.045 29.992C578.402 29.992 578.709 29.952 578.965 29.872C579.226 29.7867 579.45 29.696 579.637 29.6C579.823 29.504 579.978 29.416 580.101 29.336C580.229 29.2507 580.338 29.208 580.429 29.208C580.546 29.208 580.637 29.2533 580.701 29.344L581.101 29.864C580.925 30.0773 580.714 30.264 580.469 30.424C580.223 30.5787 579.959 30.7067 579.677 30.808C579.399 30.9093 579.111 30.984 578.813 31.032C578.514 31.0853 578.218 31.112 577.925 31.112C577.365 31.112 576.847 31.0187 576.373 30.832C575.903 30.64 575.495 30.3627 575.149 30C574.807 29.632 574.541 29.1787 574.349 28.64C574.157 28.1013 574.061 27.4827 574.061 26.784C574.061 26.2187 574.146 25.6907 574.317 25.2C574.493 24.7093 574.743 24.2853 575.069 23.928C575.394 23.5653 575.791 23.2827 576.261 23.08C576.73 22.872 577.258 22.768 577.845 22.768ZM577.877 23.816C577.189 23.816 576.647 24.016 576.253 24.416C575.858 24.8107 575.613 25.36 575.517 26.064H579.925C579.925 25.7333 579.879 25.432 579.789 25.16C579.698 24.8827 579.565 24.6453 579.389 24.448C579.213 24.2453 578.997 24.0907 578.741 23.984C578.49 23.872 578.202 23.816 577.877 23.816ZM584.611 22.896V31H583.187V22.896H584.611ZM584.931 20.352C584.931 20.4907 584.902 20.6213 584.843 20.744C584.79 20.8613 584.715 20.968 584.619 21.064C584.529 21.1547 584.422 21.2267 584.299 21.28C584.177 21.3333 584.046 21.36 583.907 21.36C583.769 21.36 583.638 21.3333 583.515 21.28C583.398 21.2267 583.291 21.1547 583.195 21.064C583.105 20.968 583.033 20.8613 582.979 20.744C582.926 20.6213 582.899 20.4907 582.899 20.352C582.899 20.2133 582.926 20.0827 582.979 19.96C583.033 19.832 583.105 19.7227 583.195 19.632C583.291 19.536 583.398 19.4613 583.515 19.408C583.638 19.3547 583.769 19.328 583.907 19.328C584.046 19.328 584.177 19.3547 584.299 19.408C584.422 19.4613 584.529 19.536 584.619 19.632C584.715 19.7227 584.79 19.832 584.843 19.96C584.902 20.0827 584.931 20.2133 584.931 20.352ZM589.849 22.76C590.201 22.76 590.529 22.8 590.833 22.88C591.142 22.9547 591.422 23.0667 591.673 23.216H593.873V23.744C593.873 23.92 593.761 24.032 593.537 24.08L592.617 24.208C592.798 24.5547 592.889 24.9413 592.889 25.368C592.889 25.7627 592.812 26.1227 592.657 26.448C592.508 26.768 592.297 27.0427 592.025 27.272C591.758 27.5013 591.438 27.6773 591.065 27.8C590.697 27.9227 590.292 27.984 589.849 27.984C589.47 27.984 589.113 27.9387 588.777 27.848C588.606 27.9547 588.476 28.0693 588.385 28.192C588.3 28.3147 588.257 28.4347 588.257 28.552C588.257 28.744 588.334 28.8907 588.489 28.992C588.644 29.088 588.849 29.1573 589.105 29.2C589.361 29.2427 589.652 29.2693 589.977 29.28C590.302 29.2907 590.633 29.3093 590.969 29.336C591.31 29.3573 591.644 29.3973 591.969 29.456C592.294 29.5147 592.585 29.6107 592.841 29.744C593.097 29.8773 593.302 30.0613 593.457 30.296C593.612 30.5307 593.689 30.8347 593.689 31.208C593.689 31.5547 593.601 31.8907 593.425 32.216C593.254 32.5413 593.006 32.8293 592.681 33.08C592.356 33.336 591.958 33.5387 591.489 33.688C591.02 33.8427 590.489 33.92 589.897 33.92C589.305 33.92 588.785 33.8613 588.337 33.744C587.894 33.6267 587.526 33.4693 587.233 33.272C586.94 33.0747 586.718 32.8453 586.569 32.584C586.425 32.328 586.353 32.0587 586.353 31.776C586.353 31.376 586.478 31.0373 586.729 30.76C586.985 30.4773 587.334 30.2533 587.777 30.088C587.548 29.9813 587.364 29.84 587.225 29.664C587.092 29.4827 587.025 29.2427 587.025 28.944C587.025 28.8267 587.046 28.7067 587.089 28.584C587.132 28.456 587.196 28.3307 587.281 28.208C587.372 28.0853 587.481 27.968 587.609 27.856C587.737 27.744 587.886 27.6453 588.057 27.56C587.657 27.336 587.342 27.04 587.113 26.672C586.889 26.2987 586.777 25.864 586.777 25.368C586.777 24.9733 586.852 24.616 587.001 24.296C587.156 23.9707 587.369 23.696 587.641 23.472C587.913 23.2427 588.236 23.0667 588.609 22.944C588.988 22.8213 589.401 22.76 589.849 22.76ZM592.377 31.44C592.377 31.2373 592.321 31.0747 592.209 30.952C592.097 30.8293 591.945 30.736 591.753 30.672C591.561 30.6027 591.34 30.552 591.089 30.52C590.838 30.488 590.574 30.4667 590.297 30.456C590.02 30.44 589.737 30.424 589.449 30.408C589.161 30.392 588.886 30.3627 588.625 30.32C588.321 30.464 588.073 30.64 587.881 30.848C587.694 31.056 587.601 31.304 587.601 31.592C587.601 31.7733 587.646 31.9413 587.737 32.096C587.833 32.256 587.977 32.392 588.169 32.504C588.361 32.6213 588.601 32.712 588.889 32.776C589.182 32.8453 589.526 32.88 589.921 32.88C590.305 32.88 590.649 32.8453 590.953 32.776C591.257 32.7067 591.513 32.608 591.721 32.48C591.934 32.352 592.097 32.2 592.209 32.024C592.321 31.848 592.377 31.6533 592.377 31.44ZM589.849 27.04C590.137 27.04 590.39 27 590.609 26.92C590.833 26.84 591.02 26.728 591.169 26.584C591.318 26.44 591.43 26.2693 591.505 26.072C591.58 25.8693 591.617 25.648 591.617 25.408C591.617 24.912 591.465 24.5173 591.161 24.224C590.862 23.9307 590.425 23.784 589.849 23.784C589.278 23.784 588.841 23.9307 588.537 24.224C588.238 24.5173 588.089 24.912 588.089 25.408C588.089 25.648 588.126 25.8693 588.201 26.072C588.281 26.2693 588.396 26.44 588.545 26.584C588.694 26.728 588.878 26.84 589.097 26.92C589.316 27 589.566 27.04 589.849 27.04ZM595.293 31V19.216H596.717V23.984C597.064 23.616 597.448 23.3227 597.869 23.104C598.29 22.88 598.776 22.768 599.325 22.768C599.768 22.768 600.157 22.8427 600.493 22.992C600.834 23.136 601.117 23.344 601.341 23.616C601.57 23.8827 601.744 24.2053 601.861 24.584C601.978 24.9627 602.037 25.3813 602.037 25.84V31H600.613V25.84C600.613 25.2267 600.472 24.752 600.189 24.416C599.912 24.0747 599.485 23.904 598.909 23.904C598.488 23.904 598.093 24.0053 597.725 24.208C597.362 24.4107 597.026 24.6853 596.717 25.032V31H595.293ZM606.64 31.128C606 31.128 605.506 30.9493 605.16 30.592C604.818 30.2347 604.648 29.72 604.648 29.048V24.088H603.672C603.586 24.088 603.514 24.064 603.456 24.016C603.397 23.9627 603.368 23.8827 603.368 23.776V23.208L604.696 23.04L605.024 20.536C605.034 20.456 605.069 20.392 605.128 20.344C605.186 20.2907 605.261 20.264 605.352 20.264H606.072V23.056H608.392V24.088H606.072V28.952C606.072 29.2933 606.154 29.5467 606.32 29.712C606.485 29.8773 606.698 29.96 606.96 29.96C607.109 29.96 607.237 29.9413 607.344 29.904C607.456 29.8613 607.552 29.816 607.632 29.768C607.712 29.72 607.778 29.6773 607.832 29.64C607.89 29.5973 607.941 29.576 607.984 29.576C608.058 29.576 608.125 29.6213 608.184 29.712L608.6 30.392C608.354 30.6213 608.058 30.8027 607.712 30.936C607.365 31.064 607.008 31.128 606.64 31.128Z" fill="black"/>
<path d="M652.824 31H651.624C651.485 31 651.373 30.9653 651.288 30.896C651.203 30.8267 651.139 30.7387 651.096 30.632L650.024 27.864H644.88L643.808 30.632C643.771 30.728 643.707 30.8133 643.616 30.888C643.525 30.9627 643.413 31 643.28 31H642.08L646.664 19.536H648.24L652.824 31ZM645.312 26.744H649.592L647.792 22.08C647.675 21.792 647.56 21.432 647.448 21C647.389 21.2187 647.331 21.4213 647.272 21.608C647.219 21.7893 647.165 21.9493 647.112 22.088L645.312 26.744ZM655.819 29.696H660.779V31H654.267V19.536H655.819V29.696ZM671.918 31H670.718C670.579 31 670.467 30.9653 670.382 30.896C670.296 30.8267 670.232 30.7387 670.19 30.632L669.118 27.864H663.974L662.902 30.632C662.864 30.728 662.8 30.8133 662.71 30.888C662.619 30.9627 662.507 31 662.374 31H661.174L665.758 19.536H667.334L671.918 31ZM664.406 26.744H668.686L666.886 22.08C666.768 21.792 666.654 21.432 666.542 21C666.483 21.2187 666.424 21.4213 666.366 21.608C666.312 21.7893 666.259 21.9493 666.206 22.088L664.406 26.744ZM680.106 19.536V20.84H676.402V31H674.85V20.84H671.13V19.536H680.106Z" fill="black"/>
<rect x="14.5" y="14.5" width="21" height="21" rx="3.5" fill="white" stroke="#D8D8D8"/>
</svg>
