<svg width="800" height="530" viewBox="0 0 800 530" fill="none" xmlns="http://www.w3.org/2000/svg">
<path d="M0 530H800V0H0V530Z" fill="#D1D1D1"/>
<rect x="27" y="68" width="232" height="29" fill="white"/>
<path d="M0 50H800V20H0V50Z" fill="#171717"/>
<rect x="27" y="144" width="747" height="366" fill="#F8F8F8"/>
<rect x="27" y="144" width="747" height="366" fill="white"/>
<rect x="27" y="144" width="747" height="35" fill="#626262"/>
<rect x="27" y="217" width="747" height="35" fill="#F9F9F9"/>
<rect x="27" y="290" width="747" height="35" fill="#F9F9F9"/>
<rect x="27" y="364" width="747" height="35" fill="#F9F9F9"/>
<rect x="27" y="438" width="747" height="35" fill="#F9F9F9"/>
<rect x="27" y="119" width="70" height="25" fill="#F8F8F8"/>
<rect x="27" y="142" width="70" height="2" fill="#0064D1"/>
<rect x="99" y="119" width="70" height="25" fill="#E0E0E0"/>
<rect x="171" y="119" width="70" height="25" fill="#E0E0E0"/>
<rect x="40" y="128" width="44" height="7" fill="#626262"/>
<rect x="112" y="128" width="44" height="7" fill="#626262"/>
<rect x="184" y="128" width="44" height="7" fill="#626262"/>
</svg>
