<svg width="977" height="150" viewBox="0 0 977 150" fill="none" xmlns="http://www.w3.org/2000/svg">
<rect width="977" height="50" fill="#F8F8F8"/>
<path d="M75.472 28.632C75.5573 28.632 75.6347 28.6667 75.704 28.736L76.312 29.4C75.8427 29.944 75.272 30.368 74.6 30.672C73.9333 30.976 73.128 31.128 72.184 31.128C71.3573 31.128 70.608 30.9867 69.936 30.704C69.264 30.416 68.6907 30.016 68.216 29.504C67.7413 28.9867 67.3733 28.368 67.112 27.648C66.8507 26.928 66.72 26.136 66.72 25.272C66.72 24.408 66.8587 23.616 67.136 22.896C67.4187 22.176 67.8133 21.5573 68.32 21.04C68.8267 20.5227 69.432 20.1227 70.136 19.84C70.8453 19.552 71.6267 19.408 72.48 19.408C73.3227 19.408 74.048 19.5387 74.656 19.8C75.2693 20.0613 75.8133 20.416 76.288 20.864L75.784 21.576C75.7467 21.6293 75.704 21.6747 75.656 21.712C75.608 21.744 75.5387 21.76 75.448 21.76C75.3787 21.76 75.304 21.736 75.224 21.688C75.1493 21.6347 75.0587 21.5707 74.952 21.496C74.8453 21.4213 74.72 21.3413 74.576 21.256C74.432 21.1707 74.2613 21.0907 74.064 21.016C73.8667 20.9413 73.6373 20.88 73.376 20.832C73.1147 20.7787 72.8133 20.752 72.472 20.752C71.8587 20.752 71.296 20.8587 70.784 21.072C70.2773 21.28 69.84 21.5787 69.472 21.968C69.104 22.3573 68.816 22.832 68.608 23.392C68.4053 23.952 68.304 24.5787 68.304 25.272C68.304 25.9867 68.4053 26.624 68.608 27.184C68.816 27.744 69.096 28.2187 69.448 28.608C69.8053 28.992 70.2267 29.2853 70.712 29.488C71.1973 29.6907 71.72 29.792 72.28 29.792C72.6213 29.792 72.928 29.7733 73.2 29.736C73.472 29.6933 73.7227 29.6293 73.952 29.544C74.1867 29.4587 74.4027 29.352 74.6 29.224C74.8027 29.0907 75.0053 28.9333 75.208 28.752C75.2987 28.672 75.3867 28.632 75.472 28.632ZM78.1211 31V19.216H79.5451V23.984C79.8918 23.616 80.2758 23.3227 80.6971 23.104C81.1185 22.88 81.6038 22.768 82.1531 22.768C82.5958 22.768 82.9851 22.8427 83.3211 22.992C83.6625 23.136 83.9451 23.344 84.1691 23.616C84.3985 23.8827 84.5718 24.2053 84.6891 24.584C84.8065 24.9627 84.8651 25.3813 84.8651 25.84V31H83.4411V25.84C83.4411 25.2267 83.2998 24.752 83.0171 24.416C82.7398 24.0747 82.3131 23.904 81.7371 23.904C81.3158 23.904 80.9211 24.0053 80.5531 24.208C80.1905 24.4107 79.8545 24.6853 79.5451 25.032V31H78.1211ZM90.2198 22.768C90.7051 22.768 91.1531 22.8507 91.5638 23.016C91.9744 23.176 92.3291 23.4107 92.6278 23.72C92.9264 24.024 93.1584 24.4027 93.3238 24.856C93.4944 25.304 93.5798 25.816 93.5798 26.392C93.5798 26.616 93.5558 26.7653 93.5078 26.84C93.4598 26.9147 93.3691 26.952 93.2358 26.952H87.8438C87.8544 27.464 87.9238 27.9093 88.0518 28.288C88.1798 28.6667 88.3558 28.984 88.5798 29.24C88.8038 29.4907 89.0704 29.68 89.3798 29.808C89.6891 29.9307 90.0358 29.992 90.4198 29.992C90.7771 29.992 91.0838 29.952 91.3398 29.872C91.6011 29.7867 91.8251 29.696 92.0118 29.6C92.1984 29.504 92.3531 29.416 92.4758 29.336C92.6038 29.2507 92.7131 29.208 92.8038 29.208C92.9211 29.208 93.0118 29.2533 93.0758 29.344L93.4758 29.864C93.2998 30.0773 93.0891 30.264 92.8438 30.424C92.5984 30.5787 92.3344 30.7067 92.0518 30.808C91.7744 30.9093 91.4864 30.984 91.1878 31.032C90.8891 31.0853 90.5931 31.112 90.2998 31.112C89.7398 31.112 89.2224 31.0187 88.7478 30.832C88.2784 30.64 87.8704 30.3627 87.5238 30C87.1824 29.632 86.9158 29.1787 86.7238 28.64C86.5318 28.1013 86.4358 27.4827 86.4358 26.784C86.4358 26.2187 86.5211 25.6907 86.6918 25.2C86.8678 24.7093 87.1184 24.2853 87.4438 23.928C87.7691 23.5653 88.1664 23.2827 88.6358 23.08C89.1051 22.872 89.6331 22.768 90.2198 22.768ZM90.2517 23.816C89.5638 23.816 89.0224 24.016 88.6278 24.416C88.2331 24.8107 87.9878 25.36 87.8918 26.064H92.2998C92.2998 25.7333 92.2544 25.432 92.1638 25.16C92.0731 24.8827 91.9398 24.6453 91.7638 24.448C91.5878 24.2453 91.3718 24.0907 91.1158 23.984C90.8651 23.872 90.5771 23.816 90.2517 23.816ZM95.4024 31V22.896H96.2504C96.453 22.896 96.581 22.9947 96.6344 23.192L96.7384 24.024C97.037 23.656 97.3704 23.3547 97.7384 23.12C98.1117 22.8853 98.5437 22.768 99.0344 22.768C99.5837 22.768 100.026 22.92 100.362 23.224C100.704 23.528 100.949 23.9387 101.098 24.456C101.21 24.1627 101.357 23.9093 101.538 23.696C101.725 23.4827 101.933 23.3067 102.162 23.168C102.392 23.0293 102.634 22.928 102.89 22.864C103.152 22.8 103.416 22.768 103.682 22.768C104.109 22.768 104.488 22.8373 104.818 22.976C105.154 23.1093 105.437 23.3067 105.666 23.568C105.901 23.8293 106.08 24.152 106.202 24.536C106.325 24.9147 106.386 25.3493 106.386 25.84V31H104.962V25.84C104.962 25.2053 104.824 24.7253 104.546 24.4C104.269 24.0693 103.866 23.904 103.338 23.904C103.104 23.904 102.88 23.9467 102.666 24.032C102.458 24.112 102.274 24.232 102.114 24.392C101.954 24.552 101.826 24.7547 101.73 25C101.64 25.24 101.594 25.52 101.594 25.84V31H100.17V25.84C100.17 25.1893 100.04 24.704 99.7784 24.384C99.517 24.064 99.1357 23.904 98.6344 23.904C98.2824 23.904 97.9544 24 97.6504 24.192C97.3517 24.3787 97.077 24.6347 96.8264 24.96V31H95.4024ZM110.127 22.896V31H108.703V22.896H110.127ZM110.447 20.352C110.447 20.4907 110.418 20.6213 110.359 20.744C110.306 20.8613 110.231 20.968 110.135 21.064C110.044 21.1547 109.938 21.2267 109.815 21.28C109.692 21.3333 109.562 21.36 109.423 21.36C109.284 21.36 109.154 21.3333 109.031 21.28C108.914 21.2267 108.807 21.1547 108.711 21.064C108.62 20.968 108.548 20.8613 108.495 20.744C108.442 20.6213 108.415 20.4907 108.415 20.352C108.415 20.2133 108.442 20.0827 108.495 19.96C108.548 19.832 108.62 19.7227 108.711 19.632C108.807 19.536 108.914 19.4613 109.031 19.408C109.154 19.3547 109.284 19.328 109.423 19.328C109.562 19.328 109.692 19.3547 109.815 19.408C109.938 19.4613 110.044 19.536 110.135 19.632C110.231 19.7227 110.306 19.832 110.359 19.96C110.418 20.0827 110.447 20.2133 110.447 20.352ZM117.277 24.232C117.213 24.3493 117.114 24.408 116.981 24.408C116.901 24.408 116.81 24.3787 116.709 24.32C116.607 24.2613 116.482 24.1973 116.333 24.128C116.189 24.0533 116.015 23.9867 115.813 23.928C115.61 23.864 115.37 23.832 115.093 23.832C114.853 23.832 114.637 23.864 114.445 23.928C114.253 23.9867 114.087 24.0693 113.949 24.176C113.815 24.2827 113.711 24.408 113.637 24.552C113.567 24.6907 113.533 24.8427 113.533 25.008C113.533 25.216 113.591 25.3893 113.709 25.528C113.831 25.6667 113.991 25.7867 114.189 25.888C114.386 25.9893 114.61 26.08 114.861 26.16C115.111 26.2347 115.367 26.3173 115.629 26.408C115.895 26.4933 116.154 26.5893 116.405 26.696C116.655 26.8027 116.879 26.936 117.077 27.096C117.274 27.256 117.431 27.4533 117.549 27.688C117.671 27.9173 117.733 28.1947 117.733 28.52C117.733 28.8933 117.666 29.24 117.533 29.56C117.399 29.8747 117.202 30.1493 116.941 30.384C116.679 30.6133 116.359 30.7947 115.981 30.928C115.602 31.0613 115.165 31.128 114.669 31.128C114.103 31.128 113.591 31.0373 113.133 30.856C112.674 30.6693 112.285 30.432 111.965 30.144L112.301 29.6C112.343 29.5307 112.394 29.4773 112.453 29.44C112.511 29.4027 112.589 29.384 112.685 29.384C112.781 29.384 112.882 29.4213 112.989 29.496C113.095 29.5707 113.223 29.6533 113.373 29.744C113.527 29.8347 113.711 29.9173 113.925 29.992C114.143 30.0667 114.415 30.104 114.741 30.104C115.018 30.104 115.261 30.0693 115.469 30C115.677 29.9253 115.85 29.8267 115.989 29.704C116.127 29.5813 116.229 29.44 116.293 29.28C116.362 29.12 116.397 28.9493 116.397 28.768C116.397 28.544 116.335 28.36 116.213 28.216C116.095 28.0667 115.938 27.9413 115.741 27.84C115.543 27.7333 115.317 27.6427 115.061 27.568C114.81 27.488 114.551 27.4053 114.285 27.32C114.023 27.2347 113.765 27.1387 113.509 27.032C113.258 26.92 113.034 26.7813 112.837 26.616C112.639 26.4507 112.479 26.248 112.357 26.008C112.239 25.7627 112.181 25.4667 112.181 25.12C112.181 24.8107 112.245 24.5147 112.373 24.232C112.501 23.944 112.687 23.6933 112.933 23.48C113.178 23.2613 113.479 23.088 113.837 22.96C114.194 22.832 114.602 22.768 115.061 22.768C115.594 22.768 116.071 22.8533 116.493 23.024C116.919 23.1893 117.287 23.4187 117.597 23.712L117.277 24.232ZM122.03 31.128C121.39 31.128 120.897 30.9493 120.55 30.592C120.209 30.2347 120.038 29.72 120.038 29.048V24.088H119.062C118.977 24.088 118.905 24.064 118.846 24.016C118.788 23.9627 118.758 23.8827 118.758 23.776V23.208L120.086 23.04L120.414 20.536C120.425 20.456 120.46 20.392 120.518 20.344C120.577 20.2907 120.652 20.264 120.742 20.264H121.462V23.056H123.782V24.088H121.462V28.952C121.462 29.2933 121.545 29.5467 121.71 29.712C121.876 29.8773 122.089 29.96 122.35 29.96C122.5 29.96 122.628 29.9413 122.734 29.904C122.846 29.8613 122.942 29.816 123.022 29.768C123.102 29.72 123.169 29.6773 123.222 29.64C123.281 29.5973 123.332 29.576 123.374 29.576C123.449 29.576 123.516 29.6213 123.574 29.712L123.99 30.392C123.745 30.6213 123.449 30.8027 123.102 30.936C122.756 31.064 122.398 31.128 122.03 31.128ZM125.543 31V22.896H126.359C126.514 22.896 126.62 22.9253 126.679 22.984C126.738 23.0427 126.778 23.144 126.799 23.288L126.895 24.552C127.172 23.9867 127.514 23.5467 127.919 23.232C128.33 22.912 128.81 22.752 129.359 22.752C129.583 22.752 129.786 22.7787 129.967 22.832C130.148 22.88 130.316 22.9493 130.471 23.04L130.287 24.104C130.25 24.2373 130.167 24.304 130.039 24.304C129.964 24.304 129.85 24.28 129.695 24.232C129.54 24.1787 129.324 24.152 129.047 24.152C128.551 24.152 128.135 24.296 127.799 24.584C127.468 24.872 127.191 25.2907 126.967 25.84V31H125.543ZM134.372 33.392C134.324 33.4987 134.263 33.584 134.188 33.648C134.119 33.712 134.009 33.744 133.86 33.744H132.804L134.284 30.528L130.94 22.896H132.172C132.295 22.896 132.391 22.928 132.46 22.992C132.529 23.0507 132.58 23.1173 132.612 23.192L134.78 28.296C134.828 28.4133 134.868 28.5307 134.9 28.648C134.937 28.7653 134.969 28.8853 134.996 29.008C135.033 28.8853 135.071 28.7653 135.108 28.648C135.145 28.5307 135.188 28.4107 135.236 28.288L137.34 23.192C137.372 23.1067 137.425 23.0373 137.5 22.984C137.58 22.9253 137.665 22.896 137.756 22.896H138.892L134.372 33.392Z" fill="black"/>
<path d="M318.688 31H317.128V25.784H310.952V31H309.392V19.536H310.952V24.648H317.128V19.536H318.688V31ZM324.47 22.768C324.955 22.768 325.403 22.8507 325.814 23.016C326.224 23.176 326.579 23.4107 326.878 23.72C327.176 24.024 327.408 24.4027 327.574 24.856C327.744 25.304 327.83 25.816 327.83 26.392C327.83 26.616 327.806 26.7653 327.758 26.84C327.71 26.9147 327.619 26.952 327.486 26.952H322.094C322.104 27.464 322.174 27.9093 322.302 28.288C322.43 28.6667 322.606 28.984 322.83 29.24C323.054 29.4907 323.32 29.68 323.63 29.808C323.939 29.9307 324.286 29.992 324.67 29.992C325.027 29.992 325.334 29.952 325.59 29.872C325.851 29.7867 326.075 29.696 326.262 29.6C326.448 29.504 326.603 29.416 326.726 29.336C326.854 29.2507 326.963 29.208 327.054 29.208C327.171 29.208 327.262 29.2533 327.326 29.344L327.726 29.864C327.55 30.0773 327.339 30.264 327.094 30.424C326.848 30.5787 326.584 30.7067 326.302 30.808C326.024 30.9093 325.736 30.984 325.438 31.032C325.139 31.0853 324.843 31.112 324.55 31.112C323.99 31.112 323.472 31.0187 322.998 30.832C322.528 30.64 322.12 30.3627 321.774 30C321.432 29.632 321.166 29.1787 320.974 28.64C320.782 28.1013 320.686 27.4827 320.686 26.784C320.686 26.2187 320.771 25.6907 320.942 25.2C321.118 24.7093 321.368 24.2853 321.694 23.928C322.019 23.5653 322.416 23.2827 322.886 23.08C323.355 22.872 323.883 22.768 324.47 22.768ZM324.502 23.816C323.814 23.816 323.272 24.016 322.878 24.416C322.483 24.8107 322.238 25.36 322.142 26.064H326.55C326.55 25.7333 326.504 25.432 326.414 25.16C326.323 24.8827 326.19 24.6453 326.014 24.448C325.838 24.2453 325.622 24.0907 325.366 23.984C325.115 23.872 324.827 23.816 324.502 23.816ZM329.652 31V22.896H330.5C330.703 22.896 330.831 22.9947 330.884 23.192L330.988 24.024C331.287 23.656 331.62 23.3547 331.988 23.12C332.362 22.8853 332.794 22.768 333.284 22.768C333.834 22.768 334.276 22.92 334.612 23.224C334.954 23.528 335.199 23.9387 335.348 24.456C335.46 24.1627 335.607 23.9093 335.788 23.696C335.975 23.4827 336.183 23.3067 336.412 23.168C336.642 23.0293 336.884 22.928 337.14 22.864C337.402 22.8 337.666 22.768 337.932 22.768C338.359 22.768 338.738 22.8373 339.068 22.976C339.404 23.1093 339.687 23.3067 339.916 23.568C340.151 23.8293 340.33 24.152 340.452 24.536C340.575 24.9147 340.636 25.3493 340.636 25.84V31H339.212V25.84C339.212 25.2053 339.074 24.7253 338.796 24.4C338.519 24.0693 338.116 23.904 337.588 23.904C337.354 23.904 337.13 23.9467 336.916 24.032C336.708 24.112 336.524 24.232 336.364 24.392C336.204 24.552 336.076 24.7547 335.98 25C335.89 25.24 335.844 25.52 335.844 25.84V31H334.42V25.84C334.42 25.1893 334.29 24.704 334.028 24.384C333.767 24.064 333.386 23.904 332.884 23.904C332.532 23.904 332.204 24 331.9 24.192C331.602 24.3787 331.327 24.6347 331.076 24.96V31H329.652ZM348.745 31H348.113C347.974 31 347.862 30.9787 347.777 30.936C347.692 30.8933 347.636 30.8027 347.609 30.664L347.449 29.912C347.236 30.104 347.028 30.2773 346.825 30.432C346.622 30.5813 346.409 30.7093 346.185 30.816C345.961 30.9173 345.721 30.9947 345.465 31.048C345.214 31.1013 344.934 31.128 344.625 31.128C344.31 31.128 344.014 31.0853 343.737 31C343.465 30.9093 343.228 30.776 343.025 30.6C342.822 30.424 342.66 30.2027 342.537 29.936C342.42 29.664 342.361 29.344 342.361 28.976C342.361 28.656 342.449 28.3493 342.625 28.056C342.801 27.7573 343.084 27.4933 343.473 27.264C343.868 27.0347 344.382 26.848 345.017 26.704C345.652 26.5547 346.428 26.4693 347.345 26.448V25.816C347.345 25.1867 347.209 24.712 346.937 24.392C346.67 24.0667 346.273 23.904 345.745 23.904C345.398 23.904 345.105 23.9493 344.865 24.04C344.63 24.1253 344.425 24.224 344.249 24.336C344.078 24.4427 343.929 24.5413 343.801 24.632C343.678 24.7173 343.556 24.76 343.433 24.76C343.337 24.76 343.252 24.736 343.177 24.688C343.108 24.6347 343.052 24.5707 343.009 24.496L342.753 24.04C343.201 23.608 343.684 23.2853 344.201 23.072C344.718 22.8587 345.292 22.752 345.921 22.752C346.374 22.752 346.777 22.8267 347.129 22.976C347.481 23.1253 347.777 23.3333 348.017 23.6C348.257 23.8667 348.438 24.1893 348.561 24.568C348.684 24.9467 348.745 25.3627 348.745 25.816V31ZM345.049 30.128C345.3 30.128 345.529 30.104 345.737 30.056C345.945 30.0027 346.14 29.9307 346.321 29.84C346.508 29.744 346.684 29.6293 346.849 29.496C347.02 29.3627 347.185 29.2107 347.345 29.04V27.352C346.689 27.3733 346.132 27.4267 345.673 27.512C345.214 27.592 344.841 27.6987 344.553 27.832C344.265 27.9653 344.054 28.1227 343.921 28.304C343.793 28.4853 343.729 28.688 343.729 28.912C343.729 29.1253 343.764 29.3093 343.833 29.464C343.902 29.6187 343.996 29.7467 344.113 29.848C344.23 29.944 344.369 30.016 344.529 30.064C344.689 30.1067 344.862 30.128 345.049 30.128ZM353.358 31.128C352.718 31.128 352.225 30.9493 351.878 30.592C351.537 30.2347 351.366 29.72 351.366 29.048V24.088H350.39C350.305 24.088 350.233 24.064 350.174 24.016C350.116 23.9627 350.086 23.8827 350.086 23.776V23.208L351.414 23.04L351.742 20.536C351.753 20.456 351.788 20.392 351.846 20.344C351.905 20.2907 351.98 20.264 352.07 20.264H352.79V23.056H355.11V24.088H352.79V28.952C352.79 29.2933 352.873 29.5467 353.038 29.712C353.204 29.8773 353.417 29.96 353.678 29.96C353.828 29.96 353.956 29.9413 354.062 29.904C354.174 29.8613 354.27 29.816 354.35 29.768C354.43 29.72 354.497 29.6773 354.55 29.64C354.609 29.5973 354.66 29.576 354.702 29.576C354.777 29.576 354.844 29.6213 354.902 29.712L355.318 30.392C355.073 30.6213 354.777 30.8027 354.43 30.936C354.084 31.064 353.726 31.128 353.358 31.128ZM360.151 22.768C360.743 22.768 361.276 22.8667 361.751 23.064C362.231 23.2613 362.636 23.5413 362.967 23.904C363.303 24.2667 363.559 24.7067 363.735 25.224C363.916 25.736 364.007 26.3093 364.007 26.944C364.007 27.584 363.916 28.16 363.735 28.672C363.559 29.184 363.303 29.6213 362.967 29.984C362.636 30.3467 362.231 30.6267 361.751 30.824C361.276 31.016 360.743 31.112 360.151 31.112C359.559 31.112 359.023 31.016 358.543 30.824C358.068 30.6267 357.663 30.3467 357.327 29.984C356.991 29.6213 356.732 29.184 356.551 28.672C356.37 28.16 356.279 27.584 356.279 26.944C356.279 26.3093 356.37 25.736 356.551 25.224C356.732 24.7067 356.991 24.2667 357.327 23.904C357.663 23.5413 358.068 23.2613 358.543 23.064C359.023 22.8667 359.559 22.768 360.151 22.768ZM360.151 30C360.951 30 361.548 29.7333 361.943 29.2C362.338 28.6613 362.535 27.912 362.535 26.952C362.535 25.9867 362.338 25.2347 361.943 24.696C361.548 24.1573 360.951 23.888 360.151 23.888C359.746 23.888 359.394 23.9573 359.095 24.096C358.796 24.2347 358.546 24.4347 358.343 24.696C358.146 24.9573 357.996 25.28 357.895 25.664C357.799 26.0427 357.751 26.472 357.751 26.952C357.751 27.432 357.799 27.8613 357.895 28.24C357.996 28.6187 358.146 28.9387 358.343 29.2C358.546 29.456 358.796 29.6533 359.095 29.792C359.394 29.9307 359.746 30 360.151 30ZM367.346 19.216V31H365.922V19.216H367.346ZM373.136 22.768C373.728 22.768 374.261 22.8667 374.736 23.064C375.216 23.2613 375.621 23.5413 375.952 23.904C376.288 24.2667 376.544 24.7067 376.72 25.224C376.901 25.736 376.992 26.3093 376.992 26.944C376.992 27.584 376.901 28.16 376.72 28.672C376.544 29.184 376.288 29.6213 375.952 29.984C375.621 30.3467 375.216 30.6267 374.736 30.824C374.261 31.016 373.728 31.112 373.136 31.112C372.544 31.112 372.008 31.016 371.528 30.824C371.053 30.6267 370.648 30.3467 370.312 29.984C369.976 29.6213 369.717 29.184 369.536 28.672C369.354 28.16 369.264 27.584 369.264 26.944C369.264 26.3093 369.354 25.736 369.536 25.224C369.717 24.7067 369.976 24.2667 370.312 23.904C370.648 23.5413 371.053 23.2613 371.528 23.064C372.008 22.8667 372.544 22.768 373.136 22.768ZM373.136 30C373.936 30 374.533 29.7333 374.928 29.2C375.322 28.6613 375.52 27.912 375.52 26.952C375.52 25.9867 375.322 25.2347 374.928 24.696C374.533 24.1573 373.936 23.888 373.136 23.888C372.73 23.888 372.378 23.9573 372.08 24.096C371.781 24.2347 371.53 24.4347 371.328 24.696C371.13 24.9573 370.981 25.28 370.88 25.664C370.784 26.0427 370.736 26.472 370.736 26.952C370.736 27.432 370.784 27.8613 370.88 28.24C370.981 28.6187 371.13 28.9387 371.328 29.2C371.53 29.456 371.781 29.6533 372.08 29.792C372.378 29.9307 372.73 30 373.136 30ZM381.474 22.76C381.826 22.76 382.154 22.8 382.458 22.88C382.767 22.9547 383.047 23.0667 383.298 23.216H385.498V23.744C385.498 23.92 385.386 24.032 385.162 24.08L384.242 24.208C384.423 24.5547 384.514 24.9413 384.514 25.368C384.514 25.7627 384.437 26.1227 384.282 26.448C384.133 26.768 383.922 27.0427 383.65 27.272C383.383 27.5013 383.063 27.6773 382.69 27.8C382.322 27.9227 381.917 27.984 381.474 27.984C381.095 27.984 380.738 27.9387 380.402 27.848C380.231 27.9547 380.101 28.0693 380.01 28.192C379.925 28.3147 379.882 28.4347 379.882 28.552C379.882 28.744 379.959 28.8907 380.114 28.992C380.269 29.088 380.474 29.1573 380.73 29.2C380.986 29.2427 381.277 29.2693 381.602 29.28C381.927 29.2907 382.258 29.3093 382.594 29.336C382.935 29.3573 383.269 29.3973 383.594 29.456C383.919 29.5147 384.21 29.6107 384.466 29.744C384.722 29.8773 384.927 30.0613 385.082 30.296C385.237 30.5307 385.314 30.8347 385.314 31.208C385.314 31.5547 385.226 31.8907 385.05 32.216C384.879 32.5413 384.631 32.8293 384.306 33.08C383.981 33.336 383.583 33.5387 383.114 33.688C382.645 33.8427 382.114 33.92 381.522 33.92C380.93 33.92 380.41 33.8613 379.962 33.744C379.519 33.6267 379.151 33.4693 378.858 33.272C378.565 33.0747 378.343 32.8453 378.194 32.584C378.05 32.328 377.978 32.0587 377.978 31.776C377.978 31.376 378.103 31.0373 378.354 30.76C378.61 30.4773 378.959 30.2533 379.402 30.088C379.173 29.9813 378.989 29.84 378.85 29.664C378.717 29.4827 378.65 29.2427 378.65 28.944C378.65 28.8267 378.671 28.7067 378.714 28.584C378.757 28.456 378.821 28.3307 378.906 28.208C378.997 28.0853 379.106 27.968 379.234 27.856C379.362 27.744 379.511 27.6453 379.682 27.56C379.282 27.336 378.967 27.04 378.738 26.672C378.514 26.2987 378.402 25.864 378.402 25.368C378.402 24.9733 378.477 24.616 378.626 24.296C378.781 23.9707 378.994 23.696 379.266 23.472C379.538 23.2427 379.861 23.0667 380.234 22.944C380.613 22.8213 381.026 22.76 381.474 22.76ZM384.002 31.44C384.002 31.2373 383.946 31.0747 383.834 30.952C383.722 30.8293 383.57 30.736 383.378 30.672C383.186 30.6027 382.965 30.552 382.714 30.52C382.463 30.488 382.199 30.4667 381.922 30.456C381.645 30.44 381.362 30.424 381.074 30.408C380.786 30.392 380.511 30.3627 380.25 30.32C379.946 30.464 379.698 30.64 379.506 30.848C379.319 31.056 379.226 31.304 379.226 31.592C379.226 31.7733 379.271 31.9413 379.362 32.096C379.458 32.256 379.602 32.392 379.794 32.504C379.986 32.6213 380.226 32.712 380.514 32.776C380.807 32.8453 381.151 32.88 381.546 32.88C381.93 32.88 382.274 32.8453 382.578 32.776C382.882 32.7067 383.138 32.608 383.346 32.48C383.559 32.352 383.722 32.2 383.834 32.024C383.946 31.848 384.002 31.6533 384.002 31.44ZM381.474 27.04C381.762 27.04 382.015 27 382.234 26.92C382.458 26.84 382.645 26.728 382.794 26.584C382.943 26.44 383.055 26.2693 383.13 26.072C383.205 25.8693 383.242 25.648 383.242 25.408C383.242 24.912 383.09 24.5173 382.786 24.224C382.487 23.9307 382.05 23.784 381.474 23.784C380.903 23.784 380.466 23.9307 380.162 24.224C379.863 24.5173 379.714 24.912 379.714 25.408C379.714 25.648 379.751 25.8693 379.826 26.072C379.906 26.2693 380.021 26.44 380.17 26.584C380.319 26.728 380.503 26.84 380.722 26.92C380.941 27 381.191 27.04 381.474 27.04ZM389.294 33.392C389.246 33.4987 389.185 33.584 389.11 33.648C389.041 33.712 388.931 33.744 388.782 33.744H387.726L389.206 30.528L385.862 22.896H387.094C387.217 22.896 387.313 22.928 387.382 22.992C387.451 23.0507 387.502 23.1173 387.534 23.192L389.702 28.296C389.75 28.4133 389.79 28.5307 389.822 28.648C389.859 28.7653 389.891 28.8853 389.918 29.008C389.955 28.8853 389.993 28.7653 390.03 28.648C390.067 28.5307 390.11 28.4107 390.158 28.288L392.262 23.192C392.294 23.1067 392.347 23.0373 392.422 22.984C392.502 22.9253 392.587 22.896 392.678 22.896H393.814L389.294 33.392Z" fill="black"/>
<path d="M505.824 31H504.624C504.485 31 504.373 30.9653 504.288 30.896C504.203 30.8267 504.139 30.7387 504.096 30.632L503.024 27.864H497.88L496.808 30.632C496.771 30.728 496.707 30.8133 496.616 30.888C496.525 30.9627 496.413 31 496.28 31H495.08L499.664 19.536H501.24L505.824 31ZM498.312 26.744H502.592L500.792 22.08C500.675 21.792 500.56 21.432 500.448 21C500.389 21.2187 500.331 21.4213 500.272 21.608C500.219 21.7893 500.165 21.9493 500.112 22.088L498.312 26.744ZM507.163 31.168C507.088 31.3547 506.976 31.4933 506.827 31.584C506.683 31.6747 506.534 31.72 506.379 31.72H505.779L510.587 19.744C510.656 19.5733 510.755 19.4427 510.883 19.352C511.011 19.2613 511.163 19.216 511.339 19.216H511.939L507.163 31.168ZM517.926 29.872C518.235 29.872 518.518 29.8587 518.774 29.832C519.035 29.8 519.281 29.7547 519.51 29.696C519.739 29.6373 519.955 29.568 520.158 29.488C520.361 29.4027 520.563 29.3067 520.766 29.2V26.672H518.99C518.889 26.672 518.806 26.6427 518.742 26.584C518.683 26.5253 518.654 26.4533 518.654 26.368V25.488H522.174V29.888C521.886 30.096 521.585 30.2773 521.27 30.432C520.961 30.5867 520.627 30.7173 520.27 30.824C519.918 30.9253 519.539 31 519.134 31.048C518.729 31.1013 518.289 31.128 517.814 31.128C516.982 31.128 516.219 30.9867 515.526 30.704C514.833 30.416 514.235 30.016 513.734 29.504C513.233 28.9867 512.841 28.368 512.558 27.648C512.281 26.928 512.142 26.136 512.142 25.272C512.142 24.3973 512.278 23.6 512.55 22.88C512.827 22.16 513.219 21.544 513.726 21.032C514.238 20.5147 514.854 20.1147 515.574 19.832C516.299 19.5493 517.11 19.408 518.006 19.408C518.459 19.408 518.881 19.4427 519.27 19.512C519.659 19.576 520.019 19.672 520.35 19.8C520.686 19.9227 520.995 20.0747 521.278 20.256C521.561 20.432 521.825 20.632 522.07 20.856L521.63 21.56C521.539 21.704 521.422 21.776 521.278 21.776C521.193 21.776 521.099 21.7467 520.998 21.688C520.865 21.6133 520.715 21.5227 520.55 21.416C520.385 21.3093 520.182 21.208 519.942 21.112C519.707 21.0107 519.427 20.9253 519.102 20.856C518.782 20.7867 518.401 20.752 517.958 20.752C517.313 20.752 516.729 20.8587 516.206 21.072C515.683 21.28 515.238 21.5813 514.87 21.976C514.502 22.3653 514.219 22.84 514.022 23.4C513.825 23.9547 513.726 24.5787 513.726 25.272C513.726 25.9973 513.827 26.6453 514.03 27.216C514.238 27.7813 514.529 28.2613 514.902 28.656C515.275 29.0507 515.718 29.352 516.23 29.56C516.742 29.768 517.307 29.872 517.926 29.872ZM527.98 19.408C528.465 19.408 528.919 19.48 529.34 19.624C529.761 19.768 530.124 19.9787 530.428 20.256C530.737 20.528 530.98 20.8613 531.156 21.256C531.332 21.6507 531.42 22.0987 531.42 22.6C531.42 23.0267 531.356 23.4213 531.228 23.784C531.1 24.1467 530.927 24.496 530.708 24.832C530.489 25.1627 530.236 25.4853 529.948 25.8C529.665 26.1093 529.364 26.4267 529.044 26.752L526.028 29.84C526.241 29.7813 526.457 29.736 526.676 29.704C526.895 29.6667 527.105 29.648 527.308 29.648H531.148C531.303 29.648 531.425 29.6933 531.516 29.784C531.607 29.8747 531.652 29.992 531.652 30.136V31H524.004V30.512C524.004 30.4107 524.023 30.3067 524.06 30.2C524.103 30.0933 524.169 29.9947 524.26 29.904L527.932 26.216C528.236 25.9067 528.513 25.6107 528.764 25.328C529.015 25.04 529.228 24.752 529.404 24.464C529.585 24.176 529.724 23.8853 529.82 23.592C529.916 23.2933 529.964 22.976 529.964 22.64C529.964 22.304 529.911 22.0107 529.804 21.76C529.697 21.504 529.551 21.2933 529.364 21.128C529.177 20.9627 528.959 20.84 528.708 20.76C528.457 20.6747 528.188 20.632 527.9 20.632C527.612 20.632 527.345 20.6747 527.1 20.76C526.855 20.8453 526.636 20.9653 526.444 21.12C526.257 21.2693 526.097 21.448 525.964 21.656C525.836 21.864 525.745 22.0933 525.692 22.344C525.649 22.4987 525.585 22.6107 525.5 22.68C525.415 22.7493 525.303 22.784 525.164 22.784C525.137 22.784 525.108 22.784 525.076 22.784C525.049 22.7787 525.017 22.7733 524.98 22.768L524.236 22.64C524.311 22.1173 524.455 21.656 524.668 21.256C524.881 20.8507 525.151 20.512 525.476 20.24C525.807 19.968 526.183 19.7627 526.604 19.624C527.031 19.48 527.489 19.408 527.98 19.408Z" fill="black"/>
<path d="M652.824 31H651.624C651.485 31 651.373 30.9653 651.288 30.896C651.203 30.8267 651.139 30.7387 651.096 30.632L650.024 27.864H644.88L643.808 30.632C643.771 30.728 643.707 30.8133 643.616 30.888C643.525 30.9627 643.413 31 643.28 31H642.08L646.664 19.536H648.24L652.824 31ZM645.312 26.744H649.592L647.792 22.08C647.675 21.792 647.56 21.432 647.448 21C647.389 21.2187 647.331 21.4213 647.272 21.608C647.219 21.7893 647.165 21.9493 647.112 22.088L645.312 26.744ZM654.163 31.168C654.088 31.3547 653.976 31.4933 653.827 31.584C653.683 31.6747 653.534 31.72 653.379 31.72H652.779L657.587 19.744C657.656 19.5733 657.755 19.4427 657.883 19.352C658.011 19.2613 658.163 19.216 658.339 19.216H658.939L654.163 31.168ZM664.926 29.872C665.235 29.872 665.518 29.8587 665.774 29.832C666.035 29.8 666.281 29.7547 666.51 29.696C666.739 29.6373 666.955 29.568 667.158 29.488C667.361 29.4027 667.563 29.3067 667.766 29.2V26.672H665.99C665.889 26.672 665.806 26.6427 665.742 26.584C665.683 26.5253 665.654 26.4533 665.654 26.368V25.488H669.174V29.888C668.886 30.096 668.585 30.2773 668.27 30.432C667.961 30.5867 667.627 30.7173 667.27 30.824C666.918 30.9253 666.539 31 666.134 31.048C665.729 31.1013 665.289 31.128 664.814 31.128C663.982 31.128 663.219 30.9867 662.526 30.704C661.833 30.416 661.235 30.016 660.734 29.504C660.233 28.9867 659.841 28.368 659.558 27.648C659.281 26.928 659.142 26.136 659.142 25.272C659.142 24.3973 659.278 23.6 659.55 22.88C659.827 22.16 660.219 21.544 660.726 21.032C661.238 20.5147 661.854 20.1147 662.574 19.832C663.299 19.5493 664.11 19.408 665.006 19.408C665.459 19.408 665.881 19.4427 666.27 19.512C666.659 19.576 667.019 19.672 667.35 19.8C667.686 19.9227 667.995 20.0747 668.278 20.256C668.561 20.432 668.825 20.632 669.07 20.856L668.63 21.56C668.539 21.704 668.422 21.776 668.278 21.776C668.193 21.776 668.099 21.7467 667.998 21.688C667.865 21.6133 667.715 21.5227 667.55 21.416C667.385 21.3093 667.182 21.208 666.942 21.112C666.707 21.0107 666.427 20.9253 666.102 20.856C665.782 20.7867 665.401 20.752 664.958 20.752C664.313 20.752 663.729 20.8587 663.206 21.072C662.683 21.28 662.238 21.5813 661.87 21.976C661.502 22.3653 661.219 22.84 661.022 23.4C660.825 23.9547 660.726 24.5787 660.726 25.272C660.726 25.9973 660.827 26.6453 661.03 27.216C661.238 27.7813 661.529 28.2613 661.902 28.656C662.275 29.0507 662.718 29.352 663.23 29.56C663.742 29.768 664.307 29.872 664.926 29.872ZM674.98 19.408C675.465 19.408 675.919 19.48 676.34 19.624C676.761 19.768 677.124 19.9787 677.428 20.256C677.737 20.528 677.98 20.8613 678.156 21.256C678.332 21.6507 678.42 22.0987 678.42 22.6C678.42 23.0267 678.356 23.4213 678.228 23.784C678.1 24.1467 677.927 24.496 677.708 24.832C677.489 25.1627 677.236 25.4853 676.948 25.8C676.665 26.1093 676.364 26.4267 676.044 26.752L673.028 29.84C673.241 29.7813 673.457 29.736 673.676 29.704C673.895 29.6667 674.105 29.648 674.308 29.648H678.148C678.303 29.648 678.425 29.6933 678.516 29.784C678.607 29.8747 678.652 29.992 678.652 30.136V31H671.004V30.512C671.004 30.4107 671.023 30.3067 671.06 30.2C671.103 30.0933 671.169 29.9947 671.26 29.904L674.932 26.216C675.236 25.9067 675.513 25.6107 675.764 25.328C676.015 25.04 676.228 24.752 676.404 24.464C676.585 24.176 676.724 23.8853 676.82 23.592C676.916 23.2933 676.964 22.976 676.964 22.64C676.964 22.304 676.911 22.0107 676.804 21.76C676.697 21.504 676.551 21.2933 676.364 21.128C676.177 20.9627 675.959 20.84 675.708 20.76C675.457 20.6747 675.188 20.632 674.9 20.632C674.612 20.632 674.345 20.6747 674.1 20.76C673.855 20.8453 673.636 20.9653 673.444 21.12C673.257 21.2693 673.097 21.448 672.964 21.656C672.836 21.864 672.745 22.0933 672.692 22.344C672.649 22.4987 672.585 22.6107 672.5 22.68C672.415 22.7493 672.303 22.784 672.164 22.784C672.137 22.784 672.108 22.784 672.076 22.784C672.049 22.7787 672.017 22.7733 671.98 22.768L671.236 22.64C671.311 22.1173 671.455 21.656 671.668 21.256C671.881 20.8507 672.151 20.512 672.476 20.24C672.807 19.968 673.183 19.7627 673.604 19.624C674.031 19.48 674.489 19.408 674.98 19.408Z" fill="black"/>
<rect x="14.5" y="14.5" width="21" height="21" rx="3.5" fill="white" stroke="#D8D8D8"/>
<path d="M75.472 78.632C75.5573 78.632 75.6347 78.6667 75.704 78.736L76.312 79.4C75.8427 79.944 75.272 80.368 74.6 80.672C73.9333 80.976 73.128 81.128 72.184 81.128C71.3573 81.128 70.608 80.9867 69.936 80.704C69.264 80.416 68.6907 80.016 68.216 79.504C67.7413 78.9867 67.3733 78.368 67.112 77.648C66.8507 76.928 66.72 76.136 66.72 75.272C66.72 74.408 66.8587 73.616 67.136 72.896C67.4187 72.176 67.8133 71.5573 68.32 71.04C68.8267 70.5227 69.432 70.1227 70.136 69.84C70.8453 69.552 71.6267 69.408 72.48 69.408C73.3227 69.408 74.048 69.5387 74.656 69.8C75.2693 70.0613 75.8133 70.416 76.288 70.864L75.784 71.576C75.7467 71.6293 75.704 71.6747 75.656 71.712C75.608 71.744 75.5387 71.76 75.448 71.76C75.3787 71.76 75.304 71.736 75.224 71.688C75.1493 71.6347 75.0587 71.5707 74.952 71.496C74.8453 71.4213 74.72 71.3413 74.576 71.256C74.432 71.1707 74.2613 71.0907 74.064 71.016C73.8667 70.9413 73.6373 70.88 73.376 70.832C73.1147 70.7787 72.8133 70.752 72.472 70.752C71.8587 70.752 71.296 70.8587 70.784 71.072C70.2773 71.28 69.84 71.5787 69.472 71.968C69.104 72.3573 68.816 72.832 68.608 73.392C68.4053 73.952 68.304 74.5787 68.304 75.272C68.304 75.9867 68.4053 76.624 68.608 77.184C68.816 77.744 69.096 78.2187 69.448 78.608C69.8053 78.992 70.2267 79.2853 70.712 79.488C71.1973 79.6907 71.72 79.792 72.28 79.792C72.6213 79.792 72.928 79.7733 73.2 79.736C73.472 79.6933 73.7227 79.6293 73.952 79.544C74.1867 79.4587 74.4027 79.352 74.6 79.224C74.8027 79.0907 75.0053 78.9333 75.208 78.752C75.2987 78.672 75.3867 78.632 75.472 78.632ZM78.1211 81V69.216H79.5451V73.984C79.8918 73.616 80.2758 73.3227 80.6971 73.104C81.1185 72.88 81.6038 72.768 82.1531 72.768C82.5958 72.768 82.9851 72.8427 83.3211 72.992C83.6625 73.136 83.9451 73.344 84.1691 73.616C84.3985 73.8827 84.5718 74.2053 84.6891 74.584C84.8065 74.9627 84.8651 75.3813 84.8651 75.84V81H83.4411V75.84C83.4411 75.2267 83.2998 74.752 83.0171 74.416C82.7398 74.0747 82.3131 73.904 81.7371 73.904C81.3158 73.904 80.9211 74.0053 80.5531 74.208C80.1905 74.4107 79.8545 74.6853 79.5451 75.032V81H78.1211ZM90.2198 72.768C90.7051 72.768 91.1531 72.8507 91.5638 73.016C91.9744 73.176 92.3291 73.4107 92.6278 73.72C92.9264 74.024 93.1584 74.4027 93.3238 74.856C93.4944 75.304 93.5798 75.816 93.5798 76.392C93.5798 76.616 93.5558 76.7653 93.5078 76.84C93.4598 76.9147 93.3691 76.952 93.2358 76.952H87.8438C87.8544 77.464 87.9238 77.9093 88.0518 78.288C88.1798 78.6667 88.3558 78.984 88.5798 79.24C88.8038 79.4907 89.0704 79.68 89.3798 79.808C89.6891 79.9307 90.0358 79.992 90.4198 79.992C90.7771 79.992 91.0838 79.952 91.3398 79.872C91.6011 79.7867 91.8251 79.696 92.0118 79.6C92.1984 79.504 92.3531 79.416 92.4758 79.336C92.6038 79.2507 92.7131 79.208 92.8038 79.208C92.9211 79.208 93.0118 79.2533 93.0758 79.344L93.4758 79.864C93.2998 80.0773 93.0891 80.264 92.8438 80.424C92.5984 80.5787 92.3344 80.7067 92.0518 80.808C91.7744 80.9093 91.4864 80.984 91.1878 81.032C90.8891 81.0853 90.5931 81.112 90.2998 81.112C89.7398 81.112 89.2224 81.0187 88.7478 80.832C88.2784 80.64 87.8704 80.3627 87.5238 80C87.1824 79.632 86.9158 79.1787 86.7238 78.64C86.5318 78.1013 86.4358 77.4827 86.4358 76.784C86.4358 76.2187 86.5211 75.6907 86.6918 75.2C86.8678 74.7093 87.1184 74.2853 87.4438 73.928C87.7691 73.5653 88.1664 73.2827 88.6358 73.08C89.1051 72.872 89.6331 72.768 90.2198 72.768ZM90.2517 73.816C89.5638 73.816 89.0224 74.016 88.6278 74.416C88.2331 74.8107 87.9878 75.36 87.8918 76.064H92.2998C92.2998 75.7333 92.2544 75.432 92.1638 75.16C92.0731 74.8827 91.9398 74.6453 91.7638 74.448C91.5878 74.2453 91.3718 74.0907 91.1158 73.984C90.8651 73.872 90.5771 73.816 90.2517 73.816ZM95.4024 81V72.896H96.2504C96.453 72.896 96.581 72.9947 96.6344 73.192L96.7384 74.024C97.037 73.656 97.3704 73.3547 97.7384 73.12C98.1117 72.8853 98.5437 72.768 99.0344 72.768C99.5837 72.768 100.026 72.92 100.362 73.224C100.704 73.528 100.949 73.9387 101.098 74.456C101.21 74.1627 101.357 73.9093 101.538 73.696C101.725 73.4827 101.933 73.3067 102.162 73.168C102.392 73.0293 102.634 72.928 102.89 72.864C103.152 72.8 103.416 72.768 103.682 72.768C104.109 72.768 104.488 72.8373 104.818 72.976C105.154 73.1093 105.437 73.3067 105.666 73.568C105.901 73.8293 106.08 74.152 106.202 74.536C106.325 74.9147 106.386 75.3493 106.386 75.84V81H104.962V75.84C104.962 75.2053 104.824 74.7253 104.546 74.4C104.269 74.0693 103.866 73.904 103.338 73.904C103.104 73.904 102.88 73.9467 102.666 74.032C102.458 74.112 102.274 74.232 102.114 74.392C101.954 74.552 101.826 74.7547 101.73 75C101.64 75.24 101.594 75.52 101.594 75.84V81H100.17V75.84C100.17 75.1893 100.04 74.704 99.7784 74.384C99.517 74.064 99.1357 73.904 98.6344 73.904C98.2824 73.904 97.9544 74 97.6504 74.192C97.3517 74.3787 97.077 74.6347 96.8264 74.96V81H95.4024ZM110.127 72.896V81H108.703V72.896H110.127ZM110.447 70.352C110.447 70.4907 110.418 70.6213 110.359 70.744C110.306 70.8613 110.231 70.968 110.135 71.064C110.044 71.1547 109.938 71.2267 109.815 71.28C109.692 71.3333 109.562 71.36 109.423 71.36C109.284 71.36 109.154 71.3333 109.031 71.28C108.914 71.2267 108.807 71.1547 108.711 71.064C108.62 70.968 108.548 70.8613 108.495 70.744C108.442 70.6213 108.415 70.4907 108.415 70.352C108.415 70.2133 108.442 70.0827 108.495 69.96C108.548 69.832 108.62 69.7227 108.711 69.632C108.807 69.536 108.914 69.4613 109.031 69.408C109.154 69.3547 109.284 69.328 109.423 69.328C109.562 69.328 109.692 69.3547 109.815 69.408C109.938 69.4613 110.044 69.536 110.135 69.632C110.231 69.7227 110.306 69.832 110.359 69.96C110.418 70.0827 110.447 70.2133 110.447 70.352ZM117.277 74.232C117.213 74.3493 117.114 74.408 116.981 74.408C116.901 74.408 116.81 74.3787 116.709 74.32C116.607 74.2613 116.482 74.1973 116.333 74.128C116.189 74.0533 116.015 73.9867 115.813 73.928C115.61 73.864 115.37 73.832 115.093 73.832C114.853 73.832 114.637 73.864 114.445 73.928C114.253 73.9867 114.087 74.0693 113.949 74.176C113.815 74.2827 113.711 74.408 113.637 74.552C113.567 74.6907 113.533 74.8427 113.533 75.008C113.533 75.216 113.591 75.3893 113.709 75.528C113.831 75.6667 113.991 75.7867 114.189 75.888C114.386 75.9893 114.61 76.08 114.861 76.16C115.111 76.2347 115.367 76.3173 115.629 76.408C115.895 76.4933 116.154 76.5893 116.405 76.696C116.655 76.8027 116.879 76.936 117.077 77.096C117.274 77.256 117.431 77.4533 117.549 77.688C117.671 77.9173 117.733 78.1947 117.733 78.52C117.733 78.8933 117.666 79.24 117.533 79.56C117.399 79.8747 117.202 80.1493 116.941 80.384C116.679 80.6133 116.359 80.7947 115.981 80.928C115.602 81.0613 115.165 81.128 114.669 81.128C114.103 81.128 113.591 81.0373 113.133 80.856C112.674 80.6693 112.285 80.432 111.965 80.144L112.301 79.6C112.343 79.5307 112.394 79.4773 112.453 79.44C112.511 79.4027 112.589 79.384 112.685 79.384C112.781 79.384 112.882 79.4213 112.989 79.496C113.095 79.5707 113.223 79.6533 113.373 79.744C113.527 79.8347 113.711 79.9173 113.925 79.992C114.143 80.0667 114.415 80.104 114.741 80.104C115.018 80.104 115.261 80.0693 115.469 80C115.677 79.9253 115.85 79.8267 115.989 79.704C116.127 79.5813 116.229 79.44 116.293 79.28C116.362 79.12 116.397 78.9493 116.397 78.768C116.397 78.544 116.335 78.36 116.213 78.216C116.095 78.0667 115.938 77.9413 115.741 77.84C115.543 77.7333 115.317 77.6427 115.061 77.568C114.81 77.488 114.551 77.4053 114.285 77.32C114.023 77.2347 113.765 77.1387 113.509 77.032C113.258 76.92 113.034 76.7813 112.837 76.616C112.639 76.4507 112.479 76.248 112.357 76.008C112.239 75.7627 112.181 75.4667 112.181 75.12C112.181 74.8107 112.245 74.5147 112.373 74.232C112.501 73.944 112.687 73.6933 112.933 73.48C113.178 73.2613 113.479 73.088 113.837 72.96C114.194 72.832 114.602 72.768 115.061 72.768C115.594 72.768 116.071 72.8533 116.493 73.024C116.919 73.1893 117.287 73.4187 117.597 73.712L117.277 74.232ZM122.03 81.128C121.39 81.128 120.897 80.9493 120.55 80.592C120.209 80.2347 120.038 79.72 120.038 79.048V74.088H119.062C118.977 74.088 118.905 74.064 118.846 74.016C118.788 73.9627 118.758 73.8827 118.758 73.776V73.208L120.086 73.04L120.414 70.536C120.425 70.456 120.46 70.392 120.518 70.344C120.577 70.2907 120.652 70.264 120.742 70.264H121.462V73.056H123.782V74.088H121.462V78.952C121.462 79.2933 121.545 79.5467 121.71 79.712C121.876 79.8773 122.089 79.96 122.35 79.96C122.5 79.96 122.628 79.9413 122.734 79.904C122.846 79.8613 122.942 79.816 123.022 79.768C123.102 79.72 123.169 79.6773 123.222 79.64C123.281 79.5973 123.332 79.576 123.374 79.576C123.449 79.576 123.516 79.6213 123.574 79.712L123.99 80.392C123.745 80.6213 123.449 80.8027 123.102 80.936C122.756 81.064 122.398 81.128 122.03 81.128ZM125.543 81V72.896H126.359C126.514 72.896 126.62 72.9253 126.679 72.984C126.738 73.0427 126.778 73.144 126.799 73.288L126.895 74.552C127.172 73.9867 127.514 73.5467 127.919 73.232C128.33 72.912 128.81 72.752 129.359 72.752C129.583 72.752 129.786 72.7787 129.967 72.832C130.148 72.88 130.316 72.9493 130.471 73.04L130.287 74.104C130.25 74.2373 130.167 74.304 130.039 74.304C129.964 74.304 129.85 74.28 129.695 74.232C129.54 74.1787 129.324 74.152 129.047 74.152C128.551 74.152 128.135 74.296 127.799 74.584C127.468 74.872 127.191 75.2907 126.967 75.84V81H125.543ZM134.372 83.392C134.324 83.4987 134.263 83.584 134.188 83.648C134.119 83.712 134.009 83.744 133.86 83.744H132.804L134.284 80.528L130.94 72.896H132.172C132.295 72.896 132.391 72.928 132.46 72.992C132.529 73.0507 132.58 73.1173 132.612 73.192L134.78 78.296C134.828 78.4133 134.868 78.5307 134.9 78.648C134.937 78.7653 134.969 78.8853 134.996 79.008C135.033 78.8853 135.071 78.7653 135.108 78.648C135.145 78.5307 135.188 78.4107 135.236 78.288L137.34 73.192C137.372 73.1067 137.425 73.0373 137.5 72.984C137.58 72.9253 137.665 72.896 137.756 72.896H138.892L134.372 83.392Z" fill="black"/>
<path d="M318.688 81H317.128V75.784H310.952V81H309.392V69.536H310.952V74.648H317.128V69.536H318.688V81ZM324.47 72.768C324.955 72.768 325.403 72.8507 325.814 73.016C326.224 73.176 326.579 73.4107 326.878 73.72C327.176 74.024 327.408 74.4027 327.574 74.856C327.744 75.304 327.83 75.816 327.83 76.392C327.83 76.616 327.806 76.7653 327.758 76.84C327.71 76.9147 327.619 76.952 327.486 76.952H322.094C322.104 77.464 322.174 77.9093 322.302 78.288C322.43 78.6667 322.606 78.984 322.83 79.24C323.054 79.4907 323.32 79.68 323.63 79.808C323.939 79.9307 324.286 79.992 324.67 79.992C325.027 79.992 325.334 79.952 325.59 79.872C325.851 79.7867 326.075 79.696 326.262 79.6C326.448 79.504 326.603 79.416 326.726 79.336C326.854 79.2507 326.963 79.208 327.054 79.208C327.171 79.208 327.262 79.2533 327.326 79.344L327.726 79.864C327.55 80.0773 327.339 80.264 327.094 80.424C326.848 80.5787 326.584 80.7067 326.302 80.808C326.024 80.9093 325.736 80.984 325.438 81.032C325.139 81.0853 324.843 81.112 324.55 81.112C323.99 81.112 323.472 81.0187 322.998 80.832C322.528 80.64 322.12 80.3627 321.774 80C321.432 79.632 321.166 79.1787 320.974 78.64C320.782 78.1013 320.686 77.4827 320.686 76.784C320.686 76.2187 320.771 75.6907 320.942 75.2C321.118 74.7093 321.368 74.2853 321.694 73.928C322.019 73.5653 322.416 73.2827 322.886 73.08C323.355 72.872 323.883 72.768 324.47 72.768ZM324.502 73.816C323.814 73.816 323.272 74.016 322.878 74.416C322.483 74.8107 322.238 75.36 322.142 76.064H326.55C326.55 75.7333 326.504 75.432 326.414 75.16C326.323 74.8827 326.19 74.6453 326.014 74.448C325.838 74.2453 325.622 74.0907 325.366 73.984C325.115 73.872 324.827 73.816 324.502 73.816ZM329.652 81V72.896H330.5C330.703 72.896 330.831 72.9947 330.884 73.192L330.988 74.024C331.287 73.656 331.62 73.3547 331.988 73.12C332.362 72.8853 332.794 72.768 333.284 72.768C333.834 72.768 334.276 72.92 334.612 73.224C334.954 73.528 335.199 73.9387 335.348 74.456C335.46 74.1627 335.607 73.9093 335.788 73.696C335.975 73.4827 336.183 73.3067 336.412 73.168C336.642 73.0293 336.884 72.928 337.14 72.864C337.402 72.8 337.666 72.768 337.932 72.768C338.359 72.768 338.738 72.8373 339.068 72.976C339.404 73.1093 339.687 73.3067 339.916 73.568C340.151 73.8293 340.33 74.152 340.452 74.536C340.575 74.9147 340.636 75.3493 340.636 75.84V81H339.212V75.84C339.212 75.2053 339.074 74.7253 338.796 74.4C338.519 74.0693 338.116 73.904 337.588 73.904C337.354 73.904 337.13 73.9467 336.916 74.032C336.708 74.112 336.524 74.232 336.364 74.392C336.204 74.552 336.076 74.7547 335.98 75C335.89 75.24 335.844 75.52 335.844 75.84V81H334.42V75.84C334.42 75.1893 334.29 74.704 334.028 74.384C333.767 74.064 333.386 73.904 332.884 73.904C332.532 73.904 332.204 74 331.9 74.192C331.602 74.3787 331.327 74.6347 331.076 74.96V81H329.652ZM348.745 81H348.113C347.974 81 347.862 80.9787 347.777 80.936C347.692 80.8933 347.636 80.8027 347.609 80.664L347.449 79.912C347.236 80.104 347.028 80.2773 346.825 80.432C346.622 80.5813 346.409 80.7093 346.185 80.816C345.961 80.9173 345.721 80.9947 345.465 81.048C345.214 81.1013 344.934 81.128 344.625 81.128C344.31 81.128 344.014 81.0853 343.737 81C343.465 80.9093 343.228 80.776 343.025 80.6C342.822 80.424 342.66 80.2027 342.537 79.936C342.42 79.664 342.361 79.344 342.361 78.976C342.361 78.656 342.449 78.3493 342.625 78.056C342.801 77.7573 343.084 77.4933 343.473 77.264C343.868 77.0347 344.382 76.848 345.017 76.704C345.652 76.5547 346.428 76.4693 347.345 76.448V75.816C347.345 75.1867 347.209 74.712 346.937 74.392C346.67 74.0667 346.273 73.904 345.745 73.904C345.398 73.904 345.105 73.9493 344.865 74.04C344.63 74.1253 344.425 74.224 344.249 74.336C344.078 74.4427 343.929 74.5413 343.801 74.632C343.678 74.7173 343.556 74.76 343.433 74.76C343.337 74.76 343.252 74.736 343.177 74.688C343.108 74.6347 343.052 74.5707 343.009 74.496L342.753 74.04C343.201 73.608 343.684 73.2853 344.201 73.072C344.718 72.8587 345.292 72.752 345.921 72.752C346.374 72.752 346.777 72.8267 347.129 72.976C347.481 73.1253 347.777 73.3333 348.017 73.6C348.257 73.8667 348.438 74.1893 348.561 74.568C348.684 74.9467 348.745 75.3627 348.745 75.816V81ZM345.049 80.128C345.3 80.128 345.529 80.104 345.737 80.056C345.945 80.0027 346.14 79.9307 346.321 79.84C346.508 79.744 346.684 79.6293 346.849 79.496C347.02 79.3627 347.185 79.2107 347.345 79.04V77.352C346.689 77.3733 346.132 77.4267 345.673 77.512C345.214 77.592 344.841 77.6987 344.553 77.832C344.265 77.9653 344.054 78.1227 343.921 78.304C343.793 78.4853 343.729 78.688 343.729 78.912C343.729 79.1253 343.764 79.3093 343.833 79.464C343.902 79.6187 343.996 79.7467 344.113 79.848C344.23 79.944 344.369 80.016 344.529 80.064C344.689 80.1067 344.862 80.128 345.049 80.128ZM353.358 81.128C352.718 81.128 352.225 80.9493 351.878 80.592C351.537 80.2347 351.366 79.72 351.366 79.048V74.088H350.39C350.305 74.088 350.233 74.064 350.174 74.016C350.116 73.9627 350.086 73.8827 350.086 73.776V73.208L351.414 73.04L351.742 70.536C351.753 70.456 351.788 70.392 351.846 70.344C351.905 70.2907 351.98 70.264 352.07 70.264H352.79V73.056H355.11V74.088H352.79V78.952C352.79 79.2933 352.873 79.5467 353.038 79.712C353.204 79.8773 353.417 79.96 353.678 79.96C353.828 79.96 353.956 79.9413 354.062 79.904C354.174 79.8613 354.27 79.816 354.35 79.768C354.43 79.72 354.497 79.6773 354.55 79.64C354.609 79.5973 354.66 79.576 354.702 79.576C354.777 79.576 354.844 79.6213 354.902 79.712L355.318 80.392C355.073 80.6213 354.777 80.8027 354.43 80.936C354.084 81.064 353.726 81.128 353.358 81.128ZM360.151 72.768C360.743 72.768 361.276 72.8667 361.751 73.064C362.231 73.2613 362.636 73.5413 362.967 73.904C363.303 74.2667 363.559 74.7067 363.735 75.224C363.916 75.736 364.007 76.3093 364.007 76.944C364.007 77.584 363.916 78.16 363.735 78.672C363.559 79.184 363.303 79.6213 362.967 79.984C362.636 80.3467 362.231 80.6267 361.751 80.824C361.276 81.016 360.743 81.112 360.151 81.112C359.559 81.112 359.023 81.016 358.543 80.824C358.068 80.6267 357.663 80.3467 357.327 79.984C356.991 79.6213 356.732 79.184 356.551 78.672C356.37 78.16 356.279 77.584 356.279 76.944C356.279 76.3093 356.37 75.736 356.551 75.224C356.732 74.7067 356.991 74.2667 357.327 73.904C357.663 73.5413 358.068 73.2613 358.543 73.064C359.023 72.8667 359.559 72.768 360.151 72.768ZM360.151 80C360.951 80 361.548 79.7333 361.943 79.2C362.338 78.6613 362.535 77.912 362.535 76.952C362.535 75.9867 362.338 75.2347 361.943 74.696C361.548 74.1573 360.951 73.888 360.151 73.888C359.746 73.888 359.394 73.9573 359.095 74.096C358.796 74.2347 358.546 74.4347 358.343 74.696C358.146 74.9573 357.996 75.28 357.895 75.664C357.799 76.0427 357.751 76.472 357.751 76.952C357.751 77.432 357.799 77.8613 357.895 78.24C357.996 78.6187 358.146 78.9387 358.343 79.2C358.546 79.456 358.796 79.6533 359.095 79.792C359.394 79.9307 359.746 80 360.151 80ZM367.346 69.216V81H365.922V69.216H367.346ZM373.136 72.768C373.728 72.768 374.261 72.8667 374.736 73.064C375.216 73.2613 375.621 73.5413 375.952 73.904C376.288 74.2667 376.544 74.7067 376.72 75.224C376.901 75.736 376.992 76.3093 376.992 76.944C376.992 77.584 376.901 78.16 376.72 78.672C376.544 79.184 376.288 79.6213 375.952 79.984C375.621 80.3467 375.216 80.6267 374.736 80.824C374.261 81.016 373.728 81.112 373.136 81.112C372.544 81.112 372.008 81.016 371.528 80.824C371.053 80.6267 370.648 80.3467 370.312 79.984C369.976 79.6213 369.717 79.184 369.536 78.672C369.354 78.16 369.264 77.584 369.264 76.944C369.264 76.3093 369.354 75.736 369.536 75.224C369.717 74.7067 369.976 74.2667 370.312 73.904C370.648 73.5413 371.053 73.2613 371.528 73.064C372.008 72.8667 372.544 72.768 373.136 72.768ZM373.136 80C373.936 80 374.533 79.7333 374.928 79.2C375.322 78.6613 375.52 77.912 375.52 76.952C375.52 75.9867 375.322 75.2347 374.928 74.696C374.533 74.1573 373.936 73.888 373.136 73.888C372.73 73.888 372.378 73.9573 372.08 74.096C371.781 74.2347 371.53 74.4347 371.328 74.696C371.13 74.9573 370.981 75.28 370.88 75.664C370.784 76.0427 370.736 76.472 370.736 76.952C370.736 77.432 370.784 77.8613 370.88 78.24C370.981 78.6187 371.13 78.9387 371.328 79.2C371.53 79.456 371.781 79.6533 372.08 79.792C372.378 79.9307 372.73 80 373.136 80ZM381.474 72.76C381.826 72.76 382.154 72.8 382.458 72.88C382.767 72.9547 383.047 73.0667 383.298 73.216H385.498V73.744C385.498 73.92 385.386 74.032 385.162 74.08L384.242 74.208C384.423 74.5547 384.514 74.9413 384.514 75.368C384.514 75.7627 384.437 76.1227 384.282 76.448C384.133 76.768 383.922 77.0427 383.65 77.272C383.383 77.5013 383.063 77.6773 382.69 77.8C382.322 77.9227 381.917 77.984 381.474 77.984C381.095 77.984 380.738 77.9387 380.402 77.848C380.231 77.9547 380.101 78.0693 380.01 78.192C379.925 78.3147 379.882 78.4347 379.882 78.552C379.882 78.744 379.959 78.8907 380.114 78.992C380.269 79.088 380.474 79.1573 380.73 79.2C380.986 79.2427 381.277 79.2693 381.602 79.28C381.927 79.2907 382.258 79.3093 382.594 79.336C382.935 79.3573 383.269 79.3973 383.594 79.456C383.919 79.5147 384.21 79.6107 384.466 79.744C384.722 79.8773 384.927 80.0613 385.082 80.296C385.237 80.5307 385.314 80.8347 385.314 81.208C385.314 81.5547 385.226 81.8907 385.05 82.216C384.879 82.5413 384.631 82.8293 384.306 83.08C383.981 83.336 383.583 83.5387 383.114 83.688C382.645 83.8427 382.114 83.92 381.522 83.92C380.93 83.92 380.41 83.8613 379.962 83.744C379.519 83.6267 379.151 83.4693 378.858 83.272C378.565 83.0747 378.343 82.8453 378.194 82.584C378.05 82.328 377.978 82.0587 377.978 81.776C377.978 81.376 378.103 81.0373 378.354 80.76C378.61 80.4773 378.959 80.2533 379.402 80.088C379.173 79.9813 378.989 79.84 378.85 79.664C378.717 79.4827 378.65 79.2427 378.65 78.944C378.65 78.8267 378.671 78.7067 378.714 78.584C378.757 78.456 378.821 78.3307 378.906 78.208C378.997 78.0853 379.106 77.968 379.234 77.856C379.362 77.744 379.511 77.6453 379.682 77.56C379.282 77.336 378.967 77.04 378.738 76.672C378.514 76.2987 378.402 75.864 378.402 75.368C378.402 74.9733 378.477 74.616 378.626 74.296C378.781 73.9707 378.994 73.696 379.266 73.472C379.538 73.2427 379.861 73.0667 380.234 72.944C380.613 72.8213 381.026 72.76 381.474 72.76ZM384.002 81.44C384.002 81.2373 383.946 81.0747 383.834 80.952C383.722 80.8293 383.57 80.736 383.378 80.672C383.186 80.6027 382.965 80.552 382.714 80.52C382.463 80.488 382.199 80.4667 381.922 80.456C381.645 80.44 381.362 80.424 381.074 80.408C380.786 80.392 380.511 80.3627 380.25 80.32C379.946 80.464 379.698 80.64 379.506 80.848C379.319 81.056 379.226 81.304 379.226 81.592C379.226 81.7733 379.271 81.9413 379.362 82.096C379.458 82.256 379.602 82.392 379.794 82.504C379.986 82.6213 380.226 82.712 380.514 82.776C380.807 82.8453 381.151 82.88 381.546 82.88C381.93 82.88 382.274 82.8453 382.578 82.776C382.882 82.7067 383.138 82.608 383.346 82.48C383.559 82.352 383.722 82.2 383.834 82.024C383.946 81.848 384.002 81.6533 384.002 81.44ZM381.474 77.04C381.762 77.04 382.015 77 382.234 76.92C382.458 76.84 382.645 76.728 382.794 76.584C382.943 76.44 383.055 76.2693 383.13 76.072C383.205 75.8693 383.242 75.648 383.242 75.408C383.242 74.912 383.09 74.5173 382.786 74.224C382.487 73.9307 382.05 73.784 381.474 73.784C380.903 73.784 380.466 73.9307 380.162 74.224C379.863 74.5173 379.714 74.912 379.714 75.408C379.714 75.648 379.751 75.8693 379.826 76.072C379.906 76.2693 380.021 76.44 380.17 76.584C380.319 76.728 380.503 76.84 380.722 76.92C380.941 77 381.191 77.04 381.474 77.04ZM389.294 83.392C389.246 83.4987 389.185 83.584 389.11 83.648C389.041 83.712 388.931 83.744 388.782 83.744H387.726L389.206 80.528L385.862 72.896H387.094C387.217 72.896 387.313 72.928 387.382 72.992C387.451 73.0507 387.502 73.1173 387.534 73.192L389.702 78.296C389.75 78.4133 389.79 78.5307 389.822 78.648C389.859 78.7653 389.891 78.8853 389.918 79.008C389.955 78.8853 389.993 78.7653 390.03 78.648C390.067 78.5307 390.11 78.4107 390.158 78.288L392.262 73.192C392.294 73.1067 392.347 73.0373 392.422 72.984C392.502 72.9253 392.587 72.896 392.678 72.896H393.814L389.294 83.392Z" fill="black"/>
<path d="M505.824 81H504.624C504.485 81 504.373 80.9653 504.288 80.896C504.203 80.8267 504.139 80.7387 504.096 80.632L503.024 77.864H497.88L496.808 80.632C496.771 80.728 496.707 80.8133 496.616 80.888C496.525 80.9627 496.413 81 496.28 81H495.08L499.664 69.536H501.24L505.824 81ZM498.312 76.744H502.592L500.792 72.08C500.675 71.792 500.56 71.432 500.448 71C500.389 71.2187 500.331 71.4213 500.272 71.608C500.219 71.7893 500.165 71.9493 500.112 72.088L498.312 76.744ZM507.163 81.168C507.088 81.3547 506.976 81.4933 506.827 81.584C506.683 81.6747 506.534 81.72 506.379 81.72H505.779L510.587 69.744C510.656 69.5733 510.755 69.4427 510.883 69.352C511.011 69.2613 511.163 69.216 511.339 69.216H511.939L507.163 81.168ZM517.926 79.872C518.235 79.872 518.518 79.8587 518.774 79.832C519.035 79.8 519.281 79.7547 519.51 79.696C519.739 79.6373 519.955 79.568 520.158 79.488C520.361 79.4027 520.563 79.3067 520.766 79.2V76.672H518.99C518.889 76.672 518.806 76.6427 518.742 76.584C518.683 76.5253 518.654 76.4533 518.654 76.368V75.488H522.174V79.888C521.886 80.096 521.585 80.2773 521.27 80.432C520.961 80.5867 520.627 80.7173 520.27 80.824C519.918 80.9253 519.539 81 519.134 81.048C518.729 81.1013 518.289 81.128 517.814 81.128C516.982 81.128 516.219 80.9867 515.526 80.704C514.833 80.416 514.235 80.016 513.734 79.504C513.233 78.9867 512.841 78.368 512.558 77.648C512.281 76.928 512.142 76.136 512.142 75.272C512.142 74.3973 512.278 73.6 512.55 72.88C512.827 72.16 513.219 71.544 513.726 71.032C514.238 70.5147 514.854 70.1147 515.574 69.832C516.299 69.5493 517.11 69.408 518.006 69.408C518.459 69.408 518.881 69.4427 519.27 69.512C519.659 69.576 520.019 69.672 520.35 69.8C520.686 69.9227 520.995 70.0747 521.278 70.256C521.561 70.432 521.825 70.632 522.07 70.856L521.63 71.56C521.539 71.704 521.422 71.776 521.278 71.776C521.193 71.776 521.099 71.7467 520.998 71.688C520.865 71.6133 520.715 71.5227 520.55 71.416C520.385 71.3093 520.182 71.208 519.942 71.112C519.707 71.0107 519.427 70.9253 519.102 70.856C518.782 70.7867 518.401 70.752 517.958 70.752C517.313 70.752 516.729 70.8587 516.206 71.072C515.683 71.28 515.238 71.5813 514.87 71.976C514.502 72.3653 514.219 72.84 514.022 73.4C513.825 73.9547 513.726 74.5787 513.726 75.272C513.726 75.9973 513.827 76.6453 514.03 77.216C514.238 77.7813 514.529 78.2613 514.902 78.656C515.275 79.0507 515.718 79.352 516.23 79.56C516.742 79.768 517.307 79.872 517.926 79.872ZM527.98 69.408C528.465 69.408 528.919 69.48 529.34 69.624C529.761 69.768 530.124 69.9787 530.428 70.256C530.737 70.528 530.98 70.8613 531.156 71.256C531.332 71.6507 531.42 72.0987 531.42 72.6C531.42 73.0267 531.356 73.4213 531.228 73.784C531.1 74.1467 530.927 74.496 530.708 74.832C530.489 75.1627 530.236 75.4853 529.948 75.8C529.665 76.1093 529.364 76.4267 529.044 76.752L526.028 79.84C526.241 79.7813 526.457 79.736 526.676 79.704C526.895 79.6667 527.105 79.648 527.308 79.648H531.148C531.303 79.648 531.425 79.6933 531.516 79.784C531.607 79.8747 531.652 79.992 531.652 80.136V81H524.004V80.512C524.004 80.4107 524.023 80.3067 524.06 80.2C524.103 80.0933 524.169 79.9947 524.26 79.904L527.932 76.216C528.236 75.9067 528.513 75.6107 528.764 75.328C529.015 75.04 529.228 74.752 529.404 74.464C529.585 74.176 529.724 73.8853 529.82 73.592C529.916 73.2933 529.964 72.976 529.964 72.64C529.964 72.304 529.911 72.0107 529.804 71.76C529.697 71.504 529.551 71.2933 529.364 71.128C529.177 70.9627 528.959 70.84 528.708 70.76C528.457 70.6747 528.188 70.632 527.9 70.632C527.612 70.632 527.345 70.6747 527.1 70.76C526.855 70.8453 526.636 70.9653 526.444 71.12C526.257 71.2693 526.097 71.448 525.964 71.656C525.836 71.864 525.745 72.0933 525.692 72.344C525.649 72.4987 525.585 72.6107 525.5 72.68C525.415 72.7493 525.303 72.784 525.164 72.784C525.137 72.784 525.108 72.784 525.076 72.784C525.049 72.7787 525.017 72.7733 524.98 72.768L524.236 72.64C524.311 72.1173 524.455 71.656 524.668 71.256C524.881 70.8507 525.151 70.512 525.476 70.24C525.807 69.968 526.183 69.7627 526.604 69.624C527.031 69.48 527.489 69.408 527.98 69.408Z" fill="black"/>
<path d="M652.824 81H651.624C651.485 81 651.373 80.9653 651.288 80.896C651.203 80.8267 651.139 80.7387 651.096 80.632L650.024 77.864H644.88L643.808 80.632C643.771 80.728 643.707 80.8133 643.616 80.888C643.525 80.9627 643.413 81 643.28 81H642.08L646.664 69.536H648.24L652.824 81ZM645.312 76.744H649.592L647.792 72.08C647.675 71.792 647.56 71.432 647.448 71C647.389 71.2187 647.331 71.4213 647.272 71.608C647.219 71.7893 647.165 71.9493 647.112 72.088L645.312 76.744ZM654.163 81.168C654.088 81.3547 653.976 81.4933 653.827 81.584C653.683 81.6747 653.534 81.72 653.379 81.72H652.779L657.587 69.744C657.656 69.5733 657.755 69.4427 657.883 69.352C658.011 69.2613 658.163 69.216 658.339 69.216H658.939L654.163 81.168ZM664.926 79.872C665.235 79.872 665.518 79.8587 665.774 79.832C666.035 79.8 666.281 79.7547 666.51 79.696C666.739 79.6373 666.955 79.568 667.158 79.488C667.361 79.4027 667.563 79.3067 667.766 79.2V76.672H665.99C665.889 76.672 665.806 76.6427 665.742 76.584C665.683 76.5253 665.654 76.4533 665.654 76.368V75.488H669.174V79.888C668.886 80.096 668.585 80.2773 668.27 80.432C667.961 80.5867 667.627 80.7173 667.27 80.824C666.918 80.9253 666.539 81 666.134 81.048C665.729 81.1013 665.289 81.128 664.814 81.128C663.982 81.128 663.219 80.9867 662.526 80.704C661.833 80.416 661.235 80.016 660.734 79.504C660.233 78.9867 659.841 78.368 659.558 77.648C659.281 76.928 659.142 76.136 659.142 75.272C659.142 74.3973 659.278 73.6 659.55 72.88C659.827 72.16 660.219 71.544 660.726 71.032C661.238 70.5147 661.854 70.1147 662.574 69.832C663.299 69.5493 664.11 69.408 665.006 69.408C665.459 69.408 665.881 69.4427 666.27 69.512C666.659 69.576 667.019 69.672 667.35 69.8C667.686 69.9227 667.995 70.0747 668.278 70.256C668.561 70.432 668.825 70.632 669.07 70.856L668.63 71.56C668.539 71.704 668.422 71.776 668.278 71.776C668.193 71.776 668.099 71.7467 667.998 71.688C667.865 71.6133 667.715 71.5227 667.55 71.416C667.385 71.3093 667.182 71.208 666.942 71.112C666.707 71.0107 666.427 70.9253 666.102 70.856C665.782 70.7867 665.401 70.752 664.958 70.752C664.313 70.752 663.729 70.8587 663.206 71.072C662.683 71.28 662.238 71.5813 661.87 71.976C661.502 72.3653 661.219 72.84 661.022 73.4C660.825 73.9547 660.726 74.5787 660.726 75.272C660.726 75.9973 660.827 76.6453 661.03 77.216C661.238 77.7813 661.529 78.2613 661.902 78.656C662.275 79.0507 662.718 79.352 663.23 79.56C663.742 79.768 664.307 79.872 664.926 79.872ZM674.98 69.408C675.465 69.408 675.919 69.48 676.34 69.624C676.761 69.768 677.124 69.9787 677.428 70.256C677.737 70.528 677.98 70.8613 678.156 71.256C678.332 71.6507 678.42 72.0987 678.42 72.6C678.42 73.0267 678.356 73.4213 678.228 73.784C678.1 74.1467 677.927 74.496 677.708 74.832C677.489 75.1627 677.236 75.4853 676.948 75.8C676.665 76.1093 676.364 76.4267 676.044 76.752L673.028 79.84C673.241 79.7813 673.457 79.736 673.676 79.704C673.895 79.6667 674.105 79.648 674.308 79.648H678.148C678.303 79.648 678.425 79.6933 678.516 79.784C678.607 79.8747 678.652 79.992 678.652 80.136V81H671.004V80.512C671.004 80.4107 671.023 80.3067 671.06 80.2C671.103 80.0933 671.169 79.9947 671.26 79.904L674.932 76.216C675.236 75.9067 675.513 75.6107 675.764 75.328C676.015 75.04 676.228 74.752 676.404 74.464C676.585 74.176 676.724 73.8853 676.82 73.592C676.916 73.2933 676.964 72.976 676.964 72.64C676.964 72.304 676.911 72.0107 676.804 71.76C676.697 71.504 676.551 71.2933 676.364 71.128C676.177 70.9627 675.959 70.84 675.708 70.76C675.457 70.6747 675.188 70.632 674.9 70.632C674.612 70.632 674.345 70.6747 674.1 70.76C673.855 70.8453 673.636 70.9653 673.444 71.12C673.257 71.2693 673.097 71.448 672.964 71.656C672.836 71.864 672.745 72.0933 672.692 72.344C672.649 72.4987 672.585 72.6107 672.5 72.68C672.415 72.7493 672.303 72.784 672.164 72.784C672.137 72.784 672.108 72.784 672.076 72.784C672.049 72.7787 672.017 72.7733 671.98 72.768L671.236 72.64C671.311 72.1173 671.455 71.656 671.668 71.256C671.881 70.8507 672.151 70.512 672.476 70.24C672.807 69.968 673.183 69.7627 673.604 69.624C674.031 69.48 674.489 69.408 674.98 69.408Z" fill="black"/>
<rect x="14.5" y="64.5" width="21" height="21" rx="3.5" fill="white" stroke="#D8D8D8"/>
<rect y="100" width="977" height="50" fill="#F8F8F8"/>
<path d="M75.472 128.632C75.5573 128.632 75.6347 128.667 75.704 128.736L76.312 129.4C75.8427 129.944 75.272 130.368 74.6 130.672C73.9333 130.976 73.128 131.128 72.184 131.128C71.3573 131.128 70.608 130.987 69.936 130.704C69.264 130.416 68.6907 130.016 68.216 129.504C67.7413 128.987 67.3733 128.368 67.112 127.648C66.8507 126.928 66.72 126.136 66.72 125.272C66.72 124.408 66.8587 123.616 67.136 122.896C67.4187 122.176 67.8133 121.557 68.32 121.04C68.8267 120.523 69.432 120.123 70.136 119.84C70.8453 119.552 71.6267 119.408 72.48 119.408C73.3227 119.408 74.048 119.539 74.656 119.8C75.2693 120.061 75.8133 120.416 76.288 120.864L75.784 121.576C75.7467 121.629 75.704 121.675 75.656 121.712C75.608 121.744 75.5387 121.76 75.448 121.76C75.3787 121.76 75.304 121.736 75.224 121.688C75.1493 121.635 75.0587 121.571 74.952 121.496C74.8453 121.421 74.72 121.341 74.576 121.256C74.432 121.171 74.2613 121.091 74.064 121.016C73.8667 120.941 73.6373 120.88 73.376 120.832C73.1147 120.779 72.8133 120.752 72.472 120.752C71.8587 120.752 71.296 120.859 70.784 121.072C70.2773 121.28 69.84 121.579 69.472 121.968C69.104 122.357 68.816 122.832 68.608 123.392C68.4053 123.952 68.304 124.579 68.304 125.272C68.304 125.987 68.4053 126.624 68.608 127.184C68.816 127.744 69.096 128.219 69.448 128.608C69.8053 128.992 70.2267 129.285 70.712 129.488C71.1973 129.691 71.72 129.792 72.28 129.792C72.6213 129.792 72.928 129.773 73.2 129.736C73.472 129.693 73.7227 129.629 73.952 129.544C74.1867 129.459 74.4027 129.352 74.6 129.224C74.8027 129.091 75.0053 128.933 75.208 128.752C75.2987 128.672 75.3867 128.632 75.472 128.632ZM78.1211 131V119.216H79.5451V123.984C79.8918 123.616 80.2758 123.323 80.6971 123.104C81.1185 122.88 81.6038 122.768 82.1531 122.768C82.5958 122.768 82.9851 122.843 83.3211 122.992C83.6625 123.136 83.9451 123.344 84.1691 123.616C84.3985 123.883 84.5718 124.205 84.6891 124.584C84.8065 124.963 84.8651 125.381 84.8651 125.84V131H83.4411V125.84C83.4411 125.227 83.2998 124.752 83.0171 124.416C82.7398 124.075 82.3131 123.904 81.7371 123.904C81.3158 123.904 80.9211 124.005 80.5531 124.208C80.1905 124.411 79.8545 124.685 79.5451 125.032V131H78.1211ZM90.2198 122.768C90.7051 122.768 91.1531 122.851 91.5638 123.016C91.9744 123.176 92.3291 123.411 92.6278 123.72C92.9264 124.024 93.1584 124.403 93.3238 124.856C93.4944 125.304 93.5798 125.816 93.5798 126.392C93.5798 126.616 93.5558 126.765 93.5078 126.84C93.4598 126.915 93.3691 126.952 93.2358 126.952H87.8438C87.8544 127.464 87.9238 127.909 88.0518 128.288C88.1798 128.667 88.3558 128.984 88.5798 129.24C88.8038 129.491 89.0704 129.68 89.3798 129.808C89.6891 129.931 90.0358 129.992 90.4198 129.992C90.7771 129.992 91.0838 129.952 91.3398 129.872C91.6011 129.787 91.8251 129.696 92.0118 129.6C92.1984 129.504 92.3531 129.416 92.4758 129.336C92.6038 129.251 92.7131 129.208 92.8038 129.208C92.9211 129.208 93.0118 129.253 93.0758 129.344L93.4758 129.864C93.2998 130.077 93.0891 130.264 92.8438 130.424C92.5984 130.579 92.3344 130.707 92.0518 130.808C91.7744 130.909 91.4864 130.984 91.1878 131.032C90.8891 131.085 90.5931 131.112 90.2998 131.112C89.7398 131.112 89.2224 131.019 88.7478 130.832C88.2784 130.64 87.8704 130.363 87.5238 130C87.1824 129.632 86.9158 129.179 86.7238 128.64C86.5318 128.101 86.4358 127.483 86.4358 126.784C86.4358 126.219 86.5211 125.691 86.6918 125.2C86.8678 124.709 87.1184 124.285 87.4438 123.928C87.7691 123.565 88.1664 123.283 88.6358 123.08C89.1051 122.872 89.6331 122.768 90.2198 122.768ZM90.2517 123.816C89.5638 123.816 89.0224 124.016 88.6278 124.416C88.2331 124.811 87.9878 125.36 87.8918 126.064H92.2998C92.2998 125.733 92.2544 125.432 92.1638 125.16C92.0731 124.883 91.9398 124.645 91.7638 124.448C91.5878 124.245 91.3718 124.091 91.1158 123.984C90.8651 123.872 90.5771 123.816 90.2517 123.816ZM95.4024 131V122.896H96.2504C96.453 122.896 96.581 122.995 96.6344 123.192L96.7384 124.024C97.037 123.656 97.3704 123.355 97.7384 123.12C98.1117 122.885 98.5437 122.768 99.0344 122.768C99.5837 122.768 100.026 122.92 100.362 123.224C100.704 123.528 100.949 123.939 101.098 124.456C101.21 124.163 101.357 123.909 101.538 123.696C101.725 123.483 101.933 123.307 102.162 123.168C102.392 123.029 102.634 122.928 102.89 122.864C103.152 122.8 103.416 122.768 103.682 122.768C104.109 122.768 104.488 122.837 104.818 122.976C105.154 123.109 105.437 123.307 105.666 123.568C105.901 123.829 106.08 124.152 106.202 124.536C106.325 124.915 106.386 125.349 106.386 125.84V131H104.962V125.84C104.962 125.205 104.824 124.725 104.546 124.4C104.269 124.069 103.866 123.904 103.338 123.904C103.104 123.904 102.88 123.947 102.666 124.032C102.458 124.112 102.274 124.232 102.114 124.392C101.954 124.552 101.826 124.755 101.73 125C101.64 125.24 101.594 125.52 101.594 125.84V131H100.17V125.84C100.17 125.189 100.04 124.704 99.7784 124.384C99.517 124.064 99.1357 123.904 98.6344 123.904C98.2824 123.904 97.9544 124 97.6504 124.192C97.3517 124.379 97.077 124.635 96.8264 124.96V131H95.4024ZM110.127 122.896V131H108.703V122.896H110.127ZM110.447 120.352C110.447 120.491 110.418 120.621 110.359 120.744C110.306 120.861 110.231 120.968 110.135 121.064C110.044 121.155 109.938 121.227 109.815 121.28C109.692 121.333 109.562 121.36 109.423 121.36C109.284 121.36 109.154 121.333 109.031 121.28C108.914 121.227 108.807 121.155 108.711 121.064C108.62 120.968 108.548 120.861 108.495 120.744C108.442 120.621 108.415 120.491 108.415 120.352C108.415 120.213 108.442 120.083 108.495 119.96C108.548 119.832 108.62 119.723 108.711 119.632C108.807 119.536 108.914 119.461 109.031 119.408C109.154 119.355 109.284 119.328 109.423 119.328C109.562 119.328 109.692 119.355 109.815 119.408C109.938 119.461 110.044 119.536 110.135 119.632C110.231 119.723 110.306 119.832 110.359 119.96C110.418 120.083 110.447 120.213 110.447 120.352ZM117.277 124.232C117.213 124.349 117.114 124.408 116.981 124.408C116.901 124.408 116.81 124.379 116.709 124.32C116.607 124.261 116.482 124.197 116.333 124.128C116.189 124.053 116.015 123.987 115.813 123.928C115.61 123.864 115.37 123.832 115.093 123.832C114.853 123.832 114.637 123.864 114.445 123.928C114.253 123.987 114.087 124.069 113.949 124.176C113.815 124.283 113.711 124.408 113.637 124.552C113.567 124.691 113.533 124.843 113.533 125.008C113.533 125.216 113.591 125.389 113.709 125.528C113.831 125.667 113.991 125.787 114.189 125.888C114.386 125.989 114.61 126.08 114.861 126.16C115.111 126.235 115.367 126.317 115.629 126.408C115.895 126.493 116.154 126.589 116.405 126.696C116.655 126.803 116.879 126.936 117.077 127.096C117.274 127.256 117.431 127.453 117.549 127.688C117.671 127.917 117.733 128.195 117.733 128.52C117.733 128.893 117.666 129.24 117.533 129.56C117.399 129.875 117.202 130.149 116.941 130.384C116.679 130.613 116.359 130.795 115.981 130.928C115.602 131.061 115.165 131.128 114.669 131.128C114.103 131.128 113.591 131.037 113.133 130.856C112.674 130.669 112.285 130.432 111.965 130.144L112.301 129.6C112.343 129.531 112.394 129.477 112.453 129.44C112.511 129.403 112.589 129.384 112.685 129.384C112.781 129.384 112.882 129.421 112.989 129.496C113.095 129.571 113.223 129.653 113.373 129.744C113.527 129.835 113.711 129.917 113.925 129.992C114.143 130.067 114.415 130.104 114.741 130.104C115.018 130.104 115.261 130.069 115.469 130C115.677 129.925 115.85 129.827 115.989 129.704C116.127 129.581 116.229 129.44 116.293 129.28C116.362 129.12 116.397 128.949 116.397 128.768C116.397 128.544 116.335 128.36 116.213 128.216C116.095 128.067 115.938 127.941 115.741 127.84C115.543 127.733 115.317 127.643 115.061 127.568C114.81 127.488 114.551 127.405 114.285 127.32C114.023 127.235 113.765 127.139 113.509 127.032C113.258 126.92 113.034 126.781 112.837 126.616C112.639 126.451 112.479 126.248 112.357 126.008C112.239 125.763 112.181 125.467 112.181 125.12C112.181 124.811 112.245 124.515 112.373 124.232C112.501 123.944 112.687 123.693 112.933 123.48C113.178 123.261 113.479 123.088 113.837 122.96C114.194 122.832 114.602 122.768 115.061 122.768C115.594 122.768 116.071 122.853 116.493 123.024C116.919 123.189 117.287 123.419 117.597 123.712L117.277 124.232ZM122.03 131.128C121.39 131.128 120.897 130.949 120.55 130.592C120.209 130.235 120.038 129.72 120.038 129.048V124.088H119.062C118.977 124.088 118.905 124.064 118.846 124.016C118.788 123.963 118.758 123.883 118.758 123.776V123.208L120.086 123.04L120.414 120.536C120.425 120.456 120.46 120.392 120.518 120.344C120.577 120.291 120.652 120.264 120.742 120.264H121.462V123.056H123.782V124.088H121.462V128.952C121.462 129.293 121.545 129.547 121.71 129.712C121.876 129.877 122.089 129.96 122.35 129.96C122.5 129.96 122.628 129.941 122.734 129.904C122.846 129.861 122.942 129.816 123.022 129.768C123.102 129.72 123.169 129.677 123.222 129.64C123.281 129.597 123.332 129.576 123.374 129.576C123.449 129.576 123.516 129.621 123.574 129.712L123.99 130.392C123.745 130.621 123.449 130.803 123.102 130.936C122.756 131.064 122.398 131.128 122.03 131.128ZM125.543 131V122.896H126.359C126.514 122.896 126.62 122.925 126.679 122.984C126.738 123.043 126.778 123.144 126.799 123.288L126.895 124.552C127.172 123.987 127.514 123.547 127.919 123.232C128.33 122.912 128.81 122.752 129.359 122.752C129.583 122.752 129.786 122.779 129.967 122.832C130.148 122.88 130.316 122.949 130.471 123.04L130.287 124.104C130.25 124.237 130.167 124.304 130.039 124.304C129.964 124.304 129.85 124.28 129.695 124.232C129.54 124.179 129.324 124.152 129.047 124.152C128.551 124.152 128.135 124.296 127.799 124.584C127.468 124.872 127.191 125.291 126.967 125.84V131H125.543ZM134.372 133.392C134.324 133.499 134.263 133.584 134.188 133.648C134.119 133.712 134.009 133.744 133.86 133.744H132.804L134.284 130.528L130.94 122.896H132.172C132.295 122.896 132.391 122.928 132.46 122.992C132.529 123.051 132.58 123.117 132.612 123.192L134.78 128.296C134.828 128.413 134.868 128.531 134.9 128.648C134.937 128.765 134.969 128.885 134.996 129.008C135.033 128.885 135.071 128.765 135.108 128.648C135.145 128.531 135.188 128.411 135.236 128.288L137.34 123.192C137.372 123.107 137.425 123.037 137.5 122.984C137.58 122.925 137.665 122.896 137.756 122.896H138.892L134.372 133.392Z" fill="black"/>
<path d="M318.688 131H317.128V125.784H310.952V131H309.392V119.536H310.952V124.648H317.128V119.536H318.688V131ZM324.47 122.768C324.955 122.768 325.403 122.851 325.814 123.016C326.224 123.176 326.579 123.411 326.878 123.72C327.176 124.024 327.408 124.403 327.574 124.856C327.744 125.304 327.83 125.816 327.83 126.392C327.83 126.616 327.806 126.765 327.758 126.84C327.71 126.915 327.619 126.952 327.486 126.952H322.094C322.104 127.464 322.174 127.909 322.302 128.288C322.43 128.667 322.606 128.984 322.83 129.24C323.054 129.491 323.32 129.68 323.63 129.808C323.939 129.931 324.286 129.992 324.67 129.992C325.027 129.992 325.334 129.952 325.59 129.872C325.851 129.787 326.075 129.696 326.262 129.6C326.448 129.504 326.603 129.416 326.726 129.336C326.854 129.251 326.963 129.208 327.054 129.208C327.171 129.208 327.262 129.253 327.326 129.344L327.726 129.864C327.55 130.077 327.339 130.264 327.094 130.424C326.848 130.579 326.584 130.707 326.302 130.808C326.024 130.909 325.736 130.984 325.438 131.032C325.139 131.085 324.843 131.112 324.55 131.112C323.99 131.112 323.472 131.019 322.998 130.832C322.528 130.64 322.12 130.363 321.774 130C321.432 129.632 321.166 129.179 320.974 128.64C320.782 128.101 320.686 127.483 320.686 126.784C320.686 126.219 320.771 125.691 320.942 125.2C321.118 124.709 321.368 124.285 321.694 123.928C322.019 123.565 322.416 123.283 322.886 123.08C323.355 122.872 323.883 122.768 324.47 122.768ZM324.502 123.816C323.814 123.816 323.272 124.016 322.878 124.416C322.483 124.811 322.238 125.36 322.142 126.064H326.55C326.55 125.733 326.504 125.432 326.414 125.16C326.323 124.883 326.19 124.645 326.014 124.448C325.838 124.245 325.622 124.091 325.366 123.984C325.115 123.872 324.827 123.816 324.502 123.816ZM329.652 131V122.896H330.5C330.703 122.896 330.831 122.995 330.884 123.192L330.988 124.024C331.287 123.656 331.62 123.355 331.988 123.12C332.362 122.885 332.794 122.768 333.284 122.768C333.834 122.768 334.276 122.92 334.612 123.224C334.954 123.528 335.199 123.939 335.348 124.456C335.46 124.163 335.607 123.909 335.788 123.696C335.975 123.483 336.183 123.307 336.412 123.168C336.642 123.029 336.884 122.928 337.14 122.864C337.402 122.8 337.666 122.768 337.932 122.768C338.359 122.768 338.738 122.837 339.068 122.976C339.404 123.109 339.687 123.307 339.916 123.568C340.151 123.829 340.33 124.152 340.452 124.536C340.575 124.915 340.636 125.349 340.636 125.84V131H339.212V125.84C339.212 125.205 339.074 124.725 338.796 124.4C338.519 124.069 338.116 123.904 337.588 123.904C337.354 123.904 337.13 123.947 336.916 124.032C336.708 124.112 336.524 124.232 336.364 124.392C336.204 124.552 336.076 124.755 335.98 125C335.89 125.24 335.844 125.52 335.844 125.84V131H334.42V125.84C334.42 125.189 334.29 124.704 334.028 124.384C333.767 124.064 333.386 123.904 332.884 123.904C332.532 123.904 332.204 124 331.9 124.192C331.602 124.379 331.327 124.635 331.076 124.96V131H329.652ZM348.745 131H348.113C347.974 131 347.862 130.979 347.777 130.936C347.692 130.893 347.636 130.803 347.609 130.664L347.449 129.912C347.236 130.104 347.028 130.277 346.825 130.432C346.622 130.581 346.409 130.709 346.185 130.816C345.961 130.917 345.721 130.995 345.465 131.048C345.214 131.101 344.934 131.128 344.625 131.128C344.31 131.128 344.014 131.085 343.737 131C343.465 130.909 343.228 130.776 343.025 130.6C342.822 130.424 342.66 130.203 342.537 129.936C342.42 129.664 342.361 129.344 342.361 128.976C342.361 128.656 342.449 128.349 342.625 128.056C342.801 127.757 343.084 127.493 343.473 127.264C343.868 127.035 344.382 126.848 345.017 126.704C345.652 126.555 346.428 126.469 347.345 126.448V125.816C347.345 125.187 347.209 124.712 346.937 124.392C346.67 124.067 346.273 123.904 345.745 123.904C345.398 123.904 345.105 123.949 344.865 124.04C344.63 124.125 344.425 124.224 344.249 124.336C344.078 124.443 343.929 124.541 343.801 124.632C343.678 124.717 343.556 124.76 343.433 124.76C343.337 124.76 343.252 124.736 343.177 124.688C343.108 124.635 343.052 124.571 343.009 124.496L342.753 124.04C343.201 123.608 343.684 123.285 344.201 123.072C344.718 122.859 345.292 122.752 345.921 122.752C346.374 122.752 346.777 122.827 347.129 122.976C347.481 123.125 347.777 123.333 348.017 123.6C348.257 123.867 348.438 124.189 348.561 124.568C348.684 124.947 348.745 125.363 348.745 125.816V131ZM345.049 130.128C345.3 130.128 345.529 130.104 345.737 130.056C345.945 130.003 346.14 129.931 346.321 129.84C346.508 129.744 346.684 129.629 346.849 129.496C347.02 129.363 347.185 129.211 347.345 129.04V127.352C346.689 127.373 346.132 127.427 345.673 127.512C345.214 127.592 344.841 127.699 344.553 127.832C344.265 127.965 344.054 128.123 343.921 128.304C343.793 128.485 343.729 128.688 343.729 128.912C343.729 129.125 343.764 129.309 343.833 129.464C343.902 129.619 343.996 129.747 344.113 129.848C344.23 129.944 344.369 130.016 344.529 130.064C344.689 130.107 344.862 130.128 345.049 130.128ZM353.358 131.128C352.718 131.128 352.225 130.949 351.878 130.592C351.537 130.235 351.366 129.72 351.366 129.048V124.088H350.39C350.305 124.088 350.233 124.064 350.174 124.016C350.116 123.963 350.086 123.883 350.086 123.776V123.208L351.414 123.04L351.742 120.536C351.753 120.456 351.788 120.392 351.846 120.344C351.905 120.291 351.98 120.264 352.07 120.264H352.79V123.056H355.11V124.088H352.79V128.952C352.79 129.293 352.873 129.547 353.038 129.712C353.204 129.877 353.417 129.96 353.678 129.96C353.828 129.96 353.956 129.941 354.062 129.904C354.174 129.861 354.27 129.816 354.35 129.768C354.43 129.72 354.497 129.677 354.55 129.64C354.609 129.597 354.66 129.576 354.702 129.576C354.777 129.576 354.844 129.621 354.902 129.712L355.318 130.392C355.073 130.621 354.777 130.803 354.43 130.936C354.084 131.064 353.726 131.128 353.358 131.128ZM360.151 122.768C360.743 122.768 361.276 122.867 361.751 123.064C362.231 123.261 362.636 123.541 362.967 123.904C363.303 124.267 363.559 124.707 363.735 125.224C363.916 125.736 364.007 126.309 364.007 126.944C364.007 127.584 363.916 128.16 363.735 128.672C363.559 129.184 363.303 129.621 362.967 129.984C362.636 130.347 362.231 130.627 361.751 130.824C361.276 131.016 360.743 131.112 360.151 131.112C359.559 131.112 359.023 131.016 358.543 130.824C358.068 130.627 357.663 130.347 357.327 129.984C356.991 129.621 356.732 129.184 356.551 128.672C356.37 128.16 356.279 127.584 356.279 126.944C356.279 126.309 356.37 125.736 356.551 125.224C356.732 124.707 356.991 124.267 357.327 123.904C357.663 123.541 358.068 123.261 358.543 123.064C359.023 122.867 359.559 122.768 360.151 122.768ZM360.151 130C360.951 130 361.548 129.733 361.943 129.2C362.338 128.661 362.535 127.912 362.535 126.952C362.535 125.987 362.338 125.235 361.943 124.696C361.548 124.157 360.951 123.888 360.151 123.888C359.746 123.888 359.394 123.957 359.095 124.096C358.796 124.235 358.546 124.435 358.343 124.696C358.146 124.957 357.996 125.28 357.895 125.664C357.799 126.043 357.751 126.472 357.751 126.952C357.751 127.432 357.799 127.861 357.895 128.24C357.996 128.619 358.146 128.939 358.343 129.2C358.546 129.456 358.796 129.653 359.095 129.792C359.394 129.931 359.746 130 360.151 130ZM367.346 119.216V131H365.922V119.216H367.346ZM373.136 122.768C373.728 122.768 374.261 122.867 374.736 123.064C375.216 123.261 375.621 123.541 375.952 123.904C376.288 124.267 376.544 124.707 376.72 125.224C376.901 125.736 376.992 126.309 376.992 126.944C376.992 127.584 376.901 128.16 376.72 128.672C376.544 129.184 376.288 129.621 375.952 129.984C375.621 130.347 375.216 130.627 374.736 130.824C374.261 131.016 373.728 131.112 373.136 131.112C372.544 131.112 372.008 131.016 371.528 130.824C371.053 130.627 370.648 130.347 370.312 129.984C369.976 129.621 369.717 129.184 369.536 128.672C369.354 128.16 369.264 127.584 369.264 126.944C369.264 126.309 369.354 125.736 369.536 125.224C369.717 124.707 369.976 124.267 370.312 123.904C370.648 123.541 371.053 123.261 371.528 123.064C372.008 122.867 372.544 122.768 373.136 122.768ZM373.136 130C373.936 130 374.533 129.733 374.928 129.2C375.322 128.661 375.52 127.912 375.52 126.952C375.52 125.987 375.322 125.235 374.928 124.696C374.533 124.157 373.936 123.888 373.136 123.888C372.73 123.888 372.378 123.957 372.08 124.096C371.781 124.235 371.53 124.435 371.328 124.696C371.13 124.957 370.981 125.28 370.88 125.664C370.784 126.043 370.736 126.472 370.736 126.952C370.736 127.432 370.784 127.861 370.88 128.24C370.981 128.619 371.13 128.939 371.328 129.2C371.53 129.456 371.781 129.653 372.08 129.792C372.378 129.931 372.73 130 373.136 130ZM381.474 122.76C381.826 122.76 382.154 122.8 382.458 122.88C382.767 122.955 383.047 123.067 383.298 123.216H385.498V123.744C385.498 123.92 385.386 124.032 385.162 124.08L384.242 124.208C384.423 124.555 384.514 124.941 384.514 125.368C384.514 125.763 384.437 126.123 384.282 126.448C384.133 126.768 383.922 127.043 383.65 127.272C383.383 127.501 383.063 127.677 382.69 127.8C382.322 127.923 381.917 127.984 381.474 127.984C381.095 127.984 380.738 127.939 380.402 127.848C380.231 127.955 380.101 128.069 380.01 128.192C379.925 128.315 379.882 128.435 379.882 128.552C379.882 128.744 379.959 128.891 380.114 128.992C380.269 129.088 380.474 129.157 380.73 129.2C380.986 129.243 381.277 129.269 381.602 129.28C381.927 129.291 382.258 129.309 382.594 129.336C382.935 129.357 383.269 129.397 383.594 129.456C383.919 129.515 384.21 129.611 384.466 129.744C384.722 129.877 384.927 130.061 385.082 130.296C385.237 130.531 385.314 130.835 385.314 131.208C385.314 131.555 385.226 131.891 385.05 132.216C384.879 132.541 384.631 132.829 384.306 133.08C383.981 133.336 383.583 133.539 383.114 133.688C382.645 133.843 382.114 133.92 381.522 133.92C380.93 133.92 380.41 133.861 379.962 133.744C379.519 133.627 379.151 133.469 378.858 133.272C378.565 133.075 378.343 132.845 378.194 132.584C378.05 132.328 377.978 132.059 377.978 131.776C377.978 131.376 378.103 131.037 378.354 130.76C378.61 130.477 378.959 130.253 379.402 130.088C379.173 129.981 378.989 129.84 378.85 129.664C378.717 129.483 378.65 129.243 378.65 128.944C378.65 128.827 378.671 128.707 378.714 128.584C378.757 128.456 378.821 128.331 378.906 128.208C378.997 128.085 379.106 127.968 379.234 127.856C379.362 127.744 379.511 127.645 379.682 127.56C379.282 127.336 378.967 127.04 378.738 126.672C378.514 126.299 378.402 125.864 378.402 125.368C378.402 124.973 378.477 124.616 378.626 124.296C378.781 123.971 378.994 123.696 379.266 123.472C379.538 123.243 379.861 123.067 380.234 122.944C380.613 122.821 381.026 122.76 381.474 122.76ZM384.002 131.44C384.002 131.237 383.946 131.075 383.834 130.952C383.722 130.829 383.57 130.736 383.378 130.672C383.186 130.603 382.965 130.552 382.714 130.52C382.463 130.488 382.199 130.467 381.922 130.456C381.645 130.44 381.362 130.424 381.074 130.408C380.786 130.392 380.511 130.363 380.25 130.32C379.946 130.464 379.698 130.64 379.506 130.848C379.319 131.056 379.226 131.304 379.226 131.592C379.226 131.773 379.271 131.941 379.362 132.096C379.458 132.256 379.602 132.392 379.794 132.504C379.986 132.621 380.226 132.712 380.514 132.776C380.807 132.845 381.151 132.88 381.546 132.88C381.93 132.88 382.274 132.845 382.578 132.776C382.882 132.707 383.138 132.608 383.346 132.48C383.559 132.352 383.722 132.2 383.834 132.024C383.946 131.848 384.002 131.653 384.002 131.44ZM381.474 127.04C381.762 127.04 382.015 127 382.234 126.92C382.458 126.84 382.645 126.728 382.794 126.584C382.943 126.44 383.055 126.269 383.13 126.072C383.205 125.869 383.242 125.648 383.242 125.408C383.242 124.912 383.09 124.517 382.786 124.224C382.487 123.931 382.05 123.784 381.474 123.784C380.903 123.784 380.466 123.931 380.162 124.224C379.863 124.517 379.714 124.912 379.714 125.408C379.714 125.648 379.751 125.869 379.826 126.072C379.906 126.269 380.021 126.44 380.17 126.584C380.319 126.728 380.503 126.84 380.722 126.92C380.941 127 381.191 127.04 381.474 127.04ZM389.294 133.392C389.246 133.499 389.185 133.584 389.11 133.648C389.041 133.712 388.931 133.744 388.782 133.744H387.726L389.206 130.528L385.862 122.896H387.094C387.217 122.896 387.313 122.928 387.382 122.992C387.451 123.051 387.502 123.117 387.534 123.192L389.702 128.296C389.75 128.413 389.79 128.531 389.822 128.648C389.859 128.765 389.891 128.885 389.918 129.008C389.955 128.885 389.993 128.765 390.03 128.648C390.067 128.531 390.11 128.411 390.158 128.288L392.262 123.192C392.294 123.107 392.347 123.037 392.422 122.984C392.502 122.925 392.587 122.896 392.678 122.896H393.814L389.294 133.392Z" fill="black"/>
<path d="M505.824 131H504.624C504.485 131 504.373 130.965 504.288 130.896C504.203 130.827 504.139 130.739 504.096 130.632L503.024 127.864H497.88L496.808 130.632C496.771 130.728 496.707 130.813 496.616 130.888C496.525 130.963 496.413 131 496.28 131H495.08L499.664 119.536H501.24L505.824 131ZM498.312 126.744H502.592L500.792 122.08C500.675 121.792 500.56 121.432 500.448 121C500.389 121.219 500.331 121.421 500.272 121.608C500.219 121.789 500.165 121.949 500.112 122.088L498.312 126.744ZM507.163 131.168C507.088 131.355 506.976 131.493 506.827 131.584C506.683 131.675 506.534 131.72 506.379 131.72H505.779L510.587 119.744C510.656 119.573 510.755 119.443 510.883 119.352C511.011 119.261 511.163 119.216 511.339 119.216H511.939L507.163 131.168ZM517.926 129.872C518.235 129.872 518.518 129.859 518.774 129.832C519.035 129.8 519.281 129.755 519.51 129.696C519.739 129.637 519.955 129.568 520.158 129.488C520.361 129.403 520.563 129.307 520.766 129.2V126.672H518.99C518.889 126.672 518.806 126.643 518.742 126.584C518.683 126.525 518.654 126.453 518.654 126.368V125.488H522.174V129.888C521.886 130.096 521.585 130.277 521.27 130.432C520.961 130.587 520.627 130.717 520.27 130.824C519.918 130.925 519.539 131 519.134 131.048C518.729 131.101 518.289 131.128 517.814 131.128C516.982 131.128 516.219 130.987 515.526 130.704C514.833 130.416 514.235 130.016 513.734 129.504C513.233 128.987 512.841 128.368 512.558 127.648C512.281 126.928 512.142 126.136 512.142 125.272C512.142 124.397 512.278 123.6 512.55 122.88C512.827 122.16 513.219 121.544 513.726 121.032C514.238 120.515 514.854 120.115 515.574 119.832C516.299 119.549 517.11 119.408 518.006 119.408C518.459 119.408 518.881 119.443 519.27 119.512C519.659 119.576 520.019 119.672 520.35 119.8C520.686 119.923 520.995 120.075 521.278 120.256C521.561 120.432 521.825 120.632 522.07 120.856L521.63 121.56C521.539 121.704 521.422 121.776 521.278 121.776C521.193 121.776 521.099 121.747 520.998 121.688C520.865 121.613 520.715 121.523 520.55 121.416C520.385 121.309 520.182 121.208 519.942 121.112C519.707 121.011 519.427 120.925 519.102 120.856C518.782 120.787 518.401 120.752 517.958 120.752C517.313 120.752 516.729 120.859 516.206 121.072C515.683 121.28 515.238 121.581 514.87 121.976C514.502 122.365 514.219 122.84 514.022 123.4C513.825 123.955 513.726 124.579 513.726 125.272C513.726 125.997 513.827 126.645 514.03 127.216C514.238 127.781 514.529 128.261 514.902 128.656C515.275 129.051 515.718 129.352 516.23 129.56C516.742 129.768 517.307 129.872 517.926 129.872ZM527.98 119.408C528.465 119.408 528.919 119.48 529.34 119.624C529.761 119.768 530.124 119.979 530.428 120.256C530.737 120.528 530.98 120.861 531.156 121.256C531.332 121.651 531.42 122.099 531.42 122.6C531.42 123.027 531.356 123.421 531.228 123.784C531.1 124.147 530.927 124.496 530.708 124.832C530.489 125.163 530.236 125.485 529.948 125.8C529.665 126.109 529.364 126.427 529.044 126.752L526.028 129.84C526.241 129.781 526.457 129.736 526.676 129.704C526.895 129.667 527.105 129.648 527.308 129.648H531.148C531.303 129.648 531.425 129.693 531.516 129.784C531.607 129.875 531.652 129.992 531.652 130.136V131H524.004V130.512C524.004 130.411 524.023 130.307 524.06 130.2C524.103 130.093 524.169 129.995 524.26 129.904L527.932 126.216C528.236 125.907 528.513 125.611 528.764 125.328C529.015 125.04 529.228 124.752 529.404 124.464C529.585 124.176 529.724 123.885 529.82 123.592C529.916 123.293 529.964 122.976 529.964 122.64C529.964 122.304 529.911 122.011 529.804 121.76C529.697 121.504 529.551 121.293 529.364 121.128C529.177 120.963 528.959 120.84 528.708 120.76C528.457 120.675 528.188 120.632 527.9 120.632C527.612 120.632 527.345 120.675 527.1 120.76C526.855 120.845 526.636 120.965 526.444 121.12C526.257 121.269 526.097 121.448 525.964 121.656C525.836 121.864 525.745 122.093 525.692 122.344C525.649 122.499 525.585 122.611 525.5 122.68C525.415 122.749 525.303 122.784 525.164 122.784C525.137 122.784 525.108 122.784 525.076 122.784C525.049 122.779 525.017 122.773 524.98 122.768L524.236 122.64C524.311 122.117 524.455 121.656 524.668 121.256C524.881 120.851 525.151 120.512 525.476 120.24C525.807 119.968 526.183 119.763 526.604 119.624C527.031 119.48 527.489 119.408 527.98 119.408Z" fill="black"/>
<path d="M652.824 131H651.624C651.485 131 651.373 130.965 651.288 130.896C651.203 130.827 651.139 130.739 651.096 130.632L650.024 127.864H644.88L643.808 130.632C643.771 130.728 643.707 130.813 643.616 130.888C643.525 130.963 643.413 131 643.28 131H642.08L646.664 119.536H648.24L652.824 131ZM645.312 126.744H649.592L647.792 122.08C647.675 121.792 647.56 121.432 647.448 121C647.389 121.219 647.331 121.421 647.272 121.608C647.219 121.789 647.165 121.949 647.112 122.088L645.312 126.744ZM654.163 131.168C654.088 131.355 653.976 131.493 653.827 131.584C653.683 131.675 653.534 131.72 653.379 131.72H652.779L657.587 119.744C657.656 119.573 657.755 119.443 657.883 119.352C658.011 119.261 658.163 119.216 658.339 119.216H658.939L654.163 131.168ZM664.926 129.872C665.235 129.872 665.518 129.859 665.774 129.832C666.035 129.8 666.281 129.755 666.51 129.696C666.739 129.637 666.955 129.568 667.158 129.488C667.361 129.403 667.563 129.307 667.766 129.2V126.672H665.99C665.889 126.672 665.806 126.643 665.742 126.584C665.683 126.525 665.654 126.453 665.654 126.368V125.488H669.174V129.888C668.886 130.096 668.585 130.277 668.27 130.432C667.961 130.587 667.627 130.717 667.27 130.824C666.918 130.925 666.539 131 666.134 131.048C665.729 131.101 665.289 131.128 664.814 131.128C663.982 131.128 663.219 130.987 662.526 130.704C661.833 130.416 661.235 130.016 660.734 129.504C660.233 128.987 659.841 128.368 659.558 127.648C659.281 126.928 659.142 126.136 659.142 125.272C659.142 124.397 659.278 123.6 659.55 122.88C659.827 122.16 660.219 121.544 660.726 121.032C661.238 120.515 661.854 120.115 662.574 119.832C663.299 119.549 664.11 119.408 665.006 119.408C665.459 119.408 665.881 119.443 666.27 119.512C666.659 119.576 667.019 119.672 667.35 119.8C667.686 119.923 667.995 120.075 668.278 120.256C668.561 120.432 668.825 120.632 669.07 120.856L668.63 121.56C668.539 121.704 668.422 121.776 668.278 121.776C668.193 121.776 668.099 121.747 667.998 121.688C667.865 121.613 667.715 121.523 667.55 121.416C667.385 121.309 667.182 121.208 666.942 121.112C666.707 121.011 666.427 120.925 666.102 120.856C665.782 120.787 665.401 120.752 664.958 120.752C664.313 120.752 663.729 120.859 663.206 121.072C662.683 121.28 662.238 121.581 661.87 121.976C661.502 122.365 661.219 122.84 661.022 123.4C660.825 123.955 660.726 124.579 660.726 125.272C660.726 125.997 660.827 126.645 661.03 127.216C661.238 127.781 661.529 128.261 661.902 128.656C662.275 129.051 662.718 129.352 663.23 129.56C663.742 129.768 664.307 129.872 664.926 129.872ZM674.98 119.408C675.465 119.408 675.919 119.48 676.34 119.624C676.761 119.768 677.124 119.979 677.428 120.256C677.737 120.528 677.98 120.861 678.156 121.256C678.332 121.651 678.42 122.099 678.42 122.6C678.42 123.027 678.356 123.421 678.228 123.784C678.1 124.147 677.927 124.496 677.708 124.832C677.489 125.163 677.236 125.485 676.948 125.8C676.665 126.109 676.364 126.427 676.044 126.752L673.028 129.84C673.241 129.781 673.457 129.736 673.676 129.704C673.895 129.667 674.105 129.648 674.308 129.648H678.148C678.303 129.648 678.425 129.693 678.516 129.784C678.607 129.875 678.652 129.992 678.652 130.136V131H671.004V130.512C671.004 130.411 671.023 130.307 671.06 130.2C671.103 130.093 671.169 129.995 671.26 129.904L674.932 126.216C675.236 125.907 675.513 125.611 675.764 125.328C676.015 125.04 676.228 124.752 676.404 124.464C676.585 124.176 676.724 123.885 676.82 123.592C676.916 123.293 676.964 122.976 676.964 122.64C676.964 122.304 676.911 122.011 676.804 121.76C676.697 121.504 676.551 121.293 676.364 121.128C676.177 120.963 675.959 120.84 675.708 120.76C675.457 120.675 675.188 120.632 674.9 120.632C674.612 120.632 674.345 120.675 674.1 120.76C673.855 120.845 673.636 120.965 673.444 121.12C673.257 121.269 673.097 121.448 672.964 121.656C672.836 121.864 672.745 122.093 672.692 122.344C672.649 122.499 672.585 122.611 672.5 122.68C672.415 122.749 672.303 122.784 672.164 122.784C672.137 122.784 672.108 122.784 672.076 122.784C672.049 122.779 672.017 122.773 671.98 122.768L671.236 122.64C671.311 122.117 671.455 121.656 671.668 121.256C671.881 120.851 672.151 120.512 672.476 120.24C672.807 119.968 673.183 119.763 673.604 119.624C674.031 119.48 674.489 119.408 674.98 119.408Z" fill="black"/>
<rect x="14.5" y="114.5" width="21" height="21" rx="3.5" fill="white" stroke="#D8D8D8"/>
</svg>
