<svg width="335" height="58" viewBox="0 0 335 58" fill="none" xmlns="http://www.w3.org/2000/svg">
<rect x="1" y="26" width="334" height="8" fill="#E5E5E5"/>
<rect x="1" y="26" width="157" height="8" fill="#0064D1"/>
<path d="M10.824 16H9.624C9.48533 16 9.37333 15.9653 9.288 15.896C9.20267 15.8267 9.13867 15.7387 9.096 15.632L8.024 12.864H2.88L1.808 15.632C1.77067 15.728 1.70667 15.8133 1.616 15.888C1.52533 15.9627 1.41333 16 1.28 16H0.08L4.664 4.536H6.24L10.824 16ZM3.312 11.744H7.592L5.792 7.08C5.67467 6.792 5.56 6.432 5.448 6C5.38933 6.21867 5.33067 6.42133 5.272 6.608C5.21867 6.78933 5.16533 6.94933 5.112 7.088L3.312 11.744ZM17.571 9.336C17.5283 9.39467 17.4857 9.44 17.443 9.472C17.4003 9.504 17.339 9.52 17.259 9.52C17.179 9.52 17.091 9.488 16.995 9.424C16.9043 9.35467 16.787 9.28 16.643 9.2C16.499 9.12 16.323 9.048 16.115 8.984C15.9123 8.91467 15.6617 8.88 15.363 8.88C14.9683 8.88 14.619 8.952 14.315 9.096C14.011 9.23467 13.755 9.43733 13.547 9.704C13.3443 9.97067 13.1897 10.2933 13.083 10.672C12.9817 11.0507 12.931 11.4747 12.931 11.944C12.931 12.4347 12.987 12.872 13.099 13.256C13.211 13.6347 13.3683 13.9547 13.571 14.216C13.7737 14.472 14.019 14.6693 14.307 14.808C14.6003 14.9413 14.9283 15.008 15.291 15.008C15.6377 15.008 15.923 14.968 16.147 14.888C16.371 14.8027 16.5577 14.7093 16.707 14.608C16.8563 14.5067 16.979 14.416 17.075 14.336C17.171 14.2507 17.267 14.208 17.363 14.208C17.4857 14.208 17.5763 14.2533 17.635 14.344L18.035 14.864C17.683 15.296 17.243 15.6133 16.715 15.816C16.187 16.0133 15.6297 16.112 15.043 16.112C14.5363 16.112 14.0643 16.0187 13.627 15.832C13.195 15.6453 12.819 15.376 12.499 15.024C12.179 14.6667 11.9257 14.2293 11.739 13.712C11.5577 13.1947 11.467 12.6053 11.467 11.944C11.467 11.3413 11.5497 10.784 11.715 10.272C11.8857 9.76 12.131 9.32 12.451 8.952C12.7763 8.57867 13.1763 8.288 13.651 8.08C14.1257 7.872 14.6697 7.768 15.283 7.768C15.8483 7.768 16.3497 7.86133 16.787 8.048C17.2243 8.22933 17.611 8.488 17.947 8.824L17.571 9.336ZM21.9678 16.128C21.3278 16.128 20.8344 15.9493 20.4878 15.592C20.1464 15.2347 19.9758 14.72 19.9758 14.048V9.088H18.9998C18.9144 9.088 18.8424 9.064 18.7838 9.016C18.7251 8.96267 18.6958 8.88267 18.6958 8.776V8.208L20.0238 8.04L20.3518 5.536C20.3624 5.456 20.3971 5.392 20.4557 5.344C20.5144 5.29067 20.5891 5.264 20.6798 5.264H21.3998V8.056H23.7198V9.088H21.3998V13.952C21.3998 14.2933 21.4824 14.5467 21.6478 14.712C21.8131 14.8773 22.0264 14.96 22.2878 14.96C22.4371 14.96 22.5651 14.9413 22.6718 14.904C22.7838 14.8613 22.8798 14.816 22.9598 14.768C23.0398 14.72 23.1064 14.6773 23.1598 14.64C23.2184 14.5973 23.2691 14.576 23.3118 14.576C23.3864 14.576 23.4531 14.6213 23.5118 14.712L23.9278 15.392C23.6824 15.6213 23.3864 15.8027 23.0398 15.936C22.6931 16.064 22.3358 16.128 21.9678 16.128ZM27.0645 7.896V16H25.6405V7.896H27.0645ZM27.3845 5.352C27.3845 5.49067 27.3552 5.62133 27.2965 5.744C27.2432 5.86133 27.1685 5.968 27.0725 6.064C26.9818 6.15467 26.8752 6.22667 26.7525 6.28C26.6298 6.33333 26.4992 6.36 26.3605 6.36C26.2218 6.36 26.0912 6.33333 25.9685 6.28C25.8512 6.22667 25.7445 6.15467 25.6485 6.064C25.5578 5.968 25.4858 5.86133 25.4325 5.744C25.3792 5.62133 25.3525 5.49067 25.3525 5.352C25.3525 5.21333 25.3792 5.08267 25.4325 4.96C25.4858 4.832 25.5578 4.72267 25.6485 4.632C25.7445 4.536 25.8512 4.46133 25.9685 4.408C26.0912 4.35467 26.2218 4.328 26.3605 4.328C26.4992 4.328 26.6298 4.35467 26.7525 4.408C26.8752 4.46133 26.9818 4.536 27.0725 4.632C27.1685 4.72267 27.2432 4.832 27.2965 4.96C27.3552 5.08267 27.3845 5.21333 27.3845 5.352ZM28.5503 7.896H29.7183C29.8303 7.896 29.9236 7.92533 29.9983 7.984C30.0729 8.04267 30.1263 8.112 30.1583 8.192L32.2143 13.408C32.2889 13.6 32.3476 13.792 32.3903 13.984C32.4329 14.176 32.4729 14.3653 32.5103 14.552C32.5529 14.3653 32.5983 14.176 32.6463 13.984C32.6943 13.792 32.7556 13.6 32.8303 13.408L34.9103 8.192C34.9423 8.10667 34.9929 8.03733 35.0623 7.984C35.1369 7.92533 35.2276 7.896 35.3343 7.896H36.4462L33.1423 16H31.8543L28.5503 7.896ZM40.7666 7.768C41.252 7.768 41.7 7.85067 42.1106 8.016C42.5213 8.176 42.876 8.41067 43.1746 8.72C43.4733 9.024 43.7053 9.40267 43.8706 9.856C44.0413 10.304 44.1266 10.816 44.1266 11.392C44.1266 11.616 44.1026 11.7653 44.0546 11.84C44.0066 11.9147 43.916 11.952 43.7826 11.952H38.3906C38.4013 12.464 38.4706 12.9093 38.5986 13.288C38.7266 13.6667 38.9026 13.984 39.1266 14.24C39.3506 14.4907 39.6173 14.68 39.9266 14.808C40.236 14.9307 40.5826 14.992 40.9666 14.992C41.324 14.992 41.6306 14.952 41.8866 14.872C42.148 14.7867 42.372 14.696 42.5586 14.6C42.7453 14.504 42.9 14.416 43.0226 14.336C43.1506 14.2507 43.26 14.208 43.3506 14.208C43.468 14.208 43.5586 14.2533 43.6226 14.344L44.0226 14.864C43.8466 15.0773 43.636 15.264 43.3906 15.424C43.1453 15.5787 42.8813 15.7067 42.5986 15.808C42.3213 15.9093 42.0333 15.984 41.7346 16.032C41.436 16.0853 41.14 16.112 40.8466 16.112C40.2866 16.112 39.7693 16.0187 39.2946 15.832C38.8253 15.64 38.4173 15.3627 38.0706 15C37.7293 14.632 37.4626 14.1787 37.2706 13.64C37.0786 13.1013 36.9826 12.4827 36.9826 11.784C36.9826 11.2187 37.068 10.6907 37.2386 10.2C37.4146 9.70933 37.6653 9.28533 37.9906 8.928C38.316 8.56533 38.7133 8.28267 39.1826 8.08C39.652 7.872 40.18 7.768 40.7666 7.768ZM40.7986 8.816C40.1106 8.816 39.5693 9.016 39.1746 9.416C38.78 9.81067 38.5346 10.36 38.4386 11.064H42.8466C42.8466 10.7333 42.8013 10.432 42.7106 10.16C42.62 9.88267 42.4866 9.64533 42.3106 9.448C42.1346 9.24533 41.9186 9.09067 41.6626 8.984C41.412 8.872 41.124 8.816 40.7986 8.816Z" fill="black"/>
<path d="M7.399 44.969V46.075H2.583V49.582H6.699V50.688H2.583V55H1.218V44.969H7.399ZM11.2665 47.797C11.6912 47.797 12.0832 47.8693 12.4425 48.014C12.8018 48.154 13.1122 48.3593 13.3735 48.63C13.6348 48.896 13.8378 49.2273 13.9825 49.624C14.1318 50.016 14.2065 50.464 14.2065 50.968C14.2065 51.164 14.1855 51.2947 14.1435 51.36C14.1015 51.4253 14.0222 51.458 13.9055 51.458H9.1875C9.19683 51.906 9.2575 52.2957 9.3695 52.627C9.4815 52.9583 9.6355 53.236 9.8315 53.46C10.0275 53.6793 10.2608 53.845 10.5315 53.957C10.8022 54.0643 11.1055 54.118 11.4415 54.118C11.7542 54.118 12.0225 54.083 12.2465 54.013C12.4752 53.9383 12.6712 53.859 12.8345 53.775C12.9978 53.691 13.1332 53.614 13.2405 53.544C13.3525 53.4693 13.4482 53.432 13.5275 53.432C13.6302 53.432 13.7095 53.4717 13.7655 53.551L14.1155 54.006C13.9615 54.1927 13.7772 54.356 13.5625 54.496C13.3478 54.6313 13.1168 54.7433 12.8695 54.832C12.6268 54.9207 12.3748 54.986 12.1135 55.028C11.8522 55.0747 11.5932 55.098 11.3365 55.098C10.8465 55.098 10.3938 55.0163 9.9785 54.853C9.56783 54.685 9.21083 54.4423 8.9075 54.125C8.60883 53.803 8.3755 53.4063 8.2075 52.935C8.0395 52.4637 7.9555 51.9223 7.9555 51.311C7.9555 50.8163 8.03017 50.3543 8.1795 49.925C8.3335 49.4957 8.55283 49.1247 8.8375 48.812C9.12217 48.4947 9.46983 48.2473 9.8805 48.07C10.2912 47.888 10.7532 47.797 11.2665 47.797ZM11.2945 48.714C10.6925 48.714 10.2188 48.889 9.8735 49.239C9.52817 49.5843 9.3135 50.065 9.2295 50.681H13.0865C13.0865 50.3917 13.0468 50.128 12.9675 49.89C12.8882 49.6473 12.7715 49.4397 12.6175 49.267C12.4635 49.0897 12.2745 48.9543 12.0505 48.861C11.8312 48.763 11.5792 48.714 11.2945 48.714ZM17.9503 55.112C17.3903 55.112 16.9586 54.9557 16.6553 54.643C16.3566 54.3303 16.2073 53.88 16.2073 53.292V48.952H15.3533C15.2786 48.952 15.2156 48.931 15.1643 48.889C15.113 48.8423 15.0873 48.7723 15.0873 48.679V48.182L16.2493 48.035L16.5363 45.844C16.5456 45.774 16.576 45.718 16.6273 45.676C16.6786 45.6293 16.744 45.606 16.8233 45.606H17.4533V48.049H19.4833V48.952H17.4533V53.208C17.4533 53.5067 17.5256 53.7283 17.6703 53.873C17.815 54.0177 18.0016 54.09 18.2303 54.09C18.361 54.09 18.473 54.0737 18.5663 54.041C18.6643 54.0037 18.7483 53.964 18.8183 53.922C18.8883 53.88 18.9466 53.8427 18.9933 53.81C19.0446 53.7727 19.089 53.754 19.1263 53.754C19.1916 53.754 19.25 53.7937 19.3013 53.873L19.6653 54.468C19.4506 54.6687 19.1916 54.8273 18.8883 54.944C18.585 55.056 18.2723 55.112 17.9503 55.112ZM25.861 49.169C25.8236 49.2203 25.7863 49.26 25.749 49.288C25.7116 49.316 25.658 49.33 25.588 49.33C25.518 49.33 25.441 49.302 25.357 49.246C25.2776 49.1853 25.175 49.12 25.049 49.05C24.923 48.98 24.769 48.917 24.587 48.861C24.4096 48.8003 24.1903 48.77 23.929 48.77C23.5836 48.77 23.278 48.833 23.012 48.959C22.746 49.0803 22.522 49.2577 22.34 49.491C22.1626 49.7243 22.0273 50.0067 21.934 50.338C21.8453 50.6693 21.801 51.0403 21.801 51.451C21.801 51.8803 21.85 52.263 21.948 52.599C22.046 52.9303 22.1836 53.2103 22.361 53.439C22.5383 53.663 22.753 53.8357 23.005 53.957C23.2616 54.0737 23.5486 54.132 23.866 54.132C24.1693 54.132 24.419 54.097 24.615 54.027C24.811 53.9523 24.9743 53.8707 25.105 53.782C25.2356 53.6933 25.343 53.614 25.427 53.544C25.511 53.4693 25.595 53.432 25.679 53.432C25.7863 53.432 25.8656 53.4717 25.917 53.551L26.267 54.006C25.959 54.384 25.574 54.6617 25.112 54.839C24.65 55.0117 24.1623 55.098 23.649 55.098C23.2056 55.098 22.7926 55.0163 22.41 54.853C22.032 54.6897 21.703 54.454 21.423 54.146C21.143 53.8333 20.9213 53.4507 20.758 52.998C20.5993 52.5453 20.52 52.0297 20.52 51.451C20.52 50.9237 20.5923 50.436 20.737 49.988C20.8863 49.54 21.101 49.155 21.381 48.833C21.6656 48.5063 22.0156 48.252 22.431 48.07C22.8463 47.888 23.3223 47.797 23.859 47.797C24.3536 47.797 24.7923 47.8787 25.175 48.042C25.5576 48.2007 25.896 48.427 26.19 48.721L25.861 49.169ZM27.5591 55V44.689H28.8051V48.861C29.1084 48.539 29.4444 48.2823 29.8131 48.091C30.1818 47.895 30.6064 47.797 31.0871 47.797C31.4744 47.797 31.8151 47.8623 32.1091 47.993C32.4078 48.119 32.6551 48.301 32.8511 48.539C33.0518 48.7723 33.2034 49.0547 33.3061 49.386C33.4088 49.7173 33.4601 50.0837 33.4601 50.485V55H32.2141V50.485C32.2141 49.9483 32.0904 49.533 31.8431 49.239C31.6004 48.9403 31.2271 48.791 30.7231 48.791C30.3544 48.791 30.0091 48.8797 29.6871 49.057C29.3698 49.2343 29.0758 49.4747 28.8051 49.778V55H27.5591ZM36.7244 47.909V55H35.4784V47.909H36.7244ZM37.0044 45.683C37.0044 45.8043 36.9787 45.9187 36.9274 46.026C36.8807 46.1287 36.8154 46.222 36.7314 46.306C36.6521 46.3853 36.5587 46.4483 36.4514 46.495C36.3441 46.5417 36.2297 46.565 36.1084 46.565C35.9871 46.565 35.8727 46.5417 35.7654 46.495C35.6627 46.4483 35.5694 46.3853 35.4854 46.306C35.4061 46.222 35.3431 46.1287 35.2964 46.026C35.2497 45.9187 35.2264 45.8043 35.2264 45.683C35.2264 45.5617 35.2497 45.4473 35.2964 45.34C35.3431 45.228 35.4061 45.1323 35.4854 45.053C35.5694 44.969 35.6627 44.9037 35.7654 44.857C35.8727 44.8103 35.9871 44.787 36.1084 44.787C36.2297 44.787 36.3441 44.8103 36.4514 44.857C36.5587 44.9037 36.6521 44.969 36.7314 45.053C36.8154 45.1323 36.8807 45.228 36.9274 45.34C36.9787 45.4473 37.0044 45.5617 37.0044 45.683ZM38.9204 55V47.909H39.6624C39.8398 47.909 39.9518 47.9953 39.9984 48.168L40.0964 48.938C40.4044 48.5973 40.7474 48.322 41.1254 48.112C41.5081 47.902 41.9491 47.797 42.4484 47.797C42.8358 47.797 43.1764 47.8623 43.4704 47.993C43.7691 48.119 44.0164 48.301 44.2124 48.539C44.4131 48.7723 44.5648 49.0547 44.6674 49.386C44.7701 49.7173 44.8214 50.0837 44.8214 50.485V55H43.5754V50.485C43.5754 49.9483 43.4518 49.533 43.2044 49.239C42.9618 48.9403 42.5884 48.791 42.0844 48.791C41.7158 48.791 41.3704 48.8797 41.0484 49.057C40.7311 49.2343 40.4371 49.4747 40.1664 49.778V55H38.9204ZM49.0867 47.79C49.3947 47.79 49.6817 47.825 49.9477 47.895C50.2184 47.9603 50.4634 48.0583 50.6827 48.189H52.6077V48.651C52.6077 48.805 52.5097 48.903 52.3137 48.945L51.5087 49.057C51.6674 49.3603 51.7467 49.6987 51.7467 50.072C51.7467 50.4173 51.6791 50.7323 51.5437 51.017C51.4131 51.297 51.2287 51.5373 50.9907 51.738C50.7574 51.9387 50.4774 52.0927 50.1507 52.2C49.8287 52.3073 49.4741 52.361 49.0867 52.361C48.7554 52.361 48.4427 52.3213 48.1487 52.242C47.9994 52.3353 47.8851 52.4357 47.8057 52.543C47.7311 52.6503 47.6937 52.7553 47.6937 52.858C47.6937 53.026 47.7614 53.1543 47.8967 53.243C48.0321 53.327 48.2117 53.3877 48.4357 53.425C48.6597 53.4623 48.9141 53.4857 49.1987 53.495C49.4834 53.5043 49.7727 53.5207 50.0667 53.544C50.3654 53.5627 50.6571 53.5977 50.9417 53.649C51.2264 53.7003 51.4807 53.7843 51.7047 53.901C51.9287 54.0177 52.1084 54.1787 52.2437 54.384C52.3791 54.5893 52.4467 54.8553 52.4467 55.182C52.4467 55.4853 52.3697 55.7793 52.2157 56.064C52.0664 56.3487 51.8494 56.6007 51.5647 56.82C51.2801 57.044 50.9324 57.2213 50.5217 57.352C50.1111 57.4873 49.6467 57.555 49.1287 57.555C48.6107 57.555 48.1557 57.5037 47.7637 57.401C47.3764 57.2983 47.0544 57.1607 46.7977 56.988C46.5411 56.8153 46.3474 56.6147 46.2167 56.386C46.0907 56.162 46.0277 55.9263 46.0277 55.679C46.0277 55.329 46.1374 55.0327 46.3567 54.79C46.5807 54.5427 46.8864 54.3467 47.2737 54.202C47.0731 54.1087 46.9121 53.985 46.7907 53.831C46.6741 53.6723 46.6157 53.4623 46.6157 53.201C46.6157 53.0983 46.6344 52.9933 46.6717 52.886C46.7091 52.774 46.7651 52.6643 46.8397 52.557C46.9191 52.4497 47.0147 52.347 47.1267 52.249C47.2387 52.151 47.3694 52.0647 47.5187 51.99C47.1687 51.794 46.8934 51.535 46.6927 51.213C46.4967 50.8863 46.3987 50.506 46.3987 50.072C46.3987 49.7267 46.4641 49.414 46.5947 49.134C46.7301 48.8493 46.9167 48.609 47.1547 48.413C47.3927 48.2123 47.6751 48.0583 48.0017 47.951C48.3331 47.8437 48.6947 47.79 49.0867 47.79ZM51.2987 55.385C51.2987 55.2077 51.2497 55.0653 51.1517 54.958C51.0537 54.8507 50.9207 54.769 50.7527 54.713C50.5847 54.6523 50.3911 54.608 50.1717 54.58C49.9524 54.552 49.7214 54.5333 49.4787 54.524C49.2361 54.51 48.9887 54.496 48.7367 54.482C48.4847 54.468 48.2444 54.4423 48.0157 54.405C47.7497 54.531 47.5327 54.685 47.3647 54.867C47.2014 55.049 47.1197 55.266 47.1197 55.518C47.1197 55.6767 47.1594 55.8237 47.2387 55.959C47.3227 56.099 47.4487 56.218 47.6167 56.316C47.7847 56.4187 47.9947 56.498 48.2467 56.554C48.5034 56.6147 48.8044 56.645 49.1497 56.645C49.4857 56.645 49.7867 56.6147 50.0527 56.554C50.3187 56.4933 50.5427 56.407 50.7247 56.295C50.9114 56.183 51.0537 56.05 51.1517 55.896C51.2497 55.742 51.2987 55.5717 51.2987 55.385ZM49.0867 51.535C49.3387 51.535 49.5604 51.5 49.7517 51.43C49.9477 51.36 50.1111 51.262 50.2417 51.136C50.3724 51.01 50.4704 50.8607 50.5357 50.688C50.6011 50.5107 50.6337 50.317 50.6337 50.107C50.6337 49.673 50.5007 49.3277 50.2347 49.071C49.9734 48.8143 49.5907 48.686 49.0867 48.686C48.5874 48.686 48.2047 48.8143 47.9387 49.071C47.6774 49.3277 47.5467 49.673 47.5467 50.107C47.5467 50.317 47.5794 50.5107 47.6447 50.688C47.7147 50.8607 47.8151 51.01 47.9457 51.136C48.0764 51.262 48.2374 51.36 48.4287 51.43C48.6201 51.5 48.8394 51.535 49.0867 51.535ZM61.5482 55C61.3708 55 61.2588 54.9137 61.2122 54.741L61.1002 53.88C60.7968 54.2487 60.4492 54.545 60.0572 54.769C59.6698 54.9883 59.2242 55.098 58.7202 55.098C58.3142 55.098 57.9455 55.021 57.6142 54.867C57.2828 54.7083 57.0005 54.4773 56.7672 54.174C56.5338 53.8707 56.3542 53.4927 56.2282 53.04C56.1022 52.5873 56.0392 52.067 56.0392 51.479C56.0392 50.9563 56.1092 50.471 56.2492 50.023C56.3892 49.5703 56.5898 49.1783 56.8512 48.847C57.1172 48.5157 57.4392 48.2567 57.8172 48.07C58.1952 47.8787 58.6245 47.783 59.1052 47.783C59.5392 47.783 59.9102 47.8577 60.2182 48.007C60.5262 48.1517 60.8015 48.357 61.0442 48.623V44.689H62.2902V55H61.5482ZM59.1332 54.09C59.5392 54.09 59.8938 53.9967 60.1972 53.81C60.5052 53.6233 60.7875 53.3597 61.0442 53.019V49.589C60.8155 49.281 60.5635 49.0663 60.2882 48.945C60.0175 48.819 59.7165 48.756 59.3852 48.756C58.7225 48.756 58.2138 48.9917 57.8592 49.463C57.5045 49.9343 57.3272 50.6063 57.3272 51.479C57.3272 51.941 57.3668 52.3377 57.4462 52.669C57.5255 52.9957 57.6422 53.2663 57.7962 53.481C57.9502 53.691 58.1392 53.845 58.3632 53.943C58.5872 54.041 58.8438 54.09 59.1332 54.09ZM69.5855 55H69.0325C68.9111 55 68.8131 54.9813 68.7385 54.944C68.6638 54.9067 68.6148 54.8273 68.5915 54.706L68.4515 54.048C68.2648 54.216 68.0828 54.3677 67.9055 54.503C67.7281 54.6337 67.5415 54.7457 67.3455 54.839C67.1495 54.9277 66.9395 54.9953 66.7155 55.042C66.4961 55.0887 66.2511 55.112 65.9805 55.112C65.7051 55.112 65.4461 55.0747 65.2035 55C64.9655 54.9207 64.7578 54.804 64.5805 54.65C64.4031 54.496 64.2608 54.3023 64.1535 54.069C64.0508 53.831 63.9995 53.551 63.9995 53.229C63.9995 52.949 64.0765 52.6807 64.2305 52.424C64.3845 52.1627 64.6318 51.9317 64.9725 51.731C65.3178 51.5303 65.7681 51.367 66.3235 51.241C66.8788 51.1103 67.5578 51.0357 68.3605 51.017V50.464C68.3605 49.9133 68.2415 49.498 68.0035 49.218C67.7701 48.9333 67.4225 48.791 66.9605 48.791C66.6571 48.791 66.4005 48.8307 66.1905 48.91C65.9851 48.9847 65.8055 49.071 65.6515 49.169C65.5021 49.2623 65.3715 49.3487 65.2595 49.428C65.1521 49.5027 65.0448 49.54 64.9375 49.54C64.8535 49.54 64.7788 49.519 64.7135 49.477C64.6528 49.4303 64.6038 49.3743 64.5665 49.309L64.3425 48.91C64.7345 48.532 65.1568 48.2497 65.6095 48.063C66.0621 47.8763 66.5638 47.783 67.1145 47.783C67.5111 47.783 67.8635 47.8483 68.1715 47.979C68.4795 48.1097 68.7385 48.2917 68.9485 48.525C69.1585 48.7583 69.3171 49.0407 69.4245 49.372C69.5318 49.7033 69.5855 50.0673 69.5855 50.464V55ZM66.3515 54.237C66.5708 54.237 66.7715 54.216 66.9535 54.174C67.1355 54.1273 67.3058 54.0643 67.4645 53.985C67.6278 53.901 67.7818 53.8007 67.9265 53.684C68.0758 53.5673 68.2205 53.4343 68.3605 53.285V51.808C67.7865 51.8267 67.2988 51.8733 66.8975 51.948C66.4961 52.018 66.1695 52.1113 65.9175 52.228C65.6655 52.3447 65.4811 52.4823 65.3645 52.641C65.2525 52.7997 65.1965 52.977 65.1965 53.173C65.1965 53.3597 65.2268 53.5207 65.2875 53.656C65.3481 53.7913 65.4298 53.9033 65.5325 53.992C65.6351 54.076 65.7565 54.139 65.8965 54.181C66.0365 54.2183 66.1881 54.237 66.3515 54.237ZM73.6222 55.112C73.0622 55.112 72.6305 54.9557 72.3272 54.643C72.0285 54.3303 71.8792 53.88 71.8792 53.292V48.952H71.0252C70.9505 48.952 70.8875 48.931 70.8362 48.889C70.7848 48.8423 70.7592 48.7723 70.7592 48.679V48.182L71.9212 48.035L72.2082 45.844C72.2175 45.774 72.2478 45.718 72.2992 45.676C72.3505 45.6293 72.4158 45.606 72.4952 45.606H73.1252V48.049H75.1552V48.952H73.1252V53.208C73.1252 53.5067 73.1975 53.7283 73.3422 53.873C73.4868 54.0177 73.6735 54.09 73.9022 54.09C74.0328 54.09 74.1448 54.0737 74.2382 54.041C74.3362 54.0037 74.4202 53.964 74.4902 53.922C74.5602 53.88 74.6185 53.8427 74.6652 53.81C74.7165 53.7727 74.7608 53.754 74.7982 53.754C74.8635 53.754 74.9218 53.7937 74.9732 53.873L75.3372 54.468C75.1225 54.6687 74.8635 54.8273 74.5602 54.944C74.2568 55.056 73.9442 55.112 73.6222 55.112ZM81.9038 55H81.3508C81.2295 55 81.1315 54.9813 81.0568 54.944C80.9822 54.9067 80.9332 54.8273 80.9098 54.706L80.7698 54.048C80.5832 54.216 80.4012 54.3677 80.2238 54.503C80.0465 54.6337 79.8598 54.7457 79.6638 54.839C79.4678 54.9277 79.2578 54.9953 79.0338 55.042C78.8145 55.0887 78.5695 55.112 78.2988 55.112C78.0235 55.112 77.7645 55.0747 77.5218 55C77.2838 54.9207 77.0762 54.804 76.8988 54.65C76.7215 54.496 76.5792 54.3023 76.4718 54.069C76.3692 53.831 76.3178 53.551 76.3178 53.229C76.3178 52.949 76.3948 52.6807 76.5488 52.424C76.7028 52.1627 76.9502 51.9317 77.2908 51.731C77.6362 51.5303 78.0865 51.367 78.6418 51.241C79.1972 51.1103 79.8762 51.0357 80.6788 51.017V50.464C80.6788 49.9133 80.5598 49.498 80.3218 49.218C80.0885 48.9333 79.7408 48.791 79.2788 48.791C78.9755 48.791 78.7188 48.8307 78.5088 48.91C78.3035 48.9847 78.1238 49.071 77.9698 49.169C77.8205 49.2623 77.6898 49.3487 77.5778 49.428C77.4705 49.5027 77.3632 49.54 77.2558 49.54C77.1718 49.54 77.0972 49.519 77.0318 49.477C76.9712 49.4303 76.9222 49.3743 76.8848 49.309L76.6608 48.91C77.0528 48.532 77.4752 48.2497 77.9278 48.063C78.3805 47.8763 78.8822 47.783 79.4328 47.783C79.8295 47.783 80.1818 47.8483 80.4898 47.979C80.7978 48.1097 81.0568 48.2917 81.2668 48.525C81.4768 48.7583 81.6355 49.0407 81.7428 49.372C81.8502 49.7033 81.9038 50.0673 81.9038 50.464V55ZM78.6698 54.237C78.8892 54.237 79.0898 54.216 79.2718 54.174C79.4538 54.1273 79.6242 54.0643 79.7828 53.985C79.9462 53.901 80.1002 53.8007 80.2448 53.684C80.3942 53.5673 80.5388 53.4343 80.6788 53.285V51.808C80.1048 51.8267 79.6172 51.8733 79.2158 51.948C78.8145 52.018 78.4878 52.1113 78.2358 52.228C77.9838 52.3447 77.7995 52.4823 77.6828 52.641C77.5708 52.7997 77.5148 52.977 77.5148 53.173C77.5148 53.3597 77.5452 53.5207 77.6058 53.656C77.6665 53.7913 77.7482 53.9033 77.8508 53.992C77.9535 54.076 78.0748 54.139 78.2148 54.181C78.3548 54.2183 78.5065 54.237 78.6698 54.237ZM83.3855 54.23C83.3855 54.1087 83.4065 53.9943 83.4485 53.887C83.4952 53.7797 83.5559 53.6863 83.6305 53.607C83.7099 53.5277 83.8032 53.4647 83.9105 53.418C84.0179 53.3713 84.1322 53.348 84.2535 53.348C84.3749 53.348 84.4892 53.3713 84.5965 53.418C84.7039 53.4647 84.7972 53.5277 84.8765 53.607C84.9559 53.6863 85.0165 53.7797 85.0585 53.887C85.1052 53.9943 85.1285 54.1087 85.1285 54.23C85.1285 54.356 85.1052 54.4727 85.0585 54.58C85.0165 54.6827 84.9559 54.7737 84.8765 54.853C84.7972 54.9323 84.7039 54.993 84.5965 55.035C84.4892 55.0817 84.3749 55.105 84.2535 55.105C84.1322 55.105 84.0179 55.0817 83.9105 55.035C83.8032 54.993 83.7099 54.9323 83.6305 54.853C83.5559 54.7737 83.4952 54.6827 83.4485 54.58C83.4065 54.4727 83.3855 54.356 83.3855 54.23ZM86.3523 54.23C86.3523 54.1087 86.3733 53.9943 86.4153 53.887C86.462 53.7797 86.5227 53.6863 86.5973 53.607C86.6767 53.5277 86.77 53.4647 86.8773 53.418C86.9847 53.3713 87.099 53.348 87.2203 53.348C87.3417 53.348 87.456 53.3713 87.5633 53.418C87.6707 53.4647 87.764 53.5277 87.8433 53.607C87.9227 53.6863 87.9833 53.7797 88.0253 53.887C88.072 53.9943 88.0953 54.1087 88.0953 54.23C88.0953 54.356 88.072 54.4727 88.0253 54.58C87.9833 54.6827 87.9227 54.7737 87.8433 54.853C87.764 54.9323 87.6707 54.993 87.5633 55.035C87.456 55.0817 87.3417 55.105 87.2203 55.105C87.099 55.105 86.9847 55.0817 86.8773 55.035C86.77 54.993 86.6767 54.9323 86.5973 54.853C86.5227 54.7737 86.462 54.6827 86.4153 54.58C86.3733 54.4727 86.3523 54.356 86.3523 54.23ZM89.3191 54.23C89.3191 54.1087 89.3401 53.9943 89.3821 53.887C89.4288 53.7797 89.4895 53.6863 89.5641 53.607C89.6435 53.5277 89.7368 53.4647 89.8441 53.418C89.9515 53.3713 90.0658 53.348 90.1871 53.348C90.3085 53.348 90.4228 53.3713 90.5301 53.418C90.6375 53.4647 90.7308 53.5277 90.8101 53.607C90.8895 53.6863 90.9501 53.7797 90.9921 53.887C91.0388 53.9943 91.0621 54.1087 91.0621 54.23C91.0621 54.356 91.0388 54.4727 90.9921 54.58C90.9501 54.6827 90.8895 54.7737 90.8101 54.853C90.7308 54.9323 90.6375 54.993 90.5301 55.035C90.4228 55.0817 90.3085 55.105 90.1871 55.105C90.0658 55.105 89.9515 55.0817 89.8441 55.035C89.7368 54.993 89.6435 54.9323 89.5641 54.853C89.4895 54.7737 89.4288 54.6827 89.3821 54.58C89.3401 54.4727 89.3191 54.356 89.3191 54.23ZM101.965 44.969V45.529C101.965 45.6877 101.946 45.8183 101.909 45.921C101.876 46.0237 101.841 46.11 101.804 46.18L97.653 54.559C97.5923 54.6803 97.5083 54.7853 97.401 54.874C97.2936 54.958 97.149 55 96.967 55H96.078L100.292 46.726C100.353 46.6093 100.413 46.502 100.474 46.404C100.539 46.306 100.612 46.2127 100.691 46.124H95.455C95.3756 46.124 95.3033 46.0937 95.238 46.033C95.1773 45.9677 95.147 45.8953 95.147 45.816V44.969H101.965ZM109.344 45.515C109.344 45.6923 109.288 45.8393 109.176 45.956C109.064 46.068 108.875 46.124 108.609 46.124H105.459L104.997 48.756C105.52 48.644 106.003 48.588 106.446 48.588C106.969 48.588 107.428 48.665 107.825 48.819C108.226 48.973 108.562 49.1853 108.833 49.456C109.104 49.7267 109.307 50.0463 109.442 50.415C109.582 50.7837 109.652 51.185 109.652 51.619C109.652 52.151 109.559 52.6317 109.372 53.061C109.185 53.4903 108.929 53.859 108.602 54.167C108.28 54.4703 107.9 54.7037 107.461 54.867C107.022 55.0303 106.549 55.112 106.04 55.112C105.746 55.112 105.464 55.0817 105.193 55.021C104.922 54.965 104.67 54.888 104.437 54.79C104.204 54.692 103.987 54.58 103.786 54.454C103.585 54.328 103.408 54.195 103.254 54.055L103.632 53.523C103.716 53.4017 103.828 53.341 103.968 53.341C104.057 53.341 104.159 53.3783 104.276 53.453C104.397 53.523 104.542 53.6023 104.71 53.691C104.878 53.7797 105.074 53.8613 105.298 53.936C105.527 54.006 105.797 54.041 106.11 54.041C106.46 54.041 106.775 53.985 107.055 53.873C107.335 53.761 107.573 53.6023 107.769 53.397C107.97 53.187 108.124 52.9373 108.231 52.648C108.338 52.3587 108.392 52.0343 108.392 51.675C108.392 51.3623 108.345 51.08 108.252 50.828C108.163 50.576 108.026 50.3613 107.839 50.184C107.657 50.0067 107.428 49.869 107.153 49.771C106.878 49.673 106.556 49.624 106.187 49.624C105.935 49.624 105.674 49.645 105.403 49.687C105.132 49.729 104.852 49.7967 104.563 49.89L103.779 49.659L104.591 44.969H109.344V45.515ZM115.568 47.391C115.568 47.783 115.507 48.1353 115.386 48.448C115.265 48.756 115.101 49.0173 114.896 49.232C114.695 49.442 114.46 49.603 114.189 49.715C113.918 49.827 113.636 49.883 113.342 49.883C113.025 49.883 112.731 49.827 112.46 49.715C112.194 49.603 111.961 49.442 111.76 49.232C111.559 49.0173 111.403 48.756 111.291 48.448C111.179 48.1353 111.123 47.783 111.123 47.391C111.123 46.9897 111.179 46.6327 111.291 46.32C111.403 46.0073 111.559 45.7437 111.76 45.529C111.961 45.3143 112.194 45.151 112.46 45.039C112.731 44.927 113.025 44.871 113.342 44.871C113.655 44.871 113.946 44.927 114.217 45.039C114.492 45.151 114.728 45.3143 114.924 45.529C115.125 45.7437 115.281 46.0073 115.393 46.32C115.51 46.6327 115.568 46.9897 115.568 47.391ZM114.595 47.391C114.595 47.083 114.562 46.8217 114.497 46.607C114.432 46.3923 114.341 46.2173 114.224 46.082C114.112 45.942 113.979 45.8417 113.825 45.781C113.676 45.7203 113.515 45.69 113.342 45.69C113.169 45.69 113.006 45.7203 112.852 45.781C112.703 45.8417 112.572 45.942 112.46 46.082C112.348 46.2173 112.259 46.3923 112.194 46.607C112.133 46.8217 112.103 47.083 112.103 47.391C112.103 47.6943 112.133 47.9533 112.194 48.168C112.259 48.378 112.348 48.5507 112.46 48.686C112.572 48.8167 112.703 48.9123 112.852 48.973C113.006 49.029 113.169 49.057 113.342 49.057C113.515 49.057 113.676 49.029 113.825 48.973C113.979 48.9123 114.112 48.8167 114.224 48.686C114.341 48.5507 114.432 48.378 114.497 48.168C114.562 47.9533 114.595 47.6943 114.595 47.391ZM119.075 45.221C119.136 45.1417 119.199 45.081 119.264 45.039C119.334 44.9923 119.425 44.969 119.537 44.969H120.433L113.104 54.797C113.057 54.8577 113.001 54.9067 112.936 54.944C112.871 54.9813 112.794 55 112.705 55H111.781L119.075 45.221ZM121.112 52.634C121.112 53.026 121.051 53.376 120.93 53.684C120.809 53.992 120.645 54.2533 120.44 54.468C120.239 54.678 120.004 54.839 119.733 54.951C119.467 55.063 119.187 55.119 118.893 55.119C118.576 55.119 118.282 55.063 118.011 54.951C117.745 54.839 117.512 54.678 117.311 54.468C117.11 54.2533 116.954 53.992 116.842 53.684C116.73 53.376 116.674 53.026 116.674 52.634C116.674 52.2327 116.73 51.8757 116.842 51.563C116.954 51.2457 117.11 50.9797 117.311 50.765C117.512 50.5503 117.745 50.387 118.011 50.275C118.282 50.163 118.576 50.107 118.893 50.107C119.206 50.107 119.497 50.163 119.768 50.275C120.039 50.387 120.274 50.5503 120.475 50.765C120.676 50.9797 120.832 51.2457 120.944 51.563C121.056 51.8757 121.112 52.2327 121.112 52.634ZM120.146 52.634C120.146 52.326 120.113 52.0647 120.048 51.85C119.983 51.6307 119.892 51.4533 119.775 51.318C119.663 51.1827 119.53 51.0847 119.376 51.024C119.227 50.9633 119.066 50.933 118.893 50.933C118.72 50.933 118.557 50.9633 118.403 51.024C118.254 51.0847 118.123 51.1827 118.011 51.318C117.899 51.4533 117.81 51.6307 117.745 51.85C117.684 52.0647 117.654 52.326 117.654 52.634C117.654 52.9373 117.684 53.194 117.745 53.404C117.81 53.614 117.899 53.7867 118.011 53.922C118.123 54.0527 118.254 54.1483 118.403 54.209C118.557 54.265 118.72 54.293 118.893 54.293C119.066 54.293 119.227 54.265 119.376 54.209C119.53 54.1483 119.663 54.0527 119.775 53.922C119.892 53.7867 119.983 53.614 120.048 53.404C120.113 53.194 120.146 52.9373 120.146 52.634Z" fill="#6A6A6A"/>
</svg>
