<svg width="335" height="34" viewBox="0 0 335 34" fill="none" xmlns="http://www.w3.org/2000/svg">
<rect x="1" y="26" width="334" height="8" fill="#E5E5E5"/>
<rect x="1" y="26" width="207" height="8" fill="#0064D1"/>
<path d="M1.392 16V4.536H5.048C5.752 4.536 6.35733 4.60533 6.864 4.744C7.376 4.88267 7.79467 5.08 8.12 5.336C8.45067 5.592 8.69333 5.90667 8.848 6.28C9.008 6.648 9.088 7.064 9.088 7.528C9.088 7.81067 9.04267 8.08267 8.952 8.344C8.86667 8.60533 8.73333 8.848 8.552 9.072C8.376 9.296 8.152 9.496 7.88 9.672C7.61333 9.848 7.29867 9.992 6.936 10.104C7.77333 10.2693 8.40533 10.5707 8.832 11.008C9.25867 11.4453 9.472 12.0213 9.472 12.736C9.472 13.2213 9.38133 13.664 9.2 14.064C9.024 14.464 8.76267 14.808 8.416 15.096C8.07467 15.384 7.65333 15.608 7.152 15.768C6.656 15.9227 6.088 16 5.448 16H1.392ZM2.944 10.776V14.768H5.424C5.86667 14.768 6.24533 14.7173 6.56 14.616C6.88 14.5147 7.14133 14.3733 7.344 14.192C7.552 14.0053 7.704 13.7867 7.8 13.536C7.896 13.28 7.944 13 7.944 12.696C7.944 12.104 7.73333 11.6373 7.312 11.296C6.896 10.9493 6.264 10.776 5.416 10.776H2.944ZM2.944 9.672H4.992C5.42933 9.672 5.808 9.624 6.128 9.528C6.448 9.432 6.712 9.29867 6.92 9.128C7.13333 8.95733 7.29067 8.752 7.392 8.512C7.49333 8.26667 7.544 8 7.544 7.712C7.544 7.04 7.34133 6.54667 6.936 6.232C6.53067 5.91733 5.90133 5.76 5.048 5.76H2.944V9.672ZM13.1114 7.896V16H11.6874V7.896H13.1114ZM13.4314 5.352C13.4314 5.49067 13.402 5.62133 13.3434 5.744C13.29 5.86133 13.2154 5.968 13.1194 6.064C13.0287 6.15467 12.922 6.22667 12.7994 6.28C12.6767 6.33333 12.546 6.36 12.4074 6.36C12.2687 6.36 12.138 6.33333 12.0154 6.28C11.898 6.22667 11.7914 6.15467 11.6954 6.064C11.6047 5.968 11.5327 5.86133 11.4794 5.744C11.426 5.62133 11.3994 5.49067 11.3994 5.352C11.3994 5.21333 11.426 5.08267 11.4794 4.96C11.5327 4.832 11.6047 4.72267 11.6954 4.632C11.7914 4.536 11.898 4.46133 12.0154 4.408C12.138 4.35467 12.2687 4.328 12.4074 4.328C12.546 4.328 12.6767 4.35467 12.7994 4.408C12.922 4.46133 13.0287 4.536 13.1194 4.632C13.2154 4.72267 13.29 4.832 13.3434 4.96C13.402 5.08267 13.4314 5.21333 13.4314 5.352ZM18.3491 7.76C18.7011 7.76 19.0291 7.8 19.3331 7.88C19.6425 7.95467 19.9225 8.06667 20.1731 8.216H22.3731V8.744C22.3731 8.92 22.2611 9.032 22.0371 9.08L21.1171 9.208C21.2985 9.55467 21.3891 9.94133 21.3891 10.368C21.3891 10.7627 21.3118 11.1227 21.1571 11.448C21.0078 11.768 20.7971 12.0427 20.5251 12.272C20.2585 12.5013 19.9385 12.6773 19.5651 12.8C19.1971 12.9227 18.7918 12.984 18.3491 12.984C17.9705 12.984 17.6131 12.9387 17.2771 12.848C17.1065 12.9547 16.9758 13.0693 16.8851 13.192C16.7998 13.3147 16.7571 13.4347 16.7571 13.552C16.7571 13.744 16.8345 13.8907 16.9891 13.992C17.1438 14.088 17.3491 14.1573 17.6051 14.2C17.8611 14.2427 18.1518 14.2693 18.4771 14.28C18.8025 14.2907 19.1331 14.3093 19.4691 14.336C19.8105 14.3573 20.1438 14.3973 20.4691 14.456C20.7945 14.5147 21.0851 14.6107 21.3411 14.744C21.5971 14.8773 21.8025 15.0613 21.9571 15.296C22.1118 15.5307 22.1891 15.8347 22.1891 16.208C22.1891 16.5547 22.1011 16.8907 21.9251 17.216C21.7545 17.5413 21.5065 17.8293 21.1811 18.08C20.8558 18.336 20.4585 18.5387 19.9891 18.688C19.5198 18.8427 18.9891 18.92 18.3971 18.92C17.8051 18.92 17.2851 18.8613 16.8371 18.744C16.3945 18.6267 16.0265 18.4693 15.7331 18.272C15.4398 18.0747 15.2185 17.8453 15.0691 17.584C14.9251 17.328 14.8531 17.0587 14.8531 16.776C14.8531 16.376 14.9785 16.0373 15.2291 15.76C15.4851 15.4773 15.8345 15.2533 16.2771 15.088C16.0478 14.9813 15.8638 14.84 15.7251 14.664C15.5918 14.4827 15.5251 14.2427 15.5251 13.944C15.5251 13.8267 15.5465 13.7067 15.5891 13.584C15.6318 13.456 15.6958 13.3307 15.7811 13.208C15.8718 13.0853 15.9811 12.968 16.1091 12.856C16.2371 12.744 16.3865 12.6453 16.5571 12.56C16.1571 12.336 15.8425 12.04 15.6131 11.672C15.3891 11.2987 15.2771 10.864 15.2771 10.368C15.2771 9.97333 15.3518 9.616 15.5011 9.296C15.6558 8.97067 15.8691 8.696 16.1411 8.472C16.4131 8.24267 16.7358 8.06667 17.1091 7.944C17.4878 7.82133 17.9011 7.76 18.3491 7.76ZM20.8771 16.44C20.8771 16.2373 20.8211 16.0747 20.7091 15.952C20.5971 15.8293 20.4451 15.736 20.2531 15.672C20.0611 15.6027 19.8398 15.552 19.5891 15.52C19.3385 15.488 19.0745 15.4667 18.7971 15.456C18.5198 15.44 18.2371 15.424 17.9491 15.408C17.6611 15.392 17.3865 15.3627 17.1251 15.32C16.8211 15.464 16.5731 15.64 16.3811 15.848C16.1945 16.056 16.1011 16.304 16.1011 16.592C16.1011 16.7733 16.1465 16.9413 16.2371 17.096C16.3331 17.256 16.4771 17.392 16.6691 17.504C16.8611 17.6213 17.1011 17.712 17.3891 17.776C17.6825 17.8453 18.0265 17.88 18.4211 17.88C18.8051 17.88 19.1491 17.8453 19.4531 17.776C19.7571 17.7067 20.0131 17.608 20.2211 17.48C20.4345 17.352 20.5971 17.2 20.7091 17.024C20.8211 16.848 20.8771 16.6533 20.8771 16.44ZM18.3491 12.04C18.6371 12.04 18.8905 12 19.1091 11.92C19.3331 11.84 19.5198 11.728 19.6691 11.584C19.8185 11.44 19.9305 11.2693 20.0051 11.072C20.0798 10.8693 20.1171 10.648 20.1171 10.408C20.1171 9.912 19.9651 9.51733 19.6611 9.224C19.3625 8.93067 18.9251 8.784 18.3491 8.784C17.7785 8.784 17.3411 8.93067 17.0371 9.224C16.7385 9.51733 16.5891 9.912 16.5891 10.408C16.5891 10.648 16.6265 10.8693 16.7011 11.072C16.7811 11.2693 16.8958 11.44 17.0451 11.584C17.1945 11.728 17.3785 11.84 17.5971 11.92C17.8158 12 18.0665 12.04 18.3491 12.04Z" fill="black"/>
</svg>
