<svg width="335" height="55" viewBox="0 0 335 55" fill="none" xmlns="http://www.w3.org/2000/svg">
<rect x="1" y="26" width="334" height="8" fill="#E5E5E5"/>
<rect x="1" y="26" width="207" height="8" fill="#0064D1"/>
<path d="M2.944 14.696H7.904V16H1.392V4.536H2.944V14.696ZM15.3388 16H14.7068C14.5681 16 14.4561 15.9787 14.3708 15.936C14.2854 15.8933 14.2294 15.8027 14.2028 15.664L14.0428 14.912C13.8294 15.104 13.6214 15.2773 13.4188 15.432C13.2161 15.5813 13.0028 15.7093 12.7788 15.816C12.5548 15.9173 12.3148 15.9947 12.0588 16.048C11.8081 16.1013 11.5281 16.128 11.2188 16.128C10.9041 16.128 10.6081 16.0853 10.3307 16C10.0588 15.9093 9.82142 15.776 9.61875 15.6C9.41608 15.424 9.25342 15.2027 9.13075 14.936C9.01342 14.664 8.95475 14.344 8.95475 13.976C8.95475 13.656 9.04275 13.3493 9.21875 13.056C9.39475 12.7573 9.67742 12.4933 10.0668 12.264C10.4614 12.0347 10.9761 11.848 11.6108 11.704C12.2454 11.5547 13.0214 11.4693 13.9388 11.448V10.816C13.9388 10.1867 13.8028 9.712 13.5308 9.392C13.2641 9.06667 12.8668 8.904 12.3388 8.904C11.9921 8.904 11.6988 8.94933 11.4588 9.04C11.2241 9.12533 11.0188 9.224 10.8428 9.336C10.6721 9.44267 10.5228 9.54133 10.3948 9.632C10.2721 9.71733 10.1494 9.76 10.0268 9.76C9.93075 9.76 9.84542 9.736 9.77075 9.688C9.70142 9.63467 9.64542 9.57067 9.60275 9.496L9.34675 9.04C9.79475 8.608 10.2774 8.28533 10.7948 8.072C11.3121 7.85867 11.8854 7.752 12.5148 7.752C12.9681 7.752 13.3708 7.82667 13.7228 7.976C14.0748 8.12533 14.3708 8.33333 14.6108 8.6C14.8508 8.86667 15.0321 9.18933 15.1548 9.568C15.2774 9.94667 15.3388 10.3627 15.3388 10.816V16ZM11.6428 15.128C11.8934 15.128 12.1228 15.104 12.3307 15.056C12.5388 15.0027 12.7334 14.9307 12.9148 14.84C13.1014 14.744 13.2774 14.6293 13.4428 14.496C13.6134 14.3627 13.7788 14.2107 13.9388 14.04V12.352C13.2828 12.3733 12.7254 12.4267 12.2668 12.512C11.8081 12.592 11.4348 12.6987 11.1468 12.832C10.8588 12.9653 10.6481 13.1227 10.5148 13.304C10.3868 13.4853 10.3228 13.688 10.3228 13.912C10.3228 14.1253 10.3574 14.3093 10.4268 14.464C10.4961 14.6187 10.5894 14.7467 10.7068 14.848C10.8241 14.944 10.9628 15.016 11.1228 15.064C11.2828 15.1067 11.4561 15.128 11.6428 15.128ZM17.5441 16V4.216H18.9761V9.064C19.3121 8.67467 19.6961 8.36267 20.1281 8.128C20.5655 7.888 21.0641 7.768 21.6241 7.768C22.0935 7.768 22.5175 7.856 22.8961 8.032C23.2748 8.208 23.5975 8.472 23.8641 8.824C24.1308 9.17067 24.3361 9.60267 24.4801 10.12C24.6241 10.632 24.6961 11.224 24.6961 11.896C24.6961 12.4933 24.6161 13.0507 24.4561 13.568C24.2961 14.08 24.0641 14.5253 23.7601 14.904C23.4615 15.2773 23.0935 15.5733 22.6561 15.792C22.2241 16.0053 21.7361 16.112 21.1921 16.112C20.6695 16.112 20.2241 16.0107 19.8561 15.808C19.4935 15.6053 19.1761 15.3227 18.9041 14.96L18.8321 15.696C18.7895 15.8987 18.6668 16 18.4641 16H17.5441ZM21.1601 8.904C20.6961 8.904 20.2881 9.01067 19.9361 9.224C19.5895 9.43733 19.2695 9.73867 18.9761 10.128V14.048C19.2321 14.4 19.5148 14.648 19.8241 14.792C20.1388 14.936 20.4881 15.008 20.8721 15.008C21.6295 15.008 22.2108 14.7387 22.6161 14.2C23.0215 13.6613 23.2241 12.8933 23.2241 11.896C23.2241 11.368 23.1761 10.9147 23.0801 10.536C22.9895 10.1573 22.8561 9.848 22.6801 9.608C22.5041 9.36267 22.2881 9.184 22.0321 9.072C21.7761 8.96 21.4855 8.904 21.1601 8.904ZM29.6416 7.768C30.127 7.768 30.575 7.85067 30.9856 8.016C31.3963 8.176 31.751 8.41067 32.0496 8.72C32.3483 9.024 32.5803 9.40267 32.7456 9.856C32.9163 10.304 33.0016 10.816 33.0016 11.392C33.0016 11.616 32.9776 11.7653 32.9296 11.84C32.8816 11.9147 32.791 11.952 32.6576 11.952H27.2656C27.2763 12.464 27.3456 12.9093 27.4736 13.288C27.6016 13.6667 27.7776 13.984 28.0016 14.24C28.2256 14.4907 28.4923 14.68 28.8016 14.808C29.111 14.9307 29.4576 14.992 29.8416 14.992C30.199 14.992 30.5056 14.952 30.7616 14.872C31.023 14.7867 31.247 14.696 31.4336 14.6C31.6203 14.504 31.775 14.416 31.8976 14.336C32.0256 14.2507 32.135 14.208 32.2256 14.208C32.343 14.208 32.4336 14.2533 32.4976 14.344L32.8976 14.864C32.7216 15.0773 32.511 15.264 32.2656 15.424C32.0203 15.5787 31.7563 15.7067 31.4736 15.808C31.1963 15.9093 30.9083 15.984 30.6096 16.032C30.311 16.0853 30.015 16.112 29.7216 16.112C29.1616 16.112 28.6443 16.0187 28.1696 15.832C27.7003 15.64 27.2923 15.3627 26.9456 15C26.6043 14.632 26.3376 14.1787 26.1456 13.64C25.9536 13.1013 25.8576 12.4827 25.8576 11.784C25.8576 11.2187 25.943 10.6907 26.1136 10.2C26.2896 9.70933 26.5403 9.28533 26.8656 8.928C27.191 8.56533 27.5883 8.28267 28.0576 8.08C28.527 7.872 29.055 7.768 29.6416 7.768ZM29.6736 8.816C28.9856 8.816 28.4443 9.016 28.0496 9.416C27.655 9.81067 27.4096 10.36 27.3136 11.064H31.7216C31.7216 10.7333 31.6763 10.432 31.5856 10.16C31.495 9.88267 31.3616 9.64533 31.1856 9.448C31.0096 9.24533 30.7936 9.09067 30.5376 8.984C30.287 8.872 29.999 8.816 29.6736 8.816ZM36.4083 4.216V16H34.9843V4.216H36.4083Z" fill="black"/>
<path d="M9.352 52H7.987V47.436H2.583V52H1.218V41.969H2.583V46.442H7.987V41.969H9.352V52ZM14.411 44.797C14.8357 44.797 15.2277 44.8693 15.587 45.014C15.9464 45.154 16.2567 45.3593 16.518 45.63C16.7794 45.896 16.9824 46.2273 17.127 46.624C17.2764 47.016 17.351 47.464 17.351 47.968C17.351 48.164 17.33 48.2947 17.288 48.36C17.246 48.4253 17.1667 48.458 17.05 48.458H12.332C12.3414 48.906 12.402 49.2957 12.514 49.627C12.626 49.9583 12.78 50.236 12.976 50.46C13.172 50.6793 13.4054 50.845 13.676 50.957C13.9467 51.0643 14.25 51.118 14.586 51.118C14.8987 51.118 15.167 51.083 15.391 51.013C15.6197 50.9383 15.8157 50.859 15.979 50.775C16.1424 50.691 16.2777 50.614 16.385 50.544C16.497 50.4693 16.5927 50.432 16.672 50.432C16.7747 50.432 16.854 50.4717 16.91 50.551L17.26 51.006C17.106 51.1927 16.9217 51.356 16.707 51.496C16.4924 51.6313 16.2614 51.7433 16.014 51.832C15.7714 51.9207 15.5194 51.986 15.258 52.028C14.9967 52.0747 14.7377 52.098 14.481 52.098C13.991 52.098 13.5384 52.0163 13.123 51.853C12.7124 51.685 12.3554 51.4423 12.052 51.125C11.7534 50.803 11.52 50.4063 11.352 49.935C11.184 49.4637 11.1 48.9223 11.1 48.311C11.1 47.8163 11.1747 47.3543 11.324 46.925C11.478 46.4957 11.6974 46.1247 11.982 45.812C12.2667 45.4947 12.6144 45.2473 13.025 45.07C13.4357 44.888 13.8977 44.797 14.411 44.797ZM14.439 45.714C13.837 45.714 13.3634 45.889 13.018 46.239C12.6727 46.5843 12.458 47.065 12.374 47.681H16.231C16.231 47.3917 16.1914 47.128 16.112 46.89C16.0327 46.6473 15.916 46.4397 15.762 46.267C15.608 46.0897 15.419 45.9543 15.195 45.861C14.9757 45.763 14.7237 45.714 14.439 45.714ZM20.3318 41.689V52H19.0858V41.689H20.3318ZM22.5279 54.401V44.909H23.2699C23.4472 44.909 23.5592 44.9953 23.6059 45.168L23.7109 46.008C24.0142 45.6393 24.3595 45.343 24.7469 45.119C25.1389 44.895 25.5892 44.783 26.0979 44.783C26.5039 44.783 26.8725 44.8623 27.2039 45.021C27.5352 45.175 27.8175 45.406 28.0509 45.714C28.2842 46.0173 28.4639 46.3953 28.5899 46.848C28.7159 47.3007 28.7789 47.821 28.7789 48.409C28.7789 48.9317 28.7089 49.4193 28.5689 49.872C28.4289 50.32 28.2282 50.7097 27.9669 51.041C27.7055 51.3677 27.3835 51.6267 27.0009 51.818C26.6229 52.0047 26.1959 52.098 25.7199 52.098C25.2812 52.098 24.9055 52.0257 24.5929 51.881C24.2849 51.7363 24.0119 51.531 23.7739 51.265V54.401H22.5279ZM25.6849 45.791C25.2789 45.791 24.9219 45.8843 24.6139 46.071C24.3105 46.2577 24.0305 46.5213 23.7739 46.862V50.292C24.0025 50.6 24.2522 50.817 24.5229 50.943C24.7982 51.069 25.1039 51.132 25.4399 51.132C26.0979 51.132 26.6042 50.8963 26.9589 50.425C27.3135 49.9537 27.4909 49.2817 27.4909 48.409C27.4909 47.947 27.4489 47.5503 27.3649 47.219C27.2855 46.8877 27.1689 46.617 27.0149 46.407C26.8609 46.1923 26.6719 46.036 26.4479 45.938C26.2239 45.84 25.9695 45.791 25.6849 45.791ZM33.0595 44.797C33.4841 44.797 33.8761 44.8693 34.2355 45.014C34.5948 45.154 34.9051 45.3593 35.1665 45.63C35.4278 45.896 35.6308 46.2273 35.7755 46.624C35.9248 47.016 35.9995 47.464 35.9995 47.968C35.9995 48.164 35.9785 48.2947 35.9365 48.36C35.8945 48.4253 35.8151 48.458 35.6985 48.458H30.9805C30.9898 48.906 31.0505 49.2957 31.1625 49.627C31.2745 49.9583 31.4285 50.236 31.6245 50.46C31.8205 50.6793 32.0538 50.845 32.3245 50.957C32.5951 51.0643 32.8985 51.118 33.2345 51.118C33.5471 51.118 33.8155 51.083 34.0395 51.013C34.2681 50.9383 34.4641 50.859 34.6275 50.775C34.7908 50.691 34.9261 50.614 35.0335 50.544C35.1455 50.4693 35.2411 50.432 35.3205 50.432C35.4231 50.432 35.5025 50.4717 35.5585 50.551L35.9085 51.006C35.7545 51.1927 35.5701 51.356 35.3555 51.496C35.1408 51.6313 34.9098 51.7433 34.6625 51.832C34.4198 51.9207 34.1678 51.986 33.9065 52.028C33.6451 52.0747 33.3861 52.098 33.1295 52.098C32.6395 52.098 32.1868 52.0163 31.7715 51.853C31.3608 51.685 31.0038 51.4423 30.7005 51.125C30.4018 50.803 30.1685 50.4063 30.0005 49.935C29.8325 49.4637 29.7485 48.9223 29.7485 48.311C29.7485 47.8163 29.8231 47.3543 29.9725 46.925C30.1265 46.4957 30.3458 46.1247 30.6305 45.812C30.9151 45.4947 31.2628 45.2473 31.6735 45.07C32.0841 44.888 32.5461 44.797 33.0595 44.797ZM33.0875 45.714C32.4855 45.714 32.0118 45.889 31.6665 46.239C31.3211 46.5843 31.1065 47.065 31.0225 47.681H34.8795C34.8795 47.3917 34.8398 47.128 34.7605 46.89C34.6811 46.6473 34.5645 46.4397 34.4105 46.267C34.2565 46.0897 34.0675 45.9543 33.8435 45.861C33.6241 45.763 33.3721 45.714 33.0875 45.714ZM37.5943 52V44.909H38.3083C38.4436 44.909 38.5369 44.9347 38.5883 44.986C38.6396 45.0373 38.6746 45.126 38.6933 45.252L38.7773 46.358C39.0199 45.8633 39.3186 45.4783 39.6733 45.203C40.0326 44.923 40.4526 44.783 40.9333 44.783C41.1293 44.783 41.3066 44.8063 41.4653 44.853C41.6239 44.895 41.7709 44.9557 41.9063 45.035L41.7453 45.966C41.7126 46.0827 41.6403 46.141 41.5283 46.141C41.4629 46.141 41.3626 46.12 41.2273 46.078C41.0919 46.0313 40.9029 46.008 40.6603 46.008C40.2263 46.008 39.8623 46.134 39.5683 46.386C39.2789 46.638 39.0363 47.0043 38.8403 47.485V52H37.5943ZM48.0968 52.112C47.5368 52.112 47.1051 51.9557 46.8018 51.643C46.5031 51.3303 46.3538 50.88 46.3538 50.292V45.952H45.4998C45.4251 45.952 45.3621 45.931 45.3108 45.889C45.2594 45.8423 45.2338 45.7723 45.2338 45.679V45.182L46.3958 45.035L46.6828 42.844C46.6921 42.774 46.7224 42.718 46.7738 42.676C46.8251 42.6293 46.8904 42.606 46.9698 42.606H47.5998V45.049H49.6298V45.952H47.5998V50.208C47.5998 50.5067 47.6721 50.7283 47.8168 50.873C47.9614 51.0177 48.1481 51.09 48.3768 51.09C48.5074 51.09 48.6194 51.0737 48.7128 51.041C48.8108 51.0037 48.8948 50.964 48.9648 50.922C49.0348 50.88 49.0931 50.8427 49.1398 50.81C49.1911 50.7727 49.2354 50.754 49.2728 50.754C49.3381 50.754 49.3964 50.7937 49.4478 50.873L49.8118 51.468C49.5971 51.6687 49.3381 51.8273 49.0348 51.944C48.7314 52.056 48.4188 52.112 48.0968 52.112ZM53.9774 44.797C54.4021 44.797 54.7941 44.8693 55.1534 45.014C55.5128 45.154 55.8231 45.3593 56.0844 45.63C56.3458 45.896 56.5488 46.2273 56.6934 46.624C56.8428 47.016 56.9174 47.464 56.9174 47.968C56.9174 48.164 56.8964 48.2947 56.8544 48.36C56.8124 48.4253 56.7331 48.458 56.6164 48.458H51.8984C51.9078 48.906 51.9684 49.2957 52.0804 49.627C52.1924 49.9583 52.3464 50.236 52.5424 50.46C52.7384 50.6793 52.9718 50.845 53.2424 50.957C53.5131 51.0643 53.8164 51.118 54.1524 51.118C54.4651 51.118 54.7334 51.083 54.9574 51.013C55.1861 50.9383 55.3821 50.859 55.5454 50.775C55.7088 50.691 55.8441 50.614 55.9514 50.544C56.0634 50.4693 56.1591 50.432 56.2384 50.432C56.3411 50.432 56.4204 50.4717 56.4764 50.551L56.8264 51.006C56.6724 51.1927 56.4881 51.356 56.2734 51.496C56.0588 51.6313 55.8278 51.7433 55.5804 51.832C55.3378 51.9207 55.0858 51.986 54.8244 52.028C54.5631 52.0747 54.3041 52.098 54.0474 52.098C53.5574 52.098 53.1048 52.0163 52.6894 51.853C52.2788 51.685 51.9218 51.4423 51.6184 51.125C51.3198 50.803 51.0864 50.4063 50.9184 49.935C50.7504 49.4637 50.6664 48.9223 50.6664 48.311C50.6664 47.8163 50.7411 47.3543 50.8904 46.925C51.0444 46.4957 51.2638 46.1247 51.5484 45.812C51.8331 45.4947 52.1808 45.2473 52.5914 45.07C53.0021 44.888 53.4641 44.797 53.9774 44.797ZM54.0054 45.714C53.4034 45.714 52.9298 45.889 52.5844 46.239C52.2391 46.5843 52.0244 47.065 51.9404 47.681H55.7974C55.7974 47.3917 55.7578 47.128 55.6784 46.89C55.5991 46.6473 55.4824 46.4397 55.3284 46.267C55.1744 46.0897 54.9854 45.9543 54.7614 45.861C54.5421 45.763 54.2901 45.714 54.0054 45.714ZM59.7474 48.367L57.3604 44.909H58.5574C58.6601 44.909 58.7347 44.9253 58.7814 44.958C58.8281 44.9907 58.8701 45.0373 58.9074 45.098L60.6434 47.758C60.6854 47.6273 60.7461 47.4967 60.8254 47.366L62.3514 45.126C62.3981 45.0607 62.4447 45.0093 62.4914 44.972C62.5381 44.93 62.5964 44.909 62.6664 44.909H63.8144L61.4274 48.297L63.9124 52H62.7154C62.6127 52 62.5311 51.9743 62.4704 51.923C62.4144 51.867 62.3677 51.8063 62.3304 51.741L60.5454 48.962C60.5127 49.0973 60.4637 49.2187 60.3984 49.326L58.7464 51.741C58.6997 51.8063 58.6484 51.867 58.5924 51.923C58.5411 51.9743 58.4687 52 58.3754 52H57.2624L59.7474 48.367ZM67.2921 52.112C66.7321 52.112 66.3004 51.9557 65.9971 51.643C65.6984 51.3303 65.5491 50.88 65.5491 50.292V45.952H64.6951C64.6204 45.952 64.5574 45.931 64.5061 45.889C64.4548 45.8423 64.4291 45.7723 64.4291 45.679V45.182L65.5911 45.035L65.8781 42.844C65.8874 42.774 65.9178 42.718 65.9691 42.676C66.0204 42.6293 66.0858 42.606 66.1651 42.606H66.7951V45.049H68.8251V45.952H66.7951V50.208C66.7951 50.5067 66.8674 50.7283 67.0121 50.873C67.1568 51.0177 67.3434 51.09 67.5721 51.09C67.7028 51.09 67.8148 51.0737 67.9081 51.041C68.0061 51.0037 68.0901 50.964 68.1601 50.922C68.2301 50.88 68.2884 50.8427 68.3351 50.81C68.3864 50.7727 68.4308 50.754 68.4681 50.754C68.5334 50.754 68.5918 50.7937 68.6431 50.873L69.0071 51.468C68.7924 51.6687 68.5334 51.8273 68.2301 51.944C67.9268 52.056 67.6141 52.112 67.2921 52.112Z" fill="#6A6A6A"/>
</svg>
