<svg width="679" height="449" viewBox="0 0 679 449" fill="none" xmlns="http://www.w3.org/2000/svg">
<rect x="0.5" y="-0.5" width="678" height="448" rx="5.5" transform="matrix(1 0 0 -1 0 448)" fill="white" stroke="#DBDBDB"/>
<path d="M1 7C1 3.68629 3.68629 1 7 1H672C675.314 1 678 3.68629 678 7V65H1V7Z" fill="#F8F8F8"/>
<line y1="377.5" x2="679" y2="377.5" stroke="#DBDBDB"/>
<g opacity="0.3">
<rect x="565" y="394" width="89" height="38" rx="19" fill="#0064D1"/>
<path d="M586.908 418V406.536H590.564C591.268 406.536 591.873 406.605 592.38 406.744C592.892 406.883 593.31 407.08 593.636 407.336C593.966 407.592 594.209 407.907 594.364 408.28C594.524 408.648 594.604 409.064 594.604 409.528C594.604 409.811 594.558 410.083 594.468 410.344C594.382 410.605 594.249 410.848 594.068 411.072C593.892 411.296 593.668 411.496 593.396 411.672C593.129 411.848 592.814 411.992 592.452 412.104C593.289 412.269 593.921 412.571 594.348 413.008C594.774 413.445 594.988 414.021 594.988 414.736C594.988 415.221 594.897 415.664 594.716 416.064C594.54 416.464 594.278 416.808 593.932 417.096C593.59 417.384 593.169 417.608 592.668 417.768C592.172 417.923 591.604 418 590.964 418H586.908ZM588.46 412.776V416.768H590.94C591.382 416.768 591.761 416.717 592.076 416.616C592.396 416.515 592.657 416.373 592.86 416.192C593.068 416.005 593.22 415.787 593.316 415.536C593.412 415.28 593.46 415 593.46 414.696C593.46 414.104 593.249 413.637 592.828 413.296C592.412 412.949 591.78 412.776 590.932 412.776H588.46ZM588.46 411.672H590.508C590.945 411.672 591.324 411.624 591.644 411.528C591.964 411.432 592.228 411.299 592.436 411.128C592.649 410.957 592.806 410.752 592.908 410.512C593.009 410.267 593.06 410 593.06 409.712C593.06 409.04 592.857 408.547 592.452 408.232C592.046 407.917 591.417 407.76 590.564 407.76H588.46V411.672ZM598.275 409.896V415.064C598.275 415.677 598.416 416.152 598.699 416.488C598.982 416.824 599.408 416.992 599.979 416.992C600.395 416.992 600.787 416.893 601.155 416.696C601.523 416.499 601.862 416.224 602.171 415.872V409.896H603.595V418H602.747C602.544 418 602.416 417.901 602.363 417.704L602.251 416.832C601.899 417.221 601.504 417.536 601.067 417.776C600.63 418.011 600.128 418.128 599.563 418.128C599.12 418.128 598.728 418.056 598.387 417.912C598.051 417.763 597.768 417.555 597.539 417.288C597.31 417.021 597.136 416.699 597.019 416.32C596.907 415.941 596.851 415.523 596.851 415.064V409.896H598.275ZM608.39 418.128C607.75 418.128 607.256 417.949 606.91 417.592C606.568 417.235 606.398 416.72 606.398 416.048V411.088H605.422C605.336 411.088 605.264 411.064 605.206 411.016C605.147 410.963 605.118 410.883 605.118 410.776V410.208L606.446 410.04L606.774 407.536C606.784 407.456 606.819 407.392 606.878 407.344C606.936 407.291 607.011 407.264 607.102 407.264H607.822V410.056H610.142V411.088H607.822V415.952C607.822 416.293 607.904 416.547 608.07 416.712C608.235 416.877 608.448 416.96 608.71 416.96C608.859 416.96 608.987 416.941 609.094 416.904C609.206 416.861 609.302 416.816 609.382 416.768C609.462 416.72 609.528 416.677 609.582 416.64C609.64 416.597 609.691 416.576 609.734 416.576C609.808 416.576 609.875 416.621 609.934 416.712L610.35 417.392C610.104 417.621 609.808 417.803 609.462 417.936C609.115 418.064 608.758 418.128 608.39 418.128ZM614.358 418.128C613.718 418.128 613.225 417.949 612.878 417.592C612.537 417.235 612.366 416.72 612.366 416.048V411.088H611.39C611.305 411.088 611.233 411.064 611.174 411.016C611.116 410.963 611.086 410.883 611.086 410.776V410.208L612.414 410.04L612.742 407.536C612.753 407.456 612.788 407.392 612.846 407.344C612.905 407.291 612.98 407.264 613.07 407.264H613.79V410.056H616.11V411.088H613.79V415.952C613.79 416.293 613.873 416.547 614.038 416.712C614.204 416.877 614.417 416.96 614.678 416.96C614.828 416.96 614.956 416.941 615.062 416.904C615.174 416.861 615.27 416.816 615.35 416.768C615.43 416.72 615.497 416.677 615.55 416.64C615.609 416.597 615.66 416.576 615.702 416.576C615.777 416.576 615.844 416.621 615.902 416.712L616.318 417.392C616.073 417.621 615.777 417.803 615.43 417.936C615.084 418.064 614.726 418.128 614.358 418.128ZM621.151 409.768C621.743 409.768 622.276 409.867 622.751 410.064C623.231 410.261 623.636 410.541 623.967 410.904C624.303 411.267 624.559 411.707 624.735 412.224C624.916 412.736 625.007 413.309 625.007 413.944C625.007 414.584 624.916 415.16 624.735 415.672C624.559 416.184 624.303 416.621 623.967 416.984C623.636 417.347 623.231 417.627 622.751 417.824C622.276 418.016 621.743 418.112 621.151 418.112C620.559 418.112 620.023 418.016 619.543 417.824C619.068 417.627 618.663 417.347 618.327 416.984C617.991 416.621 617.732 416.184 617.551 415.672C617.37 415.16 617.279 414.584 617.279 413.944C617.279 413.309 617.37 412.736 617.551 412.224C617.732 411.707 617.991 411.267 618.327 410.904C618.663 410.541 619.068 410.261 619.543 410.064C620.023 409.867 620.559 409.768 621.151 409.768ZM621.151 417C621.951 417 622.548 416.733 622.943 416.2C623.338 415.661 623.535 414.912 623.535 413.952C623.535 412.987 623.338 412.235 622.943 411.696C622.548 411.157 621.951 410.888 621.151 410.888C620.746 410.888 620.394 410.957 620.095 411.096C619.796 411.235 619.546 411.435 619.343 411.696C619.146 411.957 618.996 412.28 618.895 412.664C618.799 413.043 618.751 413.472 618.751 413.952C618.751 414.432 618.799 414.861 618.895 415.24C618.996 415.619 619.146 415.939 619.343 416.2C619.546 416.456 619.796 416.653 620.095 416.792C620.394 416.931 620.746 417 621.151 417ZM626.762 418V409.896H627.61C627.812 409.896 627.94 409.995 627.994 410.192L628.106 411.072C628.458 410.683 628.85 410.368 629.282 410.128C629.719 409.888 630.223 409.768 630.794 409.768C631.236 409.768 631.626 409.843 631.962 409.992C632.303 410.136 632.586 410.344 632.81 410.616C633.039 410.883 633.212 411.205 633.33 411.584C633.447 411.963 633.506 412.381 633.506 412.84V418H632.082V412.84C632.082 412.227 631.94 411.752 631.658 411.416C631.38 411.075 630.954 410.904 630.378 410.904C629.956 410.904 629.562 411.005 629.194 411.208C628.831 411.411 628.495 411.685 628.186 412.032V418H626.762Z" fill="white"/>
</g>
<path d="M28.87 33.64V39H26.94V24.67H31.17C32.0767 24.67 32.8633 24.7767 33.53 24.99C34.2033 25.1967 34.76 25.4933 35.2 25.88C35.64 26.2667 35.9667 26.7333 36.18 27.28C36.4 27.8267 36.51 28.4367 36.51 29.11C36.51 29.7767 36.3933 30.3867 36.16 30.94C35.9267 31.4933 35.5833 31.97 35.13 32.37C34.6833 32.77 34.1267 33.0833 33.46 33.31C32.7933 33.53 32.03 33.64 31.17 33.64H28.87ZM28.87 32.1H31.17C31.7233 32.1 32.21 32.0267 32.63 31.88C33.0567 31.7333 33.4133 31.53 33.7 31.27C33.9867 31.0033 34.2033 30.6867 34.35 30.32C34.4967 29.9533 34.57 29.55 34.57 29.11C34.57 28.1967 34.2867 27.4833 33.72 26.97C33.16 26.4567 32.31 26.2 31.17 26.2H28.87V32.1ZM38.6866 39V28.87H39.7066C39.8999 28.87 40.0332 28.9067 40.1066 28.98C40.1799 29.0533 40.2299 29.18 40.2566 29.36L40.3766 30.94C40.7232 30.2333 41.1499 29.6833 41.6566 29.29C42.1699 28.89 42.7699 28.69 43.4566 28.69C43.7366 28.69 43.9899 28.7233 44.2166 28.79C44.4432 28.85 44.6532 28.9367 44.8466 29.05L44.6166 30.38C44.5699 30.5467 44.4666 30.63 44.3066 30.63C44.2132 30.63 44.0699 30.6 43.8766 30.54C43.6832 30.4733 43.4132 30.44 43.0666 30.44C42.4466 30.44 41.9266 30.62 41.5066 30.98C41.0932 31.34 40.7466 31.8633 40.4666 32.55V39H38.6866ZM50.853 28.71C51.593 28.71 52.2596 28.8333 52.853 29.08C53.453 29.3267 53.9596 29.6767 54.373 30.13C54.793 30.5833 55.113 31.1333 55.333 31.78C55.5596 32.42 55.673 33.1367 55.673 33.93C55.673 34.73 55.5596 35.45 55.333 36.09C55.113 36.73 54.793 37.2767 54.373 37.73C53.9596 38.1833 53.453 38.5333 52.853 38.78C52.2596 39.02 51.593 39.14 50.853 39.14C50.113 39.14 49.443 39.02 48.843 38.78C48.2496 38.5333 47.743 38.1833 47.323 37.73C46.903 37.2767 46.5796 36.73 46.353 36.09C46.1263 35.45 46.013 34.73 46.013 33.93C46.013 33.1367 46.1263 32.42 46.353 31.78C46.5796 31.1333 46.903 30.5833 47.323 30.13C47.743 29.6767 48.2496 29.3267 48.843 29.08C49.443 28.8333 50.113 28.71 50.853 28.71ZM50.853 37.75C51.853 37.75 52.5996 37.4167 53.093 36.75C53.5863 36.0767 53.833 35.14 53.833 33.94C53.833 32.7333 53.5863 31.7933 53.093 31.12C52.5996 30.4467 51.853 30.11 50.853 30.11C50.3463 30.11 49.9063 30.1967 49.533 30.37C49.1596 30.5433 48.8463 30.7933 48.593 31.12C48.3463 31.4467 48.1596 31.85 48.033 32.33C47.913 32.8033 47.853 33.34 47.853 33.94C47.853 34.54 47.913 35.0767 48.033 35.55C48.1596 36.0233 48.3463 36.4233 48.593 36.75C48.8463 37.07 49.1596 37.3167 49.533 37.49C49.9063 37.6633 50.3463 37.75 50.853 37.75ZM61.2763 28.7C61.7163 28.7 62.1263 28.75 62.5063 28.85C62.8929 28.9433 63.2429 29.0833 63.5563 29.27H66.3063V29.93C66.3063 30.15 66.1663 30.29 65.8863 30.35L64.7363 30.51C64.9629 30.9433 65.0763 31.4267 65.0763 31.96C65.0763 32.4533 64.9796 32.9033 64.7863 33.31C64.5996 33.71 64.3363 34.0533 63.9963 34.34C63.6629 34.6267 63.2629 34.8467 62.7963 35C62.3363 35.1533 61.8296 35.23 61.2763 35.23C60.8029 35.23 60.3563 35.1733 59.9363 35.06C59.7229 35.1933 59.5596 35.3367 59.4463 35.49C59.3396 35.6433 59.2863 35.7933 59.2863 35.94C59.2863 36.18 59.3829 36.3633 59.5763 36.49C59.7696 36.61 60.0263 36.6967 60.3463 36.75C60.6663 36.8033 61.0296 36.8367 61.4363 36.85C61.8429 36.8633 62.2563 36.8867 62.6763 36.92C63.1029 36.9467 63.5196 36.9967 63.9263 37.07C64.3329 37.1433 64.6963 37.2633 65.0163 37.43C65.3363 37.5967 65.5929 37.8267 65.7863 38.12C65.9796 38.4133 66.0763 38.7933 66.0763 39.26C66.0763 39.6933 65.9663 40.1133 65.7463 40.52C65.5329 40.9267 65.2229 41.2867 64.8163 41.6C64.4096 41.92 63.9129 42.1733 63.3263 42.36C62.7396 42.5533 62.0763 42.65 61.3363 42.65C60.5963 42.65 59.9463 42.5767 59.3863 42.43C58.8329 42.2833 58.3729 42.0867 58.0063 41.84C57.6396 41.5933 57.3629 41.3067 57.1763 40.98C56.9963 40.66 56.9063 40.3233 56.9063 39.97C56.9063 39.47 57.0629 39.0467 57.3763 38.7C57.6963 38.3467 58.1329 38.0667 58.6863 37.86C58.3996 37.7267 58.1696 37.55 57.9963 37.33C57.8296 37.1033 57.7463 36.8033 57.7463 36.43C57.7463 36.2833 57.7729 36.1333 57.8263 35.98C57.8796 35.82 57.9596 35.6633 58.0663 35.51C58.1796 35.3567 58.3163 35.21 58.4763 35.07C58.6363 34.93 58.8229 34.8067 59.0363 34.7C58.5363 34.42 58.1429 34.05 57.8563 33.59C57.5763 33.1233 57.4363 32.58 57.4363 31.96C57.4363 31.4667 57.5296 31.02 57.7163 30.62C57.9096 30.2133 58.1763 29.87 58.5163 29.59C58.8563 29.3033 59.2596 29.0833 59.7263 28.93C60.1996 28.7767 60.7163 28.7 61.2763 28.7ZM64.4363 39.55C64.4363 39.2967 64.3663 39.0933 64.2263 38.94C64.0863 38.7867 63.8963 38.67 63.6563 38.59C63.4163 38.5033 63.1396 38.44 62.8263 38.4C62.5129 38.36 62.1829 38.3333 61.8363 38.32C61.4896 38.3 61.1363 38.28 60.7763 38.26C60.4163 38.24 60.0729 38.2033 59.7463 38.15C59.3663 38.33 59.0563 38.55 58.8163 38.81C58.5829 39.07 58.4663 39.38 58.4663 39.74C58.4663 39.9667 58.5229 40.1767 58.6363 40.37C58.7563 40.57 58.9363 40.74 59.1763 40.88C59.4163 41.0267 59.7163 41.14 60.0763 41.22C60.4429 41.3067 60.8729 41.35 61.3663 41.35C61.8463 41.35 62.2763 41.3067 62.6562 41.22C63.0363 41.1333 63.3563 41.01 63.6163 40.85C63.8829 40.69 64.0863 40.5 64.2263 40.28C64.3663 40.06 64.4363 39.8167 64.4363 39.55ZM61.2763 34.05C61.6363 34.05 61.9529 34 62.2263 33.9C62.5063 33.8 62.7396 33.66 62.9263 33.48C63.1129 33.3 63.2529 33.0867 63.3463 32.84C63.4396 32.5867 63.4863 32.31 63.4863 32.01C63.4863 31.39 63.2963 30.8967 62.9163 30.53C62.5429 30.1633 61.9963 29.98 61.2763 29.98C60.5629 29.98 60.0163 30.1633 59.6363 30.53C59.2629 30.8967 59.0763 31.39 59.0763 32.01C59.0763 32.31 59.1229 32.5867 59.2163 32.84C59.3163 33.0867 59.4596 33.3 59.6463 33.48C59.8329 33.66 60.0629 33.8 60.3363 33.9C60.6096 34 60.9229 34.05 61.2763 34.05ZM68.0811 39V28.87H69.1011C69.2944 28.87 69.4278 28.9067 69.5011 28.98C69.5744 29.0533 69.6244 29.18 69.6511 29.36L69.7711 30.94C70.1178 30.2333 70.5444 29.6833 71.0511 29.29C71.5644 28.89 72.1644 28.69 72.8511 28.69C73.1311 28.69 73.3844 28.7233 73.6111 28.79C73.8378 28.85 74.0478 28.9367 74.2411 29.05L74.0111 30.38C73.9644 30.5467 73.8611 30.63 73.7011 30.63C73.6078 30.63 73.4644 30.6 73.2711 30.54C73.0778 30.4733 72.8078 30.44 72.4611 30.44C71.8411 30.44 71.3211 30.62 70.9011 30.98C70.4878 31.34 70.1411 31.8633 69.8611 32.55V39H68.0811ZM80.1575 28.71C80.7642 28.71 81.3242 28.8133 81.8375 29.02C82.3508 29.22 82.7942 29.5133 83.1675 29.9C83.5408 30.28 83.8308 30.7533 84.0375 31.32C84.2508 31.88 84.3575 32.52 84.3575 33.24C84.3575 33.52 84.3275 33.7067 84.2675 33.8C84.2075 33.8933 84.0942 33.94 83.9275 33.94H77.1875C77.2008 34.58 77.2875 35.1367 77.4475 35.61C77.6075 36.0833 77.8275 36.48 78.1075 36.8C78.3875 37.1133 78.7208 37.35 79.1075 37.51C79.4942 37.6633 79.9275 37.74 80.4075 37.74C80.8542 37.74 81.2375 37.69 81.5575 37.59C81.8842 37.4833 82.1642 37.37 82.3975 37.25C82.6308 37.13 82.8242 37.02 82.9775 36.92C83.1375 36.8133 83.2742 36.76 83.3875 36.76C83.5342 36.76 83.6475 36.8167 83.7275 36.93L84.2275 37.58C84.0075 37.8467 83.7442 38.08 83.4375 38.28C83.1308 38.4733 82.8008 38.6333 82.4475 38.76C82.1008 38.8867 81.7408 38.98 81.3675 39.04C80.9942 39.1067 80.6242 39.14 80.2575 39.14C79.5575 39.14 78.9108 39.0233 78.3175 38.79C77.7308 38.55 77.2208 38.2033 76.7875 37.75C76.3608 37.29 76.0275 36.7233 75.7875 36.05C75.5475 35.3767 75.4275 34.6033 75.4275 33.73C75.4275 33.0233 75.5342 32.3633 75.7475 31.75C75.9675 31.1367 76.2808 30.6067 76.6875 30.16C77.0942 29.7067 77.5908 29.3533 78.1775 29.1C78.7642 28.84 79.4242 28.71 80.1575 28.71ZM80.1975 30.02C79.3375 30.02 78.6608 30.27 78.1675 30.77C77.6742 31.2633 77.3675 31.95 77.2475 32.83H82.7575C82.7575 32.4167 82.7008 32.04 82.5875 31.7C82.4742 31.3533 82.3075 31.0567 82.0875 30.81C81.8675 30.5567 81.5975 30.3633 81.2775 30.23C80.9642 30.09 80.6042 30.02 80.1975 30.02ZM92.4358 30.54C92.3558 30.6867 92.2324 30.76 92.0658 30.76C91.9658 30.76 91.8524 30.7233 91.7258 30.65C91.5991 30.5767 91.4424 30.4967 91.2558 30.41C91.0758 30.3167 90.8591 30.2333 90.6058 30.16C90.3524 30.08 90.0524 30.04 89.7058 30.04C89.4058 30.04 89.1358 30.08 88.8958 30.16C88.6558 30.2333 88.4491 30.3367 88.2758 30.47C88.1091 30.6033 87.9791 30.76 87.8858 30.94C87.7991 31.1133 87.7558 31.3033 87.7558 31.51C87.7558 31.77 87.8291 31.9867 87.9758 32.16C88.1291 32.3333 88.3291 32.4833 88.5758 32.61C88.8224 32.7367 89.1024 32.85 89.4158 32.95C89.7291 33.0433 90.0491 33.1467 90.3758 33.26C90.7091 33.3667 91.0324 33.4867 91.3458 33.62C91.6591 33.7533 91.9391 33.92 92.1858 34.12C92.4324 34.32 92.6291 34.5667 92.7758 34.86C92.9291 35.1467 93.0058 35.4933 93.0058 35.9C93.0058 36.3667 92.9224 36.8 92.7558 37.2C92.5891 37.5933 92.3424 37.9367 92.0158 38.23C91.6891 38.5167 91.2891 38.7433 90.8158 38.91C90.3424 39.0767 89.7958 39.16 89.1758 39.16C88.4691 39.16 87.8291 39.0467 87.2558 38.82C86.6824 38.5867 86.1958 38.29 85.7958 37.93L86.2158 37.25C86.2691 37.1633 86.3324 37.0967 86.4058 37.05C86.4791 37.0033 86.5758 36.98 86.6958 36.98C86.8158 36.98 86.9424 37.0267 87.0758 37.12C87.2091 37.2133 87.3691 37.3167 87.5558 37.43C87.7491 37.5433 87.9791 37.6467 88.2458 37.74C88.5191 37.8333 88.8591 37.88 89.2658 37.88C89.6124 37.88 89.9158 37.8367 90.1758 37.75C90.4358 37.6567 90.6524 37.5333 90.8258 37.38C90.9991 37.2267 91.1258 37.05 91.2058 36.85C91.2924 36.65 91.3358 36.4367 91.3358 36.21C91.3358 35.93 91.2591 35.7 91.1058 35.52C90.9591 35.3333 90.7624 35.1767 90.5158 35.05C90.2691 34.9167 89.9858 34.8033 89.6658 34.71C89.3524 34.61 89.0291 34.5067 88.6958 34.4C88.3691 34.2933 88.0458 34.1733 87.7258 34.04C87.4124 33.9 87.1324 33.7267 86.8858 33.52C86.6391 33.3133 86.4391 33.06 86.2858 32.76C86.1391 32.4533 86.0658 32.0833 86.0658 31.65C86.0658 31.2633 86.1458 30.8933 86.3058 30.54C86.4658 30.18 86.6991 29.8667 87.0058 29.6C87.3124 29.3267 87.6891 29.11 88.1358 28.95C88.5824 28.79 89.0924 28.71 89.6658 28.71C90.3324 28.71 90.9291 28.8167 91.4558 29.03C91.9891 29.2367 92.4491 29.5233 92.8358 29.89L92.4358 30.54ZM101.108 30.54C101.028 30.6867 100.904 30.76 100.738 30.76C100.638 30.76 100.524 30.7233 100.398 30.65C100.271 30.5767 100.114 30.4967 99.9277 30.41C99.7477 30.3167 99.531 30.2333 99.2777 30.16C99.0243 30.08 98.7243 30.04 98.3777 30.04C98.0777 30.04 97.8077 30.08 97.5677 30.16C97.3277 30.2333 97.121 30.3367 96.9477 30.47C96.781 30.6033 96.651 30.76 96.5577 30.94C96.471 31.1133 96.4277 31.3033 96.4277 31.51C96.4277 31.77 96.501 31.9867 96.6477 32.16C96.801 32.3333 97.001 32.4833 97.2477 32.61C97.4943 32.7367 97.7743 32.85 98.0877 32.95C98.401 33.0433 98.721 33.1467 99.0477 33.26C99.381 33.3667 99.7043 33.4867 100.018 33.62C100.331 33.7533 100.611 33.92 100.858 34.12C101.104 34.32 101.301 34.5667 101.448 34.86C101.601 35.1467 101.678 35.4933 101.678 35.9C101.678 36.3667 101.594 36.8 101.428 37.2C101.261 37.5933 101.014 37.9367 100.688 38.23C100.361 38.5167 99.961 38.7433 99.4877 38.91C99.0143 39.0767 98.4677 39.16 97.8477 39.16C97.141 39.16 96.501 39.0467 95.9277 38.82C95.3543 38.5867 94.8677 38.29 94.4677 37.93L94.8877 37.25C94.941 37.1633 95.0043 37.0967 95.0777 37.05C95.151 37.0033 95.2477 36.98 95.3677 36.98C95.4877 36.98 95.6143 37.0267 95.7477 37.12C95.881 37.2133 96.041 37.3167 96.2277 37.43C96.421 37.5433 96.651 37.6467 96.9177 37.74C97.191 37.8333 97.531 37.88 97.9377 37.88C98.2843 37.88 98.5877 37.8367 98.8477 37.75C99.1077 37.6567 99.3243 37.5333 99.4977 37.38C99.671 37.2267 99.7977 37.05 99.8777 36.85C99.9643 36.65 100.008 36.4367 100.008 36.21C100.008 35.93 99.931 35.7 99.7777 35.52C99.631 35.3333 99.4343 35.1767 99.1877 35.05C98.941 34.9167 98.6577 34.8033 98.3377 34.71C98.0243 34.61 97.701 34.5067 97.3677 34.4C97.041 34.2933 96.7177 34.1733 96.3977 34.04C96.0843 33.9 95.8043 33.7267 95.5577 33.52C95.311 33.3133 95.111 33.06 94.9577 32.76C94.811 32.4533 94.7377 32.0833 94.7377 31.65C94.7377 31.2633 94.8177 30.8933 94.9777 30.54C95.1377 30.18 95.371 29.8667 95.6777 29.6C95.9843 29.3267 96.361 29.11 96.8077 28.95C97.2543 28.79 97.7643 28.71 98.3377 28.71C99.0043 28.71 99.601 28.8167 100.128 29.03C100.661 29.2367 101.121 29.5233 101.508 29.89L101.108 30.54ZM107.907 39V24.27H109.697V30.33C110.117 29.8433 110.597 29.4533 111.137 29.16C111.683 28.86 112.307 28.71 113.007 28.71C113.593 28.71 114.123 28.82 114.597 29.04C115.07 29.26 115.473 29.59 115.807 30.03C116.14 30.4633 116.397 31.0033 116.577 31.65C116.757 32.29 116.847 33.03 116.847 33.87C116.847 34.6167 116.747 35.3133 116.547 35.96C116.347 36.6 116.057 37.1567 115.677 37.63C115.303 38.0967 114.843 38.4667 114.297 38.74C113.757 39.0067 113.147 39.14 112.467 39.14C111.813 39.14 111.257 39.0133 110.797 38.76C110.343 38.5067 109.947 38.1533 109.607 37.7L109.517 38.62C109.463 38.8733 109.31 39 109.057 39H107.907ZM112.427 30.13C111.847 30.13 111.337 30.2633 110.897 30.53C110.463 30.7967 110.063 31.1733 109.697 31.66V36.56C110.017 37 110.37 37.31 110.757 37.49C111.15 37.67 111.587 37.76 112.067 37.76C113.013 37.76 113.74 37.4233 114.247 36.75C114.753 36.0767 115.007 35.1167 115.007 33.87C115.007 33.21 114.947 32.6433 114.827 32.17C114.713 31.6967 114.547 31.31 114.327 31.01C114.107 30.7033 113.837 30.48 113.517 30.34C113.197 30.2 112.833 30.13 112.427 30.13ZM126.459 39H125.669C125.495 39 125.355 38.9733 125.249 38.92C125.142 38.8667 125.072 38.7533 125.039 38.58L124.839 37.64C124.572 37.88 124.312 38.0967 124.059 38.29C123.805 38.4767 123.539 38.6367 123.259 38.77C122.979 38.8967 122.679 38.9933 122.359 39.06C122.045 39.1267 121.695 39.16 121.309 39.16C120.915 39.16 120.545 39.1067 120.199 39C119.859 38.8867 119.562 38.72 119.309 38.5C119.055 38.28 118.852 38.0033 118.699 37.67C118.552 37.33 118.479 36.93 118.479 36.47C118.479 36.07 118.589 35.6867 118.809 35.32C119.029 34.9467 119.382 34.6167 119.869 34.33C120.362 34.0433 121.005 33.81 121.799 33.63C122.592 33.4433 123.562 33.3367 124.709 33.31V32.52C124.709 31.7333 124.539 31.14 124.199 30.74C123.865 30.3333 123.369 30.13 122.709 30.13C122.275 30.13 121.909 30.1867 121.609 30.3C121.315 30.4067 121.059 30.53 120.839 30.67C120.625 30.8033 120.439 30.9267 120.279 31.04C120.125 31.1467 119.972 31.2 119.819 31.2C119.699 31.2 119.592 31.17 119.499 31.11C119.412 31.0433 119.342 30.9633 119.289 30.87L118.969 30.3C119.529 29.76 120.132 29.3567 120.779 29.09C121.425 28.8233 122.142 28.69 122.929 28.69C123.495 28.69 123.999 28.7833 124.439 28.97C124.879 29.1567 125.249 29.4167 125.549 29.75C125.849 30.0833 126.075 30.4867 126.229 30.96C126.382 31.4333 126.459 31.9533 126.459 32.52V39ZM121.839 37.91C122.152 37.91 122.439 37.88 122.699 37.82C122.959 37.7533 123.202 37.6633 123.429 37.55C123.662 37.43 123.882 37.2867 124.089 37.12C124.302 36.9533 124.509 36.7633 124.709 36.55V34.44C123.889 34.4667 123.192 34.5333 122.619 34.64C122.045 34.74 121.579 34.8733 121.219 35.04C120.859 35.2067 120.595 35.4033 120.429 35.63C120.269 35.8567 120.189 36.11 120.189 36.39C120.189 36.6567 120.232 36.8867 120.319 37.08C120.405 37.2733 120.522 37.4333 120.669 37.56C120.815 37.68 120.989 37.77 121.189 37.83C121.389 37.8833 121.605 37.91 121.839 37.91ZM129.155 39V28.87H130.175C130.369 28.87 130.502 28.9067 130.575 28.98C130.649 29.0533 130.699 29.18 130.725 29.36L130.845 30.94C131.192 30.2333 131.619 29.6833 132.125 29.29C132.639 28.89 133.239 28.69 133.925 28.69C134.205 28.69 134.459 28.7233 134.685 28.79C134.912 28.85 135.122 28.9367 135.315 29.05L135.085 30.38C135.039 30.5467 134.935 30.63 134.775 30.63C134.682 30.63 134.539 30.6 134.345 30.54C134.152 30.4733 133.882 30.44 133.535 30.44C132.915 30.44 132.395 30.62 131.975 30.98C131.562 31.34 131.215 31.8633 130.935 32.55V39H129.155ZM148.219 39C147.966 39 147.806 38.8767 147.739 38.63L147.579 37.4C147.146 37.9267 146.649 38.35 146.089 38.67C145.536 38.9833 144.899 39.14 144.179 39.14C143.599 39.14 143.072 39.03 142.599 38.81C142.126 38.5833 141.722 38.2533 141.389 37.82C141.056 37.3867 140.799 36.8467 140.619 36.2C140.439 35.5533 140.349 34.81 140.349 33.97C140.349 33.2233 140.449 32.53 140.649 31.89C140.849 31.2433 141.136 30.6833 141.509 30.21C141.889 29.7367 142.349 29.3667 142.889 29.1C143.429 28.8267 144.042 28.69 144.729 28.69C145.349 28.69 145.879 28.7967 146.319 29.01C146.759 29.2167 147.152 29.51 147.499 29.89V24.27H149.279V39H148.219ZM144.769 37.7C145.349 37.7 145.856 37.5667 146.289 37.3C146.729 37.0333 147.132 36.6567 147.499 36.17V31.27C147.172 30.83 146.812 30.5233 146.419 30.35C146.032 30.17 145.602 30.08 145.129 30.08C144.182 30.08 143.456 30.4167 142.949 31.09C142.442 31.7633 142.189 32.7233 142.189 33.97C142.189 34.63 142.246 35.1967 142.359 35.67C142.472 36.1367 142.639 36.5233 142.859 36.83C143.079 37.13 143.349 37.35 143.669 37.49C143.989 37.63 144.356 37.7 144.769 37.7ZM154.241 28.87V39H152.461V28.87H154.241ZM154.641 25.69C154.641 25.8633 154.604 26.0267 154.531 26.18C154.464 26.3267 154.371 26.46 154.251 26.58C154.137 26.6933 154.004 26.7833 153.851 26.85C153.697 26.9167 153.534 26.95 153.361 26.95C153.187 26.95 153.024 26.9167 152.871 26.85C152.724 26.7833 152.591 26.6933 152.471 26.58C152.357 26.46 152.267 26.3267 152.201 26.18C152.134 26.0267 152.101 25.8633 152.101 25.69C152.101 25.5167 152.134 25.3533 152.201 25.2C152.267 25.04 152.357 24.9033 152.471 24.79C152.591 24.67 152.724 24.5767 152.871 24.51C153.024 24.4433 153.187 24.41 153.361 24.41C153.534 24.41 153.697 24.4433 153.851 24.51C154.004 24.5767 154.137 24.67 154.251 24.79C154.371 24.9033 154.464 25.04 154.531 25.2C154.604 25.3533 154.641 25.5167 154.641 25.69ZM164.818 39H164.028C163.855 39 163.715 38.9733 163.608 38.92C163.501 38.8667 163.431 38.7533 163.398 38.58L163.198 37.64C162.931 37.88 162.671 38.0967 162.418 38.29C162.165 38.4767 161.898 38.6367 161.618 38.77C161.338 38.8967 161.038 38.9933 160.718 39.06C160.405 39.1267 160.055 39.16 159.668 39.16C159.275 39.16 158.905 39.1067 158.558 39C158.218 38.8867 157.921 38.72 157.668 38.5C157.415 38.28 157.211 38.0033 157.058 37.67C156.911 37.33 156.838 36.93 156.838 36.47C156.838 36.07 156.948 35.6867 157.168 35.32C157.388 34.9467 157.741 34.6167 158.228 34.33C158.721 34.0433 159.365 33.81 160.158 33.63C160.951 33.4433 161.921 33.3367 163.068 33.31V32.52C163.068 31.7333 162.898 31.14 162.558 30.74C162.225 30.3333 161.728 30.13 161.068 30.13C160.635 30.13 160.268 30.1867 159.968 30.3C159.675 30.4067 159.418 30.53 159.198 30.67C158.985 30.8033 158.798 30.9267 158.638 31.04C158.485 31.1467 158.331 31.2 158.178 31.2C158.058 31.2 157.951 31.17 157.858 31.11C157.771 31.0433 157.701 30.9633 157.648 30.87L157.328 30.3C157.888 29.76 158.491 29.3567 159.138 29.09C159.785 28.8233 160.501 28.69 161.288 28.69C161.855 28.69 162.358 28.7833 162.798 28.97C163.238 29.1567 163.608 29.4167 163.908 29.75C164.208 30.0833 164.435 30.4867 164.588 30.96C164.741 31.4333 164.818 31.9533 164.818 32.52V39ZM160.198 37.91C160.511 37.91 160.798 37.88 161.058 37.82C161.318 37.7533 161.561 37.6633 161.788 37.55C162.021 37.43 162.241 37.2867 162.448 37.12C162.661 36.9533 162.868 36.7633 163.068 36.55V34.44C162.248 34.4667 161.551 34.5333 160.978 34.64C160.405 34.74 159.938 34.8733 159.578 35.04C159.218 35.2067 158.955 35.4033 158.788 35.63C158.628 35.8567 158.548 36.11 158.548 36.39C158.548 36.6567 158.591 36.8867 158.678 37.08C158.765 37.2733 158.881 37.4333 159.028 37.56C159.175 37.68 159.348 37.77 159.548 37.83C159.748 37.8833 159.965 37.91 160.198 37.91ZM169.495 24.27V39H167.715V24.27H169.495ZM176.732 28.71C177.472 28.71 178.139 28.8333 178.732 29.08C179.332 29.3267 179.839 29.6767 180.252 30.13C180.672 30.5833 180.992 31.1333 181.212 31.78C181.439 32.42 181.552 33.1367 181.552 33.93C181.552 34.73 181.439 35.45 181.212 36.09C180.992 36.73 180.672 37.2767 180.252 37.73C179.839 38.1833 179.332 38.5333 178.732 38.78C178.139 39.02 177.472 39.14 176.732 39.14C175.992 39.14 175.322 39.02 174.722 38.78C174.129 38.5333 173.622 38.1833 173.202 37.73C172.782 37.2767 172.459 36.73 172.232 36.09C172.005 35.45 171.892 34.73 171.892 33.93C171.892 33.1367 172.005 32.42 172.232 31.78C172.459 31.1333 172.782 30.5833 173.202 30.13C173.622 29.6767 174.129 29.3267 174.722 29.08C175.322 28.8333 175.992 28.71 176.732 28.71ZM176.732 37.75C177.732 37.75 178.479 37.4167 178.972 36.75C179.465 36.0767 179.712 35.14 179.712 33.94C179.712 32.7333 179.465 31.7933 178.972 31.12C178.479 30.4467 177.732 30.11 176.732 30.11C176.225 30.11 175.785 30.1967 175.412 30.37C175.039 30.5433 174.725 30.7933 174.472 31.12C174.225 31.4467 174.039 31.85 173.912 32.33C173.792 32.8033 173.732 33.34 173.732 33.94C173.732 34.54 173.792 35.0767 173.912 35.55C174.039 36.0233 174.225 36.4233 174.472 36.75C174.725 37.07 175.039 37.3167 175.412 37.49C175.785 37.6633 176.225 37.75 176.732 37.75ZM187.155 28.7C187.595 28.7 188.005 28.75 188.385 28.85C188.772 28.9433 189.122 29.0833 189.435 29.27H192.185V29.93C192.185 30.15 192.045 30.29 191.765 30.35L190.615 30.51C190.842 30.9433 190.955 31.4267 190.955 31.96C190.955 32.4533 190.858 32.9033 190.665 33.31C190.478 33.71 190.215 34.0533 189.875 34.34C189.542 34.6267 189.142 34.8467 188.675 35C188.215 35.1533 187.708 35.23 187.155 35.23C186.682 35.23 186.235 35.1733 185.815 35.06C185.602 35.1933 185.438 35.3367 185.325 35.49C185.218 35.6433 185.165 35.7933 185.165 35.94C185.165 36.18 185.262 36.3633 185.455 36.49C185.648 36.61 185.905 36.6967 186.225 36.75C186.545 36.8033 186.908 36.8367 187.315 36.85C187.722 36.8633 188.135 36.8867 188.555 36.92C188.982 36.9467 189.398 36.9967 189.805 37.07C190.212 37.1433 190.575 37.2633 190.895 37.43C191.215 37.5967 191.472 37.8267 191.665 38.12C191.858 38.4133 191.955 38.7933 191.955 39.26C191.955 39.6933 191.845 40.1133 191.625 40.52C191.412 40.9267 191.102 41.2867 190.695 41.6C190.288 41.92 189.792 42.1733 189.205 42.36C188.618 42.5533 187.955 42.65 187.215 42.65C186.475 42.65 185.825 42.5767 185.265 42.43C184.712 42.2833 184.252 42.0867 183.885 41.84C183.518 41.5933 183.242 41.3067 183.055 40.98C182.875 40.66 182.785 40.3233 182.785 39.97C182.785 39.47 182.942 39.0467 183.255 38.7C183.575 38.3467 184.012 38.0667 184.565 37.86C184.278 37.7267 184.048 37.55 183.875 37.33C183.708 37.1033 183.625 36.8033 183.625 36.43C183.625 36.2833 183.652 36.1333 183.705 35.98C183.758 35.82 183.838 35.6633 183.945 35.51C184.058 35.3567 184.195 35.21 184.355 35.07C184.515 34.93 184.702 34.8067 184.915 34.7C184.415 34.42 184.022 34.05 183.735 33.59C183.455 33.1233 183.315 32.58 183.315 31.96C183.315 31.4667 183.408 31.02 183.595 30.62C183.788 30.2133 184.055 29.87 184.395 29.59C184.735 29.3033 185.138 29.0833 185.605 28.93C186.078 28.7767 186.595 28.7 187.155 28.7ZM190.315 39.55C190.315 39.2967 190.245 39.0933 190.105 38.94C189.965 38.7867 189.775 38.67 189.535 38.59C189.295 38.5033 189.018 38.44 188.705 38.4C188.392 38.36 188.062 38.3333 187.715 38.32C187.368 38.3 187.015 38.28 186.655 38.26C186.295 38.24 185.952 38.2033 185.625 38.15C185.245 38.33 184.935 38.55 184.695 38.81C184.462 39.07 184.345 39.38 184.345 39.74C184.345 39.9667 184.402 40.1767 184.515 40.37C184.635 40.57 184.815 40.74 185.055 40.88C185.295 41.0267 185.595 41.14 185.955 41.22C186.322 41.3067 186.752 41.35 187.245 41.35C187.725 41.35 188.155 41.3067 188.535 41.22C188.915 41.1333 189.235 41.01 189.495 40.85C189.762 40.69 189.965 40.5 190.105 40.28C190.245 40.06 190.315 39.8167 190.315 39.55ZM187.155 34.05C187.515 34.05 187.832 34 188.105 33.9C188.385 33.8 188.618 33.66 188.805 33.48C188.992 33.3 189.132 33.0867 189.225 32.84C189.318 32.5867 189.365 32.31 189.365 32.01C189.365 31.39 189.175 30.8967 188.795 30.53C188.422 30.1633 187.875 29.98 187.155 29.98C186.442 29.98 185.895 30.1633 185.515 30.53C185.142 30.8967 184.955 31.39 184.955 32.01C184.955 32.31 185.002 32.5867 185.095 32.84C185.195 33.0867 185.338 33.3 185.525 33.48C185.712 33.66 185.942 33.8 186.215 33.9C186.488 34 186.802 34.05 187.155 34.05Z" fill="black"/>
<line x1="1" y1="64.5" x2="678" y2="64.5" stroke="#DBDBDB"/>
<rect x="622.5" y="17.5" width="31" height="31" rx="15.5" stroke="#2656C9"/>
<path fill-rule="evenodd" clip-rule="evenodd" d="M632.282 26.9059C632.637 26.5511 633.212 26.5511 633.567 26.9059L644.094 37.4332C644.449 37.7881 644.449 38.3634 644.094 38.7182C643.74 39.0731 643.164 39.0731 642.809 38.7182L632.282 28.1909C631.927 27.8361 631.927 27.2608 632.282 26.9059Z" fill="#2656C9"/>
<path fill-rule="evenodd" clip-rule="evenodd" d="M643.718 26.9059C643.363 26.5511 642.788 26.5511 642.433 26.9059L631.906 37.4332C631.551 37.7881 631.551 38.3634 631.906 38.7182C632.261 39.0731 632.836 39.0731 633.191 38.7182L643.718 28.1909C644.073 27.8361 644.073 27.2608 643.718 26.9059Z" fill="#2656C9"/>
<rect x="1" y="65" width="334" height="4" fill="#C2D95D"/>
</svg>
