<svg width="800" height="530" viewBox="0 0 800 530" fill="none" xmlns="http://www.w3.org/2000/svg">
<path d="M0 530H800V0H0V530Z" fill="#626262"/>
<path d="M0 20H800V0H0V20Z" fill="#DFDFDF"/>
<rect x="248" y="100" width="303" height="331" fill="white"/>
<rect x="277" y="133" width="247" height="20" fill="#D1D1D1"/>
<rect x="423" y="373" width="106" height="38" rx="19" fill="#0064D1"/>
<rect x="438" y="385" width="79" height="15" fill="white" fill-opacity="0.09"/>
<circle cx="288" cy="185" r="8" fill="white" stroke="#0064D1" stroke-width="6"/>
<rect x="311" y="180" width="118" height="10" fill="#D1D1D1"/>
<circle cx="288" cy="215" r="10" fill="white" stroke="#D8D8D8" stroke-width="2"/>
<rect x="311" y="210" width="118" height="10" fill="#D1D1D1"/>
<circle cx="288" cy="245" r="10" fill="white" stroke="#D8D8D8" stroke-width="2"/>
<rect x="311" y="240" width="118" height="10" fill="#D1D1D1"/>
<rect x="248" y="100" width="303" height="8" fill="#E5E5E5"/>
<rect x="248" y="100" width="207" height="8" fill="#0064D1"/>
</svg>
