<svg width="335" height="57" viewBox="0 0 335 57" fill="none" xmlns="http://www.w3.org/2000/svg">
<rect x="1" y="26" width="334" height="8" fill="#E5E5E5"/>
<rect x="1" y="26" width="334" height="8" fill="#C2D95D"/>
<path d="M7.264 6.328C7.216 6.408 7.16533 6.46933 7.112 6.512C7.05867 6.54933 6.98933 6.568 6.904 6.568C6.81333 6.568 6.70667 6.52267 6.584 6.432C6.46667 6.34133 6.31467 6.24267 6.128 6.136C5.94667 6.024 5.72533 5.92267 5.464 5.832C5.208 5.74133 4.896 5.696 4.528 5.696C4.18133 5.696 3.87467 5.744 3.608 5.84C3.34133 5.93067 3.11733 6.056 2.936 6.216C2.76 6.376 2.62667 6.56533 2.536 6.784C2.44533 6.99733 2.4 7.22933 2.4 7.48C2.4 7.8 2.47733 8.06667 2.632 8.28C2.792 8.488 3 8.66667 3.256 8.816C3.51733 8.96533 3.81067 9.096 4.136 9.208C4.46667 9.31467 4.80267 9.42667 5.144 9.544C5.49067 9.66133 5.82667 9.79467 6.152 9.944C6.48267 10.088 6.776 10.272 7.032 10.496C7.29333 10.72 7.50133 10.9947 7.656 11.32C7.816 11.6453 7.896 12.0453 7.896 12.52C7.896 13.0213 7.81067 13.4933 7.64 13.936C7.46933 14.3733 7.21867 14.7547 6.888 15.08C6.56267 15.4053 6.16 15.6613 5.68 15.848C5.20533 16.0347 4.664 16.128 4.056 16.128C3.31467 16.128 2.63733 15.9947 2.024 15.728C1.416 15.456 0.896 15.0907 0.464 14.632L0.912 13.896C0.954667 13.8373 1.00533 13.7893 1.064 13.752C1.128 13.7093 1.19733 13.688 1.272 13.688C1.384 13.688 1.512 13.7493 1.656 13.872C1.8 13.9893 1.97867 14.12 2.192 14.264C2.41067 14.408 2.672 14.5413 2.976 14.664C3.28533 14.7813 3.66133 14.84 4.104 14.84C4.472 14.84 4.8 14.7893 5.088 14.688C5.376 14.5867 5.61867 14.4453 5.816 14.264C6.01867 14.0773 6.17333 13.856 6.28 13.6C6.38667 13.344 6.44 13.0587 6.44 12.744C6.44 12.3973 6.36 12.1147 6.2 11.896C6.04533 11.672 5.84 11.4853 5.584 11.336C5.328 11.1867 5.03467 11.0613 4.704 10.96C4.37867 10.8533 4.04267 10.7467 3.696 10.64C3.35467 10.528 3.01867 10.4 2.688 10.256C2.36267 10.112 2.072 9.92533 1.816 9.696C1.56 9.46667 1.352 9.18133 1.192 8.84C1.03733 8.49333 0.96 8.06667 0.96 7.56C0.96 7.15467 1.03733 6.76267 1.192 6.384C1.352 6.00533 1.58133 5.66933 1.88 5.376C2.17867 5.08267 2.54667 4.848 2.984 4.672C3.42667 4.496 3.93333 4.408 4.504 4.408C5.144 4.408 5.728 4.50933 6.256 4.712C6.784 4.91467 7.24533 5.208 7.64 5.592L7.264 6.328ZM10.8844 7.896V13.064C10.8844 13.6773 11.0257 14.152 11.3084 14.488C11.591 14.824 12.0177 14.992 12.5884 14.992C13.0044 14.992 13.3964 14.8933 13.7644 14.696C14.1324 14.4987 14.471 14.224 14.7804 13.872V7.896H16.2044V16H15.3564C15.1537 16 15.0257 15.9013 14.9724 15.704L14.8604 14.832C14.5084 15.2213 14.1137 15.536 13.6764 15.776C13.239 16.0107 12.7377 16.128 12.1724 16.128C11.7297 16.128 11.3377 16.056 10.9964 15.912C10.6604 15.7627 10.3777 15.5547 10.1484 15.288C9.91904 15.0213 9.74571 14.6987 9.62838 14.32C9.51638 13.9413 9.46038 13.5227 9.46038 13.064V7.896H10.8844ZM24.071 9.336C24.0283 9.39467 23.9857 9.44 23.943 9.472C23.9003 9.504 23.839 9.52 23.759 9.52C23.679 9.52 23.591 9.488 23.495 9.424C23.4043 9.35467 23.287 9.28 23.143 9.2C22.999 9.12 22.823 9.048 22.615 8.984C22.4123 8.91467 22.1617 8.88 21.863 8.88C21.4683 8.88 21.119 8.952 20.815 9.096C20.511 9.23467 20.255 9.43733 20.047 9.704C19.8443 9.97067 19.6897 10.2933 19.583 10.672C19.4817 11.0507 19.431 11.4747 19.431 11.944C19.431 12.4347 19.487 12.872 19.599 13.256C19.711 13.6347 19.8683 13.9547 20.071 14.216C20.2737 14.472 20.519 14.6693 20.807 14.808C21.1003 14.9413 21.4283 15.008 21.791 15.008C22.1377 15.008 22.423 14.968 22.647 14.888C22.871 14.8027 23.0577 14.7093 23.207 14.608C23.3563 14.5067 23.479 14.416 23.575 14.336C23.671 14.2507 23.767 14.208 23.863 14.208C23.9857 14.208 24.0763 14.2533 24.135 14.344L24.535 14.864C24.183 15.296 23.743 15.6133 23.215 15.816C22.687 16.0133 22.1297 16.112 21.543 16.112C21.0363 16.112 20.5643 16.0187 20.127 15.832C19.695 15.6453 19.319 15.376 18.999 15.024C18.679 14.6667 18.4257 14.2293 18.239 13.712C18.0577 13.1947 17.967 12.6053 17.967 11.944C17.967 11.3413 18.0497 10.784 18.215 10.272C18.3857 9.76 18.631 9.32 18.951 8.952C19.2763 8.57867 19.6763 8.288 20.151 8.08C20.6257 7.872 21.1697 7.768 21.783 7.768C22.3483 7.768 22.8497 7.86133 23.287 8.048C23.7243 8.22933 24.111 8.488 24.447 8.824L24.071 9.336ZM31.5398 9.336C31.4971 9.39467 31.4544 9.44 31.4118 9.472C31.3691 9.504 31.3078 9.52 31.2278 9.52C31.1478 9.52 31.0598 9.488 30.9638 9.424C30.8731 9.35467 30.7558 9.28 30.6118 9.2C30.4678 9.12 30.2918 9.048 30.0838 8.984C29.8811 8.91467 29.6304 8.88 29.3318 8.88C28.9371 8.88 28.5878 8.952 28.2838 9.096C27.9798 9.23467 27.7238 9.43733 27.5158 9.704C27.3131 9.97067 27.1584 10.2933 27.0518 10.672C26.9504 11.0507 26.8997 11.4747 26.8997 11.944C26.8997 12.4347 26.9558 12.872 27.0678 13.256C27.1798 13.6347 27.3371 13.9547 27.5398 14.216C27.7424 14.472 27.9878 14.6693 28.2758 14.808C28.5691 14.9413 28.8971 15.008 29.2598 15.008C29.6064 15.008 29.8918 14.968 30.1158 14.888C30.3398 14.8027 30.5264 14.7093 30.6758 14.608C30.8251 14.5067 30.9478 14.416 31.0438 14.336C31.1398 14.2507 31.2358 14.208 31.3318 14.208C31.4544 14.208 31.5451 14.2533 31.6038 14.344L32.0038 14.864C31.6518 15.296 31.2118 15.6133 30.6838 15.816C30.1558 16.0133 29.5984 16.112 29.0118 16.112C28.5051 16.112 28.0331 16.0187 27.5958 15.832C27.1638 15.6453 26.7878 15.376 26.4678 15.024C26.1478 14.6667 25.8944 14.2293 25.7078 13.712C25.5264 13.1947 25.4358 12.6053 25.4358 11.944C25.4358 11.3413 25.5184 10.784 25.6838 10.272C25.8544 9.76 26.0998 9.32 26.4198 8.952C26.7451 8.57867 27.1451 8.288 27.6198 8.08C28.0944 7.872 28.6384 7.768 29.2517 7.768C29.8171 7.768 30.3184 7.86133 30.7558 8.048C31.1931 8.22933 31.5798 8.488 31.9158 8.824L31.5398 9.336ZM36.6885 7.768C37.1738 7.768 37.6218 7.85067 38.0325 8.016C38.4432 8.176 38.7978 8.41067 39.0965 8.72C39.3952 9.024 39.6272 9.40267 39.7925 9.856C39.9632 10.304 40.0485 10.816 40.0485 11.392C40.0485 11.616 40.0245 11.7653 39.9765 11.84C39.9285 11.9147 39.8378 11.952 39.7045 11.952H34.3125C34.3232 12.464 34.3925 12.9093 34.5205 13.288C34.6485 13.6667 34.8245 13.984 35.0485 14.24C35.2725 14.4907 35.5392 14.68 35.8485 14.808C36.1578 14.9307 36.5045 14.992 36.8885 14.992C37.2458 14.992 37.5525 14.952 37.8085 14.872C38.0698 14.7867 38.2938 14.696 38.4805 14.6C38.6672 14.504 38.8218 14.416 38.9445 14.336C39.0725 14.2507 39.1818 14.208 39.2725 14.208C39.3898 14.208 39.4805 14.2533 39.5445 14.344L39.9445 14.864C39.7685 15.0773 39.5578 15.264 39.3125 15.424C39.0672 15.5787 38.8032 15.7067 38.5205 15.808C38.2432 15.9093 37.9552 15.984 37.6565 16.032C37.3578 16.0853 37.0618 16.112 36.7685 16.112C36.2085 16.112 35.6912 16.0187 35.2165 15.832C34.7472 15.64 34.3392 15.3627 33.9925 15C33.6512 14.632 33.3845 14.1787 33.1925 13.64C33.0005 13.1013 32.9045 12.4827 32.9045 11.784C32.9045 11.2187 32.9898 10.6907 33.1605 10.2C33.3365 9.70933 33.5872 9.28533 33.9125 8.928C34.2378 8.56533 34.6352 8.28267 35.1045 8.08C35.5738 7.872 36.1018 7.768 36.6885 7.768ZM36.7205 8.816C36.0325 8.816 35.4912 9.016 35.0965 9.416C34.7018 9.81067 34.4565 10.36 34.3605 11.064H38.7685C38.7685 10.7333 38.7232 10.432 38.6325 10.16C38.5418 9.88267 38.4085 9.64533 38.2325 9.448C38.0565 9.24533 37.8405 9.09067 37.5845 8.984C37.3338 8.872 37.0458 8.816 36.7205 8.816ZM46.5111 9.232C46.4471 9.34933 46.3485 9.408 46.2151 9.408C46.1351 9.408 46.0445 9.37867 45.9431 9.32C45.8418 9.26133 45.7165 9.19733 45.5671 9.128C45.4231 9.05333 45.2498 8.98667 45.0471 8.928C44.8445 8.864 44.6045 8.832 44.3271 8.832C44.0871 8.832 43.8711 8.864 43.6791 8.928C43.4871 8.98667 43.3218 9.06933 43.1831 9.176C43.0498 9.28267 42.9458 9.408 42.8711 9.552C42.8018 9.69067 42.7671 9.84267 42.7671 10.008C42.7671 10.216 42.8258 10.3893 42.9431 10.528C43.0658 10.6667 43.2258 10.7867 43.4231 10.888C43.6205 10.9893 43.8445 11.08 44.0951 11.16C44.3458 11.2347 44.6018 11.3173 44.8631 11.408C45.1298 11.4933 45.3885 11.5893 45.6391 11.696C45.8898 11.8027 46.1138 11.936 46.3111 12.096C46.5085 12.256 46.6658 12.4533 46.7831 12.688C46.9058 12.9173 46.9671 13.1947 46.9671 13.52C46.9671 13.8933 46.9005 14.24 46.7671 14.56C46.6338 14.8747 46.4365 15.1493 46.1751 15.384C45.9138 15.6133 45.5938 15.7947 45.2151 15.928C44.8365 16.0613 44.3991 16.128 43.9031 16.128C43.3378 16.128 42.8258 16.0373 42.3671 15.856C41.9085 15.6693 41.5191 15.432 41.1991 15.144L41.5351 14.6C41.5778 14.5307 41.6285 14.4773 41.6871 14.44C41.7458 14.4027 41.8231 14.384 41.9191 14.384C42.0151 14.384 42.1165 14.4213 42.2231 14.496C42.3298 14.5707 42.4578 14.6533 42.6071 14.744C42.7618 14.8347 42.9458 14.9173 43.1591 14.992C43.3778 15.0667 43.6498 15.104 43.9751 15.104C44.2525 15.104 44.4951 15.0693 44.7031 15C44.9111 14.9253 45.0845 14.8267 45.2231 14.704C45.3618 14.5813 45.4631 14.44 45.5271 14.28C45.5965 14.12 45.6311 13.9493 45.6311 13.768C45.6311 13.544 45.5698 13.36 45.4471 13.216C45.3298 13.0667 45.1725 12.9413 44.9751 12.84C44.7778 12.7333 44.5511 12.6427 44.2951 12.568C44.0445 12.488 43.7858 12.4053 43.5191 12.32C43.2578 12.2347 42.9991 12.1387 42.7431 12.032C42.4925 11.92 42.2685 11.7813 42.0711 11.616C41.8738 11.4507 41.7138 11.248 41.5911 11.008C41.4738 10.7627 41.4151 10.4667 41.4151 10.12C41.4151 9.81067 41.4791 9.51467 41.6071 9.232C41.7351 8.944 41.9218 8.69333 42.1671 8.48C42.4125 8.26133 42.7138 8.088 43.0711 7.96C43.4285 7.832 43.8365 7.768 44.2951 7.768C44.8285 7.768 45.3058 7.85333 45.7271 8.024C46.1538 8.18933 46.5218 8.41867 46.8311 8.712L46.5111 9.232ZM53.4486 9.232C53.3846 9.34933 53.286 9.408 53.1526 9.408C53.0726 9.408 52.982 9.37867 52.8806 9.32C52.7793 9.26133 52.654 9.19733 52.5046 9.128C52.3606 9.05333 52.1873 8.98667 51.9846 8.928C51.782 8.864 51.542 8.832 51.2646 8.832C51.0246 8.832 50.8086 8.864 50.6166 8.928C50.4246 8.98667 50.2593 9.06933 50.1206 9.176C49.9873 9.28267 49.8833 9.408 49.8086 9.552C49.7393 9.69067 49.7046 9.84267 49.7046 10.008C49.7046 10.216 49.7633 10.3893 49.8806 10.528C50.0033 10.6667 50.1633 10.7867 50.3606 10.888C50.558 10.9893 50.782 11.08 51.0326 11.16C51.2833 11.2347 51.5393 11.3173 51.8006 11.408C52.0673 11.4933 52.326 11.5893 52.5766 11.696C52.8273 11.8027 53.0513 11.936 53.2486 12.096C53.446 12.256 53.6033 12.4533 53.7206 12.688C53.8433 12.9173 53.9046 13.1947 53.9046 13.52C53.9046 13.8933 53.838 14.24 53.7046 14.56C53.5713 14.8747 53.374 15.1493 53.1126 15.384C52.8513 15.6133 52.5313 15.7947 52.1526 15.928C51.774 16.0613 51.3366 16.128 50.8406 16.128C50.2753 16.128 49.7633 16.0373 49.3046 15.856C48.846 15.6693 48.4566 15.432 48.1366 15.144L48.4726 14.6C48.5153 14.5307 48.566 14.4773 48.6246 14.44C48.6833 14.4027 48.7606 14.384 48.8566 14.384C48.9526 14.384 49.054 14.4213 49.1606 14.496C49.2673 14.5707 49.3953 14.6533 49.5446 14.744C49.6993 14.8347 49.8833 14.9173 50.0966 14.992C50.3153 15.0667 50.5873 15.104 50.9126 15.104C51.19 15.104 51.4326 15.0693 51.6406 15C51.8486 14.9253 52.022 14.8267 52.1606 14.704C52.2993 14.5813 52.4006 14.44 52.4646 14.28C52.534 14.12 52.5686 13.9493 52.5686 13.768C52.5686 13.544 52.5073 13.36 52.3846 13.216C52.2673 13.0667 52.11 12.9413 51.9126 12.84C51.7153 12.7333 51.4886 12.6427 51.2326 12.568C50.982 12.488 50.7233 12.4053 50.4566 12.32C50.1953 12.2347 49.9366 12.1387 49.6806 12.032C49.43 11.92 49.206 11.7813 49.0086 11.616C48.8113 11.4507 48.6513 11.248 48.5286 11.008C48.4113 10.7627 48.3526 10.4667 48.3526 10.12C48.3526 9.81067 48.4166 9.51467 48.5446 9.232C48.6726 8.944 48.8593 8.69333 49.1046 8.48C49.35 8.26133 49.6513 8.088 50.0086 7.96C50.366 7.832 50.774 7.768 51.2326 7.768C51.766 7.768 52.2433 7.85333 52.6646 8.024C53.0913 8.18933 53.4593 8.41867 53.7686 8.712L53.4486 9.232Z" fill="black"/>
<path d="M2.709 50.248V54H1.358V43.969H4.319C4.95367 43.969 5.50433 44.0437 5.971 44.193C6.44233 44.3377 6.832 44.5453 7.14 44.816C7.448 45.0867 7.67667 45.4133 7.826 45.796C7.98 46.1787 8.057 46.6057 8.057 47.077C8.057 47.5437 7.97533 47.9707 7.812 48.358C7.64867 48.7453 7.40833 49.079 7.091 49.359C6.77833 49.639 6.38867 49.8583 5.922 50.017C5.45533 50.171 4.921 50.248 4.319 50.248H2.709ZM2.709 49.17H4.319C4.70633 49.17 5.047 49.1187 5.341 49.016C5.63967 48.9133 5.88933 48.771 6.09 48.589C6.29067 48.4023 6.44233 48.1807 6.545 47.924C6.64767 47.6673 6.699 47.385 6.699 47.077C6.699 46.4377 6.50067 45.9383 6.104 45.579C5.712 45.2197 5.117 45.04 4.319 45.04H2.709V49.17ZM9.58059 54V46.909H10.2946C10.4299 46.909 10.5233 46.9347 10.5746 46.986C10.6259 47.0373 10.6609 47.126 10.6796 47.252L10.7636 48.358C11.0063 47.8633 11.3049 47.4783 11.6596 47.203C12.0189 46.923 12.4389 46.783 12.9196 46.783C13.1156 46.783 13.2929 46.8063 13.4516 46.853C13.6103 46.895 13.7573 46.9557 13.8926 47.035L13.7316 47.966C13.6989 48.0827 13.6266 48.141 13.5146 48.141C13.4493 48.141 13.3489 48.12 13.2136 48.078C13.0783 48.0313 12.8893 48.008 12.6466 48.008C12.2126 48.008 11.8486 48.134 11.5546 48.386C11.2653 48.638 11.0226 49.0043 10.8266 49.485V54H9.58059ZM18.0971 46.797C18.6151 46.797 19.0817 46.8833 19.4971 47.056C19.9171 47.2287 20.2717 47.4737 20.5611 47.791C20.8551 48.1083 21.0791 48.4933 21.2331 48.946C21.3917 49.394 21.4711 49.8957 21.4711 50.451C21.4711 51.011 21.3917 51.515 21.2331 51.963C21.0791 52.411 20.8551 52.7937 20.5611 53.111C20.2717 53.4283 19.9171 53.6733 19.4971 53.846C19.0817 54.014 18.6151 54.098 18.0971 54.098C17.5791 54.098 17.1101 54.014 16.6901 53.846C16.2747 53.6733 15.9201 53.4283 15.6261 53.111C15.3321 52.7937 15.1057 52.411 14.9471 51.963C14.7884 51.515 14.7091 51.011 14.7091 50.451C14.7091 49.8957 14.7884 49.394 14.9471 48.946C15.1057 48.4933 15.3321 48.1083 15.6261 47.791C15.9201 47.4737 16.2747 47.2287 16.6901 47.056C17.1101 46.8833 17.5791 46.797 18.0971 46.797ZM18.0971 53.125C18.7971 53.125 19.3197 52.8917 19.6651 52.425C20.0104 51.9537 20.1831 51.298 20.1831 50.458C20.1831 49.6133 20.0104 48.9553 19.6651 48.484C19.3197 48.0127 18.7971 47.777 18.0971 47.777C17.7424 47.777 17.4344 47.8377 17.1731 47.959C16.9117 48.0803 16.6924 48.2553 16.5151 48.484C16.3424 48.7127 16.2117 48.995 16.1231 49.331C16.0391 49.6623 15.9971 50.038 15.9971 50.458C15.9971 50.878 16.0391 51.2537 16.1231 51.585C16.2117 51.9163 16.3424 52.1963 16.5151 52.425C16.6924 52.649 16.9117 52.8217 17.1731 52.943C17.4344 53.0643 17.7424 53.125 18.0971 53.125ZM27.8434 48.169C27.806 48.2203 27.7687 48.26 27.7314 48.288C27.694 48.316 27.6404 48.33 27.5704 48.33C27.5004 48.33 27.4234 48.302 27.3394 48.246C27.26 48.1853 27.1574 48.12 27.0314 48.05C26.9054 47.98 26.7514 47.917 26.5694 47.861C26.392 47.8003 26.1727 47.77 25.9114 47.77C25.566 47.77 25.2604 47.833 24.9944 47.959C24.7284 48.0803 24.5044 48.2577 24.3224 48.491C24.145 48.7243 24.0097 49.0067 23.9164 49.338C23.8277 49.6693 23.7834 50.0403 23.7834 50.451C23.7834 50.8803 23.8324 51.263 23.9304 51.599C24.0284 51.9303 24.166 52.2103 24.3434 52.439C24.5207 52.663 24.7354 52.8357 24.9874 52.957C25.244 53.0737 25.531 53.132 25.8484 53.132C26.1517 53.132 26.4014 53.097 26.5974 53.027C26.7934 52.9523 26.9567 52.8707 27.0874 52.782C27.218 52.6933 27.3254 52.614 27.4094 52.544C27.4934 52.4693 27.5774 52.432 27.6614 52.432C27.7687 52.432 27.848 52.4717 27.8994 52.551L28.2494 53.006C27.9414 53.384 27.5564 53.6617 27.0944 53.839C26.6324 54.0117 26.1447 54.098 25.6314 54.098C25.188 54.098 24.775 54.0163 24.3924 53.853C24.0144 53.6897 23.6854 53.454 23.4054 53.146C23.1254 52.8333 22.9037 52.4507 22.7404 51.998C22.5817 51.5453 22.5024 51.0297 22.5024 50.451C22.5024 49.9237 22.5747 49.436 22.7194 48.988C22.8687 48.54 23.0834 48.155 23.3634 47.833C23.648 47.5063 23.998 47.252 24.4134 47.07C24.8287 46.888 25.3047 46.797 25.8414 46.797C26.336 46.797 26.7747 46.8787 27.1574 47.042C27.54 47.2007 27.8784 47.427 28.1724 47.721L27.8434 48.169ZM32.3485 46.797C32.7732 46.797 33.1652 46.8693 33.5245 47.014C33.8839 47.154 34.1942 47.3593 34.4555 47.63C34.7169 47.896 34.9199 48.2273 35.0645 48.624C35.2139 49.016 35.2885 49.464 35.2885 49.968C35.2885 50.164 35.2675 50.2947 35.2255 50.36C35.1835 50.4253 35.1042 50.458 34.9875 50.458H30.2695C30.2789 50.906 30.3395 51.2957 30.4515 51.627C30.5635 51.9583 30.7175 52.236 30.9135 52.46C31.1095 52.6793 31.3429 52.845 31.6135 52.957C31.8842 53.0643 32.1875 53.118 32.5235 53.118C32.8362 53.118 33.1045 53.083 33.3285 53.013C33.5572 52.9383 33.7532 52.859 33.9165 52.775C34.0799 52.691 34.2152 52.614 34.3225 52.544C34.4345 52.4693 34.5302 52.432 34.6095 52.432C34.7122 52.432 34.7915 52.4717 34.8475 52.551L35.1975 53.006C35.0435 53.1927 34.8592 53.356 34.6445 53.496C34.4299 53.6313 34.1989 53.7433 33.9515 53.832C33.7089 53.9207 33.4569 53.986 33.1955 54.028C32.9342 54.0747 32.6752 54.098 32.4185 54.098C31.9285 54.098 31.4759 54.0163 31.0605 53.853C30.6499 53.685 30.2929 53.4423 29.9895 53.125C29.6909 52.803 29.4575 52.4063 29.2895 51.935C29.1215 51.4637 29.0375 50.9223 29.0375 50.311C29.0375 49.8163 29.1122 49.3543 29.2615 48.925C29.4155 48.4957 29.6349 48.1247 29.9195 47.812C30.2042 47.4947 30.5519 47.2473 30.9625 47.07C31.3732 46.888 31.8352 46.797 32.3485 46.797ZM32.3765 47.714C31.7745 47.714 31.3009 47.889 30.9555 48.239C30.6102 48.5843 30.3955 49.065 30.3115 49.681H34.1685C34.1685 49.3917 34.1289 49.128 34.0495 48.89C33.9702 48.6473 33.8535 48.4397 33.6995 48.267C33.5455 48.0897 33.3565 47.9543 33.1325 47.861C32.9132 47.763 32.6612 47.714 32.3765 47.714ZM40.9433 48.078C40.8873 48.1807 40.801 48.232 40.6843 48.232C40.6143 48.232 40.535 48.2063 40.4463 48.155C40.3577 48.1037 40.248 48.0477 40.1173 47.987C39.9913 47.9217 39.8397 47.8633 39.6623 47.812C39.485 47.756 39.275 47.728 39.0323 47.728C38.8223 47.728 38.6333 47.756 38.4653 47.812C38.2973 47.8633 38.1527 47.9357 38.0313 48.029C37.9147 48.1223 37.8237 48.232 37.7583 48.358C37.6977 48.4793 37.6673 48.6123 37.6673 48.757C37.6673 48.939 37.7187 49.0907 37.8213 49.212C37.9287 49.3333 38.0687 49.4383 38.2413 49.527C38.414 49.6157 38.61 49.695 38.8293 49.765C39.0487 49.8303 39.2727 49.9027 39.5013 49.982C39.7347 50.0567 39.961 50.1407 40.1803 50.234C40.3997 50.3273 40.5957 50.444 40.7683 50.584C40.941 50.724 41.0787 50.8967 41.1813 51.102C41.2887 51.3027 41.3423 51.5453 41.3423 51.83C41.3423 52.1567 41.284 52.46 41.1673 52.74C41.0507 53.0153 40.878 53.2557 40.6493 53.461C40.4207 53.6617 40.1407 53.8203 39.8093 53.937C39.478 54.0537 39.0953 54.112 38.6613 54.112C38.1667 54.112 37.7187 54.0327 37.3173 53.874C36.916 53.7107 36.5753 53.503 36.2953 53.251L36.5893 52.775C36.6267 52.7143 36.671 52.6677 36.7223 52.635C36.7737 52.6023 36.8413 52.586 36.9253 52.586C37.0093 52.586 37.098 52.6187 37.1913 52.684C37.2847 52.7493 37.3967 52.8217 37.5273 52.901C37.6627 52.9803 37.8237 53.0527 38.0103 53.118C38.2017 53.1833 38.4397 53.216 38.7243 53.216C38.967 53.216 39.1793 53.1857 39.3613 53.125C39.5433 53.0597 39.695 52.9733 39.8163 52.866C39.9377 52.7587 40.0263 52.635 40.0823 52.495C40.143 52.355 40.1733 52.2057 40.1733 52.047C40.1733 51.851 40.1197 51.69 40.0123 51.564C39.9097 51.4333 39.772 51.3237 39.5993 51.235C39.4267 51.1417 39.2283 51.0623 39.0043 50.997C38.785 50.927 38.5587 50.8547 38.3253 50.78C38.0967 50.7053 37.8703 50.6213 37.6463 50.528C37.427 50.43 37.231 50.3087 37.0583 50.164C36.8857 50.0193 36.7457 49.842 36.6383 49.632C36.5357 49.4173 36.4843 49.1583 36.4843 48.855C36.4843 48.5843 36.5403 48.3253 36.6523 48.078C36.7643 47.826 36.9277 47.6067 37.1423 47.42C37.357 47.2287 37.6207 47.077 37.9333 46.965C38.246 46.853 38.603 46.797 39.0043 46.797C39.471 46.797 39.8887 46.8717 40.2573 47.021C40.6307 47.1657 40.9527 47.3663 41.2233 47.623L40.9433 48.078ZM47.0136 48.078C46.9576 48.1807 46.8713 48.232 46.7546 48.232C46.6846 48.232 46.6053 48.2063 46.5166 48.155C46.428 48.1037 46.3183 48.0477 46.1876 47.987C46.0616 47.9217 45.91 47.8633 45.7326 47.812C45.5553 47.756 45.3453 47.728 45.1026 47.728C44.8926 47.728 44.7036 47.756 44.5356 47.812C44.3676 47.8633 44.223 47.9357 44.1016 48.029C43.985 48.1223 43.894 48.232 43.8286 48.358C43.768 48.4793 43.7376 48.6123 43.7376 48.757C43.7376 48.939 43.789 49.0907 43.8916 49.212C43.999 49.3333 44.139 49.4383 44.3116 49.527C44.4843 49.6157 44.6803 49.695 44.8996 49.765C45.119 49.8303 45.343 49.9027 45.5716 49.982C45.805 50.0567 46.0313 50.1407 46.2506 50.234C46.47 50.3273 46.666 50.444 46.8386 50.584C47.0113 50.724 47.149 50.8967 47.2516 51.102C47.359 51.3027 47.4126 51.5453 47.4126 51.83C47.4126 52.1567 47.3543 52.46 47.2376 52.74C47.121 53.0153 46.9483 53.2557 46.7196 53.461C46.491 53.6617 46.211 53.8203 45.8796 53.937C45.5483 54.0537 45.1656 54.112 44.7316 54.112C44.237 54.112 43.789 54.0327 43.3876 53.874C42.9863 53.7107 42.6456 53.503 42.3656 53.251L42.6596 52.775C42.697 52.7143 42.7413 52.6677 42.7926 52.635C42.844 52.6023 42.9116 52.586 42.9956 52.586C43.0796 52.586 43.1683 52.6187 43.2616 52.684C43.355 52.7493 43.467 52.8217 43.5976 52.901C43.733 52.9803 43.894 53.0527 44.0806 53.118C44.272 53.1833 44.51 53.216 44.7946 53.216C45.0373 53.216 45.2496 53.1857 45.4316 53.125C45.6136 53.0597 45.7653 52.9733 45.8866 52.866C46.008 52.7587 46.0966 52.635 46.1526 52.495C46.2133 52.355 46.2436 52.2057 46.2436 52.047C46.2436 51.851 46.19 51.69 46.0826 51.564C45.98 51.4333 45.8423 51.3237 45.6696 51.235C45.497 51.1417 45.2986 51.0623 45.0746 50.997C44.8553 50.927 44.629 50.8547 44.3956 50.78C44.167 50.7053 43.9406 50.6213 43.7166 50.528C43.4973 50.43 43.3013 50.3087 43.1286 50.164C42.956 50.0193 42.816 49.842 42.7086 49.632C42.606 49.4173 42.5546 49.1583 42.5546 48.855C42.5546 48.5843 42.6106 48.3253 42.7226 48.078C42.8346 47.826 42.998 47.6067 43.2126 47.42C43.4273 47.2287 43.691 47.077 44.0036 46.965C44.3163 46.853 44.6733 46.797 45.0746 46.797C45.5413 46.797 45.959 46.8717 46.3276 47.021C46.701 47.1657 47.023 47.3663 47.2936 47.623L47.0136 48.078ZM56.568 48.169C56.5307 48.2203 56.4933 48.26 56.456 48.288C56.4187 48.316 56.365 48.33 56.295 48.33C56.225 48.33 56.148 48.302 56.064 48.246C55.9847 48.1853 55.882 48.12 55.756 48.05C55.63 47.98 55.476 47.917 55.294 47.861C55.1167 47.8003 54.8973 47.77 54.636 47.77C54.2907 47.77 53.985 47.833 53.719 47.959C53.453 48.0803 53.229 48.2577 53.047 48.491C52.8697 48.7243 52.7343 49.0067 52.641 49.338C52.5523 49.6693 52.508 50.0403 52.508 50.451C52.508 50.8803 52.557 51.263 52.655 51.599C52.753 51.9303 52.8907 52.2103 53.068 52.439C53.2453 52.663 53.46 52.8357 53.712 52.957C53.9687 53.0737 54.2557 53.132 54.573 53.132C54.8763 53.132 55.126 53.097 55.322 53.027C55.518 52.9523 55.6813 52.8707 55.812 52.782C55.9427 52.6933 56.05 52.614 56.134 52.544C56.218 52.4693 56.302 52.432 56.386 52.432C56.4933 52.432 56.5727 52.4717 56.624 52.551L56.974 53.006C56.666 53.384 56.281 53.6617 55.819 53.839C55.357 54.0117 54.8693 54.098 54.356 54.098C53.9127 54.098 53.4997 54.0163 53.117 53.853C52.739 53.6897 52.41 53.454 52.13 53.146C51.85 52.8333 51.6283 52.4507 51.465 51.998C51.3063 51.5453 51.227 51.0297 51.227 50.451C51.227 49.9237 51.2993 49.436 51.444 48.988C51.5933 48.54 51.808 48.155 52.088 47.833C52.3727 47.5063 52.7227 47.252 53.138 47.07C53.5533 46.888 54.0293 46.797 54.566 46.797C55.0607 46.797 55.4993 46.8787 55.882 47.042C56.2647 47.2007 56.603 47.427 56.897 47.721L56.568 48.169ZM61.1361 46.797C61.6541 46.797 62.1208 46.8833 62.5361 47.056C62.9561 47.2287 63.3108 47.4737 63.6001 47.791C63.8941 48.1083 64.1181 48.4933 64.2721 48.946C64.4308 49.394 64.5101 49.8957 64.5101 50.451C64.5101 51.011 64.4308 51.515 64.2721 51.963C64.1181 52.411 63.8941 52.7937 63.6001 53.111C63.3108 53.4283 62.9561 53.6733 62.5361 53.846C62.1208 54.014 61.6541 54.098 61.1361 54.098C60.6181 54.098 60.1491 54.014 59.7291 53.846C59.3138 53.6733 58.9591 53.4283 58.6651 53.111C58.3711 52.7937 58.1448 52.411 57.9861 51.963C57.8275 51.515 57.7481 51.011 57.7481 50.451C57.7481 49.8957 57.8275 49.394 57.9861 48.946C58.1448 48.4933 58.3711 48.1083 58.6651 47.791C58.9591 47.4737 59.3138 47.2287 59.7291 47.056C60.1491 46.8833 60.6181 46.797 61.1361 46.797ZM61.1361 53.125C61.8361 53.125 62.3588 52.8917 62.7041 52.425C63.0495 51.9537 63.2221 51.298 63.2221 50.458C63.2221 49.6133 63.0495 48.9553 62.7041 48.484C62.3588 48.0127 61.8361 47.777 61.1361 47.777C60.7815 47.777 60.4735 47.8377 60.2121 47.959C59.9508 48.0803 59.7315 48.2553 59.5541 48.484C59.3815 48.7127 59.2508 48.995 59.1621 49.331C59.0781 49.6623 59.0361 50.038 59.0361 50.458C59.0361 50.878 59.0781 51.2537 59.1621 51.585C59.2508 51.9163 59.3815 52.1963 59.5541 52.425C59.7315 52.649 59.9508 52.8217 60.2121 52.943C60.4735 53.0643 60.7815 53.125 61.1361 53.125ZM66.0454 54V46.909H66.7874C66.9648 46.909 67.0768 46.9953 67.1234 47.168L67.2144 47.896C67.4758 47.574 67.7674 47.3103 68.0894 47.105C68.4161 46.8997 68.7941 46.797 69.2234 46.797C69.7041 46.797 70.0914 46.93 70.3854 47.196C70.6841 47.462 70.8988 47.8213 71.0294 48.274C71.1274 48.0173 71.2558 47.7957 71.4144 47.609C71.5778 47.4223 71.7598 47.2683 71.9604 47.147C72.1611 47.0257 72.3734 46.937 72.5974 46.881C72.8261 46.825 73.0571 46.797 73.2904 46.797C73.6638 46.797 73.9951 46.8577 74.2844 46.979C74.5784 47.0957 74.8258 47.2683 75.0264 47.497C75.2318 47.7257 75.3881 48.008 75.4954 48.344C75.6028 48.6753 75.6564 49.0557 75.6564 49.485V54H74.4104V49.485C74.4104 48.9297 74.2891 48.5097 74.0464 48.225C73.8038 47.9357 73.4514 47.791 72.9894 47.791C72.7841 47.791 72.5881 47.8283 72.4014 47.903C72.2194 47.973 72.0584 48.078 71.9184 48.218C71.7784 48.358 71.6664 48.5353 71.5824 48.75C71.5031 48.96 71.4634 49.205 71.4634 49.485V54H70.2174V49.485C70.2174 48.9157 70.1031 48.491 69.8744 48.211C69.6458 47.931 69.3121 47.791 68.8734 47.791C68.5654 47.791 68.2784 47.875 68.0124 48.043C67.7511 48.2063 67.5108 48.4303 67.2914 48.715V54H66.0454ZM77.5435 56.401V46.909H78.2855C78.4628 46.909 78.5748 46.9953 78.6215 47.168L78.7265 48.008C79.0298 47.6393 79.3752 47.343 79.7625 47.119C80.1545 46.895 80.6048 46.783 81.1135 46.783C81.5195 46.783 81.8882 46.8623 82.2195 47.021C82.5508 47.175 82.8332 47.406 83.0665 47.714C83.2998 48.0173 83.4795 48.3953 83.6055 48.848C83.7315 49.3007 83.7945 49.821 83.7945 50.409C83.7945 50.9317 83.7245 51.4193 83.5845 51.872C83.4445 52.32 83.2438 52.7097 82.9825 53.041C82.7212 53.3677 82.3992 53.6267 82.0165 53.818C81.6385 54.0047 81.2115 54.098 80.7355 54.098C80.2968 54.098 79.9212 54.0257 79.6085 53.881C79.3005 53.7363 79.0275 53.531 78.7895 53.265V56.401H77.5435ZM80.7005 47.791C80.2945 47.791 79.9375 47.8843 79.6295 48.071C79.3262 48.2577 79.0462 48.5213 78.7895 48.862V52.292C79.0182 52.6 79.2678 52.817 79.5385 52.943C79.8138 53.069 80.1195 53.132 80.4555 53.132C81.1135 53.132 81.6198 52.8963 81.9745 52.425C82.3292 51.9537 82.5065 51.2817 82.5065 50.409C82.5065 49.947 82.4645 49.5503 82.3805 49.219C82.3012 48.8877 82.1845 48.617 82.0305 48.407C81.8765 48.1923 81.6875 48.036 81.4635 47.938C81.2395 47.84 80.9852 47.791 80.7005 47.791ZM86.6541 43.689V54H85.4081V43.689H86.6541ZM91.6571 46.797C92.0818 46.797 92.4738 46.8693 92.8331 47.014C93.1925 47.154 93.5028 47.3593 93.7641 47.63C94.0255 47.896 94.2285 48.2273 94.3731 48.624C94.5225 49.016 94.5971 49.464 94.5971 49.968C94.5971 50.164 94.5761 50.2947 94.5341 50.36C94.4921 50.4253 94.4128 50.458 94.2961 50.458H89.5781C89.5875 50.906 89.6481 51.2957 89.7601 51.627C89.8721 51.9583 90.0261 52.236 90.2221 52.46C90.4181 52.6793 90.6515 52.845 90.9221 52.957C91.1928 53.0643 91.4961 53.118 91.8321 53.118C92.1448 53.118 92.4131 53.083 92.6371 53.013C92.8658 52.9383 93.0618 52.859 93.2251 52.775C93.3885 52.691 93.5238 52.614 93.6311 52.544C93.7431 52.4693 93.8388 52.432 93.9181 52.432C94.0208 52.432 94.1001 52.4717 94.1561 52.551L94.5061 53.006C94.3521 53.1927 94.1678 53.356 93.9531 53.496C93.7385 53.6313 93.5075 53.7433 93.2601 53.832C93.0175 53.9207 92.7655 53.986 92.5041 54.028C92.2428 54.0747 91.9838 54.098 91.7271 54.098C91.2371 54.098 90.7845 54.0163 90.3691 53.853C89.9585 53.685 89.6015 53.4423 89.2981 53.125C88.9995 52.803 88.7661 52.4063 88.5981 51.935C88.4301 51.4637 88.3461 50.9223 88.3461 50.311C88.3461 49.8163 88.4208 49.3543 88.5701 48.925C88.7241 48.4957 88.9435 48.1247 89.2281 47.812C89.5128 47.4947 89.8605 47.2473 90.2711 47.07C90.6818 46.888 91.1438 46.797 91.6571 46.797ZM91.6851 47.714C91.0831 47.714 90.6095 47.889 90.2641 48.239C89.9188 48.5843 89.7041 49.065 89.6201 49.681H93.4771C93.4771 49.3917 93.4375 49.128 93.3581 48.89C93.2788 48.6473 93.1621 48.4397 93.0081 48.267C92.8541 48.0897 92.6651 47.9543 92.4411 47.861C92.2218 47.763 91.9698 47.714 91.6851 47.714ZM98.3409 54.112C97.7809 54.112 97.3493 53.9557 97.0459 53.643C96.7473 53.3303 96.5979 52.88 96.5979 52.292V47.952H95.7439C95.6693 47.952 95.6063 47.931 95.5549 47.889C95.5036 47.8423 95.4779 47.7723 95.4779 47.679V47.182L96.6399 47.035L96.9269 44.844C96.9363 44.774 96.9666 44.718 97.0179 44.676C97.0693 44.6293 97.1346 44.606 97.2139 44.606H97.8439V47.049H99.8739V47.952H97.8439V52.208C97.8439 52.5067 97.9163 52.7283 98.0609 52.873C98.2056 53.0177 98.3923 53.09 98.6209 53.09C98.7516 53.09 98.8636 53.0737 98.9569 53.041C99.0549 53.0037 99.1389 52.964 99.2089 52.922C99.2789 52.88 99.3373 52.8427 99.3839 52.81C99.4353 52.7727 99.4796 52.754 99.5169 52.754C99.5823 52.754 99.6406 52.7937 99.6919 52.873L100.056 53.468C99.8413 53.6687 99.5823 53.8273 99.2789 53.944C98.9756 54.056 98.6629 54.112 98.3409 54.112ZM104.222 46.797C104.646 46.797 105.038 46.8693 105.398 47.014C105.757 47.154 106.067 47.3593 106.329 47.63C106.59 47.896 106.793 48.2273 106.938 48.624C107.087 49.016 107.162 49.464 107.162 49.968C107.162 50.164 107.141 50.2947 107.099 50.36C107.057 50.4253 106.977 50.458 106.861 50.458H102.143C102.152 50.906 102.213 51.2957 102.325 51.627C102.437 51.9583 102.591 52.236 102.787 52.46C102.983 52.6793 103.216 52.845 103.487 52.957C103.757 53.0643 104.061 53.118 104.397 53.118C104.709 53.118 104.978 53.083 105.202 53.013C105.43 52.9383 105.626 52.859 105.79 52.775C105.953 52.691 106.088 52.614 106.196 52.544C106.308 52.4693 106.403 52.432 106.483 52.432C106.585 52.432 106.665 52.4717 106.721 52.551L107.071 53.006C106.917 53.1927 106.732 53.356 106.518 53.496C106.303 53.6313 106.072 53.7433 105.825 53.832C105.582 53.9207 105.33 53.986 105.069 54.028C104.807 54.0747 104.548 54.098 104.292 54.098C103.802 54.098 103.349 54.0163 102.934 53.853C102.523 53.685 102.166 53.4423 101.863 53.125C101.564 52.803 101.331 52.4063 101.163 51.935C100.995 51.4637 100.911 50.9223 100.911 50.311C100.911 49.8163 100.985 49.3543 101.135 48.925C101.289 48.4957 101.508 48.1247 101.793 47.812C102.077 47.4947 102.425 47.2473 102.836 47.07C103.246 46.888 103.708 46.797 104.222 46.797ZM104.25 47.714C103.648 47.714 103.174 47.889 102.829 48.239C102.483 48.5843 102.269 49.065 102.185 49.681H106.042C106.042 49.3917 106.002 49.128 105.923 48.89C105.843 48.6473 105.727 48.4397 105.573 48.267C105.419 48.0897 105.23 47.9543 105.006 47.861C104.786 47.763 104.534 47.714 104.25 47.714ZM113.747 54C113.57 54 113.458 53.9137 113.411 53.741L113.299 52.88C112.996 53.2487 112.648 53.545 112.256 53.769C111.869 53.9883 111.423 54.098 110.919 54.098C110.513 54.098 110.145 54.021 109.813 53.867C109.482 53.7083 109.2 53.4773 108.966 53.174C108.733 52.8707 108.553 52.4927 108.427 52.04C108.301 51.5873 108.238 51.067 108.238 50.479C108.238 49.9563 108.308 49.471 108.448 49.023C108.588 48.5703 108.789 48.1783 109.05 47.847C109.316 47.5157 109.638 47.2567 110.016 47.07C110.394 46.8787 110.824 46.783 111.304 46.783C111.738 46.783 112.109 46.8577 112.417 47.007C112.725 47.1517 113.001 47.357 113.243 47.623V43.689H114.489V54H113.747ZM111.332 53.09C111.738 53.09 112.093 52.9967 112.396 52.81C112.704 52.6233 112.987 52.3597 113.243 52.019V48.589C113.015 48.281 112.763 48.0663 112.487 47.945C112.217 47.819 111.916 47.756 111.584 47.756C110.922 47.756 110.413 47.9917 110.058 48.463C109.704 48.9343 109.526 49.6063 109.526 50.479C109.526 50.941 109.566 51.3377 109.645 51.669C109.725 51.9957 109.841 52.2663 109.995 52.481C110.149 52.691 110.338 52.845 110.562 52.943C110.786 53.041 111.043 53.09 111.332 53.09ZM118.565 43.969V47.973C118.565 48.183 118.56 48.3883 118.551 48.589C118.546 48.7897 118.537 48.9927 118.523 49.198C118.509 49.3987 118.49 49.6063 118.467 49.821C118.448 50.031 118.425 50.2573 118.397 50.5H117.55C117.522 50.2573 117.496 50.031 117.473 49.821C117.454 49.6063 117.438 49.3987 117.424 49.198C117.41 48.9927 117.398 48.7897 117.389 48.589C117.384 48.3883 117.382 48.183 117.382 47.973V43.969H118.565ZM117.081 53.23C117.081 53.1087 117.102 52.9943 117.144 52.887C117.19 52.7797 117.251 52.6863 117.326 52.607C117.405 52.5277 117.498 52.4647 117.606 52.418C117.713 52.3713 117.827 52.348 117.949 52.348C118.07 52.348 118.184 52.3713 118.292 52.418C118.399 52.4647 118.492 52.5277 118.572 52.607C118.651 52.6863 118.712 52.7797 118.754 52.887C118.8 52.9943 118.824 53.1087 118.824 53.23C118.824 53.356 118.8 53.4727 118.754 53.58C118.712 53.6827 118.651 53.7737 118.572 53.853C118.492 53.9323 118.399 53.993 118.292 54.035C118.184 54.0817 118.07 54.105 117.949 54.105C117.827 54.105 117.713 54.0817 117.606 54.035C117.498 53.993 117.405 53.9323 117.326 53.853C117.251 53.7737 117.19 53.6827 117.144 53.58C117.102 53.4727 117.081 53.356 117.081 53.23Z" fill="#6A6A6A"/>
</svg>
