<svg width="800" height="530" viewBox="0 0 800 530" fill="none" xmlns="http://www.w3.org/2000/svg">
<path d="M0 530H800V0H0V530Z" fill="#D1D1D1"/>
<rect x="27" y="68" width="232" height="29" fill="white"/>
<path d="M0 50H800V20H0V50Z" fill="#171717"/>
<rect x="27" y="116" width="747" height="394" fill="white"/>
<rect x="648" y="167" width="106" height="10" fill="#E5E5E5"/>
<rect x="648" y="167" width="39" height="10" fill="#0064D1"/>
<rect x="27" y="116" width="747" height="35" fill="#626262"/>
<rect x="27" y="189" width="747" height="35" fill="#F9F9F9"/>
<rect x="648" y="201" width="106" height="10" fill="#E5E5E5"/>
<rect x="648" y="201" width="73" height="10" fill="#0064D1"/>
<rect x="648" y="238" width="106" height="10" fill="#E5E5E5"/>
<rect x="648" y="238" width="60" height="10" fill="#0064D1"/>
<rect x="27" y="262" width="747" height="35" fill="#F9F9F9"/>
<rect x="648" y="274" width="106" height="10" fill="#E5E5E5"/>
<rect x="648" y="274" width="103" height="10" fill="#0064D1"/>
<rect x="648" y="312" width="106" height="10" fill="#E5E5E5"/>
<rect x="648" y="312" width="81" height="10" fill="#0064D1"/>
<rect x="27" y="336" width="747" height="35" fill="#F9F9F9"/>
<rect x="648" y="349" width="106" height="10" fill="#E5E5E5"/>
<rect x="648" y="349" width="13" height="10" fill="#0064D1"/>
<rect x="648" y="387" width="106" height="10" fill="#E5E5E5"/>
<rect x="648" y="387" width="24" height="10" fill="#0064D1"/>
<rect x="27" y="410" width="747" height="35" fill="#F9F9F9"/>
<rect x="648" y="423" width="106" height="10" fill="#E5E5E5"/>
<rect x="648" y="423" width="77" height="10" fill="#0064D1"/>
<rect x="648" y="457" width="106" height="38" rx="19" fill="#0064D1"/>
<rect x="663" y="469" width="79" height="15" fill="white" fill-opacity="0.09"/>
<rect x="87" y="166" width="118" height="10" fill="#D1D1D1"/>
<rect x="87" y="201" width="98" height="10" fill="#D1D1D1"/>
<rect x="87" y="238" width="118" height="10" fill="#D1D1D1"/>
<rect x="87" y="274" width="98" height="10" fill="#D1D1D1"/>
<rect x="87" y="312" width="118" height="10" fill="#D1D1D1"/>
<rect x="87" y="349" width="118" height="10" fill="#D1D1D1"/>
<rect x="87" y="387" width="118" height="10" fill="#D1D1D1"/>
<rect x="87" y="423" width="98" height="10" fill="#D1D1D1"/>
<rect x="257" y="166" width="118" height="10" fill="#D1D1D1"/>
<rect x="257" y="201" width="98" height="10" fill="#D1D1D1"/>
<rect x="257" y="238" width="118" height="10" fill="#D1D1D1"/>
<rect x="257" y="274" width="98" height="10" fill="#D1D1D1"/>
<rect x="257" y="312" width="118" height="10" fill="#D1D1D1"/>
<rect x="257" y="349" width="118" height="10" fill="#D1D1D1"/>
<rect x="257" y="387" width="118" height="10" fill="#D1D1D1"/>
<rect x="257" y="423" width="98" height="10" fill="#D1D1D1"/>
<rect x="436" y="166" width="130" height="10" fill="#D1D1D1"/>
<rect x="610" y="170" width="30" height="4" fill="#D1D1D1"/>
<rect x="610" y="204" width="30" height="4" fill="#D1D1D1"/>
<rect x="610" y="241" width="30" height="4" fill="#D1D1D1"/>
<rect x="610" y="277" width="30" height="4" fill="#D1D1D1"/>
<rect x="610" y="315" width="30" height="4" fill="#D1D1D1"/>
<rect x="610" y="352" width="30" height="4" fill="#D1D1D1"/>
<rect x="610" y="390" width="30" height="4" fill="#D1D1D1"/>
<rect x="610" y="426" width="30" height="4" fill="#D1D1D1"/>
<rect x="436" y="201" width="130" height="10" fill="#D1D1D1"/>
<rect x="436" y="238" width="130" height="10" fill="#D1D1D1"/>
<rect x="436" y="274" width="130" height="10" fill="#D1D1D1"/>
<rect x="436" y="312" width="130" height="10" fill="#D1D1D1"/>
<rect x="436" y="349" width="130" height="10" fill="#D1D1D1"/>
<rect x="436" y="387" width="130" height="10" fill="#D1D1D1"/>
<rect x="436" y="423" width="130" height="10" fill="#D1D1D1"/>
<rect x="43" y="159" width="22" height="22" rx="4" fill="#0064D1"/>
<path fill-rule="evenodd" clip-rule="evenodd" d="M60.581 167.442C61.1397 166.884 61.1397 165.978 60.581 165.419C60.0223 164.86 59.1164 164.86 58.5577 165.419L52.1503 171.826L49.4423 169.118C48.8836 168.56 47.9777 168.56 47.419 169.118C46.8603 169.677 46.8603 170.583 47.419 171.142L51.1184 174.841C51.649 175.372 52.4926 175.398 53.0547 174.921C53.1407 174.866 53.2222 174.801 53.2973 174.726L60.581 167.442Z" fill="white"/>
<rect x="43" y="268" width="22" height="22" rx="4" fill="#0064D1"/>
<path fill-rule="evenodd" clip-rule="evenodd" d="M60.581 276.442C61.1397 275.884 61.1397 274.978 60.581 274.419C60.0223 273.86 59.1164 273.86 58.5577 274.419L52.1503 280.826L49.4423 278.118C48.8836 277.56 47.9777 277.56 47.419 278.118C46.8603 278.677 46.8603 279.583 47.419 280.142L51.1184 283.841C51.649 284.372 52.4926 284.398 53.0547 283.921C53.1407 283.866 53.2222 283.801 53.2973 283.726L60.581 276.442Z" fill="white"/>
<rect x="43" y="379" width="22" height="22" rx="4" fill="#0064D1"/>
<path fill-rule="evenodd" clip-rule="evenodd" d="M60.581 387.442C61.1397 386.884 61.1397 385.978 60.581 385.419C60.0223 384.86 59.1164 384.86 58.5577 385.419L52.1503 391.826L49.4423 389.118C48.8836 388.56 47.9777 388.56 47.419 389.118C46.8603 389.677 46.8603 390.583 47.419 391.142L51.1184 394.841C51.649 395.372 52.4926 395.398 53.0547 394.921C53.1407 394.866 53.2222 394.801 53.2973 394.726L60.581 387.442Z" fill="white"/>
<rect x="44" y="197" width="20" height="20" rx="3" fill="white" stroke="#D8D8D8" stroke-width="2"/>
<rect x="44" y="233" width="20" height="20" rx="3" fill="white" stroke="#D8D8D8" stroke-width="2"/>
<rect x="44" y="306" width="20" height="20" rx="3" fill="white" stroke="#D8D8D8" stroke-width="2"/>
<rect x="44" y="343" width="20" height="20" rx="3" fill="white" stroke="#D8D8D8" stroke-width="2"/>
<rect x="44" y="417" width="20" height="20" rx="3" fill="white" stroke="#D8D8D8" stroke-width="2"/>
</svg>
