<svg width="206" height="20" viewBox="0 0 206 20" fill="none" xmlns="http://www.w3.org/2000/svg">
<path fill-rule="evenodd" clip-rule="evenodd" d="M129.308 0C125.272 0 122 3.27176 122 7.30769C122 11.3436 125.272 14.6154 129.308 14.6154C130.909 14.6154 132.39 14.1002 133.595 13.2265L140.03 19.662L140.139 19.758C140.592 20.11 141.246 20.078 141.662 19.662C142.113 19.2114 142.113 18.4809 141.662 18.0303L135.226 11.5947C136.1 10.3905 136.615 8.90925 136.615 7.30769C136.615 3.27176 133.344 0 129.308 0ZM132.873 10.8133C133.76 9.91095 134.308 8.67323 134.308 7.30766C134.308 4.54624 132.069 2.30766 129.308 2.30766C126.546 2.30766 124.308 4.54624 124.308 7.30766C124.308 10.0691 126.546 12.3077 129.308 12.3077C130.673 12.3077 131.911 11.7602 132.813 10.8729C132.823 10.8626 132.833 10.8525 132.843 10.8426C132.853 10.8326 132.863 10.8228 132.873 10.8133Z" fill="black"/>
<path d="M70.264 6.328C70.216 6.408 70.1653 6.46933 70.112 6.512C70.0587 6.54933 69.9893 6.568 69.904 6.568C69.8133 6.568 69.7067 6.52267 69.584 6.432C69.4667 6.34133 69.3147 6.24267 69.128 6.136C68.9467 6.024 68.7253 5.92267 68.464 5.832C68.208 5.74133 67.896 5.696 67.528 5.696C67.1813 5.696 66.8747 5.744 66.608 5.84C66.3413 5.93067 66.1173 6.056 65.936 6.216C65.76 6.376 65.6267 6.56533 65.536 6.784C65.4453 6.99733 65.4 7.22933 65.4 7.48C65.4 7.8 65.4773 8.06667 65.632 8.28C65.792 8.488 66 8.66667 66.256 8.816C66.5173 8.96533 66.8107 9.096 67.136 9.208C67.4667 9.31467 67.8027 9.42667 68.144 9.544C68.4907 9.66133 68.8267 9.79467 69.152 9.944C69.4827 10.088 69.776 10.272 70.032 10.496C70.2933 10.72 70.5013 10.9947 70.656 11.32C70.816 11.6453 70.896 12.0453 70.896 12.52C70.896 13.0213 70.8107 13.4933 70.64 13.936C70.4693 14.3733 70.2187 14.7547 69.888 15.08C69.5627 15.4053 69.16 15.6613 68.68 15.848C68.2053 16.0347 67.664 16.128 67.056 16.128C66.3147 16.128 65.6373 15.9947 65.024 15.728C64.416 15.456 63.896 15.0907 63.464 14.632L63.912 13.896C63.9547 13.8373 64.0053 13.7893 64.064 13.752C64.128 13.7093 64.1973 13.688 64.272 13.688C64.384 13.688 64.512 13.7493 64.656 13.872C64.8 13.9893 64.9787 14.12 65.192 14.264C65.4107 14.408 65.672 14.5413 65.976 14.664C66.2853 14.7813 66.6613 14.84 67.104 14.84C67.472 14.84 67.8 14.7893 68.088 14.688C68.376 14.5867 68.6187 14.4453 68.816 14.264C69.0187 14.0773 69.1733 13.856 69.28 13.6C69.3867 13.344 69.44 13.0587 69.44 12.744C69.44 12.3973 69.36 12.1147 69.2 11.896C69.0453 11.672 68.84 11.4853 68.584 11.336C68.328 11.1867 68.0347 11.0613 67.704 10.96C67.3787 10.8533 67.0427 10.7467 66.696 10.64C66.3547 10.528 66.0187 10.4 65.688 10.256C65.3627 10.112 65.072 9.92533 64.816 9.696C64.56 9.46667 64.352 9.18133 64.192 8.84C64.0373 8.49333 63.96 8.06667 63.96 7.56C63.96 7.15467 64.0373 6.76267 64.192 6.384C64.352 6.00533 64.5813 5.66933 64.88 5.376C65.1787 5.08267 65.5467 4.848 65.984 4.672C66.4267 4.496 66.9333 4.408 67.504 4.408C68.144 4.408 68.728 4.50933 69.256 4.712C69.784 4.91467 70.2453 5.208 70.64 5.592L70.264 6.328ZM75.8604 7.768C76.3457 7.768 76.7937 7.85067 77.2044 8.016C77.615 8.176 77.9697 8.41067 78.2684 8.72C78.567 9.024 78.799 9.40267 78.9644 9.856C79.135 10.304 79.2204 10.816 79.2204 11.392C79.2204 11.616 79.1964 11.7653 79.1484 11.84C79.1004 11.9147 79.0097 11.952 78.8764 11.952H73.4844C73.495 12.464 73.5644 12.9093 73.6924 13.288C73.8204 13.6667 73.9964 13.984 74.2204 14.24C74.4444 14.4907 74.711 14.68 75.0204 14.808C75.3297 14.9307 75.6764 14.992 76.0604 14.992C76.4177 14.992 76.7244 14.952 76.9804 14.872C77.2417 14.7867 77.4657 14.696 77.6524 14.6C77.839 14.504 77.9937 14.416 78.1164 14.336C78.2444 14.2507 78.3537 14.208 78.4444 14.208C78.5617 14.208 78.6524 14.2533 78.7164 14.344L79.1164 14.864C78.9404 15.0773 78.7297 15.264 78.4844 15.424C78.239 15.5787 77.975 15.7067 77.6924 15.808C77.415 15.9093 77.127 15.984 76.8284 16.032C76.5297 16.0853 76.2337 16.112 75.9404 16.112C75.3804 16.112 74.863 16.0187 74.3884 15.832C73.919 15.64 73.511 15.3627 73.1644 15C72.823 14.632 72.5564 14.1787 72.3644 13.64C72.1724 13.1013 72.0764 12.4827 72.0764 11.784C72.0764 11.2187 72.1617 10.6907 72.3324 10.2C72.5084 9.70933 72.759 9.28533 73.0844 8.928C73.4097 8.56533 73.807 8.28267 74.2764 8.08C74.7457 7.872 75.2737 7.768 75.8604 7.768ZM75.8924 8.816C75.2044 8.816 74.663 9.016 74.2684 9.416C73.8737 9.81067 73.6284 10.36 73.5324 11.064H77.9404C77.9404 10.7333 77.895 10.432 77.8044 10.16C77.7137 9.88267 77.5804 9.64533 77.4044 9.448C77.2284 9.24533 77.0124 9.09067 76.7564 8.984C76.5057 8.872 76.2177 8.816 75.8924 8.816ZM86.995 16H86.363C86.2243 16 86.1123 15.9787 86.027 15.936C85.9417 15.8933 85.8857 15.8027 85.859 15.664L85.699 14.912C85.4857 15.104 85.2777 15.2773 85.075 15.432C84.8723 15.5813 84.659 15.7093 84.435 15.816C84.211 15.9173 83.971 15.9947 83.715 16.048C83.4643 16.1013 83.1843 16.128 82.875 16.128C82.5603 16.128 82.2643 16.0853 81.987 16C81.715 15.9093 81.4777 15.776 81.275 15.6C81.0723 15.424 80.9097 15.2027 80.787 14.936C80.6697 14.664 80.611 14.344 80.611 13.976C80.611 13.656 80.699 13.3493 80.875 13.056C81.051 12.7573 81.3337 12.4933 81.723 12.264C82.1177 12.0347 82.6323 11.848 83.267 11.704C83.9017 11.5547 84.6777 11.4693 85.595 11.448V10.816C85.595 10.1867 85.459 9.712 85.187 9.392C84.9203 9.06667 84.523 8.904 83.995 8.904C83.6483 8.904 83.355 8.94933 83.115 9.04C82.8803 9.12533 82.675 9.224 82.499 9.336C82.3283 9.44267 82.179 9.54133 82.051 9.632C81.9283 9.71733 81.8057 9.76 81.683 9.76C81.587 9.76 81.5017 9.736 81.427 9.688C81.3577 9.63467 81.3017 9.57067 81.259 9.496L81.003 9.04C81.451 8.608 81.9337 8.28533 82.451 8.072C82.9683 7.85867 83.5417 7.752 84.171 7.752C84.6243 7.752 85.027 7.82667 85.379 7.976C85.731 8.12533 86.027 8.33333 86.267 8.6C86.507 8.86667 86.6883 9.18933 86.811 9.568C86.9337 9.94667 86.995 10.3627 86.995 10.816V16ZM83.299 15.128C83.5497 15.128 83.779 15.104 83.987 15.056C84.195 15.0027 84.3897 14.9307 84.571 14.84C84.7577 14.744 84.9337 14.6293 85.099 14.496C85.2697 14.3627 85.435 14.2107 85.595 14.04V12.352C84.939 12.3733 84.3817 12.4267 83.923 12.512C83.4643 12.592 83.091 12.6987 82.803 12.832C82.515 12.9653 82.3043 13.1227 82.171 13.304C82.043 13.4853 81.979 13.688 81.979 13.912C81.979 14.1253 82.0137 14.3093 82.083 14.464C82.1523 14.6187 82.2457 14.7467 82.363 14.848C82.4803 14.944 82.619 15.016 82.779 15.064C82.939 15.1067 83.1123 15.128 83.299 15.128ZM89.1524 16V7.896H89.9684C90.123 7.896 90.2297 7.92533 90.2884 7.984C90.347 8.04267 90.387 8.144 90.4084 8.288L90.5044 9.552C90.7817 8.98667 91.123 8.54667 91.5284 8.232C91.939 7.912 92.419 7.752 92.9684 7.752C93.1924 7.752 93.395 7.77867 93.5764 7.832C93.7577 7.88 93.9257 7.94933 94.0804 8.04L93.8964 9.104C93.859 9.23733 93.7764 9.304 93.6484 9.304C93.5737 9.304 93.459 9.28 93.3044 9.232C93.1497 9.17867 92.9337 9.152 92.6564 9.152C92.1604 9.152 91.7444 9.296 91.4084 9.584C91.0777 9.872 90.8004 10.2907 90.5764 10.84V16H89.1524ZM101.134 9.336C101.091 9.39467 101.048 9.44 101.006 9.472C100.963 9.504 100.902 9.52 100.822 9.52C100.742 9.52 100.654 9.488 100.558 9.424C100.467 9.35467 100.35 9.28 100.206 9.2C100.062 9.12 99.8855 9.048 99.6775 8.984C99.4748 8.91467 99.2242 8.88 98.9255 8.88C98.5308 8.88 98.1815 8.952 97.8775 9.096C97.5735 9.23467 97.3175 9.43733 97.1095 9.704C96.9068 9.97067 96.7522 10.2933 96.6455 10.672C96.5442 11.0507 96.4935 11.4747 96.4935 11.944C96.4935 12.4347 96.5495 12.872 96.6615 13.256C96.7735 13.6347 96.9308 13.9547 97.1335 14.216C97.3362 14.472 97.5815 14.6693 97.8695 14.808C98.1628 14.9413 98.4908 15.008 98.8535 15.008C99.2002 15.008 99.4855 14.968 99.7095 14.888C99.9335 14.8027 100.12 14.7093 100.27 14.608C100.419 14.5067 100.542 14.416 100.638 14.336C100.734 14.2507 100.83 14.208 100.926 14.208C101.048 14.208 101.139 14.2533 101.198 14.344L101.598 14.864C101.246 15.296 100.806 15.6133 100.278 15.816C99.7495 16.0133 99.1922 16.112 98.6055 16.112C98.0988 16.112 97.6268 16.0187 97.1895 15.832C96.7575 15.6453 96.3815 15.376 96.0615 15.024C95.7415 14.6667 95.4882 14.2293 95.3015 13.712C95.1202 13.1947 95.0295 12.6053 95.0295 11.944C95.0295 11.3413 95.1122 10.784 95.2775 10.272C95.4482 9.76 95.6935 9.32 96.0135 8.952C96.3388 8.57867 96.7388 8.288 97.2135 8.08C97.6882 7.872 98.2322 7.768 98.8455 7.768C99.4108 7.768 99.9122 7.86133 100.35 8.048C100.787 8.22933 101.174 8.488 101.51 8.824L101.134 9.336ZM103.074 16V4.216H104.498V8.984C104.845 8.616 105.229 8.32267 105.65 8.104C106.072 7.88 106.557 7.768 107.106 7.768C107.549 7.768 107.938 7.84267 108.274 7.992C108.616 8.136 108.898 8.344 109.122 8.616C109.352 8.88267 109.525 9.20533 109.642 9.584C109.76 9.96267 109.818 10.3813 109.818 10.84V16H108.394V10.84C108.394 10.2267 108.253 9.752 107.97 9.416C107.693 9.07467 107.266 8.904 106.69 8.904C106.269 8.904 105.874 9.00533 105.506 9.208C105.144 9.41067 104.808 9.68533 104.498 10.032V16H103.074Z" fill="black"/>
<path fill-rule="evenodd" clip-rule="evenodd" d="M206 11H0V10H206V11Z" fill="#FF7777"/>
</svg>
