<svg width="206" height="23" viewBox="0 0 206 23" fill="none" xmlns="http://www.w3.org/2000/svg">
<path fill-rule="evenodd" clip-rule="evenodd" d="M129.308 0C125.272 0 122 3.27176 122 7.30769C122 11.3436 125.272 14.6154 129.308 14.6154C130.909 14.6154 132.39 14.1002 133.595 13.2265L140.03 19.662L140.139 19.758C140.592 20.11 141.246 20.078 141.662 19.662C142.113 19.2114 142.113 18.4809 141.662 18.0303L135.226 11.5947C136.1 10.3905 136.615 8.90925 136.615 7.30769C136.615 3.27176 133.344 0 129.308 0ZM132.873 10.8133C133.76 9.91095 134.308 8.67323 134.308 7.30766C134.308 4.54624 132.069 2.30766 129.308 2.30766C126.546 2.30766 124.308 4.54624 124.308 7.30766C124.308 10.0691 126.546 12.3077 129.308 12.3077C130.673 12.3077 131.911 11.7602 132.813 10.8729C132.823 10.8626 132.833 10.8525 132.843 10.8426C132.853 10.8326 132.863 10.8228 132.873 10.8133Z" fill="black"/>
<path d="M70.264 10.328C70.216 10.408 70.1653 10.4693 70.112 10.512C70.0587 10.5493 69.9893 10.568 69.904 10.568C69.8133 10.568 69.7067 10.5227 69.584 10.432C69.4667 10.3413 69.3147 10.2427 69.128 10.136C68.9467 10.024 68.7253 9.92267 68.464 9.832C68.208 9.74133 67.896 9.696 67.528 9.696C67.1813 9.696 66.8747 9.744 66.608 9.84C66.3413 9.93067 66.1173 10.056 65.936 10.216C65.76 10.376 65.6267 10.5653 65.536 10.784C65.4453 10.9973 65.4 11.2293 65.4 11.48C65.4 11.8 65.4773 12.0667 65.632 12.28C65.792 12.488 66 12.6667 66.256 12.816C66.5173 12.9653 66.8107 13.096 67.136 13.208C67.4667 13.3147 67.8027 13.4267 68.144 13.544C68.4907 13.6613 68.8267 13.7947 69.152 13.944C69.4827 14.088 69.776 14.272 70.032 14.496C70.2933 14.72 70.5013 14.9947 70.656 15.32C70.816 15.6453 70.896 16.0453 70.896 16.52C70.896 17.0213 70.8107 17.4933 70.64 17.936C70.4693 18.3733 70.2187 18.7547 69.888 19.08C69.5627 19.4053 69.16 19.6613 68.68 19.848C68.2053 20.0347 67.664 20.128 67.056 20.128C66.3147 20.128 65.6373 19.9947 65.024 19.728C64.416 19.456 63.896 19.0907 63.464 18.632L63.912 17.896C63.9547 17.8373 64.0053 17.7893 64.064 17.752C64.128 17.7093 64.1973 17.688 64.272 17.688C64.384 17.688 64.512 17.7493 64.656 17.872C64.8 17.9893 64.9787 18.12 65.192 18.264C65.4107 18.408 65.672 18.5413 65.976 18.664C66.2853 18.7813 66.6613 18.84 67.104 18.84C67.472 18.84 67.8 18.7893 68.088 18.688C68.376 18.5867 68.6187 18.4453 68.816 18.264C69.0187 18.0773 69.1733 17.856 69.28 17.6C69.3867 17.344 69.44 17.0587 69.44 16.744C69.44 16.3973 69.36 16.1147 69.2 15.896C69.0453 15.672 68.84 15.4853 68.584 15.336C68.328 15.1867 68.0347 15.0613 67.704 14.96C67.3787 14.8533 67.0427 14.7467 66.696 14.64C66.3547 14.528 66.0187 14.4 65.688 14.256C65.3627 14.112 65.072 13.9253 64.816 13.696C64.56 13.4667 64.352 13.1813 64.192 12.84C64.0373 12.4933 63.96 12.0667 63.96 11.56C63.96 11.1547 64.0373 10.7627 64.192 10.384C64.352 10.0053 64.5813 9.66933 64.88 9.376C65.1787 9.08267 65.5467 8.848 65.984 8.672C66.4267 8.496 66.9333 8.408 67.504 8.408C68.144 8.408 68.728 8.50933 69.256 8.712C69.784 8.91467 70.2453 9.208 70.64 9.592L70.264 10.328ZM75.8604 11.768C76.3457 11.768 76.7937 11.8507 77.2044 12.016C77.615 12.176 77.9697 12.4107 78.2684 12.72C78.567 13.024 78.799 13.4027 78.9644 13.856C79.135 14.304 79.2204 14.816 79.2204 15.392C79.2204 15.616 79.1964 15.7653 79.1484 15.84C79.1004 15.9147 79.0097 15.952 78.8764 15.952H73.4844C73.495 16.464 73.5644 16.9093 73.6924 17.288C73.8204 17.6667 73.9964 17.984 74.2204 18.24C74.4444 18.4907 74.711 18.68 75.0204 18.808C75.3297 18.9307 75.6764 18.992 76.0604 18.992C76.4177 18.992 76.7244 18.952 76.9804 18.872C77.2417 18.7867 77.4657 18.696 77.6524 18.6C77.839 18.504 77.9937 18.416 78.1164 18.336C78.2444 18.2507 78.3537 18.208 78.4444 18.208C78.5617 18.208 78.6524 18.2533 78.7164 18.344L79.1164 18.864C78.9404 19.0773 78.7297 19.264 78.4844 19.424C78.239 19.5787 77.975 19.7067 77.6924 19.808C77.415 19.9093 77.127 19.984 76.8284 20.032C76.5297 20.0853 76.2337 20.112 75.9404 20.112C75.3804 20.112 74.863 20.0187 74.3884 19.832C73.919 19.64 73.511 19.3627 73.1644 19C72.823 18.632 72.5564 18.1787 72.3644 17.64C72.1724 17.1013 72.0764 16.4827 72.0764 15.784C72.0764 15.2187 72.1617 14.6907 72.3324 14.2C72.5084 13.7093 72.759 13.2853 73.0844 12.928C73.4097 12.5653 73.807 12.2827 74.2764 12.08C74.7457 11.872 75.2737 11.768 75.8604 11.768ZM75.8924 12.816C75.2044 12.816 74.663 13.016 74.2684 13.416C73.8737 13.8107 73.6284 14.36 73.5324 15.064H77.9404C77.9404 14.7333 77.895 14.432 77.8044 14.16C77.7137 13.8827 77.5804 13.6453 77.4044 13.448C77.2284 13.2453 77.0124 13.0907 76.7564 12.984C76.5057 12.872 76.2177 12.816 75.8924 12.816ZM86.995 20H86.363C86.2243 20 86.1123 19.9787 86.027 19.936C85.9417 19.8933 85.8857 19.8027 85.859 19.664L85.699 18.912C85.4857 19.104 85.2777 19.2773 85.075 19.432C84.8723 19.5813 84.659 19.7093 84.435 19.816C84.211 19.9173 83.971 19.9947 83.715 20.048C83.4643 20.1013 83.1843 20.128 82.875 20.128C82.5603 20.128 82.2643 20.0853 81.987 20C81.715 19.9093 81.4777 19.776 81.275 19.6C81.0723 19.424 80.9097 19.2027 80.787 18.936C80.6697 18.664 80.611 18.344 80.611 17.976C80.611 17.656 80.699 17.3493 80.875 17.056C81.051 16.7573 81.3337 16.4933 81.723 16.264C82.1177 16.0347 82.6323 15.848 83.267 15.704C83.9017 15.5547 84.6777 15.4693 85.595 15.448V14.816C85.595 14.1867 85.459 13.712 85.187 13.392C84.9203 13.0667 84.523 12.904 83.995 12.904C83.6483 12.904 83.355 12.9493 83.115 13.04C82.8803 13.1253 82.675 13.224 82.499 13.336C82.3283 13.4427 82.179 13.5413 82.051 13.632C81.9283 13.7173 81.8057 13.76 81.683 13.76C81.587 13.76 81.5017 13.736 81.427 13.688C81.3577 13.6347 81.3017 13.5707 81.259 13.496L81.003 13.04C81.451 12.608 81.9337 12.2853 82.451 12.072C82.9683 11.8587 83.5417 11.752 84.171 11.752C84.6243 11.752 85.027 11.8267 85.379 11.976C85.731 12.1253 86.027 12.3333 86.267 12.6C86.507 12.8667 86.6883 13.1893 86.811 13.568C86.9337 13.9467 86.995 14.3627 86.995 14.816V20ZM83.299 19.128C83.5497 19.128 83.779 19.104 83.987 19.056C84.195 19.0027 84.3897 18.9307 84.571 18.84C84.7577 18.744 84.9337 18.6293 85.099 18.496C85.2697 18.3627 85.435 18.2107 85.595 18.04V16.352C84.939 16.3733 84.3817 16.4267 83.923 16.512C83.4643 16.592 83.091 16.6987 82.803 16.832C82.515 16.9653 82.3043 17.1227 82.171 17.304C82.043 17.4853 81.979 17.688 81.979 17.912C81.979 18.1253 82.0137 18.3093 82.083 18.464C82.1523 18.6187 82.2457 18.7467 82.363 18.848C82.4803 18.944 82.619 19.016 82.779 19.064C82.939 19.1067 83.1123 19.128 83.299 19.128ZM89.1524 20V11.896H89.9684C90.123 11.896 90.2297 11.9253 90.2884 11.984C90.347 12.0427 90.387 12.144 90.4084 12.288L90.5044 13.552C90.7817 12.9867 91.123 12.5467 91.5284 12.232C91.939 11.912 92.419 11.752 92.9684 11.752C93.1924 11.752 93.395 11.7787 93.5764 11.832C93.7577 11.88 93.9257 11.9493 94.0804 12.04L93.8964 13.104C93.859 13.2373 93.7764 13.304 93.6484 13.304C93.5737 13.304 93.459 13.28 93.3044 13.232C93.1497 13.1787 92.9337 13.152 92.6564 13.152C92.1604 13.152 91.7444 13.296 91.4084 13.584C91.0777 13.872 90.8004 14.2907 90.5764 14.84V20H89.1524ZM101.134 13.336C101.091 13.3947 101.048 13.44 101.006 13.472C100.963 13.504 100.902 13.52 100.822 13.52C100.742 13.52 100.654 13.488 100.558 13.424C100.467 13.3547 100.35 13.28 100.206 13.2C100.062 13.12 99.8855 13.048 99.6775 12.984C99.4748 12.9147 99.2242 12.88 98.9255 12.88C98.5308 12.88 98.1815 12.952 97.8775 13.096C97.5735 13.2347 97.3175 13.4373 97.1095 13.704C96.9068 13.9707 96.7522 14.2933 96.6455 14.672C96.5442 15.0507 96.4935 15.4747 96.4935 15.944C96.4935 16.4347 96.5495 16.872 96.6615 17.256C96.7735 17.6347 96.9308 17.9547 97.1335 18.216C97.3362 18.472 97.5815 18.6693 97.8695 18.808C98.1628 18.9413 98.4908 19.008 98.8535 19.008C99.2002 19.008 99.4855 18.968 99.7095 18.888C99.9335 18.8027 100.12 18.7093 100.27 18.608C100.419 18.5067 100.542 18.416 100.638 18.336C100.734 18.2507 100.83 18.208 100.926 18.208C101.048 18.208 101.139 18.2533 101.198 18.344L101.598 18.864C101.246 19.296 100.806 19.6133 100.278 19.816C99.7495 20.0133 99.1922 20.112 98.6055 20.112C98.0988 20.112 97.6268 20.0187 97.1895 19.832C96.7575 19.6453 96.3815 19.376 96.0615 19.024C95.7415 18.6667 95.4882 18.2293 95.3015 17.712C95.1202 17.1947 95.0295 16.6053 95.0295 15.944C95.0295 15.3413 95.1122 14.784 95.2775 14.272C95.4482 13.76 95.6935 13.32 96.0135 12.952C96.3388 12.5787 96.7388 12.288 97.2135 12.08C97.6882 11.872 98.2322 11.768 98.8455 11.768C99.4108 11.768 99.9122 11.8613 100.35 12.048C100.787 12.2293 101.174 12.488 101.51 12.824L101.134 13.336ZM103.074 20V8.216H104.498V12.984C104.845 12.616 105.229 12.3227 105.65 12.104C106.072 11.88 106.557 11.768 107.106 11.768C107.549 11.768 107.938 11.8427 108.274 11.992C108.616 12.136 108.898 12.344 109.122 12.616C109.352 12.8827 109.525 13.2053 109.642 13.584C109.76 13.9627 109.818 14.3813 109.818 14.84V20H108.394V14.84C108.394 14.2267 108.253 13.752 107.97 13.416C107.693 13.0747 107.266 12.904 106.69 12.904C106.269 12.904 105.874 13.0053 105.506 13.208C105.144 13.4107 104.808 13.6853 104.498 14.032V20H103.074Z" fill="black"/>
<path fill-rule="evenodd" clip-rule="evenodd" d="M206 21H0V20H206V21Z" fill="#FF7777"/>
</svg>
