<svg width="101" height="32" viewBox="0 0 101 32" fill="none" xmlns="http://www.w3.org/2000/svg">
<path d="M7.35774 12.328C7.30974 12.408 7.25907 12.4693 7.20574 12.512C7.15241 12.5493 7.08307 12.568 6.99774 12.568C6.90707 12.568 6.80041 12.5227 6.67774 12.432C6.56041 12.3413 6.40841 12.2427 6.22174 12.136C6.04041 12.024 5.81907 11.9227 5.55774 11.832C5.30174 11.7413 4.98974 11.696 4.62174 11.696C4.27507 11.696 3.96841 11.744 3.70174 11.84C3.43507 11.9307 3.21107 12.056 3.02974 12.216C2.85374 12.376 2.72041 12.5653 2.62974 12.784C2.53907 12.9973 2.49374 13.2293 2.49374 13.48C2.49374 13.8 2.57107 14.0667 2.72574 14.28C2.88574 14.488 3.09374 14.6667 3.34974 14.816C3.61107 14.9653 3.90441 15.096 4.22974 15.208C4.56041 15.3147 4.89641 15.4267 5.23774 15.544C5.58441 15.6613 5.92041 15.7947 6.24574 15.944C6.57641 16.088 6.86974 16.272 7.12574 16.496C7.38707 16.72 7.59507 16.9947 7.74974 17.32C7.90974 17.6453 7.98974 18.0453 7.98974 18.52C7.98974 19.0213 7.90441 19.4933 7.73374 19.936C7.56307 20.3733 7.31241 20.7547 6.98174 21.08C6.65641 21.4053 6.25374 21.6613 5.77374 21.848C5.29907 22.0347 4.75774 22.128 4.14974 22.128C3.40841 22.128 2.73107 21.9947 2.11774 21.728C1.50974 21.456 0.989739 21.0907 0.557739 20.632L1.00574 19.896C1.04841 19.8373 1.09907 19.7893 1.15774 19.752C1.22174 19.7093 1.29107 19.688 1.36574 19.688C1.47774 19.688 1.60574 19.7493 1.74974 19.872C1.89374 19.9893 2.07241 20.12 2.28574 20.264C2.50441 20.408 2.76574 20.5413 3.06974 20.664C3.37907 20.7813 3.75507 20.84 4.19774 20.84C4.56574 20.84 4.89374 20.7893 5.18174 20.688C5.46974 20.5867 5.71241 20.4453 5.90974 20.264C6.11241 20.0773 6.26707 19.856 6.37374 19.6C6.48041 19.344 6.53374 19.0587 6.53374 18.744C6.53374 18.3973 6.45374 18.1147 6.29374 17.896C6.13907 17.672 5.93374 17.4853 5.67774 17.336C5.42174 17.1867 5.12841 17.0613 4.79774 16.96C4.47241 16.8533 4.13641 16.7467 3.78974 16.64C3.44841 16.528 3.11241 16.4 2.78174 16.256C2.45641 16.112 2.16574 15.9253 1.90974 15.696C1.65374 15.4667 1.44574 15.1813 1.28574 14.84C1.13107 14.4933 1.05374 14.0667 1.05374 13.56C1.05374 13.1547 1.13107 12.7627 1.28574 12.384C1.44574 12.0053 1.67507 11.6693 1.97374 11.376C2.27241 11.0827 2.64041 10.848 3.07774 10.672C3.52041 10.496 4.02707 10.408 4.59774 10.408C5.23774 10.408 5.82174 10.5093 6.34974 10.712C6.87774 10.9147 7.33907 11.208 7.73374 11.592L7.35774 12.328Z" fill="black"/>
<path d="M12.9541 13.768C13.4394 13.768 13.8874 13.8507 14.2981 14.016C14.7088 14.176 15.0634 14.4107 15.3621 14.72C15.6608 15.024 15.8928 15.4027 16.0581 15.856C16.2288 16.304 16.3141 16.816 16.3141 17.392C16.3141 17.616 16.2901 17.7653 16.2421 17.84C16.1941 17.9147 16.1034 17.952 15.9701 17.952H10.5781C10.5888 18.464 10.6581 18.9093 10.7861 19.288C10.9141 19.6667 11.0901 19.984 11.3141 20.24C11.5381 20.4907 11.8048 20.68 12.1141 20.808C12.4234 20.9307 12.7701 20.992 13.1541 20.992C13.5114 20.992 13.8181 20.952 14.0741 20.872C14.3354 20.7867 14.5594 20.696 14.7461 20.6C14.9328 20.504 15.0874 20.416 15.2101 20.336C15.3381 20.2507 15.4474 20.208 15.5381 20.208C15.6554 20.208 15.7461 20.2533 15.8101 20.344L16.2101 20.864C16.0341 21.0773 15.8234 21.264 15.5781 21.424C15.3328 21.5787 15.0688 21.7067 14.7861 21.808C14.5088 21.9093 14.2208 21.984 13.9221 22.032C13.6234 22.0853 13.3274 22.112 13.0341 22.112C12.4741 22.112 11.9568 22.0187 11.4821 21.832C11.0128 21.64 10.6048 21.3627 10.2581 21C9.91678 20.632 9.65011 20.1787 9.45811 19.64C9.26611 19.1013 9.17011 18.4827 9.17011 17.784C9.17011 17.2187 9.25545 16.6907 9.42611 16.2C9.60211 15.7093 9.85278 15.2853 10.1781 14.928C10.5034 14.5653 10.9008 14.2827 11.3701 14.08C11.8394 13.872 12.3674 13.768 12.9541 13.768ZM12.9861 14.816C12.2981 14.816 11.7568 15.016 11.3621 15.416C10.9674 15.8107 10.7221 16.36 10.6261 17.064H15.0341C15.0341 16.7333 14.9888 16.432 14.8981 16.16C14.8074 15.8827 14.6741 15.6453 14.4981 15.448C14.3221 15.2453 14.1061 15.0907 13.8501 14.984C13.5994 14.872 13.3114 14.816 12.9861 14.816Z" fill="black"/>
<path d="M20.5927 22.128C19.9527 22.128 19.4594 21.9493 19.1127 21.592C18.7714 21.2347 18.6007 20.72 18.6007 20.048V15.088H17.6247C17.5394 15.088 17.4674 15.064 17.4087 15.016C17.3501 14.9627 17.3207 14.8827 17.3207 14.776V14.208L18.6487 14.04L18.9767 11.536C18.9874 11.456 19.0221 11.392 19.0807 11.344C19.1394 11.2907 19.2141 11.264 19.3047 11.264H20.0247V14.056H22.3447V15.088H20.0247V19.952C20.0247 20.2933 20.1074 20.5467 20.2727 20.712C20.4381 20.8773 20.6514 20.96 20.9127 20.96C21.0621 20.96 21.1901 20.9413 21.2967 20.904C21.4087 20.8613 21.5047 20.816 21.5847 20.768C21.6647 20.72 21.7314 20.6773 21.7847 20.64C21.8434 20.5973 21.8941 20.576 21.9367 20.576C22.0114 20.576 22.0781 20.6213 22.1367 20.712L22.5527 21.392C22.3074 21.6213 22.0114 21.8027 21.6647 21.936C21.3181 22.064 20.9607 22.128 20.5927 22.128Z" fill="black"/>
<path d="M26.5615 22.128C25.9215 22.128 25.4282 21.9493 25.0815 21.592C24.7402 21.2347 24.5695 20.72 24.5695 20.048V15.088H23.5935C23.5082 15.088 23.4362 15.064 23.3775 15.016C23.3188 14.9627 23.2895 14.8827 23.2895 14.776V14.208L24.6175 14.04L24.9455 11.536C24.9562 11.456 24.9908 11.392 25.0495 11.344C25.1082 11.2907 25.1828 11.264 25.2735 11.264H25.9935V14.056H28.3135V15.088H25.9935V19.952C25.9935 20.2933 26.0762 20.5467 26.2415 20.712C26.4068 20.8773 26.6202 20.96 26.8815 20.96C27.0308 20.96 27.1588 20.9413 27.2655 20.904C27.3775 20.8613 27.4735 20.816 27.5535 20.768C27.6335 20.72 27.7002 20.6773 27.7535 20.64C27.8122 20.5973 27.8628 20.576 27.9055 20.576C27.9802 20.576 28.0468 20.6213 28.1055 20.712L28.5215 21.392C28.2762 21.6213 27.9802 21.8027 27.6335 21.936C27.2868 22.064 26.9295 22.128 26.5615 22.128Z" fill="black"/>
<path d="M31.6582 13.896V22H30.2342V13.896H31.6582ZM31.9782 11.352C31.9782 11.4907 31.9489 11.6213 31.8902 11.744C31.8369 11.8613 31.7622 11.968 31.6662 12.064C31.5756 12.1547 31.4689 12.2267 31.3462 12.28C31.2236 12.3333 31.0929 12.36 30.9542 12.36C30.8156 12.36 30.6849 12.3333 30.5622 12.28C30.4449 12.2267 30.3382 12.1547 30.2422 12.064C30.1516 11.968 30.0796 11.8613 30.0262 11.744C29.9729 11.6213 29.9462 11.4907 29.9462 11.352C29.9462 11.2133 29.9729 11.0827 30.0262 10.96C30.0796 10.832 30.1516 10.7227 30.2422 10.632C30.3382 10.536 30.4449 10.4613 30.5622 10.408C30.6849 10.3547 30.8156 10.328 30.9542 10.328C31.0929 10.328 31.2236 10.3547 31.3462 10.408C31.4689 10.4613 31.5756 10.536 31.6662 10.632C31.7622 10.7227 31.8369 10.832 31.8902 10.96C31.9489 11.0827 31.9782 11.2133 31.9782 11.352Z" fill="black"/>
<path d="M34.168 22V13.896H35.016C35.2187 13.896 35.3467 13.9947 35.4 14.192L35.512 15.072C35.864 14.6827 36.256 14.368 36.688 14.128C37.1253 13.888 37.6293 13.768 38.2 13.768C38.6427 13.768 39.032 13.8427 39.368 13.992C39.7093 14.136 39.992 14.344 40.216 14.616C40.4453 14.8827 40.6187 15.2053 40.736 15.584C40.8533 15.9627 40.912 16.3813 40.912 16.84V22H39.488V16.84C39.488 16.2267 39.3467 15.752 39.064 15.416C38.7867 15.0747 38.36 14.904 37.784 14.904C37.3627 14.904 36.968 15.0053 36.6 15.208C36.2373 15.4107 35.9013 15.6853 35.592 16.032V22H34.168Z" fill="black"/>
<path d="M45.7866 13.76C46.1386 13.76 46.4666 13.8 46.7706 13.88C47.0799 13.9547 47.3599 14.0667 47.6106 14.216H49.8106V14.744C49.8106 14.92 49.6986 15.032 49.4746 15.08L48.5546 15.208C48.7359 15.5547 48.8266 15.9413 48.8266 16.368C48.8266 16.7627 48.7493 17.1227 48.5946 17.448C48.4453 17.768 48.2346 18.0427 47.9626 18.272C47.6959 18.5013 47.3759 18.6773 47.0026 18.8C46.6346 18.9227 46.2293 18.984 45.7866 18.984C45.4079 18.984 45.0506 18.9387 44.7146 18.848C44.5439 18.9547 44.4133 19.0693 44.3226 19.192C44.2373 19.3147 44.1946 19.4347 44.1946 19.552C44.1946 19.744 44.2719 19.8907 44.4266 19.992C44.5813 20.088 44.7866 20.1573 45.0426 20.2C45.2986 20.2427 45.5893 20.2693 45.9146 20.28C46.2399 20.2907 46.5706 20.3093 46.9066 20.336C47.2479 20.3573 47.5813 20.3973 47.9066 20.456C48.2319 20.5147 48.5226 20.6107 48.7786 20.744C49.0346 20.8773 49.2399 21.0613 49.3946 21.296C49.5493 21.5307 49.6266 21.8347 49.6266 22.208C49.6266 22.5547 49.5386 22.8907 49.3626 23.216C49.1919 23.5413 48.9439 23.8293 48.6186 24.08C48.2933 24.336 47.8959 24.5387 47.4266 24.688C46.9573 24.8427 46.4266 24.92 45.8346 24.92C45.2426 24.92 44.7226 24.8613 44.2746 24.744C43.8319 24.6267 43.4639 24.4693 43.1706 24.272C42.8773 24.0747 42.6559 23.8453 42.5066 23.584C42.3626 23.328 42.2906 23.0587 42.2906 22.776C42.2906 22.376 42.4159 22.0373 42.6666 21.76C42.9226 21.4773 43.2719 21.2533 43.7146 21.088C43.4853 20.9813 43.3013 20.84 43.1626 20.664C43.0293 20.4827 42.9626 20.2427 42.9626 19.944C42.9626 19.8267 42.9839 19.7067 43.0266 19.584C43.0693 19.456 43.1333 19.3307 43.2186 19.208C43.3093 19.0853 43.4186 18.968 43.5466 18.856C43.6746 18.744 43.8239 18.6453 43.9946 18.56C43.5946 18.336 43.2799 18.04 43.0506 17.672C42.8266 17.2987 42.7146 16.864 42.7146 16.368C42.7146 15.9733 42.7893 15.616 42.9386 15.296C43.0933 14.9707 43.3066 14.696 43.5786 14.472C43.8506 14.2427 44.1733 14.0667 44.5466 13.944C44.9253 13.8213 45.3386 13.76 45.7866 13.76ZM48.3146 22.44C48.3146 22.2373 48.2586 22.0747 48.1466 21.952C48.0346 21.8293 47.8826 21.736 47.6906 21.672C47.4986 21.6027 47.2773 21.552 47.0266 21.52C46.7759 21.488 46.5119 21.4667 46.2346 21.456C45.9573 21.44 45.6746 21.424 45.3866 21.408C45.0986 21.392 44.8239 21.3627 44.5626 21.32C44.2586 21.464 44.0106 21.64 43.8186 21.848C43.6319 22.056 43.5386 22.304 43.5386 22.592C43.5386 22.7733 43.5839 22.9413 43.6746 23.096C43.7706 23.256 43.9146 23.392 44.1066 23.504C44.2986 23.6213 44.5386 23.712 44.8266 23.776C45.1199 23.8453 45.4639 23.88 45.8586 23.88C46.2426 23.88 46.5866 23.8453 46.8906 23.776C47.1946 23.7067 47.4506 23.608 47.6586 23.48C47.8719 23.352 48.0346 23.2 48.1466 23.024C48.2586 22.848 48.3146 22.6533 48.3146 22.44ZM45.7866 18.04C46.0746 18.04 46.3279 18 46.5466 17.92C46.7706 17.84 46.9573 17.728 47.1066 17.584C47.2559 17.44 47.3679 17.2693 47.4426 17.072C47.5173 16.8693 47.5546 16.648 47.5546 16.408C47.5546 15.912 47.4026 15.5173 47.0986 15.224C46.7999 14.9307 46.3626 14.784 45.7866 14.784C45.2159 14.784 44.7786 14.9307 44.4746 15.224C44.1759 15.5173 44.0266 15.912 44.0266 16.408C44.0266 16.648 44.0639 16.8693 44.1386 17.072C44.2186 17.2693 44.3333 17.44 44.4826 17.584C44.6319 17.728 44.8159 17.84 45.0346 17.92C45.2533 18 45.5039 18.04 45.7866 18.04Z" fill="black"/>
<path d="M55.8705 15.232C55.8065 15.3493 55.7078 15.408 55.5745 15.408C55.4945 15.408 55.4038 15.3787 55.3025 15.32C55.2012 15.2613 55.0758 15.1973 54.9265 15.128C54.7825 15.0533 54.6092 14.9867 54.4065 14.928C54.2038 14.864 53.9638 14.832 53.6865 14.832C53.4465 14.832 53.2305 14.864 53.0385 14.928C52.8465 14.9867 52.6812 15.0693 52.5425 15.176C52.4092 15.2827 52.3052 15.408 52.2305 15.552C52.1612 15.6907 52.1265 15.8427 52.1265 16.008C52.1265 16.216 52.1852 16.3893 52.3025 16.528C52.4252 16.6667 52.5852 16.7867 52.7825 16.888C52.9798 16.9893 53.2038 17.08 53.4545 17.16C53.7052 17.2347 53.9612 17.3173 54.2225 17.408C54.4892 17.4933 54.7478 17.5893 54.9985 17.696C55.2492 17.8027 55.4732 17.936 55.6705 18.096C55.8678 18.256 56.0252 18.4533 56.1425 18.688C56.2652 18.9173 56.3265 19.1947 56.3265 19.52C56.3265 19.8933 56.2598 20.24 56.1265 20.56C55.9932 20.8747 55.7958 21.1493 55.5345 21.384C55.2732 21.6133 54.9532 21.7947 54.5745 21.928C54.1958 22.0613 53.7585 22.128 53.2625 22.128C52.6972 22.128 52.1852 22.0373 51.7265 21.856C51.2678 21.6693 50.8785 21.432 50.5585 21.144L50.8945 20.6C50.9372 20.5307 50.9878 20.4773 51.0465 20.44C51.1052 20.4027 51.1825 20.384 51.2785 20.384C51.3745 20.384 51.4758 20.4213 51.5825 20.496C51.6892 20.5707 51.8172 20.6533 51.9665 20.744C52.1212 20.8347 52.3052 20.9173 52.5185 20.992C52.7372 21.0667 53.0092 21.104 53.3345 21.104C53.6118 21.104 53.8545 21.0693 54.0625 21C54.2705 20.9253 54.4438 20.8267 54.5825 20.704C54.7212 20.5813 54.8225 20.44 54.8865 20.28C54.9558 20.12 54.9905 19.9493 54.9905 19.768C54.9905 19.544 54.9292 19.36 54.8065 19.216C54.6892 19.0667 54.5318 18.9413 54.3345 18.84C54.1372 18.7333 53.9105 18.6427 53.6545 18.568C53.4038 18.488 53.1452 18.4053 52.8785 18.32C52.6172 18.2347 52.3585 18.1387 52.1025 18.032C51.8518 17.92 51.6278 17.7813 51.4305 17.616C51.2332 17.4507 51.0732 17.248 50.9505 17.008C50.8332 16.7627 50.7745 16.4667 50.7745 16.12C50.7745 15.8107 50.8385 15.5147 50.9665 15.232C51.0945 14.944 51.2812 14.6933 51.5265 14.48C51.7718 14.2613 52.0732 14.088 52.4305 13.96C52.7878 13.832 53.1958 13.768 53.6545 13.768C54.1878 13.768 54.6652 13.8533 55.0865 14.024C55.5132 14.1893 55.8812 14.4187 56.1905 14.712L55.8705 15.232Z" fill="black"/>
<path fill-rule="evenodd" clip-rule="evenodd" d="M82.1365 0.186468C82.015 0.307936 81.9227 0.49947 81.8715 0.736472C81.8283 0.936407 81.7368 1.43001 81.6681 1.83335C81.5994 2.23668 81.4911 2.99336 81.4274 3.51489L81.3116 4.46317L80.9724 4.57284C80.7858 4.63317 80.3596 4.8015 80.0251 4.94697L79.417 5.21151L78.0168 4.11183C77.2467 3.50696 76.5243 2.96442 76.4115 2.90609C76.2987 2.84776 76.1199 2.80002 76.0141 2.80002C75.8969 2.80002 75.6693 2.90696 75.4304 3.07429C75.2151 3.22509 74.7226 3.64336 74.336 4.0037C73.9494 4.3641 73.2899 5.03397 72.8704 5.49231C72.451 5.95065 72.0386 6.43992 71.9541 6.57952C71.8696 6.71919 71.8003 6.92826 71.8001 7.04419C71.7999 7.19079 71.8861 7.36633 72.0831 7.62039C72.239 7.82133 72.6834 8.38647 73.071 8.87627C73.4584 9.36601 73.8761 9.90935 73.9991 10.0836L74.2227 10.4004L73.9152 11.0503C73.746 11.4077 73.571 11.8283 73.526 11.9849C73.4696 12.1819 73.4016 12.2791 73.3054 12.3001C73.229 12.3168 72.3414 12.4542 71.3331 12.6054C70.3248 12.7567 69.4495 12.9072 69.3883 12.9398C69.3269 12.9725 69.2144 13.0785 69.1383 13.1754C69.0034 13.3467 68.9997 13.4202 69 15.9258C69.0002 18.3599 69.0073 18.5117 69.1301 18.7132C69.217 18.8557 69.3439 18.9499 69.5132 18.9977C69.6525 19.037 70.5714 19.1886 71.5552 19.3347C72.539 19.4807 73.3526 19.6002 73.3632 19.6002C73.3738 19.6002 73.4649 19.8326 73.5657 20.1168C73.6664 20.401 73.8621 20.859 74.0006 21.1346L74.2523 21.6356L73.1887 23.0012C72.6038 23.7523 72.0779 24.4558 72.02 24.5645C71.9622 24.6731 71.9149 24.8757 71.9149 25.0145C71.9149 25.1793 71.9798 25.3651 72.1022 25.5501C72.2051 25.706 72.994 26.5344 73.8552 27.391C74.7165 28.2476 75.5138 29.005 75.6271 29.0741C75.7404 29.1432 75.9171 29.1998 76.0198 29.2C76.1224 29.2001 76.2941 29.1549 76.4013 29.0994C76.5085 29.044 77.2444 28.5008 78.0366 27.8922L79.477 26.7857L80.0551 27.0505C80.373 27.1962 80.7907 27.3704 80.9832 27.4376C81.1756 27.5049 81.3332 27.5776 81.3332 27.5992C81.3332 27.6208 81.468 28.5224 81.6329 29.6027L81.9326 31.5669L82.1652 31.7836L82.3979 32.0003H85.0252H87.6524L87.8508 31.8149C87.989 31.6859 88.0731 31.519 88.128 31.2649C88.1713 31.0644 88.263 30.5702 88.3316 30.1669C88.4004 29.7636 88.508 29.0118 88.571 28.4962L88.6854 27.559L89.126 27.403C89.3683 27.3173 89.7683 27.1465 90.0149 27.0237C90.2615 26.9007 90.4966 26.8002 90.5374 26.8002C90.5782 26.8002 91.2315 27.2909 91.9891 27.8907C92.7467 28.4904 93.4626 29.0304 93.5799 29.0907C93.6973 29.1509 93.8777 29.2002 93.9809 29.2002C94.084 29.2002 94.318 29.0994 94.5008 28.9763C94.6837 28.8531 95.1633 28.4498 95.5666 28.08C95.97 27.7102 96.6446 27.0298 97.0659 26.5679C97.4872 26.1061 97.9147 25.6049 98.0159 25.4542C98.1218 25.2966 98.2 25.0892 98.2 24.9661C98.2 24.8473 98.1252 24.6419 98.0319 24.5045C97.9394 24.3682 97.57 23.8915 97.211 23.4451C96.852 22.9987 96.3834 22.4001 96.1696 22.1148L95.7808 21.5962L96.0214 21.0815C96.1537 20.7984 96.3346 20.3726 96.4234 20.1352L96.5848 19.7036L98.4141 19.4264C99.4203 19.2739 100.338 19.1284 100.453 19.1031C100.569 19.0778 100.739 18.967 100.832 18.8568L101 18.6566V16.0432C101 13.7828 100.986 13.4097 100.896 13.2812C100.839 13.1995 100.711 13.092 100.613 13.0424C100.514 12.9928 99.5715 12.822 98.5182 12.6629L96.603 12.3737L96.4088 11.8369C96.3019 11.5416 96.1099 11.0852 95.9821 10.8226L95.7496 10.345L96.6048 9.25587C97.0751 8.65687 97.6033 7.96186 97.7786 7.71139C98.0354 7.34459 98.0961 7.20512 98.0906 6.99399C98.0861 6.82432 98.0164 6.63219 97.8928 6.44925C97.7878 6.29385 97.0715 5.52538 96.301 4.7415C95.5304 3.95763 94.7547 3.20016 94.5773 3.05816C94.3345 2.86396 94.1942 2.80009 94.0106 2.80029C93.8764 2.80042 93.6765 2.85549 93.5663 2.92269C93.4561 2.98989 92.7275 3.52923 91.9471 4.1213L90.5282 5.19771L89.9474 4.93977C89.628 4.7979 89.209 4.63104 89.0166 4.5689C88.8241 4.50684 88.6666 4.43477 88.6666 4.4089C88.6666 4.38297 88.532 3.48496 88.3675 2.41329C88.1878 1.24288 88.0277 0.40267 87.9666 0.309336C87.9105 0.223802 87.7887 0.119268 87.6958 0.0769339C87.5774 0.0230001 86.7493 0 84.9249 0H82.3229L82.1365 0.186468ZM86.2332 10.8388C86.4934 10.8899 86.9654 11.0614 87.3 11.2266C87.63 11.3895 88.1096 11.6987 88.3656 11.9138C88.6216 12.1288 88.976 12.4837 89.153 12.7024C89.3301 12.9212 89.6088 13.3701 89.7723 13.7001C89.9403 14.0392 90.1142 14.5168 90.1721 14.7984C90.2284 15.0724 90.2742 15.6124 90.2739 15.9984C90.2735 16.3843 90.2258 16.9251 90.1678 17.2001C90.1098 17.4751 89.9759 17.8855 89.8702 18.112C89.7646 18.3385 89.5498 18.7135 89.3929 18.9454C89.236 19.1772 88.941 19.5336 88.7372 19.7374C88.5333 19.9412 88.1757 20.2372 87.9424 20.395C87.7091 20.5528 87.3261 20.7691 87.0914 20.8756C86.8566 20.982 86.4474 21.1151 86.1821 21.1713C85.9169 21.2275 85.3849 21.2734 84.9999 21.2734C84.6149 21.2734 84.0829 21.2275 83.8176 21.1713C83.5523 21.1151 83.1432 20.982 82.9084 20.8756C82.6737 20.7691 82.2907 20.5528 82.0574 20.395C81.824 20.2372 81.4664 19.9412 81.2626 19.7374C81.0588 19.5336 80.7637 19.1772 80.6068 18.9454C80.45 18.7135 80.2352 18.3385 80.1295 18.112C80.0238 17.8855 79.8899 17.4751 79.832 17.2001C79.774 16.9251 79.7262 16.3843 79.7258 15.9984C79.7255 15.6124 79.7713 15.0724 79.8276 14.7984C79.8856 14.5168 80.0594 14.0392 80.2274 13.7001C80.391 13.3701 80.6696 12.9212 80.8467 12.7024C81.0237 12.4837 81.3722 12.1337 81.6212 11.9246C81.8701 11.7156 82.3046 11.4248 82.5869 11.2784C82.869 11.132 83.2689 10.9634 83.4754 10.9037C83.6819 10.844 84.0869 10.7712 84.3754 10.7419C84.6639 10.7126 85.0949 10.7018 85.3332 10.718C85.5715 10.7342 85.9765 10.7886 86.2332 10.8388Z" fill="black"/>
</svg>
