<svg width="240" height="112" viewBox="0 0 240 112" fill="none" xmlns="http://www.w3.org/2000/svg">
<path d="M109.04 71.272C109.04 72.1307 108.904 72.92 108.632 73.64C108.36 74.3547 107.976 74.9707 107.48 75.488C106.984 76.0053 106.387 76.408 105.688 76.696C104.995 76.9787 104.227 77.12 103.384 77.12C102.541 77.12 101.773 76.9787 101.08 76.696C100.387 76.408 99.792 76.0053 99.296 75.488C98.8 74.9707 98.416 74.3547 98.144 73.64C97.872 72.92 97.736 72.1307 97.736 71.272C97.736 70.4133 97.872 69.6267 98.144 68.912C98.416 68.192 98.8 67.5733 99.296 67.056C99.792 66.5333 100.387 66.128 101.08 65.84C101.773 65.552 102.541 65.408 103.384 65.408C104.227 65.408 104.995 65.552 105.688 65.84C106.387 66.128 106.984 66.5333 107.48 67.056C107.976 67.5733 108.36 68.192 108.632 68.912C108.904 69.6267 109.04 70.4133 109.04 71.272ZM107.448 71.272C107.448 70.568 107.352 69.936 107.16 69.376C106.968 68.816 106.696 68.344 106.344 67.96C105.992 67.5707 105.565 67.272 105.064 67.064C104.563 66.856 104.003 66.752 103.384 66.752C102.771 66.752 102.213 66.856 101.712 67.064C101.211 67.272 100.781 67.5707 100.424 67.96C100.072 68.344 99.8 68.816 99.608 69.376C99.416 69.936 99.32 70.568 99.32 71.272C99.32 71.976 99.416 72.608 99.608 73.168C99.8 73.7227 100.072 74.1947 100.424 74.584C100.781 74.968 101.211 75.264 101.712 75.472C102.213 75.6747 102.771 75.776 103.384 75.776C104.003 75.776 104.563 75.6747 105.064 75.472C105.565 75.264 105.992 74.968 106.344 74.584C106.696 74.1947 106.968 73.7227 107.16 73.168C107.352 72.608 107.448 71.976 107.448 71.272ZM110.934 79.744V68.896H111.782C111.984 68.896 112.112 68.9947 112.166 69.192L112.286 70.152C112.632 69.7307 113.027 69.392 113.47 69.136C113.918 68.88 114.432 68.752 115.014 68.752C115.478 68.752 115.899 68.8427 116.278 69.024C116.656 69.2 116.979 69.464 117.246 69.816C117.512 70.1627 117.718 70.5947 117.862 71.112C118.006 71.6293 118.078 72.224 118.078 72.896C118.078 73.4933 117.998 74.0507 117.838 74.568C117.678 75.08 117.448 75.5253 117.15 75.904C116.851 76.2773 116.483 76.5733 116.046 76.792C115.614 77.0053 115.126 77.112 114.582 77.112C114.08 77.112 113.651 77.0293 113.294 76.864C112.942 76.6987 112.63 76.464 112.358 76.16V79.744H110.934ZM114.542 69.904C114.078 69.904 113.67 70.0107 113.318 70.224C112.971 70.4373 112.651 70.7387 112.358 71.128V75.048C112.619 75.4 112.904 75.648 113.214 75.792C113.528 75.936 113.878 76.008 114.262 76.008C115.014 76.008 115.592 75.7387 115.998 75.2C116.403 74.6613 116.606 73.8933 116.606 72.896C116.606 72.368 116.558 71.9147 116.462 71.536C116.371 71.1573 116.238 70.848 116.062 70.608C115.886 70.3627 115.67 70.184 115.414 70.072C115.158 69.96 114.867 69.904 114.542 69.904ZM122.218 77.128C121.578 77.128 121.084 76.9493 120.738 76.592C120.396 76.2347 120.226 75.72 120.226 75.048V70.088H119.25C119.164 70.088 119.092 70.064 119.034 70.016C118.975 69.9627 118.946 69.8827 118.946 69.776V69.208L120.274 69.04L120.602 66.536C120.612 66.456 120.647 66.392 120.706 66.344C120.764 66.2907 120.839 66.264 120.93 66.264H121.65V69.056H123.97V70.088H121.65V74.952C121.65 75.2933 121.732 75.5467 121.898 75.712C122.063 75.8773 122.276 75.96 122.538 75.96C122.687 75.96 122.815 75.9413 122.922 75.904C123.034 75.8613 123.13 75.816 123.21 75.768C123.29 75.72 123.356 75.6773 123.41 75.64C123.468 75.5973 123.519 75.576 123.562 75.576C123.636 75.576 123.703 75.6213 123.762 75.712L124.178 76.392C123.932 76.6213 123.636 76.8027 123.29 76.936C122.943 77.064 122.586 77.128 122.218 77.128ZM127.315 68.896V77H125.891V68.896H127.315ZM127.635 66.352C127.635 66.4907 127.605 66.6213 127.547 66.744C127.493 66.8613 127.419 66.968 127.323 67.064C127.232 67.1547 127.125 67.2267 127.003 67.28C126.88 67.3333 126.749 67.36 126.611 67.36C126.472 67.36 126.341 67.3333 126.219 67.28C126.101 67.2267 125.995 67.1547 125.899 67.064C125.808 66.968 125.736 66.8613 125.683 66.744C125.629 66.6213 125.603 66.4907 125.603 66.352C125.603 66.2133 125.629 66.0827 125.683 65.96C125.736 65.832 125.808 65.7227 125.899 65.632C125.995 65.536 126.101 65.4613 126.219 65.408C126.341 65.3547 126.472 65.328 126.611 65.328C126.749 65.328 126.88 65.3547 127.003 65.408C127.125 65.4613 127.232 65.536 127.323 65.632C127.419 65.7227 127.493 65.832 127.547 65.96C127.605 66.0827 127.635 66.2133 127.635 66.352ZM133.104 68.768C133.696 68.768 134.23 68.8667 134.704 69.064C135.184 69.2613 135.59 69.5413 135.92 69.904C136.256 70.2667 136.512 70.7067 136.688 71.224C136.87 71.736 136.96 72.3093 136.96 72.944C136.96 73.584 136.87 74.16 136.688 74.672C136.512 75.184 136.256 75.6213 135.92 75.984C135.59 76.3467 135.184 76.6267 134.704 76.824C134.23 77.016 133.696 77.112 133.104 77.112C132.512 77.112 131.976 77.016 131.496 76.824C131.022 76.6267 130.616 76.3467 130.28 75.984C129.944 75.6213 129.686 75.184 129.504 74.672C129.323 74.16 129.232 73.584 129.232 72.944C129.232 72.3093 129.323 71.736 129.504 71.224C129.686 70.7067 129.944 70.2667 130.28 69.904C130.616 69.5413 131.022 69.2613 131.496 69.064C131.976 68.8667 132.512 68.768 133.104 68.768ZM133.104 76C133.904 76 134.502 75.7333 134.896 75.2C135.291 74.6613 135.488 73.912 135.488 72.952C135.488 71.9867 135.291 71.2347 134.896 70.696C134.502 70.1573 133.904 69.888 133.104 69.888C132.699 69.888 132.347 69.9573 132.048 70.096C131.75 70.2347 131.499 70.4347 131.296 70.696C131.099 70.9573 130.95 71.28 130.848 71.664C130.752 72.0427 130.704 72.472 130.704 72.952C130.704 73.432 130.752 73.8613 130.848 74.24C130.95 74.6187 131.099 74.9387 131.296 75.2C131.499 75.456 131.75 75.6533 132.048 75.792C132.347 75.9307 132.699 76 133.104 76ZM138.715 77V68.896H139.563C139.766 68.896 139.894 68.9947 139.947 69.192L140.059 70.072C140.411 69.6827 140.803 69.368 141.235 69.128C141.672 68.888 142.176 68.768 142.747 68.768C143.19 68.768 143.579 68.8427 143.915 68.992C144.256 69.136 144.539 69.344 144.763 69.616C144.992 69.8827 145.166 70.2053 145.283 70.584C145.4 70.9627 145.459 71.3813 145.459 71.84V77H144.035V71.84C144.035 71.2267 143.894 70.752 143.611 70.416C143.334 70.0747 142.907 69.904 142.331 69.904C141.91 69.904 141.515 70.0053 141.147 70.208C140.784 70.4107 140.448 70.6853 140.139 71.032V77H138.715ZM151.827 75.912H154.291V68.096C154.291 67.8613 154.299 67.624 154.315 67.384L152.267 69.136C152.214 69.1787 152.161 69.2107 152.107 69.232C152.054 69.248 152.003 69.256 151.955 69.256C151.875 69.256 151.803 69.24 151.739 69.208C151.675 69.1707 151.627 69.128 151.595 69.08L151.147 68.464L154.555 65.512H155.715V75.912H157.971V77H151.827V75.912Z" fill="black"/>
<circle cx="16" cy="70" r="16" fill="#FF7A00"/>
<line x1="24" y1="70.5" x2="54" y2="70.5" stroke="#FF7A00"/>
<path d="M13.152 74.52H15.496V67.776C15.496 67.5147 15.504 67.24 15.52 66.952L13.856 68.344C13.7867 68.4027 13.7147 68.4427 13.64 68.464C13.5707 68.4853 13.5013 68.496 13.432 68.496C13.3253 68.496 13.2267 68.4747 13.136 68.432C13.0507 68.384 12.9867 68.3307 12.944 68.272L12.32 67.416L15.848 64.416H17.472V74.52H19.552V76H13.152V74.52Z" fill="white"/>
<circle r="2.5" transform="matrix(1 0 0 -1 54.5 70.5)" fill="#FF7A00"/>
<circle cx="136" cy="16" r="16" fill="#FF7A00"/>
<line x1="136.5" y1="22" x2="136.5" y2="51" stroke="#FF7A00"/>
<path d="M135.816 10.304C136.349 10.304 136.837 10.384 137.28 10.544C137.723 10.6987 138.101 10.92 138.416 11.208C138.731 11.496 138.976 11.8427 139.152 12.248C139.328 12.6533 139.416 13.104 139.416 13.6C139.416 14.0267 139.352 14.4213 139.224 14.784C139.101 15.1467 138.933 15.4933 138.72 15.824C138.512 16.1547 138.267 16.4747 137.984 16.784C137.701 17.0933 137.405 17.408 137.096 17.728L134.488 20.392C134.744 20.3173 134.995 20.2613 135.24 20.224C135.485 20.1813 135.72 20.16 135.944 20.16H138.912C139.125 20.16 139.293 20.2213 139.416 20.344C139.544 20.4613 139.608 20.6187 139.608 20.816V22H131.672V21.344C131.672 21.2107 131.699 21.072 131.752 20.928C131.811 20.784 131.901 20.6507 132.024 20.528L135.536 17.008C135.829 16.7093 136.091 16.424 136.32 16.152C136.555 15.88 136.749 15.6107 136.904 15.344C137.064 15.0773 137.184 14.808 137.264 14.536C137.349 14.2587 137.392 13.968 137.392 13.664C137.392 13.3867 137.352 13.144 137.272 12.936C137.192 12.7227 137.077 12.544 136.928 12.4C136.779 12.256 136.6 12.1493 136.392 12.08C136.189 12.0053 135.96 11.968 135.704 11.968C135.229 11.968 134.837 12.088 134.528 12.328C134.224 12.568 134.011 12.8907 133.888 13.296C133.829 13.4987 133.741 13.6453 133.624 13.736C133.507 13.8213 133.357 13.864 133.176 13.864C133.096 13.864 133.008 13.856 132.912 13.84L131.872 13.656C131.952 13.1013 132.107 12.616 132.336 12.2C132.565 11.7787 132.851 11.4293 133.192 11.152C133.539 10.8693 133.933 10.6587 134.376 10.52C134.824 10.376 135.304 10.304 135.816 10.304Z" fill="white"/>
<circle r="2.5" transform="matrix(1 0 0 -1 136.5 51.5)" fill="#FF7A00"/>
<circle cx="224" cy="96" r="16" fill="#FF7A00"/>
<line x1="224" y1="96.5" x2="153" y2="96.5" stroke="#FF7A00"/>
<path d="M224 90.304C224.533 90.304 225.013 90.3813 225.44 90.536C225.872 90.6853 226.24 90.896 226.544 91.168C226.848 91.4347 227.08 91.7493 227.24 92.112C227.405 92.4747 227.488 92.8667 227.488 93.288C227.488 93.656 227.445 93.9813 227.36 94.264C227.28 94.5413 227.16 94.784 227 94.992C226.845 95.2 226.653 95.376 226.424 95.52C226.2 95.664 225.944 95.784 225.656 95.88C226.349 96.0987 226.867 96.432 227.208 96.88C227.549 97.328 227.72 97.8907 227.72 98.568C227.72 99.144 227.613 99.6533 227.4 100.096C227.187 100.539 226.899 100.912 226.536 101.216C226.173 101.515 225.752 101.741 225.272 101.896C224.797 102.051 224.293 102.128 223.76 102.128C223.179 102.128 222.672 102.061 222.24 101.928C221.808 101.795 221.432 101.597 221.112 101.336C220.792 101.075 220.52 100.755 220.296 100.376C220.072 99.9973 219.88 99.56 219.72 99.064L220.592 98.704C220.741 98.64 220.893 98.608 221.048 98.608C221.187 98.608 221.309 98.6373 221.416 98.696C221.528 98.7547 221.613 98.84 221.672 98.952C221.768 99.1387 221.872 99.3227 221.984 99.504C222.101 99.6853 222.24 99.848 222.4 99.992C222.56 100.131 222.747 100.245 222.96 100.336C223.179 100.421 223.437 100.464 223.736 100.464C224.072 100.464 224.365 100.411 224.616 100.304C224.867 100.192 225.075 100.048 225.24 99.872C225.411 99.696 225.536 99.5013 225.616 99.288C225.701 99.0693 225.744 98.8507 225.744 98.632C225.744 98.3547 225.715 98.104 225.656 97.88C225.597 97.6507 225.475 97.456 225.288 97.296C225.101 97.136 224.832 97.0107 224.48 96.92C224.133 96.8293 223.667 96.784 223.08 96.784V95.376C223.565 95.3707 223.968 95.3253 224.288 95.24C224.608 95.1547 224.861 95.0373 225.048 94.888C225.24 94.7333 225.373 94.5493 225.448 94.336C225.523 94.1227 225.56 93.888 225.56 93.632C225.56 93.0827 225.411 92.6693 225.112 92.392C224.813 92.1093 224.405 91.968 223.888 91.968C223.419 91.968 223.029 92.0933 222.72 92.344C222.411 92.5893 222.195 92.9067 222.072 93.296C222.008 93.4987 221.92 93.6453 221.808 93.736C221.696 93.8213 221.549 93.864 221.368 93.864C221.283 93.864 221.192 93.856 221.096 93.84L220.056 93.656C220.136 93.1013 220.291 92.616 220.52 92.2C220.749 91.7787 221.035 91.4293 221.376 91.152C221.723 90.8693 222.117 90.6587 222.56 90.52C223.008 90.376 223.488 90.304 224 90.304Z" fill="white"/>
<circle r="2.5" transform="matrix(1 0 0 -1 151.5 96.5)" fill="#FF7A00"/>
<path d="M77.352 101H75.987V96.436H70.583V101H69.218V90.969H70.583V95.442H75.987V90.969H77.352V101ZM82.411 93.797C82.8357 93.797 83.2277 93.8693 83.587 94.014C83.9464 94.154 84.2567 94.3593 84.518 94.63C84.7794 94.896 84.9824 95.2273 85.127 95.624C85.2764 96.016 85.351 96.464 85.351 96.968C85.351 97.164 85.33 97.2947 85.288 97.36C85.246 97.4253 85.1667 97.458 85.05 97.458H80.332C80.3414 97.906 80.402 98.2957 80.514 98.627C80.626 98.9583 80.78 99.236 80.976 99.46C81.172 99.6793 81.4054 99.845 81.676 99.957C81.9467 100.064 82.25 100.118 82.586 100.118C82.8987 100.118 83.167 100.083 83.391 100.013C83.6197 99.9383 83.8157 99.859 83.979 99.775C84.1424 99.691 84.2777 99.614 84.385 99.544C84.497 99.4693 84.5927 99.432 84.672 99.432C84.7747 99.432 84.854 99.4717 84.91 99.551L85.26 100.006C85.106 100.193 84.9217 100.356 84.707 100.496C84.4924 100.631 84.2614 100.743 84.014 100.832C83.7714 100.921 83.5194 100.986 83.258 101.028C82.9967 101.075 82.7377 101.098 82.481 101.098C81.991 101.098 81.5384 101.016 81.123 100.853C80.7124 100.685 80.3554 100.442 80.052 100.125C79.7534 99.803 79.52 99.4063 79.352 98.935C79.184 98.4637 79.1 97.9223 79.1 97.311C79.1 96.8163 79.1747 96.3543 79.324 95.925C79.478 95.4957 79.6974 95.1247 79.982 94.812C80.2667 94.4947 80.6144 94.2473 81.025 94.07C81.4357 93.888 81.8977 93.797 82.411 93.797ZM82.439 94.714C81.837 94.714 81.3634 94.889 81.018 95.239C80.6727 95.5843 80.458 96.065 80.374 96.681H84.231C84.231 96.3917 84.1914 96.128 84.112 95.89C84.0327 95.6473 83.916 95.4397 83.762 95.267C83.608 95.0897 83.419 94.9543 83.195 94.861C82.9757 94.763 82.7237 94.714 82.439 94.714ZM88.3318 90.689V101H87.0858V90.689H88.3318ZM90.5279 103.401V93.909H91.2699C91.4472 93.909 91.5592 93.9953 91.6059 94.168L91.7109 95.008C92.0142 94.6393 92.3595 94.343 92.7469 94.119C93.1389 93.895 93.5892 93.783 94.0979 93.783C94.5039 93.783 94.8725 93.8623 95.2039 94.021C95.5352 94.175 95.8175 94.406 96.0509 94.714C96.2842 95.0173 96.4639 95.3953 96.5899 95.848C96.7159 96.3007 96.7789 96.821 96.7789 97.409C96.7789 97.9317 96.7089 98.4193 96.5689 98.872C96.4289 99.32 96.2282 99.7097 95.9669 100.041C95.7055 100.368 95.3835 100.627 95.0009 100.818C94.6229 101.005 94.1959 101.098 93.7199 101.098C93.2812 101.098 92.9055 101.026 92.5929 100.881C92.2849 100.736 92.0119 100.531 91.7739 100.265V103.401H90.5279ZM93.6849 94.791C93.2789 94.791 92.9219 94.8843 92.6139 95.071C92.3105 95.2577 92.0305 95.5213 91.7739 95.862V99.292C92.0025 99.6 92.2522 99.817 92.5229 99.943C92.7982 100.069 93.1039 100.132 93.4399 100.132C94.0979 100.132 94.6042 99.8963 94.9589 99.425C95.3135 98.9537 95.4909 98.2817 95.4909 97.409C95.4909 96.947 95.4489 96.5503 95.3649 96.219C95.2855 95.8877 95.1689 95.617 95.0149 95.407C94.8609 95.1923 94.6719 95.036 94.4479 94.938C94.2239 94.84 93.9695 94.791 93.6849 94.791ZM101.059 93.797C101.484 93.797 101.876 93.8693 102.235 94.014C102.595 94.154 102.905 94.3593 103.166 94.63C103.428 94.896 103.631 95.2273 103.775 95.624C103.925 96.016 103.999 96.464 103.999 96.968C103.999 97.164 103.978 97.2947 103.936 97.36C103.894 97.4253 103.815 97.458 103.698 97.458H98.9805C98.9898 97.906 99.0505 98.2957 99.1625 98.627C99.2745 98.9583 99.4285 99.236 99.6245 99.46C99.8205 99.6793 100.054 99.845 100.324 99.957C100.595 100.064 100.898 100.118 101.234 100.118C101.547 100.118 101.815 100.083 102.039 100.013C102.268 99.9383 102.464 99.859 102.627 99.775C102.791 99.691 102.926 99.614 103.033 99.544C103.145 99.4693 103.241 99.432 103.32 99.432C103.423 99.432 103.502 99.4717 103.558 99.551L103.908 100.006C103.754 100.193 103.57 100.356 103.355 100.496C103.141 100.631 102.91 100.743 102.662 100.832C102.42 100.921 102.168 100.986 101.906 101.028C101.645 101.075 101.386 101.098 101.129 101.098C100.639 101.098 100.187 101.016 99.7715 100.853C99.3608 100.685 99.0038 100.442 98.7005 100.125C98.4018 99.803 98.1685 99.4063 98.0005 98.935C97.8325 98.4637 97.7485 97.9223 97.7485 97.311C97.7485 96.8163 97.8231 96.3543 97.9725 95.925C98.1265 95.4957 98.3458 95.1247 98.6305 94.812C98.9151 94.4947 99.2628 94.2473 99.6735 94.07C100.084 93.888 100.546 93.797 101.059 93.797ZM101.087 94.714C100.485 94.714 100.012 94.889 99.6665 95.239C99.3211 95.5843 99.1065 96.065 99.0225 96.681H102.879C102.879 96.3917 102.84 96.128 102.76 95.89C102.681 95.6473 102.564 95.4397 102.41 95.267C102.256 95.0897 102.067 94.9543 101.843 94.861C101.624 94.763 101.372 94.714 101.087 94.714ZM105.594 101V93.909H106.308C106.444 93.909 106.537 93.9347 106.588 93.986C106.64 94.0373 106.675 94.126 106.693 94.252L106.777 95.358C107.02 94.8633 107.319 94.4783 107.673 94.203C108.033 93.923 108.453 93.783 108.933 93.783C109.129 93.783 109.307 93.8063 109.465 93.853C109.624 93.895 109.771 93.9557 109.906 94.035L109.745 94.966C109.713 95.0827 109.64 95.141 109.528 95.141C109.463 95.141 109.363 95.12 109.227 95.078C109.092 95.0313 108.903 95.008 108.66 95.008C108.226 95.008 107.862 95.134 107.568 95.386C107.279 95.638 107.036 96.0043 106.84 96.485V101H105.594ZM116.097 101.112C115.537 101.112 115.105 100.956 114.802 100.643C114.503 100.33 114.354 99.88 114.354 99.292V94.952H113.5C113.425 94.952 113.362 94.931 113.311 94.889C113.259 94.8423 113.234 94.7723 113.234 94.679V94.182L114.396 94.035L114.683 91.844C114.692 91.774 114.722 91.718 114.774 91.676C114.825 91.6293 114.89 91.606 114.97 91.606H115.6V94.049H117.63V94.952H115.6V99.208C115.6 99.5067 115.672 99.7283 115.817 99.873C115.961 100.018 116.148 100.09 116.377 100.09C116.507 100.09 116.619 100.074 116.713 100.041C116.811 100.004 116.895 99.964 116.965 99.922C117.035 99.88 117.093 99.8427 117.14 99.81C117.191 99.7727 117.235 99.754 117.273 99.754C117.338 99.754 117.396 99.7937 117.448 99.873L117.812 100.468C117.597 100.669 117.338 100.827 117.035 100.944C116.731 101.056 116.419 101.112 116.097 101.112ZM121.977 93.797C122.402 93.797 122.794 93.8693 123.153 94.014C123.513 94.154 123.823 94.3593 124.084 94.63C124.346 94.896 124.549 95.2273 124.693 95.624C124.843 96.016 124.917 96.464 124.917 96.968C124.917 97.164 124.896 97.2947 124.854 97.36C124.812 97.4253 124.733 97.458 124.616 97.458H119.898C119.908 97.906 119.968 98.2957 120.08 98.627C120.192 98.9583 120.346 99.236 120.542 99.46C120.738 99.6793 120.972 99.845 121.242 99.957C121.513 100.064 121.816 100.118 122.152 100.118C122.465 100.118 122.733 100.083 122.957 100.013C123.186 99.9383 123.382 99.859 123.545 99.775C123.709 99.691 123.844 99.614 123.951 99.544C124.063 99.4693 124.159 99.432 124.238 99.432C124.341 99.432 124.42 99.4717 124.476 99.551L124.826 100.006C124.672 100.193 124.488 100.356 124.273 100.496C124.059 100.631 123.828 100.743 123.58 100.832C123.338 100.921 123.086 100.986 122.824 101.028C122.563 101.075 122.304 101.098 122.047 101.098C121.557 101.098 121.105 101.016 120.689 100.853C120.279 100.685 119.922 100.442 119.618 100.125C119.32 99.803 119.086 99.4063 118.918 98.935C118.75 98.4637 118.666 97.9223 118.666 97.311C118.666 96.8163 118.741 96.3543 118.89 95.925C119.044 95.4957 119.264 95.1247 119.548 94.812C119.833 94.4947 120.181 94.2473 120.591 94.07C121.002 93.888 121.464 93.797 121.977 93.797ZM122.005 94.714C121.403 94.714 120.93 94.889 120.584 95.239C120.239 95.5843 120.024 96.065 119.94 96.681H123.797C123.797 96.3917 123.758 96.128 123.678 95.89C123.599 95.6473 123.482 95.4397 123.328 95.267C123.174 95.0897 122.985 94.9543 122.761 94.861C122.542 94.763 122.29 94.714 122.005 94.714ZM127.747 97.367L125.36 93.909H126.557C126.66 93.909 126.735 93.9253 126.781 93.958C126.828 93.9907 126.87 94.0373 126.907 94.098L128.643 96.758C128.685 96.6273 128.746 96.4967 128.825 96.366L130.351 94.126C130.398 94.0607 130.445 94.0093 130.491 93.972C130.538 93.93 130.596 93.909 130.666 93.909H131.814L129.427 97.297L131.912 101H130.715C130.613 101 130.531 100.974 130.47 100.923C130.414 100.867 130.368 100.806 130.33 100.741L128.545 97.962C128.513 98.0973 128.464 98.2187 128.398 98.326L126.746 100.741C126.7 100.806 126.648 100.867 126.592 100.923C126.541 100.974 126.469 101 126.375 101H125.262L127.747 97.367ZM135.292 101.112C134.732 101.112 134.3 100.956 133.997 100.643C133.698 100.33 133.549 99.88 133.549 99.292V94.952H132.695C132.62 94.952 132.557 94.931 132.506 94.889C132.455 94.8423 132.429 94.7723 132.429 94.679V94.182L133.591 94.035L133.878 91.844C133.887 91.774 133.918 91.718 133.969 91.676C134.02 91.6293 134.086 91.606 134.165 91.606H134.795V94.049H136.825V94.952H134.795V99.208C134.795 99.5067 134.867 99.7283 135.012 99.873C135.157 100.018 135.343 100.09 135.572 100.09C135.703 100.09 135.815 100.074 135.908 100.041C136.006 100.004 136.09 99.964 136.16 99.922C136.23 99.88 136.288 99.8427 136.335 99.81C136.386 99.7727 136.431 99.754 136.468 99.754C136.533 99.754 136.592 99.7937 136.643 99.873L137.007 100.468C136.792 100.669 136.533 100.827 136.23 100.944C135.927 101.056 135.614 101.112 135.292 101.112Z" fill="#6A6A6A"/>
<circle cx="78" cy="71" r="8" fill="white" stroke="#0064D1" stroke-width="6"/>
</svg>
