<svg width="130" height="103" viewBox="0 0 130 103" fill="none" xmlns="http://www.w3.org/2000/svg">
<path d="M41.04 41.272C41.04 42.1307 40.904 42.92 40.632 43.64C40.36 44.3547 39.976 44.9707 39.48 45.488C38.984 46.0053 38.3867 46.408 37.688 46.696C36.9947 46.9787 36.2267 47.12 35.384 47.12C34.5413 47.12 33.7733 46.9787 33.08 46.696C32.3867 46.408 31.792 46.0053 31.296 45.488C30.8 44.9707 30.416 44.3547 30.144 43.64C29.872 42.92 29.736 42.1307 29.736 41.272C29.736 40.4133 29.872 39.6267 30.144 38.912C30.416 38.192 30.8 37.5733 31.296 37.056C31.792 36.5333 32.3867 36.128 33.08 35.84C33.7733 35.552 34.5413 35.408 35.384 35.408C36.2267 35.408 36.9947 35.552 37.688 35.84C38.3867 36.128 38.984 36.5333 39.48 37.056C39.976 37.5733 40.36 38.192 40.632 38.912C40.904 39.6267 41.04 40.4133 41.04 41.272ZM39.448 41.272C39.448 40.568 39.352 39.936 39.16 39.376C38.968 38.816 38.696 38.344 38.344 37.96C37.992 37.5707 37.5653 37.272 37.064 37.064C36.5627 36.856 36.0027 36.752 35.384 36.752C34.7707 36.752 34.2133 36.856 33.712 37.064C33.2107 37.272 32.7813 37.5707 32.424 37.96C32.072 38.344 31.8 38.816 31.608 39.376C31.416 39.936 31.32 40.568 31.32 41.272C31.32 41.976 31.416 42.608 31.608 43.168C31.8 43.7227 32.072 44.1947 32.424 44.584C32.7813 44.968 33.2107 45.264 33.712 45.472C34.2133 45.6747 34.7707 45.776 35.384 45.776C36.0027 45.776 36.5627 45.6747 37.064 45.472C37.5653 45.264 37.992 44.968 38.344 44.584C38.696 44.1947 38.968 43.7227 39.16 43.168C39.352 42.608 39.448 41.976 39.448 41.272ZM42.9336 49.744V38.896H43.7816C43.9843 38.896 44.1123 38.9947 44.1656 39.192L44.2856 40.152C44.6323 39.7307 45.027 39.392 45.4696 39.136C45.9176 38.88 46.4323 38.752 47.0136 38.752C47.4776 38.752 47.899 38.8427 48.2776 39.024C48.6563 39.2 48.979 39.464 49.2456 39.816C49.5123 40.1627 49.7176 40.5947 49.8616 41.112C50.0056 41.6293 50.0776 42.224 50.0776 42.896C50.0776 43.4933 49.9976 44.0507 49.8376 44.568C49.6776 45.08 49.4483 45.5253 49.1496 45.904C48.851 46.2773 48.483 46.5733 48.0456 46.792C47.6136 47.0053 47.1256 47.112 46.5816 47.112C46.0803 47.112 45.651 47.0293 45.2936 46.864C44.9416 46.6987 44.6296 46.464 44.3576 46.16V49.744H42.9336ZM46.5416 39.904C46.0776 39.904 45.6696 40.0107 45.3176 40.224C44.971 40.4373 44.651 40.7387 44.3576 41.128V45.048C44.619 45.4 44.9043 45.648 45.2136 45.792C45.5283 45.936 45.8776 46.008 46.2616 46.008C47.0136 46.008 47.5923 45.7387 47.9976 45.2C48.403 44.6613 48.6056 43.8933 48.6056 42.896C48.6056 42.368 48.5576 41.9147 48.4616 41.536C48.371 41.1573 48.2376 40.848 48.0616 40.608C47.8856 40.3627 47.6696 40.184 47.4136 40.072C47.1576 39.96 46.867 39.904 46.5416 39.904ZM54.2178 47.128C53.5778 47.128 53.0844 46.9493 52.7378 46.592C52.3964 46.2347 52.2258 45.72 52.2258 45.048V40.088H51.2498C51.1644 40.088 51.0924 40.064 51.0338 40.016C50.9751 39.9627 50.9458 39.8827 50.9458 39.776V39.208L52.2738 39.04L52.6018 36.536C52.6124 36.456 52.6471 36.392 52.7057 36.344C52.7644 36.2907 52.8391 36.264 52.9298 36.264H53.6498V39.056H55.9698V40.088H53.6498V44.952C53.6498 45.2933 53.7324 45.5467 53.8978 45.712C54.0631 45.8773 54.2764 45.96 54.5378 45.96C54.6871 45.96 54.8151 45.9413 54.9218 45.904C55.0338 45.8613 55.1298 45.816 55.2098 45.768C55.2898 45.72 55.3564 45.6773 55.4098 45.64C55.4684 45.5973 55.5191 45.576 55.5618 45.576C55.6364 45.576 55.7031 45.6213 55.7618 45.712L56.1778 46.392C55.9324 46.6213 55.6364 46.8027 55.2898 46.936C54.9431 47.064 54.5858 47.128 54.2178 47.128ZM59.3145 38.896V47H57.8905V38.896H59.3145ZM59.6345 36.352C59.6345 36.4907 59.6052 36.6213 59.5465 36.744C59.4932 36.8613 59.4185 36.968 59.3225 37.064C59.2318 37.1547 59.1252 37.2267 59.0025 37.28C58.8798 37.3333 58.7492 37.36 58.6105 37.36C58.4718 37.36 58.3412 37.3333 58.2185 37.28C58.1012 37.2267 57.9945 37.1547 57.8985 37.064C57.8078 36.968 57.7358 36.8613 57.6825 36.744C57.6292 36.6213 57.6025 36.4907 57.6025 36.352C57.6025 36.2133 57.6292 36.0827 57.6825 35.96C57.7358 35.832 57.8078 35.7227 57.8985 35.632C57.9945 35.536 58.1012 35.4613 58.2185 35.408C58.3412 35.3547 58.4718 35.328 58.6105 35.328C58.7492 35.328 58.8798 35.3547 59.0025 35.408C59.1252 35.4613 59.2318 35.536 59.3225 35.632C59.4185 35.7227 59.4932 35.832 59.5465 35.96C59.6052 36.0827 59.6345 36.2133 59.6345 36.352ZM65.1043 38.768C65.6963 38.768 66.2296 38.8667 66.7043 39.064C67.1843 39.2613 67.5896 39.5413 67.9203 39.904C68.2563 40.2667 68.5123 40.7067 68.6883 41.224C68.8696 41.736 68.9603 42.3093 68.9603 42.944C68.9603 43.584 68.8696 44.16 68.6883 44.672C68.5123 45.184 68.2563 45.6213 67.9203 45.984C67.5896 46.3467 67.1843 46.6267 66.7043 46.824C66.2296 47.016 65.6963 47.112 65.1043 47.112C64.5123 47.112 63.9763 47.016 63.4963 46.824C63.0216 46.6267 62.6163 46.3467 62.2803 45.984C61.9443 45.6213 61.6856 45.184 61.5043 44.672C61.3229 44.16 61.2323 43.584 61.2323 42.944C61.2323 42.3093 61.3229 41.736 61.5043 41.224C61.6856 40.7067 61.9443 40.2667 62.2803 39.904C62.6163 39.5413 63.0216 39.2613 63.4963 39.064C63.9763 38.8667 64.5123 38.768 65.1043 38.768ZM65.1043 46C65.9043 46 66.5016 45.7333 66.8963 45.2C67.2909 44.6613 67.4883 43.912 67.4883 42.952C67.4883 41.9867 67.2909 41.2347 66.8963 40.696C66.5016 40.1573 65.9043 39.888 65.1043 39.888C64.6989 39.888 64.3469 39.9573 64.0483 40.096C63.7496 40.2347 63.4989 40.4347 63.2963 40.696C63.0989 40.9573 62.9496 41.28 62.8483 41.664C62.7523 42.0427 62.7043 42.472 62.7043 42.952C62.7043 43.432 62.7523 43.8613 62.8483 44.24C62.9496 44.6187 63.0989 44.9387 63.2963 45.2C63.4989 45.456 63.7496 45.6533 64.0483 45.792C64.3469 45.9307 64.6989 46 65.1043 46ZM70.7149 47V38.896H71.5629C71.7655 38.896 71.8935 38.9947 71.9469 39.192L72.0589 40.072C72.4109 39.6827 72.8029 39.368 73.2349 39.128C73.6722 38.888 74.1762 38.768 74.7469 38.768C75.1895 38.768 75.5789 38.8427 75.9149 38.992C76.2562 39.136 76.5389 39.344 76.7629 39.616C76.9922 39.8827 77.1655 40.2053 77.2829 40.584C77.4002 40.9627 77.4589 41.3813 77.4589 41.84V47H76.0349V41.84C76.0349 41.2267 75.8935 40.752 75.6109 40.416C75.3335 40.0747 74.9069 39.904 74.3309 39.904C73.9095 39.904 73.5149 40.0053 73.1469 40.208C72.7842 40.4107 72.4482 40.6853 72.1389 41.032V47H70.7149ZM86.3393 35.408C86.8246 35.408 87.2779 35.48 87.6993 35.624C88.1206 35.768 88.4833 35.9787 88.7873 36.256C89.0966 36.528 89.3393 36.8613 89.5153 37.256C89.6913 37.6507 89.7793 38.0987 89.7793 38.6C89.7793 39.0267 89.7153 39.4213 89.5873 39.784C89.4593 40.1467 89.2859 40.496 89.0673 40.832C88.8486 41.1627 88.5953 41.4853 88.3073 41.8C88.0246 42.1093 87.7233 42.4267 87.4033 42.752L84.3873 45.84C84.6006 45.7813 84.8166 45.736 85.0353 45.704C85.2539 45.6667 85.4646 45.648 85.6673 45.648H89.5073C89.6619 45.648 89.7846 45.6933 89.8753 45.784C89.9659 45.8747 90.0113 45.992 90.0113 46.136V47H82.3633V46.512C82.3633 46.4107 82.3819 46.3067 82.4193 46.2C82.4619 46.0933 82.5286 45.9947 82.6193 45.904L86.2913 42.216C86.5953 41.9067 86.8726 41.6107 87.1233 41.328C87.3739 41.04 87.5873 40.752 87.7633 40.464C87.9446 40.176 88.0833 39.8853 88.1793 39.592C88.2753 39.2933 88.3233 38.976 88.3233 38.64C88.3233 38.304 88.2699 38.0107 88.1633 37.76C88.0566 37.504 87.9099 37.2933 87.7233 37.128C87.5366 36.9627 87.3179 36.84 87.0673 36.76C86.8166 36.6747 86.5473 36.632 86.2593 36.632C85.9713 36.632 85.7046 36.6747 85.4593 36.76C85.2139 36.8453 84.9953 36.9653 84.8033 37.12C84.6166 37.2693 84.4566 37.448 84.3233 37.656C84.1953 37.864 84.1046 38.0933 84.0513 38.344C84.0086 38.4987 83.9446 38.6107 83.8593 38.68C83.7739 38.7493 83.6619 38.784 83.5233 38.784C83.4966 38.784 83.4673 38.784 83.4353 38.784C83.4086 38.7787 83.3766 38.7733 83.3393 38.768L82.5953 38.64C82.6699 38.1173 82.8139 37.656 83.0273 37.256C83.2406 36.8507 83.5099 36.512 83.8353 36.24C84.1659 35.968 84.5419 35.7627 84.9633 35.624C85.3899 35.48 85.8486 35.408 86.3393 35.408Z" fill="black"/>
<circle cx="11" cy="41" r="10.5" fill="white" stroke="#FE3631"/>
<path d="M41.04 71.272C41.04 72.1307 40.904 72.92 40.632 73.64C40.36 74.3547 39.976 74.9707 39.48 75.488C38.984 76.0053 38.3867 76.408 37.688 76.696C36.9947 76.9787 36.2267 77.12 35.384 77.12C34.5413 77.12 33.7733 76.9787 33.08 76.696C32.3867 76.408 31.792 76.0053 31.296 75.488C30.8 74.9707 30.416 74.3547 30.144 73.64C29.872 72.92 29.736 72.1307 29.736 71.272C29.736 70.4133 29.872 69.6267 30.144 68.912C30.416 68.192 30.8 67.5733 31.296 67.056C31.792 66.5333 32.3867 66.128 33.08 65.84C33.7733 65.552 34.5413 65.408 35.384 65.408C36.2267 65.408 36.9947 65.552 37.688 65.84C38.3867 66.128 38.984 66.5333 39.48 67.056C39.976 67.5733 40.36 68.192 40.632 68.912C40.904 69.6267 41.04 70.4133 41.04 71.272ZM39.448 71.272C39.448 70.568 39.352 69.936 39.16 69.376C38.968 68.816 38.696 68.344 38.344 67.96C37.992 67.5707 37.5653 67.272 37.064 67.064C36.5627 66.856 36.0027 66.752 35.384 66.752C34.7707 66.752 34.2133 66.856 33.712 67.064C33.2107 67.272 32.7813 67.5707 32.424 67.96C32.072 68.344 31.8 68.816 31.608 69.376C31.416 69.936 31.32 70.568 31.32 71.272C31.32 71.976 31.416 72.608 31.608 73.168C31.8 73.7227 32.072 74.1947 32.424 74.584C32.7813 74.968 33.2107 75.264 33.712 75.472C34.2133 75.6747 34.7707 75.776 35.384 75.776C36.0027 75.776 36.5627 75.6747 37.064 75.472C37.5653 75.264 37.992 74.968 38.344 74.584C38.696 74.1947 38.968 73.7227 39.16 73.168C39.352 72.608 39.448 71.976 39.448 71.272ZM42.9336 79.744V68.896H43.7816C43.9843 68.896 44.1123 68.9947 44.1656 69.192L44.2856 70.152C44.6323 69.7307 45.027 69.392 45.4696 69.136C45.9176 68.88 46.4323 68.752 47.0136 68.752C47.4776 68.752 47.899 68.8427 48.2776 69.024C48.6563 69.2 48.979 69.464 49.2456 69.816C49.5123 70.1627 49.7176 70.5947 49.8616 71.112C50.0056 71.6293 50.0776 72.224 50.0776 72.896C50.0776 73.4933 49.9976 74.0507 49.8376 74.568C49.6776 75.08 49.4483 75.5253 49.1496 75.904C48.851 76.2773 48.483 76.5733 48.0456 76.792C47.6136 77.0053 47.1256 77.112 46.5816 77.112C46.0803 77.112 45.651 77.0293 45.2936 76.864C44.9416 76.6987 44.6296 76.464 44.3576 76.16V79.744H42.9336ZM46.5416 69.904C46.0776 69.904 45.6696 70.0107 45.3176 70.224C44.971 70.4373 44.651 70.7387 44.3576 71.128V75.048C44.619 75.4 44.9043 75.648 45.2136 75.792C45.5283 75.936 45.8776 76.008 46.2616 76.008C47.0136 76.008 47.5923 75.7387 47.9976 75.2C48.403 74.6613 48.6056 73.8933 48.6056 72.896C48.6056 72.368 48.5576 71.9147 48.4616 71.536C48.371 71.1573 48.2376 70.848 48.0616 70.608C47.8856 70.3627 47.6696 70.184 47.4136 70.072C47.1576 69.96 46.867 69.904 46.5416 69.904ZM54.2178 77.128C53.5778 77.128 53.0844 76.9493 52.7378 76.592C52.3964 76.2347 52.2258 75.72 52.2258 75.048V70.088H51.2498C51.1644 70.088 51.0924 70.064 51.0338 70.016C50.9751 69.9627 50.9458 69.8827 50.9458 69.776V69.208L52.2738 69.04L52.6018 66.536C52.6124 66.456 52.6471 66.392 52.7057 66.344C52.7644 66.2907 52.8391 66.264 52.9298 66.264H53.6498V69.056H55.9698V70.088H53.6498V74.952C53.6498 75.2933 53.7324 75.5467 53.8978 75.712C54.0631 75.8773 54.2764 75.96 54.5378 75.96C54.6871 75.96 54.8151 75.9413 54.9218 75.904C55.0338 75.8613 55.1298 75.816 55.2098 75.768C55.2898 75.72 55.3564 75.6773 55.4098 75.64C55.4684 75.5973 55.5191 75.576 55.5618 75.576C55.6364 75.576 55.7031 75.6213 55.7618 75.712L56.1778 76.392C55.9324 76.6213 55.6364 76.8027 55.2898 76.936C54.9431 77.064 54.5858 77.128 54.2178 77.128ZM59.3145 68.896V77H57.8905V68.896H59.3145ZM59.6345 66.352C59.6345 66.4907 59.6052 66.6213 59.5465 66.744C59.4932 66.8613 59.4185 66.968 59.3225 67.064C59.2318 67.1547 59.1252 67.2267 59.0025 67.28C58.8798 67.3333 58.7492 67.36 58.6105 67.36C58.4718 67.36 58.3412 67.3333 58.2185 67.28C58.1012 67.2267 57.9945 67.1547 57.8985 67.064C57.8078 66.968 57.7358 66.8613 57.6825 66.744C57.6292 66.6213 57.6025 66.4907 57.6025 66.352C57.6025 66.2133 57.6292 66.0827 57.6825 65.96C57.7358 65.832 57.8078 65.7227 57.8985 65.632C57.9945 65.536 58.1012 65.4613 58.2185 65.408C58.3412 65.3547 58.4718 65.328 58.6105 65.328C58.7492 65.328 58.8798 65.3547 59.0025 65.408C59.1252 65.4613 59.2318 65.536 59.3225 65.632C59.4185 65.7227 59.4932 65.832 59.5465 65.96C59.6052 66.0827 59.6345 66.2133 59.6345 66.352ZM65.1043 68.768C65.6963 68.768 66.2296 68.8667 66.7043 69.064C67.1843 69.2613 67.5896 69.5413 67.9203 69.904C68.2563 70.2667 68.5123 70.7067 68.6883 71.224C68.8696 71.736 68.9603 72.3093 68.9603 72.944C68.9603 73.584 68.8696 74.16 68.6883 74.672C68.5123 75.184 68.2563 75.6213 67.9203 75.984C67.5896 76.3467 67.1843 76.6267 66.7043 76.824C66.2296 77.016 65.6963 77.112 65.1043 77.112C64.5123 77.112 63.9763 77.016 63.4963 76.824C63.0216 76.6267 62.6163 76.3467 62.2803 75.984C61.9443 75.6213 61.6856 75.184 61.5043 74.672C61.3229 74.16 61.2323 73.584 61.2323 72.944C61.2323 72.3093 61.3229 71.736 61.5043 71.224C61.6856 70.7067 61.9443 70.2667 62.2803 69.904C62.6163 69.5413 63.0216 69.2613 63.4963 69.064C63.9763 68.8667 64.5123 68.768 65.1043 68.768ZM65.1043 76C65.9043 76 66.5016 75.7333 66.8963 75.2C67.2909 74.6613 67.4883 73.912 67.4883 72.952C67.4883 71.9867 67.2909 71.2347 66.8963 70.696C66.5016 70.1573 65.9043 69.888 65.1043 69.888C64.6989 69.888 64.3469 69.9573 64.0483 70.096C63.7496 70.2347 63.4989 70.4347 63.2963 70.696C63.0989 70.9573 62.9496 71.28 62.8483 71.664C62.7523 72.0427 62.7043 72.472 62.7043 72.952C62.7043 73.432 62.7523 73.8613 62.8483 74.24C62.9496 74.6187 63.0989 74.9387 63.2963 75.2C63.4989 75.456 63.7496 75.6533 64.0483 75.792C64.3469 75.9307 64.6989 76 65.1043 76ZM70.7149 77V68.896H71.5629C71.7655 68.896 71.8935 68.9947 71.9469 69.192L72.0589 70.072C72.4109 69.6827 72.8029 69.368 73.2349 69.128C73.6722 68.888 74.1762 68.768 74.7469 68.768C75.1895 68.768 75.5789 68.8427 75.9149 68.992C76.2562 69.136 76.5389 69.344 76.7629 69.616C76.9922 69.8827 77.1655 70.2053 77.2829 70.584C77.4002 70.9627 77.4589 71.3813 77.4589 71.84V77H76.0349V71.84C76.0349 71.2267 75.8935 70.752 75.6109 70.416C75.3335 70.0747 74.9069 69.904 74.3309 69.904C73.9095 69.904 73.5149 70.0053 73.1469 70.208C72.7842 70.4107 72.4482 70.6853 72.1389 71.032V77H70.7149ZM86.4913 65.408C86.9766 65.408 87.4246 65.4773 87.8353 65.616C88.2459 65.7547 88.5979 65.952 88.8913 66.208C89.1899 66.464 89.4219 66.7733 89.5873 67.136C89.7526 67.4987 89.8353 67.9013 89.8353 68.344C89.8353 68.7067 89.7873 69.032 89.6913 69.32C89.6006 69.6027 89.4673 69.8533 89.2913 70.072C89.1206 70.2853 88.9126 70.4667 88.6673 70.616C88.4219 70.7653 88.1473 70.8853 87.8433 70.976C88.5899 71.1733 89.1499 71.504 89.5233 71.968C89.9019 72.432 90.0913 73.0133 90.0913 73.712C90.0913 74.24 89.9899 74.7147 89.7873 75.136C89.5899 75.5573 89.3179 75.9173 88.9713 76.216C88.6246 76.5093 88.2193 76.736 87.7553 76.896C87.2966 77.0507 86.8033 77.128 86.2753 77.128C85.6673 77.128 85.1473 77.0533 84.7153 76.904C84.2833 76.7493 83.9179 76.5387 83.6193 76.272C83.3206 76.0053 83.0753 75.6907 82.8833 75.328C82.6913 74.96 82.5286 74.5627 82.3953 74.136L83.0033 73.88C83.1153 73.832 83.2273 73.808 83.3393 73.808C83.4459 73.808 83.5393 73.832 83.6193 73.88C83.7046 73.9227 83.7686 73.992 83.8113 74.088C83.8219 74.1093 83.8326 74.1333 83.8433 74.16C83.8539 74.1813 83.8646 74.2053 83.8753 74.232C83.9499 74.3867 84.0406 74.5627 84.1473 74.76C84.2539 74.952 84.3979 75.1333 84.5793 75.304C84.7606 75.4747 84.9846 75.6187 85.2513 75.736C85.5233 75.8533 85.8593 75.912 86.2593 75.912C86.6593 75.912 87.0086 75.848 87.3073 75.72C87.6113 75.5867 87.8619 75.416 88.0593 75.208C88.2619 75 88.4139 74.768 88.5153 74.512C88.6166 74.256 88.6673 74.0027 88.6673 73.752C88.6673 73.4427 88.6246 73.16 88.5393 72.904C88.4593 72.648 88.3099 72.4267 88.0913 72.24C87.8779 72.0533 87.5793 71.9067 87.1953 71.8C86.8166 71.6933 86.3286 71.64 85.7313 71.64V70.608C86.2166 70.6027 86.6299 70.5493 86.9713 70.448C87.3179 70.3467 87.6006 70.208 87.8193 70.032C88.0379 69.856 88.1953 69.6453 88.2913 69.4C88.3926 69.1547 88.4433 68.8827 88.4433 68.584C88.4433 68.2533 88.3899 67.9653 88.2833 67.72C88.1819 67.4747 88.0406 67.272 87.8593 67.112C87.6779 66.952 87.4619 66.832 87.2113 66.752C86.9659 66.672 86.6993 66.632 86.4113 66.632C86.1233 66.632 85.8566 66.6747 85.6113 66.76C85.3659 66.8453 85.1473 66.9653 84.9553 67.12C84.7686 67.2693 84.6113 67.4507 84.4833 67.664C84.3553 67.872 84.2593 68.0987 84.1953 68.344C84.1526 68.4987 84.0886 68.6107 84.0033 68.68C83.9179 68.7493 83.8086 68.784 83.6753 68.784C83.6486 68.784 83.6193 68.784 83.5872 68.784C83.5606 68.7787 83.5286 68.7733 83.4913 68.768L82.7473 68.64C82.8219 68.1173 82.9659 67.656 83.1793 67.256C83.3926 66.8507 83.6619 66.512 83.9873 66.24C84.3179 65.968 84.6939 65.7627 85.1153 65.624C85.5419 65.48 86.0006 65.408 86.4913 65.408Z" fill="black"/>
<circle cx="11" cy="71" r="10.5" fill="white" stroke="#FE3631"/>
<path d="M41.04 11.272C41.04 12.1307 40.904 12.92 40.632 13.64C40.36 14.3547 39.976 14.9707 39.48 15.488C38.984 16.0053 38.3867 16.408 37.688 16.696C36.9947 16.9787 36.2267 17.12 35.384 17.12C34.5413 17.12 33.7733 16.9787 33.08 16.696C32.3867 16.408 31.792 16.0053 31.296 15.488C30.8 14.9707 30.416 14.3547 30.144 13.64C29.872 12.92 29.736 12.1307 29.736 11.272C29.736 10.4133 29.872 9.62667 30.144 8.912C30.416 8.192 30.8 7.57333 31.296 7.056C31.792 6.53333 32.3867 6.128 33.08 5.84C33.7733 5.552 34.5413 5.408 35.384 5.408C36.2267 5.408 36.9947 5.552 37.688 5.84C38.3867 6.128 38.984 6.53333 39.48 7.056C39.976 7.57333 40.36 8.192 40.632 8.912C40.904 9.62667 41.04 10.4133 41.04 11.272ZM39.448 11.272C39.448 10.568 39.352 9.936 39.16 9.376C38.968 8.816 38.696 8.344 38.344 7.96C37.992 7.57067 37.5653 7.272 37.064 7.064C36.5627 6.856 36.0027 6.752 35.384 6.752C34.7707 6.752 34.2133 6.856 33.712 7.064C33.2107 7.272 32.7813 7.57067 32.424 7.96C32.072 8.344 31.8 8.816 31.608 9.376C31.416 9.936 31.32 10.568 31.32 11.272C31.32 11.976 31.416 12.608 31.608 13.168C31.8 13.7227 32.072 14.1947 32.424 14.584C32.7813 14.968 33.2107 15.264 33.712 15.472C34.2133 15.6747 34.7707 15.776 35.384 15.776C36.0027 15.776 36.5627 15.6747 37.064 15.472C37.5653 15.264 37.992 14.968 38.344 14.584C38.696 14.1947 38.968 13.7227 39.16 13.168C39.352 12.608 39.448 11.976 39.448 11.272ZM42.9336 19.744V8.896H43.7816C43.9843 8.896 44.1123 8.99467 44.1656 9.192L44.2856 10.152C44.6323 9.73067 45.027 9.392 45.4696 9.136C45.9176 8.88 46.4323 8.752 47.0136 8.752C47.4776 8.752 47.899 8.84267 48.2776 9.024C48.6563 9.2 48.979 9.464 49.2456 9.816C49.5123 10.1627 49.7176 10.5947 49.8616 11.112C50.0056 11.6293 50.0776 12.224 50.0776 12.896C50.0776 13.4933 49.9976 14.0507 49.8376 14.568C49.6776 15.08 49.4483 15.5253 49.1496 15.904C48.851 16.2773 48.483 16.5733 48.0456 16.792C47.6136 17.0053 47.1256 17.112 46.5816 17.112C46.0803 17.112 45.651 17.0293 45.2936 16.864C44.9416 16.6987 44.6296 16.464 44.3576 16.16V19.744H42.9336ZM46.5416 9.904C46.0776 9.904 45.6696 10.0107 45.3176 10.224C44.971 10.4373 44.651 10.7387 44.3576 11.128V15.048C44.619 15.4 44.9043 15.648 45.2136 15.792C45.5283 15.936 45.8776 16.008 46.2616 16.008C47.0136 16.008 47.5923 15.7387 47.9976 15.2C48.403 14.6613 48.6056 13.8933 48.6056 12.896C48.6056 12.368 48.5576 11.9147 48.4616 11.536C48.371 11.1573 48.2376 10.848 48.0616 10.608C47.8856 10.3627 47.6696 10.184 47.4136 10.072C47.1576 9.96 46.867 9.904 46.5416 9.904ZM54.2178 17.128C53.5778 17.128 53.0844 16.9493 52.7378 16.592C52.3964 16.2347 52.2258 15.72 52.2258 15.048V10.088H51.2498C51.1644 10.088 51.0924 10.064 51.0338 10.016C50.9751 9.96267 50.9458 9.88267 50.9458 9.776V9.208L52.2738 9.04L52.6018 6.536C52.6124 6.456 52.6471 6.392 52.7057 6.344C52.7644 6.29067 52.8391 6.264 52.9298 6.264H53.6498V9.056H55.9698V10.088H53.6498V14.952C53.6498 15.2933 53.7324 15.5467 53.8978 15.712C54.0631 15.8773 54.2764 15.96 54.5378 15.96C54.6871 15.96 54.8151 15.9413 54.9218 15.904C55.0338 15.8613 55.1298 15.816 55.2098 15.768C55.2898 15.72 55.3564 15.6773 55.4098 15.64C55.4684 15.5973 55.5191 15.576 55.5618 15.576C55.6364 15.576 55.7031 15.6213 55.7618 15.712L56.1778 16.392C55.9324 16.6213 55.6364 16.8027 55.2898 16.936C54.9431 17.064 54.5858 17.128 54.2178 17.128ZM59.3145 8.896V17H57.8905V8.896H59.3145ZM59.6345 6.352C59.6345 6.49067 59.6052 6.62133 59.5465 6.744C59.4932 6.86133 59.4185 6.968 59.3225 7.064C59.2318 7.15467 59.1252 7.22667 59.0025 7.28C58.8798 7.33333 58.7492 7.36 58.6105 7.36C58.4718 7.36 58.3412 7.33333 58.2185 7.28C58.1012 7.22667 57.9945 7.15467 57.8985 7.064C57.8078 6.968 57.7358 6.86133 57.6825 6.744C57.6292 6.62133 57.6025 6.49067 57.6025 6.352C57.6025 6.21333 57.6292 6.08267 57.6825 5.96C57.7358 5.832 57.8078 5.72267 57.8985 5.632C57.9945 5.536 58.1012 5.46133 58.2185 5.408C58.3412 5.35467 58.4718 5.328 58.6105 5.328C58.7492 5.328 58.8798 5.35467 59.0025 5.408C59.1252 5.46133 59.2318 5.536 59.3225 5.632C59.4185 5.72267 59.4932 5.832 59.5465 5.96C59.6052 6.08267 59.6345 6.21333 59.6345 6.352ZM65.1043 8.768C65.6963 8.768 66.2296 8.86667 66.7043 9.064C67.1843 9.26133 67.5896 9.54133 67.9203 9.904C68.2563 10.2667 68.5123 10.7067 68.6883 11.224C68.8696 11.736 68.9603 12.3093 68.9603 12.944C68.9603 13.584 68.8696 14.16 68.6883 14.672C68.5123 15.184 68.2563 15.6213 67.9203 15.984C67.5896 16.3467 67.1843 16.6267 66.7043 16.824C66.2296 17.016 65.6963 17.112 65.1043 17.112C64.5123 17.112 63.9763 17.016 63.4963 16.824C63.0216 16.6267 62.6163 16.3467 62.2803 15.984C61.9443 15.6213 61.6856 15.184 61.5043 14.672C61.3229 14.16 61.2323 13.584 61.2323 12.944C61.2323 12.3093 61.3229 11.736 61.5043 11.224C61.6856 10.7067 61.9443 10.2667 62.2803 9.904C62.6163 9.54133 63.0216 9.26133 63.4963 9.064C63.9763 8.86667 64.5123 8.768 65.1043 8.768ZM65.1043 16C65.9043 16 66.5016 15.7333 66.8963 15.2C67.2909 14.6613 67.4883 13.912 67.4883 12.952C67.4883 11.9867 67.2909 11.2347 66.8963 10.696C66.5016 10.1573 65.9043 9.888 65.1043 9.888C64.6989 9.888 64.3469 9.95733 64.0483 10.096C63.7496 10.2347 63.4989 10.4347 63.2963 10.696C63.0989 10.9573 62.9496 11.28 62.8483 11.664C62.7523 12.0427 62.7043 12.472 62.7043 12.952C62.7043 13.432 62.7523 13.8613 62.8483 14.24C62.9496 14.6187 63.0989 14.9387 63.2963 15.2C63.4989 15.456 63.7496 15.6533 64.0483 15.792C64.3469 15.9307 64.6989 16 65.1043 16ZM70.7149 17V8.896H71.5629C71.7655 8.896 71.8935 8.99467 71.9469 9.192L72.0589 10.072C72.4109 9.68267 72.8029 9.368 73.2349 9.128C73.6722 8.888 74.1762 8.768 74.7469 8.768C75.1895 8.768 75.5789 8.84267 75.9149 8.992C76.2562 9.136 76.5389 9.344 76.7629 9.616C76.9922 9.88267 77.1655 10.2053 77.2829 10.584C77.4002 10.9627 77.4589 11.3813 77.4589 11.84V17H76.0349V11.84C76.0349 11.2267 75.8935 10.752 75.6109 10.416C75.3335 10.0747 74.9069 9.904 74.3309 9.904C73.9095 9.904 73.5149 10.0053 73.1469 10.208C72.7842 10.4107 72.4482 10.6853 72.1389 11.032V17H70.7149ZM83.8273 15.912H86.2913V8.096C86.2913 7.86133 86.2993 7.624 86.3153 7.384L84.2673 9.136C84.2139 9.17867 84.1606 9.21067 84.1073 9.232C84.0539 9.248 84.0033 9.256 83.9553 9.256C83.8753 9.256 83.8033 9.24 83.7393 9.208C83.6753 9.17067 83.6273 9.128 83.5953 9.08L83.1473 8.464L86.5553 5.512H87.7153V15.912H89.9713V17H83.8273V15.912Z" fill="black"/>
<path d="M7.399 89.969V91.075H2.583V94.407H6.482V95.471H2.583V98.894H7.399V100H1.218V89.969H7.399ZM9.15677 100V92.909H9.87077C10.0061 92.909 10.0994 92.9347 10.1508 92.986C10.2021 93.0373 10.2371 93.126 10.2558 93.252L10.3398 94.358C10.5824 93.8633 10.8811 93.4783 11.2358 93.203C11.5951 92.923 12.0151 92.783 12.4958 92.783C12.6918 92.783 12.8691 92.8063 13.0278 92.853C13.1864 92.895 13.3334 92.9557 13.4688 93.035L13.3078 93.966C13.2751 94.0827 13.2028 94.141 13.0908 94.141C13.0254 94.141 12.9251 94.12 12.7898 94.078C12.6544 94.0313 12.4654 94.008 12.2228 94.008C11.7888 94.008 11.4248 94.134 11.1308 94.386C10.8414 94.638 10.5988 95.0043 10.4028 95.485V100H9.15677ZM14.8033 100V92.909H15.5173C15.6526 92.909 15.7459 92.9347 15.7973 92.986C15.8486 93.0373 15.8836 93.126 15.9023 93.252L15.9863 94.358C16.2289 93.8633 16.5276 93.4783 16.8823 93.203C17.2416 92.923 17.6616 92.783 18.1423 92.783C18.3383 92.783 18.5156 92.8063 18.6743 92.853C18.8329 92.895 18.9799 92.9557 19.1153 93.035L18.9543 93.966C18.9216 94.0827 18.8493 94.141 18.7373 94.141C18.6719 94.141 18.5716 94.12 18.4363 94.078C18.3009 94.0313 18.1119 94.008 17.8693 94.008C17.4353 94.008 17.0713 94.134 16.7773 94.386C16.4879 94.638 16.2453 95.0043 16.0493 95.485V100H14.8033ZM23.3197 92.797C23.8377 92.797 24.3044 92.8833 24.7197 93.056C25.1397 93.2287 25.4944 93.4737 25.7837 93.791C26.0777 94.1083 26.3017 94.4933 26.4557 94.946C26.6144 95.394 26.6937 95.8957 26.6937 96.451C26.6937 97.011 26.6144 97.515 26.4557 97.963C26.3017 98.411 26.0777 98.7937 25.7837 99.111C25.4944 99.4283 25.1397 99.6733 24.7197 99.846C24.3044 100.014 23.8377 100.098 23.3197 100.098C22.8017 100.098 22.3327 100.014 21.9127 99.846C21.4974 99.6733 21.1427 99.4283 20.8487 99.111C20.5547 98.7937 20.3284 98.411 20.1697 97.963C20.0111 97.515 19.9317 97.011 19.9317 96.451C19.9317 95.8957 20.0111 95.394 20.1697 94.946C20.3284 94.4933 20.5547 94.1083 20.8487 93.791C21.1427 93.4737 21.4974 93.2287 21.9127 93.056C22.3327 92.8833 22.8017 92.797 23.3197 92.797ZM23.3197 99.125C24.0197 99.125 24.5424 98.8917 24.8877 98.425C25.2331 97.9537 25.4057 97.298 25.4057 96.458C25.4057 95.6133 25.2331 94.9553 24.8877 94.484C24.5424 94.0127 24.0197 93.777 23.3197 93.777C22.9651 93.777 22.6571 93.8377 22.3957 93.959C22.1344 94.0803 21.9151 94.2553 21.7377 94.484C21.5651 94.7127 21.4344 94.995 21.3457 95.331C21.2617 95.6623 21.2197 96.038 21.2197 96.458C21.2197 96.878 21.2617 97.2537 21.3457 97.585C21.4344 97.9163 21.5651 98.1963 21.7377 98.425C21.9151 98.649 22.1344 98.8217 22.3957 98.943C22.6571 99.0643 22.9651 99.125 23.3197 99.125ZM28.229 100V92.909H28.943C29.0784 92.909 29.1717 92.9347 29.223 92.986C29.2744 93.0373 29.3094 93.126 29.328 93.252L29.412 94.358C29.6547 93.8633 29.9534 93.4783 30.308 93.203C30.6674 92.923 31.0874 92.783 31.568 92.783C31.764 92.783 31.9414 92.8063 32.1 92.853C32.2587 92.895 32.4057 92.9557 32.541 93.035L32.38 93.966C32.3474 94.0827 32.275 94.141 32.163 94.141C32.0977 94.141 31.9974 94.12 31.862 94.078C31.7267 94.0313 31.5377 94.008 31.295 94.008C30.861 94.008 30.497 94.134 30.203 94.386C29.9137 94.638 29.671 95.0043 29.475 95.485V100H28.229ZM36.5825 100V92.909H37.3245C37.5019 92.909 37.6139 92.9953 37.6605 93.168L37.7515 93.896C38.0129 93.574 38.3045 93.3103 38.6265 93.105C38.9532 92.8997 39.3312 92.797 39.7605 92.797C40.2412 92.797 40.6285 92.93 40.9225 93.196C41.2212 93.462 41.4359 93.8213 41.5665 94.274C41.6645 94.0173 41.7929 93.7957 41.9515 93.609C42.1149 93.4223 42.2969 93.2683 42.4975 93.147C42.6982 93.0257 42.9105 92.937 43.1345 92.881C43.3632 92.825 43.5942 92.797 43.8275 92.797C44.2009 92.797 44.5322 92.8577 44.8215 92.979C45.1155 93.0957 45.3629 93.2683 45.5635 93.497C45.7689 93.7257 45.9252 94.008 46.0325 94.344C46.1399 94.6753 46.1935 95.0557 46.1935 95.485V100H44.9475V95.485C44.9475 94.9297 44.8262 94.5097 44.5835 94.225C44.3409 93.9357 43.9885 93.791 43.5265 93.791C43.3212 93.791 43.1252 93.8283 42.9385 93.903C42.7565 93.973 42.5955 94.078 42.4555 94.218C42.3155 94.358 42.2035 94.5353 42.1195 94.75C42.0402 94.96 42.0005 95.205 42.0005 95.485V100H40.7545V95.485C40.7545 94.9157 40.6402 94.491 40.4115 94.211C40.1829 93.931 39.8492 93.791 39.4105 93.791C39.1025 93.791 38.8155 93.875 38.5495 94.043C38.2882 94.2063 38.0479 94.4303 37.8285 94.715V100H36.5825ZM50.8876 92.797C51.3123 92.797 51.7043 92.8693 52.0636 93.014C52.4229 93.154 52.7333 93.3593 52.9946 93.63C53.2559 93.896 53.4589 94.2273 53.6036 94.624C53.7529 95.016 53.8276 95.464 53.8276 95.968C53.8276 96.164 53.8066 96.2947 53.7646 96.36C53.7226 96.4253 53.6433 96.458 53.5266 96.458H48.8086C48.8179 96.906 48.8786 97.2957 48.9906 97.627C49.1026 97.9583 49.2566 98.236 49.4526 98.46C49.6486 98.6793 49.8819 98.845 50.1526 98.957C50.4233 99.0643 50.7266 99.118 51.0626 99.118C51.3753 99.118 51.6436 99.083 51.8676 99.013C52.0963 98.9383 52.2923 98.859 52.4556 98.775C52.6189 98.691 52.7543 98.614 52.8616 98.544C52.9736 98.4693 53.0693 98.432 53.1486 98.432C53.2513 98.432 53.3306 98.4717 53.3866 98.551L53.7366 99.006C53.5826 99.1927 53.3983 99.356 53.1836 99.496C52.9689 99.6313 52.7379 99.7433 52.4906 99.832C52.2479 99.9207 51.9959 99.986 51.7346 100.028C51.4733 100.075 51.2143 100.098 50.9576 100.098C50.4676 100.098 50.0149 100.016 49.5996 99.853C49.1889 99.685 48.8319 99.4423 48.5286 99.125C48.2299 98.803 47.9966 98.4063 47.8286 97.935C47.6606 97.4637 47.5766 96.9223 47.5766 96.311C47.5766 95.8163 47.6513 95.3543 47.8006 94.925C47.9546 94.4957 48.1739 94.1247 48.4586 93.812C48.7433 93.4947 49.0909 93.2473 49.5016 93.07C49.9123 92.888 50.3743 92.797 50.8876 92.797ZM50.9156 93.714C50.3136 93.714 49.8399 93.889 49.4946 94.239C49.1493 94.5843 48.9346 95.065 48.8506 95.681H52.7076C52.7076 95.3917 52.6679 95.128 52.5886 94.89C52.5093 94.6473 52.3926 94.4397 52.2386 94.267C52.0846 94.0897 51.8956 93.9543 51.6716 93.861C51.4523 93.763 51.2003 93.714 50.9156 93.714ZM59.4824 94.078C59.4264 94.1807 59.3401 94.232 59.2234 94.232C59.1534 94.232 59.0741 94.2063 58.9854 94.155C58.8967 94.1037 58.7871 94.0477 58.6564 93.987C58.5304 93.9217 58.3787 93.8633 58.2014 93.812C58.0241 93.756 57.8141 93.728 57.5714 93.728C57.3614 93.728 57.1724 93.756 57.0044 93.812C56.8364 93.8633 56.6917 93.9357 56.5704 94.029C56.4537 94.1223 56.3627 94.232 56.2974 94.358C56.2367 94.4793 56.2064 94.6123 56.2064 94.757C56.2064 94.939 56.2577 95.0907 56.3604 95.212C56.4677 95.3333 56.6077 95.4383 56.7804 95.527C56.9531 95.6157 57.1491 95.695 57.3684 95.765C57.5877 95.8303 57.8117 95.9027 58.0404 95.982C58.2737 96.0567 58.5001 96.1407 58.7194 96.234C58.9387 96.3273 59.1347 96.444 59.3074 96.584C59.4801 96.724 59.6177 96.8967 59.7204 97.102C59.8277 97.3027 59.8814 97.5453 59.8814 97.83C59.8814 98.1567 59.8231 98.46 59.7064 98.74C59.5897 99.0153 59.4171 99.2557 59.1884 99.461C58.9597 99.6617 58.6797 99.8203 58.3484 99.937C58.0171 100.054 57.6344 100.112 57.2004 100.112C56.7057 100.112 56.2577 100.033 55.8564 99.874C55.4551 99.7107 55.1144 99.503 54.8344 99.251L55.1284 98.775C55.1657 98.7143 55.2101 98.6677 55.2614 98.635C55.3127 98.6023 55.3804 98.586 55.4644 98.586C55.5484 98.586 55.6371 98.6187 55.7304 98.684C55.8237 98.7493 55.9357 98.8217 56.0664 98.901C56.2017 98.9803 56.3627 99.0527 56.5494 99.118C56.7407 99.1833 56.9787 99.216 57.2634 99.216C57.5061 99.216 57.7184 99.1857 57.9004 99.125C58.0824 99.0597 58.2341 98.9733 58.3554 98.866C58.4767 98.7587 58.5654 98.635 58.6214 98.495C58.6821 98.355 58.7124 98.2057 58.7124 98.047C58.7124 97.851 58.6587 97.69 58.5514 97.564C58.4487 97.4333 58.3111 97.3237 58.1384 97.235C57.9657 97.1417 57.7674 97.0623 57.5434 96.997C57.3241 96.927 57.0977 96.8547 56.8644 96.78C56.6357 96.7053 56.4094 96.6213 56.1854 96.528C55.9661 96.43 55.7701 96.3087 55.5974 96.164C55.4247 96.0193 55.2847 95.842 55.1774 95.632C55.0747 95.4173 55.0234 95.1583 55.0234 94.855C55.0234 94.5843 55.0794 94.3253 55.1914 94.078C55.3034 93.826 55.4667 93.6067 55.6814 93.42C55.8961 93.2287 56.1597 93.077 56.4724 92.965C56.7851 92.853 57.1421 92.797 57.5434 92.797C58.0101 92.797 58.4277 92.8717 58.7964 93.021C59.1697 93.1657 59.4917 93.3663 59.7624 93.623L59.4824 94.078ZM65.5527 94.078C65.4967 94.1807 65.4104 94.232 65.2937 94.232C65.2237 94.232 65.1444 94.2063 65.0557 94.155C64.967 94.1037 64.8574 94.0477 64.7267 93.987C64.6007 93.9217 64.449 93.8633 64.2717 93.812C64.0944 93.756 63.8844 93.728 63.6417 93.728C63.4317 93.728 63.2427 93.756 63.0747 93.812C62.9067 93.8633 62.762 93.9357 62.6407 94.029C62.524 94.1223 62.433 94.232 62.3677 94.358C62.307 94.4793 62.2767 94.6123 62.2767 94.757C62.2767 94.939 62.328 95.0907 62.4307 95.212C62.538 95.3333 62.678 95.4383 62.8507 95.527C63.0234 95.6157 63.2194 95.695 63.4387 95.765C63.658 95.8303 63.882 95.9027 64.1107 95.982C64.344 96.0567 64.5704 96.1407 64.7897 96.234C65.009 96.3273 65.205 96.444 65.3777 96.584C65.5504 96.724 65.688 96.8967 65.7907 97.102C65.898 97.3027 65.9517 97.5453 65.9517 97.83C65.9517 98.1567 65.8934 98.46 65.7767 98.74C65.66 99.0153 65.4874 99.2557 65.2587 99.461C65.03 99.6617 64.75 99.8203 64.4187 99.937C64.0874 100.054 63.7047 100.112 63.2707 100.112C62.776 100.112 62.328 100.033 61.9267 99.874C61.5254 99.7107 61.1847 99.503 60.9047 99.251L61.1987 98.775C61.236 98.7143 61.2804 98.6677 61.3317 98.635C61.383 98.6023 61.4507 98.586 61.5347 98.586C61.6187 98.586 61.7074 98.6187 61.8007 98.684C61.894 98.7493 62.006 98.8217 62.1367 98.901C62.272 98.9803 62.433 99.0527 62.6197 99.118C62.811 99.1833 63.049 99.216 63.3337 99.216C63.5764 99.216 63.7887 99.1857 63.9707 99.125C64.1527 99.0597 64.3044 98.9733 64.4257 98.866C64.547 98.7587 64.6357 98.635 64.6917 98.495C64.7524 98.355 64.7827 98.2057 64.7827 98.047C64.7827 97.851 64.729 97.69 64.6217 97.564C64.519 97.4333 64.3814 97.3237 64.2087 97.235C64.036 97.1417 63.8377 97.0623 63.6137 96.997C63.3944 96.927 63.168 96.8547 62.9347 96.78C62.706 96.7053 62.4797 96.6213 62.2557 96.528C62.0364 96.43 61.8404 96.3087 61.6677 96.164C61.495 96.0193 61.355 95.842 61.2477 95.632C61.145 95.4173 61.0937 95.1583 61.0937 94.855C61.0937 94.5843 61.1497 94.3253 61.2617 94.078C61.3737 93.826 61.537 93.6067 61.7517 93.42C61.9664 93.2287 62.23 93.077 62.5427 92.965C62.8554 92.853 63.2124 92.797 63.6137 92.797C64.0804 92.797 64.498 92.8717 64.8667 93.021C65.24 93.1657 65.562 93.3663 65.8327 93.623L65.5527 94.078ZM72.771 100H72.218C72.0967 100 71.9987 99.9813 71.924 99.944C71.8493 99.9067 71.8003 99.8273 71.777 99.706L71.637 99.048C71.4503 99.216 71.2683 99.3677 71.091 99.503C70.9137 99.6337 70.727 99.7457 70.531 99.839C70.335 99.9277 70.125 99.9953 69.901 100.042C69.6817 100.089 69.4367 100.112 69.166 100.112C68.8907 100.112 68.6317 100.075 68.389 100C68.151 99.9207 67.9433 99.804 67.766 99.65C67.5887 99.496 67.4463 99.3023 67.339 99.069C67.2363 98.831 67.185 98.551 67.185 98.229C67.185 97.949 67.262 97.6807 67.416 97.424C67.57 97.1627 67.8173 96.9317 68.158 96.731C68.5033 96.5303 68.9537 96.367 69.509 96.241C70.0643 96.1103 70.7433 96.0357 71.546 96.017V95.464C71.546 94.9133 71.427 94.498 71.189 94.218C70.9557 93.9333 70.608 93.791 70.146 93.791C69.8427 93.791 69.586 93.8307 69.376 93.91C69.1707 93.9847 68.991 94.071 68.837 94.169C68.6877 94.2623 68.557 94.3487 68.445 94.428C68.3377 94.5027 68.2303 94.54 68.123 94.54C68.039 94.54 67.9643 94.519 67.899 94.477C67.8383 94.4303 67.7893 94.3743 67.752 94.309L67.528 93.91C67.92 93.532 68.3423 93.2497 68.795 93.063C69.2477 92.8763 69.7493 92.783 70.3 92.783C70.6967 92.783 71.049 92.8483 71.357 92.979C71.665 93.1097 71.924 93.2917 72.134 93.525C72.344 93.7583 72.5027 94.0407 72.61 94.372C72.7173 94.7033 72.771 95.0673 72.771 95.464V100ZM69.537 99.237C69.7563 99.237 69.957 99.216 70.139 99.174C70.321 99.1273 70.4913 99.0643 70.65 98.985C70.8133 98.901 70.9673 98.8007 71.112 98.684C71.2613 98.5673 71.406 98.4343 71.546 98.285V96.808C70.972 96.8267 70.4843 96.8733 70.083 96.948C69.6817 97.018 69.355 97.1113 69.103 97.228C68.851 97.3447 68.6667 97.4823 68.55 97.641C68.438 97.7997 68.382 97.977 68.382 98.173C68.382 98.3597 68.4123 98.5207 68.473 98.656C68.5337 98.7913 68.6153 98.9033 68.718 98.992C68.8207 99.076 68.942 99.139 69.082 99.181C69.222 99.2183 69.3737 99.237 69.537 99.237ZM77.0457 92.79C77.3537 92.79 77.6407 92.825 77.9067 92.895C78.1774 92.9603 78.4224 93.0583 78.6417 93.189H80.5667V93.651C80.5667 93.805 80.4687 93.903 80.2727 93.945L79.4677 94.057C79.6264 94.3603 79.7057 94.6987 79.7057 95.072C79.7057 95.4173 79.6381 95.7323 79.5027 96.017C79.3721 96.297 79.1877 96.5373 78.9497 96.738C78.7164 96.9387 78.4364 97.0927 78.1097 97.2C77.7877 97.3073 77.4331 97.361 77.0457 97.361C76.7144 97.361 76.4017 97.3213 76.1077 97.242C75.9584 97.3353 75.8441 97.4357 75.7647 97.543C75.6901 97.6503 75.6527 97.7553 75.6527 97.858C75.6527 98.026 75.7204 98.1543 75.8557 98.243C75.9911 98.327 76.1707 98.3877 76.3947 98.425C76.6187 98.4623 76.8731 98.4857 77.1577 98.495C77.4424 98.5043 77.7317 98.5207 78.0257 98.544C78.3244 98.5627 78.6161 98.5977 78.9007 98.649C79.1854 98.7003 79.4397 98.7843 79.6637 98.901C79.8877 99.0177 80.0674 99.1787 80.2027 99.384C80.3381 99.5893 80.4057 99.8553 80.4057 100.182C80.4057 100.485 80.3287 100.779 80.1747 101.064C80.0254 101.349 79.8084 101.601 79.5237 101.82C79.2391 102.044 78.8914 102.221 78.4807 102.352C78.0701 102.487 77.6057 102.555 77.0877 102.555C76.5697 102.555 76.1147 102.504 75.7227 102.401C75.3354 102.298 75.0134 102.161 74.7567 101.988C74.5001 101.815 74.3064 101.615 74.1757 101.386C74.0497 101.162 73.9867 100.926 73.9867 100.679C73.9867 100.329 74.0964 100.033 74.3157 99.79C74.5397 99.5427 74.8454 99.3467 75.2327 99.202C75.0321 99.1087 74.8711 98.985 74.7497 98.831C74.6331 98.6723 74.5747 98.4623 74.5747 98.201C74.5747 98.0983 74.5934 97.9933 74.6307 97.886C74.6681 97.774 74.7241 97.6643 74.7987 97.557C74.8781 97.4497 74.9737 97.347 75.0857 97.249C75.1977 97.151 75.3284 97.0647 75.4777 96.99C75.1277 96.794 74.8524 96.535 74.6517 96.213C74.4557 95.8863 74.3577 95.506 74.3577 95.072C74.3577 94.7267 74.4231 94.414 74.5537 94.134C74.6891 93.8493 74.8757 93.609 75.1137 93.413C75.3517 93.2123 75.6341 93.0583 75.9607 92.951C76.2921 92.8437 76.6537 92.79 77.0457 92.79ZM79.2577 100.385C79.2577 100.208 79.2087 100.065 79.1107 99.958C79.0127 99.8507 78.8797 99.769 78.7117 99.713C78.5437 99.6523 78.3501 99.608 78.1307 99.58C77.9114 99.552 77.6804 99.5333 77.4377 99.524C77.1951 99.51 76.9477 99.496 76.6957 99.482C76.4437 99.468 76.2034 99.4423 75.9747 99.405C75.7087 99.531 75.4917 99.685 75.3237 99.867C75.1604 100.049 75.0787 100.266 75.0787 100.518C75.0787 100.677 75.1184 100.824 75.1977 100.959C75.2817 101.099 75.4077 101.218 75.5757 101.316C75.7437 101.419 75.9537 101.498 76.2057 101.554C76.4624 101.615 76.7634 101.645 77.1087 101.645C77.4447 101.645 77.7457 101.615 78.0117 101.554C78.2777 101.493 78.5017 101.407 78.6837 101.295C78.8704 101.183 79.0127 101.05 79.1107 100.896C79.2087 100.742 79.2577 100.572 79.2577 100.385ZM77.0457 96.535C77.2977 96.535 77.5194 96.5 77.7107 96.43C77.9067 96.36 78.0701 96.262 78.2007 96.136C78.3314 96.01 78.4294 95.8607 78.4947 95.688C78.5601 95.5107 78.5927 95.317 78.5927 95.107C78.5927 94.673 78.4597 94.3277 78.1937 94.071C77.9324 93.8143 77.5497 93.686 77.0457 93.686C76.5464 93.686 76.1637 93.8143 75.8977 94.071C75.6364 94.3277 75.5057 94.673 75.5057 95.107C75.5057 95.317 75.5384 95.5107 75.6037 95.688C75.6737 95.8607 75.7741 96.01 75.9047 96.136C76.0354 96.262 76.1964 96.36 76.3877 96.43C76.5791 96.5 76.7984 96.535 77.0457 96.535ZM84.6161 92.797C85.0408 92.797 85.4328 92.8693 85.7921 93.014C86.1514 93.154 86.4618 93.3593 86.7231 93.63C86.9844 93.896 87.1874 94.2273 87.3321 94.624C87.4814 95.016 87.5561 95.464 87.5561 95.968C87.5561 96.164 87.5351 96.2947 87.4931 96.36C87.4511 96.4253 87.3718 96.458 87.2551 96.458H82.5371C82.5464 96.906 82.6071 97.2957 82.7191 97.627C82.8311 97.9583 82.9851 98.236 83.1811 98.46C83.3771 98.6793 83.6104 98.845 83.8811 98.957C84.1518 99.0643 84.4551 99.118 84.7911 99.118C85.1038 99.118 85.3721 99.083 85.5961 99.013C85.8248 98.9383 86.0208 98.859 86.1841 98.775C86.3474 98.691 86.4828 98.614 86.5901 98.544C86.7021 98.4693 86.7978 98.432 86.8771 98.432C86.9798 98.432 87.0591 98.4717 87.1151 98.551L87.4651 99.006C87.3111 99.1927 87.1268 99.356 86.9121 99.496C86.6974 99.6313 86.4664 99.7433 86.2191 99.832C85.9764 99.9207 85.7244 99.986 85.4631 100.028C85.2018 100.075 84.9428 100.098 84.6861 100.098C84.1961 100.098 83.7434 100.016 83.3281 99.853C82.9174 99.685 82.5604 99.4423 82.2571 99.125C81.9584 98.803 81.7251 98.4063 81.5571 97.935C81.3891 97.4637 81.3051 96.9223 81.3051 96.311C81.3051 95.8163 81.3798 95.3543 81.5291 94.925C81.6831 94.4957 81.9024 94.1247 82.1871 93.812C82.4718 93.4947 82.8194 93.2473 83.2301 93.07C83.6408 92.888 84.1028 92.797 84.6161 92.797ZM84.6441 93.714C84.0421 93.714 83.5684 93.889 83.2231 94.239C82.8778 94.5843 82.6631 95.065 82.5791 95.681H86.4361C86.4361 95.3917 86.3964 95.128 86.3171 94.89C86.2378 94.6473 86.1211 94.4397 85.9671 94.267C85.8131 94.0897 85.6241 93.9543 85.4001 93.861C85.1808 93.763 84.9288 93.714 84.6441 93.714Z" fill="#FE3631"/>
<circle cx="11" cy="11" r="10.5" fill="white" stroke="#FE3631"/>
</svg>
