<svg width="319" height="43" viewBox="0 0 319 43" fill="none" xmlns="http://www.w3.org/2000/svg">
<path d="M155.04 11.272C155.04 12.1307 154.904 12.92 154.632 13.64C154.36 14.3547 153.976 14.9707 153.48 15.488C152.984 16.0053 152.387 16.408 151.688 16.696C150.995 16.9787 150.227 17.12 149.384 17.12C148.541 17.12 147.773 16.9787 147.08 16.696C146.387 16.408 145.792 16.0053 145.296 15.488C144.8 14.9707 144.416 14.3547 144.144 13.64C143.872 12.92 143.736 12.1307 143.736 11.272C143.736 10.4133 143.872 9.62667 144.144 8.912C144.416 8.192 144.8 7.57333 145.296 7.056C145.792 6.53333 146.387 6.128 147.08 5.84C147.773 5.552 148.541 5.408 149.384 5.408C150.227 5.408 150.995 5.552 151.688 5.84C152.387 6.128 152.984 6.53333 153.48 7.056C153.976 7.57333 154.36 8.192 154.632 8.912C154.904 9.62667 155.04 10.4133 155.04 11.272ZM153.448 11.272C153.448 10.568 153.352 9.936 153.16 9.376C152.968 8.816 152.696 8.344 152.344 7.96C151.992 7.57067 151.565 7.272 151.064 7.064C150.563 6.856 150.003 6.752 149.384 6.752C148.771 6.752 148.213 6.856 147.712 7.064C147.211 7.272 146.781 7.57067 146.424 7.96C146.072 8.344 145.8 8.816 145.608 9.376C145.416 9.936 145.32 10.568 145.32 11.272C145.32 11.976 145.416 12.608 145.608 13.168C145.8 13.7227 146.072 14.1947 146.424 14.584C146.781 14.968 147.211 15.264 147.712 15.472C148.213 15.6747 148.771 15.776 149.384 15.776C150.003 15.776 150.563 15.6747 151.064 15.472C151.565 15.264 151.992 14.968 152.344 14.584C152.696 14.1947 152.968 13.7227 153.16 13.168C153.352 12.608 153.448 11.976 153.448 11.272ZM156.934 19.744V8.896H157.782C157.984 8.896 158.112 8.99467 158.166 9.192L158.286 10.152C158.632 9.73067 159.027 9.392 159.47 9.136C159.918 8.88 160.432 8.752 161.014 8.752C161.478 8.752 161.899 8.84267 162.278 9.024C162.656 9.2 162.979 9.464 163.246 9.816C163.512 10.1627 163.718 10.5947 163.862 11.112C164.006 11.6293 164.078 12.224 164.078 12.896C164.078 13.4933 163.998 14.0507 163.838 14.568C163.678 15.08 163.448 15.5253 163.15 15.904C162.851 16.2773 162.483 16.5733 162.046 16.792C161.614 17.0053 161.126 17.112 160.582 17.112C160.08 17.112 159.651 17.0293 159.294 16.864C158.942 16.6987 158.63 16.464 158.358 16.16V19.744H156.934ZM160.542 9.904C160.078 9.904 159.67 10.0107 159.318 10.224C158.971 10.4373 158.651 10.7387 158.358 11.128V15.048C158.619 15.4 158.904 15.648 159.214 15.792C159.528 15.936 159.878 16.008 160.262 16.008C161.014 16.008 161.592 15.7387 161.998 15.2C162.403 14.6613 162.606 13.8933 162.606 12.896C162.606 12.368 162.558 11.9147 162.462 11.536C162.371 11.1573 162.238 10.848 162.062 10.608C161.886 10.3627 161.67 10.184 161.414 10.072C161.158 9.96 160.867 9.904 160.542 9.904ZM168.218 17.128C167.578 17.128 167.084 16.9493 166.738 16.592C166.396 16.2347 166.226 15.72 166.226 15.048V10.088H165.25C165.164 10.088 165.092 10.064 165.034 10.016C164.975 9.96267 164.946 9.88267 164.946 9.776V9.208L166.274 9.04L166.602 6.536C166.612 6.456 166.647 6.392 166.706 6.344C166.764 6.29067 166.839 6.264 166.93 6.264H167.65V9.056H169.97V10.088H167.65V14.952C167.65 15.2933 167.732 15.5467 167.898 15.712C168.063 15.8773 168.276 15.96 168.538 15.96C168.687 15.96 168.815 15.9413 168.922 15.904C169.034 15.8613 169.13 15.816 169.21 15.768C169.29 15.72 169.356 15.6773 169.41 15.64C169.468 15.5973 169.519 15.576 169.562 15.576C169.636 15.576 169.703 15.6213 169.762 15.712L170.178 16.392C169.932 16.6213 169.636 16.8027 169.29 16.936C168.943 17.064 168.586 17.128 168.218 17.128ZM173.315 8.896V17H171.891V8.896H173.315ZM173.635 6.352C173.635 6.49067 173.605 6.62133 173.547 6.744C173.493 6.86133 173.419 6.968 173.323 7.064C173.232 7.15467 173.125 7.22667 173.003 7.28C172.88 7.33333 172.749 7.36 172.611 7.36C172.472 7.36 172.341 7.33333 172.219 7.28C172.101 7.22667 171.995 7.15467 171.899 7.064C171.808 6.968 171.736 6.86133 171.683 6.744C171.629 6.62133 171.603 6.49067 171.603 6.352C171.603 6.21333 171.629 6.08267 171.683 5.96C171.736 5.832 171.808 5.72267 171.899 5.632C171.995 5.536 172.101 5.46133 172.219 5.408C172.341 5.35467 172.472 5.328 172.611 5.328C172.749 5.328 172.88 5.35467 173.003 5.408C173.125 5.46133 173.232 5.536 173.323 5.632C173.419 5.72267 173.493 5.832 173.547 5.96C173.605 6.08267 173.635 6.21333 173.635 6.352ZM179.104 8.768C179.696 8.768 180.23 8.86667 180.704 9.064C181.184 9.26133 181.59 9.54133 181.92 9.904C182.256 10.2667 182.512 10.7067 182.688 11.224C182.87 11.736 182.96 12.3093 182.96 12.944C182.96 13.584 182.87 14.16 182.688 14.672C182.512 15.184 182.256 15.6213 181.92 15.984C181.59 16.3467 181.184 16.6267 180.704 16.824C180.23 17.016 179.696 17.112 179.104 17.112C178.512 17.112 177.976 17.016 177.496 16.824C177.022 16.6267 176.616 16.3467 176.28 15.984C175.944 15.6213 175.686 15.184 175.504 14.672C175.323 14.16 175.232 13.584 175.232 12.944C175.232 12.3093 175.323 11.736 175.504 11.224C175.686 10.7067 175.944 10.2667 176.28 9.904C176.616 9.54133 177.022 9.26133 177.496 9.064C177.976 8.86667 178.512 8.768 179.104 8.768ZM179.104 16C179.904 16 180.502 15.7333 180.896 15.2C181.291 14.6613 181.488 13.912 181.488 12.952C181.488 11.9867 181.291 11.2347 180.896 10.696C180.502 10.1573 179.904 9.888 179.104 9.888C178.699 9.888 178.347 9.95733 178.048 10.096C177.75 10.2347 177.499 10.4347 177.296 10.696C177.099 10.9573 176.95 11.28 176.848 11.664C176.752 12.0427 176.704 12.472 176.704 12.952C176.704 13.432 176.752 13.8613 176.848 14.24C176.95 14.6187 177.099 14.9387 177.296 15.2C177.499 15.456 177.75 15.6533 178.048 15.792C178.347 15.9307 178.699 16 179.104 16ZM184.715 17V8.896H185.563C185.766 8.896 185.894 8.99467 185.947 9.192L186.059 10.072C186.411 9.68267 186.803 9.368 187.235 9.128C187.672 8.888 188.176 8.768 188.747 8.768C189.19 8.768 189.579 8.84267 189.915 8.992C190.256 9.136 190.539 9.344 190.763 9.616C190.992 9.88267 191.166 10.2053 191.283 10.584C191.4 10.9627 191.459 11.3813 191.459 11.84V17H190.035V11.84C190.035 11.2267 189.894 10.752 189.611 10.416C189.334 10.0747 188.907 9.904 188.331 9.904C187.91 9.904 187.515 10.0053 187.147 10.208C186.784 10.4107 186.448 10.6853 186.139 11.032V17H184.715ZM200.339 5.408C200.825 5.408 201.278 5.48 201.699 5.624C202.121 5.768 202.483 5.97867 202.787 6.256C203.097 6.528 203.339 6.86133 203.515 7.256C203.691 7.65067 203.779 8.09867 203.779 8.6C203.779 9.02667 203.715 9.42133 203.587 9.784C203.459 10.1467 203.286 10.496 203.067 10.832C202.849 11.1627 202.595 11.4853 202.307 11.8C202.025 12.1093 201.723 12.4267 201.403 12.752L198.387 15.84C198.601 15.7813 198.817 15.736 199.035 15.704C199.254 15.6667 199.465 15.648 199.667 15.648H203.507C203.662 15.648 203.785 15.6933 203.875 15.784C203.966 15.8747 204.011 15.992 204.011 16.136V17H196.363V16.512C196.363 16.4107 196.382 16.3067 196.419 16.2C196.462 16.0933 196.529 15.9947 196.619 15.904L200.291 12.216C200.595 11.9067 200.873 11.6107 201.123 11.328C201.374 11.04 201.587 10.752 201.763 10.464C201.945 10.176 202.083 9.88533 202.179 9.592C202.275 9.29333 202.323 8.976 202.323 8.64C202.323 8.304 202.27 8.01067 202.163 7.76C202.057 7.504 201.91 7.29333 201.723 7.128C201.537 6.96267 201.318 6.84 201.067 6.76C200.817 6.67467 200.547 6.632 200.259 6.632C199.971 6.632 199.705 6.67467 199.459 6.76C199.214 6.84533 198.995 6.96533 198.803 7.12C198.617 7.26933 198.457 7.448 198.323 7.656C198.195 7.864 198.105 8.09333 198.051 8.344C198.009 8.49867 197.945 8.61067 197.859 8.68C197.774 8.74933 197.662 8.784 197.523 8.784C197.497 8.784 197.467 8.784 197.435 8.784C197.409 8.77867 197.377 8.77333 197.339 8.768L196.595 8.64C196.67 8.11733 196.814 7.656 197.027 7.256C197.241 6.85067 197.51 6.512 197.835 6.24C198.166 5.968 198.542 5.76267 198.963 5.624C199.39 5.48 199.849 5.408 200.339 5.408Z" fill="black"/>
<circle cx="125" cy="11" r="10.5" fill="white" stroke="#D8D8D8"/>
<path d="M269.04 11.272C269.04 12.1307 268.904 12.92 268.632 13.64C268.36 14.3547 267.976 14.9707 267.48 15.488C266.984 16.0053 266.387 16.408 265.688 16.696C264.995 16.9787 264.227 17.12 263.384 17.12C262.541 17.12 261.773 16.9787 261.08 16.696C260.387 16.408 259.792 16.0053 259.296 15.488C258.8 14.9707 258.416 14.3547 258.144 13.64C257.872 12.92 257.736 12.1307 257.736 11.272C257.736 10.4133 257.872 9.62667 258.144 8.912C258.416 8.192 258.8 7.57333 259.296 7.056C259.792 6.53333 260.387 6.128 261.08 5.84C261.773 5.552 262.541 5.408 263.384 5.408C264.227 5.408 264.995 5.552 265.688 5.84C266.387 6.128 266.984 6.53333 267.48 7.056C267.976 7.57333 268.36 8.192 268.632 8.912C268.904 9.62667 269.04 10.4133 269.04 11.272ZM267.448 11.272C267.448 10.568 267.352 9.936 267.16 9.376C266.968 8.816 266.696 8.344 266.344 7.96C265.992 7.57067 265.565 7.272 265.064 7.064C264.563 6.856 264.003 6.752 263.384 6.752C262.771 6.752 262.213 6.856 261.712 7.064C261.211 7.272 260.781 7.57067 260.424 7.96C260.072 8.344 259.8 8.816 259.608 9.376C259.416 9.936 259.32 10.568 259.32 11.272C259.32 11.976 259.416 12.608 259.608 13.168C259.8 13.7227 260.072 14.1947 260.424 14.584C260.781 14.968 261.211 15.264 261.712 15.472C262.213 15.6747 262.771 15.776 263.384 15.776C264.003 15.776 264.563 15.6747 265.064 15.472C265.565 15.264 265.992 14.968 266.344 14.584C266.696 14.1947 266.968 13.7227 267.16 13.168C267.352 12.608 267.448 11.976 267.448 11.272ZM270.934 19.744V8.896H271.782C271.984 8.896 272.112 8.99467 272.166 9.192L272.286 10.152C272.632 9.73067 273.027 9.392 273.47 9.136C273.918 8.88 274.432 8.752 275.014 8.752C275.478 8.752 275.899 8.84267 276.278 9.024C276.656 9.2 276.979 9.464 277.246 9.816C277.512 10.1627 277.718 10.5947 277.862 11.112C278.006 11.6293 278.078 12.224 278.078 12.896C278.078 13.4933 277.998 14.0507 277.838 14.568C277.678 15.08 277.448 15.5253 277.15 15.904C276.851 16.2773 276.483 16.5733 276.046 16.792C275.614 17.0053 275.126 17.112 274.582 17.112C274.08 17.112 273.651 17.0293 273.294 16.864C272.942 16.6987 272.63 16.464 272.358 16.16V19.744H270.934ZM274.542 9.904C274.078 9.904 273.67 10.0107 273.318 10.224C272.971 10.4373 272.651 10.7387 272.358 11.128V15.048C272.619 15.4 272.904 15.648 273.214 15.792C273.528 15.936 273.878 16.008 274.262 16.008C275.014 16.008 275.592 15.7387 275.998 15.2C276.403 14.6613 276.606 13.8933 276.606 12.896C276.606 12.368 276.558 11.9147 276.462 11.536C276.371 11.1573 276.238 10.848 276.062 10.608C275.886 10.3627 275.67 10.184 275.414 10.072C275.158 9.96 274.867 9.904 274.542 9.904ZM282.218 17.128C281.578 17.128 281.084 16.9493 280.738 16.592C280.396 16.2347 280.226 15.72 280.226 15.048V10.088H279.25C279.164 10.088 279.092 10.064 279.034 10.016C278.975 9.96267 278.946 9.88267 278.946 9.776V9.208L280.274 9.04L280.602 6.536C280.612 6.456 280.647 6.392 280.706 6.344C280.764 6.29067 280.839 6.264 280.93 6.264H281.65V9.056H283.97V10.088H281.65V14.952C281.65 15.2933 281.732 15.5467 281.898 15.712C282.063 15.8773 282.276 15.96 282.538 15.96C282.687 15.96 282.815 15.9413 282.922 15.904C283.034 15.8613 283.13 15.816 283.21 15.768C283.29 15.72 283.356 15.6773 283.41 15.64C283.468 15.5973 283.519 15.576 283.562 15.576C283.636 15.576 283.703 15.6213 283.762 15.712L284.178 16.392C283.932 16.6213 283.636 16.8027 283.29 16.936C282.943 17.064 282.586 17.128 282.218 17.128ZM287.315 8.896V17H285.891V8.896H287.315ZM287.635 6.352C287.635 6.49067 287.605 6.62133 287.547 6.744C287.493 6.86133 287.419 6.968 287.323 7.064C287.232 7.15467 287.125 7.22667 287.003 7.28C286.88 7.33333 286.749 7.36 286.611 7.36C286.472 7.36 286.341 7.33333 286.219 7.28C286.101 7.22667 285.995 7.15467 285.899 7.064C285.808 6.968 285.736 6.86133 285.683 6.744C285.629 6.62133 285.603 6.49067 285.603 6.352C285.603 6.21333 285.629 6.08267 285.683 5.96C285.736 5.832 285.808 5.72267 285.899 5.632C285.995 5.536 286.101 5.46133 286.219 5.408C286.341 5.35467 286.472 5.328 286.611 5.328C286.749 5.328 286.88 5.35467 287.003 5.408C287.125 5.46133 287.232 5.536 287.323 5.632C287.419 5.72267 287.493 5.832 287.547 5.96C287.605 6.08267 287.635 6.21333 287.635 6.352ZM293.104 8.768C293.696 8.768 294.23 8.86667 294.704 9.064C295.184 9.26133 295.59 9.54133 295.92 9.904C296.256 10.2667 296.512 10.7067 296.688 11.224C296.87 11.736 296.96 12.3093 296.96 12.944C296.96 13.584 296.87 14.16 296.688 14.672C296.512 15.184 296.256 15.6213 295.92 15.984C295.59 16.3467 295.184 16.6267 294.704 16.824C294.23 17.016 293.696 17.112 293.104 17.112C292.512 17.112 291.976 17.016 291.496 16.824C291.022 16.6267 290.616 16.3467 290.28 15.984C289.944 15.6213 289.686 15.184 289.504 14.672C289.323 14.16 289.232 13.584 289.232 12.944C289.232 12.3093 289.323 11.736 289.504 11.224C289.686 10.7067 289.944 10.2667 290.28 9.904C290.616 9.54133 291.022 9.26133 291.496 9.064C291.976 8.86667 292.512 8.768 293.104 8.768ZM293.104 16C293.904 16 294.502 15.7333 294.896 15.2C295.291 14.6613 295.488 13.912 295.488 12.952C295.488 11.9867 295.291 11.2347 294.896 10.696C294.502 10.1573 293.904 9.888 293.104 9.888C292.699 9.888 292.347 9.95733 292.048 10.096C291.75 10.2347 291.499 10.4347 291.296 10.696C291.099 10.9573 290.95 11.28 290.848 11.664C290.752 12.0427 290.704 12.472 290.704 12.952C290.704 13.432 290.752 13.8613 290.848 14.24C290.95 14.6187 291.099 14.9387 291.296 15.2C291.499 15.456 291.75 15.6533 292.048 15.792C292.347 15.9307 292.699 16 293.104 16ZM298.715 17V8.896H299.563C299.766 8.896 299.894 8.99467 299.947 9.192L300.059 10.072C300.411 9.68267 300.803 9.368 301.235 9.128C301.672 8.888 302.176 8.768 302.747 8.768C303.19 8.768 303.579 8.84267 303.915 8.992C304.256 9.136 304.539 9.344 304.763 9.616C304.992 9.88267 305.166 10.2053 305.283 10.584C305.4 10.9627 305.459 11.3813 305.459 11.84V17H304.035V11.84C304.035 11.2267 303.894 10.752 303.611 10.416C303.334 10.0747 302.907 9.904 302.331 9.904C301.91 9.904 301.515 10.0053 301.147 10.208C300.784 10.4107 300.448 10.6853 300.139 11.032V17H298.715ZM314.491 5.408C314.977 5.408 315.425 5.47733 315.835 5.616C316.246 5.75467 316.598 5.952 316.891 6.208C317.19 6.464 317.422 6.77333 317.587 7.136C317.753 7.49867 317.835 7.90133 317.835 8.344C317.835 8.70667 317.787 9.032 317.691 9.32C317.601 9.60267 317.467 9.85333 317.291 10.072C317.121 10.2853 316.913 10.4667 316.667 10.616C316.422 10.7653 316.147 10.8853 315.843 10.976C316.59 11.1733 317.15 11.504 317.523 11.968C317.902 12.432 318.091 13.0133 318.091 13.712C318.091 14.24 317.99 14.7147 317.787 15.136C317.59 15.5573 317.318 15.9173 316.971 16.216C316.625 16.5093 316.219 16.736 315.755 16.896C315.297 17.0507 314.803 17.128 314.275 17.128C313.667 17.128 313.147 17.0533 312.715 16.904C312.283 16.7493 311.918 16.5387 311.619 16.272C311.321 16.0053 311.075 15.6907 310.883 15.328C310.691 14.96 310.529 14.5627 310.395 14.136L311.003 13.88C311.115 13.832 311.227 13.808 311.339 13.808C311.446 13.808 311.539 13.832 311.619 13.88C311.705 13.9227 311.769 13.992 311.811 14.088C311.822 14.1093 311.833 14.1333 311.843 14.16C311.854 14.1813 311.865 14.2053 311.875 14.232C311.95 14.3867 312.041 14.5627 312.147 14.76C312.254 14.952 312.398 15.1333 312.579 15.304C312.761 15.4747 312.985 15.6187 313.251 15.736C313.523 15.8533 313.859 15.912 314.259 15.912C314.659 15.912 315.009 15.848 315.307 15.72C315.611 15.5867 315.862 15.416 316.059 15.208C316.262 15 316.414 14.768 316.515 14.512C316.617 14.256 316.667 14.0027 316.667 13.752C316.667 13.4427 316.625 13.16 316.539 12.904C316.459 12.648 316.31 12.4267 316.091 12.24C315.878 12.0533 315.579 11.9067 315.195 11.8C314.817 11.6933 314.329 11.64 313.731 11.64V10.608C314.217 10.6027 314.63 10.5493 314.971 10.448C315.318 10.3467 315.601 10.208 315.819 10.032C316.038 9.856 316.195 9.64533 316.291 9.4C316.393 9.15467 316.443 8.88267 316.443 8.584C316.443 8.25333 316.39 7.96533 316.283 7.72C316.182 7.47467 316.041 7.272 315.859 7.112C315.678 6.952 315.462 6.832 315.211 6.752C314.966 6.672 314.699 6.632 314.411 6.632C314.123 6.632 313.857 6.67467 313.611 6.76C313.366 6.84533 313.147 6.96533 312.955 7.12C312.769 7.26933 312.611 7.45067 312.483 7.664C312.355 7.872 312.259 8.09867 312.195 8.344C312.153 8.49867 312.089 8.61067 312.003 8.68C311.918 8.74933 311.809 8.784 311.675 8.784C311.649 8.784 311.619 8.784 311.587 8.784C311.561 8.77867 311.529 8.77333 311.491 8.768L310.747 8.64C310.822 8.11733 310.966 7.656 311.179 7.256C311.393 6.85067 311.662 6.512 311.987 6.24C312.318 5.968 312.694 5.76267 313.115 5.624C313.542 5.48 314.001 5.408 314.491 5.408Z" fill="black"/>
<circle cx="239" cy="11" r="10.5" fill="white" stroke="#D8D8D8"/>
<path d="M41.04 11.272C41.04 12.1307 40.904 12.92 40.632 13.64C40.36 14.3547 39.976 14.9707 39.48 15.488C38.984 16.0053 38.3867 16.408 37.688 16.696C36.9947 16.9787 36.2267 17.12 35.384 17.12C34.5413 17.12 33.7733 16.9787 33.08 16.696C32.3867 16.408 31.792 16.0053 31.296 15.488C30.8 14.9707 30.416 14.3547 30.144 13.64C29.872 12.92 29.736 12.1307 29.736 11.272C29.736 10.4133 29.872 9.62667 30.144 8.912C30.416 8.192 30.8 7.57333 31.296 7.056C31.792 6.53333 32.3867 6.128 33.08 5.84C33.7733 5.552 34.5413 5.408 35.384 5.408C36.2267 5.408 36.9947 5.552 37.688 5.84C38.3867 6.128 38.984 6.53333 39.48 7.056C39.976 7.57333 40.36 8.192 40.632 8.912C40.904 9.62667 41.04 10.4133 41.04 11.272ZM39.448 11.272C39.448 10.568 39.352 9.936 39.16 9.376C38.968 8.816 38.696 8.344 38.344 7.96C37.992 7.57067 37.5653 7.272 37.064 7.064C36.5627 6.856 36.0027 6.752 35.384 6.752C34.7707 6.752 34.2133 6.856 33.712 7.064C33.2107 7.272 32.7813 7.57067 32.424 7.96C32.072 8.344 31.8 8.816 31.608 9.376C31.416 9.936 31.32 10.568 31.32 11.272C31.32 11.976 31.416 12.608 31.608 13.168C31.8 13.7227 32.072 14.1947 32.424 14.584C32.7813 14.968 33.2107 15.264 33.712 15.472C34.2133 15.6747 34.7707 15.776 35.384 15.776C36.0027 15.776 36.5627 15.6747 37.064 15.472C37.5653 15.264 37.992 14.968 38.344 14.584C38.696 14.1947 38.968 13.7227 39.16 13.168C39.352 12.608 39.448 11.976 39.448 11.272ZM42.9336 19.744V8.896H43.7816C43.9843 8.896 44.1123 8.99467 44.1656 9.192L44.2856 10.152C44.6323 9.73067 45.027 9.392 45.4696 9.136C45.9176 8.88 46.4323 8.752 47.0136 8.752C47.4776 8.752 47.899 8.84267 48.2776 9.024C48.6563 9.2 48.979 9.464 49.2456 9.816C49.5123 10.1627 49.7176 10.5947 49.8616 11.112C50.0056 11.6293 50.0776 12.224 50.0776 12.896C50.0776 13.4933 49.9976 14.0507 49.8376 14.568C49.6776 15.08 49.4483 15.5253 49.1496 15.904C48.851 16.2773 48.483 16.5733 48.0456 16.792C47.6136 17.0053 47.1256 17.112 46.5816 17.112C46.0803 17.112 45.651 17.0293 45.2936 16.864C44.9416 16.6987 44.6296 16.464 44.3576 16.16V19.744H42.9336ZM46.5416 9.904C46.0776 9.904 45.6696 10.0107 45.3176 10.224C44.971 10.4373 44.651 10.7387 44.3576 11.128V15.048C44.619 15.4 44.9043 15.648 45.2136 15.792C45.5283 15.936 45.8776 16.008 46.2616 16.008C47.0136 16.008 47.5923 15.7387 47.9976 15.2C48.403 14.6613 48.6056 13.8933 48.6056 12.896C48.6056 12.368 48.5576 11.9147 48.4616 11.536C48.371 11.1573 48.2376 10.848 48.0616 10.608C47.8856 10.3627 47.6696 10.184 47.4136 10.072C47.1576 9.96 46.867 9.904 46.5416 9.904ZM54.2178 17.128C53.5778 17.128 53.0844 16.9493 52.7378 16.592C52.3964 16.2347 52.2258 15.72 52.2258 15.048V10.088H51.2498C51.1644 10.088 51.0924 10.064 51.0338 10.016C50.9751 9.96267 50.9458 9.88267 50.9458 9.776V9.208L52.2738 9.04L52.6018 6.536C52.6124 6.456 52.6471 6.392 52.7057 6.344C52.7644 6.29067 52.8391 6.264 52.9298 6.264H53.6498V9.056H55.9698V10.088H53.6498V14.952C53.6498 15.2933 53.7324 15.5467 53.8978 15.712C54.0631 15.8773 54.2764 15.96 54.5378 15.96C54.6871 15.96 54.8151 15.9413 54.9218 15.904C55.0338 15.8613 55.1298 15.816 55.2098 15.768C55.2898 15.72 55.3564 15.6773 55.4098 15.64C55.4684 15.5973 55.5191 15.576 55.5618 15.576C55.6364 15.576 55.7031 15.6213 55.7618 15.712L56.1778 16.392C55.9324 16.6213 55.6364 16.8027 55.2898 16.936C54.9431 17.064 54.5858 17.128 54.2178 17.128ZM59.3145 8.896V17H57.8905V8.896H59.3145ZM59.6345 6.352C59.6345 6.49067 59.6052 6.62133 59.5465 6.744C59.4932 6.86133 59.4185 6.968 59.3225 7.064C59.2318 7.15467 59.1252 7.22667 59.0025 7.28C58.8798 7.33333 58.7492 7.36 58.6105 7.36C58.4718 7.36 58.3412 7.33333 58.2185 7.28C58.1012 7.22667 57.9945 7.15467 57.8985 7.064C57.8078 6.968 57.7358 6.86133 57.6825 6.744C57.6292 6.62133 57.6025 6.49067 57.6025 6.352C57.6025 6.21333 57.6292 6.08267 57.6825 5.96C57.7358 5.832 57.8078 5.72267 57.8985 5.632C57.9945 5.536 58.1012 5.46133 58.2185 5.408C58.3412 5.35467 58.4718 5.328 58.6105 5.328C58.7492 5.328 58.8798 5.35467 59.0025 5.408C59.1252 5.46133 59.2318 5.536 59.3225 5.632C59.4185 5.72267 59.4932 5.832 59.5465 5.96C59.6052 6.08267 59.6345 6.21333 59.6345 6.352ZM65.1043 8.768C65.6963 8.768 66.2296 8.86667 66.7043 9.064C67.1843 9.26133 67.5896 9.54133 67.9203 9.904C68.2563 10.2667 68.5123 10.7067 68.6883 11.224C68.8696 11.736 68.9603 12.3093 68.9603 12.944C68.9603 13.584 68.8696 14.16 68.6883 14.672C68.5123 15.184 68.2563 15.6213 67.9203 15.984C67.5896 16.3467 67.1843 16.6267 66.7043 16.824C66.2296 17.016 65.6963 17.112 65.1043 17.112C64.5123 17.112 63.9763 17.016 63.4963 16.824C63.0216 16.6267 62.6163 16.3467 62.2803 15.984C61.9443 15.6213 61.6856 15.184 61.5043 14.672C61.3229 14.16 61.2323 13.584 61.2323 12.944C61.2323 12.3093 61.3229 11.736 61.5043 11.224C61.6856 10.7067 61.9443 10.2667 62.2803 9.904C62.6163 9.54133 63.0216 9.26133 63.4963 9.064C63.9763 8.86667 64.5123 8.768 65.1043 8.768ZM65.1043 16C65.9043 16 66.5016 15.7333 66.8963 15.2C67.2909 14.6613 67.4883 13.912 67.4883 12.952C67.4883 11.9867 67.2909 11.2347 66.8963 10.696C66.5016 10.1573 65.9043 9.888 65.1043 9.888C64.6989 9.888 64.3469 9.95733 64.0483 10.096C63.7496 10.2347 63.4989 10.4347 63.2963 10.696C63.0989 10.9573 62.9496 11.28 62.8483 11.664C62.7523 12.0427 62.7043 12.472 62.7043 12.952C62.7043 13.432 62.7523 13.8613 62.8483 14.24C62.9496 14.6187 63.0989 14.9387 63.2963 15.2C63.4989 15.456 63.7496 15.6533 64.0483 15.792C64.3469 15.9307 64.6989 16 65.1043 16ZM70.7149 17V8.896H71.5629C71.7655 8.896 71.8935 8.99467 71.9469 9.192L72.0589 10.072C72.4109 9.68267 72.8029 9.368 73.2349 9.128C73.6722 8.888 74.1762 8.768 74.7469 8.768C75.1895 8.768 75.5789 8.84267 75.9149 8.992C76.2562 9.136 76.5389 9.344 76.7629 9.616C76.9922 9.88267 77.1655 10.2053 77.2829 10.584C77.4002 10.9627 77.4589 11.3813 77.4589 11.84V17H76.0349V11.84C76.0349 11.2267 75.8935 10.752 75.6109 10.416C75.3335 10.0747 74.9069 9.904 74.3309 9.904C73.9095 9.904 73.5149 10.0053 73.1469 10.208C72.7842 10.4107 72.4482 10.6853 72.1389 11.032V17H70.7149ZM83.8273 15.912H86.2913V8.096C86.2913 7.86133 86.2993 7.624 86.3153 7.384L84.2673 9.136C84.2139 9.17867 84.1606 9.21067 84.1073 9.232C84.0539 9.248 84.0033 9.256 83.9553 9.256C83.8753 9.256 83.8033 9.24 83.7393 9.208C83.6753 9.17067 83.6273 9.128 83.5953 9.08L83.1473 8.464L86.5553 5.512H87.7153V15.912H89.9713V17H83.8273V15.912Z" fill="black"/>
<circle cx="11" cy="11" r="10" fill="white" stroke="#D8D8D8" stroke-width="2"/>
<circle cx="11" cy="11" r="8" fill="white" stroke="#0064D1" stroke-width="6"/>
<path d="M9.352 40H7.987V35.436H2.583V40H1.218V29.969H2.583V34.442H7.987V29.969H9.352V40ZM14.411 32.797C14.8357 32.797 15.2277 32.8693 15.587 33.014C15.9464 33.154 16.2567 33.3593 16.518 33.63C16.7794 33.896 16.9824 34.2273 17.127 34.624C17.2764 35.016 17.351 35.464 17.351 35.968C17.351 36.164 17.33 36.2947 17.288 36.36C17.246 36.4253 17.1667 36.458 17.05 36.458H12.332C12.3414 36.906 12.402 37.2957 12.514 37.627C12.626 37.9583 12.78 38.236 12.976 38.46C13.172 38.6793 13.4054 38.845 13.676 38.957C13.9467 39.0643 14.25 39.118 14.586 39.118C14.8987 39.118 15.167 39.083 15.391 39.013C15.6197 38.9383 15.8157 38.859 15.979 38.775C16.1424 38.691 16.2777 38.614 16.385 38.544C16.497 38.4693 16.5927 38.432 16.672 38.432C16.7747 38.432 16.854 38.4717 16.91 38.551L17.26 39.006C17.106 39.1927 16.9217 39.356 16.707 39.496C16.4924 39.6313 16.2614 39.7433 16.014 39.832C15.7714 39.9207 15.5194 39.986 15.258 40.028C14.9967 40.0747 14.7377 40.098 14.481 40.098C13.991 40.098 13.5384 40.0163 13.123 39.853C12.7124 39.685 12.3554 39.4423 12.052 39.125C11.7534 38.803 11.52 38.4063 11.352 37.935C11.184 37.4637 11.1 36.9223 11.1 36.311C11.1 35.8163 11.1747 35.3543 11.324 34.925C11.478 34.4957 11.6974 34.1247 11.982 33.812C12.2667 33.4947 12.6144 33.2473 13.025 33.07C13.4357 32.888 13.8977 32.797 14.411 32.797ZM14.439 33.714C13.837 33.714 13.3634 33.889 13.018 34.239C12.6727 34.5843 12.458 35.065 12.374 35.681H16.231C16.231 35.3917 16.1914 35.128 16.112 34.89C16.0327 34.6473 15.916 34.4397 15.762 34.267C15.608 34.0897 15.419 33.9543 15.195 33.861C14.9757 33.763 14.7237 33.714 14.439 33.714ZM20.3318 29.689V40H19.0858V29.689H20.3318ZM22.5279 42.401V32.909H23.2699C23.4472 32.909 23.5592 32.9953 23.6059 33.168L23.7109 34.008C24.0142 33.6393 24.3595 33.343 24.7469 33.119C25.1389 32.895 25.5892 32.783 26.0979 32.783C26.5039 32.783 26.8725 32.8623 27.2039 33.021C27.5352 33.175 27.8175 33.406 28.0509 33.714C28.2842 34.0173 28.4639 34.3953 28.5899 34.848C28.7159 35.3007 28.7789 35.821 28.7789 36.409C28.7789 36.9317 28.7089 37.4193 28.5689 37.872C28.4289 38.32 28.2282 38.7097 27.9669 39.041C27.7055 39.3677 27.3835 39.6267 27.0009 39.818C26.6229 40.0047 26.1959 40.098 25.7199 40.098C25.2812 40.098 24.9055 40.0257 24.5929 39.881C24.2849 39.7363 24.0119 39.531 23.7739 39.265V42.401H22.5279ZM25.6849 33.791C25.2789 33.791 24.9219 33.8843 24.6139 34.071C24.3105 34.2577 24.0305 34.5213 23.7739 34.862V38.292C24.0025 38.6 24.2522 38.817 24.5229 38.943C24.7982 39.069 25.1039 39.132 25.4399 39.132C26.0979 39.132 26.6042 38.8963 26.9589 38.425C27.3135 37.9537 27.4909 37.2817 27.4909 36.409C27.4909 35.947 27.4489 35.5503 27.3649 35.219C27.2855 34.8877 27.1689 34.617 27.0149 34.407C26.8609 34.1923 26.6719 34.036 26.4479 33.938C26.2239 33.84 25.9695 33.791 25.6849 33.791ZM33.0595 32.797C33.4841 32.797 33.8761 32.8693 34.2355 33.014C34.5948 33.154 34.9051 33.3593 35.1665 33.63C35.4278 33.896 35.6308 34.2273 35.7755 34.624C35.9248 35.016 35.9995 35.464 35.9995 35.968C35.9995 36.164 35.9785 36.2947 35.9365 36.36C35.8945 36.4253 35.8151 36.458 35.6985 36.458H30.9805C30.9898 36.906 31.0505 37.2957 31.1625 37.627C31.2745 37.9583 31.4285 38.236 31.6245 38.46C31.8205 38.6793 32.0538 38.845 32.3245 38.957C32.5951 39.0643 32.8985 39.118 33.2345 39.118C33.5471 39.118 33.8155 39.083 34.0395 39.013C34.2681 38.9383 34.4641 38.859 34.6275 38.775C34.7908 38.691 34.9261 38.614 35.0335 38.544C35.1455 38.4693 35.2411 38.432 35.3205 38.432C35.4231 38.432 35.5025 38.4717 35.5585 38.551L35.9085 39.006C35.7545 39.1927 35.5701 39.356 35.3555 39.496C35.1408 39.6313 34.9098 39.7433 34.6625 39.832C34.4198 39.9207 34.1678 39.986 33.9065 40.028C33.6451 40.0747 33.3861 40.098 33.1295 40.098C32.6395 40.098 32.1868 40.0163 31.7715 39.853C31.3608 39.685 31.0038 39.4423 30.7005 39.125C30.4018 38.803 30.1685 38.4063 30.0005 37.935C29.8325 37.4637 29.7485 36.9223 29.7485 36.311C29.7485 35.8163 29.8231 35.3543 29.9725 34.925C30.1265 34.4957 30.3458 34.1247 30.6305 33.812C30.9151 33.4947 31.2628 33.2473 31.6735 33.07C32.0841 32.888 32.5461 32.797 33.0595 32.797ZM33.0875 33.714C32.4855 33.714 32.0118 33.889 31.6665 34.239C31.3211 34.5843 31.1065 35.065 31.0225 35.681H34.8795C34.8795 35.3917 34.8398 35.128 34.7605 34.89C34.6811 34.6473 34.5645 34.4397 34.4105 34.267C34.2565 34.0897 34.0675 33.9543 33.8435 33.861C33.6241 33.763 33.3721 33.714 33.0875 33.714ZM37.5943 40V32.909H38.3083C38.4436 32.909 38.5369 32.9347 38.5883 32.986C38.6396 33.0373 38.6746 33.126 38.6933 33.252L38.7773 34.358C39.0199 33.8633 39.3186 33.4783 39.6733 33.203C40.0326 32.923 40.4526 32.783 40.9333 32.783C41.1293 32.783 41.3066 32.8063 41.4653 32.853C41.6239 32.895 41.7709 32.9557 41.9063 33.035L41.7453 33.966C41.7126 34.0827 41.6403 34.141 41.5283 34.141C41.4629 34.141 41.3626 34.12 41.2273 34.078C41.0919 34.0313 40.9029 34.008 40.6603 34.008C40.2263 34.008 39.8623 34.134 39.5683 34.386C39.2789 34.638 39.0363 35.0043 38.8403 35.485V40H37.5943ZM48.0968 40.112C47.5368 40.112 47.1051 39.9557 46.8018 39.643C46.5031 39.3303 46.3538 38.88 46.3538 38.292V33.952H45.4998C45.4251 33.952 45.3621 33.931 45.3108 33.889C45.2594 33.8423 45.2338 33.7723 45.2338 33.679V33.182L46.3958 33.035L46.6828 30.844C46.6921 30.774 46.7224 30.718 46.7738 30.676C46.8251 30.6293 46.8904 30.606 46.9698 30.606H47.5998V33.049H49.6298V33.952H47.5998V38.208C47.5998 38.5067 47.6721 38.7283 47.8168 38.873C47.9614 39.0177 48.1481 39.09 48.3768 39.09C48.5074 39.09 48.6194 39.0737 48.7128 39.041C48.8108 39.0037 48.8948 38.964 48.9648 38.922C49.0348 38.88 49.0931 38.8427 49.1398 38.81C49.1911 38.7727 49.2354 38.754 49.2728 38.754C49.3381 38.754 49.3964 38.7937 49.4478 38.873L49.8118 39.468C49.5971 39.6687 49.3381 39.8273 49.0348 39.944C48.7314 40.056 48.4188 40.112 48.0968 40.112ZM53.9774 32.797C54.4021 32.797 54.7941 32.8693 55.1534 33.014C55.5128 33.154 55.8231 33.3593 56.0844 33.63C56.3458 33.896 56.5488 34.2273 56.6934 34.624C56.8428 35.016 56.9174 35.464 56.9174 35.968C56.9174 36.164 56.8964 36.2947 56.8544 36.36C56.8124 36.4253 56.7331 36.458 56.6164 36.458H51.8984C51.9078 36.906 51.9684 37.2957 52.0804 37.627C52.1924 37.9583 52.3464 38.236 52.5424 38.46C52.7384 38.6793 52.9718 38.845 53.2424 38.957C53.5131 39.0643 53.8164 39.118 54.1524 39.118C54.4651 39.118 54.7334 39.083 54.9574 39.013C55.1861 38.9383 55.3821 38.859 55.5454 38.775C55.7088 38.691 55.8441 38.614 55.9514 38.544C56.0634 38.4693 56.1591 38.432 56.2384 38.432C56.3411 38.432 56.4204 38.4717 56.4764 38.551L56.8264 39.006C56.6724 39.1927 56.4881 39.356 56.2734 39.496C56.0588 39.6313 55.8278 39.7433 55.5804 39.832C55.3378 39.9207 55.0858 39.986 54.8244 40.028C54.5631 40.0747 54.3041 40.098 54.0474 40.098C53.5574 40.098 53.1048 40.0163 52.6894 39.853C52.2788 39.685 51.9218 39.4423 51.6184 39.125C51.3198 38.803 51.0864 38.4063 50.9184 37.935C50.7504 37.4637 50.6664 36.9223 50.6664 36.311C50.6664 35.8163 50.7411 35.3543 50.8904 34.925C51.0444 34.4957 51.2638 34.1247 51.5484 33.812C51.8331 33.4947 52.1808 33.2473 52.5914 33.07C53.0021 32.888 53.4641 32.797 53.9774 32.797ZM54.0054 33.714C53.4034 33.714 52.9298 33.889 52.5844 34.239C52.2391 34.5843 52.0244 35.065 51.9404 35.681H55.7974C55.7974 35.3917 55.7578 35.128 55.6784 34.89C55.5991 34.6473 55.4824 34.4397 55.3284 34.267C55.1744 34.0897 54.9854 33.9543 54.7614 33.861C54.5421 33.763 54.2901 33.714 54.0054 33.714ZM59.7474 36.367L57.3604 32.909H58.5574C58.6601 32.909 58.7347 32.9253 58.7814 32.958C58.8281 32.9907 58.8701 33.0373 58.9074 33.098L60.6434 35.758C60.6854 35.6273 60.7461 35.4967 60.8254 35.366L62.3514 33.126C62.3981 33.0607 62.4447 33.0093 62.4914 32.972C62.5381 32.93 62.5964 32.909 62.6664 32.909H63.8144L61.4274 36.297L63.9124 40H62.7154C62.6127 40 62.5311 39.9743 62.4704 39.923C62.4144 39.867 62.3677 39.8063 62.3304 39.741L60.5454 36.962C60.5127 37.0973 60.4637 37.2187 60.3984 37.326L58.7464 39.741C58.6997 39.8063 58.6484 39.867 58.5924 39.923C58.5411 39.9743 58.4687 40 58.3754 40H57.2624L59.7474 36.367ZM67.2921 40.112C66.7321 40.112 66.3004 39.9557 65.9971 39.643C65.6984 39.3303 65.5491 38.88 65.5491 38.292V33.952H64.6951C64.6204 33.952 64.5574 33.931 64.5061 33.889C64.4548 33.8423 64.4291 33.7723 64.4291 33.679V33.182L65.5911 33.035L65.8781 30.844C65.8874 30.774 65.9178 30.718 65.9691 30.676C66.0204 30.6293 66.0858 30.606 66.1651 30.606H66.7951V33.049H68.8251V33.952H66.7951V38.208C66.7951 38.5067 66.8674 38.7283 67.0121 38.873C67.1568 39.0177 67.3434 39.09 67.5721 39.09C67.7028 39.09 67.8148 39.0737 67.9081 39.041C68.0061 39.0037 68.0901 38.964 68.1601 38.922C68.2301 38.88 68.2884 38.8427 68.3351 38.81C68.3864 38.7727 68.4308 38.754 68.4681 38.754C68.5334 38.754 68.5918 38.7937 68.6431 38.873L69.0071 39.468C68.7924 39.6687 68.5334 39.8273 68.2301 39.944C67.9268 40.056 67.6141 40.112 67.2921 40.112Z" fill="#6A6A6A"/>
</svg>
