<svg width="94" height="100" viewBox="0 0 94 100" fill="none" xmlns="http://www.w3.org/2000/svg">
<path d="M44.04 50.272C44.04 51.1307 43.904 51.92 43.632 52.64C43.36 53.3547 42.976 53.9707 42.48 54.488C41.984 55.0053 41.3867 55.408 40.688 55.696C39.9947 55.9787 39.2267 56.12 38.384 56.12C37.5413 56.12 36.7733 55.9787 36.08 55.696C35.3867 55.408 34.792 55.0053 34.296 54.488C33.8 53.9707 33.416 53.3547 33.144 52.64C32.872 51.92 32.736 51.1307 32.736 50.272C32.736 49.4133 32.872 48.6267 33.144 47.912C33.416 47.192 33.8 46.5733 34.296 46.056C34.792 45.5333 35.3867 45.128 36.08 44.84C36.7733 44.552 37.5413 44.408 38.384 44.408C39.2267 44.408 39.9947 44.552 40.688 44.84C41.3867 45.128 41.984 45.5333 42.48 46.056C42.976 46.5733 43.36 47.192 43.632 47.912C43.904 48.6267 44.04 49.4133 44.04 50.272ZM42.448 50.272C42.448 49.568 42.352 48.936 42.16 48.376C41.968 47.816 41.696 47.344 41.344 46.96C40.992 46.5707 40.5653 46.272 40.064 46.064C39.5627 45.856 39.0027 45.752 38.384 45.752C37.7707 45.752 37.2133 45.856 36.712 46.064C36.2107 46.272 35.7813 46.5707 35.424 46.96C35.072 47.344 34.8 47.816 34.608 48.376C34.416 48.936 34.32 49.568 34.32 50.272C34.32 50.976 34.416 51.608 34.608 52.168C34.8 52.7227 35.072 53.1947 35.424 53.584C35.7813 53.968 36.2107 54.264 36.712 54.472C37.2133 54.6747 37.7707 54.776 38.384 54.776C39.0027 54.776 39.5627 54.6747 40.064 54.472C40.5653 54.264 40.992 53.968 41.344 53.584C41.696 53.1947 41.968 52.7227 42.16 52.168C42.352 51.608 42.448 50.976 42.448 50.272ZM45.9336 58.744V47.896H46.7816C46.9843 47.896 47.1123 47.9947 47.1656 48.192L47.2856 49.152C47.6323 48.7307 48.027 48.392 48.4696 48.136C48.9176 47.88 49.4323 47.752 50.0136 47.752C50.4776 47.752 50.899 47.8427 51.2776 48.024C51.6563 48.2 51.979 48.464 52.2456 48.816C52.5123 49.1627 52.7176 49.5947 52.8616 50.112C53.0056 50.6293 53.0776 51.224 53.0776 51.896C53.0776 52.4933 52.9976 53.0507 52.8376 53.568C52.6776 54.08 52.4483 54.5253 52.1496 54.904C51.851 55.2773 51.483 55.5733 51.0456 55.792C50.6136 56.0053 50.1256 56.112 49.5816 56.112C49.0803 56.112 48.651 56.0293 48.2936 55.864C47.9416 55.6987 47.6296 55.464 47.3576 55.16V58.744H45.9336ZM49.5416 48.904C49.0776 48.904 48.6696 49.0107 48.3176 49.224C47.971 49.4373 47.651 49.7387 47.3576 50.128V54.048C47.619 54.4 47.9043 54.648 48.2136 54.792C48.5283 54.936 48.8776 55.008 49.2616 55.008C50.0136 55.008 50.5923 54.7387 50.9976 54.2C51.403 53.6613 51.6056 52.8933 51.6056 51.896C51.6056 51.368 51.5576 50.9147 51.4616 50.536C51.371 50.1573 51.2376 49.848 51.0616 49.608C50.8856 49.3627 50.6696 49.184 50.4136 49.072C50.1576 48.96 49.867 48.904 49.5416 48.904ZM57.2178 56.128C56.5778 56.128 56.0844 55.9493 55.7378 55.592C55.3964 55.2347 55.2258 54.72 55.2258 54.048V49.088H54.2498C54.1644 49.088 54.0924 49.064 54.0338 49.016C53.9751 48.9627 53.9458 48.8827 53.9458 48.776V48.208L55.2738 48.04L55.6018 45.536C55.6124 45.456 55.6471 45.392 55.7057 45.344C55.7644 45.2907 55.8391 45.264 55.9298 45.264H56.6498V48.056H58.9698V49.088H56.6498V53.952C56.6498 54.2933 56.7324 54.5467 56.8978 54.712C57.0631 54.8773 57.2764 54.96 57.5378 54.96C57.6871 54.96 57.8151 54.9413 57.9218 54.904C58.0338 54.8613 58.1298 54.816 58.2098 54.768C58.2898 54.72 58.3564 54.6773 58.4098 54.64C58.4684 54.5973 58.5191 54.576 58.5618 54.576C58.6364 54.576 58.7031 54.6213 58.7618 54.712L59.1778 55.392C58.9324 55.6213 58.6364 55.8027 58.2898 55.936C57.9431 56.064 57.5858 56.128 57.2178 56.128ZM62.3145 47.896V56H60.8905V47.896H62.3145ZM62.6345 45.352C62.6345 45.4907 62.6052 45.6213 62.5465 45.744C62.4932 45.8613 62.4185 45.968 62.3225 46.064C62.2318 46.1547 62.1252 46.2267 62.0025 46.28C61.8798 46.3333 61.7492 46.36 61.6105 46.36C61.4718 46.36 61.3412 46.3333 61.2185 46.28C61.1012 46.2267 60.9945 46.1547 60.8985 46.064C60.8078 45.968 60.7358 45.8613 60.6825 45.744C60.6292 45.6213 60.6025 45.4907 60.6025 45.352C60.6025 45.2133 60.6292 45.0827 60.6825 44.96C60.7358 44.832 60.8078 44.7227 60.8985 44.632C60.9945 44.536 61.1012 44.4613 61.2185 44.408C61.3412 44.3547 61.4718 44.328 61.6105 44.328C61.7492 44.328 61.8798 44.3547 62.0025 44.408C62.1252 44.4613 62.2318 44.536 62.3225 44.632C62.4185 44.7227 62.4932 44.832 62.5465 44.96C62.6052 45.0827 62.6345 45.2133 62.6345 45.352ZM68.1043 47.768C68.6963 47.768 69.2296 47.8667 69.7043 48.064C70.1843 48.2613 70.5896 48.5413 70.9203 48.904C71.2563 49.2667 71.5123 49.7067 71.6883 50.224C71.8696 50.736 71.9603 51.3093 71.9603 51.944C71.9603 52.584 71.8696 53.16 71.6883 53.672C71.5123 54.184 71.2563 54.6213 70.9203 54.984C70.5896 55.3467 70.1843 55.6267 69.7043 55.824C69.2296 56.016 68.6963 56.112 68.1043 56.112C67.5123 56.112 66.9763 56.016 66.4963 55.824C66.0216 55.6267 65.6163 55.3467 65.2803 54.984C64.9443 54.6213 64.6856 54.184 64.5043 53.672C64.3229 53.16 64.2323 52.584 64.2323 51.944C64.2323 51.3093 64.3229 50.736 64.5043 50.224C64.6856 49.7067 64.9443 49.2667 65.2803 48.904C65.6163 48.5413 66.0216 48.2613 66.4963 48.064C66.9763 47.8667 67.5123 47.768 68.1043 47.768ZM68.1043 55C68.9043 55 69.5016 54.7333 69.8963 54.2C70.2909 53.6613 70.4883 52.912 70.4883 51.952C70.4883 50.9867 70.2909 50.2347 69.8963 49.696C69.5016 49.1573 68.9043 48.888 68.1043 48.888C67.6989 48.888 67.3469 48.9573 67.0483 49.096C66.7496 49.2347 66.4989 49.4347 66.2963 49.696C66.0989 49.9573 65.9496 50.28 65.8483 50.664C65.7523 51.0427 65.7043 51.472 65.7043 51.952C65.7043 52.432 65.7523 52.8613 65.8483 53.24C65.9496 53.6187 66.0989 53.9387 66.2963 54.2C66.4989 54.456 66.7496 54.6533 67.0483 54.792C67.3469 54.9307 67.6989 55 68.1043 55ZM73.7149 56V47.896H74.5629C74.7655 47.896 74.8935 47.9947 74.9469 48.192L75.0589 49.072C75.4109 48.6827 75.8029 48.368 76.2349 48.128C76.6722 47.888 77.1762 47.768 77.7469 47.768C78.1895 47.768 78.5789 47.8427 78.9149 47.992C79.2562 48.136 79.5389 48.344 79.7629 48.616C79.9922 48.8827 80.1655 49.2053 80.2829 49.584C80.4002 49.9627 80.4589 50.3813 80.4589 50.84V56H79.0349V50.84C79.0349 50.2267 78.8935 49.752 78.6109 49.416C78.3335 49.0747 77.9069 48.904 77.3309 48.904C76.9095 48.904 76.5149 49.0053 76.1469 49.208C75.7842 49.4107 75.4482 49.6853 75.1389 50.032V56H73.7149ZM89.3393 44.408C89.8246 44.408 90.2779 44.48 90.6993 44.624C91.1206 44.768 91.4833 44.9787 91.7873 45.256C92.0966 45.528 92.3393 45.8613 92.5153 46.256C92.6913 46.6507 92.7793 47.0987 92.7793 47.6C92.7793 48.0267 92.7153 48.4213 92.5873 48.784C92.4593 49.1467 92.2859 49.496 92.0673 49.832C91.8486 50.1627 91.5953 50.4853 91.3073 50.8C91.0246 51.1093 90.7233 51.4267 90.4033 51.752L87.3873 54.84C87.6006 54.7813 87.8166 54.736 88.0353 54.704C88.2539 54.6667 88.4646 54.648 88.6673 54.648H92.5073C92.6619 54.648 92.7846 54.6933 92.8753 54.784C92.9659 54.8747 93.0113 54.992 93.0113 55.136V56H85.3633V55.512C85.3633 55.4107 85.3819 55.3067 85.4193 55.2C85.4619 55.0933 85.5286 54.9947 85.6193 54.904L89.2913 51.216C89.5953 50.9067 89.8726 50.6107 90.1233 50.328C90.3739 50.04 90.5873 49.752 90.7633 49.464C90.9446 49.176 91.0833 48.8853 91.1793 48.592C91.2753 48.2933 91.3233 47.976 91.3233 47.64C91.3233 47.304 91.2699 47.0107 91.1633 46.76C91.0566 46.504 90.9099 46.2933 90.7233 46.128C90.5366 45.9627 90.3179 45.84 90.0673 45.76C89.8166 45.6747 89.5473 45.632 89.2593 45.632C88.9713 45.632 88.7046 45.6747 88.4593 45.76C88.2139 45.8453 87.9953 45.9653 87.8033 46.12C87.6166 46.2693 87.4566 46.448 87.3233 46.656C87.1953 46.864 87.1046 47.0933 87.0513 47.344C87.0086 47.4987 86.9446 47.6107 86.8593 47.68C86.7739 47.7493 86.6619 47.784 86.5233 47.784C86.4966 47.784 86.4673 47.784 86.4353 47.784C86.4086 47.7787 86.3766 47.7733 86.3393 47.768L85.5953 47.64C85.6699 47.1173 85.8139 46.656 86.0273 46.256C86.2406 45.8507 86.5099 45.512 86.8353 45.24C87.1659 44.968 87.5419 44.7627 87.9633 44.624C88.3899 44.48 88.8486 44.408 89.3393 44.408Z" fill="black"/>
<circle cx="11" cy="50" r="10" fill="white" stroke="#D8D8D8" stroke-width="2"/>
<path d="M44.04 89.272C44.04 90.1307 43.904 90.92 43.632 91.64C43.36 92.3547 42.976 92.9707 42.48 93.488C41.984 94.0053 41.3867 94.408 40.688 94.696C39.9947 94.9787 39.2267 95.12 38.384 95.12C37.5413 95.12 36.7733 94.9787 36.08 94.696C35.3867 94.408 34.792 94.0053 34.296 93.488C33.8 92.9707 33.416 92.3547 33.144 91.64C32.872 90.92 32.736 90.1307 32.736 89.272C32.736 88.4133 32.872 87.6267 33.144 86.912C33.416 86.192 33.8 85.5733 34.296 85.056C34.792 84.5333 35.3867 84.128 36.08 83.84C36.7733 83.552 37.5413 83.408 38.384 83.408C39.2267 83.408 39.9947 83.552 40.688 83.84C41.3867 84.128 41.984 84.5333 42.48 85.056C42.976 85.5733 43.36 86.192 43.632 86.912C43.904 87.6267 44.04 88.4133 44.04 89.272ZM42.448 89.272C42.448 88.568 42.352 87.936 42.16 87.376C41.968 86.816 41.696 86.344 41.344 85.96C40.992 85.5707 40.5653 85.272 40.064 85.064C39.5627 84.856 39.0027 84.752 38.384 84.752C37.7707 84.752 37.2133 84.856 36.712 85.064C36.2107 85.272 35.7813 85.5707 35.424 85.96C35.072 86.344 34.8 86.816 34.608 87.376C34.416 87.936 34.32 88.568 34.32 89.272C34.32 89.976 34.416 90.608 34.608 91.168C34.8 91.7227 35.072 92.1947 35.424 92.584C35.7813 92.968 36.2107 93.264 36.712 93.472C37.2133 93.6747 37.7707 93.776 38.384 93.776C39.0027 93.776 39.5627 93.6747 40.064 93.472C40.5653 93.264 40.992 92.968 41.344 92.584C41.696 92.1947 41.968 91.7227 42.16 91.168C42.352 90.608 42.448 89.976 42.448 89.272ZM45.9336 97.744V86.896H46.7816C46.9843 86.896 47.1123 86.9947 47.1656 87.192L47.2856 88.152C47.6323 87.7307 48.027 87.392 48.4696 87.136C48.9176 86.88 49.4323 86.752 50.0136 86.752C50.4776 86.752 50.899 86.8427 51.2776 87.024C51.6563 87.2 51.979 87.464 52.2456 87.816C52.5123 88.1627 52.7176 88.5947 52.8616 89.112C53.0056 89.6293 53.0776 90.224 53.0776 90.896C53.0776 91.4933 52.9976 92.0507 52.8376 92.568C52.6776 93.08 52.4483 93.5253 52.1496 93.904C51.851 94.2773 51.483 94.5733 51.0456 94.792C50.6136 95.0053 50.1256 95.112 49.5816 95.112C49.0803 95.112 48.651 95.0293 48.2936 94.864C47.9416 94.6987 47.6296 94.464 47.3576 94.16V97.744H45.9336ZM49.5416 87.904C49.0776 87.904 48.6696 88.0107 48.3176 88.224C47.971 88.4373 47.651 88.7387 47.3576 89.128V93.048C47.619 93.4 47.9043 93.648 48.2136 93.792C48.5283 93.936 48.8776 94.008 49.2616 94.008C50.0136 94.008 50.5923 93.7387 50.9976 93.2C51.403 92.6613 51.6056 91.8933 51.6056 90.896C51.6056 90.368 51.5576 89.9147 51.4616 89.536C51.371 89.1573 51.2376 88.848 51.0616 88.608C50.8856 88.3627 50.6696 88.184 50.4136 88.072C50.1576 87.96 49.867 87.904 49.5416 87.904ZM57.2178 95.128C56.5778 95.128 56.0844 94.9493 55.7378 94.592C55.3964 94.2347 55.2258 93.72 55.2258 93.048V88.088H54.2498C54.1644 88.088 54.0924 88.064 54.0338 88.016C53.9751 87.9627 53.9458 87.8827 53.9458 87.776V87.208L55.2738 87.04L55.6018 84.536C55.6124 84.456 55.6471 84.392 55.7057 84.344C55.7644 84.2907 55.8391 84.264 55.9298 84.264H56.6498V87.056H58.9698V88.088H56.6498V92.952C56.6498 93.2933 56.7324 93.5467 56.8978 93.712C57.0631 93.8773 57.2764 93.96 57.5378 93.96C57.6871 93.96 57.8151 93.9413 57.9218 93.904C58.0338 93.8613 58.1298 93.816 58.2098 93.768C58.2898 93.72 58.3564 93.6773 58.4098 93.64C58.4684 93.5973 58.5191 93.576 58.5618 93.576C58.6364 93.576 58.7031 93.6213 58.7618 93.712L59.1778 94.392C58.9324 94.6213 58.6364 94.8027 58.2898 94.936C57.9431 95.064 57.5858 95.128 57.2178 95.128ZM62.3145 86.896V95H60.8905V86.896H62.3145ZM62.6345 84.352C62.6345 84.4907 62.6052 84.6213 62.5465 84.744C62.4932 84.8613 62.4185 84.968 62.3225 85.064C62.2318 85.1547 62.1252 85.2267 62.0025 85.28C61.8798 85.3333 61.7492 85.36 61.6105 85.36C61.4718 85.36 61.3412 85.3333 61.2185 85.28C61.1012 85.2267 60.9945 85.1547 60.8985 85.064C60.8078 84.968 60.7358 84.8613 60.6825 84.744C60.6292 84.6213 60.6025 84.4907 60.6025 84.352C60.6025 84.2133 60.6292 84.0827 60.6825 83.96C60.7358 83.832 60.8078 83.7227 60.8985 83.632C60.9945 83.536 61.1012 83.4613 61.2185 83.408C61.3412 83.3547 61.4718 83.328 61.6105 83.328C61.7492 83.328 61.8798 83.3547 62.0025 83.408C62.1252 83.4613 62.2318 83.536 62.3225 83.632C62.4185 83.7227 62.4932 83.832 62.5465 83.96C62.6052 84.0827 62.6345 84.2133 62.6345 84.352ZM68.1043 86.768C68.6963 86.768 69.2296 86.8667 69.7043 87.064C70.1843 87.2613 70.5896 87.5413 70.9203 87.904C71.2563 88.2667 71.5123 88.7067 71.6883 89.224C71.8696 89.736 71.9603 90.3093 71.9603 90.944C71.9603 91.584 71.8696 92.16 71.6883 92.672C71.5123 93.184 71.2563 93.6213 70.9203 93.984C70.5896 94.3467 70.1843 94.6267 69.7043 94.824C69.2296 95.016 68.6963 95.112 68.1043 95.112C67.5123 95.112 66.9763 95.016 66.4963 94.824C66.0216 94.6267 65.6163 94.3467 65.2803 93.984C64.9443 93.6213 64.6856 93.184 64.5043 92.672C64.3229 92.16 64.2323 91.584 64.2323 90.944C64.2323 90.3093 64.3229 89.736 64.5043 89.224C64.6856 88.7067 64.9443 88.2667 65.2803 87.904C65.6163 87.5413 66.0216 87.2613 66.4963 87.064C66.9763 86.8667 67.5123 86.768 68.1043 86.768ZM68.1043 94C68.9043 94 69.5016 93.7333 69.8963 93.2C70.2909 92.6613 70.4883 91.912 70.4883 90.952C70.4883 89.9867 70.2909 89.2347 69.8963 88.696C69.5016 88.1573 68.9043 87.888 68.1043 87.888C67.6989 87.888 67.3469 87.9573 67.0483 88.096C66.7496 88.2347 66.4989 88.4347 66.2963 88.696C66.0989 88.9573 65.9496 89.28 65.8483 89.664C65.7523 90.0427 65.7043 90.472 65.7043 90.952C65.7043 91.432 65.7523 91.8613 65.8483 92.24C65.9496 92.6187 66.0989 92.9387 66.2963 93.2C66.4989 93.456 66.7496 93.6533 67.0483 93.792C67.3469 93.9307 67.6989 94 68.1043 94ZM73.7149 95V86.896H74.5629C74.7655 86.896 74.8935 86.9947 74.9469 87.192L75.0589 88.072C75.4109 87.6827 75.8029 87.368 76.2349 87.128C76.6722 86.888 77.1762 86.768 77.7469 86.768C78.1895 86.768 78.5789 86.8427 78.9149 86.992C79.2562 87.136 79.5389 87.344 79.7629 87.616C79.9922 87.8827 80.1655 88.2053 80.2829 88.584C80.4002 88.9627 80.4589 89.3813 80.4589 89.84V95H79.0349V89.84C79.0349 89.2267 78.8935 88.752 78.6109 88.416C78.3335 88.0747 77.9069 87.904 77.3309 87.904C76.9095 87.904 76.5149 88.0053 76.1469 88.208C75.7842 88.4107 75.4482 88.6853 75.1389 89.032V95H73.7149ZM89.4913 83.408C89.9766 83.408 90.4246 83.4773 90.8353 83.616C91.2459 83.7547 91.5979 83.952 91.8913 84.208C92.1899 84.464 92.4219 84.7733 92.5873 85.136C92.7526 85.4987 92.8353 85.9013 92.8353 86.344C92.8353 86.7067 92.7873 87.032 92.6913 87.32C92.6006 87.6027 92.4673 87.8533 92.2913 88.072C92.1206 88.2853 91.9126 88.4667 91.6673 88.616C91.4219 88.7653 91.1473 88.8853 90.8433 88.976C91.5899 89.1733 92.1499 89.504 92.5233 89.968C92.9019 90.432 93.0913 91.0133 93.0913 91.712C93.0913 92.24 92.9899 92.7147 92.7873 93.136C92.5899 93.5573 92.3179 93.9173 91.9713 94.216C91.6246 94.5093 91.2193 94.736 90.7553 94.896C90.2966 95.0507 89.8033 95.128 89.2753 95.128C88.6673 95.128 88.1473 95.0533 87.7153 94.904C87.2833 94.7493 86.9179 94.5387 86.6193 94.272C86.3206 94.0053 86.0753 93.6907 85.8833 93.328C85.6913 92.96 85.5286 92.5627 85.3953 92.136L86.0033 91.88C86.1153 91.832 86.2273 91.808 86.3393 91.808C86.4459 91.808 86.5393 91.832 86.6193 91.88C86.7046 91.9227 86.7686 91.992 86.8113 92.088C86.8219 92.1093 86.8326 92.1333 86.8433 92.16C86.8539 92.1813 86.8646 92.2053 86.8753 92.232C86.9499 92.3867 87.0406 92.5627 87.1473 92.76C87.2539 92.952 87.3979 93.1333 87.5793 93.304C87.7606 93.4747 87.9846 93.6187 88.2513 93.736C88.5233 93.8533 88.8593 93.912 89.2593 93.912C89.6593 93.912 90.0086 93.848 90.3073 93.72C90.6113 93.5867 90.8619 93.416 91.0593 93.208C91.2619 93 91.4139 92.768 91.5153 92.512C91.6166 92.256 91.6673 92.0027 91.6673 91.752C91.6673 91.4427 91.6246 91.16 91.5393 90.904C91.4593 90.648 91.3099 90.4267 91.0913 90.24C90.8779 90.0533 90.5793 89.9067 90.1953 89.8C89.8166 89.6933 89.3286 89.64 88.7313 89.64V88.608C89.2166 88.6027 89.6299 88.5493 89.9713 88.448C90.3179 88.3467 90.6006 88.208 90.8193 88.032C91.0379 87.856 91.1953 87.6453 91.2913 87.4C91.3926 87.1547 91.4433 86.8827 91.4433 86.584C91.4433 86.2533 91.3899 85.9653 91.2833 85.72C91.1819 85.4747 91.0406 85.272 90.8593 85.112C90.6779 84.952 90.4619 84.832 90.2113 84.752C89.9659 84.672 89.6993 84.632 89.4113 84.632C89.1233 84.632 88.8566 84.6747 88.6113 84.76C88.3659 84.8453 88.1473 84.9653 87.9553 85.12C87.7686 85.2693 87.6113 85.4507 87.4833 85.664C87.3553 85.872 87.2593 86.0987 87.1953 86.344C87.1526 86.4987 87.0886 86.6107 87.0033 86.68C86.9179 86.7493 86.8086 86.784 86.6753 86.784C86.6486 86.784 86.6193 86.784 86.5872 86.784C86.5606 86.7787 86.5286 86.7733 86.4913 86.768L85.7473 86.64C85.8219 86.1173 85.9659 85.656 86.1793 85.256C86.3926 84.8507 86.6619 84.512 86.9873 84.24C87.3179 83.968 87.6939 83.7627 88.1153 83.624C88.5419 83.48 89.0006 83.408 89.4913 83.408Z" fill="black"/>
<circle cx="11" cy="89" r="10" fill="white" stroke="#D8D8D8" stroke-width="2"/>
<path d="M44.04 11.272C44.04 12.1307 43.904 12.92 43.632 13.64C43.36 14.3547 42.976 14.9707 42.48 15.488C41.984 16.0053 41.3867 16.408 40.688 16.696C39.9947 16.9787 39.2267 17.12 38.384 17.12C37.5413 17.12 36.7733 16.9787 36.08 16.696C35.3867 16.408 34.792 16.0053 34.296 15.488C33.8 14.9707 33.416 14.3547 33.144 13.64C32.872 12.92 32.736 12.1307 32.736 11.272C32.736 10.4133 32.872 9.62667 33.144 8.912C33.416 8.192 33.8 7.57333 34.296 7.056C34.792 6.53333 35.3867 6.128 36.08 5.84C36.7733 5.552 37.5413 5.408 38.384 5.408C39.2267 5.408 39.9947 5.552 40.688 5.84C41.3867 6.128 41.984 6.53333 42.48 7.056C42.976 7.57333 43.36 8.192 43.632 8.912C43.904 9.62667 44.04 10.4133 44.04 11.272ZM42.448 11.272C42.448 10.568 42.352 9.936 42.16 9.376C41.968 8.816 41.696 8.344 41.344 7.96C40.992 7.57067 40.5653 7.272 40.064 7.064C39.5627 6.856 39.0027 6.752 38.384 6.752C37.7707 6.752 37.2133 6.856 36.712 7.064C36.2107 7.272 35.7813 7.57067 35.424 7.96C35.072 8.344 34.8 8.816 34.608 9.376C34.416 9.936 34.32 10.568 34.32 11.272C34.32 11.976 34.416 12.608 34.608 13.168C34.8 13.7227 35.072 14.1947 35.424 14.584C35.7813 14.968 36.2107 15.264 36.712 15.472C37.2133 15.6747 37.7707 15.776 38.384 15.776C39.0027 15.776 39.5627 15.6747 40.064 15.472C40.5653 15.264 40.992 14.968 41.344 14.584C41.696 14.1947 41.968 13.7227 42.16 13.168C42.352 12.608 42.448 11.976 42.448 11.272ZM45.9336 19.744V8.896H46.7816C46.9843 8.896 47.1123 8.99467 47.1656 9.192L47.2856 10.152C47.6323 9.73067 48.027 9.392 48.4696 9.136C48.9176 8.88 49.4323 8.752 50.0136 8.752C50.4776 8.752 50.899 8.84267 51.2776 9.024C51.6563 9.2 51.979 9.464 52.2456 9.816C52.5123 10.1627 52.7176 10.5947 52.8616 11.112C53.0056 11.6293 53.0776 12.224 53.0776 12.896C53.0776 13.4933 52.9976 14.0507 52.8376 14.568C52.6776 15.08 52.4483 15.5253 52.1496 15.904C51.851 16.2773 51.483 16.5733 51.0456 16.792C50.6136 17.0053 50.1256 17.112 49.5816 17.112C49.0803 17.112 48.651 17.0293 48.2936 16.864C47.9416 16.6987 47.6296 16.464 47.3576 16.16V19.744H45.9336ZM49.5416 9.904C49.0776 9.904 48.6696 10.0107 48.3176 10.224C47.971 10.4373 47.651 10.7387 47.3576 11.128V15.048C47.619 15.4 47.9043 15.648 48.2136 15.792C48.5283 15.936 48.8776 16.008 49.2616 16.008C50.0136 16.008 50.5923 15.7387 50.9976 15.2C51.403 14.6613 51.6056 13.8933 51.6056 12.896C51.6056 12.368 51.5576 11.9147 51.4616 11.536C51.371 11.1573 51.2376 10.848 51.0616 10.608C50.8856 10.3627 50.6696 10.184 50.4136 10.072C50.1576 9.96 49.867 9.904 49.5416 9.904ZM57.2178 17.128C56.5778 17.128 56.0844 16.9493 55.7378 16.592C55.3964 16.2347 55.2258 15.72 55.2258 15.048V10.088H54.2498C54.1644 10.088 54.0924 10.064 54.0338 10.016C53.9751 9.96267 53.9458 9.88267 53.9458 9.776V9.208L55.2738 9.04L55.6018 6.536C55.6124 6.456 55.6471 6.392 55.7057 6.344C55.7644 6.29067 55.8391 6.264 55.9298 6.264H56.6498V9.056H58.9698V10.088H56.6498V14.952C56.6498 15.2933 56.7324 15.5467 56.8978 15.712C57.0631 15.8773 57.2764 15.96 57.5378 15.96C57.6871 15.96 57.8151 15.9413 57.9218 15.904C58.0338 15.8613 58.1298 15.816 58.2098 15.768C58.2898 15.72 58.3564 15.6773 58.4098 15.64C58.4684 15.5973 58.5191 15.576 58.5618 15.576C58.6364 15.576 58.7031 15.6213 58.7618 15.712L59.1778 16.392C58.9324 16.6213 58.6364 16.8027 58.2898 16.936C57.9431 17.064 57.5858 17.128 57.2178 17.128ZM62.3145 8.896V17H60.8905V8.896H62.3145ZM62.6345 6.352C62.6345 6.49067 62.6052 6.62133 62.5465 6.744C62.4932 6.86133 62.4185 6.968 62.3225 7.064C62.2318 7.15467 62.1252 7.22667 62.0025 7.28C61.8798 7.33333 61.7492 7.36 61.6105 7.36C61.4718 7.36 61.3412 7.33333 61.2185 7.28C61.1012 7.22667 60.9945 7.15467 60.8985 7.064C60.8078 6.968 60.7358 6.86133 60.6825 6.744C60.6292 6.62133 60.6025 6.49067 60.6025 6.352C60.6025 6.21333 60.6292 6.08267 60.6825 5.96C60.7358 5.832 60.8078 5.72267 60.8985 5.632C60.9945 5.536 61.1012 5.46133 61.2185 5.408C61.3412 5.35467 61.4718 5.328 61.6105 5.328C61.7492 5.328 61.8798 5.35467 62.0025 5.408C62.1252 5.46133 62.2318 5.536 62.3225 5.632C62.4185 5.72267 62.4932 5.832 62.5465 5.96C62.6052 6.08267 62.6345 6.21333 62.6345 6.352ZM68.1043 8.768C68.6963 8.768 69.2296 8.86667 69.7043 9.064C70.1843 9.26133 70.5896 9.54133 70.9203 9.904C71.2563 10.2667 71.5123 10.7067 71.6883 11.224C71.8696 11.736 71.9603 12.3093 71.9603 12.944C71.9603 13.584 71.8696 14.16 71.6883 14.672C71.5123 15.184 71.2563 15.6213 70.9203 15.984C70.5896 16.3467 70.1843 16.6267 69.7043 16.824C69.2296 17.016 68.6963 17.112 68.1043 17.112C67.5123 17.112 66.9763 17.016 66.4963 16.824C66.0216 16.6267 65.6163 16.3467 65.2803 15.984C64.9443 15.6213 64.6856 15.184 64.5043 14.672C64.3229 14.16 64.2323 13.584 64.2323 12.944C64.2323 12.3093 64.3229 11.736 64.5043 11.224C64.6856 10.7067 64.9443 10.2667 65.2803 9.904C65.6163 9.54133 66.0216 9.26133 66.4963 9.064C66.9763 8.86667 67.5123 8.768 68.1043 8.768ZM68.1043 16C68.9043 16 69.5016 15.7333 69.8963 15.2C70.2909 14.6613 70.4883 13.912 70.4883 12.952C70.4883 11.9867 70.2909 11.2347 69.8963 10.696C69.5016 10.1573 68.9043 9.888 68.1043 9.888C67.6989 9.888 67.3469 9.95733 67.0483 10.096C66.7496 10.2347 66.4989 10.4347 66.2963 10.696C66.0989 10.9573 65.9496 11.28 65.8483 11.664C65.7523 12.0427 65.7043 12.472 65.7043 12.952C65.7043 13.432 65.7523 13.8613 65.8483 14.24C65.9496 14.6187 66.0989 14.9387 66.2963 15.2C66.4989 15.456 66.7496 15.6533 67.0483 15.792C67.3469 15.9307 67.6989 16 68.1043 16ZM73.7149 17V8.896H74.5629C74.7655 8.896 74.8935 8.99467 74.9469 9.192L75.0589 10.072C75.4109 9.68267 75.8029 9.368 76.2349 9.128C76.6722 8.888 77.1762 8.768 77.7469 8.768C78.1895 8.768 78.5789 8.84267 78.9149 8.992C79.2562 9.136 79.5389 9.344 79.7629 9.616C79.9922 9.88267 80.1655 10.2053 80.2829 10.584C80.4002 10.9627 80.4589 11.3813 80.4589 11.84V17H79.0349V11.84C79.0349 11.2267 78.8935 10.752 78.6109 10.416C78.3335 10.0747 77.9069 9.904 77.3309 9.904C76.9095 9.904 76.5149 10.0053 76.1469 10.208C75.7842 10.4107 75.4482 10.6853 75.1389 11.032V17H73.7149ZM86.8273 15.912H89.2913V8.096C89.2913 7.86133 89.2993 7.624 89.3153 7.384L87.2673 9.136C87.2139 9.17867 87.1606 9.21067 87.1073 9.232C87.0539 9.248 87.0033 9.256 86.9553 9.256C86.8753 9.256 86.8033 9.24 86.7393 9.208C86.6753 9.17067 86.6273 9.128 86.5953 9.08L86.1473 8.464L89.5553 5.512H90.7153V15.912H92.9713V17H86.8273V15.912Z" fill="black"/>
<circle cx="11" cy="11" r="10" fill="white" stroke="#D8D8D8" stroke-width="2"/>
<circle cx="11" cy="11" r="8" fill="white" stroke="#0064D1" stroke-width="6"/>
</svg>
