<svg width="130" height="103" viewBox="0 0 130 103" fill="none" xmlns="http://www.w3.org/2000/svg">
<path d="M41.04 41.272C41.04 42.1307 40.904 42.92 40.632 43.64C40.36 44.3547 39.976 44.9707 39.48 45.488C38.984 46.0053 38.3867 46.408 37.688 46.696C36.9947 46.9787 36.2267 47.12 35.384 47.12C34.5413 47.12 33.7733 46.9787 33.08 46.696C32.3867 46.408 31.792 46.0053 31.296 45.488C30.8 44.9707 30.416 44.3547 30.144 43.64C29.872 42.92 29.736 42.1307 29.736 41.272C29.736 40.4133 29.872 39.6267 30.144 38.912C30.416 38.192 30.8 37.5733 31.296 37.056C31.792 36.5333 32.3867 36.128 33.08 35.84C33.7733 35.552 34.5413 35.408 35.384 35.408C36.2267 35.408 36.9947 35.552 37.688 35.84C38.3867 36.128 38.984 36.5333 39.48 37.056C39.976 37.5733 40.36 38.192 40.632 38.912C40.904 39.6267 41.04 40.4133 41.04 41.272ZM39.448 41.272C39.448 40.568 39.352 39.936 39.16 39.376C38.968 38.816 38.696 38.344 38.344 37.96C37.992 37.5707 37.5653 37.272 37.064 37.064C36.5627 36.856 36.0027 36.752 35.384 36.752C34.7707 36.752 34.2133 36.856 33.712 37.064C33.2107 37.272 32.7813 37.5707 32.424 37.96C32.072 38.344 31.8 38.816 31.608 39.376C31.416 39.936 31.32 40.568 31.32 41.272C31.32 41.976 31.416 42.608 31.608 43.168C31.8 43.7227 32.072 44.1947 32.424 44.584C32.7813 44.968 33.2107 45.264 33.712 45.472C34.2133 45.6747 34.7707 45.776 35.384 45.776C36.0027 45.776 36.5627 45.6747 37.064 45.472C37.5653 45.264 37.992 44.968 38.344 44.584C38.696 44.1947 38.968 43.7227 39.16 43.168C39.352 42.608 39.448 41.976 39.448 41.272ZM42.9336 49.744V38.896H43.7816C43.9843 38.896 44.1123 38.9947 44.1656 39.192L44.2856 40.152C44.6323 39.7307 45.027 39.392 45.4696 39.136C45.9176 38.88 46.4323 38.752 47.0136 38.752C47.4776 38.752 47.899 38.8427 48.2776 39.024C48.6563 39.2 48.979 39.464 49.2456 39.816C49.5123 40.1627 49.7176 40.5947 49.8616 41.112C50.0056 41.6293 50.0776 42.224 50.0776 42.896C50.0776 43.4933 49.9976 44.0507 49.8376 44.568C49.6776 45.08 49.4483 45.5253 49.1496 45.904C48.851 46.2773 48.483 46.5733 48.0456 46.792C47.6136 47.0053 47.1256 47.112 46.5816 47.112C46.0803 47.112 45.651 47.0293 45.2936 46.864C44.9416 46.6987 44.6296 46.464 44.3576 46.16V49.744H42.9336ZM46.5416 39.904C46.0776 39.904 45.6696 40.0107 45.3176 40.224C44.971 40.4373 44.651 40.7387 44.3576 41.128V45.048C44.619 45.4 44.9043 45.648 45.2136 45.792C45.5283 45.936 45.8776 46.008 46.2616 46.008C47.0136 46.008 47.5923 45.7387 47.9976 45.2C48.403 44.6613 48.6056 43.8933 48.6056 42.896C48.6056 42.368 48.5576 41.9147 48.4616 41.536C48.371 41.1573 48.2376 40.848 48.0616 40.608C47.8856 40.3627 47.6696 40.184 47.4136 40.072C47.1576 39.96 46.867 39.904 46.5416 39.904ZM54.2178 47.128C53.5778 47.128 53.0844 46.9493 52.7378 46.592C52.3964 46.2347 52.2258 45.72 52.2258 45.048V40.088H51.2498C51.1644 40.088 51.0924 40.064 51.0338 40.016C50.9751 39.9627 50.9458 39.8827 50.9458 39.776V39.208L52.2738 39.04L52.6018 36.536C52.6124 36.456 52.6471 36.392 52.7057 36.344C52.7644 36.2907 52.8391 36.264 52.9298 36.264H53.6498V39.056H55.9698V40.088H53.6498V44.952C53.6498 45.2933 53.7324 45.5467 53.8978 45.712C54.0631 45.8773 54.2764 45.96 54.5378 45.96C54.6871 45.96 54.8151 45.9413 54.9218 45.904C55.0338 45.8613 55.1298 45.816 55.2098 45.768C55.2898 45.72 55.3564 45.6773 55.4098 45.64C55.4684 45.5973 55.5191 45.576 55.5618 45.576C55.6364 45.576 55.7031 45.6213 55.7618 45.712L56.1778 46.392C55.9324 46.6213 55.6364 46.8027 55.2898 46.936C54.9431 47.064 54.5858 47.128 54.2178 47.128ZM59.3145 38.896V47H57.8905V38.896H59.3145ZM59.6345 36.352C59.6345 36.4907 59.6052 36.6213 59.5465 36.744C59.4932 36.8613 59.4185 36.968 59.3225 37.064C59.2318 37.1547 59.1252 37.2267 59.0025 37.28C58.8798 37.3333 58.7492 37.36 58.6105 37.36C58.4718 37.36 58.3412 37.3333 58.2185 37.28C58.1012 37.2267 57.9945 37.1547 57.8985 37.064C57.8078 36.968 57.7358 36.8613 57.6825 36.744C57.6292 36.6213 57.6025 36.4907 57.6025 36.352C57.6025 36.2133 57.6292 36.0827 57.6825 35.96C57.7358 35.832 57.8078 35.7227 57.8985 35.632C57.9945 35.536 58.1012 35.4613 58.2185 35.408C58.3412 35.3547 58.4718 35.328 58.6105 35.328C58.7492 35.328 58.8798 35.3547 59.0025 35.408C59.1252 35.4613 59.2318 35.536 59.3225 35.632C59.4185 35.7227 59.4932 35.832 59.5465 35.96C59.6052 36.0827 59.6345 36.2133 59.6345 36.352ZM65.1043 38.768C65.6963 38.768 66.2296 38.8667 66.7043 39.064C67.1843 39.2613 67.5896 39.5413 67.9203 39.904C68.2563 40.2667 68.5123 40.7067 68.6883 41.224C68.8696 41.736 68.9603 42.3093 68.9603 42.944C68.9603 43.584 68.8696 44.16 68.6883 44.672C68.5123 45.184 68.2563 45.6213 67.9203 45.984C67.5896 46.3467 67.1843 46.6267 66.7043 46.824C66.2296 47.016 65.6963 47.112 65.1043 47.112C64.5123 47.112 63.9763 47.016 63.4963 46.824C63.0216 46.6267 62.6163 46.3467 62.2803 45.984C61.9443 45.6213 61.6856 45.184 61.5043 44.672C61.3229 44.16 61.2323 43.584 61.2323 42.944C61.2323 42.3093 61.3229 41.736 61.5043 41.224C61.6856 40.7067 61.9443 40.2667 62.2803 39.904C62.6163 39.5413 63.0216 39.2613 63.4963 39.064C63.9763 38.8667 64.5123 38.768 65.1043 38.768ZM65.1043 46C65.9043 46 66.5016 45.7333 66.8963 45.2C67.2909 44.6613 67.4883 43.912 67.4883 42.952C67.4883 41.9867 67.2909 41.2347 66.8963 40.696C66.5016 40.1573 65.9043 39.888 65.1043 39.888C64.6989 39.888 64.3469 39.9573 64.0483 40.096C63.7496 40.2347 63.4989 40.4347 63.2963 40.696C63.0989 40.9573 62.9496 41.28 62.8483 41.664C62.7523 42.0427 62.7043 42.472 62.7043 42.952C62.7043 43.432 62.7523 43.8613 62.8483 44.24C62.9496 44.6187 63.0989 44.9387 63.2963 45.2C63.4989 45.456 63.7496 45.6533 64.0483 45.792C64.3469 45.9307 64.6989 46 65.1043 46ZM70.7149 47V38.896H71.5629C71.7655 38.896 71.8935 38.9947 71.9469 39.192L72.0589 40.072C72.4109 39.6827 72.8029 39.368 73.2349 39.128C73.6722 38.888 74.1762 38.768 74.7469 38.768C75.1895 38.768 75.5789 38.8427 75.9149 38.992C76.2562 39.136 76.5389 39.344 76.7629 39.616C76.9922 39.8827 77.1655 40.2053 77.2829 40.584C77.4002 40.9627 77.4589 41.3813 77.4589 41.84V47H76.0349V41.84C76.0349 41.2267 75.8935 40.752 75.6109 40.416C75.3335 40.0747 74.9069 39.904 74.3309 39.904C73.9095 39.904 73.5149 40.0053 73.1469 40.208C72.7842 40.4107 72.4482 40.6853 72.1389 41.032V47H70.7149ZM86.3393 35.408C86.8246 35.408 87.2779 35.48 87.6993 35.624C88.1206 35.768 88.4833 35.9787 88.7873 36.256C89.0966 36.528 89.3393 36.8613 89.5153 37.256C89.6913 37.6507 89.7793 38.0987 89.7793 38.6C89.7793 39.0267 89.7153 39.4213 89.5873 39.784C89.4593 40.1467 89.2859 40.496 89.0673 40.832C88.8486 41.1627 88.5953 41.4853 88.3073 41.8C88.0246 42.1093 87.7233 42.4267 87.4033 42.752L84.3873 45.84C84.6006 45.7813 84.8166 45.736 85.0353 45.704C85.2539 45.6667 85.4646 45.648 85.6673 45.648H89.5073C89.6619 45.648 89.7846 45.6933 89.8753 45.784C89.9659 45.8747 90.0113 45.992 90.0113 46.136V47H82.3633V46.512C82.3633 46.4107 82.3819 46.3067 82.4193 46.2C82.4619 46.0933 82.5286 45.9947 82.6193 45.904L86.2913 42.216C86.5953 41.9067 86.8726 41.6107 87.1233 41.328C87.3739 41.04 87.5873 40.752 87.7633 40.464C87.9446 40.176 88.0833 39.8853 88.1793 39.592C88.2753 39.2933 88.3233 38.976 88.3233 38.64C88.3233 38.304 88.2699 38.0107 88.1633 37.76C88.0566 37.504 87.9099 37.2933 87.7233 37.128C87.5366 36.9627 87.3179 36.84 87.0673 36.76C86.8166 36.6747 86.5473 36.632 86.2593 36.632C85.9713 36.632 85.7046 36.6747 85.4593 36.76C85.2139 36.8453 84.9953 36.9653 84.8033 37.12C84.6166 37.2693 84.4566 37.448 84.3233 37.656C84.1953 37.864 84.1046 38.0933 84.0513 38.344C84.0086 38.4987 83.9446 38.6107 83.8593 38.68C83.7739 38.7493 83.6619 38.784 83.5233 38.784C83.4966 38.784 83.4673 38.784 83.4353 38.784C83.4086 38.7787 83.3766 38.7733 83.3393 38.768L82.5953 38.64C82.6699 38.1173 82.8139 37.656 83.0273 37.256C83.2406 36.8507 83.5099 36.512 83.8353 36.24C84.1659 35.968 84.5419 35.7627 84.9633 35.624C85.3899 35.48 85.8486 35.408 86.3393 35.408Z" fill="black"/>
<circle cx="11" cy="41" r="10.5" fill="white" stroke="#D8D8D8"/>
<path d="M41.04 71.272C41.04 72.1307 40.904 72.92 40.632 73.64C40.36 74.3547 39.976 74.9707 39.48 75.488C38.984 76.0053 38.3867 76.408 37.688 76.696C36.9947 76.9787 36.2267 77.12 35.384 77.12C34.5413 77.12 33.7733 76.9787 33.08 76.696C32.3867 76.408 31.792 76.0053 31.296 75.488C30.8 74.9707 30.416 74.3547 30.144 73.64C29.872 72.92 29.736 72.1307 29.736 71.272C29.736 70.4133 29.872 69.6267 30.144 68.912C30.416 68.192 30.8 67.5733 31.296 67.056C31.792 66.5333 32.3867 66.128 33.08 65.84C33.7733 65.552 34.5413 65.408 35.384 65.408C36.2267 65.408 36.9947 65.552 37.688 65.84C38.3867 66.128 38.984 66.5333 39.48 67.056C39.976 67.5733 40.36 68.192 40.632 68.912C40.904 69.6267 41.04 70.4133 41.04 71.272ZM39.448 71.272C39.448 70.568 39.352 69.936 39.16 69.376C38.968 68.816 38.696 68.344 38.344 67.96C37.992 67.5707 37.5653 67.272 37.064 67.064C36.5627 66.856 36.0027 66.752 35.384 66.752C34.7707 66.752 34.2133 66.856 33.712 67.064C33.2107 67.272 32.7813 67.5707 32.424 67.96C32.072 68.344 31.8 68.816 31.608 69.376C31.416 69.936 31.32 70.568 31.32 71.272C31.32 71.976 31.416 72.608 31.608 73.168C31.8 73.7227 32.072 74.1947 32.424 74.584C32.7813 74.968 33.2107 75.264 33.712 75.472C34.2133 75.6747 34.7707 75.776 35.384 75.776C36.0027 75.776 36.5627 75.6747 37.064 75.472C37.5653 75.264 37.992 74.968 38.344 74.584C38.696 74.1947 38.968 73.7227 39.16 73.168C39.352 72.608 39.448 71.976 39.448 71.272ZM42.9336 79.744V68.896H43.7816C43.9843 68.896 44.1123 68.9947 44.1656 69.192L44.2856 70.152C44.6323 69.7307 45.027 69.392 45.4696 69.136C45.9176 68.88 46.4323 68.752 47.0136 68.752C47.4776 68.752 47.899 68.8427 48.2776 69.024C48.6563 69.2 48.979 69.464 49.2456 69.816C49.5123 70.1627 49.7176 70.5947 49.8616 71.112C50.0056 71.6293 50.0776 72.224 50.0776 72.896C50.0776 73.4933 49.9976 74.0507 49.8376 74.568C49.6776 75.08 49.4483 75.5253 49.1496 75.904C48.851 76.2773 48.483 76.5733 48.0456 76.792C47.6136 77.0053 47.1256 77.112 46.5816 77.112C46.0803 77.112 45.651 77.0293 45.2936 76.864C44.9416 76.6987 44.6296 76.464 44.3576 76.16V79.744H42.9336ZM46.5416 69.904C46.0776 69.904 45.6696 70.0107 45.3176 70.224C44.971 70.4373 44.651 70.7387 44.3576 71.128V75.048C44.619 75.4 44.9043 75.648 45.2136 75.792C45.5283 75.936 45.8776 76.008 46.2616 76.008C47.0136 76.008 47.5923 75.7387 47.9976 75.2C48.403 74.6613 48.6056 73.8933 48.6056 72.896C48.6056 72.368 48.5576 71.9147 48.4616 71.536C48.371 71.1573 48.2376 70.848 48.0616 70.608C47.8856 70.3627 47.6696 70.184 47.4136 70.072C47.1576 69.96 46.867 69.904 46.5416 69.904ZM54.2178 77.128C53.5778 77.128 53.0844 76.9493 52.7378 76.592C52.3964 76.2347 52.2258 75.72 52.2258 75.048V70.088H51.2498C51.1644 70.088 51.0924 70.064 51.0338 70.016C50.9751 69.9627 50.9458 69.8827 50.9458 69.776V69.208L52.2738 69.04L52.6018 66.536C52.6124 66.456 52.6471 66.392 52.7057 66.344C52.7644 66.2907 52.8391 66.264 52.9298 66.264H53.6498V69.056H55.9698V70.088H53.6498V74.952C53.6498 75.2933 53.7324 75.5467 53.8978 75.712C54.0631 75.8773 54.2764 75.96 54.5378 75.96C54.6871 75.96 54.8151 75.9413 54.9218 75.904C55.0338 75.8613 55.1298 75.816 55.2098 75.768C55.2898 75.72 55.3564 75.6773 55.4098 75.64C55.4684 75.5973 55.5191 75.576 55.5618 75.576C55.6364 75.576 55.7031 75.6213 55.7618 75.712L56.1778 76.392C55.9324 76.6213 55.6364 76.8027 55.2898 76.936C54.9431 77.064 54.5858 77.128 54.2178 77.128ZM59.3145 68.896V77H57.8905V68.896H59.3145ZM59.6345 66.352C59.6345 66.4907 59.6052 66.6213 59.5465 66.744C59.4932 66.8613 59.4185 66.968 59.3225 67.064C59.2318 67.1547 59.1252 67.2267 59.0025 67.28C58.8798 67.3333 58.7492 67.36 58.6105 67.36C58.4718 67.36 58.3412 67.3333 58.2185 67.28C58.1012 67.2267 57.9945 67.1547 57.8985 67.064C57.8078 66.968 57.7358 66.8613 57.6825 66.744C57.6292 66.6213 57.6025 66.4907 57.6025 66.352C57.6025 66.2133 57.6292 66.0827 57.6825 65.96C57.7358 65.832 57.8078 65.7227 57.8985 65.632C57.9945 65.536 58.1012 65.4613 58.2185 65.408C58.3412 65.3547 58.4718 65.328 58.6105 65.328C58.7492 65.328 58.8798 65.3547 59.0025 65.408C59.1252 65.4613 59.2318 65.536 59.3225 65.632C59.4185 65.7227 59.4932 65.832 59.5465 65.96C59.6052 66.0827 59.6345 66.2133 59.6345 66.352ZM65.1043 68.768C65.6963 68.768 66.2296 68.8667 66.7043 69.064C67.1843 69.2613 67.5896 69.5413 67.9203 69.904C68.2563 70.2667 68.5123 70.7067 68.6883 71.224C68.8696 71.736 68.9603 72.3093 68.9603 72.944C68.9603 73.584 68.8696 74.16 68.6883 74.672C68.5123 75.184 68.2563 75.6213 67.9203 75.984C67.5896 76.3467 67.1843 76.6267 66.7043 76.824C66.2296 77.016 65.6963 77.112 65.1043 77.112C64.5123 77.112 63.9763 77.016 63.4963 76.824C63.0216 76.6267 62.6163 76.3467 62.2803 75.984C61.9443 75.6213 61.6856 75.184 61.5043 74.672C61.3229 74.16 61.2323 73.584 61.2323 72.944C61.2323 72.3093 61.3229 71.736 61.5043 71.224C61.6856 70.7067 61.9443 70.2667 62.2803 69.904C62.6163 69.5413 63.0216 69.2613 63.4963 69.064C63.9763 68.8667 64.5123 68.768 65.1043 68.768ZM65.1043 76C65.9043 76 66.5016 75.7333 66.8963 75.2C67.2909 74.6613 67.4883 73.912 67.4883 72.952C67.4883 71.9867 67.2909 71.2347 66.8963 70.696C66.5016 70.1573 65.9043 69.888 65.1043 69.888C64.6989 69.888 64.3469 69.9573 64.0483 70.096C63.7496 70.2347 63.4989 70.4347 63.2963 70.696C63.0989 70.9573 62.9496 71.28 62.8483 71.664C62.7523 72.0427 62.7043 72.472 62.7043 72.952C62.7043 73.432 62.7523 73.8613 62.8483 74.24C62.9496 74.6187 63.0989 74.9387 63.2963 75.2C63.4989 75.456 63.7496 75.6533 64.0483 75.792C64.3469 75.9307 64.6989 76 65.1043 76ZM70.7149 77V68.896H71.5629C71.7655 68.896 71.8935 68.9947 71.9469 69.192L72.0589 70.072C72.4109 69.6827 72.8029 69.368 73.2349 69.128C73.6722 68.888 74.1762 68.768 74.7469 68.768C75.1895 68.768 75.5789 68.8427 75.9149 68.992C76.2562 69.136 76.5389 69.344 76.7629 69.616C76.9922 69.8827 77.1655 70.2053 77.2829 70.584C77.4002 70.9627 77.4589 71.3813 77.4589 71.84V77H76.0349V71.84C76.0349 71.2267 75.8935 70.752 75.6109 70.416C75.3335 70.0747 74.9069 69.904 74.3309 69.904C73.9095 69.904 73.5149 70.0053 73.1469 70.208C72.7842 70.4107 72.4482 70.6853 72.1389 71.032V77H70.7149ZM86.4913 65.408C86.9766 65.408 87.4246 65.4773 87.8353 65.616C88.2459 65.7547 88.5979 65.952 88.8913 66.208C89.1899 66.464 89.4219 66.7733 89.5873 67.136C89.7526 67.4987 89.8353 67.9013 89.8353 68.344C89.8353 68.7067 89.7873 69.032 89.6913 69.32C89.6006 69.6027 89.4673 69.8533 89.2913 70.072C89.1206 70.2853 88.9126 70.4667 88.6673 70.616C88.4219 70.7653 88.1473 70.8853 87.8433 70.976C88.5899 71.1733 89.1499 71.504 89.5233 71.968C89.9019 72.432 90.0913 73.0133 90.0913 73.712C90.0913 74.24 89.9899 74.7147 89.7873 75.136C89.5899 75.5573 89.3179 75.9173 88.9713 76.216C88.6246 76.5093 88.2193 76.736 87.7553 76.896C87.2966 77.0507 86.8033 77.128 86.2753 77.128C85.6673 77.128 85.1473 77.0533 84.7153 76.904C84.2833 76.7493 83.9179 76.5387 83.6193 76.272C83.3206 76.0053 83.0753 75.6907 82.8833 75.328C82.6913 74.96 82.5286 74.5627 82.3953 74.136L83.0033 73.88C83.1153 73.832 83.2273 73.808 83.3393 73.808C83.4459 73.808 83.5393 73.832 83.6193 73.88C83.7046 73.9227 83.7686 73.992 83.8113 74.088C83.8219 74.1093 83.8326 74.1333 83.8433 74.16C83.8539 74.1813 83.8646 74.2053 83.8753 74.232C83.9499 74.3867 84.0406 74.5627 84.1473 74.76C84.2539 74.952 84.3979 75.1333 84.5793 75.304C84.7606 75.4747 84.9846 75.6187 85.2513 75.736C85.5233 75.8533 85.8593 75.912 86.2593 75.912C86.6593 75.912 87.0086 75.848 87.3073 75.72C87.6113 75.5867 87.8619 75.416 88.0593 75.208C88.2619 75 88.4139 74.768 88.5153 74.512C88.6166 74.256 88.6673 74.0027 88.6673 73.752C88.6673 73.4427 88.6246 73.16 88.5393 72.904C88.4593 72.648 88.3099 72.4267 88.0913 72.24C87.8779 72.0533 87.5793 71.9067 87.1953 71.8C86.8166 71.6933 86.3286 71.64 85.7313 71.64V70.608C86.2166 70.6027 86.6299 70.5493 86.9713 70.448C87.3179 70.3467 87.6006 70.208 87.8193 70.032C88.0379 69.856 88.1953 69.6453 88.2913 69.4C88.3926 69.1547 88.4433 68.8827 88.4433 68.584C88.4433 68.2533 88.3899 67.9653 88.2833 67.72C88.1819 67.4747 88.0406 67.272 87.8593 67.112C87.6779 66.952 87.4619 66.832 87.2113 66.752C86.9659 66.672 86.6993 66.632 86.4113 66.632C86.1233 66.632 85.8566 66.6747 85.6113 66.76C85.3659 66.8453 85.1473 66.9653 84.9553 67.12C84.7686 67.2693 84.6113 67.4507 84.4833 67.664C84.3553 67.872 84.2593 68.0987 84.1953 68.344C84.1526 68.4987 84.0886 68.6107 84.0033 68.68C83.9179 68.7493 83.8086 68.784 83.6753 68.784C83.6486 68.784 83.6193 68.784 83.5872 68.784C83.5606 68.7787 83.5286 68.7733 83.4913 68.768L82.7473 68.64C82.8219 68.1173 82.9659 67.656 83.1793 67.256C83.3926 66.8507 83.6619 66.512 83.9873 66.24C84.3179 65.968 84.6939 65.7627 85.1153 65.624C85.5419 65.48 86.0006 65.408 86.4913 65.408Z" fill="black"/>
<circle cx="11" cy="71" r="10.5" fill="white" stroke="#D8D8D8"/>
<path d="M41.04 11.272C41.04 12.1307 40.904 12.92 40.632 13.64C40.36 14.3547 39.976 14.9707 39.48 15.488C38.984 16.0053 38.3867 16.408 37.688 16.696C36.9947 16.9787 36.2267 17.12 35.384 17.12C34.5413 17.12 33.7733 16.9787 33.08 16.696C32.3867 16.408 31.792 16.0053 31.296 15.488C30.8 14.9707 30.416 14.3547 30.144 13.64C29.872 12.92 29.736 12.1307 29.736 11.272C29.736 10.4133 29.872 9.62667 30.144 8.912C30.416 8.192 30.8 7.57333 31.296 7.056C31.792 6.53333 32.3867 6.128 33.08 5.84C33.7733 5.552 34.5413 5.408 35.384 5.408C36.2267 5.408 36.9947 5.552 37.688 5.84C38.3867 6.128 38.984 6.53333 39.48 7.056C39.976 7.57333 40.36 8.192 40.632 8.912C40.904 9.62667 41.04 10.4133 41.04 11.272ZM39.448 11.272C39.448 10.568 39.352 9.936 39.16 9.376C38.968 8.816 38.696 8.344 38.344 7.96C37.992 7.57067 37.5653 7.272 37.064 7.064C36.5627 6.856 36.0027 6.752 35.384 6.752C34.7707 6.752 34.2133 6.856 33.712 7.064C33.2107 7.272 32.7813 7.57067 32.424 7.96C32.072 8.344 31.8 8.816 31.608 9.376C31.416 9.936 31.32 10.568 31.32 11.272C31.32 11.976 31.416 12.608 31.608 13.168C31.8 13.7227 32.072 14.1947 32.424 14.584C32.7813 14.968 33.2107 15.264 33.712 15.472C34.2133 15.6747 34.7707 15.776 35.384 15.776C36.0027 15.776 36.5627 15.6747 37.064 15.472C37.5653 15.264 37.992 14.968 38.344 14.584C38.696 14.1947 38.968 13.7227 39.16 13.168C39.352 12.608 39.448 11.976 39.448 11.272ZM42.9336 19.744V8.896H43.7816C43.9843 8.896 44.1123 8.99467 44.1656 9.192L44.2856 10.152C44.6323 9.73067 45.027 9.392 45.4696 9.136C45.9176 8.88 46.4323 8.752 47.0136 8.752C47.4776 8.752 47.899 8.84267 48.2776 9.024C48.6563 9.2 48.979 9.464 49.2456 9.816C49.5123 10.1627 49.7176 10.5947 49.8616 11.112C50.0056 11.6293 50.0776 12.224 50.0776 12.896C50.0776 13.4933 49.9976 14.0507 49.8376 14.568C49.6776 15.08 49.4483 15.5253 49.1496 15.904C48.851 16.2773 48.483 16.5733 48.0456 16.792C47.6136 17.0053 47.1256 17.112 46.5816 17.112C46.0803 17.112 45.651 17.0293 45.2936 16.864C44.9416 16.6987 44.6296 16.464 44.3576 16.16V19.744H42.9336ZM46.5416 9.904C46.0776 9.904 45.6696 10.0107 45.3176 10.224C44.971 10.4373 44.651 10.7387 44.3576 11.128V15.048C44.619 15.4 44.9043 15.648 45.2136 15.792C45.5283 15.936 45.8776 16.008 46.2616 16.008C47.0136 16.008 47.5923 15.7387 47.9976 15.2C48.403 14.6613 48.6056 13.8933 48.6056 12.896C48.6056 12.368 48.5576 11.9147 48.4616 11.536C48.371 11.1573 48.2376 10.848 48.0616 10.608C47.8856 10.3627 47.6696 10.184 47.4136 10.072C47.1576 9.96 46.867 9.904 46.5416 9.904ZM54.2178 17.128C53.5778 17.128 53.0844 16.9493 52.7378 16.592C52.3964 16.2347 52.2258 15.72 52.2258 15.048V10.088H51.2498C51.1644 10.088 51.0924 10.064 51.0338 10.016C50.9751 9.96267 50.9458 9.88267 50.9458 9.776V9.208L52.2738 9.04L52.6018 6.536C52.6124 6.456 52.6471 6.392 52.7057 6.344C52.7644 6.29067 52.8391 6.264 52.9298 6.264H53.6498V9.056H55.9698V10.088H53.6498V14.952C53.6498 15.2933 53.7324 15.5467 53.8978 15.712C54.0631 15.8773 54.2764 15.96 54.5378 15.96C54.6871 15.96 54.8151 15.9413 54.9218 15.904C55.0338 15.8613 55.1298 15.816 55.2098 15.768C55.2898 15.72 55.3564 15.6773 55.4098 15.64C55.4684 15.5973 55.5191 15.576 55.5618 15.576C55.6364 15.576 55.7031 15.6213 55.7618 15.712L56.1778 16.392C55.9324 16.6213 55.6364 16.8027 55.2898 16.936C54.9431 17.064 54.5858 17.128 54.2178 17.128ZM59.3145 8.896V17H57.8905V8.896H59.3145ZM59.6345 6.352C59.6345 6.49067 59.6052 6.62133 59.5465 6.744C59.4932 6.86133 59.4185 6.968 59.3225 7.064C59.2318 7.15467 59.1252 7.22667 59.0025 7.28C58.8798 7.33333 58.7492 7.36 58.6105 7.36C58.4718 7.36 58.3412 7.33333 58.2185 7.28C58.1012 7.22667 57.9945 7.15467 57.8985 7.064C57.8078 6.968 57.7358 6.86133 57.6825 6.744C57.6292 6.62133 57.6025 6.49067 57.6025 6.352C57.6025 6.21333 57.6292 6.08267 57.6825 5.96C57.7358 5.832 57.8078 5.72267 57.8985 5.632C57.9945 5.536 58.1012 5.46133 58.2185 5.408C58.3412 5.35467 58.4718 5.328 58.6105 5.328C58.7492 5.328 58.8798 5.35467 59.0025 5.408C59.1252 5.46133 59.2318 5.536 59.3225 5.632C59.4185 5.72267 59.4932 5.832 59.5465 5.96C59.6052 6.08267 59.6345 6.21333 59.6345 6.352ZM65.1043 8.768C65.6963 8.768 66.2296 8.86667 66.7043 9.064C67.1843 9.26133 67.5896 9.54133 67.9203 9.904C68.2563 10.2667 68.5123 10.7067 68.6883 11.224C68.8696 11.736 68.9603 12.3093 68.9603 12.944C68.9603 13.584 68.8696 14.16 68.6883 14.672C68.5123 15.184 68.2563 15.6213 67.9203 15.984C67.5896 16.3467 67.1843 16.6267 66.7043 16.824C66.2296 17.016 65.6963 17.112 65.1043 17.112C64.5123 17.112 63.9763 17.016 63.4963 16.824C63.0216 16.6267 62.6163 16.3467 62.2803 15.984C61.9443 15.6213 61.6856 15.184 61.5043 14.672C61.3229 14.16 61.2323 13.584 61.2323 12.944C61.2323 12.3093 61.3229 11.736 61.5043 11.224C61.6856 10.7067 61.9443 10.2667 62.2803 9.904C62.6163 9.54133 63.0216 9.26133 63.4963 9.064C63.9763 8.86667 64.5123 8.768 65.1043 8.768ZM65.1043 16C65.9043 16 66.5016 15.7333 66.8963 15.2C67.2909 14.6613 67.4883 13.912 67.4883 12.952C67.4883 11.9867 67.2909 11.2347 66.8963 10.696C66.5016 10.1573 65.9043 9.888 65.1043 9.888C64.6989 9.888 64.3469 9.95733 64.0483 10.096C63.7496 10.2347 63.4989 10.4347 63.2963 10.696C63.0989 10.9573 62.9496 11.28 62.8483 11.664C62.7523 12.0427 62.7043 12.472 62.7043 12.952C62.7043 13.432 62.7523 13.8613 62.8483 14.24C62.9496 14.6187 63.0989 14.9387 63.2963 15.2C63.4989 15.456 63.7496 15.6533 64.0483 15.792C64.3469 15.9307 64.6989 16 65.1043 16ZM70.7149 17V8.896H71.5629C71.7655 8.896 71.8935 8.99467 71.9469 9.192L72.0589 10.072C72.4109 9.68267 72.8029 9.368 73.2349 9.128C73.6722 8.888 74.1762 8.768 74.7469 8.768C75.1895 8.768 75.5789 8.84267 75.9149 8.992C76.2562 9.136 76.5389 9.344 76.7629 9.616C76.9922 9.88267 77.1655 10.2053 77.2829 10.584C77.4002 10.9627 77.4589 11.3813 77.4589 11.84V17H76.0349V11.84C76.0349 11.2267 75.8935 10.752 75.6109 10.416C75.3335 10.0747 74.9069 9.904 74.3309 9.904C73.9095 9.904 73.5149 10.0053 73.1469 10.208C72.7842 10.4107 72.4482 10.6853 72.1389 11.032V17H70.7149ZM83.8273 15.912H86.2913V8.096C86.2913 7.86133 86.2993 7.624 86.3153 7.384L84.2673 9.136C84.2139 9.17867 84.1606 9.21067 84.1073 9.232C84.0539 9.248 84.0033 9.256 83.9553 9.256C83.8753 9.256 83.8033 9.24 83.7393 9.208C83.6753 9.17067 83.6273 9.128 83.5953 9.08L83.1473 8.464L86.5553 5.512H87.7153V15.912H89.9713V17H83.8273V15.912Z" fill="black"/>
<circle cx="11" cy="11" r="10" fill="white" stroke="#D8D8D8" stroke-width="2"/>
<circle cx="11" cy="11" r="8" fill="white" stroke="#0064D1" stroke-width="6"/>
<path d="M9.352 100H7.987V95.436H2.583V100H1.218V89.969H2.583V94.442H7.987V89.969H9.352V100ZM14.411 92.797C14.8357 92.797 15.2277 92.8693 15.587 93.014C15.9464 93.154 16.2567 93.3593 16.518 93.63C16.7794 93.896 16.9824 94.2273 17.127 94.624C17.2764 95.016 17.351 95.464 17.351 95.968C17.351 96.164 17.33 96.2947 17.288 96.36C17.246 96.4253 17.1667 96.458 17.05 96.458H12.332C12.3414 96.906 12.402 97.2957 12.514 97.627C12.626 97.9583 12.78 98.236 12.976 98.46C13.172 98.6793 13.4054 98.845 13.676 98.957C13.9467 99.0643 14.25 99.118 14.586 99.118C14.8987 99.118 15.167 99.083 15.391 99.013C15.6197 98.9383 15.8157 98.859 15.979 98.775C16.1424 98.691 16.2777 98.614 16.385 98.544C16.497 98.4693 16.5927 98.432 16.672 98.432C16.7747 98.432 16.854 98.4717 16.91 98.551L17.26 99.006C17.106 99.1927 16.9217 99.356 16.707 99.496C16.4924 99.6313 16.2614 99.7433 16.014 99.832C15.7714 99.9207 15.5194 99.986 15.258 100.028C14.9967 100.075 14.7377 100.098 14.481 100.098C13.991 100.098 13.5384 100.016 13.123 99.853C12.7124 99.685 12.3554 99.4423 12.052 99.125C11.7534 98.803 11.52 98.4063 11.352 97.935C11.184 97.4637 11.1 96.9223 11.1 96.311C11.1 95.8163 11.1747 95.3543 11.324 94.925C11.478 94.4957 11.6974 94.1247 11.982 93.812C12.2667 93.4947 12.6144 93.2473 13.025 93.07C13.4357 92.888 13.8977 92.797 14.411 92.797ZM14.439 93.714C13.837 93.714 13.3634 93.889 13.018 94.239C12.6727 94.5843 12.458 95.065 12.374 95.681H16.231C16.231 95.3917 16.1914 95.128 16.112 94.89C16.0327 94.6473 15.916 94.4397 15.762 94.267C15.608 94.0897 15.419 93.9543 15.195 93.861C14.9757 93.763 14.7237 93.714 14.439 93.714ZM20.3318 89.689V100H19.0858V89.689H20.3318ZM22.5279 102.401V92.909H23.2699C23.4472 92.909 23.5592 92.9953 23.6059 93.168L23.7109 94.008C24.0142 93.6393 24.3595 93.343 24.7469 93.119C25.1389 92.895 25.5892 92.783 26.0979 92.783C26.5039 92.783 26.8725 92.8623 27.2039 93.021C27.5352 93.175 27.8175 93.406 28.0509 93.714C28.2842 94.0173 28.4639 94.3953 28.5899 94.848C28.7159 95.3007 28.7789 95.821 28.7789 96.409C28.7789 96.9317 28.7089 97.4193 28.5689 97.872C28.4289 98.32 28.2282 98.7097 27.9669 99.041C27.7055 99.3677 27.3835 99.6267 27.0009 99.818C26.6229 100.005 26.1959 100.098 25.7199 100.098C25.2812 100.098 24.9055 100.026 24.5929 99.881C24.2849 99.7363 24.0119 99.531 23.7739 99.265V102.401H22.5279ZM25.6849 93.791C25.2789 93.791 24.9219 93.8843 24.6139 94.071C24.3105 94.2577 24.0305 94.5213 23.7739 94.862V98.292C24.0025 98.6 24.2522 98.817 24.5229 98.943C24.7982 99.069 25.1039 99.132 25.4399 99.132C26.0979 99.132 26.6042 98.8963 26.9589 98.425C27.3135 97.9537 27.4909 97.2817 27.4909 96.409C27.4909 95.947 27.4489 95.5503 27.3649 95.219C27.2855 94.8877 27.1689 94.617 27.0149 94.407C26.8609 94.1923 26.6719 94.036 26.4479 93.938C26.2239 93.84 25.9695 93.791 25.6849 93.791ZM33.0595 92.797C33.4841 92.797 33.8761 92.8693 34.2355 93.014C34.5948 93.154 34.9051 93.3593 35.1665 93.63C35.4278 93.896 35.6308 94.2273 35.7755 94.624C35.9248 95.016 35.9995 95.464 35.9995 95.968C35.9995 96.164 35.9785 96.2947 35.9365 96.36C35.8945 96.4253 35.8151 96.458 35.6985 96.458H30.9805C30.9898 96.906 31.0505 97.2957 31.1625 97.627C31.2745 97.9583 31.4285 98.236 31.6245 98.46C31.8205 98.6793 32.0538 98.845 32.3245 98.957C32.5951 99.0643 32.8985 99.118 33.2345 99.118C33.5471 99.118 33.8155 99.083 34.0395 99.013C34.2681 98.9383 34.4641 98.859 34.6275 98.775C34.7908 98.691 34.9261 98.614 35.0335 98.544C35.1455 98.4693 35.2411 98.432 35.3205 98.432C35.4231 98.432 35.5025 98.4717 35.5585 98.551L35.9085 99.006C35.7545 99.1927 35.5701 99.356 35.3555 99.496C35.1408 99.6313 34.9098 99.7433 34.6625 99.832C34.4198 99.9207 34.1678 99.986 33.9065 100.028C33.6451 100.075 33.3861 100.098 33.1295 100.098C32.6395 100.098 32.1868 100.016 31.7715 99.853C31.3608 99.685 31.0038 99.4423 30.7005 99.125C30.4018 98.803 30.1685 98.4063 30.0005 97.935C29.8325 97.4637 29.7485 96.9223 29.7485 96.311C29.7485 95.8163 29.8231 95.3543 29.9725 94.925C30.1265 94.4957 30.3458 94.1247 30.6305 93.812C30.9151 93.4947 31.2628 93.2473 31.6735 93.07C32.0841 92.888 32.5461 92.797 33.0595 92.797ZM33.0875 93.714C32.4855 93.714 32.0118 93.889 31.6665 94.239C31.3211 94.5843 31.1065 95.065 31.0225 95.681H34.8795C34.8795 95.3917 34.8398 95.128 34.7605 94.89C34.6811 94.6473 34.5645 94.4397 34.4105 94.267C34.2565 94.0897 34.0675 93.9543 33.8435 93.861C33.6241 93.763 33.3721 93.714 33.0875 93.714ZM37.5943 100V92.909H38.3083C38.4436 92.909 38.5369 92.9347 38.5883 92.986C38.6396 93.0373 38.6746 93.126 38.6933 93.252L38.7773 94.358C39.0199 93.8633 39.3186 93.4783 39.6733 93.203C40.0326 92.923 40.4526 92.783 40.9333 92.783C41.1293 92.783 41.3066 92.8063 41.4653 92.853C41.6239 92.895 41.7709 92.9557 41.9063 93.035L41.7453 93.966C41.7126 94.0827 41.6403 94.141 41.5283 94.141C41.4629 94.141 41.3626 94.12 41.2273 94.078C41.0919 94.0313 40.9029 94.008 40.6603 94.008C40.2263 94.008 39.8623 94.134 39.5683 94.386C39.2789 94.638 39.0363 95.0043 38.8403 95.485V100H37.5943ZM48.0968 100.112C47.5368 100.112 47.1051 99.9557 46.8018 99.643C46.5031 99.3303 46.3538 98.88 46.3538 98.292V93.952H45.4998C45.4251 93.952 45.3621 93.931 45.3108 93.889C45.2594 93.8423 45.2338 93.7723 45.2338 93.679V93.182L46.3958 93.035L46.6828 90.844C46.6921 90.774 46.7224 90.718 46.7738 90.676C46.8251 90.6293 46.8904 90.606 46.9698 90.606H47.5998V93.049H49.6298V93.952H47.5998V98.208C47.5998 98.5067 47.6721 98.7283 47.8168 98.873C47.9614 99.0177 48.1481 99.09 48.3768 99.09C48.5074 99.09 48.6194 99.0737 48.7128 99.041C48.8108 99.0037 48.8948 98.964 48.9648 98.922C49.0348 98.88 49.0931 98.8427 49.1398 98.81C49.1911 98.7727 49.2354 98.754 49.2728 98.754C49.3381 98.754 49.3964 98.7937 49.4478 98.873L49.8118 99.468C49.5971 99.6687 49.3381 99.8273 49.0348 99.944C48.7314 100.056 48.4188 100.112 48.0968 100.112ZM53.9774 92.797C54.4021 92.797 54.7941 92.8693 55.1534 93.014C55.5128 93.154 55.8231 93.3593 56.0844 93.63C56.3458 93.896 56.5488 94.2273 56.6934 94.624C56.8428 95.016 56.9174 95.464 56.9174 95.968C56.9174 96.164 56.8964 96.2947 56.8544 96.36C56.8124 96.4253 56.7331 96.458 56.6164 96.458H51.8984C51.9078 96.906 51.9684 97.2957 52.0804 97.627C52.1924 97.9583 52.3464 98.236 52.5424 98.46C52.7384 98.6793 52.9718 98.845 53.2424 98.957C53.5131 99.0643 53.8164 99.118 54.1524 99.118C54.4651 99.118 54.7334 99.083 54.9574 99.013C55.1861 98.9383 55.3821 98.859 55.5454 98.775C55.7088 98.691 55.8441 98.614 55.9514 98.544C56.0634 98.4693 56.1591 98.432 56.2384 98.432C56.3411 98.432 56.4204 98.4717 56.4764 98.551L56.8264 99.006C56.6724 99.1927 56.4881 99.356 56.2734 99.496C56.0588 99.6313 55.8278 99.7433 55.5804 99.832C55.3378 99.9207 55.0858 99.986 54.8244 100.028C54.5631 100.075 54.3041 100.098 54.0474 100.098C53.5574 100.098 53.1048 100.016 52.6894 99.853C52.2788 99.685 51.9218 99.4423 51.6184 99.125C51.3198 98.803 51.0864 98.4063 50.9184 97.935C50.7504 97.4637 50.6664 96.9223 50.6664 96.311C50.6664 95.8163 50.7411 95.3543 50.8904 94.925C51.0444 94.4957 51.2638 94.1247 51.5484 93.812C51.8331 93.4947 52.1808 93.2473 52.5914 93.07C53.0021 92.888 53.4641 92.797 53.9774 92.797ZM54.0054 93.714C53.4034 93.714 52.9298 93.889 52.5844 94.239C52.2391 94.5843 52.0244 95.065 51.9404 95.681H55.7974C55.7974 95.3917 55.7578 95.128 55.6784 94.89C55.5991 94.6473 55.4824 94.4397 55.3284 94.267C55.1744 94.0897 54.9854 93.9543 54.7614 93.861C54.5421 93.763 54.2901 93.714 54.0054 93.714ZM59.7474 96.367L57.3604 92.909H58.5574C58.6601 92.909 58.7347 92.9253 58.7814 92.958C58.8281 92.9907 58.8701 93.0373 58.9074 93.098L60.6434 95.758C60.6854 95.6273 60.7461 95.4967 60.8254 95.366L62.3514 93.126C62.3981 93.0607 62.4447 93.0093 62.4914 92.972C62.5381 92.93 62.5964 92.909 62.6664 92.909H63.8144L61.4274 96.297L63.9124 100H62.7154C62.6127 100 62.5311 99.9743 62.4704 99.923C62.4144 99.867 62.3677 99.8063 62.3304 99.741L60.5454 96.962C60.5127 97.0973 60.4637 97.2187 60.3984 97.326L58.7464 99.741C58.6997 99.8063 58.6484 99.867 58.5924 99.923C58.5411 99.9743 58.4687 100 58.3754 100H57.2624L59.7474 96.367ZM67.2921 100.112C66.7321 100.112 66.3004 99.9557 65.9971 99.643C65.6984 99.3303 65.5491 98.88 65.5491 98.292V93.952H64.6951C64.6204 93.952 64.5574 93.931 64.5061 93.889C64.4548 93.8423 64.4291 93.7723 64.4291 93.679V93.182L65.5911 93.035L65.8781 90.844C65.8874 90.774 65.9178 90.718 65.9691 90.676C66.0204 90.6293 66.0858 90.606 66.1651 90.606H66.7951V93.049H68.8251V93.952H66.7951V98.208C66.7951 98.5067 66.8674 98.7283 67.0121 98.873C67.1568 99.0177 67.3434 99.09 67.5721 99.09C67.7028 99.09 67.8148 99.0737 67.9081 99.041C68.0061 99.0037 68.0901 98.964 68.1601 98.922C68.2301 98.88 68.2884 98.8427 68.3351 98.81C68.3864 98.7727 68.4308 98.754 68.4681 98.754C68.5334 98.754 68.5918 98.7937 68.6431 98.873L69.0071 99.468C68.7924 99.6687 68.5334 99.8273 68.2301 99.944C67.9268 100.056 67.6141 100.112 67.2921 100.112Z" fill="#6A6A6A"/>
</svg>
