<svg width="205" height="94" viewBox="0 0 205 94" fill="none" xmlns="http://www.w3.org/2000/svg">
<path d="M41.04 83.272C41.04 84.1307 40.904 84.92 40.632 85.64C40.36 86.3547 39.976 86.9707 39.48 87.488C38.984 88.0053 38.3867 88.408 37.688 88.696C36.9947 88.9787 36.2267 89.12 35.384 89.12C34.5413 89.12 33.7733 88.9787 33.08 88.696C32.3867 88.408 31.792 88.0053 31.296 87.488C30.8 86.9707 30.416 86.3547 30.144 85.64C29.872 84.92 29.736 84.1307 29.736 83.272C29.736 82.4133 29.872 81.6267 30.144 80.912C30.416 80.192 30.8 79.5733 31.296 79.056C31.792 78.5333 32.3867 78.128 33.08 77.84C33.7733 77.552 34.5413 77.408 35.384 77.408C36.2267 77.408 36.9947 77.552 37.688 77.84C38.3867 78.128 38.984 78.5333 39.48 79.056C39.976 79.5733 40.36 80.192 40.632 80.912C40.904 81.6267 41.04 82.4133 41.04 83.272ZM39.448 83.272C39.448 82.568 39.352 81.936 39.16 81.376C38.968 80.816 38.696 80.344 38.344 79.96C37.992 79.5707 37.5653 79.272 37.064 79.064C36.5627 78.856 36.0027 78.752 35.384 78.752C34.7707 78.752 34.2133 78.856 33.712 79.064C33.2107 79.272 32.7813 79.5707 32.424 79.96C32.072 80.344 31.8 80.816 31.608 81.376C31.416 81.936 31.32 82.568 31.32 83.272C31.32 83.976 31.416 84.608 31.608 85.168C31.8 85.7227 32.072 86.1947 32.424 86.584C32.7813 86.968 33.2107 87.264 33.712 87.472C34.2133 87.6747 34.7707 87.776 35.384 87.776C36.0027 87.776 36.5627 87.6747 37.064 87.472C37.5653 87.264 37.992 86.968 38.344 86.584C38.696 86.1947 38.968 85.7227 39.16 85.168C39.352 84.608 39.448 83.976 39.448 83.272ZM42.9336 91.744V80.896H43.7816C43.9843 80.896 44.1123 80.9947 44.1656 81.192L44.2856 82.152C44.6323 81.7307 45.027 81.392 45.4696 81.136C45.9176 80.88 46.4323 80.752 47.0136 80.752C47.4776 80.752 47.899 80.8427 48.2776 81.024C48.6563 81.2 48.979 81.464 49.2456 81.816C49.5123 82.1627 49.7176 82.5947 49.8616 83.112C50.0056 83.6293 50.0776 84.224 50.0776 84.896C50.0776 85.4933 49.9976 86.0507 49.8376 86.568C49.6776 87.08 49.4483 87.5253 49.1496 87.904C48.851 88.2773 48.483 88.5733 48.0456 88.792C47.6136 89.0053 47.1256 89.112 46.5816 89.112C46.0803 89.112 45.651 89.0293 45.2936 88.864C44.9416 88.6987 44.6296 88.464 44.3576 88.16V91.744H42.9336ZM46.5416 81.904C46.0776 81.904 45.6696 82.0107 45.3176 82.224C44.971 82.4373 44.651 82.7387 44.3576 83.128V87.048C44.619 87.4 44.9043 87.648 45.2136 87.792C45.5283 87.936 45.8776 88.008 46.2616 88.008C47.0136 88.008 47.5923 87.7387 47.9976 87.2C48.403 86.6613 48.6056 85.8933 48.6056 84.896C48.6056 84.368 48.5576 83.9147 48.4616 83.536C48.371 83.1573 48.2376 82.848 48.0616 82.608C47.8856 82.3627 47.6696 82.184 47.4136 82.072C47.1576 81.96 46.867 81.904 46.5416 81.904ZM54.2178 89.128C53.5778 89.128 53.0844 88.9493 52.7378 88.592C52.3964 88.2347 52.2258 87.72 52.2258 87.048V82.088H51.2498C51.1644 82.088 51.0924 82.064 51.0338 82.016C50.9751 81.9627 50.9458 81.8827 50.9458 81.776V81.208L52.2738 81.04L52.6018 78.536C52.6124 78.456 52.6471 78.392 52.7057 78.344C52.7644 78.2907 52.8391 78.264 52.9298 78.264H53.6498V81.056H55.9698V82.088H53.6498V86.952C53.6498 87.2933 53.7324 87.5467 53.8978 87.712C54.0631 87.8773 54.2764 87.96 54.5378 87.96C54.6871 87.96 54.8151 87.9413 54.9218 87.904C55.0338 87.8613 55.1298 87.816 55.2098 87.768C55.2898 87.72 55.3564 87.6773 55.4098 87.64C55.4684 87.5973 55.5191 87.576 55.5618 87.576C55.6364 87.576 55.7031 87.6213 55.7618 87.712L56.1778 88.392C55.9324 88.6213 55.6364 88.8027 55.2898 88.936C54.9431 89.064 54.5858 89.128 54.2178 89.128ZM59.3145 80.896V89H57.8905V80.896H59.3145ZM59.6345 78.352C59.6345 78.4907 59.6052 78.6213 59.5465 78.744C59.4932 78.8613 59.4185 78.968 59.3225 79.064C59.2318 79.1547 59.1252 79.2267 59.0025 79.28C58.8798 79.3333 58.7492 79.36 58.6105 79.36C58.4718 79.36 58.3412 79.3333 58.2185 79.28C58.1012 79.2267 57.9945 79.1547 57.8985 79.064C57.8078 78.968 57.7358 78.8613 57.6825 78.744C57.6292 78.6213 57.6025 78.4907 57.6025 78.352C57.6025 78.2133 57.6292 78.0827 57.6825 77.96C57.7358 77.832 57.8078 77.7227 57.8985 77.632C57.9945 77.536 58.1012 77.4613 58.2185 77.408C58.3412 77.3547 58.4718 77.328 58.6105 77.328C58.7492 77.328 58.8798 77.3547 59.0025 77.408C59.1252 77.4613 59.2318 77.536 59.3225 77.632C59.4185 77.7227 59.4932 77.832 59.5465 77.96C59.6052 78.0827 59.6345 78.2133 59.6345 78.352ZM65.1043 80.768C65.6963 80.768 66.2296 80.8667 66.7043 81.064C67.1843 81.2613 67.5896 81.5413 67.9203 81.904C68.2563 82.2667 68.5123 82.7067 68.6883 83.224C68.8696 83.736 68.9603 84.3093 68.9603 84.944C68.9603 85.584 68.8696 86.16 68.6883 86.672C68.5123 87.184 68.2563 87.6213 67.9203 87.984C67.5896 88.3467 67.1843 88.6267 66.7043 88.824C66.2296 89.016 65.6963 89.112 65.1043 89.112C64.5123 89.112 63.9763 89.016 63.4963 88.824C63.0216 88.6267 62.6163 88.3467 62.2803 87.984C61.9443 87.6213 61.6856 87.184 61.5043 86.672C61.3229 86.16 61.2323 85.584 61.2323 84.944C61.2323 84.3093 61.3229 83.736 61.5043 83.224C61.6856 82.7067 61.9443 82.2667 62.2803 81.904C62.6163 81.5413 63.0216 81.2613 63.4963 81.064C63.9763 80.8667 64.5123 80.768 65.1043 80.768ZM65.1043 88C65.9043 88 66.5016 87.7333 66.8963 87.2C67.2909 86.6613 67.4883 85.912 67.4883 84.952C67.4883 83.9867 67.2909 83.2347 66.8963 82.696C66.5016 82.1573 65.9043 81.888 65.1043 81.888C64.6989 81.888 64.3469 81.9573 64.0483 82.096C63.7496 82.2347 63.4989 82.4347 63.2963 82.696C63.0989 82.9573 62.9496 83.28 62.8483 83.664C62.7523 84.0427 62.7043 84.472 62.7043 84.952C62.7043 85.432 62.7523 85.8613 62.8483 86.24C62.9496 86.6187 63.0989 86.9387 63.2963 87.2C63.4989 87.456 63.7496 87.6533 64.0483 87.792C64.3469 87.9307 64.6989 88 65.1043 88ZM70.7149 89V80.896H71.5629C71.7655 80.896 71.8935 80.9947 71.9469 81.192L72.0589 82.072C72.4109 81.6827 72.8029 81.368 73.2349 81.128C73.6722 80.888 74.1762 80.768 74.7469 80.768C75.1895 80.768 75.5789 80.8427 75.9149 80.992C76.2562 81.136 76.5389 81.344 76.7629 81.616C76.9922 81.8827 77.1655 82.2053 77.2829 82.584C77.4002 82.9627 77.4589 83.3813 77.4589 83.84V89H76.0349V83.84C76.0349 83.2267 75.8935 82.752 75.6109 82.416C75.3335 82.0747 74.9069 81.904 74.3309 81.904C73.9095 81.904 73.5149 82.0053 73.1469 82.208C72.7842 82.4107 72.4482 82.6853 72.1389 83.032V89H70.7149ZM86.3393 77.408C86.8246 77.408 87.2779 77.48 87.6993 77.624C88.1206 77.768 88.4833 77.9787 88.7873 78.256C89.0966 78.528 89.3393 78.8613 89.5153 79.256C89.6913 79.6507 89.7793 80.0987 89.7793 80.6C89.7793 81.0267 89.7153 81.4213 89.5873 81.784C89.4593 82.1467 89.2859 82.496 89.0673 82.832C88.8486 83.1627 88.5953 83.4853 88.3073 83.8C88.0246 84.1093 87.7233 84.4267 87.4033 84.752L84.3873 87.84C84.6006 87.7813 84.8166 87.736 85.0353 87.704C85.2539 87.6667 85.4646 87.648 85.6673 87.648H89.5073C89.6619 87.648 89.7846 87.6933 89.8753 87.784C89.9659 87.8747 90.0113 87.992 90.0113 88.136V89H82.3633V88.512C82.3633 88.4107 82.3819 88.3067 82.4193 88.2C82.4619 88.0933 82.5286 87.9947 82.6193 87.904L86.2913 84.216C86.5953 83.9067 86.8726 83.6107 87.1233 83.328C87.3739 83.04 87.5873 82.752 87.7633 82.464C87.9446 82.176 88.0833 81.8853 88.1793 81.592C88.2753 81.2933 88.3233 80.976 88.3233 80.64C88.3233 80.304 88.2699 80.0107 88.1633 79.76C88.0566 79.504 87.9099 79.2933 87.7233 79.128C87.5366 78.9627 87.3179 78.84 87.0673 78.76C86.8166 78.6747 86.5473 78.632 86.2593 78.632C85.9713 78.632 85.7046 78.6747 85.4593 78.76C85.2139 78.8453 84.9953 78.9653 84.8033 79.12C84.6166 79.2693 84.4566 79.448 84.3233 79.656C84.1953 79.864 84.1046 80.0933 84.0513 80.344C84.0086 80.4987 83.9446 80.6107 83.8593 80.68C83.7739 80.7493 83.6619 80.784 83.5233 80.784C83.4966 80.784 83.4673 80.784 83.4353 80.784C83.4086 80.7787 83.3766 80.7733 83.3393 80.768L82.5953 80.64C82.6699 80.1173 82.8139 79.656 83.0273 79.256C83.2406 78.8507 83.5099 78.512 83.8353 78.24C84.1659 77.968 84.5419 77.7627 84.9633 77.624C85.3899 77.48 85.8486 77.408 86.3393 77.408Z" fill="black"/>
<circle cx="11" cy="83" r="10.5" fill="white" stroke="#D8D8D8"/>
<path d="M32.096 11.216V16H30.552V4.536H33.792C34.5173 4.536 35.144 4.61067 35.672 4.76C36.2 4.904 36.6347 5.11467 36.976 5.392C37.3227 5.66933 37.5787 6.00533 37.744 6.4C37.9093 6.78933 37.992 7.22667 37.992 7.712C37.992 8.11733 37.928 8.496 37.8 8.848C37.672 9.2 37.4853 9.51733 37.24 9.8C37 10.0773 36.704 10.3147 36.352 10.512C36.0053 10.7093 35.6107 10.8587 35.168 10.96C35.36 11.072 35.5307 11.2347 35.68 11.448L39.024 16H37.648C37.3653 16 37.1573 15.8907 37.024 15.672L34.048 11.576C33.9573 11.448 33.8587 11.3573 33.752 11.304C33.6453 11.2453 33.4853 11.216 33.272 11.216H32.096ZM32.096 10.088H33.72C34.1733 10.088 34.5707 10.0347 34.912 9.928C35.2587 9.816 35.5467 9.66133 35.776 9.464C36.0107 9.26133 36.1867 9.02133 36.304 8.744C36.4213 8.46667 36.48 8.16 36.48 7.824C36.48 7.14133 36.2533 6.62667 35.8 6.28C35.352 5.93333 34.6827 5.76 33.792 5.76H32.096V10.088ZM46.4169 16H45.7849C45.6462 16 45.5342 15.9787 45.4489 15.936C45.3635 15.8933 45.3075 15.8027 45.2809 15.664L45.1209 14.912C44.9075 15.104 44.6995 15.2773 44.4969 15.432C44.2942 15.5813 44.0809 15.7093 43.8569 15.816C43.6329 15.9173 43.3929 15.9947 43.1369 16.048C42.8862 16.1013 42.6062 16.128 42.2969 16.128C41.9822 16.128 41.6862 16.0853 41.4089 16C41.1369 15.9093 40.8995 15.776 40.6969 15.6C40.4942 15.424 40.3315 15.2027 40.2089 14.936C40.0915 14.664 40.0329 14.344 40.0329 13.976C40.0329 13.656 40.1209 13.3493 40.2969 13.056C40.4729 12.7573 40.7555 12.4933 41.1449 12.264C41.5395 12.0347 42.0542 11.848 42.6889 11.704C43.3235 11.5547 44.0995 11.4693 45.0169 11.448V10.816C45.0169 10.1867 44.8809 9.712 44.6089 9.392C44.3422 9.06667 43.9449 8.904 43.4169 8.904C43.0702 8.904 42.7769 8.94933 42.5369 9.04C42.3022 9.12533 42.0969 9.224 41.9209 9.336C41.7502 9.44267 41.6009 9.54133 41.4729 9.632C41.3502 9.71733 41.2275 9.76 41.1049 9.76C41.0089 9.76 40.9235 9.736 40.8489 9.688C40.7795 9.63467 40.7235 9.57067 40.6809 9.496L40.4249 9.04C40.8729 8.608 41.3555 8.28533 41.8729 8.072C42.3902 7.85867 42.9635 7.752 43.5929 7.752C44.0462 7.752 44.4489 7.82667 44.8009 7.976C45.1529 8.12533 45.4489 8.33333 45.6889 8.6C45.9289 8.86667 46.1102 9.18933 46.2329 9.568C46.3555 9.94667 46.4169 10.3627 46.4169 10.816V16ZM42.7209 15.128C42.9715 15.128 43.2009 15.104 43.4089 15.056C43.6169 15.0027 43.8115 14.9307 43.9929 14.84C44.1795 14.744 44.3555 14.6293 44.5209 14.496C44.6915 14.3627 44.8569 14.2107 45.0169 14.04V12.352C44.3609 12.3733 43.8035 12.4267 43.3449 12.512C42.8862 12.592 42.5129 12.6987 42.2249 12.832C41.9369 12.9653 41.7262 13.1227 41.5929 13.304C41.4649 13.4853 41.4009 13.688 41.4009 13.912C41.4009 14.1253 41.4355 14.3093 41.5049 14.464C41.5742 14.6187 41.6675 14.7467 41.7849 14.848C41.9022 14.944 42.0409 15.016 42.2009 15.064C42.3609 15.1067 42.5342 15.128 42.7209 15.128ZM54.2783 16C54.0756 16 53.9476 15.9013 53.8943 15.704L53.7663 14.72C53.4196 15.1413 53.0223 15.48 52.5743 15.736C52.1316 15.9867 51.6223 16.112 51.0463 16.112C50.5823 16.112 50.1609 16.024 49.7823 15.848C49.4036 15.6667 49.0809 15.4027 48.8143 15.056C48.5476 14.7093 48.3423 14.2773 48.1983 13.76C48.0543 13.2427 47.9823 12.648 47.9823 11.976C47.9823 11.3787 48.0623 10.824 48.2223 10.312C48.3823 9.79467 48.6116 9.34667 48.9103 8.968C49.2143 8.58933 49.5823 8.29333 50.0143 8.08C50.4463 7.86133 50.9369 7.752 51.4863 7.752C51.9823 7.752 52.4063 7.83733 52.7583 8.008C53.1103 8.17333 53.4249 8.408 53.7023 8.712V4.216H55.1263V16H54.2783ZM51.5182 14.96C51.9823 14.96 52.3876 14.8533 52.7343 14.64C53.0863 14.4267 53.4089 14.1253 53.7023 13.736V9.816C53.4409 9.464 53.1529 9.21867 52.8383 9.08C52.5289 8.936 52.1849 8.864 51.8063 8.864C51.0489 8.864 50.4676 9.13333 50.0623 9.672C49.6569 10.2107 49.4543 10.9787 49.4543 11.976C49.4543 12.504 49.4996 12.9573 49.5903 13.336C49.6809 13.7093 49.8143 14.0187 49.9903 14.264C50.1663 14.504 50.3823 14.68 50.6383 14.792C50.8943 14.904 51.1876 14.96 51.5182 14.96ZM59.0958 7.896V16H57.6718V7.896H59.0958ZM59.4158 5.352C59.4158 5.49067 59.3864 5.62133 59.3278 5.744C59.2744 5.86133 59.1998 5.968 59.1038 6.064C59.0131 6.15467 58.9064 6.22667 58.7838 6.28C58.6611 6.33333 58.5304 6.36 58.3918 6.36C58.2531 6.36 58.1224 6.33333 57.9998 6.28C57.8824 6.22667 57.7758 6.15467 57.6798 6.064C57.5891 5.968 57.5171 5.86133 57.4638 5.744C57.4104 5.62133 57.3838 5.49067 57.3838 5.352C57.3838 5.21333 57.4104 5.08267 57.4638 4.96C57.5171 4.832 57.5891 4.72267 57.6798 4.632C57.7758 4.536 57.8824 4.46133 57.9998 4.408C58.1224 4.35467 58.2531 4.328 58.3918 4.328C58.5304 4.328 58.6611 4.35467 58.7838 4.408C58.9064 4.46133 59.0131 4.536 59.1038 4.632C59.1998 4.72267 59.2744 4.832 59.3278 4.96C59.3864 5.08267 59.4158 5.21333 59.4158 5.352ZM64.8855 7.768C65.4775 7.768 66.0108 7.86667 66.4855 8.064C66.9655 8.26133 67.3708 8.54133 67.7015 8.904C68.0375 9.26667 68.2935 9.70667 68.4695 10.224C68.6508 10.736 68.7415 11.3093 68.7415 11.944C68.7415 12.584 68.6508 13.16 68.4695 13.672C68.2935 14.184 68.0375 14.6213 67.7015 14.984C67.3708 15.3467 66.9655 15.6267 66.4855 15.824C66.0108 16.016 65.4775 16.112 64.8855 16.112C64.2935 16.112 63.7575 16.016 63.2775 15.824C62.8028 15.6267 62.3975 15.3467 62.0615 14.984C61.7255 14.6213 61.4668 14.184 61.2855 13.672C61.1042 13.16 61.0135 12.584 61.0135 11.944C61.0135 11.3093 61.1042 10.736 61.2855 10.224C61.4668 9.70667 61.7255 9.26667 62.0615 8.904C62.3975 8.54133 62.8028 8.26133 63.2775 8.064C63.7575 7.86667 64.2935 7.768 64.8855 7.768ZM64.8855 15C65.6855 15 66.2828 14.7333 66.6775 14.2C67.0722 13.6613 67.2695 12.912 67.2695 11.952C67.2695 10.9867 67.0722 10.2347 66.6775 9.696C66.2828 9.15733 65.6855 8.888 64.8855 8.888C64.4802 8.888 64.1282 8.95733 63.8295 9.096C63.5308 9.23467 63.2802 9.43467 63.0775 9.696C62.8802 9.95733 62.7308 10.28 62.6295 10.664C62.5335 11.0427 62.4855 11.472 62.4855 11.952C62.4855 12.432 62.5335 12.8613 62.6295 13.24C62.7308 13.6187 62.8802 13.9387 63.0775 14.2C63.2802 14.456 63.5308 14.6533 63.8295 14.792C64.1282 14.9307 64.4802 15 64.8855 15ZM73.6379 16V4.216H75.0699V9.064C75.4059 8.67467 75.7899 8.36267 76.2219 8.128C76.6592 7.888 77.1579 7.768 77.7179 7.768C78.1872 7.768 78.6112 7.856 78.9899 8.032C79.3685 8.208 79.6912 8.472 79.9579 8.824C80.2245 9.17067 80.4299 9.60267 80.5739 10.12C80.7179 10.632 80.7899 11.224 80.7899 11.896C80.7899 12.4933 80.7099 13.0507 80.5499 13.568C80.3899 14.08 80.1579 14.5253 79.8539 14.904C79.5552 15.2773 79.1872 15.5733 78.7499 15.792C78.3179 16.0053 77.8299 16.112 77.2859 16.112C76.7632 16.112 76.3179 16.0107 75.9499 15.808C75.5872 15.6053 75.2699 15.3227 74.9979 14.96L74.9259 15.696C74.8832 15.8987 74.7605 16 74.5579 16H73.6379ZM77.2539 8.904C76.7899 8.904 76.3819 9.01067 76.0299 9.224C75.6832 9.43733 75.3632 9.73867 75.0699 10.128V14.048C75.3259 14.4 75.6085 14.648 75.9179 14.792C76.2325 14.936 76.5819 15.008 76.9659 15.008C77.7232 15.008 78.3045 14.7387 78.7099 14.2C79.1152 13.6613 79.3179 12.8933 79.3179 11.896C79.3179 11.368 79.2699 10.9147 79.1739 10.536C79.0832 10.1573 78.9499 9.848 78.7739 9.608C78.5979 9.36267 78.3819 9.184 78.1259 9.072C77.8699 8.96 77.5792 8.904 77.2539 8.904ZM83.7594 7.896V13.064C83.7594 13.6773 83.9007 14.152 84.1834 14.488C84.466 14.824 84.8927 14.992 85.4634 14.992C85.8794 14.992 86.2714 14.8933 86.6394 14.696C87.0074 14.4987 87.346 14.224 87.6554 13.872V7.896H89.0794V16H88.2314C88.0287 16 87.9007 15.9013 87.8474 15.704L87.7354 14.832C87.3834 15.2213 86.9887 15.536 86.5514 15.776C86.114 16.0107 85.6127 16.128 85.0474 16.128C84.6047 16.128 84.2127 16.056 83.8714 15.912C83.5354 15.7627 83.2527 15.5547 83.0234 15.288C82.794 15.0213 82.6207 14.6987 82.5034 14.32C82.3914 13.9413 82.3354 13.5227 82.3354 13.064V7.896H83.7594ZM93.874 16.128C93.234 16.128 92.7407 15.9493 92.394 15.592C92.0527 15.2347 91.882 14.72 91.882 14.048V9.088H90.906C90.8207 9.088 90.7487 9.064 90.69 9.016C90.6313 8.96267 90.602 8.88267 90.602 8.776V8.208L91.93 8.04L92.258 5.536C92.2687 5.456 92.3033 5.392 92.362 5.344C92.4207 5.29067 92.4953 5.264 92.586 5.264H93.306V8.056H95.626V9.088H93.306V13.952C93.306 14.2933 93.3887 14.5467 93.554 14.712C93.7193 14.8773 93.9327 14.96 94.194 14.96C94.3433 14.96 94.4713 14.9413 94.578 14.904C94.69 14.8613 94.786 14.816 94.866 14.768C94.946 14.72 95.0127 14.6773 95.066 14.64C95.1247 14.5973 95.1753 14.576 95.218 14.576C95.2927 14.576 95.3593 14.6213 95.418 14.712L95.834 15.392C95.5887 15.6213 95.2927 15.8027 94.946 15.936C94.5993 16.064 94.242 16.128 93.874 16.128ZM99.8428 16.128C99.2028 16.128 98.7094 15.9493 98.3628 15.592C98.0214 15.2347 97.8508 14.72 97.8508 14.048V9.088H96.8748C96.7894 9.088 96.7174 9.064 96.6588 9.016C96.6001 8.96267 96.5708 8.88267 96.5708 8.776V8.208L97.8988 8.04L98.2268 5.536C98.2374 5.456 98.2721 5.392 98.3307 5.344C98.3894 5.29067 98.4641 5.264 98.5548 5.264H99.2748V8.056H101.595V9.088H99.2748V13.952C99.2748 14.2933 99.3574 14.5467 99.5228 14.712C99.6881 14.8773 99.9014 14.96 100.163 14.96C100.312 14.96 100.44 14.9413 100.547 14.904C100.659 14.8613 100.755 14.816 100.835 14.768C100.915 14.72 100.981 14.6773 101.035 14.64C101.093 14.5973 101.144 14.576 101.187 14.576C101.261 14.576 101.328 14.6213 101.387 14.712L101.803 15.392C101.557 15.6213 101.261 15.8027 100.915 15.936C100.568 16.064 100.211 16.128 99.8428 16.128ZM106.636 7.768C107.228 7.768 107.761 7.86667 108.236 8.064C108.716 8.26133 109.121 8.54133 109.452 8.904C109.788 9.26667 110.044 9.70667 110.22 10.224C110.401 10.736 110.492 11.3093 110.492 11.944C110.492 12.584 110.401 13.16 110.22 13.672C110.044 14.184 109.788 14.6213 109.452 14.984C109.121 15.3467 108.716 15.6267 108.236 15.824C107.761 16.016 107.228 16.112 106.636 16.112C106.044 16.112 105.508 16.016 105.028 15.824C104.553 15.6267 104.148 15.3467 103.812 14.984C103.476 14.6213 103.217 14.184 103.036 13.672C102.854 13.16 102.764 12.584 102.764 11.944C102.764 11.3093 102.854 10.736 103.036 10.224C103.217 9.70667 103.476 9.26667 103.812 8.904C104.148 8.54133 104.553 8.26133 105.028 8.064C105.508 7.86667 106.044 7.768 106.636 7.768ZM106.636 15C107.436 15 108.033 14.7333 108.428 14.2C108.822 13.6613 109.02 12.912 109.02 11.952C109.02 10.9867 108.822 10.2347 108.428 9.696C108.033 9.15733 107.436 8.888 106.636 8.888C106.23 8.888 105.878 8.95733 105.58 9.096C105.281 9.23467 105.03 9.43467 104.828 9.696C104.63 9.95733 104.481 10.28 104.38 10.664C104.284 11.0427 104.236 11.472 104.236 11.952C104.236 12.432 104.284 12.8613 104.38 13.24C104.481 13.6187 104.63 13.9387 104.828 14.2C105.03 14.456 105.281 14.6533 105.58 14.792C105.878 14.9307 106.23 15 106.636 15ZM112.246 16V7.896H113.094C113.297 7.896 113.425 7.99467 113.478 8.192L113.59 9.072C113.942 8.68267 114.334 8.368 114.766 8.128C115.203 7.888 115.707 7.768 116.278 7.768C116.721 7.768 117.11 7.84267 117.446 7.992C117.787 8.136 118.07 8.344 118.294 8.616C118.523 8.88267 118.697 9.20533 118.814 9.584C118.931 9.96267 118.99 10.3813 118.99 10.84V16H117.566V10.84C117.566 10.2267 117.425 9.752 117.142 9.416C116.865 9.07467 116.438 8.904 115.862 8.904C115.441 8.904 115.046 9.00533 114.678 9.208C114.315 9.41067 113.979 9.68533 113.67 10.032V16H112.246ZM125.815 4.216V16H124.391V4.216H125.815ZM134.276 16H133.644C133.506 16 133.394 15.9787 133.308 15.936C133.223 15.8933 133.167 15.8027 133.14 15.664L132.98 14.912C132.767 15.104 132.559 15.2773 132.356 15.432C132.154 15.5813 131.94 15.7093 131.716 15.816C131.492 15.9173 131.252 15.9947 130.996 16.048C130.746 16.1013 130.466 16.128 130.156 16.128C129.842 16.128 129.546 16.0853 129.268 16C128.996 15.9093 128.759 15.776 128.556 15.6C128.354 15.424 128.191 15.2027 128.068 14.936C127.951 14.664 127.892 14.344 127.892 13.976C127.892 13.656 127.98 13.3493 128.156 13.056C128.332 12.7573 128.615 12.4933 129.004 12.264C129.399 12.0347 129.914 11.848 130.548 11.704C131.183 11.5547 131.959 11.4693 132.876 11.448V10.816C132.876 10.1867 132.74 9.712 132.468 9.392C132.202 9.06667 131.804 8.904 131.276 8.904C130.93 8.904 130.636 8.94933 130.396 9.04C130.162 9.12533 129.956 9.224 129.78 9.336C129.61 9.44267 129.46 9.54133 129.332 9.632C129.21 9.71733 129.087 9.76 128.964 9.76C128.868 9.76 128.783 9.736 128.708 9.688C128.639 9.63467 128.583 9.57067 128.54 9.496L128.284 9.04C128.732 8.608 129.215 8.28533 129.732 8.072C130.25 7.85867 130.823 7.752 131.452 7.752C131.906 7.752 132.308 7.82667 132.66 7.976C133.012 8.12533 133.308 8.33333 133.548 8.6C133.788 8.86667 133.97 9.18933 134.092 9.568C134.215 9.94667 134.276 10.3627 134.276 10.816V16ZM130.58 15.128C130.831 15.128 131.06 15.104 131.268 15.056C131.476 15.0027 131.671 14.9307 131.852 14.84C132.039 14.744 132.215 14.6293 132.38 14.496C132.551 14.3627 132.716 14.2107 132.876 14.04V12.352C132.22 12.3733 131.663 12.4267 131.204 12.512C130.746 12.592 130.372 12.6987 130.084 12.832C129.796 12.9653 129.586 13.1227 129.452 13.304C129.324 13.4853 129.26 13.688 129.26 13.912C129.26 14.1253 129.295 14.3093 129.364 14.464C129.434 14.6187 129.527 14.7467 129.644 14.848C129.762 14.944 129.9 15.016 130.06 15.064C130.22 15.1067 130.394 15.128 130.58 15.128ZM136.482 16V4.216H137.914V9.064C138.25 8.67467 138.634 8.36267 139.066 8.128C139.503 7.888 140.002 7.768 140.562 7.768C141.031 7.768 141.455 7.856 141.834 8.032C142.212 8.208 142.535 8.472 142.802 8.824C143.068 9.17067 143.274 9.60267 143.418 10.12C143.562 10.632 143.634 11.224 143.634 11.896C143.634 12.4933 143.554 13.0507 143.394 13.568C143.234 14.08 143.002 14.5253 142.698 14.904C142.399 15.2773 142.031 15.5733 141.594 15.792C141.162 16.0053 140.674 16.112 140.13 16.112C139.607 16.112 139.162 16.0107 138.794 15.808C138.431 15.6053 138.114 15.3227 137.842 14.96L137.77 15.696C137.727 15.8987 137.604 16 137.402 16H136.482ZM140.098 8.904C139.634 8.904 139.226 9.01067 138.874 9.224C138.527 9.43733 138.207 9.73867 137.914 10.128V14.048C138.17 14.4 138.452 14.648 138.762 14.792C139.076 14.936 139.426 15.008 139.81 15.008C140.567 15.008 141.148 14.7387 141.554 14.2C141.959 13.6613 142.162 12.8933 142.162 11.896C142.162 11.368 142.114 10.9147 142.018 10.536C141.927 10.1573 141.794 9.848 141.618 9.608C141.442 9.36267 141.226 9.184 140.97 9.072C140.714 8.96 140.423 8.904 140.098 8.904ZM148.579 7.768C149.064 7.768 149.512 7.85067 149.923 8.016C150.334 8.176 150.688 8.41067 150.987 8.72C151.286 9.024 151.518 9.40267 151.683 9.856C151.854 10.304 151.939 10.816 151.939 11.392C151.939 11.616 151.915 11.7653 151.867 11.84C151.819 11.9147 151.728 11.952 151.595 11.952H146.203C146.214 12.464 146.283 12.9093 146.411 13.288C146.539 13.6667 146.715 13.984 146.939 14.24C147.163 14.4907 147.43 14.68 147.739 14.808C148.048 14.9307 148.395 14.992 148.779 14.992C149.136 14.992 149.443 14.952 149.699 14.872C149.96 14.7867 150.184 14.696 150.371 14.6C150.558 14.504 150.712 14.416 150.835 14.336C150.963 14.2507 151.072 14.208 151.163 14.208C151.28 14.208 151.371 14.2533 151.435 14.344L151.835 14.864C151.659 15.0773 151.448 15.264 151.203 15.424C150.958 15.5787 150.694 15.7067 150.411 15.808C150.134 15.9093 149.846 15.984 149.547 16.032C149.248 16.0853 148.952 16.112 148.659 16.112C148.099 16.112 147.582 16.0187 147.107 15.832C146.638 15.64 146.23 15.3627 145.883 15C145.542 14.632 145.275 14.1787 145.083 13.64C144.891 13.1013 144.795 12.4827 144.795 11.784C144.795 11.2187 144.88 10.6907 145.051 10.2C145.227 9.70933 145.478 9.28533 145.803 8.928C146.128 8.56533 146.526 8.28267 146.995 8.08C147.464 7.872 147.992 7.768 148.579 7.768ZM148.611 8.816C147.923 8.816 147.382 9.016 146.987 9.416C146.592 9.81067 146.347 10.36 146.251 11.064H150.659C150.659 10.7333 150.614 10.432 150.523 10.16C150.432 9.88267 150.299 9.64533 150.123 9.448C149.947 9.24533 149.731 9.09067 149.475 8.984C149.224 8.872 148.936 8.816 148.611 8.816ZM155.346 4.216V16H153.922V4.216H155.346ZM163.405 16.128C162.765 16.128 162.272 15.9493 161.925 15.592C161.584 15.2347 161.413 14.72 161.413 14.048V9.088H160.437C160.352 9.088 160.28 9.064 160.221 9.016C160.163 8.96267 160.133 8.88267 160.133 8.776V8.208L161.461 8.04L161.789 5.536C161.8 5.456 161.835 5.392 161.893 5.344C161.952 5.29067 162.027 5.264 162.117 5.264H162.837V8.056H165.157V9.088H162.837V13.952C162.837 14.2933 162.92 14.5467 163.085 14.712C163.251 14.8773 163.464 14.96 163.725 14.96C163.875 14.96 164.003 14.9413 164.109 14.904C164.221 14.8613 164.317 14.816 164.397 14.768C164.477 14.72 164.544 14.6773 164.597 14.64C164.656 14.5973 164.707 14.576 164.749 14.576C164.824 14.576 164.891 14.6213 164.949 14.712L165.365 15.392C165.12 15.6213 164.824 15.8027 164.477 15.936C164.131 16.064 163.773 16.128 163.405 16.128ZM166.918 16V4.216H168.342V8.984C168.689 8.616 169.073 8.32267 169.494 8.104C169.915 7.88 170.401 7.768 170.95 7.768C171.393 7.768 171.782 7.84267 172.118 7.992C172.459 8.136 172.742 8.344 172.966 8.616C173.195 8.88267 173.369 9.20533 173.486 9.584C173.603 9.96267 173.662 10.3813 173.662 10.84V16H172.238V10.84C172.238 10.2267 172.097 9.752 171.814 9.416C171.537 9.07467 171.11 8.904 170.534 8.904C170.113 8.904 169.718 9.00533 169.35 9.208C168.987 9.41067 168.651 9.68533 168.342 10.032V16H166.918ZM181.761 16H181.129C180.99 16 180.878 15.9787 180.793 15.936C180.707 15.8933 180.651 15.8027 180.625 15.664L180.465 14.912C180.251 15.104 180.043 15.2773 179.841 15.432C179.638 15.5813 179.425 15.7093 179.201 15.816C178.977 15.9173 178.737 15.9947 178.481 16.048C178.23 16.1013 177.95 16.128 177.641 16.128C177.326 16.128 177.03 16.0853 176.753 16C176.481 15.9093 176.243 15.776 176.041 15.6C175.838 15.424 175.675 15.2027 175.553 14.936C175.435 14.664 175.377 14.344 175.377 13.976C175.377 13.656 175.465 13.3493 175.641 13.056C175.817 12.7573 176.099 12.4933 176.489 12.264C176.883 12.0347 177.398 11.848 178.033 11.704C178.667 11.5547 179.443 11.4693 180.361 11.448V10.816C180.361 10.1867 180.225 9.712 179.953 9.392C179.686 9.06667 179.289 8.904 178.761 8.904C178.414 8.904 178.121 8.94933 177.881 9.04C177.646 9.12533 177.441 9.224 177.265 9.336C177.094 9.44267 176.945 9.54133 176.817 9.632C176.694 9.71733 176.571 9.76 176.449 9.76C176.353 9.76 176.267 9.736 176.193 9.688C176.123 9.63467 176.067 9.57067 176.025 9.496L175.769 9.04C176.217 8.608 176.699 8.28533 177.217 8.072C177.734 7.85867 178.307 7.752 178.937 7.752C179.39 7.752 179.793 7.82667 180.145 7.976C180.497 8.12533 180.793 8.33333 181.033 8.6C181.273 8.86667 181.454 9.18933 181.577 9.568C181.699 9.94667 181.761 10.3627 181.761 10.816V16ZM178.065 15.128C178.315 15.128 178.545 15.104 178.753 15.056C178.961 15.0027 179.155 14.9307 179.337 14.84C179.523 14.744 179.699 14.6293 179.865 14.496C180.035 14.3627 180.201 14.2107 180.361 14.04V12.352C179.705 12.3733 179.147 12.4267 178.689 12.512C178.23 12.592 177.857 12.6987 177.569 12.832C177.281 12.9653 177.07 13.1227 176.937 13.304C176.809 13.4853 176.745 13.688 176.745 13.912C176.745 14.1253 176.779 14.3093 176.849 14.464C176.918 14.6187 177.011 14.7467 177.129 14.848C177.246 14.944 177.385 15.016 177.545 15.064C177.705 15.1067 177.878 15.128 178.065 15.128ZM186.374 16.128C185.734 16.128 185.241 15.9493 184.894 15.592C184.553 15.2347 184.382 14.72 184.382 14.048V9.088H183.406C183.321 9.088 183.249 9.064 183.19 9.016C183.131 8.96267 183.102 8.88267 183.102 8.776V8.208L184.43 8.04L184.758 5.536C184.769 5.456 184.803 5.392 184.862 5.344C184.921 5.29067 184.995 5.264 185.086 5.264H185.806V8.056H188.126V9.088H185.806V13.952C185.806 14.2933 185.889 14.5467 186.054 14.712C186.219 14.8773 186.433 14.96 186.694 14.96C186.843 14.96 186.971 14.9413 187.078 14.904C187.19 14.8613 187.286 14.816 187.366 14.768C187.446 14.72 187.513 14.6773 187.566 14.64C187.625 14.5973 187.675 14.576 187.718 14.576C187.793 14.576 187.859 14.6213 187.918 14.712L188.334 15.392C188.089 15.6213 187.793 15.8027 187.446 15.936C187.099 16.064 186.742 16.128 186.374 16.128ZM29.112 26.896H30.232C30.3493 26.896 30.4453 26.9253 30.52 26.984C30.5947 27.0427 30.6453 27.112 30.672 27.192L32.224 32.408C32.2667 32.6 32.3067 32.7867 32.344 32.968C32.3813 33.144 32.4133 33.3227 32.44 33.504C32.4827 33.3227 32.5307 33.144 32.584 32.968C32.6373 32.7867 32.6933 32.6 32.752 32.408L34.464 27.16C34.4907 27.08 34.536 27.0133 34.6 26.96C34.6693 26.9067 34.7547 26.88 34.856 26.88H35.472C35.5787 26.88 35.6667 26.9067 35.736 26.96C35.8053 27.0133 35.8533 27.08 35.88 27.16L37.552 32.408C37.6107 32.5947 37.6613 32.7787 37.704 32.96C37.752 33.1413 37.7973 33.32 37.84 33.496C37.8667 33.32 37.9013 33.136 37.944 32.944C37.9867 32.752 38.032 32.5733 38.08 32.408L39.664 27.192C39.6907 27.1067 39.7413 27.0373 39.816 26.984C39.8907 26.9253 39.9787 26.896 40.08 26.896H41.152L38.528 35H37.4C37.2613 35 37.1653 34.9093 37.112 34.728L35.32 29.232C35.2773 29.1093 35.2427 28.9867 35.216 28.864C35.1893 28.736 35.1627 28.6107 35.136 28.488C35.1093 28.6107 35.0827 28.736 35.056 28.864C35.0293 28.992 34.9947 29.1173 34.952 29.24L33.136 34.728C33.0773 34.9093 32.968 35 32.808 35H31.736L29.112 26.896ZM42.418 35V26.896H43.234C43.3887 26.896 43.4953 26.9253 43.554 26.984C43.6127 27.0427 43.6527 27.144 43.674 27.288L43.77 28.552C44.0473 27.9867 44.3887 27.5467 44.794 27.232C45.2047 26.912 45.6847 26.752 46.234 26.752C46.458 26.752 46.6607 26.7787 46.842 26.832C47.0233 26.88 47.1913 26.9493 47.346 27.04L47.162 28.104C47.1247 28.2373 47.042 28.304 46.914 28.304C46.8393 28.304 46.7247 28.28 46.57 28.232C46.4153 28.1787 46.1993 28.152 45.922 28.152C45.426 28.152 45.01 28.296 44.674 28.584C44.3433 28.872 44.066 29.2907 43.842 29.84V35H42.418ZM54.5263 35H53.8943C53.7556 35 53.6436 34.9787 53.5583 34.936C53.4729 34.8933 53.4169 34.8027 53.3903 34.664L53.2303 33.912C53.0169 34.104 52.8089 34.2773 52.6063 34.432C52.4036 34.5813 52.1903 34.7093 51.9663 34.816C51.7423 34.9173 51.5023 34.9947 51.2463 35.048C50.9956 35.1013 50.7156 35.128 50.4063 35.128C50.0916 35.128 49.7956 35.0853 49.5182 35C49.2463 34.9093 49.0089 34.776 48.8063 34.6C48.6036 34.424 48.4409 34.2027 48.3183 33.936C48.2009 33.664 48.1423 33.344 48.1423 32.976C48.1423 32.656 48.2303 32.3493 48.4062 32.056C48.5823 31.7573 48.8649 31.4933 49.2543 31.264C49.6489 31.0347 50.1636 30.848 50.7983 30.704C51.4329 30.5547 52.2089 30.4693 53.1263 30.448V29.816C53.1263 29.1867 52.9903 28.712 52.7183 28.392C52.4516 28.0667 52.0543 27.904 51.5263 27.904C51.1796 27.904 50.8863 27.9493 50.6463 28.04C50.4116 28.1253 50.2063 28.224 50.0303 28.336C49.8596 28.4427 49.7103 28.5413 49.5823 28.632C49.4596 28.7173 49.3369 28.76 49.2143 28.76C49.1183 28.76 49.0329 28.736 48.9583 28.688C48.8889 28.6347 48.8329 28.5707 48.7903 28.496L48.5343 28.04C48.9823 27.608 49.4649 27.2853 49.9823 27.072C50.4996 26.8587 51.0729 26.752 51.7023 26.752C52.1556 26.752 52.5583 26.8267 52.9103 26.976C53.2623 27.1253 53.5583 27.3333 53.7983 27.6C54.0383 27.8667 54.2196 28.1893 54.3423 28.568C54.4649 28.9467 54.5263 29.3627 54.5263 29.816V35ZM50.8303 34.128C51.0809 34.128 51.3103 34.104 51.5182 34.056C51.7263 34.0027 51.9209 33.9307 52.1023 33.84C52.2889 33.744 52.4649 33.6293 52.6303 33.496C52.8009 33.3627 52.9663 33.2107 53.1263 33.04V31.352C52.4703 31.3733 51.9129 31.4267 51.4543 31.512C50.9956 31.592 50.6223 31.6987 50.3343 31.832C50.0463 31.9653 49.8356 32.1227 49.7023 32.304C49.5743 32.4853 49.5103 32.688 49.5103 32.912C49.5103 33.1253 49.5449 33.3093 49.6143 33.464C49.6836 33.6187 49.7769 33.7467 49.8943 33.848C50.0116 33.944 50.1503 34.016 50.3103 34.064C50.4703 34.1067 50.6436 34.128 50.8303 34.128ZM56.6836 37.744V26.896H57.5316C57.7343 26.896 57.8623 26.9947 57.9156 27.192L58.0356 28.152C58.3823 27.7307 58.777 27.392 59.2196 27.136C59.6676 26.88 60.1823 26.752 60.7636 26.752C61.2276 26.752 61.649 26.8427 62.0276 27.024C62.4063 27.2 62.729 27.464 62.9956 27.816C63.2623 28.1627 63.4676 28.5947 63.6116 29.112C63.7556 29.6293 63.8276 30.224 63.8276 30.896C63.8276 31.4933 63.7476 32.0507 63.5876 32.568C63.4276 33.08 63.1983 33.5253 62.8996 33.904C62.601 34.2773 62.233 34.5733 61.7956 34.792C61.3636 35.0053 60.8756 35.112 60.3316 35.112C59.8303 35.112 59.401 35.0293 59.0436 34.864C58.6916 34.6987 58.3796 34.464 58.1076 34.16V37.744H56.6836ZM60.2916 27.904C59.8276 27.904 59.4196 28.0107 59.0676 28.224C58.721 28.4373 58.401 28.7387 58.1076 29.128V33.048C58.369 33.4 58.6543 33.648 58.9636 33.792C59.2783 33.936 59.6276 34.008 60.0116 34.008C60.7636 34.008 61.3423 33.7387 61.7476 33.2C62.153 32.6613 62.3556 31.8933 62.3556 30.896C62.3556 30.368 62.3076 29.9147 62.2116 29.536C62.121 29.1573 61.9876 28.848 61.8116 28.608C61.6356 28.3627 61.4196 28.184 61.1636 28.072C60.9076 27.96 60.617 27.904 60.2916 27.904ZM70.1518 28.232C70.0878 28.3493 69.9891 28.408 69.8558 28.408C69.7758 28.408 69.6851 28.3787 69.5838 28.32C69.4824 28.2613 69.3571 28.1973 69.2078 28.128C69.0638 28.0533 68.8904 27.9867 68.6878 27.928C68.4851 27.864 68.2451 27.832 67.9678 27.832C67.7278 27.832 67.5118 27.864 67.3198 27.928C67.1278 27.9867 66.9624 28.0693 66.8238 28.176C66.6904 28.2827 66.5864 28.408 66.5118 28.552C66.4424 28.6907 66.4078 28.8427 66.4078 29.008C66.4078 29.216 66.4664 29.3893 66.5838 29.528C66.7064 29.6667 66.8664 29.7867 67.0638 29.888C67.2611 29.9893 67.4851 30.08 67.7358 30.16C67.9864 30.2347 68.2424 30.3173 68.5038 30.408C68.7704 30.4933 69.0291 30.5893 69.2798 30.696C69.5304 30.8027 69.7544 30.936 69.9518 31.096C70.1491 31.256 70.3064 31.4533 70.4238 31.688C70.5464 31.9173 70.6078 32.1947 70.6078 32.52C70.6078 32.8933 70.5411 33.24 70.4078 33.56C70.2744 33.8747 70.0771 34.1493 69.8158 34.384C69.5544 34.6133 69.2344 34.7947 68.8558 34.928C68.4771 35.0613 68.0398 35.128 67.5438 35.128C66.9784 35.128 66.4664 35.0373 66.0078 34.856C65.5491 34.6693 65.1598 34.432 64.8398 34.144L65.1758 33.6C65.2184 33.5307 65.2691 33.4773 65.3278 33.44C65.3864 33.4027 65.4638 33.384 65.5598 33.384C65.6558 33.384 65.7571 33.4213 65.8638 33.496C65.9704 33.5707 66.0984 33.6533 66.2478 33.744C66.4024 33.8347 66.5864 33.9173 66.7998 33.992C67.0184 34.0667 67.2904 34.104 67.6158 34.104C67.8931 34.104 68.1358 34.0693 68.3438 34C68.5518 33.9253 68.7251 33.8267 68.8637 33.704C69.0024 33.5813 69.1038 33.44 69.1678 33.28C69.2371 33.12 69.2718 32.9493 69.2718 32.768C69.2718 32.544 69.2104 32.36 69.0878 32.216C68.9704 32.0667 68.8131 31.9413 68.6158 31.84C68.4184 31.7333 68.1918 31.6427 67.9358 31.568C67.6851 31.488 67.4264 31.4053 67.1598 31.32C66.8984 31.2347 66.6398 31.1387 66.3838 31.032C66.1331 30.92 65.9091 30.7813 65.7118 30.616C65.5144 30.4507 65.3544 30.248 65.2318 30.008C65.1144 29.7627 65.0558 29.4667 65.0558 29.12C65.0558 28.8107 65.1198 28.5147 65.2478 28.232C65.3758 27.944 65.5624 27.6933 65.8078 27.48C66.0531 27.2613 66.3544 27.088 66.7118 26.96C67.0691 26.832 67.4771 26.768 67.9358 26.768C68.4691 26.768 68.9464 26.8533 69.3678 27.024C69.7944 27.1893 70.1624 27.4187 70.4718 27.712L70.1518 28.232ZM77.999 35.128C77.359 35.128 76.8657 34.9493 76.519 34.592C76.1777 34.2347 76.007 33.72 76.007 33.048V28.088H75.031C74.9457 28.088 74.8737 28.064 74.815 28.016C74.7563 27.9627 74.727 27.8827 74.727 27.776V27.208L76.055 27.04L76.383 24.536C76.3937 24.456 76.4283 24.392 76.487 24.344C76.5457 24.2907 76.6203 24.264 76.711 24.264H77.431V27.056H79.751V28.088H77.431V32.952C77.431 33.2933 77.5137 33.5467 77.679 33.712C77.8443 33.8773 78.0577 33.96 78.319 33.96C78.4683 33.96 78.5963 33.9413 78.703 33.904C78.815 33.8613 78.911 33.816 78.991 33.768C79.071 33.72 79.1377 33.6773 79.191 33.64C79.2497 33.5973 79.3003 33.576 79.343 33.576C79.4177 33.576 79.4843 33.6213 79.543 33.712L79.959 34.392C79.7137 34.6213 79.4177 34.8027 79.071 34.936C78.7243 35.064 78.367 35.128 77.999 35.128ZM84.7918 26.768C85.3838 26.768 85.9171 26.8667 86.3918 27.064C86.8718 27.2613 87.2771 27.5413 87.6078 27.904C87.9438 28.2667 88.1998 28.7067 88.3758 29.224C88.5571 29.736 88.6478 30.3093 88.6478 30.944C88.6478 31.584 88.5571 32.16 88.3758 32.672C88.1998 33.184 87.9438 33.6213 87.6078 33.984C87.2771 34.3467 86.8718 34.6267 86.3918 34.824C85.9171 35.016 85.3838 35.112 84.7918 35.112C84.1998 35.112 83.6638 35.016 83.1838 34.824C82.7091 34.6267 82.3038 34.3467 81.9678 33.984C81.6318 33.6213 81.3731 33.184 81.1918 32.672C81.0104 32.16 80.9198 31.584 80.9198 30.944C80.9198 30.3093 81.0104 29.736 81.1918 29.224C81.3731 28.7067 81.6318 28.2667 81.9678 27.904C82.3038 27.5413 82.7091 27.2613 83.1838 27.064C83.6638 26.8667 84.1998 26.768 84.7918 26.768ZM84.7918 34C85.5918 34 86.1891 33.7333 86.5838 33.2C86.9784 32.6613 87.1758 31.912 87.1758 30.952C87.1758 29.9867 86.9784 29.2347 86.5838 28.696C86.1891 28.1573 85.5918 27.888 84.7918 27.888C84.3864 27.888 84.0344 27.9573 83.7358 28.096C83.4371 28.2347 83.1864 28.4347 82.9838 28.696C82.7864 28.9573 82.6371 29.28 82.5358 29.664C82.4398 30.0427 82.3918 30.472 82.3918 30.952C82.3918 31.432 82.4398 31.8613 82.5358 32.24C82.6371 32.6187 82.7864 32.9387 82.9838 33.2C83.1864 33.456 83.4371 33.6533 83.7358 33.792C84.0344 33.9307 84.3864 34 84.7918 34ZM93.4961 35V26.896H94.3441C94.5468 26.896 94.6748 26.9947 94.7281 27.192L94.8321 28.024C95.1308 27.656 95.4641 27.3547 95.8321 27.12C96.2055 26.8853 96.6375 26.768 97.1281 26.768C97.6775 26.768 98.1201 26.92 98.4561 27.224C98.7975 27.528 99.0428 27.9387 99.1921 28.456C99.3041 28.1627 99.4508 27.9093 99.6321 27.696C99.8188 27.4827 100.027 27.3067 100.256 27.168C100.485 27.0293 100.728 26.928 100.984 26.864C101.245 26.8 101.509 26.768 101.776 26.768C102.203 26.768 102.581 26.8373 102.912 26.976C103.248 27.1093 103.531 27.3067 103.76 27.568C103.995 27.8293 104.173 28.152 104.296 28.536C104.419 28.9147 104.48 29.3493 104.48 29.84V35H103.056V29.84C103.056 29.2053 102.917 28.7253 102.64 28.4C102.363 28.0693 101.96 27.904 101.432 27.904C101.197 27.904 100.973 27.9467 100.76 28.032C100.552 28.112 100.368 28.232 100.208 28.392C100.048 28.552 99.9201 28.7547 99.8241 29C99.7335 29.24 99.6881 29.52 99.6881 29.84V35H98.2641V29.84C98.2641 29.1893 98.1335 28.704 97.8721 28.384C97.6108 28.064 97.2295 27.904 96.7281 27.904C96.3761 27.904 96.0481 28 95.7441 28.192C95.4455 28.3787 95.1708 28.6347 94.9201 28.96V35H93.4961ZM107.869 26.896V32.064C107.869 32.6773 108.01 33.152 108.293 33.488C108.575 33.824 109.002 33.992 109.573 33.992C109.989 33.992 110.381 33.8933 110.749 33.696C111.117 33.4987 111.455 33.224 111.765 32.872V26.896H113.189V35H112.341C112.138 35 112.01 34.9013 111.957 34.704L111.845 33.832C111.493 34.2213 111.098 34.536 110.661 34.776C110.223 35.0107 109.722 35.128 109.157 35.128C108.714 35.128 108.322 35.056 107.981 34.912C107.645 34.7627 107.362 34.5547 107.133 34.288C106.903 34.0213 106.73 33.6987 106.613 33.32C106.501 32.9413 106.445 32.5227 106.445 32.064V26.896H107.869ZM117.111 23.216V35H115.687V23.216H117.111ZM122.077 35.128C121.437 35.128 120.944 34.9493 120.597 34.592C120.256 34.2347 120.085 33.72 120.085 33.048V28.088H119.109C119.024 28.088 118.952 28.064 118.893 28.016C118.834 27.9627 118.805 27.8827 118.805 27.776V27.208L120.133 27.04L120.461 24.536C120.472 24.456 120.506 24.392 120.565 24.344C120.624 24.2907 120.698 24.264 120.789 24.264H121.509V27.056H123.829V28.088H121.509V32.952C121.509 33.2933 121.592 33.5467 121.757 33.712C121.922 33.8773 122.136 33.96 122.397 33.96C122.546 33.96 122.674 33.9413 122.781 33.904C122.893 33.8613 122.989 33.816 123.069 33.768C123.149 33.72 123.216 33.6773 123.269 33.64C123.328 33.5973 123.378 33.576 123.421 33.576C123.496 33.576 123.562 33.6213 123.621 33.712L124.037 34.392C123.792 34.6213 123.496 34.8027 123.149 34.936C122.802 35.064 122.445 35.128 122.077 35.128ZM127.174 26.896V35H125.75V26.896H127.174ZM127.494 24.352C127.494 24.4907 127.465 24.6213 127.406 24.744C127.353 24.8613 127.278 24.968 127.182 25.064C127.091 25.1547 126.985 25.2267 126.862 25.28C126.739 25.3333 126.609 25.36 126.47 25.36C126.331 25.36 126.201 25.3333 126.078 25.28C125.961 25.2267 125.854 25.1547 125.758 25.064C125.667 24.968 125.595 24.8613 125.542 24.744C125.489 24.6213 125.462 24.4907 125.462 24.352C125.462 24.2133 125.489 24.0827 125.542 23.96C125.595 23.832 125.667 23.7227 125.758 23.632C125.854 23.536 125.961 23.4613 126.078 23.408C126.201 23.3547 126.331 23.328 126.47 23.328C126.609 23.328 126.739 23.3547 126.862 23.408C126.985 23.4613 127.091 23.536 127.182 23.632C127.278 23.7227 127.353 23.832 127.406 23.96C127.465 24.0827 127.494 24.2133 127.494 24.352ZM129.684 37.744V26.896H130.532C130.734 26.896 130.862 26.9947 130.916 27.192L131.036 28.152C131.382 27.7307 131.777 27.392 132.22 27.136C132.668 26.88 133.182 26.752 133.764 26.752C134.228 26.752 134.649 26.8427 135.028 27.024C135.406 27.2 135.729 27.464 135.996 27.816C136.262 28.1627 136.468 28.5947 136.612 29.112C136.756 29.6293 136.828 30.224 136.828 30.896C136.828 31.4933 136.748 32.0507 136.588 32.568C136.428 33.08 136.198 33.5253 135.9 33.904C135.601 34.2773 135.233 34.5733 134.796 34.792C134.364 35.0053 133.876 35.112 133.332 35.112C132.83 35.112 132.401 35.0293 132.044 34.864C131.692 34.6987 131.38 34.464 131.108 34.16V37.744H129.684ZM133.292 27.904C132.828 27.904 132.42 28.0107 132.068 28.224C131.721 28.4373 131.401 28.7387 131.108 29.128V33.048C131.369 33.4 131.654 33.648 131.964 33.792C132.278 33.936 132.628 34.008 133.012 34.008C133.764 34.008 134.342 33.7387 134.748 33.2C135.153 32.6613 135.356 31.8933 135.356 30.896C135.356 30.368 135.308 29.9147 135.212 29.536C135.121 29.1573 134.988 28.848 134.812 28.608C134.636 28.3627 134.42 28.184 134.164 28.072C133.908 27.96 133.617 27.904 133.292 27.904ZM140.096 23.216V35H138.672V23.216H140.096ZM145.814 26.768C146.299 26.768 146.747 26.8507 147.158 27.016C147.568 27.176 147.923 27.4107 148.222 27.72C148.52 28.024 148.752 28.4027 148.918 28.856C149.088 29.304 149.174 29.816 149.174 30.392C149.174 30.616 149.15 30.7653 149.102 30.84C149.054 30.9147 148.963 30.952 148.83 30.952H143.438C143.448 31.464 143.518 31.9093 143.646 32.288C143.774 32.6667 143.95 32.984 144.174 33.24C144.398 33.4907 144.664 33.68 144.974 33.808C145.283 33.9307 145.63 33.992 146.014 33.992C146.371 33.992 146.678 33.952 146.934 33.872C147.195 33.7867 147.419 33.696 147.606 33.6C147.792 33.504 147.947 33.416 148.07 33.336C148.198 33.2507 148.307 33.208 148.398 33.208C148.515 33.208 148.606 33.2533 148.67 33.344L149.07 33.864C148.894 34.0773 148.683 34.264 148.438 34.424C148.192 34.5787 147.928 34.7067 147.646 34.808C147.368 34.9093 147.08 34.984 146.782 35.032C146.483 35.0853 146.187 35.112 145.894 35.112C145.334 35.112 144.816 35.0187 144.342 34.832C143.872 34.64 143.464 34.3627 143.118 34C142.776 33.632 142.51 33.1787 142.318 32.64C142.126 32.1013 142.03 31.4827 142.03 30.784C142.03 30.2187 142.115 29.6907 142.286 29.2C142.462 28.7093 142.712 28.2853 143.038 27.928C143.363 27.5653 143.76 27.2827 144.23 27.08C144.699 26.872 145.227 26.768 145.814 26.768ZM145.845 27.816C145.158 27.816 144.616 28.016 144.222 28.416C143.827 28.8107 143.582 29.36 143.486 30.064H147.894C147.894 29.7333 147.848 29.432 147.758 29.16C147.667 28.8827 147.534 28.6453 147.358 28.448C147.182 28.2453 146.966 28.0907 146.71 27.984C146.459 27.872 146.171 27.816 145.845 27.816ZM155.674 23.216V35H154.25V23.216H155.674ZM159.768 26.896V35H158.344V26.896H159.768ZM160.088 24.352C160.088 24.4907 160.058 24.6213 160 24.744C159.946 24.8613 159.872 24.968 159.776 25.064C159.685 25.1547 159.578 25.2267 159.456 25.28C159.333 25.3333 159.202 25.36 159.064 25.36C158.925 25.36 158.794 25.3333 158.672 25.28C158.554 25.2267 158.448 25.1547 158.352 25.064C158.261 24.968 158.189 24.8613 158.136 24.744C158.082 24.6213 158.056 24.4907 158.056 24.352C158.056 24.2133 158.082 24.0827 158.136 23.96C158.189 23.832 158.261 23.7227 158.352 23.632C158.448 23.536 158.554 23.4613 158.672 23.408C158.794 23.3547 158.925 23.328 159.064 23.328C159.202 23.328 159.333 23.3547 159.456 23.408C159.578 23.4613 159.685 23.536 159.776 23.632C159.872 23.7227 159.946 23.832 160 23.96C160.058 24.0827 160.088 24.2133 160.088 24.352ZM162.277 35V26.896H163.125C163.328 26.896 163.456 26.9947 163.509 27.192L163.621 28.072C163.973 27.6827 164.365 27.368 164.797 27.128C165.235 26.888 165.739 26.768 166.309 26.768C166.752 26.768 167.141 26.8427 167.477 26.992C167.819 27.136 168.101 27.344 168.325 27.616C168.555 27.8827 168.728 28.2053 168.845 28.584C168.963 28.9627 169.021 29.3813 169.021 29.84V35H167.597V29.84C167.597 29.2267 167.456 28.752 167.173 28.416C166.896 28.0747 166.469 27.904 165.893 27.904C165.472 27.904 165.077 28.0053 164.709 28.208C164.347 28.4107 164.011 28.6853 163.701 29.032V35H162.277ZM174.376 26.768C174.861 26.768 175.309 26.8507 175.72 27.016C176.131 27.176 176.485 27.4107 176.784 27.72C177.083 28.024 177.315 28.4027 177.48 28.856C177.651 29.304 177.736 29.816 177.736 30.392C177.736 30.616 177.712 30.7653 177.664 30.84C177.616 30.9147 177.525 30.952 177.392 30.952H172C172.011 31.464 172.08 31.9093 172.208 32.288C172.336 32.6667 172.512 32.984 172.736 33.24C172.96 33.4907 173.227 33.68 173.536 33.808C173.845 33.9307 174.192 33.992 174.576 33.992C174.933 33.992 175.24 33.952 175.496 33.872C175.757 33.7867 175.981 33.696 176.168 33.6C176.355 33.504 176.509 33.416 176.632 33.336C176.76 33.2507 176.869 33.208 176.96 33.208C177.077 33.208 177.168 33.2533 177.232 33.344L177.632 33.864C177.456 34.0773 177.245 34.264 177 34.424C176.755 34.5787 176.491 34.7067 176.208 34.808C175.931 34.9093 175.643 34.984 175.344 35.032C175.045 35.0853 174.749 35.112 174.456 35.112C173.896 35.112 173.379 35.0187 172.904 34.832C172.435 34.64 172.027 34.3627 171.68 34C171.339 33.632 171.072 33.1787 170.88 32.64C170.688 32.1013 170.592 31.4827 170.592 30.784C170.592 30.2187 170.677 29.6907 170.848 29.2C171.024 28.7093 171.275 28.2853 171.6 27.928C171.925 27.5653 172.323 27.2827 172.792 27.08C173.261 26.872 173.789 26.768 174.376 26.768ZM174.408 27.816C173.72 27.816 173.179 28.016 172.784 28.416C172.389 28.8107 172.144 29.36 172.048 30.064H176.456C176.456 29.7333 176.411 29.432 176.32 29.16C176.229 28.8827 176.096 28.6453 175.92 28.448C175.744 28.2453 175.528 28.0907 175.272 27.984C175.021 27.872 174.733 27.816 174.408 27.816ZM184.199 28.232C184.135 28.3493 184.036 28.408 183.903 28.408C183.823 28.408 183.732 28.3787 183.631 28.32C183.529 28.2613 183.404 28.1973 183.255 28.128C183.111 28.0533 182.937 27.9867 182.735 27.928C182.532 27.864 182.292 27.832 182.015 27.832C181.775 27.832 181.559 27.864 181.367 27.928C181.175 27.9867 181.009 28.0693 180.871 28.176C180.737 28.2827 180.633 28.408 180.559 28.552C180.489 28.6907 180.455 28.8427 180.455 29.008C180.455 29.216 180.513 29.3893 180.631 29.528C180.753 29.6667 180.913 29.7867 181.111 29.888C181.308 29.9893 181.532 30.08 181.783 30.16C182.033 30.2347 182.289 30.3173 182.551 30.408C182.817 30.4933 183.076 30.5893 183.327 30.696C183.577 30.8027 183.801 30.936 183.999 31.096C184.196 31.256 184.353 31.4533 184.471 31.688C184.593 31.9173 184.655 32.1947 184.655 32.52C184.655 32.8933 184.588 33.24 184.455 33.56C184.321 33.8747 184.124 34.1493 183.863 34.384C183.601 34.6133 183.281 34.7947 182.903 34.928C182.524 35.0613 182.087 35.128 181.591 35.128C181.025 35.128 180.513 35.0373 180.055 34.856C179.596 34.6693 179.207 34.432 178.887 34.144L179.223 33.6C179.265 33.5307 179.316 33.4773 179.375 33.44C179.433 33.4027 179.511 33.384 179.607 33.384C179.703 33.384 179.804 33.4213 179.911 33.496C180.017 33.5707 180.145 33.6533 180.295 33.744C180.449 33.8347 180.633 33.9173 180.847 33.992C181.065 34.0667 181.337 34.104 181.663 34.104C181.94 34.104 182.183 34.0693 182.391 34C182.599 33.9253 182.772 33.8267 182.911 33.704C183.049 33.5813 183.151 33.44 183.215 33.28C183.284 33.12 183.319 32.9493 183.319 32.768C183.319 32.544 183.257 32.36 183.135 32.216C183.017 32.0667 182.86 31.9413 182.663 31.84C182.465 31.7333 182.239 31.6427 181.983 31.568C181.732 31.488 181.473 31.4053 181.207 31.32C180.945 31.2347 180.687 31.1387 180.431 31.032C180.18 30.92 179.956 30.7813 179.759 30.616C179.561 30.4507 179.401 30.248 179.279 30.008C179.161 29.7627 179.103 29.4667 179.103 29.12C179.103 28.8107 179.167 28.5147 179.295 28.232C179.423 27.944 179.609 27.6933 179.855 27.48C180.1 27.2613 180.401 27.088 180.759 26.96C181.116 26.832 181.524 26.768 181.983 26.768C182.516 26.768 182.993 26.8533 183.415 27.024C183.841 27.1893 184.209 27.4187 184.519 27.712L184.199 28.232ZM30.216 54V42.216H31.648V47.064C31.984 46.6747 32.368 46.3627 32.8 46.128C33.2373 45.888 33.736 45.768 34.296 45.768C34.7653 45.768 35.1893 45.856 35.568 46.032C35.9467 46.208 36.2693 46.472 36.536 46.824C36.8027 47.1707 37.008 47.6027 37.152 48.12C37.296 48.632 37.368 49.224 37.368 49.896C37.368 50.4933 37.288 51.0507 37.128 51.568C36.968 52.08 36.736 52.5253 36.432 52.904C36.1333 53.2773 35.7653 53.5733 35.328 53.792C34.896 54.0053 34.408 54.112 33.864 54.112C33.3413 54.112 32.896 54.0107 32.528 53.808C32.1653 53.6053 31.848 53.3227 31.576 52.96L31.504 53.696C31.4613 53.8987 31.3387 54 31.136 54H30.216ZM33.832 46.904C33.368 46.904 32.96 47.0107 32.608 47.224C32.2613 47.4373 31.9413 47.7387 31.648 48.128V52.048C31.904 52.4 32.1867 52.648 32.496 52.792C32.8107 52.936 33.16 53.008 33.544 53.008C34.3013 53.008 34.8827 52.7387 35.288 52.2C35.6933 51.6613 35.896 50.8933 35.896 49.896C35.896 49.368 35.848 48.9147 35.752 48.536C35.6613 48.1573 35.528 47.848 35.352 47.608C35.176 47.3627 34.96 47.184 34.704 47.072C34.448 46.96 34.1573 46.904 33.832 46.904ZM42.3135 45.768C42.7988 45.768 43.2468 45.8507 43.6575 46.016C44.0682 46.176 44.4228 46.4107 44.7215 46.72C45.0202 47.024 45.2522 47.4027 45.4175 47.856C45.5882 48.304 45.6735 48.816 45.6735 49.392C45.6735 49.616 45.6495 49.7653 45.6015 49.84C45.5535 49.9147 45.4628 49.952 45.3295 49.952H39.9375C39.9482 50.464 40.0175 50.9093 40.1455 51.288C40.2735 51.6667 40.4495 51.984 40.6735 52.24C40.8975 52.4907 41.1642 52.68 41.4735 52.808C41.7828 52.9307 42.1295 52.992 42.5135 52.992C42.8708 52.992 43.1775 52.952 43.4335 52.872C43.6948 52.7867 43.9188 52.696 44.1055 52.6C44.2922 52.504 44.4468 52.416 44.5695 52.336C44.6975 52.2507 44.8068 52.208 44.8975 52.208C45.0148 52.208 45.1055 52.2533 45.1695 52.344L45.5695 52.864C45.3935 53.0773 45.1828 53.264 44.9375 53.424C44.6922 53.5787 44.4282 53.7067 44.1455 53.808C43.8682 53.9093 43.5802 53.984 43.2815 54.032C42.9828 54.0853 42.6868 54.112 42.3935 54.112C41.8335 54.112 41.3162 54.0187 40.8415 53.832C40.3722 53.64 39.9642 53.3627 39.6175 53C39.2762 52.632 39.0095 52.1787 38.8175 51.64C38.6255 51.1013 38.5295 50.4827 38.5295 49.784C38.5295 49.2187 38.6148 48.6907 38.7855 48.2C38.9615 47.7093 39.2122 47.2853 39.5375 46.928C39.8628 46.5653 40.2602 46.2827 40.7295 46.08C41.1988 45.872 41.7268 45.768 42.3135 45.768ZM42.3455 46.816C41.6575 46.816 41.1162 47.016 40.7215 47.416C40.3268 47.8107 40.0815 48.36 39.9855 49.064H44.3935C44.3935 48.7333 44.3482 48.432 44.2575 48.16C44.1668 47.8827 44.0335 47.6453 43.8575 47.448C43.6815 47.2453 43.4655 47.0907 43.2095 46.984C42.9588 46.872 42.6708 46.816 42.3455 46.816ZM53.0241 47.336C52.9815 47.3947 52.9388 47.44 52.8961 47.472C52.8535 47.504 52.7921 47.52 52.7121 47.52C52.6321 47.52 52.5441 47.488 52.4481 47.424C52.3575 47.3547 52.2401 47.28 52.0961 47.2C51.9521 47.12 51.7761 47.048 51.5681 46.984C51.3655 46.9147 51.1148 46.88 50.8161 46.88C50.4215 46.88 50.0721 46.952 49.7681 47.096C49.4641 47.2347 49.2081 47.4373 49.0001 47.704C48.7975 47.9707 48.6428 48.2933 48.5361 48.672C48.4348 49.0507 48.3841 49.4747 48.3841 49.944C48.3841 50.4347 48.4401 50.872 48.5521 51.256C48.6641 51.6347 48.8215 51.9547 49.0241 52.216C49.2268 52.472 49.4721 52.6693 49.7601 52.808C50.0535 52.9413 50.3815 53.008 50.7441 53.008C51.0908 53.008 51.3761 52.968 51.6001 52.888C51.8241 52.8027 52.0108 52.7093 52.1601 52.608C52.3095 52.5067 52.4321 52.416 52.5281 52.336C52.6241 52.2507 52.7201 52.208 52.8161 52.208C52.9388 52.208 53.0295 52.2533 53.0881 52.344L53.4881 52.864C53.1361 53.296 52.6961 53.6133 52.1681 53.816C51.6401 54.0133 51.0828 54.112 50.4961 54.112C49.9895 54.112 49.5175 54.0187 49.0801 53.832C48.6481 53.6453 48.2721 53.376 47.9521 53.024C47.6321 52.6667 47.3788 52.2293 47.1921 51.712C47.0108 51.1947 46.9201 50.6053 46.9201 49.944C46.9201 49.3413 47.0028 48.784 47.1681 48.272C47.3388 47.76 47.5841 47.32 47.9041 46.952C48.2295 46.5787 48.6295 46.288 49.1041 46.08C49.5788 45.872 50.1228 45.768 50.7361 45.768C51.3015 45.768 51.8028 45.8613 52.2401 46.048C52.6775 46.2293 53.0641 46.488 53.4001 46.824L53.0241 47.336ZM60.9169 54H60.2849C60.1462 54 60.0342 53.9787 59.9489 53.936C59.8635 53.8933 59.8075 53.8027 59.7809 53.664L59.6209 52.912C59.4075 53.104 59.1995 53.2773 58.9969 53.432C58.7942 53.5813 58.5809 53.7093 58.3569 53.816C58.1329 53.9173 57.8929 53.9947 57.6369 54.048C57.3862 54.1013 57.1062 54.128 56.7969 54.128C56.4822 54.128 56.1862 54.0853 55.9089 54C55.6369 53.9093 55.3995 53.776 55.1969 53.6C54.9942 53.424 54.8315 53.2027 54.7089 52.936C54.5915 52.664 54.5329 52.344 54.5329 51.976C54.5329 51.656 54.6209 51.3493 54.7969 51.056C54.9729 50.7573 55.2555 50.4933 55.6449 50.264C56.0395 50.0347 56.5542 49.848 57.1889 49.704C57.8235 49.5547 58.5995 49.4693 59.5169 49.448V48.816C59.5169 48.1867 59.3809 47.712 59.1089 47.392C58.8422 47.0667 58.4449 46.904 57.9169 46.904C57.5702 46.904 57.2769 46.9493 57.0369 47.04C56.8022 47.1253 56.5969 47.224 56.4209 47.336C56.2502 47.4427 56.1009 47.5413 55.9729 47.632C55.8502 47.7173 55.7275 47.76 55.6049 47.76C55.5089 47.76 55.4235 47.736 55.3489 47.688C55.2795 47.6347 55.2235 47.5707 55.1809 47.496L54.9249 47.04C55.3729 46.608 55.8555 46.2853 56.3729 46.072C56.8902 45.8587 57.4635 45.752 58.0929 45.752C58.5462 45.752 58.9489 45.8267 59.3009 45.976C59.6529 46.1253 59.9489 46.3333 60.1889 46.6C60.4289 46.8667 60.6102 47.1893 60.7329 47.568C60.8555 47.9467 60.9169 48.3627 60.9169 48.816V54ZM57.2209 53.128C57.4715 53.128 57.7009 53.104 57.9089 53.056C58.1169 53.0027 58.3115 52.9307 58.4929 52.84C58.6795 52.744 58.8555 52.6293 59.0209 52.496C59.1915 52.3627 59.3569 52.2107 59.5169 52.04V50.352C58.8609 50.3733 58.3035 50.4267 57.8449 50.512C57.3862 50.592 57.0129 50.6987 56.7249 50.832C56.4369 50.9653 56.2262 51.1227 56.0929 51.304C55.9649 51.4853 55.9009 51.688 55.9009 51.912C55.9009 52.1253 55.9355 52.3093 56.0049 52.464C56.0742 52.6187 56.1675 52.7467 56.2849 52.848C56.4022 52.944 56.5409 53.016 56.7009 53.064C56.8609 53.1067 57.0342 53.128 57.2209 53.128ZM64.3063 45.896V51.064C64.3063 51.6773 64.4476 52.152 64.7303 52.488C65.0129 52.824 65.4396 52.992 66.0103 52.992C66.4263 52.992 66.8183 52.8933 67.1863 52.696C67.5543 52.4987 67.8929 52.224 68.2023 51.872V45.896H69.6263V54H68.7783C68.5756 54 68.4476 53.9013 68.3943 53.704L68.2823 52.832C67.9303 53.2213 67.5356 53.536 67.0983 53.776C66.6609 54.0107 66.1596 54.128 65.5943 54.128C65.1516 54.128 64.7596 54.056 64.4183 53.912C64.0823 53.7627 63.7996 53.5547 63.5703 53.288C63.3409 53.0213 63.1676 52.6987 63.0503 52.32C62.9383 51.9413 62.8823 51.5227 62.8823 51.064V45.896H64.3063ZM76.6049 47.232C76.5409 47.3493 76.4422 47.408 76.3089 47.408C76.2289 47.408 76.1382 47.3787 76.0369 47.32C75.9355 47.2613 75.8102 47.1973 75.6609 47.128C75.5169 47.0533 75.3435 46.9867 75.1409 46.928C74.9382 46.864 74.6982 46.832 74.4209 46.832C74.1809 46.832 73.9649 46.864 73.7729 46.928C73.5809 46.9867 73.4155 47.0693 73.2769 47.176C73.1435 47.2827 73.0395 47.408 72.9649 47.552C72.8955 47.6907 72.8609 47.8427 72.8609 48.008C72.8609 48.216 72.9195 48.3893 73.0369 48.528C73.1595 48.6667 73.3195 48.7867 73.5169 48.888C73.7142 48.9893 73.9382 49.08 74.1889 49.16C74.4395 49.2347 74.6955 49.3173 74.9569 49.408C75.2235 49.4933 75.4822 49.5893 75.7329 49.696C75.9835 49.8027 76.2075 49.936 76.4049 50.096C76.6022 50.256 76.7595 50.4533 76.8769 50.688C76.9995 50.9173 77.0609 51.1947 77.0609 51.52C77.0609 51.8933 76.9942 52.24 76.8609 52.56C76.7275 52.8747 76.5302 53.1493 76.2689 53.384C76.0075 53.6133 75.6875 53.7947 75.3089 53.928C74.9302 54.0613 74.4929 54.128 73.9969 54.128C73.4315 54.128 72.9195 54.0373 72.4609 53.856C72.0022 53.6693 71.6129 53.432 71.2929 53.144L71.6289 52.6C71.6715 52.5307 71.7222 52.4773 71.7809 52.44C71.8395 52.4027 71.9169 52.384 72.0129 52.384C72.1089 52.384 72.2102 52.4213 72.3169 52.496C72.4235 52.5707 72.5515 52.6533 72.7009 52.744C72.8555 52.8347 73.0395 52.9173 73.2529 52.992C73.4715 53.0667 73.7435 53.104 74.0689 53.104C74.3462 53.104 74.5889 53.0693 74.7969 53C75.0049 52.9253 75.1782 52.8267 75.3169 52.704C75.4555 52.5813 75.5569 52.44 75.6209 52.28C75.6902 52.12 75.7249 51.9493 75.7249 51.768C75.7249 51.544 75.6635 51.36 75.5409 51.216C75.4235 51.0667 75.2662 50.9413 75.0689 50.84C74.8715 50.7333 74.6449 50.6427 74.3889 50.568C74.1382 50.488 73.8795 50.4053 73.6129 50.32C73.3515 50.2347 73.0929 50.1387 72.8369 50.032C72.5862 49.92 72.3622 49.7813 72.1649 49.616C71.9675 49.4507 71.8075 49.248 71.6849 49.008C71.5675 48.7627 71.5089 48.4667 71.5089 48.12C71.5089 47.8107 71.5729 47.5147 71.7009 47.232C71.8289 46.944 72.0155 46.6933 72.2609 46.48C72.5062 46.2613 72.8075 46.088 73.1649 45.96C73.5222 45.832 73.9302 45.768 74.3889 45.768C74.9222 45.768 75.3995 45.8533 75.8209 46.024C76.2475 46.1893 76.6155 46.4187 76.9249 46.712L76.6049 47.232ZM82.1104 45.768C82.5957 45.768 83.0437 45.8507 83.4544 46.016C83.865 46.176 84.2197 46.4107 84.5184 46.72C84.817 47.024 85.049 47.4027 85.2144 47.856C85.385 48.304 85.4704 48.816 85.4704 49.392C85.4704 49.616 85.4464 49.7653 85.3984 49.84C85.3504 49.9147 85.2597 49.952 85.1264 49.952H79.7344C79.745 50.464 79.8144 50.9093 79.9424 51.288C80.0704 51.6667 80.2464 51.984 80.4704 52.24C80.6944 52.4907 80.961 52.68 81.2704 52.808C81.5797 52.9307 81.9264 52.992 82.3104 52.992C82.6677 52.992 82.9744 52.952 83.2304 52.872C83.4917 52.7867 83.7157 52.696 83.9024 52.6C84.089 52.504 84.2437 52.416 84.3664 52.336C84.4944 52.2507 84.6037 52.208 84.6944 52.208C84.8117 52.208 84.9024 52.2533 84.9664 52.344L85.3664 52.864C85.1904 53.0773 84.9797 53.264 84.7344 53.424C84.489 53.5787 84.225 53.7067 83.9424 53.808C83.665 53.9093 83.377 53.984 83.0784 54.032C82.7797 54.0853 82.4837 54.112 82.1904 54.112C81.6304 54.112 81.113 54.0187 80.6384 53.832C80.169 53.64 79.761 53.3627 79.4144 53C79.073 52.632 78.8064 52.1787 78.6144 51.64C78.4224 51.1013 78.3264 50.4827 78.3264 49.784C78.3264 49.2187 78.4117 48.6907 78.5824 48.2C78.7584 47.7093 79.009 47.2853 79.3344 46.928C79.6597 46.5653 80.057 46.2827 80.5264 46.08C80.9957 45.872 81.5237 45.768 82.1104 45.768ZM82.1424 46.816C81.4544 46.816 80.913 47.016 80.5184 47.416C80.1237 47.8107 79.8784 48.36 79.7824 49.064H84.1904C84.1904 48.7333 84.145 48.432 84.0544 48.16C83.9637 47.8827 83.8304 47.6453 83.6544 47.448C83.4784 47.2453 83.2624 47.0907 83.0064 46.984C82.7557 46.872 82.4677 46.816 82.1424 46.816ZM91.9708 45.896V54H90.5468V45.896H91.9708ZM92.2908 43.352C92.2908 43.4907 92.2614 43.6213 92.2028 43.744C92.1494 43.8613 92.0748 43.968 91.9788 44.064C91.8881 44.1547 91.7814 44.2267 91.6588 44.28C91.5361 44.3333 91.4054 44.36 91.2668 44.36C91.1281 44.36 90.9974 44.3333 90.8748 44.28C90.7574 44.2267 90.6508 44.1547 90.5548 44.064C90.4641 43.968 90.3921 43.8613 90.3388 43.744C90.2854 43.6213 90.2588 43.4907 90.2588 43.352C90.2588 43.2133 90.2854 43.0827 90.3388 42.96C90.3921 42.832 90.4641 42.7227 90.5548 42.632C90.6508 42.536 90.7574 42.4613 90.8748 42.408C90.9974 42.3547 91.1281 42.328 91.2668 42.328C91.4054 42.328 91.5361 42.3547 91.6588 42.408C91.7814 42.4613 91.8881 42.536 91.9788 42.632C92.0748 42.7227 92.1494 42.832 92.2028 42.96C92.2614 43.0827 92.2908 43.2133 92.2908 43.352ZM96.9365 54.128C96.2965 54.128 95.8032 53.9493 95.4565 53.592C95.1152 53.2347 94.9445 52.72 94.9445 52.048V47.088H93.9685C93.8832 47.088 93.8112 47.064 93.7525 47.016C93.6938 46.9627 93.6645 46.8827 93.6645 46.776V46.208L94.9925 46.04L95.3205 43.536C95.3312 43.456 95.3658 43.392 95.4245 43.344C95.4832 43.2907 95.5578 43.264 95.6485 43.264H96.3685V46.056H98.6885V47.088H96.3685V51.952C96.3685 52.2933 96.4512 52.5467 96.6165 52.712C96.7818 52.8773 96.9952 52.96 97.2565 52.96C97.4058 52.96 97.5338 52.9413 97.6405 52.904C97.7525 52.8613 97.8485 52.816 97.9285 52.768C98.0085 52.72 98.0752 52.6773 98.1285 52.64C98.1872 52.5973 98.2378 52.576 98.2805 52.576C98.3552 52.576 98.4218 52.6213 98.4805 52.712L98.8965 53.392C98.6512 53.6213 98.3552 53.8027 98.0085 53.936C97.6618 54.064 97.3045 54.128 96.9365 54.128ZM105.127 45.896V54H103.703V45.896H105.127ZM105.447 43.352C105.447 43.4907 105.418 43.6213 105.359 43.744C105.306 43.8613 105.231 43.968 105.135 44.064C105.044 44.1547 104.938 44.2267 104.815 44.28C104.692 44.3333 104.562 44.36 104.423 44.36C104.284 44.36 104.154 44.3333 104.031 44.28C103.914 44.2267 103.807 44.1547 103.711 44.064C103.62 43.968 103.548 43.8613 103.495 43.744C103.442 43.6213 103.415 43.4907 103.415 43.352C103.415 43.2133 103.442 43.0827 103.495 42.96C103.548 42.832 103.62 42.7227 103.711 42.632C103.807 42.536 103.914 42.4613 104.031 42.408C104.154 42.3547 104.284 42.328 104.423 42.328C104.562 42.328 104.692 42.3547 104.815 42.408C104.938 42.4613 105.044 42.536 105.135 42.632C105.231 42.7227 105.306 42.832 105.359 42.96C105.418 43.0827 105.447 43.2133 105.447 43.352ZM112.277 47.232C112.213 47.3493 112.114 47.408 111.981 47.408C111.901 47.408 111.81 47.3787 111.709 47.32C111.607 47.2613 111.482 47.1973 111.333 47.128C111.189 47.0533 111.015 46.9867 110.813 46.928C110.61 46.864 110.37 46.832 110.093 46.832C109.853 46.832 109.637 46.864 109.445 46.928C109.253 46.9867 109.087 47.0693 108.949 47.176C108.815 47.2827 108.711 47.408 108.637 47.552C108.567 47.6907 108.533 47.8427 108.533 48.008C108.533 48.216 108.591 48.3893 108.709 48.528C108.831 48.6667 108.991 48.7867 109.189 48.888C109.386 48.9893 109.61 49.08 109.861 49.16C110.111 49.2347 110.367 49.3173 110.629 49.408C110.895 49.4933 111.154 49.5893 111.405 49.696C111.655 49.8027 111.879 49.936 112.077 50.096C112.274 50.256 112.431 50.4533 112.549 50.688C112.671 50.9173 112.733 51.1947 112.733 51.52C112.733 51.8933 112.666 52.24 112.533 52.56C112.399 52.8747 112.202 53.1493 111.941 53.384C111.679 53.6133 111.359 53.7947 110.981 53.928C110.602 54.0613 110.165 54.128 109.669 54.128C109.103 54.128 108.591 54.0373 108.133 53.856C107.674 53.6693 107.285 53.432 106.965 53.144L107.301 52.6C107.343 52.5307 107.394 52.4773 107.453 52.44C107.511 52.4027 107.589 52.384 107.685 52.384C107.781 52.384 107.882 52.4213 107.989 52.496C108.095 52.5707 108.223 52.6533 108.373 52.744C108.527 52.8347 108.711 52.9173 108.925 52.992C109.143 53.0667 109.415 53.104 109.741 53.104C110.018 53.104 110.261 53.0693 110.469 53C110.677 52.9253 110.85 52.8267 110.989 52.704C111.127 52.5813 111.229 52.44 111.293 52.28C111.362 52.12 111.397 51.9493 111.397 51.768C111.397 51.544 111.335 51.36 111.213 51.216C111.095 51.0667 110.938 50.9413 110.741 50.84C110.543 50.7333 110.317 50.6427 110.061 50.568C109.81 50.488 109.551 50.4053 109.285 50.32C109.023 50.2347 108.765 50.1387 108.509 50.032C108.258 49.92 108.034 49.7813 107.837 49.616C107.639 49.4507 107.479 49.248 107.357 49.008C107.239 48.7627 107.181 48.4667 107.181 48.12C107.181 47.8107 107.245 47.5147 107.373 47.232C107.501 46.944 107.687 46.6933 107.933 46.48C108.178 46.2613 108.479 46.088 108.837 45.96C109.194 45.832 109.602 45.768 110.061 45.768C110.594 45.768 111.071 45.8533 111.493 46.024C111.919 46.1893 112.287 46.4187 112.597 46.712L112.277 47.232ZM120.124 54.128C119.484 54.128 118.991 53.9493 118.644 53.592C118.303 53.2347 118.132 52.72 118.132 52.048V47.088H117.156C117.071 47.088 116.999 47.064 116.94 47.016C116.881 46.9627 116.852 46.8827 116.852 46.776V46.208L118.18 46.04L118.508 43.536C118.519 43.456 118.553 43.392 118.612 43.344C118.671 43.2907 118.745 43.264 118.836 43.264H119.556V46.056H121.876V47.088H119.556V51.952C119.556 52.2933 119.639 52.5467 119.804 52.712C119.969 52.8773 120.183 52.96 120.444 52.96C120.593 52.96 120.721 52.9413 120.828 52.904C120.94 52.8613 121.036 52.816 121.116 52.768C121.196 52.72 121.263 52.6773 121.316 52.64C121.375 52.5973 121.425 52.576 121.468 52.576C121.543 52.576 121.609 52.6213 121.668 52.712L122.084 53.392C121.839 53.6213 121.543 53.8027 121.196 53.936C120.849 54.064 120.492 54.128 120.124 54.128ZM126.917 45.768C127.509 45.768 128.042 45.8667 128.517 46.064C128.997 46.2613 129.402 46.5413 129.733 46.904C130.069 47.2667 130.325 47.7067 130.501 48.224C130.682 48.736 130.773 49.3093 130.773 49.944C130.773 50.584 130.682 51.16 130.501 51.672C130.325 52.184 130.069 52.6213 129.733 52.984C129.402 53.3467 128.997 53.6267 128.517 53.824C128.042 54.016 127.509 54.112 126.917 54.112C126.325 54.112 125.789 54.016 125.309 53.824C124.834 53.6267 124.429 53.3467 124.093 52.984C123.757 52.6213 123.498 52.184 123.317 51.672C123.135 51.16 123.045 50.584 123.045 49.944C123.045 49.3093 123.135 48.736 123.317 48.224C123.498 47.7067 123.757 47.2667 124.093 46.904C124.429 46.5413 124.834 46.2613 125.309 46.064C125.789 45.8667 126.325 45.768 126.917 45.768ZM126.917 53C127.717 53 128.314 52.7333 128.709 52.2C129.103 51.6613 129.301 50.912 129.301 49.952C129.301 48.9867 129.103 48.2347 128.709 47.696C128.314 47.1573 127.717 46.888 126.917 46.888C126.511 46.888 126.159 46.9573 125.861 47.096C125.562 47.2347 125.311 47.4347 125.109 47.696C124.911 47.9573 124.762 48.28 124.661 48.664C124.565 49.0427 124.517 49.472 124.517 49.952C124.517 50.432 124.565 50.8613 124.661 51.24C124.762 51.6187 124.911 51.9387 125.109 52.2C125.311 52.456 125.562 52.6533 125.861 52.792C126.159 52.9307 126.511 53 126.917 53ZM135.807 45.768C136.399 45.768 136.933 45.8667 137.407 46.064C137.887 46.2613 138.293 46.5413 138.623 46.904C138.959 47.2667 139.215 47.7067 139.391 48.224C139.573 48.736 139.663 49.3093 139.663 49.944C139.663 50.584 139.573 51.16 139.391 51.672C139.215 52.184 138.959 52.6213 138.623 52.984C138.293 53.3467 137.887 53.6267 137.407 53.824C136.933 54.016 136.399 54.112 135.807 54.112C135.215 54.112 134.679 54.016 134.199 53.824C133.725 53.6267 133.319 53.3467 132.983 52.984C132.647 52.6213 132.389 52.184 132.207 51.672C132.026 51.16 131.935 50.584 131.935 49.944C131.935 49.3093 132.026 48.736 132.207 48.224C132.389 47.7067 132.647 47.2667 132.983 46.904C133.319 46.5413 133.725 46.2613 134.199 46.064C134.679 45.8667 135.215 45.768 135.807 45.768ZM135.807 53C136.607 53 137.205 52.7333 137.599 52.2C137.994 51.6613 138.191 50.912 138.191 49.952C138.191 48.9867 137.994 48.2347 137.599 47.696C137.205 47.1573 136.607 46.888 135.807 46.888C135.402 46.888 135.05 46.9573 134.751 47.096C134.453 47.2347 134.202 47.4347 133.999 47.696C133.802 47.9573 133.653 48.28 133.551 48.664C133.455 49.0427 133.407 49.472 133.407 49.952C133.407 50.432 133.455 50.8613 133.551 51.24C133.653 51.6187 133.802 51.9387 133.999 52.2C134.202 52.456 134.453 52.6533 134.751 52.792C135.05 52.9307 135.402 53 135.807 53ZM146.096 42.216V54H144.672V42.216H146.096ZM151.886 45.768C152.478 45.768 153.011 45.8667 153.486 46.064C153.966 46.2613 154.371 46.5413 154.702 46.904C155.038 47.2667 155.294 47.7067 155.47 48.224C155.651 48.736 155.742 49.3093 155.742 49.944C155.742 50.584 155.651 51.16 155.47 51.672C155.294 52.184 155.038 52.6213 154.702 52.984C154.371 53.3467 153.966 53.6267 153.486 53.824C153.011 54.016 152.478 54.112 151.886 54.112C151.294 54.112 150.758 54.016 150.278 53.824C149.803 53.6267 149.398 53.3467 149.062 52.984C148.726 52.6213 148.467 52.184 148.286 51.672C148.104 51.16 148.014 50.584 148.014 49.944C148.014 49.3093 148.104 48.736 148.286 48.224C148.467 47.7067 148.726 47.2667 149.062 46.904C149.398 46.5413 149.803 46.2613 150.278 46.064C150.758 45.8667 151.294 45.768 151.886 45.768ZM151.886 53C152.686 53 153.283 52.7333 153.678 52.2C154.072 51.6613 154.27 50.912 154.27 49.952C154.27 48.9867 154.072 48.2347 153.678 47.696C153.283 47.1573 152.686 46.888 151.886 46.888C151.48 46.888 151.128 46.9573 150.83 47.096C150.531 47.2347 150.28 47.4347 150.078 47.696C149.88 47.9573 149.731 48.28 149.63 48.664C149.534 49.0427 149.486 49.472 149.486 49.952C149.486 50.432 149.534 50.8613 149.63 51.24C149.731 51.6187 149.88 51.9387 150.078 52.2C150.28 52.456 150.531 52.6533 150.83 52.792C151.128 52.9307 151.48 53 151.886 53ZM157.496 54V45.896H158.344C158.547 45.896 158.675 45.9947 158.728 46.192L158.84 47.072C159.192 46.6827 159.584 46.368 160.016 46.128C160.453 45.888 160.957 45.768 161.528 45.768C161.971 45.768 162.36 45.8427 162.696 45.992C163.037 46.136 163.32 46.344 163.544 46.616C163.773 46.8827 163.947 47.2053 164.064 47.584C164.181 47.9627 164.24 48.3813 164.24 48.84V54H162.816V48.84C162.816 48.2267 162.675 47.752 162.392 47.416C162.115 47.0747 161.688 46.904 161.112 46.904C160.691 46.904 160.296 47.0053 159.928 47.208C159.565 47.4107 159.229 47.6853 158.92 48.032V54H157.496ZM169.115 45.76C169.467 45.76 169.795 45.8 170.099 45.88C170.408 45.9547 170.688 46.0667 170.939 46.216H173.139V46.744C173.139 46.92 173.027 47.032 172.803 47.08L171.883 47.208C172.064 47.5547 172.155 47.9413 172.155 48.368C172.155 48.7627 172.077 49.1227 171.923 49.448C171.773 49.768 171.563 50.0427 171.291 50.272C171.024 50.5013 170.704 50.6773 170.331 50.8C169.963 50.9227 169.557 50.984 169.115 50.984C168.736 50.984 168.379 50.9387 168.043 50.848C167.872 50.9547 167.741 51.0693 167.651 51.192C167.565 51.3147 167.523 51.4347 167.523 51.552C167.523 51.744 167.6 51.8907 167.755 51.992C167.909 52.088 168.115 52.1573 168.371 52.2C168.627 52.2427 168.917 52.2693 169.243 52.28C169.568 52.2907 169.899 52.3093 170.235 52.336C170.576 52.3573 170.909 52.3973 171.235 52.456C171.56 52.5147 171.851 52.6107 172.107 52.744C172.363 52.8773 172.568 53.0613 172.723 53.296C172.877 53.5307 172.955 53.8347 172.955 54.208C172.955 54.5547 172.867 54.8907 172.691 55.216C172.52 55.5413 172.272 55.8293 171.947 56.08C171.621 56.336 171.224 56.5387 170.755 56.688C170.285 56.8427 169.755 56.92 169.163 56.92C168.571 56.92 168.051 56.8613 167.603 56.744C167.16 56.6267 166.792 56.4693 166.499 56.272C166.205 56.0747 165.984 55.8453 165.835 55.584C165.691 55.328 165.619 55.0587 165.619 54.776C165.619 54.376 165.744 54.0373 165.995 53.76C166.251 53.4773 166.6 53.2533 167.043 53.088C166.813 52.9813 166.629 52.84 166.491 52.664C166.357 52.4827 166.291 52.2427 166.291 51.944C166.291 51.8267 166.312 51.7067 166.355 51.584C166.397 51.456 166.461 51.3307 166.547 51.208C166.637 51.0853 166.747 50.968 166.875 50.856C167.003 50.744 167.152 50.6453 167.323 50.56C166.923 50.336 166.608 50.04 166.379 49.672C166.155 49.2987 166.043 48.864 166.043 48.368C166.043 47.9733 166.117 47.616 166.267 47.296C166.421 46.9707 166.635 46.696 166.907 46.472C167.179 46.2427 167.501 46.0667 167.875 45.944C168.253 45.8213 168.667 45.76 169.115 45.76ZM171.643 54.44C171.643 54.2373 171.587 54.0747 171.475 53.952C171.363 53.8293 171.211 53.736 171.019 53.672C170.827 53.6027 170.605 53.552 170.355 53.52C170.104 53.488 169.84 53.4667 169.563 53.456C169.285 53.44 169.003 53.424 168.715 53.408C168.427 53.392 168.152 53.3627 167.891 53.32C167.587 53.464 167.339 53.64 167.147 53.848C166.96 54.056 166.867 54.304 166.867 54.592C166.867 54.7733 166.912 54.9413 167.003 55.096C167.099 55.256 167.243 55.392 167.435 55.504C167.627 55.6213 167.867 55.712 168.155 55.776C168.448 55.8453 168.792 55.88 169.187 55.88C169.571 55.88 169.915 55.8453 170.219 55.776C170.523 55.7067 170.779 55.608 170.987 55.48C171.2 55.352 171.363 55.2 171.475 55.024C171.587 54.848 171.643 54.6533 171.643 54.44ZM169.115 50.04C169.403 50.04 169.656 50 169.875 49.92C170.099 49.84 170.285 49.728 170.435 49.584C170.584 49.44 170.696 49.2693 170.771 49.072C170.845 48.8693 170.883 48.648 170.883 48.408C170.883 47.912 170.731 47.5173 170.427 47.224C170.128 46.9307 169.691 46.784 169.115 46.784C168.544 46.784 168.107 46.9307 167.803 47.224C167.504 47.5173 167.355 47.912 167.355 48.408C167.355 48.648 167.392 48.8693 167.467 49.072C167.547 49.2693 167.661 49.44 167.811 49.584C167.96 49.728 168.144 49.84 168.363 49.92C168.581 50 168.832 50.04 169.115 50.04Z" fill="black"/>
<circle cx="11" cy="30" r="8" fill="white" stroke="#0064D1" stroke-width="6"/>
</svg>
