<svg width="208" height="108" viewBox="0 0 208 108" fill="none" xmlns="http://www.w3.org/2000/svg">
<path d="M44.04 97.272C44.04 98.1307 43.904 98.92 43.632 99.64C43.36 100.355 42.976 100.971 42.48 101.488C41.984 102.005 41.3867 102.408 40.688 102.696C39.9947 102.979 39.2267 103.12 38.384 103.12C37.5413 103.12 36.7733 102.979 36.08 102.696C35.3867 102.408 34.792 102.005 34.296 101.488C33.8 100.971 33.416 100.355 33.144 99.64C32.872 98.92 32.736 98.1307 32.736 97.272C32.736 96.4133 32.872 95.6267 33.144 94.912C33.416 94.192 33.8 93.5733 34.296 93.056C34.792 92.5333 35.3867 92.128 36.08 91.84C36.7733 91.552 37.5413 91.408 38.384 91.408C39.2267 91.408 39.9947 91.552 40.688 91.84C41.3867 92.128 41.984 92.5333 42.48 93.056C42.976 93.5733 43.36 94.192 43.632 94.912C43.904 95.6267 44.04 96.4133 44.04 97.272ZM42.448 97.272C42.448 96.568 42.352 95.936 42.16 95.376C41.968 94.816 41.696 94.344 41.344 93.96C40.992 93.5707 40.5653 93.272 40.064 93.064C39.5627 92.856 39.0027 92.752 38.384 92.752C37.7707 92.752 37.2133 92.856 36.712 93.064C36.2107 93.272 35.7813 93.5707 35.424 93.96C35.072 94.344 34.8 94.816 34.608 95.376C34.416 95.936 34.32 96.568 34.32 97.272C34.32 97.976 34.416 98.608 34.608 99.168C34.8 99.7227 35.072 100.195 35.424 100.584C35.7813 100.968 36.2107 101.264 36.712 101.472C37.2133 101.675 37.7707 101.776 38.384 101.776C39.0027 101.776 39.5627 101.675 40.064 101.472C40.5653 101.264 40.992 100.968 41.344 100.584C41.696 100.195 41.968 99.7227 42.16 99.168C42.352 98.608 42.448 97.976 42.448 97.272ZM45.9336 105.744V94.896H46.7816C46.9843 94.896 47.1123 94.9947 47.1656 95.192L47.2856 96.152C47.6323 95.7307 48.027 95.392 48.4696 95.136C48.9176 94.88 49.4323 94.752 50.0136 94.752C50.4776 94.752 50.899 94.8427 51.2776 95.024C51.6563 95.2 51.979 95.464 52.2456 95.816C52.5123 96.1627 52.7176 96.5947 52.8616 97.112C53.0056 97.6293 53.0776 98.224 53.0776 98.896C53.0776 99.4933 52.9976 100.051 52.8376 100.568C52.6776 101.08 52.4483 101.525 52.1496 101.904C51.851 102.277 51.483 102.573 51.0456 102.792C50.6136 103.005 50.1256 103.112 49.5816 103.112C49.0803 103.112 48.651 103.029 48.2936 102.864C47.9416 102.699 47.6296 102.464 47.3576 102.16V105.744H45.9336ZM49.5416 95.904C49.0776 95.904 48.6696 96.0107 48.3176 96.224C47.971 96.4373 47.651 96.7387 47.3576 97.128V101.048C47.619 101.4 47.9043 101.648 48.2136 101.792C48.5283 101.936 48.8776 102.008 49.2616 102.008C50.0136 102.008 50.5923 101.739 50.9976 101.2C51.403 100.661 51.6056 99.8933 51.6056 98.896C51.6056 98.368 51.5576 97.9147 51.4616 97.536C51.371 97.1573 51.2376 96.848 51.0616 96.608C50.8856 96.3627 50.6696 96.184 50.4136 96.072C50.1576 95.96 49.867 95.904 49.5416 95.904ZM57.2178 103.128C56.5778 103.128 56.0844 102.949 55.7378 102.592C55.3964 102.235 55.2258 101.72 55.2258 101.048V96.088H54.2498C54.1644 96.088 54.0924 96.064 54.0338 96.016C53.9751 95.9627 53.9458 95.8827 53.9458 95.776V95.208L55.2738 95.04L55.6018 92.536C55.6124 92.456 55.6471 92.392 55.7057 92.344C55.7644 92.2907 55.8391 92.264 55.9298 92.264H56.6498V95.056H58.9698V96.088H56.6498V100.952C56.6498 101.293 56.7324 101.547 56.8978 101.712C57.0631 101.877 57.2764 101.96 57.5378 101.96C57.6871 101.96 57.8151 101.941 57.9218 101.904C58.0338 101.861 58.1298 101.816 58.2098 101.768C58.2898 101.72 58.3564 101.677 58.4098 101.64C58.4684 101.597 58.5191 101.576 58.5618 101.576C58.6364 101.576 58.7031 101.621 58.7618 101.712L59.1778 102.392C58.9324 102.621 58.6364 102.803 58.2898 102.936C57.9431 103.064 57.5858 103.128 57.2178 103.128ZM62.3145 94.896V103H60.8905V94.896H62.3145ZM62.6345 92.352C62.6345 92.4907 62.6052 92.6213 62.5465 92.744C62.4932 92.8613 62.4185 92.968 62.3225 93.064C62.2318 93.1547 62.1252 93.2267 62.0025 93.28C61.8798 93.3333 61.7492 93.36 61.6105 93.36C61.4718 93.36 61.3412 93.3333 61.2185 93.28C61.1012 93.2267 60.9945 93.1547 60.8985 93.064C60.8078 92.968 60.7358 92.8613 60.6825 92.744C60.6292 92.6213 60.6025 92.4907 60.6025 92.352C60.6025 92.2133 60.6292 92.0827 60.6825 91.96C60.7358 91.832 60.8078 91.7227 60.8985 91.632C60.9945 91.536 61.1012 91.4613 61.2185 91.408C61.3412 91.3547 61.4718 91.328 61.6105 91.328C61.7492 91.328 61.8798 91.3547 62.0025 91.408C62.1252 91.4613 62.2318 91.536 62.3225 91.632C62.4185 91.7227 62.4932 91.832 62.5465 91.96C62.6052 92.0827 62.6345 92.2133 62.6345 92.352ZM68.1043 94.768C68.6963 94.768 69.2296 94.8667 69.7043 95.064C70.1843 95.2613 70.5896 95.5413 70.9203 95.904C71.2563 96.2667 71.5123 96.7067 71.6883 97.224C71.8696 97.736 71.9603 98.3093 71.9603 98.944C71.9603 99.584 71.8696 100.16 71.6883 100.672C71.5123 101.184 71.2563 101.621 70.9203 101.984C70.5896 102.347 70.1843 102.627 69.7043 102.824C69.2296 103.016 68.6963 103.112 68.1043 103.112C67.5123 103.112 66.9763 103.016 66.4963 102.824C66.0216 102.627 65.6163 102.347 65.2803 101.984C64.9443 101.621 64.6856 101.184 64.5043 100.672C64.3229 100.16 64.2323 99.584 64.2323 98.944C64.2323 98.3093 64.3229 97.736 64.5043 97.224C64.6856 96.7067 64.9443 96.2667 65.2803 95.904C65.6163 95.5413 66.0216 95.2613 66.4963 95.064C66.9763 94.8667 67.5123 94.768 68.1043 94.768ZM68.1043 102C68.9043 102 69.5016 101.733 69.8963 101.2C70.2909 100.661 70.4883 99.912 70.4883 98.952C70.4883 97.9867 70.2909 97.2347 69.8963 96.696C69.5016 96.1573 68.9043 95.888 68.1043 95.888C67.6989 95.888 67.3469 95.9573 67.0483 96.096C66.7496 96.2347 66.4989 96.4347 66.2963 96.696C66.0989 96.9573 65.9496 97.28 65.8483 97.664C65.7523 98.0427 65.7043 98.472 65.7043 98.952C65.7043 99.432 65.7523 99.8613 65.8483 100.24C65.9496 100.619 66.0989 100.939 66.2963 101.2C66.4989 101.456 66.7496 101.653 67.0483 101.792C67.3469 101.931 67.6989 102 68.1043 102ZM73.7149 103V94.896H74.5629C74.7655 94.896 74.8935 94.9947 74.9469 95.192L75.0589 96.072C75.4109 95.6827 75.8029 95.368 76.2349 95.128C76.6722 94.888 77.1762 94.768 77.7469 94.768C78.1895 94.768 78.5789 94.8427 78.9149 94.992C79.2562 95.136 79.5389 95.344 79.7629 95.616C79.9922 95.8827 80.1655 96.2053 80.2829 96.584C80.4002 96.9627 80.4589 97.3813 80.4589 97.84V103H79.0349V97.84C79.0349 97.2267 78.8935 96.752 78.6109 96.416C78.3335 96.0747 77.9069 95.904 77.3309 95.904C76.9095 95.904 76.5149 96.0053 76.1469 96.208C75.7842 96.4107 75.4482 96.6853 75.1389 97.032V103H73.7149ZM89.3393 91.408C89.8246 91.408 90.2779 91.48 90.6993 91.624C91.1206 91.768 91.4833 91.9787 91.7873 92.256C92.0966 92.528 92.3393 92.8613 92.5153 93.256C92.6913 93.6507 92.7793 94.0987 92.7793 94.6C92.7793 95.0267 92.7153 95.4213 92.5873 95.784C92.4593 96.1467 92.2859 96.496 92.0673 96.832C91.8486 97.1627 91.5953 97.4853 91.3073 97.8C91.0246 98.1093 90.7233 98.4267 90.4033 98.752L87.3873 101.84C87.6006 101.781 87.8166 101.736 88.0353 101.704C88.2539 101.667 88.4646 101.648 88.6673 101.648H92.5073C92.6619 101.648 92.7846 101.693 92.8753 101.784C92.9659 101.875 93.0113 101.992 93.0113 102.136V103H85.3633V102.512C85.3633 102.411 85.3819 102.307 85.4193 102.2C85.4619 102.093 85.5286 101.995 85.6193 101.904L89.2913 98.216C89.5953 97.9067 89.8726 97.6107 90.1233 97.328C90.3739 97.04 90.5873 96.752 90.7633 96.464C90.9446 96.176 91.0833 95.8853 91.1793 95.592C91.2753 95.2933 91.3233 94.976 91.3233 94.64C91.3233 94.304 91.2699 94.0107 91.1633 93.76C91.0566 93.504 90.9099 93.2933 90.7233 93.128C90.5366 92.9627 90.3179 92.84 90.0673 92.76C89.8166 92.6747 89.5473 92.632 89.2593 92.632C88.9713 92.632 88.7046 92.6747 88.4593 92.76C88.2139 92.8453 87.9953 92.9653 87.8033 93.12C87.6166 93.2693 87.4566 93.448 87.3233 93.656C87.1953 93.864 87.1046 94.0933 87.0513 94.344C87.0086 94.4987 86.9446 94.6107 86.8593 94.68C86.7739 94.7493 86.6619 94.784 86.5233 94.784C86.4966 94.784 86.4673 94.784 86.4353 94.784C86.4086 94.7787 86.3766 94.7733 86.3393 94.768L85.5953 94.64C85.6699 94.1173 85.8139 93.656 86.0273 93.256C86.2406 92.8507 86.5099 92.512 86.8353 92.24C87.1659 91.968 87.5419 91.7627 87.9633 91.624C88.3899 91.48 88.8486 91.408 89.3393 91.408Z" fill="black"/>
<circle cx="11" cy="97" r="10" fill="white" stroke="#D8D8D8" stroke-width="2"/>
<path d="M35.096 11.216V16H33.552V4.536H36.792C37.5173 4.536 38.144 4.61067 38.672 4.76C39.2 4.904 39.6347 5.11467 39.976 5.392C40.3227 5.66933 40.5787 6.00533 40.744 6.4C40.9093 6.78933 40.992 7.22667 40.992 7.712C40.992 8.11733 40.928 8.496 40.8 8.848C40.672 9.2 40.4853 9.51733 40.24 9.8C40 10.0773 39.704 10.3147 39.352 10.512C39.0053 10.7093 38.6107 10.8587 38.168 10.96C38.36 11.072 38.5307 11.2347 38.68 11.448L42.024 16H40.648C40.3653 16 40.1573 15.8907 40.024 15.672L37.048 11.576C36.9573 11.448 36.8587 11.3573 36.752 11.304C36.6453 11.2453 36.4853 11.216 36.272 11.216H35.096ZM35.096 10.088H36.72C37.1733 10.088 37.5707 10.0347 37.912 9.928C38.2587 9.816 38.5467 9.66133 38.776 9.464C39.0107 9.26133 39.1867 9.02133 39.304 8.744C39.4213 8.46667 39.48 8.16 39.48 7.824C39.48 7.14133 39.2533 6.62667 38.8 6.28C38.352 5.93333 37.6827 5.76 36.792 5.76H35.096V10.088ZM49.4169 16H48.7849C48.6462 16 48.5342 15.9787 48.4489 15.936C48.3635 15.8933 48.3075 15.8027 48.2809 15.664L48.1209 14.912C47.9075 15.104 47.6995 15.2773 47.4969 15.432C47.2942 15.5813 47.0809 15.7093 46.8569 15.816C46.6329 15.9173 46.3929 15.9947 46.1369 16.048C45.8862 16.1013 45.6062 16.128 45.2969 16.128C44.9822 16.128 44.6862 16.0853 44.4089 16C44.1369 15.9093 43.8995 15.776 43.6969 15.6C43.4942 15.424 43.3315 15.2027 43.2089 14.936C43.0915 14.664 43.0329 14.344 43.0329 13.976C43.0329 13.656 43.1209 13.3493 43.2969 13.056C43.4729 12.7573 43.7555 12.4933 44.1449 12.264C44.5395 12.0347 45.0542 11.848 45.6889 11.704C46.3235 11.5547 47.0995 11.4693 48.0169 11.448V10.816C48.0169 10.1867 47.8809 9.712 47.6089 9.392C47.3422 9.06667 46.9449 8.904 46.4169 8.904C46.0702 8.904 45.7769 8.94933 45.5369 9.04C45.3022 9.12533 45.0969 9.224 44.9209 9.336C44.7502 9.44267 44.6009 9.54133 44.4729 9.632C44.3502 9.71733 44.2275 9.76 44.1049 9.76C44.0089 9.76 43.9235 9.736 43.8489 9.688C43.7795 9.63467 43.7235 9.57067 43.6809 9.496L43.4249 9.04C43.8729 8.608 44.3555 8.28533 44.8729 8.072C45.3902 7.85867 45.9635 7.752 46.5929 7.752C47.0462 7.752 47.4489 7.82667 47.8009 7.976C48.1529 8.12533 48.4489 8.33333 48.6889 8.6C48.9289 8.86667 49.1102 9.18933 49.2329 9.568C49.3555 9.94667 49.4169 10.3627 49.4169 10.816V16ZM45.7209 15.128C45.9715 15.128 46.2009 15.104 46.4089 15.056C46.6169 15.0027 46.8115 14.9307 46.9929 14.84C47.1795 14.744 47.3555 14.6293 47.5209 14.496C47.6915 14.3627 47.8569 14.2107 48.0169 14.04V12.352C47.3609 12.3733 46.8035 12.4267 46.3449 12.512C45.8862 12.592 45.5129 12.6987 45.2249 12.832C44.9369 12.9653 44.7262 13.1227 44.5929 13.304C44.4649 13.4853 44.4009 13.688 44.4009 13.912C44.4009 14.1253 44.4355 14.3093 44.5049 14.464C44.5742 14.6187 44.6675 14.7467 44.7849 14.848C44.9022 14.944 45.0409 15.016 45.2009 15.064C45.3609 15.1067 45.5342 15.128 45.7209 15.128ZM57.2783 16C57.0756 16 56.9476 15.9013 56.8943 15.704L56.7663 14.72C56.4196 15.1413 56.0223 15.48 55.5743 15.736C55.1316 15.9867 54.6223 16.112 54.0463 16.112C53.5823 16.112 53.1609 16.024 52.7823 15.848C52.4036 15.6667 52.0809 15.4027 51.8143 15.056C51.5476 14.7093 51.3423 14.2773 51.1983 13.76C51.0543 13.2427 50.9823 12.648 50.9823 11.976C50.9823 11.3787 51.0623 10.824 51.2223 10.312C51.3823 9.79467 51.6116 9.34667 51.9103 8.968C52.2143 8.58933 52.5823 8.29333 53.0143 8.08C53.4463 7.86133 53.9369 7.752 54.4863 7.752C54.9823 7.752 55.4063 7.83733 55.7583 8.008C56.1103 8.17333 56.4249 8.408 56.7023 8.712V4.216H58.1263V16H57.2783ZM54.5182 14.96C54.9823 14.96 55.3876 14.8533 55.7343 14.64C56.0863 14.4267 56.4089 14.1253 56.7023 13.736V9.816C56.4409 9.464 56.1529 9.21867 55.8383 9.08C55.5289 8.936 55.1849 8.864 54.8063 8.864C54.0489 8.864 53.4676 9.13333 53.0623 9.672C52.6569 10.2107 52.4543 10.9787 52.4543 11.976C52.4543 12.504 52.4996 12.9573 52.5903 13.336C52.6809 13.7093 52.8143 14.0187 52.9903 14.264C53.1663 14.504 53.3823 14.68 53.6383 14.792C53.8943 14.904 54.1876 14.96 54.5182 14.96ZM62.0958 7.896V16H60.6718V7.896H62.0958ZM62.4158 5.352C62.4158 5.49067 62.3864 5.62133 62.3278 5.744C62.2744 5.86133 62.1998 5.968 62.1038 6.064C62.0131 6.15467 61.9064 6.22667 61.7838 6.28C61.6611 6.33333 61.5304 6.36 61.3918 6.36C61.2531 6.36 61.1224 6.33333 60.9998 6.28C60.8824 6.22667 60.7758 6.15467 60.6798 6.064C60.5891 5.968 60.5171 5.86133 60.4638 5.744C60.4104 5.62133 60.3838 5.49067 60.3838 5.352C60.3838 5.21333 60.4104 5.08267 60.4638 4.96C60.5171 4.832 60.5891 4.72267 60.6798 4.632C60.7758 4.536 60.8824 4.46133 60.9998 4.408C61.1224 4.35467 61.2531 4.328 61.3918 4.328C61.5304 4.328 61.6611 4.35467 61.7838 4.408C61.9064 4.46133 62.0131 4.536 62.1038 4.632C62.1998 4.72267 62.2744 4.832 62.3278 4.96C62.3864 5.08267 62.4158 5.21333 62.4158 5.352ZM67.8855 7.768C68.4775 7.768 69.0108 7.86667 69.4855 8.064C69.9655 8.26133 70.3708 8.54133 70.7015 8.904C71.0375 9.26667 71.2935 9.70667 71.4695 10.224C71.6508 10.736 71.7415 11.3093 71.7415 11.944C71.7415 12.584 71.6508 13.16 71.4695 13.672C71.2935 14.184 71.0375 14.6213 70.7015 14.984C70.3708 15.3467 69.9655 15.6267 69.4855 15.824C69.0108 16.016 68.4775 16.112 67.8855 16.112C67.2935 16.112 66.7575 16.016 66.2775 15.824C65.8028 15.6267 65.3975 15.3467 65.0615 14.984C64.7255 14.6213 64.4668 14.184 64.2855 13.672C64.1042 13.16 64.0135 12.584 64.0135 11.944C64.0135 11.3093 64.1042 10.736 64.2855 10.224C64.4668 9.70667 64.7255 9.26667 65.0615 8.904C65.3975 8.54133 65.8028 8.26133 66.2775 8.064C66.7575 7.86667 67.2935 7.768 67.8855 7.768ZM67.8855 15C68.6855 15 69.2828 14.7333 69.6775 14.2C70.0722 13.6613 70.2695 12.912 70.2695 11.952C70.2695 10.9867 70.0722 10.2347 69.6775 9.696C69.2828 9.15733 68.6855 8.888 67.8855 8.888C67.4802 8.888 67.1282 8.95733 66.8295 9.096C66.5308 9.23467 66.2802 9.43467 66.0775 9.696C65.8802 9.95733 65.7308 10.28 65.6295 10.664C65.5335 11.0427 65.4855 11.472 65.4855 11.952C65.4855 12.432 65.5335 12.8613 65.6295 13.24C65.7308 13.6187 65.8802 13.9387 66.0775 14.2C66.2802 14.456 66.5308 14.6533 66.8295 14.792C67.1282 14.9307 67.4802 15 67.8855 15ZM76.6379 16V4.216H78.0699V9.064C78.4059 8.67467 78.7899 8.36267 79.2219 8.128C79.6592 7.888 80.1579 7.768 80.7179 7.768C81.1872 7.768 81.6112 7.856 81.9899 8.032C82.3685 8.208 82.6912 8.472 82.9579 8.824C83.2245 9.17067 83.4299 9.60267 83.5739 10.12C83.7179 10.632 83.7899 11.224 83.7899 11.896C83.7899 12.4933 83.7099 13.0507 83.5499 13.568C83.3899 14.08 83.1579 14.5253 82.8539 14.904C82.5552 15.2773 82.1872 15.5733 81.7499 15.792C81.3179 16.0053 80.8299 16.112 80.2859 16.112C79.7632 16.112 79.3179 16.0107 78.9499 15.808C78.5872 15.6053 78.2699 15.3227 77.9979 14.96L77.9259 15.696C77.8832 15.8987 77.7605 16 77.5579 16H76.6379ZM80.2539 8.904C79.7899 8.904 79.3819 9.01067 79.0299 9.224C78.6832 9.43733 78.3632 9.73867 78.0699 10.128V14.048C78.3259 14.4 78.6085 14.648 78.9179 14.792C79.2325 14.936 79.5819 15.008 79.9659 15.008C80.7232 15.008 81.3045 14.7387 81.7099 14.2C82.1152 13.6613 82.3179 12.8933 82.3179 11.896C82.3179 11.368 82.2699 10.9147 82.1739 10.536C82.0832 10.1573 81.9499 9.848 81.7739 9.608C81.5979 9.36267 81.3819 9.184 81.1259 9.072C80.8699 8.96 80.5792 8.904 80.2539 8.904ZM86.7594 7.896V13.064C86.7594 13.6773 86.9007 14.152 87.1834 14.488C87.466 14.824 87.8927 14.992 88.4634 14.992C88.8794 14.992 89.2714 14.8933 89.6394 14.696C90.0074 14.4987 90.346 14.224 90.6554 13.872V7.896H92.0794V16H91.2314C91.0287 16 90.9007 15.9013 90.8474 15.704L90.7354 14.832C90.3834 15.2213 89.9887 15.536 89.5514 15.776C89.114 16.0107 88.6127 16.128 88.0474 16.128C87.6047 16.128 87.2127 16.056 86.8714 15.912C86.5354 15.7627 86.2527 15.5547 86.0234 15.288C85.794 15.0213 85.6207 14.6987 85.5034 14.32C85.3914 13.9413 85.3354 13.5227 85.3354 13.064V7.896H86.7594ZM96.874 16.128C96.234 16.128 95.7407 15.9493 95.394 15.592C95.0527 15.2347 94.882 14.72 94.882 14.048V9.088H93.906C93.8207 9.088 93.7487 9.064 93.69 9.016C93.6313 8.96267 93.602 8.88267 93.602 8.776V8.208L94.93 8.04L95.258 5.536C95.2687 5.456 95.3033 5.392 95.362 5.344C95.4207 5.29067 95.4953 5.264 95.586 5.264H96.306V8.056H98.626V9.088H96.306V13.952C96.306 14.2933 96.3887 14.5467 96.554 14.712C96.7193 14.8773 96.9327 14.96 97.194 14.96C97.3433 14.96 97.4713 14.9413 97.578 14.904C97.69 14.8613 97.786 14.816 97.866 14.768C97.946 14.72 98.0127 14.6773 98.066 14.64C98.1247 14.5973 98.1753 14.576 98.218 14.576C98.2927 14.576 98.3593 14.6213 98.418 14.712L98.834 15.392C98.5887 15.6213 98.2927 15.8027 97.946 15.936C97.5993 16.064 97.242 16.128 96.874 16.128ZM102.843 16.128C102.203 16.128 101.709 15.9493 101.363 15.592C101.021 15.2347 100.851 14.72 100.851 14.048V9.088H99.8748C99.7894 9.088 99.7174 9.064 99.6588 9.016C99.6001 8.96267 99.5708 8.88267 99.5708 8.776V8.208L100.899 8.04L101.227 5.536C101.237 5.456 101.272 5.392 101.331 5.344C101.389 5.29067 101.464 5.264 101.555 5.264H102.275V8.056H104.595V9.088H102.275V13.952C102.275 14.2933 102.357 14.5467 102.523 14.712C102.688 14.8773 102.901 14.96 103.163 14.96C103.312 14.96 103.44 14.9413 103.547 14.904C103.659 14.8613 103.755 14.816 103.835 14.768C103.915 14.72 103.981 14.6773 104.035 14.64C104.093 14.5973 104.144 14.576 104.187 14.576C104.261 14.576 104.328 14.6213 104.387 14.712L104.803 15.392C104.557 15.6213 104.261 15.8027 103.915 15.936C103.568 16.064 103.211 16.128 102.843 16.128ZM109.636 7.768C110.228 7.768 110.761 7.86667 111.236 8.064C111.716 8.26133 112.121 8.54133 112.452 8.904C112.788 9.26667 113.044 9.70667 113.22 10.224C113.401 10.736 113.492 11.3093 113.492 11.944C113.492 12.584 113.401 13.16 113.22 13.672C113.044 14.184 112.788 14.6213 112.452 14.984C112.121 15.3467 111.716 15.6267 111.236 15.824C110.761 16.016 110.228 16.112 109.636 16.112C109.044 16.112 108.508 16.016 108.028 15.824C107.553 15.6267 107.148 15.3467 106.812 14.984C106.476 14.6213 106.217 14.184 106.036 13.672C105.854 13.16 105.764 12.584 105.764 11.944C105.764 11.3093 105.854 10.736 106.036 10.224C106.217 9.70667 106.476 9.26667 106.812 8.904C107.148 8.54133 107.553 8.26133 108.028 8.064C108.508 7.86667 109.044 7.768 109.636 7.768ZM109.636 15C110.436 15 111.033 14.7333 111.428 14.2C111.822 13.6613 112.02 12.912 112.02 11.952C112.02 10.9867 111.822 10.2347 111.428 9.696C111.033 9.15733 110.436 8.888 109.636 8.888C109.23 8.888 108.878 8.95733 108.58 9.096C108.281 9.23467 108.03 9.43467 107.828 9.696C107.63 9.95733 107.481 10.28 107.38 10.664C107.284 11.0427 107.236 11.472 107.236 11.952C107.236 12.432 107.284 12.8613 107.38 13.24C107.481 13.6187 107.63 13.9387 107.828 14.2C108.03 14.456 108.281 14.6533 108.58 14.792C108.878 14.9307 109.23 15 109.636 15ZM115.246 16V7.896H116.094C116.297 7.896 116.425 7.99467 116.478 8.192L116.59 9.072C116.942 8.68267 117.334 8.368 117.766 8.128C118.203 7.888 118.707 7.768 119.278 7.768C119.721 7.768 120.11 7.84267 120.446 7.992C120.787 8.136 121.07 8.344 121.294 8.616C121.523 8.88267 121.697 9.20533 121.814 9.584C121.931 9.96267 121.99 10.3813 121.99 10.84V16H120.566V10.84C120.566 10.2267 120.425 9.752 120.142 9.416C119.865 9.07467 119.438 8.904 118.862 8.904C118.441 8.904 118.046 9.00533 117.678 9.208C117.315 9.41067 116.979 9.68533 116.67 10.032V16H115.246ZM128.815 4.216V16H127.391V4.216H128.815ZM137.276 16H136.644C136.506 16 136.394 15.9787 136.308 15.936C136.223 15.8933 136.167 15.8027 136.14 15.664L135.98 14.912C135.767 15.104 135.559 15.2773 135.356 15.432C135.154 15.5813 134.94 15.7093 134.716 15.816C134.492 15.9173 134.252 15.9947 133.996 16.048C133.746 16.1013 133.466 16.128 133.156 16.128C132.842 16.128 132.546 16.0853 132.268 16C131.996 15.9093 131.759 15.776 131.556 15.6C131.354 15.424 131.191 15.2027 131.068 14.936C130.951 14.664 130.892 14.344 130.892 13.976C130.892 13.656 130.98 13.3493 131.156 13.056C131.332 12.7573 131.615 12.4933 132.004 12.264C132.399 12.0347 132.914 11.848 133.548 11.704C134.183 11.5547 134.959 11.4693 135.876 11.448V10.816C135.876 10.1867 135.74 9.712 135.468 9.392C135.202 9.06667 134.804 8.904 134.276 8.904C133.93 8.904 133.636 8.94933 133.396 9.04C133.162 9.12533 132.956 9.224 132.78 9.336C132.61 9.44267 132.46 9.54133 132.332 9.632C132.21 9.71733 132.087 9.76 131.964 9.76C131.868 9.76 131.783 9.736 131.708 9.688C131.639 9.63467 131.583 9.57067 131.54 9.496L131.284 9.04C131.732 8.608 132.215 8.28533 132.732 8.072C133.25 7.85867 133.823 7.752 134.452 7.752C134.906 7.752 135.308 7.82667 135.66 7.976C136.012 8.12533 136.308 8.33333 136.548 8.6C136.788 8.86667 136.97 9.18933 137.092 9.568C137.215 9.94667 137.276 10.3627 137.276 10.816V16ZM133.58 15.128C133.831 15.128 134.06 15.104 134.268 15.056C134.476 15.0027 134.671 14.9307 134.852 14.84C135.039 14.744 135.215 14.6293 135.38 14.496C135.551 14.3627 135.716 14.2107 135.876 14.04V12.352C135.22 12.3733 134.663 12.4267 134.204 12.512C133.746 12.592 133.372 12.6987 133.084 12.832C132.796 12.9653 132.586 13.1227 132.452 13.304C132.324 13.4853 132.26 13.688 132.26 13.912C132.26 14.1253 132.295 14.3093 132.364 14.464C132.434 14.6187 132.527 14.7467 132.644 14.848C132.762 14.944 132.9 15.016 133.06 15.064C133.22 15.1067 133.394 15.128 133.58 15.128ZM139.482 16V4.216H140.914V9.064C141.25 8.67467 141.634 8.36267 142.066 8.128C142.503 7.888 143.002 7.768 143.562 7.768C144.031 7.768 144.455 7.856 144.834 8.032C145.212 8.208 145.535 8.472 145.802 8.824C146.068 9.17067 146.274 9.60267 146.418 10.12C146.562 10.632 146.634 11.224 146.634 11.896C146.634 12.4933 146.554 13.0507 146.394 13.568C146.234 14.08 146.002 14.5253 145.698 14.904C145.399 15.2773 145.031 15.5733 144.594 15.792C144.162 16.0053 143.674 16.112 143.13 16.112C142.607 16.112 142.162 16.0107 141.794 15.808C141.431 15.6053 141.114 15.3227 140.842 14.96L140.77 15.696C140.727 15.8987 140.604 16 140.402 16H139.482ZM143.098 8.904C142.634 8.904 142.226 9.01067 141.874 9.224C141.527 9.43733 141.207 9.73867 140.914 10.128V14.048C141.17 14.4 141.452 14.648 141.762 14.792C142.076 14.936 142.426 15.008 142.81 15.008C143.567 15.008 144.148 14.7387 144.554 14.2C144.959 13.6613 145.162 12.8933 145.162 11.896C145.162 11.368 145.114 10.9147 145.018 10.536C144.927 10.1573 144.794 9.848 144.618 9.608C144.442 9.36267 144.226 9.184 143.97 9.072C143.714 8.96 143.423 8.904 143.098 8.904ZM151.579 7.768C152.064 7.768 152.512 7.85067 152.923 8.016C153.334 8.176 153.688 8.41067 153.987 8.72C154.286 9.024 154.518 9.40267 154.683 9.856C154.854 10.304 154.939 10.816 154.939 11.392C154.939 11.616 154.915 11.7653 154.867 11.84C154.819 11.9147 154.728 11.952 154.595 11.952H149.203C149.214 12.464 149.283 12.9093 149.411 13.288C149.539 13.6667 149.715 13.984 149.939 14.24C150.163 14.4907 150.43 14.68 150.739 14.808C151.048 14.9307 151.395 14.992 151.779 14.992C152.136 14.992 152.443 14.952 152.699 14.872C152.96 14.7867 153.184 14.696 153.371 14.6C153.558 14.504 153.712 14.416 153.835 14.336C153.963 14.2507 154.072 14.208 154.163 14.208C154.28 14.208 154.371 14.2533 154.435 14.344L154.835 14.864C154.659 15.0773 154.448 15.264 154.203 15.424C153.958 15.5787 153.694 15.7067 153.411 15.808C153.134 15.9093 152.846 15.984 152.547 16.032C152.248 16.0853 151.952 16.112 151.659 16.112C151.099 16.112 150.582 16.0187 150.107 15.832C149.638 15.64 149.23 15.3627 148.883 15C148.542 14.632 148.275 14.1787 148.083 13.64C147.891 13.1013 147.795 12.4827 147.795 11.784C147.795 11.2187 147.88 10.6907 148.051 10.2C148.227 9.70933 148.478 9.28533 148.803 8.928C149.128 8.56533 149.526 8.28267 149.995 8.08C150.464 7.872 150.992 7.768 151.579 7.768ZM151.611 8.816C150.923 8.816 150.382 9.016 149.987 9.416C149.592 9.81067 149.347 10.36 149.251 11.064H153.659C153.659 10.7333 153.614 10.432 153.523 10.16C153.432 9.88267 153.299 9.64533 153.123 9.448C152.947 9.24533 152.731 9.09067 152.475 8.984C152.224 8.872 151.936 8.816 151.611 8.816ZM158.346 4.216V16H156.922V4.216H158.346ZM166.405 16.128C165.765 16.128 165.272 15.9493 164.925 15.592C164.584 15.2347 164.413 14.72 164.413 14.048V9.088H163.437C163.352 9.088 163.28 9.064 163.221 9.016C163.163 8.96267 163.133 8.88267 163.133 8.776V8.208L164.461 8.04L164.789 5.536C164.8 5.456 164.835 5.392 164.893 5.344C164.952 5.29067 165.027 5.264 165.117 5.264H165.837V8.056H168.157V9.088H165.837V13.952C165.837 14.2933 165.92 14.5467 166.085 14.712C166.251 14.8773 166.464 14.96 166.725 14.96C166.875 14.96 167.003 14.9413 167.109 14.904C167.221 14.8613 167.317 14.816 167.397 14.768C167.477 14.72 167.544 14.6773 167.597 14.64C167.656 14.5973 167.707 14.576 167.749 14.576C167.824 14.576 167.891 14.6213 167.949 14.712L168.365 15.392C168.12 15.6213 167.824 15.8027 167.477 15.936C167.131 16.064 166.773 16.128 166.405 16.128ZM169.918 16V4.216H171.342V8.984C171.689 8.616 172.073 8.32267 172.494 8.104C172.915 7.88 173.401 7.768 173.95 7.768C174.393 7.768 174.782 7.84267 175.118 7.992C175.459 8.136 175.742 8.344 175.966 8.616C176.195 8.88267 176.369 9.20533 176.486 9.584C176.603 9.96267 176.662 10.3813 176.662 10.84V16H175.238V10.84C175.238 10.2267 175.097 9.752 174.814 9.416C174.537 9.07467 174.11 8.904 173.534 8.904C173.113 8.904 172.718 9.00533 172.35 9.208C171.987 9.41067 171.651 9.68533 171.342 10.032V16H169.918ZM184.761 16H184.129C183.99 16 183.878 15.9787 183.793 15.936C183.707 15.8933 183.651 15.8027 183.625 15.664L183.465 14.912C183.251 15.104 183.043 15.2773 182.841 15.432C182.638 15.5813 182.425 15.7093 182.201 15.816C181.977 15.9173 181.737 15.9947 181.481 16.048C181.23 16.1013 180.95 16.128 180.641 16.128C180.326 16.128 180.03 16.0853 179.753 16C179.481 15.9093 179.243 15.776 179.041 15.6C178.838 15.424 178.675 15.2027 178.553 14.936C178.435 14.664 178.377 14.344 178.377 13.976C178.377 13.656 178.465 13.3493 178.641 13.056C178.817 12.7573 179.099 12.4933 179.489 12.264C179.883 12.0347 180.398 11.848 181.033 11.704C181.667 11.5547 182.443 11.4693 183.361 11.448V10.816C183.361 10.1867 183.225 9.712 182.953 9.392C182.686 9.06667 182.289 8.904 181.761 8.904C181.414 8.904 181.121 8.94933 180.881 9.04C180.646 9.12533 180.441 9.224 180.265 9.336C180.094 9.44267 179.945 9.54133 179.817 9.632C179.694 9.71733 179.571 9.76 179.449 9.76C179.353 9.76 179.267 9.736 179.193 9.688C179.123 9.63467 179.067 9.57067 179.025 9.496L178.769 9.04C179.217 8.608 179.699 8.28533 180.217 8.072C180.734 7.85867 181.307 7.752 181.937 7.752C182.39 7.752 182.793 7.82667 183.145 7.976C183.497 8.12533 183.793 8.33333 184.033 8.6C184.273 8.86667 184.454 9.18933 184.577 9.568C184.699 9.94667 184.761 10.3627 184.761 10.816V16ZM181.065 15.128C181.315 15.128 181.545 15.104 181.753 15.056C181.961 15.0027 182.155 14.9307 182.337 14.84C182.523 14.744 182.699 14.6293 182.865 14.496C183.035 14.3627 183.201 14.2107 183.361 14.04V12.352C182.705 12.3733 182.147 12.4267 181.689 12.512C181.23 12.592 180.857 12.6987 180.569 12.832C180.281 12.9653 180.07 13.1227 179.937 13.304C179.809 13.4853 179.745 13.688 179.745 13.912C179.745 14.1253 179.779 14.3093 179.849 14.464C179.918 14.6187 180.011 14.7467 180.129 14.848C180.246 14.944 180.385 15.016 180.545 15.064C180.705 15.1067 180.878 15.128 181.065 15.128ZM189.374 16.128C188.734 16.128 188.241 15.9493 187.894 15.592C187.553 15.2347 187.382 14.72 187.382 14.048V9.088H186.406C186.321 9.088 186.249 9.064 186.19 9.016C186.131 8.96267 186.102 8.88267 186.102 8.776V8.208L187.43 8.04L187.758 5.536C187.769 5.456 187.803 5.392 187.862 5.344C187.921 5.29067 187.995 5.264 188.086 5.264H188.806V8.056H191.126V9.088H188.806V13.952C188.806 14.2933 188.889 14.5467 189.054 14.712C189.219 14.8773 189.433 14.96 189.694 14.96C189.843 14.96 189.971 14.9413 190.078 14.904C190.19 14.8613 190.286 14.816 190.366 14.768C190.446 14.72 190.513 14.6773 190.566 14.64C190.625 14.5973 190.675 14.576 190.718 14.576C190.793 14.576 190.859 14.6213 190.918 14.712L191.334 15.392C191.089 15.6213 190.793 15.8027 190.446 15.936C190.099 16.064 189.742 16.128 189.374 16.128ZM32.112 26.896H33.232C33.3493 26.896 33.4453 26.9253 33.52 26.984C33.5947 27.0427 33.6453 27.112 33.672 27.192L35.224 32.408C35.2667 32.6 35.3067 32.7867 35.344 32.968C35.3813 33.144 35.4133 33.3227 35.44 33.504C35.4827 33.3227 35.5307 33.144 35.584 32.968C35.6373 32.7867 35.6933 32.6 35.752 32.408L37.464 27.16C37.4907 27.08 37.536 27.0133 37.6 26.96C37.6693 26.9067 37.7547 26.88 37.856 26.88H38.472C38.5787 26.88 38.6667 26.9067 38.736 26.96C38.8053 27.0133 38.8533 27.08 38.88 27.16L40.552 32.408C40.6107 32.5947 40.6613 32.7787 40.704 32.96C40.752 33.1413 40.7973 33.32 40.84 33.496C40.8667 33.32 40.9013 33.136 40.944 32.944C40.9867 32.752 41.032 32.5733 41.08 32.408L42.664 27.192C42.6907 27.1067 42.7413 27.0373 42.816 26.984C42.8907 26.9253 42.9787 26.896 43.08 26.896H44.152L41.528 35H40.4C40.2613 35 40.1653 34.9093 40.112 34.728L38.32 29.232C38.2773 29.1093 38.2427 28.9867 38.216 28.864C38.1893 28.736 38.1627 28.6107 38.136 28.488C38.1093 28.6107 38.0827 28.736 38.056 28.864C38.0293 28.992 37.9947 29.1173 37.952 29.24L36.136 34.728C36.0773 34.9093 35.968 35 35.808 35H34.736L32.112 26.896ZM45.418 35V26.896H46.234C46.3887 26.896 46.4953 26.9253 46.554 26.984C46.6127 27.0427 46.6527 27.144 46.674 27.288L46.77 28.552C47.0473 27.9867 47.3887 27.5467 47.794 27.232C48.2047 26.912 48.6847 26.752 49.234 26.752C49.458 26.752 49.6607 26.7787 49.842 26.832C50.0233 26.88 50.1913 26.9493 50.346 27.04L50.162 28.104C50.1247 28.2373 50.042 28.304 49.914 28.304C49.8393 28.304 49.7247 28.28 49.57 28.232C49.4153 28.1787 49.1993 28.152 48.922 28.152C48.426 28.152 48.01 28.296 47.674 28.584C47.3433 28.872 47.066 29.2907 46.842 29.84V35H45.418ZM57.5263 35H56.8943C56.7556 35 56.6436 34.9787 56.5583 34.936C56.4729 34.8933 56.4169 34.8027 56.3903 34.664L56.2303 33.912C56.0169 34.104 55.8089 34.2773 55.6063 34.432C55.4036 34.5813 55.1903 34.7093 54.9663 34.816C54.7423 34.9173 54.5023 34.9947 54.2463 35.048C53.9956 35.1013 53.7156 35.128 53.4063 35.128C53.0916 35.128 52.7956 35.0853 52.5182 35C52.2463 34.9093 52.0089 34.776 51.8063 34.6C51.6036 34.424 51.4409 34.2027 51.3183 33.936C51.2009 33.664 51.1423 33.344 51.1423 32.976C51.1423 32.656 51.2303 32.3493 51.4062 32.056C51.5823 31.7573 51.8649 31.4933 52.2543 31.264C52.6489 31.0347 53.1636 30.848 53.7983 30.704C54.4329 30.5547 55.2089 30.4693 56.1263 30.448V29.816C56.1263 29.1867 55.9903 28.712 55.7183 28.392C55.4516 28.0667 55.0543 27.904 54.5263 27.904C54.1796 27.904 53.8863 27.9493 53.6463 28.04C53.4116 28.1253 53.2063 28.224 53.0303 28.336C52.8596 28.4427 52.7103 28.5413 52.5823 28.632C52.4596 28.7173 52.3369 28.76 52.2143 28.76C52.1183 28.76 52.0329 28.736 51.9583 28.688C51.8889 28.6347 51.8329 28.5707 51.7903 28.496L51.5343 28.04C51.9823 27.608 52.4649 27.2853 52.9823 27.072C53.4996 26.8587 54.0729 26.752 54.7023 26.752C55.1556 26.752 55.5583 26.8267 55.9103 26.976C56.2623 27.1253 56.5583 27.3333 56.7983 27.6C57.0383 27.8667 57.2196 28.1893 57.3423 28.568C57.4649 28.9467 57.5263 29.3627 57.5263 29.816V35ZM53.8303 34.128C54.0809 34.128 54.3103 34.104 54.5182 34.056C54.7263 34.0027 54.9209 33.9307 55.1023 33.84C55.2889 33.744 55.4649 33.6293 55.6303 33.496C55.8009 33.3627 55.9663 33.2107 56.1263 33.04V31.352C55.4703 31.3733 54.9129 31.4267 54.4543 31.512C53.9956 31.592 53.6223 31.6987 53.3343 31.832C53.0463 31.9653 52.8356 32.1227 52.7023 32.304C52.5743 32.4853 52.5103 32.688 52.5103 32.912C52.5103 33.1253 52.5449 33.3093 52.6143 33.464C52.6836 33.6187 52.7769 33.7467 52.8943 33.848C53.0116 33.944 53.1503 34.016 53.3103 34.064C53.4703 34.1067 53.6436 34.128 53.8303 34.128ZM59.6836 37.744V26.896H60.5316C60.7343 26.896 60.8623 26.9947 60.9156 27.192L61.0356 28.152C61.3823 27.7307 61.777 27.392 62.2196 27.136C62.6676 26.88 63.1823 26.752 63.7636 26.752C64.2276 26.752 64.649 26.8427 65.0276 27.024C65.4063 27.2 65.729 27.464 65.9956 27.816C66.2623 28.1627 66.4676 28.5947 66.6116 29.112C66.7556 29.6293 66.8276 30.224 66.8276 30.896C66.8276 31.4933 66.7476 32.0507 66.5876 32.568C66.4276 33.08 66.1983 33.5253 65.8996 33.904C65.601 34.2773 65.233 34.5733 64.7956 34.792C64.3636 35.0053 63.8756 35.112 63.3316 35.112C62.8303 35.112 62.401 35.0293 62.0436 34.864C61.6916 34.6987 61.3796 34.464 61.1076 34.16V37.744H59.6836ZM63.2916 27.904C62.8276 27.904 62.4196 28.0107 62.0676 28.224C61.721 28.4373 61.401 28.7387 61.1076 29.128V33.048C61.369 33.4 61.6543 33.648 61.9636 33.792C62.2783 33.936 62.6276 34.008 63.0116 34.008C63.7636 34.008 64.3423 33.7387 64.7476 33.2C65.153 32.6613 65.3556 31.8933 65.3556 30.896C65.3556 30.368 65.3076 29.9147 65.2116 29.536C65.121 29.1573 64.9876 28.848 64.8116 28.608C64.6356 28.3627 64.4196 28.184 64.1636 28.072C63.9076 27.96 63.617 27.904 63.2916 27.904ZM73.1518 28.232C73.0878 28.3493 72.9891 28.408 72.8558 28.408C72.7758 28.408 72.6851 28.3787 72.5838 28.32C72.4824 28.2613 72.3571 28.1973 72.2078 28.128C72.0638 28.0533 71.8904 27.9867 71.6878 27.928C71.4851 27.864 71.2451 27.832 70.9678 27.832C70.7278 27.832 70.5118 27.864 70.3198 27.928C70.1278 27.9867 69.9624 28.0693 69.8238 28.176C69.6904 28.2827 69.5864 28.408 69.5118 28.552C69.4424 28.6907 69.4078 28.8427 69.4078 29.008C69.4078 29.216 69.4664 29.3893 69.5838 29.528C69.7064 29.6667 69.8664 29.7867 70.0638 29.888C70.2611 29.9893 70.4851 30.08 70.7358 30.16C70.9864 30.2347 71.2424 30.3173 71.5038 30.408C71.7704 30.4933 72.0291 30.5893 72.2798 30.696C72.5304 30.8027 72.7544 30.936 72.9518 31.096C73.1491 31.256 73.3064 31.4533 73.4238 31.688C73.5464 31.9173 73.6078 32.1947 73.6078 32.52C73.6078 32.8933 73.5411 33.24 73.4078 33.56C73.2744 33.8747 73.0771 34.1493 72.8158 34.384C72.5544 34.6133 72.2344 34.7947 71.8558 34.928C71.4771 35.0613 71.0398 35.128 70.5438 35.128C69.9784 35.128 69.4664 35.0373 69.0078 34.856C68.5491 34.6693 68.1598 34.432 67.8398 34.144L68.1758 33.6C68.2184 33.5307 68.2691 33.4773 68.3278 33.44C68.3864 33.4027 68.4638 33.384 68.5598 33.384C68.6558 33.384 68.7571 33.4213 68.8638 33.496C68.9704 33.5707 69.0984 33.6533 69.2478 33.744C69.4024 33.8347 69.5864 33.9173 69.7998 33.992C70.0184 34.0667 70.2904 34.104 70.6158 34.104C70.8931 34.104 71.1358 34.0693 71.3438 34C71.5518 33.9253 71.7251 33.8267 71.8637 33.704C72.0024 33.5813 72.1038 33.44 72.1678 33.28C72.2371 33.12 72.2718 32.9493 72.2718 32.768C72.2718 32.544 72.2104 32.36 72.0878 32.216C71.9704 32.0667 71.8131 31.9413 71.6158 31.84C71.4184 31.7333 71.1918 31.6427 70.9358 31.568C70.6851 31.488 70.4264 31.4053 70.1598 31.32C69.8984 31.2347 69.6398 31.1387 69.3838 31.032C69.1331 30.92 68.9091 30.7813 68.7118 30.616C68.5144 30.4507 68.3544 30.248 68.2318 30.008C68.1144 29.7627 68.0558 29.4667 68.0558 29.12C68.0558 28.8107 68.1198 28.5147 68.2478 28.232C68.3758 27.944 68.5624 27.6933 68.8078 27.48C69.0531 27.2613 69.3544 27.088 69.7118 26.96C70.0691 26.832 70.4771 26.768 70.9358 26.768C71.4691 26.768 71.9464 26.8533 72.3678 27.024C72.7944 27.1893 73.1624 27.4187 73.4718 27.712L73.1518 28.232ZM80.999 35.128C80.359 35.128 79.8657 34.9493 79.519 34.592C79.1777 34.2347 79.007 33.72 79.007 33.048V28.088H78.031C77.9457 28.088 77.8737 28.064 77.815 28.016C77.7563 27.9627 77.727 27.8827 77.727 27.776V27.208L79.055 27.04L79.383 24.536C79.3937 24.456 79.4283 24.392 79.487 24.344C79.5457 24.2907 79.6203 24.264 79.711 24.264H80.431V27.056H82.751V28.088H80.431V32.952C80.431 33.2933 80.5137 33.5467 80.679 33.712C80.8443 33.8773 81.0577 33.96 81.319 33.96C81.4683 33.96 81.5963 33.9413 81.703 33.904C81.815 33.8613 81.911 33.816 81.991 33.768C82.071 33.72 82.1377 33.6773 82.191 33.64C82.2497 33.5973 82.3003 33.576 82.343 33.576C82.4177 33.576 82.4843 33.6213 82.543 33.712L82.959 34.392C82.7137 34.6213 82.4177 34.8027 82.071 34.936C81.7243 35.064 81.367 35.128 80.999 35.128ZM87.7918 26.768C88.3838 26.768 88.9171 26.8667 89.3918 27.064C89.8718 27.2613 90.2771 27.5413 90.6078 27.904C90.9438 28.2667 91.1998 28.7067 91.3758 29.224C91.5571 29.736 91.6478 30.3093 91.6478 30.944C91.6478 31.584 91.5571 32.16 91.3758 32.672C91.1998 33.184 90.9438 33.6213 90.6078 33.984C90.2771 34.3467 89.8718 34.6267 89.3918 34.824C88.9171 35.016 88.3838 35.112 87.7918 35.112C87.1998 35.112 86.6638 35.016 86.1838 34.824C85.7091 34.6267 85.3038 34.3467 84.9678 33.984C84.6318 33.6213 84.3731 33.184 84.1918 32.672C84.0104 32.16 83.9198 31.584 83.9198 30.944C83.9198 30.3093 84.0104 29.736 84.1918 29.224C84.3731 28.7067 84.6318 28.2667 84.9678 27.904C85.3038 27.5413 85.7091 27.2613 86.1838 27.064C86.6638 26.8667 87.1998 26.768 87.7918 26.768ZM87.7918 34C88.5918 34 89.1891 33.7333 89.5838 33.2C89.9784 32.6613 90.1758 31.912 90.1758 30.952C90.1758 29.9867 89.9784 29.2347 89.5838 28.696C89.1891 28.1573 88.5918 27.888 87.7918 27.888C87.3864 27.888 87.0344 27.9573 86.7358 28.096C86.4371 28.2347 86.1864 28.4347 85.9838 28.696C85.7864 28.9573 85.6371 29.28 85.5358 29.664C85.4398 30.0427 85.3918 30.472 85.3918 30.952C85.3918 31.432 85.4398 31.8613 85.5358 32.24C85.6371 32.6187 85.7864 32.9387 85.9838 33.2C86.1864 33.456 86.4371 33.6533 86.7358 33.792C87.0344 33.9307 87.3864 34 87.7918 34ZM96.4961 35V26.896H97.3441C97.5468 26.896 97.6748 26.9947 97.7281 27.192L97.8321 28.024C98.1308 27.656 98.4641 27.3547 98.8321 27.12C99.2055 26.8853 99.6375 26.768 100.128 26.768C100.677 26.768 101.12 26.92 101.456 27.224C101.797 27.528 102.043 27.9387 102.192 28.456C102.304 28.1627 102.451 27.9093 102.632 27.696C102.819 27.4827 103.027 27.3067 103.256 27.168C103.485 27.0293 103.728 26.928 103.984 26.864C104.245 26.8 104.509 26.768 104.776 26.768C105.203 26.768 105.581 26.8373 105.912 26.976C106.248 27.1093 106.531 27.3067 106.76 27.568C106.995 27.8293 107.173 28.152 107.296 28.536C107.419 28.9147 107.48 29.3493 107.48 29.84V35H106.056V29.84C106.056 29.2053 105.917 28.7253 105.64 28.4C105.363 28.0693 104.96 27.904 104.432 27.904C104.197 27.904 103.973 27.9467 103.76 28.032C103.552 28.112 103.368 28.232 103.208 28.392C103.048 28.552 102.92 28.7547 102.824 29C102.733 29.24 102.688 29.52 102.688 29.84V35H101.264V29.84C101.264 29.1893 101.133 28.704 100.872 28.384C100.611 28.064 100.229 27.904 99.7281 27.904C99.3761 27.904 99.0481 28 98.7441 28.192C98.4455 28.3787 98.1708 28.6347 97.9201 28.96V35H96.4961ZM110.869 26.896V32.064C110.869 32.6773 111.01 33.152 111.293 33.488C111.575 33.824 112.002 33.992 112.573 33.992C112.989 33.992 113.381 33.8933 113.749 33.696C114.117 33.4987 114.455 33.224 114.765 32.872V26.896H116.189V35H115.341C115.138 35 115.01 34.9013 114.957 34.704L114.845 33.832C114.493 34.2213 114.098 34.536 113.661 34.776C113.223 35.0107 112.722 35.128 112.157 35.128C111.714 35.128 111.322 35.056 110.981 34.912C110.645 34.7627 110.362 34.5547 110.133 34.288C109.903 34.0213 109.73 33.6987 109.613 33.32C109.501 32.9413 109.445 32.5227 109.445 32.064V26.896H110.869ZM120.111 23.216V35H118.687V23.216H120.111ZM125.077 35.128C124.437 35.128 123.944 34.9493 123.597 34.592C123.256 34.2347 123.085 33.72 123.085 33.048V28.088H122.109C122.024 28.088 121.952 28.064 121.893 28.016C121.834 27.9627 121.805 27.8827 121.805 27.776V27.208L123.133 27.04L123.461 24.536C123.472 24.456 123.506 24.392 123.565 24.344C123.624 24.2907 123.698 24.264 123.789 24.264H124.509V27.056H126.829V28.088H124.509V32.952C124.509 33.2933 124.592 33.5467 124.757 33.712C124.922 33.8773 125.136 33.96 125.397 33.96C125.546 33.96 125.674 33.9413 125.781 33.904C125.893 33.8613 125.989 33.816 126.069 33.768C126.149 33.72 126.216 33.6773 126.269 33.64C126.328 33.5973 126.378 33.576 126.421 33.576C126.496 33.576 126.562 33.6213 126.621 33.712L127.037 34.392C126.792 34.6213 126.496 34.8027 126.149 34.936C125.802 35.064 125.445 35.128 125.077 35.128ZM130.174 26.896V35H128.75V26.896H130.174ZM130.494 24.352C130.494 24.4907 130.465 24.6213 130.406 24.744C130.353 24.8613 130.278 24.968 130.182 25.064C130.091 25.1547 129.985 25.2267 129.862 25.28C129.739 25.3333 129.609 25.36 129.47 25.36C129.331 25.36 129.201 25.3333 129.078 25.28C128.961 25.2267 128.854 25.1547 128.758 25.064C128.667 24.968 128.595 24.8613 128.542 24.744C128.489 24.6213 128.462 24.4907 128.462 24.352C128.462 24.2133 128.489 24.0827 128.542 23.96C128.595 23.832 128.667 23.7227 128.758 23.632C128.854 23.536 128.961 23.4613 129.078 23.408C129.201 23.3547 129.331 23.328 129.47 23.328C129.609 23.328 129.739 23.3547 129.862 23.408C129.985 23.4613 130.091 23.536 130.182 23.632C130.278 23.7227 130.353 23.832 130.406 23.96C130.465 24.0827 130.494 24.2133 130.494 24.352ZM132.684 37.744V26.896H133.532C133.734 26.896 133.862 26.9947 133.916 27.192L134.036 28.152C134.382 27.7307 134.777 27.392 135.22 27.136C135.668 26.88 136.182 26.752 136.764 26.752C137.228 26.752 137.649 26.8427 138.028 27.024C138.406 27.2 138.729 27.464 138.996 27.816C139.262 28.1627 139.468 28.5947 139.612 29.112C139.756 29.6293 139.828 30.224 139.828 30.896C139.828 31.4933 139.748 32.0507 139.588 32.568C139.428 33.08 139.198 33.5253 138.9 33.904C138.601 34.2773 138.233 34.5733 137.796 34.792C137.364 35.0053 136.876 35.112 136.332 35.112C135.83 35.112 135.401 35.0293 135.044 34.864C134.692 34.6987 134.38 34.464 134.108 34.16V37.744H132.684ZM136.292 27.904C135.828 27.904 135.42 28.0107 135.068 28.224C134.721 28.4373 134.401 28.7387 134.108 29.128V33.048C134.369 33.4 134.654 33.648 134.964 33.792C135.278 33.936 135.628 34.008 136.012 34.008C136.764 34.008 137.342 33.7387 137.748 33.2C138.153 32.6613 138.356 31.8933 138.356 30.896C138.356 30.368 138.308 29.9147 138.212 29.536C138.121 29.1573 137.988 28.848 137.812 28.608C137.636 28.3627 137.42 28.184 137.164 28.072C136.908 27.96 136.617 27.904 136.292 27.904ZM143.096 23.216V35H141.672V23.216H143.096ZM148.814 26.768C149.299 26.768 149.747 26.8507 150.158 27.016C150.568 27.176 150.923 27.4107 151.222 27.72C151.52 28.024 151.752 28.4027 151.918 28.856C152.088 29.304 152.174 29.816 152.174 30.392C152.174 30.616 152.15 30.7653 152.102 30.84C152.054 30.9147 151.963 30.952 151.83 30.952H146.438C146.448 31.464 146.518 31.9093 146.646 32.288C146.774 32.6667 146.95 32.984 147.174 33.24C147.398 33.4907 147.664 33.68 147.974 33.808C148.283 33.9307 148.63 33.992 149.014 33.992C149.371 33.992 149.678 33.952 149.934 33.872C150.195 33.7867 150.419 33.696 150.606 33.6C150.792 33.504 150.947 33.416 151.07 33.336C151.198 33.2507 151.307 33.208 151.398 33.208C151.515 33.208 151.606 33.2533 151.67 33.344L152.07 33.864C151.894 34.0773 151.683 34.264 151.438 34.424C151.192 34.5787 150.928 34.7067 150.646 34.808C150.368 34.9093 150.08 34.984 149.782 35.032C149.483 35.0853 149.187 35.112 148.894 35.112C148.334 35.112 147.816 35.0187 147.342 34.832C146.872 34.64 146.464 34.3627 146.118 34C145.776 33.632 145.51 33.1787 145.318 32.64C145.126 32.1013 145.03 31.4827 145.03 30.784C145.03 30.2187 145.115 29.6907 145.286 29.2C145.462 28.7093 145.712 28.2853 146.038 27.928C146.363 27.5653 146.76 27.2827 147.23 27.08C147.699 26.872 148.227 26.768 148.814 26.768ZM148.845 27.816C148.158 27.816 147.616 28.016 147.222 28.416C146.827 28.8107 146.582 29.36 146.486 30.064H150.894C150.894 29.7333 150.848 29.432 150.758 29.16C150.667 28.8827 150.534 28.6453 150.358 28.448C150.182 28.2453 149.966 28.0907 149.71 27.984C149.459 27.872 149.171 27.816 148.845 27.816ZM158.674 23.216V35H157.25V23.216H158.674ZM162.768 26.896V35H161.344V26.896H162.768ZM163.088 24.352C163.088 24.4907 163.058 24.6213 163 24.744C162.946 24.8613 162.872 24.968 162.776 25.064C162.685 25.1547 162.578 25.2267 162.456 25.28C162.333 25.3333 162.202 25.36 162.064 25.36C161.925 25.36 161.794 25.3333 161.672 25.28C161.554 25.2267 161.448 25.1547 161.352 25.064C161.261 24.968 161.189 24.8613 161.136 24.744C161.082 24.6213 161.056 24.4907 161.056 24.352C161.056 24.2133 161.082 24.0827 161.136 23.96C161.189 23.832 161.261 23.7227 161.352 23.632C161.448 23.536 161.554 23.4613 161.672 23.408C161.794 23.3547 161.925 23.328 162.064 23.328C162.202 23.328 162.333 23.3547 162.456 23.408C162.578 23.4613 162.685 23.536 162.776 23.632C162.872 23.7227 162.946 23.832 163 23.96C163.058 24.0827 163.088 24.2133 163.088 24.352ZM165.277 35V26.896H166.125C166.328 26.896 166.456 26.9947 166.509 27.192L166.621 28.072C166.973 27.6827 167.365 27.368 167.797 27.128C168.235 26.888 168.739 26.768 169.309 26.768C169.752 26.768 170.141 26.8427 170.477 26.992C170.819 27.136 171.101 27.344 171.325 27.616C171.555 27.8827 171.728 28.2053 171.845 28.584C171.963 28.9627 172.021 29.3813 172.021 29.84V35H170.597V29.84C170.597 29.2267 170.456 28.752 170.173 28.416C169.896 28.0747 169.469 27.904 168.893 27.904C168.472 27.904 168.077 28.0053 167.709 28.208C167.347 28.4107 167.011 28.6853 166.701 29.032V35H165.277ZM177.376 26.768C177.861 26.768 178.309 26.8507 178.72 27.016C179.131 27.176 179.485 27.4107 179.784 27.72C180.083 28.024 180.315 28.4027 180.48 28.856C180.651 29.304 180.736 29.816 180.736 30.392C180.736 30.616 180.712 30.7653 180.664 30.84C180.616 30.9147 180.525 30.952 180.392 30.952H175C175.011 31.464 175.08 31.9093 175.208 32.288C175.336 32.6667 175.512 32.984 175.736 33.24C175.96 33.4907 176.227 33.68 176.536 33.808C176.845 33.9307 177.192 33.992 177.576 33.992C177.933 33.992 178.24 33.952 178.496 33.872C178.757 33.7867 178.981 33.696 179.168 33.6C179.355 33.504 179.509 33.416 179.632 33.336C179.76 33.2507 179.869 33.208 179.96 33.208C180.077 33.208 180.168 33.2533 180.232 33.344L180.632 33.864C180.456 34.0773 180.245 34.264 180 34.424C179.755 34.5787 179.491 34.7067 179.208 34.808C178.931 34.9093 178.643 34.984 178.344 35.032C178.045 35.0853 177.749 35.112 177.456 35.112C176.896 35.112 176.379 35.0187 175.904 34.832C175.435 34.64 175.027 34.3627 174.68 34C174.339 33.632 174.072 33.1787 173.88 32.64C173.688 32.1013 173.592 31.4827 173.592 30.784C173.592 30.2187 173.677 29.6907 173.848 29.2C174.024 28.7093 174.275 28.2853 174.6 27.928C174.925 27.5653 175.323 27.2827 175.792 27.08C176.261 26.872 176.789 26.768 177.376 26.768ZM177.408 27.816C176.72 27.816 176.179 28.016 175.784 28.416C175.389 28.8107 175.144 29.36 175.048 30.064H179.456C179.456 29.7333 179.411 29.432 179.32 29.16C179.229 28.8827 179.096 28.6453 178.92 28.448C178.744 28.2453 178.528 28.0907 178.272 27.984C178.021 27.872 177.733 27.816 177.408 27.816ZM187.199 28.232C187.135 28.3493 187.036 28.408 186.903 28.408C186.823 28.408 186.732 28.3787 186.631 28.32C186.529 28.2613 186.404 28.1973 186.255 28.128C186.111 28.0533 185.937 27.9867 185.735 27.928C185.532 27.864 185.292 27.832 185.015 27.832C184.775 27.832 184.559 27.864 184.367 27.928C184.175 27.9867 184.009 28.0693 183.871 28.176C183.737 28.2827 183.633 28.408 183.559 28.552C183.489 28.6907 183.455 28.8427 183.455 29.008C183.455 29.216 183.513 29.3893 183.631 29.528C183.753 29.6667 183.913 29.7867 184.111 29.888C184.308 29.9893 184.532 30.08 184.783 30.16C185.033 30.2347 185.289 30.3173 185.551 30.408C185.817 30.4933 186.076 30.5893 186.327 30.696C186.577 30.8027 186.801 30.936 186.999 31.096C187.196 31.256 187.353 31.4533 187.471 31.688C187.593 31.9173 187.655 32.1947 187.655 32.52C187.655 32.8933 187.588 33.24 187.455 33.56C187.321 33.8747 187.124 34.1493 186.863 34.384C186.601 34.6133 186.281 34.7947 185.903 34.928C185.524 35.0613 185.087 35.128 184.591 35.128C184.025 35.128 183.513 35.0373 183.055 34.856C182.596 34.6693 182.207 34.432 181.887 34.144L182.223 33.6C182.265 33.5307 182.316 33.4773 182.375 33.44C182.433 33.4027 182.511 33.384 182.607 33.384C182.703 33.384 182.804 33.4213 182.911 33.496C183.017 33.5707 183.145 33.6533 183.295 33.744C183.449 33.8347 183.633 33.9173 183.847 33.992C184.065 34.0667 184.337 34.104 184.663 34.104C184.94 34.104 185.183 34.0693 185.391 34C185.599 33.9253 185.772 33.8267 185.911 33.704C186.049 33.5813 186.151 33.44 186.215 33.28C186.284 33.12 186.319 32.9493 186.319 32.768C186.319 32.544 186.257 32.36 186.135 32.216C186.017 32.0667 185.86 31.9413 185.663 31.84C185.465 31.7333 185.239 31.6427 184.983 31.568C184.732 31.488 184.473 31.4053 184.207 31.32C183.945 31.2347 183.687 31.1387 183.431 31.032C183.18 30.92 182.956 30.7813 182.759 30.616C182.561 30.4507 182.401 30.248 182.279 30.008C182.161 29.7627 182.103 29.4667 182.103 29.12C182.103 28.8107 182.167 28.5147 182.295 28.232C182.423 27.944 182.609 27.6933 182.855 27.48C183.1 27.2613 183.401 27.088 183.759 26.96C184.116 26.832 184.524 26.768 184.983 26.768C185.516 26.768 185.993 26.8533 186.415 27.024C186.841 27.1893 187.209 27.4187 187.519 27.712L187.199 28.232ZM33.216 54V42.216H34.648V47.064C34.984 46.6747 35.368 46.3627 35.8 46.128C36.2373 45.888 36.736 45.768 37.296 45.768C37.7653 45.768 38.1893 45.856 38.568 46.032C38.9467 46.208 39.2693 46.472 39.536 46.824C39.8027 47.1707 40.008 47.6027 40.152 48.12C40.296 48.632 40.368 49.224 40.368 49.896C40.368 50.4933 40.288 51.0507 40.128 51.568C39.968 52.08 39.736 52.5253 39.432 52.904C39.1333 53.2773 38.7653 53.5733 38.328 53.792C37.896 54.0053 37.408 54.112 36.864 54.112C36.3413 54.112 35.896 54.0107 35.528 53.808C35.1653 53.6053 34.848 53.3227 34.576 52.96L34.504 53.696C34.4613 53.8987 34.3387 54 34.136 54H33.216ZM36.832 46.904C36.368 46.904 35.96 47.0107 35.608 47.224C35.2613 47.4373 34.9413 47.7387 34.648 48.128V52.048C34.904 52.4 35.1867 52.648 35.496 52.792C35.8107 52.936 36.16 53.008 36.544 53.008C37.3013 53.008 37.8827 52.7387 38.288 52.2C38.6933 51.6613 38.896 50.8933 38.896 49.896C38.896 49.368 38.848 48.9147 38.752 48.536C38.6613 48.1573 38.528 47.848 38.352 47.608C38.176 47.3627 37.96 47.184 37.704 47.072C37.448 46.96 37.1573 46.904 36.832 46.904ZM45.3135 45.768C45.7988 45.768 46.2468 45.8507 46.6575 46.016C47.0682 46.176 47.4228 46.4107 47.7215 46.72C48.0202 47.024 48.2522 47.4027 48.4175 47.856C48.5882 48.304 48.6735 48.816 48.6735 49.392C48.6735 49.616 48.6495 49.7653 48.6015 49.84C48.5535 49.9147 48.4628 49.952 48.3295 49.952H42.9375C42.9482 50.464 43.0175 50.9093 43.1455 51.288C43.2735 51.6667 43.4495 51.984 43.6735 52.24C43.8975 52.4907 44.1642 52.68 44.4735 52.808C44.7828 52.9307 45.1295 52.992 45.5135 52.992C45.8708 52.992 46.1775 52.952 46.4335 52.872C46.6948 52.7867 46.9188 52.696 47.1055 52.6C47.2922 52.504 47.4468 52.416 47.5695 52.336C47.6975 52.2507 47.8068 52.208 47.8975 52.208C48.0148 52.208 48.1055 52.2533 48.1695 52.344L48.5695 52.864C48.3935 53.0773 48.1828 53.264 47.9375 53.424C47.6922 53.5787 47.4282 53.7067 47.1455 53.808C46.8682 53.9093 46.5802 53.984 46.2815 54.032C45.9828 54.0853 45.6868 54.112 45.3935 54.112C44.8335 54.112 44.3162 54.0187 43.8415 53.832C43.3722 53.64 42.9642 53.3627 42.6175 53C42.2762 52.632 42.0095 52.1787 41.8175 51.64C41.6255 51.1013 41.5295 50.4827 41.5295 49.784C41.5295 49.2187 41.6148 48.6907 41.7855 48.2C41.9615 47.7093 42.2122 47.2853 42.5375 46.928C42.8628 46.5653 43.2602 46.2827 43.7295 46.08C44.1988 45.872 44.7268 45.768 45.3135 45.768ZM45.3455 46.816C44.6575 46.816 44.1162 47.016 43.7215 47.416C43.3268 47.8107 43.0815 48.36 42.9855 49.064H47.3935C47.3935 48.7333 47.3482 48.432 47.2575 48.16C47.1668 47.8827 47.0335 47.6453 46.8575 47.448C46.6815 47.2453 46.4655 47.0907 46.2095 46.984C45.9588 46.872 45.6708 46.816 45.3455 46.816ZM56.0241 47.336C55.9815 47.3947 55.9388 47.44 55.8961 47.472C55.8535 47.504 55.7921 47.52 55.7121 47.52C55.6321 47.52 55.5441 47.488 55.4481 47.424C55.3575 47.3547 55.2401 47.28 55.0961 47.2C54.9521 47.12 54.7761 47.048 54.5681 46.984C54.3655 46.9147 54.1148 46.88 53.8161 46.88C53.4215 46.88 53.0721 46.952 52.7681 47.096C52.4641 47.2347 52.2081 47.4373 52.0001 47.704C51.7975 47.9707 51.6428 48.2933 51.5361 48.672C51.4348 49.0507 51.3841 49.4747 51.3841 49.944C51.3841 50.4347 51.4401 50.872 51.5521 51.256C51.6641 51.6347 51.8215 51.9547 52.0241 52.216C52.2268 52.472 52.4721 52.6693 52.7601 52.808C53.0535 52.9413 53.3815 53.008 53.7441 53.008C54.0908 53.008 54.3761 52.968 54.6001 52.888C54.8241 52.8027 55.0108 52.7093 55.1601 52.608C55.3095 52.5067 55.4321 52.416 55.5281 52.336C55.6241 52.2507 55.7201 52.208 55.8161 52.208C55.9388 52.208 56.0295 52.2533 56.0881 52.344L56.4881 52.864C56.1361 53.296 55.6961 53.6133 55.1681 53.816C54.6401 54.0133 54.0828 54.112 53.4961 54.112C52.9895 54.112 52.5175 54.0187 52.0801 53.832C51.6481 53.6453 51.2721 53.376 50.9521 53.024C50.6321 52.6667 50.3788 52.2293 50.1921 51.712C50.0108 51.1947 49.9201 50.6053 49.9201 49.944C49.9201 49.3413 50.0028 48.784 50.1681 48.272C50.3388 47.76 50.5841 47.32 50.9041 46.952C51.2295 46.5787 51.6295 46.288 52.1041 46.08C52.5788 45.872 53.1228 45.768 53.7361 45.768C54.3015 45.768 54.8028 45.8613 55.2401 46.048C55.6775 46.2293 56.0641 46.488 56.4001 46.824L56.0241 47.336ZM63.9169 54H63.2849C63.1462 54 63.0342 53.9787 62.9489 53.936C62.8635 53.8933 62.8075 53.8027 62.7809 53.664L62.6209 52.912C62.4075 53.104 62.1995 53.2773 61.9969 53.432C61.7942 53.5813 61.5809 53.7093 61.3569 53.816C61.1329 53.9173 60.8929 53.9947 60.6369 54.048C60.3862 54.1013 60.1062 54.128 59.7969 54.128C59.4822 54.128 59.1862 54.0853 58.9089 54C58.6369 53.9093 58.3995 53.776 58.1969 53.6C57.9942 53.424 57.8315 53.2027 57.7089 52.936C57.5915 52.664 57.5329 52.344 57.5329 51.976C57.5329 51.656 57.6209 51.3493 57.7969 51.056C57.9729 50.7573 58.2555 50.4933 58.6449 50.264C59.0395 50.0347 59.5542 49.848 60.1889 49.704C60.8235 49.5547 61.5995 49.4693 62.5169 49.448V48.816C62.5169 48.1867 62.3809 47.712 62.1089 47.392C61.8422 47.0667 61.4449 46.904 60.9169 46.904C60.5702 46.904 60.2769 46.9493 60.0369 47.04C59.8022 47.1253 59.5969 47.224 59.4209 47.336C59.2502 47.4427 59.1009 47.5413 58.9729 47.632C58.8502 47.7173 58.7275 47.76 58.6049 47.76C58.5089 47.76 58.4235 47.736 58.3489 47.688C58.2795 47.6347 58.2235 47.5707 58.1809 47.496L57.9249 47.04C58.3729 46.608 58.8555 46.2853 59.3729 46.072C59.8902 45.8587 60.4635 45.752 61.0929 45.752C61.5462 45.752 61.9489 45.8267 62.3009 45.976C62.6529 46.1253 62.9489 46.3333 63.1889 46.6C63.4289 46.8667 63.6102 47.1893 63.7329 47.568C63.8555 47.9467 63.9169 48.3627 63.9169 48.816V54ZM60.2209 53.128C60.4715 53.128 60.7009 53.104 60.9089 53.056C61.1169 53.0027 61.3115 52.9307 61.4929 52.84C61.6795 52.744 61.8555 52.6293 62.0209 52.496C62.1915 52.3627 62.3569 52.2107 62.5169 52.04V50.352C61.8609 50.3733 61.3035 50.4267 60.8449 50.512C60.3862 50.592 60.0129 50.6987 59.7249 50.832C59.4369 50.9653 59.2262 51.1227 59.0929 51.304C58.9649 51.4853 58.9009 51.688 58.9009 51.912C58.9009 52.1253 58.9355 52.3093 59.0049 52.464C59.0742 52.6187 59.1675 52.7467 59.2849 52.848C59.4022 52.944 59.5409 53.016 59.7009 53.064C59.8609 53.1067 60.0342 53.128 60.2209 53.128ZM67.3063 45.896V51.064C67.3063 51.6773 67.4476 52.152 67.7303 52.488C68.0129 52.824 68.4396 52.992 69.0103 52.992C69.4263 52.992 69.8183 52.8933 70.1863 52.696C70.5543 52.4987 70.8929 52.224 71.2023 51.872V45.896H72.6263V54H71.7783C71.5756 54 71.4476 53.9013 71.3943 53.704L71.2823 52.832C70.9303 53.2213 70.5356 53.536 70.0983 53.776C69.6609 54.0107 69.1596 54.128 68.5943 54.128C68.1516 54.128 67.7596 54.056 67.4183 53.912C67.0823 53.7627 66.7996 53.5547 66.5703 53.288C66.3409 53.0213 66.1676 52.6987 66.0503 52.32C65.9383 51.9413 65.8823 51.5227 65.8823 51.064V45.896H67.3063ZM79.6049 47.232C79.5409 47.3493 79.4422 47.408 79.3089 47.408C79.2289 47.408 79.1382 47.3787 79.0369 47.32C78.9355 47.2613 78.8102 47.1973 78.6609 47.128C78.5169 47.0533 78.3435 46.9867 78.1409 46.928C77.9382 46.864 77.6982 46.832 77.4209 46.832C77.1809 46.832 76.9649 46.864 76.7729 46.928C76.5809 46.9867 76.4155 47.0693 76.2769 47.176C76.1435 47.2827 76.0395 47.408 75.9649 47.552C75.8955 47.6907 75.8609 47.8427 75.8609 48.008C75.8609 48.216 75.9195 48.3893 76.0369 48.528C76.1595 48.6667 76.3195 48.7867 76.5169 48.888C76.7142 48.9893 76.9382 49.08 77.1889 49.16C77.4395 49.2347 77.6955 49.3173 77.9569 49.408C78.2235 49.4933 78.4822 49.5893 78.7329 49.696C78.9835 49.8027 79.2075 49.936 79.4049 50.096C79.6022 50.256 79.7595 50.4533 79.8769 50.688C79.9995 50.9173 80.0609 51.1947 80.0609 51.52C80.0609 51.8933 79.9942 52.24 79.8609 52.56C79.7275 52.8747 79.5302 53.1493 79.2689 53.384C79.0075 53.6133 78.6875 53.7947 78.3089 53.928C77.9302 54.0613 77.4929 54.128 76.9969 54.128C76.4315 54.128 75.9195 54.0373 75.4609 53.856C75.0022 53.6693 74.6129 53.432 74.2929 53.144L74.6289 52.6C74.6715 52.5307 74.7222 52.4773 74.7809 52.44C74.8395 52.4027 74.9169 52.384 75.0129 52.384C75.1089 52.384 75.2102 52.4213 75.3169 52.496C75.4235 52.5707 75.5515 52.6533 75.7009 52.744C75.8555 52.8347 76.0395 52.9173 76.2529 52.992C76.4715 53.0667 76.7435 53.104 77.0689 53.104C77.3462 53.104 77.5889 53.0693 77.7969 53C78.0049 52.9253 78.1782 52.8267 78.3169 52.704C78.4555 52.5813 78.5569 52.44 78.6209 52.28C78.6902 52.12 78.7249 51.9493 78.7249 51.768C78.7249 51.544 78.6635 51.36 78.5409 51.216C78.4235 51.0667 78.2662 50.9413 78.0689 50.84C77.8715 50.7333 77.6449 50.6427 77.3889 50.568C77.1382 50.488 76.8795 50.4053 76.6129 50.32C76.3515 50.2347 76.0929 50.1387 75.8369 50.032C75.5862 49.92 75.3622 49.7813 75.1649 49.616C74.9675 49.4507 74.8075 49.248 74.6849 49.008C74.5675 48.7627 74.5089 48.4667 74.5089 48.12C74.5089 47.8107 74.5729 47.5147 74.7009 47.232C74.8289 46.944 75.0155 46.6933 75.2609 46.48C75.5062 46.2613 75.8075 46.088 76.1649 45.96C76.5222 45.832 76.9302 45.768 77.3889 45.768C77.9222 45.768 78.3995 45.8533 78.8209 46.024C79.2475 46.1893 79.6155 46.4187 79.9249 46.712L79.6049 47.232ZM85.1104 45.768C85.5957 45.768 86.0437 45.8507 86.4544 46.016C86.865 46.176 87.2197 46.4107 87.5184 46.72C87.817 47.024 88.049 47.4027 88.2144 47.856C88.385 48.304 88.4704 48.816 88.4704 49.392C88.4704 49.616 88.4464 49.7653 88.3984 49.84C88.3504 49.9147 88.2597 49.952 88.1264 49.952H82.7344C82.745 50.464 82.8144 50.9093 82.9424 51.288C83.0704 51.6667 83.2464 51.984 83.4704 52.24C83.6944 52.4907 83.961 52.68 84.2704 52.808C84.5797 52.9307 84.9264 52.992 85.3104 52.992C85.6677 52.992 85.9744 52.952 86.2304 52.872C86.4917 52.7867 86.7157 52.696 86.9024 52.6C87.089 52.504 87.2437 52.416 87.3664 52.336C87.4944 52.2507 87.6037 52.208 87.6944 52.208C87.8117 52.208 87.9024 52.2533 87.9664 52.344L88.3664 52.864C88.1904 53.0773 87.9797 53.264 87.7344 53.424C87.489 53.5787 87.225 53.7067 86.9424 53.808C86.665 53.9093 86.377 53.984 86.0784 54.032C85.7797 54.0853 85.4837 54.112 85.1904 54.112C84.6304 54.112 84.113 54.0187 83.6384 53.832C83.169 53.64 82.761 53.3627 82.4144 53C82.073 52.632 81.8064 52.1787 81.6144 51.64C81.4224 51.1013 81.3264 50.4827 81.3264 49.784C81.3264 49.2187 81.4117 48.6907 81.5824 48.2C81.7584 47.7093 82.009 47.2853 82.3344 46.928C82.6597 46.5653 83.057 46.2827 83.5264 46.08C83.9957 45.872 84.5237 45.768 85.1104 45.768ZM85.1424 46.816C84.4544 46.816 83.913 47.016 83.5184 47.416C83.1237 47.8107 82.8784 48.36 82.7824 49.064H87.1904C87.1904 48.7333 87.145 48.432 87.0544 48.16C86.9637 47.8827 86.8304 47.6453 86.6544 47.448C86.4784 47.2453 86.2624 47.0907 86.0064 46.984C85.7557 46.872 85.4677 46.816 85.1424 46.816ZM94.9708 45.896V54H93.5468V45.896H94.9708ZM95.2908 43.352C95.2908 43.4907 95.2614 43.6213 95.2028 43.744C95.1494 43.8613 95.0748 43.968 94.9788 44.064C94.8881 44.1547 94.7814 44.2267 94.6588 44.28C94.5361 44.3333 94.4054 44.36 94.2668 44.36C94.1281 44.36 93.9974 44.3333 93.8748 44.28C93.7574 44.2267 93.6508 44.1547 93.5548 44.064C93.4641 43.968 93.3921 43.8613 93.3388 43.744C93.2854 43.6213 93.2588 43.4907 93.2588 43.352C93.2588 43.2133 93.2854 43.0827 93.3388 42.96C93.3921 42.832 93.4641 42.7227 93.5548 42.632C93.6508 42.536 93.7574 42.4613 93.8748 42.408C93.9974 42.3547 94.1281 42.328 94.2668 42.328C94.4054 42.328 94.5361 42.3547 94.6588 42.408C94.7814 42.4613 94.8881 42.536 94.9788 42.632C95.0748 42.7227 95.1494 42.832 95.2028 42.96C95.2614 43.0827 95.2908 43.2133 95.2908 43.352ZM99.9365 54.128C99.2965 54.128 98.8032 53.9493 98.4565 53.592C98.1152 53.2347 97.9445 52.72 97.9445 52.048V47.088H96.9685C96.8832 47.088 96.8112 47.064 96.7525 47.016C96.6938 46.9627 96.6645 46.8827 96.6645 46.776V46.208L97.9925 46.04L98.3205 43.536C98.3312 43.456 98.3658 43.392 98.4245 43.344C98.4832 43.2907 98.5578 43.264 98.6485 43.264H99.3685V46.056H101.689V47.088H99.3685V51.952C99.3685 52.2933 99.4512 52.5467 99.6165 52.712C99.7818 52.8773 99.9952 52.96 100.257 52.96C100.406 52.96 100.534 52.9413 100.641 52.904C100.753 52.8613 100.849 52.816 100.929 52.768C101.009 52.72 101.075 52.6773 101.129 52.64C101.187 52.5973 101.238 52.576 101.281 52.576C101.355 52.576 101.422 52.6213 101.481 52.712L101.897 53.392C101.651 53.6213 101.355 53.8027 101.009 53.936C100.662 54.064 100.305 54.128 99.9365 54.128ZM108.127 45.896V54H106.703V45.896H108.127ZM108.447 43.352C108.447 43.4907 108.418 43.6213 108.359 43.744C108.306 43.8613 108.231 43.968 108.135 44.064C108.044 44.1547 107.938 44.2267 107.815 44.28C107.692 44.3333 107.562 44.36 107.423 44.36C107.284 44.36 107.154 44.3333 107.031 44.28C106.914 44.2267 106.807 44.1547 106.711 44.064C106.62 43.968 106.548 43.8613 106.495 43.744C106.442 43.6213 106.415 43.4907 106.415 43.352C106.415 43.2133 106.442 43.0827 106.495 42.96C106.548 42.832 106.62 42.7227 106.711 42.632C106.807 42.536 106.914 42.4613 107.031 42.408C107.154 42.3547 107.284 42.328 107.423 42.328C107.562 42.328 107.692 42.3547 107.815 42.408C107.938 42.4613 108.044 42.536 108.135 42.632C108.231 42.7227 108.306 42.832 108.359 42.96C108.418 43.0827 108.447 43.2133 108.447 43.352ZM115.277 47.232C115.213 47.3493 115.114 47.408 114.981 47.408C114.901 47.408 114.81 47.3787 114.709 47.32C114.607 47.2613 114.482 47.1973 114.333 47.128C114.189 47.0533 114.015 46.9867 113.813 46.928C113.61 46.864 113.37 46.832 113.093 46.832C112.853 46.832 112.637 46.864 112.445 46.928C112.253 46.9867 112.087 47.0693 111.949 47.176C111.815 47.2827 111.711 47.408 111.637 47.552C111.567 47.6907 111.533 47.8427 111.533 48.008C111.533 48.216 111.591 48.3893 111.709 48.528C111.831 48.6667 111.991 48.7867 112.189 48.888C112.386 48.9893 112.61 49.08 112.861 49.16C113.111 49.2347 113.367 49.3173 113.629 49.408C113.895 49.4933 114.154 49.5893 114.405 49.696C114.655 49.8027 114.879 49.936 115.077 50.096C115.274 50.256 115.431 50.4533 115.549 50.688C115.671 50.9173 115.733 51.1947 115.733 51.52C115.733 51.8933 115.666 52.24 115.533 52.56C115.399 52.8747 115.202 53.1493 114.941 53.384C114.679 53.6133 114.359 53.7947 113.981 53.928C113.602 54.0613 113.165 54.128 112.669 54.128C112.103 54.128 111.591 54.0373 111.133 53.856C110.674 53.6693 110.285 53.432 109.965 53.144L110.301 52.6C110.343 52.5307 110.394 52.4773 110.453 52.44C110.511 52.4027 110.589 52.384 110.685 52.384C110.781 52.384 110.882 52.4213 110.989 52.496C111.095 52.5707 111.223 52.6533 111.373 52.744C111.527 52.8347 111.711 52.9173 111.925 52.992C112.143 53.0667 112.415 53.104 112.741 53.104C113.018 53.104 113.261 53.0693 113.469 53C113.677 52.9253 113.85 52.8267 113.989 52.704C114.127 52.5813 114.229 52.44 114.293 52.28C114.362 52.12 114.397 51.9493 114.397 51.768C114.397 51.544 114.335 51.36 114.213 51.216C114.095 51.0667 113.938 50.9413 113.741 50.84C113.543 50.7333 113.317 50.6427 113.061 50.568C112.81 50.488 112.551 50.4053 112.285 50.32C112.023 50.2347 111.765 50.1387 111.509 50.032C111.258 49.92 111.034 49.7813 110.837 49.616C110.639 49.4507 110.479 49.248 110.357 49.008C110.239 48.7627 110.181 48.4667 110.181 48.12C110.181 47.8107 110.245 47.5147 110.373 47.232C110.501 46.944 110.687 46.6933 110.933 46.48C111.178 46.2613 111.479 46.088 111.837 45.96C112.194 45.832 112.602 45.768 113.061 45.768C113.594 45.768 114.071 45.8533 114.493 46.024C114.919 46.1893 115.287 46.4187 115.597 46.712L115.277 47.232ZM123.124 54.128C122.484 54.128 121.991 53.9493 121.644 53.592C121.303 53.2347 121.132 52.72 121.132 52.048V47.088H120.156C120.071 47.088 119.999 47.064 119.94 47.016C119.881 46.9627 119.852 46.8827 119.852 46.776V46.208L121.18 46.04L121.508 43.536C121.519 43.456 121.553 43.392 121.612 43.344C121.671 43.2907 121.745 43.264 121.836 43.264H122.556V46.056H124.876V47.088H122.556V51.952C122.556 52.2933 122.639 52.5467 122.804 52.712C122.969 52.8773 123.183 52.96 123.444 52.96C123.593 52.96 123.721 52.9413 123.828 52.904C123.94 52.8613 124.036 52.816 124.116 52.768C124.196 52.72 124.263 52.6773 124.316 52.64C124.375 52.5973 124.425 52.576 124.468 52.576C124.543 52.576 124.609 52.6213 124.668 52.712L125.084 53.392C124.839 53.6213 124.543 53.8027 124.196 53.936C123.849 54.064 123.492 54.128 123.124 54.128ZM129.917 45.768C130.509 45.768 131.042 45.8667 131.517 46.064C131.997 46.2613 132.402 46.5413 132.733 46.904C133.069 47.2667 133.325 47.7067 133.501 48.224C133.682 48.736 133.773 49.3093 133.773 49.944C133.773 50.584 133.682 51.16 133.501 51.672C133.325 52.184 133.069 52.6213 132.733 52.984C132.402 53.3467 131.997 53.6267 131.517 53.824C131.042 54.016 130.509 54.112 129.917 54.112C129.325 54.112 128.789 54.016 128.309 53.824C127.834 53.6267 127.429 53.3467 127.093 52.984C126.757 52.6213 126.498 52.184 126.317 51.672C126.135 51.16 126.045 50.584 126.045 49.944C126.045 49.3093 126.135 48.736 126.317 48.224C126.498 47.7067 126.757 47.2667 127.093 46.904C127.429 46.5413 127.834 46.2613 128.309 46.064C128.789 45.8667 129.325 45.768 129.917 45.768ZM129.917 53C130.717 53 131.314 52.7333 131.709 52.2C132.103 51.6613 132.301 50.912 132.301 49.952C132.301 48.9867 132.103 48.2347 131.709 47.696C131.314 47.1573 130.717 46.888 129.917 46.888C129.511 46.888 129.159 46.9573 128.861 47.096C128.562 47.2347 128.311 47.4347 128.109 47.696C127.911 47.9573 127.762 48.28 127.661 48.664C127.565 49.0427 127.517 49.472 127.517 49.952C127.517 50.432 127.565 50.8613 127.661 51.24C127.762 51.6187 127.911 51.9387 128.109 52.2C128.311 52.456 128.562 52.6533 128.861 52.792C129.159 52.9307 129.511 53 129.917 53ZM138.807 45.768C139.399 45.768 139.933 45.8667 140.407 46.064C140.887 46.2613 141.293 46.5413 141.623 46.904C141.959 47.2667 142.215 47.7067 142.391 48.224C142.573 48.736 142.663 49.3093 142.663 49.944C142.663 50.584 142.573 51.16 142.391 51.672C142.215 52.184 141.959 52.6213 141.623 52.984C141.293 53.3467 140.887 53.6267 140.407 53.824C139.933 54.016 139.399 54.112 138.807 54.112C138.215 54.112 137.679 54.016 137.199 53.824C136.725 53.6267 136.319 53.3467 135.983 52.984C135.647 52.6213 135.389 52.184 135.207 51.672C135.026 51.16 134.935 50.584 134.935 49.944C134.935 49.3093 135.026 48.736 135.207 48.224C135.389 47.7067 135.647 47.2667 135.983 46.904C136.319 46.5413 136.725 46.2613 137.199 46.064C137.679 45.8667 138.215 45.768 138.807 45.768ZM138.807 53C139.607 53 140.205 52.7333 140.599 52.2C140.994 51.6613 141.191 50.912 141.191 49.952C141.191 48.9867 140.994 48.2347 140.599 47.696C140.205 47.1573 139.607 46.888 138.807 46.888C138.402 46.888 138.05 46.9573 137.751 47.096C137.453 47.2347 137.202 47.4347 136.999 47.696C136.802 47.9573 136.653 48.28 136.551 48.664C136.455 49.0427 136.407 49.472 136.407 49.952C136.407 50.432 136.455 50.8613 136.551 51.24C136.653 51.6187 136.802 51.9387 136.999 52.2C137.202 52.456 137.453 52.6533 137.751 52.792C138.05 52.9307 138.402 53 138.807 53ZM149.096 42.216V54H147.672V42.216H149.096ZM154.886 45.768C155.478 45.768 156.011 45.8667 156.486 46.064C156.966 46.2613 157.371 46.5413 157.702 46.904C158.038 47.2667 158.294 47.7067 158.47 48.224C158.651 48.736 158.742 49.3093 158.742 49.944C158.742 50.584 158.651 51.16 158.47 51.672C158.294 52.184 158.038 52.6213 157.702 52.984C157.371 53.3467 156.966 53.6267 156.486 53.824C156.011 54.016 155.478 54.112 154.886 54.112C154.294 54.112 153.758 54.016 153.278 53.824C152.803 53.6267 152.398 53.3467 152.062 52.984C151.726 52.6213 151.467 52.184 151.286 51.672C151.104 51.16 151.014 50.584 151.014 49.944C151.014 49.3093 151.104 48.736 151.286 48.224C151.467 47.7067 151.726 47.2667 152.062 46.904C152.398 46.5413 152.803 46.2613 153.278 46.064C153.758 45.8667 154.294 45.768 154.886 45.768ZM154.886 53C155.686 53 156.283 52.7333 156.678 52.2C157.072 51.6613 157.27 50.912 157.27 49.952C157.27 48.9867 157.072 48.2347 156.678 47.696C156.283 47.1573 155.686 46.888 154.886 46.888C154.48 46.888 154.128 46.9573 153.83 47.096C153.531 47.2347 153.28 47.4347 153.078 47.696C152.88 47.9573 152.731 48.28 152.63 48.664C152.534 49.0427 152.486 49.472 152.486 49.952C152.486 50.432 152.534 50.8613 152.63 51.24C152.731 51.6187 152.88 51.9387 153.078 52.2C153.28 52.456 153.531 52.6533 153.83 52.792C154.128 52.9307 154.48 53 154.886 53ZM160.496 54V45.896H161.344C161.547 45.896 161.675 45.9947 161.728 46.192L161.84 47.072C162.192 46.6827 162.584 46.368 163.016 46.128C163.453 45.888 163.957 45.768 164.528 45.768C164.971 45.768 165.36 45.8427 165.696 45.992C166.037 46.136 166.32 46.344 166.544 46.616C166.773 46.8827 166.947 47.2053 167.064 47.584C167.181 47.9627 167.24 48.3813 167.24 48.84V54H165.816V48.84C165.816 48.2267 165.675 47.752 165.392 47.416C165.115 47.0747 164.688 46.904 164.112 46.904C163.691 46.904 163.296 47.0053 162.928 47.208C162.565 47.4107 162.229 47.6853 161.92 48.032V54H160.496ZM172.115 45.76C172.467 45.76 172.795 45.8 173.099 45.88C173.408 45.9547 173.688 46.0667 173.939 46.216H176.139V46.744C176.139 46.92 176.027 47.032 175.803 47.08L174.883 47.208C175.064 47.5547 175.155 47.9413 175.155 48.368C175.155 48.7627 175.077 49.1227 174.923 49.448C174.773 49.768 174.563 50.0427 174.291 50.272C174.024 50.5013 173.704 50.6773 173.331 50.8C172.963 50.9227 172.557 50.984 172.115 50.984C171.736 50.984 171.379 50.9387 171.043 50.848C170.872 50.9547 170.741 51.0693 170.651 51.192C170.565 51.3147 170.523 51.4347 170.523 51.552C170.523 51.744 170.6 51.8907 170.755 51.992C170.909 52.088 171.115 52.1573 171.371 52.2C171.627 52.2427 171.917 52.2693 172.243 52.28C172.568 52.2907 172.899 52.3093 173.235 52.336C173.576 52.3573 173.909 52.3973 174.235 52.456C174.56 52.5147 174.851 52.6107 175.107 52.744C175.363 52.8773 175.568 53.0613 175.723 53.296C175.877 53.5307 175.955 53.8347 175.955 54.208C175.955 54.5547 175.867 54.8907 175.691 55.216C175.52 55.5413 175.272 55.8293 174.947 56.08C174.621 56.336 174.224 56.5387 173.755 56.688C173.285 56.8427 172.755 56.92 172.163 56.92C171.571 56.92 171.051 56.8613 170.603 56.744C170.16 56.6267 169.792 56.4693 169.499 56.272C169.205 56.0747 168.984 55.8453 168.835 55.584C168.691 55.328 168.619 55.0587 168.619 54.776C168.619 54.376 168.744 54.0373 168.995 53.76C169.251 53.4773 169.6 53.2533 170.043 53.088C169.813 52.9813 169.629 52.84 169.491 52.664C169.357 52.4827 169.291 52.2427 169.291 51.944C169.291 51.8267 169.312 51.7067 169.355 51.584C169.397 51.456 169.461 51.3307 169.547 51.208C169.637 51.0853 169.747 50.968 169.875 50.856C170.003 50.744 170.152 50.6453 170.323 50.56C169.923 50.336 169.608 50.04 169.379 49.672C169.155 49.2987 169.043 48.864 169.043 48.368C169.043 47.9733 169.117 47.616 169.267 47.296C169.421 46.9707 169.635 46.696 169.907 46.472C170.179 46.2427 170.501 46.0667 170.875 45.944C171.253 45.8213 171.667 45.76 172.115 45.76ZM174.643 54.44C174.643 54.2373 174.587 54.0747 174.475 53.952C174.363 53.8293 174.211 53.736 174.019 53.672C173.827 53.6027 173.605 53.552 173.355 53.52C173.104 53.488 172.84 53.4667 172.563 53.456C172.285 53.44 172.003 53.424 171.715 53.408C171.427 53.392 171.152 53.3627 170.891 53.32C170.587 53.464 170.339 53.64 170.147 53.848C169.96 54.056 169.867 54.304 169.867 54.592C169.867 54.7733 169.912 54.9413 170.003 55.096C170.099 55.256 170.243 55.392 170.435 55.504C170.627 55.6213 170.867 55.712 171.155 55.776C171.448 55.8453 171.792 55.88 172.187 55.88C172.571 55.88 172.915 55.8453 173.219 55.776C173.523 55.7067 173.779 55.608 173.987 55.48C174.2 55.352 174.363 55.2 174.475 55.024C174.587 54.848 174.643 54.6533 174.643 54.44ZM172.115 50.04C172.403 50.04 172.656 50 172.875 49.92C173.099 49.84 173.285 49.728 173.435 49.584C173.584 49.44 173.696 49.2693 173.771 49.072C173.845 48.8693 173.883 48.648 173.883 48.408C173.883 47.912 173.731 47.5173 173.427 47.224C173.128 46.9307 172.691 46.784 172.115 46.784C171.544 46.784 171.107 46.9307 170.803 47.224C170.504 47.5173 170.355 47.912 170.355 48.408C170.355 48.648 170.392 48.8693 170.467 49.072C170.547 49.2693 170.661 49.44 170.811 49.584C170.96 49.728 171.144 49.84 171.363 49.92C171.581 50 171.832 50.04 172.115 50.04Z" fill="black"/>
<circle cx="11" cy="30" r="8" fill="white" stroke="#0064D1" stroke-width="6"/>
</svg>
