<svg width="208" height="109" viewBox="0 0 208 109" fill="none" xmlns="http://www.w3.org/2000/svg">
<path d="M44.04 98.272C44.04 99.1307 43.904 99.92 43.632 100.64C43.36 101.355 42.976 101.971 42.48 102.488C41.984 103.005 41.3867 103.408 40.688 103.696C39.9947 103.979 39.2267 104.12 38.384 104.12C37.5413 104.12 36.7733 103.979 36.08 103.696C35.3867 103.408 34.792 103.005 34.296 102.488C33.8 101.971 33.416 101.355 33.144 100.64C32.872 99.92 32.736 99.1307 32.736 98.272C32.736 97.4133 32.872 96.6267 33.144 95.912C33.416 95.192 33.8 94.5733 34.296 94.056C34.792 93.5333 35.3867 93.128 36.08 92.84C36.7733 92.552 37.5413 92.408 38.384 92.408C39.2267 92.408 39.9947 92.552 40.688 92.84C41.3867 93.128 41.984 93.5333 42.48 94.056C42.976 94.5733 43.36 95.192 43.632 95.912C43.904 96.6267 44.04 97.4133 44.04 98.272ZM42.448 98.272C42.448 97.568 42.352 96.936 42.16 96.376C41.968 95.816 41.696 95.344 41.344 94.96C40.992 94.5707 40.5653 94.272 40.064 94.064C39.5627 93.856 39.0027 93.752 38.384 93.752C37.7707 93.752 37.2133 93.856 36.712 94.064C36.2107 94.272 35.7813 94.5707 35.424 94.96C35.072 95.344 34.8 95.816 34.608 96.376C34.416 96.936 34.32 97.568 34.32 98.272C34.32 98.976 34.416 99.608 34.608 100.168C34.8 100.723 35.072 101.195 35.424 101.584C35.7813 101.968 36.2107 102.264 36.712 102.472C37.2133 102.675 37.7707 102.776 38.384 102.776C39.0027 102.776 39.5627 102.675 40.064 102.472C40.5653 102.264 40.992 101.968 41.344 101.584C41.696 101.195 41.968 100.723 42.16 100.168C42.352 99.608 42.448 98.976 42.448 98.272ZM45.9336 106.744V95.896H46.7816C46.9843 95.896 47.1123 95.9947 47.1656 96.192L47.2856 97.152C47.6323 96.7307 48.027 96.392 48.4696 96.136C48.9176 95.88 49.4323 95.752 50.0136 95.752C50.4776 95.752 50.899 95.8427 51.2776 96.024C51.6563 96.2 51.979 96.464 52.2456 96.816C52.5123 97.1627 52.7176 97.5947 52.8616 98.112C53.0056 98.6293 53.0776 99.224 53.0776 99.896C53.0776 100.493 52.9976 101.051 52.8376 101.568C52.6776 102.08 52.4483 102.525 52.1496 102.904C51.851 103.277 51.483 103.573 51.0456 103.792C50.6136 104.005 50.1256 104.112 49.5816 104.112C49.0803 104.112 48.651 104.029 48.2936 103.864C47.9416 103.699 47.6296 103.464 47.3576 103.16V106.744H45.9336ZM49.5416 96.904C49.0776 96.904 48.6696 97.0107 48.3176 97.224C47.971 97.4373 47.651 97.7387 47.3576 98.128V102.048C47.619 102.4 47.9043 102.648 48.2136 102.792C48.5283 102.936 48.8776 103.008 49.2616 103.008C50.0136 103.008 50.5923 102.739 50.9976 102.2C51.403 101.661 51.6056 100.893 51.6056 99.896C51.6056 99.368 51.5576 98.9147 51.4616 98.536C51.371 98.1573 51.2376 97.848 51.0616 97.608C50.8856 97.3627 50.6696 97.184 50.4136 97.072C50.1576 96.96 49.867 96.904 49.5416 96.904ZM57.2178 104.128C56.5778 104.128 56.0844 103.949 55.7378 103.592C55.3964 103.235 55.2258 102.72 55.2258 102.048V97.088H54.2498C54.1644 97.088 54.0924 97.064 54.0338 97.016C53.9751 96.9627 53.9458 96.8827 53.9458 96.776V96.208L55.2738 96.04L55.6018 93.536C55.6124 93.456 55.6471 93.392 55.7057 93.344C55.7644 93.2907 55.8391 93.264 55.9298 93.264H56.6498V96.056H58.9698V97.088H56.6498V101.952C56.6498 102.293 56.7324 102.547 56.8978 102.712C57.0631 102.877 57.2764 102.96 57.5378 102.96C57.6871 102.96 57.8151 102.941 57.9218 102.904C58.0338 102.861 58.1298 102.816 58.2098 102.768C58.2898 102.72 58.3564 102.677 58.4098 102.64C58.4684 102.597 58.5191 102.576 58.5618 102.576C58.6364 102.576 58.7031 102.621 58.7618 102.712L59.1778 103.392C58.9324 103.621 58.6364 103.803 58.2898 103.936C57.9431 104.064 57.5858 104.128 57.2178 104.128ZM62.3145 95.896V104H60.8905V95.896H62.3145ZM62.6345 93.352C62.6345 93.4907 62.6052 93.6213 62.5465 93.744C62.4932 93.8613 62.4185 93.968 62.3225 94.064C62.2318 94.1547 62.1252 94.2267 62.0025 94.28C61.8798 94.3333 61.7492 94.36 61.6105 94.36C61.4718 94.36 61.3412 94.3333 61.2185 94.28C61.1012 94.2267 60.9945 94.1547 60.8985 94.064C60.8078 93.968 60.7358 93.8613 60.6825 93.744C60.6292 93.6213 60.6025 93.4907 60.6025 93.352C60.6025 93.2133 60.6292 93.0827 60.6825 92.96C60.7358 92.832 60.8078 92.7227 60.8985 92.632C60.9945 92.536 61.1012 92.4613 61.2185 92.408C61.3412 92.3547 61.4718 92.328 61.6105 92.328C61.7492 92.328 61.8798 92.3547 62.0025 92.408C62.1252 92.4613 62.2318 92.536 62.3225 92.632C62.4185 92.7227 62.4932 92.832 62.5465 92.96C62.6052 93.0827 62.6345 93.2133 62.6345 93.352ZM68.1043 95.768C68.6963 95.768 69.2296 95.8667 69.7043 96.064C70.1843 96.2613 70.5896 96.5413 70.9203 96.904C71.2563 97.2667 71.5123 97.7067 71.6883 98.224C71.8696 98.736 71.9603 99.3093 71.9603 99.944C71.9603 100.584 71.8696 101.16 71.6883 101.672C71.5123 102.184 71.2563 102.621 70.9203 102.984C70.5896 103.347 70.1843 103.627 69.7043 103.824C69.2296 104.016 68.6963 104.112 68.1043 104.112C67.5123 104.112 66.9763 104.016 66.4963 103.824C66.0216 103.627 65.6163 103.347 65.2803 102.984C64.9443 102.621 64.6856 102.184 64.5043 101.672C64.3229 101.16 64.2323 100.584 64.2323 99.944C64.2323 99.3093 64.3229 98.736 64.5043 98.224C64.6856 97.7067 64.9443 97.2667 65.2803 96.904C65.6163 96.5413 66.0216 96.2613 66.4963 96.064C66.9763 95.8667 67.5123 95.768 68.1043 95.768ZM68.1043 103C68.9043 103 69.5016 102.733 69.8963 102.2C70.2909 101.661 70.4883 100.912 70.4883 99.952C70.4883 98.9867 70.2909 98.2347 69.8963 97.696C69.5016 97.1573 68.9043 96.888 68.1043 96.888C67.6989 96.888 67.3469 96.9573 67.0483 97.096C66.7496 97.2347 66.4989 97.4347 66.2963 97.696C66.0989 97.9573 65.9496 98.28 65.8483 98.664C65.7523 99.0427 65.7043 99.472 65.7043 99.952C65.7043 100.432 65.7523 100.861 65.8483 101.24C65.9496 101.619 66.0989 101.939 66.2963 102.2C66.4989 102.456 66.7496 102.653 67.0483 102.792C67.3469 102.931 67.6989 103 68.1043 103ZM73.7149 104V95.896H74.5629C74.7655 95.896 74.8935 95.9947 74.9469 96.192L75.0589 97.072C75.4109 96.6827 75.8029 96.368 76.2349 96.128C76.6722 95.888 77.1762 95.768 77.7469 95.768C78.1895 95.768 78.5789 95.8427 78.9149 95.992C79.2562 96.136 79.5389 96.344 79.7629 96.616C79.9922 96.8827 80.1655 97.2053 80.2829 97.584C80.4002 97.9627 80.4589 98.3813 80.4589 98.84V104H79.0349V98.84C79.0349 98.2267 78.8935 97.752 78.6109 97.416C78.3335 97.0747 77.9069 96.904 77.3309 96.904C76.9095 96.904 76.5149 97.0053 76.1469 97.208C75.7842 97.4107 75.4482 97.6853 75.1389 98.032V104H73.7149ZM89.3393 92.408C89.8246 92.408 90.2779 92.48 90.6993 92.624C91.1206 92.768 91.4833 92.9787 91.7873 93.256C92.0966 93.528 92.3393 93.8613 92.5153 94.256C92.6913 94.6507 92.7793 95.0987 92.7793 95.6C92.7793 96.0267 92.7153 96.4213 92.5873 96.784C92.4593 97.1467 92.2859 97.496 92.0673 97.832C91.8486 98.1627 91.5953 98.4853 91.3073 98.8C91.0246 99.1093 90.7233 99.4267 90.4033 99.752L87.3873 102.84C87.6006 102.781 87.8166 102.736 88.0353 102.704C88.2539 102.667 88.4646 102.648 88.6673 102.648H92.5073C92.6619 102.648 92.7846 102.693 92.8753 102.784C92.9659 102.875 93.0113 102.992 93.0113 103.136V104H85.3633V103.512C85.3633 103.411 85.3819 103.307 85.4193 103.2C85.4619 103.093 85.5286 102.995 85.6193 102.904L89.2913 99.216C89.5953 98.9067 89.8726 98.6107 90.1233 98.328C90.3739 98.04 90.5873 97.752 90.7633 97.464C90.9446 97.176 91.0833 96.8853 91.1793 96.592C91.2753 96.2933 91.3233 95.976 91.3233 95.64C91.3233 95.304 91.2699 95.0107 91.1633 94.76C91.0566 94.504 90.9099 94.2933 90.7233 94.128C90.5366 93.9627 90.3179 93.84 90.0673 93.76C89.8166 93.6747 89.5473 93.632 89.2593 93.632C88.9713 93.632 88.7046 93.6747 88.4593 93.76C88.2139 93.8453 87.9953 93.9653 87.8033 94.12C87.6166 94.2693 87.4566 94.448 87.3233 94.656C87.1953 94.864 87.1046 95.0933 87.0513 95.344C87.0086 95.4987 86.9446 95.6107 86.8593 95.68C86.7739 95.7493 86.6619 95.784 86.5233 95.784C86.4966 95.784 86.4673 95.784 86.4353 95.784C86.4086 95.7787 86.3766 95.7733 86.3393 95.768L85.5953 95.64C85.6699 95.1173 85.8139 94.656 86.0273 94.256C86.2406 93.8507 86.5099 93.512 86.8353 93.24C87.1659 92.968 87.5419 92.7627 87.9633 92.624C88.3899 92.48 88.8486 92.408 89.3393 92.408Z" fill="black"/>
<circle cx="11" cy="98" r="10" fill="white" stroke="#D8D8D8" stroke-width="2"/>
<path d="M35.096 12.216V17H33.552V5.536H36.792C37.5173 5.536 38.144 5.61067 38.672 5.76C39.2 5.904 39.6347 6.11467 39.976 6.392C40.3227 6.66933 40.5787 7.00533 40.744 7.4C40.9093 7.78933 40.992 8.22667 40.992 8.712C40.992 9.11733 40.928 9.496 40.8 9.848C40.672 10.2 40.4853 10.5173 40.24 10.8C40 11.0773 39.704 11.3147 39.352 11.512C39.0053 11.7093 38.6107 11.8587 38.168 11.96C38.36 12.072 38.5307 12.2347 38.68 12.448L42.024 17H40.648C40.3653 17 40.1573 16.8907 40.024 16.672L37.048 12.576C36.9573 12.448 36.8587 12.3573 36.752 12.304C36.6453 12.2453 36.4853 12.216 36.272 12.216H35.096ZM35.096 11.088H36.72C37.1733 11.088 37.5707 11.0347 37.912 10.928C38.2587 10.816 38.5467 10.6613 38.776 10.464C39.0107 10.2613 39.1867 10.0213 39.304 9.744C39.4213 9.46667 39.48 9.16 39.48 8.824C39.48 8.14133 39.2533 7.62667 38.8 7.28C38.352 6.93333 37.6827 6.76 36.792 6.76H35.096V11.088ZM49.4169 17H48.7849C48.6462 17 48.5342 16.9787 48.4489 16.936C48.3635 16.8933 48.3075 16.8027 48.2809 16.664L48.1209 15.912C47.9075 16.104 47.6995 16.2773 47.4969 16.432C47.2942 16.5813 47.0809 16.7093 46.8569 16.816C46.6329 16.9173 46.3929 16.9947 46.1369 17.048C45.8862 17.1013 45.6062 17.128 45.2969 17.128C44.9822 17.128 44.6862 17.0853 44.4089 17C44.1369 16.9093 43.8995 16.776 43.6969 16.6C43.4942 16.424 43.3315 16.2027 43.2089 15.936C43.0915 15.664 43.0329 15.344 43.0329 14.976C43.0329 14.656 43.1209 14.3493 43.2969 14.056C43.4729 13.7573 43.7555 13.4933 44.1449 13.264C44.5395 13.0347 45.0542 12.848 45.6889 12.704C46.3235 12.5547 47.0995 12.4693 48.0169 12.448V11.816C48.0169 11.1867 47.8809 10.712 47.6089 10.392C47.3422 10.0667 46.9449 9.904 46.4169 9.904C46.0702 9.904 45.7769 9.94933 45.5369 10.04C45.3022 10.1253 45.0969 10.224 44.9209 10.336C44.7502 10.4427 44.6009 10.5413 44.4729 10.632C44.3502 10.7173 44.2275 10.76 44.1049 10.76C44.0089 10.76 43.9235 10.736 43.8489 10.688C43.7795 10.6347 43.7235 10.5707 43.6809 10.496L43.4249 10.04C43.8729 9.608 44.3555 9.28533 44.8729 9.072C45.3902 8.85867 45.9635 8.752 46.5929 8.752C47.0462 8.752 47.4489 8.82667 47.8009 8.976C48.1529 9.12533 48.4489 9.33333 48.6889 9.6C48.9289 9.86667 49.1102 10.1893 49.2329 10.568C49.3555 10.9467 49.4169 11.3627 49.4169 11.816V17ZM45.7209 16.128C45.9715 16.128 46.2009 16.104 46.4089 16.056C46.6169 16.0027 46.8115 15.9307 46.9929 15.84C47.1795 15.744 47.3555 15.6293 47.5209 15.496C47.6915 15.3627 47.8569 15.2107 48.0169 15.04V13.352C47.3609 13.3733 46.8035 13.4267 46.3449 13.512C45.8862 13.592 45.5129 13.6987 45.2249 13.832C44.9369 13.9653 44.7262 14.1227 44.5929 14.304C44.4649 14.4853 44.4009 14.688 44.4009 14.912C44.4009 15.1253 44.4355 15.3093 44.5049 15.464C44.5742 15.6187 44.6675 15.7467 44.7849 15.848C44.9022 15.944 45.0409 16.016 45.2009 16.064C45.3609 16.1067 45.5342 16.128 45.7209 16.128ZM57.2783 17C57.0756 17 56.9476 16.9013 56.8943 16.704L56.7663 15.72C56.4196 16.1413 56.0223 16.48 55.5743 16.736C55.1316 16.9867 54.6223 17.112 54.0463 17.112C53.5823 17.112 53.1609 17.024 52.7823 16.848C52.4036 16.6667 52.0809 16.4027 51.8143 16.056C51.5476 15.7093 51.3423 15.2773 51.1983 14.76C51.0543 14.2427 50.9823 13.648 50.9823 12.976C50.9823 12.3787 51.0623 11.824 51.2223 11.312C51.3823 10.7947 51.6116 10.3467 51.9103 9.968C52.2143 9.58933 52.5823 9.29333 53.0143 9.08C53.4463 8.86133 53.9369 8.752 54.4863 8.752C54.9823 8.752 55.4063 8.83733 55.7583 9.008C56.1103 9.17333 56.4249 9.408 56.7023 9.712V5.216H58.1263V17H57.2783ZM54.5182 15.96C54.9823 15.96 55.3876 15.8533 55.7343 15.64C56.0863 15.4267 56.4089 15.1253 56.7023 14.736V10.816C56.4409 10.464 56.1529 10.2187 55.8383 10.08C55.5289 9.936 55.1849 9.864 54.8063 9.864C54.0489 9.864 53.4676 10.1333 53.0623 10.672C52.6569 11.2107 52.4543 11.9787 52.4543 12.976C52.4543 13.504 52.4996 13.9573 52.5903 14.336C52.6809 14.7093 52.8143 15.0187 52.9903 15.264C53.1663 15.504 53.3823 15.68 53.6383 15.792C53.8943 15.904 54.1876 15.96 54.5182 15.96ZM62.0958 8.896V17H60.6718V8.896H62.0958ZM62.4158 6.352C62.4158 6.49067 62.3864 6.62133 62.3278 6.744C62.2744 6.86133 62.1998 6.968 62.1038 7.064C62.0131 7.15467 61.9064 7.22667 61.7838 7.28C61.6611 7.33333 61.5304 7.36 61.3918 7.36C61.2531 7.36 61.1224 7.33333 60.9998 7.28C60.8824 7.22667 60.7758 7.15467 60.6798 7.064C60.5891 6.968 60.5171 6.86133 60.4638 6.744C60.4104 6.62133 60.3838 6.49067 60.3838 6.352C60.3838 6.21333 60.4104 6.08267 60.4638 5.96C60.5171 5.832 60.5891 5.72267 60.6798 5.632C60.7758 5.536 60.8824 5.46133 60.9998 5.408C61.1224 5.35467 61.2531 5.328 61.3918 5.328C61.5304 5.328 61.6611 5.35467 61.7838 5.408C61.9064 5.46133 62.0131 5.536 62.1038 5.632C62.1998 5.72267 62.2744 5.832 62.3278 5.96C62.3864 6.08267 62.4158 6.21333 62.4158 6.352ZM67.8855 8.768C68.4775 8.768 69.0108 8.86667 69.4855 9.064C69.9655 9.26133 70.3708 9.54133 70.7015 9.904C71.0375 10.2667 71.2935 10.7067 71.4695 11.224C71.6508 11.736 71.7415 12.3093 71.7415 12.944C71.7415 13.584 71.6508 14.16 71.4695 14.672C71.2935 15.184 71.0375 15.6213 70.7015 15.984C70.3708 16.3467 69.9655 16.6267 69.4855 16.824C69.0108 17.016 68.4775 17.112 67.8855 17.112C67.2935 17.112 66.7575 17.016 66.2775 16.824C65.8028 16.6267 65.3975 16.3467 65.0615 15.984C64.7255 15.6213 64.4668 15.184 64.2855 14.672C64.1042 14.16 64.0135 13.584 64.0135 12.944C64.0135 12.3093 64.1042 11.736 64.2855 11.224C64.4668 10.7067 64.7255 10.2667 65.0615 9.904C65.3975 9.54133 65.8028 9.26133 66.2775 9.064C66.7575 8.86667 67.2935 8.768 67.8855 8.768ZM67.8855 16C68.6855 16 69.2828 15.7333 69.6775 15.2C70.0722 14.6613 70.2695 13.912 70.2695 12.952C70.2695 11.9867 70.0722 11.2347 69.6775 10.696C69.2828 10.1573 68.6855 9.888 67.8855 9.888C67.4802 9.888 67.1282 9.95733 66.8295 10.096C66.5308 10.2347 66.2802 10.4347 66.0775 10.696C65.8802 10.9573 65.7308 11.28 65.6295 11.664C65.5335 12.0427 65.4855 12.472 65.4855 12.952C65.4855 13.432 65.5335 13.8613 65.6295 14.24C65.7308 14.6187 65.8802 14.9387 66.0775 15.2C66.2802 15.456 66.5308 15.6533 66.8295 15.792C67.1282 15.9307 67.4802 16 67.8855 16ZM76.6379 17V5.216H78.0699V10.064C78.4059 9.67467 78.7899 9.36267 79.2219 9.128C79.6592 8.888 80.1579 8.768 80.7179 8.768C81.1872 8.768 81.6112 8.856 81.9899 9.032C82.3685 9.208 82.6912 9.472 82.9579 9.824C83.2245 10.1707 83.4299 10.6027 83.5739 11.12C83.7179 11.632 83.7899 12.224 83.7899 12.896C83.7899 13.4933 83.7099 14.0507 83.5499 14.568C83.3899 15.08 83.1579 15.5253 82.8539 15.904C82.5552 16.2773 82.1872 16.5733 81.7499 16.792C81.3179 17.0053 80.8299 17.112 80.2859 17.112C79.7632 17.112 79.3179 17.0107 78.9499 16.808C78.5872 16.6053 78.2699 16.3227 77.9979 15.96L77.9259 16.696C77.8832 16.8987 77.7605 17 77.5579 17H76.6379ZM80.2539 9.904C79.7899 9.904 79.3819 10.0107 79.0299 10.224C78.6832 10.4373 78.3632 10.7387 78.0699 11.128V15.048C78.3259 15.4 78.6085 15.648 78.9179 15.792C79.2325 15.936 79.5819 16.008 79.9659 16.008C80.7232 16.008 81.3045 15.7387 81.7099 15.2C82.1152 14.6613 82.3179 13.8933 82.3179 12.896C82.3179 12.368 82.2699 11.9147 82.1739 11.536C82.0832 11.1573 81.9499 10.848 81.7739 10.608C81.5979 10.3627 81.3819 10.184 81.1259 10.072C80.8699 9.96 80.5792 9.904 80.2539 9.904ZM86.7594 8.896V14.064C86.7594 14.6773 86.9007 15.152 87.1834 15.488C87.466 15.824 87.8927 15.992 88.4634 15.992C88.8794 15.992 89.2714 15.8933 89.6394 15.696C90.0074 15.4987 90.346 15.224 90.6554 14.872V8.896H92.0794V17H91.2314C91.0287 17 90.9007 16.9013 90.8474 16.704L90.7354 15.832C90.3834 16.2213 89.9887 16.536 89.5514 16.776C89.114 17.0107 88.6127 17.128 88.0474 17.128C87.6047 17.128 87.2127 17.056 86.8714 16.912C86.5354 16.7627 86.2527 16.5547 86.0234 16.288C85.794 16.0213 85.6207 15.6987 85.5034 15.32C85.3914 14.9413 85.3354 14.5227 85.3354 14.064V8.896H86.7594ZM96.874 17.128C96.234 17.128 95.7407 16.9493 95.394 16.592C95.0527 16.2347 94.882 15.72 94.882 15.048V10.088H93.906C93.8207 10.088 93.7487 10.064 93.69 10.016C93.6313 9.96267 93.602 9.88267 93.602 9.776V9.208L94.93 9.04L95.258 6.536C95.2687 6.456 95.3033 6.392 95.362 6.344C95.4207 6.29067 95.4953 6.264 95.586 6.264H96.306V9.056H98.626V10.088H96.306V14.952C96.306 15.2933 96.3887 15.5467 96.554 15.712C96.7193 15.8773 96.9327 15.96 97.194 15.96C97.3433 15.96 97.4713 15.9413 97.578 15.904C97.69 15.8613 97.786 15.816 97.866 15.768C97.946 15.72 98.0127 15.6773 98.066 15.64C98.1247 15.5973 98.1753 15.576 98.218 15.576C98.2927 15.576 98.3593 15.6213 98.418 15.712L98.834 16.392C98.5887 16.6213 98.2927 16.8027 97.946 16.936C97.5993 17.064 97.242 17.128 96.874 17.128ZM102.843 17.128C102.203 17.128 101.709 16.9493 101.363 16.592C101.021 16.2347 100.851 15.72 100.851 15.048V10.088H99.8748C99.7894 10.088 99.7174 10.064 99.6588 10.016C99.6001 9.96267 99.5708 9.88267 99.5708 9.776V9.208L100.899 9.04L101.227 6.536C101.237 6.456 101.272 6.392 101.331 6.344C101.389 6.29067 101.464 6.264 101.555 6.264H102.275V9.056H104.595V10.088H102.275V14.952C102.275 15.2933 102.357 15.5467 102.523 15.712C102.688 15.8773 102.901 15.96 103.163 15.96C103.312 15.96 103.44 15.9413 103.547 15.904C103.659 15.8613 103.755 15.816 103.835 15.768C103.915 15.72 103.981 15.6773 104.035 15.64C104.093 15.5973 104.144 15.576 104.187 15.576C104.261 15.576 104.328 15.6213 104.387 15.712L104.803 16.392C104.557 16.6213 104.261 16.8027 103.915 16.936C103.568 17.064 103.211 17.128 102.843 17.128ZM109.636 8.768C110.228 8.768 110.761 8.86667 111.236 9.064C111.716 9.26133 112.121 9.54133 112.452 9.904C112.788 10.2667 113.044 10.7067 113.22 11.224C113.401 11.736 113.492 12.3093 113.492 12.944C113.492 13.584 113.401 14.16 113.22 14.672C113.044 15.184 112.788 15.6213 112.452 15.984C112.121 16.3467 111.716 16.6267 111.236 16.824C110.761 17.016 110.228 17.112 109.636 17.112C109.044 17.112 108.508 17.016 108.028 16.824C107.553 16.6267 107.148 16.3467 106.812 15.984C106.476 15.6213 106.217 15.184 106.036 14.672C105.854 14.16 105.764 13.584 105.764 12.944C105.764 12.3093 105.854 11.736 106.036 11.224C106.217 10.7067 106.476 10.2667 106.812 9.904C107.148 9.54133 107.553 9.26133 108.028 9.064C108.508 8.86667 109.044 8.768 109.636 8.768ZM109.636 16C110.436 16 111.033 15.7333 111.428 15.2C111.822 14.6613 112.02 13.912 112.02 12.952C112.02 11.9867 111.822 11.2347 111.428 10.696C111.033 10.1573 110.436 9.888 109.636 9.888C109.23 9.888 108.878 9.95733 108.58 10.096C108.281 10.2347 108.03 10.4347 107.828 10.696C107.63 10.9573 107.481 11.28 107.38 11.664C107.284 12.0427 107.236 12.472 107.236 12.952C107.236 13.432 107.284 13.8613 107.38 14.24C107.481 14.6187 107.63 14.9387 107.828 15.2C108.03 15.456 108.281 15.6533 108.58 15.792C108.878 15.9307 109.23 16 109.636 16ZM115.246 17V8.896H116.094C116.297 8.896 116.425 8.99467 116.478 9.192L116.59 10.072C116.942 9.68267 117.334 9.368 117.766 9.128C118.203 8.888 118.707 8.768 119.278 8.768C119.721 8.768 120.11 8.84267 120.446 8.992C120.787 9.136 121.07 9.344 121.294 9.616C121.523 9.88267 121.697 10.2053 121.814 10.584C121.931 10.9627 121.99 11.3813 121.99 11.84V17H120.566V11.84C120.566 11.2267 120.425 10.752 120.142 10.416C119.865 10.0747 119.438 9.904 118.862 9.904C118.441 9.904 118.046 10.0053 117.678 10.208C117.315 10.4107 116.979 10.6853 116.67 11.032V17H115.246ZM128.815 5.216V17H127.391V5.216H128.815ZM137.276 17H136.644C136.506 17 136.394 16.9787 136.308 16.936C136.223 16.8933 136.167 16.8027 136.14 16.664L135.98 15.912C135.767 16.104 135.559 16.2773 135.356 16.432C135.154 16.5813 134.94 16.7093 134.716 16.816C134.492 16.9173 134.252 16.9947 133.996 17.048C133.746 17.1013 133.466 17.128 133.156 17.128C132.842 17.128 132.546 17.0853 132.268 17C131.996 16.9093 131.759 16.776 131.556 16.6C131.354 16.424 131.191 16.2027 131.068 15.936C130.951 15.664 130.892 15.344 130.892 14.976C130.892 14.656 130.98 14.3493 131.156 14.056C131.332 13.7573 131.615 13.4933 132.004 13.264C132.399 13.0347 132.914 12.848 133.548 12.704C134.183 12.5547 134.959 12.4693 135.876 12.448V11.816C135.876 11.1867 135.74 10.712 135.468 10.392C135.202 10.0667 134.804 9.904 134.276 9.904C133.93 9.904 133.636 9.94933 133.396 10.04C133.162 10.1253 132.956 10.224 132.78 10.336C132.61 10.4427 132.46 10.5413 132.332 10.632C132.21 10.7173 132.087 10.76 131.964 10.76C131.868 10.76 131.783 10.736 131.708 10.688C131.639 10.6347 131.583 10.5707 131.54 10.496L131.284 10.04C131.732 9.608 132.215 9.28533 132.732 9.072C133.25 8.85867 133.823 8.752 134.452 8.752C134.906 8.752 135.308 8.82667 135.66 8.976C136.012 9.12533 136.308 9.33333 136.548 9.6C136.788 9.86667 136.97 10.1893 137.092 10.568C137.215 10.9467 137.276 11.3627 137.276 11.816V17ZM133.58 16.128C133.831 16.128 134.06 16.104 134.268 16.056C134.476 16.0027 134.671 15.9307 134.852 15.84C135.039 15.744 135.215 15.6293 135.38 15.496C135.551 15.3627 135.716 15.2107 135.876 15.04V13.352C135.22 13.3733 134.663 13.4267 134.204 13.512C133.746 13.592 133.372 13.6987 133.084 13.832C132.796 13.9653 132.586 14.1227 132.452 14.304C132.324 14.4853 132.26 14.688 132.26 14.912C132.26 15.1253 132.295 15.3093 132.364 15.464C132.434 15.6187 132.527 15.7467 132.644 15.848C132.762 15.944 132.9 16.016 133.06 16.064C133.22 16.1067 133.394 16.128 133.58 16.128ZM139.482 17V5.216H140.914V10.064C141.25 9.67467 141.634 9.36267 142.066 9.128C142.503 8.888 143.002 8.768 143.562 8.768C144.031 8.768 144.455 8.856 144.834 9.032C145.212 9.208 145.535 9.472 145.802 9.824C146.068 10.1707 146.274 10.6027 146.418 11.12C146.562 11.632 146.634 12.224 146.634 12.896C146.634 13.4933 146.554 14.0507 146.394 14.568C146.234 15.08 146.002 15.5253 145.698 15.904C145.399 16.2773 145.031 16.5733 144.594 16.792C144.162 17.0053 143.674 17.112 143.13 17.112C142.607 17.112 142.162 17.0107 141.794 16.808C141.431 16.6053 141.114 16.3227 140.842 15.96L140.77 16.696C140.727 16.8987 140.604 17 140.402 17H139.482ZM143.098 9.904C142.634 9.904 142.226 10.0107 141.874 10.224C141.527 10.4373 141.207 10.7387 140.914 11.128V15.048C141.17 15.4 141.452 15.648 141.762 15.792C142.076 15.936 142.426 16.008 142.81 16.008C143.567 16.008 144.148 15.7387 144.554 15.2C144.959 14.6613 145.162 13.8933 145.162 12.896C145.162 12.368 145.114 11.9147 145.018 11.536C144.927 11.1573 144.794 10.848 144.618 10.608C144.442 10.3627 144.226 10.184 143.97 10.072C143.714 9.96 143.423 9.904 143.098 9.904ZM151.579 8.768C152.064 8.768 152.512 8.85067 152.923 9.016C153.334 9.176 153.688 9.41067 153.987 9.72C154.286 10.024 154.518 10.4027 154.683 10.856C154.854 11.304 154.939 11.816 154.939 12.392C154.939 12.616 154.915 12.7653 154.867 12.84C154.819 12.9147 154.728 12.952 154.595 12.952H149.203C149.214 13.464 149.283 13.9093 149.411 14.288C149.539 14.6667 149.715 14.984 149.939 15.24C150.163 15.4907 150.43 15.68 150.739 15.808C151.048 15.9307 151.395 15.992 151.779 15.992C152.136 15.992 152.443 15.952 152.699 15.872C152.96 15.7867 153.184 15.696 153.371 15.6C153.558 15.504 153.712 15.416 153.835 15.336C153.963 15.2507 154.072 15.208 154.163 15.208C154.28 15.208 154.371 15.2533 154.435 15.344L154.835 15.864C154.659 16.0773 154.448 16.264 154.203 16.424C153.958 16.5787 153.694 16.7067 153.411 16.808C153.134 16.9093 152.846 16.984 152.547 17.032C152.248 17.0853 151.952 17.112 151.659 17.112C151.099 17.112 150.582 17.0187 150.107 16.832C149.638 16.64 149.23 16.3627 148.883 16C148.542 15.632 148.275 15.1787 148.083 14.64C147.891 14.1013 147.795 13.4827 147.795 12.784C147.795 12.2187 147.88 11.6907 148.051 11.2C148.227 10.7093 148.478 10.2853 148.803 9.928C149.128 9.56533 149.526 9.28267 149.995 9.08C150.464 8.872 150.992 8.768 151.579 8.768ZM151.611 9.816C150.923 9.816 150.382 10.016 149.987 10.416C149.592 10.8107 149.347 11.36 149.251 12.064H153.659C153.659 11.7333 153.614 11.432 153.523 11.16C153.432 10.8827 153.299 10.6453 153.123 10.448C152.947 10.2453 152.731 10.0907 152.475 9.984C152.224 9.872 151.936 9.816 151.611 9.816ZM158.346 5.216V17H156.922V5.216H158.346ZM166.405 17.128C165.765 17.128 165.272 16.9493 164.925 16.592C164.584 16.2347 164.413 15.72 164.413 15.048V10.088H163.437C163.352 10.088 163.28 10.064 163.221 10.016C163.163 9.96267 163.133 9.88267 163.133 9.776V9.208L164.461 9.04L164.789 6.536C164.8 6.456 164.835 6.392 164.893 6.344C164.952 6.29067 165.027 6.264 165.117 6.264H165.837V9.056H168.157V10.088H165.837V14.952C165.837 15.2933 165.92 15.5467 166.085 15.712C166.251 15.8773 166.464 15.96 166.725 15.96C166.875 15.96 167.003 15.9413 167.109 15.904C167.221 15.8613 167.317 15.816 167.397 15.768C167.477 15.72 167.544 15.6773 167.597 15.64C167.656 15.5973 167.707 15.576 167.749 15.576C167.824 15.576 167.891 15.6213 167.949 15.712L168.365 16.392C168.12 16.6213 167.824 16.8027 167.477 16.936C167.131 17.064 166.773 17.128 166.405 17.128ZM169.918 17V5.216H171.342V9.984C171.689 9.616 172.073 9.32267 172.494 9.104C172.915 8.88 173.401 8.768 173.95 8.768C174.393 8.768 174.782 8.84267 175.118 8.992C175.459 9.136 175.742 9.344 175.966 9.616C176.195 9.88267 176.369 10.2053 176.486 10.584C176.603 10.9627 176.662 11.3813 176.662 11.84V17H175.238V11.84C175.238 11.2267 175.097 10.752 174.814 10.416C174.537 10.0747 174.11 9.904 173.534 9.904C173.113 9.904 172.718 10.0053 172.35 10.208C171.987 10.4107 171.651 10.6853 171.342 11.032V17H169.918ZM184.761 17H184.129C183.99 17 183.878 16.9787 183.793 16.936C183.707 16.8933 183.651 16.8027 183.625 16.664L183.465 15.912C183.251 16.104 183.043 16.2773 182.841 16.432C182.638 16.5813 182.425 16.7093 182.201 16.816C181.977 16.9173 181.737 16.9947 181.481 17.048C181.23 17.1013 180.95 17.128 180.641 17.128C180.326 17.128 180.03 17.0853 179.753 17C179.481 16.9093 179.243 16.776 179.041 16.6C178.838 16.424 178.675 16.2027 178.553 15.936C178.435 15.664 178.377 15.344 178.377 14.976C178.377 14.656 178.465 14.3493 178.641 14.056C178.817 13.7573 179.099 13.4933 179.489 13.264C179.883 13.0347 180.398 12.848 181.033 12.704C181.667 12.5547 182.443 12.4693 183.361 12.448V11.816C183.361 11.1867 183.225 10.712 182.953 10.392C182.686 10.0667 182.289 9.904 181.761 9.904C181.414 9.904 181.121 9.94933 180.881 10.04C180.646 10.1253 180.441 10.224 180.265 10.336C180.094 10.4427 179.945 10.5413 179.817 10.632C179.694 10.7173 179.571 10.76 179.449 10.76C179.353 10.76 179.267 10.736 179.193 10.688C179.123 10.6347 179.067 10.5707 179.025 10.496L178.769 10.04C179.217 9.608 179.699 9.28533 180.217 9.072C180.734 8.85867 181.307 8.752 181.937 8.752C182.39 8.752 182.793 8.82667 183.145 8.976C183.497 9.12533 183.793 9.33333 184.033 9.6C184.273 9.86667 184.454 10.1893 184.577 10.568C184.699 10.9467 184.761 11.3627 184.761 11.816V17ZM181.065 16.128C181.315 16.128 181.545 16.104 181.753 16.056C181.961 16.0027 182.155 15.9307 182.337 15.84C182.523 15.744 182.699 15.6293 182.865 15.496C183.035 15.3627 183.201 15.2107 183.361 15.04V13.352C182.705 13.3733 182.147 13.4267 181.689 13.512C181.23 13.592 180.857 13.6987 180.569 13.832C180.281 13.9653 180.07 14.1227 179.937 14.304C179.809 14.4853 179.745 14.688 179.745 14.912C179.745 15.1253 179.779 15.3093 179.849 15.464C179.918 15.6187 180.011 15.7467 180.129 15.848C180.246 15.944 180.385 16.016 180.545 16.064C180.705 16.1067 180.878 16.128 181.065 16.128ZM189.374 17.128C188.734 17.128 188.241 16.9493 187.894 16.592C187.553 16.2347 187.382 15.72 187.382 15.048V10.088H186.406C186.321 10.088 186.249 10.064 186.19 10.016C186.131 9.96267 186.102 9.88267 186.102 9.776V9.208L187.43 9.04L187.758 6.536C187.769 6.456 187.803 6.392 187.862 6.344C187.921 6.29067 187.995 6.264 188.086 6.264H188.806V9.056H191.126V10.088H188.806V14.952C188.806 15.2933 188.889 15.5467 189.054 15.712C189.219 15.8773 189.433 15.96 189.694 15.96C189.843 15.96 189.971 15.9413 190.078 15.904C190.19 15.8613 190.286 15.816 190.366 15.768C190.446 15.72 190.513 15.6773 190.566 15.64C190.625 15.5973 190.675 15.576 190.718 15.576C190.793 15.576 190.859 15.6213 190.918 15.712L191.334 16.392C191.089 16.6213 190.793 16.8027 190.446 16.936C190.099 17.064 189.742 17.128 189.374 17.128ZM32.112 27.896H33.232C33.3493 27.896 33.4453 27.9253 33.52 27.984C33.5947 28.0427 33.6453 28.112 33.672 28.192L35.224 33.408C35.2667 33.6 35.3067 33.7867 35.344 33.968C35.3813 34.144 35.4133 34.3227 35.44 34.504C35.4827 34.3227 35.5307 34.144 35.584 33.968C35.6373 33.7867 35.6933 33.6 35.752 33.408L37.464 28.16C37.4907 28.08 37.536 28.0133 37.6 27.96C37.6693 27.9067 37.7547 27.88 37.856 27.88H38.472C38.5787 27.88 38.6667 27.9067 38.736 27.96C38.8053 28.0133 38.8533 28.08 38.88 28.16L40.552 33.408C40.6107 33.5947 40.6613 33.7787 40.704 33.96C40.752 34.1413 40.7973 34.32 40.84 34.496C40.8667 34.32 40.9013 34.136 40.944 33.944C40.9867 33.752 41.032 33.5733 41.08 33.408L42.664 28.192C42.6907 28.1067 42.7413 28.0373 42.816 27.984C42.8907 27.9253 42.9787 27.896 43.08 27.896H44.152L41.528 36H40.4C40.2613 36 40.1653 35.9093 40.112 35.728L38.32 30.232C38.2773 30.1093 38.2427 29.9867 38.216 29.864C38.1893 29.736 38.1627 29.6107 38.136 29.488C38.1093 29.6107 38.0827 29.736 38.056 29.864C38.0293 29.992 37.9947 30.1173 37.952 30.24L36.136 35.728C36.0773 35.9093 35.968 36 35.808 36H34.736L32.112 27.896ZM45.418 36V27.896H46.234C46.3887 27.896 46.4953 27.9253 46.554 27.984C46.6127 28.0427 46.6527 28.144 46.674 28.288L46.77 29.552C47.0473 28.9867 47.3887 28.5467 47.794 28.232C48.2047 27.912 48.6847 27.752 49.234 27.752C49.458 27.752 49.6607 27.7787 49.842 27.832C50.0233 27.88 50.1913 27.9493 50.346 28.04L50.162 29.104C50.1247 29.2373 50.042 29.304 49.914 29.304C49.8393 29.304 49.7247 29.28 49.57 29.232C49.4153 29.1787 49.1993 29.152 48.922 29.152C48.426 29.152 48.01 29.296 47.674 29.584C47.3433 29.872 47.066 30.2907 46.842 30.84V36H45.418ZM57.5263 36H56.8943C56.7556 36 56.6436 35.9787 56.5583 35.936C56.4729 35.8933 56.4169 35.8027 56.3903 35.664L56.2303 34.912C56.0169 35.104 55.8089 35.2773 55.6063 35.432C55.4036 35.5813 55.1903 35.7093 54.9663 35.816C54.7423 35.9173 54.5023 35.9947 54.2463 36.048C53.9956 36.1013 53.7156 36.128 53.4063 36.128C53.0916 36.128 52.7956 36.0853 52.5182 36C52.2463 35.9093 52.0089 35.776 51.8063 35.6C51.6036 35.424 51.4409 35.2027 51.3183 34.936C51.2009 34.664 51.1423 34.344 51.1423 33.976C51.1423 33.656 51.2303 33.3493 51.4062 33.056C51.5823 32.7573 51.8649 32.4933 52.2543 32.264C52.6489 32.0347 53.1636 31.848 53.7983 31.704C54.4329 31.5547 55.2089 31.4693 56.1263 31.448V30.816C56.1263 30.1867 55.9903 29.712 55.7183 29.392C55.4516 29.0667 55.0543 28.904 54.5263 28.904C54.1796 28.904 53.8863 28.9493 53.6463 29.04C53.4116 29.1253 53.2063 29.224 53.0303 29.336C52.8596 29.4427 52.7103 29.5413 52.5823 29.632C52.4596 29.7173 52.3369 29.76 52.2143 29.76C52.1183 29.76 52.0329 29.736 51.9583 29.688C51.8889 29.6347 51.8329 29.5707 51.7903 29.496L51.5343 29.04C51.9823 28.608 52.4649 28.2853 52.9823 28.072C53.4996 27.8587 54.0729 27.752 54.7023 27.752C55.1556 27.752 55.5583 27.8267 55.9103 27.976C56.2623 28.1253 56.5583 28.3333 56.7983 28.6C57.0383 28.8667 57.2196 29.1893 57.3423 29.568C57.4649 29.9467 57.5263 30.3627 57.5263 30.816V36ZM53.8303 35.128C54.0809 35.128 54.3103 35.104 54.5182 35.056C54.7263 35.0027 54.9209 34.9307 55.1023 34.84C55.2889 34.744 55.4649 34.6293 55.6303 34.496C55.8009 34.3627 55.9663 34.2107 56.1263 34.04V32.352C55.4703 32.3733 54.9129 32.4267 54.4543 32.512C53.9956 32.592 53.6223 32.6987 53.3343 32.832C53.0463 32.9653 52.8356 33.1227 52.7023 33.304C52.5743 33.4853 52.5103 33.688 52.5103 33.912C52.5103 34.1253 52.5449 34.3093 52.6143 34.464C52.6836 34.6187 52.7769 34.7467 52.8943 34.848C53.0116 34.944 53.1503 35.016 53.3103 35.064C53.4703 35.1067 53.6436 35.128 53.8303 35.128ZM59.6836 38.744V27.896H60.5316C60.7343 27.896 60.8623 27.9947 60.9156 28.192L61.0356 29.152C61.3823 28.7307 61.777 28.392 62.2196 28.136C62.6676 27.88 63.1823 27.752 63.7636 27.752C64.2276 27.752 64.649 27.8427 65.0276 28.024C65.4063 28.2 65.729 28.464 65.9956 28.816C66.2623 29.1627 66.4676 29.5947 66.6116 30.112C66.7556 30.6293 66.8276 31.224 66.8276 31.896C66.8276 32.4933 66.7476 33.0507 66.5876 33.568C66.4276 34.08 66.1983 34.5253 65.8996 34.904C65.601 35.2773 65.233 35.5733 64.7956 35.792C64.3636 36.0053 63.8756 36.112 63.3316 36.112C62.8303 36.112 62.401 36.0293 62.0436 35.864C61.6916 35.6987 61.3796 35.464 61.1076 35.16V38.744H59.6836ZM63.2916 28.904C62.8276 28.904 62.4196 29.0107 62.0676 29.224C61.721 29.4373 61.401 29.7387 61.1076 30.128V34.048C61.369 34.4 61.6543 34.648 61.9636 34.792C62.2783 34.936 62.6276 35.008 63.0116 35.008C63.7636 35.008 64.3423 34.7387 64.7476 34.2C65.153 33.6613 65.3556 32.8933 65.3556 31.896C65.3556 31.368 65.3076 30.9147 65.2116 30.536C65.121 30.1573 64.9876 29.848 64.8116 29.608C64.6356 29.3627 64.4196 29.184 64.1636 29.072C63.9076 28.96 63.617 28.904 63.2916 28.904ZM73.1518 29.232C73.0878 29.3493 72.9891 29.408 72.8558 29.408C72.7758 29.408 72.6851 29.3787 72.5838 29.32C72.4824 29.2613 72.3571 29.1973 72.2078 29.128C72.0638 29.0533 71.8904 28.9867 71.6878 28.928C71.4851 28.864 71.2451 28.832 70.9678 28.832C70.7278 28.832 70.5118 28.864 70.3198 28.928C70.1278 28.9867 69.9624 29.0693 69.8238 29.176C69.6904 29.2827 69.5864 29.408 69.5118 29.552C69.4424 29.6907 69.4078 29.8427 69.4078 30.008C69.4078 30.216 69.4664 30.3893 69.5838 30.528C69.7064 30.6667 69.8664 30.7867 70.0638 30.888C70.2611 30.9893 70.4851 31.08 70.7358 31.16C70.9864 31.2347 71.2424 31.3173 71.5038 31.408C71.7704 31.4933 72.0291 31.5893 72.2798 31.696C72.5304 31.8027 72.7544 31.936 72.9518 32.096C73.1491 32.256 73.3064 32.4533 73.4238 32.688C73.5464 32.9173 73.6078 33.1947 73.6078 33.52C73.6078 33.8933 73.5411 34.24 73.4078 34.56C73.2744 34.8747 73.0771 35.1493 72.8158 35.384C72.5544 35.6133 72.2344 35.7947 71.8558 35.928C71.4771 36.0613 71.0398 36.128 70.5438 36.128C69.9784 36.128 69.4664 36.0373 69.0078 35.856C68.5491 35.6693 68.1598 35.432 67.8398 35.144L68.1758 34.6C68.2184 34.5307 68.2691 34.4773 68.3278 34.44C68.3864 34.4027 68.4638 34.384 68.5598 34.384C68.6558 34.384 68.7571 34.4213 68.8638 34.496C68.9704 34.5707 69.0984 34.6533 69.2478 34.744C69.4024 34.8347 69.5864 34.9173 69.7998 34.992C70.0184 35.0667 70.2904 35.104 70.6158 35.104C70.8931 35.104 71.1358 35.0693 71.3438 35C71.5518 34.9253 71.7251 34.8267 71.8637 34.704C72.0024 34.5813 72.1038 34.44 72.1678 34.28C72.2371 34.12 72.2718 33.9493 72.2718 33.768C72.2718 33.544 72.2104 33.36 72.0878 33.216C71.9704 33.0667 71.8131 32.9413 71.6158 32.84C71.4184 32.7333 71.1918 32.6427 70.9358 32.568C70.6851 32.488 70.4264 32.4053 70.1598 32.32C69.8984 32.2347 69.6398 32.1387 69.3838 32.032C69.1331 31.92 68.9091 31.7813 68.7118 31.616C68.5144 31.4507 68.3544 31.248 68.2318 31.008C68.1144 30.7627 68.0558 30.4667 68.0558 30.12C68.0558 29.8107 68.1198 29.5147 68.2478 29.232C68.3758 28.944 68.5624 28.6933 68.8078 28.48C69.0531 28.2613 69.3544 28.088 69.7118 27.96C70.0691 27.832 70.4771 27.768 70.9358 27.768C71.4691 27.768 71.9464 27.8533 72.3678 28.024C72.7944 28.1893 73.1624 28.4187 73.4718 28.712L73.1518 29.232ZM80.999 36.128C80.359 36.128 79.8657 35.9493 79.519 35.592C79.1777 35.2347 79.007 34.72 79.007 34.048V29.088H78.031C77.9457 29.088 77.8737 29.064 77.815 29.016C77.7563 28.9627 77.727 28.8827 77.727 28.776V28.208L79.055 28.04L79.383 25.536C79.3937 25.456 79.4283 25.392 79.487 25.344C79.5457 25.2907 79.6203 25.264 79.711 25.264H80.431V28.056H82.751V29.088H80.431V33.952C80.431 34.2933 80.5137 34.5467 80.679 34.712C80.8443 34.8773 81.0577 34.96 81.319 34.96C81.4683 34.96 81.5963 34.9413 81.703 34.904C81.815 34.8613 81.911 34.816 81.991 34.768C82.071 34.72 82.1377 34.6773 82.191 34.64C82.2497 34.5973 82.3003 34.576 82.343 34.576C82.4177 34.576 82.4843 34.6213 82.543 34.712L82.959 35.392C82.7137 35.6213 82.4177 35.8027 82.071 35.936C81.7243 36.064 81.367 36.128 80.999 36.128ZM87.7918 27.768C88.3838 27.768 88.9171 27.8667 89.3918 28.064C89.8718 28.2613 90.2771 28.5413 90.6078 28.904C90.9438 29.2667 91.1998 29.7067 91.3758 30.224C91.5571 30.736 91.6478 31.3093 91.6478 31.944C91.6478 32.584 91.5571 33.16 91.3758 33.672C91.1998 34.184 90.9438 34.6213 90.6078 34.984C90.2771 35.3467 89.8718 35.6267 89.3918 35.824C88.9171 36.016 88.3838 36.112 87.7918 36.112C87.1998 36.112 86.6638 36.016 86.1838 35.824C85.7091 35.6267 85.3038 35.3467 84.9678 34.984C84.6318 34.6213 84.3731 34.184 84.1918 33.672C84.0104 33.16 83.9198 32.584 83.9198 31.944C83.9198 31.3093 84.0104 30.736 84.1918 30.224C84.3731 29.7067 84.6318 29.2667 84.9678 28.904C85.3038 28.5413 85.7091 28.2613 86.1838 28.064C86.6638 27.8667 87.1998 27.768 87.7918 27.768ZM87.7918 35C88.5918 35 89.1891 34.7333 89.5838 34.2C89.9784 33.6613 90.1758 32.912 90.1758 31.952C90.1758 30.9867 89.9784 30.2347 89.5838 29.696C89.1891 29.1573 88.5918 28.888 87.7918 28.888C87.3864 28.888 87.0344 28.9573 86.7358 29.096C86.4371 29.2347 86.1864 29.4347 85.9838 29.696C85.7864 29.9573 85.6371 30.28 85.5358 30.664C85.4398 31.0427 85.3918 31.472 85.3918 31.952C85.3918 32.432 85.4398 32.8613 85.5358 33.24C85.6371 33.6187 85.7864 33.9387 85.9838 34.2C86.1864 34.456 86.4371 34.6533 86.7358 34.792C87.0344 34.9307 87.3864 35 87.7918 35ZM96.4961 36V27.896H97.3441C97.5468 27.896 97.6748 27.9947 97.7281 28.192L97.8321 29.024C98.1308 28.656 98.4641 28.3547 98.8321 28.12C99.2055 27.8853 99.6375 27.768 100.128 27.768C100.677 27.768 101.12 27.92 101.456 28.224C101.797 28.528 102.043 28.9387 102.192 29.456C102.304 29.1627 102.451 28.9093 102.632 28.696C102.819 28.4827 103.027 28.3067 103.256 28.168C103.485 28.0293 103.728 27.928 103.984 27.864C104.245 27.8 104.509 27.768 104.776 27.768C105.203 27.768 105.581 27.8373 105.912 27.976C106.248 28.1093 106.531 28.3067 106.76 28.568C106.995 28.8293 107.173 29.152 107.296 29.536C107.419 29.9147 107.48 30.3493 107.48 30.84V36H106.056V30.84C106.056 30.2053 105.917 29.7253 105.64 29.4C105.363 29.0693 104.96 28.904 104.432 28.904C104.197 28.904 103.973 28.9467 103.76 29.032C103.552 29.112 103.368 29.232 103.208 29.392C103.048 29.552 102.92 29.7547 102.824 30C102.733 30.24 102.688 30.52 102.688 30.84V36H101.264V30.84C101.264 30.1893 101.133 29.704 100.872 29.384C100.611 29.064 100.229 28.904 99.7281 28.904C99.3761 28.904 99.0481 29 98.7441 29.192C98.4455 29.3787 98.1708 29.6347 97.9201 29.96V36H96.4961ZM110.869 27.896V33.064C110.869 33.6773 111.01 34.152 111.293 34.488C111.575 34.824 112.002 34.992 112.573 34.992C112.989 34.992 113.381 34.8933 113.749 34.696C114.117 34.4987 114.455 34.224 114.765 33.872V27.896H116.189V36H115.341C115.138 36 115.01 35.9013 114.957 35.704L114.845 34.832C114.493 35.2213 114.098 35.536 113.661 35.776C113.223 36.0107 112.722 36.128 112.157 36.128C111.714 36.128 111.322 36.056 110.981 35.912C110.645 35.7627 110.362 35.5547 110.133 35.288C109.903 35.0213 109.73 34.6987 109.613 34.32C109.501 33.9413 109.445 33.5227 109.445 33.064V27.896H110.869ZM120.111 24.216V36H118.687V24.216H120.111ZM125.077 36.128C124.437 36.128 123.944 35.9493 123.597 35.592C123.256 35.2347 123.085 34.72 123.085 34.048V29.088H122.109C122.024 29.088 121.952 29.064 121.893 29.016C121.834 28.9627 121.805 28.8827 121.805 28.776V28.208L123.133 28.04L123.461 25.536C123.472 25.456 123.506 25.392 123.565 25.344C123.624 25.2907 123.698 25.264 123.789 25.264H124.509V28.056H126.829V29.088H124.509V33.952C124.509 34.2933 124.592 34.5467 124.757 34.712C124.922 34.8773 125.136 34.96 125.397 34.96C125.546 34.96 125.674 34.9413 125.781 34.904C125.893 34.8613 125.989 34.816 126.069 34.768C126.149 34.72 126.216 34.6773 126.269 34.64C126.328 34.5973 126.378 34.576 126.421 34.576C126.496 34.576 126.562 34.6213 126.621 34.712L127.037 35.392C126.792 35.6213 126.496 35.8027 126.149 35.936C125.802 36.064 125.445 36.128 125.077 36.128ZM130.174 27.896V36H128.75V27.896H130.174ZM130.494 25.352C130.494 25.4907 130.465 25.6213 130.406 25.744C130.353 25.8613 130.278 25.968 130.182 26.064C130.091 26.1547 129.985 26.2267 129.862 26.28C129.739 26.3333 129.609 26.36 129.47 26.36C129.331 26.36 129.201 26.3333 129.078 26.28C128.961 26.2267 128.854 26.1547 128.758 26.064C128.667 25.968 128.595 25.8613 128.542 25.744C128.489 25.6213 128.462 25.4907 128.462 25.352C128.462 25.2133 128.489 25.0827 128.542 24.96C128.595 24.832 128.667 24.7227 128.758 24.632C128.854 24.536 128.961 24.4613 129.078 24.408C129.201 24.3547 129.331 24.328 129.47 24.328C129.609 24.328 129.739 24.3547 129.862 24.408C129.985 24.4613 130.091 24.536 130.182 24.632C130.278 24.7227 130.353 24.832 130.406 24.96C130.465 25.0827 130.494 25.2133 130.494 25.352ZM132.684 38.744V27.896H133.532C133.734 27.896 133.862 27.9947 133.916 28.192L134.036 29.152C134.382 28.7307 134.777 28.392 135.22 28.136C135.668 27.88 136.182 27.752 136.764 27.752C137.228 27.752 137.649 27.8427 138.028 28.024C138.406 28.2 138.729 28.464 138.996 28.816C139.262 29.1627 139.468 29.5947 139.612 30.112C139.756 30.6293 139.828 31.224 139.828 31.896C139.828 32.4933 139.748 33.0507 139.588 33.568C139.428 34.08 139.198 34.5253 138.9 34.904C138.601 35.2773 138.233 35.5733 137.796 35.792C137.364 36.0053 136.876 36.112 136.332 36.112C135.83 36.112 135.401 36.0293 135.044 35.864C134.692 35.6987 134.38 35.464 134.108 35.16V38.744H132.684ZM136.292 28.904C135.828 28.904 135.42 29.0107 135.068 29.224C134.721 29.4373 134.401 29.7387 134.108 30.128V34.048C134.369 34.4 134.654 34.648 134.964 34.792C135.278 34.936 135.628 35.008 136.012 35.008C136.764 35.008 137.342 34.7387 137.748 34.2C138.153 33.6613 138.356 32.8933 138.356 31.896C138.356 31.368 138.308 30.9147 138.212 30.536C138.121 30.1573 137.988 29.848 137.812 29.608C137.636 29.3627 137.42 29.184 137.164 29.072C136.908 28.96 136.617 28.904 136.292 28.904ZM143.096 24.216V36H141.672V24.216H143.096ZM148.814 27.768C149.299 27.768 149.747 27.8507 150.158 28.016C150.568 28.176 150.923 28.4107 151.222 28.72C151.52 29.024 151.752 29.4027 151.918 29.856C152.088 30.304 152.174 30.816 152.174 31.392C152.174 31.616 152.15 31.7653 152.102 31.84C152.054 31.9147 151.963 31.952 151.83 31.952H146.438C146.448 32.464 146.518 32.9093 146.646 33.288C146.774 33.6667 146.95 33.984 147.174 34.24C147.398 34.4907 147.664 34.68 147.974 34.808C148.283 34.9307 148.63 34.992 149.014 34.992C149.371 34.992 149.678 34.952 149.934 34.872C150.195 34.7867 150.419 34.696 150.606 34.6C150.792 34.504 150.947 34.416 151.07 34.336C151.198 34.2507 151.307 34.208 151.398 34.208C151.515 34.208 151.606 34.2533 151.67 34.344L152.07 34.864C151.894 35.0773 151.683 35.264 151.438 35.424C151.192 35.5787 150.928 35.7067 150.646 35.808C150.368 35.9093 150.08 35.984 149.782 36.032C149.483 36.0853 149.187 36.112 148.894 36.112C148.334 36.112 147.816 36.0187 147.342 35.832C146.872 35.64 146.464 35.3627 146.118 35C145.776 34.632 145.51 34.1787 145.318 33.64C145.126 33.1013 145.03 32.4827 145.03 31.784C145.03 31.2187 145.115 30.6907 145.286 30.2C145.462 29.7093 145.712 29.2853 146.038 28.928C146.363 28.5653 146.76 28.2827 147.23 28.08C147.699 27.872 148.227 27.768 148.814 27.768ZM148.845 28.816C148.158 28.816 147.616 29.016 147.222 29.416C146.827 29.8107 146.582 30.36 146.486 31.064H150.894C150.894 30.7333 150.848 30.432 150.758 30.16C150.667 29.8827 150.534 29.6453 150.358 29.448C150.182 29.2453 149.966 29.0907 149.71 28.984C149.459 28.872 149.171 28.816 148.845 28.816ZM158.674 24.216V36H157.25V24.216H158.674ZM162.768 27.896V36H161.344V27.896H162.768ZM163.088 25.352C163.088 25.4907 163.058 25.6213 163 25.744C162.946 25.8613 162.872 25.968 162.776 26.064C162.685 26.1547 162.578 26.2267 162.456 26.28C162.333 26.3333 162.202 26.36 162.064 26.36C161.925 26.36 161.794 26.3333 161.672 26.28C161.554 26.2267 161.448 26.1547 161.352 26.064C161.261 25.968 161.189 25.8613 161.136 25.744C161.082 25.6213 161.056 25.4907 161.056 25.352C161.056 25.2133 161.082 25.0827 161.136 24.96C161.189 24.832 161.261 24.7227 161.352 24.632C161.448 24.536 161.554 24.4613 161.672 24.408C161.794 24.3547 161.925 24.328 162.064 24.328C162.202 24.328 162.333 24.3547 162.456 24.408C162.578 24.4613 162.685 24.536 162.776 24.632C162.872 24.7227 162.946 24.832 163 24.96C163.058 25.0827 163.088 25.2133 163.088 25.352ZM165.277 36V27.896H166.125C166.328 27.896 166.456 27.9947 166.509 28.192L166.621 29.072C166.973 28.6827 167.365 28.368 167.797 28.128C168.235 27.888 168.739 27.768 169.309 27.768C169.752 27.768 170.141 27.8427 170.477 27.992C170.819 28.136 171.101 28.344 171.325 28.616C171.555 28.8827 171.728 29.2053 171.845 29.584C171.963 29.9627 172.021 30.3813 172.021 30.84V36H170.597V30.84C170.597 30.2267 170.456 29.752 170.173 29.416C169.896 29.0747 169.469 28.904 168.893 28.904C168.472 28.904 168.077 29.0053 167.709 29.208C167.347 29.4107 167.011 29.6853 166.701 30.032V36H165.277ZM177.376 27.768C177.861 27.768 178.309 27.8507 178.72 28.016C179.131 28.176 179.485 28.4107 179.784 28.72C180.083 29.024 180.315 29.4027 180.48 29.856C180.651 30.304 180.736 30.816 180.736 31.392C180.736 31.616 180.712 31.7653 180.664 31.84C180.616 31.9147 180.525 31.952 180.392 31.952H175C175.011 32.464 175.08 32.9093 175.208 33.288C175.336 33.6667 175.512 33.984 175.736 34.24C175.96 34.4907 176.227 34.68 176.536 34.808C176.845 34.9307 177.192 34.992 177.576 34.992C177.933 34.992 178.24 34.952 178.496 34.872C178.757 34.7867 178.981 34.696 179.168 34.6C179.355 34.504 179.509 34.416 179.632 34.336C179.76 34.2507 179.869 34.208 179.96 34.208C180.077 34.208 180.168 34.2533 180.232 34.344L180.632 34.864C180.456 35.0773 180.245 35.264 180 35.424C179.755 35.5787 179.491 35.7067 179.208 35.808C178.931 35.9093 178.643 35.984 178.344 36.032C178.045 36.0853 177.749 36.112 177.456 36.112C176.896 36.112 176.379 36.0187 175.904 35.832C175.435 35.64 175.027 35.3627 174.68 35C174.339 34.632 174.072 34.1787 173.88 33.64C173.688 33.1013 173.592 32.4827 173.592 31.784C173.592 31.2187 173.677 30.6907 173.848 30.2C174.024 29.7093 174.275 29.2853 174.6 28.928C174.925 28.5653 175.323 28.2827 175.792 28.08C176.261 27.872 176.789 27.768 177.376 27.768ZM177.408 28.816C176.72 28.816 176.179 29.016 175.784 29.416C175.389 29.8107 175.144 30.36 175.048 31.064H179.456C179.456 30.7333 179.411 30.432 179.32 30.16C179.229 29.8827 179.096 29.6453 178.92 29.448C178.744 29.2453 178.528 29.0907 178.272 28.984C178.021 28.872 177.733 28.816 177.408 28.816ZM187.199 29.232C187.135 29.3493 187.036 29.408 186.903 29.408C186.823 29.408 186.732 29.3787 186.631 29.32C186.529 29.2613 186.404 29.1973 186.255 29.128C186.111 29.0533 185.937 28.9867 185.735 28.928C185.532 28.864 185.292 28.832 185.015 28.832C184.775 28.832 184.559 28.864 184.367 28.928C184.175 28.9867 184.009 29.0693 183.871 29.176C183.737 29.2827 183.633 29.408 183.559 29.552C183.489 29.6907 183.455 29.8427 183.455 30.008C183.455 30.216 183.513 30.3893 183.631 30.528C183.753 30.6667 183.913 30.7867 184.111 30.888C184.308 30.9893 184.532 31.08 184.783 31.16C185.033 31.2347 185.289 31.3173 185.551 31.408C185.817 31.4933 186.076 31.5893 186.327 31.696C186.577 31.8027 186.801 31.936 186.999 32.096C187.196 32.256 187.353 32.4533 187.471 32.688C187.593 32.9173 187.655 33.1947 187.655 33.52C187.655 33.8933 187.588 34.24 187.455 34.56C187.321 34.8747 187.124 35.1493 186.863 35.384C186.601 35.6133 186.281 35.7947 185.903 35.928C185.524 36.0613 185.087 36.128 184.591 36.128C184.025 36.128 183.513 36.0373 183.055 35.856C182.596 35.6693 182.207 35.432 181.887 35.144L182.223 34.6C182.265 34.5307 182.316 34.4773 182.375 34.44C182.433 34.4027 182.511 34.384 182.607 34.384C182.703 34.384 182.804 34.4213 182.911 34.496C183.017 34.5707 183.145 34.6533 183.295 34.744C183.449 34.8347 183.633 34.9173 183.847 34.992C184.065 35.0667 184.337 35.104 184.663 35.104C184.94 35.104 185.183 35.0693 185.391 35C185.599 34.9253 185.772 34.8267 185.911 34.704C186.049 34.5813 186.151 34.44 186.215 34.28C186.284 34.12 186.319 33.9493 186.319 33.768C186.319 33.544 186.257 33.36 186.135 33.216C186.017 33.0667 185.86 32.9413 185.663 32.84C185.465 32.7333 185.239 32.6427 184.983 32.568C184.732 32.488 184.473 32.4053 184.207 32.32C183.945 32.2347 183.687 32.1387 183.431 32.032C183.18 31.92 182.956 31.7813 182.759 31.616C182.561 31.4507 182.401 31.248 182.279 31.008C182.161 30.7627 182.103 30.4667 182.103 30.12C182.103 29.8107 182.167 29.5147 182.295 29.232C182.423 28.944 182.609 28.6933 182.855 28.48C183.1 28.2613 183.401 28.088 183.759 27.96C184.116 27.832 184.524 27.768 184.983 27.768C185.516 27.768 185.993 27.8533 186.415 28.024C186.841 28.1893 187.209 28.4187 187.519 28.712L187.199 29.232ZM33.216 55V43.216H34.648V48.064C34.984 47.6747 35.368 47.3627 35.8 47.128C36.2373 46.888 36.736 46.768 37.296 46.768C37.7653 46.768 38.1893 46.856 38.568 47.032C38.9467 47.208 39.2693 47.472 39.536 47.824C39.8027 48.1707 40.008 48.6027 40.152 49.12C40.296 49.632 40.368 50.224 40.368 50.896C40.368 51.4933 40.288 52.0507 40.128 52.568C39.968 53.08 39.736 53.5253 39.432 53.904C39.1333 54.2773 38.7653 54.5733 38.328 54.792C37.896 55.0053 37.408 55.112 36.864 55.112C36.3413 55.112 35.896 55.0107 35.528 54.808C35.1653 54.6053 34.848 54.3227 34.576 53.96L34.504 54.696C34.4613 54.8987 34.3387 55 34.136 55H33.216ZM36.832 47.904C36.368 47.904 35.96 48.0107 35.608 48.224C35.2613 48.4373 34.9413 48.7387 34.648 49.128V53.048C34.904 53.4 35.1867 53.648 35.496 53.792C35.8107 53.936 36.16 54.008 36.544 54.008C37.3013 54.008 37.8827 53.7387 38.288 53.2C38.6933 52.6613 38.896 51.8933 38.896 50.896C38.896 50.368 38.848 49.9147 38.752 49.536C38.6613 49.1573 38.528 48.848 38.352 48.608C38.176 48.3627 37.96 48.184 37.704 48.072C37.448 47.96 37.1573 47.904 36.832 47.904ZM45.3135 46.768C45.7988 46.768 46.2468 46.8507 46.6575 47.016C47.0682 47.176 47.4228 47.4107 47.7215 47.72C48.0202 48.024 48.2522 48.4027 48.4175 48.856C48.5882 49.304 48.6735 49.816 48.6735 50.392C48.6735 50.616 48.6495 50.7653 48.6015 50.84C48.5535 50.9147 48.4628 50.952 48.3295 50.952H42.9375C42.9482 51.464 43.0175 51.9093 43.1455 52.288C43.2735 52.6667 43.4495 52.984 43.6735 53.24C43.8975 53.4907 44.1642 53.68 44.4735 53.808C44.7828 53.9307 45.1295 53.992 45.5135 53.992C45.8708 53.992 46.1775 53.952 46.4335 53.872C46.6948 53.7867 46.9188 53.696 47.1055 53.6C47.2922 53.504 47.4468 53.416 47.5695 53.336C47.6975 53.2507 47.8068 53.208 47.8975 53.208C48.0148 53.208 48.1055 53.2533 48.1695 53.344L48.5695 53.864C48.3935 54.0773 48.1828 54.264 47.9375 54.424C47.6922 54.5787 47.4282 54.7067 47.1455 54.808C46.8682 54.9093 46.5802 54.984 46.2815 55.032C45.9828 55.0853 45.6868 55.112 45.3935 55.112C44.8335 55.112 44.3162 55.0187 43.8415 54.832C43.3722 54.64 42.9642 54.3627 42.6175 54C42.2762 53.632 42.0095 53.1787 41.8175 52.64C41.6255 52.1013 41.5295 51.4827 41.5295 50.784C41.5295 50.2187 41.6148 49.6907 41.7855 49.2C41.9615 48.7093 42.2122 48.2853 42.5375 47.928C42.8628 47.5653 43.2602 47.2827 43.7295 47.08C44.1988 46.872 44.7268 46.768 45.3135 46.768ZM45.3455 47.816C44.6575 47.816 44.1162 48.016 43.7215 48.416C43.3268 48.8107 43.0815 49.36 42.9855 50.064H47.3935C47.3935 49.7333 47.3482 49.432 47.2575 49.16C47.1668 48.8827 47.0335 48.6453 46.8575 48.448C46.6815 48.2453 46.4655 48.0907 46.2095 47.984C45.9588 47.872 45.6708 47.816 45.3455 47.816ZM56.0241 48.336C55.9815 48.3947 55.9388 48.44 55.8961 48.472C55.8535 48.504 55.7921 48.52 55.7121 48.52C55.6321 48.52 55.5441 48.488 55.4481 48.424C55.3575 48.3547 55.2401 48.28 55.0961 48.2C54.9521 48.12 54.7761 48.048 54.5681 47.984C54.3655 47.9147 54.1148 47.88 53.8161 47.88C53.4215 47.88 53.0721 47.952 52.7681 48.096C52.4641 48.2347 52.2081 48.4373 52.0001 48.704C51.7975 48.9707 51.6428 49.2933 51.5361 49.672C51.4348 50.0507 51.3841 50.4747 51.3841 50.944C51.3841 51.4347 51.4401 51.872 51.5521 52.256C51.6641 52.6347 51.8215 52.9547 52.0241 53.216C52.2268 53.472 52.4721 53.6693 52.7601 53.808C53.0535 53.9413 53.3815 54.008 53.7441 54.008C54.0908 54.008 54.3761 53.968 54.6001 53.888C54.8241 53.8027 55.0108 53.7093 55.1601 53.608C55.3095 53.5067 55.4321 53.416 55.5281 53.336C55.6241 53.2507 55.7201 53.208 55.8161 53.208C55.9388 53.208 56.0295 53.2533 56.0881 53.344L56.4881 53.864C56.1361 54.296 55.6961 54.6133 55.1681 54.816C54.6401 55.0133 54.0828 55.112 53.4961 55.112C52.9895 55.112 52.5175 55.0187 52.0801 54.832C51.6481 54.6453 51.2721 54.376 50.9521 54.024C50.6321 53.6667 50.3788 53.2293 50.1921 52.712C50.0108 52.1947 49.9201 51.6053 49.9201 50.944C49.9201 50.3413 50.0028 49.784 50.1681 49.272C50.3388 48.76 50.5841 48.32 50.9041 47.952C51.2295 47.5787 51.6295 47.288 52.1041 47.08C52.5788 46.872 53.1228 46.768 53.7361 46.768C54.3015 46.768 54.8028 46.8613 55.2401 47.048C55.6775 47.2293 56.0641 47.488 56.4001 47.824L56.0241 48.336ZM63.9169 55H63.2849C63.1462 55 63.0342 54.9787 62.9489 54.936C62.8635 54.8933 62.8075 54.8027 62.7809 54.664L62.6209 53.912C62.4075 54.104 62.1995 54.2773 61.9969 54.432C61.7942 54.5813 61.5809 54.7093 61.3569 54.816C61.1329 54.9173 60.8929 54.9947 60.6369 55.048C60.3862 55.1013 60.1062 55.128 59.7969 55.128C59.4822 55.128 59.1862 55.0853 58.9089 55C58.6369 54.9093 58.3995 54.776 58.1969 54.6C57.9942 54.424 57.8315 54.2027 57.7089 53.936C57.5915 53.664 57.5329 53.344 57.5329 52.976C57.5329 52.656 57.6209 52.3493 57.7969 52.056C57.9729 51.7573 58.2555 51.4933 58.6449 51.264C59.0395 51.0347 59.5542 50.848 60.1889 50.704C60.8235 50.5547 61.5995 50.4693 62.5169 50.448V49.816C62.5169 49.1867 62.3809 48.712 62.1089 48.392C61.8422 48.0667 61.4449 47.904 60.9169 47.904C60.5702 47.904 60.2769 47.9493 60.0369 48.04C59.8022 48.1253 59.5969 48.224 59.4209 48.336C59.2502 48.4427 59.1009 48.5413 58.9729 48.632C58.8502 48.7173 58.7275 48.76 58.6049 48.76C58.5089 48.76 58.4235 48.736 58.3489 48.688C58.2795 48.6347 58.2235 48.5707 58.1809 48.496L57.9249 48.04C58.3729 47.608 58.8555 47.2853 59.3729 47.072C59.8902 46.8587 60.4635 46.752 61.0929 46.752C61.5462 46.752 61.9489 46.8267 62.3009 46.976C62.6529 47.1253 62.9489 47.3333 63.1889 47.6C63.4289 47.8667 63.6102 48.1893 63.7329 48.568C63.8555 48.9467 63.9169 49.3627 63.9169 49.816V55ZM60.2209 54.128C60.4715 54.128 60.7009 54.104 60.9089 54.056C61.1169 54.0027 61.3115 53.9307 61.4929 53.84C61.6795 53.744 61.8555 53.6293 62.0209 53.496C62.1915 53.3627 62.3569 53.2107 62.5169 53.04V51.352C61.8609 51.3733 61.3035 51.4267 60.8449 51.512C60.3862 51.592 60.0129 51.6987 59.7249 51.832C59.4369 51.9653 59.2262 52.1227 59.0929 52.304C58.9649 52.4853 58.9009 52.688 58.9009 52.912C58.9009 53.1253 58.9355 53.3093 59.0049 53.464C59.0742 53.6187 59.1675 53.7467 59.2849 53.848C59.4022 53.944 59.5409 54.016 59.7009 54.064C59.8609 54.1067 60.0342 54.128 60.2209 54.128ZM67.3063 46.896V52.064C67.3063 52.6773 67.4476 53.152 67.7303 53.488C68.0129 53.824 68.4396 53.992 69.0103 53.992C69.4263 53.992 69.8183 53.8933 70.1863 53.696C70.5543 53.4987 70.8929 53.224 71.2023 52.872V46.896H72.6263V55H71.7783C71.5756 55 71.4476 54.9013 71.3943 54.704L71.2823 53.832C70.9303 54.2213 70.5356 54.536 70.0983 54.776C69.6609 55.0107 69.1596 55.128 68.5943 55.128C68.1516 55.128 67.7596 55.056 67.4183 54.912C67.0823 54.7627 66.7996 54.5547 66.5703 54.288C66.3409 54.0213 66.1676 53.6987 66.0503 53.32C65.9383 52.9413 65.8823 52.5227 65.8823 52.064V46.896H67.3063ZM79.6049 48.232C79.5409 48.3493 79.4422 48.408 79.3089 48.408C79.2289 48.408 79.1382 48.3787 79.0369 48.32C78.9355 48.2613 78.8102 48.1973 78.6609 48.128C78.5169 48.0533 78.3435 47.9867 78.1409 47.928C77.9382 47.864 77.6982 47.832 77.4209 47.832C77.1809 47.832 76.9649 47.864 76.7729 47.928C76.5809 47.9867 76.4155 48.0693 76.2769 48.176C76.1435 48.2827 76.0395 48.408 75.9649 48.552C75.8955 48.6907 75.8609 48.8427 75.8609 49.008C75.8609 49.216 75.9195 49.3893 76.0369 49.528C76.1595 49.6667 76.3195 49.7867 76.5169 49.888C76.7142 49.9893 76.9382 50.08 77.1889 50.16C77.4395 50.2347 77.6955 50.3173 77.9569 50.408C78.2235 50.4933 78.4822 50.5893 78.7329 50.696C78.9835 50.8027 79.2075 50.936 79.4049 51.096C79.6022 51.256 79.7595 51.4533 79.8769 51.688C79.9995 51.9173 80.0609 52.1947 80.0609 52.52C80.0609 52.8933 79.9942 53.24 79.8609 53.56C79.7275 53.8747 79.5302 54.1493 79.2689 54.384C79.0075 54.6133 78.6875 54.7947 78.3089 54.928C77.9302 55.0613 77.4929 55.128 76.9969 55.128C76.4315 55.128 75.9195 55.0373 75.4609 54.856C75.0022 54.6693 74.6129 54.432 74.2929 54.144L74.6289 53.6C74.6715 53.5307 74.7222 53.4773 74.7809 53.44C74.8395 53.4027 74.9169 53.384 75.0129 53.384C75.1089 53.384 75.2102 53.4213 75.3169 53.496C75.4235 53.5707 75.5515 53.6533 75.7009 53.744C75.8555 53.8347 76.0395 53.9173 76.2529 53.992C76.4715 54.0667 76.7435 54.104 77.0689 54.104C77.3462 54.104 77.5889 54.0693 77.7969 54C78.0049 53.9253 78.1782 53.8267 78.3169 53.704C78.4555 53.5813 78.5569 53.44 78.6209 53.28C78.6902 53.12 78.7249 52.9493 78.7249 52.768C78.7249 52.544 78.6635 52.36 78.5409 52.216C78.4235 52.0667 78.2662 51.9413 78.0689 51.84C77.8715 51.7333 77.6449 51.6427 77.3889 51.568C77.1382 51.488 76.8795 51.4053 76.6129 51.32C76.3515 51.2347 76.0929 51.1387 75.8369 51.032C75.5862 50.92 75.3622 50.7813 75.1649 50.616C74.9675 50.4507 74.8075 50.248 74.6849 50.008C74.5675 49.7627 74.5089 49.4667 74.5089 49.12C74.5089 48.8107 74.5729 48.5147 74.7009 48.232C74.8289 47.944 75.0155 47.6933 75.2609 47.48C75.5062 47.2613 75.8075 47.088 76.1649 46.96C76.5222 46.832 76.9302 46.768 77.3889 46.768C77.9222 46.768 78.3995 46.8533 78.8209 47.024C79.2475 47.1893 79.6155 47.4187 79.9249 47.712L79.6049 48.232ZM85.1104 46.768C85.5957 46.768 86.0437 46.8507 86.4544 47.016C86.865 47.176 87.2197 47.4107 87.5184 47.72C87.817 48.024 88.049 48.4027 88.2144 48.856C88.385 49.304 88.4704 49.816 88.4704 50.392C88.4704 50.616 88.4464 50.7653 88.3984 50.84C88.3504 50.9147 88.2597 50.952 88.1264 50.952H82.7344C82.745 51.464 82.8144 51.9093 82.9424 52.288C83.0704 52.6667 83.2464 52.984 83.4704 53.24C83.6944 53.4907 83.961 53.68 84.2704 53.808C84.5797 53.9307 84.9264 53.992 85.3104 53.992C85.6677 53.992 85.9744 53.952 86.2304 53.872C86.4917 53.7867 86.7157 53.696 86.9024 53.6C87.089 53.504 87.2437 53.416 87.3664 53.336C87.4944 53.2507 87.6037 53.208 87.6944 53.208C87.8117 53.208 87.9024 53.2533 87.9664 53.344L88.3664 53.864C88.1904 54.0773 87.9797 54.264 87.7344 54.424C87.489 54.5787 87.225 54.7067 86.9424 54.808C86.665 54.9093 86.377 54.984 86.0784 55.032C85.7797 55.0853 85.4837 55.112 85.1904 55.112C84.6304 55.112 84.113 55.0187 83.6384 54.832C83.169 54.64 82.761 54.3627 82.4144 54C82.073 53.632 81.8064 53.1787 81.6144 52.64C81.4224 52.1013 81.3264 51.4827 81.3264 50.784C81.3264 50.2187 81.4117 49.6907 81.5824 49.2C81.7584 48.7093 82.009 48.2853 82.3344 47.928C82.6597 47.5653 83.057 47.2827 83.5264 47.08C83.9957 46.872 84.5237 46.768 85.1104 46.768ZM85.1424 47.816C84.4544 47.816 83.913 48.016 83.5184 48.416C83.1237 48.8107 82.8784 49.36 82.7824 50.064H87.1904C87.1904 49.7333 87.145 49.432 87.0544 49.16C86.9637 48.8827 86.8304 48.6453 86.6544 48.448C86.4784 48.2453 86.2624 48.0907 86.0064 47.984C85.7557 47.872 85.4677 47.816 85.1424 47.816ZM94.9708 46.896V55H93.5468V46.896H94.9708ZM95.2908 44.352C95.2908 44.4907 95.2614 44.6213 95.2028 44.744C95.1494 44.8613 95.0748 44.968 94.9788 45.064C94.8881 45.1547 94.7814 45.2267 94.6588 45.28C94.5361 45.3333 94.4054 45.36 94.2668 45.36C94.1281 45.36 93.9974 45.3333 93.8748 45.28C93.7574 45.2267 93.6508 45.1547 93.5548 45.064C93.4641 44.968 93.3921 44.8613 93.3388 44.744C93.2854 44.6213 93.2588 44.4907 93.2588 44.352C93.2588 44.2133 93.2854 44.0827 93.3388 43.96C93.3921 43.832 93.4641 43.7227 93.5548 43.632C93.6508 43.536 93.7574 43.4613 93.8748 43.408C93.9974 43.3547 94.1281 43.328 94.2668 43.328C94.4054 43.328 94.5361 43.3547 94.6588 43.408C94.7814 43.4613 94.8881 43.536 94.9788 43.632C95.0748 43.7227 95.1494 43.832 95.2028 43.96C95.2614 44.0827 95.2908 44.2133 95.2908 44.352ZM99.9365 55.128C99.2965 55.128 98.8032 54.9493 98.4565 54.592C98.1152 54.2347 97.9445 53.72 97.9445 53.048V48.088H96.9685C96.8832 48.088 96.8112 48.064 96.7525 48.016C96.6938 47.9627 96.6645 47.8827 96.6645 47.776V47.208L97.9925 47.04L98.3205 44.536C98.3312 44.456 98.3658 44.392 98.4245 44.344C98.4832 44.2907 98.5578 44.264 98.6485 44.264H99.3685V47.056H101.689V48.088H99.3685V52.952C99.3685 53.2933 99.4512 53.5467 99.6165 53.712C99.7818 53.8773 99.9952 53.96 100.257 53.96C100.406 53.96 100.534 53.9413 100.641 53.904C100.753 53.8613 100.849 53.816 100.929 53.768C101.009 53.72 101.075 53.6773 101.129 53.64C101.187 53.5973 101.238 53.576 101.281 53.576C101.355 53.576 101.422 53.6213 101.481 53.712L101.897 54.392C101.651 54.6213 101.355 54.8027 101.009 54.936C100.662 55.064 100.305 55.128 99.9365 55.128ZM108.127 46.896V55H106.703V46.896H108.127ZM108.447 44.352C108.447 44.4907 108.418 44.6213 108.359 44.744C108.306 44.8613 108.231 44.968 108.135 45.064C108.044 45.1547 107.938 45.2267 107.815 45.28C107.692 45.3333 107.562 45.36 107.423 45.36C107.284 45.36 107.154 45.3333 107.031 45.28C106.914 45.2267 106.807 45.1547 106.711 45.064C106.62 44.968 106.548 44.8613 106.495 44.744C106.442 44.6213 106.415 44.4907 106.415 44.352C106.415 44.2133 106.442 44.0827 106.495 43.96C106.548 43.832 106.62 43.7227 106.711 43.632C106.807 43.536 106.914 43.4613 107.031 43.408C107.154 43.3547 107.284 43.328 107.423 43.328C107.562 43.328 107.692 43.3547 107.815 43.408C107.938 43.4613 108.044 43.536 108.135 43.632C108.231 43.7227 108.306 43.832 108.359 43.96C108.418 44.0827 108.447 44.2133 108.447 44.352ZM115.277 48.232C115.213 48.3493 115.114 48.408 114.981 48.408C114.901 48.408 114.81 48.3787 114.709 48.32C114.607 48.2613 114.482 48.1973 114.333 48.128C114.189 48.0533 114.015 47.9867 113.813 47.928C113.61 47.864 113.37 47.832 113.093 47.832C112.853 47.832 112.637 47.864 112.445 47.928C112.253 47.9867 112.087 48.0693 111.949 48.176C111.815 48.2827 111.711 48.408 111.637 48.552C111.567 48.6907 111.533 48.8427 111.533 49.008C111.533 49.216 111.591 49.3893 111.709 49.528C111.831 49.6667 111.991 49.7867 112.189 49.888C112.386 49.9893 112.61 50.08 112.861 50.16C113.111 50.2347 113.367 50.3173 113.629 50.408C113.895 50.4933 114.154 50.5893 114.405 50.696C114.655 50.8027 114.879 50.936 115.077 51.096C115.274 51.256 115.431 51.4533 115.549 51.688C115.671 51.9173 115.733 52.1947 115.733 52.52C115.733 52.8933 115.666 53.24 115.533 53.56C115.399 53.8747 115.202 54.1493 114.941 54.384C114.679 54.6133 114.359 54.7947 113.981 54.928C113.602 55.0613 113.165 55.128 112.669 55.128C112.103 55.128 111.591 55.0373 111.133 54.856C110.674 54.6693 110.285 54.432 109.965 54.144L110.301 53.6C110.343 53.5307 110.394 53.4773 110.453 53.44C110.511 53.4027 110.589 53.384 110.685 53.384C110.781 53.384 110.882 53.4213 110.989 53.496C111.095 53.5707 111.223 53.6533 111.373 53.744C111.527 53.8347 111.711 53.9173 111.925 53.992C112.143 54.0667 112.415 54.104 112.741 54.104C113.018 54.104 113.261 54.0693 113.469 54C113.677 53.9253 113.85 53.8267 113.989 53.704C114.127 53.5813 114.229 53.44 114.293 53.28C114.362 53.12 114.397 52.9493 114.397 52.768C114.397 52.544 114.335 52.36 114.213 52.216C114.095 52.0667 113.938 51.9413 113.741 51.84C113.543 51.7333 113.317 51.6427 113.061 51.568C112.81 51.488 112.551 51.4053 112.285 51.32C112.023 51.2347 111.765 51.1387 111.509 51.032C111.258 50.92 111.034 50.7813 110.837 50.616C110.639 50.4507 110.479 50.248 110.357 50.008C110.239 49.7627 110.181 49.4667 110.181 49.12C110.181 48.8107 110.245 48.5147 110.373 48.232C110.501 47.944 110.687 47.6933 110.933 47.48C111.178 47.2613 111.479 47.088 111.837 46.96C112.194 46.832 112.602 46.768 113.061 46.768C113.594 46.768 114.071 46.8533 114.493 47.024C114.919 47.1893 115.287 47.4187 115.597 47.712L115.277 48.232ZM123.124 55.128C122.484 55.128 121.991 54.9493 121.644 54.592C121.303 54.2347 121.132 53.72 121.132 53.048V48.088H120.156C120.071 48.088 119.999 48.064 119.94 48.016C119.881 47.9627 119.852 47.8827 119.852 47.776V47.208L121.18 47.04L121.508 44.536C121.519 44.456 121.553 44.392 121.612 44.344C121.671 44.2907 121.745 44.264 121.836 44.264H122.556V47.056H124.876V48.088H122.556V52.952C122.556 53.2933 122.639 53.5467 122.804 53.712C122.969 53.8773 123.183 53.96 123.444 53.96C123.593 53.96 123.721 53.9413 123.828 53.904C123.94 53.8613 124.036 53.816 124.116 53.768C124.196 53.72 124.263 53.6773 124.316 53.64C124.375 53.5973 124.425 53.576 124.468 53.576C124.543 53.576 124.609 53.6213 124.668 53.712L125.084 54.392C124.839 54.6213 124.543 54.8027 124.196 54.936C123.849 55.064 123.492 55.128 123.124 55.128ZM129.917 46.768C130.509 46.768 131.042 46.8667 131.517 47.064C131.997 47.2613 132.402 47.5413 132.733 47.904C133.069 48.2667 133.325 48.7067 133.501 49.224C133.682 49.736 133.773 50.3093 133.773 50.944C133.773 51.584 133.682 52.16 133.501 52.672C133.325 53.184 133.069 53.6213 132.733 53.984C132.402 54.3467 131.997 54.6267 131.517 54.824C131.042 55.016 130.509 55.112 129.917 55.112C129.325 55.112 128.789 55.016 128.309 54.824C127.834 54.6267 127.429 54.3467 127.093 53.984C126.757 53.6213 126.498 53.184 126.317 52.672C126.135 52.16 126.045 51.584 126.045 50.944C126.045 50.3093 126.135 49.736 126.317 49.224C126.498 48.7067 126.757 48.2667 127.093 47.904C127.429 47.5413 127.834 47.2613 128.309 47.064C128.789 46.8667 129.325 46.768 129.917 46.768ZM129.917 54C130.717 54 131.314 53.7333 131.709 53.2C132.103 52.6613 132.301 51.912 132.301 50.952C132.301 49.9867 132.103 49.2347 131.709 48.696C131.314 48.1573 130.717 47.888 129.917 47.888C129.511 47.888 129.159 47.9573 128.861 48.096C128.562 48.2347 128.311 48.4347 128.109 48.696C127.911 48.9573 127.762 49.28 127.661 49.664C127.565 50.0427 127.517 50.472 127.517 50.952C127.517 51.432 127.565 51.8613 127.661 52.24C127.762 52.6187 127.911 52.9387 128.109 53.2C128.311 53.456 128.562 53.6533 128.861 53.792C129.159 53.9307 129.511 54 129.917 54ZM138.807 46.768C139.399 46.768 139.933 46.8667 140.407 47.064C140.887 47.2613 141.293 47.5413 141.623 47.904C141.959 48.2667 142.215 48.7067 142.391 49.224C142.573 49.736 142.663 50.3093 142.663 50.944C142.663 51.584 142.573 52.16 142.391 52.672C142.215 53.184 141.959 53.6213 141.623 53.984C141.293 54.3467 140.887 54.6267 140.407 54.824C139.933 55.016 139.399 55.112 138.807 55.112C138.215 55.112 137.679 55.016 137.199 54.824C136.725 54.6267 136.319 54.3467 135.983 53.984C135.647 53.6213 135.389 53.184 135.207 52.672C135.026 52.16 134.935 51.584 134.935 50.944C134.935 50.3093 135.026 49.736 135.207 49.224C135.389 48.7067 135.647 48.2667 135.983 47.904C136.319 47.5413 136.725 47.2613 137.199 47.064C137.679 46.8667 138.215 46.768 138.807 46.768ZM138.807 54C139.607 54 140.205 53.7333 140.599 53.2C140.994 52.6613 141.191 51.912 141.191 50.952C141.191 49.9867 140.994 49.2347 140.599 48.696C140.205 48.1573 139.607 47.888 138.807 47.888C138.402 47.888 138.05 47.9573 137.751 48.096C137.453 48.2347 137.202 48.4347 136.999 48.696C136.802 48.9573 136.653 49.28 136.551 49.664C136.455 50.0427 136.407 50.472 136.407 50.952C136.407 51.432 136.455 51.8613 136.551 52.24C136.653 52.6187 136.802 52.9387 136.999 53.2C137.202 53.456 137.453 53.6533 137.751 53.792C138.05 53.9307 138.402 54 138.807 54ZM149.096 43.216V55H147.672V43.216H149.096ZM154.886 46.768C155.478 46.768 156.011 46.8667 156.486 47.064C156.966 47.2613 157.371 47.5413 157.702 47.904C158.038 48.2667 158.294 48.7067 158.47 49.224C158.651 49.736 158.742 50.3093 158.742 50.944C158.742 51.584 158.651 52.16 158.47 52.672C158.294 53.184 158.038 53.6213 157.702 53.984C157.371 54.3467 156.966 54.6267 156.486 54.824C156.011 55.016 155.478 55.112 154.886 55.112C154.294 55.112 153.758 55.016 153.278 54.824C152.803 54.6267 152.398 54.3467 152.062 53.984C151.726 53.6213 151.467 53.184 151.286 52.672C151.104 52.16 151.014 51.584 151.014 50.944C151.014 50.3093 151.104 49.736 151.286 49.224C151.467 48.7067 151.726 48.2667 152.062 47.904C152.398 47.5413 152.803 47.2613 153.278 47.064C153.758 46.8667 154.294 46.768 154.886 46.768ZM154.886 54C155.686 54 156.283 53.7333 156.678 53.2C157.072 52.6613 157.27 51.912 157.27 50.952C157.27 49.9867 157.072 49.2347 156.678 48.696C156.283 48.1573 155.686 47.888 154.886 47.888C154.48 47.888 154.128 47.9573 153.83 48.096C153.531 48.2347 153.28 48.4347 153.078 48.696C152.88 48.9573 152.731 49.28 152.63 49.664C152.534 50.0427 152.486 50.472 152.486 50.952C152.486 51.432 152.534 51.8613 152.63 52.24C152.731 52.6187 152.88 52.9387 153.078 53.2C153.28 53.456 153.531 53.6533 153.83 53.792C154.128 53.9307 154.48 54 154.886 54ZM160.496 55V46.896H161.344C161.547 46.896 161.675 46.9947 161.728 47.192L161.84 48.072C162.192 47.6827 162.584 47.368 163.016 47.128C163.453 46.888 163.957 46.768 164.528 46.768C164.971 46.768 165.36 46.8427 165.696 46.992C166.037 47.136 166.32 47.344 166.544 47.616C166.773 47.8827 166.947 48.2053 167.064 48.584C167.181 48.9627 167.24 49.3813 167.24 49.84V55H165.816V49.84C165.816 49.2267 165.675 48.752 165.392 48.416C165.115 48.0747 164.688 47.904 164.112 47.904C163.691 47.904 163.296 48.0053 162.928 48.208C162.565 48.4107 162.229 48.6853 161.92 49.032V55H160.496ZM172.115 46.76C172.467 46.76 172.795 46.8 173.099 46.88C173.408 46.9547 173.688 47.0667 173.939 47.216H176.139V47.744C176.139 47.92 176.027 48.032 175.803 48.08L174.883 48.208C175.064 48.5547 175.155 48.9413 175.155 49.368C175.155 49.7627 175.077 50.1227 174.923 50.448C174.773 50.768 174.563 51.0427 174.291 51.272C174.024 51.5013 173.704 51.6773 173.331 51.8C172.963 51.9227 172.557 51.984 172.115 51.984C171.736 51.984 171.379 51.9387 171.043 51.848C170.872 51.9547 170.741 52.0693 170.651 52.192C170.565 52.3147 170.523 52.4347 170.523 52.552C170.523 52.744 170.6 52.8907 170.755 52.992C170.909 53.088 171.115 53.1573 171.371 53.2C171.627 53.2427 171.917 53.2693 172.243 53.28C172.568 53.2907 172.899 53.3093 173.235 53.336C173.576 53.3573 173.909 53.3973 174.235 53.456C174.56 53.5147 174.851 53.6107 175.107 53.744C175.363 53.8773 175.568 54.0613 175.723 54.296C175.877 54.5307 175.955 54.8347 175.955 55.208C175.955 55.5547 175.867 55.8907 175.691 56.216C175.52 56.5413 175.272 56.8293 174.947 57.08C174.621 57.336 174.224 57.5387 173.755 57.688C173.285 57.8427 172.755 57.92 172.163 57.92C171.571 57.92 171.051 57.8613 170.603 57.744C170.16 57.6267 169.792 57.4693 169.499 57.272C169.205 57.0747 168.984 56.8453 168.835 56.584C168.691 56.328 168.619 56.0587 168.619 55.776C168.619 55.376 168.744 55.0373 168.995 54.76C169.251 54.4773 169.6 54.2533 170.043 54.088C169.813 53.9813 169.629 53.84 169.491 53.664C169.357 53.4827 169.291 53.2427 169.291 52.944C169.291 52.8267 169.312 52.7067 169.355 52.584C169.397 52.456 169.461 52.3307 169.547 52.208C169.637 52.0853 169.747 51.968 169.875 51.856C170.003 51.744 170.152 51.6453 170.323 51.56C169.923 51.336 169.608 51.04 169.379 50.672C169.155 50.2987 169.043 49.864 169.043 49.368C169.043 48.9733 169.117 48.616 169.267 48.296C169.421 47.9707 169.635 47.696 169.907 47.472C170.179 47.2427 170.501 47.0667 170.875 46.944C171.253 46.8213 171.667 46.76 172.115 46.76ZM174.643 55.44C174.643 55.2373 174.587 55.0747 174.475 54.952C174.363 54.8293 174.211 54.736 174.019 54.672C173.827 54.6027 173.605 54.552 173.355 54.52C173.104 54.488 172.84 54.4667 172.563 54.456C172.285 54.44 172.003 54.424 171.715 54.408C171.427 54.392 171.152 54.3627 170.891 54.32C170.587 54.464 170.339 54.64 170.147 54.848C169.96 55.056 169.867 55.304 169.867 55.592C169.867 55.7733 169.912 55.9413 170.003 56.096C170.099 56.256 170.243 56.392 170.435 56.504C170.627 56.6213 170.867 56.712 171.155 56.776C171.448 56.8453 171.792 56.88 172.187 56.88C172.571 56.88 172.915 56.8453 173.219 56.776C173.523 56.7067 173.779 56.608 173.987 56.48C174.2 56.352 174.363 56.2 174.475 56.024C174.587 55.848 174.643 55.6533 174.643 55.44ZM172.115 51.04C172.403 51.04 172.656 51 172.875 50.92C173.099 50.84 173.285 50.728 173.435 50.584C173.584 50.44 173.696 50.2693 173.771 50.072C173.845 49.8693 173.883 49.648 173.883 49.408C173.883 48.912 173.731 48.5173 173.427 48.224C173.128 47.9307 172.691 47.784 172.115 47.784C171.544 47.784 171.107 47.9307 170.803 48.224C170.504 48.5173 170.355 48.912 170.355 49.408C170.355 49.648 170.392 49.8693 170.467 50.072C170.547 50.2693 170.661 50.44 170.811 50.584C170.96 50.728 171.144 50.84 171.363 50.92C171.581 51 171.832 51.04 172.115 51.04Z" fill="black"/>
<circle cx="11" cy="11" r="10" fill="white" stroke="#D8D8D8" stroke-width="2"/>
<circle cx="11" cy="11" r="8" fill="white" stroke="#0064D1" stroke-width="6"/>
</svg>
