<svg width="143" height="64" viewBox="0 0 143 64" fill="none" xmlns="http://www.w3.org/2000/svg">
<path fill-rule="evenodd" clip-rule="evenodd" d="M4 63.5C1.79086 63.5 0 61.7091 0 59.5V39.5C0 37.2909 1.79086 35.5 4 35.5H66.1623L72 29L77.8377 35.5H139C141.209 35.5 143 37.2909 143 39.5V59.5C143 61.7091 141.209 63.5 139 63.5H4Z" fill="black"/>
<path d="M50.4348 54V43.969H53.6338C54.2498 43.969 54.7795 44.0297 55.2228 44.151C55.6708 44.2723 56.0371 44.445 56.3218 44.669C56.6111 44.893 56.8235 45.1683 56.9588 45.495C57.0988 45.817 57.1688 46.181 57.1688 46.587C57.1688 46.8343 57.1291 47.0723 57.0498 47.301C56.9751 47.5297 56.8585 47.742 56.6998 47.938C56.5458 48.134 56.3498 48.309 56.1118 48.463C55.8785 48.617 55.6031 48.743 55.2858 48.841C56.0185 48.9857 56.5715 49.2493 56.9448 49.632C57.3181 50.0147 57.5048 50.5187 57.5048 51.144C57.5048 51.5687 57.4255 51.956 57.2668 52.306C57.1128 52.656 56.8841 52.957 56.5808 53.209C56.2821 53.461 55.9135 53.657 55.4748 53.797C55.0408 53.9323 54.5438 54 53.9838 54H50.4348ZM51.7928 49.429V52.922H53.9628C54.3501 52.922 54.6815 52.8777 54.9568 52.789C55.2368 52.7003 55.4655 52.5767 55.6428 52.418C55.8248 52.2547 55.9578 52.0633 56.0418 51.844C56.1258 51.62 56.1678 51.375 56.1678 51.109C56.1678 50.591 55.9835 50.1827 55.6148 49.884C55.2508 49.5807 54.6978 49.429 53.9558 49.429H51.7928ZM51.7928 48.463H53.5848C53.9675 48.463 54.2988 48.421 54.5788 48.337C54.8588 48.253 55.0898 48.1363 55.2718 47.987C55.4585 47.8377 55.5961 47.658 55.6848 47.448C55.7735 47.2333 55.8178 47 55.8178 46.748C55.8178 46.16 55.6405 45.7283 55.2858 45.453C54.9311 45.1777 54.3805 45.04 53.6338 45.04H51.7928V48.463ZM62.1733 46.797C62.6913 46.797 63.1579 46.8833 63.5733 47.056C63.9933 47.2287 64.3479 47.4737 64.6373 47.791C64.9313 48.1083 65.1553 48.4933 65.3093 48.946C65.4679 49.394 65.5473 49.8957 65.5473 50.451C65.5473 51.011 65.4679 51.515 65.3093 51.963C65.1553 52.411 64.9313 52.7937 64.6373 53.111C64.3479 53.4283 63.9933 53.6733 63.5733 53.846C63.1579 54.014 62.6913 54.098 62.1733 54.098C61.6553 54.098 61.1863 54.014 60.7663 53.846C60.3509 53.6733 59.9963 53.4283 59.7023 53.111C59.4083 52.7937 59.1819 52.411 59.0233 51.963C58.8646 51.515 58.7853 51.011 58.7853 50.451C58.7853 49.8957 58.8646 49.394 59.0233 48.946C59.1819 48.4933 59.4083 48.1083 59.7023 47.791C59.9963 47.4737 60.3509 47.2287 60.7663 47.056C61.1863 46.8833 61.6553 46.797 62.1733 46.797ZM62.1733 53.125C62.8733 53.125 63.3959 52.8917 63.7413 52.425C64.0866 51.9537 64.2593 51.298 64.2593 50.458C64.2593 49.6133 64.0866 48.9553 63.7413 48.484C63.3959 48.0127 62.8733 47.777 62.1733 47.777C61.8186 47.777 61.5106 47.8377 61.2493 47.959C60.9879 48.0803 60.7686 48.2553 60.5913 48.484C60.4186 48.7127 60.2879 48.995 60.1993 49.331C60.1153 49.6623 60.0733 50.038 60.0733 50.458C60.0733 50.878 60.1153 51.2537 60.1993 51.585C60.2879 51.9163 60.4186 52.1963 60.5913 52.425C60.7686 52.649 60.9879 52.8217 61.2493 52.943C61.5106 53.0643 61.8186 53.125 62.1733 53.125ZM69.2315 54.112C68.6715 54.112 68.2399 53.9557 67.9365 53.643C67.6379 53.3303 67.4885 52.88 67.4885 52.292V47.952H66.6345C66.5599 47.952 66.4969 47.931 66.4455 47.889C66.3942 47.8423 66.3685 47.7723 66.3685 47.679V47.182L67.5305 47.035L67.8175 44.844C67.8269 44.774 67.8572 44.718 67.9085 44.676C67.9599 44.6293 68.0252 44.606 68.1045 44.606H68.7345V47.049H70.7645V47.952H68.7345V52.208C68.7345 52.5067 68.8069 52.7283 68.9515 52.873C69.0962 53.0177 69.2829 53.09 69.5115 53.09C69.6422 53.09 69.7542 53.0737 69.8475 53.041C69.9455 53.0037 70.0295 52.964 70.0995 52.922C70.1695 52.88 70.2279 52.8427 70.2745 52.81C70.3259 52.7727 70.3702 52.754 70.4075 52.754C70.4729 52.754 70.5312 52.7937 70.5825 52.873L70.9465 53.468C70.7319 53.6687 70.4729 53.8273 70.1695 53.944C69.8662 54.056 69.5535 54.112 69.2315 54.112ZM74.4542 54.112C73.8942 54.112 73.4625 53.9557 73.1592 53.643C72.8605 53.3303 72.7112 52.88 72.7112 52.292V47.952H71.8572C71.7825 47.952 71.7195 47.931 71.6682 47.889C71.6169 47.8423 71.5912 47.7723 71.5912 47.679V47.182L72.7532 47.035L73.0402 44.844C73.0495 44.774 73.0799 44.718 73.1312 44.676C73.1825 44.6293 73.2479 44.606 73.3272 44.606H73.9572V47.049H75.9872V47.952H73.9572V52.208C73.9572 52.5067 74.0295 52.7283 74.1742 52.873C74.3189 53.0177 74.5055 53.09 74.7342 53.09C74.8649 53.09 74.9769 53.0737 75.0702 53.041C75.1682 53.0037 75.2522 52.964 75.3222 52.922C75.3922 52.88 75.4505 52.8427 75.4972 52.81C75.5485 52.7727 75.5929 52.754 75.6302 52.754C75.6955 52.754 75.7539 52.7937 75.8052 52.873L76.1692 53.468C75.9545 53.6687 75.6955 53.8273 75.3922 53.944C75.0889 54.056 74.7762 54.112 74.4542 54.112ZM80.3979 46.797C80.9159 46.797 81.3825 46.8833 81.7979 47.056C82.2179 47.2287 82.5725 47.4737 82.8619 47.791C83.1559 48.1083 83.3799 48.4933 83.5339 48.946C83.6925 49.394 83.7719 49.8957 83.7719 50.451C83.7719 51.011 83.6925 51.515 83.5339 51.963C83.3799 52.411 83.1559 52.7937 82.8619 53.111C82.5725 53.4283 82.2179 53.6733 81.7979 53.846C81.3825 54.014 80.9159 54.098 80.3979 54.098C79.8799 54.098 79.4109 54.014 78.9909 53.846C78.5755 53.6733 78.2209 53.4283 77.9269 53.111C77.6329 52.7937 77.4065 52.411 77.2479 51.963C77.0892 51.515 77.0099 51.011 77.0099 50.451C77.0099 49.8957 77.0892 49.394 77.2479 48.946C77.4065 48.4933 77.6329 48.1083 77.9269 47.791C78.2209 47.4737 78.5755 47.2287 78.9909 47.056C79.4109 46.8833 79.8799 46.797 80.3979 46.797ZM80.3979 53.125C81.0979 53.125 81.6205 52.8917 81.9659 52.425C82.3112 51.9537 82.4839 51.298 82.4839 50.458C82.4839 49.6133 82.3112 48.9553 81.9659 48.484C81.6205 48.0127 81.0979 47.777 80.3979 47.777C80.0432 47.777 79.7352 47.8377 79.4739 47.959C79.2125 48.0803 78.9932 48.2553 78.8159 48.484C78.6432 48.7127 78.5125 48.995 78.4239 49.331C78.3399 49.6623 78.2979 50.038 78.2979 50.458C78.2979 50.878 78.3399 51.2537 78.4239 51.585C78.5125 51.9163 78.6432 52.1963 78.8159 52.425C78.9932 52.649 79.2125 52.8217 79.4739 52.943C79.7352 53.0643 80.0432 53.125 80.3979 53.125ZM85.3072 54V46.909H86.0492C86.2265 46.909 86.3385 46.9953 86.3852 47.168L86.4762 47.896C86.7375 47.574 87.0292 47.3103 87.3512 47.105C87.6778 46.8997 88.0558 46.797 88.4852 46.797C88.9658 46.797 89.3532 46.93 89.6472 47.196C89.9458 47.462 90.1605 47.8213 90.2912 48.274C90.3892 48.0173 90.5175 47.7957 90.6762 47.609C90.8395 47.4223 91.0215 47.2683 91.2222 47.147C91.4228 47.0257 91.6352 46.937 91.8592 46.881C92.0878 46.825 92.3188 46.797 92.5522 46.797C92.9255 46.797 93.2568 46.8577 93.5462 46.979C93.8402 47.0957 94.0875 47.2683 94.2882 47.497C94.4935 47.7257 94.6498 48.008 94.7572 48.344C94.8645 48.6753 94.9182 49.0557 94.9182 49.485V54H93.6722V49.485C93.6722 48.9297 93.5508 48.5097 93.3082 48.225C93.0655 47.9357 92.7132 47.791 92.2512 47.791C92.0458 47.791 91.8498 47.8283 91.6632 47.903C91.4812 47.973 91.3202 48.078 91.1802 48.218C91.0402 48.358 90.9282 48.5353 90.8442 48.75C90.7648 48.96 90.7252 49.205 90.7252 49.485V54H89.4792V49.485C89.4792 48.9157 89.3648 48.491 89.1362 48.211C88.9075 47.931 88.5738 47.791 88.1352 47.791C87.8272 47.791 87.5402 47.875 87.2742 48.043C87.0128 48.2063 86.7725 48.4303 86.5532 48.715V54H85.3072Z" fill="white"/>
<path fill-rule="evenodd" clip-rule="evenodd" d="M71.1187 0.0408706C70.9468 0.0602914 70.6092 0.11597 70.3685 0.164647C70.1279 0.213324 69.7809 0.300217 69.5975 0.357688C69.4142 0.4152 69.1516 0.508803 69.0141 0.565732C68.8766 0.62266 68.5765 0.76394 68.3473 0.879757C68.1181 0.995531 67.7672 1.20007 67.5676 1.33431C67.368 1.46851 67.0961 1.66517 66.9633 1.77132C66.8305 1.87747 66.6032 2.07914 66.458 2.21942C66.3128 2.35974 66.0515 2.6433 65.8773 2.84959C65.7031 3.05588 65.4443 3.40283 65.3021 3.62059C65.16 3.83834 64.9589 4.18529 64.8551 4.39158C64.7514 4.59788 64.6201 4.87919 64.5634 5.01672C64.5067 5.15424 64.4123 5.42618 64.3536 5.62101C64.295 5.81584 64.2091 6.16279 64.1627 6.39201C64.1164 6.62122 64.0561 7.07598 64.0288 7.40264C63.9904 7.86211 63.9904 8.13092 64.0288 8.59039C64.0561 8.917 64.1164 9.3718 64.1627 9.60102C64.2091 9.83023 64.295 10.1772 64.3536 10.372C64.4123 10.5668 64.5067 10.8388 64.5634 10.9763C64.6201 11.1138 64.7511 11.3951 64.8545 11.6014C64.9579 11.8077 65.1798 12.1828 65.3476 12.435C65.5154 12.6871 65.7902 13.0517 65.9581 13.2452C66.1261 13.4387 66.4434 13.7584 66.6633 13.9556C66.8831 14.1528 67.2582 14.4468 67.4968 14.6089C67.7354 14.771 68.1181 14.9982 68.3473 15.1137C68.5765 15.2293 68.8766 15.3704 69.0141 15.4273C69.1516 15.4842 69.4142 15.5777 69.5975 15.6351C69.7809 15.6925 70.1185 15.7778 70.3477 15.8246C70.5769 15.8714 70.9466 15.9296 71.1692 15.9539C71.3917 15.9783 71.7768 15.9982 72.0247 15.9982C72.2727 15.9982 72.7055 15.9697 72.9864 15.935C73.2673 15.9002 73.6512 15.8357 73.8395 15.7916C74.0278 15.7475 74.3561 15.6544 74.5691 15.5846C74.7821 15.5148 75.1675 15.3574 75.4254 15.2348C75.6833 15.1122 76.0529 14.9112 76.2467 14.7881C76.4405 14.6651 76.7491 14.4481 76.9324 14.3061C77.1158 14.164 77.457 13.8536 77.6906 13.6164C77.9242 13.3792 78.2167 13.0538 78.3404 12.8934C78.4642 12.7329 78.6718 12.4335 78.8017 12.2281C78.9317 12.0226 79.1211 11.685 79.2228 11.4779C79.3244 11.2708 79.4753 10.9044 79.5582 10.6637C79.6411 10.4231 79.7455 10.0696 79.7903 9.87829C79.835 9.68695 79.9006 9.34001 79.9359 9.10729C79.974 8.85615 80 8.40464 80 7.99651C80 7.58839 79.974 7.13687 79.9359 6.88574C79.9006 6.65302 79.835 6.30607 79.7903 6.11474C79.7455 5.92341 79.6411 5.56996 79.5582 5.32928C79.4753 5.08861 79.3244 4.72224 79.2228 4.51511C79.1211 4.30798 78.9317 3.97041 78.8017 3.76495C78.6718 3.55949 78.4642 3.26009 78.3404 3.09964C78.2167 2.93919 77.9242 2.61383 77.6906 2.37662C77.457 2.1394 77.1158 1.82904 76.9324 1.68697C76.7491 1.5449 76.4405 1.32798 76.2467 1.20491C76.0529 1.08184 75.6833 0.880798 75.4254 0.758231C75.1675 0.635622 74.7885 0.480464 74.5833 0.413366C74.3781 0.34631 74.0481 0.252957 73.85 0.205906C73.6519 0.158896 73.2617 0.0921315 72.9828 0.0575825C72.7039 0.0230752 72.2406 -0.00276356 71.9535 0.000237074C71.6662 0.00319603 71.2906 0.0214915 71.1187 0.0408706ZM73.0149 1.60504C73.2442 1.63971 73.5911 1.71477 73.7859 1.77174C73.9808 1.82871 74.2808 1.93223 74.4527 2.00179C74.6247 2.07138 74.9239 2.21396 75.1178 2.31869C75.3116 2.42342 75.6257 2.62033 75.8158 2.75632C76.0059 2.89227 76.3449 3.18612 76.5691 3.40929C76.7934 3.63246 77.0931 3.97758 77.2352 4.1762C77.3773 4.37483 77.5708 4.67331 77.6652 4.83955C77.7596 5.00575 77.8985 5.29177 77.9739 5.47515C78.0494 5.65852 78.158 5.96796 78.2154 6.16279C78.2728 6.35762 78.353 6.70457 78.3937 6.93379C78.4449 7.22297 78.4668 7.55467 78.4652 8.01735C78.4635 8.50487 78.44 8.80739 78.3774 9.14259C78.3304 9.39473 78.2515 9.7323 78.202 9.89275C78.1524 10.0532 78.05 10.3345 77.9744 10.5179C77.8987 10.7013 77.7596 10.9873 77.6652 11.1535C77.5708 11.3197 77.3772 11.6183 77.2351 11.8169C77.093 12.0157 76.7964 12.3585 76.5762 12.5788C76.3559 12.7991 76.0169 13.0929 75.8229 13.2316C75.6289 13.3704 75.3116 13.5696 75.1178 13.6743C74.9239 13.7791 74.6247 13.9216 74.4527 13.9912C74.2808 14.0608 73.9808 14.1642 73.7859 14.2211C73.5911 14.278 73.2442 14.3557 73.0149 14.3938C72.7547 14.437 72.3713 14.4623 71.9939 14.4611C71.587 14.4598 71.2377 14.4324 70.9245 14.3773C70.6686 14.3323 70.3052 14.2468 70.117 14.1873C69.9287 14.1279 69.6316 14.0197 69.4569 13.947C69.2821 13.8743 69.0078 13.7409 68.8474 13.6505C68.6869 13.5601 68.3963 13.3727 68.2014 13.2339C68.0066 13.0951 67.6498 12.7835 67.4086 12.5415C67.1674 12.2996 66.859 11.9434 66.7232 11.7502C66.5875 11.557 66.3709 11.1909 66.242 10.9367C66.1131 10.6825 65.9477 10.2874 65.8746 10.0586C65.8014 9.82986 65.7135 9.51142 65.6793 9.35097C65.645 9.19052 65.5946 8.8201 65.5672 8.52788C65.5285 8.11566 65.5285 7.87736 65.5672 7.46515C65.5946 7.17288 65.645 6.80251 65.6793 6.64206C65.7135 6.48161 65.8014 6.16317 65.8746 5.93441C65.9477 5.70565 66.1131 5.31053 66.242 5.05631C66.3709 4.80213 66.5868 4.43605 66.7217 4.2428C66.8567 4.04959 67.1651 3.69414 67.4071 3.45301C67.6492 3.21183 68.0066 2.90027 68.2014 2.76065C68.3963 2.62104 68.6869 2.43288 68.8474 2.34248C69.0078 2.25213 69.2892 2.11556 69.4725 2.03904C69.6559 1.96249 69.9466 1.85584 70.1185 1.80208C70.2904 1.74827 70.5998 1.67355 70.8061 1.63604C71.0124 1.59853 71.35 1.55482 71.5563 1.53885C71.7626 1.52289 72.0814 1.51706 72.2648 1.52585C72.4482 1.53469 72.7857 1.57032 73.0149 1.60504ZM71.6396 4.04597C71.5709 4.06997 71.4541 4.13478 71.3801 4.18992C71.3061 4.24509 71.1936 4.37866 71.13 4.48677C71.0315 4.65439 71.0145 4.72932 71.0145 4.99588C71.0145 5.26043 71.0318 5.33787 71.127 5.4999C71.189 5.60517 71.3015 5.73804 71.3771 5.79509C71.4527 5.85218 71.5784 5.92074 71.6563 5.9475C71.7342 5.97421 71.903 5.99567 72.0314 5.99517C72.1668 5.99463 72.3348 5.96233 72.4315 5.9182C72.5232 5.87636 72.6667 5.77133 72.7505 5.68482C72.8375 5.59492 72.9248 5.44885 72.9541 5.34408C72.9823 5.24322 73.0055 5.08652 73.0055 4.99588C73.0055 4.90523 72.9823 4.74853 72.9541 4.64768C72.9248 4.54291 72.8375 4.39683 72.7505 4.30694C72.6667 4.22042 72.5232 4.1154 72.4315 4.07356C72.3262 4.02555 72.1726 3.99837 72.0147 3.99988C71.8772 4.00117 71.7084 4.02192 71.6396 4.04597ZM70.6778 7.07353C70.5843 7.11699 70.4672 7.20422 70.4175 7.2674C70.3678 7.33058 70.307 7.45694 70.2825 7.54821C70.2579 7.63948 70.25 7.78664 70.265 7.8752C70.2799 7.9638 70.333 8.09762 70.3828 8.17268C70.4326 8.24769 70.5569 8.35125 70.659 8.40285C70.7745 8.46119 70.92 8.49662 71.0442 8.49662H71.2437V9.49683V10.497H70.9192C70.6654 10.497 70.5541 10.5175 70.409 10.5908C70.3069 10.6424 70.1826 10.746 70.1327 10.821C70.0829 10.896 70.0299 11.0299 70.0149 11.1185C70 11.207 70.0083 11.3558 70.0333 11.449C70.0585 11.5422 70.126 11.6743 70.1833 11.7424C70.2406 11.8106 70.3672 11.8968 70.4645 11.9339C70.6178 11.9925 70.8334 11.9999 72.0783 11.989C73.4407 11.9772 73.5226 11.9721 73.6609 11.8908C73.7411 11.8437 73.8486 11.7312 73.8998 11.6408C73.965 11.5258 73.9929 11.4076 73.9929 11.2472C73.9929 11.0868 73.965 10.9686 73.8998 10.8536C73.8486 10.7632 73.7423 10.6516 73.6635 10.6056C73.5591 10.5446 73.4216 10.5173 73.1558 10.5045L72.7914 10.4871L72.7781 9.02302L72.7649 7.55892L72.6607 7.37351C72.6034 7.27153 72.4909 7.14963 72.4106 7.10262C72.2816 7.02697 72.1831 7.01585 71.5563 7.00585C70.9334 6.99593 70.8273 7.00409 70.6778 7.07353Z" fill="#2656C9"/>
</svg>
