<svg width="183" height="28" viewBox="0 0 183 28" fill="none" xmlns="http://www.w3.org/2000/svg">
<path fill-rule="evenodd" clip-rule="evenodd" d="M4 28C1.79086 28 0 26.2091 0 24V4C0 1.79086 1.79086 0 4 0H139C141.209 0 143 1.79086 143 4V8.16235L149.5 14L143 19.8377V24C143 26.2091 141.209 28 139 28H4Z" fill="black"/>
<path d="M64.9627 17.359H69.3027V18.5H63.6047V8.469H64.9627V17.359ZM73.161 11.297C73.5857 11.297 73.9777 11.3693 74.337 11.514C74.6964 11.654 75.0067 11.8593 75.268 12.13C75.5294 12.396 75.7324 12.7273 75.877 13.124C76.0264 13.516 76.101 13.964 76.101 14.468C76.101 14.664 76.08 14.7947 76.038 14.86C75.996 14.9253 75.9167 14.958 75.8 14.958H71.082C71.0914 15.406 71.152 15.7957 71.264 16.127C71.376 16.4583 71.53 16.736 71.726 16.96C71.922 17.1793 72.1554 17.345 72.426 17.457C72.6967 17.5643 73 17.618 73.336 17.618C73.6487 17.618 73.917 17.583 74.141 17.513C74.3697 17.4383 74.5657 17.359 74.729 17.275C74.8924 17.191 75.0277 17.114 75.135 17.044C75.247 16.9693 75.3427 16.932 75.422 16.932C75.5247 16.932 75.604 16.9717 75.66 17.051L76.01 17.506C75.856 17.6927 75.6717 17.856 75.457 17.996C75.2424 18.1313 75.0114 18.2433 74.764 18.332C74.5214 18.4207 74.2694 18.486 74.008 18.528C73.7467 18.5747 73.4877 18.598 73.231 18.598C72.741 18.598 72.2884 18.5163 71.873 18.353C71.4624 18.185 71.1054 17.9423 70.802 17.625C70.5034 17.303 70.27 16.9063 70.102 16.435C69.934 15.9637 69.85 15.4223 69.85 14.811C69.85 14.3163 69.9247 13.8543 70.074 13.425C70.228 12.9957 70.4474 12.6247 70.732 12.312C71.0167 11.9947 71.3644 11.7473 71.775 11.57C72.1857 11.388 72.6477 11.297 73.161 11.297ZM73.189 12.214C72.587 12.214 72.1134 12.389 71.768 12.739C71.4227 13.0843 71.208 13.565 71.124 14.181H74.981C74.981 13.8917 74.9414 13.628 74.862 13.39C74.7827 13.1473 74.666 12.9397 74.512 12.767C74.358 12.5897 74.169 12.4543 73.945 12.361C73.7257 12.263 73.4737 12.214 73.189 12.214ZM77.9758 18.5V12.473L77.1918 12.382C77.0938 12.3587 77.0122 12.3237 76.9468 12.277C76.8862 12.2257 76.8558 12.1533 76.8558 12.06V11.549H77.9758V10.863C77.9758 10.457 78.0318 10.0977 78.1438 9.785C78.2605 9.46767 78.4238 9.20167 78.6338 8.987C78.8485 8.76767 79.1052 8.602 79.4038 8.49C79.7025 8.378 80.0385 8.322 80.4118 8.322C80.7292 8.322 81.0232 8.36867 81.2938 8.462L81.2658 9.085C81.2612 9.17833 81.2215 9.23433 81.1468 9.253C81.0722 9.27167 80.9672 9.281 80.8318 9.281H80.6148C80.4002 9.281 80.2042 9.309 80.0268 9.365C79.8542 9.421 79.7048 9.512 79.5788 9.638C79.4528 9.764 79.3548 9.92967 79.2848 10.135C79.2195 10.3403 79.1868 10.5947 79.1868 10.898V11.549H81.2378V12.452H79.2288V18.5H77.9758ZM84.5616 18.612C84.0016 18.612 83.57 18.4557 83.2666 18.143C82.968 17.8303 82.8186 17.38 82.8186 16.792V12.452H81.9646C81.89 12.452 81.827 12.431 81.7756 12.389C81.7243 12.3423 81.6986 12.2723 81.6986 12.179V11.682L82.8606 11.535L83.1476 9.344C83.157 9.274 83.1873 9.218 83.2386 9.176C83.29 9.12933 83.3553 9.106 83.4346 9.106H84.0646V11.549H86.0946V12.452H84.0646V16.708C84.0646 17.0067 84.137 17.2283 84.2816 17.373C84.4263 17.5177 84.613 17.59 84.8416 17.59C84.9723 17.59 85.0843 17.5737 85.1776 17.541C85.2756 17.5037 85.3596 17.464 85.4296 17.422C85.4996 17.38 85.558 17.3427 85.6046 17.31C85.656 17.2727 85.7003 17.254 85.7376 17.254C85.803 17.254 85.8613 17.2937 85.9126 17.373L86.2766 17.968C86.062 18.1687 85.803 18.3273 85.4996 18.444C85.1963 18.556 84.8836 18.612 84.5616 18.612Z" fill="white"/>
<path fill-rule="evenodd" clip-rule="evenodd" d="M174.119 6.54099C173.947 6.56041 173.609 6.61609 173.369 6.66477C173.128 6.71345 172.781 6.80034 172.598 6.85781C172.414 6.91532 172.152 7.00892 172.014 7.06585C171.877 7.12278 171.576 7.26406 171.347 7.37988C171.118 7.49565 170.767 7.7002 170.568 7.83443C170.368 7.96863 170.096 8.16529 169.963 8.27144C169.831 8.37759 169.603 8.57926 169.458 8.71954C169.313 8.85986 169.051 9.14342 168.877 9.34971C168.703 9.55601 168.444 9.90295 168.302 10.1207C168.16 10.3385 167.959 10.6854 167.855 10.8917C167.751 11.098 167.62 11.3793 167.563 11.5168C167.507 11.6544 167.412 11.9263 167.354 12.1211C167.295 12.316 167.209 12.6629 167.163 12.8921C167.116 13.1213 167.056 13.5761 167.029 13.9028C166.99 14.3622 166.99 14.631 167.029 15.0905C167.056 15.4171 167.116 15.8719 167.163 16.1011C167.209 16.3304 167.295 16.6773 167.354 16.8721C167.412 17.067 167.507 17.3389 167.563 17.4764C167.62 17.614 167.751 17.8953 167.855 18.1016C167.958 18.3079 168.18 18.6829 168.348 18.9351C168.515 19.1872 168.79 19.5518 168.958 19.7453C169.126 19.9388 169.443 20.2585 169.663 20.4557C169.883 20.6529 170.258 20.9469 170.497 21.109C170.735 21.2711 171.118 21.4983 171.347 21.6139C171.576 21.7294 171.877 21.8705 172.014 21.9274C172.152 21.9843 172.414 22.0779 172.598 22.1353C172.781 22.1926 173.118 22.2779 173.348 22.3247C173.577 22.3716 173.947 22.4297 174.169 22.4541C174.392 22.4784 174.777 22.4983 175.025 22.4983C175.273 22.4983 175.705 22.4699 175.986 22.4351C176.267 22.4003 176.651 22.3358 176.839 22.2917C177.028 22.2477 177.356 22.1545 177.569 22.0847C177.782 22.0149 178.167 21.8575 178.425 21.7349C178.683 21.6124 179.053 21.4113 179.247 21.2882C179.44 21.1652 179.749 20.9483 179.932 20.8062C180.116 20.6641 180.457 20.3538 180.691 20.1165C180.924 19.8793 181.217 19.554 181.34 19.3935C181.464 19.2331 181.672 18.9337 181.802 18.7282C181.932 18.5227 182.121 18.1852 182.223 17.978C182.324 17.7709 182.475 17.4045 182.558 17.1639C182.641 16.9232 182.746 16.5697 182.79 16.3784C182.835 16.1871 182.901 15.8401 182.936 15.6074C182.974 15.3563 183 14.9048 183 14.4966C183 14.0885 182.974 13.637 182.936 13.3859C182.901 13.1531 182.835 12.8062 182.79 12.6149C182.746 12.4235 182.641 12.0701 182.558 11.8294C182.475 11.5887 182.324 11.2224 182.223 11.0152C182.121 10.8081 181.932 10.4705 181.802 10.2651C181.672 10.0596 181.464 9.76022 181.34 9.59977C181.217 9.43931 180.924 9.11395 180.691 8.87674C180.457 8.63952 180.116 8.32916 179.932 8.18709C179.749 8.04502 179.44 7.8281 179.247 7.70503C179.053 7.58196 178.683 7.38092 178.425 7.25835C178.167 7.13574 177.789 6.98059 177.583 6.91349C177.378 6.84643 177.048 6.75308 176.85 6.70603C176.652 6.65902 176.262 6.59225 175.983 6.5577C175.704 6.5232 175.241 6.49736 174.953 6.50036C174.666 6.50332 174.291 6.52161 174.119 6.54099ZM176.015 8.10516C176.244 8.13983 176.591 8.21489 176.786 8.27186C176.981 8.32883 177.281 8.43235 177.453 8.50191C177.625 8.57151 177.924 8.71408 178.118 8.81881C178.312 8.92354 178.626 9.12046 178.816 9.25644C179.006 9.39239 179.345 9.68624 179.569 9.90941C179.793 10.1326 180.093 10.4777 180.235 10.6763C180.377 10.875 180.571 11.1734 180.665 11.3397C180.76 11.5059 180.899 11.7919 180.974 11.9753C181.049 12.1586 181.158 12.4681 181.215 12.6629C181.273 12.8577 181.353 13.2047 181.394 13.4339C181.445 13.7231 181.467 14.0548 181.465 14.5175C181.464 15.005 181.44 15.3075 181.377 15.6427C181.33 15.8948 181.251 16.2324 181.202 16.3929C181.152 16.5533 181.05 16.8346 180.974 17.018C180.899 17.2014 180.76 17.4874 180.665 17.6536C180.571 17.8198 180.377 18.1184 180.235 18.3171C180.093 18.5158 179.796 18.8586 179.576 19.0789C179.356 19.2992 179.017 19.593 178.823 19.7317C178.629 19.8705 178.312 20.0697 178.118 20.1745C177.924 20.2792 177.625 20.4218 177.453 20.4914C177.281 20.5609 176.981 20.6644 176.786 20.7212C176.591 20.7781 176.244 20.8558 176.015 20.8939C175.755 20.9372 175.371 20.9624 174.994 20.9612C174.587 20.9599 174.238 20.9325 173.924 20.8774C173.669 20.8324 173.305 20.7469 173.117 20.6874C172.929 20.628 172.632 20.5198 172.457 20.4471C172.282 20.3744 172.008 20.241 171.847 20.1507C171.687 20.0603 171.396 19.8728 171.201 19.734C171.007 19.5952 170.65 19.2836 170.409 19.0416C170.167 18.7997 169.859 18.4436 169.723 18.2503C169.587 18.0571 169.371 17.691 169.242 17.4368C169.113 17.1826 168.948 16.7875 168.875 16.5587C168.801 16.33 168.714 16.0115 168.679 15.8511C168.645 15.6906 168.595 15.3202 168.567 15.028C168.529 14.6158 168.529 14.3775 168.567 13.9653C168.595 13.673 168.645 13.3026 168.679 13.1422C168.714 12.9817 168.801 12.6633 168.875 12.4345C168.948 12.2058 169.113 11.8106 169.242 11.5564C169.371 11.3023 169.587 10.9362 169.722 10.7429C169.857 10.5497 170.165 10.1943 170.407 9.95313C170.649 9.71196 171.007 9.40039 171.201 9.26078C171.396 9.12116 171.687 8.933 171.847 8.8426C172.008 8.75225 172.289 8.61568 172.473 8.53917C172.656 8.46261 172.947 8.35596 173.118 8.3022C173.29 8.2484 173.6 8.17367 173.806 8.13616C174.012 8.09866 174.35 8.05494 174.556 8.03898C174.763 8.02301 175.081 8.01718 175.265 8.02597C175.448 8.03481 175.786 8.07044 176.015 8.10516ZM174.64 10.5461C174.571 10.5701 174.454 10.6349 174.38 10.69C174.306 10.7452 174.194 10.8788 174.13 10.9869C174.032 11.1545 174.015 11.2294 174.015 11.496C174.015 11.7606 174.032 11.838 174.127 12C174.189 12.1053 174.301 12.2382 174.377 12.2952C174.453 12.3523 174.578 12.4209 174.656 12.4476C174.734 12.4743 174.903 12.4958 175.031 12.4953C175.167 12.4948 175.335 12.4625 175.431 12.4183C175.523 12.3765 175.667 12.2715 175.75 12.1849C175.837 12.095 175.925 11.949 175.954 11.8442C175.982 11.7433 176.005 11.5866 176.005 11.496C176.005 11.4054 175.982 11.2487 175.954 11.1478C175.925 11.043 175.837 10.897 175.75 10.8071C175.667 10.7205 175.523 10.6155 175.431 10.5737C175.326 10.5257 175.173 10.4985 175.015 10.5C174.877 10.5013 174.708 10.522 174.64 10.5461ZM173.678 13.5736C173.584 13.6171 173.467 13.7043 173.418 13.7675C173.368 13.8307 173.307 13.9571 173.282 14.0483C173.258 14.1396 173.25 14.2868 173.265 14.3753C173.28 14.4639 173.333 14.5977 173.383 14.6728C173.433 14.7478 173.557 14.8514 173.659 14.903C173.775 14.9613 173.92 14.9967 174.044 14.9967H174.244V15.997V16.9972H173.919C173.665 16.9972 173.554 17.0176 173.409 17.0909C173.307 17.1425 173.183 17.2461 173.133 17.3211C173.083 17.3962 173.03 17.53 173.015 17.6186C173 17.7071 173.008 17.8559 173.033 17.9491C173.058 18.0423 173.126 18.1744 173.183 18.2426C173.241 18.3107 173.367 18.3969 173.465 18.4341C173.618 18.4926 173.833 18.5 175.078 18.4891C176.441 18.4773 176.523 18.4722 176.661 18.391C176.741 18.3439 176.849 18.2313 176.9 18.1409C176.965 18.0259 176.993 17.9077 176.993 17.7473C176.993 17.587 176.965 17.4688 176.9 17.3537C176.849 17.2633 176.742 17.1517 176.664 17.1057C176.559 17.0448 176.422 17.0174 176.156 17.0047L175.791 16.9872L175.778 15.5231L175.765 14.059L175.661 13.8736C175.603 13.7716 175.491 13.6497 175.411 13.6027C175.282 13.5271 175.183 13.516 174.556 13.506C173.933 13.496 173.827 13.5042 173.678 13.5736Z" fill="#2656C9"/>
</svg>
