<svg width="180" height="29" viewBox="0 0 180 29" fill="none" xmlns="http://www.w3.org/2000/svg">
<path fill-rule="evenodd" clip-rule="evenodd" d="M41 28.4999C38.7909 28.4999 37 26.709 37 24.4999V20.3375L30.5 14.4999L37 8.66222V4.49988C37 2.29074 38.7909 0.499878 41 0.499878H176C178.209 0.499878 180 2.29074 180 4.49988V24.4999C180 26.709 178.209 28.4999 176 28.4999H41Z" fill="black"/>
<path d="M95.8369 14.8139V18.9999H94.4859V8.96888H97.3209C97.9556 8.96888 98.5039 9.03421 98.9659 9.16488C99.4279 9.29088 99.8083 9.47521 100.107 9.71788C100.41 9.96054 100.634 10.2545 100.779 10.5999C100.924 10.9405 100.996 11.3232 100.996 11.7479C100.996 12.1025 100.94 12.4339 100.828 12.7419C100.716 13.0499 100.553 13.3275 100.338 13.5749C100.128 13.8175 99.8689 14.0252 99.5609 14.1979C99.2576 14.3705 98.9123 14.5012 98.5249 14.5899C98.6929 14.6879 98.8423 14.8302 98.9729 15.0169L101.899 18.9999H100.695C100.448 18.9999 100.266 18.9042 100.149 18.7129L97.5449 15.1289C97.4656 15.0169 97.3793 14.9375 97.2859 14.8909C97.1926 14.8395 97.0526 14.8139 96.8659 14.8139H95.8369ZM95.8369 13.8269H97.2579C97.6546 13.8269 98.0023 13.7802 98.3009 13.6869C98.6043 13.5889 98.8563 13.4535 99.0569 13.2809C99.2623 13.1035 99.4163 12.8935 99.5189 12.6509C99.6216 12.4082 99.6729 12.1399 99.6729 11.8459C99.6729 11.2485 99.4746 10.7982 99.0779 10.4949C98.6859 10.1915 98.1003 10.0399 97.3209 10.0399H95.8369V13.8269ZM104.546 11.9089V18.9999H103.3V11.9089H104.546ZM104.826 9.68288C104.826 9.80421 104.8 9.91854 104.749 10.0259C104.702 10.1285 104.637 10.2219 104.553 10.3059C104.473 10.3852 104.38 10.4482 104.273 10.4949C104.165 10.5415 104.051 10.5649 103.93 10.5649C103.808 10.5649 103.694 10.5415 103.587 10.4949C103.484 10.4482 103.391 10.3852 103.307 10.3059C103.227 10.2219 103.164 10.1285 103.118 10.0259C103.071 9.91854 103.048 9.80421 103.048 9.68288C103.048 9.56154 103.071 9.44721 103.118 9.33988C103.164 9.22788 103.227 9.13221 103.307 9.05288C103.391 8.96888 103.484 8.90354 103.587 8.85688C103.694 8.81021 103.808 8.78688 103.93 8.78688C104.051 8.78688 104.165 8.81021 104.273 8.85688C104.38 8.90354 104.473 8.96888 104.553 9.05288C104.637 9.13221 104.702 9.22788 104.749 9.33988C104.8 9.44721 104.826 9.56154 104.826 9.68288ZM109.129 11.7899C109.437 11.7899 109.724 11.8249 109.99 11.8949C110.26 11.9602 110.505 12.0582 110.725 12.1889H112.65V12.6509C112.65 12.8049 112.552 12.9029 112.356 12.9449L111.551 13.0569C111.709 13.3602 111.789 13.6985 111.789 14.0719C111.789 14.4172 111.721 14.7322 111.586 15.0169C111.455 15.2969 111.271 15.5372 111.033 15.7379C110.799 15.9385 110.519 16.0925 110.193 16.1999C109.871 16.3072 109.516 16.3609 109.129 16.3609C108.797 16.3609 108.485 16.3212 108.191 16.2419C108.041 16.3352 107.927 16.4355 107.848 16.5429C107.773 16.6502 107.736 16.7552 107.736 16.8579C107.736 17.0259 107.803 17.1542 107.939 17.2429C108.074 17.3269 108.254 17.3875 108.478 17.4249C108.702 17.4622 108.956 17.4855 109.241 17.4949C109.525 17.5042 109.815 17.5205 110.109 17.5439C110.407 17.5625 110.699 17.5975 110.984 17.6489C111.268 17.7002 111.523 17.7842 111.747 17.9009C111.971 18.0175 112.15 18.1785 112.286 18.3839C112.421 18.5892 112.489 18.8552 112.489 19.1819C112.489 19.4852 112.412 19.7792 112.258 20.0639C112.108 20.3485 111.891 20.6005 111.607 20.8199C111.322 21.0439 110.974 21.2212 110.564 21.3519C110.153 21.4872 109.689 21.5549 109.171 21.5549C108.653 21.5549 108.198 21.5035 107.806 21.4009C107.418 21.2982 107.096 21.1605 106.84 20.9879C106.583 20.8152 106.389 20.6145 106.259 20.3859C106.133 20.1619 106.07 19.9262 106.07 19.6789C106.07 19.3289 106.179 19.0325 106.399 18.7899C106.623 18.5425 106.928 18.3465 107.316 18.2019C107.115 18.1085 106.954 17.9849 106.833 17.8309C106.716 17.6722 106.658 17.4622 106.658 17.2009C106.658 17.0982 106.676 16.9932 106.714 16.8859C106.751 16.7739 106.807 16.6642 106.882 16.5569C106.961 16.4495 107.057 16.3469 107.169 16.2489C107.281 16.1509 107.411 16.0645 107.561 15.9899C107.211 15.7939 106.935 15.5349 106.735 15.2129C106.539 14.8862 106.441 14.5059 106.441 14.0719C106.441 13.7265 106.506 13.4139 106.637 13.1339C106.772 12.8492 106.959 12.6089 107.197 12.4129C107.435 12.2122 107.717 12.0582 108.044 11.9509C108.375 11.8435 108.737 11.7899 109.129 11.7899ZM111.341 19.3849C111.341 19.2075 111.292 19.0652 111.194 18.9579C111.096 18.8505 110.963 18.7689 110.795 18.7129C110.627 18.6522 110.433 18.6079 110.214 18.5799C109.994 18.5519 109.763 18.5332 109.521 18.5239C109.278 18.5099 109.031 18.4959 108.779 18.4819C108.527 18.4679 108.286 18.4422 108.058 18.4049C107.792 18.5309 107.575 18.6849 107.407 18.8669C107.243 19.0489 107.162 19.2659 107.162 19.5179C107.162 19.6765 107.201 19.8235 107.281 19.9589C107.365 20.0989 107.491 20.2179 107.659 20.3159C107.827 20.4185 108.037 20.4979 108.289 20.5539C108.545 20.6145 108.846 20.6449 109.192 20.6449C109.528 20.6449 109.829 20.6145 110.095 20.5539C110.361 20.4932 110.585 20.4069 110.767 20.2949C110.953 20.1829 111.096 20.0499 111.194 19.8959C111.292 19.7419 111.341 19.5715 111.341 19.3849ZM109.129 15.5349C109.381 15.5349 109.602 15.4999 109.794 15.4299C109.99 15.3599 110.153 15.2619 110.284 15.1359C110.414 15.0099 110.512 14.8605 110.578 14.6879C110.643 14.5105 110.676 14.3169 110.676 14.1069C110.676 13.6729 110.543 13.3275 110.277 13.0709C110.015 12.8142 109.633 12.6859 109.129 12.6859C108.629 12.6859 108.247 12.8142 107.981 13.0709C107.719 13.3275 107.589 13.6729 107.589 14.1069C107.589 14.3169 107.621 14.5105 107.687 14.6879C107.757 14.8605 107.857 15.0099 107.988 15.1359C108.118 15.2619 108.279 15.3599 108.471 15.4299C108.662 15.4999 108.881 15.5349 109.129 15.5349ZM113.892 18.9999V8.68888H115.138V12.8609C115.441 12.5389 115.777 12.2822 116.146 12.0909C116.515 11.8949 116.939 11.7969 117.42 11.7969C117.807 11.7969 118.148 11.8622 118.442 11.9929C118.741 12.1189 118.988 12.3009 119.184 12.5389C119.385 12.7722 119.536 13.0545 119.639 13.3859C119.742 13.7172 119.793 14.0835 119.793 14.4849V18.9999H118.547V14.4849C118.547 13.9482 118.423 13.5329 118.176 13.2389C117.933 12.9402 117.56 12.7909 117.056 12.7909C116.687 12.7909 116.342 12.8795 116.02 13.0569C115.703 13.2342 115.409 13.4745 115.138 13.7779V18.9999H113.892ZM123.82 19.1119C123.26 19.1119 122.829 18.9555 122.525 18.6429C122.227 18.3302 122.077 17.8799 122.077 17.2919V12.9519H121.223C121.149 12.9519 121.086 12.9309 121.034 12.8889C120.983 12.8422 120.957 12.7722 120.957 12.6789V12.1819L122.119 12.0349L122.406 9.84388C122.416 9.77388 122.446 9.71788 122.497 9.67588C122.549 9.62921 122.614 9.60588 122.693 9.60588H123.323V12.0489H125.353V12.9519H123.323V17.2079C123.323 17.5065 123.396 17.7282 123.54 17.8729C123.685 18.0175 123.872 18.0899 124.1 18.0899C124.231 18.0899 124.343 18.0735 124.436 18.0409C124.534 18.0035 124.618 17.9639 124.688 17.9219C124.758 17.8799 124.817 17.8425 124.863 17.8099C124.915 17.7725 124.959 17.7539 124.996 17.7539C125.062 17.7539 125.12 17.7935 125.171 17.8729L125.535 18.4679C125.321 18.6685 125.062 18.8272 124.758 18.9439C124.455 19.0559 124.142 19.1119 123.82 19.1119Z" fill="white"/>
<path fill-rule="evenodd" clip-rule="evenodd" d="M7.1187 7.04087C6.94679 7.06029 6.60922 7.11597 6.36855 7.16465C6.12787 7.21332 5.78092 7.30022 5.59755 7.35769C5.41418 7.4152 5.15162 7.5088 5.01409 7.56573C4.87656 7.62266 4.5765 7.76394 4.34728 7.87976C4.11807 7.99553 3.7672 8.20007 3.56762 8.33431C3.36799 8.46851 3.09606 8.66517 2.96333 8.77132C2.83055 8.87747 2.60317 9.07914 2.45797 9.21942C2.31277 9.35974 2.05147 9.6433 1.87726 9.84959C1.70306 10.0559 1.44425 10.4028 1.30214 10.6206C1.16003 10.8383 0.958901 11.1853 0.855129 11.3916C0.751399 11.5979 0.620121 11.8792 0.563401 12.0167C0.50668 12.1542 0.412285 12.4262 0.353648 12.621C0.29501 12.8158 0.209076 13.1628 0.162732 13.392C0.116389 13.6212 0.0561265 14.076 0.0287873 14.4026C-0.00959578 14.8621 -0.00959578 15.1309 0.0287873 15.5904C0.0561265 15.917 0.116389 16.3718 0.162732 16.601C0.209076 16.8302 0.29501 17.1772 0.353648 17.372C0.412285 17.5668 0.50668 17.8388 0.563401 17.9763C0.620121 18.1138 0.751107 18.3951 0.854504 18.6014C0.957901 18.8077 1.17978 19.1828 1.34761 19.435C1.51539 19.6871 1.79016 20.0517 1.95811 20.2452C2.12606 20.4387 2.44342 20.7584 2.66326 20.9556C2.88314 21.1528 3.25822 21.4468 3.49677 21.6089C3.73536 21.771 4.11807 21.9982 4.34728 22.1137C4.5765 22.2293 4.87656 22.3704 5.01409 22.4273C5.15162 22.4842 5.41418 22.5777 5.59755 22.6351C5.78092 22.6925 6.11849 22.7778 6.34771 22.8246C6.57692 22.8714 6.94658 22.9296 7.16917 22.9539C7.39172 22.9783 7.77676 22.9982 8.02473 22.9982C8.27274 22.9982 8.7055 22.9697 8.98639 22.935C9.26733 22.9002 9.6512 22.8357 9.83949 22.7916C10.0278 22.7475 10.3561 22.6544 10.5691 22.5846C10.7821 22.5148 11.1675 22.3574 11.4254 22.2348C11.6833 22.1122 12.0529 21.9112 12.2467 21.7881C12.4405 21.6651 12.7491 21.4481 12.9324 21.3061C13.1158 21.164 13.457 20.8536 13.6906 20.6164C13.9242 20.3792 14.2167 20.0538 14.3404 19.8934C14.4642 19.7329 14.6718 19.4335 14.8017 19.2281C14.9317 19.0226 15.1211 18.685 15.2228 18.4779C15.3244 18.2708 15.4753 17.9044 15.5582 17.6637C15.6411 17.4231 15.7455 17.0696 15.7903 16.8783C15.835 16.687 15.9006 16.34 15.9359 16.1073C15.974 15.8562 16 15.4046 16 14.9965C16 14.5884 15.974 14.1369 15.9359 13.8857C15.9006 13.653 15.835 13.3061 15.7903 13.1147C15.7455 12.9234 15.6411 12.57 15.5582 12.3293C15.4753 12.0886 15.3244 11.7222 15.2228 11.5151C15.1211 11.308 14.9317 10.9704 14.8017 10.765C14.6718 10.5595 14.4642 10.2601 14.3404 10.0996C14.2167 9.93919 13.9242 9.61383 13.6906 9.37662C13.457 9.1394 13.1158 8.82904 12.9324 8.68697C12.7491 8.5449 12.4405 8.32798 12.2467 8.20491C12.0529 8.08184 11.6833 7.8808 11.4254 7.75823C11.1675 7.63562 10.7885 7.48046 10.5833 7.41337C10.3781 7.34631 10.0481 7.25296 9.85003 7.20591C9.65195 7.1589 9.2617 7.09213 8.98277 7.05758C8.70387 7.02308 8.24065 6.99724 7.95346 7.00024C7.66624 7.0032 7.29062 7.02149 7.1187 7.04087ZM9.01494 8.60504C9.24415 8.63971 9.5911 8.71477 9.78594 8.77174C9.98077 8.82871 10.2808 8.93223 10.4527 9.00179C10.6247 9.07138 10.9239 9.21396 11.1178 9.31869C11.3116 9.42342 11.6257 9.62033 11.8158 9.75632C12.0059 9.89227 12.3449 10.1861 12.5691 10.4093C12.7934 10.6325 13.0931 10.9776 13.2352 11.1762C13.3773 11.3748 13.5708 11.6733 13.6652 11.8396C13.7596 12.0058 13.8985 12.2918 13.9739 12.4751C14.0494 12.6585 14.158 12.968 14.2154 13.1628C14.2728 13.3576 14.353 13.7046 14.3937 13.9338C14.4449 14.223 14.4668 14.5547 14.4652 15.0174C14.4635 15.5049 14.44 15.8074 14.3774 16.1426C14.3304 16.3947 14.2515 16.7323 14.202 16.8927C14.1524 17.0532 14.05 17.3345 13.9744 17.5179C13.8987 17.7013 13.7596 17.9873 13.6652 18.1535C13.5708 18.3197 13.3772 18.6183 13.2351 18.8169C13.093 19.0157 12.7964 19.3585 12.5762 19.5788C12.3559 19.7991 12.0169 20.0929 11.8229 20.2316C11.6289 20.3704 11.3116 20.5696 11.1178 20.6743C10.9239 20.7791 10.6247 20.9216 10.4527 20.9912C10.2808 21.0608 9.98077 21.1642 9.78594 21.2211C9.5911 21.278 9.24415 21.3557 9.01494 21.3938C8.75468 21.437 8.37126 21.4623 7.99389 21.4611C7.58697 21.4598 7.23769 21.4324 6.92445 21.3773C6.66861 21.3323 6.30524 21.2468 6.11695 21.1873C5.92866 21.1279 5.6316 21.0197 5.45685 20.947C5.28211 20.8743 5.00784 20.7409 4.84739 20.6505C4.68694 20.5601 4.39625 20.3727 4.20142 20.2339C4.00659 20.0951 3.64985 19.7835 3.40863 19.5415C3.16741 19.2996 2.85901 18.9434 2.72323 18.7502C2.58745 18.557 2.37091 18.1909 2.24196 17.9367C2.11306 17.6825 1.94769 17.2874 1.87455 17.0586C1.80141 16.8299 1.71352 16.5114 1.6793 16.351C1.64505 16.1905 1.59462 15.8201 1.5672 15.5279C1.52852 15.1157 1.52852 14.8774 1.5672 14.4652C1.59462 14.1729 1.64505 13.8025 1.6793 13.6421C1.71352 13.4816 1.80141 13.1632 1.87455 12.9344C1.94769 12.7057 2.11306 12.3105 2.24196 12.0563C2.37091 11.8021 2.58679 11.4361 2.72173 11.2428C2.85668 11.0496 3.16512 10.6941 3.40713 10.453C3.64918 10.2118 4.00659 9.90027 4.20142 9.76065C4.39625 9.62104 4.68694 9.43288 4.84739 9.34248C5.00784 9.25213 5.28915 9.11556 5.47252 9.03904C5.65589 8.96249 5.94658 8.85584 6.11849 8.80208C6.2904 8.74827 6.59984 8.67355 6.80614 8.63604C7.01243 8.59853 7.35 8.55482 7.5563 8.53885C7.76259 8.52289 8.08141 8.51706 8.26478 8.52585C8.44815 8.53469 8.78572 8.57032 9.01494 8.60504ZM7.63965 11.046C7.57088 11.07 7.45411 11.1348 7.38009 11.1899C7.30612 11.2451 7.1936 11.3787 7.13004 11.4868C7.03152 11.6544 7.01452 11.7293 7.01452 11.9959C7.01452 12.2604 7.03181 12.3379 7.12704 12.4999C7.18897 12.6052 7.30149 12.738 7.37709 12.7951C7.45273 12.8522 7.57838 12.9207 7.65628 12.9475C7.73421 12.9742 7.903 12.9957 8.03136 12.9952C8.1668 12.9946 8.33475 12.9623 8.43148 12.9182C8.52317 12.8764 8.6667 12.7713 8.75047 12.6848C8.83748 12.5949 8.92479 12.4488 8.95413 12.3441C8.98235 12.2432 9.00548 12.0865 9.00548 11.9959C9.00548 11.9052 8.98235 11.7485 8.95413 11.6477C8.92479 11.5429 8.83748 11.3968 8.75047 11.3069C8.6667 11.2204 8.52317 11.1154 8.43148 11.0736C8.32621 11.0255 8.17264 10.9984 8.01473 10.9999C7.8772 11.0012 7.70841 11.0219 7.63965 11.046ZM6.67782 14.0735C6.58434 14.117 6.46719 14.2042 6.41751 14.2674C6.3678 14.3306 6.30703 14.4569 6.28249 14.5482C6.2579 14.6395 6.25002 14.7866 6.26498 14.8752C6.27994 14.9638 6.33295 15.0976 6.3828 15.1727C6.43264 15.2477 6.55692 15.3513 6.65902 15.4028C6.77451 15.4612 6.92004 15.4966 7.04419 15.4966H7.24373V16.4968V17.497H6.91916C6.66536 17.497 6.55413 17.5175 6.40897 17.5908C6.30687 17.6424 6.18259 17.746 6.13275 17.821C6.0829 17.896 6.02989 18.0299 6.01493 18.1185C5.99997 18.207 6.00826 18.3558 6.03335 18.449C6.05848 18.5422 6.12595 18.6743 6.1833 18.7424C6.24064 18.8106 6.36721 18.8968 6.46452 18.9339C6.61785 18.9925 6.83335 18.9999 8.07828 18.989C9.4407 18.9772 9.52259 18.9721 9.66087 18.8908C9.74109 18.8437 9.84862 18.7312 9.89983 18.6408C9.96497 18.5258 9.99294 18.4076 9.99294 18.2472C9.99294 18.0868 9.96497 17.9686 9.89983 17.8536C9.84862 17.7632 9.7423 17.6516 9.66353 17.6056C9.55914 17.5446 9.42157 17.5173 9.15584 17.5045L8.79139 17.4871L8.77814 16.023L8.76489 14.5589L8.6607 14.3735C8.60339 14.2715 8.49087 14.1496 8.41064 14.1026C8.28158 14.027 8.18314 14.0158 7.5563 14.0058C6.93341 13.9959 6.82727 14.0041 6.67782 14.0735Z" fill="#2656C9"/>
</svg>
