<svg width="143" height="62" viewBox="0 0 143 62" fill="none" xmlns="http://www.w3.org/2000/svg">
<path fill-rule="evenodd" clip-rule="evenodd" d="M4 0C1.79086 0 0 1.79086 0 4V24C0 26.2091 1.79086 28 4 28H66.1623L72 34.5L77.8377 28H139C141.209 28 143 26.2091 143 24V4C143 1.79086 141.209 0 139 0H4Z" fill="black"/>
<path d="M69.4074 8.969V10.11H66.1664V19H64.8084V10.11H61.5534V8.969H69.4074ZM72.0307 11.797C72.5487 11.797 73.0153 11.8833 73.4307 12.056C73.8507 12.2287 74.2053 12.4737 74.4947 12.791C74.7887 13.1083 75.0127 13.4933 75.1667 13.946C75.3253 14.394 75.4047 14.8957 75.4047 15.451C75.4047 16.011 75.3253 16.515 75.1667 16.963C75.0127 17.411 74.7887 17.7937 74.4947 18.111C74.2053 18.4283 73.8507 18.6733 73.4307 18.846C73.0153 19.014 72.5487 19.098 72.0307 19.098C71.5127 19.098 71.0437 19.014 70.6237 18.846C70.2083 18.6733 69.8537 18.4283 69.5597 18.111C69.2657 17.7937 69.0393 17.411 68.8807 16.963C68.722 16.515 68.6427 16.011 68.6427 15.451C68.6427 14.8957 68.722 14.394 68.8807 13.946C69.0393 13.4933 69.2657 13.1083 69.5597 12.791C69.8537 12.4737 70.2083 12.2287 70.6237 12.056C71.0437 11.8833 71.5127 11.797 72.0307 11.797ZM72.0307 18.125C72.7307 18.125 73.2533 17.8917 73.5987 17.425C73.944 16.9537 74.1167 16.298 74.1167 15.458C74.1167 14.6133 73.944 13.9553 73.5987 13.484C73.2533 13.0127 72.7307 12.777 72.0307 12.777C71.676 12.777 71.368 12.8377 71.1067 12.959C70.8453 13.0803 70.626 13.2553 70.4487 13.484C70.276 13.7127 70.1453 13.995 70.0567 14.331C69.9727 14.6623 69.9307 15.038 69.9307 15.458C69.9307 15.878 69.9727 16.2537 70.0567 16.585C70.1453 16.9163 70.276 17.1963 70.4487 17.425C70.626 17.649 70.8453 17.8217 71.1067 17.943C71.368 18.0643 71.676 18.125 72.0307 18.125ZM76.94 21.401V11.909H77.682C77.8593 11.909 77.9713 11.9953 78.018 12.168L78.123 13.008C78.4263 12.6393 78.7716 12.343 79.159 12.119C79.551 11.895 80.0013 11.783 80.51 11.783C80.916 11.783 81.2846 11.8623 81.616 12.021C81.9473 12.175 82.2296 12.406 82.463 12.714C82.6963 13.0173 82.876 13.3953 83.002 13.848C83.128 14.3007 83.191 14.821 83.191 15.409C83.191 15.9317 83.121 16.4193 82.981 16.872C82.841 17.32 82.6403 17.7097 82.379 18.041C82.1176 18.3677 81.7956 18.6267 81.413 18.818C81.035 19.0047 80.608 19.098 80.132 19.098C79.6933 19.098 79.3176 19.0257 79.005 18.881C78.697 18.7363 78.424 18.531 78.186 18.265V21.401H76.94ZM80.097 12.791C79.691 12.791 79.334 12.8843 79.026 13.071C78.7226 13.2577 78.4426 13.5213 78.186 13.862V17.292C78.4146 17.6 78.6643 17.817 78.935 17.943C79.2103 18.069 79.516 18.132 79.852 18.132C80.51 18.132 81.0163 17.8963 81.371 17.425C81.7256 16.9537 81.903 16.2817 81.903 15.409C81.903 14.947 81.861 14.5503 81.777 14.219C81.6976 13.8877 81.581 13.617 81.427 13.407C81.273 13.1923 81.084 13.036 80.86 12.938C80.636 12.84 80.3816 12.791 80.097 12.791Z" fill="white"/>
<path fill-rule="evenodd" clip-rule="evenodd" d="M71.1187 46.0409C70.9468 46.0603 70.6092 46.116 70.3685 46.1646C70.1279 46.2133 69.7809 46.3002 69.5975 46.3577C69.4142 46.4152 69.1516 46.5088 69.0141 46.5657C68.8766 46.6227 68.5765 46.7639 68.3473 46.8798C68.1181 46.9955 67.7672 47.2001 67.5676 47.3343C67.368 47.4685 67.0961 47.6652 66.9633 47.7713C66.8305 47.8775 66.6032 48.0791 66.458 48.2194C66.3128 48.3597 66.0515 48.6433 65.8773 48.8496C65.7031 49.0559 65.4443 49.4028 65.3021 49.6206C65.16 49.8383 64.9589 50.1853 64.8551 50.3916C64.7514 50.5979 64.6201 50.8792 64.5634 51.0167C64.5067 51.1542 64.4123 51.4262 64.3536 51.621C64.295 51.8158 64.2091 52.1628 64.1627 52.392C64.1164 52.6212 64.0561 53.076 64.0288 53.4026C63.9904 53.8621 63.9904 54.1309 64.0288 54.5904C64.0561 54.917 64.1164 55.3718 64.1627 55.601C64.2091 55.8302 64.295 56.1772 64.3536 56.372C64.4123 56.5668 64.5067 56.8388 64.5634 56.9763C64.6201 57.1138 64.7511 57.3951 64.8545 57.6014C64.9579 57.8077 65.1798 58.1828 65.3476 58.435C65.5154 58.6871 65.7902 59.0517 65.9581 59.2452C66.1261 59.4387 66.4434 59.7584 66.6633 59.9556C66.8831 60.1528 67.2582 60.4468 67.4968 60.6089C67.7354 60.771 68.1181 60.9982 68.3473 61.1137C68.5765 61.2293 68.8766 61.3704 69.0141 61.4273C69.1516 61.4842 69.4142 61.5777 69.5975 61.6351C69.7809 61.6925 70.1185 61.7778 70.3477 61.8246C70.5769 61.8714 70.9466 61.9296 71.1692 61.9539C71.3917 61.9783 71.7768 61.9982 72.0247 61.9982C72.2727 61.9982 72.7055 61.9697 72.9864 61.935C73.2673 61.9002 73.6512 61.8357 73.8395 61.7916C74.0278 61.7475 74.3561 61.6544 74.5691 61.5846C74.7821 61.5148 75.1675 61.3574 75.4254 61.2348C75.6833 61.1122 76.0529 60.9112 76.2467 60.7881C76.4405 60.6651 76.7491 60.4481 76.9324 60.3061C77.1158 60.164 77.457 59.8536 77.6906 59.6164C77.9242 59.3792 78.2167 59.0538 78.3404 58.8934C78.4642 58.7329 78.6718 58.4335 78.8017 58.2281C78.9317 58.0226 79.1211 57.685 79.2228 57.4779C79.3244 57.2708 79.4753 56.9044 79.5582 56.6637C79.6411 56.4231 79.7455 56.0696 79.7903 55.8783C79.835 55.687 79.9006 55.34 79.9359 55.1073C79.974 54.8562 80 54.4046 80 53.9965C80 53.5884 79.974 53.1369 79.9359 52.8857C79.9006 52.653 79.835 52.3061 79.7903 52.1147C79.7455 51.9234 79.6411 51.57 79.5582 51.3293C79.4753 51.0886 79.3244 50.7222 79.2228 50.5151C79.1211 50.308 78.9317 49.9704 78.8017 49.765C78.6718 49.5595 78.4642 49.2601 78.3404 49.0996C78.2167 48.9392 77.9242 48.6138 77.6906 48.3766C77.457 48.1394 77.1158 47.829 76.9324 47.687C76.7491 47.5449 76.4405 47.328 76.2467 47.2049C76.0529 47.0818 75.6833 46.8808 75.4254 46.7582C75.1675 46.6356 74.7885 46.4805 74.5833 46.4134C74.3781 46.3463 74.0481 46.253 73.85 46.2059C73.6519 46.1589 73.2617 46.0921 72.9828 46.0576C72.7039 46.0231 72.2406 45.9972 71.9535 46.0002C71.6662 46.0032 71.2906 46.0215 71.1187 46.0409ZM73.0149 47.605C73.2442 47.6397 73.5911 47.7148 73.7859 47.7717C73.9808 47.8287 74.2808 47.9322 74.4527 48.0018C74.6247 48.0714 74.9239 48.214 75.1178 48.3187C75.3116 48.4234 75.6257 48.6203 75.8158 48.7563C76.0059 48.8923 76.3449 49.1861 76.5691 49.4093C76.7934 49.6325 77.0931 49.9776 77.2352 50.1762C77.3773 50.3748 77.5708 50.6733 77.6652 50.8396C77.7596 51.0058 77.8985 51.2918 77.9739 51.4751C78.0494 51.6585 78.158 51.968 78.2154 52.1628C78.2728 52.3576 78.353 52.7046 78.3937 52.9338C78.4449 53.223 78.4668 53.5547 78.4652 54.0174C78.4635 54.5049 78.44 54.8074 78.3774 55.1426C78.3304 55.3947 78.2515 55.7323 78.202 55.8927C78.1524 56.0532 78.05 56.3345 77.9744 56.5179C77.8987 56.7013 77.7596 56.9873 77.6652 57.1535C77.5708 57.3197 77.3772 57.6183 77.2351 57.8169C77.093 58.0157 76.7964 58.3585 76.5762 58.5788C76.3559 58.7991 76.0169 59.0929 75.8229 59.2316C75.6289 59.3704 75.3116 59.5696 75.1178 59.6743C74.9239 59.7791 74.6247 59.9216 74.4527 59.9912C74.2808 60.0608 73.9808 60.1642 73.7859 60.2211C73.5911 60.278 73.2442 60.3557 73.0149 60.3938C72.7547 60.437 72.3713 60.4623 71.9939 60.4611C71.587 60.4598 71.2377 60.4324 70.9245 60.3773C70.6686 60.3323 70.3052 60.2468 70.117 60.1873C69.9287 60.1279 69.6316 60.0197 69.4569 59.947C69.2821 59.8743 69.0078 59.7409 68.8474 59.6505C68.6869 59.5601 68.3963 59.3727 68.2014 59.2339C68.0066 59.0951 67.6498 58.7835 67.4086 58.5415C67.1674 58.2996 66.859 57.9434 66.7232 57.7502C66.5875 57.557 66.3709 57.1909 66.242 56.9367C66.1131 56.6825 65.9477 56.2874 65.8746 56.0586C65.8014 55.8299 65.7135 55.5114 65.6793 55.351C65.645 55.1905 65.5946 54.8201 65.5672 54.5279C65.5285 54.1157 65.5285 53.8774 65.5672 53.4652C65.5946 53.1729 65.645 52.8025 65.6793 52.6421C65.7135 52.4816 65.8014 52.1632 65.8746 51.9344C65.9477 51.7057 66.1131 51.3105 66.242 51.0563C66.3709 50.8021 66.5868 50.4361 66.7217 50.2428C66.8567 50.0496 67.1651 49.6941 67.4071 49.453C67.6492 49.2118 68.0066 48.9003 68.2014 48.7607C68.3963 48.621 68.6869 48.4329 68.8474 48.3425C69.0078 48.2521 69.2892 48.1156 69.4725 48.039C69.6559 47.9625 69.9466 47.8558 70.1185 47.8021C70.2904 47.7483 70.5998 47.6735 70.8061 47.636C71.0124 47.5985 71.35 47.5548 71.5563 47.5389C71.7626 47.5229 72.0814 47.5171 72.2648 47.5259C72.4482 47.5347 72.7857 47.5703 73.0149 47.605ZM71.6396 50.046C71.5709 50.07 71.4541 50.1348 71.3801 50.1899C71.3061 50.2451 71.1936 50.3787 71.13 50.4868C71.0315 50.6544 71.0145 50.7293 71.0145 50.9959C71.0145 51.2604 71.0318 51.3379 71.127 51.4999C71.189 51.6052 71.3015 51.738 71.3771 51.7951C71.4527 51.8522 71.5784 51.9207 71.6563 51.9475C71.7342 51.9742 71.903 51.9957 72.0314 51.9952C72.1668 51.9946 72.3348 51.9623 72.4315 51.9182C72.5232 51.8764 72.6667 51.7713 72.7505 51.6848C72.8375 51.5949 72.9248 51.4488 72.9541 51.3441C72.9823 51.2432 73.0055 51.0865 73.0055 50.9959C73.0055 50.9052 72.9823 50.7485 72.9541 50.6477C72.9248 50.5429 72.8375 50.3968 72.7505 50.3069C72.6667 50.2204 72.5232 50.1154 72.4315 50.0736C72.3262 50.0255 72.1726 49.9984 72.0147 49.9999C71.8772 50.0012 71.7084 50.0219 71.6396 50.046ZM70.6778 53.0735C70.5843 53.117 70.4672 53.2042 70.4175 53.2674C70.3678 53.3306 70.307 53.4569 70.2825 53.5482C70.2579 53.6395 70.25 53.7866 70.265 53.8752C70.2799 53.9638 70.333 54.0976 70.3828 54.1727C70.4326 54.2477 70.5569 54.3513 70.659 54.4028C70.7745 54.4612 70.92 54.4966 71.0442 54.4966H71.2437V55.4968V56.497H70.9192C70.6654 56.497 70.5541 56.5175 70.409 56.5908C70.3069 56.6424 70.1826 56.746 70.1327 56.821C70.0829 56.896 70.0299 57.0299 70.0149 57.1185C70 57.207 70.0083 57.3558 70.0333 57.449C70.0585 57.5422 70.126 57.6743 70.1833 57.7424C70.2406 57.8106 70.3672 57.8968 70.4645 57.9339C70.6178 57.9925 70.8334 57.9999 72.0783 57.989C73.4407 57.9772 73.5226 57.9721 73.6609 57.8908C73.7411 57.8437 73.8486 57.7312 73.8998 57.6408C73.965 57.5258 73.9929 57.4076 73.9929 57.2472C73.9929 57.0868 73.965 56.9686 73.8998 56.8536C73.8486 56.7632 73.7423 56.6516 73.6635 56.6056C73.5591 56.5446 73.4216 56.5173 73.1558 56.5045L72.7914 56.4871L72.7781 55.023L72.7649 53.5589L72.6607 53.3735C72.6034 53.2715 72.4909 53.1496 72.4106 53.1026C72.2816 53.027 72.1831 53.0158 71.5563 53.0058C70.9334 52.9959 70.8273 53.0041 70.6778 53.0735Z" fill="#2656C9"/>
</svg>
