<svg width="173" height="164" viewBox="0 0 173 164" fill="none" xmlns="http://www.w3.org/2000/svg">
<path d="M21.096 24.216V29H19.552V17.536H22.792C23.5173 17.536 24.144 17.6107 24.672 17.76C25.2 17.904 25.6347 18.1147 25.976 18.392C26.3227 18.6693 26.5787 19.0053 26.744 19.4C26.9093 19.7893 26.992 20.2267 26.992 20.712C26.992 21.1173 26.928 21.496 26.8 21.848C26.672 22.2 26.4853 22.5173 26.24 22.8C26 23.0773 25.704 23.3147 25.352 23.512C25.0053 23.7093 24.6107 23.8587 24.168 23.96C24.36 24.072 24.5307 24.2347 24.68 24.448L28.024 29H26.648C26.3653 29 26.1573 28.8907 26.024 28.672L23.048 24.576C22.9573 24.448 22.8587 24.3573 22.752 24.304C22.6453 24.2453 22.4853 24.216 22.272 24.216H21.096ZM21.096 23.088H22.72C23.1733 23.088 23.5707 23.0347 23.912 22.928C24.2587 22.816 24.5467 22.6613 24.776 22.464C25.0107 22.2613 25.1867 22.0213 25.304 21.744C25.4213 21.4667 25.48 21.16 25.48 20.824C25.48 20.1413 25.2533 19.6267 24.8 19.28C24.352 18.9333 23.6827 18.76 22.792 18.76H21.096V23.088ZM32.6729 20.768C33.1582 20.768 33.6062 20.8507 34.0169 21.016C34.4275 21.176 34.7822 21.4107 35.0809 21.72C35.3795 22.024 35.6115 22.4027 35.7769 22.856C35.9475 23.304 36.0329 23.816 36.0329 24.392C36.0329 24.616 36.0089 24.7653 35.9609 24.84C35.9129 24.9147 35.8222 24.952 35.6889 24.952H30.2969C30.3075 25.464 30.3769 25.9093 30.5049 26.288C30.6329 26.6667 30.8089 26.984 31.0329 27.24C31.2569 27.4907 31.5235 27.68 31.8329 27.808C32.1422 27.9307 32.4889 27.992 32.8729 27.992C33.2302 27.992 33.5369 27.952 33.7929 27.872C34.0542 27.7867 34.2782 27.696 34.4649 27.6C34.6515 27.504 34.8062 27.416 34.9289 27.336C35.0569 27.2507 35.1662 27.208 35.2569 27.208C35.3742 27.208 35.4649 27.2533 35.5289 27.344L35.9289 27.864C35.7529 28.0773 35.5422 28.264 35.2969 28.424C35.0515 28.5787 34.7875 28.7067 34.5049 28.808C34.2275 28.9093 33.9395 28.984 33.6409 29.032C33.3422 29.0853 33.0462 29.112 32.7529 29.112C32.1929 29.112 31.6755 29.0187 31.2009 28.832C30.7315 28.64 30.3235 28.3627 29.9769 28C29.6355 27.632 29.3689 27.1787 29.1769 26.64C28.9849 26.1013 28.8889 25.4827 28.8889 24.784C28.8889 24.2187 28.9742 23.6907 29.1449 23.2C29.3209 22.7093 29.5715 22.2853 29.8969 21.928C30.2222 21.5653 30.6195 21.2827 31.0889 21.08C31.5582 20.872 32.0862 20.768 32.6729 20.768ZM32.7049 21.816C32.0169 21.816 31.4755 22.016 31.0809 22.416C30.6862 22.8107 30.4409 23.36 30.3449 24.064H34.7529C34.7529 23.7333 34.7075 23.432 34.6169 23.16C34.5262 22.8827 34.3929 22.6453 34.2169 22.448C34.0409 22.2453 33.8249 22.0907 33.5689 21.984C33.3182 21.872 33.0302 21.816 32.7049 21.816ZM37.8555 29V20.896H38.7035C38.9062 20.896 39.0342 20.9947 39.0875 21.192L39.1995 22.072C39.5515 21.6827 39.9435 21.368 40.3755 21.128C40.8128 20.888 41.3168 20.768 41.8875 20.768C42.3302 20.768 42.7195 20.8427 43.0555 20.992C43.3968 21.136 43.6795 21.344 43.9035 21.616C44.1328 21.8827 44.3062 22.2053 44.4235 22.584C44.5408 22.9627 44.5995 23.3813 44.5995 23.84V29H43.1755V23.84C43.1755 23.2267 43.0342 22.752 42.7515 22.416C42.4742 22.0747 42.0475 21.904 41.4715 21.904C41.0502 21.904 40.6555 22.0053 40.2875 22.208C39.9248 22.4107 39.5888 22.6853 39.2795 23.032V29H37.8555ZM52.6981 29H52.0661C51.9275 29 51.8155 28.9787 51.7301 28.936C51.6448 28.8933 51.5888 28.8027 51.5621 28.664L51.4021 27.912C51.1888 28.104 50.9808 28.2773 50.7781 28.432C50.5755 28.5813 50.3621 28.7093 50.1381 28.816C49.9141 28.9173 49.6741 28.9947 49.4181 29.048C49.1675 29.1013 48.8875 29.128 48.5781 29.128C48.2635 29.128 47.9675 29.0853 47.6901 29C47.4181 28.9093 47.1808 28.776 46.9781 28.6C46.7755 28.424 46.6128 28.2027 46.4901 27.936C46.3728 27.664 46.3141 27.344 46.3141 26.976C46.3141 26.656 46.4021 26.3493 46.5781 26.056C46.7541 25.7573 47.0368 25.4933 47.4261 25.264C47.8208 25.0347 48.3355 24.848 48.9701 24.704C49.6048 24.5547 50.3808 24.4693 51.2981 24.448V23.816C51.2981 23.1867 51.1621 22.712 50.8901 22.392C50.6235 22.0667 50.2261 21.904 49.6981 21.904C49.3515 21.904 49.0581 21.9493 48.8181 22.04C48.5835 22.1253 48.3781 22.224 48.2021 22.336C48.0315 22.4427 47.8821 22.5413 47.7541 22.632C47.6315 22.7173 47.5088 22.76 47.3861 22.76C47.2901 22.76 47.2048 22.736 47.1301 22.688C47.0608 22.6347 47.0048 22.5707 46.9621 22.496L46.7061 22.04C47.1541 21.608 47.6368 21.2853 48.1541 21.072C48.6715 20.8587 49.2448 20.752 49.8741 20.752C50.3275 20.752 50.7301 20.8267 51.0821 20.976C51.4341 21.1253 51.7301 21.3333 51.9701 21.6C52.2101 21.8667 52.3915 22.1893 52.5141 22.568C52.6368 22.9467 52.6981 23.3627 52.6981 23.816V29ZM49.0021 28.128C49.2528 28.128 49.4821 28.104 49.6901 28.056C49.8981 28.0027 50.0928 27.9307 50.2741 27.84C50.4608 27.744 50.6368 27.6293 50.8021 27.496C50.9728 27.3627 51.1381 27.2107 51.2981 27.04V25.352C50.6421 25.3733 50.0848 25.4267 49.6261 25.512C49.1675 25.592 48.7941 25.6987 48.5061 25.832C48.2181 25.9653 48.0075 26.1227 47.8741 26.304C47.7461 26.4853 47.6821 26.688 47.6821 26.912C47.6821 27.1253 47.7168 27.3093 47.7861 27.464C47.8555 27.6187 47.9488 27.7467 48.0661 27.848C48.1835 27.944 48.3221 28.016 48.4821 28.064C48.6421 28.1067 48.8155 28.128 49.0021 28.128ZM54.8555 29V20.896H55.7035C55.9062 20.896 56.0342 20.9947 56.0875 21.192L56.1915 22.024C56.4902 21.656 56.8235 21.3547 57.1915 21.12C57.5648 20.8853 57.9968 20.768 58.4875 20.768C59.0368 20.768 59.4795 20.92 59.8155 21.224C60.1568 21.528 60.4022 21.9387 60.5515 22.456C60.6635 22.1627 60.8102 21.9093 60.9915 21.696C61.1782 21.4827 61.3862 21.3067 61.6155 21.168C61.8448 21.0293 62.0875 20.928 62.3435 20.864C62.6048 20.8 62.8688 20.768 63.1355 20.768C63.5622 20.768 63.9408 20.8373 64.2715 20.976C64.6075 21.1093 64.8902 21.3067 65.1195 21.568C65.3542 21.8293 65.5328 22.152 65.6555 22.536C65.7782 22.9147 65.8395 23.3493 65.8395 23.84V29H64.4155V23.84C64.4155 23.2053 64.2768 22.7253 63.9995 22.4C63.7222 22.0693 63.3195 21.904 62.7915 21.904C62.5568 21.904 62.3328 21.9467 62.1195 22.032C61.9115 22.112 61.7275 22.232 61.5675 22.392C61.4075 22.552 61.2795 22.7547 61.1835 23C61.0928 23.24 61.0475 23.52 61.0475 23.84V29H59.6235V23.84C59.6235 23.1893 59.4928 22.704 59.2315 22.384C58.9702 22.064 58.5888 21.904 58.0875 21.904C57.7355 21.904 57.4075 22 57.1035 22.192C56.8048 22.3787 56.5302 22.6347 56.2795 22.96V29H54.8555ZM71.2041 20.768C71.6895 20.768 72.1375 20.8507 72.5481 21.016C72.9588 21.176 73.3135 21.4107 73.6121 21.72C73.9108 22.024 74.1428 22.4027 74.3081 22.856C74.4788 23.304 74.5641 23.816 74.5641 24.392C74.5641 24.616 74.5401 24.7653 74.4921 24.84C74.4441 24.9147 74.3535 24.952 74.2201 24.952H68.8281C68.8388 25.464 68.9081 25.9093 69.0361 26.288C69.1641 26.6667 69.3401 26.984 69.5641 27.24C69.7881 27.4907 70.0548 27.68 70.3641 27.808C70.6735 27.9307 71.0201 27.992 71.4041 27.992C71.7615 27.992 72.0681 27.952 72.3241 27.872C72.5855 27.7867 72.8095 27.696 72.9961 27.6C73.1828 27.504 73.3375 27.416 73.4601 27.336C73.5881 27.2507 73.6975 27.208 73.7881 27.208C73.9055 27.208 73.9961 27.2533 74.0601 27.344L74.4601 27.864C74.2841 28.0773 74.0735 28.264 73.8281 28.424C73.5828 28.5787 73.3188 28.7067 73.0361 28.808C72.7588 28.9093 72.4708 28.984 72.1721 29.032C71.8735 29.0853 71.5775 29.112 71.2841 29.112C70.7241 29.112 70.2068 29.0187 69.7321 28.832C69.2628 28.64 68.8548 28.3627 68.5081 28C68.1668 27.632 67.9001 27.1787 67.7081 26.64C67.5161 26.1013 67.4201 25.4827 67.4201 24.784C67.4201 24.2187 67.5055 23.6907 67.6761 23.2C67.8521 22.7093 68.1028 22.2853 68.4281 21.928C68.7535 21.5653 69.1508 21.2827 69.6201 21.08C70.0895 20.872 70.6175 20.768 71.2041 20.768ZM71.2361 21.816C70.5481 21.816 70.0068 22.016 69.6121 22.416C69.2175 22.8107 68.9721 23.36 68.8761 24.064H73.2841C73.2841 23.7333 73.2388 23.432 73.1481 23.16C73.0575 22.8827 72.9241 22.6453 72.7481 22.448C72.5721 22.2453 72.3561 22.0907 72.1001 21.984C71.8495 21.872 71.5615 21.816 71.2361 21.816ZM21.096 63.216V68H19.552V56.536H22.792C23.5173 56.536 24.144 56.6107 24.672 56.76C25.2 56.904 25.6347 57.1147 25.976 57.392C26.3227 57.6693 26.5787 58.0053 26.744 58.4C26.9093 58.7893 26.992 59.2267 26.992 59.712C26.992 60.1173 26.928 60.496 26.8 60.848C26.672 61.2 26.4853 61.5173 26.24 61.8C26 62.0773 25.704 62.3147 25.352 62.512C25.0053 62.7093 24.6107 62.8587 24.168 62.96C24.36 63.072 24.5307 63.2347 24.68 63.448L28.024 68H26.648C26.3653 68 26.1573 67.8907 26.024 67.672L23.048 63.576C22.9573 63.448 22.8587 63.3573 22.752 63.304C22.6453 63.2453 22.4853 63.216 22.272 63.216H21.096ZM21.096 62.088H22.72C23.1733 62.088 23.5707 62.0347 23.912 61.928C24.2587 61.816 24.5467 61.6613 24.776 61.464C25.0107 61.2613 25.1867 61.0213 25.304 60.744C25.4213 60.4667 25.48 60.16 25.48 59.824C25.48 59.1413 25.2533 58.6267 24.8 58.28C24.352 57.9333 23.6827 57.76 22.792 57.76H21.096V62.088ZM32.6729 59.768C33.1582 59.768 33.6062 59.8507 34.0169 60.016C34.4275 60.176 34.7822 60.4107 35.0809 60.72C35.3795 61.024 35.6115 61.4027 35.7769 61.856C35.9475 62.304 36.0329 62.816 36.0329 63.392C36.0329 63.616 36.0089 63.7653 35.9609 63.84C35.9129 63.9147 35.8222 63.952 35.6889 63.952H30.2969C30.3075 64.464 30.3769 64.9093 30.5049 65.288C30.6329 65.6667 30.8089 65.984 31.0329 66.24C31.2569 66.4907 31.5235 66.68 31.8329 66.808C32.1422 66.9307 32.4889 66.992 32.8729 66.992C33.2302 66.992 33.5369 66.952 33.7929 66.872C34.0542 66.7867 34.2782 66.696 34.4649 66.6C34.6515 66.504 34.8062 66.416 34.9289 66.336C35.0569 66.2507 35.1662 66.208 35.2569 66.208C35.3742 66.208 35.4649 66.2533 35.5289 66.344L35.9289 66.864C35.7529 67.0773 35.5422 67.264 35.2969 67.424C35.0515 67.5787 34.7875 67.7067 34.5049 67.808C34.2275 67.9093 33.9395 67.984 33.6409 68.032C33.3422 68.0853 33.0462 68.112 32.7529 68.112C32.1929 68.112 31.6755 68.0187 31.2009 67.832C30.7315 67.64 30.3235 67.3627 29.9769 67C29.6355 66.632 29.3689 66.1787 29.1769 65.64C28.9849 65.1013 28.8889 64.4827 28.8889 63.784C28.8889 63.2187 28.9742 62.6907 29.1449 62.2C29.3209 61.7093 29.5715 61.2853 29.8969 60.928C30.2222 60.5653 30.6195 60.2827 31.0889 60.08C31.5582 59.872 32.0862 59.768 32.6729 59.768ZM32.7049 60.816C32.0169 60.816 31.4755 61.016 31.0809 61.416C30.6862 61.8107 30.4409 62.36 30.3449 63.064H34.7529C34.7529 62.7333 34.7075 62.432 34.6169 62.16C34.5262 61.8827 34.3929 61.6453 34.2169 61.448C34.0409 61.2453 33.8249 61.0907 33.5689 60.984C33.3182 60.872 33.0302 60.816 32.7049 60.816ZM42.4955 61.232C42.4315 61.3493 42.3328 61.408 42.1995 61.408C42.1195 61.408 42.0288 61.3787 41.9275 61.32C41.8262 61.2613 41.7008 61.1973 41.5515 61.128C41.4075 61.0533 41.2342 60.9867 41.0315 60.928C40.8288 60.864 40.5888 60.832 40.3115 60.832C40.0715 60.832 39.8555 60.864 39.6635 60.928C39.4715 60.9867 39.3062 61.0693 39.1675 61.176C39.0342 61.2827 38.9302 61.408 38.8555 61.552C38.7862 61.6907 38.7515 61.8427 38.7515 62.008C38.7515 62.216 38.8102 62.3893 38.9275 62.528C39.0502 62.6667 39.2102 62.7867 39.4075 62.888C39.6048 62.9893 39.8288 63.08 40.0795 63.16C40.3302 63.2347 40.5862 63.3173 40.8475 63.408C41.1142 63.4933 41.3728 63.5893 41.6235 63.696C41.8742 63.8027 42.0982 63.936 42.2955 64.096C42.4928 64.256 42.6502 64.4533 42.7675 64.688C42.8902 64.9173 42.9515 65.1947 42.9515 65.52C42.9515 65.8933 42.8848 66.24 42.7515 66.56C42.6182 66.8747 42.4208 67.1493 42.1595 67.384C41.8982 67.6133 41.5782 67.7947 41.1995 67.928C40.8208 68.0613 40.3835 68.128 39.8875 68.128C39.3222 68.128 38.8102 68.0373 38.3515 67.856C37.8928 67.6693 37.5035 67.432 37.1835 67.144L37.5195 66.6C37.5622 66.5307 37.6128 66.4773 37.6715 66.44C37.7302 66.4027 37.8075 66.384 37.9035 66.384C37.9995 66.384 38.1008 66.4213 38.2075 66.496C38.3142 66.5707 38.4422 66.6533 38.5915 66.744C38.7462 66.8347 38.9302 66.9173 39.1435 66.992C39.3622 67.0667 39.6342 67.104 39.9595 67.104C40.2368 67.104 40.4795 67.0693 40.6875 67C40.8955 66.9253 41.0688 66.8267 41.2075 66.704C41.3462 66.5813 41.4475 66.44 41.5115 66.28C41.5808 66.12 41.6155 65.9493 41.6155 65.768C41.6155 65.544 41.5542 65.36 41.4315 65.216C41.3142 65.0667 41.1568 64.9413 40.9595 64.84C40.7622 64.7333 40.5355 64.6427 40.2795 64.568C40.0288 64.488 39.7702 64.4053 39.5035 64.32C39.2422 64.2347 38.9835 64.1387 38.7275 64.032C38.4768 63.92 38.2528 63.7813 38.0555 63.616C37.8582 63.4507 37.6982 63.248 37.5755 63.008C37.4582 62.7627 37.3995 62.4667 37.3995 62.12C37.3995 61.8107 37.4635 61.5147 37.5915 61.232C37.7195 60.944 37.9062 60.6933 38.1515 60.48C38.3968 60.2613 38.6982 60.088 39.0555 59.96C39.4128 59.832 39.8208 59.768 40.2795 59.768C40.8128 59.768 41.2902 59.8533 41.7115 60.024C42.1382 60.1893 42.5062 60.4187 42.8155 60.712L42.4955 61.232ZM47.249 68.128C46.609 68.128 46.1157 67.9493 45.769 67.592C45.4277 67.2347 45.257 66.72 45.257 66.048V61.088H44.281C44.1957 61.088 44.1237 61.064 44.065 61.016C44.0063 60.9627 43.977 60.8827 43.977 60.776V60.208L45.305 60.04L45.633 57.536C45.6437 57.456 45.6783 57.392 45.737 57.344C45.7957 57.2907 45.8703 57.264 45.961 57.264H46.681V60.056H49.001V61.088H46.681V65.952C46.681 66.2933 46.7637 66.5467 46.929 66.712C47.0943 66.8773 47.3077 66.96 47.569 66.96C47.7183 66.96 47.8463 66.9413 47.953 66.904C48.065 66.8613 48.161 66.816 48.241 66.768C48.321 66.72 48.3877 66.6773 48.441 66.64C48.4997 66.5973 48.5503 66.576 48.593 66.576C48.6677 66.576 48.7343 66.6213 48.793 66.712L49.209 67.392C48.9637 67.6213 48.6677 67.8027 48.321 67.936C47.9743 68.064 47.617 68.128 47.249 68.128ZM56.7138 68H56.0818C55.9431 68 55.8311 67.9787 55.7458 67.936C55.6604 67.8933 55.6044 67.8027 55.5778 67.664L55.4178 66.912C55.2044 67.104 54.9964 67.2773 54.7938 67.432C54.5911 67.5813 54.3778 67.7093 54.1538 67.816C53.9298 67.9173 53.6898 67.9947 53.4338 68.048C53.1831 68.1013 52.9031 68.128 52.5938 68.128C52.2791 68.128 51.9831 68.0853 51.7057 68C51.4338 67.9093 51.1964 67.776 50.9938 67.6C50.7911 67.424 50.6284 67.2027 50.5058 66.936C50.3884 66.664 50.3298 66.344 50.3298 65.976C50.3298 65.656 50.4178 65.3493 50.5938 65.056C50.7698 64.7573 51.0524 64.4933 51.4418 64.264C51.8364 64.0347 52.3511 63.848 52.9858 63.704C53.6204 63.5547 54.3964 63.4693 55.3138 63.448V62.816C55.3138 62.1867 55.1778 61.712 54.9058 61.392C54.6391 61.0667 54.2418 60.904 53.7138 60.904C53.3671 60.904 53.0738 60.9493 52.8338 61.04C52.5991 61.1253 52.3938 61.224 52.2178 61.336C52.0471 61.4427 51.8978 61.5413 51.7698 61.632C51.6471 61.7173 51.5244 61.76 51.4018 61.76C51.3058 61.76 51.2204 61.736 51.1458 61.688C51.0764 61.6347 51.0204 61.5707 50.9778 61.496L50.7218 61.04C51.1698 60.608 51.6524 60.2853 52.1698 60.072C52.6871 59.8587 53.2604 59.752 53.8898 59.752C54.3431 59.752 54.7458 59.8267 55.0978 59.976C55.4498 60.1253 55.7458 60.3333 55.9858 60.6C56.2258 60.8667 56.4071 61.1893 56.5298 61.568C56.6524 61.9467 56.7138 62.3627 56.7138 62.816V68ZM53.0178 67.128C53.2684 67.128 53.4978 67.104 53.7057 67.056C53.9138 67.0027 54.1084 66.9307 54.2898 66.84C54.4764 66.744 54.6524 66.6293 54.8178 66.496C54.9884 66.3627 55.1538 66.2107 55.3138 66.04V64.352C54.6578 64.3733 54.1004 64.4267 53.6418 64.512C53.1831 64.592 52.8098 64.6987 52.5218 64.832C52.2338 64.9653 52.0231 65.1227 51.8898 65.304C51.7618 65.4853 51.6978 65.688 51.6978 65.912C51.6978 66.1253 51.7324 66.3093 51.8018 66.464C51.8711 66.6187 51.9644 66.7467 52.0818 66.848C52.1991 66.944 52.3378 67.016 52.4978 67.064C52.6578 67.1067 52.8311 67.128 53.0178 67.128ZM58.8711 68V59.896H59.6871C59.8418 59.896 59.9485 59.9253 60.0071 59.984C60.0658 60.0427 60.1058 60.144 60.1271 60.288L60.2231 61.552C60.5005 60.9867 60.8418 60.5467 61.2471 60.232C61.6578 59.912 62.1378 59.752 62.6871 59.752C62.9111 59.752 63.1138 59.7787 63.2951 59.832C63.4765 59.88 63.6445 59.9493 63.7991 60.04L63.6151 61.104C63.5778 61.2373 63.4951 61.304 63.3671 61.304C63.2925 61.304 63.1778 61.28 63.0231 61.232C62.8685 61.1787 62.6525 61.152 62.3751 61.152C61.8791 61.152 61.4631 61.296 61.1271 61.584C60.7965 61.872 60.5191 62.2907 60.2951 62.84V68H58.8711ZM67.7803 68.128C67.1403 68.128 66.6469 67.9493 66.3003 67.592C65.9589 67.2347 65.7883 66.72 65.7883 66.048V61.088H64.8123C64.7269 61.088 64.6549 61.064 64.5963 61.016C64.5376 60.9627 64.5083 60.8827 64.5083 60.776V60.208L65.8363 60.04L66.1643 57.536C66.1749 57.456 66.2096 57.392 66.2682 57.344C66.3269 57.2907 66.4016 57.264 66.4923 57.264H67.2123V60.056H69.5323V61.088H67.2123V65.952C67.2123 66.2933 67.2949 66.5467 67.4603 66.712C67.6256 66.8773 67.8389 66.96 68.1003 66.96C68.2496 66.96 68.3776 66.9413 68.4843 66.904C68.5963 66.8613 68.6923 66.816 68.7723 66.768C68.8523 66.72 68.9189 66.6773 68.9723 66.64C69.0309 66.5973 69.0816 66.576 69.1243 66.576C69.1989 66.576 69.2656 66.6213 69.3243 66.712L69.7403 67.392C69.4949 67.6213 69.1989 67.8027 68.8523 67.936C68.5056 68.064 68.1483 68.128 67.7803 68.128ZM25.264 97.328C25.216 97.408 25.1653 97.4693 25.112 97.512C25.0587 97.5493 24.9893 97.568 24.904 97.568C24.8133 97.568 24.7067 97.5227 24.584 97.432C24.4667 97.3413 24.3147 97.2427 24.128 97.136C23.9467 97.024 23.7253 96.9227 23.464 96.832C23.208 96.7413 22.896 96.696 22.528 96.696C22.1813 96.696 21.8747 96.744 21.608 96.84C21.3413 96.9307 21.1173 97.056 20.936 97.216C20.76 97.376 20.6267 97.5653 20.536 97.784C20.4453 97.9973 20.4 98.2293 20.4 98.48C20.4 98.8 20.4773 99.0667 20.632 99.28C20.792 99.488 21 99.6667 21.256 99.816C21.5173 99.9653 21.8107 100.096 22.136 100.208C22.4667 100.315 22.8027 100.427 23.144 100.544C23.4907 100.661 23.8267 100.795 24.152 100.944C24.4827 101.088 24.776 101.272 25.032 101.496C25.2933 101.72 25.5013 101.995 25.656 102.32C25.816 102.645 25.896 103.045 25.896 103.52C25.896 104.021 25.8107 104.493 25.64 104.936C25.4693 105.373 25.2187 105.755 24.888 106.08C24.5627 106.405 24.16 106.661 23.68 106.848C23.2053 107.035 22.664 107.128 22.056 107.128C21.3147 107.128 20.6373 106.995 20.024 106.728C19.416 106.456 18.896 106.091 18.464 105.632L18.912 104.896C18.9547 104.837 19.0053 104.789 19.064 104.752C19.128 104.709 19.1973 104.688 19.272 104.688C19.384 104.688 19.512 104.749 19.656 104.872C19.8 104.989 19.9787 105.12 20.192 105.264C20.4107 105.408 20.672 105.541 20.976 105.664C21.2853 105.781 21.6613 105.84 22.104 105.84C22.472 105.84 22.8 105.789 23.088 105.688C23.376 105.587 23.6187 105.445 23.816 105.264C24.0187 105.077 24.1733 104.856 24.28 104.6C24.3867 104.344 24.44 104.059 24.44 103.744C24.44 103.397 24.36 103.115 24.2 102.896C24.0453 102.672 23.84 102.485 23.584 102.336C23.328 102.187 23.0347 102.061 22.704 101.96C22.3787 101.853 22.0427 101.747 21.696 101.64C21.3547 101.528 21.0187 101.4 20.688 101.256C20.3627 101.112 20.072 100.925 19.816 100.696C19.56 100.467 19.352 100.181 19.192 99.84C19.0373 99.4933 18.96 99.0667 18.96 98.56C18.96 98.1547 19.0373 97.7627 19.192 97.384C19.352 97.0053 19.5813 96.6693 19.88 96.376C20.1787 96.0827 20.5467 95.848 20.984 95.672C21.4267 95.496 21.9333 95.408 22.504 95.408C23.144 95.408 23.728 95.5093 24.256 95.712C24.784 95.9147 25.2453 96.208 25.64 96.592L25.264 97.328ZM30.1084 107.128C29.4684 107.128 28.975 106.949 28.6284 106.592C28.287 106.235 28.1164 105.72 28.1164 105.048V100.088H27.1404C27.055 100.088 26.983 100.064 26.9244 100.016C26.8657 99.9627 26.8364 99.8827 26.8364 99.776V99.208L28.1644 99.04L28.4924 96.536C28.503 96.456 28.5377 96.392 28.5964 96.344C28.655 96.2907 28.7297 96.264 28.8204 96.264H29.5404V99.056H31.8604V100.088H29.5404V104.952C29.5404 105.293 29.623 105.547 29.7884 105.712C29.9537 105.877 30.167 105.96 30.4284 105.96C30.5777 105.96 30.7057 105.941 30.8124 105.904C30.9244 105.861 31.0204 105.816 31.1004 105.768C31.1804 105.72 31.247 105.677 31.3004 105.64C31.359 105.597 31.4097 105.576 31.4524 105.576C31.527 105.576 31.5937 105.621 31.6524 105.712L32.0684 106.392C31.823 106.621 31.527 106.803 31.1804 106.936C30.8337 107.064 30.4764 107.128 30.1084 107.128ZM36.9011 98.768C37.4931 98.768 38.0265 98.8667 38.5011 99.064C38.9811 99.2613 39.3865 99.5413 39.7171 99.904C40.0531 100.267 40.3091 100.707 40.4851 101.224C40.6665 101.736 40.7571 102.309 40.7571 102.944C40.7571 103.584 40.6665 104.16 40.4851 104.672C40.3091 105.184 40.0531 105.621 39.7171 105.984C39.3865 106.347 38.9811 106.627 38.5011 106.824C38.0265 107.016 37.4931 107.112 36.9011 107.112C36.3091 107.112 35.7731 107.016 35.2931 106.824C34.8185 106.627 34.4131 106.347 34.0771 105.984C33.7411 105.621 33.4825 105.184 33.3011 104.672C33.1198 104.16 33.0291 103.584 33.0291 102.944C33.0291 102.309 33.1198 101.736 33.3011 101.224C33.4825 100.707 33.7411 100.267 34.0771 99.904C34.4131 99.5413 34.8185 99.2613 35.2931 99.064C35.7731 98.8667 36.3091 98.768 36.9011 98.768ZM36.9011 106C37.7011 106 38.2985 105.733 38.6931 105.2C39.0878 104.661 39.2851 103.912 39.2851 102.952C39.2851 101.987 39.0878 101.235 38.6931 100.696C38.2985 100.157 37.7011 99.888 36.9011 99.888C36.4958 99.888 36.1438 99.9573 35.8451 100.096C35.5465 100.235 35.2958 100.435 35.0931 100.696C34.8958 100.957 34.7465 101.28 34.6451 101.664C34.5491 102.043 34.5011 102.472 34.5011 102.952C34.5011 103.432 34.5491 103.861 34.6451 104.24C34.7465 104.619 34.8958 104.939 35.0931 105.2C35.2958 105.456 35.5465 105.653 35.8451 105.792C36.1438 105.931 36.4958 106 36.9011 106ZM42.5118 109.744V98.896H43.3598C43.5624 98.896 43.6904 98.9947 43.7438 99.192L43.8638 100.152C44.2104 99.7307 44.6051 99.392 45.0478 99.136C45.4958 98.88 46.0104 98.752 46.5918 98.752C47.0558 98.752 47.4771 98.8427 47.8558 99.024C48.2344 99.2 48.5571 99.464 48.8238 99.816C49.0904 100.163 49.2958 100.595 49.4398 101.112C49.5838 101.629 49.6558 102.224 49.6558 102.896C49.6558 103.493 49.5758 104.051 49.4158 104.568C49.2558 105.08 49.0264 105.525 48.7278 105.904C48.4291 106.277 48.0611 106.573 47.6238 106.792C47.1918 107.005 46.7038 107.112 46.1598 107.112C45.6584 107.112 45.2291 107.029 44.8718 106.864C44.5198 106.699 44.2078 106.464 43.9358 106.16V109.744H42.5118ZM46.1198 99.904C45.6558 99.904 45.2478 100.011 44.8958 100.224C44.5491 100.437 44.2291 100.739 43.9358 101.128V105.048C44.1971 105.4 44.4824 105.648 44.7918 105.792C45.1064 105.936 45.4558 106.008 45.8398 106.008C46.5918 106.008 47.1704 105.739 47.5758 105.2C47.9811 104.661 48.1838 103.893 48.1838 102.896C48.1838 102.368 48.1358 101.915 48.0398 101.536C47.9491 101.157 47.8158 100.848 47.6398 100.608C47.4638 100.363 47.2478 100.184 46.9918 100.072C46.7358 99.96 46.4451 99.904 46.1198 99.904ZM29.328 140.272C29.328 141.131 29.192 141.912 28.92 142.616C28.648 143.32 28.264 143.923 27.768 144.424C27.272 144.925 26.6773 145.315 25.984 145.592C25.2907 145.864 24.5227 146 23.68 146H19.392V134.536H23.68C24.5227 134.536 25.2907 134.675 25.984 134.952C26.6773 135.224 27.272 135.613 27.768 136.12C28.264 136.621 28.648 137.224 28.92 137.928C29.192 138.632 29.328 139.413 29.328 140.272ZM27.736 140.272C27.736 139.568 27.64 138.939 27.448 138.384C27.256 137.829 26.984 137.36 26.632 136.976C26.28 136.592 25.8533 136.299 25.352 136.096C24.8507 135.893 24.2933 135.792 23.68 135.792H20.952V144.744H23.68C24.2933 144.744 24.8507 144.643 25.352 144.44C25.8533 144.237 26.28 143.947 26.632 143.568C26.984 143.184 27.256 142.715 27.448 142.16C27.64 141.605 27.736 140.976 27.736 140.272ZM34.4229 137.768C34.9082 137.768 35.3562 137.851 35.7669 138.016C36.1775 138.176 36.5322 138.411 36.8309 138.72C37.1295 139.024 37.3615 139.403 37.5269 139.856C37.6975 140.304 37.7829 140.816 37.7829 141.392C37.7829 141.616 37.7589 141.765 37.7109 141.84C37.6629 141.915 37.5722 141.952 37.4389 141.952H32.0469C32.0575 142.464 32.1269 142.909 32.2549 143.288C32.3829 143.667 32.5589 143.984 32.7829 144.24C33.0069 144.491 33.2735 144.68 33.5829 144.808C33.8922 144.931 34.2389 144.992 34.6229 144.992C34.9802 144.992 35.2869 144.952 35.5429 144.872C35.8042 144.787 36.0282 144.696 36.2149 144.6C36.4015 144.504 36.5562 144.416 36.6789 144.336C36.8069 144.251 36.9162 144.208 37.0069 144.208C37.1242 144.208 37.2149 144.253 37.2789 144.344L37.6789 144.864C37.5029 145.077 37.2922 145.264 37.0469 145.424C36.8015 145.579 36.5375 145.707 36.2549 145.808C35.9775 145.909 35.6895 145.984 35.3909 146.032C35.0922 146.085 34.7962 146.112 34.5029 146.112C33.9429 146.112 33.4255 146.019 32.9509 145.832C32.4815 145.64 32.0735 145.363 31.7269 145C31.3855 144.632 31.1189 144.179 30.9269 143.64C30.7349 143.101 30.6389 142.483 30.6389 141.784C30.6389 141.219 30.7242 140.691 30.8949 140.2C31.0709 139.709 31.3215 139.285 31.6469 138.928C31.9722 138.565 32.3695 138.283 32.8389 138.08C33.3082 137.872 33.8362 137.768 34.4229 137.768ZM34.4549 138.816C33.7669 138.816 33.2255 139.016 32.8309 139.416C32.4362 139.811 32.1909 140.36 32.0949 141.064H36.5029C36.5029 140.733 36.4575 140.432 36.3669 140.16C36.2762 139.883 36.1429 139.645 35.9669 139.448C35.7909 139.245 35.5749 139.091 35.3189 138.984C35.0682 138.872 34.7802 138.816 34.4549 138.816ZM41.1895 134.216V146H39.7655V134.216H41.1895ZM46.9073 137.768C47.3926 137.768 47.8406 137.851 48.2513 138.016C48.6619 138.176 49.0166 138.411 49.3153 138.72C49.6139 139.024 49.8459 139.403 50.0113 139.856C50.1819 140.304 50.2673 140.816 50.2673 141.392C50.2673 141.616 50.2433 141.765 50.1953 141.84C50.1473 141.915 50.0566 141.952 49.9233 141.952H44.5312C44.5419 142.464 44.6113 142.909 44.7393 143.288C44.8673 143.667 45.0433 143.984 45.2673 144.24C45.4913 144.491 45.7579 144.68 46.0673 144.808C46.3766 144.931 46.7233 144.992 47.1073 144.992C47.4646 144.992 47.7713 144.952 48.0273 144.872C48.2886 144.787 48.5126 144.696 48.6993 144.6C48.8859 144.504 49.0406 144.416 49.1633 144.336C49.2913 144.251 49.4006 144.208 49.4913 144.208C49.6086 144.208 49.6993 144.253 49.7633 144.344L50.1633 144.864C49.9873 145.077 49.7766 145.264 49.5313 145.424C49.2859 145.579 49.0219 145.707 48.7393 145.808C48.4619 145.909 48.1739 145.984 47.8753 146.032C47.5766 146.085 47.2806 146.112 46.9873 146.112C46.4273 146.112 45.9099 146.019 45.4353 145.832C44.9659 145.64 44.5579 145.363 44.2113 145C43.8699 144.632 43.6033 144.179 43.4113 143.64C43.2193 143.101 43.1233 142.483 43.1233 141.784C43.1233 141.219 43.2086 140.691 43.3793 140.2C43.5553 139.709 43.8059 139.285 44.1313 138.928C44.4566 138.565 44.8539 138.283 45.3233 138.08C45.7926 137.872 46.3206 137.768 46.9073 137.768ZM46.9392 138.816C46.2513 138.816 45.7099 139.016 45.3153 139.416C44.9206 139.811 44.6753 140.36 44.5793 141.064H48.9873C48.9873 140.733 48.9419 140.432 48.8513 140.16C48.7606 139.883 48.6273 139.645 48.4513 139.448C48.2753 139.245 48.0593 139.091 47.8033 138.984C47.5526 138.872 47.2646 138.816 46.9392 138.816ZM54.5459 146.128C53.9059 146.128 53.4125 145.949 53.0659 145.592C52.7245 145.235 52.5539 144.72 52.5539 144.048V139.088H51.5779C51.4925 139.088 51.4205 139.064 51.3619 139.016C51.3032 138.963 51.2739 138.883 51.2739 138.776V138.208L52.6019 138.04L52.9299 135.536C52.9405 135.456 52.9752 135.392 53.0339 135.344C53.0925 135.291 53.1672 135.264 53.2579 135.264H53.9779V138.056H56.2979V139.088H53.9779V143.952C53.9779 144.293 54.0605 144.547 54.2259 144.712C54.3912 144.877 54.6045 144.96 54.8659 144.96C55.0152 144.96 55.1432 144.941 55.2499 144.904C55.3619 144.861 55.4579 144.816 55.5379 144.768C55.6179 144.72 55.6845 144.677 55.7379 144.64C55.7965 144.597 55.8472 144.576 55.8899 144.576C55.9645 144.576 56.0312 144.621 56.0899 144.712L56.5059 145.392C56.2605 145.621 55.9645 145.803 55.6179 145.936C55.2712 146.064 54.9139 146.128 54.5459 146.128ZM61.2666 137.768C61.752 137.768 62.2 137.851 62.6106 138.016C63.0213 138.176 63.376 138.411 63.6746 138.72C63.9733 139.024 64.2053 139.403 64.3706 139.856C64.5413 140.304 64.6266 140.816 64.6266 141.392C64.6266 141.616 64.6026 141.765 64.5546 141.84C64.5066 141.915 64.416 141.952 64.2826 141.952H58.8906C58.9013 142.464 58.9706 142.909 59.0986 143.288C59.2266 143.667 59.4026 143.984 59.6266 144.24C59.8506 144.491 60.1173 144.68 60.4266 144.808C60.736 144.931 61.0826 144.992 61.4666 144.992C61.824 144.992 62.1306 144.952 62.3866 144.872C62.648 144.787 62.872 144.696 63.0586 144.6C63.2453 144.504 63.4 144.416 63.5226 144.336C63.6506 144.251 63.76 144.208 63.8506 144.208C63.968 144.208 64.0586 144.253 64.1226 144.344L64.5226 144.864C64.3466 145.077 64.136 145.264 63.8906 145.424C63.6453 145.579 63.3813 145.707 63.0986 145.808C62.8213 145.909 62.5333 145.984 62.2346 146.032C61.936 146.085 61.64 146.112 61.3466 146.112C60.7866 146.112 60.2693 146.019 59.7946 145.832C59.3253 145.64 58.9173 145.363 58.5706 145C58.2293 144.632 57.9626 144.179 57.7706 143.64C57.5786 143.101 57.4826 142.483 57.4826 141.784C57.4826 141.219 57.568 140.691 57.7386 140.2C57.9146 139.709 58.1653 139.285 58.4906 138.928C58.816 138.565 59.2133 138.283 59.6826 138.08C60.152 137.872 60.68 137.768 61.2666 137.768ZM61.2986 138.816C60.6106 138.816 60.0693 139.016 59.6746 139.416C59.28 139.811 59.0346 140.36 58.9386 141.064H63.3466C63.3466 140.733 63.3013 140.432 63.2106 140.16C63.12 139.883 62.9866 139.645 62.8106 139.448C62.6346 139.245 62.4186 139.091 62.1626 138.984C61.912 138.872 61.624 138.816 61.2986 138.816Z" fill="black"/>
<rect x="0.5" y="0.5" width="172" height="163" rx="3.5" stroke="#D8D8D8"/>
<line y1="120.5" x2="173" y2="120.5" stroke="#D8D8D8"/>
</svg>
