<svg width="403" height="262" viewBox="0 0 403 262" fill="none" xmlns="http://www.w3.org/2000/svg">
<rect width="403" height="262" fill="white"/>
<rect x="24.5" y="73.5" width="354" height="128" rx="3.5" stroke="#D8D8D8"/>
<path d="M41.752 111.896V120.6C41.752 120.925 41.7093 121.227 41.624 121.504C41.5387 121.787 41.4027 122.032 41.216 122.24C41.0347 122.448 40.7973 122.611 40.504 122.728C40.216 122.851 39.8693 122.912 39.464 122.912C39.288 122.912 39.128 122.899 38.984 122.872C38.84 122.845 38.696 122.805 38.552 122.752L38.616 121.984C38.6267 121.915 38.6507 121.869 38.688 121.848C38.7253 121.832 38.784 121.824 38.864 121.824C38.9067 121.824 38.952 121.824 39 121.824C39.048 121.829 39.1067 121.832 39.176 121.832C39.592 121.832 39.888 121.733 40.064 121.536C40.24 121.344 40.328 121.032 40.328 120.6V111.896H41.752ZM42.072 109.352C42.072 109.491 42.0427 109.621 41.984 109.744C41.9307 109.861 41.856 109.968 41.76 110.064C41.6693 110.155 41.5627 110.227 41.44 110.28C41.3173 110.333 41.1867 110.36 41.048 110.36C40.9093 110.36 40.7787 110.333 40.656 110.28C40.5387 110.227 40.432 110.155 40.336 110.064C40.2453 109.968 40.1733 109.861 40.12 109.744C40.0667 109.621 40.04 109.491 40.04 109.352C40.04 109.213 40.0667 109.083 40.12 108.96C40.1733 108.832 40.2453 108.723 40.336 108.632C40.432 108.536 40.5387 108.461 40.656 108.408C40.7787 108.355 40.9093 108.328 41.048 108.328C41.1867 108.328 41.3173 108.355 41.44 108.408C41.5627 108.461 41.6693 108.536 41.76 108.632C41.856 108.723 41.9307 108.832 41.984 108.96C42.0427 109.083 42.072 109.213 42.072 109.352ZM47.5105 111.768C48.1025 111.768 48.6358 111.867 49.1105 112.064C49.5905 112.261 49.9958 112.541 50.3265 112.904C50.6625 113.267 50.9185 113.707 51.0945 114.224C51.2758 114.736 51.3665 115.309 51.3665 115.944C51.3665 116.584 51.2758 117.16 51.0945 117.672C50.9185 118.184 50.6625 118.621 50.3265 118.984C49.9958 119.347 49.5905 119.627 49.1105 119.824C48.6358 120.016 48.1025 120.112 47.5105 120.112C46.9185 120.112 46.3825 120.016 45.9025 119.824C45.4278 119.627 45.0225 119.347 44.6865 118.984C44.3505 118.621 44.0918 118.184 43.9105 117.672C43.7292 117.16 43.6385 116.584 43.6385 115.944C43.6385 115.309 43.7292 114.736 43.9105 114.224C44.0918 113.707 44.3505 113.267 44.6865 112.904C45.0225 112.541 45.4278 112.261 45.9025 112.064C46.3825 111.867 46.9185 111.768 47.5105 111.768ZM47.5105 119C48.3105 119 48.9078 118.733 49.3025 118.2C49.6972 117.661 49.8945 116.912 49.8945 115.952C49.8945 114.987 49.6972 114.235 49.3025 113.696C48.9078 113.157 48.3105 112.888 47.5105 112.888C47.1052 112.888 46.7532 112.957 46.4545 113.096C46.1558 113.235 45.9052 113.435 45.7025 113.696C45.5052 113.957 45.3558 114.28 45.2545 114.664C45.1585 115.043 45.1105 115.472 45.1105 115.952C45.1105 116.432 45.1585 116.861 45.2545 117.24C45.3558 117.619 45.5052 117.939 45.7025 118.2C45.9052 118.456 46.1558 118.653 46.4545 118.792C46.7532 118.931 47.1052 119 47.5105 119ZM53.1211 120V108.216H54.5451V112.984C54.8918 112.616 55.2758 112.323 55.6971 112.104C56.1185 111.88 56.6038 111.768 57.1531 111.768C57.5958 111.768 57.9851 111.843 58.3211 111.992C58.6625 112.136 58.9451 112.344 59.1691 112.616C59.3985 112.883 59.5718 113.205 59.6891 113.584C59.8065 113.963 59.8651 114.381 59.8651 114.84V120H58.4411V114.84C58.4411 114.227 58.2998 113.752 58.0171 113.416C57.7398 113.075 57.3131 112.904 56.7371 112.904C56.3158 112.904 55.9211 113.005 55.5531 113.208C55.1905 113.411 54.8545 113.685 54.5451 114.032V120H53.1211ZM62.0118 120V111.896H62.8598C63.0624 111.896 63.1904 111.995 63.2438 112.192L63.3558 113.072C63.7078 112.683 64.0998 112.368 64.5318 112.128C64.9691 111.888 65.4731 111.768 66.0438 111.768C66.4864 111.768 66.8758 111.843 67.2118 111.992C67.5531 112.136 67.8358 112.344 68.0598 112.616C68.2891 112.883 68.4624 113.205 68.5798 113.584C68.6971 113.963 68.7558 114.381 68.7558 114.84V120H67.3318V114.84C67.3318 114.227 67.1904 113.752 66.9078 113.416C66.6304 113.075 66.2038 112.904 65.6278 112.904C65.2064 112.904 64.8118 113.005 64.4438 113.208C64.0811 113.411 63.7451 113.685 63.4358 114.032V120H62.0118ZM70.4384 119.12C70.4384 118.981 70.4624 118.851 70.5104 118.728C70.5637 118.605 70.633 118.499 70.7184 118.408C70.809 118.317 70.9157 118.245 71.0384 118.192C71.161 118.139 71.2917 118.112 71.4304 118.112C71.569 118.112 71.6997 118.139 71.8224 118.192C71.945 118.245 72.0517 118.317 72.1424 118.408C72.233 118.499 72.3024 118.605 72.3504 118.728C72.4037 118.851 72.4304 118.981 72.4304 119.12C72.4304 119.264 72.4037 119.397 72.3504 119.52C72.3024 119.637 72.233 119.741 72.1424 119.832C72.0517 119.923 71.945 119.992 71.8224 120.04C71.6997 120.093 71.569 120.12 71.4304 120.12C71.2917 120.12 71.161 120.093 71.0384 120.04C70.9157 119.992 70.809 119.923 70.7184 119.832C70.633 119.741 70.5637 119.637 70.5104 119.52C70.4624 119.397 70.4384 119.264 70.4384 119.12ZM79.997 120C79.7943 120 79.6663 119.901 79.613 119.704L79.485 118.72C79.1383 119.141 78.741 119.48 78.293 119.736C77.8503 119.987 77.341 120.112 76.765 120.112C76.301 120.112 75.8797 120.024 75.501 119.848C75.1223 119.667 74.7997 119.403 74.533 119.056C74.2663 118.709 74.061 118.277 73.917 117.76C73.773 117.243 73.701 116.648 73.701 115.976C73.701 115.379 73.781 114.824 73.941 114.312C74.101 113.795 74.3303 113.347 74.629 112.968C74.933 112.589 75.301 112.293 75.733 112.08C76.165 111.861 76.6557 111.752 77.205 111.752C77.701 111.752 78.125 111.837 78.477 112.008C78.829 112.173 79.1437 112.408 79.421 112.712V108.216H80.845V120H79.997ZM77.237 118.96C77.701 118.96 78.1063 118.853 78.453 118.64C78.805 118.427 79.1277 118.125 79.421 117.736V113.816C79.1597 113.464 78.8717 113.219 78.557 113.08C78.2477 112.936 77.9037 112.864 77.525 112.864C76.7677 112.864 76.1863 113.133 75.781 113.672C75.3757 114.211 75.173 114.979 75.173 115.976C75.173 116.504 75.2183 116.957 75.309 117.336C75.3997 117.709 75.533 118.019 75.709 118.264C75.885 118.504 76.101 118.68 76.357 118.792C76.613 118.904 76.9063 118.96 77.237 118.96ZM86.5105 111.768C87.1025 111.768 87.6358 111.867 88.1105 112.064C88.5905 112.261 88.9958 112.541 89.3265 112.904C89.6625 113.267 89.9185 113.707 90.0945 114.224C90.2758 114.736 90.3665 115.309 90.3665 115.944C90.3665 116.584 90.2758 117.16 90.0945 117.672C89.9185 118.184 89.6625 118.621 89.3265 118.984C88.9958 119.347 88.5905 119.627 88.1105 119.824C87.6358 120.016 87.1025 120.112 86.5105 120.112C85.9185 120.112 85.3825 120.016 84.9025 119.824C84.4278 119.627 84.0225 119.347 83.6865 118.984C83.3505 118.621 83.0918 118.184 82.9105 117.672C82.7292 117.16 82.6385 116.584 82.6385 115.944C82.6385 115.309 82.7292 114.736 82.9105 114.224C83.0918 113.707 83.3505 113.267 83.6865 112.904C84.0225 112.541 84.4278 112.261 84.9025 112.064C85.3825 111.867 85.9185 111.768 86.5105 111.768ZM86.5105 119C87.3105 119 87.9078 118.733 88.3025 118.2C88.6972 117.661 88.8945 116.912 88.8945 115.952C88.8945 114.987 88.6972 114.235 88.3025 113.696C87.9078 113.157 87.3105 112.888 86.5105 112.888C86.1052 112.888 85.7532 112.957 85.4545 113.096C85.1558 113.235 84.9052 113.435 84.7025 113.696C84.5052 113.957 84.3558 114.28 84.2545 114.664C84.1585 115.043 84.1105 115.472 84.1105 115.952C84.1105 116.432 84.1585 116.861 84.2545 117.24C84.3558 117.619 84.5052 117.939 84.7025 118.2C84.9052 118.456 85.1558 118.653 85.4545 118.792C85.7532 118.931 86.1052 119 86.5105 119ZM95.3291 111.768C95.8145 111.768 96.2625 111.851 96.6731 112.016C97.0838 112.176 97.4385 112.411 97.7371 112.72C98.0358 113.024 98.2678 113.403 98.4331 113.856C98.6038 114.304 98.6891 114.816 98.6891 115.392C98.6891 115.616 98.6651 115.765 98.6171 115.84C98.5691 115.915 98.4785 115.952 98.3451 115.952H92.9531C92.9638 116.464 93.0331 116.909 93.1611 117.288C93.2891 117.667 93.4651 117.984 93.6891 118.24C93.9131 118.491 94.1798 118.68 94.4891 118.808C94.7985 118.931 95.1451 118.992 95.5291 118.992C95.8865 118.992 96.1931 118.952 96.4491 118.872C96.7105 118.787 96.9345 118.696 97.1211 118.6C97.3078 118.504 97.4625 118.416 97.5851 118.336C97.7131 118.251 97.8225 118.208 97.9131 118.208C98.0305 118.208 98.1211 118.253 98.1851 118.344L98.5851 118.864C98.4091 119.077 98.1985 119.264 97.9531 119.424C97.7078 119.579 97.4438 119.707 97.1611 119.808C96.8838 119.909 96.5958 119.984 96.2971 120.032C95.9985 120.085 95.7025 120.112 95.4091 120.112C94.8491 120.112 94.3318 120.019 93.8571 119.832C93.3878 119.64 92.9798 119.363 92.6331 119C92.2918 118.632 92.0251 118.179 91.8331 117.64C91.6411 117.101 91.5451 116.483 91.5451 115.784C91.5451 115.219 91.6305 114.691 91.8011 114.2C91.9771 113.709 92.2278 113.285 92.5531 112.928C92.8785 112.565 93.2758 112.283 93.7451 112.08C94.2145 111.872 94.7425 111.768 95.3291 111.768ZM95.3611 112.816C94.6731 112.816 94.1318 113.016 93.7371 113.416C93.3425 113.811 93.0971 114.36 93.0011 115.064H97.4091C97.4091 114.733 97.3638 114.432 97.2731 114.16C97.1825 113.883 97.0491 113.645 96.8731 113.448C96.6971 113.245 96.4811 113.091 96.2251 112.984C95.9745 112.872 95.6865 112.816 95.3611 112.816ZM108.68 118.512C108.264 118.512 107.925 118.413 107.664 118.216C107.402 118.013 107.237 117.704 107.168 117.288C106.858 117.72 106.522 118.029 106.16 118.216C105.797 118.403 105.408 118.496 104.992 118.496C104.672 118.496 104.394 118.443 104.16 118.336C103.925 118.224 103.728 118.072 103.568 117.88C103.413 117.683 103.296 117.451 103.216 117.184C103.141 116.917 103.104 116.629 103.104 116.32C103.104 115.867 103.189 115.411 103.36 114.952C103.536 114.488 103.794 114.072 104.136 113.704C104.477 113.331 104.901 113.027 105.408 112.792C105.92 112.557 106.509 112.44 107.176 112.44C107.533 112.44 107.845 112.469 108.112 112.528C108.384 112.581 108.64 112.661 108.88 112.768L108.136 115.656C108.034 116.056 107.984 116.387 107.984 116.648C107.984 116.84 108.008 117 108.056 117.128C108.104 117.251 108.168 117.349 108.248 117.424C108.333 117.493 108.429 117.541 108.536 117.568C108.648 117.595 108.765 117.608 108.888 117.608C109.149 117.608 109.397 117.533 109.632 117.384C109.866 117.235 110.072 117.024 110.248 116.752C110.429 116.48 110.57 116.155 110.672 115.776C110.778 115.392 110.832 114.968 110.832 114.504C110.832 113.768 110.712 113.123 110.472 112.568C110.237 112.013 109.912 111.552 109.496 111.184C109.085 110.811 108.597 110.533 108.032 110.352C107.472 110.165 106.866 110.072 106.216 110.072C105.501 110.072 104.832 110.208 104.208 110.48C103.584 110.752 103.04 111.128 102.576 111.608C102.112 112.088 101.746 112.656 101.48 113.312C101.213 113.968 101.08 114.683 101.08 115.456C101.08 116.363 101.221 117.16 101.504 117.848C101.792 118.531 102.181 119.104 102.672 119.568C103.168 120.032 103.746 120.381 104.408 120.616C105.074 120.851 105.789 120.968 106.552 120.968C107.362 120.968 108.077 120.88 108.696 120.704C109.32 120.528 109.858 120.304 110.312 120.032C110.392 119.984 110.464 119.96 110.528 119.96C110.64 119.96 110.722 120.024 110.776 120.152L110.976 120.68C110.405 121.064 109.754 121.365 109.024 121.584C108.298 121.803 107.474 121.912 106.552 121.912C105.629 121.912 104.77 121.765 103.976 121.472C103.181 121.179 102.49 120.755 101.904 120.2C101.322 119.651 100.864 118.976 100.528 118.176C100.197 117.376 100.032 116.469 100.032 115.456C100.032 114.875 100.104 114.315 100.248 113.776C100.397 113.237 100.605 112.736 100.872 112.272C101.138 111.803 101.458 111.376 101.832 110.992C102.205 110.603 102.621 110.272 103.08 110C103.538 109.723 104.032 109.509 104.56 109.36C105.088 109.205 105.64 109.128 106.216 109.128C106.706 109.128 107.186 109.181 107.656 109.288C108.125 109.395 108.568 109.552 108.984 109.76C109.405 109.968 109.792 110.227 110.144 110.536C110.496 110.84 110.797 111.192 111.048 111.592C111.304 111.987 111.501 112.429 111.64 112.92C111.784 113.405 111.856 113.933 111.856 114.504C111.856 115.08 111.773 115.613 111.608 116.104C111.448 116.589 111.224 117.011 110.936 117.368C110.653 117.725 110.317 118.005 109.928 118.208C109.544 118.411 109.128 118.512 108.68 118.512ZM105.272 117.552C105.437 117.552 105.602 117.525 105.768 117.472C105.938 117.419 106.101 117.325 106.256 117.192C106.416 117.059 106.56 116.877 106.688 116.648C106.821 116.419 106.933 116.131 107.024 115.784L107.632 113.424C107.424 113.376 107.197 113.352 106.952 113.352C106.552 113.352 106.184 113.437 105.848 113.608C105.517 113.773 105.232 113.992 104.992 114.264C104.752 114.536 104.562 114.848 104.424 115.2C104.29 115.552 104.224 115.912 104.224 116.28C104.224 116.664 104.312 116.973 104.488 117.208C104.664 117.437 104.925 117.552 105.272 117.552ZM112.612 111.896H113.732C113.849 111.896 113.945 111.925 114.02 111.984C114.095 112.043 114.145 112.112 114.172 112.192L115.724 117.408C115.767 117.6 115.807 117.787 115.844 117.968C115.881 118.144 115.913 118.323 115.94 118.504C115.983 118.323 116.031 118.144 116.084 117.968C116.137 117.787 116.193 117.6 116.252 117.408L117.964 112.16C117.991 112.08 118.036 112.013 118.1 111.96C118.169 111.907 118.255 111.88 118.356 111.88H118.972C119.079 111.88 119.167 111.907 119.236 111.96C119.305 112.013 119.353 112.08 119.38 112.16L121.052 117.408C121.111 117.595 121.161 117.779 121.204 117.96C121.252 118.141 121.297 118.32 121.34 118.496C121.367 118.32 121.401 118.136 121.444 117.944C121.487 117.752 121.532 117.573 121.58 117.408L123.164 112.192C123.191 112.107 123.241 112.037 123.316 111.984C123.391 111.925 123.479 111.896 123.58 111.896H124.652L122.028 120H120.9C120.761 120 120.665 119.909 120.612 119.728L118.82 114.232C118.777 114.109 118.743 113.987 118.716 113.864C118.689 113.736 118.663 113.611 118.636 113.488C118.609 113.611 118.583 113.736 118.556 113.864C118.529 113.992 118.495 114.117 118.452 114.24L116.636 119.728C116.577 119.909 116.468 120 116.308 120H115.236L112.612 111.896ZM129.126 111.768C129.611 111.768 130.059 111.851 130.47 112.016C130.881 112.176 131.235 112.411 131.534 112.72C131.833 113.024 132.065 113.403 132.23 113.856C132.401 114.304 132.486 114.816 132.486 115.392C132.486 115.616 132.462 115.765 132.414 115.84C132.366 115.915 132.275 115.952 132.142 115.952H126.75C126.761 116.464 126.83 116.909 126.958 117.288C127.086 117.667 127.262 117.984 127.486 118.24C127.71 118.491 127.977 118.68 128.286 118.808C128.595 118.931 128.942 118.992 129.326 118.992C129.683 118.992 129.99 118.952 130.246 118.872C130.507 118.787 130.731 118.696 130.918 118.6C131.105 118.504 131.259 118.416 131.382 118.336C131.51 118.251 131.619 118.208 131.71 118.208C131.827 118.208 131.918 118.253 131.982 118.344L132.382 118.864C132.206 119.077 131.995 119.264 131.75 119.424C131.505 119.579 131.241 119.707 130.958 119.808C130.681 119.909 130.393 119.984 130.094 120.032C129.795 120.085 129.499 120.112 129.206 120.112C128.646 120.112 128.129 120.019 127.654 119.832C127.185 119.64 126.777 119.363 126.43 119C126.089 118.632 125.822 118.179 125.63 117.64C125.438 117.101 125.342 116.483 125.342 115.784C125.342 115.219 125.427 114.691 125.598 114.2C125.774 113.709 126.025 113.285 126.35 112.928C126.675 112.565 127.073 112.283 127.542 112.08C128.011 111.872 128.539 111.768 129.126 111.768ZM129.158 112.816C128.47 112.816 127.929 113.016 127.534 113.416C127.139 113.811 126.894 114.36 126.798 115.064H131.206C131.206 114.733 131.161 114.432 131.07 114.16C130.979 113.883 130.846 113.645 130.67 113.448C130.494 113.245 130.278 113.091 130.022 112.984C129.771 112.872 129.483 112.816 129.158 112.816ZM134.309 120V111.896H135.125C135.279 111.896 135.386 111.925 135.445 111.984C135.503 112.043 135.543 112.144 135.565 112.288L135.661 113.552C135.938 112.987 136.279 112.547 136.685 112.232C137.095 111.912 137.575 111.752 138.125 111.752C138.349 111.752 138.551 111.779 138.733 111.832C138.914 111.88 139.082 111.949 139.237 112.04L139.053 113.104C139.015 113.237 138.933 113.304 138.805 113.304C138.73 113.304 138.615 113.28 138.461 113.232C138.306 113.179 138.09 113.152 137.813 113.152C137.317 113.152 136.901 113.296 136.565 113.584C136.234 113.872 135.957 114.291 135.733 114.84V120H134.309ZM141.082 120V113.112L140.186 113.008C140.074 112.981 139.98 112.941 139.906 112.888C139.836 112.829 139.802 112.747 139.802 112.64V112.056H141.082V111.272C141.082 110.808 141.146 110.397 141.274 110.04C141.407 109.677 141.594 109.373 141.834 109.128C142.079 108.877 142.372 108.688 142.714 108.56C143.055 108.432 143.439 108.368 143.866 108.368C144.228 108.368 144.564 108.421 144.874 108.528L144.842 109.24C144.836 109.347 144.791 109.411 144.706 109.432C144.62 109.453 144.5 109.464 144.346 109.464H144.098C143.852 109.464 143.628 109.496 143.426 109.56C143.228 109.624 143.058 109.728 142.914 109.872C142.77 110.016 142.658 110.205 142.578 110.44C142.503 110.675 142.466 110.965 142.466 111.312V112.056H144.81V113.088H142.514V120H141.082ZM149.36 111.768C149.846 111.768 150.294 111.851 150.704 112.016C151.115 112.176 151.47 112.411 151.768 112.72C152.067 113.024 152.299 113.403 152.464 113.856C152.635 114.304 152.72 114.816 152.72 115.392C152.72 115.616 152.696 115.765 152.648 115.84C152.6 115.915 152.51 115.952 152.376 115.952H146.984C146.995 116.464 147.064 116.909 147.192 117.288C147.32 117.667 147.496 117.984 147.72 118.24C147.944 118.491 148.211 118.68 148.52 118.808C148.83 118.931 149.176 118.992 149.56 118.992C149.918 118.992 150.224 118.952 150.48 118.872C150.742 118.787 150.966 118.696 151.152 118.6C151.339 118.504 151.494 118.416 151.616 118.336C151.744 118.251 151.854 118.208 151.944 118.208C152.062 118.208 152.152 118.253 152.216 118.344L152.616 118.864C152.44 119.077 152.23 119.264 151.984 119.424C151.739 119.579 151.475 119.707 151.192 119.808C150.915 119.909 150.627 119.984 150.328 120.032C150.03 120.085 149.734 120.112 149.44 120.112C148.88 120.112 148.363 120.019 147.888 119.832C147.419 119.64 147.011 119.363 146.664 119C146.323 118.632 146.056 118.179 145.864 117.64C145.672 117.101 145.576 116.483 145.576 115.784C145.576 115.219 145.662 114.691 145.832 114.2C146.008 113.709 146.259 113.285 146.584 112.928C146.91 112.565 147.307 112.283 147.776 112.08C148.246 111.872 148.774 111.768 149.36 111.768ZM149.392 112.816C148.704 112.816 148.163 113.016 147.768 113.416C147.374 113.811 147.128 114.36 147.032 115.064H151.44C151.44 114.733 151.395 114.432 151.304 114.16C151.214 113.883 151.08 113.645 150.904 113.448C150.728 113.245 150.512 113.091 150.256 112.984C150.006 112.872 149.718 112.816 149.392 112.816ZM154.543 120V111.896H155.391C155.594 111.896 155.722 111.995 155.775 112.192L155.887 113.072C156.239 112.683 156.631 112.368 157.063 112.128C157.5 111.888 158.004 111.768 158.575 111.768C159.018 111.768 159.407 111.843 159.743 111.992C160.084 112.136 160.367 112.344 160.591 112.616C160.82 112.883 160.994 113.205 161.111 113.584C161.228 113.963 161.287 114.381 161.287 114.84V120H159.863V114.84C159.863 114.227 159.722 113.752 159.439 113.416C159.162 113.075 158.735 112.904 158.159 112.904C157.738 112.904 157.343 113.005 156.975 113.208C156.612 113.411 156.276 113.685 155.967 114.032V120H154.543ZM162.97 119.12C162.97 118.981 162.994 118.851 163.042 118.728C163.095 118.605 163.164 118.499 163.25 118.408C163.34 118.317 163.447 118.245 163.57 118.192C163.692 118.139 163.823 118.112 163.962 118.112C164.1 118.112 164.231 118.139 164.354 118.192C164.476 118.245 164.583 118.317 164.674 118.408C164.764 118.499 164.834 118.605 164.882 118.728C164.935 118.851 164.962 118.981 164.962 119.12C164.962 119.264 164.935 119.397 164.882 119.52C164.834 119.637 164.764 119.741 164.674 119.832C164.583 119.923 164.476 119.992 164.354 120.04C164.231 120.093 164.1 120.12 163.962 120.12C163.823 120.12 163.692 120.093 163.57 120.04C163.447 119.992 163.34 119.923 163.25 119.832C163.164 119.741 163.095 119.637 163.042 119.52C162.994 119.397 162.97 119.264 162.97 119.12ZM172.352 113.336C172.31 113.395 172.267 113.44 172.224 113.472C172.182 113.504 172.12 113.52 172.04 113.52C171.96 113.52 171.872 113.488 171.776 113.424C171.686 113.355 171.568 113.28 171.424 113.2C171.28 113.12 171.104 113.048 170.896 112.984C170.694 112.915 170.443 112.88 170.144 112.88C169.75 112.88 169.4 112.952 169.096 113.096C168.792 113.235 168.536 113.437 168.328 113.704C168.126 113.971 167.971 114.293 167.864 114.672C167.763 115.051 167.712 115.475 167.712 115.944C167.712 116.435 167.768 116.872 167.88 117.256C167.992 117.635 168.15 117.955 168.352 118.216C168.555 118.472 168.8 118.669 169.088 118.808C169.382 118.941 169.71 119.008 170.072 119.008C170.419 119.008 170.704 118.968 170.928 118.888C171.152 118.803 171.339 118.709 171.488 118.608C171.638 118.507 171.76 118.416 171.856 118.336C171.952 118.251 172.048 118.208 172.144 118.208C172.267 118.208 172.358 118.253 172.416 118.344L172.816 118.864C172.464 119.296 172.024 119.613 171.496 119.816C170.968 120.013 170.411 120.112 169.824 120.112C169.318 120.112 168.846 120.019 168.408 119.832C167.976 119.645 167.6 119.376 167.28 119.024C166.96 118.667 166.707 118.229 166.52 117.712C166.339 117.195 166.248 116.605 166.248 115.944C166.248 115.341 166.331 114.784 166.496 114.272C166.667 113.76 166.912 113.32 167.232 112.952C167.558 112.579 167.958 112.288 168.432 112.08C168.907 111.872 169.451 111.768 170.064 111.768C170.63 111.768 171.131 111.861 171.568 112.048C172.006 112.229 172.392 112.488 172.728 112.824L172.352 113.336ZM177.573 111.768C178.165 111.768 178.698 111.867 179.173 112.064C179.653 112.261 180.058 112.541 180.389 112.904C180.725 113.267 180.981 113.707 181.157 114.224C181.338 114.736 181.429 115.309 181.429 115.944C181.429 116.584 181.338 117.16 181.157 117.672C180.981 118.184 180.725 118.621 180.389 118.984C180.058 119.347 179.653 119.627 179.173 119.824C178.698 120.016 178.165 120.112 177.573 120.112C176.981 120.112 176.445 120.016 175.965 119.824C175.49 119.627 175.085 119.347 174.749 118.984C174.413 118.621 174.154 118.184 173.973 117.672C173.792 117.16 173.701 116.584 173.701 115.944C173.701 115.309 173.792 114.736 173.973 114.224C174.154 113.707 174.413 113.267 174.749 112.904C175.085 112.541 175.49 112.261 175.965 112.064C176.445 111.867 176.981 111.768 177.573 111.768ZM177.573 119C178.373 119 178.97 118.733 179.365 118.2C179.76 117.661 179.957 116.912 179.957 115.952C179.957 114.987 179.76 114.235 179.365 113.696C178.97 113.157 178.373 112.888 177.573 112.888C177.168 112.888 176.816 112.957 176.517 113.096C176.218 113.235 175.968 113.435 175.765 113.696C175.568 113.957 175.418 114.28 175.317 114.664C175.221 115.043 175.173 115.472 175.173 115.952C175.173 116.432 175.221 116.861 175.317 117.24C175.418 117.619 175.568 117.939 175.765 118.2C175.968 118.456 176.218 118.653 176.517 118.792C176.816 118.931 177.168 119 177.573 119ZM183.184 120V111.896H184.032C184.234 111.896 184.362 111.995 184.416 112.192L184.52 113.024C184.818 112.656 185.152 112.355 185.52 112.12C185.893 111.885 186.325 111.768 186.816 111.768C187.365 111.768 187.808 111.92 188.144 112.224C188.485 112.528 188.73 112.939 188.88 113.456C188.992 113.163 189.138 112.909 189.32 112.696C189.506 112.483 189.714 112.307 189.944 112.168C190.173 112.029 190.416 111.928 190.672 111.864C190.933 111.8 191.197 111.768 191.464 111.768C191.89 111.768 192.269 111.837 192.6 111.976C192.936 112.109 193.218 112.307 193.448 112.568C193.682 112.829 193.861 113.152 193.984 113.536C194.106 113.915 194.168 114.349 194.168 114.84V120H192.744V114.84C192.744 114.205 192.605 113.725 192.328 113.4C192.05 113.069 191.648 112.904 191.12 112.904C190.885 112.904 190.661 112.947 190.448 113.032C190.24 113.112 190.056 113.232 189.896 113.392C189.736 113.552 189.608 113.755 189.512 114C189.421 114.24 189.376 114.52 189.376 114.84V120H187.952V114.84C187.952 114.189 187.821 113.704 187.56 113.384C187.298 113.064 186.917 112.904 186.416 112.904C186.064 112.904 185.736 113 185.432 113.192C185.133 113.379 184.858 113.635 184.608 113.96V120H183.184Z" fill="#979797"/>
<path d="M43.386 96.076C43.742 96.076 44.06 96.016 44.34 95.896C44.62 95.776 44.856 95.608 45.048 95.392C45.244 95.176 45.392 94.918 45.492 94.618C45.596 94.318 45.648 93.988 45.648 93.628V88.402H46.806V93.628C46.806 94.124 46.726 94.584 46.566 95.008C46.41 95.432 46.184 95.8 45.888 96.112C45.596 96.42 45.238 96.662 44.814 96.838C44.39 97.014 43.914 97.102 43.386 97.102C42.858 97.102 42.382 97.014 41.958 96.838C41.534 96.662 41.174 96.42 40.878 96.112C40.582 95.8 40.354 95.432 40.194 95.008C40.038 94.584 39.96 94.124 39.96 93.628V88.402H41.118V93.622C41.118 93.982 41.168 94.312 41.268 94.612C41.372 94.912 41.52 95.17 41.712 95.386C41.908 95.602 42.146 95.772 42.426 95.896C42.71 96.016 43.03 96.076 43.386 96.076ZM52.6216 91.924C52.5736 92.012 52.4996 92.056 52.3996 92.056C52.3396 92.056 52.2716 92.034 52.1956 91.99C52.1196 91.946 52.0256 91.898 51.9136 91.846C51.8056 91.79 51.6756 91.74 51.5236 91.696C51.3716 91.648 51.1916 91.624 50.9836 91.624C50.8036 91.624 50.6416 91.648 50.4976 91.696C50.3536 91.74 50.2296 91.802 50.1256 91.882C50.0256 91.962 49.9476 92.056 49.8916 92.164C49.8396 92.268 49.8136 92.382 49.8136 92.506C49.8136 92.662 49.8576 92.792 49.9456 92.896C50.0376 93 50.1576 93.09 50.3056 93.166C50.4536 93.242 50.6216 93.31 50.8096 93.37C50.9976 93.426 51.1896 93.488 51.3856 93.556C51.5856 93.62 51.7796 93.692 51.9676 93.772C52.1556 93.852 52.3236 93.952 52.4716 94.072C52.6196 94.192 52.7376 94.34 52.8256 94.516C52.9176 94.688 52.9636 94.896 52.9636 95.14C52.9636 95.42 52.9136 95.68 52.8136 95.92C52.7136 96.156 52.5656 96.362 52.3696 96.538C52.1736 96.71 51.9336 96.846 51.6496 96.946C51.3656 97.046 51.0376 97.096 50.6656 97.096C50.2416 97.096 49.8576 97.028 49.5136 96.892C49.1696 96.752 48.8776 96.574 48.6376 96.358L48.8896 95.95C48.9216 95.898 48.9596 95.858 49.0036 95.83C49.0476 95.802 49.1056 95.788 49.1776 95.788C49.2496 95.788 49.3256 95.816 49.4056 95.872C49.4856 95.928 49.5816 95.99 49.6936 96.058C49.8096 96.126 49.9476 96.188 50.1076 96.244C50.2716 96.3 50.4756 96.328 50.7196 96.328C50.9276 96.328 51.1096 96.302 51.2656 96.25C51.4216 96.194 51.5516 96.12 51.6556 96.028C51.7596 95.936 51.8356 95.83 51.8836 95.71C51.9356 95.59 51.9616 95.462 51.9616 95.326C51.9616 95.158 51.9156 95.02 51.8236 94.912C51.7356 94.8 51.6176 94.706 51.4696 94.63C51.3216 94.55 51.1516 94.482 50.9596 94.426C50.7716 94.366 50.5776 94.304 50.3776 94.24C50.1816 94.176 49.9876 94.104 49.7956 94.024C49.6076 93.94 49.4396 93.836 49.2916 93.712C49.1436 93.588 49.0236 93.436 48.9316 93.256C48.8436 93.072 48.7996 92.85 48.7996 92.59C48.7996 92.358 48.8476 92.136 48.9436 91.924C49.0396 91.708 49.1796 91.52 49.3636 91.36C49.5476 91.196 49.7736 91.066 50.0416 90.97C50.3096 90.874 50.6156 90.826 50.9596 90.826C51.3596 90.826 51.7176 90.89 52.0336 91.018C52.3536 91.142 52.6296 91.314 52.8616 91.534L52.6216 91.924ZM57.2508 90.826C57.6148 90.826 57.9508 90.888 58.2588 91.012C58.5668 91.132 58.8328 91.308 59.0568 91.54C59.2808 91.768 59.4548 92.052 59.5788 92.392C59.7068 92.728 59.7708 93.112 59.7708 93.544C59.7708 93.712 59.7528 93.824 59.7168 93.88C59.6808 93.936 59.6128 93.964 59.5128 93.964H55.4688C55.4768 94.348 55.5288 94.682 55.6248 94.966C55.7208 95.25 55.8528 95.488 56.0208 95.68C56.1888 95.868 56.3888 96.01 56.6208 96.106C56.8528 96.198 57.1128 96.244 57.4008 96.244C57.6688 96.244 57.8988 96.214 58.0908 96.154C58.2868 96.09 58.4548 96.022 58.5948 95.95C58.7348 95.878 58.8508 95.812 58.9428 95.752C59.0388 95.688 59.1208 95.656 59.1888 95.656C59.2768 95.656 59.3448 95.69 59.3928 95.758L59.6928 96.148C59.5608 96.308 59.4028 96.448 59.2188 96.568C59.0348 96.684 58.8368 96.78 58.6248 96.856C58.4168 96.932 58.2008 96.988 57.9768 97.024C57.7528 97.064 57.5308 97.084 57.3108 97.084C56.8908 97.084 56.5028 97.014 56.1468 96.874C55.7948 96.73 55.4888 96.522 55.2288 96.25C54.9728 95.974 54.7728 95.634 54.6288 95.23C54.4848 94.826 54.4128 94.362 54.4128 93.838C54.4128 93.414 54.4768 93.018 54.6048 92.65C54.7368 92.282 54.9248 91.964 55.1688 91.696C55.4128 91.424 55.7108 91.212 56.0628 91.06C56.4148 90.904 56.8108 90.826 57.2508 90.826ZM57.2747 91.612C56.7588 91.612 56.3528 91.762 56.0568 92.062C55.7608 92.358 55.5768 92.77 55.5048 93.298H58.8108C58.8108 93.05 58.7768 92.824 58.7088 92.62C58.6408 92.412 58.5408 92.234 58.4088 92.086C58.2768 91.934 58.1148 91.818 57.9228 91.738C57.7348 91.654 57.5188 91.612 57.2747 91.612ZM61.6377 97V90.922H62.2497C62.3657 90.922 62.4457 90.944 62.4897 90.988C62.5337 91.032 62.5637 91.108 62.5797 91.216L62.6517 92.164C62.8597 91.74 63.1157 91.41 63.4197 91.174C63.7277 90.934 64.0877 90.814 64.4997 90.814C64.6677 90.814 64.8197 90.834 64.9557 90.874C65.0917 90.91 65.2177 90.962 65.3337 91.03L65.1957 91.828C65.1677 91.928 65.1057 91.978 65.0097 91.978C64.9537 91.978 64.8677 91.96 64.7517 91.924C64.6357 91.884 64.4737 91.864 64.2657 91.864C63.8937 91.864 63.5817 91.972 63.3297 92.188C63.0817 92.404 62.8737 92.718 62.7057 93.13V97H61.6377ZM71.3459 97H70.1819V88.402H71.3459V97ZM81.5976 92.704C81.5976 93.348 81.4956 93.934 81.2916 94.462C81.0876 94.99 80.7996 95.442 80.4276 95.818C80.0556 96.194 79.6096 96.486 79.0896 96.694C78.5696 96.898 77.9936 97 77.3616 97H74.1456V88.402H77.3616C77.9936 88.402 78.5696 88.506 79.0896 88.714C79.6096 88.918 80.0556 89.21 80.4276 89.59C80.7996 89.966 81.0876 90.418 81.2916 90.946C81.4956 91.474 81.5976 92.06 81.5976 92.704ZM80.4036 92.704C80.4036 92.176 80.3316 91.704 80.1876 91.288C80.0436 90.872 79.8396 90.52 79.5756 90.232C79.3116 89.944 78.9916 89.724 78.6156 89.572C78.2396 89.42 77.8216 89.344 77.3616 89.344H75.3156V96.058H77.3616C77.8216 96.058 78.2396 95.982 78.6156 95.83C78.9916 95.678 79.3116 95.46 79.5756 95.176C79.8396 94.888 80.0436 94.536 80.1876 94.12C80.3316 93.704 80.4036 93.232 80.4036 92.704Z" fill="black"/>
<path d="M40.736 180.698C40.736 180.409 40.7873 180.133 40.89 179.872C41.002 179.611 41.1513 179.387 41.338 179.2C41.534 179.013 41.758 178.864 42.01 178.752C42.262 178.64 42.528 178.584 42.808 178.584C43.0973 178.584 43.3727 178.64 43.634 178.752C43.8953 178.864 44.1193 179.013 44.306 179.2C44.4927 179.387 44.642 179.611 44.754 179.872C44.866 180.133 44.922 180.409 44.922 180.698C44.922 180.978 44.866 181.244 44.754 181.496C44.642 181.748 44.4927 181.972 44.306 182.168C44.1193 182.355 43.8953 182.504 43.634 182.616C43.3727 182.719 43.0973 182.77 42.808 182.77C42.528 182.77 42.262 182.719 42.01 182.616C41.758 182.504 41.534 182.355 41.338 182.168C41.1513 181.972 41.002 181.748 40.89 181.496C40.7873 181.244 40.736 180.978 40.736 180.698ZM48.3923 180.698C48.3923 180.409 48.4436 180.133 48.5463 179.872C48.6583 179.611 48.8076 179.387 48.9943 179.2C49.1903 179.013 49.4143 178.864 49.6663 178.752C49.9183 178.64 50.1843 178.584 50.4643 178.584C50.7536 178.584 51.0289 178.64 51.2903 178.752C51.5516 178.864 51.7756 179.013 51.9623 179.2C52.1489 179.387 52.2983 179.611 52.4103 179.872C52.5223 180.133 52.5783 180.409 52.5783 180.698C52.5783 180.978 52.5223 181.244 52.4103 181.496C52.2983 181.748 52.1489 181.972 51.9623 182.168C51.7756 182.355 51.5516 182.504 51.2903 182.616C51.0289 182.719 50.7536 182.77 50.4643 182.77C50.1843 182.77 49.9183 182.719 49.6663 182.616C49.4143 182.504 49.1903 182.355 48.9943 182.168C48.8076 181.972 48.6583 181.748 48.5463 181.496C48.4436 181.244 48.3923 180.978 48.3923 180.698ZM56.0485 180.698C56.0485 180.409 56.0998 180.133 56.2025 179.872C56.3145 179.611 56.4638 179.387 56.6505 179.2C56.8465 179.013 57.0705 178.864 57.3225 178.752C57.5745 178.64 57.8405 178.584 58.1205 178.584C58.4098 178.584 58.6852 178.64 58.9465 178.752C59.2078 178.864 59.4318 179.013 59.6185 179.2C59.8052 179.387 59.9545 179.611 60.0665 179.872C60.1785 180.133 60.2345 180.409 60.2345 180.698C60.2345 180.978 60.1785 181.244 60.0665 181.496C59.9545 181.748 59.8052 181.972 59.6185 182.168C59.4318 182.355 59.2078 182.504 58.9465 182.616C58.6852 182.719 58.4098 182.77 58.1205 182.77C57.8405 182.77 57.5745 182.719 57.3225 182.616C57.0705 182.504 56.8465 182.355 56.6505 182.168C56.4638 181.972 56.3145 181.748 56.2025 181.496C56.0998 181.244 56.0485 180.978 56.0485 180.698ZM63.7048 180.698C63.7048 180.409 63.7561 180.133 63.8588 179.872C63.9708 179.611 64.1201 179.387 64.3068 179.2C64.5028 179.013 64.7268 178.864 64.9788 178.752C65.2308 178.64 65.4968 178.584 65.7768 178.584C66.0661 178.584 66.3414 178.64 66.6028 178.752C66.8641 178.864 67.0881 179.013 67.2748 179.2C67.4614 179.387 67.6108 179.611 67.7228 179.872C67.8348 180.133 67.8908 180.409 67.8908 180.698C67.8908 180.978 67.8348 181.244 67.7228 181.496C67.6108 181.748 67.4614 181.972 67.2748 182.168C67.0881 182.355 66.8641 182.504 66.6028 182.616C66.3414 182.719 66.0661 182.77 65.7768 182.77C65.4968 182.77 65.2308 182.719 64.9788 182.616C64.7268 182.504 64.5028 182.355 64.3068 182.168C64.1201 181.972 63.9708 181.748 63.8588 181.496C63.7561 181.244 63.7048 180.978 63.7048 180.698ZM71.361 180.698C71.361 180.409 71.4123 180.133 71.515 179.872C71.627 179.611 71.7763 179.387 71.963 179.2C72.159 179.013 72.383 178.864 72.635 178.752C72.887 178.64 73.153 178.584 73.433 178.584C73.7223 178.584 73.9977 178.64 74.259 178.752C74.5203 178.864 74.7443 179.013 74.931 179.2C75.1177 179.387 75.267 179.611 75.379 179.872C75.491 180.133 75.547 180.409 75.547 180.698C75.547 180.978 75.491 181.244 75.379 181.496C75.267 181.748 75.1177 181.972 74.931 182.168C74.7443 182.355 74.5203 182.504 74.259 182.616C73.9977 182.719 73.7223 182.77 73.433 182.77C73.153 182.77 72.887 182.719 72.635 182.616C72.383 182.504 72.159 182.355 71.963 182.168C71.7763 181.972 71.627 181.748 71.515 181.496C71.4123 181.244 71.361 180.978 71.361 180.698ZM79.0173 180.698C79.0173 180.409 79.0686 180.133 79.1713 179.872C79.2833 179.611 79.4326 179.387 79.6193 179.2C79.8153 179.013 80.0393 178.864 80.2913 178.752C80.5433 178.64 80.8093 178.584 81.0893 178.584C81.3786 178.584 81.6539 178.64 81.9153 178.752C82.1766 178.864 82.4006 179.013 82.5873 179.2C82.7739 179.387 82.9233 179.611 83.0353 179.872C83.1473 180.133 83.2033 180.409 83.2033 180.698C83.2033 180.978 83.1473 181.244 83.0353 181.496C82.9233 181.748 82.7739 181.972 82.5873 182.168C82.4006 182.355 82.1766 182.504 81.9153 182.616C81.6539 182.719 81.3786 182.77 81.0893 182.77C80.8093 182.77 80.5433 182.719 80.2913 182.616C80.0393 182.504 79.8153 182.355 79.6193 182.168C79.4326 181.972 79.2833 181.748 79.1713 181.496C79.0686 181.244 79.0173 180.978 79.0173 180.698ZM86.6735 180.698C86.6735 180.409 86.7248 180.133 86.8275 179.872C86.9395 179.611 87.0888 179.387 87.2755 179.2C87.4715 179.013 87.6955 178.864 87.9475 178.752C88.1995 178.64 88.4655 178.584 88.7455 178.584C89.0348 178.584 89.3102 178.64 89.5715 178.752C89.8328 178.864 90.0568 179.013 90.2435 179.2C90.4302 179.387 90.5795 179.611 90.6915 179.872C90.8035 180.133 90.8595 180.409 90.8595 180.698C90.8595 180.978 90.8035 181.244 90.6915 181.496C90.5795 181.748 90.4302 181.972 90.2435 182.168C90.0568 182.355 89.8328 182.504 89.5715 182.616C89.3102 182.719 89.0348 182.77 88.7455 182.77C88.4655 182.77 88.1995 182.719 87.9475 182.616C87.6955 182.504 87.4715 182.355 87.2755 182.168C87.0888 181.972 86.9395 181.748 86.8275 181.496C86.7248 181.244 86.6735 180.978 86.6735 180.698ZM94.3298 180.698C94.3298 180.409 94.3811 180.133 94.4838 179.872C94.5958 179.611 94.7451 179.387 94.9318 179.2C95.1278 179.013 95.3518 178.864 95.6038 178.752C95.8558 178.64 96.1218 178.584 96.4018 178.584C96.6911 178.584 96.9664 178.64 97.2278 178.752C97.4891 178.864 97.7131 179.013 97.8998 179.2C98.0864 179.387 98.2358 179.611 98.3478 179.872C98.4598 180.133 98.5158 180.409 98.5158 180.698C98.5158 180.978 98.4598 181.244 98.3478 181.496C98.2358 181.748 98.0864 181.972 97.8998 182.168C97.7131 182.355 97.4891 182.504 97.2278 182.616C96.9664 182.719 96.6911 182.77 96.4018 182.77C96.1218 182.77 95.8558 182.719 95.6038 182.616C95.3518 182.504 95.1278 182.355 94.9318 182.168C94.7451 181.972 94.5958 181.748 94.4838 181.496C94.3811 181.244 94.3298 180.978 94.3298 180.698ZM101.986 180.698C101.986 180.409 102.037 180.133 102.14 179.872C102.252 179.611 102.401 179.387 102.588 179.2C102.784 179.013 103.008 178.864 103.26 178.752C103.512 178.64 103.778 178.584 104.058 178.584C104.347 178.584 104.623 178.64 104.884 178.752C105.145 178.864 105.369 179.013 105.556 179.2C105.743 179.387 105.892 179.611 106.004 179.872C106.116 180.133 106.172 180.409 106.172 180.698C106.172 180.978 106.116 181.244 106.004 181.496C105.892 181.748 105.743 181.972 105.556 182.168C105.369 182.355 105.145 182.504 104.884 182.616C104.623 182.719 104.347 182.77 104.058 182.77C103.778 182.77 103.512 182.719 103.26 182.616C103.008 182.504 102.784 182.355 102.588 182.168C102.401 181.972 102.252 181.748 102.14 181.496C102.037 181.244 101.986 180.978 101.986 180.698ZM109.642 180.698C109.642 180.409 109.694 180.133 109.796 179.872C109.908 179.611 110.058 179.387 110.244 179.2C110.44 179.013 110.664 178.864 110.916 178.752C111.168 178.64 111.434 178.584 111.714 178.584C112.004 178.584 112.279 178.64 112.54 178.752C112.802 178.864 113.026 179.013 113.212 179.2C113.399 179.387 113.548 179.611 113.66 179.872C113.772 180.133 113.828 180.409 113.828 180.698C113.828 180.978 113.772 181.244 113.66 181.496C113.548 181.748 113.399 181.972 113.212 182.168C113.026 182.355 112.802 182.504 112.54 182.616C112.279 182.719 112.004 182.77 111.714 182.77C111.434 182.77 111.168 182.719 110.916 182.616C110.664 182.504 110.44 182.355 110.244 182.168C110.058 181.972 109.908 181.748 109.796 181.496C109.694 181.244 109.642 180.978 109.642 180.698ZM117.299 180.698C117.299 180.409 117.35 180.133 117.453 179.872C117.565 179.611 117.714 179.387 117.901 179.2C118.097 179.013 118.321 178.864 118.573 178.752C118.825 178.64 119.091 178.584 119.371 178.584C119.66 178.584 119.935 178.64 120.197 178.752C120.458 178.864 120.682 179.013 120.869 179.2C121.055 179.387 121.205 179.611 121.317 179.872C121.429 180.133 121.485 180.409 121.485 180.698C121.485 180.978 121.429 181.244 121.317 181.496C121.205 181.748 121.055 181.972 120.869 182.168C120.682 182.355 120.458 182.504 120.197 182.616C119.935 182.719 119.66 182.77 119.371 182.77C119.091 182.77 118.825 182.719 118.573 182.616C118.321 182.504 118.097 182.355 117.901 182.168C117.714 181.972 117.565 181.748 117.453 181.496C117.35 181.244 117.299 180.978 117.299 180.698ZM124.955 180.698C124.955 180.409 125.006 180.133 125.109 179.872C125.221 179.611 125.37 179.387 125.557 179.2C125.753 179.013 125.977 178.864 126.229 178.752C126.481 178.64 126.747 178.584 127.027 178.584C127.316 178.584 127.591 178.64 127.853 178.752C128.114 178.864 128.338 179.013 128.525 179.2C128.711 179.387 128.861 179.611 128.973 179.872C129.085 180.133 129.141 180.409 129.141 180.698C129.141 180.978 129.085 181.244 128.973 181.496C128.861 181.748 128.711 181.972 128.525 182.168C128.338 182.355 128.114 182.504 127.853 182.616C127.591 182.719 127.316 182.77 127.027 182.77C126.747 182.77 126.481 182.719 126.229 182.616C125.977 182.504 125.753 182.355 125.557 182.168C125.37 181.972 125.221 181.748 125.109 181.496C125.006 181.244 124.955 180.978 124.955 180.698Z" fill="#979797"/>
<path d="M41.322 160.784V164H40.164V155.402H42.702C43.246 155.402 43.718 155.466 44.118 155.594C44.522 155.718 44.856 155.896 45.12 156.128C45.384 156.36 45.58 156.64 45.708 156.968C45.84 157.296 45.906 157.662 45.906 158.066C45.906 158.466 45.836 158.832 45.696 159.164C45.556 159.496 45.35 159.782 45.078 160.022C44.81 160.262 44.476 160.45 44.076 160.586C43.676 160.718 43.218 160.784 42.702 160.784H41.322ZM41.322 159.86H42.702C43.034 159.86 43.326 159.816 43.578 159.728C43.834 159.64 44.048 159.518 44.22 159.362C44.392 159.202 44.522 159.012 44.61 158.792C44.698 158.572 44.742 158.33 44.742 158.066C44.742 157.518 44.572 157.09 44.232 156.782C43.896 156.474 43.386 156.32 42.702 156.32H41.322V159.86ZM51.8713 164H51.3973C51.2933 164 51.2093 163.984 51.1453 163.952C51.0813 163.92 51.0393 163.852 51.0193 163.748L50.8993 163.184C50.7393 163.328 50.5833 163.458 50.4313 163.574C50.2793 163.686 50.1193 163.782 49.9513 163.862C49.7833 163.938 49.6033 163.996 49.4113 164.036C49.2233 164.076 49.0133 164.096 48.7813 164.096C48.5453 164.096 48.3233 164.064 48.1152 164C47.9113 163.932 47.7333 163.832 47.5813 163.7C47.4293 163.568 47.3073 163.402 47.2153 163.202C47.1273 162.998 47.0833 162.758 47.0833 162.482C47.0833 162.242 47.1493 162.012 47.2812 161.792C47.4133 161.568 47.6253 161.37 47.9173 161.198C48.2133 161.026 48.5993 160.886 49.0753 160.778C49.5513 160.666 50.1333 160.602 50.8213 160.586V160.112C50.8213 159.64 50.7193 159.284 50.5153 159.044C50.3153 158.8 50.0173 158.678 49.6213 158.678C49.3613 158.678 49.1413 158.712 48.9613 158.78C48.7853 158.844 48.6313 158.918 48.4993 159.002C48.3713 159.082 48.2593 159.156 48.1633 159.224C48.0713 159.288 47.9793 159.32 47.8873 159.32C47.8153 159.32 47.7513 159.302 47.6953 159.266C47.6433 159.226 47.6013 159.178 47.5693 159.122L47.3773 158.78C47.7133 158.456 48.0753 158.214 48.4633 158.054C48.8513 157.894 49.2813 157.814 49.7533 157.814C50.0933 157.814 50.3953 157.87 50.6593 157.982C50.9233 158.094 51.1453 158.25 51.3253 158.45C51.5053 158.65 51.6413 158.892 51.7333 159.176C51.8253 159.46 51.8713 159.772 51.8713 160.112V164ZM49.0993 163.346C49.2873 163.346 49.4593 163.328 49.6152 163.292C49.7713 163.252 49.9173 163.198 50.0533 163.13C50.1933 163.058 50.3253 162.972 50.4493 162.872C50.5773 162.772 50.7013 162.658 50.8213 162.53V161.264C50.3293 161.28 49.9113 161.32 49.5673 161.384C49.2233 161.444 48.9433 161.524 48.7273 161.624C48.5113 161.724 48.3533 161.842 48.2533 161.978C48.1573 162.114 48.1093 162.266 48.1093 162.434C48.1093 162.594 48.1353 162.732 48.1873 162.848C48.2393 162.964 48.3093 163.06 48.3973 163.136C48.4853 163.208 48.5893 163.262 48.7093 163.298C48.8293 163.33 48.9593 163.346 49.0993 163.346ZM57.4693 158.924C57.4213 159.012 57.3473 159.056 57.2473 159.056C57.1873 159.056 57.1193 159.034 57.0433 158.99C56.9673 158.946 56.8733 158.898 56.7613 158.846C56.6533 158.79 56.5233 158.74 56.3713 158.696C56.2193 158.648 56.0393 158.624 55.8313 158.624C55.6513 158.624 55.4893 158.648 55.3453 158.696C55.2013 158.74 55.0773 158.802 54.9733 158.882C54.8733 158.962 54.7953 159.056 54.7393 159.164C54.6873 159.268 54.6613 159.382 54.6613 159.506C54.6613 159.662 54.7053 159.792 54.7933 159.896C54.8853 160 55.0053 160.09 55.1533 160.166C55.3013 160.242 55.4693 160.31 55.6573 160.37C55.8453 160.426 56.0373 160.488 56.2333 160.556C56.4333 160.62 56.6273 160.692 56.8153 160.772C57.0033 160.852 57.1713 160.952 57.3193 161.072C57.4673 161.192 57.5853 161.34 57.6733 161.516C57.7653 161.688 57.8113 161.896 57.8113 162.14C57.8113 162.42 57.7613 162.68 57.6613 162.92C57.5613 163.156 57.4133 163.362 57.2173 163.538C57.0213 163.71 56.7813 163.846 56.4973 163.946C56.2133 164.046 55.8853 164.096 55.5133 164.096C55.0893 164.096 54.7053 164.028 54.3613 163.892C54.0173 163.752 53.7253 163.574 53.4853 163.358L53.7373 162.95C53.7693 162.898 53.8073 162.858 53.8513 162.83C53.8953 162.802 53.9533 162.788 54.0253 162.788C54.0973 162.788 54.1733 162.816 54.2533 162.872C54.3333 162.928 54.4293 162.99 54.5413 163.058C54.6573 163.126 54.7953 163.188 54.9553 163.244C55.1193 163.3 55.3233 163.328 55.5673 163.328C55.7753 163.328 55.9573 163.302 56.1133 163.25C56.2693 163.194 56.3993 163.12 56.5033 163.028C56.6073 162.936 56.6833 162.83 56.7313 162.71C56.7833 162.59 56.8093 162.462 56.8093 162.326C56.8093 162.158 56.7633 162.02 56.6713 161.912C56.5833 161.8 56.4653 161.706 56.3173 161.63C56.1693 161.55 55.9993 161.482 55.8073 161.426C55.6193 161.366 55.4253 161.304 55.2253 161.24C55.0293 161.176 54.8353 161.104 54.6433 161.024C54.4553 160.94 54.2873 160.836 54.1393 160.712C53.9913 160.588 53.8713 160.436 53.7793 160.256C53.6913 160.072 53.6473 159.85 53.6473 159.59C53.6473 159.358 53.6953 159.136 53.7913 158.924C53.8873 158.708 54.0273 158.52 54.2113 158.36C54.3953 158.196 54.6213 158.066 54.8893 157.97C55.1573 157.874 55.4633 157.826 55.8073 157.826C56.2073 157.826 56.5653 157.89 56.8813 158.018C57.2013 158.142 57.4773 158.314 57.7093 158.534L57.4693 158.924ZM63.1724 158.924C63.1244 159.012 63.0504 159.056 62.9504 159.056C62.8904 159.056 62.8224 159.034 62.7464 158.99C62.6704 158.946 62.5764 158.898 62.4644 158.846C62.3564 158.79 62.2264 158.74 62.0744 158.696C61.9224 158.648 61.7424 158.624 61.5344 158.624C61.3544 158.624 61.1924 158.648 61.0484 158.696C60.9044 158.74 60.7804 158.802 60.6764 158.882C60.5764 158.962 60.4984 159.056 60.4424 159.164C60.3904 159.268 60.3644 159.382 60.3644 159.506C60.3644 159.662 60.4084 159.792 60.4964 159.896C60.5884 160 60.7084 160.09 60.8564 160.166C61.0044 160.242 61.1724 160.31 61.3604 160.37C61.5484 160.426 61.7404 160.488 61.9364 160.556C62.1364 160.62 62.3304 160.692 62.5184 160.772C62.7064 160.852 62.8744 160.952 63.0224 161.072C63.1704 161.192 63.2884 161.34 63.3764 161.516C63.4684 161.688 63.5144 161.896 63.5144 162.14C63.5144 162.42 63.4644 162.68 63.3644 162.92C63.2644 163.156 63.1164 163.362 62.9204 163.538C62.7244 163.71 62.4844 163.846 62.2004 163.946C61.9164 164.046 61.5884 164.096 61.2164 164.096C60.7924 164.096 60.4084 164.028 60.0644 163.892C59.7204 163.752 59.4284 163.574 59.1884 163.358L59.4404 162.95C59.4724 162.898 59.5104 162.858 59.5544 162.83C59.5984 162.802 59.6564 162.788 59.7284 162.788C59.8004 162.788 59.8764 162.816 59.9564 162.872C60.0364 162.928 60.1324 162.99 60.2444 163.058C60.3604 163.126 60.4984 163.188 60.6584 163.244C60.8224 163.3 61.0264 163.328 61.2704 163.328C61.4784 163.328 61.6604 163.302 61.8164 163.25C61.9724 163.194 62.1024 163.12 62.2064 163.028C62.3104 162.936 62.3864 162.83 62.4344 162.71C62.4864 162.59 62.5124 162.462 62.5124 162.326C62.5124 162.158 62.4664 162.02 62.3744 161.912C62.2864 161.8 62.1684 161.706 62.0204 161.63C61.8724 161.55 61.7024 161.482 61.5104 161.426C61.3224 161.366 61.1284 161.304 60.9284 161.24C60.7324 161.176 60.5384 161.104 60.3464 161.024C60.1584 160.94 59.9904 160.836 59.8424 160.712C59.6944 160.588 59.5744 160.436 59.4824 160.256C59.3944 160.072 59.3504 159.85 59.3504 159.59C59.3504 159.358 59.3984 159.136 59.4944 158.924C59.5904 158.708 59.7304 158.52 59.9144 158.36C60.0984 158.196 60.3244 158.066 60.5924 157.97C60.8604 157.874 61.1664 157.826 61.5104 157.826C61.9104 157.826 62.2684 157.89 62.5844 158.018C62.9044 158.142 63.1804 158.314 63.4124 158.534L63.1724 158.924ZM64.6035 157.922H65.4435C65.5315 157.922 65.6035 157.944 65.6595 157.988C65.7155 158.032 65.7535 158.084 65.7735 158.144L66.9375 162.056C66.9695 162.2 66.9995 162.34 67.0275 162.476C67.0555 162.608 67.0795 162.742 67.0995 162.878C67.1315 162.742 67.1675 162.608 67.2075 162.476C67.2475 162.34 67.2895 162.2 67.3335 162.056L68.6175 158.12C68.6375 158.06 68.6715 158.01 68.7195 157.97C68.7715 157.93 68.8355 157.91 68.9115 157.91H69.3735C69.4535 157.91 69.5195 157.93 69.5715 157.97C69.6235 158.01 69.6595 158.06 69.6795 158.12L70.9335 162.056C70.9775 162.196 71.0155 162.334 71.0475 162.47C71.0835 162.606 71.1175 162.74 71.1495 162.872C71.1695 162.74 71.1955 162.602 71.2275 162.458C71.2595 162.314 71.2935 162.18 71.3295 162.056L72.5175 158.144C72.5375 158.08 72.5755 158.028 72.6315 157.988C72.6875 157.944 72.7535 157.922 72.8295 157.922H73.6335L71.6655 164H70.8195C70.7155 164 70.6435 163.932 70.6035 163.796L69.2595 159.674C69.2275 159.582 69.2015 159.49 69.1815 159.398C69.1615 159.302 69.1415 159.208 69.1215 159.116C69.1015 159.208 69.0815 159.302 69.0615 159.398C69.0415 159.494 69.0155 159.588 68.9835 159.68L67.6215 163.796C67.5775 163.932 67.4955 164 67.3755 164H66.5715L64.6035 157.922ZM77.543 157.826C77.987 157.826 78.387 157.9 78.743 158.048C79.103 158.196 79.407 158.406 79.655 158.678C79.907 158.95 80.099 159.28 80.231 159.668C80.367 160.052 80.435 160.482 80.435 160.958C80.435 161.438 80.367 161.87 80.231 162.254C80.099 162.638 79.907 162.966 79.655 163.238C79.407 163.51 79.103 163.72 78.743 163.868C78.387 164.012 77.987 164.084 77.543 164.084C77.099 164.084 76.697 164.012 76.337 163.868C75.981 163.72 75.677 163.51 75.425 163.238C75.173 162.966 74.979 162.638 74.843 162.254C74.707 161.87 74.639 161.438 74.639 160.958C74.639 160.482 74.707 160.052 74.843 159.668C74.979 159.28 75.173 158.95 75.425 158.678C75.677 158.406 75.981 158.196 76.337 158.048C76.697 157.9 77.099 157.826 77.543 157.826ZM77.543 163.25C78.143 163.25 78.591 163.05 78.887 162.65C79.183 162.246 79.331 161.684 79.331 160.964C79.331 160.24 79.183 159.676 78.887 159.272C78.591 158.868 78.143 158.666 77.543 158.666C77.239 158.666 76.975 158.718 76.751 158.822C76.527 158.926 76.339 159.076 76.187 159.272C76.039 159.468 75.927 159.71 75.851 159.998C75.779 160.282 75.743 160.604 75.743 160.964C75.743 161.324 75.779 161.646 75.851 161.93C75.927 162.214 76.039 162.454 76.187 162.65C76.339 162.842 76.527 162.99 76.751 163.094C76.975 163.198 77.239 163.25 77.543 163.25ZM82.251 164V157.922H82.863C82.979 157.922 83.059 157.944 83.103 157.988C83.147 158.032 83.177 158.108 83.193 158.216L83.265 159.164C83.473 158.74 83.729 158.41 84.033 158.174C84.341 157.934 84.701 157.814 85.113 157.814C85.281 157.814 85.433 157.834 85.569 157.874C85.705 157.91 85.831 157.962 85.947 158.03L85.809 158.828C85.781 158.928 85.719 158.978 85.623 158.978C85.567 158.978 85.481 158.96 85.365 158.924C85.249 158.884 85.087 158.864 84.879 158.864C84.507 158.864 84.195 158.972 83.943 159.188C83.695 159.404 83.487 159.718 83.319 160.13V164H82.251ZM91.8688 164C91.7168 164 91.6208 163.926 91.5808 163.778L91.4848 163.04C91.2248 163.356 90.9268 163.61 90.5908 163.802C90.2588 163.99 89.8768 164.084 89.4448 164.084C89.0968 164.084 88.7808 164.018 88.4968 163.886C88.2128 163.75 87.9708 163.552 87.7708 163.292C87.5708 163.032 87.4168 162.708 87.3088 162.32C87.2008 161.932 87.1468 161.486 87.1468 160.982C87.1468 160.534 87.2068 160.118 87.3268 159.734C87.4468 159.346 87.6188 159.01 87.8428 158.726C88.0708 158.442 88.3468 158.22 88.6708 158.06C88.9948 157.896 89.3628 157.814 89.7748 157.814C90.1468 157.814 90.4648 157.878 90.7288 158.006C90.9928 158.13 91.2288 158.306 91.4368 158.534V155.162H92.5048V164H91.8688ZM89.7988 163.22C90.1468 163.22 90.4508 163.14 90.7108 162.98C90.9748 162.82 91.2168 162.594 91.4368 162.302V159.362C91.2408 159.098 91.0248 158.914 90.7888 158.81C90.5568 158.702 90.2988 158.648 90.0148 158.648C89.4468 158.648 89.0108 158.85 88.7068 159.254C88.4028 159.658 88.2508 160.234 88.2508 160.982C88.2508 161.378 88.2848 161.718 88.3528 162.002C88.4208 162.282 88.5208 162.514 88.6528 162.698C88.7848 162.878 88.9468 163.01 89.1388 163.094C89.3308 163.178 89.5508 163.22 89.7988 163.22Z" fill="black"/>
<path d="M29.152 52.718H37.832V55H26.436V34.938H29.152V52.718ZM45.6746 40.594C46.7106 40.594 47.644 40.7667 48.4746 41.112C49.3146 41.4573 50.024 41.9473 50.6026 42.582C51.1906 43.2167 51.6386 43.9867 51.9466 44.892C52.264 45.788 52.4226 46.7913 52.4226 47.902C52.4226 49.022 52.264 50.03 51.9466 50.926C51.6386 51.822 51.1906 52.5873 50.6026 53.222C50.024 53.8567 49.3146 54.3467 48.4746 54.692C47.644 55.028 46.7106 55.196 45.6746 55.196C44.6386 55.196 43.7006 55.028 42.8606 54.692C42.03 54.3467 41.3206 53.8567 40.7326 53.222C40.1446 52.5873 39.692 51.822 39.3746 50.926C39.0573 50.03 38.8986 49.022 38.8986 47.902C38.8986 46.7913 39.0573 45.788 39.3746 44.892C39.692 43.9867 40.1446 43.2167 40.7326 42.582C41.3206 41.9473 42.03 41.4573 42.8606 41.112C43.7006 40.7667 44.6386 40.594 45.6746 40.594ZM45.6746 53.25C47.0746 53.25 48.12 52.7833 48.8106 51.85C49.5013 50.9073 49.8466 49.596 49.8466 47.916C49.8466 46.2267 49.5013 44.9107 48.8106 43.968C48.12 43.0253 47.0746 42.554 45.6746 42.554C44.9653 42.554 44.3493 42.6753 43.8266 42.918C43.304 43.1607 42.8653 43.5107 42.5106 43.968C42.1653 44.4253 41.904 44.99 41.7266 45.662C41.5586 46.3247 41.4746 47.076 41.4746 47.916C41.4746 48.756 41.5586 49.5073 41.7266 50.17C41.904 50.8327 42.1653 51.3927 42.5106 51.85C42.8653 52.298 43.304 52.6433 43.8266 52.886C44.3493 53.1287 44.9653 53.25 45.6746 53.25ZM60.2672 40.58C60.8832 40.58 61.4572 40.65 61.9892 40.79C62.5306 40.9207 63.0206 41.1167 63.4592 41.378H67.3092V42.302C67.3092 42.61 67.1132 42.806 66.7212 42.89L65.1112 43.114C65.4286 43.7207 65.5872 44.3973 65.5872 45.144C65.5872 45.8347 65.4519 46.4647 65.1812 47.034C64.9199 47.594 64.5512 48.0747 64.0752 48.476C63.6086 48.8773 63.0486 49.1853 62.3952 49.4C61.7512 49.6147 61.0419 49.722 60.2672 49.722C59.6046 49.722 58.9792 49.6427 58.3912 49.484C58.0926 49.6707 57.8639 49.8713 57.7052 50.086C57.5559 50.3007 57.4812 50.5107 57.4812 50.716C57.4812 51.052 57.6166 51.3087 57.8872 51.486C58.1579 51.654 58.5172 51.7753 58.9652 51.85C59.4132 51.9247 59.9219 51.9713 60.4912 51.99C61.0606 52.0087 61.6392 52.0413 62.2272 52.088C62.8246 52.1253 63.4079 52.1953 63.9772 52.298C64.5466 52.4007 65.0552 52.5687 65.5032 52.802C65.9512 53.0353 66.3106 53.3573 66.5812 53.768C66.8519 54.1787 66.9872 54.7107 66.9872 55.364C66.9872 55.9707 66.8332 56.5587 66.5252 57.128C66.2266 57.6973 65.7926 58.2013 65.2232 58.64C64.6539 59.088 63.9586 59.4427 63.1372 59.704C62.3159 59.9747 61.3872 60.11 60.3512 60.11C59.3152 60.11 58.4052 60.0073 57.6212 59.802C56.8466 59.5967 56.2026 59.3213 55.6892 58.976C55.1759 58.6307 54.7886 58.2293 54.5272 57.772C54.2752 57.324 54.1492 56.8527 54.1492 56.358C54.1492 55.658 54.3686 55.0653 54.8072 54.58C55.2552 54.0853 55.8666 53.6933 56.6412 53.404C56.2399 53.2173 55.9179 52.97 55.6752 52.662C55.4419 52.3447 55.3252 51.9247 55.3252 51.402C55.3252 51.1967 55.3626 50.9867 55.4372 50.772C55.5119 50.548 55.6239 50.3287 55.7732 50.114C55.9319 49.8993 56.1232 49.694 56.3472 49.498C56.5712 49.302 56.8326 49.1293 57.1312 48.98C56.4312 48.588 55.8806 48.07 55.4792 47.426C55.0872 46.7727 54.8912 46.012 54.8912 45.144C54.8912 44.4533 55.0219 43.828 55.2832 43.268C55.5539 42.6987 55.9272 42.218 56.4032 41.826C56.8792 41.4247 57.4439 41.1167 58.0972 40.902C58.7599 40.6873 59.4832 40.58 60.2672 40.58ZM64.6912 55.77C64.6912 55.4153 64.5932 55.1307 64.3972 54.916C64.2012 54.7013 63.9352 54.538 63.5992 54.426C63.2632 54.3047 62.8759 54.216 62.4372 54.16C61.9986 54.104 61.5366 54.0667 61.0512 54.048C60.5659 54.02 60.0712 53.992 59.5672 53.964C59.0632 53.936 58.5826 53.8847 58.1252 53.81C57.5932 54.062 57.1592 54.37 56.8232 54.734C56.4966 55.098 56.3332 55.532 56.3332 56.036C56.3332 56.3533 56.4126 56.6473 56.5712 56.918C56.7392 57.198 56.9912 57.436 57.3272 57.632C57.6632 57.8373 58.0832 57.996 58.5872 58.108C59.1006 58.2293 59.7026 58.29 60.3932 58.29C61.0652 58.29 61.6672 58.2293 62.1992 58.108C62.7312 57.9867 63.1792 57.814 63.5432 57.59C63.9166 57.366 64.2012 57.1 64.3972 56.792C64.5932 56.484 64.6912 56.1433 64.6912 55.77ZM60.2672 48.07C60.7712 48.07 61.2146 48 61.5972 47.86C61.9892 47.72 62.3159 47.524 62.5772 47.272C62.8386 47.02 63.0346 46.7213 63.1652 46.376C63.2959 46.0213 63.3612 45.634 63.3612 45.214C63.3612 44.346 63.0952 43.6553 62.5632 43.142C62.0406 42.6287 61.2752 42.372 60.2672 42.372C59.2686 42.372 58.5032 42.6287 57.9712 43.142C57.4486 43.6553 57.1872 44.346 57.1872 45.214C57.1872 45.634 57.2526 46.0213 57.3832 46.376C57.5232 46.7213 57.7239 47.02 57.9852 47.272C58.2466 47.524 58.5686 47.72 58.9512 47.86C59.3339 48 59.7726 48.07 60.2672 48.07ZM77.9801 40.818V55H75.4881V40.818H77.9801ZM78.5401 36.366C78.5401 36.6087 78.4887 36.8373 78.3861 37.052C78.2927 37.2573 78.1621 37.444 77.9941 37.612C77.8354 37.7707 77.6487 37.8967 77.4341 37.99C77.2194 38.0833 76.9907 38.13 76.7481 38.13C76.5054 38.13 76.2767 38.0833 76.0621 37.99C75.8567 37.8967 75.6701 37.7707 75.5021 37.612C75.3434 37.444 75.2174 37.2573 75.1241 37.052C75.0307 36.8373 74.9841 36.6087 74.9841 36.366C74.9841 36.1233 75.0307 35.8947 75.1241 35.68C75.2174 35.456 75.3434 35.2647 75.5021 35.106C75.6701 34.938 75.8567 34.8073 76.0621 34.714C76.2767 34.6207 76.5054 34.574 76.7481 34.574C76.9907 34.574 77.2194 34.6207 77.4341 34.714C77.6487 34.8073 77.8354 34.938 77.9941 35.106C78.1621 35.2647 78.2927 35.456 78.3861 35.68C78.4887 35.8947 78.5401 36.1233 78.5401 36.366ZM82.3721 55V40.818H83.8561C84.2108 40.818 84.4348 40.9907 84.5281 41.336L84.7241 42.876C85.3401 42.1947 86.0261 41.644 86.7821 41.224C87.5475 40.804 88.4295 40.594 89.4281 40.594C90.2028 40.594 90.8841 40.7247 91.4721 40.986C92.0695 41.238 92.5641 41.602 92.9561 42.078C93.3575 42.5447 93.6608 43.1093 93.8661 43.772C94.0715 44.4347 94.1741 45.1673 94.1741 45.97V55H91.6821V45.97C91.6821 44.8967 91.4348 44.066 90.9401 43.478C90.4548 42.8807 89.7081 42.582 88.7001 42.582C87.9628 42.582 87.2721 42.7593 86.6281 43.114C85.9935 43.4687 85.4055 43.9493 84.8641 44.556V55H82.3721Z" fill="black"/>
<line x1="24" y1="137.5" x2="379" y2="137.5" stroke="#D8D8D8"/>
<path d="M28 201.5H375C376.933 201.5 378.5 199.933 378.5 198V137.5H24.5V198C24.5 199.933 26.067 201.5 28 201.5Z" stroke="#FF4944"/>
<path d="M28 73.5H375C376.933 73.5 378.5 75.067 378.5 77V137.5H24.5V77C24.5 75.067 26.067 73.5 28 73.5Z" stroke="#FF4944"/>
<path d="M26.828 232H25.47V221.969H26.828V232ZM29.315 232V224.909H30.057C30.2343 224.909 30.3463 224.995 30.393 225.168L30.491 225.938C30.799 225.597 31.142 225.322 31.52 225.112C31.9026 224.902 32.3436 224.797 32.843 224.797C33.2303 224.797 33.571 224.862 33.865 224.993C34.1636 225.119 34.411 225.301 34.607 225.539C34.8076 225.772 34.9593 226.055 35.062 226.386C35.1646 226.717 35.216 227.084 35.216 227.485V232H33.97V227.485C33.97 226.948 33.8463 226.533 33.599 226.239C33.3563 225.94 32.983 225.791 32.479 225.791C32.1103 225.791 31.765 225.88 31.443 226.057C31.1256 226.234 30.8316 226.475 30.561 226.778V232H29.315ZM35.9795 224.909H37.0015C37.0995 224.909 37.1812 224.935 37.2465 224.986C37.3118 225.037 37.3585 225.098 37.3865 225.168L39.1855 229.732C39.2508 229.9 39.3022 230.068 39.3395 230.236C39.3768 230.404 39.4118 230.57 39.4445 230.733C39.4818 230.57 39.5215 230.404 39.5635 230.236C39.6055 230.068 39.6592 229.9 39.7245 229.732L41.5445 225.168C41.5725 225.093 41.6168 225.033 41.6775 224.986C41.7428 224.935 41.8222 224.909 41.9155 224.909H42.8885L39.9975 232H38.8705L35.9795 224.909ZM49.2476 232H48.6946C48.5732 232 48.4752 231.981 48.4006 231.944C48.3259 231.907 48.2769 231.827 48.2536 231.706L48.1136 231.048C47.9269 231.216 47.7449 231.368 47.5676 231.503C47.3902 231.634 47.2036 231.746 47.0076 231.839C46.8116 231.928 46.6016 231.995 46.3776 232.042C46.1582 232.089 45.9132 232.112 45.6426 232.112C45.3672 232.112 45.1082 232.075 44.8656 232C44.6276 231.921 44.4199 231.804 44.2426 231.65C44.0652 231.496 43.9229 231.302 43.8156 231.069C43.7129 230.831 43.6616 230.551 43.6616 230.229C43.6616 229.949 43.7386 229.681 43.8926 229.424C44.0466 229.163 44.2939 228.932 44.6346 228.731C44.9799 228.53 45.4302 228.367 45.9856 228.241C46.5409 228.11 47.2199 228.036 48.0226 228.017V227.464C48.0226 226.913 47.9036 226.498 47.6656 226.218C47.4322 225.933 47.0846 225.791 46.6226 225.791C46.3192 225.791 46.0626 225.831 45.8526 225.91C45.6472 225.985 45.4676 226.071 45.3136 226.169C45.1642 226.262 45.0336 226.349 44.9216 226.428C44.8142 226.503 44.7069 226.54 44.5996 226.54C44.5156 226.54 44.4409 226.519 44.3756 226.477C44.3149 226.43 44.2659 226.374 44.2286 226.309L44.0046 225.91C44.3966 225.532 44.8189 225.25 45.2716 225.063C45.7242 224.876 46.2259 224.783 46.7766 224.783C47.1732 224.783 47.5256 224.848 47.8336 224.979C48.1416 225.11 48.4006 225.292 48.6106 225.525C48.8206 225.758 48.9792 226.041 49.0866 226.372C49.1939 226.703 49.2476 227.067 49.2476 227.464V232ZM46.0136 231.237C46.2329 231.237 46.4336 231.216 46.6156 231.174C46.7976 231.127 46.9679 231.064 47.1266 230.985C47.2899 230.901 47.4439 230.801 47.5886 230.684C47.7379 230.567 47.8826 230.434 48.0226 230.285V228.808C47.4486 228.827 46.9609 228.873 46.5596 228.948C46.1582 229.018 45.8316 229.111 45.5796 229.228C45.3276 229.345 45.1432 229.482 45.0266 229.641C44.9146 229.8 44.8586 229.977 44.8586 230.173C44.8586 230.36 44.8889 230.521 44.9496 230.656C45.0102 230.791 45.0919 230.903 45.1946 230.992C45.2972 231.076 45.4186 231.139 45.5586 231.181C45.6986 231.218 45.8502 231.237 46.0136 231.237ZM52.5213 221.689V232H51.2753V221.689H52.5213ZM56.1033 224.909V232H54.8573V224.909H56.1033ZM56.3833 222.683C56.3833 222.804 56.3576 222.919 56.3063 223.026C56.2596 223.129 56.1943 223.222 56.1103 223.306C56.031 223.385 55.9376 223.448 55.8303 223.495C55.723 223.542 55.6086 223.565 55.4873 223.565C55.366 223.565 55.2516 223.542 55.1443 223.495C55.0416 223.448 54.9483 223.385 54.8643 223.306C54.785 223.222 54.722 223.129 54.6753 223.026C54.6286 222.919 54.6053 222.804 54.6053 222.683C54.6053 222.562 54.6286 222.447 54.6753 222.34C54.722 222.228 54.785 222.132 54.8643 222.053C54.9483 221.969 55.0416 221.904 55.1443 221.857C55.2516 221.81 55.366 221.787 55.4873 221.787C55.6086 221.787 55.723 221.81 55.8303 221.857C55.9376 221.904 56.031 221.969 56.1103 222.053C56.1943 222.132 56.2596 222.228 56.3063 222.34C56.3576 222.447 56.3833 222.562 56.3833 222.683ZM63.2903 232C63.113 232 63.001 231.914 62.9543 231.741L62.8423 230.88C62.539 231.249 62.1913 231.545 61.7993 231.769C61.412 231.988 60.9663 232.098 60.4623 232.098C60.0563 232.098 59.6877 232.021 59.3563 231.867C59.025 231.708 58.7427 231.477 58.5093 231.174C58.276 230.871 58.0963 230.493 57.9703 230.04C57.8443 229.587 57.7813 229.067 57.7813 228.479C57.7813 227.956 57.8513 227.471 57.9913 227.023C58.1313 226.57 58.332 226.178 58.5933 225.847C58.8593 225.516 59.1813 225.257 59.5593 225.07C59.9373 224.879 60.3667 224.783 60.8473 224.783C61.2813 224.783 61.6523 224.858 61.9603 225.007C62.2683 225.152 62.5437 225.357 62.7863 225.623V221.689H64.0323V232H63.2903ZM60.8753 231.09C61.2813 231.09 61.636 230.997 61.9393 230.81C62.2473 230.623 62.5297 230.36 62.7863 230.019V226.589C62.5577 226.281 62.3057 226.066 62.0303 225.945C61.7597 225.819 61.4587 225.756 61.1273 225.756C60.4647 225.756 59.956 225.992 59.6013 226.463C59.2467 226.934 59.0693 227.606 59.0693 228.479C59.0693 228.941 59.109 229.338 59.1883 229.669C59.2677 229.996 59.3843 230.266 59.5383 230.481C59.6923 230.691 59.8813 230.845 60.1053 230.943C60.3293 231.041 60.586 231.09 60.8753 231.09ZM69.9047 224.909V229.431C69.9047 229.968 70.0284 230.383 70.2757 230.677C70.523 230.971 70.8964 231.118 71.3957 231.118C71.7597 231.118 72.1027 231.032 72.4247 230.859C72.7467 230.686 73.043 230.446 73.3137 230.138V224.909H74.5597V232H73.8177C73.6404 232 73.5284 231.914 73.4817 231.741L73.3837 230.978C73.0757 231.319 72.7304 231.594 72.3477 231.804C71.965 232.009 71.5264 232.112 71.0317 232.112C70.6444 232.112 70.3014 232.049 70.0027 231.923C69.7087 231.792 69.4614 231.61 69.2607 231.377C69.06 231.144 68.9084 230.861 68.8057 230.53C68.7077 230.199 68.6587 229.832 68.6587 229.431V224.909H69.9047ZM80.666 226.078C80.61 226.181 80.5237 226.232 80.407 226.232C80.337 226.232 80.2577 226.206 80.169 226.155C80.0803 226.104 79.9707 226.048 79.84 225.987C79.714 225.922 79.5623 225.863 79.385 225.812C79.2077 225.756 78.9977 225.728 78.755 225.728C78.545 225.728 78.356 225.756 78.188 225.812C78.02 225.863 77.8753 225.936 77.754 226.029C77.6373 226.122 77.5463 226.232 77.481 226.358C77.4203 226.479 77.39 226.612 77.39 226.757C77.39 226.939 77.4413 227.091 77.544 227.212C77.6513 227.333 77.7913 227.438 77.964 227.527C78.1367 227.616 78.3327 227.695 78.552 227.765C78.7713 227.83 78.9953 227.903 79.224 227.982C79.4573 228.057 79.6837 228.141 79.903 228.234C80.1223 228.327 80.3183 228.444 80.491 228.584C80.6637 228.724 80.8013 228.897 80.904 229.102C81.0113 229.303 81.065 229.545 81.065 229.83C81.065 230.157 81.0067 230.46 80.89 230.74C80.7733 231.015 80.6007 231.256 80.372 231.461C80.1433 231.662 79.8633 231.82 79.532 231.937C79.2007 232.054 78.818 232.112 78.384 232.112C77.8893 232.112 77.4413 232.033 77.04 231.874C76.6387 231.711 76.298 231.503 76.018 231.251L76.312 230.775C76.3493 230.714 76.3937 230.668 76.445 230.635C76.4963 230.602 76.564 230.586 76.648 230.586C76.732 230.586 76.8207 230.619 76.914 230.684C77.0073 230.749 77.1193 230.822 77.25 230.901C77.3853 230.98 77.5463 231.053 77.733 231.118C77.9243 231.183 78.1623 231.216 78.447 231.216C78.6897 231.216 78.902 231.186 79.084 231.125C79.266 231.06 79.4177 230.973 79.539 230.866C79.6603 230.759 79.749 230.635 79.805 230.495C79.8657 230.355 79.896 230.206 79.896 230.047C79.896 229.851 79.8423 229.69 79.735 229.564C79.6323 229.433 79.4947 229.324 79.322 229.235C79.1493 229.142 78.951 229.062 78.727 228.997C78.5077 228.927 78.2813 228.855 78.048 228.78C77.8193 228.705 77.593 228.621 77.369 228.528C77.1497 228.43 76.9537 228.309 76.781 228.164C76.6083 228.019 76.4683 227.842 76.361 227.632C76.2583 227.417 76.207 227.158 76.207 226.855C76.207 226.584 76.263 226.325 76.375 226.078C76.487 225.826 76.6503 225.607 76.865 225.42C77.0797 225.229 77.3433 225.077 77.656 224.965C77.9687 224.853 78.3257 224.797 78.727 224.797C79.1937 224.797 79.6113 224.872 79.98 225.021C80.3533 225.166 80.6753 225.366 80.946 225.623L80.666 226.078ZM85.4833 224.797C85.908 224.797 86.3 224.869 86.6593 225.014C87.0186 225.154 87.329 225.359 87.5903 225.63C87.8516 225.896 88.0546 226.227 88.1993 226.624C88.3486 227.016 88.4233 227.464 88.4233 227.968C88.4233 228.164 88.4023 228.295 88.3603 228.36C88.3183 228.425 88.239 228.458 88.1223 228.458H83.4043C83.4136 228.906 83.4743 229.296 83.5863 229.627C83.6983 229.958 83.8523 230.236 84.0483 230.46C84.2443 230.679 84.4776 230.845 84.7483 230.957C85.019 231.064 85.3223 231.118 85.6583 231.118C85.971 231.118 86.2393 231.083 86.4633 231.013C86.692 230.938 86.888 230.859 87.0513 230.775C87.2146 230.691 87.35 230.614 87.4573 230.544C87.5693 230.469 87.665 230.432 87.7443 230.432C87.847 230.432 87.9263 230.472 87.9823 230.551L88.3323 231.006C88.1783 231.193 87.994 231.356 87.7793 231.496C87.5646 231.631 87.3336 231.743 87.0863 231.832C86.8436 231.921 86.5916 231.986 86.3303 232.028C86.069 232.075 85.81 232.098 85.5533 232.098C85.0633 232.098 84.6106 232.016 84.1953 231.853C83.7846 231.685 83.4276 231.442 83.1243 231.125C82.8256 230.803 82.5923 230.406 82.4243 229.935C82.2563 229.464 82.1723 228.922 82.1723 228.311C82.1723 227.816 82.247 227.354 82.3963 226.925C82.5503 226.496 82.7696 226.125 83.0543 225.812C83.339 225.495 83.6866 225.247 84.0973 225.07C84.508 224.888 84.97 224.797 85.4833 224.797ZM85.5113 225.714C84.9093 225.714 84.4356 225.889 84.0903 226.239C83.745 226.584 83.5303 227.065 83.4463 227.681H87.3033C87.3033 227.392 87.2636 227.128 87.1843 226.89C87.105 226.647 86.9883 226.44 86.8343 226.267C86.6803 226.09 86.4913 225.954 86.2673 225.861C86.048 225.763 85.796 225.714 85.5113 225.714ZM90.0181 232V224.909H90.7321C90.8674 224.909 90.9608 224.935 91.0121 224.986C91.0634 225.037 91.0984 225.126 91.1171 225.252L91.2011 226.358C91.4438 225.863 91.7424 225.478 92.0971 225.203C92.4564 224.923 92.8764 224.783 93.3571 224.783C93.5531 224.783 93.7304 224.806 93.8891 224.853C94.0478 224.895 94.1948 224.956 94.3301 225.035L94.1691 225.966C94.1364 226.083 94.0641 226.141 93.9521 226.141C93.8868 226.141 93.7864 226.12 93.6511 226.078C93.5158 226.031 93.3268 226.008 93.0841 226.008C92.6501 226.008 92.2861 226.134 91.9921 226.386C91.7028 226.638 91.4601 227.004 91.2641 227.485V232H90.0181ZM100.178 232H98.8196V221.969H100.178V232ZM111.555 226.988C111.555 227.739 111.436 228.423 111.198 229.039C110.96 229.655 110.624 230.182 110.19 230.621C109.756 231.06 109.235 231.4 108.629 231.643C108.022 231.881 107.35 232 106.613 232H102.861V221.969H106.613C107.35 221.969 108.022 222.09 108.629 222.333C109.235 222.571 109.756 222.912 110.19 223.355C110.624 223.794 110.96 224.321 111.198 224.937C111.436 225.553 111.555 226.237 111.555 226.988ZM110.162 226.988C110.162 226.372 110.078 225.821 109.91 225.336C109.742 224.851 109.504 224.44 109.196 224.104C108.888 223.768 108.514 223.511 108.076 223.334C107.637 223.157 107.149 223.068 106.613 223.068H104.226V230.901H106.613C107.149 230.901 107.637 230.812 108.076 230.635C108.514 230.458 108.888 230.203 109.196 229.872C109.504 229.536 109.742 229.125 109.91 228.64C110.078 228.155 110.162 227.604 110.162 226.988ZM118.783 224.797C119.301 224.797 119.767 224.883 120.183 225.056C120.603 225.229 120.957 225.474 121.247 225.791C121.541 226.108 121.765 226.493 121.919 226.946C122.077 227.394 122.157 227.896 122.157 228.451C122.157 229.011 122.077 229.515 121.919 229.963C121.765 230.411 121.541 230.794 121.247 231.111C120.957 231.428 120.603 231.673 120.183 231.846C119.767 232.014 119.301 232.098 118.783 232.098C118.265 232.098 117.796 232.014 117.376 231.846C116.96 231.673 116.606 231.428 116.312 231.111C116.018 230.794 115.791 230.411 115.633 229.963C115.474 229.515 115.395 229.011 115.395 228.451C115.395 227.896 115.474 227.394 115.633 226.946C115.791 226.493 116.018 226.108 116.312 225.791C116.606 225.474 116.96 225.229 117.376 225.056C117.796 224.883 118.265 224.797 118.783 224.797ZM118.783 231.125C119.483 231.125 120.005 230.892 120.351 230.425C120.696 229.954 120.869 229.298 120.869 228.458C120.869 227.613 120.696 226.955 120.351 226.484C120.005 226.013 119.483 225.777 118.783 225.777C118.428 225.777 118.12 225.838 117.859 225.959C117.597 226.08 117.378 226.255 117.201 226.484C117.028 226.713 116.897 226.995 116.809 227.331C116.725 227.662 116.683 228.038 116.683 228.458C116.683 228.878 116.725 229.254 116.809 229.585C116.897 229.916 117.028 230.196 117.201 230.425C117.378 230.649 117.597 230.822 117.859 230.943C118.12 231.064 118.428 231.125 118.783 231.125ZM123.692 232V224.909H124.406C124.541 224.909 124.635 224.935 124.686 224.986C124.737 225.037 124.772 225.126 124.791 225.252L124.875 226.358C125.118 225.863 125.416 225.478 125.771 225.203C126.13 224.923 126.55 224.783 127.031 224.783C127.227 224.783 127.404 224.806 127.563 224.853C127.722 224.895 127.869 224.956 128.004 225.035L127.843 225.966C127.81 226.083 127.738 226.141 127.626 226.141C127.561 226.141 127.46 226.12 127.325 226.078C127.19 226.031 127.001 226.008 126.758 226.008C126.324 226.008 125.96 226.134 125.666 226.386C125.377 226.638 125.134 227.004 124.938 227.485V232H123.692ZM132.045 234.401V224.909H132.787C132.965 224.909 133.077 224.995 133.123 225.168L133.228 226.008C133.532 225.639 133.877 225.343 134.264 225.119C134.656 224.895 135.107 224.783 135.615 224.783C136.021 224.783 136.39 224.862 136.721 225.021C137.053 225.175 137.335 225.406 137.568 225.714C137.802 226.017 137.981 226.395 138.107 226.848C138.233 227.301 138.296 227.821 138.296 228.409C138.296 228.932 138.226 229.419 138.086 229.872C137.946 230.32 137.746 230.71 137.484 231.041C137.223 231.368 136.901 231.627 136.518 231.818C136.14 232.005 135.713 232.098 135.237 232.098C134.799 232.098 134.423 232.026 134.11 231.881C133.802 231.736 133.529 231.531 133.291 231.265V234.401H132.045ZM135.202 225.791C134.796 225.791 134.439 225.884 134.131 226.071C133.828 226.258 133.548 226.521 133.291 226.862V230.292C133.52 230.6 133.77 230.817 134.04 230.943C134.316 231.069 134.621 231.132 134.957 231.132C135.615 231.132 136.122 230.896 136.476 230.425C136.831 229.954 137.008 229.282 137.008 228.409C137.008 227.947 136.966 227.55 136.882 227.219C136.803 226.888 136.686 226.617 136.532 226.407C136.378 226.192 136.189 226.036 135.965 225.938C135.741 225.84 135.487 225.791 135.202 225.791ZM144.978 232H144.425C144.304 232 144.206 231.981 144.131 231.944C144.056 231.907 144.007 231.827 143.984 231.706L143.844 231.048C143.657 231.216 143.475 231.368 143.298 231.503C143.121 231.634 142.934 231.746 142.738 231.839C142.542 231.928 142.332 231.995 142.108 232.042C141.889 232.089 141.644 232.112 141.373 232.112C141.098 232.112 140.839 232.075 140.596 232C140.358 231.921 140.15 231.804 139.973 231.65C139.796 231.496 139.653 231.302 139.546 231.069C139.443 230.831 139.392 230.551 139.392 230.229C139.392 229.949 139.469 229.681 139.623 229.424C139.777 229.163 140.024 228.932 140.365 228.731C140.71 228.53 141.161 228.367 141.716 228.241C142.271 228.11 142.95 228.036 143.753 228.017V227.464C143.753 226.913 143.634 226.498 143.396 226.218C143.163 225.933 142.815 225.791 142.353 225.791C142.05 225.791 141.793 225.831 141.583 225.91C141.378 225.985 141.198 226.071 141.044 226.169C140.895 226.262 140.764 226.349 140.652 226.428C140.545 226.503 140.437 226.54 140.33 226.54C140.246 226.54 140.171 226.519 140.106 226.477C140.045 226.43 139.996 226.374 139.959 226.309L139.735 225.91C140.127 225.532 140.549 225.25 141.002 225.063C141.455 224.876 141.956 224.783 142.507 224.783C142.904 224.783 143.256 224.848 143.564 224.979C143.872 225.11 144.131 225.292 144.341 225.525C144.551 225.758 144.71 226.041 144.817 226.372C144.924 226.703 144.978 227.067 144.978 227.464V232ZM141.744 231.237C141.963 231.237 142.164 231.216 142.346 231.174C142.528 231.127 142.698 231.064 142.857 230.985C143.02 230.901 143.174 230.801 143.319 230.684C143.468 230.567 143.613 230.434 143.753 230.285V228.808C143.179 228.827 142.691 228.873 142.29 228.948C141.889 229.018 141.562 229.111 141.31 229.228C141.058 229.345 140.874 229.482 140.757 229.641C140.645 229.8 140.589 229.977 140.589 230.173C140.589 230.36 140.619 230.521 140.68 230.656C140.741 230.791 140.822 230.903 140.925 230.992C141.028 231.076 141.149 231.139 141.289 231.181C141.429 231.218 141.581 231.237 141.744 231.237ZM150.926 226.078C150.87 226.181 150.783 226.232 150.667 226.232C150.597 226.232 150.517 226.206 150.429 226.155C150.34 226.104 150.23 226.048 150.1 225.987C149.974 225.922 149.822 225.863 149.645 225.812C149.467 225.756 149.257 225.728 149.015 225.728C148.805 225.728 148.616 225.756 148.448 225.812C148.28 225.863 148.135 225.936 148.014 226.029C147.897 226.122 147.806 226.232 147.741 226.358C147.68 226.479 147.65 226.612 147.65 226.757C147.65 226.939 147.701 227.091 147.804 227.212C147.911 227.333 148.051 227.438 148.224 227.527C148.396 227.616 148.592 227.695 148.812 227.765C149.031 227.83 149.255 227.903 149.484 227.982C149.717 228.057 149.943 228.141 150.163 228.234C150.382 228.327 150.578 228.444 150.751 228.584C150.923 228.724 151.061 228.897 151.164 229.102C151.271 229.303 151.325 229.545 151.325 229.83C151.325 230.157 151.266 230.46 151.15 230.74C151.033 231.015 150.86 231.256 150.632 231.461C150.403 231.662 150.123 231.82 149.792 231.937C149.46 232.054 149.078 232.112 148.644 232.112C148.149 232.112 147.701 232.033 147.3 231.874C146.898 231.711 146.558 231.503 146.278 231.251L146.572 230.775C146.609 230.714 146.653 230.668 146.705 230.635C146.756 230.602 146.824 230.586 146.908 230.586C146.992 230.586 147.08 230.619 147.174 230.684C147.267 230.749 147.379 230.822 147.51 230.901C147.645 230.98 147.806 231.053 147.993 231.118C148.184 231.183 148.422 231.216 148.707 231.216C148.949 231.216 149.162 231.186 149.344 231.125C149.526 231.06 149.677 230.973 149.799 230.866C149.92 230.759 150.009 230.635 150.065 230.495C150.125 230.355 150.156 230.206 150.156 230.047C150.156 229.851 150.102 229.69 149.995 229.564C149.892 229.433 149.754 229.324 149.582 229.235C149.409 229.142 149.211 229.062 148.987 228.997C148.767 228.927 148.541 228.855 148.308 228.78C148.079 228.705 147.853 228.621 147.629 228.528C147.409 228.43 147.213 228.309 147.041 228.164C146.868 228.019 146.728 227.842 146.621 227.632C146.518 227.417 146.467 227.158 146.467 226.855C146.467 226.584 146.523 226.325 146.635 226.078C146.747 225.826 146.91 225.607 147.125 225.42C147.339 225.229 147.603 225.077 147.916 224.965C148.228 224.853 148.585 224.797 148.987 224.797C149.453 224.797 149.871 224.872 150.24 225.021C150.613 225.166 150.935 225.366 151.206 225.623L150.926 226.078ZM156.996 226.078C156.94 226.181 156.854 226.232 156.737 226.232C156.667 226.232 156.588 226.206 156.499 226.155C156.41 226.104 156.301 226.048 156.17 225.987C156.044 225.922 155.892 225.863 155.715 225.812C155.538 225.756 155.328 225.728 155.085 225.728C154.875 225.728 154.686 225.756 154.518 225.812C154.35 225.863 154.205 225.936 154.084 226.029C153.967 226.122 153.876 226.232 153.811 226.358C153.75 226.479 153.72 226.612 153.72 226.757C153.72 226.939 153.771 227.091 153.874 227.212C153.981 227.333 154.121 227.438 154.294 227.527C154.467 227.616 154.663 227.695 154.882 227.765C155.101 227.83 155.325 227.903 155.554 227.982C155.787 228.057 156.014 228.141 156.233 228.234C156.452 228.327 156.648 228.444 156.821 228.584C156.994 228.724 157.131 228.897 157.234 229.102C157.341 229.303 157.395 229.545 157.395 229.83C157.395 230.157 157.337 230.46 157.22 230.74C157.103 231.015 156.931 231.256 156.702 231.461C156.473 231.662 156.193 231.82 155.862 231.937C155.531 232.054 155.148 232.112 154.714 232.112C154.219 232.112 153.771 232.033 153.37 231.874C152.969 231.711 152.628 231.503 152.348 231.251L152.642 230.775C152.679 230.714 152.724 230.668 152.775 230.635C152.826 230.602 152.894 230.586 152.978 230.586C153.062 230.586 153.151 230.619 153.244 230.684C153.337 230.749 153.449 230.822 153.58 230.901C153.715 230.98 153.876 231.053 154.063 231.118C154.254 231.183 154.492 231.216 154.777 231.216C155.02 231.216 155.232 231.186 155.414 231.125C155.596 231.06 155.748 230.973 155.869 230.866C155.99 230.759 156.079 230.635 156.135 230.495C156.196 230.355 156.226 230.206 156.226 230.047C156.226 229.851 156.172 229.69 156.065 229.564C155.962 229.433 155.825 229.324 155.652 229.235C155.479 229.142 155.281 229.062 155.057 228.997C154.838 228.927 154.611 228.855 154.378 228.78C154.149 228.705 153.923 228.621 153.699 228.528C153.48 228.43 153.284 228.309 153.111 228.164C152.938 228.019 152.798 227.842 152.691 227.632C152.588 227.417 152.537 227.158 152.537 226.855C152.537 226.584 152.593 226.325 152.705 226.078C152.817 225.826 152.98 225.607 153.195 225.42C153.41 225.229 153.673 225.077 153.986 224.965C154.299 224.853 154.656 224.797 155.057 224.797C155.524 224.797 155.941 224.872 156.31 225.021C156.683 225.166 157.005 225.366 157.276 225.623L156.996 226.078ZM158.082 224.909H159.062C159.165 224.909 159.249 224.935 159.314 224.986C159.38 225.037 159.424 225.098 159.447 225.168L160.805 229.732C160.843 229.9 160.878 230.063 160.91 230.222C160.943 230.376 160.971 230.532 160.994 230.691C161.032 230.532 161.074 230.376 161.12 230.222C161.167 230.063 161.216 229.9 161.267 229.732L162.765 225.14C162.789 225.07 162.828 225.012 162.884 224.965C162.945 224.918 163.02 224.895 163.108 224.895H163.647C163.741 224.895 163.818 224.918 163.878 224.965C163.939 225.012 163.981 225.07 164.004 225.14L165.467 229.732C165.519 229.895 165.563 230.056 165.6 230.215C165.642 230.374 165.682 230.53 165.719 230.684C165.743 230.53 165.773 230.369 165.81 230.201C165.848 230.033 165.887 229.877 165.929 229.732L167.315 225.168C167.339 225.093 167.383 225.033 167.448 224.986C167.514 224.935 167.591 224.909 167.679 224.909H168.617L166.321 232H165.334C165.213 232 165.129 231.921 165.082 231.762L163.514 226.953C163.477 226.846 163.447 226.738 163.423 226.631C163.4 226.519 163.377 226.409 163.353 226.302C163.33 226.409 163.307 226.519 163.283 226.631C163.26 226.743 163.23 226.853 163.192 226.96L161.603 231.762C161.552 231.921 161.456 232 161.316 232H160.378L158.082 224.909ZM172.595 224.797C173.113 224.797 173.58 224.883 173.995 225.056C174.415 225.229 174.77 225.474 175.059 225.791C175.353 226.108 175.577 226.493 175.731 226.946C175.89 227.394 175.969 227.896 175.969 228.451C175.969 229.011 175.89 229.515 175.731 229.963C175.577 230.411 175.353 230.794 175.059 231.111C174.77 231.428 174.415 231.673 173.995 231.846C173.58 232.014 173.113 232.098 172.595 232.098C172.077 232.098 171.608 232.014 171.188 231.846C170.773 231.673 170.418 231.428 170.124 231.111C169.83 230.794 169.604 230.411 169.445 229.963C169.286 229.515 169.207 229.011 169.207 228.451C169.207 227.896 169.286 227.394 169.445 226.946C169.604 226.493 169.83 226.108 170.124 225.791C170.418 225.474 170.773 225.229 171.188 225.056C171.608 224.883 172.077 224.797 172.595 224.797ZM172.595 231.125C173.295 231.125 173.818 230.892 174.163 230.425C174.508 229.954 174.681 229.298 174.681 228.458C174.681 227.613 174.508 226.955 174.163 226.484C173.818 226.013 173.295 225.777 172.595 225.777C172.24 225.777 171.932 225.838 171.671 225.959C171.41 226.08 171.19 226.255 171.013 226.484C170.84 226.713 170.71 226.995 170.621 227.331C170.537 227.662 170.495 228.038 170.495 228.458C170.495 228.878 170.537 229.254 170.621 229.585C170.71 229.916 170.84 230.196 171.013 230.425C171.19 230.649 171.41 230.822 171.671 230.943C171.932 231.064 172.24 231.125 172.595 231.125ZM177.504 232V224.909H178.218C178.354 224.909 178.447 224.935 178.498 224.986C178.55 225.037 178.585 225.126 178.603 225.252L178.687 226.358C178.93 225.863 179.229 225.478 179.583 225.203C179.943 224.923 180.363 224.783 180.843 224.783C181.039 224.783 181.217 224.806 181.375 224.853C181.534 224.895 181.681 224.956 181.816 225.035L181.655 225.966C181.623 226.083 181.55 226.141 181.438 226.141C181.373 226.141 181.273 226.12 181.137 226.078C181.002 226.031 180.813 226.008 180.57 226.008C180.136 226.008 179.772 226.134 179.478 226.386C179.189 226.638 178.946 227.004 178.75 227.485V232H177.504ZM188.142 232C187.965 232 187.853 231.914 187.806 231.741L187.694 230.88C187.391 231.249 187.043 231.545 186.651 231.769C186.264 231.988 185.818 232.098 185.314 232.098C184.908 232.098 184.539 232.021 184.208 231.867C183.877 231.708 183.594 231.477 183.361 231.174C183.128 230.871 182.948 230.493 182.822 230.04C182.696 229.587 182.633 229.067 182.633 228.479C182.633 227.956 182.703 227.471 182.843 227.023C182.983 226.57 183.184 226.178 183.445 225.847C183.711 225.516 184.033 225.257 184.411 225.07C184.789 224.879 185.218 224.783 185.699 224.783C186.133 224.783 186.504 224.858 186.812 225.007C187.12 225.152 187.395 225.357 187.638 225.623V221.689H188.884V232H188.142ZM185.727 231.09C186.133 231.09 186.488 230.997 186.791 230.81C187.099 230.623 187.381 230.36 187.638 230.019V226.589C187.409 226.281 187.157 226.066 186.882 225.945C186.611 225.819 186.31 225.756 185.979 225.756C185.316 225.756 184.808 225.992 184.453 226.463C184.098 226.934 183.921 227.606 183.921 228.479C183.921 228.941 183.961 229.338 184.04 229.669C184.119 229.996 184.236 230.266 184.39 230.481C184.544 230.691 184.733 230.845 184.957 230.943C185.181 231.041 185.438 231.09 185.727 231.09ZM190.565 231.23C190.565 231.109 190.586 230.994 190.628 230.887C190.675 230.78 190.736 230.686 190.81 230.607C190.89 230.528 190.983 230.465 191.09 230.418C191.198 230.371 191.312 230.348 191.433 230.348C191.555 230.348 191.669 230.371 191.776 230.418C191.884 230.465 191.977 230.528 192.056 230.607C192.136 230.686 192.196 230.78 192.238 230.887C192.285 230.994 192.308 231.109 192.308 231.23C192.308 231.356 192.285 231.473 192.238 231.58C192.196 231.683 192.136 231.774 192.056 231.853C191.977 231.932 191.884 231.993 191.776 232.035C191.669 232.082 191.555 232.105 191.433 232.105C191.312 232.105 191.198 232.082 191.09 232.035C190.983 231.993 190.89 231.932 190.81 231.853C190.736 231.774 190.675 231.683 190.628 231.58C190.586 231.473 190.565 231.356 190.565 231.23ZM203.673 221.969V223.11H200.432V232H199.074V223.11H195.819V221.969H203.673ZM203.782 232V224.909H204.496C204.631 224.909 204.724 224.935 204.776 224.986C204.827 225.037 204.862 225.126 204.881 225.252L204.965 226.358C205.207 225.863 205.506 225.478 205.861 225.203C206.22 224.923 206.64 224.783 207.121 224.783C207.317 224.783 207.494 224.806 207.653 224.853C207.811 224.895 207.958 224.956 208.094 225.035L207.933 225.966C207.9 226.083 207.828 226.141 207.716 226.141C207.65 226.141 207.55 226.12 207.415 226.078C207.279 226.031 207.09 226.008 206.848 226.008C206.414 226.008 206.05 226.134 205.756 226.386C205.466 226.638 205.224 227.004 205.028 227.485V232H203.782ZM211.507 234.093C211.465 234.186 211.412 234.261 211.346 234.317C211.286 234.373 211.19 234.401 211.059 234.401H210.135L211.43 231.587L208.504 224.909H209.582C209.69 224.909 209.774 224.937 209.834 224.993C209.895 225.044 209.939 225.103 209.967 225.168L211.864 229.634C211.906 229.737 211.941 229.839 211.969 229.942C212.002 230.045 212.03 230.15 212.053 230.257C212.086 230.15 212.119 230.045 212.151 229.942C212.184 229.839 212.221 229.734 212.263 229.627L214.104 225.168C214.132 225.093 214.179 225.033 214.244 224.986C214.314 224.935 214.389 224.909 214.468 224.909H215.462L211.507 234.093ZM224.507 232H223.954C223.833 232 223.735 231.981 223.66 231.944C223.586 231.907 223.537 231.827 223.513 231.706L223.373 231.048C223.187 231.216 223.005 231.368 222.827 231.503C222.65 231.634 222.463 231.746 222.267 231.839C222.071 231.928 221.861 231.995 221.637 232.042C221.418 232.089 221.173 232.112 220.902 232.112C220.627 232.112 220.368 232.075 220.125 232C219.887 231.921 219.68 231.804 219.502 231.65C219.325 231.496 219.183 231.302 219.075 231.069C218.973 230.831 218.921 230.551 218.921 230.229C218.921 229.949 218.998 229.681 219.152 229.424C219.306 229.163 219.554 228.932 219.894 228.731C220.24 228.53 220.69 228.367 221.245 228.241C221.801 228.11 222.48 228.036 223.282 228.017V227.464C223.282 226.913 223.163 226.498 222.925 226.218C222.692 225.933 222.344 225.791 221.882 225.791C221.579 225.791 221.322 225.831 221.112 225.91C220.907 225.985 220.727 226.071 220.573 226.169C220.424 226.262 220.293 226.349 220.181 226.428C220.074 226.503 219.967 226.54 219.859 226.54C219.775 226.54 219.701 226.519 219.635 226.477C219.575 226.43 219.526 226.374 219.488 226.309L219.264 225.91C219.656 225.532 220.079 225.25 220.531 225.063C220.984 224.876 221.486 224.783 222.036 224.783C222.433 224.783 222.785 224.848 223.093 224.979C223.401 225.11 223.66 225.292 223.87 225.525C224.08 225.758 224.239 226.041 224.346 226.372C224.454 226.703 224.507 227.067 224.507 227.464V232ZM221.273 231.237C221.493 231.237 221.693 231.216 221.875 231.174C222.057 231.127 222.228 231.064 222.386 230.985C222.55 230.901 222.704 230.801 222.848 230.684C222.998 230.567 223.142 230.434 223.282 230.285V228.808C222.708 228.827 222.221 228.873 221.819 228.948C221.418 229.018 221.091 229.111 220.839 229.228C220.587 229.345 220.403 229.482 220.286 229.641C220.174 229.8 220.118 229.977 220.118 230.173C220.118 230.36 220.149 230.521 220.209 230.656C220.27 230.791 220.352 230.903 220.454 230.992C220.557 231.076 220.678 231.139 220.818 231.181C220.958 231.218 221.11 231.237 221.273 231.237ZM228.782 224.79C229.09 224.79 229.377 224.825 229.643 224.895C229.914 224.96 230.159 225.058 230.378 225.189H232.303V225.651C232.303 225.805 232.205 225.903 232.009 225.945L231.204 226.057C231.363 226.36 231.442 226.699 231.442 227.072C231.442 227.417 231.374 227.732 231.239 228.017C231.108 228.297 230.924 228.537 230.686 228.738C230.453 228.939 230.173 229.093 229.846 229.2C229.524 229.307 229.169 229.361 228.782 229.361C228.451 229.361 228.138 229.321 227.844 229.242C227.695 229.335 227.58 229.436 227.501 229.543C227.426 229.65 227.389 229.755 227.389 229.858C227.389 230.026 227.457 230.154 227.592 230.243C227.727 230.327 227.907 230.388 228.131 230.425C228.355 230.462 228.609 230.486 228.894 230.495C229.179 230.504 229.468 230.521 229.762 230.544C230.061 230.563 230.352 230.598 230.637 230.649C230.922 230.7 231.176 230.784 231.4 230.901C231.624 231.018 231.804 231.179 231.939 231.384C232.074 231.589 232.142 231.855 232.142 232.182C232.142 232.485 232.065 232.779 231.911 233.064C231.762 233.349 231.545 233.601 231.26 233.82C230.975 234.044 230.628 234.221 230.217 234.352C229.806 234.487 229.342 234.555 228.824 234.555C228.306 234.555 227.851 234.504 227.459 234.401C227.072 234.298 226.75 234.161 226.493 233.988C226.236 233.815 226.043 233.615 225.912 233.386C225.786 233.162 225.723 232.926 225.723 232.679C225.723 232.329 225.833 232.033 226.052 231.79C226.276 231.543 226.582 231.347 226.969 231.202C226.768 231.109 226.607 230.985 226.486 230.831C226.369 230.672 226.311 230.462 226.311 230.201C226.311 230.098 226.33 229.993 226.367 229.886C226.404 229.774 226.46 229.664 226.535 229.557C226.614 229.45 226.71 229.347 226.822 229.249C226.934 229.151 227.065 229.065 227.214 228.99C226.864 228.794 226.589 228.535 226.388 228.213C226.192 227.886 226.094 227.506 226.094 227.072C226.094 226.727 226.159 226.414 226.29 226.134C226.425 225.849 226.612 225.609 226.85 225.413C227.088 225.212 227.37 225.058 227.697 224.951C228.028 224.844 228.39 224.79 228.782 224.79ZM230.994 232.385C230.994 232.208 230.945 232.065 230.847 231.958C230.749 231.851 230.616 231.769 230.448 231.713C230.28 231.652 230.086 231.608 229.867 231.58C229.648 231.552 229.417 231.533 229.174 231.524C228.931 231.51 228.684 231.496 228.432 231.482C228.18 231.468 227.94 231.442 227.711 231.405C227.445 231.531 227.228 231.685 227.06 231.867C226.897 232.049 226.815 232.266 226.815 232.518C226.815 232.677 226.855 232.824 226.934 232.959C227.018 233.099 227.144 233.218 227.312 233.316C227.48 233.419 227.69 233.498 227.942 233.554C228.199 233.615 228.5 233.645 228.845 233.645C229.181 233.645 229.482 233.615 229.748 233.554C230.014 233.493 230.238 233.407 230.42 233.295C230.607 233.183 230.749 233.05 230.847 232.896C230.945 232.742 230.994 232.572 230.994 232.385ZM228.782 228.535C229.034 228.535 229.256 228.5 229.447 228.43C229.643 228.36 229.806 228.262 229.937 228.136C230.068 228.01 230.166 227.861 230.231 227.688C230.296 227.511 230.329 227.317 230.329 227.107C230.329 226.673 230.196 226.328 229.93 226.071C229.669 225.814 229.286 225.686 228.782 225.686C228.283 225.686 227.9 225.814 227.634 226.071C227.373 226.328 227.242 226.673 227.242 227.107C227.242 227.317 227.275 227.511 227.34 227.688C227.41 227.861 227.51 228.01 227.641 228.136C227.772 228.262 227.933 228.36 228.124 228.43C228.315 228.5 228.535 228.535 228.782 228.535ZM238.753 232H238.2C238.079 232 237.981 231.981 237.906 231.944C237.832 231.907 237.783 231.827 237.759 231.706L237.619 231.048C237.433 231.216 237.251 231.368 237.073 231.503C236.896 231.634 236.709 231.746 236.513 231.839C236.317 231.928 236.107 231.995 235.883 232.042C235.664 232.089 235.419 232.112 235.148 232.112C234.873 232.112 234.614 232.075 234.371 232C234.133 231.921 233.926 231.804 233.748 231.65C233.571 231.496 233.429 231.302 233.321 231.069C233.219 230.831 233.167 230.551 233.167 230.229C233.167 229.949 233.244 229.681 233.398 229.424C233.552 229.163 233.8 228.932 234.14 228.731C234.486 228.53 234.936 228.367 235.491 228.241C236.047 228.11 236.726 228.036 237.528 228.017V227.464C237.528 226.913 237.409 226.498 237.171 226.218C236.938 225.933 236.59 225.791 236.128 225.791C235.825 225.791 235.568 225.831 235.358 225.91C235.153 225.985 234.973 226.071 234.819 226.169C234.67 226.262 234.539 226.349 234.427 226.428C234.32 226.503 234.213 226.54 234.105 226.54C234.021 226.54 233.947 226.519 233.881 226.477C233.821 226.43 233.772 226.374 233.734 226.309L233.51 225.91C233.902 225.532 234.325 225.25 234.777 225.063C235.23 224.876 235.732 224.783 236.282 224.783C236.679 224.783 237.031 224.848 237.339 224.979C237.647 225.11 237.906 225.292 238.116 225.525C238.326 225.758 238.485 226.041 238.592 226.372C238.7 226.703 238.753 227.067 238.753 227.464V232ZM235.519 231.237C235.739 231.237 235.939 231.216 236.121 231.174C236.303 231.127 236.474 231.064 236.632 230.985C236.796 230.901 236.95 230.801 237.094 230.684C237.244 230.567 237.388 230.434 237.528 230.285V228.808C236.954 228.827 236.467 228.873 236.065 228.948C235.664 229.018 235.337 229.111 235.085 229.228C234.833 229.345 234.649 229.482 234.532 229.641C234.42 229.8 234.364 229.977 234.364 230.173C234.364 230.36 234.395 230.521 234.455 230.656C234.516 230.791 234.598 230.903 234.7 230.992C234.803 231.076 234.924 231.139 235.064 231.181C235.204 231.218 235.356 231.237 235.519 231.237ZM242.027 224.909V232H240.781V224.909H242.027ZM242.307 222.683C242.307 222.804 242.281 222.919 242.23 223.026C242.183 223.129 242.118 223.222 242.034 223.306C241.955 223.385 241.861 223.448 241.754 223.495C241.647 223.542 241.532 223.565 241.411 223.565C241.29 223.565 241.175 223.542 241.068 223.495C240.965 223.448 240.872 223.385 240.788 223.306C240.709 223.222 240.646 223.129 240.599 223.026C240.552 222.919 240.529 222.804 240.529 222.683C240.529 222.562 240.552 222.447 240.599 222.34C240.646 222.228 240.709 222.132 240.788 222.053C240.872 221.969 240.965 221.904 241.068 221.857C241.175 221.81 241.29 221.787 241.411 221.787C241.532 221.787 241.647 221.81 241.754 221.857C241.861 221.904 241.955 221.969 242.034 222.053C242.118 222.132 242.183 222.228 242.23 222.34C242.281 222.447 242.307 222.562 242.307 222.683ZM244.223 232V224.909H244.965C245.143 224.909 245.255 224.995 245.301 225.168L245.399 225.938C245.707 225.597 246.05 225.322 246.428 225.112C246.811 224.902 247.252 224.797 247.751 224.797C248.139 224.797 248.479 224.862 248.773 224.993C249.072 225.119 249.319 225.301 249.515 225.539C249.716 225.772 249.868 226.055 249.97 226.386C250.073 226.717 250.124 227.084 250.124 227.485V232H248.878V227.485C248.878 226.948 248.755 226.533 248.507 226.239C248.265 225.94 247.891 225.791 247.387 225.791C247.019 225.791 246.673 225.88 246.351 226.057C246.034 226.234 245.74 226.475 245.469 226.778V232H244.223ZM251.596 231.23C251.596 231.109 251.617 230.994 251.659 230.887C251.706 230.78 251.767 230.686 251.841 230.607C251.921 230.528 252.014 230.465 252.121 230.418C252.229 230.371 252.343 230.348 252.464 230.348C252.586 230.348 252.7 230.371 252.807 230.418C252.915 230.465 253.008 230.528 253.087 230.607C253.167 230.686 253.227 230.78 253.269 230.887C253.316 230.994 253.339 231.109 253.339 231.23C253.339 231.356 253.316 231.473 253.269 231.58C253.227 231.683 253.167 231.774 253.087 231.853C253.008 231.932 252.915 231.993 252.807 232.035C252.7 232.082 252.586 232.105 252.464 232.105C252.343 232.105 252.229 232.082 252.121 232.035C252.014 231.993 251.921 231.932 251.841 231.853C251.767 231.774 251.706 231.683 251.659 231.58C251.617 231.473 251.596 231.356 251.596 231.23Z" fill="#FF4944"/>
</svg>
