<svg width="403" height="262" viewBox="0 0 403 262" fill="none" xmlns="http://www.w3.org/2000/svg">
<rect width="403" height="262" fill="white"/>
<rect x="24.5" y="73.5" width="354" height="128" rx="3.5" stroke="#D8D8D8"/>
<path d="M41.752 111.896V120.6C41.752 120.925 41.7093 121.227 41.624 121.504C41.5387 121.787 41.4027 122.032 41.216 122.24C41.0347 122.448 40.7973 122.611 40.504 122.728C40.216 122.851 39.8693 122.912 39.464 122.912C39.288 122.912 39.128 122.899 38.984 122.872C38.84 122.845 38.696 122.805 38.552 122.752L38.616 121.984C38.6267 121.915 38.6507 121.869 38.688 121.848C38.7253 121.832 38.784 121.824 38.864 121.824C38.9067 121.824 38.952 121.824 39 121.824C39.048 121.829 39.1067 121.832 39.176 121.832C39.592 121.832 39.888 121.733 40.064 121.536C40.24 121.344 40.328 121.032 40.328 120.6V111.896H41.752ZM42.072 109.352C42.072 109.491 42.0427 109.621 41.984 109.744C41.9307 109.861 41.856 109.968 41.76 110.064C41.6693 110.155 41.5627 110.227 41.44 110.28C41.3173 110.333 41.1867 110.36 41.048 110.36C40.9093 110.36 40.7787 110.333 40.656 110.28C40.5387 110.227 40.432 110.155 40.336 110.064C40.2453 109.968 40.1733 109.861 40.12 109.744C40.0667 109.621 40.04 109.491 40.04 109.352C40.04 109.213 40.0667 109.083 40.12 108.96C40.1733 108.832 40.2453 108.723 40.336 108.632C40.432 108.536 40.5387 108.461 40.656 108.408C40.7787 108.355 40.9093 108.328 41.048 108.328C41.1867 108.328 41.3173 108.355 41.44 108.408C41.5627 108.461 41.6693 108.536 41.76 108.632C41.856 108.723 41.9307 108.832 41.984 108.96C42.0427 109.083 42.072 109.213 42.072 109.352ZM47.5105 111.768C48.1025 111.768 48.6358 111.867 49.1105 112.064C49.5905 112.261 49.9958 112.541 50.3265 112.904C50.6625 113.267 50.9185 113.707 51.0945 114.224C51.2758 114.736 51.3665 115.309 51.3665 115.944C51.3665 116.584 51.2758 117.16 51.0945 117.672C50.9185 118.184 50.6625 118.621 50.3265 118.984C49.9958 119.347 49.5905 119.627 49.1105 119.824C48.6358 120.016 48.1025 120.112 47.5105 120.112C46.9185 120.112 46.3825 120.016 45.9025 119.824C45.4278 119.627 45.0225 119.347 44.6865 118.984C44.3505 118.621 44.0918 118.184 43.9105 117.672C43.7292 117.16 43.6385 116.584 43.6385 115.944C43.6385 115.309 43.7292 114.736 43.9105 114.224C44.0918 113.707 44.3505 113.267 44.6865 112.904C45.0225 112.541 45.4278 112.261 45.9025 112.064C46.3825 111.867 46.9185 111.768 47.5105 111.768ZM47.5105 119C48.3105 119 48.9078 118.733 49.3025 118.2C49.6972 117.661 49.8945 116.912 49.8945 115.952C49.8945 114.987 49.6972 114.235 49.3025 113.696C48.9078 113.157 48.3105 112.888 47.5105 112.888C47.1052 112.888 46.7532 112.957 46.4545 113.096C46.1558 113.235 45.9052 113.435 45.7025 113.696C45.5052 113.957 45.3558 114.28 45.2545 114.664C45.1585 115.043 45.1105 115.472 45.1105 115.952C45.1105 116.432 45.1585 116.861 45.2545 117.24C45.3558 117.619 45.5052 117.939 45.7025 118.2C45.9052 118.456 46.1558 118.653 46.4545 118.792C46.7532 118.931 47.1052 119 47.5105 119ZM53.1211 120V108.216H54.5451V112.984C54.8918 112.616 55.2758 112.323 55.6971 112.104C56.1185 111.88 56.6038 111.768 57.1531 111.768C57.5958 111.768 57.9851 111.843 58.3211 111.992C58.6625 112.136 58.9451 112.344 59.1691 112.616C59.3985 112.883 59.5718 113.205 59.6891 113.584C59.8065 113.963 59.8651 114.381 59.8651 114.84V120H58.4411V114.84C58.4411 114.227 58.2998 113.752 58.0171 113.416C57.7398 113.075 57.3131 112.904 56.7371 112.904C56.3158 112.904 55.9211 113.005 55.5531 113.208C55.1905 113.411 54.8545 113.685 54.5451 114.032V120H53.1211ZM62.0118 120V111.896H62.8598C63.0624 111.896 63.1904 111.995 63.2438 112.192L63.3558 113.072C63.7078 112.683 64.0998 112.368 64.5318 112.128C64.9691 111.888 65.4731 111.768 66.0438 111.768C66.4864 111.768 66.8758 111.843 67.2118 111.992C67.5531 112.136 67.8358 112.344 68.0598 112.616C68.2891 112.883 68.4624 113.205 68.5798 113.584C68.6971 113.963 68.7558 114.381 68.7558 114.84V120H67.3318V114.84C67.3318 114.227 67.1904 113.752 66.9078 113.416C66.6304 113.075 66.2038 112.904 65.6278 112.904C65.2064 112.904 64.8118 113.005 64.4438 113.208C64.0811 113.411 63.7451 113.685 63.4358 114.032V120H62.0118ZM70.4384 119.12C70.4384 118.981 70.4624 118.851 70.5104 118.728C70.5637 118.605 70.633 118.499 70.7184 118.408C70.809 118.317 70.9157 118.245 71.0384 118.192C71.161 118.139 71.2917 118.112 71.4304 118.112C71.569 118.112 71.6997 118.139 71.8224 118.192C71.945 118.245 72.0517 118.317 72.1424 118.408C72.233 118.499 72.3024 118.605 72.3504 118.728C72.4037 118.851 72.4304 118.981 72.4304 119.12C72.4304 119.264 72.4037 119.397 72.3504 119.52C72.3024 119.637 72.233 119.741 72.1424 119.832C72.0517 119.923 71.945 119.992 71.8224 120.04C71.6997 120.093 71.569 120.12 71.4304 120.12C71.2917 120.12 71.161 120.093 71.0384 120.04C70.9157 119.992 70.809 119.923 70.7184 119.832C70.633 119.741 70.5637 119.637 70.5104 119.52C70.4624 119.397 70.4384 119.264 70.4384 119.12ZM79.997 120C79.7943 120 79.6663 119.901 79.613 119.704L79.485 118.72C79.1383 119.141 78.741 119.48 78.293 119.736C77.8503 119.987 77.341 120.112 76.765 120.112C76.301 120.112 75.8797 120.024 75.501 119.848C75.1223 119.667 74.7997 119.403 74.533 119.056C74.2663 118.709 74.061 118.277 73.917 117.76C73.773 117.243 73.701 116.648 73.701 115.976C73.701 115.379 73.781 114.824 73.941 114.312C74.101 113.795 74.3303 113.347 74.629 112.968C74.933 112.589 75.301 112.293 75.733 112.08C76.165 111.861 76.6557 111.752 77.205 111.752C77.701 111.752 78.125 111.837 78.477 112.008C78.829 112.173 79.1437 112.408 79.421 112.712V108.216H80.845V120H79.997ZM77.237 118.96C77.701 118.96 78.1063 118.853 78.453 118.64C78.805 118.427 79.1277 118.125 79.421 117.736V113.816C79.1597 113.464 78.8717 113.219 78.557 113.08C78.2477 112.936 77.9037 112.864 77.525 112.864C76.7677 112.864 76.1863 113.133 75.781 113.672C75.3757 114.211 75.173 114.979 75.173 115.976C75.173 116.504 75.2183 116.957 75.309 117.336C75.3997 117.709 75.533 118.019 75.709 118.264C75.885 118.504 76.101 118.68 76.357 118.792C76.613 118.904 76.9063 118.96 77.237 118.96ZM86.5105 111.768C87.1025 111.768 87.6358 111.867 88.1105 112.064C88.5905 112.261 88.9958 112.541 89.3265 112.904C89.6625 113.267 89.9185 113.707 90.0945 114.224C90.2758 114.736 90.3665 115.309 90.3665 115.944C90.3665 116.584 90.2758 117.16 90.0945 117.672C89.9185 118.184 89.6625 118.621 89.3265 118.984C88.9958 119.347 88.5905 119.627 88.1105 119.824C87.6358 120.016 87.1025 120.112 86.5105 120.112C85.9185 120.112 85.3825 120.016 84.9025 119.824C84.4278 119.627 84.0225 119.347 83.6865 118.984C83.3505 118.621 83.0918 118.184 82.9105 117.672C82.7292 117.16 82.6385 116.584 82.6385 115.944C82.6385 115.309 82.7292 114.736 82.9105 114.224C83.0918 113.707 83.3505 113.267 83.6865 112.904C84.0225 112.541 84.4278 112.261 84.9025 112.064C85.3825 111.867 85.9185 111.768 86.5105 111.768ZM86.5105 119C87.3105 119 87.9078 118.733 88.3025 118.2C88.6972 117.661 88.8945 116.912 88.8945 115.952C88.8945 114.987 88.6972 114.235 88.3025 113.696C87.9078 113.157 87.3105 112.888 86.5105 112.888C86.1052 112.888 85.7532 112.957 85.4545 113.096C85.1558 113.235 84.9052 113.435 84.7025 113.696C84.5052 113.957 84.3558 114.28 84.2545 114.664C84.1585 115.043 84.1105 115.472 84.1105 115.952C84.1105 116.432 84.1585 116.861 84.2545 117.24C84.3558 117.619 84.5052 117.939 84.7025 118.2C84.9052 118.456 85.1558 118.653 85.4545 118.792C85.7532 118.931 86.1052 119 86.5105 119ZM95.3291 111.768C95.8145 111.768 96.2625 111.851 96.6731 112.016C97.0838 112.176 97.4385 112.411 97.7371 112.72C98.0358 113.024 98.2678 113.403 98.4331 113.856C98.6038 114.304 98.6891 114.816 98.6891 115.392C98.6891 115.616 98.6651 115.765 98.6171 115.84C98.5691 115.915 98.4785 115.952 98.3451 115.952H92.9531C92.9638 116.464 93.0331 116.909 93.1611 117.288C93.2891 117.667 93.4651 117.984 93.6891 118.24C93.9131 118.491 94.1798 118.68 94.4891 118.808C94.7985 118.931 95.1451 118.992 95.5291 118.992C95.8865 118.992 96.1931 118.952 96.4491 118.872C96.7105 118.787 96.9345 118.696 97.1211 118.6C97.3078 118.504 97.4625 118.416 97.5851 118.336C97.7131 118.251 97.8225 118.208 97.9131 118.208C98.0305 118.208 98.1211 118.253 98.1851 118.344L98.5851 118.864C98.4091 119.077 98.1985 119.264 97.9531 119.424C97.7078 119.579 97.4438 119.707 97.1611 119.808C96.8838 119.909 96.5958 119.984 96.2971 120.032C95.9985 120.085 95.7025 120.112 95.4091 120.112C94.8491 120.112 94.3318 120.019 93.8571 119.832C93.3878 119.64 92.9798 119.363 92.6331 119C92.2918 118.632 92.0251 118.179 91.8331 117.64C91.6411 117.101 91.5451 116.483 91.5451 115.784C91.5451 115.219 91.6305 114.691 91.8011 114.2C91.9771 113.709 92.2278 113.285 92.5531 112.928C92.8785 112.565 93.2758 112.283 93.7451 112.08C94.2145 111.872 94.7425 111.768 95.3291 111.768ZM95.3611 112.816C94.6731 112.816 94.1318 113.016 93.7371 113.416C93.3425 113.811 93.0971 114.36 93.0011 115.064H97.4091C97.4091 114.733 97.3638 114.432 97.2731 114.16C97.1825 113.883 97.0491 113.645 96.8731 113.448C96.6971 113.245 96.4811 113.091 96.2251 112.984C95.9745 112.872 95.6865 112.816 95.3611 112.816ZM108.68 118.512C108.264 118.512 107.925 118.413 107.664 118.216C107.402 118.013 107.237 117.704 107.168 117.288C106.858 117.72 106.522 118.029 106.16 118.216C105.797 118.403 105.408 118.496 104.992 118.496C104.672 118.496 104.394 118.443 104.16 118.336C103.925 118.224 103.728 118.072 103.568 117.88C103.413 117.683 103.296 117.451 103.216 117.184C103.141 116.917 103.104 116.629 103.104 116.32C103.104 115.867 103.189 115.411 103.36 114.952C103.536 114.488 103.794 114.072 104.136 113.704C104.477 113.331 104.901 113.027 105.408 112.792C105.92 112.557 106.509 112.44 107.176 112.44C107.533 112.44 107.845 112.469 108.112 112.528C108.384 112.581 108.64 112.661 108.88 112.768L108.136 115.656C108.034 116.056 107.984 116.387 107.984 116.648C107.984 116.84 108.008 117 108.056 117.128C108.104 117.251 108.168 117.349 108.248 117.424C108.333 117.493 108.429 117.541 108.536 117.568C108.648 117.595 108.765 117.608 108.888 117.608C109.149 117.608 109.397 117.533 109.632 117.384C109.866 117.235 110.072 117.024 110.248 116.752C110.429 116.48 110.57 116.155 110.672 115.776C110.778 115.392 110.832 114.968 110.832 114.504C110.832 113.768 110.712 113.123 110.472 112.568C110.237 112.013 109.912 111.552 109.496 111.184C109.085 110.811 108.597 110.533 108.032 110.352C107.472 110.165 106.866 110.072 106.216 110.072C105.501 110.072 104.832 110.208 104.208 110.48C103.584 110.752 103.04 111.128 102.576 111.608C102.112 112.088 101.746 112.656 101.48 113.312C101.213 113.968 101.08 114.683 101.08 115.456C101.08 116.363 101.221 117.16 101.504 117.848C101.792 118.531 102.181 119.104 102.672 119.568C103.168 120.032 103.746 120.381 104.408 120.616C105.074 120.851 105.789 120.968 106.552 120.968C107.362 120.968 108.077 120.88 108.696 120.704C109.32 120.528 109.858 120.304 110.312 120.032C110.392 119.984 110.464 119.96 110.528 119.96C110.64 119.96 110.722 120.024 110.776 120.152L110.976 120.68C110.405 121.064 109.754 121.365 109.024 121.584C108.298 121.803 107.474 121.912 106.552 121.912C105.629 121.912 104.77 121.765 103.976 121.472C103.181 121.179 102.49 120.755 101.904 120.2C101.322 119.651 100.864 118.976 100.528 118.176C100.197 117.376 100.032 116.469 100.032 115.456C100.032 114.875 100.104 114.315 100.248 113.776C100.397 113.237 100.605 112.736 100.872 112.272C101.138 111.803 101.458 111.376 101.832 110.992C102.205 110.603 102.621 110.272 103.08 110C103.538 109.723 104.032 109.509 104.56 109.36C105.088 109.205 105.64 109.128 106.216 109.128C106.706 109.128 107.186 109.181 107.656 109.288C108.125 109.395 108.568 109.552 108.984 109.76C109.405 109.968 109.792 110.227 110.144 110.536C110.496 110.84 110.797 111.192 111.048 111.592C111.304 111.987 111.501 112.429 111.64 112.92C111.784 113.405 111.856 113.933 111.856 114.504C111.856 115.08 111.773 115.613 111.608 116.104C111.448 116.589 111.224 117.011 110.936 117.368C110.653 117.725 110.317 118.005 109.928 118.208C109.544 118.411 109.128 118.512 108.68 118.512ZM105.272 117.552C105.437 117.552 105.602 117.525 105.768 117.472C105.938 117.419 106.101 117.325 106.256 117.192C106.416 117.059 106.56 116.877 106.688 116.648C106.821 116.419 106.933 116.131 107.024 115.784L107.632 113.424C107.424 113.376 107.197 113.352 106.952 113.352C106.552 113.352 106.184 113.437 105.848 113.608C105.517 113.773 105.232 113.992 104.992 114.264C104.752 114.536 104.562 114.848 104.424 115.2C104.29 115.552 104.224 115.912 104.224 116.28C104.224 116.664 104.312 116.973 104.488 117.208C104.664 117.437 104.925 117.552 105.272 117.552ZM112.612 111.896H113.732C113.849 111.896 113.945 111.925 114.02 111.984C114.095 112.043 114.145 112.112 114.172 112.192L115.724 117.408C115.767 117.6 115.807 117.787 115.844 117.968C115.881 118.144 115.913 118.323 115.94 118.504C115.983 118.323 116.031 118.144 116.084 117.968C116.137 117.787 116.193 117.6 116.252 117.408L117.964 112.16C117.991 112.08 118.036 112.013 118.1 111.96C118.169 111.907 118.255 111.88 118.356 111.88H118.972C119.079 111.88 119.167 111.907 119.236 111.96C119.305 112.013 119.353 112.08 119.38 112.16L121.052 117.408C121.111 117.595 121.161 117.779 121.204 117.96C121.252 118.141 121.297 118.32 121.34 118.496C121.367 118.32 121.401 118.136 121.444 117.944C121.487 117.752 121.532 117.573 121.58 117.408L123.164 112.192C123.191 112.107 123.241 112.037 123.316 111.984C123.391 111.925 123.479 111.896 123.58 111.896H124.652L122.028 120H120.9C120.761 120 120.665 119.909 120.612 119.728L118.82 114.232C118.777 114.109 118.743 113.987 118.716 113.864C118.689 113.736 118.663 113.611 118.636 113.488C118.609 113.611 118.583 113.736 118.556 113.864C118.529 113.992 118.495 114.117 118.452 114.24L116.636 119.728C116.577 119.909 116.468 120 116.308 120H115.236L112.612 111.896ZM129.126 111.768C129.611 111.768 130.059 111.851 130.47 112.016C130.881 112.176 131.235 112.411 131.534 112.72C131.833 113.024 132.065 113.403 132.23 113.856C132.401 114.304 132.486 114.816 132.486 115.392C132.486 115.616 132.462 115.765 132.414 115.84C132.366 115.915 132.275 115.952 132.142 115.952H126.75C126.761 116.464 126.83 116.909 126.958 117.288C127.086 117.667 127.262 117.984 127.486 118.24C127.71 118.491 127.977 118.68 128.286 118.808C128.595 118.931 128.942 118.992 129.326 118.992C129.683 118.992 129.99 118.952 130.246 118.872C130.507 118.787 130.731 118.696 130.918 118.6C131.105 118.504 131.259 118.416 131.382 118.336C131.51 118.251 131.619 118.208 131.71 118.208C131.827 118.208 131.918 118.253 131.982 118.344L132.382 118.864C132.206 119.077 131.995 119.264 131.75 119.424C131.505 119.579 131.241 119.707 130.958 119.808C130.681 119.909 130.393 119.984 130.094 120.032C129.795 120.085 129.499 120.112 129.206 120.112C128.646 120.112 128.129 120.019 127.654 119.832C127.185 119.64 126.777 119.363 126.43 119C126.089 118.632 125.822 118.179 125.63 117.64C125.438 117.101 125.342 116.483 125.342 115.784C125.342 115.219 125.427 114.691 125.598 114.2C125.774 113.709 126.025 113.285 126.35 112.928C126.675 112.565 127.073 112.283 127.542 112.08C128.011 111.872 128.539 111.768 129.126 111.768ZM129.158 112.816C128.47 112.816 127.929 113.016 127.534 113.416C127.139 113.811 126.894 114.36 126.798 115.064H131.206C131.206 114.733 131.161 114.432 131.07 114.16C130.979 113.883 130.846 113.645 130.67 113.448C130.494 113.245 130.278 113.091 130.022 112.984C129.771 112.872 129.483 112.816 129.158 112.816ZM134.309 120V111.896H135.125C135.279 111.896 135.386 111.925 135.445 111.984C135.503 112.043 135.543 112.144 135.565 112.288L135.661 113.552C135.938 112.987 136.279 112.547 136.685 112.232C137.095 111.912 137.575 111.752 138.125 111.752C138.349 111.752 138.551 111.779 138.733 111.832C138.914 111.88 139.082 111.949 139.237 112.04L139.053 113.104C139.015 113.237 138.933 113.304 138.805 113.304C138.73 113.304 138.615 113.28 138.461 113.232C138.306 113.179 138.09 113.152 137.813 113.152C137.317 113.152 136.901 113.296 136.565 113.584C136.234 113.872 135.957 114.291 135.733 114.84V120H134.309ZM141.082 120V113.112L140.186 113.008C140.074 112.981 139.98 112.941 139.906 112.888C139.836 112.829 139.802 112.747 139.802 112.64V112.056H141.082V111.272C141.082 110.808 141.146 110.397 141.274 110.04C141.407 109.677 141.594 109.373 141.834 109.128C142.079 108.877 142.372 108.688 142.714 108.56C143.055 108.432 143.439 108.368 143.866 108.368C144.228 108.368 144.564 108.421 144.874 108.528L144.842 109.24C144.836 109.347 144.791 109.411 144.706 109.432C144.62 109.453 144.5 109.464 144.346 109.464H144.098C143.852 109.464 143.628 109.496 143.426 109.56C143.228 109.624 143.058 109.728 142.914 109.872C142.77 110.016 142.658 110.205 142.578 110.44C142.503 110.675 142.466 110.965 142.466 111.312V112.056H144.81V113.088H142.514V120H141.082ZM149.36 111.768C149.846 111.768 150.294 111.851 150.704 112.016C151.115 112.176 151.47 112.411 151.768 112.72C152.067 113.024 152.299 113.403 152.464 113.856C152.635 114.304 152.72 114.816 152.72 115.392C152.72 115.616 152.696 115.765 152.648 115.84C152.6 115.915 152.51 115.952 152.376 115.952H146.984C146.995 116.464 147.064 116.909 147.192 117.288C147.32 117.667 147.496 117.984 147.72 118.24C147.944 118.491 148.211 118.68 148.52 118.808C148.83 118.931 149.176 118.992 149.56 118.992C149.918 118.992 150.224 118.952 150.48 118.872C150.742 118.787 150.966 118.696 151.152 118.6C151.339 118.504 151.494 118.416 151.616 118.336C151.744 118.251 151.854 118.208 151.944 118.208C152.062 118.208 152.152 118.253 152.216 118.344L152.616 118.864C152.44 119.077 152.23 119.264 151.984 119.424C151.739 119.579 151.475 119.707 151.192 119.808C150.915 119.909 150.627 119.984 150.328 120.032C150.03 120.085 149.734 120.112 149.44 120.112C148.88 120.112 148.363 120.019 147.888 119.832C147.419 119.64 147.011 119.363 146.664 119C146.323 118.632 146.056 118.179 145.864 117.64C145.672 117.101 145.576 116.483 145.576 115.784C145.576 115.219 145.662 114.691 145.832 114.2C146.008 113.709 146.259 113.285 146.584 112.928C146.91 112.565 147.307 112.283 147.776 112.08C148.246 111.872 148.774 111.768 149.36 111.768ZM149.392 112.816C148.704 112.816 148.163 113.016 147.768 113.416C147.374 113.811 147.128 114.36 147.032 115.064H151.44C151.44 114.733 151.395 114.432 151.304 114.16C151.214 113.883 151.08 113.645 150.904 113.448C150.728 113.245 150.512 113.091 150.256 112.984C150.006 112.872 149.718 112.816 149.392 112.816ZM154.543 120V111.896H155.391C155.594 111.896 155.722 111.995 155.775 112.192L155.887 113.072C156.239 112.683 156.631 112.368 157.063 112.128C157.5 111.888 158.004 111.768 158.575 111.768C159.018 111.768 159.407 111.843 159.743 111.992C160.084 112.136 160.367 112.344 160.591 112.616C160.82 112.883 160.994 113.205 161.111 113.584C161.228 113.963 161.287 114.381 161.287 114.84V120H159.863V114.84C159.863 114.227 159.722 113.752 159.439 113.416C159.162 113.075 158.735 112.904 158.159 112.904C157.738 112.904 157.343 113.005 156.975 113.208C156.612 113.411 156.276 113.685 155.967 114.032V120H154.543ZM162.97 119.12C162.97 118.981 162.994 118.851 163.042 118.728C163.095 118.605 163.164 118.499 163.25 118.408C163.34 118.317 163.447 118.245 163.57 118.192C163.692 118.139 163.823 118.112 163.962 118.112C164.1 118.112 164.231 118.139 164.354 118.192C164.476 118.245 164.583 118.317 164.674 118.408C164.764 118.499 164.834 118.605 164.882 118.728C164.935 118.851 164.962 118.981 164.962 119.12C164.962 119.264 164.935 119.397 164.882 119.52C164.834 119.637 164.764 119.741 164.674 119.832C164.583 119.923 164.476 119.992 164.354 120.04C164.231 120.093 164.1 120.12 163.962 120.12C163.823 120.12 163.692 120.093 163.57 120.04C163.447 119.992 163.34 119.923 163.25 119.832C163.164 119.741 163.095 119.637 163.042 119.52C162.994 119.397 162.97 119.264 162.97 119.12ZM172.352 113.336C172.31 113.395 172.267 113.44 172.224 113.472C172.182 113.504 172.12 113.52 172.04 113.52C171.96 113.52 171.872 113.488 171.776 113.424C171.686 113.355 171.568 113.28 171.424 113.2C171.28 113.12 171.104 113.048 170.896 112.984C170.694 112.915 170.443 112.88 170.144 112.88C169.75 112.88 169.4 112.952 169.096 113.096C168.792 113.235 168.536 113.437 168.328 113.704C168.126 113.971 167.971 114.293 167.864 114.672C167.763 115.051 167.712 115.475 167.712 115.944C167.712 116.435 167.768 116.872 167.88 117.256C167.992 117.635 168.15 117.955 168.352 118.216C168.555 118.472 168.8 118.669 169.088 118.808C169.382 118.941 169.71 119.008 170.072 119.008C170.419 119.008 170.704 118.968 170.928 118.888C171.152 118.803 171.339 118.709 171.488 118.608C171.638 118.507 171.76 118.416 171.856 118.336C171.952 118.251 172.048 118.208 172.144 118.208C172.267 118.208 172.358 118.253 172.416 118.344L172.816 118.864C172.464 119.296 172.024 119.613 171.496 119.816C170.968 120.013 170.411 120.112 169.824 120.112C169.318 120.112 168.846 120.019 168.408 119.832C167.976 119.645 167.6 119.376 167.28 119.024C166.96 118.667 166.707 118.229 166.52 117.712C166.339 117.195 166.248 116.605 166.248 115.944C166.248 115.341 166.331 114.784 166.496 114.272C166.667 113.76 166.912 113.32 167.232 112.952C167.558 112.579 167.958 112.288 168.432 112.08C168.907 111.872 169.451 111.768 170.064 111.768C170.63 111.768 171.131 111.861 171.568 112.048C172.006 112.229 172.392 112.488 172.728 112.824L172.352 113.336ZM177.573 111.768C178.165 111.768 178.698 111.867 179.173 112.064C179.653 112.261 180.058 112.541 180.389 112.904C180.725 113.267 180.981 113.707 181.157 114.224C181.338 114.736 181.429 115.309 181.429 115.944C181.429 116.584 181.338 117.16 181.157 117.672C180.981 118.184 180.725 118.621 180.389 118.984C180.058 119.347 179.653 119.627 179.173 119.824C178.698 120.016 178.165 120.112 177.573 120.112C176.981 120.112 176.445 120.016 175.965 119.824C175.49 119.627 175.085 119.347 174.749 118.984C174.413 118.621 174.154 118.184 173.973 117.672C173.792 117.16 173.701 116.584 173.701 115.944C173.701 115.309 173.792 114.736 173.973 114.224C174.154 113.707 174.413 113.267 174.749 112.904C175.085 112.541 175.49 112.261 175.965 112.064C176.445 111.867 176.981 111.768 177.573 111.768ZM177.573 119C178.373 119 178.97 118.733 179.365 118.2C179.76 117.661 179.957 116.912 179.957 115.952C179.957 114.987 179.76 114.235 179.365 113.696C178.97 113.157 178.373 112.888 177.573 112.888C177.168 112.888 176.816 112.957 176.517 113.096C176.218 113.235 175.968 113.435 175.765 113.696C175.568 113.957 175.418 114.28 175.317 114.664C175.221 115.043 175.173 115.472 175.173 115.952C175.173 116.432 175.221 116.861 175.317 117.24C175.418 117.619 175.568 117.939 175.765 118.2C175.968 118.456 176.218 118.653 176.517 118.792C176.816 118.931 177.168 119 177.573 119ZM183.184 120V111.896H184.032C184.234 111.896 184.362 111.995 184.416 112.192L184.52 113.024C184.818 112.656 185.152 112.355 185.52 112.12C185.893 111.885 186.325 111.768 186.816 111.768C187.365 111.768 187.808 111.92 188.144 112.224C188.485 112.528 188.73 112.939 188.88 113.456C188.992 113.163 189.138 112.909 189.32 112.696C189.506 112.483 189.714 112.307 189.944 112.168C190.173 112.029 190.416 111.928 190.672 111.864C190.933 111.8 191.197 111.768 191.464 111.768C191.89 111.768 192.269 111.837 192.6 111.976C192.936 112.109 193.218 112.307 193.448 112.568C193.682 112.829 193.861 113.152 193.984 113.536C194.106 113.915 194.168 114.349 194.168 114.84V120H192.744V114.84C192.744 114.205 192.605 113.725 192.328 113.4C192.05 113.069 191.648 112.904 191.12 112.904C190.885 112.904 190.661 112.947 190.448 113.032C190.24 113.112 190.056 113.232 189.896 113.392C189.736 113.552 189.608 113.755 189.512 114C189.421 114.24 189.376 114.52 189.376 114.84V120H187.952V114.84C187.952 114.189 187.821 113.704 187.56 113.384C187.298 113.064 186.917 112.904 186.416 112.904C186.064 112.904 185.736 113 185.432 113.192C185.133 113.379 184.858 113.635 184.608 113.96V120H183.184Z" fill="#979797"/>
<path d="M43.386 96.076C43.742 96.076 44.06 96.016 44.34 95.896C44.62 95.776 44.856 95.608 45.048 95.392C45.244 95.176 45.392 94.918 45.492 94.618C45.596 94.318 45.648 93.988 45.648 93.628V88.402H46.806V93.628C46.806 94.124 46.726 94.584 46.566 95.008C46.41 95.432 46.184 95.8 45.888 96.112C45.596 96.42 45.238 96.662 44.814 96.838C44.39 97.014 43.914 97.102 43.386 97.102C42.858 97.102 42.382 97.014 41.958 96.838C41.534 96.662 41.174 96.42 40.878 96.112C40.582 95.8 40.354 95.432 40.194 95.008C40.038 94.584 39.96 94.124 39.96 93.628V88.402H41.118V93.622C41.118 93.982 41.168 94.312 41.268 94.612C41.372 94.912 41.52 95.17 41.712 95.386C41.908 95.602 42.146 95.772 42.426 95.896C42.71 96.016 43.03 96.076 43.386 96.076ZM52.6216 91.924C52.5736 92.012 52.4996 92.056 52.3996 92.056C52.3396 92.056 52.2716 92.034 52.1956 91.99C52.1196 91.946 52.0256 91.898 51.9136 91.846C51.8056 91.79 51.6756 91.74 51.5236 91.696C51.3716 91.648 51.1916 91.624 50.9836 91.624C50.8036 91.624 50.6416 91.648 50.4976 91.696C50.3536 91.74 50.2296 91.802 50.1256 91.882C50.0256 91.962 49.9476 92.056 49.8916 92.164C49.8396 92.268 49.8136 92.382 49.8136 92.506C49.8136 92.662 49.8576 92.792 49.9456 92.896C50.0376 93 50.1576 93.09 50.3056 93.166C50.4536 93.242 50.6216 93.31 50.8096 93.37C50.9976 93.426 51.1896 93.488 51.3856 93.556C51.5856 93.62 51.7796 93.692 51.9676 93.772C52.1556 93.852 52.3236 93.952 52.4716 94.072C52.6196 94.192 52.7376 94.34 52.8256 94.516C52.9176 94.688 52.9636 94.896 52.9636 95.14C52.9636 95.42 52.9136 95.68 52.8136 95.92C52.7136 96.156 52.5656 96.362 52.3696 96.538C52.1736 96.71 51.9336 96.846 51.6496 96.946C51.3656 97.046 51.0376 97.096 50.6656 97.096C50.2416 97.096 49.8576 97.028 49.5136 96.892C49.1696 96.752 48.8776 96.574 48.6376 96.358L48.8896 95.95C48.9216 95.898 48.9596 95.858 49.0036 95.83C49.0476 95.802 49.1056 95.788 49.1776 95.788C49.2496 95.788 49.3256 95.816 49.4056 95.872C49.4856 95.928 49.5816 95.99 49.6936 96.058C49.8096 96.126 49.9476 96.188 50.1076 96.244C50.2716 96.3 50.4756 96.328 50.7196 96.328C50.9276 96.328 51.1096 96.302 51.2656 96.25C51.4216 96.194 51.5516 96.12 51.6556 96.028C51.7596 95.936 51.8356 95.83 51.8836 95.71C51.9356 95.59 51.9616 95.462 51.9616 95.326C51.9616 95.158 51.9156 95.02 51.8236 94.912C51.7356 94.8 51.6176 94.706 51.4696 94.63C51.3216 94.55 51.1516 94.482 50.9596 94.426C50.7716 94.366 50.5776 94.304 50.3776 94.24C50.1816 94.176 49.9876 94.104 49.7956 94.024C49.6076 93.94 49.4396 93.836 49.2916 93.712C49.1436 93.588 49.0236 93.436 48.9316 93.256C48.8436 93.072 48.7996 92.85 48.7996 92.59C48.7996 92.358 48.8476 92.136 48.9436 91.924C49.0396 91.708 49.1796 91.52 49.3636 91.36C49.5476 91.196 49.7736 91.066 50.0416 90.97C50.3096 90.874 50.6156 90.826 50.9596 90.826C51.3596 90.826 51.7176 90.89 52.0336 91.018C52.3536 91.142 52.6296 91.314 52.8616 91.534L52.6216 91.924ZM57.2508 90.826C57.6148 90.826 57.9508 90.888 58.2588 91.012C58.5668 91.132 58.8328 91.308 59.0568 91.54C59.2808 91.768 59.4548 92.052 59.5788 92.392C59.7068 92.728 59.7708 93.112 59.7708 93.544C59.7708 93.712 59.7528 93.824 59.7168 93.88C59.6808 93.936 59.6128 93.964 59.5128 93.964H55.4688C55.4768 94.348 55.5288 94.682 55.6248 94.966C55.7208 95.25 55.8528 95.488 56.0208 95.68C56.1888 95.868 56.3888 96.01 56.6208 96.106C56.8528 96.198 57.1128 96.244 57.4008 96.244C57.6688 96.244 57.8988 96.214 58.0908 96.154C58.2868 96.09 58.4548 96.022 58.5948 95.95C58.7348 95.878 58.8508 95.812 58.9428 95.752C59.0388 95.688 59.1208 95.656 59.1888 95.656C59.2768 95.656 59.3448 95.69 59.3928 95.758L59.6928 96.148C59.5608 96.308 59.4028 96.448 59.2188 96.568C59.0348 96.684 58.8368 96.78 58.6248 96.856C58.4168 96.932 58.2008 96.988 57.9768 97.024C57.7528 97.064 57.5308 97.084 57.3108 97.084C56.8908 97.084 56.5028 97.014 56.1468 96.874C55.7948 96.73 55.4888 96.522 55.2288 96.25C54.9728 95.974 54.7728 95.634 54.6288 95.23C54.4848 94.826 54.4128 94.362 54.4128 93.838C54.4128 93.414 54.4768 93.018 54.6048 92.65C54.7368 92.282 54.9248 91.964 55.1688 91.696C55.4128 91.424 55.7108 91.212 56.0628 91.06C56.4148 90.904 56.8108 90.826 57.2508 90.826ZM57.2747 91.612C56.7588 91.612 56.3528 91.762 56.0568 92.062C55.7608 92.358 55.5768 92.77 55.5048 93.298H58.8108C58.8108 93.05 58.7768 92.824 58.7088 92.62C58.6408 92.412 58.5408 92.234 58.4088 92.086C58.2768 91.934 58.1148 91.818 57.9228 91.738C57.7348 91.654 57.5188 91.612 57.2747 91.612ZM61.6377 97V90.922H62.2497C62.3657 90.922 62.4457 90.944 62.4897 90.988C62.5337 91.032 62.5637 91.108 62.5797 91.216L62.6517 92.164C62.8597 91.74 63.1157 91.41 63.4197 91.174C63.7277 90.934 64.0877 90.814 64.4997 90.814C64.6677 90.814 64.8197 90.834 64.9557 90.874C65.0917 90.91 65.2177 90.962 65.3337 91.03L65.1957 91.828C65.1677 91.928 65.1057 91.978 65.0097 91.978C64.9537 91.978 64.8677 91.96 64.7517 91.924C64.6357 91.884 64.4737 91.864 64.2657 91.864C63.8937 91.864 63.5817 91.972 63.3297 92.188C63.0817 92.404 62.8737 92.718 62.7057 93.13V97H61.6377ZM71.3459 97H70.1819V88.402H71.3459V97ZM81.5976 92.704C81.5976 93.348 81.4956 93.934 81.2916 94.462C81.0876 94.99 80.7996 95.442 80.4276 95.818C80.0556 96.194 79.6096 96.486 79.0896 96.694C78.5696 96.898 77.9936 97 77.3616 97H74.1456V88.402H77.3616C77.9936 88.402 78.5696 88.506 79.0896 88.714C79.6096 88.918 80.0556 89.21 80.4276 89.59C80.7996 89.966 81.0876 90.418 81.2916 90.946C81.4956 91.474 81.5976 92.06 81.5976 92.704ZM80.4036 92.704C80.4036 92.176 80.3316 91.704 80.1876 91.288C80.0436 90.872 79.8396 90.52 79.5756 90.232C79.3116 89.944 78.9916 89.724 78.6156 89.572C78.2396 89.42 77.8216 89.344 77.3616 89.344H75.3156V96.058H77.3616C77.8216 96.058 78.2396 95.982 78.6156 95.83C78.9916 95.678 79.3116 95.46 79.5756 95.176C79.8396 94.888 80.0436 94.536 80.1876 94.12C80.3316 93.704 80.4036 93.232 80.4036 92.704Z" fill="black"/>
<path d="M40.736 180.698C40.736 180.409 40.7873 180.133 40.89 179.872C41.002 179.611 41.1513 179.387 41.338 179.2C41.534 179.013 41.758 178.864 42.01 178.752C42.262 178.64 42.528 178.584 42.808 178.584C43.0973 178.584 43.3727 178.64 43.634 178.752C43.8953 178.864 44.1193 179.013 44.306 179.2C44.4927 179.387 44.642 179.611 44.754 179.872C44.866 180.133 44.922 180.409 44.922 180.698C44.922 180.978 44.866 181.244 44.754 181.496C44.642 181.748 44.4927 181.972 44.306 182.168C44.1193 182.355 43.8953 182.504 43.634 182.616C43.3727 182.719 43.0973 182.77 42.808 182.77C42.528 182.77 42.262 182.719 42.01 182.616C41.758 182.504 41.534 182.355 41.338 182.168C41.1513 181.972 41.002 181.748 40.89 181.496C40.7873 181.244 40.736 180.978 40.736 180.698ZM48.3923 180.698C48.3923 180.409 48.4436 180.133 48.5463 179.872C48.6583 179.611 48.8076 179.387 48.9943 179.2C49.1903 179.013 49.4143 178.864 49.6663 178.752C49.9183 178.64 50.1843 178.584 50.4643 178.584C50.7536 178.584 51.0289 178.64 51.2903 178.752C51.5516 178.864 51.7756 179.013 51.9623 179.2C52.1489 179.387 52.2983 179.611 52.4103 179.872C52.5223 180.133 52.5783 180.409 52.5783 180.698C52.5783 180.978 52.5223 181.244 52.4103 181.496C52.2983 181.748 52.1489 181.972 51.9623 182.168C51.7756 182.355 51.5516 182.504 51.2903 182.616C51.0289 182.719 50.7536 182.77 50.4643 182.77C50.1843 182.77 49.9183 182.719 49.6663 182.616C49.4143 182.504 49.1903 182.355 48.9943 182.168C48.8076 181.972 48.6583 181.748 48.5463 181.496C48.4436 181.244 48.3923 180.978 48.3923 180.698ZM56.0485 180.698C56.0485 180.409 56.0998 180.133 56.2025 179.872C56.3145 179.611 56.4638 179.387 56.6505 179.2C56.8465 179.013 57.0705 178.864 57.3225 178.752C57.5745 178.64 57.8405 178.584 58.1205 178.584C58.4098 178.584 58.6852 178.64 58.9465 178.752C59.2078 178.864 59.4318 179.013 59.6185 179.2C59.8052 179.387 59.9545 179.611 60.0665 179.872C60.1785 180.133 60.2345 180.409 60.2345 180.698C60.2345 180.978 60.1785 181.244 60.0665 181.496C59.9545 181.748 59.8052 181.972 59.6185 182.168C59.4318 182.355 59.2078 182.504 58.9465 182.616C58.6852 182.719 58.4098 182.77 58.1205 182.77C57.8405 182.77 57.5745 182.719 57.3225 182.616C57.0705 182.504 56.8465 182.355 56.6505 182.168C56.4638 181.972 56.3145 181.748 56.2025 181.496C56.0998 181.244 56.0485 180.978 56.0485 180.698ZM63.7048 180.698C63.7048 180.409 63.7561 180.133 63.8588 179.872C63.9708 179.611 64.1201 179.387 64.3068 179.2C64.5028 179.013 64.7268 178.864 64.9788 178.752C65.2308 178.64 65.4968 178.584 65.7768 178.584C66.0661 178.584 66.3414 178.64 66.6028 178.752C66.8641 178.864 67.0881 179.013 67.2748 179.2C67.4614 179.387 67.6108 179.611 67.7228 179.872C67.8348 180.133 67.8908 180.409 67.8908 180.698C67.8908 180.978 67.8348 181.244 67.7228 181.496C67.6108 181.748 67.4614 181.972 67.2748 182.168C67.0881 182.355 66.8641 182.504 66.6028 182.616C66.3414 182.719 66.0661 182.77 65.7768 182.77C65.4968 182.77 65.2308 182.719 64.9788 182.616C64.7268 182.504 64.5028 182.355 64.3068 182.168C64.1201 181.972 63.9708 181.748 63.8588 181.496C63.7561 181.244 63.7048 180.978 63.7048 180.698ZM71.361 180.698C71.361 180.409 71.4123 180.133 71.515 179.872C71.627 179.611 71.7763 179.387 71.963 179.2C72.159 179.013 72.383 178.864 72.635 178.752C72.887 178.64 73.153 178.584 73.433 178.584C73.7223 178.584 73.9977 178.64 74.259 178.752C74.5203 178.864 74.7443 179.013 74.931 179.2C75.1177 179.387 75.267 179.611 75.379 179.872C75.491 180.133 75.547 180.409 75.547 180.698C75.547 180.978 75.491 181.244 75.379 181.496C75.267 181.748 75.1177 181.972 74.931 182.168C74.7443 182.355 74.5203 182.504 74.259 182.616C73.9977 182.719 73.7223 182.77 73.433 182.77C73.153 182.77 72.887 182.719 72.635 182.616C72.383 182.504 72.159 182.355 71.963 182.168C71.7763 181.972 71.627 181.748 71.515 181.496C71.4123 181.244 71.361 180.978 71.361 180.698ZM79.0173 180.698C79.0173 180.409 79.0686 180.133 79.1713 179.872C79.2833 179.611 79.4326 179.387 79.6193 179.2C79.8153 179.013 80.0393 178.864 80.2913 178.752C80.5433 178.64 80.8093 178.584 81.0893 178.584C81.3786 178.584 81.6539 178.64 81.9153 178.752C82.1766 178.864 82.4006 179.013 82.5873 179.2C82.7739 179.387 82.9233 179.611 83.0353 179.872C83.1473 180.133 83.2033 180.409 83.2033 180.698C83.2033 180.978 83.1473 181.244 83.0353 181.496C82.9233 181.748 82.7739 181.972 82.5873 182.168C82.4006 182.355 82.1766 182.504 81.9153 182.616C81.6539 182.719 81.3786 182.77 81.0893 182.77C80.8093 182.77 80.5433 182.719 80.2913 182.616C80.0393 182.504 79.8153 182.355 79.6193 182.168C79.4326 181.972 79.2833 181.748 79.1713 181.496C79.0686 181.244 79.0173 180.978 79.0173 180.698ZM86.6735 180.698C86.6735 180.409 86.7248 180.133 86.8275 179.872C86.9395 179.611 87.0888 179.387 87.2755 179.2C87.4715 179.013 87.6955 178.864 87.9475 178.752C88.1995 178.64 88.4655 178.584 88.7455 178.584C89.0348 178.584 89.3102 178.64 89.5715 178.752C89.8328 178.864 90.0568 179.013 90.2435 179.2C90.4302 179.387 90.5795 179.611 90.6915 179.872C90.8035 180.133 90.8595 180.409 90.8595 180.698C90.8595 180.978 90.8035 181.244 90.6915 181.496C90.5795 181.748 90.4302 181.972 90.2435 182.168C90.0568 182.355 89.8328 182.504 89.5715 182.616C89.3102 182.719 89.0348 182.77 88.7455 182.77C88.4655 182.77 88.1995 182.719 87.9475 182.616C87.6955 182.504 87.4715 182.355 87.2755 182.168C87.0888 181.972 86.9395 181.748 86.8275 181.496C86.7248 181.244 86.6735 180.978 86.6735 180.698ZM94.3298 180.698C94.3298 180.409 94.3811 180.133 94.4838 179.872C94.5958 179.611 94.7451 179.387 94.9318 179.2C95.1278 179.013 95.3518 178.864 95.6038 178.752C95.8558 178.64 96.1218 178.584 96.4018 178.584C96.6911 178.584 96.9664 178.64 97.2278 178.752C97.4891 178.864 97.7131 179.013 97.8998 179.2C98.0864 179.387 98.2358 179.611 98.3478 179.872C98.4598 180.133 98.5158 180.409 98.5158 180.698C98.5158 180.978 98.4598 181.244 98.3478 181.496C98.2358 181.748 98.0864 181.972 97.8998 182.168C97.7131 182.355 97.4891 182.504 97.2278 182.616C96.9664 182.719 96.6911 182.77 96.4018 182.77C96.1218 182.77 95.8558 182.719 95.6038 182.616C95.3518 182.504 95.1278 182.355 94.9318 182.168C94.7451 181.972 94.5958 181.748 94.4838 181.496C94.3811 181.244 94.3298 180.978 94.3298 180.698ZM101.986 180.698C101.986 180.409 102.037 180.133 102.14 179.872C102.252 179.611 102.401 179.387 102.588 179.2C102.784 179.013 103.008 178.864 103.26 178.752C103.512 178.64 103.778 178.584 104.058 178.584C104.347 178.584 104.623 178.64 104.884 178.752C105.145 178.864 105.369 179.013 105.556 179.2C105.743 179.387 105.892 179.611 106.004 179.872C106.116 180.133 106.172 180.409 106.172 180.698C106.172 180.978 106.116 181.244 106.004 181.496C105.892 181.748 105.743 181.972 105.556 182.168C105.369 182.355 105.145 182.504 104.884 182.616C104.623 182.719 104.347 182.77 104.058 182.77C103.778 182.77 103.512 182.719 103.26 182.616C103.008 182.504 102.784 182.355 102.588 182.168C102.401 181.972 102.252 181.748 102.14 181.496C102.037 181.244 101.986 180.978 101.986 180.698ZM109.642 180.698C109.642 180.409 109.694 180.133 109.796 179.872C109.908 179.611 110.058 179.387 110.244 179.2C110.44 179.013 110.664 178.864 110.916 178.752C111.168 178.64 111.434 178.584 111.714 178.584C112.004 178.584 112.279 178.64 112.54 178.752C112.802 178.864 113.026 179.013 113.212 179.2C113.399 179.387 113.548 179.611 113.66 179.872C113.772 180.133 113.828 180.409 113.828 180.698C113.828 180.978 113.772 181.244 113.66 181.496C113.548 181.748 113.399 181.972 113.212 182.168C113.026 182.355 112.802 182.504 112.54 182.616C112.279 182.719 112.004 182.77 111.714 182.77C111.434 182.77 111.168 182.719 110.916 182.616C110.664 182.504 110.44 182.355 110.244 182.168C110.058 181.972 109.908 181.748 109.796 181.496C109.694 181.244 109.642 180.978 109.642 180.698ZM117.299 180.698C117.299 180.409 117.35 180.133 117.453 179.872C117.565 179.611 117.714 179.387 117.901 179.2C118.097 179.013 118.321 178.864 118.573 178.752C118.825 178.64 119.091 178.584 119.371 178.584C119.66 178.584 119.935 178.64 120.197 178.752C120.458 178.864 120.682 179.013 120.869 179.2C121.055 179.387 121.205 179.611 121.317 179.872C121.429 180.133 121.485 180.409 121.485 180.698C121.485 180.978 121.429 181.244 121.317 181.496C121.205 181.748 121.055 181.972 120.869 182.168C120.682 182.355 120.458 182.504 120.197 182.616C119.935 182.719 119.66 182.77 119.371 182.77C119.091 182.77 118.825 182.719 118.573 182.616C118.321 182.504 118.097 182.355 117.901 182.168C117.714 181.972 117.565 181.748 117.453 181.496C117.35 181.244 117.299 180.978 117.299 180.698ZM124.955 180.698C124.955 180.409 125.006 180.133 125.109 179.872C125.221 179.611 125.37 179.387 125.557 179.2C125.753 179.013 125.977 178.864 126.229 178.752C126.481 178.64 126.747 178.584 127.027 178.584C127.316 178.584 127.591 178.64 127.853 178.752C128.114 178.864 128.338 179.013 128.525 179.2C128.711 179.387 128.861 179.611 128.973 179.872C129.085 180.133 129.141 180.409 129.141 180.698C129.141 180.978 129.085 181.244 128.973 181.496C128.861 181.748 128.711 181.972 128.525 182.168C128.338 182.355 128.114 182.504 127.853 182.616C127.591 182.719 127.316 182.77 127.027 182.77C126.747 182.77 126.481 182.719 126.229 182.616C125.977 182.504 125.753 182.355 125.557 182.168C125.37 181.972 125.221 181.748 125.109 181.496C125.006 181.244 124.955 180.978 124.955 180.698Z" fill="#979797"/>
<path d="M41.322 160.784V164H40.164V155.402H42.702C43.246 155.402 43.718 155.466 44.118 155.594C44.522 155.718 44.856 155.896 45.12 156.128C45.384 156.36 45.58 156.64 45.708 156.968C45.84 157.296 45.906 157.662 45.906 158.066C45.906 158.466 45.836 158.832 45.696 159.164C45.556 159.496 45.35 159.782 45.078 160.022C44.81 160.262 44.476 160.45 44.076 160.586C43.676 160.718 43.218 160.784 42.702 160.784H41.322ZM41.322 159.86H42.702C43.034 159.86 43.326 159.816 43.578 159.728C43.834 159.64 44.048 159.518 44.22 159.362C44.392 159.202 44.522 159.012 44.61 158.792C44.698 158.572 44.742 158.33 44.742 158.066C44.742 157.518 44.572 157.09 44.232 156.782C43.896 156.474 43.386 156.32 42.702 156.32H41.322V159.86ZM51.8713 164H51.3973C51.2933 164 51.2093 163.984 51.1453 163.952C51.0813 163.92 51.0393 163.852 51.0193 163.748L50.8993 163.184C50.7393 163.328 50.5833 163.458 50.4313 163.574C50.2793 163.686 50.1193 163.782 49.9513 163.862C49.7833 163.938 49.6033 163.996 49.4113 164.036C49.2233 164.076 49.0133 164.096 48.7813 164.096C48.5453 164.096 48.3233 164.064 48.1152 164C47.9113 163.932 47.7333 163.832 47.5813 163.7C47.4293 163.568 47.3073 163.402 47.2153 163.202C47.1273 162.998 47.0833 162.758 47.0833 162.482C47.0833 162.242 47.1493 162.012 47.2812 161.792C47.4133 161.568 47.6253 161.37 47.9173 161.198C48.2133 161.026 48.5993 160.886 49.0753 160.778C49.5513 160.666 50.1333 160.602 50.8213 160.586V160.112C50.8213 159.64 50.7193 159.284 50.5153 159.044C50.3153 158.8 50.0173 158.678 49.6213 158.678C49.3613 158.678 49.1413 158.712 48.9613 158.78C48.7853 158.844 48.6313 158.918 48.4993 159.002C48.3713 159.082 48.2593 159.156 48.1633 159.224C48.0713 159.288 47.9793 159.32 47.8873 159.32C47.8153 159.32 47.7513 159.302 47.6953 159.266C47.6433 159.226 47.6013 159.178 47.5693 159.122L47.3773 158.78C47.7133 158.456 48.0753 158.214 48.4633 158.054C48.8513 157.894 49.2813 157.814 49.7533 157.814C50.0933 157.814 50.3953 157.87 50.6593 157.982C50.9233 158.094 51.1453 158.25 51.3253 158.45C51.5053 158.65 51.6413 158.892 51.7333 159.176C51.8253 159.46 51.8713 159.772 51.8713 160.112V164ZM49.0993 163.346C49.2873 163.346 49.4593 163.328 49.6152 163.292C49.7713 163.252 49.9173 163.198 50.0533 163.13C50.1933 163.058 50.3253 162.972 50.4493 162.872C50.5773 162.772 50.7013 162.658 50.8213 162.53V161.264C50.3293 161.28 49.9113 161.32 49.5673 161.384C49.2233 161.444 48.9433 161.524 48.7273 161.624C48.5113 161.724 48.3533 161.842 48.2533 161.978C48.1573 162.114 48.1093 162.266 48.1093 162.434C48.1093 162.594 48.1353 162.732 48.1873 162.848C48.2393 162.964 48.3093 163.06 48.3973 163.136C48.4853 163.208 48.5893 163.262 48.7093 163.298C48.8293 163.33 48.9593 163.346 49.0993 163.346ZM57.4693 158.924C57.4213 159.012 57.3473 159.056 57.2473 159.056C57.1873 159.056 57.1193 159.034 57.0433 158.99C56.9673 158.946 56.8733 158.898 56.7613 158.846C56.6533 158.79 56.5233 158.74 56.3713 158.696C56.2193 158.648 56.0393 158.624 55.8313 158.624C55.6513 158.624 55.4893 158.648 55.3453 158.696C55.2013 158.74 55.0773 158.802 54.9733 158.882C54.8733 158.962 54.7953 159.056 54.7393 159.164C54.6873 159.268 54.6613 159.382 54.6613 159.506C54.6613 159.662 54.7053 159.792 54.7933 159.896C54.8853 160 55.0053 160.09 55.1533 160.166C55.3013 160.242 55.4693 160.31 55.6573 160.37C55.8453 160.426 56.0373 160.488 56.2333 160.556C56.4333 160.62 56.6273 160.692 56.8153 160.772C57.0033 160.852 57.1713 160.952 57.3193 161.072C57.4673 161.192 57.5853 161.34 57.6733 161.516C57.7653 161.688 57.8113 161.896 57.8113 162.14C57.8113 162.42 57.7613 162.68 57.6613 162.92C57.5613 163.156 57.4133 163.362 57.2173 163.538C57.0213 163.71 56.7813 163.846 56.4973 163.946C56.2133 164.046 55.8853 164.096 55.5133 164.096C55.0893 164.096 54.7053 164.028 54.3613 163.892C54.0173 163.752 53.7253 163.574 53.4853 163.358L53.7373 162.95C53.7693 162.898 53.8073 162.858 53.8513 162.83C53.8953 162.802 53.9533 162.788 54.0253 162.788C54.0973 162.788 54.1733 162.816 54.2533 162.872C54.3333 162.928 54.4293 162.99 54.5413 163.058C54.6573 163.126 54.7953 163.188 54.9553 163.244C55.1193 163.3 55.3233 163.328 55.5673 163.328C55.7753 163.328 55.9573 163.302 56.1133 163.25C56.2693 163.194 56.3993 163.12 56.5033 163.028C56.6073 162.936 56.6833 162.83 56.7313 162.71C56.7833 162.59 56.8093 162.462 56.8093 162.326C56.8093 162.158 56.7633 162.02 56.6713 161.912C56.5833 161.8 56.4653 161.706 56.3173 161.63C56.1693 161.55 55.9993 161.482 55.8073 161.426C55.6193 161.366 55.4253 161.304 55.2253 161.24C55.0293 161.176 54.8353 161.104 54.6433 161.024C54.4553 160.94 54.2873 160.836 54.1393 160.712C53.9913 160.588 53.8713 160.436 53.7793 160.256C53.6913 160.072 53.6473 159.85 53.6473 159.59C53.6473 159.358 53.6953 159.136 53.7913 158.924C53.8873 158.708 54.0273 158.52 54.2113 158.36C54.3953 158.196 54.6213 158.066 54.8893 157.97C55.1573 157.874 55.4633 157.826 55.8073 157.826C56.2073 157.826 56.5653 157.89 56.8813 158.018C57.2013 158.142 57.4773 158.314 57.7093 158.534L57.4693 158.924ZM63.1724 158.924C63.1244 159.012 63.0504 159.056 62.9504 159.056C62.8904 159.056 62.8224 159.034 62.7464 158.99C62.6704 158.946 62.5764 158.898 62.4644 158.846C62.3564 158.79 62.2264 158.74 62.0744 158.696C61.9224 158.648 61.7424 158.624 61.5344 158.624C61.3544 158.624 61.1924 158.648 61.0484 158.696C60.9044 158.74 60.7804 158.802 60.6764 158.882C60.5764 158.962 60.4984 159.056 60.4424 159.164C60.3904 159.268 60.3644 159.382 60.3644 159.506C60.3644 159.662 60.4084 159.792 60.4964 159.896C60.5884 160 60.7084 160.09 60.8564 160.166C61.0044 160.242 61.1724 160.31 61.3604 160.37C61.5484 160.426 61.7404 160.488 61.9364 160.556C62.1364 160.62 62.3304 160.692 62.5184 160.772C62.7064 160.852 62.8744 160.952 63.0224 161.072C63.1704 161.192 63.2884 161.34 63.3764 161.516C63.4684 161.688 63.5144 161.896 63.5144 162.14C63.5144 162.42 63.4644 162.68 63.3644 162.92C63.2644 163.156 63.1164 163.362 62.9204 163.538C62.7244 163.71 62.4844 163.846 62.2004 163.946C61.9164 164.046 61.5884 164.096 61.2164 164.096C60.7924 164.096 60.4084 164.028 60.0644 163.892C59.7204 163.752 59.4284 163.574 59.1884 163.358L59.4404 162.95C59.4724 162.898 59.5104 162.858 59.5544 162.83C59.5984 162.802 59.6564 162.788 59.7284 162.788C59.8004 162.788 59.8764 162.816 59.9564 162.872C60.0364 162.928 60.1324 162.99 60.2444 163.058C60.3604 163.126 60.4984 163.188 60.6584 163.244C60.8224 163.3 61.0264 163.328 61.2704 163.328C61.4784 163.328 61.6604 163.302 61.8164 163.25C61.9724 163.194 62.1024 163.12 62.2064 163.028C62.3104 162.936 62.3864 162.83 62.4344 162.71C62.4864 162.59 62.5124 162.462 62.5124 162.326C62.5124 162.158 62.4664 162.02 62.3744 161.912C62.2864 161.8 62.1684 161.706 62.0204 161.63C61.8724 161.55 61.7024 161.482 61.5104 161.426C61.3224 161.366 61.1284 161.304 60.9284 161.24C60.7324 161.176 60.5384 161.104 60.3464 161.024C60.1584 160.94 59.9904 160.836 59.8424 160.712C59.6944 160.588 59.5744 160.436 59.4824 160.256C59.3944 160.072 59.3504 159.85 59.3504 159.59C59.3504 159.358 59.3984 159.136 59.4944 158.924C59.5904 158.708 59.7304 158.52 59.9144 158.36C60.0984 158.196 60.3244 158.066 60.5924 157.97C60.8604 157.874 61.1664 157.826 61.5104 157.826C61.9104 157.826 62.2684 157.89 62.5844 158.018C62.9044 158.142 63.1804 158.314 63.4124 158.534L63.1724 158.924ZM64.6035 157.922H65.4435C65.5315 157.922 65.6035 157.944 65.6595 157.988C65.7155 158.032 65.7535 158.084 65.7735 158.144L66.9375 162.056C66.9695 162.2 66.9995 162.34 67.0275 162.476C67.0555 162.608 67.0795 162.742 67.0995 162.878C67.1315 162.742 67.1675 162.608 67.2075 162.476C67.2475 162.34 67.2895 162.2 67.3335 162.056L68.6175 158.12C68.6375 158.06 68.6715 158.01 68.7195 157.97C68.7715 157.93 68.8355 157.91 68.9115 157.91H69.3735C69.4535 157.91 69.5195 157.93 69.5715 157.97C69.6235 158.01 69.6595 158.06 69.6795 158.12L70.9335 162.056C70.9775 162.196 71.0155 162.334 71.0475 162.47C71.0835 162.606 71.1175 162.74 71.1495 162.872C71.1695 162.74 71.1955 162.602 71.2275 162.458C71.2595 162.314 71.2935 162.18 71.3295 162.056L72.5175 158.144C72.5375 158.08 72.5755 158.028 72.6315 157.988C72.6875 157.944 72.7535 157.922 72.8295 157.922H73.6335L71.6655 164H70.8195C70.7155 164 70.6435 163.932 70.6035 163.796L69.2595 159.674C69.2275 159.582 69.2015 159.49 69.1815 159.398C69.1615 159.302 69.1415 159.208 69.1215 159.116C69.1015 159.208 69.0815 159.302 69.0615 159.398C69.0415 159.494 69.0155 159.588 68.9835 159.68L67.6215 163.796C67.5775 163.932 67.4955 164 67.3755 164H66.5715L64.6035 157.922ZM77.543 157.826C77.987 157.826 78.387 157.9 78.743 158.048C79.103 158.196 79.407 158.406 79.655 158.678C79.907 158.95 80.099 159.28 80.231 159.668C80.367 160.052 80.435 160.482 80.435 160.958C80.435 161.438 80.367 161.87 80.231 162.254C80.099 162.638 79.907 162.966 79.655 163.238C79.407 163.51 79.103 163.72 78.743 163.868C78.387 164.012 77.987 164.084 77.543 164.084C77.099 164.084 76.697 164.012 76.337 163.868C75.981 163.72 75.677 163.51 75.425 163.238C75.173 162.966 74.979 162.638 74.843 162.254C74.707 161.87 74.639 161.438 74.639 160.958C74.639 160.482 74.707 160.052 74.843 159.668C74.979 159.28 75.173 158.95 75.425 158.678C75.677 158.406 75.981 158.196 76.337 158.048C76.697 157.9 77.099 157.826 77.543 157.826ZM77.543 163.25C78.143 163.25 78.591 163.05 78.887 162.65C79.183 162.246 79.331 161.684 79.331 160.964C79.331 160.24 79.183 159.676 78.887 159.272C78.591 158.868 78.143 158.666 77.543 158.666C77.239 158.666 76.975 158.718 76.751 158.822C76.527 158.926 76.339 159.076 76.187 159.272C76.039 159.468 75.927 159.71 75.851 159.998C75.779 160.282 75.743 160.604 75.743 160.964C75.743 161.324 75.779 161.646 75.851 161.93C75.927 162.214 76.039 162.454 76.187 162.65C76.339 162.842 76.527 162.99 76.751 163.094C76.975 163.198 77.239 163.25 77.543 163.25ZM82.251 164V157.922H82.863C82.979 157.922 83.059 157.944 83.103 157.988C83.147 158.032 83.177 158.108 83.193 158.216L83.265 159.164C83.473 158.74 83.729 158.41 84.033 158.174C84.341 157.934 84.701 157.814 85.113 157.814C85.281 157.814 85.433 157.834 85.569 157.874C85.705 157.91 85.831 157.962 85.947 158.03L85.809 158.828C85.781 158.928 85.719 158.978 85.623 158.978C85.567 158.978 85.481 158.96 85.365 158.924C85.249 158.884 85.087 158.864 84.879 158.864C84.507 158.864 84.195 158.972 83.943 159.188C83.695 159.404 83.487 159.718 83.319 160.13V164H82.251ZM91.8688 164C91.7168 164 91.6208 163.926 91.5808 163.778L91.4848 163.04C91.2248 163.356 90.9268 163.61 90.5908 163.802C90.2588 163.99 89.8768 164.084 89.4448 164.084C89.0968 164.084 88.7808 164.018 88.4968 163.886C88.2128 163.75 87.9708 163.552 87.7708 163.292C87.5708 163.032 87.4168 162.708 87.3088 162.32C87.2008 161.932 87.1468 161.486 87.1468 160.982C87.1468 160.534 87.2068 160.118 87.3268 159.734C87.4468 159.346 87.6188 159.01 87.8428 158.726C88.0708 158.442 88.3468 158.22 88.6708 158.06C88.9948 157.896 89.3628 157.814 89.7748 157.814C90.1468 157.814 90.4648 157.878 90.7288 158.006C90.9928 158.13 91.2288 158.306 91.4368 158.534V155.162H92.5048V164H91.8688ZM89.7988 163.22C90.1468 163.22 90.4508 163.14 90.7108 162.98C90.9748 162.82 91.2168 162.594 91.4368 162.302V159.362C91.2408 159.098 91.0248 158.914 90.7888 158.81C90.5568 158.702 90.2988 158.648 90.0148 158.648C89.4468 158.648 89.0108 158.85 88.7068 159.254C88.4028 159.658 88.2508 160.234 88.2508 160.982C88.2508 161.378 88.2848 161.718 88.3528 162.002C88.4208 162.282 88.5208 162.514 88.6528 162.698C88.7848 162.878 88.9468 163.01 89.1388 163.094C89.3308 163.178 89.5508 163.22 89.7988 163.22Z" fill="black"/>
<path d="M29.152 52.718H37.832V55H26.436V34.938H29.152V52.718ZM45.6746 40.594C46.7106 40.594 47.644 40.7667 48.4746 41.112C49.3146 41.4573 50.024 41.9473 50.6026 42.582C51.1906 43.2167 51.6386 43.9867 51.9466 44.892C52.264 45.788 52.4226 46.7913 52.4226 47.902C52.4226 49.022 52.264 50.03 51.9466 50.926C51.6386 51.822 51.1906 52.5873 50.6026 53.222C50.024 53.8567 49.3146 54.3467 48.4746 54.692C47.644 55.028 46.7106 55.196 45.6746 55.196C44.6386 55.196 43.7006 55.028 42.8606 54.692C42.03 54.3467 41.3206 53.8567 40.7326 53.222C40.1446 52.5873 39.692 51.822 39.3746 50.926C39.0573 50.03 38.8986 49.022 38.8986 47.902C38.8986 46.7913 39.0573 45.788 39.3746 44.892C39.692 43.9867 40.1446 43.2167 40.7326 42.582C41.3206 41.9473 42.03 41.4573 42.8606 41.112C43.7006 40.7667 44.6386 40.594 45.6746 40.594ZM45.6746 53.25C47.0746 53.25 48.12 52.7833 48.8106 51.85C49.5013 50.9073 49.8466 49.596 49.8466 47.916C49.8466 46.2267 49.5013 44.9107 48.8106 43.968C48.12 43.0253 47.0746 42.554 45.6746 42.554C44.9653 42.554 44.3493 42.6753 43.8266 42.918C43.304 43.1607 42.8653 43.5107 42.5106 43.968C42.1653 44.4253 41.904 44.99 41.7266 45.662C41.5586 46.3247 41.4746 47.076 41.4746 47.916C41.4746 48.756 41.5586 49.5073 41.7266 50.17C41.904 50.8327 42.1653 51.3927 42.5106 51.85C42.8653 52.298 43.304 52.6433 43.8266 52.886C44.3493 53.1287 44.9653 53.25 45.6746 53.25ZM60.2672 40.58C60.8832 40.58 61.4572 40.65 61.9892 40.79C62.5306 40.9207 63.0206 41.1167 63.4592 41.378H67.3092V42.302C67.3092 42.61 67.1132 42.806 66.7212 42.89L65.1112 43.114C65.4286 43.7207 65.5872 44.3973 65.5872 45.144C65.5872 45.8347 65.4519 46.4647 65.1812 47.034C64.9199 47.594 64.5512 48.0747 64.0752 48.476C63.6086 48.8773 63.0486 49.1853 62.3952 49.4C61.7512 49.6147 61.0419 49.722 60.2672 49.722C59.6046 49.722 58.9792 49.6427 58.3912 49.484C58.0926 49.6707 57.8639 49.8713 57.7052 50.086C57.5559 50.3007 57.4812 50.5107 57.4812 50.716C57.4812 51.052 57.6166 51.3087 57.8872 51.486C58.1579 51.654 58.5172 51.7753 58.9652 51.85C59.4132 51.9247 59.9219 51.9713 60.4912 51.99C61.0606 52.0087 61.6392 52.0413 62.2272 52.088C62.8246 52.1253 63.4079 52.1953 63.9772 52.298C64.5466 52.4007 65.0552 52.5687 65.5032 52.802C65.9512 53.0353 66.3106 53.3573 66.5812 53.768C66.8519 54.1787 66.9872 54.7107 66.9872 55.364C66.9872 55.9707 66.8332 56.5587 66.5252 57.128C66.2266 57.6973 65.7926 58.2013 65.2232 58.64C64.6539 59.088 63.9586 59.4427 63.1372 59.704C62.3159 59.9747 61.3872 60.11 60.3512 60.11C59.3152 60.11 58.4052 60.0073 57.6212 59.802C56.8466 59.5967 56.2026 59.3213 55.6892 58.976C55.1759 58.6307 54.7886 58.2293 54.5272 57.772C54.2752 57.324 54.1492 56.8527 54.1492 56.358C54.1492 55.658 54.3686 55.0653 54.8072 54.58C55.2552 54.0853 55.8666 53.6933 56.6412 53.404C56.2399 53.2173 55.9179 52.97 55.6752 52.662C55.4419 52.3447 55.3252 51.9247 55.3252 51.402C55.3252 51.1967 55.3626 50.9867 55.4372 50.772C55.5119 50.548 55.6239 50.3287 55.7732 50.114C55.9319 49.8993 56.1232 49.694 56.3472 49.498C56.5712 49.302 56.8326 49.1293 57.1312 48.98C56.4312 48.588 55.8806 48.07 55.4792 47.426C55.0872 46.7727 54.8912 46.012 54.8912 45.144C54.8912 44.4533 55.0219 43.828 55.2832 43.268C55.5539 42.6987 55.9272 42.218 56.4032 41.826C56.8792 41.4247 57.4439 41.1167 58.0972 40.902C58.7599 40.6873 59.4832 40.58 60.2672 40.58ZM64.6912 55.77C64.6912 55.4153 64.5932 55.1307 64.3972 54.916C64.2012 54.7013 63.9352 54.538 63.5992 54.426C63.2632 54.3047 62.8759 54.216 62.4372 54.16C61.9986 54.104 61.5366 54.0667 61.0512 54.048C60.5659 54.02 60.0712 53.992 59.5672 53.964C59.0632 53.936 58.5826 53.8847 58.1252 53.81C57.5932 54.062 57.1592 54.37 56.8232 54.734C56.4966 55.098 56.3332 55.532 56.3332 56.036C56.3332 56.3533 56.4126 56.6473 56.5712 56.918C56.7392 57.198 56.9912 57.436 57.3272 57.632C57.6632 57.8373 58.0832 57.996 58.5872 58.108C59.1006 58.2293 59.7026 58.29 60.3932 58.29C61.0652 58.29 61.6672 58.2293 62.1992 58.108C62.7312 57.9867 63.1792 57.814 63.5432 57.59C63.9166 57.366 64.2012 57.1 64.3972 56.792C64.5932 56.484 64.6912 56.1433 64.6912 55.77ZM60.2672 48.07C60.7712 48.07 61.2146 48 61.5972 47.86C61.9892 47.72 62.3159 47.524 62.5772 47.272C62.8386 47.02 63.0346 46.7213 63.1652 46.376C63.2959 46.0213 63.3612 45.634 63.3612 45.214C63.3612 44.346 63.0952 43.6553 62.5632 43.142C62.0406 42.6287 61.2752 42.372 60.2672 42.372C59.2686 42.372 58.5032 42.6287 57.9712 43.142C57.4486 43.6553 57.1872 44.346 57.1872 45.214C57.1872 45.634 57.2526 46.0213 57.3832 46.376C57.5232 46.7213 57.7239 47.02 57.9852 47.272C58.2466 47.524 58.5686 47.72 58.9512 47.86C59.3339 48 59.7726 48.07 60.2672 48.07ZM77.9801 40.818V55H75.4881V40.818H77.9801ZM78.5401 36.366C78.5401 36.6087 78.4887 36.8373 78.3861 37.052C78.2927 37.2573 78.1621 37.444 77.9941 37.612C77.8354 37.7707 77.6487 37.8967 77.4341 37.99C77.2194 38.0833 76.9907 38.13 76.7481 38.13C76.5054 38.13 76.2767 38.0833 76.0621 37.99C75.8567 37.8967 75.6701 37.7707 75.5021 37.612C75.3434 37.444 75.2174 37.2573 75.1241 37.052C75.0307 36.8373 74.9841 36.6087 74.9841 36.366C74.9841 36.1233 75.0307 35.8947 75.1241 35.68C75.2174 35.456 75.3434 35.2647 75.5021 35.106C75.6701 34.938 75.8567 34.8073 76.0621 34.714C76.2767 34.6207 76.5054 34.574 76.7481 34.574C76.9907 34.574 77.2194 34.6207 77.4341 34.714C77.6487 34.8073 77.8354 34.938 77.9941 35.106C78.1621 35.2647 78.2927 35.456 78.3861 35.68C78.4887 35.8947 78.5401 36.1233 78.5401 36.366ZM82.3721 55V40.818H83.8561C84.2108 40.818 84.4348 40.9907 84.5281 41.336L84.7241 42.876C85.3401 42.1947 86.0261 41.644 86.7821 41.224C87.5475 40.804 88.4295 40.594 89.4281 40.594C90.2028 40.594 90.8841 40.7247 91.4721 40.986C92.0695 41.238 92.5641 41.602 92.9561 42.078C93.3575 42.5447 93.6608 43.1093 93.8661 43.772C94.0715 44.4347 94.1741 45.1673 94.1741 45.97V55H91.6821V45.97C91.6821 44.8967 91.4348 44.066 90.9401 43.478C90.4548 42.8807 89.7081 42.582 88.7001 42.582C87.9628 42.582 87.2721 42.7593 86.6281 43.114C85.9935 43.4687 85.4055 43.9493 84.8641 44.556V55H82.3721Z" fill="black"/>
<line x1="24" y1="137.5" x2="379" y2="137.5" stroke="#D8D8D8"/>
<path d="M28 201.5H375C376.933 201.5 378.5 199.933 378.5 198V137.5H24.5V198C24.5 199.933 26.067 201.5 28 201.5Z" stroke="#FF4944"/>
<path d="M26.709 219.248V223H25.358V212.969H28.319C28.9537 212.969 29.5043 213.044 29.971 213.193C30.4423 213.338 30.832 213.545 31.14 213.816C31.448 214.087 31.6767 214.413 31.826 214.796C31.98 215.179 32.057 215.606 32.057 216.077C32.057 216.544 31.9753 216.971 31.812 217.358C31.6487 217.745 31.4083 218.079 31.091 218.359C30.7783 218.639 30.3887 218.858 29.922 219.017C29.4553 219.171 28.921 219.248 28.319 219.248H26.709ZM26.709 218.17H28.319C28.7063 218.17 29.047 218.119 29.341 218.016C29.6397 217.913 29.8893 217.771 30.09 217.589C30.2907 217.402 30.4423 217.181 30.545 216.924C30.6477 216.667 30.699 216.385 30.699 216.077C30.699 215.438 30.5007 214.938 30.104 214.579C29.712 214.22 29.117 214.04 28.319 214.04H26.709V218.17ZM38.4331 223H37.8801C37.7588 223 37.6608 222.981 37.5861 222.944C37.5115 222.907 37.4625 222.827 37.4391 222.706L37.2991 222.048C37.1125 222.216 36.9305 222.368 36.7531 222.503C36.5758 222.634 36.3891 222.746 36.1931 222.839C35.9971 222.928 35.7871 222.995 35.5631 223.042C35.3438 223.089 35.0988 223.112 34.8281 223.112C34.5528 223.112 34.2938 223.075 34.0511 223C33.8131 222.921 33.6055 222.804 33.4281 222.65C33.2508 222.496 33.1085 222.302 33.0011 222.069C32.8985 221.831 32.8471 221.551 32.8471 221.229C32.8471 220.949 32.9241 220.681 33.0781 220.424C33.2321 220.163 33.4795 219.932 33.8201 219.731C34.1655 219.53 34.6158 219.367 35.1711 219.241C35.7265 219.11 36.4055 219.036 37.2081 219.017V218.464C37.2081 217.913 37.0891 217.498 36.8511 217.218C36.6178 216.933 36.2701 216.791 35.8081 216.791C35.5048 216.791 35.2481 216.831 35.0381 216.91C34.8328 216.985 34.6531 217.071 34.4991 217.169C34.3498 217.262 34.2191 217.349 34.1071 217.428C33.9998 217.503 33.8925 217.54 33.7851 217.54C33.7011 217.54 33.6265 217.519 33.5611 217.477C33.5005 217.43 33.4515 217.374 33.4141 217.309L33.1901 216.91C33.5821 216.532 34.0045 216.25 34.4571 216.063C34.9098 215.876 35.4115 215.783 35.9621 215.783C36.3588 215.783 36.7111 215.848 37.0191 215.979C37.3271 216.11 37.5861 216.292 37.7961 216.525C38.0061 216.758 38.1648 217.041 38.2721 217.372C38.3795 217.703 38.4331 218.067 38.4331 218.464V223ZM35.1991 222.237C35.4185 222.237 35.6191 222.216 35.8011 222.174C35.9831 222.127 36.1535 222.064 36.3121 221.985C36.4755 221.901 36.6295 221.801 36.7741 221.684C36.9235 221.567 37.0681 221.434 37.2081 221.285V219.808C36.6341 219.827 36.1465 219.873 35.7451 219.948C35.3438 220.018 35.0171 220.111 34.7651 220.228C34.5131 220.345 34.3288 220.482 34.2121 220.641C34.1001 220.8 34.0441 220.977 34.0441 221.173C34.0441 221.36 34.0745 221.521 34.1351 221.656C34.1958 221.791 34.2775 221.903 34.3801 221.992C34.4828 222.076 34.6041 222.139 34.7441 222.181C34.8841 222.218 35.0358 222.237 35.1991 222.237ZM44.3808 217.078C44.3248 217.181 44.2385 217.232 44.1218 217.232C44.0518 217.232 43.9725 217.206 43.8838 217.155C43.7952 217.104 43.6855 217.048 43.5548 216.987C43.4288 216.922 43.2772 216.863 43.0998 216.812C42.9225 216.756 42.7125 216.728 42.4698 216.728C42.2598 216.728 42.0708 216.756 41.9028 216.812C41.7348 216.863 41.5902 216.936 41.4688 217.029C41.3522 217.122 41.2612 217.232 41.1958 217.358C41.1352 217.479 41.1048 217.612 41.1048 217.757C41.1048 217.939 41.1562 218.091 41.2588 218.212C41.3662 218.333 41.5062 218.438 41.6788 218.527C41.8515 218.616 42.0475 218.695 42.2668 218.765C42.4862 218.83 42.7102 218.903 42.9388 218.982C43.1722 219.057 43.3985 219.141 43.6178 219.234C43.8372 219.327 44.0332 219.444 44.2058 219.584C44.3785 219.724 44.5162 219.897 44.6188 220.102C44.7262 220.303 44.7798 220.545 44.7798 220.83C44.7798 221.157 44.7215 221.46 44.6048 221.74C44.4882 222.015 44.3155 222.256 44.0868 222.461C43.8582 222.662 43.5782 222.82 43.2468 222.937C42.9155 223.054 42.5328 223.112 42.0988 223.112C41.6042 223.112 41.1562 223.033 40.7548 222.874C40.3535 222.711 40.0128 222.503 39.7328 222.251L40.0268 221.775C40.0642 221.714 40.1085 221.668 40.1598 221.635C40.2112 221.602 40.2788 221.586 40.3628 221.586C40.4468 221.586 40.5355 221.619 40.6288 221.684C40.7222 221.749 40.8342 221.822 40.9648 221.901C41.1002 221.98 41.2612 222.053 41.4478 222.118C41.6392 222.183 41.8772 222.216 42.1618 222.216C42.4045 222.216 42.6168 222.186 42.7988 222.125C42.9808 222.06 43.1325 221.973 43.2538 221.866C43.3752 221.759 43.4638 221.635 43.5198 221.495C43.5805 221.355 43.6108 221.206 43.6108 221.047C43.6108 220.851 43.5572 220.69 43.4498 220.564C43.3472 220.433 43.2095 220.324 43.0368 220.235C42.8642 220.142 42.6658 220.062 42.4418 219.997C42.2225 219.927 41.9962 219.855 41.7628 219.78C41.5342 219.705 41.3078 219.621 41.0838 219.528C40.8645 219.43 40.6685 219.309 40.4958 219.164C40.3232 219.019 40.1832 218.842 40.0758 218.632C39.9732 218.417 39.9218 218.158 39.9218 217.855C39.9218 217.584 39.9778 217.325 40.0898 217.078C40.2018 216.826 40.3652 216.607 40.5798 216.42C40.7945 216.229 41.0582 216.077 41.3708 215.965C41.6835 215.853 42.0405 215.797 42.4418 215.797C42.9085 215.797 43.3262 215.872 43.6948 216.021C44.0682 216.166 44.3902 216.366 44.6608 216.623L44.3808 217.078ZM50.4511 217.078C50.3951 217.181 50.3088 217.232 50.1921 217.232C50.1221 217.232 50.0428 217.206 49.9541 217.155C49.8655 217.104 49.7558 217.048 49.6251 216.987C49.4991 216.922 49.3475 216.863 49.1701 216.812C48.9928 216.756 48.7828 216.728 48.5401 216.728C48.3301 216.728 48.1411 216.756 47.9731 216.812C47.8051 216.863 47.6605 216.936 47.5391 217.029C47.4225 217.122 47.3315 217.232 47.2661 217.358C47.2055 217.479 47.1751 217.612 47.1751 217.757C47.1751 217.939 47.2265 218.091 47.3291 218.212C47.4365 218.333 47.5765 218.438 47.7491 218.527C47.9218 218.616 48.1178 218.695 48.3371 218.765C48.5565 218.83 48.7805 218.903 49.0091 218.982C49.2425 219.057 49.4688 219.141 49.6881 219.234C49.9075 219.327 50.1035 219.444 50.2761 219.584C50.4488 219.724 50.5865 219.897 50.6891 220.102C50.7965 220.303 50.8501 220.545 50.8501 220.83C50.8501 221.157 50.7918 221.46 50.6751 221.74C50.5585 222.015 50.3858 222.256 50.1571 222.461C49.9285 222.662 49.6485 222.82 49.3171 222.937C48.9858 223.054 48.6031 223.112 48.1691 223.112C47.6745 223.112 47.2265 223.033 46.8251 222.874C46.4238 222.711 46.0831 222.503 45.8031 222.251L46.0971 221.775C46.1345 221.714 46.1788 221.668 46.2301 221.635C46.2815 221.602 46.3491 221.586 46.4331 221.586C46.5171 221.586 46.6058 221.619 46.6991 221.684C46.7925 221.749 46.9045 221.822 47.0351 221.901C47.1705 221.98 47.3315 222.053 47.5181 222.118C47.7095 222.183 47.9475 222.216 48.2321 222.216C48.4748 222.216 48.6871 222.186 48.8691 222.125C49.0511 222.06 49.2028 221.973 49.3241 221.866C49.4455 221.759 49.5341 221.635 49.5901 221.495C49.6508 221.355 49.6811 221.206 49.6811 221.047C49.6811 220.851 49.6275 220.69 49.5201 220.564C49.4175 220.433 49.2798 220.324 49.1071 220.235C48.9345 220.142 48.7361 220.062 48.5121 219.997C48.2928 219.927 48.0665 219.855 47.8331 219.78C47.6045 219.705 47.3781 219.621 47.1541 219.528C46.9348 219.43 46.7388 219.309 46.5661 219.164C46.3935 219.019 46.2535 218.842 46.1461 218.632C46.0435 218.417 45.9921 218.158 45.9921 217.855C45.9921 217.584 46.0481 217.325 46.1601 217.078C46.2721 216.826 46.4355 216.607 46.6501 216.42C46.8648 216.229 47.1285 216.077 47.4411 215.965C47.7538 215.853 48.1108 215.797 48.5121 215.797C48.9788 215.797 49.3965 215.872 49.7651 216.021C50.1385 216.166 50.4605 216.366 50.7311 216.623L50.4511 217.078ZM51.5375 215.909H52.5175C52.6201 215.909 52.7041 215.935 52.7695 215.986C52.8348 216.037 52.8791 216.098 52.9025 216.168L54.2605 220.732C54.2978 220.9 54.3328 221.063 54.3655 221.222C54.3981 221.376 54.4261 221.532 54.4495 221.691C54.4868 221.532 54.5288 221.376 54.5755 221.222C54.6221 221.063 54.6711 220.9 54.7225 220.732L56.2205 216.14C56.2438 216.07 56.2835 216.012 56.3395 215.965C56.4001 215.918 56.4748 215.895 56.5635 215.895H57.1025C57.1958 215.895 57.2728 215.918 57.3335 215.965C57.3941 216.012 57.4361 216.07 57.4595 216.14L58.9225 220.732C58.9738 220.895 59.0181 221.056 59.0555 221.215C59.0975 221.374 59.1371 221.53 59.1745 221.684C59.1978 221.53 59.2281 221.369 59.2655 221.201C59.3028 221.033 59.3425 220.877 59.3845 220.732L60.7705 216.168C60.7938 216.093 60.8381 216.033 60.9035 215.986C60.9688 215.935 61.0458 215.909 61.1345 215.909H62.0725L59.7765 223H58.7895C58.6681 223 58.5841 222.921 58.5375 222.762L56.9695 217.953C56.9321 217.846 56.9018 217.738 56.8785 217.631C56.8551 217.519 56.8318 217.409 56.8085 217.302C56.7851 217.409 56.7618 217.519 56.7385 217.631C56.7151 217.743 56.6848 217.853 56.6475 217.96L55.0585 222.762C55.0071 222.921 54.9115 223 54.7715 223H53.8335L51.5375 215.909ZM66.0502 215.797C66.5682 215.797 67.0349 215.883 67.4502 216.056C67.8702 216.229 68.2249 216.474 68.5142 216.791C68.8082 217.108 69.0322 217.493 69.1862 217.946C69.3449 218.394 69.4242 218.896 69.4242 219.451C69.4242 220.011 69.3449 220.515 69.1862 220.963C69.0322 221.411 68.8082 221.794 68.5142 222.111C68.2249 222.428 67.8702 222.673 67.4502 222.846C67.0349 223.014 66.5682 223.098 66.0502 223.098C65.5322 223.098 65.0632 223.014 64.6432 222.846C64.2279 222.673 63.8732 222.428 63.5792 222.111C63.2852 221.794 63.0589 221.411 62.9002 220.963C62.7415 220.515 62.6622 220.011 62.6622 219.451C62.6622 218.896 62.7415 218.394 62.9002 217.946C63.0589 217.493 63.2852 217.108 63.5792 216.791C63.8732 216.474 64.2279 216.229 64.6432 216.056C65.0632 215.883 65.5322 215.797 66.0502 215.797ZM66.0502 222.125C66.7502 222.125 67.2729 221.892 67.6182 221.425C67.9635 220.954 68.1362 220.298 68.1362 219.458C68.1362 218.613 67.9635 217.955 67.6182 217.484C67.2729 217.013 66.7502 216.777 66.0502 216.777C65.6955 216.777 65.3875 216.838 65.1262 216.959C64.8649 217.08 64.6455 217.255 64.4682 217.484C64.2955 217.713 64.1649 217.995 64.0762 218.331C63.9922 218.662 63.9502 219.038 63.9502 219.458C63.9502 219.878 63.9922 220.254 64.0762 220.585C64.1649 220.916 64.2955 221.196 64.4682 221.425C64.6455 221.649 64.8649 221.822 65.1262 221.943C65.3875 222.064 65.6955 222.125 66.0502 222.125ZM70.9595 223V215.909H71.6735C71.8088 215.909 71.9022 215.935 71.9535 215.986C72.0048 216.037 72.0398 216.126 72.0585 216.252L72.1425 217.358C72.3852 216.863 72.6838 216.478 73.0385 216.203C73.3978 215.923 73.8178 215.783 74.2985 215.783C74.4945 215.783 74.6718 215.806 74.8305 215.853C74.9892 215.895 75.1362 215.956 75.2715 216.035L75.1105 216.966C75.0778 217.083 75.0055 217.141 74.8935 217.141C74.8282 217.141 74.7278 217.12 74.5925 217.078C74.4572 217.031 74.2682 217.008 74.0255 217.008C73.5915 217.008 73.2275 217.134 72.9335 217.386C72.6442 217.638 72.4015 218.004 72.2055 218.485V223H70.9595ZM81.597 223C81.4197 223 81.3077 222.914 81.261 222.741L81.149 221.88C80.8457 222.249 80.498 222.545 80.106 222.769C79.7187 222.988 79.273 223.098 78.769 223.098C78.363 223.098 77.9943 223.021 77.663 222.867C77.3317 222.708 77.0493 222.477 76.816 222.174C76.5827 221.871 76.403 221.493 76.277 221.04C76.151 220.587 76.088 220.067 76.088 219.479C76.088 218.956 76.158 218.471 76.298 218.023C76.438 217.57 76.6387 217.178 76.9 216.847C77.166 216.516 77.488 216.257 77.866 216.07C78.244 215.879 78.6733 215.783 79.154 215.783C79.588 215.783 79.959 215.858 80.267 216.007C80.575 216.152 80.8503 216.357 81.093 216.623V212.689H82.339V223H81.597ZM79.182 222.09C79.588 222.09 79.9427 221.997 80.246 221.81C80.554 221.623 80.8363 221.36 81.093 221.019V217.589C80.8643 217.281 80.6123 217.066 80.337 216.945C80.0663 216.819 79.7653 216.756 79.434 216.756C78.7713 216.756 78.2627 216.992 77.908 217.463C77.5533 217.934 77.376 218.606 77.376 219.479C77.376 219.941 77.4157 220.338 77.495 220.669C77.5743 220.996 77.691 221.266 77.845 221.481C77.999 221.691 78.188 221.845 78.412 221.943C78.636 222.041 78.8927 222.09 79.182 222.09ZM88.5193 215.909V223H87.2733V215.909H88.5193ZM88.7993 213.683C88.7993 213.804 88.7737 213.919 88.7223 214.026C88.6757 214.129 88.6103 214.222 88.5263 214.306C88.447 214.385 88.3537 214.448 88.2463 214.495C88.139 214.542 88.0247 214.565 87.9033 214.565C87.782 214.565 87.6677 214.542 87.5603 214.495C87.4577 214.448 87.3643 214.385 87.2803 214.306C87.201 214.222 87.138 214.129 87.0913 214.026C87.0447 213.919 87.0213 213.804 87.0213 213.683C87.0213 213.562 87.0447 213.447 87.0913 213.34C87.138 213.228 87.201 213.132 87.2803 213.053C87.3643 212.969 87.4577 212.904 87.5603 212.857C87.6677 212.81 87.782 212.787 87.9033 212.787C88.0247 212.787 88.139 212.81 88.2463 212.857C88.3537 212.904 88.447 212.969 88.5263 213.053C88.6103 213.132 88.6757 213.228 88.7223 213.34C88.7737 213.447 88.7993 213.562 88.7993 213.683ZM94.7754 217.078C94.7194 217.181 94.633 217.232 94.5164 217.232C94.4464 217.232 94.367 217.206 94.2784 217.155C94.1897 217.104 94.08 217.048 93.9494 216.987C93.8234 216.922 93.6717 216.863 93.4944 216.812C93.317 216.756 93.107 216.728 92.8644 216.728C92.6544 216.728 92.4654 216.756 92.2974 216.812C92.1294 216.863 91.9847 216.936 91.8634 217.029C91.7467 217.122 91.6557 217.232 91.5904 217.358C91.5297 217.479 91.4994 217.612 91.4994 217.757C91.4994 217.939 91.5507 218.091 91.6534 218.212C91.7607 218.333 91.9007 218.438 92.0734 218.527C92.246 218.616 92.442 218.695 92.6614 218.765C92.8807 218.83 93.1047 218.903 93.3334 218.982C93.5667 219.057 93.793 219.141 94.0124 219.234C94.2317 219.327 94.4277 219.444 94.6004 219.584C94.773 219.724 94.9107 219.897 95.0134 220.102C95.1207 220.303 95.1744 220.545 95.1744 220.83C95.1744 221.157 95.116 221.46 94.9994 221.74C94.8827 222.015 94.71 222.256 94.4814 222.461C94.2527 222.662 93.9727 222.82 93.6414 222.937C93.31 223.054 92.9274 223.112 92.4934 223.112C91.9987 223.112 91.5507 223.033 91.1494 222.874C90.748 222.711 90.4074 222.503 90.1274 222.251L90.4214 221.775C90.4587 221.714 90.503 221.668 90.5544 221.635C90.6057 221.602 90.6734 221.586 90.7574 221.586C90.8414 221.586 90.93 221.619 91.0234 221.684C91.1167 221.749 91.2287 221.822 91.3594 221.901C91.4947 221.98 91.6557 222.053 91.8424 222.118C92.0337 222.183 92.2717 222.216 92.5564 222.216C92.799 222.216 93.0114 222.186 93.1934 222.125C93.3754 222.06 93.527 221.973 93.6484 221.866C93.7697 221.759 93.8584 221.635 93.9144 221.495C93.975 221.355 94.0054 221.206 94.0054 221.047C94.0054 220.851 93.9517 220.69 93.8444 220.564C93.7417 220.433 93.604 220.324 93.4314 220.235C93.2587 220.142 93.0604 220.062 92.8364 219.997C92.617 219.927 92.3907 219.855 92.1574 219.78C91.9287 219.705 91.7024 219.621 91.4784 219.528C91.259 219.43 91.063 219.309 90.8904 219.164C90.7177 219.019 90.5777 218.842 90.4704 218.632C90.3677 218.417 90.3164 218.158 90.3164 217.855C90.3164 217.584 90.3724 217.325 90.4844 217.078C90.5964 216.826 90.7597 216.607 90.9744 216.42C91.189 216.229 91.4527 216.077 91.7654 215.965C92.078 215.853 92.435 215.797 92.8364 215.797C93.303 215.797 93.7207 215.872 94.0894 216.021C94.4627 216.166 94.7847 216.366 95.0554 216.623L94.7754 217.078ZM99.4927 223V215.909H100.207C100.342 215.909 100.435 215.935 100.487 215.986C100.538 216.037 100.573 216.126 100.592 216.252L100.676 217.358C100.918 216.863 101.217 216.478 101.572 216.203C101.931 215.923 102.351 215.783 102.832 215.783C103.028 215.783 103.205 215.806 103.364 215.853C103.522 215.895 103.669 215.956 103.805 216.035L103.644 216.966C103.611 217.083 103.539 217.141 103.427 217.141C103.361 217.141 103.261 217.12 103.126 217.078C102.99 217.031 102.801 217.008 102.559 217.008C102.125 217.008 101.761 217.134 101.467 217.386C101.177 217.638 100.935 218.004 100.739 218.485V223H99.4927ZM107.946 215.797C108.371 215.797 108.763 215.869 109.122 216.014C109.482 216.154 109.792 216.359 110.053 216.63C110.315 216.896 110.518 217.227 110.662 217.624C110.812 218.016 110.886 218.464 110.886 218.968C110.886 219.164 110.865 219.295 110.823 219.36C110.781 219.425 110.702 219.458 110.585 219.458H105.867C105.877 219.906 105.937 220.296 106.049 220.627C106.161 220.958 106.315 221.236 106.511 221.46C106.707 221.679 106.941 221.845 107.211 221.957C107.482 222.064 107.785 222.118 108.121 222.118C108.434 222.118 108.702 222.083 108.926 222.013C109.155 221.938 109.351 221.859 109.514 221.775C109.678 221.691 109.813 221.614 109.92 221.544C110.032 221.469 110.128 221.432 110.207 221.432C110.31 221.432 110.389 221.472 110.445 221.551L110.795 222.006C110.641 222.193 110.457 222.356 110.242 222.496C110.028 222.631 109.797 222.743 109.549 222.832C109.307 222.921 109.055 222.986 108.793 223.028C108.532 223.075 108.273 223.098 108.016 223.098C107.526 223.098 107.074 223.016 106.658 222.853C106.248 222.685 105.891 222.442 105.587 222.125C105.289 221.803 105.055 221.406 104.887 220.935C104.719 220.464 104.635 219.922 104.635 219.311C104.635 218.816 104.71 218.354 104.859 217.925C105.013 217.496 105.233 217.125 105.517 216.812C105.802 216.495 106.15 216.247 106.56 216.07C106.971 215.888 107.433 215.797 107.946 215.797ZM107.974 216.714C107.372 216.714 106.899 216.889 106.553 217.239C106.208 217.584 105.993 218.065 105.909 218.681H109.766C109.766 218.392 109.727 218.128 109.647 217.89C109.568 217.647 109.451 217.44 109.297 217.267C109.143 217.09 108.954 216.954 108.73 216.861C108.511 216.763 108.259 216.714 107.974 216.714ZM118.214 215.909V225.401H116.968V221.95C116.669 222.295 116.329 222.573 115.946 222.783C115.568 222.993 115.134 223.098 114.644 223.098C114.238 223.098 113.869 223.021 113.538 222.867C113.207 222.708 112.924 222.477 112.691 222.174C112.458 221.871 112.278 221.493 112.152 221.04C112.026 220.587 111.963 220.067 111.963 219.479C111.963 218.956 112.033 218.471 112.173 218.023C112.313 217.57 112.514 217.178 112.775 216.847C113.041 216.516 113.363 216.257 113.741 216.07C114.119 215.879 114.548 215.783 115.029 215.783C115.486 215.783 115.874 215.865 116.191 216.028C116.513 216.191 116.8 216.422 117.052 216.721L117.136 216.168C117.183 215.995 117.295 215.909 117.472 215.909H118.214ZM115.057 222.09C115.463 222.09 115.818 221.997 116.121 221.81C116.429 221.623 116.711 221.36 116.968 221.019V217.589C116.744 217.29 116.494 217.078 116.219 216.952C115.944 216.821 115.64 216.756 115.309 216.756C114.646 216.756 114.138 216.992 113.783 217.463C113.428 217.934 113.251 218.606 113.251 219.479C113.251 219.941 113.291 220.338 113.37 220.669C113.449 220.996 113.566 221.266 113.72 221.481C113.874 221.691 114.063 221.845 114.287 221.943C114.511 222.041 114.768 222.09 115.057 222.09ZM121.379 215.909V220.431C121.379 220.968 121.503 221.383 121.75 221.677C121.998 221.971 122.371 222.118 122.87 222.118C123.234 222.118 123.577 222.032 123.899 221.859C124.221 221.686 124.518 221.446 124.788 221.138V215.909H126.034V223H125.292C125.115 223 125.003 222.914 124.956 222.741L124.858 221.978C124.55 222.319 124.205 222.594 123.822 222.804C123.44 223.009 123.001 223.112 122.506 223.112C122.119 223.112 121.776 223.049 121.477 222.923C121.183 222.792 120.936 222.61 120.735 222.377C120.535 222.144 120.383 221.861 120.28 221.53C120.182 221.199 120.133 220.832 120.133 220.431V215.909H121.379ZM129.467 215.909V223H128.221V215.909H129.467ZM129.747 213.683C129.747 213.804 129.721 213.919 129.67 214.026C129.623 214.129 129.558 214.222 129.474 214.306C129.394 214.385 129.301 214.448 129.194 214.495C129.086 214.542 128.972 214.565 128.851 214.565C128.729 214.565 128.615 214.542 128.508 214.495C128.405 214.448 128.312 214.385 128.228 214.306C128.148 214.222 128.085 214.129 128.039 214.026C127.992 213.919 127.969 213.804 127.969 213.683C127.969 213.562 127.992 213.447 128.039 213.34C128.085 213.228 128.148 213.132 128.228 213.053C128.312 212.969 128.405 212.904 128.508 212.857C128.615 212.81 128.729 212.787 128.851 212.787C128.972 212.787 129.086 212.81 129.194 212.857C129.301 212.904 129.394 212.969 129.474 213.053C129.558 213.132 129.623 213.228 129.67 213.34C129.721 213.447 129.747 213.562 129.747 213.683ZM131.663 223V215.909H132.377C132.512 215.909 132.605 215.935 132.657 215.986C132.708 216.037 132.743 216.126 132.762 216.252L132.846 217.358C133.088 216.863 133.387 216.478 133.742 216.203C134.101 215.923 134.521 215.783 135.002 215.783C135.198 215.783 135.375 215.806 135.534 215.853C135.692 215.895 135.839 215.956 135.975 216.035L135.814 216.966C135.781 217.083 135.709 217.141 135.597 217.141C135.531 217.141 135.431 217.12 135.296 217.078C135.16 217.031 134.971 217.008 134.729 217.008C134.295 217.008 133.931 217.134 133.637 217.386C133.347 217.638 133.105 218.004 132.909 218.485V223H131.663ZM140.116 215.797C140.541 215.797 140.933 215.869 141.292 216.014C141.651 216.154 141.962 216.359 142.223 216.63C142.484 216.896 142.687 217.227 142.832 217.624C142.981 218.016 143.056 218.464 143.056 218.968C143.056 219.164 143.035 219.295 142.993 219.36C142.951 219.425 142.872 219.458 142.755 219.458H138.037C138.046 219.906 138.107 220.296 138.219 220.627C138.331 220.958 138.485 221.236 138.681 221.46C138.877 221.679 139.11 221.845 139.381 221.957C139.652 222.064 139.955 222.118 140.291 222.118C140.604 222.118 140.872 222.083 141.096 222.013C141.325 221.938 141.521 221.859 141.684 221.775C141.847 221.691 141.983 221.614 142.09 221.544C142.202 221.469 142.298 221.432 142.377 221.432C142.48 221.432 142.559 221.472 142.615 221.551L142.965 222.006C142.811 222.193 142.627 222.356 142.412 222.496C142.197 222.631 141.966 222.743 141.719 222.832C141.476 222.921 141.224 222.986 140.963 223.028C140.702 223.075 140.443 223.098 140.186 223.098C139.696 223.098 139.243 223.016 138.828 222.853C138.417 222.685 138.06 222.442 137.757 222.125C137.458 221.803 137.225 221.406 137.057 220.935C136.889 220.464 136.805 219.922 136.805 219.311C136.805 218.816 136.88 218.354 137.029 217.925C137.183 217.496 137.402 217.125 137.687 216.812C137.972 216.495 138.319 216.247 138.73 216.07C139.141 215.888 139.603 215.797 140.116 215.797ZM140.144 216.714C139.542 216.714 139.068 216.889 138.723 217.239C138.378 217.584 138.163 218.065 138.079 218.681H141.936C141.936 218.392 141.896 218.128 141.817 217.89C141.738 217.647 141.621 217.44 141.467 217.267C141.313 217.09 141.124 216.954 140.9 216.861C140.681 216.763 140.429 216.714 140.144 216.714ZM149.642 223C149.465 223 149.353 222.914 149.306 222.741L149.194 221.88C148.891 222.249 148.543 222.545 148.151 222.769C147.764 222.988 147.318 223.098 146.814 223.098C146.408 223.098 146.039 223.021 145.708 222.867C145.377 222.708 145.094 222.477 144.861 222.174C144.628 221.871 144.448 221.493 144.322 221.04C144.196 220.587 144.133 220.067 144.133 219.479C144.133 218.956 144.203 218.471 144.343 218.023C144.483 217.57 144.684 217.178 144.945 216.847C145.211 216.516 145.533 216.257 145.911 216.07C146.289 215.879 146.718 215.783 147.199 215.783C147.633 215.783 148.004 215.858 148.312 216.007C148.62 216.152 148.895 216.357 149.138 216.623V212.689H150.384V223H149.642ZM147.227 222.09C147.633 222.09 147.988 221.997 148.291 221.81C148.599 221.623 148.881 221.36 149.138 221.019V217.589C148.909 217.281 148.657 217.066 148.382 216.945C148.111 216.819 147.81 216.756 147.479 216.756C146.816 216.756 146.308 216.992 145.953 217.463C145.598 217.934 145.421 218.606 145.421 219.479C145.421 219.941 145.461 220.338 145.54 220.669C145.619 220.996 145.736 221.266 145.89 221.481C146.044 221.691 146.233 221.845 146.457 221.943C146.681 222.041 146.938 222.09 147.227 222.09Z" fill="#FF4944"/>
</svg>
