<svg width="327" height="401" viewBox="0 0 327 401" fill="none" xmlns="http://www.w3.org/2000/svg">
<rect x="0.5" y="0.5" width="326" height="400" rx="3.5" fill="white" stroke="#D8D8D8"/>
<rect x="1" y="50" width="306" height="50" fill="#F8F8F8"/>
<rect x="1" y="200" width="306" height="50" fill="#F8F8F8"/>
<rect x="1" y="300" width="306" height="50" fill="#F8F8F8"/>
<rect x="14.5" y="164.5" width="21" height="21" rx="3.5" fill="white" stroke="#D8D8D8"/>
<rect x="14.5" y="214.5" width="21" height="21" rx="3.5" fill="white" stroke="#D8D8D8"/>
<rect x="14.5" y="264.5" width="21" height="21" rx="3.5" fill="white" stroke="#D8D8D8"/>
<rect x="14.5" y="314.5" width="21" height="21" rx="3.5" fill="white" stroke="#D8D8D8"/>
<rect x="14.5" y="364.5" width="21" height="21" rx="3.5" fill="white" stroke="#D8D8D8"/>
<path d="M68.04 25.272C68.04 26.1307 67.904 26.92 67.632 27.64C67.36 28.3547 66.976 28.9707 66.48 29.488C65.984 30.0053 65.3867 30.408 64.688 30.696C63.9947 30.9787 63.2267 31.12 62.384 31.12C61.5413 31.12 60.7733 30.9787 60.08 30.696C59.3867 30.408 58.792 30.0053 58.296 29.488C57.8 28.9707 57.416 28.3547 57.144 27.64C56.872 26.92 56.736 26.1307 56.736 25.272C56.736 24.4133 56.872 23.6267 57.144 22.912C57.416 22.192 57.8 21.5733 58.296 21.056C58.792 20.5333 59.3867 20.128 60.08 19.84C60.7733 19.552 61.5413 19.408 62.384 19.408C63.2267 19.408 63.9947 19.552 64.688 19.84C65.3867 20.128 65.984 20.5333 66.48 21.056C66.976 21.5733 67.36 22.192 67.632 22.912C67.904 23.6267 68.04 24.4133 68.04 25.272ZM66.448 25.272C66.448 24.568 66.352 23.936 66.16 23.376C65.968 22.816 65.696 22.344 65.344 21.96C64.992 21.5707 64.5653 21.272 64.064 21.064C63.5627 20.856 63.0027 20.752 62.384 20.752C61.7707 20.752 61.2133 20.856 60.712 21.064C60.2107 21.272 59.7813 21.5707 59.424 21.96C59.072 22.344 58.8 22.816 58.608 23.376C58.416 23.936 58.32 24.568 58.32 25.272C58.32 25.976 58.416 26.608 58.608 27.168C58.8 27.7227 59.072 28.1947 59.424 28.584C59.7813 28.968 60.2107 29.264 60.712 29.472C61.2133 29.6747 61.7707 29.776 62.384 29.776C63.0027 29.776 63.5627 29.6747 64.064 29.472C64.5653 29.264 64.992 28.968 65.344 28.584C65.696 28.1947 65.968 27.7227 66.16 27.168C66.352 26.608 66.448 25.976 66.448 25.272ZM69.9336 33.744V22.896H70.7816C70.9843 22.896 71.1123 22.9947 71.1656 23.192L71.2856 24.152C71.6323 23.7307 72.027 23.392 72.4696 23.136C72.9176 22.88 73.4323 22.752 74.0136 22.752C74.4776 22.752 74.899 22.8427 75.2776 23.024C75.6563 23.2 75.979 23.464 76.2456 23.816C76.5123 24.1627 76.7176 24.5947 76.8616 25.112C77.0056 25.6293 77.0776 26.224 77.0776 26.896C77.0776 27.4933 76.9976 28.0507 76.8376 28.568C76.6776 29.08 76.4483 29.5253 76.1496 29.904C75.851 30.2773 75.483 30.5733 75.0456 30.792C74.6136 31.0053 74.1256 31.112 73.5816 31.112C73.0803 31.112 72.651 31.0293 72.2936 30.864C71.9416 30.6987 71.6296 30.464 71.3576 30.16V33.744H69.9336ZM73.5416 23.904C73.0776 23.904 72.6696 24.0107 72.3176 24.224C71.971 24.4373 71.651 24.7387 71.3576 25.128V29.048C71.619 29.4 71.9043 29.648 72.2136 29.792C72.5283 29.936 72.8776 30.008 73.2616 30.008C74.0136 30.008 74.5923 29.7387 74.9976 29.2C75.403 28.6613 75.6056 27.8933 75.6056 26.896C75.6056 26.368 75.5576 25.9147 75.4616 25.536C75.371 25.1573 75.2376 24.848 75.0616 24.608C74.8856 24.3627 74.6696 24.184 74.4136 24.072C74.1576 23.96 73.867 23.904 73.5416 23.904ZM81.2178 31.128C80.5778 31.128 80.0844 30.9493 79.7378 30.592C79.3964 30.2347 79.2258 29.72 79.2258 29.048V24.088H78.2498C78.1644 24.088 78.0924 24.064 78.0338 24.016C77.9751 23.9627 77.9458 23.8827 77.9458 23.776V23.208L79.2738 23.04L79.6018 20.536C79.6124 20.456 79.6471 20.392 79.7057 20.344C79.7644 20.2907 79.8391 20.264 79.9298 20.264H80.6498V23.056H82.9698V24.088H80.6498V28.952C80.6498 29.2933 80.7324 29.5467 80.8978 29.712C81.0631 29.8773 81.2764 29.96 81.5378 29.96C81.6871 29.96 81.8151 29.9413 81.9218 29.904C82.0338 29.8613 82.1298 29.816 82.2098 29.768C82.2898 29.72 82.3564 29.6773 82.4098 29.64C82.4684 29.5973 82.5191 29.576 82.5618 29.576C82.6364 29.576 82.7031 29.6213 82.7618 29.712L83.1778 30.392C82.9324 30.6213 82.6364 30.8027 82.2898 30.936C81.9431 31.064 81.5858 31.128 81.2178 31.128ZM86.3145 22.896V31H84.8905V22.896H86.3145ZM86.6345 20.352C86.6345 20.4907 86.6052 20.6213 86.5465 20.744C86.4932 20.8613 86.4185 20.968 86.3225 21.064C86.2318 21.1547 86.1252 21.2267 86.0025 21.28C85.8798 21.3333 85.7492 21.36 85.6105 21.36C85.4718 21.36 85.3412 21.3333 85.2185 21.28C85.1012 21.2267 84.9945 21.1547 84.8985 21.064C84.8078 20.968 84.7358 20.8613 84.6825 20.744C84.6292 20.6213 84.6025 20.4907 84.6025 20.352C84.6025 20.2133 84.6292 20.0827 84.6825 19.96C84.7358 19.832 84.8078 19.7227 84.8985 19.632C84.9945 19.536 85.1012 19.4613 85.2185 19.408C85.3412 19.3547 85.4718 19.328 85.6105 19.328C85.7492 19.328 85.8798 19.3547 86.0025 19.408C86.1252 19.4613 86.2318 19.536 86.3225 19.632C86.4185 19.7227 86.4932 19.832 86.5465 19.96C86.6052 20.0827 86.6345 20.2133 86.6345 20.352ZM92.1043 22.768C92.6963 22.768 93.2296 22.8667 93.7043 23.064C94.1843 23.2613 94.5896 23.5413 94.9203 23.904C95.2563 24.2667 95.5123 24.7067 95.6883 25.224C95.8696 25.736 95.9603 26.3093 95.9603 26.944C95.9603 27.584 95.8696 28.16 95.6883 28.672C95.5123 29.184 95.2563 29.6213 94.9203 29.984C94.5896 30.3467 94.1843 30.6267 93.7043 30.824C93.2296 31.016 92.6963 31.112 92.1043 31.112C91.5123 31.112 90.9763 31.016 90.4963 30.824C90.0216 30.6267 89.6163 30.3467 89.2803 29.984C88.9443 29.6213 88.6856 29.184 88.5043 28.672C88.3229 28.16 88.2323 27.584 88.2323 26.944C88.2323 26.3093 88.3229 25.736 88.5043 25.224C88.6856 24.7067 88.9443 24.2667 89.2803 23.904C89.6163 23.5413 90.0216 23.2613 90.4963 23.064C90.9763 22.8667 91.5123 22.768 92.1043 22.768ZM92.1043 30C92.9043 30 93.5016 29.7333 93.8963 29.2C94.2909 28.6613 94.4883 27.912 94.4883 26.952C94.4883 25.9867 94.2909 25.2347 93.8963 24.696C93.5016 24.1573 92.9043 23.888 92.1043 23.888C91.6989 23.888 91.3469 23.9573 91.0483 24.096C90.7496 24.2347 90.4989 24.4347 90.2963 24.696C90.0989 24.9573 89.9496 25.28 89.8483 25.664C89.7523 26.0427 89.7043 26.472 89.7043 26.952C89.7043 27.432 89.7523 27.8613 89.8483 28.24C89.9496 28.6187 90.0989 28.9387 90.2963 29.2C90.4989 29.456 90.7496 29.6533 91.0483 29.792C91.3469 29.9307 91.6989 30 92.1043 30ZM97.7149 31V22.896H98.5629C98.7655 22.896 98.8935 22.9947 98.9469 23.192L99.0589 24.072C99.4109 23.6827 99.8029 23.368 100.235 23.128C100.672 22.888 101.176 22.768 101.747 22.768C102.19 22.768 102.579 22.8427 102.915 22.992C103.256 23.136 103.539 23.344 103.763 23.616C103.992 23.8827 104.166 24.2053 104.283 24.584C104.4 24.9627 104.459 25.3813 104.459 25.84V31H103.035V25.84C103.035 25.2267 102.894 24.752 102.611 24.416C102.334 24.0747 101.907 23.904 101.331 23.904C100.91 23.904 100.515 24.0053 100.147 24.208C99.7842 24.4107 99.4482 24.6853 99.1389 25.032V31H97.7149ZM110.827 29.912H113.291V22.096C113.291 21.8613 113.299 21.624 113.315 21.384L111.267 23.136C111.214 23.1787 111.161 23.2107 111.107 23.232C111.054 23.248 111.003 23.256 110.955 23.256C110.875 23.256 110.803 23.24 110.739 23.208C110.675 23.1707 110.627 23.128 110.595 23.08L110.147 22.464L113.555 19.512H114.715V29.912H116.971V31H110.827V29.912ZM68.04 75.272C68.04 76.1307 67.904 76.92 67.632 77.64C67.36 78.3547 66.976 78.9707 66.48 79.488C65.984 80.0053 65.3867 80.408 64.688 80.696C63.9947 80.9787 63.2267 81.12 62.384 81.12C61.5413 81.12 60.7733 80.9787 60.08 80.696C59.3867 80.408 58.792 80.0053 58.296 79.488C57.8 78.9707 57.416 78.3547 57.144 77.64C56.872 76.92 56.736 76.1307 56.736 75.272C56.736 74.4133 56.872 73.6267 57.144 72.912C57.416 72.192 57.8 71.5733 58.296 71.056C58.792 70.5333 59.3867 70.128 60.08 69.84C60.7733 69.552 61.5413 69.408 62.384 69.408C63.2267 69.408 63.9947 69.552 64.688 69.84C65.3867 70.128 65.984 70.5333 66.48 71.056C66.976 71.5733 67.36 72.192 67.632 72.912C67.904 73.6267 68.04 74.4133 68.04 75.272ZM66.448 75.272C66.448 74.568 66.352 73.936 66.16 73.376C65.968 72.816 65.696 72.344 65.344 71.96C64.992 71.5707 64.5653 71.272 64.064 71.064C63.5627 70.856 63.0027 70.752 62.384 70.752C61.7707 70.752 61.2133 70.856 60.712 71.064C60.2107 71.272 59.7813 71.5707 59.424 71.96C59.072 72.344 58.8 72.816 58.608 73.376C58.416 73.936 58.32 74.568 58.32 75.272C58.32 75.976 58.416 76.608 58.608 77.168C58.8 77.7227 59.072 78.1947 59.424 78.584C59.7813 78.968 60.2107 79.264 60.712 79.472C61.2133 79.6747 61.7707 79.776 62.384 79.776C63.0027 79.776 63.5627 79.6747 64.064 79.472C64.5653 79.264 64.992 78.968 65.344 78.584C65.696 78.1947 65.968 77.7227 66.16 77.168C66.352 76.608 66.448 75.976 66.448 75.272ZM69.9336 83.744V72.896H70.7816C70.9843 72.896 71.1123 72.9947 71.1656 73.192L71.2856 74.152C71.6323 73.7307 72.027 73.392 72.4696 73.136C72.9176 72.88 73.4323 72.752 74.0136 72.752C74.4776 72.752 74.899 72.8427 75.2776 73.024C75.6563 73.2 75.979 73.464 76.2456 73.816C76.5123 74.1627 76.7176 74.5947 76.8616 75.112C77.0056 75.6293 77.0776 76.224 77.0776 76.896C77.0776 77.4933 76.9976 78.0507 76.8376 78.568C76.6776 79.08 76.4483 79.5253 76.1496 79.904C75.851 80.2773 75.483 80.5733 75.0456 80.792C74.6136 81.0053 74.1256 81.112 73.5816 81.112C73.0803 81.112 72.651 81.0293 72.2936 80.864C71.9416 80.6987 71.6296 80.464 71.3576 80.16V83.744H69.9336ZM73.5416 73.904C73.0776 73.904 72.6696 74.0107 72.3176 74.224C71.971 74.4373 71.651 74.7387 71.3576 75.128V79.048C71.619 79.4 71.9043 79.648 72.2136 79.792C72.5283 79.936 72.8776 80.008 73.2616 80.008C74.0136 80.008 74.5923 79.7387 74.9976 79.2C75.403 78.6613 75.6056 77.8933 75.6056 76.896C75.6056 76.368 75.5576 75.9147 75.4616 75.536C75.371 75.1573 75.2376 74.848 75.0616 74.608C74.8856 74.3627 74.6696 74.184 74.4136 74.072C74.1576 73.96 73.867 73.904 73.5416 73.904ZM81.2178 81.128C80.5778 81.128 80.0844 80.9493 79.7378 80.592C79.3964 80.2347 79.2258 79.72 79.2258 79.048V74.088H78.2498C78.1644 74.088 78.0924 74.064 78.0338 74.016C77.9751 73.9627 77.9458 73.8827 77.9458 73.776V73.208L79.2738 73.04L79.6018 70.536C79.6124 70.456 79.6471 70.392 79.7057 70.344C79.7644 70.2907 79.8391 70.264 79.9298 70.264H80.6498V73.056H82.9698V74.088H80.6498V78.952C80.6498 79.2933 80.7324 79.5467 80.8978 79.712C81.0631 79.8773 81.2764 79.96 81.5378 79.96C81.6871 79.96 81.8151 79.9413 81.9218 79.904C82.0338 79.8613 82.1298 79.816 82.2098 79.768C82.2898 79.72 82.3564 79.6773 82.4098 79.64C82.4684 79.5973 82.5191 79.576 82.5618 79.576C82.6364 79.576 82.7031 79.6213 82.7618 79.712L83.1778 80.392C82.9324 80.6213 82.6364 80.8027 82.2898 80.936C81.9431 81.064 81.5858 81.128 81.2178 81.128ZM86.3145 72.896V81H84.8905V72.896H86.3145ZM86.6345 70.352C86.6345 70.4907 86.6052 70.6213 86.5465 70.744C86.4932 70.8613 86.4185 70.968 86.3225 71.064C86.2318 71.1547 86.1252 71.2267 86.0025 71.28C85.8798 71.3333 85.7492 71.36 85.6105 71.36C85.4718 71.36 85.3412 71.3333 85.2185 71.28C85.1012 71.2267 84.9945 71.1547 84.8985 71.064C84.8078 70.968 84.7358 70.8613 84.6825 70.744C84.6292 70.6213 84.6025 70.4907 84.6025 70.352C84.6025 70.2133 84.6292 70.0827 84.6825 69.96C84.7358 69.832 84.8078 69.7227 84.8985 69.632C84.9945 69.536 85.1012 69.4613 85.2185 69.408C85.3412 69.3547 85.4718 69.328 85.6105 69.328C85.7492 69.328 85.8798 69.3547 86.0025 69.408C86.1252 69.4613 86.2318 69.536 86.3225 69.632C86.4185 69.7227 86.4932 69.832 86.5465 69.96C86.6052 70.0827 86.6345 70.2133 86.6345 70.352ZM92.1043 72.768C92.6963 72.768 93.2296 72.8667 93.7043 73.064C94.1843 73.2613 94.5896 73.5413 94.9203 73.904C95.2563 74.2667 95.5123 74.7067 95.6883 75.224C95.8696 75.736 95.9603 76.3093 95.9603 76.944C95.9603 77.584 95.8696 78.16 95.6883 78.672C95.5123 79.184 95.2563 79.6213 94.9203 79.984C94.5896 80.3467 94.1843 80.6267 93.7043 80.824C93.2296 81.016 92.6963 81.112 92.1043 81.112C91.5123 81.112 90.9763 81.016 90.4963 80.824C90.0216 80.6267 89.6163 80.3467 89.2803 79.984C88.9443 79.6213 88.6856 79.184 88.5043 78.672C88.3229 78.16 88.2323 77.584 88.2323 76.944C88.2323 76.3093 88.3229 75.736 88.5043 75.224C88.6856 74.7067 88.9443 74.2667 89.2803 73.904C89.6163 73.5413 90.0216 73.2613 90.4963 73.064C90.9763 72.8667 91.5123 72.768 92.1043 72.768ZM92.1043 80C92.9043 80 93.5016 79.7333 93.8963 79.2C94.2909 78.6613 94.4883 77.912 94.4883 76.952C94.4883 75.9867 94.2909 75.2347 93.8963 74.696C93.5016 74.1573 92.9043 73.888 92.1043 73.888C91.6989 73.888 91.3469 73.9573 91.0483 74.096C90.7496 74.2347 90.4989 74.4347 90.2963 74.696C90.0989 74.9573 89.9496 75.28 89.8483 75.664C89.7523 76.0427 89.7043 76.472 89.7043 76.952C89.7043 77.432 89.7523 77.8613 89.8483 78.24C89.9496 78.6187 90.0989 78.9387 90.2963 79.2C90.4989 79.456 90.7496 79.6533 91.0483 79.792C91.3469 79.9307 91.6989 80 92.1043 80ZM97.7149 81V72.896H98.5629C98.7655 72.896 98.8935 72.9947 98.9469 73.192L99.0589 74.072C99.4109 73.6827 99.8029 73.368 100.235 73.128C100.672 72.888 101.176 72.768 101.747 72.768C102.19 72.768 102.579 72.8427 102.915 72.992C103.256 73.136 103.539 73.344 103.763 73.616C103.992 73.8827 104.166 74.2053 104.283 74.584C104.4 74.9627 104.459 75.3813 104.459 75.84V81H103.035V75.84C103.035 75.2267 102.894 74.752 102.611 74.416C102.334 74.0747 101.907 73.904 101.331 73.904C100.91 73.904 100.515 74.0053 100.147 74.208C99.7842 74.4107 99.4482 74.6853 99.1389 75.032V81H97.7149ZM113.339 69.408C113.825 69.408 114.278 69.48 114.699 69.624C115.121 69.768 115.483 69.9787 115.787 70.256C116.097 70.528 116.339 70.8613 116.515 71.256C116.691 71.6507 116.779 72.0987 116.779 72.6C116.779 73.0267 116.715 73.4213 116.587 73.784C116.459 74.1467 116.286 74.496 116.067 74.832C115.849 75.1627 115.595 75.4853 115.307 75.8C115.025 76.1093 114.723 76.4267 114.403 76.752L111.387 79.84C111.601 79.7813 111.817 79.736 112.035 79.704C112.254 79.6667 112.465 79.648 112.667 79.648H116.507C116.662 79.648 116.785 79.6933 116.875 79.784C116.966 79.8747 117.011 79.992 117.011 80.136V81H109.363V80.512C109.363 80.4107 109.382 80.3067 109.419 80.2C109.462 80.0933 109.529 79.9947 109.619 79.904L113.291 76.216C113.595 75.9067 113.873 75.6107 114.123 75.328C114.374 75.04 114.587 74.752 114.763 74.464C114.945 74.176 115.083 73.8853 115.179 73.592C115.275 73.2933 115.323 72.976 115.323 72.64C115.323 72.304 115.27 72.0107 115.163 71.76C115.057 71.504 114.91 71.2933 114.723 71.128C114.537 70.9627 114.318 70.84 114.067 70.76C113.817 70.6747 113.547 70.632 113.259 70.632C112.971 70.632 112.705 70.6747 112.459 70.76C112.214 70.8453 111.995 70.9653 111.803 71.12C111.617 71.2693 111.457 71.448 111.323 71.656C111.195 71.864 111.105 72.0933 111.051 72.344C111.009 72.4987 110.945 72.6107 110.859 72.68C110.774 72.7493 110.662 72.784 110.523 72.784C110.497 72.784 110.467 72.784 110.435 72.784C110.409 72.7787 110.377 72.7733 110.339 72.768L109.595 72.64C109.67 72.1173 109.814 71.656 110.027 71.256C110.241 70.8507 110.51 70.512 110.835 70.24C111.166 69.968 111.542 69.7627 111.963 69.624C112.39 69.48 112.849 69.408 113.339 69.408ZM68.04 125.272C68.04 126.131 67.904 126.92 67.632 127.64C67.36 128.355 66.976 128.971 66.48 129.488C65.984 130.005 65.3867 130.408 64.688 130.696C63.9947 130.979 63.2267 131.12 62.384 131.12C61.5413 131.12 60.7733 130.979 60.08 130.696C59.3867 130.408 58.792 130.005 58.296 129.488C57.8 128.971 57.416 128.355 57.144 127.64C56.872 126.92 56.736 126.131 56.736 125.272C56.736 124.413 56.872 123.627 57.144 122.912C57.416 122.192 57.8 121.573 58.296 121.056C58.792 120.533 59.3867 120.128 60.08 119.84C60.7733 119.552 61.5413 119.408 62.384 119.408C63.2267 119.408 63.9947 119.552 64.688 119.84C65.3867 120.128 65.984 120.533 66.48 121.056C66.976 121.573 67.36 122.192 67.632 122.912C67.904 123.627 68.04 124.413 68.04 125.272ZM66.448 125.272C66.448 124.568 66.352 123.936 66.16 123.376C65.968 122.816 65.696 122.344 65.344 121.96C64.992 121.571 64.5653 121.272 64.064 121.064C63.5627 120.856 63.0027 120.752 62.384 120.752C61.7707 120.752 61.2133 120.856 60.712 121.064C60.2107 121.272 59.7813 121.571 59.424 121.96C59.072 122.344 58.8 122.816 58.608 123.376C58.416 123.936 58.32 124.568 58.32 125.272C58.32 125.976 58.416 126.608 58.608 127.168C58.8 127.723 59.072 128.195 59.424 128.584C59.7813 128.968 60.2107 129.264 60.712 129.472C61.2133 129.675 61.7707 129.776 62.384 129.776C63.0027 129.776 63.5627 129.675 64.064 129.472C64.5653 129.264 64.992 128.968 65.344 128.584C65.696 128.195 65.968 127.723 66.16 127.168C66.352 126.608 66.448 125.976 66.448 125.272ZM69.9336 133.744V122.896H70.7816C70.9843 122.896 71.1123 122.995 71.1656 123.192L71.2856 124.152C71.6323 123.731 72.027 123.392 72.4696 123.136C72.9176 122.88 73.4323 122.752 74.0136 122.752C74.4776 122.752 74.899 122.843 75.2776 123.024C75.6563 123.2 75.979 123.464 76.2456 123.816C76.5123 124.163 76.7176 124.595 76.8616 125.112C77.0056 125.629 77.0776 126.224 77.0776 126.896C77.0776 127.493 76.9976 128.051 76.8376 128.568C76.6776 129.08 76.4483 129.525 76.1496 129.904C75.851 130.277 75.483 130.573 75.0456 130.792C74.6136 131.005 74.1256 131.112 73.5816 131.112C73.0803 131.112 72.651 131.029 72.2936 130.864C71.9416 130.699 71.6296 130.464 71.3576 130.16V133.744H69.9336ZM73.5416 123.904C73.0776 123.904 72.6696 124.011 72.3176 124.224C71.971 124.437 71.651 124.739 71.3576 125.128V129.048C71.619 129.4 71.9043 129.648 72.2136 129.792C72.5283 129.936 72.8776 130.008 73.2616 130.008C74.0136 130.008 74.5923 129.739 74.9976 129.2C75.403 128.661 75.6056 127.893 75.6056 126.896C75.6056 126.368 75.5576 125.915 75.4616 125.536C75.371 125.157 75.2376 124.848 75.0616 124.608C74.8856 124.363 74.6696 124.184 74.4136 124.072C74.1576 123.96 73.867 123.904 73.5416 123.904ZM81.2178 131.128C80.5778 131.128 80.0844 130.949 79.7378 130.592C79.3964 130.235 79.2258 129.72 79.2258 129.048V124.088H78.2498C78.1644 124.088 78.0924 124.064 78.0338 124.016C77.9751 123.963 77.9458 123.883 77.9458 123.776V123.208L79.2738 123.04L79.6018 120.536C79.6124 120.456 79.6471 120.392 79.7057 120.344C79.7644 120.291 79.8391 120.264 79.9298 120.264H80.6498V123.056H82.9698V124.088H80.6498V128.952C80.6498 129.293 80.7324 129.547 80.8978 129.712C81.0631 129.877 81.2764 129.96 81.5378 129.96C81.6871 129.96 81.8151 129.941 81.9218 129.904C82.0338 129.861 82.1298 129.816 82.2098 129.768C82.2898 129.72 82.3564 129.677 82.4098 129.64C82.4684 129.597 82.5191 129.576 82.5618 129.576C82.6364 129.576 82.7031 129.621 82.7618 129.712L83.1778 130.392C82.9324 130.621 82.6364 130.803 82.2898 130.936C81.9431 131.064 81.5858 131.128 81.2178 131.128ZM86.3145 122.896V131H84.8905V122.896H86.3145ZM86.6345 120.352C86.6345 120.491 86.6052 120.621 86.5465 120.744C86.4932 120.861 86.4185 120.968 86.3225 121.064C86.2318 121.155 86.1252 121.227 86.0025 121.28C85.8798 121.333 85.7492 121.36 85.6105 121.36C85.4718 121.36 85.3412 121.333 85.2185 121.28C85.1012 121.227 84.9945 121.155 84.8985 121.064C84.8078 120.968 84.7358 120.861 84.6825 120.744C84.6292 120.621 84.6025 120.491 84.6025 120.352C84.6025 120.213 84.6292 120.083 84.6825 119.96C84.7358 119.832 84.8078 119.723 84.8985 119.632C84.9945 119.536 85.1012 119.461 85.2185 119.408C85.3412 119.355 85.4718 119.328 85.6105 119.328C85.7492 119.328 85.8798 119.355 86.0025 119.408C86.1252 119.461 86.2318 119.536 86.3225 119.632C86.4185 119.723 86.4932 119.832 86.5465 119.96C86.6052 120.083 86.6345 120.213 86.6345 120.352ZM92.1043 122.768C92.6963 122.768 93.2296 122.867 93.7043 123.064C94.1843 123.261 94.5896 123.541 94.9203 123.904C95.2563 124.267 95.5123 124.707 95.6883 125.224C95.8696 125.736 95.9603 126.309 95.9603 126.944C95.9603 127.584 95.8696 128.16 95.6883 128.672C95.5123 129.184 95.2563 129.621 94.9203 129.984C94.5896 130.347 94.1843 130.627 93.7043 130.824C93.2296 131.016 92.6963 131.112 92.1043 131.112C91.5123 131.112 90.9763 131.016 90.4963 130.824C90.0216 130.627 89.6163 130.347 89.2803 129.984C88.9443 129.621 88.6856 129.184 88.5043 128.672C88.3229 128.16 88.2323 127.584 88.2323 126.944C88.2323 126.309 88.3229 125.736 88.5043 125.224C88.6856 124.707 88.9443 124.267 89.2803 123.904C89.6163 123.541 90.0216 123.261 90.4963 123.064C90.9763 122.867 91.5123 122.768 92.1043 122.768ZM92.1043 130C92.9043 130 93.5016 129.733 93.8963 129.2C94.2909 128.661 94.4883 127.912 94.4883 126.952C94.4883 125.987 94.2909 125.235 93.8963 124.696C93.5016 124.157 92.9043 123.888 92.1043 123.888C91.6989 123.888 91.3469 123.957 91.0483 124.096C90.7496 124.235 90.4989 124.435 90.2963 124.696C90.0989 124.957 89.9496 125.28 89.8483 125.664C89.7523 126.043 89.7043 126.472 89.7043 126.952C89.7043 127.432 89.7523 127.861 89.8483 128.24C89.9496 128.619 90.0989 128.939 90.2963 129.2C90.4989 129.456 90.7496 129.653 91.0483 129.792C91.3469 129.931 91.6989 130 92.1043 130ZM97.7149 131V122.896H98.5629C98.7655 122.896 98.8935 122.995 98.9469 123.192L99.0589 124.072C99.4109 123.683 99.8029 123.368 100.235 123.128C100.672 122.888 101.176 122.768 101.747 122.768C102.19 122.768 102.579 122.843 102.915 122.992C103.256 123.136 103.539 123.344 103.763 123.616C103.992 123.883 104.166 124.205 104.283 124.584C104.4 124.963 104.459 125.381 104.459 125.84V131H103.035V125.84C103.035 125.227 102.894 124.752 102.611 124.416C102.334 124.075 101.907 123.904 101.331 123.904C100.91 123.904 100.515 124.005 100.147 124.208C99.7842 124.411 99.4482 124.685 99.1389 125.032V131H97.7149ZM113.491 119.408C113.977 119.408 114.425 119.477 114.835 119.616C115.246 119.755 115.598 119.952 115.891 120.208C116.19 120.464 116.422 120.773 116.587 121.136C116.753 121.499 116.835 121.901 116.835 122.344C116.835 122.707 116.787 123.032 116.691 123.32C116.601 123.603 116.467 123.853 116.291 124.072C116.121 124.285 115.913 124.467 115.667 124.616C115.422 124.765 115.147 124.885 114.843 124.976C115.59 125.173 116.15 125.504 116.523 125.968C116.902 126.432 117.091 127.013 117.091 127.712C117.091 128.24 116.99 128.715 116.787 129.136C116.59 129.557 116.318 129.917 115.971 130.216C115.625 130.509 115.219 130.736 114.755 130.896C114.297 131.051 113.803 131.128 113.275 131.128C112.667 131.128 112.147 131.053 111.715 130.904C111.283 130.749 110.918 130.539 110.619 130.272C110.321 130.005 110.075 129.691 109.883 129.328C109.691 128.96 109.529 128.563 109.395 128.136L110.003 127.88C110.115 127.832 110.227 127.808 110.339 127.808C110.446 127.808 110.539 127.832 110.619 127.88C110.705 127.923 110.769 127.992 110.811 128.088C110.822 128.109 110.833 128.133 110.843 128.16C110.854 128.181 110.865 128.205 110.875 128.232C110.95 128.387 111.041 128.563 111.147 128.76C111.254 128.952 111.398 129.133 111.579 129.304C111.761 129.475 111.985 129.619 112.251 129.736C112.523 129.853 112.859 129.912 113.259 129.912C113.659 129.912 114.009 129.848 114.307 129.72C114.611 129.587 114.862 129.416 115.059 129.208C115.262 129 115.414 128.768 115.515 128.512C115.617 128.256 115.667 128.003 115.667 127.752C115.667 127.443 115.625 127.16 115.539 126.904C115.459 126.648 115.31 126.427 115.091 126.24C114.878 126.053 114.579 125.907 114.195 125.8C113.817 125.693 113.329 125.64 112.731 125.64V124.608C113.217 124.603 113.63 124.549 113.971 124.448C114.318 124.347 114.601 124.208 114.819 124.032C115.038 123.856 115.195 123.645 115.291 123.4C115.393 123.155 115.443 122.883 115.443 122.584C115.443 122.253 115.39 121.965 115.283 121.72C115.182 121.475 115.041 121.272 114.859 121.112C114.678 120.952 114.462 120.832 114.211 120.752C113.966 120.672 113.699 120.632 113.411 120.632C113.123 120.632 112.857 120.675 112.611 120.76C112.366 120.845 112.147 120.965 111.955 121.12C111.769 121.269 111.611 121.451 111.483 121.664C111.355 121.872 111.259 122.099 111.195 122.344C111.153 122.499 111.089 122.611 111.003 122.68C110.918 122.749 110.809 122.784 110.675 122.784C110.649 122.784 110.619 122.784 110.587 122.784C110.561 122.779 110.529 122.773 110.491 122.768L109.747 122.64C109.822 122.117 109.966 121.656 110.179 121.256C110.393 120.851 110.662 120.512 110.987 120.24C111.318 119.968 111.694 119.763 112.115 119.624C112.542 119.48 113.001 119.408 113.491 119.408ZM68.04 175.272C68.04 176.131 67.904 176.92 67.632 177.64C67.36 178.355 66.976 178.971 66.48 179.488C65.984 180.005 65.3867 180.408 64.688 180.696C63.9947 180.979 63.2267 181.12 62.384 181.12C61.5413 181.12 60.7733 180.979 60.08 180.696C59.3867 180.408 58.792 180.005 58.296 179.488C57.8 178.971 57.416 178.355 57.144 177.64C56.872 176.92 56.736 176.131 56.736 175.272C56.736 174.413 56.872 173.627 57.144 172.912C57.416 172.192 57.8 171.573 58.296 171.056C58.792 170.533 59.3867 170.128 60.08 169.84C60.7733 169.552 61.5413 169.408 62.384 169.408C63.2267 169.408 63.9947 169.552 64.688 169.84C65.3867 170.128 65.984 170.533 66.48 171.056C66.976 171.573 67.36 172.192 67.632 172.912C67.904 173.627 68.04 174.413 68.04 175.272ZM66.448 175.272C66.448 174.568 66.352 173.936 66.16 173.376C65.968 172.816 65.696 172.344 65.344 171.96C64.992 171.571 64.5653 171.272 64.064 171.064C63.5627 170.856 63.0027 170.752 62.384 170.752C61.7707 170.752 61.2133 170.856 60.712 171.064C60.2107 171.272 59.7813 171.571 59.424 171.96C59.072 172.344 58.8 172.816 58.608 173.376C58.416 173.936 58.32 174.568 58.32 175.272C58.32 175.976 58.416 176.608 58.608 177.168C58.8 177.723 59.072 178.195 59.424 178.584C59.7813 178.968 60.2107 179.264 60.712 179.472C61.2133 179.675 61.7707 179.776 62.384 179.776C63.0027 179.776 63.5627 179.675 64.064 179.472C64.5653 179.264 64.992 178.968 65.344 178.584C65.696 178.195 65.968 177.723 66.16 177.168C66.352 176.608 66.448 175.976 66.448 175.272ZM69.9336 183.744V172.896H70.7816C70.9843 172.896 71.1123 172.995 71.1656 173.192L71.2856 174.152C71.6323 173.731 72.027 173.392 72.4696 173.136C72.9176 172.88 73.4323 172.752 74.0136 172.752C74.4776 172.752 74.899 172.843 75.2776 173.024C75.6563 173.2 75.979 173.464 76.2456 173.816C76.5123 174.163 76.7176 174.595 76.8616 175.112C77.0056 175.629 77.0776 176.224 77.0776 176.896C77.0776 177.493 76.9976 178.051 76.8376 178.568C76.6776 179.08 76.4483 179.525 76.1496 179.904C75.851 180.277 75.483 180.573 75.0456 180.792C74.6136 181.005 74.1256 181.112 73.5816 181.112C73.0803 181.112 72.651 181.029 72.2936 180.864C71.9416 180.699 71.6296 180.464 71.3576 180.16V183.744H69.9336ZM73.5416 173.904C73.0776 173.904 72.6696 174.011 72.3176 174.224C71.971 174.437 71.651 174.739 71.3576 175.128V179.048C71.619 179.4 71.9043 179.648 72.2136 179.792C72.5283 179.936 72.8776 180.008 73.2616 180.008C74.0136 180.008 74.5923 179.739 74.9976 179.2C75.403 178.661 75.6056 177.893 75.6056 176.896C75.6056 176.368 75.5576 175.915 75.4616 175.536C75.371 175.157 75.2376 174.848 75.0616 174.608C74.8856 174.363 74.6696 174.184 74.4136 174.072C74.1576 173.96 73.867 173.904 73.5416 173.904ZM81.2178 181.128C80.5778 181.128 80.0844 180.949 79.7378 180.592C79.3964 180.235 79.2258 179.72 79.2258 179.048V174.088H78.2498C78.1644 174.088 78.0924 174.064 78.0338 174.016C77.9751 173.963 77.9458 173.883 77.9458 173.776V173.208L79.2738 173.04L79.6018 170.536C79.6124 170.456 79.6471 170.392 79.7057 170.344C79.7644 170.291 79.8391 170.264 79.9298 170.264H80.6498V173.056H82.9698V174.088H80.6498V178.952C80.6498 179.293 80.7324 179.547 80.8978 179.712C81.0631 179.877 81.2764 179.96 81.5378 179.96C81.6871 179.96 81.8151 179.941 81.9218 179.904C82.0338 179.861 82.1298 179.816 82.2098 179.768C82.2898 179.72 82.3564 179.677 82.4098 179.64C82.4684 179.597 82.5191 179.576 82.5618 179.576C82.6364 179.576 82.7031 179.621 82.7618 179.712L83.1778 180.392C82.9324 180.621 82.6364 180.803 82.2898 180.936C81.9431 181.064 81.5858 181.128 81.2178 181.128ZM86.3145 172.896V181H84.8905V172.896H86.3145ZM86.6345 170.352C86.6345 170.491 86.6052 170.621 86.5465 170.744C86.4932 170.861 86.4185 170.968 86.3225 171.064C86.2318 171.155 86.1252 171.227 86.0025 171.28C85.8798 171.333 85.7492 171.36 85.6105 171.36C85.4718 171.36 85.3412 171.333 85.2185 171.28C85.1012 171.227 84.9945 171.155 84.8985 171.064C84.8078 170.968 84.7358 170.861 84.6825 170.744C84.6292 170.621 84.6025 170.491 84.6025 170.352C84.6025 170.213 84.6292 170.083 84.6825 169.96C84.7358 169.832 84.8078 169.723 84.8985 169.632C84.9945 169.536 85.1012 169.461 85.2185 169.408C85.3412 169.355 85.4718 169.328 85.6105 169.328C85.7492 169.328 85.8798 169.355 86.0025 169.408C86.1252 169.461 86.2318 169.536 86.3225 169.632C86.4185 169.723 86.4932 169.832 86.5465 169.96C86.6052 170.083 86.6345 170.213 86.6345 170.352ZM92.1043 172.768C92.6963 172.768 93.2296 172.867 93.7043 173.064C94.1843 173.261 94.5896 173.541 94.9203 173.904C95.2563 174.267 95.5123 174.707 95.6883 175.224C95.8696 175.736 95.9603 176.309 95.9603 176.944C95.9603 177.584 95.8696 178.16 95.6883 178.672C95.5123 179.184 95.2563 179.621 94.9203 179.984C94.5896 180.347 94.1843 180.627 93.7043 180.824C93.2296 181.016 92.6963 181.112 92.1043 181.112C91.5123 181.112 90.9763 181.016 90.4963 180.824C90.0216 180.627 89.6163 180.347 89.2803 179.984C88.9443 179.621 88.6856 179.184 88.5043 178.672C88.3229 178.16 88.2323 177.584 88.2323 176.944C88.2323 176.309 88.3229 175.736 88.5043 175.224C88.6856 174.707 88.9443 174.267 89.2803 173.904C89.6163 173.541 90.0216 173.261 90.4963 173.064C90.9763 172.867 91.5123 172.768 92.1043 172.768ZM92.1043 180C92.9043 180 93.5016 179.733 93.8963 179.2C94.2909 178.661 94.4883 177.912 94.4883 176.952C94.4883 175.987 94.2909 175.235 93.8963 174.696C93.5016 174.157 92.9043 173.888 92.1043 173.888C91.6989 173.888 91.3469 173.957 91.0483 174.096C90.7496 174.235 90.4989 174.435 90.2963 174.696C90.0989 174.957 89.9496 175.28 89.8483 175.664C89.7523 176.043 89.7043 176.472 89.7043 176.952C89.7043 177.432 89.7523 177.861 89.8483 178.24C89.9496 178.619 90.0989 178.939 90.2963 179.2C90.4989 179.456 90.7496 179.653 91.0483 179.792C91.3469 179.931 91.6989 180 92.1043 180ZM97.7149 181V172.896H98.5629C98.7655 172.896 98.8935 172.995 98.9469 173.192L99.0589 174.072C99.4109 173.683 99.8029 173.368 100.235 173.128C100.672 172.888 101.176 172.768 101.747 172.768C102.19 172.768 102.579 172.843 102.915 172.992C103.256 173.136 103.539 173.344 103.763 173.616C103.992 173.883 104.166 174.205 104.283 174.584C104.4 174.963 104.459 175.381 104.459 175.84V181H103.035V175.84C103.035 175.227 102.894 174.752 102.611 174.416C102.334 174.075 101.907 173.904 101.331 173.904C100.91 173.904 100.515 174.005 100.147 174.208C99.7842 174.411 99.4482 174.685 99.1389 175.032V181H97.7149ZM115.755 176.864H117.491V177.68C117.491 177.765 117.465 177.837 117.411 177.896C117.363 177.955 117.286 177.984 117.179 177.984H115.755V181H114.499V177.984H109.419C109.313 177.984 109.219 177.955 109.139 177.896C109.065 177.832 109.017 177.755 108.995 177.664L108.851 176.936L114.427 169.536H115.755V176.864ZM114.499 172.136C114.499 171.997 114.502 171.848 114.507 171.688C114.518 171.528 114.537 171.363 114.563 171.192L110.395 176.864H114.499V172.136ZM68.04 225.272C68.04 226.131 67.904 226.92 67.632 227.64C67.36 228.355 66.976 228.971 66.48 229.488C65.984 230.005 65.3867 230.408 64.688 230.696C63.9947 230.979 63.2267 231.12 62.384 231.12C61.5413 231.12 60.7733 230.979 60.08 230.696C59.3867 230.408 58.792 230.005 58.296 229.488C57.8 228.971 57.416 228.355 57.144 227.64C56.872 226.92 56.736 226.131 56.736 225.272C56.736 224.413 56.872 223.627 57.144 222.912C57.416 222.192 57.8 221.573 58.296 221.056C58.792 220.533 59.3867 220.128 60.08 219.84C60.7733 219.552 61.5413 219.408 62.384 219.408C63.2267 219.408 63.9947 219.552 64.688 219.84C65.3867 220.128 65.984 220.533 66.48 221.056C66.976 221.573 67.36 222.192 67.632 222.912C67.904 223.627 68.04 224.413 68.04 225.272ZM66.448 225.272C66.448 224.568 66.352 223.936 66.16 223.376C65.968 222.816 65.696 222.344 65.344 221.96C64.992 221.571 64.5653 221.272 64.064 221.064C63.5627 220.856 63.0027 220.752 62.384 220.752C61.7707 220.752 61.2133 220.856 60.712 221.064C60.2107 221.272 59.7813 221.571 59.424 221.96C59.072 222.344 58.8 222.816 58.608 223.376C58.416 223.936 58.32 224.568 58.32 225.272C58.32 225.976 58.416 226.608 58.608 227.168C58.8 227.723 59.072 228.195 59.424 228.584C59.7813 228.968 60.2107 229.264 60.712 229.472C61.2133 229.675 61.7707 229.776 62.384 229.776C63.0027 229.776 63.5627 229.675 64.064 229.472C64.5653 229.264 64.992 228.968 65.344 228.584C65.696 228.195 65.968 227.723 66.16 227.168C66.352 226.608 66.448 225.976 66.448 225.272ZM69.9336 233.744V222.896H70.7816C70.9843 222.896 71.1123 222.995 71.1656 223.192L71.2856 224.152C71.6323 223.731 72.027 223.392 72.4696 223.136C72.9176 222.88 73.4323 222.752 74.0136 222.752C74.4776 222.752 74.899 222.843 75.2776 223.024C75.6563 223.2 75.979 223.464 76.2456 223.816C76.5123 224.163 76.7176 224.595 76.8616 225.112C77.0056 225.629 77.0776 226.224 77.0776 226.896C77.0776 227.493 76.9976 228.051 76.8376 228.568C76.6776 229.08 76.4483 229.525 76.1496 229.904C75.851 230.277 75.483 230.573 75.0456 230.792C74.6136 231.005 74.1256 231.112 73.5816 231.112C73.0803 231.112 72.651 231.029 72.2936 230.864C71.9416 230.699 71.6296 230.464 71.3576 230.16V233.744H69.9336ZM73.5416 223.904C73.0776 223.904 72.6696 224.011 72.3176 224.224C71.971 224.437 71.651 224.739 71.3576 225.128V229.048C71.619 229.4 71.9043 229.648 72.2136 229.792C72.5283 229.936 72.8776 230.008 73.2616 230.008C74.0136 230.008 74.5923 229.739 74.9976 229.2C75.403 228.661 75.6056 227.893 75.6056 226.896C75.6056 226.368 75.5576 225.915 75.4616 225.536C75.371 225.157 75.2376 224.848 75.0616 224.608C74.8856 224.363 74.6696 224.184 74.4136 224.072C74.1576 223.96 73.867 223.904 73.5416 223.904ZM81.2178 231.128C80.5778 231.128 80.0844 230.949 79.7378 230.592C79.3964 230.235 79.2258 229.72 79.2258 229.048V224.088H78.2498C78.1644 224.088 78.0924 224.064 78.0338 224.016C77.9751 223.963 77.9458 223.883 77.9458 223.776V223.208L79.2738 223.04L79.6018 220.536C79.6124 220.456 79.6471 220.392 79.7057 220.344C79.7644 220.291 79.8391 220.264 79.9298 220.264H80.6498V223.056H82.9698V224.088H80.6498V228.952C80.6498 229.293 80.7324 229.547 80.8978 229.712C81.0631 229.877 81.2764 229.96 81.5378 229.96C81.6871 229.96 81.8151 229.941 81.9218 229.904C82.0338 229.861 82.1298 229.816 82.2098 229.768C82.2898 229.72 82.3564 229.677 82.4098 229.64C82.4684 229.597 82.5191 229.576 82.5618 229.576C82.6364 229.576 82.7031 229.621 82.7618 229.712L83.1778 230.392C82.9324 230.621 82.6364 230.803 82.2898 230.936C81.9431 231.064 81.5858 231.128 81.2178 231.128ZM86.3145 222.896V231H84.8905V222.896H86.3145ZM86.6345 220.352C86.6345 220.491 86.6052 220.621 86.5465 220.744C86.4932 220.861 86.4185 220.968 86.3225 221.064C86.2318 221.155 86.1252 221.227 86.0025 221.28C85.8798 221.333 85.7492 221.36 85.6105 221.36C85.4718 221.36 85.3412 221.333 85.2185 221.28C85.1012 221.227 84.9945 221.155 84.8985 221.064C84.8078 220.968 84.7358 220.861 84.6825 220.744C84.6292 220.621 84.6025 220.491 84.6025 220.352C84.6025 220.213 84.6292 220.083 84.6825 219.96C84.7358 219.832 84.8078 219.723 84.8985 219.632C84.9945 219.536 85.1012 219.461 85.2185 219.408C85.3412 219.355 85.4718 219.328 85.6105 219.328C85.7492 219.328 85.8798 219.355 86.0025 219.408C86.1252 219.461 86.2318 219.536 86.3225 219.632C86.4185 219.723 86.4932 219.832 86.5465 219.96C86.6052 220.083 86.6345 220.213 86.6345 220.352ZM92.1043 222.768C92.6963 222.768 93.2296 222.867 93.7043 223.064C94.1843 223.261 94.5896 223.541 94.9203 223.904C95.2563 224.267 95.5123 224.707 95.6883 225.224C95.8696 225.736 95.9603 226.309 95.9603 226.944C95.9603 227.584 95.8696 228.16 95.6883 228.672C95.5123 229.184 95.2563 229.621 94.9203 229.984C94.5896 230.347 94.1843 230.627 93.7043 230.824C93.2296 231.016 92.6963 231.112 92.1043 231.112C91.5123 231.112 90.9763 231.016 90.4963 230.824C90.0216 230.627 89.6163 230.347 89.2803 229.984C88.9443 229.621 88.6856 229.184 88.5043 228.672C88.3229 228.16 88.2323 227.584 88.2323 226.944C88.2323 226.309 88.3229 225.736 88.5043 225.224C88.6856 224.707 88.9443 224.267 89.2803 223.904C89.6163 223.541 90.0216 223.261 90.4963 223.064C90.9763 222.867 91.5123 222.768 92.1043 222.768ZM92.1043 230C92.9043 230 93.5016 229.733 93.8963 229.2C94.2909 228.661 94.4883 227.912 94.4883 226.952C94.4883 225.987 94.2909 225.235 93.8963 224.696C93.5016 224.157 92.9043 223.888 92.1043 223.888C91.6989 223.888 91.3469 223.957 91.0483 224.096C90.7496 224.235 90.4989 224.435 90.2963 224.696C90.0989 224.957 89.9496 225.28 89.8483 225.664C89.7523 226.043 89.7043 226.472 89.7043 226.952C89.7043 227.432 89.7523 227.861 89.8483 228.24C89.9496 228.619 90.0989 228.939 90.2963 229.2C90.4989 229.456 90.7496 229.653 91.0483 229.792C91.3469 229.931 91.6989 230 92.1043 230ZM97.7149 231V222.896H98.5629C98.7655 222.896 98.8935 222.995 98.9469 223.192L99.0589 224.072C99.4109 223.683 99.8029 223.368 100.235 223.128C100.672 222.888 101.176 222.768 101.747 222.768C102.19 222.768 102.579 222.843 102.915 222.992C103.256 223.136 103.539 223.344 103.763 223.616C103.992 223.883 104.166 224.205 104.283 224.584C104.4 224.963 104.459 225.381 104.459 225.84V231H103.035V225.84C103.035 225.227 102.894 224.752 102.611 224.416C102.334 224.075 101.907 223.904 101.331 223.904C100.91 223.904 100.515 224.005 100.147 224.208C99.7842 224.411 99.4482 224.685 99.1389 225.032V231H97.7149ZM116.355 220.16C116.355 220.363 116.291 220.531 116.163 220.664C116.035 220.792 115.819 220.856 115.515 220.856H111.915L111.387 223.864C111.985 223.736 112.537 223.672 113.043 223.672C113.641 223.672 114.166 223.76 114.619 223.936C115.078 224.112 115.462 224.355 115.771 224.664C116.081 224.973 116.313 225.339 116.467 225.76C116.627 226.181 116.707 226.64 116.707 227.136C116.707 227.744 116.601 228.293 116.387 228.784C116.174 229.275 115.881 229.696 115.507 230.048C115.139 230.395 114.705 230.661 114.203 230.848C113.702 231.035 113.161 231.128 112.579 231.128C112.243 231.128 111.921 231.093 111.611 231.024C111.302 230.96 111.014 230.872 110.747 230.76C110.481 230.648 110.233 230.52 110.003 230.376C109.774 230.232 109.571 230.08 109.395 229.92L109.827 229.312C109.923 229.173 110.051 229.104 110.211 229.104C110.313 229.104 110.43 229.147 110.563 229.232C110.702 229.312 110.867 229.403 111.059 229.504C111.251 229.605 111.475 229.699 111.731 229.784C111.993 229.864 112.302 229.904 112.659 229.904C113.059 229.904 113.419 229.84 113.739 229.712C114.059 229.584 114.331 229.403 114.555 229.168C114.785 228.928 114.961 228.643 115.083 228.312C115.206 227.981 115.267 227.611 115.267 227.2C115.267 226.843 115.214 226.52 115.107 226.232C115.006 225.944 114.849 225.699 114.635 225.496C114.427 225.293 114.166 225.136 113.851 225.024C113.537 224.912 113.169 224.856 112.747 224.856C112.459 224.856 112.161 224.88 111.851 224.928C111.542 224.976 111.222 225.053 110.891 225.16L109.995 224.896L110.923 219.536H116.355V220.16ZM68.04 275.272C68.04 276.131 67.904 276.92 67.632 277.64C67.36 278.355 66.976 278.971 66.48 279.488C65.984 280.005 65.3867 280.408 64.688 280.696C63.9947 280.979 63.2267 281.12 62.384 281.12C61.5413 281.12 60.7733 280.979 60.08 280.696C59.3867 280.408 58.792 280.005 58.296 279.488C57.8 278.971 57.416 278.355 57.144 277.64C56.872 276.92 56.736 276.131 56.736 275.272C56.736 274.413 56.872 273.627 57.144 272.912C57.416 272.192 57.8 271.573 58.296 271.056C58.792 270.533 59.3867 270.128 60.08 269.84C60.7733 269.552 61.5413 269.408 62.384 269.408C63.2267 269.408 63.9947 269.552 64.688 269.84C65.3867 270.128 65.984 270.533 66.48 271.056C66.976 271.573 67.36 272.192 67.632 272.912C67.904 273.627 68.04 274.413 68.04 275.272ZM66.448 275.272C66.448 274.568 66.352 273.936 66.16 273.376C65.968 272.816 65.696 272.344 65.344 271.96C64.992 271.571 64.5653 271.272 64.064 271.064C63.5627 270.856 63.0027 270.752 62.384 270.752C61.7707 270.752 61.2133 270.856 60.712 271.064C60.2107 271.272 59.7813 271.571 59.424 271.96C59.072 272.344 58.8 272.816 58.608 273.376C58.416 273.936 58.32 274.568 58.32 275.272C58.32 275.976 58.416 276.608 58.608 277.168C58.8 277.723 59.072 278.195 59.424 278.584C59.7813 278.968 60.2107 279.264 60.712 279.472C61.2133 279.675 61.7707 279.776 62.384 279.776C63.0027 279.776 63.5627 279.675 64.064 279.472C64.5653 279.264 64.992 278.968 65.344 278.584C65.696 278.195 65.968 277.723 66.16 277.168C66.352 276.608 66.448 275.976 66.448 275.272ZM69.9336 283.744V272.896H70.7816C70.9843 272.896 71.1123 272.995 71.1656 273.192L71.2856 274.152C71.6323 273.731 72.027 273.392 72.4696 273.136C72.9176 272.88 73.4323 272.752 74.0136 272.752C74.4776 272.752 74.899 272.843 75.2776 273.024C75.6563 273.2 75.979 273.464 76.2456 273.816C76.5123 274.163 76.7176 274.595 76.8616 275.112C77.0056 275.629 77.0776 276.224 77.0776 276.896C77.0776 277.493 76.9976 278.051 76.8376 278.568C76.6776 279.08 76.4483 279.525 76.1496 279.904C75.851 280.277 75.483 280.573 75.0456 280.792C74.6136 281.005 74.1256 281.112 73.5816 281.112C73.0803 281.112 72.651 281.029 72.2936 280.864C71.9416 280.699 71.6296 280.464 71.3576 280.16V283.744H69.9336ZM73.5416 273.904C73.0776 273.904 72.6696 274.011 72.3176 274.224C71.971 274.437 71.651 274.739 71.3576 275.128V279.048C71.619 279.4 71.9043 279.648 72.2136 279.792C72.5283 279.936 72.8776 280.008 73.2616 280.008C74.0136 280.008 74.5923 279.739 74.9976 279.2C75.403 278.661 75.6056 277.893 75.6056 276.896C75.6056 276.368 75.5576 275.915 75.4616 275.536C75.371 275.157 75.2376 274.848 75.0616 274.608C74.8856 274.363 74.6696 274.184 74.4136 274.072C74.1576 273.96 73.867 273.904 73.5416 273.904ZM81.2178 281.128C80.5778 281.128 80.0844 280.949 79.7378 280.592C79.3964 280.235 79.2258 279.72 79.2258 279.048V274.088H78.2498C78.1644 274.088 78.0924 274.064 78.0338 274.016C77.9751 273.963 77.9458 273.883 77.9458 273.776V273.208L79.2738 273.04L79.6018 270.536C79.6124 270.456 79.6471 270.392 79.7057 270.344C79.7644 270.291 79.8391 270.264 79.9298 270.264H80.6498V273.056H82.9698V274.088H80.6498V278.952C80.6498 279.293 80.7324 279.547 80.8978 279.712C81.0631 279.877 81.2764 279.96 81.5378 279.96C81.6871 279.96 81.8151 279.941 81.9218 279.904C82.0338 279.861 82.1298 279.816 82.2098 279.768C82.2898 279.72 82.3564 279.677 82.4098 279.64C82.4684 279.597 82.5191 279.576 82.5618 279.576C82.6364 279.576 82.7031 279.621 82.7618 279.712L83.1778 280.392C82.9324 280.621 82.6364 280.803 82.2898 280.936C81.9431 281.064 81.5858 281.128 81.2178 281.128ZM86.3145 272.896V281H84.8905V272.896H86.3145ZM86.6345 270.352C86.6345 270.491 86.6052 270.621 86.5465 270.744C86.4932 270.861 86.4185 270.968 86.3225 271.064C86.2318 271.155 86.1252 271.227 86.0025 271.28C85.8798 271.333 85.7492 271.36 85.6105 271.36C85.4718 271.36 85.3412 271.333 85.2185 271.28C85.1012 271.227 84.9945 271.155 84.8985 271.064C84.8078 270.968 84.7358 270.861 84.6825 270.744C84.6292 270.621 84.6025 270.491 84.6025 270.352C84.6025 270.213 84.6292 270.083 84.6825 269.96C84.7358 269.832 84.8078 269.723 84.8985 269.632C84.9945 269.536 85.1012 269.461 85.2185 269.408C85.3412 269.355 85.4718 269.328 85.6105 269.328C85.7492 269.328 85.8798 269.355 86.0025 269.408C86.1252 269.461 86.2318 269.536 86.3225 269.632C86.4185 269.723 86.4932 269.832 86.5465 269.96C86.6052 270.083 86.6345 270.213 86.6345 270.352ZM92.1043 272.768C92.6963 272.768 93.2296 272.867 93.7043 273.064C94.1843 273.261 94.5896 273.541 94.9203 273.904C95.2563 274.267 95.5123 274.707 95.6883 275.224C95.8696 275.736 95.9603 276.309 95.9603 276.944C95.9603 277.584 95.8696 278.16 95.6883 278.672C95.5123 279.184 95.2563 279.621 94.9203 279.984C94.5896 280.347 94.1843 280.627 93.7043 280.824C93.2296 281.016 92.6963 281.112 92.1043 281.112C91.5123 281.112 90.9763 281.016 90.4963 280.824C90.0216 280.627 89.6163 280.347 89.2803 279.984C88.9443 279.621 88.6856 279.184 88.5043 278.672C88.3229 278.16 88.2323 277.584 88.2323 276.944C88.2323 276.309 88.3229 275.736 88.5043 275.224C88.6856 274.707 88.9443 274.267 89.2803 273.904C89.6163 273.541 90.0216 273.261 90.4963 273.064C90.9763 272.867 91.5123 272.768 92.1043 272.768ZM92.1043 280C92.9043 280 93.5016 279.733 93.8963 279.2C94.2909 278.661 94.4883 277.912 94.4883 276.952C94.4883 275.987 94.2909 275.235 93.8963 274.696C93.5016 274.157 92.9043 273.888 92.1043 273.888C91.6989 273.888 91.3469 273.957 91.0483 274.096C90.7496 274.235 90.4989 274.435 90.2963 274.696C90.0989 274.957 89.9496 275.28 89.8483 275.664C89.7523 276.043 89.7043 276.472 89.7043 276.952C89.7043 277.432 89.7523 277.861 89.8483 278.24C89.9496 278.619 90.0989 278.939 90.2963 279.2C90.4989 279.456 90.7496 279.653 91.0483 279.792C91.3469 279.931 91.6989 280 92.1043 280ZM97.7149 281V272.896H98.5629C98.7655 272.896 98.8935 272.995 98.9469 273.192L99.0589 274.072C99.4109 273.683 99.8029 273.368 100.235 273.128C100.672 272.888 101.176 272.768 101.747 272.768C102.19 272.768 102.579 272.843 102.915 272.992C103.256 273.136 103.539 273.344 103.763 273.616C103.992 273.883 104.166 274.205 104.283 274.584C104.4 274.963 104.459 275.381 104.459 275.84V281H103.035V275.84C103.035 275.227 102.894 274.752 102.611 274.416C102.334 274.075 101.907 273.904 101.331 273.904C100.91 273.904 100.515 274.005 100.147 274.208C99.7842 274.411 99.4482 274.685 99.1389 275.032V281H97.7149ZM113.731 273.976C114.19 273.976 114.625 274.053 115.035 274.208C115.446 274.357 115.806 274.579 116.115 274.872C116.425 275.16 116.67 275.517 116.851 275.944C117.033 276.365 117.123 276.848 117.123 277.392C117.123 277.92 117.027 278.411 116.835 278.864C116.643 279.317 116.374 279.712 116.027 280.048C115.686 280.384 115.273 280.648 114.787 280.84C114.302 281.032 113.769 281.128 113.187 281.128C112.611 281.128 112.089 281.037 111.619 280.856C111.155 280.669 110.758 280.408 110.427 280.072C110.097 279.731 109.841 279.32 109.659 278.84C109.483 278.355 109.395 277.813 109.395 277.216C109.395 276.715 109.507 276.181 109.731 275.616C109.955 275.051 110.31 274.443 110.795 273.792L113.699 269.88C113.774 269.784 113.878 269.704 114.011 269.64C114.145 269.571 114.297 269.536 114.467 269.536H115.731L111.755 274.568C112.027 274.381 112.329 274.237 112.659 274.136C112.99 274.029 113.347 273.976 113.731 273.976ZM110.771 277.464C110.771 277.832 110.825 278.168 110.931 278.472C111.038 278.776 111.193 279.037 111.395 279.256C111.603 279.475 111.854 279.645 112.147 279.768C112.446 279.885 112.785 279.944 113.163 279.944C113.547 279.944 113.894 279.883 114.203 279.76C114.513 279.637 114.777 279.467 114.995 279.248C115.219 279.029 115.39 278.771 115.507 278.472C115.63 278.173 115.691 277.848 115.691 277.496C115.691 277.123 115.633 276.787 115.515 276.488C115.398 276.184 115.233 275.928 115.019 275.72C114.806 275.507 114.55 275.344 114.251 275.232C113.953 275.12 113.625 275.064 113.267 275.064C112.883 275.064 112.537 275.131 112.227 275.264C111.918 275.392 111.654 275.568 111.435 275.792C111.222 276.011 111.057 276.267 110.939 276.56C110.827 276.848 110.771 277.149 110.771 277.464ZM68.04 325.272C68.04 326.131 67.904 326.92 67.632 327.64C67.36 328.355 66.976 328.971 66.48 329.488C65.984 330.005 65.3867 330.408 64.688 330.696C63.9947 330.979 63.2267 331.12 62.384 331.12C61.5413 331.12 60.7733 330.979 60.08 330.696C59.3867 330.408 58.792 330.005 58.296 329.488C57.8 328.971 57.416 328.355 57.144 327.64C56.872 326.92 56.736 326.131 56.736 325.272C56.736 324.413 56.872 323.627 57.144 322.912C57.416 322.192 57.8 321.573 58.296 321.056C58.792 320.533 59.3867 320.128 60.08 319.84C60.7733 319.552 61.5413 319.408 62.384 319.408C63.2267 319.408 63.9947 319.552 64.688 319.84C65.3867 320.128 65.984 320.533 66.48 321.056C66.976 321.573 67.36 322.192 67.632 322.912C67.904 323.627 68.04 324.413 68.04 325.272ZM66.448 325.272C66.448 324.568 66.352 323.936 66.16 323.376C65.968 322.816 65.696 322.344 65.344 321.96C64.992 321.571 64.5653 321.272 64.064 321.064C63.5627 320.856 63.0027 320.752 62.384 320.752C61.7707 320.752 61.2133 320.856 60.712 321.064C60.2107 321.272 59.7813 321.571 59.424 321.96C59.072 322.344 58.8 322.816 58.608 323.376C58.416 323.936 58.32 324.568 58.32 325.272C58.32 325.976 58.416 326.608 58.608 327.168C58.8 327.723 59.072 328.195 59.424 328.584C59.7813 328.968 60.2107 329.264 60.712 329.472C61.2133 329.675 61.7707 329.776 62.384 329.776C63.0027 329.776 63.5627 329.675 64.064 329.472C64.5653 329.264 64.992 328.968 65.344 328.584C65.696 328.195 65.968 327.723 66.16 327.168C66.352 326.608 66.448 325.976 66.448 325.272ZM69.9336 333.744V322.896H70.7816C70.9843 322.896 71.1123 322.995 71.1656 323.192L71.2856 324.152C71.6323 323.731 72.027 323.392 72.4696 323.136C72.9176 322.88 73.4323 322.752 74.0136 322.752C74.4776 322.752 74.899 322.843 75.2776 323.024C75.6563 323.2 75.979 323.464 76.2456 323.816C76.5123 324.163 76.7176 324.595 76.8616 325.112C77.0056 325.629 77.0776 326.224 77.0776 326.896C77.0776 327.493 76.9976 328.051 76.8376 328.568C76.6776 329.08 76.4483 329.525 76.1496 329.904C75.851 330.277 75.483 330.573 75.0456 330.792C74.6136 331.005 74.1256 331.112 73.5816 331.112C73.0803 331.112 72.651 331.029 72.2936 330.864C71.9416 330.699 71.6296 330.464 71.3576 330.16V333.744H69.9336ZM73.5416 323.904C73.0776 323.904 72.6696 324.011 72.3176 324.224C71.971 324.437 71.651 324.739 71.3576 325.128V329.048C71.619 329.4 71.9043 329.648 72.2136 329.792C72.5283 329.936 72.8776 330.008 73.2616 330.008C74.0136 330.008 74.5923 329.739 74.9976 329.2C75.403 328.661 75.6056 327.893 75.6056 326.896C75.6056 326.368 75.5576 325.915 75.4616 325.536C75.371 325.157 75.2376 324.848 75.0616 324.608C74.8856 324.363 74.6696 324.184 74.4136 324.072C74.1576 323.96 73.867 323.904 73.5416 323.904ZM81.2178 331.128C80.5778 331.128 80.0844 330.949 79.7378 330.592C79.3964 330.235 79.2258 329.72 79.2258 329.048V324.088H78.2498C78.1644 324.088 78.0924 324.064 78.0338 324.016C77.9751 323.963 77.9458 323.883 77.9458 323.776V323.208L79.2738 323.04L79.6018 320.536C79.6124 320.456 79.6471 320.392 79.7057 320.344C79.7644 320.291 79.8391 320.264 79.9298 320.264H80.6498V323.056H82.9698V324.088H80.6498V328.952C80.6498 329.293 80.7324 329.547 80.8978 329.712C81.0631 329.877 81.2764 329.96 81.5378 329.96C81.6871 329.96 81.8151 329.941 81.9218 329.904C82.0338 329.861 82.1298 329.816 82.2098 329.768C82.2898 329.72 82.3564 329.677 82.4098 329.64C82.4684 329.597 82.5191 329.576 82.5618 329.576C82.6364 329.576 82.7031 329.621 82.7618 329.712L83.1778 330.392C82.9324 330.621 82.6364 330.803 82.2898 330.936C81.9431 331.064 81.5858 331.128 81.2178 331.128ZM86.3145 322.896V331H84.8905V322.896H86.3145ZM86.6345 320.352C86.6345 320.491 86.6052 320.621 86.5465 320.744C86.4932 320.861 86.4185 320.968 86.3225 321.064C86.2318 321.155 86.1252 321.227 86.0025 321.28C85.8798 321.333 85.7492 321.36 85.6105 321.36C85.4718 321.36 85.3412 321.333 85.2185 321.28C85.1012 321.227 84.9945 321.155 84.8985 321.064C84.8078 320.968 84.7358 320.861 84.6825 320.744C84.6292 320.621 84.6025 320.491 84.6025 320.352C84.6025 320.213 84.6292 320.083 84.6825 319.96C84.7358 319.832 84.8078 319.723 84.8985 319.632C84.9945 319.536 85.1012 319.461 85.2185 319.408C85.3412 319.355 85.4718 319.328 85.6105 319.328C85.7492 319.328 85.8798 319.355 86.0025 319.408C86.1252 319.461 86.2318 319.536 86.3225 319.632C86.4185 319.723 86.4932 319.832 86.5465 319.96C86.6052 320.083 86.6345 320.213 86.6345 320.352ZM92.1043 322.768C92.6963 322.768 93.2296 322.867 93.7043 323.064C94.1843 323.261 94.5896 323.541 94.9203 323.904C95.2563 324.267 95.5123 324.707 95.6883 325.224C95.8696 325.736 95.9603 326.309 95.9603 326.944C95.9603 327.584 95.8696 328.16 95.6883 328.672C95.5123 329.184 95.2563 329.621 94.9203 329.984C94.5896 330.347 94.1843 330.627 93.7043 330.824C93.2296 331.016 92.6963 331.112 92.1043 331.112C91.5123 331.112 90.9763 331.016 90.4963 330.824C90.0216 330.627 89.6163 330.347 89.2803 329.984C88.9443 329.621 88.6856 329.184 88.5043 328.672C88.3229 328.16 88.2323 327.584 88.2323 326.944C88.2323 326.309 88.3229 325.736 88.5043 325.224C88.6856 324.707 88.9443 324.267 89.2803 323.904C89.6163 323.541 90.0216 323.261 90.4963 323.064C90.9763 322.867 91.5123 322.768 92.1043 322.768ZM92.1043 330C92.9043 330 93.5016 329.733 93.8963 329.2C94.2909 328.661 94.4883 327.912 94.4883 326.952C94.4883 325.987 94.2909 325.235 93.8963 324.696C93.5016 324.157 92.9043 323.888 92.1043 323.888C91.6989 323.888 91.3469 323.957 91.0483 324.096C90.7496 324.235 90.4989 324.435 90.2963 324.696C90.0989 324.957 89.9496 325.28 89.8483 325.664C89.7523 326.043 89.7043 326.472 89.7043 326.952C89.7043 327.432 89.7523 327.861 89.8483 328.24C89.9496 328.619 90.0989 328.939 90.2963 329.2C90.4989 329.456 90.7496 329.653 91.0483 329.792C91.3469 329.931 91.6989 330 92.1043 330ZM97.7149 331V322.896H98.5629C98.7655 322.896 98.8935 322.995 98.9469 323.192L99.0589 324.072C99.4109 323.683 99.8029 323.368 100.235 323.128C100.672 322.888 101.176 322.768 101.747 322.768C102.19 322.768 102.579 322.843 102.915 322.992C103.256 323.136 103.539 323.344 103.763 323.616C103.992 323.883 104.166 324.205 104.283 324.584C104.4 324.963 104.459 325.381 104.459 325.84V331H103.035V325.84C103.035 325.227 102.894 324.752 102.611 324.416C102.334 324.075 101.907 323.904 101.331 323.904C100.91 323.904 100.515 324.005 100.147 324.208C99.7842 324.411 99.4482 324.685 99.1389 325.032V331H97.7149ZM117.203 319.536V320.176C117.203 320.357 117.182 320.507 117.139 320.624C117.102 320.741 117.062 320.84 117.019 320.92L112.275 330.496C112.206 330.635 112.11 330.755 111.987 330.856C111.865 330.952 111.699 331 111.491 331H110.475L115.291 321.544C115.361 321.411 115.43 321.288 115.499 321.176C115.574 321.064 115.657 320.957 115.747 320.856H109.763C109.673 320.856 109.59 320.821 109.515 320.752C109.446 320.677 109.411 320.595 109.411 320.504V319.536H117.203ZM68.04 375.272C68.04 376.131 67.904 376.92 67.632 377.64C67.36 378.355 66.976 378.971 66.48 379.488C65.984 380.005 65.3867 380.408 64.688 380.696C63.9947 380.979 63.2267 381.12 62.384 381.12C61.5413 381.12 60.7733 380.979 60.08 380.696C59.3867 380.408 58.792 380.005 58.296 379.488C57.8 378.971 57.416 378.355 57.144 377.64C56.872 376.92 56.736 376.131 56.736 375.272C56.736 374.413 56.872 373.627 57.144 372.912C57.416 372.192 57.8 371.573 58.296 371.056C58.792 370.533 59.3867 370.128 60.08 369.84C60.7733 369.552 61.5413 369.408 62.384 369.408C63.2267 369.408 63.9947 369.552 64.688 369.84C65.3867 370.128 65.984 370.533 66.48 371.056C66.976 371.573 67.36 372.192 67.632 372.912C67.904 373.627 68.04 374.413 68.04 375.272ZM66.448 375.272C66.448 374.568 66.352 373.936 66.16 373.376C65.968 372.816 65.696 372.344 65.344 371.96C64.992 371.571 64.5653 371.272 64.064 371.064C63.5627 370.856 63.0027 370.752 62.384 370.752C61.7707 370.752 61.2133 370.856 60.712 371.064C60.2107 371.272 59.7813 371.571 59.424 371.96C59.072 372.344 58.8 372.816 58.608 373.376C58.416 373.936 58.32 374.568 58.32 375.272C58.32 375.976 58.416 376.608 58.608 377.168C58.8 377.723 59.072 378.195 59.424 378.584C59.7813 378.968 60.2107 379.264 60.712 379.472C61.2133 379.675 61.7707 379.776 62.384 379.776C63.0027 379.776 63.5627 379.675 64.064 379.472C64.5653 379.264 64.992 378.968 65.344 378.584C65.696 378.195 65.968 377.723 66.16 377.168C66.352 376.608 66.448 375.976 66.448 375.272ZM69.9336 383.744V372.896H70.7816C70.9843 372.896 71.1123 372.995 71.1656 373.192L71.2856 374.152C71.6323 373.731 72.027 373.392 72.4696 373.136C72.9176 372.88 73.4323 372.752 74.0136 372.752C74.4776 372.752 74.899 372.843 75.2776 373.024C75.6563 373.2 75.979 373.464 76.2456 373.816C76.5123 374.163 76.7176 374.595 76.8616 375.112C77.0056 375.629 77.0776 376.224 77.0776 376.896C77.0776 377.493 76.9976 378.051 76.8376 378.568C76.6776 379.08 76.4483 379.525 76.1496 379.904C75.851 380.277 75.483 380.573 75.0456 380.792C74.6136 381.005 74.1256 381.112 73.5816 381.112C73.0803 381.112 72.651 381.029 72.2936 380.864C71.9416 380.699 71.6296 380.464 71.3576 380.16V383.744H69.9336ZM73.5416 373.904C73.0776 373.904 72.6696 374.011 72.3176 374.224C71.971 374.437 71.651 374.739 71.3576 375.128V379.048C71.619 379.4 71.9043 379.648 72.2136 379.792C72.5283 379.936 72.8776 380.008 73.2616 380.008C74.0136 380.008 74.5923 379.739 74.9976 379.2C75.403 378.661 75.6056 377.893 75.6056 376.896C75.6056 376.368 75.5576 375.915 75.4616 375.536C75.371 375.157 75.2376 374.848 75.0616 374.608C74.8856 374.363 74.6696 374.184 74.4136 374.072C74.1576 373.96 73.867 373.904 73.5416 373.904ZM81.2178 381.128C80.5778 381.128 80.0844 380.949 79.7378 380.592C79.3964 380.235 79.2258 379.72 79.2258 379.048V374.088H78.2498C78.1644 374.088 78.0924 374.064 78.0338 374.016C77.9751 373.963 77.9458 373.883 77.9458 373.776V373.208L79.2738 373.04L79.6018 370.536C79.6124 370.456 79.6471 370.392 79.7057 370.344C79.7644 370.291 79.8391 370.264 79.9298 370.264H80.6498V373.056H82.9698V374.088H80.6498V378.952C80.6498 379.293 80.7324 379.547 80.8978 379.712C81.0631 379.877 81.2764 379.96 81.5378 379.96C81.6871 379.96 81.8151 379.941 81.9218 379.904C82.0338 379.861 82.1298 379.816 82.2098 379.768C82.2898 379.72 82.3564 379.677 82.4098 379.64C82.4684 379.597 82.5191 379.576 82.5618 379.576C82.6364 379.576 82.7031 379.621 82.7618 379.712L83.1778 380.392C82.9324 380.621 82.6364 380.803 82.2898 380.936C81.9431 381.064 81.5858 381.128 81.2178 381.128ZM86.3145 372.896V381H84.8905V372.896H86.3145ZM86.6345 370.352C86.6345 370.491 86.6052 370.621 86.5465 370.744C86.4932 370.861 86.4185 370.968 86.3225 371.064C86.2318 371.155 86.1252 371.227 86.0025 371.28C85.8798 371.333 85.7492 371.36 85.6105 371.36C85.4718 371.36 85.3412 371.333 85.2185 371.28C85.1012 371.227 84.9945 371.155 84.8985 371.064C84.8078 370.968 84.7358 370.861 84.6825 370.744C84.6292 370.621 84.6025 370.491 84.6025 370.352C84.6025 370.213 84.6292 370.083 84.6825 369.96C84.7358 369.832 84.8078 369.723 84.8985 369.632C84.9945 369.536 85.1012 369.461 85.2185 369.408C85.3412 369.355 85.4718 369.328 85.6105 369.328C85.7492 369.328 85.8798 369.355 86.0025 369.408C86.1252 369.461 86.2318 369.536 86.3225 369.632C86.4185 369.723 86.4932 369.832 86.5465 369.96C86.6052 370.083 86.6345 370.213 86.6345 370.352ZM92.1043 372.768C92.6963 372.768 93.2296 372.867 93.7043 373.064C94.1843 373.261 94.5896 373.541 94.9203 373.904C95.2563 374.267 95.5123 374.707 95.6883 375.224C95.8696 375.736 95.9603 376.309 95.9603 376.944C95.9603 377.584 95.8696 378.16 95.6883 378.672C95.5123 379.184 95.2563 379.621 94.9203 379.984C94.5896 380.347 94.1843 380.627 93.7043 380.824C93.2296 381.016 92.6963 381.112 92.1043 381.112C91.5123 381.112 90.9763 381.016 90.4963 380.824C90.0216 380.627 89.6163 380.347 89.2803 379.984C88.9443 379.621 88.6856 379.184 88.5043 378.672C88.3229 378.16 88.2323 377.584 88.2323 376.944C88.2323 376.309 88.3229 375.736 88.5043 375.224C88.6856 374.707 88.9443 374.267 89.2803 373.904C89.6163 373.541 90.0216 373.261 90.4963 373.064C90.9763 372.867 91.5123 372.768 92.1043 372.768ZM92.1043 380C92.9043 380 93.5016 379.733 93.8963 379.2C94.2909 378.661 94.4883 377.912 94.4883 376.952C94.4883 375.987 94.2909 375.235 93.8963 374.696C93.5016 374.157 92.9043 373.888 92.1043 373.888C91.6989 373.888 91.3469 373.957 91.0483 374.096C90.7496 374.235 90.4989 374.435 90.2963 374.696C90.0989 374.957 89.9496 375.28 89.8483 375.664C89.7523 376.043 89.7043 376.472 89.7043 376.952C89.7043 377.432 89.7523 377.861 89.8483 378.24C89.9496 378.619 90.0989 378.939 90.2963 379.2C90.4989 379.456 90.7496 379.653 91.0483 379.792C91.3469 379.931 91.6989 380 92.1043 380ZM97.7149 381V372.896H98.5629C98.7655 372.896 98.8935 372.995 98.9469 373.192L99.0589 374.072C99.4109 373.683 99.8029 373.368 100.235 373.128C100.672 372.888 101.176 372.768 101.747 372.768C102.19 372.768 102.579 372.843 102.915 372.992C103.256 373.136 103.539 373.344 103.763 373.616C103.992 373.883 104.166 374.205 104.283 374.584C104.4 374.963 104.459 375.381 104.459 375.84V381H103.035V375.84C103.035 375.227 102.894 374.752 102.611 374.416C102.334 374.075 101.907 373.904 101.331 373.904C100.91 373.904 100.515 374.005 100.147 374.208C99.7842 374.411 99.4482 374.685 99.1389 375.032V381H97.7149ZM113.163 381.128C112.593 381.128 112.07 381.053 111.595 380.904C111.121 380.749 110.713 380.531 110.371 380.248C110.03 379.965 109.766 379.624 109.579 379.224C109.393 378.819 109.299 378.365 109.299 377.864C109.299 377.128 109.491 376.523 109.875 376.048C110.259 375.568 110.809 375.227 111.523 375.024C110.921 374.8 110.465 374.467 110.155 374.024C109.851 373.576 109.699 373.043 109.699 372.424C109.699 372.003 109.782 371.608 109.947 371.24C110.113 370.872 110.347 370.552 110.651 370.28C110.955 370.008 111.318 369.795 111.739 369.64C112.166 369.485 112.641 369.408 113.163 369.408C113.681 369.408 114.153 369.485 114.579 369.64C115.006 369.795 115.371 370.008 115.675 370.28C115.979 370.552 116.214 370.872 116.379 371.24C116.545 371.608 116.627 372.003 116.627 372.424C116.627 373.043 116.473 373.576 116.163 374.024C115.854 374.467 115.401 374.8 114.803 375.024C115.518 375.227 116.067 375.568 116.451 376.048C116.835 376.523 117.027 377.128 117.027 377.864C117.027 378.365 116.931 378.819 116.739 379.224C116.553 379.624 116.289 379.965 115.947 380.248C115.611 380.531 115.206 380.749 114.731 380.904C114.257 381.053 113.734 381.128 113.163 381.128ZM113.163 379.992C113.537 379.992 113.87 379.941 114.163 379.84C114.462 379.733 114.713 379.587 114.915 379.4C115.123 379.208 115.281 378.981 115.387 378.72C115.499 378.453 115.555 378.16 115.555 377.84C115.555 377.445 115.489 377.109 115.355 376.832C115.227 376.549 115.051 376.32 114.827 376.144C114.609 375.968 114.355 375.84 114.067 375.76C113.779 375.675 113.478 375.632 113.163 375.632C112.849 375.632 112.547 375.675 112.259 375.76C111.971 375.84 111.715 375.968 111.491 376.144C111.273 376.32 111.097 376.549 110.963 376.832C110.835 377.109 110.771 377.445 110.771 377.84C110.771 378.16 110.825 378.453 110.931 378.72C111.043 378.981 111.201 379.208 111.403 379.4C111.611 379.587 111.862 379.733 112.155 379.84C112.454 379.941 112.79 379.992 113.163 379.992ZM113.163 374.488C113.537 374.488 113.854 374.432 114.115 374.32C114.382 374.203 114.598 374.051 114.763 373.864C114.929 373.672 115.049 373.453 115.123 373.208C115.198 372.963 115.235 372.709 115.235 372.448C115.235 372.181 115.19 371.931 115.099 371.696C115.014 371.461 114.883 371.256 114.707 371.08C114.537 370.904 114.321 370.765 114.059 370.664C113.803 370.563 113.505 370.512 113.163 370.512C112.822 370.512 112.521 370.563 112.259 370.664C112.003 370.765 111.787 370.904 111.611 371.08C111.441 371.256 111.31 371.461 111.219 371.696C111.134 371.931 111.091 372.181 111.091 372.448C111.091 372.709 111.129 372.963 111.203 373.208C111.278 373.453 111.398 373.672 111.563 373.864C111.729 374.051 111.942 374.203 112.203 374.32C112.47 374.432 112.79 374.488 113.163 374.488Z" fill="black"/>
<rect x="14.5" y="14.5" width="21" height="21" rx="3.5" fill="white" stroke="#D8D8D8"/>
<rect x="14.5" y="64.5" width="21" height="21" rx="3.5" fill="white" stroke="#D8D8D8"/>
<rect x="14.5" y="114.5" width="21" height="21" rx="3.5" fill="white" stroke="#D8D8D8"/>
<line y1="50.5" x2="307" y2="50.5" stroke="#DFE2E6"/>
<line y1="99.5" x2="307" y2="99.5" stroke="#DFE2E6"/>
<line y1="149.5" x2="307" y2="149.5" stroke="#DFE2E6"/>
<line x1="307.5" y1="1" x2="307.5" y2="400" stroke="#DFE2E6"/>
<line y1="199.5" x2="307" y2="199.5" stroke="#DFE2E6"/>
<line y1="249.5" x2="307" y2="249.5" stroke="#DFE2E6"/>
<line y1="299.5" x2="307" y2="299.5" stroke="#DFE2E6"/>
<line y1="349.5" x2="307" y2="349.5" stroke="#DFE2E6"/>
<rect x="312" y="160" width="10" height="157" rx="5" fill="#D9D9D9"/>
</svg>
