<svg width="327" height="200" viewBox="0 0 327 200" fill="none" xmlns="http://www.w3.org/2000/svg">
<rect x="0.5" y="0.5" width="326" height="199" rx="3.5" fill="white" stroke="#D8D8D8"/>
<rect x="1" y="50" width="325" height="50" fill="#DFF5FF"/>
<line x1="1" y1="50.5" x2="327" y2="50.5" stroke="#DFE2E6"/>
<line x1="1" y1="99.5" x2="327" y2="99.5" stroke="#DFE2E6"/>
<line x1="1" y1="149.5" x2="327" y2="149.5" stroke="#DFE2E6"/>
<path d="M27.04 25.272C27.04 26.1307 26.904 26.92 26.632 27.64C26.36 28.3547 25.976 28.9707 25.48 29.488C24.984 30.0053 24.3867 30.408 23.688 30.696C22.9947 30.9787 22.2267 31.12 21.384 31.12C20.5413 31.12 19.7733 30.9787 19.08 30.696C18.3867 30.408 17.792 30.0053 17.296 29.488C16.8 28.9707 16.416 28.3547 16.144 27.64C15.872 26.92 15.736 26.1307 15.736 25.272C15.736 24.4133 15.872 23.6267 16.144 22.912C16.416 22.192 16.8 21.5733 17.296 21.056C17.792 20.5333 18.3867 20.128 19.08 19.84C19.7733 19.552 20.5413 19.408 21.384 19.408C22.2267 19.408 22.9947 19.552 23.688 19.84C24.3867 20.128 24.984 20.5333 25.48 21.056C25.976 21.5733 26.36 22.192 26.632 22.912C26.904 23.6267 27.04 24.4133 27.04 25.272ZM25.448 25.272C25.448 24.568 25.352 23.936 25.16 23.376C24.968 22.816 24.696 22.344 24.344 21.96C23.992 21.5707 23.5653 21.272 23.064 21.064C22.5627 20.856 22.0027 20.752 21.384 20.752C20.7707 20.752 20.2133 20.856 19.712 21.064C19.2107 21.272 18.7813 21.5707 18.424 21.96C18.072 22.344 17.8 22.816 17.608 23.376C17.416 23.936 17.32 24.568 17.32 25.272C17.32 25.976 17.416 26.608 17.608 27.168C17.8 27.7227 18.072 28.1947 18.424 28.584C18.7813 28.968 19.2107 29.264 19.712 29.472C20.2133 29.6747 20.7707 29.776 21.384 29.776C22.0027 29.776 22.5627 29.6747 23.064 29.472C23.5653 29.264 23.992 28.968 24.344 28.584C24.696 28.1947 24.968 27.7227 25.16 27.168C25.352 26.608 25.448 25.976 25.448 25.272ZM28.9336 33.744V22.896H29.7816C29.9843 22.896 30.1123 22.9947 30.1656 23.192L30.2856 24.152C30.6323 23.7307 31.027 23.392 31.4696 23.136C31.9176 22.88 32.4323 22.752 33.0136 22.752C33.4776 22.752 33.899 22.8427 34.2776 23.024C34.6563 23.2 34.979 23.464 35.2456 23.816C35.5123 24.1627 35.7176 24.5947 35.8616 25.112C36.0056 25.6293 36.0776 26.224 36.0776 26.896C36.0776 27.4933 35.9976 28.0507 35.8376 28.568C35.6776 29.08 35.4483 29.5253 35.1496 29.904C34.851 30.2773 34.483 30.5733 34.0456 30.792C33.6136 31.0053 33.1256 31.112 32.5816 31.112C32.0803 31.112 31.651 31.0293 31.2936 30.864C30.9416 30.6987 30.6296 30.464 30.3576 30.16V33.744H28.9336ZM32.5416 23.904C32.0776 23.904 31.6696 24.0107 31.3176 24.224C30.971 24.4373 30.651 24.7387 30.3576 25.128V29.048C30.619 29.4 30.9043 29.648 31.2136 29.792C31.5283 29.936 31.8776 30.008 32.2616 30.008C33.0136 30.008 33.5923 29.7387 33.9976 29.2C34.403 28.6613 34.6056 27.8933 34.6056 26.896C34.6056 26.368 34.5576 25.9147 34.4616 25.536C34.371 25.1573 34.2376 24.848 34.0616 24.608C33.8856 24.3627 33.6696 24.184 33.4136 24.072C33.1576 23.96 32.867 23.904 32.5416 23.904ZM40.2178 31.128C39.5778 31.128 39.0844 30.9493 38.7378 30.592C38.3964 30.2347 38.2258 29.72 38.2258 29.048V24.088H37.2498C37.1644 24.088 37.0924 24.064 37.0338 24.016C36.9751 23.9627 36.9458 23.8827 36.9458 23.776V23.208L38.2738 23.04L38.6018 20.536C38.6124 20.456 38.6471 20.392 38.7057 20.344C38.7644 20.2907 38.8391 20.264 38.9298 20.264H39.6498V23.056H41.9698V24.088H39.6498V28.952C39.6498 29.2933 39.7324 29.5467 39.8978 29.712C40.0631 29.8773 40.2764 29.96 40.5378 29.96C40.6871 29.96 40.8151 29.9413 40.9218 29.904C41.0338 29.8613 41.1298 29.816 41.2098 29.768C41.2898 29.72 41.3564 29.6773 41.4098 29.64C41.4684 29.5973 41.5191 29.576 41.5618 29.576C41.6364 29.576 41.7031 29.6213 41.7618 29.712L42.1778 30.392C41.9324 30.6213 41.6364 30.8027 41.2898 30.936C40.9431 31.064 40.5858 31.128 40.2178 31.128ZM45.3145 22.896V31H43.8905V22.896H45.3145ZM45.6345 20.352C45.6345 20.4907 45.6052 20.6213 45.5465 20.744C45.4932 20.8613 45.4185 20.968 45.3225 21.064C45.2318 21.1547 45.1252 21.2267 45.0025 21.28C44.8798 21.3333 44.7492 21.36 44.6105 21.36C44.4718 21.36 44.3412 21.3333 44.2185 21.28C44.1012 21.2267 43.9945 21.1547 43.8985 21.064C43.8078 20.968 43.7358 20.8613 43.6825 20.744C43.6292 20.6213 43.6025 20.4907 43.6025 20.352C43.6025 20.2133 43.6292 20.0827 43.6825 19.96C43.7358 19.832 43.8078 19.7227 43.8985 19.632C43.9945 19.536 44.1012 19.4613 44.2185 19.408C44.3412 19.3547 44.4718 19.328 44.6105 19.328C44.7492 19.328 44.8798 19.3547 45.0025 19.408C45.1252 19.4613 45.2318 19.536 45.3225 19.632C45.4185 19.7227 45.4932 19.832 45.5465 19.96C45.6052 20.0827 45.6345 20.2133 45.6345 20.352ZM51.1043 22.768C51.6963 22.768 52.2296 22.8667 52.7043 23.064C53.1843 23.2613 53.5896 23.5413 53.9203 23.904C54.2563 24.2667 54.5123 24.7067 54.6883 25.224C54.8696 25.736 54.9603 26.3093 54.9603 26.944C54.9603 27.584 54.8696 28.16 54.6883 28.672C54.5123 29.184 54.2563 29.6213 53.9203 29.984C53.5896 30.3467 53.1843 30.6267 52.7043 30.824C52.2296 31.016 51.6963 31.112 51.1043 31.112C50.5123 31.112 49.9763 31.016 49.4963 30.824C49.0216 30.6267 48.6163 30.3467 48.2803 29.984C47.9443 29.6213 47.6856 29.184 47.5043 28.672C47.3229 28.16 47.2323 27.584 47.2323 26.944C47.2323 26.3093 47.3229 25.736 47.5043 25.224C47.6856 24.7067 47.9443 24.2667 48.2803 23.904C48.6163 23.5413 49.0216 23.2613 49.4963 23.064C49.9763 22.8667 50.5123 22.768 51.1043 22.768ZM51.1043 30C51.9043 30 52.5016 29.7333 52.8963 29.2C53.2909 28.6613 53.4883 27.912 53.4883 26.952C53.4883 25.9867 53.2909 25.2347 52.8963 24.696C52.5016 24.1573 51.9043 23.888 51.1043 23.888C50.6989 23.888 50.3469 23.9573 50.0483 24.096C49.7496 24.2347 49.4989 24.4347 49.2963 24.696C49.0989 24.9573 48.9496 25.28 48.8483 25.664C48.7523 26.0427 48.7043 26.472 48.7043 26.952C48.7043 27.432 48.7523 27.8613 48.8483 28.24C48.9496 28.6187 49.0989 28.9387 49.2963 29.2C49.4989 29.456 49.7496 29.6533 50.0483 29.792C50.3469 29.9307 50.6989 30 51.1043 30ZM56.7149 31V22.896H57.5629C57.7655 22.896 57.8935 22.9947 57.9469 23.192L58.0589 24.072C58.4109 23.6827 58.8029 23.368 59.2349 23.128C59.6722 22.888 60.1762 22.768 60.7469 22.768C61.1895 22.768 61.5789 22.8427 61.9149 22.992C62.2562 23.136 62.5389 23.344 62.7629 23.616C62.9922 23.8827 63.1655 24.2053 63.2829 24.584C63.4002 24.9627 63.4589 25.3813 63.4589 25.84V31H62.0349V25.84C62.0349 25.2267 61.8935 24.752 61.6109 24.416C61.3335 24.0747 60.9069 23.904 60.3309 23.904C59.9095 23.904 59.5149 24.0053 59.1469 24.208C58.7842 24.4107 58.4482 24.6853 58.1389 25.032V31H56.7149ZM69.8273 29.912H72.2913V22.096C72.2913 21.8613 72.2993 21.624 72.3153 21.384L70.2673 23.136C70.2139 23.1787 70.1606 23.2107 70.1073 23.232C70.0539 23.248 70.0033 23.256 69.9553 23.256C69.8753 23.256 69.8033 23.24 69.7393 23.208C69.6753 23.1707 69.6273 23.128 69.5953 23.08L69.1473 22.464L72.5553 19.512H73.7153V29.912H75.9713V31H69.8273V29.912ZM27.04 75.272C27.04 76.1307 26.904 76.92 26.632 77.64C26.36 78.3547 25.976 78.9707 25.48 79.488C24.984 80.0053 24.3867 80.408 23.688 80.696C22.9947 80.9787 22.2267 81.12 21.384 81.12C20.5413 81.12 19.7733 80.9787 19.08 80.696C18.3867 80.408 17.792 80.0053 17.296 79.488C16.8 78.9707 16.416 78.3547 16.144 77.64C15.872 76.92 15.736 76.1307 15.736 75.272C15.736 74.4133 15.872 73.6267 16.144 72.912C16.416 72.192 16.8 71.5733 17.296 71.056C17.792 70.5333 18.3867 70.128 19.08 69.84C19.7733 69.552 20.5413 69.408 21.384 69.408C22.2267 69.408 22.9947 69.552 23.688 69.84C24.3867 70.128 24.984 70.5333 25.48 71.056C25.976 71.5733 26.36 72.192 26.632 72.912C26.904 73.6267 27.04 74.4133 27.04 75.272ZM25.448 75.272C25.448 74.568 25.352 73.936 25.16 73.376C24.968 72.816 24.696 72.344 24.344 71.96C23.992 71.5707 23.5653 71.272 23.064 71.064C22.5627 70.856 22.0027 70.752 21.384 70.752C20.7707 70.752 20.2133 70.856 19.712 71.064C19.2107 71.272 18.7813 71.5707 18.424 71.96C18.072 72.344 17.8 72.816 17.608 73.376C17.416 73.936 17.32 74.568 17.32 75.272C17.32 75.976 17.416 76.608 17.608 77.168C17.8 77.7227 18.072 78.1947 18.424 78.584C18.7813 78.968 19.2107 79.264 19.712 79.472C20.2133 79.6747 20.7707 79.776 21.384 79.776C22.0027 79.776 22.5627 79.6747 23.064 79.472C23.5653 79.264 23.992 78.968 24.344 78.584C24.696 78.1947 24.968 77.7227 25.16 77.168C25.352 76.608 25.448 75.976 25.448 75.272ZM28.9336 83.744V72.896H29.7816C29.9843 72.896 30.1123 72.9947 30.1656 73.192L30.2856 74.152C30.6323 73.7307 31.027 73.392 31.4696 73.136C31.9176 72.88 32.4323 72.752 33.0136 72.752C33.4776 72.752 33.899 72.8427 34.2776 73.024C34.6563 73.2 34.979 73.464 35.2456 73.816C35.5123 74.1627 35.7176 74.5947 35.8616 75.112C36.0056 75.6293 36.0776 76.224 36.0776 76.896C36.0776 77.4933 35.9976 78.0507 35.8376 78.568C35.6776 79.08 35.4483 79.5253 35.1496 79.904C34.851 80.2773 34.483 80.5733 34.0456 80.792C33.6136 81.0053 33.1256 81.112 32.5816 81.112C32.0803 81.112 31.651 81.0293 31.2936 80.864C30.9416 80.6987 30.6296 80.464 30.3576 80.16V83.744H28.9336ZM32.5416 73.904C32.0776 73.904 31.6696 74.0107 31.3176 74.224C30.971 74.4373 30.651 74.7387 30.3576 75.128V79.048C30.619 79.4 30.9043 79.648 31.2136 79.792C31.5283 79.936 31.8776 80.008 32.2616 80.008C33.0136 80.008 33.5923 79.7387 33.9976 79.2C34.403 78.6613 34.6056 77.8933 34.6056 76.896C34.6056 76.368 34.5576 75.9147 34.4616 75.536C34.371 75.1573 34.2376 74.848 34.0616 74.608C33.8856 74.3627 33.6696 74.184 33.4136 74.072C33.1576 73.96 32.867 73.904 32.5416 73.904ZM40.2178 81.128C39.5778 81.128 39.0844 80.9493 38.7378 80.592C38.3964 80.2347 38.2258 79.72 38.2258 79.048V74.088H37.2498C37.1644 74.088 37.0924 74.064 37.0338 74.016C36.9751 73.9627 36.9458 73.8827 36.9458 73.776V73.208L38.2738 73.04L38.6018 70.536C38.6124 70.456 38.6471 70.392 38.7057 70.344C38.7644 70.2907 38.8391 70.264 38.9298 70.264H39.6498V73.056H41.9698V74.088H39.6498V78.952C39.6498 79.2933 39.7324 79.5467 39.8978 79.712C40.0631 79.8773 40.2764 79.96 40.5378 79.96C40.6871 79.96 40.8151 79.9413 40.9218 79.904C41.0338 79.8613 41.1298 79.816 41.2098 79.768C41.2898 79.72 41.3564 79.6773 41.4098 79.64C41.4684 79.5973 41.5191 79.576 41.5618 79.576C41.6364 79.576 41.7031 79.6213 41.7618 79.712L42.1778 80.392C41.9324 80.6213 41.6364 80.8027 41.2898 80.936C40.9431 81.064 40.5858 81.128 40.2178 81.128ZM45.3145 72.896V81H43.8905V72.896H45.3145ZM45.6345 70.352C45.6345 70.4907 45.6052 70.6213 45.5465 70.744C45.4932 70.8613 45.4185 70.968 45.3225 71.064C45.2318 71.1547 45.1252 71.2267 45.0025 71.28C44.8798 71.3333 44.7492 71.36 44.6105 71.36C44.4718 71.36 44.3412 71.3333 44.2185 71.28C44.1012 71.2267 43.9945 71.1547 43.8985 71.064C43.8078 70.968 43.7358 70.8613 43.6825 70.744C43.6292 70.6213 43.6025 70.4907 43.6025 70.352C43.6025 70.2133 43.6292 70.0827 43.6825 69.96C43.7358 69.832 43.8078 69.7227 43.8985 69.632C43.9945 69.536 44.1012 69.4613 44.2185 69.408C44.3412 69.3547 44.4718 69.328 44.6105 69.328C44.7492 69.328 44.8798 69.3547 45.0025 69.408C45.1252 69.4613 45.2318 69.536 45.3225 69.632C45.4185 69.7227 45.4932 69.832 45.5465 69.96C45.6052 70.0827 45.6345 70.2133 45.6345 70.352ZM51.1043 72.768C51.6963 72.768 52.2296 72.8667 52.7043 73.064C53.1843 73.2613 53.5896 73.5413 53.9203 73.904C54.2563 74.2667 54.5123 74.7067 54.6883 75.224C54.8696 75.736 54.9603 76.3093 54.9603 76.944C54.9603 77.584 54.8696 78.16 54.6883 78.672C54.5123 79.184 54.2563 79.6213 53.9203 79.984C53.5896 80.3467 53.1843 80.6267 52.7043 80.824C52.2296 81.016 51.6963 81.112 51.1043 81.112C50.5123 81.112 49.9763 81.016 49.4963 80.824C49.0216 80.6267 48.6163 80.3467 48.2803 79.984C47.9443 79.6213 47.6856 79.184 47.5043 78.672C47.3229 78.16 47.2323 77.584 47.2323 76.944C47.2323 76.3093 47.3229 75.736 47.5043 75.224C47.6856 74.7067 47.9443 74.2667 48.2803 73.904C48.6163 73.5413 49.0216 73.2613 49.4963 73.064C49.9763 72.8667 50.5123 72.768 51.1043 72.768ZM51.1043 80C51.9043 80 52.5016 79.7333 52.8963 79.2C53.2909 78.6613 53.4883 77.912 53.4883 76.952C53.4883 75.9867 53.2909 75.2347 52.8963 74.696C52.5016 74.1573 51.9043 73.888 51.1043 73.888C50.6989 73.888 50.3469 73.9573 50.0483 74.096C49.7496 74.2347 49.4989 74.4347 49.2963 74.696C49.0989 74.9573 48.9496 75.28 48.8483 75.664C48.7523 76.0427 48.7043 76.472 48.7043 76.952C48.7043 77.432 48.7523 77.8613 48.8483 78.24C48.9496 78.6187 49.0989 78.9387 49.2963 79.2C49.4989 79.456 49.7496 79.6533 50.0483 79.792C50.3469 79.9307 50.6989 80 51.1043 80ZM56.7149 81V72.896H57.5629C57.7655 72.896 57.8935 72.9947 57.9469 73.192L58.0589 74.072C58.4109 73.6827 58.8029 73.368 59.2349 73.128C59.6722 72.888 60.1762 72.768 60.7469 72.768C61.1895 72.768 61.5789 72.8427 61.9149 72.992C62.2562 73.136 62.5389 73.344 62.7629 73.616C62.9922 73.8827 63.1655 74.2053 63.2829 74.584C63.4002 74.9627 63.4589 75.3813 63.4589 75.84V81H62.0349V75.84C62.0349 75.2267 61.8935 74.752 61.6109 74.416C61.3335 74.0747 60.9069 73.904 60.3309 73.904C59.9095 73.904 59.5149 74.0053 59.1469 74.208C58.7842 74.4107 58.4482 74.6853 58.1389 75.032V81H56.7149ZM72.3393 69.408C72.8246 69.408 73.2779 69.48 73.6993 69.624C74.1206 69.768 74.4833 69.9787 74.7873 70.256C75.0966 70.528 75.3393 70.8613 75.5153 71.256C75.6913 71.6507 75.7793 72.0987 75.7793 72.6C75.7793 73.0267 75.7153 73.4213 75.5873 73.784C75.4593 74.1467 75.2859 74.496 75.0673 74.832C74.8486 75.1627 74.5953 75.4853 74.3073 75.8C74.0246 76.1093 73.7233 76.4267 73.4033 76.752L70.3873 79.84C70.6006 79.7813 70.8166 79.736 71.0353 79.704C71.2539 79.6667 71.4646 79.648 71.6673 79.648H75.5073C75.6619 79.648 75.7846 79.6933 75.8753 79.784C75.9659 79.8747 76.0113 79.992 76.0113 80.136V81H68.3633V80.512C68.3633 80.4107 68.3819 80.3067 68.4193 80.2C68.4619 80.0933 68.5286 79.9947 68.6193 79.904L72.2913 76.216C72.5953 75.9067 72.8726 75.6107 73.1233 75.328C73.3739 75.04 73.5873 74.752 73.7633 74.464C73.9446 74.176 74.0833 73.8853 74.1793 73.592C74.2753 73.2933 74.3233 72.976 74.3233 72.64C74.3233 72.304 74.2699 72.0107 74.1633 71.76C74.0566 71.504 73.9099 71.2933 73.7233 71.128C73.5366 70.9627 73.3179 70.84 73.0673 70.76C72.8166 70.6747 72.5473 70.632 72.2593 70.632C71.9713 70.632 71.7046 70.6747 71.4593 70.76C71.2139 70.8453 70.9953 70.9653 70.8033 71.12C70.6166 71.2693 70.4566 71.448 70.3233 71.656C70.1953 71.864 70.1046 72.0933 70.0513 72.344C70.0086 72.4987 69.9446 72.6107 69.8593 72.68C69.7739 72.7493 69.6619 72.784 69.5233 72.784C69.4966 72.784 69.4673 72.784 69.4353 72.784C69.4086 72.7787 69.3766 72.7733 69.3393 72.768L68.5953 72.64C68.6699 72.1173 68.8139 71.656 69.0273 71.256C69.2406 70.8507 69.5099 70.512 69.8353 70.24C70.1659 69.968 70.5419 69.7627 70.9633 69.624C71.3899 69.48 71.8486 69.408 72.3393 69.408ZM27.04 125.272C27.04 126.131 26.904 126.92 26.632 127.64C26.36 128.355 25.976 128.971 25.48 129.488C24.984 130.005 24.3867 130.408 23.688 130.696C22.9947 130.979 22.2267 131.12 21.384 131.12C20.5413 131.12 19.7733 130.979 19.08 130.696C18.3867 130.408 17.792 130.005 17.296 129.488C16.8 128.971 16.416 128.355 16.144 127.64C15.872 126.92 15.736 126.131 15.736 125.272C15.736 124.413 15.872 123.627 16.144 122.912C16.416 122.192 16.8 121.573 17.296 121.056C17.792 120.533 18.3867 120.128 19.08 119.84C19.7733 119.552 20.5413 119.408 21.384 119.408C22.2267 119.408 22.9947 119.552 23.688 119.84C24.3867 120.128 24.984 120.533 25.48 121.056C25.976 121.573 26.36 122.192 26.632 122.912C26.904 123.627 27.04 124.413 27.04 125.272ZM25.448 125.272C25.448 124.568 25.352 123.936 25.16 123.376C24.968 122.816 24.696 122.344 24.344 121.96C23.992 121.571 23.5653 121.272 23.064 121.064C22.5627 120.856 22.0027 120.752 21.384 120.752C20.7707 120.752 20.2133 120.856 19.712 121.064C19.2107 121.272 18.7813 121.571 18.424 121.96C18.072 122.344 17.8 122.816 17.608 123.376C17.416 123.936 17.32 124.568 17.32 125.272C17.32 125.976 17.416 126.608 17.608 127.168C17.8 127.723 18.072 128.195 18.424 128.584C18.7813 128.968 19.2107 129.264 19.712 129.472C20.2133 129.675 20.7707 129.776 21.384 129.776C22.0027 129.776 22.5627 129.675 23.064 129.472C23.5653 129.264 23.992 128.968 24.344 128.584C24.696 128.195 24.968 127.723 25.16 127.168C25.352 126.608 25.448 125.976 25.448 125.272ZM28.9336 133.744V122.896H29.7816C29.9843 122.896 30.1123 122.995 30.1656 123.192L30.2856 124.152C30.6323 123.731 31.027 123.392 31.4696 123.136C31.9176 122.88 32.4323 122.752 33.0136 122.752C33.4776 122.752 33.899 122.843 34.2776 123.024C34.6563 123.2 34.979 123.464 35.2456 123.816C35.5123 124.163 35.7176 124.595 35.8616 125.112C36.0056 125.629 36.0776 126.224 36.0776 126.896C36.0776 127.493 35.9976 128.051 35.8376 128.568C35.6776 129.08 35.4483 129.525 35.1496 129.904C34.851 130.277 34.483 130.573 34.0456 130.792C33.6136 131.005 33.1256 131.112 32.5816 131.112C32.0803 131.112 31.651 131.029 31.2936 130.864C30.9416 130.699 30.6296 130.464 30.3576 130.16V133.744H28.9336ZM32.5416 123.904C32.0776 123.904 31.6696 124.011 31.3176 124.224C30.971 124.437 30.651 124.739 30.3576 125.128V129.048C30.619 129.4 30.9043 129.648 31.2136 129.792C31.5283 129.936 31.8776 130.008 32.2616 130.008C33.0136 130.008 33.5923 129.739 33.9976 129.2C34.403 128.661 34.6056 127.893 34.6056 126.896C34.6056 126.368 34.5576 125.915 34.4616 125.536C34.371 125.157 34.2376 124.848 34.0616 124.608C33.8856 124.363 33.6696 124.184 33.4136 124.072C33.1576 123.96 32.867 123.904 32.5416 123.904ZM40.2178 131.128C39.5778 131.128 39.0844 130.949 38.7378 130.592C38.3964 130.235 38.2258 129.72 38.2258 129.048V124.088H37.2498C37.1644 124.088 37.0924 124.064 37.0338 124.016C36.9751 123.963 36.9458 123.883 36.9458 123.776V123.208L38.2738 123.04L38.6018 120.536C38.6124 120.456 38.6471 120.392 38.7057 120.344C38.7644 120.291 38.8391 120.264 38.9298 120.264H39.6498V123.056H41.9698V124.088H39.6498V128.952C39.6498 129.293 39.7324 129.547 39.8978 129.712C40.0631 129.877 40.2764 129.96 40.5378 129.96C40.6871 129.96 40.8151 129.941 40.9218 129.904C41.0338 129.861 41.1298 129.816 41.2098 129.768C41.2898 129.72 41.3564 129.677 41.4098 129.64C41.4684 129.597 41.5191 129.576 41.5618 129.576C41.6364 129.576 41.7031 129.621 41.7618 129.712L42.1778 130.392C41.9324 130.621 41.6364 130.803 41.2898 130.936C40.9431 131.064 40.5858 131.128 40.2178 131.128ZM45.3145 122.896V131H43.8905V122.896H45.3145ZM45.6345 120.352C45.6345 120.491 45.6052 120.621 45.5465 120.744C45.4932 120.861 45.4185 120.968 45.3225 121.064C45.2318 121.155 45.1252 121.227 45.0025 121.28C44.8798 121.333 44.7492 121.36 44.6105 121.36C44.4718 121.36 44.3412 121.333 44.2185 121.28C44.1012 121.227 43.9945 121.155 43.8985 121.064C43.8078 120.968 43.7358 120.861 43.6825 120.744C43.6292 120.621 43.6025 120.491 43.6025 120.352C43.6025 120.213 43.6292 120.083 43.6825 119.96C43.7358 119.832 43.8078 119.723 43.8985 119.632C43.9945 119.536 44.1012 119.461 44.2185 119.408C44.3412 119.355 44.4718 119.328 44.6105 119.328C44.7492 119.328 44.8798 119.355 45.0025 119.408C45.1252 119.461 45.2318 119.536 45.3225 119.632C45.4185 119.723 45.4932 119.832 45.5465 119.96C45.6052 120.083 45.6345 120.213 45.6345 120.352ZM51.1043 122.768C51.6963 122.768 52.2296 122.867 52.7043 123.064C53.1843 123.261 53.5896 123.541 53.9203 123.904C54.2563 124.267 54.5123 124.707 54.6883 125.224C54.8696 125.736 54.9603 126.309 54.9603 126.944C54.9603 127.584 54.8696 128.16 54.6883 128.672C54.5123 129.184 54.2563 129.621 53.9203 129.984C53.5896 130.347 53.1843 130.627 52.7043 130.824C52.2296 131.016 51.6963 131.112 51.1043 131.112C50.5123 131.112 49.9763 131.016 49.4963 130.824C49.0216 130.627 48.6163 130.347 48.2803 129.984C47.9443 129.621 47.6856 129.184 47.5043 128.672C47.3229 128.16 47.2323 127.584 47.2323 126.944C47.2323 126.309 47.3229 125.736 47.5043 125.224C47.6856 124.707 47.9443 124.267 48.2803 123.904C48.6163 123.541 49.0216 123.261 49.4963 123.064C49.9763 122.867 50.5123 122.768 51.1043 122.768ZM51.1043 130C51.9043 130 52.5016 129.733 52.8963 129.2C53.2909 128.661 53.4883 127.912 53.4883 126.952C53.4883 125.987 53.2909 125.235 52.8963 124.696C52.5016 124.157 51.9043 123.888 51.1043 123.888C50.6989 123.888 50.3469 123.957 50.0483 124.096C49.7496 124.235 49.4989 124.435 49.2963 124.696C49.0989 124.957 48.9496 125.28 48.8483 125.664C48.7523 126.043 48.7043 126.472 48.7043 126.952C48.7043 127.432 48.7523 127.861 48.8483 128.24C48.9496 128.619 49.0989 128.939 49.2963 129.2C49.4989 129.456 49.7496 129.653 50.0483 129.792C50.3469 129.931 50.6989 130 51.1043 130ZM56.7149 131V122.896H57.5629C57.7655 122.896 57.8935 122.995 57.9469 123.192L58.0589 124.072C58.4109 123.683 58.8029 123.368 59.2349 123.128C59.6722 122.888 60.1762 122.768 60.7469 122.768C61.1895 122.768 61.5789 122.843 61.9149 122.992C62.2562 123.136 62.5389 123.344 62.7629 123.616C62.9922 123.883 63.1655 124.205 63.2829 124.584C63.4002 124.963 63.4589 125.381 63.4589 125.84V131H62.0349V125.84C62.0349 125.227 61.8935 124.752 61.6109 124.416C61.3335 124.075 60.9069 123.904 60.3309 123.904C59.9095 123.904 59.5149 124.005 59.1469 124.208C58.7842 124.411 58.4482 124.685 58.1389 125.032V131H56.7149ZM72.4913 119.408C72.9766 119.408 73.4246 119.477 73.8353 119.616C74.2459 119.755 74.5979 119.952 74.8913 120.208C75.1899 120.464 75.4219 120.773 75.5873 121.136C75.7526 121.499 75.8353 121.901 75.8353 122.344C75.8353 122.707 75.7873 123.032 75.6913 123.32C75.6006 123.603 75.4673 123.853 75.2913 124.072C75.1206 124.285 74.9126 124.467 74.6673 124.616C74.4219 124.765 74.1473 124.885 73.8433 124.976C74.5899 125.173 75.1499 125.504 75.5233 125.968C75.9019 126.432 76.0913 127.013 76.0913 127.712C76.0913 128.24 75.9899 128.715 75.7873 129.136C75.5899 129.557 75.3179 129.917 74.9713 130.216C74.6246 130.509 74.2193 130.736 73.7553 130.896C73.2966 131.051 72.8033 131.128 72.2753 131.128C71.6673 131.128 71.1473 131.053 70.7153 130.904C70.2833 130.749 69.9179 130.539 69.6193 130.272C69.3206 130.005 69.0753 129.691 68.8833 129.328C68.6913 128.96 68.5286 128.563 68.3953 128.136L69.0033 127.88C69.1153 127.832 69.2273 127.808 69.3393 127.808C69.4459 127.808 69.5393 127.832 69.6193 127.88C69.7046 127.923 69.7686 127.992 69.8113 128.088C69.8219 128.109 69.8326 128.133 69.8433 128.16C69.8539 128.181 69.8646 128.205 69.8753 128.232C69.9499 128.387 70.0406 128.563 70.1473 128.76C70.2539 128.952 70.3979 129.133 70.5793 129.304C70.7606 129.475 70.9846 129.619 71.2513 129.736C71.5233 129.853 71.8593 129.912 72.2593 129.912C72.6593 129.912 73.0086 129.848 73.3073 129.72C73.6113 129.587 73.8619 129.416 74.0593 129.208C74.2619 129 74.4139 128.768 74.5153 128.512C74.6166 128.256 74.6673 128.003 74.6673 127.752C74.6673 127.443 74.6246 127.16 74.5393 126.904C74.4593 126.648 74.3099 126.427 74.0913 126.24C73.8779 126.053 73.5793 125.907 73.1953 125.8C72.8166 125.693 72.3286 125.64 71.7313 125.64V124.608C72.2166 124.603 72.6299 124.549 72.9713 124.448C73.3179 124.347 73.6006 124.208 73.8193 124.032C74.0379 123.856 74.1953 123.645 74.2913 123.4C74.3926 123.155 74.4433 122.883 74.4433 122.584C74.4433 122.253 74.3899 121.965 74.2833 121.72C74.1819 121.475 74.0406 121.272 73.8593 121.112C73.6779 120.952 73.4619 120.832 73.2113 120.752C72.9659 120.672 72.6993 120.632 72.4113 120.632C72.1233 120.632 71.8566 120.675 71.6113 120.76C71.3659 120.845 71.1473 120.965 70.9553 121.12C70.7686 121.269 70.6113 121.451 70.4833 121.664C70.3553 121.872 70.2593 122.099 70.1953 122.344C70.1526 122.499 70.0886 122.611 70.0033 122.68C69.9179 122.749 69.8086 122.784 69.6753 122.784C69.6486 122.784 69.6193 122.784 69.5872 122.784C69.5606 122.779 69.5286 122.773 69.4913 122.768L68.7473 122.64C68.8219 122.117 68.9659 121.656 69.1793 121.256C69.3926 120.851 69.6619 120.512 69.9873 120.24C70.3179 119.968 70.6939 119.763 71.1153 119.624C71.5419 119.48 72.0006 119.408 72.4913 119.408ZM27.04 175.272C27.04 176.131 26.904 176.92 26.632 177.64C26.36 178.355 25.976 178.971 25.48 179.488C24.984 180.005 24.3867 180.408 23.688 180.696C22.9947 180.979 22.2267 181.12 21.384 181.12C20.5413 181.12 19.7733 180.979 19.08 180.696C18.3867 180.408 17.792 180.005 17.296 179.488C16.8 178.971 16.416 178.355 16.144 177.64C15.872 176.92 15.736 176.131 15.736 175.272C15.736 174.413 15.872 173.627 16.144 172.912C16.416 172.192 16.8 171.573 17.296 171.056C17.792 170.533 18.3867 170.128 19.08 169.84C19.7733 169.552 20.5413 169.408 21.384 169.408C22.2267 169.408 22.9947 169.552 23.688 169.84C24.3867 170.128 24.984 170.533 25.48 171.056C25.976 171.573 26.36 172.192 26.632 172.912C26.904 173.627 27.04 174.413 27.04 175.272ZM25.448 175.272C25.448 174.568 25.352 173.936 25.16 173.376C24.968 172.816 24.696 172.344 24.344 171.96C23.992 171.571 23.5653 171.272 23.064 171.064C22.5627 170.856 22.0027 170.752 21.384 170.752C20.7707 170.752 20.2133 170.856 19.712 171.064C19.2107 171.272 18.7813 171.571 18.424 171.96C18.072 172.344 17.8 172.816 17.608 173.376C17.416 173.936 17.32 174.568 17.32 175.272C17.32 175.976 17.416 176.608 17.608 177.168C17.8 177.723 18.072 178.195 18.424 178.584C18.7813 178.968 19.2107 179.264 19.712 179.472C20.2133 179.675 20.7707 179.776 21.384 179.776C22.0027 179.776 22.5627 179.675 23.064 179.472C23.5653 179.264 23.992 178.968 24.344 178.584C24.696 178.195 24.968 177.723 25.16 177.168C25.352 176.608 25.448 175.976 25.448 175.272ZM28.9336 183.744V172.896H29.7816C29.9843 172.896 30.1123 172.995 30.1656 173.192L30.2856 174.152C30.6323 173.731 31.027 173.392 31.4696 173.136C31.9176 172.88 32.4323 172.752 33.0136 172.752C33.4776 172.752 33.899 172.843 34.2776 173.024C34.6563 173.2 34.979 173.464 35.2456 173.816C35.5123 174.163 35.7176 174.595 35.8616 175.112C36.0056 175.629 36.0776 176.224 36.0776 176.896C36.0776 177.493 35.9976 178.051 35.8376 178.568C35.6776 179.08 35.4483 179.525 35.1496 179.904C34.851 180.277 34.483 180.573 34.0456 180.792C33.6136 181.005 33.1256 181.112 32.5816 181.112C32.0803 181.112 31.651 181.029 31.2936 180.864C30.9416 180.699 30.6296 180.464 30.3576 180.16V183.744H28.9336ZM32.5416 173.904C32.0776 173.904 31.6696 174.011 31.3176 174.224C30.971 174.437 30.651 174.739 30.3576 175.128V179.048C30.619 179.4 30.9043 179.648 31.2136 179.792C31.5283 179.936 31.8776 180.008 32.2616 180.008C33.0136 180.008 33.5923 179.739 33.9976 179.2C34.403 178.661 34.6056 177.893 34.6056 176.896C34.6056 176.368 34.5576 175.915 34.4616 175.536C34.371 175.157 34.2376 174.848 34.0616 174.608C33.8856 174.363 33.6696 174.184 33.4136 174.072C33.1576 173.96 32.867 173.904 32.5416 173.904ZM40.2178 181.128C39.5778 181.128 39.0844 180.949 38.7378 180.592C38.3964 180.235 38.2258 179.72 38.2258 179.048V174.088H37.2498C37.1644 174.088 37.0924 174.064 37.0338 174.016C36.9751 173.963 36.9458 173.883 36.9458 173.776V173.208L38.2738 173.04L38.6018 170.536C38.6124 170.456 38.6471 170.392 38.7057 170.344C38.7644 170.291 38.8391 170.264 38.9298 170.264H39.6498V173.056H41.9698V174.088H39.6498V178.952C39.6498 179.293 39.7324 179.547 39.8978 179.712C40.0631 179.877 40.2764 179.96 40.5378 179.96C40.6871 179.96 40.8151 179.941 40.9218 179.904C41.0338 179.861 41.1298 179.816 41.2098 179.768C41.2898 179.72 41.3564 179.677 41.4098 179.64C41.4684 179.597 41.5191 179.576 41.5618 179.576C41.6364 179.576 41.7031 179.621 41.7618 179.712L42.1778 180.392C41.9324 180.621 41.6364 180.803 41.2898 180.936C40.9431 181.064 40.5858 181.128 40.2178 181.128ZM45.3145 172.896V181H43.8905V172.896H45.3145ZM45.6345 170.352C45.6345 170.491 45.6052 170.621 45.5465 170.744C45.4932 170.861 45.4185 170.968 45.3225 171.064C45.2318 171.155 45.1252 171.227 45.0025 171.28C44.8798 171.333 44.7492 171.36 44.6105 171.36C44.4718 171.36 44.3412 171.333 44.2185 171.28C44.1012 171.227 43.9945 171.155 43.8985 171.064C43.8078 170.968 43.7358 170.861 43.6825 170.744C43.6292 170.621 43.6025 170.491 43.6025 170.352C43.6025 170.213 43.6292 170.083 43.6825 169.96C43.7358 169.832 43.8078 169.723 43.8985 169.632C43.9945 169.536 44.1012 169.461 44.2185 169.408C44.3412 169.355 44.4718 169.328 44.6105 169.328C44.7492 169.328 44.8798 169.355 45.0025 169.408C45.1252 169.461 45.2318 169.536 45.3225 169.632C45.4185 169.723 45.4932 169.832 45.5465 169.96C45.6052 170.083 45.6345 170.213 45.6345 170.352ZM51.1043 172.768C51.6963 172.768 52.2296 172.867 52.7043 173.064C53.1843 173.261 53.5896 173.541 53.9203 173.904C54.2563 174.267 54.5123 174.707 54.6883 175.224C54.8696 175.736 54.9603 176.309 54.9603 176.944C54.9603 177.584 54.8696 178.16 54.6883 178.672C54.5123 179.184 54.2563 179.621 53.9203 179.984C53.5896 180.347 53.1843 180.627 52.7043 180.824C52.2296 181.016 51.6963 181.112 51.1043 181.112C50.5123 181.112 49.9763 181.016 49.4963 180.824C49.0216 180.627 48.6163 180.347 48.2803 179.984C47.9443 179.621 47.6856 179.184 47.5043 178.672C47.3229 178.16 47.2323 177.584 47.2323 176.944C47.2323 176.309 47.3229 175.736 47.5043 175.224C47.6856 174.707 47.9443 174.267 48.2803 173.904C48.6163 173.541 49.0216 173.261 49.4963 173.064C49.9763 172.867 50.5123 172.768 51.1043 172.768ZM51.1043 180C51.9043 180 52.5016 179.733 52.8963 179.2C53.2909 178.661 53.4883 177.912 53.4883 176.952C53.4883 175.987 53.2909 175.235 52.8963 174.696C52.5016 174.157 51.9043 173.888 51.1043 173.888C50.6989 173.888 50.3469 173.957 50.0483 174.096C49.7496 174.235 49.4989 174.435 49.2963 174.696C49.0989 174.957 48.9496 175.28 48.8483 175.664C48.7523 176.043 48.7043 176.472 48.7043 176.952C48.7043 177.432 48.7523 177.861 48.8483 178.24C48.9496 178.619 49.0989 178.939 49.2963 179.2C49.4989 179.456 49.7496 179.653 50.0483 179.792C50.3469 179.931 50.6989 180 51.1043 180ZM56.7149 181V172.896H57.5629C57.7655 172.896 57.8935 172.995 57.9469 173.192L58.0589 174.072C58.4109 173.683 58.8029 173.368 59.2349 173.128C59.6722 172.888 60.1762 172.768 60.7469 172.768C61.1895 172.768 61.5789 172.843 61.9149 172.992C62.2562 173.136 62.5389 173.344 62.7629 173.616C62.9922 173.883 63.1655 174.205 63.2829 174.584C63.4002 174.963 63.4589 175.381 63.4589 175.84V181H62.0349V175.84C62.0349 175.227 61.8935 174.752 61.6109 174.416C61.3335 174.075 60.9069 173.904 60.3309 173.904C59.9095 173.904 59.5149 174.005 59.1469 174.208C58.7842 174.411 58.4482 174.685 58.1389 175.032V181H56.7149ZM74.7553 176.864H76.4913V177.68C76.4913 177.765 76.4646 177.837 76.4113 177.896C76.3633 177.955 76.2859 177.984 76.1793 177.984H74.7553V181H73.4993V177.984H68.4193C68.3126 177.984 68.2193 177.955 68.1393 177.896C68.0646 177.832 68.0166 177.755 67.9953 177.664L67.8513 176.936L73.4273 169.536H74.7553V176.864ZM73.4993 172.136C73.4993 171.997 73.5019 171.848 73.5073 171.688C73.5179 171.528 73.5366 171.363 73.5633 171.192L69.3953 176.864H73.4993V172.136Z" fill="black"/>
</svg>
