<svg width="376" height="89" viewBox="0 0 376 89" fill="none" xmlns="http://www.w3.org/2000/svg">
<path d="M7.264 6.328C7.216 6.408 7.16533 6.46933 7.112 6.512C7.05867 6.54933 6.98933 6.568 6.904 6.568C6.81333 6.568 6.70667 6.52267 6.584 6.432C6.46667 6.34133 6.31467 6.24267 6.128 6.136C5.94667 6.024 5.72533 5.92267 5.464 5.832C5.208 5.74133 4.896 5.696 4.528 5.696C4.18133 5.696 3.87467 5.744 3.608 5.84C3.34133 5.93067 3.11733 6.056 2.936 6.216C2.76 6.376 2.62667 6.56533 2.536 6.784C2.44533 6.99733 2.4 7.22933 2.4 7.48C2.4 7.8 2.47733 8.06667 2.632 8.28C2.792 8.488 3 8.66667 3.256 8.816C3.51733 8.96533 3.81067 9.096 4.136 9.208C4.46667 9.31467 4.80267 9.42667 5.144 9.544C5.49067 9.66133 5.82667 9.79467 6.152 9.944C6.48267 10.088 6.776 10.272 7.032 10.496C7.29333 10.72 7.50133 10.9947 7.656 11.32C7.816 11.6453 7.896 12.0453 7.896 12.52C7.896 13.0213 7.81067 13.4933 7.64 13.936C7.46933 14.3733 7.21867 14.7547 6.888 15.08C6.56267 15.4053 6.16 15.6613 5.68 15.848C5.20533 16.0347 4.664 16.128 4.056 16.128C3.31467 16.128 2.63733 15.9947 2.024 15.728C1.416 15.456 0.896 15.0907 0.464 14.632L0.912 13.896C0.954667 13.8373 1.00533 13.7893 1.064 13.752C1.128 13.7093 1.19733 13.688 1.272 13.688C1.384 13.688 1.512 13.7493 1.656 13.872C1.8 13.9893 1.97867 14.12 2.192 14.264C2.41067 14.408 2.672 14.5413 2.976 14.664C3.28533 14.7813 3.66133 14.84 4.104 14.84C4.472 14.84 4.8 14.7893 5.088 14.688C5.376 14.5867 5.61867 14.4453 5.816 14.264C6.01867 14.0773 6.17333 13.856 6.28 13.6C6.38667 13.344 6.44 13.0587 6.44 12.744C6.44 12.3973 6.36 12.1147 6.2 11.896C6.04533 11.672 5.84 11.4853 5.584 11.336C5.328 11.1867 5.03467 11.0613 4.704 10.96C4.37867 10.8533 4.04267 10.7467 3.696 10.64C3.35467 10.528 3.01867 10.4 2.688 10.256C2.36267 10.112 2.072 9.92533 1.816 9.696C1.56 9.46667 1.352 9.18133 1.192 8.84C1.03733 8.49333 0.96 8.06667 0.96 7.56C0.96 7.15467 1.03733 6.76267 1.192 6.384C1.352 6.00533 1.58133 5.66933 1.88 5.376C2.17867 5.08267 2.54667 4.848 2.984 4.672C3.42667 4.496 3.93333 4.408 4.504 4.408C5.144 4.408 5.728 4.50933 6.256 4.712C6.784 4.91467 7.24533 5.208 7.64 5.592L7.264 6.328ZM12.8604 7.768C13.3457 7.768 13.7937 7.85067 14.2044 8.016C14.615 8.176 14.9697 8.41067 15.2684 8.72C15.567 9.024 15.799 9.40267 15.9644 9.856C16.135 10.304 16.2204 10.816 16.2204 11.392C16.2204 11.616 16.1964 11.7653 16.1484 11.84C16.1004 11.9147 16.0097 11.952 15.8764 11.952H10.4844C10.495 12.464 10.5644 12.9093 10.6924 13.288C10.8204 13.6667 10.9964 13.984 11.2204 14.24C11.4444 14.4907 11.711 14.68 12.0204 14.808C12.3297 14.9307 12.6764 14.992 13.0604 14.992C13.4177 14.992 13.7244 14.952 13.9804 14.872C14.2417 14.7867 14.4657 14.696 14.6524 14.6C14.839 14.504 14.9937 14.416 15.1164 14.336C15.2444 14.2507 15.3537 14.208 15.4444 14.208C15.5617 14.208 15.6524 14.2533 15.7164 14.344L16.1164 14.864C15.9404 15.0773 15.7297 15.264 15.4844 15.424C15.239 15.5787 14.975 15.7067 14.6924 15.808C14.415 15.9093 14.127 15.984 13.8284 16.032C13.5297 16.0853 13.2337 16.112 12.9404 16.112C12.3804 16.112 11.863 16.0187 11.3884 15.832C10.919 15.64 10.511 15.3627 10.1644 15C9.82304 14.632 9.55638 14.1787 9.36438 13.64C9.17238 13.1013 9.07638 12.4827 9.07638 11.784C9.07638 11.2187 9.16171 10.6907 9.33238 10.2C9.50838 9.70933 9.75904 9.28533 10.0844 8.928C10.4097 8.56533 10.807 8.28267 11.2764 8.08C11.7457 7.872 12.2737 7.768 12.8604 7.768ZM12.8924 8.816C12.2044 8.816 11.663 9.016 11.2684 9.416C10.8737 9.81067 10.6284 10.36 10.5324 11.064H14.9404C14.9404 10.7333 14.895 10.432 14.8044 10.16C14.7137 9.88267 14.5804 9.64533 14.4044 9.448C14.2284 9.24533 14.0124 9.09067 13.7564 8.984C13.5057 8.872 13.2177 8.816 12.8924 8.816ZM23.995 16H23.363C23.2243 16 23.1123 15.9787 23.027 15.936C22.9417 15.8933 22.8857 15.8027 22.859 15.664L22.699 14.912C22.4857 15.104 22.2777 15.2773 22.075 15.432C21.8723 15.5813 21.659 15.7093 21.435 15.816C21.211 15.9173 20.971 15.9947 20.715 16.048C20.4643 16.1013 20.1843 16.128 19.875 16.128C19.5603 16.128 19.2643 16.0853 18.987 16C18.715 15.9093 18.4777 15.776 18.275 15.6C18.0723 15.424 17.9097 15.2027 17.787 14.936C17.6697 14.664 17.611 14.344 17.611 13.976C17.611 13.656 17.699 13.3493 17.875 13.056C18.051 12.7573 18.3337 12.4933 18.723 12.264C19.1177 12.0347 19.6323 11.848 20.267 11.704C20.9017 11.5547 21.6777 11.4693 22.595 11.448V10.816C22.595 10.1867 22.459 9.712 22.187 9.392C21.9203 9.06667 21.523 8.904 20.995 8.904C20.6483 8.904 20.355 8.94933 20.115 9.04C19.8803 9.12533 19.675 9.224 19.499 9.336C19.3283 9.44267 19.179 9.54133 19.051 9.632C18.9283 9.71733 18.8057 9.76 18.683 9.76C18.587 9.76 18.5017 9.736 18.427 9.688C18.3577 9.63467 18.3017 9.57067 18.259 9.496L18.003 9.04C18.451 8.608 18.9337 8.28533 19.451 8.072C19.9683 7.85867 20.5417 7.752 21.171 7.752C21.6243 7.752 22.027 7.82667 22.379 7.976C22.731 8.12533 23.027 8.33333 23.267 8.6C23.507 8.86667 23.6883 9.18933 23.811 9.568C23.9337 9.94667 23.995 10.3627 23.995 10.816V16ZM20.299 15.128C20.5497 15.128 20.779 15.104 20.987 15.056C21.195 15.0027 21.3897 14.9307 21.571 14.84C21.7577 14.744 21.9337 14.6293 22.099 14.496C22.2697 14.3627 22.435 14.2107 22.595 14.04V12.352C21.939 12.3733 21.3817 12.4267 20.923 12.512C20.4643 12.592 20.091 12.6987 19.803 12.832C19.515 12.9653 19.3043 13.1227 19.171 13.304C19.043 13.4853 18.979 13.688 18.979 13.912C18.979 14.1253 19.0137 14.3093 19.083 14.464C19.1523 14.6187 19.2457 14.7467 19.363 14.848C19.4803 14.944 19.619 15.016 19.779 15.064C19.939 15.1067 20.1123 15.128 20.299 15.128ZM26.1524 16V7.896H26.9684C27.123 7.896 27.2297 7.92533 27.2884 7.984C27.347 8.04267 27.387 8.144 27.4084 8.288L27.5044 9.552C27.7817 8.98667 28.123 8.54667 28.5284 8.232C28.939 7.912 29.419 7.752 29.9684 7.752C30.1924 7.752 30.395 7.77867 30.5764 7.832C30.7577 7.88 30.9257 7.94933 31.0804 8.04L30.8964 9.104C30.859 9.23733 30.7764 9.304 30.6484 9.304C30.5737 9.304 30.459 9.28 30.3044 9.232C30.1497 9.17867 29.9337 9.152 29.6564 9.152C29.1604 9.152 28.7444 9.296 28.4084 9.584C28.0777 9.872 27.8004 10.2907 27.5764 10.84V16H26.1524ZM38.1335 9.336C38.0908 9.39467 38.0482 9.44 38.0055 9.472C37.9628 9.504 37.9015 9.52 37.8215 9.52C37.7415 9.52 37.6535 9.488 37.5575 9.424C37.4668 9.35467 37.3495 9.28 37.2055 9.2C37.0615 9.12 36.8855 9.048 36.6775 8.984C36.4748 8.91467 36.2242 8.88 35.9255 8.88C35.5308 8.88 35.1815 8.952 34.8775 9.096C34.5735 9.23467 34.3175 9.43733 34.1095 9.704C33.9068 9.97067 33.7522 10.2933 33.6455 10.672C33.5442 11.0507 33.4935 11.4747 33.4935 11.944C33.4935 12.4347 33.5495 12.872 33.6615 13.256C33.7735 13.6347 33.9308 13.9547 34.1335 14.216C34.3362 14.472 34.5815 14.6693 34.8695 14.808C35.1628 14.9413 35.4908 15.008 35.8535 15.008C36.2002 15.008 36.4855 14.968 36.7095 14.888C36.9335 14.8027 37.1202 14.7093 37.2695 14.608C37.4188 14.5067 37.5415 14.416 37.6375 14.336C37.7335 14.2507 37.8295 14.208 37.9255 14.208C38.0482 14.208 38.1388 14.2533 38.1975 14.344L38.5975 14.864C38.2455 15.296 37.8055 15.6133 37.2775 15.816C36.7495 16.0133 36.1922 16.112 35.6055 16.112C35.0988 16.112 34.6268 16.0187 34.1895 15.832C33.7575 15.6453 33.3815 15.376 33.0615 15.024C32.7415 14.6667 32.4882 14.2293 32.3015 13.712C32.1202 13.1947 32.0295 12.6053 32.0295 11.944C32.0295 11.3413 32.1122 10.784 32.2775 10.272C32.4482 9.76 32.6935 9.32 33.0135 8.952C33.3388 8.57867 33.7388 8.288 34.2135 8.08C34.6882 7.872 35.2322 7.768 35.8455 7.768C36.4108 7.768 36.9122 7.86133 37.3495 8.048C37.7868 8.22933 38.1735 8.488 38.5095 8.824L38.1335 9.336ZM40.0743 16V4.216H41.4983V8.984C41.8449 8.616 42.2289 8.32267 42.6503 8.104C43.0716 7.88 43.5569 7.768 44.1063 7.768C44.5489 7.768 44.9383 7.84267 45.2743 7.992C45.6156 8.136 45.8983 8.344 46.1223 8.616C46.3516 8.88267 46.5249 9.20533 46.6423 9.584C46.7596 9.96267 46.8183 10.3813 46.8183 10.84V16H45.3943V10.84C45.3943 10.2267 45.2529 9.752 44.9703 9.416C44.6929 9.07467 44.2663 8.904 43.6903 8.904C43.2689 8.904 42.8743 9.00533 42.5063 9.208C42.1436 9.41067 41.8076 9.68533 41.4983 10.032V16H40.0743Z" fill="black"/>
<rect x="0.5" y="28.5" width="375" height="37" rx="3.5" fill="white" stroke="#D8D8D8"/>
<path d="M337 29H372C373.657 29 375 30.3431 375 32V62C375 63.6569 373.657 65 372 65H337V29Z" fill="#0064D1"/>
<path fill-rule="evenodd" clip-rule="evenodd" d="M353.846 39C350.617 39 348 41.6174 348 44.8462C348 48.0749 350.617 50.6923 353.846 50.6923C355.127 50.6923 356.312 50.2802 357.276 49.5812L362.424 54.7297L362.511 54.8065C362.873 55.0881 363.397 55.0625 363.73 54.7297C364.09 54.3692 364.09 53.7848 363.73 53.4243L358.581 48.2758C359.28 47.3125 359.692 46.1274 359.692 44.8462C359.692 41.6174 357.075 39 353.846 39ZM356.7 47.6494C357.409 46.9276 357.846 45.938 357.846 44.8462C357.846 42.637 356.055 40.8462 353.846 40.8462C351.637 40.8462 349.846 42.637 349.846 44.8462C349.846 47.0553 351.637 48.8462 353.846 48.8462C354.938 48.8462 355.927 48.4088 356.649 47.6998C356.657 47.6911 356.666 47.6826 356.674 47.6741C356.682 47.6657 356.691 47.6574 356.7 47.6494Z" fill="white"/>
<path d="M9.352 86H7.987V81.436H2.583V86H1.218V75.969H2.583V80.442H7.987V75.969H9.352V86ZM14.411 78.797C14.8357 78.797 15.2277 78.8693 15.587 79.014C15.9464 79.154 16.2567 79.3593 16.518 79.63C16.7794 79.896 16.9824 80.2273 17.127 80.624C17.2764 81.016 17.351 81.464 17.351 81.968C17.351 82.164 17.33 82.2947 17.288 82.36C17.246 82.4253 17.1667 82.458 17.05 82.458H12.332C12.3414 82.906 12.402 83.2957 12.514 83.627C12.626 83.9583 12.78 84.236 12.976 84.46C13.172 84.6793 13.4054 84.845 13.676 84.957C13.9467 85.0643 14.25 85.118 14.586 85.118C14.8987 85.118 15.167 85.083 15.391 85.013C15.6197 84.9383 15.8157 84.859 15.979 84.775C16.1424 84.691 16.2777 84.614 16.385 84.544C16.497 84.4693 16.5927 84.432 16.672 84.432C16.7747 84.432 16.854 84.4717 16.91 84.551L17.26 85.006C17.106 85.1927 16.9217 85.356 16.707 85.496C16.4924 85.6313 16.2614 85.7433 16.014 85.832C15.7714 85.9207 15.5194 85.986 15.258 86.028C14.9967 86.0747 14.7377 86.098 14.481 86.098C13.991 86.098 13.5384 86.0163 13.123 85.853C12.7124 85.685 12.3554 85.4423 12.052 85.125C11.7534 84.803 11.52 84.4063 11.352 83.935C11.184 83.4637 11.1 82.9223 11.1 82.311C11.1 81.8163 11.1747 81.3543 11.324 80.925C11.478 80.4957 11.6974 80.1247 11.982 79.812C12.2667 79.4947 12.6144 79.2473 13.025 79.07C13.4357 78.888 13.8977 78.797 14.411 78.797ZM14.439 79.714C13.837 79.714 13.3634 79.889 13.018 80.239C12.6727 80.5843 12.458 81.065 12.374 81.681H16.231C16.231 81.3917 16.1914 81.128 16.112 80.89C16.0327 80.6473 15.916 80.4397 15.762 80.267C15.608 80.0897 15.419 79.9543 15.195 79.861C14.9757 79.763 14.7237 79.714 14.439 79.714ZM20.3318 75.689V86H19.0858V75.689H20.3318ZM22.5279 88.401V78.909H23.2699C23.4472 78.909 23.5592 78.9953 23.6059 79.168L23.7109 80.008C24.0142 79.6393 24.3595 79.343 24.7469 79.119C25.1389 78.895 25.5892 78.783 26.0979 78.783C26.5039 78.783 26.8725 78.8623 27.2039 79.021C27.5352 79.175 27.8175 79.406 28.0509 79.714C28.2842 80.0173 28.4639 80.3953 28.5899 80.848C28.7159 81.3007 28.7789 81.821 28.7789 82.409C28.7789 82.9317 28.7089 83.4193 28.5689 83.872C28.4289 84.32 28.2282 84.7097 27.9669 85.041C27.7055 85.3677 27.3835 85.6267 27.0009 85.818C26.6229 86.0047 26.1959 86.098 25.7199 86.098C25.2812 86.098 24.9055 86.0257 24.5929 85.881C24.2849 85.7363 24.0119 85.531 23.7739 85.265V88.401H22.5279ZM25.6849 79.791C25.2789 79.791 24.9219 79.8843 24.6139 80.071C24.3105 80.2577 24.0305 80.5213 23.7739 80.862V84.292C24.0025 84.6 24.2522 84.817 24.5229 84.943C24.7982 85.069 25.1039 85.132 25.4399 85.132C26.0979 85.132 26.6042 84.8963 26.9589 84.425C27.3135 83.9537 27.4909 83.2817 27.4909 82.409C27.4909 81.947 27.4489 81.5503 27.3649 81.219C27.2855 80.8877 27.1689 80.617 27.0149 80.407C26.8609 80.1923 26.6719 80.036 26.4479 79.938C26.2239 79.84 25.9695 79.791 25.6849 79.791ZM33.0595 78.797C33.4841 78.797 33.8761 78.8693 34.2355 79.014C34.5948 79.154 34.9051 79.3593 35.1665 79.63C35.4278 79.896 35.6308 80.2273 35.7755 80.624C35.9248 81.016 35.9995 81.464 35.9995 81.968C35.9995 82.164 35.9785 82.2947 35.9365 82.36C35.8945 82.4253 35.8151 82.458 35.6985 82.458H30.9805C30.9898 82.906 31.0505 83.2957 31.1625 83.627C31.2745 83.9583 31.4285 84.236 31.6245 84.46C31.8205 84.6793 32.0538 84.845 32.3245 84.957C32.5951 85.0643 32.8985 85.118 33.2345 85.118C33.5471 85.118 33.8155 85.083 34.0395 85.013C34.2681 84.9383 34.4641 84.859 34.6275 84.775C34.7908 84.691 34.9261 84.614 35.0335 84.544C35.1455 84.4693 35.2411 84.432 35.3205 84.432C35.4231 84.432 35.5025 84.4717 35.5585 84.551L35.9085 85.006C35.7545 85.1927 35.5701 85.356 35.3555 85.496C35.1408 85.6313 34.9098 85.7433 34.6625 85.832C34.4198 85.9207 34.1678 85.986 33.9065 86.028C33.6451 86.0747 33.3861 86.098 33.1295 86.098C32.6395 86.098 32.1868 86.0163 31.7715 85.853C31.3608 85.685 31.0038 85.4423 30.7005 85.125C30.4018 84.803 30.1685 84.4063 30.0005 83.935C29.8325 83.4637 29.7485 82.9223 29.7485 82.311C29.7485 81.8163 29.8231 81.3543 29.9725 80.925C30.1265 80.4957 30.3458 80.1247 30.6305 79.812C30.9151 79.4947 31.2628 79.2473 31.6735 79.07C32.0841 78.888 32.5461 78.797 33.0595 78.797ZM33.0875 79.714C32.4855 79.714 32.0118 79.889 31.6665 80.239C31.3211 80.5843 31.1065 81.065 31.0225 81.681H34.8795C34.8795 81.3917 34.8398 81.128 34.7605 80.89C34.6811 80.6473 34.5645 80.4397 34.4105 80.267C34.2565 80.0897 34.0675 79.9543 33.8435 79.861C33.6241 79.763 33.3721 79.714 33.0875 79.714ZM37.5943 86V78.909H38.3083C38.4436 78.909 38.5369 78.9347 38.5883 78.986C38.6396 79.0373 38.6746 79.126 38.6933 79.252L38.7773 80.358C39.0199 79.8633 39.3186 79.4783 39.6733 79.203C40.0326 78.923 40.4526 78.783 40.9333 78.783C41.1293 78.783 41.3066 78.8063 41.4653 78.853C41.6239 78.895 41.7709 78.9557 41.9063 79.035L41.7453 79.966C41.7126 80.0827 41.6403 80.141 41.5283 80.141C41.4629 80.141 41.3626 80.12 41.2273 80.078C41.0919 80.0313 40.9029 80.008 40.6603 80.008C40.2263 80.008 39.8623 80.134 39.5683 80.386C39.2789 80.638 39.0363 81.0043 38.8403 81.485V86H37.5943ZM48.0968 86.112C47.5368 86.112 47.1051 85.9557 46.8018 85.643C46.5031 85.3303 46.3538 84.88 46.3538 84.292V79.952H45.4998C45.4251 79.952 45.3621 79.931 45.3108 79.889C45.2594 79.8423 45.2338 79.7723 45.2338 79.679V79.182L46.3958 79.035L46.6828 76.844C46.6921 76.774 46.7224 76.718 46.7738 76.676C46.8251 76.6293 46.8904 76.606 46.9698 76.606H47.5998V79.049H49.6298V79.952H47.5998V84.208C47.5998 84.5067 47.6721 84.7283 47.8168 84.873C47.9614 85.0177 48.1481 85.09 48.3768 85.09C48.5074 85.09 48.6194 85.0737 48.7128 85.041C48.8108 85.0037 48.8948 84.964 48.9648 84.922C49.0348 84.88 49.0931 84.8427 49.1398 84.81C49.1911 84.7727 49.2354 84.754 49.2728 84.754C49.3381 84.754 49.3964 84.7937 49.4478 84.873L49.8118 85.468C49.5971 85.6687 49.3381 85.8273 49.0348 85.944C48.7314 86.056 48.4188 86.112 48.0968 86.112ZM53.9774 78.797C54.4021 78.797 54.7941 78.8693 55.1534 79.014C55.5128 79.154 55.8231 79.3593 56.0844 79.63C56.3458 79.896 56.5488 80.2273 56.6934 80.624C56.8428 81.016 56.9174 81.464 56.9174 81.968C56.9174 82.164 56.8964 82.2947 56.8544 82.36C56.8124 82.4253 56.7331 82.458 56.6164 82.458H51.8984C51.9078 82.906 51.9684 83.2957 52.0804 83.627C52.1924 83.9583 52.3464 84.236 52.5424 84.46C52.7384 84.6793 52.9718 84.845 53.2424 84.957C53.5131 85.0643 53.8164 85.118 54.1524 85.118C54.4651 85.118 54.7334 85.083 54.9574 85.013C55.1861 84.9383 55.3821 84.859 55.5454 84.775C55.7088 84.691 55.8441 84.614 55.9514 84.544C56.0634 84.4693 56.1591 84.432 56.2384 84.432C56.3411 84.432 56.4204 84.4717 56.4764 84.551L56.8264 85.006C56.6724 85.1927 56.4881 85.356 56.2734 85.496C56.0588 85.6313 55.8278 85.7433 55.5804 85.832C55.3378 85.9207 55.0858 85.986 54.8244 86.028C54.5631 86.0747 54.3041 86.098 54.0474 86.098C53.5574 86.098 53.1048 86.0163 52.6894 85.853C52.2788 85.685 51.9218 85.4423 51.6184 85.125C51.3198 84.803 51.0864 84.4063 50.9184 83.935C50.7504 83.4637 50.6664 82.9223 50.6664 82.311C50.6664 81.8163 50.7411 81.3543 50.8904 80.925C51.0444 80.4957 51.2638 80.1247 51.5484 79.812C51.8331 79.4947 52.1808 79.2473 52.5914 79.07C53.0021 78.888 53.4641 78.797 53.9774 78.797ZM54.0054 79.714C53.4034 79.714 52.9298 79.889 52.5844 80.239C52.2391 80.5843 52.0244 81.065 51.9404 81.681H55.7974C55.7974 81.3917 55.7578 81.128 55.6784 80.89C55.5991 80.6473 55.4824 80.4397 55.3284 80.267C55.1744 80.0897 54.9854 79.9543 54.7614 79.861C54.5421 79.763 54.2901 79.714 54.0054 79.714ZM59.7474 82.367L57.3604 78.909H58.5574C58.6601 78.909 58.7347 78.9253 58.7814 78.958C58.8281 78.9907 58.8701 79.0373 58.9074 79.098L60.6434 81.758C60.6854 81.6273 60.7461 81.4967 60.8254 81.366L62.3514 79.126C62.3981 79.0607 62.4447 79.0093 62.4914 78.972C62.5381 78.93 62.5964 78.909 62.6664 78.909H63.8144L61.4274 82.297L63.9124 86H62.7154C62.6127 86 62.5311 85.9743 62.4704 85.923C62.4144 85.867 62.3677 85.8063 62.3304 85.741L60.5454 82.962C60.5127 83.0973 60.4637 83.2187 60.3984 83.326L58.7464 85.741C58.6997 85.8063 58.6484 85.867 58.5924 85.923C58.5411 85.9743 58.4687 86 58.3754 86H57.2624L59.7474 82.367ZM67.2921 86.112C66.7321 86.112 66.3004 85.9557 65.9971 85.643C65.6984 85.3303 65.5491 84.88 65.5491 84.292V79.952H64.6951C64.6204 79.952 64.5574 79.931 64.5061 79.889C64.4548 79.8423 64.4291 79.7723 64.4291 79.679V79.182L65.5911 79.035L65.8781 76.844C65.8874 76.774 65.9178 76.718 65.9691 76.676C66.0204 76.6293 66.0858 76.606 66.1651 76.606H66.7951V79.049H68.8251V79.952H66.7951V84.208C66.7951 84.5067 66.8674 84.7283 67.0121 84.873C67.1568 85.0177 67.3434 85.09 67.5721 85.09C67.7028 85.09 67.8148 85.0737 67.9081 85.041C68.0061 85.0037 68.0901 84.964 68.1601 84.922C68.2301 84.88 68.2884 84.8427 68.3351 84.81C68.3864 84.7727 68.4308 84.754 68.4681 84.754C68.5334 84.754 68.5918 84.7937 68.6431 84.873L69.0071 85.468C68.7924 85.6687 68.5334 85.8273 68.2301 85.944C67.9268 86.056 67.6141 86.112 67.2921 86.112Z" fill="#6A6A6A"/>
<path d="M18.224 48.864H19.96V49.68C19.96 49.7653 19.9333 49.8373 19.88 49.896C19.832 49.9547 19.7547 49.984 19.648 49.984H18.224V53H16.968V49.984H11.888C11.7813 49.984 11.688 49.9547 11.608 49.896C11.5333 49.832 11.4853 49.7547 11.464 49.664L11.32 48.936L16.896 41.536H18.224V48.864ZM16.968 44.136C16.968 43.9973 16.9707 43.848 16.976 43.688C16.9867 43.528 17.0053 43.3627 17.032 43.192L12.864 48.864H16.968V44.136ZM24.175 47.6H28.127V48.808H24.175V47.6ZM34.9596 51.696H39.9196V53H33.4076V41.536H34.9596V51.696ZM47.3544 53H46.7224C46.5837 53 46.4717 52.9787 46.3864 52.936C46.301 52.8933 46.245 52.8027 46.2184 52.664L46.0584 51.912C45.845 52.104 45.637 52.2773 45.4344 52.432C45.2317 52.5813 45.0184 52.7093 44.7944 52.816C44.5704 52.9173 44.3304 52.9947 44.0744 53.048C43.8237 53.1013 43.5437 53.128 43.2344 53.128C42.9197 53.128 42.6237 53.0853 42.3464 53C42.0744 52.9093 41.837 52.776 41.6344 52.6C41.4317 52.424 41.269 52.2027 41.1464 51.936C41.029 51.664 40.9704 51.344 40.9704 50.976C40.9704 50.656 41.0584 50.3493 41.2344 50.056C41.4104 49.7573 41.693 49.4933 42.0824 49.264C42.477 49.0347 42.9917 48.848 43.6264 48.704C44.261 48.5547 45.037 48.4693 45.9544 48.448V47.816C45.9544 47.1867 45.8184 46.712 45.5464 46.392C45.2797 46.0667 44.8824 45.904 44.3544 45.904C44.0077 45.904 43.7144 45.9493 43.4744 46.04C43.2397 46.1253 43.0344 46.224 42.8584 46.336C42.6877 46.4427 42.5384 46.5413 42.4104 46.632C42.2877 46.7173 42.165 46.76 42.0424 46.76C41.9464 46.76 41.861 46.736 41.7864 46.688C41.717 46.6347 41.661 46.5707 41.6184 46.496L41.3624 46.04C41.8104 45.608 42.293 45.2853 42.8104 45.072C43.3277 44.8587 43.901 44.752 44.5304 44.752C44.9837 44.752 45.3864 44.8267 45.7384 44.976C46.0904 45.1253 46.3864 45.3333 46.6264 45.6C46.8664 45.8667 47.0477 46.1893 47.1704 46.568C47.293 46.9467 47.3544 47.3627 47.3544 47.816V53ZM43.6584 52.128C43.909 52.128 44.1384 52.104 44.3464 52.056C44.5544 52.0027 44.749 51.9307 44.9304 51.84C45.117 51.744 45.293 51.6293 45.4584 51.496C45.629 51.3627 45.7944 51.2107 45.9544 51.04V49.352C45.2984 49.3733 44.741 49.4267 44.2824 49.512C43.8237 49.592 43.4504 49.6987 43.1624 49.832C42.8744 49.9653 42.6637 50.1227 42.5304 50.304C42.4024 50.4853 42.3384 50.688 42.3384 50.912C42.3384 51.1253 42.373 51.3093 42.4424 51.464C42.5117 51.6187 42.605 51.7467 42.7224 51.848C42.8397 51.944 42.9784 52.016 43.1384 52.064C43.2984 52.1067 43.4717 52.128 43.6584 52.128ZM49.5118 53V44.896H50.3278C50.4824 44.896 50.5891 44.9253 50.6478 44.984C50.7064 45.0427 50.7464 45.144 50.7678 45.288L50.8638 46.552C51.1411 45.9867 51.4824 45.5467 51.8878 45.232C52.2984 44.912 52.7784 44.752 53.3278 44.752C53.5518 44.752 53.7544 44.7787 53.9358 44.832C54.1171 44.88 54.2851 44.9493 54.4398 45.04L54.2558 46.104C54.2184 46.2373 54.1358 46.304 54.0078 46.304C53.9331 46.304 53.8184 46.28 53.6638 46.232C53.5091 46.1787 53.2931 46.152 53.0158 46.152C52.5198 46.152 52.1038 46.296 51.7678 46.584C51.4371 46.872 51.1598 47.2907 50.9358 47.84V53H49.5118ZM58.6929 44.76C59.0449 44.76 59.3729 44.8 59.6769 44.88C59.9862 44.9547 60.2662 45.0667 60.5169 45.216H62.7169V45.744C62.7169 45.92 62.6049 46.032 62.3809 46.08L61.4609 46.208C61.6422 46.5547 61.7329 46.9413 61.7329 47.368C61.7329 47.7627 61.6555 48.1227 61.5009 48.448C61.3515 48.768 61.1409 49.0427 60.8689 49.272C60.6022 49.5013 60.2822 49.6773 59.9089 49.8C59.5409 49.9227 59.1355 49.984 58.6929 49.984C58.3142 49.984 57.9569 49.9387 57.6209 49.848C57.4502 49.9547 57.3195 50.0693 57.2289 50.192C57.1435 50.3147 57.1009 50.4347 57.1009 50.552C57.1009 50.744 57.1782 50.8907 57.3329 50.992C57.4875 51.088 57.6929 51.1573 57.9489 51.2C58.2049 51.2427 58.4955 51.2693 58.8209 51.28C59.1462 51.2907 59.4769 51.3093 59.8129 51.336C60.1542 51.3573 60.4875 51.3973 60.8129 51.456C61.1382 51.5147 61.4289 51.6107 61.6849 51.744C61.9409 51.8773 62.1462 52.0613 62.3009 52.296C62.4555 52.5307 62.5329 52.8347 62.5329 53.208C62.5329 53.5547 62.4449 53.8907 62.2689 54.216C62.0982 54.5413 61.8502 54.8293 61.5249 55.08C61.1995 55.336 60.8022 55.5387 60.3329 55.688C59.8635 55.8427 59.3329 55.92 58.7409 55.92C58.1489 55.92 57.6289 55.8613 57.1809 55.744C56.7382 55.6267 56.3702 55.4693 56.0769 55.272C55.7835 55.0747 55.5622 54.8453 55.4129 54.584C55.2689 54.328 55.1969 54.0587 55.1969 53.776C55.1969 53.376 55.3222 53.0373 55.5729 52.76C55.8289 52.4773 56.1782 52.2533 56.6209 52.088C56.3915 51.9813 56.2075 51.84 56.0689 51.664C55.9355 51.4827 55.8689 51.2427 55.8689 50.944C55.8689 50.8267 55.8902 50.7067 55.9329 50.584C55.9755 50.456 56.0395 50.3307 56.1249 50.208C56.2155 50.0853 56.3249 49.968 56.4529 49.856C56.5809 49.744 56.7302 49.6453 56.9009 49.56C56.5009 49.336 56.1862 49.04 55.9569 48.672C55.7329 48.2987 55.6209 47.864 55.6209 47.368C55.6209 46.9733 55.6955 46.616 55.8449 46.296C55.9995 45.9707 56.2129 45.696 56.4849 45.472C56.7569 45.2427 57.0795 45.0667 57.4529 44.944C57.8315 44.8213 58.2449 44.76 58.6929 44.76ZM61.2209 53.44C61.2209 53.2373 61.1649 53.0747 61.0529 52.952C60.9409 52.8293 60.7889 52.736 60.5969 52.672C60.4049 52.6027 60.1835 52.552 59.9329 52.52C59.6822 52.488 59.4182 52.4667 59.1409 52.456C58.8635 52.44 58.5809 52.424 58.2929 52.408C58.0049 52.392 57.7302 52.3627 57.4689 52.32C57.1649 52.464 56.9169 52.64 56.7249 52.848C56.5382 53.056 56.4449 53.304 56.4449 53.592C56.4449 53.7733 56.4902 53.9413 56.5809 54.096C56.6769 54.256 56.8209 54.392 57.0129 54.504C57.2049 54.6213 57.4449 54.712 57.7329 54.776C58.0262 54.8453 58.3702 54.88 58.7649 54.88C59.1489 54.88 59.4929 54.8453 59.7969 54.776C60.1009 54.7067 60.3569 54.608 60.5649 54.48C60.7782 54.352 60.9409 54.2 61.0529 54.024C61.1649 53.848 61.2209 53.6533 61.2209 53.44ZM58.6929 49.04C58.9809 49.04 59.2342 49 59.4529 48.92C59.6769 48.84 59.8635 48.728 60.0129 48.584C60.1622 48.44 60.2742 48.2693 60.3489 48.072C60.4235 47.8693 60.4609 47.648 60.4609 47.408C60.4609 46.912 60.3089 46.5173 60.0049 46.224C59.7062 45.9307 59.2689 45.784 58.6929 45.784C58.1222 45.784 57.6849 45.9307 57.3809 46.224C57.0822 46.5173 56.9329 46.912 56.9329 47.408C56.9329 47.648 56.9702 47.8693 57.0449 48.072C57.1249 48.2693 57.2395 48.44 57.3889 48.584C57.5382 48.728 57.7222 48.84 57.9409 48.92C58.1595 49 58.4102 49.04 58.6929 49.04ZM67.3448 44.768C67.8301 44.768 68.2781 44.8507 68.6888 45.016C69.0994 45.176 69.4541 45.4107 69.7528 45.72C70.0514 46.024 70.2834 46.4027 70.4488 46.856C70.6194 47.304 70.7048 47.816 70.7048 48.392C70.7048 48.616 70.6808 48.7653 70.6328 48.84C70.5848 48.9147 70.4941 48.952 70.3608 48.952H64.9688C64.9794 49.464 65.0488 49.9093 65.1768 50.288C65.3048 50.6667 65.4808 50.984 65.7048 51.24C65.9288 51.4907 66.1954 51.68 66.5048 51.808C66.8141 51.9307 67.1608 51.992 67.5448 51.992C67.9021 51.992 68.2088 51.952 68.4648 51.872C68.7261 51.7867 68.9501 51.696 69.1368 51.6C69.3234 51.504 69.4781 51.416 69.6008 51.336C69.7288 51.2507 69.8381 51.208 69.9288 51.208C70.0461 51.208 70.1368 51.2533 70.2008 51.344L70.6008 51.864C70.4248 52.0773 70.2141 52.264 69.9688 52.424C69.7234 52.5787 69.4594 52.7067 69.1768 52.808C68.8994 52.9093 68.6114 52.984 68.3128 53.032C68.0141 53.0853 67.7181 53.112 67.4248 53.112C66.8648 53.112 66.3474 53.0187 65.8728 52.832C65.4034 52.64 64.9954 52.3627 64.6488 52C64.3074 51.632 64.0408 51.1787 63.8488 50.64C63.6568 50.1013 63.5608 49.4827 63.5608 48.784C63.5608 48.2187 63.6461 47.6907 63.8168 47.2C63.9928 46.7093 64.2434 46.2853 64.5688 45.928C64.8941 45.5653 65.2914 45.2827 65.7608 45.08C66.2301 44.872 66.7581 44.768 67.3448 44.768ZM67.3767 45.816C66.6888 45.816 66.1474 46.016 65.7528 46.416C65.3581 46.8107 65.1128 47.36 65.0168 48.064H69.4248C69.4248 47.7333 69.3794 47.432 69.2888 47.16C69.1981 46.8827 69.0648 46.6453 68.8888 46.448C68.7128 46.2453 68.4968 46.0907 68.2408 45.984C67.9901 45.872 67.7021 45.816 67.3767 45.816ZM81.3251 53C81.1225 53 80.9945 52.9013 80.9411 52.704L80.8131 51.72C80.4665 52.1413 80.0691 52.48 79.6211 52.736C79.1785 52.9867 78.6691 53.112 78.0931 53.112C77.6291 53.112 77.2078 53.024 76.8291 52.848C76.4505 52.6667 76.1278 52.4027 75.8611 52.056C75.5945 51.7093 75.3891 51.2773 75.2451 50.76C75.1011 50.2427 75.0291 49.648 75.0291 48.976C75.0291 48.3787 75.1091 47.824 75.2691 47.312C75.4291 46.7947 75.6585 46.3467 75.9571 45.968C76.2611 45.5893 76.6291 45.2933 77.0611 45.08C77.4931 44.8613 77.9838 44.752 78.5331 44.752C79.0291 44.752 79.4531 44.8373 79.8051 45.008C80.1571 45.1733 80.4718 45.408 80.7491 45.712V41.216H82.1731V53H81.3251ZM78.5651 51.96C79.0291 51.96 79.4345 51.8533 79.7811 51.64C80.1331 51.4267 80.4558 51.1253 80.7491 50.736V46.816C80.4878 46.464 80.1998 46.2187 79.8851 46.08C79.5758 45.936 79.2318 45.864 78.8531 45.864C78.0958 45.864 77.5145 46.1333 77.1091 46.672C76.7038 47.2107 76.5011 47.9787 76.5011 48.976C76.5011 49.504 76.5465 49.9573 76.6371 50.336C76.7278 50.7093 76.8611 51.0187 77.0371 51.264C77.2131 51.504 77.4291 51.68 77.6851 51.792C77.9411 51.904 78.2345 51.96 78.5651 51.96ZM87.7666 44.768C88.252 44.768 88.7 44.8507 89.1106 45.016C89.5213 45.176 89.876 45.4107 90.1746 45.72C90.4733 46.024 90.7053 46.4027 90.8706 46.856C91.0413 47.304 91.1266 47.816 91.1266 48.392C91.1266 48.616 91.1026 48.7653 91.0546 48.84C91.0066 48.9147 90.916 48.952 90.7826 48.952H85.3906C85.4013 49.464 85.4706 49.9093 85.5986 50.288C85.7266 50.6667 85.9026 50.984 86.1266 51.24C86.3506 51.4907 86.6173 51.68 86.9266 51.808C87.236 51.9307 87.5826 51.992 87.9666 51.992C88.324 51.992 88.6306 51.952 88.8866 51.872C89.148 51.7867 89.372 51.696 89.5586 51.6C89.7453 51.504 89.9 51.416 90.0226 51.336C90.1506 51.2507 90.26 51.208 90.3506 51.208C90.468 51.208 90.5586 51.2533 90.6226 51.344L91.0226 51.864C90.8466 52.0773 90.636 52.264 90.3906 52.424C90.1453 52.5787 89.8813 52.7067 89.5986 52.808C89.3213 52.9093 89.0333 52.984 88.7346 53.032C88.436 53.0853 88.14 53.112 87.8466 53.112C87.2866 53.112 86.7693 53.0187 86.2946 52.832C85.8253 52.64 85.4173 52.3627 85.0706 52C84.7293 51.632 84.4626 51.1787 84.2706 50.64C84.0786 50.1013 83.9826 49.4827 83.9826 48.784C83.9826 48.2187 84.068 47.6907 84.2386 47.2C84.4146 46.7093 84.6653 46.2853 84.9906 45.928C85.316 45.5653 85.7133 45.2827 86.1826 45.08C86.652 44.872 87.18 44.768 87.7666 44.768ZM87.7986 45.816C87.1106 45.816 86.5693 46.016 86.1746 46.416C85.78 46.8107 85.5346 47.36 85.4386 48.064H89.8466C89.8466 47.7333 89.8013 47.432 89.7106 47.16C89.62 46.8827 89.4866 46.6453 89.3106 46.448C89.1346 46.2453 88.9186 46.0907 88.6626 45.984C88.412 45.872 88.124 45.816 87.7986 45.816ZM97.5893 46.232C97.5253 46.3493 97.4266 46.408 97.2933 46.408C97.2133 46.408 97.1226 46.3787 97.0213 46.32C96.9199 46.2613 96.7946 46.1973 96.6453 46.128C96.5013 46.0533 96.3279 45.9867 96.1253 45.928C95.9226 45.864 95.6826 45.832 95.4053 45.832C95.1653 45.832 94.9493 45.864 94.7573 45.928C94.5653 45.9867 94.3999 46.0693 94.2613 46.176C94.1279 46.2827 94.0239 46.408 93.9493 46.552C93.8799 46.6907 93.8453 46.8427 93.8453 47.008C93.8453 47.216 93.9039 47.3893 94.0213 47.528C94.1439 47.6667 94.3039 47.7867 94.5013 47.888C94.6986 47.9893 94.9226 48.08 95.1733 48.16C95.4239 48.2347 95.6799 48.3173 95.9413 48.408C96.2079 48.4933 96.4666 48.5893 96.7173 48.696C96.9679 48.8027 97.1919 48.936 97.3893 49.096C97.5866 49.256 97.7439 49.4533 97.8613 49.688C97.9839 49.9173 98.0453 50.1947 98.0453 50.52C98.0453 50.8933 97.9786 51.24 97.8453 51.56C97.7119 51.8747 97.5146 52.1493 97.2533 52.384C96.9919 52.6133 96.6719 52.7947 96.2933 52.928C95.9146 53.0613 95.4773 53.128 94.9813 53.128C94.4159 53.128 93.9039 53.0373 93.4453 52.856C92.9866 52.6693 92.5973 52.432 92.2773 52.144L92.6133 51.6C92.6559 51.5307 92.7066 51.4773 92.7653 51.44C92.8239 51.4027 92.9013 51.384 92.9973 51.384C93.0933 51.384 93.1946 51.4213 93.3013 51.496C93.4079 51.5707 93.5359 51.6533 93.6853 51.744C93.8399 51.8347 94.0239 51.9173 94.2373 51.992C94.4559 52.0667 94.7279 52.104 95.0533 52.104C95.3306 52.104 95.5733 52.0693 95.7812 52C95.9893 51.9253 96.1626 51.8267 96.3012 51.704C96.4399 51.5813 96.5413 51.44 96.6053 51.28C96.6746 51.12 96.7093 50.9493 96.7093 50.768C96.7093 50.544 96.6479 50.36 96.5253 50.216C96.4079 50.0667 96.2506 49.9413 96.0533 49.84C95.8559 49.7333 95.6293 49.6427 95.3733 49.568C95.1226 49.488 94.8639 49.4053 94.5973 49.32C94.3359 49.2347 94.0773 49.1387 93.8213 49.032C93.5706 48.92 93.3466 48.7813 93.1493 48.616C92.9519 48.4507 92.7919 48.248 92.6693 48.008C92.5519 47.7627 92.4933 47.4667 92.4933 47.12C92.4933 46.8107 92.5573 46.5147 92.6853 46.232C92.8133 45.944 92.9999 45.6933 93.2453 45.48C93.4906 45.2613 93.7919 45.088 94.1493 44.96C94.5066 44.832 94.9146 44.768 95.3733 44.768C95.9066 44.768 96.3839 44.8533 96.8053 45.024C97.2319 45.1893 97.5999 45.4187 97.9093 45.712L97.5893 46.232ZM105.415 46.336C105.372 46.3947 105.329 46.44 105.287 46.472C105.244 46.504 105.183 46.52 105.103 46.52C105.023 46.52 104.935 46.488 104.839 46.424C104.748 46.3547 104.631 46.28 104.487 46.2C104.343 46.12 104.167 46.048 103.959 45.984C103.756 45.9147 103.505 45.88 103.207 45.88C102.812 45.88 102.463 45.952 102.159 46.096C101.855 46.2347 101.599 46.4373 101.391 46.704C101.188 46.9707 101.033 47.2933 100.927 47.672C100.825 48.0507 100.775 48.4747 100.775 48.944C100.775 49.4347 100.831 49.872 100.943 50.256C101.055 50.6347 101.212 50.9547 101.415 51.216C101.617 51.472 101.863 51.6693 102.151 51.808C102.444 51.9413 102.772 52.008 103.135 52.008C103.481 52.008 103.767 51.968 103.991 51.888C104.215 51.8027 104.401 51.7093 104.551 51.608C104.7 51.5067 104.823 51.416 104.919 51.336C105.015 51.2507 105.111 51.208 105.207 51.208C105.329 51.208 105.42 51.2533 105.479 51.344L105.879 51.864C105.527 52.296 105.087 52.6133 104.559 52.816C104.031 53.0133 103.473 53.112 102.887 53.112C102.38 53.112 101.908 53.0187 101.471 52.832C101.039 52.6453 100.663 52.376 100.343 52.024C100.023 51.6667 99.7694 51.2293 99.5828 50.712C99.4014 50.1947 99.3108 49.6053 99.3108 48.944C99.3108 48.3413 99.3934 47.784 99.5588 47.272C99.7294 46.76 99.9748 46.32 100.295 45.952C100.62 45.5787 101.02 45.288 101.495 45.08C101.969 44.872 102.513 44.768 103.127 44.768C103.692 44.768 104.193 44.8613 104.631 45.048C105.068 45.2293 105.455 45.488 105.791 45.824L105.415 46.336ZM107.356 53V44.896H108.172C108.326 44.896 108.433 44.9253 108.492 44.984C108.55 45.0427 108.59 45.144 108.612 45.288L108.708 46.552C108.985 45.9867 109.326 45.5467 109.732 45.232C110.142 44.912 110.622 44.752 111.172 44.752C111.396 44.752 111.598 44.7787 111.78 44.832C111.961 44.88 112.129 44.9493 112.284 45.04L112.1 46.104C112.062 46.2373 111.98 46.304 111.852 46.304C111.777 46.304 111.662 46.28 111.508 46.232C111.353 46.1787 111.137 46.152 110.86 46.152C110.364 46.152 109.948 46.296 109.612 46.584C109.281 46.872 109.004 47.2907 108.78 47.84V53H107.356ZM115.393 44.896V53H113.969V44.896H115.393ZM115.713 42.352C115.713 42.4907 115.683 42.6213 115.625 42.744C115.571 42.8613 115.497 42.968 115.401 43.064C115.31 43.1547 115.203 43.2267 115.081 43.28C114.958 43.3333 114.827 43.36 114.689 43.36C114.55 43.36 114.419 43.3333 114.297 43.28C114.179 43.2267 114.073 43.1547 113.977 43.064C113.886 42.968 113.814 42.8613 113.761 42.744C113.707 42.6213 113.681 42.4907 113.681 42.352C113.681 42.2133 113.707 42.0827 113.761 41.96C113.814 41.832 113.886 41.7227 113.977 41.632C114.073 41.536 114.179 41.4613 114.297 41.408C114.419 41.3547 114.55 41.328 114.689 41.328C114.827 41.328 114.958 41.3547 115.081 41.408C115.203 41.4613 115.31 41.536 115.401 41.632C115.497 41.7227 115.571 41.832 115.625 41.96C115.683 42.0827 115.713 42.2133 115.713 42.352ZM117.902 55.744V44.896H118.75C118.953 44.896 119.081 44.9947 119.134 45.192L119.254 46.152C119.601 45.7307 119.996 45.392 120.438 45.136C120.886 44.88 121.401 44.752 121.982 44.752C122.446 44.752 122.868 44.8427 123.246 45.024C123.625 45.2 123.948 45.464 124.214 45.816C124.481 46.1627 124.686 46.5947 124.83 47.112C124.974 47.6293 125.046 48.224 125.046 48.896C125.046 49.4933 124.966 50.0507 124.806 50.568C124.646 51.08 124.417 51.5253 124.118 51.904C123.82 52.2773 123.452 52.5733 123.014 52.792C122.582 53.0053 122.094 53.112 121.55 53.112C121.049 53.112 120.62 53.0293 120.262 52.864C119.91 52.6987 119.598 52.464 119.326 52.16V55.744H117.902ZM121.51 45.904C121.046 45.904 120.638 46.0107 120.286 46.224C119.94 46.4373 119.62 46.7387 119.326 47.128V51.048C119.588 51.4 119.873 51.648 120.182 51.792C120.497 51.936 120.846 52.008 121.23 52.008C121.982 52.008 122.561 51.7387 122.966 51.2C123.372 50.6613 123.574 49.8933 123.574 48.896C123.574 48.368 123.526 47.9147 123.43 47.536C123.34 47.1573 123.206 46.848 123.03 46.608C122.854 46.3627 122.638 46.184 122.382 46.072C122.126 45.96 121.836 45.904 121.51 45.904ZM129.187 53.128C128.547 53.128 128.053 52.9493 127.707 52.592C127.365 52.2347 127.195 51.72 127.195 51.048V46.088H126.219C126.133 46.088 126.061 46.064 126.003 46.016C125.944 45.9627 125.915 45.8827 125.915 45.776V45.208L127.243 45.04L127.571 42.536C127.581 42.456 127.616 42.392 127.674 42.344C127.733 42.2907 127.808 42.264 127.899 42.264H128.619V45.056H130.939V46.088H128.619V50.952C128.619 51.2933 128.701 51.5467 128.867 51.712C129.032 51.8773 129.245 51.96 129.507 51.96C129.656 51.96 129.784 51.9413 129.891 51.904C130.003 51.8613 130.099 51.816 130.179 51.768C130.259 51.72 130.325 51.6773 130.379 51.64C130.437 51.5973 130.488 51.576 130.531 51.576C130.605 51.576 130.672 51.6213 130.731 51.712L131.147 52.392C130.901 52.6213 130.605 52.8027 130.259 52.936C129.912 53.064 129.555 53.128 129.187 53.128ZM134.283 44.896V53H132.859V44.896H134.283ZM134.603 42.352C134.603 42.4907 134.574 42.6213 134.515 42.744C134.462 42.8613 134.387 42.968 134.291 43.064C134.201 43.1547 134.094 43.2267 133.971 43.28C133.849 43.3333 133.718 43.36 133.579 43.36C133.441 43.36 133.31 43.3333 133.187 43.28C133.07 43.2267 132.963 43.1547 132.867 43.064C132.777 42.968 132.705 42.8613 132.651 42.744C132.598 42.6213 132.571 42.4907 132.571 42.352C132.571 42.2133 132.598 42.0827 132.651 41.96C132.705 41.832 132.777 41.7227 132.867 41.632C132.963 41.536 133.07 41.4613 133.187 41.408C133.31 41.3547 133.441 41.328 133.579 41.328C133.718 41.328 133.849 41.3547 133.971 41.408C134.094 41.4613 134.201 41.536 134.291 41.632C134.387 41.7227 134.462 41.832 134.515 41.96C134.574 42.0827 134.603 42.2133 134.603 42.352ZM140.073 44.768C140.665 44.768 141.198 44.8667 141.673 45.064C142.153 45.2613 142.558 45.5413 142.889 45.904C143.225 46.2667 143.481 46.7067 143.657 47.224C143.838 47.736 143.929 48.3093 143.929 48.944C143.929 49.584 143.838 50.16 143.657 50.672C143.481 51.184 143.225 51.6213 142.889 51.984C142.558 52.3467 142.153 52.6267 141.673 52.824C141.198 53.016 140.665 53.112 140.073 53.112C139.481 53.112 138.945 53.016 138.465 52.824C137.99 52.6267 137.585 52.3467 137.249 51.984C136.913 51.6213 136.654 51.184 136.473 50.672C136.292 50.16 136.201 49.584 136.201 48.944C136.201 48.3093 136.292 47.736 136.473 47.224C136.654 46.7067 136.913 46.2667 137.249 45.904C137.585 45.5413 137.99 45.2613 138.465 45.064C138.945 44.8667 139.481 44.768 140.073 44.768ZM140.073 52C140.873 52 141.47 51.7333 141.865 51.2C142.26 50.6613 142.457 49.912 142.457 48.952C142.457 47.9867 142.26 47.2347 141.865 46.696C141.47 46.1573 140.873 45.888 140.073 45.888C139.668 45.888 139.316 45.9573 139.017 46.096C138.718 46.2347 138.468 46.4347 138.265 46.696C138.068 46.9573 137.918 47.28 137.817 47.664C137.721 48.0427 137.673 48.472 137.673 48.952C137.673 49.432 137.721 49.8613 137.817 50.24C137.918 50.6187 138.068 50.9387 138.265 51.2C138.468 51.456 138.718 51.6533 139.017 51.792C139.316 51.9307 139.668 52 140.073 52ZM145.684 53V44.896H146.532C146.734 44.896 146.862 44.9947 146.916 45.192L147.028 46.072C147.38 45.6827 147.772 45.368 148.204 45.128C148.641 44.888 149.145 44.768 149.716 44.768C150.158 44.768 150.548 44.8427 150.884 44.992C151.225 45.136 151.508 45.344 151.732 45.616C151.961 45.8827 152.134 46.2053 152.252 46.584C152.369 46.9627 152.428 47.3813 152.428 47.84V53H151.004V47.84C151.004 47.2267 150.862 46.752 150.58 46.416C150.302 46.0747 149.876 45.904 149.3 45.904C148.878 45.904 148.484 46.0053 148.116 46.208C147.753 46.4107 147.417 46.6853 147.108 47.032V53H145.684ZM157.988 53V46.112L157.092 46.008C156.98 45.9813 156.887 45.9413 156.812 45.888C156.743 45.8293 156.708 45.7467 156.708 45.64V45.056H157.988V44.272C157.988 43.808 158.052 43.3973 158.18 43.04C158.313 42.6773 158.5 42.3733 158.74 42.128C158.985 41.8773 159.279 41.688 159.62 41.56C159.961 41.432 160.345 41.368 160.772 41.368C161.135 41.368 161.471 41.4213 161.78 41.528L161.748 42.24C161.743 42.3467 161.697 42.4107 161.612 42.432C161.527 42.4533 161.407 42.464 161.252 42.464H161.004C160.759 42.464 160.535 42.496 160.332 42.56C160.135 42.624 159.964 42.728 159.82 42.872C159.676 43.016 159.564 43.2053 159.484 43.44C159.409 43.6747 159.372 43.9653 159.372 44.312V45.056H161.716V46.088H159.42V53H157.988ZM166.339 44.768C166.931 44.768 167.464 44.8667 167.939 45.064C168.419 45.2613 168.824 45.5413 169.155 45.904C169.491 46.2667 169.747 46.7067 169.923 47.224C170.104 47.736 170.195 48.3093 170.195 48.944C170.195 49.584 170.104 50.16 169.923 50.672C169.747 51.184 169.491 51.6213 169.155 51.984C168.824 52.3467 168.419 52.6267 167.939 52.824C167.464 53.016 166.931 53.112 166.339 53.112C165.747 53.112 165.211 53.016 164.731 52.824C164.256 52.6267 163.851 52.3467 163.515 51.984C163.179 51.6213 162.92 51.184 162.739 50.672C162.557 50.16 162.467 49.584 162.467 48.944C162.467 48.3093 162.557 47.736 162.739 47.224C162.92 46.7067 163.179 46.2667 163.515 45.904C163.851 45.5413 164.256 45.2613 164.731 45.064C165.211 44.8667 165.747 44.768 166.339 44.768ZM166.339 52C167.139 52 167.736 51.7333 168.131 51.2C168.525 50.6613 168.723 49.912 168.723 48.952C168.723 47.9867 168.525 47.2347 168.131 46.696C167.736 46.1573 167.139 45.888 166.339 45.888C165.933 45.888 165.581 45.9573 165.283 46.096C164.984 46.2347 164.733 46.4347 164.531 46.696C164.333 46.9573 164.184 47.28 164.083 47.664C163.987 48.0427 163.939 48.472 163.939 48.952C163.939 49.432 163.987 49.8613 164.083 50.24C164.184 50.6187 164.333 50.9387 164.531 51.2C164.733 51.456 164.984 51.6533 165.283 51.792C165.581 51.9307 165.933 52 166.339 52ZM171.949 53V44.896H172.765C172.92 44.896 173.027 44.9253 173.085 44.984C173.144 45.0427 173.184 45.144 173.205 45.288L173.301 46.552C173.579 45.9867 173.92 45.5467 174.325 45.232C174.736 44.912 175.216 44.752 175.765 44.752C175.989 44.752 176.192 44.7787 176.373 44.832C176.555 44.88 176.723 44.9493 176.877 45.04L176.693 46.104C176.656 46.2373 176.573 46.304 176.445 46.304C176.371 46.304 176.256 46.28 176.101 46.232C175.947 46.1787 175.731 46.152 175.453 46.152C174.957 46.152 174.541 46.296 174.205 46.584C173.875 46.872 173.597 47.2907 173.373 47.84V53H171.949ZM183.952 53.128C183.312 53.128 182.819 52.9493 182.472 52.592C182.131 52.2347 181.96 51.72 181.96 51.048V46.088H180.984C180.899 46.088 180.827 46.064 180.768 46.016C180.709 45.9627 180.68 45.8827 180.68 45.776V45.208L182.008 45.04L182.336 42.536C182.347 42.456 182.381 42.392 182.44 42.344C182.499 42.2907 182.573 42.264 182.664 42.264H183.384V45.056H185.704V46.088H183.384V50.952C183.384 51.2933 183.467 51.5467 183.632 51.712C183.797 51.8773 184.011 51.96 184.272 51.96C184.421 51.96 184.549 51.9413 184.656 51.904C184.768 51.8613 184.864 51.816 184.944 51.768C185.024 51.72 185.091 51.6773 185.144 51.64C185.203 51.5973 185.253 51.576 185.296 51.576C185.371 51.576 185.437 51.6213 185.496 51.712L185.912 52.392C185.667 52.6213 185.371 52.8027 185.024 52.936C184.677 53.064 184.32 53.128 183.952 53.128ZM187.465 53V41.216H188.889V45.984C189.236 45.616 189.62 45.3227 190.041 45.104C190.462 44.88 190.948 44.768 191.497 44.768C191.94 44.768 192.329 44.8427 192.665 44.992C193.006 45.136 193.289 45.344 193.513 45.616C193.742 45.8827 193.916 46.2053 194.033 46.584C194.15 46.9627 194.209 47.3813 194.209 47.84V53H192.785V47.84C192.785 47.2267 192.644 46.752 192.361 46.416C192.084 46.0747 191.657 45.904 191.081 45.904C190.66 45.904 190.265 46.0053 189.897 46.208C189.534 46.4107 189.198 46.6853 188.889 47.032V53H187.465ZM199.564 44.768C200.049 44.768 200.497 44.8507 200.908 45.016C201.318 45.176 201.673 45.4107 201.972 45.72C202.27 46.024 202.502 46.4027 202.668 46.856C202.838 47.304 202.924 47.816 202.924 48.392C202.924 48.616 202.9 48.7653 202.852 48.84C202.804 48.9147 202.713 48.952 202.58 48.952H197.188C197.198 49.464 197.268 49.9093 197.396 50.288C197.524 50.6667 197.7 50.984 197.924 51.24C198.148 51.4907 198.414 51.68 198.724 51.808C199.033 51.9307 199.38 51.992 199.764 51.992C200.121 51.992 200.428 51.952 200.684 51.872C200.945 51.7867 201.169 51.696 201.356 51.6C201.542 51.504 201.697 51.416 201.82 51.336C201.948 51.2507 202.057 51.208 202.148 51.208C202.265 51.208 202.356 51.2533 202.42 51.344L202.82 51.864C202.644 52.0773 202.433 52.264 202.188 52.424C201.942 52.5787 201.678 52.7067 201.396 52.808C201.118 52.9093 200.83 52.984 200.532 53.032C200.233 53.0853 199.937 53.112 199.644 53.112C199.084 53.112 198.566 53.0187 198.092 52.832C197.622 52.64 197.214 52.3627 196.868 52C196.526 51.632 196.26 51.1787 196.068 50.64C195.876 50.1013 195.78 49.4827 195.78 48.784C195.78 48.2187 195.865 47.6907 196.036 47.2C196.212 46.7093 196.462 46.2853 196.788 45.928C197.113 45.5653 197.51 45.2827 197.98 45.08C198.449 44.872 198.977 44.768 199.564 44.768ZM199.595 45.816C198.908 45.816 198.366 46.016 197.972 46.416C197.577 46.8107 197.332 47.36 197.236 48.064H201.644C201.644 47.7333 201.598 47.432 201.508 47.16C201.417 46.8827 201.284 46.6453 201.108 46.448C200.932 46.2453 200.716 46.0907 200.46 45.984C200.209 45.872 199.921 45.816 199.595 45.816ZM211.048 44.768C211.533 44.768 211.981 44.8507 212.392 45.016C212.803 45.176 213.157 45.4107 213.456 45.72C213.755 46.024 213.987 46.4027 214.152 46.856C214.323 47.304 214.408 47.816 214.408 48.392C214.408 48.616 214.384 48.7653 214.336 48.84C214.288 48.9147 214.197 48.952 214.064 48.952H208.672C208.683 49.464 208.752 49.9093 208.88 50.288C209.008 50.6667 209.184 50.984 209.408 51.24C209.632 51.4907 209.899 51.68 210.208 51.808C210.517 51.9307 210.864 51.992 211.248 51.992C211.605 51.992 211.912 51.952 212.168 51.872C212.429 51.7867 212.653 51.696 212.84 51.6C213.027 51.504 213.181 51.416 213.304 51.336C213.432 51.2507 213.541 51.208 213.632 51.208C213.749 51.208 213.84 51.2533 213.904 51.344L214.304 51.864C214.128 52.0773 213.917 52.264 213.672 52.424C213.427 52.5787 213.163 52.7067 212.88 52.808C212.603 52.9093 212.315 52.984 212.016 53.032C211.717 53.0853 211.421 53.112 211.128 53.112C210.568 53.112 210.051 53.0187 209.576 52.832C209.107 52.64 208.699 52.3627 208.352 52C208.011 51.632 207.744 51.1787 207.552 50.64C207.36 50.1013 207.264 49.4827 207.264 48.784C207.264 48.2187 207.349 47.6907 207.52 47.2C207.696 46.7093 207.947 46.2853 208.272 45.928C208.597 45.5653 208.995 45.2827 209.464 45.08C209.933 44.872 210.461 44.768 211.048 44.768ZM211.08 45.816C210.392 45.816 209.851 46.016 209.456 46.416C209.061 46.8107 208.816 47.36 208.72 48.064H213.128C213.128 47.7333 213.083 47.432 212.992 47.16C212.901 46.8827 212.768 46.6453 212.592 46.448C212.416 46.2453 212.2 46.0907 211.944 45.984C211.693 45.872 211.405 45.816 211.08 45.816ZM217.815 41.216V53H216.391V41.216H217.815ZM223.532 44.768C224.018 44.768 224.466 44.8507 224.876 45.016C225.287 45.176 225.642 45.4107 225.94 45.72C226.239 46.024 226.471 46.4027 226.636 46.856C226.807 47.304 226.892 47.816 226.892 48.392C226.892 48.616 226.868 48.7653 226.82 48.84C226.772 48.9147 226.682 48.952 226.548 48.952H221.156C221.167 49.464 221.236 49.9093 221.364 50.288C221.492 50.6667 221.668 50.984 221.892 51.24C222.116 51.4907 222.383 51.68 222.692 51.808C223.002 51.9307 223.348 51.992 223.732 51.992C224.09 51.992 224.396 51.952 224.652 51.872C224.914 51.7867 225.138 51.696 225.324 51.6C225.511 51.504 225.666 51.416 225.788 51.336C225.916 51.2507 226.026 51.208 226.116 51.208C226.234 51.208 226.324 51.2533 226.388 51.344L226.788 51.864C226.612 52.0773 226.402 52.264 226.156 52.424C225.911 52.5787 225.647 52.7067 225.364 52.808C225.087 52.9093 224.799 52.984 224.5 53.032C224.202 53.0853 223.906 53.112 223.612 53.112C223.052 53.112 222.535 53.0187 222.06 52.832C221.591 52.64 221.183 52.3627 220.836 52C220.495 51.632 220.228 51.1787 220.036 50.64C219.844 50.1013 219.748 49.4827 219.748 48.784C219.748 48.2187 219.834 47.6907 220.004 47.2C220.18 46.7093 220.431 46.2853 220.756 45.928C221.082 45.5653 221.479 45.2827 221.948 45.08C222.418 44.872 222.946 44.768 223.532 44.768ZM223.564 45.816C222.876 45.816 222.335 46.016 221.94 46.416C221.546 46.8107 221.3 47.36 221.204 48.064H225.612C225.612 47.7333 225.567 47.432 225.476 47.16C225.386 46.8827 225.252 46.6453 225.076 46.448C224.9 46.2453 224.684 46.0907 224.428 45.984C224.178 45.872 223.89 45.816 223.564 45.816ZM228.715 53V44.896H229.563C229.766 44.896 229.894 44.9947 229.947 45.192L230.051 46.024C230.35 45.656 230.683 45.3547 231.051 45.12C231.424 44.8853 231.856 44.768 232.347 44.768C232.896 44.768 233.339 44.92 233.675 45.224C234.016 45.528 234.262 45.9387 234.411 46.456C234.523 46.1627 234.67 45.9093 234.851 45.696C235.038 45.4827 235.246 45.3067 235.475 45.168C235.704 45.0293 235.947 44.928 236.203 44.864C236.464 44.8 236.728 44.768 236.995 44.768C237.422 44.768 237.8 44.8373 238.131 44.976C238.467 45.1093 238.75 45.3067 238.979 45.568C239.214 45.8293 239.392 46.152 239.515 46.536C239.638 46.9147 239.699 47.3493 239.699 47.84V53H238.275V47.84C238.275 47.2053 238.136 46.7253 237.859 46.4C237.582 46.0693 237.179 45.904 236.651 45.904C236.416 45.904 236.192 45.9467 235.979 46.032C235.771 46.112 235.587 46.232 235.427 46.392C235.267 46.552 235.139 46.7547 235.043 47C234.952 47.24 234.907 47.52 234.907 47.84V53H233.483V47.84C233.483 47.1893 233.352 46.704 233.091 46.384C232.83 46.064 232.448 45.904 231.947 45.904C231.595 45.904 231.267 46 230.963 46.192C230.664 46.3787 230.39 46.6347 230.139 46.96V53H228.715ZM245.064 44.768C245.549 44.768 245.997 44.8507 246.408 45.016C246.818 45.176 247.173 45.4107 247.472 45.72C247.77 46.024 248.002 46.4027 248.168 46.856C248.338 47.304 248.424 47.816 248.424 48.392C248.424 48.616 248.4 48.7653 248.352 48.84C248.304 48.9147 248.213 48.952 248.08 48.952H242.688C242.698 49.464 242.768 49.9093 242.896 50.288C243.024 50.6667 243.2 50.984 243.424 51.24C243.648 51.4907 243.914 51.68 244.224 51.808C244.533 51.9307 244.88 51.992 245.264 51.992C245.621 51.992 245.928 51.952 246.184 51.872C246.445 51.7867 246.669 51.696 246.856 51.6C247.042 51.504 247.197 51.416 247.32 51.336C247.448 51.2507 247.557 51.208 247.648 51.208C247.765 51.208 247.856 51.2533 247.92 51.344L248.32 51.864C248.144 52.0773 247.933 52.264 247.688 52.424C247.442 52.5787 247.178 52.7067 246.896 52.808C246.618 52.9093 246.33 52.984 246.032 53.032C245.733 53.0853 245.437 53.112 245.144 53.112C244.584 53.112 244.066 53.0187 243.592 52.832C243.122 52.64 242.714 52.3627 242.368 52C242.026 51.632 241.76 51.1787 241.568 50.64C241.376 50.1013 241.28 49.4827 241.28 48.784C241.28 48.2187 241.365 47.6907 241.536 47.2C241.712 46.7093 241.962 46.2853 242.288 45.928C242.613 45.5653 243.01 45.2827 243.48 45.08C243.949 44.872 244.477 44.768 245.064 44.768ZM245.095 45.816C244.408 45.816 243.866 46.016 243.472 46.416C243.077 46.8107 242.832 47.36 242.736 48.064H247.144C247.144 47.7333 247.098 47.432 247.008 47.16C246.917 46.8827 246.784 46.6453 246.608 46.448C246.432 46.2453 246.216 46.0907 245.96 45.984C245.709 45.872 245.421 45.816 245.095 45.816ZM250.246 53V44.896H251.094C251.297 44.896 251.425 44.9947 251.478 45.192L251.59 46.072C251.942 45.6827 252.334 45.368 252.766 45.128C253.203 44.888 253.707 44.768 254.278 44.768C254.721 44.768 255.11 44.8427 255.446 44.992C255.787 45.136 256.07 45.344 256.294 45.616C256.523 45.8827 256.697 46.2053 256.814 46.584C256.931 46.9627 256.99 47.3813 256.99 47.84V53H255.566V47.84C255.566 47.2267 255.425 46.752 255.142 46.416C254.865 46.0747 254.438 45.904 253.862 45.904C253.441 45.904 253.046 46.0053 252.678 46.208C252.315 46.4107 251.979 46.6853 251.67 47.032V53H250.246ZM261.593 53.128C260.953 53.128 260.459 52.9493 260.113 52.592C259.771 52.2347 259.601 51.72 259.601 51.048V46.088H258.625C258.539 46.088 258.467 46.064 258.409 46.016C258.35 45.9627 258.321 45.8827 258.321 45.776V45.208L259.649 45.04L259.977 42.536C259.987 42.456 260.022 42.392 260.081 42.344C260.139 42.2907 260.214 42.264 260.305 42.264H261.025V45.056H263.345V46.088H261.025V50.952C261.025 51.2933 261.107 51.5467 261.273 51.712C261.438 51.8773 261.651 51.96 261.913 51.96C262.062 51.96 262.19 51.9413 262.297 51.904C262.409 51.8613 262.505 51.816 262.585 51.768C262.665 51.72 262.731 51.6773 262.785 51.64C262.843 51.5973 262.894 51.576 262.937 51.576C263.011 51.576 263.078 51.6213 263.137 51.712L263.553 52.392C263.307 52.6213 263.011 52.8027 262.665 52.936C262.318 53.064 261.961 53.128 261.593 53.128ZM274.255 48.864H275.991V49.68C275.991 49.7653 275.965 49.8373 275.911 49.896C275.863 49.9547 275.786 49.984 275.679 49.984H274.255V53H272.999V49.984H267.919C267.813 49.984 267.719 49.9547 267.639 49.896C267.565 49.832 267.517 49.7547 267.495 49.664L267.351 48.936L272.927 41.536H274.255V48.864ZM272.999 44.136C272.999 43.9973 273.002 43.848 273.007 43.688C273.018 43.528 273.037 43.3627 273.063 43.192L268.895 48.864H272.999V44.136Z" fill="black"/>
</svg>
