<svg width="405" height="44" viewBox="0 0 405 44" fill="none" xmlns="http://www.w3.org/2000/svg">
<rect x="0.5" y="0.5" width="404" height="43" rx="21.5" stroke="#979797"/>
<rect x="3" y="3" width="125" height="38" rx="19" fill="#2656C9"/>
<path d="M152.264 18.328C152.216 18.408 152.165 18.4693 152.112 18.512C152.059 18.5493 151.989 18.568 151.904 18.568C151.813 18.568 151.707 18.5227 151.584 18.432C151.467 18.3413 151.315 18.2427 151.128 18.136C150.947 18.024 150.725 17.9227 150.464 17.832C150.208 17.7413 149.896 17.696 149.528 17.696C149.181 17.696 148.875 17.744 148.608 17.84C148.341 17.9307 148.117 18.056 147.936 18.216C147.76 18.376 147.627 18.5653 147.536 18.784C147.445 18.9973 147.4 19.2293 147.4 19.48C147.4 19.8 147.477 20.0667 147.632 20.28C147.792 20.488 148 20.6667 148.256 20.816C148.517 20.9653 148.811 21.096 149.136 21.208C149.467 21.3147 149.803 21.4267 150.144 21.544C150.491 21.6613 150.827 21.7947 151.152 21.944C151.483 22.088 151.776 22.272 152.032 22.496C152.293 22.72 152.501 22.9947 152.656 23.32C152.816 23.6453 152.896 24.0453 152.896 24.52C152.896 25.0213 152.811 25.4933 152.64 25.936C152.469 26.3733 152.219 26.7547 151.888 27.08C151.563 27.4053 151.16 27.6613 150.68 27.848C150.205 28.0347 149.664 28.128 149.056 28.128C148.315 28.128 147.637 27.9947 147.024 27.728C146.416 27.456 145.896 27.0907 145.464 26.632L145.912 25.896C145.955 25.8373 146.005 25.7893 146.064 25.752C146.128 25.7093 146.197 25.688 146.272 25.688C146.384 25.688 146.512 25.7493 146.656 25.872C146.8 25.9893 146.979 26.12 147.192 26.264C147.411 26.408 147.672 26.5413 147.976 26.664C148.285 26.7813 148.661 26.84 149.104 26.84C149.472 26.84 149.8 26.7893 150.088 26.688C150.376 26.5867 150.619 26.4453 150.816 26.264C151.019 26.0773 151.173 25.856 151.28 25.6C151.387 25.344 151.44 25.0587 151.44 24.744C151.44 24.3973 151.36 24.1147 151.2 23.896C151.045 23.672 150.84 23.4853 150.584 23.336C150.328 23.1867 150.035 23.0613 149.704 22.96C149.379 22.8533 149.043 22.7467 148.696 22.64C148.355 22.528 148.019 22.4 147.688 22.256C147.363 22.112 147.072 21.9253 146.816 21.696C146.56 21.4667 146.352 21.1813 146.192 20.84C146.037 20.4933 145.96 20.0667 145.96 19.56C145.96 19.1547 146.037 18.7627 146.192 18.384C146.352 18.0053 146.581 17.6693 146.88 17.376C147.179 17.0827 147.547 16.848 147.984 16.672C148.427 16.496 148.933 16.408 149.504 16.408C150.144 16.408 150.728 16.5093 151.256 16.712C151.784 16.9147 152.245 17.208 152.64 17.592L152.264 18.328ZM157.86 19.768C158.346 19.768 158.794 19.8507 159.204 20.016C159.615 20.176 159.97 20.4107 160.268 20.72C160.567 21.024 160.799 21.4027 160.964 21.856C161.135 22.304 161.22 22.816 161.22 23.392C161.22 23.616 161.196 23.7653 161.148 23.84C161.1 23.9147 161.01 23.952 160.876 23.952H155.484C155.495 24.464 155.564 24.9093 155.692 25.288C155.82 25.6667 155.996 25.984 156.22 26.24C156.444 26.4907 156.711 26.68 157.02 26.808C157.33 26.9307 157.676 26.992 158.06 26.992C158.418 26.992 158.724 26.952 158.98 26.872C159.242 26.7867 159.466 26.696 159.652 26.6C159.839 26.504 159.994 26.416 160.116 26.336C160.244 26.2507 160.354 26.208 160.444 26.208C160.562 26.208 160.652 26.2533 160.716 26.344L161.116 26.864C160.94 27.0773 160.73 27.264 160.484 27.424C160.239 27.5787 159.975 27.7067 159.692 27.808C159.415 27.9093 159.127 27.984 158.828 28.032C158.53 28.0853 158.234 28.112 157.94 28.112C157.38 28.112 156.863 28.0187 156.388 27.832C155.919 27.64 155.511 27.3627 155.164 27C154.823 26.632 154.556 26.1787 154.364 25.64C154.172 25.1013 154.076 24.4827 154.076 23.784C154.076 23.2187 154.162 22.6907 154.332 22.2C154.508 21.7093 154.759 21.2853 155.084 20.928C155.41 20.5653 155.807 20.2827 156.276 20.08C156.746 19.872 157.274 19.768 157.86 19.768ZM157.892 20.816C157.204 20.816 156.663 21.016 156.268 21.416C155.874 21.8107 155.628 22.36 155.532 23.064H159.94C159.94 22.7333 159.895 22.432 159.804 22.16C159.714 21.8827 159.58 21.6453 159.404 21.448C159.228 21.2453 159.012 21.0907 158.756 20.984C158.506 20.872 158.218 20.816 157.892 20.816ZM168.571 21.336C168.528 21.3947 168.486 21.44 168.443 21.472C168.4 21.504 168.339 21.52 168.259 21.52C168.179 21.52 168.091 21.488 167.995 21.424C167.904 21.3547 167.787 21.28 167.643 21.2C167.499 21.12 167.323 21.048 167.115 20.984C166.912 20.9147 166.662 20.88 166.363 20.88C165.968 20.88 165.619 20.952 165.315 21.096C165.011 21.2347 164.755 21.4373 164.547 21.704C164.344 21.9707 164.19 22.2933 164.083 22.672C163.982 23.0507 163.931 23.4747 163.931 23.944C163.931 24.4347 163.987 24.872 164.099 25.256C164.211 25.6347 164.368 25.9547 164.571 26.216C164.774 26.472 165.019 26.6693 165.307 26.808C165.6 26.9413 165.928 27.008 166.291 27.008C166.638 27.008 166.923 26.968 167.147 26.888C167.371 26.8027 167.558 26.7093 167.707 26.608C167.856 26.5067 167.979 26.416 168.075 26.336C168.171 26.2507 168.267 26.208 168.363 26.208C168.486 26.208 168.576 26.2533 168.635 26.344L169.035 26.864C168.683 27.296 168.243 27.6133 167.715 27.816C167.187 28.0133 166.63 28.112 166.043 28.112C165.536 28.112 165.064 28.0187 164.627 27.832C164.195 27.6453 163.819 27.376 163.499 27.024C163.179 26.6667 162.926 26.2293 162.739 25.712C162.558 25.1947 162.467 24.6053 162.467 23.944C162.467 23.3413 162.55 22.784 162.715 22.272C162.886 21.76 163.131 21.32 163.451 20.952C163.776 20.5787 164.176 20.288 164.651 20.08C165.126 19.872 165.67 19.768 166.283 19.768C166.848 19.768 167.35 19.8613 167.787 20.048C168.224 20.2293 168.611 20.488 168.947 20.824L168.571 21.336ZM173.792 19.768C174.384 19.768 174.917 19.8667 175.392 20.064C175.872 20.2613 176.277 20.5413 176.608 20.904C176.944 21.2667 177.2 21.7067 177.376 22.224C177.557 22.736 177.648 23.3093 177.648 23.944C177.648 24.584 177.557 25.16 177.376 25.672C177.2 26.184 176.944 26.6213 176.608 26.984C176.277 27.3467 175.872 27.6267 175.392 27.824C174.917 28.016 174.384 28.112 173.792 28.112C173.2 28.112 172.664 28.016 172.184 27.824C171.709 27.6267 171.304 27.3467 170.968 26.984C170.632 26.6213 170.373 26.184 170.192 25.672C170.01 25.16 169.92 24.584 169.92 23.944C169.92 23.3093 170.01 22.736 170.192 22.224C170.373 21.7067 170.632 21.2667 170.968 20.904C171.304 20.5413 171.709 20.2613 172.184 20.064C172.664 19.8667 173.2 19.768 173.792 19.768ZM173.792 27C174.592 27 175.189 26.7333 175.584 26.2C175.978 25.6613 176.176 24.912 176.176 23.952C176.176 22.9867 175.978 22.2347 175.584 21.696C175.189 21.1573 174.592 20.888 173.792 20.888C173.386 20.888 173.034 20.9573 172.736 21.096C172.437 21.2347 172.186 21.4347 171.984 21.696C171.786 21.9573 171.637 22.28 171.536 22.664C171.44 23.0427 171.392 23.472 171.392 23.952C171.392 24.432 171.44 24.8613 171.536 25.24C171.637 25.6187 171.786 25.9387 171.984 26.2C172.186 26.456 172.437 26.6533 172.736 26.792C173.034 26.9307 173.386 27 173.792 27ZM179.402 28V19.896H180.25C180.453 19.896 180.581 19.9947 180.634 20.192L180.746 21.072C181.098 20.6827 181.49 20.368 181.922 20.128C182.36 19.888 182.864 19.768 183.434 19.768C183.877 19.768 184.266 19.8427 184.602 19.992C184.944 20.136 185.226 20.344 185.45 20.616C185.68 20.8827 185.853 21.2053 185.97 21.584C186.088 21.9627 186.146 22.3813 186.146 22.84V28H184.722V22.84C184.722 22.2267 184.581 21.752 184.298 21.416C184.021 21.0747 183.594 20.904 183.018 20.904C182.597 20.904 182.202 21.0053 181.834 21.208C181.472 21.4107 181.136 21.6853 180.826 22.032V28H179.402ZM193.997 28C193.794 28 193.666 27.9013 193.613 27.704L193.485 26.72C193.138 27.1413 192.741 27.48 192.293 27.736C191.85 27.9867 191.341 28.112 190.765 28.112C190.301 28.112 189.88 28.024 189.501 27.848C189.122 27.6667 188.8 27.4027 188.533 27.056C188.266 26.7093 188.061 26.2773 187.917 25.76C187.773 25.2427 187.701 24.648 187.701 23.976C187.701 23.3787 187.781 22.824 187.941 22.312C188.101 21.7947 188.33 21.3467 188.629 20.968C188.933 20.5893 189.301 20.2933 189.733 20.08C190.165 19.8613 190.656 19.752 191.205 19.752C191.701 19.752 192.125 19.8373 192.477 20.008C192.829 20.1733 193.144 20.408 193.421 20.712V16.216H194.845V28H193.997ZM191.237 26.96C191.701 26.96 192.106 26.8533 192.453 26.64C192.805 26.4267 193.128 26.1253 193.421 25.736V21.816C193.16 21.464 192.872 21.2187 192.557 21.08C192.248 20.936 191.904 20.864 191.525 20.864C190.768 20.864 190.186 21.1333 189.781 21.672C189.376 22.2107 189.173 22.9787 189.173 23.976C189.173 24.504 189.218 24.9573 189.309 25.336C189.4 25.7093 189.533 26.0187 189.709 26.264C189.885 26.504 190.101 26.68 190.357 26.792C190.613 26.904 190.906 26.96 191.237 26.96ZM204.964 21.232C204.9 21.3493 204.802 21.408 204.668 21.408C204.588 21.408 204.498 21.3787 204.396 21.32C204.295 21.2613 204.17 21.1973 204.02 21.128C203.876 21.0533 203.703 20.9867 203.5 20.928C203.298 20.864 203.058 20.832 202.78 20.832C202.54 20.832 202.324 20.864 202.132 20.928C201.94 20.9867 201.775 21.0693 201.636 21.176C201.503 21.2827 201.399 21.408 201.324 21.552C201.255 21.6907 201.22 21.8427 201.22 22.008C201.22 22.216 201.279 22.3893 201.396 22.528C201.519 22.6667 201.679 22.7867 201.876 22.888C202.074 22.9893 202.298 23.08 202.548 23.16C202.799 23.2347 203.055 23.3173 203.316 23.408C203.583 23.4933 203.842 23.5893 204.092 23.696C204.343 23.8027 204.567 23.936 204.764 24.096C204.962 24.256 205.119 24.4533 205.236 24.688C205.359 24.9173 205.42 25.1947 205.42 25.52C205.42 25.8933 205.354 26.24 205.22 26.56C205.087 26.8747 204.89 27.1493 204.628 27.384C204.367 27.6133 204.047 27.7947 203.668 27.928C203.29 28.0613 202.852 28.128 202.356 28.128C201.791 28.128 201.279 28.0373 200.82 27.856C200.362 27.6693 199.972 27.432 199.652 27.144L199.988 26.6C200.031 26.5307 200.082 26.4773 200.14 26.44C200.199 26.4027 200.276 26.384 200.372 26.384C200.468 26.384 200.57 26.4213 200.676 26.496C200.783 26.5707 200.911 26.6533 201.06 26.744C201.215 26.8347 201.399 26.9173 201.612 26.992C201.831 27.0667 202.103 27.104 202.428 27.104C202.706 27.104 202.948 27.0693 203.156 27C203.364 26.9253 203.538 26.8267 203.676 26.704C203.815 26.5813 203.916 26.44 203.98 26.28C204.05 26.12 204.084 25.9493 204.084 25.768C204.084 25.544 204.023 25.36 203.9 25.216C203.783 25.0667 203.626 24.9413 203.428 24.84C203.231 24.7333 203.004 24.6427 202.748 24.568C202.498 24.488 202.239 24.4053 201.972 24.32C201.711 24.2347 201.452 24.1387 201.196 24.032C200.946 23.92 200.722 23.7813 200.524 23.616C200.327 23.4507 200.167 23.248 200.044 23.008C199.927 22.7627 199.868 22.4667 199.868 22.12C199.868 21.8107 199.932 21.5147 200.06 21.232C200.188 20.944 200.375 20.6933 200.62 20.48C200.866 20.2613 201.167 20.088 201.524 19.96C201.882 19.832 202.29 19.768 202.748 19.768C203.282 19.768 203.759 19.8533 204.18 20.024C204.607 20.1893 204.975 20.4187 205.284 20.712L204.964 21.232ZM210.47 19.768C210.955 19.768 211.403 19.8507 211.814 20.016C212.224 20.176 212.579 20.4107 212.878 20.72C213.176 21.024 213.408 21.4027 213.574 21.856C213.744 22.304 213.83 22.816 213.83 23.392C213.83 23.616 213.806 23.7653 213.758 23.84C213.71 23.9147 213.619 23.952 213.486 23.952H208.094C208.104 24.464 208.174 24.9093 208.302 25.288C208.43 25.6667 208.606 25.984 208.83 26.24C209.054 26.4907 209.32 26.68 209.63 26.808C209.939 26.9307 210.286 26.992 210.67 26.992C211.027 26.992 211.334 26.952 211.59 26.872C211.851 26.7867 212.075 26.696 212.262 26.6C212.448 26.504 212.603 26.416 212.726 26.336C212.854 26.2507 212.963 26.208 213.054 26.208C213.171 26.208 213.262 26.2533 213.326 26.344L213.726 26.864C213.55 27.0773 213.339 27.264 213.094 27.424C212.848 27.5787 212.584 27.7067 212.302 27.808C212.024 27.9093 211.736 27.984 211.438 28.032C211.139 28.0853 210.843 28.112 210.55 28.112C209.99 28.112 209.472 28.0187 208.998 27.832C208.528 27.64 208.12 27.3627 207.774 27C207.432 26.632 207.166 26.1787 206.974 25.64C206.782 25.1013 206.686 24.4827 206.686 23.784C206.686 23.2187 206.771 22.6907 206.942 22.2C207.118 21.7093 207.368 21.2853 207.694 20.928C208.019 20.5653 208.416 20.2827 208.886 20.08C209.355 19.872 209.883 19.768 210.47 19.768ZM210.502 20.816C209.814 20.816 209.272 21.016 208.878 21.416C208.483 21.8107 208.238 22.36 208.142 23.064H212.55C212.55 22.7333 212.504 22.432 212.414 22.16C212.323 21.8827 212.19 21.6453 212.014 21.448C211.838 21.2453 211.622 21.0907 211.366 20.984C211.115 20.872 210.827 20.816 210.502 20.816ZM221.18 21.336C221.138 21.3947 221.095 21.44 221.052 21.472C221.01 21.504 220.948 21.52 220.868 21.52C220.788 21.52 220.7 21.488 220.604 21.424C220.514 21.3547 220.396 21.28 220.252 21.2C220.108 21.12 219.932 21.048 219.724 20.984C219.522 20.9147 219.271 20.88 218.972 20.88C218.578 20.88 218.228 20.952 217.924 21.096C217.62 21.2347 217.364 21.4373 217.156 21.704C216.954 21.9707 216.799 22.2933 216.692 22.672C216.591 23.0507 216.54 23.4747 216.54 23.944C216.54 24.4347 216.596 24.872 216.708 25.256C216.82 25.6347 216.978 25.9547 217.18 26.216C217.383 26.472 217.628 26.6693 217.916 26.808C218.21 26.9413 218.538 27.008 218.9 27.008C219.247 27.008 219.532 26.968 219.756 26.888C219.98 26.8027 220.167 26.7093 220.316 26.608C220.466 26.5067 220.588 26.416 220.684 26.336C220.78 26.2507 220.876 26.208 220.972 26.208C221.095 26.208 221.186 26.2533 221.244 26.344L221.644 26.864C221.292 27.296 220.852 27.6133 220.324 27.816C219.796 28.0133 219.239 28.112 218.652 28.112C218.146 28.112 217.674 28.0187 217.236 27.832C216.804 27.6453 216.428 27.376 216.108 27.024C215.788 26.6667 215.535 26.2293 215.348 25.712C215.167 25.1947 215.076 24.6053 215.076 23.944C215.076 23.3413 215.159 22.784 215.324 22.272C215.495 21.76 215.74 21.32 216.06 20.952C216.386 20.5787 216.786 20.288 217.26 20.08C217.735 19.872 218.279 19.768 218.892 19.768C219.458 19.768 219.959 19.8613 220.396 20.048C220.834 20.2293 221.22 20.488 221.556 20.824L221.18 21.336ZM225.577 28.128C224.937 28.128 224.444 27.9493 224.097 27.592C223.756 27.2347 223.585 26.72 223.585 26.048V21.088H222.609C222.524 21.088 222.452 21.064 222.393 21.016C222.334 20.9627 222.305 20.8827 222.305 20.776V20.208L223.633 20.04L223.961 17.536C223.972 17.456 224.006 17.392 224.065 17.344C224.124 17.2907 224.198 17.264 224.289 17.264H225.009V20.056H227.329V21.088H225.009V25.952C225.009 26.2933 225.092 26.5467 225.257 26.712C225.422 26.8773 225.636 26.96 225.897 26.96C226.046 26.96 226.174 26.9413 226.281 26.904C226.393 26.8613 226.489 26.816 226.569 26.768C226.649 26.72 226.716 26.6773 226.769 26.64C226.828 26.5973 226.878 26.576 226.921 26.576C226.996 26.576 227.062 26.6213 227.121 26.712L227.537 27.392C227.292 27.6213 226.996 27.8027 226.649 27.936C226.302 28.064 225.945 28.128 225.577 28.128ZM230.674 19.896V28H229.25V19.896H230.674ZM230.994 17.352C230.994 17.4907 230.965 17.6213 230.906 17.744C230.853 17.8613 230.778 17.968 230.682 18.064C230.591 18.1547 230.485 18.2267 230.362 18.28C230.239 18.3333 230.109 18.36 229.97 18.36C229.831 18.36 229.701 18.3333 229.578 18.28C229.461 18.2267 229.354 18.1547 229.258 18.064C229.167 17.968 229.095 17.8613 229.042 17.744C228.989 17.6213 228.962 17.4907 228.962 17.352C228.962 17.2133 228.989 17.0827 229.042 16.96C229.095 16.832 229.167 16.7227 229.258 16.632C229.354 16.536 229.461 16.4613 229.578 16.408C229.701 16.3547 229.831 16.328 229.97 16.328C230.109 16.328 230.239 16.3547 230.362 16.408C230.485 16.4613 230.591 16.536 230.682 16.632C230.778 16.7227 230.853 16.832 230.906 16.96C230.965 17.0827 230.994 17.2133 230.994 17.352ZM236.464 19.768C237.056 19.768 237.589 19.8667 238.064 20.064C238.544 20.2613 238.949 20.5413 239.28 20.904C239.616 21.2667 239.872 21.7067 240.048 22.224C240.229 22.736 240.32 23.3093 240.32 23.944C240.32 24.584 240.229 25.16 240.048 25.672C239.872 26.184 239.616 26.6213 239.28 26.984C238.949 27.3467 238.544 27.6267 238.064 27.824C237.589 28.016 237.056 28.112 236.464 28.112C235.872 28.112 235.336 28.016 234.856 27.824C234.381 27.6267 233.976 27.3467 233.64 26.984C233.304 26.6213 233.045 26.184 232.864 25.672C232.682 25.16 232.592 24.584 232.592 23.944C232.592 23.3093 232.682 22.736 232.864 22.224C233.045 21.7067 233.304 21.2667 233.64 20.904C233.976 20.5413 234.381 20.2613 234.856 20.064C235.336 19.8667 235.872 19.768 236.464 19.768ZM236.464 27C237.264 27 237.861 26.7333 238.256 26.2C238.65 25.6613 238.848 24.912 238.848 23.952C238.848 22.9867 238.65 22.2347 238.256 21.696C237.861 21.1573 237.264 20.888 236.464 20.888C236.058 20.888 235.706 20.9573 235.408 21.096C235.109 21.2347 234.858 21.4347 234.656 21.696C234.458 21.9573 234.309 22.28 234.208 22.664C234.112 23.0427 234.064 23.472 234.064 23.952C234.064 24.432 234.112 24.8613 234.208 25.24C234.309 25.6187 234.458 25.9387 234.656 26.2C234.858 26.456 235.109 26.6533 235.408 26.792C235.706 26.9307 236.058 27 236.464 27ZM242.074 28V19.896H242.922C243.125 19.896 243.253 19.9947 243.306 20.192L243.418 21.072C243.77 20.6827 244.162 20.368 244.594 20.128C245.032 19.888 245.536 19.768 246.106 19.768C246.549 19.768 246.938 19.8427 247.274 19.992C247.616 20.136 247.898 20.344 248.122 20.616C248.352 20.8827 248.525 21.2053 248.642 21.584C248.76 21.9627 248.818 22.3813 248.818 22.84V28H247.394V22.84C247.394 22.2267 247.253 21.752 246.97 21.416C246.693 21.0747 246.266 20.904 245.69 20.904C245.269 20.904 244.874 21.0053 244.506 21.208C244.144 21.4107 243.808 21.6853 243.498 22.032V28H242.074Z" fill="black"/>
<path d="M297.2 16.536V17.84H293.496V28H291.944V17.84H288.224V16.536H297.2ZM298.606 28V16.216H300.03V20.984C300.376 20.616 300.76 20.3227 301.182 20.104C301.603 19.88 302.088 19.768 302.638 19.768C303.08 19.768 303.47 19.8427 303.806 19.992C304.147 20.136 304.43 20.344 304.654 20.616C304.883 20.8827 305.056 21.2053 305.174 21.584C305.291 21.9627 305.35 22.3813 305.35 22.84V28H303.926V22.84C303.926 22.2267 303.784 21.752 303.502 21.416C303.224 21.0747 302.798 20.904 302.222 20.904C301.8 20.904 301.406 21.0053 301.038 21.208C300.675 21.4107 300.339 21.6853 300.03 22.032V28H298.606ZM309.08 19.896V28H307.656V19.896H309.08ZM309.4 17.352C309.4 17.4907 309.371 17.6213 309.312 17.744C309.259 17.8613 309.184 17.968 309.088 18.064C308.997 18.1547 308.891 18.2267 308.768 18.28C308.645 18.3333 308.515 18.36 308.376 18.36C308.237 18.36 308.107 18.3333 307.984 18.28C307.867 18.2267 307.76 18.1547 307.664 18.064C307.573 17.968 307.501 17.8613 307.448 17.744C307.395 17.6213 307.368 17.4907 307.368 17.352C307.368 17.2133 307.395 17.0827 307.448 16.96C307.501 16.832 307.573 16.7227 307.664 16.632C307.76 16.536 307.867 16.4613 307.984 16.408C308.107 16.3547 308.237 16.328 308.376 16.328C308.515 16.328 308.645 16.3547 308.768 16.408C308.891 16.4613 308.997 16.536 309.088 16.632C309.184 16.7227 309.259 16.832 309.312 16.96C309.371 17.0827 309.4 17.2133 309.4 17.352ZM311.59 28V19.896H312.406C312.561 19.896 312.667 19.9253 312.726 19.984C312.785 20.0427 312.825 20.144 312.846 20.288L312.942 21.552C313.219 20.9867 313.561 20.5467 313.966 20.232C314.377 19.912 314.857 19.752 315.406 19.752C315.63 19.752 315.833 19.7787 316.014 19.832C316.195 19.88 316.363 19.9493 316.518 20.04L316.334 21.104C316.297 21.2373 316.214 21.304 316.086 21.304C316.011 21.304 315.897 21.28 315.742 21.232C315.587 21.1787 315.371 21.152 315.094 21.152C314.598 21.152 314.182 21.296 313.846 21.584C313.515 21.872 313.238 22.2907 313.014 22.84V28H311.59ZM323.747 28C323.544 28 323.416 27.9013 323.363 27.704L323.235 26.72C322.888 27.1413 322.491 27.48 322.043 27.736C321.6 27.9867 321.091 28.112 320.515 28.112C320.051 28.112 319.63 28.024 319.251 27.848C318.872 27.6667 318.55 27.4027 318.283 27.056C318.016 26.7093 317.811 26.2773 317.667 25.76C317.523 25.2427 317.451 24.648 317.451 23.976C317.451 23.3787 317.531 22.824 317.691 22.312C317.851 21.7947 318.08 21.3467 318.379 20.968C318.683 20.5893 319.051 20.2933 319.483 20.08C319.915 19.8613 320.406 19.752 320.955 19.752C321.451 19.752 321.875 19.8373 322.227 20.008C322.579 20.1733 322.894 20.408 323.171 20.712V16.216H324.595V28H323.747ZM320.987 26.96C321.451 26.96 321.856 26.8533 322.203 26.64C322.555 26.4267 322.878 26.1253 323.171 25.736V21.816C322.91 21.464 322.622 21.2187 322.307 21.08C321.998 20.936 321.654 20.864 321.275 20.864C320.518 20.864 319.936 21.1333 319.531 21.672C319.126 22.2107 318.923 22.9787 318.923 23.976C318.923 24.504 318.968 24.9573 319.059 25.336C319.15 25.7093 319.283 26.0187 319.459 26.264C319.635 26.504 319.851 26.68 320.107 26.792C320.363 26.904 320.656 26.96 320.987 26.96ZM334.714 21.232C334.65 21.3493 334.552 21.408 334.418 21.408C334.338 21.408 334.248 21.3787 334.146 21.32C334.045 21.2613 333.92 21.1973 333.77 21.128C333.626 21.0533 333.453 20.9867 333.25 20.928C333.048 20.864 332.808 20.832 332.53 20.832C332.29 20.832 332.074 20.864 331.882 20.928C331.69 20.9867 331.525 21.0693 331.386 21.176C331.253 21.2827 331.149 21.408 331.074 21.552C331.005 21.6907 330.97 21.8427 330.97 22.008C330.97 22.216 331.029 22.3893 331.146 22.528C331.269 22.6667 331.429 22.7867 331.626 22.888C331.824 22.9893 332.048 23.08 332.298 23.16C332.549 23.2347 332.805 23.3173 333.066 23.408C333.333 23.4933 333.592 23.5893 333.842 23.696C334.093 23.8027 334.317 23.936 334.514 24.096C334.712 24.256 334.869 24.4533 334.986 24.688C335.109 24.9173 335.17 25.1947 335.17 25.52C335.17 25.8933 335.104 26.24 334.97 26.56C334.837 26.8747 334.64 27.1493 334.378 27.384C334.117 27.6133 333.797 27.7947 333.418 27.928C333.04 28.0613 332.602 28.128 332.106 28.128C331.541 28.128 331.029 28.0373 330.57 27.856C330.112 27.6693 329.722 27.432 329.402 27.144L329.738 26.6C329.781 26.5307 329.832 26.4773 329.89 26.44C329.949 26.4027 330.026 26.384 330.122 26.384C330.218 26.384 330.32 26.4213 330.426 26.496C330.533 26.5707 330.661 26.6533 330.81 26.744C330.965 26.8347 331.149 26.9173 331.362 26.992C331.581 27.0667 331.853 27.104 332.178 27.104C332.456 27.104 332.698 27.0693 332.906 27C333.114 26.9253 333.288 26.8267 333.426 26.704C333.565 26.5813 333.666 26.44 333.73 26.28C333.8 26.12 333.834 25.9493 333.834 25.768C333.834 25.544 333.773 25.36 333.65 25.216C333.533 25.0667 333.376 24.9413 333.178 24.84C332.981 24.7333 332.754 24.6427 332.498 24.568C332.248 24.488 331.989 24.4053 331.722 24.32C331.461 24.2347 331.202 24.1387 330.946 24.032C330.696 23.92 330.472 23.7813 330.274 23.616C330.077 23.4507 329.917 23.248 329.794 23.008C329.677 22.7627 329.618 22.4667 329.618 22.12C329.618 21.8107 329.682 21.5147 329.81 21.232C329.938 20.944 330.125 20.6933 330.37 20.48C330.616 20.2613 330.917 20.088 331.274 19.96C331.632 19.832 332.04 19.768 332.498 19.768C333.032 19.768 333.509 19.8533 333.93 20.024C334.357 20.1893 334.725 20.4187 335.034 20.712L334.714 21.232ZM340.22 19.768C340.705 19.768 341.153 19.8507 341.564 20.016C341.974 20.176 342.329 20.4107 342.628 20.72C342.926 21.024 343.158 21.4027 343.324 21.856C343.494 22.304 343.58 22.816 343.58 23.392C343.58 23.616 343.556 23.7653 343.508 23.84C343.46 23.9147 343.369 23.952 343.236 23.952H337.844C337.854 24.464 337.924 24.9093 338.052 25.288C338.18 25.6667 338.356 25.984 338.58 26.24C338.804 26.4907 339.07 26.68 339.38 26.808C339.689 26.9307 340.036 26.992 340.42 26.992C340.777 26.992 341.084 26.952 341.34 26.872C341.601 26.7867 341.825 26.696 342.012 26.6C342.198 26.504 342.353 26.416 342.476 26.336C342.604 26.2507 342.713 26.208 342.804 26.208C342.921 26.208 343.012 26.2533 343.076 26.344L343.476 26.864C343.3 27.0773 343.089 27.264 342.844 27.424C342.598 27.5787 342.334 27.7067 342.052 27.808C341.774 27.9093 341.486 27.984 341.188 28.032C340.889 28.0853 340.593 28.112 340.3 28.112C339.74 28.112 339.222 28.0187 338.748 27.832C338.278 27.64 337.87 27.3627 337.524 27C337.182 26.632 336.916 26.1787 336.724 25.64C336.532 25.1013 336.436 24.4827 336.436 23.784C336.436 23.2187 336.521 22.6907 336.692 22.2C336.868 21.7093 337.118 21.2853 337.444 20.928C337.769 20.5653 338.166 20.2827 338.636 20.08C339.105 19.872 339.633 19.768 340.22 19.768ZM340.252 20.816C339.564 20.816 339.022 21.016 338.628 21.416C338.233 21.8107 337.988 22.36 337.892 23.064H342.3C342.3 22.7333 342.254 22.432 342.164 22.16C342.073 21.8827 341.94 21.6453 341.764 21.448C341.588 21.2453 341.372 21.0907 341.116 20.984C340.865 20.872 340.577 20.816 340.252 20.816ZM350.93 21.336C350.888 21.3947 350.845 21.44 350.802 21.472C350.76 21.504 350.698 21.52 350.618 21.52C350.538 21.52 350.45 21.488 350.354 21.424C350.264 21.3547 350.146 21.28 350.002 21.2C349.858 21.12 349.682 21.048 349.474 20.984C349.272 20.9147 349.021 20.88 348.722 20.88C348.328 20.88 347.978 20.952 347.674 21.096C347.37 21.2347 347.114 21.4373 346.906 21.704C346.704 21.9707 346.549 22.2933 346.442 22.672C346.341 23.0507 346.29 23.4747 346.29 23.944C346.29 24.4347 346.346 24.872 346.458 25.256C346.57 25.6347 346.728 25.9547 346.93 26.216C347.133 26.472 347.378 26.6693 347.666 26.808C347.96 26.9413 348.288 27.008 348.65 27.008C348.997 27.008 349.282 26.968 349.506 26.888C349.73 26.8027 349.917 26.7093 350.066 26.608C350.216 26.5067 350.338 26.416 350.434 26.336C350.53 26.2507 350.626 26.208 350.722 26.208C350.845 26.208 350.936 26.2533 350.994 26.344L351.394 26.864C351.042 27.296 350.602 27.6133 350.074 27.816C349.546 28.0133 348.989 28.112 348.402 28.112C347.896 28.112 347.424 28.0187 346.986 27.832C346.554 27.6453 346.178 27.376 345.858 27.024C345.538 26.6667 345.285 26.2293 345.098 25.712C344.917 25.1947 344.826 24.6053 344.826 23.944C344.826 23.3413 344.909 22.784 345.074 22.272C345.245 21.76 345.49 21.32 345.81 20.952C346.136 20.5787 346.536 20.288 347.01 20.08C347.485 19.872 348.029 19.768 348.642 19.768C349.208 19.768 349.709 19.8613 350.146 20.048C350.584 20.2293 350.97 20.488 351.306 20.824L350.93 21.336ZM355.327 28.128C354.687 28.128 354.194 27.9493 353.847 27.592C353.506 27.2347 353.335 26.72 353.335 26.048V21.088H352.359C352.274 21.088 352.202 21.064 352.143 21.016C352.084 20.9627 352.055 20.8827 352.055 20.776V20.208L353.383 20.04L353.711 17.536C353.722 17.456 353.756 17.392 353.815 17.344C353.874 17.2907 353.948 17.264 354.039 17.264H354.759V20.056H357.079V21.088H354.759V25.952C354.759 26.2933 354.842 26.5467 355.007 26.712C355.172 26.8773 355.386 26.96 355.647 26.96C355.796 26.96 355.924 26.9413 356.031 26.904C356.143 26.8613 356.239 26.816 356.319 26.768C356.399 26.72 356.466 26.6773 356.519 26.64C356.578 26.5973 356.628 26.576 356.671 26.576C356.746 26.576 356.812 26.6213 356.871 26.712L357.287 27.392C357.042 27.6213 356.746 27.8027 356.399 27.936C356.052 28.064 355.695 28.128 355.327 28.128ZM360.424 19.896V28H359V19.896H360.424ZM360.744 17.352C360.744 17.4907 360.715 17.6213 360.656 17.744C360.603 17.8613 360.528 17.968 360.432 18.064C360.341 18.1547 360.235 18.2267 360.112 18.28C359.989 18.3333 359.859 18.36 359.72 18.36C359.581 18.36 359.451 18.3333 359.328 18.28C359.211 18.2267 359.104 18.1547 359.008 18.064C358.917 17.968 358.845 17.8613 358.792 17.744C358.739 17.6213 358.712 17.4907 358.712 17.352C358.712 17.2133 358.739 17.0827 358.792 16.96C358.845 16.832 358.917 16.7227 359.008 16.632C359.104 16.536 359.211 16.4613 359.328 16.408C359.451 16.3547 359.581 16.328 359.72 16.328C359.859 16.328 359.989 16.3547 360.112 16.408C360.235 16.4613 360.341 16.536 360.432 16.632C360.528 16.7227 360.603 16.832 360.656 16.96C360.715 17.0827 360.744 17.2133 360.744 17.352ZM366.214 19.768C366.806 19.768 367.339 19.8667 367.814 20.064C368.294 20.2613 368.699 20.5413 369.03 20.904C369.366 21.2667 369.622 21.7067 369.798 22.224C369.979 22.736 370.07 23.3093 370.07 23.944C370.07 24.584 369.979 25.16 369.798 25.672C369.622 26.184 369.366 26.6213 369.03 26.984C368.699 27.3467 368.294 27.6267 367.814 27.824C367.339 28.016 366.806 28.112 366.214 28.112C365.622 28.112 365.086 28.016 364.606 27.824C364.131 27.6267 363.726 27.3467 363.39 26.984C363.054 26.6213 362.795 26.184 362.614 25.672C362.432 25.16 362.342 24.584 362.342 23.944C362.342 23.3093 362.432 22.736 362.614 22.224C362.795 21.7067 363.054 21.2667 363.39 20.904C363.726 20.5413 364.131 20.2613 364.606 20.064C365.086 19.8667 365.622 19.768 366.214 19.768ZM366.214 27C367.014 27 367.611 26.7333 368.006 26.2C368.4 25.6613 368.598 24.912 368.598 23.952C368.598 22.9867 368.4 22.2347 368.006 21.696C367.611 21.1573 367.014 20.888 366.214 20.888C365.808 20.888 365.456 20.9573 365.158 21.096C364.859 21.2347 364.608 21.4347 364.406 21.696C364.208 21.9573 364.059 22.28 363.958 22.664C363.862 23.0427 363.814 23.472 363.814 23.952C363.814 24.432 363.862 24.8613 363.958 25.24C364.059 25.6187 364.208 25.9387 364.406 26.2C364.608 26.456 364.859 26.6533 365.158 26.792C365.456 26.9307 365.808 27 366.214 27ZM371.824 28V19.896H372.672C372.875 19.896 373.003 19.9947 373.056 20.192L373.168 21.072C373.52 20.6827 373.912 20.368 374.344 20.128C374.782 19.888 375.286 19.768 375.856 19.768C376.299 19.768 376.688 19.8427 377.024 19.992C377.366 20.136 377.648 20.344 377.872 20.616C378.102 20.8827 378.275 21.2053 378.392 21.584C378.51 21.9627 378.568 22.3813 378.568 22.84V28H377.144V22.84C377.144 22.2267 377.003 21.752 376.72 21.416C376.443 21.0747 376.016 20.904 375.44 20.904C375.019 20.904 374.624 21.0053 374.256 21.208C373.894 21.4107 373.558 21.6853 373.248 22.032V28H371.824Z" fill="black"/>
<path d="M29.456 16.536V17.8H23.952V21.808H28.656V23.072H23.952V28H22.392V16.536H29.456ZM32.8145 19.896V28H31.3905V19.896H32.8145ZM33.1345 17.352C33.1345 17.4907 33.1052 17.6213 33.0465 17.744C32.9932 17.8613 32.9185 17.968 32.8225 18.064C32.7318 18.1547 32.6252 18.2267 32.5025 18.28C32.3798 18.3333 32.2492 18.36 32.1105 18.36C31.9718 18.36 31.8412 18.3333 31.7185 18.28C31.6012 18.2267 31.4945 18.1547 31.3985 18.064C31.3078 17.968 31.2358 17.8613 31.1825 17.744C31.1292 17.6213 31.1025 17.4907 31.1025 17.352C31.1025 17.2133 31.1292 17.0827 31.1825 16.96C31.2358 16.832 31.3078 16.7227 31.3985 16.632C31.4945 16.536 31.6012 16.4613 31.7185 16.408C31.8412 16.3547 31.9718 16.328 32.1105 16.328C32.2492 16.328 32.3798 16.3547 32.5025 16.408C32.6252 16.4613 32.7318 16.536 32.8225 16.632C32.9185 16.7227 32.9932 16.832 33.0465 16.96C33.1052 17.0827 33.1345 17.2133 33.1345 17.352ZM35.3243 28V19.896H36.1403C36.2949 19.896 36.4016 19.9253 36.4603 19.984C36.5189 20.0427 36.5589 20.144 36.5803 20.288L36.6763 21.552C36.9536 20.9867 37.2949 20.5467 37.7003 20.232C38.1109 19.912 38.5909 19.752 39.1403 19.752C39.3643 19.752 39.5669 19.7787 39.7483 19.832C39.9296 19.88 40.0976 19.9493 40.2523 20.04L40.0683 21.104C40.0309 21.2373 39.9483 21.304 39.8203 21.304C39.7456 21.304 39.6309 21.28 39.4763 21.232C39.3216 21.1787 39.1056 21.152 38.8283 21.152C38.3323 21.152 37.9163 21.296 37.5803 21.584C37.2496 21.872 36.9723 22.2907 36.7483 22.84V28H35.3243ZM46.4174 21.232C46.3534 21.3493 46.2547 21.408 46.1214 21.408C46.0414 21.408 45.9507 21.3787 45.8494 21.32C45.748 21.2613 45.6227 21.1973 45.4734 21.128C45.3294 21.0533 45.156 20.9867 44.9534 20.928C44.7507 20.864 44.5107 20.832 44.2334 20.832C43.9934 20.832 43.7774 20.864 43.5854 20.928C43.3934 20.9867 43.228 21.0693 43.0894 21.176C42.956 21.2827 42.852 21.408 42.7774 21.552C42.708 21.6907 42.6734 21.8427 42.6734 22.008C42.6734 22.216 42.732 22.3893 42.8494 22.528C42.972 22.6667 43.132 22.7867 43.3294 22.888C43.5267 22.9893 43.7507 23.08 44.0014 23.16C44.252 23.2347 44.508 23.3173 44.7694 23.408C45.036 23.4933 45.2947 23.5893 45.5454 23.696C45.796 23.8027 46.02 23.936 46.2174 24.096C46.4147 24.256 46.572 24.4533 46.6894 24.688C46.812 24.9173 46.8734 25.1947 46.8734 25.52C46.8734 25.8933 46.8067 26.24 46.6734 26.56C46.54 26.8747 46.3427 27.1493 46.0814 27.384C45.82 27.6133 45.5 27.7947 45.1214 27.928C44.7427 28.0613 44.3054 28.128 43.8094 28.128C43.244 28.128 42.732 28.0373 42.2734 27.856C41.8147 27.6693 41.4254 27.432 41.1054 27.144L41.4414 26.6C41.484 26.5307 41.5347 26.4773 41.5934 26.44C41.652 26.4027 41.7294 26.384 41.8254 26.384C41.9214 26.384 42.0227 26.4213 42.1294 26.496C42.236 26.5707 42.364 26.6533 42.5134 26.744C42.668 26.8347 42.852 26.9173 43.0654 26.992C43.284 27.0667 43.556 27.104 43.8814 27.104C44.1587 27.104 44.4014 27.0693 44.6094 27C44.8174 26.9253 44.9907 26.8267 45.1294 26.704C45.268 26.5813 45.3694 26.44 45.4334 26.28C45.5027 26.12 45.5374 25.9493 45.5374 25.768C45.5374 25.544 45.476 25.36 45.3534 25.216C45.236 25.0667 45.0787 24.9413 44.8814 24.84C44.684 24.7333 44.4574 24.6427 44.2014 24.568C43.9507 24.488 43.692 24.4053 43.4254 24.32C43.164 24.2347 42.9054 24.1387 42.6494 24.032C42.3987 23.92 42.1747 23.7813 41.9774 23.616C41.78 23.4507 41.62 23.248 41.4974 23.008C41.38 22.7627 41.3214 22.4667 41.3214 22.12C41.3214 21.8107 41.3854 21.5147 41.5134 21.232C41.6414 20.944 41.828 20.6933 42.0734 20.48C42.3187 20.2613 42.62 20.088 42.9774 19.96C43.3347 19.832 43.7427 19.768 44.2014 19.768C44.7347 19.768 45.212 19.8533 45.6334 20.024C46.06 20.1893 46.428 20.4187 46.7374 20.712L46.4174 21.232ZM51.1709 28.128C50.5309 28.128 50.0375 27.9493 49.6909 27.592C49.3495 27.2347 49.1789 26.72 49.1789 26.048V21.088H48.2029C48.1175 21.088 48.0455 21.064 47.9869 21.016C47.9282 20.9627 47.8989 20.8827 47.8989 20.776V20.208L49.2269 20.04L49.5549 17.536C49.5655 17.456 49.6002 17.392 49.6589 17.344C49.7175 17.2907 49.7922 17.264 49.8829 17.264H50.6029V20.056H52.9229V21.088H50.6029V25.952C50.6029 26.2933 50.6855 26.5467 50.8509 26.712C51.0162 26.8773 51.2295 26.96 51.4909 26.96C51.6402 26.96 51.7682 26.9413 51.8749 26.904C51.9869 26.8613 52.0829 26.816 52.1629 26.768C52.2429 26.72 52.3095 26.6773 52.3629 26.64C52.4215 26.5973 52.4722 26.576 52.5149 26.576C52.5895 26.576 52.6562 26.6213 52.7149 26.712L53.1309 27.392C52.8855 27.6213 52.5895 27.8027 52.2429 27.936C51.8962 28.064 51.5389 28.128 51.1709 28.128ZM62.4174 21.232C62.3534 21.3493 62.2547 21.408 62.1214 21.408C62.0414 21.408 61.9507 21.3787 61.8494 21.32C61.748 21.2613 61.6227 21.1973 61.4734 21.128C61.3294 21.0533 61.156 20.9867 60.9534 20.928C60.7507 20.864 60.5107 20.832 60.2334 20.832C59.9934 20.832 59.7774 20.864 59.5854 20.928C59.3934 20.9867 59.228 21.0693 59.0894 21.176C58.956 21.2827 58.852 21.408 58.7774 21.552C58.708 21.6907 58.6734 21.8427 58.6734 22.008C58.6734 22.216 58.732 22.3893 58.8494 22.528C58.972 22.6667 59.132 22.7867 59.3294 22.888C59.5267 22.9893 59.7507 23.08 60.0014 23.16C60.252 23.2347 60.508 23.3173 60.7694 23.408C61.036 23.4933 61.2947 23.5893 61.5454 23.696C61.796 23.8027 62.02 23.936 62.2174 24.096C62.4147 24.256 62.572 24.4533 62.6894 24.688C62.812 24.9173 62.8734 25.1947 62.8734 25.52C62.8734 25.8933 62.8067 26.24 62.6734 26.56C62.54 26.8747 62.3427 27.1493 62.0814 27.384C61.82 27.6133 61.5 27.7947 61.1214 27.928C60.7427 28.0613 60.3054 28.128 59.8094 28.128C59.244 28.128 58.732 28.0373 58.2734 27.856C57.8147 27.6693 57.4254 27.432 57.1054 27.144L57.4414 26.6C57.484 26.5307 57.5347 26.4773 57.5934 26.44C57.652 26.4027 57.7294 26.384 57.8254 26.384C57.9214 26.384 58.0227 26.4213 58.1294 26.496C58.236 26.5707 58.364 26.6533 58.5134 26.744C58.668 26.8347 58.852 26.9173 59.0654 26.992C59.284 27.0667 59.556 27.104 59.8814 27.104C60.1587 27.104 60.4014 27.0693 60.6094 27C60.8174 26.9253 60.9907 26.8267 61.1294 26.704C61.268 26.5813 61.3694 26.44 61.4334 26.28C61.5027 26.12 61.5374 25.9493 61.5374 25.768C61.5374 25.544 61.476 25.36 61.3534 25.216C61.236 25.0667 61.0787 24.9413 60.8814 24.84C60.684 24.7333 60.4574 24.6427 60.2014 24.568C59.9507 24.488 59.692 24.4053 59.4254 24.32C59.164 24.2347 58.9054 24.1387 58.6494 24.032C58.3987 23.92 58.1747 23.7813 57.9774 23.616C57.78 23.4507 57.62 23.248 57.4974 23.008C57.38 22.7627 57.3214 22.4667 57.3214 22.12C57.3214 21.8107 57.3854 21.5147 57.5134 21.232C57.6414 20.944 57.828 20.6933 58.0734 20.48C58.3187 20.2613 58.62 20.088 58.9774 19.96C59.3347 19.832 59.7427 19.768 60.2014 19.768C60.7347 19.768 61.212 19.8533 61.6334 20.024C62.06 20.1893 62.428 20.4187 62.7374 20.712L62.4174 21.232ZM67.9229 19.768C68.4082 19.768 68.8562 19.8507 69.2669 20.016C69.6775 20.176 70.0322 20.4107 70.3309 20.72C70.6295 21.024 70.8615 21.4027 71.0269 21.856C71.1975 22.304 71.2829 22.816 71.2829 23.392C71.2829 23.616 71.2589 23.7653 71.2109 23.84C71.1629 23.9147 71.0722 23.952 70.9389 23.952H65.5469C65.5575 24.464 65.6269 24.9093 65.7549 25.288C65.8829 25.6667 66.0589 25.984 66.2829 26.24C66.5069 26.4907 66.7735 26.68 67.0829 26.808C67.3922 26.9307 67.7389 26.992 68.1229 26.992C68.4802 26.992 68.7869 26.952 69.0429 26.872C69.3042 26.7867 69.5282 26.696 69.7149 26.6C69.9015 26.504 70.0562 26.416 70.1789 26.336C70.3069 26.2507 70.4162 26.208 70.5069 26.208C70.6242 26.208 70.7149 26.2533 70.7789 26.344L71.1789 26.864C71.0029 27.0773 70.7922 27.264 70.5469 27.424C70.3015 27.5787 70.0375 27.7067 69.7549 27.808C69.4775 27.9093 69.1895 27.984 68.8909 28.032C68.5922 28.0853 68.2962 28.112 68.0029 28.112C67.4429 28.112 66.9255 28.0187 66.4509 27.832C65.9815 27.64 65.5735 27.3627 65.2269 27C64.8855 26.632 64.6189 26.1787 64.4269 25.64C64.2349 25.1013 64.1389 24.4827 64.1389 23.784C64.1389 23.2187 64.2242 22.6907 64.3949 22.2C64.5709 21.7093 64.8215 21.2853 65.1469 20.928C65.4722 20.5653 65.8695 20.2827 66.3389 20.08C66.8082 19.872 67.3362 19.768 67.9229 19.768ZM67.9549 20.816C67.2669 20.816 66.7255 21.016 66.3309 21.416C65.9362 21.8107 65.6909 22.36 65.5949 23.064H70.0029C70.0029 22.7333 69.9575 22.432 69.8669 22.16C69.7762 21.8827 69.6429 21.6453 69.4669 21.448C69.2909 21.2453 69.0749 21.0907 68.8189 20.984C68.5682 20.872 68.2802 20.816 67.9549 20.816ZM78.6335 21.336C78.5908 21.3947 78.5482 21.44 78.5055 21.472C78.4628 21.504 78.4015 21.52 78.3215 21.52C78.2415 21.52 78.1535 21.488 78.0575 21.424C77.9668 21.3547 77.8495 21.28 77.7055 21.2C77.5615 21.12 77.3855 21.048 77.1775 20.984C76.9748 20.9147 76.7242 20.88 76.4255 20.88C76.0308 20.88 75.6815 20.952 75.3775 21.096C75.0735 21.2347 74.8175 21.4373 74.6095 21.704C74.4068 21.9707 74.2522 22.2933 74.1455 22.672C74.0442 23.0507 73.9935 23.4747 73.9935 23.944C73.9935 24.4347 74.0495 24.872 74.1615 25.256C74.2735 25.6347 74.4308 25.9547 74.6335 26.216C74.8362 26.472 75.0815 26.6693 75.3695 26.808C75.6628 26.9413 75.9908 27.008 76.3535 27.008C76.7002 27.008 76.9855 26.968 77.2095 26.888C77.4335 26.8027 77.6202 26.7093 77.7695 26.608C77.9188 26.5067 78.0415 26.416 78.1375 26.336C78.2335 26.2507 78.3295 26.208 78.4255 26.208C78.5482 26.208 78.6388 26.2533 78.6975 26.344L79.0975 26.864C78.7455 27.296 78.3055 27.6133 77.7775 27.816C77.2495 28.0133 76.6922 28.112 76.1055 28.112C75.5988 28.112 75.1268 28.0187 74.6895 27.832C74.2575 27.6453 73.8815 27.376 73.5615 27.024C73.2415 26.6667 72.9882 26.2293 72.8015 25.712C72.6202 25.1947 72.5295 24.6053 72.5295 23.944C72.5295 23.3413 72.6122 22.784 72.7775 22.272C72.9482 21.76 73.1935 21.32 73.5135 20.952C73.8388 20.5787 74.2388 20.288 74.7135 20.08C75.1882 19.872 75.7322 19.768 76.3455 19.768C76.9108 19.768 77.4122 19.8613 77.8495 20.048C78.2868 20.2293 78.6735 20.488 79.0095 20.824L78.6335 21.336ZM83.0303 28.128C82.3903 28.128 81.8969 27.9493 81.5503 27.592C81.2089 27.2347 81.0383 26.72 81.0383 26.048V21.088H80.0623C79.9769 21.088 79.9049 21.064 79.8463 21.016C79.7876 20.9627 79.7583 20.8827 79.7583 20.776V20.208L81.0863 20.04L81.4143 17.536C81.4249 17.456 81.4596 17.392 81.5182 17.344C81.5769 17.2907 81.6516 17.264 81.7423 17.264H82.4623V20.056H84.7823V21.088H82.4623V25.952C82.4623 26.2933 82.5449 26.5467 82.7103 26.712C82.8756 26.8773 83.0889 26.96 83.3503 26.96C83.4996 26.96 83.6276 26.9413 83.7343 26.904C83.8463 26.8613 83.9423 26.816 84.0223 26.768C84.1023 26.72 84.1689 26.6773 84.2223 26.64C84.2809 26.5973 84.3316 26.576 84.3743 26.576C84.4489 26.576 84.5156 26.6213 84.5743 26.712L84.9903 27.392C84.7449 27.6213 84.4489 27.8027 84.1023 27.936C83.7556 28.064 83.3983 28.128 83.0303 28.128ZM88.127 19.896V28H86.703V19.896H88.127ZM88.447 17.352C88.447 17.4907 88.4177 17.6213 88.359 17.744C88.3057 17.8613 88.231 17.968 88.135 18.064C88.0443 18.1547 87.9377 18.2267 87.815 18.28C87.6923 18.3333 87.5617 18.36 87.423 18.36C87.2843 18.36 87.1537 18.3333 87.031 18.28C86.9137 18.2267 86.807 18.1547 86.711 18.064C86.6203 17.968 86.5483 17.8613 86.495 17.744C86.4417 17.6213 86.415 17.4907 86.415 17.352C86.415 17.2133 86.4417 17.0827 86.495 16.96C86.5483 16.832 86.6203 16.7227 86.711 16.632C86.807 16.536 86.9137 16.4613 87.031 16.408C87.1537 16.3547 87.2843 16.328 87.423 16.328C87.5617 16.328 87.6923 16.3547 87.815 16.408C87.9377 16.4613 88.0443 16.536 88.135 16.632C88.231 16.7227 88.3057 16.832 88.359 16.96C88.4177 17.0827 88.447 17.2133 88.447 17.352ZM93.9168 19.768C94.5088 19.768 95.0421 19.8667 95.5168 20.064C95.9968 20.2613 96.4021 20.5413 96.7328 20.904C97.0688 21.2667 97.3248 21.7067 97.5008 22.224C97.6821 22.736 97.7728 23.3093 97.7728 23.944C97.7728 24.584 97.6821 25.16 97.5008 25.672C97.3248 26.184 97.0688 26.6213 96.7328 26.984C96.4021 27.3467 95.9968 27.6267 95.5168 27.824C95.0421 28.016 94.5088 28.112 93.9168 28.112C93.3248 28.112 92.7888 28.016 92.3088 27.824C91.8341 27.6267 91.4288 27.3467 91.0928 26.984C90.7568 26.6213 90.4981 26.184 90.3168 25.672C90.1354 25.16 90.0448 24.584 90.0448 23.944C90.0448 23.3093 90.1354 22.736 90.3168 22.224C90.4981 21.7067 90.7568 21.2667 91.0928 20.904C91.4288 20.5413 91.8341 20.2613 92.3088 20.064C92.7888 19.8667 93.3248 19.768 93.9168 19.768ZM93.9168 27C94.7168 27 95.3141 26.7333 95.7088 26.2C96.1034 25.6613 96.3008 24.912 96.3008 23.952C96.3008 22.9867 96.1034 22.2347 95.7088 21.696C95.3141 21.1573 94.7168 20.888 93.9168 20.888C93.5114 20.888 93.1594 20.9573 92.8608 21.096C92.5621 21.2347 92.3114 21.4347 92.1088 21.696C91.9114 21.9573 91.7621 22.28 91.6608 22.664C91.5648 23.0427 91.5168 23.472 91.5168 23.952C91.5168 24.432 91.5648 24.8613 91.6608 25.24C91.7621 25.6187 91.9114 25.9387 92.1088 26.2C92.3114 26.456 92.5621 26.6533 92.8608 26.792C93.1594 26.9307 93.5114 27 93.9168 27ZM99.5274 28V19.896H100.375C100.578 19.896 100.706 19.9947 100.759 20.192L100.871 21.072C101.223 20.6827 101.615 20.368 102.047 20.128C102.485 19.888 102.989 19.768 103.559 19.768C104.002 19.768 104.391 19.8427 104.727 19.992C105.069 20.136 105.351 20.344 105.575 20.616C105.805 20.8827 105.978 21.2053 106.095 21.584C106.213 21.9627 106.271 22.3813 106.271 22.84V28H104.847V22.84C104.847 22.2267 104.706 21.752 104.423 21.416C104.146 21.0747 103.719 20.904 103.143 20.904C102.722 20.904 102.327 21.0053 101.959 21.208C101.597 21.4107 101.261 21.6853 100.951 22.032V28H99.5274Z" fill="white"/>
</svg>
