<svg width="800" height="530" viewBox="0 0 800 530" fill="none" xmlns="http://www.w3.org/2000/svg">
<path d="M0 530H800V0H0V530Z" fill="#5F5F5F"/>
<path d="M0 20H800V0H0V20Z" fill="#DFDFDF"/>
<path d="M0 50H800V20H0V50Z" fill="#171717"/>
<rect x="485" y="50" width="315" height="480" fill="white"/>
<rect x="512" y="133" width="118" height="10" fill="#686868"/>
<rect x="512" y="154" width="264" height="32" fill="#D1D1D1"/>
<rect x="512" y="213" width="118" height="10" fill="#686868"/>
<rect x="512" y="234" width="264" height="32" fill="#D1D1D1"/>
<rect x="512" y="293" width="118" height="10" fill="#686868"/>
<rect x="512" y="314" width="264" height="32" fill="#D1D1D1"/>
<rect x="512" y="373" width="118" height="10" fill="#686868"/>
<rect x="512" y="394" width="264" height="32" fill="#D1D1D1"/>
<rect x="526.5" y="73.5" width="235" height="31" rx="15.5" stroke="#979797"/>
<rect x="529" y="76" width="111" height="26" rx="13" fill="#2656C9"/>
<path d="M658.007 85.537C657.965 85.607 657.921 85.6607 657.874 85.698C657.828 85.7307 657.767 85.747 657.692 85.747C657.613 85.747 657.52 85.7073 657.412 85.628C657.31 85.5487 657.177 85.4623 657.013 85.369C656.855 85.271 656.661 85.1823 656.432 85.103C656.208 85.0237 655.935 84.984 655.613 84.984C655.31 84.984 655.042 85.026 654.808 85.11C654.575 85.1893 654.379 85.299 654.22 85.439C654.066 85.579 653.95 85.7447 653.87 85.936C653.791 86.1227 653.751 86.3257 653.751 86.545C653.751 86.825 653.819 87.0583 653.954 87.245C654.094 87.427 654.276 87.5833 654.5 87.714C654.729 87.8447 654.986 87.959 655.27 88.057C655.56 88.1503 655.854 88.2483 656.152 88.351C656.456 88.4537 656.75 88.5703 657.034 88.701C657.324 88.827 657.58 88.988 657.804 89.184C658.033 89.38 658.215 89.6203 658.35 89.905C658.49 90.1897 658.56 90.5397 658.56 90.955C658.56 91.3937 658.486 91.8067 658.336 92.194C658.187 92.5767 657.968 92.9103 657.678 93.195C657.394 93.4797 657.041 93.7037 656.621 93.867C656.206 94.0303 655.732 94.112 655.2 94.112C654.552 94.112 653.959 93.9953 653.422 93.762C652.89 93.524 652.435 93.2043 652.057 92.803L652.449 92.159C652.487 92.1077 652.531 92.0657 652.582 92.033C652.638 91.9957 652.699 91.977 652.764 91.977C652.862 91.977 652.974 92.0307 653.1 92.138C653.226 92.2407 653.383 92.355 653.569 92.481C653.761 92.607 653.989 92.7237 654.255 92.831C654.526 92.9337 654.855 92.985 655.242 92.985C655.564 92.985 655.851 92.9407 656.103 92.852C656.355 92.7633 656.568 92.6397 656.74 92.481C656.918 92.3177 657.053 92.124 657.146 91.9C657.24 91.676 657.286 91.4263 657.286 91.151C657.286 90.8477 657.216 90.6003 657.076 90.409C656.941 90.213 656.761 90.0497 656.537 89.919C656.313 89.7883 656.057 89.6787 655.767 89.59C655.483 89.4967 655.189 89.4033 654.885 89.31C654.587 89.212 654.293 89.1 654.003 88.974C653.719 88.848 653.464 88.6847 653.24 88.484C653.016 88.2833 652.834 88.0337 652.694 87.735C652.559 87.4317 652.491 87.0583 652.491 86.615C652.491 86.2603 652.559 85.9173 652.694 85.586C652.834 85.2547 653.035 84.9607 653.296 84.704C653.558 84.4473 653.88 84.242 654.262 84.088C654.65 83.934 655.093 83.857 655.592 83.857C656.152 83.857 656.663 83.9457 657.125 84.123C657.587 84.3003 657.991 84.557 658.336 84.893L658.007 85.537ZM662.904 86.797C663.329 86.797 663.721 86.8693 664.08 87.014C664.44 87.154 664.75 87.3593 665.011 87.63C665.273 87.896 665.476 88.2273 665.62 88.624C665.77 89.016 665.844 89.464 665.844 89.968C665.844 90.164 665.823 90.2947 665.781 90.36C665.739 90.4253 665.66 90.458 665.543 90.458H660.825C660.835 90.906 660.895 91.2957 661.007 91.627C661.119 91.9583 661.273 92.236 661.469 92.46C661.665 92.6793 661.899 92.845 662.169 92.957C662.44 93.0643 662.743 93.118 663.079 93.118C663.392 93.118 663.66 93.083 663.884 93.013C664.113 92.9383 664.309 92.859 664.472 92.775C664.636 92.691 664.771 92.614 664.878 92.544C664.99 92.4693 665.086 92.432 665.165 92.432C665.268 92.432 665.347 92.4717 665.403 92.551L665.753 93.006C665.599 93.1927 665.415 93.356 665.2 93.496C664.986 93.6313 664.755 93.7433 664.507 93.832C664.265 93.9207 664.013 93.986 663.751 94.028C663.49 94.0747 663.231 94.098 662.974 94.098C662.484 94.098 662.032 94.0163 661.616 93.853C661.206 93.685 660.849 93.4423 660.545 93.125C660.247 92.803 660.013 92.4063 659.845 91.935C659.677 91.4637 659.593 90.9223 659.593 90.311C659.593 89.8163 659.668 89.3543 659.817 88.925C659.971 88.4957 660.191 88.1247 660.475 87.812C660.76 87.4947 661.108 87.2473 661.518 87.07C661.929 86.888 662.391 86.797 662.904 86.797ZM662.932 87.714C662.33 87.714 661.857 87.889 661.511 88.239C661.166 88.5843 660.951 89.065 660.867 89.681H664.724C664.724 89.3917 664.685 89.128 664.605 88.89C664.526 88.6473 664.409 88.4397 664.255 88.267C664.101 88.0897 663.912 87.9543 663.688 87.861C663.469 87.763 663.217 87.714 662.932 87.714ZM672.276 88.169C672.239 88.2203 672.201 88.26 672.164 88.288C672.127 88.316 672.073 88.33 672.003 88.33C671.933 88.33 671.856 88.302 671.772 88.246C671.693 88.1853 671.59 88.12 671.464 88.05C671.338 87.98 671.184 87.917 671.002 87.861C670.825 87.8003 670.605 87.77 670.344 87.77C669.999 87.77 669.693 87.833 669.427 87.959C669.161 88.0803 668.937 88.2577 668.755 88.491C668.578 88.7243 668.442 89.0067 668.349 89.338C668.26 89.6693 668.216 90.0403 668.216 90.451C668.216 90.8803 668.265 91.263 668.363 91.599C668.461 91.9303 668.599 92.2103 668.776 92.439C668.953 92.663 669.168 92.8357 669.42 92.957C669.677 93.0737 669.964 93.132 670.281 93.132C670.584 93.132 670.834 93.097 671.03 93.027C671.226 92.9523 671.389 92.8707 671.52 92.782C671.651 92.6933 671.758 92.614 671.842 92.544C671.926 92.4693 672.01 92.432 672.094 92.432C672.201 92.432 672.281 92.4717 672.332 92.551L672.682 93.006C672.374 93.384 671.989 93.6617 671.527 93.839C671.065 94.0117 670.577 94.098 670.064 94.098C669.621 94.098 669.208 94.0163 668.825 93.853C668.447 93.6897 668.118 93.454 667.838 93.146C667.558 92.8333 667.336 92.4507 667.173 91.998C667.014 91.5453 666.935 91.0297 666.935 90.451C666.935 89.9237 667.007 89.436 667.152 88.988C667.301 88.54 667.516 88.155 667.796 87.833C668.081 87.5063 668.431 87.252 668.846 87.07C669.261 86.888 669.737 86.797 670.274 86.797C670.769 86.797 671.207 86.8787 671.59 87.042C671.973 87.2007 672.311 87.427 672.605 87.721L672.276 88.169ZM676.844 86.797C677.362 86.797 677.829 86.8833 678.244 87.056C678.664 87.2287 679.019 87.4737 679.308 87.791C679.602 88.1083 679.826 88.4933 679.98 88.946C680.139 89.394 680.218 89.8957 680.218 90.451C680.218 91.011 680.139 91.515 679.98 91.963C679.826 92.411 679.602 92.7937 679.308 93.111C679.019 93.4283 678.664 93.6733 678.244 93.846C677.829 94.014 677.362 94.098 676.844 94.098C676.326 94.098 675.857 94.014 675.437 93.846C675.022 93.6733 674.667 93.4283 674.373 93.111C674.079 92.7937 673.853 92.411 673.694 91.963C673.535 91.515 673.456 91.011 673.456 90.451C673.456 89.8957 673.535 89.394 673.694 88.946C673.853 88.4933 674.079 88.1083 674.373 87.791C674.667 87.4737 675.022 87.2287 675.437 87.056C675.857 86.8833 676.326 86.797 676.844 86.797ZM676.844 93.125C677.544 93.125 678.067 92.8917 678.412 92.425C678.757 91.9537 678.93 91.298 678.93 90.458C678.93 89.6133 678.757 88.9553 678.412 88.484C678.067 88.0127 677.544 87.777 676.844 87.777C676.489 87.777 676.181 87.8377 675.92 87.959C675.659 88.0803 675.439 88.2553 675.262 88.484C675.089 88.7127 674.959 88.995 674.87 89.331C674.786 89.6623 674.744 90.038 674.744 90.458C674.744 90.878 674.786 91.2537 674.87 91.585C674.959 91.9163 675.089 92.1963 675.262 92.425C675.439 92.649 675.659 92.8217 675.92 92.943C676.181 93.0643 676.489 93.125 676.844 93.125ZM681.753 94V86.909H682.495C682.673 86.909 682.785 86.9953 682.831 87.168L682.929 87.938C683.237 87.5973 683.58 87.322 683.958 87.112C684.341 86.902 684.782 86.797 685.281 86.797C685.669 86.797 686.009 86.8623 686.303 86.993C686.602 87.119 686.849 87.301 687.045 87.539C687.246 87.7723 687.398 88.0547 687.5 88.386C687.603 88.7173 687.654 89.0837 687.654 89.485V94H686.408V89.485C686.408 88.9483 686.285 88.533 686.037 88.239C685.795 87.9403 685.421 87.791 684.917 87.791C684.549 87.791 684.203 87.8797 683.881 88.057C683.564 88.2343 683.27 88.4747 682.999 88.778V94H681.753ZM694.524 94C694.346 94 694.234 93.9137 694.188 93.741L694.076 92.88C693.772 93.2487 693.425 93.545 693.033 93.769C692.645 93.9883 692.2 94.098 691.696 94.098C691.29 94.098 690.921 94.021 690.59 93.867C690.258 93.7083 689.976 93.4773 689.743 93.174C689.509 92.8707 689.33 92.4927 689.204 92.04C689.078 91.5873 689.015 91.067 689.015 90.479C689.015 89.9563 689.085 89.471 689.225 89.023C689.365 88.5703 689.565 88.1783 689.827 87.847C690.093 87.5157 690.415 87.2567 690.793 87.07C691.171 86.8787 691.6 86.783 692.081 86.783C692.515 86.783 692.886 86.8577 693.194 87.007C693.502 87.1517 693.777 87.357 694.02 87.623V83.689H695.266V94H694.524ZM692.109 93.09C692.515 93.09 692.869 92.9967 693.173 92.81C693.481 92.6233 693.763 92.3597 694.02 92.019V88.589C693.791 88.281 693.539 88.0663 693.264 87.945C692.993 87.819 692.692 87.756 692.361 87.756C691.698 87.756 691.189 87.9917 690.835 88.463C690.48 88.9343 690.303 89.6063 690.303 90.479C690.303 90.941 690.342 91.3377 690.422 91.669C690.501 91.9957 690.618 92.2663 690.772 92.481C690.926 92.691 691.115 92.845 691.339 92.943C691.563 93.041 691.819 93.09 692.109 93.09ZM704.12 88.078C704.064 88.1807 703.978 88.232 703.861 88.232C703.791 88.232 703.712 88.2063 703.623 88.155C703.534 88.1037 703.425 88.0477 703.294 87.987C703.168 87.9217 703.016 87.8633 702.839 87.812C702.662 87.756 702.452 87.728 702.209 87.728C701.999 87.728 701.81 87.756 701.642 87.812C701.474 87.8633 701.329 87.9357 701.208 88.029C701.091 88.1223 701 88.232 700.935 88.358C700.874 88.4793 700.844 88.6123 700.844 88.757C700.844 88.939 700.895 89.0907 700.998 89.212C701.105 89.3333 701.245 89.4383 701.418 89.527C701.591 89.6157 701.787 89.695 702.006 89.765C702.225 89.8303 702.449 89.9027 702.678 89.982C702.911 90.0567 703.138 90.1407 703.357 90.234C703.576 90.3273 703.772 90.444 703.945 90.584C704.118 90.724 704.255 90.8967 704.358 91.102C704.465 91.3027 704.519 91.5453 704.519 91.83C704.519 92.1567 704.461 92.46 704.344 92.74C704.227 93.0153 704.055 93.2557 703.826 93.461C703.597 93.6617 703.317 93.8203 702.986 93.937C702.655 94.0537 702.272 94.112 701.838 94.112C701.343 94.112 700.895 94.0327 700.494 93.874C700.093 93.7107 699.752 93.503 699.472 93.251L699.766 92.775C699.803 92.7143 699.848 92.6677 699.899 92.635C699.95 92.6023 700.018 92.586 700.102 92.586C700.186 92.586 700.275 92.6187 700.368 92.684C700.461 92.7493 700.573 92.8217 700.704 92.901C700.839 92.9803 701 93.0527 701.187 93.118C701.378 93.1833 701.616 93.216 701.901 93.216C702.144 93.216 702.356 93.1857 702.538 93.125C702.72 93.0597 702.872 92.9733 702.993 92.866C703.114 92.7587 703.203 92.635 703.259 92.495C703.32 92.355 703.35 92.2057 703.35 92.047C703.35 91.851 703.296 91.69 703.189 91.564C703.086 91.4333 702.949 91.3237 702.776 91.235C702.603 91.1417 702.405 91.0623 702.181 90.997C701.962 90.927 701.735 90.8547 701.502 90.78C701.273 90.7053 701.047 90.6213 700.823 90.528C700.604 90.43 700.408 90.3087 700.235 90.164C700.062 90.0193 699.922 89.842 699.815 89.632C699.712 89.4173 699.661 89.1583 699.661 88.855C699.661 88.5843 699.717 88.3253 699.829 88.078C699.941 87.826 700.104 87.6067 700.319 87.42C700.534 87.2287 700.797 87.077 701.11 86.965C701.423 86.853 701.78 86.797 702.181 86.797C702.648 86.797 703.065 86.8717 703.434 87.021C703.807 87.1657 704.129 87.3663 704.4 87.623L704.12 88.078ZM708.937 86.797C709.362 86.797 709.754 86.8693 710.113 87.014C710.473 87.154 710.783 87.3593 711.044 87.63C711.306 87.896 711.509 88.2273 711.653 88.624C711.803 89.016 711.877 89.464 711.877 89.968C711.877 90.164 711.856 90.2947 711.814 90.36C711.772 90.4253 711.693 90.458 711.576 90.458H706.858C706.868 90.906 706.928 91.2957 707.04 91.627C707.152 91.9583 707.306 92.236 707.502 92.46C707.698 92.6793 707.932 92.845 708.202 92.957C708.473 93.0643 708.776 93.118 709.112 93.118C709.425 93.118 709.693 93.083 709.917 93.013C710.146 92.9383 710.342 92.859 710.505 92.775C710.669 92.691 710.804 92.614 710.911 92.544C711.023 92.4693 711.119 92.432 711.198 92.432C711.301 92.432 711.38 92.4717 711.436 92.551L711.786 93.006C711.632 93.1927 711.448 93.356 711.233 93.496C711.019 93.6313 710.788 93.7433 710.54 93.832C710.298 93.9207 710.046 93.986 709.784 94.028C709.523 94.0747 709.264 94.098 709.007 94.098C708.517 94.098 708.065 94.0163 707.649 93.853C707.239 93.685 706.882 93.4423 706.578 93.125C706.28 92.803 706.046 92.4063 705.878 91.935C705.71 91.4637 705.626 90.9223 705.626 90.311C705.626 89.8163 705.701 89.3543 705.85 88.925C706.004 88.4957 706.224 88.1247 706.508 87.812C706.793 87.4947 707.141 87.2473 707.551 87.07C707.962 86.888 708.424 86.797 708.937 86.797ZM708.965 87.714C708.363 87.714 707.89 87.889 707.544 88.239C707.199 88.5843 706.984 89.065 706.9 89.681H710.757C710.757 89.3917 710.718 89.128 710.638 88.89C710.559 88.6473 710.442 88.4397 710.288 88.267C710.134 88.0897 709.945 87.9543 709.721 87.861C709.502 87.763 709.25 87.714 708.965 87.714ZM718.309 88.169C718.272 88.2203 718.235 88.26 718.197 88.288C718.16 88.316 718.106 88.33 718.036 88.33C717.966 88.33 717.889 88.302 717.805 88.246C717.726 88.1853 717.623 88.12 717.497 88.05C717.371 87.98 717.217 87.917 717.035 87.861C716.858 87.8003 716.639 87.77 716.377 87.77C716.032 87.77 715.726 87.833 715.46 87.959C715.194 88.0803 714.97 88.2577 714.788 88.491C714.611 88.7243 714.476 89.0067 714.382 89.338C714.294 89.6693 714.249 90.0403 714.249 90.451C714.249 90.8803 714.298 91.263 714.396 91.599C714.494 91.9303 714.632 92.2103 714.809 92.439C714.987 92.663 715.201 92.8357 715.453 92.957C715.71 93.0737 715.997 93.132 716.314 93.132C716.618 93.132 716.867 93.097 717.063 93.027C717.259 92.9523 717.423 92.8707 717.553 92.782C717.684 92.6933 717.791 92.614 717.875 92.544C717.959 92.4693 718.043 92.432 718.127 92.432C718.235 92.432 718.314 92.4717 718.365 92.551L718.715 93.006C718.407 93.384 718.022 93.6617 717.56 93.839C717.098 94.0117 716.611 94.098 716.097 94.098C715.654 94.098 715.241 94.0163 714.858 93.853C714.48 93.6897 714.151 93.454 713.871 93.146C713.591 92.8333 713.37 92.4507 713.206 91.998C713.048 91.5453 712.968 91.0297 712.968 90.451C712.968 89.9237 713.041 89.436 713.185 88.988C713.335 88.54 713.549 88.155 713.829 87.833C714.114 87.5063 714.464 87.252 714.879 87.07C715.295 86.888 715.771 86.797 716.307 86.797C716.802 86.797 717.241 86.8787 717.623 87.042C718.006 87.2007 718.344 87.427 718.638 87.721L718.309 88.169ZM722.156 94.112C721.596 94.112 721.165 93.9557 720.861 93.643C720.563 93.3303 720.413 92.88 720.413 92.292V87.952H719.559C719.485 87.952 719.422 87.931 719.37 87.889C719.319 87.8423 719.293 87.7723 719.293 87.679V87.182L720.455 87.035L720.742 84.844C720.752 84.774 720.782 84.718 720.833 84.676C720.885 84.6293 720.95 84.606 721.029 84.606H721.659V87.049H723.689V87.952H721.659V92.208C721.659 92.5067 721.732 92.7283 721.876 92.873C722.021 93.0177 722.208 93.09 722.436 93.09C722.567 93.09 722.679 93.0737 722.772 93.041C722.87 93.0037 722.954 92.964 723.024 92.922C723.094 92.88 723.153 92.8427 723.199 92.81C723.251 92.7727 723.295 92.754 723.332 92.754C723.398 92.754 723.456 92.7937 723.507 92.873L723.871 93.468C723.657 93.6687 723.398 93.8273 723.094 93.944C722.791 94.056 722.478 94.112 722.156 94.112ZM726.616 86.909V94H725.37V86.909H726.616ZM726.896 84.683C726.896 84.8043 726.87 84.9187 726.819 85.026C726.772 85.1287 726.707 85.222 726.623 85.306C726.544 85.3853 726.45 85.4483 726.343 85.495C726.236 85.5417 726.121 85.565 726 85.565C725.879 85.565 725.764 85.5417 725.657 85.495C725.554 85.4483 725.461 85.3853 725.377 85.306C725.298 85.222 725.235 85.1287 725.188 85.026C725.141 84.9187 725.118 84.8043 725.118 84.683C725.118 84.5617 725.141 84.4473 725.188 84.34C725.235 84.228 725.298 84.1323 725.377 84.053C725.461 83.969 725.554 83.9037 725.657 83.857C725.764 83.8103 725.879 83.787 726 83.787C726.121 83.787 726.236 83.8103 726.343 83.857C726.45 83.9037 726.544 83.969 726.623 84.053C726.707 84.1323 726.772 84.228 726.819 84.34C726.87 84.4473 726.896 84.5617 726.896 84.683ZM731.682 86.797C732.2 86.797 732.667 86.8833 733.082 87.056C733.502 87.2287 733.857 87.4737 734.146 87.791C734.44 88.1083 734.664 88.4933 734.818 88.946C734.977 89.394 735.056 89.8957 735.056 90.451C735.056 91.011 734.977 91.515 734.818 91.963C734.664 92.411 734.44 92.7937 734.146 93.111C733.857 93.4283 733.502 93.6733 733.082 93.846C732.667 94.014 732.2 94.098 731.682 94.098C731.164 94.098 730.695 94.014 730.275 93.846C729.86 93.6733 729.505 93.4283 729.211 93.111C728.917 92.7937 728.691 92.411 728.532 91.963C728.373 91.515 728.294 91.011 728.294 90.451C728.294 89.8957 728.373 89.394 728.532 88.946C728.691 88.4933 728.917 88.1083 729.211 87.791C729.505 87.4737 729.86 87.2287 730.275 87.056C730.695 86.8833 731.164 86.797 731.682 86.797ZM731.682 93.125C732.382 93.125 732.905 92.8917 733.25 92.425C733.595 91.9537 733.768 91.298 733.768 90.458C733.768 89.6133 733.595 88.9553 733.25 88.484C732.905 88.0127 732.382 87.777 731.682 87.777C731.327 87.777 731.019 87.8377 730.758 87.959C730.497 88.0803 730.277 88.2553 730.1 88.484C729.927 88.7127 729.797 88.995 729.708 89.331C729.624 89.6623 729.582 90.038 729.582 90.458C729.582 90.878 729.624 91.2537 729.708 91.585C729.797 91.9163 729.927 92.1963 730.1 92.425C730.277 92.649 730.497 92.8217 730.758 92.943C731.019 93.0643 731.327 93.125 731.682 93.125ZM736.591 94V86.909H737.333C737.511 86.909 737.623 86.9953 737.669 87.168L737.767 87.938C738.075 87.5973 738.418 87.322 738.796 87.112C739.179 86.902 739.62 86.797 740.119 86.797C740.507 86.797 740.847 86.8623 741.141 86.993C741.44 87.119 741.687 87.301 741.883 87.539C742.084 87.7723 742.236 88.0547 742.338 88.386C742.441 88.7173 742.492 89.0837 742.492 89.485V94H741.246V89.485C741.246 88.9483 741.123 88.533 740.875 88.239C740.633 87.9403 740.259 87.791 739.755 87.791C739.387 87.791 739.041 87.8797 738.719 88.057C738.402 88.2343 738.108 88.4747 737.837 88.778V94H736.591Z" fill="black"/>
<path d="M554.399 83.969V85.075H549.583V88.582H553.699V89.688H549.583V94H548.218V83.969H554.399ZM557.338 86.909V94H556.092V86.909H557.338ZM557.618 84.683C557.618 84.8043 557.592 84.9187 557.541 85.026C557.494 85.1287 557.429 85.222 557.345 85.306C557.265 85.3853 557.172 85.4483 557.065 85.495C556.957 85.5417 556.843 85.565 556.722 85.565C556.6 85.565 556.486 85.5417 556.379 85.495C556.276 85.4483 556.183 85.3853 556.099 85.306C556.019 85.222 555.956 85.1287 555.91 85.026C555.863 84.9187 555.84 84.8043 555.84 84.683C555.84 84.5617 555.863 84.4473 555.91 84.34C555.956 84.228 556.019 84.1323 556.099 84.053C556.183 83.969 556.276 83.9037 556.379 83.857C556.486 83.8103 556.6 83.787 556.722 83.787C556.843 83.787 556.957 83.8103 557.065 83.857C557.172 83.9037 557.265 83.969 557.345 84.053C557.429 84.1323 557.494 84.228 557.541 84.34C557.592 84.4473 557.618 84.5617 557.618 84.683ZM559.534 94V86.909H560.248C560.383 86.909 560.476 86.9347 560.528 86.986C560.579 87.0373 560.614 87.126 560.633 87.252L560.717 88.358C560.959 87.8633 561.258 87.4783 561.613 87.203C561.972 86.923 562.392 86.783 562.873 86.783C563.069 86.783 563.246 86.8063 563.405 86.853C563.563 86.895 563.71 86.9557 563.846 87.035L563.685 87.966C563.652 88.0827 563.58 88.141 563.468 88.141C563.402 88.141 563.302 88.12 563.167 88.078C563.031 88.0313 562.842 88.008 562.6 88.008C562.166 88.008 561.802 88.134 561.508 88.386C561.218 88.638 560.976 89.0043 560.78 89.485V94H559.534ZM569.24 88.078C569.184 88.1807 569.098 88.232 568.981 88.232C568.911 88.232 568.832 88.2063 568.743 88.155C568.655 88.1037 568.545 88.0477 568.414 87.987C568.288 87.9217 568.137 87.8633 567.959 87.812C567.782 87.756 567.572 87.728 567.329 87.728C567.119 87.728 566.93 87.756 566.762 87.812C566.594 87.8633 566.45 87.9357 566.328 88.029C566.212 88.1223 566.121 88.232 566.055 88.358C565.995 88.4793 565.964 88.6123 565.964 88.757C565.964 88.939 566.016 89.0907 566.118 89.212C566.226 89.3333 566.366 89.4383 566.538 89.527C566.711 89.6157 566.907 89.695 567.126 89.765C567.346 89.8303 567.57 89.9027 567.798 89.982C568.032 90.0567 568.258 90.1407 568.477 90.234C568.697 90.3273 568.893 90.444 569.065 90.584C569.238 90.724 569.376 90.8967 569.478 91.102C569.586 91.3027 569.639 91.5453 569.639 91.83C569.639 92.1567 569.581 92.46 569.464 92.74C569.348 93.0153 569.175 93.2557 568.946 93.461C568.718 93.6617 568.438 93.8203 568.106 93.937C567.775 94.0537 567.392 94.112 566.958 94.112C566.464 94.112 566.016 94.0327 565.614 93.874C565.213 93.7107 564.872 93.503 564.592 93.251L564.886 92.775C564.924 92.7143 564.968 92.6677 565.019 92.635C565.071 92.6023 565.138 92.586 565.222 92.586C565.306 92.586 565.395 92.6187 565.488 92.684C565.582 92.7493 565.694 92.8217 565.824 92.901C565.96 92.9803 566.121 93.0527 566.307 93.118C566.499 93.1833 566.737 93.216 567.021 93.216C567.264 93.216 567.476 93.1857 567.658 93.125C567.84 93.0597 567.992 92.9733 568.113 92.866C568.235 92.7587 568.323 92.635 568.379 92.495C568.44 92.355 568.47 92.2057 568.47 92.047C568.47 91.851 568.417 91.69 568.309 91.564C568.207 91.4333 568.069 91.3237 567.896 91.235C567.724 91.1417 567.525 91.0623 567.301 90.997C567.082 90.927 566.856 90.8547 566.622 90.78C566.394 90.7053 566.167 90.6213 565.943 90.528C565.724 90.43 565.528 90.3087 565.355 90.164C565.183 90.0193 565.043 89.842 564.935 89.632C564.833 89.4173 564.781 89.1583 564.781 88.855C564.781 88.5843 564.837 88.3253 564.949 88.078C565.061 87.826 565.225 87.6067 565.439 87.42C565.654 87.2287 565.918 87.077 566.23 86.965C566.543 86.853 566.9 86.797 567.301 86.797C567.768 86.797 568.186 86.8717 568.554 87.021C568.928 87.1657 569.25 87.3663 569.52 87.623L569.24 88.078ZM573.4 94.112C572.84 94.112 572.408 93.9557 572.105 93.643C571.806 93.3303 571.657 92.88 571.657 92.292V87.952H570.803C570.728 87.952 570.665 87.931 570.614 87.889C570.562 87.8423 570.537 87.7723 570.537 87.679V87.182L571.699 87.035L571.986 84.844C571.995 84.774 572.025 84.718 572.077 84.676C572.128 84.6293 572.193 84.606 572.273 84.606H572.903V87.049H574.933V87.952H572.903V92.208C572.903 92.5067 572.975 92.7283 573.12 92.873C573.264 93.0177 573.451 93.09 573.68 93.09C573.81 93.09 573.922 93.0737 574.016 93.041C574.114 93.0037 574.198 92.964 574.268 92.922C574.338 92.88 574.396 92.8427 574.443 92.81C574.494 92.7727 574.538 92.754 574.576 92.754C574.641 92.754 574.699 92.7937 574.751 92.873L575.115 93.468C574.9 93.6687 574.641 93.8273 574.338 93.944C574.034 94.056 573.722 94.112 573.4 94.112ZM583.24 88.078C583.184 88.1807 583.098 88.232 582.981 88.232C582.911 88.232 582.832 88.2063 582.743 88.155C582.655 88.1037 582.545 88.0477 582.414 87.987C582.288 87.9217 582.137 87.8633 581.959 87.812C581.782 87.756 581.572 87.728 581.329 87.728C581.119 87.728 580.93 87.756 580.762 87.812C580.594 87.8633 580.45 87.9357 580.328 88.029C580.212 88.1223 580.121 88.232 580.055 88.358C579.995 88.4793 579.964 88.6123 579.964 88.757C579.964 88.939 580.016 89.0907 580.118 89.212C580.226 89.3333 580.366 89.4383 580.538 89.527C580.711 89.6157 580.907 89.695 581.126 89.765C581.346 89.8303 581.57 89.9027 581.798 89.982C582.032 90.0567 582.258 90.1407 582.477 90.234C582.697 90.3273 582.893 90.444 583.065 90.584C583.238 90.724 583.376 90.8967 583.478 91.102C583.586 91.3027 583.639 91.5453 583.639 91.83C583.639 92.1567 583.581 92.46 583.464 92.74C583.348 93.0153 583.175 93.2557 582.946 93.461C582.718 93.6617 582.438 93.8203 582.106 93.937C581.775 94.0537 581.392 94.112 580.958 94.112C580.464 94.112 580.016 94.0327 579.614 93.874C579.213 93.7107 578.872 93.503 578.592 93.251L578.886 92.775C578.924 92.7143 578.968 92.6677 579.019 92.635C579.071 92.6023 579.138 92.586 579.222 92.586C579.306 92.586 579.395 92.6187 579.488 92.684C579.582 92.7493 579.694 92.8217 579.824 92.901C579.96 92.9803 580.121 93.0527 580.307 93.118C580.499 93.1833 580.737 93.216 581.021 93.216C581.264 93.216 581.476 93.1857 581.658 93.125C581.84 93.0597 581.992 92.9733 582.113 92.866C582.235 92.7587 582.323 92.635 582.379 92.495C582.44 92.355 582.47 92.2057 582.47 92.047C582.47 91.851 582.417 91.69 582.309 91.564C582.207 91.4333 582.069 91.3237 581.896 91.235C581.724 91.1417 581.525 91.0623 581.301 90.997C581.082 90.927 580.856 90.8547 580.622 90.78C580.394 90.7053 580.167 90.6213 579.943 90.528C579.724 90.43 579.528 90.3087 579.355 90.164C579.183 90.0193 579.043 89.842 578.935 89.632C578.833 89.4173 578.781 89.1583 578.781 88.855C578.781 88.5843 578.837 88.3253 578.949 88.078C579.061 87.826 579.225 87.6067 579.439 87.42C579.654 87.2287 579.918 87.077 580.23 86.965C580.543 86.853 580.9 86.797 581.301 86.797C581.768 86.797 582.186 86.8717 582.554 87.021C582.928 87.1657 583.25 87.3663 583.52 87.623L583.24 88.078ZM588.058 86.797C588.482 86.797 588.874 86.8693 589.234 87.014C589.593 87.154 589.903 87.3593 590.165 87.63C590.426 87.896 590.629 88.2273 590.774 88.624C590.923 89.016 590.998 89.464 590.998 89.968C590.998 90.164 590.977 90.2947 590.935 90.36C590.893 90.4253 590.813 90.458 590.697 90.458H585.979C585.988 90.906 586.049 91.2957 586.161 91.627C586.273 91.9583 586.427 92.236 586.623 92.46C586.819 92.6793 587.052 92.845 587.323 92.957C587.593 93.0643 587.897 93.118 588.233 93.118C588.545 93.118 588.814 93.083 589.038 93.013C589.266 92.9383 589.462 92.859 589.626 92.775C589.789 92.691 589.924 92.614 590.032 92.544C590.144 92.4693 590.239 92.432 590.319 92.432C590.421 92.432 590.501 92.4717 590.557 92.551L590.907 93.006C590.753 93.1927 590.568 93.356 590.354 93.496C590.139 93.6313 589.908 93.7433 589.661 93.832C589.418 93.9207 589.166 93.986 588.905 94.028C588.643 94.0747 588.384 94.098 588.128 94.098C587.638 94.098 587.185 94.0163 586.77 93.853C586.359 93.685 586.002 93.4423 585.699 93.125C585.4 92.803 585.167 92.4063 584.999 91.935C584.831 91.4637 584.747 90.9223 584.747 90.311C584.747 89.8163 584.821 89.3543 584.971 88.925C585.125 88.4957 585.344 88.1247 585.629 87.812C585.913 87.4947 586.261 87.2473 586.672 87.07C587.082 86.888 587.544 86.797 588.058 86.797ZM588.086 87.714C587.484 87.714 587.01 87.889 586.665 88.239C586.319 88.5843 586.105 89.065 586.021 89.681H589.878C589.878 89.3917 589.838 89.128 589.759 88.89C589.679 88.6473 589.563 88.4397 589.409 88.267C589.255 88.0897 589.066 87.9543 588.842 87.861C588.622 87.763 588.37 87.714 588.086 87.714ZM597.429 88.169C597.392 88.2203 597.355 88.26 597.317 88.288C597.28 88.316 597.226 88.33 597.156 88.33C597.086 88.33 597.009 88.302 596.925 88.246C596.846 88.1853 596.743 88.12 596.617 88.05C596.491 87.98 596.337 87.917 596.155 87.861C595.978 87.8003 595.759 87.77 595.497 87.77C595.152 87.77 594.846 87.833 594.58 87.959C594.314 88.0803 594.09 88.2577 593.908 88.491C593.731 88.7243 593.596 89.0067 593.502 89.338C593.414 89.6693 593.369 90.0403 593.369 90.451C593.369 90.8803 593.418 91.263 593.516 91.599C593.614 91.9303 593.752 92.2103 593.929 92.439C594.107 92.663 594.321 92.8357 594.573 92.957C594.83 93.0737 595.117 93.132 595.434 93.132C595.738 93.132 595.987 93.097 596.183 93.027C596.379 92.9523 596.543 92.8707 596.673 92.782C596.804 92.6933 596.911 92.614 596.995 92.544C597.079 92.4693 597.163 92.432 597.247 92.432C597.355 92.432 597.434 92.4717 597.485 92.551L597.835 93.006C597.527 93.384 597.142 93.6617 596.68 93.839C596.218 94.0117 595.731 94.098 595.217 94.098C594.774 94.098 594.361 94.0163 593.978 93.853C593.6 93.6897 593.271 93.454 592.991 93.146C592.711 92.8333 592.49 92.4507 592.326 91.998C592.168 91.5453 592.088 91.0297 592.088 90.451C592.088 89.9237 592.161 89.436 592.305 88.988C592.455 88.54 592.669 88.155 592.949 87.833C593.234 87.5063 593.584 87.252 593.999 87.07C594.415 86.888 594.891 86.797 595.427 86.797C595.922 86.797 596.361 86.8787 596.743 87.042C597.126 87.2007 597.464 87.427 597.758 87.721L597.429 88.169ZM601.276 94.112C600.716 94.112 600.285 93.9557 599.981 93.643C599.683 93.3303 599.533 92.88 599.533 92.292V87.952H598.679C598.605 87.952 598.542 87.931 598.49 87.889C598.439 87.8423 598.413 87.7723 598.413 87.679V87.182L599.575 87.035L599.862 84.844C599.872 84.774 599.902 84.718 599.953 84.676C600.005 84.6293 600.07 84.606 600.149 84.606H600.779V87.049H602.809V87.952H600.779V92.208C600.779 92.5067 600.852 92.7283 600.996 92.873C601.141 93.0177 601.328 93.09 601.556 93.09C601.687 93.09 601.799 93.0737 601.892 93.041C601.99 93.0037 602.074 92.964 602.144 92.922C602.214 92.88 602.273 92.8427 602.319 92.81C602.371 92.7727 602.415 92.754 602.452 92.754C602.518 92.754 602.576 92.7937 602.627 92.873L602.991 93.468C602.777 93.6687 602.518 93.8273 602.214 93.944C601.911 94.056 601.598 94.112 601.276 94.112ZM605.736 86.909V94H604.49V86.909H605.736ZM606.016 84.683C606.016 84.8043 605.99 84.9187 605.939 85.026C605.892 85.1287 605.827 85.222 605.743 85.306C605.664 85.3853 605.57 85.4483 605.463 85.495C605.356 85.5417 605.241 85.565 605.12 85.565C604.999 85.565 604.884 85.5417 604.777 85.495C604.674 85.4483 604.581 85.3853 604.497 85.306C604.418 85.222 604.355 85.1287 604.308 85.026C604.261 84.9187 604.238 84.8043 604.238 84.683C604.238 84.5617 604.261 84.4473 604.308 84.34C604.355 84.228 604.418 84.1323 604.497 84.053C604.581 83.969 604.674 83.9037 604.777 83.857C604.884 83.8103 604.999 83.787 605.12 83.787C605.241 83.787 605.356 83.8103 605.463 83.857C605.57 83.9037 605.664 83.969 605.743 84.053C605.827 84.1323 605.892 84.228 605.939 84.34C605.99 84.4473 606.016 84.5617 606.016 84.683ZM610.802 86.797C611.32 86.797 611.787 86.8833 612.202 87.056C612.622 87.2287 612.977 87.4737 613.266 87.791C613.56 88.1083 613.784 88.4933 613.938 88.946C614.097 89.394 614.176 89.8957 614.176 90.451C614.176 91.011 614.097 91.515 613.938 91.963C613.784 92.411 613.56 92.7937 613.266 93.111C612.977 93.4283 612.622 93.6733 612.202 93.846C611.787 94.014 611.32 94.098 610.802 94.098C610.284 94.098 609.815 94.014 609.395 93.846C608.98 93.6733 608.625 93.4283 608.331 93.111C608.037 92.7937 607.811 92.411 607.652 91.963C607.493 91.515 607.414 91.011 607.414 90.451C607.414 89.8957 607.493 89.394 607.652 88.946C607.811 88.4933 608.037 88.1083 608.331 87.791C608.625 87.4737 608.98 87.2287 609.395 87.056C609.815 86.8833 610.284 86.797 610.802 86.797ZM610.802 93.125C611.502 93.125 612.025 92.8917 612.37 92.425C612.715 91.9537 612.888 91.298 612.888 90.458C612.888 89.6133 612.715 88.9553 612.37 88.484C612.025 88.0127 611.502 87.777 610.802 87.777C610.447 87.777 610.139 87.8377 609.878 87.959C609.617 88.0803 609.397 88.2553 609.22 88.484C609.047 88.7127 608.917 88.995 608.828 89.331C608.744 89.6623 608.702 90.038 608.702 90.458C608.702 90.878 608.744 91.2537 608.828 91.585C608.917 91.9163 609.047 92.1963 609.22 92.425C609.397 92.649 609.617 92.8217 609.878 92.943C610.139 93.0643 610.447 93.125 610.802 93.125ZM615.711 94V86.909H616.453C616.631 86.909 616.743 86.9953 616.789 87.168L616.887 87.938C617.195 87.5973 617.538 87.322 617.916 87.112C618.299 86.902 618.74 86.797 619.239 86.797C619.627 86.797 619.967 86.8623 620.261 86.993C620.56 87.119 620.807 87.301 621.003 87.539C621.204 87.7723 621.356 88.0547 621.458 88.386C621.561 88.7173 621.612 89.0837 621.612 89.485V94H620.366V89.485C620.366 88.9483 620.243 88.533 619.995 88.239C619.753 87.9403 619.379 87.791 618.875 87.791C618.507 87.791 618.161 87.8797 617.839 88.057C617.522 88.2343 617.228 88.4747 616.957 88.778V94H615.711Z" fill="white"/>
</svg>
