<svg width="339" height="32" viewBox="0 0 339 32" fill="none" xmlns="http://www.w3.org/2000/svg">
<rect x="0.5" y="0.5" width="338" height="31" rx="15.5" stroke="#979797"/>
<rect x="3" y="3" width="111" height="26" rx="13" fill="#2656C9"/>
<path d="M132.007 12.537C131.965 12.607 131.921 12.6607 131.874 12.698C131.828 12.7307 131.767 12.747 131.692 12.747C131.613 12.747 131.52 12.7073 131.412 12.628C131.31 12.5487 131.177 12.4623 131.013 12.369C130.855 12.271 130.661 12.1823 130.432 12.103C130.208 12.0237 129.935 11.984 129.613 11.984C129.31 11.984 129.042 12.026 128.808 12.11C128.575 12.1893 128.379 12.299 128.22 12.439C128.066 12.579 127.95 12.7447 127.87 12.936C127.791 13.1227 127.751 13.3257 127.751 13.545C127.751 13.825 127.819 14.0583 127.954 14.245C128.094 14.427 128.276 14.5833 128.5 14.714C128.729 14.8447 128.986 14.959 129.27 15.057C129.56 15.1503 129.854 15.2483 130.152 15.351C130.456 15.4537 130.75 15.5703 131.034 15.701C131.324 15.827 131.58 15.988 131.804 16.184C132.033 16.38 132.215 16.6203 132.35 16.905C132.49 17.1897 132.56 17.5397 132.56 17.955C132.56 18.3937 132.486 18.8067 132.336 19.194C132.187 19.5767 131.968 19.9103 131.678 20.195C131.394 20.4797 131.041 20.7037 130.621 20.867C130.206 21.0303 129.732 21.112 129.2 21.112C128.552 21.112 127.959 20.9953 127.422 20.762C126.89 20.524 126.435 20.2043 126.057 19.803L126.449 19.159C126.487 19.1077 126.531 19.0657 126.582 19.033C126.638 18.9957 126.699 18.977 126.764 18.977C126.862 18.977 126.974 19.0307 127.1 19.138C127.226 19.2407 127.383 19.355 127.569 19.481C127.761 19.607 127.989 19.7237 128.255 19.831C128.526 19.9337 128.855 19.985 129.242 19.985C129.564 19.985 129.851 19.9407 130.103 19.852C130.355 19.7633 130.568 19.6397 130.74 19.481C130.918 19.3177 131.053 19.124 131.146 18.9C131.24 18.676 131.286 18.4263 131.286 18.151C131.286 17.8477 131.216 17.6003 131.076 17.409C130.941 17.213 130.761 17.0497 130.537 16.919C130.313 16.7883 130.057 16.6787 129.767 16.59C129.483 16.4967 129.189 16.4033 128.885 16.31C128.587 16.212 128.293 16.1 128.003 15.974C127.719 15.848 127.464 15.6847 127.24 15.484C127.016 15.2833 126.834 15.0337 126.694 14.735C126.559 14.4317 126.491 14.0583 126.491 13.615C126.491 13.2603 126.559 12.9173 126.694 12.586C126.834 12.2547 127.035 11.9607 127.296 11.704C127.558 11.4473 127.88 11.242 128.262 11.088C128.65 10.934 129.093 10.857 129.592 10.857C130.152 10.857 130.663 10.9457 131.125 11.123C131.587 11.3003 131.991 11.557 132.336 11.893L132.007 12.537ZM136.904 13.797C137.329 13.797 137.721 13.8693 138.08 14.014C138.44 14.154 138.75 14.3593 139.011 14.63C139.273 14.896 139.476 15.2273 139.62 15.624C139.77 16.016 139.844 16.464 139.844 16.968C139.844 17.164 139.823 17.2947 139.781 17.36C139.739 17.4253 139.66 17.458 139.543 17.458H134.825C134.835 17.906 134.895 18.2957 135.007 18.627C135.119 18.9583 135.273 19.236 135.469 19.46C135.665 19.6793 135.899 19.845 136.169 19.957C136.44 20.0643 136.743 20.118 137.079 20.118C137.392 20.118 137.66 20.083 137.884 20.013C138.113 19.9383 138.309 19.859 138.472 19.775C138.636 19.691 138.771 19.614 138.878 19.544C138.99 19.4693 139.086 19.432 139.165 19.432C139.268 19.432 139.347 19.4717 139.403 19.551L139.753 20.006C139.599 20.1927 139.415 20.356 139.2 20.496C138.986 20.6313 138.755 20.7433 138.507 20.832C138.265 20.9207 138.013 20.986 137.751 21.028C137.49 21.0747 137.231 21.098 136.974 21.098C136.484 21.098 136.032 21.0163 135.616 20.853C135.206 20.685 134.849 20.4423 134.545 20.125C134.247 19.803 134.013 19.4063 133.845 18.935C133.677 18.4637 133.593 17.9223 133.593 17.311C133.593 16.8163 133.668 16.3543 133.817 15.925C133.971 15.4957 134.191 15.1247 134.475 14.812C134.76 14.4947 135.108 14.2473 135.518 14.07C135.929 13.888 136.391 13.797 136.904 13.797ZM136.932 14.714C136.33 14.714 135.857 14.889 135.511 15.239C135.166 15.5843 134.951 16.065 134.867 16.681H138.724C138.724 16.3917 138.685 16.128 138.605 15.89C138.526 15.6473 138.409 15.4397 138.255 15.267C138.101 15.0897 137.912 14.9543 137.688 14.861C137.469 14.763 137.217 14.714 136.932 14.714ZM146.276 15.169C146.239 15.2203 146.201 15.26 146.164 15.288C146.127 15.316 146.073 15.33 146.003 15.33C145.933 15.33 145.856 15.302 145.772 15.246C145.693 15.1853 145.59 15.12 145.464 15.05C145.338 14.98 145.184 14.917 145.002 14.861C144.825 14.8003 144.605 14.77 144.344 14.77C143.999 14.77 143.693 14.833 143.427 14.959C143.161 15.0803 142.937 15.2577 142.755 15.491C142.578 15.7243 142.442 16.0067 142.349 16.338C142.26 16.6693 142.216 17.0403 142.216 17.451C142.216 17.8803 142.265 18.263 142.363 18.599C142.461 18.9303 142.599 19.2103 142.776 19.439C142.953 19.663 143.168 19.8357 143.42 19.957C143.677 20.0737 143.964 20.132 144.281 20.132C144.584 20.132 144.834 20.097 145.03 20.027C145.226 19.9523 145.389 19.8707 145.52 19.782C145.651 19.6933 145.758 19.614 145.842 19.544C145.926 19.4693 146.01 19.432 146.094 19.432C146.201 19.432 146.281 19.4717 146.332 19.551L146.682 20.006C146.374 20.384 145.989 20.6617 145.527 20.839C145.065 21.0117 144.577 21.098 144.064 21.098C143.621 21.098 143.208 21.0163 142.825 20.853C142.447 20.6897 142.118 20.454 141.838 20.146C141.558 19.8333 141.336 19.4507 141.173 18.998C141.014 18.5453 140.935 18.0297 140.935 17.451C140.935 16.9237 141.007 16.436 141.152 15.988C141.301 15.54 141.516 15.155 141.796 14.833C142.081 14.5063 142.431 14.252 142.846 14.07C143.261 13.888 143.737 13.797 144.274 13.797C144.769 13.797 145.207 13.8787 145.59 14.042C145.973 14.2007 146.311 14.427 146.605 14.721L146.276 15.169ZM150.844 13.797C151.362 13.797 151.829 13.8833 152.244 14.056C152.664 14.2287 153.019 14.4737 153.308 14.791C153.602 15.1083 153.826 15.4933 153.98 15.946C154.139 16.394 154.218 16.8957 154.218 17.451C154.218 18.011 154.139 18.515 153.98 18.963C153.826 19.411 153.602 19.7937 153.308 20.111C153.019 20.4283 152.664 20.6733 152.244 20.846C151.829 21.014 151.362 21.098 150.844 21.098C150.326 21.098 149.857 21.014 149.437 20.846C149.022 20.6733 148.667 20.4283 148.373 20.111C148.079 19.7937 147.853 19.411 147.694 18.963C147.535 18.515 147.456 18.011 147.456 17.451C147.456 16.8957 147.535 16.394 147.694 15.946C147.853 15.4933 148.079 15.1083 148.373 14.791C148.667 14.4737 149.022 14.2287 149.437 14.056C149.857 13.8833 150.326 13.797 150.844 13.797ZM150.844 20.125C151.544 20.125 152.067 19.8917 152.412 19.425C152.757 18.9537 152.93 18.298 152.93 17.458C152.93 16.6133 152.757 15.9553 152.412 15.484C152.067 15.0127 151.544 14.777 150.844 14.777C150.489 14.777 150.181 14.8377 149.92 14.959C149.659 15.0803 149.439 15.2553 149.262 15.484C149.089 15.7127 148.959 15.995 148.87 16.331C148.786 16.6623 148.744 17.038 148.744 17.458C148.744 17.878 148.786 18.2537 148.87 18.585C148.959 18.9163 149.089 19.1963 149.262 19.425C149.439 19.649 149.659 19.8217 149.92 19.943C150.181 20.0643 150.489 20.125 150.844 20.125ZM155.753 21V13.909H156.495C156.673 13.909 156.785 13.9953 156.831 14.168L156.929 14.938C157.237 14.5973 157.58 14.322 157.958 14.112C158.341 13.902 158.782 13.797 159.281 13.797C159.669 13.797 160.009 13.8623 160.303 13.993C160.602 14.119 160.849 14.301 161.045 14.539C161.246 14.7723 161.398 15.0547 161.5 15.386C161.603 15.7173 161.654 16.0837 161.654 16.485V21H160.408V16.485C160.408 15.9483 160.285 15.533 160.037 15.239C159.795 14.9403 159.421 14.791 158.917 14.791C158.549 14.791 158.203 14.8797 157.881 15.057C157.564 15.2343 157.27 15.4747 156.999 15.778V21H155.753ZM168.524 21C168.346 21 168.234 20.9137 168.188 20.741L168.076 19.88C167.772 20.2487 167.425 20.545 167.033 20.769C166.645 20.9883 166.2 21.098 165.696 21.098C165.29 21.098 164.921 21.021 164.59 20.867C164.258 20.7083 163.976 20.4773 163.743 20.174C163.509 19.8707 163.33 19.4927 163.204 19.04C163.078 18.5873 163.015 18.067 163.015 17.479C163.015 16.9563 163.085 16.471 163.225 16.023C163.365 15.5703 163.565 15.1783 163.827 14.847C164.093 14.5157 164.415 14.2567 164.793 14.07C165.171 13.8787 165.6 13.783 166.081 13.783C166.515 13.783 166.886 13.8577 167.194 14.007C167.502 14.1517 167.777 14.357 168.02 14.623V10.689H169.266V21H168.524ZM166.109 20.09C166.515 20.09 166.869 19.9967 167.173 19.81C167.481 19.6233 167.763 19.3597 168.02 19.019V15.589C167.791 15.281 167.539 15.0663 167.264 14.945C166.993 14.819 166.692 14.756 166.361 14.756C165.698 14.756 165.189 14.9917 164.835 15.463C164.48 15.9343 164.303 16.6063 164.303 17.479C164.303 17.941 164.342 18.3377 164.422 18.669C164.501 18.9957 164.618 19.2663 164.772 19.481C164.926 19.691 165.115 19.845 165.339 19.943C165.563 20.041 165.819 20.09 166.109 20.09ZM178.12 15.078C178.064 15.1807 177.978 15.232 177.861 15.232C177.791 15.232 177.712 15.2063 177.623 15.155C177.534 15.1037 177.425 15.0477 177.294 14.987C177.168 14.9217 177.016 14.8633 176.839 14.812C176.662 14.756 176.452 14.728 176.209 14.728C175.999 14.728 175.81 14.756 175.642 14.812C175.474 14.8633 175.329 14.9357 175.208 15.029C175.091 15.1223 175 15.232 174.935 15.358C174.874 15.4793 174.844 15.6123 174.844 15.757C174.844 15.939 174.895 16.0907 174.998 16.212C175.105 16.3333 175.245 16.4383 175.418 16.527C175.591 16.6157 175.787 16.695 176.006 16.765C176.225 16.8303 176.449 16.9027 176.678 16.982C176.911 17.0567 177.138 17.1407 177.357 17.234C177.576 17.3273 177.772 17.444 177.945 17.584C178.118 17.724 178.255 17.8967 178.358 18.102C178.465 18.3027 178.519 18.5453 178.519 18.83C178.519 19.1567 178.461 19.46 178.344 19.74C178.227 20.0153 178.055 20.2557 177.826 20.461C177.597 20.6617 177.317 20.8203 176.986 20.937C176.655 21.0537 176.272 21.112 175.838 21.112C175.343 21.112 174.895 21.0327 174.494 20.874C174.093 20.7107 173.752 20.503 173.472 20.251L173.766 19.775C173.803 19.7143 173.848 19.6677 173.899 19.635C173.95 19.6023 174.018 19.586 174.102 19.586C174.186 19.586 174.275 19.6187 174.368 19.684C174.461 19.7493 174.573 19.8217 174.704 19.901C174.839 19.9803 175 20.0527 175.187 20.118C175.378 20.1833 175.616 20.216 175.901 20.216C176.144 20.216 176.356 20.1857 176.538 20.125C176.72 20.0597 176.872 19.9733 176.993 19.866C177.114 19.7587 177.203 19.635 177.259 19.495C177.32 19.355 177.35 19.2057 177.35 19.047C177.35 18.851 177.296 18.69 177.189 18.564C177.086 18.4333 176.949 18.3237 176.776 18.235C176.603 18.1417 176.405 18.0623 176.181 17.997C175.962 17.927 175.735 17.8547 175.502 17.78C175.273 17.7053 175.047 17.6213 174.823 17.528C174.604 17.43 174.408 17.3087 174.235 17.164C174.062 17.0193 173.922 16.842 173.815 16.632C173.712 16.4173 173.661 16.1583 173.661 15.855C173.661 15.5843 173.717 15.3253 173.829 15.078C173.941 14.826 174.104 14.6067 174.319 14.42C174.534 14.2287 174.797 14.077 175.11 13.965C175.423 13.853 175.78 13.797 176.181 13.797C176.648 13.797 177.065 13.8717 177.434 14.021C177.807 14.1657 178.129 14.3663 178.4 14.623L178.12 15.078ZM182.937 13.797C183.362 13.797 183.754 13.8693 184.113 14.014C184.473 14.154 184.783 14.3593 185.044 14.63C185.306 14.896 185.509 15.2273 185.653 15.624C185.803 16.016 185.877 16.464 185.877 16.968C185.877 17.164 185.856 17.2947 185.814 17.36C185.772 17.4253 185.693 17.458 185.576 17.458H180.858C180.868 17.906 180.928 18.2957 181.04 18.627C181.152 18.9583 181.306 19.236 181.502 19.46C181.698 19.6793 181.932 19.845 182.202 19.957C182.473 20.0643 182.776 20.118 183.112 20.118C183.425 20.118 183.693 20.083 183.917 20.013C184.146 19.9383 184.342 19.859 184.505 19.775C184.669 19.691 184.804 19.614 184.911 19.544C185.023 19.4693 185.119 19.432 185.198 19.432C185.301 19.432 185.38 19.4717 185.436 19.551L185.786 20.006C185.632 20.1927 185.448 20.356 185.233 20.496C185.019 20.6313 184.788 20.7433 184.54 20.832C184.298 20.9207 184.046 20.986 183.784 21.028C183.523 21.0747 183.264 21.098 183.007 21.098C182.517 21.098 182.065 21.0163 181.649 20.853C181.239 20.685 180.882 20.4423 180.578 20.125C180.28 19.803 180.046 19.4063 179.878 18.935C179.71 18.4637 179.626 17.9223 179.626 17.311C179.626 16.8163 179.701 16.3543 179.85 15.925C180.004 15.4957 180.224 15.1247 180.508 14.812C180.793 14.4947 181.141 14.2473 181.551 14.07C181.962 13.888 182.424 13.797 182.937 13.797ZM182.965 14.714C182.363 14.714 181.89 14.889 181.544 15.239C181.199 15.5843 180.984 16.065 180.9 16.681H184.757C184.757 16.3917 184.718 16.128 184.638 15.89C184.559 15.6473 184.442 15.4397 184.288 15.267C184.134 15.0897 183.945 14.9543 183.721 14.861C183.502 14.763 183.25 14.714 182.965 14.714ZM192.309 15.169C192.272 15.2203 192.235 15.26 192.197 15.288C192.16 15.316 192.106 15.33 192.036 15.33C191.966 15.33 191.889 15.302 191.805 15.246C191.726 15.1853 191.623 15.12 191.497 15.05C191.371 14.98 191.217 14.917 191.035 14.861C190.858 14.8003 190.639 14.77 190.377 14.77C190.032 14.77 189.726 14.833 189.46 14.959C189.194 15.0803 188.97 15.2577 188.788 15.491C188.611 15.7243 188.476 16.0067 188.382 16.338C188.294 16.6693 188.249 17.0403 188.249 17.451C188.249 17.8803 188.298 18.263 188.396 18.599C188.494 18.9303 188.632 19.2103 188.809 19.439C188.987 19.663 189.201 19.8357 189.453 19.957C189.71 20.0737 189.997 20.132 190.314 20.132C190.618 20.132 190.867 20.097 191.063 20.027C191.259 19.9523 191.423 19.8707 191.553 19.782C191.684 19.6933 191.791 19.614 191.875 19.544C191.959 19.4693 192.043 19.432 192.127 19.432C192.235 19.432 192.314 19.4717 192.365 19.551L192.715 20.006C192.407 20.384 192.022 20.6617 191.56 20.839C191.098 21.0117 190.611 21.098 190.097 21.098C189.654 21.098 189.241 21.0163 188.858 20.853C188.48 20.6897 188.151 20.454 187.871 20.146C187.591 19.8333 187.37 19.4507 187.206 18.998C187.048 18.5453 186.968 18.0297 186.968 17.451C186.968 16.9237 187.041 16.436 187.185 15.988C187.335 15.54 187.549 15.155 187.829 14.833C188.114 14.5063 188.464 14.252 188.879 14.07C189.295 13.888 189.771 13.797 190.307 13.797C190.802 13.797 191.241 13.8787 191.623 14.042C192.006 14.2007 192.344 14.427 192.638 14.721L192.309 15.169ZM196.156 21.112C195.596 21.112 195.165 20.9557 194.861 20.643C194.563 20.3303 194.413 19.88 194.413 19.292V14.952H193.559C193.485 14.952 193.422 14.931 193.37 14.889C193.319 14.8423 193.293 14.7723 193.293 14.679V14.182L194.455 14.035L194.742 11.844C194.752 11.774 194.782 11.718 194.833 11.676C194.885 11.6293 194.95 11.606 195.029 11.606H195.659V14.049H197.689V14.952H195.659V19.208C195.659 19.5067 195.732 19.7283 195.876 19.873C196.021 20.0177 196.208 20.09 196.436 20.09C196.567 20.09 196.679 20.0737 196.772 20.041C196.87 20.0037 196.954 19.964 197.024 19.922C197.094 19.88 197.153 19.8427 197.199 19.81C197.251 19.7727 197.295 19.754 197.332 19.754C197.398 19.754 197.456 19.7937 197.507 19.873L197.871 20.468C197.657 20.6687 197.398 20.8273 197.094 20.944C196.791 21.056 196.478 21.112 196.156 21.112ZM200.616 13.909V21H199.37V13.909H200.616ZM200.896 11.683C200.896 11.8043 200.87 11.9187 200.819 12.026C200.772 12.1287 200.707 12.222 200.623 12.306C200.544 12.3853 200.45 12.4483 200.343 12.495C200.236 12.5417 200.121 12.565 200 12.565C199.879 12.565 199.764 12.5417 199.657 12.495C199.554 12.4483 199.461 12.3853 199.377 12.306C199.298 12.222 199.235 12.1287 199.188 12.026C199.141 11.9187 199.118 11.8043 199.118 11.683C199.118 11.5617 199.141 11.4473 199.188 11.34C199.235 11.228 199.298 11.1323 199.377 11.053C199.461 10.969 199.554 10.9037 199.657 10.857C199.764 10.8103 199.879 10.787 200 10.787C200.121 10.787 200.236 10.8103 200.343 10.857C200.45 10.9037 200.544 10.969 200.623 11.053C200.707 11.1323 200.772 11.228 200.819 11.34C200.87 11.4473 200.896 11.5617 200.896 11.683ZM205.682 13.797C206.2 13.797 206.667 13.8833 207.082 14.056C207.502 14.2287 207.857 14.4737 208.146 14.791C208.44 15.1083 208.664 15.4933 208.818 15.946C208.977 16.394 209.056 16.8957 209.056 17.451C209.056 18.011 208.977 18.515 208.818 18.963C208.664 19.411 208.44 19.7937 208.146 20.111C207.857 20.4283 207.502 20.6733 207.082 20.846C206.667 21.014 206.2 21.098 205.682 21.098C205.164 21.098 204.695 21.014 204.275 20.846C203.86 20.6733 203.505 20.4283 203.211 20.111C202.917 19.7937 202.691 19.411 202.532 18.963C202.373 18.515 202.294 18.011 202.294 17.451C202.294 16.8957 202.373 16.394 202.532 15.946C202.691 15.4933 202.917 15.1083 203.211 14.791C203.505 14.4737 203.86 14.2287 204.275 14.056C204.695 13.8833 205.164 13.797 205.682 13.797ZM205.682 20.125C206.382 20.125 206.905 19.8917 207.25 19.425C207.595 18.9537 207.768 18.298 207.768 17.458C207.768 16.6133 207.595 15.9553 207.25 15.484C206.905 15.0127 206.382 14.777 205.682 14.777C205.327 14.777 205.019 14.8377 204.758 14.959C204.497 15.0803 204.277 15.2553 204.1 15.484C203.927 15.7127 203.797 15.995 203.708 16.331C203.624 16.6623 203.582 17.038 203.582 17.458C203.582 17.878 203.624 18.2537 203.708 18.585C203.797 18.9163 203.927 19.1963 204.1 19.425C204.277 19.649 204.497 19.8217 204.758 19.943C205.019 20.0643 205.327 20.125 205.682 20.125ZM210.591 21V13.909H211.333C211.511 13.909 211.623 13.9953 211.669 14.168L211.767 14.938C212.075 14.5973 212.418 14.322 212.796 14.112C213.179 13.902 213.62 13.797 214.119 13.797C214.507 13.797 214.847 13.8623 215.141 13.993C215.44 14.119 215.687 14.301 215.883 14.539C216.084 14.7723 216.236 15.0547 216.338 15.386C216.441 15.7173 216.492 16.0837 216.492 16.485V21H215.246V16.485C215.246 15.9483 215.123 15.533 214.875 15.239C214.633 14.9403 214.259 14.791 213.755 14.791C213.387 14.791 213.041 14.8797 212.719 15.057C212.402 15.2343 212.108 15.4747 211.837 15.778V21H210.591Z" fill="black"/>
<path d="M248.998 10.969V12.11H245.757V21H244.399V12.11H241.144V10.969H248.998ZM250.228 21V10.689H251.474V14.861C251.777 14.539 252.113 14.2823 252.482 14.091C252.851 13.895 253.275 13.797 253.756 13.797C254.143 13.797 254.484 13.8623 254.778 13.993C255.077 14.119 255.324 14.301 255.52 14.539C255.721 14.7723 255.872 15.0547 255.975 15.386C256.078 15.7173 256.129 16.0837 256.129 16.485V21H254.883V16.485C254.883 15.9483 254.759 15.533 254.512 15.239C254.269 14.9403 253.896 14.791 253.392 14.791C253.023 14.791 252.678 14.8797 252.356 15.057C252.039 15.2343 251.745 15.4747 251.474 15.778V21H250.228ZM259.393 13.909V21H258.147V13.909H259.393ZM259.673 11.683C259.673 11.8043 259.648 11.9187 259.596 12.026C259.55 12.1287 259.484 12.222 259.4 12.306C259.321 12.3853 259.228 12.4483 259.12 12.495C259.013 12.5417 258.899 12.565 258.777 12.565C258.656 12.565 258.542 12.5417 258.434 12.495C258.332 12.4483 258.238 12.3853 258.154 12.306C258.075 12.222 258.012 12.1287 257.965 12.026C257.919 11.9187 257.895 11.8043 257.895 11.683C257.895 11.5617 257.919 11.4473 257.965 11.34C258.012 11.228 258.075 11.1323 258.154 11.053C258.238 10.969 258.332 10.9037 258.434 10.857C258.542 10.8103 258.656 10.787 258.777 10.787C258.899 10.787 259.013 10.8103 259.12 10.857C259.228 10.9037 259.321 10.969 259.4 11.053C259.484 11.1323 259.55 11.228 259.596 11.34C259.648 11.4473 259.673 11.5617 259.673 11.683ZM261.589 21V13.909H262.303C262.439 13.909 262.532 13.9347 262.583 13.986C262.635 14.0373 262.67 14.126 262.688 14.252L262.772 15.358C263.015 14.8633 263.314 14.4783 263.668 14.203C264.028 13.923 264.448 13.783 264.928 13.783C265.124 13.783 265.302 13.8063 265.46 13.853C265.619 13.895 265.766 13.9557 265.901 14.035L265.74 14.966C265.708 15.0827 265.635 15.141 265.523 15.141C265.458 15.141 265.358 15.12 265.222 15.078C265.087 15.0313 264.898 15.008 264.655 15.008C264.221 15.008 263.857 15.134 263.563 15.386C263.274 15.638 263.031 16.0043 262.835 16.485V21H261.589ZM272.227 21C272.05 21 271.938 20.9137 271.891 20.741L271.779 19.88C271.476 20.2487 271.128 20.545 270.736 20.769C270.349 20.9883 269.903 21.098 269.399 21.098C268.993 21.098 268.624 21.021 268.293 20.867C267.962 20.7083 267.679 20.4773 267.446 20.174C267.213 19.8707 267.033 19.4927 266.907 19.04C266.781 18.5873 266.718 18.067 266.718 17.479C266.718 16.9563 266.788 16.471 266.928 16.023C267.068 15.5703 267.269 15.1783 267.53 14.847C267.796 14.5157 268.118 14.2567 268.496 14.07C268.874 13.8787 269.303 13.783 269.784 13.783C270.218 13.783 270.589 13.8577 270.897 14.007C271.205 14.1517 271.48 14.357 271.723 14.623V10.689H272.969V21H272.227ZM269.812 20.09C270.218 20.09 270.573 19.9967 270.876 19.81C271.184 19.6233 271.466 19.3597 271.723 19.019V15.589C271.494 15.281 271.242 15.0663 270.967 14.945C270.696 14.819 270.395 14.756 270.064 14.756C269.401 14.756 268.893 14.9917 268.538 15.463C268.183 15.9343 268.006 16.6063 268.006 17.479C268.006 17.941 268.046 18.3377 268.125 18.669C268.204 18.9957 268.321 19.2663 268.475 19.481C268.629 19.691 268.818 19.845 269.042 19.943C269.266 20.041 269.523 20.09 269.812 20.09ZM281.823 15.078C281.767 15.1807 281.681 15.232 281.564 15.232C281.494 15.232 281.415 15.2063 281.326 15.155C281.238 15.1037 281.128 15.0477 280.997 14.987C280.871 14.9217 280.72 14.8633 280.542 14.812C280.365 14.756 280.155 14.728 279.912 14.728C279.702 14.728 279.513 14.756 279.345 14.812C279.177 14.8633 279.033 14.9357 278.911 15.029C278.795 15.1223 278.704 15.232 278.638 15.358C278.578 15.4793 278.547 15.6123 278.547 15.757C278.547 15.939 278.599 16.0907 278.701 16.212C278.809 16.3333 278.949 16.4383 279.121 16.527C279.294 16.6157 279.49 16.695 279.709 16.765C279.929 16.8303 280.153 16.9027 280.381 16.982C280.615 17.0567 280.841 17.1407 281.06 17.234C281.28 17.3273 281.476 17.444 281.648 17.584C281.821 17.724 281.959 17.8967 282.061 18.102C282.169 18.3027 282.222 18.5453 282.222 18.83C282.222 19.1567 282.164 19.46 282.047 19.74C281.931 20.0153 281.758 20.2557 281.529 20.461C281.301 20.6617 281.021 20.8203 280.689 20.937C280.358 21.0537 279.975 21.112 279.541 21.112C279.047 21.112 278.599 21.0327 278.197 20.874C277.796 20.7107 277.455 20.503 277.175 20.251L277.469 19.775C277.507 19.7143 277.551 19.6677 277.602 19.635C277.654 19.6023 277.721 19.586 277.805 19.586C277.889 19.586 277.978 19.6187 278.071 19.684C278.165 19.7493 278.277 19.8217 278.407 19.901C278.543 19.9803 278.704 20.0527 278.89 20.118C279.082 20.1833 279.32 20.216 279.604 20.216C279.847 20.216 280.059 20.1857 280.241 20.125C280.423 20.0597 280.575 19.9733 280.696 19.866C280.818 19.7587 280.906 19.635 280.962 19.495C281.023 19.355 281.053 19.2057 281.053 19.047C281.053 18.851 281 18.69 280.892 18.564C280.79 18.4333 280.652 18.3237 280.479 18.235C280.307 18.1417 280.108 18.0623 279.884 17.997C279.665 17.927 279.439 17.8547 279.205 17.78C278.977 17.7053 278.75 17.6213 278.526 17.528C278.307 17.43 278.111 17.3087 277.938 17.164C277.766 17.0193 277.626 16.842 277.518 16.632C277.416 16.4173 277.364 16.1583 277.364 15.855C277.364 15.5843 277.42 15.3253 277.532 15.078C277.644 14.826 277.808 14.6067 278.022 14.42C278.237 14.2287 278.501 14.077 278.813 13.965C279.126 13.853 279.483 13.797 279.884 13.797C280.351 13.797 280.769 13.8717 281.137 14.021C281.511 14.1657 281.833 14.3663 282.103 14.623L281.823 15.078ZM286.641 13.797C287.065 13.797 287.457 13.8693 287.817 14.014C288.176 14.154 288.486 14.3593 288.748 14.63C289.009 14.896 289.212 15.2273 289.357 15.624C289.506 16.016 289.581 16.464 289.581 16.968C289.581 17.164 289.56 17.2947 289.518 17.36C289.476 17.4253 289.396 17.458 289.28 17.458H284.562C284.571 17.906 284.632 18.2957 284.744 18.627C284.856 18.9583 285.01 19.236 285.206 19.46C285.402 19.6793 285.635 19.845 285.906 19.957C286.176 20.0643 286.48 20.118 286.816 20.118C287.128 20.118 287.397 20.083 287.621 20.013C287.849 19.9383 288.045 19.859 288.209 19.775C288.372 19.691 288.507 19.614 288.615 19.544C288.727 19.4693 288.822 19.432 288.902 19.432C289.004 19.432 289.084 19.4717 289.14 19.551L289.49 20.006C289.336 20.1927 289.151 20.356 288.937 20.496C288.722 20.6313 288.491 20.7433 288.244 20.832C288.001 20.9207 287.749 20.986 287.488 21.028C287.226 21.0747 286.967 21.098 286.711 21.098C286.221 21.098 285.768 21.0163 285.353 20.853C284.942 20.685 284.585 20.4423 284.282 20.125C283.983 19.803 283.75 19.4063 283.582 18.935C283.414 18.4637 283.33 17.9223 283.33 17.311C283.33 16.8163 283.404 16.3543 283.554 15.925C283.708 15.4957 283.927 15.1247 284.212 14.812C284.496 14.4947 284.844 14.2473 285.255 14.07C285.665 13.888 286.127 13.797 286.641 13.797ZM286.669 14.714C286.067 14.714 285.593 14.889 285.248 15.239C284.902 15.5843 284.688 16.065 284.604 16.681H288.461C288.461 16.3917 288.421 16.128 288.342 15.89C288.262 15.6473 288.146 15.4397 287.992 15.267C287.838 15.0897 287.649 14.9543 287.425 14.861C287.205 14.763 286.953 14.714 286.669 14.714ZM296.012 15.169C295.975 15.2203 295.938 15.26 295.9 15.288C295.863 15.316 295.809 15.33 295.739 15.33C295.669 15.33 295.592 15.302 295.508 15.246C295.429 15.1853 295.326 15.12 295.2 15.05C295.074 14.98 294.92 14.917 294.738 14.861C294.561 14.8003 294.342 14.77 294.08 14.77C293.735 14.77 293.429 14.833 293.163 14.959C292.897 15.0803 292.673 15.2577 292.491 15.491C292.314 15.7243 292.179 16.0067 292.085 16.338C291.997 16.6693 291.952 17.0403 291.952 17.451C291.952 17.8803 292.001 18.263 292.099 18.599C292.197 18.9303 292.335 19.2103 292.512 19.439C292.69 19.663 292.904 19.8357 293.156 19.957C293.413 20.0737 293.7 20.132 294.017 20.132C294.321 20.132 294.57 20.097 294.766 20.027C294.962 19.9523 295.126 19.8707 295.256 19.782C295.387 19.6933 295.494 19.614 295.578 19.544C295.662 19.4693 295.746 19.432 295.83 19.432C295.938 19.432 296.017 19.4717 296.068 19.551L296.418 20.006C296.11 20.384 295.725 20.6617 295.263 20.839C294.801 21.0117 294.314 21.098 293.8 21.098C293.357 21.098 292.944 21.0163 292.561 20.853C292.183 20.6897 291.854 20.454 291.574 20.146C291.294 19.8333 291.073 19.4507 290.909 18.998C290.751 18.5453 290.671 18.0297 290.671 17.451C290.671 16.9237 290.744 16.436 290.888 15.988C291.038 15.54 291.252 15.155 291.532 14.833C291.817 14.5063 292.167 14.252 292.582 14.07C292.998 13.888 293.474 13.797 294.01 13.797C294.505 13.797 294.944 13.8787 295.326 14.042C295.709 14.2007 296.047 14.427 296.341 14.721L296.012 15.169ZM299.859 21.112C299.299 21.112 298.868 20.9557 298.564 20.643C298.266 20.3303 298.116 19.88 298.116 19.292V14.952H297.262C297.188 14.952 297.125 14.931 297.073 14.889C297.022 14.8423 296.996 14.7723 296.996 14.679V14.182L298.158 14.035L298.445 11.844C298.455 11.774 298.485 11.718 298.536 11.676C298.588 11.6293 298.653 11.606 298.732 11.606H299.362V14.049H301.392V14.952H299.362V19.208C299.362 19.5067 299.435 19.7283 299.579 19.873C299.724 20.0177 299.911 20.09 300.139 20.09C300.27 20.09 300.382 20.0737 300.475 20.041C300.573 20.0037 300.657 19.964 300.727 19.922C300.797 19.88 300.856 19.8427 300.902 19.81C300.954 19.7727 300.998 19.754 301.035 19.754C301.101 19.754 301.159 19.7937 301.21 19.873L301.574 20.468C301.36 20.6687 301.101 20.8273 300.797 20.944C300.494 21.056 300.181 21.112 299.859 21.112ZM304.319 13.909V21H303.073V13.909H304.319ZM304.599 11.683C304.599 11.8043 304.573 11.9187 304.522 12.026C304.475 12.1287 304.41 12.222 304.326 12.306C304.247 12.3853 304.153 12.4483 304.046 12.495C303.939 12.5417 303.824 12.565 303.703 12.565C303.582 12.565 303.467 12.5417 303.36 12.495C303.257 12.4483 303.164 12.3853 303.08 12.306C303.001 12.222 302.938 12.1287 302.891 12.026C302.844 11.9187 302.821 11.8043 302.821 11.683C302.821 11.5617 302.844 11.4473 302.891 11.34C302.938 11.228 303.001 11.1323 303.08 11.053C303.164 10.969 303.257 10.9037 303.36 10.857C303.467 10.8103 303.582 10.787 303.703 10.787C303.824 10.787 303.939 10.8103 304.046 10.857C304.153 10.9037 304.247 10.969 304.326 11.053C304.41 11.1323 304.475 11.228 304.522 11.34C304.573 11.4473 304.599 11.5617 304.599 11.683ZM309.385 13.797C309.903 13.797 310.37 13.8833 310.785 14.056C311.205 14.2287 311.56 14.4737 311.849 14.791C312.143 15.1083 312.367 15.4933 312.521 15.946C312.68 16.394 312.759 16.8957 312.759 17.451C312.759 18.011 312.68 18.515 312.521 18.963C312.367 19.411 312.143 19.7937 311.849 20.111C311.56 20.4283 311.205 20.6733 310.785 20.846C310.37 21.014 309.903 21.098 309.385 21.098C308.867 21.098 308.398 21.014 307.978 20.846C307.563 20.6733 307.208 20.4283 306.914 20.111C306.62 19.7937 306.394 19.411 306.235 18.963C306.076 18.515 305.997 18.011 305.997 17.451C305.997 16.8957 306.076 16.394 306.235 15.946C306.394 15.4933 306.62 15.1083 306.914 14.791C307.208 14.4737 307.563 14.2287 307.978 14.056C308.398 13.8833 308.867 13.797 309.385 13.797ZM309.385 20.125C310.085 20.125 310.608 19.8917 310.953 19.425C311.298 18.9537 311.471 18.298 311.471 17.458C311.471 16.6133 311.298 15.9553 310.953 15.484C310.608 15.0127 310.085 14.777 309.385 14.777C309.03 14.777 308.722 14.8377 308.461 14.959C308.2 15.0803 307.98 15.2553 307.803 15.484C307.63 15.7127 307.5 15.995 307.411 16.331C307.327 16.6623 307.285 17.038 307.285 17.458C307.285 17.878 307.327 18.2537 307.411 18.585C307.5 18.9163 307.63 19.1963 307.803 19.425C307.98 19.649 308.2 19.8217 308.461 19.943C308.722 20.0643 309.03 20.125 309.385 20.125ZM314.294 21V13.909H315.036C315.214 13.909 315.326 13.9953 315.372 14.168L315.47 14.938C315.778 14.5973 316.121 14.322 316.499 14.112C316.882 13.902 317.323 13.797 317.822 13.797C318.21 13.797 318.55 13.8623 318.844 13.993C319.143 14.119 319.39 14.301 319.586 14.539C319.787 14.7723 319.939 15.0547 320.041 15.386C320.144 15.7173 320.195 16.0837 320.195 16.485V21H318.949V16.485C318.949 15.9483 318.826 15.533 318.578 15.239C318.336 14.9403 317.962 14.791 317.458 14.791C317.09 14.791 316.744 14.8797 316.422 15.057C316.105 15.2343 315.811 15.4747 315.54 15.778V21H314.294Z" fill="black"/>
<path d="M28.399 10.969V12.075H23.583V15.582H27.699V16.688H23.583V21H22.218V10.969H28.399ZM31.3377 13.909V21H30.0917V13.909H31.3377ZM31.6177 11.683C31.6177 11.8043 31.592 11.9187 31.5407 12.026C31.494 12.1287 31.4287 12.222 31.3447 12.306C31.2654 12.3853 31.172 12.4483 31.0647 12.495C30.9574 12.5417 30.843 12.565 30.7217 12.565C30.6004 12.565 30.486 12.5417 30.3787 12.495C30.276 12.4483 30.1827 12.3853 30.0987 12.306C30.0194 12.222 29.9564 12.1287 29.9097 12.026C29.863 11.9187 29.8397 11.8043 29.8397 11.683C29.8397 11.5617 29.863 11.4473 29.9097 11.34C29.9564 11.228 30.0194 11.1323 30.0987 11.053C30.1827 10.969 30.276 10.9037 30.3787 10.857C30.486 10.8103 30.6004 10.787 30.7217 10.787C30.843 10.787 30.9574 10.8103 31.0647 10.857C31.172 10.9037 31.2654 10.969 31.3447 11.053C31.4287 11.1323 31.494 11.228 31.5407 11.34C31.592 11.4473 31.6177 11.5617 31.6177 11.683ZM33.5337 21V13.909H34.2477C34.3831 13.909 34.4764 13.9347 34.5277 13.986C34.5791 14.0373 34.6141 14.126 34.6327 14.252L34.7167 15.358C34.9594 14.8633 35.2581 14.4783 35.6127 14.203C35.9721 13.923 36.3921 13.783 36.8727 13.783C37.0687 13.783 37.2461 13.8063 37.4047 13.853C37.5634 13.895 37.7104 13.9557 37.8457 14.035L37.6847 14.966C37.6521 15.0827 37.5797 15.141 37.4677 15.141C37.4024 15.141 37.3021 15.12 37.1667 15.078C37.0314 15.0313 36.8424 15.008 36.5997 15.008C36.1657 15.008 35.8017 15.134 35.5077 15.386C35.2184 15.638 34.9757 16.0043 34.7797 16.485V21H33.5337ZM43.2402 15.078C43.1842 15.1807 43.0979 15.232 42.9812 15.232C42.9112 15.232 42.8319 15.2063 42.7432 15.155C42.6545 15.1037 42.5449 15.0477 42.4142 14.987C42.2882 14.9217 42.1365 14.8633 41.9592 14.812C41.7819 14.756 41.5719 14.728 41.3292 14.728C41.1192 14.728 40.9302 14.756 40.7622 14.812C40.5942 14.8633 40.4495 14.9357 40.3282 15.029C40.2115 15.1223 40.1205 15.232 40.0552 15.358C39.9945 15.4793 39.9642 15.6123 39.9642 15.757C39.9642 15.939 40.0155 16.0907 40.1182 16.212C40.2255 16.3333 40.3655 16.4383 40.5382 16.527C40.7109 16.6157 40.9069 16.695 41.1262 16.765C41.3455 16.8303 41.5695 16.9027 41.7982 16.982C42.0315 17.0567 42.2579 17.1407 42.4772 17.234C42.6965 17.3273 42.8925 17.444 43.0652 17.584C43.2379 17.724 43.3755 17.8967 43.4782 18.102C43.5855 18.3027 43.6392 18.5453 43.6392 18.83C43.6392 19.1567 43.5809 19.46 43.4642 19.74C43.3475 20.0153 43.1749 20.2557 42.9462 20.461C42.7175 20.6617 42.4375 20.8203 42.1062 20.937C41.7749 21.0537 41.3922 21.112 40.9582 21.112C40.4635 21.112 40.0155 21.0327 39.6142 20.874C39.2129 20.7107 38.8722 20.503 38.5922 20.251L38.8862 19.775C38.9235 19.7143 38.9679 19.6677 39.0192 19.635C39.0705 19.6023 39.1382 19.586 39.2222 19.586C39.3062 19.586 39.3949 19.6187 39.4882 19.684C39.5815 19.7493 39.6935 19.8217 39.8242 19.901C39.9595 19.9803 40.1205 20.0527 40.3072 20.118C40.4985 20.1833 40.7365 20.216 41.0212 20.216C41.2639 20.216 41.4762 20.1857 41.6582 20.125C41.8402 20.0597 41.9919 19.9733 42.1132 19.866C42.2345 19.7587 42.3232 19.635 42.3792 19.495C42.4399 19.355 42.4702 19.2057 42.4702 19.047C42.4702 18.851 42.4165 18.69 42.3092 18.564C42.2065 18.4333 42.0689 18.3237 41.8962 18.235C41.7235 18.1417 41.5252 18.0623 41.3012 17.997C41.0819 17.927 40.8555 17.8547 40.6222 17.78C40.3935 17.7053 40.1672 17.6213 39.9432 17.528C39.7239 17.43 39.5279 17.3087 39.3552 17.164C39.1825 17.0193 39.0425 16.842 38.9352 16.632C38.8325 16.4173 38.7812 16.1583 38.7812 15.855C38.7812 15.5843 38.8372 15.3253 38.9492 15.078C39.0612 14.826 39.2245 14.6067 39.4392 14.42C39.6539 14.2287 39.9175 14.077 40.2302 13.965C40.5429 13.853 40.8999 13.797 41.3012 13.797C41.7679 13.797 42.1855 13.8717 42.5542 14.021C42.9275 14.1657 43.2495 14.3663 43.5202 14.623L43.2402 15.078ZM47.3995 21.112C46.8395 21.112 46.4078 20.9557 46.1045 20.643C45.8058 20.3303 45.6565 19.88 45.6565 19.292V14.952H44.8025C44.7278 14.952 44.6648 14.931 44.6135 14.889C44.5622 14.8423 44.5365 14.7723 44.5365 14.679V14.182L45.6985 14.035L45.9855 11.844C45.9948 11.774 46.0252 11.718 46.0765 11.676C46.1278 11.6293 46.1932 11.606 46.2725 11.606H46.9025V14.049H48.9325V14.952H46.9025V19.208C46.9025 19.5067 46.9748 19.7283 47.1195 19.873C47.2642 20.0177 47.4508 20.09 47.6795 20.09C47.8102 20.09 47.9222 20.0737 48.0155 20.041C48.1135 20.0037 48.1975 19.964 48.2675 19.922C48.3375 19.88 48.3958 19.8427 48.4425 19.81C48.4938 19.7727 48.5382 19.754 48.5755 19.754C48.6408 19.754 48.6992 19.7937 48.7505 19.873L49.1145 20.468C48.8998 20.6687 48.6408 20.8273 48.3375 20.944C48.0342 21.056 47.7215 21.112 47.3995 21.112ZM57.2402 15.078C57.1842 15.1807 57.0979 15.232 56.9812 15.232C56.9112 15.232 56.8319 15.2063 56.7432 15.155C56.6545 15.1037 56.5449 15.0477 56.4142 14.987C56.2882 14.9217 56.1365 14.8633 55.9592 14.812C55.7819 14.756 55.5719 14.728 55.3292 14.728C55.1192 14.728 54.9302 14.756 54.7622 14.812C54.5942 14.8633 54.4495 14.9357 54.3282 15.029C54.2115 15.1223 54.1205 15.232 54.0552 15.358C53.9945 15.4793 53.9642 15.6123 53.9642 15.757C53.9642 15.939 54.0155 16.0907 54.1182 16.212C54.2255 16.3333 54.3655 16.4383 54.5382 16.527C54.7109 16.6157 54.9069 16.695 55.1262 16.765C55.3455 16.8303 55.5695 16.9027 55.7982 16.982C56.0315 17.0567 56.2579 17.1407 56.4772 17.234C56.6965 17.3273 56.8925 17.444 57.0652 17.584C57.2379 17.724 57.3755 17.8967 57.4782 18.102C57.5855 18.3027 57.6392 18.5453 57.6392 18.83C57.6392 19.1567 57.5809 19.46 57.4642 19.74C57.3475 20.0153 57.1749 20.2557 56.9462 20.461C56.7175 20.6617 56.4375 20.8203 56.1062 20.937C55.7749 21.0537 55.3922 21.112 54.9582 21.112C54.4635 21.112 54.0155 21.0327 53.6142 20.874C53.2129 20.7107 52.8722 20.503 52.5922 20.251L52.8862 19.775C52.9235 19.7143 52.9679 19.6677 53.0192 19.635C53.0705 19.6023 53.1382 19.586 53.2222 19.586C53.3062 19.586 53.3949 19.6187 53.4882 19.684C53.5815 19.7493 53.6935 19.8217 53.8242 19.901C53.9595 19.9803 54.1205 20.0527 54.3072 20.118C54.4985 20.1833 54.7365 20.216 55.0212 20.216C55.2639 20.216 55.4762 20.1857 55.6582 20.125C55.8402 20.0597 55.9919 19.9733 56.1132 19.866C56.2345 19.7587 56.3232 19.635 56.3792 19.495C56.4399 19.355 56.4702 19.2057 56.4702 19.047C56.4702 18.851 56.4165 18.69 56.3092 18.564C56.2065 18.4333 56.0689 18.3237 55.8962 18.235C55.7235 18.1417 55.5252 18.0623 55.3012 17.997C55.0819 17.927 54.8555 17.8547 54.6222 17.78C54.3935 17.7053 54.1672 17.6213 53.9432 17.528C53.7239 17.43 53.5279 17.3087 53.3552 17.164C53.1825 17.0193 53.0425 16.842 52.9352 16.632C52.8325 16.4173 52.7812 16.1583 52.7812 15.855C52.7812 15.5843 52.8372 15.3253 52.9492 15.078C53.0612 14.826 53.2245 14.6067 53.4392 14.42C53.6539 14.2287 53.9175 14.077 54.2302 13.965C54.5429 13.853 54.8999 13.797 55.3012 13.797C55.7679 13.797 56.1855 13.8717 56.5542 14.021C56.9275 14.1657 57.2495 14.3663 57.5202 14.623L57.2402 15.078ZM62.0575 13.797C62.4822 13.797 62.8742 13.8693 63.2335 14.014C63.5928 14.154 63.9032 14.3593 64.1645 14.63C64.4258 14.896 64.6288 15.2273 64.7735 15.624C64.9228 16.016 64.9975 16.464 64.9975 16.968C64.9975 17.164 64.9765 17.2947 64.9345 17.36C64.8925 17.4253 64.8132 17.458 64.6965 17.458H59.9785C59.9878 17.906 60.0485 18.2957 60.1605 18.627C60.2725 18.9583 60.4265 19.236 60.6225 19.46C60.8185 19.6793 61.0518 19.845 61.3225 19.957C61.5932 20.0643 61.8965 20.118 62.2325 20.118C62.5452 20.118 62.8135 20.083 63.0375 20.013C63.2662 19.9383 63.4622 19.859 63.6255 19.775C63.7888 19.691 63.9242 19.614 64.0315 19.544C64.1435 19.4693 64.2392 19.432 64.3185 19.432C64.4212 19.432 64.5005 19.4717 64.5565 19.551L64.9065 20.006C64.7525 20.1927 64.5682 20.356 64.3535 20.496C64.1388 20.6313 63.9078 20.7433 63.6605 20.832C63.4178 20.9207 63.1658 20.986 62.9045 21.028C62.6432 21.0747 62.3842 21.098 62.1275 21.098C61.6375 21.098 61.1848 21.0163 60.7695 20.853C60.3588 20.685 60.0018 20.4423 59.6985 20.125C59.3998 19.803 59.1665 19.4063 58.9985 18.935C58.8305 18.4637 58.7465 17.9223 58.7465 17.311C58.7465 16.8163 58.8212 16.3543 58.9705 15.925C59.1245 15.4957 59.3438 15.1247 59.6285 14.812C59.9132 14.4947 60.2608 14.2473 60.6715 14.07C61.0822 13.888 61.5442 13.797 62.0575 13.797ZM62.0855 14.714C61.4835 14.714 61.0098 14.889 60.6645 15.239C60.3192 15.5843 60.1045 16.065 60.0205 16.681H63.8775C63.8775 16.3917 63.8378 16.128 63.7585 15.89C63.6792 15.6473 63.5625 15.4397 63.4085 15.267C63.2545 15.0897 63.0655 14.9543 62.8415 14.861C62.6222 14.763 62.3702 14.714 62.0855 14.714ZM71.4293 15.169C71.392 15.2203 71.3546 15.26 71.3173 15.288C71.28 15.316 71.2263 15.33 71.1563 15.33C71.0863 15.33 71.0093 15.302 70.9253 15.246C70.846 15.1853 70.7433 15.12 70.6173 15.05C70.4913 14.98 70.3373 14.917 70.1553 14.861C69.978 14.8003 69.7586 14.77 69.4973 14.77C69.152 14.77 68.8463 14.833 68.5803 14.959C68.3143 15.0803 68.0903 15.2577 67.9083 15.491C67.731 15.7243 67.5956 16.0067 67.5023 16.338C67.4136 16.6693 67.3693 17.0403 67.3693 17.451C67.3693 17.8803 67.4183 18.263 67.5163 18.599C67.6143 18.9303 67.752 19.2103 67.9293 19.439C68.1066 19.663 68.3213 19.8357 68.5733 19.957C68.83 20.0737 69.117 20.132 69.4343 20.132C69.7376 20.132 69.9873 20.097 70.1833 20.027C70.3793 19.9523 70.5426 19.8707 70.6733 19.782C70.804 19.6933 70.9113 19.614 70.9953 19.544C71.0793 19.4693 71.1633 19.432 71.2473 19.432C71.3546 19.432 71.434 19.4717 71.4853 19.551L71.8353 20.006C71.5273 20.384 71.1423 20.6617 70.6803 20.839C70.2183 21.0117 69.7306 21.098 69.2173 21.098C68.774 21.098 68.361 21.0163 67.9783 20.853C67.6003 20.6897 67.2713 20.454 66.9913 20.146C66.7113 19.8333 66.4896 19.4507 66.3263 18.998C66.1676 18.5453 66.0883 18.0297 66.0883 17.451C66.0883 16.9237 66.1606 16.436 66.3053 15.988C66.4546 15.54 66.6693 15.155 66.9493 14.833C67.234 14.5063 67.584 14.252 67.9993 14.07C68.4146 13.888 68.8906 13.797 69.4273 13.797C69.922 13.797 70.3606 13.8787 70.7433 14.042C71.126 14.2007 71.4643 14.427 71.7583 14.721L71.4293 15.169ZM75.2765 21.112C74.7165 21.112 74.2848 20.9557 73.9815 20.643C73.6828 20.3303 73.5335 19.88 73.5335 19.292V14.952H72.6795C72.6048 14.952 72.5418 14.931 72.4905 14.889C72.4391 14.8423 72.4135 14.7723 72.4135 14.679V14.182L73.5755 14.035L73.8625 11.844C73.8718 11.774 73.9021 11.718 73.9535 11.676C74.0048 11.6293 74.0701 11.606 74.1495 11.606H74.7795V14.049H76.8095V14.952H74.7795V19.208C74.7795 19.5067 74.8518 19.7283 74.9965 19.873C75.1411 20.0177 75.3278 20.09 75.5565 20.09C75.6871 20.09 75.7991 20.0737 75.8925 20.041C75.9905 20.0037 76.0745 19.964 76.1445 19.922C76.2145 19.88 76.2728 19.8427 76.3195 19.81C76.3708 19.7727 76.4151 19.754 76.4525 19.754C76.5178 19.754 76.5761 19.7937 76.6275 19.873L76.9915 20.468C76.7768 20.6687 76.5178 20.8273 76.2145 20.944C75.9111 21.056 75.5985 21.112 75.2765 21.112ZM79.7361 13.909V21H78.4901V13.909H79.7361ZM80.0161 11.683C80.0161 11.8043 79.9905 11.9187 79.9391 12.026C79.8925 12.1287 79.8271 12.222 79.7431 12.306C79.6638 12.3853 79.5705 12.4483 79.4631 12.495C79.3558 12.5417 79.2415 12.565 79.1201 12.565C78.9988 12.565 78.8845 12.5417 78.7771 12.495C78.6745 12.4483 78.5811 12.3853 78.4971 12.306C78.4178 12.222 78.3548 12.1287 78.3081 12.026C78.2615 11.9187 78.2381 11.8043 78.2381 11.683C78.2381 11.5617 78.2615 11.4473 78.3081 11.34C78.3548 11.228 78.4178 11.1323 78.4971 11.053C78.5811 10.969 78.6745 10.9037 78.7771 10.857C78.8845 10.8103 78.9988 10.787 79.1201 10.787C79.2415 10.787 79.3558 10.8103 79.4631 10.857C79.5705 10.9037 79.6638 10.969 79.7431 11.053C79.8271 11.1323 79.8925 11.228 79.9391 11.34C79.9905 11.4473 80.0161 11.5617 80.0161 11.683ZM84.8022 13.797C85.3202 13.797 85.7868 13.8833 86.2022 14.056C86.6222 14.2287 86.9768 14.4737 87.2662 14.791C87.5602 15.1083 87.7842 15.4933 87.9382 15.946C88.0968 16.394 88.1762 16.8957 88.1762 17.451C88.1762 18.011 88.0968 18.515 87.9382 18.963C87.7842 19.411 87.5602 19.7937 87.2662 20.111C86.9768 20.4283 86.6222 20.6733 86.2022 20.846C85.7868 21.014 85.3202 21.098 84.8022 21.098C84.2842 21.098 83.8152 21.014 83.3952 20.846C82.9798 20.6733 82.6252 20.4283 82.3312 20.111C82.0372 19.7937 81.8108 19.411 81.6522 18.963C81.4935 18.515 81.4142 18.011 81.4142 17.451C81.4142 16.8957 81.4935 16.394 81.6522 15.946C81.8108 15.4933 82.0372 15.1083 82.3312 14.791C82.6252 14.4737 82.9798 14.2287 83.3952 14.056C83.8152 13.8833 84.2842 13.797 84.8022 13.797ZM84.8022 20.125C85.5022 20.125 86.0248 19.8917 86.3702 19.425C86.7155 18.9537 86.8882 18.298 86.8882 17.458C86.8882 16.6133 86.7155 15.9553 86.3702 15.484C86.0248 15.0127 85.5022 14.777 84.8022 14.777C84.4475 14.777 84.1395 14.8377 83.8782 14.959C83.6168 15.0803 83.3975 15.2553 83.2202 15.484C83.0475 15.7127 82.9168 15.995 82.8282 16.331C82.7442 16.6623 82.7022 17.038 82.7022 17.458C82.7022 17.878 82.7442 18.2537 82.8282 18.585C82.9168 18.9163 83.0475 19.1963 83.2202 19.425C83.3975 19.649 83.6168 19.8217 83.8782 19.943C84.1395 20.0643 84.4475 20.125 84.8022 20.125ZM89.7115 21V13.909H90.4535C90.6308 13.909 90.7428 13.9953 90.7895 14.168L90.8875 14.938C91.1955 14.5973 91.5385 14.322 91.9165 14.112C92.2991 13.902 92.7401 13.797 93.2395 13.797C93.6268 13.797 93.9675 13.8623 94.2615 13.993C94.5601 14.119 94.8075 14.301 95.0035 14.539C95.2041 14.7723 95.3558 15.0547 95.4585 15.386C95.5611 15.7173 95.6125 16.0837 95.6125 16.485V21H94.3665V16.485C94.3665 15.9483 94.2428 15.533 93.9955 15.239C93.7528 14.9403 93.3795 14.791 92.8755 14.791C92.5068 14.791 92.1615 14.8797 91.8395 15.057C91.5221 15.2343 91.2281 15.4747 90.9575 15.778V21H89.7115Z" fill="white"/>
</svg>
