<svg width="800" height="530" viewBox="0 0 800 530" fill="none" xmlns="http://www.w3.org/2000/svg">
<path d="M0 530H800V0H0V530Z" fill="#D1D1D1"/>
<path d="M0 50H800V20H0V50Z" fill="#171717"/>
<rect x="27" y="116" width="747" height="394" fill="white"/>
<rect x="27" y="116" width="747" height="35" fill="#626262"/>
<rect x="27" y="189" width="747" height="35" fill="#F9F9F9"/>
<rect x="27" y="262" width="747" height="35" fill="#F9F9F9"/>
<rect x="27" y="336" width="747" height="35" fill="#F9F9F9"/>
<rect x="27" y="410" width="747" height="35" fill="#F9F9F9"/>
<rect x="45" y="166" width="118" height="10" fill="#D1D1D1"/>
<rect x="45" y="201" width="98" height="10" fill="#D1D1D1"/>
<rect x="45" y="238" width="118" height="10" fill="#D1D1D1"/>
<rect x="45" y="274" width="98" height="10" fill="#D1D1D1"/>
<rect x="45" y="312" width="118" height="10" fill="#D1D1D1"/>
<rect x="45" y="349" width="118" height="10" fill="#D1D1D1"/>
<rect x="45" y="387" width="118" height="10" fill="#D1D1D1"/>
<rect x="45" y="423" width="98" height="10" fill="#D1D1D1"/>
<rect x="215" y="166" width="118" height="10" fill="#D1D1D1"/>
<rect x="215" y="201" width="98" height="10" fill="#D1D1D1"/>
<rect x="215" y="238" width="118" height="10" fill="#D1D1D1"/>
<rect x="215" y="274" width="98" height="10" fill="#D1D1D1"/>
<rect x="215" y="312" width="118" height="10" fill="#D1D1D1"/>
<rect x="215" y="349" width="118" height="10" fill="#D1D1D1"/>
<rect x="215" y="387" width="118" height="10" fill="#D1D1D1"/>
<rect x="215" y="423" width="98" height="10" fill="#D1D1D1"/>
<rect x="386" y="166" width="273" height="10" fill="#D1D1D1"/>
<rect x="386" y="201" width="273" height="10" fill="#D1D1D1"/>
<rect x="386" y="238" width="273" height="10" fill="#D1D1D1"/>
<rect x="386" y="274" width="273" height="10" fill="#D1D1D1"/>
<rect x="386" y="312" width="273" height="10" fill="#D1D1D1"/>
<rect x="386" y="349" width="273" height="10" fill="#D1D1D1"/>
<rect x="386" y="387" width="273" height="10" fill="#D1D1D1"/>
<rect x="386" y="423" width="273" height="10" fill="#D1D1D1"/>
<rect x="687" y="166" width="67" height="10" fill="#D1D1D1"/>
<rect x="687" y="201" width="67" height="10" fill="#D1D1D1"/>
<rect x="687" y="238" width="67" height="10" fill="#D1D1D1"/>
<rect x="687" y="274" width="67" height="10" fill="#D1D1D1"/>
<rect x="687" y="312" width="67" height="10" fill="#D1D1D1"/>
<rect x="687" y="349" width="67" height="10" fill="#D1D1D1"/>
<rect x="687" y="387" width="67" height="10" fill="#D1D1D1"/>
<rect x="687" y="423" width="67" height="10" fill="#D1D1D1"/>
<rect x="26.5" y="65.5" width="235" height="31" rx="15.5" stroke="#D8D8D8"/>
<rect x="29" y="68" width="111" height="26" rx="13" fill="#0064D1"/>
<path d="M158.007 77.537C157.965 77.607 157.921 77.6607 157.874 77.698C157.828 77.7307 157.767 77.747 157.692 77.747C157.613 77.747 157.52 77.7073 157.412 77.628C157.31 77.5487 157.177 77.4623 157.013 77.369C156.855 77.271 156.661 77.1823 156.432 77.103C156.208 77.0237 155.935 76.984 155.613 76.984C155.31 76.984 155.042 77.026 154.808 77.11C154.575 77.1893 154.379 77.299 154.22 77.439C154.066 77.579 153.95 77.7447 153.87 77.936C153.791 78.1227 153.751 78.3257 153.751 78.545C153.751 78.825 153.819 79.0583 153.954 79.245C154.094 79.427 154.276 79.5833 154.5 79.714C154.729 79.8447 154.986 79.959 155.27 80.057C155.56 80.1503 155.854 80.2483 156.152 80.351C156.456 80.4537 156.75 80.5703 157.034 80.701C157.324 80.827 157.58 80.988 157.804 81.184C158.033 81.38 158.215 81.6203 158.35 81.905C158.49 82.1897 158.56 82.5397 158.56 82.955C158.56 83.3937 158.486 83.8067 158.336 84.194C158.187 84.5767 157.968 84.9103 157.678 85.195C157.394 85.4797 157.041 85.7037 156.621 85.867C156.206 86.0303 155.732 86.112 155.2 86.112C154.552 86.112 153.959 85.9953 153.422 85.762C152.89 85.524 152.435 85.2043 152.057 84.803L152.449 84.159C152.487 84.1077 152.531 84.0657 152.582 84.033C152.638 83.9957 152.699 83.977 152.764 83.977C152.862 83.977 152.974 84.0307 153.1 84.138C153.226 84.2407 153.383 84.355 153.569 84.481C153.761 84.607 153.989 84.7237 154.255 84.831C154.526 84.9337 154.855 84.985 155.242 84.985C155.564 84.985 155.851 84.9407 156.103 84.852C156.355 84.7633 156.568 84.6397 156.74 84.481C156.918 84.3177 157.053 84.124 157.146 83.9C157.24 83.676 157.286 83.4263 157.286 83.151C157.286 82.8477 157.216 82.6003 157.076 82.409C156.941 82.213 156.761 82.0497 156.537 81.919C156.313 81.7883 156.057 81.6787 155.767 81.59C155.483 81.4967 155.189 81.4033 154.885 81.31C154.587 81.212 154.293 81.1 154.003 80.974C153.719 80.848 153.464 80.6847 153.24 80.484C153.016 80.2833 152.834 80.0337 152.694 79.735C152.559 79.4317 152.491 79.0583 152.491 78.615C152.491 78.2603 152.559 77.9173 152.694 77.586C152.834 77.2547 153.035 76.9607 153.296 76.704C153.558 76.4473 153.88 76.242 154.262 76.088C154.65 75.934 155.093 75.857 155.592 75.857C156.152 75.857 156.663 75.9457 157.125 76.123C157.587 76.3003 157.991 76.557 158.336 76.893L158.007 77.537ZM162.904 78.797C163.329 78.797 163.721 78.8693 164.08 79.014C164.44 79.154 164.75 79.3593 165.011 79.63C165.273 79.896 165.476 80.2273 165.62 80.624C165.77 81.016 165.844 81.464 165.844 81.968C165.844 82.164 165.823 82.2947 165.781 82.36C165.739 82.4253 165.66 82.458 165.543 82.458H160.825C160.835 82.906 160.895 83.2957 161.007 83.627C161.119 83.9583 161.273 84.236 161.469 84.46C161.665 84.6793 161.899 84.845 162.169 84.957C162.44 85.0643 162.743 85.118 163.079 85.118C163.392 85.118 163.66 85.083 163.884 85.013C164.113 84.9383 164.309 84.859 164.472 84.775C164.636 84.691 164.771 84.614 164.878 84.544C164.99 84.4693 165.086 84.432 165.165 84.432C165.268 84.432 165.347 84.4717 165.403 84.551L165.753 85.006C165.599 85.1927 165.415 85.356 165.2 85.496C164.986 85.6313 164.755 85.7433 164.507 85.832C164.265 85.9207 164.013 85.986 163.751 86.028C163.49 86.0747 163.231 86.098 162.974 86.098C162.484 86.098 162.032 86.0163 161.616 85.853C161.206 85.685 160.849 85.4423 160.545 85.125C160.247 84.803 160.013 84.4063 159.845 83.935C159.677 83.4637 159.593 82.9223 159.593 82.311C159.593 81.8163 159.668 81.3543 159.817 80.925C159.971 80.4957 160.191 80.1247 160.475 79.812C160.76 79.4947 161.108 79.2473 161.518 79.07C161.929 78.888 162.391 78.797 162.904 78.797ZM162.932 79.714C162.33 79.714 161.857 79.889 161.511 80.239C161.166 80.5843 160.951 81.065 160.867 81.681H164.724C164.724 81.3917 164.685 81.128 164.605 80.89C164.526 80.6473 164.409 80.4397 164.255 80.267C164.101 80.0897 163.912 79.9543 163.688 79.861C163.469 79.763 163.217 79.714 162.932 79.714ZM172.276 80.169C172.239 80.2203 172.201 80.26 172.164 80.288C172.127 80.316 172.073 80.33 172.003 80.33C171.933 80.33 171.856 80.302 171.772 80.246C171.693 80.1853 171.59 80.12 171.464 80.05C171.338 79.98 171.184 79.917 171.002 79.861C170.825 79.8003 170.605 79.77 170.344 79.77C169.999 79.77 169.693 79.833 169.427 79.959C169.161 80.0803 168.937 80.2577 168.755 80.491C168.578 80.7243 168.442 81.0067 168.349 81.338C168.26 81.6693 168.216 82.0403 168.216 82.451C168.216 82.8803 168.265 83.263 168.363 83.599C168.461 83.9303 168.599 84.2103 168.776 84.439C168.953 84.663 169.168 84.8357 169.42 84.957C169.677 85.0737 169.964 85.132 170.281 85.132C170.584 85.132 170.834 85.097 171.03 85.027C171.226 84.9523 171.389 84.8707 171.52 84.782C171.651 84.6933 171.758 84.614 171.842 84.544C171.926 84.4693 172.01 84.432 172.094 84.432C172.201 84.432 172.281 84.4717 172.332 84.551L172.682 85.006C172.374 85.384 171.989 85.6617 171.527 85.839C171.065 86.0117 170.577 86.098 170.064 86.098C169.621 86.098 169.208 86.0163 168.825 85.853C168.447 85.6897 168.118 85.454 167.838 85.146C167.558 84.8333 167.336 84.4507 167.173 83.998C167.014 83.5453 166.935 83.0297 166.935 82.451C166.935 81.9237 167.007 81.436 167.152 80.988C167.301 80.54 167.516 80.155 167.796 79.833C168.081 79.5063 168.431 79.252 168.846 79.07C169.261 78.888 169.737 78.797 170.274 78.797C170.769 78.797 171.207 78.8787 171.59 79.042C171.973 79.2007 172.311 79.427 172.605 79.721L172.276 80.169ZM176.844 78.797C177.362 78.797 177.829 78.8833 178.244 79.056C178.664 79.2287 179.019 79.4737 179.308 79.791C179.602 80.1083 179.826 80.4933 179.98 80.946C180.139 81.394 180.218 81.8957 180.218 82.451C180.218 83.011 180.139 83.515 179.98 83.963C179.826 84.411 179.602 84.7937 179.308 85.111C179.019 85.4283 178.664 85.6733 178.244 85.846C177.829 86.014 177.362 86.098 176.844 86.098C176.326 86.098 175.857 86.014 175.437 85.846C175.022 85.6733 174.667 85.4283 174.373 85.111C174.079 84.7937 173.853 84.411 173.694 83.963C173.535 83.515 173.456 83.011 173.456 82.451C173.456 81.8957 173.535 81.394 173.694 80.946C173.853 80.4933 174.079 80.1083 174.373 79.791C174.667 79.4737 175.022 79.2287 175.437 79.056C175.857 78.8833 176.326 78.797 176.844 78.797ZM176.844 85.125C177.544 85.125 178.067 84.8917 178.412 84.425C178.757 83.9537 178.93 83.298 178.93 82.458C178.93 81.6133 178.757 80.9553 178.412 80.484C178.067 80.0127 177.544 79.777 176.844 79.777C176.489 79.777 176.181 79.8377 175.92 79.959C175.659 80.0803 175.439 80.2553 175.262 80.484C175.089 80.7127 174.959 80.995 174.87 81.331C174.786 81.6623 174.744 82.038 174.744 82.458C174.744 82.878 174.786 83.2537 174.87 83.585C174.959 83.9163 175.089 84.1963 175.262 84.425C175.439 84.649 175.659 84.8217 175.92 84.943C176.181 85.0643 176.489 85.125 176.844 85.125ZM181.753 86V78.909H182.495C182.673 78.909 182.785 78.9953 182.831 79.168L182.929 79.938C183.237 79.5973 183.58 79.322 183.958 79.112C184.341 78.902 184.782 78.797 185.281 78.797C185.669 78.797 186.009 78.8623 186.303 78.993C186.602 79.119 186.849 79.301 187.045 79.539C187.246 79.7723 187.398 80.0547 187.5 80.386C187.603 80.7173 187.654 81.0837 187.654 81.485V86H186.408V81.485C186.408 80.9483 186.285 80.533 186.037 80.239C185.795 79.9403 185.421 79.791 184.917 79.791C184.549 79.791 184.203 79.8797 183.881 80.057C183.564 80.2343 183.27 80.4747 182.999 80.778V86H181.753ZM194.524 86C194.346 86 194.234 85.9137 194.188 85.741L194.076 84.88C193.772 85.2487 193.425 85.545 193.033 85.769C192.645 85.9883 192.2 86.098 191.696 86.098C191.29 86.098 190.921 86.021 190.59 85.867C190.258 85.7083 189.976 85.4773 189.743 85.174C189.509 84.8707 189.33 84.4927 189.204 84.04C189.078 83.5873 189.015 83.067 189.015 82.479C189.015 81.9563 189.085 81.471 189.225 81.023C189.365 80.5703 189.565 80.1783 189.827 79.847C190.093 79.5157 190.415 79.2567 190.793 79.07C191.171 78.8787 191.6 78.783 192.081 78.783C192.515 78.783 192.886 78.8577 193.194 79.007C193.502 79.1517 193.777 79.357 194.02 79.623V75.689H195.266V86H194.524ZM192.109 85.09C192.515 85.09 192.869 84.9967 193.173 84.81C193.481 84.6233 193.763 84.3597 194.02 84.019V80.589C193.791 80.281 193.539 80.0663 193.264 79.945C192.993 79.819 192.692 79.756 192.361 79.756C191.698 79.756 191.189 79.9917 190.835 80.463C190.48 80.9343 190.303 81.6063 190.303 82.479C190.303 82.941 190.342 83.3377 190.422 83.669C190.501 83.9957 190.618 84.2663 190.772 84.481C190.926 84.691 191.115 84.845 191.339 84.943C191.563 85.041 191.819 85.09 192.109 85.09ZM204.12 80.078C204.064 80.1807 203.978 80.232 203.861 80.232C203.791 80.232 203.712 80.2063 203.623 80.155C203.534 80.1037 203.425 80.0477 203.294 79.987C203.168 79.9217 203.016 79.8633 202.839 79.812C202.662 79.756 202.452 79.728 202.209 79.728C201.999 79.728 201.81 79.756 201.642 79.812C201.474 79.8633 201.329 79.9357 201.208 80.029C201.091 80.1223 201 80.232 200.935 80.358C200.874 80.4793 200.844 80.6123 200.844 80.757C200.844 80.939 200.895 81.0907 200.998 81.212C201.105 81.3333 201.245 81.4383 201.418 81.527C201.591 81.6157 201.787 81.695 202.006 81.765C202.225 81.8303 202.449 81.9027 202.678 81.982C202.911 82.0567 203.138 82.1407 203.357 82.234C203.576 82.3273 203.772 82.444 203.945 82.584C204.118 82.724 204.255 82.8967 204.358 83.102C204.465 83.3027 204.519 83.5453 204.519 83.83C204.519 84.1567 204.461 84.46 204.344 84.74C204.227 85.0153 204.055 85.2557 203.826 85.461C203.597 85.6617 203.317 85.8203 202.986 85.937C202.655 86.0537 202.272 86.112 201.838 86.112C201.343 86.112 200.895 86.0327 200.494 85.874C200.093 85.7107 199.752 85.503 199.472 85.251L199.766 84.775C199.803 84.7143 199.848 84.6677 199.899 84.635C199.95 84.6023 200.018 84.586 200.102 84.586C200.186 84.586 200.275 84.6187 200.368 84.684C200.461 84.7493 200.573 84.8217 200.704 84.901C200.839 84.9803 201 85.0527 201.187 85.118C201.378 85.1833 201.616 85.216 201.901 85.216C202.144 85.216 202.356 85.1857 202.538 85.125C202.72 85.0597 202.872 84.9733 202.993 84.866C203.114 84.7587 203.203 84.635 203.259 84.495C203.32 84.355 203.35 84.2057 203.35 84.047C203.35 83.851 203.296 83.69 203.189 83.564C203.086 83.4333 202.949 83.3237 202.776 83.235C202.603 83.1417 202.405 83.0623 202.181 82.997C201.962 82.927 201.735 82.8547 201.502 82.78C201.273 82.7053 201.047 82.6213 200.823 82.528C200.604 82.43 200.408 82.3087 200.235 82.164C200.062 82.0193 199.922 81.842 199.815 81.632C199.712 81.4173 199.661 81.1583 199.661 80.855C199.661 80.5843 199.717 80.3253 199.829 80.078C199.941 79.826 200.104 79.6067 200.319 79.42C200.534 79.2287 200.797 79.077 201.11 78.965C201.423 78.853 201.78 78.797 202.181 78.797C202.648 78.797 203.065 78.8717 203.434 79.021C203.807 79.1657 204.129 79.3663 204.4 79.623L204.12 80.078ZM208.937 78.797C209.362 78.797 209.754 78.8693 210.113 79.014C210.473 79.154 210.783 79.3593 211.044 79.63C211.306 79.896 211.509 80.2273 211.653 80.624C211.803 81.016 211.877 81.464 211.877 81.968C211.877 82.164 211.856 82.2947 211.814 82.36C211.772 82.4253 211.693 82.458 211.576 82.458H206.858C206.868 82.906 206.928 83.2957 207.04 83.627C207.152 83.9583 207.306 84.236 207.502 84.46C207.698 84.6793 207.932 84.845 208.202 84.957C208.473 85.0643 208.776 85.118 209.112 85.118C209.425 85.118 209.693 85.083 209.917 85.013C210.146 84.9383 210.342 84.859 210.505 84.775C210.669 84.691 210.804 84.614 210.911 84.544C211.023 84.4693 211.119 84.432 211.198 84.432C211.301 84.432 211.38 84.4717 211.436 84.551L211.786 85.006C211.632 85.1927 211.448 85.356 211.233 85.496C211.019 85.6313 210.788 85.7433 210.54 85.832C210.298 85.9207 210.046 85.986 209.784 86.028C209.523 86.0747 209.264 86.098 209.007 86.098C208.517 86.098 208.065 86.0163 207.649 85.853C207.239 85.685 206.882 85.4423 206.578 85.125C206.28 84.803 206.046 84.4063 205.878 83.935C205.71 83.4637 205.626 82.9223 205.626 82.311C205.626 81.8163 205.701 81.3543 205.85 80.925C206.004 80.4957 206.224 80.1247 206.508 79.812C206.793 79.4947 207.141 79.2473 207.551 79.07C207.962 78.888 208.424 78.797 208.937 78.797ZM208.965 79.714C208.363 79.714 207.89 79.889 207.544 80.239C207.199 80.5843 206.984 81.065 206.9 81.681H210.757C210.757 81.3917 210.718 81.128 210.638 80.89C210.559 80.6473 210.442 80.4397 210.288 80.267C210.134 80.0897 209.945 79.9543 209.721 79.861C209.502 79.763 209.25 79.714 208.965 79.714ZM218.309 80.169C218.272 80.2203 218.235 80.26 218.197 80.288C218.16 80.316 218.106 80.33 218.036 80.33C217.966 80.33 217.889 80.302 217.805 80.246C217.726 80.1853 217.623 80.12 217.497 80.05C217.371 79.98 217.217 79.917 217.035 79.861C216.858 79.8003 216.639 79.77 216.377 79.77C216.032 79.77 215.726 79.833 215.46 79.959C215.194 80.0803 214.97 80.2577 214.788 80.491C214.611 80.7243 214.476 81.0067 214.382 81.338C214.294 81.6693 214.249 82.0403 214.249 82.451C214.249 82.8803 214.298 83.263 214.396 83.599C214.494 83.9303 214.632 84.2103 214.809 84.439C214.987 84.663 215.201 84.8357 215.453 84.957C215.71 85.0737 215.997 85.132 216.314 85.132C216.618 85.132 216.867 85.097 217.063 85.027C217.259 84.9523 217.423 84.8707 217.553 84.782C217.684 84.6933 217.791 84.614 217.875 84.544C217.959 84.4693 218.043 84.432 218.127 84.432C218.235 84.432 218.314 84.4717 218.365 84.551L218.715 85.006C218.407 85.384 218.022 85.6617 217.56 85.839C217.098 86.0117 216.611 86.098 216.097 86.098C215.654 86.098 215.241 86.0163 214.858 85.853C214.48 85.6897 214.151 85.454 213.871 85.146C213.591 84.8333 213.37 84.4507 213.206 83.998C213.048 83.5453 212.968 83.0297 212.968 82.451C212.968 81.9237 213.041 81.436 213.185 80.988C213.335 80.54 213.549 80.155 213.829 79.833C214.114 79.5063 214.464 79.252 214.879 79.07C215.295 78.888 215.771 78.797 216.307 78.797C216.802 78.797 217.241 78.8787 217.623 79.042C218.006 79.2007 218.344 79.427 218.638 79.721L218.309 80.169ZM222.156 86.112C221.596 86.112 221.165 85.9557 220.861 85.643C220.563 85.3303 220.413 84.88 220.413 84.292V79.952H219.559C219.485 79.952 219.422 79.931 219.37 79.889C219.319 79.8423 219.293 79.7723 219.293 79.679V79.182L220.455 79.035L220.742 76.844C220.752 76.774 220.782 76.718 220.833 76.676C220.885 76.6293 220.95 76.606 221.029 76.606H221.659V79.049H223.689V79.952H221.659V84.208C221.659 84.5067 221.732 84.7283 221.876 84.873C222.021 85.0177 222.208 85.09 222.436 85.09C222.567 85.09 222.679 85.0737 222.772 85.041C222.87 85.0037 222.954 84.964 223.024 84.922C223.094 84.88 223.153 84.8427 223.199 84.81C223.251 84.7727 223.295 84.754 223.332 84.754C223.398 84.754 223.456 84.7937 223.507 84.873L223.871 85.468C223.657 85.6687 223.398 85.8273 223.094 85.944C222.791 86.056 222.478 86.112 222.156 86.112ZM226.616 78.909V86H225.37V78.909H226.616ZM226.896 76.683C226.896 76.8043 226.87 76.9187 226.819 77.026C226.772 77.1287 226.707 77.222 226.623 77.306C226.544 77.3853 226.45 77.4483 226.343 77.495C226.236 77.5417 226.121 77.565 226 77.565C225.879 77.565 225.764 77.5417 225.657 77.495C225.554 77.4483 225.461 77.3853 225.377 77.306C225.298 77.222 225.235 77.1287 225.188 77.026C225.141 76.9187 225.118 76.8043 225.118 76.683C225.118 76.5617 225.141 76.4473 225.188 76.34C225.235 76.228 225.298 76.1323 225.377 76.053C225.461 75.969 225.554 75.9037 225.657 75.857C225.764 75.8103 225.879 75.787 226 75.787C226.121 75.787 226.236 75.8103 226.343 75.857C226.45 75.9037 226.544 75.969 226.623 76.053C226.707 76.1323 226.772 76.228 226.819 76.34C226.87 76.4473 226.896 76.5617 226.896 76.683ZM231.682 78.797C232.2 78.797 232.667 78.8833 233.082 79.056C233.502 79.2287 233.857 79.4737 234.146 79.791C234.44 80.1083 234.664 80.4933 234.818 80.946C234.977 81.394 235.056 81.8957 235.056 82.451C235.056 83.011 234.977 83.515 234.818 83.963C234.664 84.411 234.44 84.7937 234.146 85.111C233.857 85.4283 233.502 85.6733 233.082 85.846C232.667 86.014 232.2 86.098 231.682 86.098C231.164 86.098 230.695 86.014 230.275 85.846C229.86 85.6733 229.505 85.4283 229.211 85.111C228.917 84.7937 228.691 84.411 228.532 83.963C228.373 83.515 228.294 83.011 228.294 82.451C228.294 81.8957 228.373 81.394 228.532 80.946C228.691 80.4933 228.917 80.1083 229.211 79.791C229.505 79.4737 229.86 79.2287 230.275 79.056C230.695 78.8833 231.164 78.797 231.682 78.797ZM231.682 85.125C232.382 85.125 232.905 84.8917 233.25 84.425C233.595 83.9537 233.768 83.298 233.768 82.458C233.768 81.6133 233.595 80.9553 233.25 80.484C232.905 80.0127 232.382 79.777 231.682 79.777C231.327 79.777 231.019 79.8377 230.758 79.959C230.497 80.0803 230.277 80.2553 230.1 80.484C229.927 80.7127 229.797 80.995 229.708 81.331C229.624 81.6623 229.582 82.038 229.582 82.458C229.582 82.878 229.624 83.2537 229.708 83.585C229.797 83.9163 229.927 84.1963 230.1 84.425C230.277 84.649 230.497 84.8217 230.758 84.943C231.019 85.0643 231.327 85.125 231.682 85.125ZM236.591 86V78.909H237.333C237.511 78.909 237.623 78.9953 237.669 79.168L237.767 79.938C238.075 79.5973 238.418 79.322 238.796 79.112C239.179 78.902 239.62 78.797 240.119 78.797C240.507 78.797 240.847 78.8623 241.141 78.993C241.44 79.119 241.687 79.301 241.883 79.539C242.084 79.7723 242.236 80.0547 242.338 80.386C242.441 80.7173 242.492 81.0837 242.492 81.485V86H241.246V81.485C241.246 80.9483 241.123 80.533 240.875 80.239C240.633 79.9403 240.259 79.791 239.755 79.791C239.387 79.791 239.041 79.8797 238.719 80.057C238.402 80.2343 238.108 80.4747 237.837 80.778V86H236.591Z" fill="black"/>
<path d="M54.399 75.969V77.075H49.583V80.582H53.699V81.688H49.583V86H48.218V75.969H54.399ZM57.3377 78.909V86H56.0917V78.909H57.3377ZM57.6177 76.683C57.6177 76.8043 57.592 76.9187 57.5407 77.026C57.494 77.1287 57.4287 77.222 57.3447 77.306C57.2654 77.3853 57.172 77.4483 57.0647 77.495C56.9574 77.5417 56.843 77.565 56.7217 77.565C56.6004 77.565 56.486 77.5417 56.3787 77.495C56.276 77.4483 56.1827 77.3853 56.0987 77.306C56.0194 77.222 55.9564 77.1287 55.9097 77.026C55.863 76.9187 55.8397 76.8043 55.8397 76.683C55.8397 76.5617 55.863 76.4473 55.9097 76.34C55.9564 76.228 56.0194 76.1323 56.0987 76.053C56.1827 75.969 56.276 75.9037 56.3787 75.857C56.486 75.8103 56.6004 75.787 56.7217 75.787C56.843 75.787 56.9574 75.8103 57.0647 75.857C57.172 75.9037 57.2654 75.969 57.3447 76.053C57.4287 76.1323 57.494 76.228 57.5407 76.34C57.592 76.4473 57.6177 76.5617 57.6177 76.683ZM59.5337 86V78.909H60.2477C60.3831 78.909 60.4764 78.9347 60.5277 78.986C60.5791 79.0373 60.6141 79.126 60.6327 79.252L60.7167 80.358C60.9594 79.8633 61.2581 79.4783 61.6127 79.203C61.9721 78.923 62.3921 78.783 62.8727 78.783C63.0687 78.783 63.2461 78.8063 63.4047 78.853C63.5634 78.895 63.7104 78.9557 63.8457 79.035L63.6847 79.966C63.6521 80.0827 63.5797 80.141 63.4677 80.141C63.4024 80.141 63.3021 80.12 63.1667 80.078C63.0314 80.0313 62.8424 80.008 62.5997 80.008C62.1657 80.008 61.8017 80.134 61.5077 80.386C61.2184 80.638 60.9757 81.0043 60.7797 81.485V86H59.5337ZM69.2402 80.078C69.1842 80.1807 69.0979 80.232 68.9812 80.232C68.9112 80.232 68.8319 80.2063 68.7432 80.155C68.6545 80.1037 68.5449 80.0477 68.4142 79.987C68.2882 79.9217 68.1365 79.8633 67.9592 79.812C67.7819 79.756 67.5719 79.728 67.3292 79.728C67.1192 79.728 66.9302 79.756 66.7622 79.812C66.5942 79.8633 66.4495 79.9357 66.3282 80.029C66.2115 80.1223 66.1205 80.232 66.0552 80.358C65.9945 80.4793 65.9642 80.6123 65.9642 80.757C65.9642 80.939 66.0155 81.0907 66.1182 81.212C66.2255 81.3333 66.3655 81.4383 66.5382 81.527C66.7109 81.6157 66.9069 81.695 67.1262 81.765C67.3455 81.8303 67.5695 81.9027 67.7982 81.982C68.0315 82.0567 68.2579 82.1407 68.4772 82.234C68.6965 82.3273 68.8925 82.444 69.0652 82.584C69.2379 82.724 69.3755 82.8967 69.4782 83.102C69.5855 83.3027 69.6392 83.5453 69.6392 83.83C69.6392 84.1567 69.5809 84.46 69.4642 84.74C69.3475 85.0153 69.1749 85.2557 68.9462 85.461C68.7175 85.6617 68.4375 85.8203 68.1062 85.937C67.7749 86.0537 67.3922 86.112 66.9582 86.112C66.4635 86.112 66.0155 86.0327 65.6142 85.874C65.2129 85.7107 64.8722 85.503 64.5922 85.251L64.8862 84.775C64.9235 84.7143 64.9679 84.6677 65.0192 84.635C65.0705 84.6023 65.1382 84.586 65.2222 84.586C65.3062 84.586 65.3949 84.6187 65.4882 84.684C65.5815 84.7493 65.6935 84.8217 65.8242 84.901C65.9595 84.9803 66.1205 85.0527 66.3072 85.118C66.4985 85.1833 66.7365 85.216 67.0212 85.216C67.2639 85.216 67.4762 85.1857 67.6582 85.125C67.8402 85.0597 67.9919 84.9733 68.1132 84.866C68.2345 84.7587 68.3232 84.635 68.3792 84.495C68.4399 84.355 68.4702 84.2057 68.4702 84.047C68.4702 83.851 68.4165 83.69 68.3092 83.564C68.2065 83.4333 68.0689 83.3237 67.8962 83.235C67.7235 83.1417 67.5252 83.0623 67.3012 82.997C67.0819 82.927 66.8555 82.8547 66.6222 82.78C66.3935 82.7053 66.1672 82.6213 65.9432 82.528C65.7239 82.43 65.5279 82.3087 65.3552 82.164C65.1825 82.0193 65.0425 81.842 64.9352 81.632C64.8325 81.4173 64.7812 81.1583 64.7812 80.855C64.7812 80.5843 64.8372 80.3253 64.9492 80.078C65.0612 79.826 65.2245 79.6067 65.4392 79.42C65.6539 79.2287 65.9175 79.077 66.2302 78.965C66.5429 78.853 66.8999 78.797 67.3012 78.797C67.7679 78.797 68.1855 78.8717 68.5542 79.021C68.9275 79.1657 69.2495 79.3663 69.5202 79.623L69.2402 80.078ZM73.3995 86.112C72.8395 86.112 72.4078 85.9557 72.1045 85.643C71.8058 85.3303 71.6565 84.88 71.6565 84.292V79.952H70.8025C70.7278 79.952 70.6648 79.931 70.6135 79.889C70.5622 79.8423 70.5365 79.7723 70.5365 79.679V79.182L71.6985 79.035L71.9855 76.844C71.9948 76.774 72.0252 76.718 72.0765 76.676C72.1278 76.6293 72.1932 76.606 72.2725 76.606H72.9025V79.049H74.9325V79.952H72.9025V84.208C72.9025 84.5067 72.9748 84.7283 73.1195 84.873C73.2642 85.0177 73.4508 85.09 73.6795 85.09C73.8102 85.09 73.9222 85.0737 74.0155 85.041C74.1135 85.0037 74.1975 84.964 74.2675 84.922C74.3375 84.88 74.3958 84.8427 74.4425 84.81C74.4938 84.7727 74.5382 84.754 74.5755 84.754C74.6408 84.754 74.6992 84.7937 74.7505 84.873L75.1145 85.468C74.8998 85.6687 74.6408 85.8273 74.3375 85.944C74.0342 86.056 73.7215 86.112 73.3995 86.112ZM83.2402 80.078C83.1842 80.1807 83.0979 80.232 82.9812 80.232C82.9112 80.232 82.8319 80.2063 82.7432 80.155C82.6545 80.1037 82.5449 80.0477 82.4142 79.987C82.2882 79.9217 82.1365 79.8633 81.9592 79.812C81.7819 79.756 81.5719 79.728 81.3292 79.728C81.1192 79.728 80.9302 79.756 80.7622 79.812C80.5942 79.8633 80.4495 79.9357 80.3282 80.029C80.2115 80.1223 80.1205 80.232 80.0552 80.358C79.9945 80.4793 79.9642 80.6123 79.9642 80.757C79.9642 80.939 80.0155 81.0907 80.1182 81.212C80.2255 81.3333 80.3655 81.4383 80.5382 81.527C80.7109 81.6157 80.9069 81.695 81.1262 81.765C81.3455 81.8303 81.5695 81.9027 81.7982 81.982C82.0315 82.0567 82.2579 82.1407 82.4772 82.234C82.6965 82.3273 82.8925 82.444 83.0652 82.584C83.2379 82.724 83.3755 82.8967 83.4782 83.102C83.5855 83.3027 83.6392 83.5453 83.6392 83.83C83.6392 84.1567 83.5809 84.46 83.4642 84.74C83.3475 85.0153 83.1749 85.2557 82.9462 85.461C82.7175 85.6617 82.4375 85.8203 82.1062 85.937C81.7749 86.0537 81.3922 86.112 80.9582 86.112C80.4635 86.112 80.0155 86.0327 79.6142 85.874C79.2129 85.7107 78.8722 85.503 78.5922 85.251L78.8862 84.775C78.9235 84.7143 78.9679 84.6677 79.0192 84.635C79.0705 84.6023 79.1382 84.586 79.2222 84.586C79.3062 84.586 79.3949 84.6187 79.4882 84.684C79.5815 84.7493 79.6935 84.8217 79.8242 84.901C79.9595 84.9803 80.1205 85.0527 80.3072 85.118C80.4985 85.1833 80.7365 85.216 81.0212 85.216C81.2639 85.216 81.4762 85.1857 81.6582 85.125C81.8402 85.0597 81.9919 84.9733 82.1132 84.866C82.2345 84.7587 82.3232 84.635 82.3792 84.495C82.4399 84.355 82.4702 84.2057 82.4702 84.047C82.4702 83.851 82.4165 83.69 82.3092 83.564C82.2065 83.4333 82.0689 83.3237 81.8962 83.235C81.7235 83.1417 81.5252 83.0623 81.3012 82.997C81.0819 82.927 80.8555 82.8547 80.6222 82.78C80.3935 82.7053 80.1672 82.6213 79.9432 82.528C79.7239 82.43 79.5279 82.3087 79.3552 82.164C79.1825 82.0193 79.0425 81.842 78.9352 81.632C78.8325 81.4173 78.7812 81.1583 78.7812 80.855C78.7812 80.5843 78.8372 80.3253 78.9492 80.078C79.0612 79.826 79.2245 79.6067 79.4392 79.42C79.6539 79.2287 79.9175 79.077 80.2302 78.965C80.5429 78.853 80.8999 78.797 81.3012 78.797C81.7679 78.797 82.1855 78.8717 82.5542 79.021C82.9275 79.1657 83.2495 79.3663 83.5202 79.623L83.2402 80.078ZM88.0575 78.797C88.4822 78.797 88.8742 78.8693 89.2335 79.014C89.5928 79.154 89.9032 79.3593 90.1645 79.63C90.4258 79.896 90.6288 80.2273 90.7735 80.624C90.9228 81.016 90.9975 81.464 90.9975 81.968C90.9975 82.164 90.9765 82.2947 90.9345 82.36C90.8925 82.4253 90.8132 82.458 90.6965 82.458H85.9785C85.9878 82.906 86.0485 83.2957 86.1605 83.627C86.2725 83.9583 86.4265 84.236 86.6225 84.46C86.8185 84.6793 87.0518 84.845 87.3225 84.957C87.5932 85.0643 87.8965 85.118 88.2325 85.118C88.5452 85.118 88.8135 85.083 89.0375 85.013C89.2662 84.9383 89.4622 84.859 89.6255 84.775C89.7888 84.691 89.9242 84.614 90.0315 84.544C90.1435 84.4693 90.2392 84.432 90.3185 84.432C90.4212 84.432 90.5005 84.4717 90.5565 84.551L90.9065 85.006C90.7525 85.1927 90.5682 85.356 90.3535 85.496C90.1388 85.6313 89.9078 85.7433 89.6605 85.832C89.4178 85.9207 89.1658 85.986 88.9045 86.028C88.6432 86.0747 88.3842 86.098 88.1275 86.098C87.6375 86.098 87.1848 86.0163 86.7695 85.853C86.3588 85.685 86.0018 85.4423 85.6985 85.125C85.3998 84.803 85.1665 84.4063 84.9985 83.935C84.8305 83.4637 84.7465 82.9223 84.7465 82.311C84.7465 81.8163 84.8212 81.3543 84.9705 80.925C85.1245 80.4957 85.3438 80.1247 85.6285 79.812C85.9132 79.4947 86.2608 79.2473 86.6715 79.07C87.0822 78.888 87.5442 78.797 88.0575 78.797ZM88.0855 79.714C87.4835 79.714 87.0098 79.889 86.6645 80.239C86.3192 80.5843 86.1045 81.065 86.0205 81.681H89.8775C89.8775 81.3917 89.8378 81.128 89.7585 80.89C89.6792 80.6473 89.5625 80.4397 89.4085 80.267C89.2545 80.0897 89.0655 79.9543 88.8415 79.861C88.6222 79.763 88.3702 79.714 88.0855 79.714ZM97.4293 80.169C97.392 80.2203 97.3546 80.26 97.3173 80.288C97.28 80.316 97.2263 80.33 97.1563 80.33C97.0863 80.33 97.0093 80.302 96.9253 80.246C96.846 80.1853 96.7433 80.12 96.6173 80.05C96.4913 79.98 96.3373 79.917 96.1553 79.861C95.978 79.8003 95.7586 79.77 95.4973 79.77C95.152 79.77 94.8463 79.833 94.5803 79.959C94.3143 80.0803 94.0903 80.2577 93.9083 80.491C93.731 80.7243 93.5956 81.0067 93.5023 81.338C93.4136 81.6693 93.3693 82.0403 93.3693 82.451C93.3693 82.8803 93.4183 83.263 93.5163 83.599C93.6143 83.9303 93.752 84.2103 93.9293 84.439C94.1066 84.663 94.3213 84.8357 94.5733 84.957C94.83 85.0737 95.117 85.132 95.4343 85.132C95.7376 85.132 95.9873 85.097 96.1833 85.027C96.3793 84.9523 96.5426 84.8707 96.6733 84.782C96.804 84.6933 96.9113 84.614 96.9953 84.544C97.0793 84.4693 97.1633 84.432 97.2473 84.432C97.3546 84.432 97.434 84.4717 97.4853 84.551L97.8353 85.006C97.5273 85.384 97.1423 85.6617 96.6803 85.839C96.2183 86.0117 95.7306 86.098 95.2173 86.098C94.774 86.098 94.361 86.0163 93.9783 85.853C93.6003 85.6897 93.2713 85.454 92.9913 85.146C92.7113 84.8333 92.4896 84.4507 92.3263 83.998C92.1676 83.5453 92.0883 83.0297 92.0883 82.451C92.0883 81.9237 92.1606 81.436 92.3053 80.988C92.4546 80.54 92.6693 80.155 92.9493 79.833C93.234 79.5063 93.584 79.252 93.9993 79.07C94.4146 78.888 94.8906 78.797 95.4273 78.797C95.922 78.797 96.3606 78.8787 96.7433 79.042C97.126 79.2007 97.4643 79.427 97.7583 79.721L97.4293 80.169ZM101.276 86.112C100.716 86.112 100.285 85.9557 99.9815 85.643C99.6828 85.3303 99.5335 84.88 99.5335 84.292V79.952H98.6795C98.6048 79.952 98.5418 79.931 98.4905 79.889C98.4391 79.8423 98.4135 79.7723 98.4135 79.679V79.182L99.5755 79.035L99.8625 76.844C99.8718 76.774 99.9021 76.718 99.9535 76.676C100.005 76.6293 100.07 76.606 100.149 76.606H100.779V79.049H102.809V79.952H100.779V84.208C100.779 84.5067 100.852 84.7283 100.996 84.873C101.141 85.0177 101.328 85.09 101.556 85.09C101.687 85.09 101.799 85.0737 101.892 85.041C101.99 85.0037 102.074 84.964 102.144 84.922C102.214 84.88 102.273 84.8427 102.319 84.81C102.371 84.7727 102.415 84.754 102.452 84.754C102.518 84.754 102.576 84.7937 102.627 84.873L102.991 85.468C102.777 85.6687 102.518 85.8273 102.214 85.944C101.911 86.056 101.598 86.112 101.276 86.112ZM105.736 78.909V86H104.49V78.909H105.736ZM106.016 76.683C106.016 76.8043 105.99 76.9187 105.939 77.026C105.892 77.1287 105.827 77.222 105.743 77.306C105.664 77.3853 105.57 77.4483 105.463 77.495C105.356 77.5417 105.241 77.565 105.12 77.565C104.999 77.565 104.884 77.5417 104.777 77.495C104.674 77.4483 104.581 77.3853 104.497 77.306C104.418 77.222 104.355 77.1287 104.308 77.026C104.261 76.9187 104.238 76.8043 104.238 76.683C104.238 76.5617 104.261 76.4473 104.308 76.34C104.355 76.228 104.418 76.1323 104.497 76.053C104.581 75.969 104.674 75.9037 104.777 75.857C104.884 75.8103 104.999 75.787 105.12 75.787C105.241 75.787 105.356 75.8103 105.463 75.857C105.57 75.9037 105.664 75.969 105.743 76.053C105.827 76.1323 105.892 76.228 105.939 76.34C105.99 76.4473 106.016 76.5617 106.016 76.683ZM110.802 78.797C111.32 78.797 111.787 78.8833 112.202 79.056C112.622 79.2287 112.977 79.4737 113.266 79.791C113.56 80.1083 113.784 80.4933 113.938 80.946C114.097 81.394 114.176 81.8957 114.176 82.451C114.176 83.011 114.097 83.515 113.938 83.963C113.784 84.411 113.56 84.7937 113.266 85.111C112.977 85.4283 112.622 85.6733 112.202 85.846C111.787 86.014 111.32 86.098 110.802 86.098C110.284 86.098 109.815 86.014 109.395 85.846C108.98 85.6733 108.625 85.4283 108.331 85.111C108.037 84.7937 107.811 84.411 107.652 83.963C107.493 83.515 107.414 83.011 107.414 82.451C107.414 81.8957 107.493 81.394 107.652 80.946C107.811 80.4933 108.037 80.1083 108.331 79.791C108.625 79.4737 108.98 79.2287 109.395 79.056C109.815 78.8833 110.284 78.797 110.802 78.797ZM110.802 85.125C111.502 85.125 112.025 84.8917 112.37 84.425C112.715 83.9537 112.888 83.298 112.888 82.458C112.888 81.6133 112.715 80.9553 112.37 80.484C112.025 80.0127 111.502 79.777 110.802 79.777C110.447 79.777 110.139 79.8377 109.878 79.959C109.617 80.0803 109.397 80.2553 109.22 80.484C109.047 80.7127 108.917 80.995 108.828 81.331C108.744 81.6623 108.702 82.038 108.702 82.458C108.702 82.878 108.744 83.2537 108.828 83.585C108.917 83.9163 109.047 84.1963 109.22 84.425C109.397 84.649 109.617 84.8217 109.878 84.943C110.139 85.0643 110.447 85.125 110.802 85.125ZM115.711 86V78.909H116.453C116.631 78.909 116.743 78.9953 116.789 79.168L116.887 79.938C117.195 79.5973 117.538 79.322 117.916 79.112C118.299 78.902 118.74 78.797 119.239 78.797C119.627 78.797 119.967 78.8623 120.261 78.993C120.56 79.119 120.807 79.301 121.003 79.539C121.204 79.7723 121.356 80.0547 121.458 80.386C121.561 80.7173 121.612 81.0837 121.612 81.485V86H120.366V81.485C120.366 80.9483 120.243 80.533 119.995 80.239C119.753 79.9403 119.379 79.791 118.875 79.791C118.507 79.791 118.161 79.8797 117.839 80.057C117.522 80.2343 117.228 80.4747 116.957 80.778V86H115.711Z" fill="white"/>
</svg>
