<svg width="91" height="210" viewBox="0 0 91 210" fill="none" xmlns="http://www.w3.org/2000/svg">
<line x1="0.5" y1="-2.18557e-08" x2="0.500009" y2="210" stroke="#DBDBDB"/>
<path fill-rule="evenodd" clip-rule="evenodd" d="M1.83588e-06 42L0 1.31134e-07L3 0L3 42L1.83588e-06 42Z" fill="#0064D1"/>
<path d="M33.264 16.328C33.216 16.408 33.1653 16.4693 33.112 16.512C33.0587 16.5493 32.9893 16.568 32.904 16.568C32.8133 16.568 32.7067 16.5227 32.584 16.432C32.4667 16.3413 32.3147 16.2427 32.128 16.136C31.9467 16.024 31.7253 15.9227 31.464 15.832C31.208 15.7413 30.896 15.696 30.528 15.696C30.1813 15.696 29.8747 15.744 29.608 15.84C29.3413 15.9307 29.1173 16.056 28.936 16.216C28.76 16.376 28.6267 16.5653 28.536 16.784C28.4453 16.9973 28.4 17.2293 28.4 17.48C28.4 17.8 28.4773 18.0667 28.632 18.28C28.792 18.488 29 18.6667 29.256 18.816C29.5173 18.9653 29.8107 19.096 30.136 19.208C30.4667 19.3147 30.8027 19.4267 31.144 19.544C31.4907 19.6613 31.8267 19.7947 32.152 19.944C32.4827 20.088 32.776 20.272 33.032 20.496C33.2933 20.72 33.5013 20.9947 33.656 21.32C33.816 21.6453 33.896 22.0453 33.896 22.52C33.896 23.0213 33.8107 23.4933 33.64 23.936C33.4693 24.3733 33.2187 24.7547 32.888 25.08C32.5627 25.4053 32.16 25.6613 31.68 25.848C31.2053 26.0347 30.664 26.128 30.056 26.128C29.3147 26.128 28.6373 25.9947 28.024 25.728C27.416 25.456 26.896 25.0907 26.464 24.632L26.912 23.896C26.9547 23.8373 27.0053 23.7893 27.064 23.752C27.128 23.7093 27.1973 23.688 27.272 23.688C27.384 23.688 27.512 23.7493 27.656 23.872C27.8 23.9893 27.9787 24.12 28.192 24.264C28.4107 24.408 28.672 24.5413 28.976 24.664C29.2853 24.7813 29.6613 24.84 30.104 24.84C30.472 24.84 30.8 24.7893 31.088 24.688C31.376 24.5867 31.6187 24.4453 31.816 24.264C32.0187 24.0773 32.1733 23.856 32.28 23.6C32.3867 23.344 32.44 23.0587 32.44 22.744C32.44 22.3973 32.36 22.1147 32.2 21.896C32.0453 21.672 31.84 21.4853 31.584 21.336C31.328 21.1867 31.0347 21.0613 30.704 20.96C30.3787 20.8533 30.0427 20.7467 29.696 20.64C29.3547 20.528 29.0187 20.4 28.688 20.256C28.3627 20.112 28.072 19.9253 27.816 19.696C27.56 19.4667 27.352 19.1813 27.192 18.84C27.0373 18.4933 26.96 18.0667 26.96 17.56C26.96 17.1547 27.0373 16.7627 27.192 16.384C27.352 16.0053 27.5813 15.6693 27.88 15.376C28.1787 15.0827 28.5467 14.848 28.984 14.672C29.4267 14.496 29.9333 14.408 30.504 14.408C31.144 14.408 31.728 14.5093 32.256 14.712C32.784 14.9147 33.2453 15.208 33.64 15.592L33.264 16.328ZM38.8604 17.768C39.3457 17.768 39.7937 17.8507 40.2044 18.016C40.615 18.176 40.9697 18.4107 41.2684 18.72C41.567 19.024 41.799 19.4027 41.9644 19.856C42.135 20.304 42.2204 20.816 42.2204 21.392C42.2204 21.616 42.1964 21.7653 42.1484 21.84C42.1004 21.9147 42.0097 21.952 41.8764 21.952H36.4844C36.495 22.464 36.5644 22.9093 36.6924 23.288C36.8204 23.6667 36.9964 23.984 37.2204 24.24C37.4444 24.4907 37.711 24.68 38.0204 24.808C38.3297 24.9307 38.6764 24.992 39.0604 24.992C39.4177 24.992 39.7244 24.952 39.9804 24.872C40.2417 24.7867 40.4657 24.696 40.6524 24.6C40.839 24.504 40.9937 24.416 41.1164 24.336C41.2444 24.2507 41.3537 24.208 41.4444 24.208C41.5617 24.208 41.6524 24.2533 41.7164 24.344L42.1164 24.864C41.9404 25.0773 41.7297 25.264 41.4844 25.424C41.239 25.5787 40.975 25.7067 40.6924 25.808C40.415 25.9093 40.127 25.984 39.8284 26.032C39.5297 26.0853 39.2337 26.112 38.9404 26.112C38.3804 26.112 37.863 26.0187 37.3884 25.832C36.919 25.64 36.511 25.3627 36.1644 25C35.823 24.632 35.5564 24.1787 35.3644 23.64C35.1724 23.1013 35.0764 22.4827 35.0764 21.784C35.0764 21.2187 35.1617 20.6907 35.3324 20.2C35.5084 19.7093 35.759 19.2853 36.0844 18.928C36.4097 18.5653 36.807 18.2827 37.2764 18.08C37.7457 17.872 38.2737 17.768 38.8604 17.768ZM38.8924 18.816C38.2044 18.816 37.663 19.016 37.2684 19.416C36.8737 19.8107 36.6284 20.36 36.5324 21.064H40.9404C40.9404 20.7333 40.895 20.432 40.8044 20.16C40.7137 19.8827 40.5804 19.6453 40.4044 19.448C40.2284 19.2453 40.0124 19.0907 39.7564 18.984C39.5057 18.872 39.2177 18.816 38.8924 18.816ZM49.571 19.336C49.5283 19.3947 49.4857 19.44 49.443 19.472C49.4003 19.504 49.339 19.52 49.259 19.52C49.179 19.52 49.091 19.488 48.995 19.424C48.9043 19.3547 48.787 19.28 48.643 19.2C48.499 19.12 48.323 19.048 48.115 18.984C47.9123 18.9147 47.6617 18.88 47.363 18.88C46.9683 18.88 46.619 18.952 46.315 19.096C46.011 19.2347 45.755 19.4373 45.547 19.704C45.3443 19.9707 45.1897 20.2933 45.083 20.672C44.9817 21.0507 44.931 21.4747 44.931 21.944C44.931 22.4347 44.987 22.872 45.099 23.256C45.211 23.6347 45.3683 23.9547 45.571 24.216C45.7737 24.472 46.019 24.6693 46.307 24.808C46.6003 24.9413 46.9283 25.008 47.291 25.008C47.6377 25.008 47.923 24.968 48.147 24.888C48.371 24.8027 48.5577 24.7093 48.707 24.608C48.8563 24.5067 48.979 24.416 49.075 24.336C49.171 24.2507 49.267 24.208 49.363 24.208C49.4857 24.208 49.5763 24.2533 49.635 24.344L50.035 24.864C49.683 25.296 49.243 25.6133 48.715 25.816C48.187 26.0133 47.6297 26.112 47.043 26.112C46.5363 26.112 46.0643 26.0187 45.627 25.832C45.195 25.6453 44.819 25.376 44.499 25.024C44.179 24.6667 43.9257 24.2293 43.739 23.712C43.5577 23.1947 43.467 22.6053 43.467 21.944C43.467 21.3413 43.5497 20.784 43.715 20.272C43.8857 19.76 44.131 19.32 44.451 18.952C44.7763 18.5787 45.1763 18.288 45.651 18.08C46.1257 17.872 46.6697 17.768 47.283 17.768C47.8483 17.768 48.3497 17.8613 48.787 18.048C49.2243 18.2293 49.611 18.488 49.947 18.824L49.571 19.336ZM53.9678 26.128C53.3278 26.128 52.8344 25.9493 52.4878 25.592C52.1464 25.2347 51.9758 24.72 51.9758 24.048V19.088H50.9998C50.9144 19.088 50.8424 19.064 50.7838 19.016C50.7251 18.9627 50.6958 18.8827 50.6958 18.776V18.208L52.0238 18.04L52.3518 15.536C52.3624 15.456 52.3971 15.392 52.4557 15.344C52.5144 15.2907 52.5891 15.264 52.6798 15.264H53.3998V18.056H55.7198V19.088H53.3998V23.952C53.3998 24.2933 53.4824 24.5467 53.6478 24.712C53.8131 24.8773 54.0264 24.96 54.2878 24.96C54.4371 24.96 54.5651 24.9413 54.6718 24.904C54.7838 24.8613 54.8798 24.816 54.9598 24.768C55.0398 24.72 55.1064 24.6773 55.1598 24.64C55.2184 24.5973 55.2691 24.576 55.3118 24.576C55.3864 24.576 55.4531 24.6213 55.5118 24.712L55.9278 25.392C55.6824 25.6213 55.3864 25.8027 55.0398 25.936C54.6931 26.064 54.3358 26.128 53.9678 26.128ZM59.0645 17.896V26H57.6405V17.896H59.0645ZM59.3845 15.352C59.3845 15.4907 59.3552 15.6213 59.2965 15.744C59.2432 15.8613 59.1685 15.968 59.0725 16.064C58.9818 16.1547 58.8752 16.2267 58.7525 16.28C58.6298 16.3333 58.4992 16.36 58.3605 16.36C58.2218 16.36 58.0912 16.3333 57.9685 16.28C57.8512 16.2267 57.7445 16.1547 57.6485 16.064C57.5578 15.968 57.4858 15.8613 57.4325 15.744C57.3792 15.6213 57.3525 15.4907 57.3525 15.352C57.3525 15.2133 57.3792 15.0827 57.4325 14.96C57.4858 14.832 57.5578 14.7227 57.6485 14.632C57.7445 14.536 57.8512 14.4613 57.9685 14.408C58.0912 14.3547 58.2218 14.328 58.3605 14.328C58.4992 14.328 58.6298 14.3547 58.7525 14.408C58.8752 14.4613 58.9818 14.536 59.0725 14.632C59.1685 14.7227 59.2432 14.832 59.2965 14.96C59.3552 15.0827 59.3845 15.2133 59.3845 15.352ZM64.8543 17.768C65.4463 17.768 65.9796 17.8667 66.4543 18.064C66.9343 18.2613 67.3396 18.5413 67.6703 18.904C68.0063 19.2667 68.2623 19.7067 68.4383 20.224C68.6196 20.736 68.7103 21.3093 68.7103 21.944C68.7103 22.584 68.6196 23.16 68.4383 23.672C68.2623 24.184 68.0063 24.6213 67.6703 24.984C67.3396 25.3467 66.9343 25.6267 66.4543 25.824C65.9796 26.016 65.4463 26.112 64.8543 26.112C64.2623 26.112 63.7263 26.016 63.2463 25.824C62.7716 25.6267 62.3663 25.3467 62.0303 24.984C61.6943 24.6213 61.4356 24.184 61.2543 23.672C61.0729 23.16 60.9823 22.584 60.9823 21.944C60.9823 21.3093 61.0729 20.736 61.2543 20.224C61.4356 19.7067 61.6943 19.2667 62.0303 18.904C62.3663 18.5413 62.7716 18.2613 63.2463 18.064C63.7263 17.8667 64.2623 17.768 64.8543 17.768ZM64.8543 25C65.6543 25 66.2516 24.7333 66.6463 24.2C67.0409 23.6613 67.2383 22.912 67.2383 21.952C67.2383 20.9867 67.0409 20.2347 66.6463 19.696C66.2516 19.1573 65.6543 18.888 64.8543 18.888C64.4489 18.888 64.0969 18.9573 63.7983 19.096C63.4996 19.2347 63.2489 19.4347 63.0463 19.696C62.8489 19.9573 62.6996 20.28 62.5983 20.664C62.5023 21.0427 62.4543 21.472 62.4543 21.952C62.4543 22.432 62.5023 22.8613 62.5983 23.24C62.6996 23.6187 62.8489 23.9387 63.0463 24.2C63.2489 24.456 63.4996 24.6533 63.7983 24.792C64.0969 24.9307 64.4489 25 64.8543 25ZM70.4649 26V17.896H71.3129C71.5155 17.896 71.6435 17.9947 71.6969 18.192L71.8089 19.072C72.1609 18.6827 72.5529 18.368 72.9849 18.128C73.4222 17.888 73.9262 17.768 74.4969 17.768C74.9395 17.768 75.3289 17.8427 75.6649 17.992C76.0062 18.136 76.2889 18.344 76.5129 18.616C76.7422 18.8827 76.9155 19.2053 77.0329 19.584C77.1502 19.9627 77.2089 20.3813 77.2089 20.84V26H75.7849V20.84C75.7849 20.2267 75.6435 19.752 75.3609 19.416C75.0835 19.0747 74.6569 18.904 74.0809 18.904C73.6595 18.904 73.2649 19.0053 72.8969 19.208C72.5342 19.4107 72.1982 19.6853 71.8889 20.032V26H70.4649ZM83.5773 24.912H86.0413V17.096C86.0413 16.8613 86.0493 16.624 86.0653 16.384L84.0173 18.136C83.9639 18.1787 83.9106 18.2107 83.8573 18.232C83.8039 18.248 83.7533 18.256 83.7053 18.256C83.6253 18.256 83.5533 18.24 83.4893 18.208C83.4253 18.1707 83.3773 18.128 83.3453 18.08L82.8973 17.464L86.3053 14.512H87.4653V24.912H89.7213V26H83.5773V24.912Z" fill="#0064D1"/>
<path d="M33.264 58.328C33.216 58.408 33.1653 58.4693 33.112 58.512C33.0587 58.5493 32.9893 58.568 32.904 58.568C32.8133 58.568 32.7067 58.5227 32.584 58.432C32.4667 58.3413 32.3147 58.2427 32.128 58.136C31.9467 58.024 31.7253 57.9227 31.464 57.832C31.208 57.7413 30.896 57.696 30.528 57.696C30.1813 57.696 29.8747 57.744 29.608 57.84C29.3413 57.9307 29.1173 58.056 28.936 58.216C28.76 58.376 28.6267 58.5653 28.536 58.784C28.4453 58.9973 28.4 59.2293 28.4 59.48C28.4 59.8 28.4773 60.0667 28.632 60.28C28.792 60.488 29 60.6667 29.256 60.816C29.5173 60.9653 29.8107 61.096 30.136 61.208C30.4667 61.3147 30.8027 61.4267 31.144 61.544C31.4907 61.6613 31.8267 61.7947 32.152 61.944C32.4827 62.088 32.776 62.272 33.032 62.496C33.2933 62.72 33.5013 62.9947 33.656 63.32C33.816 63.6453 33.896 64.0453 33.896 64.52C33.896 65.0213 33.8107 65.4933 33.64 65.936C33.4693 66.3733 33.2187 66.7547 32.888 67.08C32.5627 67.4053 32.16 67.6613 31.68 67.848C31.2053 68.0347 30.664 68.128 30.056 68.128C29.3147 68.128 28.6373 67.9947 28.024 67.728C27.416 67.456 26.896 67.0907 26.464 66.632L26.912 65.896C26.9547 65.8373 27.0053 65.7893 27.064 65.752C27.128 65.7093 27.1973 65.688 27.272 65.688C27.384 65.688 27.512 65.7493 27.656 65.872C27.8 65.9893 27.9787 66.12 28.192 66.264C28.4107 66.408 28.672 66.5413 28.976 66.664C29.2853 66.7813 29.6613 66.84 30.104 66.84C30.472 66.84 30.8 66.7893 31.088 66.688C31.376 66.5867 31.6187 66.4453 31.816 66.264C32.0187 66.0773 32.1733 65.856 32.28 65.6C32.3867 65.344 32.44 65.0587 32.44 64.744C32.44 64.3973 32.36 64.1147 32.2 63.896C32.0453 63.672 31.84 63.4853 31.584 63.336C31.328 63.1867 31.0347 63.0613 30.704 62.96C30.3787 62.8533 30.0427 62.7467 29.696 62.64C29.3547 62.528 29.0187 62.4 28.688 62.256C28.3627 62.112 28.072 61.9253 27.816 61.696C27.56 61.4667 27.352 61.1813 27.192 60.84C27.0373 60.4933 26.96 60.0667 26.96 59.56C26.96 59.1547 27.0373 58.7627 27.192 58.384C27.352 58.0053 27.5813 57.6693 27.88 57.376C28.1787 57.0827 28.5467 56.848 28.984 56.672C29.4267 56.496 29.9333 56.408 30.504 56.408C31.144 56.408 31.728 56.5093 32.256 56.712C32.784 56.9147 33.2453 57.208 33.64 57.592L33.264 58.328ZM38.8604 59.768C39.3457 59.768 39.7937 59.8507 40.2044 60.016C40.615 60.176 40.9697 60.4107 41.2684 60.72C41.567 61.024 41.799 61.4027 41.9644 61.856C42.135 62.304 42.2204 62.816 42.2204 63.392C42.2204 63.616 42.1964 63.7653 42.1484 63.84C42.1004 63.9147 42.0097 63.952 41.8764 63.952H36.4844C36.495 64.464 36.5644 64.9093 36.6924 65.288C36.8204 65.6667 36.9964 65.984 37.2204 66.24C37.4444 66.4907 37.711 66.68 38.0204 66.808C38.3297 66.9307 38.6764 66.992 39.0604 66.992C39.4177 66.992 39.7244 66.952 39.9804 66.872C40.2417 66.7867 40.4657 66.696 40.6524 66.6C40.839 66.504 40.9937 66.416 41.1164 66.336C41.2444 66.2507 41.3537 66.208 41.4444 66.208C41.5617 66.208 41.6524 66.2533 41.7164 66.344L42.1164 66.864C41.9404 67.0773 41.7297 67.264 41.4844 67.424C41.239 67.5787 40.975 67.7067 40.6924 67.808C40.415 67.9093 40.127 67.984 39.8284 68.032C39.5297 68.0853 39.2337 68.112 38.9404 68.112C38.3804 68.112 37.863 68.0187 37.3884 67.832C36.919 67.64 36.511 67.3627 36.1644 67C35.823 66.632 35.5564 66.1787 35.3644 65.64C35.1724 65.1013 35.0764 64.4827 35.0764 63.784C35.0764 63.2187 35.1617 62.6907 35.3324 62.2C35.5084 61.7093 35.759 61.2853 36.0844 60.928C36.4097 60.5653 36.807 60.2827 37.2764 60.08C37.7457 59.872 38.2737 59.768 38.8604 59.768ZM38.8924 60.816C38.2044 60.816 37.663 61.016 37.2684 61.416C36.8737 61.8107 36.6284 62.36 36.5324 63.064H40.9404C40.9404 62.7333 40.895 62.432 40.8044 62.16C40.7137 61.8827 40.5804 61.6453 40.4044 61.448C40.2284 61.2453 40.0124 61.0907 39.7564 60.984C39.5057 60.872 39.2177 60.816 38.8924 60.816ZM49.571 61.336C49.5283 61.3947 49.4857 61.44 49.443 61.472C49.4003 61.504 49.339 61.52 49.259 61.52C49.179 61.52 49.091 61.488 48.995 61.424C48.9043 61.3547 48.787 61.28 48.643 61.2C48.499 61.12 48.323 61.048 48.115 60.984C47.9123 60.9147 47.6617 60.88 47.363 60.88C46.9683 60.88 46.619 60.952 46.315 61.096C46.011 61.2347 45.755 61.4373 45.547 61.704C45.3443 61.9707 45.1897 62.2933 45.083 62.672C44.9817 63.0507 44.931 63.4747 44.931 63.944C44.931 64.4347 44.987 64.872 45.099 65.256C45.211 65.6347 45.3683 65.9547 45.571 66.216C45.7737 66.472 46.019 66.6693 46.307 66.808C46.6003 66.9413 46.9283 67.008 47.291 67.008C47.6377 67.008 47.923 66.968 48.147 66.888C48.371 66.8027 48.5577 66.7093 48.707 66.608C48.8563 66.5067 48.979 66.416 49.075 66.336C49.171 66.2507 49.267 66.208 49.363 66.208C49.4857 66.208 49.5763 66.2533 49.635 66.344L50.035 66.864C49.683 67.296 49.243 67.6133 48.715 67.816C48.187 68.0133 47.6297 68.112 47.043 68.112C46.5363 68.112 46.0643 68.0187 45.627 67.832C45.195 67.6453 44.819 67.376 44.499 67.024C44.179 66.6667 43.9257 66.2293 43.739 65.712C43.5577 65.1947 43.467 64.6053 43.467 63.944C43.467 63.3413 43.5497 62.784 43.715 62.272C43.8857 61.76 44.131 61.32 44.451 60.952C44.7763 60.5787 45.1763 60.288 45.651 60.08C46.1257 59.872 46.6697 59.768 47.283 59.768C47.8483 59.768 48.3497 59.8613 48.787 60.048C49.2243 60.2293 49.611 60.488 49.947 60.824L49.571 61.336ZM53.9678 68.128C53.3278 68.128 52.8344 67.9493 52.4878 67.592C52.1464 67.2347 51.9758 66.72 51.9758 66.048V61.088H50.9998C50.9144 61.088 50.8424 61.064 50.7838 61.016C50.7251 60.9627 50.6958 60.8827 50.6958 60.776V60.208L52.0238 60.04L52.3518 57.536C52.3624 57.456 52.3971 57.392 52.4557 57.344C52.5144 57.2907 52.5891 57.264 52.6798 57.264H53.3998V60.056H55.7198V61.088H53.3998V65.952C53.3998 66.2933 53.4824 66.5467 53.6478 66.712C53.8131 66.8773 54.0264 66.96 54.2878 66.96C54.4371 66.96 54.5651 66.9413 54.6718 66.904C54.7838 66.8613 54.8798 66.816 54.9598 66.768C55.0398 66.72 55.1064 66.6773 55.1598 66.64C55.2184 66.5973 55.2691 66.576 55.3118 66.576C55.3864 66.576 55.4531 66.6213 55.5118 66.712L55.9278 67.392C55.6824 67.6213 55.3864 67.8027 55.0398 67.936C54.6931 68.064 54.3358 68.128 53.9678 68.128ZM59.0645 59.896V68H57.6405V59.896H59.0645ZM59.3845 57.352C59.3845 57.4907 59.3552 57.6213 59.2965 57.744C59.2432 57.8613 59.1685 57.968 59.0725 58.064C58.9818 58.1547 58.8752 58.2267 58.7525 58.28C58.6298 58.3333 58.4992 58.36 58.3605 58.36C58.2218 58.36 58.0912 58.3333 57.9685 58.28C57.8512 58.2267 57.7445 58.1547 57.6485 58.064C57.5578 57.968 57.4858 57.8613 57.4325 57.744C57.3792 57.6213 57.3525 57.4907 57.3525 57.352C57.3525 57.2133 57.3792 57.0827 57.4325 56.96C57.4858 56.832 57.5578 56.7227 57.6485 56.632C57.7445 56.536 57.8512 56.4613 57.9685 56.408C58.0912 56.3547 58.2218 56.328 58.3605 56.328C58.4992 56.328 58.6298 56.3547 58.7525 56.408C58.8752 56.4613 58.9818 56.536 59.0725 56.632C59.1685 56.7227 59.2432 56.832 59.2965 56.96C59.3552 57.0827 59.3845 57.2133 59.3845 57.352ZM64.8543 59.768C65.4463 59.768 65.9796 59.8667 66.4543 60.064C66.9343 60.2613 67.3396 60.5413 67.6703 60.904C68.0063 61.2667 68.2623 61.7067 68.4383 62.224C68.6196 62.736 68.7103 63.3093 68.7103 63.944C68.7103 64.584 68.6196 65.16 68.4383 65.672C68.2623 66.184 68.0063 66.6213 67.6703 66.984C67.3396 67.3467 66.9343 67.6267 66.4543 67.824C65.9796 68.016 65.4463 68.112 64.8543 68.112C64.2623 68.112 63.7263 68.016 63.2463 67.824C62.7716 67.6267 62.3663 67.3467 62.0303 66.984C61.6943 66.6213 61.4356 66.184 61.2543 65.672C61.0729 65.16 60.9823 64.584 60.9823 63.944C60.9823 63.3093 61.0729 62.736 61.2543 62.224C61.4356 61.7067 61.6943 61.2667 62.0303 60.904C62.3663 60.5413 62.7716 60.2613 63.2463 60.064C63.7263 59.8667 64.2623 59.768 64.8543 59.768ZM64.8543 67C65.6543 67 66.2516 66.7333 66.6463 66.2C67.0409 65.6613 67.2383 64.912 67.2383 63.952C67.2383 62.9867 67.0409 62.2347 66.6463 61.696C66.2516 61.1573 65.6543 60.888 64.8543 60.888C64.4489 60.888 64.0969 60.9573 63.7983 61.096C63.4996 61.2347 63.2489 61.4347 63.0463 61.696C62.8489 61.9573 62.6996 62.28 62.5983 62.664C62.5023 63.0427 62.4543 63.472 62.4543 63.952C62.4543 64.432 62.5023 64.8613 62.5983 65.24C62.6996 65.6187 62.8489 65.9387 63.0463 66.2C63.2489 66.456 63.4996 66.6533 63.7983 66.792C64.0969 66.9307 64.4489 67 64.8543 67ZM70.4649 68V59.896H71.3129C71.5155 59.896 71.6435 59.9947 71.6969 60.192L71.8089 61.072C72.1609 60.6827 72.5529 60.368 72.9849 60.128C73.4222 59.888 73.9262 59.768 74.4969 59.768C74.9395 59.768 75.3289 59.8427 75.6649 59.992C76.0062 60.136 76.2889 60.344 76.5129 60.616C76.7422 60.8827 76.9155 61.2053 77.0329 61.584C77.1502 61.9627 77.2089 62.3813 77.2089 62.84V68H75.7849V62.84C75.7849 62.2267 75.6435 61.752 75.3609 61.416C75.0835 61.0747 74.6569 60.904 74.0809 60.904C73.6595 60.904 73.2649 61.0053 72.8969 61.208C72.5342 61.4107 72.1982 61.6853 71.8889 62.032V68H70.4649ZM86.0893 56.408C86.5746 56.408 87.0279 56.48 87.4493 56.624C87.8706 56.768 88.2333 56.9787 88.5373 57.256C88.8466 57.528 89.0893 57.8613 89.2653 58.256C89.4413 58.6507 89.5293 59.0987 89.5293 59.6C89.5293 60.0267 89.4653 60.4213 89.3373 60.784C89.2093 61.1467 89.0359 61.496 88.8173 61.832C88.5986 62.1627 88.3453 62.4853 88.0573 62.8C87.7746 63.1093 87.4733 63.4267 87.1533 63.752L84.1373 66.84C84.3506 66.7813 84.5666 66.736 84.7853 66.704C85.0039 66.6667 85.2146 66.648 85.4173 66.648H89.2573C89.4119 66.648 89.5346 66.6933 89.6253 66.784C89.7159 66.8747 89.7613 66.992 89.7613 67.136V68H82.1133V67.512C82.1133 67.4107 82.1319 67.3067 82.1693 67.2C82.2119 67.0933 82.2786 66.9947 82.3693 66.904L86.0413 63.216C86.3453 62.9067 86.6226 62.6107 86.8733 62.328C87.1239 62.04 87.3373 61.752 87.5133 61.464C87.6946 61.176 87.8333 60.8853 87.9293 60.592C88.0253 60.2933 88.0733 59.976 88.0733 59.64C88.0733 59.304 88.0199 59.0107 87.9133 58.76C87.8066 58.504 87.6599 58.2933 87.4733 58.128C87.2866 57.9627 87.0679 57.84 86.8173 57.76C86.5666 57.6747 86.2973 57.632 86.0093 57.632C85.7213 57.632 85.4546 57.6747 85.2093 57.76C84.9639 57.8453 84.7453 57.9653 84.5533 58.12C84.3666 58.2693 84.2066 58.448 84.0733 58.656C83.9453 58.864 83.8546 59.0933 83.8013 59.344C83.7586 59.4987 83.6946 59.6107 83.6093 59.68C83.5239 59.7493 83.4119 59.784 83.2733 59.784C83.2466 59.784 83.2173 59.784 83.1853 59.784C83.1586 59.7787 83.1266 59.7733 83.0893 59.768L82.3453 59.64C82.4199 59.1173 82.5639 58.656 82.7773 58.256C82.9906 57.8507 83.2599 57.512 83.5853 57.24C83.9159 56.968 84.2919 56.7627 84.7133 56.624C85.1399 56.48 85.5986 56.408 86.0893 56.408ZM33.264 100.328C33.216 100.408 33.1653 100.469 33.112 100.512C33.0587 100.549 32.9893 100.568 32.904 100.568C32.8133 100.568 32.7067 100.523 32.584 100.432C32.4667 100.341 32.3147 100.243 32.128 100.136C31.9467 100.024 31.7253 99.9227 31.464 99.832C31.208 99.7413 30.896 99.696 30.528 99.696C30.1813 99.696 29.8747 99.744 29.608 99.84C29.3413 99.9307 29.1173 100.056 28.936 100.216C28.76 100.376 28.6267 100.565 28.536 100.784C28.4453 100.997 28.4 101.229 28.4 101.48C28.4 101.8 28.4773 102.067 28.632 102.28C28.792 102.488 29 102.667 29.256 102.816C29.5173 102.965 29.8107 103.096 30.136 103.208C30.4667 103.315 30.8027 103.427 31.144 103.544C31.4907 103.661 31.8267 103.795 32.152 103.944C32.4827 104.088 32.776 104.272 33.032 104.496C33.2933 104.72 33.5013 104.995 33.656 105.32C33.816 105.645 33.896 106.045 33.896 106.52C33.896 107.021 33.8107 107.493 33.64 107.936C33.4693 108.373 33.2187 108.755 32.888 109.08C32.5627 109.405 32.16 109.661 31.68 109.848C31.2053 110.035 30.664 110.128 30.056 110.128C29.3147 110.128 28.6373 109.995 28.024 109.728C27.416 109.456 26.896 109.091 26.464 108.632L26.912 107.896C26.9547 107.837 27.0053 107.789 27.064 107.752C27.128 107.709 27.1973 107.688 27.272 107.688C27.384 107.688 27.512 107.749 27.656 107.872C27.8 107.989 27.9787 108.12 28.192 108.264C28.4107 108.408 28.672 108.541 28.976 108.664C29.2853 108.781 29.6613 108.84 30.104 108.84C30.472 108.84 30.8 108.789 31.088 108.688C31.376 108.587 31.6187 108.445 31.816 108.264C32.0187 108.077 32.1733 107.856 32.28 107.6C32.3867 107.344 32.44 107.059 32.44 106.744C32.44 106.397 32.36 106.115 32.2 105.896C32.0453 105.672 31.84 105.485 31.584 105.336C31.328 105.187 31.0347 105.061 30.704 104.96C30.3787 104.853 30.0427 104.747 29.696 104.64C29.3547 104.528 29.0187 104.4 28.688 104.256C28.3627 104.112 28.072 103.925 27.816 103.696C27.56 103.467 27.352 103.181 27.192 102.84C27.0373 102.493 26.96 102.067 26.96 101.56C26.96 101.155 27.0373 100.763 27.192 100.384C27.352 100.005 27.5813 99.6693 27.88 99.376C28.1787 99.0827 28.5467 98.848 28.984 98.672C29.4267 98.496 29.9333 98.408 30.504 98.408C31.144 98.408 31.728 98.5093 32.256 98.712C32.784 98.9147 33.2453 99.208 33.64 99.592L33.264 100.328ZM38.8604 101.768C39.3457 101.768 39.7937 101.851 40.2044 102.016C40.615 102.176 40.9697 102.411 41.2684 102.72C41.567 103.024 41.799 103.403 41.9644 103.856C42.135 104.304 42.2204 104.816 42.2204 105.392C42.2204 105.616 42.1964 105.765 42.1484 105.84C42.1004 105.915 42.0097 105.952 41.8764 105.952H36.4844C36.495 106.464 36.5644 106.909 36.6924 107.288C36.8204 107.667 36.9964 107.984 37.2204 108.24C37.4444 108.491 37.711 108.68 38.0204 108.808C38.3297 108.931 38.6764 108.992 39.0604 108.992C39.4177 108.992 39.7244 108.952 39.9804 108.872C40.2417 108.787 40.4657 108.696 40.6524 108.6C40.839 108.504 40.9937 108.416 41.1164 108.336C41.2444 108.251 41.3537 108.208 41.4444 108.208C41.5617 108.208 41.6524 108.253 41.7164 108.344L42.1164 108.864C41.9404 109.077 41.7297 109.264 41.4844 109.424C41.239 109.579 40.975 109.707 40.6924 109.808C40.415 109.909 40.127 109.984 39.8284 110.032C39.5297 110.085 39.2337 110.112 38.9404 110.112C38.3804 110.112 37.863 110.019 37.3884 109.832C36.919 109.64 36.511 109.363 36.1644 109C35.823 108.632 35.5564 108.179 35.3644 107.64C35.1724 107.101 35.0764 106.483 35.0764 105.784C35.0764 105.219 35.1617 104.691 35.3324 104.2C35.5084 103.709 35.759 103.285 36.0844 102.928C36.4097 102.565 36.807 102.283 37.2764 102.08C37.7457 101.872 38.2737 101.768 38.8604 101.768ZM38.8924 102.816C38.2044 102.816 37.663 103.016 37.2684 103.416C36.8737 103.811 36.6284 104.36 36.5324 105.064H40.9404C40.9404 104.733 40.895 104.432 40.8044 104.16C40.7137 103.883 40.5804 103.645 40.4044 103.448C40.2284 103.245 40.0124 103.091 39.7564 102.984C39.5057 102.872 39.2177 102.816 38.8924 102.816ZM49.571 103.336C49.5283 103.395 49.4857 103.44 49.443 103.472C49.4003 103.504 49.339 103.52 49.259 103.52C49.179 103.52 49.091 103.488 48.995 103.424C48.9043 103.355 48.787 103.28 48.643 103.2C48.499 103.12 48.323 103.048 48.115 102.984C47.9123 102.915 47.6617 102.88 47.363 102.88C46.9683 102.88 46.619 102.952 46.315 103.096C46.011 103.235 45.755 103.437 45.547 103.704C45.3443 103.971 45.1897 104.293 45.083 104.672C44.9817 105.051 44.931 105.475 44.931 105.944C44.931 106.435 44.987 106.872 45.099 107.256C45.211 107.635 45.3683 107.955 45.571 108.216C45.7737 108.472 46.019 108.669 46.307 108.808C46.6003 108.941 46.9283 109.008 47.291 109.008C47.6377 109.008 47.923 108.968 48.147 108.888C48.371 108.803 48.5577 108.709 48.707 108.608C48.8563 108.507 48.979 108.416 49.075 108.336C49.171 108.251 49.267 108.208 49.363 108.208C49.4857 108.208 49.5763 108.253 49.635 108.344L50.035 108.864C49.683 109.296 49.243 109.613 48.715 109.816C48.187 110.013 47.6297 110.112 47.043 110.112C46.5363 110.112 46.0643 110.019 45.627 109.832C45.195 109.645 44.819 109.376 44.499 109.024C44.179 108.667 43.9257 108.229 43.739 107.712C43.5577 107.195 43.467 106.605 43.467 105.944C43.467 105.341 43.5497 104.784 43.715 104.272C43.8857 103.76 44.131 103.32 44.451 102.952C44.7763 102.579 45.1763 102.288 45.651 102.08C46.1257 101.872 46.6697 101.768 47.283 101.768C47.8483 101.768 48.3497 101.861 48.787 102.048C49.2243 102.229 49.611 102.488 49.947 102.824L49.571 103.336ZM53.9678 110.128C53.3278 110.128 52.8344 109.949 52.4878 109.592C52.1464 109.235 51.9758 108.72 51.9758 108.048V103.088H50.9998C50.9144 103.088 50.8424 103.064 50.7838 103.016C50.7251 102.963 50.6958 102.883 50.6958 102.776V102.208L52.0238 102.04L52.3518 99.536C52.3624 99.456 52.3971 99.392 52.4557 99.344C52.5144 99.2907 52.5891 99.264 52.6798 99.264H53.3998V102.056H55.7198V103.088H53.3998V107.952C53.3998 108.293 53.4824 108.547 53.6478 108.712C53.8131 108.877 54.0264 108.96 54.2878 108.96C54.4371 108.96 54.5651 108.941 54.6718 108.904C54.7838 108.861 54.8798 108.816 54.9598 108.768C55.0398 108.72 55.1064 108.677 55.1598 108.64C55.2184 108.597 55.2691 108.576 55.3118 108.576C55.3864 108.576 55.4531 108.621 55.5118 108.712L55.9278 109.392C55.6824 109.621 55.3864 109.803 55.0398 109.936C54.6931 110.064 54.3358 110.128 53.9678 110.128ZM59.0645 101.896V110H57.6405V101.896H59.0645ZM59.3845 99.352C59.3845 99.4907 59.3552 99.6213 59.2965 99.744C59.2432 99.8613 59.1685 99.968 59.0725 100.064C58.9818 100.155 58.8752 100.227 58.7525 100.28C58.6298 100.333 58.4992 100.36 58.3605 100.36C58.2218 100.36 58.0912 100.333 57.9685 100.28C57.8512 100.227 57.7445 100.155 57.6485 100.064C57.5578 99.968 57.4858 99.8613 57.4325 99.744C57.3792 99.6213 57.3525 99.4907 57.3525 99.352C57.3525 99.2133 57.3792 99.0827 57.4325 98.96C57.4858 98.832 57.5578 98.7227 57.6485 98.632C57.7445 98.536 57.8512 98.4613 57.9685 98.408C58.0912 98.3547 58.2218 98.328 58.3605 98.328C58.4992 98.328 58.6298 98.3547 58.7525 98.408C58.8752 98.4613 58.9818 98.536 59.0725 98.632C59.1685 98.7227 59.2432 98.832 59.2965 98.96C59.3552 99.0827 59.3845 99.2133 59.3845 99.352ZM64.8543 101.768C65.4463 101.768 65.9796 101.867 66.4543 102.064C66.9343 102.261 67.3396 102.541 67.6703 102.904C68.0063 103.267 68.2623 103.707 68.4383 104.224C68.6196 104.736 68.7103 105.309 68.7103 105.944C68.7103 106.584 68.6196 107.16 68.4383 107.672C68.2623 108.184 68.0063 108.621 67.6703 108.984C67.3396 109.347 66.9343 109.627 66.4543 109.824C65.9796 110.016 65.4463 110.112 64.8543 110.112C64.2623 110.112 63.7263 110.016 63.2463 109.824C62.7716 109.627 62.3663 109.347 62.0303 108.984C61.6943 108.621 61.4356 108.184 61.2543 107.672C61.0729 107.16 60.9823 106.584 60.9823 105.944C60.9823 105.309 61.0729 104.736 61.2543 104.224C61.4356 103.707 61.6943 103.267 62.0303 102.904C62.3663 102.541 62.7716 102.261 63.2463 102.064C63.7263 101.867 64.2623 101.768 64.8543 101.768ZM64.8543 109C65.6543 109 66.2516 108.733 66.6463 108.2C67.0409 107.661 67.2383 106.912 67.2383 105.952C67.2383 104.987 67.0409 104.235 66.6463 103.696C66.2516 103.157 65.6543 102.888 64.8543 102.888C64.4489 102.888 64.0969 102.957 63.7983 103.096C63.4996 103.235 63.2489 103.435 63.0463 103.696C62.8489 103.957 62.6996 104.28 62.5983 104.664C62.5023 105.043 62.4543 105.472 62.4543 105.952C62.4543 106.432 62.5023 106.861 62.5983 107.24C62.6996 107.619 62.8489 107.939 63.0463 108.2C63.2489 108.456 63.4996 108.653 63.7983 108.792C64.0969 108.931 64.4489 109 64.8543 109ZM70.4649 110V101.896H71.3129C71.5155 101.896 71.6435 101.995 71.6969 102.192L71.8089 103.072C72.1609 102.683 72.5529 102.368 72.9849 102.128C73.4222 101.888 73.9262 101.768 74.4969 101.768C74.9395 101.768 75.3289 101.843 75.6649 101.992C76.0062 102.136 76.2889 102.344 76.5129 102.616C76.7422 102.883 76.9155 103.205 77.0329 103.584C77.1502 103.963 77.2089 104.381 77.2089 104.84V110H75.7849V104.84C75.7849 104.227 75.6435 103.752 75.3609 103.416C75.0835 103.075 74.6569 102.904 74.0809 102.904C73.6595 102.904 73.2649 103.005 72.8969 103.208C72.5342 103.411 72.1982 103.685 71.8889 104.032V110H70.4649ZM86.2413 98.408C86.7266 98.408 87.1746 98.4773 87.5853 98.616C87.9959 98.7547 88.3479 98.952 88.6413 99.208C88.9399 99.464 89.1719 99.7733 89.3373 100.136C89.5026 100.499 89.5853 100.901 89.5853 101.344C89.5853 101.707 89.5373 102.032 89.4413 102.32C89.3506 102.603 89.2173 102.853 89.0413 103.072C88.8706 103.285 88.6626 103.467 88.4173 103.616C88.1719 103.765 87.8973 103.885 87.5933 103.976C88.3399 104.173 88.8999 104.504 89.2733 104.968C89.6519 105.432 89.8413 106.013 89.8413 106.712C89.8413 107.24 89.7399 107.715 89.5373 108.136C89.3399 108.557 89.0679 108.917 88.7213 109.216C88.3746 109.509 87.9693 109.736 87.5053 109.896C87.0466 110.051 86.5533 110.128 86.0253 110.128C85.4173 110.128 84.8973 110.053 84.4653 109.904C84.0333 109.749 83.6679 109.539 83.3693 109.272C83.0706 109.005 82.8253 108.691 82.6333 108.328C82.4413 107.96 82.2786 107.563 82.1453 107.136L82.7533 106.88C82.8653 106.832 82.9773 106.808 83.0893 106.808C83.1959 106.808 83.2893 106.832 83.3693 106.88C83.4546 106.923 83.5186 106.992 83.5613 107.088C83.5719 107.109 83.5826 107.133 83.5933 107.16C83.6039 107.181 83.6146 107.205 83.6253 107.232C83.6999 107.387 83.7906 107.563 83.8973 107.76C84.0039 107.952 84.1479 108.133 84.3293 108.304C84.5106 108.475 84.7346 108.619 85.0013 108.736C85.2733 108.853 85.6093 108.912 86.0093 108.912C86.4093 108.912 86.7586 108.848 87.0573 108.72C87.3613 108.587 87.6119 108.416 87.8093 108.208C88.0119 108 88.1639 107.768 88.2653 107.512C88.3666 107.256 88.4173 107.003 88.4173 106.752C88.4173 106.443 88.3746 106.16 88.2893 105.904C88.2093 105.648 88.0599 105.427 87.8413 105.24C87.6279 105.053 87.3293 104.907 86.9453 104.8C86.5666 104.693 86.0786 104.64 85.4813 104.64V103.608C85.9666 103.603 86.3799 103.549 86.7213 103.448C87.0679 103.347 87.3506 103.208 87.5693 103.032C87.7879 102.856 87.9453 102.645 88.0413 102.4C88.1426 102.155 88.1933 101.883 88.1933 101.584C88.1933 101.253 88.1399 100.965 88.0333 100.72C87.9319 100.475 87.7906 100.272 87.6093 100.112C87.4279 99.952 87.2119 99.832 86.9613 99.752C86.7159 99.672 86.4493 99.632 86.1613 99.632C85.8733 99.632 85.6066 99.6747 85.3613 99.76C85.1159 99.8453 84.8973 99.9653 84.7053 100.12C84.5186 100.269 84.3613 100.451 84.2333 100.664C84.1053 100.872 84.0093 101.099 83.9453 101.344C83.9026 101.499 83.8386 101.611 83.7533 101.68C83.6679 101.749 83.5586 101.784 83.4253 101.784C83.3986 101.784 83.3693 101.784 83.3372 101.784C83.3106 101.779 83.2786 101.773 83.2413 101.768L82.4973 101.64C82.5719 101.117 82.7159 100.656 82.9293 100.256C83.1426 99.8507 83.4119 99.512 83.7373 99.24C84.0679 98.968 84.4439 98.7627 84.8653 98.624C85.2919 98.48 85.7506 98.408 86.2413 98.408ZM33.264 142.328C33.216 142.408 33.1653 142.469 33.112 142.512C33.0587 142.549 32.9893 142.568 32.904 142.568C32.8133 142.568 32.7067 142.523 32.584 142.432C32.4667 142.341 32.3147 142.243 32.128 142.136C31.9467 142.024 31.7253 141.923 31.464 141.832C31.208 141.741 30.896 141.696 30.528 141.696C30.1813 141.696 29.8747 141.744 29.608 141.84C29.3413 141.931 29.1173 142.056 28.936 142.216C28.76 142.376 28.6267 142.565 28.536 142.784C28.4453 142.997 28.4 143.229 28.4 143.48C28.4 143.8 28.4773 144.067 28.632 144.28C28.792 144.488 29 144.667 29.256 144.816C29.5173 144.965 29.8107 145.096 30.136 145.208C30.4667 145.315 30.8027 145.427 31.144 145.544C31.4907 145.661 31.8267 145.795 32.152 145.944C32.4827 146.088 32.776 146.272 33.032 146.496C33.2933 146.72 33.5013 146.995 33.656 147.32C33.816 147.645 33.896 148.045 33.896 148.52C33.896 149.021 33.8107 149.493 33.64 149.936C33.4693 150.373 33.2187 150.755 32.888 151.08C32.5627 151.405 32.16 151.661 31.68 151.848C31.2053 152.035 30.664 152.128 30.056 152.128C29.3147 152.128 28.6373 151.995 28.024 151.728C27.416 151.456 26.896 151.091 26.464 150.632L26.912 149.896C26.9547 149.837 27.0053 149.789 27.064 149.752C27.128 149.709 27.1973 149.688 27.272 149.688C27.384 149.688 27.512 149.749 27.656 149.872C27.8 149.989 27.9787 150.12 28.192 150.264C28.4107 150.408 28.672 150.541 28.976 150.664C29.2853 150.781 29.6613 150.84 30.104 150.84C30.472 150.84 30.8 150.789 31.088 150.688C31.376 150.587 31.6187 150.445 31.816 150.264C32.0187 150.077 32.1733 149.856 32.28 149.6C32.3867 149.344 32.44 149.059 32.44 148.744C32.44 148.397 32.36 148.115 32.2 147.896C32.0453 147.672 31.84 147.485 31.584 147.336C31.328 147.187 31.0347 147.061 30.704 146.96C30.3787 146.853 30.0427 146.747 29.696 146.64C29.3547 146.528 29.0187 146.4 28.688 146.256C28.3627 146.112 28.072 145.925 27.816 145.696C27.56 145.467 27.352 145.181 27.192 144.84C27.0373 144.493 26.96 144.067 26.96 143.56C26.96 143.155 27.0373 142.763 27.192 142.384C27.352 142.005 27.5813 141.669 27.88 141.376C28.1787 141.083 28.5467 140.848 28.984 140.672C29.4267 140.496 29.9333 140.408 30.504 140.408C31.144 140.408 31.728 140.509 32.256 140.712C32.784 140.915 33.2453 141.208 33.64 141.592L33.264 142.328ZM38.8604 143.768C39.3457 143.768 39.7937 143.851 40.2044 144.016C40.615 144.176 40.9697 144.411 41.2684 144.72C41.567 145.024 41.799 145.403 41.9644 145.856C42.135 146.304 42.2204 146.816 42.2204 147.392C42.2204 147.616 42.1964 147.765 42.1484 147.84C42.1004 147.915 42.0097 147.952 41.8764 147.952H36.4844C36.495 148.464 36.5644 148.909 36.6924 149.288C36.8204 149.667 36.9964 149.984 37.2204 150.24C37.4444 150.491 37.711 150.68 38.0204 150.808C38.3297 150.931 38.6764 150.992 39.0604 150.992C39.4177 150.992 39.7244 150.952 39.9804 150.872C40.2417 150.787 40.4657 150.696 40.6524 150.6C40.839 150.504 40.9937 150.416 41.1164 150.336C41.2444 150.251 41.3537 150.208 41.4444 150.208C41.5617 150.208 41.6524 150.253 41.7164 150.344L42.1164 150.864C41.9404 151.077 41.7297 151.264 41.4844 151.424C41.239 151.579 40.975 151.707 40.6924 151.808C40.415 151.909 40.127 151.984 39.8284 152.032C39.5297 152.085 39.2337 152.112 38.9404 152.112C38.3804 152.112 37.863 152.019 37.3884 151.832C36.919 151.64 36.511 151.363 36.1644 151C35.823 150.632 35.5564 150.179 35.3644 149.64C35.1724 149.101 35.0764 148.483 35.0764 147.784C35.0764 147.219 35.1617 146.691 35.3324 146.2C35.5084 145.709 35.759 145.285 36.0844 144.928C36.4097 144.565 36.807 144.283 37.2764 144.08C37.7457 143.872 38.2737 143.768 38.8604 143.768ZM38.8924 144.816C38.2044 144.816 37.663 145.016 37.2684 145.416C36.8737 145.811 36.6284 146.36 36.5324 147.064H40.9404C40.9404 146.733 40.895 146.432 40.8044 146.16C40.7137 145.883 40.5804 145.645 40.4044 145.448C40.2284 145.245 40.0124 145.091 39.7564 144.984C39.5057 144.872 39.2177 144.816 38.8924 144.816ZM49.571 145.336C49.5283 145.395 49.4857 145.44 49.443 145.472C49.4003 145.504 49.339 145.52 49.259 145.52C49.179 145.52 49.091 145.488 48.995 145.424C48.9043 145.355 48.787 145.28 48.643 145.2C48.499 145.12 48.323 145.048 48.115 144.984C47.9123 144.915 47.6617 144.88 47.363 144.88C46.9683 144.88 46.619 144.952 46.315 145.096C46.011 145.235 45.755 145.437 45.547 145.704C45.3443 145.971 45.1897 146.293 45.083 146.672C44.9817 147.051 44.931 147.475 44.931 147.944C44.931 148.435 44.987 148.872 45.099 149.256C45.211 149.635 45.3683 149.955 45.571 150.216C45.7737 150.472 46.019 150.669 46.307 150.808C46.6003 150.941 46.9283 151.008 47.291 151.008C47.6377 151.008 47.923 150.968 48.147 150.888C48.371 150.803 48.5577 150.709 48.707 150.608C48.8563 150.507 48.979 150.416 49.075 150.336C49.171 150.251 49.267 150.208 49.363 150.208C49.4857 150.208 49.5763 150.253 49.635 150.344L50.035 150.864C49.683 151.296 49.243 151.613 48.715 151.816C48.187 152.013 47.6297 152.112 47.043 152.112C46.5363 152.112 46.0643 152.019 45.627 151.832C45.195 151.645 44.819 151.376 44.499 151.024C44.179 150.667 43.9257 150.229 43.739 149.712C43.5577 149.195 43.467 148.605 43.467 147.944C43.467 147.341 43.5497 146.784 43.715 146.272C43.8857 145.76 44.131 145.32 44.451 144.952C44.7763 144.579 45.1763 144.288 45.651 144.08C46.1257 143.872 46.6697 143.768 47.283 143.768C47.8483 143.768 48.3497 143.861 48.787 144.048C49.2243 144.229 49.611 144.488 49.947 144.824L49.571 145.336ZM53.9678 152.128C53.3278 152.128 52.8344 151.949 52.4878 151.592C52.1464 151.235 51.9758 150.72 51.9758 150.048V145.088H50.9998C50.9144 145.088 50.8424 145.064 50.7838 145.016C50.7251 144.963 50.6958 144.883 50.6958 144.776V144.208L52.0238 144.04L52.3518 141.536C52.3624 141.456 52.3971 141.392 52.4557 141.344C52.5144 141.291 52.5891 141.264 52.6798 141.264H53.3998V144.056H55.7198V145.088H53.3998V149.952C53.3998 150.293 53.4824 150.547 53.6478 150.712C53.8131 150.877 54.0264 150.96 54.2878 150.96C54.4371 150.96 54.5651 150.941 54.6718 150.904C54.7838 150.861 54.8798 150.816 54.9598 150.768C55.0398 150.72 55.1064 150.677 55.1598 150.64C55.2184 150.597 55.2691 150.576 55.3118 150.576C55.3864 150.576 55.4531 150.621 55.5118 150.712L55.9278 151.392C55.6824 151.621 55.3864 151.803 55.0398 151.936C54.6931 152.064 54.3358 152.128 53.9678 152.128ZM59.0645 143.896V152H57.6405V143.896H59.0645ZM59.3845 141.352C59.3845 141.491 59.3552 141.621 59.2965 141.744C59.2432 141.861 59.1685 141.968 59.0725 142.064C58.9818 142.155 58.8752 142.227 58.7525 142.28C58.6298 142.333 58.4992 142.36 58.3605 142.36C58.2218 142.36 58.0912 142.333 57.9685 142.28C57.8512 142.227 57.7445 142.155 57.6485 142.064C57.5578 141.968 57.4858 141.861 57.4325 141.744C57.3792 141.621 57.3525 141.491 57.3525 141.352C57.3525 141.213 57.3792 141.083 57.4325 140.96C57.4858 140.832 57.5578 140.723 57.6485 140.632C57.7445 140.536 57.8512 140.461 57.9685 140.408C58.0912 140.355 58.2218 140.328 58.3605 140.328C58.4992 140.328 58.6298 140.355 58.7525 140.408C58.8752 140.461 58.9818 140.536 59.0725 140.632C59.1685 140.723 59.2432 140.832 59.2965 140.96C59.3552 141.083 59.3845 141.213 59.3845 141.352ZM64.8543 143.768C65.4463 143.768 65.9796 143.867 66.4543 144.064C66.9343 144.261 67.3396 144.541 67.6703 144.904C68.0063 145.267 68.2623 145.707 68.4383 146.224C68.6196 146.736 68.7103 147.309 68.7103 147.944C68.7103 148.584 68.6196 149.16 68.4383 149.672C68.2623 150.184 68.0063 150.621 67.6703 150.984C67.3396 151.347 66.9343 151.627 66.4543 151.824C65.9796 152.016 65.4463 152.112 64.8543 152.112C64.2623 152.112 63.7263 152.016 63.2463 151.824C62.7716 151.627 62.3663 151.347 62.0303 150.984C61.6943 150.621 61.4356 150.184 61.2543 149.672C61.0729 149.16 60.9823 148.584 60.9823 147.944C60.9823 147.309 61.0729 146.736 61.2543 146.224C61.4356 145.707 61.6943 145.267 62.0303 144.904C62.3663 144.541 62.7716 144.261 63.2463 144.064C63.7263 143.867 64.2623 143.768 64.8543 143.768ZM64.8543 151C65.6543 151 66.2516 150.733 66.6463 150.2C67.0409 149.661 67.2383 148.912 67.2383 147.952C67.2383 146.987 67.0409 146.235 66.6463 145.696C66.2516 145.157 65.6543 144.888 64.8543 144.888C64.4489 144.888 64.0969 144.957 63.7983 145.096C63.4996 145.235 63.2489 145.435 63.0463 145.696C62.8489 145.957 62.6996 146.28 62.5983 146.664C62.5023 147.043 62.4543 147.472 62.4543 147.952C62.4543 148.432 62.5023 148.861 62.5983 149.24C62.6996 149.619 62.8489 149.939 63.0463 150.2C63.2489 150.456 63.4996 150.653 63.7983 150.792C64.0969 150.931 64.4489 151 64.8543 151ZM70.4649 152V143.896H71.3129C71.5155 143.896 71.6435 143.995 71.6969 144.192L71.8089 145.072C72.1609 144.683 72.5529 144.368 72.9849 144.128C73.4222 143.888 73.9262 143.768 74.4969 143.768C74.9395 143.768 75.3289 143.843 75.6649 143.992C76.0062 144.136 76.2889 144.344 76.5129 144.616C76.7422 144.883 76.9155 145.205 77.0329 145.584C77.1502 145.963 77.2089 146.381 77.2089 146.84V152H75.7849V146.84C75.7849 146.227 75.6435 145.752 75.3609 145.416C75.0835 145.075 74.6569 144.904 74.0809 144.904C73.6595 144.904 73.2649 145.005 72.8969 145.208C72.5342 145.411 72.1982 145.685 71.8889 146.032V152H70.4649ZM88.5053 147.864H90.2413V148.68C90.2413 148.765 90.2146 148.837 90.1613 148.896C90.1133 148.955 90.0359 148.984 89.9293 148.984H88.5053V152H87.2493V148.984H82.1693C82.0626 148.984 81.9693 148.955 81.8893 148.896C81.8146 148.832 81.7666 148.755 81.7453 148.664L81.6013 147.936L87.1773 140.536H88.5053V147.864ZM87.2493 143.136C87.2493 142.997 87.2519 142.848 87.2573 142.688C87.2679 142.528 87.2866 142.363 87.3133 142.192L83.1453 147.864H87.2493V143.136ZM33.264 184.328C33.216 184.408 33.1653 184.469 33.112 184.512C33.0587 184.549 32.9893 184.568 32.904 184.568C32.8133 184.568 32.7067 184.523 32.584 184.432C32.4667 184.341 32.3147 184.243 32.128 184.136C31.9467 184.024 31.7253 183.923 31.464 183.832C31.208 183.741 30.896 183.696 30.528 183.696C30.1813 183.696 29.8747 183.744 29.608 183.84C29.3413 183.931 29.1173 184.056 28.936 184.216C28.76 184.376 28.6267 184.565 28.536 184.784C28.4453 184.997 28.4 185.229 28.4 185.48C28.4 185.8 28.4773 186.067 28.632 186.28C28.792 186.488 29 186.667 29.256 186.816C29.5173 186.965 29.8107 187.096 30.136 187.208C30.4667 187.315 30.8027 187.427 31.144 187.544C31.4907 187.661 31.8267 187.795 32.152 187.944C32.4827 188.088 32.776 188.272 33.032 188.496C33.2933 188.72 33.5013 188.995 33.656 189.32C33.816 189.645 33.896 190.045 33.896 190.52C33.896 191.021 33.8107 191.493 33.64 191.936C33.4693 192.373 33.2187 192.755 32.888 193.08C32.5627 193.405 32.16 193.661 31.68 193.848C31.2053 194.035 30.664 194.128 30.056 194.128C29.3147 194.128 28.6373 193.995 28.024 193.728C27.416 193.456 26.896 193.091 26.464 192.632L26.912 191.896C26.9547 191.837 27.0053 191.789 27.064 191.752C27.128 191.709 27.1973 191.688 27.272 191.688C27.384 191.688 27.512 191.749 27.656 191.872C27.8 191.989 27.9787 192.12 28.192 192.264C28.4107 192.408 28.672 192.541 28.976 192.664C29.2853 192.781 29.6613 192.84 30.104 192.84C30.472 192.84 30.8 192.789 31.088 192.688C31.376 192.587 31.6187 192.445 31.816 192.264C32.0187 192.077 32.1733 191.856 32.28 191.6C32.3867 191.344 32.44 191.059 32.44 190.744C32.44 190.397 32.36 190.115 32.2 189.896C32.0453 189.672 31.84 189.485 31.584 189.336C31.328 189.187 31.0347 189.061 30.704 188.96C30.3787 188.853 30.0427 188.747 29.696 188.64C29.3547 188.528 29.0187 188.4 28.688 188.256C28.3627 188.112 28.072 187.925 27.816 187.696C27.56 187.467 27.352 187.181 27.192 186.84C27.0373 186.493 26.96 186.067 26.96 185.56C26.96 185.155 27.0373 184.763 27.192 184.384C27.352 184.005 27.5813 183.669 27.88 183.376C28.1787 183.083 28.5467 182.848 28.984 182.672C29.4267 182.496 29.9333 182.408 30.504 182.408C31.144 182.408 31.728 182.509 32.256 182.712C32.784 182.915 33.2453 183.208 33.64 183.592L33.264 184.328ZM38.8604 185.768C39.3457 185.768 39.7937 185.851 40.2044 186.016C40.615 186.176 40.9697 186.411 41.2684 186.72C41.567 187.024 41.799 187.403 41.9644 187.856C42.135 188.304 42.2204 188.816 42.2204 189.392C42.2204 189.616 42.1964 189.765 42.1484 189.84C42.1004 189.915 42.0097 189.952 41.8764 189.952H36.4844C36.495 190.464 36.5644 190.909 36.6924 191.288C36.8204 191.667 36.9964 191.984 37.2204 192.24C37.4444 192.491 37.711 192.68 38.0204 192.808C38.3297 192.931 38.6764 192.992 39.0604 192.992C39.4177 192.992 39.7244 192.952 39.9804 192.872C40.2417 192.787 40.4657 192.696 40.6524 192.6C40.839 192.504 40.9937 192.416 41.1164 192.336C41.2444 192.251 41.3537 192.208 41.4444 192.208C41.5617 192.208 41.6524 192.253 41.7164 192.344L42.1164 192.864C41.9404 193.077 41.7297 193.264 41.4844 193.424C41.239 193.579 40.975 193.707 40.6924 193.808C40.415 193.909 40.127 193.984 39.8284 194.032C39.5297 194.085 39.2337 194.112 38.9404 194.112C38.3804 194.112 37.863 194.019 37.3884 193.832C36.919 193.64 36.511 193.363 36.1644 193C35.823 192.632 35.5564 192.179 35.3644 191.64C35.1724 191.101 35.0764 190.483 35.0764 189.784C35.0764 189.219 35.1617 188.691 35.3324 188.2C35.5084 187.709 35.759 187.285 36.0844 186.928C36.4097 186.565 36.807 186.283 37.2764 186.08C37.7457 185.872 38.2737 185.768 38.8604 185.768ZM38.8924 186.816C38.2044 186.816 37.663 187.016 37.2684 187.416C36.8737 187.811 36.6284 188.36 36.5324 189.064H40.9404C40.9404 188.733 40.895 188.432 40.8044 188.16C40.7137 187.883 40.5804 187.645 40.4044 187.448C40.2284 187.245 40.0124 187.091 39.7564 186.984C39.5057 186.872 39.2177 186.816 38.8924 186.816ZM49.571 187.336C49.5283 187.395 49.4857 187.44 49.443 187.472C49.4003 187.504 49.339 187.52 49.259 187.52C49.179 187.52 49.091 187.488 48.995 187.424C48.9043 187.355 48.787 187.28 48.643 187.2C48.499 187.12 48.323 187.048 48.115 186.984C47.9123 186.915 47.6617 186.88 47.363 186.88C46.9683 186.88 46.619 186.952 46.315 187.096C46.011 187.235 45.755 187.437 45.547 187.704C45.3443 187.971 45.1897 188.293 45.083 188.672C44.9817 189.051 44.931 189.475 44.931 189.944C44.931 190.435 44.987 190.872 45.099 191.256C45.211 191.635 45.3683 191.955 45.571 192.216C45.7737 192.472 46.019 192.669 46.307 192.808C46.6003 192.941 46.9283 193.008 47.291 193.008C47.6377 193.008 47.923 192.968 48.147 192.888C48.371 192.803 48.5577 192.709 48.707 192.608C48.8563 192.507 48.979 192.416 49.075 192.336C49.171 192.251 49.267 192.208 49.363 192.208C49.4857 192.208 49.5763 192.253 49.635 192.344L50.035 192.864C49.683 193.296 49.243 193.613 48.715 193.816C48.187 194.013 47.6297 194.112 47.043 194.112C46.5363 194.112 46.0643 194.019 45.627 193.832C45.195 193.645 44.819 193.376 44.499 193.024C44.179 192.667 43.9257 192.229 43.739 191.712C43.5577 191.195 43.467 190.605 43.467 189.944C43.467 189.341 43.5497 188.784 43.715 188.272C43.8857 187.76 44.131 187.32 44.451 186.952C44.7763 186.579 45.1763 186.288 45.651 186.08C46.1257 185.872 46.6697 185.768 47.283 185.768C47.8483 185.768 48.3497 185.861 48.787 186.048C49.2243 186.229 49.611 186.488 49.947 186.824L49.571 187.336ZM53.9678 194.128C53.3278 194.128 52.8344 193.949 52.4878 193.592C52.1464 193.235 51.9758 192.72 51.9758 192.048V187.088H50.9998C50.9144 187.088 50.8424 187.064 50.7838 187.016C50.7251 186.963 50.6958 186.883 50.6958 186.776V186.208L52.0238 186.04L52.3518 183.536C52.3624 183.456 52.3971 183.392 52.4557 183.344C52.5144 183.291 52.5891 183.264 52.6798 183.264H53.3998V186.056H55.7198V187.088H53.3998V191.952C53.3998 192.293 53.4824 192.547 53.6478 192.712C53.8131 192.877 54.0264 192.96 54.2878 192.96C54.4371 192.96 54.5651 192.941 54.6718 192.904C54.7838 192.861 54.8798 192.816 54.9598 192.768C55.0398 192.72 55.1064 192.677 55.1598 192.64C55.2184 192.597 55.2691 192.576 55.3118 192.576C55.3864 192.576 55.4531 192.621 55.5118 192.712L55.9278 193.392C55.6824 193.621 55.3864 193.803 55.0398 193.936C54.6931 194.064 54.3358 194.128 53.9678 194.128ZM59.0645 185.896V194H57.6405V185.896H59.0645ZM59.3845 183.352C59.3845 183.491 59.3552 183.621 59.2965 183.744C59.2432 183.861 59.1685 183.968 59.0725 184.064C58.9818 184.155 58.8752 184.227 58.7525 184.28C58.6298 184.333 58.4992 184.36 58.3605 184.36C58.2218 184.36 58.0912 184.333 57.9685 184.28C57.8512 184.227 57.7445 184.155 57.6485 184.064C57.5578 183.968 57.4858 183.861 57.4325 183.744C57.3792 183.621 57.3525 183.491 57.3525 183.352C57.3525 183.213 57.3792 183.083 57.4325 182.96C57.4858 182.832 57.5578 182.723 57.6485 182.632C57.7445 182.536 57.8512 182.461 57.9685 182.408C58.0912 182.355 58.2218 182.328 58.3605 182.328C58.4992 182.328 58.6298 182.355 58.7525 182.408C58.8752 182.461 58.9818 182.536 59.0725 182.632C59.1685 182.723 59.2432 182.832 59.2965 182.96C59.3552 183.083 59.3845 183.213 59.3845 183.352ZM64.8543 185.768C65.4463 185.768 65.9796 185.867 66.4543 186.064C66.9343 186.261 67.3396 186.541 67.6703 186.904C68.0063 187.267 68.2623 187.707 68.4383 188.224C68.6196 188.736 68.7103 189.309 68.7103 189.944C68.7103 190.584 68.6196 191.16 68.4383 191.672C68.2623 192.184 68.0063 192.621 67.6703 192.984C67.3396 193.347 66.9343 193.627 66.4543 193.824C65.9796 194.016 65.4463 194.112 64.8543 194.112C64.2623 194.112 63.7263 194.016 63.2463 193.824C62.7716 193.627 62.3663 193.347 62.0303 192.984C61.6943 192.621 61.4356 192.184 61.2543 191.672C61.0729 191.16 60.9823 190.584 60.9823 189.944C60.9823 189.309 61.0729 188.736 61.2543 188.224C61.4356 187.707 61.6943 187.267 62.0303 186.904C62.3663 186.541 62.7716 186.261 63.2463 186.064C63.7263 185.867 64.2623 185.768 64.8543 185.768ZM64.8543 193C65.6543 193 66.2516 192.733 66.6463 192.2C67.0409 191.661 67.2383 190.912 67.2383 189.952C67.2383 188.987 67.0409 188.235 66.6463 187.696C66.2516 187.157 65.6543 186.888 64.8543 186.888C64.4489 186.888 64.0969 186.957 63.7983 187.096C63.4996 187.235 63.2489 187.435 63.0463 187.696C62.8489 187.957 62.6996 188.28 62.5983 188.664C62.5023 189.043 62.4543 189.472 62.4543 189.952C62.4543 190.432 62.5023 190.861 62.5983 191.24C62.6996 191.619 62.8489 191.939 63.0463 192.2C63.2489 192.456 63.4996 192.653 63.7983 192.792C64.0969 192.931 64.4489 193 64.8543 193ZM70.4649 194V185.896H71.3129C71.5155 185.896 71.6435 185.995 71.6969 186.192L71.8089 187.072C72.1609 186.683 72.5529 186.368 72.9849 186.128C73.4222 185.888 73.9262 185.768 74.4969 185.768C74.9395 185.768 75.3289 185.843 75.6649 185.992C76.0062 186.136 76.2889 186.344 76.5129 186.616C76.7422 186.883 76.9155 187.205 77.0329 187.584C77.1502 187.963 77.2089 188.381 77.2089 188.84V194H75.7849V188.84C75.7849 188.227 75.6435 187.752 75.3609 187.416C75.0835 187.075 74.6569 186.904 74.0809 186.904C73.6595 186.904 73.2649 187.005 72.8969 187.208C72.5342 187.411 72.1982 187.685 71.8889 188.032V194H70.4649ZM89.1053 183.16C89.1053 183.363 89.0413 183.531 88.9133 183.664C88.7853 183.792 88.5693 183.856 88.2653 183.856H84.6653L84.1373 186.864C84.7346 186.736 85.2866 186.672 85.7933 186.672C86.3906 186.672 86.9159 186.76 87.3693 186.936C87.8279 187.112 88.2119 187.355 88.5213 187.664C88.8306 187.973 89.0626 188.339 89.2173 188.76C89.3773 189.181 89.4573 189.64 89.4573 190.136C89.4573 190.744 89.3506 191.293 89.1373 191.784C88.9239 192.275 88.6306 192.696 88.2573 193.048C87.8893 193.395 87.4546 193.661 86.9533 193.848C86.4519 194.035 85.9106 194.128 85.3293 194.128C84.9933 194.128 84.6706 194.093 84.3613 194.024C84.0519 193.96 83.7639 193.872 83.4973 193.76C83.2306 193.648 82.9826 193.52 82.7533 193.376C82.5239 193.232 82.3213 193.08 82.1453 192.92L82.5773 192.312C82.6733 192.173 82.8013 192.104 82.9613 192.104C83.0626 192.104 83.1799 192.147 83.3133 192.232C83.4519 192.312 83.6173 192.403 83.8093 192.504C84.0013 192.605 84.2253 192.699 84.4813 192.784C84.7426 192.864 85.0519 192.904 85.4093 192.904C85.8093 192.904 86.1693 192.84 86.4893 192.712C86.8093 192.584 87.0813 192.403 87.3053 192.168C87.5346 191.928 87.7106 191.643 87.8333 191.312C87.9559 190.981 88.0173 190.611 88.0173 190.2C88.0173 189.843 87.9639 189.52 87.8573 189.232C87.7559 188.944 87.5986 188.699 87.3853 188.496C87.1773 188.293 86.9159 188.136 86.6013 188.024C86.2866 187.912 85.9186 187.856 85.4973 187.856C85.2093 187.856 84.9106 187.88 84.6013 187.928C84.2919 187.976 83.9719 188.053 83.6413 188.16L82.7453 187.896L83.6733 182.536H89.1053V183.16Z" fill="#3F3F3F"/>
</svg>
