<?xml version="1.0" encoding="UTF-8"?>
<svg width="24px" height="24px" viewBox="0 0 24 24" version="1.1" xmlns="http://www.w3.org/2000/svg" xmlns:xlink="http://www.w3.org/1999/xlink">
    <title>error</title>
    <g id="Page-1" stroke="none" stroke-width="1" fill="none" fill-rule="evenodd">
        <g id="error">
            <path d="M12,24 C18.6274,24 24,18.6274 24,12 C24,5.37258 18.6274,0 12,0 C5.37258,0 0,5.37258 0,12 C0,18.6274 5.37258,24 12,24 Z" id="Path" fill="#EA4A3E" fill-rule="nonzero"></path>
            <path d="M12.0405,18.5447 C11.596,18.5612 11.186,18.3062 11.0043,17.9001 C10.8227,17.4941 10.9057,17.0184 11.2142,16.6979 C11.5228,16.3775 11.995,16.2765 12.4076,16.4427 C12.8202,16.6089 13.0905,17.009 13.0909,17.4538 C13.1004,18.0445 12.6311,18.5319 12.0405,18.5447 Z" id="Path" fill="#3F3F3F"></path>
            <path d="M13.0902,13.0959 C13.1056,13.4788 12.9012,13.8391 12.5576,14.035 C12.214,14.2308 11.7862,14.2308 11.4426,14.035 C11.0989,13.8391 10.8946,13.4788 10.91,13.0959 L10.91,6.5406 C10.8946,6.15767 11.0989,5.79733 11.4426,5.60148 C11.7862,5.40563 12.214,5.40563 12.5576,5.60148 C12.9012,5.79733 13.1056,6.15767 13.0902,6.5406 L13.0902,13.0959 Z" id="Path" fill="#3F3F3F"></path>
        </g>
    </g>
</svg>