<svg width="372" height="19" viewBox="0 0 372 19" fill="none" xmlns="http://www.w3.org/2000/svg">
<path d="M1.392 16V4.536H5.048C5.752 4.536 6.35733 4.60533 6.864 4.744C7.376 4.88267 7.79467 5.08 8.12 5.336C8.45067 5.592 8.69333 5.90667 8.848 6.28C9.008 6.648 9.088 7.064 9.088 7.528C9.088 7.81067 9.04267 8.08267 8.952 8.344C8.86667 8.60533 8.73333 8.848 8.552 9.072C8.376 9.296 8.152 9.496 7.88 9.672C7.61333 9.848 7.29867 9.992 6.936 10.104C7.77333 10.2693 8.40533 10.5707 8.832 11.008C9.25867 11.4453 9.472 12.0213 9.472 12.736C9.472 13.2213 9.38133 13.664 9.2 14.064C9.024 14.464 8.76267 14.808 8.416 15.096C8.07467 15.384 7.65333 15.608 7.152 15.768C6.656 15.9227 6.088 16 5.448 16H1.392ZM2.944 10.776V14.768H5.424C5.86667 14.768 6.24533 14.7173 6.56 14.616C6.88 14.5147 7.14133 14.3733 7.344 14.192C7.552 14.0053 7.704 13.7867 7.8 13.536C7.896 13.28 7.944 13 7.944 12.696C7.944 12.104 7.73333 11.6373 7.312 11.296C6.896 10.9493 6.264 10.776 5.416 10.776H2.944ZM2.944 9.672H4.992C5.42933 9.672 5.808 9.624 6.128 9.528C6.448 9.432 6.712 9.29867 6.92 9.128C7.13333 8.95733 7.29067 8.752 7.392 8.512C7.49333 8.26667 7.544 8 7.544 7.712C7.544 7.04 7.34133 6.54667 6.936 6.232C6.53067 5.91733 5.90133 5.76 5.048 5.76H2.944V9.672ZM11.5274 16V7.896H12.3434C12.498 7.896 12.6047 7.92533 12.6634 7.984C12.722 8.04267 12.762 8.144 12.7834 8.288L12.8794 9.552C13.1567 8.98667 13.498 8.54667 13.9034 8.232C14.314 7.912 14.794 7.752 15.3434 7.752C15.5674 7.752 15.77 7.77867 15.9514 7.832C16.1327 7.88 16.3007 7.94933 16.4554 8.04L16.2714 9.104C16.234 9.23733 16.1514 9.304 16.0234 9.304C15.9487 9.304 15.834 9.28 15.6794 9.232C15.5247 9.17867 15.3087 9.152 15.0314 9.152C14.5354 9.152 14.1194 9.296 13.7834 9.584C13.4527 9.872 13.1754 10.2907 12.9514 10.84V16H11.5274ZM21.1885 7.768C21.6738 7.768 22.1218 7.85067 22.5325 8.016C22.9432 8.176 23.2978 8.41067 23.5965 8.72C23.8952 9.024 24.1272 9.40267 24.2925 9.856C24.4632 10.304 24.5485 10.816 24.5485 11.392C24.5485 11.616 24.5245 11.7653 24.4765 11.84C24.4285 11.9147 24.3378 11.952 24.2045 11.952H18.8125C18.8232 12.464 18.8925 12.9093 19.0205 13.288C19.1485 13.6667 19.3245 13.984 19.5485 14.24C19.7725 14.4907 20.0392 14.68 20.3485 14.808C20.6578 14.9307 21.0045 14.992 21.3885 14.992C21.7458 14.992 22.0525 14.952 22.3085 14.872C22.5698 14.7867 22.7938 14.696 22.9805 14.6C23.1672 14.504 23.3218 14.416 23.4445 14.336C23.5725 14.2507 23.6818 14.208 23.7725 14.208C23.8898 14.208 23.9805 14.2533 24.0445 14.344L24.4445 14.864C24.2685 15.0773 24.0578 15.264 23.8125 15.424C23.5672 15.5787 23.3032 15.7067 23.0205 15.808C22.7432 15.9093 22.4552 15.984 22.1565 16.032C21.8578 16.0853 21.5618 16.112 21.2685 16.112C20.7085 16.112 20.1912 16.0187 19.7165 15.832C19.2472 15.64 18.8392 15.3627 18.4925 15C18.1512 14.632 17.8845 14.1787 17.6925 13.64C17.5005 13.1013 17.4045 12.4827 17.4045 11.784C17.4045 11.2187 17.4898 10.6907 17.6605 10.2C17.8365 9.70933 18.0872 9.28533 18.4125 8.928C18.7378 8.56533 19.1352 8.28267 19.6045 8.08C20.0738 7.872 20.6018 7.768 21.1885 7.768ZM21.2205 8.816C20.5325 8.816 19.9912 9.016 19.5965 9.416C19.2018 9.81067 18.9565 10.36 18.8605 11.064H23.2685C23.2685 10.7333 23.2232 10.432 23.1325 10.16C23.0418 9.88267 22.9085 9.64533 22.7325 9.448C22.5565 9.24533 22.3405 9.09067 22.0845 8.984C21.8338 8.872 21.5458 8.816 21.2205 8.816ZM32.3231 16H31.6911C31.5525 16 31.4405 15.9787 31.3551 15.936C31.2698 15.8933 31.2138 15.8027 31.1871 15.664L31.0271 14.912C30.8138 15.104 30.6058 15.2773 30.4031 15.432C30.2005 15.5813 29.9871 15.7093 29.7631 15.816C29.5391 15.9173 29.2991 15.9947 29.0431 16.048C28.7925 16.1013 28.5125 16.128 28.2031 16.128C27.8885 16.128 27.5925 16.0853 27.3151 16C27.0431 15.9093 26.8058 15.776 26.6031 15.6C26.4005 15.424 26.2378 15.2027 26.1151 14.936C25.9978 14.664 25.9391 14.344 25.9391 13.976C25.9391 13.656 26.0271 13.3493 26.2031 13.056C26.3791 12.7573 26.6618 12.4933 27.0511 12.264C27.4458 12.0347 27.9605 11.848 28.5951 11.704C29.2298 11.5547 30.0058 11.4693 30.9231 11.448V10.816C30.9231 10.1867 30.7871 9.712 30.5151 9.392C30.2485 9.06667 29.8511 8.904 29.3231 8.904C28.9765 8.904 28.6831 8.94933 28.4431 9.04C28.2085 9.12533 28.0031 9.224 27.8271 9.336C27.6565 9.44267 27.5071 9.54133 27.3791 9.632C27.2565 9.71733 27.1338 9.76 27.0111 9.76C26.9151 9.76 26.8298 9.736 26.7551 9.688C26.6858 9.63467 26.6298 9.57067 26.5871 9.496L26.3311 9.04C26.7791 8.608 27.2618 8.28533 27.7791 8.072C28.2965 7.85867 28.8698 7.752 29.4991 7.752C29.9525 7.752 30.3551 7.82667 30.7071 7.976C31.0591 8.12533 31.3551 8.33333 31.5951 8.6C31.8351 8.86667 32.0165 9.18933 32.1391 9.568C32.2618 9.94667 32.3231 10.3627 32.3231 10.816V16ZM28.6271 15.128C28.8778 15.128 29.1071 15.104 29.3151 15.056C29.5231 15.0027 29.7178 14.9307 29.8991 14.84C30.0858 14.744 30.2618 14.6293 30.4271 14.496C30.5978 14.3627 30.7631 14.2107 30.9231 14.04V12.352C30.2671 12.3733 29.7098 12.4267 29.2511 12.512C28.7925 12.592 28.4191 12.6987 28.1311 12.832C27.8431 12.9653 27.6325 13.1227 27.4991 13.304C27.3711 13.4853 27.3071 13.688 27.3071 13.912C27.3071 14.1253 27.3418 14.3093 27.4111 14.464C27.4805 14.6187 27.5738 14.7467 27.6911 14.848C27.8085 14.944 27.9471 15.016 28.1071 15.064C28.2671 15.1067 28.4405 15.128 28.6271 15.128ZM40.1845 16C39.9818 16 39.8538 15.9013 39.8005 15.704L39.6725 14.72C39.3258 15.1413 38.9285 15.48 38.4805 15.736C38.0378 15.9867 37.5285 16.112 36.9525 16.112C36.4885 16.112 36.0672 16.024 35.6885 15.848C35.3098 15.6667 34.9872 15.4027 34.7205 15.056C34.4538 14.7093 34.2485 14.2773 34.1045 13.76C33.9605 13.2427 33.8885 12.648 33.8885 11.976C33.8885 11.3787 33.9685 10.824 34.1285 10.312C34.2885 9.79467 34.5178 9.34667 34.8165 8.968C35.1205 8.58933 35.4885 8.29333 35.9205 8.08C36.3525 7.86133 36.8432 7.752 37.3925 7.752C37.8885 7.752 38.3125 7.83733 38.6645 8.008C39.0165 8.17333 39.3312 8.408 39.6085 8.712V4.216H41.0325V16H40.1845ZM37.4245 14.96C37.8885 14.96 38.2938 14.8533 38.6405 14.64C38.9925 14.4267 39.3152 14.1253 39.6085 13.736V9.816C39.3472 9.464 39.0592 9.21867 38.7445 9.08C38.4352 8.936 38.0912 8.864 37.7125 8.864C36.9552 8.864 36.3738 9.13333 35.9685 9.672C35.5632 10.2107 35.3605 10.9787 35.3605 11.976C35.3605 12.504 35.4058 12.9573 35.4965 13.336C35.5872 13.7093 35.7205 14.0187 35.8965 14.264C36.0725 14.504 36.2885 14.68 36.5445 14.792C36.8005 14.904 37.0938 14.96 37.4245 14.96ZM48.946 9.336C48.9033 9.39467 48.8607 9.44 48.818 9.472C48.7753 9.504 48.714 9.52 48.634 9.52C48.554 9.52 48.466 9.488 48.37 9.424C48.2793 9.35467 48.162 9.28 48.018 9.2C47.874 9.12 47.698 9.048 47.49 8.984C47.2873 8.91467 47.0367 8.88 46.738 8.88C46.3433 8.88 45.994 8.952 45.69 9.096C45.386 9.23467 45.13 9.43733 44.922 9.704C44.7193 9.97067 44.5647 10.2933 44.458 10.672C44.3567 11.0507 44.306 11.4747 44.306 11.944C44.306 12.4347 44.362 12.872 44.474 13.256C44.586 13.6347 44.7433 13.9547 44.946 14.216C45.1487 14.472 45.394 14.6693 45.682 14.808C45.9753 14.9413 46.3033 15.008 46.666 15.008C47.0127 15.008 47.298 14.968 47.522 14.888C47.746 14.8027 47.9327 14.7093 48.082 14.608C48.2313 14.5067 48.354 14.416 48.45 14.336C48.546 14.2507 48.642 14.208 48.738 14.208C48.8607 14.208 48.9513 14.2533 49.01 14.344L49.41 14.864C49.058 15.296 48.618 15.6133 48.09 15.816C47.562 16.0133 47.0047 16.112 46.418 16.112C45.9113 16.112 45.4393 16.0187 45.002 15.832C44.57 15.6453 44.194 15.376 43.874 15.024C43.554 14.6667 43.3007 14.2293 43.114 13.712C42.9327 13.1947 42.842 12.6053 42.842 11.944C42.842 11.3413 42.9247 10.784 43.09 10.272C43.2607 9.76 43.506 9.32 43.826 8.952C44.1513 8.57867 44.5513 8.288 45.026 8.08C45.5007 7.872 46.0447 7.768 46.658 7.768C47.2233 7.768 47.7247 7.86133 48.162 8.048C48.5993 8.22933 48.986 8.488 49.322 8.824L48.946 9.336ZM50.8868 16V7.896H51.7028C51.8574 7.896 51.9641 7.92533 52.0228 7.984C52.0814 8.04267 52.1214 8.144 52.1428 8.288L52.2388 9.552C52.5161 8.98667 52.8574 8.54667 53.2628 8.232C53.6734 7.912 54.1534 7.752 54.7028 7.752C54.9268 7.752 55.1294 7.77867 55.3108 7.832C55.4921 7.88 55.6601 7.94933 55.8148 8.04L55.6308 9.104C55.5934 9.23733 55.5108 9.304 55.3828 9.304C55.3081 9.304 55.1934 9.28 55.0388 9.232C54.8841 9.17867 54.6681 9.152 54.3908 9.152C53.8948 9.152 53.4788 9.296 53.1428 9.584C52.8121 9.872 52.5348 10.2907 52.3108 10.84V16H50.8868ZM58.5719 7.896V13.064C58.5719 13.6773 58.7132 14.152 58.9959 14.488C59.2785 14.824 59.7052 14.992 60.2759 14.992C60.6919 14.992 61.0839 14.8933 61.4519 14.696C61.8199 14.4987 62.1585 14.224 62.4679 13.872V7.896H63.8919V16H63.0439C62.8412 16 62.7132 15.9013 62.6599 15.704L62.5479 14.832C62.1959 15.2213 61.8012 15.536 61.3639 15.776C60.9265 16.0107 60.4252 16.128 59.8599 16.128C59.4172 16.128 59.0252 16.056 58.6839 15.912C58.3479 15.7627 58.0652 15.5547 57.8359 15.288C57.6065 15.0213 57.4332 14.6987 57.3159 14.32C57.2039 13.9413 57.1479 13.5227 57.1479 13.064V7.896H58.5719ZM66.2305 16V7.896H67.0785C67.2812 7.896 67.4092 7.99467 67.4625 8.192L67.5665 9.024C67.8652 8.656 68.1985 8.35467 68.5665 8.12C68.9398 7.88533 69.3718 7.768 69.8625 7.768C70.4118 7.768 70.8545 7.92 71.1905 8.224C71.5318 8.528 71.7772 8.93867 71.9265 9.456C72.0385 9.16267 72.1852 8.90933 72.3665 8.696C72.5532 8.48267 72.7612 8.30667 72.9905 8.168C73.2198 8.02933 73.4625 7.928 73.7185 7.864C73.9798 7.8 74.2438 7.768 74.5105 7.768C74.9372 7.768 75.3158 7.83733 75.6465 7.976C75.9825 8.10933 76.2652 8.30667 76.4945 8.568C76.7292 8.82933 76.9078 9.152 77.0305 9.536C77.1532 9.91467 77.2145 10.3493 77.2145 10.84V16H75.7905V10.84C75.7905 10.2053 75.6518 9.72533 75.3745 9.4C75.0972 9.06933 74.6945 8.904 74.1665 8.904C73.9318 8.904 73.7078 8.94667 73.4945 9.032C73.2865 9.112 73.1025 9.232 72.9425 9.392C72.7825 9.552 72.6545 9.75467 72.5585 10C72.4678 10.24 72.4225 10.52 72.4225 10.84V16H70.9985V10.84C70.9985 10.1893 70.8678 9.704 70.6065 9.384C70.3452 9.064 69.9638 8.904 69.4625 8.904C69.1105 8.904 68.7825 9 68.4785 9.192C68.1798 9.37867 67.9052 9.63467 67.6545 9.96V16H66.2305ZM79.4191 16V4.216H80.8511V9.064C81.1871 8.67467 81.5711 8.36267 82.0031 8.128C82.4405 7.888 82.9391 7.768 83.4991 7.768C83.9685 7.768 84.3925 7.856 84.7711 8.032C85.1498 8.208 85.4725 8.472 85.7391 8.824C86.0058 9.17067 86.2111 9.60267 86.3551 10.12C86.4991 10.632 86.5711 11.224 86.5711 11.896C86.5711 12.4933 86.4911 13.0507 86.3311 13.568C86.1711 14.08 85.9391 14.5253 85.6351 14.904C85.3365 15.2773 84.9685 15.5733 84.5311 15.792C84.0991 16.0053 83.6111 16.112 83.0671 16.112C82.5445 16.112 82.0991 16.0107 81.7311 15.808C81.3685 15.6053 81.0511 15.3227 80.7791 14.96L80.7071 15.696C80.6645 15.8987 80.5418 16 80.3391 16H79.4191ZM83.0351 8.904C82.5711 8.904 82.1631 9.01067 81.8111 9.224C81.4645 9.43733 81.1445 9.73867 80.8511 10.128V14.048C81.1071 14.4 81.3898 14.648 81.6991 14.792C82.0138 14.936 82.3631 15.008 82.7471 15.008C83.5045 15.008 84.0858 14.7387 84.4911 14.2C84.8965 13.6613 85.0991 12.8933 85.0991 11.896C85.0991 11.368 85.0511 10.9147 84.9551 10.536C84.8645 10.1573 84.7311 9.848 84.5551 9.608C84.3791 9.36267 84.1631 9.184 83.9071 9.072C83.6511 8.96 83.3605 8.904 83.0351 8.904ZM92.5304 14.912H94.9944V7.096C94.9944 6.86133 95.0024 6.624 95.0184 6.384L92.9704 8.136C92.917 8.17867 92.8637 8.21067 92.8104 8.232C92.757 8.248 92.7064 8.256 92.6584 8.256C92.5784 8.256 92.5064 8.24 92.4424 8.208C92.3784 8.17067 92.3304 8.128 92.2984 8.08L91.8504 7.464L95.2584 4.512H96.4184V14.912H98.6744V16H92.5304V14.912Z" fill="#2656C9"/>
<path d="M141.392 16V4.536H145.048C145.752 4.536 146.357 4.60533 146.864 4.744C147.376 4.88267 147.795 5.08 148.12 5.336C148.451 5.592 148.693 5.90667 148.848 6.28C149.008 6.648 149.088 7.064 149.088 7.528C149.088 7.81067 149.043 8.08267 148.952 8.344C148.867 8.60533 148.733 8.848 148.552 9.072C148.376 9.296 148.152 9.496 147.88 9.672C147.613 9.848 147.299 9.992 146.936 10.104C147.773 10.2693 148.405 10.5707 148.832 11.008C149.259 11.4453 149.472 12.0213 149.472 12.736C149.472 13.2213 149.381 13.664 149.2 14.064C149.024 14.464 148.763 14.808 148.416 15.096C148.075 15.384 147.653 15.608 147.152 15.768C146.656 15.9227 146.088 16 145.448 16H141.392ZM142.944 10.776V14.768H145.424C145.867 14.768 146.245 14.7173 146.56 14.616C146.88 14.5147 147.141 14.3733 147.344 14.192C147.552 14.0053 147.704 13.7867 147.8 13.536C147.896 13.28 147.944 13 147.944 12.696C147.944 12.104 147.733 11.6373 147.312 11.296C146.896 10.9493 146.264 10.776 145.416 10.776H142.944ZM142.944 9.672H144.992C145.429 9.672 145.808 9.624 146.128 9.528C146.448 9.432 146.712 9.29867 146.92 9.128C147.133 8.95733 147.291 8.752 147.392 8.512C147.493 8.26667 147.544 8 147.544 7.712C147.544 7.04 147.341 6.54667 146.936 6.232C146.531 5.91733 145.901 5.76 145.048 5.76H142.944V9.672ZM151.527 16V7.896H152.343C152.498 7.896 152.605 7.92533 152.663 7.984C152.722 8.04267 152.762 8.144 152.783 8.288L152.879 9.552C153.157 8.98667 153.498 8.54667 153.903 8.232C154.314 7.912 154.794 7.752 155.343 7.752C155.567 7.752 155.77 7.77867 155.951 7.832C156.133 7.88 156.301 7.94933 156.455 8.04L156.271 9.104C156.234 9.23733 156.151 9.304 156.023 9.304C155.949 9.304 155.834 9.28 155.679 9.232C155.525 9.17867 155.309 9.152 155.031 9.152C154.535 9.152 154.119 9.296 153.783 9.584C153.453 9.872 153.175 10.2907 152.951 10.84V16H151.527ZM161.189 7.768C161.674 7.768 162.122 7.85067 162.533 8.016C162.943 8.176 163.298 8.41067 163.597 8.72C163.895 9.024 164.127 9.40267 164.293 9.856C164.463 10.304 164.549 10.816 164.549 11.392C164.549 11.616 164.525 11.7653 164.477 11.84C164.429 11.9147 164.338 11.952 164.205 11.952H158.812C158.823 12.464 158.893 12.9093 159.021 13.288C159.149 13.6667 159.325 13.984 159.549 14.24C159.773 14.4907 160.039 14.68 160.349 14.808C160.658 14.9307 161.005 14.992 161.389 14.992C161.746 14.992 162.053 14.952 162.309 14.872C162.57 14.7867 162.794 14.696 162.981 14.6C163.167 14.504 163.322 14.416 163.445 14.336C163.573 14.2507 163.682 14.208 163.773 14.208C163.89 14.208 163.981 14.2533 164.045 14.344L164.445 14.864C164.269 15.0773 164.058 15.264 163.813 15.424C163.567 15.5787 163.303 15.7067 163.021 15.808C162.743 15.9093 162.455 15.984 162.157 16.032C161.858 16.0853 161.562 16.112 161.269 16.112C160.709 16.112 160.191 16.0187 159.717 15.832C159.247 15.64 158.839 15.3627 158.493 15C158.151 14.632 157.885 14.1787 157.693 13.64C157.501 13.1013 157.405 12.4827 157.405 11.784C157.405 11.2187 157.49 10.6907 157.661 10.2C157.837 9.70933 158.087 9.28533 158.413 8.928C158.738 8.56533 159.135 8.28267 159.605 8.08C160.074 7.872 160.602 7.768 161.189 7.768ZM161.22 8.816C160.533 8.816 159.991 9.016 159.597 9.416C159.202 9.81067 158.957 10.36 158.861 11.064H163.269C163.269 10.7333 163.223 10.432 163.133 10.16C163.042 9.88267 162.909 9.64533 162.733 9.448C162.557 9.24533 162.341 9.09067 162.085 8.984C161.834 8.872 161.546 8.816 161.22 8.816ZM172.323 16H171.691C171.552 16 171.44 15.9787 171.355 15.936C171.27 15.8933 171.214 15.8027 171.187 15.664L171.027 14.912C170.814 15.104 170.606 15.2773 170.403 15.432C170.2 15.5813 169.987 15.7093 169.763 15.816C169.539 15.9173 169.299 15.9947 169.043 16.048C168.792 16.1013 168.512 16.128 168.203 16.128C167.888 16.128 167.592 16.0853 167.315 16C167.043 15.9093 166.806 15.776 166.603 15.6C166.4 15.424 166.238 15.2027 166.115 14.936C165.998 14.664 165.939 14.344 165.939 13.976C165.939 13.656 166.027 13.3493 166.203 13.056C166.379 12.7573 166.662 12.4933 167.051 12.264C167.446 12.0347 167.96 11.848 168.595 11.704C169.23 11.5547 170.006 11.4693 170.923 11.448V10.816C170.923 10.1867 170.787 9.712 170.515 9.392C170.248 9.06667 169.851 8.904 169.323 8.904C168.976 8.904 168.683 8.94933 168.443 9.04C168.208 9.12533 168.003 9.224 167.827 9.336C167.656 9.44267 167.507 9.54133 167.379 9.632C167.256 9.71733 167.134 9.76 167.011 9.76C166.915 9.76 166.83 9.736 166.755 9.688C166.686 9.63467 166.63 9.57067 166.587 9.496L166.331 9.04C166.779 8.608 167.262 8.28533 167.779 8.072C168.296 7.85867 168.87 7.752 169.499 7.752C169.952 7.752 170.355 7.82667 170.707 7.976C171.059 8.12533 171.355 8.33333 171.595 8.6C171.835 8.86667 172.016 9.18933 172.139 9.568C172.262 9.94667 172.323 10.3627 172.323 10.816V16ZM168.627 15.128C168.878 15.128 169.107 15.104 169.315 15.056C169.523 15.0027 169.718 14.9307 169.899 14.84C170.086 14.744 170.262 14.6293 170.427 14.496C170.598 14.3627 170.763 14.2107 170.923 14.04V12.352C170.267 12.3733 169.71 12.4267 169.251 12.512C168.792 12.592 168.419 12.6987 168.131 12.832C167.843 12.9653 167.632 13.1227 167.499 13.304C167.371 13.4853 167.307 13.688 167.307 13.912C167.307 14.1253 167.342 14.3093 167.411 14.464C167.48 14.6187 167.574 14.7467 167.691 14.848C167.808 14.944 167.947 15.016 168.107 15.064C168.267 15.1067 168.44 15.128 168.627 15.128ZM180.185 16C179.982 16 179.854 15.9013 179.801 15.704L179.673 14.72C179.326 15.1413 178.929 15.48 178.481 15.736C178.038 15.9867 177.529 16.112 176.953 16.112C176.489 16.112 176.067 16.024 175.689 15.848C175.31 15.6667 174.987 15.4027 174.721 15.056C174.454 14.7093 174.249 14.2773 174.105 13.76C173.961 13.2427 173.889 12.648 173.889 11.976C173.889 11.3787 173.969 10.824 174.129 10.312C174.289 9.79467 174.518 9.34667 174.817 8.968C175.121 8.58933 175.489 8.29333 175.921 8.08C176.353 7.86133 176.843 7.752 177.393 7.752C177.889 7.752 178.313 7.83733 178.665 8.008C179.017 8.17333 179.331 8.408 179.609 8.712V4.216H181.033V16H180.185ZM177.424 14.96C177.889 14.96 178.294 14.8533 178.641 14.64C178.993 14.4267 179.315 14.1253 179.609 13.736V9.816C179.347 9.464 179.059 9.21867 178.745 9.08C178.435 8.936 178.091 8.864 177.713 8.864C176.955 8.864 176.374 9.13333 175.969 9.672C175.563 10.2107 175.361 10.9787 175.361 11.976C175.361 12.504 175.406 12.9573 175.497 13.336C175.587 13.7093 175.721 14.0187 175.897 14.264C176.073 14.504 176.289 14.68 176.545 14.792C176.801 14.904 177.094 14.96 177.424 14.96ZM188.946 9.336C188.903 9.39467 188.861 9.44 188.818 9.472C188.775 9.504 188.714 9.52 188.634 9.52C188.554 9.52 188.466 9.488 188.37 9.424C188.279 9.35467 188.162 9.28 188.018 9.2C187.874 9.12 187.698 9.048 187.49 8.984C187.287 8.91467 187.037 8.88 186.738 8.88C186.343 8.88 185.994 8.952 185.69 9.096C185.386 9.23467 185.13 9.43733 184.922 9.704C184.719 9.97067 184.565 10.2933 184.458 10.672C184.357 11.0507 184.306 11.4747 184.306 11.944C184.306 12.4347 184.362 12.872 184.474 13.256C184.586 13.6347 184.743 13.9547 184.946 14.216C185.149 14.472 185.394 14.6693 185.682 14.808C185.975 14.9413 186.303 15.008 186.666 15.008C187.013 15.008 187.298 14.968 187.522 14.888C187.746 14.8027 187.933 14.7093 188.082 14.608C188.231 14.5067 188.354 14.416 188.45 14.336C188.546 14.2507 188.642 14.208 188.738 14.208C188.861 14.208 188.951 14.2533 189.01 14.344L189.41 14.864C189.058 15.296 188.618 15.6133 188.09 15.816C187.562 16.0133 187.005 16.112 186.418 16.112C185.911 16.112 185.439 16.0187 185.002 15.832C184.57 15.6453 184.194 15.376 183.874 15.024C183.554 14.6667 183.301 14.2293 183.114 13.712C182.933 13.1947 182.842 12.6053 182.842 11.944C182.842 11.3413 182.925 10.784 183.09 10.272C183.261 9.76 183.506 9.32 183.826 8.952C184.151 8.57867 184.551 8.288 185.026 8.08C185.501 7.872 186.045 7.768 186.658 7.768C187.223 7.768 187.725 7.86133 188.162 8.048C188.599 8.22933 188.986 8.488 189.322 8.824L188.946 9.336ZM190.887 16V7.896H191.703C191.857 7.896 191.964 7.92533 192.023 7.984C192.081 8.04267 192.121 8.144 192.143 8.288L192.239 9.552C192.516 8.98667 192.857 8.54667 193.263 8.232C193.673 7.912 194.153 7.752 194.703 7.752C194.927 7.752 195.129 7.77867 195.311 7.832C195.492 7.88 195.66 7.94933 195.815 8.04L195.631 9.104C195.593 9.23733 195.511 9.304 195.383 9.304C195.308 9.304 195.193 9.28 195.039 9.232C194.884 9.17867 194.668 9.152 194.391 9.152C193.895 9.152 193.479 9.296 193.143 9.584C192.812 9.872 192.535 10.2907 192.311 10.84V16H190.887ZM198.572 7.896V13.064C198.572 13.6773 198.713 14.152 198.996 14.488C199.279 14.824 199.705 14.992 200.276 14.992C200.692 14.992 201.084 14.8933 201.452 14.696C201.82 14.4987 202.159 14.224 202.468 13.872V7.896H203.892V16H203.044C202.841 16 202.713 15.9013 202.66 15.704L202.548 14.832C202.196 15.2213 201.801 15.536 201.364 15.776C200.927 16.0107 200.425 16.128 199.86 16.128C199.417 16.128 199.025 16.056 198.684 15.912C198.348 15.7627 198.065 15.5547 197.836 15.288C197.607 15.0213 197.433 14.6987 197.316 14.32C197.204 13.9413 197.148 13.5227 197.148 13.064V7.896H198.572ZM206.231 16V7.896H207.079C207.281 7.896 207.409 7.99467 207.463 8.192L207.567 9.024C207.865 8.656 208.199 8.35467 208.567 8.12C208.94 7.88533 209.372 7.768 209.863 7.768C210.412 7.768 210.855 7.92 211.191 8.224C211.532 8.528 211.777 8.93867 211.927 9.456C212.039 9.16267 212.185 8.90933 212.367 8.696C212.553 8.48267 212.761 8.30667 212.991 8.168C213.22 8.02933 213.463 7.928 213.719 7.864C213.98 7.8 214.244 7.768 214.511 7.768C214.937 7.768 215.316 7.83733 215.647 7.976C215.983 8.10933 216.265 8.30667 216.495 8.568C216.729 8.82933 216.908 9.152 217.031 9.536C217.153 9.91467 217.215 10.3493 217.215 10.84V16H215.791V10.84C215.791 10.2053 215.652 9.72533 215.375 9.4C215.097 9.06933 214.695 8.904 214.167 8.904C213.932 8.904 213.708 8.94667 213.495 9.032C213.287 9.112 213.103 9.232 212.943 9.392C212.783 9.552 212.655 9.75467 212.559 10C212.468 10.24 212.423 10.52 212.423 10.84V16H210.999V10.84C210.999 10.1893 210.868 9.704 210.607 9.384C210.345 9.064 209.964 8.904 209.463 8.904C209.111 8.904 208.783 9 208.479 9.192C208.18 9.37867 207.905 9.63467 207.655 9.96V16H206.231ZM219.419 16V4.216H220.851V9.064C221.187 8.67467 221.571 8.36267 222.003 8.128C222.44 7.888 222.939 7.768 223.499 7.768C223.968 7.768 224.392 7.856 224.771 8.032C225.15 8.208 225.472 8.472 225.739 8.824C226.006 9.17067 226.211 9.60267 226.355 10.12C226.499 10.632 226.571 11.224 226.571 11.896C226.571 12.4933 226.491 13.0507 226.331 13.568C226.171 14.08 225.939 14.5253 225.635 14.904C225.336 15.2773 224.968 15.5733 224.531 15.792C224.099 16.0053 223.611 16.112 223.067 16.112C222.544 16.112 222.099 16.0107 221.731 15.808C221.368 15.6053 221.051 15.3227 220.779 14.96L220.707 15.696C220.664 15.8987 220.542 16 220.339 16H219.419ZM223.035 8.904C222.571 8.904 222.163 9.01067 221.811 9.224C221.464 9.43733 221.144 9.73867 220.851 10.128V14.048C221.107 14.4 221.39 14.648 221.699 14.792C222.014 14.936 222.363 15.008 222.747 15.008C223.504 15.008 224.086 14.7387 224.491 14.2C224.896 13.6613 225.099 12.8933 225.099 11.896C225.099 11.368 225.051 10.9147 224.955 10.536C224.864 10.1573 224.731 9.848 224.555 9.608C224.379 9.36267 224.163 9.184 223.907 9.072C223.651 8.96 223.36 8.904 223.035 8.904ZM235.042 4.408C235.528 4.408 235.981 4.48 236.402 4.624C236.824 4.768 237.186 4.97867 237.49 5.256C237.8 5.528 238.042 5.86133 238.218 6.256C238.394 6.65067 238.482 7.09867 238.482 7.6C238.482 8.02667 238.418 8.42133 238.29 8.784C238.162 9.14667 237.989 9.496 237.77 9.832C237.552 10.1627 237.298 10.4853 237.01 10.8C236.728 11.1093 236.426 11.4267 236.106 11.752L233.09 14.84C233.304 14.7813 233.52 14.736 233.738 14.704C233.957 14.6667 234.168 14.648 234.37 14.648H238.21C238.365 14.648 238.488 14.6933 238.578 14.784C238.669 14.8747 238.714 14.992 238.714 15.136V16H231.066V15.512C231.066 15.4107 231.085 15.3067 231.122 15.2C231.165 15.0933 231.232 14.9947 231.322 14.904L234.994 11.216C235.298 10.9067 235.576 10.6107 235.826 10.328C236.077 10.04 236.29 9.752 236.466 9.464C236.648 9.176 236.786 8.88533 236.882 8.592C236.978 8.29333 237.026 7.976 237.026 7.64C237.026 7.304 236.973 7.01067 236.866 6.76C236.76 6.504 236.613 6.29333 236.426 6.128C236.24 5.96267 236.021 5.84 235.77 5.76C235.52 5.67467 235.25 5.632 234.962 5.632C234.674 5.632 234.408 5.67467 234.162 5.76C233.917 5.84533 233.698 5.96533 233.506 6.12C233.32 6.26933 233.16 6.448 233.026 6.656C232.898 6.864 232.808 7.09333 232.754 7.344C232.712 7.49867 232.648 7.61067 232.562 7.68C232.477 7.74933 232.365 7.784 232.226 7.784C232.2 7.784 232.17 7.784 232.138 7.784C232.112 7.77867 232.08 7.77333 232.042 7.768L231.298 7.64C231.373 7.11733 231.517 6.656 231.73 6.256C231.944 5.85067 232.213 5.512 232.538 5.24C232.869 4.968 233.245 4.76267 233.666 4.624C234.093 4.48 234.552 4.408 235.042 4.408Z" fill="#2656C9"/>
<path d="M286.12 13.272C286.237 13.272 286.339 13.3173 286.424 13.408L287.272 14.328C286.803 14.9093 286.224 15.3547 285.536 15.664C284.853 15.9733 284.032 16.128 283.072 16.128C282.213 16.128 281.44 15.9813 280.752 15.688C280.069 15.3947 279.485 14.9867 279 14.464C278.515 13.9413 278.141 13.3173 277.88 12.592C277.624 11.8667 277.496 11.0747 277.496 10.216C277.496 9.34667 277.64 8.552 277.928 7.832C278.216 7.10667 278.621 6.48267 279.144 5.96C279.667 5.43733 280.291 5.032 281.016 4.744C281.747 4.45067 282.552 4.304 283.432 4.304C284.291 4.304 285.04 4.44267 285.68 4.72C286.325 4.992 286.877 5.35467 287.336 5.808L286.616 6.808C286.573 6.872 286.517 6.928 286.448 6.976C286.384 7.024 286.293 7.048 286.176 7.048C286.053 7.048 285.928 7 285.8 6.904C285.672 6.808 285.509 6.704 285.312 6.592C285.115 6.48 284.864 6.376 284.56 6.28C284.261 6.184 283.88 6.136 283.416 6.136C282.872 6.136 282.371 6.232 281.912 6.424C281.459 6.61067 281.067 6.88 280.736 7.232C280.411 7.584 280.155 8.01333 279.968 8.52C279.787 9.02133 279.696 9.58667 279.696 10.216C279.696 10.8667 279.787 11.4453 279.968 11.952C280.155 12.4587 280.405 12.8853 280.72 13.232C281.035 13.5787 281.405 13.8453 281.832 14.032C282.259 14.2133 282.717 14.304 283.208 14.304C283.501 14.304 283.765 14.288 284 14.256C284.24 14.224 284.459 14.1733 284.656 14.104C284.859 14.0347 285.048 13.9467 285.224 13.84C285.405 13.728 285.584 13.592 285.76 13.432C285.813 13.384 285.869 13.3467 285.928 13.32C285.987 13.288 286.051 13.272 286.12 13.272ZM290.598 7.792V13.008C290.598 13.5093 290.713 13.8987 290.942 14.176C291.177 14.448 291.526 14.584 291.99 14.584C292.332 14.584 292.652 14.5093 292.95 14.36C293.249 14.2053 293.532 13.9947 293.798 13.728V7.792H295.774V16H294.566C294.31 16 294.142 15.88 294.062 15.64L293.926 14.984C293.756 15.1547 293.58 15.312 293.398 15.456C293.217 15.5947 293.022 15.7147 292.814 15.816C292.612 15.912 292.39 15.9867 292.15 16.04C291.916 16.0987 291.662 16.128 291.39 16.128C290.942 16.128 290.545 16.0533 290.198 15.904C289.857 15.7493 289.569 15.5333 289.334 15.256C289.1 14.9787 288.921 14.6507 288.798 14.272C288.681 13.888 288.622 13.4667 288.622 13.008V7.792H290.598ZM297.884 16V7.792H299.044C299.247 7.792 299.388 7.82933 299.468 7.904C299.548 7.97867 299.601 8.10667 299.628 8.288L299.748 9.28C300.041 8.77333 300.385 8.37333 300.78 8.08C301.175 7.78667 301.617 7.64 302.108 7.64C302.513 7.64 302.849 7.73333 303.116 7.92L302.86 9.4C302.844 9.496 302.809 9.56533 302.756 9.608C302.703 9.64533 302.631 9.664 302.54 9.664C302.46 9.664 302.351 9.64533 302.212 9.608C302.073 9.57067 301.889 9.552 301.66 9.552C301.249 9.552 300.897 9.66667 300.604 9.896C300.311 10.12 300.063 10.4507 299.86 10.888V16H297.884ZM304.415 16V7.792H305.575C305.778 7.792 305.919 7.82933 305.999 7.904C306.079 7.97867 306.133 8.10667 306.159 8.288L306.279 9.28C306.573 8.77333 306.917 8.37333 307.311 8.08C307.706 7.78667 308.149 7.64 308.639 7.64C309.045 7.64 309.381 7.73333 309.647 7.92L309.391 9.4C309.375 9.496 309.341 9.56533 309.287 9.608C309.234 9.64533 309.162 9.664 309.071 9.664C308.991 9.664 308.882 9.64533 308.743 9.608C308.605 9.57067 308.421 9.552 308.191 9.552C307.781 9.552 307.429 9.66667 307.135 9.896C306.842 10.12 306.594 10.4507 306.391 10.888V16H304.415ZM314.339 7.664C314.856 7.664 315.331 7.74667 315.763 7.912C316.2 8.07733 316.576 8.32 316.891 8.64C317.205 8.95467 317.451 9.344 317.627 9.808C317.803 10.2667 317.891 10.792 317.891 11.384C317.891 11.5333 317.883 11.6587 317.867 11.76C317.856 11.856 317.832 11.9333 317.795 11.992C317.763 12.0453 317.717 12.0853 317.659 12.112C317.6 12.1333 317.525 12.144 317.435 12.144H312.363C312.421 12.9867 312.648 13.6053 313.043 14C313.437 14.3947 313.96 14.592 314.611 14.592C314.931 14.592 315.205 14.5547 315.435 14.48C315.669 14.4053 315.872 14.3227 316.043 14.232C316.219 14.1413 316.371 14.0587 316.499 13.984C316.632 13.9093 316.76 13.872 316.883 13.872C316.963 13.872 317.032 13.888 317.091 13.92C317.149 13.952 317.2 13.9973 317.243 14.056L317.819 14.776C317.6 15.032 317.355 15.248 317.083 15.424C316.811 15.5947 316.525 15.7333 316.227 15.84C315.933 15.9413 315.632 16.0133 315.323 16.056C315.019 16.0987 314.723 16.12 314.435 16.12C313.864 16.12 313.333 16.0267 312.843 15.84C312.352 15.648 311.925 15.368 311.563 15C311.2 14.6267 310.915 14.168 310.707 13.624C310.499 13.0747 310.395 12.44 310.395 11.72C310.395 11.16 310.485 10.6347 310.667 10.144C310.848 9.648 311.107 9.21867 311.443 8.856C311.784 8.488 312.197 8.19733 312.683 7.984C313.173 7.77067 313.725 7.664 314.339 7.664ZM314.379 9.08C313.803 9.08 313.352 9.24267 313.027 9.568C312.701 9.89333 312.493 10.3547 312.403 10.952H316.115C316.115 10.696 316.08 10.456 316.011 10.232C315.941 10.0027 315.835 9.80267 315.691 9.632C315.547 9.46133 315.365 9.328 315.147 9.232C314.928 9.13067 314.672 9.08 314.379 9.08ZM319.493 16V7.792H320.702C320.958 7.792 321.126 7.912 321.206 8.152L321.342 8.8C321.507 8.62933 321.68 8.47467 321.862 8.336C322.048 8.19733 322.243 8.07733 322.446 7.976C322.654 7.87467 322.875 7.79733 323.11 7.744C323.344 7.69067 323.6 7.664 323.878 7.664C324.326 7.664 324.723 7.74133 325.07 7.896C325.416 8.04533 325.704 8.25867 325.934 8.536C326.168 8.808 326.344 9.136 326.462 9.52C326.584 9.89867 326.646 10.3173 326.646 10.776V16H324.67V10.776C324.67 10.2747 324.552 9.888 324.318 9.616C324.088 9.33867 323.742 9.2 323.278 9.2C322.936 9.2 322.616 9.27733 322.318 9.432C322.019 9.58667 321.736 9.79733 321.47 10.064V16H319.493ZM331.283 16.128C330.574 16.128 330.027 15.928 329.643 15.528C329.259 15.1227 329.067 14.5653 329.067 13.856V9.272H328.235C328.129 9.272 328.035 9.23733 327.955 9.168C327.881 9.09867 327.843 8.99467 327.843 8.856V8.072L329.163 7.856L329.579 5.616C329.601 5.50933 329.649 5.42667 329.723 5.368C329.803 5.30933 329.902 5.28 330.019 5.28H331.043V7.864H333.203V9.272H331.043V13.72C331.043 13.976 331.107 14.176 331.235 14.32C331.363 14.464 331.534 14.536 331.747 14.536C331.87 14.536 331.971 14.5227 332.051 14.496C332.137 14.464 332.209 14.432 332.267 14.4C332.331 14.368 332.387 14.3387 332.435 14.312C332.483 14.28 332.531 14.264 332.579 14.264C332.638 14.264 332.686 14.28 332.723 14.312C332.761 14.3387 332.801 14.3813 332.843 14.44L333.435 15.4C333.147 15.64 332.817 15.8213 332.443 15.944C332.07 16.0667 331.683 16.128 331.283 16.128ZM337.868 18.68V7.792H339.077C339.205 7.792 339.314 7.82133 339.405 7.88C339.495 7.93867 339.554 8.02933 339.581 8.152L339.741 8.912C340.071 8.53333 340.45 8.22667 340.877 7.992C341.309 7.75733 341.813 7.64 342.389 7.64C342.837 7.64 343.245 7.73333 343.613 7.92C343.986 8.10667 344.306 8.37867 344.573 8.736C344.845 9.088 345.053 9.52533 345.197 10.048C345.346 10.5653 345.421 11.16 345.421 11.832C345.421 12.4453 345.338 13.0133 345.173 13.536C345.007 14.0587 344.77 14.512 344.461 14.896C344.157 15.28 343.786 15.5813 343.349 15.8C342.917 16.0133 342.431 16.12 341.893 16.12C341.429 16.12 341.034 16.0507 340.709 15.912C340.389 15.768 340.101 15.5707 339.845 15.32V18.68H337.868ZM341.709 9.2C341.298 9.2 340.946 9.288 340.653 9.464C340.365 9.63467 340.095 9.87733 339.845 10.192V13.872C340.069 14.1493 340.311 14.344 340.573 14.456C340.839 14.5627 341.125 14.616 341.429 14.616C341.727 14.616 341.997 14.56 342.237 14.448C342.482 14.336 342.687 14.1653 342.853 13.936C343.023 13.7067 343.154 13.4187 343.245 13.072C343.335 12.72 343.381 12.3067 343.381 11.832C343.381 11.352 343.341 10.9467 343.261 10.616C343.186 10.28 343.077 10.008 342.933 9.8C342.789 9.592 342.613 9.44 342.405 9.344C342.202 9.248 341.97 9.2 341.709 9.2ZM353.347 16H352.459C352.273 16 352.126 15.9733 352.019 15.92C351.913 15.8613 351.833 15.7467 351.779 15.576L351.603 14.992C351.395 15.1787 351.19 15.344 350.987 15.488C350.79 15.6267 350.585 15.744 350.371 15.84C350.158 15.936 349.931 16.008 349.691 16.056C349.451 16.104 349.185 16.128 348.891 16.128C348.545 16.128 348.225 16.0827 347.931 15.992C347.638 15.896 347.385 15.7547 347.171 15.568C346.963 15.3813 346.801 15.1493 346.683 14.872C346.566 14.5947 346.507 14.272 346.507 13.904C346.507 13.5947 346.587 13.2907 346.747 12.992C346.913 12.688 347.185 12.416 347.563 12.176C347.942 11.9307 348.446 11.728 349.075 11.568C349.705 11.408 350.486 11.3173 351.419 11.296V10.816C351.419 10.2667 351.302 9.86133 351.067 9.6C350.838 9.33333 350.502 9.2 350.059 9.2C349.739 9.2 349.473 9.23733 349.259 9.312C349.046 9.38667 348.859 9.472 348.699 9.568C348.545 9.65867 348.401 9.74133 348.267 9.816C348.134 9.89067 347.987 9.928 347.827 9.928C347.694 9.928 347.579 9.89333 347.483 9.824C347.387 9.75467 347.31 9.66933 347.251 9.568L346.891 8.936C347.835 8.072 348.974 7.64 350.307 7.64C350.787 7.64 351.214 7.72 351.587 7.88C351.966 8.03467 352.286 8.25333 352.547 8.536C352.809 8.81333 353.006 9.14667 353.139 9.536C353.278 9.92533 353.347 10.352 353.347 10.816V16ZM349.507 14.768C349.71 14.768 349.897 14.7493 350.067 14.712C350.238 14.6747 350.398 14.6187 350.547 14.544C350.702 14.4693 350.849 14.3787 350.987 14.272C351.131 14.16 351.275 14.0293 351.419 13.88V12.496C350.843 12.5227 350.361 12.5733 349.971 12.648C349.587 12.7173 349.278 12.808 349.043 12.92C348.809 13.032 348.641 13.1627 348.539 13.312C348.443 13.4613 348.395 13.624 348.395 13.8C348.395 14.1467 348.497 14.3947 348.699 14.544C348.907 14.6933 349.177 14.768 349.507 14.768ZM358.13 7.648C358.482 7.648 358.813 7.68533 359.122 7.76C359.432 7.82933 359.714 7.93333 359.97 8.072H362.33V8.808C362.33 8.93067 362.298 9.02667 362.234 9.096C362.17 9.16533 362.061 9.21333 361.906 9.24L361.17 9.376C361.224 9.51467 361.264 9.66133 361.29 9.816C361.322 9.97067 361.338 10.1333 361.338 10.304C361.338 10.7093 361.256 11.0773 361.09 11.408C360.93 11.7333 360.706 12.0107 360.418 12.24C360.136 12.4693 359.797 12.648 359.402 12.776C359.013 12.8987 358.589 12.96 358.13 12.96C357.821 12.96 357.52 12.9307 357.226 12.872C356.97 13.0267 356.842 13.2 356.842 13.392C356.842 13.5573 356.917 13.68 357.066 13.76C357.221 13.8347 357.421 13.888 357.666 13.92C357.917 13.952 358.2 13.9733 358.514 13.984C358.829 13.9893 359.152 14.0053 359.482 14.032C359.813 14.0587 360.136 14.1067 360.45 14.176C360.765 14.24 361.045 14.344 361.29 14.488C361.541 14.632 361.741 14.8293 361.89 15.08C362.045 15.3253 362.122 15.6427 362.122 16.032C362.122 16.3947 362.032 16.7467 361.85 17.088C361.674 17.4293 361.416 17.7333 361.074 18C360.738 18.2667 360.325 18.48 359.834 18.64C359.344 18.8053 358.784 18.888 358.154 18.888C357.53 18.888 356.989 18.8267 356.53 18.704C356.072 18.5867 355.69 18.4267 355.386 18.224C355.088 18.0267 354.864 17.7973 354.714 17.536C354.565 17.2747 354.49 17.0027 354.49 16.72C354.49 16.336 354.608 16.0133 354.842 15.752C355.077 15.4907 355.402 15.2827 355.818 15.128C355.616 15.016 355.453 14.8667 355.33 14.68C355.208 14.4933 355.146 14.2507 355.146 13.952C355.146 13.8293 355.168 13.704 355.21 13.576C355.253 13.4427 355.317 13.312 355.402 13.184C355.493 13.056 355.605 12.936 355.738 12.824C355.872 12.7067 356.029 12.6027 356.21 12.512C355.794 12.288 355.466 11.9893 355.226 11.616C354.992 11.2427 354.874 10.8053 354.874 10.304C354.874 9.89867 354.954 9.53333 355.114 9.208C355.28 8.87733 355.506 8.59733 355.794 8.368C356.088 8.13333 356.432 7.95467 356.826 7.832C357.226 7.70933 357.661 7.648 358.13 7.648ZM360.298 16.368C360.298 16.208 360.25 16.0773 360.154 15.976C360.058 15.8747 359.928 15.7973 359.762 15.744C359.597 15.6853 359.402 15.6427 359.178 15.616C358.96 15.5893 358.725 15.5707 358.474 15.56C358.229 15.544 357.973 15.5307 357.706 15.52C357.445 15.504 357.192 15.48 356.946 15.448C356.722 15.5707 356.541 15.7173 356.402 15.888C356.269 16.0533 356.202 16.2453 356.202 16.464C356.202 16.608 356.237 16.7413 356.306 16.864C356.381 16.992 356.496 17.1013 356.65 17.192C356.81 17.2827 357.016 17.352 357.266 17.4C357.517 17.4533 357.824 17.48 358.186 17.48C358.554 17.48 358.872 17.4507 359.138 17.392C359.405 17.3387 359.624 17.2613 359.794 17.16C359.97 17.064 360.098 16.9467 360.178 16.808C360.258 16.6747 360.298 16.528 360.298 16.368ZM358.13 11.696C358.376 11.696 358.589 11.664 358.77 11.6C358.952 11.5307 359.101 11.4373 359.218 11.32C359.341 11.2027 359.432 11.0613 359.49 10.896C359.554 10.7307 359.586 10.5493 359.586 10.352C359.586 9.94667 359.464 9.62667 359.218 9.392C358.978 9.152 358.616 9.032 358.13 9.032C357.645 9.032 357.28 9.152 357.034 9.392C356.794 9.62667 356.674 9.94667 356.674 10.352C356.674 10.544 356.704 10.7227 356.762 10.888C356.826 11.0533 356.917 11.1973 357.034 11.32C357.157 11.4373 357.309 11.5307 357.49 11.6C357.677 11.664 357.89 11.696 358.13 11.696ZM366.964 7.664C367.481 7.664 367.956 7.74667 368.388 7.912C368.825 8.07733 369.201 8.32 369.516 8.64C369.83 8.95467 370.076 9.344 370.252 9.808C370.428 10.2667 370.516 10.792 370.516 11.384C370.516 11.5333 370.508 11.6587 370.492 11.76C370.481 11.856 370.457 11.9333 370.42 11.992C370.388 12.0453 370.342 12.0853 370.284 12.112C370.225 12.1333 370.15 12.144 370.06 12.144H364.988C365.046 12.9867 365.273 13.6053 365.668 14C366.062 14.3947 366.585 14.592 367.236 14.592C367.556 14.592 367.83 14.5547 368.06 14.48C368.294 14.4053 368.497 14.3227 368.668 14.232C368.844 14.1413 368.996 14.0587 369.124 13.984C369.257 13.9093 369.385 13.872 369.508 13.872C369.588 13.872 369.657 13.888 369.716 13.92C369.774 13.952 369.825 13.9973 369.868 14.056L370.444 14.776C370.225 15.032 369.98 15.248 369.708 15.424C369.436 15.5947 369.15 15.7333 368.852 15.84C368.558 15.9413 368.257 16.0133 367.948 16.056C367.644 16.0987 367.348 16.12 367.06 16.12C366.489 16.12 365.958 16.0267 365.468 15.84C364.977 15.648 364.55 15.368 364.188 15C363.825 14.6267 363.54 14.168 363.332 13.624C363.124 13.0747 363.02 12.44 363.02 11.72C363.02 11.16 363.11 10.6347 363.292 10.144C363.473 9.648 363.732 9.21867 364.068 8.856C364.409 8.488 364.822 8.19733 365.308 7.984C365.798 7.77067 366.35 7.664 366.964 7.664ZM367.004 9.08C366.428 9.08 365.977 9.24267 365.652 9.568C365.326 9.89333 365.118 10.3547 365.028 10.952H368.74C368.74 10.696 368.705 10.456 368.636 10.232C368.566 10.0027 368.46 9.80267 368.316 9.632C368.172 9.46133 367.99 9.328 367.772 9.232C367.553 9.13067 367.297 9.08 367.004 9.08Z" fill="black"/>
<circle cx="120" cy="11" r="8" fill="#D8D8D8"/>
<line x1="118.707" y1="8" x2="121.536" y2="10.8284" stroke="white" stroke-linecap="round"/>
<line x1="0.5" y1="-0.5" x2="4.5" y2="-0.5" transform="matrix(0.707107 -0.707107 -0.707107 -0.707107 118 14)" stroke="white" stroke-linecap="round"/>
<circle cx="258" cy="11" r="8" fill="#D8D8D8"/>
<line x1="256.707" y1="8" x2="259.536" y2="10.8284" stroke="white" stroke-linecap="round"/>
<line x1="0.5" y1="-0.5" x2="4.5" y2="-0.5" transform="matrix(0.707107 -0.707107 -0.707107 -0.707107 256 14)" stroke="white" stroke-linecap="round"/>
</svg>
