<svg width="258" height="19" viewBox="0 0 258 19" fill="none" xmlns="http://www.w3.org/2000/svg">
<path d="M19.392 16V4.536H23.048C23.752 4.536 24.3573 4.60533 24.864 4.744C25.376 4.88267 25.7947 5.08 26.12 5.336C26.4507 5.592 26.6933 5.90667 26.848 6.28C27.008 6.648 27.088 7.064 27.088 7.528C27.088 7.81067 27.0427 8.08267 26.952 8.344C26.8667 8.60533 26.7333 8.848 26.552 9.072C26.376 9.296 26.152 9.496 25.88 9.672C25.6133 9.848 25.2987 9.992 24.936 10.104C25.7733 10.2693 26.4053 10.5707 26.832 11.008C27.2587 11.4453 27.472 12.0213 27.472 12.736C27.472 13.2213 27.3813 13.664 27.2 14.064C27.024 14.464 26.7627 14.808 26.416 15.096C26.0747 15.384 25.6533 15.608 25.152 15.768C24.656 15.9227 24.088 16 23.448 16H19.392ZM20.944 10.776V14.768H23.424C23.8667 14.768 24.2453 14.7173 24.56 14.616C24.88 14.5147 25.1413 14.3733 25.344 14.192C25.552 14.0053 25.704 13.7867 25.8 13.536C25.896 13.28 25.944 13 25.944 12.696C25.944 12.104 25.7333 11.6373 25.312 11.296C24.896 10.9493 24.264 10.776 23.416 10.776H20.944ZM20.944 9.672H22.992C23.4293 9.672 23.808 9.624 24.128 9.528C24.448 9.432 24.712 9.29867 24.92 9.128C25.1333 8.95733 25.2907 8.752 25.392 8.512C25.4933 8.26667 25.544 8 25.544 7.712C25.544 7.04 25.3413 6.54667 24.936 6.232C24.5307 5.91733 23.9013 5.76 23.048 5.76H20.944V9.672ZM29.5274 16V7.896H30.3434C30.498 7.896 30.6047 7.92533 30.6634 7.984C30.722 8.04267 30.762 8.144 30.7834 8.288L30.8794 9.552C31.1567 8.98667 31.498 8.54667 31.9034 8.232C32.314 7.912 32.794 7.752 33.3434 7.752C33.5674 7.752 33.77 7.77867 33.9514 7.832C34.1327 7.88 34.3007 7.94933 34.4554 8.04L34.2714 9.104C34.234 9.23733 34.1514 9.304 34.0234 9.304C33.9487 9.304 33.834 9.28 33.6794 9.232C33.5247 9.17867 33.3087 9.152 33.0314 9.152C32.5354 9.152 32.1194 9.296 31.7834 9.584C31.4527 9.872 31.1754 10.2907 30.9514 10.84V16H29.5274ZM39.1885 7.768C39.6738 7.768 40.1218 7.85067 40.5325 8.016C40.9432 8.176 41.2978 8.41067 41.5965 8.72C41.8952 9.024 42.1272 9.40267 42.2925 9.856C42.4632 10.304 42.5485 10.816 42.5485 11.392C42.5485 11.616 42.5245 11.7653 42.4765 11.84C42.4285 11.9147 42.3378 11.952 42.2045 11.952H36.8125C36.8232 12.464 36.8925 12.9093 37.0205 13.288C37.1485 13.6667 37.3245 13.984 37.5485 14.24C37.7725 14.4907 38.0392 14.68 38.3485 14.808C38.6578 14.9307 39.0045 14.992 39.3885 14.992C39.7458 14.992 40.0525 14.952 40.3085 14.872C40.5698 14.7867 40.7938 14.696 40.9805 14.6C41.1672 14.504 41.3218 14.416 41.4445 14.336C41.5725 14.2507 41.6818 14.208 41.7725 14.208C41.8898 14.208 41.9805 14.2533 42.0445 14.344L42.4445 14.864C42.2685 15.0773 42.0578 15.264 41.8125 15.424C41.5672 15.5787 41.3032 15.7067 41.0205 15.808C40.7432 15.9093 40.4552 15.984 40.1565 16.032C39.8578 16.0853 39.5618 16.112 39.2685 16.112C38.7085 16.112 38.1912 16.0187 37.7165 15.832C37.2472 15.64 36.8392 15.3627 36.4925 15C36.1512 14.632 35.8845 14.1787 35.6925 13.64C35.5005 13.1013 35.4045 12.4827 35.4045 11.784C35.4045 11.2187 35.4898 10.6907 35.6605 10.2C35.8365 9.70933 36.0872 9.28533 36.4125 8.928C36.7378 8.56533 37.1352 8.28267 37.6045 8.08C38.0738 7.872 38.6018 7.768 39.1885 7.768ZM39.2205 8.816C38.5325 8.816 37.9912 9.016 37.5965 9.416C37.2018 9.81067 36.9565 10.36 36.8605 11.064H41.2685C41.2685 10.7333 41.2232 10.432 41.1325 10.16C41.0418 9.88267 40.9085 9.64533 40.7325 9.448C40.5565 9.24533 40.3405 9.09067 40.0845 8.984C39.8338 8.872 39.5458 8.816 39.2205 8.816ZM50.3231 16H49.6911C49.5525 16 49.4405 15.9787 49.3551 15.936C49.2698 15.8933 49.2138 15.8027 49.1871 15.664L49.0271 14.912C48.8138 15.104 48.6058 15.2773 48.4031 15.432C48.2005 15.5813 47.9871 15.7093 47.7631 15.816C47.5391 15.9173 47.2991 15.9947 47.0431 16.048C46.7925 16.1013 46.5125 16.128 46.2031 16.128C45.8885 16.128 45.5925 16.0853 45.3151 16C45.0431 15.9093 44.8058 15.776 44.6031 15.6C44.4005 15.424 44.2378 15.2027 44.1151 14.936C43.9978 14.664 43.9391 14.344 43.9391 13.976C43.9391 13.656 44.0271 13.3493 44.2031 13.056C44.3791 12.7573 44.6618 12.4933 45.0511 12.264C45.4458 12.0347 45.9605 11.848 46.5951 11.704C47.2298 11.5547 48.0058 11.4693 48.9231 11.448V10.816C48.9231 10.1867 48.7871 9.712 48.5151 9.392C48.2485 9.06667 47.8511 8.904 47.3231 8.904C46.9765 8.904 46.6831 8.94933 46.4431 9.04C46.2085 9.12533 46.0031 9.224 45.8271 9.336C45.6565 9.44267 45.5071 9.54133 45.3791 9.632C45.2565 9.71733 45.1338 9.76 45.0111 9.76C44.9151 9.76 44.8298 9.736 44.7551 9.688C44.6858 9.63467 44.6298 9.57067 44.5871 9.496L44.3311 9.04C44.7791 8.608 45.2618 8.28533 45.7791 8.072C46.2965 7.85867 46.8698 7.752 47.4991 7.752C47.9525 7.752 48.3551 7.82667 48.7071 7.976C49.0591 8.12533 49.3551 8.33333 49.5951 8.6C49.8351 8.86667 50.0165 9.18933 50.1391 9.568C50.2618 9.94667 50.3231 10.3627 50.3231 10.816V16ZM46.6271 15.128C46.8778 15.128 47.1071 15.104 47.3151 15.056C47.5231 15.0027 47.7178 14.9307 47.8991 14.84C48.0858 14.744 48.2618 14.6293 48.4271 14.496C48.5978 14.3627 48.7631 14.2107 48.9231 14.04V12.352C48.2671 12.3733 47.7098 12.4267 47.2511 12.512C46.7925 12.592 46.4191 12.6987 46.1311 12.832C45.8431 12.9653 45.6325 13.1227 45.4991 13.304C45.3711 13.4853 45.3071 13.688 45.3071 13.912C45.3071 14.1253 45.3418 14.3093 45.4111 14.464C45.4805 14.6187 45.5738 14.7467 45.6911 14.848C45.8085 14.944 45.9471 15.016 46.1071 15.064C46.2671 15.1067 46.4405 15.128 46.6271 15.128ZM58.1845 16C57.9818 16 57.8538 15.9013 57.8005 15.704L57.6725 14.72C57.3258 15.1413 56.9285 15.48 56.4805 15.736C56.0378 15.9867 55.5285 16.112 54.9525 16.112C54.4885 16.112 54.0672 16.024 53.6885 15.848C53.3098 15.6667 52.9872 15.4027 52.7205 15.056C52.4538 14.7093 52.2485 14.2773 52.1045 13.76C51.9605 13.2427 51.8885 12.648 51.8885 11.976C51.8885 11.3787 51.9685 10.824 52.1285 10.312C52.2885 9.79467 52.5178 9.34667 52.8165 8.968C53.1205 8.58933 53.4885 8.29333 53.9205 8.08C54.3525 7.86133 54.8432 7.752 55.3925 7.752C55.8885 7.752 56.3125 7.83733 56.6645 8.008C57.0165 8.17333 57.3312 8.408 57.6085 8.712V4.216H59.0325V16H58.1845ZM55.4245 14.96C55.8885 14.96 56.2938 14.8533 56.6405 14.64C56.9925 14.4267 57.3152 14.1253 57.6085 13.736V9.816C57.3472 9.464 57.0592 9.21867 56.7445 9.08C56.4352 8.936 56.0912 8.864 55.7125 8.864C54.9552 8.864 54.3738 9.13333 53.9685 9.672C53.5632 10.2107 53.3605 10.9787 53.3605 11.976C53.3605 12.504 53.4058 12.9573 53.4965 13.336C53.5872 13.7093 53.7205 14.0187 53.8965 14.264C54.0725 14.504 54.2885 14.68 54.5445 14.792C54.8005 14.904 55.0938 14.96 55.4245 14.96ZM66.946 9.336C66.9033 9.39467 66.8607 9.44 66.818 9.472C66.7753 9.504 66.714 9.52 66.634 9.52C66.554 9.52 66.466 9.488 66.37 9.424C66.2793 9.35467 66.162 9.28 66.018 9.2C65.874 9.12 65.698 9.048 65.49 8.984C65.2873 8.91467 65.0367 8.88 64.738 8.88C64.3433 8.88 63.994 8.952 63.69 9.096C63.386 9.23467 63.13 9.43733 62.922 9.704C62.7193 9.97067 62.5647 10.2933 62.458 10.672C62.3567 11.0507 62.306 11.4747 62.306 11.944C62.306 12.4347 62.362 12.872 62.474 13.256C62.586 13.6347 62.7433 13.9547 62.946 14.216C63.1487 14.472 63.394 14.6693 63.682 14.808C63.9753 14.9413 64.3033 15.008 64.666 15.008C65.0127 15.008 65.298 14.968 65.522 14.888C65.746 14.8027 65.9327 14.7093 66.082 14.608C66.2313 14.5067 66.354 14.416 66.45 14.336C66.546 14.2507 66.642 14.208 66.738 14.208C66.8607 14.208 66.9513 14.2533 67.01 14.344L67.41 14.864C67.058 15.296 66.618 15.6133 66.09 15.816C65.562 16.0133 65.0047 16.112 64.418 16.112C63.9113 16.112 63.4393 16.0187 63.002 15.832C62.57 15.6453 62.194 15.376 61.874 15.024C61.554 14.6667 61.3007 14.2293 61.114 13.712C60.9327 13.1947 60.842 12.6053 60.842 11.944C60.842 11.3413 60.9247 10.784 61.09 10.272C61.2607 9.76 61.506 9.32 61.826 8.952C62.1513 8.57867 62.5513 8.288 63.026 8.08C63.5007 7.872 64.0447 7.768 64.658 7.768C65.2233 7.768 65.7247 7.86133 66.162 8.048C66.5993 8.22933 66.986 8.488 67.322 8.824L66.946 9.336ZM68.8868 16V7.896H69.7028C69.8574 7.896 69.9641 7.92533 70.0228 7.984C70.0814 8.04267 70.1214 8.144 70.1428 8.288L70.2388 9.552C70.5161 8.98667 70.8574 8.54667 71.2628 8.232C71.6734 7.912 72.1534 7.752 72.7028 7.752C72.9268 7.752 73.1294 7.77867 73.3108 7.832C73.4921 7.88 73.6601 7.94933 73.8148 8.04L73.6308 9.104C73.5934 9.23733 73.5108 9.304 73.3828 9.304C73.3081 9.304 73.1934 9.28 73.0388 9.232C72.8841 9.17867 72.6681 9.152 72.3908 9.152C71.8948 9.152 71.4788 9.296 71.1428 9.584C70.8121 9.872 70.5348 10.2907 70.3108 10.84V16H68.8868ZM76.5719 7.896V13.064C76.5719 13.6773 76.7132 14.152 76.9959 14.488C77.2785 14.824 77.7052 14.992 78.2759 14.992C78.6919 14.992 79.0839 14.8933 79.4519 14.696C79.8199 14.4987 80.1585 14.224 80.4679 13.872V7.896H81.8919V16H81.0439C80.8412 16 80.7132 15.9013 80.6599 15.704L80.5479 14.832C80.1959 15.2213 79.8012 15.536 79.3639 15.776C78.9265 16.0107 78.4252 16.128 77.8599 16.128C77.4172 16.128 77.0252 16.056 76.6839 15.912C76.3479 15.7627 76.0652 15.5547 75.8359 15.288C75.6065 15.0213 75.4332 14.6987 75.3159 14.32C75.2039 13.9413 75.1479 13.5227 75.1479 13.064V7.896H76.5719ZM84.2305 16V7.896H85.0785C85.2812 7.896 85.4092 7.99467 85.4625 8.192L85.5665 9.024C85.8652 8.656 86.1985 8.35467 86.5665 8.12C86.9398 7.88533 87.3718 7.768 87.8625 7.768C88.4118 7.768 88.8545 7.92 89.1905 8.224C89.5318 8.528 89.7772 8.93867 89.9265 9.456C90.0385 9.16267 90.1852 8.90933 90.3665 8.696C90.5532 8.48267 90.7612 8.30667 90.9905 8.168C91.2198 8.02933 91.4625 7.928 91.7185 7.864C91.9798 7.8 92.2438 7.768 92.5105 7.768C92.9372 7.768 93.3158 7.83733 93.6465 7.976C93.9825 8.10933 94.2652 8.30667 94.4945 8.568C94.7292 8.82933 94.9078 9.152 95.0305 9.536C95.1532 9.91467 95.2145 10.3493 95.2145 10.84V16H93.7905V10.84C93.7905 10.2053 93.6518 9.72533 93.3745 9.4C93.0972 9.06933 92.6945 8.904 92.1665 8.904C91.9318 8.904 91.7078 8.94667 91.4945 9.032C91.2865 9.112 91.1025 9.232 90.9425 9.392C90.7825 9.552 90.6545 9.75467 90.5585 10C90.4678 10.24 90.4225 10.52 90.4225 10.84V16H88.9985V10.84C88.9985 10.1893 88.8678 9.704 88.6065 9.384C88.3452 9.064 87.9638 8.904 87.4625 8.904C87.1105 8.904 86.7825 9 86.4785 9.192C86.1798 9.37867 85.9052 9.63467 85.6545 9.96V16H84.2305ZM97.4191 16V4.216H98.8511V9.064C99.1871 8.67467 99.5711 8.36267 100.003 8.128C100.44 7.888 100.939 7.768 101.499 7.768C101.968 7.768 102.392 7.856 102.771 8.032C103.15 8.208 103.472 8.472 103.739 8.824C104.006 9.17067 104.211 9.60267 104.355 10.12C104.499 10.632 104.571 11.224 104.571 11.896C104.571 12.4933 104.491 13.0507 104.331 13.568C104.171 14.08 103.939 14.5253 103.635 14.904C103.336 15.2773 102.968 15.5733 102.531 15.792C102.099 16.0053 101.611 16.112 101.067 16.112C100.544 16.112 100.099 16.0107 99.7311 15.808C99.3685 15.6053 99.0511 15.3227 98.7791 14.96L98.7071 15.696C98.6645 15.8987 98.5418 16 98.3391 16H97.4191ZM101.035 8.904C100.571 8.904 100.163 9.01067 99.8111 9.224C99.4645 9.43733 99.1445 9.73867 98.8511 10.128V14.048C99.1071 14.4 99.3898 14.648 99.6991 14.792C100.014 14.936 100.363 15.008 100.747 15.008C101.504 15.008 102.086 14.7387 102.491 14.2C102.896 13.6613 103.099 12.8933 103.099 11.896C103.099 11.368 103.051 10.9147 102.955 10.536C102.864 10.1573 102.731 9.848 102.555 9.608C102.379 9.36267 102.163 9.184 101.907 9.072C101.651 8.96 101.36 8.904 101.035 8.904ZM110.53 14.912H112.994V7.096C112.994 6.86133 113.002 6.624 113.018 6.384L110.97 8.136C110.917 8.17867 110.864 8.21067 110.81 8.232C110.757 8.248 110.706 8.256 110.658 8.256C110.578 8.256 110.506 8.24 110.442 8.208C110.378 8.17067 110.33 8.128 110.298 8.08L109.85 7.464L113.258 4.512H114.418V14.912H116.674V16H110.53V14.912Z" fill="#0064D1"/>
<path d="M159.392 16V4.536H163.048C163.752 4.536 164.357 4.60533 164.864 4.744C165.376 4.88267 165.795 5.08 166.12 5.336C166.451 5.592 166.693 5.90667 166.848 6.28C167.008 6.648 167.088 7.064 167.088 7.528C167.088 7.81067 167.043 8.08267 166.952 8.344C166.867 8.60533 166.733 8.848 166.552 9.072C166.376 9.296 166.152 9.496 165.88 9.672C165.613 9.848 165.299 9.992 164.936 10.104C165.773 10.2693 166.405 10.5707 166.832 11.008C167.259 11.4453 167.472 12.0213 167.472 12.736C167.472 13.2213 167.381 13.664 167.2 14.064C167.024 14.464 166.763 14.808 166.416 15.096C166.075 15.384 165.653 15.608 165.152 15.768C164.656 15.9227 164.088 16 163.448 16H159.392ZM160.944 10.776V14.768H163.424C163.867 14.768 164.245 14.7173 164.56 14.616C164.88 14.5147 165.141 14.3733 165.344 14.192C165.552 14.0053 165.704 13.7867 165.8 13.536C165.896 13.28 165.944 13 165.944 12.696C165.944 12.104 165.733 11.6373 165.312 11.296C164.896 10.9493 164.264 10.776 163.416 10.776H160.944ZM160.944 9.672H162.992C163.429 9.672 163.808 9.624 164.128 9.528C164.448 9.432 164.712 9.29867 164.92 9.128C165.133 8.95733 165.291 8.752 165.392 8.512C165.493 8.26667 165.544 8 165.544 7.712C165.544 7.04 165.341 6.54667 164.936 6.232C164.531 5.91733 163.901 5.76 163.048 5.76H160.944V9.672ZM169.527 16V7.896H170.343C170.498 7.896 170.605 7.92533 170.663 7.984C170.722 8.04267 170.762 8.144 170.783 8.288L170.879 9.552C171.157 8.98667 171.498 8.54667 171.903 8.232C172.314 7.912 172.794 7.752 173.343 7.752C173.567 7.752 173.77 7.77867 173.951 7.832C174.133 7.88 174.301 7.94933 174.455 8.04L174.271 9.104C174.234 9.23733 174.151 9.304 174.023 9.304C173.949 9.304 173.834 9.28 173.679 9.232C173.525 9.17867 173.309 9.152 173.031 9.152C172.535 9.152 172.119 9.296 171.783 9.584C171.453 9.872 171.175 10.2907 170.951 10.84V16H169.527ZM179.189 7.768C179.674 7.768 180.122 7.85067 180.533 8.016C180.943 8.176 181.298 8.41067 181.597 8.72C181.895 9.024 182.127 9.40267 182.293 9.856C182.463 10.304 182.549 10.816 182.549 11.392C182.549 11.616 182.525 11.7653 182.477 11.84C182.429 11.9147 182.338 11.952 182.205 11.952H176.812C176.823 12.464 176.893 12.9093 177.021 13.288C177.149 13.6667 177.325 13.984 177.549 14.24C177.773 14.4907 178.039 14.68 178.349 14.808C178.658 14.9307 179.005 14.992 179.389 14.992C179.746 14.992 180.053 14.952 180.309 14.872C180.57 14.7867 180.794 14.696 180.981 14.6C181.167 14.504 181.322 14.416 181.445 14.336C181.573 14.2507 181.682 14.208 181.773 14.208C181.89 14.208 181.981 14.2533 182.045 14.344L182.445 14.864C182.269 15.0773 182.058 15.264 181.813 15.424C181.567 15.5787 181.303 15.7067 181.021 15.808C180.743 15.9093 180.455 15.984 180.157 16.032C179.858 16.0853 179.562 16.112 179.269 16.112C178.709 16.112 178.191 16.0187 177.717 15.832C177.247 15.64 176.839 15.3627 176.493 15C176.151 14.632 175.885 14.1787 175.693 13.64C175.501 13.1013 175.405 12.4827 175.405 11.784C175.405 11.2187 175.49 10.6907 175.661 10.2C175.837 9.70933 176.087 9.28533 176.413 8.928C176.738 8.56533 177.135 8.28267 177.605 8.08C178.074 7.872 178.602 7.768 179.189 7.768ZM179.22 8.816C178.533 8.816 177.991 9.016 177.597 9.416C177.202 9.81067 176.957 10.36 176.861 11.064H181.269C181.269 10.7333 181.223 10.432 181.133 10.16C181.042 9.88267 180.909 9.64533 180.733 9.448C180.557 9.24533 180.341 9.09067 180.085 8.984C179.834 8.872 179.546 8.816 179.22 8.816ZM190.323 16H189.691C189.552 16 189.44 15.9787 189.355 15.936C189.27 15.8933 189.214 15.8027 189.187 15.664L189.027 14.912C188.814 15.104 188.606 15.2773 188.403 15.432C188.2 15.5813 187.987 15.7093 187.763 15.816C187.539 15.9173 187.299 15.9947 187.043 16.048C186.792 16.1013 186.512 16.128 186.203 16.128C185.888 16.128 185.592 16.0853 185.315 16C185.043 15.9093 184.806 15.776 184.603 15.6C184.4 15.424 184.238 15.2027 184.115 14.936C183.998 14.664 183.939 14.344 183.939 13.976C183.939 13.656 184.027 13.3493 184.203 13.056C184.379 12.7573 184.662 12.4933 185.051 12.264C185.446 12.0347 185.96 11.848 186.595 11.704C187.23 11.5547 188.006 11.4693 188.923 11.448V10.816C188.923 10.1867 188.787 9.712 188.515 9.392C188.248 9.06667 187.851 8.904 187.323 8.904C186.976 8.904 186.683 8.94933 186.443 9.04C186.208 9.12533 186.003 9.224 185.827 9.336C185.656 9.44267 185.507 9.54133 185.379 9.632C185.256 9.71733 185.134 9.76 185.011 9.76C184.915 9.76 184.83 9.736 184.755 9.688C184.686 9.63467 184.63 9.57067 184.587 9.496L184.331 9.04C184.779 8.608 185.262 8.28533 185.779 8.072C186.296 7.85867 186.87 7.752 187.499 7.752C187.952 7.752 188.355 7.82667 188.707 7.976C189.059 8.12533 189.355 8.33333 189.595 8.6C189.835 8.86667 190.016 9.18933 190.139 9.568C190.262 9.94667 190.323 10.3627 190.323 10.816V16ZM186.627 15.128C186.878 15.128 187.107 15.104 187.315 15.056C187.523 15.0027 187.718 14.9307 187.899 14.84C188.086 14.744 188.262 14.6293 188.427 14.496C188.598 14.3627 188.763 14.2107 188.923 14.04V12.352C188.267 12.3733 187.71 12.4267 187.251 12.512C186.792 12.592 186.419 12.6987 186.131 12.832C185.843 12.9653 185.632 13.1227 185.499 13.304C185.371 13.4853 185.307 13.688 185.307 13.912C185.307 14.1253 185.342 14.3093 185.411 14.464C185.48 14.6187 185.574 14.7467 185.691 14.848C185.808 14.944 185.947 15.016 186.107 15.064C186.267 15.1067 186.44 15.128 186.627 15.128ZM198.185 16C197.982 16 197.854 15.9013 197.801 15.704L197.673 14.72C197.326 15.1413 196.929 15.48 196.481 15.736C196.038 15.9867 195.529 16.112 194.953 16.112C194.489 16.112 194.067 16.024 193.689 15.848C193.31 15.6667 192.987 15.4027 192.721 15.056C192.454 14.7093 192.249 14.2773 192.105 13.76C191.961 13.2427 191.889 12.648 191.889 11.976C191.889 11.3787 191.969 10.824 192.129 10.312C192.289 9.79467 192.518 9.34667 192.817 8.968C193.121 8.58933 193.489 8.29333 193.921 8.08C194.353 7.86133 194.843 7.752 195.393 7.752C195.889 7.752 196.313 7.83733 196.665 8.008C197.017 8.17333 197.331 8.408 197.609 8.712V4.216H199.033V16H198.185ZM195.424 14.96C195.889 14.96 196.294 14.8533 196.641 14.64C196.993 14.4267 197.315 14.1253 197.609 13.736V9.816C197.347 9.464 197.059 9.21867 196.745 9.08C196.435 8.936 196.091 8.864 195.713 8.864C194.955 8.864 194.374 9.13333 193.969 9.672C193.563 10.2107 193.361 10.9787 193.361 11.976C193.361 12.504 193.406 12.9573 193.497 13.336C193.587 13.7093 193.721 14.0187 193.897 14.264C194.073 14.504 194.289 14.68 194.545 14.792C194.801 14.904 195.094 14.96 195.424 14.96ZM206.946 9.336C206.903 9.39467 206.861 9.44 206.818 9.472C206.775 9.504 206.714 9.52 206.634 9.52C206.554 9.52 206.466 9.488 206.37 9.424C206.279 9.35467 206.162 9.28 206.018 9.2C205.874 9.12 205.698 9.048 205.49 8.984C205.287 8.91467 205.037 8.88 204.738 8.88C204.343 8.88 203.994 8.952 203.69 9.096C203.386 9.23467 203.13 9.43733 202.922 9.704C202.719 9.97067 202.565 10.2933 202.458 10.672C202.357 11.0507 202.306 11.4747 202.306 11.944C202.306 12.4347 202.362 12.872 202.474 13.256C202.586 13.6347 202.743 13.9547 202.946 14.216C203.149 14.472 203.394 14.6693 203.682 14.808C203.975 14.9413 204.303 15.008 204.666 15.008C205.013 15.008 205.298 14.968 205.522 14.888C205.746 14.8027 205.933 14.7093 206.082 14.608C206.231 14.5067 206.354 14.416 206.45 14.336C206.546 14.2507 206.642 14.208 206.738 14.208C206.861 14.208 206.951 14.2533 207.01 14.344L207.41 14.864C207.058 15.296 206.618 15.6133 206.09 15.816C205.562 16.0133 205.005 16.112 204.418 16.112C203.911 16.112 203.439 16.0187 203.002 15.832C202.57 15.6453 202.194 15.376 201.874 15.024C201.554 14.6667 201.301 14.2293 201.114 13.712C200.933 13.1947 200.842 12.6053 200.842 11.944C200.842 11.3413 200.925 10.784 201.09 10.272C201.261 9.76 201.506 9.32 201.826 8.952C202.151 8.57867 202.551 8.288 203.026 8.08C203.501 7.872 204.045 7.768 204.658 7.768C205.223 7.768 205.725 7.86133 206.162 8.048C206.599 8.22933 206.986 8.488 207.322 8.824L206.946 9.336ZM208.887 16V7.896H209.703C209.857 7.896 209.964 7.92533 210.023 7.984C210.081 8.04267 210.121 8.144 210.143 8.288L210.239 9.552C210.516 8.98667 210.857 8.54667 211.263 8.232C211.673 7.912 212.153 7.752 212.703 7.752C212.927 7.752 213.129 7.77867 213.311 7.832C213.492 7.88 213.66 7.94933 213.815 8.04L213.631 9.104C213.593 9.23733 213.511 9.304 213.383 9.304C213.308 9.304 213.193 9.28 213.039 9.232C212.884 9.17867 212.668 9.152 212.391 9.152C211.895 9.152 211.479 9.296 211.143 9.584C210.812 9.872 210.535 10.2907 210.311 10.84V16H208.887ZM216.572 7.896V13.064C216.572 13.6773 216.713 14.152 216.996 14.488C217.279 14.824 217.705 14.992 218.276 14.992C218.692 14.992 219.084 14.8933 219.452 14.696C219.82 14.4987 220.159 14.224 220.468 13.872V7.896H221.892V16H221.044C220.841 16 220.713 15.9013 220.66 15.704L220.548 14.832C220.196 15.2213 219.801 15.536 219.364 15.776C218.927 16.0107 218.425 16.128 217.86 16.128C217.417 16.128 217.025 16.056 216.684 15.912C216.348 15.7627 216.065 15.5547 215.836 15.288C215.607 15.0213 215.433 14.6987 215.316 14.32C215.204 13.9413 215.148 13.5227 215.148 13.064V7.896H216.572ZM224.231 16V7.896H225.079C225.281 7.896 225.409 7.99467 225.463 8.192L225.567 9.024C225.865 8.656 226.199 8.35467 226.567 8.12C226.94 7.88533 227.372 7.768 227.863 7.768C228.412 7.768 228.855 7.92 229.191 8.224C229.532 8.528 229.777 8.93867 229.927 9.456C230.039 9.16267 230.185 8.90933 230.367 8.696C230.553 8.48267 230.761 8.30667 230.991 8.168C231.22 8.02933 231.463 7.928 231.719 7.864C231.98 7.8 232.244 7.768 232.511 7.768C232.937 7.768 233.316 7.83733 233.647 7.976C233.983 8.10933 234.265 8.30667 234.495 8.568C234.729 8.82933 234.908 9.152 235.031 9.536C235.153 9.91467 235.215 10.3493 235.215 10.84V16H233.791V10.84C233.791 10.2053 233.652 9.72533 233.375 9.4C233.097 9.06933 232.695 8.904 232.167 8.904C231.932 8.904 231.708 8.94667 231.495 9.032C231.287 9.112 231.103 9.232 230.943 9.392C230.783 9.552 230.655 9.75467 230.559 10C230.468 10.24 230.423 10.52 230.423 10.84V16H228.999V10.84C228.999 10.1893 228.868 9.704 228.607 9.384C228.345 9.064 227.964 8.904 227.463 8.904C227.111 8.904 226.783 9 226.479 9.192C226.18 9.37867 225.905 9.63467 225.655 9.96V16H224.231ZM237.419 16V4.216H238.851V9.064C239.187 8.67467 239.571 8.36267 240.003 8.128C240.44 7.888 240.939 7.768 241.499 7.768C241.968 7.768 242.392 7.856 242.771 8.032C243.15 8.208 243.472 8.472 243.739 8.824C244.006 9.17067 244.211 9.60267 244.355 10.12C244.499 10.632 244.571 11.224 244.571 11.896C244.571 12.4933 244.491 13.0507 244.331 13.568C244.171 14.08 243.939 14.5253 243.635 14.904C243.336 15.2773 242.968 15.5733 242.531 15.792C242.099 16.0053 241.611 16.112 241.067 16.112C240.544 16.112 240.099 16.0107 239.731 15.808C239.368 15.6053 239.051 15.3227 238.779 14.96L238.707 15.696C238.664 15.8987 238.542 16 238.339 16H237.419ZM241.035 8.904C240.571 8.904 240.163 9.01067 239.811 9.224C239.464 9.43733 239.144 9.73867 238.851 10.128V14.048C239.107 14.4 239.39 14.648 239.699 14.792C240.014 14.936 240.363 15.008 240.747 15.008C241.504 15.008 242.086 14.7387 242.491 14.2C242.896 13.6613 243.099 12.8933 243.099 11.896C243.099 11.368 243.051 10.9147 242.955 10.536C242.864 10.1573 242.731 9.848 242.555 9.608C242.379 9.36267 242.163 9.184 241.907 9.072C241.651 8.96 241.36 8.904 241.035 8.904ZM253.042 4.408C253.528 4.408 253.981 4.48 254.402 4.624C254.824 4.768 255.186 4.97867 255.49 5.256C255.8 5.528 256.042 5.86133 256.218 6.256C256.394 6.65067 256.482 7.09867 256.482 7.6C256.482 8.02667 256.418 8.42133 256.29 8.784C256.162 9.14667 255.989 9.496 255.77 9.832C255.552 10.1627 255.298 10.4853 255.01 10.8C254.728 11.1093 254.426 11.4267 254.106 11.752L251.09 14.84C251.304 14.7813 251.52 14.736 251.738 14.704C251.957 14.6667 252.168 14.648 252.37 14.648H256.21C256.365 14.648 256.488 14.6933 256.578 14.784C256.669 14.8747 256.714 14.992 256.714 15.136V16H249.066V15.512C249.066 15.4107 249.085 15.3067 249.122 15.2C249.165 15.0933 249.232 14.9947 249.322 14.904L252.994 11.216C253.298 10.9067 253.576 10.6107 253.826 10.328C254.077 10.04 254.29 9.752 254.466 9.464C254.648 9.176 254.786 8.88533 254.882 8.592C254.978 8.29333 255.026 7.976 255.026 7.64C255.026 7.304 254.973 7.01067 254.866 6.76C254.76 6.504 254.613 6.29333 254.426 6.128C254.24 5.96267 254.021 5.84 253.77 5.76C253.52 5.67467 253.25 5.632 252.962 5.632C252.674 5.632 252.408 5.67467 252.162 5.76C251.917 5.84533 251.698 5.96533 251.506 6.12C251.32 6.26933 251.16 6.448 251.026 6.656C250.898 6.864 250.808 7.09333 250.754 7.344C250.712 7.49867 250.648 7.61067 250.562 7.68C250.477 7.74933 250.365 7.784 250.226 7.784C250.2 7.784 250.17 7.784 250.138 7.784C250.112 7.77867 250.08 7.77333 250.042 7.768L249.298 7.64C249.373 7.11733 249.517 6.656 249.73 6.256C249.944 5.85067 250.213 5.512 250.538 5.24C250.869 4.968 251.245 4.76267 251.666 4.624C252.093 4.48 252.552 4.408 253.042 4.408Z" fill="#0064D1"/>
<path d="M8.55171 1H0V17H12.293V4.76873L8.55171 1ZM8.74173 2.11571L11.1854 4.57728H8.74173V2.11571V2.11571ZM0.651195 16.3488V1.6512H8.09054V5.22847H11.6418V16.3488H0.651195V16.3488Z" fill="black"/>
<path d="M7.18986 4.57727H1.8989V5.22847H7.18986V4.57727Z" fill="black"/>
<path d="M10.3942 7.56067H1.8989V8.21186H10.3942V7.56067Z" fill="black"/>
<path d="M10.3942 10.5441H1.8989V11.1953H10.3942V10.5441Z" fill="black"/>
<path d="M10.3942 13.5274H1.8989V14.1786H10.3942V13.5274Z" fill="black"/>
<path d="M145.887 4.27217C145.815 4.19973 145.717 4.15918 145.615 4.15918H135.374V4.19884L134.884 3.00316L130 3V15.8004H145.996V14.9816L146 4.54508C146 4.44254 145.96 4.3446 145.887 4.27217ZM145.228 4.93026L145.228 5.82445H136.041L135.674 4.93026H145.228ZM145.225 15.0296H130.77V3.77133L134.367 3.77392L135.524 6.59521H145.226V15.0296H145.225V15.0296Z" fill="#010002"/>
</svg>
