<svg width="190" height="44" viewBox="0 0 190 44" fill="none" xmlns="http://www.w3.org/2000/svg">
<line x1="85.7071" y1="4" x2="88.5355" y2="6.82843" stroke="#3F3F3F" stroke-linecap="round"/>
<line x1="0.5" y1="-0.5" x2="4.5" y2="-0.5" transform="matrix(0.707107 -0.707107 -0.707107 -0.707107 85 10)" stroke="#3F3F3F" stroke-linecap="round"/>
<line x1="185.707" y1="4" x2="188.536" y2="6.82843" stroke="#3F3F3F" stroke-linecap="round"/>
<line x1="0.5" y1="-0.5" x2="4.5" y2="-0.5" transform="matrix(0.707107 -0.707107 -0.707107 -0.707107 185 10)" stroke="#3F3F3F" stroke-linecap="round"/>
<path d="M1.044 12V3.402H3.786C4.314 3.402 4.768 3.454 5.148 3.558C5.532 3.662 5.846 3.81 6.09 4.002C6.338 4.194 6.52 4.43 6.636 4.71C6.756 4.986 6.816 5.298 6.816 5.646C6.816 5.858 6.782 6.062 6.714 6.258C6.65 6.454 6.55 6.636 6.414 6.804C6.282 6.972 6.114 7.122 5.91 7.254C5.71 7.386 5.474 7.494 5.202 7.578C5.83 7.702 6.304 7.928 6.624 8.256C6.944 8.584 7.104 9.016 7.104 9.552C7.104 9.916 7.036 10.248 6.9 10.548C6.768 10.848 6.572 11.106 6.312 11.322C6.056 11.538 5.74 11.706 5.364 11.826C4.992 11.942 4.566 12 4.086 12H1.044ZM2.208 8.082V11.076H4.068C4.4 11.076 4.684 11.038 4.92 10.962C5.16 10.886 5.356 10.78 5.508 10.644C5.664 10.504 5.778 10.34 5.85 10.152C5.922 9.96 5.958 9.75 5.958 9.522C5.958 9.078 5.8 8.728 5.484 8.472C5.172 8.212 4.698 8.082 4.062 8.082H2.208ZM2.208 7.254H3.744C4.072 7.254 4.356 7.218 4.596 7.146C4.836 7.074 5.034 6.974 5.19 6.846C5.35 6.718 5.468 6.564 5.544 6.384C5.62 6.2 5.658 6 5.658 5.784C5.658 5.28 5.506 4.91 5.202 4.674C4.898 4.438 4.426 4.32 3.786 4.32H2.208V7.254ZM8.64553 12V5.922H9.25753C9.37353 5.922 9.45353 5.944 9.49753 5.988C9.54153 6.032 9.57153 6.108 9.58753 6.216L9.65953 7.164C9.86753 6.74 10.1235 6.41 10.4275 6.174C10.7355 5.934 11.0955 5.814 11.5075 5.814C11.6755 5.814 11.8275 5.834 11.9635 5.874C12.0995 5.91 12.2255 5.962 12.3415 6.03L12.2035 6.828C12.1755 6.928 12.1135 6.978 12.0175 6.978C11.9615 6.978 11.8755 6.96 11.7595 6.924C11.6435 6.884 11.4815 6.864 11.2735 6.864C10.9015 6.864 10.5895 6.972 10.3375 7.188C10.0895 7.404 9.88153 7.718 9.71353 8.13V12H8.64553ZM15.8914 5.826C16.2554 5.826 16.5914 5.888 16.8994 6.012C17.2074 6.132 17.4734 6.308 17.6974 6.54C17.9214 6.768 18.0954 7.052 18.2194 7.392C18.3474 7.728 18.4114 8.112 18.4114 8.544C18.4114 8.712 18.3934 8.824 18.3574 8.88C18.3214 8.936 18.2534 8.964 18.1534 8.964H14.1094C14.1174 9.348 14.1694 9.682 14.2654 9.966C14.3614 10.25 14.4934 10.488 14.6614 10.68C14.8294 10.868 15.0294 11.01 15.2614 11.106C15.4934 11.198 15.7534 11.244 16.0414 11.244C16.3094 11.244 16.5394 11.214 16.7314 11.154C16.9274 11.09 17.0954 11.022 17.2354 10.95C17.3754 10.878 17.4914 10.812 17.5834 10.752C17.6794 10.688 17.7614 10.656 17.8294 10.656C17.9174 10.656 17.9854 10.69 18.0334 10.758L18.3334 11.148C18.2014 11.308 18.0434 11.448 17.8594 11.568C17.6754 11.684 17.4774 11.78 17.2654 11.856C17.0574 11.932 16.8414 11.988 16.6174 12.024C16.3934 12.064 16.1714 12.084 15.9514 12.084C15.5314 12.084 15.1434 12.014 14.7874 11.874C14.4354 11.73 14.1294 11.522 13.8694 11.25C13.6134 10.974 13.4134 10.634 13.2694 10.23C13.1254 9.826 13.0534 9.362 13.0534 8.838C13.0534 8.414 13.1174 8.018 13.2454 7.65C13.3774 7.282 13.5654 6.964 13.8094 6.696C14.0534 6.424 14.3514 6.212 14.7034 6.06C15.0554 5.904 15.4514 5.826 15.8914 5.826ZM15.9154 6.612C15.3994 6.612 14.9934 6.762 14.6974 7.062C14.4014 7.358 14.2174 7.77 14.1454 8.298H17.4514C17.4514 8.05 17.4174 7.824 17.3494 7.62C17.2814 7.412 17.1814 7.234 17.0494 7.086C16.9174 6.934 16.7554 6.818 16.5634 6.738C16.3754 6.654 16.1594 6.612 15.9154 6.612ZM24.2423 12H23.7683C23.6643 12 23.5803 11.984 23.5163 11.952C23.4523 11.92 23.4103 11.852 23.3903 11.748L23.2703 11.184C23.1103 11.328 22.9543 11.458 22.8023 11.574C22.6503 11.686 22.4903 11.782 22.3223 11.862C22.1543 11.938 21.9743 11.996 21.7823 12.036C21.5943 12.076 21.3843 12.096 21.1523 12.096C20.9163 12.096 20.6943 12.064 20.4863 12C20.2823 11.932 20.1043 11.832 19.9523 11.7C19.8003 11.568 19.6783 11.402 19.5863 11.202C19.4983 10.998 19.4543 10.758 19.4543 10.482C19.4543 10.242 19.5203 10.012 19.6523 9.792C19.7843 9.568 19.9963 9.37 20.2883 9.198C20.5843 9.026 20.9703 8.886 21.4463 8.778C21.9223 8.666 22.5043 8.602 23.1923 8.586V8.112C23.1923 7.64 23.0903 7.284 22.8863 7.044C22.6863 6.8 22.3883 6.678 21.9923 6.678C21.7323 6.678 21.5123 6.712 21.3323 6.78C21.1563 6.844 21.0023 6.918 20.8703 7.002C20.7423 7.082 20.6303 7.156 20.5343 7.224C20.4423 7.288 20.3503 7.32 20.2583 7.32C20.1863 7.32 20.1223 7.302 20.0663 7.266C20.0143 7.226 19.9723 7.178 19.9403 7.122L19.7483 6.78C20.0843 6.456 20.4463 6.214 20.8343 6.054C21.2223 5.894 21.6523 5.814 22.1243 5.814C22.4643 5.814 22.7663 5.87 23.0303 5.982C23.2943 6.094 23.5163 6.25 23.6963 6.45C23.8763 6.65 24.0123 6.892 24.1043 7.176C24.1963 7.46 24.2423 7.772 24.2423 8.112V12ZM21.4703 11.346C21.6583 11.346 21.8303 11.328 21.9863 11.292C22.1423 11.252 22.2883 11.198 22.4243 11.13C22.5643 11.058 22.6963 10.972 22.8203 10.872C22.9483 10.772 23.0723 10.658 23.1923 10.53V9.264C22.7003 9.28 22.2823 9.32 21.9383 9.384C21.5943 9.444 21.3143 9.524 21.0983 9.624C20.8823 9.724 20.7243 9.842 20.6243 9.978C20.5283 10.114 20.4803 10.266 20.4803 10.434C20.4803 10.594 20.5063 10.732 20.5583 10.848C20.6103 10.964 20.6803 11.06 20.7683 11.136C20.8563 11.208 20.9603 11.262 21.0803 11.298C21.2003 11.33 21.3303 11.346 21.4703 11.346ZM30.1384 12C29.9864 12 29.8904 11.926 29.8504 11.778L29.7544 11.04C29.4944 11.356 29.1964 11.61 28.8604 11.802C28.5284 11.99 28.1464 12.084 27.7144 12.084C27.3664 12.084 27.0504 12.018 26.7664 11.886C26.4824 11.75 26.2404 11.552 26.0404 11.292C25.8404 11.032 25.6864 10.708 25.5784 10.32C25.4704 9.932 25.4164 9.486 25.4164 8.982C25.4164 8.534 25.4764 8.118 25.5964 7.734C25.7164 7.346 25.8884 7.01 26.1124 6.726C26.3404 6.442 26.6164 6.22 26.9404 6.06C27.2644 5.896 27.6324 5.814 28.0444 5.814C28.4164 5.814 28.7344 5.878 28.9984 6.006C29.2624 6.13 29.4984 6.306 29.7064 6.534V3.162H30.7744V12H30.1384ZM28.0684 11.22C28.4164 11.22 28.7204 11.14 28.9804 10.98C29.2444 10.82 29.4864 10.594 29.7064 10.302V7.362C29.5104 7.098 29.2944 6.914 29.0584 6.81C28.8264 6.702 28.5684 6.648 28.2844 6.648C27.7164 6.648 27.2804 6.85 26.9764 7.254C26.6724 7.658 26.5204 8.234 26.5204 8.982C26.5204 9.378 26.5544 9.718 26.6224 10.002C26.6904 10.282 26.7904 10.514 26.9224 10.698C27.0544 10.878 27.2164 11.01 27.4084 11.094C27.6004 11.178 27.8204 11.22 28.0684 11.22ZM36.7095 7.002C36.6775 7.046 36.6455 7.08 36.6135 7.104C36.5815 7.128 36.5355 7.14 36.4755 7.14C36.4155 7.14 36.3495 7.116 36.2775 7.068C36.2095 7.016 36.1215 6.96 36.0135 6.9C35.9055 6.84 35.7735 6.786 35.6175 6.738C35.4655 6.686 35.2775 6.66 35.0535 6.66C34.7575 6.66 34.4955 6.714 34.2675 6.822C34.0395 6.926 33.8475 7.078 33.6915 7.278C33.5395 7.478 33.4235 7.72 33.3435 8.004C33.2675 8.288 33.2295 8.606 33.2295 8.958C33.2295 9.326 33.2715 9.654 33.3555 9.942C33.4395 10.226 33.5575 10.466 33.7095 10.662C33.8615 10.854 34.0455 11.002 34.2615 11.106C34.4815 11.206 34.7275 11.256 34.9995 11.256C35.2595 11.256 35.4735 11.226 35.6415 11.166C35.8095 11.102 35.9495 11.032 36.0615 10.956C36.1735 10.88 36.2655 10.812 36.3375 10.752C36.4095 10.688 36.4815 10.656 36.5535 10.656C36.6455 10.656 36.7135 10.69 36.7575 10.758L37.0575 11.148C36.7935 11.472 36.4635 11.71 36.0675 11.862C35.6715 12.01 35.2535 12.084 34.8135 12.084C34.4335 12.084 34.0795 12.014 33.7515 11.874C33.4275 11.734 33.1455 11.532 32.9055 11.268C32.6655 11 32.4755 10.672 32.3355 10.284C32.1995 9.896 32.1315 9.454 32.1315 8.958C32.1315 8.506 32.1935 8.088 32.3175 7.704C32.4455 7.32 32.6295 6.99 32.8695 6.714C33.1135 6.434 33.4135 6.216 33.7695 6.06C34.1255 5.904 34.5335 5.826 34.9935 5.826C35.4175 5.826 35.7935 5.896 36.1215 6.036C36.4495 6.172 36.7395 6.366 36.9915 6.618L36.7095 7.002ZM38.1651 12V5.922H38.7771C38.8931 5.922 38.9731 5.944 39.0171 5.988C39.0611 6.032 39.0911 6.108 39.1071 6.216L39.1791 7.164C39.3871 6.74 39.6431 6.41 39.9471 6.174C40.2551 5.934 40.6151 5.814 41.0271 5.814C41.1951 5.814 41.3471 5.834 41.4831 5.874C41.6191 5.91 41.7451 5.962 41.8611 6.03L41.7231 6.828C41.6951 6.928 41.6331 6.978 41.5371 6.978C41.4811 6.978 41.3951 6.96 41.2791 6.924C41.1631 6.884 41.0011 6.864 40.7931 6.864C40.4211 6.864 40.1091 6.972 39.8571 7.188C39.6091 7.404 39.4011 7.718 39.2331 8.13V12H38.1651ZM43.9289 5.922V9.798C43.9289 10.258 44.0349 10.614 44.2469 10.866C44.4589 11.118 44.7789 11.244 45.2069 11.244C45.5189 11.244 45.8129 11.17 46.0889 11.022C46.3649 10.874 46.6189 10.668 46.8509 10.404V5.922H47.9189V12H47.2829C47.1309 12 47.0349 11.926 46.9949 11.778L46.9109 11.124C46.6469 11.416 46.3509 11.652 46.0229 11.832C45.6949 12.008 45.3189 12.096 44.8949 12.096C44.5629 12.096 44.2689 12.042 44.0129 11.934C43.7609 11.822 43.5489 11.666 43.3769 11.466C43.2049 11.266 43.0749 11.024 42.9869 10.74C42.9029 10.456 42.8609 10.142 42.8609 9.798V5.922H43.9289ZM49.6729 12V5.922H50.3089C50.4609 5.922 50.5569 5.996 50.5969 6.144L50.6749 6.768C50.8989 6.492 51.1489 6.266 51.4249 6.09C51.7049 5.914 52.0289 5.826 52.3969 5.826C52.8089 5.826 53.1409 5.94 53.3929 6.168C53.6489 6.396 53.8329 6.704 53.9449 7.092C54.0289 6.872 54.1389 6.682 54.2749 6.522C54.4149 6.362 54.5709 6.23 54.7429 6.126C54.9149 6.022 55.0969 5.946 55.2889 5.898C55.4849 5.85 55.6829 5.826 55.8829 5.826C56.2029 5.826 56.4869 5.878 56.7349 5.982C56.9869 6.082 57.1989 6.23 57.3709 6.426C57.5469 6.622 57.6809 6.864 57.7729 7.152C57.8649 7.436 57.9109 7.762 57.9109 8.13V12H56.8429V8.13C56.8429 7.654 56.7389 7.294 56.5309 7.05C56.3229 6.802 56.0209 6.678 55.6249 6.678C55.4489 6.678 55.2809 6.71 55.1209 6.774C54.9649 6.834 54.8269 6.924 54.7069 7.044C54.5869 7.164 54.4909 7.316 54.4189 7.5C54.3509 7.68 54.3169 7.89 54.3169 8.13V12H53.2489V8.13C53.2489 7.642 53.1509 7.278 52.9549 7.038C52.7589 6.798 52.4729 6.678 52.0969 6.678C51.8329 6.678 51.5869 6.75 51.3589 6.894C51.1349 7.034 50.9289 7.226 50.7409 7.47V12H49.6729ZM59.5643 12V3.162H60.6383V6.798C60.8903 6.506 61.1783 6.272 61.5023 6.096C61.8303 5.916 62.2043 5.826 62.6243 5.826C62.9763 5.826 63.2943 5.892 63.5783 6.024C63.8623 6.156 64.1043 6.354 64.3043 6.618C64.5043 6.878 64.6583 7.202 64.7663 7.59C64.8743 7.974 64.9283 8.418 64.9283 8.922C64.9283 9.37 64.8683 9.788 64.7483 10.176C64.6283 10.56 64.4543 10.894 64.2263 11.178C64.0023 11.458 63.7263 11.68 63.3983 11.844C63.0743 12.004 62.7083 12.084 62.3003 12.084C61.9083 12.084 61.5743 12.008 61.2983 11.856C61.0263 11.704 60.7883 11.492 60.5843 11.22L60.5303 11.772C60.4983 11.924 60.4063 12 60.2543 12H59.5643ZM62.2763 6.678C61.9283 6.678 61.6223 6.758 61.3583 6.918C61.0983 7.078 60.8583 7.304 60.6383 7.596V10.536C60.8303 10.8 61.0423 10.986 61.2743 11.094C61.5103 11.202 61.7723 11.256 62.0603 11.256C62.6283 11.256 63.0643 11.054 63.3683 10.65C63.6723 10.246 63.8243 9.67 63.8243 8.922C63.8243 8.526 63.7883 8.186 63.7163 7.902C63.6483 7.618 63.5483 7.386 63.4163 7.206C63.2843 7.022 63.1223 6.888 62.9303 6.804C62.7383 6.72 62.5203 6.678 62.2763 6.678ZM69.3978 11.184H71.2458V5.322C71.2458 5.146 71.2518 4.968 71.2638 4.788L69.7278 6.102C69.6878 6.134 69.6478 6.158 69.6078 6.174C69.5678 6.186 69.5298 6.192 69.4938 6.192C69.4338 6.192 69.3798 6.18 69.3318 6.156C69.2838 6.128 69.2478 6.096 69.2238 6.06L68.8878 5.598L71.4438 3.384H72.3138V11.184H74.0058V12H69.3978V11.184Z" fill="#2656C9"/>
<path d="M101.044 12V3.402H103.786C104.314 3.402 104.768 3.454 105.148 3.558C105.532 3.662 105.846 3.81 106.09 4.002C106.338 4.194 106.52 4.43 106.636 4.71C106.756 4.986 106.816 5.298 106.816 5.646C106.816 5.858 106.782 6.062 106.714 6.258C106.65 6.454 106.55 6.636 106.414 6.804C106.282 6.972 106.114 7.122 105.91 7.254C105.71 7.386 105.474 7.494 105.202 7.578C105.83 7.702 106.304 7.928 106.624 8.256C106.944 8.584 107.104 9.016 107.104 9.552C107.104 9.916 107.036 10.248 106.9 10.548C106.768 10.848 106.572 11.106 106.312 11.322C106.056 11.538 105.74 11.706 105.364 11.826C104.992 11.942 104.566 12 104.086 12H101.044ZM102.208 8.082V11.076H104.068C104.4 11.076 104.684 11.038 104.92 10.962C105.16 10.886 105.356 10.78 105.508 10.644C105.664 10.504 105.778 10.34 105.85 10.152C105.922 9.96 105.958 9.75 105.958 9.522C105.958 9.078 105.8 8.728 105.484 8.472C105.172 8.212 104.698 8.082 104.062 8.082H102.208ZM102.208 7.254H103.744C104.072 7.254 104.356 7.218 104.596 7.146C104.836 7.074 105.034 6.974 105.19 6.846C105.35 6.718 105.468 6.564 105.544 6.384C105.62 6.2 105.658 6 105.658 5.784C105.658 5.28 105.506 4.91 105.202 4.674C104.898 4.438 104.426 4.32 103.786 4.32H102.208V7.254ZM108.646 12V5.922H109.258C109.374 5.922 109.454 5.944 109.498 5.988C109.542 6.032 109.572 6.108 109.588 6.216L109.66 7.164C109.868 6.74 110.124 6.41 110.428 6.174C110.736 5.934 111.096 5.814 111.508 5.814C111.676 5.814 111.828 5.834 111.964 5.874C112.1 5.91 112.226 5.962 112.342 6.03L112.204 6.828C112.176 6.928 112.114 6.978 112.018 6.978C111.962 6.978 111.876 6.96 111.76 6.924C111.644 6.884 111.482 6.864 111.274 6.864C110.902 6.864 110.59 6.972 110.338 7.188C110.09 7.404 109.882 7.718 109.714 8.13V12H108.646ZM115.891 5.826C116.255 5.826 116.591 5.888 116.899 6.012C117.207 6.132 117.473 6.308 117.697 6.54C117.921 6.768 118.095 7.052 118.219 7.392C118.347 7.728 118.411 8.112 118.411 8.544C118.411 8.712 118.393 8.824 118.357 8.88C118.321 8.936 118.253 8.964 118.153 8.964H114.109C114.117 9.348 114.169 9.682 114.265 9.966C114.361 10.25 114.493 10.488 114.661 10.68C114.829 10.868 115.029 11.01 115.261 11.106C115.493 11.198 115.753 11.244 116.041 11.244C116.309 11.244 116.539 11.214 116.731 11.154C116.927 11.09 117.095 11.022 117.235 10.95C117.375 10.878 117.491 10.812 117.583 10.752C117.679 10.688 117.761 10.656 117.829 10.656C117.917 10.656 117.985 10.69 118.033 10.758L118.333 11.148C118.201 11.308 118.043 11.448 117.859 11.568C117.675 11.684 117.477 11.78 117.265 11.856C117.057 11.932 116.841 11.988 116.617 12.024C116.393 12.064 116.171 12.084 115.951 12.084C115.531 12.084 115.143 12.014 114.787 11.874C114.435 11.73 114.129 11.522 113.869 11.25C113.613 10.974 113.413 10.634 113.269 10.23C113.125 9.826 113.053 9.362 113.053 8.838C113.053 8.414 113.117 8.018 113.245 7.65C113.377 7.282 113.565 6.964 113.809 6.696C114.053 6.424 114.351 6.212 114.703 6.06C115.055 5.904 115.451 5.826 115.891 5.826ZM115.915 6.612C115.399 6.612 114.993 6.762 114.697 7.062C114.401 7.358 114.217 7.77 114.145 8.298H117.451C117.451 8.05 117.417 7.824 117.349 7.62C117.281 7.412 117.181 7.234 117.049 7.086C116.917 6.934 116.755 6.818 116.563 6.738C116.375 6.654 116.159 6.612 115.915 6.612ZM124.242 12H123.768C123.664 12 123.58 11.984 123.516 11.952C123.452 11.92 123.41 11.852 123.39 11.748L123.27 11.184C123.11 11.328 122.954 11.458 122.802 11.574C122.65 11.686 122.49 11.782 122.322 11.862C122.154 11.938 121.974 11.996 121.782 12.036C121.594 12.076 121.384 12.096 121.152 12.096C120.916 12.096 120.694 12.064 120.486 12C120.282 11.932 120.104 11.832 119.952 11.7C119.8 11.568 119.678 11.402 119.586 11.202C119.498 10.998 119.454 10.758 119.454 10.482C119.454 10.242 119.52 10.012 119.652 9.792C119.784 9.568 119.996 9.37 120.288 9.198C120.584 9.026 120.97 8.886 121.446 8.778C121.922 8.666 122.504 8.602 123.192 8.586V8.112C123.192 7.64 123.09 7.284 122.886 7.044C122.686 6.8 122.388 6.678 121.992 6.678C121.732 6.678 121.512 6.712 121.332 6.78C121.156 6.844 121.002 6.918 120.87 7.002C120.742 7.082 120.63 7.156 120.534 7.224C120.442 7.288 120.35 7.32 120.258 7.32C120.186 7.32 120.122 7.302 120.066 7.266C120.014 7.226 119.972 7.178 119.94 7.122L119.748 6.78C120.084 6.456 120.446 6.214 120.834 6.054C121.222 5.894 121.652 5.814 122.124 5.814C122.464 5.814 122.766 5.87 123.03 5.982C123.294 6.094 123.516 6.25 123.696 6.45C123.876 6.65 124.012 6.892 124.104 7.176C124.196 7.46 124.242 7.772 124.242 8.112V12ZM121.47 11.346C121.658 11.346 121.83 11.328 121.986 11.292C122.142 11.252 122.288 11.198 122.424 11.13C122.564 11.058 122.696 10.972 122.82 10.872C122.948 10.772 123.072 10.658 123.192 10.53V9.264C122.7 9.28 122.282 9.32 121.938 9.384C121.594 9.444 121.314 9.524 121.098 9.624C120.882 9.724 120.724 9.842 120.624 9.978C120.528 10.114 120.48 10.266 120.48 10.434C120.48 10.594 120.506 10.732 120.558 10.848C120.61 10.964 120.68 11.06 120.768 11.136C120.856 11.208 120.96 11.262 121.08 11.298C121.2 11.33 121.33 11.346 121.47 11.346ZM130.138 12C129.986 12 129.89 11.926 129.85 11.778L129.754 11.04C129.494 11.356 129.196 11.61 128.86 11.802C128.528 11.99 128.146 12.084 127.714 12.084C127.366 12.084 127.05 12.018 126.766 11.886C126.482 11.75 126.24 11.552 126.04 11.292C125.84 11.032 125.686 10.708 125.578 10.32C125.47 9.932 125.416 9.486 125.416 8.982C125.416 8.534 125.476 8.118 125.596 7.734C125.716 7.346 125.888 7.01 126.112 6.726C126.34 6.442 126.616 6.22 126.94 6.06C127.264 5.896 127.632 5.814 128.044 5.814C128.416 5.814 128.734 5.878 128.998 6.006C129.262 6.13 129.498 6.306 129.706 6.534V3.162H130.774V12H130.138ZM128.068 11.22C128.416 11.22 128.72 11.14 128.98 10.98C129.244 10.82 129.486 10.594 129.706 10.302V7.362C129.51 7.098 129.294 6.914 129.058 6.81C128.826 6.702 128.568 6.648 128.284 6.648C127.716 6.648 127.28 6.85 126.976 7.254C126.672 7.658 126.52 8.234 126.52 8.982C126.52 9.378 126.554 9.718 126.622 10.002C126.69 10.282 126.79 10.514 126.922 10.698C127.054 10.878 127.216 11.01 127.408 11.094C127.6 11.178 127.82 11.22 128.068 11.22ZM136.71 7.002C136.678 7.046 136.646 7.08 136.614 7.104C136.582 7.128 136.536 7.14 136.476 7.14C136.416 7.14 136.35 7.116 136.278 7.068C136.21 7.016 136.122 6.96 136.014 6.9C135.906 6.84 135.774 6.786 135.618 6.738C135.466 6.686 135.278 6.66 135.054 6.66C134.758 6.66 134.496 6.714 134.268 6.822C134.04 6.926 133.848 7.078 133.692 7.278C133.54 7.478 133.424 7.72 133.344 8.004C133.268 8.288 133.229 8.606 133.229 8.958C133.229 9.326 133.272 9.654 133.356 9.942C133.44 10.226 133.558 10.466 133.71 10.662C133.862 10.854 134.046 11.002 134.262 11.106C134.482 11.206 134.728 11.256 135 11.256C135.26 11.256 135.474 11.226 135.642 11.166C135.81 11.102 135.95 11.032 136.062 10.956C136.174 10.88 136.266 10.812 136.338 10.752C136.41 10.688 136.482 10.656 136.554 10.656C136.646 10.656 136.714 10.69 136.758 10.758L137.058 11.148C136.794 11.472 136.464 11.71 136.068 11.862C135.672 12.01 135.254 12.084 134.814 12.084C134.434 12.084 134.08 12.014 133.752 11.874C133.428 11.734 133.146 11.532 132.906 11.268C132.666 11 132.476 10.672 132.336 10.284C132.2 9.896 132.132 9.454 132.132 8.958C132.132 8.506 132.194 8.088 132.318 7.704C132.446 7.32 132.63 6.99 132.87 6.714C133.114 6.434 133.414 6.216 133.77 6.06C134.126 5.904 134.534 5.826 134.993 5.826C135.418 5.826 135.794 5.896 136.122 6.036C136.45 6.172 136.74 6.366 136.992 6.618L136.71 7.002ZM138.165 12V5.922H138.777C138.893 5.922 138.973 5.944 139.017 5.988C139.061 6.032 139.091 6.108 139.107 6.216L139.179 7.164C139.387 6.74 139.643 6.41 139.947 6.174C140.255 5.934 140.615 5.814 141.027 5.814C141.195 5.814 141.347 5.834 141.483 5.874C141.619 5.91 141.745 5.962 141.861 6.03L141.723 6.828C141.695 6.928 141.633 6.978 141.537 6.978C141.481 6.978 141.395 6.96 141.279 6.924C141.163 6.884 141.001 6.864 140.793 6.864C140.421 6.864 140.109 6.972 139.857 7.188C139.609 7.404 139.401 7.718 139.233 8.13V12H138.165ZM143.929 5.922V9.798C143.929 10.258 144.035 10.614 144.247 10.866C144.459 11.118 144.779 11.244 145.207 11.244C145.519 11.244 145.813 11.17 146.089 11.022C146.365 10.874 146.619 10.668 146.851 10.404V5.922H147.919V12H147.283C147.131 12 147.035 11.926 146.995 11.778L146.911 11.124C146.647 11.416 146.351 11.652 146.023 11.832C145.695 12.008 145.319 12.096 144.895 12.096C144.563 12.096 144.269 12.042 144.013 11.934C143.761 11.822 143.549 11.666 143.377 11.466C143.205 11.266 143.075 11.024 142.987 10.74C142.903 10.456 142.861 10.142 142.861 9.798V5.922H143.929ZM149.673 12V5.922H150.309C150.461 5.922 150.557 5.996 150.597 6.144L150.675 6.768C150.899 6.492 151.149 6.266 151.425 6.09C151.705 5.914 152.029 5.826 152.397 5.826C152.809 5.826 153.141 5.94 153.393 6.168C153.649 6.396 153.833 6.704 153.945 7.092C154.029 6.872 154.139 6.682 154.275 6.522C154.415 6.362 154.571 6.23 154.743 6.126C154.915 6.022 155.097 5.946 155.289 5.898C155.485 5.85 155.683 5.826 155.883 5.826C156.203 5.826 156.487 5.878 156.735 5.982C156.987 6.082 157.199 6.23 157.371 6.426C157.547 6.622 157.681 6.864 157.773 7.152C157.865 7.436 157.911 7.762 157.911 8.13V12H156.843V8.13C156.843 7.654 156.739 7.294 156.531 7.05C156.323 6.802 156.021 6.678 155.625 6.678C155.449 6.678 155.281 6.71 155.121 6.774C154.965 6.834 154.827 6.924 154.707 7.044C154.587 7.164 154.491 7.316 154.419 7.5C154.351 7.68 154.317 7.89 154.317 8.13V12H153.249V8.13C153.249 7.642 153.151 7.278 152.955 7.038C152.759 6.798 152.473 6.678 152.097 6.678C151.833 6.678 151.587 6.75 151.359 6.894C151.135 7.034 150.929 7.226 150.741 7.47V12H149.673ZM159.564 12V3.162H160.638V6.798C160.89 6.506 161.178 6.272 161.502 6.096C161.83 5.916 162.204 5.826 162.624 5.826C162.976 5.826 163.294 5.892 163.578 6.024C163.862 6.156 164.104 6.354 164.304 6.618C164.504 6.878 164.658 7.202 164.766 7.59C164.874 7.974 164.928 8.418 164.928 8.922C164.928 9.37 164.868 9.788 164.748 10.176C164.628 10.56 164.454 10.894 164.226 11.178C164.002 11.458 163.726 11.68 163.398 11.844C163.074 12.004 162.708 12.084 162.3 12.084C161.908 12.084 161.574 12.008 161.298 11.856C161.026 11.704 160.788 11.492 160.584 11.22L160.53 11.772C160.498 11.924 160.406 12 160.254 12H159.564ZM162.276 6.678C161.928 6.678 161.622 6.758 161.358 6.918C161.098 7.078 160.858 7.304 160.638 7.596V10.536C160.83 10.8 161.042 10.986 161.274 11.094C161.51 11.202 161.772 11.256 162.06 11.256C162.628 11.256 163.064 11.054 163.368 10.65C163.672 10.246 163.824 9.67 163.824 8.922C163.824 8.526 163.788 8.186 163.716 7.902C163.648 7.618 163.548 7.386 163.416 7.206C163.284 7.022 163.122 6.888 162.93 6.804C162.738 6.72 162.52 6.678 162.276 6.678ZM171.282 3.306C171.646 3.306 171.986 3.36 172.302 3.468C172.618 3.576 172.89 3.734 173.118 3.942C173.35 4.146 173.532 4.396 173.664 4.692C173.796 4.988 173.862 5.324 173.862 5.7C173.862 6.02 173.814 6.316 173.718 6.588C173.622 6.86 173.492 7.122 173.328 7.374C173.164 7.622 172.974 7.864 172.758 8.1C172.546 8.332 172.32 8.57 172.08 8.814L169.818 11.13C169.978 11.086 170.14 11.052 170.304 11.028C170.468 11 170.626 10.986 170.778 10.986H173.658C173.774 10.986 173.866 11.02 173.934 11.088C174.002 11.156 174.036 11.244 174.036 11.352V12H168.3V11.634C168.3 11.558 168.314 11.48 168.342 11.4C168.374 11.32 168.424 11.246 168.492 11.178L171.246 8.412C171.474 8.18 171.682 7.958 171.87 7.746C172.058 7.53 172.218 7.314 172.35 7.098C172.486 6.882 172.59 6.664 172.662 6.444C172.734 6.22 172.77 5.982 172.77 5.73C172.77 5.478 172.73 5.258 172.65 5.07C172.57 4.878 172.46 4.72 172.32 4.596C172.18 4.472 172.016 4.38 171.828 4.32C171.64 4.256 171.438 4.224 171.222 4.224C171.006 4.224 170.806 4.256 170.622 4.32C170.438 4.384 170.274 4.474 170.13 4.59C169.99 4.702 169.87 4.836 169.77 4.992C169.674 5.148 169.606 5.32 169.566 5.508C169.534 5.624 169.486 5.708 169.422 5.76C169.358 5.812 169.274 5.838 169.17 5.838C169.15 5.838 169.128 5.838 169.104 5.838C169.084 5.834 169.06 5.83 169.032 5.826L168.474 5.73C168.53 5.338 168.638 4.992 168.798 4.692C168.958 4.388 169.16 4.134 169.404 3.93C169.652 3.726 169.934 3.572 170.25 3.468C170.57 3.36 170.914 3.306 171.282 3.306Z" fill="#2656C9"/>
<path d="M11.4 36.59C11.5467 36.59 11.6733 36.6467 11.78 36.76L12.84 37.91C12.2533 38.6367 11.53 39.1933 10.67 39.58C9.81667 39.9667 8.79 40.16 7.59 40.16C6.51667 40.16 5.55 39.9767 4.69 39.61C3.83667 39.2433 3.10667 38.7333 2.5 38.08C1.89333 37.4267 1.42667 36.6467 1.1 35.74C0.78 34.8333 0.62 33.8433 0.62 32.77C0.62 31.6833 0.8 30.69 1.16 29.79C1.52 28.8833 2.02667 28.1033 2.68 27.45C3.33333 26.7967 4.11333 26.29 5.02 25.93C5.93333 25.5633 6.94 25.38 8.04 25.38C9.11333 25.38 10.05 25.5533 10.85 25.9C11.6567 26.24 12.3467 26.6933 12.92 27.26L12.02 28.51C11.9667 28.59 11.8967 28.66 11.81 28.72C11.73 28.78 11.6167 28.81 11.47 28.81C11.3167 28.81 11.16 28.75 11 28.63C10.84 28.51 10.6367 28.38 10.39 28.24C10.1433 28.1 9.83 27.97 9.45 27.85C9.07667 27.73 8.6 27.67 8.02 27.67C7.34 27.67 6.71333 27.79 6.14 28.03C5.57333 28.2633 5.08333 28.6 4.67 29.04C4.26333 29.48 3.94333 30.0167 3.71 30.65C3.48333 31.2767 3.37 31.9833 3.37 32.77C3.37 33.5833 3.48333 34.3067 3.71 34.94C3.94333 35.5733 4.25667 36.1067 4.65 36.54C5.04333 36.9733 5.50667 37.3067 6.04 37.54C6.57333 37.7667 7.14667 37.88 7.76 37.88C8.12667 37.88 8.45667 37.86 8.75 37.82C9.05 37.78 9.32333 37.7167 9.57 37.63C9.82333 37.5433 10.06 37.4333 10.28 37.3C10.5067 37.16 10.73 36.99 10.95 36.79C11.0167 36.73 11.0867 36.6833 11.16 36.65C11.2333 36.61 11.3133 36.59 11.4 36.59ZM16.998 29.74V36.26C16.998 36.8867 17.1413 37.3733 17.428 37.72C17.7213 38.06 18.158 38.23 18.738 38.23C19.1646 38.23 19.5646 38.1367 19.938 37.95C20.3113 37.7567 20.6646 37.4933 20.998 37.16V29.74H23.468V40H21.958C21.638 40 21.428 39.85 21.328 39.55L21.158 38.73C20.9446 38.9433 20.7246 39.14 20.498 39.32C20.2713 39.4933 20.028 39.6433 19.768 39.77C19.5146 39.89 19.238 39.9833 18.938 40.05C18.6446 40.1233 18.328 40.16 17.988 40.16C17.428 40.16 16.9313 40.0667 16.498 39.88C16.0713 39.6867 15.7113 39.4167 15.418 39.07C15.1246 38.7233 14.9013 38.3133 14.748 37.84C14.6013 37.36 14.528 36.8333 14.528 36.26V29.74H16.998ZM26.1052 40V29.74H27.5552C27.8085 29.74 27.9852 29.7867 28.0852 29.88C28.1852 29.9733 28.2518 30.1333 28.2852 30.36L28.4352 31.6C28.8018 30.9667 29.2318 30.4667 29.7252 30.1C30.2185 29.7333 30.7718 29.55 31.3852 29.55C31.8918 29.55 32.3118 29.6667 32.6452 29.9L32.3252 31.75C32.3052 31.87 32.2618 31.9567 32.1952 32.01C32.1285 32.0567 32.0385 32.08 31.9252 32.08C31.8252 32.08 31.6885 32.0567 31.5152 32.01C31.3418 31.9633 31.1118 31.94 30.8252 31.94C30.3118 31.94 29.8718 32.0833 29.5052 32.37C29.1385 32.65 28.8285 33.0633 28.5752 33.61V40H26.1052ZM34.2692 40V29.74H35.7192C35.9726 29.74 36.1492 29.7867 36.2492 29.88C36.3492 29.9733 36.4159 30.1333 36.4492 30.36L36.5992 31.6C36.9659 30.9667 37.3959 30.4667 37.8892 30.1C38.3826 29.7333 38.9359 29.55 39.5492 29.55C40.0559 29.55 40.4759 29.6667 40.8092 29.9L40.4892 31.75C40.4692 31.87 40.4259 31.9567 40.3592 32.01C40.2926 32.0567 40.2026 32.08 40.0892 32.08C39.9892 32.08 39.8526 32.0567 39.6792 32.01C39.5059 31.9633 39.2759 31.94 38.9892 31.94C38.4759 31.94 38.0359 32.0833 37.6692 32.37C37.3026 32.65 36.9926 33.0633 36.7392 33.61V40H34.2692ZM46.6733 29.58C47.3199 29.58 47.9133 29.6833 48.4533 29.89C48.9999 30.0967 49.4699 30.4 49.8633 30.8C50.2566 31.1933 50.5633 31.68 50.7833 32.26C51.0033 32.8333 51.1133 33.49 51.1133 34.23C51.1133 34.4167 51.1033 34.5733 51.0833 34.7C51.0699 34.82 51.0399 34.9167 50.9933 34.99C50.9533 35.0567 50.8966 35.1067 50.8233 35.14C50.7499 35.1667 50.6566 35.18 50.5433 35.18H44.2033C44.2766 36.2333 44.5599 37.0067 45.0533 37.5C45.5466 37.9933 46.1999 38.24 47.0133 38.24C47.4133 38.24 47.7566 38.1933 48.0433 38.1C48.3366 38.0067 48.5899 37.9033 48.8033 37.79C49.0233 37.6767 49.2133 37.5733 49.3733 37.48C49.5399 37.3867 49.6999 37.34 49.8533 37.34C49.9533 37.34 50.0399 37.36 50.1133 37.4C50.1866 37.44 50.2499 37.4967 50.3033 37.57L51.0233 38.47C50.7499 38.79 50.4433 39.06 50.1033 39.28C49.7633 39.4933 49.4066 39.6667 49.0333 39.8C48.6666 39.9267 48.2899 40.0167 47.9033 40.07C47.5233 40.1233 47.1533 40.15 46.7933 40.15C46.0799 40.15 45.4166 40.0333 44.8033 39.8C44.1899 39.56 43.6566 39.21 43.2033 38.75C42.7499 38.2833 42.3933 37.71 42.1333 37.03C41.8733 36.3433 41.7433 35.55 41.7433 34.65C41.7433 33.95 41.8566 33.2933 42.0833 32.68C42.3099 32.06 42.6333 31.5233 43.0533 31.07C43.4799 30.61 43.9966 30.2467 44.6033 29.98C45.2166 29.7133 45.9066 29.58 46.6733 29.58ZM46.7233 31.35C46.0033 31.35 45.4399 31.5533 45.0333 31.96C44.6266 32.3667 44.3666 32.9433 44.2533 33.69H48.8933C48.8933 33.37 48.8499 33.07 48.7633 32.79C48.6766 32.5033 48.5433 32.2533 48.3633 32.04C48.1833 31.8267 47.9566 31.66 47.6833 31.54C47.4099 31.4133 47.0899 31.35 46.7233 31.35ZM53.1169 40V29.74H54.6269C54.9469 29.74 55.1569 29.89 55.2569 30.19L55.4269 31C55.6335 30.7867 55.8502 30.5933 56.0769 30.42C56.3102 30.2467 56.5535 30.0967 56.8069 29.97C57.0669 29.8433 57.3435 29.7467 57.6369 29.68C57.9302 29.6133 58.2502 29.58 58.5969 29.58C59.1569 29.58 59.6535 29.6767 60.0869 29.87C60.5202 30.0567 60.8802 30.3233 61.1669 30.67C61.4602 31.01 61.6802 31.42 61.8269 31.9C61.9802 32.3733 62.0569 32.8967 62.0569 33.47V40H59.5869V33.47C59.5869 32.8433 59.4402 32.36 59.1469 32.02C58.8602 31.6733 58.4269 31.5 57.8469 31.5C57.4202 31.5 57.0202 31.5967 56.6469 31.79C56.2735 31.9833 55.9202 32.2467 55.5869 32.58V40H53.1169ZM67.8541 40.16C66.9674 40.16 66.2841 39.91 65.8041 39.41C65.3241 38.9033 65.0841 38.2067 65.0841 37.32V31.59H64.0441C63.9107 31.59 63.7941 31.5467 63.6941 31.46C63.6007 31.3733 63.5541 31.2433 63.5541 31.07V30.09L65.2041 29.82L65.7241 27.02C65.7507 26.8867 65.8107 26.7833 65.9041 26.71C66.0041 26.6367 66.1274 26.6 66.2741 26.6H67.5541V29.83H70.2541V31.59H67.5541V37.15C67.5541 37.47 67.6341 37.72 67.7941 37.9C67.9541 38.08 68.1674 38.17 68.4341 38.17C68.5874 38.17 68.7141 38.1533 68.8141 38.12C68.9207 38.08 69.0107 38.04 69.0841 38C69.1641 37.96 69.2341 37.9233 69.2941 37.89C69.3541 37.85 69.4141 37.83 69.4741 37.83C69.5474 37.83 69.6074 37.85 69.6541 37.89C69.7007 37.9233 69.7507 37.9767 69.8041 38.05L70.5441 39.25C70.1841 39.55 69.7707 39.7767 69.3041 39.93C68.8374 40.0833 68.3541 40.16 67.8541 40.16ZM76.0856 43.35V29.74H77.5956C77.7556 29.74 77.8923 29.7767 78.0056 29.85C78.119 29.9233 78.1923 30.0367 78.2256 30.19L78.4256 31.14C78.839 30.6667 79.3123 30.2833 79.8456 29.99C80.3856 29.6967 81.0156 29.55 81.7356 29.55C82.2956 29.55 82.8056 29.6667 83.2656 29.9C83.7323 30.1333 84.1323 30.4733 84.4656 30.92C84.8056 31.36 85.0656 31.9067 85.2456 32.56C85.4323 33.2067 85.5256 33.95 85.5256 34.79C85.5256 35.5567 85.4223 36.2667 85.2156 36.92C85.009 37.5733 84.7123 38.14 84.3256 38.62C83.9456 39.1 83.4823 39.4767 82.9356 39.75C82.3956 40.0167 81.789 40.15 81.1156 40.15C80.5356 40.15 80.0423 40.0633 79.6356 39.89C79.2356 39.71 78.8756 39.4633 78.5556 39.15V43.35H76.0856ZM80.8856 31.5C80.3723 31.5 79.9323 31.61 79.5656 31.83C79.2056 32.0433 78.869 32.3467 78.5556 32.74V37.34C78.8356 37.6867 79.139 37.93 79.4656 38.07C79.799 38.2033 80.1556 38.27 80.5356 38.27C80.909 38.27 81.2456 38.2 81.5456 38.06C81.8523 37.92 82.109 37.7067 82.3156 37.42C82.529 37.1333 82.6923 36.7733 82.8056 36.34C82.919 35.9 82.9756 35.3833 82.9756 34.79C82.9756 34.19 82.9256 33.6833 82.8256 33.27C82.7323 32.85 82.5956 32.51 82.4156 32.25C82.2356 31.99 82.0156 31.8 81.7556 31.68C81.5023 31.56 81.2123 31.5 80.8856 31.5ZM95.4342 40H94.3242C94.0909 40 93.9076 39.9667 93.7742 39.9C93.6409 39.8267 93.5409 39.6833 93.4742 39.47L93.2542 38.74C92.9942 38.9733 92.7376 39.18 92.4842 39.36C92.2376 39.5333 91.9809 39.68 91.7142 39.8C91.4476 39.92 91.1642 40.01 90.8642 40.07C90.5642 40.13 90.2309 40.16 89.8642 40.16C89.4309 40.16 89.0309 40.1033 88.6642 39.99C88.2976 39.87 87.9809 39.6933 87.7142 39.46C87.4542 39.2267 87.2509 38.9367 87.1042 38.59C86.9576 38.2433 86.8842 37.84 86.8842 37.38C86.8842 36.9933 86.9842 36.6133 87.1842 36.24C87.3909 35.86 87.7309 35.52 88.2042 35.22C88.6776 34.9133 89.3076 34.66 90.0942 34.46C90.8809 34.26 91.8576 34.1467 93.0242 34.12V33.52C93.0242 32.8333 92.8776 32.3267 92.5842 32C92.2976 31.6667 91.8776 31.5 91.3242 31.5C90.9242 31.5 90.5909 31.5467 90.3242 31.64C90.0576 31.7333 89.8242 31.84 89.6242 31.96C89.4309 32.0733 89.2509 32.1767 89.0842 32.27C88.9176 32.3633 88.7342 32.41 88.5342 32.41C88.3676 32.41 88.2242 32.3667 88.1042 32.28C87.9842 32.1933 87.8876 32.0867 87.8142 31.96L87.3642 31.17C88.5442 30.09 89.9676 29.55 91.6342 29.55C92.2342 29.55 92.7676 29.65 93.2342 29.85C93.7076 30.0433 94.1076 30.3167 94.4342 30.67C94.7609 31.0167 95.0076 31.4333 95.1742 31.92C95.3476 32.4067 95.4342 32.94 95.4342 33.52V40ZM90.6342 38.46C90.8876 38.46 91.1209 38.4367 91.3342 38.39C91.5476 38.3433 91.7476 38.2733 91.9342 38.18C92.1276 38.0867 92.3109 37.9733 92.4842 37.84C92.6642 37.7 92.8442 37.5367 93.0242 37.35V35.62C92.3042 35.6533 91.7009 35.7167 91.2142 35.81C90.7342 35.8967 90.3476 36.01 90.0542 36.15C89.7609 36.29 89.5509 36.4533 89.4242 36.64C89.3042 36.8267 89.2442 37.03 89.2442 37.25C89.2442 37.6833 89.3709 37.9933 89.6242 38.18C89.8842 38.3667 90.2209 38.46 90.6342 38.46ZM101.413 29.56C101.853 29.56 102.266 29.6067 102.653 29.7C103.04 29.7867 103.393 29.9167 103.713 30.09H106.663V31.01C106.663 31.1633 106.623 31.2833 106.543 31.37C106.463 31.4567 106.326 31.5167 106.133 31.55L105.213 31.72C105.28 31.8933 105.33 32.0767 105.363 32.27C105.403 32.4633 105.423 32.6667 105.423 32.88C105.423 33.3867 105.32 33.8467 105.113 34.26C104.913 34.6667 104.633 35.0133 104.273 35.3C103.92 35.5867 103.496 35.81 103.003 35.97C102.516 36.1233 101.986 36.2 101.413 36.2C101.026 36.2 100.65 36.1633 100.283 36.09C99.963 36.2833 99.803 36.5 99.803 36.74C99.803 36.9467 99.8963 37.1 100.083 37.2C100.276 37.2933 100.526 37.36 100.833 37.4C101.146 37.44 101.5 37.4667 101.893 37.48C102.286 37.4867 102.69 37.5067 103.103 37.54C103.516 37.5733 103.92 37.6333 104.313 37.72C104.706 37.8 105.056 37.93 105.363 38.11C105.676 38.29 105.926 38.5367 106.113 38.85C106.306 39.1567 106.403 39.5533 106.403 40.04C106.403 40.4933 106.29 40.9333 106.063 41.36C105.843 41.7867 105.52 42.1667 105.093 42.5C104.673 42.8333 104.156 43.1 103.543 43.3C102.93 43.5067 102.23 43.61 101.443 43.61C100.663 43.61 99.9863 43.5333 99.413 43.38C98.8396 43.2333 98.363 43.0333 97.983 42.78C97.6096 42.5333 97.3296 42.2467 97.143 41.92C96.9563 41.5933 96.863 41.2533 96.863 40.9C96.863 40.42 97.0096 40.0167 97.303 39.69C97.5963 39.3633 98.003 39.1033 98.523 38.91C98.2696 38.77 98.0663 38.5833 97.913 38.35C97.7596 38.1167 97.683 37.8133 97.683 37.44C97.683 37.2867 97.7096 37.13 97.763 36.97C97.8163 36.8033 97.8963 36.64 98.003 36.48C98.1163 36.32 98.2563 36.17 98.423 36.03C98.5896 35.8833 98.7863 35.7533 99.013 35.64C98.493 35.36 98.083 34.9867 97.783 34.52C97.4896 34.0533 97.343 33.5067 97.343 32.88C97.343 32.3733 97.443 31.9167 97.643 31.51C97.8496 31.0967 98.133 30.7467 98.493 30.46C98.8596 30.1667 99.2896 29.9433 99.783 29.79C100.283 29.6367 100.826 29.56 101.413 29.56ZM104.123 40.46C104.123 40.26 104.063 40.0967 103.943 39.97C103.823 39.8433 103.66 39.7467 103.453 39.68C103.246 39.6067 103.003 39.5533 102.723 39.52C102.45 39.4867 102.156 39.4633 101.843 39.45C101.536 39.43 101.216 39.4133 100.883 39.4C100.556 39.38 100.24 39.35 99.933 39.31C99.653 39.4633 99.4263 39.6467 99.253 39.86C99.0863 40.0667 99.003 40.3067 99.003 40.58C99.003 40.76 99.0463 40.9267 99.133 41.08C99.2263 41.24 99.3696 41.3767 99.563 41.49C99.763 41.6033 100.02 41.69 100.333 41.75C100.646 41.8167 101.03 41.85 101.483 41.85C101.943 41.85 102.34 41.8133 102.673 41.74C103.006 41.6733 103.28 41.5767 103.493 41.45C103.713 41.33 103.873 41.1833 103.973 41.01C104.073 40.8433 104.123 40.66 104.123 40.46ZM101.413 34.62C101.72 34.62 101.986 34.58 102.213 34.5C102.44 34.4133 102.626 34.2967 102.773 34.15C102.926 34.0033 103.04 33.8267 103.113 33.62C103.193 33.4133 103.233 33.1867 103.233 32.94C103.233 32.4333 103.08 32.0333 102.773 31.74C102.473 31.44 102.02 31.29 101.413 31.29C100.806 31.29 100.35 31.44 100.043 31.74C99.743 32.0333 99.593 32.4333 99.593 32.94C99.593 33.18 99.6296 33.4033 99.703 33.61C99.783 33.8167 99.8963 33.9967 100.043 34.15C100.196 34.2967 100.386 34.4133 100.613 34.5C100.846 34.58 101.113 34.62 101.413 34.62ZM112.455 29.58C113.101 29.58 113.695 29.6833 114.235 29.89C114.781 30.0967 115.251 30.4 115.645 30.8C116.038 31.1933 116.345 31.68 116.565 32.26C116.785 32.8333 116.895 33.49 116.895 34.23C116.895 34.4167 116.885 34.5733 116.865 34.7C116.851 34.82 116.821 34.9167 116.775 34.99C116.735 35.0567 116.678 35.1067 116.605 35.14C116.531 35.1667 116.438 35.18 116.325 35.18H109.985C110.058 36.2333 110.341 37.0067 110.835 37.5C111.328 37.9933 111.981 38.24 112.795 38.24C113.195 38.24 113.538 38.1933 113.825 38.1C114.118 38.0067 114.371 37.9033 114.585 37.79C114.805 37.6767 114.995 37.5733 115.155 37.48C115.321 37.3867 115.481 37.34 115.635 37.34C115.735 37.34 115.821 37.36 115.895 37.4C115.968 37.44 116.031 37.4967 116.085 37.57L116.805 38.47C116.531 38.79 116.225 39.06 115.885 39.28C115.545 39.4933 115.188 39.6667 114.815 39.8C114.448 39.9267 114.071 40.0167 113.685 40.07C113.305 40.1233 112.935 40.15 112.575 40.15C111.861 40.15 111.198 40.0333 110.585 39.8C109.971 39.56 109.438 39.21 108.985 38.75C108.531 38.2833 108.175 37.71 107.915 37.03C107.655 36.3433 107.525 35.55 107.525 34.65C107.525 33.95 107.638 33.2933 107.865 32.68C108.091 32.06 108.415 31.5233 108.835 31.07C109.261 30.61 109.778 30.2467 110.385 29.98C110.998 29.7133 111.688 29.58 112.455 29.58ZM112.505 31.35C111.785 31.35 111.221 31.5533 110.815 31.96C110.408 32.3667 110.148 32.9433 110.035 33.69H114.675C114.675 33.37 114.631 33.07 114.545 32.79C114.458 32.5033 114.325 32.2533 114.145 32.04C113.965 31.8267 113.738 31.66 113.465 31.54C113.191 31.4133 112.871 31.35 112.505 31.35Z" fill="black"/>
</svg>
