<?xml version="1.0" encoding="UTF-8"?>
<svg width="325px" height="60px" viewBox="0 0 325 60" version="1.1" xmlns="http://www.w3.org/2000/svg" xmlns:xlink="http://www.w3.org/1999/xlink">
    <title>action</title>
    <g id="Page-1" stroke="none" stroke-width="1" fill="none" fill-rule="evenodd">
        <g id="action">
            <rect id="Rectangle" fill="#3F3F3F" fill-rule="nonzero" x="0" y="0" width="325" height="60" rx="30"></rect>
            <path d="M71.456,25.536 L71.456,26.8 L65.952,26.8 L65.952,30.808 L70.656,30.808 L70.656,32.072 L65.952,32.072 L65.952,37 L64.392,37 L64.392,25.536 L71.456,25.536 Z M74.8145,28.896 L74.8145,37 L73.3905,37 L73.3905,28.896 L74.8145,28.896 Z M75.1345,26.352 C75.1345,26.4907 75.1052,26.6213 75.0465,26.744 C74.9932,26.8613 74.9185,26.968 74.8225,27.064 C74.7318,27.1547 74.6252,27.2267 74.5025,27.28 C74.3798,27.3333 74.2492,27.36 74.1105,27.36 C73.9718,27.36 73.8412,27.3333 73.7185,27.28 C73.6012,27.2267 73.4945,27.1547 73.3985,27.064 C73.3078,26.968 73.2358,26.8613 73.1825,26.744 C73.1292,26.6213 73.1025,26.4907 73.1025,26.352 C73.1025,26.2133 73.1292,26.0827 73.1825,25.96 C73.2358,25.832 73.3078,25.7227 73.3985,25.632 C73.4945,25.536 73.6012,25.4613 73.7185,25.408 C73.8412,25.3547 73.9718,25.328 74.1105,25.328 C74.2492,25.328 74.3798,25.3547 74.5025,25.408 C74.6252,25.4613 74.7318,25.536 74.8225,25.632 C74.9185,25.7227 74.9932,25.832 75.0465,25.96 C75.1052,26.0827 75.1345,26.2133 75.1345,26.352 Z M78.9083,25.216 L78.9083,37 L77.4843,37 L77.4843,25.216 L78.9083,25.216 Z M84.626,28.768 C85.1113,28.768 85.5593,28.8507 85.97,29.016 C86.3807,29.176 86.7353,29.4107 87.034,29.72 C87.3327,30.024 87.5647,30.4027 87.73,30.856 C87.9007,31.304 87.986,31.816 87.986,32.392 C87.986,32.616 87.962,32.7653 87.914,32.84 C87.866,32.9147 87.7753,32.952 87.642,32.952 L82.25,32.952 C82.2607,33.464 82.33,33.9093 82.458,34.288 C82.586,34.6667 82.762,34.984 82.986,35.24 C83.21,35.4907 83.4767,35.68 83.786,35.808 C84.0953,35.9307 84.442,35.992 84.826,35.992 C85.1833,35.992 85.49,35.952 85.746,35.872 C86.0073,35.7867 86.2313,35.696 86.418,35.6 C86.6047,35.504 86.7593,35.416 86.882,35.336 C87.01,35.2507 87.1193,35.208 87.21,35.208 C87.3273,35.208 87.418,35.2533 87.482,35.344 L87.882,35.864 C87.706,36.0773 87.4953,36.264 87.25,36.424 C87.0047,36.5787 86.7407,36.7067 86.458,36.808 C86.1807,36.9093 85.8927,36.984 85.594,37.032 C85.2953,37.0853 84.9993,37.112 84.706,37.112 C84.146,37.112 83.6287,37.0187 83.154,36.832 C82.6847,36.64 82.2767,36.3627 81.93,36 C81.5887,35.632 81.322,35.1787 81.13,34.64 C80.938,34.1013 80.842,33.4827 80.842,32.784 C80.842,32.2187 80.9273,31.6907 81.098,31.2 C81.274,30.7093 81.5247,30.2853 81.85,29.928 C82.1753,29.5653 82.5727,29.2827 83.042,29.08 C83.5113,28.872 84.0393,28.768 84.626,28.768 Z M84.658,29.816 C83.97,29.816 83.4287,30.016 83.034,30.416 C82.6393,30.8107 82.394,31.36 82.298,32.064 L86.706,32.064 C86.706,31.7333 86.6607,31.432 86.57,31.16 C86.4793,30.8827 86.346,30.6453 86.17,30.448 C85.994,30.2453 85.778,30.0907 85.522,29.984 C85.2713,29.872 84.9833,29.816 84.658,29.816 Z M98.8544,37 L98.2224,37 C98.0837,37 97.9717,36.9787 97.8864,36.936 C97.801,36.8933 97.745,36.8027 97.7184,36.664 L97.5584,35.912 C97.345,36.104 97.137,36.2773 96.9344,36.432 C96.7317,36.5813 96.5184,36.7093 96.2944,36.816 C96.0704,36.9173 95.8304,36.9947 95.5744,37.048 C95.3237,37.1013 95.0437,37.128 94.7344,37.128 C94.4197,37.128 94.1237,37.0853 93.8464,37 C93.5744,36.9093 93.337,36.776 93.1344,36.6 C92.9317,36.424 92.769,36.2027 92.6464,35.936 C92.529,35.664 92.4704,35.344 92.4704,34.976 C92.4704,34.656 92.5584,34.3493 92.7344,34.056 C92.9104,33.7573 93.193,33.4933 93.5824,33.264 C93.977,33.0347 94.4917,32.848 95.1264,32.704 C95.761,32.5547 96.537,32.4693 97.4544,32.448 L97.4544,31.816 C97.4544,31.1867 97.3184,30.712 97.0464,30.392 C96.7797,30.0667 96.3824,29.904 95.8544,29.904 C95.5077,29.904 95.2144,29.9493 94.9744,30.04 C94.7397,30.1253 94.5344,30.224 94.3584,30.336 C94.1877,30.4427 94.0384,30.5413 93.9104,30.632 C93.7877,30.7173 93.665,30.76 93.5424,30.76 C93.4464,30.76 93.361,30.736 93.2864,30.688 C93.217,30.6347 93.161,30.5707 93.1184,30.496 L92.8624,30.04 C93.3104,29.608 93.793,29.2853 94.3104,29.072 C94.8277,28.8587 95.401,28.752 96.0304,28.752 C96.4837,28.752 96.8864,28.8267 97.2384,28.976 C97.5904,29.1253 97.8864,29.3333 98.1264,29.6 C98.3664,29.8667 98.5477,30.1893 98.6704,30.568 C98.793,30.9467 98.8544,31.3627 98.8544,31.816 L98.8544,37 Z M95.1584,36.128 C95.409,36.128 95.6384,36.104 95.8464,36.056 C96.0544,36.0027 96.249,35.9307 96.4304,35.84 C96.617,35.744 96.793,35.6293 96.9584,35.496 C97.129,35.3627 97.2944,35.2107 97.4544,35.04 L97.4544,33.352 C96.7984,33.3733 96.241,33.4267 95.7824,33.512 C95.3237,33.592 94.9504,33.6987 94.6624,33.832 C94.3744,33.9653 94.1637,34.1227 94.0304,34.304 C93.9024,34.4853 93.8384,34.688 93.8384,34.912 C93.8384,35.1253 93.873,35.3093 93.9424,35.464 C94.0117,35.6187 94.105,35.7467 94.2224,35.848 C94.3397,35.944 94.4784,36.016 94.6384,36.064 C94.7984,36.1067 94.9717,36.128 95.1584,36.128 Z M101.012,37 L101.012,28.896 L101.828,28.896 C101.982,28.896 102.089,28.9253 102.148,28.984 C102.206,29.0427 102.246,29.144 102.268,29.288 L102.364,30.552 C102.641,29.9867 102.982,29.5467 103.388,29.232 C103.798,28.912 104.278,28.752 104.828,28.752 C105.052,28.752 105.254,28.7787 105.436,28.832 C105.617,28.88 105.785,28.9493 105.94,29.04 L105.756,30.104 C105.718,30.2373 105.636,30.304 105.508,30.304 C105.433,30.304 105.318,30.28 105.164,30.232 C105.009,30.1787 104.793,30.152 104.516,30.152 C104.02,30.152 103.604,30.296 103.268,30.584 C102.937,30.872 102.66,31.2907 102.436,31.84 L102.436,37 L101.012,37 Z M112.993,30.336 C112.95,30.3947 112.908,30.44 112.865,30.472 C112.822,30.504 112.761,30.52 112.681,30.52 C112.601,30.52 112.513,30.488 112.417,30.424 C112.326,30.3547 112.209,30.28 112.065,30.2 C111.921,30.12 111.745,30.048 111.537,29.984 C111.334,29.9147 111.084,29.88 110.785,29.88 C110.39,29.88 110.041,29.952 109.737,30.096 C109.433,30.2347 109.177,30.4373 108.969,30.704 C108.766,30.9707 108.612,31.2933 108.505,31.672 C108.404,32.0507 108.353,32.4747 108.353,32.944 C108.353,33.4347 108.409,33.872 108.521,34.256 C108.633,34.6347 108.79,34.9547 108.993,35.216 C109.196,35.472 109.441,35.6693 109.729,35.808 C110.022,35.9413 110.35,36.008 110.713,36.008 C111.06,36.008 111.345,35.968 111.569,35.888 C111.793,35.8027 111.98,35.7093 112.129,35.608 C112.278,35.5067 112.401,35.416 112.497,35.336 C112.593,35.2507 112.689,35.208 112.785,35.208 C112.908,35.208 112.998,35.2533 113.057,35.344 L113.457,35.864 C113.105,36.296 112.665,36.6133 112.137,36.816 C111.609,37.0133 111.052,37.112 110.465,37.112 C109.958,37.112 109.486,37.0187 109.049,36.832 C108.617,36.6453 108.241,36.376 107.921,36.024 C107.601,35.6667 107.348,35.2293 107.161,34.712 C106.98,34.1947 106.889,33.6053 106.889,32.944 C106.889,32.3413 106.972,31.784 107.137,31.272 C107.308,30.76 107.553,30.32 107.873,29.952 C108.198,29.5787 108.598,29.288 109.073,29.08 C109.548,28.872 110.092,28.768 110.705,28.768 C111.27,28.768 111.772,28.8613 112.209,29.048 C112.646,29.2293 113.033,29.488 113.369,29.824 L112.993,30.336 Z M114.934,37 L114.934,25.216 L116.358,25.216 L116.358,29.984 C116.704,29.616 117.088,29.3227 117.51,29.104 C117.931,28.88 118.416,28.768 118.966,28.768 C119.408,28.768 119.798,28.8427 120.134,28.992 C120.475,29.136 120.758,29.344 120.982,29.616 C121.211,29.8827 121.384,30.2053 121.502,30.584 C121.619,30.9627 121.678,31.3813 121.678,31.84 L121.678,37 L120.254,37 L120.254,31.84 C120.254,31.2267 120.112,30.752 119.83,30.416 C119.552,30.0747 119.126,29.904 118.55,29.904 C118.128,29.904 117.734,30.0053 117.366,30.208 C117.003,30.4107 116.667,30.6853 116.358,31.032 L116.358,37 L114.934,37 Z M125.408,28.896 L125.408,37 L123.984,37 L123.984,28.896 L125.408,28.896 Z M125.728,26.352 C125.728,26.4907 125.699,26.6213 125.64,26.744 C125.587,26.8613 125.512,26.968 125.416,27.064 C125.326,27.1547 125.219,27.2267 125.096,27.28 C124.974,27.3333 124.843,27.36 124.704,27.36 C124.566,27.36 124.435,27.3333 124.312,27.28 C124.195,27.2267 124.088,27.1547 123.992,27.064 C123.902,26.968 123.83,26.8613 123.776,26.744 C123.723,26.6213 123.696,26.4907 123.696,26.352 C123.696,26.2133 123.723,26.0827 123.776,25.96 C123.83,25.832 123.902,25.7227 123.992,25.632 C124.088,25.536 124.195,25.4613 124.312,25.408 C124.435,25.3547 124.566,25.328 124.704,25.328 C124.843,25.328 124.974,25.3547 125.096,25.408 C125.219,25.4613 125.326,25.536 125.416,25.632 C125.512,25.7227 125.587,25.832 125.64,25.96 C125.699,26.0827 125.728,26.2133 125.728,26.352 Z M126.894,28.896 L128.062,28.896 C128.174,28.896 128.267,28.9253 128.342,28.984 C128.417,29.0427 128.47,29.112 128.502,29.192 L130.558,34.408 C130.633,34.6 130.691,34.792 130.734,34.984 C130.777,35.176 130.817,35.3653 130.854,35.552 C130.897,35.3653 130.942,35.176 130.99,34.984 C131.038,34.792 131.099,34.6 131.174,34.408 L133.254,29.192 C133.286,29.1067 133.337,29.0373 133.406,28.984 C133.481,28.9253 133.571,28.896 133.678,28.896 L134.79,28.896 L131.486,37 L130.198,37 L126.894,28.896 Z M139.11,28.768 C139.596,28.768 140.044,28.8507 140.454,29.016 C140.865,29.176 141.22,29.4107 141.518,29.72 C141.817,30.024 142.049,30.4027 142.214,30.856 C142.385,31.304 142.47,31.816 142.47,32.392 C142.47,32.616 142.446,32.7653 142.398,32.84 C142.35,32.9147 142.26,32.952 142.126,32.952 L136.734,32.952 C136.745,33.464 136.814,33.9093 136.942,34.288 C137.07,34.6667 137.246,34.984 137.47,35.24 C137.694,35.4907 137.961,35.68 138.27,35.808 C138.58,35.9307 138.926,35.992 139.31,35.992 C139.668,35.992 139.974,35.952 140.23,35.872 C140.492,35.7867 140.716,35.696 140.902,35.6 C141.089,35.504 141.244,35.416 141.366,35.336 C141.494,35.2507 141.604,35.208 141.694,35.208 C141.812,35.208 141.902,35.2533 141.966,35.344 L142.366,35.864 C142.19,36.0773 141.98,36.264 141.734,36.424 C141.489,36.5787 141.225,36.7067 140.942,36.808 C140.665,36.9093 140.377,36.984 140.078,37.032 C139.78,37.0853 139.484,37.112 139.19,37.112 C138.63,37.112 138.113,37.0187 137.638,36.832 C137.169,36.64 136.761,36.3627 136.414,36 C136.073,35.632 135.806,35.1787 135.614,34.64 C135.422,34.1013 135.326,33.4827 135.326,32.784 C135.326,32.2187 135.412,31.6907 135.582,31.2 C135.758,30.7093 136.009,30.2853 136.334,29.928 C136.66,29.5653 137.057,29.2827 137.526,29.08 C137.996,28.872 138.524,28.768 139.11,28.768 Z M139.142,29.816 C138.454,29.816 137.913,30.016 137.518,30.416 C137.124,30.8107 136.878,31.36 136.782,32.064 L141.19,32.064 C141.19,31.7333 141.145,31.432 141.054,31.16 C140.964,30.8827 140.83,30.6453 140.654,30.448 C140.478,30.2453 140.262,30.0907 140.006,29.984 C139.756,29.872 139.468,29.816 139.142,29.816 Z M149.997,37 C149.794,37 149.666,36.9013 149.613,36.704 L149.485,35.72 C149.138,36.1413 148.741,36.48 148.293,36.736 C147.85,36.9867 147.341,37.112 146.765,37.112 C146.301,37.112 145.88,37.024 145.501,36.848 C145.122,36.6667 144.8,36.4027 144.533,36.056 C144.266,35.7093 144.061,35.2773 143.917,34.76 C143.773,34.2427 143.701,33.648 143.701,32.976 C143.701,32.3787 143.781,31.824 143.941,31.312 C144.101,30.7947 144.33,30.3467 144.629,29.968 C144.933,29.5893 145.301,29.2933 145.733,29.08 C146.165,28.8613 146.656,28.752 147.205,28.752 C147.701,28.752 148.125,28.8373 148.477,29.008 C148.829,29.1733 149.144,29.408 149.421,29.712 L149.421,25.216 L150.845,25.216 L150.845,37 L149.997,37 Z M147.237,35.96 C147.701,35.96 148.106,35.8533 148.453,35.64 C148.805,35.4267 149.128,35.1253 149.421,34.736 L149.421,30.816 C149.16,30.464 148.872,30.2187 148.557,30.08 C148.248,29.936 147.904,29.864 147.525,29.864 C146.768,29.864 146.186,30.1333 145.781,30.672 C145.376,31.2107 145.173,31.9787 145.173,32.976 C145.173,33.504 145.218,33.9573 145.309,34.336 C145.4,34.7093 145.533,35.0187 145.709,35.264 C145.885,35.504 146.101,35.68 146.357,35.792 C146.613,35.904 146.906,35.96 147.237,35.96 Z" id="Shape" fill="#FFFFFF" fill-rule="nonzero"></path>
            <rect id="Rectangle" stroke="#FFFFFF" x="226" y="14" width="84" height="32" rx="16"></rect>
            <path d="M254.645,33.768 C255.12,33.768 255.544,33.688 255.917,33.528 C256.29,33.368 256.605,33.144 256.861,32.856 C257.122,32.568 257.32,32.224 257.453,31.824 C257.592,31.424 257.661,30.984 257.661,30.504 L257.661,23.536 L259.205,23.536 L259.205,30.504 C259.205,31.1653 259.098,31.7787 258.885,32.344 C258.677,32.9093 258.376,33.4 257.981,33.816 C257.592,34.2267 257.114,34.5493 256.549,34.784 C255.984,35.0187 255.349,35.136 254.645,35.136 C253.941,35.136 253.306,35.0187 252.741,34.784 C252.176,34.5493 251.696,34.2267 251.301,33.816 C250.906,33.4 250.602,32.9093 250.389,32.344 C250.181,31.7787 250.077,31.1653 250.077,30.504 L250.077,23.536 L251.621,23.536 L251.621,30.496 C251.621,30.976 251.688,31.416 251.821,31.816 C251.96,32.216 252.157,32.56 252.413,32.848 C252.674,33.136 252.992,33.3627 253.365,33.528 C253.744,33.688 254.17,33.768 254.645,33.768 Z M261.652,35 L261.652,26.896 L262.5,26.896 C262.703,26.896 262.831,26.9947 262.884,27.192 L262.996,28.072 C263.348,27.6827 263.74,27.368 264.172,27.128 C264.61,26.888 265.114,26.768 265.684,26.768 C266.127,26.768 266.516,26.8427 266.852,26.992 C267.194,27.136 267.476,27.344 267.7,27.616 C267.93,27.8827 268.103,28.2053 268.22,28.584 C268.338,28.9627 268.396,29.3813 268.396,29.84 L268.396,35 L266.972,35 L266.972,29.84 C266.972,29.2267 266.831,28.752 266.548,28.416 C266.271,28.0747 265.844,27.904 265.268,27.904 C264.847,27.904 264.452,28.0053 264.084,28.208 C263.722,28.4107 263.386,28.6853 263.076,29.032 L263.076,35 L261.652,35 Z M276.247,35 C276.044,35 275.916,34.9013 275.863,34.704 L275.735,33.72 C275.388,34.1413 274.991,34.48 274.543,34.736 C274.1,34.9867 273.591,35.112 273.015,35.112 C272.551,35.112 272.13,35.024 271.751,34.848 C271.372,34.6667 271.05,34.4027 270.783,34.056 C270.516,33.7093 270.311,33.2773 270.167,32.76 C270.023,32.2427 269.951,31.648 269.951,30.976 C269.951,30.3787 270.031,29.824 270.191,29.312 C270.351,28.7947 270.58,28.3467 270.879,27.968 C271.183,27.5893 271.551,27.2933 271.983,27.08 C272.415,26.8613 272.906,26.752 273.455,26.752 C273.951,26.752 274.375,26.8373 274.727,27.008 C275.079,27.1733 275.394,27.408 275.671,27.712 L275.671,23.216 L277.095,23.216 L277.095,35 L276.247,35 Z M273.487,33.96 C273.951,33.96 274.356,33.8533 274.703,33.64 C275.055,33.4267 275.378,33.1253 275.671,32.736 L275.671,28.816 C275.41,28.464 275.122,28.2187 274.807,28.08 C274.498,27.936 274.154,27.864 273.775,27.864 C273.018,27.864 272.436,28.1333 272.031,28.672 C271.626,29.2107 271.423,29.9787 271.423,30.976 C271.423,31.504 271.468,31.9573 271.559,32.336 C271.65,32.7093 271.783,33.0187 271.959,33.264 C272.135,33.504 272.351,33.68 272.607,33.792 C272.863,33.904 273.156,33.96 273.487,33.96 Z M282.761,26.768 C283.353,26.768 283.886,26.8667 284.361,27.064 C284.841,27.2613 285.246,27.5413 285.577,27.904 C285.913,28.2667 286.169,28.7067 286.345,29.224 C286.526,29.736 286.617,30.3093 286.617,30.944 C286.617,31.584 286.526,32.16 286.345,32.672 C286.169,33.184 285.913,33.6213 285.577,33.984 C285.246,34.3467 284.841,34.6267 284.361,34.824 C283.886,35.016 283.353,35.112 282.761,35.112 C282.169,35.112 281.633,35.016 281.153,34.824 C280.678,34.6267 280.273,34.3467 279.937,33.984 C279.601,33.6213 279.342,33.184 279.161,32.672 C278.979,32.16 278.889,31.584 278.889,30.944 C278.889,30.3093 278.979,29.736 279.161,29.224 C279.342,28.7067 279.601,28.2667 279.937,27.904 C280.273,27.5413 280.678,27.2613 281.153,27.064 C281.633,26.8667 282.169,26.768 282.761,26.768 Z M282.761,34 C283.561,34 284.158,33.7333 284.553,33.2 C284.947,32.6613 285.145,31.912 285.145,30.952 C285.145,29.9867 284.947,29.2347 284.553,28.696 C284.158,28.1573 283.561,27.888 282.761,27.888 C282.355,27.888 282.003,27.9573 281.705,28.096 C281.406,28.2347 281.155,28.4347 280.953,28.696 C280.755,28.9573 280.606,29.28 280.505,29.664 C280.409,30.0427 280.361,30.472 280.361,30.952 C280.361,31.432 280.409,31.8613 280.505,32.24 C280.606,32.6187 280.755,32.9387 280.953,33.2 C281.155,33.456 281.406,33.6533 281.705,33.792 C282.003,33.9307 282.355,34 282.761,34 Z" id="Shape" fill="#FFFFFF" fill-rule="nonzero"></path>
            <path d="M16,30 C16,21.1634 23.1634,14 32,14 L32,14 C40.8366,14 48,21.1634 48,30 L48,30 C48,38.8366 40.8366,46 32,46 L32,46 C23.1634,46 16,38.8366 16,30 L16,30 Z" id="Path" fill="#C2D95D" fill-rule="nonzero"></path>
            <line x1="29.8182" y1="36.5454" x2="40" y2="24.909" id="Path" stroke="#3F3F3F" stroke-width="2.5" stroke-linecap="round"></line>
            <polyline id="Path" stroke="#3F3F3F" stroke-width="2.5" stroke-linecap="round" points="24.7273 31.4546 26.1818 32.9091 29.0909 35.8182"></polyline>
        </g>
    </g>
</svg>