<?xml version="1.0" encoding="UTF-8"?>
<svg width="394px" height="60px" viewBox="0 0 394 60" version="1.1" xmlns="http://www.w3.org/2000/svg" xmlns:xlink="http://www.w3.org/1999/xlink">
    <title>content</title>
    <g id="Page-1" stroke="none" stroke-width="1" fill="none" fill-rule="evenodd">
        <g id="content">
            <rect id="Rectangle" fill="#3F3F3F" fill-rule="nonzero" x="0" y="0" width="394" height="60" rx="30"></rect>
            <path d="M72.2,16.536 L72.2,17.84 L68.496,17.84 L68.496,28 L66.944,28 L66.944,17.84 L63.224,17.84 L63.224,16.536 L72.2,16.536 Z M75.1895,19.896 L75.1895,28 L73.7655,28 L73.7655,19.896 L75.1895,19.896 Z M75.5095,17.352 C75.5095,17.4907 75.4802,17.6213 75.4215,17.744 C75.3682,17.8613 75.2935,17.968 75.1975,18.064 C75.1068,18.1547 75.0002,18.2267 74.8775,18.28 C74.7548,18.3333 74.6242,18.36 74.4855,18.36 C74.3468,18.36 74.2162,18.3333 74.0935,18.28 C73.9762,18.2267 73.8695,18.1547 73.7735,18.064 C73.6828,17.968 73.6108,17.8613 73.5575,17.744 C73.5042,17.6213 73.4775,17.4907 73.4775,17.352 C73.4775,17.2133 73.5042,17.0827 73.5575,16.96 C73.6108,16.832 73.6828,16.7227 73.7735,16.632 C73.8695,16.536 73.9762,16.4613 74.0935,16.408 C74.2162,16.3547 74.3468,16.328 74.4855,16.328 C74.6242,16.328 74.7548,16.3547 74.8775,16.408 C75.0002,16.4613 75.1068,16.536 75.1975,16.632 C75.2935,16.7227 75.3682,16.832 75.4215,16.96 C75.4802,17.0827 75.5095,17.2133 75.5095,17.352 Z M80.1553,28.128 C79.5153,28.128 79.0219,27.9493 78.6753,27.592 C78.3339,27.2347 78.1633,26.72 78.1633,26.048 L78.1633,21.088 L77.1873,21.088 C77.1019,21.088 77.0299,21.064 76.9713,21.016 C76.9126,20.9627 76.8833,20.8827 76.8833,20.776 L76.8833,20.208 L78.2113,20.04 L78.5393,17.536 C78.5499,17.456 78.5846,17.392 78.6432,17.344 C78.7019,17.2907 78.7766,17.264 78.8673,17.264 L79.5873,17.264 L79.5873,20.056 L81.9073,20.056 L81.9073,21.088 L79.5873,21.088 L79.5873,25.952 C79.5873,26.2933 79.6699,26.5467 79.8353,26.712 C80.0006,26.8773 80.2139,26.96 80.4753,26.96 C80.6246,26.96 80.7526,26.9413 80.8593,26.904 C80.9713,26.8613 81.0673,26.816 81.1473,26.768 C81.2273,26.72 81.2939,26.6773 81.3473,26.64 C81.4059,26.5973 81.4566,26.576 81.4993,26.576 C81.5739,26.576 81.6406,26.6213 81.6993,26.712 L82.1153,27.392 C81.8699,27.6213 81.5739,27.8027 81.2273,27.936 C80.8806,28.064 80.5233,28.128 80.1553,28.128 Z M85.252,16.216 L85.252,28 L83.828,28 L83.828,16.216 L85.252,16.216 Z M90.9698,19.768 C91.4551,19.768 91.9031,19.8507 92.3138,20.016 C92.7244,20.176 93.0791,20.4107 93.3778,20.72 C93.6764,21.024 93.9084,21.4027 94.0738,21.856 C94.2444,22.304 94.3298,22.816 94.3298,23.392 C94.3298,23.616 94.3058,23.7653 94.2578,23.84 C94.2098,23.9147 94.1191,23.952 93.9858,23.952 L88.5938,23.952 C88.6044,24.464 88.6738,24.9093 88.8018,25.288 C88.9298,25.6667 89.1058,25.984 89.3298,26.24 C89.5538,26.4907 89.8204,26.68 90.1298,26.808 C90.4391,26.9307 90.7858,26.992 91.1698,26.992 C91.5271,26.992 91.8338,26.952 92.0898,26.872 C92.3511,26.7867 92.5751,26.696 92.7618,26.6 C92.9484,26.504 93.1031,26.416 93.2258,26.336 C93.3538,26.2507 93.4631,26.208 93.5538,26.208 C93.6711,26.208 93.7618,26.2533 93.8258,26.344 L94.2258,26.864 C94.0498,27.0773 93.8391,27.264 93.5938,27.424 C93.3484,27.5787 93.0844,27.7067 92.8018,27.808 C92.5244,27.9093 92.2364,27.984 91.9378,28.032 C91.6391,28.0853 91.3431,28.112 91.0498,28.112 C90.4898,28.112 89.9724,28.0187 89.4978,27.832 C89.0284,27.64 88.6204,27.3627 88.2738,27 C87.9324,26.632 87.6658,26.1787 87.4738,25.64 C87.2818,25.1013 87.1858,24.4827 87.1858,23.784 C87.1858,23.2187 87.2711,22.6907 87.4418,22.2 C87.6178,21.7093 87.8684,21.2853 88.1938,20.928 C88.5191,20.5653 88.9164,20.2827 89.3858,20.08 C89.8551,19.872 90.3831,19.768 90.9698,19.768 Z M91.0017,20.816 C90.3138,20.816 89.7724,21.016 89.3778,21.416 C88.9831,21.8107 88.7378,22.36 88.6418,23.064 L93.0498,23.064 C93.0498,22.7333 93.0044,22.432 92.9138,22.16 C92.8231,21.8827 92.6898,21.6453 92.5138,21.448 C92.3378,21.2453 92.1218,21.0907 91.8658,20.984 C91.6151,20.872 91.3271,20.816 91.0017,20.816 Z M64.218,45 L64.218,34.969 L67.417,34.969 C68.033,34.969 68.5627,35.0297 69.006,35.151 C69.454,35.2723 69.8203,35.445 70.105,35.669 C70.3943,35.893 70.6067,36.1683 70.742,36.495 C70.882,36.817 70.952,37.181 70.952,37.587 C70.952,37.8343 70.9123,38.0723 70.833,38.301 C70.7583,38.5297 70.6417,38.742 70.483,38.938 C70.329,39.134 70.133,39.309 69.895,39.463 C69.6617,39.617 69.3863,39.743 69.069,39.841 C69.8017,39.9857 70.3547,40.2493 70.728,40.632 C71.1013,41.0147 71.288,41.5187 71.288,42.144 C71.288,42.5687 71.2087,42.956 71.05,43.306 C70.896,43.656 70.6673,43.957 70.364,44.209 C70.0653,44.461 69.6967,44.657 69.258,44.797 C68.824,44.9323 68.327,45 67.767,45 L64.218,45 Z M65.576,40.429 L65.576,43.922 L67.746,43.922 C68.1333,43.922 68.4647,43.8777 68.74,43.789 C69.02,43.7003 69.2487,43.5767 69.426,43.418 C69.608,43.2547 69.741,43.0633 69.825,42.844 C69.909,42.62 69.951,42.375 69.951,42.109 C69.951,41.591 69.7667,41.1827 69.398,40.884 C69.034,40.5807 68.481,40.429 67.739,40.429 L65.576,40.429 Z M65.576,39.463 L67.368,39.463 C67.7507,39.463 68.082,39.421 68.362,39.337 C68.642,39.253 68.873,39.1363 69.055,38.987 C69.2417,38.8377 69.3793,38.658 69.468,38.448 C69.5567,38.2333 69.601,38 69.601,37.748 C69.601,37.16 69.4237,36.7283 69.069,36.453 C68.7143,36.1777 68.1637,36.04 67.417,36.04 L65.576,36.04 L65.576,39.463 Z M75.9565,37.797 C76.4745,37.797 76.9411,37.8833 77.3565,38.056 C77.7765,38.2287 78.1311,38.4737 78.4205,38.791 C78.7145,39.1083 78.9385,39.4933 79.0925,39.946 C79.2511,40.394 79.3305,40.8957 79.3305,41.451 C79.3305,42.011 79.2511,42.515 79.0925,42.963 C78.9385,43.411 78.7145,43.7937 78.4205,44.111 C78.1311,44.4283 77.7765,44.6733 77.3565,44.846 C76.9411,45.014 76.4745,45.098 75.9565,45.098 C75.4385,45.098 74.9695,45.014 74.5495,44.846 C74.1341,44.6733 73.7795,44.4283 73.4855,44.111 C73.1915,43.7937 72.9651,43.411 72.8065,42.963 C72.6478,42.515 72.5685,42.011 72.5685,41.451 C72.5685,40.8957 72.6478,40.394 72.8065,39.946 C72.9651,39.4933 73.1915,39.1083 73.4855,38.791 C73.7795,38.4737 74.1341,38.2287 74.5495,38.056 C74.9695,37.8833 75.4385,37.797 75.9565,37.797 Z M75.9565,44.125 C76.6565,44.125 77.1791,43.8917 77.5245,43.425 C77.8698,42.9537 78.0425,42.298 78.0425,41.458 C78.0425,40.6133 77.8698,39.9553 77.5245,39.484 C77.1791,39.0127 76.6565,38.777 75.9565,38.777 C75.6018,38.777 75.2938,38.8377 75.0325,38.959 C74.7711,39.0803 74.5518,39.2553 74.3745,39.484 C74.2018,39.7127 74.0711,39.995 73.9825,40.331 C73.8985,40.6623 73.8565,41.038 73.8565,41.458 C73.8565,41.878 73.8985,42.2537 73.9825,42.585 C74.0711,42.9163 74.2018,43.1963 74.3745,43.425 C74.5518,43.649 74.7711,43.8217 75.0325,43.943 C75.2938,44.0643 75.6018,44.125 75.9565,44.125 Z M85.8568,45 C85.6794,45 85.5674,44.9137 85.5208,44.741 L85.4088,43.88 C85.1054,44.2487 84.7578,44.545 84.3658,44.769 C83.9784,44.9883 83.5328,45.098 83.0288,45.098 C82.6228,45.098 82.2541,45.021 81.9228,44.867 C81.5914,44.7083 81.3091,44.4773 81.0758,44.174 C80.8424,43.8707 80.6628,43.4927 80.5368,43.04 C80.4108,42.5873 80.3478,42.067 80.3478,41.479 C80.3478,40.9563 80.4178,40.471 80.5578,40.023 C80.6978,39.5703 80.8984,39.1783 81.1598,38.847 C81.4258,38.5157 81.7478,38.2567 82.1258,38.07 C82.5038,37.8787 82.9331,37.783 83.4138,37.783 C83.8478,37.783 84.2188,37.8577 84.5268,38.007 C84.8348,38.1517 85.1101,38.357 85.3528,38.623 L85.3528,34.689 L86.5988,34.689 L86.5988,45 L85.8568,45 Z M83.4417,44.09 C83.8478,44.09 84.2024,43.9967 84.5058,43.81 C84.8138,43.6233 85.0961,43.3597 85.3528,43.019 L85.3528,39.589 C85.1241,39.281 84.8721,39.0663 84.5968,38.945 C84.3261,38.819 84.0251,38.756 83.6938,38.756 C83.0311,38.756 82.5224,38.9917 82.1678,39.463 C81.8131,39.9343 81.6358,40.6063 81.6358,41.479 C81.6358,41.941 81.6754,42.3377 81.7548,42.669 C81.8341,42.9957 81.9508,43.2663 82.1048,43.481 C82.2588,43.691 82.4478,43.845 82.6718,43.943 C82.8958,44.041 83.1524,44.09 83.4417,44.09 Z M90.7651,47.093 C90.7231,47.1863 90.6694,47.261 90.6041,47.317 C90.5434,47.373 90.4477,47.401 90.3171,47.401 L89.3931,47.401 L90.6881,44.587 L87.7621,37.909 L88.8401,37.909 C88.9474,37.909 89.0314,37.937 89.0921,37.993 C89.1527,38.0443 89.1971,38.1027 89.2251,38.168 L91.1221,42.634 C91.1641,42.7367 91.1991,42.8393 91.2271,42.942 C91.2597,43.0447 91.2877,43.1497 91.3111,43.257 C91.3437,43.1497 91.3764,43.0447 91.4091,42.942 C91.4417,42.8393 91.4791,42.7343 91.5211,42.627 L93.3621,38.168 C93.3901,38.0933 93.4367,38.0327 93.5021,37.986 C93.5721,37.9347 93.6467,37.909 93.7261,37.909 L94.7201,37.909 L90.7651,47.093 Z" id="Shape" fill="#FFFFFF" fill-rule="nonzero"></path>
            <path d="M32,46 C40.8366,46 48,38.8366 48,30 C48,21.1634 40.8366,14 32,14 C23.1634,14 16,21.1634 16,30 C16,38.8366 23.1634,46 32,46 Z" id="Path" fill="#EA4A3E" fill-rule="nonzero"></path>
            <path d="M32.0539,38.7262 C31.4613,38.7482 30.9146,38.4082 30.6723,37.8668 C30.4301,37.3254 30.5408,36.6911 30.9522,36.2638 C31.3636,35.8366 31.9932,35.7019 32.5433,35.9235 C33.0934,36.1451 33.4539,36.6786 33.4544,37.2717 C33.4671,38.0592 32.8414,38.7092 32.0539,38.7262 Z" id="Path" fill="#3F3F3F"></path>
            <path d="M33.4535,31.4609 C33.474,31.9715 33.2015,32.452 32.7434,32.7131 C32.2852,32.9742 31.7148,32.9742 31.2566,32.7131 C30.7985,32.452 30.526,31.9715 30.5465,31.4609 L30.5465,22.7206 C30.526,22.21 30.7985,21.7296 31.2566,21.4684 C31.7148,21.2073 32.2852,21.2073 32.7434,21.4684 C33.2015,21.7296 33.474,22.21 33.4535,22.7206 L33.4535,31.4609 Z" id="Path" fill="#3F3F3F"></path>
            <rect id="Rectangle" stroke="#FFFFFF" x="304" y="14" width="74" height="32" rx="16"></rect>
            <path d="M329.23,35 L328.03,35 C327.892,35 327.78,34.9653 327.694,34.896 C327.609,34.8267 327.545,34.7387 327.502,34.632 L326.43,31.864 L321.286,31.864 L320.214,34.632 C320.177,34.728 320.113,34.8133 320.022,34.888 C319.932,34.9627 319.82,35 319.686,35 L318.486,35 L323.07,23.536 L324.646,23.536 L329.23,35 Z M321.718,30.744 L325.998,30.744 L324.198,26.08 C324.081,25.792 323.966,25.432 323.854,25 C323.796,25.2187 323.737,25.4213 323.678,25.608 C323.625,25.7893 323.572,25.9493 323.518,26.088 L321.718,30.744 Z M335.977,28.336 C335.935,28.3947 335.892,28.44 335.849,28.472 C335.807,28.504 335.745,28.52 335.665,28.52 C335.585,28.52 335.497,28.488 335.401,28.424 C335.311,28.3547 335.193,28.28 335.049,28.2 C334.905,28.12 334.729,28.048 334.521,27.984 C334.319,27.9147 334.068,27.88 333.769,27.88 C333.375,27.88 333.025,27.952 332.721,28.096 C332.417,28.2347 332.161,28.4373 331.953,28.704 C331.751,28.9707 331.596,29.2933 331.489,29.672 C331.388,30.0507 331.337,30.4747 331.337,30.944 C331.337,31.4347 331.393,31.872 331.505,32.256 C331.617,32.6347 331.775,32.9547 331.977,33.216 C332.18,33.472 332.425,33.6693 332.713,33.808 C333.007,33.9413 333.335,34.008 333.697,34.008 C334.044,34.008 334.329,33.968 334.553,33.888 C334.777,33.8027 334.964,33.7093 335.113,33.608 C335.263,33.5067 335.385,33.416 335.481,33.336 C335.577,33.2507 335.673,33.208 335.769,33.208 C335.892,33.208 335.983,33.2533 336.041,33.344 L336.441,33.864 C336.089,34.296 335.649,34.6133 335.121,34.816 C334.593,35.0133 334.036,35.112 333.449,35.112 C332.943,35.112 332.471,35.0187 332.033,34.832 C331.601,34.6453 331.225,34.376 330.905,34.024 C330.585,33.6667 330.332,33.2293 330.145,32.712 C329.964,32.1947 329.873,31.6053 329.873,30.944 C329.873,30.3413 329.956,29.784 330.121,29.272 C330.292,28.76 330.537,28.32 330.857,27.952 C331.183,27.5787 331.583,27.288 332.057,27.08 C332.532,26.872 333.076,26.768 333.689,26.768 C334.255,26.768 334.756,26.8613 335.193,27.048 C335.631,27.2293 336.017,27.488 336.353,27.824 L335.977,28.336 Z M340.374,35.128 C339.734,35.128 339.241,34.9493 338.894,34.592 C338.553,34.2347 338.382,33.72 338.382,33.048 L338.382,28.088 L337.406,28.088 C337.321,28.088 337.249,28.064 337.19,28.016 C337.131,27.9627 337.102,27.8827 337.102,27.776 L337.102,27.208 L338.43,27.04 L338.758,24.536 C338.769,24.456 338.803,24.392 338.862,24.344 C338.921,24.2907 338.995,24.264 339.086,24.264 L339.806,24.264 L339.806,27.056 L342.126,27.056 L342.126,28.088 L339.806,28.088 L339.806,32.952 C339.806,33.2933 339.889,33.5467 340.054,33.712 C340.219,33.8773 340.433,33.96 340.694,33.96 C340.843,33.96 340.971,33.9413 341.078,33.904 C341.19,33.8613 341.286,33.816 341.366,33.768 C341.446,33.72 341.513,33.6773 341.566,33.64 C341.625,33.5973 341.675,33.576 341.718,33.576 C341.793,33.576 341.859,33.6213 341.918,33.712 L342.334,34.392 C342.089,34.6213 341.793,34.8027 341.446,34.936 C341.099,35.064 340.742,35.128 340.374,35.128 Z M345.471,26.896 L345.471,35 L344.047,35 L344.047,26.896 L345.471,26.896 Z M345.791,24.352 C345.791,24.4907 345.761,24.6213 345.703,24.744 C345.649,24.8613 345.575,24.968 345.479,25.064 C345.388,25.1547 345.281,25.2267 345.159,25.28 C345.036,25.3333 344.905,25.36 344.767,25.36 C344.628,25.36 344.497,25.3333 344.375,25.28 C344.257,25.2267 344.151,25.1547 344.055,25.064 C343.964,24.968 343.892,24.8613 343.839,24.744 C343.785,24.6213 343.759,24.4907 343.759,24.352 C343.759,24.2133 343.785,24.0827 343.839,23.96 C343.892,23.832 343.964,23.7227 344.055,23.632 C344.151,23.536 344.257,23.4613 344.375,23.408 C344.497,23.3547 344.628,23.328 344.767,23.328 C344.905,23.328 345.036,23.3547 345.159,23.408 C345.281,23.4613 345.388,23.536 345.479,23.632 C345.575,23.7227 345.649,23.832 345.703,23.96 C345.761,24.0827 345.791,24.2133 345.791,24.352 Z M351.261,26.768 C351.853,26.768 352.386,26.8667 352.861,27.064 C353.341,27.2613 353.746,27.5413 354.077,27.904 C354.413,28.2667 354.669,28.7067 354.845,29.224 C355.026,29.736 355.117,30.3093 355.117,30.944 C355.117,31.584 355.026,32.16 354.845,32.672 C354.669,33.184 354.413,33.6213 354.077,33.984 C353.746,34.3467 353.341,34.6267 352.861,34.824 C352.386,35.016 351.853,35.112 351.261,35.112 C350.669,35.112 350.133,35.016 349.653,34.824 C349.178,34.6267 348.773,34.3467 348.437,33.984 C348.101,33.6213 347.842,33.184 347.661,32.672 C347.479,32.16 347.389,31.584 347.389,30.944 C347.389,30.3093 347.479,29.736 347.661,29.224 C347.842,28.7067 348.101,28.2667 348.437,27.904 C348.773,27.5413 349.178,27.2613 349.653,27.064 C350.133,26.8667 350.669,26.768 351.261,26.768 Z M351.261,34 C352.061,34 352.658,33.7333 353.053,33.2 C353.447,32.6613 353.645,31.912 353.645,30.952 C353.645,29.9867 353.447,29.2347 353.053,28.696 C352.658,28.1573 352.061,27.888 351.261,27.888 C350.855,27.888 350.503,27.9573 350.205,28.096 C349.906,28.2347 349.655,28.4347 349.453,28.696 C349.255,28.9573 349.106,29.28 349.005,29.664 C348.909,30.0427 348.861,30.472 348.861,30.952 C348.861,31.432 348.909,31.8613 349.005,32.24 C349.106,32.6187 349.255,32.9387 349.453,33.2 C349.655,33.456 349.906,33.6533 350.205,33.792 C350.503,33.9307 350.855,34 351.261,34 Z M356.871,35 L356.871,26.896 L357.719,26.896 C357.922,26.896 358.05,26.9947 358.103,27.192 L358.215,28.072 C358.567,27.6827 358.959,27.368 359.391,27.128 C359.828,26.888 360.332,26.768 360.903,26.768 C361.346,26.768 361.735,26.8427 362.071,26.992 C362.412,27.136 362.695,27.344 362.919,27.616 C363.148,27.8827 363.322,28.2053 363.439,28.584 C363.556,28.9627 363.615,29.3813 363.615,29.84 L363.615,35 L362.191,35 L362.191,29.84 C362.191,29.2267 362.05,28.752 361.767,28.416 C361.49,28.0747 361.063,27.904 360.487,27.904 C360.066,27.904 359.671,28.0053 359.303,28.208 C358.94,28.4107 358.604,28.6853 358.295,29.032 L358.295,35 L356.871,35 Z" id="Shape" fill="#FFFFFF" fill-rule="nonzero"></path>
        </g>
    </g>
</svg>