<svg width="390" height="60" viewBox="0 0 390 60" fill="none" xmlns="http://www.w3.org/2000/svg">
<rect width="390" height="60" rx="30" fill="#3F3F3F"/>
<path d="M72.2 15.536V16.84H68.496V27H66.944V16.84H63.224V15.536H72.2ZM73.6055 27V15.216H75.0295V19.984C75.3762 19.616 75.7602 19.3227 76.1815 19.104C76.6028 18.88 77.0882 18.768 77.6375 18.768C78.0802 18.768 78.4695 18.8427 78.8055 18.992C79.1468 19.136 79.4295 19.344 79.6535 19.616C79.8828 19.8827 80.0562 20.2053 80.1735 20.584C80.2908 20.9627 80.3495 21.3813 80.3495 21.84V27H78.9255V21.84C78.9255 21.2267 78.7842 20.752 78.5015 20.416C78.2242 20.0747 77.7975 19.904 77.2215 19.904C76.8002 19.904 76.4055 20.0053 76.0375 20.208C75.6748 20.4107 75.3388 20.6853 75.0295 21.032V27H73.6055ZM84.0801 18.896V27H82.6561V18.896H84.0801ZM84.4001 16.352C84.4001 16.4907 84.3708 16.6213 84.3121 16.744C84.2588 16.8613 84.1841 16.968 84.0881 17.064C83.9975 17.1547 83.8908 17.2267 83.7681 17.28C83.6455 17.3333 83.5148 17.36 83.3761 17.36C83.2375 17.36 83.1068 17.3333 82.9841 17.28C82.8668 17.2267 82.7601 17.1547 82.6641 17.064C82.5735 16.968 82.5015 16.8613 82.4481 16.744C82.3948 16.6213 82.3681 16.4907 82.3681 16.352C82.3681 16.2133 82.3948 16.0827 82.4481 15.96C82.5015 15.832 82.5735 15.7227 82.6641 15.632C82.7601 15.536 82.8668 15.4613 82.9841 15.408C83.1068 15.3547 83.2375 15.328 83.3761 15.328C83.5148 15.328 83.6455 15.3547 83.7681 15.408C83.8908 15.4613 83.9975 15.536 84.0881 15.632C84.1841 15.7227 84.2588 15.832 84.3121 15.96C84.3708 16.0827 84.4001 16.2133 84.4001 16.352ZM91.2299 20.232C91.1659 20.3493 91.0672 20.408 90.9339 20.408C90.8539 20.408 90.7632 20.3787 90.6619 20.32C90.5605 20.2613 90.4352 20.1973 90.2859 20.128C90.1419 20.0533 89.9685 19.9867 89.7659 19.928C89.5632 19.864 89.3232 19.832 89.0459 19.832C88.8059 19.832 88.5899 19.864 88.3979 19.928C88.2059 19.9867 88.0405 20.0693 87.9019 20.176C87.7685 20.2827 87.6645 20.408 87.5899 20.552C87.5205 20.6907 87.4859 20.8427 87.4859 21.008C87.4859 21.216 87.5445 21.3893 87.6619 21.528C87.7845 21.6667 87.9445 21.7867 88.1419 21.888C88.3392 21.9893 88.5632 22.08 88.8139 22.16C89.0645 22.2347 89.3205 22.3173 89.5819 22.408C89.8485 22.4933 90.1072 22.5893 90.3579 22.696C90.6085 22.8027 90.8325 22.936 91.0299 23.096C91.2272 23.256 91.3845 23.4533 91.5019 23.688C91.6245 23.9173 91.6859 24.1947 91.6859 24.52C91.6859 24.8933 91.6192 25.24 91.4859 25.56C91.3525 25.8747 91.1552 26.1493 90.8939 26.384C90.6325 26.6133 90.3125 26.7947 89.9339 26.928C89.5552 27.0613 89.1179 27.128 88.6219 27.128C88.0565 27.128 87.5445 27.0373 87.0859 26.856C86.6272 26.6693 86.2379 26.432 85.9179 26.144L86.2539 25.6C86.2965 25.5307 86.3472 25.4773 86.4059 25.44C86.4645 25.4027 86.5419 25.384 86.6379 25.384C86.7339 25.384 86.8352 25.4213 86.9419 25.496C87.0485 25.5707 87.1765 25.6533 87.3259 25.744C87.4805 25.8347 87.6645 25.9173 87.8779 25.992C88.0965 26.0667 88.3685 26.104 88.6939 26.104C88.9712 26.104 89.2139 26.0693 89.4219 26C89.6299 25.9253 89.8032 25.8267 89.9419 25.704C90.0805 25.5813 90.1819 25.44 90.2459 25.28C90.3152 25.12 90.3499 24.9493 90.3499 24.768C90.3499 24.544 90.2885 24.36 90.1659 24.216C90.0485 24.0667 89.8912 23.9413 89.6939 23.84C89.4965 23.7333 89.2699 23.6427 89.0139 23.568C88.7632 23.488 88.5045 23.4053 88.2379 23.32C87.9765 23.2347 87.7179 23.1387 87.4619 23.032C87.2112 22.92 86.9872 22.7813 86.7899 22.616C86.5925 22.4507 86.4325 22.248 86.3099 22.008C86.1925 21.7627 86.1339 21.4667 86.1339 21.12C86.1339 20.8107 86.1979 20.5147 86.3259 20.232C86.4539 19.944 86.6405 19.6933 86.8859 19.48C87.1312 19.2613 87.4325 19.088 87.7899 18.96C88.1472 18.832 88.5552 18.768 89.0139 18.768C89.5472 18.768 90.0245 18.8533 90.4459 19.024C90.8725 19.1893 91.2405 19.4187 91.5499 19.712L91.2299 20.232ZM98.2051 18.896V27H96.7811V18.896H98.2051ZM98.5251 16.352C98.5251 16.4907 98.4958 16.6213 98.4371 16.744C98.3838 16.8613 98.3091 16.968 98.2131 17.064C98.1225 17.1547 98.0158 17.2267 97.8931 17.28C97.7705 17.3333 97.6398 17.36 97.5011 17.36C97.3625 17.36 97.2318 17.3333 97.1091 17.28C96.9918 17.2267 96.8851 17.1547 96.7891 17.064C96.6985 16.968 96.6265 16.8613 96.5731 16.744C96.5198 16.6213 96.4931 16.4907 96.4931 16.352C96.4931 16.2133 96.5198 16.0827 96.5731 15.96C96.6265 15.832 96.6985 15.7227 96.7891 15.632C96.8851 15.536 96.9918 15.4613 97.1091 15.408C97.2318 15.3547 97.3625 15.328 97.5011 15.328C97.6398 15.328 97.7705 15.3547 97.8931 15.408C98.0158 15.4613 98.1225 15.536 98.2131 15.632C98.3091 15.7227 98.3838 15.832 98.4371 15.96C98.4958 16.0827 98.5251 16.2133 98.5251 16.352ZM105.355 20.232C105.291 20.3493 105.192 20.408 105.059 20.408C104.979 20.408 104.888 20.3787 104.787 20.32C104.686 20.2613 104.56 20.1973 104.411 20.128C104.267 20.0533 104.094 19.9867 103.891 19.928C103.688 19.864 103.448 19.832 103.171 19.832C102.931 19.832 102.715 19.864 102.523 19.928C102.331 19.9867 102.166 20.0693 102.027 20.176C101.894 20.2827 101.79 20.408 101.715 20.552C101.646 20.6907 101.611 20.8427 101.611 21.008C101.611 21.216 101.67 21.3893 101.787 21.528C101.91 21.6667 102.07 21.7867 102.267 21.888C102.464 21.9893 102.688 22.08 102.939 22.16C103.19 22.2347 103.446 22.3173 103.707 22.408C103.974 22.4933 104.232 22.5893 104.483 22.696C104.734 22.8027 104.958 22.936 105.155 23.096C105.352 23.256 105.51 23.4533 105.627 23.688C105.75 23.9173 105.811 24.1947 105.811 24.52C105.811 24.8933 105.744 25.24 105.611 25.56C105.478 25.8747 105.28 26.1493 105.019 26.384C104.758 26.6133 104.438 26.7947 104.059 26.928C103.68 27.0613 103.243 27.128 102.747 27.128C102.182 27.128 101.67 27.0373 101.211 26.856C100.752 26.6693 100.363 26.432 100.043 26.144L100.379 25.6C100.422 25.5307 100.472 25.4773 100.531 25.44C100.59 25.4027 100.667 25.384 100.763 25.384C100.859 25.384 100.96 25.4213 101.067 25.496C101.174 25.5707 101.302 25.6533 101.451 25.744C101.606 25.8347 101.79 25.9173 102.003 25.992C102.222 26.0667 102.494 26.104 102.819 26.104C103.096 26.104 103.339 26.0693 103.547 26C103.755 25.9253 103.928 25.8267 104.067 25.704C104.206 25.5813 104.307 25.44 104.371 25.28C104.44 25.12 104.475 24.9493 104.475 24.768C104.475 24.544 104.414 24.36 104.291 24.216C104.174 24.0667 104.016 23.9413 103.819 23.84C103.622 23.7333 103.395 23.6427 103.139 23.568C102.888 23.488 102.63 23.4053 102.363 23.32C102.102 23.2347 101.843 23.1387 101.587 23.032C101.336 22.92 101.112 22.7813 100.915 22.616C100.718 22.4507 100.558 22.248 100.435 22.008C100.318 21.7627 100.259 21.4667 100.259 21.12C100.259 20.8107 100.323 20.5147 100.451 20.232C100.579 19.944 100.766 19.6933 101.011 19.48C101.256 19.2613 101.558 19.088 101.915 18.96C102.272 18.832 102.68 18.768 103.139 18.768C103.672 18.768 104.15 18.8533 104.571 19.024C104.998 19.1893 105.366 19.4187 105.675 19.712L105.355 20.232ZM116.698 27H116.066C115.927 27 115.815 26.9787 115.73 26.936C115.645 26.8933 115.589 26.8027 115.562 26.664L115.402 25.912C115.189 26.104 114.981 26.2773 114.778 26.432C114.575 26.5813 114.362 26.7093 114.138 26.816C113.914 26.9173 113.674 26.9947 113.418 27.048C113.167 27.1013 112.887 27.128 112.578 27.128C112.263 27.128 111.967 27.0853 111.69 27C111.418 26.9093 111.181 26.776 110.978 26.6C110.775 26.424 110.613 26.2027 110.49 25.936C110.373 25.664 110.314 25.344 110.314 24.976C110.314 24.656 110.402 24.3493 110.578 24.056C110.754 23.7573 111.037 23.4933 111.426 23.264C111.821 23.0347 112.335 22.848 112.97 22.704C113.605 22.5547 114.381 22.4693 115.298 22.448V21.816C115.298 21.1867 115.162 20.712 114.89 20.392C114.623 20.0667 114.226 19.904 113.698 19.904C113.351 19.904 113.058 19.9493 112.818 20.04C112.583 20.1253 112.378 20.224 112.202 20.336C112.031 20.4427 111.882 20.5413 111.754 20.632C111.631 20.7173 111.509 20.76 111.386 20.76C111.29 20.76 111.205 20.736 111.13 20.688C111.061 20.6347 111.005 20.5707 110.962 20.496L110.706 20.04C111.154 19.608 111.637 19.2853 112.154 19.072C112.671 18.8587 113.245 18.752 113.874 18.752C114.327 18.752 114.73 18.8267 115.082 18.976C115.434 19.1253 115.73 19.3333 115.97 19.6C116.21 19.8667 116.391 20.1893 116.514 20.568C116.637 20.9467 116.698 21.3627 116.698 21.816V27ZM113.002 26.128C113.253 26.128 113.482 26.104 113.69 26.056C113.898 26.0027 114.093 25.9307 114.274 25.84C114.461 25.744 114.637 25.6293 114.802 25.496C114.973 25.3627 115.138 25.2107 115.298 25.04V23.352C114.642 23.3733 114.085 23.4267 113.626 23.512C113.167 23.592 112.794 23.6987 112.506 23.832C112.218 23.9653 112.007 24.1227 111.874 24.304C111.746 24.4853 111.682 24.688 111.682 24.912C111.682 25.1253 111.717 25.3093 111.786 25.464C111.855 25.6187 111.949 25.7467 112.066 25.848C112.183 25.944 112.322 26.016 112.482 26.064C112.642 26.1067 112.815 26.128 113.002 26.128ZM118.856 27V18.896H119.704C119.906 18.896 120.034 18.9947 120.088 19.192L120.2 20.072C120.552 19.6827 120.944 19.368 121.376 19.128C121.813 18.888 122.317 18.768 122.888 18.768C123.33 18.768 123.72 18.8427 124.056 18.992C124.397 19.136 124.68 19.344 124.904 19.616C125.133 19.8827 125.306 20.2053 125.424 20.584C125.541 20.9627 125.6 21.3813 125.6 21.84V27H124.176V21.84C124.176 21.2267 124.034 20.752 123.752 20.416C123.474 20.0747 123.048 19.904 122.472 19.904C122.05 19.904 121.656 20.0053 121.288 20.208C120.925 20.4107 120.589 20.6853 120.28 21.032V27H118.856ZM134.048 18.768C134.533 18.768 134.981 18.8507 135.392 19.016C135.803 19.176 136.157 19.4107 136.456 19.72C136.755 20.024 136.987 20.4027 137.152 20.856C137.323 21.304 137.408 21.816 137.408 22.392C137.408 22.616 137.384 22.7653 137.336 22.84C137.288 22.9147 137.197 22.952 137.064 22.952H131.672C131.683 23.464 131.752 23.9093 131.88 24.288C132.008 24.6667 132.184 24.984 132.408 25.24C132.632 25.4907 132.899 25.68 133.208 25.808C133.517 25.9307 133.864 25.992 134.248 25.992C134.605 25.992 134.912 25.952 135.168 25.872C135.429 25.7867 135.653 25.696 135.84 25.6C136.027 25.504 136.181 25.416 136.304 25.336C136.432 25.2507 136.541 25.208 136.632 25.208C136.749 25.208 136.84 25.2533 136.904 25.344L137.304 25.864C137.128 26.0773 136.917 26.264 136.672 26.424C136.427 26.5787 136.163 26.7067 135.88 26.808C135.603 26.9093 135.315 26.984 135.016 27.032C134.717 27.0853 134.421 27.112 134.128 27.112C133.568 27.112 133.051 27.0187 132.576 26.832C132.107 26.64 131.699 26.3627 131.352 26C131.011 25.632 130.744 25.1787 130.552 24.64C130.36 24.1013 130.264 23.4827 130.264 22.784C130.264 22.2187 130.349 21.6907 130.52 21.2C130.696 20.7093 130.947 20.2853 131.272 19.928C131.597 19.5653 131.995 19.2827 132.464 19.08C132.933 18.872 133.461 18.768 134.048 18.768ZM134.08 19.816C133.392 19.816 132.851 20.016 132.456 20.416C132.061 20.8107 131.816 21.36 131.72 22.064H136.128C136.128 21.7333 136.083 21.432 135.992 21.16C135.901 20.8827 135.768 20.6453 135.592 20.448C135.416 20.2453 135.2 20.0907 134.944 19.984C134.693 19.872 134.405 19.816 134.08 19.816ZM139.231 27V18.896H140.047C140.201 18.896 140.308 18.9253 140.367 18.984C140.425 19.0427 140.465 19.144 140.487 19.288L140.583 20.552C140.86 19.9867 141.201 19.5467 141.607 19.232C142.017 18.912 142.497 18.752 143.047 18.752C143.271 18.752 143.473 18.7787 143.655 18.832C143.836 18.88 144.004 18.9493 144.159 19.04L143.975 20.104C143.937 20.2373 143.855 20.304 143.727 20.304C143.652 20.304 143.537 20.28 143.383 20.232C143.228 20.1787 143.012 20.152 142.735 20.152C142.239 20.152 141.823 20.296 141.487 20.584C141.156 20.872 140.879 21.2907 140.655 21.84V27H139.231ZM145.684 27V18.896H146.5C146.654 18.896 146.761 18.9253 146.82 18.984C146.878 19.0427 146.918 19.144 146.94 19.288L147.036 20.552C147.313 19.9867 147.654 19.5467 148.06 19.232C148.47 18.912 148.95 18.752 149.5 18.752C149.724 18.752 149.926 18.7787 150.108 18.832C150.289 18.88 150.457 18.9493 150.612 19.04L150.428 20.104C150.39 20.2373 150.308 20.304 150.18 20.304C150.105 20.304 149.99 20.28 149.836 20.232C149.681 20.1787 149.465 20.152 149.188 20.152C148.692 20.152 148.276 20.296 147.94 20.584C147.609 20.872 147.332 21.2907 147.108 21.84V27H145.684ZM155.417 18.768C156.009 18.768 156.542 18.8667 157.017 19.064C157.497 19.2613 157.902 19.5413 158.233 19.904C158.569 20.2667 158.825 20.7067 159.001 21.224C159.182 21.736 159.273 22.3093 159.273 22.944C159.273 23.584 159.182 24.16 159.001 24.672C158.825 25.184 158.569 25.6213 158.233 25.984C157.902 26.3467 157.497 26.6267 157.017 26.824C156.542 27.016 156.009 27.112 155.417 27.112C154.825 27.112 154.289 27.016 153.809 26.824C153.334 26.6267 152.929 26.3467 152.593 25.984C152.257 25.6213 151.998 25.184 151.817 24.672C151.635 24.16 151.545 23.584 151.545 22.944C151.545 22.3093 151.635 21.736 151.817 21.224C151.998 20.7067 152.257 20.2667 152.593 19.904C152.929 19.5413 153.334 19.2613 153.809 19.064C154.289 18.8667 154.825 18.768 155.417 18.768ZM155.417 26C156.217 26 156.814 25.7333 157.209 25.2C157.603 24.6613 157.801 23.912 157.801 22.952C157.801 21.9867 157.603 21.2347 157.209 20.696C156.814 20.1573 156.217 19.888 155.417 19.888C155.011 19.888 154.659 19.9573 154.361 20.096C154.062 20.2347 153.811 20.4347 153.609 20.696C153.411 20.9573 153.262 21.28 153.161 21.664C153.065 22.0427 153.017 22.472 153.017 22.952C153.017 23.432 153.065 23.8613 153.161 24.24C153.262 24.6187 153.411 24.9387 153.609 25.2C153.811 25.456 154.062 25.6533 154.361 25.792C154.659 25.9307 155.011 26 155.417 26ZM161.027 27V18.896H161.843C161.998 18.896 162.105 18.9253 162.163 18.984C162.222 19.0427 162.262 19.144 162.283 19.288L162.379 20.552C162.657 19.9867 162.998 19.5467 163.403 19.232C163.814 18.912 164.294 18.752 164.843 18.752C165.067 18.752 165.27 18.7787 165.451 18.832C165.633 18.88 165.801 18.9493 165.955 19.04L165.771 20.104C165.734 20.2373 165.651 20.304 165.523 20.304C165.449 20.304 165.334 20.28 165.179 20.232C165.025 20.1787 164.809 20.152 164.531 20.152C164.035 20.152 163.619 20.296 163.283 20.584C162.953 20.872 162.675 21.2907 162.451 21.84V27H161.027ZM173.03 27.128C172.39 27.128 171.897 26.9493 171.55 26.592C171.209 26.2347 171.038 25.72 171.038 25.048V20.088H170.062C169.977 20.088 169.905 20.064 169.846 20.016C169.788 19.9627 169.758 19.8827 169.758 19.776V19.208L171.086 19.04L171.414 16.536C171.425 16.456 171.46 16.392 171.518 16.344C171.577 16.2907 171.652 16.264 171.742 16.264H172.462V19.056H174.782V20.088H172.462V24.952C172.462 25.2933 172.545 25.5467 172.71 25.712C172.876 25.8773 173.089 25.96 173.35 25.96C173.5 25.96 173.628 25.9413 173.734 25.904C173.846 25.8613 173.942 25.816 174.022 25.768C174.102 25.72 174.169 25.6773 174.222 25.64C174.281 25.5973 174.332 25.576 174.374 25.576C174.449 25.576 174.516 25.6213 174.574 25.712L174.99 26.392C174.745 26.6213 174.449 26.8027 174.102 26.936C173.756 27.064 173.398 27.128 173.03 27.128ZM179.823 18.768C180.415 18.768 180.948 18.8667 181.423 19.064C181.903 19.2613 182.308 19.5413 182.639 19.904C182.975 20.2667 183.231 20.7067 183.407 21.224C183.588 21.736 183.679 22.3093 183.679 22.944C183.679 23.584 183.588 24.16 183.407 24.672C183.231 25.184 182.975 25.6213 182.639 25.984C182.308 26.3467 181.903 26.6267 181.423 26.824C180.948 27.016 180.415 27.112 179.823 27.112C179.231 27.112 178.695 27.016 178.215 26.824C177.74 26.6267 177.335 26.3467 176.999 25.984C176.663 25.6213 176.404 25.184 176.223 24.672C176.042 24.16 175.951 23.584 175.951 22.944C175.951 22.3093 176.042 21.736 176.223 21.224C176.404 20.7067 176.663 20.2667 176.999 19.904C177.335 19.5413 177.74 19.2613 178.215 19.064C178.695 18.8667 179.231 18.768 179.823 18.768ZM179.823 26C180.623 26 181.22 25.7333 181.615 25.2C182.01 24.6613 182.207 23.912 182.207 22.952C182.207 21.9867 182.01 21.2347 181.615 20.696C181.22 20.1573 180.623 19.888 179.823 19.888C179.418 19.888 179.066 19.9573 178.767 20.096C178.468 20.2347 178.218 20.4347 178.015 20.696C177.818 20.9573 177.668 21.28 177.567 21.664C177.471 22.0427 177.423 22.472 177.423 22.952C177.423 23.432 177.471 23.8613 177.567 24.24C177.668 24.6187 177.818 24.9387 178.015 25.2C178.218 25.456 178.468 25.6533 178.767 25.792C179.066 25.9307 179.418 26 179.823 26ZM191.386 27H190.754C190.615 27 190.503 26.9787 190.418 26.936C190.332 26.8933 190.276 26.8027 190.25 26.664L190.09 25.912C189.876 26.104 189.668 26.2773 189.466 26.432C189.263 26.5813 189.05 26.7093 188.826 26.816C188.602 26.9173 188.362 26.9947 188.106 27.048C187.855 27.1013 187.575 27.128 187.266 27.128C186.951 27.128 186.655 27.0853 186.378 27C186.106 26.9093 185.868 26.776 185.666 26.6C185.463 26.424 185.3 26.2027 185.178 25.936C185.06 25.664 185.002 25.344 185.002 24.976C185.002 24.656 185.09 24.3493 185.266 24.056C185.442 23.7573 185.724 23.4933 186.114 23.264C186.508 23.0347 187.023 22.848 187.658 22.704C188.292 22.5547 189.068 22.4693 189.986 22.448V21.816C189.986 21.1867 189.85 20.712 189.578 20.392C189.311 20.0667 188.914 19.904 188.386 19.904C188.039 19.904 187.746 19.9493 187.506 20.04C187.271 20.1253 187.066 20.224 186.89 20.336C186.719 20.4427 186.57 20.5413 186.442 20.632C186.319 20.7173 186.196 20.76 186.074 20.76C185.978 20.76 185.892 20.736 185.818 20.688C185.748 20.6347 185.692 20.5707 185.65 20.496L185.394 20.04C185.842 19.608 186.324 19.2853 186.842 19.072C187.359 18.8587 187.932 18.752 188.562 18.752C189.015 18.752 189.418 18.8267 189.77 18.976C190.122 19.1253 190.418 19.3333 190.658 19.6C190.898 19.8667 191.079 20.1893 191.202 20.568C191.324 20.9467 191.386 21.3627 191.386 21.816V27ZM187.69 26.128C187.94 26.128 188.17 26.104 188.378 26.056C188.586 26.0027 188.78 25.9307 188.962 25.84C189.148 25.744 189.324 25.6293 189.49 25.496C189.66 25.3627 189.826 25.2107 189.986 25.04V23.352C189.33 23.3733 188.772 23.4267 188.314 23.512C187.855 23.592 187.482 23.6987 187.194 23.832C186.906 23.9653 186.695 24.1227 186.562 24.304C186.434 24.4853 186.37 24.688 186.37 24.912C186.37 25.1253 186.404 25.3093 186.474 25.464C186.543 25.6187 186.636 25.7467 186.754 25.848C186.871 25.944 187.01 26.016 187.17 26.064C187.33 26.1067 187.503 26.128 187.69 26.128ZM198.183 20.232C198.119 20.3493 198.02 20.408 197.887 20.408C197.807 20.408 197.716 20.3787 197.615 20.32C197.514 20.2613 197.388 20.1973 197.239 20.128C197.095 20.0533 196.922 19.9867 196.719 19.928C196.516 19.864 196.276 19.832 195.999 19.832C195.759 19.832 195.543 19.864 195.351 19.928C195.159 19.9867 194.994 20.0693 194.855 20.176C194.722 20.2827 194.618 20.408 194.543 20.552C194.474 20.6907 194.439 20.8427 194.439 21.008C194.439 21.216 194.498 21.3893 194.615 21.528C194.738 21.6667 194.898 21.7867 195.095 21.888C195.292 21.9893 195.516 22.08 195.767 22.16C196.018 22.2347 196.274 22.3173 196.535 22.408C196.802 22.4933 197.06 22.5893 197.311 22.696C197.562 22.8027 197.786 22.936 197.983 23.096C198.18 23.256 198.338 23.4533 198.455 23.688C198.578 23.9173 198.639 24.1947 198.639 24.52C198.639 24.8933 198.572 25.24 198.439 25.56C198.306 25.8747 198.108 26.1493 197.847 26.384C197.586 26.6133 197.266 26.7947 196.887 26.928C196.508 27.0613 196.071 27.128 195.575 27.128C195.01 27.128 194.498 27.0373 194.039 26.856C193.58 26.6693 193.191 26.432 192.871 26.144L193.207 25.6C193.25 25.5307 193.3 25.4773 193.359 25.44C193.418 25.4027 193.495 25.384 193.591 25.384C193.687 25.384 193.788 25.4213 193.895 25.496C194.002 25.5707 194.13 25.6533 194.279 25.744C194.434 25.8347 194.618 25.9173 194.831 25.992C195.05 26.0667 195.322 26.104 195.647 26.104C195.924 26.104 196.167 26.0693 196.375 26C196.583 25.9253 196.756 25.8267 196.895 25.704C197.034 25.5813 197.135 25.44 197.199 25.28C197.268 25.12 197.303 24.9493 197.303 24.768C197.303 24.544 197.242 24.36 197.119 24.216C197.002 24.0667 196.844 23.9413 196.647 23.84C196.45 23.7333 196.223 23.6427 195.967 23.568C195.716 23.488 195.458 23.4053 195.191 23.32C194.93 23.2347 194.671 23.1387 194.415 23.032C194.164 22.92 193.94 22.7813 193.743 22.616C193.546 22.4507 193.386 22.248 193.263 22.008C193.146 21.7627 193.087 21.4667 193.087 21.12C193.087 20.8107 193.151 20.5147 193.279 20.232C193.407 19.944 193.594 19.6933 193.839 19.48C194.084 19.2613 194.386 19.088 194.743 18.96C195.1 18.832 195.508 18.768 195.967 18.768C196.5 18.768 196.978 18.8533 197.399 19.024C197.826 19.1893 198.194 19.4187 198.503 19.712L198.183 20.232ZM202.937 27.128C202.297 27.128 201.803 26.9493 201.457 26.592C201.115 26.2347 200.945 25.72 200.945 25.048V20.088H199.969C199.883 20.088 199.811 20.064 199.753 20.016C199.694 19.9627 199.665 19.8827 199.665 19.776V19.208L200.993 19.04L201.321 16.536C201.331 16.456 201.366 16.392 201.424 16.344C201.483 16.2907 201.558 16.264 201.649 16.264H202.369V19.056H204.689V20.088H202.369V24.952C202.369 25.2933 202.451 25.5467 202.617 25.712C202.782 25.8773 202.995 25.96 203.257 25.96C203.406 25.96 203.534 25.9413 203.641 25.904C203.753 25.8613 203.849 25.816 203.929 25.768C204.009 25.72 204.075 25.6773 204.129 25.64C204.187 25.5973 204.238 25.576 204.281 25.576C204.355 25.576 204.422 25.6213 204.481 25.712L204.897 26.392C204.651 26.6213 204.355 26.8027 204.009 26.936C203.662 27.064 203.305 27.128 202.937 27.128ZM205.985 26.12C205.985 25.9813 206.009 25.8507 206.057 25.728C206.111 25.6053 206.18 25.4987 206.265 25.408C206.356 25.3173 206.463 25.2453 206.585 25.192C206.708 25.1387 206.839 25.112 206.977 25.112C207.116 25.112 207.247 25.1387 207.369 25.192C207.492 25.2453 207.599 25.3173 207.689 25.408C207.78 25.4987 207.849 25.6053 207.897 25.728C207.951 25.8507 207.977 25.9813 207.977 26.12C207.977 26.264 207.951 26.3973 207.897 26.52C207.849 26.6373 207.78 26.7413 207.689 26.832C207.599 26.9227 207.492 26.992 207.369 27.04C207.247 27.0933 207.116 27.12 206.977 27.12C206.839 27.12 206.708 27.0933 206.585 27.04C206.463 26.992 206.356 26.9227 206.265 26.832C206.18 26.7413 206.111 26.6373 206.057 26.52C206.009 26.3973 205.985 26.264 205.985 26.12ZM70.032 41.856C70.1067 41.984 70.1707 42.12 70.224 42.264C70.2827 42.4027 70.3387 42.544 70.392 42.688C70.4453 42.5387 70.5013 42.3973 70.56 42.264C70.6187 42.1253 70.6853 41.9867 70.76 41.848L74.64 34.8C74.7093 34.6773 74.7813 34.6027 74.856 34.576C74.9307 34.5493 75.0373 34.536 75.176 34.536H76.32V46H74.96V37.576C74.96 37.464 74.9627 37.344 74.968 37.216C74.9733 37.088 74.9813 36.9573 74.992 36.824L71.064 43.992C70.9307 44.232 70.744 44.352 70.504 44.352H70.28C70.04 44.352 69.8533 44.232 69.72 43.992L65.704 36.8C65.72 36.9387 65.7307 37.0747 65.736 37.208C65.7467 37.3413 65.752 37.464 65.752 37.576V46H64.392V34.536H65.536C65.6747 34.536 65.7813 34.5493 65.856 34.576C65.9307 34.6027 66.0027 34.6773 66.072 34.8L70.032 41.856ZM80.1188 37.896V43.064C80.1188 43.6773 80.2601 44.152 80.5428 44.488C80.8254 44.824 81.2521 44.992 81.8228 44.992C82.2388 44.992 82.6308 44.8933 82.9988 44.696C83.3668 44.4987 83.7054 44.224 84.0148 43.872V37.896H85.4388V46H84.5908C84.3881 46 84.2601 45.9013 84.2068 45.704L84.0948 44.832C83.7428 45.2213 83.3481 45.536 82.9108 45.776C82.4734 46.0107 81.9721 46.128 81.4068 46.128C80.9641 46.128 80.5721 46.056 80.2308 45.912C79.8948 45.7627 79.6121 45.5547 79.3828 45.288C79.1534 45.0213 78.9801 44.6987 78.8628 44.32C78.7508 43.9413 78.6948 43.5227 78.6948 43.064V37.896H80.1188ZM89.3614 34.216V46H87.9374V34.216H89.3614ZM94.3271 46.128C93.6871 46.128 93.1938 45.9493 92.8471 45.592C92.5058 45.2347 92.3351 44.72 92.3351 44.048V39.088H91.3591C91.2738 39.088 91.2018 39.064 91.1431 39.016C91.0845 38.9627 91.0551 38.8827 91.0551 38.776V38.208L92.3831 38.04L92.7111 35.536C92.7218 35.456 92.7565 35.392 92.8151 35.344C92.8738 35.2907 92.9485 35.264 93.0391 35.264H93.7591V38.056H96.0791V39.088H93.7591V43.952C93.7591 44.2933 93.8418 44.5467 94.0071 44.712C94.1725 44.8773 94.3858 44.96 94.6471 44.96C94.7965 44.96 94.9245 44.9413 95.0311 44.904C95.1431 44.8613 95.2391 44.816 95.3191 44.768C95.3991 44.72 95.4658 44.6773 95.5191 44.64C95.5778 44.5973 95.6285 44.576 95.6711 44.576C95.7458 44.576 95.8125 44.6213 95.8711 44.712L96.2871 45.392C96.0418 45.6213 95.7458 45.8027 95.3991 45.936C95.0525 46.064 94.6951 46.128 94.3271 46.128ZM99.4239 37.896V46H97.9999V37.896H99.4239ZM99.7439 35.352C99.7439 35.4907 99.7145 35.6213 99.6559 35.744C99.6025 35.8613 99.5279 35.968 99.4319 36.064C99.3412 36.1547 99.2345 36.2267 99.1119 36.28C98.9892 36.3333 98.8585 36.36 98.7199 36.36C98.5812 36.36 98.4505 36.3333 98.3279 36.28C98.2105 36.2267 98.1039 36.1547 98.0079 36.064C97.9172 35.968 97.8452 35.8613 97.7919 35.744C97.7385 35.6213 97.7119 35.4907 97.7119 35.352C97.7119 35.2133 97.7385 35.0827 97.7919 34.96C97.8452 34.832 97.9172 34.7227 98.0079 34.632C98.1039 34.536 98.2105 34.4613 98.3279 34.408C98.4505 34.3547 98.5812 34.328 98.7199 34.328C98.8585 34.328 98.9892 34.3547 99.1119 34.408C99.2345 34.4613 99.3412 34.536 99.4319 34.632C99.5279 34.7227 99.6025 34.832 99.6559 34.96C99.7145 35.0827 99.7439 35.2133 99.7439 35.352ZM103.518 34.216V46H102.094V34.216H103.518ZM107.611 37.896V46H106.187V37.896H107.611ZM107.931 35.352C107.931 35.4907 107.902 35.6213 107.843 35.744C107.79 35.8613 107.715 35.968 107.619 36.064C107.529 36.1547 107.422 36.2267 107.299 36.28C107.177 36.3333 107.046 36.36 106.907 36.36C106.769 36.36 106.638 36.3333 106.515 36.28C106.398 36.2267 106.291 36.1547 106.195 36.064C106.105 35.968 106.033 35.8613 105.979 35.744C105.926 35.6213 105.899 35.4907 105.899 35.352C105.899 35.2133 105.926 35.0827 105.979 34.96C106.033 34.832 106.105 34.7227 106.195 34.632C106.291 34.536 106.398 34.4613 106.515 34.408C106.638 34.3547 106.769 34.328 106.907 34.328C107.046 34.328 107.177 34.3547 107.299 34.408C107.422 34.4613 107.529 34.536 107.619 34.632C107.715 34.7227 107.79 34.832 107.843 34.96C107.902 35.0827 107.931 35.2133 107.931 35.352ZM110.121 46V37.896H110.969C111.172 37.896 111.3 37.9947 111.353 38.192L111.465 39.072C111.817 38.6827 112.209 38.368 112.641 38.128C113.078 37.888 113.582 37.768 114.153 37.768C114.596 37.768 114.985 37.8427 115.321 37.992C115.662 38.136 115.945 38.344 116.169 38.616C116.398 38.8827 116.572 39.2053 116.689 39.584C116.806 39.9627 116.865 40.3813 116.865 40.84V46H115.441V40.84C115.441 40.2267 115.3 39.752 115.017 39.416C114.74 39.0747 114.313 38.904 113.737 38.904C113.316 38.904 112.921 39.0053 112.553 39.208C112.19 39.4107 111.854 39.6853 111.545 40.032V46H110.121ZM122.22 37.768C122.705 37.768 123.153 37.8507 123.564 38.016C123.974 38.176 124.329 38.4107 124.628 38.72C124.926 39.024 125.158 39.4027 125.324 39.856C125.494 40.304 125.58 40.816 125.58 41.392C125.58 41.616 125.556 41.7653 125.508 41.84C125.46 41.9147 125.369 41.952 125.236 41.952H119.844C119.854 42.464 119.924 42.9093 120.052 43.288C120.18 43.6667 120.356 43.984 120.58 44.24C120.804 44.4907 121.07 44.68 121.38 44.808C121.689 44.9307 122.036 44.992 122.42 44.992C122.777 44.992 123.084 44.952 123.34 44.872C123.601 44.7867 123.825 44.696 124.012 44.6C124.198 44.504 124.353 44.416 124.476 44.336C124.604 44.2507 124.713 44.208 124.804 44.208C124.921 44.208 125.012 44.2533 125.076 44.344L125.476 44.864C125.3 45.0773 125.089 45.264 124.844 45.424C124.598 45.5787 124.334 45.7067 124.052 45.808C123.774 45.9093 123.486 45.984 123.188 46.032C122.889 46.0853 122.593 46.112 122.3 46.112C121.74 46.112 121.222 46.0187 120.748 45.832C120.278 45.64 119.87 45.3627 119.524 45C119.182 44.632 118.916 44.1787 118.724 43.64C118.532 43.1013 118.436 42.4827 118.436 41.784C118.436 41.2187 118.521 40.6907 118.692 40.2C118.868 39.7093 119.118 39.2853 119.444 38.928C119.769 38.5653 120.166 38.2827 120.636 38.08C121.105 37.872 121.633 37.768 122.22 37.768ZM122.252 38.816C121.564 38.816 121.022 39.016 120.628 39.416C120.233 39.8107 119.988 40.36 119.892 41.064H124.3C124.3 40.7333 124.254 40.432 124.164 40.16C124.073 39.8827 123.94 39.6453 123.764 39.448C123.588 39.2453 123.372 39.0907 123.116 38.984C122.865 38.872 122.577 38.816 122.252 38.816ZM133.704 37.768C134.189 37.768 134.637 37.8507 135.048 38.016C135.459 38.176 135.813 38.4107 136.112 38.72C136.411 39.024 136.643 39.4027 136.808 39.856C136.979 40.304 137.064 40.816 137.064 41.392C137.064 41.616 137.04 41.7653 136.992 41.84C136.944 41.9147 136.853 41.952 136.72 41.952H131.328C131.339 42.464 131.408 42.9093 131.536 43.288C131.664 43.6667 131.84 43.984 132.064 44.24C132.288 44.4907 132.555 44.68 132.864 44.808C133.173 44.9307 133.52 44.992 133.904 44.992C134.261 44.992 134.568 44.952 134.824 44.872C135.085 44.7867 135.309 44.696 135.496 44.6C135.683 44.504 135.837 44.416 135.96 44.336C136.088 44.2507 136.197 44.208 136.288 44.208C136.405 44.208 136.496 44.2533 136.56 44.344L136.96 44.864C136.784 45.0773 136.573 45.264 136.328 45.424C136.083 45.5787 135.819 45.7067 135.536 45.808C135.259 45.9093 134.971 45.984 134.672 46.032C134.373 46.0853 134.077 46.112 133.784 46.112C133.224 46.112 132.707 46.0187 132.232 45.832C131.763 45.64 131.355 45.3627 131.008 45C130.667 44.632 130.4 44.1787 130.208 43.64C130.016 43.1013 129.92 42.4827 129.92 41.784C129.92 41.2187 130.005 40.6907 130.176 40.2C130.352 39.7093 130.603 39.2853 130.928 38.928C131.253 38.5653 131.651 38.2827 132.12 38.08C132.589 37.872 133.117 37.768 133.704 37.768ZM133.736 38.816C133.048 38.816 132.507 39.016 132.112 39.416C131.717 39.8107 131.472 40.36 131.376 41.064H135.784C135.784 40.7333 135.739 40.432 135.648 40.16C135.557 39.8827 135.424 39.6453 135.248 39.448C135.072 39.2453 134.856 39.0907 134.6 38.984C134.349 38.872 134.061 38.816 133.736 38.816ZM140.298 41.848L137.57 37.896H138.938C139.056 37.896 139.141 37.9147 139.194 37.952C139.248 37.9893 139.296 38.0427 139.338 38.112L141.322 41.152C141.37 41.0027 141.44 40.8533 141.53 40.704L143.274 38.144C143.328 38.0693 143.381 38.0107 143.434 37.968C143.488 37.92 143.554 37.896 143.634 37.896H144.946L142.218 41.768L145.058 46H143.69C143.573 46 143.48 45.9707 143.41 45.912C143.346 45.848 143.293 45.7787 143.25 45.704L141.21 42.528C141.173 42.6827 141.117 42.8213 141.042 42.944L139.154 45.704C139.101 45.7787 139.042 45.848 138.978 45.912C138.92 45.9707 138.837 46 138.73 46H137.458L140.298 41.848ZM152.417 46H151.785C151.646 46 151.534 45.9787 151.449 45.936C151.364 45.8933 151.308 45.8027 151.281 45.664L151.121 44.912C150.908 45.104 150.7 45.2773 150.497 45.432C150.294 45.5813 150.081 45.7093 149.857 45.816C149.633 45.9173 149.393 45.9947 149.137 46.048C148.886 46.1013 148.606 46.128 148.297 46.128C147.982 46.128 147.686 46.0853 147.409 46C147.137 45.9093 146.9 45.776 146.697 45.6C146.494 45.424 146.332 45.2027 146.209 44.936C146.092 44.664 146.033 44.344 146.033 43.976C146.033 43.656 146.121 43.3493 146.297 43.056C146.473 42.7573 146.756 42.4933 147.145 42.264C147.54 42.0347 148.054 41.848 148.689 41.704C149.324 41.5547 150.1 41.4693 151.017 41.448V40.816C151.017 40.1867 150.881 39.712 150.609 39.392C150.342 39.0667 149.945 38.904 149.417 38.904C149.07 38.904 148.777 38.9493 148.537 39.04C148.302 39.1253 148.097 39.224 147.921 39.336C147.75 39.4427 147.601 39.5413 147.473 39.632C147.35 39.7173 147.228 39.76 147.105 39.76C147.009 39.76 146.924 39.736 146.849 39.688C146.78 39.6347 146.724 39.5707 146.681 39.496L146.425 39.04C146.873 38.608 147.356 38.2853 147.873 38.072C148.39 37.8587 148.964 37.752 149.593 37.752C150.046 37.752 150.449 37.8267 150.801 37.976C151.153 38.1253 151.449 38.3333 151.689 38.6C151.929 38.8667 152.11 39.1893 152.233 39.568C152.356 39.9467 152.417 40.3627 152.417 40.816V46ZM148.721 45.128C148.972 45.128 149.201 45.104 149.409 45.056C149.617 45.0027 149.812 44.9307 149.993 44.84C150.18 44.744 150.356 44.6293 150.521 44.496C150.692 44.3627 150.857 44.2107 151.017 44.04V42.352C150.361 42.3733 149.804 42.4267 149.345 42.512C148.886 42.592 148.513 42.6987 148.225 42.832C147.937 42.9653 147.726 43.1227 147.593 43.304C147.465 43.4853 147.401 43.688 147.401 43.912C147.401 44.1253 147.436 44.3093 147.505 44.464C147.574 44.6187 147.668 44.7467 147.785 44.848C147.902 44.944 148.041 45.016 148.201 45.064C148.361 45.1067 148.534 45.128 148.721 45.128ZM154.574 46V37.896H155.422C155.625 37.896 155.753 37.9947 155.806 38.192L155.91 39.024C156.209 38.656 156.542 38.3547 156.91 38.12C157.284 37.8853 157.716 37.768 158.206 37.768C158.756 37.768 159.198 37.92 159.534 38.224C159.876 38.528 160.121 38.9387 160.27 39.456C160.382 39.1627 160.529 38.9093 160.71 38.696C160.897 38.4827 161.105 38.3067 161.334 38.168C161.564 38.0293 161.806 37.928 162.062 37.864C162.324 37.8 162.588 37.768 162.854 37.768C163.281 37.768 163.66 37.8373 163.99 37.976C164.326 38.1093 164.609 38.3067 164.838 38.568C165.073 38.8293 165.252 39.152 165.374 39.536C165.497 39.9147 165.558 40.3493 165.558 40.84V46H164.134V40.84C164.134 40.2053 163.996 39.7253 163.718 39.4C163.441 39.0693 163.038 38.904 162.51 38.904C162.276 38.904 162.052 38.9467 161.838 39.032C161.63 39.112 161.446 39.232 161.286 39.392C161.126 39.552 160.998 39.7547 160.902 40C160.812 40.24 160.766 40.52 160.766 40.84V46H159.342V40.84C159.342 40.1893 159.212 39.704 158.95 39.384C158.689 39.064 158.308 38.904 157.806 38.904C157.454 38.904 157.126 39 156.822 39.192C156.524 39.3787 156.249 39.6347 155.998 39.96V46H154.574ZM167.715 48.744V37.896H168.563C168.766 37.896 168.894 37.9947 168.947 38.192L169.067 39.152C169.414 38.7307 169.808 38.392 170.251 38.136C170.699 37.88 171.214 37.752 171.795 37.752C172.259 37.752 172.68 37.8427 173.059 38.024C173.438 38.2 173.76 38.464 174.027 38.816C174.294 39.1627 174.499 39.5947 174.643 40.112C174.787 40.6293 174.859 41.224 174.859 41.896C174.859 42.4933 174.779 43.0507 174.619 43.568C174.459 44.08 174.23 44.5253 173.931 44.904C173.632 45.2773 173.264 45.5733 172.827 45.792C172.395 46.0053 171.907 46.112 171.363 46.112C170.862 46.112 170.432 46.0293 170.075 45.864C169.723 45.6987 169.411 45.464 169.139 45.16V48.744H167.715ZM171.323 38.904C170.859 38.904 170.451 39.0107 170.099 39.224C169.752 39.4373 169.432 39.7387 169.139 40.128V44.048C169.4 44.4 169.686 44.648 169.995 44.792C170.31 44.936 170.659 45.008 171.043 45.008C171.795 45.008 172.374 44.7387 172.779 44.2C173.184 43.6613 173.387 42.8933 173.387 41.896C173.387 41.368 173.339 40.9147 173.243 40.536C173.152 40.1573 173.019 39.848 172.843 39.608C172.667 39.3627 172.451 39.184 172.195 39.072C171.939 38.96 171.648 38.904 171.323 38.904ZM178.127 34.216V46H176.703V34.216H178.127ZM183.845 37.768C184.33 37.768 184.778 37.8507 185.189 38.016C185.599 38.176 185.954 38.4107 186.253 38.72C186.551 39.024 186.783 39.4027 186.949 39.856C187.119 40.304 187.205 40.816 187.205 41.392C187.205 41.616 187.181 41.7653 187.133 41.84C187.085 41.9147 186.994 41.952 186.861 41.952H181.469C181.479 42.464 181.549 42.9093 181.677 43.288C181.805 43.6667 181.981 43.984 182.205 44.24C182.429 44.4907 182.695 44.68 183.005 44.808C183.314 44.9307 183.661 44.992 184.045 44.992C184.402 44.992 184.709 44.952 184.965 44.872C185.226 44.7867 185.45 44.696 185.637 44.6C185.823 44.504 185.978 44.416 186.101 44.336C186.229 44.2507 186.338 44.208 186.429 44.208C186.546 44.208 186.637 44.2533 186.701 44.344L187.101 44.864C186.925 45.0773 186.714 45.264 186.469 45.424C186.223 45.5787 185.959 45.7067 185.677 45.808C185.399 45.9093 185.111 45.984 184.813 46.032C184.514 46.0853 184.218 46.112 183.925 46.112C183.365 46.112 182.847 46.0187 182.373 45.832C181.903 45.64 181.495 45.3627 181.149 45C180.807 44.632 180.541 44.1787 180.349 43.64C180.157 43.1013 180.061 42.4827 180.061 41.784C180.061 41.2187 180.146 40.6907 180.317 40.2C180.493 39.7093 180.743 39.2853 181.069 38.928C181.394 38.5653 181.791 38.2827 182.261 38.08C182.73 37.872 183.258 37.768 183.845 37.768ZM183.877 38.816C183.189 38.816 182.647 39.016 182.253 39.416C181.858 39.8107 181.613 40.36 181.517 41.064H185.925C185.925 40.7333 185.879 40.432 185.789 40.16C185.698 39.8827 185.565 39.6453 185.389 39.448C185.213 39.2453 184.997 39.0907 184.741 38.984C184.49 38.872 184.202 38.816 183.877 38.816Z" fill="white"/>
<rect x="264" y="11" width="113" height="38" rx="19" fill="#2656C9"/>
<path d="M308.23 36H307.03C306.892 36 306.78 35.9653 306.694 35.896C306.609 35.8267 306.545 35.7387 306.502 35.632L305.43 32.864H300.286L299.214 35.632C299.177 35.728 299.113 35.8133 299.022 35.888C298.932 35.9627 298.82 36 298.686 36H297.486L302.07 24.536H303.646L308.23 36ZM300.718 31.744H304.998L303.198 27.08C303.081 26.792 302.966 26.432 302.854 26C302.796 26.2187 302.737 26.4213 302.678 26.608C302.625 26.7893 302.572 26.9493 302.518 27.088L300.718 31.744ZM314.977 29.336C314.935 29.3947 314.892 29.44 314.849 29.472C314.807 29.504 314.745 29.52 314.665 29.52C314.585 29.52 314.497 29.488 314.401 29.424C314.311 29.3547 314.193 29.28 314.049 29.2C313.905 29.12 313.729 29.048 313.521 28.984C313.319 28.9147 313.068 28.88 312.769 28.88C312.375 28.88 312.025 28.952 311.721 29.096C311.417 29.2347 311.161 29.4373 310.953 29.704C310.751 29.9707 310.596 30.2933 310.489 30.672C310.388 31.0507 310.337 31.4747 310.337 31.944C310.337 32.4347 310.393 32.872 310.505 33.256C310.617 33.6347 310.775 33.9547 310.977 34.216C311.18 34.472 311.425 34.6693 311.713 34.808C312.007 34.9413 312.335 35.008 312.697 35.008C313.044 35.008 313.329 34.968 313.553 34.888C313.777 34.8027 313.964 34.7093 314.113 34.608C314.263 34.5067 314.385 34.416 314.481 34.336C314.577 34.2507 314.673 34.208 314.769 34.208C314.892 34.208 314.983 34.2533 315.041 34.344L315.441 34.864C315.089 35.296 314.649 35.6133 314.121 35.816C313.593 36.0133 313.036 36.112 312.449 36.112C311.943 36.112 311.471 36.0187 311.033 35.832C310.601 35.6453 310.225 35.376 309.905 35.024C309.585 34.6667 309.332 34.2293 309.145 33.712C308.964 33.1947 308.873 32.6053 308.873 31.944C308.873 31.3413 308.956 30.784 309.121 30.272C309.292 29.76 309.537 29.32 309.857 28.952C310.183 28.5787 310.583 28.288 311.057 28.08C311.532 27.872 312.076 27.768 312.689 27.768C313.255 27.768 313.756 27.8613 314.193 28.048C314.631 28.2293 315.017 28.488 315.353 28.824L314.977 29.336ZM319.374 36.128C318.734 36.128 318.241 35.9493 317.894 35.592C317.553 35.2347 317.382 34.72 317.382 34.048V29.088H316.406C316.321 29.088 316.249 29.064 316.19 29.016C316.131 28.9627 316.102 28.8827 316.102 28.776V28.208L317.43 28.04L317.758 25.536C317.769 25.456 317.803 25.392 317.862 25.344C317.921 25.2907 317.995 25.264 318.086 25.264H318.806V28.056H321.126V29.088H318.806V33.952C318.806 34.2933 318.889 34.5467 319.054 34.712C319.219 34.8773 319.433 34.96 319.694 34.96C319.843 34.96 319.971 34.9413 320.078 34.904C320.19 34.8613 320.286 34.816 320.366 34.768C320.446 34.72 320.513 34.6773 320.566 34.64C320.625 34.5973 320.675 34.576 320.718 34.576C320.793 34.576 320.859 34.6213 320.918 34.712L321.334 35.392C321.089 35.6213 320.793 35.8027 320.446 35.936C320.099 36.064 319.742 36.128 319.374 36.128ZM324.471 27.896V36H323.047V27.896H324.471ZM324.791 25.352C324.791 25.4907 324.761 25.6213 324.703 25.744C324.649 25.8613 324.575 25.968 324.479 26.064C324.388 26.1547 324.281 26.2267 324.159 26.28C324.036 26.3333 323.905 26.36 323.767 26.36C323.628 26.36 323.497 26.3333 323.375 26.28C323.257 26.2267 323.151 26.1547 323.055 26.064C322.964 25.968 322.892 25.8613 322.839 25.744C322.785 25.6213 322.759 25.4907 322.759 25.352C322.759 25.2133 322.785 25.0827 322.839 24.96C322.892 24.832 322.964 24.7227 323.055 24.632C323.151 24.536 323.257 24.4613 323.375 24.408C323.497 24.3547 323.628 24.328 323.767 24.328C323.905 24.328 324.036 24.3547 324.159 24.408C324.281 24.4613 324.388 24.536 324.479 24.632C324.575 24.7227 324.649 24.832 324.703 24.96C324.761 25.0827 324.791 25.2133 324.791 25.352ZM330.261 27.768C330.853 27.768 331.386 27.8667 331.861 28.064C332.341 28.2613 332.746 28.5413 333.077 28.904C333.413 29.2667 333.669 29.7067 333.845 30.224C334.026 30.736 334.117 31.3093 334.117 31.944C334.117 32.584 334.026 33.16 333.845 33.672C333.669 34.184 333.413 34.6213 333.077 34.984C332.746 35.3467 332.341 35.6267 331.861 35.824C331.386 36.016 330.853 36.112 330.261 36.112C329.669 36.112 329.133 36.016 328.653 35.824C328.178 35.6267 327.773 35.3467 327.437 34.984C327.101 34.6213 326.842 34.184 326.661 33.672C326.479 33.16 326.389 32.584 326.389 31.944C326.389 31.3093 326.479 30.736 326.661 30.224C326.842 29.7067 327.101 29.2667 327.437 28.904C327.773 28.5413 328.178 28.2613 328.653 28.064C329.133 27.8667 329.669 27.768 330.261 27.768ZM330.261 35C331.061 35 331.658 34.7333 332.053 34.2C332.447 33.6613 332.645 32.912 332.645 31.952C332.645 30.9867 332.447 30.2347 332.053 29.696C331.658 29.1573 331.061 28.888 330.261 28.888C329.855 28.888 329.503 28.9573 329.205 29.096C328.906 29.2347 328.655 29.4347 328.453 29.696C328.255 29.9573 328.106 30.28 328.005 30.664C327.909 31.0427 327.861 31.472 327.861 31.952C327.861 32.432 327.909 32.8613 328.005 33.24C328.106 33.6187 328.255 33.9387 328.453 34.2C328.655 34.456 328.906 34.6533 329.205 34.792C329.503 34.9307 329.855 35 330.261 35ZM335.871 36V27.896H336.719C336.922 27.896 337.05 27.9947 337.103 28.192L337.215 29.072C337.567 28.6827 337.959 28.368 338.391 28.128C338.828 27.888 339.332 27.768 339.903 27.768C340.346 27.768 340.735 27.8427 341.071 27.992C341.412 28.136 341.695 28.344 341.919 28.616C342.148 28.8827 342.322 29.2053 342.439 29.584C342.556 29.9627 342.615 30.3813 342.615 30.84V36H341.191V30.84C341.191 30.2267 341.05 29.752 340.767 29.416C340.49 29.0747 340.063 28.904 339.487 28.904C339.066 28.904 338.671 29.0053 338.303 29.208C337.94 29.4107 337.604 29.6853 337.295 30.032V36H335.871Z" fill="white"/>
<path d="M32 46C40.8366 46 48 38.8366 48 30C48 21.1634 40.8366 14 32 14C23.1634 14 16 21.1634 16 30C16 38.8366 23.1634 46 32 46Z" fill="#EA4A3E"/>
<path fill-rule="evenodd" clip-rule="evenodd" d="M32.0539 38.7262C31.4613 38.7482 30.9146 38.4082 30.6723 37.8668C30.4301 37.3254 30.5408 36.6911 30.9522 36.2638C31.3636 35.8366 31.9932 35.7019 32.5433 35.9235C33.0935 36.1451 33.4539 36.6786 33.4544 37.2717C33.4671 38.0592 32.8414 38.7092 32.0539 38.7262Z" fill="white"/>
<path fill-rule="evenodd" clip-rule="evenodd" d="M33.4535 31.4609C33.474 31.9715 33.2015 32.452 32.7434 32.7131C32.2852 32.9742 31.7148 32.9742 31.2566 32.7131C30.7985 32.452 30.526 31.9715 30.5465 31.4609V22.7206C30.526 22.21 30.7985 21.7296 31.2566 21.4684C31.7148 21.2073 32.2852 21.2073 32.7434 21.4684C33.2015 21.7296 33.474 22.21 33.4535 22.7206V31.4609Z" fill="white"/>
</svg>
