<?xml version="1.0" encoding="UTF-8"?>
<svg width="390px" height="60px" viewBox="0 0 390 60" version="1.1" xmlns="http://www.w3.org/2000/svg" xmlns:xlink="http://www.w3.org/1999/xlink">
    <title>error</title>
    <g id="Page-1" stroke="none" stroke-width="1" fill="none" fill-rule="evenodd">
        <g id="error">
            <rect id="Rectangle" fill="#3F3F3F" fill-rule="nonzero" x="0" y="0" width="390" height="60" rx="30"></rect>
            <path d="M32,46 C40.8366,46 48,38.8366 48,30 C48,21.1634 40.8366,14 32,14 C23.1634,14 16,21.1634 16,30 C16,38.8366 23.1634,46 32,46 Z" id="Path" fill="#EA4A3E" fill-rule="nonzero"></path>
            <path d="M32.0539,38.7262 C31.4613,38.7482 30.9146,38.4082 30.6723,37.8668 C30.4301,37.3254 30.5408,36.6911 30.9522,36.2638 C31.3636,35.8366 31.9932,35.7019 32.5433,35.9235 C33.0935,36.1451 33.4539,36.6786 33.4544,37.2717 C33.4671,38.0592 32.8414,38.7092 32.0539,38.7262 Z" id="Path" fill="#3F3F3F"></path>
            <path d="M33.4535,31.4609 C33.474,31.9715 33.2015,32.452 32.7434,32.7131 C32.2852,32.9742 31.7148,32.9742 31.2566,32.7131 C30.7985,32.452 30.526,31.9715 30.5465,31.4609 L30.5465,22.7206 C30.526,22.21 30.7985,21.7296 31.2566,21.4684 C31.7148,21.2073 32.2852,21.2073 32.7434,21.4684 C33.2015,21.7296 33.474,22.21 33.4535,22.7206 L33.4535,31.4609 Z" id="Path" fill="#3F3F3F"></path>
            <path d="M72.2,24.536 L72.2,25.84 L68.496,25.84 L68.496,36 L66.944,36 L66.944,25.84 L63.224,25.84 L63.224,24.536 L72.2,24.536 Z M73.6055,36 L73.6055,24.216 L75.0295,24.216 L75.0295,28.984 C75.3762,28.616 75.7602,28.3227 76.1815,28.104 C76.6028,27.88 77.0882,27.768 77.6375,27.768 C78.0802,27.768 78.4695,27.8427 78.8055,27.992 C79.1468,28.136 79.4295,28.344 79.6535,28.616 C79.8828,28.8827 80.0562,29.2053 80.1735,29.584 C80.2908,29.9627 80.3495,30.3813 80.3495,30.84 L80.3495,36 L78.9255,36 L78.9255,30.84 C78.9255,30.2267 78.7842,29.752 78.5015,29.416 C78.2242,29.0747 77.7975,28.904 77.2215,28.904 C76.8002,28.904 76.4055,29.0053 76.0375,29.208 C75.6748,29.4107 75.3388,29.6853 75.0295,30.032 L75.0295,36 L73.6055,36 Z M84.0801,27.896 L84.0801,36 L82.6561,36 L82.6561,27.896 L84.0801,27.896 Z M84.4001,25.352 C84.4001,25.4907 84.3708,25.6213 84.3121,25.744 C84.2588,25.8613 84.1841,25.968 84.0881,26.064 C83.9975,26.1547 83.8908,26.2267 83.7681,26.28 C83.6455,26.3333 83.5148,26.36 83.3761,26.36 C83.2375,26.36 83.1068,26.3333 82.9841,26.28 C82.8668,26.2267 82.7601,26.1547 82.6641,26.064 C82.5735,25.968 82.5015,25.8613 82.4481,25.744 C82.3948,25.6213 82.3681,25.4907 82.3681,25.352 C82.3681,25.2133 82.3948,25.0827 82.4481,24.96 C82.5015,24.832 82.5735,24.7227 82.6641,24.632 C82.7601,24.536 82.8668,24.4613 82.9841,24.408 C83.1068,24.3547 83.2375,24.328 83.3761,24.328 C83.5148,24.328 83.6455,24.3547 83.7681,24.408 C83.8908,24.4613 83.9975,24.536 84.0881,24.632 C84.1841,24.7227 84.2588,24.832 84.3121,24.96 C84.3708,25.0827 84.4001,25.2133 84.4001,25.352 Z M91.2299,29.232 C91.1659,29.3493 91.0672,29.408 90.9339,29.408 C90.8539,29.408 90.7632,29.3787 90.6619,29.32 C90.5605,29.2613 90.4352,29.1973 90.2859,29.128 C90.1419,29.0533 89.9685,28.9867 89.7659,28.928 C89.5632,28.864 89.3232,28.832 89.0459,28.832 C88.8059,28.832 88.5899,28.864 88.3979,28.928 C88.2059,28.9867 88.0405,29.0693 87.9019,29.176 C87.7685,29.2827 87.6645,29.408 87.5899,29.552 C87.5205,29.6907 87.4859,29.8427 87.4859,30.008 C87.4859,30.216 87.5445,30.3893 87.6619,30.528 C87.7845,30.6667 87.9445,30.7867 88.1419,30.888 C88.3392,30.9893 88.5632,31.08 88.8139,31.16 C89.0645,31.2347 89.3205,31.3173 89.5819,31.408 C89.8485,31.4933 90.1072,31.5893 90.3579,31.696 C90.6085,31.8027 90.8325,31.936 91.0299,32.096 C91.2272,32.256 91.3845,32.4533 91.5019,32.688 C91.6245,32.9173 91.6859,33.1947 91.6859,33.52 C91.6859,33.8933 91.6192,34.24 91.4859,34.56 C91.3525,34.8747 91.1552,35.1493 90.8939,35.384 C90.6325,35.6133 90.3125,35.7947 89.9339,35.928 C89.5552,36.0613 89.1179,36.128 88.6219,36.128 C88.0565,36.128 87.5445,36.0373 87.0859,35.856 C86.6272,35.6693 86.2379,35.432 85.9179,35.144 L86.2539,34.6 C86.2965,34.5307 86.3472,34.4773 86.4059,34.44 C86.4645,34.4027 86.5419,34.384 86.6379,34.384 C86.7339,34.384 86.8352,34.4213 86.9419,34.496 C87.0485,34.5707 87.1765,34.6533 87.3259,34.744 C87.4805,34.8347 87.6645,34.9173 87.8779,34.992 C88.0965,35.0667 88.3685,35.104 88.6939,35.104 C88.9712,35.104 89.2139,35.0693 89.4219,35 C89.6299,34.9253 89.8032,34.8267 89.9419,34.704 C90.0805,34.5813 90.1819,34.44 90.2459,34.28 C90.3152,34.12 90.3499,33.9493 90.3499,33.768 C90.3499,33.544 90.2885,33.36 90.1659,33.216 C90.0485,33.0667 89.8912,32.9413 89.6939,32.84 C89.4965,32.7333 89.2699,32.6427 89.0139,32.568 C88.7632,32.488 88.5045,32.4053 88.2379,32.32 C87.9765,32.2347 87.7179,32.1387 87.4619,32.032 C87.2112,31.92 86.9872,31.7813 86.7899,31.616 C86.5925,31.4507 86.4325,31.248 86.3099,31.008 C86.1925,30.7627 86.1339,30.4667 86.1339,30.12 C86.1339,29.8107 86.1979,29.5147 86.3259,29.232 C86.4539,28.944 86.6405,28.6933 86.8859,28.48 C87.1312,28.2613 87.4325,28.088 87.7899,27.96 C88.1472,27.832 88.5552,27.768 89.0139,27.768 C89.5472,27.768 90.0245,27.8533 90.4459,28.024 C90.8725,28.1893 91.2405,28.4187 91.5499,28.712 L91.2299,29.232 Z M98.2051,27.896 L98.2051,36 L96.7811,36 L96.7811,27.896 L98.2051,27.896 Z M98.5251,25.352 C98.5251,25.4907 98.4958,25.6213 98.4371,25.744 C98.3838,25.8613 98.3091,25.968 98.2131,26.064 C98.1225,26.1547 98.0158,26.2267 97.8931,26.28 C97.7705,26.3333 97.6398,26.36 97.5011,26.36 C97.3625,26.36 97.2318,26.3333 97.1091,26.28 C96.9918,26.2267 96.8851,26.1547 96.7891,26.064 C96.6985,25.968 96.6265,25.8613 96.5731,25.744 C96.5198,25.6213 96.4931,25.4907 96.4931,25.352 C96.4931,25.2133 96.5198,25.0827 96.5731,24.96 C96.6265,24.832 96.6985,24.7227 96.7891,24.632 C96.8851,24.536 96.9918,24.4613 97.1091,24.408 C97.2318,24.3547 97.3625,24.328 97.5011,24.328 C97.6398,24.328 97.7705,24.3547 97.8931,24.408 C98.0158,24.4613 98.1225,24.536 98.2131,24.632 C98.3091,24.7227 98.3838,24.832 98.4371,24.96 C98.4958,25.0827 98.5251,25.2133 98.5251,25.352 Z M105.355,29.232 C105.291,29.3493 105.192,29.408 105.059,29.408 C104.979,29.408 104.888,29.3787 104.787,29.32 C104.686,29.2613 104.56,29.1973 104.411,29.128 C104.267,29.0533 104.094,28.9867 103.891,28.928 C103.688,28.864 103.448,28.832 103.171,28.832 C102.931,28.832 102.715,28.864 102.523,28.928 C102.331,28.9867 102.166,29.0693 102.027,29.176 C101.894,29.2827 101.79,29.408 101.715,29.552 C101.646,29.6907 101.611,29.8427 101.611,30.008 C101.611,30.216 101.67,30.3893 101.787,30.528 C101.91,30.6667 102.07,30.7867 102.267,30.888 C102.464,30.9893 102.688,31.08 102.939,31.16 C103.19,31.2347 103.446,31.3173 103.707,31.408 C103.974,31.4933 104.232,31.5893 104.483,31.696 C104.734,31.8027 104.958,31.936 105.155,32.096 C105.352,32.256 105.51,32.4533 105.627,32.688 C105.75,32.9173 105.811,33.1947 105.811,33.52 C105.811,33.8933 105.744,34.24 105.611,34.56 C105.478,34.8747 105.28,35.1493 105.019,35.384 C104.758,35.6133 104.438,35.7947 104.059,35.928 C103.68,36.0613 103.243,36.128 102.747,36.128 C102.182,36.128 101.67,36.0373 101.211,35.856 C100.752,35.6693 100.363,35.432 100.043,35.144 L100.379,34.6 C100.422,34.5307 100.472,34.4773 100.531,34.44 C100.59,34.4027 100.667,34.384 100.763,34.384 C100.859,34.384 100.96,34.4213 101.067,34.496 C101.174,34.5707 101.302,34.6533 101.451,34.744 C101.606,34.8347 101.79,34.9173 102.003,34.992 C102.222,35.0667 102.494,35.104 102.819,35.104 C103.096,35.104 103.339,35.0693 103.547,35 C103.755,34.9253 103.928,34.8267 104.067,34.704 C104.206,34.5813 104.307,34.44 104.371,34.28 C104.44,34.12 104.475,33.9493 104.475,33.768 C104.475,33.544 104.414,33.36 104.291,33.216 C104.174,33.0667 104.016,32.9413 103.819,32.84 C103.622,32.7333 103.395,32.6427 103.139,32.568 C102.888,32.488 102.63,32.4053 102.363,32.32 C102.102,32.2347 101.843,32.1387 101.587,32.032 C101.336,31.92 101.112,31.7813 100.915,31.616 C100.718,31.4507 100.558,31.248 100.435,31.008 C100.318,30.7627 100.259,30.4667 100.259,30.12 C100.259,29.8107 100.323,29.5147 100.451,29.232 C100.579,28.944 100.766,28.6933 101.011,28.48 C101.256,28.2613 101.558,28.088 101.915,27.96 C102.272,27.832 102.68,27.768 103.139,27.768 C103.672,27.768 104.15,27.8533 104.571,28.024 C104.998,28.1893 105.366,28.4187 105.675,28.712 L105.355,29.232 Z M116.698,36 L116.066,36 C115.927,36 115.815,35.9787 115.73,35.936 C115.645,35.8933 115.589,35.8027 115.562,35.664 L115.402,34.912 C115.189,35.104 114.981,35.2773 114.778,35.432 C114.575,35.5813 114.362,35.7093 114.138,35.816 C113.914,35.9173 113.674,35.9947 113.418,36.048 C113.167,36.1013 112.887,36.128 112.578,36.128 C112.263,36.128 111.967,36.0853 111.69,36 C111.418,35.9093 111.181,35.776 110.978,35.6 C110.775,35.424 110.613,35.2027 110.49,34.936 C110.373,34.664 110.314,34.344 110.314,33.976 C110.314,33.656 110.402,33.3493 110.578,33.056 C110.754,32.7573 111.037,32.4933 111.426,32.264 C111.821,32.0347 112.335,31.848 112.97,31.704 C113.605,31.5547 114.381,31.4693 115.298,31.448 L115.298,30.816 C115.298,30.1867 115.162,29.712 114.89,29.392 C114.623,29.0667 114.226,28.904 113.698,28.904 C113.351,28.904 113.058,28.9493 112.818,29.04 C112.583,29.1253 112.378,29.224 112.202,29.336 C112.031,29.4427 111.882,29.5413 111.754,29.632 C111.631,29.7173 111.509,29.76 111.386,29.76 C111.29,29.76 111.205,29.736 111.13,29.688 C111.061,29.6347 111.005,29.5707 110.962,29.496 L110.706,29.04 C111.154,28.608 111.637,28.2853 112.154,28.072 C112.671,27.8587 113.245,27.752 113.874,27.752 C114.327,27.752 114.73,27.8267 115.082,27.976 C115.434,28.1253 115.73,28.3333 115.97,28.6 C116.21,28.8667 116.391,29.1893 116.514,29.568 C116.637,29.9467 116.698,30.3627 116.698,30.816 L116.698,36 Z M113.002,35.128 C113.253,35.128 113.482,35.104 113.69,35.056 C113.898,35.0027 114.093,34.9307 114.274,34.84 C114.461,34.744 114.637,34.6293 114.802,34.496 C114.973,34.3627 115.138,34.2107 115.298,34.04 L115.298,32.352 C114.642,32.3733 114.085,32.4267 113.626,32.512 C113.167,32.592 112.794,32.6987 112.506,32.832 C112.218,32.9653 112.007,33.1227 111.874,33.304 C111.746,33.4853 111.682,33.688 111.682,33.912 C111.682,34.1253 111.717,34.3093 111.786,34.464 C111.855,34.6187 111.949,34.7467 112.066,34.848 C112.183,34.944 112.322,35.016 112.482,35.064 C112.642,35.1067 112.815,35.128 113.002,35.128 Z M118.856,36 L118.856,27.896 L119.704,27.896 C119.906,27.896 120.034,27.9947 120.088,28.192 L120.2,29.072 C120.552,28.6827 120.944,28.368 121.376,28.128 C121.813,27.888 122.317,27.768 122.888,27.768 C123.33,27.768 123.72,27.8427 124.056,27.992 C124.397,28.136 124.68,28.344 124.904,28.616 C125.133,28.8827 125.306,29.2053 125.424,29.584 C125.541,29.9627 125.6,30.3813 125.6,30.84 L125.6,36 L124.176,36 L124.176,30.84 C124.176,30.2267 124.034,29.752 123.752,29.416 C123.474,29.0747 123.048,28.904 122.472,28.904 C122.05,28.904 121.656,29.0053 121.288,29.208 C120.925,29.4107 120.589,29.6853 120.28,30.032 L120.28,36 L118.856,36 Z M134.048,27.768 C134.533,27.768 134.981,27.8507 135.392,28.016 C135.803,28.176 136.157,28.4107 136.456,28.72 C136.755,29.024 136.987,29.4027 137.152,29.856 C137.323,30.304 137.408,30.816 137.408,31.392 C137.408,31.616 137.384,31.7653 137.336,31.84 C137.288,31.9147 137.197,31.952 137.064,31.952 L131.672,31.952 C131.683,32.464 131.752,32.9093 131.88,33.288 C132.008,33.6667 132.184,33.984 132.408,34.24 C132.632,34.4907 132.899,34.68 133.208,34.808 C133.517,34.9307 133.864,34.992 134.248,34.992 C134.605,34.992 134.912,34.952 135.168,34.872 C135.429,34.7867 135.653,34.696 135.84,34.6 C136.027,34.504 136.181,34.416 136.304,34.336 C136.432,34.2507 136.541,34.208 136.632,34.208 C136.749,34.208 136.84,34.2533 136.904,34.344 L137.304,34.864 C137.128,35.0773 136.917,35.264 136.672,35.424 C136.427,35.5787 136.163,35.7067 135.88,35.808 C135.603,35.9093 135.315,35.984 135.016,36.032 C134.717,36.0853 134.421,36.112 134.128,36.112 C133.568,36.112 133.051,36.0187 132.576,35.832 C132.107,35.64 131.699,35.3627 131.352,35 C131.011,34.632 130.744,34.1787 130.552,33.64 C130.36,33.1013 130.264,32.4827 130.264,31.784 C130.264,31.2187 130.349,30.6907 130.52,30.2 C130.696,29.7093 130.947,29.2853 131.272,28.928 C131.597,28.5653 131.995,28.2827 132.464,28.08 C132.933,27.872 133.461,27.768 134.048,27.768 Z M134.08,28.816 C133.392,28.816 132.851,29.016 132.456,29.416 C132.061,29.8107 131.816,30.36 131.72,31.064 L136.128,31.064 C136.128,30.7333 136.083,30.432 135.992,30.16 C135.901,29.8827 135.768,29.6453 135.592,29.448 C135.416,29.2453 135.2,29.0907 134.944,28.984 C134.693,28.872 134.405,28.816 134.08,28.816 Z M139.231,36 L139.231,27.896 L140.047,27.896 C140.201,27.896 140.308,27.9253 140.367,27.984 C140.425,28.0427 140.465,28.144 140.487,28.288 L140.583,29.552 C140.86,28.9867 141.201,28.5467 141.607,28.232 C142.017,27.912 142.497,27.752 143.047,27.752 C143.271,27.752 143.473,27.7787 143.655,27.832 C143.836,27.88 144.004,27.9493 144.159,28.04 L143.975,29.104 C143.937,29.2373 143.855,29.304 143.727,29.304 C143.652,29.304 143.537,29.28 143.383,29.232 C143.228,29.1787 143.012,29.152 142.735,29.152 C142.239,29.152 141.823,29.296 141.487,29.584 C141.156,29.872 140.879,30.2907 140.655,30.84 L140.655,36 L139.231,36 Z M145.684,36 L145.684,27.896 L146.5,27.896 C146.654,27.896 146.761,27.9253 146.82,27.984 C146.878,28.0427 146.918,28.144 146.94,28.288 L147.036,29.552 C147.313,28.9867 147.654,28.5467 148.06,28.232 C148.47,27.912 148.95,27.752 149.5,27.752 C149.724,27.752 149.926,27.7787 150.108,27.832 C150.289,27.88 150.457,27.9493 150.612,28.04 L150.428,29.104 C150.39,29.2373 150.308,29.304 150.18,29.304 C150.105,29.304 149.99,29.28 149.836,29.232 C149.681,29.1787 149.465,29.152 149.188,29.152 C148.692,29.152 148.276,29.296 147.94,29.584 C147.609,29.872 147.332,30.2907 147.108,30.84 L147.108,36 L145.684,36 Z M155.417,27.768 C156.009,27.768 156.542,27.8667 157.017,28.064 C157.497,28.2613 157.902,28.5413 158.233,28.904 C158.569,29.2667 158.825,29.7067 159.001,30.224 C159.182,30.736 159.273,31.3093 159.273,31.944 C159.273,32.584 159.182,33.16 159.001,33.672 C158.825,34.184 158.569,34.6213 158.233,34.984 C157.902,35.3467 157.497,35.6267 157.017,35.824 C156.542,36.016 156.009,36.112 155.417,36.112 C154.825,36.112 154.289,36.016 153.809,35.824 C153.334,35.6267 152.929,35.3467 152.593,34.984 C152.257,34.6213 151.998,34.184 151.817,33.672 C151.635,33.16 151.545,32.584 151.545,31.944 C151.545,31.3093 151.635,30.736 151.817,30.224 C151.998,29.7067 152.257,29.2667 152.593,28.904 C152.929,28.5413 153.334,28.2613 153.809,28.064 C154.289,27.8667 154.825,27.768 155.417,27.768 Z M155.417,35 C156.217,35 156.814,34.7333 157.209,34.2 C157.603,33.6613 157.801,32.912 157.801,31.952 C157.801,30.9867 157.603,30.2347 157.209,29.696 C156.814,29.1573 156.217,28.888 155.417,28.888 C155.011,28.888 154.659,28.9573 154.361,29.096 C154.062,29.2347 153.811,29.4347 153.609,29.696 C153.411,29.9573 153.262,30.28 153.161,30.664 C153.065,31.0427 153.017,31.472 153.017,31.952 C153.017,32.432 153.065,32.8613 153.161,33.24 C153.262,33.6187 153.411,33.9387 153.609,34.2 C153.811,34.456 154.062,34.6533 154.361,34.792 C154.659,34.9307 155.011,35 155.417,35 Z M161.027,36 L161.027,27.896 L161.843,27.896 C161.998,27.896 162.105,27.9253 162.163,27.984 C162.222,28.0427 162.262,28.144 162.283,28.288 L162.379,29.552 C162.657,28.9867 162.998,28.5467 163.403,28.232 C163.814,27.912 164.294,27.752 164.843,27.752 C165.067,27.752 165.27,27.7787 165.451,27.832 C165.633,27.88 165.801,27.9493 165.955,28.04 L165.771,29.104 C165.734,29.2373 165.651,29.304 165.523,29.304 C165.449,29.304 165.334,29.28 165.179,29.232 C165.025,29.1787 164.809,29.152 164.531,29.152 C164.035,29.152 163.619,29.296 163.283,29.584 C162.953,29.872 162.675,30.2907 162.451,30.84 L162.451,36 L161.027,36 Z M173.03,36.128 C172.39,36.128 171.897,35.9493 171.55,35.592 C171.209,35.2347 171.038,34.72 171.038,34.048 L171.038,29.088 L170.062,29.088 C169.977,29.088 169.905,29.064 169.846,29.016 C169.788,28.9627 169.758,28.8827 169.758,28.776 L169.758,28.208 L171.086,28.04 L171.414,25.536 C171.425,25.456 171.46,25.392 171.518,25.344 C171.577,25.2907 171.652,25.264 171.742,25.264 L172.462,25.264 L172.462,28.056 L174.782,28.056 L174.782,29.088 L172.462,29.088 L172.462,33.952 C172.462,34.2933 172.545,34.5467 172.71,34.712 C172.876,34.8773 173.089,34.96 173.35,34.96 C173.5,34.96 173.628,34.9413 173.734,34.904 C173.846,34.8613 173.942,34.816 174.022,34.768 C174.102,34.72 174.169,34.6773 174.222,34.64 C174.281,34.5973 174.332,34.576 174.374,34.576 C174.449,34.576 174.516,34.6213 174.574,34.712 L174.99,35.392 C174.745,35.6213 174.449,35.8027 174.102,35.936 C173.756,36.064 173.398,36.128 173.03,36.128 Z M179.823,27.768 C180.415,27.768 180.948,27.8667 181.423,28.064 C181.903,28.2613 182.308,28.5413 182.639,28.904 C182.975,29.2667 183.231,29.7067 183.407,30.224 C183.588,30.736 183.679,31.3093 183.679,31.944 C183.679,32.584 183.588,33.16 183.407,33.672 C183.231,34.184 182.975,34.6213 182.639,34.984 C182.308,35.3467 181.903,35.6267 181.423,35.824 C180.948,36.016 180.415,36.112 179.823,36.112 C179.231,36.112 178.695,36.016 178.215,35.824 C177.74,35.6267 177.335,35.3467 176.999,34.984 C176.663,34.6213 176.404,34.184 176.223,33.672 C176.042,33.16 175.951,32.584 175.951,31.944 C175.951,31.3093 176.042,30.736 176.223,30.224 C176.404,29.7067 176.663,29.2667 176.999,28.904 C177.335,28.5413 177.74,28.2613 178.215,28.064 C178.695,27.8667 179.231,27.768 179.823,27.768 Z M179.823,35 C180.623,35 181.22,34.7333 181.615,34.2 C182.01,33.6613 182.207,32.912 182.207,31.952 C182.207,30.9867 182.01,30.2347 181.615,29.696 C181.22,29.1573 180.623,28.888 179.823,28.888 C179.418,28.888 179.066,28.9573 178.767,29.096 C178.468,29.2347 178.218,29.4347 178.015,29.696 C177.818,29.9573 177.668,30.28 177.567,30.664 C177.471,31.0427 177.423,31.472 177.423,31.952 C177.423,32.432 177.471,32.8613 177.567,33.24 C177.668,33.6187 177.818,33.9387 178.015,34.2 C178.218,34.456 178.468,34.6533 178.767,34.792 C179.066,34.9307 179.418,35 179.823,35 Z M191.386,36 L190.754,36 C190.615,36 190.503,35.9787 190.418,35.936 C190.332,35.8933 190.276,35.8027 190.25,35.664 L190.09,34.912 C189.876,35.104 189.668,35.2773 189.466,35.432 C189.263,35.5813 189.05,35.7093 188.826,35.816 C188.602,35.9173 188.362,35.9947 188.106,36.048 C187.855,36.1013 187.575,36.128 187.266,36.128 C186.951,36.128 186.655,36.0853 186.378,36 C186.106,35.9093 185.868,35.776 185.666,35.6 C185.463,35.424 185.3,35.2027 185.178,34.936 C185.06,34.664 185.002,34.344 185.002,33.976 C185.002,33.656 185.09,33.3493 185.266,33.056 C185.442,32.7573 185.724,32.4933 186.114,32.264 C186.508,32.0347 187.023,31.848 187.658,31.704 C188.292,31.5547 189.068,31.4693 189.986,31.448 L189.986,30.816 C189.986,30.1867 189.85,29.712 189.578,29.392 C189.311,29.0667 188.914,28.904 188.386,28.904 C188.039,28.904 187.746,28.9493 187.506,29.04 C187.271,29.1253 187.066,29.224 186.89,29.336 C186.719,29.4427 186.57,29.5413 186.442,29.632 C186.319,29.7173 186.196,29.76 186.074,29.76 C185.978,29.76 185.892,29.736 185.818,29.688 C185.748,29.6347 185.692,29.5707 185.65,29.496 L185.394,29.04 C185.842,28.608 186.324,28.2853 186.842,28.072 C187.359,27.8587 187.932,27.752 188.562,27.752 C189.015,27.752 189.418,27.8267 189.77,27.976 C190.122,28.1253 190.418,28.3333 190.658,28.6 C190.898,28.8667 191.079,29.1893 191.202,29.568 C191.324,29.9467 191.386,30.3627 191.386,30.816 L191.386,36 Z M187.69,35.128 C187.94,35.128 188.17,35.104 188.378,35.056 C188.586,35.0027 188.78,34.9307 188.962,34.84 C189.148,34.744 189.324,34.6293 189.49,34.496 C189.66,34.3627 189.826,34.2107 189.986,34.04 L189.986,32.352 C189.33,32.3733 188.772,32.4267 188.314,32.512 C187.855,32.592 187.482,32.6987 187.194,32.832 C186.906,32.9653 186.695,33.1227 186.562,33.304 C186.434,33.4853 186.37,33.688 186.37,33.912 C186.37,34.1253 186.404,34.3093 186.474,34.464 C186.543,34.6187 186.636,34.7467 186.754,34.848 C186.871,34.944 187.01,35.016 187.17,35.064 C187.33,35.1067 187.503,35.128 187.69,35.128 Z M198.183,29.232 C198.119,29.3493 198.02,29.408 197.887,29.408 C197.807,29.408 197.716,29.3787 197.615,29.32 C197.514,29.2613 197.388,29.1973 197.239,29.128 C197.095,29.0533 196.922,28.9867 196.719,28.928 C196.516,28.864 196.276,28.832 195.999,28.832 C195.759,28.832 195.543,28.864 195.351,28.928 C195.159,28.9867 194.994,29.0693 194.855,29.176 C194.722,29.2827 194.618,29.408 194.543,29.552 C194.474,29.6907 194.439,29.8427 194.439,30.008 C194.439,30.216 194.498,30.3893 194.615,30.528 C194.738,30.6667 194.898,30.7867 195.095,30.888 C195.292,30.9893 195.516,31.08 195.767,31.16 C196.018,31.2347 196.274,31.3173 196.535,31.408 C196.802,31.4933 197.06,31.5893 197.311,31.696 C197.562,31.8027 197.786,31.936 197.983,32.096 C198.18,32.256 198.338,32.4533 198.455,32.688 C198.578,32.9173 198.639,33.1947 198.639,33.52 C198.639,33.8933 198.572,34.24 198.439,34.56 C198.306,34.8747 198.108,35.1493 197.847,35.384 C197.586,35.6133 197.266,35.7947 196.887,35.928 C196.508,36.0613 196.071,36.128 195.575,36.128 C195.01,36.128 194.498,36.0373 194.039,35.856 C193.58,35.6693 193.191,35.432 192.871,35.144 L193.207,34.6 C193.25,34.5307 193.3,34.4773 193.359,34.44 C193.418,34.4027 193.495,34.384 193.591,34.384 C193.687,34.384 193.788,34.4213 193.895,34.496 C194.002,34.5707 194.13,34.6533 194.279,34.744 C194.434,34.8347 194.618,34.9173 194.831,34.992 C195.05,35.0667 195.322,35.104 195.647,35.104 C195.924,35.104 196.167,35.0693 196.375,35 C196.583,34.9253 196.756,34.8267 196.895,34.704 C197.034,34.5813 197.135,34.44 197.199,34.28 C197.268,34.12 197.303,33.9493 197.303,33.768 C197.303,33.544 197.242,33.36 197.119,33.216 C197.002,33.0667 196.844,32.9413 196.647,32.84 C196.45,32.7333 196.223,32.6427 195.967,32.568 C195.716,32.488 195.458,32.4053 195.191,32.32 C194.93,32.2347 194.671,32.1387 194.415,32.032 C194.164,31.92 193.94,31.7813 193.743,31.616 C193.546,31.4507 193.386,31.248 193.263,31.008 C193.146,30.7627 193.087,30.4667 193.087,30.12 C193.087,29.8107 193.151,29.5147 193.279,29.232 C193.407,28.944 193.594,28.6933 193.839,28.48 C194.084,28.2613 194.386,28.088 194.743,27.96 C195.1,27.832 195.508,27.768 195.967,27.768 C196.5,27.768 196.978,27.8533 197.399,28.024 C197.826,28.1893 198.194,28.4187 198.503,28.712 L198.183,29.232 Z M202.937,36.128 C202.297,36.128 201.803,35.9493 201.457,35.592 C201.115,35.2347 200.945,34.72 200.945,34.048 L200.945,29.088 L199.969,29.088 C199.883,29.088 199.811,29.064 199.753,29.016 C199.694,28.9627 199.665,28.8827 199.665,28.776 L199.665,28.208 L200.993,28.04 L201.321,25.536 C201.331,25.456 201.366,25.392 201.424,25.344 C201.483,25.2907 201.558,25.264 201.649,25.264 L202.369,25.264 L202.369,28.056 L204.689,28.056 L204.689,29.088 L202.369,29.088 L202.369,33.952 C202.369,34.2933 202.451,34.5467 202.617,34.712 C202.782,34.8773 202.995,34.96 203.257,34.96 C203.406,34.96 203.534,34.9413 203.641,34.904 C203.753,34.8613 203.849,34.816 203.929,34.768 C204.009,34.72 204.075,34.6773 204.129,34.64 C204.187,34.5973 204.238,34.576 204.281,34.576 C204.355,34.576 204.422,34.6213 204.481,34.712 L204.897,35.392 C204.651,35.6213 204.355,35.8027 204.009,35.936 C203.662,36.064 203.305,36.128 202.937,36.128 Z M205.985,35.12 C205.985,34.9813 206.009,34.8507 206.057,34.728 C206.111,34.6053 206.18,34.4987 206.265,34.408 C206.356,34.3173 206.463,34.2453 206.585,34.192 C206.708,34.1387 206.839,34.112 206.977,34.112 C207.116,34.112 207.247,34.1387 207.369,34.192 C207.492,34.2453 207.599,34.3173 207.689,34.408 C207.78,34.4987 207.849,34.6053 207.897,34.728 C207.951,34.8507 207.977,34.9813 207.977,35.12 C207.977,35.264 207.951,35.3973 207.897,35.52 C207.849,35.6373 207.78,35.7413 207.689,35.832 C207.599,35.9227 207.492,35.992 207.369,36.04 C207.247,36.0933 207.116,36.12 206.977,36.12 C206.839,36.12 206.708,36.0933 206.585,36.04 C206.463,35.992 206.356,35.9227 206.265,35.832 C206.18,35.7413 206.111,35.6373 206.057,35.52 C206.009,35.3973 205.985,35.264 205.985,35.12 Z" id="Shape" fill="#FFFFFF" fill-rule="nonzero"></path>
        </g>
    </g>
</svg>