<?xml version="1.0" encoding="UTF-8"?>
<svg width="390px" height="60px" viewBox="0 0 390 60" version="1.1" xmlns="http://www.w3.org/2000/svg" xmlns:xlink="http://www.w3.org/1999/xlink">
    <title>info</title>
    <g id="Page-1" stroke="none" stroke-width="1" fill="none" fill-rule="evenodd">
        <g id="info">
            <rect id="Rectangle" fill="#3F3F3F" fill-rule="nonzero" x="0" y="0" width="390" height="60" rx="30"></rect>
            <path d="M72.2,24.536 L72.2,25.84 L68.496,25.84 L68.496,36 L66.944,36 L66.944,25.84 L63.224,25.84 L63.224,24.536 L72.2,24.536 Z M73.6055,36 L73.6055,24.216 L75.0295,24.216 L75.0295,28.984 C75.3762,28.616 75.7602,28.3227 76.1815,28.104 C76.6028,27.88 77.0882,27.768 77.6375,27.768 C78.0802,27.768 78.4695,27.8427 78.8055,27.992 C79.1468,28.136 79.4295,28.344 79.6535,28.616 C79.8828,28.8827 80.0562,29.2053 80.1735,29.584 C80.2908,29.9627 80.3495,30.3813 80.3495,30.84 L80.3495,36 L78.9255,36 L78.9255,30.84 C78.9255,30.2267 78.7842,29.752 78.5015,29.416 C78.2242,29.0747 77.7975,28.904 77.2215,28.904 C76.8002,28.904 76.4055,29.0053 76.0375,29.208 C75.6748,29.4107 75.3388,29.6853 75.0295,30.032 L75.0295,36 L73.6055,36 Z M84.0801,27.896 L84.0801,36 L82.6561,36 L82.6561,27.896 L84.0801,27.896 Z M84.4001,25.352 C84.4001,25.4907 84.3708,25.6213 84.3121,25.744 C84.2588,25.8613 84.1841,25.968 84.0881,26.064 C83.9975,26.1547 83.8908,26.2267 83.7681,26.28 C83.6455,26.3333 83.5148,26.36 83.3761,26.36 C83.2375,26.36 83.1068,26.3333 82.9841,26.28 C82.8668,26.2267 82.7601,26.1547 82.6641,26.064 C82.5735,25.968 82.5015,25.8613 82.4481,25.744 C82.3948,25.6213 82.3681,25.4907 82.3681,25.352 C82.3681,25.2133 82.3948,25.0827 82.4481,24.96 C82.5015,24.832 82.5735,24.7227 82.6641,24.632 C82.7601,24.536 82.8668,24.4613 82.9841,24.408 C83.1068,24.3547 83.2375,24.328 83.3761,24.328 C83.5148,24.328 83.6455,24.3547 83.7681,24.408 C83.8908,24.4613 83.9975,24.536 84.0881,24.632 C84.1841,24.7227 84.2588,24.832 84.3121,24.96 C84.3708,25.0827 84.4001,25.2133 84.4001,25.352 Z M91.2299,29.232 C91.1659,29.3493 91.0672,29.408 90.9339,29.408 C90.8539,29.408 90.7632,29.3787 90.6619,29.32 C90.5605,29.2613 90.4352,29.1973 90.2859,29.128 C90.1419,29.0533 89.9685,28.9867 89.7659,28.928 C89.5632,28.864 89.3232,28.832 89.0459,28.832 C88.8059,28.832 88.5899,28.864 88.3979,28.928 C88.2059,28.9867 88.0405,29.0693 87.9019,29.176 C87.7685,29.2827 87.6645,29.408 87.5899,29.552 C87.5205,29.6907 87.4859,29.8427 87.4859,30.008 C87.4859,30.216 87.5445,30.3893 87.6619,30.528 C87.7845,30.6667 87.9445,30.7867 88.1419,30.888 C88.3392,30.9893 88.5632,31.08 88.8139,31.16 C89.0645,31.2347 89.3205,31.3173 89.5819,31.408 C89.8485,31.4933 90.1072,31.5893 90.3579,31.696 C90.6085,31.8027 90.8325,31.936 91.0299,32.096 C91.2272,32.256 91.3845,32.4533 91.5019,32.688 C91.6245,32.9173 91.6859,33.1947 91.6859,33.52 C91.6859,33.8933 91.6192,34.24 91.4859,34.56 C91.3525,34.8747 91.1552,35.1493 90.8939,35.384 C90.6325,35.6133 90.3125,35.7947 89.9339,35.928 C89.5552,36.0613 89.1179,36.128 88.6219,36.128 C88.0565,36.128 87.5445,36.0373 87.0859,35.856 C86.6272,35.6693 86.2379,35.432 85.9179,35.144 L86.2539,34.6 C86.2965,34.5307 86.3472,34.4773 86.4059,34.44 C86.4645,34.4027 86.5419,34.384 86.6379,34.384 C86.7339,34.384 86.8352,34.4213 86.9419,34.496 C87.0485,34.5707 87.1765,34.6533 87.3259,34.744 C87.4805,34.8347 87.6645,34.9173 87.8779,34.992 C88.0965,35.0667 88.3685,35.104 88.6939,35.104 C88.9712,35.104 89.2139,35.0693 89.4219,35 C89.6299,34.9253 89.8032,34.8267 89.9419,34.704 C90.0805,34.5813 90.1819,34.44 90.2459,34.28 C90.3152,34.12 90.3499,33.9493 90.3499,33.768 C90.3499,33.544 90.2885,33.36 90.1659,33.216 C90.0485,33.0667 89.8912,32.9413 89.6939,32.84 C89.4965,32.7333 89.2699,32.6427 89.0139,32.568 C88.7632,32.488 88.5045,32.4053 88.2379,32.32 C87.9765,32.2347 87.7179,32.1387 87.4619,32.032 C87.2112,31.92 86.9872,31.7813 86.7899,31.616 C86.5925,31.4507 86.4325,31.248 86.3099,31.008 C86.1925,30.7627 86.1339,30.4667 86.1339,30.12 C86.1339,29.8107 86.1979,29.5147 86.3259,29.232 C86.4539,28.944 86.6405,28.6933 86.8859,28.48 C87.1312,28.2613 87.4325,28.088 87.7899,27.96 C88.1472,27.832 88.5552,27.768 89.0139,27.768 C89.5472,27.768 90.0245,27.8533 90.4459,28.024 C90.8725,28.1893 91.2405,28.4187 91.5499,28.712 L91.2299,29.232 Z M98.2051,27.896 L98.2051,36 L96.7811,36 L96.7811,27.896 L98.2051,27.896 Z M98.5251,25.352 C98.5251,25.4907 98.4958,25.6213 98.4371,25.744 C98.3838,25.8613 98.3091,25.968 98.2131,26.064 C98.1225,26.1547 98.0158,26.2267 97.8931,26.28 C97.7705,26.3333 97.6398,26.36 97.5011,26.36 C97.3625,26.36 97.2318,26.3333 97.1091,26.28 C96.9918,26.2267 96.8851,26.1547 96.7891,26.064 C96.6985,25.968 96.6265,25.8613 96.5731,25.744 C96.5198,25.6213 96.4931,25.4907 96.4931,25.352 C96.4931,25.2133 96.5198,25.0827 96.5731,24.96 C96.6265,24.832 96.6985,24.7227 96.7891,24.632 C96.8851,24.536 96.9918,24.4613 97.1091,24.408 C97.2318,24.3547 97.3625,24.328 97.5011,24.328 C97.6398,24.328 97.7705,24.3547 97.8931,24.408 C98.0158,24.4613 98.1225,24.536 98.2131,24.632 C98.3091,24.7227 98.3838,24.832 98.4371,24.96 C98.4958,25.0827 98.5251,25.2133 98.5251,25.352 Z M105.355,29.232 C105.291,29.3493 105.192,29.408 105.059,29.408 C104.979,29.408 104.888,29.3787 104.787,29.32 C104.686,29.2613 104.56,29.1973 104.411,29.128 C104.267,29.0533 104.094,28.9867 103.891,28.928 C103.688,28.864 103.448,28.832 103.171,28.832 C102.931,28.832 102.715,28.864 102.523,28.928 C102.331,28.9867 102.166,29.0693 102.027,29.176 C101.894,29.2827 101.79,29.408 101.715,29.552 C101.646,29.6907 101.611,29.8427 101.611,30.008 C101.611,30.216 101.67,30.3893 101.787,30.528 C101.91,30.6667 102.07,30.7867 102.267,30.888 C102.464,30.9893 102.688,31.08 102.939,31.16 C103.19,31.2347 103.446,31.3173 103.707,31.408 C103.974,31.4933 104.232,31.5893 104.483,31.696 C104.734,31.8027 104.958,31.936 105.155,32.096 C105.352,32.256 105.51,32.4533 105.627,32.688 C105.75,32.9173 105.811,33.1947 105.811,33.52 C105.811,33.8933 105.744,34.24 105.611,34.56 C105.478,34.8747 105.28,35.1493 105.019,35.384 C104.758,35.6133 104.438,35.7947 104.059,35.928 C103.68,36.0613 103.243,36.128 102.747,36.128 C102.182,36.128 101.67,36.0373 101.211,35.856 C100.752,35.6693 100.363,35.432 100.043,35.144 L100.379,34.6 C100.422,34.5307 100.472,34.4773 100.531,34.44 C100.59,34.4027 100.667,34.384 100.763,34.384 C100.859,34.384 100.96,34.4213 101.067,34.496 C101.174,34.5707 101.302,34.6533 101.451,34.744 C101.606,34.8347 101.79,34.9173 102.003,34.992 C102.222,35.0667 102.494,35.104 102.819,35.104 C103.096,35.104 103.339,35.0693 103.547,35 C103.755,34.9253 103.928,34.8267 104.067,34.704 C104.206,34.5813 104.307,34.44 104.371,34.28 C104.44,34.12 104.475,33.9493 104.475,33.768 C104.475,33.544 104.414,33.36 104.291,33.216 C104.174,33.0667 104.016,32.9413 103.819,32.84 C103.622,32.7333 103.395,32.6427 103.139,32.568 C102.888,32.488 102.63,32.4053 102.363,32.32 C102.102,32.2347 101.843,32.1387 101.587,32.032 C101.336,31.92 101.112,31.7813 100.915,31.616 C100.718,31.4507 100.558,31.248 100.435,31.008 C100.318,30.7627 100.259,30.4667 100.259,30.12 C100.259,29.8107 100.323,29.5147 100.451,29.232 C100.579,28.944 100.766,28.6933 101.011,28.48 C101.256,28.2613 101.558,28.088 101.915,27.96 C102.272,27.832 102.68,27.768 103.139,27.768 C103.672,27.768 104.15,27.8533 104.571,28.024 C104.998,28.1893 105.366,28.4187 105.675,28.712 L105.355,29.232 Z M116.698,36 L116.066,36 C115.927,36 115.815,35.9787 115.73,35.936 C115.645,35.8933 115.589,35.8027 115.562,35.664 L115.402,34.912 C115.189,35.104 114.981,35.2773 114.778,35.432 C114.575,35.5813 114.362,35.7093 114.138,35.816 C113.914,35.9173 113.674,35.9947 113.418,36.048 C113.167,36.1013 112.887,36.128 112.578,36.128 C112.263,36.128 111.967,36.0853 111.69,36 C111.418,35.9093 111.181,35.776 110.978,35.6 C110.775,35.424 110.613,35.2027 110.49,34.936 C110.373,34.664 110.314,34.344 110.314,33.976 C110.314,33.656 110.402,33.3493 110.578,33.056 C110.754,32.7573 111.037,32.4933 111.426,32.264 C111.821,32.0347 112.335,31.848 112.97,31.704 C113.605,31.5547 114.381,31.4693 115.298,31.448 L115.298,30.816 C115.298,30.1867 115.162,29.712 114.89,29.392 C114.623,29.0667 114.226,28.904 113.698,28.904 C113.351,28.904 113.058,28.9493 112.818,29.04 C112.583,29.1253 112.378,29.224 112.202,29.336 C112.031,29.4427 111.882,29.5413 111.754,29.632 C111.631,29.7173 111.509,29.76 111.386,29.76 C111.29,29.76 111.205,29.736 111.13,29.688 C111.061,29.6347 111.005,29.5707 110.962,29.496 L110.706,29.04 C111.154,28.608 111.637,28.2853 112.154,28.072 C112.671,27.8587 113.245,27.752 113.874,27.752 C114.327,27.752 114.73,27.8267 115.082,27.976 C115.434,28.1253 115.73,28.3333 115.97,28.6 C116.21,28.8667 116.391,29.1893 116.514,29.568 C116.637,29.9467 116.698,30.3627 116.698,30.816 L116.698,36 Z M113.002,35.128 C113.253,35.128 113.482,35.104 113.69,35.056 C113.898,35.0027 114.093,34.9307 114.274,34.84 C114.461,34.744 114.637,34.6293 114.802,34.496 C114.973,34.3627 115.138,34.2107 115.298,34.04 L115.298,32.352 C114.642,32.3733 114.085,32.4267 113.626,32.512 C113.167,32.592 112.794,32.6987 112.506,32.832 C112.218,32.9653 112.007,33.1227 111.874,33.304 C111.746,33.4853 111.682,33.688 111.682,33.912 C111.682,34.1253 111.717,34.3093 111.786,34.464 C111.855,34.6187 111.949,34.7467 112.066,34.848 C112.183,34.944 112.322,35.016 112.482,35.064 C112.642,35.1067 112.815,35.128 113.002,35.128 Z M118.856,36 L118.856,27.896 L119.704,27.896 C119.906,27.896 120.034,27.9947 120.088,28.192 L120.2,29.072 C120.552,28.6827 120.944,28.368 121.376,28.128 C121.813,27.888 122.317,27.768 122.888,27.768 C123.33,27.768 123.72,27.8427 124.056,27.992 C124.397,28.136 124.68,28.344 124.904,28.616 C125.133,28.8827 125.306,29.2053 125.424,29.584 C125.541,29.9627 125.6,30.3813 125.6,30.84 L125.6,36 L124.176,36 L124.176,30.84 C124.176,30.2267 124.034,29.752 123.752,29.416 C123.474,29.0747 123.048,28.904 122.472,28.904 C122.05,28.904 121.656,29.0053 121.288,29.208 C120.925,29.4107 120.589,29.6853 120.28,30.032 L120.28,36 L118.856,36 Z M132.424,27.896 L132.424,36 L131,36 L131,27.896 L132.424,27.896 Z M132.744,25.352 C132.744,25.4907 132.715,25.6213 132.656,25.744 C132.603,25.8613 132.528,25.968 132.432,26.064 C132.341,26.1547 132.235,26.2267 132.112,26.28 C131.989,26.3333 131.859,26.36 131.72,26.36 C131.581,26.36 131.451,26.3333 131.328,26.28 C131.211,26.2267 131.104,26.1547 131.008,26.064 C130.917,25.968 130.845,25.8613 130.792,25.744 C130.739,25.6213 130.712,25.4907 130.712,25.352 C130.712,25.2133 130.739,25.0827 130.792,24.96 C130.845,24.832 130.917,24.7227 131.008,24.632 C131.104,24.536 131.211,24.4613 131.328,24.408 C131.451,24.3547 131.581,24.328 131.72,24.328 C131.859,24.328 131.989,24.3547 132.112,24.408 C132.235,24.4613 132.341,24.536 132.432,24.632 C132.528,24.7227 132.603,24.832 132.656,24.96 C132.715,25.0827 132.744,25.2133 132.744,25.352 Z M134.934,36 L134.934,27.896 L135.782,27.896 C135.984,27.896 136.112,27.9947 136.166,28.192 L136.278,29.072 C136.63,28.6827 137.022,28.368 137.454,28.128 C137.891,27.888 138.395,27.768 138.966,27.768 C139.408,27.768 139.798,27.8427 140.134,27.992 C140.475,28.136 140.758,28.344 140.982,28.616 C141.211,28.8827 141.384,29.2053 141.502,29.584 C141.619,29.9627 141.678,30.3813 141.678,30.84 L141.678,36 L140.254,36 L140.254,30.84 C140.254,30.2267 140.112,29.752 139.83,29.416 C139.552,29.0747 139.126,28.904 138.55,28.904 C138.128,28.904 137.734,29.0053 137.366,29.208 C137.003,29.4107 136.667,29.6853 136.358,30.032 L136.358,36 L134.934,36 Z M144.144,36 L144.144,29.112 L143.248,29.008 C143.136,28.9813 143.043,28.9413 142.968,28.888 C142.899,28.8293 142.864,28.7467 142.864,28.64 L142.864,28.056 L144.144,28.056 L144.144,27.272 C144.144,26.808 144.208,26.3973 144.336,26.04 C144.47,25.6773 144.656,25.3733 144.896,25.128 C145.142,24.8773 145.435,24.688 145.776,24.56 C146.118,24.432 146.502,24.368 146.928,24.368 C147.291,24.368 147.627,24.4213 147.936,24.528 L147.904,25.24 C147.899,25.3467 147.854,25.4107 147.768,25.432 C147.683,25.4533 147.563,25.464 147.408,25.464 L147.16,25.464 C146.915,25.464 146.691,25.496 146.488,25.56 C146.291,25.624 146.12,25.728 145.976,25.872 C145.832,26.016 145.72,26.2053 145.64,26.44 C145.566,26.6747 145.528,26.9653 145.528,27.312 L145.528,28.056 L147.872,28.056 L147.872,29.088 L145.576,29.088 L145.576,36 L144.144,36 Z M152.495,27.768 C153.087,27.768 153.62,27.8667 154.095,28.064 C154.575,28.2613 154.98,28.5413 155.311,28.904 C155.647,29.2667 155.903,29.7067 156.079,30.224 C156.26,30.736 156.351,31.3093 156.351,31.944 C156.351,32.584 156.26,33.16 156.079,33.672 C155.903,34.184 155.647,34.6213 155.311,34.984 C154.98,35.3467 154.575,35.6267 154.095,35.824 C153.62,36.016 153.087,36.112 152.495,36.112 C151.903,36.112 151.367,36.016 150.887,35.824 C150.412,35.6267 150.007,35.3467 149.671,34.984 C149.335,34.6213 149.076,34.184 148.895,33.672 C148.714,33.16 148.623,32.584 148.623,31.944 C148.623,31.3093 148.714,30.736 148.895,30.224 C149.076,29.7067 149.335,29.2667 149.671,28.904 C150.007,28.5413 150.412,28.2613 150.887,28.064 C151.367,27.8667 151.903,27.768 152.495,27.768 Z M152.495,35 C153.295,35 153.892,34.7333 154.287,34.2 C154.682,33.6613 154.879,32.912 154.879,31.952 C154.879,30.9867 154.682,30.2347 154.287,29.696 C153.892,29.1573 153.295,28.888 152.495,28.888 C152.09,28.888 151.738,28.9573 151.439,29.096 C151.14,29.2347 150.89,29.4347 150.687,29.696 C150.49,29.9573 150.34,30.28 150.239,30.664 C150.143,31.0427 150.095,31.472 150.095,31.952 C150.095,32.432 150.143,32.8613 150.239,33.24 C150.34,33.6187 150.49,33.9387 150.687,34.2 C150.89,34.456 151.14,34.6533 151.439,34.792 C151.738,34.9307 152.09,35 152.495,35 Z M158.106,36 L158.106,27.896 L158.922,27.896 C159.076,27.896 159.183,27.9253 159.242,27.984 C159.3,28.0427 159.34,28.144 159.362,28.288 L159.458,29.552 C159.735,28.9867 160.076,28.5467 160.482,28.232 C160.892,27.912 161.372,27.752 161.922,27.752 C162.146,27.752 162.348,27.7787 162.53,27.832 C162.711,27.88 162.879,27.9493 163.034,28.04 L162.85,29.104 C162.812,29.2373 162.73,29.304 162.602,29.304 C162.527,29.304 162.412,29.28 162.258,29.232 C162.103,29.1787 161.887,29.152 161.61,29.152 C161.114,29.152 160.698,29.296 160.362,29.584 C160.031,29.872 159.754,30.2907 159.53,30.84 L159.53,36 L158.106,36 Z M164.559,36 L164.559,27.896 L165.407,27.896 C165.609,27.896 165.737,27.9947 165.791,28.192 L165.895,29.024 C166.193,28.656 166.527,28.3547 166.895,28.12 C167.268,27.8853 167.7,27.768 168.191,27.768 C168.74,27.768 169.183,27.92 169.519,28.224 C169.86,28.528 170.105,28.9387 170.255,29.456 C170.367,29.1627 170.513,28.9093 170.695,28.696 C170.881,28.4827 171.089,28.3067 171.319,28.168 C171.548,28.0293 171.791,27.928 172.047,27.864 C172.308,27.8 172.572,27.768 172.839,27.768 C173.265,27.768 173.644,27.8373 173.975,27.976 C174.311,28.1093 174.593,28.3067 174.823,28.568 C175.057,28.8293 175.236,29.152 175.359,29.536 C175.481,29.9147 175.543,30.3493 175.543,30.84 L175.543,36 L174.119,36 L174.119,30.84 C174.119,30.2053 173.98,29.7253 173.703,29.4 C173.425,29.0693 173.023,28.904 172.495,28.904 C172.26,28.904 172.036,28.9467 171.823,29.032 C171.615,29.112 171.431,29.232 171.271,29.392 C171.111,29.552 170.983,29.7547 170.887,30 C170.796,30.24 170.751,30.52 170.751,30.84 L170.751,36 L169.327,36 L169.327,30.84 C169.327,30.1893 169.196,29.704 168.935,29.384 C168.673,29.064 168.292,28.904 167.791,28.904 C167.439,28.904 167.111,29 166.807,29.192 C166.508,29.3787 166.233,29.6347 165.983,29.96 L165.983,36 L164.559,36 Z M183.651,36 L183.019,36 C182.881,36 182.769,35.9787 182.683,35.936 C182.598,35.8933 182.542,35.8027 182.515,35.664 L182.355,34.912 C182.142,35.104 181.934,35.2773 181.731,35.432 C181.529,35.5813 181.315,35.7093 181.091,35.816 C180.867,35.9173 180.627,35.9947 180.371,36.048 C180.121,36.1013 179.841,36.128 179.531,36.128 C179.217,36.128 178.921,36.0853 178.643,36 C178.371,35.9093 178.134,35.776 177.931,35.6 C177.729,35.424 177.566,35.2027 177.443,34.936 C177.326,34.664 177.267,34.344 177.267,33.976 C177.267,33.656 177.355,33.3493 177.531,33.056 C177.707,32.7573 177.99,32.4933 178.379,32.264 C178.774,32.0347 179.289,31.848 179.923,31.704 C180.558,31.5547 181.334,31.4693 182.251,31.448 L182.251,30.816 C182.251,30.1867 182.115,29.712 181.843,29.392 C181.577,29.0667 181.179,28.904 180.651,28.904 C180.305,28.904 180.011,28.9493 179.771,29.04 C179.537,29.1253 179.331,29.224 179.155,29.336 C178.985,29.4427 178.835,29.5413 178.707,29.632 C178.585,29.7173 178.462,29.76 178.339,29.76 C178.243,29.76 178.158,29.736 178.083,29.688 C178.014,29.6347 177.958,29.5707 177.915,29.496 L177.659,29.04 C178.107,28.608 178.59,28.2853 179.107,28.072 C179.625,27.8587 180.198,27.752 180.827,27.752 C181.281,27.752 181.683,27.8267 182.035,27.976 C182.387,28.1253 182.683,28.3333 182.923,28.6 C183.163,28.8667 183.345,29.1893 183.467,29.568 C183.59,29.9467 183.651,30.3627 183.651,30.816 L183.651,36 Z M179.955,35.128 C180.206,35.128 180.435,35.104 180.643,35.056 C180.851,35.0027 181.046,34.9307 181.227,34.84 C181.414,34.744 181.59,34.6293 181.755,34.496 C181.926,34.3627 182.091,34.2107 182.251,34.04 L182.251,32.352 C181.595,32.3733 181.038,32.4267 180.579,32.512 C180.121,32.592 179.747,32.6987 179.459,32.832 C179.171,32.9653 178.961,33.1227 178.827,33.304 C178.699,33.4853 178.635,33.688 178.635,33.912 C178.635,34.1253 178.67,34.3093 178.739,34.464 C178.809,34.6187 178.902,34.7467 179.019,34.848 C179.137,34.944 179.275,35.016 179.435,35.064 C179.595,35.1067 179.769,35.128 179.955,35.128 Z M188.265,36.128 C187.625,36.128 187.131,35.9493 186.785,35.592 C186.443,35.2347 186.273,34.72 186.273,34.048 L186.273,29.088 L185.297,29.088 C185.211,29.088 185.139,29.064 185.081,29.016 C185.022,28.9627 184.993,28.8827 184.993,28.776 L184.993,28.208 L186.321,28.04 L186.649,25.536 C186.659,25.456 186.694,25.392 186.753,25.344 C186.811,25.2907 186.886,25.264 186.977,25.264 L187.697,25.264 L187.697,28.056 L190.017,28.056 L190.017,29.088 L187.697,29.088 L187.697,33.952 C187.697,34.2933 187.779,34.5467 187.945,34.712 C188.11,34.8773 188.323,34.96 188.585,34.96 C188.734,34.96 188.862,34.9413 188.969,34.904 C189.081,34.8613 189.177,34.816 189.257,34.768 C189.337,34.72 189.403,34.6773 189.457,34.64 C189.515,34.5973 189.566,34.576 189.609,34.576 C189.683,34.576 189.75,34.6213 189.809,34.712 L190.225,35.392 C189.979,35.6213 189.683,35.8027 189.337,35.936 C188.99,36.064 188.633,36.128 188.265,36.128 Z M193.361,27.896 L193.361,36 L191.937,36 L191.937,27.896 L193.361,27.896 Z M193.681,25.352 C193.681,25.4907 193.652,25.6213 193.593,25.744 C193.54,25.8613 193.465,25.968 193.369,26.064 C193.279,26.1547 193.172,26.2267 193.049,26.28 C192.927,26.3333 192.796,26.36 192.657,26.36 C192.519,26.36 192.388,26.3333 192.265,26.28 C192.148,26.2267 192.041,26.1547 191.945,26.064 C191.855,25.968 191.783,25.8613 191.729,25.744 C191.676,25.6213 191.649,25.4907 191.649,25.352 C191.649,25.2133 191.676,25.0827 191.729,24.96 C191.783,24.832 191.855,24.7227 191.945,24.632 C192.041,24.536 192.148,24.4613 192.265,24.408 C192.388,24.3547 192.519,24.328 192.657,24.328 C192.796,24.328 192.927,24.3547 193.049,24.408 C193.172,24.4613 193.279,24.536 193.369,24.632 C193.465,24.7227 193.54,24.832 193.593,24.96 C193.652,25.0827 193.681,25.2133 193.681,25.352 Z M199.151,27.768 C199.743,27.768 200.276,27.8667 200.751,28.064 C201.231,28.2613 201.636,28.5413 201.967,28.904 C202.303,29.2667 202.559,29.7067 202.735,30.224 C202.916,30.736 203.007,31.3093 203.007,31.944 C203.007,32.584 202.916,33.16 202.735,33.672 C202.559,34.184 202.303,34.6213 201.967,34.984 C201.636,35.3467 201.231,35.6267 200.751,35.824 C200.276,36.016 199.743,36.112 199.151,36.112 C198.559,36.112 198.023,36.016 197.543,35.824 C197.068,35.6267 196.663,35.3467 196.327,34.984 C195.991,34.6213 195.732,34.184 195.551,33.672 C195.37,33.16 195.279,32.584 195.279,31.944 C195.279,31.3093 195.37,30.736 195.551,30.224 C195.732,29.7067 195.991,29.2667 196.327,28.904 C196.663,28.5413 197.068,28.2613 197.543,28.064 C198.023,27.8667 198.559,27.768 199.151,27.768 Z M199.151,35 C199.951,35 200.548,34.7333 200.943,34.2 C201.338,33.6613 201.535,32.912 201.535,31.952 C201.535,30.9867 201.338,30.2347 200.943,29.696 C200.548,29.1573 199.951,28.888 199.151,28.888 C198.746,28.888 198.394,28.9573 198.095,29.096 C197.796,29.2347 197.546,29.4347 197.343,29.696 C197.146,29.9573 196.996,30.28 196.895,30.664 C196.799,31.0427 196.751,31.472 196.751,31.952 C196.751,32.432 196.799,32.8613 196.895,33.24 C196.996,33.6187 197.146,33.9387 197.343,34.2 C197.546,34.456 197.796,34.6533 198.095,34.792 C198.394,34.9307 198.746,35 199.151,35 Z M204.762,36 L204.762,27.896 L205.61,27.896 C205.812,27.896 205.94,27.9947 205.994,28.192 L206.106,29.072 C206.458,28.6827 206.85,28.368 207.282,28.128 C207.719,27.888 208.223,27.768 208.794,27.768 C209.236,27.768 209.626,27.8427 209.962,27.992 C210.303,28.136 210.586,28.344 210.81,28.616 C211.039,28.8827 211.212,29.2053 211.33,29.584 C211.447,29.9627 211.506,30.3813 211.506,30.84 L211.506,36 L210.082,36 L210.082,30.84 C210.082,30.2267 209.94,29.752 209.658,29.416 C209.38,29.0747 208.954,28.904 208.378,28.904 C207.956,28.904 207.562,29.0053 207.194,29.208 C206.831,29.4107 206.495,29.6853 206.186,30.032 L206.186,36 L204.762,36 Z M219.202,36.128 C218.562,36.128 218.069,35.9493 217.722,35.592 C217.381,35.2347 217.21,34.72 217.21,34.048 L217.21,29.088 L216.234,29.088 C216.149,29.088 216.077,29.064 216.018,29.016 C215.959,28.9627 215.93,28.8827 215.93,28.776 L215.93,28.208 L217.258,28.04 L217.586,25.536 C217.597,25.456 217.631,25.392 217.69,25.344 C217.749,25.2907 217.823,25.264 217.914,25.264 L218.634,25.264 L218.634,28.056 L220.954,28.056 L220.954,29.088 L218.634,29.088 L218.634,33.952 C218.634,34.2933 218.717,34.5467 218.882,34.712 C219.047,34.8773 219.261,34.96 219.522,34.96 C219.671,34.96 219.799,34.9413 219.906,34.904 C220.018,34.8613 220.114,34.816 220.194,34.768 C220.274,34.72 220.341,34.6773 220.394,34.64 C220.453,34.5973 220.503,34.576 220.546,34.576 C220.621,34.576 220.687,34.6213 220.746,34.712 L221.162,35.392 C220.917,35.6213 220.621,35.8027 220.274,35.936 C219.927,36.064 219.57,36.128 219.202,36.128 Z M225.995,27.768 C226.587,27.768 227.12,27.8667 227.595,28.064 C228.075,28.2613 228.48,28.5413 228.811,28.904 C229.147,29.2667 229.403,29.7067 229.579,30.224 C229.76,30.736 229.851,31.3093 229.851,31.944 C229.851,32.584 229.76,33.16 229.579,33.672 C229.403,34.184 229.147,34.6213 228.811,34.984 C228.48,35.3467 228.075,35.6267 227.595,35.824 C227.12,36.016 226.587,36.112 225.995,36.112 C225.403,36.112 224.867,36.016 224.387,35.824 C223.912,35.6267 223.507,35.3467 223.171,34.984 C222.835,34.6213 222.576,34.184 222.395,33.672 C222.214,33.16 222.123,32.584 222.123,31.944 C222.123,31.3093 222.214,30.736 222.395,30.224 C222.576,29.7067 222.835,29.2667 223.171,28.904 C223.507,28.5413 223.912,28.2613 224.387,28.064 C224.867,27.8667 225.403,27.768 225.995,27.768 Z M225.995,35 C226.795,35 227.392,34.7333 227.787,34.2 C228.182,33.6613 228.379,32.912 228.379,31.952 C228.379,30.9867 228.182,30.2347 227.787,29.696 C227.392,29.1573 226.795,28.888 225.995,28.888 C225.59,28.888 225.238,28.9573 224.939,29.096 C224.64,29.2347 224.39,29.4347 224.187,29.696 C223.99,29.9573 223.84,30.28 223.739,30.664 C223.643,31.0427 223.595,31.472 223.595,31.952 C223.595,32.432 223.643,32.8613 223.739,33.24 C223.84,33.6187 223.99,33.9387 224.187,34.2 C224.39,34.456 224.64,34.6533 224.939,34.792 C225.238,34.9307 225.59,35 225.995,35 Z M237.558,36 L236.926,36 C236.787,36 236.675,35.9787 236.59,35.936 C236.504,35.8933 236.448,35.8027 236.422,35.664 L236.262,34.912 C236.048,35.104 235.84,35.2773 235.638,35.432 C235.435,35.5813 235.222,35.7093 234.998,35.816 C234.774,35.9173 234.534,35.9947 234.278,36.048 C234.027,36.1013 233.747,36.128 233.438,36.128 C233.123,36.128 232.827,36.0853 232.549,36 C232.278,35.9093 232.04,35.776 231.838,35.6 C231.635,35.424 231.472,35.2027 231.35,34.936 C231.232,34.664 231.174,34.344 231.174,33.976 C231.174,33.656 231.262,33.3493 231.438,33.056 C231.614,32.7573 231.896,32.4933 232.286,32.264 C232.68,32.0347 233.195,31.848 233.83,31.704 C234.464,31.5547 235.24,31.4693 236.158,31.448 L236.158,30.816 C236.158,30.1867 236.022,29.712 235.75,29.392 C235.483,29.0667 235.086,28.904 234.558,28.904 C234.211,28.904 233.918,28.9493 233.678,29.04 C233.443,29.1253 233.238,29.224 233.062,29.336 C232.891,29.4427 232.742,29.5413 232.614,29.632 C232.491,29.7173 232.368,29.76 232.246,29.76 C232.15,29.76 232.064,29.736 231.99,29.688 C231.92,29.6347 231.864,29.5707 231.822,29.496 L231.566,29.04 C232.014,28.608 232.496,28.2853 233.014,28.072 C233.531,27.8587 234.104,27.752 234.734,27.752 C235.187,27.752 235.59,27.8267 235.942,27.976 C236.294,28.1253 236.59,28.3333 236.83,28.6 C237.07,28.8667 237.251,29.1893 237.374,29.568 C237.496,29.9467 237.558,30.3627 237.558,30.816 L237.558,36 Z M233.862,35.128 C234.112,35.128 234.342,35.104 234.549,35.056 C234.758,35.0027 234.952,34.9307 235.134,34.84 C235.32,34.744 235.496,34.6293 235.662,34.496 C235.832,34.3627 235.998,34.2107 236.158,34.04 L236.158,32.352 C235.502,32.3733 234.944,32.4267 234.486,32.512 C234.027,32.592 233.654,32.6987 233.366,32.832 C233.078,32.9653 232.867,33.1227 232.734,33.304 C232.606,33.4853 232.542,33.688 232.542,33.912 C232.542,34.1253 232.576,34.3093 232.646,34.464 C232.715,34.6187 232.808,34.7467 232.926,34.848 C233.043,34.944 233.182,35.016 233.342,35.064 C233.502,35.1067 233.675,35.128 233.862,35.128 Z M244.355,29.232 C244.291,29.3493 244.192,29.408 244.059,29.408 C243.979,29.408 243.888,29.3787 243.787,29.32 C243.686,29.2613 243.56,29.1973 243.411,29.128 C243.267,29.0533 243.094,28.9867 242.891,28.928 C242.688,28.864 242.448,28.832 242.171,28.832 C241.931,28.832 241.715,28.864 241.523,28.928 C241.331,28.9867 241.166,29.0693 241.027,29.176 C240.894,29.2827 240.79,29.408 240.715,29.552 C240.646,29.6907 240.611,29.8427 240.611,30.008 C240.611,30.216 240.67,30.3893 240.787,30.528 C240.91,30.6667 241.07,30.7867 241.267,30.888 C241.464,30.9893 241.688,31.08 241.939,31.16 C242.19,31.2347 242.446,31.3173 242.707,31.408 C242.974,31.4933 243.232,31.5893 243.483,31.696 C243.734,31.8027 243.958,31.936 244.155,32.096 C244.352,32.256 244.51,32.4533 244.627,32.688 C244.75,32.9173 244.811,33.1947 244.811,33.52 C244.811,33.8933 244.744,34.24 244.611,34.56 C244.478,34.8747 244.28,35.1493 244.019,35.384 C243.758,35.6133 243.438,35.7947 243.059,35.928 C242.68,36.0613 242.243,36.128 241.747,36.128 C241.182,36.128 240.67,36.0373 240.211,35.856 C239.752,35.6693 239.363,35.432 239.043,35.144 L239.379,34.6 C239.422,34.5307 239.472,34.4773 239.531,34.44 C239.59,34.4027 239.667,34.384 239.763,34.384 C239.859,34.384 239.96,34.4213 240.067,34.496 C240.174,34.5707 240.302,34.6533 240.451,34.744 C240.606,34.8347 240.79,34.9173 241.003,34.992 C241.222,35.0667 241.494,35.104 241.819,35.104 C242.096,35.104 242.339,35.0693 242.547,35 C242.755,34.9253 242.928,34.8267 243.067,34.704 C243.206,34.5813 243.307,34.44 243.371,34.28 C243.44,34.12 243.475,33.9493 243.475,33.768 C243.475,33.544 243.414,33.36 243.291,33.216 C243.174,33.0667 243.016,32.9413 242.819,32.84 C242.622,32.7333 242.395,32.6427 242.139,32.568 C241.888,32.488 241.63,32.4053 241.363,32.32 C241.102,32.2347 240.843,32.1387 240.587,32.032 C240.336,31.92 240.112,31.7813 239.915,31.616 C239.718,31.4507 239.558,31.248 239.435,31.008 C239.318,30.7627 239.259,30.4667 239.259,30.12 C239.259,29.8107 239.323,29.5147 239.451,29.232 C239.579,28.944 239.766,28.6933 240.011,28.48 C240.256,28.2613 240.558,28.088 240.915,27.96 C241.272,27.832 241.68,27.768 242.139,27.768 C242.672,27.768 243.15,27.8533 243.571,28.024 C243.998,28.1893 244.366,28.4187 244.675,28.712 L244.355,29.232 Z M249.108,36.128 C248.468,36.128 247.975,35.9493 247.628,35.592 C247.287,35.2347 247.116,34.72 247.116,34.048 L247.116,29.088 L246.14,29.088 C246.055,29.088 245.983,29.064 245.924,29.016 C245.866,28.9627 245.836,28.8827 245.836,28.776 L245.836,28.208 L247.164,28.04 L247.492,25.536 C247.503,25.456 247.538,25.392 247.596,25.344 C247.655,25.2907 247.73,25.264 247.82,25.264 L248.54,25.264 L248.54,28.056 L250.86,28.056 L250.86,29.088 L248.54,29.088 L248.54,33.952 C248.54,34.2933 248.623,34.5467 248.788,34.712 C248.954,34.8773 249.167,34.96 249.428,34.96 C249.578,34.96 249.706,34.9413 249.812,34.904 C249.924,34.8613 250.02,34.816 250.1,34.768 C250.18,34.72 250.247,34.6773 250.3,34.64 C250.359,34.5973 250.41,34.576 250.452,34.576 C250.527,34.576 250.594,34.6213 250.652,34.712 L251.068,35.392 C250.823,35.6213 250.527,35.8027 250.18,35.936 C249.834,36.064 249.476,36.128 249.108,36.128 Z" id="Shape" fill="#FFFFFF" fill-rule="nonzero"></path>
            <circle id="Oval" fill="#4BACF1" fill-rule="nonzero" cx="32" cy="30" r="16"></circle>
            <path d="M31.7885,20.0324 C30.9935,20.0028 30.2601,20.459 29.9352,21.1853 C29.6102,21.9116 29.7588,22.7624 30.3106,23.3356 C30.8624,23.9087 31.707,24.0894 32.445,23.7921 C33.183,23.4949 33.6666,22.7792 33.6671,21.9836 C33.6843,20.9271 32.8448,20.0553 31.7885,20.0324 Z" id="Path" fill="#3F3F3F"></path>
            <path d="M33.7373,27.3682 C33.7578,26.8576 33.4854,26.3771 33.0272,26.116 C32.569,25.8549 31.9986,25.8549 31.5404,26.116 C31.0823,26.3771 30.8098,26.8576 30.8304,27.3682 L30.8304,36.1085 C30.8098,36.6191 31.0823,37.0995 31.5404,37.3607 C31.9986,37.6218 32.569,37.6218 33.0272,37.3607 C33.4854,37.0995 33.7578,36.6191 33.7373,36.1085 L33.7373,27.3682 Z" id="Path" fill="#3F3F3F"></path>
            <path d="M32.0775,28.7573 C32.5881,28.7778 33.0685,28.5053 33.3297,28.0472 C33.5908,27.589 33.5908,27.0186 33.3297,26.5604 C33.0685,26.1023 32.5881,25.8298 32.0775,25.8503 L29.9713,25.8503 C29.4607,25.8298 28.9803,26.1023 28.7192,26.5604 C28.458,27.0186 28.458,27.589 28.7192,28.0472 C28.9803,28.5053 29.4607,28.7778 29.9713,28.7573 L32.0775,28.7573 Z" id="Path" fill="#3F3F3F"></path>
            <path d="M35.164,37.7328 C35.6745,37.7534 36.155,37.4809 36.4161,37.0228 C36.6773,36.5646 36.6773,35.9941 36.4161,35.536 C36.155,35.0778 35.6745,34.8054 35.164,34.8259 L29.1553,34.8259 C28.6448,34.8054 28.1643,35.0778 27.9032,35.536 C27.642,35.9941 27.642,36.5646 27.9032,37.0228 C28.1643,37.4809 28.6448,37.7534 29.1553,37.7328 L35.164,37.7328 Z" id="Path" fill="#3F3F3F"></path>
        </g>
    </g>
</svg>