<?xml version="1.0" encoding="UTF-8"?>
<svg width="530px" height="90px" viewBox="0 0 530 90" version="1.1" xmlns="http://www.w3.org/2000/svg" xmlns:xlink="http://www.w3.org/1999/xlink">
    <title>max-width</title>
    <g id="Page-1" stroke="none" stroke-width="1" fill="none" fill-rule="evenodd">
        <g id="max-width" transform="translate(0.000000, 0.408000)">
            <rect id="Rectangle" fill="#3F3F3F" fill-rule="nonzero" x="0" y="29.592" width="530" height="60" rx="30"></rect>
            <path d="M63.112,46.128 L64.4,46.128 C64.5387,46.128 64.6533,46.1627 64.744,46.232 C64.8347,46.3013 64.896,46.3893 64.928,46.496 L67.296,54.464 C67.3387,54.608 67.376,54.7627 67.408,54.928 C67.4453,55.0933 67.48,55.2667 67.512,55.448 C67.5493,55.2667 67.5867,55.0933 67.624,54.928 C67.6613,54.7573 67.704,54.6027 67.752,54.464 L70.448,46.496 C70.48,46.4053 70.5413,46.3227 70.632,46.248 C70.728,46.168 70.8427,46.128 70.976,46.128 L71.424,46.128 C71.5627,46.128 71.6747,46.1627 71.76,46.232 C71.8507,46.3013 71.9147,46.3893 71.952,46.496 L74.632,54.464 C74.728,54.7413 74.8133,55.0587 74.888,55.416 C74.92,55.24 74.9493,55.072 74.976,54.912 C75.0027,54.752 75.0373,54.6027 75.08,54.464 L77.456,46.496 C77.4827,46.4 77.5413,46.3147 77.632,46.24 C77.728,46.1653 77.8427,46.128 77.976,46.128 L79.184,46.128 L75.608,57.592 L74.216,57.592 L71.312,48.848 C71.2533,48.6827 71.2,48.4907 71.152,48.272 C71.1253,48.3787 71.0987,48.4827 71.072,48.584 C71.0507,48.68 71.0267,48.768 71,48.848 L68.08,57.592 L66.688,57.592 L63.112,46.128 Z M83.4229,49.36 C83.9082,49.36 84.3562,49.4427 84.7669,49.608 C85.1775,49.768 85.5322,50.0027 85.8309,50.312 C86.1295,50.616 86.3615,50.9947 86.5269,51.448 C86.6975,51.896 86.7829,52.408 86.7829,52.984 C86.7829,53.208 86.7589,53.3573 86.7109,53.432 C86.6629,53.5067 86.5722,53.544 86.4389,53.544 L81.0469,53.544 C81.0575,54.056 81.1269,54.5013 81.2549,54.88 C81.3829,55.2587 81.5589,55.576 81.7829,55.832 C82.0069,56.0827 82.2735,56.272 82.5829,56.4 C82.8922,56.5227 83.2389,56.584 83.6229,56.584 C83.9802,56.584 84.2869,56.544 84.5429,56.464 C84.8042,56.3787 85.0282,56.288 85.2149,56.192 C85.4015,56.096 85.5562,56.008 85.6789,55.928 C85.8069,55.8427 85.9162,55.8 86.0069,55.8 C86.1242,55.8 86.2149,55.8453 86.2789,55.936 L86.6789,56.456 C86.5029,56.6693 86.2922,56.856 86.0469,57.016 C85.8015,57.1707 85.5375,57.2987 85.2549,57.4 C84.9775,57.5013 84.6895,57.576 84.3909,57.624 C84.0922,57.6773 83.7962,57.704 83.5029,57.704 C82.9429,57.704 82.4255,57.6107 81.9509,57.424 C81.4815,57.232 81.0735,56.9547 80.7269,56.592 C80.3855,56.224 80.1189,55.7707 79.9269,55.232 C79.7349,54.6933 79.6389,54.0747 79.6389,53.376 C79.6389,52.8107 79.7242,52.2827 79.8949,51.792 C80.0709,51.3013 80.3215,50.8773 80.6469,50.52 C80.9722,50.1573 81.3695,49.8747 81.8389,49.672 C82.3082,49.464 82.8362,49.36 83.4229,49.36 Z M83.4549,50.408 C82.7669,50.408 82.2255,50.608 81.8309,51.008 C81.4362,51.4027 81.1909,51.952 81.0949,52.656 L85.5029,52.656 C85.5029,52.3253 85.4575,52.024 85.3669,51.752 C85.2762,51.4747 85.1429,51.2373 84.9669,51.04 C84.7909,50.8373 84.5749,50.6827 84.3189,50.576 C84.0682,50.464 83.7802,50.408 83.4549,50.408 Z M88.6055,57.592 L88.6055,49.488 L89.4215,49.488 C89.5762,49.488 89.6828,49.5173 89.7415,49.576 C89.8002,49.6347 89.8402,49.736 89.8615,49.88 L89.9575,51.144 C90.2348,50.5787 90.5762,50.1387 90.9815,49.824 C91.3922,49.504 91.8722,49.344 92.4215,49.344 C92.6455,49.344 92.8482,49.3707 93.0295,49.424 C93.2108,49.472 93.3788,49.5413 93.5335,49.632 L93.3495,50.696 C93.3122,50.8293 93.2295,50.896 93.1015,50.896 C93.0268,50.896 92.9122,50.872 92.7575,50.824 C92.6028,50.7707 92.3868,50.744 92.1095,50.744 C91.6135,50.744 91.1975,50.888 90.8615,51.176 C90.5308,51.464 90.2535,51.8827 90.0295,52.432 L90.0295,57.592 L88.6055,57.592 Z M95.3786,57.592 L95.3786,50.704 L94.4826,50.6 C94.3706,50.5733 94.2773,50.5333 94.2026,50.48 C94.1333,50.4213 94.0986,50.3387 94.0986,50.232 L94.0986,49.648 L95.3786,49.648 L95.3786,48.864 C95.3786,48.4 95.4426,47.9893 95.5706,47.632 C95.704,47.2693 95.8906,46.9653 96.1306,46.72 C96.376,46.4693 96.6693,46.28 97.0106,46.152 C97.352,46.024 97.736,45.96 98.1626,45.96 C98.5253,45.96 98.8613,46.0133 99.1706,46.12 L99.1386,46.832 C99.1333,46.9387 99.088,47.0027 99.0026,47.024 C98.9173,47.0453 98.7973,47.056 98.6426,47.056 L98.3946,47.056 C98.1493,47.056 97.9253,47.088 97.7226,47.152 C97.5253,47.216 97.3546,47.32 97.2106,47.464 C97.0666,47.608 96.9546,47.7973 96.8746,48.032 C96.8,48.2667 96.7626,48.5573 96.7626,48.904 L96.7626,49.648 L99.1066,49.648 L99.1066,50.68 L96.8106,50.68 L96.8106,57.592 L95.3786,57.592 Z M103.657,49.36 C104.143,49.36 104.591,49.4427 105.001,49.608 C105.412,49.768 105.767,50.0027 106.065,50.312 C106.364,50.616 106.596,50.9947 106.761,51.448 C106.932,51.896 107.017,52.408 107.017,52.984 C107.017,53.208 106.993,53.3573 106.945,53.432 C106.897,53.5067 106.807,53.544 106.673,53.544 L101.281,53.544 C101.292,54.056 101.361,54.5013 101.489,54.88 C101.617,55.2587 101.793,55.576 102.017,55.832 C102.241,56.0827 102.508,56.272 102.817,56.4 C103.127,56.5227 103.473,56.584 103.857,56.584 C104.215,56.584 104.521,56.544 104.777,56.464 C105.039,56.3787 105.263,56.288 105.449,56.192 C105.636,56.096 105.791,56.008 105.913,55.928 C106.041,55.8427 106.151,55.8 106.241,55.8 C106.359,55.8 106.449,55.8453 106.513,55.936 L106.913,56.456 C106.737,56.6693 106.527,56.856 106.281,57.016 C106.036,57.1707 105.772,57.2987 105.489,57.4 C105.212,57.5013 104.924,57.576 104.625,57.624 C104.327,57.6773 104.031,57.704 103.737,57.704 C103.177,57.704 102.66,57.6107 102.185,57.424 C101.716,57.232 101.308,56.9547 100.961,56.592 C100.62,56.224 100.353,55.7707 100.161,55.232 C99.9693,54.6933 99.8733,54.0747 99.8733,53.376 C99.8733,52.8107 99.9586,52.2827 100.129,51.792 C100.305,51.3013 100.556,50.8773 100.881,50.52 C101.207,50.1573 101.604,49.8747 102.073,49.672 C102.543,49.464 103.071,49.36 103.657,49.36 Z M103.689,50.408 C103.001,50.408 102.46,50.608 102.065,51.008 C101.671,51.4027 101.425,51.952 101.329,52.656 L105.737,52.656 C105.737,52.3253 105.692,52.024 105.601,51.752 C105.511,51.4747 105.377,51.2373 105.201,51.04 C105.025,50.8373 104.809,50.6827 104.553,50.576 C104.303,50.464 104.015,50.408 103.689,50.408 Z M108.84,57.592 L108.84,49.488 L109.688,49.488 C109.891,49.488 110.019,49.5867 110.072,49.784 L110.184,50.664 C110.536,50.2747 110.928,49.96 111.36,49.72 C111.797,49.48 112.301,49.36 112.872,49.36 C113.315,49.36 113.704,49.4347 114.04,49.584 C114.381,49.728 114.664,49.936 114.888,50.208 C115.117,50.4747 115.291,50.7973 115.408,51.176 C115.525,51.5547 115.584,51.9733 115.584,52.432 L115.584,57.592 L114.16,57.592 L114.16,52.432 C114.16,51.8187 114.019,51.344 113.736,51.008 C113.459,50.6667 113.032,50.496 112.456,50.496 C112.035,50.496 111.64,50.5973 111.272,50.8 C110.909,51.0027 110.573,51.2773 110.264,51.624 L110.264,57.592 L108.84,57.592 Z M126.776,57.592 L126.144,57.592 C126.006,57.592 125.894,57.5707 125.808,57.528 C125.723,57.4853 125.667,57.3947 125.64,57.256 L125.48,56.504 C125.267,56.696 125.059,56.8693 124.856,57.024 C124.654,57.1733 124.44,57.3013 124.216,57.408 C123.992,57.5093 123.752,57.5867 123.496,57.64 C123.246,57.6933 122.966,57.72 122.656,57.72 C122.342,57.72 122.046,57.6773 121.768,57.592 C121.496,57.5013 121.259,57.368 121.056,57.192 C120.854,57.016 120.691,56.7947 120.568,56.528 C120.451,56.256 120.392,55.936 120.392,55.568 C120.392,55.248 120.48,54.9413 120.656,54.648 C120.832,54.3493 121.115,54.0853 121.504,53.856 C121.899,53.6267 122.414,53.44 123.048,53.296 C123.683,53.1467 124.459,53.0613 125.376,53.04 L125.376,52.408 C125.376,51.7787 125.24,51.304 124.968,50.984 C124.702,50.6587 124.304,50.496 123.776,50.496 C123.43,50.496 123.136,50.5413 122.896,50.632 C122.662,50.7173 122.456,50.816 122.28,50.928 C122.11,51.0347 121.96,51.1333 121.832,51.224 C121.71,51.3093 121.587,51.352 121.464,51.352 C121.368,51.352 121.283,51.328 121.208,51.28 C121.139,51.2267 121.083,51.1627 121.04,51.088 L120.784,50.632 C121.232,50.2 121.715,49.8773 122.232,49.664 C122.75,49.4507 123.323,49.344 123.952,49.344 C124.406,49.344 124.808,49.4187 125.16,49.568 C125.512,49.7173 125.808,49.9253 126.048,50.192 C126.288,50.4587 126.47,50.7813 126.592,51.16 C126.715,51.5387 126.776,51.9547 126.776,52.408 L126.776,57.592 Z M123.08,56.72 C123.331,56.72 123.56,56.696 123.768,56.648 C123.976,56.5947 124.171,56.5227 124.352,56.432 C124.539,56.336 124.715,56.2213 124.88,56.088 C125.051,55.9547 125.216,55.8027 125.376,55.632 L125.376,53.944 C124.72,53.9653 124.163,54.0187 123.704,54.104 C123.246,54.184 122.872,54.2907 122.584,54.424 C122.296,54.5573 122.086,54.7147 121.952,54.896 C121.824,55.0773 121.76,55.28 121.76,55.504 C121.76,55.7173 121.795,55.9013 121.864,56.056 C121.934,56.2107 122.027,56.3387 122.144,56.44 C122.262,56.536 122.4,56.608 122.56,56.656 C122.72,56.6987 122.894,56.72 123.08,56.72 Z M128.934,60.336 L128.934,49.488 L129.782,49.488 C129.984,49.488 130.112,49.5867 130.166,49.784 L130.286,50.744 C130.632,50.3227 131.027,49.984 131.47,49.728 C131.918,49.472 132.432,49.344 133.014,49.344 C133.478,49.344 133.899,49.4347 134.278,49.616 C134.656,49.792 134.979,50.056 135.246,50.408 C135.512,50.7547 135.718,51.1867 135.862,51.704 C136.006,52.2213 136.078,52.816 136.078,53.488 C136.078,54.0853 135.998,54.6427 135.838,55.16 C135.678,55.672 135.448,56.1173 135.15,56.496 C134.851,56.8693 134.483,57.1653 134.046,57.384 C133.614,57.5973 133.126,57.704 132.582,57.704 C132.08,57.704 131.651,57.6213 131.294,57.456 C130.942,57.2907 130.63,57.056 130.358,56.752 L130.358,60.336 L128.934,60.336 Z M132.542,50.496 C132.078,50.496 131.67,50.6027 131.318,50.816 C130.971,51.0293 130.651,51.3307 130.358,51.72 L130.358,55.64 C130.619,55.992 130.904,56.24 131.214,56.384 C131.528,56.528 131.878,56.6 132.262,56.6 C133.014,56.6 133.592,56.3307 133.998,55.792 C134.403,55.2533 134.606,54.4853 134.606,53.488 C134.606,52.96 134.558,52.5067 134.462,52.128 C134.371,51.7493 134.238,51.44 134.062,51.2 C133.886,50.9547 133.67,50.776 133.414,50.664 C133.158,50.552 132.867,50.496 132.542,50.496 Z M137.762,60.336 L137.762,49.488 L138.61,49.488 C138.812,49.488 138.94,49.5867 138.994,49.784 L139.114,50.744 C139.46,50.3227 139.855,49.984 140.298,49.728 C140.746,49.472 141.26,49.344 141.842,49.344 C142.306,49.344 142.727,49.4347 143.106,49.616 C143.484,49.792 143.807,50.056 144.074,50.408 C144.34,50.7547 144.546,51.1867 144.69,51.704 C144.834,52.2213 144.906,52.816 144.906,53.488 C144.906,54.0853 144.826,54.6427 144.666,55.16 C144.506,55.672 144.276,56.1173 143.978,56.496 C143.679,56.8693 143.311,57.1653 142.874,57.384 C142.442,57.5973 141.954,57.704 141.41,57.704 C140.908,57.704 140.479,57.6213 140.122,57.456 C139.77,57.2907 139.458,57.056 139.186,56.752 L139.186,60.336 L137.762,60.336 Z M141.37,50.496 C140.906,50.496 140.498,50.6027 140.146,50.816 C139.799,51.0293 139.479,51.3307 139.186,51.72 L139.186,55.64 C139.447,55.992 139.732,56.24 140.042,56.384 C140.356,56.528 140.706,56.6 141.09,56.6 C141.842,56.6 142.42,56.3307 142.826,55.792 C143.231,55.2533 143.434,54.4853 143.434,53.488 C143.434,52.96 143.386,52.5067 143.29,52.128 C143.199,51.7493 143.066,51.44 142.89,51.2 C142.714,50.9547 142.498,50.776 142.242,50.664 C141.986,50.552 141.695,50.496 141.37,50.496 Z M148.174,45.808 L148.174,57.592 L146.75,57.592 L146.75,45.808 L148.174,45.808 Z M152.268,49.488 L152.268,57.592 L150.844,57.592 L150.844,49.488 L152.268,49.488 Z M152.588,46.944 C152.588,47.0827 152.558,47.2133 152.5,47.336 C152.446,47.4533 152.372,47.56 152.276,47.656 C152.185,47.7467 152.078,47.8187 151.956,47.872 C151.833,47.9253 151.702,47.952 151.564,47.952 C151.425,47.952 151.294,47.9253 151.172,47.872 C151.054,47.8187 150.948,47.7467 150.852,47.656 C150.761,47.56 150.689,47.4533 150.636,47.336 C150.582,47.2133 150.556,47.0827 150.556,46.944 C150.556,46.8053 150.582,46.6747 150.636,46.552 C150.689,46.424 150.761,46.3147 150.852,46.224 C150.948,46.128 151.054,46.0533 151.172,46 C151.294,45.9467 151.425,45.92 151.564,45.92 C151.702,45.92 151.833,45.9467 151.956,46 C152.078,46.0533 152.185,46.128 152.276,46.224 C152.372,46.3147 152.446,46.424 152.5,46.552 C152.558,46.6747 152.588,46.8053 152.588,46.944 Z M160.305,50.928 C160.263,50.9867 160.22,51.032 160.177,51.064 C160.135,51.096 160.073,51.112 159.993,51.112 C159.913,51.112 159.825,51.08 159.729,51.016 C159.639,50.9467 159.521,50.872 159.377,50.792 C159.233,50.712 159.057,50.64 158.849,50.576 C158.647,50.5067 158.396,50.472 158.097,50.472 C157.703,50.472 157.353,50.544 157.049,50.688 C156.745,50.8267 156.489,51.0293 156.281,51.296 C156.079,51.5627 155.924,51.8853 155.817,52.264 C155.716,52.6427 155.665,53.0667 155.665,53.536 C155.665,54.0267 155.721,54.464 155.833,54.848 C155.945,55.2267 156.103,55.5467 156.305,55.808 C156.508,56.064 156.753,56.2613 157.041,56.4 C157.335,56.5333 157.663,56.6 158.025,56.6 C158.372,56.6 158.657,56.56 158.881,56.48 C159.105,56.3947 159.292,56.3013 159.441,56.2 C159.591,56.0987 159.713,56.008 159.809,55.928 C159.905,55.8427 160.001,55.8 160.097,55.8 C160.22,55.8 160.311,55.8453 160.369,55.936 L160.769,56.456 C160.417,56.888 159.977,57.2053 159.449,57.408 C158.921,57.6053 158.364,57.704 157.777,57.704 C157.271,57.704 156.799,57.6107 156.361,57.424 C155.929,57.2373 155.553,56.968 155.233,56.616 C154.913,56.2587 154.66,55.8213 154.473,55.304 C154.292,54.7867 154.201,54.1973 154.201,53.536 C154.201,52.9333 154.284,52.376 154.449,51.864 C154.62,51.352 154.865,50.912 155.185,50.544 C155.511,50.1707 155.911,49.88 156.385,49.672 C156.86,49.464 157.404,49.36 158.017,49.36 C158.583,49.36 159.084,49.4533 159.521,49.64 C159.959,49.8213 160.345,50.08 160.681,50.416 L160.305,50.928 Z M168.198,57.592 L167.566,57.592 C167.427,57.592 167.315,57.5707 167.23,57.528 C167.145,57.4853 167.089,57.3947 167.062,57.256 L166.902,56.504 C166.689,56.696 166.481,56.8693 166.278,57.024 C166.075,57.1733 165.862,57.3013 165.638,57.408 C165.414,57.5093 165.174,57.5867 164.918,57.64 C164.667,57.6933 164.387,57.72 164.078,57.72 C163.763,57.72 163.467,57.6773 163.19,57.592 C162.918,57.5013 162.681,57.368 162.478,57.192 C162.275,57.016 162.113,56.7947 161.99,56.528 C161.873,56.256 161.814,55.936 161.814,55.568 C161.814,55.248 161.902,54.9413 162.078,54.648 C162.254,54.3493 162.537,54.0853 162.926,53.856 C163.321,53.6267 163.835,53.44 164.47,53.296 C165.105,53.1467 165.881,53.0613 166.798,53.04 L166.798,52.408 C166.798,51.7787 166.662,51.304 166.39,50.984 C166.123,50.6587 165.726,50.496 165.198,50.496 C164.851,50.496 164.558,50.5413 164.318,50.632 C164.083,50.7173 163.878,50.816 163.702,50.928 C163.531,51.0347 163.382,51.1333 163.254,51.224 C163.131,51.3093 163.009,51.352 162.886,51.352 C162.79,51.352 162.705,51.328 162.63,51.28 C162.561,51.2267 162.505,51.1627 162.462,51.088 L162.206,50.632 C162.654,50.2 163.137,49.8773 163.654,49.664 C164.171,49.4507 164.745,49.344 165.374,49.344 C165.827,49.344 166.23,49.4187 166.582,49.568 C166.934,49.7173 167.23,49.9253 167.47,50.192 C167.71,50.4587 167.891,50.7813 168.014,51.16 C168.137,51.5387 168.198,51.9547 168.198,52.408 L168.198,57.592 Z M164.502,56.72 C164.753,56.72 164.982,56.696 165.19,56.648 C165.398,56.5947 165.593,56.5227 165.774,56.432 C165.961,56.336 166.137,56.2213 166.302,56.088 C166.473,55.9547 166.638,55.8027 166.798,55.632 L166.798,53.944 C166.142,53.9653 165.585,54.0187 165.126,54.104 C164.667,54.184 164.294,54.2907 164.006,54.424 C163.718,54.5573 163.507,54.7147 163.374,54.896 C163.246,55.0773 163.182,55.28 163.182,55.504 C163.182,55.7173 163.217,55.9013 163.286,56.056 C163.355,56.2107 163.449,56.3387 163.566,56.44 C163.683,56.536 163.822,56.608 163.982,56.656 C164.142,56.6987 164.315,56.72 164.502,56.72 Z M172.812,57.72 C172.172,57.72 171.678,57.5413 171.332,57.184 C170.99,56.8267 170.82,56.312 170.82,55.64 L170.82,50.68 L169.844,50.68 C169.758,50.68 169.686,50.656 169.628,50.608 C169.569,50.5547 169.54,50.4747 169.54,50.368 L169.54,49.8 L170.868,49.632 L171.196,47.128 C171.206,47.048 171.241,46.984 171.299,46.936 C171.358,46.8827 171.433,46.856 171.524,46.856 L172.244,46.856 L172.244,49.648 L174.564,49.648 L174.564,50.68 L172.244,50.68 L172.244,55.544 C172.244,55.8853 172.326,56.1387 172.492,56.304 C172.657,56.4693 172.87,56.552 173.132,56.552 C173.281,56.552 173.409,56.5333 173.516,56.496 C173.628,56.4533 173.724,56.408 173.804,56.36 C173.884,56.312 173.95,56.2693 174.004,56.232 C174.062,56.1893 174.113,56.168 174.156,56.168 C174.23,56.168 174.297,56.2133 174.356,56.304 L174.772,56.984 C174.526,57.2133 174.23,57.3947 173.884,57.528 C173.537,57.656 173.18,57.72 172.812,57.72 Z M177.908,49.488 L177.908,57.592 L176.484,57.592 L176.484,49.488 L177.908,49.488 Z M178.228,46.944 C178.228,47.0827 178.199,47.2133 178.14,47.336 C178.087,47.4533 178.012,47.56 177.916,47.656 C177.826,47.7467 177.719,47.8187 177.596,47.872 C177.474,47.9253 177.343,47.952 177.204,47.952 C177.066,47.952 176.935,47.9253 176.812,47.872 C176.695,47.8187 176.588,47.7467 176.492,47.656 C176.402,47.56 176.33,47.4533 176.276,47.336 C176.223,47.2133 176.196,47.0827 176.196,46.944 C176.196,46.8053 176.223,46.6747 176.276,46.552 C176.33,46.424 176.402,46.3147 176.492,46.224 C176.588,46.128 176.695,46.0533 176.812,46 C176.935,45.9467 177.066,45.92 177.204,45.92 C177.343,45.92 177.474,45.9467 177.596,46 C177.719,46.0533 177.826,46.128 177.916,46.224 C178.012,46.3147 178.087,46.424 178.14,46.552 C178.199,46.6747 178.228,46.8053 178.228,46.944 Z M183.698,49.36 C184.29,49.36 184.823,49.4587 185.298,49.656 C185.778,49.8533 186.183,50.1333 186.514,50.496 C186.85,50.8587 187.106,51.2987 187.282,51.816 C187.463,52.328 187.554,52.9013 187.554,53.536 C187.554,54.176 187.463,54.752 187.282,55.264 C187.106,55.776 186.85,56.2133 186.514,56.576 C186.183,56.9387 185.778,57.2187 185.298,57.416 C184.823,57.608 184.29,57.704 183.698,57.704 C183.106,57.704 182.57,57.608 182.09,57.416 C181.615,57.2187 181.21,56.9387 180.874,56.576 C180.538,56.2133 180.279,55.776 180.098,55.264 C179.917,54.752 179.826,54.176 179.826,53.536 C179.826,52.9013 179.917,52.328 180.098,51.816 C180.279,51.2987 180.538,50.8587 180.874,50.496 C181.21,50.1333 181.615,49.8533 182.09,49.656 C182.57,49.4587 183.106,49.36 183.698,49.36 Z M183.698,56.592 C184.498,56.592 185.095,56.3253 185.49,55.792 C185.885,55.2533 186.082,54.504 186.082,53.544 C186.082,52.5787 185.885,51.8267 185.49,51.288 C185.095,50.7493 184.498,50.48 183.698,50.48 C183.293,50.48 182.941,50.5493 182.642,50.688 C182.343,50.8267 182.093,51.0267 181.89,51.288 C181.693,51.5493 181.543,51.872 181.442,52.256 C181.346,52.6347 181.298,53.064 181.298,53.544 C181.298,54.024 181.346,54.4533 181.442,54.832 C181.543,55.2107 181.693,55.5307 181.89,55.792 C182.093,56.048 182.343,56.2453 182.642,56.384 C182.941,56.5227 183.293,56.592 183.698,56.592 Z M189.309,57.592 L189.309,49.488 L190.157,49.488 C190.359,49.488 190.487,49.5867 190.541,49.784 L190.653,50.664 C191.005,50.2747 191.397,49.96 191.829,49.72 C192.266,49.48 192.77,49.36 193.341,49.36 C193.783,49.36 194.173,49.4347 194.509,49.584 C194.85,49.728 195.133,49.936 195.357,50.208 C195.586,50.4747 195.759,50.7973 195.877,51.176 C195.994,51.5547 196.053,51.9733 196.053,52.432 L196.053,57.592 L194.629,57.592 L194.629,52.432 C194.629,51.8187 194.487,51.344 194.205,51.008 C193.927,50.6667 193.501,50.496 192.925,50.496 C192.503,50.496 192.109,50.5973 191.741,50.8 C191.378,51.0027 191.042,51.2773 190.733,51.624 L190.733,57.592 L189.309,57.592 Z M202.525,49.488 L202.525,54.656 C202.525,55.2693 202.666,55.744 202.949,56.08 C203.232,56.416 203.658,56.584 204.229,56.584 C204.645,56.584 205.037,56.4853 205.405,56.288 C205.773,56.0907 206.112,55.816 206.421,55.464 L206.421,49.488 L207.845,49.488 L207.845,57.592 L206.997,57.592 C206.794,57.592 206.666,57.4933 206.613,57.296 L206.501,56.424 C206.149,56.8133 205.754,57.128 205.317,57.368 C204.88,57.6027 204.378,57.72 203.813,57.72 C203.37,57.72 202.978,57.648 202.637,57.504 C202.301,57.3547 202.018,57.1467 201.789,56.88 C201.56,56.6133 201.386,56.2907 201.269,55.912 C201.157,55.5333 201.101,55.1147 201.101,54.656 L201.101,49.488 L202.525,49.488 Z M210.184,60.336 L210.184,49.488 L211.032,49.488 C211.234,49.488 211.362,49.5867 211.416,49.784 L211.536,50.744 C211.882,50.3227 212.277,49.984 212.72,49.728 C213.168,49.472 213.682,49.344 214.264,49.344 C214.728,49.344 215.149,49.4347 215.528,49.616 C215.906,49.792 216.229,50.056 216.496,50.408 C216.762,50.7547 216.968,51.1867 217.112,51.704 C217.256,52.2213 217.328,52.816 217.328,53.488 C217.328,54.0853 217.248,54.6427 217.088,55.16 C216.928,55.672 216.698,56.1173 216.4,56.496 C216.101,56.8693 215.733,57.1653 215.296,57.384 C214.864,57.5973 214.376,57.704 213.832,57.704 C213.33,57.704 212.901,57.6213 212.544,57.456 C212.192,57.2907 211.88,57.056 211.608,56.752 L211.608,60.336 L210.184,60.336 Z M213.792,50.496 C213.328,50.496 212.92,50.6027 212.568,50.816 C212.221,51.0293 211.901,51.3307 211.608,51.72 L211.608,55.64 C211.869,55.992 212.154,56.24 212.464,56.384 C212.778,56.528 213.128,56.6 213.512,56.6 C214.264,56.6 214.842,56.3307 215.248,55.792 C215.653,55.2533 215.856,54.4853 215.856,53.488 C215.856,52.96 215.808,52.5067 215.712,52.128 C215.621,51.7493 215.488,51.44 215.312,51.2 C215.136,50.9547 214.92,50.776 214.664,50.664 C214.408,50.552 214.117,50.496 213.792,50.496 Z M224.716,57.592 C224.513,57.592 224.385,57.4933 224.332,57.296 L224.204,56.312 C223.857,56.7333 223.46,57.072 223.012,57.328 C222.569,57.5787 222.06,57.704 221.484,57.704 C221.02,57.704 220.598,57.616 220.22,57.44 C219.841,57.2587 219.518,56.9947 219.252,56.648 C218.985,56.3013 218.78,55.8693 218.636,55.352 C218.492,54.8347 218.42,54.24 218.42,53.568 C218.42,52.9707 218.5,52.416 218.66,51.904 C218.82,51.3867 219.049,50.9387 219.348,50.56 C219.652,50.1813 220.02,49.8853 220.452,49.672 C220.884,49.4533 221.374,49.344 221.924,49.344 C222.42,49.344 222.844,49.4293 223.196,49.6 C223.548,49.7653 223.862,50 224.14,50.304 L224.14,45.808 L225.564,45.808 L225.564,57.592 L224.716,57.592 Z M221.956,56.552 C222.42,56.552 222.825,56.4453 223.172,56.232 C223.524,56.0187 223.846,55.7173 224.14,55.328 L224.14,51.408 C223.878,51.056 223.59,50.8107 223.276,50.672 C222.966,50.528 222.622,50.456 222.244,50.456 C221.486,50.456 220.905,50.7253 220.5,51.264 C220.094,51.8027 219.892,52.5707 219.892,53.568 C219.892,54.096 219.937,54.5493 220.028,54.928 C220.118,55.3013 220.252,55.6107 220.428,55.856 C220.604,56.096 220.82,56.272 221.076,56.384 C221.332,56.496 221.625,56.552 221.956,56.552 Z M233.901,57.592 L233.269,57.592 C233.131,57.592 233.019,57.5707 232.933,57.528 C232.848,57.4853 232.792,57.3947 232.765,57.256 L232.605,56.504 C232.392,56.696 232.184,56.8693 231.981,57.024 C231.779,57.1733 231.565,57.3013 231.341,57.408 C231.117,57.5093 230.877,57.5867 230.621,57.64 C230.371,57.6933 230.091,57.72 229.781,57.72 C229.467,57.72 229.171,57.6773 228.893,57.592 C228.621,57.5013 228.384,57.368 228.181,57.192 C227.979,57.016 227.816,56.7947 227.693,56.528 C227.576,56.256 227.517,55.936 227.517,55.568 C227.517,55.248 227.605,54.9413 227.781,54.648 C227.957,54.3493 228.24,54.0853 228.629,53.856 C229.024,53.6267 229.539,53.44 230.173,53.296 C230.808,53.1467 231.584,53.0613 232.501,53.04 L232.501,52.408 C232.501,51.7787 232.365,51.304 232.093,50.984 C231.827,50.6587 231.429,50.496 230.901,50.496 C230.555,50.496 230.261,50.5413 230.021,50.632 C229.787,50.7173 229.581,50.816 229.405,50.928 C229.235,51.0347 229.085,51.1333 228.957,51.224 C228.835,51.3093 228.712,51.352 228.589,51.352 C228.493,51.352 228.408,51.328 228.333,51.28 C228.264,51.2267 228.208,51.1627 228.165,51.088 L227.909,50.632 C228.357,50.2 228.84,49.8773 229.357,49.664 C229.875,49.4507 230.448,49.344 231.077,49.344 C231.531,49.344 231.933,49.4187 232.285,49.568 C232.637,49.7173 232.933,49.9253 233.173,50.192 C233.413,50.4587 233.595,50.7813 233.717,51.16 C233.84,51.5387 233.901,51.9547 233.901,52.408 L233.901,57.592 Z M230.205,56.72 C230.456,56.72 230.685,56.696 230.893,56.648 C231.101,56.5947 231.296,56.5227 231.477,56.432 C231.664,56.336 231.84,56.2213 232.005,56.088 C232.176,55.9547 232.341,55.8027 232.501,55.632 L232.501,53.944 C231.845,53.9653 231.288,54.0187 230.829,54.104 C230.371,54.184 229.997,54.2907 229.709,54.424 C229.421,54.5573 229.211,54.7147 229.077,54.896 C228.949,55.0773 228.885,55.28 228.885,55.504 C228.885,55.7173 228.92,55.9013 228.989,56.056 C229.059,56.2107 229.152,56.3387 229.269,56.44 C229.387,56.536 229.525,56.608 229.685,56.656 C229.845,56.6987 230.019,56.72 230.205,56.72 Z M238.515,57.72 C237.875,57.72 237.381,57.5413 237.035,57.184 C236.693,56.8267 236.523,56.312 236.523,55.64 L236.523,50.68 L235.547,50.68 C235.461,50.68 235.389,50.656 235.331,50.608 C235.272,50.5547 235.243,50.4747 235.243,50.368 L235.243,49.8 L236.571,49.632 L236.899,47.128 C236.909,47.048 236.944,46.984 237.003,46.936 C237.061,46.8827 237.136,46.856 237.227,46.856 L237.947,46.856 L237.947,49.648 L240.267,49.648 L240.267,50.68 L237.947,50.68 L237.947,55.544 C237.947,55.8853 238.029,56.1387 238.195,56.304 C238.36,56.4693 238.573,56.552 238.835,56.552 C238.984,56.552 239.112,56.5333 239.219,56.496 C239.331,56.4533 239.427,56.408 239.507,56.36 C239.587,56.312 239.653,56.2693 239.707,56.232 C239.765,56.1893 239.816,56.168 239.859,56.168 C239.933,56.168 240,56.2133 240.059,56.304 L240.475,56.984 C240.229,57.2133 239.933,57.3947 239.587,57.528 C239.24,57.656 238.883,57.72 238.515,57.72 Z M245.235,49.36 C245.721,49.36 246.169,49.4427 246.579,49.608 C246.99,49.768 247.345,50.0027 247.643,50.312 C247.942,50.616 248.174,50.9947 248.339,51.448 C248.51,51.896 248.595,52.408 248.595,52.984 C248.595,53.208 248.571,53.3573 248.523,53.432 C248.475,53.5067 248.385,53.544 248.251,53.544 L242.859,53.544 C242.87,54.056 242.939,54.5013 243.067,54.88 C243.195,55.2587 243.371,55.576 243.595,55.832 C243.819,56.0827 244.086,56.272 244.395,56.4 C244.705,56.5227 245.051,56.584 245.435,56.584 C245.793,56.584 246.099,56.544 246.355,56.464 C246.617,56.3787 246.841,56.288 247.027,56.192 C247.214,56.096 247.369,56.008 247.491,55.928 C247.619,55.8427 247.729,55.8 247.819,55.8 C247.937,55.8 248.027,55.8453 248.091,55.936 L248.491,56.456 C248.315,56.6693 248.105,56.856 247.859,57.016 C247.614,57.1707 247.35,57.2987 247.067,57.4 C246.79,57.5013 246.502,57.576 246.203,57.624 C245.905,57.6773 245.609,57.704 245.315,57.704 C244.755,57.704 244.238,57.6107 243.763,57.424 C243.294,57.232 242.886,56.9547 242.539,56.592 C242.198,56.224 241.931,55.7707 241.739,55.232 C241.547,54.6933 241.451,54.0747 241.451,53.376 C241.451,52.8107 241.537,52.2827 241.707,51.792 C241.883,51.3013 242.134,50.8773 242.459,50.52 C242.785,50.1573 243.182,49.8747 243.651,49.672 C244.121,49.464 244.649,49.36 245.235,49.36 Z M245.267,50.408 C244.579,50.408 244.038,50.608 243.643,51.008 C243.249,51.4027 243.003,51.952 242.907,52.656 L247.315,52.656 C247.315,52.3253 247.27,52.024 247.179,51.752 C247.089,51.4747 246.955,51.2373 246.779,51.04 C246.603,50.8373 246.387,50.6827 246.131,50.576 C245.881,50.464 245.593,50.408 245.267,50.408 Z M256.122,57.592 C255.919,57.592 255.791,57.4933 255.738,57.296 L255.61,56.312 C255.263,56.7333 254.866,57.072 254.418,57.328 C253.975,57.5787 253.466,57.704 252.89,57.704 C252.426,57.704 252.005,57.616 251.626,57.44 C251.247,57.2587 250.925,56.9947 250.658,56.648 C250.391,56.3013 250.186,55.8693 250.042,55.352 C249.898,54.8347 249.826,54.24 249.826,53.568 C249.826,52.9707 249.906,52.416 250.066,51.904 C250.226,51.3867 250.455,50.9387 250.754,50.56 C251.058,50.1813 251.426,49.8853 251.858,49.672 C252.29,49.4533 252.781,49.344 253.33,49.344 C253.826,49.344 254.25,49.4293 254.602,49.6 C254.954,49.7653 255.269,50 255.546,50.304 L255.546,45.808 L256.97,45.808 L256.97,57.592 L256.122,57.592 Z M253.362,56.552 C253.826,56.552 254.231,56.4453 254.578,56.232 C254.93,56.0187 255.253,55.7173 255.546,55.328 L255.546,51.408 C255.285,51.056 254.997,50.8107 254.682,50.672 C254.373,50.528 254.029,50.456 253.65,50.456 C252.893,50.456 252.311,50.7253 251.906,51.264 C251.501,51.8027 251.298,52.5707 251.298,53.568 C251.298,54.096 251.343,54.5493 251.434,54.928 C251.525,55.3013 251.658,55.6107 251.834,55.856 C252.01,56.096 252.226,56.272 252.482,56.384 C252.738,56.496 253.031,56.552 253.362,56.552 Z M261.628,46.128 L261.628,50.704 C261.628,50.944 261.622,51.1787 261.612,51.408 C261.606,51.6373 261.596,51.8693 261.58,52.104 C261.564,52.3333 261.542,52.5707 261.516,52.816 C261.494,53.056 261.468,53.3147 261.436,53.592 L260.468,53.592 C260.436,53.3147 260.406,53.056 260.38,52.816 C260.358,52.5707 260.34,52.3333 260.324,52.104 C260.308,51.8693 260.294,51.6373 260.284,51.408 C260.278,51.1787 260.276,50.944 260.276,50.704 L260.276,46.128 L261.628,46.128 Z M259.932,56.712 C259.932,56.5733 259.956,56.4427 260.004,56.32 C260.057,56.1973 260.126,56.0907 260.212,56 C260.302,55.9093 260.409,55.8373 260.532,55.784 C260.654,55.7307 260.785,55.704 260.924,55.704 C261.062,55.704 261.193,55.7307 261.316,55.784 C261.438,55.8373 261.545,55.9093 261.636,56 C261.726,56.0907 261.796,56.1973 261.844,56.32 C261.897,56.4427 261.924,56.5733 261.924,56.712 C261.924,56.856 261.897,56.9893 261.844,57.112 C261.796,57.2293 261.726,57.3333 261.636,57.424 C261.545,57.5147 261.438,57.584 261.316,57.632 C261.193,57.6853 261.062,57.712 260.924,57.712 C260.785,57.712 260.654,57.6853 260.532,57.632 C260.409,57.584 260.302,57.5147 260.212,57.424 C260.126,57.3333 260.057,57.2293 260.004,57.112 C259.956,56.9893 259.932,56.856 259.932,56.712 Z M68.082,70.602 L68.082,74.592 L66.731,74.592 L66.731,70.602 L63.056,64.561 L64.246,64.561 C64.3673,64.561 64.463,64.5913 64.533,64.652 C64.603,64.7127 64.6637,64.7873 64.715,64.876 L67.011,68.775 C67.1043,68.9383 67.1813,69.0923 67.242,69.237 C67.3073,69.3817 67.3657,69.524 67.417,69.664 C67.4683,69.5193 67.5243,69.3747 67.585,69.23 C67.6457,69.0853 67.7227,68.9337 67.816,68.775 L70.105,64.876 C70.147,64.8013 70.203,64.7313 70.273,64.666 C70.3477,64.596 70.4433,64.561 70.56,64.561 L71.764,64.561 L68.082,70.602 Z M74.5756,67.389 C75.0936,67.389 75.5603,67.4753 75.9756,67.648 C76.3956,67.8207 76.7503,68.0657 77.0396,68.383 C77.3336,68.7003 77.5576,69.0853 77.7116,69.538 C77.8703,69.986 77.9496,70.4877 77.9496,71.043 C77.9496,71.603 77.8703,72.107 77.7116,72.555 C77.5576,73.003 77.3336,73.3857 77.0396,73.703 C76.7503,74.0203 76.3956,74.2653 75.9756,74.438 C75.5603,74.606 75.0936,74.69 74.5756,74.69 C74.0576,74.69 73.5886,74.606 73.1686,74.438 C72.7533,74.2653 72.3986,74.0203 72.1046,73.703 C71.8106,73.3857 71.5843,73.003 71.4256,72.555 C71.2669,72.107 71.1876,71.603 71.1876,71.043 C71.1876,70.4877 71.2669,69.986 71.4256,69.538 C71.5843,69.0853 71.8106,68.7003 72.1046,68.383 C72.3986,68.0657 72.7533,67.8207 73.1686,67.648 C73.5886,67.4753 74.0576,67.389 74.5756,67.389 Z M74.5756,73.717 C75.2756,73.717 75.7983,73.4837 76.1436,73.017 C76.4889,72.5457 76.6616,71.89 76.6616,71.05 C76.6616,70.2053 76.4889,69.5473 76.1436,69.076 C75.7983,68.6047 75.2756,68.369 74.5756,68.369 C74.2209,68.369 73.9129,68.4297 73.6516,68.551 C73.3903,68.6723 73.1709,68.8473 72.9936,69.076 C72.8209,69.3047 72.6903,69.587 72.6016,69.923 C72.5176,70.2543 72.4756,70.63 72.4756,71.05 C72.4756,71.47 72.5176,71.8457 72.6016,72.177 C72.6903,72.5083 72.8209,72.7883 72.9936,73.017 C73.1709,73.241 73.3903,73.4137 73.6516,73.535 C73.9129,73.6563 74.2209,73.717 74.5756,73.717 Z M80.5629,67.501 L80.5629,72.023 C80.5629,72.5597 80.6866,72.975 80.9339,73.269 C81.1812,73.563 81.5546,73.71 82.0539,73.71 C82.4179,73.71 82.7609,73.6237 83.0829,73.451 C83.4049,73.2783 83.7012,73.038 83.9719,72.73 L83.9719,67.501 L85.2179,67.501 L85.2179,74.592 L84.4759,74.592 C84.2986,74.592 84.1866,74.5057 84.1399,74.333 L84.0419,73.57 C83.7339,73.9107 83.3886,74.186 83.0059,74.396 C82.6232,74.6013 82.1846,74.704 81.6899,74.704 C81.3026,74.704 80.9596,74.641 80.6609,74.515 C80.3669,74.3843 80.1196,74.2023 79.9189,73.969 C79.7182,73.7357 79.5666,73.4533 79.4639,73.122 C79.3659,72.7907 79.3169,72.4243 79.3169,72.023 L79.3169,67.501 L80.5629,67.501 Z M89.9712,74.592 L89.9712,64.281 L91.2172,64.281 L91.2172,68.453 C91.5206,68.131 91.8566,67.8743 92.2252,67.683 C92.5939,67.487 93.0186,67.389 93.4992,67.389 C93.8866,67.389 94.2272,67.4543 94.5212,67.585 C94.8199,67.711 95.0672,67.893 95.2632,68.131 C95.4639,68.3643 95.6156,68.6467 95.7182,68.978 C95.8209,69.3093 95.8722,69.6757 95.8722,70.077 L95.8722,74.592 L94.6262,74.592 L94.6262,70.077 C94.6262,69.5403 94.5026,69.125 94.2552,68.831 C94.0126,68.5323 93.6392,68.383 93.1352,68.383 C92.7666,68.383 92.4212,68.4717 92.0992,68.649 C91.7819,68.8263 91.4879,69.0667 91.2172,69.37 L91.2172,74.592 L89.9712,74.592 Z M102.959,74.592 L102.406,74.592 C102.284,74.592 102.186,74.5733 102.112,74.536 C102.037,74.4987 101.988,74.4193 101.965,74.298 L101.825,73.64 C101.638,73.808 101.456,73.9597 101.279,74.095 C101.101,74.2257 100.915,74.3377 100.719,74.431 C100.523,74.5197 100.313,74.5873 100.089,74.634 C99.8692,74.6807 99.6242,74.704 99.3535,74.704 C99.0782,74.704 98.8192,74.6667 98.5765,74.592 C98.3385,74.5127 98.1308,74.396 97.9535,74.242 C97.7762,74.088 97.6338,73.8943 97.5265,73.661 C97.4238,73.423 97.3725,73.143 97.3725,72.821 C97.3725,72.541 97.4495,72.2727 97.6035,72.016 C97.7575,71.7547 98.0048,71.5237 98.3455,71.323 C98.6908,71.1223 99.1412,70.959 99.6965,70.833 C100.252,70.7023 100.931,70.6277 101.734,70.609 L101.734,70.056 C101.734,69.5053 101.615,69.09 101.377,68.81 C101.143,68.5253 100.796,68.383 100.334,68.383 C100.03,68.383 99.7735,68.4227 99.5635,68.502 C99.3582,68.5767 99.1785,68.663 99.0245,68.761 C98.8752,68.8543 98.7445,68.9407 98.6325,69.02 C98.5252,69.0947 98.4178,69.132 98.3105,69.132 C98.2265,69.132 98.1518,69.111 98.0865,69.069 C98.0258,69.0223 97.9768,68.9663 97.9395,68.901 L97.7155,68.502 C98.1075,68.124 98.5298,67.8417 98.9825,67.655 C99.4352,67.4683 99.9368,67.375 100.488,67.375 C100.884,67.375 101.237,67.4403 101.545,67.571 C101.853,67.7017 102.112,67.8837 102.322,68.117 C102.532,68.3503 102.69,68.6327 102.798,68.964 C102.905,69.2953 102.959,69.6593 102.959,70.056 L102.959,74.592 Z M99.7245,73.829 C99.9438,73.829 100.145,73.808 100.327,73.766 C100.509,73.7193 100.679,73.6563 100.838,73.577 C101.001,73.493 101.155,73.3927 101.3,73.276 C101.449,73.1593 101.594,73.0263 101.734,72.877 L101.734,71.4 C101.16,71.4187 100.672,71.4653 100.271,71.54 C99.8692,71.61 99.5425,71.7033 99.2905,71.82 C99.0385,71.9367 98.8542,72.0743 98.7375,72.233 C98.6255,72.3917 98.5695,72.569 98.5695,72.765 C98.5695,72.9517 98.5998,73.1127 98.6605,73.248 C98.7212,73.3833 98.8028,73.4953 98.9055,73.584 C99.0082,73.668 99.1295,73.731 99.2695,73.773 C99.4095,73.8103 99.5612,73.829 99.7245,73.829 Z M103.731,67.501 L104.753,67.501 C104.851,67.501 104.933,67.5267 104.998,67.578 C105.064,67.6293 105.11,67.69 105.138,67.76 L106.937,72.324 C107.003,72.492 107.054,72.66 107.091,72.828 C107.129,72.996 107.164,73.1617 107.196,73.325 C107.234,73.1617 107.273,72.996 107.315,72.828 C107.357,72.66 107.411,72.492 107.476,72.324 L109.296,67.76 C109.324,67.6853 109.369,67.6247 109.429,67.578 C109.495,67.5267 109.574,67.501 109.667,67.501 L110.64,67.501 L107.749,74.592 L106.622,74.592 L103.731,67.501 Z M114.421,67.389 C114.845,67.389 115.237,67.4613 115.597,67.606 C115.956,67.746 116.266,67.9513 116.528,68.222 C116.789,68.488 116.992,68.8193 117.137,69.216 C117.286,69.608 117.361,70.056 117.361,70.56 C117.361,70.756 117.34,70.8867 117.298,70.952 C117.256,71.0173 117.176,71.05 117.06,71.05 L112.342,71.05 C112.351,71.498 112.412,71.8877 112.524,72.219 C112.636,72.5503 112.79,72.828 112.986,73.052 C113.182,73.2713 113.415,73.437 113.686,73.549 C113.956,73.6563 114.26,73.71 114.596,73.71 C114.908,73.71 115.177,73.675 115.401,73.605 C115.629,73.5303 115.825,73.451 115.989,73.367 C116.152,73.283 116.287,73.206 116.395,73.136 C116.507,73.0613 116.602,73.024 116.682,73.024 C116.784,73.024 116.864,73.0637 116.92,73.143 L117.27,73.598 C117.116,73.7847 116.931,73.948 116.717,74.088 C116.502,74.2233 116.271,74.3353 116.024,74.424 C115.781,74.5127 115.529,74.578 115.268,74.62 C115.006,74.6667 114.747,74.69 114.491,74.69 C114.001,74.69 113.548,74.6083 113.133,74.445 C112.722,74.277 112.365,74.0343 112.062,73.717 C111.763,73.395 111.53,72.9983 111.362,72.527 C111.194,72.0557 111.11,71.5143 111.11,70.903 C111.11,70.4083 111.184,69.9463 111.334,69.517 C111.488,69.0877 111.707,68.7167 111.992,68.404 C112.276,68.0867 112.624,67.8393 113.035,67.662 C113.445,67.48 113.907,67.389 114.421,67.389 Z M114.449,68.306 C113.847,68.306 113.373,68.481 113.028,68.831 C112.682,69.1763 112.468,69.657 112.384,70.273 L116.241,70.273 C116.241,69.9837 116.201,69.72 116.122,69.482 C116.042,69.2393 115.926,69.0317 115.772,68.859 C115.618,68.6817 115.429,68.5463 115.205,68.453 C114.985,68.355 114.733,68.306 114.449,68.306 Z M125.723,68.67 C125.667,68.7727 125.58,68.824 125.464,68.824 C125.394,68.824 125.314,68.7983 125.226,68.747 C125.137,68.6957 125.027,68.6397 124.897,68.579 C124.771,68.5137 124.619,68.4553 124.442,68.404 C124.264,68.348 124.054,68.32 123.812,68.32 C123.602,68.32 123.413,68.348 123.245,68.404 C123.077,68.4553 122.932,68.5277 122.811,68.621 C122.694,68.7143 122.603,68.824 122.538,68.95 C122.477,69.0713 122.447,69.2043 122.447,69.349 C122.447,69.531 122.498,69.6827 122.601,69.804 C122.708,69.9253 122.848,70.0303 123.021,70.119 C123.193,70.2077 123.389,70.287 123.609,70.357 C123.828,70.4223 124.052,70.4947 124.281,70.574 C124.514,70.6487 124.74,70.7327 124.96,70.826 C125.179,70.9193 125.375,71.036 125.548,71.176 C125.72,71.316 125.858,71.4887 125.961,71.694 C126.068,71.8947 126.122,72.1373 126.122,72.422 C126.122,72.7487 126.063,73.052 125.947,73.332 C125.83,73.6073 125.657,73.8477 125.429,74.053 C125.2,74.2537 124.92,74.4123 124.589,74.529 C124.257,74.6457 123.875,74.704 123.441,74.704 C122.946,74.704 122.498,74.6247 122.097,74.466 C121.695,74.3027 121.355,74.095 121.075,73.843 L121.369,73.367 C121.406,73.3063 121.45,73.2597 121.502,73.227 C121.553,73.1943 121.621,73.178 121.705,73.178 C121.789,73.178 121.877,73.2107 121.971,73.276 C122.064,73.3413 122.176,73.4137 122.307,73.493 C122.442,73.5723 122.603,73.6447 122.79,73.71 C122.981,73.7753 123.219,73.808 123.504,73.808 C123.746,73.808 123.959,73.7777 124.141,73.717 C124.323,73.6517 124.474,73.5653 124.596,73.458 C124.717,73.3507 124.806,73.227 124.862,73.087 C124.922,72.947 124.953,72.7977 124.953,72.639 C124.953,72.443 124.899,72.282 124.792,72.156 C124.689,72.0253 124.551,71.9157 124.379,71.827 C124.206,71.7337 124.008,71.6543 123.784,71.589 C123.564,71.519 123.338,71.4467 123.105,71.372 C122.876,71.2973 122.65,71.2133 122.426,71.12 C122.206,71.022 122.01,70.9007 121.838,70.756 C121.665,70.6113 121.525,70.434 121.418,70.224 C121.315,70.0093 121.264,69.7503 121.264,69.447 C121.264,69.1763 121.32,68.9173 121.432,68.67 C121.544,68.418 121.707,68.1987 121.922,68.012 C122.136,67.8207 122.4,67.669 122.713,67.557 C123.025,67.445 123.382,67.389 123.784,67.389 C124.25,67.389 124.668,67.4637 125.037,67.613 C125.41,67.7577 125.732,67.9583 126.003,68.215 L125.723,68.67 Z M128.811,67.501 L128.811,72.023 C128.811,72.5597 128.935,72.975 129.182,73.269 C129.429,73.563 129.803,73.71 130.302,73.71 C130.666,73.71 131.009,73.6237 131.331,73.451 C131.653,73.2783 131.949,73.038 132.22,72.73 L132.22,67.501 L133.466,67.501 L133.466,74.592 L132.724,74.592 C132.547,74.592 132.435,74.5057 132.388,74.333 L132.29,73.57 C131.982,73.9107 131.637,74.186 131.254,74.396 C130.871,74.6013 130.433,74.704 129.938,74.704 C129.551,74.704 129.208,74.641 128.909,74.515 C128.615,74.3843 128.368,74.2023 128.167,73.969 C127.966,73.7357 127.815,73.4533 127.712,73.122 C127.614,72.7907 127.565,72.4243 127.565,72.023 L127.565,67.501 L128.811,67.501 Z M140.349,68.761 C140.312,68.8123 140.275,68.852 140.237,68.88 C140.2,68.908 140.146,68.922 140.076,68.922 C140.006,68.922 139.929,68.894 139.845,68.838 C139.766,68.7773 139.663,68.712 139.537,68.642 C139.411,68.572 139.257,68.509 139.075,68.453 C138.898,68.3923 138.679,68.362 138.417,68.362 C138.072,68.362 137.766,68.425 137.5,68.551 C137.234,68.6723 137.01,68.8497 136.828,69.083 C136.651,69.3163 136.516,69.5987 136.422,69.93 C136.334,70.2613 136.289,70.6323 136.289,71.043 C136.289,71.4723 136.338,71.855 136.436,72.191 C136.534,72.5223 136.672,72.8023 136.849,73.031 C137.027,73.255 137.241,73.4277 137.493,73.549 C137.75,73.6657 138.037,73.724 138.354,73.724 C138.658,73.724 138.907,73.689 139.103,73.619 C139.299,73.5443 139.463,73.4627 139.593,73.374 C139.724,73.2853 139.831,73.206 139.915,73.136 C139.999,73.0613 140.083,73.024 140.167,73.024 C140.275,73.024 140.354,73.0637 140.405,73.143 L140.755,73.598 C140.447,73.976 140.062,74.2537 139.6,74.431 C139.138,74.6037 138.651,74.69 138.137,74.69 C137.694,74.69 137.281,74.6083 136.898,74.445 C136.52,74.2817 136.191,74.046 135.911,73.738 C135.631,73.4253 135.41,73.0427 135.246,72.59 C135.088,72.1373 135.008,71.6217 135.008,71.043 C135.008,70.5157 135.081,70.028 135.225,69.58 C135.375,69.132 135.589,68.747 135.869,68.425 C136.154,68.0983 136.504,67.844 136.919,67.662 C137.335,67.48 137.811,67.389 138.347,67.389 C138.842,67.389 139.281,67.4707 139.663,67.634 C140.046,67.7927 140.384,68.019 140.678,68.313 L140.349,68.761 Z M146.884,68.761 C146.847,68.8123 146.81,68.852 146.772,68.88 C146.735,68.908 146.681,68.922 146.611,68.922 C146.541,68.922 146.464,68.894 146.38,68.838 C146.301,68.7773 146.198,68.712 146.072,68.642 C145.946,68.572 145.792,68.509 145.61,68.453 C145.433,68.3923 145.214,68.362 144.952,68.362 C144.607,68.362 144.301,68.425 144.035,68.551 C143.769,68.6723 143.545,68.8497 143.363,69.083 C143.186,69.3163 143.051,69.5987 142.957,69.93 C142.869,70.2613 142.824,70.6323 142.824,71.043 C142.824,71.4723 142.873,71.855 142.971,72.191 C143.069,72.5223 143.207,72.8023 143.384,73.031 C143.562,73.255 143.776,73.4277 144.028,73.549 C144.285,73.6657 144.572,73.724 144.889,73.724 C145.193,73.724 145.442,73.689 145.638,73.619 C145.834,73.5443 145.998,73.4627 146.128,73.374 C146.259,73.2853 146.366,73.206 146.45,73.136 C146.534,73.0613 146.618,73.024 146.702,73.024 C146.81,73.024 146.889,73.0637 146.94,73.143 L147.29,73.598 C146.982,73.976 146.597,74.2537 146.135,74.431 C145.673,74.6037 145.186,74.69 144.672,74.69 C144.229,74.69 143.816,74.6083 143.433,74.445 C143.055,74.2817 142.726,74.046 142.446,73.738 C142.166,73.4253 141.945,73.0427 141.781,72.59 C141.623,72.1373 141.543,71.6217 141.543,71.043 C141.543,70.5157 141.616,70.028 141.76,69.58 C141.91,69.132 142.124,68.747 142.404,68.425 C142.689,68.0983 143.039,67.844 143.454,67.662 C143.87,67.48 144.346,67.389 144.882,67.389 C145.377,67.389 145.816,67.4707 146.198,67.634 C146.581,67.7927 146.919,68.019 147.213,68.313 L146.884,68.761 Z M151.39,67.389 C151.814,67.389 152.206,67.4613 152.566,67.606 C152.925,67.746 153.235,67.9513 153.497,68.222 C153.758,68.488 153.961,68.8193 154.106,69.216 C154.255,69.608 154.33,70.056 154.33,70.56 C154.33,70.756 154.309,70.8867 154.267,70.952 C154.225,71.0173 154.145,71.05 154.029,71.05 L149.311,71.05 C149.32,71.498 149.381,71.8877 149.493,72.219 C149.605,72.5503 149.759,72.828 149.955,73.052 C150.151,73.2713 150.384,73.437 150.655,73.549 C150.925,73.6563 151.229,73.71 151.565,73.71 C151.877,73.71 152.146,73.675 152.37,73.605 C152.598,73.5303 152.794,73.451 152.958,73.367 C153.121,73.283 153.256,73.206 153.364,73.136 C153.476,73.0613 153.571,73.024 153.651,73.024 C153.753,73.024 153.833,73.0637 153.889,73.143 L154.239,73.598 C154.085,73.7847 153.9,73.948 153.686,74.088 C153.471,74.2233 153.24,74.3353 152.993,74.424 C152.75,74.5127 152.498,74.578 152.237,74.62 C151.975,74.6667 151.716,74.69 151.46,74.69 C150.97,74.69 150.517,74.6083 150.102,74.445 C149.691,74.277 149.334,74.0343 149.031,73.717 C148.732,73.395 148.499,72.9983 148.331,72.527 C148.163,72.0557 148.079,71.5143 148.079,70.903 C148.079,70.4083 148.153,69.9463 148.303,69.517 C148.457,69.0877 148.676,68.7167 148.961,68.404 C149.245,68.0867 149.593,67.8393 150.004,67.662 C150.414,67.48 150.876,67.389 151.39,67.389 Z M151.418,68.306 C150.816,68.306 150.342,68.481 149.997,68.831 C149.651,69.1763 149.437,69.657 149.353,70.273 L153.21,70.273 C153.21,69.9837 153.17,69.72 153.091,69.482 C153.011,69.2393 152.895,69.0317 152.741,68.859 C152.587,68.6817 152.398,68.5463 152.174,68.453 C151.954,68.355 151.702,68.306 151.418,68.306 Z M159.984,68.67 C159.928,68.7727 159.842,68.824 159.725,68.824 C159.655,68.824 159.576,68.7983 159.487,68.747 C159.399,68.6957 159.289,68.6397 159.158,68.579 C159.032,68.5137 158.881,68.4553 158.703,68.404 C158.526,68.348 158.316,68.32 158.073,68.32 C157.863,68.32 157.674,68.348 157.506,68.404 C157.338,68.4553 157.194,68.5277 157.072,68.621 C156.956,68.7143 156.865,68.824 156.799,68.95 C156.739,69.0713 156.708,69.2043 156.708,69.349 C156.708,69.531 156.76,69.6827 156.862,69.804 C156.97,69.9253 157.11,70.0303 157.282,70.119 C157.455,70.2077 157.651,70.287 157.87,70.357 C158.09,70.4223 158.314,70.4947 158.542,70.574 C158.776,70.6487 159.002,70.7327 159.221,70.826 C159.441,70.9193 159.637,71.036 159.809,71.176 C159.982,71.316 160.12,71.4887 160.222,71.694 C160.33,71.8947 160.383,72.1373 160.383,72.422 C160.383,72.7487 160.325,73.052 160.208,73.332 C160.092,73.6073 159.919,73.8477 159.69,74.053 C159.462,74.2537 159.182,74.4123 158.85,74.529 C158.519,74.6457 158.136,74.704 157.702,74.704 C157.208,74.704 156.76,74.6247 156.358,74.466 C155.957,74.3027 155.616,74.095 155.336,73.843 L155.63,73.367 C155.668,73.3063 155.712,73.2597 155.763,73.227 C155.815,73.1943 155.882,73.178 155.966,73.178 C156.05,73.178 156.139,73.2107 156.232,73.276 C156.326,73.3413 156.438,73.4137 156.568,73.493 C156.704,73.5723 156.865,73.6447 157.051,73.71 C157.243,73.7753 157.481,73.808 157.765,73.808 C158.008,73.808 158.22,73.7777 158.402,73.717 C158.584,73.6517 158.736,73.5653 158.857,73.458 C158.979,73.3507 159.067,73.227 159.123,73.087 C159.184,72.947 159.214,72.7977 159.214,72.639 C159.214,72.443 159.161,72.282 159.053,72.156 C158.951,72.0253 158.813,71.9157 158.64,71.827 C158.468,71.7337 158.269,71.6543 158.045,71.589 C157.826,71.519 157.6,71.4467 157.366,71.372 C157.138,71.2973 156.911,71.2133 156.687,71.12 C156.468,71.022 156.272,70.9007 156.099,70.756 C155.927,70.6113 155.787,70.434 155.679,70.224 C155.577,70.0093 155.525,69.7503 155.525,69.447 C155.525,69.1763 155.581,68.9173 155.693,68.67 C155.805,68.418 155.969,68.1987 156.183,68.012 C156.398,67.8207 156.662,67.669 156.974,67.557 C157.287,67.445 157.644,67.389 158.045,67.389 C158.512,67.389 158.93,67.4637 159.298,67.613 C159.672,67.7577 159.994,67.9583 160.264,68.215 L159.984,68.67 Z M162.275,74.592 L162.275,68.565 L161.491,68.474 C161.393,68.4507 161.311,68.4157 161.246,68.369 C161.185,68.3177 161.155,68.2453 161.155,68.152 L161.155,67.641 L162.275,67.641 L162.275,66.955 C162.275,66.549 162.331,66.1897 162.443,65.877 C162.559,65.5597 162.723,65.2937 162.933,65.079 C163.147,64.8597 163.404,64.694 163.703,64.582 C164.001,64.47 164.337,64.414 164.711,64.414 C165.028,64.414 165.322,64.4607 165.593,64.554 L165.565,65.177 C165.56,65.2703 165.52,65.3263 165.446,65.345 C165.371,65.3637 165.266,65.373 165.131,65.373 L164.914,65.373 C164.699,65.373 164.503,65.401 164.326,65.457 C164.153,65.513 164.004,65.604 163.878,65.73 C163.752,65.856 163.654,66.0217 163.584,66.227 C163.518,66.4323 163.486,66.6867 163.486,66.99 L163.486,67.641 L165.537,67.641 L165.537,68.544 L163.528,68.544 L163.528,74.592 L162.275,74.592 Z M167.789,67.501 L167.789,72.023 C167.789,72.5597 167.913,72.975 168.16,73.269 C168.408,73.563 168.781,73.71 169.28,73.71 C169.644,73.71 169.987,73.6237 170.309,73.451 C170.631,73.2783 170.928,73.038 171.198,72.73 L171.198,67.501 L172.444,67.501 L172.444,74.592 L171.702,74.592 C171.525,74.592 171.413,74.5057 171.366,74.333 L171.268,73.57 C170.96,73.9107 170.615,74.186 170.232,74.396 C169.85,74.6013 169.411,74.704 168.916,74.704 C168.529,74.704 168.186,74.641 167.887,74.515 C167.593,74.3843 167.346,74.2023 167.145,73.969 C166.945,73.7357 166.793,73.4533 166.69,73.122 C166.592,72.7907 166.543,72.4243 166.543,72.023 L166.543,67.501 L167.789,67.501 Z M175.877,64.281 L175.877,74.592 L174.631,74.592 L174.631,64.281 L175.877,64.281 Z M179.459,64.281 L179.459,74.592 L178.213,74.592 L178.213,64.281 L179.459,64.281 Z M183.734,76.685 C183.692,76.7783 183.638,76.853 183.573,76.909 C183.512,76.965 183.416,76.993 183.286,76.993 L182.362,76.993 L183.657,74.179 L180.731,67.501 L181.809,67.501 C181.916,67.501 182,67.529 182.061,67.585 C182.121,67.6363 182.166,67.6947 182.194,67.76 L184.091,72.226 C184.133,72.3287 184.168,72.4313 184.196,72.534 C184.228,72.6367 184.256,72.7417 184.28,72.849 C184.312,72.7417 184.345,72.6367 184.378,72.534 C184.41,72.4313 184.448,72.3263 184.49,72.219 L186.331,67.76 C186.359,67.6853 186.405,67.6247 186.471,67.578 C186.541,67.5267 186.615,67.501 186.695,67.501 L187.689,67.501 L183.734,76.685 Z M192.604,67.501 L192.604,72.023 C192.604,72.5597 192.728,72.975 192.975,73.269 C193.222,73.563 193.596,73.71 194.095,73.71 C194.459,73.71 194.802,73.6237 195.124,73.451 C195.446,73.2783 195.742,73.038 196.013,72.73 L196.013,67.501 L197.259,67.501 L197.259,74.592 L196.517,74.592 C196.34,74.592 196.228,74.5057 196.181,74.333 L196.083,73.57 C195.775,73.9107 195.43,74.186 195.047,74.396 C194.664,74.6013 194.226,74.704 193.731,74.704 C193.344,74.704 193.001,74.641 192.702,74.515 C192.408,74.3843 192.161,74.2023 191.96,73.969 C191.759,73.7357 191.608,73.4533 191.505,73.122 C191.407,72.7907 191.358,72.4243 191.358,72.023 L191.358,67.501 L192.604,67.501 Z M199.305,76.993 L199.305,67.501 L200.047,67.501 C200.225,67.501 200.337,67.5873 200.383,67.76 L200.488,68.6 C200.792,68.2313 201.137,67.935 201.524,67.711 C201.916,67.487 202.367,67.375 202.875,67.375 C203.281,67.375 203.65,67.4543 203.981,67.613 C204.313,67.767 204.595,67.998 204.828,68.306 C205.062,68.6093 205.241,68.9873 205.367,69.44 C205.493,69.8927 205.556,70.413 205.556,71.001 C205.556,71.5237 205.486,72.0113 205.346,72.464 C205.206,72.912 205.006,73.3017 204.744,73.633 C204.483,73.9597 204.161,74.2187 203.778,74.41 C203.4,74.5967 202.973,74.69 202.497,74.69 C202.059,74.69 201.683,74.6177 201.37,74.473 C201.062,74.3283 200.789,74.123 200.551,73.857 L200.551,76.993 L199.305,76.993 Z M202.462,68.383 C202.056,68.383 201.699,68.4763 201.391,68.663 C201.088,68.8497 200.808,69.1133 200.551,69.454 L200.551,72.884 C200.78,73.192 201.03,73.409 201.3,73.535 C201.576,73.661 201.881,73.724 202.217,73.724 C202.875,73.724 203.382,73.4883 203.736,73.017 C204.091,72.5457 204.268,71.8737 204.268,71.001 C204.268,70.539 204.226,70.1423 204.142,69.811 C204.063,69.4797 203.946,69.209 203.792,68.999 C203.638,68.7843 203.449,68.628 203.225,68.53 C203.001,68.432 202.747,68.383 202.462,68.383 Z M212.021,74.592 C211.843,74.592 211.731,74.5057 211.685,74.333 L211.573,73.472 C211.269,73.8407 210.922,74.137 210.53,74.361 C210.142,74.5803 209.697,74.69 209.193,74.69 C208.787,74.69 208.418,74.613 208.087,74.459 C207.755,74.3003 207.473,74.0693 207.24,73.766 C207.006,73.4627 206.827,73.0847 206.701,72.632 C206.575,72.1793 206.512,71.659 206.512,71.071 C206.512,70.5483 206.582,70.063 206.722,69.615 C206.862,69.1623 207.062,68.7703 207.324,68.439 C207.59,68.1077 207.912,67.8487 208.29,67.662 C208.668,67.4707 209.097,67.375 209.578,67.375 C210.012,67.375 210.383,67.4497 210.691,67.599 C210.999,67.7437 211.274,67.949 211.517,68.215 L211.517,64.281 L212.763,64.281 L212.763,74.592 L212.021,74.592 Z M209.606,73.682 C210.012,73.682 210.366,73.5887 210.67,73.402 C210.978,73.2153 211.26,72.9517 211.517,72.611 L211.517,69.181 C211.288,68.873 211.036,68.6583 210.761,68.537 C210.49,68.411 210.189,68.348 209.858,68.348 C209.195,68.348 208.686,68.5837 208.332,69.055 C207.977,69.5263 207.8,70.1983 207.8,71.071 C207.8,71.533 207.839,71.9297 207.919,72.261 C207.998,72.5877 208.115,72.8583 208.269,73.073 C208.423,73.283 208.612,73.437 208.836,73.535 C209.06,73.633 209.316,73.682 209.606,73.682 Z M220.058,74.592 L219.505,74.592 C219.384,74.592 219.286,74.5733 219.211,74.536 C219.136,74.4987 219.087,74.4193 219.064,74.298 L218.924,73.64 C218.737,73.808 218.555,73.9597 218.378,74.095 C218.201,74.2257 218.014,74.3377 217.818,74.431 C217.622,74.5197 217.412,74.5873 217.188,74.634 C216.969,74.6807 216.724,74.704 216.453,74.704 C216.178,74.704 215.919,74.6667 215.676,74.592 C215.438,74.5127 215.23,74.396 215.053,74.242 C214.876,74.088 214.733,73.8943 214.626,73.661 C214.523,73.423 214.472,73.143 214.472,72.821 C214.472,72.541 214.549,72.2727 214.703,72.016 C214.857,71.7547 215.104,71.5237 215.445,71.323 C215.79,71.1223 216.241,70.959 216.796,70.833 C217.351,70.7023 218.03,70.6277 218.833,70.609 L218.833,70.056 C218.833,69.5053 218.714,69.09 218.476,68.81 C218.243,68.5253 217.895,68.383 217.433,68.383 C217.13,68.383 216.873,68.4227 216.663,68.502 C216.458,68.5767 216.278,68.663 216.124,68.761 C215.975,68.8543 215.844,68.9407 215.732,69.02 C215.625,69.0947 215.517,69.132 215.41,69.132 C215.326,69.132 215.251,69.111 215.186,69.069 C215.125,69.0223 215.076,68.9663 215.039,68.901 L214.815,68.502 C215.207,68.124 215.629,67.8417 216.082,67.655 C216.535,67.4683 217.036,67.375 217.587,67.375 C217.984,67.375 218.336,67.4403 218.644,67.571 C218.952,67.7017 219.211,67.8837 219.421,68.117 C219.631,68.3503 219.79,68.6327 219.897,68.964 C220.004,69.2953 220.058,69.6593 220.058,70.056 L220.058,74.592 Z M216.824,73.829 C217.043,73.829 217.244,73.808 217.426,73.766 C217.608,73.7193 217.778,73.6563 217.937,73.577 C218.1,73.493 218.254,73.3927 218.399,73.276 C218.548,73.1593 218.693,73.0263 218.833,72.877 L218.833,71.4 C218.259,71.4187 217.771,71.4653 217.37,71.54 C216.969,71.61 216.642,71.7033 216.39,71.82 C216.138,71.9367 215.954,72.0743 215.837,72.233 C215.725,72.3917 215.669,72.569 215.669,72.765 C215.669,72.9517 215.699,73.1127 215.76,73.248 C215.821,73.3833 215.902,73.4953 216.005,73.584 C216.108,73.668 216.229,73.731 216.369,73.773 C216.509,73.8103 216.661,73.829 216.824,73.829 Z M224.095,74.704 C223.535,74.704 223.103,74.5477 222.8,74.235 C222.501,73.9223 222.352,73.472 222.352,72.884 L222.352,68.544 L221.498,68.544 C221.423,68.544 221.36,68.523 221.309,68.481 C221.257,68.4343 221.232,68.3643 221.232,68.271 L221.232,67.774 L222.394,67.627 L222.681,65.436 C222.69,65.366 222.72,65.31 222.772,65.268 C222.823,65.2213 222.888,65.198 222.968,65.198 L223.598,65.198 L223.598,67.641 L225.628,67.641 L225.628,68.544 L223.598,68.544 L223.598,72.8 C223.598,73.0987 223.67,73.3203 223.815,73.465 C223.959,73.6097 224.146,73.682 224.375,73.682 C224.505,73.682 224.617,73.6657 224.711,73.633 C224.809,73.5957 224.893,73.556 224.963,73.514 C225.033,73.472 225.091,73.4347 225.138,73.402 C225.189,73.3647 225.233,73.346 225.271,73.346 C225.336,73.346 225.394,73.3857 225.446,73.465 L225.81,74.06 C225.595,74.2607 225.336,74.4193 225.033,74.536 C224.729,74.648 224.417,74.704 224.095,74.704 Z M229.975,67.389 C230.4,67.389 230.792,67.4613 231.151,67.606 C231.511,67.746 231.821,67.9513 232.082,68.222 C232.344,68.488 232.547,68.8193 232.691,69.216 C232.841,69.608 232.915,70.056 232.915,70.56 C232.915,70.756 232.894,70.8867 232.852,70.952 C232.81,71.0173 232.731,71.05 232.614,71.05 L227.896,71.05 C227.906,71.498 227.966,71.8877 228.078,72.219 C228.19,72.5503 228.344,72.828 228.54,73.052 C228.736,73.2713 228.97,73.437 229.24,73.549 C229.511,73.6563 229.814,73.71 230.15,73.71 C230.463,73.71 230.731,73.675 230.955,73.605 C231.184,73.5303 231.38,73.451 231.543,73.367 C231.707,73.283 231.842,73.206 231.949,73.136 C232.061,73.0613 232.157,73.024 232.236,73.024 C232.339,73.024 232.418,73.0637 232.474,73.143 L232.824,73.598 C232.67,73.7847 232.486,73.948 232.271,74.088 C232.057,74.2233 231.826,74.3353 231.578,74.424 C231.336,74.5127 231.084,74.578 230.822,74.62 C230.561,74.6667 230.302,74.69 230.045,74.69 C229.555,74.69 229.103,74.6083 228.687,74.445 C228.277,74.277 227.92,74.0343 227.616,73.717 C227.318,73.395 227.084,72.9983 226.916,72.527 C226.748,72.0557 226.664,71.5143 226.664,70.903 C226.664,70.4083 226.739,69.9463 226.888,69.517 C227.042,69.0877 227.262,68.7167 227.546,68.404 C227.831,68.0867 228.179,67.8393 228.589,67.662 C229,67.48 229.462,67.389 229.975,67.389 Z M230.003,68.306 C229.401,68.306 228.928,68.481 228.582,68.831 C228.237,69.1763 228.022,69.657 227.938,70.273 L231.795,70.273 C231.795,69.9837 231.756,69.72 231.676,69.482 C231.597,69.2393 231.48,69.0317 231.326,68.859 C231.172,68.6817 230.983,68.5463 230.759,68.453 C230.54,68.355 230.288,68.306 230.003,68.306 Z M239.501,74.592 C239.324,74.592 239.212,74.5057 239.165,74.333 L239.053,73.472 C238.75,73.8407 238.402,74.137 238.01,74.361 C237.623,74.5803 237.177,74.69 236.673,74.69 C236.267,74.69 235.899,74.613 235.567,74.459 C235.236,74.3003 234.954,74.0693 234.72,73.766 C234.487,73.4627 234.307,73.0847 234.181,72.632 C234.055,72.1793 233.992,71.659 233.992,71.071 C233.992,70.5483 234.062,70.063 234.202,69.615 C234.342,69.1623 234.543,68.7703 234.804,68.439 C235.07,68.1077 235.392,67.8487 235.77,67.662 C236.148,67.4707 236.578,67.375 237.058,67.375 C237.492,67.375 237.863,67.4497 238.171,67.599 C238.479,67.7437 238.755,67.949 238.997,68.215 L238.997,64.281 L240.243,64.281 L240.243,74.592 L239.501,74.592 Z M237.086,73.682 C237.492,73.682 237.847,73.5887 238.15,73.402 C238.458,73.2153 238.741,72.9517 238.997,72.611 L238.997,69.181 C238.769,68.873 238.517,68.6583 238.241,68.537 C237.971,68.411 237.67,68.348 237.338,68.348 C236.676,68.348 236.167,68.5837 235.812,69.055 C235.458,69.5263 235.28,70.1983 235.28,71.071 C235.28,71.533 235.32,71.9297 235.399,72.261 C235.479,72.5877 235.595,72.8583 235.749,73.073 C235.903,73.283 236.092,73.437 236.316,73.535 C236.54,73.633 236.797,73.682 237.086,73.682 Z M247.187,74.704 C246.627,74.704 246.195,74.5477 245.892,74.235 C245.593,73.9223 245.444,73.472 245.444,72.884 L245.444,68.544 L244.59,68.544 C244.515,68.544 244.452,68.523 244.401,68.481 C244.349,68.4343 244.324,68.3643 244.324,68.271 L244.324,67.774 L245.486,67.627 L245.773,65.436 C245.782,65.366 245.812,65.31 245.864,65.268 C245.915,65.2213 245.98,65.198 246.06,65.198 L246.69,65.198 L246.69,67.641 L248.72,67.641 L248.72,68.544 L246.69,68.544 L246.69,72.8 C246.69,73.0987 246.762,73.3203 246.907,73.465 C247.051,73.6097 247.238,73.682 247.467,73.682 C247.597,73.682 247.709,73.6657 247.803,73.633 C247.901,73.5957 247.985,73.556 248.055,73.514 C248.125,73.472 248.183,73.4347 248.23,73.402 C248.281,73.3647 248.325,73.346 248.363,73.346 C248.428,73.346 248.486,73.3857 248.538,73.465 L248.902,74.06 C248.687,74.2607 248.428,74.4193 248.125,74.536 C247.821,74.648 247.509,74.704 247.187,74.704 Z M250.26,74.592 L250.26,64.281 L251.506,64.281 L251.506,68.453 C251.81,68.131 252.146,67.8743 252.514,67.683 C252.883,67.487 253.308,67.389 253.788,67.389 C254.176,67.389 254.516,67.4543 254.81,67.585 C255.109,67.711 255.356,67.893 255.552,68.131 C255.753,68.3643 255.905,68.6467 256.007,68.978 C256.11,69.3093 256.161,69.6757 256.161,70.077 L256.161,74.592 L254.915,74.592 L254.915,70.077 C254.915,69.5403 254.792,69.125 254.544,68.831 C254.302,68.5323 253.928,68.383 253.424,68.383 C253.056,68.383 252.71,68.4717 252.388,68.649 C252.071,68.8263 251.777,69.0667 251.506,69.37 L251.506,74.592 L250.26,74.592 Z M260.847,67.389 C261.271,67.389 261.663,67.4613 262.023,67.606 C262.382,67.746 262.692,67.9513 262.954,68.222 C263.215,68.488 263.418,68.8193 263.563,69.216 C263.712,69.608 263.787,70.056 263.787,70.56 C263.787,70.756 263.766,70.8867 263.724,70.952 C263.682,71.0173 263.602,71.05 263.486,71.05 L258.768,71.05 C258.777,71.498 258.838,71.8877 258.95,72.219 C259.062,72.5503 259.216,72.828 259.412,73.052 C259.608,73.2713 259.841,73.437 260.112,73.549 C260.382,73.6563 260.686,73.71 261.022,73.71 C261.334,73.71 261.603,73.675 261.827,73.605 C262.055,73.5303 262.251,73.451 262.415,73.367 C262.578,73.283 262.713,73.206 262.821,73.136 C262.933,73.0613 263.028,73.024 263.108,73.024 C263.21,73.024 263.29,73.0637 263.346,73.143 L263.696,73.598 C263.542,73.7847 263.357,73.948 263.143,74.088 C262.928,74.2233 262.697,74.3353 262.45,74.424 C262.207,74.5127 261.955,74.578 261.694,74.62 C261.432,74.6667 261.173,74.69 260.917,74.69 C260.427,74.69 259.974,74.6083 259.559,74.445 C259.148,74.277 258.791,74.0343 258.488,73.717 C258.189,73.395 257.956,72.9983 257.788,72.527 C257.62,72.0557 257.536,71.5143 257.536,70.903 C257.536,70.4083 257.61,69.9463 257.76,69.517 C257.914,69.0877 258.133,68.7167 258.418,68.404 C258.702,68.0867 259.05,67.8393 259.461,67.662 C259.871,67.48 260.333,67.389 260.847,67.389 Z M260.875,68.306 C260.273,68.306 259.799,68.481 259.454,68.831 C259.108,69.1763 258.894,69.657 258.81,70.273 L262.667,70.273 C262.667,69.9837 262.627,69.72 262.548,69.482 C262.468,69.2393 262.352,69.0317 262.198,68.859 C262.044,68.6817 261.855,68.5463 261.631,68.453 C261.411,68.355 261.159,68.306 260.875,68.306 Z M268.088,76.993 L268.088,67.501 L268.83,67.501 C269.008,67.501 269.12,67.5873 269.166,67.76 L269.271,68.6 C269.575,68.2313 269.92,67.935 270.307,67.711 C270.699,67.487 271.15,67.375 271.658,67.375 C272.064,67.375 272.433,67.4543 272.764,67.613 C273.096,67.767 273.378,67.998 273.611,68.306 C273.845,68.6093 274.024,68.9873 274.15,69.44 C274.276,69.8927 274.339,70.413 274.339,71.001 C274.339,71.5237 274.269,72.0113 274.129,72.464 C273.989,72.912 273.789,73.3017 273.527,73.633 C273.266,73.9597 272.944,74.2187 272.561,74.41 C272.183,74.5967 271.756,74.69 271.28,74.69 C270.842,74.69 270.466,74.6177 270.153,74.473 C269.845,74.3283 269.572,74.123 269.334,73.857 L269.334,76.993 L268.088,76.993 Z M271.245,68.383 C270.839,68.383 270.482,68.4763 270.174,68.663 C269.871,68.8497 269.591,69.1133 269.334,69.454 L269.334,72.884 C269.563,73.192 269.813,73.409 270.083,73.535 C270.359,73.661 270.664,73.724 271,73.724 C271.658,73.724 272.165,73.4883 272.519,73.017 C272.874,72.5457 273.051,71.8737 273.051,71.001 C273.051,70.539 273.009,70.1423 272.925,69.811 C272.846,69.4797 272.729,69.209 272.575,68.999 C272.421,68.7843 272.232,68.628 272.008,68.53 C271.784,68.432 271.53,68.383 271.245,68.383 Z M275.813,74.592 L275.813,67.501 L276.527,67.501 C276.662,67.501 276.756,67.5267 276.807,67.578 C276.858,67.6293 276.893,67.718 276.912,67.844 L276.996,68.95 C277.239,68.4553 277.537,68.0703 277.892,67.795 C278.251,67.515 278.671,67.375 279.152,67.375 C279.348,67.375 279.525,67.3983 279.684,67.445 C279.843,67.487 279.99,67.5477 280.125,67.627 L279.964,68.558 C279.931,68.6747 279.859,68.733 279.747,68.733 C279.682,68.733 279.581,68.712 279.446,68.67 C279.311,68.6233 279.122,68.6 278.879,68.6 C278.445,68.6 278.081,68.726 277.787,68.978 C277.498,69.23 277.255,69.5963 277.059,70.077 L277.059,74.592 L275.813,74.592 Z M284.33,67.389 C284.848,67.389 285.314,67.4753 285.73,67.648 C286.15,67.8207 286.504,68.0657 286.794,68.383 C287.088,68.7003 287.312,69.0853 287.466,69.538 C287.624,69.986 287.704,70.4877 287.704,71.043 C287.704,71.603 287.624,72.107 287.466,72.555 C287.312,73.003 287.088,73.3857 286.794,73.703 C286.504,74.0203 286.15,74.2653 285.73,74.438 C285.314,74.606 284.848,74.69 284.33,74.69 C283.812,74.69 283.343,74.606 282.923,74.438 C282.507,74.2653 282.153,74.0203 281.859,73.703 C281.565,73.3857 281.338,73.003 281.18,72.555 C281.021,72.107 280.942,71.603 280.942,71.043 C280.942,70.4877 281.021,69.986 281.18,69.538 C281.338,69.0853 281.565,68.7003 281.859,68.383 C282.153,68.0657 282.507,67.8207 282.923,67.648 C283.343,67.4753 283.812,67.389 284.33,67.389 Z M284.33,73.717 C285.03,73.717 285.552,73.4837 285.898,73.017 C286.243,72.5457 286.416,71.89 286.416,71.05 C286.416,70.2053 286.243,69.5473 285.898,69.076 C285.552,68.6047 285.03,68.369 284.33,68.369 C283.975,68.369 283.667,68.4297 283.406,68.551 C283.144,68.6723 282.925,68.8473 282.748,69.076 C282.575,69.3047 282.444,69.587 282.356,69.923 C282.272,70.2543 282.23,70.63 282.23,71.05 C282.23,71.47 282.272,71.8457 282.356,72.177 C282.444,72.5083 282.575,72.7883 282.748,73.017 C282.925,73.241 283.144,73.4137 283.406,73.535 C283.667,73.6563 283.975,73.717 284.33,73.717 Z M290.625,67.501 L290.625,75.117 C290.625,75.4017 290.587,75.6653 290.513,75.908 C290.438,76.1553 290.319,76.37 290.156,76.552 C289.997,76.734 289.789,76.8763 289.533,76.979 C289.281,77.0863 288.977,77.14 288.623,77.14 C288.469,77.14 288.329,77.1283 288.203,77.105 C288.077,77.0817 287.951,77.0467 287.825,77 L287.881,76.328 C287.89,76.2673 287.911,76.2277 287.944,76.209 C287.976,76.195 288.028,76.188 288.098,76.188 C288.135,76.188 288.175,76.188 288.217,76.188 C288.259,76.1927 288.31,76.195 288.371,76.195 C288.735,76.195 288.994,76.1087 289.148,75.936 C289.302,75.768 289.379,75.495 289.379,75.117 L289.379,67.501 L290.625,67.501 Z M290.905,65.275 C290.905,65.3963 290.879,65.5107 290.828,65.618 C290.781,65.7207 290.716,65.814 290.632,65.898 C290.552,65.9773 290.459,66.0403 290.352,66.087 C290.244,66.1337 290.13,66.157 290.009,66.157 C289.887,66.157 289.773,66.1337 289.666,66.087 C289.563,66.0403 289.47,65.9773 289.386,65.898 C289.306,65.814 289.243,65.7207 289.197,65.618 C289.15,65.5107 289.127,65.3963 289.127,65.275 C289.127,65.1537 289.15,65.0393 289.197,64.932 C289.243,64.82 289.306,64.7243 289.386,64.645 C289.47,64.561 289.563,64.4957 289.666,64.449 C289.773,64.4023 289.887,64.379 290.009,64.379 C290.13,64.379 290.244,64.4023 290.352,64.449 C290.459,64.4957 290.552,64.561 290.632,64.645 C290.716,64.7243 290.781,64.82 290.828,64.932 C290.879,65.0393 290.905,65.1537 290.905,65.275 Z M295.6,67.389 C296.025,67.389 296.417,67.4613 296.776,67.606 C297.136,67.746 297.446,67.9513 297.707,68.222 C297.969,68.488 298.172,68.8193 298.316,69.216 C298.466,69.608 298.54,70.056 298.54,70.56 C298.54,70.756 298.519,70.8867 298.477,70.952 C298.435,71.0173 298.356,71.05 298.239,71.05 L293.521,71.05 C293.531,71.498 293.591,71.8877 293.703,72.219 C293.815,72.5503 293.969,72.828 294.165,73.052 C294.361,73.2713 294.595,73.437 294.865,73.549 C295.136,73.6563 295.439,73.71 295.775,73.71 C296.088,73.71 296.356,73.675 296.58,73.605 C296.809,73.5303 297.005,73.451 297.168,73.367 C297.332,73.283 297.467,73.206 297.574,73.136 C297.686,73.0613 297.782,73.024 297.861,73.024 C297.964,73.024 298.043,73.0637 298.099,73.143 L298.449,73.598 C298.295,73.7847 298.111,73.948 297.896,74.088 C297.682,74.2233 297.451,74.3353 297.203,74.424 C296.961,74.5127 296.709,74.578 296.447,74.62 C296.186,74.6667 295.927,74.69 295.67,74.69 C295.18,74.69 294.728,74.6083 294.312,74.445 C293.902,74.277 293.545,74.0343 293.241,73.717 C292.943,73.395 292.709,72.9983 292.541,72.527 C292.373,72.0557 292.289,71.5143 292.289,70.903 C292.289,70.4083 292.364,69.9463 292.513,69.517 C292.667,69.0877 292.887,68.7167 293.171,68.404 C293.456,68.0867 293.804,67.8393 294.214,67.662 C294.625,67.48 295.087,67.389 295.6,67.389 Z M295.628,68.306 C295.026,68.306 294.553,68.481 294.207,68.831 C293.862,69.1763 293.647,69.657 293.563,70.273 L297.42,70.273 C297.42,69.9837 297.381,69.72 297.301,69.482 C297.222,69.2393 297.105,69.0317 296.951,68.859 C296.797,68.6817 296.608,68.5463 296.384,68.453 C296.165,68.355 295.913,68.306 295.628,68.306 Z M304.972,68.761 C304.935,68.8123 304.898,68.852 304.86,68.88 C304.823,68.908 304.769,68.922 304.699,68.922 C304.629,68.922 304.552,68.894 304.468,68.838 C304.389,68.7773 304.286,68.712 304.16,68.642 C304.034,68.572 303.88,68.509 303.698,68.453 C303.521,68.3923 303.302,68.362 303.04,68.362 C302.695,68.362 302.389,68.425 302.123,68.551 C301.857,68.6723 301.633,68.8497 301.451,69.083 C301.274,69.3163 301.139,69.5987 301.045,69.93 C300.957,70.2613 300.912,70.6323 300.912,71.043 C300.912,71.4723 300.961,71.855 301.059,72.191 C301.157,72.5223 301.295,72.8023 301.472,73.031 C301.65,73.255 301.864,73.4277 302.116,73.549 C302.373,73.6657 302.66,73.724 302.977,73.724 C303.281,73.724 303.53,73.689 303.726,73.619 C303.922,73.5443 304.086,73.4627 304.216,73.374 C304.347,73.2853 304.454,73.206 304.538,73.136 C304.622,73.0613 304.706,73.024 304.79,73.024 C304.898,73.024 304.977,73.0637 305.028,73.143 L305.378,73.598 C305.07,73.976 304.685,74.2537 304.223,74.431 C303.761,74.6037 303.274,74.69 302.76,74.69 C302.317,74.69 301.904,74.6083 301.521,74.445 C301.143,74.2817 300.814,74.046 300.534,73.738 C300.254,73.4253 300.033,73.0427 299.869,72.59 C299.711,72.1373 299.631,71.6217 299.631,71.043 C299.631,70.5157 299.704,70.028 299.848,69.58 C299.998,69.132 300.212,68.747 300.492,68.425 C300.777,68.0983 301.127,67.844 301.542,67.662 C301.958,67.48 302.434,67.389 302.97,67.389 C303.465,67.389 303.904,67.4707 304.286,67.634 C304.669,67.7927 305.007,68.019 305.301,68.313 L304.972,68.761 Z M308.819,74.704 C308.259,74.704 307.828,74.5477 307.524,74.235 C307.226,73.9223 307.076,73.472 307.076,72.884 L307.076,68.544 L306.222,68.544 C306.148,68.544 306.085,68.523 306.033,68.481 C305.982,68.4343 305.956,68.3643 305.956,68.271 L305.956,67.774 L307.118,67.627 L307.405,65.436 C307.415,65.366 307.445,65.31 307.496,65.268 C307.548,65.2213 307.613,65.198 307.692,65.198 L308.322,65.198 L308.322,67.641 L310.352,67.641 L310.352,68.544 L308.322,68.544 L308.322,72.8 C308.322,73.0987 308.395,73.3203 308.539,73.465 C308.684,73.6097 308.871,73.682 309.099,73.682 C309.23,73.682 309.342,73.6657 309.435,73.633 C309.533,73.5957 309.617,73.556 309.687,73.514 C309.757,73.472 309.816,73.4347 309.862,73.402 C309.914,73.3647 309.958,73.346 309.995,73.346 C310.061,73.346 310.119,73.3857 310.17,73.465 L310.534,74.06 C310.32,74.2607 310.061,74.4193 309.757,74.536 C309.454,74.648 309.141,74.704 308.819,74.704 Z M319.591,74.592 C319.414,74.592 319.302,74.5057 319.255,74.333 L319.143,73.472 C318.84,73.8407 318.492,74.137 318.1,74.361 C317.713,74.5803 317.267,74.69 316.763,74.69 C316.357,74.69 315.988,74.613 315.657,74.459 C315.326,74.3003 315.043,74.0693 314.81,73.766 C314.577,73.4627 314.397,73.0847 314.271,72.632 C314.145,72.1793 314.082,71.659 314.082,71.071 C314.082,70.5483 314.152,70.063 314.292,69.615 C314.432,69.1623 314.633,68.7703 314.894,68.439 C315.16,68.1077 315.482,67.8487 315.86,67.662 C316.238,67.4707 316.667,67.375 317.148,67.375 C317.582,67.375 317.953,67.4497 318.261,67.599 C318.569,67.7437 318.844,67.949 319.087,68.215 L319.087,64.281 L320.333,64.281 L320.333,74.592 L319.591,74.592 Z M317.176,73.682 C317.582,73.682 317.937,73.5887 318.24,73.402 C318.548,73.2153 318.83,72.9517 319.087,72.611 L319.087,69.181 C318.858,68.873 318.606,68.6583 318.331,68.537 C318.06,68.411 317.759,68.348 317.428,68.348 C316.765,68.348 316.257,68.5837 315.902,69.055 C315.547,69.5263 315.37,70.1983 315.37,71.071 C315.37,71.533 315.41,71.9297 315.489,72.261 C315.568,72.5877 315.685,72.8583 315.839,73.073 C315.993,73.283 316.182,73.437 316.406,73.535 C316.63,73.633 316.887,73.682 317.176,73.682 Z M327.628,74.592 L327.075,74.592 C326.954,74.592 326.856,74.5733 326.781,74.536 C326.707,74.4987 326.658,74.4193 326.634,74.298 L326.494,73.64 C326.308,73.808 326.126,73.9597 325.948,74.095 C325.771,74.2257 325.584,74.3377 325.388,74.431 C325.192,74.5197 324.982,74.5873 324.758,74.634 C324.539,74.6807 324.294,74.704 324.023,74.704 C323.748,74.704 323.489,74.6667 323.246,74.592 C323.008,74.5127 322.801,74.396 322.623,74.242 C322.446,74.088 322.304,73.8943 322.196,73.661 C322.094,73.423 322.042,73.143 322.042,72.821 C322.042,72.541 322.119,72.2727 322.273,72.016 C322.427,71.7547 322.675,71.5237 323.015,71.323 C323.361,71.1223 323.811,70.959 324.366,70.833 C324.922,70.7023 325.601,70.6277 326.403,70.609 L326.403,70.056 C326.403,69.5053 326.284,69.09 326.046,68.81 C325.813,68.5253 325.465,68.383 325.003,68.383 C324.7,68.383 324.443,68.4227 324.233,68.502 C324.028,68.5767 323.848,68.663 323.694,68.761 C323.545,68.8543 323.414,68.9407 323.302,69.02 C323.195,69.0947 323.088,69.132 322.98,69.132 C322.896,69.132 322.822,69.111 322.756,69.069 C322.696,69.0223 322.647,68.9663 322.609,68.901 L322.385,68.502 C322.777,68.124 323.2,67.8417 323.652,67.655 C324.105,67.4683 324.607,67.375 325.157,67.375 C325.554,67.375 325.906,67.4403 326.214,67.571 C326.522,67.7017 326.781,67.8837 326.991,68.117 C327.201,68.3503 327.36,68.6327 327.467,68.964 C327.575,69.2953 327.628,69.6593 327.628,70.056 L327.628,74.592 Z M324.394,73.829 C324.614,73.829 324.814,73.808 324.996,73.766 C325.178,73.7193 325.349,73.6563 325.507,73.577 C325.671,73.493 325.825,73.3927 325.969,73.276 C326.119,73.1593 326.263,73.0263 326.403,72.877 L326.403,71.4 C325.829,71.4187 325.342,71.4653 324.94,71.54 C324.539,71.61 324.212,71.7033 323.96,71.82 C323.708,71.9367 323.524,72.0743 323.407,72.233 C323.295,72.3917 323.239,72.569 323.239,72.765 C323.239,72.9517 323.27,73.1127 323.33,73.248 C323.391,73.3833 323.473,73.4953 323.575,73.584 C323.678,73.668 323.799,73.731 323.939,73.773 C324.079,73.8103 324.231,73.829 324.394,73.829 Z M331.665,74.704 C331.105,74.704 330.673,74.5477 330.37,74.235 C330.071,73.9223 329.922,73.472 329.922,72.884 L329.922,68.544 L329.068,68.544 C328.993,68.544 328.93,68.523 328.879,68.481 C328.828,68.4343 328.802,68.3643 328.802,68.271 L328.802,67.774 L329.964,67.627 L330.251,65.436 C330.26,65.366 330.291,65.31 330.342,65.268 C330.393,65.2213 330.459,65.198 330.538,65.198 L331.168,65.198 L331.168,67.641 L333.198,67.641 L333.198,68.544 L331.168,68.544 L331.168,72.8 C331.168,73.0987 331.24,73.3203 331.385,73.465 C331.53,73.6097 331.716,73.682 331.945,73.682 C332.076,73.682 332.188,73.6657 332.281,73.633 C332.379,73.5957 332.463,73.556 332.533,73.514 C332.603,73.472 332.661,73.4347 332.708,73.402 C332.759,73.3647 332.804,73.346 332.841,73.346 C332.906,73.346 332.965,73.3857 333.016,73.465 L333.38,74.06 C333.165,74.2607 332.906,74.4193 332.603,74.536 C332.3,74.648 331.987,74.704 331.665,74.704 Z M339.947,74.592 L339.394,74.592 C339.272,74.592 339.174,74.5733 339.1,74.536 C339.025,74.4987 338.976,74.4193 338.953,74.298 L338.813,73.64 C338.626,73.808 338.444,73.9597 338.267,74.095 C338.089,74.2257 337.903,74.3377 337.707,74.431 C337.511,74.5197 337.301,74.5873 337.077,74.634 C336.857,74.6807 336.612,74.704 336.342,74.704 C336.066,74.704 335.807,74.6667 335.565,74.592 C335.327,74.5127 335.119,74.396 334.942,74.242 C334.764,74.088 334.622,73.8943 334.515,73.661 C334.412,73.423 334.361,73.143 334.361,72.821 C334.361,72.541 334.438,72.2727 334.592,72.016 C334.746,71.7547 334.993,71.5237 335.334,71.323 C335.679,71.1223 336.129,70.959 336.685,70.833 C337.24,70.7023 337.919,70.6277 338.722,70.609 L338.722,70.056 C338.722,69.5053 338.603,69.09 338.365,68.81 C338.131,68.5253 337.784,68.383 337.322,68.383 C337.018,68.383 336.762,68.4227 336.552,68.502 C336.346,68.5767 336.167,68.663 336.013,68.761 C335.863,68.8543 335.733,68.9407 335.621,69.02 C335.513,69.0947 335.406,69.132 335.299,69.132 C335.215,69.132 335.14,69.111 335.075,69.069 C335.014,69.0223 334.965,68.9663 334.928,68.901 L334.704,68.502 C335.096,68.124 335.518,67.8417 335.971,67.655 C336.423,67.4683 336.925,67.375 337.476,67.375 C337.872,67.375 338.225,67.4403 338.533,67.571 C338.841,67.7017 339.1,67.8837 339.31,68.117 C339.52,68.3503 339.678,68.6327 339.786,68.964 C339.893,69.2953 339.947,69.6593 339.947,70.056 L339.947,74.592 Z M336.713,73.829 C336.932,73.829 337.133,73.808 337.315,73.766 C337.497,73.7193 337.667,73.6563 337.826,73.577 C337.989,73.493 338.143,73.3927 338.288,73.276 C338.437,73.1593 338.582,73.0263 338.722,72.877 L338.722,71.4 C338.148,71.4187 337.66,71.4653 337.259,71.54 C336.857,71.61 336.531,71.7033 336.279,71.82 C336.027,71.9367 335.842,72.0743 335.726,72.233 C335.614,72.3917 335.558,72.569 335.558,72.765 C335.558,72.9517 335.588,73.1127 335.649,73.248 C335.709,73.3833 335.791,73.4953 335.894,73.584 C335.996,73.668 336.118,73.731 336.258,73.773 C336.398,73.8103 336.549,73.829 336.713,73.829 Z M341.429,73.822 C341.429,73.7007 341.45,73.5863 341.492,73.479 C341.538,73.3717 341.599,73.2783 341.674,73.199 C341.753,73.1197 341.846,73.0567 341.954,73.01 C342.061,72.9633 342.175,72.94 342.297,72.94 C342.418,72.94 342.532,72.9633 342.64,73.01 C342.747,73.0567 342.84,73.1197 342.92,73.199 C342.999,73.2783 343.06,73.3717 343.102,73.479 C343.148,73.5863 343.172,73.7007 343.172,73.822 C343.172,73.948 343.148,74.0647 343.102,74.172 C343.06,74.2747 342.999,74.3657 342.92,74.445 C342.84,74.5243 342.747,74.585 342.64,74.627 C342.532,74.6737 342.418,74.697 342.297,74.697 C342.175,74.697 342.061,74.6737 341.954,74.627 C341.846,74.585 341.753,74.5243 341.674,74.445 C341.599,74.3657 341.538,74.2747 341.492,74.172 C341.45,74.0647 341.429,73.948 341.429,73.822 Z" id="Shape" fill="#FFFFFF" fill-rule="nonzero"></path>
            <path d="M501,75.092 C492.44,75.092 485.5,68.1524 485.5,59.592 C485.5,51.0316 492.44,44.092 501,44.092 C509.56,44.092 516.5,51.0316 516.5,59.592 C516.5,68.1524 509.56,75.092 501,75.092 Z" id="Path" stroke="#FFFFFF"></path>
            <path d="M496.543,55.1348 C496.872,54.806 497.405,54.806 497.734,55.1348 L506.07,63.4713 C506.399,63.8001 506.399,64.3333 506.07,64.6622 C505.741,64.991 505.208,64.991 504.879,64.6622 L496.543,56.3258 C496.214,55.9969 496.214,55.4637 496.543,55.1348 Z" id="Path" fill="#FFFFFF"></path>
            <path d="M506.07,55.1348 C505.741,54.806 505.208,54.806 504.879,55.1348 L496.543,63.4713 C496.214,63.8001 496.214,64.3333 496.543,64.6622 C496.872,64.991 497.405,64.991 497.734,64.6622 L506.07,56.3258 C506.399,55.9969 506.399,55.4637 506.07,55.1348 Z" id="Path" fill="#FFFFFF"></path>
            <path d="M249.824,0.752 C249.824,0.95467 249.76,1.12267 249.632,1.256 C249.504,1.384 249.288,1.448 248.984,1.448 L245.384,1.448 L244.856,4.456 C245.453,4.328 246.005,4.264 246.512,4.264 C247.109,4.264 247.635,4.352 248.088,4.528 C248.547,4.704 248.931,4.94667 249.24,5.256 C249.549,5.56533 249.781,5.9307 249.936,6.352 C250.096,6.7733 250.176,7.232 250.176,7.728 C250.176,8.336 250.069,8.8853 249.856,9.376 C249.643,9.8667 249.349,10.288 248.976,10.64 C248.608,10.9867 248.173,11.2533 247.672,11.44 C247.171,11.6267 246.629,11.72 246.048,11.72 C245.712,11.72 245.389,11.6853 245.08,11.616 C244.771,11.552 244.483,11.464 244.216,11.352 C243.949,11.24 243.701,11.112 243.472,10.968 C243.243,10.824 243.04,10.672 242.864,10.512 L243.296,9.904 C243.392,9.7653 243.52,9.696 243.68,9.696 C243.781,9.696 243.899,9.7387 244.032,9.824 C244.171,9.904 244.336,9.9947 244.528,10.096 C244.72,10.1973 244.944,10.2907 245.2,10.376 C245.461,10.456 245.771,10.496 246.128,10.496 C246.528,10.496 246.888,10.432 247.208,10.304 C247.528,10.176 247.8,9.9947 248.024,9.76 C248.253,9.52 248.429,9.2347 248.552,8.904 C248.675,8.5733 248.736,8.2027 248.736,7.792 C248.736,7.4347 248.683,7.112 248.576,6.824 C248.475,6.536 248.317,6.2907 248.104,6.088 C247.896,5.8853 247.635,5.728 247.32,5.616 C247.005,5.504 246.637,5.448 246.216,5.448 C245.928,5.448 245.629,5.472 245.32,5.52 C245.011,5.568 244.691,5.6453 244.36,5.752 L243.464,5.488 L244.392,0.128 L249.824,0.128 L249.824,0.752 Z M256.241,0 C256.727,0 257.175,0.06933 257.585,0.208 C257.996,0.34667 258.348,0.544 258.641,0.8 C258.94,1.056 259.172,1.36533 259.337,1.728 C259.503,2.09067 259.585,2.49333 259.585,2.936 C259.585,3.29867 259.537,3.624 259.441,3.912 C259.351,4.19467 259.217,4.44533 259.041,4.664 C258.871,4.87733 258.663,5.05867 258.417,5.208 C258.172,5.35733 257.897,5.47733 257.593,5.568 C258.34,5.7653 258.9,6.096 259.273,6.56 C259.652,7.024 259.841,7.6053 259.841,8.304 C259.841,8.832 259.74,9.3067 259.537,9.728 C259.34,10.1493 259.068,10.5093 258.721,10.808 C258.375,11.1013 257.969,11.328 257.505,11.488 C257.047,11.6427 256.553,11.72 256.025,11.72 C255.417,11.72 254.897,11.6453 254.465,11.496 C254.033,11.3413 253.668,11.1307 253.369,10.864 C253.071,10.5973 252.825,10.2827 252.633,9.92 C252.441,9.552 252.279,9.1547 252.145,8.728 L252.753,8.472 C252.865,8.424 252.977,8.4 253.089,8.4 C253.196,8.4 253.289,8.424 253.369,8.472 C253.455,8.5147 253.519,8.584 253.561,8.68 C253.572,8.7013 253.583,8.7253 253.593,8.752 C253.604,8.7733 253.615,8.7973 253.625,8.824 C253.7,8.9787 253.791,9.1547 253.897,9.352 C254.004,9.544 254.148,9.7253 254.329,9.896 C254.511,10.0667 254.735,10.2107 255.001,10.328 C255.273,10.4453 255.609,10.504 256.009,10.504 C256.409,10.504 256.759,10.44 257.057,10.312 C257.361,10.1787 257.612,10.008 257.809,9.8 C258.012,9.592 258.164,9.36 258.265,9.104 C258.367,8.848 258.417,8.5947 258.417,8.344 C258.417,8.0347 258.375,7.752 258.289,7.496 C258.209,7.24 258.06,7.0187 257.841,6.832 C257.628,6.6453 257.329,6.4987 256.945,6.392 C256.567,6.2853 256.079,6.232 255.481,6.232 L255.481,5.2 C255.967,5.19467 256.38,5.14133 256.721,5.04 C257.068,4.93867 257.351,4.8 257.569,4.624 C257.788,4.448 257.945,4.23733 258.041,3.992 C258.143,3.74667 258.193,3.47467 258.193,3.176 C258.193,2.84533 258.14,2.55733 258.033,2.312 C257.932,2.06667 257.791,1.864 257.609,1.704 C257.428,1.544 257.212,1.424 256.961,1.344 C256.716,1.264 256.449,1.224 256.161,1.224 C255.873,1.224 255.607,1.26667 255.361,1.352 C255.116,1.43733 254.897,1.55733 254.705,1.712 C254.519,1.86133 254.361,2.04267 254.233,2.256 C254.105,2.464 254.009,2.69067 253.945,2.936 C253.903,3.09067 253.839,3.20267 253.753,3.272 C253.668,3.34133 253.559,3.376 253.425,3.376 C253.399,3.376 253.369,3.376 253.337,3.376 C253.311,3.37067 253.279,3.36533 253.241,3.36 L252.497,3.232 C252.572,2.70933 252.716,2.248 252.929,1.848 C253.143,1.44267 253.412,1.104 253.737,0.832 C254.068,0.56 254.444,0.35467 254.865,0.216 C255.292,0.072 255.751,0 256.241,0 Z M269.363,5.864 C269.363,6.8667 269.253,7.736 269.035,8.472 C268.821,9.2027 268.528,9.808 268.155,10.288 C267.781,10.768 267.339,11.1253 266.827,11.36 C266.32,11.5947 265.776,11.712 265.195,11.712 C264.608,11.712 264.061,11.5947 263.555,11.36 C263.053,11.1253 262.616,10.768 262.243,10.288 C261.869,9.808 261.576,9.2027 261.363,8.472 C261.149,7.736 261.043,6.8667 261.043,5.864 C261.043,4.86133 261.149,3.992 261.363,3.256 C261.576,2.52 261.869,1.912 262.243,1.432 C262.616,0.94667 263.053,0.58667 263.555,0.352 C264.061,0.11733 264.608,0 265.195,0 C265.776,0 266.32,0.11733 266.827,0.352 C267.339,0.58667 267.781,0.94667 268.155,1.432 C268.528,1.912 268.821,2.52 269.035,3.256 C269.253,3.992 269.363,4.86133 269.363,5.864 Z M267.883,5.864 C267.883,4.98933 267.808,4.256 267.659,3.664 C267.515,3.06667 267.317,2.58667 267.067,2.224 C266.821,1.86133 266.536,1.60267 266.211,1.448 C265.885,1.288 265.547,1.208 265.195,1.208 C264.843,1.208 264.504,1.288 264.179,1.448 C263.853,1.60267 263.568,1.86133 263.323,2.224 C263.077,2.58667 262.88,3.06667 262.731,3.664 C262.587,4.256 262.515,4.98933 262.515,5.864 C262.515,6.7387 262.587,7.472 262.731,8.064 C262.88,8.656 263.077,9.1333 263.323,9.496 C263.568,9.8587 263.853,10.12 264.179,10.28 C264.504,10.4347 264.843,10.512 265.195,10.512 C265.547,10.512 265.885,10.4347 266.211,10.28 C266.536,10.12 266.821,9.8587 267.067,9.496 C267.317,9.1333 267.515,8.656 267.659,8.064 C267.808,7.472 267.883,6.7387 267.883,5.864 Z M271.012,14.336 L271.012,3.488 L271.86,3.488 C272.062,3.488 272.19,3.58667 272.244,3.784 L272.364,4.744 C272.71,4.32267 273.105,3.984 273.548,3.728 C273.996,3.472 274.51,3.344 275.092,3.344 C275.556,3.344 275.977,3.43467 276.356,3.616 C276.734,3.792 277.057,4.056 277.324,4.408 C277.59,4.75467 277.796,5.18667 277.94,5.704 C278.084,6.2213 278.156,6.816 278.156,7.488 C278.156,8.0853 278.076,8.6427 277.916,9.16 C277.756,9.672 277.526,10.1173 277.228,10.496 C276.929,10.8693 276.561,11.1653 276.124,11.384 C275.692,11.5973 275.204,11.704 274.66,11.704 C274.158,11.704 273.729,11.6213 273.372,11.456 C273.02,11.2907 272.708,11.056 272.436,10.752 L272.436,14.336 L271.012,14.336 Z M274.62,4.496 C274.156,4.496 273.748,4.60267 273.396,4.816 C273.049,5.02933 272.729,5.33067 272.436,5.72 L272.436,9.64 C272.697,9.992 272.982,10.24 273.292,10.384 C273.606,10.528 273.956,10.6 274.34,10.6 C275.092,10.6 275.67,10.3307 276.076,9.792 C276.481,9.2533 276.684,8.4853 276.684,7.488 C276.684,6.96 276.636,6.5067 276.54,6.128 C276.449,5.7493 276.316,5.44 276.14,5.2 C275.964,4.95467 275.748,4.776 275.492,4.664 C275.236,4.552 274.945,4.496 274.62,4.496 Z M281.252,7.44 L278.524,3.488 L279.892,3.488 C280.009,3.488 280.094,3.50667 280.148,3.544 C280.201,3.58133 280.249,3.63467 280.292,3.704 L282.276,6.744 C282.324,6.5947 282.393,6.4453 282.484,6.296 L284.228,3.736 C284.281,3.66133 284.334,3.60267 284.388,3.56 C284.441,3.512 284.508,3.488 284.588,3.488 L285.9,3.488 L283.172,7.36 L286.012,11.592 L284.644,11.592 C284.526,11.592 284.433,11.5627 284.364,11.504 C284.3,11.44 284.246,11.3707 284.204,11.296 L282.164,8.12 C282.126,8.2747 282.07,8.4133 281.996,8.536 L280.108,11.296 C280.054,11.3707 279.996,11.44 279.932,11.504 C279.873,11.5627 279.79,11.592 279.684,11.592 L278.412,11.592 L281.252,7.44 Z" id="Shape" fill="#000000" fill-rule="nonzero"></path>
            <line x1="2" y1="7.092" x2="218" y2="7.092" id="Path" stroke="#FF7A00"></line>
            <circle id="Oval" fill="#FF7A00" fill-rule="nonzero" transform="translate(2.500000, 7.092000) scale(-1, 1) rotate(-180.000000) translate(-2.500000, -7.092000) " cx="2.5" cy="7.092" r="2.5"></circle>
            <line x1="312" y1="7.09200944" x2="528" y2="7.09200944" id="Path" stroke="#FF7A00" transform="translate(420.000000, 7.092009) scale(-1, 1) translate(-420.000000, -7.092009) "></line>
            <circle id="Oval" fill="#FF7A00" fill-rule="nonzero" transform="translate(527.500000, 7.092000) rotate(180.000000) translate(-527.500000, -7.092000) " cx="527.5" cy="7.092" r="2.5"></circle>
            <path d="M16,59.592 C16,50.7554 23.1634,43.592 32,43.592 L32,43.592 C40.8366,43.592 48,50.7554 48,59.592 L48,59.592 C48,68.4286 40.8366,75.592 32,75.592 L32,75.592 C23.1634,75.592 16,68.4286 16,59.592 L16,59.592 Z" id="Path" fill="#C2D95D" fill-rule="nonzero"></path>
            <line x1="29.8182" y1="66.1374" x2="40" y2="54.501" id="Path" stroke="#3F3F3F" stroke-width="2.5" stroke-linecap="round"></line>
            <polyline id="Path" stroke="#3F3F3F" stroke-width="2.5" stroke-linecap="round" points="24.7273 61.0466 26.1818 62.5011 29.0909 65.4102"></polyline>
        </g>
    </g>
</svg>