<?xml version="1.0" encoding="UTF-8"?>
<svg width="530px" height="90px" viewBox="0 0 530 90" version="1.1" xmlns="http://www.w3.org/2000/svg" xmlns:xlink="http://www.w3.org/1999/xlink">
    <title>max-content</title>
    <g id="Page-1" stroke="none" stroke-width="1" fill="none" fill-rule="evenodd">
        <g id="max-content" transform="translate(0.000000, 0.216000)">
            <rect id="Rectangle" fill="#3F3F3F" fill-rule="nonzero" x="0" y="29.784" width="530" height="60" rx="30"></rect>
            <path d="M63.112,46.32 L64.4,46.32 C64.5387,46.32 64.6533,46.3547 64.744,46.424 C64.8347,46.4933 64.896,46.5813 64.928,46.688 L67.296,54.656 C67.3387,54.8 67.376,54.9547 67.408,55.12 C67.4453,55.2853 67.48,55.4587 67.512,55.64 C67.5493,55.4587 67.5867,55.2853 67.624,55.12 C67.6613,54.9493 67.704,54.7947 67.752,54.656 L70.448,46.688 C70.48,46.5973 70.5413,46.5147 70.632,46.44 C70.728,46.36 70.8427,46.32 70.976,46.32 L71.424,46.32 C71.5627,46.32 71.6747,46.3547 71.76,46.424 C71.8507,46.4933 71.9147,46.5813 71.952,46.688 L74.632,54.656 C74.728,54.9333 74.8133,55.2507 74.888,55.608 C74.92,55.432 74.9493,55.264 74.976,55.104 C75.0027,54.944 75.0373,54.7947 75.08,54.656 L77.456,46.688 C77.4827,46.592 77.5413,46.5067 77.632,46.432 C77.728,46.3573 77.8427,46.32 77.976,46.32 L79.184,46.32 L75.608,57.784 L74.216,57.784 L71.312,49.04 C71.2533,48.8747 71.2,48.6827 71.152,48.464 C71.1253,48.5707 71.0987,48.6747 71.072,48.776 C71.0507,48.872 71.0267,48.96 71,49.04 L68.08,57.784 L66.688,57.784 L63.112,46.32 Z M83.4229,49.552 C83.9082,49.552 84.3562,49.6347 84.7669,49.8 C85.1775,49.96 85.5322,50.1947 85.8309,50.504 C86.1295,50.808 86.3615,51.1867 86.5269,51.64 C86.6975,52.088 86.7829,52.6 86.7829,53.176 C86.7829,53.4 86.7589,53.5493 86.7109,53.624 C86.6629,53.6987 86.5722,53.736 86.4389,53.736 L81.0469,53.736 C81.0575,54.248 81.1269,54.6933 81.2549,55.072 C81.3829,55.4507 81.5589,55.768 81.7829,56.024 C82.0069,56.2747 82.2735,56.464 82.5829,56.592 C82.8922,56.7147 83.2389,56.776 83.6229,56.776 C83.9802,56.776 84.2869,56.736 84.5429,56.656 C84.8042,56.5707 85.0282,56.48 85.2149,56.384 C85.4015,56.288 85.5562,56.2 85.6789,56.12 C85.8069,56.0347 85.9162,55.992 86.0069,55.992 C86.1242,55.992 86.2149,56.0373 86.2789,56.128 L86.6789,56.648 C86.5029,56.8613 86.2922,57.048 86.0469,57.208 C85.8015,57.3627 85.5375,57.4907 85.2549,57.592 C84.9775,57.6933 84.6895,57.768 84.3909,57.816 C84.0922,57.8693 83.7962,57.896 83.5029,57.896 C82.9429,57.896 82.4255,57.8027 81.9509,57.616 C81.4815,57.424 81.0735,57.1467 80.7269,56.784 C80.3855,56.416 80.1189,55.9627 79.9269,55.424 C79.7349,54.8853 79.6389,54.2667 79.6389,53.568 C79.6389,53.0027 79.7242,52.4747 79.8949,51.984 C80.0709,51.4933 80.3215,51.0693 80.6469,50.712 C80.9722,50.3493 81.3695,50.0667 81.8389,49.864 C82.3082,49.656 82.8362,49.552 83.4229,49.552 Z M83.4549,50.6 C82.7669,50.6 82.2255,50.8 81.8309,51.2 C81.4362,51.5947 81.1909,52.144 81.0949,52.848 L85.5029,52.848 C85.5029,52.5173 85.4575,52.216 85.3669,51.944 C85.2762,51.6667 85.1429,51.4293 84.9669,51.232 C84.7909,51.0293 84.5749,50.8747 84.3189,50.768 C84.0682,50.656 83.7802,50.6 83.4549,50.6 Z M88.6055,57.784 L88.6055,49.68 L89.4215,49.68 C89.5762,49.68 89.6828,49.7093 89.7415,49.768 C89.8002,49.8267 89.8402,49.928 89.8615,50.072 L89.9575,51.336 C90.2348,50.7707 90.5762,50.3307 90.9815,50.016 C91.3922,49.696 91.8722,49.536 92.4215,49.536 C92.6455,49.536 92.8482,49.5627 93.0295,49.616 C93.2108,49.664 93.3788,49.7333 93.5335,49.824 L93.3495,50.888 C93.3122,51.0213 93.2295,51.088 93.1015,51.088 C93.0268,51.088 92.9122,51.064 92.7575,51.016 C92.6028,50.9627 92.3868,50.936 92.1095,50.936 C91.6135,50.936 91.1975,51.08 90.8615,51.368 C90.5308,51.656 90.2535,52.0747 90.0295,52.624 L90.0295,57.784 L88.6055,57.784 Z M95.3786,57.784 L95.3786,50.896 L94.4826,50.792 C94.3706,50.7653 94.2773,50.7253 94.2026,50.672 C94.1333,50.6133 94.0986,50.5307 94.0986,50.424 L94.0986,49.84 L95.3786,49.84 L95.3786,49.056 C95.3786,48.592 95.4426,48.1813 95.5706,47.824 C95.704,47.4613 95.8906,47.1573 96.1306,46.912 C96.376,46.6613 96.6693,46.472 97.0106,46.344 C97.352,46.216 97.736,46.152 98.1626,46.152 C98.5253,46.152 98.8613,46.2053 99.1706,46.312 L99.1386,47.024 C99.1333,47.1307 99.088,47.1947 99.0026,47.216 C98.9173,47.2373 98.7973,47.248 98.6426,47.248 L98.3946,47.248 C98.1493,47.248 97.9253,47.28 97.7226,47.344 C97.5253,47.408 97.3546,47.512 97.2106,47.656 C97.0666,47.8 96.9546,47.9893 96.8746,48.224 C96.8,48.4587 96.7626,48.7493 96.7626,49.096 L96.7626,49.84 L99.1066,49.84 L99.1066,50.872 L96.8106,50.872 L96.8106,57.784 L95.3786,57.784 Z M103.657,49.552 C104.143,49.552 104.591,49.6347 105.001,49.8 C105.412,49.96 105.767,50.1947 106.065,50.504 C106.364,50.808 106.596,51.1867 106.761,51.64 C106.932,52.088 107.017,52.6 107.017,53.176 C107.017,53.4 106.993,53.5493 106.945,53.624 C106.897,53.6987 106.807,53.736 106.673,53.736 L101.281,53.736 C101.292,54.248 101.361,54.6933 101.489,55.072 C101.617,55.4507 101.793,55.768 102.017,56.024 C102.241,56.2747 102.508,56.464 102.817,56.592 C103.127,56.7147 103.473,56.776 103.857,56.776 C104.215,56.776 104.521,56.736 104.777,56.656 C105.039,56.5707 105.263,56.48 105.449,56.384 C105.636,56.288 105.791,56.2 105.913,56.12 C106.041,56.0347 106.151,55.992 106.241,55.992 C106.359,55.992 106.449,56.0373 106.513,56.128 L106.913,56.648 C106.737,56.8613 106.527,57.048 106.281,57.208 C106.036,57.3627 105.772,57.4907 105.489,57.592 C105.212,57.6933 104.924,57.768 104.625,57.816 C104.327,57.8693 104.031,57.896 103.737,57.896 C103.177,57.896 102.66,57.8027 102.185,57.616 C101.716,57.424 101.308,57.1467 100.961,56.784 C100.62,56.416 100.353,55.9627 100.161,55.424 C99.9693,54.8853 99.8733,54.2667 99.8733,53.568 C99.8733,53.0027 99.9586,52.4747 100.129,51.984 C100.305,51.4933 100.556,51.0693 100.881,50.712 C101.207,50.3493 101.604,50.0667 102.073,49.864 C102.543,49.656 103.071,49.552 103.657,49.552 Z M103.689,50.6 C103.001,50.6 102.46,50.8 102.065,51.2 C101.671,51.5947 101.425,52.144 101.329,52.848 L105.737,52.848 C105.737,52.5173 105.692,52.216 105.601,51.944 C105.511,51.6667 105.377,51.4293 105.201,51.232 C105.025,51.0293 104.809,50.8747 104.553,50.768 C104.303,50.656 104.015,50.6 103.689,50.6 Z M108.84,57.784 L108.84,49.68 L109.688,49.68 C109.891,49.68 110.019,49.7787 110.072,49.976 L110.184,50.856 C110.536,50.4667 110.928,50.152 111.36,49.912 C111.797,49.672 112.301,49.552 112.872,49.552 C113.315,49.552 113.704,49.6267 114.04,49.776 C114.381,49.92 114.664,50.128 114.888,50.4 C115.117,50.6667 115.291,50.9893 115.408,51.368 C115.525,51.7467 115.584,52.1653 115.584,52.624 L115.584,57.784 L114.16,57.784 L114.16,52.624 C114.16,52.0107 114.019,51.536 113.736,51.2 C113.459,50.8587 113.032,50.688 112.456,50.688 C112.035,50.688 111.64,50.7893 111.272,50.992 C110.909,51.1947 110.573,51.4693 110.264,51.816 L110.264,57.784 L108.84,57.784 Z M126.776,57.784 L126.144,57.784 C126.006,57.784 125.894,57.7627 125.808,57.72 C125.723,57.6773 125.667,57.5867 125.64,57.448 L125.48,56.696 C125.267,56.888 125.059,57.0613 124.856,57.216 C124.654,57.3653 124.44,57.4933 124.216,57.6 C123.992,57.7013 123.752,57.7787 123.496,57.832 C123.246,57.8853 122.966,57.912 122.656,57.912 C122.342,57.912 122.046,57.8693 121.768,57.784 C121.496,57.6933 121.259,57.56 121.056,57.384 C120.854,57.208 120.691,56.9867 120.568,56.72 C120.451,56.448 120.392,56.128 120.392,55.76 C120.392,55.44 120.48,55.1333 120.656,54.84 C120.832,54.5413 121.115,54.2773 121.504,54.048 C121.899,53.8187 122.414,53.632 123.048,53.488 C123.683,53.3387 124.459,53.2533 125.376,53.232 L125.376,52.6 C125.376,51.9707 125.24,51.496 124.968,51.176 C124.702,50.8507 124.304,50.688 123.776,50.688 C123.43,50.688 123.136,50.7333 122.896,50.824 C122.662,50.9093 122.456,51.008 122.28,51.12 C122.11,51.2267 121.96,51.3253 121.832,51.416 C121.71,51.5013 121.587,51.544 121.464,51.544 C121.368,51.544 121.283,51.52 121.208,51.472 C121.139,51.4187 121.083,51.3547 121.04,51.28 L120.784,50.824 C121.232,50.392 121.715,50.0693 122.232,49.856 C122.75,49.6427 123.323,49.536 123.952,49.536 C124.406,49.536 124.808,49.6107 125.16,49.76 C125.512,49.9093 125.808,50.1173 126.048,50.384 C126.288,50.6507 126.47,50.9733 126.592,51.352 C126.715,51.7307 126.776,52.1467 126.776,52.6 L126.776,57.784 Z M123.08,56.912 C123.331,56.912 123.56,56.888 123.768,56.84 C123.976,56.7867 124.171,56.7147 124.352,56.624 C124.539,56.528 124.715,56.4133 124.88,56.28 C125.051,56.1467 125.216,55.9947 125.376,55.824 L125.376,54.136 C124.72,54.1573 124.163,54.2107 123.704,54.296 C123.246,54.376 122.872,54.4827 122.584,54.616 C122.296,54.7493 122.086,54.9067 121.952,55.088 C121.824,55.2693 121.76,55.472 121.76,55.696 C121.76,55.9093 121.795,56.0933 121.864,56.248 C121.934,56.4027 122.027,56.5307 122.144,56.632 C122.262,56.728 122.4,56.8 122.56,56.848 C122.72,56.8907 122.894,56.912 123.08,56.912 Z M128.934,60.528 L128.934,49.68 L129.782,49.68 C129.984,49.68 130.112,49.7787 130.166,49.976 L130.286,50.936 C130.632,50.5147 131.027,50.176 131.47,49.92 C131.918,49.664 132.432,49.536 133.014,49.536 C133.478,49.536 133.899,49.6267 134.278,49.808 C134.656,49.984 134.979,50.248 135.246,50.6 C135.512,50.9467 135.718,51.3787 135.862,51.896 C136.006,52.4133 136.078,53.008 136.078,53.68 C136.078,54.2773 135.998,54.8347 135.838,55.352 C135.678,55.864 135.448,56.3093 135.15,56.688 C134.851,57.0613 134.483,57.3573 134.046,57.576 C133.614,57.7893 133.126,57.896 132.582,57.896 C132.08,57.896 131.651,57.8133 131.294,57.648 C130.942,57.4827 130.63,57.248 130.358,56.944 L130.358,60.528 L128.934,60.528 Z M132.542,50.688 C132.078,50.688 131.67,50.7947 131.318,51.008 C130.971,51.2213 130.651,51.5227 130.358,51.912 L130.358,55.832 C130.619,56.184 130.904,56.432 131.214,56.576 C131.528,56.72 131.878,56.792 132.262,56.792 C133.014,56.792 133.592,56.5227 133.998,55.984 C134.403,55.4453 134.606,54.6773 134.606,53.68 C134.606,53.152 134.558,52.6987 134.462,52.32 C134.371,51.9413 134.238,51.632 134.062,51.392 C133.886,51.1467 133.67,50.968 133.414,50.856 C133.158,50.744 132.867,50.688 132.542,50.688 Z M137.762,60.528 L137.762,49.68 L138.61,49.68 C138.812,49.68 138.94,49.7787 138.994,49.976 L139.114,50.936 C139.46,50.5147 139.855,50.176 140.298,49.92 C140.746,49.664 141.26,49.536 141.842,49.536 C142.306,49.536 142.727,49.6267 143.106,49.808 C143.484,49.984 143.807,50.248 144.074,50.6 C144.34,50.9467 144.546,51.3787 144.69,51.896 C144.834,52.4133 144.906,53.008 144.906,53.68 C144.906,54.2773 144.826,54.8347 144.666,55.352 C144.506,55.864 144.276,56.3093 143.978,56.688 C143.679,57.0613 143.311,57.3573 142.874,57.576 C142.442,57.7893 141.954,57.896 141.41,57.896 C140.908,57.896 140.479,57.8133 140.122,57.648 C139.77,57.4827 139.458,57.248 139.186,56.944 L139.186,60.528 L137.762,60.528 Z M141.37,50.688 C140.906,50.688 140.498,50.7947 140.146,51.008 C139.799,51.2213 139.479,51.5227 139.186,51.912 L139.186,55.832 C139.447,56.184 139.732,56.432 140.042,56.576 C140.356,56.72 140.706,56.792 141.09,56.792 C141.842,56.792 142.42,56.5227 142.826,55.984 C143.231,55.4453 143.434,54.6773 143.434,53.68 C143.434,53.152 143.386,52.6987 143.29,52.32 C143.199,51.9413 143.066,51.632 142.89,51.392 C142.714,51.1467 142.498,50.968 142.242,50.856 C141.986,50.744 141.695,50.688 141.37,50.688 Z M148.174,46 L148.174,57.784 L146.75,57.784 L146.75,46 L148.174,46 Z M152.268,49.68 L152.268,57.784 L150.844,57.784 L150.844,49.68 L152.268,49.68 Z M152.588,47.136 C152.588,47.2747 152.558,47.4053 152.5,47.528 C152.446,47.6453 152.372,47.752 152.276,47.848 C152.185,47.9387 152.078,48.0107 151.956,48.064 C151.833,48.1173 151.702,48.144 151.564,48.144 C151.425,48.144 151.294,48.1173 151.172,48.064 C151.054,48.0107 150.948,47.9387 150.852,47.848 C150.761,47.752 150.689,47.6453 150.636,47.528 C150.582,47.4053 150.556,47.2747 150.556,47.136 C150.556,46.9973 150.582,46.8667 150.636,46.744 C150.689,46.616 150.761,46.5067 150.852,46.416 C150.948,46.32 151.054,46.2453 151.172,46.192 C151.294,46.1387 151.425,46.112 151.564,46.112 C151.702,46.112 151.833,46.1387 151.956,46.192 C152.078,46.2453 152.185,46.32 152.276,46.416 C152.372,46.5067 152.446,46.616 152.5,46.744 C152.558,46.8667 152.588,46.9973 152.588,47.136 Z M160.305,51.12 C160.263,51.1787 160.22,51.224 160.177,51.256 C160.135,51.288 160.073,51.304 159.993,51.304 C159.913,51.304 159.825,51.272 159.729,51.208 C159.639,51.1387 159.521,51.064 159.377,50.984 C159.233,50.904 159.057,50.832 158.849,50.768 C158.647,50.6987 158.396,50.664 158.097,50.664 C157.703,50.664 157.353,50.736 157.049,50.88 C156.745,51.0187 156.489,51.2213 156.281,51.488 C156.079,51.7547 155.924,52.0773 155.817,52.456 C155.716,52.8347 155.665,53.2587 155.665,53.728 C155.665,54.2187 155.721,54.656 155.833,55.04 C155.945,55.4187 156.103,55.7387 156.305,56 C156.508,56.256 156.753,56.4533 157.041,56.592 C157.335,56.7253 157.663,56.792 158.025,56.792 C158.372,56.792 158.657,56.752 158.881,56.672 C159.105,56.5867 159.292,56.4933 159.441,56.392 C159.591,56.2907 159.713,56.2 159.809,56.12 C159.905,56.0347 160.001,55.992 160.097,55.992 C160.22,55.992 160.311,56.0373 160.369,56.128 L160.769,56.648 C160.417,57.08 159.977,57.3973 159.449,57.6 C158.921,57.7973 158.364,57.896 157.777,57.896 C157.271,57.896 156.799,57.8027 156.361,57.616 C155.929,57.4293 155.553,57.16 155.233,56.808 C154.913,56.4507 154.66,56.0133 154.473,55.496 C154.292,54.9787 154.201,54.3893 154.201,53.728 C154.201,53.1253 154.284,52.568 154.449,52.056 C154.62,51.544 154.865,51.104 155.185,50.736 C155.511,50.3627 155.911,50.072 156.385,49.864 C156.86,49.656 157.404,49.552 158.017,49.552 C158.583,49.552 159.084,49.6453 159.521,49.832 C159.959,50.0133 160.345,50.272 160.681,50.608 L160.305,51.12 Z M168.198,57.784 L167.566,57.784 C167.427,57.784 167.315,57.7627 167.23,57.72 C167.145,57.6773 167.089,57.5867 167.062,57.448 L166.902,56.696 C166.689,56.888 166.481,57.0613 166.278,57.216 C166.075,57.3653 165.862,57.4933 165.638,57.6 C165.414,57.7013 165.174,57.7787 164.918,57.832 C164.667,57.8853 164.387,57.912 164.078,57.912 C163.763,57.912 163.467,57.8693 163.19,57.784 C162.918,57.6933 162.681,57.56 162.478,57.384 C162.275,57.208 162.113,56.9867 161.99,56.72 C161.873,56.448 161.814,56.128 161.814,55.76 C161.814,55.44 161.902,55.1333 162.078,54.84 C162.254,54.5413 162.537,54.2773 162.926,54.048 C163.321,53.8187 163.835,53.632 164.47,53.488 C165.105,53.3387 165.881,53.2533 166.798,53.232 L166.798,52.6 C166.798,51.9707 166.662,51.496 166.39,51.176 C166.123,50.8507 165.726,50.688 165.198,50.688 C164.851,50.688 164.558,50.7333 164.318,50.824 C164.083,50.9093 163.878,51.008 163.702,51.12 C163.531,51.2267 163.382,51.3253 163.254,51.416 C163.131,51.5013 163.009,51.544 162.886,51.544 C162.79,51.544 162.705,51.52 162.63,51.472 C162.561,51.4187 162.505,51.3547 162.462,51.28 L162.206,50.824 C162.654,50.392 163.137,50.0693 163.654,49.856 C164.171,49.6427 164.745,49.536 165.374,49.536 C165.827,49.536 166.23,49.6107 166.582,49.76 C166.934,49.9093 167.23,50.1173 167.47,50.384 C167.71,50.6507 167.891,50.9733 168.014,51.352 C168.137,51.7307 168.198,52.1467 168.198,52.6 L168.198,57.784 Z M164.502,56.912 C164.753,56.912 164.982,56.888 165.19,56.84 C165.398,56.7867 165.593,56.7147 165.774,56.624 C165.961,56.528 166.137,56.4133 166.302,56.28 C166.473,56.1467 166.638,55.9947 166.798,55.824 L166.798,54.136 C166.142,54.1573 165.585,54.2107 165.126,54.296 C164.667,54.376 164.294,54.4827 164.006,54.616 C163.718,54.7493 163.507,54.9067 163.374,55.088 C163.246,55.2693 163.182,55.472 163.182,55.696 C163.182,55.9093 163.217,56.0933 163.286,56.248 C163.355,56.4027 163.449,56.5307 163.566,56.632 C163.683,56.728 163.822,56.8 163.982,56.848 C164.142,56.8907 164.315,56.912 164.502,56.912 Z M172.812,57.912 C172.172,57.912 171.678,57.7333 171.332,57.376 C170.99,57.0187 170.82,56.504 170.82,55.832 L170.82,50.872 L169.844,50.872 C169.758,50.872 169.686,50.848 169.628,50.8 C169.569,50.7467 169.54,50.6667 169.54,50.56 L169.54,49.992 L170.868,49.824 L171.196,47.32 C171.206,47.24 171.241,47.176 171.299,47.128 C171.358,47.0747 171.433,47.048 171.524,47.048 L172.244,47.048 L172.244,49.84 L174.564,49.84 L174.564,50.872 L172.244,50.872 L172.244,55.736 C172.244,56.0773 172.326,56.3307 172.492,56.496 C172.657,56.6613 172.87,56.744 173.132,56.744 C173.281,56.744 173.409,56.7253 173.516,56.688 C173.628,56.6453 173.724,56.6 173.804,56.552 C173.884,56.504 173.95,56.4613 174.004,56.424 C174.062,56.3813 174.113,56.36 174.156,56.36 C174.23,56.36 174.297,56.4053 174.356,56.496 L174.772,57.176 C174.526,57.4053 174.23,57.5867 173.884,57.72 C173.537,57.848 173.18,57.912 172.812,57.912 Z M177.908,49.68 L177.908,57.784 L176.484,57.784 L176.484,49.68 L177.908,49.68 Z M178.228,47.136 C178.228,47.2747 178.199,47.4053 178.14,47.528 C178.087,47.6453 178.012,47.752 177.916,47.848 C177.826,47.9387 177.719,48.0107 177.596,48.064 C177.474,48.1173 177.343,48.144 177.204,48.144 C177.066,48.144 176.935,48.1173 176.812,48.064 C176.695,48.0107 176.588,47.9387 176.492,47.848 C176.402,47.752 176.33,47.6453 176.276,47.528 C176.223,47.4053 176.196,47.2747 176.196,47.136 C176.196,46.9973 176.223,46.8667 176.276,46.744 C176.33,46.616 176.402,46.5067 176.492,46.416 C176.588,46.32 176.695,46.2453 176.812,46.192 C176.935,46.1387 177.066,46.112 177.204,46.112 C177.343,46.112 177.474,46.1387 177.596,46.192 C177.719,46.2453 177.826,46.32 177.916,46.416 C178.012,46.5067 178.087,46.616 178.14,46.744 C178.199,46.8667 178.228,46.9973 178.228,47.136 Z M183.698,49.552 C184.29,49.552 184.823,49.6507 185.298,49.848 C185.778,50.0453 186.183,50.3253 186.514,50.688 C186.85,51.0507 187.106,51.4907 187.282,52.008 C187.463,52.52 187.554,53.0933 187.554,53.728 C187.554,54.368 187.463,54.944 187.282,55.456 C187.106,55.968 186.85,56.4053 186.514,56.768 C186.183,57.1307 185.778,57.4107 185.298,57.608 C184.823,57.8 184.29,57.896 183.698,57.896 C183.106,57.896 182.57,57.8 182.09,57.608 C181.615,57.4107 181.21,57.1307 180.874,56.768 C180.538,56.4053 180.279,55.968 180.098,55.456 C179.917,54.944 179.826,54.368 179.826,53.728 C179.826,53.0933 179.917,52.52 180.098,52.008 C180.279,51.4907 180.538,51.0507 180.874,50.688 C181.21,50.3253 181.615,50.0453 182.09,49.848 C182.57,49.6507 183.106,49.552 183.698,49.552 Z M183.698,56.784 C184.498,56.784 185.095,56.5173 185.49,55.984 C185.885,55.4453 186.082,54.696 186.082,53.736 C186.082,52.7707 185.885,52.0187 185.49,51.48 C185.095,50.9413 184.498,50.672 183.698,50.672 C183.293,50.672 182.941,50.7413 182.642,50.88 C182.343,51.0187 182.093,51.2187 181.89,51.48 C181.693,51.7413 181.543,52.064 181.442,52.448 C181.346,52.8267 181.298,53.256 181.298,53.736 C181.298,54.216 181.346,54.6453 181.442,55.024 C181.543,55.4027 181.693,55.7227 181.89,55.984 C182.093,56.24 182.343,56.4373 182.642,56.576 C182.941,56.7147 183.293,56.784 183.698,56.784 Z M189.309,57.784 L189.309,49.68 L190.157,49.68 C190.359,49.68 190.487,49.7787 190.541,49.976 L190.653,50.856 C191.005,50.4667 191.397,50.152 191.829,49.912 C192.266,49.672 192.77,49.552 193.341,49.552 C193.783,49.552 194.173,49.6267 194.509,49.776 C194.85,49.92 195.133,50.128 195.357,50.4 C195.586,50.6667 195.759,50.9893 195.877,51.368 C195.994,51.7467 196.053,52.1653 196.053,52.624 L196.053,57.784 L194.629,57.784 L194.629,52.624 C194.629,52.0107 194.487,51.536 194.205,51.2 C193.927,50.8587 193.501,50.688 192.925,50.688 C192.503,50.688 192.109,50.7893 191.741,50.992 C191.378,51.1947 191.042,51.4693 190.733,51.816 L190.733,57.784 L189.309,57.784 Z M202.525,49.68 L202.525,54.848 C202.525,55.4613 202.666,55.936 202.949,56.272 C203.232,56.608 203.658,56.776 204.229,56.776 C204.645,56.776 205.037,56.6773 205.405,56.48 C205.773,56.2827 206.112,56.008 206.421,55.656 L206.421,49.68 L207.845,49.68 L207.845,57.784 L206.997,57.784 C206.794,57.784 206.666,57.6853 206.613,57.488 L206.501,56.616 C206.149,57.0053 205.754,57.32 205.317,57.56 C204.88,57.7947 204.378,57.912 203.813,57.912 C203.37,57.912 202.978,57.84 202.637,57.696 C202.301,57.5467 202.018,57.3387 201.789,57.072 C201.56,56.8053 201.386,56.4827 201.269,56.104 C201.157,55.7253 201.101,55.3067 201.101,54.848 L201.101,49.68 L202.525,49.68 Z M210.184,60.528 L210.184,49.68 L211.032,49.68 C211.234,49.68 211.362,49.7787 211.416,49.976 L211.536,50.936 C211.882,50.5147 212.277,50.176 212.72,49.92 C213.168,49.664 213.682,49.536 214.264,49.536 C214.728,49.536 215.149,49.6267 215.528,49.808 C215.906,49.984 216.229,50.248 216.496,50.6 C216.762,50.9467 216.968,51.3787 217.112,51.896 C217.256,52.4133 217.328,53.008 217.328,53.68 C217.328,54.2773 217.248,54.8347 217.088,55.352 C216.928,55.864 216.698,56.3093 216.4,56.688 C216.101,57.0613 215.733,57.3573 215.296,57.576 C214.864,57.7893 214.376,57.896 213.832,57.896 C213.33,57.896 212.901,57.8133 212.544,57.648 C212.192,57.4827 211.88,57.248 211.608,56.944 L211.608,60.528 L210.184,60.528 Z M213.792,50.688 C213.328,50.688 212.92,50.7947 212.568,51.008 C212.221,51.2213 211.901,51.5227 211.608,51.912 L211.608,55.832 C211.869,56.184 212.154,56.432 212.464,56.576 C212.778,56.72 213.128,56.792 213.512,56.792 C214.264,56.792 214.842,56.5227 215.248,55.984 C215.653,55.4453 215.856,54.6773 215.856,53.68 C215.856,53.152 215.808,52.6987 215.712,52.32 C215.621,51.9413 215.488,51.632 215.312,51.392 C215.136,51.1467 214.92,50.968 214.664,50.856 C214.408,50.744 214.117,50.688 213.792,50.688 Z M224.716,57.784 C224.513,57.784 224.385,57.6853 224.332,57.488 L224.204,56.504 C223.857,56.9253 223.46,57.264 223.012,57.52 C222.569,57.7707 222.06,57.896 221.484,57.896 C221.02,57.896 220.598,57.808 220.22,57.632 C219.841,57.4507 219.518,57.1867 219.252,56.84 C218.985,56.4933 218.78,56.0613 218.636,55.544 C218.492,55.0267 218.42,54.432 218.42,53.76 C218.42,53.1627 218.5,52.608 218.66,52.096 C218.82,51.5787 219.049,51.1307 219.348,50.752 C219.652,50.3733 220.02,50.0773 220.452,49.864 C220.884,49.6453 221.374,49.536 221.924,49.536 C222.42,49.536 222.844,49.6213 223.196,49.792 C223.548,49.9573 223.862,50.192 224.14,50.496 L224.14,46 L225.564,46 L225.564,57.784 L224.716,57.784 Z M221.956,56.744 C222.42,56.744 222.825,56.6373 223.172,56.424 C223.524,56.2107 223.846,55.9093 224.14,55.52 L224.14,51.6 C223.878,51.248 223.59,51.0027 223.276,50.864 C222.966,50.72 222.622,50.648 222.244,50.648 C221.486,50.648 220.905,50.9173 220.5,51.456 C220.094,51.9947 219.892,52.7627 219.892,53.76 C219.892,54.288 219.937,54.7413 220.028,55.12 C220.118,55.4933 220.252,55.8027 220.428,56.048 C220.604,56.288 220.82,56.464 221.076,56.576 C221.332,56.688 221.625,56.744 221.956,56.744 Z M233.901,57.784 L233.269,57.784 C233.131,57.784 233.019,57.7627 232.933,57.72 C232.848,57.6773 232.792,57.5867 232.765,57.448 L232.605,56.696 C232.392,56.888 232.184,57.0613 231.981,57.216 C231.779,57.3653 231.565,57.4933 231.341,57.6 C231.117,57.7013 230.877,57.7787 230.621,57.832 C230.371,57.8853 230.091,57.912 229.781,57.912 C229.467,57.912 229.171,57.8693 228.893,57.784 C228.621,57.6933 228.384,57.56 228.181,57.384 C227.979,57.208 227.816,56.9867 227.693,56.72 C227.576,56.448 227.517,56.128 227.517,55.76 C227.517,55.44 227.605,55.1333 227.781,54.84 C227.957,54.5413 228.24,54.2773 228.629,54.048 C229.024,53.8187 229.539,53.632 230.173,53.488 C230.808,53.3387 231.584,53.2533 232.501,53.232 L232.501,52.6 C232.501,51.9707 232.365,51.496 232.093,51.176 C231.827,50.8507 231.429,50.688 230.901,50.688 C230.555,50.688 230.261,50.7333 230.021,50.824 C229.787,50.9093 229.581,51.008 229.405,51.12 C229.235,51.2267 229.085,51.3253 228.957,51.416 C228.835,51.5013 228.712,51.544 228.589,51.544 C228.493,51.544 228.408,51.52 228.333,51.472 C228.264,51.4187 228.208,51.3547 228.165,51.28 L227.909,50.824 C228.357,50.392 228.84,50.0693 229.357,49.856 C229.875,49.6427 230.448,49.536 231.077,49.536 C231.531,49.536 231.933,49.6107 232.285,49.76 C232.637,49.9093 232.933,50.1173 233.173,50.384 C233.413,50.6507 233.595,50.9733 233.717,51.352 C233.84,51.7307 233.901,52.1467 233.901,52.6 L233.901,57.784 Z M230.205,56.912 C230.456,56.912 230.685,56.888 230.893,56.84 C231.101,56.7867 231.296,56.7147 231.477,56.624 C231.664,56.528 231.84,56.4133 232.005,56.28 C232.176,56.1467 232.341,55.9947 232.501,55.824 L232.501,54.136 C231.845,54.1573 231.288,54.2107 230.829,54.296 C230.371,54.376 229.997,54.4827 229.709,54.616 C229.421,54.7493 229.211,54.9067 229.077,55.088 C228.949,55.2693 228.885,55.472 228.885,55.696 C228.885,55.9093 228.92,56.0933 228.989,56.248 C229.059,56.4027 229.152,56.5307 229.269,56.632 C229.387,56.728 229.525,56.8 229.685,56.848 C229.845,56.8907 230.019,56.912 230.205,56.912 Z M238.515,57.912 C237.875,57.912 237.381,57.7333 237.035,57.376 C236.693,57.0187 236.523,56.504 236.523,55.832 L236.523,50.872 L235.547,50.872 C235.461,50.872 235.389,50.848 235.331,50.8 C235.272,50.7467 235.243,50.6667 235.243,50.56 L235.243,49.992 L236.571,49.824 L236.899,47.32 C236.909,47.24 236.944,47.176 237.003,47.128 C237.061,47.0747 237.136,47.048 237.227,47.048 L237.947,47.048 L237.947,49.84 L240.267,49.84 L240.267,50.872 L237.947,50.872 L237.947,55.736 C237.947,56.0773 238.029,56.3307 238.195,56.496 C238.36,56.6613 238.573,56.744 238.835,56.744 C238.984,56.744 239.112,56.7253 239.219,56.688 C239.331,56.6453 239.427,56.6 239.507,56.552 C239.587,56.504 239.653,56.4613 239.707,56.424 C239.765,56.3813 239.816,56.36 239.859,56.36 C239.933,56.36 240,56.4053 240.059,56.496 L240.475,57.176 C240.229,57.4053 239.933,57.5867 239.587,57.72 C239.24,57.848 238.883,57.912 238.515,57.912 Z M245.235,49.552 C245.721,49.552 246.169,49.6347 246.579,49.8 C246.99,49.96 247.345,50.1947 247.643,50.504 C247.942,50.808 248.174,51.1867 248.339,51.64 C248.51,52.088 248.595,52.6 248.595,53.176 C248.595,53.4 248.571,53.5493 248.523,53.624 C248.475,53.6987 248.385,53.736 248.251,53.736 L242.859,53.736 C242.87,54.248 242.939,54.6933 243.067,55.072 C243.195,55.4507 243.371,55.768 243.595,56.024 C243.819,56.2747 244.086,56.464 244.395,56.592 C244.705,56.7147 245.051,56.776 245.435,56.776 C245.793,56.776 246.099,56.736 246.355,56.656 C246.617,56.5707 246.841,56.48 247.027,56.384 C247.214,56.288 247.369,56.2 247.491,56.12 C247.619,56.0347 247.729,55.992 247.819,55.992 C247.937,55.992 248.027,56.0373 248.091,56.128 L248.491,56.648 C248.315,56.8613 248.105,57.048 247.859,57.208 C247.614,57.3627 247.35,57.4907 247.067,57.592 C246.79,57.6933 246.502,57.768 246.203,57.816 C245.905,57.8693 245.609,57.896 245.315,57.896 C244.755,57.896 244.238,57.8027 243.763,57.616 C243.294,57.424 242.886,57.1467 242.539,56.784 C242.198,56.416 241.931,55.9627 241.739,55.424 C241.547,54.8853 241.451,54.2667 241.451,53.568 C241.451,53.0027 241.537,52.4747 241.707,51.984 C241.883,51.4933 242.134,51.0693 242.459,50.712 C242.785,50.3493 243.182,50.0667 243.651,49.864 C244.121,49.656 244.649,49.552 245.235,49.552 Z M245.267,50.6 C244.579,50.6 244.038,50.8 243.643,51.2 C243.249,51.5947 243.003,52.144 242.907,52.848 L247.315,52.848 C247.315,52.5173 247.27,52.216 247.179,51.944 C247.089,51.6667 246.955,51.4293 246.779,51.232 C246.603,51.0293 246.387,50.8747 246.131,50.768 C245.881,50.656 245.593,50.6 245.267,50.6 Z M256.122,57.784 C255.919,57.784 255.791,57.6853 255.738,57.488 L255.61,56.504 C255.263,56.9253 254.866,57.264 254.418,57.52 C253.975,57.7707 253.466,57.896 252.89,57.896 C252.426,57.896 252.005,57.808 251.626,57.632 C251.247,57.4507 250.925,57.1867 250.658,56.84 C250.391,56.4933 250.186,56.0613 250.042,55.544 C249.898,55.0267 249.826,54.432 249.826,53.76 C249.826,53.1627 249.906,52.608 250.066,52.096 C250.226,51.5787 250.455,51.1307 250.754,50.752 C251.058,50.3733 251.426,50.0773 251.858,49.864 C252.29,49.6453 252.781,49.536 253.33,49.536 C253.826,49.536 254.25,49.6213 254.602,49.792 C254.954,49.9573 255.269,50.192 255.546,50.496 L255.546,46 L256.97,46 L256.97,57.784 L256.122,57.784 Z M253.362,56.744 C253.826,56.744 254.231,56.6373 254.578,56.424 C254.93,56.2107 255.253,55.9093 255.546,55.52 L255.546,51.6 C255.285,51.248 254.997,51.0027 254.682,50.864 C254.373,50.72 254.029,50.648 253.65,50.648 C252.893,50.648 252.311,50.9173 251.906,51.456 C251.501,51.9947 251.298,52.7627 251.298,53.76 C251.298,54.288 251.343,54.7413 251.434,55.12 C251.525,55.4933 251.658,55.8027 251.834,56.048 C252.01,56.288 252.226,56.464 252.482,56.576 C252.738,56.688 253.031,56.744 253.362,56.744 Z M261.628,46.32 L261.628,50.896 C261.628,51.136 261.622,51.3707 261.612,51.6 C261.606,51.8293 261.596,52.0613 261.58,52.296 C261.564,52.5253 261.542,52.7627 261.516,53.008 C261.494,53.248 261.468,53.5067 261.436,53.784 L260.468,53.784 C260.436,53.5067 260.406,53.248 260.38,53.008 C260.358,52.7627 260.34,52.5253 260.324,52.296 C260.308,52.0613 260.294,51.8293 260.284,51.6 C260.278,51.3707 260.276,51.136 260.276,50.896 L260.276,46.32 L261.628,46.32 Z M259.932,56.904 C259.932,56.7653 259.956,56.6347 260.004,56.512 C260.057,56.3893 260.126,56.2827 260.212,56.192 C260.302,56.1013 260.409,56.0293 260.532,55.976 C260.654,55.9227 260.785,55.896 260.924,55.896 C261.062,55.896 261.193,55.9227 261.316,55.976 C261.438,56.0293 261.545,56.1013 261.636,56.192 C261.726,56.2827 261.796,56.3893 261.844,56.512 C261.897,56.6347 261.924,56.7653 261.924,56.904 C261.924,57.048 261.897,57.1813 261.844,57.304 C261.796,57.4213 261.726,57.5253 261.636,57.616 C261.545,57.7067 261.438,57.776 261.316,57.824 C261.193,57.8773 261.062,57.904 260.924,57.904 C260.785,57.904 260.654,57.8773 260.532,57.824 C260.409,57.776 260.302,57.7067 260.212,57.616 C260.126,57.5253 260.057,57.4213 260.004,57.304 C259.956,57.1813 259.932,57.048 259.932,56.904 Z M68.082,70.794 L68.082,74.784 L66.731,74.784 L66.731,70.794 L63.056,64.753 L64.246,64.753 C64.3673,64.753 64.463,64.7833 64.533,64.844 C64.603,64.9047 64.6637,64.9793 64.715,65.068 L67.011,68.967 C67.1043,69.1303 67.1813,69.2843 67.242,69.429 C67.3073,69.5737 67.3657,69.716 67.417,69.856 C67.4683,69.7113 67.5243,69.5667 67.585,69.422 C67.6457,69.2773 67.7227,69.1257 67.816,68.967 L70.105,65.068 C70.147,64.9933 70.203,64.9233 70.273,64.858 C70.3477,64.788 70.4433,64.753 70.56,64.753 L71.764,64.753 L68.082,70.794 Z M74.5756,67.581 C75.0936,67.581 75.5603,67.6673 75.9756,67.84 C76.3956,68.0127 76.7503,68.2577 77.0396,68.575 C77.3336,68.8923 77.5576,69.2773 77.7116,69.73 C77.8703,70.178 77.9496,70.6797 77.9496,71.235 C77.9496,71.795 77.8703,72.299 77.7116,72.747 C77.5576,73.195 77.3336,73.5777 77.0396,73.895 C76.7503,74.2123 76.3956,74.4573 75.9756,74.63 C75.5603,74.798 75.0936,74.882 74.5756,74.882 C74.0576,74.882 73.5886,74.798 73.1686,74.63 C72.7533,74.4573 72.3986,74.2123 72.1046,73.895 C71.8106,73.5777 71.5843,73.195 71.4256,72.747 C71.2669,72.299 71.1876,71.795 71.1876,71.235 C71.1876,70.6797 71.2669,70.178 71.4256,69.73 C71.5843,69.2773 71.8106,68.8923 72.1046,68.575 C72.3986,68.2577 72.7533,68.0127 73.1686,67.84 C73.5886,67.6673 74.0576,67.581 74.5756,67.581 Z M74.5756,73.909 C75.2756,73.909 75.7983,73.6757 76.1436,73.209 C76.4889,72.7377 76.6616,72.082 76.6616,71.242 C76.6616,70.3973 76.4889,69.7393 76.1436,69.268 C75.7983,68.7967 75.2756,68.561 74.5756,68.561 C74.2209,68.561 73.9129,68.6217 73.6516,68.743 C73.3903,68.8643 73.1709,69.0393 72.9936,69.268 C72.8209,69.4967 72.6903,69.779 72.6016,70.115 C72.5176,70.4463 72.4756,70.822 72.4756,71.242 C72.4756,71.662 72.5176,72.0377 72.6016,72.369 C72.6903,72.7003 72.8209,72.9803 72.9936,73.209 C73.1709,73.433 73.3903,73.6057 73.6516,73.727 C73.9129,73.8483 74.2209,73.909 74.5756,73.909 Z M80.5629,67.693 L80.5629,72.215 C80.5629,72.7517 80.6866,73.167 80.9339,73.461 C81.1812,73.755 81.5546,73.902 82.0539,73.902 C82.4179,73.902 82.7609,73.8157 83.0829,73.643 C83.4049,73.4703 83.7012,73.23 83.9719,72.922 L83.9719,67.693 L85.2179,67.693 L85.2179,74.784 L84.4759,74.784 C84.2986,74.784 84.1866,74.6977 84.1399,74.525 L84.0419,73.762 C83.7339,74.1027 83.3886,74.378 83.0059,74.588 C82.6232,74.7933 82.1846,74.896 81.6899,74.896 C81.3026,74.896 80.9596,74.833 80.6609,74.707 C80.3669,74.5763 80.1196,74.3943 79.9189,74.161 C79.7182,73.9277 79.5666,73.6453 79.4639,73.314 C79.3659,72.9827 79.3169,72.6163 79.3169,72.215 L79.3169,67.693 L80.5629,67.693 Z M89.9712,74.784 L89.9712,64.473 L91.2172,64.473 L91.2172,68.645 C91.5206,68.323 91.8566,68.0663 92.2252,67.875 C92.5939,67.679 93.0186,67.581 93.4992,67.581 C93.8866,67.581 94.2272,67.6463 94.5212,67.777 C94.8199,67.903 95.0672,68.085 95.2632,68.323 C95.4639,68.5563 95.6156,68.8387 95.7182,69.17 C95.8209,69.5013 95.8722,69.8677 95.8722,70.269 L95.8722,74.784 L94.6262,74.784 L94.6262,70.269 C94.6262,69.7323 94.5026,69.317 94.2552,69.023 C94.0126,68.7243 93.6392,68.575 93.1352,68.575 C92.7666,68.575 92.4212,68.6637 92.0992,68.841 C91.7819,69.0183 91.4879,69.2587 91.2172,69.562 L91.2172,74.784 L89.9712,74.784 Z M102.959,74.784 L102.406,74.784 C102.284,74.784 102.186,74.7653 102.112,74.728 C102.037,74.6907 101.988,74.6113 101.965,74.49 L101.825,73.832 C101.638,74 101.456,74.1517 101.279,74.287 C101.101,74.4177 100.915,74.5297 100.719,74.623 C100.523,74.7117 100.313,74.7793 100.089,74.826 C99.8692,74.8727 99.6242,74.896 99.3535,74.896 C99.0782,74.896 98.8192,74.8587 98.5765,74.784 C98.3385,74.7047 98.1308,74.588 97.9535,74.434 C97.7762,74.28 97.6338,74.0863 97.5265,73.853 C97.4238,73.615 97.3725,73.335 97.3725,73.013 C97.3725,72.733 97.4495,72.4647 97.6035,72.208 C97.7575,71.9467 98.0048,71.7157 98.3455,71.515 C98.6908,71.3143 99.1412,71.151 99.6965,71.025 C100.252,70.8943 100.931,70.8197 101.734,70.801 L101.734,70.248 C101.734,69.6973 101.615,69.282 101.377,69.002 C101.143,68.7173 100.796,68.575 100.334,68.575 C100.03,68.575 99.7735,68.6147 99.5635,68.694 C99.3582,68.7687 99.1785,68.855 99.0245,68.953 C98.8752,69.0463 98.7445,69.1327 98.6325,69.212 C98.5252,69.2867 98.4178,69.324 98.3105,69.324 C98.2265,69.324 98.1518,69.303 98.0865,69.261 C98.0258,69.2143 97.9768,69.1583 97.9395,69.093 L97.7155,68.694 C98.1075,68.316 98.5298,68.0337 98.9825,67.847 C99.4352,67.6603 99.9368,67.567 100.488,67.567 C100.884,67.567 101.237,67.6323 101.545,67.763 C101.853,67.8937 102.112,68.0757 102.322,68.309 C102.532,68.5423 102.69,68.8247 102.798,69.156 C102.905,69.4873 102.959,69.8513 102.959,70.248 L102.959,74.784 Z M99.7245,74.021 C99.9438,74.021 100.145,74 100.327,73.958 C100.509,73.9113 100.679,73.8483 100.838,73.769 C101.001,73.685 101.155,73.5847 101.3,73.468 C101.449,73.3513 101.594,73.2183 101.734,73.069 L101.734,71.592 C101.16,71.6107 100.672,71.6573 100.271,71.732 C99.8692,71.802 99.5425,71.8953 99.2905,72.012 C99.0385,72.1287 98.8542,72.2663 98.7375,72.425 C98.6255,72.5837 98.5695,72.761 98.5695,72.957 C98.5695,73.1437 98.5998,73.3047 98.6605,73.44 C98.7212,73.5753 98.8028,73.6873 98.9055,73.776 C99.0082,73.86 99.1295,73.923 99.2695,73.965 C99.4095,74.0023 99.5612,74.021 99.7245,74.021 Z M103.731,67.693 L104.753,67.693 C104.851,67.693 104.933,67.7187 104.998,67.77 C105.064,67.8213 105.11,67.882 105.138,67.952 L106.937,72.516 C107.003,72.684 107.054,72.852 107.091,73.02 C107.129,73.188 107.164,73.3537 107.196,73.517 C107.234,73.3537 107.273,73.188 107.315,73.02 C107.357,72.852 107.411,72.684 107.476,72.516 L109.296,67.952 C109.324,67.8773 109.369,67.8167 109.429,67.77 C109.495,67.7187 109.574,67.693 109.667,67.693 L110.64,67.693 L107.749,74.784 L106.622,74.784 L103.731,67.693 Z M114.421,67.581 C114.845,67.581 115.237,67.6533 115.597,67.798 C115.956,67.938 116.266,68.1433 116.528,68.414 C116.789,68.68 116.992,69.0113 117.137,69.408 C117.286,69.8 117.361,70.248 117.361,70.752 C117.361,70.948 117.34,71.0787 117.298,71.144 C117.256,71.2093 117.176,71.242 117.06,71.242 L112.342,71.242 C112.351,71.69 112.412,72.0797 112.524,72.411 C112.636,72.7423 112.79,73.02 112.986,73.244 C113.182,73.4633 113.415,73.629 113.686,73.741 C113.956,73.8483 114.26,73.902 114.596,73.902 C114.908,73.902 115.177,73.867 115.401,73.797 C115.629,73.7223 115.825,73.643 115.989,73.559 C116.152,73.475 116.287,73.398 116.395,73.328 C116.507,73.2533 116.602,73.216 116.682,73.216 C116.784,73.216 116.864,73.2557 116.92,73.335 L117.27,73.79 C117.116,73.9767 116.931,74.14 116.717,74.28 C116.502,74.4153 116.271,74.5273 116.024,74.616 C115.781,74.7047 115.529,74.77 115.268,74.812 C115.006,74.8587 114.747,74.882 114.491,74.882 C114.001,74.882 113.548,74.8003 113.133,74.637 C112.722,74.469 112.365,74.2263 112.062,73.909 C111.763,73.587 111.53,73.1903 111.362,72.719 C111.194,72.2477 111.11,71.7063 111.11,71.095 C111.11,70.6003 111.184,70.1383 111.334,69.709 C111.488,69.2797 111.707,68.9087 111.992,68.596 C112.276,68.2787 112.624,68.0313 113.035,67.854 C113.445,67.672 113.907,67.581 114.421,67.581 Z M114.449,68.498 C113.847,68.498 113.373,68.673 113.028,69.023 C112.682,69.3683 112.468,69.849 112.384,70.465 L116.241,70.465 C116.241,70.1757 116.201,69.912 116.122,69.674 C116.042,69.4313 115.926,69.2237 115.772,69.051 C115.618,68.8737 115.429,68.7383 115.205,68.645 C114.985,68.547 114.733,68.498 114.449,68.498 Z M125.723,68.862 C125.667,68.9647 125.58,69.016 125.464,69.016 C125.394,69.016 125.314,68.9903 125.226,68.939 C125.137,68.8877 125.027,68.8317 124.897,68.771 C124.771,68.7057 124.619,68.6473 124.442,68.596 C124.264,68.54 124.054,68.512 123.812,68.512 C123.602,68.512 123.413,68.54 123.245,68.596 C123.077,68.6473 122.932,68.7197 122.811,68.813 C122.694,68.9063 122.603,69.016 122.538,69.142 C122.477,69.2633 122.447,69.3963 122.447,69.541 C122.447,69.723 122.498,69.8747 122.601,69.996 C122.708,70.1173 122.848,70.2223 123.021,70.311 C123.193,70.3997 123.389,70.479 123.609,70.549 C123.828,70.6143 124.052,70.6867 124.281,70.766 C124.514,70.8407 124.74,70.9247 124.96,71.018 C125.179,71.1113 125.375,71.228 125.548,71.368 C125.72,71.508 125.858,71.6807 125.961,71.886 C126.068,72.0867 126.122,72.3293 126.122,72.614 C126.122,72.9407 126.063,73.244 125.947,73.524 C125.83,73.7993 125.657,74.0397 125.429,74.245 C125.2,74.4457 124.92,74.6043 124.589,74.721 C124.257,74.8377 123.875,74.896 123.441,74.896 C122.946,74.896 122.498,74.8167 122.097,74.658 C121.695,74.4947 121.355,74.287 121.075,74.035 L121.369,73.559 C121.406,73.4983 121.45,73.4517 121.502,73.419 C121.553,73.3863 121.621,73.37 121.705,73.37 C121.789,73.37 121.877,73.4027 121.971,73.468 C122.064,73.5333 122.176,73.6057 122.307,73.685 C122.442,73.7643 122.603,73.8367 122.79,73.902 C122.981,73.9673 123.219,74 123.504,74 C123.746,74 123.959,73.9697 124.141,73.909 C124.323,73.8437 124.474,73.7573 124.596,73.65 C124.717,73.5427 124.806,73.419 124.862,73.279 C124.922,73.139 124.953,72.9897 124.953,72.831 C124.953,72.635 124.899,72.474 124.792,72.348 C124.689,72.2173 124.551,72.1077 124.379,72.019 C124.206,71.9257 124.008,71.8463 123.784,71.781 C123.564,71.711 123.338,71.6387 123.105,71.564 C122.876,71.4893 122.65,71.4053 122.426,71.312 C122.206,71.214 122.01,71.0927 121.838,70.948 C121.665,70.8033 121.525,70.626 121.418,70.416 C121.315,70.2013 121.264,69.9423 121.264,69.639 C121.264,69.3683 121.32,69.1093 121.432,68.862 C121.544,68.61 121.707,68.3907 121.922,68.204 C122.136,68.0127 122.4,67.861 122.713,67.749 C123.025,67.637 123.382,67.581 123.784,67.581 C124.25,67.581 124.668,67.6557 125.037,67.805 C125.41,67.9497 125.732,68.1503 126.003,68.407 L125.723,68.862 Z M128.811,67.693 L128.811,72.215 C128.811,72.7517 128.935,73.167 129.182,73.461 C129.429,73.755 129.803,73.902 130.302,73.902 C130.666,73.902 131.009,73.8157 131.331,73.643 C131.653,73.4703 131.949,73.23 132.22,72.922 L132.22,67.693 L133.466,67.693 L133.466,74.784 L132.724,74.784 C132.547,74.784 132.435,74.6977 132.388,74.525 L132.29,73.762 C131.982,74.1027 131.637,74.378 131.254,74.588 C130.871,74.7933 130.433,74.896 129.938,74.896 C129.551,74.896 129.208,74.833 128.909,74.707 C128.615,74.5763 128.368,74.3943 128.167,74.161 C127.966,73.9277 127.815,73.6453 127.712,73.314 C127.614,72.9827 127.565,72.6163 127.565,72.215 L127.565,67.693 L128.811,67.693 Z M140.349,68.953 C140.312,69.0043 140.275,69.044 140.237,69.072 C140.2,69.1 140.146,69.114 140.076,69.114 C140.006,69.114 139.929,69.086 139.845,69.03 C139.766,68.9693 139.663,68.904 139.537,68.834 C139.411,68.764 139.257,68.701 139.075,68.645 C138.898,68.5843 138.679,68.554 138.417,68.554 C138.072,68.554 137.766,68.617 137.5,68.743 C137.234,68.8643 137.01,69.0417 136.828,69.275 C136.651,69.5083 136.516,69.7907 136.422,70.122 C136.334,70.4533 136.289,70.8243 136.289,71.235 C136.289,71.6643 136.338,72.047 136.436,72.383 C136.534,72.7143 136.672,72.9943 136.849,73.223 C137.027,73.447 137.241,73.6197 137.493,73.741 C137.75,73.8577 138.037,73.916 138.354,73.916 C138.658,73.916 138.907,73.881 139.103,73.811 C139.299,73.7363 139.463,73.6547 139.593,73.566 C139.724,73.4773 139.831,73.398 139.915,73.328 C139.999,73.2533 140.083,73.216 140.167,73.216 C140.275,73.216 140.354,73.2557 140.405,73.335 L140.755,73.79 C140.447,74.168 140.062,74.4457 139.6,74.623 C139.138,74.7957 138.651,74.882 138.137,74.882 C137.694,74.882 137.281,74.8003 136.898,74.637 C136.52,74.4737 136.191,74.238 135.911,73.93 C135.631,73.6173 135.41,73.2347 135.246,72.782 C135.088,72.3293 135.008,71.8137 135.008,71.235 C135.008,70.7077 135.081,70.22 135.225,69.772 C135.375,69.324 135.589,68.939 135.869,68.617 C136.154,68.2903 136.504,68.036 136.919,67.854 C137.335,67.672 137.811,67.581 138.347,67.581 C138.842,67.581 139.281,67.6627 139.663,67.826 C140.046,67.9847 140.384,68.211 140.678,68.505 L140.349,68.953 Z M146.884,68.953 C146.847,69.0043 146.81,69.044 146.772,69.072 C146.735,69.1 146.681,69.114 146.611,69.114 C146.541,69.114 146.464,69.086 146.38,69.03 C146.301,68.9693 146.198,68.904 146.072,68.834 C145.946,68.764 145.792,68.701 145.61,68.645 C145.433,68.5843 145.214,68.554 144.952,68.554 C144.607,68.554 144.301,68.617 144.035,68.743 C143.769,68.8643 143.545,69.0417 143.363,69.275 C143.186,69.5083 143.051,69.7907 142.957,70.122 C142.869,70.4533 142.824,70.8243 142.824,71.235 C142.824,71.6643 142.873,72.047 142.971,72.383 C143.069,72.7143 143.207,72.9943 143.384,73.223 C143.562,73.447 143.776,73.6197 144.028,73.741 C144.285,73.8577 144.572,73.916 144.889,73.916 C145.193,73.916 145.442,73.881 145.638,73.811 C145.834,73.7363 145.998,73.6547 146.128,73.566 C146.259,73.4773 146.366,73.398 146.45,73.328 C146.534,73.2533 146.618,73.216 146.702,73.216 C146.81,73.216 146.889,73.2557 146.94,73.335 L147.29,73.79 C146.982,74.168 146.597,74.4457 146.135,74.623 C145.673,74.7957 145.186,74.882 144.672,74.882 C144.229,74.882 143.816,74.8003 143.433,74.637 C143.055,74.4737 142.726,74.238 142.446,73.93 C142.166,73.6173 141.945,73.2347 141.781,72.782 C141.623,72.3293 141.543,71.8137 141.543,71.235 C141.543,70.7077 141.616,70.22 141.76,69.772 C141.91,69.324 142.124,68.939 142.404,68.617 C142.689,68.2903 143.039,68.036 143.454,67.854 C143.87,67.672 144.346,67.581 144.882,67.581 C145.377,67.581 145.816,67.6627 146.198,67.826 C146.581,67.9847 146.919,68.211 147.213,68.505 L146.884,68.953 Z M151.39,67.581 C151.814,67.581 152.206,67.6533 152.566,67.798 C152.925,67.938 153.235,68.1433 153.497,68.414 C153.758,68.68 153.961,69.0113 154.106,69.408 C154.255,69.8 154.33,70.248 154.33,70.752 C154.33,70.948 154.309,71.0787 154.267,71.144 C154.225,71.2093 154.145,71.242 154.029,71.242 L149.311,71.242 C149.32,71.69 149.381,72.0797 149.493,72.411 C149.605,72.7423 149.759,73.02 149.955,73.244 C150.151,73.4633 150.384,73.629 150.655,73.741 C150.925,73.8483 151.229,73.902 151.565,73.902 C151.877,73.902 152.146,73.867 152.37,73.797 C152.598,73.7223 152.794,73.643 152.958,73.559 C153.121,73.475 153.256,73.398 153.364,73.328 C153.476,73.2533 153.571,73.216 153.651,73.216 C153.753,73.216 153.833,73.2557 153.889,73.335 L154.239,73.79 C154.085,73.9767 153.9,74.14 153.686,74.28 C153.471,74.4153 153.24,74.5273 152.993,74.616 C152.75,74.7047 152.498,74.77 152.237,74.812 C151.975,74.8587 151.716,74.882 151.46,74.882 C150.97,74.882 150.517,74.8003 150.102,74.637 C149.691,74.469 149.334,74.2263 149.031,73.909 C148.732,73.587 148.499,73.1903 148.331,72.719 C148.163,72.2477 148.079,71.7063 148.079,71.095 C148.079,70.6003 148.153,70.1383 148.303,69.709 C148.457,69.2797 148.676,68.9087 148.961,68.596 C149.245,68.2787 149.593,68.0313 150.004,67.854 C150.414,67.672 150.876,67.581 151.39,67.581 Z M151.418,68.498 C150.816,68.498 150.342,68.673 149.997,69.023 C149.651,69.3683 149.437,69.849 149.353,70.465 L153.21,70.465 C153.21,70.1757 153.17,69.912 153.091,69.674 C153.011,69.4313 152.895,69.2237 152.741,69.051 C152.587,68.8737 152.398,68.7383 152.174,68.645 C151.954,68.547 151.702,68.498 151.418,68.498 Z M159.984,68.862 C159.928,68.9647 159.842,69.016 159.725,69.016 C159.655,69.016 159.576,68.9903 159.487,68.939 C159.399,68.8877 159.289,68.8317 159.158,68.771 C159.032,68.7057 158.881,68.6473 158.703,68.596 C158.526,68.54 158.316,68.512 158.073,68.512 C157.863,68.512 157.674,68.54 157.506,68.596 C157.338,68.6473 157.194,68.7197 157.072,68.813 C156.956,68.9063 156.865,69.016 156.799,69.142 C156.739,69.2633 156.708,69.3963 156.708,69.541 C156.708,69.723 156.76,69.8747 156.862,69.996 C156.97,70.1173 157.11,70.2223 157.282,70.311 C157.455,70.3997 157.651,70.479 157.87,70.549 C158.09,70.6143 158.314,70.6867 158.542,70.766 C158.776,70.8407 159.002,70.9247 159.221,71.018 C159.441,71.1113 159.637,71.228 159.809,71.368 C159.982,71.508 160.12,71.6807 160.222,71.886 C160.33,72.0867 160.383,72.3293 160.383,72.614 C160.383,72.9407 160.325,73.244 160.208,73.524 C160.092,73.7993 159.919,74.0397 159.69,74.245 C159.462,74.4457 159.182,74.6043 158.85,74.721 C158.519,74.8377 158.136,74.896 157.702,74.896 C157.208,74.896 156.76,74.8167 156.358,74.658 C155.957,74.4947 155.616,74.287 155.336,74.035 L155.63,73.559 C155.668,73.4983 155.712,73.4517 155.763,73.419 C155.815,73.3863 155.882,73.37 155.966,73.37 C156.05,73.37 156.139,73.4027 156.232,73.468 C156.326,73.5333 156.438,73.6057 156.568,73.685 C156.704,73.7643 156.865,73.8367 157.051,73.902 C157.243,73.9673 157.481,74 157.765,74 C158.008,74 158.22,73.9697 158.402,73.909 C158.584,73.8437 158.736,73.7573 158.857,73.65 C158.979,73.5427 159.067,73.419 159.123,73.279 C159.184,73.139 159.214,72.9897 159.214,72.831 C159.214,72.635 159.161,72.474 159.053,72.348 C158.951,72.2173 158.813,72.1077 158.64,72.019 C158.468,71.9257 158.269,71.8463 158.045,71.781 C157.826,71.711 157.6,71.6387 157.366,71.564 C157.138,71.4893 156.911,71.4053 156.687,71.312 C156.468,71.214 156.272,71.0927 156.099,70.948 C155.927,70.8033 155.787,70.626 155.679,70.416 C155.577,70.2013 155.525,69.9423 155.525,69.639 C155.525,69.3683 155.581,69.1093 155.693,68.862 C155.805,68.61 155.969,68.3907 156.183,68.204 C156.398,68.0127 156.662,67.861 156.974,67.749 C157.287,67.637 157.644,67.581 158.045,67.581 C158.512,67.581 158.93,67.6557 159.298,67.805 C159.672,67.9497 159.994,68.1503 160.264,68.407 L159.984,68.862 Z M162.275,74.784 L162.275,68.757 L161.491,68.666 C161.393,68.6427 161.311,68.6077 161.246,68.561 C161.185,68.5097 161.155,68.4373 161.155,68.344 L161.155,67.833 L162.275,67.833 L162.275,67.147 C162.275,66.741 162.331,66.3817 162.443,66.069 C162.559,65.7517 162.723,65.4857 162.933,65.271 C163.147,65.0517 163.404,64.886 163.703,64.774 C164.001,64.662 164.337,64.606 164.711,64.606 C165.028,64.606 165.322,64.6527 165.593,64.746 L165.565,65.369 C165.56,65.4623 165.52,65.5183 165.446,65.537 C165.371,65.5557 165.266,65.565 165.131,65.565 L164.914,65.565 C164.699,65.565 164.503,65.593 164.326,65.649 C164.153,65.705 164.004,65.796 163.878,65.922 C163.752,66.048 163.654,66.2137 163.584,66.419 C163.518,66.6243 163.486,66.8787 163.486,67.182 L163.486,67.833 L165.537,67.833 L165.537,68.736 L163.528,68.736 L163.528,74.784 L162.275,74.784 Z M167.789,67.693 L167.789,72.215 C167.789,72.7517 167.913,73.167 168.16,73.461 C168.408,73.755 168.781,73.902 169.28,73.902 C169.644,73.902 169.987,73.8157 170.309,73.643 C170.631,73.4703 170.928,73.23 171.198,72.922 L171.198,67.693 L172.444,67.693 L172.444,74.784 L171.702,74.784 C171.525,74.784 171.413,74.6977 171.366,74.525 L171.268,73.762 C170.96,74.1027 170.615,74.378 170.232,74.588 C169.85,74.7933 169.411,74.896 168.916,74.896 C168.529,74.896 168.186,74.833 167.887,74.707 C167.593,74.5763 167.346,74.3943 167.145,74.161 C166.945,73.9277 166.793,73.6453 166.69,73.314 C166.592,72.9827 166.543,72.6163 166.543,72.215 L166.543,67.693 L167.789,67.693 Z M175.877,64.473 L175.877,74.784 L174.631,74.784 L174.631,64.473 L175.877,64.473 Z M179.459,64.473 L179.459,74.784 L178.213,74.784 L178.213,64.473 L179.459,64.473 Z M183.734,76.877 C183.692,76.9703 183.638,77.045 183.573,77.101 C183.512,77.157 183.416,77.185 183.286,77.185 L182.362,77.185 L183.657,74.371 L180.731,67.693 L181.809,67.693 C181.916,67.693 182,67.721 182.061,67.777 C182.121,67.8283 182.166,67.8867 182.194,67.952 L184.091,72.418 C184.133,72.5207 184.168,72.6233 184.196,72.726 C184.228,72.8287 184.256,72.9337 184.28,73.041 C184.312,72.9337 184.345,72.8287 184.378,72.726 C184.41,72.6233 184.448,72.5183 184.49,72.411 L186.331,67.952 C186.359,67.8773 186.405,67.8167 186.471,67.77 C186.541,67.7187 186.615,67.693 186.695,67.693 L187.689,67.693 L183.734,76.877 Z M192.604,67.693 L192.604,72.215 C192.604,72.7517 192.728,73.167 192.975,73.461 C193.222,73.755 193.596,73.902 194.095,73.902 C194.459,73.902 194.802,73.8157 195.124,73.643 C195.446,73.4703 195.742,73.23 196.013,72.922 L196.013,67.693 L197.259,67.693 L197.259,74.784 L196.517,74.784 C196.34,74.784 196.228,74.6977 196.181,74.525 L196.083,73.762 C195.775,74.1027 195.43,74.378 195.047,74.588 C194.664,74.7933 194.226,74.896 193.731,74.896 C193.344,74.896 193.001,74.833 192.702,74.707 C192.408,74.5763 192.161,74.3943 191.96,74.161 C191.759,73.9277 191.608,73.6453 191.505,73.314 C191.407,72.9827 191.358,72.6163 191.358,72.215 L191.358,67.693 L192.604,67.693 Z M199.305,77.185 L199.305,67.693 L200.047,67.693 C200.225,67.693 200.337,67.7793 200.383,67.952 L200.488,68.792 C200.792,68.4233 201.137,68.127 201.524,67.903 C201.916,67.679 202.367,67.567 202.875,67.567 C203.281,67.567 203.65,67.6463 203.981,67.805 C204.313,67.959 204.595,68.19 204.828,68.498 C205.062,68.8013 205.241,69.1793 205.367,69.632 C205.493,70.0847 205.556,70.605 205.556,71.193 C205.556,71.7157 205.486,72.2033 205.346,72.656 C205.206,73.104 205.006,73.4937 204.744,73.825 C204.483,74.1517 204.161,74.4107 203.778,74.602 C203.4,74.7887 202.973,74.882 202.497,74.882 C202.059,74.882 201.683,74.8097 201.37,74.665 C201.062,74.5203 200.789,74.315 200.551,74.049 L200.551,77.185 L199.305,77.185 Z M202.462,68.575 C202.056,68.575 201.699,68.6683 201.391,68.855 C201.088,69.0417 200.808,69.3053 200.551,69.646 L200.551,73.076 C200.78,73.384 201.03,73.601 201.3,73.727 C201.576,73.853 201.881,73.916 202.217,73.916 C202.875,73.916 203.382,73.6803 203.736,73.209 C204.091,72.7377 204.268,72.0657 204.268,71.193 C204.268,70.731 204.226,70.3343 204.142,70.003 C204.063,69.6717 203.946,69.401 203.792,69.191 C203.638,68.9763 203.449,68.82 203.225,68.722 C203.001,68.624 202.747,68.575 202.462,68.575 Z M212.021,74.784 C211.843,74.784 211.731,74.6977 211.685,74.525 L211.573,73.664 C211.269,74.0327 210.922,74.329 210.53,74.553 C210.142,74.7723 209.697,74.882 209.193,74.882 C208.787,74.882 208.418,74.805 208.087,74.651 C207.755,74.4923 207.473,74.2613 207.24,73.958 C207.006,73.6547 206.827,73.2767 206.701,72.824 C206.575,72.3713 206.512,71.851 206.512,71.263 C206.512,70.7403 206.582,70.255 206.722,69.807 C206.862,69.3543 207.062,68.9623 207.324,68.631 C207.59,68.2997 207.912,68.0407 208.29,67.854 C208.668,67.6627 209.097,67.567 209.578,67.567 C210.012,67.567 210.383,67.6417 210.691,67.791 C210.999,67.9357 211.274,68.141 211.517,68.407 L211.517,64.473 L212.763,64.473 L212.763,74.784 L212.021,74.784 Z M209.606,73.874 C210.012,73.874 210.366,73.7807 210.67,73.594 C210.978,73.4073 211.26,73.1437 211.517,72.803 L211.517,69.373 C211.288,69.065 211.036,68.8503 210.761,68.729 C210.49,68.603 210.189,68.54 209.858,68.54 C209.195,68.54 208.686,68.7757 208.332,69.247 C207.977,69.7183 207.8,70.3903 207.8,71.263 C207.8,71.725 207.839,72.1217 207.919,72.453 C207.998,72.7797 208.115,73.0503 208.269,73.265 C208.423,73.475 208.612,73.629 208.836,73.727 C209.06,73.825 209.316,73.874 209.606,73.874 Z M220.058,74.784 L219.505,74.784 C219.384,74.784 219.286,74.7653 219.211,74.728 C219.136,74.6907 219.087,74.6113 219.064,74.49 L218.924,73.832 C218.737,74 218.555,74.1517 218.378,74.287 C218.201,74.4177 218.014,74.5297 217.818,74.623 C217.622,74.7117 217.412,74.7793 217.188,74.826 C216.969,74.8727 216.724,74.896 216.453,74.896 C216.178,74.896 215.919,74.8587 215.676,74.784 C215.438,74.7047 215.23,74.588 215.053,74.434 C214.876,74.28 214.733,74.0863 214.626,73.853 C214.523,73.615 214.472,73.335 214.472,73.013 C214.472,72.733 214.549,72.4647 214.703,72.208 C214.857,71.9467 215.104,71.7157 215.445,71.515 C215.79,71.3143 216.241,71.151 216.796,71.025 C217.351,70.8943 218.03,70.8197 218.833,70.801 L218.833,70.248 C218.833,69.6973 218.714,69.282 218.476,69.002 C218.243,68.7173 217.895,68.575 217.433,68.575 C217.13,68.575 216.873,68.6147 216.663,68.694 C216.458,68.7687 216.278,68.855 216.124,68.953 C215.975,69.0463 215.844,69.1327 215.732,69.212 C215.625,69.2867 215.517,69.324 215.41,69.324 C215.326,69.324 215.251,69.303 215.186,69.261 C215.125,69.2143 215.076,69.1583 215.039,69.093 L214.815,68.694 C215.207,68.316 215.629,68.0337 216.082,67.847 C216.535,67.6603 217.036,67.567 217.587,67.567 C217.984,67.567 218.336,67.6323 218.644,67.763 C218.952,67.8937 219.211,68.0757 219.421,68.309 C219.631,68.5423 219.79,68.8247 219.897,69.156 C220.004,69.4873 220.058,69.8513 220.058,70.248 L220.058,74.784 Z M216.824,74.021 C217.043,74.021 217.244,74 217.426,73.958 C217.608,73.9113 217.778,73.8483 217.937,73.769 C218.1,73.685 218.254,73.5847 218.399,73.468 C218.548,73.3513 218.693,73.2183 218.833,73.069 L218.833,71.592 C218.259,71.6107 217.771,71.6573 217.37,71.732 C216.969,71.802 216.642,71.8953 216.39,72.012 C216.138,72.1287 215.954,72.2663 215.837,72.425 C215.725,72.5837 215.669,72.761 215.669,72.957 C215.669,73.1437 215.699,73.3047 215.76,73.44 C215.821,73.5753 215.902,73.6873 216.005,73.776 C216.108,73.86 216.229,73.923 216.369,73.965 C216.509,74.0023 216.661,74.021 216.824,74.021 Z M224.095,74.896 C223.535,74.896 223.103,74.7397 222.8,74.427 C222.501,74.1143 222.352,73.664 222.352,73.076 L222.352,68.736 L221.498,68.736 C221.423,68.736 221.36,68.715 221.309,68.673 C221.257,68.6263 221.232,68.5563 221.232,68.463 L221.232,67.966 L222.394,67.819 L222.681,65.628 C222.69,65.558 222.72,65.502 222.772,65.46 C222.823,65.4133 222.888,65.39 222.968,65.39 L223.598,65.39 L223.598,67.833 L225.628,67.833 L225.628,68.736 L223.598,68.736 L223.598,72.992 C223.598,73.2907 223.67,73.5123 223.815,73.657 C223.959,73.8017 224.146,73.874 224.375,73.874 C224.505,73.874 224.617,73.8577 224.711,73.825 C224.809,73.7877 224.893,73.748 224.963,73.706 C225.033,73.664 225.091,73.6267 225.138,73.594 C225.189,73.5567 225.233,73.538 225.271,73.538 C225.336,73.538 225.394,73.5777 225.446,73.657 L225.81,74.252 C225.595,74.4527 225.336,74.6113 225.033,74.728 C224.729,74.84 224.417,74.896 224.095,74.896 Z M229.975,67.581 C230.4,67.581 230.792,67.6533 231.151,67.798 C231.511,67.938 231.821,68.1433 232.082,68.414 C232.344,68.68 232.547,69.0113 232.691,69.408 C232.841,69.8 232.915,70.248 232.915,70.752 C232.915,70.948 232.894,71.0787 232.852,71.144 C232.81,71.2093 232.731,71.242 232.614,71.242 L227.896,71.242 C227.906,71.69 227.966,72.0797 228.078,72.411 C228.19,72.7423 228.344,73.02 228.54,73.244 C228.736,73.4633 228.97,73.629 229.24,73.741 C229.511,73.8483 229.814,73.902 230.15,73.902 C230.463,73.902 230.731,73.867 230.955,73.797 C231.184,73.7223 231.38,73.643 231.543,73.559 C231.707,73.475 231.842,73.398 231.949,73.328 C232.061,73.2533 232.157,73.216 232.236,73.216 C232.339,73.216 232.418,73.2557 232.474,73.335 L232.824,73.79 C232.67,73.9767 232.486,74.14 232.271,74.28 C232.057,74.4153 231.826,74.5273 231.578,74.616 C231.336,74.7047 231.084,74.77 230.822,74.812 C230.561,74.8587 230.302,74.882 230.045,74.882 C229.555,74.882 229.103,74.8003 228.687,74.637 C228.277,74.469 227.92,74.2263 227.616,73.909 C227.318,73.587 227.084,73.1903 226.916,72.719 C226.748,72.2477 226.664,71.7063 226.664,71.095 C226.664,70.6003 226.739,70.1383 226.888,69.709 C227.042,69.2797 227.262,68.9087 227.546,68.596 C227.831,68.2787 228.179,68.0313 228.589,67.854 C229,67.672 229.462,67.581 229.975,67.581 Z M230.003,68.498 C229.401,68.498 228.928,68.673 228.582,69.023 C228.237,69.3683 228.022,69.849 227.938,70.465 L231.795,70.465 C231.795,70.1757 231.756,69.912 231.676,69.674 C231.597,69.4313 231.48,69.2237 231.326,69.051 C231.172,68.8737 230.983,68.7383 230.759,68.645 C230.54,68.547 230.288,68.498 230.003,68.498 Z M239.501,74.784 C239.324,74.784 239.212,74.6977 239.165,74.525 L239.053,73.664 C238.75,74.0327 238.402,74.329 238.01,74.553 C237.623,74.7723 237.177,74.882 236.673,74.882 C236.267,74.882 235.899,74.805 235.567,74.651 C235.236,74.4923 234.954,74.2613 234.72,73.958 C234.487,73.6547 234.307,73.2767 234.181,72.824 C234.055,72.3713 233.992,71.851 233.992,71.263 C233.992,70.7403 234.062,70.255 234.202,69.807 C234.342,69.3543 234.543,68.9623 234.804,68.631 C235.07,68.2997 235.392,68.0407 235.77,67.854 C236.148,67.6627 236.578,67.567 237.058,67.567 C237.492,67.567 237.863,67.6417 238.171,67.791 C238.479,67.9357 238.755,68.141 238.997,68.407 L238.997,64.473 L240.243,64.473 L240.243,74.784 L239.501,74.784 Z M237.086,73.874 C237.492,73.874 237.847,73.7807 238.15,73.594 C238.458,73.4073 238.741,73.1437 238.997,72.803 L238.997,69.373 C238.769,69.065 238.517,68.8503 238.241,68.729 C237.971,68.603 237.67,68.54 237.338,68.54 C236.676,68.54 236.167,68.7757 235.812,69.247 C235.458,69.7183 235.28,70.3903 235.28,71.263 C235.28,71.725 235.32,72.1217 235.399,72.453 C235.479,72.7797 235.595,73.0503 235.749,73.265 C235.903,73.475 236.092,73.629 236.316,73.727 C236.54,73.825 236.797,73.874 237.086,73.874 Z M247.187,74.896 C246.627,74.896 246.195,74.7397 245.892,74.427 C245.593,74.1143 245.444,73.664 245.444,73.076 L245.444,68.736 L244.59,68.736 C244.515,68.736 244.452,68.715 244.401,68.673 C244.349,68.6263 244.324,68.5563 244.324,68.463 L244.324,67.966 L245.486,67.819 L245.773,65.628 C245.782,65.558 245.812,65.502 245.864,65.46 C245.915,65.4133 245.98,65.39 246.06,65.39 L246.69,65.39 L246.69,67.833 L248.72,67.833 L248.72,68.736 L246.69,68.736 L246.69,72.992 C246.69,73.2907 246.762,73.5123 246.907,73.657 C247.051,73.8017 247.238,73.874 247.467,73.874 C247.597,73.874 247.709,73.8577 247.803,73.825 C247.901,73.7877 247.985,73.748 248.055,73.706 C248.125,73.664 248.183,73.6267 248.23,73.594 C248.281,73.5567 248.325,73.538 248.363,73.538 C248.428,73.538 248.486,73.5777 248.538,73.657 L248.902,74.252 C248.687,74.4527 248.428,74.6113 248.125,74.728 C247.821,74.84 247.509,74.896 247.187,74.896 Z M250.26,74.784 L250.26,64.473 L251.506,64.473 L251.506,68.645 C251.81,68.323 252.146,68.0663 252.514,67.875 C252.883,67.679 253.308,67.581 253.788,67.581 C254.176,67.581 254.516,67.6463 254.81,67.777 C255.109,67.903 255.356,68.085 255.552,68.323 C255.753,68.5563 255.905,68.8387 256.007,69.17 C256.11,69.5013 256.161,69.8677 256.161,70.269 L256.161,74.784 L254.915,74.784 L254.915,70.269 C254.915,69.7323 254.792,69.317 254.544,69.023 C254.302,68.7243 253.928,68.575 253.424,68.575 C253.056,68.575 252.71,68.6637 252.388,68.841 C252.071,69.0183 251.777,69.2587 251.506,69.562 L251.506,74.784 L250.26,74.784 Z M260.847,67.581 C261.271,67.581 261.663,67.6533 262.023,67.798 C262.382,67.938 262.692,68.1433 262.954,68.414 C263.215,68.68 263.418,69.0113 263.563,69.408 C263.712,69.8 263.787,70.248 263.787,70.752 C263.787,70.948 263.766,71.0787 263.724,71.144 C263.682,71.2093 263.602,71.242 263.486,71.242 L258.768,71.242 C258.777,71.69 258.838,72.0797 258.95,72.411 C259.062,72.7423 259.216,73.02 259.412,73.244 C259.608,73.4633 259.841,73.629 260.112,73.741 C260.382,73.8483 260.686,73.902 261.022,73.902 C261.334,73.902 261.603,73.867 261.827,73.797 C262.055,73.7223 262.251,73.643 262.415,73.559 C262.578,73.475 262.713,73.398 262.821,73.328 C262.933,73.2533 263.028,73.216 263.108,73.216 C263.21,73.216 263.29,73.2557 263.346,73.335 L263.696,73.79 C263.542,73.9767 263.357,74.14 263.143,74.28 C262.928,74.4153 262.697,74.5273 262.45,74.616 C262.207,74.7047 261.955,74.77 261.694,74.812 C261.432,74.8587 261.173,74.882 260.917,74.882 C260.427,74.882 259.974,74.8003 259.559,74.637 C259.148,74.469 258.791,74.2263 258.488,73.909 C258.189,73.587 257.956,73.1903 257.788,72.719 C257.62,72.2477 257.536,71.7063 257.536,71.095 C257.536,70.6003 257.61,70.1383 257.76,69.709 C257.914,69.2797 258.133,68.9087 258.418,68.596 C258.702,68.2787 259.05,68.0313 259.461,67.854 C259.871,67.672 260.333,67.581 260.847,67.581 Z M260.875,68.498 C260.273,68.498 259.799,68.673 259.454,69.023 C259.108,69.3683 258.894,69.849 258.81,70.465 L262.667,70.465 C262.667,70.1757 262.627,69.912 262.548,69.674 C262.468,69.4313 262.352,69.2237 262.198,69.051 C262.044,68.8737 261.855,68.7383 261.631,68.645 C261.411,68.547 261.159,68.498 260.875,68.498 Z M268.088,77.185 L268.088,67.693 L268.83,67.693 C269.008,67.693 269.12,67.7793 269.166,67.952 L269.271,68.792 C269.575,68.4233 269.92,68.127 270.307,67.903 C270.699,67.679 271.15,67.567 271.658,67.567 C272.064,67.567 272.433,67.6463 272.764,67.805 C273.096,67.959 273.378,68.19 273.611,68.498 C273.845,68.8013 274.024,69.1793 274.15,69.632 C274.276,70.0847 274.339,70.605 274.339,71.193 C274.339,71.7157 274.269,72.2033 274.129,72.656 C273.989,73.104 273.789,73.4937 273.527,73.825 C273.266,74.1517 272.944,74.4107 272.561,74.602 C272.183,74.7887 271.756,74.882 271.28,74.882 C270.842,74.882 270.466,74.8097 270.153,74.665 C269.845,74.5203 269.572,74.315 269.334,74.049 L269.334,77.185 L268.088,77.185 Z M271.245,68.575 C270.839,68.575 270.482,68.6683 270.174,68.855 C269.871,69.0417 269.591,69.3053 269.334,69.646 L269.334,73.076 C269.563,73.384 269.813,73.601 270.083,73.727 C270.359,73.853 270.664,73.916 271,73.916 C271.658,73.916 272.165,73.6803 272.519,73.209 C272.874,72.7377 273.051,72.0657 273.051,71.193 C273.051,70.731 273.009,70.3343 272.925,70.003 C272.846,69.6717 272.729,69.401 272.575,69.191 C272.421,68.9763 272.232,68.82 272.008,68.722 C271.784,68.624 271.53,68.575 271.245,68.575 Z M275.813,74.784 L275.813,67.693 L276.527,67.693 C276.662,67.693 276.756,67.7187 276.807,67.77 C276.858,67.8213 276.893,67.91 276.912,68.036 L276.996,69.142 C277.239,68.6473 277.537,68.2623 277.892,67.987 C278.251,67.707 278.671,67.567 279.152,67.567 C279.348,67.567 279.525,67.5903 279.684,67.637 C279.843,67.679 279.99,67.7397 280.125,67.819 L279.964,68.75 C279.931,68.8667 279.859,68.925 279.747,68.925 C279.682,68.925 279.581,68.904 279.446,68.862 C279.311,68.8153 279.122,68.792 278.879,68.792 C278.445,68.792 278.081,68.918 277.787,69.17 C277.498,69.422 277.255,69.7883 277.059,70.269 L277.059,74.784 L275.813,74.784 Z M284.33,67.581 C284.848,67.581 285.314,67.6673 285.73,67.84 C286.15,68.0127 286.504,68.2577 286.794,68.575 C287.088,68.8923 287.312,69.2773 287.466,69.73 C287.624,70.178 287.704,70.6797 287.704,71.235 C287.704,71.795 287.624,72.299 287.466,72.747 C287.312,73.195 287.088,73.5777 286.794,73.895 C286.504,74.2123 286.15,74.4573 285.73,74.63 C285.314,74.798 284.848,74.882 284.33,74.882 C283.812,74.882 283.343,74.798 282.923,74.63 C282.507,74.4573 282.153,74.2123 281.859,73.895 C281.565,73.5777 281.338,73.195 281.18,72.747 C281.021,72.299 280.942,71.795 280.942,71.235 C280.942,70.6797 281.021,70.178 281.18,69.73 C281.338,69.2773 281.565,68.8923 281.859,68.575 C282.153,68.2577 282.507,68.0127 282.923,67.84 C283.343,67.6673 283.812,67.581 284.33,67.581 Z M284.33,73.909 C285.03,73.909 285.552,73.6757 285.898,73.209 C286.243,72.7377 286.416,72.082 286.416,71.242 C286.416,70.3973 286.243,69.7393 285.898,69.268 C285.552,68.7967 285.03,68.561 284.33,68.561 C283.975,68.561 283.667,68.6217 283.406,68.743 C283.144,68.8643 282.925,69.0393 282.748,69.268 C282.575,69.4967 282.444,69.779 282.356,70.115 C282.272,70.4463 282.23,70.822 282.23,71.242 C282.23,71.662 282.272,72.0377 282.356,72.369 C282.444,72.7003 282.575,72.9803 282.748,73.209 C282.925,73.433 283.144,73.6057 283.406,73.727 C283.667,73.8483 283.975,73.909 284.33,73.909 Z M290.625,67.693 L290.625,75.309 C290.625,75.5937 290.587,75.8573 290.513,76.1 C290.438,76.3473 290.319,76.562 290.156,76.744 C289.997,76.926 289.789,77.0683 289.533,77.171 C289.281,77.2783 288.977,77.332 288.623,77.332 C288.469,77.332 288.329,77.3203 288.203,77.297 C288.077,77.2737 287.951,77.2387 287.825,77.192 L287.881,76.52 C287.89,76.4593 287.911,76.4197 287.944,76.401 C287.976,76.387 288.028,76.38 288.098,76.38 C288.135,76.38 288.175,76.38 288.217,76.38 C288.259,76.3847 288.31,76.387 288.371,76.387 C288.735,76.387 288.994,76.3007 289.148,76.128 C289.302,75.96 289.379,75.687 289.379,75.309 L289.379,67.693 L290.625,67.693 Z M290.905,65.467 C290.905,65.5883 290.879,65.7027 290.828,65.81 C290.781,65.9127 290.716,66.006 290.632,66.09 C290.552,66.1693 290.459,66.2323 290.352,66.279 C290.244,66.3257 290.13,66.349 290.009,66.349 C289.887,66.349 289.773,66.3257 289.666,66.279 C289.563,66.2323 289.47,66.1693 289.386,66.09 C289.306,66.006 289.243,65.9127 289.197,65.81 C289.15,65.7027 289.127,65.5883 289.127,65.467 C289.127,65.3457 289.15,65.2313 289.197,65.124 C289.243,65.012 289.306,64.9163 289.386,64.837 C289.47,64.753 289.563,64.6877 289.666,64.641 C289.773,64.5943 289.887,64.571 290.009,64.571 C290.13,64.571 290.244,64.5943 290.352,64.641 C290.459,64.6877 290.552,64.753 290.632,64.837 C290.716,64.9163 290.781,65.012 290.828,65.124 C290.879,65.2313 290.905,65.3457 290.905,65.467 Z M295.6,67.581 C296.025,67.581 296.417,67.6533 296.776,67.798 C297.136,67.938 297.446,68.1433 297.707,68.414 C297.969,68.68 298.172,69.0113 298.316,69.408 C298.466,69.8 298.54,70.248 298.54,70.752 C298.54,70.948 298.519,71.0787 298.477,71.144 C298.435,71.2093 298.356,71.242 298.239,71.242 L293.521,71.242 C293.531,71.69 293.591,72.0797 293.703,72.411 C293.815,72.7423 293.969,73.02 294.165,73.244 C294.361,73.4633 294.595,73.629 294.865,73.741 C295.136,73.8483 295.439,73.902 295.775,73.902 C296.088,73.902 296.356,73.867 296.58,73.797 C296.809,73.7223 297.005,73.643 297.168,73.559 C297.332,73.475 297.467,73.398 297.574,73.328 C297.686,73.2533 297.782,73.216 297.861,73.216 C297.964,73.216 298.043,73.2557 298.099,73.335 L298.449,73.79 C298.295,73.9767 298.111,74.14 297.896,74.28 C297.682,74.4153 297.451,74.5273 297.203,74.616 C296.961,74.7047 296.709,74.77 296.447,74.812 C296.186,74.8587 295.927,74.882 295.67,74.882 C295.18,74.882 294.728,74.8003 294.312,74.637 C293.902,74.469 293.545,74.2263 293.241,73.909 C292.943,73.587 292.709,73.1903 292.541,72.719 C292.373,72.2477 292.289,71.7063 292.289,71.095 C292.289,70.6003 292.364,70.1383 292.513,69.709 C292.667,69.2797 292.887,68.9087 293.171,68.596 C293.456,68.2787 293.804,68.0313 294.214,67.854 C294.625,67.672 295.087,67.581 295.6,67.581 Z M295.628,68.498 C295.026,68.498 294.553,68.673 294.207,69.023 C293.862,69.3683 293.647,69.849 293.563,70.465 L297.42,70.465 C297.42,70.1757 297.381,69.912 297.301,69.674 C297.222,69.4313 297.105,69.2237 296.951,69.051 C296.797,68.8737 296.608,68.7383 296.384,68.645 C296.165,68.547 295.913,68.498 295.628,68.498 Z M304.972,68.953 C304.935,69.0043 304.898,69.044 304.86,69.072 C304.823,69.1 304.769,69.114 304.699,69.114 C304.629,69.114 304.552,69.086 304.468,69.03 C304.389,68.9693 304.286,68.904 304.16,68.834 C304.034,68.764 303.88,68.701 303.698,68.645 C303.521,68.5843 303.302,68.554 303.04,68.554 C302.695,68.554 302.389,68.617 302.123,68.743 C301.857,68.8643 301.633,69.0417 301.451,69.275 C301.274,69.5083 301.139,69.7907 301.045,70.122 C300.957,70.4533 300.912,70.8243 300.912,71.235 C300.912,71.6643 300.961,72.047 301.059,72.383 C301.157,72.7143 301.295,72.9943 301.472,73.223 C301.65,73.447 301.864,73.6197 302.116,73.741 C302.373,73.8577 302.66,73.916 302.977,73.916 C303.281,73.916 303.53,73.881 303.726,73.811 C303.922,73.7363 304.086,73.6547 304.216,73.566 C304.347,73.4773 304.454,73.398 304.538,73.328 C304.622,73.2533 304.706,73.216 304.79,73.216 C304.898,73.216 304.977,73.2557 305.028,73.335 L305.378,73.79 C305.07,74.168 304.685,74.4457 304.223,74.623 C303.761,74.7957 303.274,74.882 302.76,74.882 C302.317,74.882 301.904,74.8003 301.521,74.637 C301.143,74.4737 300.814,74.238 300.534,73.93 C300.254,73.6173 300.033,73.2347 299.869,72.782 C299.711,72.3293 299.631,71.8137 299.631,71.235 C299.631,70.7077 299.704,70.22 299.848,69.772 C299.998,69.324 300.212,68.939 300.492,68.617 C300.777,68.2903 301.127,68.036 301.542,67.854 C301.958,67.672 302.434,67.581 302.97,67.581 C303.465,67.581 303.904,67.6627 304.286,67.826 C304.669,67.9847 305.007,68.211 305.301,68.505 L304.972,68.953 Z M308.819,74.896 C308.259,74.896 307.828,74.7397 307.524,74.427 C307.226,74.1143 307.076,73.664 307.076,73.076 L307.076,68.736 L306.222,68.736 C306.148,68.736 306.085,68.715 306.033,68.673 C305.982,68.6263 305.956,68.5563 305.956,68.463 L305.956,67.966 L307.118,67.819 L307.405,65.628 C307.415,65.558 307.445,65.502 307.496,65.46 C307.548,65.4133 307.613,65.39 307.692,65.39 L308.322,65.39 L308.322,67.833 L310.352,67.833 L310.352,68.736 L308.322,68.736 L308.322,72.992 C308.322,73.2907 308.395,73.5123 308.539,73.657 C308.684,73.8017 308.871,73.874 309.099,73.874 C309.23,73.874 309.342,73.8577 309.435,73.825 C309.533,73.7877 309.617,73.748 309.687,73.706 C309.757,73.664 309.816,73.6267 309.862,73.594 C309.914,73.5567 309.958,73.538 309.995,73.538 C310.061,73.538 310.119,73.5777 310.17,73.657 L310.534,74.252 C310.32,74.4527 310.061,74.6113 309.757,74.728 C309.454,74.84 309.141,74.896 308.819,74.896 Z M319.591,74.784 C319.414,74.784 319.302,74.6977 319.255,74.525 L319.143,73.664 C318.84,74.0327 318.492,74.329 318.1,74.553 C317.713,74.7723 317.267,74.882 316.763,74.882 C316.357,74.882 315.988,74.805 315.657,74.651 C315.326,74.4923 315.043,74.2613 314.81,73.958 C314.577,73.6547 314.397,73.2767 314.271,72.824 C314.145,72.3713 314.082,71.851 314.082,71.263 C314.082,70.7403 314.152,70.255 314.292,69.807 C314.432,69.3543 314.633,68.9623 314.894,68.631 C315.16,68.2997 315.482,68.0407 315.86,67.854 C316.238,67.6627 316.667,67.567 317.148,67.567 C317.582,67.567 317.953,67.6417 318.261,67.791 C318.569,67.9357 318.844,68.141 319.087,68.407 L319.087,64.473 L320.333,64.473 L320.333,74.784 L319.591,74.784 Z M317.176,73.874 C317.582,73.874 317.937,73.7807 318.24,73.594 C318.548,73.4073 318.83,73.1437 319.087,72.803 L319.087,69.373 C318.858,69.065 318.606,68.8503 318.331,68.729 C318.06,68.603 317.759,68.54 317.428,68.54 C316.765,68.54 316.257,68.7757 315.902,69.247 C315.547,69.7183 315.37,70.3903 315.37,71.263 C315.37,71.725 315.41,72.1217 315.489,72.453 C315.568,72.7797 315.685,73.0503 315.839,73.265 C315.993,73.475 316.182,73.629 316.406,73.727 C316.63,73.825 316.887,73.874 317.176,73.874 Z M327.628,74.784 L327.075,74.784 C326.954,74.784 326.856,74.7653 326.781,74.728 C326.707,74.6907 326.658,74.6113 326.634,74.49 L326.494,73.832 C326.308,74 326.126,74.1517 325.948,74.287 C325.771,74.4177 325.584,74.5297 325.388,74.623 C325.192,74.7117 324.982,74.7793 324.758,74.826 C324.539,74.8727 324.294,74.896 324.023,74.896 C323.748,74.896 323.489,74.8587 323.246,74.784 C323.008,74.7047 322.801,74.588 322.623,74.434 C322.446,74.28 322.304,74.0863 322.196,73.853 C322.094,73.615 322.042,73.335 322.042,73.013 C322.042,72.733 322.119,72.4647 322.273,72.208 C322.427,71.9467 322.675,71.7157 323.015,71.515 C323.361,71.3143 323.811,71.151 324.366,71.025 C324.922,70.8943 325.601,70.8197 326.403,70.801 L326.403,70.248 C326.403,69.6973 326.284,69.282 326.046,69.002 C325.813,68.7173 325.465,68.575 325.003,68.575 C324.7,68.575 324.443,68.6147 324.233,68.694 C324.028,68.7687 323.848,68.855 323.694,68.953 C323.545,69.0463 323.414,69.1327 323.302,69.212 C323.195,69.2867 323.088,69.324 322.98,69.324 C322.896,69.324 322.822,69.303 322.756,69.261 C322.696,69.2143 322.647,69.1583 322.609,69.093 L322.385,68.694 C322.777,68.316 323.2,68.0337 323.652,67.847 C324.105,67.6603 324.607,67.567 325.157,67.567 C325.554,67.567 325.906,67.6323 326.214,67.763 C326.522,67.8937 326.781,68.0757 326.991,68.309 C327.201,68.5423 327.36,68.8247 327.467,69.156 C327.575,69.4873 327.628,69.8513 327.628,70.248 L327.628,74.784 Z M324.394,74.021 C324.614,74.021 324.814,74 324.996,73.958 C325.178,73.9113 325.349,73.8483 325.507,73.769 C325.671,73.685 325.825,73.5847 325.969,73.468 C326.119,73.3513 326.263,73.2183 326.403,73.069 L326.403,71.592 C325.829,71.6107 325.342,71.6573 324.94,71.732 C324.539,71.802 324.212,71.8953 323.96,72.012 C323.708,72.1287 323.524,72.2663 323.407,72.425 C323.295,72.5837 323.239,72.761 323.239,72.957 C323.239,73.1437 323.27,73.3047 323.33,73.44 C323.391,73.5753 323.473,73.6873 323.575,73.776 C323.678,73.86 323.799,73.923 323.939,73.965 C324.079,74.0023 324.231,74.021 324.394,74.021 Z M331.665,74.896 C331.105,74.896 330.673,74.7397 330.37,74.427 C330.071,74.1143 329.922,73.664 329.922,73.076 L329.922,68.736 L329.068,68.736 C328.993,68.736 328.93,68.715 328.879,68.673 C328.828,68.6263 328.802,68.5563 328.802,68.463 L328.802,67.966 L329.964,67.819 L330.251,65.628 C330.26,65.558 330.291,65.502 330.342,65.46 C330.393,65.4133 330.459,65.39 330.538,65.39 L331.168,65.39 L331.168,67.833 L333.198,67.833 L333.198,68.736 L331.168,68.736 L331.168,72.992 C331.168,73.2907 331.24,73.5123 331.385,73.657 C331.53,73.8017 331.716,73.874 331.945,73.874 C332.076,73.874 332.188,73.8577 332.281,73.825 C332.379,73.7877 332.463,73.748 332.533,73.706 C332.603,73.664 332.661,73.6267 332.708,73.594 C332.759,73.5567 332.804,73.538 332.841,73.538 C332.906,73.538 332.965,73.5777 333.016,73.657 L333.38,74.252 C333.165,74.4527 332.906,74.6113 332.603,74.728 C332.3,74.84 331.987,74.896 331.665,74.896 Z M339.947,74.784 L339.394,74.784 C339.272,74.784 339.174,74.7653 339.1,74.728 C339.025,74.6907 338.976,74.6113 338.953,74.49 L338.813,73.832 C338.626,74 338.444,74.1517 338.267,74.287 C338.089,74.4177 337.903,74.5297 337.707,74.623 C337.511,74.7117 337.301,74.7793 337.077,74.826 C336.857,74.8727 336.612,74.896 336.342,74.896 C336.066,74.896 335.807,74.8587 335.565,74.784 C335.327,74.7047 335.119,74.588 334.942,74.434 C334.764,74.28 334.622,74.0863 334.515,73.853 C334.412,73.615 334.361,73.335 334.361,73.013 C334.361,72.733 334.438,72.4647 334.592,72.208 C334.746,71.9467 334.993,71.7157 335.334,71.515 C335.679,71.3143 336.129,71.151 336.685,71.025 C337.24,70.8943 337.919,70.8197 338.722,70.801 L338.722,70.248 C338.722,69.6973 338.603,69.282 338.365,69.002 C338.131,68.7173 337.784,68.575 337.322,68.575 C337.018,68.575 336.762,68.6147 336.552,68.694 C336.346,68.7687 336.167,68.855 336.013,68.953 C335.863,69.0463 335.733,69.1327 335.621,69.212 C335.513,69.2867 335.406,69.324 335.299,69.324 C335.215,69.324 335.14,69.303 335.075,69.261 C335.014,69.2143 334.965,69.1583 334.928,69.093 L334.704,68.694 C335.096,68.316 335.518,68.0337 335.971,67.847 C336.423,67.6603 336.925,67.567 337.476,67.567 C337.872,67.567 338.225,67.6323 338.533,67.763 C338.841,67.8937 339.1,68.0757 339.31,68.309 C339.52,68.5423 339.678,68.8247 339.786,69.156 C339.893,69.4873 339.947,69.8513 339.947,70.248 L339.947,74.784 Z M336.713,74.021 C336.932,74.021 337.133,74 337.315,73.958 C337.497,73.9113 337.667,73.8483 337.826,73.769 C337.989,73.685 338.143,73.5847 338.288,73.468 C338.437,73.3513 338.582,73.2183 338.722,73.069 L338.722,71.592 C338.148,71.6107 337.66,71.6573 337.259,71.732 C336.857,71.802 336.531,71.8953 336.279,72.012 C336.027,72.1287 335.842,72.2663 335.726,72.425 C335.614,72.5837 335.558,72.761 335.558,72.957 C335.558,73.1437 335.588,73.3047 335.649,73.44 C335.709,73.5753 335.791,73.6873 335.894,73.776 C335.996,73.86 336.118,73.923 336.258,73.965 C336.398,74.0023 336.549,74.021 336.713,74.021 Z M341.429,74.014 C341.429,73.8927 341.45,73.7783 341.492,73.671 C341.538,73.5637 341.599,73.4703 341.674,73.391 C341.753,73.3117 341.846,73.2487 341.954,73.202 C342.061,73.1553 342.175,73.132 342.297,73.132 C342.418,73.132 342.532,73.1553 342.64,73.202 C342.747,73.2487 342.84,73.3117 342.92,73.391 C342.999,73.4703 343.06,73.5637 343.102,73.671 C343.148,73.7783 343.172,73.8927 343.172,74.014 C343.172,74.14 343.148,74.2567 343.102,74.364 C343.06,74.4667 342.999,74.5577 342.92,74.637 C342.84,74.7163 342.747,74.777 342.64,74.819 C342.532,74.8657 342.418,74.889 342.297,74.889 C342.175,74.889 342.061,74.8657 341.954,74.819 C341.846,74.777 341.753,74.7163 341.674,74.637 C341.599,74.5577 341.538,74.4667 341.492,74.364 C341.45,74.2567 341.429,74.14 341.429,74.014 Z" id="Shape" fill="#FFFFFF" fill-rule="nonzero"></path>
            <path d="M501,75.284 C492.44,75.284 485.5,68.3444 485.5,59.784 C485.5,51.2236 492.44,44.284 501,44.284 C509.56,44.284 516.5,51.2236 516.5,59.784 C516.5,68.3444 509.56,75.284 501,75.284 Z" id="Path" stroke="#FFFFFF"></path>
            <path d="M496.543,55.3268 C496.872,54.998 497.405,54.998 497.734,55.3268 L506.07,63.6633 C506.399,63.9921 506.399,64.5253 506.07,64.8542 C505.741,65.183 505.208,65.183 504.879,64.8542 L496.543,56.5178 C496.214,56.1889 496.214,55.6557 496.543,55.3268 Z" id="Path" fill="#FFFFFF"></path>
            <path d="M506.07,55.3268 C505.741,54.998 505.208,54.998 504.879,55.3268 L496.543,63.6633 C496.214,63.9921 496.214,64.5253 496.543,64.8542 C496.872,65.183 497.405,65.183 497.734,64.8542 L506.07,56.5178 C506.399,56.1889 506.399,55.6557 506.07,55.3268 Z" id="Path" fill="#FFFFFF"></path>
            <path d="M209.032,7.64 C209.107,7.768 209.171,7.904 209.224,8.048 C209.283,8.1867 209.339,8.328 209.392,8.472 C209.445,8.3227 209.501,8.1813 209.56,8.048 C209.619,7.9093 209.685,7.7707 209.76,7.632 L213.64,0.584 C213.709,0.46133 213.781,0.38667 213.856,0.36 C213.931,0.33333 214.037,0.32 214.176,0.32 L215.32,0.32 L215.32,11.784 L213.96,11.784 L213.96,3.36 C213.96,3.248 213.963,3.128 213.968,3 C213.973,2.872 213.981,2.74133 213.992,2.608 L210.064,9.776 C209.931,10.016 209.744,10.136 209.504,10.136 L209.28,10.136 C209.04,10.136 208.853,10.016 208.72,9.776 L204.704,2.584 C204.72,2.72267 204.731,2.85867 204.736,2.992 C204.747,3.12533 204.752,3.248 204.752,3.36 L204.752,11.784 L203.392,11.784 L203.392,0.32 L204.536,0.32 C204.675,0.32 204.781,0.33333 204.856,0.36 C204.931,0.38667 205.003,0.46133 205.072,0.584 L209.032,7.64 Z M223.839,11.784 L223.207,11.784 C223.068,11.784 222.956,11.7627 222.871,11.72 C222.785,11.6773 222.729,11.5867 222.703,11.448 L222.543,10.696 C222.329,10.888 222.121,11.0613 221.919,11.216 C221.716,11.3653 221.503,11.4933 221.279,11.6 C221.055,11.7013 220.815,11.7787 220.559,11.832 C220.308,11.8853 220.028,11.912 219.719,11.912 C219.404,11.912 219.108,11.8693 218.831,11.784 C218.559,11.6933 218.321,11.56 218.119,11.384 C217.916,11.208 217.753,10.9867 217.631,10.72 C217.513,10.448 217.455,10.128 217.455,9.76 C217.455,9.44 217.543,9.1333 217.719,8.84 C217.895,8.5413 218.177,8.2773 218.567,8.048 C218.961,7.8187 219.476,7.632 220.111,7.488 C220.745,7.3387 221.521,7.2533 222.439,7.232 L222.439,6.6 C222.439,5.9707 222.303,5.496 222.031,5.176 C221.764,4.85067 221.367,4.688 220.839,4.688 C220.492,4.688 220.199,4.73333 219.959,4.824 C219.724,4.90933 219.519,5.008 219.343,5.12 C219.172,5.22667 219.023,5.32533 218.895,5.416 C218.772,5.50133 218.649,5.544 218.527,5.544 C218.431,5.544 218.345,5.52 218.271,5.472 C218.201,5.41867 218.145,5.35467 218.103,5.28 L217.847,4.824 C218.295,4.392 218.777,4.06933 219.295,3.856 C219.812,3.64267 220.385,3.536 221.015,3.536 C221.468,3.536 221.871,3.61067 222.223,3.76 C222.575,3.90933 222.871,4.11733 223.111,4.384 C223.351,4.65067 223.532,4.97333 223.655,5.352 C223.777,5.73067 223.839,6.1467 223.839,6.6 L223.839,11.784 Z M220.143,10.912 C220.393,10.912 220.623,10.888 220.831,10.84 C221.039,10.7867 221.233,10.7147 221.415,10.624 C221.601,10.528 221.777,10.4133 221.943,10.28 C222.113,10.1467 222.279,9.9947 222.439,9.824 L222.439,8.136 C221.783,8.1573 221.225,8.2107 220.767,8.296 C220.308,8.376 219.935,8.4827 219.647,8.616 C219.359,8.7493 219.148,8.9067 219.015,9.088 C218.887,9.2693 218.823,9.472 218.823,9.696 C218.823,9.9093 218.857,10.0933 218.927,10.248 C218.996,10.4027 219.089,10.5307 219.207,10.632 C219.324,10.728 219.463,10.8 219.623,10.848 C219.783,10.8907 219.956,10.912 220.143,10.912 Z M227.892,7.632 L225.164,3.68 L226.532,3.68 C226.649,3.68 226.735,3.69867 226.788,3.736 C226.841,3.77333 226.889,3.82667 226.932,3.896 L228.916,6.936 C228.964,6.7867 229.033,6.6373 229.124,6.488 L230.868,3.928 C230.921,3.85333 230.975,3.79467 231.028,3.752 C231.081,3.704 231.148,3.68 231.228,3.68 L232.54,3.68 L229.812,7.552 L232.652,11.784 L231.284,11.784 C231.167,11.784 231.073,11.7547 231.004,11.696 C230.94,11.632 230.887,11.5627 230.844,11.488 L228.804,8.312 C228.767,8.4667 228.711,8.6053 228.636,8.728 L226.748,11.488 C226.695,11.5627 226.636,11.632 226.572,11.696 C226.513,11.7547 226.431,11.784 226.324,11.784 L225.052,11.784 L227.892,7.632 Z M236.096,3.68 L237.216,3.68 C237.334,3.68 237.43,3.70933 237.504,3.768 C237.579,3.82667 237.63,3.896 237.656,3.976 L239.208,9.192 C239.251,9.384 239.291,9.5707 239.328,9.752 C239.366,9.928 239.398,10.1067 239.424,10.288 C239.467,10.1067 239.515,9.928 239.568,9.752 C239.622,9.5707 239.678,9.384 239.736,9.192 L241.448,3.944 C241.475,3.864 241.52,3.79733 241.584,3.744 C241.654,3.69067 241.739,3.664 241.84,3.664 L242.456,3.664 C242.563,3.664 242.651,3.69067 242.72,3.744 C242.79,3.79733 242.838,3.864 242.864,3.944 L244.536,9.192 C244.595,9.3787 244.646,9.5627 244.688,9.744 C244.736,9.9253 244.782,10.104 244.824,10.28 C244.851,10.104 244.886,9.92 244.928,9.728 C244.971,9.536 245.016,9.3573 245.064,9.192 L246.648,3.976 C246.675,3.89067 246.726,3.82133 246.8,3.768 C246.875,3.70933 246.963,3.68 247.064,3.68 L248.136,3.68 L245.512,11.784 L244.384,11.784 C244.246,11.784 244.15,11.6933 244.096,11.512 L242.304,6.016 C242.262,5.8933 242.227,5.77067 242.2,5.648 C242.174,5.52 242.147,5.39467 242.12,5.272 C242.094,5.39467 242.067,5.52 242.04,5.648 C242.014,5.776 241.979,5.9013 241.936,6.024 L240.12,11.512 C240.062,11.6933 239.952,11.784 239.792,11.784 L238.72,11.784 L236.096,3.68 Z M250.986,3.68 L250.986,11.784 L249.562,11.784 L249.562,3.68 L250.986,3.68 Z M251.306,1.136 C251.306,1.27467 251.277,1.40533 251.218,1.528 C251.165,1.64533 251.09,1.752 250.994,1.848 C250.904,1.93867 250.797,2.01067 250.674,2.064 C250.552,2.11733 250.421,2.144 250.282,2.144 C250.144,2.144 250.013,2.11733 249.89,2.064 C249.773,2.01067 249.666,1.93867 249.57,1.848 C249.48,1.752 249.408,1.64533 249.354,1.528 C249.301,1.40533 249.274,1.27467 249.274,1.136 C249.274,0.99733 249.301,0.86667 249.354,0.744 C249.408,0.616 249.48,0.50667 249.57,0.416 C249.666,0.32 249.773,0.24533 249.89,0.192 C250.013,0.13867 250.144,0.112 250.282,0.112 C250.421,0.112 250.552,0.13867 250.674,0.192 C250.797,0.24533 250.904,0.32 250.994,0.416 C251.09,0.50667 251.165,0.616 251.218,0.744 C251.277,0.86667 251.306,0.99733 251.306,1.136 Z M259.2,11.784 C258.997,11.784 258.869,11.6853 258.816,11.488 L258.688,10.504 C258.341,10.9253 257.944,11.264 257.496,11.52 C257.053,11.7707 256.544,11.896 255.968,11.896 C255.504,11.896 255.083,11.808 254.704,11.632 C254.325,11.4507 254.003,11.1867 253.736,10.84 C253.469,10.4933 253.264,10.0613 253.12,9.544 C252.976,9.0267 252.904,8.432 252.904,7.76 C252.904,7.1627 252.984,6.608 253.144,6.096 C253.304,5.57867 253.533,5.13067 253.832,4.752 C254.136,4.37333 254.504,4.07733 254.936,3.864 C255.368,3.64533 255.859,3.536 256.408,3.536 C256.904,3.536 257.328,3.62133 257.68,3.792 C258.032,3.95733 258.347,4.192 258.624,4.496 L258.624,0 L260.048,0 L260.048,11.784 L259.2,11.784 Z M256.44,10.744 C256.904,10.744 257.309,10.6373 257.656,10.424 C258.008,10.2107 258.331,9.9093 258.624,9.52 L258.624,5.6 C258.363,5.248 258.075,5.00267 257.76,4.864 C257.451,4.72 257.107,4.648 256.728,4.648 C255.971,4.648 255.389,4.91733 254.984,5.456 C254.579,5.9947 254.376,6.7627 254.376,7.76 C254.376,8.288 254.421,8.7413 254.512,9.12 C254.603,9.4933 254.736,9.8027 254.912,10.048 C255.088,10.288 255.304,10.464 255.56,10.576 C255.816,10.688 256.109,10.744 256.44,10.744 Z M264.89,11.912 C264.25,11.912 263.756,11.7333 263.41,11.376 C263.068,11.0187 262.898,10.504 262.898,9.832 L262.898,4.872 L261.922,4.872 C261.836,4.872 261.764,4.848 261.706,4.8 C261.647,4.74667 261.618,4.66667 261.618,4.56 L261.618,3.992 L262.946,3.824 L263.274,1.32 C263.284,1.24 263.319,1.176 263.378,1.128 C263.436,1.07467 263.511,1.048 263.602,1.048 L264.322,1.048 L264.322,3.84 L266.642,3.84 L266.642,4.872 L264.322,4.872 L264.322,9.736 C264.322,10.0773 264.404,10.3307 264.57,10.496 C264.735,10.6613 264.948,10.744 265.21,10.744 C265.359,10.744 265.487,10.7253 265.594,10.688 C265.706,10.6453 265.802,10.6 265.882,10.552 C265.962,10.504 266.028,10.4613 266.082,10.424 C266.14,10.3813 266.191,10.36 266.234,10.36 C266.308,10.36 266.375,10.4053 266.434,10.496 L266.85,11.176 C266.604,11.4053 266.308,11.5867 265.962,11.72 C265.615,11.848 265.258,11.912 264.89,11.912 Z M268.402,11.784 L268.402,0 L269.826,0 L269.826,4.768 C270.173,4.4 270.557,4.10667 270.978,3.888 C271.4,3.664 271.885,3.552 272.434,3.552 C272.877,3.552 273.266,3.62667 273.602,3.776 C273.944,3.92 274.226,4.128 274.45,4.4 C274.68,4.66667 274.853,4.98933 274.97,5.368 C275.088,5.74667 275.146,6.1653 275.146,6.624 L275.146,11.784 L273.722,11.784 L273.722,6.624 C273.722,6.0107 273.581,5.536 273.298,5.2 C273.021,4.85867 272.594,4.688 272.018,4.688 C271.597,4.688 271.202,4.78933 270.834,4.992 C270.472,5.19467 270.136,5.46933 269.826,5.816 L269.826,11.784 L268.402,11.784 Z M277.149,10.904 C277.149,10.7653 277.173,10.6347 277.221,10.512 C277.274,10.3893 277.344,10.2827 277.429,10.192 C277.52,10.1013 277.626,10.0293 277.749,9.976 C277.872,9.9227 278.002,9.896 278.141,9.896 C278.28,9.896 278.41,9.9227 278.533,9.976 C278.656,10.0293 278.762,10.1013 278.853,10.192 C278.944,10.2827 279.013,10.3893 279.061,10.512 C279.114,10.6347 279.141,10.7653 279.141,10.904 C279.141,11.048 279.114,11.1813 279.061,11.304 C279.013,11.4213 278.944,11.5253 278.853,11.616 C278.762,11.7067 278.656,11.776 278.533,11.824 C278.41,11.8773 278.28,11.904 278.141,11.904 C278.002,11.904 277.872,11.8773 277.749,11.824 C277.626,11.776 277.52,11.7067 277.429,11.616 C277.344,11.5253 277.274,11.4213 277.221,11.304 C277.173,11.1813 277.149,11.048 277.149,10.904 Z M277.149,4.904 C277.149,4.76533 277.173,4.63467 277.221,4.512 C277.274,4.38933 277.344,4.28267 277.429,4.192 C277.52,4.10133 277.626,4.02933 277.749,3.976 C277.872,3.92267 278.002,3.896 278.141,3.896 C278.28,3.896 278.41,3.92267 278.533,3.976 C278.656,4.02933 278.762,4.10133 278.853,4.192 C278.944,4.28267 279.013,4.38933 279.061,4.512 C279.114,4.63467 279.141,4.76533 279.141,4.904 C279.141,5.048 279.114,5.18133 279.061,5.304 C279.013,5.42133 278.944,5.52533 278.853,5.616 C278.762,5.70667 278.656,5.77867 278.533,5.832 C278.41,5.88 278.28,5.904 278.141,5.904 C278.002,5.904 277.872,5.88 277.749,5.832 C277.626,5.77867 277.52,5.70667 277.429,5.616 C277.344,5.52533 277.274,5.42133 277.221,5.304 C277.173,5.18133 277.149,5.048 277.149,4.904 Z M291.074,0.944 C291.074,1.14667 291.01,1.31467 290.882,1.448 C290.754,1.576 290.538,1.64 290.234,1.64 L286.634,1.64 L286.106,4.648 C286.703,4.52 287.255,4.456 287.762,4.456 C288.359,4.456 288.885,4.544 289.338,4.72 C289.797,4.896 290.181,5.13867 290.49,5.448 C290.799,5.75733 291.031,6.1227 291.186,6.544 C291.346,6.9653 291.426,7.424 291.426,7.92 C291.426,8.528 291.319,9.0773 291.106,9.568 C290.893,10.0587 290.599,10.48 290.226,10.832 C289.858,11.1787 289.423,11.4453 288.922,11.632 C288.421,11.8187 287.879,11.912 287.298,11.912 C286.962,11.912 286.639,11.8773 286.33,11.808 C286.021,11.744 285.733,11.656 285.466,11.544 C285.199,11.432 284.951,11.304 284.722,11.16 C284.493,11.016 284.29,10.864 284.114,10.704 L284.546,10.096 C284.642,9.9573 284.77,9.888 284.93,9.888 C285.031,9.888 285.149,9.9307 285.282,10.016 C285.421,10.096 285.586,10.1867 285.778,10.288 C285.97,10.3893 286.194,10.4827 286.45,10.568 C286.711,10.648 287.021,10.688 287.378,10.688 C287.778,10.688 288.138,10.624 288.458,10.496 C288.778,10.368 289.05,10.1867 289.274,9.952 C289.503,9.712 289.679,9.4267 289.802,9.096 C289.925,8.7653 289.986,8.3947 289.986,7.984 C289.986,7.6267 289.933,7.304 289.826,7.016 C289.725,6.728 289.567,6.4827 289.354,6.28 C289.146,6.0773 288.885,5.92 288.57,5.808 C288.255,5.696 287.887,5.64 287.466,5.64 C287.178,5.64 286.879,5.664 286.57,5.712 C286.261,5.76 285.941,5.8373 285.61,5.944 L284.714,5.68 L285.642,0.32 L291.074,0.32 L291.074,0.944 Z M297.491,0.192 C297.977,0.192 298.425,0.26133 298.835,0.4 C299.246,0.53867 299.598,0.736 299.891,0.992 C300.19,1.248 300.422,1.55733 300.587,1.92 C300.753,2.28267 300.835,2.68533 300.835,3.128 C300.835,3.49067 300.787,3.816 300.691,4.104 C300.601,4.38667 300.467,4.63733 300.291,4.856 C300.121,5.06933 299.913,5.25067 299.667,5.4 C299.422,5.54933 299.147,5.66933 298.843,5.76 C299.59,5.9573 300.15,6.288 300.523,6.752 C300.902,7.216 301.091,7.7973 301.091,8.496 C301.091,9.024 300.99,9.4987 300.787,9.92 C300.59,10.3413 300.318,10.7013 299.971,11 C299.625,11.2933 299.219,11.52 298.755,11.68 C298.297,11.8347 297.803,11.912 297.275,11.912 C296.667,11.912 296.147,11.8373 295.715,11.688 C295.283,11.5333 294.918,11.3227 294.619,11.056 C294.321,10.7893 294.075,10.4747 293.883,10.112 C293.691,9.744 293.529,9.3467 293.395,8.92 L294.003,8.664 C294.115,8.616 294.227,8.592 294.339,8.592 C294.446,8.592 294.539,8.616 294.619,8.664 C294.705,8.7067 294.769,8.776 294.811,8.872 C294.822,8.8933 294.833,8.9173 294.843,8.944 C294.854,8.9653 294.865,8.9893 294.875,9.016 C294.95,9.1707 295.041,9.3467 295.147,9.544 C295.254,9.736 295.398,9.9173 295.579,10.088 C295.761,10.2587 295.985,10.4027 296.251,10.52 C296.523,10.6373 296.859,10.696 297.259,10.696 C297.659,10.696 298.009,10.632 298.307,10.504 C298.611,10.3707 298.862,10.2 299.059,9.992 C299.262,9.784 299.414,9.552 299.515,9.296 C299.617,9.04 299.667,8.7867 299.667,8.536 C299.667,8.2267 299.625,7.944 299.539,7.688 C299.459,7.432 299.31,7.2107 299.091,7.024 C298.878,6.8373 298.579,6.6907 298.195,6.584 C297.817,6.4773 297.329,6.424 296.731,6.424 L296.731,5.392 C297.217,5.38667 297.63,5.33333 297.971,5.232 C298.318,5.13067 298.601,4.992 298.819,4.816 C299.038,4.64 299.195,4.42933 299.291,4.184 C299.393,3.93867 299.443,3.66667 299.443,3.368 C299.443,3.03733 299.39,2.74933 299.283,2.504 C299.182,2.25867 299.041,2.056 298.859,1.896 C298.678,1.736 298.462,1.616 298.211,1.536 C297.966,1.456 297.699,1.416 297.411,1.416 C297.123,1.416 296.857,1.45867 296.611,1.544 C296.366,1.62933 296.147,1.74933 295.955,1.904 C295.769,2.05333 295.611,2.23467 295.483,2.448 C295.355,2.656 295.259,2.88267 295.195,3.128 C295.153,3.28267 295.089,3.39467 295.003,3.464 C294.918,3.53333 294.809,3.568 294.675,3.568 C294.649,3.568 294.619,3.568 294.587,3.568 C294.561,3.56267 294.529,3.55733 294.491,3.552 L293.747,3.424 C293.822,2.90133 293.966,2.44 294.179,2.04 C294.393,1.63467 294.662,1.296 294.987,1.024 C295.318,0.752 295.694,0.54667 296.115,0.408 C296.542,0.264 297.001,0.192 297.491,0.192 Z M310.613,6.056 C310.613,7.0587 310.503,7.928 310.285,8.664 C310.071,9.3947 309.778,10 309.405,10.48 C309.031,10.96 308.589,11.3173 308.077,11.552 C307.57,11.7867 307.026,11.904 306.445,11.904 C305.858,11.904 305.311,11.7867 304.805,11.552 C304.303,11.3173 303.866,10.96 303.493,10.48 C303.119,10 302.826,9.3947 302.613,8.664 C302.399,7.928 302.293,7.0587 302.293,6.056 C302.293,5.05333 302.399,4.184 302.613,3.448 C302.826,2.712 303.119,2.104 303.493,1.624 C303.866,1.13867 304.303,0.77867 304.805,0.544 C305.311,0.30933 305.858,0.192 306.445,0.192 C307.026,0.192 307.57,0.30933 308.077,0.544 C308.589,0.77867 309.031,1.13867 309.405,1.624 C309.778,2.104 310.071,2.712 310.285,3.448 C310.503,4.184 310.613,5.05333 310.613,6.056 Z M309.133,6.056 C309.133,5.18133 309.058,4.448 308.909,3.856 C308.765,3.25867 308.567,2.77867 308.317,2.416 C308.071,2.05333 307.786,1.79467 307.461,1.64 C307.135,1.48 306.797,1.4 306.445,1.4 C306.093,1.4 305.754,1.48 305.429,1.64 C305.103,1.79467 304.818,2.05333 304.573,2.416 C304.327,2.77867 304.13,3.25867 303.981,3.856 C303.837,4.448 303.765,5.18133 303.765,6.056 C303.765,6.9307 303.837,7.664 303.981,8.256 C304.13,8.848 304.327,9.3253 304.573,9.688 C304.818,10.0507 305.103,10.312 305.429,10.472 C305.754,10.6267 306.093,10.704 306.445,10.704 C306.797,10.704 307.135,10.6267 307.461,10.472 C307.786,10.312 308.071,10.0507 308.317,9.688 C308.567,9.3253 308.765,8.848 308.909,8.256 C309.058,7.664 309.133,6.9307 309.133,6.056 Z M312.262,14.528 L312.262,3.68 L313.11,3.68 C313.312,3.68 313.44,3.77867 313.494,3.976 L313.614,4.936 C313.96,4.51467 314.355,4.176 314.798,3.92 C315.246,3.664 315.76,3.536 316.342,3.536 C316.806,3.536 317.227,3.62667 317.606,3.808 C317.984,3.984 318.307,4.248 318.574,4.6 C318.84,4.94667 319.046,5.37867 319.19,5.896 C319.334,6.4133 319.406,7.008 319.406,7.68 C319.406,8.2773 319.326,8.8347 319.166,9.352 C319.006,9.864 318.776,10.3093 318.478,10.688 C318.179,11.0613 317.811,11.3573 317.374,11.576 C316.942,11.7893 316.454,11.896 315.91,11.896 C315.408,11.896 314.979,11.8133 314.622,11.648 C314.27,11.4827 313.958,11.248 313.686,10.944 L313.686,14.528 L312.262,14.528 Z M315.87,4.688 C315.406,4.688 314.998,4.79467 314.646,5.008 C314.299,5.22133 313.979,5.52267 313.686,5.912 L313.686,9.832 C313.947,10.184 314.232,10.432 314.542,10.576 C314.856,10.72 315.206,10.792 315.59,10.792 C316.342,10.792 316.92,10.5227 317.326,9.984 C317.731,9.4453 317.934,8.6773 317.934,7.68 C317.934,7.152 317.886,6.6987 317.79,6.32 C317.699,5.9413 317.566,5.632 317.39,5.392 C317.214,5.14667 316.998,4.968 316.742,4.856 C316.486,4.744 316.195,4.688 315.87,4.688 Z M322.502,7.632 L319.774,3.68 L321.142,3.68 C321.259,3.68 321.344,3.69867 321.398,3.736 C321.451,3.77333 321.499,3.82667 321.542,3.896 L323.526,6.936 C323.574,6.7867 323.643,6.6373 323.734,6.488 L325.478,3.928 C325.531,3.85333 325.584,3.79467 325.638,3.752 C325.691,3.704 325.758,3.68 325.838,3.68 L327.15,3.68 L324.422,7.552 L327.262,11.784 L325.894,11.784 C325.776,11.784 325.683,11.7547 325.614,11.696 C325.55,11.632 325.496,11.5627 325.454,11.488 L323.414,8.312 C323.376,8.4667 323.32,8.6053 323.246,8.728 L321.358,11.488 C321.304,11.5627 321.246,11.632 321.182,11.696 C321.123,11.7547 321.04,11.784 320.934,11.784 L319.662,11.784 L322.502,7.632 Z" id="Shape" fill="#000000" fill-rule="nonzero"></path>
            <line x1="2" y1="7.284" x2="191" y2="7.284" id="Path" stroke="#FF7A00"></line>
            <circle id="Oval" fill="#FF7A00" fill-rule="nonzero" transform="translate(2.500000, 7.284000) scale(-1, 1) rotate(-180.000000) translate(-2.500000, -7.284000) " cx="2.5" cy="7.284" r="2.5"></circle>
            <line x1="339" y1="7.28400826" x2="528" y2="7.28400826" id="Path" stroke="#FF7A00" transform="translate(433.500000, 7.284008) scale(-1, 1) translate(-433.500000, -7.284008) "></line>
            <circle id="Oval" fill="#FF7A00" fill-rule="nonzero" transform="translate(527.500000, 7.284000) rotate(180.000000) translate(-527.500000, -7.284000) " cx="527.5" cy="7.284" r="2.5"></circle>
            <path d="M16,59.784 C16,50.9474 23.1634,43.784 32,43.784 L32,43.784 C40.8366,43.784 48,50.9474 48,59.784 L48,59.784 C48,68.6206 40.8366,75.784 32,75.784 L32,75.784 C23.1634,75.784 16,68.6206 16,59.784 L16,59.784 Z" id="Path" fill="#C2D95D" fill-rule="nonzero"></path>
            <line x1="29.8182" y1="66.3294" x2="40" y2="54.693" id="Path" stroke="#3F3F3F" stroke-width="2.5" stroke-linecap="round"></line>
            <polyline id="Path" stroke="#3F3F3F" stroke-width="2.5" stroke-linecap="round" points="24.7273 61.2386 26.1818 62.6931 29.0909 65.6022"></polyline>
        </g>
    </g>
</svg>