<svg width="593" height="286" viewBox="0 0 593 286" fill="none" xmlns="http://www.w3.org/2000/svg">
<rect x="0.5" y="0.5" width="592" height="285" rx="5.5" fill="white" stroke="#DBDBDB"/>
<path d="M1 7C1 3.68629 3.68629 1 7 1H586C589.314 1 592 3.68629 592 7V65H1V7Z" fill="#F8F8F8"/>
<line y1="213.5" x2="592" y2="213.5" stroke="#DBDBDB"/>
<rect x="494" y="230" width="74" height="38" rx="19" fill="#0064D1"/>
<path d="M520.839 251.632C520.925 251.632 521.002 251.667 521.071 251.736L521.679 252.4C521.21 252.944 520.639 253.368 519.967 253.672C519.301 253.976 518.495 254.128 517.551 254.128C516.725 254.128 515.975 253.987 515.303 253.704C514.631 253.416 514.058 253.016 513.583 252.504C513.109 251.987 512.741 251.368 512.479 250.648C512.218 249.928 512.087 249.136 512.087 248.272C512.087 247.408 512.226 246.616 512.503 245.896C512.786 245.176 513.181 244.557 513.687 244.04C514.194 243.523 514.799 243.123 515.503 242.84C516.213 242.552 516.994 242.408 517.847 242.408C518.69 242.408 519.415 242.539 520.023 242.8C520.637 243.061 521.181 243.416 521.655 243.864L521.151 244.576C521.114 244.629 521.071 244.675 521.023 244.712C520.975 244.744 520.906 244.76 520.815 244.76C520.746 244.76 520.671 244.736 520.591 244.688C520.517 244.635 520.426 244.571 520.319 244.496C520.213 244.421 520.087 244.341 519.943 244.256C519.799 244.171 519.629 244.091 519.431 244.016C519.234 243.941 519.005 243.88 518.743 243.832C518.482 243.779 518.181 243.752 517.839 243.752C517.226 243.752 516.663 243.859 516.151 244.072C515.645 244.28 515.207 244.579 514.839 244.968C514.471 245.357 514.183 245.832 513.975 246.392C513.773 246.952 513.671 247.579 513.671 248.272C513.671 248.987 513.773 249.624 513.975 250.184C514.183 250.744 514.463 251.219 514.815 251.608C515.173 251.992 515.594 252.285 516.079 252.488C516.565 252.691 517.087 252.792 517.647 252.792C517.989 252.792 518.295 252.773 518.567 252.736C518.839 252.693 519.09 252.629 519.319 252.544C519.554 252.459 519.77 252.352 519.967 252.224C520.17 252.091 520.373 251.933 520.575 251.752C520.666 251.672 520.754 251.632 520.839 251.632ZM525.072 242.216V254H523.648V242.216H525.072ZM530.862 245.768C531.454 245.768 531.987 245.867 532.462 246.064C532.942 246.261 533.347 246.541 533.678 246.904C534.014 247.267 534.27 247.707 534.446 248.224C534.627 248.736 534.718 249.309 534.718 249.944C534.718 250.584 534.627 251.16 534.446 251.672C534.27 252.184 534.014 252.621 533.678 252.984C533.347 253.347 532.942 253.627 532.462 253.824C531.987 254.016 531.454 254.112 530.862 254.112C530.27 254.112 529.734 254.016 529.254 253.824C528.779 253.627 528.374 253.347 528.038 252.984C527.702 252.621 527.443 252.184 527.262 251.672C527.081 251.16 526.99 250.584 526.99 249.944C526.99 249.309 527.081 248.736 527.262 248.224C527.443 247.707 527.702 247.267 528.038 246.904C528.374 246.541 528.779 246.261 529.254 246.064C529.734 245.867 530.27 245.768 530.862 245.768ZM530.862 253C531.662 253 532.259 252.733 532.654 252.2C533.049 251.661 533.246 250.912 533.246 249.952C533.246 248.987 533.049 248.235 532.654 247.696C532.259 247.157 531.662 246.888 530.862 246.888C530.457 246.888 530.105 246.957 529.806 247.096C529.507 247.235 529.257 247.435 529.054 247.696C528.857 247.957 528.707 248.28 528.606 248.664C528.51 249.043 528.462 249.472 528.462 249.952C528.462 250.432 528.51 250.861 528.606 251.24C528.707 251.619 528.857 251.939 529.054 252.2C529.257 252.456 529.507 252.653 529.806 252.792C530.105 252.931 530.457 253 530.862 253ZM541.113 247.232C541.049 247.349 540.95 247.408 540.817 247.408C540.737 247.408 540.646 247.379 540.545 247.32C540.443 247.261 540.318 247.197 540.169 247.128C540.025 247.053 539.851 246.987 539.649 246.928C539.446 246.864 539.206 246.832 538.929 246.832C538.689 246.832 538.473 246.864 538.281 246.928C538.089 246.987 537.923 247.069 537.785 247.176C537.651 247.283 537.547 247.408 537.473 247.552C537.403 247.691 537.369 247.843 537.369 248.008C537.369 248.216 537.427 248.389 537.545 248.528C537.667 248.667 537.827 248.787 538.025 248.888C538.222 248.989 538.446 249.08 538.697 249.16C538.947 249.235 539.203 249.317 539.465 249.408C539.731 249.493 539.99 249.589 540.241 249.696C540.491 249.803 540.715 249.936 540.913 250.096C541.11 250.256 541.267 250.453 541.385 250.688C541.507 250.917 541.569 251.195 541.569 251.52C541.569 251.893 541.502 252.24 541.369 252.56C541.235 252.875 541.038 253.149 540.777 253.384C540.515 253.613 540.195 253.795 539.817 253.928C539.438 254.061 539.001 254.128 538.505 254.128C537.939 254.128 537.427 254.037 536.969 253.856C536.51 253.669 536.121 253.432 535.801 253.144L536.137 252.6C536.179 252.531 536.23 252.477 536.289 252.44C536.347 252.403 536.425 252.384 536.521 252.384C536.617 252.384 536.718 252.421 536.825 252.496C536.931 252.571 537.059 252.653 537.209 252.744C537.363 252.835 537.547 252.917 537.761 252.992C537.979 253.067 538.251 253.104 538.577 253.104C538.854 253.104 539.097 253.069 539.305 253C539.513 252.925 539.686 252.827 539.825 252.704C539.963 252.581 540.065 252.44 540.129 252.28C540.198 252.12 540.233 251.949 540.233 251.768C540.233 251.544 540.171 251.36 540.049 251.216C539.931 251.067 539.774 250.941 539.577 250.84C539.379 250.733 539.153 250.643 538.897 250.568C538.646 250.488 538.387 250.405 538.121 250.32C537.859 250.235 537.601 250.139 537.345 250.032C537.094 249.92 536.87 249.781 536.673 249.616C536.475 249.451 536.315 249.248 536.193 249.008C536.075 248.763 536.017 248.467 536.017 248.12C536.017 247.811 536.081 247.515 536.209 247.232C536.337 246.944 536.523 246.693 536.769 246.48C537.014 246.261 537.315 246.088 537.673 245.96C538.03 245.832 538.438 245.768 538.897 245.768C539.43 245.768 539.907 245.853 540.329 246.024C540.755 246.189 541.123 246.419 541.433 246.712L541.113 247.232ZM546.618 245.768C547.104 245.768 547.552 245.851 547.962 246.016C548.373 246.176 548.728 246.411 549.026 246.72C549.325 247.024 549.557 247.403 549.722 247.856C549.893 248.304 549.978 248.816 549.978 249.392C549.978 249.616 549.954 249.765 549.906 249.84C549.858 249.915 549.768 249.952 549.634 249.952H544.242C544.253 250.464 544.322 250.909 544.45 251.288C544.578 251.667 544.754 251.984 544.978 252.24C545.202 252.491 545.469 252.68 545.778 252.808C546.088 252.931 546.434 252.992 546.818 252.992C547.176 252.992 547.482 252.952 547.738 252.872C548 252.787 548.224 252.696 548.41 252.6C548.597 252.504 548.752 252.416 548.874 252.336C549.002 252.251 549.112 252.208 549.202 252.208C549.32 252.208 549.41 252.253 549.474 252.344L549.874 252.864C549.698 253.077 549.488 253.264 549.242 253.424C548.997 253.579 548.733 253.707 548.45 253.808C548.173 253.909 547.885 253.984 547.586 254.032C547.288 254.085 546.992 254.112 546.698 254.112C546.138 254.112 545.621 254.019 545.146 253.832C544.677 253.64 544.269 253.363 543.922 253C543.581 252.632 543.314 252.179 543.122 251.64C542.93 251.101 542.834 250.483 542.834 249.784C542.834 249.219 542.92 248.691 543.09 248.2C543.266 247.709 543.517 247.285 543.842 246.928C544.168 246.565 544.565 246.283 545.034 246.08C545.504 245.872 546.032 245.768 546.618 245.768ZM546.65 246.816C545.962 246.816 545.421 247.016 545.026 247.416C544.632 247.811 544.386 248.36 544.29 249.064H548.698C548.698 248.733 548.653 248.432 548.562 248.16C548.472 247.883 548.338 247.645 548.162 247.448C547.986 247.245 547.77 247.091 547.514 246.984C547.264 246.872 546.976 246.816 546.65 246.816Z" fill="white"/>
<path d="M34.08 26.91C34.02 27.01 33.9567 27.0867 33.89 27.14C33.8233 27.1867 33.7367 27.21 33.63 27.21C33.5167 27.21 33.3833 27.1533 33.23 27.04C33.0833 26.9267 32.8933 26.8033 32.66 26.67C32.4333 26.53 32.1567 26.4033 31.83 26.29C31.51 26.1767 31.12 26.12 30.66 26.12C30.2267 26.12 29.8433 26.18 29.51 26.3C29.1767 26.4133 28.8967 26.57 28.67 26.77C28.45 26.97 28.2833 27.2067 28.17 27.48C28.0567 27.7467 28 28.0367 28 28.35C28 28.75 28.0967 29.0833 28.29 29.35C28.49 29.61 28.75 29.8333 29.07 30.02C29.3967 30.2067 29.7633 30.37 30.17 30.51C30.5833 30.6433 31.0033 30.7833 31.43 30.93C31.8633 31.0767 32.2833 31.2433 32.69 31.43C33.1033 31.61 33.47 31.84 33.79 32.12C34.1167 32.4 34.3767 32.7433 34.57 33.15C34.77 33.5567 34.87 34.0567 34.87 34.65C34.87 35.2767 34.7633 35.8667 34.55 36.42C34.3367 36.9667 34.0233 37.4433 33.61 37.85C33.2033 38.2567 32.7 38.5767 32.1 38.81C31.5067 39.0433 30.83 39.16 30.07 39.16C29.1433 39.16 28.2967 38.9933 27.53 38.66C26.77 38.32 26.12 37.8633 25.58 37.29L26.14 36.37C26.1933 36.2967 26.2567 36.2367 26.33 36.19C26.41 36.1367 26.4967 36.11 26.59 36.11C26.73 36.11 26.89 36.1867 27.07 36.34C27.25 36.4867 27.4733 36.65 27.74 36.83C28.0133 37.01 28.34 37.1767 28.72 37.33C29.1067 37.4767 29.5767 37.55 30.13 37.55C30.59 37.55 31 37.4867 31.36 37.36C31.72 37.2333 32.0233 37.0567 32.27 36.83C32.5233 36.5967 32.7167 36.32 32.85 36C32.9833 35.68 33.05 35.3233 33.05 34.93C33.05 34.4967 32.95 34.1433 32.75 33.87C32.5567 33.59 32.3 33.3567 31.98 33.17C31.66 32.9833 31.2933 32.8267 30.88 32.7C30.4733 32.5667 30.0533 32.4333 29.62 32.3C29.1933 32.16 28.7733 32 28.36 31.82C27.9533 31.64 27.59 31.4067 27.27 31.12C26.95 30.8333 26.69 30.4767 26.49 30.05C26.2967 29.6167 26.2 29.0833 26.2 28.45C26.2 27.9433 26.2967 27.4533 26.49 26.98C26.69 26.5067 26.9767 26.0867 27.35 25.72C27.7233 25.3533 28.1833 25.06 28.73 24.84C29.2833 24.62 29.9167 24.51 30.63 24.51C31.43 24.51 32.16 24.6367 32.82 24.89C33.48 25.1433 34.0567 25.51 34.55 25.99L34.08 26.91ZM38.6055 28.87V35.33C38.6055 36.0967 38.7821 36.69 39.1355 37.11C39.4888 37.53 40.0221 37.74 40.7355 37.74C41.2555 37.74 41.7455 37.6167 42.2055 37.37C42.6655 37.1233 43.0888 36.78 43.4755 36.34V28.87H45.2555V39H44.1955C43.9421 39 43.7821 38.8767 43.7155 38.63L43.5755 37.54C43.1355 38.0267 42.6421 38.42 42.0955 38.72C41.5488 39.0133 40.9221 39.16 40.2155 39.16C39.6621 39.16 39.1721 39.07 38.7455 38.89C38.3255 38.7033 37.9721 38.4433 37.6855 38.11C37.3988 37.7767 37.1821 37.3733 37.0355 36.9C36.8955 36.4267 36.8255 35.9033 36.8255 35.33V28.87H38.6055ZM55.0888 30.67C55.0354 30.7433 54.9821 30.8 54.9288 30.84C54.8754 30.88 54.7988 30.9 54.6988 30.9C54.5988 30.9 54.4888 30.86 54.3688 30.78C54.2554 30.6933 54.1088 30.6 53.9288 30.5C53.7488 30.4 53.5288 30.31 53.2688 30.23C53.0154 30.1433 52.7021 30.1 52.3288 30.1C51.8354 30.1 51.3988 30.19 51.0188 30.37C50.6388 30.5433 50.3188 30.7967 50.0588 31.13C49.8054 31.4633 49.6121 31.8667 49.4788 32.34C49.3521 32.8133 49.2887 33.3433 49.2887 33.93C49.2887 34.5433 49.3588 35.09 49.4988 35.57C49.6388 36.0433 49.8354 36.4433 50.0888 36.77C50.3421 37.09 50.6488 37.3367 51.0088 37.51C51.3754 37.6767 51.7854 37.76 52.2388 37.76C52.6721 37.76 53.0288 37.71 53.3088 37.61C53.5888 37.5033 53.8221 37.3867 54.0088 37.26C54.1954 37.1333 54.3488 37.02 54.4688 36.92C54.5888 36.8133 54.7088 36.76 54.8288 36.76C54.9821 36.76 55.0954 36.8167 55.1688 36.93L55.6688 37.58C55.2288 38.12 54.6788 38.5167 54.0188 38.77C53.3588 39.0167 52.6621 39.14 51.9288 39.14C51.2954 39.14 50.7054 39.0233 50.1588 38.79C49.6188 38.5567 49.1488 38.22 48.7488 37.78C48.3488 37.3333 48.0321 36.7867 47.7988 36.14C47.5721 35.4933 47.4588 34.7567 47.4588 33.93C47.4588 33.1767 47.5621 32.48 47.7688 31.84C47.9821 31.2 48.2888 30.65 48.6888 30.19C49.0954 29.7233 49.5954 29.36 50.1888 29.1C50.7821 28.84 51.4621 28.71 52.2287 28.71C52.9354 28.71 53.5621 28.8267 54.1088 29.06C54.6554 29.2867 55.1388 29.61 55.5588 30.03L55.0888 30.67ZM64.4247 30.67C64.3714 30.7433 64.318 30.8 64.2647 30.84C64.2114 30.88 64.1347 30.9 64.0347 30.9C63.9347 30.9 63.8247 30.86 63.7047 30.78C63.5914 30.6933 63.4447 30.6 63.2647 30.5C63.0847 30.4 62.8647 30.31 62.6047 30.23C62.3514 30.1433 62.038 30.1 61.6647 30.1C61.1714 30.1 60.7347 30.19 60.3547 30.37C59.9747 30.5433 59.6547 30.7967 59.3947 31.13C59.1414 31.4633 58.948 31.8667 58.8147 32.34C58.688 32.8133 58.6247 33.3433 58.6247 33.93C58.6247 34.5433 58.6947 35.09 58.8347 35.57C58.9747 36.0433 59.1714 36.4433 59.4247 36.77C59.678 37.09 59.9847 37.3367 60.3447 37.51C60.7114 37.6767 61.1214 37.76 61.5747 37.76C62.008 37.76 62.3647 37.71 62.6447 37.61C62.9247 37.5033 63.158 37.3867 63.3447 37.26C63.5314 37.1333 63.6847 37.02 63.8047 36.92C63.9247 36.8133 64.0447 36.76 64.1647 36.76C64.318 36.76 64.4314 36.8167 64.5047 36.93L65.0047 37.58C64.5647 38.12 64.0147 38.5167 63.3547 38.77C62.6947 39.0167 61.998 39.14 61.2647 39.14C60.6314 39.14 60.0414 39.0233 59.4947 38.79C58.9547 38.5567 58.4847 38.22 58.0847 37.78C57.6847 37.3333 57.368 36.7867 57.1347 36.14C56.908 35.4933 56.7947 34.7567 56.7947 33.93C56.7947 33.1767 56.898 32.48 57.1047 31.84C57.318 31.2 57.6247 30.65 58.0247 30.19C58.4314 29.7233 58.9314 29.36 59.5247 29.1C60.118 28.84 60.798 28.71 61.5647 28.71C62.2714 28.71 62.898 28.8267 63.4447 29.06C63.9914 29.2867 64.4747 29.61 64.8947 30.03L64.4247 30.67ZM70.8606 28.71C71.4673 28.71 72.0273 28.8133 72.5406 29.02C73.054 29.22 73.4973 29.5133 73.8706 29.9C74.244 30.28 74.534 30.7533 74.7406 31.32C74.954 31.88 75.0606 32.52 75.0606 33.24C75.0606 33.52 75.0306 33.7067 74.9706 33.8C74.9106 33.8933 74.7973 33.94 74.6306 33.94H67.8906C67.904 34.58 67.9906 35.1367 68.1506 35.61C68.3106 36.0833 68.5306 36.48 68.8106 36.8C69.0906 37.1133 69.424 37.35 69.8106 37.51C70.1973 37.6633 70.6306 37.74 71.1106 37.74C71.5573 37.74 71.9406 37.69 72.2606 37.59C72.5873 37.4833 72.8673 37.37 73.1006 37.25C73.334 37.13 73.5273 37.02 73.6806 36.92C73.8406 36.8133 73.9773 36.76 74.0906 36.76C74.2373 36.76 74.3506 36.8167 74.4306 36.93L74.9306 37.58C74.7106 37.8467 74.4473 38.08 74.1406 38.28C73.834 38.4733 73.504 38.6333 73.1506 38.76C72.804 38.8867 72.444 38.98 72.0706 39.04C71.6973 39.1067 71.3273 39.14 70.9606 39.14C70.2606 39.14 69.614 39.0233 69.0206 38.79C68.434 38.55 67.924 38.2033 67.4906 37.75C67.064 37.29 66.7306 36.7233 66.4906 36.05C66.2506 35.3767 66.1306 34.6033 66.1306 33.73C66.1306 33.0233 66.2373 32.3633 66.4506 31.75C66.6706 31.1367 66.984 30.6067 67.3906 30.16C67.7973 29.7067 68.294 29.3533 68.8806 29.1C69.4673 28.84 70.1273 28.71 70.8606 28.71ZM70.9006 30.02C70.0406 30.02 69.364 30.27 68.8706 30.77C68.3773 31.2633 68.0706 31.95 67.9506 32.83H73.4606C73.4606 32.4167 73.404 32.04 73.2906 31.7C73.1773 31.3533 73.0106 31.0567 72.7906 30.81C72.5706 30.5567 72.3006 30.3633 71.9806 30.23C71.6673 30.09 71.3073 30.02 70.9006 30.02ZM83.1389 30.54C83.0589 30.6867 82.9356 30.76 82.7689 30.76C82.6689 30.76 82.5556 30.7233 82.4289 30.65C82.3022 30.5767 82.1456 30.4967 81.9589 30.41C81.7789 30.3167 81.5622 30.2333 81.3089 30.16C81.0556 30.08 80.7556 30.04 80.4089 30.04C80.1089 30.04 79.8389 30.08 79.5989 30.16C79.3589 30.2333 79.1522 30.3367 78.9789 30.47C78.8122 30.6033 78.6822 30.76 78.5889 30.94C78.5022 31.1133 78.4589 31.3033 78.4589 31.51C78.4589 31.77 78.5322 31.9867 78.6789 32.16C78.8322 32.3333 79.0322 32.4833 79.2789 32.61C79.5256 32.7367 79.8056 32.85 80.1189 32.95C80.4322 33.0433 80.7522 33.1467 81.0789 33.26C81.4122 33.3667 81.7356 33.4867 82.0489 33.62C82.3622 33.7533 82.6422 33.92 82.8889 34.12C83.1356 34.32 83.3322 34.5667 83.4789 34.86C83.6322 35.1467 83.7089 35.4933 83.7089 35.9C83.7089 36.3667 83.6256 36.8 83.4589 37.2C83.2922 37.5933 83.0456 37.9367 82.7189 38.23C82.3922 38.5167 81.9922 38.7433 81.5189 38.91C81.0456 39.0767 80.4989 39.16 79.8789 39.16C79.1722 39.16 78.5322 39.0467 77.9589 38.82C77.3856 38.5867 76.8989 38.29 76.4989 37.93L76.9189 37.25C76.9722 37.1633 77.0356 37.0967 77.1089 37.05C77.1822 37.0033 77.2789 36.98 77.3989 36.98C77.5189 36.98 77.6456 37.0267 77.7789 37.12C77.9122 37.2133 78.0722 37.3167 78.2589 37.43C78.4522 37.5433 78.6822 37.6467 78.9489 37.74C79.2222 37.8333 79.5622 37.88 79.9689 37.88C80.3156 37.88 80.6189 37.8367 80.8789 37.75C81.1389 37.6567 81.3556 37.5333 81.5289 37.38C81.7022 37.2267 81.8289 37.05 81.9089 36.85C81.9956 36.65 82.0389 36.4367 82.0389 36.21C82.0389 35.93 81.9622 35.7 81.8089 35.52C81.6622 35.3333 81.4656 35.1767 81.2189 35.05C80.9722 34.9167 80.6889 34.8033 80.3689 34.71C80.0556 34.61 79.7322 34.5067 79.3989 34.4C79.0722 34.2933 78.7489 34.1733 78.4289 34.04C78.1156 33.9 77.8356 33.7267 77.5889 33.52C77.3422 33.3133 77.1422 33.06 76.9889 32.76C76.8422 32.4533 76.7689 32.0833 76.7689 31.65C76.7689 31.2633 76.8489 30.8933 77.0089 30.54C77.1689 30.18 77.4022 29.8667 77.7089 29.6C78.0156 29.3267 78.3922 29.11 78.8389 28.95C79.2856 28.79 79.7956 28.71 80.3689 28.71C81.0356 28.71 81.6322 28.8167 82.1589 29.03C82.6922 29.2367 83.1522 29.5233 83.5389 29.89L83.1389 30.54ZM91.8108 30.54C91.7308 30.6867 91.6074 30.76 91.4408 30.76C91.3408 30.76 91.2274 30.7233 91.1008 30.65C90.9741 30.5767 90.8174 30.4967 90.6308 30.41C90.4508 30.3167 90.2341 30.2333 89.9808 30.16C89.7274 30.08 89.4274 30.04 89.0808 30.04C88.7808 30.04 88.5108 30.08 88.2708 30.16C88.0308 30.2333 87.8241 30.3367 87.6508 30.47C87.4841 30.6033 87.3541 30.76 87.2608 30.94C87.1741 31.1133 87.1308 31.3033 87.1308 31.51C87.1308 31.77 87.2041 31.9867 87.3508 32.16C87.5041 32.3333 87.7041 32.4833 87.9508 32.61C88.1974 32.7367 88.4774 32.85 88.7908 32.95C89.1041 33.0433 89.4241 33.1467 89.7508 33.26C90.0841 33.3667 90.4074 33.4867 90.7208 33.62C91.0341 33.7533 91.3141 33.92 91.5608 34.12C91.8074 34.32 92.0041 34.5667 92.1508 34.86C92.3041 35.1467 92.3808 35.4933 92.3808 35.9C92.3808 36.3667 92.2974 36.8 92.1308 37.2C91.9641 37.5933 91.7174 37.9367 91.3908 38.23C91.0641 38.5167 90.6641 38.7433 90.1908 38.91C89.7174 39.0767 89.1708 39.16 88.5508 39.16C87.8441 39.16 87.2041 39.0467 86.6308 38.82C86.0574 38.5867 85.5708 38.29 85.1708 37.93L85.5908 37.25C85.6441 37.1633 85.7074 37.0967 85.7808 37.05C85.8541 37.0033 85.9508 36.98 86.0708 36.98C86.1908 36.98 86.3174 37.0267 86.4508 37.12C86.5841 37.2133 86.7441 37.3167 86.9308 37.43C87.1241 37.5433 87.3541 37.6467 87.6208 37.74C87.8941 37.8333 88.2341 37.88 88.6408 37.88C88.9874 37.88 89.2908 37.8367 89.5508 37.75C89.8108 37.6567 90.0274 37.5333 90.2008 37.38C90.3741 37.2267 90.5008 37.05 90.5808 36.85C90.6674 36.65 90.7108 36.4367 90.7108 36.21C90.7108 35.93 90.6341 35.7 90.4808 35.52C90.3341 35.3333 90.1374 35.1767 89.8908 35.05C89.6441 34.9167 89.3608 34.8033 89.0408 34.71C88.7274 34.61 88.4041 34.5067 88.0708 34.4C87.7441 34.2933 87.4208 34.1733 87.1008 34.04C86.7874 33.9 86.5074 33.7267 86.2608 33.52C86.0141 33.3133 85.8141 33.06 85.6608 32.76C85.5141 32.4533 85.4408 32.0833 85.4408 31.65C85.4408 31.2633 85.5208 30.8933 85.6808 30.54C85.8408 30.18 86.0741 29.8667 86.3808 29.6C86.6874 29.3267 87.0641 29.11 87.5108 28.95C87.9574 28.79 88.4674 28.71 89.0408 28.71C89.7074 28.71 90.3041 28.8167 90.8308 29.03C91.3641 29.2367 91.8241 29.5233 92.2108 29.89L91.8108 30.54Z" fill="black"/>
<path d="M136.808 135.44V140H135.264V135.44L131.064 128.536H132.424C132.563 128.536 132.672 128.571 132.752 128.64C132.832 128.709 132.901 128.795 132.96 128.896L135.584 133.352C135.691 133.539 135.779 133.715 135.848 133.88C135.923 134.045 135.989 134.208 136.048 134.368C136.107 134.203 136.171 134.037 136.24 133.872C136.309 133.707 136.397 133.533 136.504 133.352L139.12 128.896C139.168 128.811 139.232 128.731 139.312 128.656C139.397 128.576 139.507 128.536 139.64 128.536H141.016L136.808 135.44ZM144.229 131.768C144.821 131.768 145.355 131.867 145.829 132.064C146.309 132.261 146.715 132.541 147.045 132.904C147.381 133.267 147.637 133.707 147.813 134.224C147.995 134.736 148.085 135.309 148.085 135.944C148.085 136.584 147.995 137.16 147.813 137.672C147.637 138.184 147.381 138.621 147.045 138.984C146.715 139.347 146.309 139.627 145.829 139.824C145.355 140.016 144.821 140.112 144.229 140.112C143.637 140.112 143.101 140.016 142.621 139.824C142.147 139.627 141.741 139.347 141.405 138.984C141.069 138.621 140.811 138.184 140.629 137.672C140.448 137.16 140.357 136.584 140.357 135.944C140.357 135.309 140.448 134.736 140.629 134.224C140.811 133.707 141.069 133.267 141.405 132.904C141.741 132.541 142.147 132.261 142.621 132.064C143.101 131.867 143.637 131.768 144.229 131.768ZM144.229 139C145.029 139 145.627 138.733 146.021 138.2C146.416 137.661 146.613 136.912 146.613 135.952C146.613 134.987 146.416 134.235 146.021 133.696C145.627 133.157 145.029 132.888 144.229 132.888C143.824 132.888 143.472 132.957 143.173 133.096C142.875 133.235 142.624 133.435 142.421 133.696C142.224 133.957 142.075 134.28 141.973 134.664C141.877 135.043 141.829 135.472 141.829 135.952C141.829 136.432 141.877 136.861 141.973 137.24C142.075 137.619 142.224 137.939 142.421 138.2C142.624 138.456 142.875 138.653 143.173 138.792C143.472 138.931 143.824 139 144.229 139ZM151.072 131.896V137.064C151.072 137.677 151.213 138.152 151.496 138.488C151.779 138.824 152.205 138.992 152.776 138.992C153.192 138.992 153.584 138.893 153.952 138.696C154.32 138.499 154.659 138.224 154.968 137.872V131.896H156.392V140H155.544C155.341 140 155.213 139.901 155.16 139.704L155.048 138.832C154.696 139.221 154.301 139.536 153.864 139.776C153.427 140.011 152.925 140.128 152.36 140.128C151.917 140.128 151.525 140.056 151.184 139.912C150.848 139.763 150.565 139.555 150.336 139.288C150.107 139.021 149.933 138.699 149.816 138.32C149.704 137.941 149.648 137.523 149.648 137.064V131.896H151.072ZM158.731 140V131.896H159.547C159.701 131.896 159.808 131.925 159.867 131.984C159.925 132.043 159.965 132.144 159.987 132.288L160.083 133.552C160.36 132.987 160.701 132.547 161.107 132.232C161.517 131.912 161.997 131.752 162.547 131.752C162.771 131.752 162.973 131.779 163.155 131.832C163.336 131.88 163.504 131.949 163.659 132.04L163.475 133.104C163.437 133.237 163.355 133.304 163.227 133.304C163.152 133.304 163.037 133.28 162.883 133.232C162.728 133.179 162.512 133.152 162.235 133.152C161.739 133.152 161.323 133.296 160.987 133.584C160.656 133.872 160.379 134.291 160.155 134.84V140H158.731ZM168.597 140V133.112L167.701 133.008C167.589 132.981 167.496 132.941 167.421 132.888C167.352 132.829 167.317 132.747 167.317 132.64V132.056H168.597V131.608C168.597 131.112 168.675 130.659 168.829 130.248C168.984 129.832 169.216 129.475 169.525 129.176C169.835 128.877 170.219 128.645 170.677 128.48C171.141 128.315 171.68 128.232 172.293 128.232C172.496 128.232 172.701 128.245 172.909 128.272C173.123 128.299 173.307 128.339 173.461 128.392L173.413 129.136C173.403 129.205 173.371 129.251 173.317 129.272C173.264 129.288 173.187 129.296 173.085 129.296C173.027 129.296 172.965 129.296 172.901 129.296C172.837 129.291 172.765 129.288 172.685 129.288C171.741 129.288 171.053 129.485 170.621 129.88C170.195 130.269 169.981 130.859 169.981 131.648V132.056H174.877V140H173.453V133.088H170.029V140H168.597ZM178.986 128.216V140H177.562V128.216H178.986ZM184.704 131.768C185.189 131.768 185.637 131.851 186.048 132.016C186.459 132.176 186.813 132.411 187.112 132.72C187.411 133.024 187.643 133.403 187.808 133.856C187.979 134.304 188.064 134.816 188.064 135.392C188.064 135.616 188.04 135.765 187.992 135.84C187.944 135.915 187.853 135.952 187.72 135.952H182.328C182.339 136.464 182.408 136.909 182.536 137.288C182.664 137.667 182.84 137.984 183.064 138.24C183.288 138.491 183.555 138.68 183.864 138.808C184.173 138.931 184.52 138.992 184.904 138.992C185.261 138.992 185.568 138.952 185.824 138.872C186.085 138.787 186.309 138.696 186.496 138.6C186.683 138.504 186.837 138.416 186.96 138.336C187.088 138.251 187.197 138.208 187.288 138.208C187.405 138.208 187.496 138.253 187.56 138.344L187.96 138.864C187.784 139.077 187.573 139.264 187.328 139.424C187.083 139.579 186.819 139.707 186.536 139.808C186.259 139.909 185.971 139.984 185.672 140.032C185.373 140.085 185.077 140.112 184.784 140.112C184.224 140.112 183.707 140.019 183.232 139.832C182.763 139.64 182.355 139.363 182.008 139C181.667 138.632 181.4 138.179 181.208 137.64C181.016 137.101 180.92 136.483 180.92 135.784C180.92 135.219 181.005 134.691 181.176 134.2C181.352 133.709 181.603 133.285 181.928 132.928C182.253 132.565 182.651 132.283 183.12 132.08C183.589 131.872 184.117 131.768 184.704 131.768ZM184.736 132.816C184.048 132.816 183.507 133.016 183.112 133.416C182.717 133.811 182.472 134.36 182.376 135.064H186.784C186.784 134.733 186.739 134.432 186.648 134.16C186.557 133.883 186.424 133.645 186.248 133.448C186.072 133.245 185.856 133.091 185.6 132.984C185.349 132.872 185.061 132.816 184.736 132.816ZM194.565 131.896V140H193.141V131.896H194.565ZM194.885 129.352C194.885 129.491 194.855 129.621 194.797 129.744C194.743 129.861 194.669 129.968 194.573 130.064C194.482 130.155 194.375 130.227 194.253 130.28C194.13 130.333 193.999 130.36 193.861 130.36C193.722 130.36 193.591 130.333 193.469 130.28C193.351 130.227 193.245 130.155 193.149 130.064C193.058 129.968 192.986 129.861 192.933 129.744C192.879 129.621 192.853 129.491 192.853 129.352C192.853 129.213 192.879 129.083 192.933 128.96C192.986 128.832 193.058 128.723 193.149 128.632C193.245 128.536 193.351 128.461 193.469 128.408C193.591 128.355 193.722 128.328 193.861 128.328C193.999 128.328 194.13 128.355 194.253 128.408C194.375 128.461 194.482 128.536 194.573 128.632C194.669 128.723 194.743 128.832 194.797 128.96C194.855 129.083 194.885 129.213 194.885 129.352ZM201.714 133.232C201.65 133.349 201.552 133.408 201.418 133.408C201.338 133.408 201.248 133.379 201.146 133.32C201.045 133.261 200.92 133.197 200.77 133.128C200.626 133.053 200.453 132.987 200.25 132.928C200.048 132.864 199.808 132.832 199.53 132.832C199.29 132.832 199.074 132.864 198.882 132.928C198.69 132.987 198.525 133.069 198.386 133.176C198.253 133.283 198.149 133.408 198.074 133.552C198.005 133.691 197.97 133.843 197.97 134.008C197.97 134.216 198.029 134.389 198.146 134.528C198.269 134.667 198.429 134.787 198.626 134.888C198.824 134.989 199.048 135.08 199.298 135.16C199.549 135.235 199.805 135.317 200.066 135.408C200.333 135.493 200.592 135.589 200.842 135.696C201.093 135.803 201.317 135.936 201.514 136.096C201.712 136.256 201.869 136.453 201.986 136.688C202.109 136.917 202.17 137.195 202.17 137.52C202.17 137.893 202.104 138.24 201.97 138.56C201.837 138.875 201.64 139.149 201.378 139.384C201.117 139.613 200.797 139.795 200.418 139.928C200.04 140.061 199.602 140.128 199.106 140.128C198.541 140.128 198.029 140.037 197.57 139.856C197.112 139.669 196.722 139.432 196.402 139.144L196.738 138.6C196.781 138.531 196.832 138.477 196.89 138.44C196.949 138.403 197.026 138.384 197.122 138.384C197.218 138.384 197.32 138.421 197.426 138.496C197.533 138.571 197.661 138.653 197.81 138.744C197.965 138.835 198.149 138.917 198.362 138.992C198.581 139.067 198.853 139.104 199.178 139.104C199.456 139.104 199.698 139.069 199.906 139C200.114 138.925 200.288 138.827 200.426 138.704C200.565 138.581 200.666 138.44 200.73 138.28C200.8 138.12 200.834 137.949 200.834 137.768C200.834 137.544 200.773 137.36 200.65 137.216C200.533 137.067 200.376 136.941 200.178 136.84C199.981 136.733 199.754 136.643 199.498 136.568C199.248 136.488 198.989 136.405 198.722 136.32C198.461 136.235 198.202 136.139 197.946 136.032C197.696 135.92 197.472 135.781 197.274 135.616C197.077 135.451 196.917 135.248 196.794 135.008C196.677 134.763 196.618 134.467 196.618 134.12C196.618 133.811 196.682 133.515 196.81 133.232C196.938 132.944 197.125 132.693 197.37 132.48C197.616 132.261 197.917 132.088 198.274 131.96C198.632 131.832 199.04 131.768 199.498 131.768C200.032 131.768 200.509 131.853 200.93 132.024C201.357 132.189 201.725 132.419 202.034 132.712L201.714 133.232ZM208.338 131.896V137.064C208.338 137.677 208.479 138.152 208.762 138.488C209.044 138.824 209.471 138.992 210.042 138.992C210.458 138.992 210.85 138.893 211.218 138.696C211.586 138.499 211.924 138.224 212.234 137.872V131.896H213.658V140H212.81C212.607 140 212.479 139.901 212.426 139.704L212.314 138.832C211.962 139.221 211.567 139.536 211.13 139.776C210.692 140.011 210.191 140.128 209.626 140.128C209.183 140.128 208.791 140.056 208.45 139.912C208.114 139.763 207.831 139.555 207.602 139.288C207.372 139.021 207.199 138.699 207.082 138.32C206.97 137.941 206.914 137.523 206.914 137.064V131.896H208.338ZM215.996 142.744V131.896H216.844C217.047 131.896 217.175 131.995 217.228 132.192L217.348 133.152C217.695 132.731 218.089 132.392 218.532 132.136C218.98 131.88 219.495 131.752 220.076 131.752C220.54 131.752 220.961 131.843 221.34 132.024C221.719 132.2 222.041 132.464 222.308 132.816C222.575 133.163 222.78 133.595 222.924 134.112C223.068 134.629 223.14 135.224 223.14 135.896C223.14 136.493 223.06 137.051 222.9 137.568C222.74 138.08 222.511 138.525 222.212 138.904C221.913 139.277 221.545 139.573 221.108 139.792C220.676 140.005 220.188 140.112 219.644 140.112C219.143 140.112 218.713 140.029 218.356 139.864C218.004 139.699 217.692 139.464 217.42 139.16V142.744H215.996ZM219.604 132.904C219.14 132.904 218.732 133.011 218.38 133.224C218.033 133.437 217.713 133.739 217.42 134.128V138.048C217.681 138.4 217.967 138.648 218.276 138.792C218.591 138.936 218.94 139.008 219.324 139.008C220.076 139.008 220.655 138.739 221.06 138.2C221.465 137.661 221.668 136.893 221.668 135.896C221.668 135.368 221.62 134.915 221.524 134.536C221.433 134.157 221.3 133.848 221.124 133.608C220.948 133.363 220.732 133.184 220.476 133.072C220.22 132.96 219.929 132.904 219.604 132.904ZM226.408 128.216V140H224.984V128.216H226.408ZM232.198 131.768C232.79 131.768 233.323 131.867 233.798 132.064C234.278 132.261 234.683 132.541 235.014 132.904C235.35 133.267 235.606 133.707 235.782 134.224C235.963 134.736 236.054 135.309 236.054 135.944C236.054 136.584 235.963 137.16 235.782 137.672C235.606 138.184 235.35 138.621 235.014 138.984C234.683 139.347 234.278 139.627 233.798 139.824C233.323 140.016 232.79 140.112 232.198 140.112C231.606 140.112 231.07 140.016 230.59 139.824C230.115 139.627 229.71 139.347 229.374 138.984C229.038 138.621 228.779 138.184 228.598 137.672C228.417 137.16 228.326 136.584 228.326 135.944C228.326 135.309 228.417 134.736 228.598 134.224C228.779 133.707 229.038 133.267 229.374 132.904C229.71 132.541 230.115 132.261 230.59 132.064C231.07 131.867 231.606 131.768 232.198 131.768ZM232.198 139C232.998 139 233.595 138.733 233.99 138.2C234.385 137.661 234.582 136.912 234.582 135.952C234.582 134.987 234.385 134.235 233.99 133.696C233.595 133.157 232.998 132.888 232.198 132.888C231.793 132.888 231.441 132.957 231.142 133.096C230.843 133.235 230.593 133.435 230.39 133.696C230.193 133.957 230.043 134.28 229.942 134.664C229.846 135.043 229.798 135.472 229.798 135.952C229.798 136.432 229.846 136.861 229.942 137.24C230.043 137.619 230.193 137.939 230.39 138.2C230.593 138.456 230.843 138.653 231.142 138.792C231.441 138.931 231.793 139 232.198 139ZM243.761 140H243.129C242.99 140 242.878 139.979 242.793 139.936C242.707 139.893 242.651 139.803 242.625 139.664L242.465 138.912C242.251 139.104 242.043 139.277 241.841 139.432C241.638 139.581 241.425 139.709 241.201 139.816C240.977 139.917 240.737 139.995 240.481 140.048C240.23 140.101 239.95 140.128 239.641 140.128C239.326 140.128 239.03 140.085 238.753 140C238.481 139.909 238.243 139.776 238.041 139.6C237.838 139.424 237.675 139.203 237.553 138.936C237.435 138.664 237.377 138.344 237.377 137.976C237.377 137.656 237.465 137.349 237.641 137.056C237.817 136.757 238.099 136.493 238.489 136.264C238.883 136.035 239.398 135.848 240.033 135.704C240.667 135.555 241.443 135.469 242.361 135.448V134.816C242.361 134.187 242.225 133.712 241.953 133.392C241.686 133.067 241.289 132.904 240.761 132.904C240.414 132.904 240.121 132.949 239.881 133.04C239.646 133.125 239.441 133.224 239.265 133.336C239.094 133.443 238.945 133.541 238.817 133.632C238.694 133.717 238.571 133.76 238.449 133.76C238.353 133.76 238.267 133.736 238.193 133.688C238.123 133.635 238.067 133.571 238.025 133.496L237.769 133.04C238.217 132.608 238.699 132.285 239.217 132.072C239.734 131.859 240.307 131.752 240.937 131.752C241.39 131.752 241.793 131.827 242.145 131.976C242.497 132.125 242.793 132.333 243.033 132.6C243.273 132.867 243.454 133.189 243.577 133.568C243.699 133.947 243.761 134.363 243.761 134.816V140ZM240.065 139.128C240.315 139.128 240.545 139.104 240.753 139.056C240.961 139.003 241.155 138.931 241.337 138.84C241.523 138.744 241.699 138.629 241.865 138.496C242.035 138.363 242.201 138.211 242.361 138.04V136.352C241.705 136.373 241.147 136.427 240.689 136.512C240.23 136.592 239.857 136.699 239.569 136.832C239.281 136.965 239.07 137.123 238.937 137.304C238.809 137.485 238.745 137.688 238.745 137.912C238.745 138.125 238.779 138.309 238.849 138.464C238.918 138.619 239.011 138.747 239.129 138.848C239.246 138.944 239.385 139.016 239.545 139.064C239.705 139.107 239.878 139.128 240.065 139.128ZM251.622 140C251.419 140 251.291 139.901 251.238 139.704L251.11 138.72C250.763 139.141 250.366 139.48 249.918 139.736C249.475 139.987 248.966 140.112 248.39 140.112C247.926 140.112 247.505 140.024 247.126 139.848C246.747 139.667 246.425 139.403 246.158 139.056C245.891 138.709 245.686 138.277 245.542 137.76C245.398 137.243 245.326 136.648 245.326 135.976C245.326 135.379 245.406 134.824 245.566 134.312C245.726 133.795 245.955 133.347 246.254 132.968C246.558 132.589 246.926 132.293 247.358 132.08C247.79 131.861 248.281 131.752 248.83 131.752C249.326 131.752 249.75 131.837 250.102 132.008C250.454 132.173 250.769 132.408 251.046 132.712V128.216H252.47V140H251.622ZM248.862 138.96C249.326 138.96 249.731 138.853 250.078 138.64C250.43 138.427 250.753 138.125 251.046 137.736V133.816C250.785 133.464 250.497 133.219 250.182 133.08C249.873 132.936 249.529 132.864 249.15 132.864C248.393 132.864 247.811 133.133 247.406 133.672C247.001 134.211 246.798 134.979 246.798 135.976C246.798 136.504 246.843 136.957 246.934 137.336C247.025 137.709 247.158 138.019 247.334 138.264C247.51 138.504 247.726 138.68 247.982 138.792C248.238 138.904 248.531 138.96 248.862 138.96ZM258.064 131.768C258.549 131.768 258.997 131.851 259.408 132.016C259.818 132.176 260.173 132.411 260.472 132.72C260.77 133.024 261.002 133.403 261.168 133.856C261.338 134.304 261.424 134.816 261.424 135.392C261.424 135.616 261.4 135.765 261.352 135.84C261.304 135.915 261.213 135.952 261.08 135.952H255.688C255.698 136.464 255.768 136.909 255.896 137.288C256.024 137.667 256.2 137.984 256.424 138.24C256.648 138.491 256.914 138.68 257.224 138.808C257.533 138.931 257.88 138.992 258.264 138.992C258.621 138.992 258.928 138.952 259.184 138.872C259.445 138.787 259.669 138.696 259.856 138.6C260.042 138.504 260.197 138.416 260.32 138.336C260.448 138.251 260.557 138.208 260.648 138.208C260.765 138.208 260.856 138.253 260.92 138.344L261.32 138.864C261.144 139.077 260.933 139.264 260.688 139.424C260.442 139.579 260.178 139.707 259.896 139.808C259.618 139.909 259.33 139.984 259.032 140.032C258.733 140.085 258.437 140.112 258.144 140.112C257.584 140.112 257.066 140.019 256.592 139.832C256.122 139.64 255.714 139.363 255.368 139C255.026 138.632 254.76 138.179 254.568 137.64C254.376 137.101 254.28 136.483 254.28 135.784C254.28 135.219 254.365 134.691 254.536 134.2C254.712 133.709 254.962 133.285 255.288 132.928C255.613 132.565 256.01 132.283 256.48 132.08C256.949 131.872 257.477 131.768 258.064 131.768ZM258.095 132.816C257.408 132.816 256.866 133.016 256.472 133.416C256.077 133.811 255.832 134.36 255.736 135.064H260.144C260.144 134.733 260.098 134.432 260.008 134.16C259.917 133.883 259.784 133.645 259.608 133.448C259.432 133.245 259.216 133.091 258.96 132.984C258.709 132.872 258.421 132.816 258.095 132.816ZM268.95 140C268.747 140 268.619 139.901 268.566 139.704L268.438 138.72C268.091 139.141 267.694 139.48 267.246 139.736C266.803 139.987 266.294 140.112 265.718 140.112C265.254 140.112 264.833 140.024 264.454 139.848C264.075 139.667 263.753 139.403 263.486 139.056C263.219 138.709 263.014 138.277 262.87 137.76C262.726 137.243 262.654 136.648 262.654 135.976C262.654 135.379 262.734 134.824 262.894 134.312C263.054 133.795 263.283 133.347 263.582 132.968C263.886 132.589 264.254 132.293 264.686 132.08C265.118 131.861 265.609 131.752 266.158 131.752C266.654 131.752 267.078 131.837 267.43 132.008C267.782 132.173 268.097 132.408 268.374 132.712V128.216H269.798V140H268.95ZM266.19 138.96C266.654 138.96 267.059 138.853 267.406 138.64C267.758 138.427 268.081 138.125 268.374 137.736V133.816C268.113 133.464 267.825 133.219 267.51 133.08C267.201 132.936 266.857 132.864 266.478 132.864C265.721 132.864 265.139 133.133 264.734 133.672C264.329 134.211 264.126 134.979 264.126 135.976C264.126 136.504 264.171 136.957 264.262 137.336C264.353 137.709 264.486 138.019 264.662 138.264C264.838 138.504 265.054 138.68 265.31 138.792C265.566 138.904 265.859 138.96 266.19 138.96Z" fill="black"/>
<circle cx="66" cy="136" r="41" fill="#4BACF1"/>
<path fill-rule="evenodd" clip-rule="evenodd" d="M65.4581 110.458C63.4208 110.382 61.5415 111.551 60.7089 113.412C59.8762 115.273 60.2568 117.454 61.6709 118.922C63.085 120.391 65.2492 120.854 67.1403 120.092C69.0314 119.331 70.2706 117.497 70.272 115.458C70.3159 112.751 68.1649 110.517 65.4581 110.458Z" fill="white"/>
<path fill-rule="evenodd" clip-rule="evenodd" d="M70.4518 129.256C70.5044 127.948 69.8062 126.717 68.6322 126.047C67.4582 125.378 65.9964 125.378 64.8223 126.047C63.6483 126.717 62.9502 127.948 63.0028 129.256V151.653C62.9502 152.961 63.6483 154.193 64.8223 154.862C65.9964 155.531 67.4582 155.531 68.6322 154.862C69.8062 154.193 70.5044 152.961 70.4518 151.653V129.256Z" fill="white"/>
<path fill-rule="evenodd" clip-rule="evenodd" d="M66.1986 132.815C67.5069 132.868 68.7381 132.17 69.4072 130.996C70.0764 129.822 70.0764 128.36 69.4072 127.186C68.7381 126.012 67.5069 125.314 66.1986 125.366L60.8015 125.366C59.4931 125.314 58.262 126.012 57.5928 127.186C56.9237 128.36 56.9237 129.822 57.5928 130.996C58.262 132.17 59.4931 132.868 60.8015 132.815L66.1986 132.815Z" fill="white"/>
<path fill-rule="evenodd" clip-rule="evenodd" d="M74.1076 155.815C75.416 155.868 76.6471 155.17 77.3163 153.996C77.9855 152.822 77.9855 151.36 77.3163 150.186C76.6471 149.012 75.416 148.314 74.1076 148.366L58.7105 148.366C57.4022 148.314 56.171 149.012 55.5019 150.186C54.8327 151.36 54.8327 152.822 55.5019 153.996C56.171 155.17 57.4022 155.868 58.7105 155.815L74.1076 155.815Z" fill="white"/>
</svg>
