<svg width="390" height="60" viewBox="0 0 390 60" fill="none" xmlns="http://www.w3.org/2000/svg">
<rect width="390" height="60" rx="30" fill="#3F3F3F"/>
<path d="M71.456 24.536V25.8H65.952V29.808H70.656V31.072H65.952V36H64.392V24.536H71.456ZM74.8145 27.896V36H73.3905V27.896H74.8145ZM75.1345 25.352C75.1345 25.4907 75.1052 25.6213 75.0465 25.744C74.9932 25.8613 74.9185 25.968 74.8225 26.064C74.7318 26.1547 74.6252 26.2267 74.5025 26.28C74.3798 26.3333 74.2492 26.36 74.1105 26.36C73.9718 26.36 73.8412 26.3333 73.7185 26.28C73.6012 26.2267 73.4945 26.1547 73.3985 26.064C73.3078 25.968 73.2358 25.8613 73.1825 25.744C73.1292 25.6213 73.1025 25.4907 73.1025 25.352C73.1025 25.2133 73.1292 25.0827 73.1825 24.96C73.2358 24.832 73.3078 24.7227 73.3985 24.632C73.4945 24.536 73.6012 24.4613 73.7185 24.408C73.8412 24.3547 73.9718 24.328 74.1105 24.328C74.2492 24.328 74.3798 24.3547 74.5025 24.408C74.6252 24.4613 74.7318 24.536 74.8225 24.632C74.9185 24.7227 74.9932 24.832 75.0465 24.96C75.1052 25.0827 75.1345 25.2133 75.1345 25.352ZM78.9083 24.216V36H77.4843V24.216H78.9083ZM84.626 27.768C85.1113 27.768 85.5593 27.8507 85.97 28.016C86.3807 28.176 86.7353 28.4107 87.034 28.72C87.3327 29.024 87.5647 29.4027 87.73 29.856C87.9007 30.304 87.986 30.816 87.986 31.392C87.986 31.616 87.962 31.7653 87.914 31.84C87.866 31.9147 87.7753 31.952 87.642 31.952H82.25C82.2607 32.464 82.33 32.9093 82.458 33.288C82.586 33.6667 82.762 33.984 82.986 34.24C83.21 34.4907 83.4767 34.68 83.786 34.808C84.0953 34.9307 84.442 34.992 84.826 34.992C85.1833 34.992 85.49 34.952 85.746 34.872C86.0073 34.7867 86.2313 34.696 86.418 34.6C86.6047 34.504 86.7593 34.416 86.882 34.336C87.01 34.2507 87.1193 34.208 87.21 34.208C87.3273 34.208 87.418 34.2533 87.482 34.344L87.882 34.864C87.706 35.0773 87.4953 35.264 87.25 35.424C87.0047 35.5787 86.7407 35.7067 86.458 35.808C86.1807 35.9093 85.8927 35.984 85.594 36.032C85.2953 36.0853 84.9993 36.112 84.706 36.112C84.146 36.112 83.6287 36.0187 83.154 35.832C82.6847 35.64 82.2767 35.3627 81.93 35C81.5887 34.632 81.322 34.1787 81.13 33.64C80.938 33.1013 80.842 32.4827 80.842 31.784C80.842 31.2187 80.9273 30.6907 81.098 30.2C81.274 29.7093 81.5247 29.2853 81.85 28.928C82.1753 28.5653 82.5727 28.2827 83.042 28.08C83.5113 27.872 84.0393 27.768 84.626 27.768ZM84.658 28.816C83.97 28.816 83.4287 29.016 83.034 29.416C82.6393 29.8107 82.394 30.36 82.298 31.064H86.706C86.706 30.7333 86.6607 30.432 86.57 30.16C86.4793 29.8827 86.346 29.6453 86.17 29.448C85.994 29.2453 85.778 29.0907 85.522 28.984C85.2713 28.872 84.9833 28.816 84.658 28.816ZM98.8544 36H98.2224C98.0837 36 97.9717 35.9787 97.8864 35.936C97.801 35.8933 97.745 35.8027 97.7184 35.664L97.5584 34.912C97.345 35.104 97.137 35.2773 96.9344 35.432C96.7317 35.5813 96.5184 35.7093 96.2944 35.816C96.0704 35.9173 95.8304 35.9947 95.5744 36.048C95.3237 36.1013 95.0437 36.128 94.7344 36.128C94.4197 36.128 94.1237 36.0853 93.8464 36C93.5744 35.9093 93.337 35.776 93.1344 35.6C92.9317 35.424 92.769 35.2027 92.6464 34.936C92.529 34.664 92.4704 34.344 92.4704 33.976C92.4704 33.656 92.5584 33.3493 92.7344 33.056C92.9104 32.7573 93.193 32.4933 93.5824 32.264C93.977 32.0347 94.4917 31.848 95.1264 31.704C95.761 31.5547 96.537 31.4693 97.4544 31.448V30.816C97.4544 30.1867 97.3184 29.712 97.0464 29.392C96.7797 29.0667 96.3824 28.904 95.8544 28.904C95.5077 28.904 95.2144 28.9493 94.9744 29.04C94.7397 29.1253 94.5344 29.224 94.3584 29.336C94.1877 29.4427 94.0384 29.5413 93.9104 29.632C93.7877 29.7173 93.665 29.76 93.5424 29.76C93.4464 29.76 93.361 29.736 93.2864 29.688C93.217 29.6347 93.161 29.5707 93.1184 29.496L92.8624 29.04C93.3104 28.608 93.793 28.2853 94.3104 28.072C94.8277 27.8587 95.401 27.752 96.0304 27.752C96.4837 27.752 96.8864 27.8267 97.2384 27.976C97.5904 28.1253 97.8864 28.3333 98.1264 28.6C98.3664 28.8667 98.5477 29.1893 98.6704 29.568C98.793 29.9467 98.8544 30.3627 98.8544 30.816V36ZM95.1584 35.128C95.409 35.128 95.6384 35.104 95.8464 35.056C96.0544 35.0027 96.249 34.9307 96.4304 34.84C96.617 34.744 96.793 34.6293 96.9584 34.496C97.129 34.3627 97.2944 34.2107 97.4544 34.04V32.352C96.7984 32.3733 96.241 32.4267 95.7824 32.512C95.3237 32.592 94.9504 32.6987 94.6624 32.832C94.3744 32.9653 94.1637 33.1227 94.0304 33.304C93.9024 33.4853 93.8384 33.688 93.8384 33.912C93.8384 34.1253 93.873 34.3093 93.9424 34.464C94.0117 34.6187 94.105 34.7467 94.2224 34.848C94.3397 34.944 94.4784 35.016 94.6384 35.064C94.7984 35.1067 94.9717 35.128 95.1584 35.128ZM101.012 36V27.896H101.828C101.982 27.896 102.089 27.9253 102.148 27.984C102.206 28.0427 102.246 28.144 102.268 28.288L102.364 29.552C102.641 28.9867 102.982 28.5467 103.388 28.232C103.798 27.912 104.278 27.752 104.828 27.752C105.052 27.752 105.254 27.7787 105.436 27.832C105.617 27.88 105.785 27.9493 105.94 28.04L105.756 29.104C105.718 29.2373 105.636 29.304 105.508 29.304C105.433 29.304 105.318 29.28 105.164 29.232C105.009 29.1787 104.793 29.152 104.516 29.152C104.02 29.152 103.604 29.296 103.268 29.584C102.937 29.872 102.66 30.2907 102.436 30.84V36H101.012ZM112.993 29.336C112.95 29.3947 112.908 29.44 112.865 29.472C112.822 29.504 112.761 29.52 112.681 29.52C112.601 29.52 112.513 29.488 112.417 29.424C112.326 29.3547 112.209 29.28 112.065 29.2C111.921 29.12 111.745 29.048 111.537 28.984C111.334 28.9147 111.084 28.88 110.785 28.88C110.39 28.88 110.041 28.952 109.737 29.096C109.433 29.2347 109.177 29.4373 108.969 29.704C108.766 29.9707 108.612 30.2933 108.505 30.672C108.404 31.0507 108.353 31.4747 108.353 31.944C108.353 32.4347 108.409 32.872 108.521 33.256C108.633 33.6347 108.79 33.9547 108.993 34.216C109.196 34.472 109.441 34.6693 109.729 34.808C110.022 34.9413 110.35 35.008 110.713 35.008C111.06 35.008 111.345 34.968 111.569 34.888C111.793 34.8027 111.98 34.7093 112.129 34.608C112.278 34.5067 112.401 34.416 112.497 34.336C112.593 34.2507 112.689 34.208 112.785 34.208C112.908 34.208 112.998 34.2533 113.057 34.344L113.457 34.864C113.105 35.296 112.665 35.6133 112.137 35.816C111.609 36.0133 111.052 36.112 110.465 36.112C109.958 36.112 109.486 36.0187 109.049 35.832C108.617 35.6453 108.241 35.376 107.921 35.024C107.601 34.6667 107.348 34.2293 107.161 33.712C106.98 33.1947 106.889 32.6053 106.889 31.944C106.889 31.3413 106.972 30.784 107.137 30.272C107.308 29.76 107.553 29.32 107.873 28.952C108.198 28.5787 108.598 28.288 109.073 28.08C109.548 27.872 110.092 27.768 110.705 27.768C111.27 27.768 111.772 27.8613 112.209 28.048C112.646 28.2293 113.033 28.488 113.369 28.824L112.993 29.336ZM114.934 36V24.216H116.358V28.984C116.704 28.616 117.088 28.3227 117.51 28.104C117.931 27.88 118.416 27.768 118.966 27.768C119.408 27.768 119.798 27.8427 120.134 27.992C120.475 28.136 120.758 28.344 120.982 28.616C121.211 28.8827 121.384 29.2053 121.502 29.584C121.619 29.9627 121.678 30.3813 121.678 30.84V36H120.254V30.84C120.254 30.2267 120.112 29.752 119.83 29.416C119.552 29.0747 119.126 28.904 118.55 28.904C118.128 28.904 117.734 29.0053 117.366 29.208C117.003 29.4107 116.667 29.6853 116.358 30.032V36H114.934ZM125.408 27.896V36H123.984V27.896H125.408ZM125.728 25.352C125.728 25.4907 125.699 25.6213 125.64 25.744C125.587 25.8613 125.512 25.968 125.416 26.064C125.326 26.1547 125.219 26.2267 125.096 26.28C124.974 26.3333 124.843 26.36 124.704 26.36C124.566 26.36 124.435 26.3333 124.312 26.28C124.195 26.2267 124.088 26.1547 123.992 26.064C123.902 25.968 123.83 25.8613 123.776 25.744C123.723 25.6213 123.696 25.4907 123.696 25.352C123.696 25.2133 123.723 25.0827 123.776 24.96C123.83 24.832 123.902 24.7227 123.992 24.632C124.088 24.536 124.195 24.4613 124.312 24.408C124.435 24.3547 124.566 24.328 124.704 24.328C124.843 24.328 124.974 24.3547 125.096 24.408C125.219 24.4613 125.326 24.536 125.416 24.632C125.512 24.7227 125.587 24.832 125.64 24.96C125.699 25.0827 125.728 25.2133 125.728 25.352ZM126.894 27.896H128.062C128.174 27.896 128.267 27.9253 128.342 27.984C128.417 28.0427 128.47 28.112 128.502 28.192L130.558 33.408C130.633 33.6 130.691 33.792 130.734 33.984C130.777 34.176 130.817 34.3653 130.854 34.552C130.897 34.3653 130.942 34.176 130.99 33.984C131.038 33.792 131.099 33.6 131.174 33.408L133.254 28.192C133.286 28.1067 133.337 28.0373 133.406 27.984C133.481 27.9253 133.571 27.896 133.678 27.896H134.79L131.486 36H130.198L126.894 27.896ZM139.11 27.768C139.596 27.768 140.044 27.8507 140.454 28.016C140.865 28.176 141.22 28.4107 141.518 28.72C141.817 29.024 142.049 29.4027 142.214 29.856C142.385 30.304 142.47 30.816 142.47 31.392C142.47 31.616 142.446 31.7653 142.398 31.84C142.35 31.9147 142.26 31.952 142.126 31.952H136.734C136.745 32.464 136.814 32.9093 136.942 33.288C137.07 33.6667 137.246 33.984 137.47 34.24C137.694 34.4907 137.961 34.68 138.27 34.808C138.58 34.9307 138.926 34.992 139.31 34.992C139.668 34.992 139.974 34.952 140.23 34.872C140.492 34.7867 140.716 34.696 140.902 34.6C141.089 34.504 141.244 34.416 141.366 34.336C141.494 34.2507 141.604 34.208 141.694 34.208C141.812 34.208 141.902 34.2533 141.966 34.344L142.366 34.864C142.19 35.0773 141.98 35.264 141.734 35.424C141.489 35.5787 141.225 35.7067 140.942 35.808C140.665 35.9093 140.377 35.984 140.078 36.032C139.78 36.0853 139.484 36.112 139.19 36.112C138.63 36.112 138.113 36.0187 137.638 35.832C137.169 35.64 136.761 35.3627 136.414 35C136.073 34.632 135.806 34.1787 135.614 33.64C135.422 33.1013 135.326 32.4827 135.326 31.784C135.326 31.2187 135.412 30.6907 135.582 30.2C135.758 29.7093 136.009 29.2853 136.334 28.928C136.66 28.5653 137.057 28.2827 137.526 28.08C137.996 27.872 138.524 27.768 139.11 27.768ZM139.142 28.816C138.454 28.816 137.913 29.016 137.518 29.416C137.124 29.8107 136.878 30.36 136.782 31.064H141.19C141.19 30.7333 141.145 30.432 141.054 30.16C140.964 29.8827 140.83 29.6453 140.654 29.448C140.478 29.2453 140.262 29.0907 140.006 28.984C139.756 28.872 139.468 28.816 139.142 28.816ZM149.997 36C149.794 36 149.666 35.9013 149.613 35.704L149.485 34.72C149.138 35.1413 148.741 35.48 148.293 35.736C147.85 35.9867 147.341 36.112 146.765 36.112C146.301 36.112 145.88 36.024 145.501 35.848C145.122 35.6667 144.8 35.4027 144.533 35.056C144.266 34.7093 144.061 34.2773 143.917 33.76C143.773 33.2427 143.701 32.648 143.701 31.976C143.701 31.3787 143.781 30.824 143.941 30.312C144.101 29.7947 144.33 29.3467 144.629 28.968C144.933 28.5893 145.301 28.2933 145.733 28.08C146.165 27.8613 146.656 27.752 147.205 27.752C147.701 27.752 148.125 27.8373 148.477 28.008C148.829 28.1733 149.144 28.408 149.421 28.712V24.216H150.845V36H149.997ZM147.237 34.96C147.701 34.96 148.106 34.8533 148.453 34.64C148.805 34.4267 149.128 34.1253 149.421 33.736V29.816C149.16 29.464 148.872 29.2187 148.557 29.08C148.248 28.936 147.904 28.864 147.525 28.864C146.768 28.864 146.186 29.1333 145.781 29.672C145.376 30.2107 145.173 30.9787 145.173 31.976C145.173 32.504 145.218 32.9573 145.309 33.336C145.4 33.7093 145.533 34.0187 145.709 34.264C145.885 34.504 146.101 34.68 146.357 34.792C146.613 34.904 146.906 34.96 147.237 34.96Z" fill="white"/>
<path d="M360 45.5C351.44 45.5 344.5 38.5604 344.5 30C344.5 21.4396 351.44 14.5 360 14.5C368.56 14.5 375.5 21.4396 375.5 30C375.5 38.5604 368.56 45.5 360 45.5Z" stroke="white"/>
<path fill-rule="evenodd" clip-rule="evenodd" d="M355.543 25.5428C355.872 25.214 356.405 25.214 356.734 25.5428L365.07 33.8793C365.399 34.2081 365.399 34.7413 365.07 35.0702C364.741 35.399 364.208 35.399 363.879 35.0702L355.543 26.7338C355.214 26.4049 355.214 25.8717 355.543 25.5428Z" fill="white"/>
<path fill-rule="evenodd" clip-rule="evenodd" d="M365.07 25.5428C364.741 25.214 364.208 25.214 363.879 25.5428L355.543 33.8793C355.214 34.2081 355.214 34.7413 355.543 35.0702C355.872 35.399 356.405 35.399 356.734 35.0702L365.07 26.7338C365.399 26.4049 365.399 25.8717 365.07 25.5428Z" fill="white"/>
<rect x="233" y="14" width="104" height="32" rx="16" stroke="white"/>
<path d="M269.234 29.272C269.234 30.1307 269.098 30.912 268.826 31.616C268.554 32.32 268.17 32.9227 267.674 33.424C267.178 33.9253 266.584 34.3147 265.89 34.592C265.197 34.864 264.429 35 263.586 35H259.298V23.536H263.586C264.429 23.536 265.197 23.6747 265.89 23.952C266.584 24.224 267.178 24.6133 267.674 25.12C268.17 25.6213 268.554 26.224 268.826 26.928C269.098 27.632 269.234 28.4133 269.234 29.272ZM267.642 29.272C267.642 28.568 267.546 27.9387 267.354 27.384C267.162 26.8293 266.89 26.36 266.538 25.976C266.186 25.592 265.76 25.2987 265.258 25.096C264.757 24.8933 264.2 24.792 263.586 24.792H260.858V33.744H263.586C264.2 33.744 264.757 33.6427 265.258 33.44C265.76 33.2373 266.186 32.9467 266.538 32.568C266.89 32.184 267.162 31.7147 267.354 31.16C267.546 30.6053 267.642 29.976 267.642 29.272ZM272.705 26.896V35H271.281V26.896H272.705ZM273.025 24.352C273.025 24.4907 272.996 24.6213 272.937 24.744C272.884 24.8613 272.809 24.968 272.713 25.064C272.622 25.1547 272.516 25.2267 272.393 25.28C272.27 25.3333 272.14 25.36 272.001 25.36C271.862 25.36 271.732 25.3333 271.609 25.28C271.492 25.2267 271.385 25.1547 271.289 25.064C271.198 24.968 271.126 24.8613 271.073 24.744C271.02 24.6213 270.993 24.4907 270.993 24.352C270.993 24.2133 271.02 24.0827 271.073 23.96C271.126 23.832 271.198 23.7227 271.289 23.632C271.385 23.536 271.492 23.4613 271.609 23.408C271.732 23.3547 271.862 23.328 272.001 23.328C272.14 23.328 272.27 23.3547 272.393 23.408C272.516 23.4613 272.622 23.536 272.713 23.632C272.809 23.7227 272.884 23.832 272.937 23.96C272.996 24.0827 273.025 24.2133 273.025 24.352ZM279.855 28.232C279.791 28.3493 279.692 28.408 279.559 28.408C279.479 28.408 279.388 28.3787 279.287 28.32C279.186 28.2613 279.06 28.1973 278.911 28.128C278.767 28.0533 278.594 27.9867 278.391 27.928C278.188 27.864 277.948 27.832 277.671 27.832C277.431 27.832 277.215 27.864 277.023 27.928C276.831 27.9867 276.666 28.0693 276.527 28.176C276.394 28.2827 276.29 28.408 276.215 28.552C276.146 28.6907 276.111 28.8427 276.111 29.008C276.111 29.216 276.17 29.3893 276.287 29.528C276.41 29.6667 276.57 29.7867 276.767 29.888C276.964 29.9893 277.188 30.08 277.439 30.16C277.69 30.2347 277.946 30.3173 278.207 30.408C278.474 30.4933 278.732 30.5893 278.983 30.696C279.234 30.8027 279.458 30.936 279.655 31.096C279.852 31.256 280.01 31.4533 280.127 31.688C280.25 31.9173 280.311 32.1947 280.311 32.52C280.311 32.8933 280.244 33.24 280.111 33.56C279.978 33.8747 279.78 34.1493 279.519 34.384C279.258 34.6133 278.938 34.7947 278.559 34.928C278.18 35.0613 277.743 35.128 277.247 35.128C276.682 35.128 276.17 35.0373 275.711 34.856C275.252 34.6693 274.863 34.432 274.543 34.144L274.879 33.6C274.922 33.5307 274.972 33.4773 275.031 33.44C275.09 33.4027 275.167 33.384 275.263 33.384C275.359 33.384 275.46 33.4213 275.567 33.496C275.674 33.5707 275.802 33.6533 275.951 33.744C276.106 33.8347 276.29 33.9173 276.503 33.992C276.722 34.0667 276.994 34.104 277.319 34.104C277.596 34.104 277.839 34.0693 278.047 34C278.255 33.9253 278.428 33.8267 278.567 33.704C278.706 33.5813 278.807 33.44 278.871 33.28C278.94 33.12 278.975 32.9493 278.975 32.768C278.975 32.544 278.914 32.36 278.791 32.216C278.674 32.0667 278.516 31.9413 278.319 31.84C278.122 31.7333 277.895 31.6427 277.639 31.568C277.388 31.488 277.13 31.4053 276.863 31.32C276.602 31.2347 276.343 31.1387 276.087 31.032C275.836 30.92 275.612 30.7813 275.415 30.616C275.218 30.4507 275.058 30.248 274.935 30.008C274.818 29.7627 274.759 29.4667 274.759 29.12C274.759 28.8107 274.823 28.5147 274.951 28.232C275.079 27.944 275.266 27.6933 275.511 27.48C275.756 27.2613 276.058 27.088 276.415 26.96C276.772 26.832 277.18 26.768 277.639 26.768C278.172 26.768 278.65 26.8533 279.071 27.024C279.498 27.1893 279.866 27.4187 280.175 27.712L279.855 28.232ZM282.152 35V26.896H283C283.203 26.896 283.331 26.9947 283.384 27.192L283.488 28.024C283.787 27.656 284.12 27.3547 284.488 27.12C284.862 26.8853 285.294 26.768 285.784 26.768C286.334 26.768 286.776 26.92 287.112 27.224C287.454 27.528 287.699 27.9387 287.848 28.456C287.96 28.1627 288.107 27.9093 288.288 27.696C288.475 27.4827 288.683 27.3067 288.912 27.168C289.142 27.0293 289.384 26.928 289.64 26.864C289.902 26.8 290.166 26.768 290.432 26.768C290.859 26.768 291.238 26.8373 291.568 26.976C291.904 27.1093 292.187 27.3067 292.416 27.568C292.651 27.8293 292.83 28.152 292.952 28.536C293.075 28.9147 293.136 29.3493 293.136 29.84V35H291.712V29.84C291.712 29.2053 291.574 28.7253 291.296 28.4C291.019 28.0693 290.616 27.904 290.088 27.904C289.854 27.904 289.63 27.9467 289.416 28.032C289.208 28.112 289.024 28.232 288.864 28.392C288.704 28.552 288.576 28.7547 288.48 29C288.39 29.24 288.344 29.52 288.344 29.84V35H286.92V29.84C286.92 29.1893 286.79 28.704 286.528 28.384C286.267 28.064 285.886 27.904 285.384 27.904C285.032 27.904 284.704 28 284.4 28.192C284.102 28.3787 283.827 28.6347 283.576 28.96V35H282.152ZM296.877 26.896V35H295.453V26.896H296.877ZM297.197 24.352C297.197 24.4907 297.168 24.6213 297.109 24.744C297.056 24.8613 296.981 24.968 296.885 25.064C296.794 25.1547 296.688 25.2267 296.565 25.28C296.442 25.3333 296.312 25.36 296.173 25.36C296.034 25.36 295.904 25.3333 295.781 25.28C295.664 25.2267 295.557 25.1547 295.461 25.064C295.37 24.968 295.298 24.8613 295.245 24.744C295.192 24.6213 295.165 24.4907 295.165 24.352C295.165 24.2133 295.192 24.0827 295.245 23.96C295.298 23.832 295.37 23.7227 295.461 23.632C295.557 23.536 295.664 23.4613 295.781 23.408C295.904 23.3547 296.034 23.328 296.173 23.328C296.312 23.328 296.442 23.3547 296.565 23.408C296.688 23.4613 296.794 23.536 296.885 23.632C296.981 23.7227 297.056 23.832 297.109 23.96C297.168 24.0827 297.197 24.2133 297.197 24.352ZM304.027 28.232C303.963 28.3493 303.864 28.408 303.731 28.408C303.651 28.408 303.56 28.3787 303.459 28.32C303.357 28.2613 303.232 28.1973 303.083 28.128C302.939 28.0533 302.765 27.9867 302.563 27.928C302.36 27.864 302.12 27.832 301.843 27.832C301.603 27.832 301.387 27.864 301.195 27.928C301.003 27.9867 300.837 28.0693 300.699 28.176C300.565 28.2827 300.461 28.408 300.387 28.552C300.317 28.6907 300.283 28.8427 300.283 29.008C300.283 29.216 300.341 29.3893 300.459 29.528C300.581 29.6667 300.741 29.7867 300.939 29.888C301.136 29.9893 301.36 30.08 301.611 30.16C301.861 30.2347 302.117 30.3173 302.379 30.408C302.645 30.4933 302.904 30.5893 303.155 30.696C303.405 30.8027 303.629 30.936 303.827 31.096C304.024 31.256 304.181 31.4533 304.299 31.688C304.421 31.9173 304.483 32.1947 304.483 32.52C304.483 32.8933 304.416 33.24 304.283 33.56C304.149 33.8747 303.952 34.1493 303.691 34.384C303.429 34.6133 303.109 34.7947 302.731 34.928C302.352 35.0613 301.915 35.128 301.419 35.128C300.853 35.128 300.341 35.0373 299.883 34.856C299.424 34.6693 299.035 34.432 298.715 34.144L299.051 33.6C299.093 33.5307 299.144 33.4773 299.203 33.44C299.261 33.4027 299.339 33.384 299.435 33.384C299.531 33.384 299.632 33.4213 299.739 33.496C299.845 33.5707 299.973 33.6533 300.123 33.744C300.277 33.8347 300.461 33.9173 300.675 33.992C300.893 34.0667 301.165 34.104 301.491 34.104C301.768 34.104 302.011 34.0693 302.219 34C302.427 33.9253 302.6 33.8267 302.739 33.704C302.877 33.5813 302.979 33.44 303.043 33.28C303.112 33.12 303.147 32.9493 303.147 32.768C303.147 32.544 303.085 32.36 302.963 32.216C302.845 32.0667 302.688 31.9413 302.491 31.84C302.293 31.7333 302.067 31.6427 301.811 31.568C301.56 31.488 301.301 31.4053 301.035 31.32C300.773 31.2347 300.515 31.1387 300.259 31.032C300.008 30.92 299.784 30.7813 299.587 30.616C299.389 30.4507 299.229 30.248 299.107 30.008C298.989 29.7627 298.931 29.4667 298.931 29.12C298.931 28.8107 298.995 28.5147 299.123 28.232C299.251 27.944 299.437 27.6933 299.683 27.48C299.928 27.2613 300.229 27.088 300.587 26.96C300.944 26.832 301.352 26.768 301.811 26.768C302.344 26.768 302.821 26.8533 303.243 27.024C303.669 27.1893 304.037 27.4187 304.347 27.712L304.027 28.232ZM310.964 28.232C310.9 28.3493 310.802 28.408 310.668 28.408C310.588 28.408 310.498 28.3787 310.396 28.32C310.295 28.2613 310.17 28.1973 310.02 28.128C309.876 28.0533 309.703 27.9867 309.5 27.928C309.298 27.864 309.058 27.832 308.78 27.832C308.54 27.832 308.324 27.864 308.132 27.928C307.94 27.9867 307.775 28.0693 307.636 28.176C307.503 28.2827 307.399 28.408 307.324 28.552C307.255 28.6907 307.22 28.8427 307.22 29.008C307.22 29.216 307.279 29.3893 307.396 29.528C307.519 29.6667 307.679 29.7867 307.876 29.888C308.074 29.9893 308.298 30.08 308.548 30.16C308.799 30.2347 309.055 30.3173 309.316 30.408C309.583 30.4933 309.842 30.5893 310.092 30.696C310.343 30.8027 310.567 30.936 310.764 31.096C310.962 31.256 311.119 31.4533 311.236 31.688C311.359 31.9173 311.42 32.1947 311.42 32.52C311.42 32.8933 311.354 33.24 311.22 33.56C311.087 33.8747 310.89 34.1493 310.628 34.384C310.367 34.6133 310.047 34.7947 309.668 34.928C309.29 35.0613 308.852 35.128 308.356 35.128C307.791 35.128 307.279 35.0373 306.82 34.856C306.362 34.6693 305.972 34.432 305.652 34.144L305.988 33.6C306.031 33.5307 306.082 33.4773 306.14 33.44C306.199 33.4027 306.276 33.384 306.372 33.384C306.468 33.384 306.57 33.4213 306.676 33.496C306.783 33.5707 306.911 33.6533 307.06 33.744C307.215 33.8347 307.399 33.9173 307.612 33.992C307.831 34.0667 308.103 34.104 308.428 34.104C308.706 34.104 308.948 34.0693 309.156 34C309.364 33.9253 309.538 33.8267 309.676 33.704C309.815 33.5813 309.916 33.44 309.98 33.28C310.05 33.12 310.084 32.9493 310.084 32.768C310.084 32.544 310.023 32.36 309.9 32.216C309.783 32.0667 309.626 31.9413 309.428 31.84C309.231 31.7333 309.004 31.6427 308.748 31.568C308.498 31.488 308.239 31.4053 307.972 31.32C307.711 31.2347 307.452 31.1387 307.196 31.032C306.946 30.92 306.722 30.7813 306.524 30.616C306.327 30.4507 306.167 30.248 306.044 30.008C305.927 29.7627 305.868 29.4667 305.868 29.12C305.868 28.8107 305.932 28.5147 306.06 28.232C306.188 27.944 306.375 27.6933 306.62 27.48C306.866 27.2613 307.167 27.088 307.524 26.96C307.882 26.832 308.29 26.768 308.748 26.768C309.282 26.768 309.759 26.8533 310.18 27.024C310.607 27.1893 310.975 27.4187 311.284 27.712L310.964 28.232Z" fill="white"/>
<path d="M16 30C16 21.1634 23.1634 14 32 14V14C40.8366 14 48 21.1634 48 30V30C48 38.8366 40.8366 46 32 46V46C23.1634 46 16 38.8366 16 30V30Z" fill="#C2D95D"/>
<path d="M29.8182 36.5454L40 24.9091" stroke="white" stroke-width="2.5" stroke-miterlimit="10" stroke-linecap="round"/>
<path d="M24.7273 31.4546L26.1818 32.9091L29.0909 35.8182" stroke="white" stroke-width="2.5" stroke-miterlimit="10" stroke-linecap="round"/>
</svg>
