<svg width="390" height="60" viewBox="0 0 390 60" fill="none" xmlns="http://www.w3.org/2000/svg">
<rect width="390" height="60" rx="30" fill="#3F3F3F"/>
<path d="M72.2 24.536V25.84H68.496V36H66.944V25.84H63.224V24.536H72.2ZM73.6055 36V24.216H75.0295V28.984C75.3762 28.616 75.7602 28.3227 76.1815 28.104C76.6028 27.88 77.0882 27.768 77.6375 27.768C78.0802 27.768 78.4695 27.8427 78.8055 27.992C79.1468 28.136 79.4295 28.344 79.6535 28.616C79.8828 28.8827 80.0562 29.2053 80.1735 29.584C80.2908 29.9627 80.3495 30.3813 80.3495 30.84V36H78.9255V30.84C78.9255 30.2267 78.7842 29.752 78.5015 29.416C78.2242 29.0747 77.7975 28.904 77.2215 28.904C76.8002 28.904 76.4055 29.0053 76.0375 29.208C75.6748 29.4107 75.3388 29.6853 75.0295 30.032V36H73.6055ZM84.0801 27.896V36H82.6561V27.896H84.0801ZM84.4001 25.352C84.4001 25.4907 84.3708 25.6213 84.3121 25.744C84.2588 25.8613 84.1841 25.968 84.0881 26.064C83.9975 26.1547 83.8908 26.2267 83.7681 26.28C83.6455 26.3333 83.5148 26.36 83.3761 26.36C83.2375 26.36 83.1068 26.3333 82.9841 26.28C82.8668 26.2267 82.7601 26.1547 82.6641 26.064C82.5735 25.968 82.5015 25.8613 82.4481 25.744C82.3948 25.6213 82.3681 25.4907 82.3681 25.352C82.3681 25.2133 82.3948 25.0827 82.4481 24.96C82.5015 24.832 82.5735 24.7227 82.6641 24.632C82.7601 24.536 82.8668 24.4613 82.9841 24.408C83.1068 24.3547 83.2375 24.328 83.3761 24.328C83.5148 24.328 83.6455 24.3547 83.7681 24.408C83.8908 24.4613 83.9975 24.536 84.0881 24.632C84.1841 24.7227 84.2588 24.832 84.3121 24.96C84.3708 25.0827 84.4001 25.2133 84.4001 25.352ZM91.2299 29.232C91.1659 29.3493 91.0672 29.408 90.9339 29.408C90.8539 29.408 90.7632 29.3787 90.6619 29.32C90.5605 29.2613 90.4352 29.1973 90.2859 29.128C90.1419 29.0533 89.9685 28.9867 89.7659 28.928C89.5632 28.864 89.3232 28.832 89.0459 28.832C88.8059 28.832 88.5899 28.864 88.3979 28.928C88.2059 28.9867 88.0405 29.0693 87.9019 29.176C87.7685 29.2827 87.6645 29.408 87.5899 29.552C87.5205 29.6907 87.4859 29.8427 87.4859 30.008C87.4859 30.216 87.5445 30.3893 87.6619 30.528C87.7845 30.6667 87.9445 30.7867 88.1419 30.888C88.3392 30.9893 88.5632 31.08 88.8139 31.16C89.0645 31.2347 89.3205 31.3173 89.5819 31.408C89.8485 31.4933 90.1072 31.5893 90.3579 31.696C90.6085 31.8027 90.8325 31.936 91.0299 32.096C91.2272 32.256 91.3845 32.4533 91.5019 32.688C91.6245 32.9173 91.6859 33.1947 91.6859 33.52C91.6859 33.8933 91.6192 34.24 91.4859 34.56C91.3525 34.8747 91.1552 35.1493 90.8939 35.384C90.6325 35.6133 90.3125 35.7947 89.9339 35.928C89.5552 36.0613 89.1179 36.128 88.6219 36.128C88.0565 36.128 87.5445 36.0373 87.0859 35.856C86.6272 35.6693 86.2379 35.432 85.9179 35.144L86.2539 34.6C86.2965 34.5307 86.3472 34.4773 86.4059 34.44C86.4645 34.4027 86.5419 34.384 86.6379 34.384C86.7339 34.384 86.8352 34.4213 86.9419 34.496C87.0485 34.5707 87.1765 34.6533 87.3259 34.744C87.4805 34.8347 87.6645 34.9173 87.8779 34.992C88.0965 35.0667 88.3685 35.104 88.6939 35.104C88.9712 35.104 89.2139 35.0693 89.4219 35C89.6299 34.9253 89.8032 34.8267 89.9419 34.704C90.0805 34.5813 90.1819 34.44 90.2459 34.28C90.3152 34.12 90.3499 33.9493 90.3499 33.768C90.3499 33.544 90.2885 33.36 90.1659 33.216C90.0485 33.0667 89.8912 32.9413 89.6939 32.84C89.4965 32.7333 89.2699 32.6427 89.0139 32.568C88.7632 32.488 88.5045 32.4053 88.2379 32.32C87.9765 32.2347 87.7179 32.1387 87.4619 32.032C87.2112 31.92 86.9872 31.7813 86.7899 31.616C86.5925 31.4507 86.4325 31.248 86.3099 31.008C86.1925 30.7627 86.1339 30.4667 86.1339 30.12C86.1339 29.8107 86.1979 29.5147 86.3259 29.232C86.4539 28.944 86.6405 28.6933 86.8859 28.48C87.1312 28.2613 87.4325 28.088 87.7899 27.96C88.1472 27.832 88.5552 27.768 89.0139 27.768C89.5472 27.768 90.0245 27.8533 90.4459 28.024C90.8725 28.1893 91.2405 28.4187 91.5499 28.712L91.2299 29.232ZM98.2051 27.896V36H96.7811V27.896H98.2051ZM98.5251 25.352C98.5251 25.4907 98.4958 25.6213 98.4371 25.744C98.3838 25.8613 98.3091 25.968 98.2131 26.064C98.1225 26.1547 98.0158 26.2267 97.8931 26.28C97.7705 26.3333 97.6398 26.36 97.5011 26.36C97.3625 26.36 97.2318 26.3333 97.1091 26.28C96.9918 26.2267 96.8851 26.1547 96.7891 26.064C96.6985 25.968 96.6265 25.8613 96.5731 25.744C96.5198 25.6213 96.4931 25.4907 96.4931 25.352C96.4931 25.2133 96.5198 25.0827 96.5731 24.96C96.6265 24.832 96.6985 24.7227 96.7891 24.632C96.8851 24.536 96.9918 24.4613 97.1091 24.408C97.2318 24.3547 97.3625 24.328 97.5011 24.328C97.6398 24.328 97.7705 24.3547 97.8931 24.408C98.0158 24.4613 98.1225 24.536 98.2131 24.632C98.3091 24.7227 98.3838 24.832 98.4371 24.96C98.4958 25.0827 98.5251 25.2133 98.5251 25.352ZM105.355 29.232C105.291 29.3493 105.192 29.408 105.059 29.408C104.979 29.408 104.888 29.3787 104.787 29.32C104.686 29.2613 104.56 29.1973 104.411 29.128C104.267 29.0533 104.094 28.9867 103.891 28.928C103.688 28.864 103.448 28.832 103.171 28.832C102.931 28.832 102.715 28.864 102.523 28.928C102.331 28.9867 102.166 29.0693 102.027 29.176C101.894 29.2827 101.79 29.408 101.715 29.552C101.646 29.6907 101.611 29.8427 101.611 30.008C101.611 30.216 101.67 30.3893 101.787 30.528C101.91 30.6667 102.07 30.7867 102.267 30.888C102.464 30.9893 102.688 31.08 102.939 31.16C103.19 31.2347 103.446 31.3173 103.707 31.408C103.974 31.4933 104.232 31.5893 104.483 31.696C104.734 31.8027 104.958 31.936 105.155 32.096C105.352 32.256 105.51 32.4533 105.627 32.688C105.75 32.9173 105.811 33.1947 105.811 33.52C105.811 33.8933 105.744 34.24 105.611 34.56C105.478 34.8747 105.28 35.1493 105.019 35.384C104.758 35.6133 104.438 35.7947 104.059 35.928C103.68 36.0613 103.243 36.128 102.747 36.128C102.182 36.128 101.67 36.0373 101.211 35.856C100.752 35.6693 100.363 35.432 100.043 35.144L100.379 34.6C100.422 34.5307 100.472 34.4773 100.531 34.44C100.59 34.4027 100.667 34.384 100.763 34.384C100.859 34.384 100.96 34.4213 101.067 34.496C101.174 34.5707 101.302 34.6533 101.451 34.744C101.606 34.8347 101.79 34.9173 102.003 34.992C102.222 35.0667 102.494 35.104 102.819 35.104C103.096 35.104 103.339 35.0693 103.547 35C103.755 34.9253 103.928 34.8267 104.067 34.704C104.206 34.5813 104.307 34.44 104.371 34.28C104.44 34.12 104.475 33.9493 104.475 33.768C104.475 33.544 104.414 33.36 104.291 33.216C104.174 33.0667 104.016 32.9413 103.819 32.84C103.622 32.7333 103.395 32.6427 103.139 32.568C102.888 32.488 102.63 32.4053 102.363 32.32C102.102 32.2347 101.843 32.1387 101.587 32.032C101.336 31.92 101.112 31.7813 100.915 31.616C100.718 31.4507 100.558 31.248 100.435 31.008C100.318 30.7627 100.259 30.4667 100.259 30.12C100.259 29.8107 100.323 29.5147 100.451 29.232C100.579 28.944 100.766 28.6933 101.011 28.48C101.256 28.2613 101.558 28.088 101.915 27.96C102.272 27.832 102.68 27.768 103.139 27.768C103.672 27.768 104.15 27.8533 104.571 28.024C104.998 28.1893 105.366 28.4187 105.675 28.712L105.355 29.232ZM116.698 36H116.066C115.927 36 115.815 35.9787 115.73 35.936C115.645 35.8933 115.589 35.8027 115.562 35.664L115.402 34.912C115.189 35.104 114.981 35.2773 114.778 35.432C114.575 35.5813 114.362 35.7093 114.138 35.816C113.914 35.9173 113.674 35.9947 113.418 36.048C113.167 36.1013 112.887 36.128 112.578 36.128C112.263 36.128 111.967 36.0853 111.69 36C111.418 35.9093 111.181 35.776 110.978 35.6C110.775 35.424 110.613 35.2027 110.49 34.936C110.373 34.664 110.314 34.344 110.314 33.976C110.314 33.656 110.402 33.3493 110.578 33.056C110.754 32.7573 111.037 32.4933 111.426 32.264C111.821 32.0347 112.335 31.848 112.97 31.704C113.605 31.5547 114.381 31.4693 115.298 31.448V30.816C115.298 30.1867 115.162 29.712 114.89 29.392C114.623 29.0667 114.226 28.904 113.698 28.904C113.351 28.904 113.058 28.9493 112.818 29.04C112.583 29.1253 112.378 29.224 112.202 29.336C112.031 29.4427 111.882 29.5413 111.754 29.632C111.631 29.7173 111.509 29.76 111.386 29.76C111.29 29.76 111.205 29.736 111.13 29.688C111.061 29.6347 111.005 29.5707 110.962 29.496L110.706 29.04C111.154 28.608 111.637 28.2853 112.154 28.072C112.671 27.8587 113.245 27.752 113.874 27.752C114.327 27.752 114.73 27.8267 115.082 27.976C115.434 28.1253 115.73 28.3333 115.97 28.6C116.21 28.8667 116.391 29.1893 116.514 29.568C116.637 29.9467 116.698 30.3627 116.698 30.816V36ZM113.002 35.128C113.253 35.128 113.482 35.104 113.69 35.056C113.898 35.0027 114.093 34.9307 114.274 34.84C114.461 34.744 114.637 34.6293 114.802 34.496C114.973 34.3627 115.138 34.2107 115.298 34.04V32.352C114.642 32.3733 114.085 32.4267 113.626 32.512C113.167 32.592 112.794 32.6987 112.506 32.832C112.218 32.9653 112.007 33.1227 111.874 33.304C111.746 33.4853 111.682 33.688 111.682 33.912C111.682 34.1253 111.717 34.3093 111.786 34.464C111.855 34.6187 111.949 34.7467 112.066 34.848C112.183 34.944 112.322 35.016 112.482 35.064C112.642 35.1067 112.815 35.128 113.002 35.128ZM126.589 29.232C126.525 29.3493 126.427 29.408 126.293 29.408C126.213 29.408 126.123 29.3787 126.021 29.32C125.92 29.2613 125.795 29.1973 125.645 29.128C125.501 29.0533 125.328 28.9867 125.125 28.928C124.923 28.864 124.683 28.832 124.405 28.832C124.165 28.832 123.949 28.864 123.757 28.928C123.565 28.9867 123.4 29.0693 123.261 29.176C123.128 29.2827 123.024 29.408 122.949 29.552C122.88 29.6907 122.845 29.8427 122.845 30.008C122.845 30.216 122.904 30.3893 123.021 30.528C123.144 30.6667 123.304 30.7867 123.501 30.888C123.699 30.9893 123.923 31.08 124.173 31.16C124.424 31.2347 124.68 31.3173 124.941 31.408C125.208 31.4933 125.467 31.5893 125.717 31.696C125.968 31.8027 126.192 31.936 126.389 32.096C126.587 32.256 126.744 32.4533 126.861 32.688C126.984 32.9173 127.045 33.1947 127.045 33.52C127.045 33.8933 126.979 34.24 126.845 34.56C126.712 34.8747 126.515 35.1493 126.253 35.384C125.992 35.6133 125.672 35.7947 125.293 35.928C124.915 36.0613 124.477 36.128 123.981 36.128C123.416 36.128 122.904 36.0373 122.445 35.856C121.987 35.6693 121.597 35.432 121.277 35.144L121.613 34.6C121.656 34.5307 121.707 34.4773 121.765 34.44C121.824 34.4027 121.901 34.384 121.997 34.384C122.093 34.384 122.195 34.4213 122.301 34.496C122.408 34.5707 122.536 34.6533 122.685 34.744C122.84 34.8347 123.024 34.9173 123.237 34.992C123.456 35.0667 123.728 35.104 124.053 35.104C124.331 35.104 124.573 35.0693 124.781 35C124.989 34.9253 125.163 34.8267 125.301 34.704C125.44 34.5813 125.541 34.44 125.605 34.28C125.675 34.12 125.709 33.9493 125.709 33.768C125.709 33.544 125.648 33.36 125.525 33.216C125.408 33.0667 125.251 32.9413 125.053 32.84C124.856 32.7333 124.629 32.6427 124.373 32.568C124.123 32.488 123.864 32.4053 123.597 32.32C123.336 32.2347 123.077 32.1387 122.821 32.032C122.571 31.92 122.347 31.7813 122.149 31.616C121.952 31.4507 121.792 31.248 121.669 31.008C121.552 30.7627 121.493 30.4667 121.493 30.12C121.493 29.8107 121.557 29.5147 121.685 29.232C121.813 28.944 122 28.6933 122.245 28.48C122.491 28.2613 122.792 28.088 123.149 27.96C123.507 27.832 123.915 27.768 124.373 27.768C124.907 27.768 125.384 27.8533 125.805 28.024C126.232 28.1893 126.6 28.4187 126.909 28.712L126.589 29.232ZM130.119 27.896V33.064C130.119 33.6773 130.26 34.152 130.543 34.488C130.825 34.824 131.252 34.992 131.823 34.992C132.239 34.992 132.631 34.8933 132.999 34.696C133.367 34.4987 133.705 34.224 134.015 33.872V27.896H135.439V36H134.591C134.388 36 134.26 35.9013 134.207 35.704L134.095 34.832C133.743 35.2213 133.348 35.536 132.911 35.776C132.473 36.0107 131.972 36.128 131.407 36.128C130.964 36.128 130.572 36.056 130.231 35.912C129.895 35.7627 129.612 35.5547 129.383 35.288C129.153 35.0213 128.98 34.6987 128.863 34.32C128.751 33.9413 128.695 33.5227 128.695 33.064V27.896H130.119ZM143.305 29.336C143.263 29.3947 143.22 29.44 143.177 29.472C143.135 29.504 143.073 29.52 142.993 29.52C142.913 29.52 142.825 29.488 142.729 29.424C142.639 29.3547 142.521 29.28 142.377 29.2C142.233 29.12 142.057 29.048 141.849 28.984C141.647 28.9147 141.396 28.88 141.097 28.88C140.703 28.88 140.353 28.952 140.049 29.096C139.745 29.2347 139.489 29.4373 139.281 29.704C139.079 29.9707 138.924 30.2933 138.817 30.672C138.716 31.0507 138.665 31.4747 138.665 31.944C138.665 32.4347 138.721 32.872 138.833 33.256C138.945 33.6347 139.103 33.9547 139.305 34.216C139.508 34.472 139.753 34.6693 140.041 34.808C140.335 34.9413 140.663 35.008 141.025 35.008C141.372 35.008 141.657 34.968 141.881 34.888C142.105 34.8027 142.292 34.7093 142.441 34.608C142.591 34.5067 142.713 34.416 142.809 34.336C142.905 34.2507 143.001 34.208 143.097 34.208C143.22 34.208 143.311 34.2533 143.369 34.344L143.769 34.864C143.417 35.296 142.977 35.6133 142.449 35.816C141.921 36.0133 141.364 36.112 140.777 36.112C140.271 36.112 139.799 36.0187 139.361 35.832C138.929 35.6453 138.553 35.376 138.233 35.024C137.913 34.6667 137.66 34.2293 137.473 33.712C137.292 33.1947 137.201 32.6053 137.201 31.944C137.201 31.3413 137.284 30.784 137.449 30.272C137.62 29.76 137.865 29.32 138.185 28.952C138.511 28.5787 138.911 28.288 139.385 28.08C139.86 27.872 140.404 27.768 141.017 27.768C141.583 27.768 142.084 27.8613 142.521 28.048C142.959 28.2293 143.345 28.488 143.681 28.824L143.305 29.336ZM150.774 29.336C150.731 29.3947 150.689 29.44 150.646 29.472C150.603 29.504 150.542 29.52 150.462 29.52C150.382 29.52 150.294 29.488 150.198 29.424C150.107 29.3547 149.99 29.28 149.846 29.2C149.702 29.12 149.526 29.048 149.318 28.984C149.115 28.9147 148.865 28.88 148.566 28.88C148.171 28.88 147.822 28.952 147.518 29.096C147.214 29.2347 146.958 29.4373 146.75 29.704C146.547 29.9707 146.393 30.2933 146.286 30.672C146.185 31.0507 146.134 31.4747 146.134 31.944C146.134 32.4347 146.19 32.872 146.302 33.256C146.414 33.6347 146.571 33.9547 146.774 34.216C146.977 34.472 147.222 34.6693 147.51 34.808C147.803 34.9413 148.131 35.008 148.494 35.008C148.841 35.008 149.126 34.968 149.35 34.888C149.574 34.8027 149.761 34.7093 149.91 34.608C150.059 34.5067 150.182 34.416 150.278 34.336C150.374 34.2507 150.47 34.208 150.566 34.208C150.689 34.208 150.779 34.2533 150.838 34.344L151.238 34.864C150.886 35.296 150.446 35.6133 149.918 35.816C149.39 36.0133 148.833 36.112 148.246 36.112C147.739 36.112 147.267 36.0187 146.83 35.832C146.398 35.6453 146.022 35.376 145.702 35.024C145.382 34.6667 145.129 34.2293 144.942 33.712C144.761 33.1947 144.67 32.6053 144.67 31.944C144.67 31.3413 144.753 30.784 144.918 30.272C145.089 29.76 145.334 29.32 145.654 28.952C145.979 28.5787 146.379 28.288 146.854 28.08C147.329 27.872 147.873 27.768 148.486 27.768C149.051 27.768 149.553 27.8613 149.99 28.048C150.427 28.2293 150.814 28.488 151.15 28.824L150.774 29.336ZM155.923 27.768C156.408 27.768 156.856 27.8507 157.267 28.016C157.678 28.176 158.032 28.4107 158.331 28.72C158.63 29.024 158.862 29.4027 159.027 29.856C159.198 30.304 159.283 30.816 159.283 31.392C159.283 31.616 159.259 31.7653 159.211 31.84C159.163 31.9147 159.072 31.952 158.939 31.952H153.547C153.558 32.464 153.627 32.9093 153.755 33.288C153.883 33.6667 154.059 33.984 154.283 34.24C154.507 34.4907 154.774 34.68 155.083 34.808C155.392 34.9307 155.739 34.992 156.123 34.992C156.48 34.992 156.787 34.952 157.043 34.872C157.304 34.7867 157.528 34.696 157.715 34.6C157.902 34.504 158.056 34.416 158.179 34.336C158.307 34.2507 158.416 34.208 158.507 34.208C158.624 34.208 158.715 34.2533 158.779 34.344L159.179 34.864C159.003 35.0773 158.792 35.264 158.547 35.424C158.302 35.5787 158.038 35.7067 157.755 35.808C157.478 35.9093 157.19 35.984 156.891 36.032C156.592 36.0853 156.296 36.112 156.003 36.112C155.443 36.112 154.926 36.0187 154.451 35.832C153.982 35.64 153.574 35.3627 153.227 35C152.886 34.632 152.619 34.1787 152.427 33.64C152.235 33.1013 152.139 32.4827 152.139 31.784C152.139 31.2187 152.224 30.6907 152.395 30.2C152.571 29.7093 152.822 29.2853 153.147 28.928C153.472 28.5653 153.87 28.2827 154.339 28.08C154.808 27.872 155.336 27.768 155.923 27.768ZM155.955 28.816C155.267 28.816 154.726 29.016 154.331 29.416C153.936 29.8107 153.691 30.36 153.595 31.064H158.003C158.003 30.7333 157.958 30.432 157.867 30.16C157.776 29.8827 157.643 29.6453 157.467 29.448C157.291 29.2453 157.075 29.0907 156.819 28.984C156.568 28.872 156.28 28.816 155.955 28.816ZM165.746 29.232C165.682 29.3493 165.583 29.408 165.45 29.408C165.37 29.408 165.279 29.3787 165.178 29.32C165.076 29.2613 164.951 29.1973 164.802 29.128C164.658 29.0533 164.484 28.9867 164.282 28.928C164.079 28.864 163.839 28.832 163.562 28.832C163.322 28.832 163.106 28.864 162.914 28.928C162.722 28.9867 162.556 29.0693 162.418 29.176C162.284 29.2827 162.18 29.408 162.106 29.552C162.036 29.6907 162.002 29.8427 162.002 30.008C162.002 30.216 162.06 30.3893 162.178 30.528C162.3 30.6667 162.46 30.7867 162.658 30.888C162.855 30.9893 163.079 31.08 163.33 31.16C163.58 31.2347 163.836 31.3173 164.098 31.408C164.364 31.4933 164.623 31.5893 164.874 31.696C165.124 31.8027 165.348 31.936 165.546 32.096C165.743 32.256 165.9 32.4533 166.018 32.688C166.14 32.9173 166.202 33.1947 166.202 33.52C166.202 33.8933 166.135 34.24 166.002 34.56C165.868 34.8747 165.671 35.1493 165.41 35.384C165.148 35.6133 164.828 35.7947 164.45 35.928C164.071 36.0613 163.634 36.128 163.138 36.128C162.572 36.128 162.06 36.0373 161.602 35.856C161.143 35.6693 160.754 35.432 160.434 35.144L160.77 34.6C160.812 34.5307 160.863 34.4773 160.922 34.44C160.98 34.4027 161.058 34.384 161.154 34.384C161.25 34.384 161.351 34.4213 161.458 34.496C161.564 34.5707 161.692 34.6533 161.842 34.744C161.996 34.8347 162.18 34.9173 162.394 34.992C162.612 35.0667 162.884 35.104 163.21 35.104C163.487 35.104 163.73 35.0693 163.938 35C164.146 34.9253 164.319 34.8267 164.457 34.704C164.596 34.5813 164.698 34.44 164.762 34.28C164.831 34.12 164.866 33.9493 164.866 33.768C164.866 33.544 164.804 33.36 164.682 33.216C164.564 33.0667 164.407 32.9413 164.21 32.84C164.012 32.7333 163.786 32.6427 163.53 32.568C163.279 32.488 163.02 32.4053 162.754 32.32C162.492 32.2347 162.234 32.1387 161.978 32.032C161.727 31.92 161.503 31.7813 161.306 31.616C161.108 31.4507 160.948 31.248 160.826 31.008C160.708 30.7627 160.65 30.4667 160.65 30.12C160.65 29.8107 160.714 29.5147 160.842 29.232C160.97 28.944 161.156 28.6933 161.402 28.48C161.647 28.2613 161.948 28.088 162.306 27.96C162.663 27.832 163.071 27.768 163.53 27.768C164.063 27.768 164.54 27.8533 164.962 28.024C165.388 28.1893 165.756 28.4187 166.066 28.712L165.746 29.232ZM172.683 29.232C172.619 29.3493 172.52 29.408 172.387 29.408C172.307 29.408 172.216 29.3787 172.115 29.32C172.014 29.2613 171.888 29.1973 171.739 29.128C171.595 29.0533 171.422 28.9867 171.219 28.928C171.016 28.864 170.776 28.832 170.499 28.832C170.259 28.832 170.043 28.864 169.851 28.928C169.659 28.9867 169.494 29.0693 169.355 29.176C169.222 29.2827 169.118 29.408 169.043 29.552C168.974 29.6907 168.939 29.8427 168.939 30.008C168.939 30.216 168.998 30.3893 169.115 30.528C169.238 30.6667 169.398 30.7867 169.595 30.888C169.792 30.9893 170.016 31.08 170.267 31.16C170.518 31.2347 170.774 31.3173 171.035 31.408C171.302 31.4933 171.56 31.5893 171.811 31.696C172.062 31.8027 172.286 31.936 172.483 32.096C172.68 32.256 172.838 32.4533 172.955 32.688C173.078 32.9173 173.139 33.1947 173.139 33.52C173.139 33.8933 173.072 34.24 172.939 34.56C172.806 34.8747 172.608 35.1493 172.347 35.384C172.086 35.6133 171.766 35.7947 171.387 35.928C171.008 36.0613 170.571 36.128 170.075 36.128C169.51 36.128 168.998 36.0373 168.539 35.856C168.08 35.6693 167.691 35.432 167.371 35.144L167.707 34.6C167.75 34.5307 167.8 34.4773 167.859 34.44C167.918 34.4027 167.995 34.384 168.091 34.384C168.187 34.384 168.288 34.4213 168.395 34.496C168.502 34.5707 168.63 34.6533 168.779 34.744C168.934 34.8347 169.118 34.9173 169.331 34.992C169.55 35.0667 169.822 35.104 170.147 35.104C170.424 35.104 170.667 35.0693 170.875 35C171.083 34.9253 171.256 34.8267 171.395 34.704C171.534 34.5813 171.635 34.44 171.699 34.28C171.768 34.12 171.803 33.9493 171.803 33.768C171.803 33.544 171.742 33.36 171.619 33.216C171.502 33.0667 171.344 32.9413 171.147 32.84C170.95 32.7333 170.723 32.6427 170.467 32.568C170.216 32.488 169.958 32.4053 169.691 32.32C169.43 32.2347 169.171 32.1387 168.915 32.032C168.664 31.92 168.44 31.7813 168.243 31.616C168.046 31.4507 167.886 31.248 167.763 31.008C167.646 30.7627 167.587 30.4667 167.587 30.12C167.587 29.8107 167.651 29.5147 167.779 29.232C167.907 28.944 168.094 28.6933 168.339 28.48C168.584 28.2613 168.886 28.088 169.243 27.96C169.6 27.832 170.008 27.768 170.467 27.768C171 27.768 171.478 27.8533 171.899 28.024C172.326 28.1893 172.694 28.4187 173.003 28.712L172.683 29.232ZM180.53 36.128C179.89 36.128 179.397 35.9493 179.05 35.592C178.709 35.2347 178.538 34.72 178.538 34.048V29.088H177.562C177.477 29.088 177.405 29.064 177.346 29.016C177.288 28.9627 177.258 28.8827 177.258 28.776V28.208L178.586 28.04L178.914 25.536C178.925 25.456 178.96 25.392 179.018 25.344C179.077 25.2907 179.152 25.264 179.242 25.264H179.962V28.056H182.282V29.088H179.962V33.952C179.962 34.2933 180.045 34.5467 180.21 34.712C180.376 34.8773 180.589 34.96 180.85 34.96C181 34.96 181.128 34.9413 181.234 34.904C181.346 34.8613 181.442 34.816 181.522 34.768C181.602 34.72 181.669 34.6773 181.722 34.64C181.781 34.5973 181.832 34.576 181.874 34.576C181.949 34.576 182.016 34.6213 182.074 34.712L182.49 35.392C182.245 35.6213 181.949 35.8027 181.602 35.936C181.256 36.064 180.898 36.128 180.53 36.128ZM187.323 27.768C187.915 27.768 188.448 27.8667 188.923 28.064C189.403 28.2613 189.808 28.5413 190.139 28.904C190.475 29.2667 190.731 29.7067 190.907 30.224C191.088 30.736 191.179 31.3093 191.179 31.944C191.179 32.584 191.088 33.16 190.907 33.672C190.731 34.184 190.475 34.6213 190.139 34.984C189.808 35.3467 189.403 35.6267 188.923 35.824C188.448 36.016 187.915 36.112 187.323 36.112C186.731 36.112 186.195 36.016 185.715 35.824C185.24 35.6267 184.835 35.3467 184.499 34.984C184.163 34.6213 183.904 34.184 183.723 33.672C183.542 33.16 183.451 32.584 183.451 31.944C183.451 31.3093 183.542 30.736 183.723 30.224C183.904 29.7067 184.163 29.2667 184.499 28.904C184.835 28.5413 185.24 28.2613 185.715 28.064C186.195 27.8667 186.731 27.768 187.323 27.768ZM187.323 35C188.123 35 188.72 34.7333 189.115 34.2C189.51 33.6613 189.707 32.912 189.707 31.952C189.707 30.9867 189.51 30.2347 189.115 29.696C188.72 29.1573 188.123 28.888 187.323 28.888C186.918 28.888 186.566 28.9573 186.267 29.096C185.968 29.2347 185.718 29.4347 185.515 29.696C185.318 29.9573 185.168 30.28 185.067 30.664C184.971 31.0427 184.923 31.472 184.923 31.952C184.923 32.432 184.971 32.8613 185.067 33.24C185.168 33.6187 185.318 33.9387 185.515 34.2C185.718 34.456 185.968 34.6533 186.267 34.792C186.566 34.9307 186.918 35 187.323 35ZM198.886 36H198.254C198.115 36 198.003 35.9787 197.918 35.936C197.832 35.8933 197.776 35.8027 197.75 35.664L197.59 34.912C197.376 35.104 197.168 35.2773 196.966 35.432C196.763 35.5813 196.55 35.7093 196.326 35.816C196.102 35.9173 195.862 35.9947 195.606 36.048C195.355 36.1013 195.075 36.128 194.766 36.128C194.451 36.128 194.155 36.0853 193.878 36C193.606 35.9093 193.368 35.776 193.166 35.6C192.963 35.424 192.8 35.2027 192.678 34.936C192.56 34.664 192.502 34.344 192.502 33.976C192.502 33.656 192.59 33.3493 192.766 33.056C192.942 32.7573 193.224 32.4933 193.614 32.264C194.008 32.0347 194.523 31.848 195.158 31.704C195.792 31.5547 196.568 31.4693 197.486 31.448V30.816C197.486 30.1867 197.35 29.712 197.078 29.392C196.811 29.0667 196.414 28.904 195.886 28.904C195.539 28.904 195.246 28.9493 195.006 29.04C194.771 29.1253 194.566 29.224 194.39 29.336C194.219 29.4427 194.07 29.5413 193.942 29.632C193.819 29.7173 193.696 29.76 193.574 29.76C193.478 29.76 193.392 29.736 193.318 29.688C193.248 29.6347 193.192 29.5707 193.15 29.496L192.894 29.04C193.342 28.608 193.824 28.2853 194.342 28.072C194.859 27.8587 195.432 27.752 196.062 27.752C196.515 27.752 196.918 27.8267 197.27 27.976C197.622 28.1253 197.918 28.3333 198.158 28.6C198.398 28.8667 198.579 29.1893 198.702 29.568C198.824 29.9467 198.886 30.3627 198.886 30.816V36ZM195.19 35.128C195.44 35.128 195.67 35.104 195.878 35.056C196.086 35.0027 196.28 34.9307 196.462 34.84C196.648 34.744 196.824 34.6293 196.99 34.496C197.16 34.3627 197.326 34.2107 197.486 34.04V32.352C196.83 32.3733 196.272 32.4267 195.814 32.512C195.355 32.592 194.982 32.6987 194.694 32.832C194.406 32.9653 194.195 33.1227 194.062 33.304C193.934 33.4853 193.87 33.688 193.87 33.912C193.87 34.1253 193.904 34.3093 193.974 34.464C194.043 34.6187 194.136 34.7467 194.254 34.848C194.371 34.944 194.51 35.016 194.67 35.064C194.83 35.1067 195.003 35.128 195.19 35.128ZM205.683 29.232C205.619 29.3493 205.52 29.408 205.387 29.408C205.307 29.408 205.216 29.3787 205.115 29.32C205.014 29.2613 204.888 29.1973 204.739 29.128C204.595 29.0533 204.422 28.9867 204.219 28.928C204.016 28.864 203.776 28.832 203.499 28.832C203.259 28.832 203.043 28.864 202.851 28.928C202.659 28.9867 202.494 29.0693 202.355 29.176C202.222 29.2827 202.118 29.408 202.043 29.552C201.974 29.6907 201.939 29.8427 201.939 30.008C201.939 30.216 201.998 30.3893 202.115 30.528C202.238 30.6667 202.398 30.7867 202.595 30.888C202.792 30.9893 203.016 31.08 203.267 31.16C203.518 31.2347 203.774 31.3173 204.035 31.408C204.302 31.4933 204.56 31.5893 204.811 31.696C205.062 31.8027 205.286 31.936 205.483 32.096C205.68 32.256 205.838 32.4533 205.955 32.688C206.078 32.9173 206.139 33.1947 206.139 33.52C206.139 33.8933 206.072 34.24 205.939 34.56C205.806 34.8747 205.608 35.1493 205.347 35.384C205.086 35.6133 204.766 35.7947 204.387 35.928C204.008 36.0613 203.571 36.128 203.075 36.128C202.51 36.128 201.998 36.0373 201.539 35.856C201.08 35.6693 200.691 35.432 200.371 35.144L200.707 34.6C200.75 34.5307 200.8 34.4773 200.859 34.44C200.918 34.4027 200.995 34.384 201.091 34.384C201.187 34.384 201.288 34.4213 201.395 34.496C201.502 34.5707 201.63 34.6533 201.779 34.744C201.934 34.8347 202.118 34.9173 202.331 34.992C202.55 35.0667 202.822 35.104 203.147 35.104C203.424 35.104 203.667 35.0693 203.875 35C204.083 34.9253 204.256 34.8267 204.395 34.704C204.534 34.5813 204.635 34.44 204.699 34.28C204.768 34.12 204.803 33.9493 204.803 33.768C204.803 33.544 204.742 33.36 204.619 33.216C204.502 33.0667 204.344 32.9413 204.147 32.84C203.95 32.7333 203.723 32.6427 203.467 32.568C203.216 32.488 202.958 32.4053 202.691 32.32C202.43 32.2347 202.171 32.1387 201.915 32.032C201.664 31.92 201.44 31.7813 201.243 31.616C201.046 31.4507 200.886 31.248 200.763 31.008C200.646 30.7627 200.587 30.4667 200.587 30.12C200.587 29.8107 200.651 29.5147 200.779 29.232C200.907 28.944 201.094 28.6933 201.339 28.48C201.584 28.2613 201.886 28.088 202.243 27.96C202.6 27.832 203.008 27.768 203.467 27.768C204 27.768 204.478 27.8533 204.899 28.024C205.326 28.1893 205.694 28.4187 206.003 28.712L205.683 29.232ZM210.437 36.128C209.797 36.128 209.303 35.9493 208.957 35.592C208.615 35.2347 208.445 34.72 208.445 34.048V29.088H207.469C207.383 29.088 207.311 29.064 207.253 29.016C207.194 28.9627 207.165 28.8827 207.165 28.776V28.208L208.493 28.04L208.821 25.536C208.831 25.456 208.866 25.392 208.924 25.344C208.983 25.2907 209.058 25.264 209.149 25.264H209.869V28.056H212.189V29.088H209.869V33.952C209.869 34.2933 209.951 34.5467 210.117 34.712C210.282 34.8773 210.495 34.96 210.757 34.96C210.906 34.96 211.034 34.9413 211.141 34.904C211.253 34.8613 211.349 34.816 211.429 34.768C211.509 34.72 211.575 34.6773 211.629 34.64C211.687 34.5973 211.738 34.576 211.781 34.576C211.855 34.576 211.922 34.6213 211.981 34.712L212.397 35.392C212.151 35.6213 211.855 35.8027 211.509 35.936C211.162 36.064 210.805 36.128 210.437 36.128Z" fill="white"/>
<path d="M15 30C15 21.1634 22.1634 14 31 14C39.8366 14 47 21.1634 47 30C47 38.8366 39.8366 46 31 46C22.1634 46 15 38.8366 15 30Z" fill="#C2D95D"/>
<path d="M28.8182 36.5454L39 24.9091" stroke="white" stroke-width="2.5" stroke-miterlimit="10" stroke-linecap="round"/>
<path d="M23.7273 31.4546L25.1818 32.9091L28.0909 35.8182" stroke="white" stroke-width="2.5" stroke-miterlimit="10" stroke-linecap="round"/>
</svg>
