<svg width="325" height="60" viewBox="0 0 325 60" fill="none" xmlns="http://www.w3.org/2000/svg">
<rect width="325" height="60" rx="30" fill="#3F3F3F"/>
<path d="M71.456 25.536V26.8H65.952V30.808H70.656V32.072H65.952V37H64.392V25.536H71.456ZM74.8145 28.896V37H73.3905V28.896H74.8145ZM75.1345 26.352C75.1345 26.4907 75.1052 26.6213 75.0465 26.744C74.9932 26.8613 74.9185 26.968 74.8225 27.064C74.7318 27.1547 74.6252 27.2267 74.5025 27.28C74.3798 27.3333 74.2492 27.36 74.1105 27.36C73.9718 27.36 73.8412 27.3333 73.7185 27.28C73.6012 27.2267 73.4945 27.1547 73.3985 27.064C73.3078 26.968 73.2358 26.8613 73.1825 26.744C73.1292 26.6213 73.1025 26.4907 73.1025 26.352C73.1025 26.2133 73.1292 26.0827 73.1825 25.96C73.2358 25.832 73.3078 25.7227 73.3985 25.632C73.4945 25.536 73.6012 25.4613 73.7185 25.408C73.8412 25.3547 73.9718 25.328 74.1105 25.328C74.2492 25.328 74.3798 25.3547 74.5025 25.408C74.6252 25.4613 74.7318 25.536 74.8225 25.632C74.9185 25.7227 74.9932 25.832 75.0465 25.96C75.1052 26.0827 75.1345 26.2133 75.1345 26.352ZM78.9083 25.216V37H77.4843V25.216H78.9083ZM84.626 28.768C85.1113 28.768 85.5593 28.8507 85.97 29.016C86.3807 29.176 86.7353 29.4107 87.034 29.72C87.3327 30.024 87.5647 30.4027 87.73 30.856C87.9007 31.304 87.986 31.816 87.986 32.392C87.986 32.616 87.962 32.7653 87.914 32.84C87.866 32.9147 87.7753 32.952 87.642 32.952H82.25C82.2607 33.464 82.33 33.9093 82.458 34.288C82.586 34.6667 82.762 34.984 82.986 35.24C83.21 35.4907 83.4767 35.68 83.786 35.808C84.0953 35.9307 84.442 35.992 84.826 35.992C85.1833 35.992 85.49 35.952 85.746 35.872C86.0073 35.7867 86.2313 35.696 86.418 35.6C86.6047 35.504 86.7593 35.416 86.882 35.336C87.01 35.2507 87.1193 35.208 87.21 35.208C87.3273 35.208 87.418 35.2533 87.482 35.344L87.882 35.864C87.706 36.0773 87.4953 36.264 87.25 36.424C87.0047 36.5787 86.7407 36.7067 86.458 36.808C86.1807 36.9093 85.8927 36.984 85.594 37.032C85.2953 37.0853 84.9993 37.112 84.706 37.112C84.146 37.112 83.6287 37.0187 83.154 36.832C82.6847 36.64 82.2767 36.3627 81.93 36C81.5887 35.632 81.322 35.1787 81.13 34.64C80.938 34.1013 80.842 33.4827 80.842 32.784C80.842 32.2187 80.9273 31.6907 81.098 31.2C81.274 30.7093 81.5247 30.2853 81.85 29.928C82.1753 29.5653 82.5727 29.2827 83.042 29.08C83.5113 28.872 84.0393 28.768 84.626 28.768ZM84.658 29.816C83.97 29.816 83.4287 30.016 83.034 30.416C82.6393 30.8107 82.394 31.36 82.298 32.064H86.706C86.706 31.7333 86.6607 31.432 86.57 31.16C86.4793 30.8827 86.346 30.6453 86.17 30.448C85.994 30.2453 85.778 30.0907 85.522 29.984C85.2713 29.872 84.9833 29.816 84.658 29.816ZM98.8544 37H98.2224C98.0837 37 97.9717 36.9787 97.8864 36.936C97.801 36.8933 97.745 36.8027 97.7184 36.664L97.5584 35.912C97.345 36.104 97.137 36.2773 96.9344 36.432C96.7317 36.5813 96.5184 36.7093 96.2944 36.816C96.0704 36.9173 95.8304 36.9947 95.5744 37.048C95.3237 37.1013 95.0437 37.128 94.7344 37.128C94.4197 37.128 94.1237 37.0853 93.8464 37C93.5744 36.9093 93.337 36.776 93.1344 36.6C92.9317 36.424 92.769 36.2027 92.6464 35.936C92.529 35.664 92.4704 35.344 92.4704 34.976C92.4704 34.656 92.5584 34.3493 92.7344 34.056C92.9104 33.7573 93.193 33.4933 93.5824 33.264C93.977 33.0347 94.4917 32.848 95.1264 32.704C95.761 32.5547 96.537 32.4693 97.4544 32.448V31.816C97.4544 31.1867 97.3184 30.712 97.0464 30.392C96.7797 30.0667 96.3824 29.904 95.8544 29.904C95.5077 29.904 95.2144 29.9493 94.9744 30.04C94.7397 30.1253 94.5344 30.224 94.3584 30.336C94.1877 30.4427 94.0384 30.5413 93.9104 30.632C93.7877 30.7173 93.665 30.76 93.5424 30.76C93.4464 30.76 93.361 30.736 93.2864 30.688C93.217 30.6347 93.161 30.5707 93.1184 30.496L92.8624 30.04C93.3104 29.608 93.793 29.2853 94.3104 29.072C94.8277 28.8587 95.401 28.752 96.0304 28.752C96.4837 28.752 96.8864 28.8267 97.2384 28.976C97.5904 29.1253 97.8864 29.3333 98.1264 29.6C98.3664 29.8667 98.5477 30.1893 98.6704 30.568C98.793 30.9467 98.8544 31.3627 98.8544 31.816V37ZM95.1584 36.128C95.409 36.128 95.6384 36.104 95.8464 36.056C96.0544 36.0027 96.249 35.9307 96.4304 35.84C96.617 35.744 96.793 35.6293 96.9584 35.496C97.129 35.3627 97.2944 35.2107 97.4544 35.04V33.352C96.7984 33.3733 96.241 33.4267 95.7824 33.512C95.3237 33.592 94.9504 33.6987 94.6624 33.832C94.3744 33.9653 94.1637 34.1227 94.0304 34.304C93.9024 34.4853 93.8384 34.688 93.8384 34.912C93.8384 35.1253 93.873 35.3093 93.9424 35.464C94.0117 35.6187 94.105 35.7467 94.2224 35.848C94.3397 35.944 94.4784 36.016 94.6384 36.064C94.7984 36.1067 94.9717 36.128 95.1584 36.128ZM101.012 37V28.896H101.828C101.982 28.896 102.089 28.9253 102.148 28.984C102.206 29.0427 102.246 29.144 102.268 29.288L102.364 30.552C102.641 29.9867 102.982 29.5467 103.388 29.232C103.798 28.912 104.278 28.752 104.828 28.752C105.052 28.752 105.254 28.7787 105.436 28.832C105.617 28.88 105.785 28.9493 105.94 29.04L105.756 30.104C105.718 30.2373 105.636 30.304 105.508 30.304C105.433 30.304 105.318 30.28 105.164 30.232C105.009 30.1787 104.793 30.152 104.516 30.152C104.02 30.152 103.604 30.296 103.268 30.584C102.937 30.872 102.66 31.2907 102.436 31.84V37H101.012ZM112.993 30.336C112.95 30.3947 112.908 30.44 112.865 30.472C112.822 30.504 112.761 30.52 112.681 30.52C112.601 30.52 112.513 30.488 112.417 30.424C112.326 30.3547 112.209 30.28 112.065 30.2C111.921 30.12 111.745 30.048 111.537 29.984C111.334 29.9147 111.084 29.88 110.785 29.88C110.39 29.88 110.041 29.952 109.737 30.096C109.433 30.2347 109.177 30.4373 108.969 30.704C108.766 30.9707 108.612 31.2933 108.505 31.672C108.404 32.0507 108.353 32.4747 108.353 32.944C108.353 33.4347 108.409 33.872 108.521 34.256C108.633 34.6347 108.79 34.9547 108.993 35.216C109.196 35.472 109.441 35.6693 109.729 35.808C110.022 35.9413 110.35 36.008 110.713 36.008C111.06 36.008 111.345 35.968 111.569 35.888C111.793 35.8027 111.98 35.7093 112.129 35.608C112.278 35.5067 112.401 35.416 112.497 35.336C112.593 35.2507 112.689 35.208 112.785 35.208C112.908 35.208 112.998 35.2533 113.057 35.344L113.457 35.864C113.105 36.296 112.665 36.6133 112.137 36.816C111.609 37.0133 111.052 37.112 110.465 37.112C109.958 37.112 109.486 37.0187 109.049 36.832C108.617 36.6453 108.241 36.376 107.921 36.024C107.601 35.6667 107.348 35.2293 107.161 34.712C106.98 34.1947 106.889 33.6053 106.889 32.944C106.889 32.3413 106.972 31.784 107.137 31.272C107.308 30.76 107.553 30.32 107.873 29.952C108.198 29.5787 108.598 29.288 109.073 29.08C109.548 28.872 110.092 28.768 110.705 28.768C111.27 28.768 111.772 28.8613 112.209 29.048C112.646 29.2293 113.033 29.488 113.369 29.824L112.993 30.336ZM114.934 37V25.216H116.358V29.984C116.704 29.616 117.088 29.3227 117.51 29.104C117.931 28.88 118.416 28.768 118.966 28.768C119.408 28.768 119.798 28.8427 120.134 28.992C120.475 29.136 120.758 29.344 120.982 29.616C121.211 29.8827 121.384 30.2053 121.502 30.584C121.619 30.9627 121.678 31.3813 121.678 31.84V37H120.254V31.84C120.254 31.2267 120.112 30.752 119.83 30.416C119.552 30.0747 119.126 29.904 118.55 29.904C118.128 29.904 117.734 30.0053 117.366 30.208C117.003 30.4107 116.667 30.6853 116.358 31.032V37H114.934ZM125.408 28.896V37H123.984V28.896H125.408ZM125.728 26.352C125.728 26.4907 125.699 26.6213 125.64 26.744C125.587 26.8613 125.512 26.968 125.416 27.064C125.326 27.1547 125.219 27.2267 125.096 27.28C124.974 27.3333 124.843 27.36 124.704 27.36C124.566 27.36 124.435 27.3333 124.312 27.28C124.195 27.2267 124.088 27.1547 123.992 27.064C123.902 26.968 123.83 26.8613 123.776 26.744C123.723 26.6213 123.696 26.4907 123.696 26.352C123.696 26.2133 123.723 26.0827 123.776 25.96C123.83 25.832 123.902 25.7227 123.992 25.632C124.088 25.536 124.195 25.4613 124.312 25.408C124.435 25.3547 124.566 25.328 124.704 25.328C124.843 25.328 124.974 25.3547 125.096 25.408C125.219 25.4613 125.326 25.536 125.416 25.632C125.512 25.7227 125.587 25.832 125.64 25.96C125.699 26.0827 125.728 26.2133 125.728 26.352ZM126.894 28.896H128.062C128.174 28.896 128.267 28.9253 128.342 28.984C128.417 29.0427 128.47 29.112 128.502 29.192L130.558 34.408C130.633 34.6 130.691 34.792 130.734 34.984C130.777 35.176 130.817 35.3653 130.854 35.552C130.897 35.3653 130.942 35.176 130.99 34.984C131.038 34.792 131.099 34.6 131.174 34.408L133.254 29.192C133.286 29.1067 133.337 29.0373 133.406 28.984C133.481 28.9253 133.571 28.896 133.678 28.896H134.79L131.486 37H130.198L126.894 28.896ZM139.11 28.768C139.596 28.768 140.044 28.8507 140.454 29.016C140.865 29.176 141.22 29.4107 141.518 29.72C141.817 30.024 142.049 30.4027 142.214 30.856C142.385 31.304 142.47 31.816 142.47 32.392C142.47 32.616 142.446 32.7653 142.398 32.84C142.35 32.9147 142.26 32.952 142.126 32.952H136.734C136.745 33.464 136.814 33.9093 136.942 34.288C137.07 34.6667 137.246 34.984 137.47 35.24C137.694 35.4907 137.961 35.68 138.27 35.808C138.58 35.9307 138.926 35.992 139.31 35.992C139.668 35.992 139.974 35.952 140.23 35.872C140.492 35.7867 140.716 35.696 140.902 35.6C141.089 35.504 141.244 35.416 141.366 35.336C141.494 35.2507 141.604 35.208 141.694 35.208C141.812 35.208 141.902 35.2533 141.966 35.344L142.366 35.864C142.19 36.0773 141.98 36.264 141.734 36.424C141.489 36.5787 141.225 36.7067 140.942 36.808C140.665 36.9093 140.377 36.984 140.078 37.032C139.78 37.0853 139.484 37.112 139.19 37.112C138.63 37.112 138.113 37.0187 137.638 36.832C137.169 36.64 136.761 36.3627 136.414 36C136.073 35.632 135.806 35.1787 135.614 34.64C135.422 34.1013 135.326 33.4827 135.326 32.784C135.326 32.2187 135.412 31.6907 135.582 31.2C135.758 30.7093 136.009 30.2853 136.334 29.928C136.66 29.5653 137.057 29.2827 137.526 29.08C137.996 28.872 138.524 28.768 139.11 28.768ZM139.142 29.816C138.454 29.816 137.913 30.016 137.518 30.416C137.124 30.8107 136.878 31.36 136.782 32.064H141.19C141.19 31.7333 141.145 31.432 141.054 31.16C140.964 30.8827 140.83 30.6453 140.654 30.448C140.478 30.2453 140.262 30.0907 140.006 29.984C139.756 29.872 139.468 29.816 139.142 29.816ZM149.997 37C149.794 37 149.666 36.9013 149.613 36.704L149.485 35.72C149.138 36.1413 148.741 36.48 148.293 36.736C147.85 36.9867 147.341 37.112 146.765 37.112C146.301 37.112 145.88 37.024 145.501 36.848C145.122 36.6667 144.8 36.4027 144.533 36.056C144.266 35.7093 144.061 35.2773 143.917 34.76C143.773 34.2427 143.701 33.648 143.701 32.976C143.701 32.3787 143.781 31.824 143.941 31.312C144.101 30.7947 144.33 30.3467 144.629 29.968C144.933 29.5893 145.301 29.2933 145.733 29.08C146.165 28.8613 146.656 28.752 147.205 28.752C147.701 28.752 148.125 28.8373 148.477 29.008C148.829 29.1733 149.144 29.408 149.421 29.712V25.216H150.845V37H149.997ZM147.237 35.96C147.701 35.96 148.106 35.8533 148.453 35.64C148.805 35.4267 149.128 35.1253 149.421 34.736V30.816C149.16 30.464 148.872 30.2187 148.557 30.08C148.248 29.936 147.904 29.864 147.525 29.864C146.768 29.864 146.186 30.1333 145.781 30.672C145.376 31.2107 145.173 31.9787 145.173 32.976C145.173 33.504 145.218 33.9573 145.309 34.336C145.4 34.7093 145.533 35.0187 145.709 35.264C145.885 35.504 146.101 35.68 146.357 35.792C146.613 35.904 146.906 35.96 147.237 35.96Z" fill="white"/>
<rect x="174" y="14" width="65" height="32" rx="16" stroke="white"/>
<path d="M193.145 33.768C193.62 33.768 194.044 33.688 194.417 33.528C194.79 33.368 195.105 33.144 195.361 32.856C195.622 32.568 195.82 32.224 195.953 31.824C196.092 31.424 196.161 30.984 196.161 30.504V23.536H197.705V30.504C197.705 31.1653 197.598 31.7787 197.385 32.344C197.177 32.9093 196.876 33.4 196.481 33.816C196.092 34.2267 195.614 34.5493 195.049 34.784C194.484 35.0187 193.849 35.136 193.145 35.136C192.441 35.136 191.806 35.0187 191.241 34.784C190.676 34.5493 190.196 34.2267 189.801 33.816C189.406 33.4 189.102 32.9093 188.889 32.344C188.681 31.7787 188.577 31.1653 188.577 30.504V23.536H190.121V30.496C190.121 30.976 190.188 31.416 190.321 31.816C190.46 32.216 190.657 32.56 190.913 32.848C191.174 33.136 191.492 33.3627 191.865 33.528C192.244 33.688 192.67 33.768 193.145 33.768ZM200.152 35V26.896H201C201.203 26.896 201.331 26.9947 201.384 27.192L201.496 28.072C201.848 27.6827 202.24 27.368 202.672 27.128C203.11 26.888 203.614 26.768 204.184 26.768C204.627 26.768 205.016 26.8427 205.352 26.992C205.694 27.136 205.976 27.344 206.2 27.616C206.43 27.8827 206.603 28.2053 206.72 28.584C206.838 28.9627 206.896 29.3813 206.896 29.84V35H205.472V29.84C205.472 29.2267 205.331 28.752 205.048 28.416C204.771 28.0747 204.344 27.904 203.768 27.904C203.347 27.904 202.952 28.0053 202.584 28.208C202.222 28.4107 201.886 28.6853 201.576 29.032V35H200.152ZM214.747 35C214.544 35 214.416 34.9013 214.363 34.704L214.235 33.72C213.888 34.1413 213.491 34.48 213.043 34.736C212.6 34.9867 212.091 35.112 211.515 35.112C211.051 35.112 210.63 35.024 210.251 34.848C209.872 34.6667 209.55 34.4027 209.283 34.056C209.016 33.7093 208.811 33.2773 208.667 32.76C208.523 32.2427 208.451 31.648 208.451 30.976C208.451 30.3787 208.531 29.824 208.691 29.312C208.851 28.7947 209.08 28.3467 209.379 27.968C209.683 27.5893 210.051 27.2933 210.483 27.08C210.915 26.8613 211.406 26.752 211.955 26.752C212.451 26.752 212.875 26.8373 213.227 27.008C213.579 27.1733 213.894 27.408 214.171 27.712V23.216H215.595V35H214.747ZM211.987 33.96C212.451 33.96 212.856 33.8533 213.203 33.64C213.555 33.4267 213.878 33.1253 214.171 32.736V28.816C213.91 28.464 213.622 28.2187 213.307 28.08C212.998 27.936 212.654 27.864 212.275 27.864C211.518 27.864 210.936 28.1333 210.531 28.672C210.126 29.2107 209.923 29.9787 209.923 30.976C209.923 31.504 209.968 31.9573 210.059 32.336C210.15 32.7093 210.283 33.0187 210.459 33.264C210.635 33.504 210.851 33.68 211.107 33.792C211.363 33.904 211.656 33.96 211.987 33.96ZM221.261 26.768C221.853 26.768 222.386 26.8667 222.861 27.064C223.341 27.2613 223.746 27.5413 224.077 27.904C224.413 28.2667 224.669 28.7067 224.845 29.224C225.026 29.736 225.117 30.3093 225.117 30.944C225.117 31.584 225.026 32.16 224.845 32.672C224.669 33.184 224.413 33.6213 224.077 33.984C223.746 34.3467 223.341 34.6267 222.861 34.824C222.386 35.016 221.853 35.112 221.261 35.112C220.669 35.112 220.133 35.016 219.653 34.824C219.178 34.6267 218.773 34.3467 218.437 33.984C218.101 33.6213 217.842 33.184 217.661 32.672C217.479 32.16 217.389 31.584 217.389 30.944C217.389 30.3093 217.479 29.736 217.661 29.224C217.842 28.7067 218.101 28.2667 218.437 27.904C218.773 27.5413 219.178 27.2613 219.653 27.064C220.133 26.8667 220.669 26.768 221.261 26.768ZM221.261 34C222.061 34 222.658 33.7333 223.053 33.2C223.447 32.6613 223.645 31.912 223.645 30.952C223.645 29.9867 223.447 29.2347 223.053 28.696C222.658 28.1573 222.061 27.888 221.261 27.888C220.855 27.888 220.503 27.9573 220.205 28.096C219.906 28.2347 219.655 28.4347 219.453 28.696C219.255 28.9573 219.106 29.28 219.005 29.664C218.909 30.0427 218.861 30.472 218.861 30.952C218.861 31.432 218.909 31.8613 219.005 32.24C219.106 32.6187 219.255 32.9387 219.453 33.2C219.655 33.456 219.906 33.6533 220.205 33.792C220.503 33.9307 220.855 34 221.261 34Z" fill="white"/>
<rect x="245" y="14" width="65" height="32" rx="16" stroke="white"/>
<path d="M259.759 23.536H260.999C261.138 23.536 261.25 23.5707 261.335 23.64C261.421 23.7093 261.485 23.7973 261.527 23.904L264.767 31.992C264.842 32.1733 264.909 32.3707 264.967 32.584C265.031 32.7973 265.093 33.0187 265.151 33.248C265.199 33.0187 265.25 32.7973 265.303 32.584C265.362 32.3707 265.429 32.1733 265.503 31.992L268.727 23.904C268.765 23.8133 268.829 23.7307 268.919 23.656C269.01 23.576 269.122 23.536 269.255 23.536H270.503L265.831 35H264.431L259.759 23.536ZM273.322 26.896V35H271.898V26.896H273.322ZM273.642 24.352C273.642 24.4907 273.613 24.6213 273.554 24.744C273.501 24.8613 273.426 24.968 273.33 25.064C273.24 25.1547 273.133 25.2267 273.01 25.28C272.888 25.3333 272.757 25.36 272.618 25.36C272.48 25.36 272.349 25.3333 272.226 25.28C272.109 25.2267 272.002 25.1547 271.906 25.064C271.816 24.968 271.744 24.8613 271.69 24.744C271.637 24.6213 271.61 24.4907 271.61 24.352C271.61 24.2133 271.637 24.0827 271.69 23.96C271.744 23.832 271.816 23.7227 271.906 23.632C272.002 23.536 272.109 23.4613 272.226 23.408C272.349 23.3547 272.48 23.328 272.618 23.328C272.757 23.328 272.888 23.3547 273.01 23.408C273.133 23.4613 273.24 23.536 273.33 23.632C273.426 23.7227 273.501 23.832 273.554 23.96C273.613 24.0827 273.642 24.2133 273.642 24.352ZM279.04 26.768C279.525 26.768 279.973 26.8507 280.384 27.016C280.795 27.176 281.149 27.4107 281.448 27.72C281.747 28.024 281.979 28.4027 282.144 28.856C282.315 29.304 282.4 29.816 282.4 30.392C282.4 30.616 282.376 30.7653 282.328 30.84C282.28 30.9147 282.189 30.952 282.056 30.952H276.664C276.675 31.464 276.744 31.9093 276.872 32.288C277 32.6667 277.176 32.984 277.4 33.24C277.624 33.4907 277.891 33.68 278.2 33.808C278.509 33.9307 278.856 33.992 279.24 33.992C279.597 33.992 279.904 33.952 280.16 33.872C280.421 33.7867 280.645 33.696 280.832 33.6C281.019 33.504 281.173 33.416 281.296 33.336C281.424 33.2507 281.533 33.208 281.624 33.208C281.741 33.208 281.832 33.2533 281.896 33.344L282.296 33.864C282.12 34.0773 281.909 34.264 281.664 34.424C281.419 34.5787 281.155 34.7067 280.872 34.808C280.595 34.9093 280.307 34.984 280.008 35.032C279.709 35.0853 279.413 35.112 279.12 35.112C278.56 35.112 278.043 35.0187 277.568 34.832C277.099 34.64 276.691 34.3627 276.344 34C276.003 33.632 275.736 33.1787 275.544 32.64C275.352 32.1013 275.256 31.4827 275.256 30.784C275.256 30.2187 275.341 29.6907 275.512 29.2C275.688 28.7093 275.939 28.2853 276.264 27.928C276.589 27.5653 276.987 27.2827 277.456 27.08C277.925 26.872 278.453 26.768 279.04 26.768ZM279.072 27.816C278.384 27.816 277.843 28.016 277.448 28.416C277.053 28.8107 276.808 29.36 276.712 30.064H281.12C281.12 29.7333 281.075 29.432 280.984 29.16C280.893 28.8827 280.76 28.6453 280.584 28.448C280.408 28.2453 280.192 28.0907 279.936 27.984C279.685 27.872 279.397 27.816 279.072 27.816ZM283.167 26.896H284.287C284.404 26.896 284.5 26.9253 284.575 26.984C284.649 27.0427 284.7 27.112 284.727 27.192L286.279 32.408C286.321 32.6 286.361 32.7867 286.399 32.968C286.436 33.144 286.468 33.3227 286.495 33.504C286.537 33.3227 286.585 33.144 286.639 32.968C286.692 32.7867 286.748 32.6 286.807 32.408L288.519 27.16C288.545 27.08 288.591 27.0133 288.655 26.96C288.724 26.9067 288.809 26.88 288.911 26.88H289.527C289.633 26.88 289.721 26.9067 289.791 26.96C289.86 27.0133 289.908 27.08 289.935 27.16L291.607 32.408C291.665 32.5947 291.716 32.7787 291.759 32.96C291.807 33.1413 291.852 33.32 291.895 33.496C291.921 33.32 291.956 33.136 291.999 32.944C292.041 32.752 292.087 32.5733 292.135 32.408L293.719 27.192C293.745 27.1067 293.796 27.0373 293.871 26.984C293.945 26.9253 294.033 26.896 294.135 26.896H295.207L292.583 35H291.455C291.316 35 291.22 34.9093 291.167 34.728L289.375 29.232C289.332 29.1093 289.297 28.9867 289.271 28.864C289.244 28.736 289.217 28.6107 289.191 28.488C289.164 28.6107 289.137 28.736 289.111 28.864C289.084 28.992 289.049 29.1173 289.007 29.24L287.191 34.728C287.132 34.9093 287.023 35 286.863 35H285.791L283.167 26.896Z" fill="white"/>
<path d="M16 30C16 21.1634 23.1634 14 32 14V14C40.8366 14 48 21.1634 48 30V30C48 38.8366 40.8366 46 32 46V46C23.1634 46 16 38.8366 16 30V30Z" fill="#C2D95D"/>
<path d="M29.8182 36.5454L40 24.909" stroke="white" stroke-width="2.5" stroke-miterlimit="10" stroke-linecap="round"/>
<path d="M24.7273 31.4546L26.1818 32.9091L29.0909 35.8182" stroke="white" stroke-width="2.5" stroke-miterlimit="10" stroke-linecap="round"/>
</svg>
