<svg width="390" height="60" viewBox="0 0 390 60" fill="none" xmlns="http://www.w3.org/2000/svg">
<rect width="390" height="60" rx="30" fill="#3F3F3F"/>
<path d="M72.2 24.536V25.84H68.496V36H66.944V25.84H63.224V24.536H72.2ZM73.6055 36V24.216H75.0295V28.984C75.3762 28.616 75.7602 28.3227 76.1815 28.104C76.6028 27.88 77.0882 27.768 77.6375 27.768C78.0802 27.768 78.4695 27.8427 78.8055 27.992C79.1468 28.136 79.4295 28.344 79.6535 28.616C79.8828 28.8827 80.0562 29.2053 80.1735 29.584C80.2908 29.9627 80.3495 30.3813 80.3495 30.84V36H78.9255V30.84C78.9255 30.2267 78.7842 29.752 78.5015 29.416C78.2242 29.0747 77.7975 28.904 77.2215 28.904C76.8002 28.904 76.4055 29.0053 76.0375 29.208C75.6748 29.4107 75.3388 29.6853 75.0295 30.032V36H73.6055ZM84.0801 27.896V36H82.6561V27.896H84.0801ZM84.4001 25.352C84.4001 25.4907 84.3708 25.6213 84.3121 25.744C84.2588 25.8613 84.1841 25.968 84.0881 26.064C83.9975 26.1547 83.8908 26.2267 83.7681 26.28C83.6455 26.3333 83.5148 26.36 83.3761 26.36C83.2375 26.36 83.1068 26.3333 82.9841 26.28C82.8668 26.2267 82.7601 26.1547 82.6641 26.064C82.5735 25.968 82.5015 25.8613 82.4481 25.744C82.3948 25.6213 82.3681 25.4907 82.3681 25.352C82.3681 25.2133 82.3948 25.0827 82.4481 24.96C82.5015 24.832 82.5735 24.7227 82.6641 24.632C82.7601 24.536 82.8668 24.4613 82.9841 24.408C83.1068 24.3547 83.2375 24.328 83.3761 24.328C83.5148 24.328 83.6455 24.3547 83.7681 24.408C83.8908 24.4613 83.9975 24.536 84.0881 24.632C84.1841 24.7227 84.2588 24.832 84.3121 24.96C84.3708 25.0827 84.4001 25.2133 84.4001 25.352ZM91.2299 29.232C91.1659 29.3493 91.0672 29.408 90.9339 29.408C90.8539 29.408 90.7632 29.3787 90.6619 29.32C90.5605 29.2613 90.4352 29.1973 90.2859 29.128C90.1419 29.0533 89.9685 28.9867 89.7659 28.928C89.5632 28.864 89.3232 28.832 89.0459 28.832C88.8059 28.832 88.5899 28.864 88.3979 28.928C88.2059 28.9867 88.0405 29.0693 87.9019 29.176C87.7685 29.2827 87.6645 29.408 87.5899 29.552C87.5205 29.6907 87.4859 29.8427 87.4859 30.008C87.4859 30.216 87.5445 30.3893 87.6619 30.528C87.7845 30.6667 87.9445 30.7867 88.1419 30.888C88.3392 30.9893 88.5632 31.08 88.8139 31.16C89.0645 31.2347 89.3205 31.3173 89.5819 31.408C89.8485 31.4933 90.1072 31.5893 90.3579 31.696C90.6085 31.8027 90.8325 31.936 91.0299 32.096C91.2272 32.256 91.3845 32.4533 91.5019 32.688C91.6245 32.9173 91.6859 33.1947 91.6859 33.52C91.6859 33.8933 91.6192 34.24 91.4859 34.56C91.3525 34.8747 91.1552 35.1493 90.8939 35.384C90.6325 35.6133 90.3125 35.7947 89.9339 35.928C89.5552 36.0613 89.1179 36.128 88.6219 36.128C88.0565 36.128 87.5445 36.0373 87.0859 35.856C86.6272 35.6693 86.2379 35.432 85.9179 35.144L86.2539 34.6C86.2965 34.5307 86.3472 34.4773 86.4059 34.44C86.4645 34.4027 86.5419 34.384 86.6379 34.384C86.7339 34.384 86.8352 34.4213 86.9419 34.496C87.0485 34.5707 87.1765 34.6533 87.3259 34.744C87.4805 34.8347 87.6645 34.9173 87.8779 34.992C88.0965 35.0667 88.3685 35.104 88.6939 35.104C88.9712 35.104 89.2139 35.0693 89.4219 35C89.6299 34.9253 89.8032 34.8267 89.9419 34.704C90.0805 34.5813 90.1819 34.44 90.2459 34.28C90.3152 34.12 90.3499 33.9493 90.3499 33.768C90.3499 33.544 90.2885 33.36 90.1659 33.216C90.0485 33.0667 89.8912 32.9413 89.6939 32.84C89.4965 32.7333 89.2699 32.6427 89.0139 32.568C88.7632 32.488 88.5045 32.4053 88.2379 32.32C87.9765 32.2347 87.7179 32.1387 87.4619 32.032C87.2112 31.92 86.9872 31.7813 86.7899 31.616C86.5925 31.4507 86.4325 31.248 86.3099 31.008C86.1925 30.7627 86.1339 30.4667 86.1339 30.12C86.1339 29.8107 86.1979 29.5147 86.3259 29.232C86.4539 28.944 86.6405 28.6933 86.8859 28.48C87.1312 28.2613 87.4325 28.088 87.7899 27.96C88.1472 27.832 88.5552 27.768 89.0139 27.768C89.5472 27.768 90.0245 27.8533 90.4459 28.024C90.8725 28.1893 91.2405 28.4187 91.5499 28.712L91.2299 29.232ZM98.2051 27.896V36H96.7811V27.896H98.2051ZM98.5251 25.352C98.5251 25.4907 98.4958 25.6213 98.4371 25.744C98.3838 25.8613 98.3091 25.968 98.2131 26.064C98.1225 26.1547 98.0158 26.2267 97.8931 26.28C97.7705 26.3333 97.6398 26.36 97.5011 26.36C97.3625 26.36 97.2318 26.3333 97.1091 26.28C96.9918 26.2267 96.8851 26.1547 96.7891 26.064C96.6985 25.968 96.6265 25.8613 96.5731 25.744C96.5198 25.6213 96.4931 25.4907 96.4931 25.352C96.4931 25.2133 96.5198 25.0827 96.5731 24.96C96.6265 24.832 96.6985 24.7227 96.7891 24.632C96.8851 24.536 96.9918 24.4613 97.1091 24.408C97.2318 24.3547 97.3625 24.328 97.5011 24.328C97.6398 24.328 97.7705 24.3547 97.8931 24.408C98.0158 24.4613 98.1225 24.536 98.2131 24.632C98.3091 24.7227 98.3838 24.832 98.4371 24.96C98.4958 25.0827 98.5251 25.2133 98.5251 25.352ZM105.355 29.232C105.291 29.3493 105.192 29.408 105.059 29.408C104.979 29.408 104.888 29.3787 104.787 29.32C104.686 29.2613 104.56 29.1973 104.411 29.128C104.267 29.0533 104.094 28.9867 103.891 28.928C103.688 28.864 103.448 28.832 103.171 28.832C102.931 28.832 102.715 28.864 102.523 28.928C102.331 28.9867 102.166 29.0693 102.027 29.176C101.894 29.2827 101.79 29.408 101.715 29.552C101.646 29.6907 101.611 29.8427 101.611 30.008C101.611 30.216 101.67 30.3893 101.787 30.528C101.91 30.6667 102.07 30.7867 102.267 30.888C102.464 30.9893 102.688 31.08 102.939 31.16C103.19 31.2347 103.446 31.3173 103.707 31.408C103.974 31.4933 104.232 31.5893 104.483 31.696C104.734 31.8027 104.958 31.936 105.155 32.096C105.352 32.256 105.51 32.4533 105.627 32.688C105.75 32.9173 105.811 33.1947 105.811 33.52C105.811 33.8933 105.744 34.24 105.611 34.56C105.478 34.8747 105.28 35.1493 105.019 35.384C104.758 35.6133 104.438 35.7947 104.059 35.928C103.68 36.0613 103.243 36.128 102.747 36.128C102.182 36.128 101.67 36.0373 101.211 35.856C100.752 35.6693 100.363 35.432 100.043 35.144L100.379 34.6C100.422 34.5307 100.472 34.4773 100.531 34.44C100.59 34.4027 100.667 34.384 100.763 34.384C100.859 34.384 100.96 34.4213 101.067 34.496C101.174 34.5707 101.302 34.6533 101.451 34.744C101.606 34.8347 101.79 34.9173 102.003 34.992C102.222 35.0667 102.494 35.104 102.819 35.104C103.096 35.104 103.339 35.0693 103.547 35C103.755 34.9253 103.928 34.8267 104.067 34.704C104.206 34.5813 104.307 34.44 104.371 34.28C104.44 34.12 104.475 33.9493 104.475 33.768C104.475 33.544 104.414 33.36 104.291 33.216C104.174 33.0667 104.016 32.9413 103.819 32.84C103.622 32.7333 103.395 32.6427 103.139 32.568C102.888 32.488 102.63 32.4053 102.363 32.32C102.102 32.2347 101.843 32.1387 101.587 32.032C101.336 31.92 101.112 31.7813 100.915 31.616C100.718 31.4507 100.558 31.248 100.435 31.008C100.318 30.7627 100.259 30.4667 100.259 30.12C100.259 29.8107 100.323 29.5147 100.451 29.232C100.579 28.944 100.766 28.6933 101.011 28.48C101.256 28.2613 101.558 28.088 101.915 27.96C102.272 27.832 102.68 27.768 103.139 27.768C103.672 27.768 104.15 27.8533 104.571 28.024C104.998 28.1893 105.366 28.4187 105.675 28.712L105.355 29.232ZM116.698 36H116.066C115.927 36 115.815 35.9787 115.73 35.936C115.645 35.8933 115.589 35.8027 115.562 35.664L115.402 34.912C115.189 35.104 114.981 35.2773 114.778 35.432C114.575 35.5813 114.362 35.7093 114.138 35.816C113.914 35.9173 113.674 35.9947 113.418 36.048C113.167 36.1013 112.887 36.128 112.578 36.128C112.263 36.128 111.967 36.0853 111.69 36C111.418 35.9093 111.181 35.776 110.978 35.6C110.775 35.424 110.613 35.2027 110.49 34.936C110.373 34.664 110.314 34.344 110.314 33.976C110.314 33.656 110.402 33.3493 110.578 33.056C110.754 32.7573 111.037 32.4933 111.426 32.264C111.821 32.0347 112.335 31.848 112.97 31.704C113.605 31.5547 114.381 31.4693 115.298 31.448V30.816C115.298 30.1867 115.162 29.712 114.89 29.392C114.623 29.0667 114.226 28.904 113.698 28.904C113.351 28.904 113.058 28.9493 112.818 29.04C112.583 29.1253 112.378 29.224 112.202 29.336C112.031 29.4427 111.882 29.5413 111.754 29.632C111.631 29.7173 111.509 29.76 111.386 29.76C111.29 29.76 111.205 29.736 111.13 29.688C111.061 29.6347 111.005 29.5707 110.962 29.496L110.706 29.04C111.154 28.608 111.637 28.2853 112.154 28.072C112.671 27.8587 113.245 27.752 113.874 27.752C114.327 27.752 114.73 27.8267 115.082 27.976C115.434 28.1253 115.73 28.3333 115.97 28.6C116.21 28.8667 116.391 29.1893 116.514 29.568C116.637 29.9467 116.698 30.3627 116.698 30.816V36ZM113.002 35.128C113.253 35.128 113.482 35.104 113.69 35.056C113.898 35.0027 114.093 34.9307 114.274 34.84C114.461 34.744 114.637 34.6293 114.802 34.496C114.973 34.3627 115.138 34.2107 115.298 34.04V32.352C114.642 32.3733 114.085 32.4267 113.626 32.512C113.167 32.592 112.794 32.6987 112.506 32.832C112.218 32.9653 112.007 33.1227 111.874 33.304C111.746 33.4853 111.682 33.688 111.682 33.912C111.682 34.1253 111.717 34.3093 111.786 34.464C111.855 34.6187 111.949 34.7467 112.066 34.848C112.183 34.944 112.322 35.016 112.482 35.064C112.642 35.1067 112.815 35.128 113.002 35.128ZM120.893 27.896H122.013C122.131 27.896 122.227 27.9253 122.301 27.984C122.376 28.0427 122.427 28.112 122.453 28.192L124.005 33.408C124.048 33.6 124.088 33.7867 124.125 33.968C124.163 34.144 124.195 34.3227 124.221 34.504C124.264 34.3227 124.312 34.144 124.365 33.968C124.419 33.7867 124.475 33.6 124.533 33.408L126.245 28.16C126.272 28.08 126.317 28.0133 126.381 27.96C126.451 27.9067 126.536 27.88 126.637 27.88H127.253C127.36 27.88 127.448 27.9067 127.517 27.96C127.587 28.0133 127.635 28.08 127.661 28.16L129.333 33.408C129.392 33.5947 129.443 33.7787 129.485 33.96C129.533 34.1413 129.579 34.32 129.621 34.496C129.648 34.32 129.683 34.136 129.725 33.944C129.768 33.752 129.813 33.5733 129.861 33.408L131.445 28.192C131.472 28.1067 131.523 28.0373 131.597 27.984C131.672 27.9253 131.76 27.896 131.861 27.896H132.933L130.309 36H129.181C129.043 36 128.947 35.9093 128.893 35.728L127.101 30.232C127.059 30.1093 127.024 29.9867 126.997 29.864C126.971 29.736 126.944 29.6107 126.917 29.488C126.891 29.6107 126.864 29.736 126.837 29.864C126.811 29.992 126.776 30.1173 126.733 30.24L124.917 35.728C124.859 35.9093 124.749 36 124.589 36H123.517L120.893 27.896ZM140.151 36H139.519C139.381 36 139.269 35.9787 139.183 35.936C139.098 35.8933 139.042 35.8027 139.015 35.664L138.855 34.912C138.642 35.104 138.434 35.2773 138.231 35.432C138.029 35.5813 137.815 35.7093 137.591 35.816C137.367 35.9173 137.127 35.9947 136.871 36.048C136.621 36.1013 136.341 36.128 136.031 36.128C135.717 36.128 135.421 36.0853 135.143 36C134.871 35.9093 134.634 35.776 134.431 35.6C134.229 35.424 134.066 35.2027 133.943 34.936C133.826 34.664 133.767 34.344 133.767 33.976C133.767 33.656 133.855 33.3493 134.031 33.056C134.207 32.7573 134.49 32.4933 134.879 32.264C135.274 32.0347 135.789 31.848 136.423 31.704C137.058 31.5547 137.834 31.4693 138.751 31.448V30.816C138.751 30.1867 138.615 29.712 138.343 29.392C138.077 29.0667 137.679 28.904 137.151 28.904C136.805 28.904 136.511 28.9493 136.271 29.04C136.037 29.1253 135.831 29.224 135.655 29.336C135.485 29.4427 135.335 29.5413 135.207 29.632C135.085 29.7173 134.962 29.76 134.839 29.76C134.743 29.76 134.658 29.736 134.583 29.688C134.514 29.6347 134.458 29.5707 134.415 29.496L134.159 29.04C134.607 28.608 135.09 28.2853 135.607 28.072C136.125 27.8587 136.698 27.752 137.327 27.752C137.781 27.752 138.183 27.8267 138.535 27.976C138.887 28.1253 139.183 28.3333 139.423 28.6C139.663 28.8667 139.845 29.1893 139.967 29.568C140.09 29.9467 140.151 30.3627 140.151 30.816V36ZM136.455 35.128C136.706 35.128 136.935 35.104 137.143 35.056C137.351 35.0027 137.546 34.9307 137.727 34.84C137.914 34.744 138.09 34.6293 138.255 34.496C138.426 34.3627 138.591 34.2107 138.751 34.04V32.352C138.095 32.3733 137.538 32.4267 137.079 32.512C136.621 32.592 136.247 32.6987 135.959 32.832C135.671 32.9653 135.461 33.1227 135.327 33.304C135.199 33.4853 135.135 33.688 135.135 33.912C135.135 34.1253 135.17 34.3093 135.239 34.464C135.309 34.6187 135.402 34.7467 135.519 34.848C135.637 34.944 135.775 35.016 135.935 35.064C136.095 35.1067 136.269 35.128 136.455 35.128ZM142.309 36V27.896H143.125C143.279 27.896 143.386 27.9253 143.445 27.984C143.503 28.0427 143.543 28.144 143.565 28.288L143.661 29.552C143.938 28.9867 144.279 28.5467 144.685 28.232C145.095 27.912 145.575 27.752 146.125 27.752C146.349 27.752 146.551 27.7787 146.733 27.832C146.914 27.88 147.082 27.9493 147.237 28.04L147.053 29.104C147.015 29.2373 146.933 29.304 146.805 29.304C146.73 29.304 146.615 29.28 146.461 29.232C146.306 29.1787 146.09 29.152 145.813 29.152C145.317 29.152 144.901 29.296 144.565 29.584C144.234 29.872 143.957 30.2907 143.733 30.84V36H142.309ZM148.762 36V27.896H149.61C149.812 27.896 149.94 27.9947 149.994 28.192L150.106 29.072C150.458 28.6827 150.85 28.368 151.282 28.128C151.719 27.888 152.223 27.768 152.794 27.768C153.236 27.768 153.626 27.8427 153.962 27.992C154.303 28.136 154.586 28.344 154.81 28.616C155.039 28.8827 155.212 29.2053 155.33 29.584C155.447 29.9627 155.506 30.3813 155.506 30.84V36H154.082V30.84C154.082 30.2267 153.94 29.752 153.658 29.416C153.38 29.0747 152.954 28.904 152.378 28.904C151.956 28.904 151.562 29.0053 151.194 29.208C150.831 29.4107 150.495 29.6853 150.186 30.032V36H148.762ZM159.236 27.896V36H157.812V27.896H159.236ZM159.556 25.352C159.556 25.4907 159.527 25.6213 159.468 25.744C159.415 25.8613 159.34 25.968 159.244 26.064C159.154 26.1547 159.047 26.2267 158.924 26.28C158.802 26.3333 158.671 26.36 158.532 26.36C158.394 26.36 158.263 26.3333 158.14 26.28C158.023 26.2267 157.916 26.1547 157.82 26.064C157.73 25.968 157.658 25.8613 157.604 25.744C157.551 25.6213 157.524 25.4907 157.524 25.352C157.524 25.2133 157.551 25.0827 157.604 24.96C157.658 24.832 157.73 24.7227 157.82 24.632C157.916 24.536 158.023 24.4613 158.14 24.408C158.263 24.3547 158.394 24.328 158.532 24.328C158.671 24.328 158.802 24.3547 158.924 24.408C159.047 24.4613 159.154 24.536 159.244 24.632C159.34 24.7227 159.415 24.832 159.468 24.96C159.527 25.0827 159.556 25.2133 159.556 25.352ZM161.746 36V27.896H162.594C162.797 27.896 162.925 27.9947 162.978 28.192L163.09 29.072C163.442 28.6827 163.834 28.368 164.266 28.128C164.703 27.888 165.207 27.768 165.778 27.768C166.221 27.768 166.61 27.8427 166.946 27.992C167.287 28.136 167.57 28.344 167.794 28.616C168.023 28.8827 168.197 29.2053 168.314 29.584C168.431 29.9627 168.49 30.3813 168.49 30.84V36H167.066V30.84C167.066 30.2267 166.925 29.752 166.642 29.416C166.365 29.0747 165.938 28.904 165.362 28.904C164.941 28.904 164.546 29.0053 164.178 29.208C163.815 29.4107 163.479 29.6853 163.17 30.032V36H161.746ZM173.365 27.76C173.717 27.76 174.045 27.8 174.349 27.88C174.658 27.9547 174.938 28.0667 175.189 28.216H177.389V28.744C177.389 28.92 177.277 29.032 177.053 29.08L176.133 29.208C176.314 29.5547 176.405 29.9413 176.405 30.368C176.405 30.7627 176.327 31.1227 176.173 31.448C176.023 31.768 175.813 32.0427 175.541 32.272C175.274 32.5013 174.954 32.6773 174.581 32.8C174.213 32.9227 173.807 32.984 173.365 32.984C172.986 32.984 172.629 32.9387 172.293 32.848C172.122 32.9547 171.991 33.0693 171.901 33.192C171.815 33.3147 171.773 33.4347 171.773 33.552C171.773 33.744 171.85 33.8907 172.005 33.992C172.159 34.088 172.365 34.1573 172.621 34.2C172.877 34.2427 173.167 34.2693 173.493 34.28C173.818 34.2907 174.149 34.3093 174.485 34.336C174.826 34.3573 175.159 34.3973 175.485 34.456C175.81 34.5147 176.101 34.6107 176.357 34.744C176.613 34.8773 176.818 35.0613 176.973 35.296C177.127 35.5307 177.205 35.8347 177.205 36.208C177.205 36.5547 177.117 36.8907 176.941 37.216C176.77 37.5413 176.522 37.8293 176.197 38.08C175.871 38.336 175.474 38.5387 175.005 38.688C174.535 38.8427 174.005 38.92 173.413 38.92C172.821 38.92 172.301 38.8613 171.853 38.744C171.41 38.6267 171.042 38.4693 170.749 38.272C170.455 38.0747 170.234 37.8453 170.085 37.584C169.941 37.328 169.869 37.0587 169.869 36.776C169.869 36.376 169.994 36.0373 170.245 35.76C170.501 35.4773 170.85 35.2533 171.293 35.088C171.063 34.9813 170.879 34.84 170.741 34.664C170.607 34.4827 170.541 34.2427 170.541 33.944C170.541 33.8267 170.562 33.7067 170.605 33.584C170.647 33.456 170.711 33.3307 170.797 33.208C170.887 33.0853 170.997 32.968 171.125 32.856C171.253 32.744 171.402 32.6453 171.573 32.56C171.173 32.336 170.858 32.04 170.629 31.672C170.405 31.2987 170.293 30.864 170.293 30.368C170.293 29.9733 170.367 29.616 170.517 29.296C170.671 28.9707 170.885 28.696 171.157 28.472C171.429 28.2427 171.751 28.0667 172.125 27.944C172.503 27.8213 172.917 27.76 173.365 27.76ZM175.893 36.44C175.893 36.2373 175.837 36.0747 175.725 35.952C175.613 35.8293 175.461 35.736 175.269 35.672C175.077 35.6027 174.855 35.552 174.605 35.52C174.354 35.488 174.09 35.4667 173.813 35.456C173.535 35.44 173.253 35.424 172.965 35.408C172.677 35.392 172.402 35.3627 172.141 35.32C171.837 35.464 171.589 35.64 171.397 35.848C171.21 36.056 171.117 36.304 171.117 36.592C171.117 36.7733 171.162 36.9413 171.253 37.096C171.349 37.256 171.493 37.392 171.685 37.504C171.877 37.6213 172.117 37.712 172.405 37.776C172.698 37.8453 173.042 37.88 173.437 37.88C173.821 37.88 174.165 37.8453 174.469 37.776C174.773 37.7067 175.029 37.608 175.237 37.48C175.45 37.352 175.613 37.2 175.725 37.024C175.837 36.848 175.893 36.6533 175.893 36.44ZM173.365 32.04C173.653 32.04 173.906 32 174.125 31.92C174.349 31.84 174.535 31.728 174.685 31.584C174.834 31.44 174.946 31.2693 175.021 31.072C175.095 30.8693 175.133 30.648 175.133 30.408C175.133 29.912 174.981 29.5173 174.677 29.224C174.378 28.9307 173.941 28.784 173.365 28.784C172.794 28.784 172.357 28.9307 172.053 29.224C171.754 29.5173 171.605 29.912 171.605 30.408C171.605 30.648 171.642 30.8693 171.717 31.072C171.797 31.2693 171.911 31.44 172.061 31.584C172.21 31.728 172.394 31.84 172.613 31.92C172.831 32 173.082 32.04 173.365 32.04ZM184.358 36.128C183.718 36.128 183.225 35.9493 182.878 35.592C182.537 35.2347 182.366 34.72 182.366 34.048V29.088H181.39C181.305 29.088 181.233 29.064 181.174 29.016C181.116 28.9627 181.086 28.8827 181.086 28.776V28.208L182.414 28.04L182.742 25.536C182.753 25.456 182.788 25.392 182.846 25.344C182.905 25.2907 182.98 25.264 183.07 25.264H183.79V28.056H186.11V29.088H183.79V33.952C183.79 34.2933 183.873 34.5467 184.038 34.712C184.204 34.8773 184.417 34.96 184.678 34.96C184.828 34.96 184.956 34.9413 185.062 34.904C185.174 34.8613 185.27 34.816 185.35 34.768C185.43 34.72 185.497 34.6773 185.55 34.64C185.609 34.5973 185.66 34.576 185.702 34.576C185.777 34.576 185.844 34.6213 185.902 34.712L186.318 35.392C186.073 35.6213 185.777 35.8027 185.43 35.936C185.084 36.064 184.726 36.128 184.358 36.128ZM191.151 27.768C191.743 27.768 192.276 27.8667 192.751 28.064C193.231 28.2613 193.636 28.5413 193.967 28.904C194.303 29.2667 194.559 29.7067 194.735 30.224C194.916 30.736 195.007 31.3093 195.007 31.944C195.007 32.584 194.916 33.16 194.735 33.672C194.559 34.184 194.303 34.6213 193.967 34.984C193.636 35.3467 193.231 35.6267 192.751 35.824C192.276 36.016 191.743 36.112 191.151 36.112C190.559 36.112 190.023 36.016 189.543 35.824C189.068 35.6267 188.663 35.3467 188.327 34.984C187.991 34.6213 187.732 34.184 187.551 33.672C187.37 33.16 187.279 32.584 187.279 31.944C187.279 31.3093 187.37 30.736 187.551 30.224C187.732 29.7067 187.991 29.2667 188.327 28.904C188.663 28.5413 189.068 28.2613 189.543 28.064C190.023 27.8667 190.559 27.768 191.151 27.768ZM191.151 35C191.951 35 192.548 34.7333 192.943 34.2C193.338 33.6613 193.535 32.912 193.535 31.952C193.535 30.9867 193.338 30.2347 192.943 29.696C192.548 29.1573 191.951 28.888 191.151 28.888C190.746 28.888 190.394 28.9573 190.095 29.096C189.796 29.2347 189.546 29.4347 189.343 29.696C189.146 29.9573 188.996 30.28 188.895 30.664C188.799 31.0427 188.751 31.472 188.751 31.952C188.751 32.432 188.799 32.8613 188.895 33.24C188.996 33.6187 189.146 33.9387 189.343 34.2C189.546 34.456 189.796 34.6533 190.095 34.792C190.394 34.9307 190.746 35 191.151 35ZM202.714 36H202.082C201.943 36 201.831 35.9787 201.746 35.936C201.66 35.8933 201.604 35.8027 201.578 35.664L201.418 34.912C201.204 35.104 200.996 35.2773 200.794 35.432C200.591 35.5813 200.378 35.7093 200.154 35.816C199.93 35.9173 199.69 35.9947 199.434 36.048C199.183 36.1013 198.903 36.128 198.594 36.128C198.279 36.128 197.983 36.0853 197.706 36C197.434 35.9093 197.196 35.776 196.994 35.6C196.791 35.424 196.628 35.2027 196.506 34.936C196.388 34.664 196.33 34.344 196.33 33.976C196.33 33.656 196.418 33.3493 196.594 33.056C196.77 32.7573 197.052 32.4933 197.442 32.264C197.836 32.0347 198.351 31.848 198.986 31.704C199.62 31.5547 200.396 31.4693 201.314 31.448V30.816C201.314 30.1867 201.178 29.712 200.906 29.392C200.639 29.0667 200.242 28.904 199.714 28.904C199.367 28.904 199.074 28.9493 198.834 29.04C198.599 29.1253 198.394 29.224 198.218 29.336C198.047 29.4427 197.898 29.5413 197.77 29.632C197.647 29.7173 197.524 29.76 197.402 29.76C197.306 29.76 197.22 29.736 197.146 29.688C197.076 29.6347 197.02 29.5707 196.978 29.496L196.722 29.04C197.17 28.608 197.652 28.2853 198.17 28.072C198.687 27.8587 199.26 27.752 199.89 27.752C200.343 27.752 200.746 27.8267 201.098 27.976C201.45 28.1253 201.746 28.3333 201.986 28.6C202.226 28.8667 202.407 29.1893 202.53 29.568C202.652 29.9467 202.714 30.3627 202.714 30.816V36ZM199.018 35.128C199.268 35.128 199.498 35.104 199.706 35.056C199.914 35.0027 200.108 34.9307 200.29 34.84C200.476 34.744 200.652 34.6293 200.818 34.496C200.988 34.3627 201.154 34.2107 201.314 34.04V32.352C200.658 32.3733 200.1 32.4267 199.642 32.512C199.183 32.592 198.81 32.6987 198.522 32.832C198.234 32.9653 198.023 33.1227 197.89 33.304C197.762 33.4853 197.698 33.688 197.698 33.912C197.698 34.1253 197.732 34.3093 197.802 34.464C197.871 34.6187 197.964 34.7467 198.082 34.848C198.199 34.944 198.338 35.016 198.498 35.064C198.658 35.1067 198.831 35.128 199.018 35.128ZM209.511 29.232C209.447 29.3493 209.348 29.408 209.215 29.408C209.135 29.408 209.044 29.3787 208.943 29.32C208.842 29.2613 208.716 29.1973 208.567 29.128C208.423 29.0533 208.25 28.9867 208.047 28.928C207.844 28.864 207.604 28.832 207.327 28.832C207.087 28.832 206.871 28.864 206.679 28.928C206.487 28.9867 206.322 29.0693 206.183 29.176C206.05 29.2827 205.946 29.408 205.871 29.552C205.802 29.6907 205.767 29.8427 205.767 30.008C205.767 30.216 205.826 30.3893 205.943 30.528C206.066 30.6667 206.226 30.7867 206.423 30.888C206.62 30.9893 206.844 31.08 207.095 31.16C207.346 31.2347 207.602 31.3173 207.863 31.408C208.13 31.4933 208.388 31.5893 208.639 31.696C208.89 31.8027 209.114 31.936 209.311 32.096C209.508 32.256 209.666 32.4533 209.783 32.688C209.906 32.9173 209.967 33.1947 209.967 33.52C209.967 33.8933 209.9 34.24 209.767 34.56C209.634 34.8747 209.436 35.1493 209.175 35.384C208.914 35.6133 208.594 35.7947 208.215 35.928C207.836 36.0613 207.399 36.128 206.903 36.128C206.338 36.128 205.826 36.0373 205.367 35.856C204.908 35.6693 204.519 35.432 204.199 35.144L204.535 34.6C204.578 34.5307 204.628 34.4773 204.687 34.44C204.746 34.4027 204.823 34.384 204.919 34.384C205.015 34.384 205.116 34.4213 205.223 34.496C205.33 34.5707 205.458 34.6533 205.607 34.744C205.762 34.8347 205.946 34.9173 206.159 34.992C206.378 35.0667 206.65 35.104 206.975 35.104C207.252 35.104 207.495 35.0693 207.703 35C207.911 34.9253 208.084 34.8267 208.223 34.704C208.362 34.5813 208.463 34.44 208.527 34.28C208.596 34.12 208.631 33.9493 208.631 33.768C208.631 33.544 208.57 33.36 208.447 33.216C208.33 33.0667 208.172 32.9413 207.975 32.84C207.778 32.7333 207.551 32.6427 207.295 32.568C207.044 32.488 206.786 32.4053 206.519 32.32C206.258 32.2347 205.999 32.1387 205.743 32.032C205.492 31.92 205.268 31.7813 205.071 31.616C204.874 31.4507 204.714 31.248 204.591 31.008C204.474 30.7627 204.415 30.4667 204.415 30.12C204.415 29.8107 204.479 29.5147 204.607 29.232C204.735 28.944 204.922 28.6933 205.167 28.48C205.412 28.2613 205.714 28.088 206.071 27.96C206.428 27.832 206.836 27.768 207.295 27.768C207.828 27.768 208.306 27.8533 208.727 28.024C209.154 28.1893 209.522 28.4187 209.831 28.712L209.511 29.232ZM214.265 36.128C213.625 36.128 213.131 35.9493 212.785 35.592C212.443 35.2347 212.273 34.72 212.273 34.048V29.088H211.297C211.211 29.088 211.139 29.064 211.081 29.016C211.022 28.9627 210.993 28.8827 210.993 28.776V28.208L212.321 28.04L212.649 25.536C212.659 25.456 212.694 25.392 212.753 25.344C212.811 25.2907 212.886 25.264 212.977 25.264H213.697V28.056H216.017V29.088H213.697V33.952C213.697 34.2933 213.779 34.5467 213.945 34.712C214.11 34.8773 214.323 34.96 214.585 34.96C214.734 34.96 214.862 34.9413 214.969 34.904C215.081 34.8613 215.177 34.816 215.257 34.768C215.337 34.72 215.403 34.6773 215.457 34.64C215.515 34.5973 215.566 34.576 215.609 34.576C215.683 34.576 215.75 34.6213 215.809 34.712L216.225 35.392C215.979 35.6213 215.683 35.8027 215.337 35.936C214.99 36.064 214.633 36.128 214.265 36.128Z" fill="white"/>
<rect x="30.0488" y="20.4147" width="4.29269" height="18.7317" fill="white"/>
<path fill-rule="evenodd" clip-rule="evenodd" d="M47.6058 38.9847L32.8397 13.6006C32.71 13.2399 32.3729 13 31.9956 13C31.6183 13 31.2811 13.2399 31.1514 13.6006L16.3853 38.9948C15.9683 39.4453 15.8805 40.1168 16.1674 40.6627C16.4542 41.2085 17.0515 41.5068 17.651 41.4037H46.3341C46.9381 41.5133 47.5427 41.2148 47.8322 40.6641C48.1217 40.1134 48.0304 39.4356 47.6058 38.9847ZM32.0185 38.5483C31.4499 38.5698 30.9254 38.2377 30.693 37.7089C30.4606 37.1801 30.5669 36.5607 30.9616 36.1434C31.3562 35.7261 31.9602 35.5946 32.4879 35.811C33.0157 36.0274 33.3616 36.5484 33.362 37.1277C33.3742 37.8969 32.7739 38.5317 32.0185 38.5483ZM33.362 31.4108C33.3809 31.9117 33.1292 32.383 32.7061 32.6392C32.2829 32.8954 31.756 32.8954 31.3328 32.6392C30.9097 32.383 30.6581 31.9117 30.677 31.4108V22.8365C30.6581 22.3356 30.9097 21.8643 31.3328 21.6081C31.756 21.352 32.2829 21.352 32.7061 21.6081C33.1292 21.8643 33.3809 22.3356 33.362 22.8365V31.4108Z" fill="#FFD236"/>
</svg>
