<svg width="539" height="92" viewBox="0 0 539 92" fill="none" xmlns="http://www.w3.org/2000/svg">
<rect width="92" height="180" transform="matrix(4.48371e-07 -1 -1 -4.26139e-09 539 92)" fill="#C2D95D"/>
<rect width="92" height="180" transform="matrix(4.48371e-07 -1 -1 -4.26139e-09 359 92)" fill="#FFD236"/>
<rect width="92" height="180" transform="matrix(4.48371e-07 -1 -1 -4.26139e-09 180 92)" fill="#FF4944"/>
<path d="M381.264 30.328C381.216 30.408 381.165 30.4693 381.112 30.512C381.059 30.5493 380.989 30.568 380.904 30.568C380.813 30.568 380.707 30.5227 380.584 30.432C380.467 30.3413 380.315 30.2427 380.128 30.136C379.947 30.024 379.725 29.9227 379.464 29.832C379.208 29.7413 378.896 29.696 378.528 29.696C378.181 29.696 377.875 29.744 377.608 29.84C377.341 29.9307 377.117 30.056 376.936 30.216C376.76 30.376 376.627 30.5653 376.536 30.784C376.445 30.9973 376.4 31.2293 376.4 31.48C376.4 31.8 376.477 32.0667 376.632 32.28C376.792 32.488 377 32.6667 377.256 32.816C377.517 32.9653 377.811 33.096 378.136 33.208C378.467 33.3147 378.803 33.4267 379.144 33.544C379.491 33.6613 379.827 33.7947 380.152 33.944C380.483 34.088 380.776 34.272 381.032 34.496C381.293 34.72 381.501 34.9947 381.656 35.32C381.816 35.6453 381.896 36.0453 381.896 36.52C381.896 37.0213 381.811 37.4933 381.64 37.936C381.469 38.3733 381.219 38.7547 380.888 39.08C380.563 39.4053 380.16 39.6613 379.68 39.848C379.205 40.0347 378.664 40.128 378.056 40.128C377.315 40.128 376.637 39.9947 376.024 39.728C375.416 39.456 374.896 39.0907 374.464 38.632L374.912 37.896C374.955 37.8373 375.005 37.7893 375.064 37.752C375.128 37.7093 375.197 37.688 375.272 37.688C375.384 37.688 375.512 37.7493 375.656 37.872C375.8 37.9893 375.979 38.12 376.192 38.264C376.411 38.408 376.672 38.5413 376.976 38.664C377.285 38.7813 377.661 38.84 378.104 38.84C378.472 38.84 378.8 38.7893 379.088 38.688C379.376 38.5867 379.619 38.4453 379.816 38.264C380.019 38.0773 380.173 37.856 380.28 37.6C380.387 37.344 380.44 37.0587 380.44 36.744C380.44 36.3973 380.36 36.1147 380.2 35.896C380.045 35.672 379.84 35.4853 379.584 35.336C379.328 35.1867 379.035 35.0613 378.704 34.96C378.379 34.8533 378.043 34.7467 377.696 34.64C377.355 34.528 377.019 34.4 376.688 34.256C376.363 34.112 376.072 33.9253 375.816 33.696C375.56 33.4667 375.352 33.1813 375.192 32.84C375.037 32.4933 374.96 32.0667 374.96 31.56C374.96 31.1547 375.037 30.7627 375.192 30.384C375.352 30.0053 375.581 29.6693 375.88 29.376C376.179 29.0827 376.547 28.848 376.984 28.672C377.427 28.496 377.933 28.408 378.504 28.408C379.144 28.408 379.728 28.5093 380.256 28.712C380.784 28.9147 381.245 29.208 381.64 29.592L381.264 30.328ZM384.884 31.896V37.064C384.884 37.6773 385.026 38.152 385.308 38.488C385.591 38.824 386.018 38.992 386.588 38.992C387.004 38.992 387.396 38.8933 387.764 38.696C388.132 38.4987 388.471 38.224 388.78 37.872V31.896H390.204V40H389.356C389.154 40 389.026 39.9013 388.972 39.704L388.86 38.832C388.508 39.2213 388.114 39.536 387.676 39.776C387.239 40.0107 386.738 40.128 386.172 40.128C385.73 40.128 385.338 40.056 384.996 39.912C384.66 39.7627 384.378 39.5547 384.148 39.288C383.919 39.0213 383.746 38.6987 383.628 38.32C383.516 37.9413 383.46 37.5227 383.46 37.064V31.896H384.884ZM398.071 33.336C398.028 33.3947 397.986 33.44 397.943 33.472C397.9 33.504 397.839 33.52 397.759 33.52C397.679 33.52 397.591 33.488 397.495 33.424C397.404 33.3547 397.287 33.28 397.143 33.2C396.999 33.12 396.823 33.048 396.615 32.984C396.412 32.9147 396.162 32.88 395.863 32.88C395.468 32.88 395.119 32.952 394.815 33.096C394.511 33.2347 394.255 33.4373 394.047 33.704C393.844 33.9707 393.69 34.2933 393.583 34.672C393.482 35.0507 393.431 35.4747 393.431 35.944C393.431 36.4347 393.487 36.872 393.599 37.256C393.711 37.6347 393.868 37.9547 394.071 38.216C394.274 38.472 394.519 38.6693 394.807 38.808C395.1 38.9413 395.428 39.008 395.791 39.008C396.138 39.008 396.423 38.968 396.647 38.888C396.871 38.8027 397.058 38.7093 397.207 38.608C397.356 38.5067 397.479 38.416 397.575 38.336C397.671 38.2507 397.767 38.208 397.863 38.208C397.986 38.208 398.076 38.2533 398.135 38.344L398.535 38.864C398.183 39.296 397.743 39.6133 397.215 39.816C396.687 40.0133 396.13 40.112 395.543 40.112C395.036 40.112 394.564 40.0187 394.127 39.832C393.695 39.6453 393.319 39.376 392.999 39.024C392.679 38.6667 392.426 38.2293 392.239 37.712C392.058 37.1947 391.967 36.6053 391.967 35.944C391.967 35.3413 392.05 34.784 392.215 34.272C392.386 33.76 392.631 33.32 392.951 32.952C393.276 32.5787 393.676 32.288 394.151 32.08C394.626 31.872 395.17 31.768 395.783 31.768C396.348 31.768 396.85 31.8613 397.287 32.048C397.724 32.2293 398.111 32.488 398.447 32.824L398.071 33.336ZM405.54 33.336C405.497 33.3947 405.454 33.44 405.412 33.472C405.369 33.504 405.308 33.52 405.228 33.52C405.148 33.52 405.06 33.488 404.964 33.424C404.873 33.3547 404.756 33.28 404.612 33.2C404.468 33.12 404.292 33.048 404.084 32.984C403.881 32.9147 403.63 32.88 403.332 32.88C402.937 32.88 402.588 32.952 402.284 33.096C401.98 33.2347 401.724 33.4373 401.516 33.704C401.313 33.9707 401.158 34.2933 401.052 34.672C400.95 35.0507 400.9 35.4747 400.9 35.944C400.9 36.4347 400.956 36.872 401.068 37.256C401.18 37.6347 401.337 37.9547 401.54 38.216C401.742 38.472 401.988 38.6693 402.276 38.808C402.569 38.9413 402.897 39.008 403.26 39.008C403.606 39.008 403.892 38.968 404.116 38.888C404.34 38.8027 404.526 38.7093 404.676 38.608C404.825 38.5067 404.948 38.416 405.044 38.336C405.14 38.2507 405.236 38.208 405.332 38.208C405.454 38.208 405.545 38.2533 405.604 38.344L406.004 38.864C405.652 39.296 405.212 39.6133 404.684 39.816C404.156 40.0133 403.598 40.112 403.012 40.112C402.505 40.112 402.033 40.0187 401.596 39.832C401.164 39.6453 400.788 39.376 400.468 39.024C400.148 38.6667 399.894 38.2293 399.708 37.712C399.526 37.1947 399.436 36.6053 399.436 35.944C399.436 35.3413 399.518 34.784 399.684 34.272C399.854 33.76 400.1 33.32 400.42 32.952C400.745 32.5787 401.145 32.288 401.62 32.08C402.094 31.872 402.638 31.768 403.252 31.768C403.817 31.768 404.318 31.8613 404.756 32.048C405.193 32.2293 405.58 32.488 405.916 32.824L405.54 33.336ZM410.689 31.768C411.174 31.768 411.622 31.8507 412.033 32.016C412.443 32.176 412.798 32.4107 413.097 32.72C413.395 33.024 413.627 33.4027 413.793 33.856C413.963 34.304 414.049 34.816 414.049 35.392C414.049 35.616 414.025 35.7653 413.977 35.84C413.929 35.9147 413.838 35.952 413.705 35.952H408.312C408.323 36.464 408.393 36.9093 408.521 37.288C408.649 37.6667 408.825 37.984 409.049 38.24C409.273 38.4907 409.539 38.68 409.849 38.808C410.158 38.9307 410.505 38.992 410.889 38.992C411.246 38.992 411.553 38.952 411.809 38.872C412.07 38.7867 412.294 38.696 412.481 38.6C412.667 38.504 412.822 38.416 412.945 38.336C413.073 38.2507 413.182 38.208 413.273 38.208C413.39 38.208 413.481 38.2533 413.545 38.344L413.945 38.864C413.769 39.0773 413.558 39.264 413.313 39.424C413.067 39.5787 412.803 39.7067 412.521 39.808C412.243 39.9093 411.955 39.984 411.657 40.032C411.358 40.0853 411.062 40.112 410.769 40.112C410.209 40.112 409.691 40.0187 409.217 39.832C408.747 39.64 408.339 39.3627 407.993 39C407.651 38.632 407.385 38.1787 407.193 37.64C407.001 37.1013 406.905 36.4827 406.905 35.784C406.905 35.2187 406.99 34.6907 407.161 34.2C407.337 33.7093 407.587 33.2853 407.913 32.928C408.238 32.5653 408.635 32.2827 409.105 32.08C409.574 31.872 410.102 31.768 410.689 31.768ZM410.72 32.816C410.033 32.816 409.491 33.016 409.097 33.416C408.702 33.8107 408.457 34.36 408.361 35.064H412.769C412.769 34.7333 412.723 34.432 412.633 34.16C412.542 33.8827 412.409 33.6453 412.233 33.448C412.057 33.2453 411.841 33.0907 411.585 32.984C411.334 32.872 411.046 32.816 410.72 32.816ZM420.511 33.232C420.447 33.3493 420.348 33.408 420.215 33.408C420.135 33.408 420.044 33.3787 419.943 33.32C419.842 33.2613 419.716 33.1973 419.567 33.128C419.423 33.0533 419.25 32.9867 419.047 32.928C418.844 32.864 418.604 32.832 418.327 32.832C418.087 32.832 417.871 32.864 417.679 32.928C417.487 32.9867 417.322 33.0693 417.183 33.176C417.05 33.2827 416.946 33.408 416.871 33.552C416.802 33.6907 416.767 33.8427 416.767 34.008C416.767 34.216 416.826 34.3893 416.943 34.528C417.066 34.6667 417.226 34.7867 417.423 34.888C417.62 34.9893 417.844 35.08 418.095 35.16C418.346 35.2347 418.602 35.3173 418.863 35.408C419.13 35.4933 419.388 35.5893 419.639 35.696C419.89 35.8027 420.114 35.936 420.311 36.096C420.508 36.256 420.666 36.4533 420.783 36.688C420.906 36.9173 420.967 37.1947 420.967 37.52C420.967 37.8933 420.9 38.24 420.767 38.56C420.634 38.8747 420.436 39.1493 420.175 39.384C419.914 39.6133 419.594 39.7947 419.215 39.928C418.836 40.0613 418.399 40.128 417.903 40.128C417.338 40.128 416.826 40.0373 416.367 39.856C415.908 39.6693 415.519 39.432 415.199 39.144L415.535 38.6C415.578 38.5307 415.628 38.4773 415.687 38.44C415.746 38.4027 415.823 38.384 415.919 38.384C416.015 38.384 416.116 38.4213 416.223 38.496C416.33 38.5707 416.458 38.6533 416.607 38.744C416.762 38.8347 416.946 38.9173 417.159 38.992C417.378 39.0667 417.65 39.104 417.975 39.104C418.252 39.104 418.495 39.0693 418.703 39C418.911 38.9253 419.084 38.8267 419.223 38.704C419.362 38.5813 419.463 38.44 419.527 38.28C419.596 38.12 419.631 37.9493 419.631 37.768C419.631 37.544 419.57 37.36 419.447 37.216C419.33 37.0667 419.172 36.9413 418.975 36.84C418.778 36.7333 418.551 36.6427 418.295 36.568C418.044 36.488 417.786 36.4053 417.519 36.32C417.258 36.2347 416.999 36.1387 416.743 36.032C416.492 35.92 416.268 35.7813 416.071 35.616C415.874 35.4507 415.714 35.248 415.591 35.008C415.474 34.7627 415.415 34.4667 415.415 34.12C415.415 33.8107 415.479 33.5147 415.607 33.232C415.735 32.944 415.922 32.6933 416.167 32.48C416.412 32.2613 416.714 32.088 417.071 31.96C417.428 31.832 417.836 31.768 418.295 31.768C418.828 31.768 419.306 31.8533 419.727 32.024C420.154 32.1893 420.522 32.4187 420.831 32.712L420.511 33.232ZM427.449 33.232C427.385 33.3493 427.286 33.408 427.153 33.408C427.073 33.408 426.982 33.3787 426.881 33.32C426.779 33.2613 426.654 33.1973 426.505 33.128C426.361 33.0533 426.187 32.9867 425.985 32.928C425.782 32.864 425.542 32.832 425.265 32.832C425.025 32.832 424.809 32.864 424.617 32.928C424.425 32.9867 424.259 33.0693 424.121 33.176C423.987 33.2827 423.883 33.408 423.809 33.552C423.739 33.6907 423.705 33.8427 423.705 34.008C423.705 34.216 423.763 34.3893 423.881 34.528C424.003 34.6667 424.163 34.7867 424.361 34.888C424.558 34.9893 424.782 35.08 425.033 35.16C425.283 35.2347 425.539 35.3173 425.801 35.408C426.067 35.4933 426.326 35.5893 426.577 35.696C426.827 35.8027 427.051 35.936 427.249 36.096C427.446 36.256 427.603 36.4533 427.721 36.688C427.843 36.9173 427.905 37.1947 427.905 37.52C427.905 37.8933 427.838 38.24 427.705 38.56C427.571 38.8747 427.374 39.1493 427.113 39.384C426.851 39.6133 426.531 39.7947 426.153 39.928C425.774 40.0613 425.337 40.128 424.841 40.128C424.275 40.128 423.763 40.0373 423.305 39.856C422.846 39.6693 422.457 39.432 422.137 39.144L422.473 38.6C422.515 38.5307 422.566 38.4773 422.625 38.44C422.683 38.4027 422.761 38.384 422.857 38.384C422.953 38.384 423.054 38.4213 423.161 38.496C423.267 38.5707 423.395 38.6533 423.545 38.744C423.699 38.8347 423.883 38.9173 424.097 38.992C424.315 39.0667 424.587 39.104 424.913 39.104C425.19 39.104 425.433 39.0693 425.641 39C425.849 38.9253 426.022 38.8267 426.161 38.704C426.299 38.5813 426.401 38.44 426.465 38.28C426.534 38.12 426.569 37.9493 426.569 37.768C426.569 37.544 426.507 37.36 426.385 37.216C426.267 37.0667 426.11 36.9413 425.913 36.84C425.715 36.7333 425.489 36.6427 425.233 36.568C424.982 36.488 424.723 36.4053 424.457 36.32C424.195 36.2347 423.937 36.1387 423.681 36.032C423.43 35.92 423.206 35.7813 423.009 35.616C422.811 35.4507 422.651 35.248 422.529 35.008C422.411 34.7627 422.353 34.4667 422.353 34.12C422.353 33.8107 422.417 33.5147 422.545 33.232C422.673 32.944 422.859 32.6933 423.105 32.48C423.35 32.2613 423.651 32.088 424.009 31.96C424.366 31.832 424.774 31.768 425.233 31.768C425.766 31.768 426.243 31.8533 426.665 32.024C427.091 32.1893 427.459 32.4187 427.769 32.712L427.449 33.232Z" fill="black"/>
<path d="M196.112 28.536H197.4C197.539 28.536 197.653 28.5707 197.744 28.64C197.835 28.7093 197.896 28.7973 197.928 28.904L200.296 36.872C200.339 37.016 200.376 37.1707 200.408 37.336C200.445 37.5013 200.48 37.6747 200.512 37.856C200.549 37.6747 200.587 37.5013 200.624 37.336C200.661 37.1653 200.704 37.0107 200.752 36.872L203.448 28.904C203.48 28.8133 203.541 28.7307 203.632 28.656C203.728 28.576 203.843 28.536 203.976 28.536H204.424C204.563 28.536 204.675 28.5707 204.76 28.64C204.851 28.7093 204.915 28.7973 204.952 28.904L207.632 36.872C207.728 37.1493 207.813 37.4667 207.888 37.824C207.92 37.648 207.949 37.48 207.976 37.32C208.003 37.16 208.037 37.0107 208.08 36.872L210.456 28.904C210.483 28.808 210.541 28.7227 210.632 28.648C210.728 28.5733 210.843 28.536 210.976 28.536H212.184L208.608 40H207.216L204.312 31.256C204.253 31.0907 204.2 30.8987 204.152 30.68C204.125 30.7867 204.099 30.8907 204.072 30.992C204.051 31.088 204.027 31.176 204 31.256L201.08 40H199.688L196.112 28.536ZM218.714 40H218.082C217.943 40 217.831 39.9787 217.746 39.936C217.66 39.8933 217.604 39.8027 217.578 39.664L217.418 38.912C217.204 39.104 216.996 39.2773 216.794 39.432C216.591 39.5813 216.378 39.7093 216.154 39.816C215.93 39.9173 215.69 39.9947 215.434 40.048C215.183 40.1013 214.903 40.128 214.594 40.128C214.279 40.128 213.983 40.0853 213.706 40C213.434 39.9093 213.196 39.776 212.994 39.6C212.791 39.424 212.628 39.2027 212.506 38.936C212.388 38.664 212.33 38.344 212.33 37.976C212.33 37.656 212.418 37.3493 212.594 37.056C212.77 36.7573 213.052 36.4933 213.442 36.264C213.836 36.0347 214.351 35.848 214.986 35.704C215.62 35.5547 216.396 35.4693 217.314 35.448V34.816C217.314 34.1867 217.178 33.712 216.906 33.392C216.639 33.0667 216.242 32.904 215.714 32.904C215.367 32.904 215.074 32.9493 214.834 33.04C214.599 33.1253 214.394 33.224 214.218 33.336C214.047 33.4427 213.898 33.5413 213.77 33.632C213.647 33.7173 213.524 33.76 213.402 33.76C213.306 33.76 213.22 33.736 213.146 33.688C213.076 33.6347 213.02 33.5707 212.978 33.496L212.722 33.04C213.17 32.608 213.652 32.2853 214.17 32.072C214.687 31.8587 215.26 31.752 215.89 31.752C216.343 31.752 216.746 31.8267 217.098 31.976C217.45 32.1253 217.746 32.3333 217.986 32.6C218.226 32.8667 218.407 33.1893 218.53 33.568C218.652 33.9467 218.714 34.3627 218.714 34.816V40ZM215.018 39.128C215.268 39.128 215.498 39.104 215.706 39.056C215.914 39.0027 216.108 38.9307 216.29 38.84C216.476 38.744 216.652 38.6293 216.818 38.496C216.988 38.3627 217.154 38.2107 217.314 38.04V36.352C216.658 36.3733 216.1 36.4267 215.642 36.512C215.183 36.592 214.81 36.6987 214.522 36.832C214.234 36.9653 214.023 37.1227 213.89 37.304C213.762 37.4853 213.698 37.688 213.698 37.912C213.698 38.1253 213.732 38.3093 213.802 38.464C213.871 38.6187 213.964 38.7467 214.082 38.848C214.199 38.944 214.338 39.016 214.498 39.064C214.658 39.1067 214.831 39.128 215.018 39.128ZM220.871 40V31.896H221.687C221.842 31.896 221.948 31.9253 222.007 31.984C222.066 32.0427 222.106 32.144 222.127 32.288L222.223 33.552C222.5 32.9867 222.842 32.5467 223.247 32.232C223.658 31.912 224.138 31.752 224.687 31.752C224.911 31.752 225.114 31.7787 225.295 31.832C225.476 31.88 225.644 31.9493 225.799 32.04L225.615 33.104C225.578 33.2373 225.495 33.304 225.367 33.304C225.292 33.304 225.178 33.28 225.023 33.232C224.868 33.1787 224.652 33.152 224.375 33.152C223.879 33.152 223.463 33.296 223.127 33.584C222.796 33.872 222.519 34.2907 222.295 34.84V40H220.871ZM227.324 40V31.896H228.172C228.375 31.896 228.503 31.9947 228.556 32.192L228.668 33.072C229.02 32.6827 229.412 32.368 229.844 32.128C230.282 31.888 230.786 31.768 231.356 31.768C231.799 31.768 232.188 31.8427 232.524 31.992C232.866 32.136 233.148 32.344 233.372 32.616C233.602 32.8827 233.775 33.2053 233.892 33.584C234.01 33.9627 234.068 34.3813 234.068 34.84V40H232.644V34.84C232.644 34.2267 232.503 33.752 232.22 33.416C231.943 33.0747 231.516 32.904 230.94 32.904C230.519 32.904 230.124 33.0053 229.756 33.208C229.394 33.4107 229.058 33.6853 228.748 34.032V40H227.324ZM237.799 31.896V40H236.375V31.896H237.799ZM238.119 29.352C238.119 29.4907 238.09 29.6213 238.031 29.744C237.978 29.8613 237.903 29.968 237.807 30.064C237.716 30.1547 237.61 30.2267 237.487 30.28C237.364 30.3333 237.234 30.36 237.095 30.36C236.956 30.36 236.826 30.3333 236.703 30.28C236.586 30.2267 236.479 30.1547 236.383 30.064C236.292 29.968 236.22 29.8613 236.167 29.744C236.114 29.6213 236.087 29.4907 236.087 29.352C236.087 29.2133 236.114 29.0827 236.167 28.96C236.22 28.832 236.292 28.7227 236.383 28.632C236.479 28.536 236.586 28.4613 236.703 28.408C236.826 28.3547 236.956 28.328 237.095 28.328C237.234 28.328 237.364 28.3547 237.487 28.408C237.61 28.4613 237.716 28.536 237.807 28.632C237.903 28.7227 237.978 28.832 238.031 28.96C238.09 29.0827 238.119 29.2133 238.119 29.352ZM240.309 40V31.896H241.157C241.359 31.896 241.487 31.9947 241.541 32.192L241.653 33.072C242.005 32.6827 242.397 32.368 242.829 32.128C243.266 31.888 243.77 31.768 244.341 31.768C244.783 31.768 245.173 31.8427 245.509 31.992C245.85 32.136 246.133 32.344 246.357 32.616C246.586 32.8827 246.759 33.2053 246.877 33.584C246.994 33.9627 247.053 34.3813 247.053 34.84V40H245.629V34.84C245.629 34.2267 245.487 33.752 245.205 33.416C244.927 33.0747 244.501 32.904 243.925 32.904C243.503 32.904 243.109 33.0053 242.741 33.208C242.378 33.4107 242.042 33.6853 241.733 34.032V40H240.309ZM251.927 31.76C252.279 31.76 252.607 31.8 252.911 31.88C253.221 31.9547 253.501 32.0667 253.751 32.216H255.951V32.744C255.951 32.92 255.839 33.032 255.615 33.08L254.695 33.208C254.877 33.5547 254.967 33.9413 254.967 34.368C254.967 34.7627 254.89 35.1227 254.735 35.448C254.586 35.768 254.375 36.0427 254.103 36.272C253.837 36.5013 253.517 36.6773 253.143 36.8C252.775 36.9227 252.37 36.984 251.927 36.984C251.549 36.984 251.191 36.9387 250.855 36.848C250.685 36.9547 250.554 37.0693 250.463 37.192C250.378 37.3147 250.335 37.4347 250.335 37.552C250.335 37.744 250.413 37.8907 250.567 37.992C250.722 38.088 250.927 38.1573 251.183 38.2C251.439 38.2427 251.73 38.2693 252.055 38.28C252.381 38.2907 252.711 38.3093 253.047 38.336C253.389 38.3573 253.722 38.3973 254.047 38.456C254.373 38.5147 254.663 38.6107 254.919 38.744C255.175 38.8773 255.381 39.0613 255.535 39.296C255.69 39.5307 255.767 39.8347 255.767 40.208C255.767 40.5547 255.679 40.8907 255.503 41.216C255.333 41.5413 255.085 41.8293 254.759 42.08C254.434 42.336 254.037 42.5387 253.567 42.688C253.098 42.8427 252.567 42.92 251.975 42.92C251.383 42.92 250.863 42.8613 250.415 42.744C249.973 42.6267 249.605 42.4693 249.311 42.272C249.018 42.0747 248.797 41.8453 248.647 41.584C248.503 41.328 248.431 41.0587 248.431 40.776C248.431 40.376 248.557 40.0373 248.807 39.76C249.063 39.4773 249.413 39.2533 249.855 39.088C249.626 38.9813 249.442 38.84 249.303 38.664C249.17 38.4827 249.103 38.2427 249.103 37.944C249.103 37.8267 249.125 37.7067 249.167 37.584C249.21 37.456 249.274 37.3307 249.359 37.208C249.45 37.0853 249.559 36.968 249.687 36.856C249.815 36.744 249.965 36.6453 250.135 36.56C249.735 36.336 249.421 36.04 249.191 35.672C248.967 35.2987 248.855 34.864 248.855 34.368C248.855 33.9733 248.93 33.616 249.079 33.296C249.234 32.9707 249.447 32.696 249.719 32.472C249.991 32.2427 250.314 32.0667 250.687 31.944C251.066 31.8213 251.479 31.76 251.927 31.76ZM254.455 40.44C254.455 40.2373 254.399 40.0747 254.287 39.952C254.175 39.8293 254.023 39.736 253.831 39.672C253.639 39.6027 253.418 39.552 253.167 39.52C252.917 39.488 252.653 39.4667 252.375 39.456C252.098 39.44 251.815 39.424 251.527 39.408C251.239 39.392 250.965 39.3627 250.703 39.32C250.399 39.464 250.151 39.64 249.959 39.848C249.773 40.056 249.679 40.304 249.679 40.592C249.679 40.7733 249.725 40.9413 249.815 41.096C249.911 41.256 250.055 41.392 250.247 41.504C250.439 41.6213 250.679 41.712 250.967 41.776C251.261 41.8453 251.605 41.88 251.999 41.88C252.383 41.88 252.727 41.8453 253.031 41.776C253.335 41.7067 253.591 41.608 253.799 41.48C254.013 41.352 254.175 41.2 254.287 41.024C254.399 40.848 254.455 40.6533 254.455 40.44ZM251.927 36.04C252.215 36.04 252.469 36 252.687 35.92C252.911 35.84 253.098 35.728 253.247 35.584C253.397 35.44 253.509 35.2693 253.583 35.072C253.658 34.8693 253.695 34.648 253.695 34.408C253.695 33.912 253.543 33.5173 253.239 33.224C252.941 32.9307 252.503 32.784 251.927 32.784C251.357 32.784 250.919 32.9307 250.615 33.224C250.317 33.5173 250.167 33.912 250.167 34.408C250.167 34.648 250.205 34.8693 250.279 35.072C250.359 35.2693 250.474 35.44 250.623 35.584C250.773 35.728 250.957 35.84 251.175 35.92C251.394 36 251.645 36.04 251.927 36.04Z" fill="black"/>
<path d="M27.328 34.272C27.328 35.1307 27.192 35.912 26.92 36.616C26.648 37.32 26.264 37.9227 25.768 38.424C25.272 38.9253 24.6773 39.3147 23.984 39.592C23.2907 39.864 22.5227 40 21.68 40H17.392V28.536H21.68C22.5227 28.536 23.2907 28.6747 23.984 28.952C24.6773 29.224 25.272 29.6133 25.768 30.12C26.264 30.6213 26.648 31.224 26.92 31.928C27.192 32.632 27.328 33.4133 27.328 34.272ZM25.736 34.272C25.736 33.568 25.64 32.9387 25.448 32.384C25.256 31.8293 24.984 31.36 24.632 30.976C24.28 30.592 23.8533 30.2987 23.352 30.096C22.8507 29.8933 22.2933 29.792 21.68 29.792H18.952V38.744H21.68C22.2933 38.744 22.8507 38.6427 23.352 38.44C23.8533 38.2373 24.28 37.9467 24.632 37.568C24.984 37.184 25.256 36.7147 25.448 36.16C25.64 35.6053 25.736 34.976 25.736 34.272ZM35.1669 40H34.5349C34.3962 40 34.2842 39.9787 34.1989 39.936C34.1135 39.8933 34.0575 39.8027 34.0309 39.664L33.8709 38.912C33.6575 39.104 33.4495 39.2773 33.2469 39.432C33.0442 39.5813 32.8309 39.7093 32.6069 39.816C32.3829 39.9173 32.1429 39.9947 31.8869 40.048C31.6362 40.1013 31.3562 40.128 31.0469 40.128C30.7322 40.128 30.4362 40.0853 30.1589 40C29.8869 39.9093 29.6495 39.776 29.4469 39.6C29.2442 39.424 29.0815 39.2027 28.9589 38.936C28.8415 38.664 28.7829 38.344 28.7829 37.976C28.7829 37.656 28.8709 37.3493 29.0469 37.056C29.2229 36.7573 29.5055 36.4933 29.8949 36.264C30.2895 36.0347 30.8042 35.848 31.4389 35.704C32.0735 35.5547 32.8495 35.4693 33.7669 35.448V34.816C33.7669 34.1867 33.6309 33.712 33.3589 33.392C33.0922 33.0667 32.6949 32.904 32.1669 32.904C31.8202 32.904 31.5269 32.9493 31.2869 33.04C31.0522 33.1253 30.8469 33.224 30.6709 33.336C30.5002 33.4427 30.3509 33.5413 30.2229 33.632C30.1002 33.7173 29.9775 33.76 29.8549 33.76C29.7589 33.76 29.6735 33.736 29.5989 33.688C29.5295 33.6347 29.4735 33.5707 29.4309 33.496L29.1749 33.04C29.6229 32.608 30.1055 32.2853 30.6229 32.072C31.1402 31.8587 31.7135 31.752 32.3429 31.752C32.7962 31.752 33.1989 31.8267 33.5509 31.976C33.9029 32.1253 34.1989 32.3333 34.4389 32.6C34.6789 32.8667 34.8602 33.1893 34.9829 33.568C35.1055 33.9467 35.1669 34.3627 35.1669 34.816V40ZM31.4709 39.128C31.7215 39.128 31.9509 39.104 32.1589 39.056C32.3669 39.0027 32.5615 38.9307 32.7429 38.84C32.9295 38.744 33.1055 38.6293 33.2709 38.496C33.4415 38.3627 33.6069 38.2107 33.7669 38.04V36.352C33.1109 36.3733 32.5535 36.4267 32.0949 36.512C31.6362 36.592 31.2629 36.6987 30.9749 36.832C30.6869 36.9653 30.4762 37.1227 30.3429 37.304C30.2149 37.4853 30.1509 37.688 30.1509 37.912C30.1509 38.1253 30.1855 38.3093 30.2549 38.464C30.3242 38.6187 30.4175 38.7467 30.5349 38.848C30.6522 38.944 30.7909 39.016 30.9509 39.064C31.1109 39.1067 31.2842 39.128 31.4709 39.128ZM37.3243 40V31.896H38.1723C38.3749 31.896 38.5029 31.9947 38.5563 32.192L38.6683 33.072C39.0203 32.6827 39.4123 32.368 39.8443 32.128C40.2816 31.888 40.7856 31.768 41.3563 31.768C41.7989 31.768 42.1883 31.8427 42.5243 31.992C42.8656 32.136 43.1483 32.344 43.3723 32.616C43.6016 32.8827 43.7749 33.2053 43.8923 33.584C44.0096 33.9627 44.0683 34.3813 44.0683 34.84V40H42.6443V34.84C42.6443 34.2267 42.5029 33.752 42.2203 33.416C41.9429 33.0747 41.5163 32.904 40.9403 32.904C40.5189 32.904 40.1243 33.0053 39.7563 33.208C39.3936 33.4107 39.0576 33.6853 38.7483 34.032V40H37.3243ZM48.9429 31.76C49.2949 31.76 49.6229 31.8 49.9269 31.88C50.2362 31.9547 50.5162 32.0667 50.7669 32.216H52.9669V32.744C52.9669 32.92 52.8549 33.032 52.6309 33.08L51.7109 33.208C51.8922 33.5547 51.9829 33.9413 51.9829 34.368C51.9829 34.7627 51.9055 35.1227 51.7509 35.448C51.6015 35.768 51.3909 36.0427 51.1189 36.272C50.8522 36.5013 50.5322 36.6773 50.1589 36.8C49.7909 36.9227 49.3855 36.984 48.9429 36.984C48.5642 36.984 48.2069 36.9387 47.8709 36.848C47.7002 36.9547 47.5695 37.0693 47.4789 37.192C47.3935 37.3147 47.3509 37.4347 47.3509 37.552C47.3509 37.744 47.4282 37.8907 47.5829 37.992C47.7375 38.088 47.9429 38.1573 48.1989 38.2C48.4549 38.2427 48.7455 38.2693 49.0709 38.28C49.3962 38.2907 49.7269 38.3093 50.0629 38.336C50.4042 38.3573 50.7375 38.3973 51.0629 38.456C51.3882 38.5147 51.6789 38.6107 51.9349 38.744C52.1909 38.8773 52.3962 39.0613 52.5509 39.296C52.7055 39.5307 52.7829 39.8347 52.7829 40.208C52.7829 40.5547 52.6949 40.8907 52.5189 41.216C52.3482 41.5413 52.1002 41.8293 51.7749 42.08C51.4495 42.336 51.0522 42.5387 50.5829 42.688C50.1135 42.8427 49.5829 42.92 48.9909 42.92C48.3989 42.92 47.8789 42.8613 47.4309 42.744C46.9882 42.6267 46.6202 42.4693 46.3269 42.272C46.0335 42.0747 45.8122 41.8453 45.6629 41.584C45.5189 41.328 45.4469 41.0587 45.4469 40.776C45.4469 40.376 45.5722 40.0373 45.8229 39.76C46.0789 39.4773 46.4282 39.2533 46.8709 39.088C46.6415 38.9813 46.4575 38.84 46.3189 38.664C46.1855 38.4827 46.1189 38.2427 46.1189 37.944C46.1189 37.8267 46.1402 37.7067 46.1829 37.584C46.2255 37.456 46.2895 37.3307 46.3749 37.208C46.4655 37.0853 46.5749 36.968 46.7029 36.856C46.8309 36.744 46.9802 36.6453 47.1509 36.56C46.7509 36.336 46.4362 36.04 46.2069 35.672C45.9829 35.2987 45.8709 34.864 45.8709 34.368C45.8709 33.9733 45.9455 33.616 46.0949 33.296C46.2495 32.9707 46.4629 32.696 46.7349 32.472C47.0069 32.2427 47.3295 32.0667 47.7029 31.944C48.0815 31.8213 48.4949 31.76 48.9429 31.76ZM51.4709 40.44C51.4709 40.2373 51.4149 40.0747 51.3029 39.952C51.1909 39.8293 51.0389 39.736 50.8469 39.672C50.6549 39.6027 50.4335 39.552 50.1829 39.52C49.9322 39.488 49.6682 39.4667 49.3909 39.456C49.1135 39.44 48.8309 39.424 48.5429 39.408C48.2549 39.392 47.9802 39.3627 47.7189 39.32C47.4149 39.464 47.1669 39.64 46.9749 39.848C46.7882 40.056 46.6949 40.304 46.6949 40.592C46.6949 40.7733 46.7402 40.9413 46.8309 41.096C46.9269 41.256 47.0709 41.392 47.2629 41.504C47.4549 41.6213 47.6949 41.712 47.9829 41.776C48.2762 41.8453 48.6202 41.88 49.0149 41.88C49.3989 41.88 49.7429 41.8453 50.0469 41.776C50.3509 41.7067 50.6069 41.608 50.8149 41.48C51.0282 41.352 51.1909 41.2 51.3029 41.024C51.4149 40.848 51.4709 40.6533 51.4709 40.44ZM48.9429 36.04C49.2309 36.04 49.4842 36 49.7029 35.92C49.9269 35.84 50.1135 35.728 50.2629 35.584C50.4122 35.44 50.5242 35.2693 50.5989 35.072C50.6735 34.8693 50.7109 34.648 50.7109 34.408C50.7109 33.912 50.5589 33.5173 50.2549 33.224C49.9562 32.9307 49.5189 32.784 48.9429 32.784C48.3722 32.784 47.9349 32.9307 47.6309 33.224C47.3322 33.5173 47.1829 33.912 47.1829 34.408C47.1829 34.648 47.2202 34.8693 47.2949 35.072C47.3749 35.2693 47.4895 35.44 47.6389 35.584C47.7882 35.728 47.9722 35.84 48.1909 35.92C48.4095 36 48.6602 36.04 48.9429 36.04ZM57.5948 31.768C58.0801 31.768 58.5281 31.8507 58.9388 32.016C59.3494 32.176 59.7041 32.4107 60.0028 32.72C60.3014 33.024 60.5334 33.4027 60.6988 33.856C60.8694 34.304 60.9548 34.816 60.9548 35.392C60.9548 35.616 60.9308 35.7653 60.8828 35.84C60.8348 35.9147 60.7441 35.952 60.6108 35.952H55.2188C55.2294 36.464 55.2988 36.9093 55.4268 37.288C55.5548 37.6667 55.7308 37.984 55.9548 38.24C56.1788 38.4907 56.4454 38.68 56.7548 38.808C57.0641 38.9307 57.4108 38.992 57.7948 38.992C58.1521 38.992 58.4588 38.952 58.7148 38.872C58.9761 38.7867 59.2001 38.696 59.3868 38.6C59.5734 38.504 59.7281 38.416 59.8508 38.336C59.9788 38.2507 60.0881 38.208 60.1788 38.208C60.2961 38.208 60.3868 38.2533 60.4508 38.344L60.8508 38.864C60.6748 39.0773 60.4641 39.264 60.2188 39.424C59.9734 39.5787 59.7094 39.7067 59.4268 39.808C59.1494 39.9093 58.8614 39.984 58.5628 40.032C58.2641 40.0853 57.9681 40.112 57.6748 40.112C57.1148 40.112 56.5974 40.0187 56.1228 39.832C55.6534 39.64 55.2454 39.3627 54.8988 39C54.5574 38.632 54.2908 38.1787 54.0988 37.64C53.9068 37.1013 53.8108 36.4827 53.8108 35.784C53.8108 35.2187 53.8961 34.6907 54.0668 34.2C54.2428 33.7093 54.4934 33.2853 54.8188 32.928C55.1441 32.5653 55.5414 32.2827 56.0108 32.08C56.4801 31.872 57.0081 31.768 57.5948 31.768ZM57.6267 32.816C56.9388 32.816 56.3974 33.016 56.0028 33.416C55.6081 33.8107 55.3628 34.36 55.2668 35.064H59.6748C59.6748 34.7333 59.6294 34.432 59.5388 34.16C59.4481 33.8827 59.3148 33.6453 59.1388 33.448C58.9628 33.2453 58.7468 33.0907 58.4908 32.984C58.2401 32.872 57.9521 32.816 57.6267 32.816ZM62.7774 40V31.896H63.5934C63.748 31.896 63.8547 31.9253 63.9134 31.984C63.972 32.0427 64.012 32.144 64.0334 32.288L64.1294 33.552C64.4067 32.9867 64.748 32.5467 65.1534 32.232C65.564 31.912 66.044 31.752 66.5934 31.752C66.8174 31.752 67.02 31.7787 67.2014 31.832C67.3827 31.88 67.5507 31.9493 67.7054 32.04L67.5214 33.104C67.484 33.2373 67.4014 33.304 67.2734 33.304C67.1987 33.304 67.084 33.28 66.9294 33.232C66.7747 33.1787 66.5587 33.152 66.2814 33.152C65.7854 33.152 65.3694 33.296 65.0334 33.584C64.7027 33.872 64.4254 34.2907 64.2014 34.84V40H62.7774Z" fill="black"/>
<path d="M17.168 65V56.896H17.984C18.1387 56.896 18.2453 56.9253 18.304 56.984C18.3627 57.0427 18.4027 57.144 18.424 57.288L18.52 58.552C18.7973 57.9867 19.1387 57.5467 19.544 57.232C19.9547 56.912 20.4347 56.752 20.984 56.752C21.208 56.752 21.4107 56.7787 21.592 56.832C21.7733 56.88 21.9413 56.9493 22.096 57.04L21.912 58.104C21.8747 58.2373 21.792 58.304 21.664 58.304C21.5893 58.304 21.4747 58.28 21.32 58.232C21.1653 58.1787 20.9493 58.152 20.672 58.152C20.176 58.152 19.76 58.296 19.424 58.584C19.0933 58.872 18.816 59.2907 18.592 59.84V65H17.168ZM26.8291 56.768C27.3145 56.768 27.7625 56.8507 28.1731 57.016C28.5838 57.176 28.9385 57.4107 29.2371 57.72C29.5358 58.024 29.7678 58.4027 29.9331 58.856C30.1038 59.304 30.1891 59.816 30.1891 60.392C30.1891 60.616 30.1651 60.7653 30.1171 60.84C30.0691 60.9147 29.9785 60.952 29.8451 60.952H24.4531C24.4638 61.464 24.5331 61.9093 24.6611 62.288C24.7891 62.6667 24.9651 62.984 25.1891 63.24C25.4131 63.4907 25.6798 63.68 25.9891 63.808C26.2985 63.9307 26.6451 63.992 27.0291 63.992C27.3865 63.992 27.6931 63.952 27.9491 63.872C28.2105 63.7867 28.4345 63.696 28.6211 63.6C28.8078 63.504 28.9625 63.416 29.0851 63.336C29.2131 63.2507 29.3225 63.208 29.4131 63.208C29.5305 63.208 29.6211 63.2533 29.6851 63.344L30.0851 63.864C29.9091 64.0773 29.6985 64.264 29.4531 64.424C29.2078 64.5787 28.9438 64.7067 28.6611 64.808C28.3838 64.9093 28.0958 64.984 27.7971 65.032C27.4985 65.0853 27.2025 65.112 26.9091 65.112C26.3491 65.112 25.8318 65.0187 25.3571 64.832C24.8878 64.64 24.4798 64.3627 24.1331 64C23.7918 63.632 23.5251 63.1787 23.3331 62.64C23.1411 62.1013 23.0451 61.4827 23.0451 60.784C23.0451 60.2187 23.1305 59.6907 23.3011 59.2C23.4771 58.7093 23.7278 58.2853 24.0531 57.928C24.3785 57.5653 24.7758 57.2827 25.2451 57.08C25.7145 56.872 26.2425 56.768 26.8291 56.768ZM26.8611 57.816C26.1731 57.816 25.6318 58.016 25.2371 58.416C24.8425 58.8107 24.5971 59.36 24.5011 60.064H28.9091C28.9091 59.7333 28.8638 59.432 28.7731 59.16C28.6825 58.8827 28.5491 58.6453 28.3731 58.448C28.1971 58.2453 27.9811 58.0907 27.7251 57.984C27.4745 57.872 27.1865 57.816 26.8611 57.816ZM37.7158 65C37.5131 65 37.3851 64.9013 37.3318 64.704L37.2038 63.72C36.8571 64.1413 36.4598 64.48 36.0118 64.736C35.5691 64.9867 35.0598 65.112 34.4838 65.112C34.0198 65.112 33.5984 65.024 33.2198 64.848C32.8411 64.6667 32.5184 64.4027 32.2518 64.056C31.9851 63.7093 31.7798 63.2773 31.6358 62.76C31.4918 62.2427 31.4198 61.648 31.4198 60.976C31.4198 60.3787 31.4998 59.824 31.6598 59.312C31.8198 58.7947 32.0491 58.3467 32.3478 57.968C32.6518 57.5893 33.0198 57.2933 33.4518 57.08C33.8838 56.8613 34.3744 56.752 34.9238 56.752C35.4198 56.752 35.8438 56.8373 36.1958 57.008C36.5478 57.1733 36.8624 57.408 37.1398 57.712V53.216H38.5638V65H37.7158ZM34.9557 63.96C35.4198 63.96 35.8251 63.8533 36.1718 63.64C36.5238 63.4267 36.8464 63.1253 37.1398 62.736V58.816C36.8784 58.464 36.5904 58.2187 36.2758 58.08C35.9664 57.936 35.6224 57.864 35.2438 57.864C34.4864 57.864 33.9051 58.1333 33.4998 58.672C33.0944 59.2107 32.8918 59.9787 32.8918 60.976C32.8918 61.504 32.9371 61.9573 33.0278 62.336C33.1184 62.7093 33.2518 63.0187 33.4278 63.264C33.6038 63.504 33.8198 63.68 34.0758 63.792C34.3318 63.904 34.6251 63.96 34.9557 63.96ZM40.5813 59.6H44.5333V60.808H40.5813V59.6ZM53.1521 54.16C53.1521 54.3627 53.0881 54.5307 52.9601 54.664C52.8321 54.792 52.6161 54.856 52.3121 54.856H48.7121L48.1841 57.864C48.7815 57.736 49.3335 57.672 49.8401 57.672C50.4375 57.672 50.9628 57.76 51.4161 57.936C51.8748 58.112 52.2588 58.3547 52.5681 58.664C52.8775 58.9733 53.1095 59.3387 53.2641 59.76C53.4241 60.1813 53.5041 60.64 53.5041 61.136C53.5041 61.744 53.3975 62.2933 53.1841 62.784C52.9708 63.2747 52.6775 63.696 52.3041 64.048C51.9361 64.3947 51.5015 64.6613 51.0001 64.848C50.4988 65.0347 49.9575 65.128 49.3761 65.128C49.0401 65.128 48.7175 65.0933 48.4081 65.024C48.0988 64.96 47.8108 64.872 47.5441 64.76C47.2775 64.648 47.0295 64.52 46.8001 64.376C46.5708 64.232 46.3681 64.08 46.1921 63.92L46.6241 63.312C46.7201 63.1733 46.8481 63.104 47.0081 63.104C47.1095 63.104 47.2268 63.1467 47.3601 63.232C47.4988 63.312 47.6641 63.4027 47.8561 63.504C48.0481 63.6053 48.2721 63.6987 48.5281 63.784C48.7895 63.864 49.0988 63.904 49.4561 63.904C49.8561 63.904 50.2161 63.84 50.5361 63.712C50.8561 63.584 51.1281 63.4027 51.3521 63.168C51.5815 62.928 51.7575 62.6427 51.8801 62.312C52.0028 61.9813 52.0641 61.6107 52.0641 61.2C52.0641 60.8427 52.0108 60.52 51.9041 60.232C51.8028 59.944 51.6455 59.6987 51.4321 59.496C51.2241 59.2933 50.9628 59.136 50.6481 59.024C50.3335 58.912 49.9655 58.856 49.5441 58.856C49.2561 58.856 48.9575 58.88 48.6481 58.928C48.3388 58.976 48.0188 59.0533 47.6881 59.16L46.7921 58.896L47.7201 53.536H53.1521V54.16ZM63.4094 59.272C63.4094 60.2747 63.3 61.144 63.0814 61.88C62.868 62.6107 62.5747 63.216 62.2014 63.696C61.828 64.176 61.3854 64.5333 60.8734 64.768C60.3667 65.0027 59.8227 65.12 59.2414 65.12C58.6547 65.12 58.108 65.0027 57.6014 64.768C57.1 64.5333 56.6627 64.176 56.2894 63.696C55.916 63.216 55.6227 62.6107 55.4094 61.88C55.196 61.144 55.0894 60.2747 55.0894 59.272C55.0894 58.2693 55.196 57.4 55.4094 56.664C55.6227 55.928 55.916 55.32 56.2894 54.84C56.6627 54.3547 57.1 53.9947 57.6014 53.76C58.108 53.5253 58.6547 53.408 59.2414 53.408C59.8227 53.408 60.3667 53.5253 60.8734 53.76C61.3854 53.9947 61.828 54.3547 62.2014 54.84C62.5747 55.32 62.868 55.928 63.0814 56.664C63.3 57.4 63.4094 58.2693 63.4094 59.272ZM61.9294 59.272C61.9294 58.3973 61.8547 57.664 61.7054 57.072C61.5614 56.4747 61.364 55.9947 61.1134 55.632C60.868 55.2693 60.5827 55.0107 60.2574 54.856C59.932 54.696 59.5934 54.616 59.2414 54.616C58.8894 54.616 58.5507 54.696 58.2254 54.856C57.9 55.0107 57.6147 55.2693 57.3694 55.632C57.124 55.9947 56.9267 56.4747 56.7774 57.072C56.6334 57.664 56.5614 58.3973 56.5614 59.272C56.5614 60.1467 56.6334 60.88 56.7774 61.472C56.9267 62.064 57.124 62.5413 57.3694 62.904C57.6147 63.2667 57.9 63.528 58.2254 63.688C58.5507 63.8427 58.8894 63.92 59.2414 63.92C59.5934 63.92 59.932 63.8427 60.2574 63.688C60.5827 63.528 60.868 63.2667 61.1134 62.904C61.364 62.5413 61.5614 62.064 61.7054 61.472C61.8547 60.88 61.9294 60.1467 61.9294 59.272ZM72.6906 59.272C72.6906 60.2747 72.5813 61.144 72.3626 61.88C72.1493 62.6107 71.856 63.216 71.4826 63.696C71.1093 64.176 70.6666 64.5333 70.1546 64.768C69.648 65.0027 69.104 65.12 68.5226 65.12C67.936 65.12 67.3893 65.0027 66.8826 64.768C66.3813 64.5333 65.944 64.176 65.5706 63.696C65.1973 63.216 64.904 62.6107 64.6906 61.88C64.4773 61.144 64.3706 60.2747 64.3706 59.272C64.3706 58.2693 64.4773 57.4 64.6906 56.664C64.904 55.928 65.1973 55.32 65.5706 54.84C65.944 54.3547 66.3813 53.9947 66.8826 53.76C67.3893 53.5253 67.936 53.408 68.5226 53.408C69.104 53.408 69.648 53.5253 70.1546 53.76C70.6666 53.9947 71.1093 54.3547 71.4826 54.84C71.856 55.32 72.1493 55.928 72.3626 56.664C72.5813 57.4 72.6906 58.2693 72.6906 59.272ZM71.2106 59.272C71.2106 58.3973 71.136 57.664 70.9866 57.072C70.8426 56.4747 70.6453 55.9947 70.3946 55.632C70.1493 55.2693 69.864 55.0107 69.5386 54.856C69.2133 54.696 68.8746 54.616 68.5226 54.616C68.1706 54.616 67.832 54.696 67.5066 54.856C67.1813 55.0107 66.896 55.2693 66.6506 55.632C66.4053 55.9947 66.208 56.4747 66.0586 57.072C65.9146 57.664 65.8426 58.3973 65.8426 59.272C65.8426 60.1467 65.9146 60.88 66.0586 61.472C66.208 62.064 66.4053 62.5413 66.6506 62.904C66.896 63.2667 67.1813 63.528 67.5066 63.688C67.832 63.8427 68.1706 63.92 68.5226 63.92C68.8746 63.92 69.2133 63.8427 69.5386 63.688C69.864 63.528 70.1493 63.2667 70.3946 62.904C70.6453 62.5413 70.8426 62.064 70.9866 61.472C71.136 60.88 71.2106 60.1467 71.2106 59.272Z" fill="black"/>
<path d="M199.544 67.392C199.496 67.4987 199.435 67.584 199.36 67.648C199.291 67.712 199.181 67.744 199.032 67.744H197.976L199.456 64.528L196.112 56.896H197.344C197.467 56.896 197.563 56.928 197.632 56.992C197.701 57.0507 197.752 57.1173 197.784 57.192L199.952 62.296C200 62.4133 200.04 62.5307 200.072 62.648C200.109 62.7653 200.141 62.8853 200.168 63.008C200.205 62.8853 200.243 62.7653 200.28 62.648C200.317 62.5307 200.36 62.4107 200.408 62.288L202.512 57.192C202.544 57.1067 202.597 57.0373 202.672 56.984C202.752 56.9253 202.837 56.896 202.928 56.896H204.064L199.544 67.392ZM208.36 56.768C208.846 56.768 209.294 56.8507 209.704 57.016C210.115 57.176 210.47 57.4107 210.768 57.72C211.067 58.024 211.299 58.4027 211.464 58.856C211.635 59.304 211.72 59.816 211.72 60.392C211.72 60.616 211.696 60.7653 211.648 60.84C211.6 60.9147 211.51 60.952 211.376 60.952H205.984C205.995 61.464 206.064 61.9093 206.192 62.288C206.32 62.6667 206.496 62.984 206.72 63.24C206.944 63.4907 207.211 63.68 207.52 63.808C207.83 63.9307 208.176 63.992 208.56 63.992C208.918 63.992 209.224 63.952 209.48 63.872C209.742 63.7867 209.966 63.696 210.152 63.6C210.339 63.504 210.494 63.416 210.616 63.336C210.744 63.2507 210.854 63.208 210.944 63.208C211.062 63.208 211.152 63.2533 211.216 63.344L211.616 63.864C211.44 64.0773 211.23 64.264 210.984 64.424C210.739 64.5787 210.475 64.7067 210.192 64.808C209.915 64.9093 209.627 64.984 209.328 65.032C209.03 65.0853 208.734 65.112 208.44 65.112C207.88 65.112 207.363 65.0187 206.888 64.832C206.419 64.64 206.011 64.3627 205.664 64C205.323 63.632 205.056 63.1787 204.864 62.64C204.672 62.1013 204.576 61.4827 204.576 60.784C204.576 60.2187 204.662 59.6907 204.832 59.2C205.008 58.7093 205.259 58.2853 205.584 57.928C205.91 57.5653 206.307 57.2827 206.776 57.08C207.246 56.872 207.774 56.768 208.36 56.768ZM208.392 57.816C207.704 57.816 207.163 58.016 206.768 58.416C206.374 58.8107 206.128 59.36 206.032 60.064H210.44C210.44 59.7333 210.395 59.432 210.304 59.16C210.214 58.8827 210.08 58.6453 209.904 58.448C209.728 58.2453 209.512 58.0907 209.256 57.984C209.006 57.872 208.718 57.816 208.392 57.816ZM215.127 53.216V65H213.703V53.216H215.127ZM219.221 53.216V65H217.797V53.216H219.221ZM225.011 56.768C225.603 56.768 226.136 56.8667 226.611 57.064C227.091 57.2613 227.496 57.5413 227.827 57.904C228.163 58.2667 228.419 58.7067 228.595 59.224C228.776 59.736 228.867 60.3093 228.867 60.944C228.867 61.584 228.776 62.16 228.595 62.672C228.419 63.184 228.163 63.6213 227.827 63.984C227.496 64.3467 227.091 64.6267 226.611 64.824C226.136 65.016 225.603 65.112 225.011 65.112C224.419 65.112 223.883 65.016 223.403 64.824C222.928 64.6267 222.523 64.3467 222.187 63.984C221.851 63.6213 221.592 63.184 221.411 62.672C221.229 62.16 221.139 61.584 221.139 60.944C221.139 60.3093 221.229 59.736 221.411 59.224C221.592 58.7067 221.851 58.2667 222.187 57.904C222.523 57.5413 222.928 57.2613 223.403 57.064C223.883 56.8667 224.419 56.768 225.011 56.768ZM225.011 64C225.811 64 226.408 63.7333 226.803 63.2C227.197 62.6613 227.395 61.912 227.395 60.952C227.395 59.9867 227.197 59.2347 226.803 58.696C226.408 58.1573 225.811 57.888 225.011 57.888C224.605 57.888 224.253 57.9573 223.955 58.096C223.656 58.2347 223.405 58.4347 223.203 58.696C223.005 58.9573 222.856 59.28 222.755 59.664C222.659 60.0427 222.611 60.472 222.611 60.952C222.611 61.432 222.659 61.8613 222.755 62.24C222.856 62.6187 223.005 62.9387 223.203 63.2C223.405 63.456 223.656 63.6533 223.955 63.792C224.253 63.9307 224.605 64 225.011 64ZM229.565 56.896H230.685C230.802 56.896 230.898 56.9253 230.973 56.984C231.048 57.0427 231.098 57.112 231.125 57.192L232.677 62.408C232.72 62.6 232.76 62.7867 232.797 62.968C232.834 63.144 232.866 63.3227 232.893 63.504C232.936 63.3227 232.984 63.144 233.037 62.968C233.09 62.7867 233.146 62.6 233.205 62.408L234.917 57.16C234.944 57.08 234.989 57.0133 235.053 56.96C235.122 56.9067 235.208 56.88 235.309 56.88H235.925C236.032 56.88 236.12 56.9067 236.189 56.96C236.258 57.0133 236.306 57.08 236.333 57.16L238.005 62.408C238.064 62.5947 238.114 62.7787 238.157 62.96C238.205 63.1413 238.25 63.32 238.293 63.496C238.32 63.32 238.354 63.136 238.397 62.944C238.44 62.752 238.485 62.5733 238.533 62.408L240.117 57.192C240.144 57.1067 240.194 57.0373 240.269 56.984C240.344 56.9253 240.432 56.896 240.533 56.896H241.605L238.981 65H237.853C237.714 65 237.618 64.9093 237.565 64.728L235.773 59.232C235.73 59.1093 235.696 58.9867 235.669 58.864C235.642 58.736 235.616 58.6107 235.589 58.488C235.562 58.6107 235.536 58.736 235.509 58.864C235.482 58.992 235.448 59.1173 235.405 59.24L233.589 64.728C233.53 64.9093 233.421 65 233.261 65H232.189L229.565 56.896ZM242.503 59.6H246.455V60.808H242.503V59.6ZM255.074 54.16C255.074 54.3627 255.01 54.5307 254.882 54.664C254.754 54.792 254.538 54.856 254.234 54.856H250.634L250.106 57.864C250.703 57.736 251.255 57.672 251.762 57.672C252.359 57.672 252.885 57.76 253.338 57.936C253.797 58.112 254.181 58.3547 254.49 58.664C254.799 58.9733 255.031 59.3387 255.186 59.76C255.346 60.1813 255.426 60.64 255.426 61.136C255.426 61.744 255.319 62.2933 255.106 62.784C254.893 63.2747 254.599 63.696 254.226 64.048C253.858 64.3947 253.423 64.6613 252.922 64.848C252.421 65.0347 251.879 65.128 251.298 65.128C250.962 65.128 250.639 65.0933 250.33 65.024C250.021 64.96 249.733 64.872 249.466 64.76C249.199 64.648 248.951 64.52 248.722 64.376C248.493 64.232 248.29 64.08 248.114 63.92L248.546 63.312C248.642 63.1733 248.77 63.104 248.93 63.104C249.031 63.104 249.149 63.1467 249.282 63.232C249.421 63.312 249.586 63.4027 249.778 63.504C249.97 63.6053 250.194 63.6987 250.45 63.784C250.711 63.864 251.021 63.904 251.378 63.904C251.778 63.904 252.138 63.84 252.458 63.712C252.778 63.584 253.05 63.4027 253.274 63.168C253.503 62.928 253.679 62.6427 253.802 62.312C253.925 61.9813 253.986 61.6107 253.986 61.2C253.986 60.8427 253.933 60.52 253.826 60.232C253.725 59.944 253.567 59.6987 253.354 59.496C253.146 59.2933 252.885 59.136 252.57 59.024C252.255 58.912 251.887 58.856 251.466 58.856C251.178 58.856 250.879 58.88 250.57 58.928C250.261 58.976 249.941 59.0533 249.61 59.16L248.714 58.896L249.642 53.536H255.074V54.16ZM265.331 59.272C265.331 60.2747 265.222 61.144 265.003 61.88C264.79 62.6107 264.497 63.216 264.123 63.696C263.75 64.176 263.307 64.5333 262.795 64.768C262.289 65.0027 261.745 65.12 261.163 65.12C260.577 65.12 260.03 65.0027 259.523 64.768C259.022 64.5333 258.585 64.176 258.211 63.696C257.838 63.216 257.545 62.6107 257.331 61.88C257.118 61.144 257.011 60.2747 257.011 59.272C257.011 58.2693 257.118 57.4 257.331 56.664C257.545 55.928 257.838 55.32 258.211 54.84C258.585 54.3547 259.022 53.9947 259.523 53.76C260.03 53.5253 260.577 53.408 261.163 53.408C261.745 53.408 262.289 53.5253 262.795 53.76C263.307 53.9947 263.75 54.3547 264.123 54.84C264.497 55.32 264.79 55.928 265.003 56.664C265.222 57.4 265.331 58.2693 265.331 59.272ZM263.851 59.272C263.851 58.3973 263.777 57.664 263.627 57.072C263.483 56.4747 263.286 55.9947 263.035 55.632C262.79 55.2693 262.505 55.0107 262.179 54.856C261.854 54.696 261.515 54.616 261.163 54.616C260.811 54.616 260.473 54.696 260.147 54.856C259.822 55.0107 259.537 55.2693 259.291 55.632C259.046 55.9947 258.849 56.4747 258.699 57.072C258.555 57.664 258.483 58.3973 258.483 59.272C258.483 60.1467 258.555 60.88 258.699 61.472C258.849 62.064 259.046 62.5413 259.291 62.904C259.537 63.2667 259.822 63.528 260.147 63.688C260.473 63.8427 260.811 63.92 261.163 63.92C261.515 63.92 261.854 63.8427 262.179 63.688C262.505 63.528 262.79 63.2667 263.035 62.904C263.286 62.5413 263.483 62.064 263.627 61.472C263.777 60.88 263.851 60.1467 263.851 59.272ZM274.613 59.272C274.613 60.2747 274.503 61.144 274.285 61.88C274.071 62.6107 273.778 63.216 273.405 63.696C273.031 64.176 272.589 64.5333 272.077 64.768C271.57 65.0027 271.026 65.12 270.445 65.12C269.858 65.12 269.311 65.0027 268.805 64.768C268.303 64.5333 267.866 64.176 267.493 63.696C267.119 63.216 266.826 62.6107 266.613 61.88C266.399 61.144 266.293 60.2747 266.293 59.272C266.293 58.2693 266.399 57.4 266.613 56.664C266.826 55.928 267.119 55.32 267.493 54.84C267.866 54.3547 268.303 53.9947 268.805 53.76C269.311 53.5253 269.858 53.408 270.445 53.408C271.026 53.408 271.57 53.5253 272.077 53.76C272.589 53.9947 273.031 54.3547 273.405 54.84C273.778 55.32 274.071 55.928 274.285 56.664C274.503 57.4 274.613 58.2693 274.613 59.272ZM273.133 59.272C273.133 58.3973 273.058 57.664 272.909 57.072C272.765 56.4747 272.567 55.9947 272.317 55.632C272.071 55.2693 271.786 55.0107 271.461 54.856C271.135 54.696 270.797 54.616 270.445 54.616C270.093 54.616 269.754 54.696 269.429 54.856C269.103 55.0107 268.818 55.2693 268.573 55.632C268.327 55.9947 268.13 56.4747 267.981 57.072C267.837 57.664 267.765 58.3973 267.765 59.272C267.765 60.1467 267.837 60.88 267.981 61.472C268.13 62.064 268.327 62.5413 268.573 62.904C268.818 63.2667 269.103 63.528 269.429 63.688C269.754 63.8427 270.093 63.92 270.445 63.92C270.797 63.92 271.135 63.8427 271.461 63.688C271.786 63.528 272.071 63.2667 272.317 62.904C272.567 62.5413 272.765 62.064 272.909 61.472C273.058 60.88 273.133 60.1467 273.133 59.272Z" fill="black"/>
<path d="M377.896 56.76C378.248 56.76 378.576 56.8 378.88 56.88C379.189 56.9547 379.469 57.0667 379.72 57.216H381.92V57.744C381.92 57.92 381.808 58.032 381.584 58.08L380.664 58.208C380.845 58.5547 380.936 58.9413 380.936 59.368C380.936 59.7627 380.859 60.1227 380.704 60.448C380.555 60.768 380.344 61.0427 380.072 61.272C379.805 61.5013 379.485 61.6773 379.112 61.8C378.744 61.9227 378.339 61.984 377.896 61.984C377.517 61.984 377.16 61.9387 376.824 61.848C376.653 61.9547 376.523 62.0693 376.432 62.192C376.347 62.3147 376.304 62.4347 376.304 62.552C376.304 62.744 376.381 62.8907 376.536 62.992C376.691 63.088 376.896 63.1573 377.152 63.2C377.408 63.2427 377.699 63.2693 378.024 63.28C378.349 63.2907 378.68 63.3093 379.016 63.336C379.357 63.3573 379.691 63.3973 380.016 63.456C380.341 63.5147 380.632 63.6107 380.888 63.744C381.144 63.8773 381.349 64.0613 381.504 64.296C381.659 64.5307 381.736 64.8347 381.736 65.208C381.736 65.5547 381.648 65.8907 381.472 66.216C381.301 66.5413 381.053 66.8293 380.728 67.08C380.403 67.336 380.005 67.5387 379.536 67.688C379.067 67.8427 378.536 67.92 377.944 67.92C377.352 67.92 376.832 67.8613 376.384 67.744C375.941 67.6267 375.573 67.4693 375.28 67.272C374.987 67.0747 374.765 66.8453 374.616 66.584C374.472 66.328 374.4 66.0587 374.4 65.776C374.4 65.376 374.525 65.0373 374.776 64.76C375.032 64.4773 375.381 64.2533 375.824 64.088C375.595 63.9813 375.411 63.84 375.272 63.664C375.139 63.4827 375.072 63.2427 375.072 62.944C375.072 62.8267 375.093 62.7067 375.136 62.584C375.179 62.456 375.243 62.3307 375.328 62.208C375.419 62.0853 375.528 61.968 375.656 61.856C375.784 61.744 375.933 61.6453 376.104 61.56C375.704 61.336 375.389 61.04 375.16 60.672C374.936 60.2987 374.824 59.864 374.824 59.368C374.824 58.9733 374.899 58.616 375.048 58.296C375.203 57.9707 375.416 57.696 375.688 57.472C375.96 57.2427 376.283 57.0667 376.656 56.944C377.035 56.8213 377.448 56.76 377.896 56.76ZM380.424 65.44C380.424 65.2373 380.368 65.0747 380.256 64.952C380.144 64.8293 379.992 64.736 379.8 64.672C379.608 64.6027 379.387 64.552 379.136 64.52C378.885 64.488 378.621 64.4667 378.344 64.456C378.067 64.44 377.784 64.424 377.496 64.408C377.208 64.392 376.933 64.3627 376.672 64.32C376.368 64.464 376.12 64.64 375.928 64.848C375.741 65.056 375.648 65.304 375.648 65.592C375.648 65.7733 375.693 65.9413 375.784 66.096C375.88 66.256 376.024 66.392 376.216 66.504C376.408 66.6213 376.648 66.712 376.936 66.776C377.229 66.8453 377.573 66.88 377.968 66.88C378.352 66.88 378.696 66.8453 379 66.776C379.304 66.7067 379.56 66.608 379.768 66.48C379.981 66.352 380.144 66.2 380.256 66.024C380.368 65.848 380.424 65.6533 380.424 65.44ZM377.896 61.04C378.184 61.04 378.437 61 378.656 60.92C378.88 60.84 379.067 60.728 379.216 60.584C379.365 60.44 379.477 60.2693 379.552 60.072C379.627 59.8693 379.664 59.648 379.664 59.408C379.664 58.912 379.512 58.5173 379.208 58.224C378.909 57.9307 378.472 57.784 377.896 57.784C377.325 57.784 376.888 57.9307 376.584 58.224C376.285 58.5173 376.136 58.912 376.136 59.408C376.136 59.648 376.173 59.8693 376.248 60.072C376.328 60.2693 376.443 60.44 376.592 60.584C376.741 60.728 376.925 60.84 377.144 60.92C377.363 61 377.613 61.04 377.896 61.04ZM383.34 65V56.896H384.156C384.311 56.896 384.417 56.9253 384.476 56.984C384.535 57.0427 384.575 57.144 384.596 57.288L384.692 58.552C384.969 57.9867 385.311 57.5467 385.716 57.232C386.127 56.912 386.607 56.752 387.156 56.752C387.38 56.752 387.583 56.7787 387.764 56.832C387.945 56.88 388.113 56.9493 388.268 57.04L388.084 58.104C388.047 58.2373 387.964 58.304 387.836 58.304C387.761 58.304 387.647 58.28 387.492 58.232C387.337 58.1787 387.121 58.152 386.844 58.152C386.348 58.152 385.932 58.296 385.596 58.584C385.265 58.872 384.988 59.2907 384.764 59.84V65H383.34ZM393.001 56.768C393.486 56.768 393.934 56.8507 394.345 57.016C394.756 57.176 395.11 57.4107 395.409 57.72C395.708 58.024 395.94 58.4027 396.105 58.856C396.276 59.304 396.361 59.816 396.361 60.392C396.361 60.616 396.337 60.7653 396.289 60.84C396.241 60.9147 396.15 60.952 396.017 60.952H390.625C390.636 61.464 390.705 61.9093 390.833 62.288C390.961 62.6667 391.137 62.984 391.361 63.24C391.585 63.4907 391.852 63.68 392.161 63.808C392.47 63.9307 392.817 63.992 393.201 63.992C393.558 63.992 393.865 63.952 394.121 63.872C394.382 63.7867 394.606 63.696 394.793 63.6C394.98 63.504 395.134 63.416 395.257 63.336C395.385 63.2507 395.494 63.208 395.585 63.208C395.702 63.208 395.793 63.2533 395.857 63.344L396.257 63.864C396.081 64.0773 395.87 64.264 395.625 64.424C395.38 64.5787 395.116 64.7067 394.833 64.808C394.556 64.9093 394.268 64.984 393.969 65.032C393.67 65.0853 393.374 65.112 393.081 65.112C392.521 65.112 392.004 65.0187 391.529 64.832C391.06 64.64 390.652 64.3627 390.305 64C389.964 63.632 389.697 63.1787 389.505 62.64C389.313 62.1013 389.217 61.4827 389.217 60.784C389.217 60.2187 389.302 59.6907 389.473 59.2C389.649 58.7093 389.9 58.2853 390.225 57.928C390.55 57.5653 390.948 57.2827 391.417 57.08C391.886 56.872 392.414 56.768 393.001 56.768ZM393.033 57.816C392.345 57.816 391.804 58.016 391.409 58.416C391.014 58.8107 390.769 59.36 390.673 60.064H395.081C395.081 59.7333 395.036 59.432 394.945 59.16C394.854 58.8827 394.721 58.6453 394.545 58.448C394.369 58.2453 394.153 58.0907 393.897 57.984C393.646 57.872 393.358 57.816 393.033 57.816ZM401.392 56.768C401.877 56.768 402.325 56.8507 402.736 57.016C403.146 57.176 403.501 57.4107 403.8 57.72C404.098 58.024 404.33 58.4027 404.496 58.856C404.666 59.304 404.752 59.816 404.752 60.392C404.752 60.616 404.728 60.7653 404.68 60.84C404.632 60.9147 404.541 60.952 404.408 60.952H399.016C399.026 61.464 399.096 61.9093 399.224 62.288C399.352 62.6667 399.528 62.984 399.752 63.24C399.976 63.4907 400.242 63.68 400.552 63.808C400.861 63.9307 401.208 63.992 401.592 63.992C401.949 63.992 402.256 63.952 402.512 63.872C402.773 63.7867 402.997 63.696 403.184 63.6C403.37 63.504 403.525 63.416 403.648 63.336C403.776 63.2507 403.885 63.208 403.976 63.208C404.093 63.208 404.184 63.2533 404.248 63.344L404.648 63.864C404.472 64.0773 404.261 64.264 404.016 64.424C403.77 64.5787 403.506 64.7067 403.224 64.808C402.946 64.9093 402.658 64.984 402.36 65.032C402.061 65.0853 401.765 65.112 401.472 65.112C400.912 65.112 400.394 65.0187 399.92 64.832C399.45 64.64 399.042 64.3627 398.696 64C398.354 63.632 398.088 63.1787 397.896 62.64C397.704 62.1013 397.608 61.4827 397.608 60.784C397.608 60.2187 397.693 59.6907 397.864 59.2C398.04 58.7093 398.29 58.2853 398.616 57.928C398.941 57.5653 399.338 57.2827 399.808 57.08C400.277 56.872 400.805 56.768 401.392 56.768ZM401.424 57.816C400.736 57.816 400.194 58.016 399.8 58.416C399.405 58.8107 399.16 59.36 399.064 60.064H403.472C403.472 59.7333 403.426 59.432 403.336 59.16C403.245 58.8827 403.112 58.6453 402.936 58.448C402.76 58.2453 402.544 58.0907 402.288 57.984C402.037 57.872 401.749 57.816 401.424 57.816ZM406.574 65V56.896H407.422C407.625 56.896 407.753 56.9947 407.806 57.192L407.918 58.072C408.27 57.6827 408.662 57.368 409.094 57.128C409.532 56.888 410.036 56.768 410.606 56.768C411.049 56.768 411.438 56.8427 411.774 56.992C412.116 57.136 412.398 57.344 412.622 57.616C412.852 57.8827 413.025 58.2053 413.142 58.584C413.26 58.9627 413.318 59.3813 413.318 59.84V65H411.894V59.84C411.894 59.2267 411.753 58.752 411.47 58.416C411.193 58.0747 410.766 57.904 410.19 57.904C409.769 57.904 409.374 58.0053 409.006 58.208C408.644 58.4107 408.308 58.6853 407.998 59.032V65H406.574ZM415.097 59.6H419.049V60.808H415.097V59.6ZM427.668 54.16C427.668 54.3627 427.604 54.5307 427.476 54.664C427.348 54.792 427.132 54.856 426.828 54.856H423.228L422.7 57.864C423.297 57.736 423.849 57.672 424.356 57.672C424.953 57.672 425.478 57.76 425.932 57.936C426.39 58.112 426.774 58.3547 427.084 58.664C427.393 58.9733 427.625 59.3387 427.78 59.76C427.94 60.1813 428.02 60.64 428.02 61.136C428.02 61.744 427.913 62.2933 427.7 62.784C427.486 63.2747 427.193 63.696 426.82 64.048C426.452 64.3947 426.017 64.6613 425.516 64.848C425.014 65.0347 424.473 65.128 423.892 65.128C423.556 65.128 423.233 65.0933 422.924 65.024C422.614 64.96 422.326 64.872 422.06 64.76C421.793 64.648 421.545 64.52 421.316 64.376C421.086 64.232 420.884 64.08 420.708 63.92L421.14 63.312C421.236 63.1733 421.364 63.104 421.524 63.104C421.625 63.104 421.742 63.1467 421.876 63.232C422.014 63.312 422.18 63.4027 422.372 63.504C422.564 63.6053 422.788 63.6987 423.044 63.784C423.305 63.864 423.614 63.904 423.972 63.904C424.372 63.904 424.732 63.84 425.052 63.712C425.372 63.584 425.644 63.4027 425.868 63.168C426.097 62.928 426.273 62.6427 426.396 62.312C426.518 61.9813 426.58 61.6107 426.58 61.2C426.58 60.8427 426.526 60.52 426.42 60.232C426.318 59.944 426.161 59.6987 425.948 59.496C425.74 59.2933 425.478 59.136 425.164 59.024C424.849 58.912 424.481 58.856 424.06 58.856C423.772 58.856 423.473 58.88 423.164 58.928C422.854 58.976 422.534 59.0533 422.204 59.16L421.308 58.896L422.236 53.536H427.668V54.16ZM437.925 59.272C437.925 60.2747 437.816 61.144 437.597 61.88C437.384 62.6107 437.09 63.216 436.717 63.696C436.344 64.176 435.901 64.5333 435.389 64.768C434.882 65.0027 434.338 65.12 433.757 65.12C433.17 65.12 432.624 65.0027 432.117 64.768C431.616 64.5333 431.178 64.176 430.805 63.696C430.432 63.216 430.138 62.6107 429.925 61.88C429.712 61.144 429.605 60.2747 429.605 59.272C429.605 58.2693 429.712 57.4 429.925 56.664C430.138 55.928 430.432 55.32 430.805 54.84C431.178 54.3547 431.616 53.9947 432.117 53.76C432.624 53.5253 433.17 53.408 433.757 53.408C434.338 53.408 434.882 53.5253 435.389 53.76C435.901 53.9947 436.344 54.3547 436.717 54.84C437.09 55.32 437.384 55.928 437.597 56.664C437.816 57.4 437.925 58.2693 437.925 59.272ZM436.445 59.272C436.445 58.3973 436.37 57.664 436.221 57.072C436.077 56.4747 435.88 55.9947 435.629 55.632C435.384 55.2693 435.098 55.0107 434.773 54.856C434.448 54.696 434.109 54.616 433.757 54.616C433.405 54.616 433.066 54.696 432.741 54.856C432.416 55.0107 432.13 55.2693 431.885 55.632C431.64 55.9947 431.442 56.4747 431.293 57.072C431.149 57.664 431.077 58.3973 431.077 59.272C431.077 60.1467 431.149 60.88 431.293 61.472C431.442 62.064 431.64 62.5413 431.885 62.904C432.13 63.2667 432.416 63.528 432.741 63.688C433.066 63.8427 433.405 63.92 433.757 63.92C434.109 63.92 434.448 63.8427 434.773 63.688C435.098 63.528 435.384 63.2667 435.629 62.904C435.88 62.5413 436.077 62.064 436.221 61.472C436.37 60.88 436.445 60.1467 436.445 59.272ZM447.206 59.272C447.206 60.2747 447.097 61.144 446.878 61.88C446.665 62.6107 446.372 63.216 445.998 63.696C445.625 64.176 445.182 64.5333 444.67 64.768C444.164 65.0027 443.62 65.12 443.038 65.12C442.452 65.12 441.905 65.0027 441.398 64.768C440.897 64.5333 440.46 64.176 440.086 63.696C439.713 63.216 439.42 62.6107 439.206 61.88C438.993 61.144 438.886 60.2747 438.886 59.272C438.886 58.2693 438.993 57.4 439.206 56.664C439.42 55.928 439.713 55.32 440.086 54.84C440.46 54.3547 440.897 53.9947 441.398 53.76C441.905 53.5253 442.452 53.408 443.038 53.408C443.62 53.408 444.164 53.5253 444.67 53.76C445.182 53.9947 445.625 54.3547 445.998 54.84C446.372 55.32 446.665 55.928 446.878 56.664C447.097 57.4 447.206 58.2693 447.206 59.272ZM445.726 59.272C445.726 58.3973 445.652 57.664 445.502 57.072C445.358 56.4747 445.161 55.9947 444.91 55.632C444.665 55.2693 444.38 55.0107 444.054 54.856C443.729 54.696 443.39 54.616 443.038 54.616C442.686 54.616 442.348 54.696 442.022 54.856C441.697 55.0107 441.412 55.2693 441.166 55.632C440.921 55.9947 440.724 56.4747 440.574 57.072C440.43 57.664 440.358 58.3973 440.358 59.272C440.358 60.1467 440.43 60.88 440.574 61.472C440.724 62.064 440.921 62.5413 441.166 62.904C441.412 63.2667 441.697 63.528 442.022 63.688C442.348 63.8427 442.686 63.92 443.038 63.92C443.39 63.92 443.729 63.8427 444.054 63.688C444.38 63.528 444.665 63.2667 444.91 62.904C445.161 62.5413 445.358 62.064 445.502 61.472C445.652 60.88 445.726 60.1467 445.726 59.272Z" fill="black"/>
</svg>
