<svg width="24" height="24" viewBox="0 0 24 24" fill="none" xmlns="http://www.w3.org/2000/svg">
<path d="M12 24C18.6274 24 24 18.6274 24 12C24 5.37258 18.6274 0 12 0C5.37258 0 0 5.37258 0 12C0 18.6274 5.37258 24 12 24Z" fill="#EA4A3E"/>
<path fill-rule="evenodd" clip-rule="evenodd" d="M12.0405 18.5447C11.596 18.5612 11.186 18.3062 11.0043 17.9001C10.8227 17.4941 10.9057 17.0184 11.2142 16.6979C11.5228 16.3775 11.995 16.2765 12.4076 16.4427C12.8202 16.6089 13.0905 17.009 13.0909 17.4538C13.1004 18.0445 12.6311 18.5319 12.0405 18.5447Z" fill="white"/>
<path fill-rule="evenodd" clip-rule="evenodd" d="M13.0902 13.0959C13.1056 13.4788 12.9012 13.8391 12.5576 14.035C12.214 14.2308 11.7862 14.2308 11.4426 14.035C11.0989 13.8391 10.8946 13.4788 10.91 13.0959V6.5406C10.8946 6.15767 11.0989 5.79733 11.4426 5.60148C11.7862 5.40563 12.214 5.40563 12.5576 5.60148C12.9012 5.79733 13.1056 6.15767 13.0902 6.5406V13.0959Z" fill="white"/>
</svg>
