<svg width="720" height="92" viewBox="0 0 720 92" fill="none" xmlns="http://www.w3.org/2000/svg">
<rect width="180" height="92" fill="#0064D1"/>
<rect x="180" width="180" height="92" fill="#6A6A6A"/>
<rect x="360" width="180" height="92" fill="black"/>
<rect x="540.5" y="0.5" width="179" height="91" fill="white" stroke="black"/>
<path d="M19.096 25.712V30H17.552V18.536H20.936C21.6613 18.536 22.2907 18.6213 22.824 18.792C23.3627 18.9573 23.808 19.1947 24.16 19.504C24.512 19.8133 24.7733 20.1867 24.944 20.624C25.12 21.0613 25.208 21.5493 25.208 22.088C25.208 22.6213 25.1147 23.1093 24.928 23.552C24.7413 23.9947 24.4667 24.376 24.104 24.696C23.7467 25.016 23.3013 25.2667 22.768 25.448C22.2347 25.624 21.624 25.712 20.936 25.712H19.096ZM19.096 24.48H20.936C21.3787 24.48 21.768 24.4213 22.104 24.304C22.4453 24.1867 22.7307 24.024 22.96 23.816C23.1893 23.6027 23.3627 23.3493 23.48 23.056C23.5973 22.7627 23.656 22.44 23.656 22.088C23.656 21.3573 23.4293 20.7867 22.976 20.376C22.528 19.9653 21.848 19.76 20.936 19.76H19.096V24.48ZM26.9493 30V21.896H27.7653C27.9199 21.896 28.0266 21.9253 28.0853 21.984C28.1439 22.0427 28.1839 22.144 28.2053 22.288L28.3013 23.552C28.5786 22.9867 28.9199 22.5467 29.3253 22.232C29.7359 21.912 30.2159 21.752 30.7653 21.752C30.9893 21.752 31.1919 21.7787 31.3733 21.832C31.5546 21.88 31.7226 21.9493 31.8773 22.04L31.6933 23.104C31.6559 23.2373 31.5733 23.304 31.4453 23.304C31.3706 23.304 31.2559 23.28 31.1013 23.232C30.9466 23.1787 30.7306 23.152 30.4533 23.152C29.9573 23.152 29.5413 23.296 29.2053 23.584C28.8746 23.872 28.5973 24.2907 28.3733 24.84V30H26.9493ZM34.9864 21.896V30H33.5624V21.896H34.9864ZM35.3064 19.352C35.3064 19.4907 35.277 19.6213 35.2184 19.744C35.165 19.8613 35.0904 19.968 34.9944 20.064C34.9037 20.1547 34.797 20.2267 34.6744 20.28C34.5517 20.3333 34.421 20.36 34.2824 20.36C34.1437 20.36 34.013 20.3333 33.8904 20.28C33.773 20.2267 33.6664 20.1547 33.5704 20.064C33.4797 19.968 33.4077 19.8613 33.3544 19.744C33.301 19.6213 33.2744 19.4907 33.2744 19.352C33.2744 19.2133 33.301 19.0827 33.3544 18.96C33.4077 18.832 33.4797 18.7227 33.5704 18.632C33.6664 18.536 33.773 18.4613 33.8904 18.408C34.013 18.3547 34.1437 18.328 34.2824 18.328C34.421 18.328 34.5517 18.3547 34.6744 18.408C34.797 18.4613 34.9037 18.536 34.9944 18.632C35.0904 18.7227 35.165 18.832 35.2184 18.96C35.277 19.0827 35.3064 19.2133 35.3064 19.352ZM37.4961 30V21.896H38.3441C38.5468 21.896 38.6748 21.9947 38.7281 22.192L38.8321 23.024C39.1308 22.656 39.4641 22.3547 39.8321 22.12C40.2055 21.8853 40.6375 21.768 41.1281 21.768C41.6775 21.768 42.1201 21.92 42.4561 22.224C42.7975 22.528 43.0428 22.9387 43.1921 23.456C43.3041 23.1627 43.4508 22.9093 43.6321 22.696C43.8188 22.4827 44.0268 22.3067 44.2561 22.168C44.4855 22.0293 44.7281 21.928 44.9841 21.864C45.2455 21.8 45.5095 21.768 45.7761 21.768C46.2028 21.768 46.5815 21.8373 46.9121 21.976C47.2481 22.1093 47.5308 22.3067 47.7601 22.568C47.9948 22.8293 48.1735 23.152 48.2961 23.536C48.4188 23.9147 48.4801 24.3493 48.4801 24.84V30H47.0561V24.84C47.0561 24.2053 46.9175 23.7253 46.6401 23.4C46.3628 23.0693 45.9601 22.904 45.4321 22.904C45.1975 22.904 44.9735 22.9467 44.7601 23.032C44.5521 23.112 44.3681 23.232 44.2081 23.392C44.0481 23.552 43.9201 23.7547 43.8241 24C43.7335 24.24 43.6881 24.52 43.6881 24.84V30H42.2641V24.84C42.2641 24.1893 42.1335 23.704 41.8721 23.384C41.6108 23.064 41.2295 22.904 40.7281 22.904C40.3761 22.904 40.0481 23 39.7441 23.192C39.4455 23.3787 39.1708 23.6347 38.9201 23.96V30H37.4961ZM56.5888 30H55.9568C55.8181 30 55.7061 29.9787 55.6208 29.936C55.5354 29.8933 55.4794 29.8027 55.4528 29.664L55.2928 28.912C55.0794 29.104 54.8714 29.2773 54.6688 29.432C54.4661 29.5813 54.2528 29.7093 54.0288 29.816C53.8048 29.9173 53.5648 29.9947 53.3088 30.048C53.0581 30.1013 52.7781 30.128 52.4688 30.128C52.1541 30.128 51.8581 30.0853 51.5807 30C51.3088 29.9093 51.0714 29.776 50.8688 29.6C50.6661 29.424 50.5034 29.2027 50.3808 28.936C50.2634 28.664 50.2048 28.344 50.2048 27.976C50.2048 27.656 50.2928 27.3493 50.4688 27.056C50.6448 26.7573 50.9274 26.4933 51.3168 26.264C51.7114 26.0347 52.2261 25.848 52.8608 25.704C53.4954 25.5547 54.2714 25.4693 55.1888 25.448V24.816C55.1888 24.1867 55.0528 23.712 54.7808 23.392C54.5141 23.0667 54.1168 22.904 53.5888 22.904C53.2421 22.904 52.9488 22.9493 52.7088 23.04C52.4741 23.1253 52.2688 23.224 52.0928 23.336C51.9221 23.4427 51.7728 23.5413 51.6448 23.632C51.5221 23.7173 51.3994 23.76 51.2768 23.76C51.1808 23.76 51.0954 23.736 51.0208 23.688C50.9514 23.6347 50.8954 23.5707 50.8528 23.496L50.5968 23.04C51.0448 22.608 51.5274 22.2853 52.0448 22.072C52.5621 21.8587 53.1354 21.752 53.7648 21.752C54.2181 21.752 54.6208 21.8267 54.9728 21.976C55.3248 22.1253 55.6208 22.3333 55.8608 22.6C56.1008 22.8667 56.2821 23.1893 56.4048 23.568C56.5274 23.9467 56.5888 24.3627 56.5888 24.816V30ZM52.8928 29.128C53.1434 29.128 53.3728 29.104 53.5807 29.056C53.7888 29.0027 53.9834 28.9307 54.1648 28.84C54.3514 28.744 54.5274 28.6293 54.6928 28.496C54.8634 28.3627 55.0288 28.2107 55.1888 28.04V26.352C54.5328 26.3733 53.9754 26.4267 53.5168 26.512C53.0581 26.592 52.6848 26.6987 52.3968 26.832C52.1088 26.9653 51.8981 27.1227 51.7648 27.304C51.6368 27.4853 51.5728 27.688 51.5728 27.912C51.5728 28.1253 51.6074 28.3093 51.6768 28.464C51.7461 28.6187 51.8394 28.7467 51.9568 28.848C52.0741 28.944 52.2128 29.016 52.3728 29.064C52.5328 29.1067 52.7061 29.128 52.8928 29.128ZM58.7461 30V21.896H59.5621C59.7168 21.896 59.8235 21.9253 59.8821 21.984C59.9408 22.0427 59.9808 22.144 60.0021 22.288L60.0981 23.552C60.3755 22.9867 60.7168 22.5467 61.1221 22.232C61.5328 21.912 62.0128 21.752 62.5621 21.752C62.7861 21.752 62.9888 21.7787 63.1701 21.832C63.3515 21.88 63.5195 21.9493 63.6741 22.04L63.4901 23.104C63.4528 23.2373 63.3701 23.304 63.2421 23.304C63.1675 23.304 63.0528 23.28 62.8981 23.232C62.7435 23.1787 62.5275 23.152 62.2501 23.152C61.7541 23.152 61.3381 23.296 61.0021 23.584C60.6715 23.872 60.3941 24.2907 60.1701 24.84V30H58.7461ZM67.5753 32.392C67.5273 32.4987 67.4659 32.584 67.3913 32.648C67.3219 32.712 67.2126 32.744 67.0633 32.744H66.0073L67.4873 29.528L64.1433 21.896H65.3753C65.4979 21.896 65.5939 21.928 65.6633 21.992C65.7326 22.0507 65.7833 22.1173 65.8153 22.192L67.9833 27.296C68.0313 27.4133 68.0713 27.5307 68.1033 27.648C68.1406 27.7653 68.1726 27.8853 68.1993 28.008C68.2366 27.8853 68.2739 27.7653 68.3113 27.648C68.3486 27.5307 68.3913 27.4107 68.4392 27.288L70.5433 22.192C70.5753 22.1067 70.6286 22.0373 70.7033 21.984C70.7833 21.9253 70.8686 21.896 70.9593 21.896H72.0953L67.5753 32.392ZM82.0085 23.336C81.9658 23.3947 81.9232 23.44 81.8805 23.472C81.8378 23.504 81.7765 23.52 81.6965 23.52C81.6165 23.52 81.5285 23.488 81.4325 23.424C81.3418 23.3547 81.2245 23.28 81.0805 23.2C80.9365 23.12 80.7605 23.048 80.5525 22.984C80.3498 22.9147 80.0992 22.88 79.8005 22.88C79.4058 22.88 79.0565 22.952 78.7525 23.096C78.4485 23.2347 78.1925 23.4373 77.9845 23.704C77.7818 23.9707 77.6272 24.2933 77.5205 24.672C77.4192 25.0507 77.3685 25.4747 77.3685 25.944C77.3685 26.4347 77.4245 26.872 77.5365 27.256C77.6485 27.6347 77.8058 27.9547 78.0085 28.216C78.2112 28.472 78.4565 28.6693 78.7445 28.808C79.0378 28.9413 79.3658 29.008 79.7285 29.008C80.0752 29.008 80.3605 28.968 80.5845 28.888C80.8085 28.8027 80.9952 28.7093 81.1445 28.608C81.2938 28.5067 81.4165 28.416 81.5125 28.336C81.6085 28.2507 81.7045 28.208 81.8005 28.208C81.9232 28.208 82.0138 28.2533 82.0725 28.344L82.4725 28.864C82.1205 29.296 81.6805 29.6133 81.1525 29.816C80.6245 30.0133 80.0672 30.112 79.4805 30.112C78.9738 30.112 78.5018 30.0187 78.0645 29.832C77.6325 29.6453 77.2565 29.376 76.9365 29.024C76.6165 28.6667 76.3632 28.2293 76.1765 27.712C75.9952 27.1947 75.9045 26.6053 75.9045 25.944C75.9045 25.3413 75.9872 24.784 76.1525 24.272C76.3232 23.76 76.5685 23.32 76.8885 22.952C77.2138 22.5787 77.6138 22.288 78.0885 22.08C78.5632 21.872 79.1072 21.768 79.7205 21.768C80.2858 21.768 80.7872 21.8613 81.2245 22.048C81.6618 22.2293 82.0485 22.488 82.3845 22.824L82.0085 23.336ZM87.2293 21.768C87.8213 21.768 88.3546 21.8667 88.8293 22.064C89.3093 22.2613 89.7146 22.5413 90.0453 22.904C90.3813 23.2667 90.6373 23.7067 90.8133 24.224C90.9946 24.736 91.0853 25.3093 91.0853 25.944C91.0853 26.584 90.9946 27.16 90.8133 27.672C90.6373 28.184 90.3813 28.6213 90.0453 28.984C89.7146 29.3467 89.3093 29.6267 88.8293 29.824C88.3546 30.016 87.8213 30.112 87.2293 30.112C86.6373 30.112 86.1013 30.016 85.6213 29.824C85.1466 29.6267 84.7413 29.3467 84.4053 28.984C84.0693 28.6213 83.8106 28.184 83.6293 27.672C83.4479 27.16 83.3573 26.584 83.3573 25.944C83.3573 25.3093 83.4479 24.736 83.6293 24.224C83.8106 23.7067 84.0693 23.2667 84.4053 22.904C84.7413 22.5413 85.1466 22.2613 85.6213 22.064C86.1013 21.8667 86.6373 21.768 87.2293 21.768ZM87.2293 29C88.0293 29 88.6266 28.7333 89.0213 28.2C89.4159 27.6613 89.6133 26.912 89.6133 25.952C89.6133 24.9867 89.4159 24.2347 89.0213 23.696C88.6266 23.1573 88.0293 22.888 87.2293 22.888C86.8239 22.888 86.4719 22.9573 86.1733 23.096C85.8746 23.2347 85.6239 23.4347 85.4213 23.696C85.2239 23.9573 85.0746 24.28 84.9733 24.664C84.8773 25.0427 84.8293 25.472 84.8293 25.952C84.8293 26.432 84.8773 26.8613 84.9733 27.24C85.0746 27.6187 85.2239 27.9387 85.4213 28.2C85.6239 28.456 85.8746 28.6533 86.1733 28.792C86.4719 28.9307 86.8239 29 87.2293 29ZM94.4239 18.216V30H92.9999V18.216H94.4239ZM100.214 21.768C100.806 21.768 101.339 21.8667 101.814 22.064C102.294 22.2613 102.699 22.5413 103.03 22.904C103.366 23.2667 103.622 23.7067 103.798 24.224C103.979 24.736 104.07 25.3093 104.07 25.944C104.07 26.584 103.979 27.16 103.798 27.672C103.622 28.184 103.366 28.6213 103.03 28.984C102.699 29.3467 102.294 29.6267 101.814 29.824C101.339 30.016 100.806 30.112 100.214 30.112C99.6216 30.112 99.0856 30.016 98.6056 29.824C98.131 29.6267 97.7256 29.3467 97.3896 28.984C97.0536 28.6213 96.795 28.184 96.6136 27.672C96.4323 27.16 96.3416 26.584 96.3416 25.944C96.3416 25.3093 96.4323 24.736 96.6136 24.224C96.795 23.7067 97.0536 23.2667 97.3896 22.904C97.7256 22.5413 98.131 22.2613 98.6056 22.064C99.0856 21.8667 99.6216 21.768 100.214 21.768ZM100.214 29C101.014 29 101.611 28.7333 102.006 28.2C102.4 27.6613 102.598 26.912 102.598 25.952C102.598 24.9867 102.4 24.2347 102.006 23.696C101.611 23.1573 101.014 22.888 100.214 22.888C99.8083 22.888 99.4563 22.9573 99.1576 23.096C98.859 23.2347 98.6083 23.4347 98.4056 23.696C98.2083 23.9573 98.059 24.28 97.9576 24.664C97.8616 25.0427 97.8136 25.472 97.8136 25.952C97.8136 26.432 97.8616 26.8613 97.9576 27.24C98.059 27.6187 98.2083 27.9387 98.4056 28.2C98.6083 28.456 98.859 28.6533 99.1576 28.792C99.4563 28.9307 99.8083 29 100.214 29ZM105.824 30V21.896H106.64C106.795 21.896 106.902 21.9253 106.96 21.984C107.019 22.0427 107.059 22.144 107.08 22.288L107.176 23.552C107.454 22.9867 107.795 22.5467 108.2 22.232C108.611 21.912 109.091 21.752 109.64 21.752C109.864 21.752 110.067 21.7787 110.248 21.832C110.43 21.88 110.598 21.9493 110.752 22.04L110.568 23.104C110.531 23.2373 110.448 23.304 110.32 23.304C110.246 23.304 110.131 23.28 109.976 23.232C109.822 23.1787 109.606 23.152 109.328 23.152C108.832 23.152 108.416 23.296 108.08 23.584C107.75 23.872 107.472 24.2907 107.248 24.84V30H105.824Z" fill="white"/>
<path d="M203.264 20.328C203.216 20.408 203.165 20.4693 203.112 20.512C203.059 20.5493 202.989 20.568 202.904 20.568C202.813 20.568 202.707 20.5227 202.584 20.432C202.467 20.3413 202.315 20.2427 202.128 20.136C201.947 20.024 201.725 19.9227 201.464 19.832C201.208 19.7413 200.896 19.696 200.528 19.696C200.181 19.696 199.875 19.744 199.608 19.84C199.341 19.9307 199.117 20.056 198.936 20.216C198.76 20.376 198.627 20.5653 198.536 20.784C198.445 20.9973 198.4 21.2293 198.4 21.48C198.4 21.8 198.477 22.0667 198.632 22.28C198.792 22.488 199 22.6667 199.256 22.816C199.517 22.9653 199.811 23.096 200.136 23.208C200.467 23.3147 200.803 23.4267 201.144 23.544C201.491 23.6613 201.827 23.7947 202.152 23.944C202.483 24.088 202.776 24.272 203.032 24.496C203.293 24.72 203.501 24.9947 203.656 25.32C203.816 25.6453 203.896 26.0453 203.896 26.52C203.896 27.0213 203.811 27.4933 203.64 27.936C203.469 28.3733 203.219 28.7547 202.888 29.08C202.563 29.4053 202.16 29.6613 201.68 29.848C201.205 30.0347 200.664 30.128 200.056 30.128C199.315 30.128 198.637 29.9947 198.024 29.728C197.416 29.456 196.896 29.0907 196.464 28.632L196.912 27.896C196.955 27.8373 197.005 27.7893 197.064 27.752C197.128 27.7093 197.197 27.688 197.272 27.688C197.384 27.688 197.512 27.7493 197.656 27.872C197.8 27.9893 197.979 28.12 198.192 28.264C198.411 28.408 198.672 28.5413 198.976 28.664C199.285 28.7813 199.661 28.84 200.104 28.84C200.472 28.84 200.8 28.7893 201.088 28.688C201.376 28.5867 201.619 28.4453 201.816 28.264C202.019 28.0773 202.173 27.856 202.28 27.6C202.387 27.344 202.44 27.0587 202.44 26.744C202.44 26.3973 202.36 26.1147 202.2 25.896C202.045 25.672 201.84 25.4853 201.584 25.336C201.328 25.1867 201.035 25.0613 200.704 24.96C200.379 24.8533 200.043 24.7467 199.696 24.64C199.355 24.528 199.019 24.4 198.688 24.256C198.363 24.112 198.072 23.9253 197.816 23.696C197.56 23.4667 197.352 23.1813 197.192 22.84C197.037 22.4933 196.96 22.0667 196.96 21.56C196.96 21.1547 197.037 20.7627 197.192 20.384C197.352 20.0053 197.581 19.6693 197.88 19.376C198.179 19.0827 198.547 18.848 198.984 18.672C199.427 18.496 199.933 18.408 200.504 18.408C201.144 18.408 201.728 18.5093 202.256 18.712C202.784 18.9147 203.245 19.208 203.64 19.592L203.264 20.328ZM208.86 21.768C209.346 21.768 209.794 21.8507 210.204 22.016C210.615 22.176 210.97 22.4107 211.268 22.72C211.567 23.024 211.799 23.4027 211.964 23.856C212.135 24.304 212.22 24.816 212.22 25.392C212.22 25.616 212.196 25.7653 212.148 25.84C212.1 25.9147 212.01 25.952 211.876 25.952H206.484C206.495 26.464 206.564 26.9093 206.692 27.288C206.82 27.6667 206.996 27.984 207.22 28.24C207.444 28.4907 207.711 28.68 208.02 28.808C208.33 28.9307 208.676 28.992 209.06 28.992C209.418 28.992 209.724 28.952 209.98 28.872C210.242 28.7867 210.466 28.696 210.652 28.6C210.839 28.504 210.994 28.416 211.116 28.336C211.244 28.2507 211.354 28.208 211.444 28.208C211.562 28.208 211.652 28.2533 211.716 28.344L212.116 28.864C211.94 29.0773 211.73 29.264 211.484 29.424C211.239 29.5787 210.975 29.7067 210.692 29.808C210.415 29.9093 210.127 29.984 209.828 30.032C209.53 30.0853 209.234 30.112 208.94 30.112C208.38 30.112 207.863 30.0187 207.388 29.832C206.919 29.64 206.511 29.3627 206.164 29C205.823 28.632 205.556 28.1787 205.364 27.64C205.172 27.1013 205.076 26.4827 205.076 25.784C205.076 25.2187 205.162 24.6907 205.332 24.2C205.508 23.7093 205.759 23.2853 206.084 22.928C206.41 22.5653 206.807 22.2827 207.276 22.08C207.746 21.872 208.274 21.768 208.86 21.768ZM208.892 22.816C208.204 22.816 207.663 23.016 207.268 23.416C206.874 23.8107 206.628 24.36 206.532 25.064H210.94C210.94 24.7333 210.895 24.432 210.804 24.16C210.714 23.8827 210.58 23.6453 210.404 23.448C210.228 23.2453 210.012 23.0907 209.756 22.984C209.506 22.872 209.218 22.816 208.892 22.816ZM219.571 23.336C219.528 23.3947 219.486 23.44 219.443 23.472C219.4 23.504 219.339 23.52 219.259 23.52C219.179 23.52 219.091 23.488 218.995 23.424C218.904 23.3547 218.787 23.28 218.643 23.2C218.499 23.12 218.323 23.048 218.115 22.984C217.912 22.9147 217.662 22.88 217.363 22.88C216.968 22.88 216.619 22.952 216.315 23.096C216.011 23.2347 215.755 23.4373 215.547 23.704C215.344 23.9707 215.19 24.2933 215.083 24.672C214.982 25.0507 214.931 25.4747 214.931 25.944C214.931 26.4347 214.987 26.872 215.099 27.256C215.211 27.6347 215.368 27.9547 215.571 28.216C215.774 28.472 216.019 28.6693 216.307 28.808C216.6 28.9413 216.928 29.008 217.291 29.008C217.638 29.008 217.923 28.968 218.147 28.888C218.371 28.8027 218.558 28.7093 218.707 28.608C218.856 28.5067 218.979 28.416 219.075 28.336C219.171 28.2507 219.267 28.208 219.363 28.208C219.486 28.208 219.576 28.2533 219.635 28.344L220.035 28.864C219.683 29.296 219.243 29.6133 218.715 29.816C218.187 30.0133 217.63 30.112 217.043 30.112C216.536 30.112 216.064 30.0187 215.627 29.832C215.195 29.6453 214.819 29.376 214.499 29.024C214.179 28.6667 213.926 28.2293 213.739 27.712C213.558 27.1947 213.467 26.6053 213.467 25.944C213.467 25.3413 213.55 24.784 213.715 24.272C213.886 23.76 214.131 23.32 214.451 22.952C214.776 22.5787 215.176 22.288 215.651 22.08C216.126 21.872 216.67 21.768 217.283 21.768C217.848 21.768 218.35 21.8613 218.787 22.048C219.224 22.2293 219.611 22.488 219.947 22.824L219.571 23.336ZM224.792 21.768C225.384 21.768 225.917 21.8667 226.392 22.064C226.872 22.2613 227.277 22.5413 227.608 22.904C227.944 23.2667 228.2 23.7067 228.376 24.224C228.557 24.736 228.648 25.3093 228.648 25.944C228.648 26.584 228.557 27.16 228.376 27.672C228.2 28.184 227.944 28.6213 227.608 28.984C227.277 29.3467 226.872 29.6267 226.392 29.824C225.917 30.016 225.384 30.112 224.792 30.112C224.2 30.112 223.664 30.016 223.184 29.824C222.709 29.6267 222.304 29.3467 221.968 28.984C221.632 28.6213 221.373 28.184 221.192 27.672C221.01 27.16 220.92 26.584 220.92 25.944C220.92 25.3093 221.01 24.736 221.192 24.224C221.373 23.7067 221.632 23.2667 221.968 22.904C222.304 22.5413 222.709 22.2613 223.184 22.064C223.664 21.8667 224.2 21.768 224.792 21.768ZM224.792 29C225.592 29 226.189 28.7333 226.584 28.2C226.978 27.6613 227.176 26.912 227.176 25.952C227.176 24.9867 226.978 24.2347 226.584 23.696C226.189 23.1573 225.592 22.888 224.792 22.888C224.386 22.888 224.034 22.9573 223.736 23.096C223.437 23.2347 223.186 23.4347 222.984 23.696C222.786 23.9573 222.637 24.28 222.536 24.664C222.44 25.0427 222.392 25.472 222.392 25.952C222.392 26.432 222.44 26.8613 222.536 27.24C222.637 27.6187 222.786 27.9387 222.984 28.2C223.186 28.456 223.437 28.6533 223.736 28.792C224.034 28.9307 224.386 29 224.792 29ZM230.402 30V21.896H231.25C231.453 21.896 231.581 21.9947 231.634 22.192L231.746 23.072C232.098 22.6827 232.49 22.368 232.922 22.128C233.36 21.888 233.864 21.768 234.434 21.768C234.877 21.768 235.266 21.8427 235.602 21.992C235.944 22.136 236.226 22.344 236.45 22.616C236.68 22.8827 236.853 23.2053 236.97 23.584C237.088 23.9627 237.146 24.3813 237.146 24.84V30H235.722V24.84C235.722 24.2267 235.581 23.752 235.298 23.416C235.021 23.0747 234.594 22.904 234.018 22.904C233.597 22.904 233.202 23.0053 232.834 23.208C232.472 23.4107 232.136 23.6853 231.826 24.032V30H230.402ZM244.997 30C244.794 30 244.666 29.9013 244.613 29.704L244.485 28.72C244.138 29.1413 243.741 29.48 243.293 29.736C242.85 29.9867 242.341 30.112 241.765 30.112C241.301 30.112 240.88 30.024 240.501 29.848C240.122 29.6667 239.8 29.4027 239.533 29.056C239.266 28.7093 239.061 28.2773 238.917 27.76C238.773 27.2427 238.701 26.648 238.701 25.976C238.701 25.3787 238.781 24.824 238.941 24.312C239.101 23.7947 239.33 23.3467 239.629 22.968C239.933 22.5893 240.301 22.2933 240.733 22.08C241.165 21.8613 241.656 21.752 242.205 21.752C242.701 21.752 243.125 21.8373 243.477 22.008C243.829 22.1733 244.144 22.408 244.421 22.712V18.216H245.845V30H244.997ZM242.237 28.96C242.701 28.96 243.106 28.8533 243.453 28.64C243.805 28.4267 244.128 28.1253 244.421 27.736V23.816C244.16 23.464 243.872 23.2187 243.557 23.08C243.248 22.936 242.904 22.864 242.525 22.864C241.768 22.864 241.186 23.1333 240.781 23.672C240.376 24.2107 240.173 24.9787 240.173 25.976C240.173 26.504 240.218 26.9573 240.309 27.336C240.4 27.7093 240.533 28.0187 240.709 28.264C240.885 28.504 241.101 28.68 241.357 28.792C241.613 28.904 241.906 28.96 242.237 28.96ZM254.183 30H253.551C253.412 30 253.3 29.9787 253.215 29.936C253.129 29.8933 253.073 29.8027 253.047 29.664L252.887 28.912C252.673 29.104 252.465 29.2773 252.263 29.432C252.06 29.5813 251.847 29.7093 251.623 29.816C251.399 29.9173 251.159 29.9947 250.903 30.048C250.652 30.1013 250.372 30.128 250.063 30.128C249.748 30.128 249.452 30.0853 249.174 30C248.903 29.9093 248.665 29.776 248.463 29.6C248.26 29.424 248.097 29.2027 247.975 28.936C247.857 28.664 247.799 28.344 247.799 27.976C247.799 27.656 247.887 27.3493 248.062 27.056C248.239 26.7573 248.521 26.4933 248.911 26.264C249.305 26.0347 249.82 25.848 250.455 25.704C251.089 25.5547 251.865 25.4693 252.783 25.448V24.816C252.783 24.1867 252.647 23.712 252.375 23.392C252.108 23.0667 251.711 22.904 251.183 22.904C250.836 22.904 250.543 22.9493 250.303 23.04C250.068 23.1253 249.863 23.224 249.687 23.336C249.516 23.4427 249.367 23.5413 249.239 23.632C249.116 23.7173 248.993 23.76 248.871 23.76C248.775 23.76 248.689 23.736 248.615 23.688C248.545 23.6347 248.489 23.5707 248.447 23.496L248.191 23.04C248.639 22.608 249.121 22.2853 249.639 22.072C250.156 21.8587 250.729 21.752 251.359 21.752C251.812 21.752 252.215 21.8267 252.567 21.976C252.919 22.1253 253.215 22.3333 253.455 22.6C253.695 22.8667 253.876 23.1893 253.999 23.568C254.121 23.9467 254.183 24.3627 254.183 24.816V30ZM250.487 29.128C250.737 29.128 250.967 29.104 251.174 29.056C251.383 29.0027 251.577 28.9307 251.759 28.84C251.945 28.744 252.121 28.6293 252.287 28.496C252.457 28.3627 252.623 28.2107 252.783 28.04V26.352C252.127 26.3733 251.569 26.4267 251.111 26.512C250.652 26.592 250.279 26.6987 249.991 26.832C249.703 26.9653 249.492 27.1227 249.359 27.304C249.231 27.4853 249.167 27.688 249.167 27.912C249.167 28.1253 249.201 28.3093 249.271 28.464C249.34 28.6187 249.433 28.7467 249.551 28.848C249.668 28.944 249.807 29.016 249.967 29.064C250.127 29.1067 250.3 29.128 250.487 29.128ZM256.34 30V21.896H257.156C257.311 21.896 257.417 21.9253 257.476 21.984C257.535 22.0427 257.575 22.144 257.596 22.288L257.692 23.552C257.969 22.9867 258.311 22.5467 258.716 22.232C259.127 21.912 259.607 21.752 260.156 21.752C260.38 21.752 260.583 21.7787 260.764 21.832C260.945 21.88 261.113 21.9493 261.268 22.04L261.084 23.104C261.047 23.2373 260.964 23.304 260.836 23.304C260.761 23.304 260.647 23.28 260.492 23.232C260.337 23.1787 260.121 23.152 259.844 23.152C259.348 23.152 258.932 23.296 258.596 23.584C258.265 23.872 257.988 24.2907 257.764 24.84V30H256.34ZM265.169 32.392C265.121 32.4987 265.06 32.584 264.985 32.648C264.916 32.712 264.806 32.744 264.657 32.744H263.601L265.081 29.528L261.737 21.896H262.969C263.092 21.896 263.188 21.928 263.257 21.992C263.326 22.0507 263.377 22.1173 263.409 22.192L265.577 27.296C265.625 27.4133 265.665 27.5307 265.697 27.648C265.734 27.7653 265.766 27.8853 265.793 28.008C265.83 27.8853 265.868 27.7653 265.905 27.648C265.942 27.5307 265.985 27.4107 266.033 27.288L268.137 22.192C268.169 22.1067 268.222 22.0373 268.297 21.984C268.377 21.9253 268.462 21.896 268.553 21.896H269.689L265.169 32.392ZM279.602 23.336C279.56 23.3947 279.517 23.44 279.474 23.472C279.432 23.504 279.37 23.52 279.29 23.52C279.21 23.52 279.122 23.488 279.026 23.424C278.936 23.3547 278.818 23.28 278.674 23.2C278.53 23.12 278.354 23.048 278.146 22.984C277.944 22.9147 277.693 22.88 277.394 22.88C277 22.88 276.65 22.952 276.346 23.096C276.042 23.2347 275.786 23.4373 275.578 23.704C275.376 23.9707 275.221 24.2933 275.114 24.672C275.013 25.0507 274.962 25.4747 274.962 25.944C274.962 26.4347 275.018 26.872 275.13 27.256C275.242 27.6347 275.4 27.9547 275.602 28.216C275.805 28.472 276.05 28.6693 276.338 28.808C276.632 28.9413 276.96 29.008 277.322 29.008C277.669 29.008 277.954 28.968 278.178 28.888C278.402 28.8027 278.589 28.7093 278.738 28.608C278.888 28.5067 279.01 28.416 279.106 28.336C279.202 28.2507 279.298 28.208 279.394 28.208C279.517 28.208 279.608 28.2533 279.666 28.344L280.066 28.864C279.714 29.296 279.274 29.6133 278.746 29.816C278.218 30.0133 277.661 30.112 277.074 30.112C276.568 30.112 276.096 30.0187 275.658 29.832C275.226 29.6453 274.85 29.376 274.53 29.024C274.21 28.6667 273.957 28.2293 273.77 27.712C273.589 27.1947 273.498 26.6053 273.498 25.944C273.498 25.3413 273.581 24.784 273.746 24.272C273.917 23.76 274.162 23.32 274.482 22.952C274.808 22.5787 275.208 22.288 275.682 22.08C276.157 21.872 276.701 21.768 277.314 21.768C277.88 21.768 278.381 21.8613 278.818 22.048C279.256 22.2293 279.642 22.488 279.978 22.824L279.602 23.336ZM284.823 21.768C285.415 21.768 285.948 21.8667 286.423 22.064C286.903 22.2613 287.308 22.5413 287.639 22.904C287.975 23.2667 288.231 23.7067 288.407 24.224C288.588 24.736 288.679 25.3093 288.679 25.944C288.679 26.584 288.588 27.16 288.407 27.672C288.231 28.184 287.975 28.6213 287.639 28.984C287.308 29.3467 286.903 29.6267 286.423 29.824C285.948 30.016 285.415 30.112 284.823 30.112C284.231 30.112 283.695 30.016 283.215 29.824C282.74 29.6267 282.335 29.3467 281.999 28.984C281.663 28.6213 281.404 28.184 281.223 27.672C281.042 27.16 280.951 26.584 280.951 25.944C280.951 25.3093 281.042 24.736 281.223 24.224C281.404 23.7067 281.663 23.2667 281.999 22.904C282.335 22.5413 282.74 22.2613 283.215 22.064C283.695 21.8667 284.231 21.768 284.823 21.768ZM284.823 29C285.623 29 286.22 28.7333 286.615 28.2C287.01 27.6613 287.207 26.912 287.207 25.952C287.207 24.9867 287.01 24.2347 286.615 23.696C286.22 23.1573 285.623 22.888 284.823 22.888C284.418 22.888 284.066 22.9573 283.767 23.096C283.468 23.2347 283.218 23.4347 283.015 23.696C282.818 23.9573 282.668 24.28 282.567 24.664C282.471 25.0427 282.423 25.472 282.423 25.952C282.423 26.432 282.471 26.8613 282.567 27.24C282.668 27.6187 282.818 27.9387 283.015 28.2C283.218 28.456 283.468 28.6533 283.767 28.792C284.066 28.9307 284.418 29 284.823 29ZM292.018 18.216V30H290.594V18.216H292.018ZM297.807 21.768C298.399 21.768 298.933 21.8667 299.407 22.064C299.887 22.2613 300.293 22.5413 300.623 22.904C300.959 23.2667 301.215 23.7067 301.391 24.224C301.573 24.736 301.663 25.3093 301.663 25.944C301.663 26.584 301.573 27.16 301.391 27.672C301.215 28.184 300.959 28.6213 300.623 28.984C300.293 29.3467 299.887 29.6267 299.407 29.824C298.933 30.016 298.399 30.112 297.807 30.112C297.215 30.112 296.679 30.016 296.199 29.824C295.725 29.6267 295.319 29.3467 294.983 28.984C294.647 28.6213 294.389 28.184 294.207 27.672C294.026 27.16 293.935 26.584 293.935 25.944C293.935 25.3093 294.026 24.736 294.207 24.224C294.389 23.7067 294.647 23.2667 294.983 22.904C295.319 22.5413 295.725 22.2613 296.199 22.064C296.679 21.8667 297.215 21.768 297.807 21.768ZM297.807 29C298.607 29 299.205 28.7333 299.599 28.2C299.994 27.6613 300.191 26.912 300.191 25.952C300.191 24.9867 299.994 24.2347 299.599 23.696C299.205 23.1573 298.607 22.888 297.807 22.888C297.402 22.888 297.05 22.9573 296.751 23.096C296.453 23.2347 296.202 23.4347 295.999 23.696C295.802 23.9573 295.653 24.28 295.551 24.664C295.455 25.0427 295.407 25.472 295.407 25.952C295.407 26.432 295.455 26.8613 295.551 27.24C295.653 27.6187 295.802 27.9387 295.999 28.2C296.202 28.456 296.453 28.6533 296.751 28.792C297.05 28.9307 297.402 29 297.807 29ZM303.418 30V21.896H304.234C304.389 21.896 304.495 21.9253 304.554 21.984C304.613 22.0427 304.653 22.144 304.674 22.288L304.77 23.552C305.047 22.9867 305.389 22.5467 305.794 22.232C306.205 21.912 306.685 21.752 307.234 21.752C307.458 21.752 307.661 21.7787 307.842 21.832C308.023 21.88 308.191 21.9493 308.346 22.04L308.162 23.104C308.125 23.2373 308.042 23.304 307.914 23.304C307.839 23.304 307.725 23.28 307.57 23.232C307.415 23.1787 307.199 23.152 306.922 23.152C306.426 23.152 306.01 23.296 305.674 23.584C305.343 23.872 305.066 24.2907 304.842 24.84V30H303.418Z" fill="white"/>
<path d="M23.32 50.616L22.648 54H22C21.8773 54 21.7733 53.9547 21.688 53.864C21.6027 53.7733 21.56 53.656 21.56 53.512C21.56 53.4907 21.56 53.472 21.56 53.456C21.5653 53.4347 21.5707 53.4107 21.576 53.384L22.144 50.616H20.168L19.6 53.456C19.5573 53.6533 19.4747 53.7947 19.352 53.88C19.2347 53.96 19.0987 54 18.944 54H18.312L18.992 50.616H17.824C17.7013 50.616 17.6053 50.5867 17.536 50.528C17.4667 50.464 17.432 50.3573 17.432 50.208C17.432 50.1813 17.432 50.152 17.432 50.12C17.4373 50.088 17.4427 50.056 17.448 50.024L17.512 49.568H19.144L19.664 46.96H17.808L17.912 46.368C17.9387 46.2133 18 46.0987 18.096 46.024C18.192 45.9493 18.344 45.912 18.552 45.912H19.816L20.392 43.048C20.424 42.888 20.496 42.7627 20.608 42.672C20.7253 42.5813 20.864 42.536 21.024 42.536H21.664L20.992 45.912H22.968L23.64 42.536H24.272C24.4053 42.536 24.5147 42.576 24.6 42.656C24.6907 42.736 24.736 42.84 24.736 42.968C24.736 43.0107 24.7333 43.0453 24.728 43.072L24.144 45.912H25.84L25.736 46.512C25.7093 46.6667 25.6453 46.7813 25.544 46.856C25.448 46.9253 25.2987 46.96 25.096 46.96H23.992L23.472 49.568H24.904C25.032 49.568 25.1307 49.6 25.2 49.664C25.2693 49.7227 25.304 49.8293 25.304 49.984C25.304 50.0107 25.3013 50.04 25.296 50.072C25.296 50.0987 25.2933 50.128 25.288 50.16L25.216 50.616H23.32ZM20.32 49.568H22.296L22.816 46.96H20.84L20.32 49.568ZM35.0813 48.272C35.0813 49.2747 34.9719 50.144 34.7533 50.88C34.5399 51.6107 34.2466 52.216 33.8733 52.696C33.4999 53.176 33.0573 53.5333 32.5453 53.768C32.0386 54.0027 31.4946 54.12 30.9133 54.12C30.3266 54.12 29.7799 54.0027 29.2733 53.768C28.7719 53.5333 28.3346 53.176 27.9613 52.696C27.5879 52.216 27.2946 51.6107 27.0813 50.88C26.8679 50.144 26.7613 49.2747 26.7613 48.272C26.7613 47.2693 26.8679 46.4 27.0813 45.664C27.2946 44.928 27.5879 44.32 27.9613 43.84C28.3346 43.3547 28.7719 42.9947 29.2733 42.76C29.7799 42.5253 30.3266 42.408 30.9133 42.408C31.4946 42.408 32.0386 42.5253 32.5453 42.76C33.0573 42.9947 33.4999 43.3547 33.8733 43.84C34.2466 44.32 34.5399 44.928 34.7533 45.664C34.9719 46.4 35.0813 47.2693 35.0813 48.272ZM33.6013 48.272C33.6013 47.3973 33.5266 46.664 33.3773 46.072C33.2333 45.4747 33.0359 44.9947 32.7853 44.632C32.5399 44.2693 32.2546 44.0107 31.9293 43.856C31.6039 43.696 31.2653 43.616 30.9133 43.616C30.5613 43.616 30.2226 43.696 29.8973 43.856C29.5719 44.0107 29.2866 44.2693 29.0413 44.632C28.7959 44.9947 28.5986 45.4747 28.4493 46.072C28.3053 46.664 28.2333 47.3973 28.2333 48.272C28.2333 49.1467 28.3053 49.88 28.4493 50.472C28.5986 51.064 28.7959 51.5413 29.0413 51.904C29.2866 52.2667 29.5719 52.528 29.8973 52.688C30.2226 52.8427 30.5613 52.92 30.9133 52.92C31.2653 52.92 31.6039 52.8427 31.9293 52.688C32.2546 52.528 32.5399 52.2667 32.7853 51.904C33.0359 51.5413 33.2333 51.064 33.3773 50.472C33.5266 49.88 33.6013 49.1467 33.6013 48.272ZM44.3625 48.272C44.3625 49.2747 44.2532 50.144 44.0345 50.88C43.8212 51.6107 43.5278 52.216 43.1545 52.696C42.7812 53.176 42.3385 53.5333 41.8265 53.768C41.3198 54.0027 40.7758 54.12 40.1945 54.12C39.6078 54.12 39.0612 54.0027 38.5545 53.768C38.0532 53.5333 37.6158 53.176 37.2425 52.696C36.8692 52.216 36.5758 51.6107 36.3625 50.88C36.1492 50.144 36.0425 49.2747 36.0425 48.272C36.0425 47.2693 36.1492 46.4 36.3625 45.664C36.5758 44.928 36.8692 44.32 37.2425 43.84C37.6158 43.3547 38.0532 42.9947 38.5545 42.76C39.0612 42.5253 39.6078 42.408 40.1945 42.408C40.7758 42.408 41.3198 42.5253 41.8265 42.76C42.3385 42.9947 42.7812 43.3547 43.1545 43.84C43.5278 44.32 43.8212 44.928 44.0345 45.664C44.2532 46.4 44.3625 47.2693 44.3625 48.272ZM42.8825 48.272C42.8825 47.3973 42.8078 46.664 42.6585 46.072C42.5145 45.4747 42.3172 44.9947 42.0665 44.632C41.8212 44.2693 41.5358 44.0107 41.2105 43.856C40.8852 43.696 40.5465 43.616 40.1945 43.616C39.8425 43.616 39.5038 43.696 39.1785 43.856C38.8532 44.0107 38.5678 44.2693 38.3225 44.632C38.0772 44.9947 37.8798 45.4747 37.7305 46.072C37.5865 46.664 37.5145 47.3973 37.5145 48.272C37.5145 49.1467 37.5865 49.88 37.7305 50.472C37.8798 51.064 38.0772 51.5413 38.3225 51.904C38.5678 52.2667 38.8532 52.528 39.1785 52.688C39.5038 52.8427 39.8425 52.92 40.1945 52.92C40.5465 52.92 40.8852 52.8427 41.2105 52.688C41.5358 52.528 41.8212 52.2667 42.0665 51.904C42.3172 51.5413 42.5145 51.064 42.6585 50.472C42.8078 49.88 42.8825 49.1467 42.8825 48.272ZM50.0438 46.976C50.5024 46.976 50.9371 47.0533 51.3478 47.208C51.7584 47.3573 52.1184 47.5787 52.4278 47.872C52.7371 48.16 52.9824 48.5173 53.1638 48.944C53.3451 49.3653 53.4358 49.848 53.4358 50.392C53.4358 50.92 53.3398 51.4107 53.1478 51.864C52.9558 52.3173 52.6864 52.712 52.3398 53.048C51.9984 53.384 51.5851 53.648 51.0998 53.84C50.6144 54.032 50.0811 54.128 49.4998 54.128C48.9238 54.128 48.4011 54.0373 47.9318 53.856C47.4678 53.6693 47.0704 53.408 46.7398 53.072C46.4091 52.7307 46.1531 52.32 45.9718 51.84C45.7958 51.3547 45.7078 50.8133 45.7078 50.216C45.7078 49.7147 45.8198 49.1813 46.0438 48.616C46.2678 48.0507 46.6224 47.4427 47.1078 46.792L50.0118 42.88C50.0864 42.784 50.1904 42.704 50.3238 42.64C50.4571 42.5707 50.6091 42.536 50.7798 42.536H52.0438L48.0678 47.568C48.3398 47.3813 48.6411 47.2373 48.9718 47.136C49.3024 47.0293 49.6598 46.976 50.0438 46.976ZM47.0838 50.464C47.0838 50.832 47.1371 51.168 47.2438 51.472C47.3504 51.776 47.5051 52.0373 47.7078 52.256C47.9158 52.4747 48.1664 52.6453 48.4598 52.768C48.7584 52.8853 49.0971 52.944 49.4758 52.944C49.8598 52.944 50.2064 52.8827 50.5158 52.76C50.8251 52.6373 51.0891 52.4667 51.3078 52.248C51.5318 52.0293 51.7024 51.7707 51.8198 51.472C51.9424 51.1733 52.0038 50.848 52.0038 50.496C52.0038 50.1227 51.9451 49.7867 51.8278 49.488C51.7104 49.184 51.5451 48.928 51.3318 48.72C51.1184 48.5067 50.8624 48.344 50.5638 48.232C50.2651 48.12 49.9371 48.064 49.5798 48.064C49.1958 48.064 48.8491 48.1307 48.5398 48.264C48.2304 48.392 47.9664 48.568 47.7478 48.792C47.5344 49.0107 47.3691 49.2667 47.2518 49.56C47.1398 49.848 47.0838 50.1493 47.0838 50.464ZM61.349 49.864H63.085V50.68C63.085 50.7653 63.0583 50.8373 63.005 50.896C62.957 50.9547 62.8797 50.984 62.773 50.984H61.349V54H60.093V50.984H55.013C54.9063 50.984 54.813 50.9547 54.733 50.896C54.6583 50.832 54.6103 50.7547 54.589 50.664L54.445 49.936L60.021 42.536H61.349V49.864ZM60.093 45.136C60.093 44.9973 60.0957 44.848 60.101 44.688C60.1117 44.528 60.1303 44.3627 60.157 44.192L55.989 49.864H60.093V45.136ZM74.7343 48.272C74.7343 49.1307 74.5983 49.912 74.3263 50.616C74.0543 51.32 73.6703 51.9227 73.1743 52.424C72.6783 52.9253 72.0836 53.3147 71.3903 53.592C70.6969 53.864 69.9289 54 69.0863 54H64.7983V42.536H69.0863C69.9289 42.536 70.6969 42.6747 71.3903 42.952C72.0836 43.224 72.6783 43.6133 73.1743 44.12C73.6703 44.6213 74.0543 45.224 74.3263 45.928C74.5983 46.632 74.7343 47.4133 74.7343 48.272ZM73.1423 48.272C73.1423 47.568 73.0463 46.9387 72.8543 46.384C72.6623 45.8293 72.3903 45.36 72.0382 44.976C71.6863 44.592 71.2596 44.2987 70.7583 44.096C70.2569 43.8933 69.6996 43.792 69.0863 43.792H66.3583V52.744H69.0863C69.6996 52.744 70.2569 52.6427 70.7583 52.44C71.2596 52.2373 71.6863 51.9467 72.0382 51.568C72.3903 51.184 72.6623 50.7147 72.8543 50.16C73.0463 49.6053 73.1423 48.976 73.1423 48.272ZM77.7491 52.912H80.2131V45.096C80.2131 44.8613 80.2211 44.624 80.2371 44.384L78.1891 46.136C78.1358 46.1787 78.0825 46.2107 78.0291 46.232C77.9758 46.248 77.9251 46.256 77.8771 46.256C77.7971 46.256 77.7251 46.24 77.6611 46.208C77.5971 46.1707 77.5491 46.128 77.5171 46.08L77.0691 45.464L80.4771 42.512H81.6371V52.912H83.8931V54H77.7491V52.912ZM18.216 73V61.216H19.648V66.064C19.984 65.6747 20.368 65.3627 20.8 65.128C21.2373 64.888 21.736 64.768 22.296 64.768C22.7653 64.768 23.1893 64.856 23.568 65.032C23.9467 65.208 24.2693 65.472 24.536 65.824C24.8027 66.1707 25.008 66.6027 25.152 67.12C25.296 67.632 25.368 68.224 25.368 68.896C25.368 69.4933 25.288 70.0507 25.128 70.568C24.968 71.08 24.736 71.5253 24.432 71.904C24.1333 72.2773 23.7653 72.5733 23.328 72.792C22.896 73.0053 22.408 73.112 21.864 73.112C21.3413 73.112 20.896 73.0107 20.528 72.808C20.1653 72.6053 19.848 72.3227 19.576 71.96L19.504 72.696C19.4613 72.8987 19.3387 73 19.136 73H18.216ZM21.832 65.904C21.368 65.904 20.96 66.0107 20.608 66.224C20.2613 66.4373 19.9413 66.7387 19.648 67.128V71.048C19.904 71.4 20.1867 71.648 20.496 71.792C20.8107 71.936 21.16 72.008 21.544 72.008C22.3013 72.008 22.8827 71.7387 23.288 71.2C23.6933 70.6613 23.896 69.8933 23.896 68.896C23.896 68.368 23.848 67.9147 23.752 67.536C23.6613 67.1573 23.528 66.848 23.352 66.608C23.176 66.3627 22.96 66.184 22.704 66.072C22.448 65.96 22.1573 65.904 21.832 65.904ZM28.6895 61.216V73H27.2655V61.216H28.6895ZM32.4313 64.896V70.064C32.4313 70.6773 32.5726 71.152 32.8553 71.488C33.1379 71.824 33.5646 71.992 34.1353 71.992C34.5513 71.992 34.9433 71.8933 35.3113 71.696C35.6793 71.4987 36.0179 71.224 36.3273 70.872V64.896H37.7513V73H36.9033C36.7006 73 36.5726 72.9013 36.5193 72.704L36.4073 71.832C36.0553 72.2213 35.6606 72.536 35.2233 72.776C34.7859 73.0107 34.2846 73.128 33.7193 73.128C33.2766 73.128 32.8846 73.056 32.5433 72.912C32.2073 72.7627 31.9246 72.5547 31.6953 72.288C31.4659 72.0213 31.2926 71.6987 31.1753 71.32C31.0633 70.9413 31.0073 70.5227 31.0073 70.064V64.896H32.4313ZM43.2979 64.768C43.7832 64.768 44.2312 64.8507 44.6419 65.016C45.0525 65.176 45.4072 65.4107 45.7059 65.72C46.0045 66.024 46.2365 66.4027 46.4019 66.856C46.5725 67.304 46.6579 67.816 46.6579 68.392C46.6579 68.616 46.6339 68.7653 46.5859 68.84C46.5379 68.9147 46.4472 68.952 46.3139 68.952H40.9219C40.9325 69.464 41.0019 69.9093 41.1299 70.288C41.2579 70.6667 41.4339 70.984 41.6579 71.24C41.8819 71.4907 42.1485 71.68 42.4579 71.808C42.7672 71.9307 43.1139 71.992 43.4979 71.992C43.8552 71.992 44.1619 71.952 44.4179 71.872C44.6792 71.7867 44.9032 71.696 45.0899 71.6C45.2765 71.504 45.4312 71.416 45.5539 71.336C45.6819 71.2507 45.7912 71.208 45.8819 71.208C45.9992 71.208 46.0899 71.2533 46.1539 71.344L46.5539 71.864C46.3779 72.0773 46.1672 72.264 45.9219 72.424C45.6765 72.5787 45.4125 72.7067 45.1299 72.808C44.8525 72.9093 44.5645 72.984 44.2659 73.032C43.9672 73.0853 43.6712 73.112 43.3779 73.112C42.8179 73.112 42.3005 73.0187 41.8259 72.832C41.3565 72.64 40.9485 72.3627 40.6019 72C40.2605 71.632 39.9939 71.1787 39.8019 70.64C39.6099 70.1013 39.5139 69.4827 39.5139 68.784C39.5139 68.2187 39.5992 67.6907 39.7699 67.2C39.9459 66.7093 40.1965 66.2853 40.5219 65.928C40.8472 65.5653 41.2445 65.2827 41.7139 65.08C42.1832 64.872 42.7112 64.768 43.2979 64.768ZM43.3299 65.816C42.6419 65.816 42.1005 66.016 41.7059 66.416C41.3112 66.8107 41.0659 67.36 40.9699 68.064H45.3779C45.3779 67.7333 45.3325 67.432 45.2419 67.16C45.1512 66.8827 45.0179 66.6453 44.8419 66.448C44.6659 66.2453 44.4499 66.0907 44.1939 65.984C43.9432 65.872 43.6552 65.816 43.3299 65.816ZM48.1125 67.6H52.0645V68.808H48.1125V67.6ZM58.0594 65.976C58.518 65.976 58.9527 66.0533 59.3634 66.208C59.774 66.3573 60.134 66.5787 60.4434 66.872C60.7527 67.16 60.998 67.5173 61.1794 67.944C61.3607 68.3653 61.4514 68.848 61.4514 69.392C61.4514 69.92 61.3554 70.4107 61.1634 70.864C60.9714 71.3173 60.702 71.712 60.3554 72.048C60.014 72.384 59.6007 72.648 59.1154 72.84C58.63 73.032 58.0967 73.128 57.5154 73.128C56.9394 73.128 56.4167 73.0373 55.9474 72.856C55.4834 72.6693 55.086 72.408 54.7554 72.072C54.4247 71.7307 54.1687 71.32 53.9874 70.84C53.8114 70.3547 53.7234 69.8133 53.7234 69.216C53.7234 68.7147 53.8354 68.1813 54.0594 67.616C54.2834 67.0507 54.638 66.4427 55.1234 65.792L58.0274 61.88C58.102 61.784 58.206 61.704 58.3394 61.64C58.4727 61.5707 58.6247 61.536 58.7954 61.536H60.0594L56.0834 66.568C56.3554 66.3813 56.6567 66.2373 56.9874 66.136C57.318 66.0293 57.6754 65.976 58.0594 65.976ZM55.0994 69.464C55.0994 69.832 55.1527 70.168 55.2594 70.472C55.366 70.776 55.5207 71.0373 55.7234 71.256C55.9314 71.4747 56.182 71.6453 56.4754 71.768C56.774 71.8853 57.1127 71.944 57.4914 71.944C57.8754 71.944 58.222 71.8827 58.5314 71.76C58.8407 71.6373 59.1047 71.4667 59.3234 71.248C59.5474 71.0293 59.718 70.7707 59.8354 70.472C59.958 70.1733 60.0194 69.848 60.0194 69.496C60.0194 69.1227 59.9607 68.7867 59.8434 68.488C59.726 68.184 59.5607 67.928 59.3474 67.72C59.134 67.5067 58.878 67.344 58.5794 67.232C58.2807 67.12 57.9527 67.064 57.5954 67.064C57.2114 67.064 56.8647 67.1307 56.5554 67.264C56.246 67.392 55.982 67.568 55.7634 67.792C55.55 68.0107 55.3847 68.2667 55.2674 68.56C55.1554 68.848 55.0994 69.1493 55.0994 69.464ZM70.9406 67.272C70.9406 68.2747 70.8313 69.144 70.6126 69.88C70.3993 70.6107 70.106 71.216 69.7326 71.696C69.3593 72.176 68.9166 72.5333 68.4046 72.768C67.898 73.0027 67.354 73.12 66.7726 73.12C66.186 73.12 65.6393 73.0027 65.1326 72.768C64.6313 72.5333 64.194 72.176 63.8206 71.696C63.4473 71.216 63.154 70.6107 62.9406 69.88C62.7273 69.144 62.6206 68.2747 62.6206 67.272C62.6206 66.2693 62.7273 65.4 62.9406 64.664C63.154 63.928 63.4473 63.32 63.8206 62.84C64.194 62.3547 64.6313 61.9947 65.1326 61.76C65.6393 61.5253 66.186 61.408 66.7726 61.408C67.354 61.408 67.898 61.5253 68.4046 61.76C68.9166 61.9947 69.3593 62.3547 69.7326 62.84C70.106 63.32 70.3993 63.928 70.6126 64.664C70.8313 65.4 70.9406 66.2693 70.9406 67.272ZM69.4606 67.272C69.4606 66.3973 69.386 65.664 69.2366 65.072C69.0926 64.4747 68.8953 63.9947 68.6446 63.632C68.3993 63.2693 68.114 63.0107 67.7886 62.856C67.4633 62.696 67.1246 62.616 66.7726 62.616C66.4206 62.616 66.082 62.696 65.7566 62.856C65.4313 63.0107 65.146 63.2693 64.9006 63.632C64.6553 63.9947 64.458 64.4747 64.3086 65.072C64.1646 65.664 64.0926 66.3973 64.0926 67.272C64.0926 68.1467 64.1646 68.88 64.3086 69.472C64.458 70.064 64.6553 70.5413 64.9006 70.904C65.146 71.2667 65.4313 71.528 65.7566 71.688C66.082 71.8427 66.4206 71.92 66.7726 71.92C67.1246 71.92 67.4633 71.8427 67.7886 71.688C68.114 71.528 68.3993 71.2667 68.6446 70.904C68.8953 70.5413 69.0926 70.064 69.2366 69.472C69.386 68.88 69.4606 68.1467 69.4606 67.272ZM80.2219 67.272C80.2219 68.2747 80.1125 69.144 79.8939 69.88C79.6805 70.6107 79.3872 71.216 79.0139 71.696C78.6405 72.176 78.1979 72.5333 77.6859 72.768C77.1792 73.0027 76.6352 73.12 76.0539 73.12C75.4672 73.12 74.9205 73.0027 74.4139 72.768C73.9125 72.5333 73.4752 72.176 73.1019 71.696C72.7285 71.216 72.4352 70.6107 72.2219 69.88C72.0085 69.144 71.9019 68.2747 71.9019 67.272C71.9019 66.2693 72.0085 65.4 72.2219 64.664C72.4352 63.928 72.7285 63.32 73.1019 62.84C73.4752 62.3547 73.9125 61.9947 74.4139 61.76C74.9205 61.5253 75.4672 61.408 76.0539 61.408C76.6352 61.408 77.1792 61.5253 77.6859 61.76C78.1979 61.9947 78.6405 62.3547 79.0139 62.84C79.3872 63.32 79.6805 63.928 79.8939 64.664C80.1125 65.4 80.2219 66.2693 80.2219 67.272ZM78.7419 67.272C78.7419 66.3973 78.6672 65.664 78.5179 65.072C78.3739 64.4747 78.1765 63.9947 77.9259 63.632C77.6805 63.2693 77.3952 63.0107 77.0699 62.856C76.7445 62.696 76.4059 62.616 76.0539 62.616C75.7019 62.616 75.3632 62.696 75.0379 62.856C74.7125 63.0107 74.4272 63.2693 74.1819 63.632C73.9365 63.9947 73.7392 64.4747 73.5899 65.072C73.4459 65.664 73.3739 66.3973 73.3739 67.272C73.3739 68.1467 73.4459 68.88 73.5899 69.472C73.7392 70.064 73.9365 70.5413 74.1819 70.904C74.4272 71.2667 74.7125 71.528 75.0379 71.688C75.3632 71.8427 75.7019 71.92 76.0539 71.92C76.4059 71.92 76.7445 71.8427 77.0699 71.688C77.3952 71.528 77.6805 71.2667 77.9259 70.904C78.1765 70.5413 78.3739 70.064 78.5179 69.472C78.6672 68.88 78.7419 68.1467 78.7419 67.272Z" fill="white"/>
<path d="M201.32 50.616L200.648 54H200C199.877 54 199.773 53.9547 199.688 53.864C199.603 53.7733 199.56 53.656 199.56 53.512C199.56 53.4907 199.56 53.472 199.56 53.456C199.565 53.4347 199.571 53.4107 199.576 53.384L200.144 50.616H198.168L197.6 53.456C197.557 53.6533 197.475 53.7947 197.352 53.88C197.235 53.96 197.099 54 196.944 54H196.312L196.992 50.616H195.824C195.701 50.616 195.605 50.5867 195.536 50.528C195.467 50.464 195.432 50.3573 195.432 50.208C195.432 50.1813 195.432 50.152 195.432 50.12C195.437 50.088 195.443 50.056 195.448 50.024L195.512 49.568H197.144L197.664 46.96H195.808L195.912 46.368C195.939 46.2133 196 46.0987 196.096 46.024C196.192 45.9493 196.344 45.912 196.552 45.912H197.816L198.392 43.048C198.424 42.888 198.496 42.7627 198.608 42.672C198.725 42.5813 198.864 42.536 199.024 42.536H199.664L198.992 45.912H200.968L201.64 42.536H202.272C202.405 42.536 202.515 42.576 202.6 42.656C202.691 42.736 202.736 42.84 202.736 42.968C202.736 43.0107 202.733 43.0453 202.728 43.072L202.144 45.912H203.84L203.736 46.512C203.709 46.6667 203.645 46.7813 203.544 46.856C203.448 46.9253 203.299 46.96 203.096 46.96H201.992L201.472 49.568H202.904C203.032 49.568 203.131 49.6 203.2 49.664C203.269 49.7227 203.304 49.8293 203.304 49.984C203.304 50.0107 203.301 50.04 203.296 50.072C203.296 50.0987 203.293 50.128 203.288 50.16L203.216 50.616H201.32ZM198.32 49.568H200.296L200.816 46.96H198.84L198.32 49.568ZM209.481 46.976C209.94 46.976 210.375 47.0533 210.785 47.208C211.196 47.3573 211.556 47.5787 211.865 47.872C212.175 48.16 212.42 48.5173 212.601 48.944C212.783 49.3653 212.873 49.848 212.873 50.392C212.873 50.92 212.777 51.4107 212.585 51.864C212.393 52.3173 212.124 52.712 211.777 53.048C211.436 53.384 211.023 53.648 210.537 53.84C210.052 54.032 209.519 54.128 208.937 54.128C208.361 54.128 207.839 54.0373 207.369 53.856C206.905 53.6693 206.508 53.408 206.177 53.072C205.847 52.7307 205.591 52.32 205.409 51.84C205.233 51.3547 205.145 50.8133 205.145 50.216C205.145 49.7147 205.257 49.1813 205.481 48.616C205.705 48.0507 206.06 47.4427 206.545 46.792L209.449 42.88C209.524 42.784 209.628 42.704 209.761 42.64C209.895 42.5707 210.047 42.536 210.217 42.536H211.481L207.505 47.568C207.777 47.3813 208.079 47.2373 208.409 47.136C208.74 47.0293 209.097 46.976 209.481 46.976ZM206.521 50.464C206.521 50.832 206.575 51.168 206.681 51.472C206.788 51.776 206.943 52.0373 207.145 52.256C207.353 52.4747 207.604 52.6453 207.897 52.768C208.196 52.8853 208.535 52.944 208.913 52.944C209.297 52.944 209.644 52.8827 209.953 52.76C210.263 52.6373 210.527 52.4667 210.745 52.248C210.969 52.0293 211.14 51.7707 211.257 51.472C211.38 51.1733 211.441 50.848 211.441 50.496C211.441 50.1227 211.383 49.7867 211.265 49.488C211.148 49.184 210.983 48.928 210.769 48.72C210.556 48.5067 210.3 48.344 210.001 48.232C209.703 48.12 209.375 48.064 209.017 48.064C208.633 48.064 208.287 48.1307 207.977 48.264C207.668 48.392 207.404 48.568 207.185 48.792C206.972 49.0107 206.807 49.2667 206.689 49.56C206.577 49.848 206.521 50.1493 206.521 50.464ZM224.387 54H223.187C223.048 54 222.936 53.9653 222.851 53.896C222.765 53.8267 222.701 53.7387 222.659 53.632L221.587 50.864H216.443L215.371 53.632C215.333 53.728 215.269 53.8133 215.179 53.888C215.088 53.9627 214.976 54 214.843 54H213.643L218.227 42.536H219.803L224.387 54ZM216.875 49.744H221.155L219.355 45.08C219.237 44.792 219.123 44.432 219.011 44C218.952 44.2187 218.893 44.4213 218.835 44.608C218.781 44.7893 218.728 44.9493 218.675 45.088L216.875 49.744ZM229.638 46.976C230.096 46.976 230.531 47.0533 230.942 47.208C231.352 47.3573 231.712 47.5787 232.022 47.872C232.331 48.16 232.576 48.5173 232.758 48.944C232.939 49.3653 233.03 49.848 233.03 50.392C233.03 50.92 232.934 51.4107 232.742 51.864C232.55 52.3173 232.28 52.712 231.934 53.048C231.592 53.384 231.179 53.648 230.694 53.84C230.208 54.032 229.675 54.128 229.094 54.128C228.518 54.128 227.995 54.0373 227.526 53.856C227.062 53.6693 226.664 53.408 226.334 53.072C226.003 52.7307 225.747 52.32 225.566 51.84C225.39 51.3547 225.302 50.8133 225.302 50.216C225.302 49.7147 225.414 49.1813 225.638 48.616C225.862 48.0507 226.216 47.4427 226.702 46.792L229.606 42.88C229.68 42.784 229.784 42.704 229.918 42.64C230.051 42.5707 230.203 42.536 230.374 42.536H231.638L227.662 47.568C227.934 47.3813 228.235 47.2373 228.566 47.136C228.896 47.0293 229.254 46.976 229.638 46.976ZM226.678 50.464C226.678 50.832 226.731 51.168 226.838 51.472C226.944 51.776 227.099 52.0373 227.302 52.256C227.51 52.4747 227.76 52.6453 228.054 52.768C228.352 52.8853 228.691 52.944 229.07 52.944C229.454 52.944 229.8 52.8827 230.11 52.76C230.419 52.6373 230.683 52.4667 230.902 52.248C231.126 52.0293 231.296 51.7707 231.414 51.472C231.536 51.1733 231.598 50.848 231.598 50.496C231.598 50.1227 231.539 49.7867 231.422 49.488C231.304 49.184 231.139 48.928 230.926 48.72C230.712 48.5067 230.456 48.344 230.158 48.232C229.859 48.12 229.531 48.064 229.174 48.064C228.79 48.064 228.443 48.1307 228.134 48.264C227.824 48.392 227.56 48.568 227.342 48.792C227.128 49.0107 226.963 49.2667 226.846 49.56C226.734 49.848 226.678 50.1493 226.678 50.464ZM244.543 54H243.343C243.204 54 243.092 53.9653 243.007 53.896C242.921 53.8267 242.857 53.7387 242.815 53.632L241.743 50.864H236.599L235.527 53.632C235.489 53.728 235.425 53.8133 235.335 53.888C235.244 53.9627 235.132 54 234.999 54H233.799L238.383 42.536H239.959L244.543 54ZM237.031 49.744H241.311L239.511 45.08C239.393 44.792 239.279 44.432 239.167 44C239.108 44.2187 239.049 44.4213 238.991 44.608C238.937 44.7893 238.884 44.9493 238.831 45.088L237.031 49.744ZM249.794 46.976C250.252 46.976 250.687 47.0533 251.098 47.208C251.508 47.3573 251.868 47.5787 252.178 47.872C252.487 48.16 252.732 48.5173 252.914 48.944C253.095 49.3653 253.186 49.848 253.186 50.392C253.186 50.92 253.09 51.4107 252.898 51.864C252.706 52.3173 252.436 52.712 252.09 53.048C251.748 53.384 251.335 53.648 250.85 53.84C250.364 54.032 249.831 54.128 249.25 54.128C248.674 54.128 248.151 54.0373 247.682 53.856C247.218 53.6693 246.82 53.408 246.49 53.072C246.159 52.7307 245.903 52.32 245.722 51.84C245.546 51.3547 245.458 50.8133 245.458 50.216C245.458 49.7147 245.57 49.1813 245.794 48.616C246.018 48.0507 246.372 47.4427 246.858 46.792L249.762 42.88C249.836 42.784 249.94 42.704 250.074 42.64C250.207 42.5707 250.359 42.536 250.53 42.536H251.794L247.818 47.568C248.09 47.3813 248.391 47.2373 248.722 47.136C249.052 47.0293 249.41 46.976 249.794 46.976ZM246.834 50.464C246.834 50.832 246.887 51.168 246.994 51.472C247.1 51.776 247.255 52.0373 247.458 52.256C247.666 52.4747 247.916 52.6453 248.21 52.768C248.508 52.8853 248.847 52.944 249.226 52.944C249.61 52.944 249.956 52.8827 250.266 52.76C250.575 52.6373 250.839 52.4667 251.058 52.248C251.282 52.0293 251.452 51.7707 251.57 51.472C251.692 51.1733 251.754 50.848 251.754 50.496C251.754 50.1227 251.695 49.7867 251.578 49.488C251.46 49.184 251.295 48.928 251.082 48.72C250.868 48.5067 250.612 48.344 250.314 48.232C250.015 48.12 249.687 48.064 249.33 48.064C248.946 48.064 248.599 48.1307 248.29 48.264C247.98 48.392 247.716 48.568 247.498 48.792C247.284 49.0107 247.119 49.2667 247.002 49.56C246.89 49.848 246.834 50.1493 246.834 50.464ZM264.699 54H263.499C263.36 54 263.248 53.9653 263.163 53.896C263.078 53.8267 263.014 53.7387 262.971 53.632L261.899 50.864H256.755L255.683 53.632C255.646 53.728 255.582 53.8133 255.491 53.888C255.4 53.9627 255.288 54 255.155 54H253.955L258.539 42.536H260.115L264.699 54ZM257.187 49.744H261.467L259.667 45.08C259.55 44.792 259.435 44.432 259.323 44C259.264 44.2187 259.206 44.4213 259.147 44.608C259.094 44.7893 259.04 44.9493 258.987 45.088L257.187 49.744ZM196.168 73V64.896H197.016C197.219 64.896 197.347 64.9947 197.4 65.192L197.512 66.072C197.864 65.6827 198.256 65.368 198.688 65.128C199.125 64.888 199.629 64.768 200.2 64.768C200.643 64.768 201.032 64.8427 201.368 64.992C201.709 65.136 201.992 65.344 202.216 65.616C202.445 65.8827 202.619 66.2053 202.736 66.584C202.853 66.9627 202.912 67.3813 202.912 67.84V73H201.488V67.84C201.488 67.2267 201.347 66.752 201.064 66.416C200.787 66.0747 200.36 65.904 199.784 65.904C199.363 65.904 198.968 66.0053 198.6 66.208C198.237 66.4107 197.901 66.6853 197.592 67.032V73H196.168ZM208.267 64.768C208.752 64.768 209.2 64.8507 209.611 65.016C210.021 65.176 210.376 65.4107 210.675 65.72C210.973 66.024 211.205 66.4027 211.371 66.856C211.541 67.304 211.627 67.816 211.627 68.392C211.627 68.616 211.603 68.7653 211.555 68.84C211.507 68.9147 211.416 68.952 211.283 68.952H205.891C205.901 69.464 205.971 69.9093 206.099 70.288C206.227 70.6667 206.403 70.984 206.627 71.24C206.851 71.4907 207.117 71.68 207.427 71.808C207.736 71.9307 208.083 71.992 208.467 71.992C208.824 71.992 209.131 71.952 209.387 71.872C209.648 71.7867 209.872 71.696 210.059 71.6C210.245 71.504 210.4 71.416 210.523 71.336C210.651 71.2507 210.76 71.208 210.851 71.208C210.968 71.208 211.059 71.2533 211.123 71.344L211.523 71.864C211.347 72.0773 211.136 72.264 210.891 72.424C210.645 72.5787 210.381 72.7067 210.099 72.808C209.821 72.9093 209.533 72.984 209.235 73.032C208.936 73.0853 208.64 73.112 208.347 73.112C207.787 73.112 207.269 73.0187 206.795 72.832C206.325 72.64 205.917 72.3627 205.571 72C205.229 71.632 204.963 71.1787 204.771 70.64C204.579 70.1013 204.483 69.4827 204.483 68.784C204.483 68.2187 204.568 67.6907 204.739 67.2C204.915 66.7093 205.165 66.2853 205.491 65.928C205.816 65.5653 206.213 65.2827 206.683 65.08C207.152 64.872 207.68 64.768 208.267 64.768ZM208.299 65.816C207.611 65.816 207.069 66.016 206.675 66.416C206.28 66.8107 206.035 67.36 205.939 68.064H210.347C210.347 67.7333 210.301 67.432 210.211 67.16C210.12 66.8827 209.987 66.6453 209.811 66.448C209.635 66.2453 209.419 66.0907 209.163 65.984C208.912 65.872 208.624 65.816 208.299 65.816ZM214.681 64.896V70.064C214.681 70.6773 214.823 71.152 215.105 71.488C215.388 71.824 215.815 71.992 216.385 71.992C216.801 71.992 217.193 71.8933 217.561 71.696C217.929 71.4987 218.268 71.224 218.577 70.872V64.896H220.001V73H219.153C218.951 73 218.823 72.9013 218.769 72.704L218.657 71.832C218.305 72.2213 217.911 72.536 217.473 72.776C217.036 73.0107 216.535 73.128 215.969 73.128C215.527 73.128 215.135 73.056 214.793 72.912C214.457 72.7627 214.175 72.5547 213.945 72.288C213.716 72.0213 213.543 71.6987 213.425 71.32C213.313 70.9413 213.257 70.5227 213.257 70.064V64.896H214.681ZM224.796 73.128C224.156 73.128 223.663 72.9493 223.316 72.592C222.975 72.2347 222.804 71.72 222.804 71.048V66.088H221.828C221.743 66.088 221.671 66.064 221.612 66.016C221.553 65.9627 221.524 65.8827 221.524 65.776V65.208L222.852 65.04L223.18 62.536C223.191 62.456 223.225 62.392 223.284 62.344C223.343 62.2907 223.417 62.264 223.508 62.264H224.228V65.056H226.548V66.088H224.228V70.952C224.228 71.2933 224.311 71.5467 224.476 71.712C224.641 71.8773 224.855 71.96 225.116 71.96C225.265 71.96 225.393 71.9413 225.5 71.904C225.612 71.8613 225.708 71.816 225.788 71.768C225.868 71.72 225.935 71.6773 225.988 71.64C226.047 71.5973 226.097 71.576 226.14 71.576C226.215 71.576 226.281 71.6213 226.34 71.712L226.756 72.392C226.511 72.6213 226.215 72.8027 225.868 72.936C225.521 73.064 225.164 73.128 224.796 73.128ZM228.309 73V64.896H229.125C229.279 64.896 229.386 64.9253 229.445 64.984C229.503 65.0427 229.543 65.144 229.565 65.288L229.661 66.552C229.938 65.9867 230.279 65.5467 230.685 65.232C231.095 64.912 231.575 64.752 232.125 64.752C232.349 64.752 232.551 64.7787 232.733 64.832C232.914 64.88 233.082 64.9493 233.237 65.04L233.053 66.104C233.015 66.2373 232.933 66.304 232.805 66.304C232.73 66.304 232.615 66.28 232.461 66.232C232.306 66.1787 232.09 66.152 231.813 66.152C231.317 66.152 230.901 66.296 230.565 66.584C230.234 66.872 229.957 67.2907 229.733 67.84V73H228.309ZM240.417 73H239.785C239.646 73 239.534 72.9787 239.449 72.936C239.364 72.8933 239.308 72.8027 239.281 72.664L239.121 71.912C238.908 72.104 238.7 72.2773 238.497 72.432C238.294 72.5813 238.081 72.7093 237.857 72.816C237.633 72.9173 237.393 72.9947 237.137 73.048C236.886 73.1013 236.606 73.128 236.297 73.128C235.982 73.128 235.686 73.0853 235.409 73C235.137 72.9093 234.9 72.776 234.697 72.6C234.494 72.424 234.332 72.2027 234.209 71.936C234.092 71.664 234.033 71.344 234.033 70.976C234.033 70.656 234.121 70.3493 234.297 70.056C234.473 69.7573 234.756 69.4933 235.145 69.264C235.54 69.0347 236.054 68.848 236.689 68.704C237.324 68.5547 238.1 68.4693 239.017 68.448V67.816C239.017 67.1867 238.881 66.712 238.609 66.392C238.342 66.0667 237.945 65.904 237.417 65.904C237.07 65.904 236.777 65.9493 236.537 66.04C236.302 66.1253 236.097 66.224 235.921 66.336C235.75 66.4427 235.601 66.5413 235.473 66.632C235.35 66.7173 235.228 66.76 235.105 66.76C235.009 66.76 234.924 66.736 234.849 66.688C234.78 66.6347 234.724 66.5707 234.681 66.496L234.425 66.04C234.873 65.608 235.356 65.2853 235.873 65.072C236.39 64.8587 236.964 64.752 237.593 64.752C238.046 64.752 238.449 64.8267 238.801 64.976C239.153 65.1253 239.449 65.3333 239.689 65.6C239.929 65.8667 240.11 66.1893 240.233 66.568C240.356 66.9467 240.417 67.3627 240.417 67.816V73ZM236.721 72.128C236.972 72.128 237.201 72.104 237.409 72.056C237.617 72.0027 237.812 71.9307 237.993 71.84C238.18 71.744 238.356 71.6293 238.521 71.496C238.692 71.3627 238.857 71.2107 239.017 71.04V69.352C238.361 69.3733 237.804 69.4267 237.345 69.512C236.886 69.592 236.513 69.6987 236.225 69.832C235.937 69.9653 235.726 70.1227 235.593 70.304C235.465 70.4853 235.401 70.688 235.401 70.912C235.401 71.1253 235.436 71.3093 235.505 71.464C235.574 71.6187 235.668 71.7467 235.785 71.848C235.902 71.944 236.041 72.016 236.201 72.064C236.361 72.1067 236.534 72.128 236.721 72.128ZM244.158 61.216V73H242.734V61.216H244.158ZM246.3 67.6H250.252V68.808H246.3V67.6ZM255.679 73.128C255.108 73.128 254.586 73.0533 254.111 72.904C253.636 72.7493 253.228 72.5307 252.887 72.248C252.546 71.9653 252.282 71.624 252.095 71.224C251.908 70.8187 251.815 70.3653 251.815 69.864C251.815 69.128 252.007 68.5227 252.391 68.048C252.775 67.568 253.324 67.2267 254.039 67.024C253.436 66.8 252.98 66.4667 252.671 66.024C252.367 65.576 252.215 65.0427 252.215 64.424C252.215 64.0027 252.298 63.608 252.463 63.24C252.628 62.872 252.863 62.552 253.167 62.28C253.471 62.008 253.834 61.7947 254.255 61.64C254.682 61.4853 255.156 61.408 255.679 61.408C256.196 61.408 256.668 61.4853 257.095 61.64C257.522 61.7947 257.887 62.008 258.191 62.28C258.495 62.552 258.73 62.872 258.895 63.24C259.06 63.608 259.143 64.0027 259.143 64.424C259.143 65.0427 258.988 65.576 258.679 66.024C258.37 66.4667 257.916 66.8 257.319 67.024C258.034 67.2267 258.583 67.568 258.967 68.048C259.351 68.5227 259.543 69.128 259.543 69.864C259.543 70.3653 259.447 70.8187 259.255 71.224C259.068 71.624 258.804 71.9653 258.463 72.248C258.127 72.5307 257.722 72.7493 257.247 72.904C256.772 73.0533 256.25 73.128 255.679 73.128ZM255.679 71.992C256.052 71.992 256.386 71.9413 256.679 71.84C256.978 71.7333 257.228 71.5867 257.431 71.4C257.639 71.208 257.796 70.9813 257.903 70.72C258.015 70.4533 258.071 70.16 258.071 69.84C258.071 69.4453 258.004 69.1093 257.871 68.832C257.743 68.5493 257.567 68.32 257.343 68.144C257.124 67.968 256.871 67.84 256.583 67.76C256.295 67.6747 255.994 67.632 255.679 67.632C255.364 67.632 255.063 67.6747 254.775 67.76C254.487 67.84 254.231 67.968 254.007 68.144C253.788 68.32 253.612 68.5493 253.479 68.832C253.351 69.1093 253.287 69.4453 253.287 69.84C253.287 70.16 253.34 70.4533 253.447 70.72C253.559 70.9813 253.716 71.208 253.919 71.4C254.127 71.5867 254.378 71.7333 254.671 71.84C254.97 71.9413 255.306 71.992 255.679 71.992ZM255.679 66.488C256.052 66.488 256.37 66.432 256.631 66.32C256.898 66.2027 257.114 66.0507 257.279 65.864C257.444 65.672 257.564 65.4533 257.639 65.208C257.714 64.9627 257.751 64.7093 257.751 64.448C257.751 64.1813 257.706 63.9307 257.615 63.696C257.53 63.4613 257.399 63.256 257.223 63.08C257.052 62.904 256.836 62.7653 256.575 62.664C256.319 62.5627 256.02 62.512 255.679 62.512C255.338 62.512 255.036 62.5627 254.775 62.664C254.519 62.7653 254.303 62.904 254.127 63.08C253.956 63.256 253.826 63.4613 253.735 63.696C253.65 63.9307 253.607 64.1813 253.607 64.448C253.607 64.7093 253.644 64.9627 253.719 65.208C253.794 65.4533 253.914 65.672 254.079 65.864C254.244 66.0507 254.458 66.2027 254.719 66.32C254.986 66.432 255.306 66.488 255.679 66.488ZM269.128 67.272C269.128 68.2747 269.019 69.144 268.8 69.88C268.587 70.6107 268.293 71.216 267.92 71.696C267.547 72.176 267.104 72.5333 266.592 72.768C266.085 73.0027 265.541 73.12 264.96 73.12C264.373 73.12 263.827 73.0027 263.32 72.768C262.819 72.5333 262.381 72.176 262.008 71.696C261.635 71.216 261.341 70.6107 261.128 69.88C260.915 69.144 260.808 68.2747 260.808 67.272C260.808 66.2693 260.915 65.4 261.128 64.664C261.341 63.928 261.635 63.32 262.008 62.84C262.381 62.3547 262.819 61.9947 263.32 61.76C263.827 61.5253 264.373 61.408 264.96 61.408C265.541 61.408 266.085 61.5253 266.592 61.76C267.104 61.9947 267.547 62.3547 267.92 62.84C268.293 63.32 268.587 63.928 268.8 64.664C269.019 65.4 269.128 66.2693 269.128 67.272ZM267.648 67.272C267.648 66.3973 267.573 65.664 267.424 65.072C267.28 64.4747 267.083 63.9947 266.832 63.632C266.587 63.2693 266.301 63.0107 265.976 62.856C265.651 62.696 265.312 62.616 264.96 62.616C264.608 62.616 264.269 62.696 263.944 62.856C263.619 63.0107 263.333 63.2693 263.088 63.632C262.843 63.9947 262.645 64.4747 262.496 65.072C262.352 65.664 262.28 66.3973 262.28 67.272C262.28 68.1467 262.352 68.88 262.496 69.472C262.645 70.064 262.843 70.5413 263.088 70.904C263.333 71.2667 263.619 71.528 263.944 71.688C264.269 71.8427 264.608 71.92 264.96 71.92C265.312 71.92 265.651 71.8427 265.976 71.688C266.301 71.528 266.587 71.2667 266.832 70.904C267.083 70.5413 267.28 70.064 267.424 69.472C267.573 68.88 267.648 68.1467 267.648 67.272ZM278.409 67.272C278.409 68.2747 278.3 69.144 278.081 69.88C277.868 70.6107 277.575 71.216 277.201 71.696C276.828 72.176 276.385 72.5333 275.873 72.768C275.367 73.0027 274.823 73.12 274.241 73.12C273.655 73.12 273.108 73.0027 272.601 72.768C272.1 72.5333 271.663 72.176 271.289 71.696C270.916 71.216 270.623 70.6107 270.409 69.88C270.196 69.144 270.089 68.2747 270.089 67.272C270.089 66.2693 270.196 65.4 270.409 64.664C270.623 63.928 270.916 63.32 271.289 62.84C271.663 62.3547 272.1 61.9947 272.601 61.76C273.108 61.5253 273.655 61.408 274.241 61.408C274.823 61.408 275.367 61.5253 275.873 61.76C276.385 61.9947 276.828 62.3547 277.201 62.84C277.575 63.32 277.868 63.928 278.081 64.664C278.3 65.4 278.409 66.2693 278.409 67.272ZM276.929 67.272C276.929 66.3973 276.855 65.664 276.705 65.072C276.561 64.4747 276.364 63.9947 276.113 63.632C275.868 63.2693 275.583 63.0107 275.257 62.856C274.932 62.696 274.593 62.616 274.241 62.616C273.889 62.616 273.551 62.696 273.225 62.856C272.9 63.0107 272.615 63.2693 272.369 63.632C272.124 63.9947 271.927 64.4747 271.777 65.072C271.633 65.664 271.561 66.3973 271.561 67.272C271.561 68.1467 271.633 68.88 271.777 69.472C271.927 70.064 272.124 70.5413 272.369 70.904C272.615 71.2667 272.9 71.528 273.225 71.688C273.551 71.8427 273.889 71.92 274.241 71.92C274.593 71.92 274.932 71.8427 275.257 71.688C275.583 71.528 275.868 71.2667 276.113 70.904C276.364 70.5413 276.561 70.064 276.705 69.472C276.855 68.88 276.929 68.1467 276.929 67.272Z" fill="white"/>
<path d="M377.392 30V18.536H381.048C381.752 18.536 382.357 18.6053 382.864 18.744C383.376 18.8827 383.795 19.08 384.12 19.336C384.451 19.592 384.693 19.9067 384.848 20.28C385.008 20.648 385.088 21.064 385.088 21.528C385.088 21.8107 385.043 22.0827 384.952 22.344C384.867 22.6053 384.733 22.848 384.552 23.072C384.376 23.296 384.152 23.496 383.88 23.672C383.613 23.848 383.299 23.992 382.936 24.104C383.773 24.2693 384.405 24.5707 384.832 25.008C385.259 25.4453 385.472 26.0213 385.472 26.736C385.472 27.2213 385.381 27.664 385.2 28.064C385.024 28.464 384.763 28.808 384.416 29.096C384.075 29.384 383.653 29.608 383.152 29.768C382.656 29.9227 382.088 30 381.448 30H377.392ZM378.944 24.776V28.768H381.424C381.867 28.768 382.245 28.7173 382.56 28.616C382.88 28.5147 383.141 28.3733 383.344 28.192C383.552 28.0053 383.704 27.7867 383.8 27.536C383.896 27.28 383.944 27 383.944 26.696C383.944 26.104 383.733 25.6373 383.312 25.296C382.896 24.9493 382.264 24.776 381.416 24.776H378.944ZM378.944 23.672H380.992C381.429 23.672 381.808 23.624 382.128 23.528C382.448 23.432 382.712 23.2987 382.92 23.128C383.133 22.9573 383.291 22.752 383.392 22.512C383.493 22.2667 383.544 22 383.544 21.712C383.544 21.04 383.341 20.5467 382.936 20.232C382.531 19.9173 381.901 19.76 381.048 19.76H378.944V23.672ZM389.111 18.216V30H387.687V18.216H389.111ZM397.573 30H396.941C396.802 30 396.69 29.9787 396.605 29.936C396.52 29.8933 396.464 29.8027 396.437 29.664L396.277 28.912C396.064 29.104 395.856 29.2773 395.653 29.432C395.45 29.5813 395.237 29.7093 395.013 29.816C394.789 29.9173 394.549 29.9947 394.293 30.048C394.042 30.1013 393.762 30.128 393.453 30.128C393.138 30.128 392.842 30.0853 392.565 30C392.293 29.9093 392.056 29.776 391.853 29.6C391.65 29.424 391.488 29.2027 391.365 28.936C391.248 28.664 391.189 28.344 391.189 27.976C391.189 27.656 391.277 27.3493 391.453 27.056C391.629 26.7573 391.912 26.4933 392.301 26.264C392.696 26.0347 393.21 25.848 393.845 25.704C394.48 25.5547 395.256 25.4693 396.173 25.448V24.816C396.173 24.1867 396.037 23.712 395.765 23.392C395.498 23.0667 395.101 22.904 394.573 22.904C394.226 22.904 393.933 22.9493 393.693 23.04C393.458 23.1253 393.253 23.224 393.077 23.336C392.906 23.4427 392.757 23.5413 392.629 23.632C392.506 23.7173 392.384 23.76 392.261 23.76C392.165 23.76 392.08 23.736 392.005 23.688C391.936 23.6347 391.88 23.5707 391.837 23.496L391.581 23.04C392.029 22.608 392.512 22.2853 393.029 22.072C393.546 21.8587 394.12 21.752 394.749 21.752C395.202 21.752 395.605 21.8267 395.957 21.976C396.309 22.1253 396.605 22.3333 396.845 22.6C397.085 22.8667 397.266 23.1893 397.389 23.568C397.512 23.9467 397.573 24.3627 397.573 24.816V30ZM393.877 29.128C394.128 29.128 394.357 29.104 394.565 29.056C394.773 29.0027 394.968 28.9307 395.149 28.84C395.336 28.744 395.512 28.6293 395.677 28.496C395.848 28.3627 396.013 28.2107 396.173 28.04V26.352C395.517 26.3733 394.96 26.4267 394.501 26.512C394.042 26.592 393.669 26.6987 393.381 26.832C393.093 26.9653 392.882 27.1227 392.749 27.304C392.621 27.4853 392.557 27.688 392.557 27.912C392.557 28.1253 392.592 28.3093 392.661 28.464C392.73 28.6187 392.824 28.7467 392.941 28.848C393.058 28.944 393.197 29.016 393.357 29.064C393.517 29.1067 393.69 29.128 393.877 29.128ZM405.259 23.336C405.216 23.3947 405.173 23.44 405.131 23.472C405.088 23.504 405.027 23.52 404.947 23.52C404.867 23.52 404.779 23.488 404.683 23.424C404.592 23.3547 404.475 23.28 404.331 23.2C404.187 23.12 404.011 23.048 403.803 22.984C403.6 22.9147 403.349 22.88 403.051 22.88C402.656 22.88 402.307 22.952 402.003 23.096C401.699 23.2347 401.443 23.4373 401.235 23.704C401.032 23.9707 400.877 24.2933 400.771 24.672C400.669 25.0507 400.618 25.4747 400.618 25.944C400.618 26.4347 400.675 26.872 400.787 27.256C400.899 27.6347 401.056 27.9547 401.259 28.216C401.461 28.472 401.707 28.6693 401.995 28.808C402.288 28.9413 402.616 29.008 402.979 29.008C403.325 29.008 403.611 28.968 403.835 28.888C404.059 28.8027 404.245 28.7093 404.395 28.608C404.544 28.5067 404.667 28.416 404.763 28.336C404.859 28.2507 404.955 28.208 405.051 28.208C405.173 28.208 405.264 28.2533 405.323 28.344L405.723 28.864C405.371 29.296 404.931 29.6133 404.403 29.816C403.875 30.0133 403.317 30.112 402.731 30.112C402.224 30.112 401.752 30.0187 401.315 29.832C400.883 29.6453 400.507 29.376 400.187 29.024C399.867 28.6667 399.613 28.2293 399.427 27.712C399.245 27.1947 399.155 26.6053 399.155 25.944C399.155 25.3413 399.237 24.784 399.403 24.272C399.573 23.76 399.819 23.32 400.139 22.952C400.464 22.5787 400.864 22.288 401.339 22.08C401.813 21.872 402.357 21.768 402.97 21.768C403.536 21.768 404.037 21.8613 404.475 22.048C404.912 22.2293 405.299 22.488 405.635 22.824L405.259 23.336ZM408.679 18.216V25.152H409.047C409.154 25.152 409.242 25.1387 409.311 25.112C409.381 25.08 409.458 25.0187 409.543 24.928L412.103 22.184C412.183 22.0987 412.263 22.0293 412.343 21.976C412.423 21.9227 412.53 21.896 412.663 21.896H413.959L410.975 25.072C410.901 25.1627 410.826 25.2427 410.751 25.312C410.682 25.3813 410.602 25.4427 410.511 25.496C410.607 25.56 410.693 25.6347 410.767 25.72C410.847 25.8 410.922 25.8933 410.991 26L414.159 30H412.879C412.762 30 412.661 29.9787 412.575 29.936C412.495 29.888 412.418 29.816 412.343 29.72L409.679 26.4C409.599 26.288 409.519 26.216 409.439 26.184C409.359 26.1467 409.239 26.128 409.079 26.128H408.679V30H407.247V18.216H408.679Z" fill="white"/>
<path d="M381.32 50.616L380.648 54H380C379.877 54 379.773 53.9547 379.688 53.864C379.603 53.7733 379.56 53.656 379.56 53.512C379.56 53.4907 379.56 53.472 379.56 53.456C379.565 53.4347 379.571 53.4107 379.576 53.384L380.144 50.616H378.168L377.6 53.456C377.557 53.6533 377.475 53.7947 377.352 53.88C377.235 53.96 377.099 54 376.944 54H376.312L376.992 50.616H375.824C375.701 50.616 375.605 50.5867 375.536 50.528C375.467 50.464 375.432 50.3573 375.432 50.208C375.432 50.1813 375.432 50.152 375.432 50.12C375.437 50.088 375.443 50.056 375.448 50.024L375.512 49.568H377.144L377.664 46.96H375.808L375.912 46.368C375.939 46.2133 376 46.0987 376.096 46.024C376.192 45.9493 376.344 45.912 376.552 45.912H377.816L378.392 43.048C378.424 42.888 378.496 42.7627 378.608 42.672C378.725 42.5813 378.864 42.536 379.024 42.536H379.664L378.992 45.912H380.968L381.64 42.536H382.272C382.405 42.536 382.515 42.576 382.6 42.656C382.691 42.736 382.736 42.84 382.736 42.968C382.736 43.0107 382.733 43.0453 382.728 43.072L382.144 45.912H383.84L383.736 46.512C383.709 46.6667 383.645 46.7813 383.544 46.856C383.448 46.9253 383.299 46.96 383.096 46.96H381.992L381.472 49.568H382.904C383.032 49.568 383.131 49.6 383.2 49.664C383.269 49.7227 383.304 49.8293 383.304 49.984C383.304 50.0107 383.301 50.04 383.296 50.072C383.296 50.0987 383.293 50.128 383.288 50.16L383.216 50.616H381.32ZM378.32 49.568H380.296L380.816 46.96H378.84L378.32 49.568ZM393.081 48.272C393.081 49.2747 392.972 50.144 392.753 50.88C392.54 51.6107 392.247 52.216 391.873 52.696C391.5 53.176 391.057 53.5333 390.545 53.768C390.039 54.0027 389.495 54.12 388.913 54.12C388.327 54.12 387.78 54.0027 387.273 53.768C386.772 53.5333 386.335 53.176 385.961 52.696C385.588 52.216 385.295 51.6107 385.081 50.88C384.868 50.144 384.761 49.2747 384.761 48.272C384.761 47.2693 384.868 46.4 385.081 45.664C385.295 44.928 385.588 44.32 385.961 43.84C386.335 43.3547 386.772 42.9947 387.273 42.76C387.78 42.5253 388.327 42.408 388.913 42.408C389.495 42.408 390.039 42.5253 390.545 42.76C391.057 42.9947 391.5 43.3547 391.873 43.84C392.247 44.32 392.54 44.928 392.753 45.664C392.972 46.4 393.081 47.2693 393.081 48.272ZM391.601 48.272C391.601 47.3973 391.527 46.664 391.377 46.072C391.233 45.4747 391.036 44.9947 390.785 44.632C390.54 44.2693 390.255 44.0107 389.929 43.856C389.604 43.696 389.265 43.616 388.913 43.616C388.561 43.616 388.223 43.696 387.897 43.856C387.572 44.0107 387.287 44.2693 387.041 44.632C386.796 44.9947 386.599 45.4747 386.449 46.072C386.305 46.664 386.233 47.3973 386.233 48.272C386.233 49.1467 386.305 49.88 386.449 50.472C386.599 51.064 386.796 51.5413 387.041 51.904C387.287 52.2667 387.572 52.528 387.897 52.688C388.223 52.8427 388.561 52.92 388.913 52.92C389.265 52.92 389.604 52.8427 389.929 52.688C390.255 52.528 390.54 52.2667 390.785 51.904C391.036 51.5413 391.233 51.064 391.377 50.472C391.527 49.88 391.601 49.1467 391.601 48.272ZM402.363 48.272C402.363 49.2747 402.253 50.144 402.035 50.88C401.821 51.6107 401.528 52.216 401.155 52.696C400.781 53.176 400.339 53.5333 399.827 53.768C399.32 54.0027 398.776 54.12 398.195 54.12C397.608 54.12 397.061 54.0027 396.555 53.768C396.053 53.5333 395.616 53.176 395.243 52.696C394.869 52.216 394.576 51.6107 394.363 50.88C394.149 50.144 394.043 49.2747 394.043 48.272C394.043 47.2693 394.149 46.4 394.363 45.664C394.576 44.928 394.869 44.32 395.243 43.84C395.616 43.3547 396.053 42.9947 396.555 42.76C397.061 42.5253 397.608 42.408 398.195 42.408C398.776 42.408 399.32 42.5253 399.827 42.76C400.339 42.9947 400.781 43.3547 401.155 43.84C401.528 44.32 401.821 44.928 402.035 45.664C402.253 46.4 402.363 47.2693 402.363 48.272ZM400.883 48.272C400.883 47.3973 400.808 46.664 400.659 46.072C400.515 45.4747 400.317 44.9947 400.067 44.632C399.821 44.2693 399.536 44.0107 399.211 43.856C398.885 43.696 398.547 43.616 398.195 43.616C397.843 43.616 397.504 43.696 397.179 43.856C396.853 44.0107 396.568 44.2693 396.323 44.632C396.077 44.9947 395.88 45.4747 395.731 46.072C395.587 46.664 395.515 47.3973 395.515 48.272C395.515 49.1467 395.587 49.88 395.731 50.472C395.88 51.064 396.077 51.5413 396.323 51.904C396.568 52.2667 396.853 52.528 397.179 52.688C397.504 52.8427 397.843 52.92 398.195 52.92C398.547 52.92 398.885 52.8427 399.211 52.688C399.536 52.528 399.821 52.2667 400.067 51.904C400.317 51.5413 400.515 51.064 400.659 50.472C400.808 49.88 400.883 49.1467 400.883 48.272ZM411.644 48.272C411.644 49.2747 411.534 50.144 411.316 50.88C411.102 51.6107 410.809 52.216 410.436 52.696C410.062 53.176 409.62 53.5333 409.108 53.768C408.601 54.0027 408.057 54.12 407.476 54.12C406.889 54.12 406.342 54.0027 405.836 53.768C405.334 53.5333 404.897 53.176 404.524 52.696C404.15 52.216 403.857 51.6107 403.644 50.88C403.43 50.144 403.324 49.2747 403.324 48.272C403.324 47.2693 403.43 46.4 403.644 45.664C403.857 44.928 404.15 44.32 404.524 43.84C404.897 43.3547 405.334 42.9947 405.836 42.76C406.342 42.5253 406.889 42.408 407.476 42.408C408.057 42.408 408.601 42.5253 409.108 42.76C409.62 42.9947 410.062 43.3547 410.436 43.84C410.809 44.32 411.102 44.928 411.316 45.664C411.534 46.4 411.644 47.2693 411.644 48.272ZM410.164 48.272C410.164 47.3973 410.089 46.664 409.94 46.072C409.796 45.4747 409.598 44.9947 409.348 44.632C409.102 44.2693 408.817 44.0107 408.492 43.856C408.166 43.696 407.828 43.616 407.476 43.616C407.124 43.616 406.785 43.696 406.46 43.856C406.134 44.0107 405.849 44.2693 405.604 44.632C405.358 44.9947 405.161 45.4747 405.012 46.072C404.868 46.664 404.796 47.3973 404.796 48.272C404.796 49.1467 404.868 49.88 405.012 50.472C405.161 51.064 405.358 51.5413 405.604 51.904C405.849 52.2667 406.134 52.528 406.46 52.688C406.785 52.8427 407.124 52.92 407.476 52.92C407.828 52.92 408.166 52.8427 408.492 52.688C408.817 52.528 409.102 52.2667 409.348 51.904C409.598 51.5413 409.796 51.064 409.94 50.472C410.089 49.88 410.164 49.1467 410.164 48.272ZM420.925 48.272C420.925 49.2747 420.816 50.144 420.597 50.88C420.384 51.6107 420.09 52.216 419.717 52.696C419.344 53.176 418.901 53.5333 418.389 53.768C417.882 54.0027 417.338 54.12 416.757 54.12C416.17 54.12 415.624 54.0027 415.117 53.768C414.616 53.5333 414.178 53.176 413.805 52.696C413.432 52.216 413.138 51.6107 412.925 50.88C412.712 50.144 412.605 49.2747 412.605 48.272C412.605 47.2693 412.712 46.4 412.925 45.664C413.138 44.928 413.432 44.32 413.805 43.84C414.178 43.3547 414.616 42.9947 415.117 42.76C415.624 42.5253 416.17 42.408 416.757 42.408C417.338 42.408 417.882 42.5253 418.389 42.76C418.901 42.9947 419.344 43.3547 419.717 43.84C420.09 44.32 420.384 44.928 420.597 45.664C420.816 46.4 420.925 47.2693 420.925 48.272ZM419.445 48.272C419.445 47.3973 419.37 46.664 419.221 46.072C419.077 45.4747 418.88 44.9947 418.629 44.632C418.384 44.2693 418.098 44.0107 417.773 43.856C417.448 43.696 417.109 43.616 416.757 43.616C416.405 43.616 416.066 43.696 415.741 43.856C415.416 44.0107 415.13 44.2693 414.885 44.632C414.64 44.9947 414.442 45.4747 414.293 46.072C414.149 46.664 414.077 47.3973 414.077 48.272C414.077 49.1467 414.149 49.88 414.293 50.472C414.442 51.064 414.64 51.5413 414.885 51.904C415.13 52.2667 415.416 52.528 415.741 52.688C416.066 52.8427 416.405 52.92 416.757 52.92C417.109 52.92 417.448 52.8427 417.773 52.688C418.098 52.528 418.384 52.2667 418.629 51.904C418.88 51.5413 419.077 51.064 419.221 50.472C419.37 49.88 419.445 49.1467 419.445 48.272ZM430.206 48.272C430.206 49.2747 430.097 50.144 429.878 50.88C429.665 51.6107 429.372 52.216 428.998 52.696C428.625 53.176 428.182 53.5333 427.67 53.768C427.164 54.0027 426.62 54.12 426.038 54.12C425.452 54.12 424.905 54.0027 424.398 53.768C423.897 53.5333 423.46 53.176 423.086 52.696C422.713 52.216 422.42 51.6107 422.206 50.88C421.993 50.144 421.886 49.2747 421.886 48.272C421.886 47.2693 421.993 46.4 422.206 45.664C422.42 44.928 422.713 44.32 423.086 43.84C423.46 43.3547 423.897 42.9947 424.398 42.76C424.905 42.5253 425.452 42.408 426.038 42.408C426.62 42.408 427.164 42.5253 427.67 42.76C428.182 42.9947 428.625 43.3547 428.998 43.84C429.372 44.32 429.665 44.928 429.878 45.664C430.097 46.4 430.206 47.2693 430.206 48.272ZM428.726 48.272C428.726 47.3973 428.652 46.664 428.502 46.072C428.358 45.4747 428.161 44.9947 427.91 44.632C427.665 44.2693 427.38 44.0107 427.054 43.856C426.729 43.696 426.39 43.616 426.038 43.616C425.686 43.616 425.348 43.696 425.022 43.856C424.697 44.0107 424.412 44.2693 424.166 44.632C423.921 44.9947 423.724 45.4747 423.574 46.072C423.43 46.664 423.358 47.3973 423.358 48.272C423.358 49.1467 423.43 49.88 423.574 50.472C423.724 51.064 423.921 51.5413 424.166 51.904C424.412 52.2667 424.697 52.528 425.022 52.688C425.348 52.8427 425.686 52.92 426.038 52.92C426.39 52.92 426.729 52.8427 427.054 52.688C427.38 52.528 427.665 52.2667 427.91 51.904C428.161 51.5413 428.358 51.064 428.502 50.472C428.652 49.88 428.726 49.1467 428.726 48.272ZM439.488 48.272C439.488 49.2747 439.378 50.144 439.16 50.88C438.946 51.6107 438.653 52.216 438.28 52.696C437.906 53.176 437.464 53.5333 436.952 53.768C436.445 54.0027 435.901 54.12 435.32 54.12C434.733 54.12 434.186 54.0027 433.68 53.768C433.178 53.5333 432.741 53.176 432.368 52.696C431.994 52.216 431.701 51.6107 431.488 50.88C431.274 50.144 431.168 49.2747 431.168 48.272C431.168 47.2693 431.274 46.4 431.488 45.664C431.701 44.928 431.994 44.32 432.368 43.84C432.741 43.3547 433.178 42.9947 433.68 42.76C434.186 42.5253 434.733 42.408 435.32 42.408C435.901 42.408 436.445 42.5253 436.952 42.76C437.464 42.9947 437.906 43.3547 438.28 43.84C438.653 44.32 438.946 44.928 439.16 45.664C439.378 46.4 439.488 47.2693 439.488 48.272ZM438.008 48.272C438.008 47.3973 437.933 46.664 437.784 46.072C437.64 45.4747 437.442 44.9947 437.192 44.632C436.946 44.2693 436.661 44.0107 436.336 43.856C436.01 43.696 435.672 43.616 435.32 43.616C434.968 43.616 434.629 43.696 434.304 43.856C433.978 44.0107 433.693 44.2693 433.448 44.632C433.202 44.9947 433.005 45.4747 432.856 46.072C432.712 46.664 432.64 47.3973 432.64 48.272C432.64 49.1467 432.712 49.88 432.856 50.472C433.005 51.064 433.202 51.5413 433.448 51.904C433.693 52.2667 433.978 52.528 434.304 52.688C434.629 52.8427 434.968 52.92 435.32 52.92C435.672 52.92 436.01 52.8427 436.336 52.688C436.661 52.528 436.946 52.2667 437.192 51.904C437.442 51.5413 437.64 51.064 437.784 50.472C437.933 49.88 438.008 49.1467 438.008 48.272Z" fill="white"/>
<path d="M556.112 18.536H557.4C557.539 18.536 557.653 18.5707 557.744 18.64C557.835 18.7093 557.896 18.7973 557.928 18.904L560.296 26.872C560.339 27.016 560.376 27.1707 560.408 27.336C560.445 27.5013 560.48 27.6747 560.512 27.856C560.549 27.6747 560.587 27.5013 560.624 27.336C560.661 27.1653 560.704 27.0107 560.752 26.872L563.448 18.904C563.48 18.8133 563.541 18.7307 563.632 18.656C563.728 18.576 563.843 18.536 563.976 18.536H564.424C564.563 18.536 564.675 18.5707 564.76 18.64C564.851 18.7093 564.915 18.7973 564.952 18.904L567.632 26.872C567.728 27.1493 567.813 27.4667 567.888 27.824C567.92 27.648 567.949 27.48 567.976 27.32C568.003 27.16 568.037 27.0107 568.08 26.872L570.456 18.904C570.483 18.808 570.541 18.7227 570.632 18.648C570.728 18.5733 570.843 18.536 570.976 18.536H572.184L568.608 30H567.216L564.312 21.256C564.253 21.0907 564.2 20.8987 564.152 20.68C564.125 20.7867 564.099 20.8907 564.072 20.992C564.051 21.088 564.027 21.176 564 21.256L561.08 30H559.688L556.112 18.536ZM573.465 30V18.216H574.889V22.984C575.236 22.616 575.62 22.3227 576.041 22.104C576.462 21.88 576.948 21.768 577.497 21.768C577.94 21.768 578.329 21.8427 578.665 21.992C579.006 22.136 579.289 22.344 579.513 22.616C579.742 22.8827 579.916 23.2053 580.033 23.584C580.15 23.9627 580.209 24.3813 580.209 24.84V30H578.785V24.84C578.785 24.2267 578.644 23.752 578.361 23.416C578.084 23.0747 577.657 22.904 577.081 22.904C576.66 22.904 576.265 23.0053 575.897 23.208C575.534 23.4107 575.198 23.6853 574.889 24.032V30H573.465ZM583.94 21.896V30H582.516V21.896H583.94ZM584.26 19.352C584.26 19.4907 584.23 19.6213 584.172 19.744C584.118 19.8613 584.044 19.968 583.948 20.064C583.857 20.1547 583.75 20.2267 583.628 20.28C583.505 20.3333 583.374 20.36 583.236 20.36C583.097 20.36 582.966 20.3333 582.844 20.28C582.726 20.2267 582.62 20.1547 582.524 20.064C582.433 19.968 582.361 19.8613 582.308 19.744C582.254 19.6213 582.228 19.4907 582.228 19.352C582.228 19.2133 582.254 19.0827 582.308 18.96C582.361 18.832 582.433 18.7227 582.524 18.632C582.62 18.536 582.726 18.4613 582.844 18.408C582.966 18.3547 583.097 18.328 583.236 18.328C583.374 18.328 583.505 18.3547 583.628 18.408C583.75 18.4613 583.857 18.536 583.948 18.632C584.044 18.7227 584.118 18.832 584.172 18.96C584.23 19.0827 584.26 19.2133 584.26 19.352ZM588.905 30.128C588.265 30.128 587.772 29.9493 587.425 29.592C587.084 29.2347 586.913 28.72 586.913 28.048V23.088H585.937C585.852 23.088 585.78 23.064 585.721 23.016C585.663 22.9627 585.633 22.8827 585.633 22.776V22.208L586.961 22.04L587.289 19.536C587.3 19.456 587.335 19.392 587.393 19.344C587.452 19.2907 587.527 19.264 587.617 19.264H588.337V22.056H590.657V23.088H588.337V27.952C588.337 28.2933 588.42 28.5467 588.585 28.712C588.751 28.8773 588.964 28.96 589.225 28.96C589.375 28.96 589.503 28.9413 589.609 28.904C589.721 28.8613 589.817 28.816 589.897 28.768C589.977 28.72 590.044 28.6773 590.097 28.64C590.156 28.5973 590.207 28.576 590.249 28.576C590.324 28.576 590.391 28.6213 590.449 28.712L590.865 29.392C590.62 29.6213 590.324 29.8027 589.977 29.936C589.631 30.064 589.273 30.128 588.905 30.128ZM595.626 21.768C596.111 21.768 596.559 21.8507 596.97 22.016C597.381 22.176 597.735 22.4107 598.034 22.72C598.333 23.024 598.565 23.4027 598.73 23.856C598.901 24.304 598.986 24.816 598.986 25.392C598.986 25.616 598.962 25.7653 598.914 25.84C598.866 25.9147 598.775 25.952 598.642 25.952H593.25C593.261 26.464 593.33 26.9093 593.458 27.288C593.586 27.6667 593.762 27.984 593.986 28.24C594.21 28.4907 594.477 28.68 594.786 28.808C595.095 28.9307 595.442 28.992 595.826 28.992C596.183 28.992 596.49 28.952 596.746 28.872C597.007 28.7867 597.231 28.696 597.418 28.6C597.605 28.504 597.759 28.416 597.882 28.336C598.01 28.2507 598.119 28.208 598.21 28.208C598.327 28.208 598.418 28.2533 598.482 28.344L598.882 28.864C598.706 29.0773 598.495 29.264 598.25 29.424C598.005 29.5787 597.741 29.7067 597.458 29.808C597.181 29.9093 596.893 29.984 596.594 30.032C596.295 30.0853 595.999 30.112 595.706 30.112C595.146 30.112 594.629 30.0187 594.154 29.832C593.685 29.64 593.277 29.3627 592.93 29C592.589 28.632 592.322 28.1787 592.13 27.64C591.938 27.1013 591.842 26.4827 591.842 25.784C591.842 25.2187 591.927 24.6907 592.098 24.2C592.274 23.7093 592.525 23.2853 592.85 22.928C593.175 22.5653 593.573 22.2827 594.042 22.08C594.511 21.872 595.039 21.768 595.626 21.768ZM595.658 22.816C594.97 22.816 594.429 23.016 594.034 23.416C593.639 23.8107 593.394 24.36 593.298 25.064H597.706C597.706 24.7333 597.661 24.432 597.57 24.16C597.479 23.8827 597.346 23.6453 597.17 23.448C596.994 23.2453 596.778 23.0907 596.522 22.984C596.271 22.872 595.983 22.816 595.658 22.816Z" fill="black"/>
<path d="M561.32 50.616L560.648 54H560C559.877 54 559.773 53.9547 559.688 53.864C559.603 53.7733 559.56 53.656 559.56 53.512C559.56 53.4907 559.56 53.472 559.56 53.456C559.565 53.4347 559.571 53.4107 559.576 53.384L560.144 50.616H558.168L557.6 53.456C557.557 53.6533 557.475 53.7947 557.352 53.88C557.235 53.96 557.099 54 556.944 54H556.312L556.992 50.616H555.824C555.701 50.616 555.605 50.5867 555.536 50.528C555.467 50.464 555.432 50.3573 555.432 50.208C555.432 50.1813 555.432 50.152 555.432 50.12C555.437 50.088 555.443 50.056 555.448 50.024L555.512 49.568H557.144L557.664 46.96H555.808L555.912 46.368C555.939 46.2133 556 46.0987 556.096 46.024C556.192 45.9493 556.344 45.912 556.552 45.912H557.816L558.392 43.048C558.424 42.888 558.496 42.7627 558.608 42.672C558.725 42.5813 558.864 42.536 559.024 42.536H559.664L558.992 45.912H560.968L561.64 42.536H562.272C562.405 42.536 562.515 42.576 562.6 42.656C562.691 42.736 562.736 42.84 562.736 42.968C562.736 43.0107 562.733 43.0453 562.728 43.072L562.144 45.912H563.84L563.736 46.512C563.709 46.6667 563.645 46.7813 563.544 46.856C563.448 46.9253 563.299 46.96 563.096 46.96H561.992L561.472 49.568H562.904C563.032 49.568 563.131 49.6 563.2 49.664C563.269 49.7227 563.304 49.8293 563.304 49.984C563.304 50.0107 563.301 50.04 563.296 50.072C563.296 50.0987 563.293 50.128 563.288 50.16L563.216 50.616H561.32ZM558.32 49.568H560.296L560.816 46.96H558.84L558.32 49.568ZM572.737 42.536V43.8H567.233V47.808H571.937V49.072H567.233V54H565.673V42.536H572.737ZM581.8 42.536V43.8H576.296V47.808H581V49.072H576.296V54H574.736V42.536H581.8ZM590.862 42.536V43.8H585.358V47.808H590.062V49.072H585.358V54H583.798V42.536H590.862ZM599.925 42.536V43.8H594.421V47.808H599.125V49.072H594.421V54H592.861V42.536H599.925ZM608.987 42.536V43.8H603.483V47.808H608.187V49.072H603.483V54H601.923V42.536H608.987ZM618.05 42.536V43.8H612.546V47.808H617.25V49.072H612.546V54H610.986V42.536H618.05Z" fill="black"/>
</svg>
