<svg width="24" height="24" viewBox="0 0 24 24" fill="none" xmlns="http://www.w3.org/2000/svg">
<path d="M12 24C18.6274 24 24 18.6274 24 12C24 5.37258 18.6274 0 12 0C5.37258 0 0 5.37258 0 12C0 18.6274 5.37258 24 12 24Z" fill="#C2D95D"/>
<path fill-rule="evenodd" clip-rule="evenodd" d="M11.2383 15.1539C11.5199 15.4138 11.6303 15.813 11.5258 16.1945C11.4213 16.576 11.1188 16.8785 10.7373 16.983C10.3558 17.0875 9.95654 16.9772 9.69666 16.6955L6.7685 13.7674C6.48684 13.5075 6.37653 13.1082 6.48102 12.7267C6.5855 12.3453 6.88803 12.0427 7.2695 11.9382C7.65096 11.8338 8.05024 11.9441 8.31013 12.2257L11.2383 15.1539Z" fill="white"/>
<path fill-rule="evenodd" clip-rule="evenodd" d="M11.6555 16.9196C11.4127 17.2161 11.0206 17.3498 10.6337 17.2681C10.2467 17.1863 9.9268 16.9022 9.79994 16.5276C9.67308 16.153 9.75957 15.7479 10.0254 15.4718L16.3705 8.32743C16.6133 8.03089 17.0053 7.89717 17.3923 7.9789C17.7793 8.06064 18.0992 8.34475 18.2261 8.71937C18.3529 9.09398 18.2664 9.49909 18.0006 9.77518L11.6555 16.9196Z" fill="white"/>
</svg>
