<svg width="403" height="157" viewBox="0 0 403 157" fill="none" xmlns="http://www.w3.org/2000/svg">
<line x1="105" y1="81.5" x2="403" y2="81.5" stroke="#0064D1"/>
<path d="M69.535 140.988C69.535 141.739 69.416 142.43 69.178 143.06C68.94 143.685 68.604 144.224 68.17 144.677C67.736 145.13 67.2133 145.482 66.602 145.734C65.9953 145.981 65.3233 146.105 64.586 146.105C63.8487 146.105 63.1767 145.981 62.57 145.734C61.9633 145.482 61.443 145.13 61.009 144.677C60.575 144.224 60.239 143.685 60.001 143.06C59.763 142.43 59.644 141.739 59.644 140.988C59.644 140.237 59.763 139.548 60.001 138.923C60.239 138.293 60.575 137.752 61.009 137.299C61.443 136.842 61.9633 136.487 62.57 136.235C63.1767 135.983 63.8487 135.857 64.586 135.857C65.3233 135.857 65.9953 135.983 66.602 136.235C67.2133 136.487 67.736 136.842 68.17 137.299C68.604 137.752 68.94 138.293 69.178 138.923C69.416 139.548 69.535 140.237 69.535 140.988ZM68.142 140.988C68.142 140.372 68.058 139.819 67.89 139.329C67.722 138.839 67.484 138.426 67.176 138.09C66.868 137.749 66.4947 137.488 66.056 137.306C65.6173 137.124 65.1273 137.033 64.586 137.033C64.0493 137.033 63.5617 137.124 63.123 137.306C62.6843 137.488 62.3087 137.749 61.996 138.09C61.688 138.426 61.45 138.839 61.282 139.329C61.114 139.819 61.03 140.372 61.03 140.988C61.03 141.604 61.114 142.157 61.282 142.647C61.45 143.132 61.688 143.545 61.996 143.886C62.3087 144.222 62.6843 144.481 63.123 144.663C63.5617 144.84 64.0493 144.929 64.586 144.929C65.1273 144.929 65.6173 144.84 66.056 144.663C66.4947 144.481 66.868 144.222 67.176 143.886C67.484 143.545 67.722 143.132 67.89 142.647C68.058 142.157 68.142 141.604 68.142 140.988ZM71.1919 148.401V138.909H71.9339C72.1113 138.909 72.2233 138.995 72.2699 139.168L72.3749 140.008C72.6783 139.639 73.0236 139.343 73.4109 139.119C73.8029 138.895 74.2533 138.783 74.7619 138.783C75.1679 138.783 75.5366 138.862 75.8679 139.021C76.1993 139.175 76.4816 139.406 76.7149 139.714C76.9483 140.017 77.1279 140.395 77.2539 140.848C77.3799 141.301 77.4429 141.821 77.4429 142.409C77.4429 142.932 77.3729 143.419 77.2329 143.872C77.0929 144.32 76.8923 144.71 76.6309 145.041C76.3696 145.368 76.0476 145.627 75.6649 145.818C75.2869 146.005 74.8599 146.098 74.3839 146.098C73.9453 146.098 73.5696 146.026 73.2569 145.881C72.9489 145.736 72.6759 145.531 72.4379 145.265V148.401H71.1919ZM74.3489 139.791C73.9429 139.791 73.5859 139.884 73.2779 140.071C72.9746 140.258 72.6946 140.521 72.4379 140.862V144.292C72.6666 144.6 72.9163 144.817 73.1869 144.943C73.4623 145.069 73.7679 145.132 74.1039 145.132C74.7619 145.132 75.2683 144.896 75.6229 144.425C75.9776 143.954 76.1549 143.282 76.1549 142.409C76.1549 141.947 76.1129 141.55 76.0289 141.219C75.9496 140.888 75.8329 140.617 75.6789 140.407C75.5249 140.192 75.3359 140.036 75.1119 139.938C74.8879 139.84 74.6336 139.791 74.3489 139.791ZM81.0655 146.112C80.5055 146.112 80.0739 145.956 79.7705 145.643C79.4719 145.33 79.3225 144.88 79.3225 144.292V139.952H78.4685C78.3939 139.952 78.3309 139.931 78.2795 139.889C78.2282 139.842 78.2025 139.772 78.2025 139.679V139.182L79.3645 139.035L79.6515 136.844C79.6609 136.774 79.6912 136.718 79.7425 136.676C79.7939 136.629 79.8592 136.606 79.9385 136.606H80.5685V139.049H82.5985V139.952H80.5685V144.208C80.5685 144.507 80.6409 144.728 80.7855 144.873C80.9302 145.018 81.1169 145.09 81.3455 145.09C81.4762 145.09 81.5882 145.074 81.6815 145.041C81.7795 145.004 81.8635 144.964 81.9335 144.922C82.0035 144.88 82.0619 144.843 82.1085 144.81C82.1599 144.773 82.2042 144.754 82.2415 144.754C82.3069 144.754 82.3652 144.794 82.4165 144.873L82.7805 145.468C82.5659 145.669 82.3069 145.827 82.0035 145.944C81.7002 146.056 81.3875 146.112 81.0655 146.112ZM85.5252 138.909V146H84.2792V138.909H85.5252ZM85.8052 136.683C85.8052 136.804 85.7795 136.919 85.7282 137.026C85.6815 137.129 85.6162 137.222 85.5322 137.306C85.4529 137.385 85.3595 137.448 85.2522 137.495C85.1449 137.542 85.0305 137.565 84.9092 137.565C84.7879 137.565 84.6735 137.542 84.5662 137.495C84.4635 137.448 84.3702 137.385 84.2862 137.306C84.2069 137.222 84.1439 137.129 84.0972 137.026C84.0505 136.919 84.0272 136.804 84.0272 136.683C84.0272 136.562 84.0505 136.447 84.0972 136.34C84.1439 136.228 84.2069 136.132 84.2862 136.053C84.3702 135.969 84.4635 135.904 84.5662 135.857C84.6735 135.81 84.7879 135.787 84.9092 135.787C85.0305 135.787 85.1449 135.81 85.2522 135.857C85.3595 135.904 85.4529 135.969 85.5322 136.053C85.6162 136.132 85.6815 136.228 85.7282 136.34C85.7795 136.447 85.8052 136.562 85.8052 136.683ZM90.5912 138.797C91.1092 138.797 91.5759 138.883 91.9912 139.056C92.4112 139.229 92.7659 139.474 93.0552 139.791C93.3492 140.108 93.5732 140.493 93.7272 140.946C93.8859 141.394 93.9652 141.896 93.9652 142.451C93.9652 143.011 93.8859 143.515 93.7272 143.963C93.5732 144.411 93.3492 144.794 93.0552 145.111C92.7659 145.428 92.4112 145.673 91.9912 145.846C91.5759 146.014 91.1092 146.098 90.5912 146.098C90.0732 146.098 89.6042 146.014 89.1842 145.846C88.7689 145.673 88.4142 145.428 88.1202 145.111C87.8262 144.794 87.5999 144.411 87.4412 143.963C87.2826 143.515 87.2032 143.011 87.2032 142.451C87.2032 141.896 87.2826 141.394 87.4412 140.946C87.5999 140.493 87.8262 140.108 88.1202 139.791C88.4142 139.474 88.7689 139.229 89.1842 139.056C89.6042 138.883 90.0732 138.797 90.5912 138.797ZM90.5912 145.125C91.2912 145.125 91.8139 144.892 92.1592 144.425C92.5046 143.954 92.6772 143.298 92.6772 142.458C92.6772 141.613 92.5046 140.955 92.1592 140.484C91.8139 140.013 91.2912 139.777 90.5912 139.777C90.2366 139.777 89.9286 139.838 89.6672 139.959C89.4059 140.08 89.1866 140.255 89.0092 140.484C88.8366 140.713 88.7059 140.995 88.6172 141.331C88.5332 141.662 88.4912 142.038 88.4912 142.458C88.4912 142.878 88.5332 143.254 88.6172 143.585C88.7059 143.916 88.8366 144.196 89.0092 144.425C89.1866 144.649 89.4059 144.822 89.6672 144.943C89.9286 145.064 90.2366 145.125 90.5912 145.125ZM95.5005 146V138.909H96.2425C96.4198 138.909 96.5318 138.995 96.5785 139.168L96.6765 139.938C96.9845 139.597 97.3275 139.322 97.7055 139.112C98.0882 138.902 98.5292 138.797 99.0285 138.797C99.4158 138.797 99.7565 138.862 100.051 138.993C100.349 139.119 100.597 139.301 100.793 139.539C100.993 139.772 101.145 140.055 101.248 140.386C101.35 140.717 101.402 141.084 101.402 141.485V146H100.156V141.485C100.156 140.948 100.032 140.533 99.7845 140.239C99.5418 139.94 99.1685 139.791 98.6645 139.791C98.2958 139.791 97.9505 139.88 97.6285 140.057C97.3112 140.234 97.0172 140.475 96.7465 140.778V146H95.5005ZM108.488 146H107.935C107.813 146 107.715 145.981 107.641 145.944C107.566 145.907 107.517 145.827 107.494 145.706L107.354 145.048C107.167 145.216 106.985 145.368 106.808 145.503C106.63 145.634 106.444 145.746 106.248 145.839C106.052 145.928 105.842 145.995 105.618 146.042C105.398 146.089 105.153 146.112 104.883 146.112C104.607 146.112 104.348 146.075 104.106 146C103.868 145.921 103.66 145.804 103.483 145.65C103.305 145.496 103.163 145.302 103.056 145.069C102.953 144.831 102.902 144.551 102.902 144.229C102.902 143.949 102.979 143.681 103.133 143.424C103.287 143.163 103.534 142.932 103.875 142.731C104.22 142.53 104.67 142.367 105.226 142.241C105.781 142.11 106.46 142.036 107.263 142.017V141.464C107.263 140.913 107.144 140.498 106.906 140.218C106.672 139.933 106.325 139.791 105.863 139.791C105.559 139.791 105.303 139.831 105.093 139.91C104.887 139.985 104.708 140.071 104.554 140.169C104.404 140.262 104.274 140.349 104.162 140.428C104.054 140.503 103.947 140.54 103.84 140.54C103.756 140.54 103.681 140.519 103.616 140.477C103.555 140.43 103.506 140.374 103.469 140.309L103.245 139.91C103.637 139.532 104.059 139.25 104.512 139.063C104.964 138.876 105.466 138.783 106.017 138.783C106.413 138.783 106.766 138.848 107.074 138.979C107.382 139.11 107.641 139.292 107.851 139.525C108.061 139.758 108.219 140.041 108.327 140.372C108.434 140.703 108.488 141.067 108.488 141.464V146ZM105.254 145.237C105.473 145.237 105.674 145.216 105.856 145.174C106.038 145.127 106.208 145.064 106.367 144.985C106.53 144.901 106.684 144.801 106.829 144.684C106.978 144.567 107.123 144.434 107.263 144.285V142.808C106.689 142.827 106.201 142.873 105.8 142.948C105.398 143.018 105.072 143.111 104.82 143.228C104.568 143.345 104.383 143.482 104.267 143.641C104.155 143.8 104.099 143.977 104.099 144.173C104.099 144.36 104.129 144.521 104.19 144.656C104.25 144.791 104.332 144.903 104.435 144.992C104.537 145.076 104.659 145.139 104.799 145.181C104.939 145.218 105.09 145.237 105.254 145.237ZM111.762 135.689V146H110.516V135.689H111.762ZM120.725 140.078C120.669 140.181 120.582 140.232 120.466 140.232C120.396 140.232 120.316 140.206 120.228 140.155C120.139 140.104 120.029 140.048 119.899 139.987C119.773 139.922 119.621 139.863 119.444 139.812C119.266 139.756 119.056 139.728 118.814 139.728C118.604 139.728 118.415 139.756 118.247 139.812C118.079 139.863 117.934 139.936 117.813 140.029C117.696 140.122 117.605 140.232 117.54 140.358C117.479 140.479 117.449 140.612 117.449 140.757C117.449 140.939 117.5 141.091 117.603 141.212C117.71 141.333 117.85 141.438 118.023 141.527C118.195 141.616 118.391 141.695 118.611 141.765C118.83 141.83 119.054 141.903 119.283 141.982C119.516 142.057 119.742 142.141 119.962 142.234C120.181 142.327 120.377 142.444 120.55 142.584C120.722 142.724 120.86 142.897 120.963 143.102C121.07 143.303 121.124 143.545 121.124 143.83C121.124 144.157 121.065 144.46 120.949 144.74C120.832 145.015 120.659 145.256 120.431 145.461C120.202 145.662 119.922 145.82 119.591 145.937C119.259 146.054 118.877 146.112 118.443 146.112C117.948 146.112 117.5 146.033 117.099 145.874C116.697 145.711 116.357 145.503 116.077 145.251L116.371 144.775C116.408 144.714 116.452 144.668 116.504 144.635C116.555 144.602 116.623 144.586 116.707 144.586C116.791 144.586 116.879 144.619 116.973 144.684C117.066 144.749 117.178 144.822 117.309 144.901C117.444 144.98 117.605 145.053 117.792 145.118C117.983 145.183 118.221 145.216 118.506 145.216C118.748 145.216 118.961 145.186 119.143 145.125C119.325 145.06 119.476 144.973 119.598 144.866C119.719 144.759 119.808 144.635 119.864 144.495C119.924 144.355 119.955 144.206 119.955 144.047C119.955 143.851 119.901 143.69 119.794 143.564C119.691 143.433 119.553 143.324 119.381 143.235C119.208 143.142 119.01 143.062 118.786 142.997C118.566 142.927 118.34 142.855 118.107 142.78C117.878 142.705 117.652 142.621 117.428 142.528C117.208 142.43 117.012 142.309 116.84 142.164C116.667 142.019 116.527 141.842 116.42 141.632C116.317 141.417 116.266 141.158 116.266 140.855C116.266 140.584 116.322 140.325 116.434 140.078C116.546 139.826 116.709 139.607 116.924 139.42C117.138 139.229 117.402 139.077 117.715 138.965C118.027 138.853 118.384 138.797 118.786 138.797C119.252 138.797 119.67 138.872 120.039 139.021C120.412 139.166 120.734 139.366 121.005 139.623L120.725 140.078ZM123.813 138.909V143.431C123.813 143.968 123.937 144.383 124.184 144.677C124.431 144.971 124.805 145.118 125.304 145.118C125.668 145.118 126.011 145.032 126.333 144.859C126.655 144.686 126.951 144.446 127.222 144.138V138.909H128.468V146H127.726C127.549 146 127.437 145.914 127.39 145.741L127.292 144.978C126.984 145.319 126.639 145.594 126.256 145.804C125.873 146.009 125.435 146.112 124.94 146.112C124.553 146.112 124.21 146.049 123.911 145.923C123.617 145.792 123.37 145.61 123.169 145.377C122.968 145.144 122.817 144.861 122.714 144.53C122.616 144.199 122.567 143.832 122.567 143.431V138.909H123.813ZM130.514 146V138.909H131.256C131.434 138.909 131.546 138.995 131.592 139.168L131.683 139.896C131.945 139.574 132.236 139.31 132.558 139.105C132.885 138.9 133.263 138.797 133.692 138.797C134.173 138.797 134.56 138.93 134.854 139.196C135.153 139.462 135.368 139.821 135.498 140.274C135.596 140.017 135.725 139.796 135.883 139.609C136.047 139.422 136.229 139.268 136.429 139.147C136.63 139.026 136.842 138.937 137.066 138.881C137.295 138.825 137.526 138.797 137.759 138.797C138.133 138.797 138.464 138.858 138.753 138.979C139.047 139.096 139.295 139.268 139.495 139.497C139.701 139.726 139.857 140.008 139.964 140.344C140.072 140.675 140.125 141.056 140.125 141.485V146H138.879V141.485C138.879 140.93 138.758 140.51 138.515 140.225C138.273 139.936 137.92 139.791 137.458 139.791C137.253 139.791 137.057 139.828 136.87 139.903C136.688 139.973 136.527 140.078 136.387 140.218C136.247 140.358 136.135 140.535 136.051 140.75C135.972 140.96 135.932 141.205 135.932 141.485V146H134.686V141.485C134.686 140.916 134.572 140.491 134.343 140.211C134.115 139.931 133.781 139.791 133.342 139.791C133.034 139.791 132.747 139.875 132.481 140.043C132.22 140.206 131.98 140.43 131.76 140.715V146H130.514ZM142.012 146V138.909H142.754C142.932 138.909 143.044 138.995 143.09 139.168L143.181 139.896C143.443 139.574 143.734 139.31 144.056 139.105C144.383 138.9 144.761 138.797 145.19 138.797C145.671 138.797 146.058 138.93 146.352 139.196C146.651 139.462 146.866 139.821 146.996 140.274C147.094 140.017 147.223 139.796 147.381 139.609C147.545 139.422 147.727 139.268 147.927 139.147C148.128 139.026 148.34 138.937 148.564 138.881C148.793 138.825 149.024 138.797 149.257 138.797C149.631 138.797 149.962 138.858 150.251 138.979C150.545 139.096 150.793 139.268 150.993 139.497C151.199 139.726 151.355 140.008 151.462 140.344C151.57 140.675 151.623 141.056 151.623 141.485V146H150.377V141.485C150.377 140.93 150.256 140.51 150.013 140.225C149.771 139.936 149.418 139.791 148.956 139.791C148.751 139.791 148.555 139.828 148.368 139.903C148.186 139.973 148.025 140.078 147.885 140.218C147.745 140.358 147.633 140.535 147.549 140.75C147.47 140.96 147.43 141.205 147.43 141.485V146H146.184V141.485C146.184 140.916 146.07 140.491 145.841 140.211C145.613 139.931 145.279 139.791 144.84 139.791C144.532 139.791 144.245 139.875 143.979 140.043C143.718 140.206 143.478 140.43 143.258 140.715V146H142.012ZM158.718 146H158.165C158.044 146 157.946 145.981 157.871 145.944C157.797 145.907 157.748 145.827 157.724 145.706L157.584 145.048C157.398 145.216 157.216 145.368 157.038 145.503C156.861 145.634 156.674 145.746 156.478 145.839C156.282 145.928 156.072 145.995 155.848 146.042C155.629 146.089 155.384 146.112 155.113 146.112C154.838 146.112 154.579 146.075 154.336 146C154.098 145.921 153.891 145.804 153.713 145.65C153.536 145.496 153.394 145.302 153.286 145.069C153.184 144.831 153.132 144.551 153.132 144.229C153.132 143.949 153.209 143.681 153.363 143.424C153.517 143.163 153.765 142.932 154.105 142.731C154.451 142.53 154.901 142.367 155.456 142.241C156.012 142.11 156.691 142.036 157.493 142.017V141.464C157.493 140.913 157.374 140.498 157.136 140.218C156.903 139.933 156.555 139.791 156.093 139.791C155.79 139.791 155.533 139.831 155.323 139.91C155.118 139.985 154.938 140.071 154.784 140.169C154.635 140.262 154.504 140.349 154.392 140.428C154.285 140.503 154.178 140.54 154.07 140.54C153.986 140.54 153.912 140.519 153.846 140.477C153.786 140.43 153.737 140.374 153.699 140.309L153.475 139.91C153.867 139.532 154.29 139.25 154.742 139.063C155.195 138.876 155.697 138.783 156.247 138.783C156.644 138.783 156.996 138.848 157.304 138.979C157.612 139.11 157.871 139.292 158.081 139.525C158.291 139.758 158.45 140.041 158.557 140.372C158.665 140.703 158.718 141.067 158.718 141.464V146ZM155.484 145.237C155.704 145.237 155.904 145.216 156.086 145.174C156.268 145.127 156.439 145.064 156.597 144.985C156.761 144.901 156.915 144.801 157.059 144.684C157.209 144.567 157.353 144.434 157.493 144.285V142.808C156.919 142.827 156.432 142.873 156.03 142.948C155.629 143.018 155.302 143.111 155.05 143.228C154.798 143.345 154.614 143.482 154.497 143.641C154.385 143.8 154.329 143.977 154.329 144.173C154.329 144.36 154.36 144.521 154.42 144.656C154.481 144.791 154.563 144.903 154.665 144.992C154.768 145.076 154.889 145.139 155.029 145.181C155.169 145.218 155.321 145.237 155.484 145.237ZM160.606 146V138.909H161.32C161.455 138.909 161.549 138.935 161.6 138.986C161.651 139.037 161.686 139.126 161.705 139.252L161.789 140.358C162.032 139.863 162.33 139.478 162.685 139.203C163.044 138.923 163.464 138.783 163.945 138.783C164.141 138.783 164.318 138.806 164.477 138.853C164.636 138.895 164.783 138.956 164.918 139.035L164.757 139.966C164.724 140.083 164.652 140.141 164.54 140.141C164.475 140.141 164.374 140.12 164.239 140.078C164.104 140.031 163.915 140.008 163.672 140.008C163.238 140.008 162.874 140.134 162.58 140.386C162.291 140.638 162.048 141.004 161.852 141.485V146H160.606ZM168.331 148.093C168.289 148.186 168.236 148.261 168.17 148.317C168.11 148.373 168.014 148.401 167.883 148.401H166.959L168.254 145.587L165.328 138.909H166.406C166.514 138.909 166.598 138.937 166.658 138.993C166.719 139.044 166.763 139.103 166.791 139.168L168.688 143.634C168.73 143.737 168.765 143.839 168.793 143.942C168.826 144.045 168.854 144.15 168.877 144.257C168.91 144.15 168.943 144.045 168.975 143.942C169.008 143.839 169.045 143.734 169.087 143.627L170.928 139.168C170.956 139.093 171.003 139.033 171.068 138.986C171.138 138.935 171.213 138.909 171.292 138.909H172.286L168.331 148.093Z" fill="#6A6A6A"/>
<rect x="59" y="63" width="38" height="38" rx="19" fill="#0064D1" stroke="#0064D1"/>
<path d="M74.6554 85.912H77.1194V78.096C77.1194 77.8613 77.1274 77.624 77.1434 77.384L75.0954 79.136C75.042 79.1787 74.9887 79.2107 74.9354 79.232C74.882 79.248 74.8314 79.256 74.7834 79.256C74.7034 79.256 74.6314 79.24 74.5674 79.208C74.5034 79.1707 74.4554 79.128 74.4234 79.08L73.9754 78.464L77.3834 75.512H78.5434V85.912H80.7994V87H74.6554V85.912Z" fill="white"/>
<path d="M67.456 115.536V116.8H61.952V120.808H66.656V122.072H61.952V127H60.392V115.536H67.456ZM70.8145 118.896V127H69.3905V118.896H70.8145ZM71.1345 116.352C71.1345 116.491 71.1052 116.621 71.0465 116.744C70.9932 116.861 70.9185 116.968 70.8225 117.064C70.7318 117.155 70.6252 117.227 70.5025 117.28C70.3798 117.333 70.2492 117.36 70.1105 117.36C69.9718 117.36 69.8412 117.333 69.7185 117.28C69.6012 117.227 69.4945 117.155 69.3985 117.064C69.3078 116.968 69.2358 116.861 69.1825 116.744C69.1292 116.621 69.1025 116.491 69.1025 116.352C69.1025 116.213 69.1292 116.083 69.1825 115.96C69.2358 115.832 69.3078 115.723 69.3985 115.632C69.4945 115.536 69.6012 115.461 69.7185 115.408C69.8412 115.355 69.9718 115.328 70.1105 115.328C70.2492 115.328 70.3798 115.355 70.5025 115.408C70.6252 115.461 70.7318 115.536 70.8225 115.632C70.9185 115.723 70.9932 115.832 71.0465 115.96C71.1052 116.083 71.1345 116.213 71.1345 116.352ZM73.3243 127V118.896H74.1403C74.2949 118.896 74.4016 118.925 74.4603 118.984C74.5189 119.043 74.5589 119.144 74.5803 119.288L74.6763 120.552C74.9536 119.987 75.2949 119.547 75.7003 119.232C76.1109 118.912 76.5909 118.752 77.1403 118.752C77.3643 118.752 77.5669 118.779 77.7483 118.832C77.9296 118.88 78.0976 118.949 78.2523 119.04L78.0683 120.104C78.0309 120.237 77.9483 120.304 77.8203 120.304C77.7456 120.304 77.6309 120.28 77.4763 120.232C77.3216 120.179 77.1056 120.152 76.8283 120.152C76.3323 120.152 75.9163 120.296 75.5803 120.584C75.2496 120.872 74.9723 121.291 74.7483 121.84V127H73.3243ZM84.4174 120.232C84.3534 120.349 84.2547 120.408 84.1214 120.408C84.0414 120.408 83.9507 120.379 83.8494 120.32C83.748 120.261 83.6227 120.197 83.4734 120.128C83.3294 120.053 83.156 119.987 82.9534 119.928C82.7507 119.864 82.5107 119.832 82.2334 119.832C81.9934 119.832 81.7774 119.864 81.5854 119.928C81.3934 119.987 81.228 120.069 81.0894 120.176C80.956 120.283 80.852 120.408 80.7774 120.552C80.708 120.691 80.6734 120.843 80.6734 121.008C80.6734 121.216 80.732 121.389 80.8494 121.528C80.972 121.667 81.132 121.787 81.3294 121.888C81.5267 121.989 81.7507 122.08 82.0014 122.16C82.252 122.235 82.508 122.317 82.7694 122.408C83.036 122.493 83.2947 122.589 83.5454 122.696C83.796 122.803 84.02 122.936 84.2174 123.096C84.4147 123.256 84.572 123.453 84.6894 123.688C84.812 123.917 84.8734 124.195 84.8734 124.52C84.8734 124.893 84.8067 125.24 84.6734 125.56C84.54 125.875 84.3427 126.149 84.0814 126.384C83.82 126.613 83.5 126.795 83.1214 126.928C82.7427 127.061 82.3054 127.128 81.8094 127.128C81.244 127.128 80.732 127.037 80.2734 126.856C79.8147 126.669 79.4254 126.432 79.1054 126.144L79.4414 125.6C79.484 125.531 79.5347 125.477 79.5934 125.44C79.652 125.403 79.7294 125.384 79.8254 125.384C79.9214 125.384 80.0227 125.421 80.1294 125.496C80.236 125.571 80.364 125.653 80.5134 125.744C80.668 125.835 80.852 125.917 81.0654 125.992C81.284 126.067 81.556 126.104 81.8814 126.104C82.1587 126.104 82.4014 126.069 82.6094 126C82.8174 125.925 82.9907 125.827 83.1294 125.704C83.268 125.581 83.3694 125.44 83.4334 125.28C83.5027 125.12 83.5374 124.949 83.5374 124.768C83.5374 124.544 83.476 124.36 83.3534 124.216C83.236 124.067 83.0787 123.941 82.8814 123.84C82.684 123.733 82.4574 123.643 82.2014 123.568C81.9507 123.488 81.692 123.405 81.4254 123.32C81.164 123.235 80.9054 123.139 80.6494 123.032C80.3987 122.92 80.1747 122.781 79.9774 122.616C79.78 122.451 79.62 122.248 79.4974 122.008C79.38 121.763 79.3214 121.467 79.3214 121.12C79.3214 120.811 79.3854 120.515 79.5134 120.232C79.6414 119.944 79.828 119.693 80.0734 119.48C80.3187 119.261 80.62 119.088 80.9774 118.96C81.3347 118.832 81.7427 118.768 82.2014 118.768C82.7347 118.768 83.212 118.853 83.6334 119.024C84.06 119.189 84.428 119.419 84.7374 119.712L84.4174 120.232ZM89.1709 127.128C88.5309 127.128 88.0375 126.949 87.6909 126.592C87.3495 126.235 87.1789 125.72 87.1789 125.048V120.088H86.2029C86.1175 120.088 86.0455 120.064 85.9869 120.016C85.9282 119.963 85.8989 119.883 85.8989 119.776V119.208L87.2269 119.04L87.5549 116.536C87.5655 116.456 87.6002 116.392 87.6589 116.344C87.7175 116.291 87.7922 116.264 87.8829 116.264H88.6029V119.056H90.9229V120.088H88.6029V124.952C88.6029 125.293 88.6855 125.547 88.8509 125.712C89.0162 125.877 89.2295 125.96 89.4909 125.96C89.6402 125.96 89.7682 125.941 89.8749 125.904C89.9869 125.861 90.0829 125.816 90.1629 125.768C90.2429 125.72 90.3095 125.677 90.3629 125.64C90.4215 125.597 90.4722 125.576 90.5149 125.576C90.5895 125.576 90.6562 125.621 90.7149 125.712L91.1309 126.392C90.8855 126.621 90.5895 126.803 90.2429 126.936C89.8962 127.064 89.5389 127.128 89.1709 127.128ZM101.873 117.328C101.825 117.408 101.775 117.469 101.721 117.512C101.668 117.549 101.599 117.568 101.513 117.568C101.423 117.568 101.316 117.523 101.193 117.432C101.076 117.341 100.924 117.243 100.737 117.136C100.556 117.024 100.335 116.923 100.073 116.832C99.8174 116.741 99.5054 116.696 99.1374 116.696C98.7907 116.696 98.484 116.744 98.2174 116.84C97.9507 116.931 97.7267 117.056 97.5454 117.216C97.3694 117.376 97.236 117.565 97.1454 117.784C97.0547 117.997 97.0094 118.229 97.0094 118.48C97.0094 118.8 97.0867 119.067 97.2414 119.28C97.4014 119.488 97.6094 119.667 97.8654 119.816C98.1267 119.965 98.42 120.096 98.7454 120.208C99.076 120.315 99.412 120.427 99.7534 120.544C100.1 120.661 100.436 120.795 100.761 120.944C101.092 121.088 101.385 121.272 101.641 121.496C101.903 121.72 102.111 121.995 102.265 122.32C102.425 122.645 102.505 123.045 102.505 123.52C102.505 124.021 102.42 124.493 102.249 124.936C102.079 125.373 101.828 125.755 101.497 126.08C101.172 126.405 100.769 126.661 100.289 126.848C99.8147 127.035 99.2734 127.128 98.6654 127.128C97.924 127.128 97.2467 126.995 96.6334 126.728C96.0254 126.456 95.5054 126.091 95.0734 125.632L95.5214 124.896C95.564 124.837 95.6147 124.789 95.6734 124.752C95.7374 124.709 95.8067 124.688 95.8814 124.688C95.9934 124.688 96.1214 124.749 96.2654 124.872C96.4094 124.989 96.588 125.12 96.8014 125.264C97.02 125.408 97.2814 125.541 97.5854 125.664C97.8947 125.781 98.2707 125.84 98.7134 125.84C99.0814 125.84 99.4094 125.789 99.6974 125.688C99.9854 125.587 100.228 125.445 100.425 125.264C100.628 125.077 100.783 124.856 100.889 124.6C100.996 124.344 101.049 124.059 101.049 123.744C101.049 123.397 100.969 123.115 100.809 122.896C100.655 122.672 100.449 122.485 100.193 122.336C99.9374 122.187 99.644 122.061 99.3134 121.96C98.988 121.853 98.652 121.747 98.3054 121.64C97.964 121.528 97.628 121.4 97.2974 121.256C96.972 121.112 96.6814 120.925 96.4254 120.696C96.1694 120.467 95.9614 120.181 95.8014 119.84C95.6467 119.493 95.5694 119.067 95.5694 118.56C95.5694 118.155 95.6467 117.763 95.8014 117.384C95.9614 117.005 96.1907 116.669 96.4894 116.376C96.788 116.083 97.156 115.848 97.5934 115.672C98.036 115.496 98.5427 115.408 99.1134 115.408C99.7534 115.408 100.337 115.509 100.865 115.712C101.393 115.915 101.855 116.208 102.249 116.592L101.873 117.328ZM106.718 127.128C106.078 127.128 105.584 126.949 105.238 126.592C104.896 126.235 104.726 125.72 104.726 125.048V120.088H103.75C103.664 120.088 103.592 120.064 103.534 120.016C103.475 119.963 103.446 119.883 103.446 119.776V119.208L104.774 119.04L105.102 116.536C105.112 116.456 105.147 116.392 105.206 116.344C105.264 116.291 105.339 116.264 105.43 116.264H106.15V119.056H108.47V120.088H106.15V124.952C106.15 125.293 106.232 125.547 106.398 125.712C106.563 125.877 106.776 125.96 107.038 125.96C107.187 125.96 107.315 125.941 107.422 125.904C107.534 125.861 107.63 125.816 107.71 125.768C107.79 125.72 107.856 125.677 107.91 125.64C107.968 125.597 108.019 125.576 108.062 125.576C108.136 125.576 108.203 125.621 108.262 125.712L108.678 126.392C108.432 126.621 108.136 126.803 107.79 126.936C107.443 127.064 107.086 127.128 106.718 127.128ZM113.439 118.768C113.924 118.768 114.372 118.851 114.783 119.016C115.193 119.176 115.548 119.411 115.847 119.72C116.145 120.024 116.377 120.403 116.543 120.856C116.713 121.304 116.799 121.816 116.799 122.392C116.799 122.616 116.775 122.765 116.727 122.84C116.679 122.915 116.588 122.952 116.455 122.952H111.062C111.073 123.464 111.143 123.909 111.271 124.288C111.399 124.667 111.575 124.984 111.799 125.24C112.023 125.491 112.289 125.68 112.599 125.808C112.908 125.931 113.255 125.992 113.639 125.992C113.996 125.992 114.303 125.952 114.559 125.872C114.82 125.787 115.044 125.696 115.231 125.6C115.417 125.504 115.572 125.416 115.695 125.336C115.823 125.251 115.932 125.208 116.023 125.208C116.14 125.208 116.231 125.253 116.295 125.344L116.695 125.864C116.519 126.077 116.308 126.264 116.063 126.424C115.817 126.579 115.553 126.707 115.271 126.808C114.993 126.909 114.705 126.984 114.407 127.032C114.108 127.085 113.812 127.112 113.519 127.112C112.959 127.112 112.441 127.019 111.967 126.832C111.497 126.64 111.089 126.363 110.743 126C110.401 125.632 110.135 125.179 109.943 124.64C109.751 124.101 109.655 123.483 109.655 122.784C109.655 122.219 109.74 121.691 109.911 121.2C110.087 120.709 110.337 120.285 110.663 119.928C110.988 119.565 111.385 119.283 111.855 119.08C112.324 118.872 112.852 118.768 113.439 118.768ZM113.47 119.816C112.783 119.816 112.241 120.016 111.847 120.416C111.452 120.811 111.207 121.36 111.111 122.064H115.519C115.519 121.733 115.473 121.432 115.383 121.16C115.292 120.883 115.159 120.645 114.983 120.448C114.807 120.245 114.591 120.091 114.335 119.984C114.084 119.872 113.796 119.816 113.47 119.816ZM118.621 129.744V118.896H119.469C119.672 118.896 119.8 118.995 119.853 119.192L119.973 120.152C120.32 119.731 120.714 119.392 121.157 119.136C121.605 118.88 122.12 118.752 122.701 118.752C123.165 118.752 123.586 118.843 123.965 119.024C124.344 119.2 124.666 119.464 124.933 119.816C125.2 120.163 125.405 120.595 125.549 121.112C125.693 121.629 125.765 122.224 125.765 122.896C125.765 123.493 125.685 124.051 125.525 124.568C125.365 125.08 125.136 125.525 124.837 125.904C124.538 126.277 124.17 126.573 123.733 126.792C123.301 127.005 122.813 127.112 122.269 127.112C121.768 127.112 121.338 127.029 120.981 126.864C120.629 126.699 120.317 126.464 120.045 126.16V129.744H118.621ZM122.229 119.904C121.765 119.904 121.357 120.011 121.005 120.224C120.658 120.437 120.338 120.739 120.045 121.128V125.048C120.306 125.4 120.592 125.648 120.901 125.792C121.216 125.936 121.565 126.008 121.949 126.008C122.701 126.008 123.28 125.739 123.685 125.2C124.09 124.661 124.293 123.893 124.293 122.896C124.293 122.368 124.245 121.915 124.149 121.536C124.058 121.157 123.925 120.848 123.749 120.608C123.573 120.363 123.357 120.184 123.101 120.072C122.845 119.96 122.554 119.904 122.229 119.904ZM132.999 127.128C132.359 127.128 131.866 126.949 131.519 126.592C131.178 126.235 131.007 125.72 131.007 125.048V120.088H130.031C129.946 120.088 129.874 120.064 129.815 120.016C129.756 119.963 129.727 119.883 129.727 119.776V119.208L131.055 119.04L131.383 116.536C131.394 116.456 131.428 116.392 131.487 116.344C131.546 116.291 131.62 116.264 131.711 116.264H132.431V119.056H134.751V120.088H132.431V124.952C132.431 125.293 132.514 125.547 132.679 125.712C132.844 125.877 133.058 125.96 133.319 125.96C133.468 125.96 133.596 125.941 133.703 125.904C133.815 125.861 133.911 125.816 133.991 125.768C134.071 125.72 134.138 125.677 134.191 125.64C134.25 125.597 134.3 125.576 134.343 125.576C134.418 125.576 134.484 125.621 134.543 125.712L134.959 126.392C134.714 126.621 134.418 126.803 134.071 126.936C133.724 127.064 133.367 127.128 132.999 127.128ZM138.096 118.896V127H136.672V118.896H138.096ZM138.416 116.352C138.416 116.491 138.386 116.621 138.328 116.744C138.274 116.861 138.2 116.968 138.104 117.064C138.013 117.155 137.906 117.227 137.784 117.28C137.661 117.333 137.53 117.36 137.392 117.36C137.253 117.36 137.122 117.333 137 117.28C136.882 117.227 136.776 117.155 136.68 117.064C136.589 116.968 136.517 116.861 136.464 116.744C136.41 116.621 136.384 116.491 136.384 116.352C136.384 116.213 136.41 116.083 136.464 115.96C136.517 115.832 136.589 115.723 136.68 115.632C136.776 115.536 136.882 115.461 137 115.408C137.122 115.355 137.253 115.328 137.392 115.328C137.53 115.328 137.661 115.355 137.784 115.408C137.906 115.461 138.013 115.536 138.104 115.632C138.2 115.723 138.274 115.832 138.328 115.96C138.386 116.083 138.416 116.213 138.416 116.352ZM143.062 127.128C142.422 127.128 141.928 126.949 141.582 126.592C141.24 126.235 141.07 125.72 141.07 125.048V120.088H140.094C140.008 120.088 139.936 120.064 139.878 120.016C139.819 119.963 139.79 119.883 139.79 119.776V119.208L141.118 119.04L141.446 116.536C141.456 116.456 141.491 116.392 141.549 116.344C141.608 116.291 141.683 116.264 141.774 116.264H142.494V119.056H144.814V120.088H142.494V124.952C142.494 125.293 142.576 125.547 142.742 125.712C142.907 125.877 143.12 125.96 143.382 125.96C143.531 125.96 143.659 125.941 143.766 125.904C143.878 125.861 143.974 125.816 144.054 125.768C144.134 125.72 144.2 125.677 144.254 125.64C144.312 125.597 144.363 125.576 144.406 125.576C144.48 125.576 144.547 125.621 144.606 125.712L145.022 126.392C144.776 126.621 144.48 126.803 144.134 126.936C143.787 127.064 143.43 127.128 143.062 127.128ZM148.158 115.216V127H146.734V115.216H148.158ZM153.876 118.768C154.361 118.768 154.809 118.851 155.22 119.016C155.631 119.176 155.985 119.411 156.284 119.72C156.583 120.024 156.815 120.403 156.98 120.856C157.151 121.304 157.236 121.816 157.236 122.392C157.236 122.616 157.212 122.765 157.164 122.84C157.116 122.915 157.025 122.952 156.892 122.952H151.5C151.511 123.464 151.58 123.909 151.708 124.288C151.836 124.667 152.012 124.984 152.236 125.24C152.46 125.491 152.727 125.68 153.036 125.808C153.345 125.931 153.692 125.992 154.076 125.992C154.433 125.992 154.74 125.952 154.996 125.872C155.257 125.787 155.481 125.696 155.668 125.6C155.855 125.504 156.009 125.416 156.132 125.336C156.26 125.251 156.369 125.208 156.46 125.208C156.577 125.208 156.668 125.253 156.732 125.344L157.132 125.864C156.956 126.077 156.745 126.264 156.5 126.424C156.255 126.579 155.991 126.707 155.708 126.808C155.431 126.909 155.143 126.984 154.844 127.032C154.545 127.085 154.249 127.112 153.956 127.112C153.396 127.112 152.879 127.019 152.404 126.832C151.935 126.64 151.527 126.363 151.18 126C150.839 125.632 150.572 125.179 150.38 124.64C150.188 124.101 150.092 123.483 150.092 122.784C150.092 122.219 150.177 121.691 150.348 121.2C150.524 120.709 150.775 120.285 151.1 119.928C151.425 119.565 151.823 119.283 152.292 119.08C152.761 118.872 153.289 118.768 153.876 118.768ZM153.908 119.816C153.22 119.816 152.679 120.016 152.284 120.416C151.889 120.811 151.644 121.36 151.548 122.064H155.956C155.956 121.733 155.911 121.432 155.82 121.16C155.729 120.883 155.596 120.645 155.42 120.448C155.244 120.245 155.028 120.091 154.772 119.984C154.521 119.872 154.233 119.816 153.908 119.816Z" fill="black"/>
<line x1="16" y1="120.5" x2="46" y2="120.5" stroke="#FF7A00"/>
<circle cx="16" cy="120" r="16" fill="#FF7A00"/>
<path d="M15.816 114.304C16.3493 114.304 16.8373 114.384 17.28 114.544C17.7227 114.699 18.1013 114.92 18.416 115.208C18.7307 115.496 18.976 115.843 19.152 116.248C19.328 116.653 19.416 117.104 19.416 117.6C19.416 118.027 19.352 118.421 19.224 118.784C19.1013 119.147 18.9333 119.493 18.72 119.824C18.512 120.155 18.2667 120.475 17.984 120.784C17.7013 121.093 17.4053 121.408 17.096 121.728L14.488 124.392C14.744 124.317 14.9947 124.261 15.24 124.224C15.4853 124.181 15.72 124.16 15.944 124.16H18.912C19.1253 124.16 19.2933 124.221 19.416 124.344C19.544 124.461 19.608 124.619 19.608 124.816V126H11.672V125.344C11.672 125.211 11.6987 125.072 11.752 124.928C11.8107 124.784 11.9013 124.651 12.024 124.528L15.536 121.008C15.8293 120.709 16.0907 120.424 16.32 120.152C16.5547 119.88 16.7493 119.611 16.904 119.344C17.064 119.077 17.184 118.808 17.264 118.536C17.3493 118.259 17.392 117.968 17.392 117.664C17.392 117.387 17.352 117.144 17.272 116.936C17.192 116.723 17.0773 116.544 16.928 116.4C16.7787 116.256 16.6 116.149 16.392 116.08C16.1893 116.005 15.96 115.968 15.704 115.968C15.2293 115.968 14.8373 116.088 14.528 116.328C14.224 116.568 14.0107 116.891 13.888 117.296C13.8293 117.499 13.7413 117.645 13.624 117.736C13.5067 117.821 13.3573 117.864 13.176 117.864C13.096 117.864 13.008 117.856 12.912 117.84L11.872 117.656C11.952 117.101 12.1067 116.616 12.336 116.2C12.5653 115.779 12.8507 115.429 13.192 115.152C13.5387 114.869 13.9333 114.659 14.376 114.52C14.824 114.376 15.304 114.304 15.816 114.304Z" fill="white"/>
<circle r="2.5" transform="matrix(1 0 0 -1 46.5 120.5)" fill="#FF7A00"/>
<line x1="186" y1="141.5" x2="216" y2="141.5" stroke="#FF7A00"/>
<circle cx="215" cy="141" r="16" fill="#FF7A00"/>
<path d="M215 135.304C215.533 135.304 216.013 135.381 216.44 135.536C216.872 135.685 217.24 135.896 217.544 136.168C217.848 136.435 218.08 136.749 218.24 137.112C218.405 137.475 218.488 137.867 218.488 138.288C218.488 138.656 218.445 138.981 218.36 139.264C218.28 139.541 218.16 139.784 218 139.992C217.845 140.2 217.653 140.376 217.424 140.52C217.2 140.664 216.944 140.784 216.656 140.88C217.349 141.099 217.867 141.432 218.208 141.88C218.549 142.328 218.72 142.891 218.72 143.568C218.72 144.144 218.613 144.653 218.4 145.096C218.187 145.539 217.899 145.912 217.536 146.216C217.173 146.515 216.752 146.741 216.272 146.896C215.797 147.051 215.293 147.128 214.76 147.128C214.179 147.128 213.672 147.061 213.24 146.928C212.808 146.795 212.432 146.597 212.112 146.336C211.792 146.075 211.52 145.755 211.296 145.376C211.072 144.997 210.88 144.56 210.72 144.064L211.592 143.704C211.741 143.64 211.893 143.608 212.048 143.608C212.187 143.608 212.309 143.637 212.416 143.696C212.528 143.755 212.613 143.84 212.672 143.952C212.768 144.139 212.872 144.323 212.984 144.504C213.101 144.685 213.24 144.848 213.4 144.992C213.56 145.131 213.747 145.245 213.96 145.336C214.179 145.421 214.437 145.464 214.736 145.464C215.072 145.464 215.365 145.411 215.616 145.304C215.867 145.192 216.075 145.048 216.24 144.872C216.411 144.696 216.536 144.501 216.616 144.288C216.701 144.069 216.744 143.851 216.744 143.632C216.744 143.355 216.715 143.104 216.656 142.88C216.597 142.651 216.475 142.456 216.288 142.296C216.101 142.136 215.832 142.011 215.48 141.92C215.133 141.829 214.667 141.784 214.08 141.784V140.376C214.565 140.371 214.968 140.325 215.288 140.24C215.608 140.155 215.861 140.037 216.048 139.888C216.24 139.733 216.373 139.549 216.448 139.336C216.523 139.123 216.56 138.888 216.56 138.632C216.56 138.083 216.411 137.669 216.112 137.392C215.813 137.109 215.405 136.968 214.888 136.968C214.419 136.968 214.029 137.093 213.72 137.344C213.411 137.589 213.195 137.907 213.072 138.296C213.008 138.499 212.92 138.645 212.808 138.736C212.696 138.821 212.549 138.864 212.368 138.864C212.283 138.864 212.192 138.856 212.096 138.84L211.056 138.656C211.136 138.101 211.291 137.616 211.52 137.2C211.749 136.779 212.035 136.429 212.376 136.152C212.723 135.869 213.117 135.659 213.56 135.52C214.008 135.376 214.488 135.304 215 135.304Z" fill="white"/>
<circle r="2.5" transform="matrix(1 0 0 -1 185.5 141.5)" fill="#FF7A00"/>
<line x1="274.5" y1="74" x2="274.5" y2="44" stroke="#FF7A00"/>
<circle cx="275" cy="35" r="16" fill="#FF7A00"/>
<path d="M277.536 36.64H278.992V37.784C278.992 37.8907 278.957 37.984 278.888 38.064C278.819 38.1387 278.717 38.176 278.584 38.176H277.536V41H275.808V38.176H270.928C270.795 38.176 270.677 38.136 270.576 38.056C270.475 37.9707 270.411 37.8667 270.384 37.744L270.184 36.744L275.664 29.424H277.536V36.64ZM275.808 32.856C275.808 32.6853 275.813 32.5013 275.824 32.304C275.835 32.1067 275.853 31.9013 275.88 31.688L272.288 36.64H275.808V32.856Z" fill="white"/>
<circle r="2.5" transform="matrix(1 0 0 -1 274.5 72.5)" fill="#FF7A00"/>
<line x1="76.5" y1="53" x2="76.5" y2="24" stroke="#FF7A00"/>
<circle cx="77" cy="16" r="16" fill="#FF7A00"/>
<path d="M74.152 20.52H76.496V13.776C76.496 13.5147 76.504 13.24 76.52 12.952L74.856 14.344C74.7867 14.4027 74.7147 14.4427 74.64 14.464C74.5707 14.4853 74.5013 14.496 74.432 14.496C74.3253 14.496 74.2267 14.4747 74.136 14.432C74.0507 14.384 73.9867 14.3307 73.944 14.272L73.32 13.416L76.848 10.416H78.472V20.52H80.552V22H74.152V20.52Z" fill="white"/>
<circle r="2.5" transform="matrix(1 0 0 -1 76.5 52.5)" fill="#FF7A00"/>
</svg>
