<svg width="800" height="530" viewBox="0 0 800 530" fill="none" xmlns="http://www.w3.org/2000/svg">
<path d="M0 530H800V0H0V530Z" fill="#5F5F5F"/>
<path d="M0 20H800V0H0V20Z" fill="#DFDFDF"/>
<path d="M0 50H800V20H0V50Z" fill="#171717"/>
<rect x="485" y="50" width="315" height="480" fill="white"/>
<rect x="485" y="463" width="315" height="1" fill="#D1D1D1"/>
<rect x="670" y="477" width="106" height="38" rx="19" fill="#0064D1"/>
<rect x="685" y="489" width="79" height="15" fill="white" fill-opacity="0.09"/>
<rect x="584" y="489" width="60" height="15" fill="#0064D1" fill-opacity="0.07"/>
<rect x="716" y="489" width="60" height="15" fill="#0064D1" fill-opacity="0.07"/>
<line x1="557.213" y1="95.0984" x2="615.771" y2="95.0984" stroke="#E3E3E3" stroke-width="4"/>
<line x1="661.229" y1="95.0984" x2="719.787" y2="95.0984" stroke="#E3E3E3" stroke-width="4"/>
<circle cx="534.484" cy="97.4836" r="13.4836" fill="#2656C9"/>
<circle cx="638.5" cy="97.4836" r="13.4836" fill="#2656C9"/>
<circle cx="742.516" cy="97.4836" r="13.4836" fill="#DFDFDF"/>
</svg>
