<svg width="747" height="87" viewBox="0 0 747 87" fill="none" xmlns="http://www.w3.org/2000/svg">
<line x1="399" y1="19.5" x2="700" y2="19.5" stroke="#E3E3E3"/>
<line x1="47" y1="19.5" x2="345" y2="19.5" stroke="#0064D1"/>
<path d="M11.535 78.988C11.535 79.7393 11.416 80.43 11.178 81.06C10.94 81.6853 10.604 82.2243 10.17 82.677C9.736 83.1297 9.21333 83.482 8.602 83.734C7.99533 83.9813 7.32333 84.105 6.586 84.105C5.84867 84.105 5.17667 83.9813 4.57 83.734C3.96333 83.482 3.443 83.1297 3.009 82.677C2.575 82.2243 2.239 81.6853 2.001 81.06C1.763 80.43 1.644 79.7393 1.644 78.988C1.644 78.2367 1.763 77.5483 2.001 76.923C2.239 76.293 2.575 75.7517 3.009 75.299C3.443 74.8417 3.96333 74.487 4.57 74.235C5.17667 73.983 5.84867 73.857 6.586 73.857C7.32333 73.857 7.99533 73.983 8.602 74.235C9.21333 74.487 9.736 74.8417 10.17 75.299C10.604 75.7517 10.94 76.293 11.178 76.923C11.416 77.5483 11.535 78.2367 11.535 78.988ZM10.142 78.988C10.142 78.372 10.058 77.819 9.89 77.329C9.722 76.839 9.484 76.426 9.176 76.09C8.868 75.7493 8.49467 75.488 8.056 75.306C7.61733 75.124 7.12733 75.033 6.586 75.033C6.04933 75.033 5.56167 75.124 5.123 75.306C4.68433 75.488 4.30867 75.7493 3.996 76.09C3.688 76.426 3.45 76.839 3.282 77.329C3.114 77.819 3.03 78.372 3.03 78.988C3.03 79.604 3.114 80.157 3.282 80.647C3.45 81.1323 3.688 81.5453 3.996 81.886C4.30867 82.222 4.68433 82.481 5.123 82.663C5.56167 82.8403 6.04933 82.929 6.586 82.929C7.12733 82.929 7.61733 82.8403 8.056 82.663C8.49467 82.481 8.868 82.222 9.176 81.886C9.484 81.5453 9.722 81.1323 9.89 80.647C10.058 80.157 10.142 79.604 10.142 78.988ZM13.1919 86.401V76.909H13.9339C14.1113 76.909 14.2233 76.9953 14.2699 77.168L14.3749 78.008C14.6783 77.6393 15.0236 77.343 15.4109 77.119C15.8029 76.895 16.2533 76.783 16.7619 76.783C17.1679 76.783 17.5366 76.8623 17.8679 77.021C18.1993 77.175 18.4816 77.406 18.7149 77.714C18.9483 78.0173 19.1279 78.3953 19.2539 78.848C19.3799 79.3007 19.4429 79.821 19.4429 80.409C19.4429 80.9317 19.3729 81.4193 19.2329 81.872C19.0929 82.32 18.8923 82.7097 18.6309 83.041C18.3696 83.3677 18.0476 83.6267 17.6649 83.818C17.2869 84.0047 16.8599 84.098 16.3839 84.098C15.9453 84.098 15.5696 84.0257 15.2569 83.881C14.9489 83.7363 14.6759 83.531 14.4379 83.265V86.401H13.1919ZM16.3489 77.791C15.9429 77.791 15.5859 77.8843 15.2779 78.071C14.9746 78.2577 14.6946 78.5213 14.4379 78.862V82.292C14.6666 82.6 14.9163 82.817 15.1869 82.943C15.4623 83.069 15.7679 83.132 16.1039 83.132C16.7619 83.132 17.2683 82.8963 17.6229 82.425C17.9776 81.9537 18.1549 81.2817 18.1549 80.409C18.1549 79.947 18.1129 79.5503 18.0289 79.219C17.9496 78.8877 17.8329 78.617 17.6789 78.407C17.5249 78.1923 17.3359 78.036 17.1119 77.938C16.8879 77.84 16.6336 77.791 16.3489 77.791ZM23.0655 84.112C22.5055 84.112 22.0739 83.9557 21.7705 83.643C21.4719 83.3303 21.3225 82.88 21.3225 82.292V77.952H20.4685C20.3939 77.952 20.3309 77.931 20.2795 77.889C20.2282 77.8423 20.2025 77.7723 20.2025 77.679V77.182L21.3645 77.035L21.6515 74.844C21.6609 74.774 21.6912 74.718 21.7425 74.676C21.7939 74.6293 21.8592 74.606 21.9385 74.606H22.5685V77.049H24.5985V77.952H22.5685V82.208C22.5685 82.5067 22.6409 82.7283 22.7855 82.873C22.9302 83.0177 23.1169 83.09 23.3455 83.09C23.4762 83.09 23.5882 83.0737 23.6815 83.041C23.7795 83.0037 23.8635 82.964 23.9335 82.922C24.0035 82.88 24.0619 82.8427 24.1085 82.81C24.1599 82.7727 24.2042 82.754 24.2415 82.754C24.3069 82.754 24.3652 82.7937 24.4165 82.873L24.7805 83.468C24.5659 83.6687 24.3069 83.8273 24.0035 83.944C23.7002 84.056 23.3875 84.112 23.0655 84.112ZM27.5252 76.909V84H26.2792V76.909H27.5252ZM27.8052 74.683C27.8052 74.8043 27.7795 74.9187 27.7282 75.026C27.6815 75.1287 27.6162 75.222 27.5322 75.306C27.4529 75.3853 27.3595 75.4483 27.2522 75.495C27.1449 75.5417 27.0305 75.565 26.9092 75.565C26.7879 75.565 26.6735 75.5417 26.5662 75.495C26.4635 75.4483 26.3702 75.3853 26.2862 75.306C26.2069 75.222 26.1439 75.1287 26.0972 75.026C26.0505 74.9187 26.0272 74.8043 26.0272 74.683C26.0272 74.5617 26.0505 74.4473 26.0972 74.34C26.1439 74.228 26.2069 74.1323 26.2862 74.053C26.3702 73.969 26.4635 73.9037 26.5662 73.857C26.6735 73.8103 26.7879 73.787 26.9092 73.787C27.0305 73.787 27.1449 73.8103 27.2522 73.857C27.3595 73.9037 27.4529 73.969 27.5322 74.053C27.6162 74.1323 27.6815 74.228 27.7282 74.34C27.7795 74.4473 27.8052 74.5617 27.8052 74.683ZM32.5912 76.797C33.1092 76.797 33.5759 76.8833 33.9912 77.056C34.4112 77.2287 34.7659 77.4737 35.0552 77.791C35.3492 78.1083 35.5732 78.4933 35.7272 78.946C35.8859 79.394 35.9652 79.8957 35.9652 80.451C35.9652 81.011 35.8859 81.515 35.7272 81.963C35.5732 82.411 35.3492 82.7937 35.0552 83.111C34.7659 83.4283 34.4112 83.6733 33.9912 83.846C33.5759 84.014 33.1092 84.098 32.5912 84.098C32.0732 84.098 31.6042 84.014 31.1842 83.846C30.7689 83.6733 30.4142 83.4283 30.1202 83.111C29.8262 82.7937 29.5999 82.411 29.4412 81.963C29.2826 81.515 29.2032 81.011 29.2032 80.451C29.2032 79.8957 29.2826 79.394 29.4412 78.946C29.5999 78.4933 29.8262 78.1083 30.1202 77.791C30.4142 77.4737 30.7689 77.2287 31.1842 77.056C31.6042 76.8833 32.0732 76.797 32.5912 76.797ZM32.5912 83.125C33.2912 83.125 33.8139 82.8917 34.1592 82.425C34.5046 81.9537 34.6772 81.298 34.6772 80.458C34.6772 79.6133 34.5046 78.9553 34.1592 78.484C33.8139 78.0127 33.2912 77.777 32.5912 77.777C32.2366 77.777 31.9286 77.8377 31.6672 77.959C31.4059 78.0803 31.1866 78.2553 31.0092 78.484C30.8366 78.7127 30.7059 78.995 30.6172 79.331C30.5332 79.6623 30.4912 80.038 30.4912 80.458C30.4912 80.878 30.5332 81.2537 30.6172 81.585C30.7059 81.9163 30.8366 82.1963 31.0092 82.425C31.1866 82.649 31.4059 82.8217 31.6672 82.943C31.9286 83.0643 32.2366 83.125 32.5912 83.125ZM37.5005 84V76.909H38.2425C38.4198 76.909 38.5318 76.9953 38.5785 77.168L38.6765 77.938C38.9845 77.5973 39.3275 77.322 39.7055 77.112C40.0882 76.902 40.5292 76.797 41.0285 76.797C41.4158 76.797 41.7565 76.8623 42.0505 76.993C42.3492 77.119 42.5965 77.301 42.7925 77.539C42.9932 77.7723 43.1448 78.0547 43.2475 78.386C43.3502 78.7173 43.4015 79.0837 43.4015 79.485V84H42.1555V79.485C42.1555 78.9483 42.0318 78.533 41.7845 78.239C41.5418 77.9403 41.1685 77.791 40.6645 77.791C40.2958 77.791 39.9505 77.8797 39.6285 78.057C39.3112 78.2343 39.0172 78.4747 38.7465 78.778V84H37.5005ZM50.4878 84H49.9348C49.8135 84 49.7155 83.9813 49.6408 83.944C49.5661 83.9067 49.5171 83.8273 49.4938 83.706L49.3538 83.048C49.1671 83.216 48.9851 83.3677 48.8078 83.503C48.6305 83.6337 48.4438 83.7457 48.2478 83.839C48.0518 83.9277 47.8418 83.9953 47.6178 84.042C47.3985 84.0887 47.1535 84.112 46.8828 84.112C46.6075 84.112 46.3485 84.0747 46.1058 84C45.8678 83.9207 45.6601 83.804 45.4828 83.65C45.3055 83.496 45.1631 83.3023 45.0558 83.069C44.9531 82.831 44.9018 82.551 44.9018 82.229C44.9018 81.949 44.9788 81.6807 45.1328 81.424C45.2868 81.1627 45.5341 80.9317 45.8748 80.731C46.2201 80.5303 46.6705 80.367 47.2258 80.241C47.7811 80.1103 48.4601 80.0357 49.2628 80.017V79.464C49.2628 78.9133 49.1438 78.498 48.9058 78.218C48.6725 77.9333 48.3248 77.791 47.8628 77.791C47.5595 77.791 47.3028 77.8307 47.0928 77.91C46.8875 77.9847 46.7078 78.071 46.5538 78.169C46.4045 78.2623 46.2738 78.3487 46.1618 78.428C46.0545 78.5027 45.9471 78.54 45.8398 78.54C45.7558 78.54 45.6811 78.519 45.6158 78.477C45.5551 78.4303 45.5061 78.3743 45.4688 78.309L45.2448 77.91C45.6368 77.532 46.0591 77.2497 46.5118 77.063C46.9645 76.8763 47.4661 76.783 48.0168 76.783C48.4135 76.783 48.7658 76.8483 49.0738 76.979C49.3818 77.1097 49.6408 77.2917 49.8508 77.525C50.0608 77.7583 50.2195 78.0407 50.3268 78.372C50.4341 78.7033 50.4878 79.0673 50.4878 79.464V84ZM47.2538 83.237C47.4731 83.237 47.6738 83.216 47.8558 83.174C48.0378 83.1273 48.2081 83.0643 48.3668 82.985C48.5301 82.901 48.6841 82.8007 48.8288 82.684C48.9781 82.5673 49.1228 82.4343 49.2628 82.285V80.808C48.6888 80.8267 48.2011 80.8733 47.7998 80.948C47.3985 81.018 47.0718 81.1113 46.8198 81.228C46.5678 81.3447 46.3835 81.4823 46.2668 81.641C46.1548 81.7997 46.0988 81.977 46.0988 82.173C46.0988 82.3597 46.1291 82.5207 46.1898 82.656C46.2505 82.7913 46.3321 82.9033 46.4348 82.992C46.5375 83.076 46.6588 83.139 46.7988 83.181C46.9388 83.2183 47.0905 83.237 47.2538 83.237ZM53.7615 73.689V84H52.5155V73.689H53.7615ZM62.7246 78.078C62.6686 78.1807 62.5822 78.232 62.4656 78.232C62.3956 78.232 62.3162 78.2063 62.2276 78.155C62.1389 78.1037 62.0292 78.0477 61.8986 77.987C61.7726 77.9217 61.6209 77.8633 61.4436 77.812C61.2662 77.756 61.0562 77.728 60.8136 77.728C60.6036 77.728 60.4146 77.756 60.2466 77.812C60.0786 77.8633 59.9339 77.9357 59.8126 78.029C59.6959 78.1223 59.6049 78.232 59.5396 78.358C59.4789 78.4793 59.4486 78.6123 59.4486 78.757C59.4486 78.939 59.4999 79.0907 59.6026 79.212C59.7099 79.3333 59.8499 79.4383 60.0226 79.527C60.1952 79.6157 60.3912 79.695 60.6106 79.765C60.8299 79.8303 61.0539 79.9027 61.2826 79.982C61.5159 80.0567 61.7422 80.1407 61.9616 80.234C62.1809 80.3273 62.3769 80.444 62.5496 80.584C62.7222 80.724 62.8599 80.8967 62.9626 81.102C63.0699 81.3027 63.1236 81.5453 63.1236 81.83C63.1236 82.1567 63.0652 82.46 62.9486 82.74C62.8319 83.0153 62.6592 83.2557 62.4306 83.461C62.2019 83.6617 61.9219 83.8203 61.5906 83.937C61.2592 84.0537 60.8766 84.112 60.4426 84.112C59.9479 84.112 59.4999 84.0327 59.0986 83.874C58.6972 83.7107 58.3566 83.503 58.0766 83.251L58.3706 82.775C58.4079 82.7143 58.4522 82.6677 58.5036 82.635C58.5549 82.6023 58.6226 82.586 58.7066 82.586C58.7906 82.586 58.8792 82.6187 58.9726 82.684C59.0659 82.7493 59.1779 82.8217 59.3086 82.901C59.4439 82.9803 59.6049 83.0527 59.7916 83.118C59.9829 83.1833 60.2209 83.216 60.5056 83.216C60.7482 83.216 60.9606 83.1857 61.1426 83.125C61.3246 83.0597 61.4762 82.9733 61.5976 82.866C61.7189 82.7587 61.8076 82.635 61.8636 82.495C61.9242 82.355 61.9546 82.2057 61.9546 82.047C61.9546 81.851 61.9009 81.69 61.7936 81.564C61.6909 81.4333 61.5532 81.3237 61.3806 81.235C61.2079 81.1417 61.0096 81.0623 60.7856 80.997C60.5662 80.927 60.3399 80.8547 60.1066 80.78C59.8779 80.7053 59.6516 80.6213 59.4276 80.528C59.2082 80.43 59.0122 80.3087 58.8396 80.164C58.6669 80.0193 58.5269 79.842 58.4196 79.632C58.3169 79.4173 58.2656 79.1583 58.2656 78.855C58.2656 78.5843 58.3216 78.3253 58.4336 78.078C58.5456 77.826 58.7089 77.6067 58.9236 77.42C59.1382 77.2287 59.4019 77.077 59.7146 76.965C60.0272 76.853 60.3842 76.797 60.7856 76.797C61.2522 76.797 61.6699 76.8717 62.0386 77.021C62.4119 77.1657 62.7339 77.3663 63.0046 77.623L62.7246 78.078ZM65.8129 76.909V81.431C65.8129 81.9677 65.9366 82.383 66.1839 82.677C66.4312 82.971 66.8046 83.118 67.3039 83.118C67.6679 83.118 68.0109 83.0317 68.3329 82.859C68.6549 82.6863 68.9512 82.446 69.2219 82.138V76.909H70.4679V84H69.7259C69.5486 84 69.4366 83.9137 69.3899 83.741L69.2919 82.978C68.9839 83.3187 68.6386 83.594 68.2559 83.804C67.8732 84.0093 67.4346 84.112 66.9399 84.112C66.5526 84.112 66.2096 84.049 65.9109 83.923C65.6169 83.7923 65.3696 83.6103 65.1689 83.377C64.9682 83.1437 64.8166 82.8613 64.7139 82.53C64.6159 82.1987 64.5669 81.8323 64.5669 81.431V76.909H65.8129ZM72.5142 84V76.909H73.2562C73.4335 76.909 73.5455 76.9953 73.5922 77.168L73.6832 77.896C73.9445 77.574 74.2362 77.3103 74.5582 77.105C74.8849 76.8997 75.2629 76.797 75.6922 76.797C76.1729 76.797 76.5602 76.93 76.8542 77.196C77.1529 77.462 77.3675 77.8213 77.4982 78.274C77.5962 78.0173 77.7245 77.7957 77.8832 77.609C78.0465 77.4223 78.2285 77.2683 78.4292 77.147C78.6299 77.0257 78.8422 76.937 79.0662 76.881C79.2949 76.825 79.5259 76.797 79.7592 76.797C80.1325 76.797 80.4639 76.8577 80.7532 76.979C81.0472 77.0957 81.2945 77.2683 81.4952 77.497C81.7005 77.7257 81.8569 78.008 81.9642 78.344C82.0715 78.6753 82.1252 79.0557 82.1252 79.485V84H80.8792V79.485C80.8792 78.9297 80.7579 78.5097 80.5152 78.225C80.2725 77.9357 79.9202 77.791 79.4582 77.791C79.2529 77.791 79.0569 77.8283 78.8702 77.903C78.6882 77.973 78.5272 78.078 78.3872 78.218C78.2472 78.358 78.1352 78.5353 78.0512 78.75C77.9719 78.96 77.9322 79.205 77.9322 79.485V84H76.6862V79.485C76.6862 78.9157 76.5719 78.491 76.3432 78.211C76.1145 77.931 75.7809 77.791 75.3422 77.791C75.0342 77.791 74.7472 77.875 74.4812 78.043C74.2199 78.2063 73.9795 78.4303 73.7602 78.715V84H72.5142ZM84.0122 84V76.909H84.7542C84.9316 76.909 85.0436 76.9953 85.0902 77.168L85.1812 77.896C85.4426 77.574 85.7342 77.3103 86.0562 77.105C86.3829 76.8997 86.7609 76.797 87.1902 76.797C87.6709 76.797 88.0582 76.93 88.3522 77.196C88.6509 77.462 88.8656 77.8213 88.9962 78.274C89.0942 78.0173 89.2226 77.7957 89.3812 77.609C89.5446 77.4223 89.7266 77.2683 89.9272 77.147C90.1279 77.0257 90.3402 76.937 90.5642 76.881C90.7929 76.825 91.0239 76.797 91.2572 76.797C91.6306 76.797 91.9619 76.8577 92.2512 76.979C92.5452 77.0957 92.7926 77.2683 92.9932 77.497C93.1986 77.7257 93.3549 78.008 93.4622 78.344C93.5696 78.6753 93.6232 79.0557 93.6232 79.485V84H92.3772V79.485C92.3772 78.9297 92.2559 78.5097 92.0132 78.225C91.7706 77.9357 91.4182 77.791 90.9562 77.791C90.7509 77.791 90.5549 77.8283 90.3682 77.903C90.1862 77.973 90.0252 78.078 89.8852 78.218C89.7452 78.358 89.6332 78.5353 89.5492 78.75C89.4699 78.96 89.4302 79.205 89.4302 79.485V84H88.1842V79.485C88.1842 78.9157 88.0699 78.491 87.8412 78.211C87.6126 77.931 87.2789 77.791 86.8402 77.791C86.5322 77.791 86.2452 77.875 85.9792 78.043C85.7179 78.2063 85.4776 78.4303 85.2582 78.715V84H84.0122ZM100.718 84H100.165C100.044 84 99.9459 83.9813 99.8713 83.944C99.7966 83.9067 99.7476 83.8273 99.7243 83.706L99.5843 83.048C99.3976 83.216 99.2156 83.3677 99.0383 83.503C98.8609 83.6337 98.6743 83.7457 98.4783 83.839C98.2823 83.9277 98.0723 83.9953 97.8483 84.042C97.6289 84.0887 97.3839 84.112 97.1133 84.112C96.8379 84.112 96.5789 84.0747 96.3363 84C96.0983 83.9207 95.8906 83.804 95.7133 83.65C95.5359 83.496 95.3936 83.3023 95.2863 83.069C95.1836 82.831 95.1323 82.551 95.1323 82.229C95.1323 81.949 95.2093 81.6807 95.3633 81.424C95.5173 81.1627 95.7646 80.9317 96.1053 80.731C96.4506 80.5303 96.9009 80.367 97.4563 80.241C98.0116 80.1103 98.6906 80.0357 99.4933 80.017V79.464C99.4933 78.9133 99.3743 78.498 99.1363 78.218C98.9029 77.9333 98.5553 77.791 98.0933 77.791C97.7899 77.791 97.5333 77.8307 97.3233 77.91C97.1179 77.9847 96.9383 78.071 96.7843 78.169C96.6349 78.2623 96.5043 78.3487 96.3923 78.428C96.2849 78.5027 96.1776 78.54 96.0703 78.54C95.9863 78.54 95.9116 78.519 95.8463 78.477C95.7856 78.4303 95.7366 78.3743 95.6993 78.309L95.4753 77.91C95.8673 77.532 96.2896 77.2497 96.7423 77.063C97.1949 76.8763 97.6966 76.783 98.2473 76.783C98.6439 76.783 98.9963 76.8483 99.3043 76.979C99.6123 77.1097 99.8713 77.2917 100.081 77.525C100.291 77.7583 100.45 78.0407 100.557 78.372C100.665 78.7033 100.718 79.0673 100.718 79.464V84ZM97.4843 83.237C97.7036 83.237 97.9043 83.216 98.0863 83.174C98.2683 83.1273 98.4386 83.0643 98.5973 82.985C98.7606 82.901 98.9146 82.8007 99.0593 82.684C99.2086 82.5673 99.3533 82.4343 99.4933 82.285V80.808C98.9193 80.8267 98.4316 80.8733 98.0303 80.948C97.6289 81.018 97.3023 81.1113 97.0503 81.228C96.7983 81.3447 96.6139 81.4823 96.4973 81.641C96.3853 81.7997 96.3293 81.977 96.3293 82.173C96.3293 82.3597 96.3596 82.5207 96.4203 82.656C96.4809 82.7913 96.5626 82.9033 96.6653 82.992C96.7679 83.076 96.8893 83.139 97.0293 83.181C97.1693 83.2183 97.3209 83.237 97.4843 83.237ZM102.606 84V76.909H103.32C103.455 76.909 103.549 76.9347 103.6 76.986C103.651 77.0373 103.686 77.126 103.705 77.252L103.789 78.358C104.032 77.8633 104.33 77.4783 104.685 77.203C105.044 76.923 105.464 76.783 105.945 76.783C106.141 76.783 106.318 76.8063 106.477 76.853C106.636 76.895 106.783 76.9557 106.918 77.035L106.757 77.966C106.724 78.0827 106.652 78.141 106.54 78.141C106.475 78.141 106.374 78.12 106.239 78.078C106.104 78.0313 105.915 78.008 105.672 78.008C105.238 78.008 104.874 78.134 104.58 78.386C104.291 78.638 104.048 79.0043 103.852 79.485V84H102.606ZM110.331 86.093C110.289 86.1863 110.236 86.261 110.17 86.317C110.11 86.373 110.014 86.401 109.883 86.401H108.959L110.254 83.587L107.328 76.909H108.406C108.514 76.909 108.598 76.937 108.658 76.993C108.719 77.0443 108.763 77.1027 108.791 77.168L110.688 81.634C110.73 81.7367 110.765 81.8393 110.793 81.942C110.826 82.0447 110.854 82.1497 110.877 82.257C110.91 82.1497 110.943 82.0447 110.975 81.942C111.008 81.8393 111.045 81.7343 111.087 81.627L112.928 77.168C112.956 77.0933 113.003 77.0327 113.068 76.986C113.138 76.9347 113.213 76.909 113.292 76.909H114.286L110.331 86.093Z" fill="#6A6A6A"/>
<rect x="1" y="1" width="38" height="38" rx="19" fill="#0064D1" stroke="#0064D1"/>
<path d="M16.6554 23.912H19.1194V16.096C19.1194 15.8613 19.1274 15.624 19.1434 15.384L17.0954 17.136C17.042 17.1787 16.9887 17.2107 16.9354 17.232C16.882 17.248 16.8314 17.256 16.7834 17.256C16.7034 17.256 16.6314 17.24 16.5674 17.208C16.5034 17.1707 16.4554 17.128 16.4234 17.08L15.9754 16.464L19.3834 13.512H20.5434V23.912H22.7994V25H16.6554V23.912Z" fill="white"/>
<path d="M325.535 78.988C325.535 79.7393 325.416 80.43 325.178 81.06C324.94 81.6853 324.604 82.2243 324.17 82.677C323.736 83.1297 323.213 83.482 322.602 83.734C321.995 83.9813 321.323 84.105 320.586 84.105C319.849 84.105 319.177 83.9813 318.57 83.734C317.963 83.482 317.443 83.1297 317.009 82.677C316.575 82.2243 316.239 81.6853 316.001 81.06C315.763 80.43 315.644 79.7393 315.644 78.988C315.644 78.2367 315.763 77.5483 316.001 76.923C316.239 76.293 316.575 75.7517 317.009 75.299C317.443 74.8417 317.963 74.487 318.57 74.235C319.177 73.983 319.849 73.857 320.586 73.857C321.323 73.857 321.995 73.983 322.602 74.235C323.213 74.487 323.736 74.8417 324.17 75.299C324.604 75.7517 324.94 76.293 325.178 76.923C325.416 77.5483 325.535 78.2367 325.535 78.988ZM324.142 78.988C324.142 78.372 324.058 77.819 323.89 77.329C323.722 76.839 323.484 76.426 323.176 76.09C322.868 75.7493 322.495 75.488 322.056 75.306C321.617 75.124 321.127 75.033 320.586 75.033C320.049 75.033 319.562 75.124 319.123 75.306C318.684 75.488 318.309 75.7493 317.996 76.09C317.688 76.426 317.45 76.839 317.282 77.329C317.114 77.819 317.03 78.372 317.03 78.988C317.03 79.604 317.114 80.157 317.282 80.647C317.45 81.1323 317.688 81.5453 317.996 81.886C318.309 82.222 318.684 82.481 319.123 82.663C319.562 82.8403 320.049 82.929 320.586 82.929C321.127 82.929 321.617 82.8403 322.056 82.663C322.495 82.481 322.868 82.222 323.176 81.886C323.484 81.5453 323.722 81.1323 323.89 80.647C324.058 80.157 324.142 79.604 324.142 78.988ZM327.192 86.401V76.909H327.934C328.111 76.909 328.223 76.9953 328.27 77.168L328.375 78.008C328.678 77.6393 329.024 77.343 329.411 77.119C329.803 76.895 330.253 76.783 330.762 76.783C331.168 76.783 331.537 76.8623 331.868 77.021C332.199 77.175 332.482 77.406 332.715 77.714C332.948 78.0173 333.128 78.3953 333.254 78.848C333.38 79.3007 333.443 79.821 333.443 80.409C333.443 80.9317 333.373 81.4193 333.233 81.872C333.093 82.32 332.892 82.7097 332.631 83.041C332.37 83.3677 332.048 83.6267 331.665 83.818C331.287 84.0047 330.86 84.098 330.384 84.098C329.945 84.098 329.57 84.0257 329.257 83.881C328.949 83.7363 328.676 83.531 328.438 83.265V86.401H327.192ZM330.349 77.791C329.943 77.791 329.586 77.8843 329.278 78.071C328.975 78.2577 328.695 78.5213 328.438 78.862V82.292C328.667 82.6 328.916 82.817 329.187 82.943C329.462 83.069 329.768 83.132 330.104 83.132C330.762 83.132 331.268 82.8963 331.623 82.425C331.978 81.9537 332.155 81.2817 332.155 80.409C332.155 79.947 332.113 79.5503 332.029 79.219C331.95 78.8877 331.833 78.617 331.679 78.407C331.525 78.1923 331.336 78.036 331.112 77.938C330.888 77.84 330.634 77.791 330.349 77.791ZM337.066 84.112C336.506 84.112 336.074 83.9557 335.771 83.643C335.472 83.3303 335.323 82.88 335.323 82.292V77.952H334.469C334.394 77.952 334.331 77.931 334.28 77.889C334.228 77.8423 334.203 77.7723 334.203 77.679V77.182L335.365 77.035L335.652 74.844C335.661 74.774 335.691 74.718 335.743 74.676C335.794 74.6293 335.859 74.606 335.939 74.606H336.569V77.049H338.599V77.952H336.569V82.208C336.569 82.5067 336.641 82.7283 336.786 82.873C336.93 83.0177 337.117 83.09 337.346 83.09C337.476 83.09 337.588 83.0737 337.682 83.041C337.78 83.0037 337.864 82.964 337.934 82.922C338.004 82.88 338.062 82.8427 338.109 82.81C338.16 82.7727 338.204 82.754 338.242 82.754C338.307 82.754 338.365 82.7937 338.417 82.873L338.781 83.468C338.566 83.6687 338.307 83.8273 338.004 83.944C337.7 84.056 337.388 84.112 337.066 84.112ZM341.525 76.909V84H340.279V76.909H341.525ZM341.805 74.683C341.805 74.8043 341.78 74.9187 341.728 75.026C341.682 75.1287 341.616 75.222 341.532 75.306C341.453 75.3853 341.36 75.4483 341.252 75.495C341.145 75.5417 341.031 75.565 340.909 75.565C340.788 75.565 340.674 75.5417 340.566 75.495C340.464 75.4483 340.37 75.3853 340.286 75.306C340.207 75.222 340.144 75.1287 340.097 75.026C340.051 74.9187 340.027 74.8043 340.027 74.683C340.027 74.5617 340.051 74.4473 340.097 74.34C340.144 74.228 340.207 74.1323 340.286 74.053C340.37 73.969 340.464 73.9037 340.566 73.857C340.674 73.8103 340.788 73.787 340.909 73.787C341.031 73.787 341.145 73.8103 341.252 73.857C341.36 73.9037 341.453 73.969 341.532 74.053C341.616 74.1323 341.682 74.228 341.728 74.34C341.78 74.4473 341.805 74.5617 341.805 74.683ZM346.591 76.797C347.109 76.797 347.576 76.8833 347.991 77.056C348.411 77.2287 348.766 77.4737 349.055 77.791C349.349 78.1083 349.573 78.4933 349.727 78.946C349.886 79.394 349.965 79.8957 349.965 80.451C349.965 81.011 349.886 81.515 349.727 81.963C349.573 82.411 349.349 82.7937 349.055 83.111C348.766 83.4283 348.411 83.6733 347.991 83.846C347.576 84.014 347.109 84.098 346.591 84.098C346.073 84.098 345.604 84.014 345.184 83.846C344.769 83.6733 344.414 83.4283 344.12 83.111C343.826 82.7937 343.6 82.411 343.441 81.963C343.283 81.515 343.203 81.011 343.203 80.451C343.203 79.8957 343.283 79.394 343.441 78.946C343.6 78.4933 343.826 78.1083 344.12 77.791C344.414 77.4737 344.769 77.2287 345.184 77.056C345.604 76.8833 346.073 76.797 346.591 76.797ZM346.591 83.125C347.291 83.125 347.814 82.8917 348.159 82.425C348.505 81.9537 348.677 81.298 348.677 80.458C348.677 79.6133 348.505 78.9553 348.159 78.484C347.814 78.0127 347.291 77.777 346.591 77.777C346.237 77.777 345.929 77.8377 345.667 77.959C345.406 78.0803 345.187 78.2553 345.009 78.484C344.837 78.7127 344.706 78.995 344.617 79.331C344.533 79.6623 344.491 80.038 344.491 80.458C344.491 80.878 344.533 81.2537 344.617 81.585C344.706 81.9163 344.837 82.1963 345.009 82.425C345.187 82.649 345.406 82.8217 345.667 82.943C345.929 83.0643 346.237 83.125 346.591 83.125ZM351.501 84V76.909H352.243C352.42 76.909 352.532 76.9953 352.579 77.168L352.677 77.938C352.985 77.5973 353.328 77.322 353.706 77.112C354.088 76.902 354.529 76.797 355.029 76.797C355.416 76.797 355.757 76.8623 356.051 76.993C356.349 77.119 356.597 77.301 356.793 77.539C356.993 77.7723 357.145 78.0547 357.248 78.386C357.35 78.7173 357.402 79.0837 357.402 79.485V84H356.156V79.485C356.156 78.9483 356.032 78.533 355.785 78.239C355.542 77.9403 355.169 77.791 354.665 77.791C354.296 77.791 353.951 77.8797 353.629 78.057C353.311 78.2343 353.017 78.4747 352.747 78.778V84H351.501ZM364.488 84H363.935C363.813 84 363.715 83.9813 363.641 83.944C363.566 83.9067 363.517 83.8273 363.494 83.706L363.354 83.048C363.167 83.216 362.985 83.3677 362.808 83.503C362.63 83.6337 362.444 83.7457 362.248 83.839C362.052 83.9277 361.842 83.9953 361.618 84.042C361.398 84.0887 361.153 84.112 360.883 84.112C360.607 84.112 360.348 84.0747 360.106 84C359.868 83.9207 359.66 83.804 359.483 83.65C359.305 83.496 359.163 83.3023 359.056 83.069C358.953 82.831 358.902 82.551 358.902 82.229C358.902 81.949 358.979 81.6807 359.133 81.424C359.287 81.1627 359.534 80.9317 359.875 80.731C360.22 80.5303 360.67 80.367 361.226 80.241C361.781 80.1103 362.46 80.0357 363.263 80.017V79.464C363.263 78.9133 363.144 78.498 362.906 78.218C362.672 77.9333 362.325 77.791 361.863 77.791C361.559 77.791 361.303 77.8307 361.093 77.91C360.887 77.9847 360.708 78.071 360.554 78.169C360.404 78.2623 360.274 78.3487 360.162 78.428C360.054 78.5027 359.947 78.54 359.84 78.54C359.756 78.54 359.681 78.519 359.616 78.477C359.555 78.4303 359.506 78.3743 359.469 78.309L359.245 77.91C359.637 77.532 360.059 77.2497 360.512 77.063C360.964 76.8763 361.466 76.783 362.017 76.783C362.413 76.783 362.766 76.8483 363.074 76.979C363.382 77.1097 363.641 77.2917 363.851 77.525C364.061 77.7583 364.219 78.0407 364.327 78.372C364.434 78.7033 364.488 79.0673 364.488 79.464V84ZM361.254 83.237C361.473 83.237 361.674 83.216 361.856 83.174C362.038 83.1273 362.208 83.0643 362.367 82.985C362.53 82.901 362.684 82.8007 362.829 82.684C362.978 82.5673 363.123 82.4343 363.263 82.285V80.808C362.689 80.8267 362.201 80.8733 361.8 80.948C361.398 81.018 361.072 81.1113 360.82 81.228C360.568 81.3447 360.383 81.4823 360.267 81.641C360.155 81.7997 360.099 81.977 360.099 82.173C360.099 82.3597 360.129 82.5207 360.19 82.656C360.25 82.7913 360.332 82.9033 360.435 82.992C360.537 83.076 360.659 83.139 360.799 83.181C360.939 83.2183 361.09 83.237 361.254 83.237ZM367.762 73.689V84H366.516V73.689H367.762ZM376.725 78.078C376.669 78.1807 376.582 78.232 376.466 78.232C376.396 78.232 376.316 78.2063 376.228 78.155C376.139 78.1037 376.029 78.0477 375.899 77.987C375.773 77.9217 375.621 77.8633 375.444 77.812C375.266 77.756 375.056 77.728 374.814 77.728C374.604 77.728 374.415 77.756 374.247 77.812C374.079 77.8633 373.934 77.9357 373.813 78.029C373.696 78.1223 373.605 78.232 373.54 78.358C373.479 78.4793 373.449 78.6123 373.449 78.757C373.449 78.939 373.5 79.0907 373.603 79.212C373.71 79.3333 373.85 79.4383 374.023 79.527C374.195 79.6157 374.391 79.695 374.611 79.765C374.83 79.8303 375.054 79.9027 375.283 79.982C375.516 80.0567 375.742 80.1407 375.962 80.234C376.181 80.3273 376.377 80.444 376.55 80.584C376.722 80.724 376.86 80.8967 376.963 81.102C377.07 81.3027 377.124 81.5453 377.124 81.83C377.124 82.1567 377.065 82.46 376.949 82.74C376.832 83.0153 376.659 83.2557 376.431 83.461C376.202 83.6617 375.922 83.8203 375.591 83.937C375.259 84.0537 374.877 84.112 374.443 84.112C373.948 84.112 373.5 84.0327 373.099 83.874C372.697 83.7107 372.357 83.503 372.077 83.251L372.371 82.775C372.408 82.7143 372.452 82.6677 372.504 82.635C372.555 82.6023 372.623 82.586 372.707 82.586C372.791 82.586 372.879 82.6187 372.973 82.684C373.066 82.7493 373.178 82.8217 373.309 82.901C373.444 82.9803 373.605 83.0527 373.792 83.118C373.983 83.1833 374.221 83.216 374.506 83.216C374.748 83.216 374.961 83.1857 375.143 83.125C375.325 83.0597 375.476 82.9733 375.598 82.866C375.719 82.7587 375.808 82.635 375.864 82.495C375.924 82.355 375.955 82.2057 375.955 82.047C375.955 81.851 375.901 81.69 375.794 81.564C375.691 81.4333 375.553 81.3237 375.381 81.235C375.208 81.1417 375.01 81.0623 374.786 80.997C374.566 80.927 374.34 80.8547 374.107 80.78C373.878 80.7053 373.652 80.6213 373.428 80.528C373.208 80.43 373.012 80.3087 372.84 80.164C372.667 80.0193 372.527 79.842 372.42 79.632C372.317 79.4173 372.266 79.1583 372.266 78.855C372.266 78.5843 372.322 78.3253 372.434 78.078C372.546 77.826 372.709 77.6067 372.924 77.42C373.138 77.2287 373.402 77.077 373.715 76.965C374.027 76.853 374.384 76.797 374.786 76.797C375.252 76.797 375.67 76.8717 376.039 77.021C376.412 77.1657 376.734 77.3663 377.005 77.623L376.725 78.078ZM379.813 76.909V81.431C379.813 81.9677 379.937 82.383 380.184 82.677C380.431 82.971 380.805 83.118 381.304 83.118C381.668 83.118 382.011 83.0317 382.333 82.859C382.655 82.6863 382.951 82.446 383.222 82.138V76.909H384.468V84H383.726C383.549 84 383.437 83.9137 383.39 83.741L383.292 82.978C382.984 83.3187 382.639 83.594 382.256 83.804C381.873 84.0093 381.435 84.112 380.94 84.112C380.553 84.112 380.21 84.049 379.911 83.923C379.617 83.7923 379.37 83.6103 379.169 83.377C378.968 83.1437 378.817 82.8613 378.714 82.53C378.616 82.1987 378.567 81.8323 378.567 81.431V76.909H379.813ZM386.514 84V76.909H387.256C387.434 76.909 387.546 76.9953 387.592 77.168L387.683 77.896C387.945 77.574 388.236 77.3103 388.558 77.105C388.885 76.8997 389.263 76.797 389.692 76.797C390.173 76.797 390.56 76.93 390.854 77.196C391.153 77.462 391.368 77.8213 391.498 78.274C391.596 78.0173 391.725 77.7957 391.883 77.609C392.047 77.4223 392.229 77.2683 392.429 77.147C392.63 77.0257 392.842 76.937 393.066 76.881C393.295 76.825 393.526 76.797 393.759 76.797C394.133 76.797 394.464 76.8577 394.753 76.979C395.047 77.0957 395.295 77.2683 395.495 77.497C395.701 77.7257 395.857 78.008 395.964 78.344C396.072 78.6753 396.125 79.0557 396.125 79.485V84H394.879V79.485C394.879 78.9297 394.758 78.5097 394.515 78.225C394.273 77.9357 393.92 77.791 393.458 77.791C393.253 77.791 393.057 77.8283 392.87 77.903C392.688 77.973 392.527 78.078 392.387 78.218C392.247 78.358 392.135 78.5353 392.051 78.75C391.972 78.96 391.932 79.205 391.932 79.485V84H390.686V79.485C390.686 78.9157 390.572 78.491 390.343 78.211C390.115 77.931 389.781 77.791 389.342 77.791C389.034 77.791 388.747 77.875 388.481 78.043C388.22 78.2063 387.98 78.4303 387.76 78.715V84H386.514ZM398.012 84V76.909H398.754C398.932 76.909 399.044 76.9953 399.09 77.168L399.181 77.896C399.443 77.574 399.734 77.3103 400.056 77.105C400.383 76.8997 400.761 76.797 401.19 76.797C401.671 76.797 402.058 76.93 402.352 77.196C402.651 77.462 402.866 77.8213 402.996 78.274C403.094 78.0173 403.223 77.7957 403.381 77.609C403.545 77.4223 403.727 77.2683 403.927 77.147C404.128 77.0257 404.34 76.937 404.564 76.881C404.793 76.825 405.024 76.797 405.257 76.797C405.631 76.797 405.962 76.8577 406.251 76.979C406.545 77.0957 406.793 77.2683 406.993 77.497C407.199 77.7257 407.355 78.008 407.462 78.344C407.57 78.6753 407.623 79.0557 407.623 79.485V84H406.377V79.485C406.377 78.9297 406.256 78.5097 406.013 78.225C405.771 77.9357 405.418 77.791 404.956 77.791C404.751 77.791 404.555 77.8283 404.368 77.903C404.186 77.973 404.025 78.078 403.885 78.218C403.745 78.358 403.633 78.5353 403.549 78.75C403.47 78.96 403.43 79.205 403.43 79.485V84H402.184V79.485C402.184 78.9157 402.07 78.491 401.841 78.211C401.613 77.931 401.279 77.791 400.84 77.791C400.532 77.791 400.245 77.875 399.979 78.043C399.718 78.2063 399.478 78.4303 399.258 78.715V84H398.012ZM414.718 84H414.165C414.044 84 413.946 83.9813 413.871 83.944C413.797 83.9067 413.748 83.8273 413.724 83.706L413.584 83.048C413.398 83.216 413.216 83.3677 413.038 83.503C412.861 83.6337 412.674 83.7457 412.478 83.839C412.282 83.9277 412.072 83.9953 411.848 84.042C411.629 84.0887 411.384 84.112 411.113 84.112C410.838 84.112 410.579 84.0747 410.336 84C410.098 83.9207 409.891 83.804 409.713 83.65C409.536 83.496 409.394 83.3023 409.286 83.069C409.184 82.831 409.132 82.551 409.132 82.229C409.132 81.949 409.209 81.6807 409.363 81.424C409.517 81.1627 409.765 80.9317 410.105 80.731C410.451 80.5303 410.901 80.367 411.456 80.241C412.012 80.1103 412.691 80.0357 413.493 80.017V79.464C413.493 78.9133 413.374 78.498 413.136 78.218C412.903 77.9333 412.555 77.791 412.093 77.791C411.79 77.791 411.533 77.8307 411.323 77.91C411.118 77.9847 410.938 78.071 410.784 78.169C410.635 78.2623 410.504 78.3487 410.392 78.428C410.285 78.5027 410.178 78.54 410.07 78.54C409.986 78.54 409.912 78.519 409.846 78.477C409.786 78.4303 409.737 78.3743 409.699 78.309L409.475 77.91C409.867 77.532 410.29 77.2497 410.742 77.063C411.195 76.8763 411.697 76.783 412.247 76.783C412.644 76.783 412.996 76.8483 413.304 76.979C413.612 77.1097 413.871 77.2917 414.081 77.525C414.291 77.7583 414.45 78.0407 414.557 78.372C414.665 78.7033 414.718 79.0673 414.718 79.464V84ZM411.484 83.237C411.704 83.237 411.904 83.216 412.086 83.174C412.268 83.1273 412.439 83.0643 412.597 82.985C412.761 82.901 412.915 82.8007 413.059 82.684C413.209 82.5673 413.353 82.4343 413.493 82.285V80.808C412.919 80.8267 412.432 80.8733 412.03 80.948C411.629 81.018 411.302 81.1113 411.05 81.228C410.798 81.3447 410.614 81.4823 410.497 81.641C410.385 81.7997 410.329 81.977 410.329 82.173C410.329 82.3597 410.36 82.5207 410.42 82.656C410.481 82.7913 410.563 82.9033 410.665 82.992C410.768 83.076 410.889 83.139 411.029 83.181C411.169 83.2183 411.321 83.237 411.484 83.237ZM416.606 84V76.909H417.32C417.455 76.909 417.549 76.9347 417.6 76.986C417.651 77.0373 417.686 77.126 417.705 77.252L417.789 78.358C418.032 77.8633 418.33 77.4783 418.685 77.203C419.044 76.923 419.464 76.783 419.945 76.783C420.141 76.783 420.318 76.8063 420.477 76.853C420.636 76.895 420.783 76.9557 420.918 77.035L420.757 77.966C420.724 78.0827 420.652 78.141 420.54 78.141C420.475 78.141 420.374 78.12 420.239 78.078C420.104 78.0313 419.915 78.008 419.672 78.008C419.238 78.008 418.874 78.134 418.58 78.386C418.291 78.638 418.048 79.0043 417.852 79.485V84H416.606ZM424.331 86.093C424.289 86.1863 424.236 86.261 424.17 86.317C424.11 86.373 424.014 86.401 423.883 86.401H422.959L424.254 83.587L421.328 76.909H422.406C422.514 76.909 422.598 76.937 422.658 76.993C422.719 77.0443 422.763 77.1027 422.791 77.168L424.688 81.634C424.73 81.7367 424.765 81.8393 424.793 81.942C424.826 82.0447 424.854 82.1497 424.877 82.257C424.91 82.1497 424.943 82.0447 424.975 81.942C425.008 81.8393 425.045 81.7343 425.087 81.627L426.928 77.168C426.956 77.0933 427.003 77.0327 427.068 76.986C427.138 76.9347 427.213 76.909 427.292 76.909H428.286L424.331 86.093Z" fill="#6A6A6A"/>
<rect x="353" y="1" width="38" height="38" rx="19" fill="#0064D1" stroke="#0064D1"/>
<path d="M372.167 13.408C372.653 13.408 373.106 13.48 373.527 13.624C373.949 13.768 374.311 13.9787 374.615 14.256C374.925 14.528 375.167 14.8613 375.343 15.256C375.519 15.6507 375.607 16.0987 375.607 16.6C375.607 17.0267 375.543 17.4213 375.415 17.784C375.287 18.1467 375.114 18.496 374.895 18.832C374.677 19.1627 374.423 19.4853 374.135 19.8C373.853 20.1093 373.551 20.4267 373.231 20.752L370.215 23.84C370.429 23.7813 370.645 23.736 370.863 23.704C371.082 23.6667 371.293 23.648 371.495 23.648H375.335C375.49 23.648 375.613 23.6933 375.703 23.784C375.794 23.8747 375.839 23.992 375.839 24.136V25H368.191V24.512C368.191 24.4107 368.21 24.3067 368.247 24.2C368.29 24.0933 368.357 23.9947 368.447 23.904L372.119 20.216C372.423 19.9067 372.701 19.6107 372.951 19.328C373.202 19.04 373.415 18.752 373.591 18.464C373.773 18.176 373.911 17.8853 374.007 17.592C374.103 17.2933 374.151 16.976 374.151 16.64C374.151 16.304 374.098 16.0107 373.991 15.76C373.885 15.504 373.738 15.2933 373.551 15.128C373.365 14.9627 373.146 14.84 372.895 14.76C372.645 14.6747 372.375 14.632 372.087 14.632C371.799 14.632 371.533 14.6747 371.287 14.76C371.042 14.8453 370.823 14.9653 370.631 15.12C370.445 15.2693 370.285 15.448 370.151 15.656C370.023 15.864 369.933 16.0933 369.879 16.344C369.837 16.4987 369.773 16.6107 369.687 16.68C369.602 16.7493 369.49 16.784 369.351 16.784C369.325 16.784 369.295 16.784 369.263 16.784C369.237 16.7787 369.205 16.7733 369.167 16.768L368.423 16.64C368.498 16.1173 368.642 15.656 368.855 15.256C369.069 14.8507 369.338 14.512 369.663 14.24C369.994 13.968 370.37 13.7627 370.791 13.624C371.218 13.48 371.677 13.408 372.167 13.408Z" fill="white"/>
<path d="M641.535 78.988C641.535 79.7393 641.416 80.43 641.178 81.06C640.94 81.6853 640.604 82.2243 640.17 82.677C639.736 83.1297 639.213 83.482 638.602 83.734C637.995 83.9813 637.323 84.105 636.586 84.105C635.849 84.105 635.177 83.9813 634.57 83.734C633.963 83.482 633.443 83.1297 633.009 82.677C632.575 82.2243 632.239 81.6853 632.001 81.06C631.763 80.43 631.644 79.7393 631.644 78.988C631.644 78.2367 631.763 77.5483 632.001 76.923C632.239 76.293 632.575 75.7517 633.009 75.299C633.443 74.8417 633.963 74.487 634.57 74.235C635.177 73.983 635.849 73.857 636.586 73.857C637.323 73.857 637.995 73.983 638.602 74.235C639.213 74.487 639.736 74.8417 640.17 75.299C640.604 75.7517 640.94 76.293 641.178 76.923C641.416 77.5483 641.535 78.2367 641.535 78.988ZM640.142 78.988C640.142 78.372 640.058 77.819 639.89 77.329C639.722 76.839 639.484 76.426 639.176 76.09C638.868 75.7493 638.495 75.488 638.056 75.306C637.617 75.124 637.127 75.033 636.586 75.033C636.049 75.033 635.562 75.124 635.123 75.306C634.684 75.488 634.309 75.7493 633.996 76.09C633.688 76.426 633.45 76.839 633.282 77.329C633.114 77.819 633.03 78.372 633.03 78.988C633.03 79.604 633.114 80.157 633.282 80.647C633.45 81.1323 633.688 81.5453 633.996 81.886C634.309 82.222 634.684 82.481 635.123 82.663C635.562 82.8403 636.049 82.929 636.586 82.929C637.127 82.929 637.617 82.8403 638.056 82.663C638.495 82.481 638.868 82.222 639.176 81.886C639.484 81.5453 639.722 81.1323 639.89 80.647C640.058 80.157 640.142 79.604 640.142 78.988ZM643.192 86.401V76.909H643.934C644.111 76.909 644.223 76.9953 644.27 77.168L644.375 78.008C644.678 77.6393 645.024 77.343 645.411 77.119C645.803 76.895 646.253 76.783 646.762 76.783C647.168 76.783 647.537 76.8623 647.868 77.021C648.199 77.175 648.482 77.406 648.715 77.714C648.948 78.0173 649.128 78.3953 649.254 78.848C649.38 79.3007 649.443 79.821 649.443 80.409C649.443 80.9317 649.373 81.4193 649.233 81.872C649.093 82.32 648.892 82.7097 648.631 83.041C648.37 83.3677 648.048 83.6267 647.665 83.818C647.287 84.0047 646.86 84.098 646.384 84.098C645.945 84.098 645.57 84.0257 645.257 83.881C644.949 83.7363 644.676 83.531 644.438 83.265V86.401H643.192ZM646.349 77.791C645.943 77.791 645.586 77.8843 645.278 78.071C644.975 78.2577 644.695 78.5213 644.438 78.862V82.292C644.667 82.6 644.916 82.817 645.187 82.943C645.462 83.069 645.768 83.132 646.104 83.132C646.762 83.132 647.268 82.8963 647.623 82.425C647.978 81.9537 648.155 81.2817 648.155 80.409C648.155 79.947 648.113 79.5503 648.029 79.219C647.95 78.8877 647.833 78.617 647.679 78.407C647.525 78.1923 647.336 78.036 647.112 77.938C646.888 77.84 646.634 77.791 646.349 77.791ZM653.066 84.112C652.506 84.112 652.074 83.9557 651.771 83.643C651.472 83.3303 651.323 82.88 651.323 82.292V77.952H650.469C650.394 77.952 650.331 77.931 650.28 77.889C650.228 77.8423 650.203 77.7723 650.203 77.679V77.182L651.365 77.035L651.652 74.844C651.661 74.774 651.691 74.718 651.743 74.676C651.794 74.6293 651.859 74.606 651.939 74.606H652.569V77.049H654.599V77.952H652.569V82.208C652.569 82.5067 652.641 82.7283 652.786 82.873C652.93 83.0177 653.117 83.09 653.346 83.09C653.476 83.09 653.588 83.0737 653.682 83.041C653.78 83.0037 653.864 82.964 653.934 82.922C654.004 82.88 654.062 82.8427 654.109 82.81C654.16 82.7727 654.204 82.754 654.242 82.754C654.307 82.754 654.365 82.7937 654.417 82.873L654.781 83.468C654.566 83.6687 654.307 83.8273 654.004 83.944C653.7 84.056 653.388 84.112 653.066 84.112ZM657.525 76.909V84H656.279V76.909H657.525ZM657.805 74.683C657.805 74.8043 657.78 74.9187 657.728 75.026C657.682 75.1287 657.616 75.222 657.532 75.306C657.453 75.3853 657.36 75.4483 657.252 75.495C657.145 75.5417 657.031 75.565 656.909 75.565C656.788 75.565 656.674 75.5417 656.566 75.495C656.464 75.4483 656.37 75.3853 656.286 75.306C656.207 75.222 656.144 75.1287 656.097 75.026C656.051 74.9187 656.027 74.8043 656.027 74.683C656.027 74.5617 656.051 74.4473 656.097 74.34C656.144 74.228 656.207 74.1323 656.286 74.053C656.37 73.969 656.464 73.9037 656.566 73.857C656.674 73.8103 656.788 73.787 656.909 73.787C657.031 73.787 657.145 73.8103 657.252 73.857C657.36 73.9037 657.453 73.969 657.532 74.053C657.616 74.1323 657.682 74.228 657.728 74.34C657.78 74.4473 657.805 74.5617 657.805 74.683ZM662.591 76.797C663.109 76.797 663.576 76.8833 663.991 77.056C664.411 77.2287 664.766 77.4737 665.055 77.791C665.349 78.1083 665.573 78.4933 665.727 78.946C665.886 79.394 665.965 79.8957 665.965 80.451C665.965 81.011 665.886 81.515 665.727 81.963C665.573 82.411 665.349 82.7937 665.055 83.111C664.766 83.4283 664.411 83.6733 663.991 83.846C663.576 84.014 663.109 84.098 662.591 84.098C662.073 84.098 661.604 84.014 661.184 83.846C660.769 83.6733 660.414 83.4283 660.12 83.111C659.826 82.7937 659.6 82.411 659.441 81.963C659.283 81.515 659.203 81.011 659.203 80.451C659.203 79.8957 659.283 79.394 659.441 78.946C659.6 78.4933 659.826 78.1083 660.12 77.791C660.414 77.4737 660.769 77.2287 661.184 77.056C661.604 76.8833 662.073 76.797 662.591 76.797ZM662.591 83.125C663.291 83.125 663.814 82.8917 664.159 82.425C664.505 81.9537 664.677 81.298 664.677 80.458C664.677 79.6133 664.505 78.9553 664.159 78.484C663.814 78.0127 663.291 77.777 662.591 77.777C662.237 77.777 661.929 77.8377 661.667 77.959C661.406 78.0803 661.187 78.2553 661.009 78.484C660.837 78.7127 660.706 78.995 660.617 79.331C660.533 79.6623 660.491 80.038 660.491 80.458C660.491 80.878 660.533 81.2537 660.617 81.585C660.706 81.9163 660.837 82.1963 661.009 82.425C661.187 82.649 661.406 82.8217 661.667 82.943C661.929 83.0643 662.237 83.125 662.591 83.125ZM667.501 84V76.909H668.243C668.42 76.909 668.532 76.9953 668.579 77.168L668.677 77.938C668.985 77.5973 669.328 77.322 669.706 77.112C670.088 76.902 670.529 76.797 671.029 76.797C671.416 76.797 671.757 76.8623 672.051 76.993C672.349 77.119 672.597 77.301 672.793 77.539C672.993 77.7723 673.145 78.0547 673.248 78.386C673.35 78.7173 673.402 79.0837 673.402 79.485V84H672.156V79.485C672.156 78.9483 672.032 78.533 671.785 78.239C671.542 77.9403 671.169 77.791 670.665 77.791C670.296 77.791 669.951 77.8797 669.629 78.057C669.311 78.2343 669.017 78.4747 668.747 78.778V84H667.501ZM680.488 84H679.935C679.813 84 679.715 83.9813 679.641 83.944C679.566 83.9067 679.517 83.8273 679.494 83.706L679.354 83.048C679.167 83.216 678.985 83.3677 678.808 83.503C678.63 83.6337 678.444 83.7457 678.248 83.839C678.052 83.9277 677.842 83.9953 677.618 84.042C677.398 84.0887 677.153 84.112 676.883 84.112C676.607 84.112 676.348 84.0747 676.106 84C675.868 83.9207 675.66 83.804 675.483 83.65C675.305 83.496 675.163 83.3023 675.056 83.069C674.953 82.831 674.902 82.551 674.902 82.229C674.902 81.949 674.979 81.6807 675.133 81.424C675.287 81.1627 675.534 80.9317 675.875 80.731C676.22 80.5303 676.67 80.367 677.226 80.241C677.781 80.1103 678.46 80.0357 679.263 80.017V79.464C679.263 78.9133 679.144 78.498 678.906 78.218C678.672 77.9333 678.325 77.791 677.863 77.791C677.559 77.791 677.303 77.8307 677.093 77.91C676.887 77.9847 676.708 78.071 676.554 78.169C676.404 78.2623 676.274 78.3487 676.162 78.428C676.054 78.5027 675.947 78.54 675.84 78.54C675.756 78.54 675.681 78.519 675.616 78.477C675.555 78.4303 675.506 78.3743 675.469 78.309L675.245 77.91C675.637 77.532 676.059 77.2497 676.512 77.063C676.964 76.8763 677.466 76.783 678.017 76.783C678.413 76.783 678.766 76.8483 679.074 76.979C679.382 77.1097 679.641 77.2917 679.851 77.525C680.061 77.7583 680.219 78.0407 680.327 78.372C680.434 78.7033 680.488 79.0673 680.488 79.464V84ZM677.254 83.237C677.473 83.237 677.674 83.216 677.856 83.174C678.038 83.1273 678.208 83.0643 678.367 82.985C678.53 82.901 678.684 82.8007 678.829 82.684C678.978 82.5673 679.123 82.4343 679.263 82.285V80.808C678.689 80.8267 678.201 80.8733 677.8 80.948C677.398 81.018 677.072 81.1113 676.82 81.228C676.568 81.3447 676.383 81.4823 676.267 81.641C676.155 81.7997 676.099 81.977 676.099 82.173C676.099 82.3597 676.129 82.5207 676.19 82.656C676.25 82.7913 676.332 82.9033 676.435 82.992C676.537 83.076 676.659 83.139 676.799 83.181C676.939 83.2183 677.09 83.237 677.254 83.237ZM683.762 73.689V84H682.516V73.689H683.762ZM692.725 78.078C692.669 78.1807 692.582 78.232 692.466 78.232C692.396 78.232 692.316 78.2063 692.228 78.155C692.139 78.1037 692.029 78.0477 691.899 77.987C691.773 77.9217 691.621 77.8633 691.444 77.812C691.266 77.756 691.056 77.728 690.814 77.728C690.604 77.728 690.415 77.756 690.247 77.812C690.079 77.8633 689.934 77.9357 689.813 78.029C689.696 78.1223 689.605 78.232 689.54 78.358C689.479 78.4793 689.449 78.6123 689.449 78.757C689.449 78.939 689.5 79.0907 689.603 79.212C689.71 79.3333 689.85 79.4383 690.023 79.527C690.195 79.6157 690.391 79.695 690.611 79.765C690.83 79.8303 691.054 79.9027 691.283 79.982C691.516 80.0567 691.742 80.1407 691.962 80.234C692.181 80.3273 692.377 80.444 692.55 80.584C692.722 80.724 692.86 80.8967 692.963 81.102C693.07 81.3027 693.124 81.5453 693.124 81.83C693.124 82.1567 693.065 82.46 692.949 82.74C692.832 83.0153 692.659 83.2557 692.431 83.461C692.202 83.6617 691.922 83.8203 691.591 83.937C691.259 84.0537 690.877 84.112 690.443 84.112C689.948 84.112 689.5 84.0327 689.099 83.874C688.697 83.7107 688.357 83.503 688.077 83.251L688.371 82.775C688.408 82.7143 688.452 82.6677 688.504 82.635C688.555 82.6023 688.623 82.586 688.707 82.586C688.791 82.586 688.879 82.6187 688.973 82.684C689.066 82.7493 689.178 82.8217 689.309 82.901C689.444 82.9803 689.605 83.0527 689.792 83.118C689.983 83.1833 690.221 83.216 690.506 83.216C690.748 83.216 690.961 83.1857 691.143 83.125C691.325 83.0597 691.476 82.9733 691.598 82.866C691.719 82.7587 691.808 82.635 691.864 82.495C691.924 82.355 691.955 82.2057 691.955 82.047C691.955 81.851 691.901 81.69 691.794 81.564C691.691 81.4333 691.553 81.3237 691.381 81.235C691.208 81.1417 691.01 81.0623 690.786 80.997C690.566 80.927 690.34 80.8547 690.107 80.78C689.878 80.7053 689.652 80.6213 689.428 80.528C689.208 80.43 689.012 80.3087 688.84 80.164C688.667 80.0193 688.527 79.842 688.42 79.632C688.317 79.4173 688.266 79.1583 688.266 78.855C688.266 78.5843 688.322 78.3253 688.434 78.078C688.546 77.826 688.709 77.6067 688.924 77.42C689.138 77.2287 689.402 77.077 689.715 76.965C690.027 76.853 690.384 76.797 690.786 76.797C691.252 76.797 691.67 76.8717 692.039 77.021C692.412 77.1657 692.734 77.3663 693.005 77.623L692.725 78.078ZM695.813 76.909V81.431C695.813 81.9677 695.937 82.383 696.184 82.677C696.431 82.971 696.805 83.118 697.304 83.118C697.668 83.118 698.011 83.0317 698.333 82.859C698.655 82.6863 698.951 82.446 699.222 82.138V76.909H700.468V84H699.726C699.549 84 699.437 83.9137 699.39 83.741L699.292 82.978C698.984 83.3187 698.639 83.594 698.256 83.804C697.873 84.0093 697.435 84.112 696.94 84.112C696.553 84.112 696.21 84.049 695.911 83.923C695.617 83.7923 695.37 83.6103 695.169 83.377C694.968 83.1437 694.817 82.8613 694.714 82.53C694.616 82.1987 694.567 81.8323 694.567 81.431V76.909H695.813ZM702.514 84V76.909H703.256C703.434 76.909 703.546 76.9953 703.592 77.168L703.683 77.896C703.945 77.574 704.236 77.3103 704.558 77.105C704.885 76.8997 705.263 76.797 705.692 76.797C706.173 76.797 706.56 76.93 706.854 77.196C707.153 77.462 707.368 77.8213 707.498 78.274C707.596 78.0173 707.725 77.7957 707.883 77.609C708.047 77.4223 708.229 77.2683 708.429 77.147C708.63 77.0257 708.842 76.937 709.066 76.881C709.295 76.825 709.526 76.797 709.759 76.797C710.133 76.797 710.464 76.8577 710.753 76.979C711.047 77.0957 711.295 77.2683 711.495 77.497C711.701 77.7257 711.857 78.008 711.964 78.344C712.072 78.6753 712.125 79.0557 712.125 79.485V84H710.879V79.485C710.879 78.9297 710.758 78.5097 710.515 78.225C710.273 77.9357 709.92 77.791 709.458 77.791C709.253 77.791 709.057 77.8283 708.87 77.903C708.688 77.973 708.527 78.078 708.387 78.218C708.247 78.358 708.135 78.5353 708.051 78.75C707.972 78.96 707.932 79.205 707.932 79.485V84H706.686V79.485C706.686 78.9157 706.572 78.491 706.343 78.211C706.115 77.931 705.781 77.791 705.342 77.791C705.034 77.791 704.747 77.875 704.481 78.043C704.22 78.2063 703.98 78.4303 703.76 78.715V84H702.514ZM714.012 84V76.909H714.754C714.932 76.909 715.044 76.9953 715.09 77.168L715.181 77.896C715.443 77.574 715.734 77.3103 716.056 77.105C716.383 76.8997 716.761 76.797 717.19 76.797C717.671 76.797 718.058 76.93 718.352 77.196C718.651 77.462 718.866 77.8213 718.996 78.274C719.094 78.0173 719.223 77.7957 719.381 77.609C719.545 77.4223 719.727 77.2683 719.927 77.147C720.128 77.0257 720.34 76.937 720.564 76.881C720.793 76.825 721.024 76.797 721.257 76.797C721.631 76.797 721.962 76.8577 722.251 76.979C722.545 77.0957 722.793 77.2683 722.993 77.497C723.199 77.7257 723.355 78.008 723.462 78.344C723.57 78.6753 723.623 79.0557 723.623 79.485V84H722.377V79.485C722.377 78.9297 722.256 78.5097 722.013 78.225C721.771 77.9357 721.418 77.791 720.956 77.791C720.751 77.791 720.555 77.8283 720.368 77.903C720.186 77.973 720.025 78.078 719.885 78.218C719.745 78.358 719.633 78.5353 719.549 78.75C719.47 78.96 719.43 79.205 719.43 79.485V84H718.184V79.485C718.184 78.9157 718.07 78.491 717.841 78.211C717.613 77.931 717.279 77.791 716.84 77.791C716.532 77.791 716.245 77.875 715.979 78.043C715.718 78.2063 715.478 78.4303 715.258 78.715V84H714.012ZM730.718 84H730.165C730.044 84 729.946 83.9813 729.871 83.944C729.797 83.9067 729.748 83.8273 729.724 83.706L729.584 83.048C729.398 83.216 729.216 83.3677 729.038 83.503C728.861 83.6337 728.674 83.7457 728.478 83.839C728.282 83.9277 728.072 83.9953 727.848 84.042C727.629 84.0887 727.384 84.112 727.113 84.112C726.838 84.112 726.579 84.0747 726.336 84C726.098 83.9207 725.891 83.804 725.713 83.65C725.536 83.496 725.394 83.3023 725.286 83.069C725.184 82.831 725.132 82.551 725.132 82.229C725.132 81.949 725.209 81.6807 725.363 81.424C725.517 81.1627 725.765 80.9317 726.105 80.731C726.451 80.5303 726.901 80.367 727.456 80.241C728.012 80.1103 728.691 80.0357 729.493 80.017V79.464C729.493 78.9133 729.374 78.498 729.136 78.218C728.903 77.9333 728.555 77.791 728.093 77.791C727.79 77.791 727.533 77.8307 727.323 77.91C727.118 77.9847 726.938 78.071 726.784 78.169C726.635 78.2623 726.504 78.3487 726.392 78.428C726.285 78.5027 726.178 78.54 726.07 78.54C725.986 78.54 725.912 78.519 725.846 78.477C725.786 78.4303 725.737 78.3743 725.699 78.309L725.475 77.91C725.867 77.532 726.29 77.2497 726.742 77.063C727.195 76.8763 727.697 76.783 728.247 76.783C728.644 76.783 728.996 76.8483 729.304 76.979C729.612 77.1097 729.871 77.2917 730.081 77.525C730.291 77.7583 730.45 78.0407 730.557 78.372C730.665 78.7033 730.718 79.0673 730.718 79.464V84ZM727.484 83.237C727.704 83.237 727.904 83.216 728.086 83.174C728.268 83.1273 728.439 83.0643 728.597 82.985C728.761 82.901 728.915 82.8007 729.059 82.684C729.209 82.5673 729.353 82.4343 729.493 82.285V80.808C728.919 80.8267 728.432 80.8733 728.03 80.948C727.629 81.018 727.302 81.1113 727.05 81.228C726.798 81.3447 726.614 81.4823 726.497 81.641C726.385 81.7997 726.329 81.977 726.329 82.173C726.329 82.3597 726.36 82.5207 726.42 82.656C726.481 82.7913 726.563 82.9033 726.665 82.992C726.768 83.076 726.889 83.139 727.029 83.181C727.169 83.2183 727.321 83.237 727.484 83.237ZM732.606 84V76.909H733.32C733.455 76.909 733.549 76.9347 733.6 76.986C733.651 77.0373 733.686 77.126 733.705 77.252L733.789 78.358C734.032 77.8633 734.33 77.4783 734.685 77.203C735.044 76.923 735.464 76.783 735.945 76.783C736.141 76.783 736.318 76.8063 736.477 76.853C736.636 76.895 736.783 76.9557 736.918 77.035L736.757 77.966C736.724 78.0827 736.652 78.141 736.54 78.141C736.475 78.141 736.374 78.12 736.239 78.078C736.104 78.0313 735.915 78.008 735.672 78.008C735.238 78.008 734.874 78.134 734.58 78.386C734.291 78.638 734.048 79.0043 733.852 79.485V84H732.606ZM740.331 86.093C740.289 86.1863 740.236 86.261 740.17 86.317C740.11 86.373 740.014 86.401 739.883 86.401H738.959L740.254 83.587L737.328 76.909H738.406C738.514 76.909 738.598 76.937 738.658 76.993C738.719 77.0443 738.763 77.1027 738.791 77.168L740.688 81.634C740.73 81.7367 740.765 81.8393 740.793 81.942C740.826 82.0447 740.854 82.1497 740.877 82.257C740.91 82.1497 740.943 82.0447 740.975 81.942C741.008 81.8393 741.045 81.7343 741.087 81.627L742.928 77.168C742.956 77.0933 743.003 77.0327 743.068 76.986C743.138 76.9347 743.213 76.909 743.292 76.909H744.286L740.331 86.093Z" fill="#6A6A6A"/>
<rect x="708" y="1" width="38" height="38" rx="19" stroke="#0064D1"/>
<path d="M726.319 13.408C726.805 13.408 727.253 13.4773 727.663 13.616C728.074 13.7547 728.426 13.952 728.719 14.208C729.018 14.464 729.25 14.7733 729.415 15.136C729.581 15.4987 729.663 15.9013 729.663 16.344C729.663 16.7067 729.615 17.032 729.519 17.32C729.429 17.6027 729.295 17.8533 729.119 18.072C728.949 18.2853 728.741 18.4667 728.495 18.616C728.25 18.7653 727.975 18.8853 727.671 18.976C728.418 19.1733 728.978 19.504 729.351 19.968C729.73 20.432 729.919 21.0133 729.919 21.712C729.919 22.24 729.818 22.7147 729.615 23.136C729.418 23.5573 729.146 23.9173 728.799 24.216C728.453 24.5093 728.047 24.736 727.583 24.896C727.125 25.0507 726.631 25.128 726.103 25.128C725.495 25.128 724.975 25.0533 724.543 24.904C724.111 24.7493 723.746 24.5387 723.447 24.272C723.149 24.0053 722.903 23.6907 722.711 23.328C722.519 22.96 722.357 22.5627 722.223 22.136L722.831 21.88C722.943 21.832 723.055 21.808 723.167 21.808C723.274 21.808 723.367 21.832 723.447 21.88C723.533 21.9227 723.597 21.992 723.639 22.088C723.65 22.1093 723.661 22.1333 723.671 22.16C723.682 22.1813 723.693 22.2053 723.703 22.232C723.778 22.3867 723.869 22.5627 723.975 22.76C724.082 22.952 724.226 23.1333 724.407 23.304C724.589 23.4747 724.813 23.6187 725.079 23.736C725.351 23.8533 725.687 23.912 726.087 23.912C726.487 23.912 726.837 23.848 727.135 23.72C727.439 23.5867 727.69 23.416 727.887 23.208C728.09 23 728.242 22.768 728.343 22.512C728.445 22.256 728.495 22.0027 728.495 21.752C728.495 21.4427 728.453 21.16 728.367 20.904C728.287 20.648 728.138 20.4267 727.919 20.24C727.706 20.0533 727.407 19.9067 727.023 19.8C726.645 19.6933 726.157 19.64 725.559 19.64V18.608C726.045 18.6027 726.458 18.5493 726.799 18.448C727.146 18.3467 727.429 18.208 727.647 18.032C727.866 17.856 728.023 17.6453 728.119 17.4C728.221 17.1547 728.271 16.8827 728.271 16.584C728.271 16.2533 728.218 15.9653 728.111 15.72C728.01 15.4747 727.869 15.272 727.687 15.112C727.506 14.952 727.29 14.832 727.039 14.752C726.794 14.672 726.527 14.632 726.239 14.632C725.951 14.632 725.685 14.6747 725.439 14.76C725.194 14.8453 724.975 14.9653 724.783 15.12C724.597 15.2693 724.439 15.4507 724.311 15.664C724.183 15.872 724.087 16.0987 724.023 16.344C723.981 16.4987 723.917 16.6107 723.831 16.68C723.746 16.7493 723.637 16.784 723.503 16.784C723.477 16.784 723.447 16.784 723.415 16.784C723.389 16.7787 723.357 16.7733 723.319 16.768L722.575 16.64C722.65 16.1173 722.794 15.656 723.007 15.256C723.221 14.8507 723.49 14.512 723.815 14.24C724.146 13.968 724.522 13.7627 724.943 13.624C725.37 13.48 725.829 13.408 726.319 13.408Z" fill="#0064D1"/>
<path d="M9.456 53.536V54.8H3.952V58.808H8.656V60.072H3.952V65H2.392V53.536H9.456ZM12.8145 56.896V65H11.3905V56.896H12.8145ZM13.1345 54.352C13.1345 54.4907 13.1052 54.6213 13.0465 54.744C12.9932 54.8613 12.9185 54.968 12.8225 55.064C12.7318 55.1547 12.6252 55.2267 12.5025 55.28C12.3798 55.3333 12.2492 55.36 12.1105 55.36C11.9718 55.36 11.8412 55.3333 11.7185 55.28C11.6012 55.2267 11.4945 55.1547 11.3985 55.064C11.3078 54.968 11.2358 54.8613 11.1825 54.744C11.1292 54.6213 11.1025 54.4907 11.1025 54.352C11.1025 54.2133 11.1292 54.0827 11.1825 53.96C11.2358 53.832 11.3078 53.7227 11.3985 53.632C11.4945 53.536 11.6012 53.4613 11.7185 53.408C11.8412 53.3547 11.9718 53.328 12.1105 53.328C12.2492 53.328 12.3798 53.3547 12.5025 53.408C12.6252 53.4613 12.7318 53.536 12.8225 53.632C12.9185 53.7227 12.9932 53.832 13.0465 53.96C13.1052 54.0827 13.1345 54.2133 13.1345 54.352ZM15.3243 65V56.896H16.1403C16.2949 56.896 16.4016 56.9253 16.4603 56.984C16.5189 57.0427 16.5589 57.144 16.5803 57.288L16.6763 58.552C16.9536 57.9867 17.2949 57.5467 17.7003 57.232C18.1109 56.912 18.5909 56.752 19.1403 56.752C19.3643 56.752 19.5669 56.7787 19.7483 56.832C19.9296 56.88 20.0976 56.9493 20.2523 57.04L20.0683 58.104C20.0309 58.2373 19.9483 58.304 19.8203 58.304C19.7456 58.304 19.6309 58.28 19.4763 58.232C19.3216 58.1787 19.1056 58.152 18.8283 58.152C18.3323 58.152 17.9163 58.296 17.5803 58.584C17.2496 58.872 16.9723 59.2907 16.7483 59.84V65H15.3243ZM26.4174 58.232C26.3534 58.3493 26.2547 58.408 26.1214 58.408C26.0414 58.408 25.9507 58.3787 25.8494 58.32C25.748 58.2613 25.6227 58.1973 25.4734 58.128C25.3294 58.0533 25.156 57.9867 24.9534 57.928C24.7507 57.864 24.5107 57.832 24.2334 57.832C23.9934 57.832 23.7774 57.864 23.5854 57.928C23.3934 57.9867 23.228 58.0693 23.0894 58.176C22.956 58.2827 22.852 58.408 22.7774 58.552C22.708 58.6907 22.6734 58.8427 22.6734 59.008C22.6734 59.216 22.732 59.3893 22.8494 59.528C22.972 59.6667 23.132 59.7867 23.3294 59.888C23.5267 59.9893 23.7507 60.08 24.0014 60.16C24.252 60.2347 24.508 60.3173 24.7694 60.408C25.036 60.4933 25.2947 60.5893 25.5454 60.696C25.796 60.8027 26.02 60.936 26.2174 61.096C26.4147 61.256 26.572 61.4533 26.6894 61.688C26.812 61.9173 26.8734 62.1947 26.8734 62.52C26.8734 62.8933 26.8067 63.24 26.6734 63.56C26.54 63.8747 26.3427 64.1493 26.0814 64.384C25.82 64.6133 25.5 64.7947 25.1214 64.928C24.7427 65.0613 24.3054 65.128 23.8094 65.128C23.244 65.128 22.732 65.0373 22.2734 64.856C21.8147 64.6693 21.4254 64.432 21.1054 64.144L21.4414 63.6C21.484 63.5307 21.5347 63.4773 21.5934 63.44C21.652 63.4027 21.7294 63.384 21.8254 63.384C21.9214 63.384 22.0227 63.4213 22.1294 63.496C22.236 63.5707 22.364 63.6533 22.5134 63.744C22.668 63.8347 22.852 63.9173 23.0654 63.992C23.284 64.0667 23.556 64.104 23.8814 64.104C24.1587 64.104 24.4014 64.0693 24.6094 64C24.8174 63.9253 24.9907 63.8267 25.1294 63.704C25.268 63.5813 25.3694 63.44 25.4334 63.28C25.5027 63.12 25.5374 62.9493 25.5374 62.768C25.5374 62.544 25.476 62.36 25.3534 62.216C25.236 62.0667 25.0787 61.9413 24.8814 61.84C24.684 61.7333 24.4574 61.6427 24.2014 61.568C23.9507 61.488 23.692 61.4053 23.4254 61.32C23.164 61.2347 22.9054 61.1387 22.6494 61.032C22.3987 60.92 22.1747 60.7813 21.9774 60.616C21.78 60.4507 21.62 60.248 21.4974 60.008C21.38 59.7627 21.3214 59.4667 21.3214 59.12C21.3214 58.8107 21.3854 58.5147 21.5134 58.232C21.6414 57.944 21.828 57.6933 22.0734 57.48C22.3187 57.2613 22.62 57.088 22.9774 56.96C23.3347 56.832 23.7427 56.768 24.2014 56.768C24.7347 56.768 25.212 56.8533 25.6334 57.024C26.06 57.1893 26.428 57.4187 26.7374 57.712L26.4174 58.232ZM31.1709 65.128C30.5309 65.128 30.0375 64.9493 29.6909 64.592C29.3495 64.2347 29.1789 63.72 29.1789 63.048V58.088H28.2029C28.1175 58.088 28.0455 58.064 27.9869 58.016C27.9282 57.9627 27.8989 57.8827 27.8989 57.776V57.208L29.2269 57.04L29.5549 54.536C29.5655 54.456 29.6002 54.392 29.6589 54.344C29.7175 54.2907 29.7922 54.264 29.8829 54.264H30.6029V57.056H32.9229V58.088H30.6029V62.952C30.6029 63.2933 30.6855 63.5467 30.8509 63.712C31.0162 63.8773 31.2295 63.96 31.4909 63.96C31.6402 63.96 31.7682 63.9413 31.8749 63.904C31.9869 63.8613 32.0829 63.816 32.1629 63.768C32.2429 63.72 32.3095 63.6773 32.3629 63.64C32.4215 63.5973 32.4722 63.576 32.5149 63.576C32.5895 63.576 32.6562 63.6213 32.7149 63.712L33.1309 64.392C32.8855 64.6213 32.5895 64.8027 32.2429 64.936C31.8962 65.064 31.5389 65.128 31.1709 65.128ZM43.8734 55.328C43.8254 55.408 43.7747 55.4693 43.7214 55.512C43.668 55.5493 43.5987 55.568 43.5134 55.568C43.4227 55.568 43.316 55.5227 43.1934 55.432C43.076 55.3413 42.924 55.2427 42.7374 55.136C42.556 55.024 42.3347 54.9227 42.0734 54.832C41.8174 54.7413 41.5054 54.696 41.1374 54.696C40.7907 54.696 40.484 54.744 40.2174 54.84C39.9507 54.9307 39.7267 55.056 39.5454 55.216C39.3694 55.376 39.236 55.5653 39.1454 55.784C39.0547 55.9973 39.0094 56.2293 39.0094 56.48C39.0094 56.8 39.0867 57.0667 39.2414 57.28C39.4014 57.488 39.6094 57.6667 39.8654 57.816C40.1267 57.9653 40.42 58.096 40.7454 58.208C41.076 58.3147 41.412 58.4267 41.7534 58.544C42.1 58.6613 42.436 58.7947 42.7614 58.944C43.092 59.088 43.3854 59.272 43.6414 59.496C43.9027 59.72 44.1107 59.9947 44.2654 60.32C44.4254 60.6453 44.5054 61.0453 44.5054 61.52C44.5054 62.0213 44.42 62.4933 44.2494 62.936C44.0787 63.3733 43.828 63.7547 43.4974 64.08C43.172 64.4053 42.7694 64.6613 42.2894 64.848C41.8147 65.0347 41.2734 65.128 40.6654 65.128C39.924 65.128 39.2467 64.9947 38.6334 64.728C38.0254 64.456 37.5054 64.0907 37.0734 63.632L37.5214 62.896C37.564 62.8373 37.6147 62.7893 37.6734 62.752C37.7374 62.7093 37.8067 62.688 37.8814 62.688C37.9934 62.688 38.1214 62.7493 38.2654 62.872C38.4094 62.9893 38.588 63.12 38.8014 63.264C39.02 63.408 39.2814 63.5413 39.5854 63.664C39.8947 63.7813 40.2707 63.84 40.7134 63.84C41.0814 63.84 41.4094 63.7893 41.6974 63.688C41.9854 63.5867 42.228 63.4453 42.4254 63.264C42.628 63.0773 42.7827 62.856 42.8894 62.6C42.996 62.344 43.0494 62.0587 43.0494 61.744C43.0494 61.3973 42.9694 61.1147 42.8094 60.896C42.6547 60.672 42.4494 60.4853 42.1934 60.336C41.9374 60.1867 41.644 60.0613 41.3134 59.96C40.988 59.8533 40.652 59.7467 40.3054 59.64C39.964 59.528 39.628 59.4 39.2974 59.256C38.972 59.112 38.6814 58.9253 38.4254 58.696C38.1694 58.4667 37.9614 58.1813 37.8014 57.84C37.6467 57.4933 37.5694 57.0667 37.5694 56.56C37.5694 56.1547 37.6467 55.7627 37.8014 55.384C37.9614 55.0053 38.1907 54.6693 38.4894 54.376C38.788 54.0827 39.156 53.848 39.5934 53.672C40.036 53.496 40.5427 53.408 41.1134 53.408C41.7534 53.408 42.3374 53.5093 42.8654 53.712C43.3934 53.9147 43.8547 54.208 44.2494 54.592L43.8734 55.328ZM48.7178 65.128C48.0778 65.128 47.5844 64.9493 47.2378 64.592C46.8964 64.2347 46.7258 63.72 46.7258 63.048V58.088H45.7498C45.6644 58.088 45.5924 58.064 45.5338 58.016C45.4751 57.9627 45.4458 57.8827 45.4458 57.776V57.208L46.7738 57.04L47.1018 54.536C47.1124 54.456 47.1471 54.392 47.2057 54.344C47.2644 54.2907 47.3391 54.264 47.4298 54.264H48.1498V57.056H50.4698V58.088H48.1498V62.952C48.1498 63.2933 48.2324 63.5467 48.3978 63.712C48.5631 63.8773 48.7764 63.96 49.0378 63.96C49.1871 63.96 49.3151 63.9413 49.4218 63.904C49.5338 63.8613 49.6298 63.816 49.7098 63.768C49.7898 63.72 49.8564 63.6773 49.9098 63.64C49.9684 63.5973 50.0191 63.576 50.0618 63.576C50.1364 63.576 50.2031 63.6213 50.2618 63.712L50.6778 64.392C50.4324 64.6213 50.1364 64.8027 49.7898 64.936C49.4431 65.064 49.0858 65.128 48.7178 65.128ZM55.4385 56.768C55.9238 56.768 56.3718 56.8507 56.7825 57.016C57.1932 57.176 57.5478 57.4107 57.8465 57.72C58.1452 58.024 58.3772 58.4027 58.5425 58.856C58.7132 59.304 58.7985 59.816 58.7985 60.392C58.7985 60.616 58.7745 60.7653 58.7265 60.84C58.6785 60.9147 58.5878 60.952 58.4545 60.952H53.0625C53.0732 61.464 53.1425 61.9093 53.2705 62.288C53.3985 62.6667 53.5745 62.984 53.7985 63.24C54.0225 63.4907 54.2892 63.68 54.5985 63.808C54.9078 63.9307 55.2545 63.992 55.6385 63.992C55.9958 63.992 56.3025 63.952 56.5585 63.872C56.8198 63.7867 57.0438 63.696 57.2305 63.6C57.4172 63.504 57.5718 63.416 57.6945 63.336C57.8225 63.2507 57.9318 63.208 58.0225 63.208C58.1398 63.208 58.2305 63.2533 58.2945 63.344L58.6945 63.864C58.5185 64.0773 58.3078 64.264 58.0625 64.424C57.8172 64.5787 57.5532 64.7067 57.2705 64.808C56.9932 64.9093 56.7052 64.984 56.4065 65.032C56.1078 65.0853 55.8118 65.112 55.5185 65.112C54.9585 65.112 54.4412 65.0187 53.9665 64.832C53.4972 64.64 53.0892 64.3627 52.7425 64C52.4012 63.632 52.1345 63.1787 51.9425 62.64C51.7505 62.1013 51.6545 61.4827 51.6545 60.784C51.6545 60.2187 51.7398 59.6907 51.9105 59.2C52.0865 58.7093 52.3372 58.2853 52.6625 57.928C52.9878 57.5653 53.3852 57.2827 53.8545 57.08C54.3238 56.872 54.8518 56.768 55.4385 56.768ZM55.4705 57.816C54.7825 57.816 54.2412 58.016 53.8465 58.416C53.4518 58.8107 53.2065 59.36 53.1105 60.064H57.5185C57.5185 59.7333 57.4732 59.432 57.3825 59.16C57.2918 58.8827 57.1585 58.6453 56.9825 58.448C56.8065 58.2453 56.5905 58.0907 56.3345 57.984C56.0838 57.872 55.7958 57.816 55.4705 57.816ZM60.6211 67.744V56.896H61.4691C61.6718 56.896 61.7998 56.9947 61.8531 57.192L61.9731 58.152C62.3198 57.7307 62.7145 57.392 63.1571 57.136C63.6051 56.88 64.1198 56.752 64.7011 56.752C65.1651 56.752 65.5865 56.8427 65.9651 57.024C66.3438 57.2 66.6665 57.464 66.9331 57.816C67.1998 58.1627 67.4051 58.5947 67.5491 59.112C67.6931 59.6293 67.7651 60.224 67.7651 60.896C67.7651 61.4933 67.6851 62.0507 67.5251 62.568C67.3651 63.08 67.1358 63.5253 66.8371 63.904C66.5385 64.2773 66.1705 64.5733 65.7331 64.792C65.3011 65.0053 64.8131 65.112 64.2691 65.112C63.7678 65.112 63.3385 65.0293 62.9811 64.864C62.6291 64.6987 62.3171 64.464 62.0451 64.16V67.744H60.6211ZM64.2291 57.904C63.7651 57.904 63.3571 58.0107 63.0051 58.224C62.6585 58.4373 62.3385 58.7387 62.0451 59.128V63.048C62.3065 63.4 62.5918 63.648 62.9011 63.792C63.2158 63.936 63.5651 64.008 63.9491 64.008C64.7011 64.008 65.2798 63.7387 65.6851 63.2C66.0905 62.6613 66.2931 61.8933 66.2931 60.896C66.2931 60.368 66.2451 59.9147 66.1491 59.536C66.0585 59.1573 65.9251 58.848 65.7491 58.608C65.5731 58.3627 65.3571 58.184 65.1011 58.072C64.8451 57.96 64.5545 57.904 64.2291 57.904ZM74.999 65.128C74.359 65.128 73.8657 64.9493 73.519 64.592C73.1777 64.2347 73.007 63.72 73.007 63.048V58.088H72.031C71.9457 58.088 71.8737 58.064 71.815 58.016C71.7563 57.9627 71.727 57.8827 71.727 57.776V57.208L73.055 57.04L73.383 54.536C73.3937 54.456 73.4283 54.392 73.487 54.344C73.5457 54.2907 73.6203 54.264 73.711 54.264H74.431V57.056H76.751V58.088H74.431V62.952C74.431 63.2933 74.5137 63.5467 74.679 63.712C74.8443 63.8773 75.0577 63.96 75.319 63.96C75.4683 63.96 75.5963 63.9413 75.703 63.904C75.815 63.8613 75.911 63.816 75.991 63.768C76.071 63.72 76.1377 63.6773 76.191 63.64C76.2497 63.5973 76.3003 63.576 76.343 63.576C76.4177 63.576 76.4843 63.6213 76.543 63.712L76.959 64.392C76.7137 64.6213 76.4177 64.8027 76.071 64.936C75.7243 65.064 75.367 65.128 74.999 65.128ZM80.0958 56.896V65H78.6718V56.896H80.0958ZM80.4158 54.352C80.4158 54.4907 80.3864 54.6213 80.3278 54.744C80.2744 54.8613 80.1998 54.968 80.1038 55.064C80.0131 55.1547 79.9064 55.2267 79.7838 55.28C79.6611 55.3333 79.5304 55.36 79.3918 55.36C79.2531 55.36 79.1224 55.3333 78.9998 55.28C78.8824 55.2267 78.7758 55.1547 78.6798 55.064C78.5891 54.968 78.5171 54.8613 78.4638 54.744C78.4104 54.6213 78.3838 54.4907 78.3838 54.352C78.3838 54.2133 78.4104 54.0827 78.4638 53.96C78.5171 53.832 78.5891 53.7227 78.6798 53.632C78.7758 53.536 78.8824 53.4613 78.9998 53.408C79.1224 53.3547 79.2531 53.328 79.3918 53.328C79.5304 53.328 79.6611 53.3547 79.7838 53.408C79.9064 53.4613 80.0131 53.536 80.1038 53.632C80.1998 53.7227 80.2744 53.832 80.3278 53.96C80.3864 54.0827 80.4158 54.2133 80.4158 54.352ZM85.0615 65.128C84.4215 65.128 83.9282 64.9493 83.5815 64.592C83.2402 64.2347 83.0695 63.72 83.0695 63.048V58.088H82.0935C82.0082 58.088 81.9362 58.064 81.8775 58.016C81.8188 57.9627 81.7895 57.8827 81.7895 57.776V57.208L83.1175 57.04L83.4455 54.536C83.4562 54.456 83.4908 54.392 83.5495 54.344C83.6082 54.2907 83.6828 54.264 83.7735 54.264H84.4935V57.056H86.8135V58.088H84.4935V62.952C84.4935 63.2933 84.5762 63.5467 84.7415 63.712C84.9068 63.8773 85.1202 63.96 85.3815 63.96C85.5308 63.96 85.6588 63.9413 85.7655 63.904C85.8775 63.8613 85.9735 63.816 86.0535 63.768C86.1335 63.72 86.2002 63.6773 86.2535 63.64C86.3122 63.5973 86.3628 63.576 86.4055 63.576C86.4802 63.576 86.5468 63.6213 86.6055 63.712L87.0215 64.392C86.7762 64.6213 86.4802 64.8027 86.1335 64.936C85.7868 65.064 85.4295 65.128 85.0615 65.128ZM90.1583 53.216V65H88.7343V53.216H90.1583ZM95.876 56.768C96.3613 56.768 96.8093 56.8507 97.22 57.016C97.6307 57.176 97.9853 57.4107 98.284 57.72C98.5827 58.024 98.8147 58.4027 98.98 58.856C99.1507 59.304 99.236 59.816 99.236 60.392C99.236 60.616 99.212 60.7653 99.164 60.84C99.116 60.9147 99.0253 60.952 98.892 60.952H93.5C93.5107 61.464 93.58 61.9093 93.708 62.288C93.836 62.6667 94.012 62.984 94.236 63.24C94.46 63.4907 94.7267 63.68 95.036 63.808C95.3453 63.9307 95.692 63.992 96.076 63.992C96.4333 63.992 96.74 63.952 96.996 63.872C97.2573 63.7867 97.4813 63.696 97.668 63.6C97.8547 63.504 98.0093 63.416 98.132 63.336C98.26 63.2507 98.3693 63.208 98.46 63.208C98.5773 63.208 98.668 63.2533 98.732 63.344L99.132 63.864C98.956 64.0773 98.7453 64.264 98.5 64.424C98.2547 64.5787 97.9907 64.7067 97.708 64.808C97.4307 64.9093 97.1427 64.984 96.844 65.032C96.5453 65.0853 96.2493 65.112 95.956 65.112C95.396 65.112 94.8787 65.0187 94.404 64.832C93.9347 64.64 93.5267 64.3627 93.18 64C92.8387 63.632 92.572 63.1787 92.38 62.64C92.188 62.1013 92.092 61.4827 92.092 60.784C92.092 60.2187 92.1773 59.6907 92.348 59.2C92.524 58.7093 92.7747 58.2853 93.1 57.928C93.4253 57.5653 93.8227 57.2827 94.292 57.08C94.7613 56.872 95.2893 56.768 95.876 56.768ZM95.908 57.816C95.22 57.816 94.6787 58.016 94.284 58.416C93.8893 58.8107 93.644 59.36 93.548 60.064H97.956C97.956 59.7333 97.9107 59.432 97.82 59.16C97.7293 58.8827 97.596 58.6453 97.42 58.448C97.244 58.2453 97.028 58.0907 96.772 57.984C96.5213 57.872 96.2333 57.816 95.908 57.816Z" fill="black"/>
<path d="M336.264 55.328C336.216 55.408 336.165 55.4693 336.112 55.512C336.059 55.5493 335.989 55.568 335.904 55.568C335.813 55.568 335.707 55.5227 335.584 55.432C335.467 55.3413 335.315 55.2427 335.128 55.136C334.947 55.024 334.725 54.9227 334.464 54.832C334.208 54.7413 333.896 54.696 333.528 54.696C333.181 54.696 332.875 54.744 332.608 54.84C332.341 54.9307 332.117 55.056 331.936 55.216C331.76 55.376 331.627 55.5653 331.536 55.784C331.445 55.9973 331.4 56.2293 331.4 56.48C331.4 56.8 331.477 57.0667 331.632 57.28C331.792 57.488 332 57.6667 332.256 57.816C332.517 57.9653 332.811 58.096 333.136 58.208C333.467 58.3147 333.803 58.4267 334.144 58.544C334.491 58.6613 334.827 58.7947 335.152 58.944C335.483 59.088 335.776 59.272 336.032 59.496C336.293 59.72 336.501 59.9947 336.656 60.32C336.816 60.6453 336.896 61.0453 336.896 61.52C336.896 62.0213 336.811 62.4933 336.64 62.936C336.469 63.3733 336.219 63.7547 335.888 64.08C335.563 64.4053 335.16 64.6613 334.68 64.848C334.205 65.0347 333.664 65.128 333.056 65.128C332.315 65.128 331.637 64.9947 331.024 64.728C330.416 64.456 329.896 64.0907 329.464 63.632L329.912 62.896C329.955 62.8373 330.005 62.7893 330.064 62.752C330.128 62.7093 330.197 62.688 330.272 62.688C330.384 62.688 330.512 62.7493 330.656 62.872C330.8 62.9893 330.979 63.12 331.192 63.264C331.411 63.408 331.672 63.5413 331.976 63.664C332.285 63.7813 332.661 63.84 333.104 63.84C333.472 63.84 333.8 63.7893 334.088 63.688C334.376 63.5867 334.619 63.4453 334.816 63.264C335.019 63.0773 335.173 62.856 335.28 62.6C335.387 62.344 335.44 62.0587 335.44 61.744C335.44 61.3973 335.36 61.1147 335.2 60.896C335.045 60.672 334.84 60.4853 334.584 60.336C334.328 60.1867 334.035 60.0613 333.704 59.96C333.379 59.8533 333.043 59.7467 332.696 59.64C332.355 59.528 332.019 59.4 331.688 59.256C331.363 59.112 331.072 58.9253 330.816 58.696C330.56 58.4667 330.352 58.1813 330.192 57.84C330.037 57.4933 329.96 57.0667 329.96 56.56C329.96 56.1547 330.037 55.7627 330.192 55.384C330.352 55.0053 330.581 54.6693 330.88 54.376C331.179 54.0827 331.547 53.848 331.984 53.672C332.427 53.496 332.933 53.408 333.504 53.408C334.144 53.408 334.728 53.5093 335.256 53.712C335.784 53.9147 336.245 54.208 336.64 54.592L336.264 55.328ZM341.86 56.768C342.346 56.768 342.794 56.8507 343.204 57.016C343.615 57.176 343.97 57.4107 344.268 57.72C344.567 58.024 344.799 58.4027 344.964 58.856C345.135 59.304 345.22 59.816 345.22 60.392C345.22 60.616 345.196 60.7653 345.148 60.84C345.1 60.9147 345.01 60.952 344.876 60.952H339.484C339.495 61.464 339.564 61.9093 339.692 62.288C339.82 62.6667 339.996 62.984 340.22 63.24C340.444 63.4907 340.711 63.68 341.02 63.808C341.33 63.9307 341.676 63.992 342.06 63.992C342.418 63.992 342.724 63.952 342.98 63.872C343.242 63.7867 343.466 63.696 343.652 63.6C343.839 63.504 343.994 63.416 344.116 63.336C344.244 63.2507 344.354 63.208 344.444 63.208C344.562 63.208 344.652 63.2533 344.716 63.344L345.116 63.864C344.94 64.0773 344.73 64.264 344.484 64.424C344.239 64.5787 343.975 64.7067 343.692 64.808C343.415 64.9093 343.127 64.984 342.828 65.032C342.53 65.0853 342.234 65.112 341.94 65.112C341.38 65.112 340.863 65.0187 340.388 64.832C339.919 64.64 339.511 64.3627 339.164 64C338.823 63.632 338.556 63.1787 338.364 62.64C338.172 62.1013 338.076 61.4827 338.076 60.784C338.076 60.2187 338.162 59.6907 338.332 59.2C338.508 58.7093 338.759 58.2853 339.084 57.928C339.41 57.5653 339.807 57.2827 340.276 57.08C340.746 56.872 341.274 56.768 341.86 56.768ZM341.892 57.816C341.204 57.816 340.663 58.016 340.268 58.416C339.874 58.8107 339.628 59.36 339.532 60.064H343.94C343.94 59.7333 343.895 59.432 343.804 59.16C343.714 58.8827 343.58 58.6453 343.404 58.448C343.228 58.2453 343.012 58.0907 342.756 57.984C342.506 57.872 342.218 57.816 341.892 57.816ZM352.571 58.336C352.528 58.3947 352.486 58.44 352.443 58.472C352.4 58.504 352.339 58.52 352.259 58.52C352.179 58.52 352.091 58.488 351.995 58.424C351.904 58.3547 351.787 58.28 351.643 58.2C351.499 58.12 351.323 58.048 351.115 57.984C350.912 57.9147 350.662 57.88 350.363 57.88C349.968 57.88 349.619 57.952 349.315 58.096C349.011 58.2347 348.755 58.4373 348.547 58.704C348.344 58.9707 348.19 59.2933 348.083 59.672C347.982 60.0507 347.931 60.4747 347.931 60.944C347.931 61.4347 347.987 61.872 348.099 62.256C348.211 62.6347 348.368 62.9547 348.571 63.216C348.774 63.472 349.019 63.6693 349.307 63.808C349.6 63.9413 349.928 64.008 350.291 64.008C350.638 64.008 350.923 63.968 351.147 63.888C351.371 63.8027 351.558 63.7093 351.707 63.608C351.856 63.5067 351.979 63.416 352.075 63.336C352.171 63.2507 352.267 63.208 352.363 63.208C352.486 63.208 352.576 63.2533 352.635 63.344L353.035 63.864C352.683 64.296 352.243 64.6133 351.715 64.816C351.187 65.0133 350.63 65.112 350.043 65.112C349.536 65.112 349.064 65.0187 348.627 64.832C348.195 64.6453 347.819 64.376 347.499 64.024C347.179 63.6667 346.926 63.2293 346.739 62.712C346.558 62.1947 346.467 61.6053 346.467 60.944C346.467 60.3413 346.55 59.784 346.715 59.272C346.886 58.76 347.131 58.32 347.451 57.952C347.776 57.5787 348.176 57.288 348.651 57.08C349.126 56.872 349.67 56.768 350.283 56.768C350.848 56.768 351.35 56.8613 351.787 57.048C352.224 57.2293 352.611 57.488 352.947 57.824L352.571 58.336ZM357.792 56.768C358.384 56.768 358.917 56.8667 359.392 57.064C359.872 57.2613 360.277 57.5413 360.608 57.904C360.944 58.2667 361.2 58.7067 361.376 59.224C361.557 59.736 361.648 60.3093 361.648 60.944C361.648 61.584 361.557 62.16 361.376 62.672C361.2 63.184 360.944 63.6213 360.608 63.984C360.277 64.3467 359.872 64.6267 359.392 64.824C358.917 65.016 358.384 65.112 357.792 65.112C357.2 65.112 356.664 65.016 356.184 64.824C355.709 64.6267 355.304 64.3467 354.968 63.984C354.632 63.6213 354.373 63.184 354.192 62.672C354.01 62.16 353.92 61.584 353.92 60.944C353.92 60.3093 354.01 59.736 354.192 59.224C354.373 58.7067 354.632 58.2667 354.968 57.904C355.304 57.5413 355.709 57.2613 356.184 57.064C356.664 56.8667 357.2 56.768 357.792 56.768ZM357.792 64C358.592 64 359.189 63.7333 359.584 63.2C359.978 62.6613 360.176 61.912 360.176 60.952C360.176 59.9867 359.978 59.2347 359.584 58.696C359.189 58.1573 358.592 57.888 357.792 57.888C357.386 57.888 357.034 57.9573 356.736 58.096C356.437 58.2347 356.186 58.4347 355.984 58.696C355.786 58.9573 355.637 59.28 355.536 59.664C355.44 60.0427 355.392 60.472 355.392 60.952C355.392 61.432 355.44 61.8613 355.536 62.24C355.637 62.6187 355.786 62.9387 355.984 63.2C356.186 63.456 356.437 63.6533 356.736 63.792C357.034 63.9307 357.386 64 357.792 64ZM363.402 65V56.896H364.25C364.453 56.896 364.581 56.9947 364.634 57.192L364.746 58.072C365.098 57.6827 365.49 57.368 365.922 57.128C366.36 56.888 366.864 56.768 367.434 56.768C367.877 56.768 368.266 56.8427 368.602 56.992C368.944 57.136 369.226 57.344 369.45 57.616C369.68 57.8827 369.853 58.2053 369.97 58.584C370.088 58.9627 370.146 59.3813 370.146 59.84V65H368.722V59.84C368.722 59.2267 368.581 58.752 368.298 58.416C368.021 58.0747 367.594 57.904 367.018 57.904C366.597 57.904 366.202 58.0053 365.834 58.208C365.472 58.4107 365.136 58.6853 364.826 59.032V65H363.402ZM377.997 65C377.794 65 377.666 64.9013 377.613 64.704L377.485 63.72C377.138 64.1413 376.741 64.48 376.293 64.736C375.85 64.9867 375.341 65.112 374.765 65.112C374.301 65.112 373.88 65.024 373.501 64.848C373.122 64.6667 372.8 64.4027 372.533 64.056C372.266 63.7093 372.061 63.2773 371.917 62.76C371.773 62.2427 371.701 61.648 371.701 60.976C371.701 60.3787 371.781 59.824 371.941 59.312C372.101 58.7947 372.33 58.3467 372.629 57.968C372.933 57.5893 373.301 57.2933 373.733 57.08C374.165 56.8613 374.656 56.752 375.205 56.752C375.701 56.752 376.125 56.8373 376.477 57.008C376.829 57.1733 377.144 57.408 377.421 57.712V53.216H378.845V65H377.997ZM375.237 63.96C375.701 63.96 376.106 63.8533 376.453 63.64C376.805 63.4267 377.128 63.1253 377.421 62.736V58.816C377.16 58.464 376.872 58.2187 376.557 58.08C376.248 57.936 375.904 57.864 375.525 57.864C374.768 57.864 374.186 58.1333 373.781 58.672C373.376 59.2107 373.173 59.9787 373.173 60.976C373.173 61.504 373.218 61.9573 373.309 62.336C373.4 62.7093 373.533 63.0187 373.709 63.264C373.885 63.504 374.101 63.68 374.357 63.792C374.613 63.904 374.906 63.96 375.237 63.96ZM388.964 58.232C388.9 58.3493 388.802 58.408 388.668 58.408C388.588 58.408 388.498 58.3787 388.396 58.32C388.295 58.2613 388.17 58.1973 388.02 58.128C387.876 58.0533 387.703 57.9867 387.5 57.928C387.298 57.864 387.058 57.832 386.78 57.832C386.54 57.832 386.324 57.864 386.132 57.928C385.94 57.9867 385.775 58.0693 385.636 58.176C385.503 58.2827 385.399 58.408 385.324 58.552C385.255 58.6907 385.22 58.8427 385.22 59.008C385.22 59.216 385.279 59.3893 385.396 59.528C385.519 59.6667 385.679 59.7867 385.876 59.888C386.074 59.9893 386.298 60.08 386.548 60.16C386.799 60.2347 387.055 60.3173 387.316 60.408C387.583 60.4933 387.842 60.5893 388.092 60.696C388.343 60.8027 388.567 60.936 388.764 61.096C388.962 61.256 389.119 61.4533 389.236 61.688C389.359 61.9173 389.42 62.1947 389.42 62.52C389.42 62.8933 389.354 63.24 389.22 63.56C389.087 63.8747 388.89 64.1493 388.628 64.384C388.367 64.6133 388.047 64.7947 387.668 64.928C387.29 65.0613 386.852 65.128 386.356 65.128C385.791 65.128 385.279 65.0373 384.82 64.856C384.362 64.6693 383.972 64.432 383.652 64.144L383.988 63.6C384.031 63.5307 384.082 63.4773 384.14 63.44C384.199 63.4027 384.276 63.384 384.372 63.384C384.468 63.384 384.57 63.4213 384.676 63.496C384.783 63.5707 384.911 63.6533 385.06 63.744C385.215 63.8347 385.399 63.9173 385.612 63.992C385.831 64.0667 386.103 64.104 386.428 64.104C386.706 64.104 386.948 64.0693 387.156 64C387.364 63.9253 387.538 63.8267 387.676 63.704C387.815 63.5813 387.916 63.44 387.98 63.28C388.05 63.12 388.084 62.9493 388.084 62.768C388.084 62.544 388.023 62.36 387.9 62.216C387.783 62.0667 387.626 61.9413 387.428 61.84C387.231 61.7333 387.004 61.6427 386.748 61.568C386.498 61.488 386.239 61.4053 385.972 61.32C385.711 61.2347 385.452 61.1387 385.196 61.032C384.946 60.92 384.722 60.7813 384.524 60.616C384.327 60.4507 384.167 60.248 384.044 60.008C383.927 59.7627 383.868 59.4667 383.868 59.12C383.868 58.8107 383.932 58.5147 384.06 58.232C384.188 57.944 384.375 57.6933 384.62 57.48C384.866 57.2613 385.167 57.088 385.524 56.96C385.882 56.832 386.29 56.768 386.748 56.768C387.282 56.768 387.759 56.8533 388.18 57.024C388.607 57.1893 388.975 57.4187 389.284 57.712L388.964 58.232ZM393.718 65.128C393.078 65.128 392.584 64.9493 392.238 64.592C391.896 64.2347 391.726 63.72 391.726 63.048V58.088H390.75C390.664 58.088 390.592 58.064 390.534 58.016C390.475 57.9627 390.446 57.8827 390.446 57.776V57.208L391.774 57.04L392.102 54.536C392.112 54.456 392.147 54.392 392.206 54.344C392.264 54.2907 392.339 54.264 392.43 54.264H393.15V57.056H395.47V58.088H393.15V62.952C393.15 63.2933 393.232 63.5467 393.398 63.712C393.563 63.8773 393.776 63.96 394.038 63.96C394.187 63.96 394.315 63.9413 394.422 63.904C394.534 63.8613 394.63 63.816 394.71 63.768C394.79 63.72 394.856 63.6773 394.91 63.64C394.968 63.5973 395.019 63.576 395.062 63.576C395.136 63.576 395.203 63.6213 395.262 63.712L395.678 64.392C395.432 64.6213 395.136 64.8027 394.79 64.936C394.443 65.064 394.086 65.128 393.718 65.128ZM400.439 56.768C400.924 56.768 401.372 56.8507 401.783 57.016C402.193 57.176 402.548 57.4107 402.847 57.72C403.145 58.024 403.377 58.4027 403.543 58.856C403.713 59.304 403.799 59.816 403.799 60.392C403.799 60.616 403.775 60.7653 403.727 60.84C403.679 60.9147 403.588 60.952 403.455 60.952H398.062C398.073 61.464 398.143 61.9093 398.271 62.288C398.399 62.6667 398.575 62.984 398.799 63.24C399.023 63.4907 399.289 63.68 399.599 63.808C399.908 63.9307 400.255 63.992 400.639 63.992C400.996 63.992 401.303 63.952 401.559 63.872C401.82 63.7867 402.044 63.696 402.231 63.6C402.417 63.504 402.572 63.416 402.695 63.336C402.823 63.2507 402.932 63.208 403.023 63.208C403.14 63.208 403.231 63.2533 403.295 63.344L403.695 63.864C403.519 64.0773 403.308 64.264 403.063 64.424C402.817 64.5787 402.553 64.7067 402.271 64.808C401.993 64.9093 401.705 64.984 401.407 65.032C401.108 65.0853 400.812 65.112 400.519 65.112C399.959 65.112 399.441 65.0187 398.967 64.832C398.497 64.64 398.089 64.3627 397.743 64C397.401 63.632 397.135 63.1787 396.943 62.64C396.751 62.1013 396.655 61.4827 396.655 60.784C396.655 60.2187 396.74 59.6907 396.911 59.2C397.087 58.7093 397.337 58.2853 397.663 57.928C397.988 57.5653 398.385 57.2827 398.855 57.08C399.324 56.872 399.852 56.768 400.439 56.768ZM400.47 57.816C399.783 57.816 399.241 58.016 398.847 58.416C398.452 58.8107 398.207 59.36 398.111 60.064H402.519C402.519 59.7333 402.473 59.432 402.383 59.16C402.292 58.8827 402.159 58.6453 401.983 58.448C401.807 58.2453 401.591 58.0907 401.335 57.984C401.084 57.872 400.796 57.816 400.47 57.816ZM405.621 67.744V56.896H406.469C406.672 56.896 406.8 56.9947 406.853 57.192L406.973 58.152C407.32 57.7307 407.714 57.392 408.157 57.136C408.605 56.88 409.12 56.752 409.701 56.752C410.165 56.752 410.586 56.8427 410.965 57.024C411.344 57.2 411.666 57.464 411.933 57.816C412.2 58.1627 412.405 58.5947 412.549 59.112C412.693 59.6293 412.765 60.224 412.765 60.896C412.765 61.4933 412.685 62.0507 412.525 62.568C412.365 63.08 412.136 63.5253 411.837 63.904C411.538 64.2773 411.17 64.5733 410.733 64.792C410.301 65.0053 409.813 65.112 409.269 65.112C408.768 65.112 408.338 65.0293 407.981 64.864C407.629 64.6987 407.317 64.464 407.045 64.16V67.744H405.621ZM409.229 57.904C408.765 57.904 408.357 58.0107 408.005 58.224C407.658 58.4373 407.338 58.7387 407.045 59.128V63.048C407.306 63.4 407.592 63.648 407.901 63.792C408.216 63.936 408.565 64.008 408.949 64.008C409.701 64.008 410.28 63.7387 410.685 63.2C411.09 62.6613 411.293 61.8933 411.293 60.896C411.293 60.368 411.245 59.9147 411.149 59.536C411.058 59.1573 410.925 58.848 410.749 58.608C410.573 58.3627 410.357 58.184 410.101 58.072C409.845 57.96 409.554 57.904 409.229 57.904Z" fill="black"/>
<path d="M684.44 53.536V54.8H678.936V58.808H683.64V60.072H678.936V65H677.376V53.536H684.44ZM687.799 56.896V65H686.375V56.896H687.799ZM688.119 54.352C688.119 54.4907 688.09 54.6213 688.031 54.744C687.978 54.8613 687.903 54.968 687.807 55.064C687.716 55.1547 687.61 55.2267 687.487 55.28C687.364 55.3333 687.234 55.36 687.095 55.36C686.956 55.36 686.826 55.3333 686.703 55.28C686.586 55.2267 686.479 55.1547 686.383 55.064C686.292 54.968 686.22 54.8613 686.167 54.744C686.114 54.6213 686.087 54.4907 686.087 54.352C686.087 54.2133 686.114 54.0827 686.167 53.96C686.22 53.832 686.292 53.7227 686.383 53.632C686.479 53.536 686.586 53.4613 686.703 53.408C686.826 53.3547 686.956 53.328 687.095 53.328C687.234 53.328 687.364 53.3547 687.487 53.408C687.61 53.4613 687.716 53.536 687.807 53.632C687.903 53.7227 687.978 53.832 688.031 53.96C688.09 54.0827 688.119 54.2133 688.119 54.352ZM690.309 65V56.896H691.157C691.359 56.896 691.487 56.9947 691.541 57.192L691.653 58.072C692.005 57.6827 692.397 57.368 692.829 57.128C693.266 56.888 693.77 56.768 694.341 56.768C694.783 56.768 695.173 56.8427 695.509 56.992C695.85 57.136 696.133 57.344 696.357 57.616C696.586 57.8827 696.759 58.2053 696.877 58.584C696.994 58.9627 697.053 59.3813 697.053 59.84V65H695.629V59.84C695.629 59.2267 695.487 58.752 695.205 58.416C694.927 58.0747 694.501 57.904 693.925 57.904C693.503 57.904 693.109 58.0053 692.741 58.208C692.378 58.4107 692.042 58.6853 691.733 59.032V65H690.309ZM705.151 65H704.519C704.381 65 704.269 64.9787 704.183 64.936C704.098 64.8933 704.042 64.8027 704.015 64.664L703.855 63.912C703.642 64.104 703.434 64.2773 703.231 64.432C703.029 64.5813 702.815 64.7093 702.591 64.816C702.367 64.9173 702.127 64.9947 701.871 65.048C701.621 65.1013 701.341 65.128 701.031 65.128C700.717 65.128 700.421 65.0853 700.143 65C699.871 64.9093 699.634 64.776 699.431 64.6C699.229 64.424 699.066 64.2027 698.943 63.936C698.826 63.664 698.767 63.344 698.767 62.976C698.767 62.656 698.855 62.3493 699.031 62.056C699.207 61.7573 699.49 61.4933 699.879 61.264C700.274 61.0347 700.789 60.848 701.423 60.704C702.058 60.5547 702.834 60.4693 703.751 60.448V59.816C703.751 59.1867 703.615 58.712 703.343 58.392C703.077 58.0667 702.679 57.904 702.151 57.904C701.805 57.904 701.511 57.9493 701.271 58.04C701.037 58.1253 700.831 58.224 700.655 58.336C700.485 58.4427 700.335 58.5413 700.207 58.632C700.085 58.7173 699.962 58.76 699.839 58.76C699.743 58.76 699.658 58.736 699.583 58.688C699.514 58.6347 699.458 58.5707 699.415 58.496L699.159 58.04C699.607 57.608 700.09 57.2853 700.607 57.072C701.125 56.8587 701.698 56.752 702.327 56.752C702.781 56.752 703.183 56.8267 703.535 56.976C703.887 57.1253 704.183 57.3333 704.423 57.6C704.663 57.8667 704.845 58.1893 704.967 58.568C705.09 58.9467 705.151 59.3627 705.151 59.816V65ZM701.455 64.128C701.706 64.128 701.935 64.104 702.143 64.056C702.351 64.0027 702.546 63.9307 702.727 63.84C702.914 63.744 703.09 63.6293 703.255 63.496C703.426 63.3627 703.591 63.2107 703.751 63.04V61.352C703.095 61.3733 702.538 61.4267 702.079 61.512C701.621 61.592 701.247 61.6987 700.959 61.832C700.671 61.9653 700.461 62.1227 700.327 62.304C700.199 62.4853 700.135 62.688 700.135 62.912C700.135 63.1253 700.17 63.3093 700.239 63.464C700.309 63.6187 700.402 63.7467 700.519 63.848C700.637 63.944 700.775 64.016 700.935 64.064C701.095 64.1067 701.269 64.128 701.455 64.128ZM708.893 53.216V65H707.469V53.216H708.893ZM720.592 55.328C720.544 55.408 720.493 55.4693 720.44 55.512C720.387 55.5493 720.317 55.568 720.232 55.568C720.141 55.568 720.035 55.5227 719.912 55.432C719.795 55.3413 719.643 55.2427 719.456 55.136C719.275 55.024 719.053 54.9227 718.792 54.832C718.536 54.7413 718.224 54.696 717.856 54.696C717.509 54.696 717.203 54.744 716.936 54.84C716.669 54.9307 716.445 55.056 716.264 55.216C716.088 55.376 715.955 55.5653 715.864 55.784C715.773 55.9973 715.728 56.2293 715.728 56.48C715.728 56.8 715.805 57.0667 715.96 57.28C716.12 57.488 716.328 57.6667 716.584 57.816C716.845 57.9653 717.139 58.096 717.464 58.208C717.795 58.3147 718.131 58.4267 718.472 58.544C718.819 58.6613 719.155 58.7947 719.48 58.944C719.811 59.088 720.104 59.272 720.36 59.496C720.621 59.72 720.829 59.9947 720.984 60.32C721.144 60.6453 721.224 61.0453 721.224 61.52C721.224 62.0213 721.139 62.4933 720.968 62.936C720.797 63.3733 720.547 63.7547 720.216 64.08C719.891 64.4053 719.488 64.6613 719.008 64.848C718.533 65.0347 717.992 65.128 717.384 65.128C716.643 65.128 715.965 64.9947 715.352 64.728C714.744 64.456 714.224 64.0907 713.792 63.632L714.24 62.896C714.283 62.8373 714.333 62.7893 714.392 62.752C714.456 62.7093 714.525 62.688 714.6 62.688C714.712 62.688 714.84 62.7493 714.984 62.872C715.128 62.9893 715.307 63.12 715.52 63.264C715.739 63.408 716 63.5413 716.304 63.664C716.613 63.7813 716.989 63.84 717.432 63.84C717.8 63.84 718.128 63.7893 718.416 63.688C718.704 63.5867 718.947 63.4453 719.144 63.264C719.347 63.0773 719.501 62.856 719.608 62.6C719.715 62.344 719.768 62.0587 719.768 61.744C719.768 61.3973 719.688 61.1147 719.528 60.896C719.373 60.672 719.168 60.4853 718.912 60.336C718.656 60.1867 718.363 60.0613 718.032 59.96C717.707 59.8533 717.371 59.7467 717.024 59.64C716.683 59.528 716.347 59.4 716.016 59.256C715.691 59.112 715.4 58.9253 715.144 58.696C714.888 58.4667 714.68 58.1813 714.52 57.84C714.365 57.4933 714.288 57.0667 714.288 56.56C714.288 56.1547 714.365 55.7627 714.52 55.384C714.68 55.0053 714.909 54.6693 715.208 54.376C715.507 54.0827 715.875 53.848 716.312 53.672C716.755 53.496 717.261 53.408 717.832 53.408C718.472 53.408 719.056 53.5093 719.584 53.712C720.112 53.9147 720.573 54.208 720.968 54.592L720.592 55.328ZM725.437 65.128C724.797 65.128 724.303 64.9493 723.957 64.592C723.615 64.2347 723.445 63.72 723.445 63.048V58.088H722.469C722.383 58.088 722.311 58.064 722.253 58.016C722.194 57.9627 722.165 57.8827 722.165 57.776V57.208L723.493 57.04L723.821 54.536C723.831 54.456 723.866 54.392 723.924 54.344C723.983 54.2907 724.058 54.264 724.149 54.264H724.869V57.056H727.189V58.088H724.869V62.952C724.869 63.2933 724.951 63.5467 725.117 63.712C725.282 63.8773 725.495 63.96 725.757 63.96C725.906 63.96 726.034 63.9413 726.141 63.904C726.253 63.8613 726.349 63.816 726.429 63.768C726.509 63.72 726.575 63.6773 726.629 63.64C726.687 63.5973 726.738 63.576 726.781 63.576C726.855 63.576 726.922 63.6213 726.981 63.712L727.397 64.392C727.151 64.6213 726.855 64.8027 726.509 64.936C726.162 65.064 725.805 65.128 725.437 65.128ZM732.157 56.768C732.643 56.768 733.091 56.8507 733.501 57.016C733.912 57.176 734.267 57.4107 734.565 57.72C734.864 58.024 735.096 58.4027 735.261 58.856C735.432 59.304 735.517 59.816 735.517 60.392C735.517 60.616 735.493 60.7653 735.445 60.84C735.397 60.9147 735.307 60.952 735.173 60.952H729.781C729.792 61.464 729.861 61.9093 729.989 62.288C730.117 62.6667 730.293 62.984 730.517 63.24C730.741 63.4907 731.008 63.68 731.317 63.808C731.627 63.9307 731.973 63.992 732.357 63.992C732.715 63.992 733.021 63.952 733.277 63.872C733.539 63.7867 733.763 63.696 733.949 63.6C734.136 63.504 734.291 63.416 734.413 63.336C734.541 63.2507 734.651 63.208 734.741 63.208C734.859 63.208 734.949 63.2533 735.013 63.344L735.413 63.864C735.237 64.0773 735.027 64.264 734.781 64.424C734.536 64.5787 734.272 64.7067 733.989 64.808C733.712 64.9093 733.424 64.984 733.125 65.032C732.827 65.0853 732.531 65.112 732.237 65.112C731.677 65.112 731.16 65.0187 730.685 64.832C730.216 64.64 729.808 64.3627 729.461 64C729.12 63.632 728.853 63.1787 728.661 62.64C728.469 62.1013 728.373 61.4827 728.373 60.784C728.373 60.2187 728.459 59.6907 728.629 59.2C728.805 58.7093 729.056 58.2853 729.381 57.928C729.707 57.5653 730.104 57.2827 730.573 57.08C731.043 56.872 731.571 56.768 732.157 56.768ZM732.189 57.816C731.501 57.816 730.96 58.016 730.565 58.416C730.171 58.8107 729.925 59.36 729.829 60.064H734.237C734.237 59.7333 734.192 59.432 734.101 59.16C734.011 58.8827 733.877 58.6453 733.701 58.448C733.525 58.2453 733.309 58.0907 733.053 57.984C732.803 57.872 732.515 57.816 732.189 57.816ZM737.34 67.744V56.896H738.188C738.391 56.896 738.519 56.9947 738.572 57.192L738.692 58.152C739.039 57.7307 739.433 57.392 739.876 57.136C740.324 56.88 740.839 56.752 741.42 56.752C741.884 56.752 742.305 56.8427 742.684 57.024C743.063 57.2 743.385 57.464 743.652 57.816C743.919 58.1627 744.124 58.5947 744.268 59.112C744.412 59.6293 744.484 60.224 744.484 60.896C744.484 61.4933 744.404 62.0507 744.244 62.568C744.084 63.08 743.855 63.5253 743.556 63.904C743.257 64.2773 742.889 64.5733 742.452 64.792C742.02 65.0053 741.532 65.112 740.988 65.112C740.487 65.112 740.057 65.0293 739.7 64.864C739.348 64.6987 739.036 64.464 738.764 64.16V67.744H737.34ZM740.948 57.904C740.484 57.904 740.076 58.0107 739.724 58.224C739.377 58.4373 739.057 58.7387 738.764 59.128V63.048C739.025 63.4 739.311 63.648 739.62 63.792C739.935 63.936 740.284 64.008 740.668 64.008C741.42 64.008 741.999 63.7387 742.404 63.2C742.809 62.6613 743.012 61.8933 743.012 60.896C743.012 60.368 742.964 59.9147 742.868 59.536C742.777 59.1573 742.644 58.848 742.468 58.608C742.292 58.3627 742.076 58.184 741.82 58.072C741.564 57.96 741.273 57.904 740.948 57.904Z" fill="black"/>
</svg>
