<svg width="696" height="555" viewBox="0 0 696 555" fill="none" xmlns="http://www.w3.org/2000/svg">
<line x1="20.5" y1="150" x2="20.5" y2="507" stroke="#E3E3E3"/>
<line x1="19.5" y1="48" x2="19.5" y2="87" stroke="#2656C9"/>
<rect x="1" y="1" width="38" height="38" rx="19" fill="#2656C9" stroke="#2656C9"/>
<path d="M16.6554 23.912H19.1194V16.096C19.1194 15.8613 19.1274 15.624 19.1434 15.384L17.0954 17.136C17.042 17.1787 16.9887 17.2107 16.9354 17.232C16.882 17.248 16.8314 17.256 16.7834 17.256C16.7034 17.256 16.6314 17.24 16.5674 17.208C16.5034 17.1707 16.4554 17.128 16.4234 17.08L15.9754 16.464L19.3834 13.512H20.5434V23.912H22.7994V25H16.6554V23.912Z" fill="white"/>
<path d="M65.535 123.988C65.535 124.739 65.416 125.43 65.178 126.06C64.94 126.685 64.604 127.224 64.17 127.677C63.736 128.13 63.2133 128.482 62.602 128.734C61.9953 128.981 61.3233 129.105 60.586 129.105C59.8487 129.105 59.1767 128.981 58.57 128.734C57.9633 128.482 57.443 128.13 57.009 127.677C56.575 127.224 56.239 126.685 56.001 126.06C55.763 125.43 55.644 124.739 55.644 123.988C55.644 123.237 55.763 122.548 56.001 121.923C56.239 121.293 56.575 120.752 57.009 120.299C57.443 119.842 57.9633 119.487 58.57 119.235C59.1767 118.983 59.8487 118.857 60.586 118.857C61.3233 118.857 61.9953 118.983 62.602 119.235C63.2133 119.487 63.736 119.842 64.17 120.299C64.604 120.752 64.94 121.293 65.178 121.923C65.416 122.548 65.535 123.237 65.535 123.988ZM64.142 123.988C64.142 123.372 64.058 122.819 63.89 122.329C63.722 121.839 63.484 121.426 63.176 121.09C62.868 120.749 62.4947 120.488 62.056 120.306C61.6173 120.124 61.1273 120.033 60.586 120.033C60.0493 120.033 59.5617 120.124 59.123 120.306C58.6843 120.488 58.3087 120.749 57.996 121.09C57.688 121.426 57.45 121.839 57.282 122.329C57.114 122.819 57.03 123.372 57.03 123.988C57.03 124.604 57.114 125.157 57.282 125.647C57.45 126.132 57.688 126.545 57.996 126.886C58.3087 127.222 58.6843 127.481 59.123 127.663C59.5617 127.84 60.0493 127.929 60.586 127.929C61.1273 127.929 61.6173 127.84 62.056 127.663C62.4947 127.481 62.868 127.222 63.176 126.886C63.484 126.545 63.722 126.132 63.89 125.647C64.058 125.157 64.142 124.604 64.142 123.988ZM67.1919 131.401V121.909H67.9339C68.1113 121.909 68.2233 121.995 68.2699 122.168L68.3749 123.008C68.6783 122.639 69.0236 122.343 69.4109 122.119C69.8029 121.895 70.2533 121.783 70.7619 121.783C71.1679 121.783 71.5366 121.862 71.8679 122.021C72.1993 122.175 72.4816 122.406 72.7149 122.714C72.9483 123.017 73.1279 123.395 73.2539 123.848C73.3799 124.301 73.4429 124.821 73.4429 125.409C73.4429 125.932 73.3729 126.419 73.2329 126.872C73.0929 127.32 72.8923 127.71 72.6309 128.041C72.3696 128.368 72.0476 128.627 71.6649 128.818C71.2869 129.005 70.8599 129.098 70.3839 129.098C69.9453 129.098 69.5696 129.026 69.2569 128.881C68.9489 128.736 68.6759 128.531 68.4379 128.265V131.401H67.1919ZM70.3489 122.791C69.9429 122.791 69.5859 122.884 69.2779 123.071C68.9746 123.258 68.6946 123.521 68.4379 123.862V127.292C68.6666 127.6 68.9163 127.817 69.1869 127.943C69.4623 128.069 69.7679 128.132 70.1039 128.132C70.7619 128.132 71.2683 127.896 71.6229 127.425C71.9776 126.954 72.1549 126.282 72.1549 125.409C72.1549 124.947 72.1129 124.55 72.0289 124.219C71.9496 123.888 71.8329 123.617 71.6789 123.407C71.5249 123.192 71.3359 123.036 71.1119 122.938C70.8879 122.84 70.6336 122.791 70.3489 122.791ZM77.0655 129.112C76.5055 129.112 76.0739 128.956 75.7705 128.643C75.4719 128.33 75.3225 127.88 75.3225 127.292V122.952H74.4685C74.3939 122.952 74.3309 122.931 74.2795 122.889C74.2282 122.842 74.2025 122.772 74.2025 122.679V122.182L75.3645 122.035L75.6515 119.844C75.6609 119.774 75.6912 119.718 75.7425 119.676C75.7939 119.629 75.8592 119.606 75.9385 119.606H76.5685V122.049H78.5985V122.952H76.5685V127.208C76.5685 127.507 76.6409 127.728 76.7855 127.873C76.9302 128.018 77.1169 128.09 77.3455 128.09C77.4762 128.09 77.5882 128.074 77.6815 128.041C77.7795 128.004 77.8635 127.964 77.9335 127.922C78.0035 127.88 78.0619 127.843 78.1085 127.81C78.1599 127.773 78.2042 127.754 78.2415 127.754C78.3069 127.754 78.3652 127.794 78.4165 127.873L78.7805 128.468C78.5659 128.669 78.3069 128.827 78.0035 128.944C77.7002 129.056 77.3875 129.112 77.0655 129.112ZM81.5252 121.909V129H80.2792V121.909H81.5252ZM81.8052 119.683C81.8052 119.804 81.7795 119.919 81.7282 120.026C81.6815 120.129 81.6162 120.222 81.5322 120.306C81.4529 120.385 81.3595 120.448 81.2522 120.495C81.1449 120.542 81.0305 120.565 80.9092 120.565C80.7879 120.565 80.6735 120.542 80.5662 120.495C80.4635 120.448 80.3702 120.385 80.2862 120.306C80.2069 120.222 80.1439 120.129 80.0972 120.026C80.0505 119.919 80.0272 119.804 80.0272 119.683C80.0272 119.562 80.0505 119.447 80.0972 119.34C80.1439 119.228 80.2069 119.132 80.2862 119.053C80.3702 118.969 80.4635 118.904 80.5662 118.857C80.6735 118.81 80.7879 118.787 80.9092 118.787C81.0305 118.787 81.1449 118.81 81.2522 118.857C81.3595 118.904 81.4529 118.969 81.5322 119.053C81.6162 119.132 81.6815 119.228 81.7282 119.34C81.7795 119.447 81.8052 119.562 81.8052 119.683ZM86.5912 121.797C87.1092 121.797 87.5759 121.883 87.9912 122.056C88.4112 122.229 88.7659 122.474 89.0552 122.791C89.3492 123.108 89.5732 123.493 89.7272 123.946C89.8859 124.394 89.9652 124.896 89.9652 125.451C89.9652 126.011 89.8859 126.515 89.7272 126.963C89.5732 127.411 89.3492 127.794 89.0552 128.111C88.7659 128.428 88.4112 128.673 87.9912 128.846C87.5759 129.014 87.1092 129.098 86.5912 129.098C86.0732 129.098 85.6042 129.014 85.1842 128.846C84.7689 128.673 84.4142 128.428 84.1202 128.111C83.8262 127.794 83.5999 127.411 83.4412 126.963C83.2826 126.515 83.2032 126.011 83.2032 125.451C83.2032 124.896 83.2826 124.394 83.4412 123.946C83.5999 123.493 83.8262 123.108 84.1202 122.791C84.4142 122.474 84.7689 122.229 85.1842 122.056C85.6042 121.883 86.0732 121.797 86.5912 121.797ZM86.5912 128.125C87.2912 128.125 87.8139 127.892 88.1592 127.425C88.5046 126.954 88.6772 126.298 88.6772 125.458C88.6772 124.613 88.5046 123.955 88.1592 123.484C87.8139 123.013 87.2912 122.777 86.5912 122.777C86.2366 122.777 85.9286 122.838 85.6672 122.959C85.4059 123.08 85.1866 123.255 85.0092 123.484C84.8366 123.713 84.7059 123.995 84.6172 124.331C84.5332 124.662 84.4912 125.038 84.4912 125.458C84.4912 125.878 84.5332 126.254 84.6172 126.585C84.7059 126.916 84.8366 127.196 85.0092 127.425C85.1866 127.649 85.4059 127.822 85.6672 127.943C85.9286 128.064 86.2366 128.125 86.5912 128.125ZM91.5005 129V121.909H92.2425C92.4198 121.909 92.5318 121.995 92.5785 122.168L92.6765 122.938C92.9845 122.597 93.3275 122.322 93.7055 122.112C94.0882 121.902 94.5292 121.797 95.0285 121.797C95.4158 121.797 95.7565 121.862 96.0505 121.993C96.3492 122.119 96.5965 122.301 96.7925 122.539C96.9932 122.772 97.1448 123.055 97.2475 123.386C97.3502 123.717 97.4015 124.084 97.4015 124.485V129H96.1555V124.485C96.1555 123.948 96.0318 123.533 95.7845 123.239C95.5418 122.94 95.1685 122.791 94.6645 122.791C94.2958 122.791 93.9505 122.88 93.6285 123.057C93.3112 123.234 93.0172 123.475 92.7465 123.778V129H91.5005ZM104.488 129H103.935C103.813 129 103.715 128.981 103.641 128.944C103.566 128.907 103.517 128.827 103.494 128.706L103.354 128.048C103.167 128.216 102.985 128.368 102.808 128.503C102.63 128.634 102.444 128.746 102.248 128.839C102.052 128.928 101.842 128.995 101.618 129.042C101.398 129.089 101.153 129.112 100.883 129.112C100.607 129.112 100.348 129.075 100.106 129C99.8678 128.921 99.6601 128.804 99.4828 128.65C99.3055 128.496 99.1631 128.302 99.0558 128.069C98.9531 127.831 98.9018 127.551 98.9018 127.229C98.9018 126.949 98.9788 126.681 99.1328 126.424C99.2868 126.163 99.5341 125.932 99.8748 125.731C100.22 125.53 100.67 125.367 101.226 125.241C101.781 125.11 102.46 125.036 103.263 125.017V124.464C103.263 123.913 103.144 123.498 102.906 123.218C102.672 122.933 102.325 122.791 101.863 122.791C101.559 122.791 101.303 122.831 101.093 122.91C100.887 122.985 100.708 123.071 100.554 123.169C100.404 123.262 100.274 123.349 100.162 123.428C100.054 123.503 99.9471 123.54 99.8398 123.54C99.7558 123.54 99.6811 123.519 99.6158 123.477C99.5551 123.43 99.5061 123.374 99.4688 123.309L99.2448 122.91C99.6368 122.532 100.059 122.25 100.512 122.063C100.964 121.876 101.466 121.783 102.017 121.783C102.413 121.783 102.766 121.848 103.074 121.979C103.382 122.11 103.641 122.292 103.851 122.525C104.061 122.758 104.219 123.041 104.327 123.372C104.434 123.703 104.488 124.067 104.488 124.464V129ZM101.254 128.237C101.473 128.237 101.674 128.216 101.856 128.174C102.038 128.127 102.208 128.064 102.367 127.985C102.53 127.901 102.684 127.801 102.829 127.684C102.978 127.567 103.123 127.434 103.263 127.285V125.808C102.689 125.827 102.201 125.873 101.8 125.948C101.398 126.018 101.072 126.111 100.82 126.228C100.568 126.345 100.383 126.482 100.267 126.641C100.155 126.8 100.099 126.977 100.099 127.173C100.099 127.36 100.129 127.521 100.19 127.656C100.25 127.791 100.332 127.903 100.435 127.992C100.537 128.076 100.659 128.139 100.799 128.181C100.939 128.218 101.09 128.237 101.254 128.237ZM107.762 118.689V129H106.516V118.689H107.762ZM116.725 123.078C116.669 123.181 116.582 123.232 116.466 123.232C116.396 123.232 116.316 123.206 116.228 123.155C116.139 123.104 116.029 123.048 115.899 122.987C115.773 122.922 115.621 122.863 115.444 122.812C115.266 122.756 115.056 122.728 114.814 122.728C114.604 122.728 114.415 122.756 114.247 122.812C114.079 122.863 113.934 122.936 113.813 123.029C113.696 123.122 113.605 123.232 113.54 123.358C113.479 123.479 113.449 123.612 113.449 123.757C113.449 123.939 113.5 124.091 113.603 124.212C113.71 124.333 113.85 124.438 114.023 124.527C114.195 124.616 114.391 124.695 114.611 124.765C114.83 124.83 115.054 124.903 115.283 124.982C115.516 125.057 115.742 125.141 115.962 125.234C116.181 125.327 116.377 125.444 116.55 125.584C116.722 125.724 116.86 125.897 116.963 126.102C117.07 126.303 117.124 126.545 117.124 126.83C117.124 127.157 117.065 127.46 116.949 127.74C116.832 128.015 116.659 128.256 116.431 128.461C116.202 128.662 115.922 128.82 115.591 128.937C115.259 129.054 114.877 129.112 114.443 129.112C113.948 129.112 113.5 129.033 113.099 128.874C112.697 128.711 112.357 128.503 112.077 128.251L112.371 127.775C112.408 127.714 112.452 127.668 112.504 127.635C112.555 127.602 112.623 127.586 112.707 127.586C112.791 127.586 112.879 127.619 112.973 127.684C113.066 127.749 113.178 127.822 113.309 127.901C113.444 127.98 113.605 128.053 113.792 128.118C113.983 128.183 114.221 128.216 114.506 128.216C114.748 128.216 114.961 128.186 115.143 128.125C115.325 128.06 115.476 127.973 115.598 127.866C115.719 127.759 115.808 127.635 115.864 127.495C115.924 127.355 115.955 127.206 115.955 127.047C115.955 126.851 115.901 126.69 115.794 126.564C115.691 126.433 115.553 126.324 115.381 126.235C115.208 126.142 115.01 126.062 114.786 125.997C114.566 125.927 114.34 125.855 114.107 125.78C113.878 125.705 113.652 125.621 113.428 125.528C113.208 125.43 113.012 125.309 112.84 125.164C112.667 125.019 112.527 124.842 112.42 124.632C112.317 124.417 112.266 124.158 112.266 123.855C112.266 123.584 112.322 123.325 112.434 123.078C112.546 122.826 112.709 122.607 112.924 122.42C113.138 122.229 113.402 122.077 113.715 121.965C114.027 121.853 114.384 121.797 114.786 121.797C115.252 121.797 115.67 121.872 116.039 122.021C116.412 122.166 116.734 122.366 117.005 122.623L116.725 123.078ZM119.813 121.909V126.431C119.813 126.968 119.937 127.383 120.184 127.677C120.431 127.971 120.805 128.118 121.304 128.118C121.668 128.118 122.011 128.032 122.333 127.859C122.655 127.686 122.951 127.446 123.222 127.138V121.909H124.468V129H123.726C123.549 129 123.437 128.914 123.39 128.741L123.292 127.978C122.984 128.319 122.639 128.594 122.256 128.804C121.873 129.009 121.435 129.112 120.94 129.112C120.553 129.112 120.21 129.049 119.911 128.923C119.617 128.792 119.37 128.61 119.169 128.377C118.968 128.144 118.817 127.861 118.714 127.53C118.616 127.199 118.567 126.832 118.567 126.431V121.909H119.813ZM126.514 129V121.909H127.256C127.434 121.909 127.546 121.995 127.592 122.168L127.683 122.896C127.945 122.574 128.236 122.31 128.558 122.105C128.885 121.9 129.263 121.797 129.692 121.797C130.173 121.797 130.56 121.93 130.854 122.196C131.153 122.462 131.368 122.821 131.498 123.274C131.596 123.017 131.725 122.796 131.883 122.609C132.047 122.422 132.229 122.268 132.429 122.147C132.63 122.026 132.842 121.937 133.066 121.881C133.295 121.825 133.526 121.797 133.759 121.797C134.133 121.797 134.464 121.858 134.753 121.979C135.047 122.096 135.295 122.268 135.495 122.497C135.701 122.726 135.857 123.008 135.964 123.344C136.072 123.675 136.125 124.056 136.125 124.485V129H134.879V124.485C134.879 123.93 134.758 123.51 134.515 123.225C134.273 122.936 133.92 122.791 133.458 122.791C133.253 122.791 133.057 122.828 132.87 122.903C132.688 122.973 132.527 123.078 132.387 123.218C132.247 123.358 132.135 123.535 132.051 123.75C131.972 123.96 131.932 124.205 131.932 124.485V129H130.686V124.485C130.686 123.916 130.572 123.491 130.343 123.211C130.115 122.931 129.781 122.791 129.342 122.791C129.034 122.791 128.747 122.875 128.481 123.043C128.22 123.206 127.98 123.43 127.76 123.715V129H126.514ZM138.012 129V121.909H138.754C138.932 121.909 139.044 121.995 139.09 122.168L139.181 122.896C139.443 122.574 139.734 122.31 140.056 122.105C140.383 121.9 140.761 121.797 141.19 121.797C141.671 121.797 142.058 121.93 142.352 122.196C142.651 122.462 142.866 122.821 142.996 123.274C143.094 123.017 143.223 122.796 143.381 122.609C143.545 122.422 143.727 122.268 143.927 122.147C144.128 122.026 144.34 121.937 144.564 121.881C144.793 121.825 145.024 121.797 145.257 121.797C145.631 121.797 145.962 121.858 146.251 121.979C146.545 122.096 146.793 122.268 146.993 122.497C147.199 122.726 147.355 123.008 147.462 123.344C147.57 123.675 147.623 124.056 147.623 124.485V129H146.377V124.485C146.377 123.93 146.256 123.51 146.013 123.225C145.771 122.936 145.418 122.791 144.956 122.791C144.751 122.791 144.555 122.828 144.368 122.903C144.186 122.973 144.025 123.078 143.885 123.218C143.745 123.358 143.633 123.535 143.549 123.75C143.47 123.96 143.43 124.205 143.43 124.485V129H142.184V124.485C142.184 123.916 142.07 123.491 141.841 123.211C141.613 122.931 141.279 122.791 140.84 122.791C140.532 122.791 140.245 122.875 139.979 123.043C139.718 123.206 139.478 123.43 139.258 123.715V129H138.012ZM154.718 129H154.165C154.044 129 153.946 128.981 153.871 128.944C153.797 128.907 153.748 128.827 153.724 128.706L153.584 128.048C153.398 128.216 153.216 128.368 153.038 128.503C152.861 128.634 152.674 128.746 152.478 128.839C152.282 128.928 152.072 128.995 151.848 129.042C151.629 129.089 151.384 129.112 151.113 129.112C150.838 129.112 150.579 129.075 150.336 129C150.098 128.921 149.891 128.804 149.713 128.65C149.536 128.496 149.394 128.302 149.286 128.069C149.184 127.831 149.132 127.551 149.132 127.229C149.132 126.949 149.209 126.681 149.363 126.424C149.517 126.163 149.765 125.932 150.105 125.731C150.451 125.53 150.901 125.367 151.456 125.241C152.012 125.11 152.691 125.036 153.493 125.017V124.464C153.493 123.913 153.374 123.498 153.136 123.218C152.903 122.933 152.555 122.791 152.093 122.791C151.79 122.791 151.533 122.831 151.323 122.91C151.118 122.985 150.938 123.071 150.784 123.169C150.635 123.262 150.504 123.349 150.392 123.428C150.285 123.503 150.178 123.54 150.07 123.54C149.986 123.54 149.912 123.519 149.846 123.477C149.786 123.43 149.737 123.374 149.699 123.309L149.475 122.91C149.867 122.532 150.29 122.25 150.742 122.063C151.195 121.876 151.697 121.783 152.247 121.783C152.644 121.783 152.996 121.848 153.304 121.979C153.612 122.11 153.871 122.292 154.081 122.525C154.291 122.758 154.45 123.041 154.557 123.372C154.665 123.703 154.718 124.067 154.718 124.464V129ZM151.484 128.237C151.704 128.237 151.904 128.216 152.086 128.174C152.268 128.127 152.439 128.064 152.597 127.985C152.761 127.901 152.915 127.801 153.059 127.684C153.209 127.567 153.353 127.434 153.493 127.285V125.808C152.919 125.827 152.432 125.873 152.03 125.948C151.629 126.018 151.302 126.111 151.05 126.228C150.798 126.345 150.614 126.482 150.497 126.641C150.385 126.8 150.329 126.977 150.329 127.173C150.329 127.36 150.36 127.521 150.42 127.656C150.481 127.791 150.563 127.903 150.665 127.992C150.768 128.076 150.889 128.139 151.029 128.181C151.169 128.218 151.321 128.237 151.484 128.237ZM156.606 129V121.909H157.32C157.455 121.909 157.549 121.935 157.6 121.986C157.651 122.037 157.686 122.126 157.705 122.252L157.789 123.358C158.032 122.863 158.33 122.478 158.685 122.203C159.044 121.923 159.464 121.783 159.945 121.783C160.141 121.783 160.318 121.806 160.477 121.853C160.636 121.895 160.783 121.956 160.918 122.035L160.757 122.966C160.724 123.083 160.652 123.141 160.54 123.141C160.475 123.141 160.374 123.12 160.239 123.078C160.104 123.031 159.915 123.008 159.672 123.008C159.238 123.008 158.874 123.134 158.58 123.386C158.291 123.638 158.048 124.004 157.852 124.485V129H156.606ZM164.331 131.093C164.289 131.186 164.236 131.261 164.17 131.317C164.11 131.373 164.014 131.401 163.883 131.401H162.959L164.254 128.587L161.328 121.909H162.406C162.514 121.909 162.598 121.937 162.658 121.993C162.719 122.044 162.763 122.103 162.791 122.168L164.688 126.634C164.73 126.737 164.765 126.839 164.793 126.942C164.826 127.045 164.854 127.15 164.877 127.257C164.91 127.15 164.943 127.045 164.975 126.942C165.008 126.839 165.045 126.734 165.087 126.627L166.928 122.168C166.956 122.093 167.003 122.033 167.068 121.986C167.138 121.935 167.213 121.909 167.292 121.909H168.286L164.331 131.093Z" fill="#6A6A6A"/>
<rect x="1" y="96" width="38" height="38" rx="19" fill="#2656C9" stroke="#2656C9"/>
<path d="M20.1674 108.408C20.6527 108.408 21.106 108.48 21.5274 108.624C21.9487 108.768 22.3114 108.979 22.6154 109.256C22.9247 109.528 23.1674 109.861 23.3434 110.256C23.5194 110.651 23.6074 111.099 23.6074 111.6C23.6074 112.027 23.5434 112.421 23.4154 112.784C23.2874 113.147 23.114 113.496 22.8954 113.832C22.6767 114.163 22.4234 114.485 22.1354 114.8C21.8527 115.109 21.5514 115.427 21.2314 115.752L18.2154 118.84C18.4287 118.781 18.6447 118.736 18.8634 118.704C19.082 118.667 19.2927 118.648 19.4954 118.648H23.3354C23.49 118.648 23.6127 118.693 23.7034 118.784C23.794 118.875 23.8394 118.992 23.8394 119.136V120H16.1914V119.512C16.1914 119.411 16.21 119.307 16.2474 119.2C16.29 119.093 16.3567 118.995 16.4474 118.904L20.1194 115.216C20.4234 114.907 20.7007 114.611 20.9514 114.328C21.202 114.04 21.4154 113.752 21.5914 113.464C21.7727 113.176 21.9114 112.885 22.0074 112.592C22.1034 112.293 22.1514 111.976 22.1514 111.64C22.1514 111.304 22.098 111.011 21.9914 110.76C21.8847 110.504 21.738 110.293 21.5514 110.128C21.3647 109.963 21.146 109.84 20.8954 109.76C20.6447 109.675 20.3754 109.632 20.0874 109.632C19.7994 109.632 19.5327 109.675 19.2874 109.76C19.042 109.845 18.8234 109.965 18.6314 110.12C18.4447 110.269 18.2847 110.448 18.1514 110.656C18.0234 110.864 17.9327 111.093 17.8794 111.344C17.8367 111.499 17.7727 111.611 17.6874 111.68C17.602 111.749 17.49 111.784 17.3514 111.784C17.3247 111.784 17.2954 111.784 17.2634 111.784C17.2367 111.779 17.2047 111.773 17.1674 111.768L16.4234 111.64C16.498 111.117 16.642 110.656 16.8554 110.256C17.0687 109.851 17.338 109.512 17.6634 109.24C17.994 108.968 18.37 108.763 18.7914 108.624C19.218 108.48 19.6767 108.408 20.1674 108.408Z" fill="white"/>
<path d="M63.456 13.536V14.8H57.952V18.808H62.656V20.072H57.952V25H56.392V13.536H63.456ZM66.8145 16.896V25H65.3905V16.896H66.8145ZM67.1345 14.352C67.1345 14.4907 67.1052 14.6213 67.0465 14.744C66.9932 14.8613 66.9185 14.968 66.8225 15.064C66.7318 15.1547 66.6252 15.2267 66.5025 15.28C66.3798 15.3333 66.2492 15.36 66.1105 15.36C65.9718 15.36 65.8412 15.3333 65.7185 15.28C65.6012 15.2267 65.4945 15.1547 65.3985 15.064C65.3078 14.968 65.2358 14.8613 65.1825 14.744C65.1292 14.6213 65.1025 14.4907 65.1025 14.352C65.1025 14.2133 65.1292 14.0827 65.1825 13.96C65.2358 13.832 65.3078 13.7227 65.3985 13.632C65.4945 13.536 65.6012 13.4613 65.7185 13.408C65.8412 13.3547 65.9718 13.328 66.1105 13.328C66.2492 13.328 66.3798 13.3547 66.5025 13.408C66.6252 13.4613 66.7318 13.536 66.8225 13.632C66.9185 13.7227 66.9932 13.832 67.0465 13.96C67.1052 14.0827 67.1345 14.2133 67.1345 14.352ZM69.3243 25V16.896H70.1403C70.2949 16.896 70.4016 16.9253 70.4603 16.984C70.5189 17.0427 70.5589 17.144 70.5803 17.288L70.6763 18.552C70.9536 17.9867 71.2949 17.5467 71.7003 17.232C72.1109 16.912 72.5909 16.752 73.1403 16.752C73.3643 16.752 73.5669 16.7787 73.7483 16.832C73.9296 16.88 74.0976 16.9493 74.2523 17.04L74.0683 18.104C74.0309 18.2373 73.9483 18.304 73.8203 18.304C73.7456 18.304 73.6309 18.28 73.4763 18.232C73.3216 18.1787 73.1056 18.152 72.8283 18.152C72.3323 18.152 71.9163 18.296 71.5803 18.584C71.2496 18.872 70.9723 19.2907 70.7483 19.84V25H69.3243ZM80.4174 18.232C80.3534 18.3493 80.2547 18.408 80.1214 18.408C80.0414 18.408 79.9507 18.3787 79.8494 18.32C79.748 18.2613 79.6227 18.1973 79.4734 18.128C79.3294 18.0533 79.156 17.9867 78.9534 17.928C78.7507 17.864 78.5107 17.832 78.2334 17.832C77.9934 17.832 77.7774 17.864 77.5854 17.928C77.3934 17.9867 77.228 18.0693 77.0894 18.176C76.956 18.2827 76.852 18.408 76.7774 18.552C76.708 18.6907 76.6734 18.8427 76.6734 19.008C76.6734 19.216 76.732 19.3893 76.8494 19.528C76.972 19.6667 77.132 19.7867 77.3294 19.888C77.5267 19.9893 77.7507 20.08 78.0014 20.16C78.252 20.2347 78.508 20.3173 78.7694 20.408C79.036 20.4933 79.2947 20.5893 79.5454 20.696C79.796 20.8027 80.02 20.936 80.2174 21.096C80.4147 21.256 80.572 21.4533 80.6894 21.688C80.812 21.9173 80.8734 22.1947 80.8734 22.52C80.8734 22.8933 80.8067 23.24 80.6734 23.56C80.54 23.8747 80.3427 24.1493 80.0814 24.384C79.82 24.6133 79.5 24.7947 79.1214 24.928C78.7427 25.0613 78.3054 25.128 77.8094 25.128C77.244 25.128 76.732 25.0373 76.2734 24.856C75.8147 24.6693 75.4254 24.432 75.1054 24.144L75.4414 23.6C75.484 23.5307 75.5347 23.4773 75.5934 23.44C75.652 23.4027 75.7294 23.384 75.8254 23.384C75.9214 23.384 76.0227 23.4213 76.1294 23.496C76.236 23.5707 76.364 23.6533 76.5134 23.744C76.668 23.8347 76.852 23.9173 77.0654 23.992C77.284 24.0667 77.556 24.104 77.8814 24.104C78.1587 24.104 78.4014 24.0693 78.6094 24C78.8174 23.9253 78.9907 23.8267 79.1294 23.704C79.268 23.5813 79.3694 23.44 79.4334 23.28C79.5027 23.12 79.5374 22.9493 79.5374 22.768C79.5374 22.544 79.476 22.36 79.3534 22.216C79.236 22.0667 79.0787 21.9413 78.8814 21.84C78.684 21.7333 78.4574 21.6427 78.2014 21.568C77.9507 21.488 77.692 21.4053 77.4254 21.32C77.164 21.2347 76.9054 21.1387 76.6494 21.032C76.3987 20.92 76.1747 20.7813 75.9774 20.616C75.78 20.4507 75.62 20.248 75.4974 20.008C75.38 19.7627 75.3214 19.4667 75.3214 19.12C75.3214 18.8107 75.3854 18.5147 75.5134 18.232C75.6414 17.944 75.828 17.6933 76.0734 17.48C76.3187 17.2613 76.62 17.088 76.9774 16.96C77.3347 16.832 77.7427 16.768 78.2014 16.768C78.7347 16.768 79.212 16.8533 79.6334 17.024C80.06 17.1893 80.428 17.4187 80.7374 17.712L80.4174 18.232ZM85.1709 25.128C84.5309 25.128 84.0375 24.9493 83.6909 24.592C83.3495 24.2347 83.1789 23.72 83.1789 23.048V18.088H82.2029C82.1175 18.088 82.0455 18.064 81.9869 18.016C81.9282 17.9627 81.8989 17.8827 81.8989 17.776V17.208L83.2269 17.04L83.5549 14.536C83.5655 14.456 83.6002 14.392 83.6589 14.344C83.7175 14.2907 83.7922 14.264 83.8829 14.264H84.6029V17.056H86.9229V18.088H84.6029V22.952C84.6029 23.2933 84.6855 23.5467 84.8509 23.712C85.0162 23.8773 85.2295 23.96 85.4909 23.96C85.6402 23.96 85.7682 23.9413 85.8749 23.904C85.9869 23.8613 86.0829 23.816 86.1629 23.768C86.2429 23.72 86.3095 23.6773 86.3629 23.64C86.4215 23.5973 86.4722 23.576 86.5149 23.576C86.5895 23.576 86.6562 23.6213 86.7149 23.712L87.1309 24.392C86.8855 24.6213 86.5895 24.8027 86.2429 24.936C85.8962 25.064 85.5389 25.128 85.1709 25.128ZM97.8734 15.328C97.8254 15.408 97.7747 15.4693 97.7214 15.512C97.668 15.5493 97.5987 15.568 97.5134 15.568C97.4227 15.568 97.316 15.5227 97.1934 15.432C97.076 15.3413 96.924 15.2427 96.7374 15.136C96.556 15.024 96.3347 14.9227 96.0734 14.832C95.8174 14.7413 95.5054 14.696 95.1374 14.696C94.7907 14.696 94.484 14.744 94.2174 14.84C93.9507 14.9307 93.7267 15.056 93.5454 15.216C93.3694 15.376 93.236 15.5653 93.1454 15.784C93.0547 15.9973 93.0094 16.2293 93.0094 16.48C93.0094 16.8 93.0867 17.0667 93.2414 17.28C93.4014 17.488 93.6094 17.6667 93.8654 17.816C94.1267 17.9653 94.42 18.096 94.7454 18.208C95.076 18.3147 95.412 18.4267 95.7534 18.544C96.1 18.6613 96.436 18.7947 96.7614 18.944C97.092 19.088 97.3854 19.272 97.6414 19.496C97.9027 19.72 98.1107 19.9947 98.2654 20.32C98.4254 20.6453 98.5054 21.0453 98.5054 21.52C98.5054 22.0213 98.42 22.4933 98.2494 22.936C98.0787 23.3733 97.828 23.7547 97.4974 24.08C97.172 24.4053 96.7694 24.6613 96.2894 24.848C95.8147 25.0347 95.2734 25.128 94.6654 25.128C93.924 25.128 93.2467 24.9947 92.6334 24.728C92.0254 24.456 91.5054 24.0907 91.0734 23.632L91.5214 22.896C91.564 22.8373 91.6147 22.7893 91.6734 22.752C91.7374 22.7093 91.8067 22.688 91.8814 22.688C91.9934 22.688 92.1214 22.7493 92.2654 22.872C92.4094 22.9893 92.588 23.12 92.8014 23.264C93.02 23.408 93.2814 23.5413 93.5854 23.664C93.8947 23.7813 94.2707 23.84 94.7134 23.84C95.0814 23.84 95.4094 23.7893 95.6974 23.688C95.9854 23.5867 96.228 23.4453 96.4254 23.264C96.628 23.0773 96.7827 22.856 96.8894 22.6C96.996 22.344 97.0494 22.0587 97.0494 21.744C97.0494 21.3973 96.9694 21.1147 96.8094 20.896C96.6547 20.672 96.4494 20.4853 96.1934 20.336C95.9374 20.1867 95.644 20.0613 95.3134 19.96C94.988 19.8533 94.652 19.7467 94.3054 19.64C93.964 19.528 93.628 19.4 93.2974 19.256C92.972 19.112 92.6814 18.9253 92.4254 18.696C92.1694 18.4667 91.9614 18.1813 91.8014 17.84C91.6467 17.4933 91.5694 17.0667 91.5694 16.56C91.5694 16.1547 91.6467 15.7627 91.8014 15.384C91.9614 15.0053 92.1907 14.6693 92.4894 14.376C92.788 14.0827 93.156 13.848 93.5934 13.672C94.036 13.496 94.5427 13.408 95.1134 13.408C95.7534 13.408 96.3374 13.5093 96.8654 13.712C97.3934 13.9147 97.8547 14.208 98.2494 14.592L97.8734 15.328ZM102.718 25.128C102.078 25.128 101.584 24.9493 101.238 24.592C100.896 24.2347 100.726 23.72 100.726 23.048V18.088H99.7498C99.6644 18.088 99.5924 18.064 99.5338 18.016C99.4751 17.9627 99.4458 17.8827 99.4458 17.776V17.208L100.774 17.04L101.102 14.536C101.112 14.456 101.147 14.392 101.206 14.344C101.264 14.2907 101.339 14.264 101.43 14.264H102.15V17.056H104.47V18.088H102.15V22.952C102.15 23.2933 102.232 23.5467 102.398 23.712C102.563 23.8773 102.776 23.96 103.038 23.96C103.187 23.96 103.315 23.9413 103.422 23.904C103.534 23.8613 103.63 23.816 103.71 23.768C103.79 23.72 103.856 23.6773 103.91 23.64C103.968 23.5973 104.019 23.576 104.062 23.576C104.136 23.576 104.203 23.6213 104.262 23.712L104.678 24.392C104.432 24.6213 104.136 24.8027 103.79 24.936C103.443 25.064 103.086 25.128 102.718 25.128ZM109.439 16.768C109.924 16.768 110.372 16.8507 110.783 17.016C111.193 17.176 111.548 17.4107 111.847 17.72C112.145 18.024 112.377 18.4027 112.543 18.856C112.713 19.304 112.799 19.816 112.799 20.392C112.799 20.616 112.775 20.7653 112.727 20.84C112.679 20.9147 112.588 20.952 112.455 20.952H107.062C107.073 21.464 107.143 21.9093 107.271 22.288C107.399 22.6667 107.575 22.984 107.799 23.24C108.023 23.4907 108.289 23.68 108.599 23.808C108.908 23.9307 109.255 23.992 109.639 23.992C109.996 23.992 110.303 23.952 110.559 23.872C110.82 23.7867 111.044 23.696 111.231 23.6C111.417 23.504 111.572 23.416 111.695 23.336C111.823 23.2507 111.932 23.208 112.023 23.208C112.14 23.208 112.231 23.2533 112.295 23.344L112.695 23.864C112.519 24.0773 112.308 24.264 112.063 24.424C111.817 24.5787 111.553 24.7067 111.271 24.808C110.993 24.9093 110.705 24.984 110.407 25.032C110.108 25.0853 109.812 25.112 109.519 25.112C108.959 25.112 108.441 25.0187 107.967 24.832C107.497 24.64 107.089 24.3627 106.743 24C106.401 23.632 106.135 23.1787 105.943 22.64C105.751 22.1013 105.655 21.4827 105.655 20.784C105.655 20.2187 105.74 19.6907 105.911 19.2C106.087 18.7093 106.337 18.2853 106.663 17.928C106.988 17.5653 107.385 17.2827 107.855 17.08C108.324 16.872 108.852 16.768 109.439 16.768ZM109.47 17.816C108.783 17.816 108.241 18.016 107.847 18.416C107.452 18.8107 107.207 19.36 107.111 20.064H111.519C111.519 19.7333 111.473 19.432 111.383 19.16C111.292 18.8827 111.159 18.6453 110.983 18.448C110.807 18.2453 110.591 18.0907 110.335 17.984C110.084 17.872 109.796 17.816 109.47 17.816ZM114.621 27.744V16.896H115.469C115.672 16.896 115.8 16.9947 115.853 17.192L115.973 18.152C116.32 17.7307 116.714 17.392 117.157 17.136C117.605 16.88 118.12 16.752 118.701 16.752C119.165 16.752 119.586 16.8427 119.965 17.024C120.344 17.2 120.666 17.464 120.933 17.816C121.2 18.1627 121.405 18.5947 121.549 19.112C121.693 19.6293 121.765 20.224 121.765 20.896C121.765 21.4933 121.685 22.0507 121.525 22.568C121.365 23.08 121.136 23.5253 120.837 23.904C120.538 24.2773 120.17 24.5733 119.733 24.792C119.301 25.0053 118.813 25.112 118.269 25.112C117.768 25.112 117.338 25.0293 116.981 24.864C116.629 24.6987 116.317 24.464 116.045 24.16V27.744H114.621ZM118.229 17.904C117.765 17.904 117.357 18.0107 117.005 18.224C116.658 18.4373 116.338 18.7387 116.045 19.128V23.048C116.306 23.4 116.592 23.648 116.901 23.792C117.216 23.936 117.565 24.008 117.949 24.008C118.701 24.008 119.28 23.7387 119.685 23.2C120.09 22.6613 120.293 21.8933 120.293 20.896C120.293 20.368 120.245 19.9147 120.149 19.536C120.058 19.1573 119.925 18.848 119.749 18.608C119.573 18.3627 119.357 18.184 119.101 18.072C118.845 17.96 118.554 17.904 118.229 17.904ZM128.999 25.128C128.359 25.128 127.866 24.9493 127.519 24.592C127.178 24.2347 127.007 23.72 127.007 23.048V18.088H126.031C125.946 18.088 125.874 18.064 125.815 18.016C125.756 17.9627 125.727 17.8827 125.727 17.776V17.208L127.055 17.04L127.383 14.536C127.394 14.456 127.428 14.392 127.487 14.344C127.546 14.2907 127.62 14.264 127.711 14.264H128.431V17.056H130.751V18.088H128.431V22.952C128.431 23.2933 128.514 23.5467 128.679 23.712C128.844 23.8773 129.058 23.96 129.319 23.96C129.468 23.96 129.596 23.9413 129.703 23.904C129.815 23.8613 129.911 23.816 129.991 23.768C130.071 23.72 130.138 23.6773 130.191 23.64C130.25 23.5973 130.3 23.576 130.343 23.576C130.418 23.576 130.484 23.6213 130.543 23.712L130.959 24.392C130.714 24.6213 130.418 24.8027 130.071 24.936C129.724 25.064 129.367 25.128 128.999 25.128ZM134.096 16.896V25H132.672V16.896H134.096ZM134.416 14.352C134.416 14.4907 134.386 14.6213 134.328 14.744C134.274 14.8613 134.2 14.968 134.104 15.064C134.013 15.1547 133.906 15.2267 133.784 15.28C133.661 15.3333 133.53 15.36 133.392 15.36C133.253 15.36 133.122 15.3333 133 15.28C132.882 15.2267 132.776 15.1547 132.68 15.064C132.589 14.968 132.517 14.8613 132.464 14.744C132.41 14.6213 132.384 14.4907 132.384 14.352C132.384 14.2133 132.41 14.0827 132.464 13.96C132.517 13.832 132.589 13.7227 132.68 13.632C132.776 13.536 132.882 13.4613 133 13.408C133.122 13.3547 133.253 13.328 133.392 13.328C133.53 13.328 133.661 13.3547 133.784 13.408C133.906 13.4613 134.013 13.536 134.104 13.632C134.2 13.7227 134.274 13.832 134.328 13.96C134.386 14.0827 134.416 14.2133 134.416 14.352ZM139.062 25.128C138.422 25.128 137.928 24.9493 137.582 24.592C137.24 24.2347 137.07 23.72 137.07 23.048V18.088H136.094C136.008 18.088 135.936 18.064 135.878 18.016C135.819 17.9627 135.79 17.8827 135.79 17.776V17.208L137.118 17.04L137.446 14.536C137.456 14.456 137.491 14.392 137.549 14.344C137.608 14.2907 137.683 14.264 137.774 14.264H138.494V17.056H140.814V18.088H138.494V22.952C138.494 23.2933 138.576 23.5467 138.742 23.712C138.907 23.8773 139.12 23.96 139.382 23.96C139.531 23.96 139.659 23.9413 139.766 23.904C139.878 23.8613 139.974 23.816 140.054 23.768C140.134 23.72 140.2 23.6773 140.254 23.64C140.312 23.5973 140.363 23.576 140.406 23.576C140.48 23.576 140.547 23.6213 140.606 23.712L141.022 24.392C140.776 24.6213 140.48 24.8027 140.134 24.936C139.787 25.064 139.43 25.128 139.062 25.128ZM144.158 13.216V25H142.734V13.216H144.158ZM149.876 16.768C150.361 16.768 150.809 16.8507 151.22 17.016C151.631 17.176 151.985 17.4107 152.284 17.72C152.583 18.024 152.815 18.4027 152.98 18.856C153.151 19.304 153.236 19.816 153.236 20.392C153.236 20.616 153.212 20.7653 153.164 20.84C153.116 20.9147 153.025 20.952 152.892 20.952H147.5C147.511 21.464 147.58 21.9093 147.708 22.288C147.836 22.6667 148.012 22.984 148.236 23.24C148.46 23.4907 148.727 23.68 149.036 23.808C149.345 23.9307 149.692 23.992 150.076 23.992C150.433 23.992 150.74 23.952 150.996 23.872C151.257 23.7867 151.481 23.696 151.668 23.6C151.855 23.504 152.009 23.416 152.132 23.336C152.26 23.2507 152.369 23.208 152.46 23.208C152.577 23.208 152.668 23.2533 152.732 23.344L153.132 23.864C152.956 24.0773 152.745 24.264 152.5 24.424C152.255 24.5787 151.991 24.7067 151.708 24.808C151.431 24.9093 151.143 24.984 150.844 25.032C150.545 25.0853 150.249 25.112 149.956 25.112C149.396 25.112 148.879 25.0187 148.404 24.832C147.935 24.64 147.527 24.3627 147.18 24C146.839 23.632 146.572 23.1787 146.38 22.64C146.188 22.1013 146.092 21.4827 146.092 20.784C146.092 20.2187 146.177 19.6907 146.348 19.2C146.524 18.7093 146.775 18.2853 147.1 17.928C147.425 17.5653 147.823 17.2827 148.292 17.08C148.761 16.872 149.289 16.768 149.876 16.768ZM149.908 17.816C149.22 17.816 148.679 18.016 148.284 18.416C147.889 18.8107 147.644 19.36 147.548 20.064H151.956C151.956 19.7333 151.911 19.432 151.82 19.16C151.729 18.8827 151.596 18.6453 151.42 18.448C151.244 18.2453 151.028 18.0907 150.772 17.984C150.521 17.872 150.233 17.816 149.908 17.816Z" fill="black"/>
<path d="M62.264 100.328C62.216 100.408 62.1653 100.469 62.112 100.512C62.0587 100.549 61.9893 100.568 61.904 100.568C61.8133 100.568 61.7067 100.523 61.584 100.432C61.4667 100.341 61.3147 100.243 61.128 100.136C60.9467 100.024 60.7253 99.9227 60.464 99.832C60.208 99.7413 59.896 99.696 59.528 99.696C59.1813 99.696 58.8747 99.744 58.608 99.84C58.3413 99.9307 58.1173 100.056 57.936 100.216C57.76 100.376 57.6267 100.565 57.536 100.784C57.4453 100.997 57.4 101.229 57.4 101.48C57.4 101.8 57.4773 102.067 57.632 102.28C57.792 102.488 58 102.667 58.256 102.816C58.5173 102.965 58.8107 103.096 59.136 103.208C59.4667 103.315 59.8027 103.427 60.144 103.544C60.4907 103.661 60.8267 103.795 61.152 103.944C61.4827 104.088 61.776 104.272 62.032 104.496C62.2933 104.72 62.5013 104.995 62.656 105.32C62.816 105.645 62.896 106.045 62.896 106.52C62.896 107.021 62.8107 107.493 62.64 107.936C62.4693 108.373 62.2187 108.755 61.888 109.08C61.5627 109.405 61.16 109.661 60.68 109.848C60.2053 110.035 59.664 110.128 59.056 110.128C58.3147 110.128 57.6373 109.995 57.024 109.728C56.416 109.456 55.896 109.091 55.464 108.632L55.912 107.896C55.9547 107.837 56.0053 107.789 56.064 107.752C56.128 107.709 56.1973 107.688 56.272 107.688C56.384 107.688 56.512 107.749 56.656 107.872C56.8 107.989 56.9787 108.12 57.192 108.264C57.4107 108.408 57.672 108.541 57.976 108.664C58.2853 108.781 58.6613 108.84 59.104 108.84C59.472 108.84 59.8 108.789 60.088 108.688C60.376 108.587 60.6187 108.445 60.816 108.264C61.0187 108.077 61.1733 107.856 61.28 107.6C61.3867 107.344 61.44 107.059 61.44 106.744C61.44 106.397 61.36 106.115 61.2 105.896C61.0453 105.672 60.84 105.485 60.584 105.336C60.328 105.187 60.0347 105.061 59.704 104.96C59.3787 104.853 59.0427 104.747 58.696 104.64C58.3547 104.528 58.0187 104.4 57.688 104.256C57.3627 104.112 57.072 103.925 56.816 103.696C56.56 103.467 56.352 103.181 56.192 102.84C56.0373 102.493 55.96 102.067 55.96 101.56C55.96 101.155 56.0373 100.763 56.192 100.384C56.352 100.005 56.5813 99.6693 56.88 99.376C57.1787 99.0827 57.5467 98.848 57.984 98.672C58.4267 98.496 58.9333 98.408 59.504 98.408C60.144 98.408 60.728 98.5093 61.256 98.712C61.784 98.9147 62.2453 99.208 62.64 99.592L62.264 100.328ZM67.8604 101.768C68.3457 101.768 68.7937 101.851 69.2044 102.016C69.615 102.176 69.9697 102.411 70.2684 102.72C70.567 103.024 70.799 103.403 70.9644 103.856C71.135 104.304 71.2204 104.816 71.2204 105.392C71.2204 105.616 71.1964 105.765 71.1484 105.84C71.1004 105.915 71.0097 105.952 70.8764 105.952H65.4844C65.495 106.464 65.5644 106.909 65.6924 107.288C65.8204 107.667 65.9964 107.984 66.2204 108.24C66.4444 108.491 66.711 108.68 67.0204 108.808C67.3297 108.931 67.6764 108.992 68.0604 108.992C68.4177 108.992 68.7244 108.952 68.9804 108.872C69.2417 108.787 69.4657 108.696 69.6524 108.6C69.839 108.504 69.9937 108.416 70.1164 108.336C70.2444 108.251 70.3537 108.208 70.4444 108.208C70.5617 108.208 70.6524 108.253 70.7164 108.344L71.1164 108.864C70.9404 109.077 70.7297 109.264 70.4844 109.424C70.239 109.579 69.975 109.707 69.6924 109.808C69.415 109.909 69.127 109.984 68.8284 110.032C68.5297 110.085 68.2337 110.112 67.9404 110.112C67.3804 110.112 66.863 110.019 66.3884 109.832C65.919 109.64 65.511 109.363 65.1644 109C64.823 108.632 64.5564 108.179 64.3644 107.64C64.1724 107.101 64.0764 106.483 64.0764 105.784C64.0764 105.219 64.1617 104.691 64.3324 104.2C64.5084 103.709 64.759 103.285 65.0844 102.928C65.4097 102.565 65.807 102.283 66.2764 102.08C66.7457 101.872 67.2737 101.768 67.8604 101.768ZM67.8924 102.816C67.2044 102.816 66.663 103.016 66.2684 103.416C65.8737 103.811 65.6284 104.36 65.5324 105.064H69.9404C69.9404 104.733 69.895 104.432 69.8044 104.16C69.7137 103.883 69.5804 103.645 69.4044 103.448C69.2284 103.245 69.0124 103.091 68.7564 102.984C68.5057 102.872 68.2177 102.816 67.8924 102.816ZM78.571 103.336C78.5283 103.395 78.4857 103.44 78.443 103.472C78.4003 103.504 78.339 103.52 78.259 103.52C78.179 103.52 78.091 103.488 77.995 103.424C77.9043 103.355 77.787 103.28 77.643 103.2C77.499 103.12 77.323 103.048 77.115 102.984C76.9123 102.915 76.6617 102.88 76.363 102.88C75.9683 102.88 75.619 102.952 75.315 103.096C75.011 103.235 74.755 103.437 74.547 103.704C74.3443 103.971 74.1897 104.293 74.083 104.672C73.9817 105.051 73.931 105.475 73.931 105.944C73.931 106.435 73.987 106.872 74.099 107.256C74.211 107.635 74.3683 107.955 74.571 108.216C74.7737 108.472 75.019 108.669 75.307 108.808C75.6003 108.941 75.9283 109.008 76.291 109.008C76.6377 109.008 76.923 108.968 77.147 108.888C77.371 108.803 77.5577 108.709 77.707 108.608C77.8563 108.507 77.979 108.416 78.075 108.336C78.171 108.251 78.267 108.208 78.363 108.208C78.4857 108.208 78.5763 108.253 78.635 108.344L79.035 108.864C78.683 109.296 78.243 109.613 77.715 109.816C77.187 110.013 76.6297 110.112 76.043 110.112C75.5363 110.112 75.0643 110.019 74.627 109.832C74.195 109.645 73.819 109.376 73.499 109.024C73.179 108.667 72.9257 108.229 72.739 107.712C72.5577 107.195 72.467 106.605 72.467 105.944C72.467 105.341 72.5497 104.784 72.715 104.272C72.8857 103.76 73.131 103.32 73.451 102.952C73.7763 102.579 74.1763 102.288 74.651 102.08C75.1257 101.872 75.6697 101.768 76.283 101.768C76.8483 101.768 77.3497 101.861 77.787 102.048C78.2243 102.229 78.611 102.488 78.947 102.824L78.571 103.336ZM83.7918 101.768C84.3838 101.768 84.9171 101.867 85.3918 102.064C85.8718 102.261 86.2771 102.541 86.6078 102.904C86.9438 103.267 87.1998 103.707 87.3758 104.224C87.5571 104.736 87.6478 105.309 87.6478 105.944C87.6478 106.584 87.5571 107.16 87.3758 107.672C87.1998 108.184 86.9438 108.621 86.6078 108.984C86.2771 109.347 85.8718 109.627 85.3918 109.824C84.9171 110.016 84.3838 110.112 83.7918 110.112C83.1998 110.112 82.6638 110.016 82.1838 109.824C81.7091 109.627 81.3038 109.347 80.9678 108.984C80.6318 108.621 80.3731 108.184 80.1918 107.672C80.0104 107.16 79.9198 106.584 79.9198 105.944C79.9198 105.309 80.0104 104.736 80.1918 104.224C80.3731 103.707 80.6318 103.267 80.9678 102.904C81.3038 102.541 81.7091 102.261 82.1838 102.064C82.6638 101.867 83.1998 101.768 83.7918 101.768ZM83.7918 109C84.5918 109 85.1891 108.733 85.5838 108.2C85.9784 107.661 86.1758 106.912 86.1758 105.952C86.1758 104.987 85.9784 104.235 85.5838 103.696C85.1891 103.157 84.5918 102.888 83.7918 102.888C83.3864 102.888 83.0344 102.957 82.7358 103.096C82.4371 103.235 82.1864 103.435 81.9838 103.696C81.7864 103.957 81.6371 104.28 81.5358 104.664C81.4398 105.043 81.3918 105.472 81.3918 105.952C81.3918 106.432 81.4398 106.861 81.5358 107.24C81.6371 107.619 81.7864 107.939 81.9838 108.2C82.1864 108.456 82.4371 108.653 82.7358 108.792C83.0344 108.931 83.3864 109 83.7918 109ZM89.4024 110V101.896H90.2504C90.453 101.896 90.581 101.995 90.6344 102.192L90.7464 103.072C91.0984 102.683 91.4904 102.368 91.9224 102.128C92.3597 101.888 92.8637 101.768 93.4344 101.768C93.877 101.768 94.2664 101.843 94.6024 101.992C94.9437 102.136 95.2264 102.344 95.4504 102.616C95.6797 102.883 95.853 103.205 95.9704 103.584C96.0877 103.963 96.1464 104.381 96.1464 104.84V110H94.7224V104.84C94.7224 104.227 94.581 103.752 94.2984 103.416C94.021 103.075 93.5944 102.904 93.0184 102.904C92.597 102.904 92.2024 103.005 91.8344 103.208C91.4717 103.411 91.1357 103.685 90.8264 104.032V110H89.4024ZM103.997 110C103.794 110 103.666 109.901 103.613 109.704L103.485 108.72C103.138 109.141 102.741 109.48 102.293 109.736C101.85 109.987 101.341 110.112 100.765 110.112C100.301 110.112 99.8797 110.024 99.501 109.848C99.1223 109.667 98.7997 109.403 98.533 109.056C98.2663 108.709 98.061 108.277 97.917 107.76C97.773 107.243 97.701 106.648 97.701 105.976C97.701 105.379 97.781 104.824 97.941 104.312C98.101 103.795 98.3303 103.347 98.629 102.968C98.933 102.589 99.301 102.293 99.733 102.08C100.165 101.861 100.656 101.752 101.205 101.752C101.701 101.752 102.125 101.837 102.477 102.008C102.829 102.173 103.144 102.408 103.421 102.712V98.216H104.845V110H103.997ZM101.237 108.96C101.701 108.96 102.106 108.853 102.453 108.64C102.805 108.427 103.128 108.125 103.421 107.736V103.816C103.16 103.464 102.872 103.219 102.557 103.08C102.248 102.936 101.904 102.864 101.525 102.864C100.768 102.864 100.186 103.133 99.781 103.672C99.3757 104.211 99.173 104.979 99.173 105.976C99.173 106.504 99.2183 106.957 99.309 107.336C99.3997 107.709 99.533 108.019 99.709 108.264C99.885 108.504 100.101 108.68 100.357 108.792C100.613 108.904 100.906 108.96 101.237 108.96ZM114.964 103.232C114.9 103.349 114.802 103.408 114.668 103.408C114.588 103.408 114.498 103.379 114.396 103.32C114.295 103.261 114.17 103.197 114.02 103.128C113.876 103.053 113.703 102.987 113.5 102.928C113.298 102.864 113.058 102.832 112.78 102.832C112.54 102.832 112.324 102.864 112.132 102.928C111.94 102.987 111.775 103.069 111.636 103.176C111.503 103.283 111.399 103.408 111.324 103.552C111.255 103.691 111.22 103.843 111.22 104.008C111.22 104.216 111.279 104.389 111.396 104.528C111.519 104.667 111.679 104.787 111.876 104.888C112.074 104.989 112.298 105.08 112.548 105.16C112.799 105.235 113.055 105.317 113.316 105.408C113.583 105.493 113.842 105.589 114.092 105.696C114.343 105.803 114.567 105.936 114.764 106.096C114.962 106.256 115.119 106.453 115.236 106.688C115.359 106.917 115.42 107.195 115.42 107.52C115.42 107.893 115.354 108.24 115.22 108.56C115.087 108.875 114.89 109.149 114.628 109.384C114.367 109.613 114.047 109.795 113.668 109.928C113.29 110.061 112.852 110.128 112.356 110.128C111.791 110.128 111.279 110.037 110.82 109.856C110.362 109.669 109.972 109.432 109.652 109.144L109.988 108.6C110.031 108.531 110.082 108.477 110.14 108.44C110.199 108.403 110.276 108.384 110.372 108.384C110.468 108.384 110.57 108.421 110.676 108.496C110.783 108.571 110.911 108.653 111.06 108.744C111.215 108.835 111.399 108.917 111.612 108.992C111.831 109.067 112.103 109.104 112.428 109.104C112.706 109.104 112.948 109.069 113.156 109C113.364 108.925 113.538 108.827 113.676 108.704C113.815 108.581 113.916 108.44 113.98 108.28C114.05 108.12 114.084 107.949 114.084 107.768C114.084 107.544 114.023 107.36 113.9 107.216C113.783 107.067 113.626 106.941 113.428 106.84C113.231 106.733 113.004 106.643 112.748 106.568C112.498 106.488 112.239 106.405 111.972 106.32C111.711 106.235 111.452 106.139 111.196 106.032C110.946 105.92 110.722 105.781 110.524 105.616C110.327 105.451 110.167 105.248 110.044 105.008C109.927 104.763 109.868 104.467 109.868 104.12C109.868 103.811 109.932 103.515 110.06 103.232C110.188 102.944 110.375 102.693 110.62 102.48C110.866 102.261 111.167 102.088 111.524 101.96C111.882 101.832 112.29 101.768 112.748 101.768C113.282 101.768 113.759 101.853 114.18 102.024C114.607 102.189 114.975 102.419 115.284 102.712L114.964 103.232ZM119.718 110.128C119.078 110.128 118.584 109.949 118.238 109.592C117.896 109.235 117.726 108.72 117.726 108.048V103.088H116.75C116.664 103.088 116.592 103.064 116.534 103.016C116.475 102.963 116.446 102.883 116.446 102.776V102.208L117.774 102.04L118.102 99.536C118.112 99.456 118.147 99.392 118.206 99.344C118.264 99.2907 118.339 99.264 118.43 99.264H119.15V102.056H121.47V103.088H119.15V107.952C119.15 108.293 119.232 108.547 119.398 108.712C119.563 108.877 119.776 108.96 120.038 108.96C120.187 108.96 120.315 108.941 120.422 108.904C120.534 108.861 120.63 108.816 120.71 108.768C120.79 108.72 120.856 108.677 120.91 108.64C120.968 108.597 121.019 108.576 121.062 108.576C121.136 108.576 121.203 108.621 121.262 108.712L121.678 109.392C121.432 109.621 121.136 109.803 120.79 109.936C120.443 110.064 120.086 110.128 119.718 110.128ZM126.439 101.768C126.924 101.768 127.372 101.851 127.783 102.016C128.193 102.176 128.548 102.411 128.847 102.72C129.145 103.024 129.377 103.403 129.543 103.856C129.713 104.304 129.799 104.816 129.799 105.392C129.799 105.616 129.775 105.765 129.727 105.84C129.679 105.915 129.588 105.952 129.455 105.952H124.062C124.073 106.464 124.143 106.909 124.271 107.288C124.399 107.667 124.575 107.984 124.799 108.24C125.023 108.491 125.289 108.68 125.599 108.808C125.908 108.931 126.255 108.992 126.639 108.992C126.996 108.992 127.303 108.952 127.559 108.872C127.82 108.787 128.044 108.696 128.231 108.6C128.417 108.504 128.572 108.416 128.695 108.336C128.823 108.251 128.932 108.208 129.023 108.208C129.14 108.208 129.231 108.253 129.295 108.344L129.695 108.864C129.519 109.077 129.308 109.264 129.063 109.424C128.817 109.579 128.553 109.707 128.271 109.808C127.993 109.909 127.705 109.984 127.407 110.032C127.108 110.085 126.812 110.112 126.519 110.112C125.959 110.112 125.441 110.019 124.967 109.832C124.497 109.64 124.089 109.363 123.743 109C123.401 108.632 123.135 108.179 122.943 107.64C122.751 107.101 122.655 106.483 122.655 105.784C122.655 105.219 122.74 104.691 122.911 104.2C123.087 103.709 123.337 103.285 123.663 102.928C123.988 102.565 124.385 102.283 124.855 102.08C125.324 101.872 125.852 101.768 126.439 101.768ZM126.47 102.816C125.783 102.816 125.241 103.016 124.847 103.416C124.452 103.811 124.207 104.36 124.111 105.064H128.519C128.519 104.733 128.473 104.432 128.383 104.16C128.292 103.883 128.159 103.645 127.983 103.448C127.807 103.245 127.591 103.091 127.335 102.984C127.084 102.872 126.796 102.816 126.47 102.816ZM131.621 112.744V101.896H132.469C132.672 101.896 132.8 101.995 132.853 102.192L132.973 103.152C133.32 102.731 133.714 102.392 134.157 102.136C134.605 101.88 135.12 101.752 135.701 101.752C136.165 101.752 136.586 101.843 136.965 102.024C137.344 102.2 137.666 102.464 137.933 102.816C138.2 103.163 138.405 103.595 138.549 104.112C138.693 104.629 138.765 105.224 138.765 105.896C138.765 106.493 138.685 107.051 138.525 107.568C138.365 108.08 138.136 108.525 137.837 108.904C137.538 109.277 137.17 109.573 136.733 109.792C136.301 110.005 135.813 110.112 135.269 110.112C134.768 110.112 134.338 110.029 133.981 109.864C133.629 109.699 133.317 109.464 133.045 109.16V112.744H131.621ZM135.229 102.904C134.765 102.904 134.357 103.011 134.005 103.224C133.658 103.437 133.338 103.739 133.045 104.128V108.048C133.306 108.4 133.592 108.648 133.901 108.792C134.216 108.936 134.565 109.008 134.949 109.008C135.701 109.008 136.28 108.739 136.685 108.2C137.09 107.661 137.293 106.893 137.293 105.896C137.293 105.368 137.245 104.915 137.149 104.536C137.058 104.157 136.925 103.848 136.749 103.608C136.573 103.363 136.357 103.184 136.101 103.072C135.845 102.96 135.554 102.904 135.229 102.904Z" fill="black"/>
<rect x="1" y="516" width="38" height="38" rx="19" stroke="#2656C9"/>
<path d="M19.3194 528.408C19.8047 528.408 20.2527 528.477 20.6634 528.616C21.074 528.755 21.426 528.952 21.7194 529.208C22.018 529.464 22.25 529.773 22.4154 530.136C22.5807 530.499 22.6634 530.901 22.6634 531.344C22.6634 531.707 22.6154 532.032 22.5194 532.32C22.4287 532.603 22.2954 532.853 22.1194 533.072C21.9487 533.285 21.7407 533.467 21.4954 533.616C21.25 533.765 20.9754 533.885 20.6714 533.976C21.418 534.173 21.978 534.504 22.3514 534.968C22.73 535.432 22.9194 536.013 22.9194 536.712C22.9194 537.24 22.818 537.715 22.6154 538.136C22.418 538.557 22.146 538.917 21.7994 539.216C21.4527 539.509 21.0474 539.736 20.5834 539.896C20.1247 540.051 19.6314 540.128 19.1034 540.128C18.4954 540.128 17.9754 540.053 17.5434 539.904C17.1114 539.749 16.746 539.539 16.4474 539.272C16.1487 539.005 15.9034 538.691 15.7114 538.328C15.5194 537.96 15.3567 537.563 15.2234 537.136L15.8314 536.88C15.9434 536.832 16.0554 536.808 16.1674 536.808C16.274 536.808 16.3674 536.832 16.4474 536.88C16.5327 536.923 16.5967 536.992 16.6394 537.088C16.65 537.109 16.6607 537.133 16.6714 537.16C16.682 537.181 16.6927 537.205 16.7034 537.232C16.778 537.387 16.8687 537.563 16.9754 537.76C17.082 537.952 17.226 538.133 17.4074 538.304C17.5887 538.475 17.8127 538.619 18.0794 538.736C18.3514 538.853 18.6874 538.912 19.0874 538.912C19.4874 538.912 19.8367 538.848 20.1354 538.72C20.4394 538.587 20.69 538.416 20.8874 538.208C21.09 538 21.242 537.768 21.3434 537.512C21.4447 537.256 21.4954 537.003 21.4954 536.752C21.4954 536.443 21.4527 536.16 21.3674 535.904C21.2874 535.648 21.138 535.427 20.9194 535.24C20.706 535.053 20.4074 534.907 20.0234 534.8C19.6447 534.693 19.1567 534.64 18.5594 534.64V533.608C19.0447 533.603 19.458 533.549 19.7994 533.448C20.146 533.347 20.4287 533.208 20.6474 533.032C20.866 532.856 21.0234 532.645 21.1194 532.4C21.2207 532.155 21.2714 531.883 21.2714 531.584C21.2714 531.253 21.218 530.965 21.1114 530.72C21.01 530.475 20.8687 530.272 20.6874 530.112C20.506 529.952 20.29 529.832 20.0394 529.752C19.794 529.672 19.5274 529.632 19.2394 529.632C18.9514 529.632 18.6847 529.675 18.4394 529.76C18.194 529.845 17.9754 529.965 17.7834 530.12C17.5967 530.269 17.4394 530.451 17.3114 530.664C17.1834 530.872 17.0874 531.099 17.0234 531.344C16.9807 531.499 16.9167 531.611 16.8314 531.68C16.746 531.749 16.6367 531.784 16.5034 531.784C16.4767 531.784 16.4474 531.784 16.4154 531.784C16.3887 531.779 16.3567 531.773 16.3194 531.768L15.5754 531.64C15.65 531.117 15.794 530.656 16.0074 530.256C16.2207 529.851 16.49 529.512 16.8154 529.24C17.146 528.968 17.522 528.763 17.9434 528.624C18.37 528.48 18.8287 528.408 19.3194 528.408Z" fill="#2656C9"/>
<path d="M64.4404 528.536V529.8H58.9364V533.808H63.6404V535.072H58.9364V540H57.3764V528.536H64.4404ZM67.7989 531.896V540H66.3749V531.896H67.7989ZM68.1189 529.352C68.1189 529.491 68.0895 529.621 68.0309 529.744C67.9775 529.861 67.9029 529.968 67.8069 530.064C67.7162 530.155 67.6095 530.227 67.4869 530.28C67.3642 530.333 67.2335 530.36 67.0949 530.36C66.9562 530.36 66.8255 530.333 66.7029 530.28C66.5855 530.227 66.4789 530.155 66.3829 530.064C66.2922 529.968 66.2202 529.861 66.1669 529.744C66.1135 529.621 66.0869 529.491 66.0869 529.352C66.0869 529.213 66.1135 529.083 66.1669 528.96C66.2202 528.832 66.2922 528.723 66.3829 528.632C66.4789 528.536 66.5855 528.461 66.7029 528.408C66.8255 528.355 66.9562 528.328 67.0949 528.328C67.2335 528.328 67.3642 528.355 67.4869 528.408C67.6095 528.461 67.7162 528.536 67.8069 528.632C67.9029 528.723 67.9775 528.832 68.0309 528.96C68.0895 529.083 68.1189 529.213 68.1189 529.352ZM70.3086 540V531.896H71.1566C71.3593 531.896 71.4873 531.995 71.5406 532.192L71.6526 533.072C72.0046 532.683 72.3966 532.368 72.8286 532.128C73.266 531.888 73.77 531.768 74.3406 531.768C74.7833 531.768 75.1726 531.843 75.5086 531.992C75.85 532.136 76.1326 532.344 76.3566 532.616C76.586 532.883 76.7593 533.205 76.8766 533.584C76.994 533.963 77.0526 534.381 77.0526 534.84V540H75.6286V534.84C75.6286 534.227 75.4873 533.752 75.2046 533.416C74.9273 533.075 74.5006 532.904 73.9246 532.904C73.5033 532.904 73.1086 533.005 72.7406 533.208C72.378 533.411 72.042 533.685 71.7326 534.032V540H70.3086ZM85.1513 540H84.5193C84.3806 540 84.2686 539.979 84.1833 539.936C84.0979 539.893 84.0419 539.803 84.0153 539.664L83.8553 538.912C83.6419 539.104 83.4339 539.277 83.2313 539.432C83.0286 539.581 82.8153 539.709 82.5913 539.816C82.3673 539.917 82.1273 539.995 81.8713 540.048C81.6206 540.101 81.3406 540.128 81.0313 540.128C80.7166 540.128 80.4206 540.085 80.1432 540C79.8713 539.909 79.6339 539.776 79.4313 539.6C79.2286 539.424 79.0659 539.203 78.9433 538.936C78.8259 538.664 78.7673 538.344 78.7673 537.976C78.7673 537.656 78.8553 537.349 79.0312 537.056C79.2073 536.757 79.4899 536.493 79.8793 536.264C80.2739 536.035 80.7886 535.848 81.4233 535.704C82.0579 535.555 82.8339 535.469 83.7513 535.448V534.816C83.7513 534.187 83.6153 533.712 83.3433 533.392C83.0766 533.067 82.6793 532.904 82.1513 532.904C81.8046 532.904 81.5113 532.949 81.2713 533.04C81.0366 533.125 80.8313 533.224 80.6553 533.336C80.4846 533.443 80.3353 533.541 80.2073 533.632C80.0846 533.717 79.9619 533.76 79.8393 533.76C79.7433 533.76 79.6579 533.736 79.5833 533.688C79.5139 533.635 79.4579 533.571 79.4153 533.496L79.1593 533.04C79.6073 532.608 80.0899 532.285 80.6073 532.072C81.1246 531.859 81.6979 531.752 82.3273 531.752C82.7806 531.752 83.1833 531.827 83.5353 531.976C83.8873 532.125 84.1833 532.333 84.4233 532.6C84.6633 532.867 84.8446 533.189 84.9673 533.568C85.0899 533.947 85.1513 534.363 85.1513 534.816V540ZM81.4553 539.128C81.7059 539.128 81.9353 539.104 82.1432 539.056C82.3513 539.003 82.5459 538.931 82.7273 538.84C82.9139 538.744 83.0899 538.629 83.2553 538.496C83.4259 538.363 83.5913 538.211 83.7513 538.04V536.352C83.0953 536.373 82.5379 536.427 82.0793 536.512C81.6206 536.592 81.2473 536.699 80.9593 536.832C80.6713 536.965 80.4606 537.123 80.3273 537.304C80.1993 537.485 80.1353 537.688 80.1353 537.912C80.1353 538.125 80.1699 538.309 80.2393 538.464C80.3086 538.619 80.4019 538.747 80.5193 538.848C80.6366 538.944 80.7753 539.016 80.9353 539.064C81.0953 539.107 81.2686 539.128 81.4553 539.128ZM88.8926 528.216V540H87.4686V528.216H88.8926ZM100.592 530.328C100.544 530.408 100.493 530.469 100.44 530.512C100.387 530.549 100.317 530.568 100.232 530.568C100.141 530.568 100.035 530.523 99.9121 530.432C99.7948 530.341 99.6428 530.243 99.4561 530.136C99.2748 530.024 99.0535 529.923 98.7921 529.832C98.5361 529.741 98.2241 529.696 97.8561 529.696C97.5095 529.696 97.2028 529.744 96.9361 529.84C96.6695 529.931 96.4455 530.056 96.2641 530.216C96.0881 530.376 95.9548 530.565 95.8641 530.784C95.7735 530.997 95.7281 531.229 95.7281 531.48C95.7281 531.8 95.8055 532.067 95.9601 532.28C96.1201 532.488 96.3281 532.667 96.5841 532.816C96.8455 532.965 97.1388 533.096 97.4641 533.208C97.7948 533.315 98.1308 533.427 98.4721 533.544C98.8188 533.661 99.1548 533.795 99.4801 533.944C99.8108 534.088 100.104 534.272 100.36 534.496C100.621 534.72 100.829 534.995 100.984 535.32C101.144 535.645 101.224 536.045 101.224 536.52C101.224 537.021 101.139 537.493 100.968 537.936C100.797 538.373 100.547 538.755 100.216 539.08C99.8908 539.405 99.4881 539.661 99.0081 539.848C98.5335 540.035 97.9921 540.128 97.3841 540.128C96.6428 540.128 95.9655 539.995 95.3521 539.728C94.7441 539.456 94.2241 539.091 93.7921 538.632L94.2401 537.896C94.2828 537.837 94.3335 537.789 94.3921 537.752C94.4561 537.709 94.5255 537.688 94.6001 537.688C94.7121 537.688 94.8401 537.749 94.9841 537.872C95.1281 537.989 95.3068 538.12 95.5201 538.264C95.7388 538.408 96.0001 538.541 96.3041 538.664C96.6135 538.781 96.9895 538.84 97.4321 538.84C97.8001 538.84 98.1281 538.789 98.4161 538.688C98.7041 538.587 98.9468 538.445 99.1441 538.264C99.3468 538.077 99.5015 537.856 99.6081 537.6C99.7148 537.344 99.7681 537.059 99.7681 536.744C99.7681 536.397 99.6881 536.115 99.5281 535.896C99.3735 535.672 99.1681 535.485 98.9121 535.336C98.6561 535.187 98.3628 535.061 98.0321 534.96C97.7068 534.853 97.3708 534.747 97.0241 534.64C96.6828 534.528 96.3468 534.4 96.0161 534.256C95.6908 534.112 95.4001 533.925 95.1441 533.696C94.8881 533.467 94.6801 533.181 94.5201 532.84C94.3655 532.493 94.2881 532.067 94.2881 531.56C94.2881 531.155 94.3655 530.763 94.5201 530.384C94.6801 530.005 94.9095 529.669 95.2081 529.376C95.5068 529.083 95.8748 528.848 96.3121 528.672C96.7548 528.496 97.2615 528.408 97.8321 528.408C98.4721 528.408 99.0561 528.509 99.5841 528.712C100.112 528.915 100.573 529.208 100.968 529.592L100.592 530.328ZM105.437 540.128C104.797 540.128 104.303 539.949 103.957 539.592C103.615 539.235 103.445 538.72 103.445 538.048V533.088H102.469C102.383 533.088 102.311 533.064 102.253 533.016C102.194 532.963 102.165 532.883 102.165 532.776V532.208L103.493 532.04L103.821 529.536C103.831 529.456 103.866 529.392 103.924 529.344C103.983 529.291 104.058 529.264 104.149 529.264H104.869V532.056H107.189V533.088H104.869V537.952C104.869 538.293 104.951 538.547 105.117 538.712C105.282 538.877 105.495 538.96 105.757 538.96C105.906 538.96 106.034 538.941 106.141 538.904C106.253 538.861 106.349 538.816 106.429 538.768C106.509 538.72 106.575 538.677 106.629 538.64C106.687 538.597 106.738 538.576 106.781 538.576C106.855 538.576 106.922 538.621 106.981 538.712L107.397 539.392C107.151 539.621 106.855 539.803 106.509 539.936C106.162 540.064 105.805 540.128 105.437 540.128ZM112.157 531.768C112.643 531.768 113.091 531.851 113.501 532.016C113.912 532.176 114.267 532.411 114.565 532.72C114.864 533.024 115.096 533.403 115.261 533.856C115.432 534.304 115.517 534.816 115.517 535.392C115.517 535.616 115.493 535.765 115.445 535.84C115.397 535.915 115.307 535.952 115.173 535.952H109.781C109.792 536.464 109.861 536.909 109.989 537.288C110.117 537.667 110.293 537.984 110.517 538.24C110.741 538.491 111.008 538.68 111.317 538.808C111.627 538.931 111.973 538.992 112.357 538.992C112.715 538.992 113.021 538.952 113.277 538.872C113.539 538.787 113.763 538.696 113.949 538.6C114.136 538.504 114.291 538.416 114.413 538.336C114.541 538.251 114.651 538.208 114.741 538.208C114.859 538.208 114.949 538.253 115.013 538.344L115.413 538.864C115.237 539.077 115.027 539.264 114.781 539.424C114.536 539.579 114.272 539.707 113.989 539.808C113.712 539.909 113.424 539.984 113.125 540.032C112.827 540.085 112.531 540.112 112.237 540.112C111.677 540.112 111.16 540.019 110.685 539.832C110.216 539.64 109.808 539.363 109.461 539C109.12 538.632 108.853 538.179 108.661 537.64C108.469 537.101 108.373 536.483 108.373 535.784C108.373 535.219 108.459 534.691 108.629 534.2C108.805 533.709 109.056 533.285 109.381 532.928C109.707 532.565 110.104 532.283 110.573 532.08C111.043 531.872 111.571 531.768 112.157 531.768ZM112.189 532.816C111.501 532.816 110.96 533.016 110.565 533.416C110.171 533.811 109.925 534.36 109.829 535.064H114.237C114.237 534.733 114.192 534.432 114.101 534.16C114.011 533.883 113.877 533.645 113.701 533.448C113.525 533.245 113.309 533.091 113.053 532.984C112.803 532.872 112.515 532.816 112.189 532.816ZM117.34 542.744V531.896H118.188C118.391 531.896 118.519 531.995 118.572 532.192L118.692 533.152C119.039 532.731 119.433 532.392 119.876 532.136C120.324 531.88 120.839 531.752 121.42 531.752C121.884 531.752 122.305 531.843 122.684 532.024C123.063 532.2 123.385 532.464 123.652 532.816C123.919 533.163 124.124 533.595 124.268 534.112C124.412 534.629 124.484 535.224 124.484 535.896C124.484 536.493 124.404 537.051 124.244 537.568C124.084 538.08 123.855 538.525 123.556 538.904C123.257 539.277 122.889 539.573 122.452 539.792C122.02 540.005 121.532 540.112 120.988 540.112C120.487 540.112 120.057 540.029 119.7 539.864C119.348 539.699 119.036 539.464 118.764 539.16V542.744H117.34ZM120.948 532.904C120.484 532.904 120.076 533.011 119.724 533.224C119.377 533.437 119.057 533.739 118.764 534.128V538.048C119.025 538.4 119.311 538.648 119.62 538.792C119.935 538.936 120.284 539.008 120.668 539.008C121.42 539.008 121.999 538.739 122.404 538.2C122.809 537.661 123.012 536.893 123.012 535.896C123.012 535.368 122.964 534.915 122.868 534.536C122.777 534.157 122.644 533.848 122.468 533.608C122.292 533.363 122.076 533.184 121.82 533.072C121.564 532.96 121.273 532.904 120.948 532.904Z" fill="black"/>
<rect x="577" y="430" width="119" height="38" rx="19" fill="#2656C9"/>
<path d="M613.488 452.632C613.573 452.632 613.65 452.667 613.72 452.736L614.328 453.4C613.858 453.944 613.288 454.368 612.616 454.672C611.949 454.976 611.144 455.128 610.2 455.128C609.373 455.128 608.624 454.987 607.952 454.704C607.28 454.416 606.706 454.016 606.232 453.504C605.757 452.987 605.389 452.368 605.128 451.648C604.866 450.928 604.736 450.136 604.736 449.272C604.736 448.408 604.874 447.616 605.152 446.896C605.434 446.176 605.829 445.557 606.336 445.04C606.842 444.523 607.448 444.123 608.152 443.84C608.861 443.552 609.642 443.408 610.496 443.408C611.338 443.408 612.064 443.539 612.672 443.8C613.285 444.061 613.829 444.416 614.304 444.864L613.8 445.576C613.762 445.629 613.72 445.675 613.672 445.712C613.624 445.744 613.554 445.76 613.464 445.76C613.394 445.76 613.32 445.736 613.24 445.688C613.165 445.635 613.074 445.571 612.968 445.496C612.861 445.421 612.736 445.341 612.592 445.256C612.448 445.171 612.277 445.091 612.08 445.016C611.882 444.941 611.653 444.88 611.392 444.832C611.13 444.779 610.829 444.752 610.488 444.752C609.874 444.752 609.312 444.859 608.8 445.072C608.293 445.28 607.856 445.579 607.488 445.968C607.12 446.357 606.832 446.832 606.624 447.392C606.421 447.952 606.32 448.579 606.32 449.272C606.32 449.987 606.421 450.624 606.624 451.184C606.832 451.744 607.112 452.219 607.464 452.608C607.821 452.992 608.242 453.285 608.728 453.488C609.213 453.691 609.736 453.792 610.296 453.792C610.637 453.792 610.944 453.773 611.216 453.736C611.488 453.693 611.738 453.629 611.968 453.544C612.202 453.459 612.418 453.352 612.616 453.224C612.818 453.091 613.021 452.933 613.224 452.752C613.314 452.672 613.402 452.632 613.488 452.632ZM619.417 446.768C620.009 446.768 620.542 446.867 621.017 447.064C621.497 447.261 621.902 447.541 622.233 447.904C622.569 448.267 622.825 448.707 623.001 449.224C623.182 449.736 623.273 450.309 623.273 450.944C623.273 451.584 623.182 452.16 623.001 452.672C622.825 453.184 622.569 453.621 622.233 453.984C621.902 454.347 621.497 454.627 621.017 454.824C620.542 455.016 620.009 455.112 619.417 455.112C618.825 455.112 618.289 455.016 617.809 454.824C617.334 454.627 616.929 454.347 616.593 453.984C616.257 453.621 615.998 453.184 615.817 452.672C615.635 452.16 615.545 451.584 615.545 450.944C615.545 450.309 615.635 449.736 615.817 449.224C615.998 448.707 616.257 448.267 616.593 447.904C616.929 447.541 617.334 447.261 617.809 447.064C618.289 446.867 618.825 446.768 619.417 446.768ZM619.417 454C620.217 454 620.814 453.733 621.209 453.2C621.603 452.661 621.801 451.912 621.801 450.952C621.801 449.987 621.603 449.235 621.209 448.696C620.814 448.157 620.217 447.888 619.417 447.888C619.011 447.888 618.659 447.957 618.361 448.096C618.062 448.235 617.811 448.435 617.609 448.696C617.411 448.957 617.262 449.28 617.161 449.664C617.065 450.043 617.017 450.472 617.017 450.952C617.017 451.432 617.065 451.861 617.161 452.24C617.262 452.619 617.411 452.939 617.609 453.2C617.811 453.456 618.062 453.653 618.361 453.792C618.659 453.931 619.011 454 619.417 454ZM625.027 455V446.896H625.875C626.078 446.896 626.206 446.995 626.259 447.192L626.371 448.072C626.723 447.683 627.115 447.368 627.547 447.128C627.985 446.888 628.489 446.768 629.059 446.768C629.502 446.768 629.891 446.843 630.227 446.992C630.569 447.136 630.851 447.344 631.075 447.616C631.305 447.883 631.478 448.205 631.595 448.584C631.713 448.963 631.771 449.381 631.771 449.84V455H630.347V449.84C630.347 449.227 630.206 448.752 629.923 448.416C629.646 448.075 629.219 447.904 628.643 447.904C628.222 447.904 627.827 448.005 627.459 448.208C627.097 448.411 626.761 448.685 626.451 449.032V455H625.027ZM636.374 455.128C635.734 455.128 635.241 454.949 634.894 454.592C634.553 454.235 634.382 453.72 634.382 453.048V448.088H633.406C633.321 448.088 633.249 448.064 633.19 448.016C633.131 447.963 633.102 447.883 633.102 447.776V447.208L634.43 447.04L634.758 444.536C634.769 444.456 634.803 444.392 634.862 444.344C634.921 444.291 634.995 444.264 635.086 444.264H635.806V447.056H638.126V448.088H635.806V452.952C635.806 453.293 635.889 453.547 636.054 453.712C636.219 453.877 636.433 453.96 636.694 453.96C636.843 453.96 636.971 453.941 637.078 453.904C637.19 453.861 637.286 453.816 637.366 453.768C637.446 453.72 637.513 453.677 637.566 453.64C637.625 453.597 637.675 453.576 637.718 453.576C637.793 453.576 637.859 453.621 637.918 453.712L638.334 454.392C638.089 454.621 637.793 454.803 637.446 454.936C637.099 455.064 636.742 455.128 636.374 455.128ZM641.471 446.896V455H640.047V446.896H641.471ZM641.791 444.352C641.791 444.491 641.761 444.621 641.703 444.744C641.649 444.861 641.575 444.968 641.479 445.064C641.388 445.155 641.281 445.227 641.159 445.28C641.036 445.333 640.905 445.36 640.767 445.36C640.628 445.36 640.497 445.333 640.375 445.28C640.257 445.227 640.151 445.155 640.055 445.064C639.964 444.968 639.892 444.861 639.839 444.744C639.785 444.621 639.759 444.491 639.759 444.352C639.759 444.213 639.785 444.083 639.839 443.96C639.892 443.832 639.964 443.723 640.055 443.632C640.151 443.536 640.257 443.461 640.375 443.408C640.497 443.355 640.628 443.328 640.767 443.328C640.905 443.328 641.036 443.355 641.159 443.408C641.281 443.461 641.388 443.536 641.479 443.632C641.575 443.723 641.649 443.832 641.703 443.96C641.761 444.083 641.791 444.213 641.791 444.352ZM643.981 455V446.896H644.829C645.031 446.896 645.159 446.995 645.213 447.192L645.325 448.072C645.677 447.683 646.069 447.368 646.501 447.128C646.938 446.888 647.442 446.768 648.013 446.768C648.455 446.768 648.845 446.843 649.181 446.992C649.522 447.136 649.805 447.344 650.029 447.616C650.258 447.883 650.431 448.205 650.549 448.584C650.666 448.963 650.725 449.381 650.725 449.84V455H649.301V449.84C649.301 449.227 649.159 448.752 648.877 448.416C648.599 448.075 648.173 447.904 647.597 447.904C647.175 447.904 646.781 448.005 646.413 448.208C646.05 448.411 645.714 448.685 645.405 449.032V455H643.981ZM654.103 446.896V452.064C654.103 452.677 654.244 453.152 654.527 453.488C654.81 453.824 655.236 453.992 655.807 453.992C656.223 453.992 656.615 453.893 656.983 453.696C657.351 453.499 657.69 453.224 657.999 452.872V446.896H659.423V455H658.575C658.372 455 658.244 454.901 658.191 454.704L658.079 453.832C657.727 454.221 657.332 454.536 656.895 454.776C656.458 455.011 655.956 455.128 655.391 455.128C654.948 455.128 654.556 455.056 654.215 454.912C653.879 454.763 653.596 454.555 653.367 454.288C653.138 454.021 652.964 453.699 652.847 453.32C652.735 452.941 652.679 452.523 652.679 452.064V446.896H654.103ZM664.97 446.768C665.455 446.768 665.903 446.851 666.314 447.016C666.724 447.176 667.079 447.411 667.378 447.72C667.676 448.024 667.908 448.403 668.074 448.856C668.244 449.304 668.33 449.816 668.33 450.392C668.33 450.616 668.306 450.765 668.258 450.84C668.21 450.915 668.119 450.952 667.986 450.952H662.594C662.604 451.464 662.674 451.909 662.802 452.288C662.93 452.667 663.106 452.984 663.33 453.24C663.554 453.491 663.82 453.68 664.13 453.808C664.439 453.931 664.786 453.992 665.17 453.992C665.527 453.992 665.834 453.952 666.09 453.872C666.351 453.787 666.575 453.696 666.762 453.6C666.948 453.504 667.103 453.416 667.226 453.336C667.354 453.251 667.463 453.208 667.554 453.208C667.671 453.208 667.762 453.253 667.826 453.344L668.226 453.864C668.05 454.077 667.839 454.264 667.594 454.424C667.348 454.579 667.084 454.707 666.802 454.808C666.524 454.909 666.236 454.984 665.938 455.032C665.639 455.085 665.343 455.112 665.05 455.112C664.49 455.112 663.972 455.019 663.498 454.832C663.028 454.64 662.62 454.363 662.274 454C661.932 453.632 661.666 453.179 661.474 452.64C661.282 452.101 661.186 451.483 661.186 450.784C661.186 450.219 661.271 449.691 661.442 449.2C661.618 448.709 661.868 448.285 662.194 447.928C662.519 447.565 662.916 447.283 663.386 447.08C663.855 446.872 664.383 446.768 664.97 446.768ZM665.002 447.816C664.314 447.816 663.772 448.016 663.378 448.416C662.983 448.811 662.738 449.36 662.642 450.064H667.05C667.05 449.733 667.004 449.432 666.914 449.16C666.823 448.883 666.69 448.645 666.514 448.448C666.338 448.245 666.122 448.091 665.866 447.984C665.615 447.872 665.327 447.816 665.002 447.816Z" fill="white"/>
<path d="M512.019 452.632C512.104 452.632 512.182 452.667 512.251 452.736L512.859 453.4C512.39 453.944 511.819 454.368 511.147 454.672C510.48 454.976 509.675 455.128 508.731 455.128C507.904 455.128 507.155 454.987 506.483 454.704C505.811 454.416 505.238 454.016 504.763 453.504C504.288 452.987 503.92 452.368 503.659 451.648C503.398 450.928 503.267 450.136 503.267 449.272C503.267 448.408 503.406 447.616 503.683 446.896C503.966 446.176 504.36 445.557 504.867 445.04C505.374 444.523 505.979 444.123 506.683 443.84C507.392 443.552 508.174 443.408 509.027 443.408C509.87 443.408 510.595 443.539 511.203 443.8C511.816 444.061 512.36 444.416 512.835 444.864L512.331 445.576C512.294 445.629 512.251 445.675 512.203 445.712C512.155 445.744 512.086 445.76 511.995 445.76C511.926 445.76 511.851 445.736 511.771 445.688C511.696 445.635 511.606 445.571 511.499 445.496C511.392 445.421 511.267 445.341 511.123 445.256C510.979 445.171 510.808 445.091 510.611 445.016C510.414 444.941 510.184 444.88 509.923 444.832C509.662 444.779 509.36 444.752 509.019 444.752C508.406 444.752 507.843 444.859 507.331 445.072C506.824 445.28 506.387 445.579 506.019 445.968C505.651 446.357 505.363 446.832 505.155 447.392C504.952 447.952 504.851 448.579 504.851 449.272C504.851 449.987 504.952 450.624 505.155 451.184C505.363 451.744 505.643 452.219 505.995 452.608C506.352 452.992 506.774 453.285 507.259 453.488C507.744 453.691 508.267 453.792 508.827 453.792C509.168 453.792 509.475 453.773 509.747 453.736C510.019 453.693 510.27 453.629 510.499 453.544C510.734 453.459 510.95 453.352 511.147 453.224C511.35 453.091 511.552 452.933 511.755 452.752C511.846 452.672 511.934 452.632 512.019 452.632ZM520.62 455H519.988C519.849 455 519.737 454.979 519.652 454.936C519.567 454.893 519.511 454.803 519.484 454.664L519.324 453.912C519.111 454.104 518.903 454.277 518.7 454.432C518.497 454.581 518.284 454.709 518.06 454.816C517.836 454.917 517.596 454.995 517.34 455.048C517.089 455.101 516.809 455.128 516.5 455.128C516.185 455.128 515.889 455.085 515.612 455C515.34 454.909 515.103 454.776 514.9 454.6C514.697 454.424 514.535 454.203 514.412 453.936C514.295 453.664 514.236 453.344 514.236 452.976C514.236 452.656 514.324 452.349 514.5 452.056C514.676 451.757 514.959 451.493 515.348 451.264C515.743 451.035 516.257 450.848 516.892 450.704C517.527 450.555 518.303 450.469 519.22 450.448V449.816C519.22 449.187 519.084 448.712 518.812 448.392C518.545 448.067 518.148 447.904 517.62 447.904C517.273 447.904 516.98 447.949 516.74 448.04C516.505 448.125 516.3 448.224 516.124 448.336C515.953 448.443 515.804 448.541 515.676 448.632C515.553 448.717 515.431 448.76 515.308 448.76C515.212 448.76 515.127 448.736 515.052 448.688C514.983 448.635 514.927 448.571 514.884 448.496L514.628 448.04C515.076 447.608 515.559 447.285 516.076 447.072C516.593 446.859 517.167 446.752 517.796 446.752C518.249 446.752 518.652 446.827 519.004 446.976C519.356 447.125 519.652 447.333 519.892 447.6C520.132 447.867 520.313 448.189 520.436 448.568C520.559 448.947 520.62 449.363 520.62 449.816V455ZM516.924 454.128C517.175 454.128 517.404 454.104 517.612 454.056C517.82 454.003 518.015 453.931 518.196 453.84C518.383 453.744 518.559 453.629 518.724 453.496C518.895 453.363 519.06 453.211 519.22 453.04V451.352C518.564 451.373 518.007 451.427 517.548 451.512C517.089 451.592 516.716 451.699 516.428 451.832C516.14 451.965 515.929 452.123 515.796 452.304C515.668 452.485 515.604 452.688 515.604 452.912C515.604 453.125 515.639 453.309 515.708 453.464C515.777 453.619 515.871 453.747 515.988 453.848C516.105 453.944 516.244 454.016 516.404 454.064C516.564 454.107 516.737 454.128 516.924 454.128ZM522.777 455V446.896H523.625C523.828 446.896 523.956 446.995 524.009 447.192L524.121 448.072C524.473 447.683 524.865 447.368 525.297 447.128C525.735 446.888 526.239 446.768 526.809 446.768C527.252 446.768 527.641 446.843 527.977 446.992C528.319 447.136 528.601 447.344 528.825 447.616C529.055 447.883 529.228 448.205 529.345 448.584C529.463 448.963 529.521 449.381 529.521 449.84V455H528.097V449.84C528.097 449.227 527.956 448.752 527.673 448.416C527.396 448.075 526.969 447.904 526.393 447.904C525.972 447.904 525.577 448.005 525.209 448.208C524.847 448.411 524.511 448.685 524.201 449.032V455H522.777ZM537.196 448.336C537.153 448.395 537.111 448.44 537.068 448.472C537.025 448.504 536.964 448.52 536.884 448.52C536.804 448.52 536.716 448.488 536.62 448.424C536.529 448.355 536.412 448.28 536.268 448.2C536.124 448.12 535.948 448.048 535.74 447.984C535.537 447.915 535.287 447.88 534.988 447.88C534.593 447.88 534.244 447.952 533.94 448.096C533.636 448.235 533.38 448.437 533.172 448.704C532.969 448.971 532.815 449.293 532.708 449.672C532.607 450.051 532.556 450.475 532.556 450.944C532.556 451.435 532.612 451.872 532.724 452.256C532.836 452.635 532.993 452.955 533.196 453.216C533.399 453.472 533.644 453.669 533.932 453.808C534.225 453.941 534.553 454.008 534.916 454.008C535.263 454.008 535.548 453.968 535.772 453.888C535.996 453.803 536.183 453.709 536.332 453.608C536.481 453.507 536.604 453.416 536.7 453.336C536.796 453.251 536.892 453.208 536.988 453.208C537.111 453.208 537.201 453.253 537.26 453.344L537.66 453.864C537.308 454.296 536.868 454.613 536.34 454.816C535.812 455.013 535.255 455.112 534.668 455.112C534.161 455.112 533.689 455.019 533.252 454.832C532.82 454.645 532.444 454.376 532.124 454.024C531.804 453.667 531.551 453.229 531.364 452.712C531.183 452.195 531.092 451.605 531.092 450.944C531.092 450.341 531.175 449.784 531.34 449.272C531.511 448.76 531.756 448.32 532.076 447.952C532.401 447.579 532.801 447.288 533.276 447.08C533.751 446.872 534.295 446.768 534.908 446.768C535.473 446.768 535.975 446.861 536.412 447.048C536.849 447.229 537.236 447.488 537.572 447.824L537.196 448.336ZM542.345 446.768C542.83 446.768 543.278 446.851 543.689 447.016C544.099 447.176 544.454 447.411 544.753 447.72C545.051 448.024 545.283 448.403 545.449 448.856C545.619 449.304 545.705 449.816 545.705 450.392C545.705 450.616 545.681 450.765 545.633 450.84C545.585 450.915 545.494 450.952 545.361 450.952H539.969C539.979 451.464 540.049 451.909 540.177 452.288C540.305 452.667 540.481 452.984 540.705 453.24C540.929 453.491 541.195 453.68 541.505 453.808C541.814 453.931 542.161 453.992 542.545 453.992C542.902 453.992 543.209 453.952 543.465 453.872C543.726 453.787 543.95 453.696 544.137 453.6C544.323 453.504 544.478 453.416 544.601 453.336C544.729 453.251 544.838 453.208 544.929 453.208C545.046 453.208 545.137 453.253 545.201 453.344L545.601 453.864C545.425 454.077 545.214 454.264 544.969 454.424C544.723 454.579 544.459 454.707 544.177 454.808C543.899 454.909 543.611 454.984 543.313 455.032C543.014 455.085 542.718 455.112 542.425 455.112C541.865 455.112 541.347 455.019 540.873 454.832C540.403 454.64 539.995 454.363 539.649 454C539.307 453.632 539.041 453.179 538.849 452.64C538.657 452.101 538.561 451.483 538.561 450.784C538.561 450.219 538.646 449.691 538.817 449.2C538.993 448.709 539.243 448.285 539.569 447.928C539.894 447.565 540.291 447.283 540.761 447.08C541.23 446.872 541.758 446.768 542.345 446.768ZM542.377 447.816C541.689 447.816 541.147 448.016 540.753 448.416C540.358 448.811 540.113 449.36 540.017 450.064H544.425C544.425 449.733 544.379 449.432 544.289 449.16C544.198 448.883 544.065 448.645 543.889 448.448C543.713 448.245 543.497 448.091 543.241 447.984C542.99 447.872 542.702 447.816 542.377 447.816ZM549.111 443.216V455H547.687V443.216H549.111Z" fill="#2656C9"/>
<rect x="55" y="150" width="641" height="262" fill="white"/>
</svg>
