<svg width="120" height="28" viewBox="0 0 120 28" fill="none" xmlns="http://www.w3.org/2000/svg">
    <path fill-rule="evenodd" clip-rule="evenodd" d="M22.7554 14.2758C22.265 15.558 21.7983 16.8542 21.3553 18.165H21.2278L21.0299 17.6135C20.9073 17.2457 20.7259 16.7365 20.4854 16.0861C20.2451 15.4354 20.0116 14.832 19.7852 14.2758L17.0559 7.40248H13.0394L10.3381 14.2616C9.83847 15.5251 9.35771 16.8262 8.89568 18.165H8.76834L7.31187 14.29L4.49713 7.30353H0L6.78816 22.9028H10.635L13.5483 15.5485C14.0482 14.2852 14.5291 12.9936 14.9908 11.6737H15.1183L15.3162 12.211C15.4388 12.5786 15.618 13.0853 15.8536 13.7313C16.0895 14.377 16.3203 14.983 16.5468 15.5485L19.4601 22.9028H23.3069L29.9538 7.30353H25.4567L22.7554 14.2758Z" fill="#06038D"/>
    <path fill-rule="evenodd" clip-rule="evenodd" d="M34.8354 13.2291C35.109 12.0977 35.6677 11.2468 36.5113 10.6764C37.3554 10.1059 38.4372 9.82062 39.7571 9.82062C41.0771 9.82062 42.159 10.1059 43.0028 10.6764C43.8469 11.2468 44.4054 12.0977 44.6788 13.2291H34.8354ZM39.7571 6.78015C36.8345 6.78015 34.5527 7.51539 32.9122 8.98605C31.2716 10.4571 30.4514 12.4982 30.4514 15.1099C30.4514 17.7311 31.2786 19.7722 32.9332 21.2336C34.5879 22.6952 36.9098 23.4257 39.8984 23.4257C41.1337 23.4257 42.2487 23.3218 43.2433 23.1147C44.2381 22.9073 45.0631 22.6314 45.7183 22.2873C46.3733 21.9431 46.9322 21.5329 47.3942 21.0571C47.856 20.5807 48.1977 20.0954 48.4193 19.6001C48.6412 19.1051 48.7896 18.5795 48.8649 18.0234H44.3674C44.3015 18.2966 44.1789 18.561 43.9999 18.8152C43.8206 19.0699 43.5638 19.3198 43.2291 19.5649C42.8944 19.8101 42.4419 20.008 41.8714 20.159C41.301 20.3097 40.6435 20.3851 39.8984 20.3851C38.3617 20.3851 37.1455 20.0339 36.2499 19.3314C35.354 18.6291 34.8354 17.5661 34.6941 16.1422H48.9924C49.0393 15.6522 49.0628 15.308 49.0628 15.1099C49.0628 12.4982 48.2428 10.4571 46.602 8.98605C44.9615 7.51539 42.6797 6.78015 39.7571 6.78015Z" fill="#06038D"/>
    <path fill-rule="evenodd" clip-rule="evenodd" d="M83.9979 13.2291C84.2711 12.0977 84.8299 11.2468 85.6737 10.6764C86.5177 10.1059 87.5994 9.82062 88.9194 9.82062C90.2393 9.82062 91.3214 10.1059 92.1652 10.6764C93.009 11.2468 93.5675 12.0977 93.8411 13.2291H83.9979ZM88.9194 6.78015C85.9967 6.78015 83.7149 7.51539 82.0745 8.98605C80.434 10.4571 79.6138 12.4982 79.6138 15.1099C79.6138 17.7311 80.4411 19.7722 82.0955 21.2336C83.7503 22.6952 86.072 23.4257 89.061 23.4257C90.2961 23.4257 91.411 23.3218 92.4057 23.1147C93.4003 22.9073 94.2252 22.6314 94.8804 22.2873C95.5358 21.9431 96.0943 21.5329 96.5564 21.0571C97.0186 20.5807 97.3601 20.0954 97.5818 19.6001C97.8034 19.1051 97.9517 18.5795 98.0272 18.0234H93.5299C93.4641 18.2966 93.3415 18.561 93.1623 18.8152C92.9831 19.0699 92.7262 19.3198 92.3915 19.5649C92.0568 19.8101 91.6044 20.008 91.034 20.159C90.4635 20.3097 89.8057 20.3851 89.061 20.3851C87.5241 20.3851 86.3077 20.0339 85.412 19.3314C84.5164 18.6291 83.9979 17.5661 83.8562 16.1422H98.1545C98.2018 15.6522 98.2253 15.308 98.2253 15.1099C98.2253 12.4982 97.4049 10.4571 95.7646 8.98605C94.124 7.51539 91.8422 6.78015 88.9194 6.78015Z" fill="#06038D"/>
    <path fill-rule="evenodd" clip-rule="evenodd" d="M52.7321 8.08945C52.2122 8.609 51.9524 9.35824 51.9524 10.3364V22.9028H56.2314V10.8855H64.5797V7.30975H54.9792C54.0009 7.30975 53.2518 7.56972 52.7321 8.08945Z" fill="#06038D"/>
    <path fill-rule="evenodd" clip-rule="evenodd" d="M69.7005 0.779698C69.1807 1.29924 68.9208 2.04848 68.9208 3.02665V7.3096H65.8633V10.8855H68.9208V22.9026H73.1997V10.8855H78.9494V7.3096H73.1997V3.5759H79.5607V0H71.9476C70.9694 0 70.2202 0.259962 69.7005 0.779698Z" fill="#06038D"/>
    <path fill-rule="evenodd" clip-rule="evenodd" d="M117.53 8.08965C117.011 7.56992 116.261 7.30995 115.283 7.30995H105.256V7.30371H101.155V22.903H105.256V10.8857H114.031V22.903H118.31V10.3366C118.31 9.35844 118.05 8.6092 117.53 8.08965Z" fill="#06038D"/>
</svg>
