<svg width="456" height="88" viewBox="0 0 456 88" fill="none" xmlns="http://www.w3.org/2000/svg">
<path d="M10.535 79.988C10.535 80.7393 10.416 81.43 10.178 82.06C9.94 82.6853 9.604 83.2243 9.17 83.677C8.736 84.1297 8.21333 84.482 7.602 84.734C6.99533 84.9813 6.32333 85.105 5.586 85.105C4.84867 85.105 4.17667 84.9813 3.57 84.734C2.96333 84.482 2.443 84.1297 2.009 83.677C1.575 83.2243 1.239 82.6853 1.001 82.06C0.763 81.43 0.644 80.7393 0.644 79.988C0.644 79.2367 0.763 78.5483 1.001 77.923C1.239 77.293 1.575 76.7517 2.009 76.299C2.443 75.8417 2.96333 75.487 3.57 75.235C4.17667 74.983 4.84867 74.857 5.586 74.857C6.32333 74.857 6.99533 74.983 7.602 75.235C8.21333 75.487 8.736 75.8417 9.17 76.299C9.604 76.7517 9.94 77.293 10.178 77.923C10.416 78.5483 10.535 79.2367 10.535 79.988ZM9.142 79.988C9.142 79.372 9.058 78.819 8.89 78.329C8.722 77.839 8.484 77.426 8.176 77.09C7.868 76.7493 7.49467 76.488 7.056 76.306C6.61733 76.124 6.12733 76.033 5.586 76.033C5.04933 76.033 4.56167 76.124 4.123 76.306C3.68433 76.488 3.30867 76.7493 2.996 77.09C2.688 77.426 2.45 77.839 2.282 78.329C2.114 78.819 2.03 79.372 2.03 79.988C2.03 80.604 2.114 81.157 2.282 81.647C2.45 82.1323 2.688 82.5453 2.996 82.886C3.30867 83.222 3.68433 83.481 4.123 83.663C4.56167 83.8403 5.04933 83.929 5.586 83.929C6.12733 83.929 6.61733 83.8403 7.056 83.663C7.49467 83.481 7.868 83.222 8.176 82.886C8.484 82.5453 8.722 82.1323 8.89 81.647C9.058 81.157 9.142 80.604 9.142 79.988ZM12.1919 87.401V77.909H12.9339C13.1113 77.909 13.2233 77.9953 13.2699 78.168L13.3749 79.008C13.6783 78.6393 14.0236 78.343 14.4109 78.119C14.8029 77.895 15.2533 77.783 15.7619 77.783C16.1679 77.783 16.5366 77.8623 16.8679 78.021C17.1993 78.175 17.4816 78.406 17.7149 78.714C17.9483 79.0173 18.1279 79.3953 18.2539 79.848C18.3799 80.3007 18.4429 80.821 18.4429 81.409C18.4429 81.9317 18.3729 82.4193 18.2329 82.872C18.0929 83.32 17.8923 83.7097 17.6309 84.041C17.3696 84.3677 17.0476 84.6267 16.6649 84.818C16.2869 85.0047 15.8599 85.098 15.3839 85.098C14.9453 85.098 14.5696 85.0257 14.2569 84.881C13.9489 84.7363 13.6759 84.531 13.4379 84.265V87.401H12.1919ZM15.3489 78.791C14.9429 78.791 14.5859 78.8843 14.2779 79.071C13.9746 79.2577 13.6946 79.5213 13.4379 79.862V83.292C13.6666 83.6 13.9163 83.817 14.1869 83.943C14.4623 84.069 14.7679 84.132 15.1039 84.132C15.7619 84.132 16.2683 83.8963 16.6229 83.425C16.9776 82.9537 17.1549 82.2817 17.1549 81.409C17.1549 80.947 17.1129 80.5503 17.0289 80.219C16.9496 79.8877 16.8329 79.617 16.6789 79.407C16.5249 79.1923 16.3359 79.036 16.1119 78.938C15.8879 78.84 15.6336 78.791 15.3489 78.791ZM22.0655 85.112C21.5055 85.112 21.0739 84.9557 20.7705 84.643C20.4719 84.3303 20.3225 83.88 20.3225 83.292V78.952H19.4685C19.3939 78.952 19.3309 78.931 19.2795 78.889C19.2282 78.8423 19.2025 78.7723 19.2025 78.679V78.182L20.3645 78.035L20.6515 75.844C20.6609 75.774 20.6912 75.718 20.7425 75.676C20.7939 75.6293 20.8592 75.606 20.9385 75.606H21.5685V78.049H23.5985V78.952H21.5685V83.208C21.5685 83.5067 21.6409 83.7283 21.7855 83.873C21.9302 84.0177 22.1169 84.09 22.3455 84.09C22.4762 84.09 22.5882 84.0737 22.6815 84.041C22.7795 84.0037 22.8635 83.964 22.9335 83.922C23.0035 83.88 23.0619 83.8427 23.1085 83.81C23.1599 83.7727 23.2042 83.754 23.2415 83.754C23.3069 83.754 23.3652 83.7937 23.4165 83.873L23.7805 84.468C23.5659 84.6687 23.3069 84.8273 23.0035 84.944C22.7002 85.056 22.3875 85.112 22.0655 85.112ZM26.5252 77.909V85H25.2792V77.909H26.5252ZM26.8052 75.683C26.8052 75.8043 26.7795 75.9187 26.7282 76.026C26.6815 76.1287 26.6162 76.222 26.5322 76.306C26.4529 76.3853 26.3595 76.4483 26.2522 76.495C26.1449 76.5417 26.0305 76.565 25.9092 76.565C25.7879 76.565 25.6735 76.5417 25.5662 76.495C25.4635 76.4483 25.3702 76.3853 25.2862 76.306C25.2069 76.222 25.1439 76.1287 25.0972 76.026C25.0505 75.9187 25.0272 75.8043 25.0272 75.683C25.0272 75.5617 25.0505 75.4473 25.0972 75.34C25.1439 75.228 25.2069 75.1323 25.2862 75.053C25.3702 74.969 25.4635 74.9037 25.5662 74.857C25.6735 74.8103 25.7879 74.787 25.9092 74.787C26.0305 74.787 26.1449 74.8103 26.2522 74.857C26.3595 74.9037 26.4529 74.969 26.5322 75.053C26.6162 75.1323 26.6815 75.228 26.7282 75.34C26.7795 75.4473 26.8052 75.5617 26.8052 75.683ZM31.5912 77.797C32.1092 77.797 32.5759 77.8833 32.9912 78.056C33.4112 78.2287 33.7659 78.4737 34.0552 78.791C34.3492 79.1083 34.5732 79.4933 34.7272 79.946C34.8859 80.394 34.9652 80.8957 34.9652 81.451C34.9652 82.011 34.8859 82.515 34.7272 82.963C34.5732 83.411 34.3492 83.7937 34.0552 84.111C33.7659 84.4283 33.4112 84.6733 32.9912 84.846C32.5759 85.014 32.1092 85.098 31.5912 85.098C31.0732 85.098 30.6042 85.014 30.1842 84.846C29.7689 84.6733 29.4142 84.4283 29.1202 84.111C28.8262 83.7937 28.5999 83.411 28.4412 82.963C28.2826 82.515 28.2032 82.011 28.2032 81.451C28.2032 80.8957 28.2826 80.394 28.4412 79.946C28.5999 79.4933 28.8262 79.1083 29.1202 78.791C29.4142 78.4737 29.7689 78.2287 30.1842 78.056C30.6042 77.8833 31.0732 77.797 31.5912 77.797ZM31.5912 84.125C32.2912 84.125 32.8139 83.8917 33.1592 83.425C33.5046 82.9537 33.6772 82.298 33.6772 81.458C33.6772 80.6133 33.5046 79.9553 33.1592 79.484C32.8139 79.0127 32.2912 78.777 31.5912 78.777C31.2366 78.777 30.9286 78.8377 30.6672 78.959C30.4059 79.0803 30.1866 79.2553 30.0092 79.484C29.8366 79.7127 29.7059 79.995 29.6172 80.331C29.5332 80.6623 29.4912 81.038 29.4912 81.458C29.4912 81.878 29.5332 82.2537 29.6172 82.585C29.7059 82.9163 29.8366 83.1963 30.0092 83.425C30.1866 83.649 30.4059 83.8217 30.6672 83.943C30.9286 84.0643 31.2366 84.125 31.5912 84.125ZM36.5005 85V77.909H37.2425C37.4198 77.909 37.5318 77.9953 37.5785 78.168L37.6765 78.938C37.9845 78.5973 38.3275 78.322 38.7055 78.112C39.0882 77.902 39.5292 77.797 40.0285 77.797C40.4158 77.797 40.7565 77.8623 41.0505 77.993C41.3492 78.119 41.5965 78.301 41.7925 78.539C41.9932 78.7723 42.1448 79.0547 42.2475 79.386C42.3502 79.7173 42.4015 80.0837 42.4015 80.485V85H41.1555V80.485C41.1555 79.9483 41.0318 79.533 40.7845 79.239C40.5418 78.9403 40.1685 78.791 39.6645 78.791C39.2958 78.791 38.9505 78.8797 38.6285 79.057C38.3112 79.2343 38.0172 79.4747 37.7465 79.778V85H36.5005ZM49.4878 85H48.9348C48.8135 85 48.7155 84.9813 48.6408 84.944C48.5661 84.9067 48.5171 84.8273 48.4938 84.706L48.3538 84.048C48.1671 84.216 47.9851 84.3677 47.8078 84.503C47.6305 84.6337 47.4438 84.7457 47.2478 84.839C47.0518 84.9277 46.8418 84.9953 46.6178 85.042C46.3985 85.0887 46.1535 85.112 45.8828 85.112C45.6075 85.112 45.3485 85.0747 45.1058 85C44.8678 84.9207 44.6601 84.804 44.4828 84.65C44.3055 84.496 44.1631 84.3023 44.0558 84.069C43.9531 83.831 43.9018 83.551 43.9018 83.229C43.9018 82.949 43.9788 82.6807 44.1328 82.424C44.2868 82.1627 44.5341 81.9317 44.8748 81.731C45.2201 81.5303 45.6705 81.367 46.2258 81.241C46.7811 81.1103 47.4601 81.0357 48.2628 81.017V80.464C48.2628 79.9133 48.1438 79.498 47.9058 79.218C47.6725 78.9333 47.3248 78.791 46.8628 78.791C46.5595 78.791 46.3028 78.8307 46.0928 78.91C45.8875 78.9847 45.7078 79.071 45.5538 79.169C45.4045 79.2623 45.2738 79.3487 45.1618 79.428C45.0545 79.5027 44.9471 79.54 44.8398 79.54C44.7558 79.54 44.6811 79.519 44.6158 79.477C44.5551 79.4303 44.5061 79.3743 44.4688 79.309L44.2448 78.91C44.6368 78.532 45.0591 78.2497 45.5118 78.063C45.9645 77.8763 46.4661 77.783 47.0168 77.783C47.4135 77.783 47.7658 77.8483 48.0738 77.979C48.3818 78.1097 48.6408 78.2917 48.8508 78.525C49.0608 78.7583 49.2195 79.0407 49.3268 79.372C49.4341 79.7033 49.4878 80.0673 49.4878 80.464V85ZM46.2538 84.237C46.4731 84.237 46.6738 84.216 46.8558 84.174C47.0378 84.1273 47.2081 84.0643 47.3668 83.985C47.5301 83.901 47.6841 83.8007 47.8288 83.684C47.9781 83.5673 48.1228 83.4343 48.2628 83.285V81.808C47.6888 81.8267 47.2011 81.8733 46.7998 81.948C46.3985 82.018 46.0718 82.1113 45.8198 82.228C45.5678 82.3447 45.3835 82.4823 45.2668 82.641C45.1548 82.7997 45.0988 82.977 45.0988 83.173C45.0988 83.3597 45.1291 83.5207 45.1898 83.656C45.2505 83.7913 45.3321 83.9033 45.4348 83.992C45.5375 84.076 45.6588 84.139 45.7988 84.181C45.9388 84.2183 46.0905 84.237 46.2538 84.237ZM52.7615 74.689V85H51.5155V74.689H52.7615ZM57.6646 85V74.689H58.9106V78.861C59.2139 78.539 59.5499 78.2823 59.9186 78.091C60.2872 77.895 60.7119 77.797 61.1926 77.797C61.5799 77.797 61.9206 77.8623 62.2146 77.993C62.5132 78.119 62.7606 78.301 62.9566 78.539C63.1572 78.7723 63.3089 79.0547 63.4116 79.386C63.5142 79.7173 63.5656 80.0837 63.5656 80.485V85H62.3196V80.485C62.3196 79.9483 62.1959 79.533 61.9486 79.239C61.7059 78.9403 61.3326 78.791 60.8286 78.791C60.4599 78.791 60.1146 78.8797 59.7926 79.057C59.4752 79.2343 59.1812 79.4747 58.9106 79.778V85H57.6646ZM68.2509 77.797C68.6755 77.797 69.0675 77.8693 69.4269 78.014C69.7862 78.154 70.0965 78.3593 70.3579 78.63C70.6192 78.896 70.8222 79.2273 70.9669 79.624C71.1162 80.016 71.1909 80.464 71.1909 80.968C71.1909 81.164 71.1699 81.2947 71.1279 81.36C71.0859 81.4253 71.0065 81.458 70.8899 81.458H66.1719C66.1812 81.906 66.2419 82.2957 66.3539 82.627C66.4659 82.9583 66.6199 83.236 66.8159 83.46C67.0119 83.6793 67.2452 83.845 67.5159 83.957C67.7865 84.0643 68.0899 84.118 68.4259 84.118C68.7385 84.118 69.0069 84.083 69.2309 84.013C69.4595 83.9383 69.6555 83.859 69.8189 83.775C69.9822 83.691 70.1175 83.614 70.2249 83.544C70.3369 83.4693 70.4325 83.432 70.5119 83.432C70.6145 83.432 70.6939 83.4717 70.7499 83.551L71.0999 84.006C70.9459 84.1927 70.7615 84.356 70.5469 84.496C70.3322 84.6313 70.1012 84.7433 69.8539 84.832C69.6112 84.9207 69.3592 84.986 69.0979 85.028C68.8365 85.0747 68.5775 85.098 68.3209 85.098C67.8309 85.098 67.3782 85.0163 66.9629 84.853C66.5522 84.685 66.1952 84.4423 65.8919 84.125C65.5932 83.803 65.3599 83.4063 65.1919 82.935C65.0239 82.4637 64.9399 81.9223 64.9399 81.311C64.9399 80.8163 65.0145 80.3543 65.1639 79.925C65.3179 79.4957 65.5372 79.1247 65.8219 78.812C66.1065 78.4947 66.4542 78.2473 66.8649 78.07C67.2755 77.888 67.7375 77.797 68.2509 77.797ZM68.2789 78.714C67.6769 78.714 67.2032 78.889 66.8579 79.239C66.5125 79.5843 66.2979 80.065 66.2139 80.681H70.0709C70.0709 80.3917 70.0312 80.128 69.9519 79.89C69.8725 79.6473 69.7559 79.4397 69.6019 79.267C69.4479 79.0897 69.2589 78.9543 69.0349 78.861C68.8155 78.763 68.5635 78.714 68.2789 78.714ZM74.1717 74.689V85H72.9257V74.689H74.1717ZM76.3677 87.401V77.909H77.1097C77.287 77.909 77.399 77.9953 77.4457 78.168L77.5507 79.008C77.854 78.6393 78.1994 78.343 78.5867 78.119C78.9787 77.895 79.429 77.783 79.9377 77.783C80.3437 77.783 80.7124 77.8623 81.0437 78.021C81.375 78.175 81.6574 78.406 81.8907 78.714C82.124 79.0173 82.3037 79.3953 82.4297 79.848C82.5557 80.3007 82.6187 80.821 82.6187 81.409C82.6187 81.9317 82.5487 82.4193 82.4087 82.872C82.2687 83.32 82.068 83.7097 81.8067 84.041C81.5454 84.3677 81.2234 84.6267 80.8407 84.818C80.4627 85.0047 80.0357 85.098 79.5597 85.098C79.121 85.098 78.7454 85.0257 78.4327 84.881C78.1247 84.7363 77.8517 84.531 77.6137 84.265V87.401H76.3677ZM79.5247 78.791C79.1187 78.791 78.7617 78.8843 78.4537 79.071C78.1504 79.2577 77.8704 79.5213 77.6137 79.862V83.292C77.8424 83.6 78.092 83.817 78.3627 83.943C78.638 84.069 78.9437 84.132 79.2797 84.132C79.9377 84.132 80.444 83.8963 80.7987 83.425C81.1534 82.9537 81.3307 82.2817 81.3307 81.409C81.3307 80.947 81.2887 80.5503 81.2047 80.219C81.1254 79.8877 81.0087 79.617 80.8547 79.407C80.7007 79.1923 80.5117 79.036 80.2877 78.938C80.0637 78.84 79.8094 78.791 79.5247 78.791ZM86.8993 77.797C87.324 77.797 87.716 77.8693 88.0753 78.014C88.4346 78.154 88.745 78.3593 89.0063 78.63C89.2676 78.896 89.4706 79.2273 89.6153 79.624C89.7646 80.016 89.8393 80.464 89.8393 80.968C89.8393 81.164 89.8183 81.2947 89.7763 81.36C89.7343 81.4253 89.655 81.458 89.5383 81.458H84.8203C84.8296 81.906 84.8903 82.2957 85.0023 82.627C85.1143 82.9583 85.2683 83.236 85.4643 83.46C85.6603 83.6793 85.8936 83.845 86.1643 83.957C86.435 84.0643 86.7383 84.118 87.0743 84.118C87.387 84.118 87.6553 84.083 87.8793 84.013C88.108 83.9383 88.304 83.859 88.4673 83.775C88.6306 83.691 88.766 83.614 88.8733 83.544C88.9853 83.4693 89.081 83.432 89.1603 83.432C89.263 83.432 89.3423 83.4717 89.3983 83.551L89.7483 84.006C89.5943 84.1927 89.41 84.356 89.1953 84.496C88.9806 84.6313 88.7496 84.7433 88.5023 84.832C88.2596 84.9207 88.0076 84.986 87.7463 85.028C87.485 85.0747 87.226 85.098 86.9693 85.098C86.4793 85.098 86.0266 85.0163 85.6113 84.853C85.2006 84.685 84.8436 84.4423 84.5403 84.125C84.2416 83.803 84.0083 83.4063 83.8403 82.935C83.6723 82.4637 83.5883 81.9223 83.5883 81.311C83.5883 80.8163 83.663 80.3543 83.8123 79.925C83.9663 79.4957 84.1856 79.1247 84.4703 78.812C84.755 78.4947 85.1026 78.2473 85.5133 78.07C85.924 77.888 86.386 77.797 86.8993 77.797ZM86.9273 78.714C86.3253 78.714 85.8516 78.889 85.5063 79.239C85.161 79.5843 84.9463 80.065 84.8623 80.681H88.7193C88.7193 80.3917 88.6796 80.128 88.6003 79.89C88.521 79.6473 88.4043 79.4397 88.2503 79.267C88.0963 79.0897 87.9073 78.9543 87.6833 78.861C87.464 78.763 87.212 78.714 86.9273 78.714ZM91.4341 85V77.909H92.1481C92.2834 77.909 92.3768 77.9347 92.4281 77.986C92.4794 78.0373 92.5144 78.126 92.5331 78.252L92.6171 79.358C92.8598 78.8633 93.1584 78.4783 93.5131 78.203C93.8724 77.923 94.2924 77.783 94.7731 77.783C94.9691 77.783 95.1464 77.8063 95.3051 77.853C95.4638 77.895 95.6108 77.9557 95.7461 78.035L95.5851 78.966C95.5524 79.0827 95.4801 79.141 95.3681 79.141C95.3028 79.141 95.2024 79.12 95.0671 79.078C94.9318 79.0313 94.7428 79.008 94.5001 79.008C94.0661 79.008 93.7021 79.134 93.4081 79.386C93.1188 79.638 92.8761 80.0043 92.6801 80.485V85H91.4341ZM101.937 85.112C101.377 85.112 100.945 84.9557 100.642 84.643C100.343 84.3303 100.194 83.88 100.194 83.292V78.952H99.3396C99.265 78.952 99.202 78.931 99.1506 78.889C99.0993 78.8423 99.0736 78.7723 99.0736 78.679V78.182L100.236 78.035L100.523 75.844C100.532 75.774 100.562 75.718 100.614 75.676C100.665 75.6293 100.73 75.606 100.81 75.606H101.44V78.049H103.47V78.952H101.44V83.208C101.44 83.5067 101.512 83.7283 101.657 83.873C101.801 84.0177 101.988 84.09 102.217 84.09C102.347 84.09 102.459 84.0737 102.553 84.041C102.651 84.0037 102.735 83.964 102.805 83.922C102.875 83.88 102.933 83.8427 102.98 83.81C103.031 83.7727 103.075 83.754 103.113 83.754C103.178 83.754 103.236 83.7937 103.288 83.873L103.652 84.468C103.437 84.6687 103.178 84.8273 102.875 84.944C102.571 85.056 102.259 85.112 101.937 85.112ZM107.817 77.797C108.242 77.797 108.634 77.8693 108.993 78.014C109.353 78.154 109.663 78.3593 109.924 78.63C110.186 78.896 110.389 79.2273 110.533 79.624C110.683 80.016 110.757 80.464 110.757 80.968C110.757 81.164 110.736 81.2947 110.694 81.36C110.652 81.4253 110.573 81.458 110.456 81.458H105.738C105.748 81.906 105.808 82.2957 105.92 82.627C106.032 82.9583 106.186 83.236 106.382 83.46C106.578 83.6793 106.812 83.845 107.082 83.957C107.353 84.0643 107.656 84.118 107.992 84.118C108.305 84.118 108.573 84.083 108.797 84.013C109.026 83.9383 109.222 83.859 109.385 83.775C109.549 83.691 109.684 83.614 109.791 83.544C109.903 83.4693 109.999 83.432 110.078 83.432C110.181 83.432 110.26 83.4717 110.316 83.551L110.666 84.006C110.512 84.1927 110.328 84.356 110.113 84.496C109.899 84.6313 109.668 84.7433 109.42 84.832C109.178 84.9207 108.926 84.986 108.664 85.028C108.403 85.0747 108.144 85.098 107.887 85.098C107.397 85.098 106.945 85.0163 106.529 84.853C106.119 84.685 105.762 84.4423 105.458 84.125C105.16 83.803 104.926 83.4063 104.758 82.935C104.59 82.4637 104.506 81.9223 104.506 81.311C104.506 80.8163 104.581 80.3543 104.73 79.925C104.884 79.4957 105.104 79.1247 105.388 78.812C105.673 78.4947 106.021 78.2473 106.431 78.07C106.842 77.888 107.304 77.797 107.817 77.797ZM107.845 78.714C107.243 78.714 106.77 78.889 106.424 79.239C106.079 79.5843 105.864 80.065 105.78 80.681H109.637C109.637 80.3917 109.598 80.128 109.518 79.89C109.439 79.6473 109.322 79.4397 109.168 79.267C109.014 79.0897 108.825 78.9543 108.601 78.861C108.382 78.763 108.13 78.714 107.845 78.714ZM113.587 81.367L111.2 77.909H112.397C112.5 77.909 112.575 77.9253 112.621 77.958C112.668 77.9907 112.71 78.0373 112.747 78.098L114.483 80.758C114.525 80.6273 114.586 80.4967 114.665 80.366L116.191 78.126C116.238 78.0607 116.285 78.0093 116.331 77.972C116.378 77.93 116.436 77.909 116.506 77.909H117.654L115.267 81.297L117.752 85H116.555C116.453 85 116.371 84.9743 116.31 84.923C116.254 84.867 116.208 84.8063 116.17 84.741L114.385 81.962C114.353 82.0973 114.304 82.2187 114.238 82.326L112.586 84.741C112.54 84.8063 112.488 84.867 112.432 84.923C112.381 84.9743 112.309 85 112.215 85H111.102L113.587 81.367ZM121.132 85.112C120.572 85.112 120.14 84.9557 119.837 84.643C119.538 84.3303 119.389 83.88 119.389 83.292V78.952H118.535C118.46 78.952 118.397 78.931 118.346 78.889C118.295 78.8423 118.269 78.7723 118.269 78.679V78.182L119.431 78.035L119.718 75.844C119.727 75.774 119.758 75.718 119.809 75.676C119.86 75.6293 119.926 75.606 120.005 75.606H120.635V78.049H122.665V78.952H120.635V83.208C120.635 83.5067 120.707 83.7283 120.852 83.873C120.997 84.0177 121.183 84.09 121.412 84.09C121.543 84.09 121.655 84.0737 121.748 84.041C121.846 84.0037 121.93 83.964 122 83.922C122.07 83.88 122.128 83.8427 122.175 83.81C122.226 83.7727 122.271 83.754 122.308 83.754C122.373 83.754 122.432 83.7937 122.483 83.873L122.847 84.468C122.632 84.6687 122.373 84.8273 122.07 84.944C121.767 85.056 121.454 85.112 121.132 85.112Z" fill="#6A6A6A"/>
<path d="M9.2 4.536V5.84H5.496V16H3.944V5.84H0.224V4.536H9.2ZM12.126 7.768C12.6113 7.768 13.0593 7.85067 13.47 8.016C13.8807 8.176 14.2353 8.41067 14.534 8.72C14.8327 9.024 15.0647 9.40267 15.23 9.856C15.4007 10.304 15.486 10.816 15.486 11.392C15.486 11.616 15.462 11.7653 15.414 11.84C15.366 11.9147 15.2753 11.952 15.142 11.952H9.75C9.76067 12.464 9.83 12.9093 9.958 13.288C10.086 13.6667 10.262 13.984 10.486 14.24C10.71 14.4907 10.9767 14.68 11.286 14.808C11.5953 14.9307 11.942 14.992 12.326 14.992C12.6833 14.992 12.99 14.952 13.246 14.872C13.5073 14.7867 13.7313 14.696 13.918 14.6C14.1047 14.504 14.2593 14.416 14.382 14.336C14.51 14.2507 14.6193 14.208 14.71 14.208C14.8273 14.208 14.918 14.2533 14.982 14.344L15.382 14.864C15.206 15.0773 14.9953 15.264 14.75 15.424C14.5047 15.5787 14.2407 15.7067 13.958 15.808C13.6807 15.9093 13.3927 15.984 13.094 16.032C12.7953 16.0853 12.4993 16.112 12.206 16.112C11.646 16.112 11.1287 16.0187 10.654 15.832C10.1847 15.64 9.77667 15.3627 9.43 15C9.08867 14.632 8.822 14.1787 8.63 13.64C8.438 13.1013 8.342 12.4827 8.342 11.784C8.342 11.2187 8.42733 10.6907 8.598 10.2C8.774 9.70933 9.02467 9.28533 9.35 8.928C9.67533 8.56533 10.0727 8.28267 10.542 8.08C11.0113 7.872 11.5393 7.768 12.126 7.768ZM12.158 8.816C11.47 8.816 10.9287 9.016 10.534 9.416C10.1393 9.81067 9.894 10.36 9.798 11.064H14.206C14.206 10.7333 14.1607 10.432 14.07 10.16C13.9793 9.88267 13.846 9.64533 13.67 9.448C13.494 9.24533 13.278 9.09067 13.022 8.984C12.7713 8.872 12.4833 8.816 12.158 8.816ZM18.7203 11.848L15.9923 7.896H17.3603C17.4776 7.896 17.5629 7.91467 17.6163 7.952C17.6696 7.98933 17.7176 8.04267 17.7603 8.112L19.7443 11.152C19.7923 11.0027 19.8616 10.8533 19.9523 10.704L21.6963 8.144C21.7496 8.06933 21.8029 8.01067 21.8563 7.968C21.9096 7.92 21.9763 7.896 22.0563 7.896H23.3683L20.6403 11.768L23.4803 16H22.1123C21.9949 16 21.9016 15.9707 21.8323 15.912C21.7683 15.848 21.7149 15.7787 21.6723 15.704L19.6323 12.528C19.5949 12.6827 19.5389 12.8213 19.4643 12.944L17.5763 15.704C17.5229 15.7787 17.4643 15.848 17.4003 15.912C17.3416 15.9707 17.2589 16 17.1523 16H15.8803L18.7203 11.848ZM27.3428 16.128C26.7028 16.128 26.2094 15.9493 25.8628 15.592C25.5214 15.2347 25.3508 14.72 25.3508 14.048V9.088H24.3748C24.2894 9.088 24.2174 9.064 24.1588 9.016C24.1001 8.96267 24.0708 8.88267 24.0708 8.776V8.208L25.3988 8.04L25.7268 5.536C25.7374 5.456 25.7721 5.392 25.8307 5.344C25.8894 5.29067 25.9641 5.264 26.0548 5.264H26.7748V8.056H29.0948V9.088H26.7748V13.952C26.7748 14.2933 26.8574 14.5467 27.0228 14.712C27.1881 14.8773 27.4014 14.96 27.6628 14.96C27.8121 14.96 27.9401 14.9413 28.0468 14.904C28.1588 14.8613 28.2548 14.816 28.3348 14.768C28.4148 14.72 28.4814 14.6773 28.5348 14.64C28.5934 14.5973 28.6441 14.576 28.6868 14.576C28.7614 14.576 28.8281 14.6213 28.8868 14.712L29.3028 15.392C29.0574 15.6213 28.7614 15.8027 28.4148 15.936C28.0681 16.064 27.7108 16.128 27.3428 16.128ZM35.5333 7.896V16H34.1093V7.896H35.5333ZM35.8533 5.352C35.8533 5.49067 35.8239 5.62133 35.7653 5.744C35.7119 5.86133 35.6373 5.968 35.5413 6.064C35.4506 6.15467 35.3439 6.22667 35.2213 6.28C35.0986 6.33333 34.9679 6.36 34.8293 6.36C34.6906 6.36 34.5599 6.33333 34.4373 6.28C34.3199 6.22667 34.2133 6.15467 34.1173 6.064C34.0266 5.968 33.9546 5.86133 33.9013 5.744C33.8479 5.62133 33.8213 5.49067 33.8213 5.352C33.8213 5.21333 33.8479 5.08267 33.9013 4.96C33.9546 4.832 34.0266 4.72267 34.1173 4.632C34.2133 4.536 34.3199 4.46133 34.4373 4.408C34.5599 4.35467 34.6906 4.328 34.8293 4.328C34.9679 4.328 35.0986 4.35467 35.2213 4.408C35.3439 4.46133 35.4506 4.536 35.5413 4.632C35.6373 4.72267 35.7119 4.832 35.7653 4.96C35.8239 5.08267 35.8533 5.21333 35.8533 5.352ZM38.043 16V7.896H38.891C39.0937 7.896 39.2217 7.99467 39.275 8.192L39.387 9.072C39.739 8.68267 40.131 8.368 40.563 8.128C41.0003 7.888 41.5043 7.768 42.075 7.768C42.5177 7.768 42.907 7.84267 43.243 7.992C43.5843 8.136 43.867 8.344 44.091 8.616C44.3203 8.88267 44.4937 9.20533 44.611 9.584C44.7283 9.96267 44.787 10.3813 44.787 10.84V16H43.363V10.84C43.363 10.2267 43.2217 9.752 42.939 9.416C42.6617 9.07467 42.235 8.904 41.659 8.904C41.2377 8.904 40.843 9.00533 40.475 9.208C40.1123 9.41067 39.7763 9.68533 39.467 10.032V16H38.043ZM46.9336 18.744V7.896H47.7816C47.9843 7.896 48.1123 7.99467 48.1656 8.192L48.2856 9.152C48.6323 8.73067 49.027 8.392 49.4696 8.136C49.9176 7.88 50.4323 7.752 51.0136 7.752C51.4776 7.752 51.899 7.84267 52.2776 8.024C52.6563 8.2 52.979 8.464 53.2456 8.816C53.5123 9.16267 53.7176 9.59467 53.8616 10.112C54.0056 10.6293 54.0776 11.224 54.0776 11.896C54.0776 12.4933 53.9976 13.0507 53.8376 13.568C53.6776 14.08 53.4483 14.5253 53.1496 14.904C52.851 15.2773 52.483 15.5733 52.0456 15.792C51.6136 16.0053 51.1256 16.112 50.5816 16.112C50.0803 16.112 49.651 16.0293 49.2936 15.864C48.9416 15.6987 48.6296 15.464 48.3576 15.16V18.744H46.9336ZM50.5416 8.904C50.0776 8.904 49.6696 9.01067 49.3176 9.224C48.971 9.43733 48.651 9.73867 48.3576 10.128V14.048C48.619 14.4 48.9043 14.648 49.2136 14.792C49.5283 14.936 49.8776 15.008 50.2616 15.008C51.0136 15.008 51.5923 14.7387 51.9976 14.2C52.403 13.6613 52.6056 12.8933 52.6056 11.896C52.6056 11.368 52.5576 10.9147 52.4616 10.536C52.371 10.1573 52.2376 9.848 52.0616 9.608C51.8856 9.36267 51.6696 9.184 51.4136 9.072C51.1576 8.96 50.867 8.904 50.5416 8.904ZM56.9938 7.896V13.064C56.9938 13.6773 57.1351 14.152 57.4178 14.488C57.7004 14.824 58.1271 14.992 58.6978 14.992C59.1138 14.992 59.5058 14.8933 59.8738 14.696C60.2418 14.4987 60.5804 14.224 60.8898 13.872V7.896H62.3138V16H61.4658C61.2631 16 61.1351 15.9013 61.0818 15.704L60.9698 14.832C60.6178 15.2213 60.2231 15.536 59.7858 15.776C59.3484 16.0107 58.8471 16.128 58.2818 16.128C57.8391 16.128 57.4471 16.056 57.1058 15.912C56.7698 15.7627 56.4871 15.5547 56.2578 15.288C56.0284 15.0213 55.8551 14.6987 55.7378 14.32C55.6258 13.9413 55.5698 13.5227 55.5698 13.064V7.896H56.9938ZM67.1084 16.128C66.4684 16.128 65.975 15.9493 65.6284 15.592C65.287 15.2347 65.1164 14.72 65.1164 14.048V9.088H64.1404C64.055 9.088 63.983 9.064 63.9244 9.016C63.8657 8.96267 63.8364 8.88267 63.8364 8.776V8.208L65.1644 8.04L65.4924 5.536C65.503 5.456 65.5377 5.392 65.5964 5.344C65.655 5.29067 65.7297 5.264 65.8204 5.264H66.5404V8.056H68.8604V9.088H66.5404V13.952C66.5404 14.2933 66.623 14.5467 66.7884 14.712C66.9537 14.8773 67.167 14.96 67.4284 14.96C67.5777 14.96 67.7057 14.9413 67.8124 14.904C67.9244 14.8613 68.0204 14.816 68.1004 14.768C68.1804 14.72 68.247 14.6773 68.3004 14.64C68.359 14.5973 68.4097 14.576 68.4524 14.576C68.527 14.576 68.5937 14.6213 68.6524 14.712L69.0684 15.392C68.823 15.6213 68.527 15.8027 68.1804 15.936C67.8337 16.064 67.4764 16.128 67.1084 16.128ZM75.2989 4.216V16H73.8749V4.216H75.2989ZM83.7606 16H83.1286C82.99 16 82.878 15.9787 82.7926 15.936C82.7073 15.8933 82.6513 15.8027 82.6246 15.664L82.4646 14.912C82.2513 15.104 82.0433 15.2773 81.8406 15.432C81.638 15.5813 81.4246 15.7093 81.2006 15.816C80.9766 15.9173 80.7366 15.9947 80.4806 16.048C80.23 16.1013 79.95 16.128 79.6406 16.128C79.326 16.128 79.03 16.0853 78.7526 16C78.4806 15.9093 78.2433 15.776 78.0406 15.6C77.838 15.424 77.6753 15.2027 77.5526 14.936C77.4353 14.664 77.3766 14.344 77.3766 13.976C77.3766 13.656 77.4646 13.3493 77.6406 13.056C77.8166 12.7573 78.0993 12.4933 78.4886 12.264C78.8833 12.0347 79.398 11.848 80.0326 11.704C80.6673 11.5547 81.4433 11.4693 82.3606 11.448V10.816C82.3606 10.1867 82.2246 9.712 81.9526 9.392C81.686 9.06667 81.2886 8.904 80.7606 8.904C80.414 8.904 80.1206 8.94933 79.8806 9.04C79.646 9.12533 79.4406 9.224 79.2646 9.336C79.094 9.44267 78.9446 9.54133 78.8166 9.632C78.694 9.71733 78.5713 9.76 78.4486 9.76C78.3526 9.76 78.2673 9.736 78.1926 9.688C78.1233 9.63467 78.0673 9.57067 78.0246 9.496L77.7686 9.04C78.2166 8.608 78.6993 8.28533 79.2166 8.072C79.734 7.85867 80.3073 7.752 80.9366 7.752C81.39 7.752 81.7926 7.82667 82.1446 7.976C82.4966 8.12533 82.7926 8.33333 83.0326 8.6C83.2726 8.86667 83.454 9.18933 83.5766 9.568C83.6993 9.94667 83.7606 10.3627 83.7606 10.816V16ZM80.0646 15.128C80.3153 15.128 80.5446 15.104 80.7526 15.056C80.9606 15.0027 81.1553 14.9307 81.3366 14.84C81.5233 14.744 81.6993 14.6293 81.8646 14.496C82.0353 14.3627 82.2006 14.2107 82.3606 14.04V12.352C81.7046 12.3733 81.1473 12.4267 80.6886 12.512C80.23 12.592 79.8566 12.6987 79.5686 12.832C79.2806 12.9653 79.07 13.1227 78.9366 13.304C78.8086 13.4853 78.7446 13.688 78.7446 13.912C78.7446 14.1253 78.7793 14.3093 78.8486 14.464C78.918 14.6187 79.0113 14.7467 79.1286 14.848C79.246 14.944 79.3846 15.016 79.5446 15.064C79.7046 15.1067 79.878 15.128 80.0646 15.128ZM85.966 16V4.216H87.398V9.064C87.734 8.67467 88.118 8.36267 88.55 8.128C88.9873 7.888 89.486 7.768 90.046 7.768C90.5153 7.768 90.9393 7.856 91.318 8.032C91.6967 8.208 92.0193 8.472 92.286 8.824C92.5527 9.17067 92.758 9.60267 92.902 10.12C93.046 10.632 93.118 11.224 93.118 11.896C93.118 12.4933 93.038 13.0507 92.878 13.568C92.718 14.08 92.486 14.5253 92.182 14.904C91.8833 15.2773 91.5153 15.5733 91.078 15.792C90.646 16.0053 90.158 16.112 89.614 16.112C89.0913 16.112 88.646 16.0107 88.278 15.808C87.9153 15.6053 87.598 15.3227 87.326 14.96L87.254 15.696C87.2113 15.8987 87.0887 16 86.886 16H85.966ZM89.582 8.904C89.118 8.904 88.71 9.01067 88.358 9.224C88.0113 9.43733 87.6913 9.73867 87.398 10.128V14.048C87.654 14.4 87.9367 14.648 88.246 14.792C88.5607 14.936 88.91 15.008 89.294 15.008C90.0513 15.008 90.6327 14.7387 91.038 14.2C91.4433 13.6613 91.646 12.8933 91.646 11.896C91.646 11.368 91.598 10.9147 91.502 10.536C91.4113 10.1573 91.278 9.848 91.102 9.608C90.926 9.36267 90.71 9.184 90.454 9.072C90.198 8.96 89.9073 8.904 89.582 8.904ZM98.0635 7.768C98.5488 7.768 98.9968 7.85067 99.4075 8.016C99.8182 8.176 100.173 8.41067 100.472 8.72C100.77 9.024 101.002 9.40267 101.168 9.856C101.338 10.304 101.424 10.816 101.424 11.392C101.424 11.616 101.4 11.7653 101.352 11.84C101.304 11.9147 101.213 11.952 101.08 11.952H95.6875C95.6982 12.464 95.7675 12.9093 95.8955 13.288C96.0235 13.6667 96.1995 13.984 96.4235 14.24C96.6475 14.4907 96.9142 14.68 97.2235 14.808C97.5328 14.9307 97.8795 14.992 98.2635 14.992C98.6208 14.992 98.9275 14.952 99.1835 14.872C99.4448 14.7867 99.6688 14.696 99.8555 14.6C100.042 14.504 100.197 14.416 100.32 14.336C100.448 14.2507 100.557 14.208 100.648 14.208C100.765 14.208 100.856 14.2533 100.92 14.344L101.32 14.864C101.144 15.0773 100.933 15.264 100.688 15.424C100.442 15.5787 100.178 15.7067 99.8955 15.808C99.6182 15.9093 99.3302 15.984 99.0315 16.032C98.7328 16.0853 98.4368 16.112 98.1435 16.112C97.5835 16.112 97.0662 16.0187 96.5915 15.832C96.1222 15.64 95.7142 15.3627 95.3675 15C95.0262 14.632 94.7595 14.1787 94.5675 13.64C94.3755 13.1013 94.2795 12.4827 94.2795 11.784C94.2795 11.2187 94.3648 10.6907 94.5355 10.2C94.7115 9.70933 94.9622 9.28533 95.2875 8.928C95.6128 8.56533 96.0102 8.28267 96.4795 8.08C96.9488 7.872 97.4768 7.768 98.0635 7.768ZM98.0955 8.816C97.4075 8.816 96.8662 9.016 96.4715 9.416C96.0768 9.81067 95.8315 10.36 95.7355 11.064H100.144C100.144 10.7333 100.098 10.432 100.008 10.16C99.9168 9.88267 99.7835 9.64533 99.6075 9.448C99.4315 9.24533 99.2155 9.09067 98.9595 8.984C98.7088 8.872 98.4208 8.816 98.0955 8.816ZM104.83 4.216V16H103.406V4.216H104.83Z" fill="black"/>
<rect x="0.5" y="28.5" width="455" height="37" rx="3.5" fill="white" stroke="#D8D8D8"/>
<path d="M15.096 48.712V53H13.552V41.536H16.936C17.6613 41.536 18.2907 41.6213 18.824 41.792C19.3627 41.9573 19.808 42.1947 20.16 42.504C20.512 42.8133 20.7733 43.1867 20.944 43.624C21.12 44.0613 21.208 44.5493 21.208 45.088C21.208 45.6213 21.1147 46.1093 20.928 46.552C20.7413 46.9947 20.4667 47.376 20.104 47.696C19.7467 48.016 19.3013 48.2667 18.768 48.448C18.2347 48.624 17.624 48.712 16.936 48.712H15.096ZM15.096 47.48H16.936C17.3787 47.48 17.768 47.4213 18.104 47.304C18.4453 47.1867 18.7307 47.024 18.96 46.816C19.1893 46.6027 19.3627 46.3493 19.48 46.056C19.5973 45.7627 19.656 45.44 19.656 45.088C19.656 44.3573 19.4293 43.7867 18.976 43.376C18.528 42.9653 17.848 42.76 16.936 42.76H15.096V47.48ZM24.5333 41.216V53H23.1093V41.216H24.5333ZM32.995 53H32.363C32.2243 53 32.1123 52.9787 32.027 52.936C31.9417 52.8933 31.8857 52.8027 31.859 52.664L31.699 51.912C31.4857 52.104 31.2777 52.2773 31.075 52.432C30.8723 52.5813 30.659 52.7093 30.435 52.816C30.211 52.9173 29.971 52.9947 29.715 53.048C29.4643 53.1013 29.1843 53.128 28.875 53.128C28.5603 53.128 28.2643 53.0853 27.987 53C27.715 52.9093 27.4777 52.776 27.275 52.6C27.0723 52.424 26.9097 52.2027 26.787 51.936C26.6697 51.664 26.611 51.344 26.611 50.976C26.611 50.656 26.699 50.3493 26.875 50.056C27.051 49.7573 27.3337 49.4933 27.723 49.264C28.1177 49.0347 28.6323 48.848 29.267 48.704C29.9017 48.5547 30.6777 48.4693 31.595 48.448V47.816C31.595 47.1867 31.459 46.712 31.187 46.392C30.9203 46.0667 30.523 45.904 29.995 45.904C29.6483 45.904 29.355 45.9493 29.115 46.04C28.8803 46.1253 28.675 46.224 28.499 46.336C28.3283 46.4427 28.179 46.5413 28.051 46.632C27.9283 46.7173 27.8057 46.76 27.683 46.76C27.587 46.76 27.5017 46.736 27.427 46.688C27.3577 46.6347 27.3017 46.5707 27.259 46.496L27.003 46.04C27.451 45.608 27.9337 45.2853 28.451 45.072C28.9683 44.8587 29.5417 44.752 30.171 44.752C30.6243 44.752 31.027 44.8267 31.379 44.976C31.731 45.1253 32.027 45.3333 32.267 45.6C32.507 45.8667 32.6883 46.1893 32.811 46.568C32.9337 46.9467 32.995 47.3627 32.995 47.816V53ZM29.299 52.128C29.5497 52.128 29.779 52.104 29.987 52.056C30.195 52.0027 30.3897 51.9307 30.571 51.84C30.7577 51.744 30.9337 51.6293 31.099 51.496C31.2697 51.3627 31.435 51.2107 31.595 51.04V49.352C30.939 49.3733 30.3817 49.4267 29.923 49.512C29.4643 49.592 29.091 49.6987 28.803 49.832C28.515 49.9653 28.3043 50.1227 28.171 50.304C28.043 50.4853 27.979 50.688 27.979 50.912C27.979 51.1253 28.0137 51.3093 28.083 51.464C28.1523 51.6187 28.2457 51.7467 28.363 51.848C28.4803 51.944 28.619 52.016 28.779 52.064C28.939 52.1067 29.1123 52.128 29.299 52.128ZM40.6804 46.336C40.6377 46.3947 40.595 46.44 40.5524 46.472C40.5097 46.504 40.4484 46.52 40.3684 46.52C40.2884 46.52 40.2004 46.488 40.1044 46.424C40.0137 46.3547 39.8964 46.28 39.7524 46.2C39.6084 46.12 39.4324 46.048 39.2244 45.984C39.0217 45.9147 38.771 45.88 38.4724 45.88C38.0777 45.88 37.7284 45.952 37.4244 46.096C37.1204 46.2347 36.8644 46.4373 36.6564 46.704C36.4537 46.9707 36.299 47.2933 36.1924 47.672C36.091 48.0507 36.0404 48.4747 36.0404 48.944C36.0404 49.4347 36.0964 49.872 36.2084 50.256C36.3204 50.6347 36.4777 50.9547 36.6804 51.216C36.883 51.472 37.1284 51.6693 37.4164 51.808C37.7097 51.9413 38.0377 52.008 38.4004 52.008C38.747 52.008 39.0324 51.968 39.2564 51.888C39.4804 51.8027 39.667 51.7093 39.8164 51.608C39.9657 51.5067 40.0884 51.416 40.1844 51.336C40.2804 51.2507 40.3764 51.208 40.4724 51.208C40.595 51.208 40.6857 51.2533 40.7444 51.344L41.1444 51.864C40.7924 52.296 40.3524 52.6133 39.8244 52.816C39.2964 53.0133 38.739 53.112 38.1524 53.112C37.6457 53.112 37.1737 53.0187 36.7364 52.832C36.3044 52.6453 35.9284 52.376 35.6084 52.024C35.2884 51.6667 35.035 51.2293 34.8484 50.712C34.667 50.1947 34.5764 49.6053 34.5764 48.944C34.5764 48.3413 34.659 47.784 34.8244 47.272C34.995 46.76 35.2404 46.32 35.5604 45.952C35.8857 45.5787 36.2857 45.288 36.7604 45.08C37.235 44.872 37.779 44.768 38.3924 44.768C38.9577 44.768 39.459 44.8613 39.8964 45.048C40.3337 45.2293 40.7204 45.488 41.0564 45.824L40.6804 46.336ZM45.8291 44.768C46.3145 44.768 46.7625 44.8507 47.1731 45.016C47.5838 45.176 47.9385 45.4107 48.2371 45.72C48.5358 46.024 48.7678 46.4027 48.9331 46.856C49.1038 47.304 49.1891 47.816 49.1891 48.392C49.1891 48.616 49.1651 48.7653 49.1171 48.84C49.0691 48.9147 48.9785 48.952 48.8451 48.952H43.4531C43.4638 49.464 43.5331 49.9093 43.6611 50.288C43.7891 50.6667 43.9651 50.984 44.1891 51.24C44.4131 51.4907 44.6798 51.68 44.9891 51.808C45.2985 51.9307 45.6451 51.992 46.0291 51.992C46.3865 51.992 46.6931 51.952 46.9491 51.872C47.2105 51.7867 47.4345 51.696 47.6211 51.6C47.8078 51.504 47.9625 51.416 48.0851 51.336C48.2131 51.2507 48.3225 51.208 48.4131 51.208C48.5305 51.208 48.6211 51.2533 48.6851 51.344L49.0851 51.864C48.9091 52.0773 48.6985 52.264 48.4531 52.424C48.2078 52.5787 47.9438 52.7067 47.6611 52.808C47.3838 52.9093 47.0958 52.984 46.7971 53.032C46.4985 53.0853 46.2025 53.112 45.9091 53.112C45.3491 53.112 44.8318 53.0187 44.3571 52.832C43.8878 52.64 43.4798 52.3627 43.1331 52C42.7918 51.632 42.5251 51.1787 42.3331 50.64C42.1411 50.1013 42.0451 49.4827 42.0451 48.784C42.0451 48.2187 42.1305 47.6907 42.3011 47.2C42.4771 46.7093 42.7278 46.2853 43.0531 45.928C43.3785 45.5653 43.7758 45.2827 44.2451 45.08C44.7145 44.872 45.2425 44.768 45.8291 44.768ZM45.8611 45.816C45.1731 45.816 44.6318 46.016 44.2371 46.416C43.8425 46.8107 43.5971 47.36 43.5011 48.064H47.9091C47.9091 47.7333 47.8638 47.432 47.7731 47.16C47.6825 46.8827 47.5491 46.6453 47.3731 46.448C47.1971 46.2453 46.9811 46.0907 46.7251 45.984C46.4745 45.872 46.1865 45.816 45.8611 45.816ZM51.0118 53V41.216H52.4358V45.984C52.7824 45.616 53.1664 45.3227 53.5878 45.104C54.0091 44.88 54.4944 44.768 55.0438 44.768C55.4864 44.768 55.8758 44.8427 56.2118 44.992C56.5531 45.136 56.8358 45.344 57.0598 45.616C57.2891 45.8827 57.4624 46.2053 57.5798 46.584C57.6971 46.9627 57.7558 47.3813 57.7558 47.84V53H56.3318V47.84C56.3318 47.2267 56.1904 46.752 55.9078 46.416C55.6304 46.0747 55.2038 45.904 54.6278 45.904C54.2064 45.904 53.8118 46.0053 53.4438 46.208C53.0811 46.4107 52.7451 46.6853 52.4358 47.032V53H51.0118ZM63.1824 44.768C63.7744 44.768 64.3077 44.8667 64.7824 45.064C65.2624 45.2613 65.6677 45.5413 65.9984 45.904C66.3344 46.2667 66.5904 46.7067 66.7664 47.224C66.9477 47.736 67.0384 48.3093 67.0384 48.944C67.0384 49.584 66.9477 50.16 66.7664 50.672C66.5904 51.184 66.3344 51.6213 65.9984 51.984C65.6677 52.3467 65.2624 52.6267 64.7824 52.824C64.3077 53.016 63.7744 53.112 63.1824 53.112C62.5904 53.112 62.0544 53.016 61.5744 52.824C61.0997 52.6267 60.6944 52.3467 60.3584 51.984C60.0224 51.6213 59.7637 51.184 59.5824 50.672C59.401 50.16 59.3104 49.584 59.3104 48.944C59.3104 48.3093 59.401 47.736 59.5824 47.224C59.7637 46.7067 60.0224 46.2667 60.3584 45.904C60.6944 45.5413 61.0997 45.2613 61.5744 45.064C62.0544 44.8667 62.5904 44.768 63.1824 44.768ZM63.1824 52C63.9824 52 64.5797 51.7333 64.9744 51.2C65.369 50.6613 65.5664 49.912 65.5664 48.952C65.5664 47.9867 65.369 47.2347 64.9744 46.696C64.5797 46.1573 63.9824 45.888 63.1824 45.888C62.777 45.888 62.425 45.9573 62.1264 46.096C61.8277 46.2347 61.577 46.4347 61.3744 46.696C61.177 46.9573 61.0277 47.28 60.9264 47.664C60.8304 48.0427 60.7824 48.472 60.7824 48.952C60.7824 49.432 60.8304 49.8613 60.9264 50.24C61.0277 50.6187 61.177 50.9387 61.3744 51.2C61.577 51.456 61.8277 51.6533 62.1264 51.792C62.425 51.9307 62.777 52 63.1824 52ZM70.377 41.216V53H68.953V41.216H70.377ZM78.5908 53C78.3881 53 78.2601 52.9013 78.2068 52.704L78.0788 51.72C77.7321 52.1413 77.3348 52.48 76.8868 52.736C76.4441 52.9867 75.9348 53.112 75.3588 53.112C74.8948 53.112 74.4734 53.024 74.0948 52.848C73.7161 52.6667 73.3934 52.4027 73.1268 52.056C72.8601 51.7093 72.6548 51.2773 72.5108 50.76C72.3668 50.2427 72.2948 49.648 72.2948 48.976C72.2948 48.3787 72.3748 47.824 72.5348 47.312C72.6948 46.7947 72.9241 46.3467 73.2228 45.968C73.5268 45.5893 73.8948 45.2933 74.3268 45.08C74.7588 44.8613 75.2494 44.752 75.7988 44.752C76.2948 44.752 76.7188 44.8373 77.0708 45.008C77.4228 45.1733 77.7374 45.408 78.0148 45.712V41.216H79.4388V53H78.5908ZM75.8307 51.96C76.2948 51.96 76.7001 51.8533 77.0468 51.64C77.3988 51.4267 77.7214 51.1253 78.0148 50.736V46.816C77.7534 46.464 77.4654 46.2187 77.1508 46.08C76.8414 45.936 76.4974 45.864 76.1188 45.864C75.3614 45.864 74.7801 46.1333 74.3748 46.672C73.9694 47.2107 73.7668 47.9787 73.7668 48.976C73.7668 49.504 73.8121 49.9573 73.9028 50.336C73.9934 50.7093 74.1268 51.0187 74.3028 51.264C74.4788 51.504 74.6948 51.68 74.9508 51.792C75.2068 51.904 75.5001 51.96 75.8307 51.96ZM85.0323 44.768C85.5176 44.768 85.9656 44.8507 86.3763 45.016C86.7869 45.176 87.1416 45.4107 87.4403 45.72C87.7389 46.024 87.9709 46.4027 88.1363 46.856C88.3069 47.304 88.3923 47.816 88.3923 48.392C88.3923 48.616 88.3683 48.7653 88.3203 48.84C88.2723 48.9147 88.1816 48.952 88.0483 48.952H82.6562C82.6669 49.464 82.7363 49.9093 82.8643 50.288C82.9923 50.6667 83.1683 50.984 83.3923 51.24C83.6163 51.4907 83.8829 51.68 84.1923 51.808C84.5016 51.9307 84.8483 51.992 85.2323 51.992C85.5896 51.992 85.8963 51.952 86.1523 51.872C86.4136 51.7867 86.6376 51.696 86.8243 51.6C87.0109 51.504 87.1656 51.416 87.2883 51.336C87.4163 51.2507 87.5256 51.208 87.6163 51.208C87.7336 51.208 87.8243 51.2533 87.8883 51.344L88.2883 51.864C88.1123 52.0773 87.9016 52.264 87.6563 52.424C87.4109 52.5787 87.1469 52.7067 86.8643 52.808C86.5869 52.9093 86.2989 52.984 86.0003 53.032C85.7016 53.0853 85.4056 53.112 85.1123 53.112C84.5523 53.112 84.0349 53.0187 83.5603 52.832C83.0909 52.64 82.6829 52.3627 82.3363 52C81.9949 51.632 81.7283 51.1787 81.5363 50.64C81.3443 50.1013 81.2483 49.4827 81.2483 48.784C81.2483 48.2187 81.3336 47.6907 81.5043 47.2C81.6803 46.7093 81.9309 46.2853 82.2563 45.928C82.5816 45.5653 82.9789 45.2827 83.4483 45.08C83.9176 44.872 84.4456 44.768 85.0323 44.768ZM85.0642 45.816C84.3763 45.816 83.8349 46.016 83.4403 46.416C83.0456 46.8107 82.8003 47.36 82.7043 48.064H87.1123C87.1123 47.7333 87.0669 47.432 86.9763 47.16C86.8856 46.8827 86.7523 46.6453 86.5763 46.448C86.4003 46.2453 86.1843 46.0907 85.9283 45.984C85.6776 45.872 85.3896 45.816 85.0642 45.816ZM90.2149 53V44.896H91.0309C91.1855 44.896 91.2922 44.9253 91.3509 44.984C91.4095 45.0427 91.4495 45.144 91.4709 45.288L91.5669 46.552C91.8442 45.9867 92.1855 45.5467 92.5909 45.232C93.0015 44.912 93.4815 44.752 94.0309 44.752C94.2549 44.752 94.4575 44.7787 94.6389 44.832C94.8202 44.88 94.9882 44.9493 95.1429 45.04L94.9589 46.104C94.9215 46.2373 94.8389 46.304 94.7109 46.304C94.6362 46.304 94.5215 46.28 94.3669 46.232C94.2122 46.1787 93.9962 46.152 93.7189 46.152C93.2229 46.152 92.8069 46.296 92.4709 46.584C92.1402 46.872 91.8629 47.2907 91.6389 47.84V53H90.2149ZM102.218 53.128C101.578 53.128 101.084 52.9493 100.738 52.592C100.396 52.2347 100.226 51.72 100.226 51.048V46.088H99.2498C99.1644 46.088 99.0924 46.064 99.0338 46.016C98.9751 45.9627 98.9458 45.8827 98.9458 45.776V45.208L100.274 45.04L100.602 42.536C100.612 42.456 100.647 42.392 100.706 42.344C100.764 42.2907 100.839 42.264 100.93 42.264H101.65V45.056H103.97V46.088H101.65V50.952C101.65 51.2933 101.732 51.5467 101.898 51.712C102.063 51.8773 102.276 51.96 102.538 51.96C102.687 51.96 102.815 51.9413 102.922 51.904C103.034 51.8613 103.13 51.816 103.21 51.768C103.29 51.72 103.356 51.6773 103.41 51.64C103.468 51.5973 103.519 51.576 103.562 51.576C103.636 51.576 103.703 51.6213 103.762 51.712L104.178 52.392C103.932 52.6213 103.636 52.8027 103.29 52.936C102.943 53.064 102.586 53.128 102.218 53.128ZM108.939 44.768C109.424 44.768 109.872 44.8507 110.283 45.016C110.693 45.176 111.048 45.4107 111.347 45.72C111.645 46.024 111.877 46.4027 112.043 46.856C112.213 47.304 112.299 47.816 112.299 48.392C112.299 48.616 112.275 48.7653 112.227 48.84C112.179 48.9147 112.088 48.952 111.955 48.952H106.562C106.573 49.464 106.643 49.9093 106.771 50.288C106.899 50.6667 107.075 50.984 107.299 51.24C107.523 51.4907 107.789 51.68 108.099 51.808C108.408 51.9307 108.755 51.992 109.139 51.992C109.496 51.992 109.803 51.952 110.059 51.872C110.32 51.7867 110.544 51.696 110.731 51.6C110.917 51.504 111.072 51.416 111.195 51.336C111.323 51.2507 111.432 51.208 111.523 51.208C111.64 51.208 111.731 51.2533 111.795 51.344L112.195 51.864C112.019 52.0773 111.808 52.264 111.563 52.424C111.317 52.5787 111.053 52.7067 110.771 52.808C110.493 52.9093 110.205 52.984 109.907 53.032C109.608 53.0853 109.312 53.112 109.019 53.112C108.459 53.112 107.941 53.0187 107.467 52.832C106.997 52.64 106.589 52.3627 106.243 52C105.901 51.632 105.635 51.1787 105.443 50.64C105.251 50.1013 105.155 49.4827 105.155 48.784C105.155 48.2187 105.24 47.6907 105.411 47.2C105.587 46.7093 105.837 46.2853 106.163 45.928C106.488 45.5653 106.885 45.2827 107.355 45.08C107.824 44.872 108.352 44.768 108.939 44.768ZM108.97 45.816C108.283 45.816 107.741 46.016 107.347 46.416C106.952 46.8107 106.707 47.36 106.611 48.064H111.019C111.019 47.7333 110.973 47.432 110.883 47.16C110.792 46.8827 110.659 46.6453 110.483 46.448C110.307 46.2453 110.091 46.0907 109.835 45.984C109.584 45.872 109.296 45.816 108.97 45.816ZM115.533 48.848L112.805 44.896H114.173C114.29 44.896 114.375 44.9147 114.429 44.952C114.482 44.9893 114.53 45.0427 114.573 45.112L116.557 48.152C116.605 48.0027 116.674 47.8533 116.765 47.704L118.509 45.144C118.562 45.0693 118.615 45.0107 118.669 44.968C118.722 44.92 118.789 44.896 118.869 44.896H120.181L117.453 48.768L120.293 53H118.925C118.807 53 118.714 52.9707 118.645 52.912C118.581 52.848 118.527 52.7787 118.485 52.704L116.445 49.528C116.407 49.6827 116.351 49.8213 116.277 49.944L114.389 52.704C114.335 52.7787 114.277 52.848 114.213 52.912C114.154 52.9707 114.071 53 113.965 53H112.693L115.533 48.848ZM124.155 53.128C123.515 53.128 123.022 52.9493 122.675 52.592C122.334 52.2347 122.163 51.72 122.163 51.048V46.088H121.187C121.102 46.088 121.03 46.064 120.971 46.016C120.913 45.9627 120.883 45.8827 120.883 45.776V45.208L122.211 45.04L122.539 42.536C122.55 42.456 122.585 42.392 122.643 42.344C122.702 42.2907 122.777 42.264 122.867 42.264H123.587V45.056H125.907V46.088H123.587V50.952C123.587 51.2933 123.67 51.5467 123.835 51.712C124.001 51.8773 124.214 51.96 124.475 51.96C124.625 51.96 124.753 51.9413 124.859 51.904C124.971 51.8613 125.067 51.816 125.147 51.768C125.227 51.72 125.294 51.6773 125.347 51.64C125.406 51.5973 125.457 51.576 125.499 51.576C125.574 51.576 125.641 51.6213 125.699 51.712L126.115 52.392C125.87 52.6213 125.574 52.8027 125.227 52.936C124.881 53.064 124.523 53.128 124.155 53.128Z" fill="#AAAAAA"/>
</svg>
