<svg width="456" height="198" viewBox="0 0 456 198" fill="none" xmlns="http://www.w3.org/2000/svg">
<path d="M10.535 189.988C10.535 190.739 10.416 191.43 10.178 192.06C9.94 192.685 9.604 193.224 9.17 193.677C8.736 194.13 8.21333 194.482 7.602 194.734C6.99533 194.981 6.32333 195.105 5.586 195.105C4.84867 195.105 4.17667 194.981 3.57 194.734C2.96333 194.482 2.443 194.13 2.009 193.677C1.575 193.224 1.239 192.685 1.001 192.06C0.763 191.43 0.644 190.739 0.644 189.988C0.644 189.237 0.763 188.548 1.001 187.923C1.239 187.293 1.575 186.752 2.009 186.299C2.443 185.842 2.96333 185.487 3.57 185.235C4.17667 184.983 4.84867 184.857 5.586 184.857C6.32333 184.857 6.99533 184.983 7.602 185.235C8.21333 185.487 8.736 185.842 9.17 186.299C9.604 186.752 9.94 187.293 10.178 187.923C10.416 188.548 10.535 189.237 10.535 189.988ZM9.142 189.988C9.142 189.372 9.058 188.819 8.89 188.329C8.722 187.839 8.484 187.426 8.176 187.09C7.868 186.749 7.49467 186.488 7.056 186.306C6.61733 186.124 6.12733 186.033 5.586 186.033C5.04933 186.033 4.56167 186.124 4.123 186.306C3.68433 186.488 3.30867 186.749 2.996 187.09C2.688 187.426 2.45 187.839 2.282 188.329C2.114 188.819 2.03 189.372 2.03 189.988C2.03 190.604 2.114 191.157 2.282 191.647C2.45 192.132 2.688 192.545 2.996 192.886C3.30867 193.222 3.68433 193.481 4.123 193.663C4.56167 193.84 5.04933 193.929 5.586 193.929C6.12733 193.929 6.61733 193.84 7.056 193.663C7.49467 193.481 7.868 193.222 8.176 192.886C8.484 192.545 8.722 192.132 8.89 191.647C9.058 191.157 9.142 190.604 9.142 189.988ZM12.1919 197.401V187.909H12.9339C13.1113 187.909 13.2233 187.995 13.2699 188.168L13.3749 189.008C13.6783 188.639 14.0236 188.343 14.4109 188.119C14.8029 187.895 15.2533 187.783 15.7619 187.783C16.1679 187.783 16.5366 187.862 16.8679 188.021C17.1993 188.175 17.4816 188.406 17.7149 188.714C17.9483 189.017 18.1279 189.395 18.2539 189.848C18.3799 190.301 18.4429 190.821 18.4429 191.409C18.4429 191.932 18.3729 192.419 18.2329 192.872C18.0929 193.32 17.8923 193.71 17.6309 194.041C17.3696 194.368 17.0476 194.627 16.6649 194.818C16.2869 195.005 15.8599 195.098 15.3839 195.098C14.9453 195.098 14.5696 195.026 14.2569 194.881C13.9489 194.736 13.6759 194.531 13.4379 194.265V197.401H12.1919ZM15.3489 188.791C14.9429 188.791 14.5859 188.884 14.2779 189.071C13.9746 189.258 13.6946 189.521 13.4379 189.862V193.292C13.6666 193.6 13.9163 193.817 14.1869 193.943C14.4623 194.069 14.7679 194.132 15.1039 194.132C15.7619 194.132 16.2683 193.896 16.6229 193.425C16.9776 192.954 17.1549 192.282 17.1549 191.409C17.1549 190.947 17.1129 190.55 17.0289 190.219C16.9496 189.888 16.8329 189.617 16.6789 189.407C16.5249 189.192 16.3359 189.036 16.1119 188.938C15.8879 188.84 15.6336 188.791 15.3489 188.791ZM22.0655 195.112C21.5055 195.112 21.0739 194.956 20.7705 194.643C20.4719 194.33 20.3225 193.88 20.3225 193.292V188.952H19.4685C19.3939 188.952 19.3309 188.931 19.2795 188.889C19.2282 188.842 19.2025 188.772 19.2025 188.679V188.182L20.3645 188.035L20.6515 185.844C20.6609 185.774 20.6912 185.718 20.7425 185.676C20.7939 185.629 20.8592 185.606 20.9385 185.606H21.5685V188.049H23.5985V188.952H21.5685V193.208C21.5685 193.507 21.6409 193.728 21.7855 193.873C21.9302 194.018 22.1169 194.09 22.3455 194.09C22.4762 194.09 22.5882 194.074 22.6815 194.041C22.7795 194.004 22.8635 193.964 22.9335 193.922C23.0035 193.88 23.0619 193.843 23.1085 193.81C23.1599 193.773 23.2042 193.754 23.2415 193.754C23.3069 193.754 23.3652 193.794 23.4165 193.873L23.7805 194.468C23.5659 194.669 23.3069 194.827 23.0035 194.944C22.7002 195.056 22.3875 195.112 22.0655 195.112ZM26.5252 187.909V195H25.2792V187.909H26.5252ZM26.8052 185.683C26.8052 185.804 26.7795 185.919 26.7282 186.026C26.6815 186.129 26.6162 186.222 26.5322 186.306C26.4529 186.385 26.3595 186.448 26.2522 186.495C26.1449 186.542 26.0305 186.565 25.9092 186.565C25.7879 186.565 25.6735 186.542 25.5662 186.495C25.4635 186.448 25.3702 186.385 25.2862 186.306C25.2069 186.222 25.1439 186.129 25.0972 186.026C25.0505 185.919 25.0272 185.804 25.0272 185.683C25.0272 185.562 25.0505 185.447 25.0972 185.34C25.1439 185.228 25.2069 185.132 25.2862 185.053C25.3702 184.969 25.4635 184.904 25.5662 184.857C25.6735 184.81 25.7879 184.787 25.9092 184.787C26.0305 184.787 26.1449 184.81 26.2522 184.857C26.3595 184.904 26.4529 184.969 26.5322 185.053C26.6162 185.132 26.6815 185.228 26.7282 185.34C26.7795 185.447 26.8052 185.562 26.8052 185.683ZM31.5912 187.797C32.1092 187.797 32.5759 187.883 32.9912 188.056C33.4112 188.229 33.7659 188.474 34.0552 188.791C34.3492 189.108 34.5732 189.493 34.7272 189.946C34.8859 190.394 34.9652 190.896 34.9652 191.451C34.9652 192.011 34.8859 192.515 34.7272 192.963C34.5732 193.411 34.3492 193.794 34.0552 194.111C33.7659 194.428 33.4112 194.673 32.9912 194.846C32.5759 195.014 32.1092 195.098 31.5912 195.098C31.0732 195.098 30.6042 195.014 30.1842 194.846C29.7689 194.673 29.4142 194.428 29.1202 194.111C28.8262 193.794 28.5999 193.411 28.4412 192.963C28.2826 192.515 28.2032 192.011 28.2032 191.451C28.2032 190.896 28.2826 190.394 28.4412 189.946C28.5999 189.493 28.8262 189.108 29.1202 188.791C29.4142 188.474 29.7689 188.229 30.1842 188.056C30.6042 187.883 31.0732 187.797 31.5912 187.797ZM31.5912 194.125C32.2912 194.125 32.8139 193.892 33.1592 193.425C33.5046 192.954 33.6772 192.298 33.6772 191.458C33.6772 190.613 33.5046 189.955 33.1592 189.484C32.8139 189.013 32.2912 188.777 31.5912 188.777C31.2366 188.777 30.9286 188.838 30.6672 188.959C30.4059 189.08 30.1866 189.255 30.0092 189.484C29.8366 189.713 29.7059 189.995 29.6172 190.331C29.5332 190.662 29.4912 191.038 29.4912 191.458C29.4912 191.878 29.5332 192.254 29.6172 192.585C29.7059 192.916 29.8366 193.196 30.0092 193.425C30.1866 193.649 30.4059 193.822 30.6672 193.943C30.9286 194.064 31.2366 194.125 31.5912 194.125ZM36.5005 195V187.909H37.2425C37.4198 187.909 37.5318 187.995 37.5785 188.168L37.6765 188.938C37.9845 188.597 38.3275 188.322 38.7055 188.112C39.0882 187.902 39.5292 187.797 40.0285 187.797C40.4158 187.797 40.7565 187.862 41.0505 187.993C41.3492 188.119 41.5965 188.301 41.7925 188.539C41.9932 188.772 42.1448 189.055 42.2475 189.386C42.3502 189.717 42.4015 190.084 42.4015 190.485V195H41.1555V190.485C41.1555 189.948 41.0318 189.533 40.7845 189.239C40.5418 188.94 40.1685 188.791 39.6645 188.791C39.2958 188.791 38.9505 188.88 38.6285 189.057C38.3112 189.234 38.0172 189.475 37.7465 189.778V195H36.5005ZM49.4878 195H48.9348C48.8135 195 48.7155 194.981 48.6408 194.944C48.5661 194.907 48.5171 194.827 48.4938 194.706L48.3538 194.048C48.1671 194.216 47.9851 194.368 47.8078 194.503C47.6305 194.634 47.4438 194.746 47.2478 194.839C47.0518 194.928 46.8418 194.995 46.6178 195.042C46.3985 195.089 46.1535 195.112 45.8828 195.112C45.6075 195.112 45.3485 195.075 45.1058 195C44.8678 194.921 44.6601 194.804 44.4828 194.65C44.3055 194.496 44.1631 194.302 44.0558 194.069C43.9531 193.831 43.9018 193.551 43.9018 193.229C43.9018 192.949 43.9788 192.681 44.1328 192.424C44.2868 192.163 44.5341 191.932 44.8748 191.731C45.2201 191.53 45.6705 191.367 46.2258 191.241C46.7811 191.11 47.4601 191.036 48.2628 191.017V190.464C48.2628 189.913 48.1438 189.498 47.9058 189.218C47.6725 188.933 47.3248 188.791 46.8628 188.791C46.5595 188.791 46.3028 188.831 46.0928 188.91C45.8875 188.985 45.7078 189.071 45.5538 189.169C45.4045 189.262 45.2738 189.349 45.1618 189.428C45.0545 189.503 44.9471 189.54 44.8398 189.54C44.7558 189.54 44.6811 189.519 44.6158 189.477C44.5551 189.43 44.5061 189.374 44.4688 189.309L44.2448 188.91C44.6368 188.532 45.0591 188.25 45.5118 188.063C45.9645 187.876 46.4661 187.783 47.0168 187.783C47.4135 187.783 47.7658 187.848 48.0738 187.979C48.3818 188.11 48.6408 188.292 48.8508 188.525C49.0608 188.758 49.2195 189.041 49.3268 189.372C49.4341 189.703 49.4878 190.067 49.4878 190.464V195ZM46.2538 194.237C46.4731 194.237 46.6738 194.216 46.8558 194.174C47.0378 194.127 47.2081 194.064 47.3668 193.985C47.5301 193.901 47.6841 193.801 47.8288 193.684C47.9781 193.567 48.1228 193.434 48.2628 193.285V191.808C47.6888 191.827 47.2011 191.873 46.7998 191.948C46.3985 192.018 46.0718 192.111 45.8198 192.228C45.5678 192.345 45.3835 192.482 45.2668 192.641C45.1548 192.8 45.0988 192.977 45.0988 193.173C45.0988 193.36 45.1291 193.521 45.1898 193.656C45.2505 193.791 45.3321 193.903 45.4348 193.992C45.5375 194.076 45.6588 194.139 45.7988 194.181C45.9388 194.218 46.0905 194.237 46.2538 194.237ZM52.7615 184.689V195H51.5155V184.689H52.7615ZM57.6646 195V184.689H58.9106V188.861C59.2139 188.539 59.5499 188.282 59.9186 188.091C60.2872 187.895 60.7119 187.797 61.1926 187.797C61.5799 187.797 61.9206 187.862 62.2146 187.993C62.5132 188.119 62.7606 188.301 62.9566 188.539C63.1572 188.772 63.3089 189.055 63.4116 189.386C63.5142 189.717 63.5656 190.084 63.5656 190.485V195H62.3196V190.485C62.3196 189.948 62.1959 189.533 61.9486 189.239C61.7059 188.94 61.3326 188.791 60.8286 188.791C60.4599 188.791 60.1146 188.88 59.7926 189.057C59.4752 189.234 59.1812 189.475 58.9106 189.778V195H57.6646ZM68.2509 187.797C68.6755 187.797 69.0675 187.869 69.4269 188.014C69.7862 188.154 70.0965 188.359 70.3579 188.63C70.6192 188.896 70.8222 189.227 70.9669 189.624C71.1162 190.016 71.1909 190.464 71.1909 190.968C71.1909 191.164 71.1699 191.295 71.1279 191.36C71.0859 191.425 71.0065 191.458 70.8899 191.458H66.1719C66.1812 191.906 66.2419 192.296 66.3539 192.627C66.4659 192.958 66.6199 193.236 66.8159 193.46C67.0119 193.679 67.2452 193.845 67.5159 193.957C67.7865 194.064 68.0899 194.118 68.4259 194.118C68.7385 194.118 69.0069 194.083 69.2309 194.013C69.4595 193.938 69.6555 193.859 69.8189 193.775C69.9822 193.691 70.1175 193.614 70.2249 193.544C70.3369 193.469 70.4325 193.432 70.5119 193.432C70.6145 193.432 70.6939 193.472 70.7499 193.551L71.0999 194.006C70.9459 194.193 70.7615 194.356 70.5469 194.496C70.3322 194.631 70.1012 194.743 69.8539 194.832C69.6112 194.921 69.3592 194.986 69.0979 195.028C68.8365 195.075 68.5775 195.098 68.3209 195.098C67.8309 195.098 67.3782 195.016 66.9629 194.853C66.5522 194.685 66.1952 194.442 65.8919 194.125C65.5932 193.803 65.3599 193.406 65.1919 192.935C65.0239 192.464 64.9399 191.922 64.9399 191.311C64.9399 190.816 65.0145 190.354 65.1639 189.925C65.3179 189.496 65.5372 189.125 65.8219 188.812C66.1065 188.495 66.4542 188.247 66.8649 188.07C67.2755 187.888 67.7375 187.797 68.2509 187.797ZM68.2789 188.714C67.6769 188.714 67.2032 188.889 66.8579 189.239C66.5125 189.584 66.2979 190.065 66.2139 190.681H70.0709C70.0709 190.392 70.0312 190.128 69.9519 189.89C69.8725 189.647 69.7559 189.44 69.6019 189.267C69.4479 189.09 69.2589 188.954 69.0349 188.861C68.8155 188.763 68.5635 188.714 68.2789 188.714ZM74.1717 184.689V195H72.9257V184.689H74.1717ZM76.3677 197.401V187.909H77.1097C77.287 187.909 77.399 187.995 77.4457 188.168L77.5507 189.008C77.854 188.639 78.1994 188.343 78.5867 188.119C78.9787 187.895 79.429 187.783 79.9377 187.783C80.3437 187.783 80.7124 187.862 81.0437 188.021C81.375 188.175 81.6574 188.406 81.8907 188.714C82.124 189.017 82.3037 189.395 82.4297 189.848C82.5557 190.301 82.6187 190.821 82.6187 191.409C82.6187 191.932 82.5487 192.419 82.4087 192.872C82.2687 193.32 82.068 193.71 81.8067 194.041C81.5454 194.368 81.2234 194.627 80.8407 194.818C80.4627 195.005 80.0357 195.098 79.5597 195.098C79.121 195.098 78.7454 195.026 78.4327 194.881C78.1247 194.736 77.8517 194.531 77.6137 194.265V197.401H76.3677ZM79.5247 188.791C79.1187 188.791 78.7617 188.884 78.4537 189.071C78.1504 189.258 77.8704 189.521 77.6137 189.862V193.292C77.8424 193.6 78.092 193.817 78.3627 193.943C78.638 194.069 78.9437 194.132 79.2797 194.132C79.9377 194.132 80.444 193.896 80.7987 193.425C81.1534 192.954 81.3307 192.282 81.3307 191.409C81.3307 190.947 81.2887 190.55 81.2047 190.219C81.1254 189.888 81.0087 189.617 80.8547 189.407C80.7007 189.192 80.5117 189.036 80.2877 188.938C80.0637 188.84 79.8094 188.791 79.5247 188.791ZM86.8993 187.797C87.324 187.797 87.716 187.869 88.0753 188.014C88.4346 188.154 88.745 188.359 89.0063 188.63C89.2676 188.896 89.4706 189.227 89.6153 189.624C89.7646 190.016 89.8393 190.464 89.8393 190.968C89.8393 191.164 89.8183 191.295 89.7763 191.36C89.7343 191.425 89.655 191.458 89.5383 191.458H84.8203C84.8296 191.906 84.8903 192.296 85.0023 192.627C85.1143 192.958 85.2683 193.236 85.4643 193.46C85.6603 193.679 85.8936 193.845 86.1643 193.957C86.435 194.064 86.7383 194.118 87.0743 194.118C87.387 194.118 87.6553 194.083 87.8793 194.013C88.108 193.938 88.304 193.859 88.4673 193.775C88.6306 193.691 88.766 193.614 88.8733 193.544C88.9853 193.469 89.081 193.432 89.1603 193.432C89.263 193.432 89.3423 193.472 89.3983 193.551L89.7483 194.006C89.5943 194.193 89.41 194.356 89.1953 194.496C88.9806 194.631 88.7496 194.743 88.5023 194.832C88.2596 194.921 88.0076 194.986 87.7463 195.028C87.485 195.075 87.226 195.098 86.9693 195.098C86.4793 195.098 86.0266 195.016 85.6113 194.853C85.2006 194.685 84.8436 194.442 84.5403 194.125C84.2416 193.803 84.0083 193.406 83.8403 192.935C83.6723 192.464 83.5883 191.922 83.5883 191.311C83.5883 190.816 83.663 190.354 83.8123 189.925C83.9663 189.496 84.1856 189.125 84.4703 188.812C84.755 188.495 85.1026 188.247 85.5133 188.07C85.924 187.888 86.386 187.797 86.8993 187.797ZM86.9273 188.714C86.3253 188.714 85.8516 188.889 85.5063 189.239C85.161 189.584 84.9463 190.065 84.8623 190.681H88.7193C88.7193 190.392 88.6796 190.128 88.6003 189.89C88.521 189.647 88.4043 189.44 88.2503 189.267C88.0963 189.09 87.9073 188.954 87.6833 188.861C87.464 188.763 87.212 188.714 86.9273 188.714ZM91.4341 195V187.909H92.1481C92.2834 187.909 92.3768 187.935 92.4281 187.986C92.4794 188.037 92.5144 188.126 92.5331 188.252L92.6171 189.358C92.8598 188.863 93.1584 188.478 93.5131 188.203C93.8724 187.923 94.2924 187.783 94.7731 187.783C94.9691 187.783 95.1464 187.806 95.3051 187.853C95.4638 187.895 95.6108 187.956 95.7461 188.035L95.5851 188.966C95.5524 189.083 95.4801 189.141 95.3681 189.141C95.3028 189.141 95.2024 189.12 95.0671 189.078C94.9318 189.031 94.7428 189.008 94.5001 189.008C94.0661 189.008 93.7021 189.134 93.4081 189.386C93.1188 189.638 92.8761 190.004 92.6801 190.485V195H91.4341ZM101.937 195.112C101.377 195.112 100.945 194.956 100.642 194.643C100.343 194.33 100.194 193.88 100.194 193.292V188.952H99.3396C99.265 188.952 99.202 188.931 99.1506 188.889C99.0993 188.842 99.0736 188.772 99.0736 188.679V188.182L100.236 188.035L100.523 185.844C100.532 185.774 100.562 185.718 100.614 185.676C100.665 185.629 100.73 185.606 100.81 185.606H101.44V188.049H103.47V188.952H101.44V193.208C101.44 193.507 101.512 193.728 101.657 193.873C101.801 194.018 101.988 194.09 102.217 194.09C102.347 194.09 102.459 194.074 102.553 194.041C102.651 194.004 102.735 193.964 102.805 193.922C102.875 193.88 102.933 193.843 102.98 193.81C103.031 193.773 103.075 193.754 103.113 193.754C103.178 193.754 103.236 193.794 103.288 193.873L103.652 194.468C103.437 194.669 103.178 194.827 102.875 194.944C102.571 195.056 102.259 195.112 101.937 195.112ZM107.817 187.797C108.242 187.797 108.634 187.869 108.993 188.014C109.353 188.154 109.663 188.359 109.924 188.63C110.186 188.896 110.389 189.227 110.533 189.624C110.683 190.016 110.757 190.464 110.757 190.968C110.757 191.164 110.736 191.295 110.694 191.36C110.652 191.425 110.573 191.458 110.456 191.458H105.738C105.748 191.906 105.808 192.296 105.92 192.627C106.032 192.958 106.186 193.236 106.382 193.46C106.578 193.679 106.812 193.845 107.082 193.957C107.353 194.064 107.656 194.118 107.992 194.118C108.305 194.118 108.573 194.083 108.797 194.013C109.026 193.938 109.222 193.859 109.385 193.775C109.549 193.691 109.684 193.614 109.791 193.544C109.903 193.469 109.999 193.432 110.078 193.432C110.181 193.432 110.26 193.472 110.316 193.551L110.666 194.006C110.512 194.193 110.328 194.356 110.113 194.496C109.899 194.631 109.668 194.743 109.42 194.832C109.178 194.921 108.926 194.986 108.664 195.028C108.403 195.075 108.144 195.098 107.887 195.098C107.397 195.098 106.945 195.016 106.529 194.853C106.119 194.685 105.762 194.442 105.458 194.125C105.16 193.803 104.926 193.406 104.758 192.935C104.59 192.464 104.506 191.922 104.506 191.311C104.506 190.816 104.581 190.354 104.73 189.925C104.884 189.496 105.104 189.125 105.388 188.812C105.673 188.495 106.021 188.247 106.431 188.07C106.842 187.888 107.304 187.797 107.817 187.797ZM107.845 188.714C107.243 188.714 106.77 188.889 106.424 189.239C106.079 189.584 105.864 190.065 105.78 190.681H109.637C109.637 190.392 109.598 190.128 109.518 189.89C109.439 189.647 109.322 189.44 109.168 189.267C109.014 189.09 108.825 188.954 108.601 188.861C108.382 188.763 108.13 188.714 107.845 188.714ZM113.587 191.367L111.2 187.909H112.397C112.5 187.909 112.575 187.925 112.621 187.958C112.668 187.991 112.71 188.037 112.747 188.098L114.483 190.758C114.525 190.627 114.586 190.497 114.665 190.366L116.191 188.126C116.238 188.061 116.285 188.009 116.331 187.972C116.378 187.93 116.436 187.909 116.506 187.909H117.654L115.267 191.297L117.752 195H116.555C116.453 195 116.371 194.974 116.31 194.923C116.254 194.867 116.208 194.806 116.17 194.741L114.385 191.962C114.353 192.097 114.304 192.219 114.238 192.326L112.586 194.741C112.54 194.806 112.488 194.867 112.432 194.923C112.381 194.974 112.309 195 112.215 195H111.102L113.587 191.367ZM121.132 195.112C120.572 195.112 120.14 194.956 119.837 194.643C119.538 194.33 119.389 193.88 119.389 193.292V188.952H118.535C118.46 188.952 118.397 188.931 118.346 188.889C118.295 188.842 118.269 188.772 118.269 188.679V188.182L119.431 188.035L119.718 185.844C119.727 185.774 119.758 185.718 119.809 185.676C119.86 185.629 119.926 185.606 120.005 185.606H120.635V188.049H122.665V188.952H120.635V193.208C120.635 193.507 120.707 193.728 120.852 193.873C120.997 194.018 121.183 194.09 121.412 194.09C121.543 194.09 121.655 194.074 121.748 194.041C121.846 194.004 121.93 193.964 122 193.922C122.07 193.88 122.128 193.843 122.175 193.81C122.226 193.773 122.271 193.754 122.308 193.754C122.373 193.754 122.432 193.794 122.483 193.873L122.847 194.468C122.632 194.669 122.373 194.827 122.07 194.944C121.767 195.056 121.454 195.112 121.132 195.112Z" fill="#6A6A6A"/>
<path d="M9.2 4.536V5.84H5.496V16H3.944V5.84H0.224V4.536H9.2ZM12.126 7.768C12.6113 7.768 13.0593 7.85067 13.47 8.016C13.8807 8.176 14.2353 8.41067 14.534 8.72C14.8327 9.024 15.0647 9.40267 15.23 9.856C15.4007 10.304 15.486 10.816 15.486 11.392C15.486 11.616 15.462 11.7653 15.414 11.84C15.366 11.9147 15.2753 11.952 15.142 11.952H9.75C9.76067 12.464 9.83 12.9093 9.958 13.288C10.086 13.6667 10.262 13.984 10.486 14.24C10.71 14.4907 10.9767 14.68 11.286 14.808C11.5953 14.9307 11.942 14.992 12.326 14.992C12.6833 14.992 12.99 14.952 13.246 14.872C13.5073 14.7867 13.7313 14.696 13.918 14.6C14.1047 14.504 14.2593 14.416 14.382 14.336C14.51 14.2507 14.6193 14.208 14.71 14.208C14.8273 14.208 14.918 14.2533 14.982 14.344L15.382 14.864C15.206 15.0773 14.9953 15.264 14.75 15.424C14.5047 15.5787 14.2407 15.7067 13.958 15.808C13.6807 15.9093 13.3927 15.984 13.094 16.032C12.7953 16.0853 12.4993 16.112 12.206 16.112C11.646 16.112 11.1287 16.0187 10.654 15.832C10.1847 15.64 9.77667 15.3627 9.43 15C9.08867 14.632 8.822 14.1787 8.63 13.64C8.438 13.1013 8.342 12.4827 8.342 11.784C8.342 11.2187 8.42733 10.6907 8.598 10.2C8.774 9.70933 9.02467 9.28533 9.35 8.928C9.67533 8.56533 10.0727 8.28267 10.542 8.08C11.0113 7.872 11.5393 7.768 12.126 7.768ZM12.158 8.816C11.47 8.816 10.9287 9.016 10.534 9.416C10.1393 9.81067 9.894 10.36 9.798 11.064H14.206C14.206 10.7333 14.1607 10.432 14.07 10.16C13.9793 9.88267 13.846 9.64533 13.67 9.448C13.494 9.24533 13.278 9.09067 13.022 8.984C12.7713 8.872 12.4833 8.816 12.158 8.816ZM18.7203 11.848L15.9923 7.896H17.3603C17.4776 7.896 17.5629 7.91467 17.6163 7.952C17.6696 7.98933 17.7176 8.04267 17.7603 8.112L19.7443 11.152C19.7923 11.0027 19.8616 10.8533 19.9523 10.704L21.6963 8.144C21.7496 8.06933 21.8029 8.01067 21.8563 7.968C21.9096 7.92 21.9763 7.896 22.0563 7.896H23.3683L20.6403 11.768L23.4803 16H22.1123C21.9949 16 21.9016 15.9707 21.8323 15.912C21.7683 15.848 21.7149 15.7787 21.6723 15.704L19.6323 12.528C19.5949 12.6827 19.5389 12.8213 19.4643 12.944L17.5763 15.704C17.5229 15.7787 17.4643 15.848 17.4003 15.912C17.3416 15.9707 17.2589 16 17.1523 16H15.8803L18.7203 11.848ZM27.3428 16.128C26.7028 16.128 26.2094 15.9493 25.8628 15.592C25.5214 15.2347 25.3508 14.72 25.3508 14.048V9.088H24.3748C24.2894 9.088 24.2174 9.064 24.1588 9.016C24.1001 8.96267 24.0708 8.88267 24.0708 8.776V8.208L25.3988 8.04L25.7268 5.536C25.7374 5.456 25.7721 5.392 25.8307 5.344C25.8894 5.29067 25.9641 5.264 26.0548 5.264H26.7748V8.056H29.0948V9.088H26.7748V13.952C26.7748 14.2933 26.8574 14.5467 27.0228 14.712C27.1881 14.8773 27.4014 14.96 27.6628 14.96C27.8121 14.96 27.9401 14.9413 28.0468 14.904C28.1588 14.8613 28.2548 14.816 28.3348 14.768C28.4148 14.72 28.4814 14.6773 28.5348 14.64C28.5934 14.5973 28.6441 14.576 28.6868 14.576C28.7614 14.576 28.8281 14.6213 28.8868 14.712L29.3028 15.392C29.0574 15.6213 28.7614 15.8027 28.4148 15.936C28.0681 16.064 27.7108 16.128 27.3428 16.128ZM39.9013 16H39.2693C39.1306 16 39.0186 15.9787 38.9333 15.936C38.8479 15.8933 38.7919 15.8027 38.7653 15.664L38.6053 14.912C38.3919 15.104 38.1839 15.2773 37.9813 15.432C37.7786 15.5813 37.5653 15.7093 37.3413 15.816C37.1173 15.9173 36.8773 15.9947 36.6213 16.048C36.3706 16.1013 36.0906 16.128 35.7813 16.128C35.4666 16.128 35.1706 16.0853 34.8932 16C34.6213 15.9093 34.3839 15.776 34.1813 15.6C33.9786 15.424 33.8159 15.2027 33.6933 14.936C33.5759 14.664 33.5173 14.344 33.5173 13.976C33.5173 13.656 33.6053 13.3493 33.7812 13.056C33.9573 12.7573 34.2399 12.4933 34.6293 12.264C35.0239 12.0347 35.5386 11.848 36.1733 11.704C36.8079 11.5547 37.5839 11.4693 38.5013 11.448V10.816C38.5013 10.1867 38.3653 9.712 38.0933 9.392C37.8266 9.06667 37.4293 8.904 36.9013 8.904C36.5546 8.904 36.2613 8.94933 36.0213 9.04C35.7866 9.12533 35.5813 9.224 35.4053 9.336C35.2346 9.44267 35.0853 9.54133 34.9573 9.632C34.8346 9.71733 34.7119 9.76 34.5893 9.76C34.4933 9.76 34.4079 9.736 34.3333 9.688C34.2639 9.63467 34.2079 9.57067 34.1653 9.496L33.9093 9.04C34.3573 8.608 34.8399 8.28533 35.3573 8.072C35.8746 7.85867 36.4479 7.752 37.0773 7.752C37.5306 7.752 37.9333 7.82667 38.2853 7.976C38.6373 8.12533 38.9333 8.33333 39.1733 8.6C39.4133 8.86667 39.5946 9.18933 39.7173 9.568C39.8399 9.94667 39.9013 10.3627 39.9013 10.816V16ZM36.2053 15.128C36.4559 15.128 36.6853 15.104 36.8932 15.056C37.1013 15.0027 37.2959 14.9307 37.4773 14.84C37.6639 14.744 37.8399 14.6293 38.0053 14.496C38.1759 14.3627 38.3413 14.2107 38.5013 14.04V12.352C37.8453 12.3733 37.2879 12.4267 36.8293 12.512C36.3706 12.592 35.9973 12.6987 35.7093 12.832C35.4213 12.9653 35.2106 13.1227 35.0773 13.304C34.9493 13.4853 34.8853 13.688 34.8853 13.912C34.8853 14.1253 34.9199 14.3093 34.9893 14.464C35.0586 14.6187 35.1519 14.7467 35.2693 14.848C35.3866 14.944 35.5253 15.016 35.6853 15.064C35.8453 15.1067 36.0186 15.128 36.2053 15.128ZM42.0586 16V7.896H42.8746C43.0293 7.896 43.136 7.92533 43.1946 7.984C43.2533 8.04267 43.2933 8.144 43.3146 8.288L43.4106 9.552C43.688 8.98667 44.0293 8.54667 44.4346 8.232C44.8453 7.912 45.3253 7.752 45.8746 7.752C46.0986 7.752 46.3013 7.77867 46.4826 7.832C46.664 7.88 46.832 7.94933 46.9866 8.04L46.8026 9.104C46.7653 9.23733 46.6826 9.304 46.5546 9.304C46.48 9.304 46.3653 9.28 46.2106 9.232C46.056 9.17867 45.84 9.152 45.5626 9.152C45.0666 9.152 44.6506 9.296 44.3146 9.584C43.984 9.872 43.7066 10.2907 43.4826 10.84V16H42.0586ZM51.7198 7.768C52.2051 7.768 52.6531 7.85067 53.0638 8.016C53.4744 8.176 53.8291 8.41067 54.1278 8.72C54.4264 9.024 54.6584 9.40267 54.8238 9.856C54.9944 10.304 55.0798 10.816 55.0798 11.392C55.0798 11.616 55.0558 11.7653 55.0078 11.84C54.9598 11.9147 54.8691 11.952 54.7358 11.952H49.3438C49.3544 12.464 49.4238 12.9093 49.5518 13.288C49.6798 13.6667 49.8558 13.984 50.0798 14.24C50.3038 14.4907 50.5704 14.68 50.8798 14.808C51.1891 14.9307 51.5358 14.992 51.9198 14.992C52.2771 14.992 52.5838 14.952 52.8398 14.872C53.1011 14.7867 53.3251 14.696 53.5118 14.6C53.6984 14.504 53.8531 14.416 53.9758 14.336C54.1038 14.2507 54.2131 14.208 54.3038 14.208C54.4211 14.208 54.5118 14.2533 54.5758 14.344L54.9758 14.864C54.7998 15.0773 54.5891 15.264 54.3438 15.424C54.0984 15.5787 53.8344 15.7067 53.5518 15.808C53.2744 15.9093 52.9864 15.984 52.6878 16.032C52.3891 16.0853 52.0931 16.112 51.7998 16.112C51.2398 16.112 50.7224 16.0187 50.2478 15.832C49.7784 15.64 49.3704 15.3627 49.0238 15C48.6824 14.632 48.4158 14.1787 48.2238 13.64C48.0318 13.1013 47.9358 12.4827 47.9358 11.784C47.9358 11.2187 48.0211 10.6907 48.1918 10.2C48.3678 9.70933 48.6184 9.28533 48.9438 8.928C49.2691 8.56533 49.6664 8.28267 50.1358 8.08C50.6051 7.872 51.1331 7.768 51.7198 7.768ZM51.7517 8.816C51.0638 8.816 50.5224 9.016 50.1278 9.416C49.7331 9.81067 49.4878 10.36 49.3918 11.064H53.7998C53.7998 10.7333 53.7544 10.432 53.6638 10.16C53.5731 9.88267 53.4398 9.64533 53.2638 9.448C53.0878 9.24533 52.8718 9.09067 52.6158 8.984C52.3651 8.872 52.0771 8.816 51.7517 8.816ZM62.8544 16H62.2224C62.0837 16 61.9717 15.9787 61.8864 15.936C61.801 15.8933 61.745 15.8027 61.7184 15.664L61.5584 14.912C61.345 15.104 61.137 15.2773 60.9344 15.432C60.7317 15.5813 60.5184 15.7093 60.2944 15.816C60.0704 15.9173 59.8304 15.9947 59.5744 16.048C59.3237 16.1013 59.0437 16.128 58.7344 16.128C58.4197 16.128 58.1237 16.0853 57.8464 16C57.5744 15.9093 57.337 15.776 57.1344 15.6C56.9317 15.424 56.769 15.2027 56.6464 14.936C56.529 14.664 56.4704 14.344 56.4704 13.976C56.4704 13.656 56.5584 13.3493 56.7344 13.056C56.9104 12.7573 57.193 12.4933 57.5824 12.264C57.977 12.0347 58.4917 11.848 59.1264 11.704C59.761 11.5547 60.537 11.4693 61.4544 11.448V10.816C61.4544 10.1867 61.3184 9.712 61.0464 9.392C60.7797 9.06667 60.3824 8.904 59.8544 8.904C59.5077 8.904 59.2144 8.94933 58.9744 9.04C58.7397 9.12533 58.5344 9.224 58.3584 9.336C58.1877 9.44267 58.0384 9.54133 57.9104 9.632C57.7877 9.71733 57.665 9.76 57.5424 9.76C57.4464 9.76 57.361 9.736 57.2864 9.688C57.217 9.63467 57.161 9.57067 57.1184 9.496L56.8624 9.04C57.3104 8.608 57.793 8.28533 58.3104 8.072C58.8277 7.85867 59.401 7.752 60.0304 7.752C60.4837 7.752 60.8864 7.82667 61.2384 7.976C61.5904 8.12533 61.8864 8.33333 62.1264 8.6C62.3664 8.86667 62.5477 9.18933 62.6704 9.568C62.793 9.94667 62.8544 10.3627 62.8544 10.816V16ZM59.1584 15.128C59.409 15.128 59.6384 15.104 59.8464 15.056C60.0544 15.0027 60.249 14.9307 60.4304 14.84C60.617 14.744 60.793 14.6293 60.9584 14.496C61.129 14.3627 61.2944 14.2107 61.4544 14.04V12.352C60.7984 12.3733 60.241 12.4267 59.7824 12.512C59.3237 12.592 58.9504 12.6987 58.6624 12.832C58.3744 12.9653 58.1637 13.1227 58.0304 13.304C57.9024 13.4853 57.8384 13.688 57.8384 13.912C57.8384 14.1253 57.873 14.3093 57.9424 14.464C58.0117 14.6187 58.105 14.7467 58.2224 14.848C58.3397 14.944 58.4784 15.016 58.6384 15.064C58.7984 15.1067 58.9717 15.128 59.1584 15.128ZM69.6895 4.216V16H68.2655V4.216H69.6895ZM78.1513 16H77.5193C77.3806 16 77.2686 15.9787 77.1833 15.936C77.0979 15.8933 77.0419 15.8027 77.0153 15.664L76.8553 14.912C76.6419 15.104 76.4339 15.2773 76.2313 15.432C76.0286 15.5813 75.8153 15.7093 75.5913 15.816C75.3673 15.9173 75.1273 15.9947 74.8713 16.048C74.6206 16.1013 74.3406 16.128 74.0313 16.128C73.7166 16.128 73.4206 16.0853 73.1432 16C72.8713 15.9093 72.6339 15.776 72.4313 15.6C72.2286 15.424 72.0659 15.2027 71.9433 14.936C71.8259 14.664 71.7673 14.344 71.7673 13.976C71.7673 13.656 71.8553 13.3493 72.0312 13.056C72.2073 12.7573 72.4899 12.4933 72.8793 12.264C73.2739 12.0347 73.7886 11.848 74.4233 11.704C75.0579 11.5547 75.8339 11.4693 76.7513 11.448V10.816C76.7513 10.1867 76.6153 9.712 76.3433 9.392C76.0766 9.06667 75.6793 8.904 75.1513 8.904C74.8046 8.904 74.5113 8.94933 74.2713 9.04C74.0366 9.12533 73.8313 9.224 73.6553 9.336C73.4846 9.44267 73.3353 9.54133 73.2073 9.632C73.0846 9.71733 72.9619 9.76 72.8393 9.76C72.7433 9.76 72.6579 9.736 72.5833 9.688C72.5139 9.63467 72.4579 9.57067 72.4153 9.496L72.1593 9.04C72.6073 8.608 73.0899 8.28533 73.6073 8.072C74.1246 7.85867 74.6979 7.752 75.3273 7.752C75.7806 7.752 76.1833 7.82667 76.5353 7.976C76.8873 8.12533 77.1833 8.33333 77.4233 8.6C77.6633 8.86667 77.8446 9.18933 77.9673 9.568C78.0899 9.94667 78.1513 10.3627 78.1513 10.816V16ZM74.4553 15.128C74.7059 15.128 74.9353 15.104 75.1432 15.056C75.3513 15.0027 75.5459 14.9307 75.7273 14.84C75.9139 14.744 76.0899 14.6293 76.2553 14.496C76.4259 14.3627 76.5913 14.2107 76.7513 14.04V12.352C76.0953 12.3733 75.5379 12.4267 75.0793 12.512C74.6206 12.592 74.2473 12.6987 73.9593 12.832C73.6713 12.9653 73.4606 13.1227 73.3273 13.304C73.1993 13.4853 73.1353 13.688 73.1353 13.912C73.1353 14.1253 73.1699 14.3093 73.2393 14.464C73.3086 14.6187 73.4019 14.7467 73.5193 14.848C73.6366 14.944 73.7753 15.016 73.9353 15.064C74.0953 15.1067 74.2686 15.128 74.4553 15.128ZM80.3566 16V4.216H81.7886V9.064C82.1246 8.67467 82.5086 8.36267 82.9406 8.128C83.378 7.888 83.8766 7.768 84.4366 7.768C84.906 7.768 85.33 7.856 85.7086 8.032C86.0873 8.208 86.41 8.472 86.6766 8.824C86.9433 9.17067 87.1486 9.60267 87.2926 10.12C87.4366 10.632 87.5086 11.224 87.5086 11.896C87.5086 12.4933 87.4286 13.0507 87.2686 13.568C87.1086 14.08 86.8766 14.5253 86.5726 14.904C86.274 15.2773 85.906 15.5733 85.4686 15.792C85.0366 16.0053 84.5486 16.112 84.0046 16.112C83.482 16.112 83.0366 16.0107 82.6686 15.808C82.306 15.6053 81.9886 15.3227 81.7166 14.96L81.6446 15.696C81.602 15.8987 81.4793 16 81.2766 16H80.3566ZM83.9726 8.904C83.5086 8.904 83.1006 9.01067 82.7486 9.224C82.402 9.43733 82.082 9.73867 81.7886 10.128V14.048C82.0446 14.4 82.3273 14.648 82.6366 14.792C82.9513 14.936 83.3006 15.008 83.6846 15.008C84.442 15.008 85.0233 14.7387 85.4286 14.2C85.834 13.6613 86.0366 12.8933 86.0366 11.896C86.0366 11.368 85.9886 10.9147 85.8926 10.536C85.802 10.1573 85.6686 9.848 85.4926 9.608C85.3166 9.36267 85.1006 9.184 84.8446 9.072C84.5886 8.96 84.298 8.904 83.9726 8.904ZM92.4541 7.768C92.9395 7.768 93.3875 7.85067 93.7981 8.016C94.2088 8.176 94.5635 8.41067 94.8621 8.72C95.1608 9.024 95.3928 9.40267 95.5581 9.856C95.7288 10.304 95.8141 10.816 95.8141 11.392C95.8141 11.616 95.7901 11.7653 95.7421 11.84C95.6941 11.9147 95.6035 11.952 95.4701 11.952H90.0781C90.0888 12.464 90.1581 12.9093 90.2861 13.288C90.4141 13.6667 90.5901 13.984 90.8141 14.24C91.0381 14.4907 91.3048 14.68 91.6141 14.808C91.9235 14.9307 92.2701 14.992 92.6541 14.992C93.0115 14.992 93.3181 14.952 93.5741 14.872C93.8355 14.7867 94.0595 14.696 94.2461 14.6C94.4328 14.504 94.5875 14.416 94.7101 14.336C94.8381 14.2507 94.9475 14.208 95.0381 14.208C95.1555 14.208 95.2461 14.2533 95.3101 14.344L95.7101 14.864C95.5341 15.0773 95.3235 15.264 95.0781 15.424C94.8328 15.5787 94.5688 15.7067 94.2861 15.808C94.0088 15.9093 93.7208 15.984 93.4221 16.032C93.1235 16.0853 92.8275 16.112 92.5341 16.112C91.9741 16.112 91.4568 16.0187 90.9821 15.832C90.5128 15.64 90.1048 15.3627 89.7581 15C89.4168 14.632 89.1501 14.1787 88.9581 13.64C88.7661 13.1013 88.6701 12.4827 88.6701 11.784C88.6701 11.2187 88.7555 10.6907 88.9261 10.2C89.1021 9.70933 89.3528 9.28533 89.6781 8.928C90.0035 8.56533 90.4008 8.28267 90.8701 8.08C91.3395 7.872 91.8675 7.768 92.4541 7.768ZM92.4861 8.816C91.7981 8.816 91.2568 9.016 90.8621 9.416C90.4675 9.81067 90.2221 10.36 90.1261 11.064H94.5341C94.5341 10.7333 94.4888 10.432 94.3981 10.16C94.3075 9.88267 94.1741 9.64533 93.9981 9.448C93.8221 9.24533 93.6061 9.09067 93.3501 8.984C93.0995 8.872 92.8115 8.816 92.4861 8.816ZM99.2208 4.216V16H97.7968V4.216H99.2208Z" fill="black"/>
<rect x="0.5" y="28.5" width="455" height="145" rx="3.5" fill="white" stroke="#979797"/>
<path d="M15.096 48.712V53H13.552V41.536H16.936C17.6613 41.536 18.2907 41.6213 18.824 41.792C19.3627 41.9573 19.808 42.1947 20.16 42.504C20.512 42.8133 20.7733 43.1867 20.944 43.624C21.12 44.0613 21.208 44.5493 21.208 45.088C21.208 45.6213 21.1147 46.1093 20.928 46.552C20.7413 46.9947 20.4667 47.376 20.104 47.696C19.7467 48.016 19.3013 48.2667 18.768 48.448C18.2347 48.624 17.624 48.712 16.936 48.712H15.096ZM15.096 47.48H16.936C17.3787 47.48 17.768 47.4213 18.104 47.304C18.4453 47.1867 18.7307 47.024 18.96 46.816C19.1893 46.6027 19.3627 46.3493 19.48 46.056C19.5973 45.7627 19.656 45.44 19.656 45.088C19.656 44.3573 19.4293 43.7867 18.976 43.376C18.528 42.9653 17.848 42.76 16.936 42.76H15.096V47.48ZM24.5333 41.216V53H23.1093V41.216H24.5333ZM32.995 53H32.363C32.2243 53 32.1123 52.9787 32.027 52.936C31.9417 52.8933 31.8857 52.8027 31.859 52.664L31.699 51.912C31.4857 52.104 31.2777 52.2773 31.075 52.432C30.8723 52.5813 30.659 52.7093 30.435 52.816C30.211 52.9173 29.971 52.9947 29.715 53.048C29.4643 53.1013 29.1843 53.128 28.875 53.128C28.5603 53.128 28.2643 53.0853 27.987 53C27.715 52.9093 27.4777 52.776 27.275 52.6C27.0723 52.424 26.9097 52.2027 26.787 51.936C26.6697 51.664 26.611 51.344 26.611 50.976C26.611 50.656 26.699 50.3493 26.875 50.056C27.051 49.7573 27.3337 49.4933 27.723 49.264C28.1177 49.0347 28.6323 48.848 29.267 48.704C29.9017 48.5547 30.6777 48.4693 31.595 48.448V47.816C31.595 47.1867 31.459 46.712 31.187 46.392C30.9203 46.0667 30.523 45.904 29.995 45.904C29.6483 45.904 29.355 45.9493 29.115 46.04C28.8803 46.1253 28.675 46.224 28.499 46.336C28.3283 46.4427 28.179 46.5413 28.051 46.632C27.9283 46.7173 27.8057 46.76 27.683 46.76C27.587 46.76 27.5017 46.736 27.427 46.688C27.3577 46.6347 27.3017 46.5707 27.259 46.496L27.003 46.04C27.451 45.608 27.9337 45.2853 28.451 45.072C28.9683 44.8587 29.5417 44.752 30.171 44.752C30.6243 44.752 31.027 44.8267 31.379 44.976C31.731 45.1253 32.027 45.3333 32.267 45.6C32.507 45.8667 32.6883 46.1893 32.811 46.568C32.9337 46.9467 32.995 47.3627 32.995 47.816V53ZM29.299 52.128C29.5497 52.128 29.779 52.104 29.987 52.056C30.195 52.0027 30.3897 51.9307 30.571 51.84C30.7577 51.744 30.9337 51.6293 31.099 51.496C31.2697 51.3627 31.435 51.2107 31.595 51.04V49.352C30.939 49.3733 30.3817 49.4267 29.923 49.512C29.4643 49.592 29.091 49.6987 28.803 49.832C28.515 49.9653 28.3043 50.1227 28.171 50.304C28.043 50.4853 27.979 50.688 27.979 50.912C27.979 51.1253 28.0137 51.3093 28.083 51.464C28.1523 51.6187 28.2457 51.7467 28.363 51.848C28.4803 51.944 28.619 52.016 28.779 52.064C28.939 52.1067 29.1123 52.128 29.299 52.128ZM40.6804 46.336C40.6377 46.3947 40.595 46.44 40.5524 46.472C40.5097 46.504 40.4484 46.52 40.3684 46.52C40.2884 46.52 40.2004 46.488 40.1044 46.424C40.0137 46.3547 39.8964 46.28 39.7524 46.2C39.6084 46.12 39.4324 46.048 39.2244 45.984C39.0217 45.9147 38.771 45.88 38.4724 45.88C38.0777 45.88 37.7284 45.952 37.4244 46.096C37.1204 46.2347 36.8644 46.4373 36.6564 46.704C36.4537 46.9707 36.299 47.2933 36.1924 47.672C36.091 48.0507 36.0404 48.4747 36.0404 48.944C36.0404 49.4347 36.0964 49.872 36.2084 50.256C36.3204 50.6347 36.4777 50.9547 36.6804 51.216C36.883 51.472 37.1284 51.6693 37.4164 51.808C37.7097 51.9413 38.0377 52.008 38.4004 52.008C38.747 52.008 39.0324 51.968 39.2564 51.888C39.4804 51.8027 39.667 51.7093 39.8164 51.608C39.9657 51.5067 40.0884 51.416 40.1844 51.336C40.2804 51.2507 40.3764 51.208 40.4724 51.208C40.595 51.208 40.6857 51.2533 40.7444 51.344L41.1444 51.864C40.7924 52.296 40.3524 52.6133 39.8244 52.816C39.2964 53.0133 38.739 53.112 38.1524 53.112C37.6457 53.112 37.1737 53.0187 36.7364 52.832C36.3044 52.6453 35.9284 52.376 35.6084 52.024C35.2884 51.6667 35.035 51.2293 34.8484 50.712C34.667 50.1947 34.5764 49.6053 34.5764 48.944C34.5764 48.3413 34.659 47.784 34.8244 47.272C34.995 46.76 35.2404 46.32 35.5604 45.952C35.8857 45.5787 36.2857 45.288 36.7604 45.08C37.235 44.872 37.779 44.768 38.3924 44.768C38.9577 44.768 39.459 44.8613 39.8964 45.048C40.3337 45.2293 40.7204 45.488 41.0564 45.824L40.6804 46.336ZM45.8291 44.768C46.3145 44.768 46.7625 44.8507 47.1731 45.016C47.5838 45.176 47.9385 45.4107 48.2371 45.72C48.5358 46.024 48.7678 46.4027 48.9331 46.856C49.1038 47.304 49.1891 47.816 49.1891 48.392C49.1891 48.616 49.1651 48.7653 49.1171 48.84C49.0691 48.9147 48.9785 48.952 48.8451 48.952H43.4531C43.4638 49.464 43.5331 49.9093 43.6611 50.288C43.7891 50.6667 43.9651 50.984 44.1891 51.24C44.4131 51.4907 44.6798 51.68 44.9891 51.808C45.2985 51.9307 45.6451 51.992 46.0291 51.992C46.3865 51.992 46.6931 51.952 46.9491 51.872C47.2105 51.7867 47.4345 51.696 47.6211 51.6C47.8078 51.504 47.9625 51.416 48.0851 51.336C48.2131 51.2507 48.3225 51.208 48.4131 51.208C48.5305 51.208 48.6211 51.2533 48.6851 51.344L49.0851 51.864C48.9091 52.0773 48.6985 52.264 48.4531 52.424C48.2078 52.5787 47.9438 52.7067 47.6611 52.808C47.3838 52.9093 47.0958 52.984 46.7971 53.032C46.4985 53.0853 46.2025 53.112 45.9091 53.112C45.3491 53.112 44.8318 53.0187 44.3571 52.832C43.8878 52.64 43.4798 52.3627 43.1331 52C42.7918 51.632 42.5251 51.1787 42.3331 50.64C42.1411 50.1013 42.0451 49.4827 42.0451 48.784C42.0451 48.2187 42.1305 47.6907 42.3011 47.2C42.4771 46.7093 42.7278 46.2853 43.0531 45.928C43.3785 45.5653 43.7758 45.2827 44.2451 45.08C44.7145 44.872 45.2425 44.768 45.8291 44.768ZM45.8611 45.816C45.1731 45.816 44.6318 46.016 44.2371 46.416C43.8425 46.8107 43.5971 47.36 43.5011 48.064H47.9091C47.9091 47.7333 47.8638 47.432 47.7731 47.16C47.6825 46.8827 47.5491 46.6453 47.3731 46.448C47.1971 46.2453 46.9811 46.0907 46.7251 45.984C46.4745 45.872 46.1865 45.816 45.8611 45.816ZM51.0118 53V41.216H52.4358V45.984C52.7824 45.616 53.1664 45.3227 53.5878 45.104C54.0091 44.88 54.4944 44.768 55.0438 44.768C55.4864 44.768 55.8758 44.8427 56.2118 44.992C56.5531 45.136 56.8358 45.344 57.0598 45.616C57.2891 45.8827 57.4624 46.2053 57.5798 46.584C57.6971 46.9627 57.7558 47.3813 57.7558 47.84V53H56.3318V47.84C56.3318 47.2267 56.1904 46.752 55.9078 46.416C55.6304 46.0747 55.2038 45.904 54.6278 45.904C54.2064 45.904 53.8118 46.0053 53.4438 46.208C53.0811 46.4107 52.7451 46.6853 52.4358 47.032V53H51.0118ZM63.1824 44.768C63.7744 44.768 64.3077 44.8667 64.7824 45.064C65.2624 45.2613 65.6677 45.5413 65.9984 45.904C66.3344 46.2667 66.5904 46.7067 66.7664 47.224C66.9477 47.736 67.0384 48.3093 67.0384 48.944C67.0384 49.584 66.9477 50.16 66.7664 50.672C66.5904 51.184 66.3344 51.6213 65.9984 51.984C65.6677 52.3467 65.2624 52.6267 64.7824 52.824C64.3077 53.016 63.7744 53.112 63.1824 53.112C62.5904 53.112 62.0544 53.016 61.5744 52.824C61.0997 52.6267 60.6944 52.3467 60.3584 51.984C60.0224 51.6213 59.7637 51.184 59.5824 50.672C59.401 50.16 59.3104 49.584 59.3104 48.944C59.3104 48.3093 59.401 47.736 59.5824 47.224C59.7637 46.7067 60.0224 46.2667 60.3584 45.904C60.6944 45.5413 61.0997 45.2613 61.5744 45.064C62.0544 44.8667 62.5904 44.768 63.1824 44.768ZM63.1824 52C63.9824 52 64.5797 51.7333 64.9744 51.2C65.369 50.6613 65.5664 49.912 65.5664 48.952C65.5664 47.9867 65.369 47.2347 64.9744 46.696C64.5797 46.1573 63.9824 45.888 63.1824 45.888C62.777 45.888 62.425 45.9573 62.1264 46.096C61.8277 46.2347 61.577 46.4347 61.3744 46.696C61.177 46.9573 61.0277 47.28 60.9264 47.664C60.8304 48.0427 60.7824 48.472 60.7824 48.952C60.7824 49.432 60.8304 49.8613 60.9264 50.24C61.0277 50.6187 61.177 50.9387 61.3744 51.2C61.577 51.456 61.8277 51.6533 62.1264 51.792C62.425 51.9307 62.777 52 63.1824 52ZM70.377 41.216V53H68.953V41.216H70.377ZM78.5908 53C78.3881 53 78.2601 52.9013 78.2068 52.704L78.0788 51.72C77.7321 52.1413 77.3348 52.48 76.8868 52.736C76.4441 52.9867 75.9348 53.112 75.3588 53.112C74.8948 53.112 74.4734 53.024 74.0948 52.848C73.7161 52.6667 73.3934 52.4027 73.1268 52.056C72.8601 51.7093 72.6548 51.2773 72.5108 50.76C72.3668 50.2427 72.2948 49.648 72.2948 48.976C72.2948 48.3787 72.3748 47.824 72.5348 47.312C72.6948 46.7947 72.9241 46.3467 73.2228 45.968C73.5268 45.5893 73.8948 45.2933 74.3268 45.08C74.7588 44.8613 75.2494 44.752 75.7988 44.752C76.2948 44.752 76.7188 44.8373 77.0708 45.008C77.4228 45.1733 77.7374 45.408 78.0148 45.712V41.216H79.4388V53H78.5908ZM75.8307 51.96C76.2948 51.96 76.7001 51.8533 77.0468 51.64C77.3988 51.4267 77.7214 51.1253 78.0148 50.736V46.816C77.7534 46.464 77.4654 46.2187 77.1508 46.08C76.8414 45.936 76.4974 45.864 76.1188 45.864C75.3614 45.864 74.7801 46.1333 74.3748 46.672C73.9694 47.2107 73.7668 47.9787 73.7668 48.976C73.7668 49.504 73.8121 49.9573 73.9028 50.336C73.9934 50.7093 74.1268 51.0187 74.3028 51.264C74.4788 51.504 74.6948 51.68 74.9508 51.792C75.2068 51.904 75.5001 51.96 75.8307 51.96ZM85.0323 44.768C85.5176 44.768 85.9656 44.8507 86.3763 45.016C86.7869 45.176 87.1416 45.4107 87.4403 45.72C87.7389 46.024 87.9709 46.4027 88.1363 46.856C88.3069 47.304 88.3923 47.816 88.3923 48.392C88.3923 48.616 88.3683 48.7653 88.3203 48.84C88.2723 48.9147 88.1816 48.952 88.0483 48.952H82.6562C82.6669 49.464 82.7363 49.9093 82.8643 50.288C82.9923 50.6667 83.1683 50.984 83.3923 51.24C83.6163 51.4907 83.8829 51.68 84.1923 51.808C84.5016 51.9307 84.8483 51.992 85.2323 51.992C85.5896 51.992 85.8963 51.952 86.1523 51.872C86.4136 51.7867 86.6376 51.696 86.8243 51.6C87.0109 51.504 87.1656 51.416 87.2883 51.336C87.4163 51.2507 87.5256 51.208 87.6163 51.208C87.7336 51.208 87.8243 51.2533 87.8883 51.344L88.2883 51.864C88.1123 52.0773 87.9016 52.264 87.6563 52.424C87.4109 52.5787 87.1469 52.7067 86.8643 52.808C86.5869 52.9093 86.2989 52.984 86.0003 53.032C85.7016 53.0853 85.4056 53.112 85.1123 53.112C84.5523 53.112 84.0349 53.0187 83.5603 52.832C83.0909 52.64 82.6829 52.3627 82.3363 52C81.9949 51.632 81.7283 51.1787 81.5363 50.64C81.3443 50.1013 81.2483 49.4827 81.2483 48.784C81.2483 48.2187 81.3336 47.6907 81.5043 47.2C81.6803 46.7093 81.9309 46.2853 82.2563 45.928C82.5816 45.5653 82.9789 45.2827 83.4483 45.08C83.9176 44.872 84.4456 44.768 85.0323 44.768ZM85.0642 45.816C84.3763 45.816 83.8349 46.016 83.4403 46.416C83.0456 46.8107 82.8003 47.36 82.7043 48.064H87.1123C87.1123 47.7333 87.0669 47.432 86.9763 47.16C86.8856 46.8827 86.7523 46.6453 86.5763 46.448C86.4003 46.2453 86.1843 46.0907 85.9283 45.984C85.6776 45.872 85.3896 45.816 85.0642 45.816ZM90.2149 53V44.896H91.0309C91.1855 44.896 91.2922 44.9253 91.3509 44.984C91.4095 45.0427 91.4495 45.144 91.4709 45.288L91.5669 46.552C91.8442 45.9867 92.1855 45.5467 92.5909 45.232C93.0015 44.912 93.4815 44.752 94.0309 44.752C94.2549 44.752 94.4575 44.7787 94.6389 44.832C94.8202 44.88 94.9882 44.9493 95.1429 45.04L94.9589 46.104C94.9215 46.2373 94.8389 46.304 94.7109 46.304C94.6362 46.304 94.5215 46.28 94.3669 46.232C94.2122 46.1787 93.9962 46.152 93.7189 46.152C93.2229 46.152 92.8069 46.296 92.4709 46.584C92.1402 46.872 91.8629 47.2907 91.6389 47.84V53H90.2149ZM102.218 53.128C101.578 53.128 101.084 52.9493 100.738 52.592C100.396 52.2347 100.226 51.72 100.226 51.048V46.088H99.2498C99.1644 46.088 99.0924 46.064 99.0338 46.016C98.9751 45.9627 98.9458 45.8827 98.9458 45.776V45.208L100.274 45.04L100.602 42.536C100.612 42.456 100.647 42.392 100.706 42.344C100.764 42.2907 100.839 42.264 100.93 42.264H101.65V45.056H103.97V46.088H101.65V50.952C101.65 51.2933 101.732 51.5467 101.898 51.712C102.063 51.8773 102.276 51.96 102.538 51.96C102.687 51.96 102.815 51.9413 102.922 51.904C103.034 51.8613 103.13 51.816 103.21 51.768C103.29 51.72 103.356 51.6773 103.41 51.64C103.468 51.5973 103.519 51.576 103.562 51.576C103.636 51.576 103.703 51.6213 103.762 51.712L104.178 52.392C103.932 52.6213 103.636 52.8027 103.29 52.936C102.943 53.064 102.586 53.128 102.218 53.128ZM108.939 44.768C109.424 44.768 109.872 44.8507 110.283 45.016C110.693 45.176 111.048 45.4107 111.347 45.72C111.645 46.024 111.877 46.4027 112.043 46.856C112.213 47.304 112.299 47.816 112.299 48.392C112.299 48.616 112.275 48.7653 112.227 48.84C112.179 48.9147 112.088 48.952 111.955 48.952H106.562C106.573 49.464 106.643 49.9093 106.771 50.288C106.899 50.6667 107.075 50.984 107.299 51.24C107.523 51.4907 107.789 51.68 108.099 51.808C108.408 51.9307 108.755 51.992 109.139 51.992C109.496 51.992 109.803 51.952 110.059 51.872C110.32 51.7867 110.544 51.696 110.731 51.6C110.917 51.504 111.072 51.416 111.195 51.336C111.323 51.2507 111.432 51.208 111.523 51.208C111.64 51.208 111.731 51.2533 111.795 51.344L112.195 51.864C112.019 52.0773 111.808 52.264 111.563 52.424C111.317 52.5787 111.053 52.7067 110.771 52.808C110.493 52.9093 110.205 52.984 109.907 53.032C109.608 53.0853 109.312 53.112 109.019 53.112C108.459 53.112 107.941 53.0187 107.467 52.832C106.997 52.64 106.589 52.3627 106.243 52C105.901 51.632 105.635 51.1787 105.443 50.64C105.251 50.1013 105.155 49.4827 105.155 48.784C105.155 48.2187 105.24 47.6907 105.411 47.2C105.587 46.7093 105.837 46.2853 106.163 45.928C106.488 45.5653 106.885 45.2827 107.355 45.08C107.824 44.872 108.352 44.768 108.939 44.768ZM108.97 45.816C108.283 45.816 107.741 46.016 107.347 46.416C106.952 46.8107 106.707 47.36 106.611 48.064H111.019C111.019 47.7333 110.973 47.432 110.883 47.16C110.792 46.8827 110.659 46.6453 110.483 46.448C110.307 46.2453 110.091 46.0907 109.835 45.984C109.584 45.872 109.296 45.816 108.97 45.816ZM115.533 48.848L112.805 44.896H114.173C114.29 44.896 114.375 44.9147 114.429 44.952C114.482 44.9893 114.53 45.0427 114.573 45.112L116.557 48.152C116.605 48.0027 116.674 47.8533 116.765 47.704L118.509 45.144C118.562 45.0693 118.615 45.0107 118.669 44.968C118.722 44.92 118.789 44.896 118.869 44.896H120.181L117.453 48.768L120.293 53H118.925C118.807 53 118.714 52.9707 118.645 52.912C118.581 52.848 118.527 52.7787 118.485 52.704L116.445 49.528C116.407 49.6827 116.351 49.8213 116.277 49.944L114.389 52.704C114.335 52.7787 114.277 52.848 114.213 52.912C114.154 52.9707 114.071 53 113.965 53H112.693L115.533 48.848ZM124.155 53.128C123.515 53.128 123.022 52.9493 122.675 52.592C122.334 52.2347 122.163 51.72 122.163 51.048V46.088H121.187C121.102 46.088 121.03 46.064 120.971 46.016C120.913 45.9627 120.883 45.8827 120.883 45.776V45.208L122.211 45.04L122.539 42.536C122.55 42.456 122.585 42.392 122.643 42.344C122.702 42.2907 122.777 42.264 122.867 42.264H123.587V45.056H125.907V46.088H123.587V50.952C123.587 51.2933 123.67 51.5467 123.835 51.712C124.001 51.8773 124.214 51.96 124.475 51.96C124.625 51.96 124.753 51.9413 124.859 51.904C124.971 51.8613 125.067 51.816 125.147 51.768C125.227 51.72 125.294 51.6773 125.347 51.64C125.406 51.5973 125.457 51.576 125.499 51.576C125.574 51.576 125.641 51.6213 125.699 51.712L126.115 52.392C125.87 52.6213 125.574 52.8027 125.227 52.936C124.881 53.064 124.523 53.128 124.155 53.128Z" fill="#AAAAAA"/>
</svg>
