<svg width="407" height="83" viewBox="0 0 407 83" fill="none" xmlns="http://www.w3.org/2000/svg">
<path d="M0.5 0.5H406.5V62C406.5 73.3218 397.322 82.5 386 82.5H21C9.67817 82.5 0.5 73.3218 0.5 62V0.5Z" fill="white" stroke="#EAEAEA"/>
<rect x="263" y="20" width="88" height="44" rx="22" fill="#0064D1"/>
<path d="M298.405 38.328C298.357 38.408 298.306 38.4693 298.253 38.512C298.199 38.5493 298.13 38.568 298.045 38.568C297.954 38.568 297.847 38.5227 297.725 38.432C297.607 38.3413 297.455 38.2427 297.269 38.136C297.087 38.024 296.866 37.9227 296.605 37.832C296.349 37.7413 296.037 37.696 295.669 37.696C295.322 37.696 295.015 37.744 294.749 37.84C294.482 37.9307 294.258 38.056 294.077 38.216C293.901 38.376 293.767 38.5653 293.677 38.784C293.586 38.9973 293.541 39.2293 293.541 39.48C293.541 39.8 293.618 40.0667 293.773 40.28C293.933 40.488 294.141 40.6667 294.397 40.816C294.658 40.9653 294.951 41.096 295.277 41.208C295.607 41.3147 295.943 41.4267 296.285 41.544C296.631 41.6613 296.967 41.7947 297.293 41.944C297.623 42.088 297.917 42.272 298.173 42.496C298.434 42.72 298.642 42.9947 298.797 43.32C298.957 43.6453 299.037 44.0453 299.037 44.52C299.037 45.0213 298.951 45.4933 298.781 45.936C298.61 46.3733 298.359 46.7547 298.029 47.08C297.703 47.4053 297.301 47.6613 296.821 47.848C296.346 48.0347 295.805 48.128 295.197 48.128C294.455 48.128 293.778 47.9947 293.165 47.728C292.557 47.456 292.037 47.0907 291.605 46.632L292.053 45.896C292.095 45.8373 292.146 45.7893 292.205 45.752C292.269 45.7093 292.338 45.688 292.413 45.688C292.525 45.688 292.653 45.7493 292.797 45.872C292.941 45.9893 293.119 46.12 293.333 46.264C293.551 46.408 293.813 46.5413 294.117 46.664C294.426 46.7813 294.802 46.84 295.245 46.84C295.613 46.84 295.941 46.7893 296.229 46.688C296.517 46.5867 296.759 46.4453 296.957 46.264C297.159 46.0773 297.314 45.856 297.421 45.6C297.527 45.344 297.581 45.0587 297.581 44.744C297.581 44.3973 297.501 44.1147 297.341 43.896C297.186 43.672 296.981 43.4853 296.725 43.336C296.469 43.1867 296.175 43.0613 295.845 42.96C295.519 42.8533 295.183 42.7467 294.837 42.64C294.495 42.528 294.159 42.4 293.829 42.256C293.503 42.112 293.213 41.9253 292.957 41.696C292.701 41.4667 292.493 41.1813 292.333 40.84C292.178 40.4933 292.101 40.0667 292.101 39.56C292.101 39.1547 292.178 38.7627 292.333 38.384C292.493 38.0053 292.722 37.6693 293.021 37.376C293.319 37.0827 293.687 36.848 294.125 36.672C294.567 36.496 295.074 36.408 295.645 36.408C296.285 36.408 296.869 36.5093 297.397 36.712C297.925 36.9147 298.386 37.208 298.781 37.592L298.405 38.328ZM306.745 48H306.113C305.974 48 305.862 47.9787 305.777 47.936C305.692 47.8933 305.636 47.8027 305.609 47.664L305.449 46.912C305.236 47.104 305.028 47.2773 304.825 47.432C304.622 47.5813 304.409 47.7093 304.185 47.816C303.961 47.9173 303.721 47.9947 303.465 48.048C303.214 48.1013 302.934 48.128 302.625 48.128C302.31 48.128 302.014 48.0853 301.737 48C301.465 47.9093 301.228 47.776 301.025 47.6C300.822 47.424 300.66 47.2027 300.537 46.936C300.42 46.664 300.361 46.344 300.361 45.976C300.361 45.656 300.449 45.3493 300.625 45.056C300.801 44.7573 301.084 44.4933 301.473 44.264C301.868 44.0347 302.382 43.848 303.017 43.704C303.652 43.5547 304.428 43.4693 305.345 43.448V42.816C305.345 42.1867 305.209 41.712 304.937 41.392C304.67 41.0667 304.273 40.904 303.745 40.904C303.398 40.904 303.105 40.9493 302.865 41.04C302.63 41.1253 302.425 41.224 302.249 41.336C302.078 41.4427 301.929 41.5413 301.801 41.632C301.678 41.7173 301.556 41.76 301.433 41.76C301.337 41.76 301.252 41.736 301.177 41.688C301.108 41.6347 301.052 41.5707 301.009 41.496L300.753 41.04C301.201 40.608 301.684 40.2853 302.201 40.072C302.718 39.8587 303.292 39.752 303.921 39.752C304.374 39.752 304.777 39.8267 305.129 39.976C305.481 40.1253 305.777 40.3333 306.017 40.6C306.257 40.8667 306.438 41.1893 306.561 41.568C306.684 41.9467 306.745 42.3627 306.745 42.816V48ZM303.049 47.128C303.3 47.128 303.529 47.104 303.737 47.056C303.945 47.0027 304.14 46.9307 304.321 46.84C304.508 46.744 304.684 46.6293 304.849 46.496C305.02 46.3627 305.185 46.2107 305.345 46.04V44.352C304.689 44.3733 304.132 44.4267 303.673 44.512C303.214 44.592 302.841 44.6987 302.553 44.832C302.265 44.9653 302.054 45.1227 301.921 45.304C301.793 45.4853 301.729 45.688 301.729 45.912C301.729 46.1253 301.764 46.3093 301.833 46.464C301.902 46.6187 301.996 46.7467 302.113 46.848C302.23 46.944 302.369 47.016 302.529 47.064C302.689 47.1067 302.862 47.128 303.049 47.128ZM307.628 39.896H308.796C308.908 39.896 309.002 39.9253 309.076 39.984C309.151 40.0427 309.204 40.112 309.236 40.192L311.292 45.408C311.367 45.6 311.426 45.792 311.468 45.984C311.511 46.176 311.551 46.3653 311.588 46.552C311.631 46.3653 311.676 46.176 311.724 45.984C311.772 45.792 311.834 45.6 311.908 45.408L313.988 40.192C314.02 40.1067 314.071 40.0373 314.14 39.984C314.215 39.9253 314.306 39.896 314.412 39.896H315.524L312.22 48H310.932L307.628 39.896ZM319.845 39.768C320.33 39.768 320.778 39.8507 321.189 40.016C321.599 40.176 321.954 40.4107 322.253 40.72C322.551 41.024 322.783 41.4027 322.949 41.856C323.119 42.304 323.205 42.816 323.205 43.392C323.205 43.616 323.181 43.7653 323.133 43.84C323.085 43.9147 322.994 43.952 322.861 43.952H317.469C317.479 44.464 317.549 44.9093 317.677 45.288C317.805 45.6667 317.981 45.984 318.205 46.24C318.429 46.4907 318.695 46.68 319.005 46.808C319.314 46.9307 319.661 46.992 320.045 46.992C320.402 46.992 320.709 46.952 320.965 46.872C321.226 46.7867 321.45 46.696 321.637 46.6C321.823 46.504 321.978 46.416 322.101 46.336C322.229 46.2507 322.338 46.208 322.429 46.208C322.546 46.208 322.637 46.2533 322.701 46.344L323.101 46.864C322.925 47.0773 322.714 47.264 322.469 47.424C322.223 47.5787 321.959 47.7067 321.677 47.808C321.399 47.9093 321.111 47.984 320.813 48.032C320.514 48.0853 320.218 48.112 319.925 48.112C319.365 48.112 318.847 48.0187 318.373 47.832C317.903 47.64 317.495 47.3627 317.149 47C316.807 46.632 316.541 46.1787 316.349 45.64C316.157 45.1013 316.061 44.4827 316.061 43.784C316.061 43.2187 316.146 42.6907 316.317 42.2C316.493 41.7093 316.743 41.2853 317.069 40.928C317.394 40.5653 317.791 40.2827 318.261 40.08C318.73 39.872 319.258 39.768 319.845 39.768ZM319.877 40.816C319.189 40.816 318.647 41.016 318.253 41.416C317.858 41.8107 317.613 42.36 317.517 43.064H321.925C321.925 42.7333 321.879 42.432 321.789 42.16C321.698 41.8827 321.565 41.6453 321.389 41.448C321.213 41.2453 320.997 41.0907 320.741 40.984C320.49 40.872 320.202 40.816 319.877 40.816Z" fill="white"/>
<rect x="157" y="20" width="94" height="44" rx="22" fill="#0064D1"/>
<path d="M192.187 42.272C192.187 43.1307 192.051 43.912 191.779 44.616C191.507 45.32 191.123 45.9227 190.627 46.424C190.131 46.9253 189.537 47.3147 188.843 47.592C188.15 47.864 187.382 48 186.539 48H182.251V36.536H186.539C187.382 36.536 188.15 36.6747 188.843 36.952C189.537 37.224 190.131 37.6133 190.627 38.12C191.123 38.6213 191.507 39.224 191.779 39.928C192.051 40.632 192.187 41.4133 192.187 42.272ZM190.595 42.272C190.595 41.568 190.499 40.9387 190.307 40.384C190.115 39.8293 189.843 39.36 189.491 38.976C189.139 38.592 188.713 38.2987 188.211 38.096C187.71 37.8933 187.153 37.792 186.539 37.792H183.811V46.744H186.539C187.153 46.744 187.71 46.6427 188.211 46.44C188.713 46.2373 189.139 45.9467 189.491 45.568C189.843 45.184 190.115 44.7147 190.307 44.16C190.499 43.6053 190.595 42.976 190.595 42.272ZM197.282 39.768C197.768 39.768 198.216 39.8507 198.626 40.016C199.037 40.176 199.392 40.4107 199.69 40.72C199.989 41.024 200.221 41.4027 200.386 41.856C200.557 42.304 200.642 42.816 200.642 43.392C200.642 43.616 200.618 43.7653 200.57 43.84C200.522 43.9147 200.432 43.952 200.298 43.952H194.906C194.917 44.464 194.986 44.9093 195.114 45.288C195.242 45.6667 195.418 45.984 195.642 46.24C195.866 46.4907 196.133 46.68 196.442 46.808C196.752 46.9307 197.098 46.992 197.482 46.992C197.84 46.992 198.146 46.952 198.402 46.872C198.664 46.7867 198.888 46.696 199.074 46.6C199.261 46.504 199.416 46.416 199.538 46.336C199.666 46.2507 199.776 46.208 199.866 46.208C199.984 46.208 200.074 46.2533 200.138 46.344L200.538 46.864C200.362 47.0773 200.152 47.264 199.906 47.424C199.661 47.5787 199.397 47.7067 199.114 47.808C198.837 47.9093 198.549 47.984 198.25 48.032C197.952 48.0853 197.656 48.112 197.362 48.112C196.802 48.112 196.285 48.0187 195.81 47.832C195.341 47.64 194.933 47.3627 194.586 47C194.245 46.632 193.978 46.1787 193.786 45.64C193.594 45.1013 193.498 44.4827 193.498 43.784C193.498 43.2187 193.584 42.6907 193.754 42.2C193.93 41.7093 194.181 41.2853 194.506 40.928C194.832 40.5653 195.229 40.2827 195.698 40.08C196.168 39.872 196.696 39.768 197.282 39.768ZM197.314 40.816C196.626 40.816 196.085 41.016 195.69 41.416C195.296 41.8107 195.05 42.36 194.954 43.064H199.362C199.362 42.7333 199.317 42.432 199.226 42.16C199.136 41.8827 199.002 41.6453 198.826 41.448C198.65 41.2453 198.434 41.0907 198.178 40.984C197.928 40.872 197.64 40.816 197.314 40.816ZM204.049 36.216V48H202.625V36.216H204.049ZM209.767 39.768C210.252 39.768 210.7 39.8507 211.111 40.016C211.521 40.176 211.876 40.4107 212.175 40.72C212.473 41.024 212.705 41.4027 212.871 41.856C213.041 42.304 213.127 42.816 213.127 43.392C213.127 43.616 213.103 43.7653 213.055 43.84C213.007 43.9147 212.916 43.952 212.783 43.952H207.391C207.401 44.464 207.471 44.9093 207.599 45.288C207.727 45.6667 207.903 45.984 208.127 46.24C208.351 46.4907 208.617 46.68 208.927 46.808C209.236 46.9307 209.583 46.992 209.967 46.992C210.324 46.992 210.631 46.952 210.887 46.872C211.148 46.7867 211.372 46.696 211.559 46.6C211.745 46.504 211.9 46.416 212.023 46.336C212.151 46.2507 212.26 46.208 212.351 46.208C212.468 46.208 212.559 46.2533 212.623 46.344L213.023 46.864C212.847 47.0773 212.636 47.264 212.391 47.424C212.145 47.5787 211.881 47.7067 211.599 47.808C211.321 47.9093 211.033 47.984 210.735 48.032C210.436 48.0853 210.14 48.112 209.847 48.112C209.287 48.112 208.769 48.0187 208.295 47.832C207.825 47.64 207.417 47.3627 207.071 47C206.729 46.632 206.463 46.1787 206.271 45.64C206.079 45.1013 205.983 44.4827 205.983 43.784C205.983 43.2187 206.068 42.6907 206.239 42.2C206.415 41.7093 206.665 41.2853 206.991 40.928C207.316 40.5653 207.713 40.2827 208.183 40.08C208.652 39.872 209.18 39.768 209.767 39.768ZM209.799 40.816C209.111 40.816 208.569 41.016 208.175 41.416C207.78 41.8107 207.535 42.36 207.439 43.064H211.847C211.847 42.7333 211.801 42.432 211.711 42.16C211.62 41.8827 211.487 41.6453 211.311 41.448C211.135 41.2453 210.919 41.0907 210.663 40.984C210.412 40.872 210.124 40.816 209.799 40.816ZM217.405 48.128C216.765 48.128 216.272 47.9493 215.925 47.592C215.584 47.2347 215.413 46.72 215.413 46.048V41.088H214.437C214.352 41.088 214.28 41.064 214.221 41.016C214.163 40.9627 214.133 40.8827 214.133 40.776V40.208L215.461 40.04L215.789 37.536C215.8 37.456 215.835 37.392 215.893 37.344C215.952 37.2907 216.027 37.264 216.117 37.264H216.837V40.056H219.157V41.088H216.837V45.952C216.837 46.2933 216.92 46.5467 217.085 46.712C217.251 46.8773 217.464 46.96 217.725 46.96C217.875 46.96 218.003 46.9413 218.109 46.904C218.221 46.8613 218.317 46.816 218.397 46.768C218.477 46.72 218.544 46.6773 218.597 46.64C218.656 46.5973 218.707 46.576 218.749 46.576C218.824 46.576 218.891 46.6213 218.949 46.712L219.365 47.392C219.12 47.6213 218.824 47.8027 218.477 47.936C218.131 48.064 217.773 48.128 217.405 48.128ZM224.126 39.768C224.611 39.768 225.059 39.8507 225.47 40.016C225.881 40.176 226.235 40.4107 226.534 40.72C226.833 41.024 227.065 41.4027 227.23 41.856C227.401 42.304 227.486 42.816 227.486 43.392C227.486 43.616 227.462 43.7653 227.414 43.84C227.366 43.9147 227.275 43.952 227.142 43.952H221.75C221.761 44.464 221.83 44.9093 221.958 45.288C222.086 45.6667 222.262 45.984 222.486 46.24C222.71 46.4907 222.977 46.68 223.286 46.808C223.595 46.9307 223.942 46.992 224.326 46.992C224.683 46.992 224.99 46.952 225.246 46.872C225.507 46.7867 225.731 46.696 225.918 46.6C226.105 46.504 226.259 46.416 226.382 46.336C226.51 46.2507 226.619 46.208 226.71 46.208C226.827 46.208 226.918 46.2533 226.982 46.344L227.382 46.864C227.206 47.0773 226.995 47.264 226.75 47.424C226.505 47.5787 226.241 47.7067 225.958 47.808C225.681 47.9093 225.393 47.984 225.094 48.032C224.795 48.0853 224.499 48.112 224.206 48.112C223.646 48.112 223.129 48.0187 222.654 47.832C222.185 47.64 221.777 47.3627 221.43 47C221.089 46.632 220.822 46.1787 220.63 45.64C220.438 45.1013 220.342 44.4827 220.342 43.784C220.342 43.2187 220.427 42.6907 220.598 42.2C220.774 41.7093 221.025 41.2853 221.35 40.928C221.675 40.5653 222.073 40.2827 222.542 40.08C223.011 39.872 223.539 39.768 224.126 39.768ZM224.158 40.816C223.47 40.816 222.929 41.016 222.534 41.416C222.139 41.8107 221.894 42.36 221.798 43.064H226.206C226.206 42.7333 226.161 42.432 226.07 42.16C225.979 41.8827 225.846 41.6453 225.67 41.448C225.494 41.2453 225.278 41.0907 225.022 40.984C224.771 40.872 224.483 40.816 224.158 40.816Z" fill="white"/>
<rect x="57" y="20" width="88" height="44" rx="22" fill="#0064D1"/>
<path d="M95.8076 36.536V37.8H90.3036V41.608H94.7596V42.824H90.3036V46.736H95.8076V48H88.7436V36.536H95.8076ZM103.52 48C103.318 48 103.19 47.9013 103.136 47.704L103.008 46.72C102.662 47.1413 102.264 47.48 101.816 47.736C101.374 47.9867 100.864 48.112 100.288 48.112C99.8244 48.112 99.4031 48.024 99.0244 47.848C98.6458 47.6667 98.3231 47.4027 98.0564 47.056C97.7898 46.7093 97.5844 46.2773 97.4404 45.76C97.2964 45.2427 97.2244 44.648 97.2244 43.976C97.2244 43.3787 97.3044 42.824 97.4644 42.312C97.6244 41.7947 97.8538 41.3467 98.1524 40.968C98.4564 40.5893 98.8244 40.2933 99.2564 40.08C99.6884 39.8613 100.179 39.752 100.728 39.752C101.224 39.752 101.648 39.8373 102 40.008C102.352 40.1733 102.667 40.408 102.944 40.712V36.216H104.368V48H103.52ZM100.76 46.96C101.224 46.96 101.63 46.8533 101.976 46.64C102.328 46.4267 102.651 46.1253 102.944 45.736V41.816C102.683 41.464 102.395 41.2187 102.08 41.08C101.771 40.936 101.427 40.864 101.048 40.864C100.291 40.864 99.7098 41.1333 99.3044 41.672C98.8991 42.2107 98.6964 42.9787 98.6964 43.976C98.6964 44.504 98.7418 44.9573 98.8324 45.336C98.9231 45.7093 99.0564 46.0187 99.2324 46.264C99.4084 46.504 99.6244 46.68 99.8804 46.792C100.136 46.904 100.43 46.96 100.76 46.96ZM108.338 39.896V48H106.914V39.896H108.338ZM108.658 37.352C108.658 37.4907 108.629 37.6213 108.57 37.744C108.517 37.8613 108.442 37.968 108.346 38.064C108.255 38.1547 108.149 38.2267 108.026 38.28C107.903 38.3333 107.773 38.36 107.634 38.36C107.495 38.36 107.365 38.3333 107.242 38.28C107.125 38.2267 107.018 38.1547 106.922 38.064C106.831 37.968 106.759 37.8613 106.706 37.744C106.653 37.6213 106.626 37.4907 106.626 37.352C106.626 37.2133 106.653 37.0827 106.706 36.96C106.759 36.832 106.831 36.7227 106.922 36.632C107.018 36.536 107.125 36.4613 107.242 36.408C107.365 36.3547 107.495 36.328 107.634 36.328C107.773 36.328 107.903 36.3547 108.026 36.408C108.149 36.4613 108.255 36.536 108.346 36.632C108.442 36.7227 108.517 36.832 108.57 36.96C108.629 37.0827 108.658 37.2133 108.658 37.352ZM113.304 48.128C112.664 48.128 112.17 47.9493 111.824 47.592C111.482 47.2347 111.312 46.72 111.312 46.048V41.088H110.336C110.25 41.088 110.178 41.064 110.12 41.016C110.061 40.9627 110.032 40.8827 110.032 40.776V40.208L111.36 40.04L111.688 37.536C111.698 37.456 111.733 37.392 111.792 37.344C111.85 37.2907 111.925 37.264 112.016 37.264H112.736V40.056H115.056V41.088H112.736V45.952C112.736 46.2933 112.818 46.5467 112.984 46.712C113.149 46.8773 113.362 46.96 113.624 46.96C113.773 46.96 113.901 46.9413 114.008 46.904C114.12 46.8613 114.216 46.816 114.296 46.768C114.376 46.72 114.442 46.6773 114.496 46.64C114.554 46.5973 114.605 46.576 114.648 46.576C114.722 46.576 114.789 46.6213 114.848 46.712L115.264 47.392C115.018 47.6213 114.722 47.8027 114.376 47.936C114.029 48.064 113.672 48.128 113.304 48.128Z" fill="white"/>
</svg>
