<svg width="180" height="63" viewBox="0 0 180 63" fill="none" xmlns="http://www.w3.org/2000/svg">
<rect x="71.5" y="13.5" width="37" height="37" rx="18.5" fill="#0064D1" stroke="#0064D1"/>
<g clip-path="url(#clip0_1035_30)">
<path d="M86 24C84.8969 24 84 24.8969 84 26V29H86V26H93.0844L94 26.9156V29H96V26.9156C96 26.3844 95.7906 25.875 95.4156 25.5L94.5 24.5844C94.125 24.2094 93.6156 24 93.0844 24H86ZM94 35V36V38H86V36V35.5V35H94ZM96 36H97C97.5531 36 98 35.5531 98 35V32C98 30.8969 97.1031 30 96 30H84C82.8969 30 82 30.8969 82 32V35C82 35.5531 82.4469 36 83 36H84V38C84 39.1031 84.8969 40 86 40H94C95.1031 40 96 39.1031 96 38V36ZM95.5 31.75C95.6989 31.75 95.8897 31.829 96.0303 31.9697C96.171 32.1103 96.25 32.3011 96.25 32.5C96.25 32.6989 96.171 32.8897 96.0303 33.0303C95.8897 33.171 95.6989 33.25 95.5 33.25C95.3011 33.25 95.1103 33.171 94.9697 33.0303C94.829 32.8897 94.75 32.6989 94.75 32.5C94.75 32.3011 94.829 32.1103 94.9697 31.9697C95.1103 31.829 95.3011 31.75 95.5 31.75Z" fill="white"/>
</g>
<defs>
<clipPath id="clip0_1035_30">
<rect width="16" height="16" fill="white" transform="translate(82 24)"/>
</clipPath>
</defs>
</svg>
