<svg width="180" height="63" viewBox="0 0 180 63" fill="none" xmlns="http://www.w3.org/2000/svg">
<g clip-path="url(#clip0_1035_30)">
<path d="M115 24C113.897 24 113 24.8969 113 26V29H115V26H122.084L123 26.9156V29H125V26.9156C125 26.3844 124.791 25.875 124.416 25.5L123.5 24.5844C123.125 24.2094 122.616 24 122.084 24H115ZM123 35V36V38H115V36V35.5V35H123ZM125 36H126C126.553 36 127 35.5531 127 35V32C127 30.8969 126.103 30 125 30H113C111.897 30 111 30.8969 111 32V35C111 35.5531 111.447 36 112 36H113V38C113 39.1031 113.897 40 115 40H123C124.103 40 125 39.1031 125 38V36ZM124.5 31.75C124.699 31.75 124.89 31.829 125.03 31.9697C125.171 32.1103 125.25 32.3011 125.25 32.5C125.25 32.6989 125.171 32.8897 125.03 33.0303C124.89 33.171 124.699 33.25 124.5 33.25C124.301 33.25 124.11 33.171 123.97 33.0303C123.829 32.8897 123.75 32.6989 123.75 32.5C123.75 32.3011 123.829 32.1103 123.97 31.9697C124.11 31.829 124.301 31.75 124.5 31.75Z" fill="#0064D1"/>
</g>
<rect x="53.5" y="13.5" width="37" height="37" rx="18.5" stroke="#0064D1"/>
<g clip-path="url(#clip1_1035_30)">
<path d="M68 24C66.8969 24 66 24.8969 66 26V29H68V26H75.0844L76 26.9156V29H78V26.9156C78 26.3844 77.7906 25.875 77.4156 25.5L76.5 24.5844C76.125 24.2094 75.6156 24 75.0844 24H68ZM76 35V36V38H68V36V35.5V35H76ZM78 36H79C79.5531 36 80 35.5531 80 35V32C80 30.8969 79.1031 30 78 30H66C64.8969 30 64 30.8969 64 32V35C64 35.5531 64.4469 36 65 36H66V38C66 39.1031 66.8969 40 68 40H76C77.1031 40 78 39.1031 78 38V36ZM77.5 31.75C77.6989 31.75 77.8897 31.829 78.0303 31.9697C78.171 32.1103 78.25 32.3011 78.25 32.5C78.25 32.6989 78.171 32.8897 78.0303 33.0303C77.8897 33.171 77.6989 33.25 77.5 33.25C77.3011 33.25 77.1103 33.171 76.9697 33.0303C76.829 32.8897 76.75 32.6989 76.75 32.5C76.75 32.3011 76.829 32.1103 76.9697 31.9697C77.1103 31.829 77.3011 31.75 77.5 31.75Z" fill="#0064D1"/>
</g>
<defs>
<clipPath id="clip0_1035_30">
<rect width="16" height="16" fill="white" transform="translate(111 24)"/>
</clipPath>
<clipPath id="clip1_1035_30">
<rect width="16" height="16" fill="white" transform="translate(64 24)"/>
</clipPath>
</defs>
</svg>
