<svg width="404" height="83" viewBox="0 0 404 83" fill="none" xmlns="http://www.w3.org/2000/svg">
<path d="M0.5 0.5H403.205V62C403.205 73.3218 394.027 82.5 382.705 82.5H21C9.67818 82.5 0.5 73.3218 0.5 62V0.5Z" fill="white" stroke="#EAEAEA"/>
<rect x="142" y="23" width="38" height="38" rx="19" fill="#0064D1"/>
<path fill-rule="evenodd" clip-rule="evenodd" d="M153.014 39.5692C153.014 42.6375 155.501 45.1248 158.569 45.1248C161.638 45.1248 164.125 42.6375 164.125 39.5692C164.125 36.501 161.638 34.0137 158.569 34.0137C155.501 34.0137 153.014 36.501 153.014 39.5692Z" stroke="white" stroke-width="2.08333" stroke-linecap="round" stroke-linejoin="round"/>
<path d="M162.497 43.4971L168.986 49.986" stroke="white" stroke-width="2.08333" stroke-linecap="round" stroke-linejoin="round"/>
<rect x="194.5" y="23.5" width="37" height="37" rx="18.5" stroke="#0064D1"/>
<path fill-rule="evenodd" clip-rule="evenodd" d="M205.014 39.5692C205.014 42.6375 207.501 45.1248 210.569 45.1248C213.638 45.1248 216.125 42.6375 216.125 39.5692C216.125 36.501 213.638 34.0137 210.569 34.0137C207.501 34.0137 205.014 36.501 205.014 39.5692Z" stroke="#0064D1" stroke-width="2.08333" stroke-linecap="round" stroke-linejoin="round"/>
<path d="M214.497 43.4971L220.986 49.986" stroke="#0064D1" stroke-width="2.08333" stroke-linecap="round" stroke-linejoin="round"/>
<path fill-rule="evenodd" clip-rule="evenodd" d="M246 39.5692C246 42.6375 248.487 45.1248 251.556 45.1248C254.624 45.1248 257.111 42.6375 257.111 39.5692C257.111 36.501 254.624 34.0137 251.556 34.0137C248.487 34.0137 246 36.501 246 39.5692Z" stroke="#0064D1" stroke-width="2.08333" stroke-linecap="round" stroke-linejoin="round"/>
<path d="M255.483 43.4971L261.972 49.986" stroke="#0064D1" stroke-width="2.08333" stroke-linecap="round" stroke-linejoin="round"/>
</svg>
