<svg width="110" height="38" viewBox="0 0 110 38" fill="none" xmlns="http://www.w3.org/2000/svg">
<rect width="110" height="38" rx="19" fill="#0064D1"/>
<path d="M44.096 19.712V24H42.552V12.536H45.936C46.6613 12.536 47.2907 12.6213 47.824 12.792C48.3627 12.9573 48.808 13.1947 49.16 13.504C49.512 13.8133 49.7733 14.1867 49.944 14.624C50.12 15.0613 50.208 15.5493 50.208 16.088C50.208 16.6213 50.1147 17.1093 49.928 17.552C49.7413 17.9947 49.4667 18.376 49.104 18.696C48.7467 19.016 48.3013 19.2667 47.768 19.448C47.2347 19.624 46.624 19.712 45.936 19.712H44.096ZM44.096 18.48H45.936C46.3787 18.48 46.768 18.4213 47.104 18.304C47.4453 18.1867 47.7307 18.024 47.96 17.816C48.1893 17.6027 48.3627 17.3493 48.48 17.056C48.5973 16.7627 48.656 16.44 48.656 16.088C48.656 15.3573 48.4293 14.7867 47.976 14.376C47.528 13.9653 46.848 13.76 45.936 13.76H44.096V18.48ZM57.495 24H56.863C56.7243 24 56.6123 23.9787 56.527 23.936C56.4417 23.8933 56.3857 23.8027 56.359 23.664L56.199 22.912C55.9857 23.104 55.7777 23.2773 55.575 23.432C55.3723 23.5813 55.159 23.7093 54.935 23.816C54.711 23.9173 54.471 23.9947 54.215 24.048C53.9643 24.1013 53.6843 24.128 53.375 24.128C53.0603 24.128 52.7643 24.0853 52.487 24C52.215 23.9093 51.9777 23.776 51.775 23.6C51.5723 23.424 51.4097 23.2027 51.287 22.936C51.1697 22.664 51.111 22.344 51.111 21.976C51.111 21.656 51.199 21.3493 51.375 21.056C51.551 20.7573 51.8337 20.4933 52.223 20.264C52.6177 20.0347 53.1323 19.848 53.767 19.704C54.4017 19.5547 55.1777 19.4693 56.095 19.448V18.816C56.095 18.1867 55.959 17.712 55.687 17.392C55.4203 17.0667 55.023 16.904 54.495 16.904C54.1483 16.904 53.855 16.9493 53.615 17.04C53.3803 17.1253 53.175 17.224 52.999 17.336C52.8283 17.4427 52.679 17.5413 52.551 17.632C52.4283 17.7173 52.3057 17.76 52.183 17.76C52.087 17.76 52.0017 17.736 51.927 17.688C51.8577 17.6347 51.8017 17.5707 51.759 17.496L51.503 17.04C51.951 16.608 52.4337 16.2853 52.951 16.072C53.4683 15.8587 54.0417 15.752 54.671 15.752C55.1243 15.752 55.527 15.8267 55.879 15.976C56.231 16.1253 56.527 16.3333 56.767 16.6C57.007 16.8667 57.1883 17.1893 57.311 17.568C57.4337 17.9467 57.495 18.3627 57.495 18.816V24ZM53.799 23.128C54.0497 23.128 54.279 23.104 54.487 23.056C54.695 23.0027 54.8897 22.9307 55.071 22.84C55.2577 22.744 55.4337 22.6293 55.599 22.496C55.7697 22.3627 55.935 22.2107 56.095 22.04V20.352C55.439 20.3733 54.8817 20.4267 54.423 20.512C53.9643 20.592 53.591 20.6987 53.303 20.832C53.015 20.9653 52.8043 21.1227 52.671 21.304C52.543 21.4853 52.479 21.688 52.479 21.912C52.479 22.1253 52.5137 22.3093 52.583 22.464C52.6523 22.6187 52.7457 22.7467 52.863 22.848C52.9803 22.944 53.119 23.016 53.279 23.064C53.439 23.1067 53.6123 23.128 53.799 23.128ZM62.1084 24.128C61.4684 24.128 60.975 23.9493 60.6284 23.592C60.287 23.2347 60.1164 22.72 60.1164 22.048V17.088H59.1404C59.055 17.088 58.983 17.064 58.9244 17.016C58.8657 16.9627 58.8364 16.8827 58.8364 16.776V16.208L60.1644 16.04L60.4924 13.536C60.503 13.456 60.5377 13.392 60.5964 13.344C60.655 13.2907 60.7297 13.264 60.8204 13.264H61.5404V16.056H63.8604V17.088H61.5404V21.952C61.5404 22.2933 61.623 22.5467 61.7884 22.712C61.9537 22.8773 62.167 22.96 62.4284 22.96C62.5777 22.96 62.7057 22.9413 62.8124 22.904C62.9244 22.8613 63.0204 22.816 63.1004 22.768C63.1804 22.72 63.247 22.6773 63.3004 22.64C63.359 22.5973 63.4097 22.576 63.4524 22.576C63.527 22.576 63.5937 22.6213 63.6524 22.712L64.0684 23.392C63.823 23.6213 63.527 23.8027 63.1804 23.936C62.8337 24.064 62.4764 24.128 62.1084 24.128ZM67.2051 15.896V24H65.7811V15.896H67.2051ZM67.5251 13.352C67.5251 13.4907 67.4958 13.6213 67.4371 13.744C67.3838 13.8613 67.3091 13.968 67.2131 14.064C67.1225 14.1547 67.0158 14.2267 66.8931 14.28C66.7705 14.3333 66.6398 14.36 66.5011 14.36C66.3625 14.36 66.2318 14.3333 66.1091 14.28C65.9918 14.2267 65.8851 14.1547 65.7891 14.064C65.6985 13.968 65.6265 13.8613 65.5731 13.744C65.5198 13.6213 65.4931 13.4907 65.4931 13.352C65.4931 13.2133 65.5198 13.0827 65.5731 12.96C65.6265 12.832 65.6985 12.7227 65.7891 12.632C65.8851 12.536 65.9918 12.4613 66.1091 12.408C66.2318 12.3547 66.3625 12.328 66.5011 12.328C66.6398 12.328 66.7705 12.3547 66.8931 12.408C67.0158 12.4613 67.1225 12.536 67.2131 12.632C67.3091 12.7227 67.3838 12.832 67.4371 12.96C67.4958 13.0827 67.5251 13.2133 67.5251 13.352ZM72.9229 15.768C73.4082 15.768 73.8562 15.8507 74.2669 16.016C74.6775 16.176 75.0322 16.4107 75.3309 16.72C75.6295 17.024 75.8615 17.4027 76.0269 17.856C76.1975 18.304 76.2829 18.816 76.2829 19.392C76.2829 19.616 76.2589 19.7653 76.2109 19.84C76.1629 19.9147 76.0722 19.952 75.9389 19.952H70.5469C70.5575 20.464 70.6269 20.9093 70.7549 21.288C70.8829 21.6667 71.0589 21.984 71.2829 22.24C71.5069 22.4907 71.7735 22.68 72.0829 22.808C72.3922 22.9307 72.7389 22.992 73.1229 22.992C73.4802 22.992 73.7869 22.952 74.0429 22.872C74.3042 22.7867 74.5282 22.696 74.7149 22.6C74.9015 22.504 75.0562 22.416 75.1789 22.336C75.3069 22.2507 75.4162 22.208 75.5069 22.208C75.6242 22.208 75.7149 22.2533 75.7789 22.344L76.1789 22.864C76.0029 23.0773 75.7922 23.264 75.5469 23.424C75.3015 23.5787 75.0375 23.7067 74.7549 23.808C74.4775 23.9093 74.1895 23.984 73.8909 24.032C73.5922 24.0853 73.2962 24.112 73.0029 24.112C72.4429 24.112 71.9255 24.0187 71.4509 23.832C70.9815 23.64 70.5735 23.3627 70.2269 23C69.8855 22.632 69.6189 22.1787 69.4269 21.64C69.2349 21.1013 69.1389 20.4827 69.1389 19.784C69.1389 19.2187 69.2242 18.6907 69.3949 18.2C69.5709 17.7093 69.8215 17.2853 70.1469 16.928C70.4722 16.5653 70.8695 16.2827 71.3389 16.08C71.8082 15.872 72.3362 15.768 72.9229 15.768ZM72.9549 16.816C72.2669 16.816 71.7255 17.016 71.3309 17.416C70.9362 17.8107 70.6909 18.36 70.5949 19.064H75.0029C75.0029 18.7333 74.9575 18.432 74.8669 18.16C74.7762 17.8827 74.6429 17.6453 74.4669 17.448C74.2909 17.2453 74.0749 17.0907 73.8189 16.984C73.5682 16.872 73.2802 16.816 72.9549 16.816ZM78.1055 24V15.896H78.9535C79.1562 15.896 79.2842 15.9947 79.3375 16.192L79.4495 17.072C79.8015 16.6827 80.1935 16.368 80.6255 16.128C81.0628 15.888 81.5668 15.768 82.1375 15.768C82.5802 15.768 82.9695 15.8427 83.3055 15.992C83.6468 16.136 83.9295 16.344 84.1535 16.616C84.3828 16.8827 84.5562 17.2053 84.6735 17.584C84.7908 17.9627 84.8495 18.3813 84.8495 18.84V24H83.4255V18.84C83.4255 18.2267 83.2842 17.752 83.0015 17.416C82.7242 17.0747 82.2975 16.904 81.7215 16.904C81.3002 16.904 80.9055 17.0053 80.5375 17.208C80.1748 17.4107 79.8388 17.6853 79.5295 18.032V24H78.1055ZM89.4521 24.128C88.8121 24.128 88.3188 23.9493 87.9721 23.592C87.6308 23.2347 87.4601 22.72 87.4601 22.048V17.088H86.4841C86.3988 17.088 86.3268 17.064 86.2681 17.016C86.2095 16.9627 86.1801 16.8827 86.1801 16.776V16.208L87.5081 16.04L87.8361 13.536C87.8468 13.456 87.8815 13.392 87.9401 13.344C87.9988 13.2907 88.0735 13.264 88.1641 13.264H88.8841V16.056H91.2041V17.088H88.8841V21.952C88.8841 22.2933 88.9668 22.5467 89.1321 22.712C89.2975 22.8773 89.5108 22.96 89.7721 22.96C89.9215 22.96 90.0495 22.9413 90.1561 22.904C90.2681 22.8613 90.3641 22.816 90.4441 22.768C90.5241 22.72 90.5908 22.6773 90.6441 22.64C90.7028 22.5973 90.7535 22.576 90.7961 22.576C90.8708 22.576 90.9375 22.6213 90.9961 22.712L91.4121 23.392C91.1668 23.6213 90.8708 23.8027 90.5241 23.936C90.1775 24.064 89.8201 24.128 89.4521 24.128Z" fill="white"/>
<path fill-rule="evenodd" clip-rule="evenodd" d="M24 20V27H26V20H33V18L26 18V11H24V18L17 18V20H24Z" fill="white"/>
</svg>
