<svg width="402" height="83" viewBox="0 0 402 83" fill="none" xmlns="http://www.w3.org/2000/svg">
<path d="M0.5 0.5H401.5V62C401.5 73.3218 392.322 82.5 381 82.5H21C9.67817 82.5 0.5 73.3218 0.5 62V0.5Z" fill="white" stroke="#EAEAEA"/>
<path d="M191.905 38.328C191.857 38.408 191.806 38.4693 191.753 38.512C191.699 38.5493 191.63 38.568 191.545 38.568C191.454 38.568 191.347 38.5227 191.225 38.432C191.107 38.3413 190.955 38.2427 190.769 38.136C190.587 38.024 190.366 37.9227 190.105 37.832C189.849 37.7413 189.537 37.696 189.169 37.696C188.822 37.696 188.515 37.744 188.249 37.84C187.982 37.9307 187.758 38.056 187.577 38.216C187.401 38.376 187.267 38.5653 187.177 38.784C187.086 38.9973 187.041 39.2293 187.041 39.48C187.041 39.8 187.118 40.0667 187.273 40.28C187.433 40.488 187.641 40.6667 187.897 40.816C188.158 40.9653 188.451 41.096 188.777 41.208C189.107 41.3147 189.443 41.4267 189.785 41.544C190.131 41.6613 190.467 41.7947 190.793 41.944C191.123 42.088 191.417 42.272 191.673 42.496C191.934 42.72 192.142 42.9947 192.297 43.32C192.457 43.6453 192.537 44.0453 192.537 44.52C192.537 45.0213 192.451 45.4933 192.281 45.936C192.11 46.3733 191.859 46.7547 191.529 47.08C191.203 47.4053 190.801 47.6613 190.321 47.848C189.846 48.0347 189.305 48.128 188.697 48.128C187.955 48.128 187.278 47.9947 186.665 47.728C186.057 47.456 185.537 47.0907 185.105 46.632L185.553 45.896C185.595 45.8373 185.646 45.7893 185.705 45.752C185.769 45.7093 185.838 45.688 185.913 45.688C186.025 45.688 186.153 45.7493 186.297 45.872C186.441 45.9893 186.619 46.12 186.833 46.264C187.051 46.408 187.313 46.5413 187.617 46.664C187.926 46.7813 188.302 46.84 188.745 46.84C189.113 46.84 189.441 46.7893 189.729 46.688C190.017 46.5867 190.259 46.4453 190.457 46.264C190.659 46.0773 190.814 45.856 190.921 45.6C191.027 45.344 191.081 45.0587 191.081 44.744C191.081 44.3973 191.001 44.1147 190.841 43.896C190.686 43.672 190.481 43.4853 190.225 43.336C189.969 43.1867 189.675 43.0613 189.345 42.96C189.019 42.8533 188.683 42.7467 188.337 42.64C187.995 42.528 187.659 42.4 187.329 42.256C187.003 42.112 186.713 41.9253 186.457 41.696C186.201 41.4667 185.993 41.1813 185.833 40.84C185.678 40.4933 185.601 40.0667 185.601 39.56C185.601 39.1547 185.678 38.7627 185.833 38.384C185.993 38.0053 186.222 37.6693 186.521 37.376C186.819 37.0827 187.187 36.848 187.625 36.672C188.067 36.496 188.574 36.408 189.145 36.408C189.785 36.408 190.369 36.5093 190.897 36.712C191.425 36.9147 191.886 37.208 192.281 37.592L191.905 38.328ZM200.245 48H199.613C199.474 48 199.362 47.9787 199.277 47.936C199.192 47.8933 199.136 47.8027 199.109 47.664L198.949 46.912C198.736 47.104 198.528 47.2773 198.325 47.432C198.122 47.5813 197.909 47.7093 197.685 47.816C197.461 47.9173 197.221 47.9947 196.965 48.048C196.714 48.1013 196.434 48.128 196.125 48.128C195.81 48.128 195.514 48.0853 195.237 48C194.965 47.9093 194.728 47.776 194.525 47.6C194.322 47.424 194.16 47.2027 194.037 46.936C193.92 46.664 193.861 46.344 193.861 45.976C193.861 45.656 193.949 45.3493 194.125 45.056C194.301 44.7573 194.584 44.4933 194.973 44.264C195.368 44.0347 195.882 43.848 196.517 43.704C197.152 43.5547 197.928 43.4693 198.845 43.448V42.816C198.845 42.1867 198.709 41.712 198.437 41.392C198.17 41.0667 197.773 40.904 197.245 40.904C196.898 40.904 196.605 40.9493 196.365 41.04C196.13 41.1253 195.925 41.224 195.749 41.336C195.578 41.4427 195.429 41.5413 195.301 41.632C195.178 41.7173 195.056 41.76 194.933 41.76C194.837 41.76 194.752 41.736 194.677 41.688C194.608 41.6347 194.552 41.5707 194.509 41.496L194.253 41.04C194.701 40.608 195.184 40.2853 195.701 40.072C196.218 39.8587 196.792 39.752 197.421 39.752C197.874 39.752 198.277 39.8267 198.629 39.976C198.981 40.1253 199.277 40.3333 199.517 40.6C199.757 40.8667 199.938 41.1893 200.061 41.568C200.184 41.9467 200.245 42.3627 200.245 42.816V48ZM196.549 47.128C196.8 47.128 197.029 47.104 197.237 47.056C197.445 47.0027 197.64 46.9307 197.821 46.84C198.008 46.744 198.184 46.6293 198.349 46.496C198.52 46.3627 198.685 46.2107 198.845 46.04V44.352C198.189 44.3733 197.632 44.4267 197.173 44.512C196.714 44.592 196.341 44.6987 196.053 44.832C195.765 44.9653 195.554 45.1227 195.421 45.304C195.293 45.4853 195.229 45.688 195.229 45.912C195.229 46.1253 195.264 46.3093 195.333 46.464C195.402 46.6187 195.496 46.7467 195.613 46.848C195.73 46.944 195.869 47.016 196.029 47.064C196.189 47.1067 196.362 47.128 196.549 47.128ZM201.128 39.896H202.296C202.408 39.896 202.502 39.9253 202.576 39.984C202.651 40.0427 202.704 40.112 202.736 40.192L204.792 45.408C204.867 45.6 204.926 45.792 204.968 45.984C205.011 46.176 205.051 46.3653 205.088 46.552C205.131 46.3653 205.176 46.176 205.224 45.984C205.272 45.792 205.334 45.6 205.408 45.408L207.488 40.192C207.52 40.1067 207.571 40.0373 207.64 39.984C207.715 39.9253 207.806 39.896 207.912 39.896H209.024L205.72 48H204.432L201.128 39.896ZM213.345 39.768C213.83 39.768 214.278 39.8507 214.689 40.016C215.099 40.176 215.454 40.4107 215.753 40.72C216.051 41.024 216.283 41.4027 216.449 41.856C216.619 42.304 216.705 42.816 216.705 43.392C216.705 43.616 216.681 43.7653 216.633 43.84C216.585 43.9147 216.494 43.952 216.361 43.952H210.969C210.979 44.464 211.049 44.9093 211.177 45.288C211.305 45.6667 211.481 45.984 211.705 46.24C211.929 46.4907 212.195 46.68 212.505 46.808C212.814 46.9307 213.161 46.992 213.545 46.992C213.902 46.992 214.209 46.952 214.465 46.872C214.726 46.7867 214.95 46.696 215.137 46.6C215.323 46.504 215.478 46.416 215.601 46.336C215.729 46.2507 215.838 46.208 215.929 46.208C216.046 46.208 216.137 46.2533 216.201 46.344L216.601 46.864C216.425 47.0773 216.214 47.264 215.969 47.424C215.723 47.5787 215.459 47.7067 215.177 47.808C214.899 47.9093 214.611 47.984 214.313 48.032C214.014 48.0853 213.718 48.112 213.425 48.112C212.865 48.112 212.347 48.0187 211.873 47.832C211.403 47.64 210.995 47.3627 210.649 47C210.307 46.632 210.041 46.1787 209.849 45.64C209.657 45.1013 209.561 44.4827 209.561 43.784C209.561 43.2187 209.646 42.6907 209.817 42.2C209.993 41.7093 210.243 41.2853 210.569 40.928C210.894 40.5653 211.291 40.2827 211.761 40.08C212.23 39.872 212.758 39.768 213.345 39.768ZM213.377 40.816C212.689 40.816 212.147 41.016 211.753 41.416C211.358 41.8107 211.113 42.36 211.017 43.064H215.425C215.425 42.7333 215.379 42.432 215.289 42.16C215.198 41.8827 215.065 41.6453 214.889 41.448C214.713 41.2453 214.497 41.0907 214.241 40.984C213.99 40.872 213.702 40.816 213.377 40.816Z" fill="#0064D1"/>
</svg>
