<svg width="402" height="83" viewBox="0 0 402 83" fill="none" xmlns="http://www.w3.org/2000/svg">
<path d="M0.5 0.5H401.5V62C401.5 73.3218 392.322 82.5 381 82.5H21C9.67817 82.5 0.5 73.3218 0.5 62V0.5Z" fill="white" stroke="#EAEAEA"/>
<path d="M182.436 29.328C182.388 29.408 182.337 29.4693 182.284 29.512C182.231 29.5493 182.161 29.568 182.076 29.568C181.985 29.568 181.879 29.5227 181.756 29.432C181.639 29.3413 181.487 29.2427 181.3 29.136C181.119 29.024 180.897 28.9227 180.636 28.832C180.38 28.7413 180.068 28.696 179.7 28.696C179.353 28.696 179.047 28.744 178.78 28.84C178.513 28.9307 178.289 29.056 178.108 29.216C177.932 29.376 177.799 29.5653 177.708 29.784C177.617 29.9973 177.572 30.2293 177.572 30.48C177.572 30.8 177.649 31.0667 177.804 31.28C177.964 31.488 178.172 31.6667 178.428 31.816C178.689 31.9653 178.983 32.096 179.308 32.208C179.639 32.3147 179.975 32.4267 180.316 32.544C180.663 32.6613 180.999 32.7947 181.324 32.944C181.655 33.088 181.948 33.272 182.204 33.496C182.465 33.72 182.673 33.9947 182.828 34.32C182.988 34.6453 183.068 35.0453 183.068 35.52C183.068 36.0213 182.983 36.4933 182.812 36.936C182.641 37.3733 182.391 37.7547 182.06 38.08C181.735 38.4053 181.332 38.6613 180.852 38.848C180.377 39.0347 179.836 39.128 179.228 39.128C178.487 39.128 177.809 38.9947 177.196 38.728C176.588 38.456 176.068 38.0907 175.636 37.632L176.084 36.896C176.127 36.8373 176.177 36.7893 176.236 36.752C176.3 36.7093 176.369 36.688 176.444 36.688C176.556 36.688 176.684 36.7493 176.828 36.872C176.972 36.9893 177.151 37.12 177.364 37.264C177.583 37.408 177.844 37.5413 178.148 37.664C178.457 37.7813 178.833 37.84 179.276 37.84C179.644 37.84 179.972 37.7893 180.26 37.688C180.548 37.5867 180.791 37.4453 180.988 37.264C181.191 37.0773 181.345 36.856 181.452 36.6C181.559 36.344 181.612 36.0587 181.612 35.744C181.612 35.3973 181.532 35.1147 181.372 34.896C181.217 34.672 181.012 34.4853 180.756 34.336C180.5 34.1867 180.207 34.0613 179.876 33.96C179.551 33.8533 179.215 33.7467 178.868 33.64C178.527 33.528 178.191 33.4 177.86 33.256C177.535 33.112 177.244 32.9253 176.988 32.696C176.732 32.4667 176.524 32.1813 176.364 31.84C176.209 31.4933 176.132 31.0667 176.132 30.56C176.132 30.1547 176.209 29.7627 176.364 29.384C176.524 29.0053 176.753 28.6693 177.052 28.376C177.351 28.0827 177.719 27.848 178.156 27.672C178.599 27.496 179.105 27.408 179.676 27.408C180.316 27.408 180.9 27.5093 181.428 27.712C181.956 27.9147 182.417 28.208 182.812 28.592L182.436 29.328ZM188.032 30.768C188.518 30.768 188.966 30.8507 189.376 31.016C189.787 31.176 190.142 31.4107 190.44 31.72C190.739 32.024 190.971 32.4027 191.136 32.856C191.307 33.304 191.392 33.816 191.392 34.392C191.392 34.616 191.368 34.7653 191.32 34.84C191.272 34.9147 191.182 34.952 191.048 34.952H185.656C185.667 35.464 185.736 35.9093 185.864 36.288C185.992 36.6667 186.168 36.984 186.392 37.24C186.616 37.4907 186.883 37.68 187.192 37.808C187.502 37.9307 187.848 37.992 188.232 37.992C188.59 37.992 188.896 37.952 189.152 37.872C189.414 37.7867 189.638 37.696 189.824 37.6C190.011 37.504 190.166 37.416 190.288 37.336C190.416 37.2507 190.526 37.208 190.616 37.208C190.734 37.208 190.824 37.2533 190.888 37.344L191.288 37.864C191.112 38.0773 190.902 38.264 190.656 38.424C190.411 38.5787 190.147 38.7067 189.864 38.808C189.587 38.9093 189.299 38.984 189 39.032C188.702 39.0853 188.406 39.112 188.112 39.112C187.552 39.112 187.035 39.0187 186.56 38.832C186.091 38.64 185.683 38.3627 185.336 38C184.995 37.632 184.728 37.1787 184.536 36.64C184.344 36.1013 184.248 35.4827 184.248 34.784C184.248 34.2187 184.334 33.6907 184.504 33.2C184.68 32.7093 184.931 32.2853 185.256 31.928C185.582 31.5653 185.979 31.2827 186.448 31.08C186.918 30.872 187.446 30.768 188.032 30.768ZM188.064 31.816C187.376 31.816 186.835 32.016 186.44 32.416C186.046 32.8107 185.8 33.36 185.704 34.064H190.112C190.112 33.7333 190.067 33.432 189.976 33.16C189.886 32.8827 189.752 32.6453 189.576 32.448C189.4 32.2453 189.184 32.0907 188.928 31.984C188.678 31.872 188.39 31.816 188.064 31.816ZM193.215 39V30.896H194.063C194.266 30.896 194.394 30.9947 194.447 31.192L194.559 32.072C194.911 31.6827 195.303 31.368 195.735 31.128C196.172 30.888 196.676 30.768 197.247 30.768C197.69 30.768 198.079 30.8427 198.415 30.992C198.756 31.136 199.039 31.344 199.263 31.616C199.492 31.8827 199.666 32.2053 199.783 32.584C199.9 32.9627 199.959 33.3813 199.959 33.84V39H198.535V33.84C198.535 33.2267 198.394 32.752 198.111 32.416C197.834 32.0747 197.407 31.904 196.831 31.904C196.41 31.904 196.015 32.0053 195.647 32.208C195.284 32.4107 194.948 32.6853 194.639 33.032V39H193.215ZM207.81 39C207.607 39 207.479 38.9013 207.426 38.704L207.298 37.72C206.951 38.1413 206.554 38.48 206.106 38.736C205.663 38.9867 205.154 39.112 204.578 39.112C204.114 39.112 203.692 39.024 203.314 38.848C202.935 38.6667 202.612 38.4027 202.346 38.056C202.079 37.7093 201.874 37.2773 201.73 36.76C201.586 36.2427 201.514 35.648 201.514 34.976C201.514 34.3787 201.594 33.824 201.754 33.312C201.914 32.7947 202.143 32.3467 202.442 31.968C202.746 31.5893 203.114 31.2933 203.546 31.08C203.978 30.8613 204.468 30.752 205.018 30.752C205.514 30.752 205.938 30.8373 206.29 31.008C206.642 31.1733 206.956 31.408 207.234 31.712V27.216H208.658V39H207.81ZM205.049 37.96C205.514 37.96 205.919 37.8533 206.266 37.64C206.618 37.4267 206.94 37.1253 207.234 36.736V32.816C206.972 32.464 206.684 32.2187 206.37 32.08C206.06 31.936 205.716 31.864 205.338 31.864C204.58 31.864 203.999 32.1333 203.594 32.672C203.188 33.2107 202.986 33.9787 202.986 34.976C202.986 35.504 203.031 35.9573 203.122 36.336C203.212 36.7093 203.346 37.0187 203.522 37.264C203.698 37.504 203.914 37.68 204.17 37.792C204.426 37.904 204.719 37.96 205.049 37.96ZM216.593 39.128C215.953 39.128 215.459 38.9493 215.113 38.592C214.771 38.2347 214.601 37.72 214.601 37.048V32.088H213.625C213.539 32.088 213.467 32.064 213.409 32.016C213.35 31.9627 213.321 31.8827 213.321 31.776V31.208L214.649 31.04L214.977 28.536C214.987 28.456 215.022 28.392 215.081 28.344C215.139 28.2907 215.214 28.264 215.305 28.264H216.025V31.056H218.345V32.088H216.025V36.952C216.025 37.2933 216.107 37.5467 216.273 37.712C216.438 37.8773 216.651 37.96 216.913 37.96C217.062 37.96 217.19 37.9413 217.297 37.904C217.409 37.8613 217.505 37.816 217.585 37.768C217.665 37.72 217.731 37.6773 217.785 37.64C217.843 37.5973 217.894 37.576 217.937 37.576C218.011 37.576 218.078 37.6213 218.137 37.712L218.553 38.392C218.307 38.6213 218.011 38.8027 217.665 38.936C217.318 39.064 216.961 39.128 216.593 39.128ZM223.386 30.768C223.978 30.768 224.511 30.8667 224.986 31.064C225.466 31.2613 225.871 31.5413 226.202 31.904C226.538 32.2667 226.794 32.7067 226.97 33.224C227.151 33.736 227.242 34.3093 227.242 34.944C227.242 35.584 227.151 36.16 226.97 36.672C226.794 37.184 226.538 37.6213 226.202 37.984C225.871 38.3467 225.466 38.6267 224.986 38.824C224.511 39.016 223.978 39.112 223.386 39.112C222.794 39.112 222.258 39.016 221.778 38.824C221.303 38.6267 220.898 38.3467 220.562 37.984C220.226 37.6213 219.967 37.184 219.786 36.672C219.604 36.16 219.514 35.584 219.514 34.944C219.514 34.3093 219.604 33.736 219.786 33.224C219.967 32.7067 220.226 32.2667 220.562 31.904C220.898 31.5413 221.303 31.2613 221.778 31.064C222.258 30.8667 222.794 30.768 223.386 30.768ZM223.386 38C224.186 38 224.783 37.7333 225.178 37.2C225.572 36.6613 225.77 35.912 225.77 34.952C225.77 33.9867 225.572 33.2347 225.178 32.696C224.783 32.1573 224.186 31.888 223.386 31.888C222.98 31.888 222.628 31.9573 222.33 32.096C222.031 32.2347 221.78 32.4347 221.578 32.696C221.38 32.9573 221.231 33.28 221.13 33.664C221.034 34.0427 220.986 34.472 220.986 34.952C220.986 35.432 221.034 35.8613 221.13 36.24C221.231 36.6187 221.38 36.9387 221.578 37.2C221.78 37.456 222.031 37.6533 222.33 37.792C222.628 37.9307 222.98 38 223.386 38ZM181.91 58V51.112L181.014 51.008C180.902 50.9813 180.809 50.9413 180.734 50.888C180.665 50.8293 180.63 50.7467 180.63 50.64V50.056H181.91V49.272C181.91 48.808 181.974 48.3973 182.102 48.04C182.235 47.6773 182.422 47.3733 182.662 47.128C182.907 46.8773 183.201 46.688 183.542 46.56C183.883 46.432 184.267 46.368 184.694 46.368C185.057 46.368 185.393 46.4213 185.702 46.528L185.67 47.24C185.665 47.3467 185.619 47.4107 185.534 47.432C185.449 47.4533 185.329 47.464 185.174 47.464H184.926C184.681 47.464 184.457 47.496 184.254 47.56C184.057 47.624 183.886 47.728 183.742 47.872C183.598 48.016 183.486 48.2053 183.406 48.44C183.331 48.6747 183.294 48.9653 183.294 49.312V50.056H185.638V51.088H183.342V58H181.91ZM186.981 58V49.896H187.797C187.951 49.896 188.058 49.9253 188.117 49.984C188.175 50.0427 188.215 50.144 188.237 50.288L188.333 51.552C188.61 50.9867 188.951 50.5467 189.357 50.232C189.767 49.912 190.247 49.752 190.797 49.752C191.021 49.752 191.223 49.7787 191.405 49.832C191.586 49.88 191.754 49.9493 191.909 50.04L191.725 51.104C191.687 51.2373 191.605 51.304 191.477 51.304C191.402 51.304 191.287 51.28 191.133 51.232C190.978 51.1787 190.762 51.152 190.485 51.152C189.989 51.152 189.573 51.296 189.237 51.584C188.906 51.872 188.629 52.2907 188.405 52.84V58H186.981ZM195.018 49.896V58H193.594V49.896H195.018ZM195.338 47.352C195.338 47.4907 195.308 47.6213 195.25 47.744C195.196 47.8613 195.122 47.968 195.026 48.064C194.935 48.1547 194.828 48.2267 194.706 48.28C194.583 48.3333 194.452 48.36 194.314 48.36C194.175 48.36 194.044 48.3333 193.922 48.28C193.804 48.2267 193.698 48.1547 193.602 48.064C193.511 47.968 193.439 47.8613 193.386 47.744C193.332 47.6213 193.306 47.4907 193.306 47.352C193.306 47.2133 193.332 47.0827 193.386 46.96C193.439 46.832 193.511 46.7227 193.602 46.632C193.698 46.536 193.804 46.4613 193.922 46.408C194.044 46.3547 194.175 46.328 194.314 46.328C194.452 46.328 194.583 46.3547 194.706 46.408C194.828 46.4613 194.935 46.536 195.026 46.632C195.122 46.7227 195.196 46.832 195.25 46.96C195.308 47.0827 195.338 47.2133 195.338 47.352ZM200.735 49.768C201.221 49.768 201.669 49.8507 202.079 50.016C202.49 50.176 202.845 50.4107 203.143 50.72C203.442 51.024 203.674 51.4027 203.839 51.856C204.01 52.304 204.095 52.816 204.095 53.392C204.095 53.616 204.071 53.7653 204.023 53.84C203.975 53.9147 203.885 53.952 203.751 53.952H198.359C198.37 54.464 198.439 54.9093 198.567 55.288C198.695 55.6667 198.871 55.984 199.095 56.24C199.319 56.4907 199.586 56.68 199.895 56.808C200.205 56.9307 200.551 56.992 200.935 56.992C201.293 56.992 201.599 56.952 201.855 56.872C202.117 56.7867 202.341 56.696 202.527 56.6C202.714 56.504 202.869 56.416 202.991 56.336C203.119 56.2507 203.229 56.208 203.319 56.208C203.437 56.208 203.527 56.2533 203.591 56.344L203.991 56.864C203.815 57.0773 203.605 57.264 203.359 57.424C203.114 57.5787 202.85 57.7067 202.567 57.808C202.29 57.9093 202.002 57.984 201.703 58.032C201.405 58.0853 201.109 58.112 200.815 58.112C200.255 58.112 199.738 58.0187 199.263 57.832C198.794 57.64 198.386 57.3627 198.039 57C197.698 56.632 197.431 56.1787 197.239 55.64C197.047 55.1013 196.951 54.4827 196.951 53.784C196.951 53.2187 197.037 52.6907 197.207 52.2C197.383 51.7093 197.634 51.2853 197.959 50.928C198.285 50.5653 198.682 50.2827 199.151 50.08C199.621 49.872 200.149 49.768 200.735 49.768ZM200.767 50.816C200.079 50.816 199.538 51.016 199.143 51.416C198.749 51.8107 198.503 52.36 198.407 53.064H202.815C202.815 52.7333 202.77 52.432 202.679 52.16C202.589 51.8827 202.455 51.6453 202.279 51.448C202.103 51.2453 201.887 51.0907 201.631 50.984C201.381 50.872 201.093 50.816 200.767 50.816ZM205.918 58V49.896H206.766C206.969 49.896 207.097 49.9947 207.15 50.192L207.262 51.072C207.614 50.6827 208.006 50.368 208.438 50.128C208.875 49.888 209.379 49.768 209.95 49.768C210.393 49.768 210.782 49.8427 211.118 49.992C211.459 50.136 211.742 50.344 211.966 50.616C212.195 50.8827 212.369 51.2053 212.486 51.584C212.603 51.9627 212.662 52.3813 212.662 52.84V58H211.238V52.84C211.238 52.2267 211.097 51.752 210.814 51.416C210.537 51.0747 210.11 50.904 209.534 50.904C209.113 50.904 208.718 51.0053 208.35 51.208C207.987 51.4107 207.651 51.6853 207.342 52.032V58H205.918ZM220.513 58C220.31 58 220.182 57.9013 220.129 57.704L220.001 56.72C219.654 57.1413 219.257 57.48 218.809 57.736C218.366 57.9867 217.857 58.112 217.281 58.112C216.817 58.112 216.395 58.024 216.017 57.848C215.638 57.6667 215.315 57.4027 215.049 57.056C214.782 56.7093 214.577 56.2773 214.433 55.76C214.289 55.2427 214.217 54.648 214.217 53.976C214.217 53.3787 214.297 52.824 214.457 52.312C214.617 51.7947 214.846 51.3467 215.145 50.968C215.449 50.5893 215.817 50.2933 216.249 50.08C216.681 49.8613 217.171 49.752 217.721 49.752C218.217 49.752 218.641 49.8373 218.993 50.008C219.345 50.1733 219.659 50.408 219.937 50.712V46.216H221.361V58H220.513ZM217.753 56.96C218.217 56.96 218.622 56.8533 218.969 56.64C219.321 56.4267 219.643 56.1253 219.937 55.736V51.816C219.675 51.464 219.387 51.2187 219.073 51.08C218.763 50.936 218.419 50.864 218.041 50.864C217.283 50.864 216.702 51.1333 216.297 51.672C215.891 52.2107 215.689 52.9787 215.689 53.976C215.689 54.504 215.734 54.9573 215.825 55.336C215.915 55.7093 216.049 56.0187 216.225 56.264C216.401 56.504 216.617 56.68 216.873 56.792C217.129 56.904 217.422 56.96 217.753 56.96Z" fill="#0064D1"/>
</svg>
