<svg width="16" height="16" viewBox="0 0 16 16" fill="none" xmlns="http://www.w3.org/2000/svg">
<g clip-path="url(#clip0_805_706)">
<path d="M4 0C2.89687 0 2 0.896875 2 2V5H4V2H11.0844L12 2.91563V5H14V2.91563C14 2.38438 13.7906 1.875 13.4156 1.5L12.5 0.584375C12.125 0.209375 11.6156 0 11.0844 0H4ZM12 11V12V14H4V12V11.5V11H12ZM14 12H15C15.5531 12 16 11.5531 16 11V8C16 6.89687 15.1031 6 14 6H2C0.896875 6 0 6.89687 0 8V11C0 11.5531 0.446875 12 1 12H2V14C2 15.1031 2.89687 16 4 16H12C13.1031 16 14 15.1031 14 14V12ZM13.5 7.75C13.6989 7.75 13.8897 7.82902 14.0303 7.96967C14.171 8.11032 14.25 8.30109 14.25 8.5C14.25 8.69891 14.171 8.88968 14.0303 9.03033C13.8897 9.17098 13.6989 9.25 13.5 9.25C13.3011 9.25 13.1103 9.17098 12.9697 9.03033C12.829 8.88968 12.75 8.69891 12.75 8.5C12.75 8.30109 12.829 8.11032 12.9697 7.96967C13.1103 7.82902 13.3011 7.75 13.5 7.75Z" fill="#0064D1"/>
</g>
<defs>
<clipPath id="clip0_805_706">
<rect width="16" height="16" fill="white"/>
</clipPath>
</defs>
</svg>
