<svg width="404" height="83" viewBox="0 0 404 83" fill="none" xmlns="http://www.w3.org/2000/svg">
<path d="M0.5 0.5H403.5V62C403.5 73.3218 394.322 82.5 383 82.5H21C9.67816 82.5 0.5 73.3218 0.5 62V0.5Z" fill="white" stroke="#EAEAEA"/>
<path d="M228.472 45.632C228.557 45.632 228.635 45.6667 228.704 45.736L229.312 46.4C228.843 46.944 228.272 47.368 227.6 47.672C226.933 47.976 226.128 48.128 225.184 48.128C224.357 48.128 223.608 47.9867 222.936 47.704C222.264 47.416 221.691 47.016 221.216 46.504C220.741 45.9867 220.373 45.368 220.112 44.648C219.851 43.928 219.72 43.136 219.72 42.272C219.72 41.408 219.859 40.616 220.136 39.896C220.419 39.176 220.813 38.5573 221.32 38.04C221.827 37.5227 222.432 37.1227 223.136 36.84C223.845 36.552 224.627 36.408 225.48 36.408C226.323 36.408 227.048 36.5387 227.656 36.8C228.269 37.0613 228.813 37.416 229.288 37.864L228.784 38.576C228.747 38.6293 228.704 38.6747 228.656 38.712C228.608 38.744 228.539 38.76 228.448 38.76C228.379 38.76 228.304 38.736 228.224 38.688C228.149 38.6347 228.059 38.5707 227.952 38.496C227.845 38.4213 227.72 38.3413 227.576 38.256C227.432 38.1707 227.261 38.0907 227.064 38.016C226.867 37.9413 226.637 37.88 226.376 37.832C226.115 37.7787 225.813 37.752 225.472 37.752C224.859 37.752 224.296 37.8587 223.784 38.072C223.277 38.28 222.84 38.5787 222.472 38.968C222.104 39.3573 221.816 39.832 221.608 40.392C221.405 40.952 221.304 41.5787 221.304 42.272C221.304 42.9867 221.405 43.624 221.608 44.184C221.816 44.744 222.096 45.2187 222.448 45.608C222.805 45.992 223.227 46.2853 223.712 46.488C224.197 46.6907 224.72 46.792 225.28 46.792C225.621 46.792 225.928 46.7733 226.2 46.736C226.472 46.6933 226.723 46.6293 226.952 46.544C227.187 46.4587 227.403 46.352 227.6 46.224C227.803 46.0907 228.005 45.9333 228.208 45.752C228.299 45.672 228.387 45.632 228.472 45.632ZM237.073 48H236.441C236.302 48 236.19 47.9787 236.105 47.936C236.02 47.8933 235.964 47.8027 235.937 47.664L235.777 46.912C235.564 47.104 235.356 47.2773 235.153 47.432C234.95 47.5813 234.737 47.7093 234.513 47.816C234.289 47.9173 234.049 47.9947 233.793 48.048C233.542 48.1013 233.262 48.128 232.953 48.128C232.638 48.128 232.342 48.0853 232.065 48C231.793 47.9093 231.556 47.776 231.353 47.6C231.15 47.424 230.988 47.2027 230.865 46.936C230.748 46.664 230.689 46.344 230.689 45.976C230.689 45.656 230.777 45.3493 230.953 45.056C231.129 44.7573 231.412 44.4933 231.801 44.264C232.196 44.0347 232.71 43.848 233.345 43.704C233.98 43.5547 234.756 43.4693 235.673 43.448V42.816C235.673 42.1867 235.537 41.712 235.265 41.392C234.998 41.0667 234.601 40.904 234.073 40.904C233.726 40.904 233.433 40.9493 233.193 41.04C232.958 41.1253 232.753 41.224 232.577 41.336C232.406 41.4427 232.257 41.5413 232.129 41.632C232.006 41.7173 231.884 41.76 231.761 41.76C231.665 41.76 231.58 41.736 231.505 41.688C231.436 41.6347 231.38 41.5707 231.337 41.496L231.081 41.04C231.529 40.608 232.012 40.2853 232.529 40.072C233.046 39.8587 233.62 39.752 234.249 39.752C234.702 39.752 235.105 39.8267 235.457 39.976C235.809 40.1253 236.105 40.3333 236.345 40.6C236.585 40.8667 236.766 41.1893 236.889 41.568C237.012 41.9467 237.073 42.3627 237.073 42.816V48ZM233.377 47.128C233.628 47.128 233.857 47.104 234.065 47.056C234.273 47.0027 234.468 46.9307 234.649 46.84C234.836 46.744 235.012 46.6293 235.177 46.496C235.348 46.3627 235.513 46.2107 235.673 46.04V44.352C235.017 44.3733 234.46 44.4267 234.001 44.512C233.542 44.592 233.169 44.6987 232.881 44.832C232.593 44.9653 232.382 45.1227 232.249 45.304C232.121 45.4853 232.057 45.688 232.057 45.912C232.057 46.1253 232.092 46.3093 232.161 46.464C232.23 46.6187 232.324 46.7467 232.441 46.848C232.558 46.944 232.697 47.016 232.857 47.064C233.017 47.1067 233.19 47.128 233.377 47.128ZM239.231 48V39.896H240.079C240.281 39.896 240.409 39.9947 240.463 40.192L240.575 41.072C240.927 40.6827 241.319 40.368 241.751 40.128C242.188 39.888 242.692 39.768 243.263 39.768C243.705 39.768 244.095 39.8427 244.431 39.992C244.772 40.136 245.055 40.344 245.279 40.616C245.508 40.8827 245.681 41.2053 245.799 41.584C245.916 41.9627 245.975 42.3813 245.975 42.84V48H244.551V42.84C244.551 42.2267 244.409 41.752 244.127 41.416C243.849 41.0747 243.423 40.904 242.847 40.904C242.425 40.904 242.031 41.0053 241.663 41.208C241.3 41.4107 240.964 41.6853 240.655 42.032V48H239.231ZM253.649 41.336C253.606 41.3947 253.564 41.44 253.521 41.472C253.478 41.504 253.417 41.52 253.337 41.52C253.257 41.52 253.169 41.488 253.073 41.424C252.982 41.3547 252.865 41.28 252.721 41.2C252.577 41.12 252.401 41.048 252.193 40.984C251.99 40.9147 251.74 40.88 251.441 40.88C251.046 40.88 250.697 40.952 250.393 41.096C250.089 41.2347 249.833 41.4373 249.625 41.704C249.422 41.9707 249.268 42.2933 249.161 42.672C249.06 43.0507 249.009 43.4747 249.009 43.944C249.009 44.4347 249.065 44.872 249.177 45.256C249.289 45.6347 249.446 45.9547 249.649 46.216C249.852 46.472 250.097 46.6693 250.385 46.808C250.678 46.9413 251.006 47.008 251.369 47.008C251.716 47.008 252.001 46.968 252.225 46.888C252.449 46.8027 252.636 46.7093 252.785 46.608C252.934 46.5067 253.057 46.416 253.153 46.336C253.249 46.2507 253.345 46.208 253.441 46.208C253.564 46.208 253.654 46.2533 253.713 46.344L254.113 46.864C253.761 47.296 253.321 47.6133 252.793 47.816C252.265 48.0133 251.708 48.112 251.121 48.112C250.614 48.112 250.142 48.0187 249.705 47.832C249.273 47.6453 248.897 47.376 248.577 47.024C248.257 46.6667 248.004 46.2293 247.817 45.712C247.636 45.1947 247.545 44.6053 247.545 43.944C247.545 43.3413 247.628 42.784 247.793 42.272C247.964 41.76 248.209 41.32 248.529 40.952C248.854 40.5787 249.254 40.288 249.729 40.08C250.204 39.872 250.748 39.768 251.361 39.768C251.926 39.768 252.428 39.8613 252.865 40.048C253.302 40.2293 253.689 40.488 254.025 40.824L253.649 41.336ZM258.798 39.768C259.283 39.768 259.731 39.8507 260.142 40.016C260.553 40.176 260.907 40.4107 261.206 40.72C261.505 41.024 261.737 41.4027 261.902 41.856C262.073 42.304 262.158 42.816 262.158 43.392C262.158 43.616 262.134 43.7653 262.086 43.84C262.038 43.9147 261.947 43.952 261.814 43.952H256.422C256.433 44.464 256.502 44.9093 256.63 45.288C256.758 45.6667 256.934 45.984 257.158 46.24C257.382 46.4907 257.649 46.68 257.958 46.808C258.267 46.9307 258.614 46.992 258.998 46.992C259.355 46.992 259.662 46.952 259.918 46.872C260.179 46.7867 260.403 46.696 260.59 46.6C260.777 46.504 260.931 46.416 261.054 46.336C261.182 46.2507 261.291 46.208 261.382 46.208C261.499 46.208 261.59 46.2533 261.654 46.344L262.054 46.864C261.878 47.0773 261.667 47.264 261.422 47.424C261.177 47.5787 260.913 47.7067 260.63 47.808C260.353 47.9093 260.065 47.984 259.766 48.032C259.467 48.0853 259.171 48.112 258.878 48.112C258.318 48.112 257.801 48.0187 257.326 47.832C256.857 47.64 256.449 47.3627 256.102 47C255.761 46.632 255.494 46.1787 255.302 45.64C255.11 45.1013 255.014 44.4827 255.014 43.784C255.014 43.2187 255.099 42.6907 255.27 42.2C255.446 41.7093 255.697 41.2853 256.022 40.928C256.347 40.5653 256.745 40.2827 257.214 40.08C257.683 39.872 258.211 39.768 258.798 39.768ZM258.83 40.816C258.142 40.816 257.601 41.016 257.206 41.416C256.811 41.8107 256.566 42.36 256.47 43.064H260.878C260.878 42.7333 260.833 42.432 260.742 42.16C260.651 41.8827 260.518 41.6453 260.342 41.448C260.166 41.2453 259.95 41.0907 259.694 40.984C259.443 40.872 259.155 40.816 258.83 40.816ZM265.565 36.216V48H264.141V36.216H265.565Z" fill="#6A6A6A"/>
<rect x="288.5" y="20.5" width="95" height="43" rx="21.5" stroke="#0064D1"/>
<path d="M323.687 42.272C323.687 43.1307 323.551 43.912 323.279 44.616C323.007 45.32 322.623 45.9227 322.127 46.424C321.631 46.9253 321.037 47.3147 320.343 47.592C319.65 47.864 318.882 48 318.039 48H313.751V36.536H318.039C318.882 36.536 319.65 36.6747 320.343 36.952C321.037 37.224 321.631 37.6133 322.127 38.12C322.623 38.6213 323.007 39.224 323.279 39.928C323.551 40.632 323.687 41.4133 323.687 42.272ZM322.095 42.272C322.095 41.568 321.999 40.9387 321.807 40.384C321.615 39.8293 321.343 39.36 320.991 38.976C320.639 38.592 320.213 38.2987 319.711 38.096C319.21 37.8933 318.653 37.792 318.039 37.792H315.311V46.744H318.039C318.653 46.744 319.21 46.6427 319.711 46.44C320.213 46.2373 320.639 45.9467 320.991 45.568C321.343 45.184 321.615 44.7147 321.807 44.16C321.999 43.6053 322.095 42.976 322.095 42.272ZM328.782 39.768C329.268 39.768 329.716 39.8507 330.126 40.016C330.537 40.176 330.892 40.4107 331.19 40.72C331.489 41.024 331.721 41.4027 331.886 41.856C332.057 42.304 332.142 42.816 332.142 43.392C332.142 43.616 332.118 43.7653 332.07 43.84C332.022 43.9147 331.932 43.952 331.798 43.952H326.406C326.417 44.464 326.486 44.9093 326.614 45.288C326.742 45.6667 326.918 45.984 327.142 46.24C327.366 46.4907 327.633 46.68 327.942 46.808C328.252 46.9307 328.598 46.992 328.982 46.992C329.34 46.992 329.646 46.952 329.902 46.872C330.164 46.7867 330.388 46.696 330.574 46.6C330.761 46.504 330.916 46.416 331.038 46.336C331.166 46.2507 331.276 46.208 331.366 46.208C331.484 46.208 331.574 46.2533 331.638 46.344L332.038 46.864C331.862 47.0773 331.652 47.264 331.406 47.424C331.161 47.5787 330.897 47.7067 330.614 47.808C330.337 47.9093 330.049 47.984 329.75 48.032C329.452 48.0853 329.156 48.112 328.862 48.112C328.302 48.112 327.785 48.0187 327.31 47.832C326.841 47.64 326.433 47.3627 326.086 47C325.745 46.632 325.478 46.1787 325.286 45.64C325.094 45.1013 324.998 44.4827 324.998 43.784C324.998 43.2187 325.084 42.6907 325.254 42.2C325.43 41.7093 325.681 41.2853 326.006 40.928C326.332 40.5653 326.729 40.2827 327.198 40.08C327.668 39.872 328.196 39.768 328.782 39.768ZM328.814 40.816C328.126 40.816 327.585 41.016 327.19 41.416C326.796 41.8107 326.55 42.36 326.454 43.064H330.862C330.862 42.7333 330.817 42.432 330.726 42.16C330.636 41.8827 330.502 41.6453 330.326 41.448C330.15 41.2453 329.934 41.0907 329.678 40.984C329.428 40.872 329.14 40.816 328.814 40.816ZM335.549 36.216V48H334.125V36.216H335.549ZM341.267 39.768C341.752 39.768 342.2 39.8507 342.611 40.016C343.021 40.176 343.376 40.4107 343.675 40.72C343.973 41.024 344.205 41.4027 344.371 41.856C344.541 42.304 344.627 42.816 344.627 43.392C344.627 43.616 344.603 43.7653 344.555 43.84C344.507 43.9147 344.416 43.952 344.283 43.952H338.891C338.901 44.464 338.971 44.9093 339.099 45.288C339.227 45.6667 339.403 45.984 339.627 46.24C339.851 46.4907 340.117 46.68 340.427 46.808C340.736 46.9307 341.083 46.992 341.467 46.992C341.824 46.992 342.131 46.952 342.387 46.872C342.648 46.7867 342.872 46.696 343.059 46.6C343.245 46.504 343.4 46.416 343.523 46.336C343.651 46.2507 343.76 46.208 343.851 46.208C343.968 46.208 344.059 46.2533 344.123 46.344L344.523 46.864C344.347 47.0773 344.136 47.264 343.891 47.424C343.645 47.5787 343.381 47.7067 343.099 47.808C342.821 47.9093 342.533 47.984 342.235 48.032C341.936 48.0853 341.64 48.112 341.347 48.112C340.787 48.112 340.269 48.0187 339.795 47.832C339.325 47.64 338.917 47.3627 338.571 47C338.229 46.632 337.963 46.1787 337.771 45.64C337.579 45.1013 337.483 44.4827 337.483 43.784C337.483 43.2187 337.568 42.6907 337.739 42.2C337.915 41.7093 338.165 41.2853 338.491 40.928C338.816 40.5653 339.213 40.2827 339.683 40.08C340.152 39.872 340.68 39.768 341.267 39.768ZM341.299 40.816C340.611 40.816 340.069 41.016 339.675 41.416C339.28 41.8107 339.035 42.36 338.939 43.064H343.347C343.347 42.7333 343.301 42.432 343.211 42.16C343.12 41.8827 342.987 41.6453 342.811 41.448C342.635 41.2453 342.419 41.0907 342.163 40.984C341.912 40.872 341.624 40.816 341.299 40.816ZM348.905 48.128C348.265 48.128 347.772 47.9493 347.425 47.592C347.084 47.2347 346.913 46.72 346.913 46.048V41.088H345.937C345.852 41.088 345.78 41.064 345.721 41.016C345.663 40.9627 345.633 40.8827 345.633 40.776V40.208L346.961 40.04L347.289 37.536C347.3 37.456 347.335 37.392 347.393 37.344C347.452 37.2907 347.527 37.264 347.617 37.264H348.337V40.056H350.657V41.088H348.337V45.952C348.337 46.2933 348.42 46.5467 348.585 46.712C348.751 46.8773 348.964 46.96 349.225 46.96C349.375 46.96 349.503 46.9413 349.609 46.904C349.721 46.8613 349.817 46.816 349.897 46.768C349.977 46.72 350.044 46.6773 350.097 46.64C350.156 46.5973 350.207 46.576 350.249 46.576C350.324 46.576 350.391 46.6213 350.449 46.712L350.865 47.392C350.62 47.6213 350.324 47.8027 349.977 47.936C349.631 48.064 349.273 48.128 348.905 48.128ZM355.626 39.768C356.111 39.768 356.559 39.8507 356.97 40.016C357.381 40.176 357.735 40.4107 358.034 40.72C358.333 41.024 358.565 41.4027 358.73 41.856C358.901 42.304 358.986 42.816 358.986 43.392C358.986 43.616 358.962 43.7653 358.914 43.84C358.866 43.9147 358.775 43.952 358.642 43.952H353.25C353.261 44.464 353.33 44.9093 353.458 45.288C353.586 45.6667 353.762 45.984 353.986 46.24C354.21 46.4907 354.477 46.68 354.786 46.808C355.095 46.9307 355.442 46.992 355.826 46.992C356.183 46.992 356.49 46.952 356.746 46.872C357.007 46.7867 357.231 46.696 357.418 46.6C357.605 46.504 357.759 46.416 357.882 46.336C358.01 46.2507 358.119 46.208 358.21 46.208C358.327 46.208 358.418 46.2533 358.482 46.344L358.882 46.864C358.706 47.0773 358.495 47.264 358.25 47.424C358.005 47.5787 357.741 47.7067 357.458 47.808C357.181 47.9093 356.893 47.984 356.594 48.032C356.295 48.0853 355.999 48.112 355.706 48.112C355.146 48.112 354.629 48.0187 354.154 47.832C353.685 47.64 353.277 47.3627 352.93 47C352.589 46.632 352.322 46.1787 352.13 45.64C351.938 45.1013 351.842 44.4827 351.842 43.784C351.842 43.2187 351.927 42.6907 352.098 42.2C352.274 41.7093 352.525 41.2853 352.85 40.928C353.175 40.5653 353.573 40.2827 354.042 40.08C354.511 39.872 355.039 39.768 355.626 39.768ZM355.658 40.816C354.97 40.816 354.429 41.016 354.034 41.416C353.639 41.8107 353.394 42.36 353.298 43.064H357.706C357.706 42.7333 357.661 42.432 357.57 42.16C357.479 41.8827 357.346 41.6453 357.17 41.448C356.994 41.2453 356.778 41.0907 356.522 40.984C356.271 40.872 355.983 40.816 355.658 40.816Z" fill="#0064D1"/>
</svg>
