<svg width="404" height="147" viewBox="0 0 404 147" fill="none" xmlns="http://www.w3.org/2000/svg">
<path d="M0.5 0.5H403.205V126C403.205 137.322 394.027 146.5 382.705 146.5H21C9.67818 146.5 0.5 137.322 0.5 126V0.5Z" fill="white" stroke="#EAEAEA"/>
<rect x="142" y="15" width="115" height="44" rx="22" fill="#0064D1"/>
<path d="M197.366 33.328C197.318 33.408 197.267 33.4693 197.214 33.512C197.16 33.5493 197.091 33.568 197.006 33.568C196.915 33.568 196.808 33.5227 196.686 33.432C196.568 33.3413 196.416 33.2427 196.23 33.136C196.048 33.024 195.827 32.9227 195.566 32.832C195.31 32.7413 194.998 32.696 194.63 32.696C194.283 32.696 193.976 32.744 193.71 32.84C193.443 32.9307 193.219 33.056 193.038 33.216C192.862 33.376 192.728 33.5653 192.638 33.784C192.547 33.9973 192.502 34.2293 192.502 34.48C192.502 34.8 192.579 35.0667 192.734 35.28C192.894 35.488 193.102 35.6667 193.358 35.816C193.619 35.9653 193.912 36.096 194.238 36.208C194.568 36.3147 194.904 36.4267 195.246 36.544C195.592 36.6613 195.928 36.7947 196.254 36.944C196.584 37.088 196.878 37.272 197.134 37.496C197.395 37.72 197.603 37.9947 197.758 38.32C197.918 38.6453 197.998 39.0453 197.998 39.52C197.998 40.0213 197.912 40.4933 197.742 40.936C197.571 41.3733 197.32 41.7547 196.99 42.08C196.664 42.4053 196.262 42.6613 195.782 42.848C195.307 43.0347 194.766 43.128 194.158 43.128C193.416 43.128 192.739 42.9947 192.126 42.728C191.518 42.456 190.998 42.0907 190.566 41.632L191.014 40.896C191.056 40.8373 191.107 40.7893 191.166 40.752C191.23 40.7093 191.299 40.688 191.374 40.688C191.486 40.688 191.614 40.7493 191.758 40.872C191.902 40.9893 192.08 41.12 192.294 41.264C192.512 41.408 192.774 41.5413 193.078 41.664C193.387 41.7813 193.763 41.84 194.206 41.84C194.574 41.84 194.902 41.7893 195.19 41.688C195.478 41.5867 195.72 41.4453 195.918 41.264C196.12 41.0773 196.275 40.856 196.382 40.6C196.488 40.344 196.542 40.0587 196.542 39.744C196.542 39.3973 196.462 39.1147 196.302 38.896C196.147 38.672 195.942 38.4853 195.686 38.336C195.43 38.1867 195.136 38.0613 194.806 37.96C194.48 37.8533 194.144 37.7467 193.798 37.64C193.456 37.528 193.12 37.4 192.79 37.256C192.464 37.112 192.174 36.9253 191.918 36.696C191.662 36.4667 191.454 36.1813 191.294 35.84C191.139 35.4933 191.062 35.0667 191.062 34.56C191.062 34.1547 191.139 33.7627 191.294 33.384C191.454 33.0053 191.683 32.6693 191.982 32.376C192.28 32.0827 192.648 31.848 193.086 31.672C193.528 31.496 194.035 31.408 194.606 31.408C195.246 31.408 195.83 31.5093 196.358 31.712C196.886 31.9147 197.347 32.208 197.742 32.592L197.366 33.328ZM202.962 34.768C203.447 34.768 203.895 34.8507 204.306 35.016C204.717 35.176 205.071 35.4107 205.37 35.72C205.669 36.024 205.901 36.4027 206.066 36.856C206.237 37.304 206.322 37.816 206.322 38.392C206.322 38.616 206.298 38.7653 206.25 38.84C206.202 38.9147 206.111 38.952 205.978 38.952H200.586C200.597 39.464 200.666 39.9093 200.794 40.288C200.922 40.6667 201.098 40.984 201.322 41.24C201.546 41.4907 201.813 41.68 202.122 41.808C202.431 41.9307 202.778 41.992 203.162 41.992C203.519 41.992 203.826 41.952 204.082 41.872C204.343 41.7867 204.567 41.696 204.754 41.6C204.941 41.504 205.095 41.416 205.218 41.336C205.346 41.2507 205.455 41.208 205.546 41.208C205.663 41.208 205.754 41.2533 205.818 41.344L206.218 41.864C206.042 42.0773 205.831 42.264 205.586 42.424C205.341 42.5787 205.077 42.7067 204.794 42.808C204.517 42.9093 204.229 42.984 203.93 43.032C203.631 43.0853 203.335 43.112 203.042 43.112C202.482 43.112 201.965 43.0187 201.49 42.832C201.021 42.64 200.613 42.3627 200.266 42C199.925 41.632 199.658 41.1787 199.466 40.64C199.274 40.1013 199.178 39.4827 199.178 38.784C199.178 38.2187 199.263 37.6907 199.434 37.2C199.61 36.7093 199.861 36.2853 200.186 35.928C200.511 35.5653 200.909 35.2827 201.378 35.08C201.847 34.872 202.375 34.768 202.962 34.768ZM202.994 35.816C202.306 35.816 201.765 36.016 201.37 36.416C200.975 36.8107 200.73 37.36 200.634 38.064H205.042C205.042 37.7333 204.997 37.432 204.906 37.16C204.815 36.8827 204.682 36.6453 204.506 36.448C204.33 36.2453 204.114 36.0907 203.858 35.984C203.607 35.872 203.319 35.816 202.994 35.816ZM214.097 43H213.465C213.326 43 213.214 42.9787 213.129 42.936C213.043 42.8933 212.987 42.8027 212.961 42.664L212.801 41.912C212.587 42.104 212.379 42.2773 212.177 42.432C211.974 42.5813 211.761 42.7093 211.537 42.816C211.313 42.9173 211.073 42.9947 210.817 43.048C210.566 43.1013 210.286 43.128 209.977 43.128C209.662 43.128 209.366 43.0853 209.089 43C208.817 42.9093 208.579 42.776 208.377 42.6C208.174 42.424 208.011 42.2027 207.889 41.936C207.771 41.664 207.713 41.344 207.713 40.976C207.713 40.656 207.801 40.3493 207.977 40.056C208.153 39.7573 208.435 39.4933 208.825 39.264C209.219 39.0347 209.734 38.848 210.369 38.704C211.003 38.5547 211.779 38.4693 212.697 38.448V37.816C212.697 37.1867 212.561 36.712 212.289 36.392C212.022 36.0667 211.625 35.904 211.097 35.904C210.75 35.904 210.457 35.9493 210.217 36.04C209.982 36.1253 209.777 36.224 209.601 36.336C209.43 36.4427 209.281 36.5413 209.153 36.632C209.03 36.7173 208.907 36.76 208.785 36.76C208.689 36.76 208.603 36.736 208.529 36.688C208.459 36.6347 208.403 36.5707 208.361 36.496L208.105 36.04C208.553 35.608 209.035 35.2853 209.553 35.072C210.07 34.8587 210.643 34.752 211.273 34.752C211.726 34.752 212.129 34.8267 212.481 34.976C212.833 35.1253 213.129 35.3333 213.369 35.6C213.609 35.8667 213.79 36.1893 213.913 36.568C214.035 36.9467 214.097 37.3627 214.097 37.816V43ZM210.401 42.128C210.651 42.128 210.881 42.104 211.089 42.056C211.297 42.0027 211.491 41.9307 211.673 41.84C211.859 41.744 212.035 41.6293 212.201 41.496C212.371 41.3627 212.537 41.2107 212.697 41.04V39.352C212.041 39.3733 211.483 39.4267 211.025 39.512C210.566 39.592 210.193 39.6987 209.905 39.832C209.617 39.9653 209.406 40.1227 209.273 40.304C209.145 40.4853 209.081 40.688 209.081 40.912C209.081 41.1253 209.115 41.3093 209.185 41.464C209.254 41.6187 209.347 41.7467 209.465 41.848C209.582 41.944 209.721 42.016 209.881 42.064C210.041 42.1067 210.214 42.128 210.401 42.128ZM216.254 43V34.896H217.07C217.225 34.896 217.331 34.9253 217.39 34.984C217.449 35.0427 217.489 35.144 217.51 35.288L217.606 36.552C217.883 35.9867 218.225 35.5467 218.63 35.232C219.041 34.912 219.521 34.752 220.07 34.752C220.294 34.752 220.497 34.7787 220.678 34.832C220.859 34.88 221.027 34.9493 221.182 35.04L220.998 36.104C220.961 36.2373 220.878 36.304 220.75 36.304C220.675 36.304 220.561 36.28 220.406 36.232C220.251 36.1787 220.035 36.152 219.758 36.152C219.262 36.152 218.846 36.296 218.51 36.584C218.179 36.872 217.902 37.2907 217.678 37.84V43H216.254ZM228.235 36.336C228.192 36.3947 228.15 36.44 228.107 36.472C228.064 36.504 228.003 36.52 227.923 36.52C227.843 36.52 227.755 36.488 227.659 36.424C227.568 36.3547 227.451 36.28 227.307 36.2C227.163 36.12 226.987 36.048 226.779 35.984C226.576 35.9147 226.326 35.88 226.027 35.88C225.632 35.88 225.283 35.952 224.979 36.096C224.675 36.2347 224.419 36.4373 224.211 36.704C224.008 36.9707 223.854 37.2933 223.747 37.672C223.646 38.0507 223.595 38.4747 223.595 38.944C223.595 39.4347 223.651 39.872 223.763 40.256C223.875 40.6347 224.032 40.9547 224.235 41.216C224.438 41.472 224.683 41.6693 224.971 41.808C225.264 41.9413 225.592 42.008 225.955 42.008C226.302 42.008 226.587 41.968 226.811 41.888C227.035 41.8027 227.222 41.7093 227.371 41.608C227.52 41.5067 227.643 41.416 227.739 41.336C227.835 41.2507 227.931 41.208 228.027 41.208C228.15 41.208 228.24 41.2533 228.299 41.344L228.699 41.864C228.347 42.296 227.907 42.6133 227.379 42.816C226.851 43.0133 226.294 43.112 225.707 43.112C225.2 43.112 224.728 43.0187 224.291 42.832C223.859 42.6453 223.483 42.376 223.163 42.024C222.843 41.6667 222.59 41.2293 222.403 40.712C222.222 40.1947 222.131 39.6053 222.131 38.944C222.131 38.3413 222.214 37.784 222.379 37.272C222.55 36.76 222.795 36.32 223.115 35.952C223.44 35.5787 223.84 35.288 224.315 35.08C224.79 34.872 225.334 34.768 225.947 34.768C226.512 34.768 227.014 34.8613 227.451 35.048C227.888 35.2293 228.275 35.488 228.611 35.824L228.235 36.336ZM230.176 43V31.216H231.6V35.984C231.946 35.616 232.33 35.3227 232.752 35.104C233.173 34.88 233.658 34.768 234.208 34.768C234.65 34.768 235.04 34.8427 235.376 34.992C235.717 35.136 236 35.344 236.224 35.616C236.453 35.8827 236.626 36.2053 236.744 36.584C236.861 36.9627 236.92 37.3813 236.92 37.84V43H235.496V37.84C235.496 37.2267 235.354 36.752 235.072 36.416C234.794 36.0747 234.368 35.904 233.792 35.904C233.37 35.904 232.976 36.0053 232.608 36.208C232.245 36.4107 231.909 36.6853 231.6 37.032V43H230.176Z" fill="white"/>
<path fill-rule="evenodd" clip-rule="evenodd" d="M168.577 28C164.945 28 162 30.9446 162 34.5769C162 38.2093 164.945 41.1538 168.577 41.1538C170.018 41.1538 171.351 40.6902 172.435 39.9038L178.227 45.6958L178.325 45.7822C178.732 46.099 179.321 46.0702 179.696 45.6958C180.101 45.2903 180.101 44.6328 179.696 44.2272L173.904 38.4352C174.69 37.3514 175.154 36.0183 175.154 34.5769C175.154 30.9446 172.209 28 168.577 28ZM171.786 37.732C172.584 36.9199 173.077 35.8059 173.077 34.5769C173.077 32.0916 171.062 30.0769 168.577 30.0769C166.092 30.0769 164.077 32.0916 164.077 34.5769C164.077 37.0622 166.092 39.0769 168.577 39.0769C169.806 39.0769 170.92 38.5842 171.732 37.7856C171.741 37.7764 171.749 37.7673 171.758 37.7583C171.767 37.7493 171.776 37.7406 171.786 37.732Z" fill="white"/>
<rect x="93" y="85" width="217" height="44" rx="22" fill="#0064D1"/>
<path d="M198.366 103.328C198.318 103.408 198.267 103.469 198.214 103.512C198.16 103.549 198.091 103.568 198.006 103.568C197.915 103.568 197.808 103.523 197.686 103.432C197.568 103.341 197.416 103.243 197.23 103.136C197.048 103.024 196.827 102.923 196.566 102.832C196.31 102.741 195.998 102.696 195.63 102.696C195.283 102.696 194.976 102.744 194.71 102.84C194.443 102.931 194.219 103.056 194.038 103.216C193.862 103.376 193.728 103.565 193.638 103.784C193.547 103.997 193.502 104.229 193.502 104.48C193.502 104.8 193.579 105.067 193.734 105.28C193.894 105.488 194.102 105.667 194.358 105.816C194.619 105.965 194.912 106.096 195.238 106.208C195.568 106.315 195.904 106.427 196.246 106.544C196.592 106.661 196.928 106.795 197.254 106.944C197.584 107.088 197.878 107.272 198.134 107.496C198.395 107.72 198.603 107.995 198.758 108.32C198.918 108.645 198.998 109.045 198.998 109.52C198.998 110.021 198.912 110.493 198.742 110.936C198.571 111.373 198.32 111.755 197.99 112.08C197.664 112.405 197.262 112.661 196.782 112.848C196.307 113.035 195.766 113.128 195.158 113.128C194.416 113.128 193.739 112.995 193.126 112.728C192.518 112.456 191.998 112.091 191.566 111.632L192.014 110.896C192.056 110.837 192.107 110.789 192.166 110.752C192.23 110.709 192.299 110.688 192.374 110.688C192.486 110.688 192.614 110.749 192.758 110.872C192.902 110.989 193.08 111.12 193.294 111.264C193.512 111.408 193.774 111.541 194.078 111.664C194.387 111.781 194.763 111.84 195.206 111.84C195.574 111.84 195.902 111.789 196.19 111.688C196.478 111.587 196.72 111.445 196.918 111.264C197.12 111.077 197.275 110.856 197.382 110.6C197.488 110.344 197.542 110.059 197.542 109.744C197.542 109.397 197.462 109.115 197.302 108.896C197.147 108.672 196.942 108.485 196.686 108.336C196.43 108.187 196.136 108.061 195.806 107.96C195.48 107.853 195.144 107.747 194.798 107.64C194.456 107.528 194.12 107.4 193.79 107.256C193.464 107.112 193.174 106.925 192.918 106.696C192.662 106.467 192.454 106.181 192.294 105.84C192.139 105.493 192.062 105.067 192.062 104.56C192.062 104.155 192.139 103.763 192.294 103.384C192.454 103.005 192.683 102.669 192.982 102.376C193.28 102.083 193.648 101.848 194.086 101.672C194.528 101.496 195.035 101.408 195.606 101.408C196.246 101.408 196.83 101.509 197.358 101.712C197.886 101.915 198.347 102.208 198.742 102.592L198.366 103.328ZM203.962 104.768C204.447 104.768 204.895 104.851 205.306 105.016C205.717 105.176 206.071 105.411 206.37 105.72C206.669 106.024 206.901 106.403 207.066 106.856C207.237 107.304 207.322 107.816 207.322 108.392C207.322 108.616 207.298 108.765 207.25 108.84C207.202 108.915 207.111 108.952 206.978 108.952H201.586C201.597 109.464 201.666 109.909 201.794 110.288C201.922 110.667 202.098 110.984 202.322 111.24C202.546 111.491 202.813 111.68 203.122 111.808C203.431 111.931 203.778 111.992 204.162 111.992C204.519 111.992 204.826 111.952 205.082 111.872C205.343 111.787 205.567 111.696 205.754 111.6C205.941 111.504 206.095 111.416 206.218 111.336C206.346 111.251 206.455 111.208 206.546 111.208C206.663 111.208 206.754 111.253 206.818 111.344L207.218 111.864C207.042 112.077 206.831 112.264 206.586 112.424C206.341 112.579 206.077 112.707 205.794 112.808C205.517 112.909 205.229 112.984 204.93 113.032C204.631 113.085 204.335 113.112 204.042 113.112C203.482 113.112 202.965 113.019 202.49 112.832C202.021 112.64 201.613 112.363 201.266 112C200.925 111.632 200.658 111.179 200.466 110.64C200.274 110.101 200.178 109.483 200.178 108.784C200.178 108.219 200.263 107.691 200.434 107.2C200.61 106.709 200.861 106.285 201.186 105.928C201.511 105.565 201.909 105.283 202.378 105.08C202.847 104.872 203.375 104.768 203.962 104.768ZM203.994 105.816C203.306 105.816 202.765 106.016 202.37 106.416C201.975 106.811 201.73 107.36 201.634 108.064H206.042C206.042 107.733 205.997 107.432 205.906 107.16C205.815 106.883 205.682 106.645 205.506 106.448C205.33 106.245 205.114 106.091 204.858 105.984C204.607 105.872 204.319 105.816 203.994 105.816ZM215.097 113H214.465C214.326 113 214.214 112.979 214.129 112.936C214.043 112.893 213.987 112.803 213.961 112.664L213.801 111.912C213.587 112.104 213.379 112.277 213.177 112.432C212.974 112.581 212.761 112.709 212.537 112.816C212.313 112.917 212.073 112.995 211.817 113.048C211.566 113.101 211.286 113.128 210.977 113.128C210.662 113.128 210.366 113.085 210.089 113C209.817 112.909 209.579 112.776 209.377 112.6C209.174 112.424 209.011 112.203 208.889 111.936C208.771 111.664 208.713 111.344 208.713 110.976C208.713 110.656 208.801 110.349 208.977 110.056C209.153 109.757 209.435 109.493 209.825 109.264C210.219 109.035 210.734 108.848 211.369 108.704C212.003 108.555 212.779 108.469 213.697 108.448V107.816C213.697 107.187 213.561 106.712 213.289 106.392C213.022 106.067 212.625 105.904 212.097 105.904C211.75 105.904 211.457 105.949 211.217 106.04C210.982 106.125 210.777 106.224 210.601 106.336C210.43 106.443 210.281 106.541 210.153 106.632C210.03 106.717 209.907 106.76 209.785 106.76C209.689 106.76 209.603 106.736 209.529 106.688C209.459 106.635 209.403 106.571 209.361 106.496L209.105 106.04C209.553 105.608 210.035 105.285 210.553 105.072C211.07 104.859 211.643 104.752 212.273 104.752C212.726 104.752 213.129 104.827 213.481 104.976C213.833 105.125 214.129 105.333 214.369 105.6C214.609 105.867 214.79 106.189 214.913 106.568C215.035 106.947 215.097 107.363 215.097 107.816V113ZM211.401 112.128C211.651 112.128 211.881 112.104 212.089 112.056C212.297 112.003 212.491 111.931 212.673 111.84C212.859 111.744 213.035 111.629 213.201 111.496C213.371 111.363 213.537 111.211 213.697 111.04V109.352C213.041 109.373 212.483 109.427 212.025 109.512C211.566 109.592 211.193 109.699 210.905 109.832C210.617 109.965 210.406 110.123 210.273 110.304C210.145 110.485 210.081 110.688 210.081 110.912C210.081 111.125 210.115 111.309 210.185 111.464C210.254 111.619 210.347 111.747 210.465 111.848C210.582 111.944 210.721 112.016 210.881 112.064C211.041 112.107 211.214 112.128 211.401 112.128ZM217.254 113V104.896H218.07C218.225 104.896 218.331 104.925 218.39 104.984C218.449 105.043 218.489 105.144 218.51 105.288L218.606 106.552C218.883 105.987 219.225 105.547 219.63 105.232C220.041 104.912 220.521 104.752 221.07 104.752C221.294 104.752 221.497 104.779 221.678 104.832C221.859 104.88 222.027 104.949 222.182 105.04L221.998 106.104C221.961 106.237 221.878 106.304 221.75 106.304C221.675 106.304 221.561 106.28 221.406 106.232C221.251 106.179 221.035 106.152 220.758 106.152C220.262 106.152 219.846 106.296 219.51 106.584C219.179 106.872 218.902 107.291 218.678 107.84V113H217.254ZM229.235 106.336C229.192 106.395 229.15 106.44 229.107 106.472C229.064 106.504 229.003 106.52 228.923 106.52C228.843 106.52 228.755 106.488 228.659 106.424C228.568 106.355 228.451 106.28 228.307 106.2C228.163 106.12 227.987 106.048 227.779 105.984C227.576 105.915 227.326 105.88 227.027 105.88C226.632 105.88 226.283 105.952 225.979 106.096C225.675 106.235 225.419 106.437 225.211 106.704C225.008 106.971 224.854 107.293 224.747 107.672C224.646 108.051 224.595 108.475 224.595 108.944C224.595 109.435 224.651 109.872 224.763 110.256C224.875 110.635 225.032 110.955 225.235 111.216C225.438 111.472 225.683 111.669 225.971 111.808C226.264 111.941 226.592 112.008 226.955 112.008C227.302 112.008 227.587 111.968 227.811 111.888C228.035 111.803 228.222 111.709 228.371 111.608C228.52 111.507 228.643 111.416 228.739 111.336C228.835 111.251 228.931 111.208 229.027 111.208C229.15 111.208 229.24 111.253 229.299 111.344L229.699 111.864C229.347 112.296 228.907 112.613 228.379 112.816C227.851 113.013 227.294 113.112 226.707 113.112C226.2 113.112 225.728 113.019 225.291 112.832C224.859 112.645 224.483 112.376 224.163 112.024C223.843 111.667 223.59 111.229 223.403 110.712C223.222 110.195 223.131 109.605 223.131 108.944C223.131 108.341 223.214 107.784 223.379 107.272C223.55 106.76 223.795 106.32 224.115 105.952C224.44 105.579 224.84 105.288 225.315 105.08C225.79 104.872 226.334 104.768 226.947 104.768C227.512 104.768 228.014 104.861 228.451 105.048C228.888 105.229 229.275 105.488 229.611 105.824L229.235 106.336ZM231.176 113V101.216H232.6V105.984C232.946 105.616 233.33 105.323 233.752 105.104C234.173 104.88 234.658 104.768 235.208 104.768C235.65 104.768 236.04 104.843 236.376 104.992C236.717 105.136 237 105.344 237.224 105.616C237.453 105.883 237.626 106.205 237.744 106.584C237.861 106.963 237.92 107.381 237.92 107.84V113H236.496V107.84C236.496 107.227 236.354 106.752 236.072 106.416C235.794 106.075 235.368 105.904 234.792 105.904C234.37 105.904 233.976 106.005 233.608 106.208C233.245 106.411 232.909 106.685 232.6 107.032V113H231.176Z" fill="white"/>
<path fill-rule="evenodd" clip-rule="evenodd" d="M169.577 98C165.945 98 163 100.945 163 104.577C163 108.209 165.945 111.154 169.577 111.154C171.018 111.154 172.351 110.69 173.435 109.904L179.227 115.696L179.325 115.782C179.732 116.099 180.321 116.07 180.696 115.696C181.101 115.29 181.101 114.633 180.696 114.227L174.904 108.435C175.69 107.351 176.154 106.018 176.154 104.577C176.154 100.945 173.209 98 169.577 98ZM172.786 107.732C173.584 106.92 174.077 105.806 174.077 104.577C174.077 102.092 172.062 100.077 169.577 100.077C167.092 100.077 165.077 102.092 165.077 104.577C165.077 107.062 167.092 109.077 169.577 109.077C170.806 109.077 171.92 108.584 172.732 107.786C172.741 107.776 172.749 107.767 172.758 107.758C172.767 107.749 172.776 107.741 172.786 107.732Z" fill="white"/>
</svg>
