<svg width="404" height="83" viewBox="0 0 404 83" fill="none" xmlns="http://www.w3.org/2000/svg">
<path d="M0.5 0.5H403.5V62C403.5 73.3218 394.322 82.5 383 82.5H21C9.67816 82.5 0.5 73.3218 0.5 62V0.5Z" fill="white" stroke="#EAEAEA"/>
<rect x="196.5" y="20.5" width="85" height="43" rx="21.5" stroke="#868686"/>
<path d="M226.145 46.768C226.62 46.768 227.044 46.688 227.417 46.528C227.79 46.368 228.105 46.144 228.361 45.856C228.622 45.568 228.82 45.224 228.953 44.824C229.092 44.424 229.161 43.984 229.161 43.504V36.536H230.705V43.504C230.705 44.1653 230.598 44.7787 230.385 45.344C230.177 45.9093 229.876 46.4 229.481 46.816C229.092 47.2267 228.614 47.5493 228.049 47.784C227.484 48.0187 226.849 48.136 226.145 48.136C225.441 48.136 224.806 48.0187 224.241 47.784C223.676 47.5493 223.196 47.2267 222.801 46.816C222.406 46.4 222.102 45.9093 221.889 45.344C221.681 44.7787 221.577 44.1653 221.577 43.504V36.536H223.121V43.496C223.121 43.976 223.188 44.416 223.321 44.816C223.46 45.216 223.657 45.56 223.913 45.848C224.174 46.136 224.492 46.3627 224.865 46.528C225.244 46.688 225.67 46.768 226.145 46.768ZM233.152 48V39.896H234C234.203 39.896 234.331 39.9947 234.384 40.192L234.496 41.072C234.848 40.6827 235.24 40.368 235.672 40.128C236.11 39.888 236.614 39.768 237.184 39.768C237.627 39.768 238.016 39.8427 238.352 39.992C238.694 40.136 238.976 40.344 239.2 40.616C239.43 40.8827 239.603 41.2053 239.72 41.584C239.838 41.9627 239.896 42.3813 239.896 42.84V48H238.472V42.84C238.472 42.2267 238.331 41.752 238.048 41.416C237.771 41.0747 237.344 40.904 236.768 40.904C236.347 40.904 235.952 41.0053 235.584 41.208C235.222 41.4107 234.886 41.6853 234.576 42.032V48H233.152ZM247.747 48C247.544 48 247.416 47.9013 247.363 47.704L247.235 46.72C246.888 47.1413 246.491 47.48 246.043 47.736C245.6 47.9867 245.091 48.112 244.515 48.112C244.051 48.112 243.63 48.024 243.251 47.848C242.872 47.6667 242.55 47.4027 242.283 47.056C242.016 46.7093 241.811 46.2773 241.667 45.76C241.523 45.2427 241.451 44.648 241.451 43.976C241.451 43.3787 241.531 42.824 241.691 42.312C241.851 41.7947 242.08 41.3467 242.379 40.968C242.683 40.5893 243.051 40.2933 243.483 40.08C243.915 39.8613 244.406 39.752 244.955 39.752C245.451 39.752 245.875 39.8373 246.227 40.008C246.579 40.1733 246.894 40.408 247.171 40.712V36.216H248.595V48H247.747ZM244.987 46.96C245.451 46.96 245.856 46.8533 246.203 46.64C246.555 46.4267 246.878 46.1253 247.171 45.736V41.816C246.91 41.464 246.622 41.2187 246.307 41.08C245.998 40.936 245.654 40.864 245.275 40.864C244.518 40.864 243.936 41.1333 243.531 41.672C243.126 42.2107 242.923 42.9787 242.923 43.976C242.923 44.504 242.968 44.9573 243.059 45.336C243.15 45.7093 243.283 46.0187 243.459 46.264C243.635 46.504 243.851 46.68 244.107 46.792C244.363 46.904 244.656 46.96 244.987 46.96ZM254.261 39.768C254.853 39.768 255.386 39.8667 255.861 40.064C256.341 40.2613 256.746 40.5413 257.077 40.904C257.413 41.2667 257.669 41.7067 257.845 42.224C258.026 42.736 258.117 43.3093 258.117 43.944C258.117 44.584 258.026 45.16 257.845 45.672C257.669 46.184 257.413 46.6213 257.077 46.984C256.746 47.3467 256.341 47.6267 255.861 47.824C255.386 48.016 254.853 48.112 254.261 48.112C253.669 48.112 253.133 48.016 252.653 47.824C252.178 47.6267 251.773 47.3467 251.437 46.984C251.101 46.6213 250.842 46.184 250.661 45.672C250.479 45.16 250.389 44.584 250.389 43.944C250.389 43.3093 250.479 42.736 250.661 42.224C250.842 41.7067 251.101 41.2667 251.437 40.904C251.773 40.5413 252.178 40.2613 252.653 40.064C253.133 39.8667 253.669 39.768 254.261 39.768ZM254.261 47C255.061 47 255.658 46.7333 256.053 46.2C256.447 45.6613 256.645 44.912 256.645 43.952C256.645 42.9867 256.447 42.2347 256.053 41.696C255.658 41.1573 255.061 40.888 254.261 40.888C253.855 40.888 253.503 40.9573 253.205 41.096C252.906 41.2347 252.655 41.4347 252.453 41.696C252.255 41.9573 252.106 42.28 252.005 42.664C251.909 43.0427 251.861 43.472 251.861 43.952C251.861 44.432 251.909 44.8613 252.005 45.24C252.106 45.6187 252.255 45.9387 252.453 46.2C252.655 46.456 252.906 46.6533 253.205 46.792C253.503 46.9307 253.855 47 254.261 47Z" fill="#6A6A6A"/>
<rect x="302" y="20" width="82" height="44" rx="22" fill="#0064D1"/>
<path d="M333.905 38.328C333.857 38.408 333.806 38.4693 333.753 38.512C333.699 38.5493 333.63 38.568 333.545 38.568C333.454 38.568 333.347 38.5227 333.225 38.432C333.107 38.3413 332.955 38.2427 332.769 38.136C332.587 38.024 332.366 37.9227 332.105 37.832C331.849 37.7413 331.537 37.696 331.169 37.696C330.822 37.696 330.515 37.744 330.249 37.84C329.982 37.9307 329.758 38.056 329.577 38.216C329.401 38.376 329.267 38.5653 329.177 38.784C329.086 38.9973 329.041 39.2293 329.041 39.48C329.041 39.8 329.118 40.0667 329.273 40.28C329.433 40.488 329.641 40.6667 329.897 40.816C330.158 40.9653 330.451 41.096 330.777 41.208C331.107 41.3147 331.443 41.4267 331.785 41.544C332.131 41.6613 332.467 41.7947 332.793 41.944C333.123 42.088 333.417 42.272 333.673 42.496C333.934 42.72 334.142 42.9947 334.297 43.32C334.457 43.6453 334.537 44.0453 334.537 44.52C334.537 45.0213 334.451 45.4933 334.281 45.936C334.11 46.3733 333.859 46.7547 333.529 47.08C333.203 47.4053 332.801 47.6613 332.321 47.848C331.846 48.0347 331.305 48.128 330.697 48.128C329.955 48.128 329.278 47.9947 328.665 47.728C328.057 47.456 327.537 47.0907 327.105 46.632L327.553 45.896C327.595 45.8373 327.646 45.7893 327.705 45.752C327.769 45.7093 327.838 45.688 327.913 45.688C328.025 45.688 328.153 45.7493 328.297 45.872C328.441 45.9893 328.619 46.12 328.833 46.264C329.051 46.408 329.313 46.5413 329.617 46.664C329.926 46.7813 330.302 46.84 330.745 46.84C331.113 46.84 331.441 46.7893 331.729 46.688C332.017 46.5867 332.259 46.4453 332.457 46.264C332.659 46.0773 332.814 45.856 332.921 45.6C333.027 45.344 333.081 45.0587 333.081 44.744C333.081 44.3973 333.001 44.1147 332.841 43.896C332.686 43.672 332.481 43.4853 332.225 43.336C331.969 43.1867 331.675 43.0613 331.345 42.96C331.019 42.8533 330.683 42.7467 330.337 42.64C329.995 42.528 329.659 42.4 329.329 42.256C329.003 42.112 328.713 41.9253 328.457 41.696C328.201 41.4667 327.993 41.1813 327.833 40.84C327.678 40.4933 327.601 40.0667 327.601 39.56C327.601 39.1547 327.678 38.7627 327.833 38.384C327.993 38.0053 328.222 37.6693 328.521 37.376C328.819 37.0827 329.187 36.848 329.625 36.672C330.067 36.496 330.574 36.408 331.145 36.408C331.785 36.408 332.369 36.5093 332.897 36.712C333.425 36.9147 333.886 37.208 334.281 37.592L333.905 38.328ZM342.245 48H341.613C341.474 48 341.362 47.9787 341.277 47.936C341.192 47.8933 341.136 47.8027 341.109 47.664L340.949 46.912C340.736 47.104 340.528 47.2773 340.325 47.432C340.122 47.5813 339.909 47.7093 339.685 47.816C339.461 47.9173 339.221 47.9947 338.965 48.048C338.714 48.1013 338.434 48.128 338.125 48.128C337.81 48.128 337.514 48.0853 337.237 48C336.965 47.9093 336.728 47.776 336.525 47.6C336.322 47.424 336.16 47.2027 336.037 46.936C335.92 46.664 335.861 46.344 335.861 45.976C335.861 45.656 335.949 45.3493 336.125 45.056C336.301 44.7573 336.584 44.4933 336.973 44.264C337.368 44.0347 337.882 43.848 338.517 43.704C339.152 43.5547 339.928 43.4693 340.845 43.448V42.816C340.845 42.1867 340.709 41.712 340.437 41.392C340.17 41.0667 339.773 40.904 339.245 40.904C338.898 40.904 338.605 40.9493 338.365 41.04C338.13 41.1253 337.925 41.224 337.749 41.336C337.578 41.4427 337.429 41.5413 337.301 41.632C337.178 41.7173 337.056 41.76 336.933 41.76C336.837 41.76 336.752 41.736 336.677 41.688C336.608 41.6347 336.552 41.5707 336.509 41.496L336.253 41.04C336.701 40.608 337.184 40.2853 337.701 40.072C338.218 39.8587 338.792 39.752 339.421 39.752C339.874 39.752 340.277 39.8267 340.629 39.976C340.981 40.1253 341.277 40.3333 341.517 40.6C341.757 40.8667 341.938 41.1893 342.061 41.568C342.184 41.9467 342.245 42.3627 342.245 42.816V48ZM338.549 47.128C338.8 47.128 339.029 47.104 339.237 47.056C339.445 47.0027 339.64 46.9307 339.821 46.84C340.008 46.744 340.184 46.6293 340.349 46.496C340.52 46.3627 340.685 46.2107 340.845 46.04V44.352C340.189 44.3733 339.632 44.4267 339.173 44.512C338.714 44.592 338.341 44.6987 338.053 44.832C337.765 44.9653 337.554 45.1227 337.421 45.304C337.293 45.4853 337.229 45.688 337.229 45.912C337.229 46.1253 337.264 46.3093 337.333 46.464C337.402 46.6187 337.496 46.7467 337.613 46.848C337.73 46.944 337.869 47.016 338.029 47.064C338.189 47.1067 338.362 47.128 338.549 47.128ZM343.128 39.896H344.296C344.408 39.896 344.502 39.9253 344.576 39.984C344.651 40.0427 344.704 40.112 344.736 40.192L346.792 45.408C346.867 45.6 346.926 45.792 346.968 45.984C347.011 46.176 347.051 46.3653 347.088 46.552C347.131 46.3653 347.176 46.176 347.224 45.984C347.272 45.792 347.334 45.6 347.408 45.408L349.488 40.192C349.52 40.1067 349.571 40.0373 349.64 39.984C349.715 39.9253 349.806 39.896 349.912 39.896H351.024L347.72 48H346.432L343.128 39.896ZM355.345 39.768C355.83 39.768 356.278 39.8507 356.689 40.016C357.099 40.176 357.454 40.4107 357.753 40.72C358.051 41.024 358.283 41.4027 358.449 41.856C358.619 42.304 358.705 42.816 358.705 43.392C358.705 43.616 358.681 43.7653 358.633 43.84C358.585 43.9147 358.494 43.952 358.361 43.952H352.969C352.979 44.464 353.049 44.9093 353.177 45.288C353.305 45.6667 353.481 45.984 353.705 46.24C353.929 46.4907 354.195 46.68 354.505 46.808C354.814 46.9307 355.161 46.992 355.545 46.992C355.902 46.992 356.209 46.952 356.465 46.872C356.726 46.7867 356.95 46.696 357.137 46.6C357.323 46.504 357.478 46.416 357.601 46.336C357.729 46.2507 357.838 46.208 357.929 46.208C358.046 46.208 358.137 46.2533 358.201 46.344L358.601 46.864C358.425 47.0773 358.214 47.264 357.969 47.424C357.723 47.5787 357.459 47.7067 357.177 47.808C356.899 47.9093 356.611 47.984 356.313 48.032C356.014 48.0853 355.718 48.112 355.425 48.112C354.865 48.112 354.347 48.0187 353.873 47.832C353.403 47.64 352.995 47.3627 352.649 47C352.307 46.632 352.041 46.1787 351.849 45.64C351.657 45.1013 351.561 44.4827 351.561 43.784C351.561 43.2187 351.646 42.6907 351.817 42.2C351.993 41.7093 352.243 41.2853 352.569 40.928C352.894 40.5653 353.291 40.2827 353.761 40.08C354.23 39.872 354.758 39.768 355.345 39.768ZM355.377 40.816C354.689 40.816 354.147 41.016 353.753 41.416C353.358 41.8107 353.113 42.36 353.017 43.064H357.425C357.425 42.7333 357.379 42.432 357.289 42.16C357.198 41.8827 357.065 41.6453 356.889 41.448C356.713 41.2453 356.497 41.0907 356.241 40.984C355.99 40.872 355.702 40.816 355.377 40.816Z" fill="white"/>
</svg>
