<svg width="604" height="200" viewBox="0 0 604 200" fill="none" xmlns="http://www.w3.org/2000/svg">
<rect y="100" width="604" height="50" fill="white"/>
<rect width="604" height="200" fill="white"/>
<path d="M28.704 77.04C28.704 77.68 28.624 78.2533 28.464 78.76C28.3093 79.2667 28.0773 79.696 27.768 80.048C27.464 80.3947 27.088 80.6613 26.64 80.848C26.192 81.0347 25.6773 81.128 25.096 81.128C24.5787 81.128 24.04 81.0533 23.48 80.904C23.4907 80.7493 23.504 80.5973 23.52 80.448C23.536 80.2933 23.552 80.1413 23.568 79.992C23.5787 79.9013 23.6107 79.8293 23.664 79.776C23.7227 79.7173 23.808 79.688 23.92 79.688C24.016 79.688 24.144 79.712 24.304 79.76C24.464 79.808 24.6773 79.832 24.944 79.832C25.296 79.832 25.608 79.7787 25.88 79.672C26.1573 79.5653 26.3893 79.4 26.576 79.176C26.768 78.952 26.912 78.6667 27.008 78.32C27.1093 77.968 27.16 77.552 27.16 77.072V69.536H28.704V77.04ZM34.5574 72.768C35.1494 72.768 35.6827 72.8667 36.1574 73.064C36.6374 73.2613 37.0427 73.5413 37.3734 73.904C37.7094 74.2667 37.9654 74.7067 38.1414 75.224C38.3227 75.736 38.4134 76.3093 38.4134 76.944C38.4134 77.584 38.3227 78.16 38.1414 78.672C37.9654 79.184 37.7094 79.6213 37.3734 79.984C37.0427 80.3467 36.6374 80.6267 36.1574 80.824C35.6827 81.016 35.1494 81.112 34.5574 81.112C33.9654 81.112 33.4294 81.016 32.9494 80.824C32.4747 80.6267 32.0694 80.3467 31.7334 79.984C31.3974 79.6213 31.1387 79.184 30.9574 78.672C30.776 78.16 30.6854 77.584 30.6854 76.944C30.6854 76.3093 30.776 75.736 30.9574 75.224C31.1387 74.7067 31.3974 74.2667 31.7334 73.904C32.0694 73.5413 32.4747 73.2613 32.9494 73.064C33.4294 72.8667 33.9654 72.768 34.5574 72.768ZM34.5574 80C35.3574 80 35.9547 79.7333 36.3494 79.2C36.744 78.6613 36.9414 77.912 36.9414 76.952C36.9414 75.9867 36.744 75.2347 36.3494 74.696C35.9547 74.1573 35.3574 73.888 34.5574 73.888C34.152 73.888 33.8 73.9573 33.5014 74.096C33.2027 74.2347 32.952 74.4347 32.7494 74.696C32.552 74.9573 32.4027 75.28 32.3014 75.664C32.2054 76.0427 32.1574 76.472 32.1574 76.952C32.1574 77.432 32.2054 77.8613 32.3014 78.24C32.4027 78.6187 32.552 78.9387 32.7494 79.2C32.952 79.456 33.2027 79.6533 33.5014 79.792C33.8 79.9307 34.152 80 34.5574 80ZM40.168 81V69.216H41.592V73.984C41.9387 73.616 42.3227 73.3227 42.744 73.104C43.1653 72.88 43.6507 72.768 44.2 72.768C44.6427 72.768 45.032 72.8427 45.368 72.992C45.7093 73.136 45.992 73.344 46.216 73.616C46.4453 73.8827 46.6187 74.2053 46.736 74.584C46.8533 74.9627 46.912 75.3813 46.912 75.84V81H45.488V75.84C45.488 75.2267 45.3467 74.752 45.064 74.416C44.7867 74.0747 44.36 73.904 43.784 73.904C43.3627 73.904 42.968 74.0053 42.6 74.208C42.2373 74.4107 41.9013 74.6853 41.592 75.032V81H40.168ZM49.0586 81V72.896H49.9066C50.1093 72.896 50.2373 72.9947 50.2906 73.192L50.4026 74.072C50.7546 73.6827 51.1466 73.368 51.5786 73.128C52.016 72.888 52.52 72.768 53.0906 72.768C53.5333 72.768 53.9226 72.8427 54.2586 72.992C54.6 73.136 54.8826 73.344 55.1066 73.616C55.336 73.8827 55.5093 74.2053 55.6266 74.584C55.744 74.9627 55.8026 75.3813 55.8026 75.84V81H54.3786V75.84C54.3786 75.2267 54.2373 74.752 53.9546 74.416C53.6773 74.0747 53.2506 73.904 52.6746 73.904C52.2533 73.904 51.8586 74.0053 51.4906 74.208C51.128 74.4107 50.792 74.6853 50.4826 75.032V81H49.0586Z" fill="black"/>
<path d="M277.04 75.272C277.04 76.1307 276.904 76.92 276.632 77.64C276.36 78.3547 275.976 78.9707 275.48 79.488C274.984 80.0053 274.387 80.408 273.688 80.696C272.995 80.9787 272.227 81.12 271.384 81.12C270.541 81.12 269.773 80.9787 269.08 80.696C268.387 80.408 267.792 80.0053 267.296 79.488C266.8 78.9707 266.416 78.3547 266.144 77.64C265.872 76.92 265.736 76.1307 265.736 75.272C265.736 74.4133 265.872 73.6267 266.144 72.912C266.416 72.192 266.8 71.5733 267.296 71.056C267.792 70.5333 268.387 70.128 269.08 69.84C269.773 69.552 270.541 69.408 271.384 69.408C272.227 69.408 272.995 69.552 273.688 69.84C274.387 70.128 274.984 70.5333 275.48 71.056C275.976 71.5733 276.36 72.192 276.632 72.912C276.904 73.6267 277.04 74.4133 277.04 75.272ZM275.448 75.272C275.448 74.568 275.352 73.936 275.16 73.376C274.968 72.816 274.696 72.344 274.344 71.96C273.992 71.5707 273.565 71.272 273.064 71.064C272.563 70.856 272.003 70.752 271.384 70.752C270.771 70.752 270.213 70.856 269.712 71.064C269.211 71.272 268.781 71.5707 268.424 71.96C268.072 72.344 267.8 72.816 267.608 73.376C267.416 73.936 267.32 74.568 267.32 75.272C267.32 75.976 267.416 76.608 267.608 77.168C267.8 77.7227 268.072 78.1947 268.424 78.584C268.781 78.968 269.211 79.264 269.712 79.472C270.213 79.6747 270.771 79.776 271.384 79.776C272.003 79.776 272.563 79.6747 273.064 79.472C273.565 79.264 273.992 78.968 274.344 78.584C274.696 78.1947 274.968 77.7227 275.16 77.168C275.352 76.608 275.448 75.976 275.448 75.272ZM281.39 81.128C280.75 81.128 280.256 80.9493 279.91 80.592C279.568 80.2347 279.398 79.72 279.398 79.048V74.088H278.422C278.336 74.088 278.264 74.064 278.206 74.016C278.147 73.9627 278.118 73.8827 278.118 73.776V73.208L279.446 73.04L279.774 70.536C279.784 70.456 279.819 70.392 279.878 70.344C279.936 70.2907 280.011 70.264 280.102 70.264H280.822V73.056H283.142V74.088H280.822V78.952C280.822 79.2933 280.904 79.5467 281.07 79.712C281.235 79.8773 281.448 79.96 281.71 79.96C281.859 79.96 281.987 79.9413 282.094 79.904C282.206 79.8613 282.302 79.816 282.382 79.768C282.462 79.72 282.528 79.6773 282.582 79.64C282.64 79.5973 282.691 79.576 282.734 79.576C282.808 79.576 282.875 79.6213 282.934 79.712L283.35 80.392C283.104 80.6213 282.808 80.8027 282.462 80.936C282.115 81.064 281.758 81.128 281.39 81.128ZM287.358 81.128C286.718 81.128 286.225 80.9493 285.878 80.592C285.537 80.2347 285.366 79.72 285.366 79.048V74.088H284.39C284.305 74.088 284.233 74.064 284.174 74.016C284.116 73.9627 284.086 73.8827 284.086 73.776V73.208L285.414 73.04L285.742 70.536C285.753 70.456 285.788 70.392 285.846 70.344C285.905 70.2907 285.98 70.264 286.07 70.264H286.79V73.056H289.11V74.088H286.79V78.952C286.79 79.2933 286.873 79.5467 287.038 79.712C287.204 79.8773 287.417 79.96 287.678 79.96C287.828 79.96 287.956 79.9413 288.062 79.904C288.174 79.8613 288.27 79.816 288.35 79.768C288.43 79.72 288.497 79.6773 288.55 79.64C288.609 79.5973 288.66 79.576 288.702 79.576C288.777 79.576 288.844 79.6213 288.902 79.712L289.318 80.392C289.073 80.6213 288.777 80.8027 288.43 80.936C288.084 81.064 287.726 81.128 287.358 81.128ZM294.151 72.768C294.743 72.768 295.276 72.8667 295.751 73.064C296.231 73.2613 296.636 73.5413 296.967 73.904C297.303 74.2667 297.559 74.7067 297.735 75.224C297.916 75.736 298.007 76.3093 298.007 76.944C298.007 77.584 297.916 78.16 297.735 78.672C297.559 79.184 297.303 79.6213 296.967 79.984C296.636 80.3467 296.231 80.6267 295.751 80.824C295.276 81.016 294.743 81.112 294.151 81.112C293.559 81.112 293.023 81.016 292.543 80.824C292.068 80.6267 291.663 80.3467 291.327 79.984C290.991 79.6213 290.732 79.184 290.551 78.672C290.37 78.16 290.279 77.584 290.279 76.944C290.279 76.3093 290.37 75.736 290.551 75.224C290.732 74.7067 290.991 74.2667 291.327 73.904C291.663 73.5413 292.068 73.2613 292.543 73.064C293.023 72.8667 293.559 72.768 294.151 72.768ZM294.151 80C294.951 80 295.548 79.7333 295.943 79.2C296.338 78.6613 296.535 77.912 296.535 76.952C296.535 75.9867 296.338 75.2347 295.943 74.696C295.548 74.1573 294.951 73.888 294.151 73.888C293.746 73.888 293.394 73.9573 293.095 74.096C292.796 74.2347 292.546 74.4347 292.343 74.696C292.146 74.9573 291.996 75.28 291.895 75.664C291.799 76.0427 291.751 76.472 291.751 76.952C291.751 77.432 291.799 77.8613 291.895 78.24C291.996 78.6187 292.146 78.9387 292.343 79.2C292.546 79.456 292.796 79.6533 293.095 79.792C293.394 79.9307 293.746 80 294.151 80Z" fill="black"/>
<path d="M451.336 79.512C450.92 79.512 450.581 79.4133 450.32 79.216C450.059 79.0133 449.893 78.704 449.824 78.288C449.515 78.72 449.179 79.0293 448.816 79.216C448.453 79.4027 448.064 79.496 447.648 79.496C447.328 79.496 447.051 79.4427 446.816 79.336C446.581 79.224 446.384 79.072 446.224 78.88C446.069 78.6827 445.952 78.4507 445.872 78.184C445.797 77.9173 445.76 77.6293 445.76 77.32C445.76 76.8667 445.845 76.4107 446.016 75.952C446.192 75.488 446.451 75.072 446.792 74.704C447.133 74.3307 447.557 74.0267 448.064 73.792C448.576 73.5573 449.165 73.44 449.832 73.44C450.189 73.44 450.501 73.4693 450.768 73.528C451.04 73.5813 451.296 73.6613 451.536 73.768L450.792 76.656C450.691 77.056 450.64 77.3867 450.64 77.648C450.64 77.84 450.664 78 450.712 78.128C450.76 78.2507 450.824 78.3493 450.904 78.424C450.989 78.4933 451.085 78.5413 451.192 78.568C451.304 78.5947 451.421 78.608 451.544 78.608C451.805 78.608 452.053 78.5333 452.288 78.384C452.523 78.2347 452.728 78.024 452.904 77.752C453.085 77.48 453.227 77.1547 453.328 76.776C453.435 76.392 453.488 75.968 453.488 75.504C453.488 74.768 453.368 74.1227 453.128 73.568C452.893 73.0133 452.568 72.552 452.152 72.184C451.741 71.8107 451.253 71.5333 450.688 71.352C450.128 71.1653 449.523 71.072 448.872 71.072C448.157 71.072 447.488 71.208 446.864 71.48C446.24 71.752 445.696 72.128 445.232 72.608C444.768 73.088 444.403 73.656 444.136 74.312C443.869 74.968 443.736 75.6827 443.736 76.456C443.736 77.3627 443.877 78.16 444.16 78.848C444.448 79.5307 444.837 80.104 445.328 80.568C445.824 81.032 446.403 81.3813 447.064 81.616C447.731 81.8507 448.445 81.968 449.208 81.968C450.019 81.968 450.733 81.88 451.352 81.704C451.976 81.528 452.515 81.304 452.968 81.032C453.048 80.984 453.12 80.96 453.184 80.96C453.296 80.96 453.379 81.024 453.432 81.152L453.632 81.68C453.061 82.064 452.411 82.3653 451.68 82.584C450.955 82.8027 450.131 82.912 449.208 82.912C448.285 82.912 447.427 82.7653 446.632 82.472C445.837 82.1787 445.147 81.7547 444.56 81.2C443.979 80.6507 443.52 79.976 443.184 79.176C442.853 78.376 442.688 77.4693 442.688 76.456C442.688 75.8747 442.76 75.3147 442.904 74.776C443.053 74.2373 443.261 73.736 443.528 73.272C443.795 72.8027 444.115 72.376 444.488 71.992C444.861 71.6027 445.277 71.272 445.736 71C446.195 70.7227 446.688 70.5093 447.216 70.36C447.744 70.2053 448.296 70.128 448.872 70.128C449.363 70.128 449.843 70.1813 450.312 70.288C450.781 70.3947 451.224 70.552 451.64 70.76C452.061 70.968 452.448 71.2267 452.8 71.536C453.152 71.84 453.453 72.192 453.704 72.592C453.96 72.9867 454.157 73.4293 454.296 73.92C454.44 74.4053 454.512 74.9333 454.512 75.504C454.512 76.08 454.429 76.6133 454.264 77.104C454.104 77.5893 453.88 78.0107 453.592 78.368C453.309 78.7253 452.973 79.0053 452.584 79.208C452.2 79.4107 451.784 79.512 451.336 79.512ZM447.928 78.552C448.093 78.552 448.259 78.5253 448.424 78.472C448.595 78.4187 448.757 78.3253 448.912 78.192C449.072 78.0587 449.216 77.8773 449.344 77.648C449.477 77.4187 449.589 77.1307 449.68 76.784L450.288 74.424C450.08 74.376 449.853 74.352 449.608 74.352C449.208 74.352 448.84 74.4373 448.504 74.608C448.173 74.7733 447.888 74.992 447.648 75.264C447.408 75.536 447.219 75.848 447.08 76.2C446.947 76.552 446.88 76.912 446.88 77.28C446.88 77.664 446.968 77.9733 447.144 78.208C447.32 78.4373 447.581 78.552 447.928 78.552ZM459.604 72.768C460.196 72.768 460.73 72.8667 461.204 73.064C461.684 73.2613 462.09 73.5413 462.42 73.904C462.756 74.2667 463.012 74.7067 463.188 75.224C463.37 75.736 463.46 76.3093 463.46 76.944C463.46 77.584 463.37 78.16 463.188 78.672C463.012 79.184 462.756 79.6213 462.42 79.984C462.09 80.3467 461.684 80.6267 461.204 80.824C460.73 81.016 460.196 81.112 459.604 81.112C459.012 81.112 458.476 81.016 457.996 80.824C457.522 80.6267 457.116 80.3467 456.78 79.984C456.444 79.6213 456.186 79.184 456.004 78.672C455.823 78.16 455.732 77.584 455.732 76.944C455.732 76.3093 455.823 75.736 456.004 75.224C456.186 74.7067 456.444 74.2667 456.78 73.904C457.116 73.5413 457.522 73.2613 457.996 73.064C458.476 72.8667 459.012 72.768 459.604 72.768ZM459.604 80C460.404 80 461.002 79.7333 461.396 79.2C461.791 78.6613 461.988 77.912 461.988 76.952C461.988 75.9867 461.791 75.2347 461.396 74.696C461.002 74.1573 460.404 73.888 459.604 73.888C459.199 73.888 458.847 73.9573 458.548 74.096C458.25 74.2347 457.999 74.4347 457.796 74.696C457.599 74.9573 457.45 75.28 457.348 75.664C457.252 76.0427 457.204 76.472 457.204 76.952C457.204 77.432 457.252 77.8613 457.348 78.24C457.45 78.6187 457.599 78.9387 457.796 79.2C457.999 79.456 458.25 79.6533 458.548 79.792C458.847 79.9307 459.199 80 459.604 80ZM467.671 81.128C467.031 81.128 466.538 80.9493 466.191 80.592C465.85 80.2347 465.679 79.72 465.679 79.048V74.088H464.703C464.618 74.088 464.546 74.064 464.487 74.016C464.428 73.9627 464.399 73.8827 464.399 73.776V73.208L465.727 73.04L466.055 70.536C466.066 70.456 466.1 70.392 466.159 70.344C466.218 70.2907 466.292 70.264 466.383 70.264H467.103V73.056H469.423V74.088H467.103V78.952C467.103 79.2933 467.186 79.5467 467.351 79.712C467.516 79.8773 467.73 79.96 467.991 79.96C468.14 79.96 468.268 79.9413 468.375 79.904C468.487 79.8613 468.583 79.816 468.663 79.768C468.743 79.72 468.81 79.6773 468.863 79.64C468.922 79.5973 468.972 79.576 469.015 79.576C469.09 79.576 469.156 79.6213 469.215 79.712L469.631 80.392C469.386 80.6213 469.09 80.8027 468.743 80.936C468.396 81.064 468.039 81.128 467.671 81.128ZM473.64 81.128C473 81.128 472.506 80.9493 472.16 80.592C471.818 80.2347 471.648 79.72 471.648 79.048V74.088H470.672C470.586 74.088 470.514 74.064 470.456 74.016C470.397 73.9627 470.368 73.8827 470.368 73.776V73.208L471.696 73.04L472.024 70.536C472.034 70.456 472.069 70.392 472.128 70.344C472.186 70.2907 472.261 70.264 472.352 70.264H473.072V73.056H475.392V74.088H473.072V78.952C473.072 79.2933 473.154 79.5467 473.32 79.712C473.485 79.8773 473.698 79.96 473.96 79.96C474.109 79.96 474.237 79.9413 474.344 79.904C474.456 79.8613 474.552 79.816 474.632 79.768C474.712 79.72 474.778 79.6773 474.832 79.64C474.89 79.5973 474.941 79.576 474.984 79.576C475.058 79.576 475.125 79.6213 475.184 79.712L475.6 80.392C475.354 80.6213 475.058 80.8027 474.712 80.936C474.365 81.064 474.008 81.128 473.64 81.128ZM480.432 72.768C481.024 72.768 481.558 72.8667 482.032 73.064C482.512 73.2613 482.918 73.5413 483.248 73.904C483.584 74.2667 483.84 74.7067 484.016 75.224C484.198 75.736 484.288 76.3093 484.288 76.944C484.288 77.584 484.198 78.16 484.016 78.672C483.84 79.184 483.584 79.6213 483.248 79.984C482.918 80.3467 482.512 80.6267 482.032 80.824C481.558 81.016 481.024 81.112 480.432 81.112C479.84 81.112 479.304 81.016 478.824 80.824C478.35 80.6267 477.944 80.3467 477.608 79.984C477.272 79.6213 477.014 79.184 476.832 78.672C476.651 78.16 476.56 77.584 476.56 76.944C476.56 76.3093 476.651 75.736 476.832 75.224C477.014 74.7067 477.272 74.2667 477.608 73.904C477.944 73.5413 478.35 73.2613 478.824 73.064C479.304 72.8667 479.84 72.768 480.432 72.768ZM480.432 80C481.232 80 481.83 79.7333 482.224 79.2C482.619 78.6613 482.816 77.912 482.816 76.952C482.816 75.9867 482.619 75.2347 482.224 74.696C481.83 74.1573 481.232 73.888 480.432 73.888C480.027 73.888 479.675 73.9573 479.376 74.096C479.078 74.2347 478.827 74.4347 478.624 74.696C478.427 74.9573 478.278 75.28 478.176 75.664C478.08 76.0427 478.032 76.472 478.032 76.952C478.032 77.432 478.08 77.8613 478.176 78.24C478.278 78.6187 478.427 78.9387 478.624 79.2C478.827 79.456 479.078 79.6533 479.376 79.792C479.675 79.9307 480.027 80 480.432 80Z" fill="black"/>
<path d="M25.296 19.432C25.392 19.432 25.472 19.4373 25.536 19.448C25.6 19.4533 25.656 19.4693 25.704 19.496C25.7573 19.5173 25.808 19.552 25.856 19.6C25.904 19.6427 25.9573 19.7013 26.016 19.776L32.088 27.512C32.0667 27.3253 32.0507 27.144 32.04 26.968C32.0347 26.7867 32.032 26.6187 32.032 26.464V19.432H33.928V31H32.816C32.6453 31 32.504 30.9733 32.392 30.92C32.28 30.8667 32.1707 30.7707 32.064 30.632L26.016 22.928C26.032 23.0987 26.0427 23.2693 26.048 23.44C26.0587 23.6053 26.064 23.7573 26.064 23.896V31H24.168V19.432H25.296ZM42.5818 31H41.6938C41.5071 31 41.3604 30.9733 41.2538 30.92C41.1471 30.8613 41.0671 30.7467 41.0138 30.576L40.8378 29.992C40.6298 30.1787 40.4244 30.344 40.2218 30.488C40.0244 30.6267 39.8191 30.744 39.6058 30.84C39.3924 30.936 39.1658 31.008 38.9258 31.056C38.6858 31.104 38.4191 31.128 38.1258 31.128C37.7791 31.128 37.4591 31.0827 37.1658 30.992C36.8724 30.896 36.6191 30.7547 36.4058 30.568C36.1978 30.3813 36.0351 30.1493 35.9178 29.872C35.8004 29.5947 35.7418 29.272 35.7418 28.904C35.7418 28.5947 35.8218 28.2907 35.9818 27.992C36.1471 27.688 36.4191 27.416 36.7978 27.176C37.1764 26.9307 37.6804 26.728 38.3098 26.568C38.9391 26.408 39.7204 26.3173 40.6538 26.296V25.816C40.6538 25.2667 40.5364 24.8613 40.3018 24.6C40.0724 24.3333 39.7364 24.2 39.2938 24.2C38.9738 24.2 38.7071 24.2373 38.4938 24.312C38.2804 24.3867 38.0938 24.472 37.9338 24.568C37.7791 24.6587 37.6351 24.7413 37.5018 24.816C37.3684 24.8907 37.2218 24.928 37.0618 24.928C36.9284 24.928 36.8138 24.8933 36.7178 24.824C36.6218 24.7547 36.5444 24.6693 36.4858 24.568L36.1258 23.936C37.0698 23.072 38.2084 22.64 39.5418 22.64C40.0218 22.64 40.4484 22.72 40.8218 22.88C41.2004 23.0347 41.5204 23.2533 41.7818 23.536C42.0431 23.8133 42.2404 24.1467 42.3738 24.536C42.5124 24.9253 42.5818 25.352 42.5818 25.816V31ZM38.7418 29.768C38.9444 29.768 39.1311 29.7493 39.3018 29.712C39.4724 29.6747 39.6324 29.6187 39.7818 29.544C39.9364 29.4693 40.0831 29.3787 40.2218 29.272C40.3658 29.16 40.5098 29.0293 40.6538 28.88V27.496C40.0778 27.5227 39.5951 27.5733 39.2057 27.648C38.8218 27.7173 38.5124 27.808 38.2778 27.92C38.0431 28.032 37.8751 28.1627 37.7738 28.312C37.6778 28.4613 37.6298 28.624 37.6298 28.8C37.6298 29.1467 37.7311 29.3947 37.9338 29.544C38.1418 29.6933 38.4111 29.768 38.7418 29.768ZM44.5247 31V22.792H45.7328C45.9888 22.792 46.1568 22.912 46.2368 23.152L46.3648 23.76C46.5088 23.6 46.6581 23.4533 46.8128 23.32C46.9728 23.1867 47.1408 23.072 47.3168 22.976C47.4981 22.88 47.6901 22.8053 47.8928 22.752C48.1008 22.6933 48.3274 22.664 48.5728 22.664C49.0901 22.664 49.5141 22.8053 49.8448 23.088C50.1808 23.3653 50.4314 23.736 50.5968 24.2C50.7248 23.928 50.8848 23.696 51.0768 23.504C51.2688 23.3067 51.4794 23.1467 51.7088 23.024C51.9381 22.9013 52.1808 22.8107 52.4368 22.752C52.6981 22.6933 52.9594 22.664 53.2208 22.664C53.6741 22.664 54.0768 22.7333 54.4288 22.872C54.7808 23.0107 55.0768 23.2133 55.3168 23.48C55.5568 23.7467 55.7381 24.072 55.8608 24.456C55.9888 24.84 56.0528 25.28 56.0528 25.776V31H54.0768V25.776C54.0768 25.2533 53.9621 24.8613 53.7328 24.6C53.5034 24.3333 53.1674 24.2 52.7248 24.2C52.5221 24.2 52.3328 24.2347 52.1568 24.304C51.9861 24.3733 51.8341 24.4747 51.7008 24.608C51.5728 24.736 51.4714 24.8987 51.3968 25.096C51.3221 25.2933 51.2848 25.52 51.2848 25.776V31H49.3008V25.776C49.3008 25.2267 49.1888 24.8267 48.9648 24.576C48.7461 24.3253 48.4208 24.2 47.9887 24.2C47.7061 24.2 47.4394 24.272 47.1888 24.416C46.9434 24.5547 46.7141 24.7467 46.5008 24.992V31H44.5247ZM61.3855 22.664C61.9028 22.664 62.3775 22.7467 62.8095 22.912C63.2468 23.0773 63.6228 23.32 63.9375 23.64C64.2522 23.9547 64.4975 24.344 64.6735 24.808C64.8495 25.2667 64.9375 25.792 64.9375 26.384C64.9375 26.5333 64.9295 26.6587 64.9135 26.76C64.9028 26.856 64.8788 26.9333 64.8415 26.992C64.8095 27.0453 64.7642 27.0853 64.7055 27.112C64.6468 27.1333 64.5722 27.144 64.4815 27.144H59.4095C59.4682 27.9867 59.6948 28.6053 60.0895 29C60.4842 29.3947 61.0068 29.592 61.6575 29.592C61.9775 29.592 62.2522 29.5547 62.4815 29.48C62.7162 29.4053 62.9188 29.3227 63.0895 29.232C63.2655 29.1413 63.4175 29.0587 63.5455 28.984C63.6788 28.9093 63.8068 28.872 63.9295 28.872C64.0095 28.872 64.0788 28.888 64.1375 28.92C64.1962 28.952 64.2468 28.9973 64.2895 29.056L64.8655 29.776C64.6468 30.032 64.4015 30.248 64.1295 30.424C63.8575 30.5947 63.5722 30.7333 63.2735 30.84C62.9802 30.9413 62.6788 31.0133 62.3695 31.056C62.0655 31.0987 61.7695 31.12 61.4815 31.12C60.9108 31.12 60.3802 31.0267 59.8895 30.84C59.3988 30.648 58.9722 30.368 58.6095 30C58.2468 29.6267 57.9615 29.168 57.7535 28.624C57.5455 28.0747 57.4415 27.44 57.4415 26.72C57.4415 26.16 57.5322 25.6347 57.7135 25.144C57.8948 24.648 58.1535 24.2187 58.4895 23.856C58.8308 23.488 59.2442 23.1973 59.7295 22.984C60.2202 22.7707 60.7722 22.664 61.3855 22.664ZM61.4255 24.08C60.8495 24.08 60.3988 24.2427 60.0735 24.568C59.7482 24.8933 59.5402 25.3547 59.4495 25.952H63.1615C63.1615 25.696 63.1268 25.456 63.0575 25.232C62.9882 25.0027 62.8815 24.8027 62.7375 24.632C62.5935 24.4613 62.4122 24.328 62.1935 24.232C61.9748 24.1307 61.7188 24.08 61.4255 24.08Z" fill="black"/>
<path d="M274.32 19.432V21.2H270.84V31H268.688V21.2H265.192V19.432H274.32ZM277.046 33.256C276.987 33.3947 276.91 33.4987 276.814 33.568C276.723 33.6427 276.582 33.68 276.39 33.68H274.918L276.454 30.392L273.134 22.792H274.862C275.022 22.792 275.145 22.8293 275.23 22.904C275.315 22.9787 275.379 23.064 275.422 23.16L277.174 27.416C277.233 27.5547 277.283 27.6987 277.326 27.848C277.369 27.9973 277.406 28.1467 277.438 28.296C277.481 28.1413 277.526 27.992 277.574 27.848C277.627 27.704 277.683 27.5573 277.742 27.408L279.39 23.16C279.433 23.0533 279.502 22.9653 279.598 22.896C279.699 22.8267 279.811 22.792 279.934 22.792H281.518L277.046 33.256ZM282.665 33.68V22.792H283.873C284.001 22.792 284.111 22.8213 284.201 22.88C284.292 22.9387 284.351 23.0293 284.377 23.152L284.537 23.912C284.868 23.5333 285.247 23.2267 285.673 22.992C286.105 22.7573 286.609 22.64 287.185 22.64C287.633 22.64 288.041 22.7333 288.409 22.92C288.783 23.1067 289.103 23.3787 289.369 23.736C289.641 24.088 289.849 24.5253 289.993 25.048C290.143 25.5653 290.217 26.16 290.217 26.832C290.217 27.4453 290.135 28.0133 289.969 28.536C289.804 29.0587 289.567 29.512 289.257 29.896C288.953 30.28 288.583 30.5813 288.145 30.8C287.713 31.0133 287.228 31.12 286.689 31.12C286.225 31.12 285.831 31.0507 285.505 30.912C285.185 30.768 284.897 30.5707 284.641 30.32V33.68H282.665ZM286.505 24.2C286.095 24.2 285.743 24.288 285.449 24.464C285.161 24.6347 284.892 24.8773 284.641 25.192V28.872C284.865 29.1493 285.108 29.344 285.369 29.456C285.636 29.5627 285.921 29.616 286.225 29.616C286.524 29.616 286.793 29.56 287.033 29.448C287.279 29.336 287.484 29.1653 287.649 28.936C287.82 28.7067 287.951 28.4187 288.041 28.072C288.132 27.72 288.177 27.3067 288.177 26.832C288.177 26.352 288.137 25.9467 288.057 25.616C287.983 25.28 287.873 25.008 287.729 24.8C287.585 24.592 287.409 24.44 287.201 24.344C286.999 24.248 286.767 24.2 286.505 24.2ZM295.104 22.664C295.622 22.664 296.096 22.7467 296.528 22.912C296.966 23.0773 297.342 23.32 297.656 23.64C297.971 23.9547 298.216 24.344 298.392 24.808C298.568 25.2667 298.656 25.792 298.656 26.384C298.656 26.5333 298.648 26.6587 298.632 26.76C298.622 26.856 298.598 26.9333 298.56 26.992C298.528 27.0453 298.483 27.0853 298.424 27.112C298.366 27.1333 298.291 27.144 298.2 27.144H293.128C293.187 27.9867 293.414 28.6053 293.808 29C294.203 29.3947 294.726 29.592 295.376 29.592C295.696 29.592 295.971 29.5547 296.2 29.48C296.435 29.4053 296.638 29.3227 296.808 29.232C296.984 29.1413 297.136 29.0587 297.264 28.984C297.398 28.9093 297.526 28.872 297.648 28.872C297.728 28.872 297.798 28.888 297.856 28.92C297.915 28.952 297.966 28.9973 298.008 29.056L298.584 29.776C298.366 30.032 298.12 30.248 297.848 30.424C297.576 30.5947 297.291 30.7333 296.992 30.84C296.699 30.9413 296.398 31.0133 296.088 31.056C295.784 31.0987 295.488 31.12 295.2 31.12C294.63 31.12 294.099 31.0267 293.608 30.84C293.118 30.648 292.691 30.368 292.328 30C291.966 29.6267 291.68 29.168 291.472 28.624C291.264 28.0747 291.16 27.44 291.16 26.72C291.16 26.16 291.251 25.6347 291.432 25.144C291.614 24.648 291.872 24.2187 292.208 23.856C292.55 23.488 292.963 23.1973 293.448 22.984C293.939 22.7707 294.491 22.664 295.104 22.664ZM295.144 24.08C294.568 24.08 294.118 24.2427 293.792 24.568C293.467 24.8933 293.259 25.3547 293.168 25.952H296.88C296.88 25.696 296.846 25.456 296.776 25.232C296.707 25.0027 296.6 24.8027 296.456 24.632C296.312 24.4613 296.131 24.328 295.912 24.232C295.694 24.1307 295.438 24.08 295.144 24.08Z" fill="black"/>
<path d="M447.824 29.264C448.24 29.264 448.611 29.1947 448.936 29.056C449.267 28.9173 449.544 28.7227 449.768 28.472C449.997 28.2213 450.171 27.9173 450.288 27.56C450.411 27.2027 450.472 26.8027 450.472 26.36V19.432H452.624V26.36C452.624 27.048 452.512 27.6853 452.288 28.272C452.069 28.8533 451.752 29.3573 451.336 29.784C450.92 30.2053 450.416 30.536 449.824 30.776C449.232 31.0107 448.565 31.128 447.824 31.128C447.083 31.128 446.416 31.0107 445.824 30.776C445.232 30.536 444.728 30.2053 444.312 29.784C443.901 29.3573 443.584 28.8533 443.36 28.272C443.141 27.6853 443.032 27.048 443.032 26.36V19.432H445.184V26.352C445.184 26.7947 445.243 27.1947 445.36 27.552C445.483 27.9093 445.656 28.216 445.88 28.472C446.104 28.7227 446.379 28.9173 446.704 29.056C447.035 29.1947 447.408 29.264 447.824 29.264ZM459.569 24.392C459.515 24.4773 459.459 24.5387 459.401 24.576C459.342 24.608 459.267 24.624 459.177 24.624C459.081 24.624 458.977 24.5973 458.865 24.544C458.758 24.4907 458.633 24.432 458.489 24.368C458.345 24.2987 458.179 24.2373 457.993 24.184C457.811 24.1307 457.595 24.104 457.345 24.104C456.955 24.104 456.649 24.1867 456.425 24.352C456.201 24.5173 456.089 24.7333 456.089 25C456.089 25.176 456.145 25.3253 456.257 25.448C456.374 25.5653 456.526 25.6693 456.713 25.76C456.905 25.8507 457.121 25.9333 457.361 26.008C457.601 26.0773 457.846 26.1547 458.097 26.24C458.347 26.3253 458.593 26.424 458.833 26.536C459.073 26.6427 459.286 26.7813 459.473 26.952C459.665 27.1173 459.817 27.3173 459.929 27.552C460.046 27.7867 460.105 28.0693 460.105 28.4C460.105 28.7947 460.033 29.16 459.889 29.496C459.745 29.8267 459.534 30.1147 459.257 30.36C458.979 30.6 458.635 30.7893 458.225 30.928C457.819 31.0613 457.353 31.128 456.825 31.128C456.542 31.128 456.265 31.1013 455.993 31.048C455.726 31 455.467 30.9307 455.217 30.84C454.971 30.7493 454.742 30.6427 454.529 30.52C454.321 30.3973 454.137 30.264 453.977 30.12L454.433 29.368C454.491 29.2773 454.561 29.208 454.641 29.16C454.721 29.112 454.822 29.088 454.945 29.088C455.067 29.088 455.182 29.1227 455.289 29.192C455.401 29.2613 455.529 29.336 455.673 29.416C455.817 29.496 455.985 29.5707 456.177 29.64C456.374 29.7093 456.622 29.744 456.921 29.744C457.155 29.744 457.355 29.7173 457.521 29.664C457.691 29.6053 457.83 29.5307 457.937 29.44C458.049 29.3493 458.129 29.2453 458.177 29.128C458.23 29.0053 458.257 28.88 458.257 28.752C458.257 28.56 458.198 28.4027 458.081 28.28C457.969 28.1573 457.817 28.0507 457.625 27.96C457.438 27.8693 457.222 27.7893 456.977 27.72C456.737 27.6453 456.489 27.5653 456.233 27.48C455.982 27.3947 455.734 27.296 455.489 27.184C455.249 27.0667 455.033 26.92 454.841 26.744C454.654 26.568 454.502 26.352 454.385 26.096C454.273 25.84 454.217 25.5307 454.217 25.168C454.217 24.832 454.283 24.512 454.417 24.208C454.55 23.904 454.745 23.64 455.001 23.416C455.262 23.1867 455.585 23.0053 455.969 22.872C456.358 22.7333 456.806 22.664 457.313 22.664C457.878 22.664 458.393 22.7573 458.857 22.944C459.321 23.1307 459.707 23.376 460.017 23.68L459.569 24.392ZM465.073 22.664C465.59 22.664 466.065 22.7467 466.497 22.912C466.934 23.0773 467.31 23.32 467.625 23.64C467.94 23.9547 468.185 24.344 468.361 24.808C468.537 25.2667 468.625 25.792 468.625 26.384C468.625 26.5333 468.617 26.6587 468.601 26.76C468.59 26.856 468.566 26.9333 468.529 26.992C468.497 27.0453 468.452 27.0853 468.393 27.112C468.334 27.1333 468.26 27.144 468.169 27.144H463.097C463.156 27.9867 463.382 28.6053 463.777 29C464.172 29.3947 464.694 29.592 465.345 29.592C465.665 29.592 465.94 29.5547 466.169 29.48C466.404 29.4053 466.606 29.3227 466.777 29.232C466.953 29.1413 467.105 29.0587 467.233 28.984C467.366 28.9093 467.494 28.872 467.617 28.872C467.697 28.872 467.766 28.888 467.825 28.92C467.884 28.952 467.934 28.9973 467.977 29.056L468.553 29.776C468.334 30.032 468.089 30.248 467.817 30.424C467.545 30.5947 467.26 30.7333 466.961 30.84C466.668 30.9413 466.366 31.0133 466.057 31.056C465.753 31.0987 465.457 31.12 465.169 31.12C464.598 31.12 464.068 31.0267 463.577 30.84C463.086 30.648 462.66 30.368 462.297 30C461.934 29.6267 461.649 29.168 461.441 28.624C461.233 28.0747 461.129 27.44 461.129 26.72C461.129 26.16 461.22 25.6347 461.401 25.144C461.582 24.648 461.841 24.2187 462.177 23.856C462.518 23.488 462.932 23.1973 463.417 22.984C463.908 22.7707 464.46 22.664 465.073 22.664ZM465.113 24.08C464.537 24.08 464.086 24.2427 463.761 24.568C463.436 24.8933 463.228 25.3547 463.137 25.952H466.849C466.849 25.696 466.814 25.456 466.745 25.232C466.676 25.0027 466.569 24.8027 466.425 24.632C466.281 24.4613 466.1 24.328 465.881 24.232C465.662 24.1307 465.406 24.08 465.113 24.08ZM470.228 31V22.792H471.388C471.591 22.792 471.732 22.8293 471.812 22.904C471.892 22.9787 471.945 23.1067 471.972 23.288L472.092 24.28C472.385 23.7733 472.729 23.3733 473.124 23.08C473.519 22.7867 473.961 22.64 474.452 22.64C474.857 22.64 475.193 22.7333 475.46 22.92L475.204 24.4C475.188 24.496 475.153 24.5653 475.1 24.608C475.047 24.6453 474.975 24.664 474.884 24.664C474.804 24.664 474.695 24.6453 474.556 24.608C474.417 24.5707 474.233 24.552 474.004 24.552C473.593 24.552 473.241 24.6667 472.948 24.896C472.655 25.12 472.407 25.4507 472.204 25.888V31H470.228ZM476.759 31V22.792H477.967C478.223 22.792 478.391 22.912 478.471 23.152L478.607 23.8C478.772 23.6293 478.946 23.4747 479.127 23.336C479.314 23.1973 479.508 23.0773 479.711 22.976C479.919 22.8747 480.14 22.7973 480.375 22.744C480.61 22.6907 480.866 22.664 481.143 22.664C481.591 22.664 481.988 22.7413 482.335 22.896C482.682 23.0453 482.97 23.2587 483.199 23.536C483.434 23.808 483.61 24.136 483.727 24.52C483.85 24.8987 483.911 25.3173 483.911 25.776V31H481.935V25.776C481.935 25.2747 481.818 24.888 481.583 24.616C481.354 24.3387 481.007 24.2 480.543 24.2C480.202 24.2 479.882 24.2773 479.583 24.432C479.284 24.5867 479.002 24.7973 478.735 25.064V31H476.759ZM492.285 31H491.397C491.21 31 491.064 30.9733 490.957 30.92C490.85 30.8613 490.77 30.7467 490.717 30.576L490.541 29.992C490.333 30.1787 490.128 30.344 489.925 30.488C489.728 30.6267 489.522 30.744 489.309 30.84C489.096 30.936 488.869 31.008 488.629 31.056C488.389 31.104 488.122 31.128 487.829 31.128C487.482 31.128 487.162 31.0827 486.869 30.992C486.576 30.896 486.322 30.7547 486.109 30.568C485.901 30.3813 485.738 30.1493 485.621 29.872C485.504 29.5947 485.445 29.272 485.445 28.904C485.445 28.5947 485.525 28.2907 485.685 27.992C485.85 27.688 486.122 27.416 486.501 27.176C486.88 26.9307 487.384 26.728 488.013 26.568C488.642 26.408 489.424 26.3173 490.357 26.296V25.816C490.357 25.2667 490.24 24.8613 490.005 24.6C489.776 24.3333 489.44 24.2 488.997 24.2C488.677 24.2 488.41 24.2373 488.197 24.312C487.984 24.3867 487.797 24.472 487.637 24.568C487.482 24.6587 487.338 24.7413 487.205 24.816C487.072 24.8907 486.925 24.928 486.765 24.928C486.632 24.928 486.517 24.8933 486.421 24.824C486.325 24.7547 486.248 24.6693 486.189 24.568L485.829 23.936C486.773 23.072 487.912 22.64 489.245 22.64C489.725 22.64 490.152 22.72 490.525 22.88C490.904 23.0347 491.224 23.2533 491.485 23.536C491.746 23.8133 491.944 24.1467 492.077 24.536C492.216 24.9253 492.285 25.352 492.285 25.816V31ZM488.445 29.768C488.648 29.768 488.834 29.7493 489.005 29.712C489.176 29.6747 489.336 29.6187 489.485 29.544C489.64 29.4693 489.786 29.3787 489.925 29.272C490.069 29.16 490.213 29.0293 490.357 28.88V27.496C489.781 27.5227 489.298 27.5733 488.909 27.648C488.525 27.7173 488.216 27.808 487.981 27.92C487.746 28.032 487.578 28.1627 487.477 28.312C487.381 28.4613 487.333 28.624 487.333 28.8C487.333 29.1467 487.434 29.3947 487.637 29.544C487.845 29.6933 488.114 29.768 488.445 29.768ZM494.228 31V22.792H495.436C495.692 22.792 495.86 22.912 495.94 23.152L496.068 23.76C496.212 23.6 496.361 23.4533 496.516 23.32C496.676 23.1867 496.844 23.072 497.02 22.976C497.201 22.88 497.393 22.8053 497.596 22.752C497.804 22.6933 498.031 22.664 498.276 22.664C498.793 22.664 499.217 22.8053 499.548 23.088C499.884 23.3653 500.135 23.736 500.3 24.2C500.428 23.928 500.588 23.696 500.78 23.504C500.972 23.3067 501.183 23.1467 501.412 23.024C501.641 22.9013 501.884 22.8107 502.14 22.752C502.401 22.6933 502.663 22.664 502.924 22.664C503.377 22.664 503.78 22.7333 504.132 22.872C504.484 23.0107 504.78 23.2133 505.02 23.48C505.26 23.7467 505.441 24.072 505.564 24.456C505.692 24.84 505.756 25.28 505.756 25.776V31H503.78V25.776C503.78 25.2533 503.665 24.8613 503.436 24.6C503.207 24.3333 502.871 24.2 502.428 24.2C502.225 24.2 502.036 24.2347 501.86 24.304C501.689 24.3733 501.537 24.4747 501.404 24.608C501.276 24.736 501.175 24.8987 501.1 25.096C501.025 25.2933 500.988 25.52 500.988 25.776V31H499.004V25.776C499.004 25.2267 498.892 24.8267 498.668 24.576C498.449 24.3253 498.124 24.2 497.692 24.2C497.409 24.2 497.143 24.272 496.892 24.416C496.647 24.5547 496.417 24.7467 496.204 24.992V31H494.228ZM511.089 22.664C511.606 22.664 512.081 22.7467 512.513 22.912C512.95 23.0773 513.326 23.32 513.641 23.64C513.955 23.9547 514.201 24.344 514.377 24.808C514.553 25.2667 514.641 25.792 514.641 26.384C514.641 26.5333 514.633 26.6587 514.617 26.76C514.606 26.856 514.582 26.9333 514.545 26.992C514.513 27.0453 514.467 27.0853 514.409 27.112C514.35 27.1333 514.275 27.144 514.185 27.144H509.113C509.171 27.9867 509.398 28.6053 509.793 29C510.187 29.3947 510.71 29.592 511.361 29.592C511.681 29.592 511.955 29.5547 512.185 29.48C512.419 29.4053 512.622 29.3227 512.793 29.232C512.969 29.1413 513.121 29.0587 513.249 28.984C513.382 28.9093 513.51 28.872 513.633 28.872C513.713 28.872 513.782 28.888 513.841 28.92C513.899 28.952 513.95 28.9973 513.993 29.056L514.569 29.776C514.35 30.032 514.105 30.248 513.833 30.424C513.561 30.5947 513.275 30.7333 512.977 30.84C512.683 30.9413 512.382 31.0133 512.073 31.056C511.769 31.0987 511.473 31.12 511.185 31.12C510.614 31.12 510.083 31.0267 509.593 30.84C509.102 30.648 508.675 30.368 508.313 30C507.95 29.6267 507.665 29.168 507.457 28.624C507.249 28.0747 507.145 27.44 507.145 26.72C507.145 26.16 507.235 25.6347 507.417 25.144C507.598 24.648 507.857 24.2187 508.193 23.856C508.534 23.488 508.947 23.1973 509.433 22.984C509.923 22.7707 510.475 22.664 511.089 22.664ZM511.129 24.08C510.553 24.08 510.102 24.2427 509.777 24.568C509.451 24.8933 509.243 25.3547 509.153 25.952H512.865C512.865 25.696 512.83 25.456 512.761 25.232C512.691 25.0027 512.585 24.8027 512.441 24.632C512.297 24.4613 512.115 24.328 511.897 24.232C511.678 24.1307 511.422 24.08 511.129 24.08Z" fill="black"/>
<path d="M28.704 127.04C28.704 127.68 28.624 128.253 28.464 128.76C28.3093 129.267 28.0773 129.696 27.768 130.048C27.464 130.395 27.088 130.661 26.64 130.848C26.192 131.035 25.6773 131.128 25.096 131.128C24.5787 131.128 24.04 131.053 23.48 130.904C23.4907 130.749 23.504 130.597 23.52 130.448C23.536 130.293 23.552 130.141 23.568 129.992C23.5787 129.901 23.6107 129.829 23.664 129.776C23.7227 129.717 23.808 129.688 23.92 129.688C24.016 129.688 24.144 129.712 24.304 129.76C24.464 129.808 24.6773 129.832 24.944 129.832C25.296 129.832 25.608 129.779 25.88 129.672C26.1573 129.565 26.3893 129.4 26.576 129.176C26.768 128.952 26.912 128.667 27.008 128.32C27.1093 127.968 27.16 127.552 27.16 127.072V119.536H28.704V127.04ZM37.2294 131H36.5974C36.4587 131 36.3467 130.979 36.2614 130.936C36.176 130.893 36.12 130.803 36.0934 130.664L35.9334 129.912C35.72 130.104 35.512 130.277 35.3094 130.432C35.1067 130.581 34.8934 130.709 34.6694 130.816C34.4454 130.917 34.2054 130.995 33.9494 131.048C33.6987 131.101 33.4187 131.128 33.1094 131.128C32.7947 131.128 32.4987 131.085 32.2214 131C31.9494 130.909 31.712 130.776 31.5094 130.6C31.3067 130.424 31.144 130.203 31.0214 129.936C30.904 129.664 30.8454 129.344 30.8454 128.976C30.8454 128.656 30.9334 128.349 31.1094 128.056C31.2854 127.757 31.568 127.493 31.9574 127.264C32.352 127.035 32.8667 126.848 33.5014 126.704C34.136 126.555 34.912 126.469 35.8294 126.448V125.816C35.8294 125.187 35.6934 124.712 35.4214 124.392C35.1547 124.067 34.7574 123.904 34.2294 123.904C33.8827 123.904 33.5894 123.949 33.3494 124.04C33.1147 124.125 32.9094 124.224 32.7334 124.336C32.5627 124.443 32.4134 124.541 32.2854 124.632C32.1627 124.717 32.04 124.76 31.9174 124.76C31.8214 124.76 31.736 124.736 31.6614 124.688C31.592 124.635 31.536 124.571 31.4934 124.496L31.2374 124.04C31.6854 123.608 32.168 123.285 32.6854 123.072C33.2027 122.859 33.776 122.752 34.4054 122.752C34.8587 122.752 35.2614 122.827 35.6134 122.976C35.9654 123.125 36.2614 123.333 36.5014 123.6C36.7414 123.867 36.9227 124.189 37.0454 124.568C37.168 124.947 37.2294 125.363 37.2294 125.816V131ZM33.5334 130.128C33.784 130.128 34.0134 130.104 34.2214 130.056C34.4294 130.003 34.624 129.931 34.8054 129.84C34.992 129.744 35.168 129.629 35.3334 129.496C35.504 129.363 35.6694 129.211 35.8294 129.04V127.352C35.1734 127.373 34.616 127.427 34.1574 127.512C33.6987 127.592 33.3254 127.699 33.0374 127.832C32.7494 127.965 32.5387 128.123 32.4054 128.304C32.2774 128.485 32.2134 128.688 32.2134 128.912C32.2134 129.125 32.248 129.309 32.3174 129.464C32.3867 129.619 32.48 129.747 32.5974 129.848C32.7147 129.944 32.8534 130.016 33.0134 130.064C33.1734 130.107 33.3467 130.128 33.5334 130.128ZM44.9148 124.336C44.8721 124.395 44.8294 124.44 44.7868 124.472C44.7441 124.504 44.6828 124.52 44.6028 124.52C44.5228 124.52 44.4348 124.488 44.3388 124.424C44.2481 124.355 44.1308 124.28 43.9868 124.2C43.8428 124.12 43.6668 124.048 43.4588 123.984C43.2561 123.915 43.0054 123.88 42.7068 123.88C42.3121 123.88 41.9628 123.952 41.6588 124.096C41.3548 124.235 41.0988 124.437 40.8908 124.704C40.6881 124.971 40.5334 125.293 40.4268 125.672C40.3254 126.051 40.2747 126.475 40.2747 126.944C40.2747 127.435 40.3308 127.872 40.4428 128.256C40.5548 128.635 40.7121 128.955 40.9148 129.216C41.1174 129.472 41.3628 129.669 41.6508 129.808C41.9441 129.941 42.2721 130.008 42.6348 130.008C42.9814 130.008 43.2668 129.968 43.4908 129.888C43.7148 129.803 43.9014 129.709 44.0508 129.608C44.2001 129.507 44.3228 129.416 44.4188 129.336C44.5148 129.251 44.6108 129.208 44.7068 129.208C44.8294 129.208 44.9201 129.253 44.9788 129.344L45.3788 129.864C45.0268 130.296 44.5868 130.613 44.0588 130.816C43.5308 131.013 42.9734 131.112 42.3868 131.112C41.8801 131.112 41.4081 131.019 40.9708 130.832C40.5388 130.645 40.1628 130.376 39.8428 130.024C39.5228 129.667 39.2694 129.229 39.0828 128.712C38.9014 128.195 38.8108 127.605 38.8108 126.944C38.8108 126.341 38.8934 125.784 39.0588 125.272C39.2294 124.76 39.4748 124.32 39.7948 123.952C40.1201 123.579 40.5201 123.288 40.9948 123.08C41.4694 122.872 42.0134 122.768 42.6267 122.768C43.1921 122.768 43.6934 122.861 44.1308 123.048C44.5681 123.229 44.9548 123.488 45.2908 123.824L44.9148 124.336ZM50.1355 122.768C50.7275 122.768 51.2608 122.867 51.7355 123.064C52.2155 123.261 52.6208 123.541 52.9515 123.904C53.2875 124.267 53.5435 124.707 53.7195 125.224C53.9008 125.736 53.9915 126.309 53.9915 126.944C53.9915 127.584 53.9008 128.16 53.7195 128.672C53.5435 129.184 53.2875 129.621 52.9515 129.984C52.6208 130.347 52.2155 130.627 51.7355 130.824C51.2608 131.016 50.7275 131.112 50.1355 131.112C49.5435 131.112 49.0075 131.016 48.5275 130.824C48.0528 130.627 47.6475 130.347 47.3115 129.984C46.9755 129.621 46.7168 129.184 46.5355 128.672C46.3542 128.16 46.2635 127.584 46.2635 126.944C46.2635 126.309 46.3542 125.736 46.5355 125.224C46.7168 124.707 46.9755 124.267 47.3115 123.904C47.6475 123.541 48.0528 123.261 48.5275 123.064C49.0075 122.867 49.5435 122.768 50.1355 122.768ZM50.1355 130C50.9355 130 51.5328 129.733 51.9275 129.2C52.3222 128.661 52.5195 127.912 52.5195 126.952C52.5195 125.987 52.3222 125.235 51.9275 124.696C51.5328 124.157 50.9355 123.888 50.1355 123.888C49.7302 123.888 49.3782 123.957 49.0795 124.096C48.7808 124.235 48.5302 124.435 48.3275 124.696C48.1302 124.957 47.9808 125.28 47.8795 125.664C47.7835 126.043 47.7355 126.472 47.7355 126.952C47.7355 127.432 47.7835 127.861 47.8795 128.24C47.9808 128.619 48.1302 128.939 48.3275 129.2C48.5302 129.456 48.7808 129.653 49.0795 129.792C49.3782 129.931 49.7302 130 50.1355 130ZM55.7941 131V119.216H57.2261V124.064C57.5621 123.675 57.9461 123.363 58.3781 123.128C58.8155 122.888 59.3141 122.768 59.8741 122.768C60.3435 122.768 60.7675 122.856 61.1461 123.032C61.5248 123.208 61.8475 123.472 62.1141 123.824C62.3808 124.171 62.5861 124.603 62.7301 125.12C62.8741 125.632 62.9461 126.224 62.9461 126.896C62.9461 127.493 62.8661 128.051 62.7061 128.568C62.5461 129.08 62.3141 129.525 62.0101 129.904C61.7115 130.277 61.3435 130.573 60.9061 130.792C60.4741 131.005 59.9861 131.112 59.4421 131.112C58.9195 131.112 58.4741 131.011 58.1061 130.808C57.7435 130.605 57.4261 130.323 57.1541 129.96L57.0821 130.696C57.0395 130.899 56.9168 131 56.7141 131H55.7941ZM59.4101 123.904C58.9461 123.904 58.5381 124.011 58.1861 124.224C57.8395 124.437 57.5195 124.739 57.2261 125.128V129.048C57.4821 129.4 57.7648 129.648 58.0741 129.792C58.3888 129.936 58.7381 130.008 59.1221 130.008C59.8795 130.008 60.4608 129.739 60.8661 129.2C61.2715 128.661 61.4741 127.893 61.4741 126.896C61.4741 126.368 61.4261 125.915 61.3301 125.536C61.2395 125.157 61.1061 124.848 60.9301 124.608C60.7541 124.363 60.5381 124.184 60.2821 124.072C60.0261 123.96 59.7355 123.904 59.4101 123.904Z" fill="black"/>
<path d="M274.2 119.536V120.84H270.496V131H268.944V120.84H265.224V119.536H274.2ZM275.606 131V119.216H277.03V123.984C277.376 123.616 277.76 123.323 278.182 123.104C278.603 122.88 279.088 122.768 279.638 122.768C280.08 122.768 280.47 122.843 280.806 122.992C281.147 123.136 281.43 123.344 281.654 123.616C281.883 123.883 282.056 124.205 282.174 124.584C282.291 124.963 282.35 125.381 282.35 125.84V131H280.926V125.84C280.926 125.227 280.784 124.752 280.502 124.416C280.224 124.075 279.798 123.904 279.222 123.904C278.8 123.904 278.406 124.005 278.038 124.208C277.675 124.411 277.339 124.685 277.03 125.032V131H275.606ZM287.776 122.768C288.368 122.768 288.901 122.867 289.376 123.064C289.856 123.261 290.261 123.541 290.592 123.904C290.928 124.267 291.184 124.707 291.36 125.224C291.541 125.736 291.632 126.309 291.632 126.944C291.632 127.584 291.541 128.16 291.36 128.672C291.184 129.184 290.928 129.621 290.592 129.984C290.261 130.347 289.856 130.627 289.376 130.824C288.901 131.016 288.368 131.112 287.776 131.112C287.184 131.112 286.648 131.016 286.168 130.824C285.693 130.627 285.288 130.347 284.952 129.984C284.616 129.621 284.357 129.184 284.176 128.672C283.995 128.16 283.904 127.584 283.904 126.944C283.904 126.309 283.995 125.736 284.176 125.224C284.357 124.707 284.616 124.267 284.952 123.904C285.288 123.541 285.693 123.261 286.168 123.064C286.648 122.867 287.184 122.768 287.776 122.768ZM287.776 130C288.576 130 289.173 129.733 289.568 129.2C289.963 128.661 290.16 127.912 290.16 126.952C290.16 125.987 289.963 125.235 289.568 124.696C289.173 124.157 288.576 123.888 287.776 123.888C287.371 123.888 287.019 123.957 286.72 124.096C286.421 124.235 286.171 124.435 285.968 124.696C285.771 124.957 285.621 125.28 285.52 125.664C285.424 126.043 285.376 126.472 285.376 126.952C285.376 127.432 285.424 127.861 285.52 128.24C285.621 128.619 285.771 128.939 285.968 129.2C286.171 129.456 286.421 129.653 286.72 129.792C287.019 129.931 287.371 130 287.776 130ZM293.387 131V122.896H294.203C294.357 122.896 294.464 122.925 294.523 122.984C294.581 123.043 294.621 123.144 294.643 123.288L294.739 124.552C295.016 123.987 295.357 123.547 295.763 123.232C296.173 122.912 296.653 122.752 297.203 122.752C297.427 122.752 297.629 122.779 297.811 122.832C297.992 122.88 298.16 122.949 298.315 123.04L298.131 124.104C298.093 124.237 298.011 124.304 297.883 124.304C297.808 124.304 297.693 124.28 297.539 124.232C297.384 124.179 297.168 124.152 296.891 124.152C296.395 124.152 295.979 124.296 295.643 124.584C295.312 124.872 295.035 125.291 294.811 125.84V131H293.387ZM299.84 131V122.896H300.688C300.891 122.896 301.019 122.995 301.072 123.192L301.184 124.072C301.536 123.683 301.928 123.368 302.36 123.128C302.797 122.888 303.301 122.768 303.872 122.768C304.315 122.768 304.704 122.843 305.04 122.992C305.381 123.136 305.664 123.344 305.888 123.616C306.117 123.883 306.291 124.205 306.408 124.584C306.525 124.963 306.584 125.381 306.584 125.84V131H305.16V125.84C305.16 125.227 305.019 124.752 304.736 124.416C304.459 124.075 304.032 123.904 303.456 123.904C303.035 123.904 302.64 124.005 302.272 124.208C301.909 124.411 301.573 124.685 301.264 125.032V131H299.84ZM311.187 131.128C310.547 131.128 310.053 130.949 309.707 130.592C309.365 130.235 309.195 129.72 309.195 129.048V124.088H308.219C308.133 124.088 308.061 124.064 308.003 124.016C307.944 123.963 307.915 123.883 307.915 123.776V123.208L309.243 123.04L309.571 120.536C309.581 120.456 309.616 120.392 309.674 120.344C309.733 120.291 309.808 120.264 309.899 120.264H310.619V123.056H312.939V124.088H310.619V128.952C310.619 129.293 310.701 129.547 310.867 129.712C311.032 129.877 311.245 129.96 311.507 129.96C311.656 129.96 311.784 129.941 311.891 129.904C312.003 129.861 312.099 129.816 312.179 129.768C312.259 129.72 312.325 129.677 312.379 129.64C312.437 129.597 312.488 129.576 312.531 129.576C312.605 129.576 312.672 129.621 312.731 129.712L313.147 130.392C312.901 130.621 312.605 130.803 312.259 130.936C311.912 131.064 311.555 131.128 311.187 131.128ZM317.979 122.768C318.571 122.768 319.105 122.867 319.579 123.064C320.059 123.261 320.465 123.541 320.795 123.904C321.131 124.267 321.387 124.707 321.563 125.224C321.745 125.736 321.835 126.309 321.835 126.944C321.835 127.584 321.745 128.16 321.563 128.672C321.387 129.184 321.131 129.621 320.795 129.984C320.465 130.347 320.059 130.627 319.579 130.824C319.105 131.016 318.571 131.112 317.979 131.112C317.387 131.112 316.851 131.016 316.371 130.824C315.897 130.627 315.491 130.347 315.155 129.984C314.819 129.621 314.561 129.184 314.379 128.672C314.198 128.16 314.107 127.584 314.107 126.944C314.107 126.309 314.198 125.736 314.379 125.224C314.561 124.707 314.819 124.267 315.155 123.904C315.491 123.541 315.897 123.261 316.371 123.064C316.851 122.867 317.387 122.768 317.979 122.768ZM317.979 130C318.779 130 319.377 129.733 319.771 129.2C320.166 128.661 320.363 127.912 320.363 126.952C320.363 125.987 320.166 125.235 319.771 124.696C319.377 124.157 318.779 123.888 317.979 123.888C317.574 123.888 317.222 123.957 316.923 124.096C316.625 124.235 316.374 124.435 316.171 124.696C315.974 124.957 315.825 125.28 315.723 125.664C315.627 126.043 315.579 126.472 315.579 126.952C315.579 127.432 315.627 127.861 315.723 128.24C315.825 128.619 315.974 128.939 316.171 129.2C316.374 129.456 316.625 129.653 316.923 129.792C317.222 129.931 317.574 130 317.979 130ZM323.59 131V122.896H324.438C324.641 122.896 324.769 122.995 324.822 123.192L324.934 124.072C325.286 123.683 325.678 123.368 326.11 123.128C326.547 122.888 327.051 122.768 327.622 122.768C328.065 122.768 328.454 122.843 328.79 122.992C329.131 123.136 329.414 123.344 329.638 123.616C329.867 123.883 330.041 124.205 330.158 124.584C330.275 124.963 330.334 125.381 330.334 125.84V131H328.91V125.84C328.91 125.227 328.769 124.752 328.486 124.416C328.209 124.075 327.782 123.904 327.206 123.904C326.785 123.904 326.39 124.005 326.022 124.208C325.659 124.411 325.323 124.685 325.014 125.032V131H323.59Z" fill="black"/>
<path d="M451.336 129.512C450.92 129.512 450.581 129.413 450.32 129.216C450.059 129.013 449.893 128.704 449.824 128.288C449.515 128.72 449.179 129.029 448.816 129.216C448.453 129.403 448.064 129.496 447.648 129.496C447.328 129.496 447.051 129.443 446.816 129.336C446.581 129.224 446.384 129.072 446.224 128.88C446.069 128.683 445.952 128.451 445.872 128.184C445.797 127.917 445.76 127.629 445.76 127.32C445.76 126.867 445.845 126.411 446.016 125.952C446.192 125.488 446.451 125.072 446.792 124.704C447.133 124.331 447.557 124.027 448.064 123.792C448.576 123.557 449.165 123.44 449.832 123.44C450.189 123.44 450.501 123.469 450.768 123.528C451.04 123.581 451.296 123.661 451.536 123.768L450.792 126.656C450.691 127.056 450.64 127.387 450.64 127.648C450.64 127.84 450.664 128 450.712 128.128C450.76 128.251 450.824 128.349 450.904 128.424C450.989 128.493 451.085 128.541 451.192 128.568C451.304 128.595 451.421 128.608 451.544 128.608C451.805 128.608 452.053 128.533 452.288 128.384C452.523 128.235 452.728 128.024 452.904 127.752C453.085 127.48 453.227 127.155 453.328 126.776C453.435 126.392 453.488 125.968 453.488 125.504C453.488 124.768 453.368 124.123 453.128 123.568C452.893 123.013 452.568 122.552 452.152 122.184C451.741 121.811 451.253 121.533 450.688 121.352C450.128 121.165 449.523 121.072 448.872 121.072C448.157 121.072 447.488 121.208 446.864 121.48C446.24 121.752 445.696 122.128 445.232 122.608C444.768 123.088 444.403 123.656 444.136 124.312C443.869 124.968 443.736 125.683 443.736 126.456C443.736 127.363 443.877 128.16 444.16 128.848C444.448 129.531 444.837 130.104 445.328 130.568C445.824 131.032 446.403 131.381 447.064 131.616C447.731 131.851 448.445 131.968 449.208 131.968C450.019 131.968 450.733 131.88 451.352 131.704C451.976 131.528 452.515 131.304 452.968 131.032C453.048 130.984 453.12 130.96 453.184 130.96C453.296 130.96 453.379 131.024 453.432 131.152L453.632 131.68C453.061 132.064 452.411 132.365 451.68 132.584C450.955 132.803 450.131 132.912 449.208 132.912C448.285 132.912 447.427 132.765 446.632 132.472C445.837 132.179 445.147 131.755 444.56 131.2C443.979 130.651 443.52 129.976 443.184 129.176C442.853 128.376 442.688 127.469 442.688 126.456C442.688 125.875 442.76 125.315 442.904 124.776C443.053 124.237 443.261 123.736 443.528 123.272C443.795 122.803 444.115 122.376 444.488 121.992C444.861 121.603 445.277 121.272 445.736 121C446.195 120.723 446.688 120.509 447.216 120.36C447.744 120.205 448.296 120.128 448.872 120.128C449.363 120.128 449.843 120.181 450.312 120.288C450.781 120.395 451.224 120.552 451.64 120.76C452.061 120.968 452.448 121.227 452.8 121.536C453.152 121.84 453.453 122.192 453.704 122.592C453.96 122.987 454.157 123.429 454.296 123.92C454.44 124.405 454.512 124.933 454.512 125.504C454.512 126.08 454.429 126.613 454.264 127.104C454.104 127.589 453.88 128.011 453.592 128.368C453.309 128.725 452.973 129.005 452.584 129.208C452.2 129.411 451.784 129.512 451.336 129.512ZM447.928 128.552C448.093 128.552 448.259 128.525 448.424 128.472C448.595 128.419 448.757 128.325 448.912 128.192C449.072 128.059 449.216 127.877 449.344 127.648C449.477 127.419 449.589 127.131 449.68 126.784L450.288 124.424C450.08 124.376 449.853 124.352 449.608 124.352C449.208 124.352 448.84 124.437 448.504 124.608C448.173 124.773 447.888 124.992 447.648 125.264C447.408 125.536 447.219 125.848 447.08 126.2C446.947 126.552 446.88 126.912 446.88 127.28C446.88 127.664 446.968 127.973 447.144 128.208C447.32 128.437 447.581 128.552 447.928 128.552ZM458.78 131.128C458.14 131.128 457.647 130.949 457.3 130.592C456.959 130.235 456.788 129.72 456.788 129.048V124.088H455.812C455.727 124.088 455.655 124.064 455.596 124.016C455.538 123.963 455.508 123.883 455.508 123.776V123.208L456.836 123.04L457.164 120.536C457.175 120.456 457.21 120.392 457.268 120.344C457.327 120.291 457.402 120.264 457.492 120.264H458.212V123.056H460.532V124.088H458.212V128.952C458.212 129.293 458.295 129.547 458.46 129.712C458.626 129.877 458.839 129.96 459.1 129.96C459.25 129.96 459.378 129.941 459.484 129.904C459.596 129.861 459.692 129.816 459.772 129.768C459.852 129.72 459.919 129.677 459.972 129.64C460.031 129.597 460.082 129.576 460.124 129.576C460.199 129.576 460.266 129.621 460.324 129.712L460.74 130.392C460.495 130.621 460.199 130.803 459.852 130.936C459.506 131.064 459.148 131.128 458.78 131.128ZM462.293 131V119.216H463.717V123.984C464.064 123.616 464.448 123.323 464.869 123.104C465.29 122.88 465.776 122.768 466.325 122.768C466.768 122.768 467.157 122.843 467.493 122.992C467.834 123.136 468.117 123.344 468.341 123.616C468.57 123.883 468.744 124.205 468.861 124.584C468.978 124.963 469.037 125.381 469.037 125.84V131H467.613V125.84C467.613 125.227 467.472 124.752 467.189 124.416C466.912 124.075 466.485 123.904 465.909 123.904C465.488 123.904 465.093 124.005 464.725 124.208C464.362 124.411 464.026 124.685 463.717 125.032V131H462.293ZM471.184 131V122.896H472C472.154 122.896 472.261 122.925 472.32 122.984C472.378 123.043 472.418 123.144 472.44 123.288L472.536 124.552C472.813 123.987 473.154 123.547 473.56 123.232C473.97 122.912 474.45 122.752 475 122.752C475.224 122.752 475.426 122.779 475.608 122.832C475.789 122.88 475.957 122.949 476.112 123.04L475.928 124.104C475.89 124.237 475.808 124.304 475.68 124.304C475.605 124.304 475.49 124.28 475.336 124.232C475.181 124.179 474.965 124.152 474.688 124.152C474.192 124.152 473.776 124.296 473.44 124.584C473.109 124.872 472.832 125.291 472.608 125.84V131H471.184ZM480.917 122.768C481.509 122.768 482.042 122.867 482.517 123.064C482.997 123.261 483.402 123.541 483.733 123.904C484.069 124.267 484.325 124.707 484.501 125.224C484.682 125.736 484.773 126.309 484.773 126.944C484.773 127.584 484.682 128.16 484.501 128.672C484.325 129.184 484.069 129.621 483.733 129.984C483.402 130.347 482.997 130.627 482.517 130.824C482.042 131.016 481.509 131.112 480.917 131.112C480.325 131.112 479.789 131.016 479.309 130.824C478.834 130.627 478.429 130.347 478.093 129.984C477.757 129.621 477.498 129.184 477.317 128.672C477.135 128.16 477.045 127.584 477.045 126.944C477.045 126.309 477.135 125.736 477.317 125.224C477.498 124.707 477.757 124.267 478.093 123.904C478.429 123.541 478.834 123.261 479.309 123.064C479.789 122.867 480.325 122.768 480.917 122.768ZM480.917 130C481.717 130 482.314 129.733 482.709 129.2C483.103 128.661 483.301 127.912 483.301 126.952C483.301 125.987 483.103 125.235 482.709 124.696C482.314 124.157 481.717 123.888 480.917 123.888C480.511 123.888 480.159 123.957 479.861 124.096C479.562 124.235 479.311 124.435 479.109 124.696C478.911 124.957 478.762 125.28 478.661 125.664C478.565 126.043 478.517 126.472 478.517 126.952C478.517 127.432 478.565 127.861 478.661 128.24C478.762 128.619 478.911 128.939 479.109 129.2C479.311 129.456 479.562 129.653 479.861 129.792C480.159 129.931 480.511 130 480.917 130ZM486.527 131V122.896H487.375C487.578 122.896 487.706 122.995 487.759 123.192L487.871 124.072C488.223 123.683 488.615 123.368 489.047 123.128C489.485 122.888 489.989 122.768 490.559 122.768C491.002 122.768 491.391 122.843 491.727 122.992C492.069 123.136 492.351 123.344 492.575 123.616C492.805 123.883 492.978 124.205 493.095 124.584C493.213 124.963 493.271 125.381 493.271 125.84V131H491.847V125.84C491.847 125.227 491.706 124.752 491.423 124.416C491.146 124.075 490.719 123.904 490.143 123.904C489.722 123.904 489.327 124.005 488.959 124.208C488.597 124.411 488.261 124.685 487.951 125.032V131H486.527ZM497.874 131.128C497.234 131.128 496.741 130.949 496.394 130.592C496.053 130.235 495.882 129.72 495.882 129.048V124.088H494.906C494.821 124.088 494.749 124.064 494.69 124.016C494.631 123.963 494.602 123.883 494.602 123.776V123.208L495.93 123.04L496.258 120.536C496.269 120.456 496.303 120.392 496.362 120.344C496.421 120.291 496.495 120.264 496.586 120.264H497.306V123.056H499.626V124.088H497.306V128.952C497.306 129.293 497.389 129.547 497.554 129.712C497.719 129.877 497.933 129.96 498.194 129.96C498.343 129.96 498.471 129.941 498.578 129.904C498.69 129.861 498.786 129.816 498.866 129.768C498.946 129.72 499.013 129.677 499.066 129.64C499.125 129.597 499.175 129.576 499.218 129.576C499.293 129.576 499.359 129.621 499.418 129.712L499.834 130.392C499.589 130.621 499.293 130.803 498.946 130.936C498.599 131.064 498.242 131.128 497.874 131.128ZM504.667 122.768C505.259 122.768 505.792 122.867 506.267 123.064C506.747 123.261 507.152 123.541 507.483 123.904C507.819 124.267 508.075 124.707 508.251 125.224C508.432 125.736 508.523 126.309 508.523 126.944C508.523 127.584 508.432 128.16 508.251 128.672C508.075 129.184 507.819 129.621 507.483 129.984C507.152 130.347 506.747 130.627 506.267 130.824C505.792 131.016 505.259 131.112 504.667 131.112C504.075 131.112 503.539 131.016 503.059 130.824C502.584 130.627 502.179 130.347 501.843 129.984C501.507 129.621 501.248 129.184 501.067 128.672C500.885 128.16 500.795 127.584 500.795 126.944C500.795 126.309 500.885 125.736 501.067 125.224C501.248 124.707 501.507 124.267 501.843 123.904C502.179 123.541 502.584 123.261 503.059 123.064C503.539 122.867 504.075 122.768 504.667 122.768ZM504.667 130C505.467 130 506.064 129.733 506.459 129.2C506.853 128.661 507.051 127.912 507.051 126.952C507.051 125.987 506.853 125.235 506.459 124.696C506.064 124.157 505.467 123.888 504.667 123.888C504.261 123.888 503.909 123.957 503.611 124.096C503.312 124.235 503.061 124.435 502.859 124.696C502.661 124.957 502.512 125.28 502.411 125.664C502.315 126.043 502.267 126.472 502.267 126.952C502.267 127.432 502.315 127.861 502.411 128.24C502.512 128.619 502.661 128.939 502.859 129.2C503.061 129.456 503.312 129.653 503.611 129.792C503.909 129.931 504.261 130 504.667 130ZM510.277 131V122.896H511.093C511.248 122.896 511.355 122.925 511.413 122.984C511.472 123.043 511.512 123.144 511.533 123.288L511.629 124.552C511.907 123.987 512.248 123.547 512.653 123.232C513.064 122.912 513.544 122.752 514.093 122.752C514.317 122.752 514.52 122.779 514.701 122.832C514.883 122.88 515.051 122.949 515.205 123.04L515.021 124.104C514.984 124.237 514.901 124.304 514.773 124.304C514.699 124.304 514.584 124.28 514.429 124.232C514.275 124.179 514.059 124.152 513.781 124.152C513.285 124.152 512.869 124.296 512.533 124.584C512.203 124.872 511.925 125.291 511.701 125.84V131H510.277ZM516.731 131V122.896H517.579C517.781 122.896 517.909 122.995 517.963 123.192L518.075 124.072C518.427 123.683 518.819 123.368 519.251 123.128C519.688 122.888 520.192 122.768 520.763 122.768C521.205 122.768 521.595 122.843 521.931 122.992C522.272 123.136 522.555 123.344 522.779 123.616C523.008 123.883 523.181 124.205 523.299 124.584C523.416 124.963 523.475 125.381 523.475 125.84V131H522.051V125.84C522.051 125.227 521.909 124.752 521.627 124.416C521.349 124.075 520.923 123.904 520.347 123.904C519.925 123.904 519.531 124.005 519.163 124.208C518.8 124.411 518.464 124.685 518.155 125.032V131H516.731Z" fill="black"/>
<path d="M25.944 179.696H30.904V181H24.392V169.536H25.944V179.696ZM38.3388 181H37.7068C37.5681 181 37.4561 180.979 37.3708 180.936C37.2854 180.893 37.2294 180.803 37.2028 180.664L37.0428 179.912C36.8294 180.104 36.6214 180.277 36.4188 180.432C36.2161 180.581 36.0028 180.709 35.7788 180.816C35.5548 180.917 35.3148 180.995 35.0588 181.048C34.8081 181.101 34.5281 181.128 34.2188 181.128C33.9041 181.128 33.6081 181.085 33.3307 181C33.0588 180.909 32.8214 180.776 32.6188 180.6C32.4161 180.424 32.2534 180.203 32.1308 179.936C32.0134 179.664 31.9548 179.344 31.9548 178.976C31.9548 178.656 32.0428 178.349 32.2188 178.056C32.3948 177.757 32.6774 177.493 33.0668 177.264C33.4614 177.035 33.9761 176.848 34.6108 176.704C35.2454 176.555 36.0214 176.469 36.9388 176.448V175.816C36.9388 175.187 36.8028 174.712 36.5308 174.392C36.2641 174.067 35.8668 173.904 35.3388 173.904C34.9921 173.904 34.6988 173.949 34.4588 174.04C34.2241 174.125 34.0188 174.224 33.8428 174.336C33.6721 174.443 33.5228 174.541 33.3948 174.632C33.2721 174.717 33.1494 174.76 33.0268 174.76C32.9308 174.76 32.8454 174.736 32.7708 174.688C32.7014 174.635 32.6454 174.571 32.6028 174.496L32.3468 174.04C32.7948 173.608 33.2774 173.285 33.7948 173.072C34.3121 172.859 34.8854 172.752 35.5148 172.752C35.9681 172.752 36.3708 172.827 36.7228 172.976C37.0748 173.125 37.3708 173.333 37.6108 173.6C37.8508 173.867 38.0321 174.189 38.1548 174.568C38.2774 174.947 38.3388 175.363 38.3388 175.816V181ZM34.6428 180.128C34.8934 180.128 35.1228 180.104 35.3307 180.056C35.5388 180.003 35.7334 179.931 35.9148 179.84C36.1014 179.744 36.2774 179.629 36.4428 179.496C36.6134 179.363 36.7788 179.211 36.9388 179.04V177.352C36.2828 177.373 35.7254 177.427 35.2668 177.512C34.8081 177.592 34.4348 177.699 34.1468 177.832C33.8588 177.965 33.6481 178.123 33.5148 178.304C33.3868 178.485 33.3228 178.688 33.3228 178.912C33.3228 179.125 33.3574 179.309 33.4268 179.464C33.4961 179.619 33.5894 179.747 33.7068 179.848C33.8241 179.944 33.9628 180.016 34.1228 180.064C34.2828 180.107 34.4561 180.128 34.6428 180.128ZM40.4961 181V172.896H41.3121C41.4668 172.896 41.5735 172.925 41.6321 172.984C41.6908 173.043 41.7308 173.144 41.7521 173.288L41.8481 174.552C42.1255 173.987 42.4668 173.547 42.8721 173.232C43.2828 172.912 43.7628 172.752 44.3121 172.752C44.5361 172.752 44.7388 172.779 44.9201 172.832C45.1015 172.88 45.2695 172.949 45.4241 173.04L45.2401 174.104C45.2028 174.237 45.1201 174.304 44.9921 174.304C44.9175 174.304 44.8028 174.28 44.6481 174.232C44.4935 174.179 44.2775 174.152 44.0001 174.152C43.5041 174.152 43.0881 174.296 42.7521 174.584C42.4215 174.872 42.1441 175.291 41.9201 175.84V181H40.4961ZM46.9493 181V172.896H47.7653C47.9199 172.896 48.0266 172.925 48.0853 172.984C48.1439 173.043 48.1839 173.144 48.2053 173.288L48.3013 174.552C48.5786 173.987 48.9199 173.547 49.3253 173.232C49.7359 172.912 50.2159 172.752 50.7653 172.752C50.9893 172.752 51.1919 172.779 51.3733 172.832C51.5546 172.88 51.7226 172.949 51.8773 173.04L51.6933 174.104C51.6559 174.237 51.5733 174.304 51.4453 174.304C51.3706 174.304 51.2559 174.28 51.1013 174.232C50.9466 174.179 50.7306 174.152 50.4533 174.152C49.9573 174.152 49.5413 174.296 49.2053 174.584C48.8746 174.872 48.5973 175.291 48.3733 175.84V181H46.9493ZM55.7784 183.392C55.7304 183.499 55.669 183.584 55.5944 183.648C55.525 183.712 55.4157 183.744 55.2664 183.744H54.2104L55.6904 180.528L52.3464 172.896H53.5784C53.701 172.896 53.797 172.928 53.8664 172.992C53.9357 173.051 53.9864 173.117 54.0184 173.192L56.1864 178.296C56.2344 178.413 56.2744 178.531 56.3064 178.648C56.3437 178.765 56.3757 178.885 56.4024 179.008C56.4397 178.885 56.477 178.765 56.5144 178.648C56.5517 178.531 56.5944 178.411 56.6424 178.288L58.7464 173.192C58.7784 173.107 58.8317 173.037 58.9064 172.984C58.9864 172.925 59.0717 172.896 59.1624 172.896H60.2984L55.7784 183.392Z" fill="black"/>
<path d="M274.2 169.536V170.84H270.496V181H268.944V170.84H265.224V169.536H274.2ZM275.606 181V169.216H277.03V173.984C277.376 173.616 277.76 173.323 278.182 173.104C278.603 172.88 279.088 172.768 279.638 172.768C280.08 172.768 280.47 172.843 280.806 172.992C281.147 173.136 281.43 173.344 281.654 173.616C281.883 173.883 282.056 174.205 282.174 174.584C282.291 174.963 282.35 175.381 282.35 175.84V181H280.926V175.84C280.926 175.227 280.784 174.752 280.502 174.416C280.224 174.075 279.798 173.904 279.222 173.904C278.8 173.904 278.406 174.005 278.038 174.208C277.675 174.411 277.339 174.685 277.03 175.032V181H275.606ZM287.704 172.768C288.189 172.768 288.637 172.851 289.048 173.016C289.459 173.176 289.813 173.411 290.112 173.72C290.411 174.024 290.643 174.403 290.808 174.856C290.979 175.304 291.064 175.816 291.064 176.392C291.064 176.616 291.04 176.765 290.992 176.84C290.944 176.915 290.853 176.952 290.72 176.952H285.328C285.339 177.464 285.408 177.909 285.536 178.288C285.664 178.667 285.84 178.984 286.064 179.24C286.288 179.491 286.555 179.68 286.864 179.808C287.173 179.931 287.52 179.992 287.904 179.992C288.261 179.992 288.568 179.952 288.824 179.872C289.085 179.787 289.309 179.696 289.496 179.6C289.683 179.504 289.837 179.416 289.96 179.336C290.088 179.251 290.197 179.208 290.288 179.208C290.405 179.208 290.496 179.253 290.56 179.344L290.96 179.864C290.784 180.077 290.573 180.264 290.328 180.424C290.083 180.579 289.819 180.707 289.536 180.808C289.259 180.909 288.971 180.984 288.672 181.032C288.373 181.085 288.077 181.112 287.784 181.112C287.224 181.112 286.707 181.019 286.232 180.832C285.763 180.64 285.355 180.363 285.008 180C284.667 179.632 284.4 179.179 284.208 178.64C284.016 178.101 283.92 177.483 283.92 176.784C283.92 176.219 284.005 175.691 284.176 175.2C284.352 174.709 284.603 174.285 284.928 173.928C285.253 173.565 285.651 173.283 286.12 173.08C286.589 172.872 287.117 172.768 287.704 172.768ZM287.736 173.816C287.048 173.816 286.507 174.016 286.112 174.416C285.717 174.811 285.472 175.36 285.376 176.064H289.784C289.784 175.733 289.739 175.432 289.648 175.16C289.557 174.883 289.424 174.645 289.248 174.448C289.072 174.245 288.856 174.091 288.6 173.984C288.349 173.872 288.061 173.816 287.736 173.816ZM296.205 181V169.536H299.861C300.565 169.536 301.17 169.605 301.677 169.744C302.189 169.883 302.607 170.08 302.933 170.336C303.263 170.592 303.506 170.907 303.661 171.28C303.821 171.648 303.901 172.064 303.901 172.528C303.901 172.811 303.855 173.083 303.765 173.344C303.679 173.605 303.546 173.848 303.365 174.072C303.189 174.296 302.965 174.496 302.693 174.672C302.426 174.848 302.111 174.992 301.749 175.104C302.586 175.269 303.218 175.571 303.645 176.008C304.071 176.445 304.285 177.021 304.285 177.736C304.285 178.221 304.194 178.664 304.013 179.064C303.837 179.464 303.575 179.808 303.229 180.096C302.887 180.384 302.466 180.608 301.965 180.768C301.469 180.923 300.901 181 300.261 181H296.205ZM297.757 175.776V179.768H300.237C300.679 179.768 301.058 179.717 301.373 179.616C301.693 179.515 301.954 179.373 302.157 179.192C302.365 179.005 302.517 178.787 302.613 178.536C302.709 178.28 302.757 178 302.757 177.696C302.757 177.104 302.546 176.637 302.125 176.296C301.709 175.949 301.077 175.776 300.229 175.776H297.757ZM297.757 174.672H299.805C300.242 174.672 300.621 174.624 300.941 174.528C301.261 174.432 301.525 174.299 301.733 174.128C301.946 173.957 302.103 173.752 302.205 173.512C302.306 173.267 302.357 173 302.357 172.712C302.357 172.04 302.154 171.547 301.749 171.232C301.343 170.917 300.714 170.76 299.861 170.76H297.757V174.672ZM307.924 172.896V181H306.5V172.896H307.924ZM308.244 170.352C308.244 170.491 308.215 170.621 308.156 170.744C308.103 170.861 308.028 170.968 307.932 171.064C307.841 171.155 307.735 171.227 307.612 171.28C307.489 171.333 307.359 171.36 307.22 171.36C307.081 171.36 306.951 171.333 306.828 171.28C306.711 171.227 306.604 171.155 306.508 171.064C306.417 170.968 306.345 170.861 306.292 170.744C306.239 170.621 306.212 170.491 306.212 170.352C306.212 170.213 306.239 170.083 306.292 169.96C306.345 169.832 306.417 169.723 306.508 169.632C306.604 169.536 306.711 169.461 306.828 169.408C306.951 169.355 307.081 169.328 307.22 169.328C307.359 169.328 307.489 169.355 307.612 169.408C307.735 169.461 307.841 169.536 307.932 169.632C308.028 169.723 308.103 169.832 308.156 169.96C308.215 170.083 308.244 170.213 308.244 170.352ZM310.434 181V172.896H311.25C311.404 172.896 311.511 172.925 311.57 172.984C311.628 173.043 311.668 173.144 311.69 173.288L311.786 174.552C312.063 173.987 312.404 173.547 312.81 173.232C313.22 172.912 313.7 172.752 314.25 172.752C314.474 172.752 314.676 172.779 314.858 172.832C315.039 172.88 315.207 172.949 315.362 173.04L315.178 174.104C315.14 174.237 315.058 174.304 314.93 174.304C314.855 174.304 314.74 174.28 314.586 174.232C314.431 174.179 314.215 174.152 313.938 174.152C313.442 174.152 313.026 174.296 312.69 174.584C312.359 174.872 312.082 175.291 311.858 175.84V181H310.434ZM322.591 181C322.388 181 322.26 180.901 322.207 180.704L322.079 179.72C321.732 180.141 321.335 180.48 320.887 180.736C320.444 180.987 319.935 181.112 319.359 181.112C318.895 181.112 318.473 181.024 318.095 180.848C317.716 180.667 317.393 180.403 317.127 180.056C316.86 179.709 316.655 179.277 316.511 178.76C316.367 178.243 316.295 177.648 316.295 176.976C316.295 176.379 316.375 175.824 316.535 175.312C316.695 174.795 316.924 174.347 317.223 173.968C317.527 173.589 317.895 173.293 318.327 173.08C318.759 172.861 319.249 172.752 319.799 172.752C320.295 172.752 320.719 172.837 321.071 173.008C321.423 173.173 321.737 173.408 322.015 173.712V169.216H323.439V181H322.591ZM319.831 179.96C320.295 179.96 320.7 179.853 321.047 179.64C321.399 179.427 321.721 179.125 322.015 178.736V174.816C321.753 174.464 321.465 174.219 321.151 174.08C320.841 173.936 320.497 173.864 320.119 173.864C319.361 173.864 318.78 174.133 318.375 174.672C317.969 175.211 317.767 175.979 317.767 176.976C317.767 177.504 317.812 177.957 317.903 178.336C317.993 178.709 318.127 179.019 318.303 179.264C318.479 179.504 318.695 179.68 318.951 179.792C319.207 179.904 319.5 179.96 319.831 179.96Z" fill="black"/>
<path d="M451.336 179.512C450.92 179.512 450.581 179.413 450.32 179.216C450.059 179.013 449.893 178.704 449.824 178.288C449.515 178.72 449.179 179.029 448.816 179.216C448.453 179.403 448.064 179.496 447.648 179.496C447.328 179.496 447.051 179.443 446.816 179.336C446.581 179.224 446.384 179.072 446.224 178.88C446.069 178.683 445.952 178.451 445.872 178.184C445.797 177.917 445.76 177.629 445.76 177.32C445.76 176.867 445.845 176.411 446.016 175.952C446.192 175.488 446.451 175.072 446.792 174.704C447.133 174.331 447.557 174.027 448.064 173.792C448.576 173.557 449.165 173.44 449.832 173.44C450.189 173.44 450.501 173.469 450.768 173.528C451.04 173.581 451.296 173.661 451.536 173.768L450.792 176.656C450.691 177.056 450.64 177.387 450.64 177.648C450.64 177.84 450.664 178 450.712 178.128C450.76 178.251 450.824 178.349 450.904 178.424C450.989 178.493 451.085 178.541 451.192 178.568C451.304 178.595 451.421 178.608 451.544 178.608C451.805 178.608 452.053 178.533 452.288 178.384C452.523 178.235 452.728 178.024 452.904 177.752C453.085 177.48 453.227 177.155 453.328 176.776C453.435 176.392 453.488 175.968 453.488 175.504C453.488 174.768 453.368 174.123 453.128 173.568C452.893 173.013 452.568 172.552 452.152 172.184C451.741 171.811 451.253 171.533 450.688 171.352C450.128 171.165 449.523 171.072 448.872 171.072C448.157 171.072 447.488 171.208 446.864 171.48C446.24 171.752 445.696 172.128 445.232 172.608C444.768 173.088 444.403 173.656 444.136 174.312C443.869 174.968 443.736 175.683 443.736 176.456C443.736 177.363 443.877 178.16 444.16 178.848C444.448 179.531 444.837 180.104 445.328 180.568C445.824 181.032 446.403 181.381 447.064 181.616C447.731 181.851 448.445 181.968 449.208 181.968C450.019 181.968 450.733 181.88 451.352 181.704C451.976 181.528 452.515 181.304 452.968 181.032C453.048 180.984 453.12 180.96 453.184 180.96C453.296 180.96 453.379 181.024 453.432 181.152L453.632 181.68C453.061 182.064 452.411 182.365 451.68 182.584C450.955 182.803 450.131 182.912 449.208 182.912C448.285 182.912 447.427 182.765 446.632 182.472C445.837 182.179 445.147 181.755 444.56 181.2C443.979 180.651 443.52 179.976 443.184 179.176C442.853 178.376 442.688 177.469 442.688 176.456C442.688 175.875 442.76 175.315 442.904 174.776C443.053 174.237 443.261 173.736 443.528 173.272C443.795 172.803 444.115 172.376 444.488 171.992C444.861 171.603 445.277 171.272 445.736 171C446.195 170.723 446.688 170.509 447.216 170.36C447.744 170.205 448.296 170.128 448.872 170.128C449.363 170.128 449.843 170.181 450.312 170.288C450.781 170.395 451.224 170.552 451.64 170.76C452.061 170.968 452.448 171.227 452.8 171.536C453.152 171.84 453.453 172.192 453.704 172.592C453.96 172.987 454.157 173.429 454.296 173.92C454.44 174.405 454.512 174.933 454.512 175.504C454.512 176.08 454.429 176.613 454.264 177.104C454.104 177.589 453.88 178.011 453.592 178.368C453.309 178.725 452.973 179.005 452.584 179.208C452.2 179.411 451.784 179.512 451.336 179.512ZM447.928 178.552C448.093 178.552 448.259 178.525 448.424 178.472C448.595 178.419 448.757 178.325 448.912 178.192C449.072 178.059 449.216 177.877 449.344 177.648C449.477 177.419 449.589 177.131 449.68 176.784L450.288 174.424C450.08 174.376 449.853 174.352 449.608 174.352C449.208 174.352 448.84 174.437 448.504 174.608C448.173 174.773 447.888 174.992 447.648 175.264C447.408 175.536 447.219 175.848 447.08 176.2C446.947 176.552 446.88 176.912 446.88 177.28C446.88 177.664 446.968 177.973 447.144 178.208C447.32 178.437 447.581 178.552 447.928 178.552ZM456.372 181V169.216H457.804V174.064C458.14 173.675 458.524 173.363 458.956 173.128C459.394 172.888 459.892 172.768 460.452 172.768C460.922 172.768 461.346 172.856 461.724 173.032C462.103 173.208 462.426 173.472 462.692 173.824C462.959 174.171 463.164 174.603 463.308 175.12C463.452 175.632 463.524 176.224 463.524 176.896C463.524 177.493 463.444 178.051 463.284 178.568C463.124 179.08 462.892 179.525 462.588 179.904C462.29 180.277 461.922 180.573 461.484 180.792C461.052 181.005 460.564 181.112 460.02 181.112C459.498 181.112 459.052 181.011 458.684 180.808C458.322 180.605 458.004 180.323 457.732 179.96L457.66 180.696C457.618 180.899 457.495 181 457.292 181H456.372ZM459.988 173.904C459.524 173.904 459.116 174.011 458.764 174.224C458.418 174.437 458.098 174.739 457.804 175.128V179.048C458.06 179.4 458.343 179.648 458.652 179.792C458.967 179.936 459.316 180.008 459.7 180.008C460.458 180.008 461.039 179.739 461.444 179.2C461.85 178.661 462.052 177.893 462.052 176.896C462.052 176.368 462.004 175.915 461.908 175.536C461.818 175.157 461.684 174.848 461.508 174.608C461.332 174.363 461.116 174.184 460.86 174.072C460.604 173.96 460.314 173.904 459.988 173.904ZM466.846 172.896V181H465.422V172.896H466.846ZM467.166 170.352C467.166 170.491 467.136 170.621 467.078 170.744C467.024 170.861 466.95 170.968 466.854 171.064C466.763 171.155 466.656 171.227 466.534 171.28C466.411 171.333 466.28 171.36 466.142 171.36C466.003 171.36 465.872 171.333 465.75 171.28C465.632 171.227 465.526 171.155 465.43 171.064C465.339 170.968 465.267 170.861 465.214 170.744C465.16 170.621 465.134 170.491 465.134 170.352C465.134 170.213 465.16 170.083 465.214 169.96C465.267 169.832 465.339 169.723 465.43 169.632C465.526 169.536 465.632 169.461 465.75 169.408C465.872 169.355 466.003 169.328 466.142 169.328C466.28 169.328 466.411 169.355 466.534 169.408C466.656 169.461 466.763 169.536 466.854 169.632C466.95 169.723 467.024 169.832 467.078 169.96C467.136 170.083 467.166 170.213 467.166 170.352ZM469.356 181V172.896H470.172C470.326 172.896 470.433 172.925 470.492 172.984C470.55 173.043 470.59 173.144 470.612 173.288L470.708 174.552C470.985 173.987 471.326 173.547 471.732 173.232C472.142 172.912 472.622 172.752 473.172 172.752C473.396 172.752 473.598 172.779 473.78 172.832C473.961 172.88 474.129 172.949 474.284 173.04L474.1 174.104C474.062 174.237 473.98 174.304 473.852 174.304C473.777 174.304 473.662 174.28 473.508 174.232C473.353 174.179 473.137 174.152 472.86 174.152C472.364 174.152 471.948 174.296 471.612 174.584C471.281 174.872 471.004 175.291 470.78 175.84V181H469.356ZM481.513 181C481.31 181 481.182 180.901 481.129 180.704L481.001 179.72C480.654 180.141 480.257 180.48 479.809 180.736C479.366 180.987 478.857 181.112 478.281 181.112C477.817 181.112 477.395 181.024 477.017 180.848C476.638 180.667 476.315 180.403 476.049 180.056C475.782 179.709 475.577 179.277 475.433 178.76C475.289 178.243 475.217 177.648 475.217 176.976C475.217 176.379 475.297 175.824 475.457 175.312C475.617 174.795 475.846 174.347 476.145 173.968C476.449 173.589 476.817 173.293 477.249 173.08C477.681 172.861 478.171 172.752 478.721 172.752C479.217 172.752 479.641 172.837 479.993 173.008C480.345 173.173 480.659 173.408 480.937 173.712V169.216H482.361V181H481.513ZM478.753 179.96C479.217 179.96 479.622 179.853 479.969 179.64C480.321 179.427 480.643 179.125 480.937 178.736V174.816C480.675 174.464 480.387 174.219 480.073 174.08C479.763 173.936 479.419 173.864 479.041 173.864C478.283 173.864 477.702 174.133 477.297 174.672C476.891 175.211 476.689 175.979 476.689 176.976C476.689 177.504 476.734 177.957 476.825 178.336C476.915 178.709 477.049 179.019 477.225 179.264C477.401 179.504 477.617 179.68 477.873 179.792C478.129 179.904 478.422 179.96 478.753 179.96Z" fill="black"/>
<line y1="49" x2="604" y2="49" stroke="#DFE2E6" stroke-width="2"/>
<line y1="99.5" x2="604" y2="99.5" stroke="#DFE2E6"/>
<line y1="149.5" x2="604" y2="149.5" stroke="#DFE2E6"/>
</svg>
