<svg width="604" height="141" viewBox="0 0 604 141" fill="none" xmlns="http://www.w3.org/2000/svg">
<rect y="70.5" width="604" height="35.25" fill="white"/>
<rect width="604" height="141" fill="white"/>
<line y1="70.5" x2="604" y2="70.5" stroke="#DFE2E6"/>
<line y1="105.5" x2="604" y2="105.5" stroke="#DFE2E6"/>
<path d="M28.704 55.29C28.704 55.93 28.624 56.5033 28.464 57.01C28.3093 57.5167 28.0773 57.946 27.768 58.298C27.464 58.6447 27.088 58.9113 26.64 59.098C26.192 59.2847 25.6773 59.378 25.096 59.378C24.5787 59.378 24.04 59.3033 23.48 59.154C23.4907 58.9993 23.504 58.8473 23.52 58.698C23.536 58.5433 23.552 58.3913 23.568 58.242C23.5787 58.1513 23.6107 58.0793 23.664 58.026C23.7227 57.9673 23.808 57.938 23.92 57.938C24.016 57.938 24.144 57.962 24.304 58.01C24.464 58.058 24.6773 58.082 24.944 58.082C25.296 58.082 25.608 58.0287 25.88 57.922C26.1573 57.8153 26.3893 57.65 26.576 57.426C26.768 57.202 26.912 56.9167 27.008 56.57C27.1093 56.218 27.16 55.802 27.16 55.322V47.786H28.704V55.29ZM34.5574 51.018C35.1494 51.018 35.6827 51.1167 36.1574 51.314C36.6374 51.5113 37.0427 51.7913 37.3734 52.154C37.7094 52.5167 37.9654 52.9567 38.1414 53.474C38.3227 53.986 38.4134 54.5593 38.4134 55.194C38.4134 55.834 38.3227 56.41 38.1414 56.922C37.9654 57.434 37.7094 57.8713 37.3734 58.234C37.0427 58.5967 36.6374 58.8767 36.1574 59.074C35.6827 59.266 35.1494 59.362 34.5574 59.362C33.9654 59.362 33.4294 59.266 32.9494 59.074C32.4747 58.8767 32.0694 58.5967 31.7334 58.234C31.3974 57.8713 31.1387 57.434 30.9574 56.922C30.776 56.41 30.6854 55.834 30.6854 55.194C30.6854 54.5593 30.776 53.986 30.9574 53.474C31.1387 52.9567 31.3974 52.5167 31.7334 52.154C32.0694 51.7913 32.4747 51.5113 32.9494 51.314C33.4294 51.1167 33.9654 51.018 34.5574 51.018ZM34.5574 58.25C35.3574 58.25 35.9547 57.9833 36.3494 57.45C36.744 56.9113 36.9414 56.162 36.9414 55.202C36.9414 54.2367 36.744 53.4847 36.3494 52.946C35.9547 52.4073 35.3574 52.138 34.5574 52.138C34.152 52.138 33.8 52.2073 33.5014 52.346C33.2027 52.4847 32.952 52.6847 32.7494 52.946C32.552 53.2073 32.4027 53.53 32.3014 53.914C32.2054 54.2927 32.1574 54.722 32.1574 55.202C32.1574 55.682 32.2054 56.1113 32.3014 56.49C32.4027 56.8687 32.552 57.1887 32.7494 57.45C32.952 57.706 33.2027 57.9033 33.5014 58.042C33.8 58.1807 34.152 58.25 34.5574 58.25ZM40.168 59.25V47.466H41.592V52.234C41.9387 51.866 42.3227 51.5727 42.744 51.354C43.1653 51.13 43.6507 51.018 44.2 51.018C44.6427 51.018 45.032 51.0927 45.368 51.242C45.7093 51.386 45.992 51.594 46.216 51.866C46.4453 52.1327 46.6187 52.4553 46.736 52.834C46.8533 53.2127 46.912 53.6313 46.912 54.09V59.25H45.488V54.09C45.488 53.4767 45.3467 53.002 45.064 52.666C44.7867 52.3247 44.36 52.154 43.784 52.154C43.3627 52.154 42.968 52.2553 42.6 52.458C42.2373 52.6607 41.9013 52.9353 41.592 53.282V59.25H40.168ZM49.0586 59.25V51.146H49.9066C50.1093 51.146 50.2373 51.2447 50.2906 51.442L50.4026 52.322C50.7546 51.9327 51.1466 51.618 51.5786 51.378C52.016 51.138 52.52 51.018 53.0906 51.018C53.5333 51.018 53.9226 51.0927 54.2586 51.242C54.6 51.386 54.8826 51.594 55.1066 51.866C55.336 52.1327 55.5093 52.4553 55.6266 52.834C55.744 53.2127 55.8026 53.6313 55.8026 54.09V59.25H54.3786V54.09C54.3786 53.4767 54.2373 53.002 53.9546 52.666C53.6773 52.3247 53.2506 52.154 52.6746 52.154C52.2533 52.154 51.8586 52.2553 51.4906 52.458C51.128 52.6607 50.792 52.9353 50.4826 53.282V59.25H49.0586Z" fill="black"/>
<path d="M277.04 53.522C277.04 54.3807 276.904 55.17 276.632 55.89C276.36 56.6047 275.976 57.2207 275.48 57.738C274.984 58.2553 274.387 58.658 273.688 58.946C272.995 59.2287 272.227 59.37 271.384 59.37C270.541 59.37 269.773 59.2287 269.08 58.946C268.387 58.658 267.792 58.2553 267.296 57.738C266.8 57.2207 266.416 56.6047 266.144 55.89C265.872 55.17 265.736 54.3807 265.736 53.522C265.736 52.6633 265.872 51.8767 266.144 51.162C266.416 50.442 266.8 49.8233 267.296 49.306C267.792 48.7833 268.387 48.378 269.08 48.09C269.773 47.802 270.541 47.658 271.384 47.658C272.227 47.658 272.995 47.802 273.688 48.09C274.387 48.378 274.984 48.7833 275.48 49.306C275.976 49.8233 276.36 50.442 276.632 51.162C276.904 51.8767 277.04 52.6633 277.04 53.522ZM275.448 53.522C275.448 52.818 275.352 52.186 275.16 51.626C274.968 51.066 274.696 50.594 274.344 50.21C273.992 49.8207 273.565 49.522 273.064 49.314C272.563 49.106 272.003 49.002 271.384 49.002C270.771 49.002 270.213 49.106 269.712 49.314C269.211 49.522 268.781 49.8207 268.424 50.21C268.072 50.594 267.8 51.066 267.608 51.626C267.416 52.186 267.32 52.818 267.32 53.522C267.32 54.226 267.416 54.858 267.608 55.418C267.8 55.9727 268.072 56.4447 268.424 56.834C268.781 57.218 269.211 57.514 269.712 57.722C270.213 57.9247 270.771 58.026 271.384 58.026C272.003 58.026 272.563 57.9247 273.064 57.722C273.565 57.514 273.992 57.218 274.344 56.834C274.696 56.4447 274.968 55.9727 275.16 55.418C275.352 54.858 275.448 54.226 275.448 53.522ZM281.39 59.378C280.75 59.378 280.256 59.1993 279.91 58.842C279.568 58.4847 279.398 57.97 279.398 57.298V52.338H278.422C278.336 52.338 278.264 52.314 278.206 52.266C278.147 52.2127 278.118 52.1327 278.118 52.026V51.458L279.446 51.29L279.774 48.786C279.784 48.706 279.819 48.642 279.878 48.594C279.936 48.5407 280.011 48.514 280.102 48.514H280.822V51.306H283.142V52.338H280.822V57.202C280.822 57.5433 280.904 57.7967 281.07 57.962C281.235 58.1273 281.448 58.21 281.71 58.21C281.859 58.21 281.987 58.1913 282.094 58.154C282.206 58.1113 282.302 58.066 282.382 58.018C282.462 57.97 282.528 57.9273 282.582 57.89C282.64 57.8473 282.691 57.826 282.734 57.826C282.808 57.826 282.875 57.8713 282.934 57.962L283.35 58.642C283.104 58.8713 282.808 59.0527 282.462 59.186C282.115 59.314 281.758 59.378 281.39 59.378ZM287.358 59.378C286.718 59.378 286.225 59.1993 285.878 58.842C285.537 58.4847 285.366 57.97 285.366 57.298V52.338H284.39C284.305 52.338 284.233 52.314 284.174 52.266C284.116 52.2127 284.086 52.1327 284.086 52.026V51.458L285.414 51.29L285.742 48.786C285.753 48.706 285.788 48.642 285.846 48.594C285.905 48.5407 285.98 48.514 286.07 48.514H286.79V51.306H289.11V52.338H286.79V57.202C286.79 57.5433 286.873 57.7967 287.038 57.962C287.204 58.1273 287.417 58.21 287.678 58.21C287.828 58.21 287.956 58.1913 288.062 58.154C288.174 58.1113 288.27 58.066 288.35 58.018C288.43 57.97 288.497 57.9273 288.55 57.89C288.609 57.8473 288.66 57.826 288.702 57.826C288.777 57.826 288.844 57.8713 288.902 57.962L289.318 58.642C289.073 58.8713 288.777 59.0527 288.43 59.186C288.084 59.314 287.726 59.378 287.358 59.378ZM294.151 51.018C294.743 51.018 295.276 51.1167 295.751 51.314C296.231 51.5113 296.636 51.7913 296.967 52.154C297.303 52.5167 297.559 52.9567 297.735 53.474C297.916 53.986 298.007 54.5593 298.007 55.194C298.007 55.834 297.916 56.41 297.735 56.922C297.559 57.434 297.303 57.8713 296.967 58.234C296.636 58.5967 296.231 58.8767 295.751 59.074C295.276 59.266 294.743 59.362 294.151 59.362C293.559 59.362 293.023 59.266 292.543 59.074C292.068 58.8767 291.663 58.5967 291.327 58.234C290.991 57.8713 290.732 57.434 290.551 56.922C290.37 56.41 290.279 55.834 290.279 55.194C290.279 54.5593 290.37 53.986 290.551 53.474C290.732 52.9567 290.991 52.5167 291.327 52.154C291.663 51.7913 292.068 51.5113 292.543 51.314C293.023 51.1167 293.559 51.018 294.151 51.018ZM294.151 58.25C294.951 58.25 295.548 57.9833 295.943 57.45C296.338 56.9113 296.535 56.162 296.535 55.202C296.535 54.2367 296.338 53.4847 295.943 52.946C295.548 52.4073 294.951 52.138 294.151 52.138C293.746 52.138 293.394 52.2073 293.095 52.346C292.796 52.4847 292.546 52.6847 292.343 52.946C292.146 53.2073 291.996 53.53 291.895 53.914C291.799 54.2927 291.751 54.722 291.751 55.202C291.751 55.682 291.799 56.1113 291.895 56.49C291.996 56.8687 292.146 57.1887 292.343 57.45C292.546 57.706 292.796 57.9033 293.095 58.042C293.394 58.1807 293.746 58.25 294.151 58.25Z" fill="black"/>
<path d="M451.336 57.762C450.92 57.762 450.581 57.6633 450.32 57.466C450.059 57.2633 449.893 56.954 449.824 56.538C449.515 56.97 449.179 57.2793 448.816 57.466C448.453 57.6527 448.064 57.746 447.648 57.746C447.328 57.746 447.051 57.6927 446.816 57.586C446.581 57.474 446.384 57.322 446.224 57.13C446.069 56.9327 445.952 56.7007 445.872 56.434C445.797 56.1673 445.76 55.8793 445.76 55.57C445.76 55.1167 445.845 54.6607 446.016 54.202C446.192 53.738 446.451 53.322 446.792 52.954C447.133 52.5807 447.557 52.2767 448.064 52.042C448.576 51.8073 449.165 51.69 449.832 51.69C450.189 51.69 450.501 51.7193 450.768 51.778C451.04 51.8313 451.296 51.9113 451.536 52.018L450.792 54.906C450.691 55.306 450.64 55.6367 450.64 55.898C450.64 56.09 450.664 56.25 450.712 56.378C450.76 56.5007 450.824 56.5993 450.904 56.674C450.989 56.7433 451.085 56.7913 451.192 56.818C451.304 56.8447 451.421 56.858 451.544 56.858C451.805 56.858 452.053 56.7833 452.288 56.634C452.523 56.4847 452.728 56.274 452.904 56.002C453.085 55.73 453.227 55.4047 453.328 55.026C453.435 54.642 453.488 54.218 453.488 53.754C453.488 53.018 453.368 52.3727 453.128 51.818C452.893 51.2633 452.568 50.802 452.152 50.434C451.741 50.0607 451.253 49.7833 450.688 49.602C450.128 49.4153 449.523 49.322 448.872 49.322C448.157 49.322 447.488 49.458 446.864 49.73C446.24 50.002 445.696 50.378 445.232 50.858C444.768 51.338 444.403 51.906 444.136 52.562C443.869 53.218 443.736 53.9327 443.736 54.706C443.736 55.6127 443.877 56.41 444.16 57.098C444.448 57.7807 444.837 58.354 445.328 58.818C445.824 59.282 446.403 59.6313 447.064 59.866C447.731 60.1007 448.445 60.218 449.208 60.218C450.019 60.218 450.733 60.13 451.352 59.954C451.976 59.778 452.515 59.554 452.968 59.282C453.048 59.234 453.12 59.21 453.184 59.21C453.296 59.21 453.379 59.274 453.432 59.402L453.632 59.93C453.061 60.314 452.411 60.6153 451.68 60.834C450.955 61.0527 450.131 61.162 449.208 61.162C448.285 61.162 447.427 61.0153 446.632 60.722C445.837 60.4287 445.147 60.0047 444.56 59.45C443.979 58.9007 443.52 58.226 443.184 57.426C442.853 56.626 442.688 55.7193 442.688 54.706C442.688 54.1247 442.76 53.5647 442.904 53.026C443.053 52.4873 443.261 51.986 443.528 51.522C443.795 51.0527 444.115 50.626 444.488 50.242C444.861 49.8527 445.277 49.522 445.736 49.25C446.195 48.9727 446.688 48.7593 447.216 48.61C447.744 48.4553 448.296 48.378 448.872 48.378C449.363 48.378 449.843 48.4313 450.312 48.538C450.781 48.6447 451.224 48.802 451.64 49.01C452.061 49.218 452.448 49.4767 452.8 49.786C453.152 50.09 453.453 50.442 453.704 50.842C453.96 51.2367 454.157 51.6793 454.296 52.17C454.44 52.6553 454.512 53.1833 454.512 53.754C454.512 54.33 454.429 54.8633 454.264 55.354C454.104 55.8393 453.88 56.2607 453.592 56.618C453.309 56.9753 452.973 57.2553 452.584 57.458C452.2 57.6607 451.784 57.762 451.336 57.762ZM447.928 56.802C448.093 56.802 448.259 56.7753 448.424 56.722C448.595 56.6687 448.757 56.5753 448.912 56.442C449.072 56.3087 449.216 56.1273 449.344 55.898C449.477 55.6687 449.589 55.3807 449.68 55.034L450.288 52.674C450.08 52.626 449.853 52.602 449.608 52.602C449.208 52.602 448.84 52.6873 448.504 52.858C448.173 53.0233 447.888 53.242 447.648 53.514C447.408 53.786 447.219 54.098 447.08 54.45C446.947 54.802 446.88 55.162 446.88 55.53C446.88 55.914 446.968 56.2233 447.144 56.458C447.32 56.6873 447.581 56.802 447.928 56.802ZM459.604 51.018C460.196 51.018 460.73 51.1167 461.204 51.314C461.684 51.5113 462.09 51.7913 462.42 52.154C462.756 52.5167 463.012 52.9567 463.188 53.474C463.37 53.986 463.46 54.5593 463.46 55.194C463.46 55.834 463.37 56.41 463.188 56.922C463.012 57.434 462.756 57.8713 462.42 58.234C462.09 58.5967 461.684 58.8767 461.204 59.074C460.73 59.266 460.196 59.362 459.604 59.362C459.012 59.362 458.476 59.266 457.996 59.074C457.522 58.8767 457.116 58.5967 456.78 58.234C456.444 57.8713 456.186 57.434 456.004 56.922C455.823 56.41 455.732 55.834 455.732 55.194C455.732 54.5593 455.823 53.986 456.004 53.474C456.186 52.9567 456.444 52.5167 456.78 52.154C457.116 51.7913 457.522 51.5113 457.996 51.314C458.476 51.1167 459.012 51.018 459.604 51.018ZM459.604 58.25C460.404 58.25 461.002 57.9833 461.396 57.45C461.791 56.9113 461.988 56.162 461.988 55.202C461.988 54.2367 461.791 53.4847 461.396 52.946C461.002 52.4073 460.404 52.138 459.604 52.138C459.199 52.138 458.847 52.2073 458.548 52.346C458.25 52.4847 457.999 52.6847 457.796 52.946C457.599 53.2073 457.45 53.53 457.348 53.914C457.252 54.2927 457.204 54.722 457.204 55.202C457.204 55.682 457.252 56.1113 457.348 56.49C457.45 56.8687 457.599 57.1887 457.796 57.45C457.999 57.706 458.25 57.9033 458.548 58.042C458.847 58.1807 459.199 58.25 459.604 58.25ZM467.671 59.378C467.031 59.378 466.538 59.1993 466.191 58.842C465.85 58.4847 465.679 57.97 465.679 57.298V52.338H464.703C464.618 52.338 464.546 52.314 464.487 52.266C464.428 52.2127 464.399 52.1327 464.399 52.026V51.458L465.727 51.29L466.055 48.786C466.066 48.706 466.1 48.642 466.159 48.594C466.218 48.5407 466.292 48.514 466.383 48.514H467.103V51.306H469.423V52.338H467.103V57.202C467.103 57.5433 467.186 57.7967 467.351 57.962C467.516 58.1273 467.73 58.21 467.991 58.21C468.14 58.21 468.268 58.1913 468.375 58.154C468.487 58.1113 468.583 58.066 468.663 58.018C468.743 57.97 468.81 57.9273 468.863 57.89C468.922 57.8473 468.972 57.826 469.015 57.826C469.09 57.826 469.156 57.8713 469.215 57.962L469.631 58.642C469.386 58.8713 469.09 59.0527 468.743 59.186C468.396 59.314 468.039 59.378 467.671 59.378ZM473.64 59.378C473 59.378 472.506 59.1993 472.16 58.842C471.818 58.4847 471.648 57.97 471.648 57.298V52.338H470.672C470.586 52.338 470.514 52.314 470.456 52.266C470.397 52.2127 470.368 52.1327 470.368 52.026V51.458L471.696 51.29L472.024 48.786C472.034 48.706 472.069 48.642 472.128 48.594C472.186 48.5407 472.261 48.514 472.352 48.514H473.072V51.306H475.392V52.338H473.072V57.202C473.072 57.5433 473.154 57.7967 473.32 57.962C473.485 58.1273 473.698 58.21 473.96 58.21C474.109 58.21 474.237 58.1913 474.344 58.154C474.456 58.1113 474.552 58.066 474.632 58.018C474.712 57.97 474.778 57.9273 474.832 57.89C474.89 57.8473 474.941 57.826 474.984 57.826C475.058 57.826 475.125 57.8713 475.184 57.962L475.6 58.642C475.354 58.8713 475.058 59.0527 474.712 59.186C474.365 59.314 474.008 59.378 473.64 59.378ZM480.432 51.018C481.024 51.018 481.558 51.1167 482.032 51.314C482.512 51.5113 482.918 51.7913 483.248 52.154C483.584 52.5167 483.84 52.9567 484.016 53.474C484.198 53.986 484.288 54.5593 484.288 55.194C484.288 55.834 484.198 56.41 484.016 56.922C483.84 57.434 483.584 57.8713 483.248 58.234C482.918 58.5967 482.512 58.8767 482.032 59.074C481.558 59.266 481.024 59.362 480.432 59.362C479.84 59.362 479.304 59.266 478.824 59.074C478.35 58.8767 477.944 58.5967 477.608 58.234C477.272 57.8713 477.014 57.434 476.832 56.922C476.651 56.41 476.56 55.834 476.56 55.194C476.56 54.5593 476.651 53.986 476.832 53.474C477.014 52.9567 477.272 52.5167 477.608 52.154C477.944 51.7913 478.35 51.5113 478.824 51.314C479.304 51.1167 479.84 51.018 480.432 51.018ZM480.432 58.25C481.232 58.25 481.83 57.9833 482.224 57.45C482.619 56.9113 482.816 56.162 482.816 55.202C482.816 54.2367 482.619 53.4847 482.224 52.946C481.83 52.4073 481.232 52.138 480.432 52.138C480.027 52.138 479.675 52.2073 479.376 52.346C479.078 52.4847 478.827 52.6847 478.624 52.946C478.427 53.2073 478.278 53.53 478.176 53.914C478.08 54.2927 478.032 54.722 478.032 55.202C478.032 55.682 478.08 56.1113 478.176 56.49C478.278 56.8687 478.427 57.1887 478.624 57.45C478.827 57.706 479.078 57.9033 479.376 58.042C479.675 58.1807 480.027 58.25 480.432 58.25Z" fill="black"/>
<path d="M32.12 21.272C32.2373 21.272 32.3387 21.3173 32.424 21.408L33.272 22.328C32.8027 22.9093 32.224 23.3547 31.536 23.664C30.8533 23.9733 30.032 24.128 29.072 24.128C28.2133 24.128 27.44 23.9813 26.752 23.688C26.0693 23.3947 25.4853 22.9867 25 22.464C24.5147 21.9413 24.1413 21.3173 23.88 20.592C23.624 19.8667 23.496 19.0747 23.496 18.216C23.496 17.3467 23.64 16.552 23.928 15.832C24.216 15.1067 24.6213 14.4827 25.144 13.96C25.6667 13.4373 26.2907 13.032 27.016 12.744C27.7467 12.4507 28.552 12.304 29.432 12.304C30.2907 12.304 31.04 12.4427 31.68 12.72C32.3253 12.992 32.8773 13.3547 33.336 13.808L32.616 14.808C32.5733 14.872 32.5173 14.928 32.448 14.976C32.384 15.024 32.2933 15.048 32.176 15.048C32.0533 15.048 31.928 15 31.8 14.904C31.672 14.808 31.5093 14.704 31.312 14.592C31.1147 14.48 30.864 14.376 30.56 14.28C30.2613 14.184 29.88 14.136 29.416 14.136C28.872 14.136 28.3707 14.232 27.912 14.424C27.4587 14.6107 27.0667 14.88 26.736 15.232C26.4107 15.584 26.1547 16.0133 25.968 16.52C25.7867 17.0213 25.696 17.5867 25.696 18.216C25.696 18.8667 25.7867 19.4453 25.968 19.952C26.1547 20.4587 26.4053 20.8853 26.72 21.232C27.0347 21.5787 27.4053 21.8453 27.832 22.032C28.2587 22.2133 28.7173 22.304 29.208 22.304C29.5013 22.304 29.7653 22.288 30 22.256C30.24 22.224 30.4587 22.1733 30.656 22.104C30.8587 22.0347 31.048 21.9467 31.224 21.84C31.4053 21.728 31.584 21.592 31.76 21.432C31.8133 21.384 31.8693 21.3467 31.928 21.32C31.9867 21.288 32.0507 21.272 32.12 21.272ZM38.2944 15.664C38.9077 15.664 39.4624 15.7627 39.9584 15.96C40.4597 16.1573 40.8864 16.4373 41.2384 16.8C41.5904 17.1627 41.8624 17.6053 42.0544 18.128C42.2464 18.6507 42.3424 19.2347 42.3424 19.88C42.3424 20.5307 42.2464 21.1173 42.0544 21.64C41.8624 22.1627 41.5904 22.608 41.2384 22.976C40.8864 23.344 40.4597 23.6267 39.9584 23.824C39.4624 24.0213 38.9077 24.12 38.2944 24.12C37.681 24.12 37.1237 24.0213 36.6224 23.824C36.121 23.6267 35.6917 23.344 35.3344 22.976C34.9824 22.608 34.7077 22.1627 34.5104 21.64C34.3184 21.1173 34.2224 20.5307 34.2224 19.88C34.2224 19.2347 34.3184 18.6507 34.5104 18.128C34.7077 17.6053 34.9824 17.1627 35.3344 16.8C35.6917 16.4373 36.121 16.1573 36.6224 15.96C37.1237 15.7627 37.681 15.664 38.2944 15.664ZM38.2944 22.6C38.977 22.6 39.481 22.3707 39.8064 21.912C40.137 21.4533 40.3024 20.7813 40.3024 19.896C40.3024 19.0107 40.137 18.336 39.8064 17.872C39.481 17.408 38.977 17.176 38.2944 17.176C37.601 17.176 37.089 17.4107 36.7584 17.88C36.4277 18.344 36.2624 19.016 36.2624 19.896C36.2624 20.776 36.4277 21.448 36.7584 21.912C37.089 22.3707 37.601 22.6 38.2944 22.6ZM43.8841 24V15.792H45.0921C45.3481 15.792 45.5161 15.912 45.5961 16.152L45.7321 16.8C45.8975 16.6293 46.0708 16.4747 46.2521 16.336C46.4388 16.1973 46.6335 16.0773 46.8361 15.976C47.0441 15.8747 47.2655 15.7973 47.5001 15.744C47.7348 15.6907 47.9908 15.664 48.2681 15.664C48.7161 15.664 49.1135 15.7413 49.4601 15.896C49.8068 16.0453 50.0948 16.2587 50.3241 16.536C50.5588 16.808 50.7348 17.136 50.8521 17.52C50.9748 17.8987 51.0361 18.3173 51.0361 18.776V24H49.0601V18.776C49.0601 18.2747 48.9428 17.888 48.7081 17.616C48.4788 17.3387 48.1321 17.2 47.6681 17.2C47.3268 17.2 47.0068 17.2773 46.7081 17.432C46.4095 17.5867 46.1268 17.7973 45.8601 18.064V24H43.8841ZM58.7539 24C58.4979 24 58.3299 23.88 58.2499 23.64L58.0899 22.848C57.9192 23.04 57.7405 23.2133 57.5539 23.368C57.3672 23.5227 57.1645 23.656 56.9459 23.768C56.7325 23.88 56.5005 23.9653 56.2499 24.024C56.0045 24.088 55.7379 24.12 55.4499 24.12C55.0019 24.12 54.5912 24.0267 54.2179 23.84C53.8445 23.6533 53.5219 23.384 53.2499 23.032C52.9832 22.6747 52.7752 22.2347 52.6259 21.712C52.4819 21.1893 52.4099 20.592 52.4099 19.92C52.4099 19.312 52.4925 18.7467 52.6579 18.224C52.8232 17.7013 53.0605 17.248 53.3699 16.864C53.6792 16.48 54.0499 16.1813 54.4819 15.968C54.9139 15.7493 55.3992 15.64 55.9379 15.64C56.3965 15.64 56.7885 15.7147 57.1139 15.864C57.4392 16.008 57.7299 16.2027 57.9859 16.448V12.112H59.9619V24H58.7539ZM56.1219 22.552C56.5325 22.552 56.8819 22.4667 57.1699 22.296C57.4579 22.1253 57.7299 21.8827 57.9859 21.568V17.888C57.7619 17.616 57.5165 17.424 57.2499 17.312C56.9885 17.2 56.7059 17.144 56.4019 17.144C56.1032 17.144 55.8312 17.2 55.5859 17.312C55.3459 17.424 55.1405 17.5947 54.9699 17.824C54.8045 18.048 54.6765 18.336 54.5859 18.688C54.4952 19.0347 54.4499 19.4453 54.4499 19.92C54.4499 20.4 54.4872 20.808 54.5619 21.144C54.6419 21.4747 54.7539 21.7467 54.8979 21.96C55.0419 22.168 55.2179 22.32 55.4259 22.416C55.6339 22.5067 55.8659 22.552 56.1219 22.552ZM65.4949 15.664C66.0122 15.664 66.4869 15.7467 66.9189 15.912C67.3562 16.0773 67.7322 16.32 68.0469 16.64C68.3615 16.9547 68.6069 17.344 68.7829 17.808C68.9589 18.2667 69.0469 18.792 69.0469 19.384C69.0469 19.5333 69.0389 19.6587 69.0229 19.76C69.0122 19.856 68.9882 19.9333 68.9509 19.992C68.9189 20.0453 68.8735 20.0853 68.8149 20.112C68.7562 20.1333 68.6815 20.144 68.5909 20.144H63.5189C63.5775 20.9867 63.8042 21.6053 64.1989 22C64.5935 22.3947 65.1162 22.592 65.7669 22.592C66.0869 22.592 66.3615 22.5547 66.5909 22.48C66.8255 22.4053 67.0282 22.3227 67.1989 22.232C67.3749 22.1413 67.5269 22.0587 67.6549 21.984C67.7882 21.9093 67.9162 21.872 68.0389 21.872C68.1189 21.872 68.1882 21.888 68.2469 21.92C68.3055 21.952 68.3562 21.9973 68.3989 22.056L68.9749 22.776C68.7562 23.032 68.5109 23.248 68.2389 23.424C67.9669 23.5947 67.6815 23.7333 67.3829 23.84C67.0895 23.9413 66.7882 24.0133 66.4789 24.056C66.1749 24.0987 65.8789 24.12 65.5909 24.12C65.0202 24.12 64.4895 24.0267 63.9989 23.84C63.5082 23.648 63.0815 23.368 62.7189 23C62.3562 22.6267 62.0709 22.168 61.8629 21.624C61.6549 21.0747 61.5509 20.44 61.5509 19.72C61.5509 19.16 61.6415 18.6347 61.8229 18.144C62.0042 17.648 62.2629 17.2187 62.5989 16.856C62.9402 16.488 63.3535 16.1973 63.8389 15.984C64.3295 15.7707 64.8815 15.664 65.4949 15.664ZM65.5349 17.08C64.9589 17.08 64.5082 17.2427 64.1829 17.568C63.8575 17.8933 63.6495 18.3547 63.5589 18.952H67.2709C67.2709 18.696 67.2362 18.456 67.1669 18.232C67.0975 18.0027 66.9909 17.8027 66.8469 17.632C66.7029 17.4613 66.5215 17.328 66.3029 17.232C66.0842 17.1307 65.8282 17.08 65.5349 17.08ZM70.6497 24V15.792H71.8578C72.1138 15.792 72.2818 15.912 72.3618 16.152L72.4978 16.8C72.6631 16.6293 72.8364 16.4747 73.0178 16.336C73.2044 16.1973 73.3991 16.0773 73.6018 15.976C73.8098 15.8747 74.0311 15.7973 74.2658 15.744C74.5004 15.6907 74.7564 15.664 75.0338 15.664C75.4818 15.664 75.8791 15.7413 76.2258 15.896C76.5724 16.0453 76.8604 16.2587 77.0898 16.536C77.3244 16.808 77.5004 17.136 77.6178 17.52C77.7404 17.8987 77.8018 18.3173 77.8018 18.776V24H75.8258V18.776C75.8258 18.2747 75.7084 17.888 75.4738 17.616C75.2444 17.3387 74.8978 17.2 74.4338 17.2C74.0924 17.2 73.7724 17.2773 73.4738 17.432C73.1751 17.5867 72.8924 17.7973 72.6258 18.064V24H70.6497ZM84.6155 17.392C84.5622 17.4773 84.5062 17.5387 84.4475 17.576C84.3888 17.608 84.3142 17.624 84.2235 17.624C84.1275 17.624 84.0235 17.5973 83.9115 17.544C83.8048 17.4907 83.6795 17.432 83.5355 17.368C83.3915 17.2987 83.2262 17.2373 83.0395 17.184C82.8582 17.1307 82.6422 17.104 82.3915 17.104C82.0022 17.104 81.6955 17.1867 81.4715 17.352C81.2475 17.5173 81.1355 17.7333 81.1355 18C81.1355 18.176 81.1915 18.3253 81.3035 18.448C81.4208 18.5653 81.5728 18.6693 81.7595 18.76C81.9515 18.8507 82.1675 18.9333 82.4075 19.008C82.6475 19.0773 82.8928 19.1547 83.1435 19.24C83.3942 19.3253 83.6395 19.424 83.8795 19.536C84.1195 19.6427 84.3328 19.7813 84.5195 19.952C84.7115 20.1173 84.8635 20.3173 84.9755 20.552C85.0928 20.7867 85.1515 21.0693 85.1515 21.4C85.1515 21.7947 85.0795 22.16 84.9355 22.496C84.7915 22.8267 84.5808 23.1147 84.3035 23.36C84.0262 23.6 83.6822 23.7893 83.2715 23.928C82.8662 24.0613 82.3995 24.128 81.8715 24.128C81.5888 24.128 81.3115 24.1013 81.0395 24.048C80.7728 24 80.5142 23.9307 80.2635 23.84C80.0182 23.7493 79.7888 23.6427 79.5755 23.52C79.3675 23.3973 79.1835 23.264 79.0235 23.12L79.4795 22.368C79.5382 22.2773 79.6075 22.208 79.6875 22.16C79.7675 22.112 79.8688 22.088 79.9915 22.088C80.1142 22.088 80.2288 22.1227 80.3355 22.192C80.4475 22.2613 80.5755 22.336 80.7195 22.416C80.8635 22.496 81.0315 22.5707 81.2235 22.64C81.4208 22.7093 81.6688 22.744 81.9675 22.744C82.2022 22.744 82.4022 22.7173 82.5675 22.664C82.7382 22.6053 82.8768 22.5307 82.9835 22.44C83.0955 22.3493 83.1755 22.2453 83.2235 22.128C83.2768 22.0053 83.3035 21.88 83.3035 21.752C83.3035 21.56 83.2448 21.4027 83.1275 21.28C83.0155 21.1573 82.8635 21.0507 82.6715 20.96C82.4848 20.8693 82.2688 20.7893 82.0235 20.72C81.7835 20.6453 81.5355 20.5653 81.2795 20.48C81.0288 20.3947 80.7808 20.296 80.5355 20.184C80.2955 20.0667 80.0795 19.92 79.8875 19.744C79.7008 19.568 79.5488 19.352 79.4315 19.096C79.3195 18.84 79.2635 18.5307 79.2635 18.168C79.2635 17.832 79.3302 17.512 79.4635 17.208C79.5968 16.904 79.7915 16.64 80.0475 16.416C80.3088 16.1867 80.6315 16.0053 81.0155 15.872C81.4048 15.7333 81.8528 15.664 82.3595 15.664C82.9248 15.664 83.4395 15.7573 83.9035 15.944C84.3675 16.1307 84.7542 16.376 85.0635 16.68L84.6155 17.392ZM90.1199 15.664C90.6372 15.664 91.1119 15.7467 91.5439 15.912C91.9812 16.0773 92.3572 16.32 92.6719 16.64C92.9865 16.9547 93.2319 17.344 93.4079 17.808C93.5839 18.2667 93.6719 18.792 93.6719 19.384C93.6719 19.5333 93.6639 19.6587 93.6479 19.76C93.6372 19.856 93.6132 19.9333 93.5759 19.992C93.5439 20.0453 93.4985 20.0853 93.4399 20.112C93.3812 20.1333 93.3065 20.144 93.2159 20.144H88.1439C88.2025 20.9867 88.4292 21.6053 88.8239 22C89.2185 22.3947 89.7412 22.592 90.3919 22.592C90.7119 22.592 90.9865 22.5547 91.2159 22.48C91.4505 22.4053 91.6532 22.3227 91.8239 22.232C91.9999 22.1413 92.1519 22.0587 92.2799 21.984C92.4132 21.9093 92.5412 21.872 92.6639 21.872C92.7439 21.872 92.8132 21.888 92.8719 21.92C92.9305 21.952 92.9812 21.9973 93.0239 22.056L93.5999 22.776C93.3812 23.032 93.1359 23.248 92.8639 23.424C92.5919 23.5947 92.3065 23.7333 92.0079 23.84C91.7145 23.9413 91.4132 24.0133 91.1039 24.056C90.7999 24.0987 90.5039 24.12 90.2159 24.12C89.6452 24.12 89.1145 24.0267 88.6239 23.84C88.1332 23.648 87.7065 23.368 87.3439 23C86.9812 22.6267 86.6959 22.168 86.4879 21.624C86.2799 21.0747 86.1759 20.44 86.1759 19.72C86.1759 19.16 86.2665 18.6347 86.4479 18.144C86.6292 17.648 86.8879 17.2187 87.2239 16.856C87.5652 16.488 87.9785 16.1973 88.4639 15.984C88.9545 15.7707 89.5065 15.664 90.1199 15.664ZM90.1599 17.08C89.5839 17.08 89.1332 17.2427 88.8079 17.568C88.4825 17.8933 88.2745 18.3547 88.1839 18.952H91.8959C91.8959 18.696 91.8612 18.456 91.7919 18.232C91.7225 18.0027 91.6159 17.8027 91.4719 17.632C91.3279 17.4613 91.1465 17.328 90.9279 17.232C90.7092 17.1307 90.4532 17.08 90.1599 17.08ZM101.051 24C100.795 24 100.627 23.88 100.547 23.64L100.387 22.848C100.216 23.04 100.037 23.2133 99.8508 23.368C99.6641 23.5227 99.4614 23.656 99.2428 23.768C99.0294 23.88 98.7974 23.9653 98.5468 24.024C98.3014 24.088 98.0348 24.12 97.7468 24.12C97.2988 24.12 96.8881 24.0267 96.5148 23.84C96.1414 23.6533 95.8188 23.384 95.5468 23.032C95.2801 22.6747 95.0721 22.2347 94.9228 21.712C94.7788 21.1893 94.7068 20.592 94.7068 19.92C94.7068 19.312 94.7894 18.7467 94.9548 18.224C95.1201 17.7013 95.3574 17.248 95.6668 16.864C95.9761 16.48 96.3468 16.1813 96.7788 15.968C97.2108 15.7493 97.6961 15.64 98.2348 15.64C98.6934 15.64 99.0854 15.7147 99.4108 15.864C99.7361 16.008 100.027 16.2027 100.283 16.448V12.112H102.259V24H101.051ZM98.4188 22.552C98.8294 22.552 99.1788 22.4667 99.4668 22.296C99.7548 22.1253 100.027 21.8827 100.283 21.568V17.888C100.059 17.616 99.8134 17.424 99.5468 17.312C99.2854 17.2 99.0028 17.144 98.6988 17.144C98.4001 17.144 98.1281 17.2 97.8828 17.312C97.6428 17.424 97.4374 17.5947 97.2668 17.824C97.1014 18.048 96.9734 18.336 96.8828 18.688C96.7921 19.0347 96.7468 19.4453 96.7468 19.92C96.7468 20.4 96.7841 20.808 96.8588 21.144C96.9388 21.4747 97.0508 21.7467 97.1948 21.96C97.3388 22.168 97.5148 22.32 97.7228 22.416C97.9308 22.5067 98.1628 22.552 98.4188 22.552Z" fill="black"/>
<path d="M274.32 12.432V14.2H270.84V24H268.688V14.2H265.192V12.432H274.32ZM277.046 26.256C276.987 26.3947 276.91 26.4987 276.814 26.568C276.723 26.6427 276.582 26.68 276.39 26.68H274.918L276.454 23.392L273.134 15.792H274.862C275.022 15.792 275.145 15.8293 275.23 15.904C275.315 15.9787 275.379 16.064 275.422 16.16L277.174 20.416C277.233 20.5547 277.283 20.6987 277.326 20.848C277.369 20.9973 277.406 21.1467 277.438 21.296C277.481 21.1413 277.526 20.992 277.574 20.848C277.627 20.704 277.683 20.5573 277.742 20.408L279.39 16.16C279.433 16.0533 279.502 15.9653 279.598 15.896C279.699 15.8267 279.811 15.792 279.934 15.792H281.518L277.046 26.256ZM282.665 26.68V15.792H283.873C284.001 15.792 284.111 15.8213 284.201 15.88C284.292 15.9387 284.351 16.0293 284.377 16.152L284.537 16.912C284.868 16.5333 285.247 16.2267 285.673 15.992C286.105 15.7573 286.609 15.64 287.185 15.64C287.633 15.64 288.041 15.7333 288.409 15.92C288.783 16.1067 289.103 16.3787 289.369 16.736C289.641 17.088 289.849 17.5253 289.993 18.048C290.143 18.5653 290.217 19.16 290.217 19.832C290.217 20.4453 290.135 21.0133 289.969 21.536C289.804 22.0587 289.567 22.512 289.257 22.896C288.953 23.28 288.583 23.5813 288.145 23.8C287.713 24.0133 287.228 24.12 286.689 24.12C286.225 24.12 285.831 24.0507 285.505 23.912C285.185 23.768 284.897 23.5707 284.641 23.32V26.68H282.665ZM286.505 17.2C286.095 17.2 285.743 17.288 285.449 17.464C285.161 17.6347 284.892 17.8773 284.641 18.192V21.872C284.865 22.1493 285.108 22.344 285.369 22.456C285.636 22.5627 285.921 22.616 286.225 22.616C286.524 22.616 286.793 22.56 287.033 22.448C287.279 22.336 287.484 22.1653 287.649 21.936C287.82 21.7067 287.951 21.4187 288.041 21.072C288.132 20.72 288.177 20.3067 288.177 19.832C288.177 19.352 288.137 18.9467 288.057 18.616C287.983 18.28 287.873 18.008 287.729 17.8C287.585 17.592 287.409 17.44 287.201 17.344C286.999 17.248 286.767 17.2 286.505 17.2ZM295.104 15.664C295.622 15.664 296.096 15.7467 296.528 15.912C296.966 16.0773 297.342 16.32 297.656 16.64C297.971 16.9547 298.216 17.344 298.392 17.808C298.568 18.2667 298.656 18.792 298.656 19.384C298.656 19.5333 298.648 19.6587 298.632 19.76C298.622 19.856 298.598 19.9333 298.56 19.992C298.528 20.0453 298.483 20.0853 298.424 20.112C298.366 20.1333 298.291 20.144 298.2 20.144H293.128C293.187 20.9867 293.414 21.6053 293.808 22C294.203 22.3947 294.726 22.592 295.376 22.592C295.696 22.592 295.971 22.5547 296.2 22.48C296.435 22.4053 296.638 22.3227 296.808 22.232C296.984 22.1413 297.136 22.0587 297.264 21.984C297.398 21.9093 297.526 21.872 297.648 21.872C297.728 21.872 297.798 21.888 297.856 21.92C297.915 21.952 297.966 21.9973 298.008 22.056L298.584 22.776C298.366 23.032 298.12 23.248 297.848 23.424C297.576 23.5947 297.291 23.7333 296.992 23.84C296.699 23.9413 296.398 24.0133 296.088 24.056C295.784 24.0987 295.488 24.12 295.2 24.12C294.63 24.12 294.099 24.0267 293.608 23.84C293.118 23.648 292.691 23.368 292.328 23C291.966 22.6267 291.68 22.168 291.472 21.624C291.264 21.0747 291.16 20.44 291.16 19.72C291.16 19.16 291.251 18.6347 291.432 18.144C291.614 17.648 291.872 17.2187 292.208 16.856C292.55 16.488 292.963 16.1973 293.448 15.984C293.939 15.7707 294.491 15.664 295.104 15.664ZM295.144 17.08C294.568 17.08 294.118 17.2427 293.792 17.568C293.467 17.8933 293.259 18.3547 293.168 18.952H296.88C296.88 18.696 296.846 18.456 296.776 18.232C296.707 18.0027 296.6 17.8027 296.456 17.632C296.312 17.4613 296.131 17.328 295.912 17.232C295.694 17.1307 295.438 17.08 295.144 17.08Z" fill="black"/>
<path d="M447.824 22.264C448.24 22.264 448.611 22.1947 448.936 22.056C449.267 21.9173 449.544 21.7227 449.768 21.472C449.997 21.2213 450.171 20.9173 450.288 20.56C450.411 20.2027 450.472 19.8027 450.472 19.36V12.432H452.624V19.36C452.624 20.048 452.512 20.6853 452.288 21.272C452.069 21.8533 451.752 22.3573 451.336 22.784C450.92 23.2053 450.416 23.536 449.824 23.776C449.232 24.0107 448.565 24.128 447.824 24.128C447.083 24.128 446.416 24.0107 445.824 23.776C445.232 23.536 444.728 23.2053 444.312 22.784C443.901 22.3573 443.584 21.8533 443.36 21.272C443.141 20.6853 443.032 20.048 443.032 19.36V12.432H445.184V19.352C445.184 19.7947 445.243 20.1947 445.36 20.552C445.483 20.9093 445.656 21.216 445.88 21.472C446.104 21.7227 446.379 21.9173 446.704 22.056C447.035 22.1947 447.408 22.264 447.824 22.264ZM459.569 17.392C459.515 17.4773 459.459 17.5387 459.401 17.576C459.342 17.608 459.267 17.624 459.177 17.624C459.081 17.624 458.977 17.5973 458.865 17.544C458.758 17.4907 458.633 17.432 458.489 17.368C458.345 17.2987 458.179 17.2373 457.993 17.184C457.811 17.1307 457.595 17.104 457.345 17.104C456.955 17.104 456.649 17.1867 456.425 17.352C456.201 17.5173 456.089 17.7333 456.089 18C456.089 18.176 456.145 18.3253 456.257 18.448C456.374 18.5653 456.526 18.6693 456.713 18.76C456.905 18.8507 457.121 18.9333 457.361 19.008C457.601 19.0773 457.846 19.1547 458.097 19.24C458.347 19.3253 458.593 19.424 458.833 19.536C459.073 19.6427 459.286 19.7813 459.473 19.952C459.665 20.1173 459.817 20.3173 459.929 20.552C460.046 20.7867 460.105 21.0693 460.105 21.4C460.105 21.7947 460.033 22.16 459.889 22.496C459.745 22.8267 459.534 23.1147 459.257 23.36C458.979 23.6 458.635 23.7893 458.225 23.928C457.819 24.0613 457.353 24.128 456.825 24.128C456.542 24.128 456.265 24.1013 455.993 24.048C455.726 24 455.467 23.9307 455.217 23.84C454.971 23.7493 454.742 23.6427 454.529 23.52C454.321 23.3973 454.137 23.264 453.977 23.12L454.433 22.368C454.491 22.2773 454.561 22.208 454.641 22.16C454.721 22.112 454.822 22.088 454.945 22.088C455.067 22.088 455.182 22.1227 455.289 22.192C455.401 22.2613 455.529 22.336 455.673 22.416C455.817 22.496 455.985 22.5707 456.177 22.64C456.374 22.7093 456.622 22.744 456.921 22.744C457.155 22.744 457.355 22.7173 457.521 22.664C457.691 22.6053 457.83 22.5307 457.937 22.44C458.049 22.3493 458.129 22.2453 458.177 22.128C458.23 22.0053 458.257 21.88 458.257 21.752C458.257 21.56 458.198 21.4027 458.081 21.28C457.969 21.1573 457.817 21.0507 457.625 20.96C457.438 20.8693 457.222 20.7893 456.977 20.72C456.737 20.6453 456.489 20.5653 456.233 20.48C455.982 20.3947 455.734 20.296 455.489 20.184C455.249 20.0667 455.033 19.92 454.841 19.744C454.654 19.568 454.502 19.352 454.385 19.096C454.273 18.84 454.217 18.5307 454.217 18.168C454.217 17.832 454.283 17.512 454.417 17.208C454.55 16.904 454.745 16.64 455.001 16.416C455.262 16.1867 455.585 16.0053 455.969 15.872C456.358 15.7333 456.806 15.664 457.313 15.664C457.878 15.664 458.393 15.7573 458.857 15.944C459.321 16.1307 459.707 16.376 460.017 16.68L459.569 17.392ZM465.073 15.664C465.59 15.664 466.065 15.7467 466.497 15.912C466.934 16.0773 467.31 16.32 467.625 16.64C467.94 16.9547 468.185 17.344 468.361 17.808C468.537 18.2667 468.625 18.792 468.625 19.384C468.625 19.5333 468.617 19.6587 468.601 19.76C468.59 19.856 468.566 19.9333 468.529 19.992C468.497 20.0453 468.452 20.0853 468.393 20.112C468.334 20.1333 468.26 20.144 468.169 20.144H463.097C463.156 20.9867 463.382 21.6053 463.777 22C464.172 22.3947 464.694 22.592 465.345 22.592C465.665 22.592 465.94 22.5547 466.169 22.48C466.404 22.4053 466.606 22.3227 466.777 22.232C466.953 22.1413 467.105 22.0587 467.233 21.984C467.366 21.9093 467.494 21.872 467.617 21.872C467.697 21.872 467.766 21.888 467.825 21.92C467.884 21.952 467.934 21.9973 467.977 22.056L468.553 22.776C468.334 23.032 468.089 23.248 467.817 23.424C467.545 23.5947 467.26 23.7333 466.961 23.84C466.668 23.9413 466.366 24.0133 466.057 24.056C465.753 24.0987 465.457 24.12 465.169 24.12C464.598 24.12 464.068 24.0267 463.577 23.84C463.086 23.648 462.66 23.368 462.297 23C461.934 22.6267 461.649 22.168 461.441 21.624C461.233 21.0747 461.129 20.44 461.129 19.72C461.129 19.16 461.22 18.6347 461.401 18.144C461.582 17.648 461.841 17.2187 462.177 16.856C462.518 16.488 462.932 16.1973 463.417 15.984C463.908 15.7707 464.46 15.664 465.073 15.664ZM465.113 17.08C464.537 17.08 464.086 17.2427 463.761 17.568C463.436 17.8933 463.228 18.3547 463.137 18.952H466.849C466.849 18.696 466.814 18.456 466.745 18.232C466.676 18.0027 466.569 17.8027 466.425 17.632C466.281 17.4613 466.1 17.328 465.881 17.232C465.662 17.1307 465.406 17.08 465.113 17.08ZM470.228 24V15.792H471.388C471.591 15.792 471.732 15.8293 471.812 15.904C471.892 15.9787 471.945 16.1067 471.972 16.288L472.092 17.28C472.385 16.7733 472.729 16.3733 473.124 16.08C473.519 15.7867 473.961 15.64 474.452 15.64C474.857 15.64 475.193 15.7333 475.46 15.92L475.204 17.4C475.188 17.496 475.153 17.5653 475.1 17.608C475.047 17.6453 474.975 17.664 474.884 17.664C474.804 17.664 474.695 17.6453 474.556 17.608C474.417 17.5707 474.233 17.552 474.004 17.552C473.593 17.552 473.241 17.6667 472.948 17.896C472.655 18.12 472.407 18.4507 472.204 18.888V24H470.228ZM476.759 24V15.792H477.967C478.223 15.792 478.391 15.912 478.471 16.152L478.607 16.8C478.772 16.6293 478.946 16.4747 479.127 16.336C479.314 16.1973 479.508 16.0773 479.711 15.976C479.919 15.8747 480.14 15.7973 480.375 15.744C480.61 15.6907 480.866 15.664 481.143 15.664C481.591 15.664 481.988 15.7413 482.335 15.896C482.682 16.0453 482.97 16.2587 483.199 16.536C483.434 16.808 483.61 17.136 483.727 17.52C483.85 17.8987 483.911 18.3173 483.911 18.776V24H481.935V18.776C481.935 18.2747 481.818 17.888 481.583 17.616C481.354 17.3387 481.007 17.2 480.543 17.2C480.202 17.2 479.882 17.2773 479.583 17.432C479.284 17.5867 479.002 17.7973 478.735 18.064V24H476.759ZM492.285 24H491.397C491.21 24 491.064 23.9733 490.957 23.92C490.85 23.8613 490.77 23.7467 490.717 23.576L490.541 22.992C490.333 23.1787 490.128 23.344 489.925 23.488C489.728 23.6267 489.522 23.744 489.309 23.84C489.096 23.936 488.869 24.008 488.629 24.056C488.389 24.104 488.122 24.128 487.829 24.128C487.482 24.128 487.162 24.0827 486.869 23.992C486.576 23.896 486.322 23.7547 486.109 23.568C485.901 23.3813 485.738 23.1493 485.621 22.872C485.504 22.5947 485.445 22.272 485.445 21.904C485.445 21.5947 485.525 21.2907 485.685 20.992C485.85 20.688 486.122 20.416 486.501 20.176C486.88 19.9307 487.384 19.728 488.013 19.568C488.642 19.408 489.424 19.3173 490.357 19.296V18.816C490.357 18.2667 490.24 17.8613 490.005 17.6C489.776 17.3333 489.44 17.2 488.997 17.2C488.677 17.2 488.41 17.2373 488.197 17.312C487.984 17.3867 487.797 17.472 487.637 17.568C487.482 17.6587 487.338 17.7413 487.205 17.816C487.072 17.8907 486.925 17.928 486.765 17.928C486.632 17.928 486.517 17.8933 486.421 17.824C486.325 17.7547 486.248 17.6693 486.189 17.568L485.829 16.936C486.773 16.072 487.912 15.64 489.245 15.64C489.725 15.64 490.152 15.72 490.525 15.88C490.904 16.0347 491.224 16.2533 491.485 16.536C491.746 16.8133 491.944 17.1467 492.077 17.536C492.216 17.9253 492.285 18.352 492.285 18.816V24ZM488.445 22.768C488.648 22.768 488.834 22.7493 489.005 22.712C489.176 22.6747 489.336 22.6187 489.485 22.544C489.64 22.4693 489.786 22.3787 489.925 22.272C490.069 22.16 490.213 22.0293 490.357 21.88V20.496C489.781 20.5227 489.298 20.5733 488.909 20.648C488.525 20.7173 488.216 20.808 487.981 20.92C487.746 21.032 487.578 21.1627 487.477 21.312C487.381 21.4613 487.333 21.624 487.333 21.8C487.333 22.1467 487.434 22.3947 487.637 22.544C487.845 22.6933 488.114 22.768 488.445 22.768ZM494.228 24V15.792H495.436C495.692 15.792 495.86 15.912 495.94 16.152L496.068 16.76C496.212 16.6 496.361 16.4533 496.516 16.32C496.676 16.1867 496.844 16.072 497.02 15.976C497.201 15.88 497.393 15.8053 497.596 15.752C497.804 15.6933 498.031 15.664 498.276 15.664C498.793 15.664 499.217 15.8053 499.548 16.088C499.884 16.3653 500.135 16.736 500.3 17.2C500.428 16.928 500.588 16.696 500.78 16.504C500.972 16.3067 501.183 16.1467 501.412 16.024C501.641 15.9013 501.884 15.8107 502.14 15.752C502.401 15.6933 502.663 15.664 502.924 15.664C503.377 15.664 503.78 15.7333 504.132 15.872C504.484 16.0107 504.78 16.2133 505.02 16.48C505.26 16.7467 505.441 17.072 505.564 17.456C505.692 17.84 505.756 18.28 505.756 18.776V24H503.78V18.776C503.78 18.2533 503.665 17.8613 503.436 17.6C503.207 17.3333 502.871 17.2 502.428 17.2C502.225 17.2 502.036 17.2347 501.86 17.304C501.689 17.3733 501.537 17.4747 501.404 17.608C501.276 17.736 501.175 17.8987 501.1 18.096C501.025 18.2933 500.988 18.52 500.988 18.776V24H499.004V18.776C499.004 18.2267 498.892 17.8267 498.668 17.576C498.449 17.3253 498.124 17.2 497.692 17.2C497.409 17.2 497.143 17.272 496.892 17.416C496.647 17.5547 496.417 17.7467 496.204 17.992V24H494.228ZM511.089 15.664C511.606 15.664 512.081 15.7467 512.513 15.912C512.95 16.0773 513.326 16.32 513.641 16.64C513.955 16.9547 514.201 17.344 514.377 17.808C514.553 18.2667 514.641 18.792 514.641 19.384C514.641 19.5333 514.633 19.6587 514.617 19.76C514.606 19.856 514.582 19.9333 514.545 19.992C514.513 20.0453 514.467 20.0853 514.409 20.112C514.35 20.1333 514.275 20.144 514.185 20.144H509.113C509.171 20.9867 509.398 21.6053 509.793 22C510.187 22.3947 510.71 22.592 511.361 22.592C511.681 22.592 511.955 22.5547 512.185 22.48C512.419 22.4053 512.622 22.3227 512.793 22.232C512.969 22.1413 513.121 22.0587 513.249 21.984C513.382 21.9093 513.51 21.872 513.633 21.872C513.713 21.872 513.782 21.888 513.841 21.92C513.899 21.952 513.95 21.9973 513.993 22.056L514.569 22.776C514.35 23.032 514.105 23.248 513.833 23.424C513.561 23.5947 513.275 23.7333 512.977 23.84C512.683 23.9413 512.382 24.0133 512.073 24.056C511.769 24.0987 511.473 24.12 511.185 24.12C510.614 24.12 510.083 24.0267 509.593 23.84C509.102 23.648 508.675 23.368 508.313 23C507.95 22.6267 507.665 22.168 507.457 21.624C507.249 21.0747 507.145 20.44 507.145 19.72C507.145 19.16 507.235 18.6347 507.417 18.144C507.598 17.648 507.857 17.2187 508.193 16.856C508.534 16.488 508.947 16.1973 509.433 15.984C509.923 15.7707 510.475 15.664 511.089 15.664ZM511.129 17.08C510.553 17.08 510.102 17.2427 509.777 17.568C509.451 17.8933 509.243 18.3547 509.153 18.952H512.865C512.865 18.696 512.83 18.456 512.761 18.232C512.691 18.0027 512.585 17.8027 512.441 17.632C512.297 17.4613 512.115 17.328 511.897 17.232C511.678 17.1307 511.422 17.08 511.129 17.08Z" fill="black"/>
<path d="M28.704 90.54C28.704 91.18 28.624 91.7533 28.464 92.26C28.3093 92.7667 28.0773 93.196 27.768 93.548C27.464 93.8947 27.088 94.1613 26.64 94.348C26.192 94.5347 25.6773 94.628 25.096 94.628C24.5787 94.628 24.04 94.5533 23.48 94.404C23.4907 94.2493 23.504 94.0973 23.52 93.948C23.536 93.7933 23.552 93.6413 23.568 93.492C23.5787 93.4013 23.6107 93.3293 23.664 93.276C23.7227 93.2173 23.808 93.188 23.92 93.188C24.016 93.188 24.144 93.212 24.304 93.26C24.464 93.308 24.6773 93.332 24.944 93.332C25.296 93.332 25.608 93.2787 25.88 93.172C26.1573 93.0653 26.3893 92.9 26.576 92.676C26.768 92.452 26.912 92.1667 27.008 91.82C27.1093 91.468 27.16 91.052 27.16 90.572V83.036H28.704V90.54ZM37.2294 94.5H36.5974C36.4587 94.5 36.3467 94.4787 36.2614 94.436C36.176 94.3933 36.12 94.3027 36.0934 94.164L35.9334 93.412C35.72 93.604 35.512 93.7773 35.3094 93.932C35.1067 94.0813 34.8934 94.2093 34.6694 94.316C34.4454 94.4173 34.2054 94.4947 33.9494 94.548C33.6987 94.6013 33.4187 94.628 33.1094 94.628C32.7947 94.628 32.4987 94.5853 32.2214 94.5C31.9494 94.4093 31.712 94.276 31.5094 94.1C31.3067 93.924 31.144 93.7027 31.0214 93.436C30.904 93.164 30.8454 92.844 30.8454 92.476C30.8454 92.156 30.9334 91.8493 31.1094 91.556C31.2854 91.2573 31.568 90.9933 31.9574 90.764C32.352 90.5347 32.8667 90.348 33.5014 90.204C34.136 90.0547 34.912 89.9693 35.8294 89.948V89.316C35.8294 88.6867 35.6934 88.212 35.4214 87.892C35.1547 87.5667 34.7574 87.404 34.2294 87.404C33.8827 87.404 33.5894 87.4493 33.3494 87.54C33.1147 87.6253 32.9094 87.724 32.7334 87.836C32.5627 87.9427 32.4134 88.0413 32.2854 88.132C32.1627 88.2173 32.04 88.26 31.9174 88.26C31.8214 88.26 31.736 88.236 31.6614 88.188C31.592 88.1347 31.536 88.0707 31.4934 87.996L31.2374 87.54C31.6854 87.108 32.168 86.7853 32.6854 86.572C33.2027 86.3587 33.776 86.252 34.4054 86.252C34.8587 86.252 35.2614 86.3267 35.6134 86.476C35.9654 86.6253 36.2614 86.8333 36.5014 87.1C36.7414 87.3667 36.9227 87.6893 37.0454 88.068C37.168 88.4467 37.2294 88.8627 37.2294 89.316V94.5ZM33.5334 93.628C33.784 93.628 34.0134 93.604 34.2214 93.556C34.4294 93.5027 34.624 93.4307 34.8054 93.34C34.992 93.244 35.168 93.1293 35.3334 92.996C35.504 92.8627 35.6694 92.7107 35.8294 92.54V90.852C35.1734 90.8733 34.616 90.9267 34.1574 91.012C33.6987 91.092 33.3254 91.1987 33.0374 91.332C32.7494 91.4653 32.5387 91.6227 32.4054 91.804C32.2774 91.9853 32.2134 92.188 32.2134 92.412C32.2134 92.6253 32.248 92.8093 32.3174 92.964C32.3867 93.1187 32.48 93.2467 32.5974 93.348C32.7147 93.444 32.8534 93.516 33.0134 93.564C33.1734 93.6067 33.3467 93.628 33.5334 93.628ZM44.9148 87.836C44.8721 87.8947 44.8294 87.94 44.7868 87.972C44.7441 88.004 44.6828 88.02 44.6028 88.02C44.5228 88.02 44.4348 87.988 44.3388 87.924C44.2481 87.8547 44.1308 87.78 43.9868 87.7C43.8428 87.62 43.6668 87.548 43.4588 87.484C43.2561 87.4147 43.0054 87.38 42.7068 87.38C42.3121 87.38 41.9628 87.452 41.6588 87.596C41.3548 87.7347 41.0988 87.9373 40.8908 88.204C40.6881 88.4707 40.5334 88.7933 40.4268 89.172C40.3254 89.5507 40.2747 89.9747 40.2747 90.444C40.2747 90.9347 40.3308 91.372 40.4428 91.756C40.5548 92.1347 40.7121 92.4547 40.9148 92.716C41.1174 92.972 41.3628 93.1693 41.6508 93.308C41.9441 93.4413 42.2721 93.508 42.6348 93.508C42.9814 93.508 43.2668 93.468 43.4908 93.388C43.7148 93.3027 43.9014 93.2093 44.0508 93.108C44.2001 93.0067 44.3228 92.916 44.4188 92.836C44.5148 92.7507 44.6108 92.708 44.7068 92.708C44.8294 92.708 44.9201 92.7533 44.9788 92.844L45.3788 93.364C45.0268 93.796 44.5868 94.1133 44.0588 94.316C43.5308 94.5133 42.9734 94.612 42.3868 94.612C41.8801 94.612 41.4081 94.5187 40.9708 94.332C40.5388 94.1453 40.1628 93.876 39.8428 93.524C39.5228 93.1667 39.2694 92.7293 39.0828 92.212C38.9014 91.6947 38.8108 91.1053 38.8108 90.444C38.8108 89.8413 38.8934 89.284 39.0588 88.772C39.2294 88.26 39.4748 87.82 39.7948 87.452C40.1201 87.0787 40.5201 86.788 40.9948 86.58C41.4694 86.372 42.0134 86.268 42.6267 86.268C43.1921 86.268 43.6934 86.3613 44.1308 86.548C44.5681 86.7293 44.9548 86.988 45.2908 87.324L44.9148 87.836ZM50.1355 86.268C50.7275 86.268 51.2608 86.3667 51.7355 86.564C52.2155 86.7613 52.6208 87.0413 52.9515 87.404C53.2875 87.7667 53.5435 88.2067 53.7195 88.724C53.9008 89.236 53.9915 89.8093 53.9915 90.444C53.9915 91.084 53.9008 91.66 53.7195 92.172C53.5435 92.684 53.2875 93.1213 52.9515 93.484C52.6208 93.8467 52.2155 94.1267 51.7355 94.324C51.2608 94.516 50.7275 94.612 50.1355 94.612C49.5435 94.612 49.0075 94.516 48.5275 94.324C48.0528 94.1267 47.6475 93.8467 47.3115 93.484C46.9755 93.1213 46.7168 92.684 46.5355 92.172C46.3542 91.66 46.2635 91.084 46.2635 90.444C46.2635 89.8093 46.3542 89.236 46.5355 88.724C46.7168 88.2067 46.9755 87.7667 47.3115 87.404C47.6475 87.0413 48.0528 86.7613 48.5275 86.564C49.0075 86.3667 49.5435 86.268 50.1355 86.268ZM50.1355 93.5C50.9355 93.5 51.5328 93.2333 51.9275 92.7C52.3222 92.1613 52.5195 91.412 52.5195 90.452C52.5195 89.4867 52.3222 88.7347 51.9275 88.196C51.5328 87.6573 50.9355 87.388 50.1355 87.388C49.7302 87.388 49.3782 87.4573 49.0795 87.596C48.7808 87.7347 48.5302 87.9347 48.3275 88.196C48.1302 88.4573 47.9808 88.78 47.8795 89.164C47.7835 89.5427 47.7355 89.972 47.7355 90.452C47.7355 90.932 47.7835 91.3613 47.8795 91.74C47.9808 92.1187 48.1302 92.4387 48.3275 92.7C48.5302 92.956 48.7808 93.1533 49.0795 93.292C49.3782 93.4307 49.7302 93.5 50.1355 93.5ZM55.7941 94.5V82.716H57.2261V87.564C57.5621 87.1747 57.9461 86.8627 58.3781 86.628C58.8155 86.388 59.3141 86.268 59.8741 86.268C60.3435 86.268 60.7675 86.356 61.1461 86.532C61.5248 86.708 61.8475 86.972 62.1141 87.324C62.3808 87.6707 62.5861 88.1027 62.7301 88.62C62.8741 89.132 62.9461 89.724 62.9461 90.396C62.9461 90.9933 62.8661 91.5507 62.7061 92.068C62.5461 92.58 62.3141 93.0253 62.0101 93.404C61.7115 93.7773 61.3435 94.0733 60.9061 94.292C60.4741 94.5053 59.9861 94.612 59.4421 94.612C58.9195 94.612 58.4741 94.5107 58.1061 94.308C57.7435 94.1053 57.4261 93.8227 57.1541 93.46L57.0821 94.196C57.0395 94.3987 56.9168 94.5 56.7141 94.5H55.7941ZM59.4101 87.404C58.9461 87.404 58.5381 87.5107 58.1861 87.724C57.8395 87.9373 57.5195 88.2387 57.2261 88.628V92.548C57.4821 92.9 57.7648 93.148 58.0741 93.292C58.3888 93.436 58.7381 93.508 59.1221 93.508C59.8795 93.508 60.4608 93.2387 60.8661 92.7C61.2715 92.1613 61.4741 91.3933 61.4741 90.396C61.4741 89.868 61.4261 89.4147 61.3301 89.036C61.2395 88.6573 61.1061 88.348 60.9301 88.108C60.7541 87.8627 60.5381 87.684 60.2821 87.572C60.0261 87.46 59.7355 87.404 59.4101 87.404Z" fill="black"/>
<path d="M274.2 83.036V84.34H270.496V94.5H268.944V84.34H265.224V83.036H274.2ZM275.606 94.5V82.716H277.03V87.484C277.376 87.116 277.76 86.8227 278.182 86.604C278.603 86.38 279.088 86.268 279.638 86.268C280.08 86.268 280.47 86.3427 280.806 86.492C281.147 86.636 281.43 86.844 281.654 87.116C281.883 87.3827 282.056 87.7053 282.174 88.084C282.291 88.4627 282.35 88.8813 282.35 89.34V94.5H280.926V89.34C280.926 88.7267 280.784 88.252 280.502 87.916C280.224 87.5747 279.798 87.404 279.222 87.404C278.8 87.404 278.406 87.5053 278.038 87.708C277.675 87.9107 277.339 88.1853 277.03 88.532V94.5H275.606ZM287.776 86.268C288.368 86.268 288.901 86.3667 289.376 86.564C289.856 86.7613 290.261 87.0413 290.592 87.404C290.928 87.7667 291.184 88.2067 291.36 88.724C291.541 89.236 291.632 89.8093 291.632 90.444C291.632 91.084 291.541 91.66 291.36 92.172C291.184 92.684 290.928 93.1213 290.592 93.484C290.261 93.8467 289.856 94.1267 289.376 94.324C288.901 94.516 288.368 94.612 287.776 94.612C287.184 94.612 286.648 94.516 286.168 94.324C285.693 94.1267 285.288 93.8467 284.952 93.484C284.616 93.1213 284.357 92.684 284.176 92.172C283.995 91.66 283.904 91.084 283.904 90.444C283.904 89.8093 283.995 89.236 284.176 88.724C284.357 88.2067 284.616 87.7667 284.952 87.404C285.288 87.0413 285.693 86.7613 286.168 86.564C286.648 86.3667 287.184 86.268 287.776 86.268ZM287.776 93.5C288.576 93.5 289.173 93.2333 289.568 92.7C289.963 92.1613 290.16 91.412 290.16 90.452C290.16 89.4867 289.963 88.7347 289.568 88.196C289.173 87.6573 288.576 87.388 287.776 87.388C287.371 87.388 287.019 87.4573 286.72 87.596C286.421 87.7347 286.171 87.9347 285.968 88.196C285.771 88.4573 285.621 88.78 285.52 89.164C285.424 89.5427 285.376 89.972 285.376 90.452C285.376 90.932 285.424 91.3613 285.52 91.74C285.621 92.1187 285.771 92.4387 285.968 92.7C286.171 92.956 286.421 93.1533 286.72 93.292C287.019 93.4307 287.371 93.5 287.776 93.5ZM293.387 94.5V86.396H294.203C294.357 86.396 294.464 86.4253 294.523 86.484C294.581 86.5427 294.621 86.644 294.643 86.788L294.739 88.052C295.016 87.4867 295.357 87.0467 295.763 86.732C296.173 86.412 296.653 86.252 297.203 86.252C297.427 86.252 297.629 86.2787 297.811 86.332C297.992 86.38 298.16 86.4493 298.315 86.54L298.131 87.604C298.093 87.7373 298.011 87.804 297.883 87.804C297.808 87.804 297.693 87.78 297.539 87.732C297.384 87.6787 297.168 87.652 296.891 87.652C296.395 87.652 295.979 87.796 295.643 88.084C295.312 88.372 295.035 88.7907 294.811 89.34V94.5H293.387ZM299.84 94.5V86.396H300.688C300.891 86.396 301.019 86.4947 301.072 86.692L301.184 87.572C301.536 87.1827 301.928 86.868 302.36 86.628C302.797 86.388 303.301 86.268 303.872 86.268C304.315 86.268 304.704 86.3427 305.04 86.492C305.381 86.636 305.664 86.844 305.888 87.116C306.117 87.3827 306.291 87.7053 306.408 88.084C306.525 88.4627 306.584 88.8813 306.584 89.34V94.5H305.16V89.34C305.16 88.7267 305.019 88.252 304.736 87.916C304.459 87.5747 304.032 87.404 303.456 87.404C303.035 87.404 302.64 87.5053 302.272 87.708C301.909 87.9107 301.573 88.1853 301.264 88.532V94.5H299.84ZM311.187 94.628C310.547 94.628 310.053 94.4493 309.707 94.092C309.365 93.7347 309.195 93.22 309.195 92.548V87.588H308.219C308.133 87.588 308.061 87.564 308.003 87.516C307.944 87.4627 307.915 87.3827 307.915 87.276V86.708L309.243 86.54L309.571 84.036C309.581 83.956 309.616 83.892 309.674 83.844C309.733 83.7907 309.808 83.764 309.899 83.764H310.619V86.556H312.939V87.588H310.619V92.452C310.619 92.7933 310.701 93.0467 310.867 93.212C311.032 93.3773 311.245 93.46 311.507 93.46C311.656 93.46 311.784 93.4413 311.891 93.404C312.003 93.3613 312.099 93.316 312.179 93.268C312.259 93.22 312.325 93.1773 312.379 93.14C312.437 93.0973 312.488 93.076 312.531 93.076C312.605 93.076 312.672 93.1213 312.731 93.212L313.147 93.892C312.901 94.1213 312.605 94.3027 312.259 94.436C311.912 94.564 311.555 94.628 311.187 94.628ZM317.979 86.268C318.571 86.268 319.105 86.3667 319.579 86.564C320.059 86.7613 320.465 87.0413 320.795 87.404C321.131 87.7667 321.387 88.2067 321.563 88.724C321.745 89.236 321.835 89.8093 321.835 90.444C321.835 91.084 321.745 91.66 321.563 92.172C321.387 92.684 321.131 93.1213 320.795 93.484C320.465 93.8467 320.059 94.1267 319.579 94.324C319.105 94.516 318.571 94.612 317.979 94.612C317.387 94.612 316.851 94.516 316.371 94.324C315.897 94.1267 315.491 93.8467 315.155 93.484C314.819 93.1213 314.561 92.684 314.379 92.172C314.198 91.66 314.107 91.084 314.107 90.444C314.107 89.8093 314.198 89.236 314.379 88.724C314.561 88.2067 314.819 87.7667 315.155 87.404C315.491 87.0413 315.897 86.7613 316.371 86.564C316.851 86.3667 317.387 86.268 317.979 86.268ZM317.979 93.5C318.779 93.5 319.377 93.2333 319.771 92.7C320.166 92.1613 320.363 91.412 320.363 90.452C320.363 89.4867 320.166 88.7347 319.771 88.196C319.377 87.6573 318.779 87.388 317.979 87.388C317.574 87.388 317.222 87.4573 316.923 87.596C316.625 87.7347 316.374 87.9347 316.171 88.196C315.974 88.4573 315.825 88.78 315.723 89.164C315.627 89.5427 315.579 89.972 315.579 90.452C315.579 90.932 315.627 91.3613 315.723 91.74C315.825 92.1187 315.974 92.4387 316.171 92.7C316.374 92.956 316.625 93.1533 316.923 93.292C317.222 93.4307 317.574 93.5 317.979 93.5ZM323.59 94.5V86.396H324.438C324.641 86.396 324.769 86.4947 324.822 86.692L324.934 87.572C325.286 87.1827 325.678 86.868 326.11 86.628C326.547 86.388 327.051 86.268 327.622 86.268C328.065 86.268 328.454 86.3427 328.79 86.492C329.131 86.636 329.414 86.844 329.638 87.116C329.867 87.3827 330.041 87.7053 330.158 88.084C330.275 88.4627 330.334 88.8813 330.334 89.34V94.5H328.91V89.34C328.91 88.7267 328.769 88.252 328.486 87.916C328.209 87.5747 327.782 87.404 327.206 87.404C326.785 87.404 326.39 87.5053 326.022 87.708C325.659 87.9107 325.323 88.1853 325.014 88.532V94.5H323.59Z" fill="black"/>
<path d="M451.336 93.012C450.92 93.012 450.581 92.9133 450.32 92.716C450.059 92.5133 449.893 92.204 449.824 91.788C449.515 92.22 449.179 92.5293 448.816 92.716C448.453 92.9027 448.064 92.996 447.648 92.996C447.328 92.996 447.051 92.9427 446.816 92.836C446.581 92.724 446.384 92.572 446.224 92.38C446.069 92.1827 445.952 91.9507 445.872 91.684C445.797 91.4173 445.76 91.1293 445.76 90.82C445.76 90.3667 445.845 89.9107 446.016 89.452C446.192 88.988 446.451 88.572 446.792 88.204C447.133 87.8307 447.557 87.5267 448.064 87.292C448.576 87.0573 449.165 86.94 449.832 86.94C450.189 86.94 450.501 86.9693 450.768 87.028C451.04 87.0813 451.296 87.1613 451.536 87.268L450.792 90.156C450.691 90.556 450.64 90.8867 450.64 91.148C450.64 91.34 450.664 91.5 450.712 91.628C450.76 91.7507 450.824 91.8493 450.904 91.924C450.989 91.9933 451.085 92.0413 451.192 92.068C451.304 92.0947 451.421 92.108 451.544 92.108C451.805 92.108 452.053 92.0333 452.288 91.884C452.523 91.7347 452.728 91.524 452.904 91.252C453.085 90.98 453.227 90.6547 453.328 90.276C453.435 89.892 453.488 89.468 453.488 89.004C453.488 88.268 453.368 87.6227 453.128 87.068C452.893 86.5133 452.568 86.052 452.152 85.684C451.741 85.3107 451.253 85.0333 450.688 84.852C450.128 84.6653 449.523 84.572 448.872 84.572C448.157 84.572 447.488 84.708 446.864 84.98C446.24 85.252 445.696 85.628 445.232 86.108C444.768 86.588 444.403 87.156 444.136 87.812C443.869 88.468 443.736 89.1827 443.736 89.956C443.736 90.8627 443.877 91.66 444.16 92.348C444.448 93.0307 444.837 93.604 445.328 94.068C445.824 94.532 446.403 94.8813 447.064 95.116C447.731 95.3507 448.445 95.468 449.208 95.468C450.019 95.468 450.733 95.38 451.352 95.204C451.976 95.028 452.515 94.804 452.968 94.532C453.048 94.484 453.12 94.46 453.184 94.46C453.296 94.46 453.379 94.524 453.432 94.652L453.632 95.18C453.061 95.564 452.411 95.8653 451.68 96.084C450.955 96.3027 450.131 96.412 449.208 96.412C448.285 96.412 447.427 96.2653 446.632 95.972C445.837 95.6787 445.147 95.2547 444.56 94.7C443.979 94.1507 443.52 93.476 443.184 92.676C442.853 91.876 442.688 90.9693 442.688 89.956C442.688 89.3747 442.76 88.8147 442.904 88.276C443.053 87.7373 443.261 87.236 443.528 86.772C443.795 86.3027 444.115 85.876 444.488 85.492C444.861 85.1027 445.277 84.772 445.736 84.5C446.195 84.2227 446.688 84.0093 447.216 83.86C447.744 83.7053 448.296 83.628 448.872 83.628C449.363 83.628 449.843 83.6813 450.312 83.788C450.781 83.8947 451.224 84.052 451.64 84.26C452.061 84.468 452.448 84.7267 452.8 85.036C453.152 85.34 453.453 85.692 453.704 86.092C453.96 86.4867 454.157 86.9293 454.296 87.42C454.44 87.9053 454.512 88.4333 454.512 89.004C454.512 89.58 454.429 90.1133 454.264 90.604C454.104 91.0893 453.88 91.5107 453.592 91.868C453.309 92.2253 452.973 92.5053 452.584 92.708C452.2 92.9107 451.784 93.012 451.336 93.012ZM447.928 92.052C448.093 92.052 448.259 92.0253 448.424 91.972C448.595 91.9187 448.757 91.8253 448.912 91.692C449.072 91.5587 449.216 91.3773 449.344 91.148C449.477 90.9187 449.589 90.6307 449.68 90.284L450.288 87.924C450.08 87.876 449.853 87.852 449.608 87.852C449.208 87.852 448.84 87.9373 448.504 88.108C448.173 88.2733 447.888 88.492 447.648 88.764C447.408 89.036 447.219 89.348 447.08 89.7C446.947 90.052 446.88 90.412 446.88 90.78C446.88 91.164 446.968 91.4733 447.144 91.708C447.32 91.9373 447.581 92.052 447.928 92.052ZM458.78 94.628C458.14 94.628 457.647 94.4493 457.3 94.092C456.959 93.7347 456.788 93.22 456.788 92.548V87.588H455.812C455.727 87.588 455.655 87.564 455.596 87.516C455.538 87.4627 455.508 87.3827 455.508 87.276V86.708L456.836 86.54L457.164 84.036C457.175 83.956 457.21 83.892 457.268 83.844C457.327 83.7907 457.402 83.764 457.492 83.764H458.212V86.556H460.532V87.588H458.212V92.452C458.212 92.7933 458.295 93.0467 458.46 93.212C458.626 93.3773 458.839 93.46 459.1 93.46C459.25 93.46 459.378 93.4413 459.484 93.404C459.596 93.3613 459.692 93.316 459.772 93.268C459.852 93.22 459.919 93.1773 459.972 93.14C460.031 93.0973 460.082 93.076 460.124 93.076C460.199 93.076 460.266 93.1213 460.324 93.212L460.74 93.892C460.495 94.1213 460.199 94.3027 459.852 94.436C459.506 94.564 459.148 94.628 458.78 94.628ZM462.293 94.5V82.716H463.717V87.484C464.064 87.116 464.448 86.8227 464.869 86.604C465.29 86.38 465.776 86.268 466.325 86.268C466.768 86.268 467.157 86.3427 467.493 86.492C467.834 86.636 468.117 86.844 468.341 87.116C468.57 87.3827 468.744 87.7053 468.861 88.084C468.978 88.4627 469.037 88.8813 469.037 89.34V94.5H467.613V89.34C467.613 88.7267 467.472 88.252 467.189 87.916C466.912 87.5747 466.485 87.404 465.909 87.404C465.488 87.404 465.093 87.5053 464.725 87.708C464.362 87.9107 464.026 88.1853 463.717 88.532V94.5H462.293ZM471.184 94.5V86.396H472C472.154 86.396 472.261 86.4253 472.32 86.484C472.378 86.5427 472.418 86.644 472.44 86.788L472.536 88.052C472.813 87.4867 473.154 87.0467 473.56 86.732C473.97 86.412 474.45 86.252 475 86.252C475.224 86.252 475.426 86.2787 475.608 86.332C475.789 86.38 475.957 86.4493 476.112 86.54L475.928 87.604C475.89 87.7373 475.808 87.804 475.68 87.804C475.605 87.804 475.49 87.78 475.336 87.732C475.181 87.6787 474.965 87.652 474.688 87.652C474.192 87.652 473.776 87.796 473.44 88.084C473.109 88.372 472.832 88.7907 472.608 89.34V94.5H471.184ZM480.917 86.268C481.509 86.268 482.042 86.3667 482.517 86.564C482.997 86.7613 483.402 87.0413 483.733 87.404C484.069 87.7667 484.325 88.2067 484.501 88.724C484.682 89.236 484.773 89.8093 484.773 90.444C484.773 91.084 484.682 91.66 484.501 92.172C484.325 92.684 484.069 93.1213 483.733 93.484C483.402 93.8467 482.997 94.1267 482.517 94.324C482.042 94.516 481.509 94.612 480.917 94.612C480.325 94.612 479.789 94.516 479.309 94.324C478.834 94.1267 478.429 93.8467 478.093 93.484C477.757 93.1213 477.498 92.684 477.317 92.172C477.135 91.66 477.045 91.084 477.045 90.444C477.045 89.8093 477.135 89.236 477.317 88.724C477.498 88.2067 477.757 87.7667 478.093 87.404C478.429 87.0413 478.834 86.7613 479.309 86.564C479.789 86.3667 480.325 86.268 480.917 86.268ZM480.917 93.5C481.717 93.5 482.314 93.2333 482.709 92.7C483.103 92.1613 483.301 91.412 483.301 90.452C483.301 89.4867 483.103 88.7347 482.709 88.196C482.314 87.6573 481.717 87.388 480.917 87.388C480.511 87.388 480.159 87.4573 479.861 87.596C479.562 87.7347 479.311 87.9347 479.109 88.196C478.911 88.4573 478.762 88.78 478.661 89.164C478.565 89.5427 478.517 89.972 478.517 90.452C478.517 90.932 478.565 91.3613 478.661 91.74C478.762 92.1187 478.911 92.4387 479.109 92.7C479.311 92.956 479.562 93.1533 479.861 93.292C480.159 93.4307 480.511 93.5 480.917 93.5ZM486.527 94.5V86.396H487.375C487.578 86.396 487.706 86.4947 487.759 86.692L487.871 87.572C488.223 87.1827 488.615 86.868 489.047 86.628C489.485 86.388 489.989 86.268 490.559 86.268C491.002 86.268 491.391 86.3427 491.727 86.492C492.069 86.636 492.351 86.844 492.575 87.116C492.805 87.3827 492.978 87.7053 493.095 88.084C493.213 88.4627 493.271 88.8813 493.271 89.34V94.5H491.847V89.34C491.847 88.7267 491.706 88.252 491.423 87.916C491.146 87.5747 490.719 87.404 490.143 87.404C489.722 87.404 489.327 87.5053 488.959 87.708C488.597 87.9107 488.261 88.1853 487.951 88.532V94.5H486.527ZM497.874 94.628C497.234 94.628 496.741 94.4493 496.394 94.092C496.053 93.7347 495.882 93.22 495.882 92.548V87.588H494.906C494.821 87.588 494.749 87.564 494.69 87.516C494.631 87.4627 494.602 87.3827 494.602 87.276V86.708L495.93 86.54L496.258 84.036C496.269 83.956 496.303 83.892 496.362 83.844C496.421 83.7907 496.495 83.764 496.586 83.764H497.306V86.556H499.626V87.588H497.306V92.452C497.306 92.7933 497.389 93.0467 497.554 93.212C497.719 93.3773 497.933 93.46 498.194 93.46C498.343 93.46 498.471 93.4413 498.578 93.404C498.69 93.3613 498.786 93.316 498.866 93.268C498.946 93.22 499.013 93.1773 499.066 93.14C499.125 93.0973 499.175 93.076 499.218 93.076C499.293 93.076 499.359 93.1213 499.418 93.212L499.834 93.892C499.589 94.1213 499.293 94.3027 498.946 94.436C498.599 94.564 498.242 94.628 497.874 94.628ZM504.667 86.268C505.259 86.268 505.792 86.3667 506.267 86.564C506.747 86.7613 507.152 87.0413 507.483 87.404C507.819 87.7667 508.075 88.2067 508.251 88.724C508.432 89.236 508.523 89.8093 508.523 90.444C508.523 91.084 508.432 91.66 508.251 92.172C508.075 92.684 507.819 93.1213 507.483 93.484C507.152 93.8467 506.747 94.1267 506.267 94.324C505.792 94.516 505.259 94.612 504.667 94.612C504.075 94.612 503.539 94.516 503.059 94.324C502.584 94.1267 502.179 93.8467 501.843 93.484C501.507 93.1213 501.248 92.684 501.067 92.172C500.885 91.66 500.795 91.084 500.795 90.444C500.795 89.8093 500.885 89.236 501.067 88.724C501.248 88.2067 501.507 87.7667 501.843 87.404C502.179 87.0413 502.584 86.7613 503.059 86.564C503.539 86.3667 504.075 86.268 504.667 86.268ZM504.667 93.5C505.467 93.5 506.064 93.2333 506.459 92.7C506.853 92.1613 507.051 91.412 507.051 90.452C507.051 89.4867 506.853 88.7347 506.459 88.196C506.064 87.6573 505.467 87.388 504.667 87.388C504.261 87.388 503.909 87.4573 503.611 87.596C503.312 87.7347 503.061 87.9347 502.859 88.196C502.661 88.4573 502.512 88.78 502.411 89.164C502.315 89.5427 502.267 89.972 502.267 90.452C502.267 90.932 502.315 91.3613 502.411 91.74C502.512 92.1187 502.661 92.4387 502.859 92.7C503.061 92.956 503.312 93.1533 503.611 93.292C503.909 93.4307 504.261 93.5 504.667 93.5ZM510.277 94.5V86.396H511.093C511.248 86.396 511.355 86.4253 511.413 86.484C511.472 86.5427 511.512 86.644 511.533 86.788L511.629 88.052C511.907 87.4867 512.248 87.0467 512.653 86.732C513.064 86.412 513.544 86.252 514.093 86.252C514.317 86.252 514.52 86.2787 514.701 86.332C514.883 86.38 515.051 86.4493 515.205 86.54L515.021 87.604C514.984 87.7373 514.901 87.804 514.773 87.804C514.699 87.804 514.584 87.78 514.429 87.732C514.275 87.6787 514.059 87.652 513.781 87.652C513.285 87.652 512.869 87.796 512.533 88.084C512.203 88.372 511.925 88.7907 511.701 89.34V94.5H510.277ZM516.731 94.5V86.396H517.579C517.781 86.396 517.909 86.4947 517.963 86.692L518.075 87.572C518.427 87.1827 518.819 86.868 519.251 86.628C519.688 86.388 520.192 86.268 520.763 86.268C521.205 86.268 521.595 86.3427 521.931 86.492C522.272 86.636 522.555 86.844 522.779 87.116C523.008 87.3827 523.181 87.7053 523.299 88.084C523.416 88.4627 523.475 88.8813 523.475 89.34V94.5H522.051V89.34C522.051 88.7267 521.909 88.252 521.627 87.916C521.349 87.5747 520.923 87.404 520.347 87.404C519.925 87.404 519.531 87.5053 519.163 87.708C518.8 87.9107 518.464 88.1853 518.155 88.532V94.5H516.731Z" fill="black"/>
<path d="M25.944 128.446H30.904V129.75H24.392V118.286H25.944V128.446ZM38.3388 129.75H37.7068C37.5681 129.75 37.4561 129.729 37.3708 129.686C37.2854 129.643 37.2294 129.553 37.2028 129.414L37.0428 128.662C36.8294 128.854 36.6214 129.027 36.4188 129.182C36.2161 129.331 36.0028 129.459 35.7788 129.566C35.5548 129.667 35.3148 129.745 35.0588 129.798C34.8081 129.851 34.5281 129.878 34.2188 129.878C33.9041 129.878 33.6081 129.835 33.3307 129.75C33.0588 129.659 32.8214 129.526 32.6188 129.35C32.4161 129.174 32.2534 128.953 32.1308 128.686C32.0134 128.414 31.9548 128.094 31.9548 127.726C31.9548 127.406 32.0428 127.099 32.2188 126.806C32.3948 126.507 32.6774 126.243 33.0668 126.014C33.4614 125.785 33.9761 125.598 34.6108 125.454C35.2454 125.305 36.0214 125.219 36.9388 125.198V124.566C36.9388 123.937 36.8028 123.462 36.5308 123.142C36.2641 122.817 35.8668 122.654 35.3388 122.654C34.9921 122.654 34.6988 122.699 34.4588 122.79C34.2241 122.875 34.0188 122.974 33.8428 123.086C33.6721 123.193 33.5228 123.291 33.3948 123.382C33.2721 123.467 33.1494 123.51 33.0268 123.51C32.9308 123.51 32.8454 123.486 32.7708 123.438C32.7014 123.385 32.6454 123.321 32.6028 123.246L32.3468 122.79C32.7948 122.358 33.2774 122.035 33.7948 121.822C34.3121 121.609 34.8854 121.502 35.5148 121.502C35.9681 121.502 36.3708 121.577 36.7228 121.726C37.0748 121.875 37.3708 122.083 37.6108 122.35C37.8508 122.617 38.0321 122.939 38.1548 123.318C38.2774 123.697 38.3388 124.113 38.3388 124.566V129.75ZM34.6428 128.878C34.8934 128.878 35.1228 128.854 35.3307 128.806C35.5388 128.753 35.7334 128.681 35.9148 128.59C36.1014 128.494 36.2774 128.379 36.4428 128.246C36.6134 128.113 36.7788 127.961 36.9388 127.79V126.102C36.2828 126.123 35.7254 126.177 35.2668 126.262C34.8081 126.342 34.4348 126.449 34.1468 126.582C33.8588 126.715 33.6481 126.873 33.5148 127.054C33.3868 127.235 33.3228 127.438 33.3228 127.662C33.3228 127.875 33.3574 128.059 33.4268 128.214C33.4961 128.369 33.5894 128.497 33.7068 128.598C33.8241 128.694 33.9628 128.766 34.1228 128.814C34.2828 128.857 34.4561 128.878 34.6428 128.878ZM40.4961 129.75V121.646H41.3121C41.4668 121.646 41.5735 121.675 41.6321 121.734C41.6908 121.793 41.7308 121.894 41.7521 122.038L41.8481 123.302C42.1255 122.737 42.4668 122.297 42.8721 121.982C43.2828 121.662 43.7628 121.502 44.3121 121.502C44.5361 121.502 44.7388 121.529 44.9201 121.582C45.1015 121.63 45.2695 121.699 45.4241 121.79L45.2401 122.854C45.2028 122.987 45.1201 123.054 44.9921 123.054C44.9175 123.054 44.8028 123.03 44.6481 122.982C44.4935 122.929 44.2775 122.902 44.0001 122.902C43.5041 122.902 43.0881 123.046 42.7521 123.334C42.4215 123.622 42.1441 124.041 41.9201 124.59V129.75H40.4961ZM46.9493 129.75V121.646H47.7653C47.9199 121.646 48.0266 121.675 48.0853 121.734C48.1439 121.793 48.1839 121.894 48.2053 122.038L48.3013 123.302C48.5786 122.737 48.9199 122.297 49.3253 121.982C49.7359 121.662 50.2159 121.502 50.7653 121.502C50.9893 121.502 51.1919 121.529 51.3733 121.582C51.5546 121.63 51.7226 121.699 51.8773 121.79L51.6933 122.854C51.6559 122.987 51.5733 123.054 51.4453 123.054C51.3706 123.054 51.2559 123.03 51.1013 122.982C50.9466 122.929 50.7306 122.902 50.4533 122.902C49.9573 122.902 49.5413 123.046 49.2053 123.334C48.8746 123.622 48.5973 124.041 48.3733 124.59V129.75H46.9493ZM55.7784 132.142C55.7304 132.249 55.669 132.334 55.5944 132.398C55.525 132.462 55.4157 132.494 55.2664 132.494H54.2104L55.6904 129.278L52.3464 121.646H53.5784C53.701 121.646 53.797 121.678 53.8664 121.742C53.9357 121.801 53.9864 121.867 54.0184 121.942L56.1864 127.046C56.2344 127.163 56.2744 127.281 56.3064 127.398C56.3437 127.515 56.3757 127.635 56.4024 127.758C56.4397 127.635 56.477 127.515 56.5144 127.398C56.5517 127.281 56.5944 127.161 56.6424 127.038L58.7464 121.942C58.7784 121.857 58.8317 121.787 58.9064 121.734C58.9864 121.675 59.0717 121.646 59.1624 121.646H60.2984L55.7784 132.142Z" fill="black"/>
<path d="M274.2 118.286V119.59H270.496V129.75H268.944V119.59H265.224V118.286H274.2ZM275.606 129.75V117.966H277.03V122.734C277.376 122.366 277.76 122.073 278.182 121.854C278.603 121.63 279.088 121.518 279.638 121.518C280.08 121.518 280.47 121.593 280.806 121.742C281.147 121.886 281.43 122.094 281.654 122.366C281.883 122.633 282.056 122.955 282.174 123.334C282.291 123.713 282.35 124.131 282.35 124.59V129.75H280.926V124.59C280.926 123.977 280.784 123.502 280.502 123.166C280.224 122.825 279.798 122.654 279.222 122.654C278.8 122.654 278.406 122.755 278.038 122.958C277.675 123.161 277.339 123.435 277.03 123.782V129.75H275.606ZM287.704 121.518C288.189 121.518 288.637 121.601 289.048 121.766C289.459 121.926 289.813 122.161 290.112 122.47C290.411 122.774 290.643 123.153 290.808 123.606C290.979 124.054 291.064 124.566 291.064 125.142C291.064 125.366 291.04 125.515 290.992 125.59C290.944 125.665 290.853 125.702 290.72 125.702H285.328C285.339 126.214 285.408 126.659 285.536 127.038C285.664 127.417 285.84 127.734 286.064 127.99C286.288 128.241 286.555 128.43 286.864 128.558C287.173 128.681 287.52 128.742 287.904 128.742C288.261 128.742 288.568 128.702 288.824 128.622C289.085 128.537 289.309 128.446 289.496 128.35C289.683 128.254 289.837 128.166 289.96 128.086C290.088 128.001 290.197 127.958 290.288 127.958C290.405 127.958 290.496 128.003 290.56 128.094L290.96 128.614C290.784 128.827 290.573 129.014 290.328 129.174C290.083 129.329 289.819 129.457 289.536 129.558C289.259 129.659 288.971 129.734 288.672 129.782C288.373 129.835 288.077 129.862 287.784 129.862C287.224 129.862 286.707 129.769 286.232 129.582C285.763 129.39 285.355 129.113 285.008 128.75C284.667 128.382 284.4 127.929 284.208 127.39C284.016 126.851 283.92 126.233 283.92 125.534C283.92 124.969 284.005 124.441 284.176 123.95C284.352 123.459 284.603 123.035 284.928 122.678C285.253 122.315 285.651 122.033 286.12 121.83C286.589 121.622 287.117 121.518 287.704 121.518ZM287.736 122.566C287.048 122.566 286.507 122.766 286.112 123.166C285.717 123.561 285.472 124.11 285.376 124.814H289.784C289.784 124.483 289.739 124.182 289.648 123.91C289.557 123.633 289.424 123.395 289.248 123.198C289.072 122.995 288.856 122.841 288.6 122.734C288.349 122.622 288.061 122.566 287.736 122.566ZM296.205 129.75V118.286H299.861C300.565 118.286 301.17 118.355 301.677 118.494C302.189 118.633 302.607 118.83 302.933 119.086C303.263 119.342 303.506 119.657 303.661 120.03C303.821 120.398 303.901 120.814 303.901 121.278C303.901 121.561 303.855 121.833 303.765 122.094C303.679 122.355 303.546 122.598 303.365 122.822C303.189 123.046 302.965 123.246 302.693 123.422C302.426 123.598 302.111 123.742 301.749 123.854C302.586 124.019 303.218 124.321 303.645 124.758C304.071 125.195 304.285 125.771 304.285 126.486C304.285 126.971 304.194 127.414 304.013 127.814C303.837 128.214 303.575 128.558 303.229 128.846C302.887 129.134 302.466 129.358 301.965 129.518C301.469 129.673 300.901 129.75 300.261 129.75H296.205ZM297.757 124.526V128.518H300.237C300.679 128.518 301.058 128.467 301.373 128.366C301.693 128.265 301.954 128.123 302.157 127.942C302.365 127.755 302.517 127.537 302.613 127.286C302.709 127.03 302.757 126.75 302.757 126.446C302.757 125.854 302.546 125.387 302.125 125.046C301.709 124.699 301.077 124.526 300.229 124.526H297.757ZM297.757 123.422H299.805C300.242 123.422 300.621 123.374 300.941 123.278C301.261 123.182 301.525 123.049 301.733 122.878C301.946 122.707 302.103 122.502 302.205 122.262C302.306 122.017 302.357 121.75 302.357 121.462C302.357 120.79 302.154 120.297 301.749 119.982C301.343 119.667 300.714 119.51 299.861 119.51H297.757V123.422ZM307.924 121.646V129.75H306.5V121.646H307.924ZM308.244 119.102C308.244 119.241 308.215 119.371 308.156 119.494C308.103 119.611 308.028 119.718 307.932 119.814C307.841 119.905 307.735 119.977 307.612 120.03C307.489 120.083 307.359 120.11 307.22 120.11C307.081 120.11 306.951 120.083 306.828 120.03C306.711 119.977 306.604 119.905 306.508 119.814C306.417 119.718 306.345 119.611 306.292 119.494C306.239 119.371 306.212 119.241 306.212 119.102C306.212 118.963 306.239 118.833 306.292 118.71C306.345 118.582 306.417 118.473 306.508 118.382C306.604 118.286 306.711 118.211 306.828 118.158C306.951 118.105 307.081 118.078 307.22 118.078C307.359 118.078 307.489 118.105 307.612 118.158C307.735 118.211 307.841 118.286 307.932 118.382C308.028 118.473 308.103 118.582 308.156 118.71C308.215 118.833 308.244 118.963 308.244 119.102ZM310.434 129.75V121.646H311.25C311.404 121.646 311.511 121.675 311.57 121.734C311.628 121.793 311.668 121.894 311.69 122.038L311.786 123.302C312.063 122.737 312.404 122.297 312.81 121.982C313.22 121.662 313.7 121.502 314.25 121.502C314.474 121.502 314.676 121.529 314.858 121.582C315.039 121.63 315.207 121.699 315.362 121.79L315.178 122.854C315.14 122.987 315.058 123.054 314.93 123.054C314.855 123.054 314.74 123.03 314.586 122.982C314.431 122.929 314.215 122.902 313.938 122.902C313.442 122.902 313.026 123.046 312.69 123.334C312.359 123.622 312.082 124.041 311.858 124.59V129.75H310.434ZM322.591 129.75C322.388 129.75 322.26 129.651 322.207 129.454L322.079 128.47C321.732 128.891 321.335 129.23 320.887 129.486C320.444 129.737 319.935 129.862 319.359 129.862C318.895 129.862 318.473 129.774 318.095 129.598C317.716 129.417 317.393 129.153 317.127 128.806C316.86 128.459 316.655 128.027 316.511 127.51C316.367 126.993 316.295 126.398 316.295 125.726C316.295 125.129 316.375 124.574 316.535 124.062C316.695 123.545 316.924 123.097 317.223 122.718C317.527 122.339 317.895 122.043 318.327 121.83C318.759 121.611 319.249 121.502 319.799 121.502C320.295 121.502 320.719 121.587 321.071 121.758C321.423 121.923 321.737 122.158 322.015 122.462V117.966H323.439V129.75H322.591ZM319.831 128.71C320.295 128.71 320.7 128.603 321.047 128.39C321.399 128.177 321.721 127.875 322.015 127.486V123.566C321.753 123.214 321.465 122.969 321.151 122.83C320.841 122.686 320.497 122.614 320.119 122.614C319.361 122.614 318.78 122.883 318.375 123.422C317.969 123.961 317.767 124.729 317.767 125.726C317.767 126.254 317.812 126.707 317.903 127.086C317.993 127.459 318.127 127.769 318.303 128.014C318.479 128.254 318.695 128.43 318.951 128.542C319.207 128.654 319.5 128.71 319.831 128.71Z" fill="black"/>
<path d="M451.336 128.262C450.92 128.262 450.581 128.163 450.32 127.966C450.059 127.763 449.893 127.454 449.824 127.038C449.515 127.47 449.179 127.779 448.816 127.966C448.453 128.153 448.064 128.246 447.648 128.246C447.328 128.246 447.051 128.193 446.816 128.086C446.581 127.974 446.384 127.822 446.224 127.63C446.069 127.433 445.952 127.201 445.872 126.934C445.797 126.667 445.76 126.379 445.76 126.07C445.76 125.617 445.845 125.161 446.016 124.702C446.192 124.238 446.451 123.822 446.792 123.454C447.133 123.081 447.557 122.777 448.064 122.542C448.576 122.307 449.165 122.19 449.832 122.19C450.189 122.19 450.501 122.219 450.768 122.278C451.04 122.331 451.296 122.411 451.536 122.518L450.792 125.406C450.691 125.806 450.64 126.137 450.64 126.398C450.64 126.59 450.664 126.75 450.712 126.878C450.76 127.001 450.824 127.099 450.904 127.174C450.989 127.243 451.085 127.291 451.192 127.318C451.304 127.345 451.421 127.358 451.544 127.358C451.805 127.358 452.053 127.283 452.288 127.134C452.523 126.985 452.728 126.774 452.904 126.502C453.085 126.23 453.227 125.905 453.328 125.526C453.435 125.142 453.488 124.718 453.488 124.254C453.488 123.518 453.368 122.873 453.128 122.318C452.893 121.763 452.568 121.302 452.152 120.934C451.741 120.561 451.253 120.283 450.688 120.102C450.128 119.915 449.523 119.822 448.872 119.822C448.157 119.822 447.488 119.958 446.864 120.23C446.24 120.502 445.696 120.878 445.232 121.358C444.768 121.838 444.403 122.406 444.136 123.062C443.869 123.718 443.736 124.433 443.736 125.206C443.736 126.113 443.877 126.91 444.16 127.598C444.448 128.281 444.837 128.854 445.328 129.318C445.824 129.782 446.403 130.131 447.064 130.366C447.731 130.601 448.445 130.718 449.208 130.718C450.019 130.718 450.733 130.63 451.352 130.454C451.976 130.278 452.515 130.054 452.968 129.782C453.048 129.734 453.12 129.71 453.184 129.71C453.296 129.71 453.379 129.774 453.432 129.902L453.632 130.43C453.061 130.814 452.411 131.115 451.68 131.334C450.955 131.553 450.131 131.662 449.208 131.662C448.285 131.662 447.427 131.515 446.632 131.222C445.837 130.929 445.147 130.505 444.56 129.95C443.979 129.401 443.52 128.726 443.184 127.926C442.853 127.126 442.688 126.219 442.688 125.206C442.688 124.625 442.76 124.065 442.904 123.526C443.053 122.987 443.261 122.486 443.528 122.022C443.795 121.553 444.115 121.126 444.488 120.742C444.861 120.353 445.277 120.022 445.736 119.75C446.195 119.473 446.688 119.259 447.216 119.11C447.744 118.955 448.296 118.878 448.872 118.878C449.363 118.878 449.843 118.931 450.312 119.038C450.781 119.145 451.224 119.302 451.64 119.51C452.061 119.718 452.448 119.977 452.8 120.286C453.152 120.59 453.453 120.942 453.704 121.342C453.96 121.737 454.157 122.179 454.296 122.67C454.44 123.155 454.512 123.683 454.512 124.254C454.512 124.83 454.429 125.363 454.264 125.854C454.104 126.339 453.88 126.761 453.592 127.118C453.309 127.475 452.973 127.755 452.584 127.958C452.2 128.161 451.784 128.262 451.336 128.262ZM447.928 127.302C448.093 127.302 448.259 127.275 448.424 127.222C448.595 127.169 448.757 127.075 448.912 126.942C449.072 126.809 449.216 126.627 449.344 126.398C449.477 126.169 449.589 125.881 449.68 125.534L450.288 123.174C450.08 123.126 449.853 123.102 449.608 123.102C449.208 123.102 448.84 123.187 448.504 123.358C448.173 123.523 447.888 123.742 447.648 124.014C447.408 124.286 447.219 124.598 447.08 124.95C446.947 125.302 446.88 125.662 446.88 126.03C446.88 126.414 446.968 126.723 447.144 126.958C447.32 127.187 447.581 127.302 447.928 127.302ZM456.372 129.75V117.966H457.804V122.814C458.14 122.425 458.524 122.113 458.956 121.878C459.394 121.638 459.892 121.518 460.452 121.518C460.922 121.518 461.346 121.606 461.724 121.782C462.103 121.958 462.426 122.222 462.692 122.574C462.959 122.921 463.164 123.353 463.308 123.87C463.452 124.382 463.524 124.974 463.524 125.646C463.524 126.243 463.444 126.801 463.284 127.318C463.124 127.83 462.892 128.275 462.588 128.654C462.29 129.027 461.922 129.323 461.484 129.542C461.052 129.755 460.564 129.862 460.02 129.862C459.498 129.862 459.052 129.761 458.684 129.558C458.322 129.355 458.004 129.073 457.732 128.71L457.66 129.446C457.618 129.649 457.495 129.75 457.292 129.75H456.372ZM459.988 122.654C459.524 122.654 459.116 122.761 458.764 122.974C458.418 123.187 458.098 123.489 457.804 123.878V127.798C458.06 128.15 458.343 128.398 458.652 128.542C458.967 128.686 459.316 128.758 459.7 128.758C460.458 128.758 461.039 128.489 461.444 127.95C461.85 127.411 462.052 126.643 462.052 125.646C462.052 125.118 462.004 124.665 461.908 124.286C461.818 123.907 461.684 123.598 461.508 123.358C461.332 123.113 461.116 122.934 460.86 122.822C460.604 122.71 460.314 122.654 459.988 122.654ZM466.846 121.646V129.75H465.422V121.646H466.846ZM467.166 119.102C467.166 119.241 467.136 119.371 467.078 119.494C467.024 119.611 466.95 119.718 466.854 119.814C466.763 119.905 466.656 119.977 466.534 120.03C466.411 120.083 466.28 120.11 466.142 120.11C466.003 120.11 465.872 120.083 465.75 120.03C465.632 119.977 465.526 119.905 465.43 119.814C465.339 119.718 465.267 119.611 465.214 119.494C465.16 119.371 465.134 119.241 465.134 119.102C465.134 118.963 465.16 118.833 465.214 118.71C465.267 118.582 465.339 118.473 465.43 118.382C465.526 118.286 465.632 118.211 465.75 118.158C465.872 118.105 466.003 118.078 466.142 118.078C466.28 118.078 466.411 118.105 466.534 118.158C466.656 118.211 466.763 118.286 466.854 118.382C466.95 118.473 467.024 118.582 467.078 118.71C467.136 118.833 467.166 118.963 467.166 119.102ZM469.356 129.75V121.646H470.172C470.326 121.646 470.433 121.675 470.492 121.734C470.55 121.793 470.59 121.894 470.612 122.038L470.708 123.302C470.985 122.737 471.326 122.297 471.732 121.982C472.142 121.662 472.622 121.502 473.172 121.502C473.396 121.502 473.598 121.529 473.78 121.582C473.961 121.63 474.129 121.699 474.284 121.79L474.1 122.854C474.062 122.987 473.98 123.054 473.852 123.054C473.777 123.054 473.662 123.03 473.508 122.982C473.353 122.929 473.137 122.902 472.86 122.902C472.364 122.902 471.948 123.046 471.612 123.334C471.281 123.622 471.004 124.041 470.78 124.59V129.75H469.356ZM481.513 129.75C481.31 129.75 481.182 129.651 481.129 129.454L481.001 128.47C480.654 128.891 480.257 129.23 479.809 129.486C479.366 129.737 478.857 129.862 478.281 129.862C477.817 129.862 477.395 129.774 477.017 129.598C476.638 129.417 476.315 129.153 476.049 128.806C475.782 128.459 475.577 128.027 475.433 127.51C475.289 126.993 475.217 126.398 475.217 125.726C475.217 125.129 475.297 124.574 475.457 124.062C475.617 123.545 475.846 123.097 476.145 122.718C476.449 122.339 476.817 122.043 477.249 121.83C477.681 121.611 478.171 121.502 478.721 121.502C479.217 121.502 479.641 121.587 479.993 121.758C480.345 121.923 480.659 122.158 480.937 122.462V117.966H482.361V129.75H481.513ZM478.753 128.71C479.217 128.71 479.622 128.603 479.969 128.39C480.321 128.177 480.643 127.875 480.937 127.486V123.566C480.675 123.214 480.387 122.969 480.073 122.83C479.763 122.686 479.419 122.614 479.041 122.614C478.283 122.614 477.702 122.883 477.297 123.422C476.891 123.961 476.689 124.729 476.689 125.726C476.689 126.254 476.734 126.707 476.825 127.086C476.915 127.459 477.049 127.769 477.225 128.014C477.401 128.254 477.617 128.43 477.873 128.542C478.129 128.654 478.422 128.71 478.753 128.71Z" fill="black"/>
<line y1="36" x2="604" y2="36" stroke="#DFE2E6" stroke-width="2"/>
</svg>
