<svg width="359" height="200" viewBox="0 0 359 200" fill="none" xmlns="http://www.w3.org/2000/svg">
<rect y="100" width="359" height="50" fill="white"/>
<rect width="359" height="200" fill="white"/>
<path d="M26.096 66.712V71H24.552V59.536H27.936C28.6613 59.536 29.2907 59.6213 29.824 59.792C30.3627 59.9573 30.808 60.1947 31.16 60.504C31.512 60.8133 31.7733 61.1867 31.944 61.624C32.12 62.0613 32.208 62.5493 32.208 63.088C32.208 63.6213 32.1147 64.1093 31.928 64.552C31.7413 64.9947 31.4667 65.376 31.104 65.696C30.7467 66.016 30.3013 66.2667 29.768 66.448C29.2347 66.624 28.624 66.712 27.936 66.712H26.096ZM26.096 65.48H27.936C28.3787 65.48 28.768 65.4213 29.104 65.304C29.4453 65.1867 29.7307 65.024 29.96 64.816C30.1893 64.6027 30.3627 64.3493 30.48 64.056C30.5973 63.7627 30.656 63.44 30.656 63.088C30.656 62.3573 30.4293 61.7867 29.976 61.376C29.528 60.9653 28.848 60.76 27.936 60.76H26.096V65.48ZM33.9493 71V62.896H34.7653C34.9199 62.896 35.0266 62.9253 35.0853 62.984C35.1439 63.0427 35.1839 63.144 35.2053 63.288L35.3013 64.552C35.5786 63.9867 35.9199 63.5467 36.3253 63.232C36.7359 62.912 37.2159 62.752 37.7653 62.752C37.9893 62.752 38.1919 62.7787 38.3733 62.832C38.5546 62.88 38.7226 62.9493 38.8773 63.04L38.6933 64.104C38.6559 64.2373 38.5733 64.304 38.4453 64.304C38.3706 64.304 38.2559 64.28 38.1013 64.232C37.9466 64.1787 37.7306 64.152 37.4533 64.152C36.9573 64.152 36.5413 64.296 36.2053 64.584C35.8746 64.872 35.5973 65.2907 35.3733 65.84V71H33.9493ZM43.6104 62.768C44.0957 62.768 44.5437 62.8507 44.9544 63.016C45.365 63.176 45.7197 63.4107 46.0184 63.72C46.317 64.024 46.549 64.4027 46.7144 64.856C46.885 65.304 46.9704 65.816 46.9704 66.392C46.9704 66.616 46.9464 66.7653 46.8984 66.84C46.8504 66.9147 46.7597 66.952 46.6264 66.952H41.2344C41.245 67.464 41.3144 67.9093 41.4424 68.288C41.5704 68.6667 41.7464 68.984 41.9704 69.24C42.1944 69.4907 42.461 69.68 42.7704 69.808C43.0797 69.9307 43.4264 69.992 43.8104 69.992C44.1677 69.992 44.4744 69.952 44.7304 69.872C44.9917 69.7867 45.2157 69.696 45.4024 69.6C45.589 69.504 45.7437 69.416 45.8664 69.336C45.9944 69.2507 46.1037 69.208 46.1944 69.208C46.3117 69.208 46.4024 69.2533 46.4664 69.344L46.8664 69.864C46.6904 70.0773 46.4797 70.264 46.2344 70.424C45.989 70.5787 45.725 70.7067 45.4424 70.808C45.165 70.9093 44.877 70.984 44.5784 71.032C44.2797 71.0853 43.9837 71.112 43.6904 71.112C43.1304 71.112 42.613 71.0187 42.1384 70.832C41.669 70.64 41.261 70.3627 40.9144 70C40.573 69.632 40.3064 69.1787 40.1144 68.64C39.9224 68.1013 39.8264 67.4827 39.8264 66.784C39.8264 66.2187 39.9117 65.6907 40.0824 65.2C40.2584 64.7093 40.509 64.2853 40.8344 63.928C41.1597 63.5653 41.557 63.2827 42.0264 63.08C42.4957 62.872 43.0237 62.768 43.6104 62.768ZM43.6424 63.816C42.9544 63.816 42.413 64.016 42.0184 64.416C41.6237 64.8107 41.3784 65.36 41.2824 66.064H45.6904C45.6904 65.7333 45.645 65.432 45.5544 65.16C45.4637 64.8827 45.3304 64.6453 45.1544 64.448C44.9784 64.2453 44.7624 64.0907 44.5064 63.984C44.2557 63.872 43.9677 63.816 43.6424 63.816ZM53.433 64.232C53.369 64.3493 53.2703 64.408 53.137 64.408C53.057 64.408 52.9663 64.3787 52.865 64.32C52.7637 64.2613 52.6383 64.1973 52.489 64.128C52.345 64.0533 52.1717 63.9867 51.969 63.928C51.7663 63.864 51.5263 63.832 51.249 63.832C51.009 63.832 50.793 63.864 50.601 63.928C50.409 63.9867 50.2437 64.0693 50.105 64.176C49.9717 64.2827 49.8677 64.408 49.793 64.552C49.7237 64.6907 49.689 64.8427 49.689 65.008C49.689 65.216 49.7477 65.3893 49.865 65.528C49.9877 65.6667 50.1477 65.7867 50.345 65.888C50.5423 65.9893 50.7663 66.08 51.017 66.16C51.2677 66.2347 51.5237 66.3173 51.785 66.408C52.0517 66.4933 52.3103 66.5893 52.561 66.696C52.8117 66.8027 53.0357 66.936 53.233 67.096C53.4303 67.256 53.5877 67.4533 53.705 67.688C53.8277 67.9173 53.889 68.1947 53.889 68.52C53.889 68.8933 53.8223 69.24 53.689 69.56C53.5557 69.8747 53.3583 70.1493 53.097 70.384C52.8357 70.6133 52.5157 70.7947 52.137 70.928C51.7583 71.0613 51.321 71.128 50.825 71.128C50.2597 71.128 49.7477 71.0373 49.289 70.856C48.8303 70.6693 48.441 70.432 48.121 70.144L48.457 69.6C48.4997 69.5307 48.5503 69.4773 48.609 69.44C48.6677 69.4027 48.745 69.384 48.841 69.384C48.937 69.384 49.0383 69.4213 49.145 69.496C49.2517 69.5707 49.3797 69.6533 49.529 69.744C49.6837 69.8347 49.8677 69.9173 50.081 69.992C50.2997 70.0667 50.5717 70.104 50.897 70.104C51.1743 70.104 51.417 70.0693 51.625 70C51.833 69.9253 52.0063 69.8267 52.145 69.704C52.2837 69.5813 52.385 69.44 52.449 69.28C52.5183 69.12 52.553 68.9493 52.553 68.768C52.553 68.544 52.4917 68.36 52.369 68.216C52.2517 68.0667 52.0943 67.9413 51.897 67.84C51.6997 67.7333 51.473 67.6427 51.217 67.568C50.9663 67.488 50.7077 67.4053 50.441 67.32C50.1797 67.2347 49.921 67.1387 49.665 67.032C49.4143 66.92 49.1903 66.7813 48.993 66.616C48.7957 66.4507 48.6357 66.248 48.513 66.008C48.3957 65.7627 48.337 65.4667 48.337 65.12C48.337 64.8107 48.401 64.5147 48.529 64.232C48.657 63.944 48.8437 63.6933 49.089 63.48C49.3343 63.2613 49.6357 63.088 49.993 62.96C50.3503 62.832 50.7583 62.768 51.217 62.768C51.7503 62.768 52.2277 62.8533 52.649 63.024C53.0757 63.1893 53.4437 63.4187 53.753 63.712L53.433 64.232ZM58.9385 62.768C59.4238 62.768 59.8718 62.8507 60.2825 63.016C60.6932 63.176 61.0478 63.4107 61.3465 63.72C61.6452 64.024 61.8772 64.4027 62.0425 64.856C62.2132 65.304 62.2985 65.816 62.2985 66.392C62.2985 66.616 62.2745 66.7653 62.2265 66.84C62.1785 66.9147 62.0878 66.952 61.9545 66.952H56.5625C56.5732 67.464 56.6425 67.9093 56.7705 68.288C56.8985 68.6667 57.0745 68.984 57.2985 69.24C57.5225 69.4907 57.7892 69.68 58.0985 69.808C58.4078 69.9307 58.7545 69.992 59.1385 69.992C59.4958 69.992 59.8025 69.952 60.0585 69.872C60.3198 69.7867 60.5438 69.696 60.7305 69.6C60.9172 69.504 61.0718 69.416 61.1945 69.336C61.3225 69.2507 61.4318 69.208 61.5225 69.208C61.6398 69.208 61.7305 69.2533 61.7945 69.344L62.1945 69.864C62.0185 70.0773 61.8078 70.264 61.5625 70.424C61.3172 70.5787 61.0532 70.7067 60.7705 70.808C60.4932 70.9093 60.2052 70.984 59.9065 71.032C59.6078 71.0853 59.3118 71.112 59.0185 71.112C58.4585 71.112 57.9412 71.0187 57.4665 70.832C56.9972 70.64 56.5892 70.3627 56.2425 70C55.9012 69.632 55.6345 69.1787 55.4425 68.64C55.2505 68.1013 55.1545 67.4827 55.1545 66.784C55.1545 66.2187 55.2398 65.6907 55.4105 65.2C55.5865 64.7093 55.8372 64.2853 56.1625 63.928C56.4878 63.5653 56.8852 63.2827 57.3545 63.08C57.8238 62.872 58.3518 62.768 58.9385 62.768ZM58.9705 63.816C58.2825 63.816 57.7412 64.016 57.3465 64.416C56.9518 64.8107 56.7065 65.36 56.6105 66.064H61.0185C61.0185 65.7333 60.9732 65.432 60.8825 65.16C60.7918 64.8827 60.6585 64.6453 60.4825 64.448C60.3065 64.2453 60.0905 64.0907 59.8345 63.984C59.5838 63.872 59.2958 63.816 58.9705 63.816ZM64.1211 71V62.896H64.9691C65.1718 62.896 65.2998 62.9947 65.3531 63.192L65.4651 64.072C65.8171 63.6827 66.2091 63.368 66.6411 63.128C67.0785 62.888 67.5825 62.768 68.1531 62.768C68.5958 62.768 68.9851 62.8427 69.3211 62.992C69.6625 63.136 69.9451 63.344 70.1691 63.616C70.3985 63.8827 70.5718 64.2053 70.6891 64.584C70.8065 64.9627 70.8651 65.3813 70.8651 65.84V71H69.4411V65.84C69.4411 65.2267 69.2998 64.752 69.0171 64.416C68.7398 64.0747 68.3131 63.904 67.7371 63.904C67.3158 63.904 66.9211 64.0053 66.5531 64.208C66.1905 64.4107 65.8545 64.6853 65.5451 65.032V71H64.1211ZM75.4678 71.128C74.8278 71.128 74.3344 70.9493 73.9878 70.592C73.6464 70.2347 73.4758 69.72 73.4758 69.048V64.088H72.4998C72.4144 64.088 72.3424 64.064 72.2838 64.016C72.2251 63.9627 72.1958 63.8827 72.1958 63.776V63.208L73.5238 63.04L73.8518 60.536C73.8624 60.456 73.8971 60.392 73.9557 60.344C74.0144 60.2907 74.0891 60.264 74.1798 60.264H74.8998V63.056H77.2198V64.088H74.8998V68.952C74.8998 69.2933 74.9824 69.5467 75.1478 69.712C75.3131 69.8773 75.5264 69.96 75.7878 69.96C75.9371 69.96 76.0651 69.9413 76.1718 69.904C76.2838 69.8613 76.3798 69.816 76.4598 69.768C76.5398 69.72 76.6064 69.6773 76.6598 69.64C76.7184 69.5973 76.7691 69.576 76.8118 69.576C76.8864 69.576 76.9531 69.6213 77.0118 69.712L77.4278 70.392C77.1824 70.6213 76.8864 70.8027 76.5398 70.936C76.1931 71.064 75.8358 71.128 75.4678 71.128ZM84.9325 71H84.3005C84.1618 71 84.0498 70.9787 83.9645 70.936C83.8792 70.8933 83.8232 70.8027 83.7965 70.664L83.6365 69.912C83.4232 70.104 83.2152 70.2773 83.0125 70.432C82.8098 70.5813 82.5965 70.7093 82.3725 70.816C82.1485 70.9173 81.9085 70.9947 81.6525 71.048C81.4018 71.1013 81.1218 71.128 80.8125 71.128C80.4978 71.128 80.2018 71.0853 79.9245 71C79.6525 70.9093 79.4152 70.776 79.2125 70.6C79.0098 70.424 78.8472 70.2027 78.7245 69.936C78.6072 69.664 78.5485 69.344 78.5485 68.976C78.5485 68.656 78.6365 68.3493 78.8125 68.056C78.9885 67.7573 79.2712 67.4933 79.6605 67.264C80.0552 67.0347 80.5698 66.848 81.2045 66.704C81.8392 66.5547 82.6152 66.4693 83.5325 66.448V65.816C83.5325 65.1867 83.3965 64.712 83.1245 64.392C82.8578 64.0667 82.4605 63.904 81.9325 63.904C81.5858 63.904 81.2925 63.9493 81.0525 64.04C80.8178 64.1253 80.6125 64.224 80.4365 64.336C80.2658 64.4427 80.1165 64.5413 79.9885 64.632C79.8658 64.7173 79.7432 64.76 79.6205 64.76C79.5245 64.76 79.4392 64.736 79.3645 64.688C79.2952 64.6347 79.2392 64.5707 79.1965 64.496L78.9405 64.04C79.3885 63.608 79.8712 63.2853 80.3885 63.072C80.9058 62.8587 81.4792 62.752 82.1085 62.752C82.5618 62.752 82.9645 62.8267 83.3165 62.976C83.6685 63.1253 83.9645 63.3333 84.2045 63.6C84.4445 63.8667 84.6258 64.1893 84.7485 64.568C84.8712 64.9467 84.9325 65.3627 84.9325 65.816V71ZM81.2365 70.128C81.4872 70.128 81.7165 70.104 81.9245 70.056C82.1325 70.0027 82.3272 69.9307 82.5085 69.84C82.6952 69.744 82.8712 69.6293 83.0365 69.496C83.2072 69.3627 83.3725 69.2107 83.5325 69.04V67.352C82.8765 67.3733 82.3192 67.4267 81.8605 67.512C81.4018 67.592 81.0285 67.6987 80.7405 67.832C80.4525 67.9653 80.2418 68.1227 80.1085 68.304C79.9805 68.4853 79.9165 68.688 79.9165 68.912C79.9165 69.1253 79.9512 69.3093 80.0205 69.464C80.0898 69.6187 80.1832 69.7467 80.3005 69.848C80.4178 69.944 80.5565 70.016 80.7165 70.064C80.8765 70.1067 81.0498 70.128 81.2365 70.128ZM89.5459 71.128C88.9059 71.128 88.4125 70.9493 88.0659 70.592C87.7245 70.2347 87.5539 69.72 87.5539 69.048V64.088H86.5779C86.4925 64.088 86.4205 64.064 86.3619 64.016C86.3032 63.9627 86.2739 63.8827 86.2739 63.776V63.208L87.6019 63.04L87.9299 60.536C87.9405 60.456 87.9752 60.392 88.0339 60.344C88.0925 60.2907 88.1672 60.264 88.2579 60.264H88.9779V63.056H91.2979V64.088H88.9779V68.952C88.9779 69.2933 89.0605 69.5467 89.2259 69.712C89.3912 69.8773 89.6045 69.96 89.8659 69.96C90.0152 69.96 90.1432 69.9413 90.2499 69.904C90.3619 69.8613 90.4579 69.816 90.5379 69.768C90.6179 69.72 90.6845 69.6773 90.7379 69.64C90.7965 69.5973 90.8472 69.576 90.8899 69.576C90.9645 69.576 91.0312 69.6213 91.0899 69.712L91.5059 70.392C91.2605 70.6213 90.9645 70.8027 90.6179 70.936C90.2712 71.064 89.9139 71.128 89.5459 71.128ZM94.6426 62.896V71H93.2186V62.896H94.6426ZM94.9626 60.352C94.9626 60.4907 94.9333 60.6213 94.8746 60.744C94.8213 60.8613 94.7466 60.968 94.6506 61.064C94.56 61.1547 94.4533 61.2267 94.3306 61.28C94.208 61.3333 94.0773 61.36 93.9386 61.36C93.8 61.36 93.6693 61.3333 93.5466 61.28C93.4293 61.2267 93.3226 61.1547 93.2266 61.064C93.136 60.968 93.064 60.8613 93.0106 60.744C92.9573 60.6213 92.9306 60.4907 92.9306 60.352C92.9306 60.2133 92.9573 60.0827 93.0106 59.96C93.064 59.832 93.136 59.7227 93.2266 59.632C93.3226 59.536 93.4293 59.4613 93.5466 59.408C93.6693 59.3547 93.8 59.328 93.9386 59.328C94.0773 59.328 94.208 59.3547 94.3306 59.408C94.4533 59.4613 94.56 59.536 94.6506 59.632C94.7466 59.7227 94.8213 59.832 94.8746 59.96C94.9333 60.0827 94.9626 60.2133 94.9626 60.352ZM100.432 62.768C101.024 62.768 101.558 62.8667 102.032 63.064C102.512 63.2613 102.918 63.5413 103.248 63.904C103.584 64.2667 103.84 64.7067 104.016 65.224C104.198 65.736 104.288 66.3093 104.288 66.944C104.288 67.584 104.198 68.16 104.016 68.672C103.84 69.184 103.584 69.6213 103.248 69.984C102.918 70.3467 102.512 70.6267 102.032 70.824C101.558 71.016 101.024 71.112 100.432 71.112C99.8404 71.112 99.3044 71.016 98.8244 70.824C98.3497 70.6267 97.9444 70.3467 97.6084 69.984C97.2724 69.6213 97.0137 69.184 96.8324 68.672C96.651 68.16 96.5604 67.584 96.5604 66.944C96.5604 66.3093 96.651 65.736 96.8324 65.224C97.0137 64.7067 97.2724 64.2667 97.6084 63.904C97.9444 63.5413 98.3497 63.2613 98.8244 63.064C99.3044 62.8667 99.8404 62.768 100.432 62.768ZM100.432 70C101.232 70 101.83 69.7333 102.224 69.2C102.619 68.6613 102.816 67.912 102.816 66.952C102.816 65.9867 102.619 65.2347 102.224 64.696C101.83 64.1573 101.232 63.888 100.432 63.888C100.027 63.888 99.675 63.9573 99.3764 64.096C99.0777 64.2347 98.827 64.4347 98.6244 64.696C98.427 64.9573 98.2777 65.28 98.1764 65.664C98.0804 66.0427 98.0324 66.472 98.0324 66.952C98.0324 67.432 98.0804 67.8613 98.1764 68.24C98.2777 68.6187 98.427 68.9387 98.6244 69.2C98.827 69.456 99.0777 69.6533 99.3764 69.792C99.675 69.9307 100.027 70 100.432 70ZM106.043 71V62.896H106.891C107.094 62.896 107.222 62.9947 107.275 63.192L107.387 64.072C107.739 63.6827 108.131 63.368 108.563 63.128C109 62.888 109.504 62.768 110.075 62.768C110.518 62.768 110.907 62.8427 111.243 62.992C111.584 63.136 111.867 63.344 112.091 63.616C112.32 63.8827 112.494 64.2053 112.611 64.584C112.728 64.9627 112.787 65.3813 112.787 65.84V71H111.363V65.84C111.363 65.2267 111.222 64.752 110.939 64.416C110.662 64.0747 110.235 63.904 109.659 63.904C109.238 63.904 108.843 64.0053 108.475 64.208C108.112 64.4107 107.776 64.6853 107.467 65.032V71H106.043Z" fill="black"/>
<path d="M268.096 66.712V71H266.552V59.536H269.936C270.661 59.536 271.291 59.6213 271.824 59.792C272.363 59.9573 272.808 60.1947 273.16 60.504C273.512 60.8133 273.773 61.1867 273.944 61.624C274.12 62.0613 274.208 62.5493 274.208 63.088C274.208 63.6213 274.115 64.1093 273.928 64.552C273.741 64.9947 273.467 65.376 273.104 65.696C272.747 66.016 272.301 66.2667 271.768 66.448C271.235 66.624 270.624 66.712 269.936 66.712H268.096ZM268.096 65.48H269.936C270.379 65.48 270.768 65.4213 271.104 65.304C271.445 65.1867 271.731 65.024 271.96 64.816C272.189 64.6027 272.363 64.3493 272.48 64.056C272.597 63.7627 272.656 63.44 272.656 63.088C272.656 62.3573 272.429 61.7867 271.976 61.376C271.528 60.9653 270.848 60.76 269.936 60.76H268.096V65.48ZM277.877 66.712V71H276.333V59.536H279.717C280.443 59.536 281.072 59.6213 281.605 59.792C282.144 59.9573 282.589 60.1947 282.941 60.504C283.293 60.8133 283.555 61.1867 283.725 61.624C283.901 62.0613 283.989 62.5493 283.989 63.088C283.989 63.6213 283.896 64.1093 283.709 64.552C283.523 64.9947 283.248 65.376 282.885 65.696C282.528 66.016 282.083 66.2667 281.549 66.448C281.016 66.624 280.405 66.712 279.717 66.712H277.877ZM277.877 65.48H279.717C280.16 65.48 280.549 65.4213 280.885 65.304C281.227 65.1867 281.512 65.024 281.741 64.816C281.971 64.6027 282.144 64.3493 282.261 64.056C282.379 63.7627 282.437 63.44 282.437 63.088C282.437 62.3573 282.211 61.7867 281.757 61.376C281.309 60.9653 280.629 60.76 279.717 60.76H277.877V65.48ZM293.763 59.536V60.84H290.059V71H288.507V60.84H284.787V59.536H293.763Z" fill="black"/>
<path d="M25.296 19.432C25.392 19.432 25.472 19.4373 25.536 19.448C25.6 19.4533 25.656 19.4693 25.704 19.496C25.7573 19.5173 25.808 19.552 25.856 19.6C25.904 19.6427 25.9573 19.7013 26.016 19.776L32.088 27.512C32.0667 27.3253 32.0507 27.144 32.04 26.968C32.0347 26.7867 32.032 26.6187 32.032 26.464V19.432H33.928V31H32.816C32.6453 31 32.504 30.9733 32.392 30.92C32.28 30.8667 32.1707 30.7707 32.064 30.632L26.016 22.928C26.032 23.0987 26.0427 23.2693 26.048 23.44C26.0587 23.6053 26.064 23.7573 26.064 23.896V31H24.168V19.432H25.296ZM42.5818 31H41.6938C41.5071 31 41.3604 30.9733 41.2538 30.92C41.1471 30.8613 41.0671 30.7467 41.0138 30.576L40.8378 29.992C40.6298 30.1787 40.4244 30.344 40.2218 30.488C40.0244 30.6267 39.8191 30.744 39.6058 30.84C39.3924 30.936 39.1658 31.008 38.9258 31.056C38.6858 31.104 38.4191 31.128 38.1258 31.128C37.7791 31.128 37.4591 31.0827 37.1658 30.992C36.8724 30.896 36.6191 30.7547 36.4058 30.568C36.1978 30.3813 36.0351 30.1493 35.9178 29.872C35.8004 29.5947 35.7418 29.272 35.7418 28.904C35.7418 28.5947 35.8218 28.2907 35.9818 27.992C36.1471 27.688 36.4191 27.416 36.7978 27.176C37.1764 26.9307 37.6804 26.728 38.3098 26.568C38.9391 26.408 39.7204 26.3173 40.6538 26.296V25.816C40.6538 25.2667 40.5364 24.8613 40.3018 24.6C40.0724 24.3333 39.7364 24.2 39.2938 24.2C38.9738 24.2 38.7071 24.2373 38.4938 24.312C38.2804 24.3867 38.0938 24.472 37.9338 24.568C37.7791 24.6587 37.6351 24.7413 37.5018 24.816C37.3684 24.8907 37.2218 24.928 37.0618 24.928C36.9284 24.928 36.8138 24.8933 36.7178 24.824C36.6218 24.7547 36.5444 24.6693 36.4858 24.568L36.1258 23.936C37.0698 23.072 38.2084 22.64 39.5418 22.64C40.0218 22.64 40.4484 22.72 40.8218 22.88C41.2004 23.0347 41.5204 23.2533 41.7818 23.536C42.0431 23.8133 42.2404 24.1467 42.3738 24.536C42.5124 24.9253 42.5818 25.352 42.5818 25.816V31ZM38.7418 29.768C38.9444 29.768 39.1311 29.7493 39.3018 29.712C39.4724 29.6747 39.6324 29.6187 39.7818 29.544C39.9364 29.4693 40.0831 29.3787 40.2218 29.272C40.3658 29.16 40.5098 29.0293 40.6538 28.88V27.496C40.0778 27.5227 39.5951 27.5733 39.2057 27.648C38.8218 27.7173 38.5124 27.808 38.2778 27.92C38.0431 28.032 37.8751 28.1627 37.7738 28.312C37.6778 28.4613 37.6298 28.624 37.6298 28.8C37.6298 29.1467 37.7311 29.3947 37.9338 29.544C38.1418 29.6933 38.4111 29.768 38.7418 29.768ZM44.5247 31V22.792H45.7328C45.9888 22.792 46.1568 22.912 46.2368 23.152L46.3648 23.76C46.5088 23.6 46.6581 23.4533 46.8128 23.32C46.9728 23.1867 47.1408 23.072 47.3168 22.976C47.4981 22.88 47.6901 22.8053 47.8928 22.752C48.1008 22.6933 48.3274 22.664 48.5728 22.664C49.0901 22.664 49.5141 22.8053 49.8448 23.088C50.1808 23.3653 50.4314 23.736 50.5968 24.2C50.7248 23.928 50.8848 23.696 51.0768 23.504C51.2688 23.3067 51.4794 23.1467 51.7088 23.024C51.9381 22.9013 52.1808 22.8107 52.4368 22.752C52.6981 22.6933 52.9594 22.664 53.2208 22.664C53.6741 22.664 54.0768 22.7333 54.4288 22.872C54.7808 23.0107 55.0768 23.2133 55.3168 23.48C55.5568 23.7467 55.7381 24.072 55.8608 24.456C55.9888 24.84 56.0528 25.28 56.0528 25.776V31H54.0768V25.776C54.0768 25.2533 53.9621 24.8613 53.7328 24.6C53.5034 24.3333 53.1674 24.2 52.7248 24.2C52.5221 24.2 52.3328 24.2347 52.1568 24.304C51.9861 24.3733 51.8341 24.4747 51.7008 24.608C51.5728 24.736 51.4714 24.8987 51.3968 25.096C51.3221 25.2933 51.2848 25.52 51.2848 25.776V31H49.3008V25.776C49.3008 25.2267 49.1888 24.8267 48.9648 24.576C48.7461 24.3253 48.4208 24.2 47.9887 24.2C47.7061 24.2 47.4394 24.272 47.1888 24.416C46.9434 24.5547 46.7141 24.7467 46.5008 24.992V31H44.5247ZM61.3855 22.664C61.9028 22.664 62.3775 22.7467 62.8095 22.912C63.2468 23.0773 63.6228 23.32 63.9375 23.64C64.2522 23.9547 64.4975 24.344 64.6735 24.808C64.8495 25.2667 64.9375 25.792 64.9375 26.384C64.9375 26.5333 64.9295 26.6587 64.9135 26.76C64.9028 26.856 64.8788 26.9333 64.8415 26.992C64.8095 27.0453 64.7642 27.0853 64.7055 27.112C64.6468 27.1333 64.5722 27.144 64.4815 27.144H59.4095C59.4682 27.9867 59.6948 28.6053 60.0895 29C60.4842 29.3947 61.0068 29.592 61.6575 29.592C61.9775 29.592 62.2522 29.5547 62.4815 29.48C62.7162 29.4053 62.9188 29.3227 63.0895 29.232C63.2655 29.1413 63.4175 29.0587 63.5455 28.984C63.6788 28.9093 63.8068 28.872 63.9295 28.872C64.0095 28.872 64.0788 28.888 64.1375 28.92C64.1962 28.952 64.2468 28.9973 64.2895 29.056L64.8655 29.776C64.6468 30.032 64.4015 30.248 64.1295 30.424C63.8575 30.5947 63.5722 30.7333 63.2735 30.84C62.9802 30.9413 62.6788 31.0133 62.3695 31.056C62.0655 31.0987 61.7695 31.12 61.4815 31.12C60.9108 31.12 60.3802 31.0267 59.8895 30.84C59.3988 30.648 58.9722 30.368 58.6095 30C58.2468 29.6267 57.9615 29.168 57.7535 28.624C57.5455 28.0747 57.4415 27.44 57.4415 26.72C57.4415 26.16 57.5322 25.6347 57.7135 25.144C57.8948 24.648 58.1535 24.2187 58.4895 23.856C58.8308 23.488 59.2442 23.1973 59.7295 22.984C60.2202 22.7707 60.7722 22.664 61.3855 22.664ZM61.4255 24.08C60.8495 24.08 60.3988 24.2427 60.0735 24.568C59.7482 24.8933 59.5402 25.3547 59.4495 25.952H63.1615C63.1615 25.696 63.1268 25.456 63.0575 25.232C62.9882 25.0027 62.8815 24.8027 62.7375 24.632C62.5935 24.4613 62.4122 24.328 62.1935 24.232C61.9748 24.1307 61.7188 24.08 61.4255 24.08Z" fill="black"/>
<path d="M274.32 19.432V21.2H270.84V31H268.688V21.2H265.192V19.432H274.32ZM277.046 33.256C276.987 33.3947 276.91 33.4987 276.814 33.568C276.723 33.6427 276.582 33.68 276.39 33.68H274.918L276.454 30.392L273.134 22.792H274.862C275.022 22.792 275.145 22.8293 275.23 22.904C275.315 22.9787 275.379 23.064 275.422 23.16L277.174 27.416C277.233 27.5547 277.283 27.6987 277.326 27.848C277.369 27.9973 277.406 28.1467 277.438 28.296C277.481 28.1413 277.526 27.992 277.574 27.848C277.627 27.704 277.683 27.5573 277.742 27.408L279.39 23.16C279.433 23.0533 279.502 22.9653 279.598 22.896C279.699 22.8267 279.811 22.792 279.934 22.792H281.518L277.046 33.256ZM282.665 33.68V22.792H283.873C284.001 22.792 284.111 22.8213 284.201 22.88C284.292 22.9387 284.351 23.0293 284.377 23.152L284.537 23.912C284.868 23.5333 285.247 23.2267 285.673 22.992C286.105 22.7573 286.609 22.64 287.185 22.64C287.633 22.64 288.041 22.7333 288.409 22.92C288.783 23.1067 289.103 23.3787 289.369 23.736C289.641 24.088 289.849 24.5253 289.993 25.048C290.143 25.5653 290.217 26.16 290.217 26.832C290.217 27.4453 290.135 28.0133 289.969 28.536C289.804 29.0587 289.567 29.512 289.257 29.896C288.953 30.28 288.583 30.5813 288.145 30.8C287.713 31.0133 287.228 31.12 286.689 31.12C286.225 31.12 285.831 31.0507 285.505 30.912C285.185 30.768 284.897 30.5707 284.641 30.32V33.68H282.665ZM286.505 24.2C286.095 24.2 285.743 24.288 285.449 24.464C285.161 24.6347 284.892 24.8773 284.641 25.192V28.872C284.865 29.1493 285.108 29.344 285.369 29.456C285.636 29.5627 285.921 29.616 286.225 29.616C286.524 29.616 286.793 29.56 287.033 29.448C287.279 29.336 287.484 29.1653 287.649 28.936C287.82 28.7067 287.951 28.4187 288.041 28.072C288.132 27.72 288.177 27.3067 288.177 26.832C288.177 26.352 288.137 25.9467 288.057 25.616C287.983 25.28 287.873 25.008 287.729 24.8C287.585 24.592 287.409 24.44 287.201 24.344C286.999 24.248 286.767 24.2 286.505 24.2ZM295.104 22.664C295.622 22.664 296.096 22.7467 296.528 22.912C296.966 23.0773 297.342 23.32 297.656 23.64C297.971 23.9547 298.216 24.344 298.392 24.808C298.568 25.2667 298.656 25.792 298.656 26.384C298.656 26.5333 298.648 26.6587 298.632 26.76C298.622 26.856 298.598 26.9333 298.56 26.992C298.528 27.0453 298.483 27.0853 298.424 27.112C298.366 27.1333 298.291 27.144 298.2 27.144H293.128C293.187 27.9867 293.414 28.6053 293.808 29C294.203 29.3947 294.726 29.592 295.376 29.592C295.696 29.592 295.971 29.5547 296.2 29.48C296.435 29.4053 296.638 29.3227 296.808 29.232C296.984 29.1413 297.136 29.0587 297.264 28.984C297.398 28.9093 297.526 28.872 297.648 28.872C297.728 28.872 297.798 28.888 297.856 28.92C297.915 28.952 297.966 28.9973 298.008 29.056L298.584 29.776C298.366 30.032 298.12 30.248 297.848 30.424C297.576 30.5947 297.291 30.7333 296.992 30.84C296.699 30.9413 296.398 31.0133 296.088 31.056C295.784 31.0987 295.488 31.12 295.2 31.12C294.63 31.12 294.099 31.0267 293.608 30.84C293.118 30.648 292.691 30.368 292.328 30C291.966 29.6267 291.68 29.168 291.472 28.624C291.264 28.0747 291.16 27.44 291.16 26.72C291.16 26.16 291.251 25.6347 291.432 25.144C291.614 24.648 291.872 24.2187 292.208 23.856C292.55 23.488 292.963 23.1973 293.448 22.984C293.939 22.7707 294.491 22.664 295.104 22.664ZM295.144 24.08C294.568 24.08 294.118 24.2427 293.792 24.568C293.467 24.8933 293.259 25.3547 293.168 25.952H296.88C296.88 25.696 296.846 25.456 296.776 25.232C296.707 25.0027 296.6 24.8027 296.456 24.632C296.312 24.4613 296.131 24.328 295.912 24.232C295.694 24.1307 295.438 24.08 295.144 24.08Z" fill="black"/>
<path d="M26.232 121H24.68V109.536H26.232V121ZM29.0743 121V112.896H29.9223C30.1249 112.896 30.2529 112.995 30.3063 113.192L30.4103 114.024C30.7089 113.656 31.0423 113.355 31.4103 113.12C31.7836 112.885 32.2156 112.768 32.7063 112.768C33.2556 112.768 33.6983 112.92 34.0343 113.224C34.3756 113.528 34.6209 113.939 34.7703 114.456C34.8823 114.163 35.0289 113.909 35.2103 113.696C35.3969 113.483 35.6049 113.307 35.8343 113.168C36.0636 113.029 36.3063 112.928 36.5623 112.864C36.8236 112.8 37.0876 112.768 37.3543 112.768C37.7809 112.768 38.1596 112.837 38.4903 112.976C38.8263 113.109 39.1089 113.307 39.3383 113.568C39.5729 113.829 39.7516 114.152 39.8743 114.536C39.9969 114.915 40.0583 115.349 40.0583 115.84V121H38.6343V115.84C38.6343 115.205 38.4956 114.725 38.2183 114.4C37.9409 114.069 37.5383 113.904 37.0103 113.904C36.7756 113.904 36.5516 113.947 36.3383 114.032C36.1303 114.112 35.9463 114.232 35.7863 114.392C35.6263 114.552 35.4983 114.755 35.4023 115C35.3116 115.24 35.2663 115.52 35.2663 115.84V121H33.8423V115.84C33.8423 115.189 33.7116 114.704 33.4503 114.384C33.1889 114.064 32.8076 113.904 32.3063 113.904C31.9543 113.904 31.6263 114 31.3223 114.192C31.0236 114.379 30.7489 114.635 30.4983 114.96V121H29.0743ZM48.1669 121H47.5349C47.3962 121 47.2842 120.979 47.1989 120.936C47.1135 120.893 47.0575 120.803 47.0309 120.664L46.8709 119.912C46.6575 120.104 46.4495 120.277 46.2469 120.432C46.0442 120.581 45.8309 120.709 45.6069 120.816C45.3829 120.917 45.1429 120.995 44.8869 121.048C44.6362 121.101 44.3562 121.128 44.0469 121.128C43.7322 121.128 43.4362 121.085 43.1589 121C42.8869 120.909 42.6495 120.776 42.4469 120.6C42.2442 120.424 42.0815 120.203 41.9589 119.936C41.8415 119.664 41.7829 119.344 41.7829 118.976C41.7829 118.656 41.8709 118.349 42.0469 118.056C42.2229 117.757 42.5055 117.493 42.8949 117.264C43.2895 117.035 43.8042 116.848 44.4389 116.704C45.0735 116.555 45.8495 116.469 46.7669 116.448V115.816C46.7669 115.187 46.6309 114.712 46.3589 114.392C46.0922 114.067 45.6949 113.904 45.1669 113.904C44.8202 113.904 44.5269 113.949 44.2869 114.04C44.0522 114.125 43.8469 114.224 43.6709 114.336C43.5002 114.443 43.3509 114.541 43.2229 114.632C43.1002 114.717 42.9775 114.76 42.8549 114.76C42.7589 114.76 42.6735 114.736 42.5989 114.688C42.5295 114.635 42.4735 114.571 42.4309 114.496L42.1749 114.04C42.6229 113.608 43.1055 113.285 43.6229 113.072C44.1402 112.859 44.7135 112.752 45.3429 112.752C45.7962 112.752 46.1989 112.827 46.5509 112.976C46.9029 113.125 47.1989 113.333 47.4389 113.6C47.6789 113.867 47.8602 114.189 47.9829 114.568C48.1055 114.947 48.1669 115.363 48.1669 115.816V121ZM44.4709 120.128C44.7215 120.128 44.9509 120.104 45.1589 120.056C45.3669 120.003 45.5615 119.931 45.7429 119.84C45.9295 119.744 46.1055 119.629 46.2709 119.496C46.4415 119.363 46.6069 119.211 46.7669 119.04V117.352C46.1109 117.373 45.5535 117.427 45.0949 117.512C44.6362 117.592 44.2629 117.699 43.9749 117.832C43.6869 117.965 43.4762 118.123 43.3429 118.304C43.2149 118.485 43.1509 118.688 43.1509 118.912C43.1509 119.125 43.1855 119.309 43.2549 119.464C43.3242 119.619 43.4175 119.747 43.5349 119.848C43.6522 119.944 43.7909 120.016 43.9509 120.064C44.1109 120.107 44.2842 120.128 44.4709 120.128ZM53.0523 112.76C53.4043 112.76 53.7323 112.8 54.0363 112.88C54.3456 112.955 54.6256 113.067 54.8763 113.216H57.0763V113.744C57.0763 113.92 56.9643 114.032 56.7403 114.08L55.8203 114.208C56.0016 114.555 56.0923 114.941 56.0923 115.368C56.0923 115.763 56.0149 116.123 55.8603 116.448C55.7109 116.768 55.5003 117.043 55.2283 117.272C54.9616 117.501 54.6416 117.677 54.2683 117.8C53.9003 117.923 53.4949 117.984 53.0523 117.984C52.6736 117.984 52.3163 117.939 51.9803 117.848C51.8096 117.955 51.6789 118.069 51.5883 118.192C51.5029 118.315 51.4603 118.435 51.4603 118.552C51.4603 118.744 51.5376 118.891 51.6923 118.992C51.8469 119.088 52.0523 119.157 52.3083 119.2C52.5643 119.243 52.8549 119.269 53.1803 119.28C53.5056 119.291 53.8363 119.309 54.1723 119.336C54.5136 119.357 54.8469 119.397 55.1723 119.456C55.4976 119.515 55.7883 119.611 56.0443 119.744C56.3003 119.877 56.5056 120.061 56.6603 120.296C56.8149 120.531 56.8923 120.835 56.8923 121.208C56.8923 121.555 56.8043 121.891 56.6283 122.216C56.4576 122.541 56.2096 122.829 55.8843 123.08C55.5589 123.336 55.1616 123.539 54.6923 123.688C54.2229 123.843 53.6923 123.92 53.1003 123.92C52.5083 123.92 51.9883 123.861 51.5403 123.744C51.0976 123.627 50.7296 123.469 50.4363 123.272C50.1429 123.075 49.9216 122.845 49.7723 122.584C49.6283 122.328 49.5563 122.059 49.5563 121.776C49.5563 121.376 49.6816 121.037 49.9323 120.76C50.1883 120.477 50.5376 120.253 50.9803 120.088C50.7509 119.981 50.5669 119.84 50.4283 119.664C50.2949 119.483 50.2283 119.243 50.2283 118.944C50.2283 118.827 50.2496 118.707 50.2923 118.584C50.3349 118.456 50.3989 118.331 50.4843 118.208C50.5749 118.085 50.6843 117.968 50.8123 117.856C50.9403 117.744 51.0896 117.645 51.2603 117.56C50.8603 117.336 50.5456 117.04 50.3163 116.672C50.0923 116.299 49.9803 115.864 49.9803 115.368C49.9803 114.973 50.0549 114.616 50.2043 114.296C50.3589 113.971 50.5723 113.696 50.8443 113.472C51.1163 113.243 51.4389 113.067 51.8123 112.944C52.1909 112.821 52.6043 112.76 53.0523 112.76ZM55.5803 121.44C55.5803 121.237 55.5243 121.075 55.4123 120.952C55.3003 120.829 55.1483 120.736 54.9563 120.672C54.7643 120.603 54.5429 120.552 54.2923 120.52C54.0416 120.488 53.7776 120.467 53.5003 120.456C53.2229 120.44 52.9403 120.424 52.6523 120.408C52.3643 120.392 52.0896 120.363 51.8283 120.32C51.5243 120.464 51.2763 120.64 51.0843 120.848C50.8976 121.056 50.8043 121.304 50.8043 121.592C50.8043 121.773 50.8496 121.941 50.9403 122.096C51.0363 122.256 51.1803 122.392 51.3723 122.504C51.5643 122.621 51.8043 122.712 52.0923 122.776C52.3856 122.845 52.7296 122.88 53.1243 122.88C53.5083 122.88 53.8523 122.845 54.1562 122.776C54.4603 122.707 54.7163 122.608 54.9243 122.48C55.1376 122.352 55.3003 122.2 55.4123 122.024C55.5243 121.848 55.5803 121.653 55.5803 121.44ZM53.0523 117.04C53.3403 117.04 53.5936 117 53.8123 116.92C54.0363 116.84 54.2229 116.728 54.3723 116.584C54.5216 116.44 54.6336 116.269 54.7083 116.072C54.7829 115.869 54.8203 115.648 54.8203 115.408C54.8203 114.912 54.6683 114.517 54.3643 114.224C54.0656 113.931 53.6283 113.784 53.0523 113.784C52.4816 113.784 52.0443 113.931 51.7403 114.224C51.4416 114.517 51.2923 114.912 51.2923 115.408C51.2923 115.648 51.3296 115.869 51.4043 116.072C51.4843 116.269 51.5989 116.44 51.7483 116.584C51.8976 116.728 52.0816 116.84 52.3003 116.92C52.5189 117 52.7696 117.04 53.0523 117.04ZM61.7041 112.768C62.1895 112.768 62.6375 112.851 63.0481 113.016C63.4588 113.176 63.8135 113.411 64.1121 113.72C64.4108 114.024 64.6428 114.403 64.8081 114.856C64.9788 115.304 65.0641 115.816 65.0641 116.392C65.0641 116.616 65.0401 116.765 64.9921 116.84C64.9441 116.915 64.8535 116.952 64.7201 116.952H59.3281C59.3388 117.464 59.4081 117.909 59.5361 118.288C59.6641 118.667 59.8401 118.984 60.0641 119.24C60.2881 119.491 60.5548 119.68 60.8641 119.808C61.1735 119.931 61.5201 119.992 61.9041 119.992C62.2615 119.992 62.5681 119.952 62.8241 119.872C63.0855 119.787 63.3095 119.696 63.4961 119.6C63.6828 119.504 63.8375 119.416 63.9601 119.336C64.0881 119.251 64.1975 119.208 64.2881 119.208C64.4055 119.208 64.4961 119.253 64.5601 119.344L64.9601 119.864C64.7841 120.077 64.5735 120.264 64.3281 120.424C64.0828 120.579 63.8188 120.707 63.5361 120.808C63.2588 120.909 62.9708 120.984 62.6721 121.032C62.3735 121.085 62.0775 121.112 61.7841 121.112C61.2241 121.112 60.7068 121.019 60.2321 120.832C59.7628 120.64 59.3548 120.363 59.0081 120C58.6668 119.632 58.4001 119.179 58.2081 118.64C58.0161 118.101 57.9201 117.483 57.9201 116.784C57.9201 116.219 58.0055 115.691 58.1761 115.2C58.3521 114.709 58.6028 114.285 58.9281 113.928C59.2535 113.565 59.6508 113.283 60.1201 113.08C60.5895 112.872 61.1175 112.768 61.7041 112.768ZM61.7361 113.816C61.0481 113.816 60.5068 114.016 60.1121 114.416C59.7175 114.811 59.4721 115.36 59.3761 116.064H63.7841C63.7841 115.733 63.7388 115.432 63.6481 115.16C63.5575 114.883 63.4241 114.645 63.2481 114.448C63.0721 114.245 62.8561 114.091 62.6001 113.984C62.3495 113.872 62.0615 113.816 61.7361 113.816Z" fill="black"/>
<path d="M268.096 116.712V121H266.552V109.536H269.936C270.661 109.536 271.291 109.621 271.824 109.792C272.363 109.957 272.808 110.195 273.16 110.504C273.512 110.813 273.773 111.187 273.944 111.624C274.12 112.061 274.208 112.549 274.208 113.088C274.208 113.621 274.115 114.109 273.928 114.552C273.741 114.995 273.467 115.376 273.104 115.696C272.747 116.016 272.301 116.267 271.768 116.448C271.235 116.624 270.624 116.712 269.936 116.712H268.096ZM268.096 115.48H269.936C270.379 115.48 270.768 115.421 271.104 115.304C271.445 115.187 271.731 115.024 271.96 114.816C272.189 114.603 272.363 114.349 272.48 114.056C272.597 113.763 272.656 113.44 272.656 113.088C272.656 112.357 272.429 111.787 271.976 111.376C271.528 110.965 270.848 110.76 269.936 110.76H268.096V115.48ZM276.973 109.536C277.112 109.536 277.213 109.555 277.277 109.592C277.347 109.624 277.424 109.693 277.509 109.8L284.149 118.44C284.133 118.301 284.123 118.168 284.117 118.04C284.112 117.907 284.109 117.779 284.109 117.656V109.536H285.469V121H284.685C284.563 121 284.459 120.979 284.373 120.936C284.293 120.893 284.213 120.821 284.133 120.72L277.501 112.088C277.512 112.221 277.52 112.352 277.525 112.48C277.531 112.608 277.533 112.725 277.533 112.832V121H276.173V109.536H276.973ZM293.379 119.872C293.688 119.872 293.971 119.859 294.227 119.832C294.488 119.8 294.734 119.755 294.963 119.696C295.192 119.637 295.408 119.568 295.611 119.488C295.814 119.403 296.016 119.307 296.219 119.2V116.672H294.443C294.342 116.672 294.259 116.643 294.195 116.584C294.136 116.525 294.107 116.453 294.107 116.368V115.488H297.627V119.888C297.339 120.096 297.038 120.277 296.723 120.432C296.414 120.587 296.08 120.717 295.723 120.824C295.371 120.925 294.992 121 294.587 121.048C294.182 121.101 293.742 121.128 293.267 121.128C292.435 121.128 291.672 120.987 290.979 120.704C290.286 120.416 289.688 120.016 289.187 119.504C288.686 118.987 288.294 118.368 288.011 117.648C287.734 116.928 287.595 116.136 287.595 115.272C287.595 114.397 287.731 113.6 288.003 112.88C288.28 112.16 288.672 111.544 289.179 111.032C289.691 110.515 290.307 110.115 291.027 109.832C291.752 109.549 292.563 109.408 293.459 109.408C293.912 109.408 294.334 109.443 294.723 109.512C295.112 109.576 295.472 109.672 295.803 109.8C296.139 109.923 296.448 110.075 296.731 110.256C297.014 110.432 297.278 110.632 297.523 110.856L297.083 111.56C296.992 111.704 296.875 111.776 296.731 111.776C296.646 111.776 296.552 111.747 296.451 111.688C296.318 111.613 296.168 111.523 296.003 111.416C295.838 111.309 295.635 111.208 295.395 111.112C295.16 111.011 294.88 110.925 294.555 110.856C294.235 110.787 293.854 110.752 293.411 110.752C292.766 110.752 292.182 110.859 291.659 111.072C291.136 111.28 290.691 111.581 290.323 111.976C289.955 112.365 289.672 112.84 289.475 113.4C289.278 113.955 289.179 114.579 289.179 115.272C289.179 115.997 289.28 116.645 289.483 117.216C289.691 117.781 289.982 118.261 290.355 118.656C290.728 119.051 291.171 119.352 291.683 119.56C292.195 119.768 292.76 119.872 293.379 119.872Z" fill="black"/>
<path d="M25.944 169.696H30.904V171H24.392V159.536H25.944V169.696ZM35.3855 162.768C35.9775 162.768 36.5108 162.867 36.9855 163.064C37.4655 163.261 37.8708 163.541 38.2015 163.904C38.5375 164.267 38.7935 164.707 38.9695 165.224C39.1508 165.736 39.2415 166.309 39.2415 166.944C39.2415 167.584 39.1508 168.16 38.9695 168.672C38.7935 169.184 38.5375 169.621 38.2015 169.984C37.8708 170.347 37.4655 170.627 36.9855 170.824C36.5108 171.016 35.9775 171.112 35.3855 171.112C34.7935 171.112 34.2575 171.016 33.7775 170.824C33.3028 170.627 32.8975 170.347 32.5615 169.984C32.2255 169.621 31.9668 169.184 31.7855 168.672C31.6042 168.16 31.5135 167.584 31.5135 166.944C31.5135 166.309 31.6042 165.736 31.7855 165.224C31.9668 164.707 32.2255 164.267 32.5615 163.904C32.8975 163.541 33.3028 163.261 33.7775 163.064C34.2575 162.867 34.7935 162.768 35.3855 162.768ZM35.3855 170C36.1855 170 36.7828 169.733 37.1775 169.2C37.5722 168.661 37.7695 167.912 37.7695 166.952C37.7695 165.987 37.5722 165.235 37.1775 164.696C36.7828 164.157 36.1855 163.888 35.3855 163.888C34.9802 163.888 34.6282 163.957 34.3295 164.096C34.0308 164.235 33.7802 164.435 33.5775 164.696C33.3802 164.957 33.2308 165.28 33.1295 165.664C33.0335 166.043 32.9855 166.472 32.9855 166.952C32.9855 167.432 33.0335 167.861 33.1295 168.24C33.2308 168.619 33.3802 168.939 33.5775 169.2C33.7802 169.456 34.0308 169.653 34.3295 169.792C34.6282 169.931 34.9802 170 35.3855 170ZM40.9961 171V162.896H41.8121C41.9668 162.896 42.0735 162.925 42.1321 162.984C42.1908 163.043 42.2308 163.144 42.2521 163.288L42.3481 164.552C42.6255 163.987 42.9668 163.547 43.3721 163.232C43.7828 162.912 44.2628 162.752 44.8121 162.752C45.0361 162.752 45.2388 162.779 45.4201 162.832C45.6015 162.88 45.7695 162.949 45.9241 163.04L45.7401 164.104C45.7028 164.237 45.6201 164.304 45.4921 164.304C45.4175 164.304 45.3028 164.28 45.1481 164.232C44.9935 164.179 44.7775 164.152 44.5001 164.152C44.0041 164.152 43.5881 164.296 43.2521 164.584C42.9215 164.872 42.6441 165.291 42.4201 165.84V171H40.9961ZM50.6573 162.768C51.1426 162.768 51.5906 162.851 52.0013 163.016C52.4119 163.176 52.7666 163.411 53.0653 163.72C53.3639 164.024 53.5959 164.403 53.7613 164.856C53.9319 165.304 54.0173 165.816 54.0173 166.392C54.0173 166.616 53.9933 166.765 53.9453 166.84C53.8973 166.915 53.8066 166.952 53.6733 166.952H48.2812C48.2919 167.464 48.3613 167.909 48.4893 168.288C48.6173 168.667 48.7933 168.984 49.0173 169.24C49.2413 169.491 49.5079 169.68 49.8173 169.808C50.1266 169.931 50.4733 169.992 50.8573 169.992C51.2146 169.992 51.5213 169.952 51.7773 169.872C52.0386 169.787 52.2626 169.696 52.4493 169.6C52.6359 169.504 52.7906 169.416 52.9133 169.336C53.0413 169.251 53.1506 169.208 53.2413 169.208C53.3586 169.208 53.4493 169.253 53.5133 169.344L53.9133 169.864C53.7373 170.077 53.5266 170.264 53.2813 170.424C53.0359 170.579 52.7719 170.707 52.4893 170.808C52.2119 170.909 51.9239 170.984 51.6253 171.032C51.3266 171.085 51.0306 171.112 50.7373 171.112C50.1773 171.112 49.6599 171.019 49.1853 170.832C48.7159 170.64 48.3079 170.363 47.9613 170C47.6199 169.632 47.3533 169.179 47.1613 168.64C46.9693 168.101 46.8733 167.483 46.8733 166.784C46.8733 166.219 46.9586 165.691 47.1293 165.2C47.3053 164.709 47.5559 164.285 47.8813 163.928C48.2066 163.565 48.6039 163.283 49.0733 163.08C49.5426 162.872 50.0706 162.768 50.6573 162.768ZM50.6892 163.816C50.0013 163.816 49.4599 164.016 49.0653 164.416C48.6706 164.811 48.4253 165.36 48.3293 166.064H52.7373C52.7373 165.733 52.6919 165.432 52.6013 165.16C52.5106 164.883 52.3773 164.645 52.2013 164.448C52.0253 164.245 51.8093 164.091 51.5533 163.984C51.3026 163.872 51.0146 163.816 50.6892 163.816ZM55.8399 171V162.896H56.6879C56.8905 162.896 57.0185 162.995 57.0719 163.192L57.1759 164.024C57.4745 163.656 57.8079 163.355 58.1759 163.12C58.5492 162.885 58.9812 162.768 59.4719 162.768C60.0212 162.768 60.4639 162.92 60.7999 163.224C61.1412 163.528 61.3865 163.939 61.5359 164.456C61.6479 164.163 61.7945 163.909 61.9759 163.696C62.1625 163.483 62.3705 163.307 62.5999 163.168C62.8292 163.029 63.0719 162.928 63.3279 162.864C63.5892 162.8 63.8532 162.768 64.1199 162.768C64.5465 162.768 64.9252 162.837 65.2559 162.976C65.5919 163.109 65.8745 163.307 66.1039 163.568C66.3385 163.829 66.5172 164.152 66.6399 164.536C66.7625 164.915 66.8239 165.349 66.8239 165.84V171H65.3999V165.84C65.3999 165.205 65.2612 164.725 64.9839 164.4C64.7065 164.069 64.3039 163.904 63.7759 163.904C63.5412 163.904 63.3172 163.947 63.1039 164.032C62.8959 164.112 62.7119 164.232 62.5519 164.392C62.3919 164.552 62.2639 164.755 62.1679 165C62.0772 165.24 62.0319 165.52 62.0319 165.84V171H60.6079V165.84C60.6079 165.189 60.4772 164.704 60.2159 164.384C59.9545 164.064 59.5732 163.904 59.0719 163.904C58.7199 163.904 58.3919 164 58.0879 164.192C57.7892 164.379 57.5145 164.635 57.2639 164.96V171H55.8399ZM74.1165 172.32V173.28H67.8125V172.32H74.1165ZM76.8614 162.896V171H75.4374V162.896H76.8614ZM77.1814 160.352C77.1814 160.491 77.152 160.621 77.0934 160.744C77.04 160.861 76.9654 160.968 76.8694 161.064C76.7787 161.155 76.672 161.227 76.5494 161.28C76.4267 161.333 76.296 161.36 76.1574 161.36C76.0187 161.36 75.888 161.333 75.7654 161.28C75.648 161.227 75.5414 161.155 75.4454 161.064C75.3547 160.968 75.2827 160.861 75.2294 160.744C75.176 160.621 75.1494 160.491 75.1494 160.352C75.1494 160.213 75.176 160.083 75.2294 159.96C75.2827 159.832 75.3547 159.723 75.4454 159.632C75.5414 159.536 75.648 159.461 75.7654 159.408C75.888 159.355 76.0187 159.328 76.1574 159.328C76.296 159.328 76.4267 159.355 76.5494 159.408C76.672 159.461 76.7787 159.536 76.8694 159.632C76.9654 159.723 77.04 159.832 77.0934 159.96C77.152 160.083 77.1814 160.213 77.1814 160.352ZM79.3711 173.744V162.896H80.2191C80.4218 162.896 80.5498 162.995 80.6031 163.192L80.7231 164.152C81.0698 163.731 81.4645 163.392 81.9071 163.136C82.3551 162.88 82.8698 162.752 83.4511 162.752C83.9151 162.752 84.3365 162.843 84.7151 163.024C85.0938 163.2 85.4165 163.464 85.6831 163.816C85.9498 164.163 86.1551 164.595 86.2991 165.112C86.4431 165.629 86.5151 166.224 86.5151 166.896C86.5151 167.493 86.4351 168.051 86.2751 168.568C86.1151 169.08 85.8858 169.525 85.5871 169.904C85.2885 170.277 84.9205 170.573 84.4831 170.792C84.0511 171.005 83.5631 171.112 83.0191 171.112C82.5178 171.112 82.0885 171.029 81.7311 170.864C81.3791 170.699 81.0671 170.464 80.7951 170.16V173.744H79.3711ZM82.9791 163.904C82.5151 163.904 82.1071 164.011 81.7551 164.224C81.4085 164.437 81.0885 164.739 80.7951 165.128V169.048C81.0565 169.4 81.3418 169.648 81.6511 169.792C81.9658 169.936 82.3151 170.008 82.6991 170.008C83.4511 170.008 84.0298 169.739 84.4351 169.2C84.8405 168.661 85.0431 167.893 85.0431 166.896C85.0431 166.368 84.9951 165.915 84.8991 165.536C84.8085 165.157 84.6751 164.848 84.4991 164.608C84.3231 164.363 84.1071 164.184 83.8511 164.072C83.5951 163.96 83.3045 163.904 82.9791 163.904ZM92.8393 164.232C92.7753 164.349 92.6766 164.408 92.5433 164.408C92.4633 164.408 92.3726 164.379 92.2713 164.32C92.1699 164.261 92.0446 164.197 91.8953 164.128C91.7513 164.053 91.5779 163.987 91.3753 163.928C91.1726 163.864 90.9326 163.832 90.6553 163.832C90.4153 163.832 90.1993 163.864 90.0073 163.928C89.8153 163.987 89.6499 164.069 89.5113 164.176C89.3779 164.283 89.2739 164.408 89.1993 164.552C89.1299 164.691 89.0953 164.843 89.0953 165.008C89.0953 165.216 89.1539 165.389 89.2713 165.528C89.3939 165.667 89.5539 165.787 89.7513 165.888C89.9486 165.989 90.1726 166.08 90.4233 166.16C90.6739 166.235 90.9299 166.317 91.1913 166.408C91.4579 166.493 91.7166 166.589 91.9673 166.696C92.2179 166.803 92.4419 166.936 92.6393 167.096C92.8366 167.256 92.9939 167.453 93.1113 167.688C93.2339 167.917 93.2953 168.195 93.2953 168.52C93.2953 168.893 93.2286 169.24 93.0953 169.56C92.9619 169.875 92.7646 170.149 92.5033 170.384C92.2419 170.613 91.9219 170.795 91.5433 170.928C91.1646 171.061 90.7273 171.128 90.2313 171.128C89.6659 171.128 89.1539 171.037 88.6953 170.856C88.2366 170.669 87.8473 170.432 87.5273 170.144L87.8633 169.6C87.9059 169.531 87.9566 169.477 88.0153 169.44C88.0739 169.403 88.1513 169.384 88.2473 169.384C88.3433 169.384 88.4446 169.421 88.5513 169.496C88.6579 169.571 88.7859 169.653 88.9353 169.744C89.0899 169.835 89.2739 169.917 89.4873 169.992C89.7059 170.067 89.9779 170.104 90.3033 170.104C90.5806 170.104 90.8233 170.069 91.0312 170C91.2393 169.925 91.4126 169.827 91.5512 169.704C91.6899 169.581 91.7913 169.44 91.8553 169.28C91.9246 169.12 91.9593 168.949 91.9593 168.768C91.9593 168.544 91.8979 168.36 91.7753 168.216C91.6579 168.067 91.5006 167.941 91.3033 167.84C91.1059 167.733 90.8793 167.643 90.6233 167.568C90.3726 167.488 90.1139 167.405 89.8473 167.32C89.5859 167.235 89.3273 167.139 89.0713 167.032C88.8206 166.92 88.5966 166.781 88.3993 166.616C88.2019 166.451 88.0419 166.248 87.9193 166.008C87.8019 165.763 87.7433 165.467 87.7433 165.12C87.7433 164.811 87.8073 164.515 87.9353 164.232C88.0633 163.944 88.2499 163.693 88.4953 163.48C88.7406 163.261 89.0419 163.088 89.3993 162.96C89.7566 162.832 90.1646 162.768 90.6233 162.768C91.1566 162.768 91.6339 162.853 92.0553 163.024C92.4819 163.189 92.8499 163.419 93.1593 163.712L92.8393 164.232ZM96.3688 162.896V168.064C96.3688 168.677 96.5101 169.152 96.7928 169.488C97.0754 169.824 97.5021 169.992 98.0728 169.992C98.4888 169.992 98.8808 169.893 99.2488 169.696C99.6168 169.499 99.9554 169.224 100.265 168.872V162.896H101.689V171H100.841C100.638 171 100.51 170.901 100.457 170.704L100.345 169.832C99.9928 170.221 99.5981 170.536 99.1608 170.776C98.7234 171.011 98.2221 171.128 97.6568 171.128C97.2141 171.128 96.8221 171.056 96.4808 170.912C96.1448 170.763 95.8621 170.555 95.6328 170.288C95.4034 170.021 95.2301 169.699 95.1128 169.32C95.0008 168.941 94.9448 168.523 94.9448 168.064V162.896H96.3688ZM104.027 171V162.896H104.875C105.078 162.896 105.206 162.995 105.259 163.192L105.363 164.024C105.662 163.656 105.995 163.355 106.363 163.12C106.737 162.885 107.169 162.768 107.659 162.768C108.209 162.768 108.651 162.92 108.987 163.224C109.329 163.528 109.574 163.939 109.723 164.456C109.835 164.163 109.982 163.909 110.163 163.696C110.35 163.483 110.558 163.307 110.787 163.168C111.017 163.029 111.259 162.928 111.515 162.864C111.777 162.8 112.041 162.768 112.307 162.768C112.734 162.768 113.113 162.837 113.443 162.976C113.779 163.109 114.062 163.307 114.291 163.568C114.526 163.829 114.705 164.152 114.827 164.536C114.95 164.915 115.011 165.349 115.011 165.84V171H113.587V165.84C113.587 165.205 113.449 164.725 113.171 164.4C112.894 164.069 112.491 163.904 111.963 163.904C111.729 163.904 111.505 163.947 111.291 164.032C111.083 164.112 110.899 164.232 110.739 164.392C110.579 164.552 110.451 164.755 110.355 165C110.265 165.24 110.219 165.52 110.219 165.84V171H108.795V165.84C108.795 165.189 108.665 164.704 108.403 164.384C108.142 164.064 107.761 163.904 107.259 163.904C106.907 163.904 106.579 164 106.275 164.192C105.977 164.379 105.702 164.635 105.451 164.96V171H104.027Z" fill="black"/>
<path d="M268.096 166.712V171H266.552V159.536H269.936C270.661 159.536 271.291 159.621 271.824 159.792C272.363 159.957 272.808 160.195 273.16 160.504C273.512 160.813 273.773 161.187 273.944 161.624C274.12 162.061 274.208 162.549 274.208 163.088C274.208 163.621 274.115 164.109 273.928 164.552C273.741 164.995 273.467 165.376 273.104 165.696C272.747 166.016 272.301 166.267 271.768 166.448C271.235 166.624 270.624 166.712 269.936 166.712H268.096ZM268.096 165.48H269.936C270.379 165.48 270.768 165.421 271.104 165.304C271.445 165.187 271.731 165.024 271.96 164.816C272.189 164.603 272.363 164.349 272.48 164.056C272.597 163.763 272.656 163.44 272.656 163.088C272.656 162.357 272.429 161.787 271.976 161.376C271.528 160.965 270.848 160.76 269.936 160.76H268.096V165.48ZM286.109 165.272C286.109 166.131 285.973 166.912 285.701 167.616C285.429 168.32 285.045 168.923 284.549 169.424C284.053 169.925 283.459 170.315 282.765 170.592C282.072 170.864 281.304 171 280.461 171H276.173V159.536H280.461C281.304 159.536 282.072 159.675 282.765 159.952C283.459 160.224 284.053 160.613 284.549 161.12C285.045 161.621 285.429 162.224 285.701 162.928C285.973 163.632 286.109 164.413 286.109 165.272ZM284.517 165.272C284.517 164.568 284.421 163.939 284.229 163.384C284.037 162.829 283.765 162.36 283.413 161.976C283.061 161.592 282.635 161.299 282.133 161.096C281.632 160.893 281.075 160.792 280.461 160.792H277.733V169.744H280.461C281.075 169.744 281.632 169.643 282.133 169.44C282.635 169.237 283.061 168.947 283.413 168.568C283.765 168.184 284.037 167.715 284.229 167.16C284.421 166.605 284.517 165.976 284.517 165.272ZM295.284 159.536V160.8H289.78V164.808H294.484V166.072H289.78V171H288.22V159.536H295.284Z" fill="black"/>
<line y1="49" x2="359" y2="49" stroke="#DFE2E6" stroke-width="2"/>
<line y1="99.5" x2="359" y2="99.5" stroke="#DFE2E6"/>
<line y1="149.5" x2="359" y2="149.5" stroke="#DFE2E6"/>
</svg>
