<svg width="359" height="200" viewBox="0 0 359 200" fill="none" xmlns="http://www.w3.org/2000/svg">
<rect y="100" width="359" height="50" fill="white"/>
<rect width="359" height="200" fill="white"/>
<path d="M27.096 76.712V81H25.552V69.536H28.936C29.6613 69.536 30.2907 69.6213 30.824 69.792C31.3627 69.9573 31.808 70.1947 32.16 70.504C32.512 70.8133 32.7733 71.1867 32.944 71.624C33.12 72.0613 33.208 72.5493 33.208 73.088C33.208 73.6213 33.1147 74.1093 32.928 74.552C32.7413 74.9947 32.4667 75.376 32.104 75.696C31.7467 76.016 31.3013 76.2667 30.768 76.448C30.2347 76.624 29.624 76.712 28.936 76.712H27.096ZM27.096 75.48H28.936C29.3787 75.48 29.768 75.4213 30.104 75.304C30.4453 75.1867 30.7307 75.024 30.96 74.816C31.1893 74.6027 31.3627 74.3493 31.48 74.056C31.5973 73.7627 31.656 73.44 31.656 73.088C31.656 72.3573 31.4293 71.7867 30.976 71.376C30.528 70.9653 29.848 70.76 28.936 70.76H27.096V75.48ZM34.9493 81V72.896H35.7653C35.9199 72.896 36.0266 72.9253 36.0853 72.984C36.1439 73.0427 36.1839 73.144 36.2053 73.288L36.3013 74.552C36.5786 73.9867 36.9199 73.5467 37.3253 73.232C37.7359 72.912 38.2159 72.752 38.7653 72.752C38.9893 72.752 39.1919 72.7787 39.3733 72.832C39.5546 72.88 39.7226 72.9493 39.8773 73.04L39.6933 74.104C39.6559 74.2373 39.5733 74.304 39.4453 74.304C39.3706 74.304 39.2559 74.28 39.1013 74.232C38.9466 74.1787 38.7306 74.152 38.4533 74.152C37.9573 74.152 37.5413 74.296 37.2053 74.584C36.8746 74.872 36.5973 75.2907 36.3733 75.84V81H34.9493ZM44.6104 72.768C45.0957 72.768 45.5437 72.8507 45.9544 73.016C46.365 73.176 46.7197 73.4107 47.0184 73.72C47.317 74.024 47.549 74.4027 47.7144 74.856C47.885 75.304 47.9704 75.816 47.9704 76.392C47.9704 76.616 47.9464 76.7653 47.8984 76.84C47.8504 76.9147 47.7597 76.952 47.6264 76.952H42.2344C42.245 77.464 42.3144 77.9093 42.4424 78.288C42.5704 78.6667 42.7464 78.984 42.9704 79.24C43.1944 79.4907 43.461 79.68 43.7704 79.808C44.0797 79.9307 44.4264 79.992 44.8104 79.992C45.1677 79.992 45.4744 79.952 45.7304 79.872C45.9917 79.7867 46.2157 79.696 46.4024 79.6C46.589 79.504 46.7437 79.416 46.8664 79.336C46.9944 79.2507 47.1037 79.208 47.1944 79.208C47.3117 79.208 47.4024 79.2533 47.4664 79.344L47.8664 79.864C47.6904 80.0773 47.4797 80.264 47.2344 80.424C46.989 80.5787 46.725 80.7067 46.4424 80.808C46.165 80.9093 45.877 80.984 45.5784 81.032C45.2797 81.0853 44.9837 81.112 44.6904 81.112C44.1304 81.112 43.613 81.0187 43.1384 80.832C42.669 80.64 42.261 80.3627 41.9144 80C41.573 79.632 41.3064 79.1787 41.1144 78.64C40.9224 78.1013 40.8264 77.4827 40.8264 76.784C40.8264 76.2187 40.9117 75.6907 41.0824 75.2C41.2584 74.7093 41.509 74.2853 41.8344 73.928C42.1597 73.5653 42.557 73.2827 43.0264 73.08C43.4957 72.872 44.0237 72.768 44.6104 72.768ZM44.6424 73.816C43.9544 73.816 43.413 74.016 43.0184 74.416C42.6237 74.8107 42.3784 75.36 42.2824 76.064H46.6904C46.6904 75.7333 46.645 75.432 46.5544 75.16C46.4637 74.8827 46.3304 74.6453 46.1544 74.448C45.9784 74.2453 45.7624 74.0907 45.5064 73.984C45.2557 73.872 44.9677 73.816 44.6424 73.816ZM54.433 74.232C54.369 74.3493 54.2703 74.408 54.137 74.408C54.057 74.408 53.9663 74.3787 53.865 74.32C53.7637 74.2613 53.6383 74.1973 53.489 74.128C53.345 74.0533 53.1717 73.9867 52.969 73.928C52.7663 73.864 52.5263 73.832 52.249 73.832C52.009 73.832 51.793 73.864 51.601 73.928C51.409 73.9867 51.2437 74.0693 51.105 74.176C50.9717 74.2827 50.8677 74.408 50.793 74.552C50.7237 74.6907 50.689 74.8427 50.689 75.008C50.689 75.216 50.7477 75.3893 50.865 75.528C50.9877 75.6667 51.1477 75.7867 51.345 75.888C51.5423 75.9893 51.7663 76.08 52.017 76.16C52.2677 76.2347 52.5237 76.3173 52.785 76.408C53.0517 76.4933 53.3103 76.5893 53.561 76.696C53.8117 76.8027 54.0357 76.936 54.233 77.096C54.4303 77.256 54.5877 77.4533 54.705 77.688C54.8277 77.9173 54.889 78.1947 54.889 78.52C54.889 78.8933 54.8223 79.24 54.689 79.56C54.5557 79.8747 54.3583 80.1493 54.097 80.384C53.8357 80.6133 53.5157 80.7947 53.137 80.928C52.7583 81.0613 52.321 81.128 51.825 81.128C51.2597 81.128 50.7477 81.0373 50.289 80.856C49.8303 80.6693 49.441 80.432 49.121 80.144L49.457 79.6C49.4997 79.5307 49.5503 79.4773 49.609 79.44C49.6677 79.4027 49.745 79.384 49.841 79.384C49.937 79.384 50.0383 79.4213 50.145 79.496C50.2517 79.5707 50.3797 79.6533 50.529 79.744C50.6837 79.8347 50.8677 79.9173 51.081 79.992C51.2997 80.0667 51.5717 80.104 51.897 80.104C52.1743 80.104 52.417 80.0693 52.625 80C52.833 79.9253 53.0063 79.8267 53.145 79.704C53.2837 79.5813 53.385 79.44 53.449 79.28C53.5183 79.12 53.553 78.9493 53.553 78.768C53.553 78.544 53.4917 78.36 53.369 78.216C53.2517 78.0667 53.0943 77.9413 52.897 77.84C52.6997 77.7333 52.473 77.6427 52.217 77.568C51.9663 77.488 51.7077 77.4053 51.441 77.32C51.1797 77.2347 50.921 77.1387 50.665 77.032C50.4143 76.92 50.1903 76.7813 49.993 76.616C49.7957 76.4507 49.6357 76.248 49.513 76.008C49.3957 75.7627 49.337 75.4667 49.337 75.12C49.337 74.8107 49.401 74.5147 49.529 74.232C49.657 73.944 49.8437 73.6933 50.089 73.48C50.3343 73.2613 50.6357 73.088 50.993 72.96C51.3503 72.832 51.7583 72.768 52.217 72.768C52.7503 72.768 53.2277 72.8533 53.649 73.024C54.0757 73.1893 54.4437 73.4187 54.753 73.712L54.433 74.232ZM59.9385 72.768C60.4238 72.768 60.8718 72.8507 61.2825 73.016C61.6932 73.176 62.0478 73.4107 62.3465 73.72C62.6452 74.024 62.8772 74.4027 63.0425 74.856C63.2132 75.304 63.2985 75.816 63.2985 76.392C63.2985 76.616 63.2745 76.7653 63.2265 76.84C63.1785 76.9147 63.0878 76.952 62.9545 76.952H57.5625C57.5732 77.464 57.6425 77.9093 57.7705 78.288C57.8985 78.6667 58.0745 78.984 58.2985 79.24C58.5225 79.4907 58.7892 79.68 59.0985 79.808C59.4078 79.9307 59.7545 79.992 60.1385 79.992C60.4958 79.992 60.8025 79.952 61.0585 79.872C61.3198 79.7867 61.5438 79.696 61.7305 79.6C61.9172 79.504 62.0718 79.416 62.1945 79.336C62.3225 79.2507 62.4318 79.208 62.5225 79.208C62.6398 79.208 62.7305 79.2533 62.7945 79.344L63.1945 79.864C63.0185 80.0773 62.8078 80.264 62.5625 80.424C62.3172 80.5787 62.0532 80.7067 61.7705 80.808C61.4932 80.9093 61.2052 80.984 60.9065 81.032C60.6078 81.0853 60.3118 81.112 60.0185 81.112C59.4585 81.112 58.9412 81.0187 58.4665 80.832C57.9972 80.64 57.5892 80.3627 57.2425 80C56.9012 79.632 56.6345 79.1787 56.4425 78.64C56.2505 78.1013 56.1545 77.4827 56.1545 76.784C56.1545 76.2187 56.2398 75.6907 56.4105 75.2C56.5865 74.7093 56.8372 74.2853 57.1625 73.928C57.4878 73.5653 57.8852 73.2827 58.3545 73.08C58.8238 72.872 59.3518 72.768 59.9385 72.768ZM59.9705 73.816C59.2825 73.816 58.7412 74.016 58.3465 74.416C57.9518 74.8107 57.7065 75.36 57.6105 76.064H62.0185C62.0185 75.7333 61.9732 75.432 61.8825 75.16C61.7918 74.8827 61.6585 74.6453 61.4825 74.448C61.3065 74.2453 61.0905 74.0907 60.8345 73.984C60.5838 73.872 60.2958 73.816 59.9705 73.816ZM65.1211 81V72.896H65.9691C66.1718 72.896 66.2998 72.9947 66.3531 73.192L66.4651 74.072C66.8171 73.6827 67.2091 73.368 67.6411 73.128C68.0785 72.888 68.5825 72.768 69.1531 72.768C69.5958 72.768 69.9851 72.8427 70.3211 72.992C70.6625 73.136 70.9451 73.344 71.1691 73.616C71.3985 73.8827 71.5718 74.2053 71.6891 74.584C71.8065 74.9627 71.8651 75.3813 71.8651 75.84V81H70.4411V75.84C70.4411 75.2267 70.2998 74.752 70.0171 74.416C69.7398 74.0747 69.3131 73.904 68.7371 73.904C68.3158 73.904 67.9211 74.0053 67.5531 74.208C67.1905 74.4107 66.8545 74.6853 66.5451 75.032V81H65.1211ZM76.4678 81.128C75.8278 81.128 75.3344 80.9493 74.9878 80.592C74.6464 80.2347 74.4758 79.72 74.4758 79.048V74.088H73.4998C73.4144 74.088 73.3424 74.064 73.2838 74.016C73.2251 73.9627 73.1958 73.8827 73.1958 73.776V73.208L74.5238 73.04L74.8518 70.536C74.8624 70.456 74.8971 70.392 74.9557 70.344C75.0144 70.2907 75.0891 70.264 75.1798 70.264H75.8998V73.056H78.2198V74.088H75.8998V78.952C75.8998 79.2933 75.9824 79.5467 76.1478 79.712C76.3131 79.8773 76.5264 79.96 76.7878 79.96C76.9371 79.96 77.0651 79.9413 77.1718 79.904C77.2838 79.8613 77.3798 79.816 77.4598 79.768C77.5398 79.72 77.6064 79.6773 77.6598 79.64C77.7184 79.5973 77.7691 79.576 77.8118 79.576C77.8864 79.576 77.9531 79.6213 78.0118 79.712L78.4278 80.392C78.1824 80.6213 77.8864 80.8027 77.5398 80.936C77.1931 81.064 76.8358 81.128 76.4678 81.128ZM85.9325 81H85.3005C85.1618 81 85.0498 80.9787 84.9645 80.936C84.8792 80.8933 84.8232 80.8027 84.7965 80.664L84.6365 79.912C84.4232 80.104 84.2152 80.2773 84.0125 80.432C83.8098 80.5813 83.5965 80.7093 83.3725 80.816C83.1485 80.9173 82.9085 80.9947 82.6525 81.048C82.4018 81.1013 82.1218 81.128 81.8125 81.128C81.4978 81.128 81.2018 81.0853 80.9245 81C80.6525 80.9093 80.4152 80.776 80.2125 80.6C80.0098 80.424 79.8472 80.2027 79.7245 79.936C79.6072 79.664 79.5485 79.344 79.5485 78.976C79.5485 78.656 79.6365 78.3493 79.8125 78.056C79.9885 77.7573 80.2712 77.4933 80.6605 77.264C81.0552 77.0347 81.5698 76.848 82.2045 76.704C82.8392 76.5547 83.6152 76.4693 84.5325 76.448V75.816C84.5325 75.1867 84.3965 74.712 84.1245 74.392C83.8578 74.0667 83.4605 73.904 82.9325 73.904C82.5858 73.904 82.2925 73.9493 82.0525 74.04C81.8178 74.1253 81.6125 74.224 81.4365 74.336C81.2658 74.4427 81.1165 74.5413 80.9885 74.632C80.8658 74.7173 80.7432 74.76 80.6205 74.76C80.5245 74.76 80.4392 74.736 80.3645 74.688C80.2952 74.6347 80.2392 74.5707 80.1965 74.496L79.9405 74.04C80.3885 73.608 80.8712 73.2853 81.3885 73.072C81.9058 72.8587 82.4792 72.752 83.1085 72.752C83.5618 72.752 83.9645 72.8267 84.3165 72.976C84.6685 73.1253 84.9645 73.3333 85.2045 73.6C85.4445 73.8667 85.6258 74.1893 85.7485 74.568C85.8712 74.9467 85.9325 75.3627 85.9325 75.816V81ZM82.2365 80.128C82.4872 80.128 82.7165 80.104 82.9245 80.056C83.1325 80.0027 83.3272 79.9307 83.5085 79.84C83.6952 79.744 83.8712 79.6293 84.0365 79.496C84.2072 79.3627 84.3725 79.2107 84.5325 79.04V77.352C83.8765 77.3733 83.3192 77.4267 82.8605 77.512C82.4018 77.592 82.0285 77.6987 81.7405 77.832C81.4525 77.9653 81.2418 78.1227 81.1085 78.304C80.9805 78.4853 80.9165 78.688 80.9165 78.912C80.9165 79.1253 80.9512 79.3093 81.0205 79.464C81.0898 79.6187 81.1832 79.7467 81.3005 79.848C81.4178 79.944 81.5565 80.016 81.7165 80.064C81.8765 80.1067 82.0498 80.128 82.2365 80.128ZM90.5459 81.128C89.9059 81.128 89.4125 80.9493 89.0659 80.592C88.7245 80.2347 88.5539 79.72 88.5539 79.048V74.088H87.5779C87.4925 74.088 87.4205 74.064 87.3619 74.016C87.3032 73.9627 87.2739 73.8827 87.2739 73.776V73.208L88.6019 73.04L88.9299 70.536C88.9405 70.456 88.9752 70.392 89.0339 70.344C89.0925 70.2907 89.1672 70.264 89.2579 70.264H89.9779V73.056H92.2979V74.088H89.9779V78.952C89.9779 79.2933 90.0605 79.5467 90.2259 79.712C90.3912 79.8773 90.6045 79.96 90.8659 79.96C91.0152 79.96 91.1432 79.9413 91.2499 79.904C91.3619 79.8613 91.4579 79.816 91.5379 79.768C91.6179 79.72 91.6845 79.6773 91.7379 79.64C91.7965 79.5973 91.8472 79.576 91.8899 79.576C91.9645 79.576 92.0312 79.6213 92.0899 79.712L92.5059 80.392C92.2605 80.6213 91.9645 80.8027 91.6179 80.936C91.2712 81.064 90.9139 81.128 90.5459 81.128ZM95.6426 72.896V81H94.2186V72.896H95.6426ZM95.9626 70.352C95.9626 70.4907 95.9333 70.6213 95.8746 70.744C95.8213 70.8613 95.7466 70.968 95.6506 71.064C95.56 71.1547 95.4533 71.2267 95.3306 71.28C95.208 71.3333 95.0773 71.36 94.9386 71.36C94.8 71.36 94.6693 71.3333 94.5466 71.28C94.4293 71.2267 94.3226 71.1547 94.2266 71.064C94.136 70.968 94.064 70.8613 94.0106 70.744C93.9573 70.6213 93.9306 70.4907 93.9306 70.352C93.9306 70.2133 93.9573 70.0827 94.0106 69.96C94.064 69.832 94.136 69.7227 94.2266 69.632C94.3226 69.536 94.4293 69.4613 94.5466 69.408C94.6693 69.3547 94.8 69.328 94.9386 69.328C95.0773 69.328 95.208 69.3547 95.3306 69.408C95.4533 69.4613 95.56 69.536 95.6506 69.632C95.7466 69.7227 95.8213 69.832 95.8746 69.96C95.9333 70.0827 95.9626 70.2133 95.9626 70.352ZM101.432 72.768C102.024 72.768 102.558 72.8667 103.032 73.064C103.512 73.2613 103.918 73.5413 104.248 73.904C104.584 74.2667 104.84 74.7067 105.016 75.224C105.198 75.736 105.288 76.3093 105.288 76.944C105.288 77.584 105.198 78.16 105.016 78.672C104.84 79.184 104.584 79.6213 104.248 79.984C103.918 80.3467 103.512 80.6267 103.032 80.824C102.558 81.016 102.024 81.112 101.432 81.112C100.84 81.112 100.304 81.016 99.8244 80.824C99.3497 80.6267 98.9444 80.3467 98.6084 79.984C98.2724 79.6213 98.0137 79.184 97.8324 78.672C97.651 78.16 97.5604 77.584 97.5604 76.944C97.5604 76.3093 97.651 75.736 97.8324 75.224C98.0137 74.7067 98.2724 74.2667 98.6084 73.904C98.9444 73.5413 99.3497 73.2613 99.8244 73.064C100.304 72.8667 100.84 72.768 101.432 72.768ZM101.432 80C102.232 80 102.83 79.7333 103.224 79.2C103.619 78.6613 103.816 77.912 103.816 76.952C103.816 75.9867 103.619 75.2347 103.224 74.696C102.83 74.1573 102.232 73.888 101.432 73.888C101.027 73.888 100.675 73.9573 100.376 74.096C100.078 74.2347 99.827 74.4347 99.6244 74.696C99.427 74.9573 99.2777 75.28 99.1764 75.664C99.0804 76.0427 99.0324 76.472 99.0324 76.952C99.0324 77.432 99.0804 77.8613 99.1764 78.24C99.2777 78.6187 99.427 78.9387 99.6244 79.2C99.827 79.456 100.078 79.6533 100.376 79.792C100.675 79.9307 101.027 80 101.432 80ZM107.043 81V72.896H107.891C108.094 72.896 108.222 72.9947 108.275 73.192L108.387 74.072C108.739 73.6827 109.131 73.368 109.563 73.128C110 72.888 110.504 72.768 111.075 72.768C111.518 72.768 111.907 72.8427 112.243 72.992C112.584 73.136 112.867 73.344 113.091 73.616C113.32 73.8827 113.494 74.2053 113.611 74.584C113.728 74.9627 113.787 75.3813 113.787 75.84V81H112.363V75.84C112.363 75.2267 112.222 74.752 111.939 74.416C111.662 74.0747 111.235 73.904 110.659 73.904C110.238 73.904 109.843 74.0053 109.475 74.208C109.112 74.4107 108.776 74.6853 108.467 75.032V81H107.043Z" fill="black"/>
<path d="M268.096 76.712V81H266.552V69.536H269.936C270.661 69.536 271.291 69.6213 271.824 69.792C272.363 69.9573 272.808 70.1947 273.16 70.504C273.512 70.8133 273.773 71.1867 273.944 71.624C274.12 72.0613 274.208 72.5493 274.208 73.088C274.208 73.6213 274.115 74.1093 273.928 74.552C273.741 74.9947 273.467 75.376 273.104 75.696C272.747 76.016 272.301 76.2667 271.768 76.448C271.235 76.624 270.624 76.712 269.936 76.712H268.096ZM268.096 75.48H269.936C270.379 75.48 270.768 75.4213 271.104 75.304C271.445 75.1867 271.731 75.024 271.96 74.816C272.189 74.6027 272.363 74.3493 272.48 74.056C272.597 73.7627 272.656 73.44 272.656 73.088C272.656 72.3573 272.429 71.7867 271.976 71.376C271.528 70.9653 270.848 70.76 269.936 70.76H268.096V75.48ZM277.877 76.712V81H276.333V69.536H279.717C280.443 69.536 281.072 69.6213 281.605 69.792C282.144 69.9573 282.589 70.1947 282.941 70.504C283.293 70.8133 283.555 71.1867 283.725 71.624C283.901 72.0613 283.989 72.5493 283.989 73.088C283.989 73.6213 283.896 74.1093 283.709 74.552C283.523 74.9947 283.248 75.376 282.885 75.696C282.528 76.016 282.083 76.2667 281.549 76.448C281.016 76.624 280.405 76.712 279.717 76.712H277.877ZM277.877 75.48H279.717C280.16 75.48 280.549 75.4213 280.885 75.304C281.227 75.1867 281.512 75.024 281.741 74.816C281.971 74.6027 282.144 74.3493 282.261 74.056C282.379 73.7627 282.437 73.44 282.437 73.088C282.437 72.3573 282.211 71.7867 281.757 71.376C281.309 70.9653 280.629 70.76 279.717 70.76H277.877V75.48ZM293.763 69.536V70.84H290.059V81H288.507V70.84H284.787V69.536H293.763Z" fill="black"/>
<path d="M25.296 19.432C25.392 19.432 25.472 19.4373 25.536 19.448C25.6 19.4533 25.656 19.4693 25.704 19.496C25.7573 19.5173 25.808 19.552 25.856 19.6C25.904 19.6427 25.9573 19.7013 26.016 19.776L32.088 27.512C32.0667 27.3253 32.0507 27.144 32.04 26.968C32.0347 26.7867 32.032 26.6187 32.032 26.464V19.432H33.928V31H32.816C32.6453 31 32.504 30.9733 32.392 30.92C32.28 30.8667 32.1707 30.7707 32.064 30.632L26.016 22.928C26.032 23.0987 26.0427 23.2693 26.048 23.44C26.0587 23.6053 26.064 23.7573 26.064 23.896V31H24.168V19.432H25.296ZM42.5818 31H41.6938C41.5071 31 41.3604 30.9733 41.2538 30.92C41.1471 30.8613 41.0671 30.7467 41.0138 30.576L40.8378 29.992C40.6298 30.1787 40.4244 30.344 40.2218 30.488C40.0244 30.6267 39.8191 30.744 39.6058 30.84C39.3924 30.936 39.1658 31.008 38.9258 31.056C38.6858 31.104 38.4191 31.128 38.1258 31.128C37.7791 31.128 37.4591 31.0827 37.1658 30.992C36.8724 30.896 36.6191 30.7547 36.4058 30.568C36.1978 30.3813 36.0351 30.1493 35.9178 29.872C35.8004 29.5947 35.7418 29.272 35.7418 28.904C35.7418 28.5947 35.8218 28.2907 35.9818 27.992C36.1471 27.688 36.4191 27.416 36.7978 27.176C37.1764 26.9307 37.6804 26.728 38.3098 26.568C38.9391 26.408 39.7204 26.3173 40.6538 26.296V25.816C40.6538 25.2667 40.5364 24.8613 40.3018 24.6C40.0724 24.3333 39.7364 24.2 39.2938 24.2C38.9738 24.2 38.7071 24.2373 38.4938 24.312C38.2804 24.3867 38.0938 24.472 37.9338 24.568C37.7791 24.6587 37.6351 24.7413 37.5018 24.816C37.3684 24.8907 37.2218 24.928 37.0618 24.928C36.9284 24.928 36.8138 24.8933 36.7178 24.824C36.6218 24.7547 36.5444 24.6693 36.4858 24.568L36.1258 23.936C37.0698 23.072 38.2084 22.64 39.5418 22.64C40.0218 22.64 40.4484 22.72 40.8218 22.88C41.2004 23.0347 41.5204 23.2533 41.7818 23.536C42.0431 23.8133 42.2404 24.1467 42.3738 24.536C42.5124 24.9253 42.5818 25.352 42.5818 25.816V31ZM38.7418 29.768C38.9444 29.768 39.1311 29.7493 39.3018 29.712C39.4724 29.6747 39.6324 29.6187 39.7818 29.544C39.9364 29.4693 40.0831 29.3787 40.2218 29.272C40.3658 29.16 40.5098 29.0293 40.6538 28.88V27.496C40.0778 27.5227 39.5951 27.5733 39.2057 27.648C38.8218 27.7173 38.5124 27.808 38.2778 27.92C38.0431 28.032 37.8751 28.1627 37.7738 28.312C37.6778 28.4613 37.6298 28.624 37.6298 28.8C37.6298 29.1467 37.7311 29.3947 37.9338 29.544C38.1418 29.6933 38.4111 29.768 38.7418 29.768ZM44.5247 31V22.792H45.7328C45.9888 22.792 46.1568 22.912 46.2368 23.152L46.3648 23.76C46.5088 23.6 46.6581 23.4533 46.8128 23.32C46.9728 23.1867 47.1408 23.072 47.3168 22.976C47.4981 22.88 47.6901 22.8053 47.8928 22.752C48.1008 22.6933 48.3274 22.664 48.5728 22.664C49.0901 22.664 49.5141 22.8053 49.8448 23.088C50.1808 23.3653 50.4314 23.736 50.5968 24.2C50.7248 23.928 50.8848 23.696 51.0768 23.504C51.2688 23.3067 51.4794 23.1467 51.7088 23.024C51.9381 22.9013 52.1808 22.8107 52.4368 22.752C52.6981 22.6933 52.9594 22.664 53.2208 22.664C53.6741 22.664 54.0768 22.7333 54.4288 22.872C54.7808 23.0107 55.0768 23.2133 55.3168 23.48C55.5568 23.7467 55.7381 24.072 55.8608 24.456C55.9888 24.84 56.0528 25.28 56.0528 25.776V31H54.0768V25.776C54.0768 25.2533 53.9621 24.8613 53.7328 24.6C53.5034 24.3333 53.1674 24.2 52.7248 24.2C52.5221 24.2 52.3328 24.2347 52.1568 24.304C51.9861 24.3733 51.8341 24.4747 51.7008 24.608C51.5728 24.736 51.4714 24.8987 51.3968 25.096C51.3221 25.2933 51.2848 25.52 51.2848 25.776V31H49.3008V25.776C49.3008 25.2267 49.1888 24.8267 48.9648 24.576C48.7461 24.3253 48.4208 24.2 47.9887 24.2C47.7061 24.2 47.4394 24.272 47.1888 24.416C46.9434 24.5547 46.7141 24.7467 46.5008 24.992V31H44.5247ZM61.3855 22.664C61.9028 22.664 62.3775 22.7467 62.8095 22.912C63.2468 23.0773 63.6228 23.32 63.9375 23.64C64.2522 23.9547 64.4975 24.344 64.6735 24.808C64.8495 25.2667 64.9375 25.792 64.9375 26.384C64.9375 26.5333 64.9295 26.6587 64.9135 26.76C64.9028 26.856 64.8788 26.9333 64.8415 26.992C64.8095 27.0453 64.7642 27.0853 64.7055 27.112C64.6468 27.1333 64.5722 27.144 64.4815 27.144H59.4095C59.4682 27.9867 59.6948 28.6053 60.0895 29C60.4842 29.3947 61.0068 29.592 61.6575 29.592C61.9775 29.592 62.2522 29.5547 62.4815 29.48C62.7162 29.4053 62.9188 29.3227 63.0895 29.232C63.2655 29.1413 63.4175 29.0587 63.5455 28.984C63.6788 28.9093 63.8068 28.872 63.9295 28.872C64.0095 28.872 64.0788 28.888 64.1375 28.92C64.1962 28.952 64.2468 28.9973 64.2895 29.056L64.8655 29.776C64.6468 30.032 64.4015 30.248 64.1295 30.424C63.8575 30.5947 63.5722 30.7333 63.2735 30.84C62.9802 30.9413 62.6788 31.0133 62.3695 31.056C62.0655 31.0987 61.7695 31.12 61.4815 31.12C60.9108 31.12 60.3802 31.0267 59.8895 30.84C59.3988 30.648 58.9722 30.368 58.6095 30C58.2468 29.6267 57.9615 29.168 57.7535 28.624C57.5455 28.0747 57.4415 27.44 57.4415 26.72C57.4415 26.16 57.5322 25.6347 57.7135 25.144C57.8948 24.648 58.1535 24.2187 58.4895 23.856C58.8308 23.488 59.2442 23.1973 59.7295 22.984C60.2202 22.7707 60.7722 22.664 61.3855 22.664ZM61.4255 24.08C60.8495 24.08 60.3988 24.2427 60.0735 24.568C59.7482 24.8933 59.5402 25.3547 59.4495 25.952H63.1615C63.1615 25.696 63.1268 25.456 63.0575 25.232C62.9882 25.0027 62.8815 24.8027 62.7375 24.632C62.5935 24.4613 62.4122 24.328 62.1935 24.232C61.9748 24.1307 61.7188 24.08 61.4255 24.08Z" fill="black"/>
<path d="M274.32 19.432V21.2H270.84V31H268.688V21.2H265.192V19.432H274.32ZM277.046 33.256C276.987 33.3947 276.91 33.4987 276.814 33.568C276.723 33.6427 276.582 33.68 276.39 33.68H274.918L276.454 30.392L273.134 22.792H274.862C275.022 22.792 275.145 22.8293 275.23 22.904C275.315 22.9787 275.379 23.064 275.422 23.16L277.174 27.416C277.233 27.5547 277.283 27.6987 277.326 27.848C277.369 27.9973 277.406 28.1467 277.438 28.296C277.481 28.1413 277.526 27.992 277.574 27.848C277.627 27.704 277.683 27.5573 277.742 27.408L279.39 23.16C279.433 23.0533 279.502 22.9653 279.598 22.896C279.699 22.8267 279.811 22.792 279.934 22.792H281.518L277.046 33.256ZM282.665 33.68V22.792H283.873C284.001 22.792 284.111 22.8213 284.201 22.88C284.292 22.9387 284.351 23.0293 284.377 23.152L284.537 23.912C284.868 23.5333 285.247 23.2267 285.673 22.992C286.105 22.7573 286.609 22.64 287.185 22.64C287.633 22.64 288.041 22.7333 288.409 22.92C288.783 23.1067 289.103 23.3787 289.369 23.736C289.641 24.088 289.849 24.5253 289.993 25.048C290.143 25.5653 290.217 26.16 290.217 26.832C290.217 27.4453 290.135 28.0133 289.969 28.536C289.804 29.0587 289.567 29.512 289.257 29.896C288.953 30.28 288.583 30.5813 288.145 30.8C287.713 31.0133 287.228 31.12 286.689 31.12C286.225 31.12 285.831 31.0507 285.505 30.912C285.185 30.768 284.897 30.5707 284.641 30.32V33.68H282.665ZM286.505 24.2C286.095 24.2 285.743 24.288 285.449 24.464C285.161 24.6347 284.892 24.8773 284.641 25.192V28.872C284.865 29.1493 285.108 29.344 285.369 29.456C285.636 29.5627 285.921 29.616 286.225 29.616C286.524 29.616 286.793 29.56 287.033 29.448C287.279 29.336 287.484 29.1653 287.649 28.936C287.82 28.7067 287.951 28.4187 288.041 28.072C288.132 27.72 288.177 27.3067 288.177 26.832C288.177 26.352 288.137 25.9467 288.057 25.616C287.983 25.28 287.873 25.008 287.729 24.8C287.585 24.592 287.409 24.44 287.201 24.344C286.999 24.248 286.767 24.2 286.505 24.2ZM295.104 22.664C295.622 22.664 296.096 22.7467 296.528 22.912C296.966 23.0773 297.342 23.32 297.656 23.64C297.971 23.9547 298.216 24.344 298.392 24.808C298.568 25.2667 298.656 25.792 298.656 26.384C298.656 26.5333 298.648 26.6587 298.632 26.76C298.622 26.856 298.598 26.9333 298.56 26.992C298.528 27.0453 298.483 27.0853 298.424 27.112C298.366 27.1333 298.291 27.144 298.2 27.144H293.128C293.187 27.9867 293.414 28.6053 293.808 29C294.203 29.3947 294.726 29.592 295.376 29.592C295.696 29.592 295.971 29.5547 296.2 29.48C296.435 29.4053 296.638 29.3227 296.808 29.232C296.984 29.1413 297.136 29.0587 297.264 28.984C297.398 28.9093 297.526 28.872 297.648 28.872C297.728 28.872 297.798 28.888 297.856 28.92C297.915 28.952 297.966 28.9973 298.008 29.056L298.584 29.776C298.366 30.032 298.12 30.248 297.848 30.424C297.576 30.5947 297.291 30.7333 296.992 30.84C296.699 30.9413 296.398 31.0133 296.088 31.056C295.784 31.0987 295.488 31.12 295.2 31.12C294.63 31.12 294.099 31.0267 293.608 30.84C293.118 30.648 292.691 30.368 292.328 30C291.966 29.6267 291.68 29.168 291.472 28.624C291.264 28.0747 291.16 27.44 291.16 26.72C291.16 26.16 291.251 25.6347 291.432 25.144C291.614 24.648 291.872 24.2187 292.208 23.856C292.55 23.488 292.963 23.1973 293.448 22.984C293.939 22.7707 294.491 22.664 295.104 22.664ZM295.144 24.08C294.568 24.08 294.118 24.2427 293.792 24.568C293.467 24.8933 293.259 25.3547 293.168 25.952H296.88C296.88 25.696 296.846 25.456 296.776 25.232C296.707 25.0027 296.6 24.8027 296.456 24.632C296.312 24.4613 296.131 24.328 295.912 24.232C295.694 24.1307 295.438 24.08 295.144 24.08Z" fill="black"/>
<path d="M27.232 131H25.68V119.536H27.232V131ZM30.0743 131V122.896H30.9223C31.1249 122.896 31.2529 122.995 31.3063 123.192L31.4103 124.024C31.7089 123.656 32.0423 123.355 32.4103 123.12C32.7836 122.885 33.2156 122.768 33.7063 122.768C34.2556 122.768 34.6983 122.92 35.0343 123.224C35.3756 123.528 35.6209 123.939 35.7703 124.456C35.8823 124.163 36.0289 123.909 36.2103 123.696C36.3969 123.483 36.6049 123.307 36.8343 123.168C37.0636 123.029 37.3063 122.928 37.5623 122.864C37.8236 122.8 38.0876 122.768 38.3543 122.768C38.7809 122.768 39.1596 122.837 39.4903 122.976C39.8263 123.109 40.1089 123.307 40.3383 123.568C40.5729 123.829 40.7516 124.152 40.8743 124.536C40.9969 124.915 41.0583 125.349 41.0583 125.84V131H39.6343V125.84C39.6343 125.205 39.4956 124.725 39.2183 124.4C38.9409 124.069 38.5383 123.904 38.0103 123.904C37.7756 123.904 37.5516 123.947 37.3383 124.032C37.1303 124.112 36.9463 124.232 36.7863 124.392C36.6263 124.552 36.4983 124.755 36.4023 125C36.3116 125.24 36.2663 125.52 36.2663 125.84V131H34.8423V125.84C34.8423 125.189 34.7116 124.704 34.4503 124.384C34.1889 124.064 33.8076 123.904 33.3063 123.904C32.9543 123.904 32.6263 124 32.3223 124.192C32.0236 124.379 31.7489 124.635 31.4983 124.96V131H30.0743ZM49.1669 131H48.5349C48.3962 131 48.2842 130.979 48.1989 130.936C48.1135 130.893 48.0575 130.803 48.0309 130.664L47.8709 129.912C47.6575 130.104 47.4495 130.277 47.2469 130.432C47.0442 130.581 46.8309 130.709 46.6069 130.816C46.3829 130.917 46.1429 130.995 45.8869 131.048C45.6362 131.101 45.3562 131.128 45.0469 131.128C44.7322 131.128 44.4362 131.085 44.1589 131C43.8869 130.909 43.6495 130.776 43.4469 130.6C43.2442 130.424 43.0815 130.203 42.9589 129.936C42.8415 129.664 42.7829 129.344 42.7829 128.976C42.7829 128.656 42.8709 128.349 43.0469 128.056C43.2229 127.757 43.5055 127.493 43.8949 127.264C44.2895 127.035 44.8042 126.848 45.4389 126.704C46.0735 126.555 46.8495 126.469 47.7669 126.448V125.816C47.7669 125.187 47.6309 124.712 47.3589 124.392C47.0922 124.067 46.6949 123.904 46.1669 123.904C45.8202 123.904 45.5269 123.949 45.2869 124.04C45.0522 124.125 44.8469 124.224 44.6709 124.336C44.5002 124.443 44.3509 124.541 44.2229 124.632C44.1002 124.717 43.9775 124.76 43.8549 124.76C43.7589 124.76 43.6735 124.736 43.5989 124.688C43.5295 124.635 43.4735 124.571 43.4309 124.496L43.1749 124.04C43.6229 123.608 44.1055 123.285 44.6229 123.072C45.1402 122.859 45.7135 122.752 46.3429 122.752C46.7962 122.752 47.1989 122.827 47.5509 122.976C47.9029 123.125 48.1989 123.333 48.4389 123.6C48.6789 123.867 48.8602 124.189 48.9829 124.568C49.1055 124.947 49.1669 125.363 49.1669 125.816V131ZM45.4709 130.128C45.7215 130.128 45.9509 130.104 46.1589 130.056C46.3669 130.003 46.5615 129.931 46.7429 129.84C46.9295 129.744 47.1055 129.629 47.2709 129.496C47.4415 129.363 47.6069 129.211 47.7669 129.04V127.352C47.1109 127.373 46.5535 127.427 46.0949 127.512C45.6362 127.592 45.2629 127.699 44.9749 127.832C44.6869 127.965 44.4762 128.123 44.3429 128.304C44.2149 128.485 44.1509 128.688 44.1509 128.912C44.1509 129.125 44.1855 129.309 44.2549 129.464C44.3242 129.619 44.4175 129.747 44.5349 129.848C44.6522 129.944 44.7909 130.016 44.9509 130.064C45.1109 130.107 45.2842 130.128 45.4709 130.128ZM54.0523 122.76C54.4043 122.76 54.7323 122.8 55.0363 122.88C55.3456 122.955 55.6256 123.067 55.8763 123.216H58.0763V123.744C58.0763 123.92 57.9643 124.032 57.7403 124.08L56.8203 124.208C57.0016 124.555 57.0923 124.941 57.0923 125.368C57.0923 125.763 57.0149 126.123 56.8603 126.448C56.7109 126.768 56.5003 127.043 56.2283 127.272C55.9616 127.501 55.6416 127.677 55.2683 127.8C54.9003 127.923 54.4949 127.984 54.0523 127.984C53.6736 127.984 53.3163 127.939 52.9803 127.848C52.8096 127.955 52.6789 128.069 52.5883 128.192C52.5029 128.315 52.4603 128.435 52.4603 128.552C52.4603 128.744 52.5376 128.891 52.6923 128.992C52.8469 129.088 53.0523 129.157 53.3083 129.2C53.5643 129.243 53.8549 129.269 54.1803 129.28C54.5056 129.291 54.8363 129.309 55.1723 129.336C55.5136 129.357 55.8469 129.397 56.1723 129.456C56.4976 129.515 56.7883 129.611 57.0443 129.744C57.3003 129.877 57.5056 130.061 57.6603 130.296C57.8149 130.531 57.8923 130.835 57.8923 131.208C57.8923 131.555 57.8043 131.891 57.6283 132.216C57.4576 132.541 57.2096 132.829 56.8843 133.08C56.5589 133.336 56.1616 133.539 55.6923 133.688C55.2229 133.843 54.6923 133.92 54.1003 133.92C53.5083 133.92 52.9883 133.861 52.5403 133.744C52.0976 133.627 51.7296 133.469 51.4363 133.272C51.1429 133.075 50.9216 132.845 50.7723 132.584C50.6283 132.328 50.5563 132.059 50.5563 131.776C50.5563 131.376 50.6816 131.037 50.9323 130.76C51.1883 130.477 51.5376 130.253 51.9803 130.088C51.7509 129.981 51.5669 129.84 51.4283 129.664C51.2949 129.483 51.2283 129.243 51.2283 128.944C51.2283 128.827 51.2496 128.707 51.2923 128.584C51.3349 128.456 51.3989 128.331 51.4843 128.208C51.5749 128.085 51.6843 127.968 51.8123 127.856C51.9403 127.744 52.0896 127.645 52.2603 127.56C51.8603 127.336 51.5456 127.04 51.3163 126.672C51.0923 126.299 50.9803 125.864 50.9803 125.368C50.9803 124.973 51.0549 124.616 51.2043 124.296C51.3589 123.971 51.5723 123.696 51.8443 123.472C52.1163 123.243 52.4389 123.067 52.8123 122.944C53.1909 122.821 53.6043 122.76 54.0523 122.76ZM56.5803 131.44C56.5803 131.237 56.5243 131.075 56.4123 130.952C56.3003 130.829 56.1483 130.736 55.9563 130.672C55.7643 130.603 55.5429 130.552 55.2923 130.52C55.0416 130.488 54.7776 130.467 54.5003 130.456C54.2229 130.44 53.9403 130.424 53.6523 130.408C53.3643 130.392 53.0896 130.363 52.8283 130.32C52.5243 130.464 52.2763 130.64 52.0843 130.848C51.8976 131.056 51.8043 131.304 51.8043 131.592C51.8043 131.773 51.8496 131.941 51.9403 132.096C52.0363 132.256 52.1803 132.392 52.3723 132.504C52.5643 132.621 52.8043 132.712 53.0923 132.776C53.3856 132.845 53.7296 132.88 54.1243 132.88C54.5083 132.88 54.8523 132.845 55.1562 132.776C55.4603 132.707 55.7163 132.608 55.9243 132.48C56.1376 132.352 56.3003 132.2 56.4123 132.024C56.5243 131.848 56.5803 131.653 56.5803 131.44ZM54.0523 127.04C54.3403 127.04 54.5936 127 54.8123 126.92C55.0363 126.84 55.2229 126.728 55.3723 126.584C55.5216 126.44 55.6336 126.269 55.7083 126.072C55.7829 125.869 55.8203 125.648 55.8203 125.408C55.8203 124.912 55.6683 124.517 55.3643 124.224C55.0656 123.931 54.6283 123.784 54.0523 123.784C53.4816 123.784 53.0443 123.931 52.7403 124.224C52.4416 124.517 52.2923 124.912 52.2923 125.408C52.2923 125.648 52.3296 125.869 52.4043 126.072C52.4843 126.269 52.5989 126.44 52.7483 126.584C52.8976 126.728 53.0816 126.84 53.3003 126.92C53.5189 127 53.7696 127.04 54.0523 127.04ZM62.7041 122.768C63.1895 122.768 63.6375 122.851 64.0481 123.016C64.4588 123.176 64.8135 123.411 65.1121 123.72C65.4108 124.024 65.6428 124.403 65.8081 124.856C65.9788 125.304 66.0641 125.816 66.0641 126.392C66.0641 126.616 66.0401 126.765 65.9921 126.84C65.9441 126.915 65.8535 126.952 65.7201 126.952H60.3281C60.3388 127.464 60.4081 127.909 60.5361 128.288C60.6641 128.667 60.8401 128.984 61.0641 129.24C61.2881 129.491 61.5548 129.68 61.8641 129.808C62.1735 129.931 62.5201 129.992 62.9041 129.992C63.2615 129.992 63.5681 129.952 63.8241 129.872C64.0855 129.787 64.3095 129.696 64.4961 129.6C64.6828 129.504 64.8375 129.416 64.9601 129.336C65.0881 129.251 65.1975 129.208 65.2881 129.208C65.4055 129.208 65.4961 129.253 65.5601 129.344L65.9601 129.864C65.7841 130.077 65.5735 130.264 65.3281 130.424C65.0828 130.579 64.8188 130.707 64.5361 130.808C64.2588 130.909 63.9708 130.984 63.6721 131.032C63.3735 131.085 63.0775 131.112 62.7841 131.112C62.2241 131.112 61.7068 131.019 61.2321 130.832C60.7628 130.64 60.3548 130.363 60.0081 130C59.6668 129.632 59.4001 129.179 59.2081 128.64C59.0161 128.101 58.9201 127.483 58.9201 126.784C58.9201 126.219 59.0055 125.691 59.1761 125.2C59.3521 124.709 59.6028 124.285 59.9281 123.928C60.2535 123.565 60.6508 123.283 61.1201 123.08C61.5895 122.872 62.1175 122.768 62.7041 122.768ZM62.7361 123.816C62.0481 123.816 61.5068 124.016 61.1121 124.416C60.7175 124.811 60.4721 125.36 60.3761 126.064H64.7841C64.7841 125.733 64.7388 125.432 64.6481 125.16C64.5575 124.883 64.4241 124.645 64.2481 124.448C64.0721 124.245 63.8561 124.091 63.6001 123.984C63.3495 123.872 63.0615 123.816 62.7361 123.816Z" fill="black"/>
<path d="M268.096 126.712V131H266.552V119.536H269.936C270.661 119.536 271.291 119.621 271.824 119.792C272.363 119.957 272.808 120.195 273.16 120.504C273.512 120.813 273.773 121.187 273.944 121.624C274.12 122.061 274.208 122.549 274.208 123.088C274.208 123.621 274.115 124.109 273.928 124.552C273.741 124.995 273.467 125.376 273.104 125.696C272.747 126.016 272.301 126.267 271.768 126.448C271.235 126.624 270.624 126.712 269.936 126.712H268.096ZM268.096 125.48H269.936C270.379 125.48 270.768 125.421 271.104 125.304C271.445 125.187 271.731 125.024 271.96 124.816C272.189 124.603 272.363 124.349 272.48 124.056C272.597 123.763 272.656 123.44 272.656 123.088C272.656 122.357 272.429 121.787 271.976 121.376C271.528 120.965 270.848 120.76 269.936 120.76H268.096V125.48ZM276.973 119.536C277.112 119.536 277.213 119.555 277.277 119.592C277.347 119.624 277.424 119.693 277.509 119.8L284.149 128.44C284.133 128.301 284.123 128.168 284.117 128.04C284.112 127.907 284.109 127.779 284.109 127.656V119.536H285.469V131H284.685C284.563 131 284.459 130.979 284.373 130.936C284.293 130.893 284.213 130.821 284.133 130.72L277.501 122.088C277.512 122.221 277.52 122.352 277.525 122.48C277.531 122.608 277.533 122.725 277.533 122.832V131H276.173V119.536H276.973ZM293.379 129.872C293.688 129.872 293.971 129.859 294.227 129.832C294.488 129.8 294.734 129.755 294.963 129.696C295.192 129.637 295.408 129.568 295.611 129.488C295.814 129.403 296.016 129.307 296.219 129.2V126.672H294.443C294.342 126.672 294.259 126.643 294.195 126.584C294.136 126.525 294.107 126.453 294.107 126.368V125.488H297.627V129.888C297.339 130.096 297.038 130.277 296.723 130.432C296.414 130.587 296.08 130.717 295.723 130.824C295.371 130.925 294.992 131 294.587 131.048C294.182 131.101 293.742 131.128 293.267 131.128C292.435 131.128 291.672 130.987 290.979 130.704C290.286 130.416 289.688 130.016 289.187 129.504C288.686 128.987 288.294 128.368 288.011 127.648C287.734 126.928 287.595 126.136 287.595 125.272C287.595 124.397 287.731 123.6 288.003 122.88C288.28 122.16 288.672 121.544 289.179 121.032C289.691 120.515 290.307 120.115 291.027 119.832C291.752 119.549 292.563 119.408 293.459 119.408C293.912 119.408 294.334 119.443 294.723 119.512C295.112 119.576 295.472 119.672 295.803 119.8C296.139 119.923 296.448 120.075 296.731 120.256C297.014 120.432 297.278 120.632 297.523 120.856L297.083 121.56C296.992 121.704 296.875 121.776 296.731 121.776C296.646 121.776 296.552 121.747 296.451 121.688C296.318 121.613 296.168 121.523 296.003 121.416C295.838 121.309 295.635 121.208 295.395 121.112C295.16 121.011 294.88 120.925 294.555 120.856C294.235 120.787 293.854 120.752 293.411 120.752C292.766 120.752 292.182 120.859 291.659 121.072C291.136 121.28 290.691 121.581 290.323 121.976C289.955 122.365 289.672 122.84 289.475 123.4C289.278 123.955 289.179 124.579 289.179 125.272C289.179 125.997 289.28 126.645 289.483 127.216C289.691 127.781 289.982 128.261 290.355 128.656C290.728 129.051 291.171 129.352 291.683 129.56C292.195 129.768 292.76 129.872 293.379 129.872Z" fill="black"/>
<path d="M25.944 179.696H30.904V181H24.392V169.536H25.944V179.696ZM35.3855 172.768C35.9775 172.768 36.5108 172.867 36.9855 173.064C37.4655 173.261 37.8708 173.541 38.2015 173.904C38.5375 174.267 38.7935 174.707 38.9695 175.224C39.1508 175.736 39.2415 176.309 39.2415 176.944C39.2415 177.584 39.1508 178.16 38.9695 178.672C38.7935 179.184 38.5375 179.621 38.2015 179.984C37.8708 180.347 37.4655 180.627 36.9855 180.824C36.5108 181.016 35.9775 181.112 35.3855 181.112C34.7935 181.112 34.2575 181.016 33.7775 180.824C33.3028 180.627 32.8975 180.347 32.5615 179.984C32.2255 179.621 31.9668 179.184 31.7855 178.672C31.6042 178.16 31.5135 177.584 31.5135 176.944C31.5135 176.309 31.6042 175.736 31.7855 175.224C31.9668 174.707 32.2255 174.267 32.5615 173.904C32.8975 173.541 33.3028 173.261 33.7775 173.064C34.2575 172.867 34.7935 172.768 35.3855 172.768ZM35.3855 180C36.1855 180 36.7828 179.733 37.1775 179.2C37.5722 178.661 37.7695 177.912 37.7695 176.952C37.7695 175.987 37.5722 175.235 37.1775 174.696C36.7828 174.157 36.1855 173.888 35.3855 173.888C34.9802 173.888 34.6282 173.957 34.3295 174.096C34.0308 174.235 33.7802 174.435 33.5775 174.696C33.3802 174.957 33.2308 175.28 33.1295 175.664C33.0335 176.043 32.9855 176.472 32.9855 176.952C32.9855 177.432 33.0335 177.861 33.1295 178.24C33.2308 178.619 33.3802 178.939 33.5775 179.2C33.7802 179.456 34.0308 179.653 34.3295 179.792C34.6282 179.931 34.9802 180 35.3855 180ZM40.9961 181V172.896H41.8121C41.9668 172.896 42.0735 172.925 42.1321 172.984C42.1908 173.043 42.2308 173.144 42.2521 173.288L42.3481 174.552C42.6255 173.987 42.9668 173.547 43.3721 173.232C43.7828 172.912 44.2628 172.752 44.8121 172.752C45.0361 172.752 45.2388 172.779 45.4201 172.832C45.6015 172.88 45.7695 172.949 45.9241 173.04L45.7401 174.104C45.7028 174.237 45.6201 174.304 45.4921 174.304C45.4175 174.304 45.3028 174.28 45.1481 174.232C44.9935 174.179 44.7775 174.152 44.5001 174.152C44.0041 174.152 43.5881 174.296 43.2521 174.584C42.9215 174.872 42.6441 175.291 42.4201 175.84V181H40.9961ZM50.6573 172.768C51.1426 172.768 51.5906 172.851 52.0013 173.016C52.4119 173.176 52.7666 173.411 53.0653 173.72C53.3639 174.024 53.5959 174.403 53.7613 174.856C53.9319 175.304 54.0173 175.816 54.0173 176.392C54.0173 176.616 53.9933 176.765 53.9453 176.84C53.8973 176.915 53.8066 176.952 53.6733 176.952H48.2812C48.2919 177.464 48.3613 177.909 48.4893 178.288C48.6173 178.667 48.7933 178.984 49.0173 179.24C49.2413 179.491 49.5079 179.68 49.8173 179.808C50.1266 179.931 50.4733 179.992 50.8573 179.992C51.2146 179.992 51.5213 179.952 51.7773 179.872C52.0386 179.787 52.2626 179.696 52.4493 179.6C52.6359 179.504 52.7906 179.416 52.9133 179.336C53.0413 179.251 53.1506 179.208 53.2413 179.208C53.3586 179.208 53.4493 179.253 53.5133 179.344L53.9133 179.864C53.7373 180.077 53.5266 180.264 53.2813 180.424C53.0359 180.579 52.7719 180.707 52.4893 180.808C52.2119 180.909 51.9239 180.984 51.6253 181.032C51.3266 181.085 51.0306 181.112 50.7373 181.112C50.1773 181.112 49.6599 181.019 49.1853 180.832C48.7159 180.64 48.3079 180.363 47.9613 180C47.6199 179.632 47.3533 179.179 47.1613 178.64C46.9693 178.101 46.8733 177.483 46.8733 176.784C46.8733 176.219 46.9586 175.691 47.1293 175.2C47.3053 174.709 47.5559 174.285 47.8813 173.928C48.2066 173.565 48.6039 173.283 49.0733 173.08C49.5426 172.872 50.0706 172.768 50.6573 172.768ZM50.6892 173.816C50.0013 173.816 49.4599 174.016 49.0653 174.416C48.6706 174.811 48.4253 175.36 48.3293 176.064H52.7373C52.7373 175.733 52.6919 175.432 52.6013 175.16C52.5106 174.883 52.3773 174.645 52.2013 174.448C52.0253 174.245 51.8093 174.091 51.5533 173.984C51.3026 173.872 51.0146 173.816 50.6892 173.816ZM55.8399 181V172.896H56.6879C56.8905 172.896 57.0185 172.995 57.0719 173.192L57.1759 174.024C57.4745 173.656 57.8079 173.355 58.1759 173.12C58.5492 172.885 58.9812 172.768 59.4719 172.768C60.0212 172.768 60.4639 172.92 60.7999 173.224C61.1412 173.528 61.3865 173.939 61.5359 174.456C61.6479 174.163 61.7945 173.909 61.9759 173.696C62.1625 173.483 62.3705 173.307 62.5999 173.168C62.8292 173.029 63.0719 172.928 63.3279 172.864C63.5892 172.8 63.8532 172.768 64.1199 172.768C64.5465 172.768 64.9252 172.837 65.2559 172.976C65.5919 173.109 65.8745 173.307 66.1039 173.568C66.3385 173.829 66.5172 174.152 66.6399 174.536C66.7625 174.915 66.8239 175.349 66.8239 175.84V181H65.3999V175.84C65.3999 175.205 65.2612 174.725 64.9839 174.4C64.7065 174.069 64.3039 173.904 63.7759 173.904C63.5412 173.904 63.3172 173.947 63.1039 174.032C62.8959 174.112 62.7119 174.232 62.5519 174.392C62.3919 174.552 62.2639 174.755 62.1679 175C62.0772 175.24 62.0319 175.52 62.0319 175.84V181H60.6079V175.84C60.6079 175.189 60.4772 174.704 60.2159 174.384C59.9545 174.064 59.5732 173.904 59.0719 173.904C58.7199 173.904 58.3919 174 58.0879 174.192C57.7892 174.379 57.5145 174.635 57.2639 174.96V181H55.8399ZM74.1165 182.32V183.28H67.8125V182.32H74.1165ZM76.8614 172.896V181H75.4374V172.896H76.8614ZM77.1814 170.352C77.1814 170.491 77.152 170.621 77.0934 170.744C77.04 170.861 76.9654 170.968 76.8694 171.064C76.7787 171.155 76.672 171.227 76.5494 171.28C76.4267 171.333 76.296 171.36 76.1574 171.36C76.0187 171.36 75.888 171.333 75.7654 171.28C75.648 171.227 75.5414 171.155 75.4454 171.064C75.3547 170.968 75.2827 170.861 75.2294 170.744C75.176 170.621 75.1494 170.491 75.1494 170.352C75.1494 170.213 75.176 170.083 75.2294 169.96C75.2827 169.832 75.3547 169.723 75.4454 169.632C75.5414 169.536 75.648 169.461 75.7654 169.408C75.888 169.355 76.0187 169.328 76.1574 169.328C76.296 169.328 76.4267 169.355 76.5494 169.408C76.672 169.461 76.7787 169.536 76.8694 169.632C76.9654 169.723 77.04 169.832 77.0934 169.96C77.152 170.083 77.1814 170.213 77.1814 170.352ZM79.3711 183.744V172.896H80.2191C80.4218 172.896 80.5498 172.995 80.6031 173.192L80.7231 174.152C81.0698 173.731 81.4645 173.392 81.9071 173.136C82.3551 172.88 82.8698 172.752 83.4511 172.752C83.9151 172.752 84.3365 172.843 84.7151 173.024C85.0938 173.2 85.4165 173.464 85.6831 173.816C85.9498 174.163 86.1551 174.595 86.2991 175.112C86.4431 175.629 86.5151 176.224 86.5151 176.896C86.5151 177.493 86.4351 178.051 86.2751 178.568C86.1151 179.08 85.8858 179.525 85.5871 179.904C85.2885 180.277 84.9205 180.573 84.4831 180.792C84.0511 181.005 83.5631 181.112 83.0191 181.112C82.5178 181.112 82.0885 181.029 81.7311 180.864C81.3791 180.699 81.0671 180.464 80.7951 180.16V183.744H79.3711ZM82.9791 173.904C82.5151 173.904 82.1071 174.011 81.7551 174.224C81.4085 174.437 81.0885 174.739 80.7951 175.128V179.048C81.0565 179.4 81.3418 179.648 81.6511 179.792C81.9658 179.936 82.3151 180.008 82.6991 180.008C83.4511 180.008 84.0298 179.739 84.4351 179.2C84.8405 178.661 85.0431 177.893 85.0431 176.896C85.0431 176.368 84.9951 175.915 84.8991 175.536C84.8085 175.157 84.6751 174.848 84.4991 174.608C84.3231 174.363 84.1071 174.184 83.8511 174.072C83.5951 173.96 83.3045 173.904 82.9791 173.904ZM92.8393 174.232C92.7753 174.349 92.6766 174.408 92.5433 174.408C92.4633 174.408 92.3726 174.379 92.2713 174.32C92.1699 174.261 92.0446 174.197 91.8953 174.128C91.7513 174.053 91.5779 173.987 91.3753 173.928C91.1726 173.864 90.9326 173.832 90.6553 173.832C90.4153 173.832 90.1993 173.864 90.0073 173.928C89.8153 173.987 89.6499 174.069 89.5113 174.176C89.3779 174.283 89.2739 174.408 89.1993 174.552C89.1299 174.691 89.0953 174.843 89.0953 175.008C89.0953 175.216 89.1539 175.389 89.2713 175.528C89.3939 175.667 89.5539 175.787 89.7513 175.888C89.9486 175.989 90.1726 176.08 90.4233 176.16C90.6739 176.235 90.9299 176.317 91.1913 176.408C91.4579 176.493 91.7166 176.589 91.9673 176.696C92.2179 176.803 92.4419 176.936 92.6393 177.096C92.8366 177.256 92.9939 177.453 93.1113 177.688C93.2339 177.917 93.2953 178.195 93.2953 178.52C93.2953 178.893 93.2286 179.24 93.0953 179.56C92.9619 179.875 92.7646 180.149 92.5033 180.384C92.2419 180.613 91.9219 180.795 91.5433 180.928C91.1646 181.061 90.7273 181.128 90.2313 181.128C89.6659 181.128 89.1539 181.037 88.6953 180.856C88.2366 180.669 87.8473 180.432 87.5273 180.144L87.8633 179.6C87.9059 179.531 87.9566 179.477 88.0153 179.44C88.0739 179.403 88.1513 179.384 88.2473 179.384C88.3433 179.384 88.4446 179.421 88.5513 179.496C88.6579 179.571 88.7859 179.653 88.9353 179.744C89.0899 179.835 89.2739 179.917 89.4873 179.992C89.7059 180.067 89.9779 180.104 90.3033 180.104C90.5806 180.104 90.8233 180.069 91.0312 180C91.2393 179.925 91.4126 179.827 91.5512 179.704C91.6899 179.581 91.7913 179.44 91.8553 179.28C91.9246 179.12 91.9593 178.949 91.9593 178.768C91.9593 178.544 91.8979 178.36 91.7753 178.216C91.6579 178.067 91.5006 177.941 91.3033 177.84C91.1059 177.733 90.8793 177.643 90.6233 177.568C90.3726 177.488 90.1139 177.405 89.8473 177.32C89.5859 177.235 89.3273 177.139 89.0713 177.032C88.8206 176.92 88.5966 176.781 88.3993 176.616C88.2019 176.451 88.0419 176.248 87.9193 176.008C87.8019 175.763 87.7433 175.467 87.7433 175.12C87.7433 174.811 87.8073 174.515 87.9353 174.232C88.0633 173.944 88.2499 173.693 88.4953 173.48C88.7406 173.261 89.0419 173.088 89.3993 172.96C89.7566 172.832 90.1646 172.768 90.6233 172.768C91.1566 172.768 91.6339 172.853 92.0553 173.024C92.4819 173.189 92.8499 173.419 93.1593 173.712L92.8393 174.232ZM96.3688 172.896V178.064C96.3688 178.677 96.5101 179.152 96.7928 179.488C97.0754 179.824 97.5021 179.992 98.0728 179.992C98.4888 179.992 98.8808 179.893 99.2488 179.696C99.6168 179.499 99.9554 179.224 100.265 178.872V172.896H101.689V181H100.841C100.638 181 100.51 180.901 100.457 180.704L100.345 179.832C99.9928 180.221 99.5981 180.536 99.1608 180.776C98.7234 181.011 98.2221 181.128 97.6568 181.128C97.2141 181.128 96.8221 181.056 96.4808 180.912C96.1448 180.763 95.8621 180.555 95.6328 180.288C95.4034 180.021 95.2301 179.699 95.1128 179.32C95.0008 178.941 94.9448 178.523 94.9448 178.064V172.896H96.3688ZM104.027 181V172.896H104.875C105.078 172.896 105.206 172.995 105.259 173.192L105.363 174.024C105.662 173.656 105.995 173.355 106.363 173.12C106.737 172.885 107.169 172.768 107.659 172.768C108.209 172.768 108.651 172.92 108.987 173.224C109.329 173.528 109.574 173.939 109.723 174.456C109.835 174.163 109.982 173.909 110.163 173.696C110.35 173.483 110.558 173.307 110.787 173.168C111.017 173.029 111.259 172.928 111.515 172.864C111.777 172.8 112.041 172.768 112.307 172.768C112.734 172.768 113.113 172.837 113.443 172.976C113.779 173.109 114.062 173.307 114.291 173.568C114.526 173.829 114.705 174.152 114.827 174.536C114.95 174.915 115.011 175.349 115.011 175.84V181H113.587V175.84C113.587 175.205 113.449 174.725 113.171 174.4C112.894 174.069 112.491 173.904 111.963 173.904C111.729 173.904 111.505 173.947 111.291 174.032C111.083 174.112 110.899 174.232 110.739 174.392C110.579 174.552 110.451 174.755 110.355 175C110.265 175.24 110.219 175.52 110.219 175.84V181H108.795V175.84C108.795 175.189 108.665 174.704 108.403 174.384C108.142 174.064 107.761 173.904 107.259 173.904C106.907 173.904 106.579 174 106.275 174.192C105.977 174.379 105.702 174.635 105.451 174.96V181H104.027Z" fill="black"/>
<path d="M268.096 176.712V181H266.552V169.536H269.936C270.661 169.536 271.291 169.621 271.824 169.792C272.363 169.957 272.808 170.195 273.16 170.504C273.512 170.813 273.773 171.187 273.944 171.624C274.12 172.061 274.208 172.549 274.208 173.088C274.208 173.621 274.115 174.109 273.928 174.552C273.741 174.995 273.467 175.376 273.104 175.696C272.747 176.016 272.301 176.267 271.768 176.448C271.235 176.624 270.624 176.712 269.936 176.712H268.096ZM268.096 175.48H269.936C270.379 175.48 270.768 175.421 271.104 175.304C271.445 175.187 271.731 175.024 271.96 174.816C272.189 174.603 272.363 174.349 272.48 174.056C272.597 173.763 272.656 173.44 272.656 173.088C272.656 172.357 272.429 171.787 271.976 171.376C271.528 170.965 270.848 170.76 269.936 170.76H268.096V175.48ZM286.109 175.272C286.109 176.131 285.973 176.912 285.701 177.616C285.429 178.32 285.045 178.923 284.549 179.424C284.053 179.925 283.459 180.315 282.765 180.592C282.072 180.864 281.304 181 280.461 181H276.173V169.536H280.461C281.304 169.536 282.072 169.675 282.765 169.952C283.459 170.224 284.053 170.613 284.549 171.12C285.045 171.621 285.429 172.224 285.701 172.928C285.973 173.632 286.109 174.413 286.109 175.272ZM284.517 175.272C284.517 174.568 284.421 173.939 284.229 173.384C284.037 172.829 283.765 172.36 283.413 171.976C283.061 171.592 282.635 171.299 282.133 171.096C281.632 170.893 281.075 170.792 280.461 170.792H277.733V179.744H280.461C281.075 179.744 281.632 179.643 282.133 179.44C282.635 179.237 283.061 178.947 283.413 178.568C283.765 178.184 284.037 177.715 284.229 177.16C284.421 176.605 284.517 175.976 284.517 175.272ZM295.284 169.536V170.8H289.78V174.808H294.484V176.072H289.78V181H288.22V169.536H295.284Z" fill="black"/>
<line y1="49" x2="359" y2="49" stroke="#DFE2E6" stroke-width="2"/>
<line y1="99.5" x2="359" y2="99.5" stroke="#DFE2E6"/>
<line y1="149.5" x2="359" y2="149.5" stroke="#DFE2E6"/>
</svg>
