<svg width="604" height="200" viewBox="0 0 604 200" fill="none" xmlns="http://www.w3.org/2000/svg">
<rect y="100" width="604" height="50" fill="white"/>
<rect width="604" height="50" fill="white"/>
<rect y="50" width="604" height="50" fill="#F8F8F8"/>
<path d="M26.096 76.712V81H24.552V69.536H27.936C28.6613 69.536 29.2907 69.6213 29.824 69.792C30.3627 69.9573 30.808 70.1947 31.16 70.504C31.512 70.8133 31.7733 71.1867 31.944 71.624C32.12 72.0613 32.208 72.5493 32.208 73.088C32.208 73.6213 32.1147 74.1093 31.928 74.552C31.7413 74.9947 31.4667 75.376 31.104 75.696C30.7467 76.016 30.3013 76.2667 29.768 76.448C29.2347 76.624 28.624 76.712 27.936 76.712H26.096ZM26.096 75.48H27.936C28.3787 75.48 28.768 75.4213 29.104 75.304C29.4453 75.1867 29.7307 75.024 29.96 74.816C30.1893 74.6027 30.3627 74.3493 30.48 74.056C30.5973 73.7627 30.656 73.44 30.656 73.088C30.656 72.3573 30.4293 71.7867 29.976 71.376C29.528 70.9653 28.848 70.76 27.936 70.76H26.096V75.48ZM33.9493 81V72.896H34.7653C34.9199 72.896 35.0266 72.9253 35.0853 72.984C35.1439 73.0427 35.1839 73.144 35.2053 73.288L35.3013 74.552C35.5786 73.9867 35.9199 73.5467 36.3253 73.232C36.7359 72.912 37.2159 72.752 37.7653 72.752C37.9893 72.752 38.1919 72.7787 38.3733 72.832C38.5546 72.88 38.7226 72.9493 38.8773 73.04L38.6933 74.104C38.6559 74.2373 38.5733 74.304 38.4453 74.304C38.3706 74.304 38.2559 74.28 38.1013 74.232C37.9466 74.1787 37.7306 74.152 37.4533 74.152C36.9573 74.152 36.5413 74.296 36.2053 74.584C35.8746 74.872 35.5973 75.2907 35.3733 75.84V81H33.9493ZM43.6104 72.768C44.0957 72.768 44.5437 72.8507 44.9544 73.016C45.365 73.176 45.7197 73.4107 46.0184 73.72C46.317 74.024 46.549 74.4027 46.7144 74.856C46.885 75.304 46.9704 75.816 46.9704 76.392C46.9704 76.616 46.9464 76.7653 46.8984 76.84C46.8504 76.9147 46.7597 76.952 46.6264 76.952H41.2344C41.245 77.464 41.3144 77.9093 41.4424 78.288C41.5704 78.6667 41.7464 78.984 41.9704 79.24C42.1944 79.4907 42.461 79.68 42.7704 79.808C43.0797 79.9307 43.4264 79.992 43.8104 79.992C44.1677 79.992 44.4744 79.952 44.7304 79.872C44.9917 79.7867 45.2157 79.696 45.4024 79.6C45.589 79.504 45.7437 79.416 45.8664 79.336C45.9944 79.2507 46.1037 79.208 46.1944 79.208C46.3117 79.208 46.4024 79.2533 46.4664 79.344L46.8664 79.864C46.6904 80.0773 46.4797 80.264 46.2344 80.424C45.989 80.5787 45.725 80.7067 45.4424 80.808C45.165 80.9093 44.877 80.984 44.5784 81.032C44.2797 81.0853 43.9837 81.112 43.6904 81.112C43.1304 81.112 42.613 81.0187 42.1384 80.832C41.669 80.64 41.261 80.3627 40.9144 80C40.573 79.632 40.3064 79.1787 40.1144 78.64C39.9224 78.1013 39.8264 77.4827 39.8264 76.784C39.8264 76.2187 39.9117 75.6907 40.0824 75.2C40.2584 74.7093 40.509 74.2853 40.8344 73.928C41.1597 73.5653 41.557 73.2827 42.0264 73.08C42.4957 72.872 43.0237 72.768 43.6104 72.768ZM43.6424 73.816C42.9544 73.816 42.413 74.016 42.0184 74.416C41.6237 74.8107 41.3784 75.36 41.2824 76.064H45.6904C45.6904 75.7333 45.645 75.432 45.5544 75.16C45.4637 74.8827 45.3304 74.6453 45.1544 74.448C44.9784 74.2453 44.7624 74.0907 44.5064 73.984C44.2557 73.872 43.9677 73.816 43.6424 73.816ZM53.433 74.232C53.369 74.3493 53.2703 74.408 53.137 74.408C53.057 74.408 52.9663 74.3787 52.865 74.32C52.7637 74.2613 52.6383 74.1973 52.489 74.128C52.345 74.0533 52.1717 73.9867 51.969 73.928C51.7663 73.864 51.5263 73.832 51.249 73.832C51.009 73.832 50.793 73.864 50.601 73.928C50.409 73.9867 50.2437 74.0693 50.105 74.176C49.9717 74.2827 49.8677 74.408 49.793 74.552C49.7237 74.6907 49.689 74.8427 49.689 75.008C49.689 75.216 49.7477 75.3893 49.865 75.528C49.9877 75.6667 50.1477 75.7867 50.345 75.888C50.5423 75.9893 50.7663 76.08 51.017 76.16C51.2677 76.2347 51.5237 76.3173 51.785 76.408C52.0517 76.4933 52.3103 76.5893 52.561 76.696C52.8117 76.8027 53.0357 76.936 53.233 77.096C53.4303 77.256 53.5877 77.4533 53.705 77.688C53.8277 77.9173 53.889 78.1947 53.889 78.52C53.889 78.8933 53.8223 79.24 53.689 79.56C53.5557 79.8747 53.3583 80.1493 53.097 80.384C52.8357 80.6133 52.5157 80.7947 52.137 80.928C51.7583 81.0613 51.321 81.128 50.825 81.128C50.2597 81.128 49.7477 81.0373 49.289 80.856C48.8303 80.6693 48.441 80.432 48.121 80.144L48.457 79.6C48.4997 79.5307 48.5503 79.4773 48.609 79.44C48.6677 79.4027 48.745 79.384 48.841 79.384C48.937 79.384 49.0383 79.4213 49.145 79.496C49.2517 79.5707 49.3797 79.6533 49.529 79.744C49.6837 79.8347 49.8677 79.9173 50.081 79.992C50.2997 80.0667 50.5717 80.104 50.897 80.104C51.1743 80.104 51.417 80.0693 51.625 80C51.833 79.9253 52.0063 79.8267 52.145 79.704C52.2837 79.5813 52.385 79.44 52.449 79.28C52.5183 79.12 52.553 78.9493 52.553 78.768C52.553 78.544 52.4917 78.36 52.369 78.216C52.2517 78.0667 52.0943 77.9413 51.897 77.84C51.6997 77.7333 51.473 77.6427 51.217 77.568C50.9663 77.488 50.7077 77.4053 50.441 77.32C50.1797 77.2347 49.921 77.1387 49.665 77.032C49.4143 76.92 49.1903 76.7813 48.993 76.616C48.7957 76.4507 48.6357 76.248 48.513 76.008C48.3957 75.7627 48.337 75.4667 48.337 75.12C48.337 74.8107 48.401 74.5147 48.529 74.232C48.657 73.944 48.8437 73.6933 49.089 73.48C49.3343 73.2613 49.6357 73.088 49.993 72.96C50.3503 72.832 50.7583 72.768 51.217 72.768C51.7503 72.768 52.2277 72.8533 52.649 73.024C53.0757 73.1893 53.4437 73.4187 53.753 73.712L53.433 74.232ZM58.9385 72.768C59.4238 72.768 59.8718 72.8507 60.2825 73.016C60.6932 73.176 61.0478 73.4107 61.3465 73.72C61.6452 74.024 61.8772 74.4027 62.0425 74.856C62.2132 75.304 62.2985 75.816 62.2985 76.392C62.2985 76.616 62.2745 76.7653 62.2265 76.84C62.1785 76.9147 62.0878 76.952 61.9545 76.952H56.5625C56.5732 77.464 56.6425 77.9093 56.7705 78.288C56.8985 78.6667 57.0745 78.984 57.2985 79.24C57.5225 79.4907 57.7892 79.68 58.0985 79.808C58.4078 79.9307 58.7545 79.992 59.1385 79.992C59.4958 79.992 59.8025 79.952 60.0585 79.872C60.3198 79.7867 60.5438 79.696 60.7305 79.6C60.9172 79.504 61.0718 79.416 61.1945 79.336C61.3225 79.2507 61.4318 79.208 61.5225 79.208C61.6398 79.208 61.7305 79.2533 61.7945 79.344L62.1945 79.864C62.0185 80.0773 61.8078 80.264 61.5625 80.424C61.3172 80.5787 61.0532 80.7067 60.7705 80.808C60.4932 80.9093 60.2052 80.984 59.9065 81.032C59.6078 81.0853 59.3118 81.112 59.0185 81.112C58.4585 81.112 57.9412 81.0187 57.4665 80.832C56.9972 80.64 56.5892 80.3627 56.2425 80C55.9012 79.632 55.6345 79.1787 55.4425 78.64C55.2505 78.1013 55.1545 77.4827 55.1545 76.784C55.1545 76.2187 55.2398 75.6907 55.4105 75.2C55.5865 74.7093 55.8372 74.2853 56.1625 73.928C56.4878 73.5653 56.8852 73.2827 57.3545 73.08C57.8238 72.872 58.3518 72.768 58.9385 72.768ZM58.9705 73.816C58.2825 73.816 57.7412 74.016 57.3465 74.416C56.9518 74.8107 56.7065 75.36 56.6105 76.064H61.0185C61.0185 75.7333 60.9732 75.432 60.8825 75.16C60.7918 74.8827 60.6585 74.6453 60.4825 74.448C60.3065 74.2453 60.0905 74.0907 59.8345 73.984C59.5838 73.872 59.2958 73.816 58.9705 73.816ZM64.1211 81V72.896H64.9691C65.1718 72.896 65.2998 72.9947 65.3531 73.192L65.4651 74.072C65.8171 73.6827 66.2091 73.368 66.6411 73.128C67.0785 72.888 67.5825 72.768 68.1531 72.768C68.5958 72.768 68.9851 72.8427 69.3211 72.992C69.6625 73.136 69.9451 73.344 70.1691 73.616C70.3985 73.8827 70.5718 74.2053 70.6891 74.584C70.8065 74.9627 70.8651 75.3813 70.8651 75.84V81H69.4411V75.84C69.4411 75.2267 69.2998 74.752 69.0171 74.416C68.7398 74.0747 68.3131 73.904 67.7371 73.904C67.3158 73.904 66.9211 74.0053 66.5531 74.208C66.1905 74.4107 65.8545 74.6853 65.5451 75.032V81H64.1211ZM75.4678 81.128C74.8278 81.128 74.3344 80.9493 73.9878 80.592C73.6464 80.2347 73.4758 79.72 73.4758 79.048V74.088H72.4998C72.4144 74.088 72.3424 74.064 72.2838 74.016C72.2251 73.9627 72.1958 73.8827 72.1958 73.776V73.208L73.5238 73.04L73.8518 70.536C73.8624 70.456 73.8971 70.392 73.9557 70.344C74.0144 70.2907 74.0891 70.264 74.1798 70.264H74.8998V73.056H77.2198V74.088H74.8998V78.952C74.8998 79.2933 74.9824 79.5467 75.1478 79.712C75.3131 79.8773 75.5264 79.96 75.7878 79.96C75.9371 79.96 76.0651 79.9413 76.1718 79.904C76.2838 79.8613 76.3798 79.816 76.4598 79.768C76.5398 79.72 76.6064 79.6773 76.6598 79.64C76.7184 79.5973 76.7691 79.576 76.8118 79.576C76.8864 79.576 76.9531 79.6213 77.0118 79.712L77.4278 80.392C77.1824 80.6213 76.8864 80.8027 76.5398 80.936C76.1931 81.064 75.8358 81.128 75.4678 81.128ZM84.9325 81H84.3005C84.1618 81 84.0498 80.9787 83.9645 80.936C83.8792 80.8933 83.8232 80.8027 83.7965 80.664L83.6365 79.912C83.4232 80.104 83.2152 80.2773 83.0125 80.432C82.8098 80.5813 82.5965 80.7093 82.3725 80.816C82.1485 80.9173 81.9085 80.9947 81.6525 81.048C81.4018 81.1013 81.1218 81.128 80.8125 81.128C80.4978 81.128 80.2018 81.0853 79.9245 81C79.6525 80.9093 79.4152 80.776 79.2125 80.6C79.0098 80.424 78.8472 80.2027 78.7245 79.936C78.6072 79.664 78.5485 79.344 78.5485 78.976C78.5485 78.656 78.6365 78.3493 78.8125 78.056C78.9885 77.7573 79.2712 77.4933 79.6605 77.264C80.0552 77.0347 80.5698 76.848 81.2045 76.704C81.8392 76.5547 82.6152 76.4693 83.5325 76.448V75.816C83.5325 75.1867 83.3965 74.712 83.1245 74.392C82.8578 74.0667 82.4605 73.904 81.9325 73.904C81.5858 73.904 81.2925 73.9493 81.0525 74.04C80.8178 74.1253 80.6125 74.224 80.4365 74.336C80.2658 74.4427 80.1165 74.5413 79.9885 74.632C79.8658 74.7173 79.7432 74.76 79.6205 74.76C79.5245 74.76 79.4392 74.736 79.3645 74.688C79.2952 74.6347 79.2392 74.5707 79.1965 74.496L78.9405 74.04C79.3885 73.608 79.8712 73.2853 80.3885 73.072C80.9058 72.8587 81.4792 72.752 82.1085 72.752C82.5618 72.752 82.9645 72.8267 83.3165 72.976C83.6685 73.1253 83.9645 73.3333 84.2045 73.6C84.4445 73.8667 84.6258 74.1893 84.7485 74.568C84.8712 74.9467 84.9325 75.3627 84.9325 75.816V81ZM81.2365 80.128C81.4872 80.128 81.7165 80.104 81.9245 80.056C82.1325 80.0027 82.3272 79.9307 82.5085 79.84C82.6952 79.744 82.8712 79.6293 83.0365 79.496C83.2072 79.3627 83.3725 79.2107 83.5325 79.04V77.352C82.8765 77.3733 82.3192 77.4267 81.8605 77.512C81.4018 77.592 81.0285 77.6987 80.7405 77.832C80.4525 77.9653 80.2418 78.1227 80.1085 78.304C79.9805 78.4853 79.9165 78.688 79.9165 78.912C79.9165 79.1253 79.9512 79.3093 80.0205 79.464C80.0898 79.6187 80.1832 79.7467 80.3005 79.848C80.4178 79.944 80.5565 80.016 80.7165 80.064C80.8765 80.1067 81.0498 80.128 81.2365 80.128ZM89.5459 81.128C88.9059 81.128 88.4125 80.9493 88.0659 80.592C87.7245 80.2347 87.5539 79.72 87.5539 79.048V74.088H86.5779C86.4925 74.088 86.4205 74.064 86.3619 74.016C86.3032 73.9627 86.2739 73.8827 86.2739 73.776V73.208L87.6019 73.04L87.9299 70.536C87.9405 70.456 87.9752 70.392 88.0339 70.344C88.0925 70.2907 88.1672 70.264 88.2579 70.264H88.9779V73.056H91.2979V74.088H88.9779V78.952C88.9779 79.2933 89.0605 79.5467 89.2259 79.712C89.3912 79.8773 89.6045 79.96 89.8659 79.96C90.0152 79.96 90.1432 79.9413 90.2499 79.904C90.3619 79.8613 90.4579 79.816 90.5379 79.768C90.6179 79.72 90.6845 79.6773 90.7379 79.64C90.7965 79.5973 90.8472 79.576 90.8899 79.576C90.9645 79.576 91.0312 79.6213 91.0899 79.712L91.5059 80.392C91.2605 80.6213 90.9645 80.8027 90.6179 80.936C90.2712 81.064 89.9139 81.128 89.5459 81.128ZM94.6426 72.896V81H93.2186V72.896H94.6426ZM94.9626 70.352C94.9626 70.4907 94.9333 70.6213 94.8746 70.744C94.8213 70.8613 94.7466 70.968 94.6506 71.064C94.56 71.1547 94.4533 71.2267 94.3306 71.28C94.208 71.3333 94.0773 71.36 93.9386 71.36C93.8 71.36 93.6693 71.3333 93.5466 71.28C93.4293 71.2267 93.3226 71.1547 93.2266 71.064C93.136 70.968 93.064 70.8613 93.0106 70.744C92.9573 70.6213 92.9306 70.4907 92.9306 70.352C92.9306 70.2133 92.9573 70.0827 93.0106 69.96C93.064 69.832 93.136 69.7227 93.2266 69.632C93.3226 69.536 93.4293 69.4613 93.5466 69.408C93.6693 69.3547 93.8 69.328 93.9386 69.328C94.0773 69.328 94.208 69.3547 94.3306 69.408C94.4533 69.4613 94.56 69.536 94.6506 69.632C94.7466 69.7227 94.8213 69.832 94.8746 69.96C94.9333 70.0827 94.9626 70.2133 94.9626 70.352ZM100.432 72.768C101.024 72.768 101.558 72.8667 102.032 73.064C102.512 73.2613 102.918 73.5413 103.248 73.904C103.584 74.2667 103.84 74.7067 104.016 75.224C104.198 75.736 104.288 76.3093 104.288 76.944C104.288 77.584 104.198 78.16 104.016 78.672C103.84 79.184 103.584 79.6213 103.248 79.984C102.918 80.3467 102.512 80.6267 102.032 80.824C101.558 81.016 101.024 81.112 100.432 81.112C99.8404 81.112 99.3044 81.016 98.8244 80.824C98.3497 80.6267 97.9444 80.3467 97.6084 79.984C97.2724 79.6213 97.0137 79.184 96.8324 78.672C96.651 78.16 96.5604 77.584 96.5604 76.944C96.5604 76.3093 96.651 75.736 96.8324 75.224C97.0137 74.7067 97.2724 74.2667 97.6084 73.904C97.9444 73.5413 98.3497 73.2613 98.8244 73.064C99.3044 72.8667 99.8404 72.768 100.432 72.768ZM100.432 80C101.232 80 101.83 79.7333 102.224 79.2C102.619 78.6613 102.816 77.912 102.816 76.952C102.816 75.9867 102.619 75.2347 102.224 74.696C101.83 74.1573 101.232 73.888 100.432 73.888C100.027 73.888 99.675 73.9573 99.3764 74.096C99.0777 74.2347 98.827 74.4347 98.6244 74.696C98.427 74.9573 98.2777 75.28 98.1764 75.664C98.0804 76.0427 98.0324 76.472 98.0324 76.952C98.0324 77.432 98.0804 77.8613 98.1764 78.24C98.2777 78.6187 98.427 78.9387 98.6244 79.2C98.827 79.456 99.0777 79.6533 99.3764 79.792C99.675 79.9307 100.027 80 100.432 80ZM106.043 81V72.896H106.891C107.094 72.896 107.222 72.9947 107.275 73.192L107.387 74.072C107.739 73.6827 108.131 73.368 108.563 73.128C109 72.888 109.504 72.768 110.075 72.768C110.518 72.768 110.907 72.8427 111.243 72.992C111.584 73.136 111.867 73.344 112.091 73.616C112.32 73.8827 112.494 74.2053 112.611 74.584C112.728 74.9627 112.787 75.3813 112.787 75.84V81H111.363V75.84C111.363 75.2267 111.222 74.752 110.939 74.416C110.662 74.0747 110.235 73.904 109.659 73.904C109.238 73.904 108.843 74.0053 108.475 74.208C108.112 74.4107 107.776 74.6853 107.467 75.032V81H106.043Z" fill="black"/>
<path d="M268.096 76.712V81H266.552V69.536H269.936C270.661 69.536 271.291 69.6213 271.824 69.792C272.363 69.9573 272.808 70.1947 273.16 70.504C273.512 70.8133 273.773 71.1867 273.944 71.624C274.12 72.0613 274.208 72.5493 274.208 73.088C274.208 73.6213 274.115 74.1093 273.928 74.552C273.741 74.9947 273.467 75.376 273.104 75.696C272.747 76.016 272.301 76.2667 271.768 76.448C271.235 76.624 270.624 76.712 269.936 76.712H268.096ZM268.096 75.48H269.936C270.379 75.48 270.768 75.4213 271.104 75.304C271.445 75.1867 271.731 75.024 271.96 74.816C272.189 74.6027 272.363 74.3493 272.48 74.056C272.597 73.7627 272.656 73.44 272.656 73.088C272.656 72.3573 272.429 71.7867 271.976 71.376C271.528 70.9653 270.848 70.76 269.936 70.76H268.096V75.48ZM277.877 76.712V81H276.333V69.536H279.717C280.443 69.536 281.072 69.6213 281.605 69.792C282.144 69.9573 282.589 70.1947 282.941 70.504C283.293 70.8133 283.555 71.1867 283.725 71.624C283.901 72.0613 283.989 72.5493 283.989 73.088C283.989 73.6213 283.896 74.1093 283.709 74.552C283.523 74.9947 283.248 75.376 282.885 75.696C282.528 76.016 282.083 76.2667 281.549 76.448C281.016 76.624 280.405 76.712 279.717 76.712H277.877ZM277.877 75.48H279.717C280.16 75.48 280.549 75.4213 280.885 75.304C281.227 75.1867 281.512 75.024 281.741 74.816C281.971 74.6027 282.144 74.3493 282.261 74.056C282.379 73.7627 282.437 73.44 282.437 73.088C282.437 72.3573 282.211 71.7867 281.757 71.376C281.309 70.9653 280.629 70.76 279.717 70.76H277.877V75.48ZM293.763 69.536V70.84H290.059V81H288.507V70.84H284.787V69.536H293.763Z" fill="black"/>
<path d="M459.82 81.128C459.249 81.128 458.726 81.0533 458.252 80.904C457.777 80.7493 457.369 80.5307 457.028 80.248C456.686 79.9653 456.422 79.624 456.236 79.224C456.049 78.8187 455.956 78.3653 455.956 77.864C455.956 77.128 456.148 76.5227 456.532 76.048C456.916 75.568 457.465 75.2267 458.18 75.024C457.577 74.8 457.121 74.4667 456.812 74.024C456.508 73.576 456.356 73.0427 456.356 72.424C456.356 72.0027 456.438 71.608 456.604 71.24C456.769 70.872 457.004 70.552 457.308 70.28C457.612 70.008 457.974 69.7947 458.396 69.64C458.822 69.4853 459.297 69.408 459.82 69.408C460.337 69.408 460.809 69.4853 461.236 69.64C461.662 69.7947 462.028 70.008 462.332 70.28C462.636 70.552 462.87 70.872 463.036 71.24C463.201 71.608 463.284 72.0027 463.284 72.424C463.284 73.0427 463.129 73.576 462.82 74.024C462.51 74.4667 462.057 74.8 461.46 75.024C462.174 75.2267 462.724 75.568 463.108 76.048C463.492 76.5227 463.684 77.128 463.684 77.864C463.684 78.3653 463.588 78.8187 463.396 79.224C463.209 79.624 462.945 79.9653 462.604 80.248C462.268 80.5307 461.862 80.7493 461.388 80.904C460.913 81.0533 460.39 81.128 459.82 81.128ZM459.82 79.992C460.193 79.992 460.526 79.9413 460.82 79.84C461.118 79.7333 461.369 79.5867 461.572 79.4C461.78 79.208 461.937 78.9813 462.044 78.72C462.156 78.4533 462.212 78.16 462.212 77.84C462.212 77.4453 462.145 77.1093 462.012 76.832C461.884 76.5493 461.708 76.32 461.484 76.144C461.265 75.968 461.012 75.84 460.724 75.76C460.436 75.6747 460.134 75.632 459.82 75.632C459.505 75.632 459.204 75.6747 458.916 75.76C458.628 75.84 458.372 75.968 458.148 76.144C457.929 76.32 457.753 76.5493 457.62 76.832C457.492 77.1093 457.428 77.4453 457.428 77.84C457.428 78.16 457.481 78.4533 457.588 78.72C457.7 78.9813 457.857 79.208 458.06 79.4C458.268 79.5867 458.518 79.7333 458.812 79.84C459.11 79.9413 459.446 79.992 459.82 79.992ZM459.82 74.488C460.193 74.488 460.51 74.432 460.772 74.32C461.038 74.2027 461.254 74.0507 461.42 73.864C461.585 73.672 461.705 73.4533 461.78 73.208C461.854 72.9627 461.892 72.7093 461.892 72.448C461.892 72.1813 461.846 71.9307 461.756 71.696C461.67 71.4613 461.54 71.256 461.364 71.08C461.193 70.904 460.977 70.7653 460.716 70.664C460.46 70.5627 460.161 70.512 459.82 70.512C459.478 70.512 459.177 70.5627 458.916 70.664C458.66 70.7653 458.444 70.904 458.268 71.08C458.097 71.256 457.966 71.4613 457.876 71.696C457.79 71.9307 457.748 72.1813 457.748 72.448C457.748 72.7093 457.785 72.9627 457.86 73.208C457.934 73.4533 458.054 73.672 458.22 73.864C458.385 74.0507 458.598 74.2027 458.86 74.32C459.126 74.432 459.446 74.488 459.82 74.488ZM473.269 75.272C473.269 76.2747 473.159 77.144 472.941 77.88C472.727 78.6107 472.434 79.216 472.061 79.696C471.687 80.176 471.245 80.5333 470.733 80.768C470.226 81.0027 469.682 81.12 469.101 81.12C468.514 81.12 467.967 81.0027 467.461 80.768C466.959 80.5333 466.522 80.176 466.149 79.696C465.775 79.216 465.482 78.6107 465.269 77.88C465.055 77.144 464.949 76.2747 464.949 75.272C464.949 74.2693 465.055 73.4 465.269 72.664C465.482 71.928 465.775 71.32 466.149 70.84C466.522 70.3547 466.959 69.9947 467.461 69.76C467.967 69.5253 468.514 69.408 469.101 69.408C469.682 69.408 470.226 69.5253 470.733 69.76C471.245 69.9947 471.687 70.3547 472.061 70.84C472.434 71.32 472.727 71.928 472.941 72.664C473.159 73.4 473.269 74.2693 473.269 75.272ZM471.789 75.272C471.789 74.3973 471.714 73.664 471.565 73.072C471.421 72.4747 471.223 71.9947 470.973 71.632C470.727 71.2693 470.442 71.0107 470.117 70.856C469.791 70.696 469.453 70.616 469.101 70.616C468.749 70.616 468.41 70.696 468.085 70.856C467.759 71.0107 467.474 71.2693 467.229 71.632C466.983 71.9947 466.786 72.4747 466.637 73.072C466.493 73.664 466.421 74.3973 466.421 75.272C466.421 76.1467 466.493 76.88 466.637 77.472C466.786 78.064 466.983 78.5413 467.229 78.904C467.474 79.2667 467.759 79.528 468.085 79.688C468.41 79.8427 468.749 79.92 469.101 79.92C469.453 79.92 469.791 79.8427 470.117 79.688C470.442 79.528 470.727 79.2667 470.973 78.904C471.223 78.5413 471.421 78.064 471.565 77.472C471.714 76.88 471.789 76.1467 471.789 75.272ZM476.846 74.56H477.43C477.633 74.56 477.793 74.536 477.91 74.488C478.033 74.4347 478.147 74.3467 478.254 74.224L482.07 69.904C482.187 69.7707 482.299 69.6773 482.406 69.624C482.518 69.5653 482.659 69.536 482.83 69.536H484.15L479.782 74.472C479.67 74.5947 479.563 74.6987 479.462 74.784C479.366 74.8693 479.262 74.9387 479.15 74.992C479.299 75.04 479.43 75.112 479.542 75.208C479.654 75.304 479.771 75.424 479.894 75.568L484.454 81H483.11C483.009 81 482.923 80.992 482.854 80.976C482.785 80.96 482.723 80.9387 482.67 80.912C482.622 80.8853 482.577 80.8507 482.534 80.808C482.491 80.7653 482.449 80.72 482.406 80.672L478.446 76.12C478.387 76.056 478.331 76.0027 478.278 75.96C478.23 75.912 478.171 75.872 478.102 75.84C478.038 75.808 477.961 75.7867 477.87 75.776C477.785 75.76 477.678 75.752 477.55 75.752H476.846V81H475.302V69.536H476.846V74.56ZM486.033 81V69.536H489.689C490.393 69.536 490.998 69.6053 491.505 69.744C492.017 69.8827 492.435 70.08 492.761 70.336C493.091 70.592 493.334 70.9067 493.489 71.28C493.649 71.648 493.729 72.064 493.729 72.528C493.729 72.8107 493.683 73.0827 493.593 73.344C493.507 73.6053 493.374 73.848 493.193 74.072C493.017 74.296 492.793 74.496 492.521 74.672C492.254 74.848 491.939 74.992 491.577 75.104C492.414 75.2693 493.046 75.5707 493.473 76.008C493.899 76.4453 494.113 77.0213 494.113 77.736C494.113 78.2213 494.022 78.664 493.841 79.064C493.665 79.464 493.403 79.808 493.057 80.096C492.715 80.384 492.294 80.608 491.793 80.768C491.297 80.9227 490.729 81 490.089 81H486.033ZM487.585 75.776V79.768H490.065C490.507 79.768 490.886 79.7173 491.201 79.616C491.521 79.5147 491.782 79.3733 491.985 79.192C492.193 79.0053 492.345 78.7867 492.441 78.536C492.537 78.28 492.585 78 492.585 77.696C492.585 77.104 492.374 76.6373 491.953 76.296C491.537 75.9493 490.905 75.776 490.057 75.776H487.585ZM487.585 74.672H489.633C490.07 74.672 490.449 74.624 490.769 74.528C491.089 74.432 491.353 74.2987 491.561 74.128C491.774 73.9573 491.931 73.752 492.033 73.512C492.134 73.2667 492.185 73 492.185 72.712C492.185 72.04 491.982 71.5467 491.577 71.232C491.171 70.9173 490.542 70.76 489.689 70.76H487.585V74.672Z" fill="black"/>
<path d="M25.296 19.432C25.392 19.432 25.472 19.4373 25.536 19.448C25.6 19.4533 25.656 19.4693 25.704 19.496C25.7573 19.5173 25.808 19.552 25.856 19.6C25.904 19.6427 25.9573 19.7013 26.016 19.776L32.088 27.512C32.0667 27.3253 32.0507 27.144 32.04 26.968C32.0347 26.7867 32.032 26.6187 32.032 26.464V19.432H33.928V31H32.816C32.6453 31 32.504 30.9733 32.392 30.92C32.28 30.8667 32.1707 30.7707 32.064 30.632L26.016 22.928C26.032 23.0987 26.0427 23.2693 26.048 23.44C26.0587 23.6053 26.064 23.7573 26.064 23.896V31H24.168V19.432H25.296ZM42.5818 31H41.6938C41.5071 31 41.3604 30.9733 41.2538 30.92C41.1471 30.8613 41.0671 30.7467 41.0138 30.576L40.8378 29.992C40.6298 30.1787 40.4244 30.344 40.2218 30.488C40.0244 30.6267 39.8191 30.744 39.6058 30.84C39.3924 30.936 39.1658 31.008 38.9258 31.056C38.6858 31.104 38.4191 31.128 38.1258 31.128C37.7791 31.128 37.4591 31.0827 37.1658 30.992C36.8724 30.896 36.6191 30.7547 36.4058 30.568C36.1978 30.3813 36.0351 30.1493 35.9178 29.872C35.8004 29.5947 35.7418 29.272 35.7418 28.904C35.7418 28.5947 35.8218 28.2907 35.9818 27.992C36.1471 27.688 36.4191 27.416 36.7978 27.176C37.1764 26.9307 37.6804 26.728 38.3098 26.568C38.9391 26.408 39.7204 26.3173 40.6538 26.296V25.816C40.6538 25.2667 40.5364 24.8613 40.3018 24.6C40.0724 24.3333 39.7364 24.2 39.2938 24.2C38.9738 24.2 38.7071 24.2373 38.4938 24.312C38.2804 24.3867 38.0938 24.472 37.9338 24.568C37.7791 24.6587 37.6351 24.7413 37.5018 24.816C37.3684 24.8907 37.2218 24.928 37.0618 24.928C36.9284 24.928 36.8138 24.8933 36.7178 24.824C36.6218 24.7547 36.5444 24.6693 36.4858 24.568L36.1258 23.936C37.0698 23.072 38.2084 22.64 39.5418 22.64C40.0218 22.64 40.4484 22.72 40.8218 22.88C41.2004 23.0347 41.5204 23.2533 41.7818 23.536C42.0431 23.8133 42.2404 24.1467 42.3738 24.536C42.5124 24.9253 42.5818 25.352 42.5818 25.816V31ZM38.7418 29.768C38.9444 29.768 39.1311 29.7493 39.3018 29.712C39.4724 29.6747 39.6324 29.6187 39.7818 29.544C39.9364 29.4693 40.0831 29.3787 40.2218 29.272C40.3658 29.16 40.5098 29.0293 40.6538 28.88V27.496C40.0778 27.5227 39.5951 27.5733 39.2057 27.648C38.8218 27.7173 38.5124 27.808 38.2778 27.92C38.0431 28.032 37.8751 28.1627 37.7738 28.312C37.6778 28.4613 37.6298 28.624 37.6298 28.8C37.6298 29.1467 37.7311 29.3947 37.9338 29.544C38.1418 29.6933 38.4111 29.768 38.7418 29.768ZM44.5247 31V22.792H45.7328C45.9888 22.792 46.1568 22.912 46.2368 23.152L46.3648 23.76C46.5088 23.6 46.6581 23.4533 46.8128 23.32C46.9728 23.1867 47.1408 23.072 47.3168 22.976C47.4981 22.88 47.6901 22.8053 47.8928 22.752C48.1008 22.6933 48.3274 22.664 48.5728 22.664C49.0901 22.664 49.5141 22.8053 49.8448 23.088C50.1808 23.3653 50.4314 23.736 50.5968 24.2C50.7248 23.928 50.8848 23.696 51.0768 23.504C51.2688 23.3067 51.4794 23.1467 51.7088 23.024C51.9381 22.9013 52.1808 22.8107 52.4368 22.752C52.6981 22.6933 52.9594 22.664 53.2208 22.664C53.6741 22.664 54.0768 22.7333 54.4288 22.872C54.7808 23.0107 55.0768 23.2133 55.3168 23.48C55.5568 23.7467 55.7381 24.072 55.8608 24.456C55.9888 24.84 56.0528 25.28 56.0528 25.776V31H54.0768V25.776C54.0768 25.2533 53.9621 24.8613 53.7328 24.6C53.5034 24.3333 53.1674 24.2 52.7248 24.2C52.5221 24.2 52.3328 24.2347 52.1568 24.304C51.9861 24.3733 51.8341 24.4747 51.7008 24.608C51.5728 24.736 51.4714 24.8987 51.3968 25.096C51.3221 25.2933 51.2848 25.52 51.2848 25.776V31H49.3008V25.776C49.3008 25.2267 49.1888 24.8267 48.9648 24.576C48.7461 24.3253 48.4208 24.2 47.9887 24.2C47.7061 24.2 47.4394 24.272 47.1888 24.416C46.9434 24.5547 46.7141 24.7467 46.5008 24.992V31H44.5247ZM61.3855 22.664C61.9028 22.664 62.3775 22.7467 62.8095 22.912C63.2468 23.0773 63.6228 23.32 63.9375 23.64C64.2522 23.9547 64.4975 24.344 64.6735 24.808C64.8495 25.2667 64.9375 25.792 64.9375 26.384C64.9375 26.5333 64.9295 26.6587 64.9135 26.76C64.9028 26.856 64.8788 26.9333 64.8415 26.992C64.8095 27.0453 64.7642 27.0853 64.7055 27.112C64.6468 27.1333 64.5722 27.144 64.4815 27.144H59.4095C59.4682 27.9867 59.6948 28.6053 60.0895 29C60.4842 29.3947 61.0068 29.592 61.6575 29.592C61.9775 29.592 62.2522 29.5547 62.4815 29.48C62.7162 29.4053 62.9188 29.3227 63.0895 29.232C63.2655 29.1413 63.4175 29.0587 63.5455 28.984C63.6788 28.9093 63.8068 28.872 63.9295 28.872C64.0095 28.872 64.0788 28.888 64.1375 28.92C64.1962 28.952 64.2468 28.9973 64.2895 29.056L64.8655 29.776C64.6468 30.032 64.4015 30.248 64.1295 30.424C63.8575 30.5947 63.5722 30.7333 63.2735 30.84C62.9802 30.9413 62.6788 31.0133 62.3695 31.056C62.0655 31.0987 61.7695 31.12 61.4815 31.12C60.9108 31.12 60.3802 31.0267 59.8895 30.84C59.3988 30.648 58.9722 30.368 58.6095 30C58.2468 29.6267 57.9615 29.168 57.7535 28.624C57.5455 28.0747 57.4415 27.44 57.4415 26.72C57.4415 26.16 57.5322 25.6347 57.7135 25.144C57.8948 24.648 58.1535 24.2187 58.4895 23.856C58.8308 23.488 59.2442 23.1973 59.7295 22.984C60.2202 22.7707 60.7722 22.664 61.3855 22.664ZM61.4255 24.08C60.8495 24.08 60.3988 24.2427 60.0735 24.568C59.7482 24.8933 59.5402 25.3547 59.4495 25.952H63.1615C63.1615 25.696 63.1268 25.456 63.0575 25.232C62.9882 25.0027 62.8815 24.8027 62.7375 24.632C62.5935 24.4613 62.4122 24.328 62.1935 24.232C61.9748 24.1307 61.7188 24.08 61.4255 24.08Z" fill="black"/>
<path d="M274.32 19.432V21.2H270.84V31H268.688V21.2H265.192V19.432H274.32ZM277.046 33.256C276.987 33.3947 276.91 33.4987 276.814 33.568C276.723 33.6427 276.582 33.68 276.39 33.68H274.918L276.454 30.392L273.134 22.792H274.862C275.022 22.792 275.145 22.8293 275.23 22.904C275.315 22.9787 275.379 23.064 275.422 23.16L277.174 27.416C277.233 27.5547 277.283 27.6987 277.326 27.848C277.369 27.9973 277.406 28.1467 277.438 28.296C277.481 28.1413 277.526 27.992 277.574 27.848C277.627 27.704 277.683 27.5573 277.742 27.408L279.39 23.16C279.433 23.0533 279.502 22.9653 279.598 22.896C279.699 22.8267 279.811 22.792 279.934 22.792H281.518L277.046 33.256ZM282.665 33.68V22.792H283.873C284.001 22.792 284.111 22.8213 284.201 22.88C284.292 22.9387 284.351 23.0293 284.377 23.152L284.537 23.912C284.868 23.5333 285.247 23.2267 285.673 22.992C286.105 22.7573 286.609 22.64 287.185 22.64C287.633 22.64 288.041 22.7333 288.409 22.92C288.783 23.1067 289.103 23.3787 289.369 23.736C289.641 24.088 289.849 24.5253 289.993 25.048C290.143 25.5653 290.217 26.16 290.217 26.832C290.217 27.4453 290.135 28.0133 289.969 28.536C289.804 29.0587 289.567 29.512 289.257 29.896C288.953 30.28 288.583 30.5813 288.145 30.8C287.713 31.0133 287.228 31.12 286.689 31.12C286.225 31.12 285.831 31.0507 285.505 30.912C285.185 30.768 284.897 30.5707 284.641 30.32V33.68H282.665ZM286.505 24.2C286.095 24.2 285.743 24.288 285.449 24.464C285.161 24.6347 284.892 24.8773 284.641 25.192V28.872C284.865 29.1493 285.108 29.344 285.369 29.456C285.636 29.5627 285.921 29.616 286.225 29.616C286.524 29.616 286.793 29.56 287.033 29.448C287.279 29.336 287.484 29.1653 287.649 28.936C287.82 28.7067 287.951 28.4187 288.041 28.072C288.132 27.72 288.177 27.3067 288.177 26.832C288.177 26.352 288.137 25.9467 288.057 25.616C287.983 25.28 287.873 25.008 287.729 24.8C287.585 24.592 287.409 24.44 287.201 24.344C286.999 24.248 286.767 24.2 286.505 24.2ZM295.104 22.664C295.622 22.664 296.096 22.7467 296.528 22.912C296.966 23.0773 297.342 23.32 297.656 23.64C297.971 23.9547 298.216 24.344 298.392 24.808C298.568 25.2667 298.656 25.792 298.656 26.384C298.656 26.5333 298.648 26.6587 298.632 26.76C298.622 26.856 298.598 26.9333 298.56 26.992C298.528 27.0453 298.483 27.0853 298.424 27.112C298.366 27.1333 298.291 27.144 298.2 27.144H293.128C293.187 27.9867 293.414 28.6053 293.808 29C294.203 29.3947 294.726 29.592 295.376 29.592C295.696 29.592 295.971 29.5547 296.2 29.48C296.435 29.4053 296.638 29.3227 296.808 29.232C296.984 29.1413 297.136 29.0587 297.264 28.984C297.398 28.9093 297.526 28.872 297.648 28.872C297.728 28.872 297.798 28.888 297.856 28.92C297.915 28.952 297.966 28.9973 298.008 29.056L298.584 29.776C298.366 30.032 298.12 30.248 297.848 30.424C297.576 30.5947 297.291 30.7333 296.992 30.84C296.699 30.9413 296.398 31.0133 296.088 31.056C295.784 31.0987 295.488 31.12 295.2 31.12C294.63 31.12 294.099 31.0267 293.608 30.84C293.118 30.648 292.691 30.368 292.328 30C291.966 29.6267 291.68 29.168 291.472 28.624C291.264 28.0747 291.16 27.44 291.16 26.72C291.16 26.16 291.251 25.6347 291.432 25.144C291.614 24.648 291.872 24.2187 292.208 23.856C292.55 23.488 292.963 23.1973 293.448 22.984C293.939 22.7707 294.491 22.664 295.104 22.664ZM295.144 24.08C294.568 24.08 294.118 24.2427 293.792 24.568C293.467 24.8933 293.259 25.3547 293.168 25.952H296.88C296.88 25.696 296.846 25.456 296.776 25.232C296.707 25.0027 296.6 24.8027 296.456 24.632C296.312 24.4613 296.131 24.328 295.912 24.232C295.694 24.1307 295.438 24.08 295.144 24.08Z" fill="black"/>
<path d="M473.384 21.536C473.325 21.6533 473.256 21.736 473.176 21.784C473.101 21.832 473.01 21.856 472.904 21.856C472.797 21.856 472.677 21.816 472.544 21.736C472.41 21.6507 472.253 21.5573 472.072 21.456C471.89 21.3547 471.677 21.264 471.432 21.184C471.192 21.0987 470.906 21.056 470.576 21.056C470.277 21.056 470.016 21.0933 469.792 21.168C469.573 21.2373 469.386 21.336 469.232 21.464C469.082 21.592 468.97 21.7467 468.896 21.928C468.821 22.104 468.784 22.2987 468.784 22.512C468.784 22.784 468.858 23.0107 469.008 23.192C469.162 23.3733 469.365 23.528 469.616 23.656C469.866 23.784 470.152 23.8987 470.472 24C470.792 24.1013 471.117 24.2107 471.448 24.328C471.784 24.44 472.112 24.5733 472.432 24.728C472.752 24.8773 473.037 25.0693 473.288 25.304C473.538 25.5333 473.738 25.816 473.888 26.152C474.042 26.488 474.12 26.896 474.12 27.376C474.12 27.8987 474.029 28.3893 473.848 28.848C473.672 29.3013 473.41 29.6987 473.064 30.04C472.722 30.376 472.304 30.6427 471.808 30.84C471.312 31.032 470.744 31.128 470.104 31.128C469.736 31.128 469.373 31.0907 469.016 31.016C468.658 30.9467 468.314 30.8453 467.984 30.712C467.658 30.5787 467.352 30.4187 467.064 30.232C466.781 30.0453 466.528 29.8373 466.304 29.608L466.928 28.576C466.986 28.5013 467.056 28.44 467.136 28.392C467.221 28.3387 467.314 28.312 467.416 28.312C467.549 28.312 467.693 28.368 467.848 28.48C468.002 28.5867 468.184 28.7067 468.392 28.84C468.605 28.9733 468.853 29.096 469.136 29.208C469.424 29.3147 469.768 29.368 470.168 29.368C470.781 29.368 471.256 29.224 471.592 28.936C471.928 28.6427 472.096 28.224 472.096 27.68C472.096 27.376 472.018 27.128 471.864 26.936C471.714 26.744 471.514 26.584 471.264 26.456C471.013 26.3227 470.728 26.2107 470.408 26.12C470.088 26.0293 469.762 25.9307 469.432 25.824C469.101 25.7173 468.776 25.5893 468.456 25.44C468.136 25.2907 467.85 25.096 467.6 24.856C467.349 24.616 467.146 24.3173 466.992 23.96C466.842 23.5973 466.768 23.152 466.768 22.624C466.768 22.2027 466.85 21.792 467.016 21.392C467.186 20.992 467.432 20.6373 467.752 20.328C468.077 20.0187 468.474 19.7707 468.944 19.584C469.413 19.3973 469.949 19.304 470.552 19.304C471.234 19.304 471.864 19.4107 472.44 19.624C473.016 19.8373 473.506 20.136 473.912 20.52L473.384 21.536ZM477.754 22.792V31H475.778V22.792H477.754ZM478.05 20.4C478.05 20.5707 478.015 20.7307 477.946 20.88C477.876 21.0293 477.783 21.16 477.666 21.272C477.554 21.384 477.42 21.4747 477.266 21.544C477.111 21.608 476.946 21.64 476.77 21.64C476.599 21.64 476.436 21.608 476.282 21.544C476.132 21.4747 476.002 21.384 475.89 21.272C475.778 21.16 475.687 21.0293 475.618 20.88C475.554 20.7307 475.522 20.5707 475.522 20.4C475.522 20.224 475.554 20.0587 475.618 19.904C475.687 19.7493 475.778 19.616 475.89 19.504C476.002 19.392 476.132 19.304 476.282 19.24C476.436 19.1707 476.599 19.136 476.77 19.136C476.946 19.136 477.111 19.1707 477.266 19.24C477.42 19.304 477.554 19.392 477.666 19.504C477.783 19.616 477.876 19.7493 477.946 19.904C478.015 20.0587 478.05 20.224 478.05 20.4ZM485.93 23.608C485.93 23.7467 485.903 23.8827 485.85 24.016C485.802 24.144 485.743 24.2533 485.674 24.344L481.77 29.48H485.818V31H479.474V30.176C479.474 30.0853 479.495 29.9787 479.538 29.856C479.58 29.728 479.647 29.608 479.738 29.496L483.674 24.304H479.706V22.792H485.93V23.608ZM490.901 22.664C491.418 22.664 491.893 22.7467 492.325 22.912C492.762 23.0773 493.138 23.32 493.453 23.64C493.768 23.9547 494.013 24.344 494.189 24.808C494.365 25.2667 494.453 25.792 494.453 26.384C494.453 26.5333 494.445 26.6587 494.429 26.76C494.418 26.856 494.394 26.9333 494.357 26.992C494.325 27.0453 494.28 27.0853 494.221 27.112C494.162 27.1333 494.088 27.144 493.997 27.144H488.925C488.984 27.9867 489.21 28.6053 489.605 29C490 29.3947 490.522 29.592 491.173 29.592C491.493 29.592 491.768 29.5547 491.997 29.48C492.232 29.4053 492.434 29.3227 492.605 29.232C492.781 29.1413 492.933 29.0587 493.061 28.984C493.194 28.9093 493.322 28.872 493.445 28.872C493.525 28.872 493.594 28.888 493.653 28.92C493.712 28.952 493.762 28.9973 493.805 29.056L494.381 29.776C494.162 30.032 493.917 30.248 493.645 30.424C493.373 30.5947 493.088 30.7333 492.789 30.84C492.496 30.9413 492.194 31.0133 491.885 31.056C491.581 31.0987 491.285 31.12 490.997 31.12C490.426 31.12 489.896 31.0267 489.405 30.84C488.914 30.648 488.488 30.368 488.125 30C487.762 29.6267 487.477 29.168 487.269 28.624C487.061 28.0747 486.957 27.44 486.957 26.72C486.957 26.16 487.048 25.6347 487.229 25.144C487.41 24.648 487.669 24.2187 488.005 23.856C488.346 23.488 488.76 23.1973 489.245 22.984C489.736 22.7707 490.288 22.664 490.901 22.664ZM490.941 24.08C490.365 24.08 489.914 24.2427 489.589 24.568C489.264 24.8933 489.056 25.3547 488.965 25.952H492.677C492.677 25.696 492.642 25.456 492.573 25.232C492.504 25.0027 492.397 24.8027 492.253 24.632C492.109 24.4613 491.928 24.328 491.709 24.232C491.49 24.1307 491.234 24.08 490.941 24.08Z" fill="black"/>
<path d="M26.232 131H24.68V119.536H26.232V131ZM29.0743 131V122.896H29.9223C30.1249 122.896 30.2529 122.995 30.3063 123.192L30.4103 124.024C30.7089 123.656 31.0423 123.355 31.4103 123.12C31.7836 122.885 32.2156 122.768 32.7063 122.768C33.2556 122.768 33.6983 122.92 34.0343 123.224C34.3756 123.528 34.6209 123.939 34.7703 124.456C34.8823 124.163 35.0289 123.909 35.2103 123.696C35.3969 123.483 35.6049 123.307 35.8343 123.168C36.0636 123.029 36.3063 122.928 36.5623 122.864C36.8236 122.8 37.0876 122.768 37.3543 122.768C37.7809 122.768 38.1596 122.837 38.4903 122.976C38.8263 123.109 39.1089 123.307 39.3383 123.568C39.5729 123.829 39.7516 124.152 39.8743 124.536C39.9969 124.915 40.0583 125.349 40.0583 125.84V131H38.6343V125.84C38.6343 125.205 38.4956 124.725 38.2183 124.4C37.9409 124.069 37.5383 123.904 37.0103 123.904C36.7756 123.904 36.5516 123.947 36.3383 124.032C36.1303 124.112 35.9463 124.232 35.7863 124.392C35.6263 124.552 35.4983 124.755 35.4023 125C35.3116 125.24 35.2663 125.52 35.2663 125.84V131H33.8423V125.84C33.8423 125.189 33.7116 124.704 33.4503 124.384C33.1889 124.064 32.8076 123.904 32.3063 123.904C31.9543 123.904 31.6263 124 31.3223 124.192C31.0236 124.379 30.7489 124.635 30.4983 124.96V131H29.0743ZM48.1669 131H47.5349C47.3962 131 47.2842 130.979 47.1989 130.936C47.1135 130.893 47.0575 130.803 47.0309 130.664L46.8709 129.912C46.6575 130.104 46.4495 130.277 46.2469 130.432C46.0442 130.581 45.8309 130.709 45.6069 130.816C45.3829 130.917 45.1429 130.995 44.8869 131.048C44.6362 131.101 44.3562 131.128 44.0469 131.128C43.7322 131.128 43.4362 131.085 43.1589 131C42.8869 130.909 42.6495 130.776 42.4469 130.6C42.2442 130.424 42.0815 130.203 41.9589 129.936C41.8415 129.664 41.7829 129.344 41.7829 128.976C41.7829 128.656 41.8709 128.349 42.0469 128.056C42.2229 127.757 42.5055 127.493 42.8949 127.264C43.2895 127.035 43.8042 126.848 44.4389 126.704C45.0735 126.555 45.8495 126.469 46.7669 126.448V125.816C46.7669 125.187 46.6309 124.712 46.3589 124.392C46.0922 124.067 45.6949 123.904 45.1669 123.904C44.8202 123.904 44.5269 123.949 44.2869 124.04C44.0522 124.125 43.8469 124.224 43.6709 124.336C43.5002 124.443 43.3509 124.541 43.2229 124.632C43.1002 124.717 42.9775 124.76 42.8549 124.76C42.7589 124.76 42.6735 124.736 42.5989 124.688C42.5295 124.635 42.4735 124.571 42.4309 124.496L42.1749 124.04C42.6229 123.608 43.1055 123.285 43.6229 123.072C44.1402 122.859 44.7135 122.752 45.3429 122.752C45.7962 122.752 46.1989 122.827 46.5509 122.976C46.9029 123.125 47.1989 123.333 47.4389 123.6C47.6789 123.867 47.8602 124.189 47.9829 124.568C48.1055 124.947 48.1669 125.363 48.1669 125.816V131ZM44.4709 130.128C44.7215 130.128 44.9509 130.104 45.1589 130.056C45.3669 130.003 45.5615 129.931 45.7429 129.84C45.9295 129.744 46.1055 129.629 46.2709 129.496C46.4415 129.363 46.6069 129.211 46.7669 129.04V127.352C46.1109 127.373 45.5535 127.427 45.0949 127.512C44.6362 127.592 44.2629 127.699 43.9749 127.832C43.6869 127.965 43.4762 128.123 43.3429 128.304C43.2149 128.485 43.1509 128.688 43.1509 128.912C43.1509 129.125 43.1855 129.309 43.2549 129.464C43.3242 129.619 43.4175 129.747 43.5349 129.848C43.6522 129.944 43.7909 130.016 43.9509 130.064C44.1109 130.107 44.2842 130.128 44.4709 130.128ZM53.0523 122.76C53.4043 122.76 53.7323 122.8 54.0363 122.88C54.3456 122.955 54.6256 123.067 54.8763 123.216H57.0763V123.744C57.0763 123.92 56.9643 124.032 56.7403 124.08L55.8203 124.208C56.0016 124.555 56.0923 124.941 56.0923 125.368C56.0923 125.763 56.0149 126.123 55.8603 126.448C55.7109 126.768 55.5003 127.043 55.2283 127.272C54.9616 127.501 54.6416 127.677 54.2683 127.8C53.9003 127.923 53.4949 127.984 53.0523 127.984C52.6736 127.984 52.3163 127.939 51.9803 127.848C51.8096 127.955 51.6789 128.069 51.5883 128.192C51.5029 128.315 51.4603 128.435 51.4603 128.552C51.4603 128.744 51.5376 128.891 51.6923 128.992C51.8469 129.088 52.0523 129.157 52.3083 129.2C52.5643 129.243 52.8549 129.269 53.1803 129.28C53.5056 129.291 53.8363 129.309 54.1723 129.336C54.5136 129.357 54.8469 129.397 55.1723 129.456C55.4976 129.515 55.7883 129.611 56.0443 129.744C56.3003 129.877 56.5056 130.061 56.6603 130.296C56.8149 130.531 56.8923 130.835 56.8923 131.208C56.8923 131.555 56.8043 131.891 56.6283 132.216C56.4576 132.541 56.2096 132.829 55.8843 133.08C55.5589 133.336 55.1616 133.539 54.6923 133.688C54.2229 133.843 53.6923 133.92 53.1003 133.92C52.5083 133.92 51.9883 133.861 51.5403 133.744C51.0976 133.627 50.7296 133.469 50.4363 133.272C50.1429 133.075 49.9216 132.845 49.7723 132.584C49.6283 132.328 49.5563 132.059 49.5563 131.776C49.5563 131.376 49.6816 131.037 49.9323 130.76C50.1883 130.477 50.5376 130.253 50.9803 130.088C50.7509 129.981 50.5669 129.84 50.4283 129.664C50.2949 129.483 50.2283 129.243 50.2283 128.944C50.2283 128.827 50.2496 128.707 50.2923 128.584C50.3349 128.456 50.3989 128.331 50.4843 128.208C50.5749 128.085 50.6843 127.968 50.8123 127.856C50.9403 127.744 51.0896 127.645 51.2603 127.56C50.8603 127.336 50.5456 127.04 50.3163 126.672C50.0923 126.299 49.9803 125.864 49.9803 125.368C49.9803 124.973 50.0549 124.616 50.2043 124.296C50.3589 123.971 50.5723 123.696 50.8443 123.472C51.1163 123.243 51.4389 123.067 51.8123 122.944C52.1909 122.821 52.6043 122.76 53.0523 122.76ZM55.5803 131.44C55.5803 131.237 55.5243 131.075 55.4123 130.952C55.3003 130.829 55.1483 130.736 54.9563 130.672C54.7643 130.603 54.5429 130.552 54.2923 130.52C54.0416 130.488 53.7776 130.467 53.5003 130.456C53.2229 130.44 52.9403 130.424 52.6523 130.408C52.3643 130.392 52.0896 130.363 51.8283 130.32C51.5243 130.464 51.2763 130.64 51.0843 130.848C50.8976 131.056 50.8043 131.304 50.8043 131.592C50.8043 131.773 50.8496 131.941 50.9403 132.096C51.0363 132.256 51.1803 132.392 51.3723 132.504C51.5643 132.621 51.8043 132.712 52.0923 132.776C52.3856 132.845 52.7296 132.88 53.1243 132.88C53.5083 132.88 53.8523 132.845 54.1562 132.776C54.4603 132.707 54.7163 132.608 54.9243 132.48C55.1376 132.352 55.3003 132.2 55.4123 132.024C55.5243 131.848 55.5803 131.653 55.5803 131.44ZM53.0523 127.04C53.3403 127.04 53.5936 127 53.8123 126.92C54.0363 126.84 54.2229 126.728 54.3723 126.584C54.5216 126.44 54.6336 126.269 54.7083 126.072C54.7829 125.869 54.8203 125.648 54.8203 125.408C54.8203 124.912 54.6683 124.517 54.3643 124.224C54.0656 123.931 53.6283 123.784 53.0523 123.784C52.4816 123.784 52.0443 123.931 51.7403 124.224C51.4416 124.517 51.2923 124.912 51.2923 125.408C51.2923 125.648 51.3296 125.869 51.4043 126.072C51.4843 126.269 51.5989 126.44 51.7483 126.584C51.8976 126.728 52.0816 126.84 52.3003 126.92C52.5189 127 52.7696 127.04 53.0523 127.04ZM61.7041 122.768C62.1895 122.768 62.6375 122.851 63.0481 123.016C63.4588 123.176 63.8135 123.411 64.1121 123.72C64.4108 124.024 64.6428 124.403 64.8081 124.856C64.9788 125.304 65.0641 125.816 65.0641 126.392C65.0641 126.616 65.0401 126.765 64.9921 126.84C64.9441 126.915 64.8535 126.952 64.7201 126.952H59.3281C59.3388 127.464 59.4081 127.909 59.5361 128.288C59.6641 128.667 59.8401 128.984 60.0641 129.24C60.2881 129.491 60.5548 129.68 60.8641 129.808C61.1735 129.931 61.5201 129.992 61.9041 129.992C62.2615 129.992 62.5681 129.952 62.8241 129.872C63.0855 129.787 63.3095 129.696 63.4961 129.6C63.6828 129.504 63.8375 129.416 63.9601 129.336C64.0881 129.251 64.1975 129.208 64.2881 129.208C64.4055 129.208 64.4961 129.253 64.5601 129.344L64.9601 129.864C64.7841 130.077 64.5735 130.264 64.3281 130.424C64.0828 130.579 63.8188 130.707 63.5361 130.808C63.2588 130.909 62.9708 130.984 62.6721 131.032C62.3735 131.085 62.0775 131.112 61.7841 131.112C61.2241 131.112 60.7068 131.019 60.2321 130.832C59.7628 130.64 59.3548 130.363 59.0081 130C58.6668 129.632 58.4001 129.179 58.2081 128.64C58.0161 128.101 57.9201 127.483 57.9201 126.784C57.9201 126.219 58.0055 125.691 58.1761 125.2C58.3521 124.709 58.6028 124.285 58.9281 123.928C59.2535 123.565 59.6508 123.283 60.1201 123.08C60.5895 122.872 61.1175 122.768 61.7041 122.768ZM61.7361 123.816C61.0481 123.816 60.5068 124.016 60.1121 124.416C59.7175 124.811 59.4721 125.36 59.3761 126.064H63.7841C63.7841 125.733 63.7388 125.432 63.6481 125.16C63.5575 124.883 63.4241 124.645 63.2481 124.448C63.0721 124.245 62.8561 124.091 62.6001 123.984C62.3495 123.872 62.0615 123.816 61.7361 123.816Z" fill="black"/>
<path d="M268.096 126.712V131H266.552V119.536H269.936C270.661 119.536 271.291 119.621 271.824 119.792C272.363 119.957 272.808 120.195 273.16 120.504C273.512 120.813 273.773 121.187 273.944 121.624C274.12 122.061 274.208 122.549 274.208 123.088C274.208 123.621 274.115 124.109 273.928 124.552C273.741 124.995 273.467 125.376 273.104 125.696C272.747 126.016 272.301 126.267 271.768 126.448C271.235 126.624 270.624 126.712 269.936 126.712H268.096ZM268.096 125.48H269.936C270.379 125.48 270.768 125.421 271.104 125.304C271.445 125.187 271.731 125.024 271.96 124.816C272.189 124.603 272.363 124.349 272.48 124.056C272.597 123.763 272.656 123.44 272.656 123.088C272.656 122.357 272.429 121.787 271.976 121.376C271.528 120.965 270.848 120.76 269.936 120.76H268.096V125.48ZM276.973 119.536C277.112 119.536 277.213 119.555 277.277 119.592C277.347 119.624 277.424 119.693 277.509 119.8L284.149 128.44C284.133 128.301 284.123 128.168 284.117 128.04C284.112 127.907 284.109 127.779 284.109 127.656V119.536H285.469V131H284.685C284.563 131 284.459 130.979 284.373 130.936C284.293 130.893 284.213 130.821 284.133 130.72L277.501 122.088C277.512 122.221 277.52 122.352 277.525 122.48C277.531 122.608 277.533 122.725 277.533 122.832V131H276.173V119.536H276.973ZM293.379 129.872C293.688 129.872 293.971 129.859 294.227 129.832C294.488 129.8 294.734 129.755 294.963 129.696C295.192 129.637 295.408 129.568 295.611 129.488C295.814 129.403 296.016 129.307 296.219 129.2V126.672H294.443C294.342 126.672 294.259 126.643 294.195 126.584C294.136 126.525 294.107 126.453 294.107 126.368V125.488H297.627V129.888C297.339 130.096 297.038 130.277 296.723 130.432C296.414 130.587 296.08 130.717 295.723 130.824C295.371 130.925 294.992 131 294.587 131.048C294.182 131.101 293.742 131.128 293.267 131.128C292.435 131.128 291.672 130.987 290.979 130.704C290.286 130.416 289.688 130.016 289.187 129.504C288.686 128.987 288.294 128.368 288.011 127.648C287.734 126.928 287.595 126.136 287.595 125.272C287.595 124.397 287.731 123.6 288.003 122.88C288.28 122.16 288.672 121.544 289.179 121.032C289.691 120.515 290.307 120.115 291.027 119.832C291.752 119.549 292.563 119.408 293.459 119.408C293.912 119.408 294.334 119.443 294.723 119.512C295.112 119.576 295.472 119.672 295.803 119.8C296.139 119.923 296.448 120.075 296.731 120.256C297.014 120.432 297.278 120.632 297.523 120.856L297.083 121.56C296.992 121.704 296.875 121.776 296.731 121.776C296.646 121.776 296.552 121.747 296.451 121.688C296.318 121.613 296.168 121.523 296.003 121.416C295.838 121.309 295.635 121.208 295.395 121.112C295.16 121.011 294.88 120.925 294.555 120.856C294.235 120.787 293.854 120.752 293.411 120.752C292.766 120.752 292.182 120.859 291.659 121.072C291.136 121.28 290.691 121.581 290.323 121.976C289.955 122.365 289.672 122.84 289.475 123.4C289.278 123.955 289.179 124.579 289.179 125.272C289.179 125.997 289.28 126.645 289.483 127.216C289.691 127.781 289.982 128.261 290.355 128.656C290.728 129.051 291.171 129.352 291.683 129.56C292.195 129.768 292.76 129.872 293.379 129.872Z" fill="black"/>
<path d="M459.58 126.296C459.148 126.296 458.737 126.224 458.348 126.08C457.964 125.936 457.625 125.725 457.332 125.448C457.038 125.165 456.804 124.821 456.628 124.416C456.457 124.005 456.372 123.536 456.372 123.008C456.372 122.507 456.465 122.037 456.652 121.6C456.838 121.163 457.1 120.781 457.436 120.456C457.772 120.131 458.172 119.875 458.636 119.688C459.1 119.501 459.609 119.408 460.164 119.408C460.713 119.408 461.212 119.499 461.66 119.68C462.108 119.861 462.492 120.115 462.812 120.44C463.132 120.765 463.377 121.155 463.548 121.608C463.724 122.061 463.812 122.563 463.812 123.112C463.812 123.443 463.78 123.757 463.716 124.056C463.657 124.349 463.569 124.637 463.451 124.92C463.334 125.203 463.193 125.485 463.028 125.768C462.868 126.045 462.684 126.333 462.476 126.632L459.684 130.664C459.614 130.765 459.516 130.848 459.388 130.912C459.26 130.971 459.113 131 458.948 131H457.636L461.124 126.432C461.241 126.277 461.35 126.131 461.452 125.992C461.553 125.853 461.649 125.715 461.74 125.576C461.446 125.811 461.116 125.989 460.748 126.112C460.38 126.235 459.99 126.296 459.58 126.296ZM462.444 122.944C462.444 122.587 462.385 122.264 462.268 121.976C462.156 121.683 461.998 121.435 461.796 121.232C461.593 121.029 461.35 120.875 461.068 120.768C460.79 120.656 460.484 120.6 460.148 120.6C459.796 120.6 459.473 120.659 459.18 120.776C458.892 120.888 458.644 121.045 458.436 121.248C458.233 121.451 458.076 121.693 457.964 121.976C457.852 122.259 457.796 122.568 457.796 122.904C457.796 123.267 457.846 123.592 457.948 123.88C458.054 124.163 458.204 124.403 458.396 124.6C458.593 124.797 458.83 124.947 459.108 125.048C459.39 125.149 459.705 125.2 460.052 125.2C460.436 125.2 460.774 125.139 461.068 125.016C461.366 124.888 461.617 124.72 461.82 124.512C462.022 124.304 462.177 124.064 462.284 123.792C462.39 123.52 462.444 123.237 462.444 122.944ZM473.269 125.272C473.269 126.275 473.159 127.144 472.941 127.88C472.727 128.611 472.434 129.216 472.061 129.696C471.687 130.176 471.245 130.533 470.733 130.768C470.226 131.003 469.682 131.12 469.101 131.12C468.514 131.12 467.967 131.003 467.461 130.768C466.959 130.533 466.522 130.176 466.149 129.696C465.775 129.216 465.482 128.611 465.269 127.88C465.055 127.144 464.949 126.275 464.949 125.272C464.949 124.269 465.055 123.4 465.269 122.664C465.482 121.928 465.775 121.32 466.149 120.84C466.522 120.355 466.959 119.995 467.461 119.76C467.967 119.525 468.514 119.408 469.101 119.408C469.682 119.408 470.226 119.525 470.733 119.76C471.245 119.995 471.687 120.355 472.061 120.84C472.434 121.32 472.727 121.928 472.941 122.664C473.159 123.4 473.269 124.269 473.269 125.272ZM471.789 125.272C471.789 124.397 471.714 123.664 471.565 123.072C471.421 122.475 471.223 121.995 470.973 121.632C470.727 121.269 470.442 121.011 470.117 120.856C469.791 120.696 469.453 120.616 469.101 120.616C468.749 120.616 468.41 120.696 468.085 120.856C467.759 121.011 467.474 121.269 467.229 121.632C466.983 121.995 466.786 122.475 466.637 123.072C466.493 123.664 466.421 124.397 466.421 125.272C466.421 126.147 466.493 126.88 466.637 127.472C466.786 128.064 466.983 128.541 467.229 128.904C467.474 129.267 467.759 129.528 468.085 129.688C468.41 129.843 468.749 129.92 469.101 129.92C469.453 129.92 469.791 129.843 470.117 129.688C470.442 129.528 470.727 129.267 470.973 128.904C471.223 128.541 471.421 128.064 471.565 127.472C471.714 126.88 471.789 126.147 471.789 125.272ZM476.846 124.56H477.43C477.633 124.56 477.793 124.536 477.91 124.488C478.033 124.435 478.147 124.347 478.254 124.224L482.07 119.904C482.187 119.771 482.299 119.677 482.406 119.624C482.518 119.565 482.659 119.536 482.83 119.536H484.15L479.782 124.472C479.67 124.595 479.563 124.699 479.462 124.784C479.366 124.869 479.262 124.939 479.15 124.992C479.299 125.04 479.43 125.112 479.542 125.208C479.654 125.304 479.771 125.424 479.894 125.568L484.454 131H483.11C483.009 131 482.923 130.992 482.854 130.976C482.785 130.96 482.723 130.939 482.67 130.912C482.622 130.885 482.577 130.851 482.534 130.808C482.491 130.765 482.449 130.72 482.406 130.672L478.446 126.12C478.387 126.056 478.331 126.003 478.278 125.96C478.23 125.912 478.171 125.872 478.102 125.84C478.038 125.808 477.961 125.787 477.87 125.776C477.785 125.76 477.678 125.752 477.55 125.752H476.846V131H475.302V119.536H476.846V124.56ZM486.033 131V119.536H489.689C490.393 119.536 490.998 119.605 491.505 119.744C492.017 119.883 492.435 120.08 492.761 120.336C493.091 120.592 493.334 120.907 493.489 121.28C493.649 121.648 493.729 122.064 493.729 122.528C493.729 122.811 493.683 123.083 493.593 123.344C493.507 123.605 493.374 123.848 493.193 124.072C493.017 124.296 492.793 124.496 492.521 124.672C492.254 124.848 491.939 124.992 491.577 125.104C492.414 125.269 493.046 125.571 493.473 126.008C493.899 126.445 494.113 127.021 494.113 127.736C494.113 128.221 494.022 128.664 493.841 129.064C493.665 129.464 493.403 129.808 493.057 130.096C492.715 130.384 492.294 130.608 491.793 130.768C491.297 130.923 490.729 131 490.089 131H486.033ZM487.585 125.776V129.768H490.065C490.507 129.768 490.886 129.717 491.201 129.616C491.521 129.515 491.782 129.373 491.985 129.192C492.193 129.005 492.345 128.787 492.441 128.536C492.537 128.28 492.585 128 492.585 127.696C492.585 127.104 492.374 126.637 491.953 126.296C491.537 125.949 490.905 125.776 490.057 125.776H487.585ZM487.585 124.672H489.633C490.07 124.672 490.449 124.624 490.769 124.528C491.089 124.432 491.353 124.299 491.561 124.128C491.774 123.957 491.931 123.752 492.033 123.512C492.134 123.267 492.185 123 492.185 122.712C492.185 122.04 491.982 121.547 491.577 121.232C491.171 120.917 490.542 120.76 489.689 120.76H487.585V124.672Z" fill="black"/>
<rect y="150" width="604" height="50" fill="#F8F8F8"/>
<path d="M25.944 179.696H30.904V181H24.392V169.536H25.944V179.696ZM35.3855 172.768C35.9775 172.768 36.5108 172.867 36.9855 173.064C37.4655 173.261 37.8708 173.541 38.2015 173.904C38.5375 174.267 38.7935 174.707 38.9695 175.224C39.1508 175.736 39.2415 176.309 39.2415 176.944C39.2415 177.584 39.1508 178.16 38.9695 178.672C38.7935 179.184 38.5375 179.621 38.2015 179.984C37.8708 180.347 37.4655 180.627 36.9855 180.824C36.5108 181.016 35.9775 181.112 35.3855 181.112C34.7935 181.112 34.2575 181.016 33.7775 180.824C33.3028 180.627 32.8975 180.347 32.5615 179.984C32.2255 179.621 31.9668 179.184 31.7855 178.672C31.6042 178.16 31.5135 177.584 31.5135 176.944C31.5135 176.309 31.6042 175.736 31.7855 175.224C31.9668 174.707 32.2255 174.267 32.5615 173.904C32.8975 173.541 33.3028 173.261 33.7775 173.064C34.2575 172.867 34.7935 172.768 35.3855 172.768ZM35.3855 180C36.1855 180 36.7828 179.733 37.1775 179.2C37.5722 178.661 37.7695 177.912 37.7695 176.952C37.7695 175.987 37.5722 175.235 37.1775 174.696C36.7828 174.157 36.1855 173.888 35.3855 173.888C34.9802 173.888 34.6282 173.957 34.3295 174.096C34.0308 174.235 33.7802 174.435 33.5775 174.696C33.3802 174.957 33.2308 175.28 33.1295 175.664C33.0335 176.043 32.9855 176.472 32.9855 176.952C32.9855 177.432 33.0335 177.861 33.1295 178.24C33.2308 178.619 33.3802 178.939 33.5775 179.2C33.7802 179.456 34.0308 179.653 34.3295 179.792C34.6282 179.931 34.9802 180 35.3855 180ZM40.9961 181V172.896H41.8121C41.9668 172.896 42.0735 172.925 42.1321 172.984C42.1908 173.043 42.2308 173.144 42.2521 173.288L42.3481 174.552C42.6255 173.987 42.9668 173.547 43.3721 173.232C43.7828 172.912 44.2628 172.752 44.8121 172.752C45.0361 172.752 45.2388 172.779 45.4201 172.832C45.6015 172.88 45.7695 172.949 45.9241 173.04L45.7401 174.104C45.7028 174.237 45.6201 174.304 45.4921 174.304C45.4175 174.304 45.3028 174.28 45.1481 174.232C44.9935 174.179 44.7775 174.152 44.5001 174.152C44.0041 174.152 43.5881 174.296 43.2521 174.584C42.9215 174.872 42.6441 175.291 42.4201 175.84V181H40.9961ZM50.6573 172.768C51.1426 172.768 51.5906 172.851 52.0013 173.016C52.4119 173.176 52.7666 173.411 53.0653 173.72C53.3639 174.024 53.5959 174.403 53.7613 174.856C53.9319 175.304 54.0173 175.816 54.0173 176.392C54.0173 176.616 53.9933 176.765 53.9453 176.84C53.8973 176.915 53.8066 176.952 53.6733 176.952H48.2812C48.2919 177.464 48.3613 177.909 48.4893 178.288C48.6173 178.667 48.7933 178.984 49.0173 179.24C49.2413 179.491 49.5079 179.68 49.8173 179.808C50.1266 179.931 50.4733 179.992 50.8573 179.992C51.2146 179.992 51.5213 179.952 51.7773 179.872C52.0386 179.787 52.2626 179.696 52.4493 179.6C52.6359 179.504 52.7906 179.416 52.9133 179.336C53.0413 179.251 53.1506 179.208 53.2413 179.208C53.3586 179.208 53.4493 179.253 53.5133 179.344L53.9133 179.864C53.7373 180.077 53.5266 180.264 53.2813 180.424C53.0359 180.579 52.7719 180.707 52.4893 180.808C52.2119 180.909 51.9239 180.984 51.6253 181.032C51.3266 181.085 51.0306 181.112 50.7373 181.112C50.1773 181.112 49.6599 181.019 49.1853 180.832C48.7159 180.64 48.3079 180.363 47.9613 180C47.6199 179.632 47.3533 179.179 47.1613 178.64C46.9693 178.101 46.8733 177.483 46.8733 176.784C46.8733 176.219 46.9586 175.691 47.1293 175.2C47.3053 174.709 47.5559 174.285 47.8813 173.928C48.2066 173.565 48.6039 173.283 49.0733 173.08C49.5426 172.872 50.0706 172.768 50.6573 172.768ZM50.6892 173.816C50.0013 173.816 49.4599 174.016 49.0653 174.416C48.6706 174.811 48.4253 175.36 48.3293 176.064H52.7373C52.7373 175.733 52.6919 175.432 52.6013 175.16C52.5106 174.883 52.3773 174.645 52.2013 174.448C52.0253 174.245 51.8093 174.091 51.5533 173.984C51.3026 173.872 51.0146 173.816 50.6892 173.816ZM55.8399 181V172.896H56.6879C56.8905 172.896 57.0185 172.995 57.0719 173.192L57.1759 174.024C57.4745 173.656 57.8079 173.355 58.1759 173.12C58.5492 172.885 58.9812 172.768 59.4719 172.768C60.0212 172.768 60.4639 172.92 60.7999 173.224C61.1412 173.528 61.3865 173.939 61.5359 174.456C61.6479 174.163 61.7945 173.909 61.9759 173.696C62.1625 173.483 62.3705 173.307 62.5999 173.168C62.8292 173.029 63.0719 172.928 63.3279 172.864C63.5892 172.8 63.8532 172.768 64.1199 172.768C64.5465 172.768 64.9252 172.837 65.2559 172.976C65.5919 173.109 65.8745 173.307 66.1039 173.568C66.3385 173.829 66.5172 174.152 66.6399 174.536C66.7625 174.915 66.8239 175.349 66.8239 175.84V181H65.3999V175.84C65.3999 175.205 65.2612 174.725 64.9839 174.4C64.7065 174.069 64.3039 173.904 63.7759 173.904C63.5412 173.904 63.3172 173.947 63.1039 174.032C62.8959 174.112 62.7119 174.232 62.5519 174.392C62.3919 174.552 62.2639 174.755 62.1679 175C62.0772 175.24 62.0319 175.52 62.0319 175.84V181H60.6079V175.84C60.6079 175.189 60.4772 174.704 60.2159 174.384C59.9545 174.064 59.5732 173.904 59.0719 173.904C58.7199 173.904 58.3919 174 58.0879 174.192C57.7892 174.379 57.5145 174.635 57.2639 174.96V181H55.8399ZM74.1165 182.32V183.28H67.8125V182.32H74.1165ZM76.8614 172.896V181H75.4374V172.896H76.8614ZM77.1814 170.352C77.1814 170.491 77.152 170.621 77.0934 170.744C77.04 170.861 76.9654 170.968 76.8694 171.064C76.7787 171.155 76.672 171.227 76.5494 171.28C76.4267 171.333 76.296 171.36 76.1574 171.36C76.0187 171.36 75.888 171.333 75.7654 171.28C75.648 171.227 75.5414 171.155 75.4454 171.064C75.3547 170.968 75.2827 170.861 75.2294 170.744C75.176 170.621 75.1494 170.491 75.1494 170.352C75.1494 170.213 75.176 170.083 75.2294 169.96C75.2827 169.832 75.3547 169.723 75.4454 169.632C75.5414 169.536 75.648 169.461 75.7654 169.408C75.888 169.355 76.0187 169.328 76.1574 169.328C76.296 169.328 76.4267 169.355 76.5494 169.408C76.672 169.461 76.7787 169.536 76.8694 169.632C76.9654 169.723 77.04 169.832 77.0934 169.96C77.152 170.083 77.1814 170.213 77.1814 170.352ZM79.3711 183.744V172.896H80.2191C80.4218 172.896 80.5498 172.995 80.6031 173.192L80.7231 174.152C81.0698 173.731 81.4645 173.392 81.9071 173.136C82.3551 172.88 82.8698 172.752 83.4511 172.752C83.9151 172.752 84.3365 172.843 84.7151 173.024C85.0938 173.2 85.4165 173.464 85.6831 173.816C85.9498 174.163 86.1551 174.595 86.2991 175.112C86.4431 175.629 86.5151 176.224 86.5151 176.896C86.5151 177.493 86.4351 178.051 86.2751 178.568C86.1151 179.08 85.8858 179.525 85.5871 179.904C85.2885 180.277 84.9205 180.573 84.4831 180.792C84.0511 181.005 83.5631 181.112 83.0191 181.112C82.5178 181.112 82.0885 181.029 81.7311 180.864C81.3791 180.699 81.0671 180.464 80.7951 180.16V183.744H79.3711ZM82.9791 173.904C82.5151 173.904 82.1071 174.011 81.7551 174.224C81.4085 174.437 81.0885 174.739 80.7951 175.128V179.048C81.0565 179.4 81.3418 179.648 81.6511 179.792C81.9658 179.936 82.3151 180.008 82.6991 180.008C83.4511 180.008 84.0298 179.739 84.4351 179.2C84.8405 178.661 85.0431 177.893 85.0431 176.896C85.0431 176.368 84.9951 175.915 84.8991 175.536C84.8085 175.157 84.6751 174.848 84.4991 174.608C84.3231 174.363 84.1071 174.184 83.8511 174.072C83.5951 173.96 83.3045 173.904 82.9791 173.904ZM92.8393 174.232C92.7753 174.349 92.6766 174.408 92.5433 174.408C92.4633 174.408 92.3726 174.379 92.2713 174.32C92.1699 174.261 92.0446 174.197 91.8953 174.128C91.7513 174.053 91.5779 173.987 91.3753 173.928C91.1726 173.864 90.9326 173.832 90.6553 173.832C90.4153 173.832 90.1993 173.864 90.0073 173.928C89.8153 173.987 89.6499 174.069 89.5113 174.176C89.3779 174.283 89.2739 174.408 89.1993 174.552C89.1299 174.691 89.0953 174.843 89.0953 175.008C89.0953 175.216 89.1539 175.389 89.2713 175.528C89.3939 175.667 89.5539 175.787 89.7513 175.888C89.9486 175.989 90.1726 176.08 90.4233 176.16C90.6739 176.235 90.9299 176.317 91.1913 176.408C91.4579 176.493 91.7166 176.589 91.9673 176.696C92.2179 176.803 92.4419 176.936 92.6393 177.096C92.8366 177.256 92.9939 177.453 93.1113 177.688C93.2339 177.917 93.2953 178.195 93.2953 178.52C93.2953 178.893 93.2286 179.24 93.0953 179.56C92.9619 179.875 92.7646 180.149 92.5033 180.384C92.2419 180.613 91.9219 180.795 91.5433 180.928C91.1646 181.061 90.7273 181.128 90.2313 181.128C89.6659 181.128 89.1539 181.037 88.6953 180.856C88.2366 180.669 87.8473 180.432 87.5273 180.144L87.8633 179.6C87.9059 179.531 87.9566 179.477 88.0153 179.44C88.0739 179.403 88.1513 179.384 88.2473 179.384C88.3433 179.384 88.4446 179.421 88.5513 179.496C88.6579 179.571 88.7859 179.653 88.9353 179.744C89.0899 179.835 89.2739 179.917 89.4873 179.992C89.7059 180.067 89.9779 180.104 90.3033 180.104C90.5806 180.104 90.8233 180.069 91.0312 180C91.2393 179.925 91.4126 179.827 91.5512 179.704C91.6899 179.581 91.7913 179.44 91.8553 179.28C91.9246 179.12 91.9593 178.949 91.9593 178.768C91.9593 178.544 91.8979 178.36 91.7753 178.216C91.6579 178.067 91.5006 177.941 91.3033 177.84C91.1059 177.733 90.8793 177.643 90.6233 177.568C90.3726 177.488 90.1139 177.405 89.8473 177.32C89.5859 177.235 89.3273 177.139 89.0713 177.032C88.8206 176.92 88.5966 176.781 88.3993 176.616C88.2019 176.451 88.0419 176.248 87.9193 176.008C87.8019 175.763 87.7433 175.467 87.7433 175.12C87.7433 174.811 87.8073 174.515 87.9353 174.232C88.0633 173.944 88.2499 173.693 88.4953 173.48C88.7406 173.261 89.0419 173.088 89.3993 172.96C89.7566 172.832 90.1646 172.768 90.6233 172.768C91.1566 172.768 91.6339 172.853 92.0553 173.024C92.4819 173.189 92.8499 173.419 93.1593 173.712L92.8393 174.232ZM96.3688 172.896V178.064C96.3688 178.677 96.5101 179.152 96.7928 179.488C97.0754 179.824 97.5021 179.992 98.0728 179.992C98.4888 179.992 98.8808 179.893 99.2488 179.696C99.6168 179.499 99.9554 179.224 100.265 178.872V172.896H101.689V181H100.841C100.638 181 100.51 180.901 100.457 180.704L100.345 179.832C99.9928 180.221 99.5981 180.536 99.1608 180.776C98.7234 181.011 98.2221 181.128 97.6568 181.128C97.2141 181.128 96.8221 181.056 96.4808 180.912C96.1448 180.763 95.8621 180.555 95.6328 180.288C95.4034 180.021 95.2301 179.699 95.1128 179.32C95.0008 178.941 94.9448 178.523 94.9448 178.064V172.896H96.3688ZM104.027 181V172.896H104.875C105.078 172.896 105.206 172.995 105.259 173.192L105.363 174.024C105.662 173.656 105.995 173.355 106.363 173.12C106.737 172.885 107.169 172.768 107.659 172.768C108.209 172.768 108.651 172.92 108.987 173.224C109.329 173.528 109.574 173.939 109.723 174.456C109.835 174.163 109.982 173.909 110.163 173.696C110.35 173.483 110.558 173.307 110.787 173.168C111.017 173.029 111.259 172.928 111.515 172.864C111.777 172.8 112.041 172.768 112.307 172.768C112.734 172.768 113.113 172.837 113.443 172.976C113.779 173.109 114.062 173.307 114.291 173.568C114.526 173.829 114.705 174.152 114.827 174.536C114.95 174.915 115.011 175.349 115.011 175.84V181H113.587V175.84C113.587 175.205 113.449 174.725 113.171 174.4C112.894 174.069 112.491 173.904 111.963 173.904C111.729 173.904 111.505 173.947 111.291 174.032C111.083 174.112 110.899 174.232 110.739 174.392C110.579 174.552 110.451 174.755 110.355 175C110.265 175.24 110.219 175.52 110.219 175.84V181H108.795V175.84C108.795 175.189 108.665 174.704 108.403 174.384C108.142 174.064 107.761 173.904 107.259 173.904C106.907 173.904 106.579 174 106.275 174.192C105.977 174.379 105.702 174.635 105.451 174.96V181H104.027Z" fill="black"/>
<path d="M268.096 176.712V181H266.552V169.536H269.936C270.661 169.536 271.291 169.621 271.824 169.792C272.363 169.957 272.808 170.195 273.16 170.504C273.512 170.813 273.773 171.187 273.944 171.624C274.12 172.061 274.208 172.549 274.208 173.088C274.208 173.621 274.115 174.109 273.928 174.552C273.741 174.995 273.467 175.376 273.104 175.696C272.747 176.016 272.301 176.267 271.768 176.448C271.235 176.624 270.624 176.712 269.936 176.712H268.096ZM268.096 175.48H269.936C270.379 175.48 270.768 175.421 271.104 175.304C271.445 175.187 271.731 175.024 271.96 174.816C272.189 174.603 272.363 174.349 272.48 174.056C272.597 173.763 272.656 173.44 272.656 173.088C272.656 172.357 272.429 171.787 271.976 171.376C271.528 170.965 270.848 170.76 269.936 170.76H268.096V175.48ZM286.109 175.272C286.109 176.131 285.973 176.912 285.701 177.616C285.429 178.32 285.045 178.923 284.549 179.424C284.053 179.925 283.459 180.315 282.765 180.592C282.072 180.864 281.304 181 280.461 181H276.173V169.536H280.461C281.304 169.536 282.072 169.675 282.765 169.952C283.459 170.224 284.053 170.613 284.549 171.12C285.045 171.621 285.429 172.224 285.701 172.928C285.973 173.632 286.109 174.413 286.109 175.272ZM284.517 175.272C284.517 174.568 284.421 173.939 284.229 173.384C284.037 172.829 283.765 172.36 283.413 171.976C283.061 171.592 282.635 171.299 282.133 171.096C281.632 170.893 281.075 170.792 280.461 170.792H277.733V179.744H280.461C281.075 179.744 281.632 179.643 282.133 179.44C282.635 179.237 283.061 178.947 283.413 178.568C283.765 178.184 284.037 177.715 284.229 177.16C284.421 176.605 284.517 175.976 284.517 175.272ZM295.284 169.536V170.8H289.78V174.808H294.484V176.072H289.78V181H288.22V169.536H295.284Z" fill="black"/>
<path d="M448.202 179.912H450.666V172.096C450.666 171.861 450.674 171.624 450.69 171.384L448.642 173.136C448.589 173.179 448.536 173.211 448.482 173.232C448.429 173.248 448.378 173.256 448.33 173.256C448.25 173.256 448.178 173.24 448.114 173.208C448.05 173.171 448.002 173.128 447.97 173.08L447.522 172.464L450.93 169.512H452.09V179.912H454.346V181H448.202V179.912ZM459.996 169.408C460.481 169.408 460.934 169.48 461.356 169.624C461.777 169.768 462.14 169.979 462.444 170.256C462.753 170.528 462.996 170.861 463.172 171.256C463.348 171.651 463.436 172.099 463.436 172.6C463.436 173.027 463.372 173.421 463.244 173.784C463.116 174.147 462.942 174.496 462.724 174.832C462.505 175.163 462.252 175.485 461.964 175.8C461.681 176.109 461.38 176.427 461.06 176.752L458.044 179.84C458.257 179.781 458.473 179.736 458.692 179.704C458.91 179.667 459.121 179.648 459.324 179.648H463.164C463.318 179.648 463.441 179.693 463.532 179.784C463.622 179.875 463.668 179.992 463.668 180.136V181H456.02V180.512C456.02 180.411 456.038 180.307 456.076 180.2C456.118 180.093 456.185 179.995 456.276 179.904L459.948 176.216C460.252 175.907 460.529 175.611 460.78 175.328C461.03 175.04 461.244 174.752 461.42 174.464C461.601 174.176 461.74 173.885 461.836 173.592C461.932 173.293 461.98 172.976 461.98 172.64C461.98 172.304 461.926 172.011 461.82 171.76C461.713 171.504 461.566 171.293 461.38 171.128C461.193 170.963 460.974 170.84 460.724 170.76C460.473 170.675 460.204 170.632 459.916 170.632C459.628 170.632 459.361 170.675 459.116 170.76C458.87 170.845 458.652 170.965 458.46 171.12C458.273 171.269 458.113 171.448 457.98 171.656C457.852 171.864 457.761 172.093 457.708 172.344C457.665 172.499 457.601 172.611 457.516 172.68C457.43 172.749 457.318 172.784 457.18 172.784C457.153 172.784 457.124 172.784 457.092 172.784C457.065 172.779 457.033 172.773 456.996 172.768L456.252 172.64C456.326 172.117 456.47 171.656 456.684 171.256C456.897 170.851 457.166 170.512 457.492 170.24C457.822 169.968 458.198 169.763 458.62 169.624C459.046 169.48 459.505 169.408 459.996 169.408ZM473.269 175.272C473.269 176.275 473.159 177.144 472.941 177.88C472.727 178.611 472.434 179.216 472.061 179.696C471.687 180.176 471.245 180.533 470.733 180.768C470.226 181.003 469.682 181.12 469.101 181.12C468.514 181.12 467.967 181.003 467.461 180.768C466.959 180.533 466.522 180.176 466.149 179.696C465.775 179.216 465.482 178.611 465.269 177.88C465.055 177.144 464.949 176.275 464.949 175.272C464.949 174.269 465.055 173.4 465.269 172.664C465.482 171.928 465.775 171.32 466.149 170.84C466.522 170.355 466.959 169.995 467.461 169.76C467.967 169.525 468.514 169.408 469.101 169.408C469.682 169.408 470.226 169.525 470.733 169.76C471.245 169.995 471.687 170.355 472.061 170.84C472.434 171.32 472.727 171.928 472.941 172.664C473.159 173.4 473.269 174.269 473.269 175.272ZM471.789 175.272C471.789 174.397 471.714 173.664 471.565 173.072C471.421 172.475 471.223 171.995 470.973 171.632C470.727 171.269 470.442 171.011 470.117 170.856C469.791 170.696 469.453 170.616 469.101 170.616C468.749 170.616 468.41 170.696 468.085 170.856C467.759 171.011 467.474 171.269 467.229 171.632C466.983 171.995 466.786 172.475 466.637 173.072C466.493 173.664 466.421 174.397 466.421 175.272C466.421 176.147 466.493 176.88 466.637 177.472C466.786 178.064 466.983 178.541 467.229 178.904C467.474 179.267 467.759 179.528 468.085 179.688C468.41 179.843 468.749 179.92 469.101 179.92C469.453 179.92 469.791 179.843 470.117 179.688C470.442 179.528 470.727 179.267 470.973 178.904C471.223 178.541 471.421 178.064 471.565 177.472C471.714 176.88 471.789 176.147 471.789 175.272ZM476.846 174.56H477.43C477.633 174.56 477.793 174.536 477.91 174.488C478.033 174.435 478.147 174.347 478.254 174.224L482.07 169.904C482.187 169.771 482.299 169.677 482.406 169.624C482.518 169.565 482.659 169.536 482.83 169.536H484.15L479.782 174.472C479.67 174.595 479.563 174.699 479.462 174.784C479.366 174.869 479.262 174.939 479.15 174.992C479.299 175.04 479.43 175.112 479.542 175.208C479.654 175.304 479.771 175.424 479.894 175.568L484.454 181H483.11C483.009 181 482.923 180.992 482.854 180.976C482.785 180.96 482.723 180.939 482.67 180.912C482.622 180.885 482.577 180.851 482.534 180.808C482.491 180.765 482.449 180.72 482.406 180.672L478.446 176.12C478.387 176.056 478.331 176.003 478.278 175.96C478.23 175.912 478.171 175.872 478.102 175.84C478.038 175.808 477.961 175.787 477.87 175.776C477.785 175.76 477.678 175.752 477.55 175.752H476.846V181H475.302V169.536H476.846V174.56ZM486.033 181V169.536H489.689C490.393 169.536 490.998 169.605 491.505 169.744C492.017 169.883 492.435 170.08 492.761 170.336C493.091 170.592 493.334 170.907 493.489 171.28C493.649 171.648 493.729 172.064 493.729 172.528C493.729 172.811 493.683 173.083 493.593 173.344C493.507 173.605 493.374 173.848 493.193 174.072C493.017 174.296 492.793 174.496 492.521 174.672C492.254 174.848 491.939 174.992 491.577 175.104C492.414 175.269 493.046 175.571 493.473 176.008C493.899 176.445 494.113 177.021 494.113 177.736C494.113 178.221 494.022 178.664 493.841 179.064C493.665 179.464 493.403 179.808 493.057 180.096C492.715 180.384 492.294 180.608 491.793 180.768C491.297 180.923 490.729 181 490.089 181H486.033ZM487.585 175.776V179.768H490.065C490.507 179.768 490.886 179.717 491.201 179.616C491.521 179.515 491.782 179.373 491.985 179.192C492.193 179.005 492.345 178.787 492.441 178.536C492.537 178.28 492.585 178 492.585 177.696C492.585 177.104 492.374 176.637 491.953 176.296C491.537 175.949 490.905 175.776 490.057 175.776H487.585ZM487.585 174.672H489.633C490.07 174.672 490.449 174.624 490.769 174.528C491.089 174.432 491.353 174.299 491.561 174.128C491.774 173.957 491.931 173.752 492.033 173.512C492.134 173.267 492.185 173 492.185 172.712C492.185 172.04 491.982 171.547 491.577 171.232C491.171 170.917 490.542 170.76 489.689 170.76H487.585V174.672Z" fill="black"/>
<line y1="49" x2="604" y2="49" stroke="#DFE2E6" stroke-width="2"/>
<line y1="99.5" x2="604" y2="99.5" stroke="#DFE2E6"/>
<line y1="149.5" x2="604" y2="149.5" stroke="#DFE2E6"/>
</svg>
