<svg width="195" height="54" viewBox="0 0 195 54" fill="none" xmlns="http://www.w3.org/2000/svg">
<path d="M7.264 6.328C7.216 6.408 7.16533 6.46933 7.112 6.512C7.05867 6.54933 6.98933 6.568 6.904 6.568C6.81333 6.568 6.70667 6.52267 6.584 6.432C6.46667 6.34133 6.31467 6.24267 6.128 6.136C5.94667 6.024 5.72533 5.92267 5.464 5.832C5.208 5.74133 4.896 5.696 4.528 5.696C4.18133 5.696 3.87467 5.744 3.608 5.84C3.34133 5.93067 3.11733 6.056 2.936 6.216C2.76 6.376 2.62667 6.56533 2.536 6.784C2.44533 6.99733 2.4 7.22933 2.4 7.48C2.4 7.8 2.47733 8.06667 2.632 8.28C2.792 8.488 3 8.66667 3.256 8.816C3.51733 8.96533 3.81067 9.096 4.136 9.208C4.46667 9.31467 4.80267 9.42667 5.144 9.544C5.49067 9.66133 5.82667 9.79467 6.152 9.944C6.48267 10.088 6.776 10.272 7.032 10.496C7.29333 10.72 7.50133 10.9947 7.656 11.32C7.816 11.6453 7.896 12.0453 7.896 12.52C7.896 13.0213 7.81067 13.4933 7.64 13.936C7.46933 14.3733 7.21867 14.7547 6.888 15.08C6.56267 15.4053 6.16 15.6613 5.68 15.848C5.20533 16.0347 4.664 16.128 4.056 16.128C3.31467 16.128 2.63733 15.9947 2.024 15.728C1.416 15.456 0.896 15.0907 0.464 14.632L0.912 13.896C0.954667 13.8373 1.00533 13.7893 1.064 13.752C1.128 13.7093 1.19733 13.688 1.272 13.688C1.384 13.688 1.512 13.7493 1.656 13.872C1.8 13.9893 1.97867 14.12 2.192 14.264C2.41067 14.408 2.672 14.5413 2.976 14.664C3.28533 14.7813 3.66133 14.84 4.104 14.84C4.472 14.84 4.8 14.7893 5.088 14.688C5.376 14.5867 5.61867 14.4453 5.816 14.264C6.01867 14.0773 6.17333 13.856 6.28 13.6C6.38667 13.344 6.44 13.0587 6.44 12.744C6.44 12.3973 6.36 12.1147 6.2 11.896C6.04533 11.672 5.84 11.4853 5.584 11.336C5.328 11.1867 5.03467 11.0613 4.704 10.96C4.37867 10.8533 4.04267 10.7467 3.696 10.64C3.35467 10.528 3.01867 10.4 2.688 10.256C2.36267 10.112 2.072 9.92533 1.816 9.696C1.56 9.46667 1.352 9.18133 1.192 8.84C1.03733 8.49333 0.96 8.06667 0.96 7.56C0.96 7.15467 1.03733 6.76267 1.192 6.384C1.352 6.00533 1.58133 5.66933 1.88 5.376C2.17867 5.08267 2.54667 4.848 2.984 4.672C3.42667 4.496 3.93333 4.408 4.504 4.408C5.144 4.408 5.728 4.50933 6.256 4.712C6.784 4.91467 7.24533 5.208 7.64 5.592L7.264 6.328ZM12.8604 7.768C13.3457 7.768 13.7937 7.85067 14.2044 8.016C14.615 8.176 14.9697 8.41067 15.2684 8.72C15.567 9.024 15.799 9.40267 15.9644 9.856C16.135 10.304 16.2204 10.816 16.2204 11.392C16.2204 11.616 16.1964 11.7653 16.1484 11.84C16.1004 11.9147 16.0097 11.952 15.8764 11.952H10.4844C10.495 12.464 10.5644 12.9093 10.6924 13.288C10.8204 13.6667 10.9964 13.984 11.2204 14.24C11.4444 14.4907 11.711 14.68 12.0204 14.808C12.3297 14.9307 12.6764 14.992 13.0604 14.992C13.4177 14.992 13.7244 14.952 13.9804 14.872C14.2417 14.7867 14.4657 14.696 14.6524 14.6C14.839 14.504 14.9937 14.416 15.1164 14.336C15.2444 14.2507 15.3537 14.208 15.4444 14.208C15.5617 14.208 15.6524 14.2533 15.7164 14.344L16.1164 14.864C15.9404 15.0773 15.7297 15.264 15.4844 15.424C15.239 15.5787 14.975 15.7067 14.6924 15.808C14.415 15.9093 14.127 15.984 13.8284 16.032C13.5297 16.0853 13.2337 16.112 12.9404 16.112C12.3804 16.112 11.863 16.0187 11.3884 15.832C10.919 15.64 10.511 15.3627 10.1644 15C9.82304 14.632 9.55638 14.1787 9.36438 13.64C9.17238 13.1013 9.07638 12.4827 9.07638 11.784C9.07638 11.2187 9.16171 10.6907 9.33238 10.2C9.50838 9.70933 9.75904 9.28533 10.0844 8.928C10.4097 8.56533 10.807 8.28267 11.2764 8.08C11.7457 7.872 12.2737 7.768 12.8604 7.768ZM12.8924 8.816C12.2044 8.816 11.663 9.016 11.2684 9.416C10.8737 9.81067 10.6284 10.36 10.5324 11.064H14.9404C14.9404 10.7333 14.895 10.432 14.8044 10.16C14.7137 9.88267 14.5804 9.64533 14.4044 9.448C14.2284 9.24533 14.0124 9.09067 13.7564 8.984C13.5057 8.872 13.2177 8.816 12.8924 8.816ZM19.627 4.216V16H18.203V4.216H19.627ZM25.3448 7.768C25.8301 7.768 26.2781 7.85067 26.6888 8.016C27.0994 8.176 27.4541 8.41067 27.7528 8.72C28.0514 9.024 28.2834 9.40267 28.4488 9.856C28.6194 10.304 28.7048 10.816 28.7048 11.392C28.7048 11.616 28.6808 11.7653 28.6328 11.84C28.5848 11.9147 28.4941 11.952 28.3608 11.952H22.9688C22.9794 12.464 23.0488 12.9093 23.1768 13.288C23.3048 13.6667 23.4808 13.984 23.7048 14.24C23.9288 14.4907 24.1954 14.68 24.5048 14.808C24.8141 14.9307 25.1608 14.992 25.5448 14.992C25.9021 14.992 26.2088 14.952 26.4648 14.872C26.7261 14.7867 26.9501 14.696 27.1368 14.6C27.3234 14.504 27.4781 14.416 27.6008 14.336C27.7288 14.2507 27.8381 14.208 27.9288 14.208C28.0461 14.208 28.1368 14.2533 28.2008 14.344L28.6008 14.864C28.4248 15.0773 28.2141 15.264 27.9688 15.424C27.7234 15.5787 27.4594 15.7067 27.1768 15.808C26.8994 15.9093 26.6114 15.984 26.3128 16.032C26.0141 16.0853 25.7181 16.112 25.4248 16.112C24.8648 16.112 24.3474 16.0187 23.8728 15.832C23.4034 15.64 22.9954 15.3627 22.6488 15C22.3074 14.632 22.0408 14.1787 21.8488 13.64C21.6568 13.1013 21.5608 12.4827 21.5608 11.784C21.5608 11.2187 21.6461 10.6907 21.8168 10.2C21.9928 9.70933 22.2434 9.28533 22.5688 8.928C22.8941 8.56533 23.2914 8.28267 23.7608 8.08C24.2301 7.872 24.7581 7.768 25.3448 7.768ZM25.3767 8.816C24.6888 8.816 24.1474 9.016 23.7528 9.416C23.3581 9.81067 23.1128 10.36 23.0168 11.064H27.4248C27.4248 10.7333 27.3794 10.432 27.2888 10.16C27.1981 9.88267 27.0648 9.64533 26.8888 9.448C26.7128 9.24533 26.4968 9.09067 26.2408 8.984C25.9901 8.872 25.7021 8.816 25.3767 8.816ZM36.0554 9.336C36.0127 9.39467 35.97 9.44 35.9274 9.472C35.8847 9.504 35.8234 9.52 35.7434 9.52C35.6634 9.52 35.5754 9.488 35.4794 9.424C35.3887 9.35467 35.2714 9.28 35.1274 9.2C34.9834 9.12 34.8074 9.048 34.5994 8.984C34.3967 8.91467 34.146 8.88 33.8474 8.88C33.4527 8.88 33.1034 8.952 32.7994 9.096C32.4954 9.23467 32.2394 9.43733 32.0314 9.704C31.8287 9.97067 31.674 10.2933 31.5674 10.672C31.466 11.0507 31.4154 11.4747 31.4154 11.944C31.4154 12.4347 31.4714 12.872 31.5834 13.256C31.6954 13.6347 31.8527 13.9547 32.0554 14.216C32.258 14.472 32.5034 14.6693 32.7914 14.808C33.0847 14.9413 33.4127 15.008 33.7754 15.008C34.122 15.008 34.4074 14.968 34.6314 14.888C34.8554 14.8027 35.042 14.7093 35.1914 14.608C35.3407 14.5067 35.4634 14.416 35.5594 14.336C35.6554 14.2507 35.7514 14.208 35.8474 14.208C35.97 14.208 36.0607 14.2533 36.1194 14.344L36.5194 14.864C36.1674 15.296 35.7274 15.6133 35.1994 15.816C34.6714 16.0133 34.114 16.112 33.5274 16.112C33.0207 16.112 32.5487 16.0187 32.1114 15.832C31.6794 15.6453 31.3034 15.376 30.9834 15.024C30.6634 14.6667 30.41 14.2293 30.2234 13.712C30.042 13.1947 29.9514 12.6053 29.9514 11.944C29.9514 11.3413 30.034 10.784 30.1994 10.272C30.37 9.76 30.6154 9.32 30.9354 8.952C31.2607 8.57867 31.6607 8.288 32.1354 8.08C32.61 7.872 33.154 7.768 33.7674 7.768C34.3327 7.768 34.834 7.86133 35.2714 8.048C35.7087 8.22933 36.0954 8.488 36.4314 8.824L36.0554 9.336ZM40.4521 16.128C39.8121 16.128 39.3188 15.9493 38.9721 15.592C38.6308 15.2347 38.4601 14.72 38.4601 14.048V9.088H37.4841C37.3988 9.088 37.3268 9.064 37.2681 9.016C37.2095 8.96267 37.1801 8.88267 37.1801 8.776V8.208L38.5081 8.04L38.8361 5.536C38.8468 5.456 38.8815 5.392 38.9401 5.344C38.9988 5.29067 39.0735 5.264 39.1641 5.264H39.8841V8.056H42.2041V9.088H39.8841V13.952C39.8841 14.2933 39.9668 14.5467 40.1321 14.712C40.2975 14.8773 40.5108 14.96 40.7721 14.96C40.9215 14.96 41.0495 14.9413 41.1561 14.904C41.2681 14.8613 41.3641 14.816 41.4441 14.768C41.5241 14.72 41.5908 14.6773 41.6441 14.64C41.7028 14.5973 41.7535 14.576 41.7961 14.576C41.8708 14.576 41.9375 14.6213 41.9961 14.712L42.4121 15.392C42.1668 15.6213 41.8708 15.8027 41.5241 15.936C41.1775 16.064 40.8201 16.128 40.4521 16.128ZM53.0106 16H52.3786C52.24 16 52.128 15.9787 52.0426 15.936C51.9573 15.8933 51.9013 15.8027 51.8746 15.664L51.7146 14.912C51.5013 15.104 51.2933 15.2773 51.0906 15.432C50.888 15.5813 50.6746 15.7093 50.4506 15.816C50.2266 15.9173 49.9866 15.9947 49.7306 16.048C49.48 16.1013 49.2 16.128 48.8906 16.128C48.576 16.128 48.28 16.0853 48.0026 16C47.7306 15.9093 47.4933 15.776 47.2906 15.6C47.088 15.424 46.9253 15.2027 46.8026 14.936C46.6853 14.664 46.6266 14.344 46.6266 13.976C46.6266 13.656 46.7146 13.3493 46.8906 13.056C47.0666 12.7573 47.3493 12.4933 47.7386 12.264C48.1333 12.0347 48.648 11.848 49.2826 11.704C49.9173 11.5547 50.6933 11.4693 51.6106 11.448V10.816C51.6106 10.1867 51.4746 9.712 51.2026 9.392C50.936 9.06667 50.5386 8.904 50.0106 8.904C49.664 8.904 49.3706 8.94933 49.1306 9.04C48.896 9.12533 48.6906 9.224 48.5146 9.336C48.344 9.44267 48.1946 9.54133 48.0666 9.632C47.944 9.71733 47.8213 9.76 47.6986 9.76C47.6026 9.76 47.5173 9.736 47.4426 9.688C47.3733 9.63467 47.3173 9.57067 47.2746 9.496L47.0186 9.04C47.4666 8.608 47.9493 8.28533 48.4666 8.072C48.984 7.85867 49.5573 7.752 50.1866 7.752C50.64 7.752 51.0426 7.82667 51.3946 7.976C51.7466 8.12533 52.0426 8.33333 52.2826 8.6C52.5226 8.86667 52.704 9.18933 52.8266 9.568C52.9493 9.94667 53.0106 10.3627 53.0106 10.816V16ZM49.3146 15.128C49.5653 15.128 49.7946 15.104 50.0026 15.056C50.2106 15.0027 50.4053 14.9307 50.5866 14.84C50.7733 14.744 50.9493 14.6293 51.1146 14.496C51.2853 14.3627 51.4506 14.2107 51.6106 14.04V12.352C50.9546 12.3733 50.3973 12.4267 49.9386 12.512C49.48 12.592 49.1066 12.6987 48.8186 12.832C48.5306 12.9653 48.32 13.1227 48.1866 13.304C48.0586 13.4853 47.9946 13.688 47.9946 13.912C47.9946 14.1253 48.0293 14.3093 48.0986 14.464C48.168 14.6187 48.2613 14.7467 48.3786 14.848C48.496 14.944 48.6346 15.016 48.7946 15.064C48.9546 15.1067 49.128 15.128 49.3146 15.128ZM62.9018 9.232C62.8378 9.34933 62.7391 9.408 62.6058 9.408C62.5258 9.408 62.4351 9.37867 62.3338 9.32C62.2324 9.26133 62.1071 9.19733 61.9578 9.128C61.8138 9.05333 61.6404 8.98667 61.4378 8.928C61.2351 8.864 60.9951 8.832 60.7178 8.832C60.4778 8.832 60.2618 8.864 60.0698 8.928C59.8778 8.98667 59.7124 9.06933 59.5738 9.176C59.4404 9.28267 59.3364 9.408 59.2618 9.552C59.1924 9.69067 59.1578 9.84267 59.1578 10.008C59.1578 10.216 59.2164 10.3893 59.3338 10.528C59.4564 10.6667 59.6164 10.7867 59.8138 10.888C60.0111 10.9893 60.2351 11.08 60.4858 11.16C60.7364 11.2347 60.9924 11.3173 61.2538 11.408C61.5204 11.4933 61.7791 11.5893 62.0298 11.696C62.2804 11.8027 62.5044 11.936 62.7018 12.096C62.8991 12.256 63.0564 12.4533 63.1738 12.688C63.2964 12.9173 63.3578 13.1947 63.3578 13.52C63.3578 13.8933 63.2911 14.24 63.1578 14.56C63.0244 14.8747 62.8271 15.1493 62.5658 15.384C62.3044 15.6133 61.9844 15.7947 61.6058 15.928C61.2271 16.0613 60.7898 16.128 60.2938 16.128C59.7284 16.128 59.2164 16.0373 58.7578 15.856C58.2991 15.6693 57.9098 15.432 57.5898 15.144L57.9258 14.6C57.9684 14.5307 58.0191 14.4773 58.0778 14.44C58.1364 14.4027 58.2138 14.384 58.3098 14.384C58.4058 14.384 58.5071 14.4213 58.6138 14.496C58.7204 14.5707 58.8484 14.6533 58.9978 14.744C59.1524 14.8347 59.3364 14.9173 59.5498 14.992C59.7684 15.0667 60.0404 15.104 60.3658 15.104C60.6431 15.104 60.8858 15.0693 61.0938 15C61.3018 14.9253 61.4751 14.8267 61.6137 14.704C61.7524 14.5813 61.8538 14.44 61.9178 14.28C61.9871 14.12 62.0218 13.9493 62.0218 13.768C62.0218 13.544 61.9604 13.36 61.8378 13.216C61.7204 13.0667 61.5631 12.9413 61.3658 12.84C61.1684 12.7333 60.9418 12.6427 60.6858 12.568C60.4351 12.488 60.1764 12.4053 59.9098 12.32C59.6484 12.2347 59.3898 12.1387 59.1338 12.032C58.8831 11.92 58.6591 11.7813 58.4618 11.616C58.2644 11.4507 58.1044 11.248 57.9818 11.008C57.8644 10.7627 57.8058 10.4667 57.8058 10.12C57.8058 9.81067 57.8698 9.51467 57.9978 9.232C58.1258 8.944 58.3124 8.69333 58.5578 8.48C58.8031 8.26133 59.1044 8.088 59.4618 7.96C59.8191 7.832 60.2271 7.768 60.6858 7.768C61.2191 7.768 61.6964 7.85333 62.1178 8.024C62.5444 8.18933 62.9124 8.41867 63.2218 8.712L62.9018 9.232ZM66.7833 7.896V16H65.3593V7.896H66.7833ZM67.1033 5.352C67.1033 5.49067 67.0739 5.62133 67.0153 5.744C66.9619 5.86133 66.8873 5.968 66.7913 6.064C66.7006 6.15467 66.5939 6.22667 66.4713 6.28C66.3486 6.33333 66.2179 6.36 66.0793 6.36C65.9406 6.36 65.8099 6.33333 65.6873 6.28C65.5699 6.22667 65.4633 6.15467 65.3673 6.064C65.2766 5.968 65.2046 5.86133 65.1513 5.744C65.0979 5.62133 65.0713 5.49067 65.0713 5.352C65.0713 5.21333 65.0979 5.08267 65.1513 4.96C65.2046 4.832 65.2766 4.72267 65.3673 4.632C65.4633 4.536 65.5699 4.46133 65.6873 4.408C65.8099 4.35467 65.9406 4.328 66.0793 4.328C66.2179 4.328 66.3486 4.35467 66.4713 4.408C66.5939 4.46133 66.7006 4.536 66.7913 4.632C66.8873 4.72267 66.9619 4.832 67.0153 4.96C67.0739 5.08267 67.1033 5.21333 67.1033 5.352ZM74.949 8.504C74.949 8.60533 74.9303 8.704 74.893 8.8C74.8557 8.89067 74.8077 8.97333 74.749 9.048L70.365 14.888H74.789V16H68.685V15.408C68.685 15.3387 68.701 15.2587 68.733 15.168C68.7703 15.072 68.821 14.9813 68.885 14.896L73.293 9.016H68.933V7.896H74.949V8.504ZM79.8916 7.768C80.377 7.768 80.825 7.85067 81.2356 8.016C81.6463 8.176 82.001 8.41067 82.2996 8.72C82.5983 9.024 82.8303 9.40267 82.9956 9.856C83.1663 10.304 83.2516 10.816 83.2516 11.392C83.2516 11.616 83.2276 11.7653 83.1796 11.84C83.1316 11.9147 83.041 11.952 82.9076 11.952H77.5156C77.5263 12.464 77.5956 12.9093 77.7236 13.288C77.8516 13.6667 78.0276 13.984 78.2516 14.24C78.4756 14.4907 78.7423 14.68 79.0516 14.808C79.361 14.9307 79.7076 14.992 80.0916 14.992C80.449 14.992 80.7556 14.952 81.0116 14.872C81.273 14.7867 81.497 14.696 81.6836 14.6C81.8703 14.504 82.025 14.416 82.1476 14.336C82.2756 14.2507 82.385 14.208 82.4756 14.208C82.593 14.208 82.6836 14.2533 82.7476 14.344L83.1476 14.864C82.9716 15.0773 82.761 15.264 82.5156 15.424C82.2703 15.5787 82.0063 15.7067 81.7236 15.808C81.4463 15.9093 81.1583 15.984 80.8596 16.032C80.561 16.0853 80.265 16.112 79.9716 16.112C79.4116 16.112 78.8943 16.0187 78.4196 15.832C77.9503 15.64 77.5423 15.3627 77.1956 15C76.8543 14.632 76.5876 14.1787 76.3956 13.64C76.2036 13.1013 76.1076 12.4827 76.1076 11.784C76.1076 11.2187 76.193 10.6907 76.3636 10.2C76.5396 9.70933 76.7903 9.28533 77.1156 8.928C77.441 8.56533 77.8383 8.28267 78.3076 8.08C78.777 7.872 79.305 7.768 79.8916 7.768ZM79.9236 8.816C79.2356 8.816 78.6943 9.016 78.2996 9.416C77.905 9.81067 77.6596 10.36 77.5636 11.064H81.9716C81.9716 10.7333 81.9263 10.432 81.8356 10.16C81.745 9.88267 81.6116 9.64533 81.4356 9.448C81.2596 9.24533 81.0436 9.09067 80.7876 8.984C80.537 8.872 80.249 8.816 79.9236 8.816Z" fill="black"/>
<rect x="1" y="28" width="56" height="26" rx="13" fill="#E3E3E3"/>
<path d="M19.356 37.537C19.314 37.607 19.2697 37.6607 19.223 37.698C19.1763 37.7307 19.1157 37.747 19.041 37.747C18.9617 37.747 18.8683 37.7073 18.761 37.628C18.6583 37.5487 18.5253 37.4623 18.362 37.369C18.2033 37.271 18.0097 37.1823 17.781 37.103C17.557 37.0237 17.284 36.984 16.962 36.984C16.6587 36.984 16.3903 37.026 16.157 37.11C15.9237 37.1893 15.7277 37.299 15.569 37.439C15.415 37.579 15.2983 37.7447 15.219 37.936C15.1397 38.1227 15.1 38.3257 15.1 38.545C15.1 38.825 15.1677 39.0583 15.303 39.245C15.443 39.427 15.625 39.5833 15.849 39.714C16.0777 39.8447 16.3343 39.959 16.619 40.057C16.9083 40.1503 17.2023 40.2483 17.501 40.351C17.8043 40.4537 18.0983 40.5703 18.383 40.701C18.6723 40.827 18.929 40.988 19.153 41.184C19.3817 41.38 19.5637 41.6203 19.699 41.905C19.839 42.1897 19.909 42.5397 19.909 42.955C19.909 43.3937 19.8343 43.8067 19.685 44.194C19.5357 44.5767 19.3163 44.9103 19.027 45.195C18.7423 45.4797 18.39 45.7037 17.97 45.867C17.5547 46.0303 17.081 46.112 16.549 46.112C15.9003 46.112 15.3077 45.9953 14.771 45.762C14.239 45.524 13.784 45.2043 13.406 44.803L13.798 44.159C13.8353 44.1077 13.8797 44.0657 13.931 44.033C13.987 43.9957 14.0477 43.977 14.113 43.977C14.211 43.977 14.323 44.0307 14.449 44.138C14.575 44.2407 14.7313 44.355 14.918 44.481C15.1093 44.607 15.338 44.7237 15.604 44.831C15.8747 44.9337 16.2037 44.985 16.591 44.985C16.913 44.985 17.2 44.9407 17.452 44.852C17.704 44.7633 17.9163 44.6397 18.089 44.481C18.2663 44.3177 18.4017 44.124 18.495 43.9C18.5883 43.676 18.635 43.4263 18.635 43.151C18.635 42.8477 18.565 42.6003 18.425 42.409C18.2897 42.213 18.11 42.0497 17.886 41.919C17.662 41.7883 17.4053 41.6787 17.116 41.59C16.8313 41.4967 16.5373 41.4033 16.234 41.31C15.9353 41.212 15.6413 41.1 15.352 40.974C15.0673 40.848 14.813 40.6847 14.589 40.484C14.365 40.2833 14.183 40.0337 14.043 39.735C13.9077 39.4317 13.84 39.0583 13.84 38.615C13.84 38.2603 13.9077 37.9173 14.043 37.586C14.183 37.2547 14.3837 36.9607 14.645 36.704C14.9063 36.4473 15.2283 36.242 15.611 36.088C15.9983 35.934 16.4417 35.857 16.941 35.857C17.501 35.857 18.012 35.9457 18.474 36.123C18.936 36.3003 19.3397 36.557 19.685 36.893L19.356 37.537ZM21.4458 46V38.909H22.1878C22.3652 38.909 22.4772 38.9953 22.5238 39.168L22.6148 39.896C22.8762 39.574 23.1678 39.3103 23.4898 39.105C23.8165 38.8997 24.1945 38.797 24.6238 38.797C25.1045 38.797 25.4918 38.93 25.7858 39.196C26.0845 39.462 26.2992 39.8213 26.4298 40.274C26.5278 40.0173 26.6562 39.7957 26.8148 39.609C26.9782 39.4223 27.1602 39.2683 27.3608 39.147C27.5615 39.0257 27.7738 38.937 27.9978 38.881C28.2265 38.825 28.4575 38.797 28.6908 38.797C29.0642 38.797 29.3955 38.8577 29.6848 38.979C29.9788 39.0957 30.2262 39.2683 30.4268 39.497C30.6322 39.7257 30.7885 40.008 30.8958 40.344C31.0032 40.6753 31.0568 41.0557 31.0568 41.485V46H29.8108V41.485C29.8108 40.9297 29.6895 40.5097 29.4468 40.225C29.2042 39.9357 28.8518 39.791 28.3898 39.791C28.1845 39.791 27.9885 39.8283 27.8018 39.903C27.6198 39.973 27.4588 40.078 27.3188 40.218C27.1788 40.358 27.0668 40.5353 26.9828 40.75C26.9035 40.96 26.8638 41.205 26.8638 41.485V46H25.6178V41.485C25.6178 40.9157 25.5035 40.491 25.2748 40.211C25.0462 39.931 24.7125 39.791 24.2738 39.791C23.9658 39.791 23.6788 39.875 23.4128 40.043C23.1515 40.2063 22.9112 40.4303 22.6918 40.715V46H21.4458ZM38.1519 46H37.5989C37.4775 46 37.3795 45.9813 37.3049 45.944C37.2302 45.9067 37.1812 45.8273 37.1579 45.706L37.0179 45.048C36.8312 45.216 36.6492 45.3677 36.4719 45.503C36.2945 45.6337 36.1079 45.7457 35.9119 45.839C35.7159 45.9277 35.5059 45.9953 35.2819 46.042C35.0625 46.0887 34.8175 46.112 34.5469 46.112C34.2715 46.112 34.0125 46.0747 33.7699 46C33.5319 45.9207 33.3242 45.804 33.1469 45.65C32.9695 45.496 32.8272 45.3023 32.7199 45.069C32.6172 44.831 32.5659 44.551 32.5659 44.229C32.5659 43.949 32.6429 43.6807 32.7969 43.424C32.9509 43.1627 33.1982 42.9317 33.5389 42.731C33.8842 42.5303 34.3345 42.367 34.8899 42.241C35.4452 42.1103 36.1242 42.0357 36.9269 42.017V41.464C36.9269 40.9133 36.8079 40.498 36.5699 40.218C36.3365 39.9333 35.9889 39.791 35.5269 39.791C35.2235 39.791 34.9669 39.8307 34.7569 39.91C34.5515 39.9847 34.3719 40.071 34.2179 40.169C34.0685 40.2623 33.9379 40.3487 33.8259 40.428C33.7185 40.5027 33.6112 40.54 33.5039 40.54C33.4199 40.54 33.3452 40.519 33.2799 40.477C33.2192 40.4303 33.1702 40.3743 33.1329 40.309L32.9089 39.91C33.3009 39.532 33.7232 39.2497 34.1759 39.063C34.6285 38.8763 35.1302 38.783 35.6809 38.783C36.0775 38.783 36.4299 38.8483 36.7379 38.979C37.0459 39.1097 37.3049 39.2917 37.5149 39.525C37.7249 39.7583 37.8835 40.0407 37.9909 40.372C38.0982 40.7033 38.1519 41.0673 38.1519 41.464V46ZM34.9179 45.237C35.1372 45.237 35.3379 45.216 35.5199 45.174C35.7019 45.1273 35.8722 45.0643 36.0309 44.985C36.1942 44.901 36.3482 44.8007 36.4929 44.684C36.6422 44.5673 36.7869 44.4343 36.9269 44.285V42.808C36.3529 42.8267 35.8652 42.8733 35.4639 42.948C35.0625 43.018 34.7359 43.1113 34.4839 43.228C34.2319 43.3447 34.0475 43.4823 33.9309 43.641C33.8189 43.7997 33.7629 43.977 33.7629 44.173C33.7629 44.3597 33.7932 44.5207 33.8539 44.656C33.9145 44.7913 33.9962 44.9033 34.0989 44.992C34.2015 45.076 34.3229 45.139 34.4629 45.181C34.6029 45.2183 34.7545 45.237 34.9179 45.237ZM41.4256 35.689V46H40.1796V35.689H41.4256ZM45.0076 35.689V46H43.7616V35.689H45.0076Z" fill="#6A6A6A"/>
<rect x="138" y="28" width="57" height="26" rx="13" fill="#E3E3E3"/>
<path d="M151.576 44.859H155.916V46H150.218V35.969H151.576V44.859ZM162.421 46H161.868C161.747 46 161.649 45.9813 161.574 45.944C161.5 45.9067 161.451 45.8273 161.427 45.706L161.287 45.048C161.101 45.216 160.919 45.3677 160.741 45.503C160.564 45.6337 160.377 45.7457 160.181 45.839C159.985 45.9277 159.775 45.9953 159.551 46.042C159.332 46.0887 159.087 46.112 158.816 46.112C158.541 46.112 158.282 46.0747 158.039 46C157.801 45.9207 157.594 45.804 157.416 45.65C157.239 45.496 157.097 45.3023 156.989 45.069C156.887 44.831 156.835 44.551 156.835 44.229C156.835 43.949 156.912 43.6807 157.066 43.424C157.22 43.1627 157.468 42.9317 157.808 42.731C158.154 42.5303 158.604 42.367 159.159 42.241C159.715 42.1103 160.394 42.0357 161.196 42.017V41.464C161.196 40.9133 161.077 40.498 160.839 40.218C160.606 39.9333 160.258 39.791 159.796 39.791C159.493 39.791 159.236 39.8307 159.026 39.91C158.821 39.9847 158.641 40.071 158.487 40.169C158.338 40.2623 158.207 40.3487 158.095 40.428C157.988 40.5027 157.881 40.54 157.773 40.54C157.689 40.54 157.615 40.519 157.549 40.477C157.489 40.4303 157.44 40.3743 157.402 40.309L157.178 39.91C157.57 39.532 157.993 39.2497 158.445 39.063C158.898 38.8763 159.4 38.783 159.95 38.783C160.347 38.783 160.699 38.8483 161.007 38.979C161.315 39.1097 161.574 39.2917 161.784 39.525C161.994 39.7583 162.153 40.0407 162.26 40.372C162.368 40.7033 162.421 41.0673 162.421 41.464V46ZM159.187 45.237C159.407 45.237 159.607 45.216 159.789 45.174C159.971 45.1273 160.142 45.0643 160.3 44.985C160.464 44.901 160.618 44.8007 160.762 44.684C160.912 44.5673 161.056 44.4343 161.196 44.285V42.808C160.622 42.8267 160.135 42.8733 159.733 42.948C159.332 43.018 159.005 43.1113 158.753 43.228C158.501 43.3447 158.317 43.4823 158.2 43.641C158.088 43.7997 158.032 43.977 158.032 44.173C158.032 44.3597 158.063 44.5207 158.123 44.656C158.184 44.7913 158.266 44.9033 158.368 44.992C158.471 45.076 158.592 45.139 158.732 45.181C158.872 45.2183 159.024 45.237 159.187 45.237ZM164.309 46V38.909H165.023C165.158 38.909 165.252 38.9347 165.303 38.986C165.354 39.0373 165.389 39.126 165.408 39.252L165.492 40.358C165.735 39.8633 166.033 39.4783 166.388 39.203C166.747 38.923 167.167 38.783 167.648 38.783C167.844 38.783 168.021 38.8063 168.18 38.853C168.339 38.895 168.486 38.9557 168.621 39.035L168.46 39.966C168.427 40.0827 168.355 40.141 168.243 40.141C168.178 40.141 168.077 40.12 167.942 40.078C167.807 40.0313 167.618 40.008 167.375 40.008C166.941 40.008 166.577 40.134 166.283 40.386C165.994 40.638 165.751 41.0043 165.555 41.485V46H164.309ZM172.343 38.79C172.651 38.79 172.938 38.825 173.204 38.895C173.474 38.9603 173.719 39.0583 173.939 39.189H175.864V39.651C175.864 39.805 175.766 39.903 175.57 39.945L174.765 40.057C174.923 40.3603 175.003 40.6987 175.003 41.072C175.003 41.4173 174.935 41.7323 174.8 42.017C174.669 42.297 174.485 42.5373 174.247 42.738C174.013 42.9387 173.733 43.0927 173.407 43.2C173.085 43.3073 172.73 43.361 172.343 43.361C172.011 43.361 171.699 43.3213 171.405 43.242C171.255 43.3353 171.141 43.4357 171.062 43.543C170.987 43.6503 170.95 43.7553 170.95 43.858C170.95 44.026 171.017 44.1543 171.153 44.243C171.288 44.327 171.468 44.3877 171.692 44.425C171.916 44.4623 172.17 44.4857 172.455 44.495C172.739 44.5043 173.029 44.5207 173.323 44.544C173.621 44.5627 173.913 44.5977 174.198 44.649C174.482 44.7003 174.737 44.7843 174.961 44.901C175.185 45.0177 175.364 45.1787 175.5 45.384C175.635 45.5893 175.703 45.8553 175.703 46.182C175.703 46.4853 175.626 46.7793 175.472 47.064C175.322 47.3487 175.105 47.6007 174.821 47.82C174.536 48.044 174.188 48.2213 173.778 48.352C173.367 48.4873 172.903 48.555 172.385 48.555C171.867 48.555 171.412 48.5037 171.02 48.401C170.632 48.2983 170.31 48.1607 170.054 47.988C169.797 47.8153 169.603 47.6147 169.473 47.386C169.347 47.162 169.284 46.9263 169.284 46.679C169.284 46.329 169.393 46.0327 169.613 45.79C169.837 45.5427 170.142 45.3467 170.53 45.202C170.329 45.1087 170.168 44.985 170.047 44.831C169.93 44.6723 169.872 44.4623 169.872 44.201C169.872 44.0983 169.89 43.9933 169.928 43.886C169.965 43.774 170.021 43.6643 170.096 43.557C170.175 43.4497 170.271 43.347 170.383 43.249C170.495 43.151 170.625 43.0647 170.775 42.99C170.425 42.794 170.149 42.535 169.949 42.213C169.753 41.8863 169.655 41.506 169.655 41.072C169.655 40.7267 169.72 40.414 169.851 40.134C169.986 39.8493 170.173 39.609 170.411 39.413C170.649 39.2123 170.931 39.0583 171.258 38.951C171.589 38.8437 171.951 38.79 172.343 38.79ZM174.555 46.385C174.555 46.2077 174.506 46.0653 174.408 45.958C174.31 45.8507 174.177 45.769 174.009 45.713C173.841 45.6523 173.647 45.608 173.428 45.58C173.208 45.552 172.977 45.5333 172.735 45.524C172.492 45.51 172.245 45.496 171.993 45.482C171.741 45.468 171.5 45.4423 171.272 45.405C171.006 45.531 170.789 45.685 170.621 45.867C170.457 46.049 170.376 46.266 170.376 46.518C170.376 46.6767 170.415 46.8237 170.495 46.959C170.579 47.099 170.705 47.218 170.873 47.316C171.041 47.4187 171.251 47.498 171.503 47.554C171.759 47.6147 172.06 47.645 172.406 47.645C172.742 47.645 173.043 47.6147 173.309 47.554C173.575 47.4933 173.799 47.407 173.981 47.295C174.167 47.183 174.31 47.05 174.408 46.896C174.506 46.742 174.555 46.5717 174.555 46.385ZM172.343 42.535C172.595 42.535 172.816 42.5 173.008 42.43C173.204 42.36 173.367 42.262 173.498 42.136C173.628 42.01 173.726 41.8607 173.792 41.688C173.857 41.5107 173.89 41.317 173.89 41.107C173.89 40.673 173.757 40.3277 173.491 40.071C173.229 39.8143 172.847 39.686 172.343 39.686C171.843 39.686 171.461 39.8143 171.195 40.071C170.933 40.3277 170.803 40.673 170.803 41.107C170.803 41.317 170.835 41.5107 170.901 41.688C170.971 41.8607 171.071 42.01 171.202 42.136C171.332 42.262 171.493 42.36 171.685 42.43C171.876 42.5 172.095 42.535 172.343 42.535ZM179.913 38.797C180.338 38.797 180.73 38.8693 181.089 39.014C181.448 39.154 181.759 39.3593 182.02 39.63C182.281 39.896 182.484 40.2273 182.629 40.624C182.778 41.016 182.853 41.464 182.853 41.968C182.853 42.164 182.832 42.2947 182.79 42.36C182.748 42.4253 182.669 42.458 182.552 42.458H177.834C177.843 42.906 177.904 43.2957 178.016 43.627C178.128 43.9583 178.282 44.236 178.478 44.46C178.674 44.6793 178.907 44.845 179.178 44.957C179.449 45.0643 179.752 45.118 180.088 45.118C180.401 45.118 180.669 45.083 180.893 45.013C181.122 44.9383 181.318 44.859 181.481 44.775C181.644 44.691 181.78 44.614 181.887 44.544C181.999 44.4693 182.095 44.432 182.174 44.432C182.277 44.432 182.356 44.4717 182.412 44.551L182.762 45.006C182.608 45.1927 182.424 45.356 182.209 45.496C181.994 45.6313 181.763 45.7433 181.516 45.832C181.273 45.9207 181.021 45.986 180.76 46.028C180.499 46.0747 180.24 46.098 179.983 46.098C179.493 46.098 179.04 46.0163 178.625 45.853C178.214 45.685 177.857 45.4423 177.554 45.125C177.255 44.803 177.022 44.4063 176.854 43.935C176.686 43.4637 176.602 42.9223 176.602 42.311C176.602 41.8163 176.677 41.3543 176.826 40.925C176.98 40.4957 177.199 40.1247 177.484 39.812C177.769 39.4947 178.116 39.2473 178.527 39.07C178.938 38.888 179.4 38.797 179.913 38.797ZM179.941 39.714C179.339 39.714 178.865 39.889 178.52 40.239C178.175 40.5843 177.96 41.065 177.876 41.681H181.733C181.733 41.3917 181.693 41.128 181.614 40.89C181.535 40.6473 181.418 40.4397 181.264 40.267C181.11 40.0897 180.921 39.9543 180.697 39.861C180.478 39.763 180.226 39.714 179.941 39.714Z" fill="#6A6A6A"/>
<rect x="61" y="28" width="73" height="26" rx="13" fill="#2656C9"/>
<path d="M78.153 42.374C78.2183 42.486 78.2743 42.605 78.321 42.731C78.3723 42.8523 78.4213 42.976 78.468 43.102C78.5147 42.9713 78.5637 42.8477 78.615 42.731C78.6663 42.6097 78.7247 42.4883 78.79 42.367L82.185 36.2C82.2457 36.0927 82.3087 36.0273 82.374 36.004C82.4393 35.9807 82.5327 35.969 82.654 35.969H83.655V46H82.465V38.629C82.465 38.531 82.4673 38.426 82.472 38.314C82.4767 38.202 82.4837 38.0877 82.493 37.971L79.056 44.243C78.9393 44.453 78.776 44.558 78.566 44.558H78.37C78.16 44.558 77.9967 44.453 77.88 44.243L74.366 37.95C74.38 38.0713 74.3893 38.1903 74.394 38.307C74.4033 38.4237 74.408 38.531 74.408 38.629V46H73.218V35.969H74.219C74.3403 35.969 74.4337 35.9807 74.499 36.004C74.5643 36.0273 74.6273 36.0927 74.688 36.2L78.153 42.374ZM88.7079 38.797C89.1326 38.797 89.5246 38.8693 89.8839 39.014C90.2432 39.154 90.5536 39.3593 90.8149 39.63C91.0762 39.896 91.2792 40.2273 91.4239 40.624C91.5732 41.016 91.6479 41.464 91.6479 41.968C91.6479 42.164 91.6269 42.2947 91.5849 42.36C91.5429 42.4253 91.4636 42.458 91.3469 42.458H86.6289C86.6382 42.906 86.6989 43.2957 86.8109 43.627C86.9229 43.9583 87.0769 44.236 87.2729 44.46C87.4689 44.6793 87.7022 44.845 87.9729 44.957C88.2436 45.0643 88.5469 45.118 88.8829 45.118C89.1956 45.118 89.4639 45.083 89.6879 45.013C89.9166 44.9383 90.1126 44.859 90.2759 44.775C90.4392 44.691 90.5746 44.614 90.6819 44.544C90.7939 44.4693 90.8896 44.432 90.9689 44.432C91.0716 44.432 91.1509 44.4717 91.2069 44.551L91.5569 45.006C91.4029 45.1927 91.2186 45.356 91.0039 45.496C90.7892 45.6313 90.5582 45.7433 90.3109 45.832C90.0682 45.9207 89.8162 45.986 89.5549 46.028C89.2936 46.0747 89.0346 46.098 88.7779 46.098C88.2879 46.098 87.8352 46.0163 87.4199 45.853C87.0092 45.685 86.6522 45.4423 86.3489 45.125C86.0502 44.803 85.8169 44.4063 85.6489 43.935C85.4809 43.4637 85.3969 42.9223 85.3969 42.311C85.3969 41.8163 85.4716 41.3543 85.6209 40.925C85.7749 40.4957 85.9942 40.1247 86.2789 39.812C86.5636 39.4947 86.9112 39.2473 87.3219 39.07C87.7326 38.888 88.1946 38.797 88.7079 38.797ZM88.7359 39.714C88.1339 39.714 87.6602 39.889 87.3149 40.239C86.9696 40.5843 86.7549 41.065 86.6709 41.681H90.5279C90.5279 41.3917 90.4882 41.128 90.4089 40.89C90.3296 40.6473 90.2129 40.4397 90.0589 40.267C89.9049 40.0897 89.7159 39.9543 89.4919 39.861C89.2726 39.763 89.0206 39.714 88.7359 39.714ZM98.2337 46C98.0564 46 97.9444 45.9137 97.8977 45.741L97.7857 44.88C97.4824 45.2487 97.1347 45.545 96.7427 45.769C96.3554 45.9883 95.9097 46.098 95.4057 46.098C94.9997 46.098 94.631 46.021 94.2997 45.867C93.9684 45.7083 93.686 45.4773 93.4527 45.174C93.2194 44.8707 93.0397 44.4927 92.9137 44.04C92.7877 43.5873 92.7247 43.067 92.7247 42.479C92.7247 41.9563 92.7947 41.471 92.9347 41.023C93.0747 40.5703 93.2754 40.1783 93.5367 39.847C93.8027 39.5157 94.1247 39.2567 94.5027 39.07C94.8807 38.8787 95.31 38.783 95.7907 38.783C96.2247 38.783 96.5957 38.8577 96.9037 39.007C97.2117 39.1517 97.487 39.357 97.7297 39.623V35.689H98.9757V46H98.2337ZM95.8187 45.09C96.2247 45.09 96.5794 44.9967 96.8827 44.81C97.1907 44.6233 97.473 44.3597 97.7297 44.019V40.589C97.501 40.281 97.249 40.0663 96.9737 39.945C96.703 39.819 96.402 39.756 96.0707 39.756C95.408 39.756 94.8994 39.9917 94.5447 40.463C94.19 40.9343 94.0127 41.6063 94.0127 42.479C94.0127 42.941 94.0524 43.3377 94.1317 43.669C94.211 43.9957 94.3277 44.2663 94.4817 44.481C94.6357 44.691 94.8247 44.845 95.0487 44.943C95.2727 45.041 95.5294 45.09 95.8187 45.09ZM102.449 38.909V46H101.203V38.909H102.449ZM102.729 36.683C102.729 36.8043 102.703 36.9187 102.652 37.026C102.605 37.1287 102.54 37.222 102.456 37.306C102.377 37.3853 102.283 37.4483 102.176 37.495C102.069 37.5417 101.954 37.565 101.833 37.565C101.712 37.565 101.597 37.5417 101.49 37.495C101.387 37.4483 101.294 37.3853 101.21 37.306C101.131 37.222 101.068 37.1287 101.021 37.026C100.974 36.9187 100.951 36.8043 100.951 36.683C100.951 36.5617 100.974 36.4473 101.021 36.34C101.068 36.228 101.131 36.1323 101.21 36.053C101.294 35.969 101.387 35.9037 101.49 35.857C101.597 35.8103 101.712 35.787 101.833 35.787C101.954 35.787 102.069 35.8103 102.176 35.857C102.283 35.9037 102.377 35.969 102.456 36.053C102.54 36.1323 102.605 36.228 102.652 36.34C102.703 36.4473 102.729 36.5617 102.729 36.683ZM105.723 38.909V43.431C105.723 43.9677 105.847 44.383 106.094 44.677C106.341 44.971 106.715 45.118 107.214 45.118C107.578 45.118 107.921 45.0317 108.243 44.859C108.565 44.6863 108.861 44.446 109.132 44.138V38.909H110.378V46H109.636C109.459 46 109.347 45.9137 109.3 45.741L109.202 44.978C108.894 45.3187 108.549 45.594 108.166 45.804C107.783 46.0093 107.345 46.112 106.85 46.112C106.463 46.112 106.12 46.049 105.821 45.923C105.527 45.7923 105.28 45.6103 105.079 45.377C104.878 45.1437 104.727 44.8613 104.624 44.53C104.526 44.1987 104.477 43.8323 104.477 43.431V38.909H105.723ZM112.424 46V38.909H113.166C113.344 38.909 113.456 38.9953 113.502 39.168L113.593 39.896C113.855 39.574 114.146 39.3103 114.468 39.105C114.795 38.8997 115.173 38.797 115.602 38.797C116.083 38.797 116.47 38.93 116.764 39.196C117.063 39.462 117.278 39.8213 117.408 40.274C117.506 40.0173 117.635 39.7957 117.793 39.609C117.957 39.4223 118.139 39.2683 118.339 39.147C118.54 39.0257 118.752 38.937 118.976 38.881C119.205 38.825 119.436 38.797 119.669 38.797C120.043 38.797 120.374 38.8577 120.663 38.979C120.957 39.0957 121.205 39.2683 121.405 39.497C121.611 39.7257 121.767 40.008 121.874 40.344C121.982 40.6753 122.035 41.0557 122.035 41.485V46H120.789V41.485C120.789 40.9297 120.668 40.5097 120.425 40.225C120.183 39.9357 119.83 39.791 119.368 39.791C119.163 39.791 118.967 39.8283 118.78 39.903C118.598 39.973 118.437 40.078 118.297 40.218C118.157 40.358 118.045 40.5353 117.961 40.75C117.882 40.96 117.842 41.205 117.842 41.485V46H116.596V41.485C116.596 40.9157 116.482 40.491 116.253 40.211C116.025 39.931 115.691 39.791 115.252 39.791C114.944 39.791 114.657 39.875 114.391 40.043C114.13 40.2063 113.89 40.4303 113.67 40.715V46H112.424Z" fill="white"/>
</svg>
