<svg width="456" height="303" viewBox="0 0 456 303" fill="none" xmlns="http://www.w3.org/2000/svg">
<path d="M0 302.1H456V9.15527e-05H0V302.1Z" fill="#D1D1D1"/>
<path d="M0 28.5H456V11.4H0V28.5Z" fill="#171717"/>
<rect x="15.39" y="66.1201" width="425.79" height="224.58" fill="white"/>
<rect x="15.39" y="66.1201" width="425.79" height="19.95" fill="#626262"/>
<rect x="15.39" y="107.73" width="425.79" height="19.95" fill="#F9F9F9"/>
<rect x="15.39" y="149.34" width="425.79" height="19.95" fill="#F9F9F9"/>
<rect x="15.39" y="191.52" width="425.79" height="19.95" fill="#F9F9F9"/>
<rect x="15.39" y="233.7" width="425.79" height="19.95" fill="#F9F9F9"/>
<rect x="26.22" y="94.6201" width="67.26" height="5.7" fill="#D1D1D1"/>
<rect x="26.22" y="114.57" width="55.86" height="5.7" fill="#D1D1D1"/>
<rect x="26.22" y="135.66" width="67.26" height="5.7" fill="#D1D1D1"/>
<rect x="26.22" y="156.18" width="55.86" height="5.7" fill="#D1D1D1"/>
<rect x="26.22" y="177.84" width="67.26" height="5.7" fill="#D1D1D1"/>
<rect x="26.22" y="198.93" width="67.26" height="5.7" fill="#D1D1D1"/>
<rect x="26.22" y="220.59" width="67.26" height="5.7" fill="#D1D1D1"/>
<rect x="26.22" y="241.11" width="55.86" height="5.7" fill="#D1D1D1"/>
<rect x="146.49" y="94.6201" width="67.26" height="5.7" fill="#D1D1D1"/>
<rect x="146.49" y="114.57" width="55.86" height="5.7" fill="#D1D1D1"/>
<rect x="146.49" y="135.66" width="67.26" height="5.7" fill="#D1D1D1"/>
<rect x="146.49" y="156.18" width="55.86" height="5.7" fill="#D1D1D1"/>
<rect x="146.49" y="177.84" width="67.26" height="5.7" fill="#D1D1D1"/>
<rect x="146.49" y="198.93" width="67.26" height="5.7" fill="#D1D1D1"/>
<rect x="146.49" y="220.59" width="67.26" height="5.7" fill="#D1D1D1"/>
<rect x="146.49" y="241.11" width="55.86" height="5.7" fill="#D1D1D1"/>
<rect x="243.96" y="94.6201" width="95.19" height="5.7" fill="#D1D1D1"/>
<rect x="243.96" y="114.57" width="95.19" height="5.7" fill="#D1D1D1"/>
<rect x="243.96" y="135.66" width="95.19" height="5.7" fill="#D1D1D1"/>
<rect x="243.96" y="156.18" width="95.19" height="5.7" fill="#D1D1D1"/>
<rect x="243.96" y="177.84" width="95.19" height="5.7" fill="#D1D1D1"/>
<rect x="243.96" y="198.93" width="95.19" height="5.7" fill="#D1D1D1"/>
<rect x="243.96" y="220.59" width="95.19" height="5.7" fill="#D1D1D1"/>
<rect x="243.96" y="241.11" width="95.19" height="5.7" fill="#D1D1D1"/>
<rect x="391.59" y="94.6201" width="38.19" height="5.7" fill="#D1D1D1"/>
<rect x="391.59" y="114.57" width="38.19" height="5.7" fill="#D1D1D1"/>
<rect x="391.59" y="135.66" width="38.19" height="5.7" fill="#D1D1D1"/>
<rect x="391.59" y="156.18" width="38.19" height="5.7" fill="#D1D1D1"/>
<rect x="391.59" y="177.84" width="38.19" height="5.7" fill="#D1D1D1"/>
<rect x="391.59" y="198.93" width="38.19" height="5.7" fill="#D1D1D1"/>
<rect x="391.59" y="220.59" width="38.19" height="5.7" fill="#D1D1D1"/>
<rect x="391.59" y="241.11" width="38.19" height="5.7" fill="#D1D1D1"/>
<rect x="359.6" y="91.1299" width="11.54" height="11.54" rx="3.5" fill="white" stroke="#D8D8D8"/>
<rect x="359.6" y="112.22" width="11.54" height="11.54" rx="3.5" fill="white" stroke="#D8D8D8"/>
<rect x="359.6" y="132.74" width="11.54" height="11.54" rx="3.5" fill="white" stroke="#D8D8D8"/>
<rect x="359.6" y="153.26" width="11.54" height="11.54" rx="3.5" fill="white" stroke="#D8D8D8"/>
<rect x="359.6" y="174.35" width="11.54" height="11.54" rx="3.5" fill="white" stroke="#D8D8D8"/>
<rect x="359.6" y="195.44" width="11.54" height="11.54" rx="3.5" fill="white" stroke="#D8D8D8"/>
<rect x="359.6" y="217.1" width="11.54" height="11.54" rx="3.5" fill="white" stroke="#D8D8D8"/>
<rect x="359.6" y="237.62" width="11.54" height="11.54" rx="3.5" fill="white" stroke="#D8D8D8"/>
<rect x="26.22" y="261.63" width="72.96" height="5.7" fill="#D1D1D1"/>
<rect x="146.49" y="261.63" width="55.86" height="5.7" fill="#D1D1D1"/>
<rect x="243.96" y="261.63" width="95.19" height="5.7" fill="#D1D1D1"/>
<rect x="391.59" y="261.63" width="38.19" height="5.7" fill="#D1D1D1"/>
<rect x="359.6" y="258.14" width="11.54" height="11.54" rx="3.5" fill="white" stroke="#D8D8D8"/>
<rect x="15.39" y="39.8999" width="47.88" height="14.82" rx="7.41" fill="#0064D1"/>
<rect x="68.4" y="39.8999" width="38.76" height="14.82" rx="7.41" fill="#E3E3E3"/>
<rect x="111.72" y="39.8999" width="45.6" height="14.82" rx="7.41" fill="#0064D1"/>
<rect x="161.31" y="39.8999" width="29.64" height="14.82" rx="7.41" fill="#E3E3E3"/>
</svg>
