<svg width="369" height="65" viewBox="0 0 369 65" fill="none" xmlns="http://www.w3.org/2000/svg">
<rect x="0.5" y="27.5" width="368" height="37" rx="3.5" stroke="#D8D8D8"/>
<path d="M11.328 10.272C11.328 11.1307 11.192 11.912 10.92 12.616C10.648 13.32 10.264 13.9227 9.768 14.424C9.272 14.9253 8.67733 15.3147 7.984 15.592C7.29067 15.864 6.52267 16 5.68 16H1.392V4.536H5.68C6.52267 4.536 7.29067 4.67467 7.984 4.952C8.67733 5.224 9.272 5.61333 9.768 6.12C10.264 6.62133 10.648 7.224 10.92 7.928C11.192 8.632 11.328 9.41333 11.328 10.272ZM9.736 10.272C9.736 9.568 9.64 8.93867 9.448 8.384C9.256 7.82933 8.984 7.36 8.632 6.976C8.28 6.592 7.85333 6.29867 7.352 6.096C6.85067 5.89333 6.29333 5.792 5.68 5.792H2.952V14.744H5.68C6.29333 14.744 6.85067 14.6427 7.352 14.44C7.85333 14.2373 8.28 13.9467 8.632 13.568C8.984 13.184 9.256 12.7147 9.448 12.16C9.64 11.6053 9.736 10.976 9.736 10.272ZM19.1669 16H18.5349C18.3962 16 18.2842 15.9787 18.1989 15.936C18.1135 15.8933 18.0575 15.8027 18.0309 15.664L17.8709 14.912C17.6575 15.104 17.4495 15.2773 17.2469 15.432C17.0442 15.5813 16.8309 15.7093 16.6069 15.816C16.3829 15.9173 16.1429 15.9947 15.8869 16.048C15.6362 16.1013 15.3562 16.128 15.0469 16.128C14.7322 16.128 14.4362 16.0853 14.1589 16C13.8869 15.9093 13.6495 15.776 13.4469 15.6C13.2442 15.424 13.0815 15.2027 12.9589 14.936C12.8415 14.664 12.7829 14.344 12.7829 13.976C12.7829 13.656 12.8709 13.3493 13.0469 13.056C13.2229 12.7573 13.5055 12.4933 13.8949 12.264C14.2895 12.0347 14.8042 11.848 15.4389 11.704C16.0735 11.5547 16.8495 11.4693 17.7669 11.448V10.816C17.7669 10.1867 17.6309 9.712 17.3589 9.392C17.0922 9.06667 16.6949 8.904 16.1669 8.904C15.8202 8.904 15.5269 8.94933 15.2869 9.04C15.0522 9.12533 14.8469 9.224 14.6709 9.336C14.5002 9.44267 14.3509 9.54133 14.2229 9.632C14.1002 9.71733 13.9775 9.76 13.8549 9.76C13.7589 9.76 13.6735 9.736 13.5989 9.688C13.5295 9.63467 13.4735 9.57067 13.4309 9.496L13.1749 9.04C13.6229 8.608 14.1055 8.28533 14.6229 8.072C15.1402 7.85867 15.7135 7.752 16.3429 7.752C16.7962 7.752 17.1989 7.82667 17.5509 7.976C17.9029 8.12533 18.1989 8.33333 18.4389 8.6C18.6789 8.86667 18.8602 9.18933 18.9829 9.568C19.1055 9.94667 19.1669 10.3627 19.1669 10.816V16ZM15.4709 15.128C15.7215 15.128 15.9509 15.104 16.1589 15.056C16.3669 15.0027 16.5615 14.9307 16.7429 14.84C16.9295 14.744 17.1055 14.6293 17.2709 14.496C17.4415 14.3627 17.6069 14.2107 17.7669 14.04V12.352C17.1109 12.3733 16.5535 12.4267 16.0949 12.512C15.6362 12.592 15.2629 12.6987 14.9749 12.832C14.6869 12.9653 14.4762 13.1227 14.3429 13.304C14.2149 13.4853 14.1509 13.688 14.1509 13.912C14.1509 14.1253 14.1855 14.3093 14.2549 14.464C14.3242 14.6187 14.4175 14.7467 14.5349 14.848C14.6522 14.944 14.7909 15.016 14.9509 15.064C15.1109 15.1067 15.2842 15.128 15.4709 15.128ZM23.7803 16.128C23.1403 16.128 22.6469 15.9493 22.3003 15.592C21.9589 15.2347 21.7883 14.72 21.7883 14.048V9.088H20.8123C20.7269 9.088 20.6549 9.064 20.5963 9.016C20.5376 8.96267 20.5083 8.88267 20.5083 8.776V8.208L21.8363 8.04L22.1643 5.536C22.1749 5.456 22.2096 5.392 22.2682 5.344C22.3269 5.29067 22.4016 5.264 22.4923 5.264H23.2123V8.056H25.5323V9.088H23.2123V13.952C23.2123 14.2933 23.2949 14.5467 23.4603 14.712C23.6256 14.8773 23.8389 14.96 24.1003 14.96C24.2496 14.96 24.3776 14.9413 24.4843 14.904C24.5963 14.8613 24.6923 14.816 24.7723 14.768C24.8523 14.72 24.9189 14.6773 24.9723 14.64C25.0309 14.5973 25.0816 14.576 25.1243 14.576C25.1989 14.576 25.2656 14.6213 25.3243 14.712L25.7403 15.392C25.4949 15.6213 25.1989 15.8027 24.8523 15.936C24.5056 16.064 24.1483 16.128 23.7803 16.128ZM33.245 16H32.613C32.4743 16 32.3623 15.9787 32.277 15.936C32.1917 15.8933 32.1357 15.8027 32.109 15.664L31.949 14.912C31.7357 15.104 31.5277 15.2773 31.325 15.432C31.1223 15.5813 30.909 15.7093 30.685 15.816C30.461 15.9173 30.221 15.9947 29.965 16.048C29.7143 16.1013 29.4343 16.128 29.125 16.128C28.8103 16.128 28.5143 16.0853 28.237 16C27.965 15.9093 27.7277 15.776 27.525 15.6C27.3223 15.424 27.1597 15.2027 27.037 14.936C26.9197 14.664 26.861 14.344 26.861 13.976C26.861 13.656 26.949 13.3493 27.125 13.056C27.301 12.7573 27.5837 12.4933 27.973 12.264C28.3677 12.0347 28.8823 11.848 29.517 11.704C30.1517 11.5547 30.9277 11.4693 31.845 11.448V10.816C31.845 10.1867 31.709 9.712 31.437 9.392C31.1703 9.06667 30.773 8.904 30.245 8.904C29.8983 8.904 29.605 8.94933 29.365 9.04C29.1303 9.12533 28.925 9.224 28.749 9.336C28.5783 9.44267 28.429 9.54133 28.301 9.632C28.1783 9.71733 28.0557 9.76 27.933 9.76C27.837 9.76 27.7517 9.736 27.677 9.688C27.6077 9.63467 27.5517 9.57067 27.509 9.496L27.253 9.04C27.701 8.608 28.1837 8.28533 28.701 8.072C29.2183 7.85867 29.7917 7.752 30.421 7.752C30.8743 7.752 31.277 7.82667 31.629 7.976C31.981 8.12533 32.277 8.33333 32.517 8.6C32.757 8.86667 32.9383 9.18933 33.061 9.568C33.1837 9.94667 33.245 10.3627 33.245 10.816V16ZM29.549 15.128C29.7997 15.128 30.029 15.104 30.237 15.056C30.445 15.0027 30.6397 14.9307 30.821 14.84C31.0077 14.744 31.1837 14.6293 31.349 14.496C31.5197 14.3627 31.685 14.2107 31.845 14.04V12.352C31.189 12.3733 30.6317 12.4267 30.173 12.512C29.7143 12.592 29.341 12.6987 29.053 12.832C28.765 12.9653 28.5543 13.1227 28.421 13.304C28.293 13.4853 28.229 13.688 28.229 13.912C28.229 14.1253 28.2637 14.3093 28.333 14.464C28.4023 14.6187 28.4957 14.7467 28.613 14.848C28.7303 14.944 28.869 15.016 29.029 15.064C29.189 15.1067 29.3623 15.128 29.549 15.128ZM40.0801 4.216V16H38.6561V4.216H40.0801ZM48.5419 16H47.9099C47.7712 16 47.6592 15.9787 47.5739 15.936C47.4885 15.8933 47.4325 15.8027 47.4059 15.664L47.2459 14.912C47.0325 15.104 46.8245 15.2773 46.6219 15.432C46.4192 15.5813 46.2059 15.7093 45.9819 15.816C45.7579 15.9173 45.5179 15.9947 45.2619 16.048C45.0112 16.1013 44.7312 16.128 44.4219 16.128C44.1072 16.128 43.8112 16.0853 43.5339 16C43.2619 15.9093 43.0245 15.776 42.8219 15.6C42.6192 15.424 42.4565 15.2027 42.3339 14.936C42.2165 14.664 42.1579 14.344 42.1579 13.976C42.1579 13.656 42.2459 13.3493 42.4219 13.056C42.5979 12.7573 42.8805 12.4933 43.2699 12.264C43.6645 12.0347 44.1792 11.848 44.8139 11.704C45.4485 11.5547 46.2245 11.4693 47.1419 11.448V10.816C47.1419 10.1867 47.0059 9.712 46.7339 9.392C46.4672 9.06667 46.0699 8.904 45.5419 8.904C45.1952 8.904 44.9019 8.94933 44.6619 9.04C44.4272 9.12533 44.2219 9.224 44.0459 9.336C43.8752 9.44267 43.7259 9.54133 43.5979 9.632C43.4752 9.71733 43.3525 9.76 43.2299 9.76C43.1339 9.76 43.0485 9.736 42.9739 9.688C42.9045 9.63467 42.8485 9.57067 42.8059 9.496L42.5499 9.04C42.9979 8.608 43.4805 8.28533 43.9979 8.072C44.5152 7.85867 45.0885 7.752 45.7179 7.752C46.1712 7.752 46.5739 7.82667 46.9259 7.976C47.2779 8.12533 47.5739 8.33333 47.8139 8.6C48.0539 8.86667 48.2352 9.18933 48.3579 9.568C48.4805 9.94667 48.5419 10.3627 48.5419 10.816V16ZM44.8459 15.128C45.0965 15.128 45.3259 15.104 45.5339 15.056C45.7419 15.0027 45.9365 14.9307 46.1179 14.84C46.3045 14.744 46.4805 14.6293 46.6459 14.496C46.8165 14.3627 46.9819 14.2107 47.1419 14.04V12.352C46.4859 12.3733 45.9285 12.4267 45.4699 12.512C45.0112 12.592 44.6379 12.6987 44.3499 12.832C44.0619 12.9653 43.8512 13.1227 43.7179 13.304C43.5899 13.4853 43.5259 13.688 43.5259 13.912C43.5259 14.1253 43.5605 14.3093 43.6299 14.464C43.6992 14.6187 43.7925 14.7467 43.9099 14.848C44.0272 14.944 44.1659 15.016 44.3259 15.064C44.4859 15.1067 44.6592 15.128 44.8459 15.128ZM50.7473 16V4.216H52.1793V9.064C52.5153 8.67467 52.8993 8.36267 53.3313 8.128C53.7686 7.888 54.2673 7.768 54.8273 7.768C55.2966 7.768 55.7206 7.856 56.0993 8.032C56.4779 8.208 56.8006 8.472 57.0673 8.824C57.3339 9.17067 57.5393 9.60267 57.6833 10.12C57.8273 10.632 57.8993 11.224 57.8993 11.896C57.8993 12.4933 57.8193 13.0507 57.6593 13.568C57.4993 14.08 57.2673 14.5253 56.9633 14.904C56.6646 15.2773 56.2966 15.5733 55.8593 15.792C55.4273 16.0053 54.9393 16.112 54.3953 16.112C53.8726 16.112 53.4273 16.0107 53.0593 15.808C52.6966 15.6053 52.3793 15.3227 52.1073 14.96L52.0353 15.696C51.9926 15.8987 51.8699 16 51.6673 16H50.7473ZM54.3633 8.904C53.8993 8.904 53.4913 9.01067 53.1393 9.224C52.7926 9.43733 52.4726 9.73867 52.1793 10.128V14.048C52.4353 14.4 52.7179 14.648 53.0273 14.792C53.3419 14.936 53.6913 15.008 54.0753 15.008C54.8326 15.008 55.4139 14.7387 55.8193 14.2C56.2246 13.6613 56.4273 12.8933 56.4273 11.896C56.4273 11.368 56.3793 10.9147 56.2833 10.536C56.1926 10.1573 56.0593 9.848 55.8833 9.608C55.7073 9.36267 55.4913 9.184 55.2353 9.072C54.9793 8.96 54.6886 8.904 54.3633 8.904ZM62.8448 7.768C63.3301 7.768 63.7781 7.85067 64.1888 8.016C64.5994 8.176 64.9541 8.41067 65.2528 8.72C65.5514 9.024 65.7834 9.40267 65.9488 9.856C66.1194 10.304 66.2048 10.816 66.2048 11.392C66.2048 11.616 66.1808 11.7653 66.1328 11.84C66.0848 11.9147 65.9941 11.952 65.8608 11.952H60.4688C60.4794 12.464 60.5488 12.9093 60.6768 13.288C60.8048 13.6667 60.9808 13.984 61.2048 14.24C61.4288 14.4907 61.6954 14.68 62.0048 14.808C62.3141 14.9307 62.6608 14.992 63.0448 14.992C63.4021 14.992 63.7088 14.952 63.9648 14.872C64.2261 14.7867 64.4501 14.696 64.6368 14.6C64.8234 14.504 64.9781 14.416 65.1008 14.336C65.2288 14.2507 65.3381 14.208 65.4288 14.208C65.5461 14.208 65.6368 14.2533 65.7008 14.344L66.1008 14.864C65.9248 15.0773 65.7141 15.264 65.4688 15.424C65.2234 15.5787 64.9594 15.7067 64.6768 15.808C64.3994 15.9093 64.1114 15.984 63.8128 16.032C63.5141 16.0853 63.2181 16.112 62.9248 16.112C62.3648 16.112 61.8474 16.0187 61.3728 15.832C60.9034 15.64 60.4954 15.3627 60.1488 15C59.8074 14.632 59.5408 14.1787 59.3488 13.64C59.1568 13.1013 59.0608 12.4827 59.0608 11.784C59.0608 11.2187 59.1461 10.6907 59.3168 10.2C59.4928 9.70933 59.7434 9.28533 60.0688 8.928C60.3941 8.56533 60.7914 8.28267 61.2608 8.08C61.7301 7.872 62.2581 7.768 62.8448 7.768ZM62.8767 8.816C62.1888 8.816 61.6474 9.016 61.2528 9.416C60.8581 9.81067 60.6128 10.36 60.5168 11.064H64.9248C64.9248 10.7333 64.8794 10.432 64.7888 10.16C64.6981 9.88267 64.5648 9.64533 64.3888 9.448C64.2128 9.24533 63.9968 9.09067 63.7408 8.984C63.4901 8.872 63.2021 8.816 62.8767 8.816ZM69.6114 4.216V16H68.1874V4.216H69.6114Z" fill="black"/>
<path d="M21.8 46.272C21.8 47.2747 21.6907 48.144 21.472 48.88C21.2587 49.6107 20.9653 50.216 20.592 50.696C20.2187 51.176 19.776 51.5333 19.264 51.768C18.7573 52.0027 18.2133 52.12 17.632 52.12C17.0453 52.12 16.4987 52.0027 15.992 51.768C15.4907 51.5333 15.0533 51.176 14.68 50.696C14.3067 50.216 14.0133 49.6107 13.8 48.88C13.5867 48.144 13.48 47.2747 13.48 46.272C13.48 45.2693 13.5867 44.4 13.8 43.664C14.0133 42.928 14.3067 42.32 14.68 41.84C15.0533 41.3547 15.4907 40.9947 15.992 40.76C16.4987 40.5253 17.0453 40.408 17.632 40.408C18.2133 40.408 18.7573 40.5253 19.264 40.76C19.776 40.9947 20.2187 41.3547 20.592 41.84C20.9653 42.32 21.2587 42.928 21.472 43.664C21.6907 44.4 21.8 45.2693 21.8 46.272ZM20.32 46.272C20.32 45.3973 20.2453 44.664 20.096 44.072C19.952 43.4747 19.7547 42.9947 19.504 42.632C19.2587 42.2693 18.9733 42.0107 18.648 41.856C18.3227 41.696 17.984 41.616 17.632 41.616C17.28 41.616 16.9413 41.696 16.616 41.856C16.2907 42.0107 16.0053 42.2693 15.76 42.632C15.5147 42.9947 15.3173 43.4747 15.168 44.072C15.024 44.664 14.952 45.3973 14.952 46.272C14.952 47.1467 15.024 47.88 15.168 48.472C15.3173 49.064 15.5147 49.5413 15.76 49.904C16.0053 50.2667 16.2907 50.528 16.616 50.688C16.9413 50.8427 17.28 50.92 17.632 50.92C17.984 50.92 18.3227 50.8427 18.648 50.688C18.9733 50.528 19.2587 50.2667 19.504 49.904C19.7547 49.5413 19.952 49.064 20.096 48.472C20.2453 47.88 20.32 47.1467 20.32 46.272ZM26.6733 47.296C26.2413 47.296 25.8306 47.224 25.4413 47.08C25.0573 46.936 24.7186 46.7253 24.4253 46.448C24.1319 46.1653 23.8973 45.8213 23.7213 45.416C23.5506 45.0053 23.4653 44.536 23.4653 44.008C23.4653 43.5067 23.5586 43.0373 23.7453 42.6C23.9319 42.1627 24.1933 41.7813 24.5293 41.456C24.8653 41.1307 25.2653 40.8747 25.7293 40.688C26.1933 40.5013 26.7026 40.408 27.2573 40.408C27.8066 40.408 28.3053 40.4987 28.7533 40.68C29.2013 40.8613 29.5853 41.1147 29.9053 41.44C30.2253 41.7653 30.4706 42.1547 30.6413 42.608C30.8173 43.0613 30.9053 43.5627 30.9053 44.112C30.9053 44.4427 30.8733 44.7573 30.8093 45.056C30.7506 45.3493 30.6626 45.6373 30.5452 45.92C30.4279 46.2027 30.2866 46.4853 30.1213 46.768C29.9613 47.0453 29.7773 47.3333 29.5693 47.632L26.7773 51.664C26.7079 51.7653 26.6093 51.848 26.4813 51.912C26.3533 51.9707 26.2066 52 26.0413 52H24.7293L28.2173 47.432C28.3346 47.2773 28.4439 47.1307 28.5453 46.992C28.6466 46.8533 28.7426 46.7147 28.8333 46.576C28.5399 46.8107 28.2093 46.9893 27.8413 47.112C27.4733 47.2347 27.0839 47.296 26.6733 47.296ZM29.5373 43.944C29.5373 43.5867 29.4786 43.264 29.3613 42.976C29.2493 42.6827 29.0919 42.4347 28.8893 42.232C28.6866 42.0293 28.4439 41.8747 28.1613 41.768C27.8839 41.656 27.5773 41.6 27.2413 41.6C26.8893 41.6 26.5666 41.6587 26.2733 41.776C25.9853 41.888 25.7373 42.0453 25.5293 42.248C25.3266 42.4507 25.1693 42.6933 25.0573 42.976C24.9453 43.2587 24.8893 43.568 24.8893 43.904C24.8893 44.2667 24.9399 44.592 25.0413 44.88C25.1479 45.1627 25.2973 45.4027 25.4893 45.6C25.6866 45.7973 25.9239 45.9467 26.2013 46.048C26.4839 46.1493 26.7986 46.2 27.1453 46.2C27.5293 46.2 27.8679 46.1387 28.1613 46.016C28.4599 45.888 28.7106 45.72 28.9133 45.512C29.1159 45.304 29.2706 45.064 29.3773 44.792C29.4839 44.52 29.5373 44.2373 29.5373 43.944ZM32.8505 52.168C32.7758 52.3547 32.6638 52.4933 32.5145 52.584C32.3705 52.6747 32.2212 52.72 32.0665 52.72H31.4665L36.2745 40.744C36.3438 40.5733 36.4425 40.4427 36.5705 40.352C36.6985 40.2613 36.8505 40.216 37.0265 40.216H37.6265L32.8505 52.168ZM46.3313 46.272C46.3313 47.2747 46.2219 48.144 46.0033 48.88C45.7899 49.6107 45.4966 50.216 45.1233 50.696C44.7499 51.176 44.3073 51.5333 43.7953 51.768C43.2886 52.0027 42.7446 52.12 42.1633 52.12C41.5766 52.12 41.0299 52.0027 40.5233 51.768C40.0219 51.5333 39.5846 51.176 39.2113 50.696C38.8379 50.216 38.5446 49.6107 38.3313 48.88C38.1179 48.144 38.0113 47.2747 38.0113 46.272C38.0113 45.2693 38.1179 44.4 38.3313 43.664C38.5446 42.928 38.8379 42.32 39.2113 41.84C39.5846 41.3547 40.0219 40.9947 40.5233 40.76C41.0299 40.5253 41.5766 40.408 42.1633 40.408C42.7446 40.408 43.2886 40.5253 43.7953 40.76C44.3073 40.9947 44.7499 41.3547 45.1233 41.84C45.4966 42.32 45.7899 42.928 46.0033 43.664C46.2219 44.4 46.3313 45.2693 46.3313 46.272ZM44.8513 46.272C44.8513 45.3973 44.7766 44.664 44.6273 44.072C44.4833 43.4747 44.2859 42.9947 44.0353 42.632C43.7899 42.2693 43.5046 42.0107 43.1793 41.856C42.8539 41.696 42.5153 41.616 42.1633 41.616C41.8113 41.616 41.4726 41.696 41.1473 41.856C40.8219 42.0107 40.5366 42.2693 40.2913 42.632C40.0459 42.9947 39.8486 43.4747 39.6993 44.072C39.5553 44.664 39.4833 45.3973 39.4833 46.272C39.4833 47.1467 39.5553 47.88 39.6993 48.472C39.8486 49.064 40.0459 49.5413 40.2913 49.904C40.5366 50.2667 40.8219 50.528 41.1473 50.688C41.4726 50.8427 41.8113 50.92 42.1633 50.92C42.5153 50.92 42.8539 50.8427 43.1793 50.688C43.5046 50.528 43.7899 50.2667 44.0353 49.904C44.2859 49.5413 44.4833 49.064 44.6273 48.472C44.7766 47.88 44.8513 47.1467 44.8513 46.272ZM55.4845 40.536V41.176C55.4845 41.3573 55.4632 41.5067 55.4205 41.624C55.3832 41.7413 55.3432 41.84 55.3005 41.92L50.5565 51.496C50.4872 51.6347 50.3912 51.7547 50.2685 51.856C50.1458 51.952 49.9805 52 49.7725 52H48.7565L53.5725 42.544C53.6418 42.4107 53.7112 42.288 53.7805 42.176C53.8552 42.064 53.9378 41.9573 54.0285 41.856H48.0445C47.9538 41.856 47.8712 41.8213 47.7965 41.752C47.7272 41.6773 47.6925 41.5947 47.6925 41.504V40.536H55.4845ZM57.3818 52.168C57.3071 52.3547 57.1951 52.4933 57.0458 52.584C56.9018 52.6747 56.7524 52.72 56.5978 52.72H55.9977L60.8058 40.744C60.8751 40.5733 60.9738 40.4427 61.1018 40.352C61.2298 40.2613 61.3818 40.216 61.5578 40.216H62.1578L57.3818 52.168ZM66.8705 40.408C67.3558 40.408 67.8092 40.48 68.2305 40.624C68.6518 40.768 69.0145 40.9787 69.3185 41.256C69.6278 41.528 69.8705 41.8613 70.0465 42.256C70.2225 42.6507 70.3105 43.0987 70.3105 43.6C70.3105 44.0267 70.2465 44.4213 70.1185 44.784C69.9905 45.1467 69.8172 45.496 69.5985 45.832C69.3798 46.1627 69.1265 46.4853 68.8385 46.8C68.5558 47.1093 68.2545 47.4267 67.9345 47.752L64.9185 50.84C65.1318 50.7813 65.3478 50.736 65.5665 50.704C65.7852 50.6667 65.9958 50.648 66.1985 50.648H70.0385C70.1932 50.648 70.3158 50.6933 70.4065 50.784C70.4972 50.8747 70.5425 50.992 70.5425 51.136V52H62.8945V51.512C62.8945 51.4107 62.9132 51.3067 62.9505 51.2C62.9932 51.0933 63.0598 50.9947 63.1505 50.904L66.8225 47.216C67.1265 46.9067 67.4038 46.6107 67.6545 46.328C67.9052 46.04 68.1185 45.752 68.2945 45.464C68.4758 45.176 68.6145 44.8853 68.7105 44.592C68.8065 44.2933 68.8545 43.976 68.8545 43.64C68.8545 43.304 68.8012 43.0107 68.6945 42.76C68.5878 42.504 68.4412 42.2933 68.2545 42.128C68.0678 41.9627 67.8492 41.84 67.5985 41.76C67.3478 41.6747 67.0785 41.632 66.7905 41.632C66.5025 41.632 66.2358 41.6747 65.9905 41.76C65.7452 41.8453 65.5265 41.9653 65.3345 42.12C65.1478 42.2693 64.9878 42.448 64.8545 42.656C64.7265 42.864 64.6358 43.0933 64.5825 43.344C64.5398 43.4987 64.4758 43.6107 64.3905 43.68C64.3052 43.7493 64.1932 43.784 64.0545 43.784C64.0278 43.784 63.9985 43.784 63.9665 43.784C63.9398 43.7787 63.9078 43.7733 63.8705 43.768L63.1265 43.64C63.2012 43.1173 63.3452 42.656 63.5585 42.256C63.7718 41.8507 64.0412 41.512 64.3665 41.24C64.6972 40.968 65.0732 40.7627 65.4945 40.624C65.9212 40.48 66.3798 40.408 66.8705 40.408ZM80.1438 46.272C80.1438 47.2747 80.0344 48.144 79.8158 48.88C79.6024 49.6107 79.3091 50.216 78.9358 50.696C78.5624 51.176 78.1198 51.5333 77.6078 51.768C77.1011 52.0027 76.5571 52.12 75.9758 52.12C75.3891 52.12 74.8424 52.0027 74.3358 51.768C73.8344 51.5333 73.3971 51.176 73.0238 50.696C72.6504 50.216 72.3571 49.6107 72.1438 48.88C71.9304 48.144 71.8238 47.2747 71.8238 46.272C71.8238 45.2693 71.9304 44.4 72.1438 43.664C72.3571 42.928 72.6504 42.32 73.0238 41.84C73.3971 41.3547 73.8344 40.9947 74.3358 40.76C74.8424 40.5253 75.3891 40.408 75.9758 40.408C76.5571 40.408 77.1011 40.5253 77.6078 40.76C78.1198 40.9947 78.5624 41.3547 78.9358 41.84C79.3091 42.32 79.6024 42.928 79.8158 43.664C80.0344 44.4 80.1438 45.2693 80.1438 46.272ZM78.6638 46.272C78.6638 45.3973 78.5891 44.664 78.4398 44.072C78.2958 43.4747 78.0984 42.9947 77.8478 42.632C77.6024 42.2693 77.3171 42.0107 76.9918 41.856C76.6664 41.696 76.3278 41.616 75.9758 41.616C75.6238 41.616 75.2851 41.696 74.9598 41.856C74.6344 42.0107 74.3491 42.2693 74.1038 42.632C73.8584 42.9947 73.6611 43.4747 73.5118 44.072C73.3678 44.664 73.2958 45.3973 73.2958 46.272C73.2958 47.1467 73.3678 47.88 73.5118 48.472C73.6611 49.064 73.8584 49.5413 74.1038 49.904C74.3491 50.2667 74.6344 50.528 74.9598 50.688C75.2851 50.8427 75.6238 50.92 75.9758 50.92C76.3278 50.92 76.6664 50.8427 76.9918 50.688C77.3171 50.528 77.6024 50.2667 77.8478 49.904C78.0984 49.5413 78.2958 49.064 78.4398 48.472C78.5891 47.88 78.6638 47.1467 78.6638 46.272ZM89.425 46.272C89.425 47.2747 89.3157 48.144 89.097 48.88C88.8837 49.6107 88.5903 50.216 88.217 50.696C87.8437 51.176 87.401 51.5333 86.889 51.768C86.3823 52.0027 85.8383 52.12 85.257 52.12C84.6703 52.12 84.1237 52.0027 83.617 51.768C83.1157 51.5333 82.6783 51.176 82.305 50.696C81.9317 50.216 81.6383 49.6107 81.425 48.88C81.2117 48.144 81.105 47.2747 81.105 46.272C81.105 45.2693 81.2117 44.4 81.425 43.664C81.6383 42.928 81.9317 42.32 82.305 41.84C82.6783 41.3547 83.1157 40.9947 83.617 40.76C84.1237 40.5253 84.6703 40.408 85.257 40.408C85.8383 40.408 86.3823 40.5253 86.889 40.76C87.401 40.9947 87.8437 41.3547 88.217 41.84C88.5903 42.32 88.8837 42.928 89.097 43.664C89.3157 44.4 89.425 45.2693 89.425 46.272ZM87.945 46.272C87.945 45.3973 87.8703 44.664 87.721 44.072C87.577 43.4747 87.3797 42.9947 87.129 42.632C86.8837 42.2693 86.5983 42.0107 86.273 41.856C85.9477 41.696 85.609 41.616 85.257 41.616C84.905 41.616 84.5663 41.696 84.241 41.856C83.9157 42.0107 83.6303 42.2693 83.385 42.632C83.1397 42.9947 82.9423 43.4747 82.793 44.072C82.649 44.664 82.577 45.3973 82.577 46.272C82.577 47.1467 82.649 47.88 82.793 48.472C82.9423 49.064 83.1397 49.5413 83.385 49.904C83.6303 50.2667 83.9157 50.528 84.241 50.688C84.5663 50.8427 84.905 50.92 85.257 50.92C85.609 50.92 85.9477 50.8427 86.273 50.688C86.5983 50.528 86.8837 50.2667 87.129 49.904C87.3797 49.5413 87.577 49.064 87.721 48.472C87.8703 47.88 87.945 47.1467 87.945 46.272ZM94.7143 40.408C95.1996 40.408 95.6529 40.48 96.0743 40.624C96.4956 40.768 96.8583 40.9787 97.1623 41.256C97.4716 41.528 97.7143 41.8613 97.8903 42.256C98.0663 42.6507 98.1543 43.0987 98.1543 43.6C98.1543 44.0267 98.0903 44.4213 97.9623 44.784C97.8343 45.1467 97.6609 45.496 97.4423 45.832C97.2236 46.1627 96.9703 46.4853 96.6823 46.8C96.3996 47.1093 96.0983 47.4267 95.7783 47.752L92.7623 50.84C92.9756 50.7813 93.1916 50.736 93.4103 50.704C93.6289 50.6667 93.8396 50.648 94.0423 50.648H97.8823C98.0369 50.648 98.1596 50.6933 98.2503 50.784C98.3409 50.8747 98.3863 50.992 98.3863 51.136V52H90.7383V51.512C90.7383 51.4107 90.7569 51.3067 90.7943 51.2C90.8369 51.0933 90.9036 50.9947 90.9943 50.904L94.6663 47.216C94.9703 46.9067 95.2476 46.6107 95.4983 46.328C95.7489 46.04 95.9623 45.752 96.1383 45.464C96.3196 45.176 96.4583 44.8853 96.5543 44.592C96.6503 44.2933 96.6983 43.976 96.6983 43.64C96.6983 43.304 96.6449 43.0107 96.5383 42.76C96.4316 42.504 96.2849 42.2933 96.0983 42.128C95.9116 41.9627 95.6929 41.84 95.4423 41.76C95.1916 41.6747 94.9223 41.632 94.6343 41.632C94.3463 41.632 94.0796 41.6747 93.8343 41.76C93.5889 41.8453 93.3703 41.9653 93.1783 42.12C92.9916 42.2693 92.8316 42.448 92.6983 42.656C92.5703 42.864 92.4796 43.0933 92.4263 43.344C92.3836 43.4987 92.3196 43.6107 92.2343 43.68C92.1489 43.7493 92.0369 43.784 91.8983 43.784C91.8716 43.784 91.8423 43.784 91.8103 43.784C91.7836 43.7787 91.7516 43.7733 91.7143 43.768L90.9703 43.64C91.0449 43.1173 91.1889 42.656 91.4023 42.256C91.6156 41.8507 91.8849 41.512 92.2103 41.24C92.5409 40.968 92.9169 40.7627 93.3383 40.624C93.7649 40.48 94.2236 40.408 94.7143 40.408Z" fill="black"/>
<path fill-rule="evenodd" clip-rule="evenodd" d="M341.679 36.0836C341.607 36.1281 341.516 36.2326 341.476 36.3157C341.42 36.4339 341.405 36.665 341.405 37.3762V38.2857H340.729C340.265 38.2857 339.956 38.31 339.741 38.3633C339.569 38.406 339.322 38.4947 339.191 38.5604C339.06 38.626 338.834 38.8023 338.687 38.9521C338.54 39.1018 338.365 39.3229 338.298 39.4434C338.231 39.5639 338.136 39.7759 338.088 39.9146C338.004 40.1545 338 40.4609 338 46.2857C338 52.1105 338.004 52.4169 338.088 52.6569C338.136 52.7955 338.231 53.0086 338.299 53.1304C338.368 53.2521 338.547 53.4755 338.698 53.6267C338.849 53.7778 339.08 53.956 339.212 54.0225C339.343 54.0891 339.585 54.1752 339.749 54.2139C340.004 54.274 340.917 54.2844 346.003 54.285C351.635 54.2857 351.977 54.281 352.293 54.1981C352.476 54.1499 352.719 54.0553 352.832 53.9879C352.945 53.9205 353.145 53.7618 353.276 53.6351C353.408 53.5084 353.575 53.3107 353.649 53.1957C353.722 53.0806 353.831 52.8449 353.891 52.6719L354 52.3571V46.2857C354 40.6245 353.994 40.1966 353.916 39.9524C353.87 39.8083 353.774 39.5887 353.702 39.4642C353.63 39.3398 353.455 39.1195 353.313 38.9747C353.17 38.8298 352.945 38.6501 352.813 38.5753C352.68 38.5005 352.431 38.4047 352.259 38.3625C352.046 38.3102 351.731 38.2857 351.271 38.2857H350.595L350.594 37.4643C350.593 37.0125 350.573 36.5571 350.549 36.4524C350.523 36.3385 350.446 36.2092 350.359 36.131C350.25 36.0334 350.163 36 350.019 36C349.912 36 349.762 36.0366 349.687 36.0812C349.611 36.1259 349.517 36.231 349.477 36.3146C349.42 36.4341 349.405 36.6621 349.405 37.3762V38.2857H346H342.595L342.594 37.4643C342.593 37.0125 342.573 36.5571 342.549 36.4524C342.523 36.3385 342.446 36.2092 342.359 36.131C342.247 36.031 342.165 36.0003 342.011 36.0013C341.9 36.002 341.751 36.039 341.679 36.0836ZM351.934 39.4769C352.078 39.5039 352.274 39.5854 352.381 39.6621C352.486 39.7378 352.625 39.9023 352.69 40.029C352.799 40.2394 352.811 40.3209 352.826 40.9866L352.842 41.7143H346.004H339.167V41.0058C339.167 40.5041 339.186 40.2505 339.234 40.1368C339.271 40.0484 339.346 39.9188 339.401 39.8486C339.456 39.7785 339.575 39.6758 339.664 39.6205C339.754 39.5652 339.92 39.5017 340.033 39.4795C340.146 39.4572 342.812 39.4367 345.958 39.4338C349.645 39.4304 351.769 39.4457 351.934 39.4769ZM342.833 44.1429V45.4286H341H339.167V44.1429V42.8571H341H342.833V44.1429ZM347.976 44.1429V45.4286H346H344.024V44.1429V42.8571H346H347.976V44.1429ZM352.833 44.1429V45.4286H351H349.167V44.1429V42.8571H351H352.833V44.1429ZM342.833 48V49.4286H341H339.167V48V46.5714H341H342.833V48ZM347.976 48V49.4286H346H344.024V48V46.5714H346H347.976V48ZM352.833 48V49.4286H351H349.167V48V46.5714H351H352.833V48ZM342.833 51.8609V53.1503L341.417 53.1332C340.176 53.1183 339.975 53.1054 339.798 53.0294C339.687 52.9816 339.532 52.869 339.453 52.779C339.374 52.6891 339.277 52.5387 339.238 52.4448C339.184 52.3148 339.167 52.0712 339.167 51.4228V50.5714H341H342.833V51.8609ZM347.976 51.8571V53.1429H346H344.024V51.8571V50.5714H346H347.976V51.8571ZM352.833 51.3496C352.833 51.8716 352.812 52.1991 352.768 52.3447C352.732 52.4641 352.645 52.6371 352.575 52.7292C352.505 52.8213 352.347 52.9464 352.224 53.0072C352.007 53.1141 351.953 53.1183 350.583 53.134L349.167 53.1503V51.8609V50.5714H351H352.833V51.3496Z" fill="#AAAAAA"/>
</svg>
