<svg width="191" height="38" viewBox="0 0 191 38" fill="none" xmlns="http://www.w3.org/2000/svg">
<rect x="0.5" y="0.5" width="139" height="37" rx="3.5" fill="white" stroke="#D8D8D8"/>
<path d="M100.5 0.5H39.5V37.5H100.5V0.5Z" fill="white" stroke="#D8D8D8"/>
<path d="M113.9 18H125.9V20H113.9V18Z" fill="#979797"/>
<path d="M120.9 13V25H118.9V13H120.9Z" fill="#979797"/>
<path d="M13.9 18H25.9V20H13.9V18Z" fill="#979797"/>
<path d="M67.296 22.912H69.76V15.096C69.76 14.8613 69.768 14.624 69.784 14.384L67.736 16.136C67.6827 16.1787 67.6293 16.2107 67.576 16.232C67.5227 16.248 67.472 16.256 67.424 16.256C67.344 16.256 67.272 16.24 67.208 16.208C67.144 16.1707 67.096 16.128 67.064 16.08L66.616 15.464L70.024 12.512H71.184V22.912H73.44V24H67.296V22.912Z" fill="black"/>
<path d="M166.328 18.272C166.328 19.1307 166.192 19.912 165.92 20.616C165.648 21.32 165.264 21.9227 164.768 22.424C164.272 22.9253 163.677 23.3147 162.984 23.592C162.291 23.864 161.523 24 160.68 24H156.392V12.536H160.68C161.523 12.536 162.291 12.6747 162.984 12.952C163.677 13.224 164.272 13.6133 164.768 14.12C165.264 14.6213 165.648 15.224 165.92 15.928C166.192 16.632 166.328 17.4133 166.328 18.272ZM164.736 18.272C164.736 17.568 164.64 16.9387 164.448 16.384C164.256 15.8293 163.984 15.36 163.632 14.976C163.28 14.592 162.853 14.2987 162.352 14.096C161.851 13.8933 161.293 13.792 160.68 13.792H157.952V22.744H160.68C161.293 22.744 161.851 22.6427 162.352 22.44C162.853 22.2373 163.28 21.9467 163.632 21.568C163.984 21.184 164.256 20.7147 164.448 20.16C164.64 19.6053 164.736 18.976 164.736 18.272ZM174.167 24H173.535C173.396 24 173.284 23.9787 173.199 23.936C173.114 23.8933 173.058 23.8027 173.031 23.664L172.871 22.912C172.658 23.104 172.45 23.2773 172.247 23.432C172.044 23.5813 171.831 23.7093 171.607 23.816C171.383 23.9173 171.143 23.9947 170.887 24.048C170.636 24.1013 170.356 24.128 170.047 24.128C169.732 24.128 169.436 24.0853 169.159 24C168.887 23.9093 168.65 23.776 168.447 23.6C168.244 23.424 168.082 23.2027 167.959 22.936C167.842 22.664 167.783 22.344 167.783 21.976C167.783 21.656 167.871 21.3493 168.047 21.056C168.223 20.7573 168.506 20.4933 168.895 20.264C169.29 20.0347 169.804 19.848 170.439 19.704C171.074 19.5547 171.85 19.4693 172.767 19.448V18.816C172.767 18.1867 172.631 17.712 172.359 17.392C172.092 17.0667 171.695 16.904 171.167 16.904C170.82 16.904 170.527 16.9493 170.287 17.04C170.052 17.1253 169.847 17.224 169.671 17.336C169.5 17.4427 169.351 17.5413 169.223 17.632C169.1 17.7173 168.978 17.76 168.855 17.76C168.759 17.76 168.674 17.736 168.599 17.688C168.53 17.6347 168.474 17.5707 168.431 17.496L168.175 17.04C168.623 16.608 169.106 16.2853 169.623 16.072C170.14 15.8587 170.714 15.752 171.343 15.752C171.796 15.752 172.199 15.8267 172.551 15.976C172.903 16.1253 173.199 16.3333 173.439 16.6C173.679 16.8667 173.86 17.1893 173.983 17.568C174.106 17.9467 174.167 18.3627 174.167 18.816V24ZM170.471 23.128C170.722 23.128 170.951 23.104 171.159 23.056C171.367 23.0027 171.562 22.9307 171.743 22.84C171.93 22.744 172.106 22.6293 172.271 22.496C172.442 22.3627 172.607 22.2107 172.767 22.04V20.352C172.111 20.3733 171.554 20.4267 171.095 20.512C170.636 20.592 170.263 20.6987 169.975 20.832C169.687 20.9653 169.476 21.1227 169.343 21.304C169.215 21.4853 169.151 21.688 169.151 21.912C169.151 22.1253 169.186 22.3093 169.255 22.464C169.324 22.6187 169.418 22.7467 169.535 22.848C169.652 22.944 169.791 23.016 169.951 23.064C170.111 23.1067 170.284 23.128 170.471 23.128ZM178.45 26.392C178.402 26.4987 178.341 26.584 178.266 26.648C178.197 26.712 178.088 26.744 177.938 26.744H176.882L178.362 23.528L175.018 15.896H176.25C176.373 15.896 176.469 15.928 176.538 15.992C176.608 16.0507 176.658 16.1173 176.69 16.192L178.858 21.296C178.906 21.4133 178.946 21.5307 178.978 21.648C179.016 21.7653 179.048 21.8853 179.074 22.008C179.112 21.8853 179.149 21.7653 179.186 21.648C179.224 21.5307 179.266 21.4107 179.314 21.288L181.418 16.192C181.45 16.1067 181.504 16.0373 181.578 15.984C181.658 15.9253 181.744 15.896 181.834 15.896H182.97L178.45 26.392ZM188.902 17.232C188.838 17.3493 188.739 17.408 188.606 17.408C188.526 17.408 188.435 17.3787 188.334 17.32C188.232 17.2613 188.107 17.1973 187.958 17.128C187.814 17.0533 187.64 16.9867 187.438 16.928C187.235 16.864 186.995 16.832 186.718 16.832C186.478 16.832 186.262 16.864 186.07 16.928C185.878 16.9867 185.712 17.0693 185.574 17.176C185.44 17.2827 185.336 17.408 185.262 17.552C185.192 17.6907 185.158 17.8427 185.158 18.008C185.158 18.216 185.216 18.3893 185.334 18.528C185.456 18.6667 185.616 18.7867 185.814 18.888C186.011 18.9893 186.235 19.08 186.486 19.16C186.736 19.2347 186.992 19.3173 187.254 19.408C187.52 19.4933 187.779 19.5893 188.03 19.696C188.28 19.8027 188.504 19.936 188.702 20.096C188.899 20.256 189.056 20.4533 189.174 20.688C189.296 20.9173 189.358 21.1947 189.358 21.52C189.358 21.8933 189.291 22.24 189.158 22.56C189.024 22.8747 188.827 23.1493 188.566 23.384C188.304 23.6133 187.984 23.7947 187.606 23.928C187.227 24.0613 186.79 24.128 186.294 24.128C185.728 24.128 185.216 24.0373 184.758 23.856C184.299 23.6693 183.91 23.432 183.59 23.144L183.926 22.6C183.968 22.5307 184.019 22.4773 184.078 22.44C184.136 22.4027 184.214 22.384 184.31 22.384C184.406 22.384 184.507 22.4213 184.614 22.496C184.72 22.5707 184.848 22.6533 184.998 22.744C185.152 22.8347 185.336 22.9173 185.55 22.992C185.768 23.0667 186.04 23.104 186.366 23.104C186.643 23.104 186.886 23.0693 187.094 23C187.302 22.9253 187.475 22.8267 187.614 22.704C187.752 22.5813 187.854 22.44 187.918 22.28C187.987 22.12 188.022 21.9493 188.022 21.768C188.022 21.544 187.96 21.36 187.838 21.216C187.72 21.0667 187.563 20.9413 187.366 20.84C187.168 20.7333 186.942 20.6427 186.686 20.568C186.435 20.488 186.176 20.4053 185.91 20.32C185.648 20.2347 185.39 20.1387 185.134 20.032C184.883 19.92 184.659 19.7813 184.462 19.616C184.264 19.4507 184.104 19.248 183.982 19.008C183.864 18.7627 183.806 18.4667 183.806 18.12C183.806 17.8107 183.87 17.5147 183.998 17.232C184.126 16.944 184.312 16.6933 184.558 16.48C184.803 16.2613 185.104 16.088 185.462 15.96C185.819 15.832 186.227 15.768 186.686 15.768C187.219 15.768 187.696 15.8533 188.118 16.024C188.544 16.1893 188.912 16.4187 189.222 16.712L188.902 17.232Z" fill="#979797"/>
</svg>
