<?xml version="1.0" encoding="UTF-8"?>
<svg width="140px" height="38px" viewBox="0 0 140 38" version="1.1" xmlns="http://www.w3.org/2000/svg" xmlns:xlink="http://www.w3.org/1999/xlink">
    <title>Group 21</title>
    <g id="Home" stroke="none" stroke-width="1" fill="none" fill-rule="evenodd">
        <g id="Row-Detail" transform="translate(-551.000000, -423.000000)">
            <g id="Group-21" transform="translate(551.000000, 423.000000)">
                <rect id="Rectangle" stroke="#979797" fill="#FFFFFF" x="0.5" y="0.5" width="139" height="37" rx="6"></rect>
                <rect id="Rectangle" stroke="#979797" fill="#FFFFFF" x="39.5" y="0.5" width="61" height="37"></rect>
                <g id="Group-14" transform="translate(113.900000, 13.000000)" fill="#979797" fill-rule="nonzero">
                    <g id="-" transform="translate(0.000000, 5.000000)">
                        <polygon id="Path" points="0 -3.34619096e-13 12 -3.34619096e-13 12 2 0 2"></polygon>
                    </g>
                    <g id="-" transform="translate(6.000000, 6.000000) rotate(-270.000000) translate(-6.000000, -6.000000) translate(0.000000, 5.000000)">
                        <polygon id="Path" points="0 -3.34619096e-13 12 -3.34619096e-13 12 2 0 2"></polygon>
                    </g>
                </g>
                <g id="Group-14" transform="translate(13.900000, 18.000000)" fill="#979797" fill-rule="nonzero">
                    <g id="-">
                        <polygon id="Path" points="0 -3.34619096e-13 12 -3.34619096e-13 12 2 0 2"></polygon>
                    </g>
                </g>
                <text id="1" font-family="Lato-Regular, Lato" font-size="16" font-weight="normal" fill="#000000">
                    <tspan x="65" y="25">1</tspan>
                </text>
            </g>
        </g>
    </g>
</svg>