<svg width="814" height="450" viewBox="0 0 814 450" fill="none" xmlns="http://www.w3.org/2000/svg">
<rect width="814" height="450" fill="white"/>
<rect x="301.5" y="42.5" width="455" height="37" rx="3.5" stroke="#979797"/>
<path d="M64.032 52.856C64.1067 52.984 64.1707 53.12 64.224 53.264C64.2827 53.4027 64.3387 53.544 64.392 53.688C64.4453 53.5387 64.5013 53.3973 64.56 53.264C64.6187 53.1253 64.6853 52.9867 64.76 52.848L68.64 45.8C68.7093 45.6773 68.7813 45.6027 68.856 45.576C68.9307 45.5493 69.0373 45.536 69.176 45.536H70.32V57H68.96V48.576C68.96 48.464 68.9627 48.344 68.968 48.216C68.9733 48.088 68.9813 47.9573 68.992 47.824L65.064 54.992C64.9307 55.232 64.744 55.352 64.504 55.352H64.28C64.04 55.352 63.8533 55.232 63.72 54.992L59.704 47.8C59.72 47.9387 59.7307 48.0747 59.736 48.208C59.7467 48.3413 59.752 48.464 59.752 48.576V57H58.392V45.536H59.536C59.6747 45.536 59.7813 45.5493 59.856 45.576C59.9307 45.6027 60.0027 45.6773 60.072 45.8L64.032 52.856ZM74.1188 48.896V54.064C74.1188 54.6773 74.2601 55.152 74.5428 55.488C74.8254 55.824 75.2521 55.992 75.8228 55.992C76.2388 55.992 76.6308 55.8933 76.9988 55.696C77.3668 55.4987 77.7054 55.224 78.0148 54.872V48.896H79.4388V57H78.5908C78.3881 57 78.2601 56.9013 78.2068 56.704L78.0948 55.832C77.7428 56.2213 77.3481 56.536 76.9108 56.776C76.4734 57.0107 75.9721 57.128 75.4068 57.128C74.9641 57.128 74.5721 57.056 74.2308 56.912C73.8948 56.7627 73.6121 56.5547 73.3828 56.288C73.1534 56.0213 72.9801 55.6987 72.8628 55.32C72.7508 54.9413 72.6948 54.5227 72.6948 54.064V48.896H74.1188ZM83.3614 45.216V57H81.9374V45.216H83.3614ZM88.3271 57.128C87.6871 57.128 87.1938 56.9493 86.8471 56.592C86.5058 56.2347 86.3351 55.72 86.3351 55.048V50.088H85.3591C85.2738 50.088 85.2018 50.064 85.1431 50.016C85.0845 49.9627 85.0551 49.8827 85.0551 49.776V49.208L86.3831 49.04L86.7111 46.536C86.7218 46.456 86.7565 46.392 86.8151 46.344C86.8738 46.2907 86.9485 46.264 87.0391 46.264H87.7591V49.056H90.0791V50.088H87.7591V54.952C87.7591 55.2933 87.8418 55.5467 88.0071 55.712C88.1725 55.8773 88.3858 55.96 88.6471 55.96C88.7965 55.96 88.9245 55.9413 89.0311 55.904C89.1431 55.8613 89.2391 55.816 89.3191 55.768C89.3991 55.72 89.4658 55.6773 89.5191 55.64C89.5778 55.5973 89.6285 55.576 89.6711 55.576C89.7458 55.576 89.8125 55.6213 89.8711 55.712L90.2871 56.392C90.0418 56.6213 89.7458 56.8027 89.3991 56.936C89.0525 57.064 88.6951 57.128 88.3271 57.128ZM93.4239 48.896V57H91.9999V48.896H93.4239ZM93.7439 46.352C93.7439 46.4907 93.7145 46.6213 93.6559 46.744C93.6025 46.8613 93.5279 46.968 93.4319 47.064C93.3412 47.1547 93.2345 47.2267 93.1119 47.28C92.9892 47.3333 92.8585 47.36 92.7199 47.36C92.5812 47.36 92.4505 47.3333 92.3279 47.28C92.2105 47.2267 92.1039 47.1547 92.0079 47.064C91.9172 46.968 91.8452 46.8613 91.7919 46.744C91.7385 46.6213 91.7119 46.4907 91.7119 46.352C91.7119 46.2133 91.7385 46.0827 91.7919 45.96C91.8452 45.832 91.9172 45.7227 92.0079 45.632C92.1039 45.536 92.2105 45.4613 92.3279 45.408C92.4505 45.3547 92.5812 45.328 92.7199 45.328C92.8585 45.328 92.9892 45.3547 93.1119 45.408C93.2345 45.4613 93.3412 45.536 93.4319 45.632C93.5279 45.7227 93.6025 45.832 93.6559 45.96C93.7145 46.0827 93.7439 46.2133 93.7439 46.352ZM95.9336 57V48.896H96.7816C96.9843 48.896 97.1123 48.9947 97.1656 49.192L97.2776 50.072C97.6296 49.6827 98.0216 49.368 98.4536 49.128C98.891 48.888 99.395 48.768 99.9656 48.768C100.408 48.768 100.798 48.8427 101.134 48.992C101.475 49.136 101.758 49.344 101.982 49.616C102.211 49.8827 102.384 50.2053 102.502 50.584C102.619 50.9627 102.678 51.3813 102.678 51.84V57H101.254V51.84C101.254 51.2267 101.112 50.752 100.83 50.416C100.552 50.0747 100.126 49.904 99.5496 49.904C99.1283 49.904 98.7336 50.0053 98.3656 50.208C98.003 50.4107 97.667 50.6853 97.3576 51.032V57H95.9336ZM108.032 48.768C108.518 48.768 108.966 48.8507 109.376 49.016C109.787 49.176 110.142 49.4107 110.44 49.72C110.739 50.024 110.971 50.4027 111.136 50.856C111.307 51.304 111.392 51.816 111.392 52.392C111.392 52.616 111.368 52.7653 111.32 52.84C111.272 52.9147 111.182 52.952 111.048 52.952H105.656C105.667 53.464 105.736 53.9093 105.864 54.288C105.992 54.6667 106.168 54.984 106.392 55.24C106.616 55.4907 106.883 55.68 107.192 55.808C107.502 55.9307 107.848 55.992 108.232 55.992C108.59 55.992 108.896 55.952 109.152 55.872C109.414 55.7867 109.638 55.696 109.824 55.6C110.011 55.504 110.166 55.416 110.288 55.336C110.416 55.2507 110.526 55.208 110.616 55.208C110.734 55.208 110.824 55.2533 110.888 55.344L111.288 55.864C111.112 56.0773 110.902 56.264 110.656 56.424C110.411 56.5787 110.147 56.7067 109.864 56.808C109.587 56.9093 109.299 56.984 109 57.032C108.702 57.0853 108.406 57.112 108.112 57.112C107.552 57.112 107.035 57.0187 106.56 56.832C106.091 56.64 105.683 56.3627 105.336 56C104.995 55.632 104.728 55.1787 104.536 54.64C104.344 54.1013 104.248 53.4827 104.248 52.784C104.248 52.2187 104.334 51.6907 104.504 51.2C104.68 50.7093 104.931 50.2853 105.256 49.928C105.582 49.5653 105.979 49.2827 106.448 49.08C106.918 48.872 107.446 48.768 108.032 48.768ZM108.064 49.816C107.376 49.816 106.835 50.016 106.44 50.416C106.046 50.8107 105.8 51.36 105.704 52.064H110.112C110.112 51.7333 110.067 51.432 109.976 51.16C109.886 50.8827 109.752 50.6453 109.576 50.448C109.4 50.2453 109.184 50.0907 108.928 49.984C108.678 49.872 108.39 49.816 108.064 49.816ZM117.893 45.216V57H116.469V45.216H117.893ZM126.354 57H125.722C125.584 57 125.472 56.9787 125.386 56.936C125.301 56.8933 125.245 56.8027 125.218 56.664L125.058 55.912C124.845 56.104 124.637 56.2773 124.434 56.432C124.232 56.5813 124.018 56.7093 123.794 56.816C123.57 56.9173 123.33 56.9947 123.074 57.048C122.824 57.1013 122.544 57.128 122.234 57.128C121.92 57.128 121.624 57.0853 121.346 57C121.074 56.9093 120.837 56.776 120.634 56.6C120.432 56.424 120.269 56.2027 120.146 55.936C120.029 55.664 119.97 55.344 119.97 54.976C119.97 54.656 120.058 54.3493 120.234 54.056C120.41 53.7573 120.693 53.4933 121.082 53.264C121.477 53.0347 121.992 52.848 122.626 52.704C123.261 52.5547 124.037 52.4693 124.954 52.448V51.816C124.954 51.1867 124.818 50.712 124.546 50.392C124.28 50.0667 123.882 49.904 123.354 49.904C123.008 49.904 122.714 49.9493 122.474 50.04C122.24 50.1253 122.034 50.224 121.858 50.336C121.688 50.4427 121.538 50.5413 121.41 50.632C121.288 50.7173 121.165 50.76 121.042 50.76C120.946 50.76 120.861 50.736 120.786 50.688C120.717 50.6347 120.661 50.5707 120.618 50.496L120.362 50.04C120.81 49.608 121.293 49.2853 121.81 49.072C122.328 48.8587 122.901 48.752 123.53 48.752C123.984 48.752 124.386 48.8267 124.738 48.976C125.09 49.1253 125.386 49.3333 125.626 49.6C125.866 49.8667 126.048 50.1893 126.17 50.568C126.293 50.9467 126.354 51.3627 126.354 51.816V57ZM122.658 56.128C122.909 56.128 123.138 56.104 123.346 56.056C123.554 56.0027 123.749 55.9307 123.93 55.84C124.117 55.744 124.293 55.6293 124.458 55.496C124.629 55.3627 124.794 55.2107 124.954 55.04V53.352C124.298 53.3733 123.741 53.4267 123.282 53.512C122.824 53.592 122.45 53.6987 122.162 53.832C121.874 53.9653 121.664 54.1227 121.53 54.304C121.402 54.4853 121.338 54.688 121.338 54.912C121.338 55.1253 121.373 55.3093 121.442 55.464C121.512 55.6187 121.605 55.7467 121.722 55.848C121.84 55.944 121.978 56.016 122.138 56.064C122.298 56.1067 122.472 56.128 122.658 56.128ZM128.56 57V45.216H129.992V50.064C130.328 49.6747 130.712 49.3627 131.144 49.128C131.581 48.888 132.08 48.768 132.64 48.768C133.109 48.768 133.533 48.856 133.912 49.032C134.29 49.208 134.613 49.472 134.88 49.824C135.146 50.1707 135.352 50.6027 135.496 51.12C135.64 51.632 135.712 52.224 135.712 52.896C135.712 53.4933 135.632 54.0507 135.472 54.568C135.312 55.08 135.08 55.5253 134.776 55.904C134.477 56.2773 134.109 56.5733 133.672 56.792C133.24 57.0053 132.752 57.112 132.208 57.112C131.685 57.112 131.24 57.0107 130.872 56.808C130.509 56.6053 130.192 56.3227 129.92 55.96L129.848 56.696C129.805 56.8987 129.682 57 129.48 57H128.56ZM132.176 49.904C131.712 49.904 131.304 50.0107 130.952 50.224C130.605 50.4373 130.285 50.7387 129.992 51.128V55.048C130.248 55.4 130.53 55.648 130.84 55.792C131.154 55.936 131.504 56.008 131.888 56.008C132.645 56.008 133.226 55.7387 133.632 55.2C134.037 54.6613 134.24 53.8933 134.24 52.896C134.24 52.368 134.192 51.9147 134.096 51.536C134.005 51.1573 133.872 50.848 133.696 50.608C133.52 50.3627 133.304 50.184 133.048 50.072C132.792 49.96 132.501 49.904 132.176 49.904ZM140.657 48.768C141.143 48.768 141.591 48.8507 142.001 49.016C142.412 49.176 142.767 49.4107 143.065 49.72C143.364 50.024 143.596 50.4027 143.761 50.856C143.932 51.304 144.017 51.816 144.017 52.392C144.017 52.616 143.993 52.7653 143.945 52.84C143.897 52.9147 143.807 52.952 143.673 52.952H138.281C138.292 53.464 138.361 53.9093 138.489 54.288C138.617 54.6667 138.793 54.984 139.017 55.24C139.241 55.4907 139.508 55.68 139.817 55.808C140.127 55.9307 140.473 55.992 140.857 55.992C141.215 55.992 141.521 55.952 141.777 55.872C142.039 55.7867 142.263 55.696 142.449 55.6C142.636 55.504 142.791 55.416 142.913 55.336C143.041 55.2507 143.151 55.208 143.241 55.208C143.359 55.208 143.449 55.2533 143.513 55.344L143.913 55.864C143.737 56.0773 143.527 56.264 143.281 56.424C143.036 56.5787 142.772 56.7067 142.489 56.808C142.212 56.9093 141.924 56.984 141.625 57.032C141.327 57.0853 141.031 57.112 140.737 57.112C140.177 57.112 139.66 57.0187 139.185 56.832C138.716 56.64 138.308 56.3627 137.961 56C137.62 55.632 137.353 55.1787 137.161 54.64C136.969 54.1013 136.873 53.4827 136.873 52.784C136.873 52.2187 136.959 51.6907 137.129 51.2C137.305 50.7093 137.556 50.2853 137.881 49.928C138.207 49.5653 138.604 49.2827 139.073 49.08C139.543 48.872 140.071 48.768 140.657 48.768ZM140.689 49.816C140.001 49.816 139.46 50.016 139.065 50.416C138.671 50.8107 138.425 51.36 138.329 52.064H142.737C142.737 51.7333 142.692 51.432 142.601 51.16C142.511 50.8827 142.377 50.6453 142.201 50.448C142.025 50.2453 141.809 50.0907 141.553 49.984C141.303 49.872 141.015 49.816 140.689 49.816ZM147.424 45.216V57H146V45.216H147.424ZM153.347 57V50.112L152.451 50.008C152.339 49.9813 152.246 49.9413 152.171 49.888C152.102 49.8293 152.067 49.7467 152.067 49.64V49.056H153.347V48.608C153.347 48.112 153.425 47.6587 153.579 47.248C153.734 46.832 153.966 46.4747 154.275 46.176C154.585 45.8773 154.969 45.6453 155.427 45.48C155.891 45.3147 156.43 45.232 157.043 45.232C157.246 45.232 157.451 45.2453 157.659 45.272C157.873 45.2987 158.057 45.3387 158.211 45.392L158.163 46.136C158.153 46.2053 158.121 46.2507 158.067 46.272C158.014 46.288 157.937 46.296 157.835 46.296C157.777 46.296 157.715 46.296 157.651 46.296C157.587 46.2907 157.515 46.288 157.435 46.288C156.491 46.288 155.803 46.4853 155.371 46.88C154.945 47.2693 154.731 47.8587 154.731 48.648V49.056H159.627V57H158.203V50.088H154.779V57H153.347ZM165.36 48.768C165.846 48.768 166.294 48.8507 166.704 49.016C167.115 49.176 167.47 49.4107 167.768 49.72C168.067 50.024 168.299 50.4027 168.464 50.856C168.635 51.304 168.72 51.816 168.72 52.392C168.72 52.616 168.696 52.7653 168.648 52.84C168.6 52.9147 168.51 52.952 168.376 52.952H162.984C162.995 53.464 163.064 53.9093 163.192 54.288C163.32 54.6667 163.496 54.984 163.72 55.24C163.944 55.4907 164.211 55.68 164.52 55.808C164.83 55.9307 165.176 55.992 165.56 55.992C165.918 55.992 166.224 55.952 166.48 55.872C166.742 55.7867 166.966 55.696 167.152 55.6C167.339 55.504 167.494 55.416 167.616 55.336C167.744 55.2507 167.854 55.208 167.944 55.208C168.062 55.208 168.152 55.2533 168.216 55.344L168.616 55.864C168.44 56.0773 168.23 56.264 167.984 56.424C167.739 56.5787 167.475 56.7067 167.192 56.808C166.915 56.9093 166.627 56.984 166.328 57.032C166.03 57.0853 165.734 57.112 165.44 57.112C164.88 57.112 164.363 57.0187 163.888 56.832C163.419 56.64 163.011 56.3627 162.664 56C162.323 55.632 162.056 55.1787 161.864 54.64C161.672 54.1013 161.576 53.4827 161.576 52.784C161.576 52.2187 161.662 51.6907 161.832 51.2C162.008 50.7093 162.259 50.2853 162.584 49.928C162.91 49.5653 163.307 49.2827 163.776 49.08C164.246 48.872 164.774 48.768 165.36 48.768ZM165.392 49.816C164.704 49.816 164.163 50.016 163.768 50.416C163.374 50.8107 163.128 51.36 163.032 52.064H167.44C167.44 51.7333 167.395 51.432 167.304 51.16C167.214 50.8827 167.08 50.6453 166.904 50.448C166.728 50.2453 166.512 50.0907 166.256 49.984C166.006 49.872 165.718 49.816 165.392 49.816ZM172.127 45.216V57H170.703V45.216H172.127ZM180.341 57C180.138 57 180.01 56.9013 179.957 56.704L179.829 55.72C179.482 56.1413 179.085 56.48 178.637 56.736C178.194 56.9867 177.685 57.112 177.109 57.112C176.645 57.112 176.223 57.024 175.845 56.848C175.466 56.6667 175.143 56.4027 174.877 56.056C174.61 55.7093 174.405 55.2773 174.261 54.76C174.117 54.2427 174.045 53.648 174.045 52.976C174.045 52.3787 174.125 51.824 174.285 51.312C174.445 50.7947 174.674 50.3467 174.973 49.968C175.277 49.5893 175.645 49.2933 176.077 49.08C176.509 48.8613 176.999 48.752 177.549 48.752C178.045 48.752 178.469 48.8373 178.821 49.008C179.173 49.1733 179.487 49.408 179.765 49.712V45.216H181.189V57H180.341ZM177.581 55.96C178.045 55.96 178.45 55.8533 178.797 55.64C179.149 55.4267 179.471 55.1253 179.765 54.736V50.816C179.503 50.464 179.215 50.2187 178.901 50.08C178.591 49.936 178.247 49.864 177.869 49.864C177.111 49.864 176.53 50.1333 176.125 50.672C175.719 51.2107 175.517 51.9787 175.517 52.976C175.517 53.504 175.562 53.9573 175.653 54.336C175.743 54.7093 175.877 55.0187 176.053 55.264C176.229 55.504 176.445 55.68 176.701 55.792C176.957 55.904 177.25 55.96 177.581 55.96ZM61.376 67.768C61.8613 67.768 62.3093 67.8507 62.72 68.016C63.1307 68.176 63.4853 68.4107 63.784 68.72C64.0827 69.024 64.3147 69.4027 64.48 69.856C64.6507 70.304 64.736 70.816 64.736 71.392C64.736 71.616 64.712 71.7653 64.664 71.84C64.616 71.9147 64.5253 71.952 64.392 71.952H59C59.0107 72.464 59.08 72.9093 59.208 73.288C59.336 73.6667 59.512 73.984 59.736 74.24C59.96 74.4907 60.2267 74.68 60.536 74.808C60.8453 74.9307 61.192 74.992 61.576 74.992C61.9333 74.992 62.24 74.952 62.496 74.872C62.7573 74.7867 62.9813 74.696 63.168 74.6C63.3547 74.504 63.5093 74.416 63.632 74.336C63.76 74.2507 63.8693 74.208 63.96 74.208C64.0773 74.208 64.168 74.2533 64.232 74.344L64.632 74.864C64.456 75.0773 64.2453 75.264 64 75.424C63.7547 75.5787 63.4907 75.7067 63.208 75.808C62.9307 75.9093 62.6427 75.984 62.344 76.032C62.0453 76.0853 61.7493 76.112 61.456 76.112C60.896 76.112 60.3787 76.0187 59.904 75.832C59.4347 75.64 59.0267 75.3627 58.68 75C58.3387 74.632 58.072 74.1787 57.88 73.64C57.688 73.1013 57.592 72.4827 57.592 71.784C57.592 71.2187 57.6773 70.6907 57.848 70.2C58.024 69.7093 58.2747 69.2853 58.6 68.928C58.9253 68.5653 59.3227 68.2827 59.792 68.08C60.2613 67.872 60.7893 67.768 61.376 67.768ZM61.408 68.816C60.72 68.816 60.1787 69.016 59.784 69.416C59.3893 69.8107 59.144 70.36 59.048 71.064H63.456C63.456 70.7333 63.4107 70.432 63.32 70.16C63.2293 69.8827 63.096 69.6453 62.92 69.448C62.744 69.2453 62.528 69.0907 62.272 68.984C62.0213 68.872 61.7333 68.816 61.408 68.816ZM67.9703 71.848L65.2423 67.896H66.6103C66.7276 67.896 66.8129 67.9147 66.8663 67.952C66.9196 67.9893 66.9676 68.0427 67.0103 68.112L68.9943 71.152C69.0423 71.0027 69.1116 70.8533 69.2023 70.704L70.9463 68.144C70.9996 68.0693 71.0529 68.0107 71.1063 67.968C71.1596 67.92 71.2263 67.896 71.3063 67.896H72.6183L69.8903 71.768L72.7303 76H71.3623C71.2449 76 71.1516 75.9707 71.0823 75.912C71.0183 75.848 70.9649 75.7787 70.9223 75.704L68.8823 72.528C68.8449 72.6827 68.7889 72.8213 68.7143 72.944L66.8263 75.704C66.7729 75.7787 66.7143 75.848 66.6503 75.912C66.5916 75.9707 66.5089 76 66.4023 76H65.1303L67.9703 71.848ZM80.0888 76H79.4568C79.3181 76 79.2061 75.9787 79.1208 75.936C79.0354 75.8933 78.9794 75.8027 78.9528 75.664L78.7928 74.912C78.5794 75.104 78.3714 75.2773 78.1688 75.432C77.9661 75.5813 77.7528 75.7093 77.5288 75.816C77.3048 75.9173 77.0648 75.9947 76.8088 76.048C76.5581 76.1013 76.2781 76.128 75.9688 76.128C75.6541 76.128 75.3581 76.0853 75.0807 76C74.8088 75.9093 74.5714 75.776 74.3688 75.6C74.1661 75.424 74.0034 75.2027 73.8808 74.936C73.7634 74.664 73.7048 74.344 73.7048 73.976C73.7048 73.656 73.7928 73.3493 73.9688 73.056C74.1448 72.7573 74.4274 72.4933 74.8168 72.264C75.2114 72.0347 75.7261 71.848 76.3608 71.704C76.9954 71.5547 77.7714 71.4693 78.6888 71.448V70.816C78.6888 70.1867 78.5528 69.712 78.2808 69.392C78.0141 69.0667 77.6168 68.904 77.0888 68.904C76.7421 68.904 76.4488 68.9493 76.2088 69.04C75.9741 69.1253 75.7688 69.224 75.5928 69.336C75.4221 69.4427 75.2728 69.5413 75.1448 69.632C75.0221 69.7173 74.8994 69.76 74.7768 69.76C74.6808 69.76 74.5954 69.736 74.5208 69.688C74.4514 69.6347 74.3954 69.5707 74.3528 69.496L74.0968 69.04C74.5448 68.608 75.0274 68.2853 75.5448 68.072C76.0621 67.8587 76.6354 67.752 77.2648 67.752C77.7181 67.752 78.1208 67.8267 78.4728 67.976C78.8248 68.1253 79.1208 68.3333 79.3608 68.6C79.6008 68.8667 79.7821 69.1893 79.9048 69.568C80.0274 69.9467 80.0888 70.3627 80.0888 70.816V76ZM76.3928 75.128C76.6434 75.128 76.8728 75.104 77.0807 75.056C77.2888 75.0027 77.4834 74.9307 77.6648 74.84C77.8514 74.744 78.0274 74.6293 78.1928 74.496C78.3634 74.3627 78.5288 74.2107 78.6888 74.04V72.352C78.0328 72.3733 77.4754 72.4267 77.0168 72.512C76.5581 72.592 76.1848 72.6987 75.8968 72.832C75.6088 72.9653 75.3981 73.1227 75.2648 73.304C75.1368 73.4853 75.0728 73.688 75.0728 73.912C75.0728 74.1253 75.1074 74.3093 75.1768 74.464C75.2461 74.6187 75.3394 74.7467 75.4568 74.848C75.5741 74.944 75.7128 75.016 75.8728 75.064C76.0328 75.1067 76.2061 75.128 76.3928 75.128ZM82.2461 76V67.896H83.0941C83.2968 67.896 83.4248 67.9947 83.4781 68.192L83.5821 69.024C83.8808 68.656 84.2141 68.3547 84.5821 68.12C84.9555 67.8853 85.3875 67.768 85.8781 67.768C86.4275 67.768 86.8701 67.92 87.2061 68.224C87.5475 68.528 87.7928 68.9387 87.9421 69.456C88.0541 69.1627 88.2008 68.9093 88.3821 68.696C88.5688 68.4827 88.7768 68.3067 89.0061 68.168C89.2355 68.0293 89.4781 67.928 89.7341 67.864C89.9955 67.8 90.2595 67.768 90.5261 67.768C90.9528 67.768 91.3315 67.8373 91.6621 67.976C91.9981 68.1093 92.2808 68.3067 92.5101 68.568C92.7448 68.8293 92.9235 69.152 93.0461 69.536C93.1688 69.9147 93.2301 70.3493 93.2301 70.84V76H91.8061V70.84C91.8061 70.2053 91.6675 69.7253 91.3901 69.4C91.1128 69.0693 90.7101 68.904 90.1821 68.904C89.9475 68.904 89.7235 68.9467 89.5101 69.032C89.3021 69.112 89.1181 69.232 88.9581 69.392C88.7981 69.552 88.6701 69.7547 88.5741 70C88.4835 70.24 88.4381 70.52 88.4381 70.84V76H87.0141V70.84C87.0141 70.1893 86.8835 69.704 86.6221 69.384C86.3608 69.064 85.9795 68.904 85.4781 68.904C85.1261 68.904 84.7981 69 84.4941 69.192C84.1955 69.3787 83.9208 69.6347 83.6701 69.96V76H82.2461ZM95.3868 78.744V67.896H96.2348C96.4374 67.896 96.5654 67.9947 96.6188 68.192L96.7388 69.152C97.0854 68.7307 97.4801 68.392 97.9228 68.136C98.3708 67.88 98.8854 67.752 99.4668 67.752C99.9308 67.752 100.352 67.8427 100.731 68.024C101.109 68.2 101.432 68.464 101.699 68.816C101.965 69.1627 102.171 69.5947 102.315 70.112C102.459 70.6293 102.531 71.224 102.531 71.896C102.531 72.4933 102.451 73.0507 102.291 73.568C102.131 74.08 101.901 74.5253 101.603 74.904C101.304 75.2773 100.936 75.5733 100.499 75.792C100.067 76.0053 99.5788 76.112 99.0348 76.112C98.5334 76.112 98.1041 76.0293 97.7468 75.864C97.3948 75.6987 97.0828 75.464 96.8108 75.16V78.744H95.3868ZM98.9948 68.904C98.5308 68.904 98.1228 69.0107 97.7708 69.224C97.4241 69.4373 97.1041 69.7387 96.8108 70.128V74.048C97.0721 74.4 97.3574 74.648 97.6668 74.792C97.9814 74.936 98.3308 75.008 98.7148 75.008C99.4668 75.008 100.045 74.7387 100.451 74.2C100.856 73.6613 101.059 72.8933 101.059 71.896C101.059 71.368 101.011 70.9147 100.915 70.536C100.824 70.1573 100.691 69.848 100.515 69.608C100.339 69.3627 100.123 69.184 99.8668 69.072C99.6108 68.96 99.3201 68.904 98.9948 68.904ZM105.799 64.216V76H104.375V64.216H105.799ZM111.517 67.768C112.002 67.768 112.45 67.8507 112.861 68.016C113.271 68.176 113.626 68.4107 113.925 68.72C114.223 69.024 114.455 69.4027 114.621 69.856C114.791 70.304 114.877 70.816 114.877 71.392C114.877 71.616 114.853 71.7653 114.805 71.84C114.757 71.9147 114.666 71.952 114.533 71.952H109.141C109.151 72.464 109.221 72.9093 109.349 73.288C109.477 73.6667 109.653 73.984 109.877 74.24C110.101 74.4907 110.367 74.68 110.677 74.808C110.986 74.9307 111.333 74.992 111.717 74.992C112.074 74.992 112.381 74.952 112.637 74.872C112.898 74.7867 113.122 74.696 113.309 74.6C113.495 74.504 113.65 74.416 113.773 74.336C113.901 74.2507 114.01 74.208 114.101 74.208C114.218 74.208 114.309 74.2533 114.373 74.344L114.773 74.864C114.597 75.0773 114.386 75.264 114.141 75.424C113.895 75.5787 113.631 75.7067 113.349 75.808C113.071 75.9093 112.783 75.984 112.485 76.032C112.186 76.0853 111.89 76.112 111.597 76.112C111.037 76.112 110.519 76.0187 110.045 75.832C109.575 75.64 109.167 75.3627 108.821 75C108.479 74.632 108.213 74.1787 108.021 73.64C107.829 73.1013 107.733 72.4827 107.733 71.784C107.733 71.2187 107.818 70.6907 107.989 70.2C108.165 69.7093 108.415 69.2853 108.741 68.928C109.066 68.5653 109.463 68.2827 109.933 68.08C110.402 67.872 110.93 67.768 111.517 67.768ZM111.549 68.816C110.861 68.816 110.319 69.016 109.925 69.416C109.53 69.8107 109.285 70.36 109.189 71.064H113.597C113.597 70.7333 113.551 70.432 113.461 70.16C113.37 69.8827 113.237 69.6453 113.061 69.448C112.885 69.2453 112.669 69.0907 112.413 68.984C112.162 68.872 111.874 68.816 111.549 68.816Z" fill="black"/>
<path d="M316.096 62.712V67H314.552V55.536H317.936C318.661 55.536 319.291 55.6213 319.824 55.792C320.363 55.9573 320.808 56.1947 321.16 56.504C321.512 56.8133 321.773 57.1867 321.944 57.624C322.12 58.0613 322.208 58.5493 322.208 59.088C322.208 59.6213 322.115 60.1093 321.928 60.552C321.741 60.9947 321.467 61.376 321.104 61.696C320.747 62.016 320.301 62.2667 319.768 62.448C319.235 62.624 318.624 62.712 317.936 62.712H316.096ZM316.096 61.48H317.936C318.379 61.48 318.768 61.4213 319.104 61.304C319.445 61.1867 319.731 61.024 319.96 60.816C320.189 60.6027 320.363 60.3493 320.48 60.056C320.597 59.7627 320.656 59.44 320.656 59.088C320.656 58.3573 320.429 57.7867 319.976 57.376C319.528 56.9653 318.848 56.76 317.936 56.76H316.096V61.48ZM325.533 55.216V67H324.109V55.216H325.533ZM333.995 67H333.363C333.224 67 333.112 66.9787 333.027 66.936C332.942 66.8933 332.886 66.8027 332.859 66.664L332.699 65.912C332.486 66.104 332.278 66.2773 332.075 66.432C331.872 66.5813 331.659 66.7093 331.435 66.816C331.211 66.9173 330.971 66.9947 330.715 67.048C330.464 67.1013 330.184 67.128 329.875 67.128C329.56 67.128 329.264 67.0853 328.987 67C328.715 66.9093 328.478 66.776 328.275 66.6C328.072 66.424 327.91 66.2027 327.787 65.936C327.67 65.664 327.611 65.344 327.611 64.976C327.611 64.656 327.699 64.3493 327.875 64.056C328.051 63.7573 328.334 63.4933 328.723 63.264C329.118 63.0347 329.632 62.848 330.267 62.704C330.902 62.5547 331.678 62.4693 332.595 62.448V61.816C332.595 61.1867 332.459 60.712 332.187 60.392C331.92 60.0667 331.523 59.904 330.995 59.904C330.648 59.904 330.355 59.9493 330.115 60.04C329.88 60.1253 329.675 60.224 329.499 60.336C329.328 60.4427 329.179 60.5413 329.051 60.632C328.928 60.7173 328.806 60.76 328.683 60.76C328.587 60.76 328.502 60.736 328.427 60.688C328.358 60.6347 328.302 60.5707 328.259 60.496L328.003 60.04C328.451 59.608 328.934 59.2853 329.451 59.072C329.968 58.8587 330.542 58.752 331.171 58.752C331.624 58.752 332.027 58.8267 332.379 58.976C332.731 59.1253 333.027 59.3333 333.267 59.6C333.507 59.8667 333.688 60.1893 333.811 60.568C333.934 60.9467 333.995 61.3627 333.995 61.816V67ZM330.299 66.128C330.55 66.128 330.779 66.104 330.987 66.056C331.195 66.0027 331.39 65.9307 331.571 65.84C331.758 65.744 331.934 65.6293 332.099 65.496C332.27 65.3627 332.435 65.2107 332.595 65.04V63.352C331.939 63.3733 331.382 63.4267 330.923 63.512C330.464 63.592 330.091 63.6987 329.803 63.832C329.515 63.9653 329.304 64.1227 329.171 64.304C329.043 64.4853 328.979 64.688 328.979 64.912C328.979 65.1253 329.014 65.3093 329.083 65.464C329.152 65.6187 329.246 65.7467 329.363 65.848C329.48 65.944 329.619 66.016 329.779 66.064C329.939 66.1067 330.112 66.128 330.299 66.128ZM341.68 60.336C341.638 60.3947 341.595 60.44 341.552 60.472C341.51 60.504 341.448 60.52 341.368 60.52C341.288 60.52 341.2 60.488 341.104 60.424C341.014 60.3547 340.896 60.28 340.752 60.2C340.608 60.12 340.432 60.048 340.224 59.984C340.022 59.9147 339.771 59.88 339.472 59.88C339.078 59.88 338.728 59.952 338.424 60.096C338.12 60.2347 337.864 60.4373 337.656 60.704C337.454 60.9707 337.299 61.2933 337.192 61.672C337.091 62.0507 337.04 62.4747 337.04 62.944C337.04 63.4347 337.096 63.872 337.208 64.256C337.32 64.6347 337.478 64.9547 337.68 65.216C337.883 65.472 338.128 65.6693 338.416 65.808C338.71 65.9413 339.038 66.008 339.4 66.008C339.747 66.008 340.032 65.968 340.256 65.888C340.48 65.8027 340.667 65.7093 340.816 65.608C340.966 65.5067 341.088 65.416 341.184 65.336C341.28 65.2507 341.376 65.208 341.472 65.208C341.595 65.208 341.686 65.2533 341.744 65.344L342.144 65.864C341.792 66.296 341.352 66.6133 340.824 66.816C340.296 67.0133 339.739 67.112 339.152 67.112C338.646 67.112 338.174 67.0187 337.736 66.832C337.304 66.6453 336.928 66.376 336.608 66.024C336.288 65.6667 336.035 65.2293 335.848 64.712C335.667 64.1947 335.576 63.6053 335.576 62.944C335.576 62.3413 335.659 61.784 335.824 61.272C335.995 60.76 336.24 60.32 336.56 59.952C336.886 59.5787 337.286 59.288 337.76 59.08C338.235 58.872 338.779 58.768 339.392 58.768C339.958 58.768 340.459 58.8613 340.896 59.048C341.334 59.2293 341.72 59.488 342.056 59.824L341.68 60.336ZM346.829 58.768C347.314 58.768 347.762 58.8507 348.173 59.016C348.584 59.176 348.938 59.4107 349.237 59.72C349.536 60.024 349.768 60.4027 349.933 60.856C350.104 61.304 350.189 61.816 350.189 62.392C350.189 62.616 350.165 62.7653 350.117 62.84C350.069 62.9147 349.978 62.952 349.845 62.952H344.453C344.464 63.464 344.533 63.9093 344.661 64.288C344.789 64.6667 344.965 64.984 345.189 65.24C345.413 65.4907 345.68 65.68 345.989 65.808C346.298 65.9307 346.645 65.992 347.029 65.992C347.386 65.992 347.693 65.952 347.949 65.872C348.21 65.7867 348.434 65.696 348.621 65.6C348.808 65.504 348.962 65.416 349.085 65.336C349.213 65.2507 349.322 65.208 349.413 65.208C349.53 65.208 349.621 65.2533 349.685 65.344L350.085 65.864C349.909 66.0773 349.698 66.264 349.453 66.424C349.208 66.5787 348.944 66.7067 348.661 66.808C348.384 66.9093 348.096 66.984 347.797 67.032C347.498 67.0853 347.202 67.112 346.909 67.112C346.349 67.112 345.832 67.0187 345.357 66.832C344.888 66.64 344.48 66.3627 344.133 66C343.792 65.632 343.525 65.1787 343.333 64.64C343.141 64.1013 343.045 63.4827 343.045 62.784C343.045 62.2187 343.13 61.6907 343.301 61.2C343.477 60.7093 343.728 60.2853 344.053 59.928C344.378 59.5653 344.776 59.2827 345.245 59.08C345.714 58.872 346.242 58.768 346.829 58.768ZM346.861 59.816C346.173 59.816 345.632 60.016 345.237 60.416C344.842 60.8107 344.597 61.36 344.501 62.064H348.909C348.909 61.7333 348.864 61.432 348.773 61.16C348.682 60.8827 348.549 60.6453 348.373 60.448C348.197 60.2453 347.981 60.0907 347.725 59.984C347.474 59.872 347.186 59.816 346.861 59.816ZM352.012 67V55.216H353.436V59.984C353.782 59.616 354.166 59.3227 354.588 59.104C355.009 58.88 355.494 58.768 356.044 58.768C356.486 58.768 356.876 58.8427 357.212 58.992C357.553 59.136 357.836 59.344 358.06 59.616C358.289 59.8827 358.462 60.2053 358.58 60.584C358.697 60.9627 358.756 61.3813 358.756 61.84V67H357.332V61.84C357.332 61.2267 357.19 60.752 356.908 60.416C356.63 60.0747 356.204 59.904 355.628 59.904C355.206 59.904 354.812 60.0053 354.444 60.208C354.081 60.4107 353.745 60.6853 353.436 61.032V67H352.012ZM364.182 58.768C364.774 58.768 365.308 58.8667 365.782 59.064C366.262 59.2613 366.668 59.5413 366.998 59.904C367.334 60.2667 367.59 60.7067 367.766 61.224C367.948 61.736 368.038 62.3093 368.038 62.944C368.038 63.584 367.948 64.16 367.766 64.672C367.59 65.184 367.334 65.6213 366.998 65.984C366.668 66.3467 366.262 66.6267 365.782 66.824C365.308 67.016 364.774 67.112 364.182 67.112C363.59 67.112 363.054 67.016 362.574 66.824C362.1 66.6267 361.694 66.3467 361.358 65.984C361.022 65.6213 360.764 65.184 360.582 64.672C360.401 64.16 360.31 63.584 360.31 62.944C360.31 62.3093 360.401 61.736 360.582 61.224C360.764 60.7067 361.022 60.2667 361.358 59.904C361.694 59.5413 362.1 59.2613 362.574 59.064C363.054 58.8667 363.59 58.768 364.182 58.768ZM364.182 66C364.982 66 365.58 65.7333 365.974 65.2C366.369 64.6613 366.566 63.912 366.566 62.952C366.566 61.9867 366.369 61.2347 365.974 60.696C365.58 60.1573 364.982 59.888 364.182 59.888C363.777 59.888 363.425 59.9573 363.126 60.096C362.828 60.2347 362.577 60.4347 362.374 60.696C362.177 60.9573 362.028 61.28 361.926 61.664C361.83 62.0427 361.782 62.472 361.782 62.952C361.782 63.432 361.83 63.8613 361.926 64.24C362.028 64.6187 362.177 64.9387 362.374 65.2C362.577 65.456 362.828 65.6533 363.126 65.792C363.425 65.9307 363.777 66 364.182 66ZM371.377 55.216V67H369.953V55.216H371.377ZM379.591 67C379.388 67 379.26 66.9013 379.207 66.704L379.079 65.72C378.732 66.1413 378.335 66.48 377.887 66.736C377.444 66.9867 376.935 67.112 376.359 67.112C375.895 67.112 375.473 67.024 375.095 66.848C374.716 66.6667 374.393 66.4027 374.127 66.056C373.86 65.7093 373.655 65.2773 373.511 64.76C373.367 64.2427 373.295 63.648 373.295 62.976C373.295 62.3787 373.375 61.824 373.535 61.312C373.695 60.7947 373.924 60.3467 374.223 59.968C374.527 59.5893 374.895 59.2933 375.327 59.08C375.759 58.8613 376.249 58.752 376.799 58.752C377.295 58.752 377.719 58.8373 378.071 59.008C378.423 59.1733 378.737 59.408 379.015 59.712V55.216H380.439V67H379.591ZM376.831 65.96C377.295 65.96 377.7 65.8533 378.047 65.64C378.399 65.4267 378.721 65.1253 379.015 64.736V60.816C378.753 60.464 378.465 60.2187 378.151 60.08C377.841 59.936 377.497 59.864 377.119 59.864C376.361 59.864 375.78 60.1333 375.375 60.672C374.969 61.2107 374.767 61.9787 374.767 62.976C374.767 63.504 374.812 63.9573 374.903 64.336C374.993 64.7093 375.127 65.0187 375.303 65.264C375.479 65.504 375.695 65.68 375.951 65.792C376.207 65.904 376.5 65.96 376.831 65.96ZM386.032 58.768C386.518 58.768 386.966 58.8507 387.376 59.016C387.787 59.176 388.142 59.4107 388.44 59.72C388.739 60.024 388.971 60.4027 389.136 60.856C389.307 61.304 389.392 61.816 389.392 62.392C389.392 62.616 389.368 62.7653 389.32 62.84C389.272 62.9147 389.182 62.952 389.048 62.952H383.656C383.667 63.464 383.736 63.9093 383.864 64.288C383.992 64.6667 384.168 64.984 384.392 65.24C384.616 65.4907 384.883 65.68 385.192 65.808C385.502 65.9307 385.848 65.992 386.232 65.992C386.59 65.992 386.896 65.952 387.152 65.872C387.414 65.7867 387.638 65.696 387.824 65.6C388.011 65.504 388.166 65.416 388.288 65.336C388.416 65.2507 388.526 65.208 388.616 65.208C388.734 65.208 388.824 65.2533 388.888 65.344L389.288 65.864C389.112 66.0773 388.902 66.264 388.656 66.424C388.411 66.5787 388.147 66.7067 387.864 66.808C387.587 66.9093 387.299 66.984 387 67.032C386.702 67.0853 386.406 67.112 386.112 67.112C385.552 67.112 385.035 67.0187 384.56 66.832C384.091 66.64 383.683 66.3627 383.336 66C382.995 65.632 382.728 65.1787 382.536 64.64C382.344 64.1013 382.248 63.4827 382.248 62.784C382.248 62.2187 382.334 61.6907 382.504 61.2C382.68 60.7093 382.931 60.2853 383.256 59.928C383.582 59.5653 383.979 59.2827 384.448 59.08C384.918 58.872 385.446 58.768 386.032 58.768ZM386.064 59.816C385.376 59.816 384.835 60.016 384.44 60.416C384.046 60.8107 383.8 61.36 383.704 62.064H388.112C388.112 61.7333 388.067 61.432 387.976 61.16C387.886 60.8827 387.752 60.6453 387.576 60.448C387.4 60.2453 387.184 60.0907 386.928 59.984C386.678 59.872 386.39 59.816 386.064 59.816ZM391.215 67V58.896H392.031C392.186 58.896 392.292 58.9253 392.351 58.984C392.41 59.0427 392.45 59.144 392.471 59.288L392.567 60.552C392.844 59.9867 393.186 59.5467 393.591 59.232C394.002 58.912 394.482 58.752 395.031 58.752C395.255 58.752 395.458 58.7787 395.639 58.832C395.82 58.88 395.988 58.9493 396.143 59.04L395.959 60.104C395.922 60.2373 395.839 60.304 395.711 60.304C395.636 60.304 395.522 60.28 395.367 60.232C395.212 60.1787 394.996 60.152 394.719 60.152C394.223 60.152 393.807 60.296 393.471 60.584C393.14 60.872 392.863 61.2907 392.639 61.84V67H391.215Z" fill="#BBBBBB"/>
<path d="M310.352 98H308.987V93.436H303.583V98H302.218V87.969H303.583V92.442H308.987V87.969H310.352V98ZM315.411 90.797C315.836 90.797 316.228 90.8693 316.587 91.014C316.946 91.154 317.257 91.3593 317.518 91.63C317.779 91.896 317.982 92.2273 318.127 92.624C318.276 93.016 318.351 93.464 318.351 93.968C318.351 94.164 318.33 94.2947 318.288 94.36C318.246 94.4253 318.167 94.458 318.05 94.458H313.332C313.341 94.906 313.402 95.2957 313.514 95.627C313.626 95.9583 313.78 96.236 313.976 96.46C314.172 96.6793 314.405 96.845 314.676 96.957C314.947 97.0643 315.25 97.118 315.586 97.118C315.899 97.118 316.167 97.083 316.391 97.013C316.62 96.9383 316.816 96.859 316.979 96.775C317.142 96.691 317.278 96.614 317.385 96.544C317.497 96.4693 317.593 96.432 317.672 96.432C317.775 96.432 317.854 96.4717 317.91 96.551L318.26 97.006C318.106 97.1927 317.922 97.356 317.707 97.496C317.492 97.6313 317.261 97.7433 317.014 97.832C316.771 97.9207 316.519 97.986 316.258 98.028C315.997 98.0747 315.738 98.098 315.481 98.098C314.991 98.098 314.538 98.0163 314.123 97.853C313.712 97.685 313.355 97.4423 313.052 97.125C312.753 96.803 312.52 96.4063 312.352 95.935C312.184 95.4637 312.1 94.9223 312.1 94.311C312.1 93.8163 312.175 93.3543 312.324 92.925C312.478 92.4957 312.697 92.1247 312.982 91.812C313.267 91.4947 313.614 91.2473 314.025 91.07C314.436 90.888 314.898 90.797 315.411 90.797ZM315.439 91.714C314.837 91.714 314.363 91.889 314.018 92.239C313.673 92.5843 313.458 93.065 313.374 93.681H317.231C317.231 93.3917 317.191 93.128 317.112 92.89C317.033 92.6473 316.916 92.4397 316.762 92.267C316.608 92.0897 316.419 91.9543 316.195 91.861C315.976 91.763 315.724 91.714 315.439 91.714ZM321.332 87.689V98H320.086V87.689H321.332ZM323.528 100.401V90.909H324.27C324.447 90.909 324.559 90.9953 324.606 91.168L324.711 92.008C325.014 91.6393 325.36 91.343 325.747 91.119C326.139 90.895 326.589 90.783 327.098 90.783C327.504 90.783 327.873 90.8623 328.204 91.021C328.535 91.175 328.818 91.406 329.051 91.714C329.284 92.0173 329.464 92.3953 329.59 92.848C329.716 93.3007 329.779 93.821 329.779 94.409C329.779 94.9317 329.709 95.4193 329.569 95.872C329.429 96.32 329.228 96.7097 328.967 97.041C328.706 97.3677 328.384 97.6267 328.001 97.818C327.623 98.0047 327.196 98.098 326.72 98.098C326.281 98.098 325.906 98.0257 325.593 97.881C325.285 97.7363 325.012 97.531 324.774 97.265V100.401H323.528ZM326.685 91.791C326.279 91.791 325.922 91.8843 325.614 92.071C325.311 92.2577 325.031 92.5213 324.774 92.862V96.292C325.003 96.6 325.252 96.817 325.523 96.943C325.798 97.069 326.104 97.132 326.44 97.132C327.098 97.132 327.604 96.8963 327.959 96.425C328.314 95.9537 328.491 95.2817 328.491 94.409C328.491 93.947 328.449 93.5503 328.365 93.219C328.286 92.8877 328.169 92.617 328.015 92.407C327.861 92.1923 327.672 92.036 327.448 91.938C327.224 91.84 326.97 91.791 326.685 91.791ZM334.059 90.797C334.484 90.797 334.876 90.8693 335.235 91.014C335.595 91.154 335.905 91.3593 336.166 91.63C336.428 91.896 336.631 92.2273 336.775 92.624C336.925 93.016 336.999 93.464 336.999 93.968C336.999 94.164 336.978 94.2947 336.936 94.36C336.894 94.4253 336.815 94.458 336.698 94.458H331.98C331.99 94.906 332.05 95.2957 332.162 95.627C332.274 95.9583 332.428 96.236 332.624 96.46C332.82 96.6793 333.054 96.845 333.324 96.957C333.595 97.0643 333.898 97.118 334.234 97.118C334.547 97.118 334.815 97.083 335.039 97.013C335.268 96.9383 335.464 96.859 335.627 96.775C335.791 96.691 335.926 96.614 336.033 96.544C336.145 96.4693 336.241 96.432 336.32 96.432C336.423 96.432 336.502 96.4717 336.558 96.551L336.908 97.006C336.754 97.1927 336.57 97.356 336.355 97.496C336.141 97.6313 335.91 97.7433 335.662 97.832C335.42 97.9207 335.168 97.986 334.906 98.028C334.645 98.0747 334.386 98.098 334.129 98.098C333.639 98.098 333.187 98.0163 332.771 97.853C332.361 97.685 332.004 97.4423 331.7 97.125C331.402 96.803 331.168 96.4063 331 95.935C330.832 95.4637 330.748 94.9223 330.748 94.311C330.748 93.8163 330.823 93.3543 330.972 92.925C331.126 92.4957 331.346 92.1247 331.63 91.812C331.915 91.4947 332.263 91.2473 332.673 91.07C333.084 90.888 333.546 90.797 334.059 90.797ZM334.087 91.714C333.485 91.714 333.012 91.889 332.666 92.239C332.321 92.5843 332.106 93.065 332.022 93.681H335.879C335.879 93.3917 335.84 93.128 335.76 92.89C335.681 92.6473 335.564 92.4397 335.41 92.267C335.256 92.0897 335.067 91.9543 334.843 91.861C334.624 91.763 334.372 91.714 334.087 91.714ZM338.594 98V90.909H339.308C339.444 90.909 339.537 90.9347 339.588 90.986C339.64 91.0373 339.675 91.126 339.693 91.252L339.777 92.358C340.02 91.8633 340.319 91.4783 340.673 91.203C341.033 90.923 341.453 90.783 341.933 90.783C342.129 90.783 342.307 90.8063 342.465 90.853C342.624 90.895 342.771 90.9557 342.906 91.035L342.745 91.966C342.713 92.0827 342.64 92.141 342.528 92.141C342.463 92.141 342.363 92.12 342.227 92.078C342.092 92.0313 341.903 92.008 341.66 92.008C341.226 92.008 340.862 92.134 340.568 92.386C340.279 92.638 340.036 93.0043 339.84 93.485V98H338.594ZM349.097 98.112C348.537 98.112 348.105 97.9557 347.802 97.643C347.503 97.3303 347.354 96.88 347.354 96.292V91.952H346.5C346.425 91.952 346.362 91.931 346.311 91.889C346.259 91.8423 346.234 91.7723 346.234 91.679V91.182L347.396 91.035L347.683 88.844C347.692 88.774 347.722 88.718 347.774 88.676C347.825 88.6293 347.89 88.606 347.97 88.606H348.6V91.049H350.63V91.952H348.6V96.208C348.6 96.5067 348.672 96.7283 348.817 96.873C348.961 97.0177 349.148 97.09 349.377 97.09C349.507 97.09 349.619 97.0737 349.713 97.041C349.811 97.0037 349.895 96.964 349.965 96.922C350.035 96.88 350.093 96.8427 350.14 96.81C350.191 96.7727 350.235 96.754 350.273 96.754C350.338 96.754 350.396 96.7937 350.448 96.873L350.812 97.468C350.597 97.6687 350.338 97.8273 350.035 97.944C349.731 98.056 349.419 98.112 349.097 98.112ZM354.977 90.797C355.402 90.797 355.794 90.8693 356.153 91.014C356.513 91.154 356.823 91.3593 357.084 91.63C357.346 91.896 357.549 92.2273 357.693 92.624C357.843 93.016 357.917 93.464 357.917 93.968C357.917 94.164 357.896 94.2947 357.854 94.36C357.812 94.4253 357.733 94.458 357.616 94.458H352.898C352.908 94.906 352.968 95.2957 353.08 95.627C353.192 95.9583 353.346 96.236 353.542 96.46C353.738 96.6793 353.972 96.845 354.242 96.957C354.513 97.0643 354.816 97.118 355.152 97.118C355.465 97.118 355.733 97.083 355.957 97.013C356.186 96.9383 356.382 96.859 356.545 96.775C356.709 96.691 356.844 96.614 356.951 96.544C357.063 96.4693 357.159 96.432 357.238 96.432C357.341 96.432 357.42 96.4717 357.476 96.551L357.826 97.006C357.672 97.1927 357.488 97.356 357.273 97.496C357.059 97.6313 356.828 97.7433 356.58 97.832C356.338 97.9207 356.086 97.986 355.824 98.028C355.563 98.0747 355.304 98.098 355.047 98.098C354.557 98.098 354.105 98.0163 353.689 97.853C353.279 97.685 352.922 97.4423 352.618 97.125C352.32 96.803 352.086 96.4063 351.918 95.935C351.75 95.4637 351.666 94.9223 351.666 94.311C351.666 93.8163 351.741 93.3543 351.89 92.925C352.044 92.4957 352.264 92.1247 352.548 91.812C352.833 91.4947 353.181 91.2473 353.591 91.07C354.002 90.888 354.464 90.797 354.977 90.797ZM355.005 91.714C354.403 91.714 353.93 91.889 353.584 92.239C353.239 92.5843 353.024 93.065 352.94 93.681H356.797C356.797 93.3917 356.758 93.128 356.678 92.89C356.599 92.6473 356.482 92.4397 356.328 92.267C356.174 92.0897 355.985 91.9543 355.761 91.861C355.542 91.763 355.29 91.714 355.005 91.714ZM360.747 94.367L358.36 90.909H359.557C359.66 90.909 359.735 90.9253 359.781 90.958C359.828 90.9907 359.87 91.0373 359.907 91.098L361.643 93.758C361.685 93.6273 361.746 93.4967 361.825 93.366L363.351 91.126C363.398 91.0607 363.445 91.0093 363.491 90.972C363.538 90.93 363.596 90.909 363.666 90.909H364.814L362.427 94.297L364.912 98H363.715C363.613 98 363.531 97.9743 363.47 97.923C363.414 97.867 363.368 97.8063 363.33 97.741L361.545 94.962C361.513 95.0973 361.464 95.2187 361.398 95.326L359.746 97.741C359.7 97.8063 359.648 97.867 359.592 97.923C359.541 97.9743 359.469 98 359.375 98H358.262L360.747 94.367ZM368.292 98.112C367.732 98.112 367.3 97.9557 366.997 97.643C366.698 97.3303 366.549 96.88 366.549 96.292V91.952H365.695C365.62 91.952 365.557 91.931 365.506 91.889C365.455 91.8423 365.429 91.7723 365.429 91.679V91.182L366.591 91.035L366.878 88.844C366.887 88.774 366.918 88.718 366.969 88.676C367.02 88.6293 367.086 88.606 367.165 88.606H367.795V91.049H369.825V91.952H367.795V96.208C367.795 96.5067 367.867 96.7283 368.012 96.873C368.157 97.0177 368.343 97.09 368.572 97.09C368.703 97.09 368.815 97.0737 368.908 97.041C369.006 97.0037 369.09 96.964 369.16 96.922C369.23 96.88 369.288 96.8427 369.335 96.81C369.386 96.7727 369.431 96.754 369.468 96.754C369.533 96.754 369.592 96.7937 369.643 96.873L370.007 97.468C369.792 97.6687 369.533 97.8273 369.23 97.944C368.927 98.056 368.614 98.112 368.292 98.112Z" fill="#6A6A6A"/>
<path d="M59.944 146.696H64.904V148H58.392V136.536H59.944V146.696ZM72.3388 148H71.7068C71.5681 148 71.4561 147.979 71.3708 147.936C71.2854 147.893 71.2294 147.803 71.2028 147.664L71.0428 146.912C70.8294 147.104 70.6214 147.277 70.4188 147.432C70.2161 147.581 70.0028 147.709 69.7788 147.816C69.5548 147.917 69.3148 147.995 69.0588 148.048C68.8081 148.101 68.5281 148.128 68.2188 148.128C67.9041 148.128 67.6081 148.085 67.3307 148C67.0588 147.909 66.8214 147.776 66.6188 147.6C66.4161 147.424 66.2534 147.203 66.1308 146.936C66.0134 146.664 65.9548 146.344 65.9548 145.976C65.9548 145.656 66.0428 145.349 66.2188 145.056C66.3948 144.757 66.6774 144.493 67.0668 144.264C67.4614 144.035 67.9761 143.848 68.6108 143.704C69.2454 143.555 70.0214 143.469 70.9388 143.448V142.816C70.9388 142.187 70.8028 141.712 70.5308 141.392C70.2641 141.067 69.8668 140.904 69.3388 140.904C68.9921 140.904 68.6988 140.949 68.4588 141.04C68.2241 141.125 68.0188 141.224 67.8428 141.336C67.6721 141.443 67.5228 141.541 67.3948 141.632C67.2721 141.717 67.1494 141.76 67.0268 141.76C66.9308 141.76 66.8454 141.736 66.7708 141.688C66.7014 141.635 66.6454 141.571 66.6028 141.496L66.3468 141.04C66.7948 140.608 67.2774 140.285 67.7948 140.072C68.3121 139.859 68.8854 139.752 69.5148 139.752C69.9681 139.752 70.3708 139.827 70.7228 139.976C71.0748 140.125 71.3708 140.333 71.6108 140.6C71.8508 140.867 72.0321 141.189 72.1548 141.568C72.2774 141.947 72.3388 142.363 72.3388 142.816V148ZM68.6428 147.128C68.8934 147.128 69.1228 147.104 69.3307 147.056C69.5388 147.003 69.7334 146.931 69.9148 146.84C70.1014 146.744 70.2774 146.629 70.4428 146.496C70.6134 146.363 70.7788 146.211 70.9388 146.04V144.352C70.2828 144.373 69.7254 144.427 69.2668 144.512C68.8081 144.592 68.4348 144.699 68.1468 144.832C67.8588 144.965 67.6481 145.123 67.5148 145.304C67.3868 145.485 67.3228 145.688 67.3228 145.912C67.3228 146.125 67.3574 146.309 67.4268 146.464C67.4961 146.619 67.5894 146.747 67.7068 146.848C67.8241 146.944 67.9628 147.016 68.1228 147.064C68.2828 147.107 68.4561 147.128 68.6428 147.128ZM74.5441 148V136.216H75.9761V141.064C76.3121 140.675 76.6961 140.363 77.1281 140.128C77.5655 139.888 78.0641 139.768 78.6241 139.768C79.0935 139.768 79.5175 139.856 79.8961 140.032C80.2748 140.208 80.5975 140.472 80.8641 140.824C81.1308 141.171 81.3361 141.603 81.4801 142.12C81.6241 142.632 81.6961 143.224 81.6961 143.896C81.6961 144.493 81.6161 145.051 81.4561 145.568C81.2961 146.08 81.0641 146.525 80.7601 146.904C80.4615 147.277 80.0935 147.573 79.6561 147.792C79.2241 148.005 78.7361 148.112 78.1921 148.112C77.6695 148.112 77.2241 148.011 76.8561 147.808C76.4935 147.605 76.1761 147.323 75.9041 146.96L75.8321 147.696C75.7895 147.899 75.6668 148 75.4641 148H74.5441ZM78.1601 140.904C77.6961 140.904 77.2881 141.011 76.9361 141.224C76.5895 141.437 76.2695 141.739 75.9761 142.128V146.048C76.2321 146.4 76.5148 146.648 76.8241 146.792C77.1388 146.936 77.4881 147.008 77.8721 147.008C78.6295 147.008 79.2108 146.739 79.6161 146.2C80.0215 145.661 80.2241 144.893 80.2241 143.896C80.2241 143.368 80.1761 142.915 80.0801 142.536C79.9895 142.157 79.8561 141.848 79.6801 141.608C79.5041 141.363 79.2881 141.184 79.0321 141.072C78.7761 140.96 78.4855 140.904 78.1601 140.904ZM86.6416 139.768C87.127 139.768 87.575 139.851 87.9856 140.016C88.3963 140.176 88.751 140.411 89.0496 140.72C89.3483 141.024 89.5803 141.403 89.7456 141.856C89.9163 142.304 90.0016 142.816 90.0016 143.392C90.0016 143.616 89.9776 143.765 89.9296 143.84C89.8816 143.915 89.791 143.952 89.6576 143.952H84.2656C84.2763 144.464 84.3456 144.909 84.4736 145.288C84.6016 145.667 84.7776 145.984 85.0016 146.24C85.2256 146.491 85.4923 146.68 85.8016 146.808C86.111 146.931 86.4576 146.992 86.8416 146.992C87.199 146.992 87.5056 146.952 87.7616 146.872C88.023 146.787 88.247 146.696 88.4336 146.6C88.6203 146.504 88.775 146.416 88.8976 146.336C89.0256 146.251 89.135 146.208 89.2256 146.208C89.343 146.208 89.4336 146.253 89.4976 146.344L89.8976 146.864C89.7216 147.077 89.511 147.264 89.2656 147.424C89.0203 147.579 88.7563 147.707 88.4736 147.808C88.1963 147.909 87.9083 147.984 87.6096 148.032C87.311 148.085 87.015 148.112 86.7216 148.112C86.1616 148.112 85.6443 148.019 85.1696 147.832C84.7003 147.64 84.2923 147.363 83.9456 147C83.6043 146.632 83.3376 146.179 83.1456 145.64C82.9536 145.101 82.8576 144.483 82.8576 143.784C82.8576 143.219 82.943 142.691 83.1136 142.2C83.2896 141.709 83.5403 141.285 83.8656 140.928C84.191 140.565 84.5883 140.283 85.0576 140.08C85.527 139.872 86.055 139.768 86.6416 139.768ZM86.6736 140.816C85.9856 140.816 85.4443 141.016 85.0496 141.416C84.655 141.811 84.4096 142.36 84.3136 143.064H88.7216C88.7216 142.733 88.6763 142.432 88.5856 142.16C88.495 141.883 88.3616 141.645 88.1856 141.448C88.0096 141.245 87.7936 141.091 87.5376 140.984C87.287 140.872 86.999 140.816 86.6736 140.816ZM93.4083 136.216V148H91.9843V136.216H93.4083Z" fill="black"/>
<rect x="301.5" y="123.5" width="455" height="37" rx="3.5" stroke="#979797"/>
<path d="M325.04 142.272C325.04 143.131 324.904 143.92 324.632 144.64C324.36 145.355 323.976 145.971 323.48 146.488C322.984 147.005 322.387 147.408 321.688 147.696C320.995 147.979 320.227 148.12 319.384 148.12C318.541 148.12 317.773 147.979 317.08 147.696C316.387 147.408 315.792 147.005 315.296 146.488C314.8 145.971 314.416 145.355 314.144 144.64C313.872 143.92 313.736 143.131 313.736 142.272C313.736 141.413 313.872 140.627 314.144 139.912C314.416 139.192 314.8 138.573 315.296 138.056C315.792 137.533 316.387 137.128 317.08 136.84C317.773 136.552 318.541 136.408 319.384 136.408C320.227 136.408 320.995 136.552 321.688 136.84C322.387 137.128 322.984 137.533 323.48 138.056C323.976 138.573 324.36 139.192 324.632 139.912C324.904 140.627 325.04 141.413 325.04 142.272ZM323.448 142.272C323.448 141.568 323.352 140.936 323.16 140.376C322.968 139.816 322.696 139.344 322.344 138.96C321.992 138.571 321.565 138.272 321.064 138.064C320.563 137.856 320.003 137.752 319.384 137.752C318.771 137.752 318.213 137.856 317.712 138.064C317.211 138.272 316.781 138.571 316.424 138.96C316.072 139.344 315.8 139.816 315.608 140.376C315.416 140.936 315.32 141.568 315.32 142.272C315.32 142.976 315.416 143.608 315.608 144.168C315.8 144.723 316.072 145.195 316.424 145.584C316.781 145.968 317.211 146.264 317.712 146.472C318.213 146.675 318.771 146.776 319.384 146.776C320.003 146.776 320.563 146.675 321.064 146.472C321.565 146.264 321.992 145.968 322.344 145.584C322.696 145.195 322.968 144.723 323.16 144.168C323.352 143.608 323.448 142.976 323.448 142.272ZM326.934 150.744V139.896H327.782C327.984 139.896 328.112 139.995 328.166 140.192L328.286 141.152C328.632 140.731 329.027 140.392 329.47 140.136C329.918 139.88 330.432 139.752 331.014 139.752C331.478 139.752 331.899 139.843 332.278 140.024C332.656 140.2 332.979 140.464 333.246 140.816C333.512 141.163 333.718 141.595 333.862 142.112C334.006 142.629 334.078 143.224 334.078 143.896C334.078 144.493 333.998 145.051 333.838 145.568C333.678 146.08 333.448 146.525 333.15 146.904C332.851 147.277 332.483 147.573 332.046 147.792C331.614 148.005 331.126 148.112 330.582 148.112C330.08 148.112 329.651 148.029 329.294 147.864C328.942 147.699 328.63 147.464 328.358 147.16V150.744H326.934ZM330.542 140.904C330.078 140.904 329.67 141.011 329.318 141.224C328.971 141.437 328.651 141.739 328.358 142.128V146.048C328.619 146.4 328.904 146.648 329.214 146.792C329.528 146.936 329.878 147.008 330.262 147.008C331.014 147.008 331.592 146.739 331.998 146.2C332.403 145.661 332.606 144.893 332.606 143.896C332.606 143.368 332.558 142.915 332.462 142.536C332.371 142.157 332.238 141.848 332.062 141.608C331.886 141.363 331.67 141.184 331.414 141.072C331.158 140.96 330.867 140.904 330.542 140.904ZM338.218 148.128C337.578 148.128 337.084 147.949 336.738 147.592C336.396 147.235 336.226 146.72 336.226 146.048V141.088H335.25C335.164 141.088 335.092 141.064 335.034 141.016C334.975 140.963 334.946 140.883 334.946 140.776V140.208L336.274 140.04L336.602 137.536C336.612 137.456 336.647 137.392 336.706 137.344C336.764 137.291 336.839 137.264 336.93 137.264H337.65V140.056H339.97V141.088H337.65V145.952C337.65 146.293 337.732 146.547 337.898 146.712C338.063 146.877 338.276 146.96 338.538 146.96C338.687 146.96 338.815 146.941 338.922 146.904C339.034 146.861 339.13 146.816 339.21 146.768C339.29 146.72 339.356 146.677 339.41 146.64C339.468 146.597 339.519 146.576 339.562 146.576C339.636 146.576 339.703 146.621 339.762 146.712L340.178 147.392C339.932 147.621 339.636 147.803 339.29 147.936C338.943 148.064 338.586 148.128 338.218 148.128ZM343.315 139.896V148H341.891V139.896H343.315ZM343.635 137.352C343.635 137.491 343.605 137.621 343.547 137.744C343.493 137.861 343.419 137.968 343.323 138.064C343.232 138.155 343.125 138.227 343.003 138.28C342.88 138.333 342.749 138.36 342.611 138.36C342.472 138.36 342.341 138.333 342.219 138.28C342.101 138.227 341.995 138.155 341.899 138.064C341.808 137.968 341.736 137.861 341.683 137.744C341.629 137.621 341.603 137.491 341.603 137.352C341.603 137.213 341.629 137.083 341.683 136.96C341.736 136.832 341.808 136.723 341.899 136.632C341.995 136.536 342.101 136.461 342.219 136.408C342.341 136.355 342.472 136.328 342.611 136.328C342.749 136.328 342.88 136.355 343.003 136.408C343.125 136.461 343.232 136.536 343.323 136.632C343.419 136.723 343.493 136.832 343.547 136.96C343.605 137.083 343.635 137.213 343.635 137.352ZM349.104 139.768C349.696 139.768 350.23 139.867 350.704 140.064C351.184 140.261 351.59 140.541 351.92 140.904C352.256 141.267 352.512 141.707 352.688 142.224C352.87 142.736 352.96 143.309 352.96 143.944C352.96 144.584 352.87 145.16 352.688 145.672C352.512 146.184 352.256 146.621 351.92 146.984C351.59 147.347 351.184 147.627 350.704 147.824C350.23 148.016 349.696 148.112 349.104 148.112C348.512 148.112 347.976 148.016 347.496 147.824C347.022 147.627 346.616 147.347 346.28 146.984C345.944 146.621 345.686 146.184 345.504 145.672C345.323 145.16 345.232 144.584 345.232 143.944C345.232 143.309 345.323 142.736 345.504 142.224C345.686 141.707 345.944 141.267 346.28 140.904C346.616 140.541 347.022 140.261 347.496 140.064C347.976 139.867 348.512 139.768 349.104 139.768ZM349.104 147C349.904 147 350.502 146.733 350.896 146.2C351.291 145.661 351.488 144.912 351.488 143.952C351.488 142.987 351.291 142.235 350.896 141.696C350.502 141.157 349.904 140.888 349.104 140.888C348.699 140.888 348.347 140.957 348.048 141.096C347.75 141.235 347.499 141.435 347.296 141.696C347.099 141.957 346.95 142.28 346.848 142.664C346.752 143.043 346.704 143.472 346.704 143.952C346.704 144.432 346.752 144.861 346.848 145.24C346.95 145.619 347.099 145.939 347.296 146.2C347.499 146.456 347.75 146.653 348.048 146.792C348.347 146.931 348.699 147 349.104 147ZM354.715 148V139.896H355.563C355.766 139.896 355.894 139.995 355.947 140.192L356.059 141.072C356.411 140.683 356.803 140.368 357.235 140.128C357.672 139.888 358.176 139.768 358.747 139.768C359.19 139.768 359.579 139.843 359.915 139.992C360.256 140.136 360.539 140.344 360.763 140.616C360.992 140.883 361.166 141.205 361.283 141.584C361.4 141.963 361.459 142.381 361.459 142.84V148H360.035V142.84C360.035 142.227 359.894 141.752 359.611 141.416C359.334 141.075 358.907 140.904 358.331 140.904C357.91 140.904 357.515 141.005 357.147 141.208C356.784 141.411 356.448 141.685 356.139 142.032V148H354.715ZM367.827 146.912H370.291V139.096C370.291 138.861 370.299 138.624 370.315 138.384L368.267 140.136C368.214 140.179 368.161 140.211 368.107 140.232C368.054 140.248 368.003 140.256 367.955 140.256C367.875 140.256 367.803 140.24 367.739 140.208C367.675 140.171 367.627 140.128 367.595 140.08L367.147 139.464L370.555 136.512H371.715V146.912H373.971V148H367.827V146.912Z" fill="black"/>
<path fill-rule="evenodd" clip-rule="evenodd" d="M731.707 139.707C732.098 139.317 732.731 139.317 733.121 139.707L737.707 144.293C738.098 144.683 738.098 145.317 737.707 145.707C737.317 146.098 736.683 146.098 736.293 145.707L731.707 141.121C731.317 140.731 731.317 140.098 731.707 139.707Z" fill="black"/>
<path fill-rule="evenodd" clip-rule="evenodd" d="M742.293 139.707C741.902 139.317 741.269 139.317 740.879 139.707L736.293 144.293C735.902 144.683 735.902 145.317 736.293 145.707C736.683 146.098 737.317 146.098 737.707 145.707L742.293 141.121C742.683 140.731 742.683 140.098 742.293 139.707Z" fill="black"/>
<rect x="301.5" y="185.5" width="455" height="121" rx="3.5" stroke="#979797"/>
<path d="M59.944 197.696H64.904V199H58.392V187.536H59.944V197.696ZM72.3388 199H71.7068C71.5681 199 71.4561 198.979 71.3708 198.936C71.2854 198.893 71.2294 198.803 71.2028 198.664L71.0428 197.912C70.8294 198.104 70.6214 198.277 70.4188 198.432C70.2161 198.581 70.0028 198.709 69.7788 198.816C69.5548 198.917 69.3148 198.995 69.0588 199.048C68.8081 199.101 68.5281 199.128 68.2188 199.128C67.9041 199.128 67.6081 199.085 67.3307 199C67.0588 198.909 66.8214 198.776 66.6188 198.6C66.4161 198.424 66.2534 198.203 66.1308 197.936C66.0134 197.664 65.9548 197.344 65.9548 196.976C65.9548 196.656 66.0428 196.349 66.2188 196.056C66.3948 195.757 66.6774 195.493 67.0668 195.264C67.4614 195.035 67.9761 194.848 68.6108 194.704C69.2454 194.555 70.0214 194.469 70.9388 194.448V193.816C70.9388 193.187 70.8028 192.712 70.5308 192.392C70.2641 192.067 69.8668 191.904 69.3388 191.904C68.9921 191.904 68.6988 191.949 68.4588 192.04C68.2241 192.125 68.0188 192.224 67.8428 192.336C67.6721 192.443 67.5228 192.541 67.3948 192.632C67.2721 192.717 67.1494 192.76 67.0268 192.76C66.9308 192.76 66.8454 192.736 66.7708 192.688C66.7014 192.635 66.6454 192.571 66.6028 192.496L66.3468 192.04C66.7948 191.608 67.2774 191.285 67.7948 191.072C68.3121 190.859 68.8854 190.752 69.5148 190.752C69.9681 190.752 70.3708 190.827 70.7228 190.976C71.0748 191.125 71.3708 191.333 71.6108 191.6C71.8508 191.867 72.0321 192.189 72.1548 192.568C72.2774 192.947 72.3388 193.363 72.3388 193.816V199ZM68.6428 198.128C68.8934 198.128 69.1228 198.104 69.3307 198.056C69.5388 198.003 69.7334 197.931 69.9148 197.84C70.1014 197.744 70.2774 197.629 70.4428 197.496C70.6134 197.363 70.7788 197.211 70.9388 197.04V195.352C70.2828 195.373 69.7254 195.427 69.2668 195.512C68.8081 195.592 68.4348 195.699 68.1468 195.832C67.8588 195.965 67.6481 196.123 67.5148 196.304C67.3868 196.485 67.3228 196.688 67.3228 196.912C67.3228 197.125 67.3574 197.309 67.4268 197.464C67.4961 197.619 67.5894 197.747 67.7068 197.848C67.8241 197.944 67.9628 198.016 68.1228 198.064C68.2828 198.107 68.4561 198.128 68.6428 198.128ZM74.5441 199V187.216H75.9761V192.064C76.3121 191.675 76.6961 191.363 77.1281 191.128C77.5655 190.888 78.0641 190.768 78.6241 190.768C79.0935 190.768 79.5175 190.856 79.8961 191.032C80.2748 191.208 80.5975 191.472 80.8641 191.824C81.1308 192.171 81.3361 192.603 81.4801 193.12C81.6241 193.632 81.6961 194.224 81.6961 194.896C81.6961 195.493 81.6161 196.051 81.4561 196.568C81.2961 197.08 81.0641 197.525 80.7601 197.904C80.4615 198.277 80.0935 198.573 79.6561 198.792C79.2241 199.005 78.7361 199.112 78.1921 199.112C77.6695 199.112 77.2241 199.011 76.8561 198.808C76.4935 198.605 76.1761 198.323 75.9041 197.96L75.8321 198.696C75.7895 198.899 75.6668 199 75.4641 199H74.5441ZM78.1601 191.904C77.6961 191.904 77.2881 192.011 76.9361 192.224C76.5895 192.437 76.2695 192.739 75.9761 193.128V197.048C76.2321 197.4 76.5148 197.648 76.8241 197.792C77.1388 197.936 77.4881 198.008 77.8721 198.008C78.6295 198.008 79.2108 197.739 79.6161 197.2C80.0215 196.661 80.2241 195.893 80.2241 194.896C80.2241 194.368 80.1761 193.915 80.0801 193.536C79.9895 193.157 79.8561 192.848 79.6801 192.608C79.5041 192.363 79.2881 192.184 79.0321 192.072C78.7761 191.96 78.4855 191.904 78.1601 191.904ZM86.6416 190.768C87.127 190.768 87.575 190.851 87.9856 191.016C88.3963 191.176 88.751 191.411 89.0496 191.72C89.3483 192.024 89.5803 192.403 89.7456 192.856C89.9163 193.304 90.0016 193.816 90.0016 194.392C90.0016 194.616 89.9776 194.765 89.9296 194.84C89.8816 194.915 89.791 194.952 89.6576 194.952H84.2656C84.2763 195.464 84.3456 195.909 84.4736 196.288C84.6016 196.667 84.7776 196.984 85.0016 197.24C85.2256 197.491 85.4923 197.68 85.8016 197.808C86.111 197.931 86.4576 197.992 86.8416 197.992C87.199 197.992 87.5056 197.952 87.7616 197.872C88.023 197.787 88.247 197.696 88.4336 197.6C88.6203 197.504 88.775 197.416 88.8976 197.336C89.0256 197.251 89.135 197.208 89.2256 197.208C89.343 197.208 89.4336 197.253 89.4976 197.344L89.8976 197.864C89.7216 198.077 89.511 198.264 89.2656 198.424C89.0203 198.579 88.7563 198.707 88.4736 198.808C88.1963 198.909 87.9083 198.984 87.6096 199.032C87.311 199.085 87.015 199.112 86.7216 199.112C86.1616 199.112 85.6443 199.019 85.1696 198.832C84.7003 198.64 84.2923 198.363 83.9456 198C83.6043 197.632 83.3376 197.179 83.1456 196.64C82.9536 196.101 82.8576 195.483 82.8576 194.784C82.8576 194.219 82.943 193.691 83.1136 193.2C83.2896 192.709 83.5403 192.285 83.8656 191.928C84.191 191.565 84.5883 191.283 85.0576 191.08C85.527 190.872 86.055 190.768 86.6416 190.768ZM86.6736 191.816C85.9856 191.816 85.4443 192.016 85.0496 192.416C84.655 192.811 84.4096 193.36 84.3136 194.064H88.7216C88.7216 193.733 88.6763 193.432 88.5856 193.16C88.495 192.883 88.3616 192.645 88.1856 192.448C88.0096 192.245 87.7936 192.091 87.5376 191.984C87.287 191.872 86.999 191.816 86.6736 191.816ZM93.4083 187.216V199H91.9843V187.216H93.4083Z" fill="black"/>
<path d="M316.096 206.712V211H314.552V199.536H317.936C318.661 199.536 319.291 199.621 319.824 199.792C320.363 199.957 320.808 200.195 321.16 200.504C321.512 200.813 321.773 201.187 321.944 201.624C322.12 202.061 322.208 202.549 322.208 203.088C322.208 203.621 322.115 204.109 321.928 204.552C321.741 204.995 321.467 205.376 321.104 205.696C320.747 206.016 320.301 206.267 319.768 206.448C319.235 206.624 318.624 206.712 317.936 206.712H316.096ZM316.096 205.48H317.936C318.379 205.48 318.768 205.421 319.104 205.304C319.445 205.187 319.731 205.024 319.96 204.816C320.189 204.603 320.363 204.349 320.48 204.056C320.597 203.763 320.656 203.44 320.656 203.088C320.656 202.357 320.429 201.787 319.976 201.376C319.528 200.965 318.848 200.76 317.936 200.76H316.096V205.48ZM325.533 199.216V211H324.109V199.216H325.533ZM333.995 211H333.363C333.224 211 333.112 210.979 333.027 210.936C332.942 210.893 332.886 210.803 332.859 210.664L332.699 209.912C332.486 210.104 332.278 210.277 332.075 210.432C331.872 210.581 331.659 210.709 331.435 210.816C331.211 210.917 330.971 210.995 330.715 211.048C330.464 211.101 330.184 211.128 329.875 211.128C329.56 211.128 329.264 211.085 328.987 211C328.715 210.909 328.478 210.776 328.275 210.6C328.072 210.424 327.91 210.203 327.787 209.936C327.67 209.664 327.611 209.344 327.611 208.976C327.611 208.656 327.699 208.349 327.875 208.056C328.051 207.757 328.334 207.493 328.723 207.264C329.118 207.035 329.632 206.848 330.267 206.704C330.902 206.555 331.678 206.469 332.595 206.448V205.816C332.595 205.187 332.459 204.712 332.187 204.392C331.92 204.067 331.523 203.904 330.995 203.904C330.648 203.904 330.355 203.949 330.115 204.04C329.88 204.125 329.675 204.224 329.499 204.336C329.328 204.443 329.179 204.541 329.051 204.632C328.928 204.717 328.806 204.76 328.683 204.76C328.587 204.76 328.502 204.736 328.427 204.688C328.358 204.635 328.302 204.571 328.259 204.496L328.003 204.04C328.451 203.608 328.934 203.285 329.451 203.072C329.968 202.859 330.542 202.752 331.171 202.752C331.624 202.752 332.027 202.827 332.379 202.976C332.731 203.125 333.027 203.333 333.267 203.6C333.507 203.867 333.688 204.189 333.811 204.568C333.934 204.947 333.995 205.363 333.995 205.816V211ZM330.299 210.128C330.55 210.128 330.779 210.104 330.987 210.056C331.195 210.003 331.39 209.931 331.571 209.84C331.758 209.744 331.934 209.629 332.099 209.496C332.27 209.363 332.435 209.211 332.595 209.04V207.352C331.939 207.373 331.382 207.427 330.923 207.512C330.464 207.592 330.091 207.699 329.803 207.832C329.515 207.965 329.304 208.123 329.171 208.304C329.043 208.485 328.979 208.688 328.979 208.912C328.979 209.125 329.014 209.309 329.083 209.464C329.152 209.619 329.246 209.747 329.363 209.848C329.48 209.944 329.619 210.016 329.779 210.064C329.939 210.107 330.112 210.128 330.299 210.128ZM341.68 204.336C341.638 204.395 341.595 204.44 341.552 204.472C341.51 204.504 341.448 204.52 341.368 204.52C341.288 204.52 341.2 204.488 341.104 204.424C341.014 204.355 340.896 204.28 340.752 204.2C340.608 204.12 340.432 204.048 340.224 203.984C340.022 203.915 339.771 203.88 339.472 203.88C339.078 203.88 338.728 203.952 338.424 204.096C338.12 204.235 337.864 204.437 337.656 204.704C337.454 204.971 337.299 205.293 337.192 205.672C337.091 206.051 337.04 206.475 337.04 206.944C337.04 207.435 337.096 207.872 337.208 208.256C337.32 208.635 337.478 208.955 337.68 209.216C337.883 209.472 338.128 209.669 338.416 209.808C338.71 209.941 339.038 210.008 339.4 210.008C339.747 210.008 340.032 209.968 340.256 209.888C340.48 209.803 340.667 209.709 340.816 209.608C340.966 209.507 341.088 209.416 341.184 209.336C341.28 209.251 341.376 209.208 341.472 209.208C341.595 209.208 341.686 209.253 341.744 209.344L342.144 209.864C341.792 210.296 341.352 210.613 340.824 210.816C340.296 211.013 339.739 211.112 339.152 211.112C338.646 211.112 338.174 211.019 337.736 210.832C337.304 210.645 336.928 210.376 336.608 210.024C336.288 209.667 336.035 209.229 335.848 208.712C335.667 208.195 335.576 207.605 335.576 206.944C335.576 206.341 335.659 205.784 335.824 205.272C335.995 204.76 336.24 204.32 336.56 203.952C336.886 203.579 337.286 203.288 337.76 203.08C338.235 202.872 338.779 202.768 339.392 202.768C339.958 202.768 340.459 202.861 340.896 203.048C341.334 203.229 341.72 203.488 342.056 203.824L341.68 204.336ZM346.829 202.768C347.314 202.768 347.762 202.851 348.173 203.016C348.584 203.176 348.938 203.411 349.237 203.72C349.536 204.024 349.768 204.403 349.933 204.856C350.104 205.304 350.189 205.816 350.189 206.392C350.189 206.616 350.165 206.765 350.117 206.84C350.069 206.915 349.978 206.952 349.845 206.952H344.453C344.464 207.464 344.533 207.909 344.661 208.288C344.789 208.667 344.965 208.984 345.189 209.24C345.413 209.491 345.68 209.68 345.989 209.808C346.298 209.931 346.645 209.992 347.029 209.992C347.386 209.992 347.693 209.952 347.949 209.872C348.21 209.787 348.434 209.696 348.621 209.6C348.808 209.504 348.962 209.416 349.085 209.336C349.213 209.251 349.322 209.208 349.413 209.208C349.53 209.208 349.621 209.253 349.685 209.344L350.085 209.864C349.909 210.077 349.698 210.264 349.453 210.424C349.208 210.579 348.944 210.707 348.661 210.808C348.384 210.909 348.096 210.984 347.797 211.032C347.498 211.085 347.202 211.112 346.909 211.112C346.349 211.112 345.832 211.019 345.357 210.832C344.888 210.64 344.48 210.363 344.133 210C343.792 209.632 343.525 209.179 343.333 208.64C343.141 208.101 343.045 207.483 343.045 206.784C343.045 206.219 343.13 205.691 343.301 205.2C343.477 204.709 343.728 204.285 344.053 203.928C344.378 203.565 344.776 203.283 345.245 203.08C345.714 202.872 346.242 202.768 346.829 202.768ZM346.861 203.816C346.173 203.816 345.632 204.016 345.237 204.416C344.842 204.811 344.597 205.36 344.501 206.064H348.909C348.909 205.733 348.864 205.432 348.773 205.16C348.682 204.883 348.549 204.645 348.373 204.448C348.197 204.245 347.981 204.091 347.725 203.984C347.474 203.872 347.186 203.816 346.861 203.816ZM352.012 211V199.216H353.436V203.984C353.782 203.616 354.166 203.323 354.588 203.104C355.009 202.88 355.494 202.768 356.044 202.768C356.486 202.768 356.876 202.843 357.212 202.992C357.553 203.136 357.836 203.344 358.06 203.616C358.289 203.883 358.462 204.205 358.58 204.584C358.697 204.963 358.756 205.381 358.756 205.84V211H357.332V205.84C357.332 205.227 357.19 204.752 356.908 204.416C356.63 204.075 356.204 203.904 355.628 203.904C355.206 203.904 354.812 204.005 354.444 204.208C354.081 204.411 353.745 204.685 353.436 205.032V211H352.012ZM364.182 202.768C364.774 202.768 365.308 202.867 365.782 203.064C366.262 203.261 366.668 203.541 366.998 203.904C367.334 204.267 367.59 204.707 367.766 205.224C367.948 205.736 368.038 206.309 368.038 206.944C368.038 207.584 367.948 208.16 367.766 208.672C367.59 209.184 367.334 209.621 366.998 209.984C366.668 210.347 366.262 210.627 365.782 210.824C365.308 211.016 364.774 211.112 364.182 211.112C363.59 211.112 363.054 211.016 362.574 210.824C362.1 210.627 361.694 210.347 361.358 209.984C361.022 209.621 360.764 209.184 360.582 208.672C360.401 208.16 360.31 207.584 360.31 206.944C360.31 206.309 360.401 205.736 360.582 205.224C360.764 204.707 361.022 204.267 361.358 203.904C361.694 203.541 362.1 203.261 362.574 203.064C363.054 202.867 363.59 202.768 364.182 202.768ZM364.182 210C364.982 210 365.58 209.733 365.974 209.2C366.369 208.661 366.566 207.912 366.566 206.952C366.566 205.987 366.369 205.235 365.974 204.696C365.58 204.157 364.982 203.888 364.182 203.888C363.777 203.888 363.425 203.957 363.126 204.096C362.828 204.235 362.577 204.435 362.374 204.696C362.177 204.957 362.028 205.28 361.926 205.664C361.83 206.043 361.782 206.472 361.782 206.952C361.782 207.432 361.83 207.861 361.926 208.24C362.028 208.619 362.177 208.939 362.374 209.2C362.577 209.456 362.828 209.653 363.126 209.792C363.425 209.931 363.777 210 364.182 210ZM371.377 199.216V211H369.953V199.216H371.377ZM379.591 211C379.388 211 379.26 210.901 379.207 210.704L379.079 209.72C378.732 210.141 378.335 210.48 377.887 210.736C377.444 210.987 376.935 211.112 376.359 211.112C375.895 211.112 375.473 211.024 375.095 210.848C374.716 210.667 374.393 210.403 374.127 210.056C373.86 209.709 373.655 209.277 373.511 208.76C373.367 208.243 373.295 207.648 373.295 206.976C373.295 206.379 373.375 205.824 373.535 205.312C373.695 204.795 373.924 204.347 374.223 203.968C374.527 203.589 374.895 203.293 375.327 203.08C375.759 202.861 376.249 202.752 376.799 202.752C377.295 202.752 377.719 202.837 378.071 203.008C378.423 203.173 378.737 203.408 379.015 203.712V199.216H380.439V211H379.591ZM376.831 209.96C377.295 209.96 377.7 209.853 378.047 209.64C378.399 209.427 378.721 209.125 379.015 208.736V204.816C378.753 204.464 378.465 204.219 378.151 204.08C377.841 203.936 377.497 203.864 377.119 203.864C376.361 203.864 375.78 204.133 375.375 204.672C374.969 205.211 374.767 205.979 374.767 206.976C374.767 207.504 374.812 207.957 374.903 208.336C374.993 208.709 375.127 209.019 375.303 209.264C375.479 209.504 375.695 209.68 375.951 209.792C376.207 209.904 376.5 209.96 376.831 209.96ZM386.032 202.768C386.518 202.768 386.966 202.851 387.376 203.016C387.787 203.176 388.142 203.411 388.44 203.72C388.739 204.024 388.971 204.403 389.136 204.856C389.307 205.304 389.392 205.816 389.392 206.392C389.392 206.616 389.368 206.765 389.32 206.84C389.272 206.915 389.182 206.952 389.048 206.952H383.656C383.667 207.464 383.736 207.909 383.864 208.288C383.992 208.667 384.168 208.984 384.392 209.24C384.616 209.491 384.883 209.68 385.192 209.808C385.502 209.931 385.848 209.992 386.232 209.992C386.59 209.992 386.896 209.952 387.152 209.872C387.414 209.787 387.638 209.696 387.824 209.6C388.011 209.504 388.166 209.416 388.288 209.336C388.416 209.251 388.526 209.208 388.616 209.208C388.734 209.208 388.824 209.253 388.888 209.344L389.288 209.864C389.112 210.077 388.902 210.264 388.656 210.424C388.411 210.579 388.147 210.707 387.864 210.808C387.587 210.909 387.299 210.984 387 211.032C386.702 211.085 386.406 211.112 386.112 211.112C385.552 211.112 385.035 211.019 384.56 210.832C384.091 210.64 383.683 210.363 383.336 210C382.995 209.632 382.728 209.179 382.536 208.64C382.344 208.101 382.248 207.483 382.248 206.784C382.248 206.219 382.334 205.691 382.504 205.2C382.68 204.709 382.931 204.285 383.256 203.928C383.582 203.565 383.979 203.283 384.448 203.08C384.918 202.872 385.446 202.768 386.032 202.768ZM386.064 203.816C385.376 203.816 384.835 204.016 384.44 204.416C384.046 204.811 383.8 205.36 383.704 206.064H388.112C388.112 205.733 388.067 205.432 387.976 205.16C387.886 204.883 387.752 204.645 387.576 204.448C387.4 204.245 387.184 204.091 386.928 203.984C386.678 203.872 386.39 203.816 386.064 203.816ZM391.215 211V202.896H392.031C392.186 202.896 392.292 202.925 392.351 202.984C392.41 203.043 392.45 203.144 392.471 203.288L392.567 204.552C392.844 203.987 393.186 203.547 393.591 203.232C394.002 202.912 394.482 202.752 395.031 202.752C395.255 202.752 395.458 202.779 395.639 202.832C395.82 202.88 395.988 202.949 396.143 203.04L395.959 204.104C395.922 204.237 395.839 204.304 395.711 204.304C395.636 204.304 395.522 204.28 395.367 204.232C395.212 204.179 394.996 204.152 394.719 204.152C394.223 204.152 393.807 204.296 393.471 204.584C393.14 204.872 392.863 205.291 392.639 205.84V211H391.215Z" fill="#BBBBBB"/>
<path d="M59.944 343.696H64.904V345H58.392V333.536H59.944V343.696ZM72.3388 345H71.7068C71.5681 345 71.4561 344.979 71.3708 344.936C71.2854 344.893 71.2294 344.803 71.2028 344.664L71.0428 343.912C70.8294 344.104 70.6214 344.277 70.4188 344.432C70.2161 344.581 70.0028 344.709 69.7788 344.816C69.5548 344.917 69.3148 344.995 69.0588 345.048C68.8081 345.101 68.5281 345.128 68.2188 345.128C67.9041 345.128 67.6081 345.085 67.3307 345C67.0588 344.909 66.8214 344.776 66.6188 344.6C66.4161 344.424 66.2534 344.203 66.1308 343.936C66.0134 343.664 65.9548 343.344 65.9548 342.976C65.9548 342.656 66.0428 342.349 66.2188 342.056C66.3948 341.757 66.6774 341.493 67.0668 341.264C67.4614 341.035 67.9761 340.848 68.6108 340.704C69.2454 340.555 70.0214 340.469 70.9388 340.448V339.816C70.9388 339.187 70.8028 338.712 70.5308 338.392C70.2641 338.067 69.8668 337.904 69.3388 337.904C68.9921 337.904 68.6988 337.949 68.4588 338.04C68.2241 338.125 68.0188 338.224 67.8428 338.336C67.6721 338.443 67.5228 338.541 67.3948 338.632C67.2721 338.717 67.1494 338.76 67.0268 338.76C66.9308 338.76 66.8454 338.736 66.7708 338.688C66.7014 338.635 66.6454 338.571 66.6028 338.496L66.3468 338.04C66.7948 337.608 67.2774 337.285 67.7948 337.072C68.3121 336.859 68.8854 336.752 69.5148 336.752C69.9681 336.752 70.3708 336.827 70.7228 336.976C71.0748 337.125 71.3708 337.333 71.6108 337.6C71.8508 337.867 72.0321 338.189 72.1548 338.568C72.2774 338.947 72.3388 339.363 72.3388 339.816V345ZM68.6428 344.128C68.8934 344.128 69.1228 344.104 69.3307 344.056C69.5388 344.003 69.7334 343.931 69.9148 343.84C70.1014 343.744 70.2774 343.629 70.4428 343.496C70.6134 343.363 70.7788 343.211 70.9388 343.04V341.352C70.2828 341.373 69.7254 341.427 69.2668 341.512C68.8081 341.592 68.4348 341.699 68.1468 341.832C67.8588 341.965 67.6481 342.123 67.5148 342.304C67.3868 342.485 67.3228 342.688 67.3228 342.912C67.3228 343.125 67.3574 343.309 67.4268 343.464C67.4961 343.619 67.5894 343.747 67.7068 343.848C67.8241 343.944 67.9628 344.016 68.1228 344.064C68.2828 344.107 68.4561 344.128 68.6428 344.128ZM74.5441 345V333.216H75.9761V338.064C76.3121 337.675 76.6961 337.363 77.1281 337.128C77.5655 336.888 78.0641 336.768 78.6241 336.768C79.0935 336.768 79.5175 336.856 79.8961 337.032C80.2748 337.208 80.5975 337.472 80.8641 337.824C81.1308 338.171 81.3361 338.603 81.4801 339.12C81.6241 339.632 81.6961 340.224 81.6961 340.896C81.6961 341.493 81.6161 342.051 81.4561 342.568C81.2961 343.08 81.0641 343.525 80.7601 343.904C80.4615 344.277 80.0935 344.573 79.6561 344.792C79.2241 345.005 78.7361 345.112 78.1921 345.112C77.6695 345.112 77.2241 345.011 76.8561 344.808C76.4935 344.605 76.1761 344.323 75.9041 343.96L75.8321 344.696C75.7895 344.899 75.6668 345 75.4641 345H74.5441ZM78.1601 337.904C77.6961 337.904 77.2881 338.011 76.9361 338.224C76.5895 338.437 76.2695 338.739 75.9761 339.128V343.048C76.2321 343.4 76.5148 343.648 76.8241 343.792C77.1388 343.936 77.4881 344.008 77.8721 344.008C78.6295 344.008 79.2108 343.739 79.6161 343.2C80.0215 342.661 80.2241 341.893 80.2241 340.896C80.2241 340.368 80.1761 339.915 80.0801 339.536C79.9895 339.157 79.8561 338.848 79.6801 338.608C79.5041 338.363 79.2881 338.184 79.0321 338.072C78.7761 337.96 78.4855 337.904 78.1601 337.904ZM86.6416 336.768C87.127 336.768 87.575 336.851 87.9856 337.016C88.3963 337.176 88.751 337.411 89.0496 337.72C89.3483 338.024 89.5803 338.403 89.7456 338.856C89.9163 339.304 90.0016 339.816 90.0016 340.392C90.0016 340.616 89.9776 340.765 89.9296 340.84C89.8816 340.915 89.791 340.952 89.6576 340.952H84.2656C84.2763 341.464 84.3456 341.909 84.4736 342.288C84.6016 342.667 84.7776 342.984 85.0016 343.24C85.2256 343.491 85.4923 343.68 85.8016 343.808C86.111 343.931 86.4576 343.992 86.8416 343.992C87.199 343.992 87.5056 343.952 87.7616 343.872C88.023 343.787 88.247 343.696 88.4336 343.6C88.6203 343.504 88.775 343.416 88.8976 343.336C89.0256 343.251 89.135 343.208 89.2256 343.208C89.343 343.208 89.4336 343.253 89.4976 343.344L89.8976 343.864C89.7216 344.077 89.511 344.264 89.2656 344.424C89.0203 344.579 88.7563 344.707 88.4736 344.808C88.1963 344.909 87.9083 344.984 87.6096 345.032C87.311 345.085 87.015 345.112 86.7216 345.112C86.1616 345.112 85.6443 345.019 85.1696 344.832C84.7003 344.64 84.2923 344.363 83.9456 344C83.6043 343.632 83.3376 343.179 83.1456 342.64C82.9536 342.101 82.8576 341.483 82.8576 340.784C82.8576 340.219 82.943 339.691 83.1136 339.2C83.2896 338.709 83.5403 338.285 83.8656 337.928C84.191 337.565 84.5883 337.283 85.0576 337.08C85.527 336.872 86.055 336.768 86.6416 336.768ZM86.6736 337.816C85.9856 337.816 85.4443 338.016 85.0496 338.416C84.655 338.811 84.4096 339.36 84.3136 340.064H88.7216C88.7216 339.733 88.6763 339.432 88.5856 339.16C88.495 338.883 88.3616 338.645 88.1856 338.448C88.0096 338.245 87.7936 338.091 87.5376 337.984C87.287 337.872 86.999 337.816 86.6736 337.816ZM93.4083 333.216V345H91.9843V333.216H93.4083Z" fill="black"/>
<path d="M345.04 372.272C345.04 373.131 344.904 373.92 344.632 374.64C344.36 375.355 343.976 375.971 343.48 376.488C342.984 377.005 342.387 377.408 341.688 377.696C340.995 377.979 340.227 378.12 339.384 378.12C338.541 378.12 337.773 377.979 337.08 377.696C336.387 377.408 335.792 377.005 335.296 376.488C334.8 375.971 334.416 375.355 334.144 374.64C333.872 373.92 333.736 373.131 333.736 372.272C333.736 371.413 333.872 370.627 334.144 369.912C334.416 369.192 334.8 368.573 335.296 368.056C335.792 367.533 336.387 367.128 337.08 366.84C337.773 366.552 338.541 366.408 339.384 366.408C340.227 366.408 340.995 366.552 341.688 366.84C342.387 367.128 342.984 367.533 343.48 368.056C343.976 368.573 344.36 369.192 344.632 369.912C344.904 370.627 345.04 371.413 345.04 372.272ZM343.448 372.272C343.448 371.568 343.352 370.936 343.16 370.376C342.968 369.816 342.696 369.344 342.344 368.96C341.992 368.571 341.565 368.272 341.064 368.064C340.563 367.856 340.003 367.752 339.384 367.752C338.771 367.752 338.213 367.856 337.712 368.064C337.211 368.272 336.781 368.571 336.424 368.96C336.072 369.344 335.8 369.816 335.608 370.376C335.416 370.936 335.32 371.568 335.32 372.272C335.32 372.976 335.416 373.608 335.608 374.168C335.8 374.723 336.072 375.195 336.424 375.584C336.781 375.968 337.211 376.264 337.712 376.472C338.213 376.675 338.771 376.776 339.384 376.776C340.003 376.776 340.563 376.675 341.064 376.472C341.565 376.264 341.992 375.968 342.344 375.584C342.696 375.195 342.968 374.723 343.16 374.168C343.352 373.608 343.448 372.976 343.448 372.272ZM346.934 380.744V369.896H347.782C347.984 369.896 348.112 369.995 348.166 370.192L348.286 371.152C348.632 370.731 349.027 370.392 349.47 370.136C349.918 369.88 350.432 369.752 351.014 369.752C351.478 369.752 351.899 369.843 352.278 370.024C352.656 370.2 352.979 370.464 353.246 370.816C353.512 371.163 353.718 371.595 353.862 372.112C354.006 372.629 354.078 373.224 354.078 373.896C354.078 374.493 353.998 375.051 353.838 375.568C353.678 376.08 353.448 376.525 353.15 376.904C352.851 377.277 352.483 377.573 352.046 377.792C351.614 378.005 351.126 378.112 350.582 378.112C350.08 378.112 349.651 378.029 349.294 377.864C348.942 377.699 348.63 377.464 348.358 377.16V380.744H346.934ZM350.542 370.904C350.078 370.904 349.67 371.011 349.318 371.224C348.971 371.437 348.651 371.739 348.358 372.128V376.048C348.619 376.4 348.904 376.648 349.214 376.792C349.528 376.936 349.878 377.008 350.262 377.008C351.014 377.008 351.592 376.739 351.998 376.2C352.403 375.661 352.606 374.893 352.606 373.896C352.606 373.368 352.558 372.915 352.462 372.536C352.371 372.157 352.238 371.848 352.062 371.608C351.886 371.363 351.67 371.184 351.414 371.072C351.158 370.96 350.867 370.904 350.542 370.904ZM358.218 378.128C357.578 378.128 357.084 377.949 356.738 377.592C356.396 377.235 356.226 376.72 356.226 376.048V371.088H355.25C355.164 371.088 355.092 371.064 355.034 371.016C354.975 370.963 354.946 370.883 354.946 370.776V370.208L356.274 370.04L356.602 367.536C356.612 367.456 356.647 367.392 356.706 367.344C356.764 367.291 356.839 367.264 356.93 367.264H357.65V370.056H359.97V371.088H357.65V375.952C357.65 376.293 357.732 376.547 357.898 376.712C358.063 376.877 358.276 376.96 358.538 376.96C358.687 376.96 358.815 376.941 358.922 376.904C359.034 376.861 359.13 376.816 359.21 376.768C359.29 376.72 359.356 376.677 359.41 376.64C359.468 376.597 359.519 376.576 359.562 376.576C359.636 376.576 359.703 376.621 359.762 376.712L360.178 377.392C359.932 377.621 359.636 377.803 359.29 377.936C358.943 378.064 358.586 378.128 358.218 378.128ZM363.315 369.896V378H361.891V369.896H363.315ZM363.635 367.352C363.635 367.491 363.605 367.621 363.547 367.744C363.493 367.861 363.419 367.968 363.323 368.064C363.232 368.155 363.125 368.227 363.003 368.28C362.88 368.333 362.749 368.36 362.611 368.36C362.472 368.36 362.341 368.333 362.219 368.28C362.101 368.227 361.995 368.155 361.899 368.064C361.808 367.968 361.736 367.861 361.683 367.744C361.629 367.621 361.603 367.491 361.603 367.352C361.603 367.213 361.629 367.083 361.683 366.96C361.736 366.832 361.808 366.723 361.899 366.632C361.995 366.536 362.101 366.461 362.219 366.408C362.341 366.355 362.472 366.328 362.611 366.328C362.749 366.328 362.88 366.355 363.003 366.408C363.125 366.461 363.232 366.536 363.323 366.632C363.419 366.723 363.493 366.832 363.547 366.96C363.605 367.083 363.635 367.213 363.635 367.352ZM369.104 369.768C369.696 369.768 370.23 369.867 370.704 370.064C371.184 370.261 371.59 370.541 371.92 370.904C372.256 371.267 372.512 371.707 372.688 372.224C372.87 372.736 372.96 373.309 372.96 373.944C372.96 374.584 372.87 375.16 372.688 375.672C372.512 376.184 372.256 376.621 371.92 376.984C371.59 377.347 371.184 377.627 370.704 377.824C370.23 378.016 369.696 378.112 369.104 378.112C368.512 378.112 367.976 378.016 367.496 377.824C367.022 377.627 366.616 377.347 366.28 376.984C365.944 376.621 365.686 376.184 365.504 375.672C365.323 375.16 365.232 374.584 365.232 373.944C365.232 373.309 365.323 372.736 365.504 372.224C365.686 371.707 365.944 371.267 366.28 370.904C366.616 370.541 367.022 370.261 367.496 370.064C367.976 369.867 368.512 369.768 369.104 369.768ZM369.104 377C369.904 377 370.502 376.733 370.896 376.2C371.291 375.661 371.488 374.912 371.488 373.952C371.488 372.987 371.291 372.235 370.896 371.696C370.502 371.157 369.904 370.888 369.104 370.888C368.699 370.888 368.347 370.957 368.048 371.096C367.75 371.235 367.499 371.435 367.296 371.696C367.099 371.957 366.95 372.28 366.848 372.664C366.752 373.043 366.704 373.472 366.704 373.952C366.704 374.432 366.752 374.861 366.848 375.24C366.95 375.619 367.099 375.939 367.296 376.2C367.499 376.456 367.75 376.653 368.048 376.792C368.347 376.931 368.699 377 369.104 377ZM374.715 378V369.896H375.563C375.766 369.896 375.894 369.995 375.947 370.192L376.059 371.072C376.411 370.683 376.803 370.368 377.235 370.128C377.672 369.888 378.176 369.768 378.747 369.768C379.19 369.768 379.579 369.843 379.915 369.992C380.256 370.136 380.539 370.344 380.763 370.616C380.992 370.883 381.166 371.205 381.283 371.584C381.4 371.963 381.459 372.381 381.459 372.84V378H380.035V372.84C380.035 372.227 379.894 371.752 379.611 371.416C379.334 371.075 378.907 370.904 378.331 370.904C377.91 370.904 377.515 371.005 377.147 371.208C376.784 371.411 376.448 371.685 376.139 372.032V378H374.715ZM390.339 366.408C390.825 366.408 391.278 366.48 391.699 366.624C392.121 366.768 392.483 366.979 392.787 367.256C393.097 367.528 393.339 367.861 393.515 368.256C393.691 368.651 393.779 369.099 393.779 369.6C393.779 370.027 393.715 370.421 393.587 370.784C393.459 371.147 393.286 371.496 393.067 371.832C392.849 372.163 392.595 372.485 392.307 372.8C392.025 373.109 391.723 373.427 391.403 373.752L388.387 376.84C388.601 376.781 388.817 376.736 389.035 376.704C389.254 376.667 389.465 376.648 389.667 376.648H393.507C393.662 376.648 393.785 376.693 393.875 376.784C393.966 376.875 394.011 376.992 394.011 377.136V378H386.363V377.512C386.363 377.411 386.382 377.307 386.419 377.2C386.462 377.093 386.529 376.995 386.619 376.904L390.291 373.216C390.595 372.907 390.873 372.611 391.123 372.328C391.374 372.04 391.587 371.752 391.763 371.464C391.945 371.176 392.083 370.885 392.179 370.592C392.275 370.293 392.323 369.976 392.323 369.64C392.323 369.304 392.27 369.011 392.163 368.76C392.057 368.504 391.91 368.293 391.723 368.128C391.537 367.963 391.318 367.84 391.067 367.76C390.817 367.675 390.547 367.632 390.259 367.632C389.971 367.632 389.705 367.675 389.459 367.76C389.214 367.845 388.995 367.965 388.803 368.12C388.617 368.269 388.457 368.448 388.323 368.656C388.195 368.864 388.105 369.093 388.051 369.344C388.009 369.499 387.945 369.611 387.859 369.68C387.774 369.749 387.662 369.784 387.523 369.784C387.497 369.784 387.467 369.784 387.435 369.784C387.409 369.779 387.377 369.773 387.339 369.768L386.595 369.64C386.67 369.117 386.814 368.656 387.027 368.256C387.241 367.851 387.51 367.512 387.835 367.24C388.166 366.968 388.542 366.763 388.963 366.624C389.39 366.48 389.849 366.408 390.339 366.408Z" fill="black"/>
<circle cx="312" cy="372" r="10" fill="white" stroke="#D8D8D8" stroke-width="2"/>
<path d="M345.04 402.272C345.04 403.131 344.904 403.92 344.632 404.64C344.36 405.355 343.976 405.971 343.48 406.488C342.984 407.005 342.387 407.408 341.688 407.696C340.995 407.979 340.227 408.12 339.384 408.12C338.541 408.12 337.773 407.979 337.08 407.696C336.387 407.408 335.792 407.005 335.296 406.488C334.8 405.971 334.416 405.355 334.144 404.64C333.872 403.92 333.736 403.131 333.736 402.272C333.736 401.413 333.872 400.627 334.144 399.912C334.416 399.192 334.8 398.573 335.296 398.056C335.792 397.533 336.387 397.128 337.08 396.84C337.773 396.552 338.541 396.408 339.384 396.408C340.227 396.408 340.995 396.552 341.688 396.84C342.387 397.128 342.984 397.533 343.48 398.056C343.976 398.573 344.36 399.192 344.632 399.912C344.904 400.627 345.04 401.413 345.04 402.272ZM343.448 402.272C343.448 401.568 343.352 400.936 343.16 400.376C342.968 399.816 342.696 399.344 342.344 398.96C341.992 398.571 341.565 398.272 341.064 398.064C340.563 397.856 340.003 397.752 339.384 397.752C338.771 397.752 338.213 397.856 337.712 398.064C337.211 398.272 336.781 398.571 336.424 398.96C336.072 399.344 335.8 399.816 335.608 400.376C335.416 400.936 335.32 401.568 335.32 402.272C335.32 402.976 335.416 403.608 335.608 404.168C335.8 404.723 336.072 405.195 336.424 405.584C336.781 405.968 337.211 406.264 337.712 406.472C338.213 406.675 338.771 406.776 339.384 406.776C340.003 406.776 340.563 406.675 341.064 406.472C341.565 406.264 341.992 405.968 342.344 405.584C342.696 405.195 342.968 404.723 343.16 404.168C343.352 403.608 343.448 402.976 343.448 402.272ZM346.934 410.744V399.896H347.782C347.984 399.896 348.112 399.995 348.166 400.192L348.286 401.152C348.632 400.731 349.027 400.392 349.47 400.136C349.918 399.88 350.432 399.752 351.014 399.752C351.478 399.752 351.899 399.843 352.278 400.024C352.656 400.2 352.979 400.464 353.246 400.816C353.512 401.163 353.718 401.595 353.862 402.112C354.006 402.629 354.078 403.224 354.078 403.896C354.078 404.493 353.998 405.051 353.838 405.568C353.678 406.08 353.448 406.525 353.15 406.904C352.851 407.277 352.483 407.573 352.046 407.792C351.614 408.005 351.126 408.112 350.582 408.112C350.08 408.112 349.651 408.029 349.294 407.864C348.942 407.699 348.63 407.464 348.358 407.16V410.744H346.934ZM350.542 400.904C350.078 400.904 349.67 401.011 349.318 401.224C348.971 401.437 348.651 401.739 348.358 402.128V406.048C348.619 406.4 348.904 406.648 349.214 406.792C349.528 406.936 349.878 407.008 350.262 407.008C351.014 407.008 351.592 406.739 351.998 406.2C352.403 405.661 352.606 404.893 352.606 403.896C352.606 403.368 352.558 402.915 352.462 402.536C352.371 402.157 352.238 401.848 352.062 401.608C351.886 401.363 351.67 401.184 351.414 401.072C351.158 400.96 350.867 400.904 350.542 400.904ZM358.218 408.128C357.578 408.128 357.084 407.949 356.738 407.592C356.396 407.235 356.226 406.72 356.226 406.048V401.088H355.25C355.164 401.088 355.092 401.064 355.034 401.016C354.975 400.963 354.946 400.883 354.946 400.776V400.208L356.274 400.04L356.602 397.536C356.612 397.456 356.647 397.392 356.706 397.344C356.764 397.291 356.839 397.264 356.93 397.264H357.65V400.056H359.97V401.088H357.65V405.952C357.65 406.293 357.732 406.547 357.898 406.712C358.063 406.877 358.276 406.96 358.538 406.96C358.687 406.96 358.815 406.941 358.922 406.904C359.034 406.861 359.13 406.816 359.21 406.768C359.29 406.72 359.356 406.677 359.41 406.64C359.468 406.597 359.519 406.576 359.562 406.576C359.636 406.576 359.703 406.621 359.762 406.712L360.178 407.392C359.932 407.621 359.636 407.803 359.29 407.936C358.943 408.064 358.586 408.128 358.218 408.128ZM363.315 399.896V408H361.891V399.896H363.315ZM363.635 397.352C363.635 397.491 363.605 397.621 363.547 397.744C363.493 397.861 363.419 397.968 363.323 398.064C363.232 398.155 363.125 398.227 363.003 398.28C362.88 398.333 362.749 398.36 362.611 398.36C362.472 398.36 362.341 398.333 362.219 398.28C362.101 398.227 361.995 398.155 361.899 398.064C361.808 397.968 361.736 397.861 361.683 397.744C361.629 397.621 361.603 397.491 361.603 397.352C361.603 397.213 361.629 397.083 361.683 396.96C361.736 396.832 361.808 396.723 361.899 396.632C361.995 396.536 362.101 396.461 362.219 396.408C362.341 396.355 362.472 396.328 362.611 396.328C362.749 396.328 362.88 396.355 363.003 396.408C363.125 396.461 363.232 396.536 363.323 396.632C363.419 396.723 363.493 396.832 363.547 396.96C363.605 397.083 363.635 397.213 363.635 397.352ZM369.104 399.768C369.696 399.768 370.23 399.867 370.704 400.064C371.184 400.261 371.59 400.541 371.92 400.904C372.256 401.267 372.512 401.707 372.688 402.224C372.87 402.736 372.96 403.309 372.96 403.944C372.96 404.584 372.87 405.16 372.688 405.672C372.512 406.184 372.256 406.621 371.92 406.984C371.59 407.347 371.184 407.627 370.704 407.824C370.23 408.016 369.696 408.112 369.104 408.112C368.512 408.112 367.976 408.016 367.496 407.824C367.022 407.627 366.616 407.347 366.28 406.984C365.944 406.621 365.686 406.184 365.504 405.672C365.323 405.16 365.232 404.584 365.232 403.944C365.232 403.309 365.323 402.736 365.504 402.224C365.686 401.707 365.944 401.267 366.28 400.904C366.616 400.541 367.022 400.261 367.496 400.064C367.976 399.867 368.512 399.768 369.104 399.768ZM369.104 407C369.904 407 370.502 406.733 370.896 406.2C371.291 405.661 371.488 404.912 371.488 403.952C371.488 402.987 371.291 402.235 370.896 401.696C370.502 401.157 369.904 400.888 369.104 400.888C368.699 400.888 368.347 400.957 368.048 401.096C367.75 401.235 367.499 401.435 367.296 401.696C367.099 401.957 366.95 402.28 366.848 402.664C366.752 403.043 366.704 403.472 366.704 403.952C366.704 404.432 366.752 404.861 366.848 405.24C366.95 405.619 367.099 405.939 367.296 406.2C367.499 406.456 367.75 406.653 368.048 406.792C368.347 406.931 368.699 407 369.104 407ZM374.715 408V399.896H375.563C375.766 399.896 375.894 399.995 375.947 400.192L376.059 401.072C376.411 400.683 376.803 400.368 377.235 400.128C377.672 399.888 378.176 399.768 378.747 399.768C379.19 399.768 379.579 399.843 379.915 399.992C380.256 400.136 380.539 400.344 380.763 400.616C380.992 400.883 381.166 401.205 381.283 401.584C381.4 401.963 381.459 402.381 381.459 402.84V408H380.035V402.84C380.035 402.227 379.894 401.752 379.611 401.416C379.334 401.075 378.907 400.904 378.331 400.904C377.91 400.904 377.515 401.005 377.147 401.208C376.784 401.411 376.448 401.685 376.139 402.032V408H374.715ZM390.491 396.408C390.977 396.408 391.425 396.477 391.835 396.616C392.246 396.755 392.598 396.952 392.891 397.208C393.19 397.464 393.422 397.773 393.587 398.136C393.753 398.499 393.835 398.901 393.835 399.344C393.835 399.707 393.787 400.032 393.691 400.32C393.601 400.603 393.467 400.853 393.291 401.072C393.121 401.285 392.913 401.467 392.667 401.616C392.422 401.765 392.147 401.885 391.843 401.976C392.59 402.173 393.15 402.504 393.523 402.968C393.902 403.432 394.091 404.013 394.091 404.712C394.091 405.24 393.99 405.715 393.787 406.136C393.59 406.557 393.318 406.917 392.971 407.216C392.625 407.509 392.219 407.736 391.755 407.896C391.297 408.051 390.803 408.128 390.275 408.128C389.667 408.128 389.147 408.053 388.715 407.904C388.283 407.749 387.918 407.539 387.619 407.272C387.321 407.005 387.075 406.691 386.883 406.328C386.691 405.96 386.529 405.563 386.395 405.136L387.003 404.88C387.115 404.832 387.227 404.808 387.339 404.808C387.446 404.808 387.539 404.832 387.619 404.88C387.705 404.923 387.769 404.992 387.811 405.088C387.822 405.109 387.833 405.133 387.843 405.16C387.854 405.181 387.865 405.205 387.875 405.232C387.95 405.387 388.041 405.563 388.147 405.76C388.254 405.952 388.398 406.133 388.579 406.304C388.761 406.475 388.985 406.619 389.251 406.736C389.523 406.853 389.859 406.912 390.259 406.912C390.659 406.912 391.009 406.848 391.307 406.72C391.611 406.587 391.862 406.416 392.059 406.208C392.262 406 392.414 405.768 392.515 405.512C392.617 405.256 392.667 405.003 392.667 404.752C392.667 404.443 392.625 404.16 392.539 403.904C392.459 403.648 392.31 403.427 392.091 403.24C391.878 403.053 391.579 402.907 391.195 402.8C390.817 402.693 390.329 402.64 389.731 402.64V401.608C390.217 401.603 390.63 401.549 390.971 401.448C391.318 401.347 391.601 401.208 391.819 401.032C392.038 400.856 392.195 400.645 392.291 400.4C392.393 400.155 392.443 399.883 392.443 399.584C392.443 399.253 392.39 398.965 392.283 398.72C392.182 398.475 392.041 398.272 391.859 398.112C391.678 397.952 391.462 397.832 391.211 397.752C390.966 397.672 390.699 397.632 390.411 397.632C390.123 397.632 389.857 397.675 389.611 397.76C389.366 397.845 389.147 397.965 388.955 398.12C388.769 398.269 388.611 398.451 388.483 398.664C388.355 398.872 388.259 399.099 388.195 399.344C388.153 399.499 388.089 399.611 388.003 399.68C387.918 399.749 387.809 399.784 387.675 399.784C387.649 399.784 387.619 399.784 387.587 399.784C387.561 399.779 387.529 399.773 387.491 399.768L386.747 399.64C386.822 399.117 386.966 398.656 387.179 398.256C387.393 397.851 387.662 397.512 387.987 397.24C388.318 396.968 388.694 396.763 389.115 396.624C389.542 396.48 390.001 396.408 390.491 396.408Z" fill="black"/>
<circle cx="312" cy="402" r="10" fill="white" stroke="#D8D8D8" stroke-width="2"/>
<path d="M345.04 342.272C345.04 343.131 344.904 343.92 344.632 344.64C344.36 345.355 343.976 345.971 343.48 346.488C342.984 347.005 342.387 347.408 341.688 347.696C340.995 347.979 340.227 348.12 339.384 348.12C338.541 348.12 337.773 347.979 337.08 347.696C336.387 347.408 335.792 347.005 335.296 346.488C334.8 345.971 334.416 345.355 334.144 344.64C333.872 343.92 333.736 343.131 333.736 342.272C333.736 341.413 333.872 340.627 334.144 339.912C334.416 339.192 334.8 338.573 335.296 338.056C335.792 337.533 336.387 337.128 337.08 336.84C337.773 336.552 338.541 336.408 339.384 336.408C340.227 336.408 340.995 336.552 341.688 336.84C342.387 337.128 342.984 337.533 343.48 338.056C343.976 338.573 344.36 339.192 344.632 339.912C344.904 340.627 345.04 341.413 345.04 342.272ZM343.448 342.272C343.448 341.568 343.352 340.936 343.16 340.376C342.968 339.816 342.696 339.344 342.344 338.96C341.992 338.571 341.565 338.272 341.064 338.064C340.563 337.856 340.003 337.752 339.384 337.752C338.771 337.752 338.213 337.856 337.712 338.064C337.211 338.272 336.781 338.571 336.424 338.96C336.072 339.344 335.8 339.816 335.608 340.376C335.416 340.936 335.32 341.568 335.32 342.272C335.32 342.976 335.416 343.608 335.608 344.168C335.8 344.723 336.072 345.195 336.424 345.584C336.781 345.968 337.211 346.264 337.712 346.472C338.213 346.675 338.771 346.776 339.384 346.776C340.003 346.776 340.563 346.675 341.064 346.472C341.565 346.264 341.992 345.968 342.344 345.584C342.696 345.195 342.968 344.723 343.16 344.168C343.352 343.608 343.448 342.976 343.448 342.272ZM346.934 350.744V339.896H347.782C347.984 339.896 348.112 339.995 348.166 340.192L348.286 341.152C348.632 340.731 349.027 340.392 349.47 340.136C349.918 339.88 350.432 339.752 351.014 339.752C351.478 339.752 351.899 339.843 352.278 340.024C352.656 340.2 352.979 340.464 353.246 340.816C353.512 341.163 353.718 341.595 353.862 342.112C354.006 342.629 354.078 343.224 354.078 343.896C354.078 344.493 353.998 345.051 353.838 345.568C353.678 346.08 353.448 346.525 353.15 346.904C352.851 347.277 352.483 347.573 352.046 347.792C351.614 348.005 351.126 348.112 350.582 348.112C350.08 348.112 349.651 348.029 349.294 347.864C348.942 347.699 348.63 347.464 348.358 347.16V350.744H346.934ZM350.542 340.904C350.078 340.904 349.67 341.011 349.318 341.224C348.971 341.437 348.651 341.739 348.358 342.128V346.048C348.619 346.4 348.904 346.648 349.214 346.792C349.528 346.936 349.878 347.008 350.262 347.008C351.014 347.008 351.592 346.739 351.998 346.2C352.403 345.661 352.606 344.893 352.606 343.896C352.606 343.368 352.558 342.915 352.462 342.536C352.371 342.157 352.238 341.848 352.062 341.608C351.886 341.363 351.67 341.184 351.414 341.072C351.158 340.96 350.867 340.904 350.542 340.904ZM358.218 348.128C357.578 348.128 357.084 347.949 356.738 347.592C356.396 347.235 356.226 346.72 356.226 346.048V341.088H355.25C355.164 341.088 355.092 341.064 355.034 341.016C354.975 340.963 354.946 340.883 354.946 340.776V340.208L356.274 340.04L356.602 337.536C356.612 337.456 356.647 337.392 356.706 337.344C356.764 337.291 356.839 337.264 356.93 337.264H357.65V340.056H359.97V341.088H357.65V345.952C357.65 346.293 357.732 346.547 357.898 346.712C358.063 346.877 358.276 346.96 358.538 346.96C358.687 346.96 358.815 346.941 358.922 346.904C359.034 346.861 359.13 346.816 359.21 346.768C359.29 346.72 359.356 346.677 359.41 346.64C359.468 346.597 359.519 346.576 359.562 346.576C359.636 346.576 359.703 346.621 359.762 346.712L360.178 347.392C359.932 347.621 359.636 347.803 359.29 347.936C358.943 348.064 358.586 348.128 358.218 348.128ZM363.315 339.896V348H361.891V339.896H363.315ZM363.635 337.352C363.635 337.491 363.605 337.621 363.547 337.744C363.493 337.861 363.419 337.968 363.323 338.064C363.232 338.155 363.125 338.227 363.003 338.28C362.88 338.333 362.749 338.36 362.611 338.36C362.472 338.36 362.341 338.333 362.219 338.28C362.101 338.227 361.995 338.155 361.899 338.064C361.808 337.968 361.736 337.861 361.683 337.744C361.629 337.621 361.603 337.491 361.603 337.352C361.603 337.213 361.629 337.083 361.683 336.96C361.736 336.832 361.808 336.723 361.899 336.632C361.995 336.536 362.101 336.461 362.219 336.408C362.341 336.355 362.472 336.328 362.611 336.328C362.749 336.328 362.88 336.355 363.003 336.408C363.125 336.461 363.232 336.536 363.323 336.632C363.419 336.723 363.493 336.832 363.547 336.96C363.605 337.083 363.635 337.213 363.635 337.352ZM369.104 339.768C369.696 339.768 370.23 339.867 370.704 340.064C371.184 340.261 371.59 340.541 371.92 340.904C372.256 341.267 372.512 341.707 372.688 342.224C372.87 342.736 372.96 343.309 372.96 343.944C372.96 344.584 372.87 345.16 372.688 345.672C372.512 346.184 372.256 346.621 371.92 346.984C371.59 347.347 371.184 347.627 370.704 347.824C370.23 348.016 369.696 348.112 369.104 348.112C368.512 348.112 367.976 348.016 367.496 347.824C367.022 347.627 366.616 347.347 366.28 346.984C365.944 346.621 365.686 346.184 365.504 345.672C365.323 345.16 365.232 344.584 365.232 343.944C365.232 343.309 365.323 342.736 365.504 342.224C365.686 341.707 365.944 341.267 366.28 340.904C366.616 340.541 367.022 340.261 367.496 340.064C367.976 339.867 368.512 339.768 369.104 339.768ZM369.104 347C369.904 347 370.502 346.733 370.896 346.2C371.291 345.661 371.488 344.912 371.488 343.952C371.488 342.987 371.291 342.235 370.896 341.696C370.502 341.157 369.904 340.888 369.104 340.888C368.699 340.888 368.347 340.957 368.048 341.096C367.75 341.235 367.499 341.435 367.296 341.696C367.099 341.957 366.95 342.28 366.848 342.664C366.752 343.043 366.704 343.472 366.704 343.952C366.704 344.432 366.752 344.861 366.848 345.24C366.95 345.619 367.099 345.939 367.296 346.2C367.499 346.456 367.75 346.653 368.048 346.792C368.347 346.931 368.699 347 369.104 347ZM374.715 348V339.896H375.563C375.766 339.896 375.894 339.995 375.947 340.192L376.059 341.072C376.411 340.683 376.803 340.368 377.235 340.128C377.672 339.888 378.176 339.768 378.747 339.768C379.19 339.768 379.579 339.843 379.915 339.992C380.256 340.136 380.539 340.344 380.763 340.616C380.992 340.883 381.166 341.205 381.283 341.584C381.4 341.963 381.459 342.381 381.459 342.84V348H380.035V342.84C380.035 342.227 379.894 341.752 379.611 341.416C379.334 341.075 378.907 340.904 378.331 340.904C377.91 340.904 377.515 341.005 377.147 341.208C376.784 341.411 376.448 341.685 376.139 342.032V348H374.715ZM387.827 346.912H390.291V339.096C390.291 338.861 390.299 338.624 390.315 338.384L388.267 340.136C388.214 340.179 388.161 340.211 388.107 340.232C388.054 340.248 388.003 340.256 387.955 340.256C387.875 340.256 387.803 340.24 387.739 340.208C387.675 340.171 387.627 340.128 387.595 340.08L387.147 339.464L390.555 336.512H391.715V346.912H393.971V348H387.827V346.912Z" fill="black"/>
<circle cx="312" cy="342" r="10" fill="white" stroke="#D8D8D8" stroke-width="2"/>
<circle cx="312" cy="342" r="8" fill="white" stroke="#0064D1" stroke-width="6"/>
</svg>
