<svg width="800" height="530" viewBox="0 0 800 530" fill="none" xmlns="http://www.w3.org/2000/svg">
<path d="M0 530H800V0H0V530Z" fill="#D1D1D1"/>
<path d="M0 20H800V0H0V20Z" fill="#DFDFDF"/>
<path d="M0 50H800V20H0V50Z" fill="#171717"/>
<rect y="50" width="800" height="480" fill="white"/>
<rect x="427" y="433" width="106" height="38" rx="19" fill="#0064D1"/>
<rect x="442" y="445" width="79" height="15" fill="white" fill-opacity="0.09"/>
<rect x="269" y="114" width="118" height="10" fill="#686868"/>
<rect x="269" y="135" width="264" height="32" fill="#D1D1D1"/>
<rect x="269" y="194" width="118" height="10" fill="#686868"/>
<rect x="269" y="215" width="264" height="32" fill="#D1D1D1"/>
<rect x="269" y="274" width="118" height="10" fill="#686868"/>
<rect x="269" y="295" width="264" height="32" fill="#D1D1D1"/>
<rect x="269" y="354" width="118" height="10" fill="#686868"/>
<rect x="269" y="375" width="264" height="32" fill="#D1D1D1"/>
<rect x="341" y="445" width="60" height="15" fill="#0064D1" fill-opacity="0.07"/>
</svg>
