<svg width="800" height="530" viewBox="0 0 800 530" fill="none" xmlns="http://www.w3.org/2000/svg">
<path d="M0 530H800V0H0V530Z" fill="#5F5F5F"/>
<path d="M0 20H800V0H0V20Z" fill="#DFDFDF"/>
<path d="M0 50H800V20H0V50Z" fill="#171717"/>
<rect x="485" y="50" width="315" height="480" fill="white"/>
<rect x="512" y="103" width="118" height="10" fill="#686868"/>
<rect x="512" y="124" width="264" height="32" fill="#D1D1D1"/>
<rect x="512" y="183" width="118" height="10" fill="#686868"/>
<rect x="512" y="204" width="264" height="32" fill="#D1D1D1"/>
<rect x="512" y="263" width="118" height="10" fill="#686868"/>
<rect x="512" y="284" width="264" height="32" fill="#D1D1D1"/>
<rect x="512" y="343" width="118" height="10" fill="#686868"/>
<rect x="512" y="364" width="264" height="32" fill="#D1D1D1"/>
<rect x="485" y="463" width="315" height="1" fill="#D1D1D1"/>
<rect x="670" y="477" width="106" height="38" rx="19" fill="#0064D1"/>
<rect x="685" y="489" width="79" height="15" fill="white" fill-opacity="0.09"/>
<rect x="584" y="489" width="60" height="15" fill="#0064D1" fill-opacity="0.07"/>
<rect x="716" y="489" width="60" height="15" fill="#0064D1" fill-opacity="0.07"/>
</svg>
