<svg width="814" height="539" viewBox="0 0 814 539" fill="none" xmlns="http://www.w3.org/2000/svg">
<rect width="814" height="539" fill="white"/>
<rect x="198.5" y="58.5" width="455" height="37" rx="3.5" stroke="#979797"/>
<path d="M200.944 44.696H205.904V46H199.392V34.536H200.944V44.696ZM213.339 46H212.707C212.568 46 212.456 45.9787 212.371 45.936C212.285 45.8933 212.229 45.8027 212.203 45.664L212.043 44.912C211.829 45.104 211.621 45.2773 211.419 45.432C211.216 45.5813 211.003 45.7093 210.779 45.816C210.555 45.9173 210.315 45.9947 210.059 46.048C209.808 46.1013 209.528 46.128 209.219 46.128C208.904 46.128 208.608 46.0853 208.331 46C208.059 45.9093 207.821 45.776 207.619 45.6C207.416 45.424 207.253 45.2027 207.131 44.936C207.013 44.664 206.955 44.344 206.955 43.976C206.955 43.656 207.043 43.3493 207.219 43.056C207.395 42.7573 207.677 42.4933 208.067 42.264C208.461 42.0347 208.976 41.848 209.611 41.704C210.245 41.5547 211.021 41.4693 211.939 41.448V40.816C211.939 40.1867 211.803 39.712 211.531 39.392C211.264 39.0667 210.867 38.904 210.339 38.904C209.992 38.904 209.699 38.9493 209.459 39.04C209.224 39.1253 209.019 39.224 208.843 39.336C208.672 39.4427 208.523 39.5413 208.395 39.632C208.272 39.7173 208.149 39.76 208.027 39.76C207.931 39.76 207.845 39.736 207.771 39.688C207.701 39.6347 207.645 39.5707 207.603 39.496L207.347 39.04C207.795 38.608 208.277 38.2853 208.795 38.072C209.312 37.8587 209.885 37.752 210.515 37.752C210.968 37.752 211.371 37.8267 211.723 37.976C212.075 38.1253 212.371 38.3333 212.611 38.6C212.851 38.8667 213.032 39.1893 213.155 39.568C213.277 39.9467 213.339 40.3627 213.339 40.816V46ZM209.643 45.128C209.893 45.128 210.123 45.104 210.331 45.056C210.539 45.0027 210.733 44.9307 210.915 44.84C211.101 44.744 211.277 44.6293 211.443 44.496C211.613 44.3627 211.779 44.2107 211.939 44.04V42.352C211.283 42.3733 210.725 42.4267 210.267 42.512C209.808 42.592 209.435 42.6987 209.147 42.832C208.859 42.9653 208.648 43.1227 208.515 43.304C208.387 43.4853 208.323 43.688 208.323 43.912C208.323 44.1253 208.357 44.3093 208.427 44.464C208.496 44.6187 208.589 44.7467 208.707 44.848C208.824 44.944 208.963 45.016 209.123 45.064C209.283 45.1067 209.456 45.128 209.643 45.128ZM215.544 46V34.216H216.976V39.064C217.312 38.6747 217.696 38.3627 218.128 38.128C218.565 37.888 219.064 37.768 219.624 37.768C220.093 37.768 220.517 37.856 220.896 38.032C221.275 38.208 221.597 38.472 221.864 38.824C222.131 39.1707 222.336 39.6027 222.48 40.12C222.624 40.632 222.696 41.224 222.696 41.896C222.696 42.4933 222.616 43.0507 222.456 43.568C222.296 44.08 222.064 44.5253 221.76 44.904C221.461 45.2773 221.093 45.5733 220.656 45.792C220.224 46.0053 219.736 46.112 219.192 46.112C218.669 46.112 218.224 46.0107 217.856 45.808C217.493 45.6053 217.176 45.3227 216.904 44.96L216.832 45.696C216.789 45.8987 216.667 46 216.464 46H215.544ZM219.16 38.904C218.696 38.904 218.288 39.0107 217.936 39.224C217.589 39.4373 217.269 39.7387 216.976 40.128V44.048C217.232 44.4 217.515 44.648 217.824 44.792C218.139 44.936 218.488 45.008 218.872 45.008C219.629 45.008 220.211 44.7387 220.616 44.2C221.021 43.6613 221.224 42.8933 221.224 41.896C221.224 41.368 221.176 40.9147 221.08 40.536C220.989 40.1573 220.856 39.848 220.68 39.608C220.504 39.3627 220.288 39.184 220.032 39.072C219.776 38.96 219.485 38.904 219.16 38.904ZM227.642 37.768C228.127 37.768 228.575 37.8507 228.986 38.016C229.396 38.176 229.751 38.4107 230.05 38.72C230.348 39.024 230.58 39.4027 230.746 39.856C230.916 40.304 231.002 40.816 231.002 41.392C231.002 41.616 230.978 41.7653 230.93 41.84C230.882 41.9147 230.791 41.952 230.658 41.952H225.266C225.276 42.464 225.346 42.9093 225.474 43.288C225.602 43.6667 225.778 43.984 226.002 44.24C226.226 44.4907 226.492 44.68 226.802 44.808C227.111 44.9307 227.458 44.992 227.842 44.992C228.199 44.992 228.506 44.952 228.762 44.872C229.023 44.7867 229.247 44.696 229.434 44.6C229.62 44.504 229.775 44.416 229.898 44.336C230.026 44.2507 230.135 44.208 230.226 44.208C230.343 44.208 230.434 44.2533 230.498 44.344L230.898 44.864C230.722 45.0773 230.511 45.264 230.266 45.424C230.02 45.5787 229.756 45.7067 229.474 45.808C229.196 45.9093 228.908 45.984 228.61 46.032C228.311 46.0853 228.015 46.112 227.722 46.112C227.162 46.112 226.644 46.0187 226.17 45.832C225.7 45.64 225.292 45.3627 224.946 45C224.604 44.632 224.338 44.1787 224.146 43.64C223.954 43.1013 223.858 42.4827 223.858 41.784C223.858 41.2187 223.943 40.6907 224.114 40.2C224.29 39.7093 224.54 39.2853 224.866 38.928C225.191 38.5653 225.588 38.2827 226.058 38.08C226.527 37.872 227.055 37.768 227.642 37.768ZM227.674 38.816C226.986 38.816 226.444 39.016 226.05 39.416C225.655 39.8107 225.41 40.36 225.314 41.064H229.722C229.722 40.7333 229.676 40.432 229.586 40.16C229.495 39.8827 229.362 39.6453 229.186 39.448C229.01 39.2453 228.794 39.0907 228.538 38.984C228.287 38.872 227.999 38.816 227.674 38.816ZM234.408 34.216V46H232.984V34.216H234.408Z" fill="black"/>
<path d="M213.096 78.712V83H211.552V71.536H214.936C215.661 71.536 216.291 71.6213 216.824 71.792C217.363 71.9573 217.808 72.1947 218.16 72.504C218.512 72.8133 218.773 73.1867 218.944 73.624C219.12 74.0613 219.208 74.5493 219.208 75.088C219.208 75.6213 219.115 76.1093 218.928 76.552C218.741 76.9947 218.467 77.376 218.104 77.696C217.747 78.016 217.301 78.2667 216.768 78.448C216.235 78.624 215.624 78.712 214.936 78.712H213.096ZM213.096 77.48H214.936C215.379 77.48 215.768 77.4213 216.104 77.304C216.445 77.1867 216.731 77.024 216.96 76.816C217.189 76.6027 217.363 76.3493 217.48 76.056C217.597 75.7627 217.656 75.44 217.656 75.088C217.656 74.3573 217.429 73.7867 216.976 73.376C216.528 72.9653 215.848 72.76 214.936 72.76H213.096V77.48ZM222.533 71.216V83H221.109V71.216H222.533ZM230.995 83H230.363C230.224 83 230.112 82.9787 230.027 82.936C229.942 82.8933 229.886 82.8027 229.859 82.664L229.699 81.912C229.486 82.104 229.278 82.2773 229.075 82.432C228.872 82.5813 228.659 82.7093 228.435 82.816C228.211 82.9173 227.971 82.9947 227.715 83.048C227.464 83.1013 227.184 83.128 226.875 83.128C226.56 83.128 226.264 83.0853 225.987 83C225.715 82.9093 225.478 82.776 225.275 82.6C225.072 82.424 224.91 82.2027 224.787 81.936C224.67 81.664 224.611 81.344 224.611 80.976C224.611 80.656 224.699 80.3493 224.875 80.056C225.051 79.7573 225.334 79.4933 225.723 79.264C226.118 79.0347 226.632 78.848 227.267 78.704C227.902 78.5547 228.678 78.4693 229.595 78.448V77.816C229.595 77.1867 229.459 76.712 229.187 76.392C228.92 76.0667 228.523 75.904 227.995 75.904C227.648 75.904 227.355 75.9493 227.115 76.04C226.88 76.1253 226.675 76.224 226.499 76.336C226.328 76.4427 226.179 76.5413 226.051 76.632C225.928 76.7173 225.806 76.76 225.683 76.76C225.587 76.76 225.502 76.736 225.427 76.688C225.358 76.6347 225.302 76.5707 225.259 76.496L225.003 76.04C225.451 75.608 225.934 75.2853 226.451 75.072C226.968 74.8587 227.542 74.752 228.171 74.752C228.624 74.752 229.027 74.8267 229.379 74.976C229.731 75.1253 230.027 75.3333 230.267 75.6C230.507 75.8667 230.688 76.1893 230.811 76.568C230.934 76.9467 230.995 77.3627 230.995 77.816V83ZM227.299 82.128C227.55 82.128 227.779 82.104 227.987 82.056C228.195 82.0027 228.39 81.9307 228.571 81.84C228.758 81.744 228.934 81.6293 229.099 81.496C229.27 81.3627 229.435 81.2107 229.595 81.04V79.352C228.939 79.3733 228.382 79.4267 227.923 79.512C227.464 79.592 227.091 79.6987 226.803 79.832C226.515 79.9653 226.304 80.1227 226.171 80.304C226.043 80.4853 225.979 80.688 225.979 80.912C225.979 81.1253 226.014 81.3093 226.083 81.464C226.152 81.6187 226.246 81.7467 226.363 81.848C226.48 81.944 226.619 82.016 226.779 82.064C226.939 82.1067 227.112 82.128 227.299 82.128ZM238.68 76.336C238.638 76.3947 238.595 76.44 238.552 76.472C238.51 76.504 238.448 76.52 238.368 76.52C238.288 76.52 238.2 76.488 238.104 76.424C238.014 76.3547 237.896 76.28 237.752 76.2C237.608 76.12 237.432 76.048 237.224 75.984C237.022 75.9147 236.771 75.88 236.472 75.88C236.078 75.88 235.728 75.952 235.424 76.096C235.12 76.2347 234.864 76.4373 234.656 76.704C234.454 76.9707 234.299 77.2933 234.192 77.672C234.091 78.0507 234.04 78.4747 234.04 78.944C234.04 79.4347 234.096 79.872 234.208 80.256C234.32 80.6347 234.478 80.9547 234.68 81.216C234.883 81.472 235.128 81.6693 235.416 81.808C235.71 81.9413 236.038 82.008 236.4 82.008C236.747 82.008 237.032 81.968 237.256 81.888C237.48 81.8027 237.667 81.7093 237.816 81.608C237.966 81.5067 238.088 81.416 238.184 81.336C238.28 81.2507 238.376 81.208 238.472 81.208C238.595 81.208 238.686 81.2533 238.744 81.344L239.144 81.864C238.792 82.296 238.352 82.6133 237.824 82.816C237.296 83.0133 236.739 83.112 236.152 83.112C235.646 83.112 235.174 83.0187 234.736 82.832C234.304 82.6453 233.928 82.376 233.608 82.024C233.288 81.6667 233.035 81.2293 232.848 80.712C232.667 80.1947 232.576 79.6053 232.576 78.944C232.576 78.3413 232.659 77.784 232.824 77.272C232.995 76.76 233.24 76.32 233.56 75.952C233.886 75.5787 234.286 75.288 234.76 75.08C235.235 74.872 235.779 74.768 236.392 74.768C236.958 74.768 237.459 74.8613 237.896 75.048C238.334 75.2293 238.72 75.488 239.056 75.824L238.68 76.336ZM243.829 74.768C244.314 74.768 244.762 74.8507 245.173 75.016C245.584 75.176 245.938 75.4107 246.237 75.72C246.536 76.024 246.768 76.4027 246.933 76.856C247.104 77.304 247.189 77.816 247.189 78.392C247.189 78.616 247.165 78.7653 247.117 78.84C247.069 78.9147 246.978 78.952 246.845 78.952H241.453C241.464 79.464 241.533 79.9093 241.661 80.288C241.789 80.6667 241.965 80.984 242.189 81.24C242.413 81.4907 242.68 81.68 242.989 81.808C243.298 81.9307 243.645 81.992 244.029 81.992C244.386 81.992 244.693 81.952 244.949 81.872C245.21 81.7867 245.434 81.696 245.621 81.6C245.808 81.504 245.962 81.416 246.085 81.336C246.213 81.2507 246.322 81.208 246.413 81.208C246.53 81.208 246.621 81.2533 246.685 81.344L247.085 81.864C246.909 82.0773 246.698 82.264 246.453 82.424C246.208 82.5787 245.944 82.7067 245.661 82.808C245.384 82.9093 245.096 82.984 244.797 83.032C244.498 83.0853 244.202 83.112 243.909 83.112C243.349 83.112 242.832 83.0187 242.357 82.832C241.888 82.64 241.48 82.3627 241.133 82C240.792 81.632 240.525 81.1787 240.333 80.64C240.141 80.1013 240.045 79.4827 240.045 78.784C240.045 78.2187 240.13 77.6907 240.301 77.2C240.477 76.7093 240.728 76.2853 241.053 75.928C241.378 75.5653 241.776 75.2827 242.245 75.08C242.714 74.872 243.242 74.768 243.829 74.768ZM243.861 75.816C243.173 75.816 242.632 76.016 242.237 76.416C241.842 76.8107 241.597 77.36 241.501 78.064H245.909C245.909 77.7333 245.864 77.432 245.773 77.16C245.682 76.8827 245.549 76.6453 245.373 76.448C245.197 76.2453 244.981 76.0907 244.725 75.984C244.474 75.872 244.186 75.816 243.861 75.816ZM249.012 83V71.216H250.436V75.984C250.782 75.616 251.166 75.3227 251.588 75.104C252.009 74.88 252.494 74.768 253.044 74.768C253.486 74.768 253.876 74.8427 254.212 74.992C254.553 75.136 254.836 75.344 255.06 75.616C255.289 75.8827 255.462 76.2053 255.58 76.584C255.697 76.9627 255.756 77.3813 255.756 77.84V83H254.332V77.84C254.332 77.2267 254.19 76.752 253.908 76.416C253.63 76.0747 253.204 75.904 252.628 75.904C252.206 75.904 251.812 76.0053 251.444 76.208C251.081 76.4107 250.745 76.6853 250.436 77.032V83H249.012ZM261.182 74.768C261.774 74.768 262.308 74.8667 262.782 75.064C263.262 75.2613 263.668 75.5413 263.998 75.904C264.334 76.2667 264.59 76.7067 264.766 77.224C264.948 77.736 265.038 78.3093 265.038 78.944C265.038 79.584 264.948 80.16 264.766 80.672C264.59 81.184 264.334 81.6213 263.998 81.984C263.668 82.3467 263.262 82.6267 262.782 82.824C262.308 83.016 261.774 83.112 261.182 83.112C260.59 83.112 260.054 83.016 259.574 82.824C259.1 82.6267 258.694 82.3467 258.358 81.984C258.022 81.6213 257.764 81.184 257.582 80.672C257.401 80.16 257.31 79.584 257.31 78.944C257.31 78.3093 257.401 77.736 257.582 77.224C257.764 76.7067 258.022 76.2667 258.358 75.904C258.694 75.5413 259.1 75.2613 259.574 75.064C260.054 74.8667 260.59 74.768 261.182 74.768ZM261.182 82C261.982 82 262.58 81.7333 262.974 81.2C263.369 80.6613 263.566 79.912 263.566 78.952C263.566 77.9867 263.369 77.2347 262.974 76.696C262.58 76.1573 261.982 75.888 261.182 75.888C260.777 75.888 260.425 75.9573 260.126 76.096C259.828 76.2347 259.577 76.4347 259.374 76.696C259.177 76.9573 259.028 77.28 258.926 77.664C258.83 78.0427 258.782 78.472 258.782 78.952C258.782 79.432 258.83 79.8613 258.926 80.24C259.028 80.6187 259.177 80.9387 259.374 81.2C259.577 81.456 259.828 81.6533 260.126 81.792C260.425 81.9307 260.777 82 261.182 82ZM268.377 71.216V83H266.953V71.216H268.377ZM276.591 83C276.388 83 276.26 82.9013 276.207 82.704L276.079 81.72C275.732 82.1413 275.335 82.48 274.887 82.736C274.444 82.9867 273.935 83.112 273.359 83.112C272.895 83.112 272.473 83.024 272.095 82.848C271.716 82.6667 271.393 82.4027 271.127 82.056C270.86 81.7093 270.655 81.2773 270.511 80.76C270.367 80.2427 270.295 79.648 270.295 78.976C270.295 78.3787 270.375 77.824 270.535 77.312C270.695 76.7947 270.924 76.3467 271.223 75.968C271.527 75.5893 271.895 75.2933 272.327 75.08C272.759 74.8613 273.249 74.752 273.799 74.752C274.295 74.752 274.719 74.8373 275.071 75.008C275.423 75.1733 275.737 75.408 276.015 75.712V71.216H277.439V83H276.591ZM273.831 81.96C274.295 81.96 274.7 81.8533 275.047 81.64C275.399 81.4267 275.721 81.1253 276.015 80.736V76.816C275.753 76.464 275.465 76.2187 275.151 76.08C274.841 75.936 274.497 75.864 274.119 75.864C273.361 75.864 272.78 76.1333 272.375 76.672C271.969 77.2107 271.767 77.9787 271.767 78.976C271.767 79.504 271.812 79.9573 271.903 80.336C271.993 80.7093 272.127 81.0187 272.303 81.264C272.479 81.504 272.695 81.68 272.951 81.792C273.207 81.904 273.5 81.96 273.831 81.96ZM283.032 74.768C283.518 74.768 283.966 74.8507 284.376 75.016C284.787 75.176 285.142 75.4107 285.44 75.72C285.739 76.024 285.971 76.4027 286.136 76.856C286.307 77.304 286.392 77.816 286.392 78.392C286.392 78.616 286.368 78.7653 286.32 78.84C286.272 78.9147 286.182 78.952 286.048 78.952H280.656C280.667 79.464 280.736 79.9093 280.864 80.288C280.992 80.6667 281.168 80.984 281.392 81.24C281.616 81.4907 281.883 81.68 282.192 81.808C282.502 81.9307 282.848 81.992 283.232 81.992C283.59 81.992 283.896 81.952 284.152 81.872C284.414 81.7867 284.638 81.696 284.824 81.6C285.011 81.504 285.166 81.416 285.288 81.336C285.416 81.2507 285.526 81.208 285.616 81.208C285.734 81.208 285.824 81.2533 285.888 81.344L286.288 81.864C286.112 82.0773 285.902 82.264 285.656 82.424C285.411 82.5787 285.147 82.7067 284.864 82.808C284.587 82.9093 284.299 82.984 284 83.032C283.702 83.0853 283.406 83.112 283.112 83.112C282.552 83.112 282.035 83.0187 281.56 82.832C281.091 82.64 280.683 82.3627 280.336 82C279.995 81.632 279.728 81.1787 279.536 80.64C279.344 80.1013 279.248 79.4827 279.248 78.784C279.248 78.2187 279.334 77.6907 279.504 77.2C279.68 76.7093 279.931 76.2853 280.256 75.928C280.582 75.5653 280.979 75.2827 281.448 75.08C281.918 74.872 282.446 74.768 283.032 74.768ZM283.064 75.816C282.376 75.816 281.835 76.016 281.44 76.416C281.046 76.8107 280.8 77.36 280.704 78.064H285.112C285.112 77.7333 285.067 77.432 284.976 77.16C284.886 76.8827 284.752 76.6453 284.576 76.448C284.4 76.2453 284.184 76.0907 283.928 75.984C283.678 75.872 283.39 75.816 283.064 75.816ZM288.215 83V74.896H289.031C289.186 74.896 289.292 74.9253 289.351 74.984C289.41 75.0427 289.45 75.144 289.471 75.288L289.567 76.552C289.844 75.9867 290.186 75.5467 290.591 75.232C291.002 74.912 291.482 74.752 292.031 74.752C292.255 74.752 292.458 74.7787 292.639 74.832C292.82 74.88 292.988 74.9493 293.143 75.04L292.959 76.104C292.922 76.2373 292.839 76.304 292.711 76.304C292.636 76.304 292.522 76.28 292.367 76.232C292.212 76.1787 291.996 76.152 291.719 76.152C291.223 76.152 290.807 76.296 290.471 76.584C290.14 76.872 289.863 77.2907 289.639 77.84V83H288.215Z" fill="#BBBBBB"/>
<path d="M207.352 114H205.987V109.436H200.583V114H199.218V103.969H200.583V108.442H205.987V103.969H207.352V114ZM212.411 106.797C212.836 106.797 213.228 106.869 213.587 107.014C213.946 107.154 214.257 107.359 214.518 107.63C214.779 107.896 214.982 108.227 215.127 108.624C215.276 109.016 215.351 109.464 215.351 109.968C215.351 110.164 215.33 110.295 215.288 110.36C215.246 110.425 215.167 110.458 215.05 110.458H210.332C210.341 110.906 210.402 111.296 210.514 111.627C210.626 111.958 210.78 112.236 210.976 112.46C211.172 112.679 211.405 112.845 211.676 112.957C211.947 113.064 212.25 113.118 212.586 113.118C212.899 113.118 213.167 113.083 213.391 113.013C213.62 112.938 213.816 112.859 213.979 112.775C214.142 112.691 214.278 112.614 214.385 112.544C214.497 112.469 214.593 112.432 214.672 112.432C214.775 112.432 214.854 112.472 214.91 112.551L215.26 113.006C215.106 113.193 214.922 113.356 214.707 113.496C214.492 113.631 214.261 113.743 214.014 113.832C213.771 113.921 213.519 113.986 213.258 114.028C212.997 114.075 212.738 114.098 212.481 114.098C211.991 114.098 211.538 114.016 211.123 113.853C210.712 113.685 210.355 113.442 210.052 113.125C209.753 112.803 209.52 112.406 209.352 111.935C209.184 111.464 209.1 110.922 209.1 110.311C209.1 109.816 209.175 109.354 209.324 108.925C209.478 108.496 209.697 108.125 209.982 107.812C210.267 107.495 210.614 107.247 211.025 107.07C211.436 106.888 211.898 106.797 212.411 106.797ZM212.439 107.714C211.837 107.714 211.363 107.889 211.018 108.239C210.673 108.584 210.458 109.065 210.374 109.681H214.231C214.231 109.392 214.191 109.128 214.112 108.89C214.033 108.647 213.916 108.44 213.762 108.267C213.608 108.09 213.419 107.954 213.195 107.861C212.976 107.763 212.724 107.714 212.439 107.714ZM218.332 103.689V114H217.086V103.689H218.332ZM220.528 116.401V106.909H221.27C221.447 106.909 221.559 106.995 221.606 107.168L221.711 108.008C222.014 107.639 222.36 107.343 222.747 107.119C223.139 106.895 223.589 106.783 224.098 106.783C224.504 106.783 224.873 106.862 225.204 107.021C225.535 107.175 225.818 107.406 226.051 107.714C226.284 108.017 226.464 108.395 226.59 108.848C226.716 109.301 226.779 109.821 226.779 110.409C226.779 110.932 226.709 111.419 226.569 111.872C226.429 112.32 226.228 112.71 225.967 113.041C225.706 113.368 225.384 113.627 225.001 113.818C224.623 114.005 224.196 114.098 223.72 114.098C223.281 114.098 222.906 114.026 222.593 113.881C222.285 113.736 222.012 113.531 221.774 113.265V116.401H220.528ZM223.685 107.791C223.279 107.791 222.922 107.884 222.614 108.071C222.311 108.258 222.031 108.521 221.774 108.862V112.292C222.003 112.6 222.252 112.817 222.523 112.943C222.798 113.069 223.104 113.132 223.44 113.132C224.098 113.132 224.604 112.896 224.959 112.425C225.314 111.954 225.491 111.282 225.491 110.409C225.491 109.947 225.449 109.55 225.365 109.219C225.286 108.888 225.169 108.617 225.015 108.407C224.861 108.192 224.672 108.036 224.448 107.938C224.224 107.84 223.97 107.791 223.685 107.791ZM231.059 106.797C231.484 106.797 231.876 106.869 232.235 107.014C232.595 107.154 232.905 107.359 233.166 107.63C233.428 107.896 233.631 108.227 233.775 108.624C233.925 109.016 233.999 109.464 233.999 109.968C233.999 110.164 233.978 110.295 233.936 110.36C233.894 110.425 233.815 110.458 233.698 110.458H228.98C228.99 110.906 229.05 111.296 229.162 111.627C229.274 111.958 229.428 112.236 229.624 112.46C229.82 112.679 230.054 112.845 230.324 112.957C230.595 113.064 230.898 113.118 231.234 113.118C231.547 113.118 231.815 113.083 232.039 113.013C232.268 112.938 232.464 112.859 232.627 112.775C232.791 112.691 232.926 112.614 233.033 112.544C233.145 112.469 233.241 112.432 233.32 112.432C233.423 112.432 233.502 112.472 233.558 112.551L233.908 113.006C233.754 113.193 233.57 113.356 233.355 113.496C233.141 113.631 232.91 113.743 232.662 113.832C232.42 113.921 232.168 113.986 231.906 114.028C231.645 114.075 231.386 114.098 231.129 114.098C230.639 114.098 230.187 114.016 229.771 113.853C229.361 113.685 229.004 113.442 228.7 113.125C228.402 112.803 228.168 112.406 228 111.935C227.832 111.464 227.748 110.922 227.748 110.311C227.748 109.816 227.823 109.354 227.972 108.925C228.126 108.496 228.346 108.125 228.63 107.812C228.915 107.495 229.263 107.247 229.673 107.07C230.084 106.888 230.546 106.797 231.059 106.797ZM231.087 107.714C230.485 107.714 230.012 107.889 229.666 108.239C229.321 108.584 229.106 109.065 229.022 109.681H232.879C232.879 109.392 232.84 109.128 232.76 108.89C232.681 108.647 232.564 108.44 232.41 108.267C232.256 108.09 232.067 107.954 231.843 107.861C231.624 107.763 231.372 107.714 231.087 107.714ZM235.594 114V106.909H236.308C236.444 106.909 236.537 106.935 236.588 106.986C236.64 107.037 236.675 107.126 236.693 107.252L236.777 108.358C237.02 107.863 237.319 107.478 237.673 107.203C238.033 106.923 238.453 106.783 238.933 106.783C239.129 106.783 239.307 106.806 239.465 106.853C239.624 106.895 239.771 106.956 239.906 107.035L239.745 107.966C239.713 108.083 239.64 108.141 239.528 108.141C239.463 108.141 239.363 108.12 239.227 108.078C239.092 108.031 238.903 108.008 238.66 108.008C238.226 108.008 237.862 108.134 237.568 108.386C237.279 108.638 237.036 109.004 236.84 109.485V114H235.594ZM246.097 114.112C245.537 114.112 245.105 113.956 244.802 113.643C244.503 113.33 244.354 112.88 244.354 112.292V107.952H243.5C243.425 107.952 243.362 107.931 243.311 107.889C243.259 107.842 243.234 107.772 243.234 107.679V107.182L244.396 107.035L244.683 104.844C244.692 104.774 244.722 104.718 244.774 104.676C244.825 104.629 244.89 104.606 244.97 104.606H245.6V107.049H247.63V107.952H245.6V112.208C245.6 112.507 245.672 112.728 245.817 112.873C245.961 113.018 246.148 113.09 246.377 113.09C246.507 113.09 246.619 113.074 246.713 113.041C246.811 113.004 246.895 112.964 246.965 112.922C247.035 112.88 247.093 112.843 247.14 112.81C247.191 112.773 247.235 112.754 247.273 112.754C247.338 112.754 247.396 112.794 247.448 112.873L247.812 113.468C247.597 113.669 247.338 113.827 247.035 113.944C246.731 114.056 246.419 114.112 246.097 114.112ZM251.977 106.797C252.402 106.797 252.794 106.869 253.153 107.014C253.513 107.154 253.823 107.359 254.084 107.63C254.346 107.896 254.549 108.227 254.693 108.624C254.843 109.016 254.917 109.464 254.917 109.968C254.917 110.164 254.896 110.295 254.854 110.36C254.812 110.425 254.733 110.458 254.616 110.458H249.898C249.908 110.906 249.968 111.296 250.08 111.627C250.192 111.958 250.346 112.236 250.542 112.46C250.738 112.679 250.972 112.845 251.242 112.957C251.513 113.064 251.816 113.118 252.152 113.118C252.465 113.118 252.733 113.083 252.957 113.013C253.186 112.938 253.382 112.859 253.545 112.775C253.709 112.691 253.844 112.614 253.951 112.544C254.063 112.469 254.159 112.432 254.238 112.432C254.341 112.432 254.42 112.472 254.476 112.551L254.826 113.006C254.672 113.193 254.488 113.356 254.273 113.496C254.059 113.631 253.828 113.743 253.58 113.832C253.338 113.921 253.086 113.986 252.824 114.028C252.563 114.075 252.304 114.098 252.047 114.098C251.557 114.098 251.105 114.016 250.689 113.853C250.279 113.685 249.922 113.442 249.618 113.125C249.32 112.803 249.086 112.406 248.918 111.935C248.75 111.464 248.666 110.922 248.666 110.311C248.666 109.816 248.741 109.354 248.89 108.925C249.044 108.496 249.264 108.125 249.548 107.812C249.833 107.495 250.181 107.247 250.591 107.07C251.002 106.888 251.464 106.797 251.977 106.797ZM252.005 107.714C251.403 107.714 250.93 107.889 250.584 108.239C250.239 108.584 250.024 109.065 249.94 109.681H253.797C253.797 109.392 253.758 109.128 253.678 108.89C253.599 108.647 253.482 108.44 253.328 108.267C253.174 108.09 252.985 107.954 252.761 107.861C252.542 107.763 252.29 107.714 252.005 107.714ZM257.747 110.367L255.36 106.909H256.557C256.66 106.909 256.735 106.925 256.781 106.958C256.828 106.991 256.87 107.037 256.907 107.098L258.643 109.758C258.685 109.627 258.746 109.497 258.825 109.366L260.351 107.126C260.398 107.061 260.445 107.009 260.491 106.972C260.538 106.93 260.596 106.909 260.666 106.909H261.814L259.427 110.297L261.912 114H260.715C260.613 114 260.531 113.974 260.47 113.923C260.414 113.867 260.368 113.806 260.33 113.741L258.545 110.962C258.513 111.097 258.464 111.219 258.398 111.326L256.746 113.741C256.7 113.806 256.648 113.867 256.592 113.923C256.541 113.974 256.469 114 256.375 114H255.262L257.747 110.367ZM265.292 114.112C264.732 114.112 264.3 113.956 263.997 113.643C263.698 113.33 263.549 112.88 263.549 112.292V107.952H262.695C262.62 107.952 262.557 107.931 262.506 107.889C262.455 107.842 262.429 107.772 262.429 107.679V107.182L263.591 107.035L263.878 104.844C263.887 104.774 263.918 104.718 263.969 104.676C264.02 104.629 264.086 104.606 264.165 104.606H264.795V107.049H266.825V107.952H264.795V112.208C264.795 112.507 264.867 112.728 265.012 112.873C265.157 113.018 265.343 113.09 265.572 113.09C265.703 113.09 265.815 113.074 265.908 113.041C266.006 113.004 266.09 112.964 266.16 112.922C266.23 112.88 266.288 112.843 266.335 112.81C266.386 112.773 266.431 112.754 266.468 112.754C266.533 112.754 266.592 112.794 266.643 112.873L267.007 113.468C266.792 113.669 266.533 113.827 266.23 113.944C265.927 114.056 265.614 114.112 265.292 114.112Z" fill="#6A6A6A"/>
<path d="M200.944 151.696H205.904V153H199.392V141.536H200.944V151.696ZM213.339 153H212.707C212.568 153 212.456 152.979 212.371 152.936C212.285 152.893 212.229 152.803 212.203 152.664L212.043 151.912C211.829 152.104 211.621 152.277 211.419 152.432C211.216 152.581 211.003 152.709 210.779 152.816C210.555 152.917 210.315 152.995 210.059 153.048C209.808 153.101 209.528 153.128 209.219 153.128C208.904 153.128 208.608 153.085 208.331 153C208.059 152.909 207.821 152.776 207.619 152.6C207.416 152.424 207.253 152.203 207.131 151.936C207.013 151.664 206.955 151.344 206.955 150.976C206.955 150.656 207.043 150.349 207.219 150.056C207.395 149.757 207.677 149.493 208.067 149.264C208.461 149.035 208.976 148.848 209.611 148.704C210.245 148.555 211.021 148.469 211.939 148.448V147.816C211.939 147.187 211.803 146.712 211.531 146.392C211.264 146.067 210.867 145.904 210.339 145.904C209.992 145.904 209.699 145.949 209.459 146.04C209.224 146.125 209.019 146.224 208.843 146.336C208.672 146.443 208.523 146.541 208.395 146.632C208.272 146.717 208.149 146.76 208.027 146.76C207.931 146.76 207.845 146.736 207.771 146.688C207.701 146.635 207.645 146.571 207.603 146.496L207.347 146.04C207.795 145.608 208.277 145.285 208.795 145.072C209.312 144.859 209.885 144.752 210.515 144.752C210.968 144.752 211.371 144.827 211.723 144.976C212.075 145.125 212.371 145.333 212.611 145.6C212.851 145.867 213.032 146.189 213.155 146.568C213.277 146.947 213.339 147.363 213.339 147.816V153ZM209.643 152.128C209.893 152.128 210.123 152.104 210.331 152.056C210.539 152.003 210.733 151.931 210.915 151.84C211.101 151.744 211.277 151.629 211.443 151.496C211.613 151.363 211.779 151.211 211.939 151.04V149.352C211.283 149.373 210.725 149.427 210.267 149.512C209.808 149.592 209.435 149.699 209.147 149.832C208.859 149.965 208.648 150.123 208.515 150.304C208.387 150.485 208.323 150.688 208.323 150.912C208.323 151.125 208.357 151.309 208.427 151.464C208.496 151.619 208.589 151.747 208.707 151.848C208.824 151.944 208.963 152.016 209.123 152.064C209.283 152.107 209.456 152.128 209.643 152.128ZM215.544 153V141.216H216.976V146.064C217.312 145.675 217.696 145.363 218.128 145.128C218.565 144.888 219.064 144.768 219.624 144.768C220.093 144.768 220.517 144.856 220.896 145.032C221.275 145.208 221.597 145.472 221.864 145.824C222.131 146.171 222.336 146.603 222.48 147.12C222.624 147.632 222.696 148.224 222.696 148.896C222.696 149.493 222.616 150.051 222.456 150.568C222.296 151.08 222.064 151.525 221.76 151.904C221.461 152.277 221.093 152.573 220.656 152.792C220.224 153.005 219.736 153.112 219.192 153.112C218.669 153.112 218.224 153.011 217.856 152.808C217.493 152.605 217.176 152.323 216.904 151.96L216.832 152.696C216.789 152.899 216.667 153 216.464 153H215.544ZM219.16 145.904C218.696 145.904 218.288 146.011 217.936 146.224C217.589 146.437 217.269 146.739 216.976 147.128V151.048C217.232 151.4 217.515 151.648 217.824 151.792C218.139 151.936 218.488 152.008 218.872 152.008C219.629 152.008 220.211 151.739 220.616 151.2C221.021 150.661 221.224 149.893 221.224 148.896C221.224 148.368 221.176 147.915 221.08 147.536C220.989 147.157 220.856 146.848 220.68 146.608C220.504 146.363 220.288 146.184 220.032 146.072C219.776 145.96 219.485 145.904 219.16 145.904ZM227.642 144.768C228.127 144.768 228.575 144.851 228.986 145.016C229.396 145.176 229.751 145.411 230.05 145.72C230.348 146.024 230.58 146.403 230.746 146.856C230.916 147.304 231.002 147.816 231.002 148.392C231.002 148.616 230.978 148.765 230.93 148.84C230.882 148.915 230.791 148.952 230.658 148.952H225.266C225.276 149.464 225.346 149.909 225.474 150.288C225.602 150.667 225.778 150.984 226.002 151.24C226.226 151.491 226.492 151.68 226.802 151.808C227.111 151.931 227.458 151.992 227.842 151.992C228.199 151.992 228.506 151.952 228.762 151.872C229.023 151.787 229.247 151.696 229.434 151.6C229.62 151.504 229.775 151.416 229.898 151.336C230.026 151.251 230.135 151.208 230.226 151.208C230.343 151.208 230.434 151.253 230.498 151.344L230.898 151.864C230.722 152.077 230.511 152.264 230.266 152.424C230.02 152.579 229.756 152.707 229.474 152.808C229.196 152.909 228.908 152.984 228.61 153.032C228.311 153.085 228.015 153.112 227.722 153.112C227.162 153.112 226.644 153.019 226.17 152.832C225.7 152.64 225.292 152.363 224.946 152C224.604 151.632 224.338 151.179 224.146 150.64C223.954 150.101 223.858 149.483 223.858 148.784C223.858 148.219 223.943 147.691 224.114 147.2C224.29 146.709 224.54 146.285 224.866 145.928C225.191 145.565 225.588 145.283 226.058 145.08C226.527 144.872 227.055 144.768 227.642 144.768ZM227.674 145.816C226.986 145.816 226.444 146.016 226.05 146.416C225.655 146.811 225.41 147.36 225.314 148.064H229.722C229.722 147.733 229.676 147.432 229.586 147.16C229.495 146.883 229.362 146.645 229.186 146.448C229.01 146.245 228.794 146.091 228.538 145.984C228.287 145.872 227.999 145.816 227.674 145.816ZM234.408 141.216V153H232.984V141.216H234.408Z" fill="black"/>
<rect x="198.5" y="165.5" width="455" height="37" rx="3.5" stroke="#979797"/>
<path d="M222.04 184.272C222.04 185.131 221.904 185.92 221.632 186.64C221.36 187.355 220.976 187.971 220.48 188.488C219.984 189.005 219.387 189.408 218.688 189.696C217.995 189.979 217.227 190.12 216.384 190.12C215.541 190.12 214.773 189.979 214.08 189.696C213.387 189.408 212.792 189.005 212.296 188.488C211.8 187.971 211.416 187.355 211.144 186.64C210.872 185.92 210.736 185.131 210.736 184.272C210.736 183.413 210.872 182.627 211.144 181.912C211.416 181.192 211.8 180.573 212.296 180.056C212.792 179.533 213.387 179.128 214.08 178.84C214.773 178.552 215.541 178.408 216.384 178.408C217.227 178.408 217.995 178.552 218.688 178.84C219.387 179.128 219.984 179.533 220.48 180.056C220.976 180.573 221.36 181.192 221.632 181.912C221.904 182.627 222.04 183.413 222.04 184.272ZM220.448 184.272C220.448 183.568 220.352 182.936 220.16 182.376C219.968 181.816 219.696 181.344 219.344 180.96C218.992 180.571 218.565 180.272 218.064 180.064C217.563 179.856 217.003 179.752 216.384 179.752C215.771 179.752 215.213 179.856 214.712 180.064C214.211 180.272 213.781 180.571 213.424 180.96C213.072 181.344 212.8 181.816 212.608 182.376C212.416 182.936 212.32 183.568 212.32 184.272C212.32 184.976 212.416 185.608 212.608 186.168C212.8 186.723 213.072 187.195 213.424 187.584C213.781 187.968 214.211 188.264 214.712 188.472C215.213 188.675 215.771 188.776 216.384 188.776C217.003 188.776 217.563 188.675 218.064 188.472C218.565 188.264 218.992 187.968 219.344 187.584C219.696 187.195 219.968 186.723 220.16 186.168C220.352 185.608 220.448 184.976 220.448 184.272ZM223.934 192.744V181.896H224.782C224.984 181.896 225.112 181.995 225.166 182.192L225.286 183.152C225.632 182.731 226.027 182.392 226.47 182.136C226.918 181.88 227.432 181.752 228.014 181.752C228.478 181.752 228.899 181.843 229.278 182.024C229.656 182.2 229.979 182.464 230.246 182.816C230.512 183.163 230.718 183.595 230.862 184.112C231.006 184.629 231.078 185.224 231.078 185.896C231.078 186.493 230.998 187.051 230.838 187.568C230.678 188.08 230.448 188.525 230.15 188.904C229.851 189.277 229.483 189.573 229.046 189.792C228.614 190.005 228.126 190.112 227.582 190.112C227.08 190.112 226.651 190.029 226.294 189.864C225.942 189.699 225.63 189.464 225.358 189.16V192.744H223.934ZM227.542 182.904C227.078 182.904 226.67 183.011 226.318 183.224C225.971 183.437 225.651 183.739 225.358 184.128V188.048C225.619 188.4 225.904 188.648 226.214 188.792C226.528 188.936 226.878 189.008 227.262 189.008C228.014 189.008 228.592 188.739 228.998 188.2C229.403 187.661 229.606 186.893 229.606 185.896C229.606 185.368 229.558 184.915 229.462 184.536C229.371 184.157 229.238 183.848 229.062 183.608C228.886 183.363 228.67 183.184 228.414 183.072C228.158 182.96 227.867 182.904 227.542 182.904ZM235.218 190.128C234.578 190.128 234.084 189.949 233.738 189.592C233.396 189.235 233.226 188.72 233.226 188.048V183.088H232.25C232.164 183.088 232.092 183.064 232.034 183.016C231.975 182.963 231.946 182.883 231.946 182.776V182.208L233.274 182.04L233.602 179.536C233.612 179.456 233.647 179.392 233.706 179.344C233.764 179.291 233.839 179.264 233.93 179.264H234.65V182.056H236.97V183.088H234.65V187.952C234.65 188.293 234.732 188.547 234.898 188.712C235.063 188.877 235.276 188.96 235.538 188.96C235.687 188.96 235.815 188.941 235.922 188.904C236.034 188.861 236.13 188.816 236.21 188.768C236.29 188.72 236.356 188.677 236.41 188.64C236.468 188.597 236.519 188.576 236.562 188.576C236.636 188.576 236.703 188.621 236.762 188.712L237.178 189.392C236.932 189.621 236.636 189.803 236.29 189.936C235.943 190.064 235.586 190.128 235.218 190.128ZM240.315 181.896V190H238.891V181.896H240.315ZM240.635 179.352C240.635 179.491 240.605 179.621 240.547 179.744C240.493 179.861 240.419 179.968 240.323 180.064C240.232 180.155 240.125 180.227 240.003 180.28C239.88 180.333 239.749 180.36 239.611 180.36C239.472 180.36 239.341 180.333 239.219 180.28C239.101 180.227 238.995 180.155 238.899 180.064C238.808 179.968 238.736 179.861 238.683 179.744C238.629 179.621 238.603 179.491 238.603 179.352C238.603 179.213 238.629 179.083 238.683 178.96C238.736 178.832 238.808 178.723 238.899 178.632C238.995 178.536 239.101 178.461 239.219 178.408C239.341 178.355 239.472 178.328 239.611 178.328C239.749 178.328 239.88 178.355 240.003 178.408C240.125 178.461 240.232 178.536 240.323 178.632C240.419 178.723 240.493 178.832 240.547 178.96C240.605 179.083 240.635 179.213 240.635 179.352ZM246.104 181.768C246.696 181.768 247.23 181.867 247.704 182.064C248.184 182.261 248.59 182.541 248.92 182.904C249.256 183.267 249.512 183.707 249.688 184.224C249.87 184.736 249.96 185.309 249.96 185.944C249.96 186.584 249.87 187.16 249.688 187.672C249.512 188.184 249.256 188.621 248.92 188.984C248.59 189.347 248.184 189.627 247.704 189.824C247.23 190.016 246.696 190.112 246.104 190.112C245.512 190.112 244.976 190.016 244.496 189.824C244.022 189.627 243.616 189.347 243.28 188.984C242.944 188.621 242.686 188.184 242.504 187.672C242.323 187.16 242.232 186.584 242.232 185.944C242.232 185.309 242.323 184.736 242.504 184.224C242.686 183.707 242.944 183.267 243.28 182.904C243.616 182.541 244.022 182.261 244.496 182.064C244.976 181.867 245.512 181.768 246.104 181.768ZM246.104 189C246.904 189 247.502 188.733 247.896 188.2C248.291 187.661 248.488 186.912 248.488 185.952C248.488 184.987 248.291 184.235 247.896 183.696C247.502 183.157 246.904 182.888 246.104 182.888C245.699 182.888 245.347 182.957 245.048 183.096C244.75 183.235 244.499 183.435 244.296 183.696C244.099 183.957 243.95 184.28 243.848 184.664C243.752 185.043 243.704 185.472 243.704 185.952C243.704 186.432 243.752 186.861 243.848 187.24C243.95 187.619 244.099 187.939 244.296 188.2C244.499 188.456 244.75 188.653 245.048 188.792C245.347 188.931 245.699 189 246.104 189ZM251.715 190V181.896H252.563C252.766 181.896 252.894 181.995 252.947 182.192L253.059 183.072C253.411 182.683 253.803 182.368 254.235 182.128C254.672 181.888 255.176 181.768 255.747 181.768C256.19 181.768 256.579 181.843 256.915 181.992C257.256 182.136 257.539 182.344 257.763 182.616C257.992 182.883 258.166 183.205 258.283 183.584C258.4 183.963 258.459 184.381 258.459 184.84V190H257.035V184.84C257.035 184.227 256.894 183.752 256.611 183.416C256.334 183.075 255.907 182.904 255.331 182.904C254.91 182.904 254.515 183.005 254.147 183.208C253.784 183.411 253.448 183.685 253.139 184.032V190H251.715ZM264.827 188.912H267.291V181.096C267.291 180.861 267.299 180.624 267.315 180.384L265.267 182.136C265.214 182.179 265.161 182.211 265.107 182.232C265.054 182.248 265.003 182.256 264.955 182.256C264.875 182.256 264.803 182.24 264.739 182.208C264.675 182.171 264.627 182.128 264.595 182.08L264.147 181.464L267.555 178.512H268.715V188.912H270.971V190H264.827V188.912Z" fill="black"/>
<path fill-rule="evenodd" clip-rule="evenodd" d="M628.707 180.707C629.098 180.317 629.731 180.317 630.121 180.707L634.707 185.293C635.098 185.683 635.098 186.317 634.707 186.707C634.317 187.098 633.683 187.098 633.293 186.707L628.707 182.121C628.317 181.731 628.317 181.098 628.707 180.707Z" fill="black"/>
<path fill-rule="evenodd" clip-rule="evenodd" d="M639.293 180.707C638.902 180.317 638.269 180.317 637.879 180.707L633.293 185.293C632.902 185.683 632.902 186.317 633.293 186.707C633.683 187.098 634.317 187.098 634.707 186.707L639.293 182.121C639.683 181.731 639.683 181.098 639.293 180.707Z" fill="black"/>
<rect x="198.5" y="251.5" width="455" height="121" rx="3.5" stroke="#979797"/>
<path d="M200.944 237.696H205.904V239H199.392V227.536H200.944V237.696ZM213.339 239H212.707C212.568 239 212.456 238.979 212.371 238.936C212.285 238.893 212.229 238.803 212.203 238.664L212.043 237.912C211.829 238.104 211.621 238.277 211.419 238.432C211.216 238.581 211.003 238.709 210.779 238.816C210.555 238.917 210.315 238.995 210.059 239.048C209.808 239.101 209.528 239.128 209.219 239.128C208.904 239.128 208.608 239.085 208.331 239C208.059 238.909 207.821 238.776 207.619 238.6C207.416 238.424 207.253 238.203 207.131 237.936C207.013 237.664 206.955 237.344 206.955 236.976C206.955 236.656 207.043 236.349 207.219 236.056C207.395 235.757 207.677 235.493 208.067 235.264C208.461 235.035 208.976 234.848 209.611 234.704C210.245 234.555 211.021 234.469 211.939 234.448V233.816C211.939 233.187 211.803 232.712 211.531 232.392C211.264 232.067 210.867 231.904 210.339 231.904C209.992 231.904 209.699 231.949 209.459 232.04C209.224 232.125 209.019 232.224 208.843 232.336C208.672 232.443 208.523 232.541 208.395 232.632C208.272 232.717 208.149 232.76 208.027 232.76C207.931 232.76 207.845 232.736 207.771 232.688C207.701 232.635 207.645 232.571 207.603 232.496L207.347 232.04C207.795 231.608 208.277 231.285 208.795 231.072C209.312 230.859 209.885 230.752 210.515 230.752C210.968 230.752 211.371 230.827 211.723 230.976C212.075 231.125 212.371 231.333 212.611 231.6C212.851 231.867 213.032 232.189 213.155 232.568C213.277 232.947 213.339 233.363 213.339 233.816V239ZM209.643 238.128C209.893 238.128 210.123 238.104 210.331 238.056C210.539 238.003 210.733 237.931 210.915 237.84C211.101 237.744 211.277 237.629 211.443 237.496C211.613 237.363 211.779 237.211 211.939 237.04V235.352C211.283 235.373 210.725 235.427 210.267 235.512C209.808 235.592 209.435 235.699 209.147 235.832C208.859 235.965 208.648 236.123 208.515 236.304C208.387 236.485 208.323 236.688 208.323 236.912C208.323 237.125 208.357 237.309 208.427 237.464C208.496 237.619 208.589 237.747 208.707 237.848C208.824 237.944 208.963 238.016 209.123 238.064C209.283 238.107 209.456 238.128 209.643 238.128ZM215.544 239V227.216H216.976V232.064C217.312 231.675 217.696 231.363 218.128 231.128C218.565 230.888 219.064 230.768 219.624 230.768C220.093 230.768 220.517 230.856 220.896 231.032C221.275 231.208 221.597 231.472 221.864 231.824C222.131 232.171 222.336 232.603 222.48 233.12C222.624 233.632 222.696 234.224 222.696 234.896C222.696 235.493 222.616 236.051 222.456 236.568C222.296 237.08 222.064 237.525 221.76 237.904C221.461 238.277 221.093 238.573 220.656 238.792C220.224 239.005 219.736 239.112 219.192 239.112C218.669 239.112 218.224 239.011 217.856 238.808C217.493 238.605 217.176 238.323 216.904 237.96L216.832 238.696C216.789 238.899 216.667 239 216.464 239H215.544ZM219.16 231.904C218.696 231.904 218.288 232.011 217.936 232.224C217.589 232.437 217.269 232.739 216.976 233.128V237.048C217.232 237.4 217.515 237.648 217.824 237.792C218.139 237.936 218.488 238.008 218.872 238.008C219.629 238.008 220.211 237.739 220.616 237.2C221.021 236.661 221.224 235.893 221.224 234.896C221.224 234.368 221.176 233.915 221.08 233.536C220.989 233.157 220.856 232.848 220.68 232.608C220.504 232.363 220.288 232.184 220.032 232.072C219.776 231.96 219.485 231.904 219.16 231.904ZM227.642 230.768C228.127 230.768 228.575 230.851 228.986 231.016C229.396 231.176 229.751 231.411 230.05 231.72C230.348 232.024 230.58 232.403 230.746 232.856C230.916 233.304 231.002 233.816 231.002 234.392C231.002 234.616 230.978 234.765 230.93 234.84C230.882 234.915 230.791 234.952 230.658 234.952H225.266C225.276 235.464 225.346 235.909 225.474 236.288C225.602 236.667 225.778 236.984 226.002 237.24C226.226 237.491 226.492 237.68 226.802 237.808C227.111 237.931 227.458 237.992 227.842 237.992C228.199 237.992 228.506 237.952 228.762 237.872C229.023 237.787 229.247 237.696 229.434 237.6C229.62 237.504 229.775 237.416 229.898 237.336C230.026 237.251 230.135 237.208 230.226 237.208C230.343 237.208 230.434 237.253 230.498 237.344L230.898 237.864C230.722 238.077 230.511 238.264 230.266 238.424C230.02 238.579 229.756 238.707 229.474 238.808C229.196 238.909 228.908 238.984 228.61 239.032C228.311 239.085 228.015 239.112 227.722 239.112C227.162 239.112 226.644 239.019 226.17 238.832C225.7 238.64 225.292 238.363 224.946 238C224.604 237.632 224.338 237.179 224.146 236.64C223.954 236.101 223.858 235.483 223.858 234.784C223.858 234.219 223.943 233.691 224.114 233.2C224.29 232.709 224.54 232.285 224.866 231.928C225.191 231.565 225.588 231.283 226.058 231.08C226.527 230.872 227.055 230.768 227.642 230.768ZM227.674 231.816C226.986 231.816 226.444 232.016 226.05 232.416C225.655 232.811 225.41 233.36 225.314 234.064H229.722C229.722 233.733 229.676 233.432 229.586 233.16C229.495 232.883 229.362 232.645 229.186 232.448C229.01 232.245 228.794 232.091 228.538 231.984C228.287 231.872 227.999 231.816 227.674 231.816ZM234.408 227.216V239H232.984V227.216H234.408Z" fill="black"/>
<path d="M213.096 272.712V277H211.552V265.536H214.936C215.661 265.536 216.291 265.621 216.824 265.792C217.363 265.957 217.808 266.195 218.16 266.504C218.512 266.813 218.773 267.187 218.944 267.624C219.12 268.061 219.208 268.549 219.208 269.088C219.208 269.621 219.115 270.109 218.928 270.552C218.741 270.995 218.467 271.376 218.104 271.696C217.747 272.016 217.301 272.267 216.768 272.448C216.235 272.624 215.624 272.712 214.936 272.712H213.096ZM213.096 271.48H214.936C215.379 271.48 215.768 271.421 216.104 271.304C216.445 271.187 216.731 271.024 216.96 270.816C217.189 270.603 217.363 270.349 217.48 270.056C217.597 269.763 217.656 269.44 217.656 269.088C217.656 268.357 217.429 267.787 216.976 267.376C216.528 266.965 215.848 266.76 214.936 266.76H213.096V271.48ZM222.533 265.216V277H221.109V265.216H222.533ZM230.995 277H230.363C230.224 277 230.112 276.979 230.027 276.936C229.942 276.893 229.886 276.803 229.859 276.664L229.699 275.912C229.486 276.104 229.278 276.277 229.075 276.432C228.872 276.581 228.659 276.709 228.435 276.816C228.211 276.917 227.971 276.995 227.715 277.048C227.464 277.101 227.184 277.128 226.875 277.128C226.56 277.128 226.264 277.085 225.987 277C225.715 276.909 225.478 276.776 225.275 276.6C225.072 276.424 224.91 276.203 224.787 275.936C224.67 275.664 224.611 275.344 224.611 274.976C224.611 274.656 224.699 274.349 224.875 274.056C225.051 273.757 225.334 273.493 225.723 273.264C226.118 273.035 226.632 272.848 227.267 272.704C227.902 272.555 228.678 272.469 229.595 272.448V271.816C229.595 271.187 229.459 270.712 229.187 270.392C228.92 270.067 228.523 269.904 227.995 269.904C227.648 269.904 227.355 269.949 227.115 270.04C226.88 270.125 226.675 270.224 226.499 270.336C226.328 270.443 226.179 270.541 226.051 270.632C225.928 270.717 225.806 270.76 225.683 270.76C225.587 270.76 225.502 270.736 225.427 270.688C225.358 270.635 225.302 270.571 225.259 270.496L225.003 270.04C225.451 269.608 225.934 269.285 226.451 269.072C226.968 268.859 227.542 268.752 228.171 268.752C228.624 268.752 229.027 268.827 229.379 268.976C229.731 269.125 230.027 269.333 230.267 269.6C230.507 269.867 230.688 270.189 230.811 270.568C230.934 270.947 230.995 271.363 230.995 271.816V277ZM227.299 276.128C227.55 276.128 227.779 276.104 227.987 276.056C228.195 276.003 228.39 275.931 228.571 275.84C228.758 275.744 228.934 275.629 229.099 275.496C229.27 275.363 229.435 275.211 229.595 275.04V273.352C228.939 273.373 228.382 273.427 227.923 273.512C227.464 273.592 227.091 273.699 226.803 273.832C226.515 273.965 226.304 274.123 226.171 274.304C226.043 274.485 225.979 274.688 225.979 274.912C225.979 275.125 226.014 275.309 226.083 275.464C226.152 275.619 226.246 275.747 226.363 275.848C226.48 275.944 226.619 276.016 226.779 276.064C226.939 276.107 227.112 276.128 227.299 276.128ZM238.68 270.336C238.638 270.395 238.595 270.44 238.552 270.472C238.51 270.504 238.448 270.52 238.368 270.52C238.288 270.52 238.2 270.488 238.104 270.424C238.014 270.355 237.896 270.28 237.752 270.2C237.608 270.12 237.432 270.048 237.224 269.984C237.022 269.915 236.771 269.88 236.472 269.88C236.078 269.88 235.728 269.952 235.424 270.096C235.12 270.235 234.864 270.437 234.656 270.704C234.454 270.971 234.299 271.293 234.192 271.672C234.091 272.051 234.04 272.475 234.04 272.944C234.04 273.435 234.096 273.872 234.208 274.256C234.32 274.635 234.478 274.955 234.68 275.216C234.883 275.472 235.128 275.669 235.416 275.808C235.71 275.941 236.038 276.008 236.4 276.008C236.747 276.008 237.032 275.968 237.256 275.888C237.48 275.803 237.667 275.709 237.816 275.608C237.966 275.507 238.088 275.416 238.184 275.336C238.28 275.251 238.376 275.208 238.472 275.208C238.595 275.208 238.686 275.253 238.744 275.344L239.144 275.864C238.792 276.296 238.352 276.613 237.824 276.816C237.296 277.013 236.739 277.112 236.152 277.112C235.646 277.112 235.174 277.019 234.736 276.832C234.304 276.645 233.928 276.376 233.608 276.024C233.288 275.667 233.035 275.229 232.848 274.712C232.667 274.195 232.576 273.605 232.576 272.944C232.576 272.341 232.659 271.784 232.824 271.272C232.995 270.76 233.24 270.32 233.56 269.952C233.886 269.579 234.286 269.288 234.76 269.08C235.235 268.872 235.779 268.768 236.392 268.768C236.958 268.768 237.459 268.861 237.896 269.048C238.334 269.229 238.72 269.488 239.056 269.824L238.68 270.336ZM243.829 268.768C244.314 268.768 244.762 268.851 245.173 269.016C245.584 269.176 245.938 269.411 246.237 269.72C246.536 270.024 246.768 270.403 246.933 270.856C247.104 271.304 247.189 271.816 247.189 272.392C247.189 272.616 247.165 272.765 247.117 272.84C247.069 272.915 246.978 272.952 246.845 272.952H241.453C241.464 273.464 241.533 273.909 241.661 274.288C241.789 274.667 241.965 274.984 242.189 275.24C242.413 275.491 242.68 275.68 242.989 275.808C243.298 275.931 243.645 275.992 244.029 275.992C244.386 275.992 244.693 275.952 244.949 275.872C245.21 275.787 245.434 275.696 245.621 275.6C245.808 275.504 245.962 275.416 246.085 275.336C246.213 275.251 246.322 275.208 246.413 275.208C246.53 275.208 246.621 275.253 246.685 275.344L247.085 275.864C246.909 276.077 246.698 276.264 246.453 276.424C246.208 276.579 245.944 276.707 245.661 276.808C245.384 276.909 245.096 276.984 244.797 277.032C244.498 277.085 244.202 277.112 243.909 277.112C243.349 277.112 242.832 277.019 242.357 276.832C241.888 276.64 241.48 276.363 241.133 276C240.792 275.632 240.525 275.179 240.333 274.64C240.141 274.101 240.045 273.483 240.045 272.784C240.045 272.219 240.13 271.691 240.301 271.2C240.477 270.709 240.728 270.285 241.053 269.928C241.378 269.565 241.776 269.283 242.245 269.08C242.714 268.872 243.242 268.768 243.829 268.768ZM243.861 269.816C243.173 269.816 242.632 270.016 242.237 270.416C241.842 270.811 241.597 271.36 241.501 272.064H245.909C245.909 271.733 245.864 271.432 245.773 271.16C245.682 270.883 245.549 270.645 245.373 270.448C245.197 270.245 244.981 270.091 244.725 269.984C244.474 269.872 244.186 269.816 243.861 269.816ZM249.012 277V265.216H250.436V269.984C250.782 269.616 251.166 269.323 251.588 269.104C252.009 268.88 252.494 268.768 253.044 268.768C253.486 268.768 253.876 268.843 254.212 268.992C254.553 269.136 254.836 269.344 255.06 269.616C255.289 269.883 255.462 270.205 255.58 270.584C255.697 270.963 255.756 271.381 255.756 271.84V277H254.332V271.84C254.332 271.227 254.19 270.752 253.908 270.416C253.63 270.075 253.204 269.904 252.628 269.904C252.206 269.904 251.812 270.005 251.444 270.208C251.081 270.411 250.745 270.685 250.436 271.032V277H249.012ZM261.182 268.768C261.774 268.768 262.308 268.867 262.782 269.064C263.262 269.261 263.668 269.541 263.998 269.904C264.334 270.267 264.59 270.707 264.766 271.224C264.948 271.736 265.038 272.309 265.038 272.944C265.038 273.584 264.948 274.16 264.766 274.672C264.59 275.184 264.334 275.621 263.998 275.984C263.668 276.347 263.262 276.627 262.782 276.824C262.308 277.016 261.774 277.112 261.182 277.112C260.59 277.112 260.054 277.016 259.574 276.824C259.1 276.627 258.694 276.347 258.358 275.984C258.022 275.621 257.764 275.184 257.582 274.672C257.401 274.16 257.31 273.584 257.31 272.944C257.31 272.309 257.401 271.736 257.582 271.224C257.764 270.707 258.022 270.267 258.358 269.904C258.694 269.541 259.1 269.261 259.574 269.064C260.054 268.867 260.59 268.768 261.182 268.768ZM261.182 276C261.982 276 262.58 275.733 262.974 275.2C263.369 274.661 263.566 273.912 263.566 272.952C263.566 271.987 263.369 271.235 262.974 270.696C262.58 270.157 261.982 269.888 261.182 269.888C260.777 269.888 260.425 269.957 260.126 270.096C259.828 270.235 259.577 270.435 259.374 270.696C259.177 270.957 259.028 271.28 258.926 271.664C258.83 272.043 258.782 272.472 258.782 272.952C258.782 273.432 258.83 273.861 258.926 274.24C259.028 274.619 259.177 274.939 259.374 275.2C259.577 275.456 259.828 275.653 260.126 275.792C260.425 275.931 260.777 276 261.182 276ZM268.377 265.216V277H266.953V265.216H268.377ZM276.591 277C276.388 277 276.26 276.901 276.207 276.704L276.079 275.72C275.732 276.141 275.335 276.48 274.887 276.736C274.444 276.987 273.935 277.112 273.359 277.112C272.895 277.112 272.473 277.024 272.095 276.848C271.716 276.667 271.393 276.403 271.127 276.056C270.86 275.709 270.655 275.277 270.511 274.76C270.367 274.243 270.295 273.648 270.295 272.976C270.295 272.379 270.375 271.824 270.535 271.312C270.695 270.795 270.924 270.347 271.223 269.968C271.527 269.589 271.895 269.293 272.327 269.08C272.759 268.861 273.249 268.752 273.799 268.752C274.295 268.752 274.719 268.837 275.071 269.008C275.423 269.173 275.737 269.408 276.015 269.712V265.216H277.439V277H276.591ZM273.831 275.96C274.295 275.96 274.7 275.853 275.047 275.64C275.399 275.427 275.721 275.125 276.015 274.736V270.816C275.753 270.464 275.465 270.219 275.151 270.08C274.841 269.936 274.497 269.864 274.119 269.864C273.361 269.864 272.78 270.133 272.375 270.672C271.969 271.211 271.767 271.979 271.767 272.976C271.767 273.504 271.812 273.957 271.903 274.336C271.993 274.709 272.127 275.019 272.303 275.264C272.479 275.504 272.695 275.68 272.951 275.792C273.207 275.904 273.5 275.96 273.831 275.96ZM283.032 268.768C283.518 268.768 283.966 268.851 284.376 269.016C284.787 269.176 285.142 269.411 285.44 269.72C285.739 270.024 285.971 270.403 286.136 270.856C286.307 271.304 286.392 271.816 286.392 272.392C286.392 272.616 286.368 272.765 286.32 272.84C286.272 272.915 286.182 272.952 286.048 272.952H280.656C280.667 273.464 280.736 273.909 280.864 274.288C280.992 274.667 281.168 274.984 281.392 275.24C281.616 275.491 281.883 275.68 282.192 275.808C282.502 275.931 282.848 275.992 283.232 275.992C283.59 275.992 283.896 275.952 284.152 275.872C284.414 275.787 284.638 275.696 284.824 275.6C285.011 275.504 285.166 275.416 285.288 275.336C285.416 275.251 285.526 275.208 285.616 275.208C285.734 275.208 285.824 275.253 285.888 275.344L286.288 275.864C286.112 276.077 285.902 276.264 285.656 276.424C285.411 276.579 285.147 276.707 284.864 276.808C284.587 276.909 284.299 276.984 284 277.032C283.702 277.085 283.406 277.112 283.112 277.112C282.552 277.112 282.035 277.019 281.56 276.832C281.091 276.64 280.683 276.363 280.336 276C279.995 275.632 279.728 275.179 279.536 274.64C279.344 274.101 279.248 273.483 279.248 272.784C279.248 272.219 279.334 271.691 279.504 271.2C279.68 270.709 279.931 270.285 280.256 269.928C280.582 269.565 280.979 269.283 281.448 269.08C281.918 268.872 282.446 268.768 283.032 268.768ZM283.064 269.816C282.376 269.816 281.835 270.016 281.44 270.416C281.046 270.811 280.8 271.36 280.704 272.064H285.112C285.112 271.733 285.067 271.432 284.976 271.16C284.886 270.883 284.752 270.645 284.576 270.448C284.4 270.245 284.184 270.091 283.928 269.984C283.678 269.872 283.39 269.816 283.064 269.816ZM288.215 277V268.896H289.031C289.186 268.896 289.292 268.925 289.351 268.984C289.41 269.043 289.45 269.144 289.471 269.288L289.567 270.552C289.844 269.987 290.186 269.547 290.591 269.232C291.002 268.912 291.482 268.752 292.031 268.752C292.255 268.752 292.458 268.779 292.639 268.832C292.82 268.88 292.988 268.949 293.143 269.04L292.959 270.104C292.922 270.237 292.839 270.304 292.711 270.304C292.636 270.304 292.522 270.28 292.367 270.232C292.212 270.179 291.996 270.152 291.719 270.152C291.223 270.152 290.807 270.296 290.471 270.584C290.14 270.872 289.863 271.291 289.639 271.84V277H288.215Z" fill="#BBBBBB"/>
<path d="M242.04 465.272C242.04 466.131 241.904 466.92 241.632 467.64C241.36 468.355 240.976 468.971 240.48 469.488C239.984 470.005 239.387 470.408 238.688 470.696C237.995 470.979 237.227 471.12 236.384 471.12C235.541 471.12 234.773 470.979 234.08 470.696C233.387 470.408 232.792 470.005 232.296 469.488C231.8 468.971 231.416 468.355 231.144 467.64C230.872 466.92 230.736 466.131 230.736 465.272C230.736 464.413 230.872 463.627 231.144 462.912C231.416 462.192 231.8 461.573 232.296 461.056C232.792 460.533 233.387 460.128 234.08 459.84C234.773 459.552 235.541 459.408 236.384 459.408C237.227 459.408 237.995 459.552 238.688 459.84C239.387 460.128 239.984 460.533 240.48 461.056C240.976 461.573 241.36 462.192 241.632 462.912C241.904 463.627 242.04 464.413 242.04 465.272ZM240.448 465.272C240.448 464.568 240.352 463.936 240.16 463.376C239.968 462.816 239.696 462.344 239.344 461.96C238.992 461.571 238.565 461.272 238.064 461.064C237.563 460.856 237.003 460.752 236.384 460.752C235.771 460.752 235.213 460.856 234.712 461.064C234.211 461.272 233.781 461.571 233.424 461.96C233.072 462.344 232.8 462.816 232.608 463.376C232.416 463.936 232.32 464.568 232.32 465.272C232.32 465.976 232.416 466.608 232.608 467.168C232.8 467.723 233.072 468.195 233.424 468.584C233.781 468.968 234.211 469.264 234.712 469.472C235.213 469.675 235.771 469.776 236.384 469.776C237.003 469.776 237.563 469.675 238.064 469.472C238.565 469.264 238.992 468.968 239.344 468.584C239.696 468.195 239.968 467.723 240.16 467.168C240.352 466.608 240.448 465.976 240.448 465.272ZM243.934 473.744V462.896H244.782C244.984 462.896 245.112 462.995 245.166 463.192L245.286 464.152C245.632 463.731 246.027 463.392 246.47 463.136C246.918 462.88 247.432 462.752 248.014 462.752C248.478 462.752 248.899 462.843 249.278 463.024C249.656 463.2 249.979 463.464 250.246 463.816C250.512 464.163 250.718 464.595 250.862 465.112C251.006 465.629 251.078 466.224 251.078 466.896C251.078 467.493 250.998 468.051 250.838 468.568C250.678 469.08 250.448 469.525 250.15 469.904C249.851 470.277 249.483 470.573 249.046 470.792C248.614 471.005 248.126 471.112 247.582 471.112C247.08 471.112 246.651 471.029 246.294 470.864C245.942 470.699 245.63 470.464 245.358 470.16V473.744H243.934ZM247.542 463.904C247.078 463.904 246.67 464.011 246.318 464.224C245.971 464.437 245.651 464.739 245.358 465.128V469.048C245.619 469.4 245.904 469.648 246.214 469.792C246.528 469.936 246.878 470.008 247.262 470.008C248.014 470.008 248.592 469.739 248.998 469.2C249.403 468.661 249.606 467.893 249.606 466.896C249.606 466.368 249.558 465.915 249.462 465.536C249.371 465.157 249.238 464.848 249.062 464.608C248.886 464.363 248.67 464.184 248.414 464.072C248.158 463.96 247.867 463.904 247.542 463.904ZM255.218 471.128C254.578 471.128 254.084 470.949 253.738 470.592C253.396 470.235 253.226 469.72 253.226 469.048V464.088H252.25C252.164 464.088 252.092 464.064 252.034 464.016C251.975 463.963 251.946 463.883 251.946 463.776V463.208L253.274 463.04L253.602 460.536C253.612 460.456 253.647 460.392 253.706 460.344C253.764 460.291 253.839 460.264 253.93 460.264H254.65V463.056H256.97V464.088H254.65V468.952C254.65 469.293 254.732 469.547 254.898 469.712C255.063 469.877 255.276 469.96 255.538 469.96C255.687 469.96 255.815 469.941 255.922 469.904C256.034 469.861 256.13 469.816 256.21 469.768C256.29 469.72 256.356 469.677 256.41 469.64C256.468 469.597 256.519 469.576 256.562 469.576C256.636 469.576 256.703 469.621 256.762 469.712L257.178 470.392C256.932 470.621 256.636 470.803 256.29 470.936C255.943 471.064 255.586 471.128 255.218 471.128ZM260.315 462.896V471H258.891V462.896H260.315ZM260.635 460.352C260.635 460.491 260.605 460.621 260.547 460.744C260.493 460.861 260.419 460.968 260.323 461.064C260.232 461.155 260.125 461.227 260.003 461.28C259.88 461.333 259.749 461.36 259.611 461.36C259.472 461.36 259.341 461.333 259.219 461.28C259.101 461.227 258.995 461.155 258.899 461.064C258.808 460.968 258.736 460.861 258.683 460.744C258.629 460.621 258.603 460.491 258.603 460.352C258.603 460.213 258.629 460.083 258.683 459.96C258.736 459.832 258.808 459.723 258.899 459.632C258.995 459.536 259.101 459.461 259.219 459.408C259.341 459.355 259.472 459.328 259.611 459.328C259.749 459.328 259.88 459.355 260.003 459.408C260.125 459.461 260.232 459.536 260.323 459.632C260.419 459.723 260.493 459.832 260.547 459.96C260.605 460.083 260.635 460.213 260.635 460.352ZM266.104 462.768C266.696 462.768 267.23 462.867 267.704 463.064C268.184 463.261 268.59 463.541 268.92 463.904C269.256 464.267 269.512 464.707 269.688 465.224C269.87 465.736 269.96 466.309 269.96 466.944C269.96 467.584 269.87 468.16 269.688 468.672C269.512 469.184 269.256 469.621 268.92 469.984C268.59 470.347 268.184 470.627 267.704 470.824C267.23 471.016 266.696 471.112 266.104 471.112C265.512 471.112 264.976 471.016 264.496 470.824C264.022 470.627 263.616 470.347 263.28 469.984C262.944 469.621 262.686 469.184 262.504 468.672C262.323 468.16 262.232 467.584 262.232 466.944C262.232 466.309 262.323 465.736 262.504 465.224C262.686 464.707 262.944 464.267 263.28 463.904C263.616 463.541 264.022 463.261 264.496 463.064C264.976 462.867 265.512 462.768 266.104 462.768ZM266.104 470C266.904 470 267.502 469.733 267.896 469.2C268.291 468.661 268.488 467.912 268.488 466.952C268.488 465.987 268.291 465.235 267.896 464.696C267.502 464.157 266.904 463.888 266.104 463.888C265.699 463.888 265.347 463.957 265.048 464.096C264.75 464.235 264.499 464.435 264.296 464.696C264.099 464.957 263.95 465.28 263.848 465.664C263.752 466.043 263.704 466.472 263.704 466.952C263.704 467.432 263.752 467.861 263.848 468.24C263.95 468.619 264.099 468.939 264.296 469.2C264.499 469.456 264.75 469.653 265.048 469.792C265.347 469.931 265.699 470 266.104 470ZM271.715 471V462.896H272.563C272.766 462.896 272.894 462.995 272.947 463.192L273.059 464.072C273.411 463.683 273.803 463.368 274.235 463.128C274.672 462.888 275.176 462.768 275.747 462.768C276.19 462.768 276.579 462.843 276.915 462.992C277.256 463.136 277.539 463.344 277.763 463.616C277.992 463.883 278.166 464.205 278.283 464.584C278.4 464.963 278.459 465.381 278.459 465.84V471H277.035V465.84C277.035 465.227 276.894 464.752 276.611 464.416C276.334 464.075 275.907 463.904 275.331 463.904C274.91 463.904 274.515 464.005 274.147 464.208C273.784 464.411 273.448 464.685 273.139 465.032V471H271.715ZM287.339 459.408C287.825 459.408 288.278 459.48 288.699 459.624C289.121 459.768 289.483 459.979 289.787 460.256C290.097 460.528 290.339 460.861 290.515 461.256C290.691 461.651 290.779 462.099 290.779 462.6C290.779 463.027 290.715 463.421 290.587 463.784C290.459 464.147 290.286 464.496 290.067 464.832C289.849 465.163 289.595 465.485 289.307 465.8C289.025 466.109 288.723 466.427 288.403 466.752L285.387 469.84C285.601 469.781 285.817 469.736 286.035 469.704C286.254 469.667 286.465 469.648 286.667 469.648H290.507C290.662 469.648 290.785 469.693 290.875 469.784C290.966 469.875 291.011 469.992 291.011 470.136V471H283.363V470.512C283.363 470.411 283.382 470.307 283.419 470.2C283.462 470.093 283.529 469.995 283.619 469.904L287.291 466.216C287.595 465.907 287.873 465.611 288.123 465.328C288.374 465.04 288.587 464.752 288.763 464.464C288.945 464.176 289.083 463.885 289.179 463.592C289.275 463.293 289.323 462.976 289.323 462.64C289.323 462.304 289.27 462.011 289.163 461.76C289.057 461.504 288.91 461.293 288.723 461.128C288.537 460.963 288.318 460.84 288.067 460.76C287.817 460.675 287.547 460.632 287.259 460.632C286.971 460.632 286.705 460.675 286.459 460.76C286.214 460.845 285.995 460.965 285.803 461.12C285.617 461.269 285.457 461.448 285.323 461.656C285.195 461.864 285.105 462.093 285.051 462.344C285.009 462.499 284.945 462.611 284.859 462.68C284.774 462.749 284.662 462.784 284.523 462.784C284.497 462.784 284.467 462.784 284.435 462.784C284.409 462.779 284.377 462.773 284.339 462.768L283.595 462.64C283.67 462.117 283.814 461.656 284.027 461.256C284.241 460.851 284.51 460.512 284.835 460.24C285.166 459.968 285.542 459.763 285.963 459.624C286.39 459.48 286.849 459.408 287.339 459.408Z" fill="black"/>
<circle cx="209" cy="465" r="10" fill="white" stroke="#D8D8D8" stroke-width="2"/>
<path d="M242.04 495.272C242.04 496.131 241.904 496.92 241.632 497.64C241.36 498.355 240.976 498.971 240.48 499.488C239.984 500.005 239.387 500.408 238.688 500.696C237.995 500.979 237.227 501.12 236.384 501.12C235.541 501.12 234.773 500.979 234.08 500.696C233.387 500.408 232.792 500.005 232.296 499.488C231.8 498.971 231.416 498.355 231.144 497.64C230.872 496.92 230.736 496.131 230.736 495.272C230.736 494.413 230.872 493.627 231.144 492.912C231.416 492.192 231.8 491.573 232.296 491.056C232.792 490.533 233.387 490.128 234.08 489.84C234.773 489.552 235.541 489.408 236.384 489.408C237.227 489.408 237.995 489.552 238.688 489.84C239.387 490.128 239.984 490.533 240.48 491.056C240.976 491.573 241.36 492.192 241.632 492.912C241.904 493.627 242.04 494.413 242.04 495.272ZM240.448 495.272C240.448 494.568 240.352 493.936 240.16 493.376C239.968 492.816 239.696 492.344 239.344 491.96C238.992 491.571 238.565 491.272 238.064 491.064C237.563 490.856 237.003 490.752 236.384 490.752C235.771 490.752 235.213 490.856 234.712 491.064C234.211 491.272 233.781 491.571 233.424 491.96C233.072 492.344 232.8 492.816 232.608 493.376C232.416 493.936 232.32 494.568 232.32 495.272C232.32 495.976 232.416 496.608 232.608 497.168C232.8 497.723 233.072 498.195 233.424 498.584C233.781 498.968 234.211 499.264 234.712 499.472C235.213 499.675 235.771 499.776 236.384 499.776C237.003 499.776 237.563 499.675 238.064 499.472C238.565 499.264 238.992 498.968 239.344 498.584C239.696 498.195 239.968 497.723 240.16 497.168C240.352 496.608 240.448 495.976 240.448 495.272ZM243.934 503.744V492.896H244.782C244.984 492.896 245.112 492.995 245.166 493.192L245.286 494.152C245.632 493.731 246.027 493.392 246.47 493.136C246.918 492.88 247.432 492.752 248.014 492.752C248.478 492.752 248.899 492.843 249.278 493.024C249.656 493.2 249.979 493.464 250.246 493.816C250.512 494.163 250.718 494.595 250.862 495.112C251.006 495.629 251.078 496.224 251.078 496.896C251.078 497.493 250.998 498.051 250.838 498.568C250.678 499.08 250.448 499.525 250.15 499.904C249.851 500.277 249.483 500.573 249.046 500.792C248.614 501.005 248.126 501.112 247.582 501.112C247.08 501.112 246.651 501.029 246.294 500.864C245.942 500.699 245.63 500.464 245.358 500.16V503.744H243.934ZM247.542 493.904C247.078 493.904 246.67 494.011 246.318 494.224C245.971 494.437 245.651 494.739 245.358 495.128V499.048C245.619 499.4 245.904 499.648 246.214 499.792C246.528 499.936 246.878 500.008 247.262 500.008C248.014 500.008 248.592 499.739 248.998 499.2C249.403 498.661 249.606 497.893 249.606 496.896C249.606 496.368 249.558 495.915 249.462 495.536C249.371 495.157 249.238 494.848 249.062 494.608C248.886 494.363 248.67 494.184 248.414 494.072C248.158 493.96 247.867 493.904 247.542 493.904ZM255.218 501.128C254.578 501.128 254.084 500.949 253.738 500.592C253.396 500.235 253.226 499.72 253.226 499.048V494.088H252.25C252.164 494.088 252.092 494.064 252.034 494.016C251.975 493.963 251.946 493.883 251.946 493.776V493.208L253.274 493.04L253.602 490.536C253.612 490.456 253.647 490.392 253.706 490.344C253.764 490.291 253.839 490.264 253.93 490.264H254.65V493.056H256.97V494.088H254.65V498.952C254.65 499.293 254.732 499.547 254.898 499.712C255.063 499.877 255.276 499.96 255.538 499.96C255.687 499.96 255.815 499.941 255.922 499.904C256.034 499.861 256.13 499.816 256.21 499.768C256.29 499.72 256.356 499.677 256.41 499.64C256.468 499.597 256.519 499.576 256.562 499.576C256.636 499.576 256.703 499.621 256.762 499.712L257.178 500.392C256.932 500.621 256.636 500.803 256.29 500.936C255.943 501.064 255.586 501.128 255.218 501.128ZM260.315 492.896V501H258.891V492.896H260.315ZM260.635 490.352C260.635 490.491 260.605 490.621 260.547 490.744C260.493 490.861 260.419 490.968 260.323 491.064C260.232 491.155 260.125 491.227 260.003 491.28C259.88 491.333 259.749 491.36 259.611 491.36C259.472 491.36 259.341 491.333 259.219 491.28C259.101 491.227 258.995 491.155 258.899 491.064C258.808 490.968 258.736 490.861 258.683 490.744C258.629 490.621 258.603 490.491 258.603 490.352C258.603 490.213 258.629 490.083 258.683 489.96C258.736 489.832 258.808 489.723 258.899 489.632C258.995 489.536 259.101 489.461 259.219 489.408C259.341 489.355 259.472 489.328 259.611 489.328C259.749 489.328 259.88 489.355 260.003 489.408C260.125 489.461 260.232 489.536 260.323 489.632C260.419 489.723 260.493 489.832 260.547 489.96C260.605 490.083 260.635 490.213 260.635 490.352ZM266.104 492.768C266.696 492.768 267.23 492.867 267.704 493.064C268.184 493.261 268.59 493.541 268.92 493.904C269.256 494.267 269.512 494.707 269.688 495.224C269.87 495.736 269.96 496.309 269.96 496.944C269.96 497.584 269.87 498.16 269.688 498.672C269.512 499.184 269.256 499.621 268.92 499.984C268.59 500.347 268.184 500.627 267.704 500.824C267.23 501.016 266.696 501.112 266.104 501.112C265.512 501.112 264.976 501.016 264.496 500.824C264.022 500.627 263.616 500.347 263.28 499.984C262.944 499.621 262.686 499.184 262.504 498.672C262.323 498.16 262.232 497.584 262.232 496.944C262.232 496.309 262.323 495.736 262.504 495.224C262.686 494.707 262.944 494.267 263.28 493.904C263.616 493.541 264.022 493.261 264.496 493.064C264.976 492.867 265.512 492.768 266.104 492.768ZM266.104 500C266.904 500 267.502 499.733 267.896 499.2C268.291 498.661 268.488 497.912 268.488 496.952C268.488 495.987 268.291 495.235 267.896 494.696C267.502 494.157 266.904 493.888 266.104 493.888C265.699 493.888 265.347 493.957 265.048 494.096C264.75 494.235 264.499 494.435 264.296 494.696C264.099 494.957 263.95 495.28 263.848 495.664C263.752 496.043 263.704 496.472 263.704 496.952C263.704 497.432 263.752 497.861 263.848 498.24C263.95 498.619 264.099 498.939 264.296 499.2C264.499 499.456 264.75 499.653 265.048 499.792C265.347 499.931 265.699 500 266.104 500ZM271.715 501V492.896H272.563C272.766 492.896 272.894 492.995 272.947 493.192L273.059 494.072C273.411 493.683 273.803 493.368 274.235 493.128C274.672 492.888 275.176 492.768 275.747 492.768C276.19 492.768 276.579 492.843 276.915 492.992C277.256 493.136 277.539 493.344 277.763 493.616C277.992 493.883 278.166 494.205 278.283 494.584C278.4 494.963 278.459 495.381 278.459 495.84V501H277.035V495.84C277.035 495.227 276.894 494.752 276.611 494.416C276.334 494.075 275.907 493.904 275.331 493.904C274.91 493.904 274.515 494.005 274.147 494.208C273.784 494.411 273.448 494.685 273.139 495.032V501H271.715ZM287.491 489.408C287.977 489.408 288.425 489.477 288.835 489.616C289.246 489.755 289.598 489.952 289.891 490.208C290.19 490.464 290.422 490.773 290.587 491.136C290.753 491.499 290.835 491.901 290.835 492.344C290.835 492.707 290.787 493.032 290.691 493.32C290.601 493.603 290.467 493.853 290.291 494.072C290.121 494.285 289.913 494.467 289.667 494.616C289.422 494.765 289.147 494.885 288.843 494.976C289.59 495.173 290.15 495.504 290.523 495.968C290.902 496.432 291.091 497.013 291.091 497.712C291.091 498.24 290.99 498.715 290.787 499.136C290.59 499.557 290.318 499.917 289.971 500.216C289.625 500.509 289.219 500.736 288.755 500.896C288.297 501.051 287.803 501.128 287.275 501.128C286.667 501.128 286.147 501.053 285.715 500.904C285.283 500.749 284.918 500.539 284.619 500.272C284.321 500.005 284.075 499.691 283.883 499.328C283.691 498.96 283.529 498.563 283.395 498.136L284.003 497.88C284.115 497.832 284.227 497.808 284.339 497.808C284.446 497.808 284.539 497.832 284.619 497.88C284.705 497.923 284.769 497.992 284.811 498.088C284.822 498.109 284.833 498.133 284.843 498.16C284.854 498.181 284.865 498.205 284.875 498.232C284.95 498.387 285.041 498.563 285.147 498.76C285.254 498.952 285.398 499.133 285.579 499.304C285.761 499.475 285.985 499.619 286.251 499.736C286.523 499.853 286.859 499.912 287.259 499.912C287.659 499.912 288.009 499.848 288.307 499.72C288.611 499.587 288.862 499.416 289.059 499.208C289.262 499 289.414 498.768 289.515 498.512C289.617 498.256 289.667 498.003 289.667 497.752C289.667 497.443 289.625 497.16 289.539 496.904C289.459 496.648 289.31 496.427 289.091 496.24C288.878 496.053 288.579 495.907 288.195 495.8C287.817 495.693 287.329 495.64 286.731 495.64V494.608C287.217 494.603 287.63 494.549 287.971 494.448C288.318 494.347 288.601 494.208 288.819 494.032C289.038 493.856 289.195 493.645 289.291 493.4C289.393 493.155 289.443 492.883 289.443 492.584C289.443 492.253 289.39 491.965 289.283 491.72C289.182 491.475 289.041 491.272 288.859 491.112C288.678 490.952 288.462 490.832 288.211 490.752C287.966 490.672 287.699 490.632 287.411 490.632C287.123 490.632 286.857 490.675 286.611 490.76C286.366 490.845 286.147 490.965 285.955 491.12C285.769 491.269 285.611 491.451 285.483 491.664C285.355 491.872 285.259 492.099 285.195 492.344C285.153 492.499 285.089 492.611 285.003 492.68C284.918 492.749 284.809 492.784 284.675 492.784C284.649 492.784 284.619 492.784 284.587 492.784C284.561 492.779 284.529 492.773 284.491 492.768L283.747 492.64C283.822 492.117 283.966 491.656 284.179 491.256C284.393 490.851 284.662 490.512 284.987 490.24C285.318 489.968 285.694 489.763 286.115 489.624C286.542 489.48 287.001 489.408 287.491 489.408Z" fill="black"/>
<circle cx="209" cy="495" r="10" fill="white" stroke="#D8D8D8" stroke-width="2"/>
<path d="M242.04 435.272C242.04 436.131 241.904 436.92 241.632 437.64C241.36 438.355 240.976 438.971 240.48 439.488C239.984 440.005 239.387 440.408 238.688 440.696C237.995 440.979 237.227 441.12 236.384 441.12C235.541 441.12 234.773 440.979 234.08 440.696C233.387 440.408 232.792 440.005 232.296 439.488C231.8 438.971 231.416 438.355 231.144 437.64C230.872 436.92 230.736 436.131 230.736 435.272C230.736 434.413 230.872 433.627 231.144 432.912C231.416 432.192 231.8 431.573 232.296 431.056C232.792 430.533 233.387 430.128 234.08 429.84C234.773 429.552 235.541 429.408 236.384 429.408C237.227 429.408 237.995 429.552 238.688 429.84C239.387 430.128 239.984 430.533 240.48 431.056C240.976 431.573 241.36 432.192 241.632 432.912C241.904 433.627 242.04 434.413 242.04 435.272ZM240.448 435.272C240.448 434.568 240.352 433.936 240.16 433.376C239.968 432.816 239.696 432.344 239.344 431.96C238.992 431.571 238.565 431.272 238.064 431.064C237.563 430.856 237.003 430.752 236.384 430.752C235.771 430.752 235.213 430.856 234.712 431.064C234.211 431.272 233.781 431.571 233.424 431.96C233.072 432.344 232.8 432.816 232.608 433.376C232.416 433.936 232.32 434.568 232.32 435.272C232.32 435.976 232.416 436.608 232.608 437.168C232.8 437.723 233.072 438.195 233.424 438.584C233.781 438.968 234.211 439.264 234.712 439.472C235.213 439.675 235.771 439.776 236.384 439.776C237.003 439.776 237.563 439.675 238.064 439.472C238.565 439.264 238.992 438.968 239.344 438.584C239.696 438.195 239.968 437.723 240.16 437.168C240.352 436.608 240.448 435.976 240.448 435.272ZM243.934 443.744V432.896H244.782C244.984 432.896 245.112 432.995 245.166 433.192L245.286 434.152C245.632 433.731 246.027 433.392 246.47 433.136C246.918 432.88 247.432 432.752 248.014 432.752C248.478 432.752 248.899 432.843 249.278 433.024C249.656 433.2 249.979 433.464 250.246 433.816C250.512 434.163 250.718 434.595 250.862 435.112C251.006 435.629 251.078 436.224 251.078 436.896C251.078 437.493 250.998 438.051 250.838 438.568C250.678 439.08 250.448 439.525 250.15 439.904C249.851 440.277 249.483 440.573 249.046 440.792C248.614 441.005 248.126 441.112 247.582 441.112C247.08 441.112 246.651 441.029 246.294 440.864C245.942 440.699 245.63 440.464 245.358 440.16V443.744H243.934ZM247.542 433.904C247.078 433.904 246.67 434.011 246.318 434.224C245.971 434.437 245.651 434.739 245.358 435.128V439.048C245.619 439.4 245.904 439.648 246.214 439.792C246.528 439.936 246.878 440.008 247.262 440.008C248.014 440.008 248.592 439.739 248.998 439.2C249.403 438.661 249.606 437.893 249.606 436.896C249.606 436.368 249.558 435.915 249.462 435.536C249.371 435.157 249.238 434.848 249.062 434.608C248.886 434.363 248.67 434.184 248.414 434.072C248.158 433.96 247.867 433.904 247.542 433.904ZM255.218 441.128C254.578 441.128 254.084 440.949 253.738 440.592C253.396 440.235 253.226 439.72 253.226 439.048V434.088H252.25C252.164 434.088 252.092 434.064 252.034 434.016C251.975 433.963 251.946 433.883 251.946 433.776V433.208L253.274 433.04L253.602 430.536C253.612 430.456 253.647 430.392 253.706 430.344C253.764 430.291 253.839 430.264 253.93 430.264H254.65V433.056H256.97V434.088H254.65V438.952C254.65 439.293 254.732 439.547 254.898 439.712C255.063 439.877 255.276 439.96 255.538 439.96C255.687 439.96 255.815 439.941 255.922 439.904C256.034 439.861 256.13 439.816 256.21 439.768C256.29 439.72 256.356 439.677 256.41 439.64C256.468 439.597 256.519 439.576 256.562 439.576C256.636 439.576 256.703 439.621 256.762 439.712L257.178 440.392C256.932 440.621 256.636 440.803 256.29 440.936C255.943 441.064 255.586 441.128 255.218 441.128ZM260.315 432.896V441H258.891V432.896H260.315ZM260.635 430.352C260.635 430.491 260.605 430.621 260.547 430.744C260.493 430.861 260.419 430.968 260.323 431.064C260.232 431.155 260.125 431.227 260.003 431.28C259.88 431.333 259.749 431.36 259.611 431.36C259.472 431.36 259.341 431.333 259.219 431.28C259.101 431.227 258.995 431.155 258.899 431.064C258.808 430.968 258.736 430.861 258.683 430.744C258.629 430.621 258.603 430.491 258.603 430.352C258.603 430.213 258.629 430.083 258.683 429.96C258.736 429.832 258.808 429.723 258.899 429.632C258.995 429.536 259.101 429.461 259.219 429.408C259.341 429.355 259.472 429.328 259.611 429.328C259.749 429.328 259.88 429.355 260.003 429.408C260.125 429.461 260.232 429.536 260.323 429.632C260.419 429.723 260.493 429.832 260.547 429.96C260.605 430.083 260.635 430.213 260.635 430.352ZM266.104 432.768C266.696 432.768 267.23 432.867 267.704 433.064C268.184 433.261 268.59 433.541 268.92 433.904C269.256 434.267 269.512 434.707 269.688 435.224C269.87 435.736 269.96 436.309 269.96 436.944C269.96 437.584 269.87 438.16 269.688 438.672C269.512 439.184 269.256 439.621 268.92 439.984C268.59 440.347 268.184 440.627 267.704 440.824C267.23 441.016 266.696 441.112 266.104 441.112C265.512 441.112 264.976 441.016 264.496 440.824C264.022 440.627 263.616 440.347 263.28 439.984C262.944 439.621 262.686 439.184 262.504 438.672C262.323 438.16 262.232 437.584 262.232 436.944C262.232 436.309 262.323 435.736 262.504 435.224C262.686 434.707 262.944 434.267 263.28 433.904C263.616 433.541 264.022 433.261 264.496 433.064C264.976 432.867 265.512 432.768 266.104 432.768ZM266.104 440C266.904 440 267.502 439.733 267.896 439.2C268.291 438.661 268.488 437.912 268.488 436.952C268.488 435.987 268.291 435.235 267.896 434.696C267.502 434.157 266.904 433.888 266.104 433.888C265.699 433.888 265.347 433.957 265.048 434.096C264.75 434.235 264.499 434.435 264.296 434.696C264.099 434.957 263.95 435.28 263.848 435.664C263.752 436.043 263.704 436.472 263.704 436.952C263.704 437.432 263.752 437.861 263.848 438.24C263.95 438.619 264.099 438.939 264.296 439.2C264.499 439.456 264.75 439.653 265.048 439.792C265.347 439.931 265.699 440 266.104 440ZM271.715 441V432.896H272.563C272.766 432.896 272.894 432.995 272.947 433.192L273.059 434.072C273.411 433.683 273.803 433.368 274.235 433.128C274.672 432.888 275.176 432.768 275.747 432.768C276.19 432.768 276.579 432.843 276.915 432.992C277.256 433.136 277.539 433.344 277.763 433.616C277.992 433.883 278.166 434.205 278.283 434.584C278.4 434.963 278.459 435.381 278.459 435.84V441H277.035V435.84C277.035 435.227 276.894 434.752 276.611 434.416C276.334 434.075 275.907 433.904 275.331 433.904C274.91 433.904 274.515 434.005 274.147 434.208C273.784 434.411 273.448 434.685 273.139 435.032V441H271.715ZM284.827 439.912H287.291V432.096C287.291 431.861 287.299 431.624 287.315 431.384L285.267 433.136C285.214 433.179 285.161 433.211 285.107 433.232C285.054 433.248 285.003 433.256 284.955 433.256C284.875 433.256 284.803 433.24 284.739 433.208C284.675 433.171 284.627 433.128 284.595 433.08L284.147 432.464L287.555 429.512H288.715V439.912H290.971V441H284.827V439.912Z" fill="black"/>
<circle cx="209" cy="435" r="10" fill="white" stroke="#D8D8D8" stroke-width="2"/>
<circle cx="209" cy="435" r="8" fill="white" stroke="#0064D1" stroke-width="6"/>
<path d="M200.944 409.696H205.904V411H199.392V399.536H200.944V409.696ZM213.339 411H212.707C212.568 411 212.456 410.979 212.371 410.936C212.285 410.893 212.229 410.803 212.203 410.664L212.043 409.912C211.829 410.104 211.621 410.277 211.419 410.432C211.216 410.581 211.003 410.709 210.779 410.816C210.555 410.917 210.315 410.995 210.059 411.048C209.808 411.101 209.528 411.128 209.219 411.128C208.904 411.128 208.608 411.085 208.331 411C208.059 410.909 207.821 410.776 207.619 410.6C207.416 410.424 207.253 410.203 207.131 409.936C207.013 409.664 206.955 409.344 206.955 408.976C206.955 408.656 207.043 408.349 207.219 408.056C207.395 407.757 207.677 407.493 208.067 407.264C208.461 407.035 208.976 406.848 209.611 406.704C210.245 406.555 211.021 406.469 211.939 406.448V405.816C211.939 405.187 211.803 404.712 211.531 404.392C211.264 404.067 210.867 403.904 210.339 403.904C209.992 403.904 209.699 403.949 209.459 404.04C209.224 404.125 209.019 404.224 208.843 404.336C208.672 404.443 208.523 404.541 208.395 404.632C208.272 404.717 208.149 404.76 208.027 404.76C207.931 404.76 207.845 404.736 207.771 404.688C207.701 404.635 207.645 404.571 207.603 404.496L207.347 404.04C207.795 403.608 208.277 403.285 208.795 403.072C209.312 402.859 209.885 402.752 210.515 402.752C210.968 402.752 211.371 402.827 211.723 402.976C212.075 403.125 212.371 403.333 212.611 403.6C212.851 403.867 213.032 404.189 213.155 404.568C213.277 404.947 213.339 405.363 213.339 405.816V411ZM209.643 410.128C209.893 410.128 210.123 410.104 210.331 410.056C210.539 410.003 210.733 409.931 210.915 409.84C211.101 409.744 211.277 409.629 211.443 409.496C211.613 409.363 211.779 409.211 211.939 409.04V407.352C211.283 407.373 210.725 407.427 210.267 407.512C209.808 407.592 209.435 407.699 209.147 407.832C208.859 407.965 208.648 408.123 208.515 408.304C208.387 408.485 208.323 408.688 208.323 408.912C208.323 409.125 208.357 409.309 208.427 409.464C208.496 409.619 208.589 409.747 208.707 409.848C208.824 409.944 208.963 410.016 209.123 410.064C209.283 410.107 209.456 410.128 209.643 410.128ZM215.544 411V399.216H216.976V404.064C217.312 403.675 217.696 403.363 218.128 403.128C218.565 402.888 219.064 402.768 219.624 402.768C220.093 402.768 220.517 402.856 220.896 403.032C221.275 403.208 221.597 403.472 221.864 403.824C222.131 404.171 222.336 404.603 222.48 405.12C222.624 405.632 222.696 406.224 222.696 406.896C222.696 407.493 222.616 408.051 222.456 408.568C222.296 409.08 222.064 409.525 221.76 409.904C221.461 410.277 221.093 410.573 220.656 410.792C220.224 411.005 219.736 411.112 219.192 411.112C218.669 411.112 218.224 411.011 217.856 410.808C217.493 410.605 217.176 410.323 216.904 409.96L216.832 410.696C216.789 410.899 216.667 411 216.464 411H215.544ZM219.16 403.904C218.696 403.904 218.288 404.011 217.936 404.224C217.589 404.437 217.269 404.739 216.976 405.128V409.048C217.232 409.4 217.515 409.648 217.824 409.792C218.139 409.936 218.488 410.008 218.872 410.008C219.629 410.008 220.211 409.739 220.616 409.2C221.021 408.661 221.224 407.893 221.224 406.896C221.224 406.368 221.176 405.915 221.08 405.536C220.989 405.157 220.856 404.848 220.68 404.608C220.504 404.363 220.288 404.184 220.032 404.072C219.776 403.96 219.485 403.904 219.16 403.904ZM227.642 402.768C228.127 402.768 228.575 402.851 228.986 403.016C229.396 403.176 229.751 403.411 230.05 403.72C230.348 404.024 230.58 404.403 230.746 404.856C230.916 405.304 231.002 405.816 231.002 406.392C231.002 406.616 230.978 406.765 230.93 406.84C230.882 406.915 230.791 406.952 230.658 406.952H225.266C225.276 407.464 225.346 407.909 225.474 408.288C225.602 408.667 225.778 408.984 226.002 409.24C226.226 409.491 226.492 409.68 226.802 409.808C227.111 409.931 227.458 409.992 227.842 409.992C228.199 409.992 228.506 409.952 228.762 409.872C229.023 409.787 229.247 409.696 229.434 409.6C229.62 409.504 229.775 409.416 229.898 409.336C230.026 409.251 230.135 409.208 230.226 409.208C230.343 409.208 230.434 409.253 230.498 409.344L230.898 409.864C230.722 410.077 230.511 410.264 230.266 410.424C230.02 410.579 229.756 410.707 229.474 410.808C229.196 410.909 228.908 410.984 228.61 411.032C228.311 411.085 228.015 411.112 227.722 411.112C227.162 411.112 226.644 411.019 226.17 410.832C225.7 410.64 225.292 410.363 224.946 410C224.604 409.632 224.338 409.179 224.146 408.64C223.954 408.101 223.858 407.483 223.858 406.784C223.858 406.219 223.943 405.691 224.114 405.2C224.29 404.709 224.54 404.285 224.866 403.928C225.191 403.565 225.588 403.283 226.058 403.08C226.527 402.872 227.055 402.768 227.642 402.768ZM227.674 403.816C226.986 403.816 226.444 404.016 226.05 404.416C225.655 404.811 225.41 405.36 225.314 406.064H229.722C229.722 405.733 229.676 405.432 229.586 405.16C229.495 404.883 229.362 404.645 229.186 404.448C229.01 404.245 228.794 404.091 228.538 403.984C228.287 403.872 227.999 403.816 227.674 403.816ZM234.408 399.216V411H232.984V399.216H234.408Z" fill="black"/>
</svg>
