<svg width="593" height="339" viewBox="0 0 593 339" fill="none" xmlns="http://www.w3.org/2000/svg">
<rect x="0.5" y="-0.5" width="592" height="338" rx="5.5" transform="matrix(1 0 0 -1 0 338)" fill="white" stroke="#DBDBDB"/>
<path d="M1 7C1 3.68629 3.68629 1 7 1H586C589.314 1 592 3.68629 592 7V65H1V7Z" fill="#F8F8F8"/>
<line y1="267.5" x2="592" y2="267.5" stroke="#DBDBDB"/>
<rect x="494" y="284" width="74" height="38" rx="19" fill="#0064D1"/>
<path d="M520.839 305.632C520.925 305.632 521.002 305.667 521.071 305.736L521.679 306.4C521.21 306.944 520.639 307.368 519.967 307.672C519.301 307.976 518.495 308.128 517.551 308.128C516.725 308.128 515.975 307.987 515.303 307.704C514.631 307.416 514.058 307.016 513.583 306.504C513.109 305.987 512.741 305.368 512.479 304.648C512.218 303.928 512.087 303.136 512.087 302.272C512.087 301.408 512.226 300.616 512.503 299.896C512.786 299.176 513.181 298.557 513.687 298.04C514.194 297.523 514.799 297.123 515.503 296.84C516.213 296.552 516.994 296.408 517.847 296.408C518.69 296.408 519.415 296.539 520.023 296.8C520.637 297.061 521.181 297.416 521.655 297.864L521.151 298.576C521.114 298.629 521.071 298.675 521.023 298.712C520.975 298.744 520.906 298.76 520.815 298.76C520.746 298.76 520.671 298.736 520.591 298.688C520.517 298.635 520.426 298.571 520.319 298.496C520.213 298.421 520.087 298.341 519.943 298.256C519.799 298.171 519.629 298.091 519.431 298.016C519.234 297.941 519.005 297.88 518.743 297.832C518.482 297.779 518.181 297.752 517.839 297.752C517.226 297.752 516.663 297.859 516.151 298.072C515.645 298.28 515.207 298.579 514.839 298.968C514.471 299.357 514.183 299.832 513.975 300.392C513.773 300.952 513.671 301.579 513.671 302.272C513.671 302.987 513.773 303.624 513.975 304.184C514.183 304.744 514.463 305.219 514.815 305.608C515.173 305.992 515.594 306.285 516.079 306.488C516.565 306.691 517.087 306.792 517.647 306.792C517.989 306.792 518.295 306.773 518.567 306.736C518.839 306.693 519.09 306.629 519.319 306.544C519.554 306.459 519.77 306.352 519.967 306.224C520.17 306.091 520.373 305.933 520.575 305.752C520.666 305.672 520.754 305.632 520.839 305.632ZM525.072 296.216V308H523.648V296.216H525.072ZM530.862 299.768C531.454 299.768 531.987 299.867 532.462 300.064C532.942 300.261 533.347 300.541 533.678 300.904C534.014 301.267 534.27 301.707 534.446 302.224C534.627 302.736 534.718 303.309 534.718 303.944C534.718 304.584 534.627 305.16 534.446 305.672C534.27 306.184 534.014 306.621 533.678 306.984C533.347 307.347 532.942 307.627 532.462 307.824C531.987 308.016 531.454 308.112 530.862 308.112C530.27 308.112 529.734 308.016 529.254 307.824C528.779 307.627 528.374 307.347 528.038 306.984C527.702 306.621 527.443 306.184 527.262 305.672C527.081 305.16 526.99 304.584 526.99 303.944C526.99 303.309 527.081 302.736 527.262 302.224C527.443 301.707 527.702 301.267 528.038 300.904C528.374 300.541 528.779 300.261 529.254 300.064C529.734 299.867 530.27 299.768 530.862 299.768ZM530.862 307C531.662 307 532.259 306.733 532.654 306.2C533.049 305.661 533.246 304.912 533.246 303.952C533.246 302.987 533.049 302.235 532.654 301.696C532.259 301.157 531.662 300.888 530.862 300.888C530.457 300.888 530.105 300.957 529.806 301.096C529.507 301.235 529.257 301.435 529.054 301.696C528.857 301.957 528.707 302.28 528.606 302.664C528.51 303.043 528.462 303.472 528.462 303.952C528.462 304.432 528.51 304.861 528.606 305.24C528.707 305.619 528.857 305.939 529.054 306.2C529.257 306.456 529.507 306.653 529.806 306.792C530.105 306.931 530.457 307 530.862 307ZM541.113 301.232C541.049 301.349 540.95 301.408 540.817 301.408C540.737 301.408 540.646 301.379 540.545 301.32C540.443 301.261 540.318 301.197 540.169 301.128C540.025 301.053 539.851 300.987 539.649 300.928C539.446 300.864 539.206 300.832 538.929 300.832C538.689 300.832 538.473 300.864 538.281 300.928C538.089 300.987 537.923 301.069 537.785 301.176C537.651 301.283 537.547 301.408 537.473 301.552C537.403 301.691 537.369 301.843 537.369 302.008C537.369 302.216 537.427 302.389 537.545 302.528C537.667 302.667 537.827 302.787 538.025 302.888C538.222 302.989 538.446 303.08 538.697 303.16C538.947 303.235 539.203 303.317 539.465 303.408C539.731 303.493 539.99 303.589 540.241 303.696C540.491 303.803 540.715 303.936 540.913 304.096C541.11 304.256 541.267 304.453 541.385 304.688C541.507 304.917 541.569 305.195 541.569 305.52C541.569 305.893 541.502 306.24 541.369 306.56C541.235 306.875 541.038 307.149 540.777 307.384C540.515 307.613 540.195 307.795 539.817 307.928C539.438 308.061 539.001 308.128 538.505 308.128C537.939 308.128 537.427 308.037 536.969 307.856C536.51 307.669 536.121 307.432 535.801 307.144L536.137 306.6C536.179 306.531 536.23 306.477 536.289 306.44C536.347 306.403 536.425 306.384 536.521 306.384C536.617 306.384 536.718 306.421 536.825 306.496C536.931 306.571 537.059 306.653 537.209 306.744C537.363 306.835 537.547 306.917 537.761 306.992C537.979 307.067 538.251 307.104 538.577 307.104C538.854 307.104 539.097 307.069 539.305 307C539.513 306.925 539.686 306.827 539.825 306.704C539.963 306.581 540.065 306.44 540.129 306.28C540.198 306.12 540.233 305.949 540.233 305.768C540.233 305.544 540.171 305.36 540.049 305.216C539.931 305.067 539.774 304.941 539.577 304.84C539.379 304.733 539.153 304.643 538.897 304.568C538.646 304.488 538.387 304.405 538.121 304.32C537.859 304.235 537.601 304.139 537.345 304.032C537.094 303.92 536.87 303.781 536.673 303.616C536.475 303.451 536.315 303.248 536.193 303.008C536.075 302.763 536.017 302.467 536.017 302.12C536.017 301.811 536.081 301.515 536.209 301.232C536.337 300.944 536.523 300.693 536.769 300.48C537.014 300.261 537.315 300.088 537.673 299.96C538.03 299.832 538.438 299.768 538.897 299.768C539.43 299.768 539.907 299.853 540.329 300.024C540.755 300.189 541.123 300.419 541.433 300.712L541.113 301.232ZM546.618 299.768C547.104 299.768 547.552 299.851 547.962 300.016C548.373 300.176 548.728 300.411 549.026 300.72C549.325 301.024 549.557 301.403 549.722 301.856C549.893 302.304 549.978 302.816 549.978 303.392C549.978 303.616 549.954 303.765 549.906 303.84C549.858 303.915 549.768 303.952 549.634 303.952H544.242C544.253 304.464 544.322 304.909 544.45 305.288C544.578 305.667 544.754 305.984 544.978 306.24C545.202 306.491 545.469 306.68 545.778 306.808C546.088 306.931 546.434 306.992 546.818 306.992C547.176 306.992 547.482 306.952 547.738 306.872C548 306.787 548.224 306.696 548.41 306.6C548.597 306.504 548.752 306.416 548.874 306.336C549.002 306.251 549.112 306.208 549.202 306.208C549.32 306.208 549.41 306.253 549.474 306.344L549.874 306.864C549.698 307.077 549.488 307.264 549.242 307.424C548.997 307.579 548.733 307.707 548.45 307.808C548.173 307.909 547.885 307.984 547.586 308.032C547.288 308.085 546.992 308.112 546.698 308.112C546.138 308.112 545.621 308.019 545.146 307.832C544.677 307.64 544.269 307.363 543.922 307C543.581 306.632 543.314 306.179 543.122 305.64C542.93 305.101 542.834 304.483 542.834 303.784C542.834 303.219 542.92 302.691 543.09 302.2C543.266 301.709 543.517 301.285 543.842 300.928C544.168 300.565 544.565 300.283 545.034 300.08C545.504 299.872 546.032 299.768 546.618 299.768ZM546.65 300.816C545.962 300.816 545.421 301.016 545.026 301.416C544.632 301.811 544.386 302.36 544.29 303.064H548.698C548.698 302.733 548.653 302.432 548.562 302.16C548.472 301.883 548.338 301.645 548.162 301.448C547.986 301.245 547.77 301.091 547.514 300.984C547.264 300.872 546.976 300.816 546.65 300.816Z" fill="white"/>
<path d="M25.14 24.67H26.75C26.9233 24.67 27.0667 24.7133 27.18 24.8C27.2933 24.8867 27.37 24.9967 27.41 25.13L30.37 35.09C30.4233 35.27 30.47 35.4633 30.51 35.67C30.5567 35.8767 30.6 36.0933 30.64 36.32C30.6867 36.0933 30.7333 35.8767 30.78 35.67C30.8267 35.4567 30.88 35.2633 30.94 35.09L34.31 25.13C34.35 25.0167 34.4267 24.9133 34.54 24.82C34.66 24.72 34.8033 24.67 34.97 24.67H35.53C35.7033 24.67 35.8433 24.7133 35.95 24.8C36.0633 24.8867 36.1433 24.9967 36.19 25.13L39.54 35.09C39.66 35.4367 39.7667 35.8333 39.86 36.28C39.9 36.06 39.9367 35.85 39.97 35.65C40.0033 35.45 40.0467 35.2633 40.1 35.09L43.07 25.13C43.1033 25.01 43.1767 24.9033 43.29 24.81C43.41 24.7167 43.5533 24.67 43.72 24.67H45.23L40.76 39H39.02L35.39 28.07C35.3167 27.8633 35.25 27.6233 35.19 27.35C35.1567 27.4833 35.1233 27.6133 35.09 27.74C35.0633 27.86 35.0333 27.97 35 28.07L31.35 39H29.61L25.14 24.67ZM53.3922 39H52.6022C52.4289 39 52.2889 38.9733 52.1822 38.92C52.0755 38.8667 52.0055 38.7533 51.9722 38.58L51.7722 37.64C51.5055 37.88 51.2455 38.0967 50.9922 38.29C50.7389 38.4767 50.4722 38.6367 50.1922 38.77C49.9122 38.8967 49.6122 38.9933 49.2922 39.06C48.9789 39.1267 48.6289 39.16 48.2422 39.16C47.8489 39.16 47.4789 39.1067 47.1322 39C46.7922 38.8867 46.4955 38.72 46.2422 38.5C45.9889 38.28 45.7855 38.0033 45.6322 37.67C45.4855 37.33 45.4122 36.93 45.4122 36.47C45.4122 36.07 45.5222 35.6867 45.7422 35.32C45.9622 34.9467 46.3155 34.6167 46.8022 34.33C47.2955 34.0433 47.9389 33.81 48.7322 33.63C49.5255 33.4433 50.4955 33.3367 51.6422 33.31V32.52C51.6422 31.7333 51.4722 31.14 51.1322 30.74C50.7989 30.3333 50.3022 30.13 49.6422 30.13C49.2089 30.13 48.8422 30.1867 48.5422 30.3C48.2489 30.4067 47.9922 30.53 47.7722 30.67C47.5589 30.8033 47.3722 30.9267 47.2122 31.04C47.0589 31.1467 46.9055 31.2 46.7522 31.2C46.6322 31.2 46.5255 31.17 46.4322 31.11C46.3455 31.0433 46.2755 30.9633 46.2222 30.87L45.9022 30.3C46.4622 29.76 47.0655 29.3567 47.7122 29.09C48.3589 28.8233 49.0755 28.69 49.8622 28.69C50.4289 28.69 50.9322 28.7833 51.3722 28.97C51.8122 29.1567 52.1822 29.4167 52.4822 29.75C52.7822 30.0833 53.0089 30.4867 53.1622 30.96C53.3155 31.4333 53.3922 31.9533 53.3922 32.52V39ZM48.7722 37.91C49.0855 37.91 49.3722 37.88 49.6322 37.82C49.8922 37.7533 50.1355 37.6633 50.3622 37.55C50.5955 37.43 50.8155 37.2867 51.0222 37.12C51.2355 36.9533 51.4422 36.7633 51.6422 36.55V34.44C50.8222 34.4667 50.1255 34.5333 49.5522 34.64C48.9789 34.74 48.5122 34.8733 48.1522 35.04C47.7922 35.2067 47.5289 35.4033 47.3622 35.63C47.2022 35.8567 47.1222 36.11 47.1222 36.39C47.1222 36.6567 47.1655 36.8867 47.2522 37.08C47.3389 37.2733 47.4555 37.4333 47.6022 37.56C47.7489 37.68 47.9222 37.77 48.1222 37.83C48.3222 37.8833 48.5389 37.91 48.7722 37.91ZM56.0889 39V28.87H57.1089C57.3022 28.87 57.4356 28.9067 57.5089 28.98C57.5822 29.0533 57.6322 29.18 57.6589 29.36L57.7789 30.94C58.1256 30.2333 58.5522 29.6833 59.0589 29.29C59.5722 28.89 60.1722 28.69 60.8589 28.69C61.1389 28.69 61.3922 28.7233 61.6189 28.79C61.8456 28.85 62.0556 28.9367 62.2489 29.05L62.0189 30.38C61.9722 30.5467 61.8689 30.63 61.7089 30.63C61.6156 30.63 61.4722 30.6 61.2789 30.54C61.0856 30.4733 60.8156 30.44 60.4689 30.44C59.8489 30.44 59.3289 30.62 58.9089 30.98C58.4956 31.34 58.1489 31.8633 57.8689 32.55V39H56.0889ZM64.1553 39V28.87H65.2153C65.4686 28.87 65.6286 28.9933 65.6953 29.24L65.8353 30.34C66.2753 29.8533 66.7653 29.46 67.3053 29.16C67.852 28.86 68.482 28.71 69.1953 28.71C69.7486 28.71 70.2353 28.8033 70.6553 28.99C71.082 29.17 71.4353 29.43 71.7153 29.77C72.002 30.1033 72.2186 30.5067 72.3653 30.98C72.512 31.4533 72.5853 31.9767 72.5853 32.55V39H70.8053V32.55C70.8053 31.7833 70.6286 31.19 70.2753 30.77C69.9286 30.3433 69.3953 30.13 68.6753 30.13C68.1486 30.13 67.6553 30.2567 67.1953 30.51C66.742 30.7633 66.322 31.1067 65.9353 31.54V39H64.1553ZM77.2486 28.87V39H75.4686V28.87H77.2486ZM77.6486 25.69C77.6486 25.8633 77.6119 26.0267 77.5386 26.18C77.4719 26.3267 77.3786 26.46 77.2586 26.58C77.1453 26.6933 77.0119 26.7833 76.8586 26.85C76.7053 26.9167 76.5419 26.95 76.3686 26.95C76.1953 26.95 76.0319 26.9167 75.8786 26.85C75.7319 26.7833 75.5986 26.6933 75.4786 26.58C75.3653 26.46 75.2753 26.3267 75.2086 26.18C75.1419 26.0267 75.1086 25.8633 75.1086 25.69C75.1086 25.5167 75.1419 25.3533 75.2086 25.2C75.2753 25.04 75.3653 24.9033 75.4786 24.79C75.5986 24.67 75.7319 24.5767 75.8786 24.51C76.0319 24.4433 76.1953 24.41 76.3686 24.41C76.5419 24.41 76.7053 24.4433 76.8586 24.51C77.0119 24.5767 77.1453 24.67 77.2586 24.79C77.3786 24.9033 77.4719 25.04 77.5386 25.2C77.6119 25.3533 77.6486 25.5167 77.6486 25.69ZM80.3858 39V28.87H81.4458C81.6991 28.87 81.8591 28.9933 81.9258 29.24L82.0658 30.34C82.5058 29.8533 82.9958 29.46 83.5358 29.16C84.0824 28.86 84.7124 28.71 85.4258 28.71C85.9791 28.71 86.4658 28.8033 86.8858 28.99C87.3124 29.17 87.6658 29.43 87.9458 29.77C88.2324 30.1033 88.4491 30.5067 88.5958 30.98C88.7424 31.4533 88.8158 31.9767 88.8158 32.55V39H87.0358V32.55C87.0358 31.7833 86.8591 31.19 86.5058 30.77C86.1591 30.3433 85.6258 30.13 84.9058 30.13C84.3791 30.13 83.8858 30.2567 83.4258 30.51C82.9724 30.7633 82.5524 31.1067 82.1658 31.54V39H80.3858ZM94.9091 28.7C95.3491 28.7 95.7591 28.75 96.1391 28.85C96.5257 28.9433 96.8757 29.0833 97.1891 29.27H99.9391V29.93C99.9391 30.15 99.7991 30.29 99.5191 30.35L98.3691 30.51C98.5957 30.9433 98.7091 31.4267 98.7091 31.96C98.7091 32.4533 98.6124 32.9033 98.4191 33.31C98.2324 33.71 97.9691 34.0533 97.6291 34.34C97.2957 34.6267 96.8957 34.8467 96.4291 35C95.9691 35.1533 95.4624 35.23 94.9091 35.23C94.4357 35.23 93.9891 35.1733 93.5691 35.06C93.3557 35.1933 93.1924 35.3367 93.0791 35.49C92.9724 35.6433 92.9191 35.7933 92.9191 35.94C92.9191 36.18 93.0157 36.3633 93.2091 36.49C93.4024 36.61 93.6591 36.6967 93.9791 36.75C94.2991 36.8033 94.6624 36.8367 95.0691 36.85C95.4757 36.8633 95.8891 36.8867 96.3091 36.92C96.7357 36.9467 97.1524 36.9967 97.5591 37.07C97.9657 37.1433 98.3291 37.2633 98.6491 37.43C98.9691 37.5967 99.2257 37.8267 99.4191 38.12C99.6124 38.4133 99.7091 38.7933 99.7091 39.26C99.7091 39.6933 99.5991 40.1133 99.3791 40.52C99.1657 40.9267 98.8557 41.2867 98.4491 41.6C98.0424 41.92 97.5457 42.1733 96.9591 42.36C96.3724 42.5533 95.7091 42.65 94.9691 42.65C94.2291 42.65 93.5791 42.5767 93.0191 42.43C92.4657 42.2833 92.0057 42.0867 91.6391 41.84C91.2724 41.5933 90.9957 41.3067 90.8091 40.98C90.6291 40.66 90.5391 40.3233 90.5391 39.97C90.5391 39.47 90.6957 39.0467 91.0091 38.7C91.3291 38.3467 91.7657 38.0667 92.3191 37.86C92.0324 37.7267 91.8024 37.55 91.6291 37.33C91.4624 37.1033 91.3791 36.8033 91.3791 36.43C91.3791 36.2833 91.4057 36.1333 91.4591 35.98C91.5124 35.82 91.5924 35.6633 91.6991 35.51C91.8124 35.3567 91.9491 35.21 92.1091 35.07C92.2691 34.93 92.4557 34.8067 92.6691 34.7C92.1691 34.42 91.7757 34.05 91.4891 33.59C91.2091 33.1233 91.0691 32.58 91.0691 31.96C91.0691 31.4667 91.1624 31.02 91.3491 30.62C91.5424 30.2133 91.8091 29.87 92.1491 29.59C92.4891 29.3033 92.8924 29.0833 93.3591 28.93C93.8324 28.7767 94.3491 28.7 94.9091 28.7ZM98.0691 39.55C98.0691 39.2967 97.9991 39.0933 97.8591 38.94C97.7191 38.7867 97.5291 38.67 97.2891 38.59C97.0491 38.5033 96.7724 38.44 96.4591 38.4C96.1457 38.36 95.8157 38.3333 95.4691 38.32C95.1224 38.3 94.7691 38.28 94.4091 38.26C94.0491 38.24 93.7057 38.2033 93.3791 38.15C92.9991 38.33 92.6891 38.55 92.4491 38.81C92.2157 39.07 92.0991 39.38 92.0991 39.74C92.0991 39.9667 92.1557 40.1767 92.2691 40.37C92.3891 40.57 92.5691 40.74 92.8091 40.88C93.0491 41.0267 93.3491 41.14 93.7091 41.22C94.0757 41.3067 94.5057 41.35 94.9991 41.35C95.4791 41.35 95.9091 41.3067 96.2891 41.22C96.6691 41.1333 96.9891 41.01 97.2491 40.85C97.5157 40.69 97.7191 40.5 97.8591 40.28C97.9991 40.06 98.0691 39.8167 98.0691 39.55ZM94.9091 34.05C95.2691 34.05 95.5857 34 95.8591 33.9C96.1391 33.8 96.3724 33.66 96.5591 33.48C96.7457 33.3 96.8857 33.0867 96.9791 32.84C97.0724 32.5867 97.1191 32.31 97.1191 32.01C97.1191 31.39 96.9291 30.8967 96.5491 30.53C96.1757 30.1633 95.6291 29.98 94.9091 29.98C94.1957 29.98 93.6491 30.1633 93.2691 30.53C92.8957 30.8967 92.7091 31.39 92.7091 32.01C92.7091 32.31 92.7557 32.5867 92.8491 32.84C92.9491 33.0867 93.0924 33.3 93.2791 33.48C93.4657 33.66 93.6957 33.8 93.9691 33.9C94.2424 34 94.5557 34.05 94.9091 34.05ZM112.518 39.16C111.718 39.16 111.102 38.9367 110.668 38.49C110.242 38.0433 110.028 37.4 110.028 36.56V30.36H108.808C108.702 30.36 108.612 30.33 108.538 30.27C108.465 30.2033 108.428 30.1033 108.428 29.97V29.26L110.088 29.05L110.498 25.92C110.512 25.82 110.555 25.74 110.628 25.68C110.702 25.6133 110.795 25.58 110.908 25.58H111.808V29.07H114.708V30.36H111.808V36.44C111.808 36.8667 111.912 37.1833 112.118 37.39C112.325 37.5967 112.592 37.7 112.918 37.7C113.105 37.7 113.265 37.6767 113.398 37.63C113.538 37.5767 113.658 37.52 113.758 37.46C113.858 37.4 113.942 37.3467 114.008 37.3C114.082 37.2467 114.145 37.22 114.198 37.22C114.292 37.22 114.375 37.2767 114.448 37.39L114.968 38.24C114.662 38.5267 114.292 38.7533 113.858 38.92C113.425 39.08 112.978 39.16 112.518 39.16ZM118.889 28.87V39H117.109V28.87H118.889ZM119.289 25.69C119.289 25.8633 119.253 26.0267 119.179 26.18C119.113 26.3267 119.019 26.46 118.899 26.58C118.786 26.6933 118.653 26.7833 118.499 26.85C118.346 26.9167 118.183 26.95 118.009 26.95C117.836 26.95 117.673 26.9167 117.519 26.85C117.373 26.7833 117.239 26.6933 117.119 26.58C117.006 26.46 116.916 26.3267 116.849 26.18C116.783 26.0267 116.749 25.8633 116.749 25.69C116.749 25.5167 116.783 25.3533 116.849 25.2C116.916 25.04 117.006 24.9033 117.119 24.79C117.239 24.67 117.373 24.5767 117.519 24.51C117.673 24.4433 117.836 24.41 118.009 24.41C118.183 24.41 118.346 24.4433 118.499 24.51C118.653 24.5767 118.786 24.67 118.899 24.79C119.019 24.9033 119.113 25.04 119.179 25.2C119.253 25.3533 119.289 25.5167 119.289 25.69ZM125.096 39.16C124.296 39.16 123.68 38.9367 123.246 38.49C122.82 38.0433 122.606 37.4 122.606 36.56V30.36H121.386C121.28 30.36 121.19 30.33 121.116 30.27C121.043 30.2033 121.006 30.1033 121.006 29.97V29.26L122.666 29.05L123.076 25.92C123.09 25.82 123.133 25.74 123.206 25.68C123.28 25.6133 123.373 25.58 123.486 25.58H124.386V29.07H127.286V30.36H124.386V36.44C124.386 36.8667 124.49 37.1833 124.696 37.39C124.903 37.5967 125.17 37.7 125.496 37.7C125.683 37.7 125.843 37.6767 125.976 37.63C126.116 37.5767 126.236 37.52 126.336 37.46C126.436 37.4 126.52 37.3467 126.586 37.3C126.66 37.2467 126.723 37.22 126.776 37.22C126.87 37.22 126.953 37.2767 127.026 37.39L127.546 38.24C127.24 38.5267 126.87 38.7533 126.436 38.92C126.003 39.08 125.556 39.16 125.096 39.16ZM131.467 24.27V39H129.687V24.27H131.467ZM138.615 28.71C139.221 28.71 139.781 28.8133 140.295 29.02C140.808 29.22 141.251 29.5133 141.625 29.9C141.998 30.28 142.288 30.7533 142.495 31.32C142.708 31.88 142.815 32.52 142.815 33.24C142.815 33.52 142.785 33.7067 142.725 33.8C142.665 33.8933 142.551 33.94 142.385 33.94H135.645C135.658 34.58 135.745 35.1367 135.905 35.61C136.065 36.0833 136.285 36.48 136.565 36.8C136.845 37.1133 137.178 37.35 137.565 37.51C137.951 37.6633 138.385 37.74 138.865 37.74C139.311 37.74 139.695 37.69 140.015 37.59C140.341 37.4833 140.621 37.37 140.855 37.25C141.088 37.13 141.281 37.02 141.435 36.92C141.595 36.8133 141.731 36.76 141.845 36.76C141.991 36.76 142.105 36.8167 142.185 36.93L142.685 37.58C142.465 37.8467 142.201 38.08 141.895 38.28C141.588 38.4733 141.258 38.6333 140.905 38.76C140.558 38.8867 140.198 38.98 139.825 39.04C139.451 39.1067 139.081 39.14 138.715 39.14C138.015 39.14 137.368 39.0233 136.775 38.79C136.188 38.55 135.678 38.2033 135.245 37.75C134.818 37.29 134.485 36.7233 134.245 36.05C134.005 35.3767 133.885 34.6033 133.885 33.73C133.885 33.0233 133.991 32.3633 134.205 31.75C134.425 31.1367 134.738 30.6067 135.145 30.16C135.551 29.7067 136.048 29.3533 136.635 29.1C137.221 28.84 137.881 28.71 138.615 28.71ZM138.655 30.02C137.795 30.02 137.118 30.27 136.625 30.77C136.131 31.2633 135.825 31.95 135.705 32.83H141.215C141.215 32.4167 141.158 32.04 141.045 31.7C140.931 31.3533 140.765 31.0567 140.545 30.81C140.325 30.5567 140.055 30.3633 139.735 30.23C139.421 30.09 139.061 30.02 138.655 30.02Z" fill="black"/>
<path d="M131.112 157.536H132.4C132.539 157.536 132.653 157.571 132.744 157.64C132.835 157.709 132.896 157.797 132.928 157.904L135.296 165.872C135.339 166.016 135.376 166.171 135.408 166.336C135.445 166.501 135.48 166.675 135.512 166.856C135.549 166.675 135.587 166.501 135.624 166.336C135.661 166.165 135.704 166.011 135.752 165.872L138.448 157.904C138.48 157.813 138.541 157.731 138.632 157.656C138.728 157.576 138.843 157.536 138.976 157.536H139.424C139.563 157.536 139.675 157.571 139.76 157.64C139.851 157.709 139.915 157.797 139.952 157.904L142.632 165.872C142.728 166.149 142.813 166.467 142.888 166.824C142.92 166.648 142.949 166.48 142.976 166.32C143.003 166.16 143.037 166.011 143.08 165.872L145.456 157.904C145.483 157.808 145.541 157.723 145.632 157.648C145.728 157.573 145.843 157.536 145.976 157.536H147.184L143.608 169H142.216L139.312 160.256C139.253 160.091 139.2 159.899 139.152 159.68C139.125 159.787 139.099 159.891 139.072 159.992C139.051 160.088 139.027 160.176 139 160.256L136.08 169H134.688L131.112 157.536ZM153.714 169H153.082C152.943 169 152.831 168.979 152.746 168.936C152.66 168.893 152.604 168.803 152.578 168.664L152.418 167.912C152.204 168.104 151.996 168.277 151.794 168.432C151.591 168.581 151.378 168.709 151.154 168.816C150.93 168.917 150.69 168.995 150.434 169.048C150.183 169.101 149.903 169.128 149.594 169.128C149.279 169.128 148.983 169.085 148.706 169C148.434 168.909 148.196 168.776 147.994 168.6C147.791 168.424 147.628 168.203 147.506 167.936C147.388 167.664 147.33 167.344 147.33 166.976C147.33 166.656 147.418 166.349 147.594 166.056C147.77 165.757 148.052 165.493 148.442 165.264C148.836 165.035 149.351 164.848 149.986 164.704C150.62 164.555 151.396 164.469 152.314 164.448V163.816C152.314 163.187 152.178 162.712 151.906 162.392C151.639 162.067 151.242 161.904 150.714 161.904C150.367 161.904 150.074 161.949 149.834 162.04C149.599 162.125 149.394 162.224 149.218 162.336C149.047 162.443 148.898 162.541 148.77 162.632C148.647 162.717 148.524 162.76 148.402 162.76C148.306 162.76 148.22 162.736 148.146 162.688C148.076 162.635 148.02 162.571 147.978 162.496L147.722 162.04C148.17 161.608 148.652 161.285 149.17 161.072C149.687 160.859 150.26 160.752 150.89 160.752C151.343 160.752 151.746 160.827 152.098 160.976C152.45 161.125 152.746 161.333 152.986 161.6C153.226 161.867 153.407 162.189 153.53 162.568C153.652 162.947 153.714 163.363 153.714 163.816V169ZM150.018 168.128C150.268 168.128 150.498 168.104 150.706 168.056C150.914 168.003 151.108 167.931 151.29 167.84C151.476 167.744 151.652 167.629 151.818 167.496C151.988 167.363 152.154 167.211 152.314 167.04V165.352C151.658 165.373 151.1 165.427 150.642 165.512C150.183 165.592 149.81 165.699 149.522 165.832C149.234 165.965 149.023 166.123 148.89 166.304C148.762 166.485 148.698 166.688 148.698 166.912C148.698 167.125 148.732 167.309 148.802 167.464C148.871 167.619 148.964 167.747 149.082 167.848C149.199 167.944 149.338 168.016 149.498 168.064C149.658 168.107 149.831 168.128 150.018 168.128ZM155.871 169V160.896H156.687C156.842 160.896 156.948 160.925 157.007 160.984C157.066 161.043 157.106 161.144 157.127 161.288L157.223 162.552C157.5 161.987 157.842 161.547 158.247 161.232C158.658 160.912 159.138 160.752 159.687 160.752C159.911 160.752 160.114 160.779 160.295 160.832C160.476 160.88 160.644 160.949 160.799 161.04L160.615 162.104C160.578 162.237 160.495 162.304 160.367 162.304C160.292 162.304 160.178 162.28 160.023 162.232C159.868 162.179 159.652 162.152 159.375 162.152C158.879 162.152 158.463 162.296 158.127 162.584C157.796 162.872 157.519 163.291 157.295 163.84V169H155.871ZM162.324 169V160.896H163.172C163.375 160.896 163.503 160.995 163.556 161.192L163.668 162.072C164.02 161.683 164.412 161.368 164.844 161.128C165.282 160.888 165.786 160.768 166.356 160.768C166.799 160.768 167.188 160.843 167.524 160.992C167.866 161.136 168.148 161.344 168.372 161.616C168.602 161.883 168.775 162.205 168.892 162.584C169.01 162.963 169.068 163.381 169.068 163.84V169H167.644V163.84C167.644 163.227 167.503 162.752 167.22 162.416C166.943 162.075 166.516 161.904 165.94 161.904C165.519 161.904 165.124 162.005 164.756 162.208C164.394 162.411 164.058 162.685 163.748 163.032V169H162.324ZM172.799 160.896V169H171.375V160.896H172.799ZM173.119 158.352C173.119 158.491 173.09 158.621 173.031 158.744C172.978 158.861 172.903 158.968 172.807 159.064C172.716 159.155 172.61 159.227 172.487 159.28C172.364 159.333 172.234 159.36 172.095 159.36C171.956 159.36 171.826 159.333 171.703 159.28C171.586 159.227 171.479 159.155 171.383 159.064C171.292 158.968 171.22 158.861 171.167 158.744C171.114 158.621 171.087 158.491 171.087 158.352C171.087 158.213 171.114 158.083 171.167 157.96C171.22 157.832 171.292 157.723 171.383 157.632C171.479 157.536 171.586 157.461 171.703 157.408C171.826 157.355 171.956 157.328 172.095 157.328C172.234 157.328 172.364 157.355 172.487 157.408C172.61 157.461 172.716 157.536 172.807 157.632C172.903 157.723 172.978 157.832 173.031 157.96C173.09 158.083 173.119 158.213 173.119 158.352ZM175.309 169V160.896H176.157C176.359 160.896 176.487 160.995 176.541 161.192L176.653 162.072C177.005 161.683 177.397 161.368 177.829 161.128C178.266 160.888 178.77 160.768 179.341 160.768C179.783 160.768 180.173 160.843 180.509 160.992C180.85 161.136 181.133 161.344 181.357 161.616C181.586 161.883 181.759 162.205 181.877 162.584C181.994 162.963 182.053 163.381 182.053 163.84V169H180.629V163.84C180.629 163.227 180.487 162.752 180.205 162.416C179.927 162.075 179.501 161.904 178.925 161.904C178.503 161.904 178.109 162.005 177.741 162.208C177.378 162.411 177.042 162.685 176.733 163.032V169H175.309ZM186.927 160.76C187.279 160.76 187.607 160.8 187.911 160.88C188.221 160.955 188.501 161.067 188.751 161.216H190.951V161.744C190.951 161.92 190.839 162.032 190.615 162.08L189.695 162.208C189.877 162.555 189.967 162.941 189.967 163.368C189.967 163.763 189.89 164.123 189.735 164.448C189.586 164.768 189.375 165.043 189.103 165.272C188.837 165.501 188.517 165.677 188.143 165.8C187.775 165.923 187.37 165.984 186.927 165.984C186.549 165.984 186.191 165.939 185.855 165.848C185.685 165.955 185.554 166.069 185.463 166.192C185.378 166.315 185.335 166.435 185.335 166.552C185.335 166.744 185.413 166.891 185.567 166.992C185.722 167.088 185.927 167.157 186.183 167.2C186.439 167.243 186.73 167.269 187.055 167.28C187.381 167.291 187.711 167.309 188.047 167.336C188.389 167.357 188.722 167.397 189.047 167.456C189.373 167.515 189.663 167.611 189.919 167.744C190.175 167.877 190.381 168.061 190.535 168.296C190.69 168.531 190.767 168.835 190.767 169.208C190.767 169.555 190.679 169.891 190.503 170.216C190.333 170.541 190.085 170.829 189.759 171.08C189.434 171.336 189.037 171.539 188.567 171.688C188.098 171.843 187.567 171.92 186.975 171.92C186.383 171.92 185.863 171.861 185.415 171.744C184.973 171.627 184.605 171.469 184.311 171.272C184.018 171.075 183.797 170.845 183.647 170.584C183.503 170.328 183.431 170.059 183.431 169.776C183.431 169.376 183.557 169.037 183.807 168.76C184.063 168.477 184.413 168.253 184.855 168.088C184.626 167.981 184.442 167.84 184.303 167.664C184.17 167.483 184.103 167.243 184.103 166.944C184.103 166.827 184.125 166.707 184.167 166.584C184.21 166.456 184.274 166.331 184.359 166.208C184.45 166.085 184.559 165.968 184.687 165.856C184.815 165.744 184.965 165.645 185.135 165.56C184.735 165.336 184.421 165.04 184.191 164.672C183.967 164.299 183.855 163.864 183.855 163.368C183.855 162.973 183.93 162.616 184.079 162.296C184.234 161.971 184.447 161.696 184.719 161.472C184.991 161.243 185.314 161.067 185.687 160.944C186.066 160.821 186.479 160.76 186.927 160.76ZM189.455 169.44C189.455 169.237 189.399 169.075 189.287 168.952C189.175 168.829 189.023 168.736 188.831 168.672C188.639 168.603 188.418 168.552 188.167 168.52C187.917 168.488 187.653 168.467 187.375 168.456C187.098 168.44 186.815 168.424 186.527 168.408C186.239 168.392 185.965 168.363 185.703 168.32C185.399 168.464 185.151 168.64 184.959 168.848C184.773 169.056 184.679 169.304 184.679 169.592C184.679 169.773 184.725 169.941 184.815 170.096C184.911 170.256 185.055 170.392 185.247 170.504C185.439 170.621 185.679 170.712 185.967 170.776C186.261 170.845 186.605 170.88 186.999 170.88C187.383 170.88 187.727 170.845 188.031 170.776C188.335 170.707 188.591 170.608 188.799 170.48C189.013 170.352 189.175 170.2 189.287 170.024C189.399 169.848 189.455 169.653 189.455 169.44ZM186.927 165.04C187.215 165.04 187.469 165 187.687 164.92C187.911 164.84 188.098 164.728 188.247 164.584C188.397 164.44 188.509 164.269 188.583 164.072C188.658 163.869 188.695 163.648 188.695 163.408C188.695 162.912 188.543 162.517 188.239 162.224C187.941 161.931 187.503 161.784 186.927 161.784C186.357 161.784 185.919 161.931 185.615 162.224C185.317 162.517 185.167 162.912 185.167 163.408C185.167 163.648 185.205 163.869 185.279 164.072C185.359 164.269 185.474 164.44 185.623 164.584C185.773 164.728 185.957 164.84 186.175 164.92C186.394 165 186.645 165.04 186.927 165.04ZM195.465 169V160.896H196.313C196.516 160.896 196.644 160.995 196.697 161.192L196.801 162.024C197.1 161.656 197.433 161.355 197.801 161.12C198.174 160.885 198.606 160.768 199.097 160.768C199.646 160.768 200.089 160.92 200.425 161.224C200.766 161.528 201.012 161.939 201.161 162.456C201.273 162.163 201.42 161.909 201.601 161.696C201.788 161.483 201.996 161.307 202.225 161.168C202.454 161.029 202.697 160.928 202.953 160.864C203.214 160.8 203.478 160.768 203.745 160.768C204.172 160.768 204.55 160.837 204.881 160.976C205.217 161.109 205.5 161.307 205.729 161.568C205.964 161.829 206.142 162.152 206.265 162.536C206.388 162.915 206.449 163.349 206.449 163.84V169H205.025V163.84C205.025 163.205 204.886 162.725 204.609 162.4C204.332 162.069 203.929 161.904 203.401 161.904C203.166 161.904 202.942 161.947 202.729 162.032C202.521 162.112 202.337 162.232 202.177 162.392C202.017 162.552 201.889 162.755 201.793 163C201.702 163.24 201.657 163.52 201.657 163.84V169H200.233V163.84C200.233 163.189 200.102 162.704 199.841 162.384C199.58 162.064 199.198 161.904 198.697 161.904C198.345 161.904 198.017 162 197.713 162.192C197.414 162.379 197.14 162.635 196.889 162.96V169H195.465ZM211.814 160.768C212.299 160.768 212.747 160.851 213.158 161.016C213.568 161.176 213.923 161.411 214.222 161.72C214.52 162.024 214.752 162.403 214.918 162.856C215.088 163.304 215.174 163.816 215.174 164.392C215.174 164.616 215.15 164.765 215.102 164.84C215.054 164.915 214.963 164.952 214.83 164.952H209.438C209.448 165.464 209.518 165.909 209.646 166.288C209.774 166.667 209.95 166.984 210.174 167.24C210.398 167.491 210.664 167.68 210.974 167.808C211.283 167.931 211.63 167.992 212.014 167.992C212.371 167.992 212.678 167.952 212.934 167.872C213.195 167.787 213.419 167.696 213.606 167.6C213.792 167.504 213.947 167.416 214.07 167.336C214.198 167.251 214.307 167.208 214.398 167.208C214.515 167.208 214.606 167.253 214.67 167.344L215.07 167.864C214.894 168.077 214.683 168.264 214.438 168.424C214.192 168.579 213.928 168.707 213.646 168.808C213.368 168.909 213.08 168.984 212.782 169.032C212.483 169.085 212.187 169.112 211.894 169.112C211.334 169.112 210.816 169.019 210.342 168.832C209.872 168.64 209.464 168.363 209.118 168C208.776 167.632 208.51 167.179 208.318 166.64C208.126 166.101 208.03 165.483 208.03 164.784C208.03 164.219 208.115 163.691 208.286 163.2C208.462 162.709 208.712 162.285 209.038 161.928C209.363 161.565 209.76 161.283 210.23 161.08C210.699 160.872 211.227 160.768 211.814 160.768ZM211.846 161.816C211.158 161.816 210.616 162.016 210.222 162.416C209.827 162.811 209.582 163.36 209.486 164.064H213.894C213.894 163.733 213.848 163.432 213.758 163.16C213.667 162.883 213.534 162.645 213.358 162.448C213.182 162.245 212.966 162.091 212.71 161.984C212.459 161.872 212.171 161.816 211.846 161.816ZM221.636 162.232C221.572 162.349 221.473 162.408 221.34 162.408C221.26 162.408 221.169 162.379 221.068 162.32C220.967 162.261 220.841 162.197 220.692 162.128C220.548 162.053 220.375 161.987 220.172 161.928C219.969 161.864 219.729 161.832 219.452 161.832C219.212 161.832 218.996 161.864 218.804 161.928C218.612 161.987 218.447 162.069 218.308 162.176C218.175 162.283 218.071 162.408 217.996 162.552C217.927 162.691 217.892 162.843 217.892 163.008C217.892 163.216 217.951 163.389 218.068 163.528C218.191 163.667 218.351 163.787 218.548 163.888C218.745 163.989 218.969 164.08 219.22 164.16C219.471 164.235 219.727 164.317 219.988 164.408C220.255 164.493 220.513 164.589 220.764 164.696C221.015 164.803 221.239 164.936 221.436 165.096C221.633 165.256 221.791 165.453 221.908 165.688C222.031 165.917 222.092 166.195 222.092 166.52C222.092 166.893 222.025 167.24 221.892 167.56C221.759 167.875 221.561 168.149 221.3 168.384C221.039 168.613 220.719 168.795 220.34 168.928C219.961 169.061 219.524 169.128 219.028 169.128C218.463 169.128 217.951 169.037 217.492 168.856C217.033 168.669 216.644 168.432 216.324 168.144L216.66 167.6C216.703 167.531 216.753 167.477 216.812 167.44C216.871 167.403 216.948 167.384 217.044 167.384C217.14 167.384 217.241 167.421 217.348 167.496C217.455 167.571 217.583 167.653 217.732 167.744C217.887 167.835 218.071 167.917 218.284 167.992C218.503 168.067 218.775 168.104 219.1 168.104C219.377 168.104 219.62 168.069 219.828 168C220.036 167.925 220.209 167.827 220.348 167.704C220.487 167.581 220.588 167.44 220.652 167.28C220.721 167.12 220.756 166.949 220.756 166.768C220.756 166.544 220.695 166.36 220.572 166.216C220.455 166.067 220.297 165.941 220.1 165.84C219.903 165.733 219.676 165.643 219.42 165.568C219.169 165.488 218.911 165.405 218.644 165.32C218.383 165.235 218.124 165.139 217.868 165.032C217.617 164.92 217.393 164.781 217.196 164.616C216.999 164.451 216.839 164.248 216.716 164.008C216.599 163.763 216.54 163.467 216.54 163.12C216.54 162.811 216.604 162.515 216.732 162.232C216.86 161.944 217.047 161.693 217.292 161.48C217.537 161.261 217.839 161.088 218.196 160.96C218.553 160.832 218.961 160.768 219.42 160.768C219.953 160.768 220.431 160.853 220.852 161.024C221.279 161.189 221.647 161.419 221.956 161.712L221.636 162.232ZM228.574 162.232C228.51 162.349 228.411 162.408 228.278 162.408C228.198 162.408 228.107 162.379 228.006 162.32C227.904 162.261 227.779 162.197 227.63 162.128C227.486 162.053 227.312 161.987 227.11 161.928C226.907 161.864 226.667 161.832 226.39 161.832C226.15 161.832 225.934 161.864 225.742 161.928C225.55 161.987 225.384 162.069 225.246 162.176C225.112 162.283 225.008 162.408 224.934 162.552C224.864 162.691 224.83 162.843 224.83 163.008C224.83 163.216 224.888 163.389 225.006 163.528C225.128 163.667 225.288 163.787 225.486 163.888C225.683 163.989 225.907 164.08 226.158 164.16C226.408 164.235 226.664 164.317 226.926 164.408C227.192 164.493 227.451 164.589 227.702 164.696C227.952 164.803 228.176 164.936 228.374 165.096C228.571 165.256 228.728 165.453 228.846 165.688C228.968 165.917 229.03 166.195 229.03 166.52C229.03 166.893 228.963 167.24 228.83 167.56C228.696 167.875 228.499 168.149 228.238 168.384C227.976 168.613 227.656 168.795 227.278 168.928C226.899 169.061 226.462 169.128 225.966 169.128C225.4 169.128 224.888 169.037 224.43 168.856C223.971 168.669 223.582 168.432 223.262 168.144L223.598 167.6C223.64 167.531 223.691 167.477 223.75 167.44C223.808 167.403 223.886 167.384 223.982 167.384C224.078 167.384 224.179 167.421 224.286 167.496C224.392 167.571 224.52 167.653 224.67 167.744C224.824 167.835 225.008 167.917 225.222 167.992C225.44 168.067 225.712 168.104 226.038 168.104C226.315 168.104 226.558 168.069 226.766 168C226.974 167.925 227.147 167.827 227.286 167.704C227.424 167.581 227.526 167.44 227.59 167.28C227.659 167.12 227.694 166.949 227.694 166.768C227.694 166.544 227.632 166.36 227.51 166.216C227.392 166.067 227.235 165.941 227.038 165.84C226.84 165.733 226.614 165.643 226.358 165.568C226.107 165.488 225.848 165.405 225.582 165.32C225.32 165.235 225.062 165.139 224.806 165.032C224.555 164.92 224.331 164.781 224.134 164.616C223.936 164.451 223.776 164.248 223.654 164.008C223.536 163.763 223.478 163.467 223.478 163.12C223.478 162.811 223.542 162.515 223.67 162.232C223.798 161.944 223.984 161.693 224.23 161.48C224.475 161.261 224.776 161.088 225.134 160.96C225.491 160.832 225.899 160.768 226.358 160.768C226.891 160.768 227.368 160.853 227.79 161.024C228.216 161.189 228.584 161.419 228.894 161.712L228.574 162.232ZM236.823 169H236.191C236.052 169 235.94 168.979 235.855 168.936C235.77 168.893 235.714 168.803 235.687 168.664L235.527 167.912C235.314 168.104 235.106 168.277 234.903 168.432C234.7 168.581 234.487 168.709 234.263 168.816C234.039 168.917 233.799 168.995 233.543 169.048C233.292 169.101 233.012 169.128 232.703 169.128C232.388 169.128 232.092 169.085 231.815 169C231.543 168.909 231.306 168.776 231.103 168.6C230.9 168.424 230.738 168.203 230.615 167.936C230.498 167.664 230.439 167.344 230.439 166.976C230.439 166.656 230.527 166.349 230.703 166.056C230.879 165.757 231.162 165.493 231.551 165.264C231.946 165.035 232.46 164.848 233.095 164.704C233.73 164.555 234.506 164.469 235.423 164.448V163.816C235.423 163.187 235.287 162.712 235.015 162.392C234.748 162.067 234.351 161.904 233.823 161.904C233.476 161.904 233.183 161.949 232.943 162.04C232.708 162.125 232.503 162.224 232.327 162.336C232.156 162.443 232.007 162.541 231.879 162.632C231.756 162.717 231.634 162.76 231.511 162.76C231.415 162.76 231.33 162.736 231.255 162.688C231.186 162.635 231.13 162.571 231.087 162.496L230.831 162.04C231.279 161.608 231.762 161.285 232.279 161.072C232.796 160.859 233.37 160.752 233.999 160.752C234.452 160.752 234.855 160.827 235.207 160.976C235.559 161.125 235.855 161.333 236.095 161.6C236.335 161.867 236.516 162.189 236.639 162.568C236.762 162.947 236.823 163.363 236.823 163.816V169ZM233.127 168.128C233.378 168.128 233.607 168.104 233.815 168.056C234.023 168.003 234.218 167.931 234.399 167.84C234.586 167.744 234.762 167.629 234.927 167.496C235.098 167.363 235.263 167.211 235.423 167.04V165.352C234.767 165.373 234.21 165.427 233.751 165.512C233.292 165.592 232.919 165.699 232.631 165.832C232.343 165.965 232.132 166.123 231.999 166.304C231.871 166.485 231.807 166.688 231.807 166.912C231.807 167.125 231.842 167.309 231.911 167.464C231.98 167.619 232.074 167.747 232.191 167.848C232.308 167.944 232.447 168.016 232.607 168.064C232.767 168.107 232.94 168.128 233.127 168.128ZM241.709 160.76C242.061 160.76 242.389 160.8 242.693 160.88C243.002 160.955 243.282 161.067 243.533 161.216H245.733V161.744C245.733 161.92 245.621 162.032 245.397 162.08L244.477 162.208C244.658 162.555 244.749 162.941 244.749 163.368C244.749 163.763 244.671 164.123 244.517 164.448C244.367 164.768 244.157 165.043 243.885 165.272C243.618 165.501 243.298 165.677 242.925 165.8C242.557 165.923 242.151 165.984 241.709 165.984C241.33 165.984 240.973 165.939 240.637 165.848C240.466 165.955 240.335 166.069 240.245 166.192C240.159 166.315 240.117 166.435 240.117 166.552C240.117 166.744 240.194 166.891 240.349 166.992C240.503 167.088 240.709 167.157 240.965 167.2C241.221 167.243 241.511 167.269 241.837 167.28C242.162 167.291 242.493 167.309 242.829 167.336C243.17 167.357 243.503 167.397 243.829 167.456C244.154 167.515 244.445 167.611 244.701 167.744C244.957 167.877 245.162 168.061 245.317 168.296C245.471 168.531 245.549 168.835 245.549 169.208C245.549 169.555 245.461 169.891 245.285 170.216C245.114 170.541 244.866 170.829 244.541 171.08C244.215 171.336 243.818 171.539 243.349 171.688C242.879 171.843 242.349 171.92 241.757 171.92C241.165 171.92 240.645 171.861 240.197 171.744C239.754 171.627 239.386 171.469 239.093 171.272C238.799 171.075 238.578 170.845 238.429 170.584C238.285 170.328 238.213 170.059 238.213 169.776C238.213 169.376 238.338 169.037 238.589 168.76C238.845 168.477 239.194 168.253 239.637 168.088C239.407 167.981 239.223 167.84 239.085 167.664C238.951 167.483 238.885 167.243 238.885 166.944C238.885 166.827 238.906 166.707 238.949 166.584C238.991 166.456 239.055 166.331 239.141 166.208C239.231 166.085 239.341 165.968 239.469 165.856C239.597 165.744 239.746 165.645 239.917 165.56C239.517 165.336 239.202 165.04 238.973 164.672C238.749 164.299 238.637 163.864 238.637 163.368C238.637 162.973 238.711 162.616 238.861 162.296C239.015 161.971 239.229 161.696 239.501 161.472C239.773 161.243 240.095 161.067 240.469 160.944C240.847 160.821 241.261 160.76 241.709 160.76ZM244.237 169.44C244.237 169.237 244.181 169.075 244.069 168.952C243.957 168.829 243.805 168.736 243.613 168.672C243.421 168.603 243.199 168.552 242.949 168.52C242.698 168.488 242.434 168.467 242.157 168.456C241.879 168.44 241.597 168.424 241.309 168.408C241.021 168.392 240.746 168.363 240.485 168.32C240.181 168.464 239.933 168.64 239.741 168.848C239.554 169.056 239.461 169.304 239.461 169.592C239.461 169.773 239.506 169.941 239.597 170.096C239.693 170.256 239.837 170.392 240.029 170.504C240.221 170.621 240.461 170.712 240.749 170.776C241.042 170.845 241.386 170.88 241.781 170.88C242.165 170.88 242.509 170.845 242.813 170.776C243.117 170.707 243.373 170.608 243.581 170.48C243.794 170.352 243.957 170.2 244.069 170.024C244.181 169.848 244.237 169.653 244.237 169.44ZM241.709 165.04C241.997 165.04 242.25 165 242.469 164.92C242.693 164.84 242.879 164.728 243.029 164.584C243.178 164.44 243.29 164.269 243.365 164.072C243.439 163.869 243.477 163.648 243.477 163.408C243.477 162.912 243.325 162.517 243.021 162.224C242.722 161.931 242.285 161.784 241.709 161.784C241.138 161.784 240.701 161.931 240.397 162.224C240.098 162.517 239.949 162.912 239.949 163.408C239.949 163.648 239.986 163.869 240.061 164.072C240.141 164.269 240.255 164.44 240.405 164.584C240.554 164.728 240.738 164.84 240.957 164.92C241.175 165 241.426 165.04 241.709 165.04ZM250.36 160.768C250.846 160.768 251.294 160.851 251.704 161.016C252.115 161.176 252.47 161.411 252.768 161.72C253.067 162.024 253.299 162.403 253.464 162.856C253.635 163.304 253.72 163.816 253.72 164.392C253.72 164.616 253.696 164.765 253.648 164.84C253.6 164.915 253.51 164.952 253.376 164.952H247.984C247.995 165.464 248.064 165.909 248.192 166.288C248.32 166.667 248.496 166.984 248.72 167.24C248.944 167.491 249.211 167.68 249.52 167.808C249.83 167.931 250.176 167.992 250.56 167.992C250.918 167.992 251.224 167.952 251.48 167.872C251.742 167.787 251.966 167.696 252.152 167.6C252.339 167.504 252.494 167.416 252.616 167.336C252.744 167.251 252.854 167.208 252.944 167.208C253.062 167.208 253.152 167.253 253.216 167.344L253.616 167.864C253.44 168.077 253.23 168.264 252.984 168.424C252.739 168.579 252.475 168.707 252.192 168.808C251.915 168.909 251.627 168.984 251.328 169.032C251.03 169.085 250.734 169.112 250.44 169.112C249.88 169.112 249.363 169.019 248.888 168.832C248.419 168.64 248.011 168.363 247.664 168C247.323 167.632 247.056 167.179 246.864 166.64C246.672 166.101 246.576 165.483 246.576 164.784C246.576 164.219 246.662 163.691 246.832 163.2C247.008 162.709 247.259 162.285 247.584 161.928C247.91 161.565 248.307 161.283 248.776 161.08C249.246 160.872 249.774 160.768 250.36 160.768ZM250.392 161.816C249.704 161.816 249.163 162.016 248.768 162.416C248.374 162.811 248.128 163.36 248.032 164.064H252.44C252.44 163.733 252.395 163.432 252.304 163.16C252.214 162.883 252.08 162.645 251.904 162.448C251.728 162.245 251.512 162.091 251.256 161.984C251.006 161.872 250.718 161.816 250.392 161.816ZM258.637 171.744V160.896H259.485C259.687 160.896 259.815 160.995 259.869 161.192L259.989 162.152C260.335 161.731 260.73 161.392 261.173 161.136C261.621 160.88 262.135 160.752 262.717 160.752C263.181 160.752 263.602 160.843 263.981 161.024C264.359 161.2 264.682 161.464 264.949 161.816C265.215 162.163 265.421 162.595 265.565 163.112C265.709 163.629 265.781 164.224 265.781 164.896C265.781 165.493 265.701 166.051 265.541 166.568C265.381 167.08 265.151 167.525 264.853 167.904C264.554 168.277 264.186 168.573 263.749 168.792C263.317 169.005 262.829 169.112 262.285 169.112C261.783 169.112 261.354 169.029 260.997 168.864C260.645 168.699 260.333 168.464 260.061 168.16V171.744H258.637ZM262.245 161.904C261.781 161.904 261.373 162.011 261.021 162.224C260.674 162.437 260.354 162.739 260.061 163.128V167.048C260.322 167.4 260.607 167.648 260.917 167.792C261.231 167.936 261.581 168.008 261.965 168.008C262.717 168.008 263.295 167.739 263.701 167.2C264.106 166.661 264.309 165.893 264.309 164.896C264.309 164.368 264.261 163.915 264.165 163.536C264.074 163.157 263.941 162.848 263.765 162.608C263.589 162.363 263.373 162.184 263.117 162.072C262.861 161.96 262.57 161.904 262.245 161.904ZM270.745 160.768C271.337 160.768 271.87 160.867 272.345 161.064C272.825 161.261 273.23 161.541 273.561 161.904C273.897 162.267 274.153 162.707 274.329 163.224C274.51 163.736 274.601 164.309 274.601 164.944C274.601 165.584 274.51 166.16 274.329 166.672C274.153 167.184 273.897 167.621 273.561 167.984C273.23 168.347 272.825 168.627 272.345 168.824C271.87 169.016 271.337 169.112 270.745 169.112C270.153 169.112 269.617 169.016 269.137 168.824C268.662 168.627 268.257 168.347 267.921 167.984C267.585 167.621 267.326 167.184 267.145 166.672C266.964 166.16 266.873 165.584 266.873 164.944C266.873 164.309 266.964 163.736 267.145 163.224C267.326 162.707 267.585 162.267 267.921 161.904C268.257 161.541 268.662 161.261 269.137 161.064C269.617 160.867 270.153 160.768 270.745 160.768ZM270.745 168C271.545 168 272.142 167.733 272.537 167.2C272.932 166.661 273.129 165.912 273.129 164.952C273.129 163.987 272.932 163.235 272.537 162.696C272.142 162.157 271.545 161.888 270.745 161.888C270.34 161.888 269.988 161.957 269.689 162.096C269.39 162.235 269.14 162.435 268.937 162.696C268.74 162.957 268.59 163.28 268.489 163.664C268.393 164.043 268.345 164.472 268.345 164.952C268.345 165.432 268.393 165.861 268.489 166.24C268.59 166.619 268.74 166.939 268.937 167.2C269.14 167.456 269.39 167.653 269.689 167.792C269.988 167.931 270.34 168 270.745 168ZM276.356 171.744V160.896H277.204C277.406 160.896 277.534 160.995 277.588 161.192L277.708 162.152C278.054 161.731 278.449 161.392 278.892 161.136C279.34 160.88 279.854 160.752 280.436 160.752C280.9 160.752 281.321 160.843 281.7 161.024C282.078 161.2 282.401 161.464 282.668 161.816C282.934 162.163 283.14 162.595 283.284 163.112C283.428 163.629 283.5 164.224 283.5 164.896C283.5 165.493 283.42 166.051 283.26 166.568C283.1 167.08 282.87 167.525 282.572 167.904C282.273 168.277 281.905 168.573 281.468 168.792C281.036 169.005 280.548 169.112 280.004 169.112C279.502 169.112 279.073 169.029 278.716 168.864C278.364 168.699 278.052 168.464 277.78 168.16V171.744H276.356ZM279.964 161.904C279.5 161.904 279.092 162.011 278.74 162.224C278.393 162.437 278.073 162.739 277.78 163.128V167.048C278.041 167.4 278.326 167.648 278.636 167.792C278.95 167.936 279.3 168.008 279.684 168.008C280.436 168.008 281.014 167.739 281.42 167.2C281.825 166.661 282.028 165.893 282.028 164.896C282.028 164.368 281.98 163.915 281.884 163.536C281.793 163.157 281.66 162.848 281.484 162.608C281.308 162.363 281.092 162.184 280.836 162.072C280.58 161.96 280.289 161.904 279.964 161.904ZM286.416 160.896V166.064C286.416 166.677 286.557 167.152 286.84 167.488C287.122 167.824 287.549 167.992 288.12 167.992C288.536 167.992 288.928 167.893 289.296 167.696C289.664 167.499 290.002 167.224 290.312 166.872V160.896H291.736V169H290.888C290.685 169 290.557 168.901 290.504 168.704L290.392 167.832C290.04 168.221 289.645 168.536 289.208 168.776C288.77 169.011 288.269 169.128 287.704 169.128C287.261 169.128 286.869 169.056 286.528 168.912C286.192 168.763 285.909 168.555 285.68 168.288C285.45 168.021 285.277 167.699 285.16 167.32C285.048 166.941 284.992 166.523 284.992 166.064V160.896H286.416ZM294.074 171.744V160.896H294.922C295.125 160.896 295.253 160.995 295.306 161.192L295.426 162.152C295.773 161.731 296.168 161.392 296.61 161.136C297.058 160.88 297.573 160.752 298.154 160.752C298.618 160.752 299.04 160.843 299.418 161.024C299.797 161.2 300.12 161.464 300.386 161.816C300.653 162.163 300.858 162.595 301.002 163.112C301.146 163.629 301.218 164.224 301.218 164.896C301.218 165.493 301.138 166.051 300.978 166.568C300.818 167.08 300.589 167.525 300.29 167.904C299.992 168.277 299.624 168.573 299.186 168.792C298.754 169.005 298.266 169.112 297.722 169.112C297.221 169.112 296.792 169.029 296.434 168.864C296.082 168.699 295.77 168.464 295.498 168.16V171.744H294.074ZM297.682 161.904C297.218 161.904 296.81 162.011 296.458 162.224C296.112 162.437 295.792 162.739 295.498 163.128V167.048C295.76 167.4 296.045 167.648 296.354 167.792C296.669 167.936 297.018 168.008 297.402 168.008C298.154 168.008 298.733 167.739 299.138 167.2C299.544 166.661 299.746 165.893 299.746 164.896C299.746 164.368 299.698 163.915 299.602 163.536C299.512 163.157 299.378 162.848 299.202 162.608C299.026 162.363 298.81 162.184 298.554 162.072C298.298 161.96 298.008 161.904 297.682 161.904ZM309.204 160.768C309.689 160.768 310.137 160.851 310.548 161.016C310.959 161.176 311.313 161.411 311.612 161.72C311.911 162.024 312.143 162.403 312.308 162.856C312.479 163.304 312.564 163.816 312.564 164.392C312.564 164.616 312.54 164.765 312.492 164.84C312.444 164.915 312.353 164.952 312.22 164.952H306.828C306.839 165.464 306.908 165.909 307.036 166.288C307.164 166.667 307.34 166.984 307.564 167.24C307.788 167.491 308.055 167.68 308.364 167.808C308.673 167.931 309.02 167.992 309.404 167.992C309.761 167.992 310.068 167.952 310.324 167.872C310.585 167.787 310.809 167.696 310.996 167.6C311.183 167.504 311.337 167.416 311.46 167.336C311.588 167.251 311.697 167.208 311.788 167.208C311.905 167.208 311.996 167.253 312.06 167.344L312.46 167.864C312.284 168.077 312.073 168.264 311.828 168.424C311.583 168.579 311.319 168.707 311.036 168.808C310.759 168.909 310.471 168.984 310.172 169.032C309.873 169.085 309.577 169.112 309.284 169.112C308.724 169.112 308.207 169.019 307.732 168.832C307.263 168.64 306.855 168.363 306.508 168C306.167 167.632 305.9 167.179 305.708 166.64C305.516 166.101 305.42 165.483 305.42 164.784C305.42 164.219 305.505 163.691 305.676 163.2C305.852 162.709 306.103 162.285 306.428 161.928C306.753 161.565 307.151 161.283 307.62 161.08C308.089 160.872 308.617 160.768 309.204 160.768ZM309.236 161.816C308.548 161.816 308.007 162.016 307.612 162.416C307.217 162.811 306.972 163.36 306.876 164.064H311.284C311.284 163.733 311.239 163.432 311.148 163.16C311.057 162.883 310.924 162.645 310.748 162.448C310.572 162.245 310.356 162.091 310.1 161.984C309.849 161.872 309.561 161.816 309.236 161.816ZM315.798 164.848L313.07 160.896H314.438C314.556 160.896 314.641 160.915 314.694 160.952C314.748 160.989 314.796 161.043 314.838 161.112L316.822 164.152C316.87 164.003 316.94 163.853 317.03 163.704L318.774 161.144C318.828 161.069 318.881 161.011 318.934 160.968C318.988 160.92 319.054 160.896 319.134 160.896H320.446L317.718 164.768L320.558 169H319.19C319.073 169 318.98 168.971 318.91 168.912C318.846 168.848 318.793 168.779 318.75 168.704L316.71 165.528C316.673 165.683 316.617 165.821 316.542 165.944L314.654 168.704C314.601 168.779 314.542 168.848 314.478 168.912C314.42 168.971 314.337 169 314.23 169H312.958L315.798 164.848ZM327.917 169H327.285C327.146 169 327.034 168.979 326.949 168.936C326.864 168.893 326.808 168.803 326.781 168.664L326.621 167.912C326.408 168.104 326.2 168.277 325.997 168.432C325.794 168.581 325.581 168.709 325.357 168.816C325.133 168.917 324.893 168.995 324.637 169.048C324.386 169.101 324.106 169.128 323.797 169.128C323.482 169.128 323.186 169.085 322.909 169C322.637 168.909 322.4 168.776 322.197 168.6C321.994 168.424 321.832 168.203 321.709 167.936C321.592 167.664 321.533 167.344 321.533 166.976C321.533 166.656 321.621 166.349 321.797 166.056C321.973 165.757 322.256 165.493 322.645 165.264C323.04 165.035 323.554 164.848 324.189 164.704C324.824 164.555 325.6 164.469 326.517 164.448V163.816C326.517 163.187 326.381 162.712 326.109 162.392C325.842 162.067 325.445 161.904 324.917 161.904C324.57 161.904 324.277 161.949 324.037 162.04C323.802 162.125 323.597 162.224 323.421 162.336C323.25 162.443 323.101 162.541 322.973 162.632C322.85 162.717 322.728 162.76 322.605 162.76C322.509 162.76 322.424 162.736 322.349 162.688C322.28 162.635 322.224 162.571 322.181 162.496L321.925 162.04C322.373 161.608 322.856 161.285 323.373 161.072C323.89 160.859 324.464 160.752 325.093 160.752C325.546 160.752 325.949 160.827 326.301 160.976C326.653 161.125 326.949 161.333 327.189 161.6C327.429 161.867 327.61 162.189 327.733 162.568C327.856 162.947 327.917 163.363 327.917 163.816V169ZM324.221 168.128C324.472 168.128 324.701 168.104 324.909 168.056C325.117 168.003 325.312 167.931 325.493 167.84C325.68 167.744 325.856 167.629 326.021 167.496C326.192 167.363 326.357 167.211 326.517 167.04V165.352C325.861 165.373 325.304 165.427 324.845 165.512C324.386 165.592 324.013 165.699 323.725 165.832C323.437 165.965 323.226 166.123 323.093 166.304C322.965 166.485 322.901 166.688 322.901 166.912C322.901 167.125 322.936 167.309 323.005 167.464C323.074 167.619 323.168 167.747 323.285 167.848C323.402 167.944 323.541 168.016 323.701 168.064C323.861 168.107 324.034 168.128 324.221 168.128ZM330.074 169V160.896H330.922C331.125 160.896 331.253 160.995 331.306 161.192L331.41 162.024C331.709 161.656 332.042 161.355 332.41 161.12C332.784 160.885 333.216 160.768 333.706 160.768C334.256 160.768 334.698 160.92 335.034 161.224C335.376 161.528 335.621 161.939 335.77 162.456C335.882 162.163 336.029 161.909 336.21 161.696C336.397 161.483 336.605 161.307 336.834 161.168C337.064 161.029 337.306 160.928 337.562 160.864C337.824 160.8 338.088 160.768 338.354 160.768C338.781 160.768 339.16 160.837 339.49 160.976C339.826 161.109 340.109 161.307 340.338 161.568C340.573 161.829 340.752 162.152 340.874 162.536C340.997 162.915 341.058 163.349 341.058 163.84V169H339.634V163.84C339.634 163.205 339.496 162.725 339.218 162.4C338.941 162.069 338.538 161.904 338.01 161.904C337.776 161.904 337.552 161.947 337.338 162.032C337.13 162.112 336.946 162.232 336.786 162.392C336.626 162.552 336.498 162.755 336.402 163C336.312 163.24 336.266 163.52 336.266 163.84V169H334.842V163.84C334.842 163.189 334.712 162.704 334.45 162.384C334.189 162.064 333.808 161.904 333.306 161.904C332.954 161.904 332.626 162 332.322 162.192C332.024 162.379 331.749 162.635 331.498 162.96V169H330.074ZM343.215 171.744V160.896H344.063C344.266 160.896 344.394 160.995 344.447 161.192L344.567 162.152C344.914 161.731 345.308 161.392 345.751 161.136C346.199 160.88 346.714 160.752 347.295 160.752C347.759 160.752 348.18 160.843 348.559 161.024C348.938 161.2 349.26 161.464 349.527 161.816C349.794 162.163 349.999 162.595 350.143 163.112C350.287 163.629 350.359 164.224 350.359 164.896C350.359 165.493 350.279 166.051 350.119 166.568C349.959 167.08 349.73 167.525 349.431 167.904C349.132 168.277 348.764 168.573 348.327 168.792C347.895 169.005 347.407 169.112 346.863 169.112C346.362 169.112 345.932 169.029 345.575 168.864C345.223 168.699 344.911 168.464 344.639 168.16V171.744H343.215ZM346.823 161.904C346.359 161.904 345.951 162.011 345.599 162.224C345.252 162.437 344.932 162.739 344.639 163.128V167.048C344.9 167.4 345.186 167.648 345.495 167.792C345.81 167.936 346.159 168.008 346.543 168.008C347.295 168.008 347.874 167.739 348.279 167.2C348.684 166.661 348.887 165.893 348.887 164.896C348.887 164.368 348.839 163.915 348.743 163.536C348.652 163.157 348.519 162.848 348.343 162.608C348.167 162.363 347.951 162.184 347.695 162.072C347.439 161.96 347.148 161.904 346.823 161.904ZM353.627 157.216V169H352.203V157.216H353.627ZM359.345 160.768C359.83 160.768 360.278 160.851 360.689 161.016C361.099 161.176 361.454 161.411 361.753 161.72C362.051 162.024 362.283 162.403 362.449 162.856C362.619 163.304 362.705 163.816 362.705 164.392C362.705 164.616 362.681 164.765 362.633 164.84C362.585 164.915 362.494 164.952 362.361 164.952H356.969C356.979 165.464 357.049 165.909 357.177 166.288C357.305 166.667 357.481 166.984 357.705 167.24C357.929 167.491 358.195 167.68 358.505 167.808C358.814 167.931 359.161 167.992 359.545 167.992C359.902 167.992 360.209 167.952 360.465 167.872C360.726 167.787 360.95 167.696 361.137 167.6C361.323 167.504 361.478 167.416 361.601 167.336C361.729 167.251 361.838 167.208 361.929 167.208C362.046 167.208 362.137 167.253 362.201 167.344L362.601 167.864C362.425 168.077 362.214 168.264 361.969 168.424C361.723 168.579 361.459 168.707 361.177 168.808C360.899 168.909 360.611 168.984 360.313 169.032C360.014 169.085 359.718 169.112 359.425 169.112C358.865 169.112 358.347 169.019 357.873 168.832C357.403 168.64 356.995 168.363 356.649 168C356.307 167.632 356.041 167.179 355.849 166.64C355.657 166.101 355.561 165.483 355.561 164.784C355.561 164.219 355.646 163.691 355.817 163.2C355.993 162.709 356.243 162.285 356.569 161.928C356.894 161.565 357.291 161.283 357.761 161.08C358.23 160.872 358.758 160.768 359.345 160.768ZM359.377 161.816C358.689 161.816 358.147 162.016 357.753 162.416C357.358 162.811 357.113 163.36 357.017 164.064H361.425C361.425 163.733 361.379 163.432 361.289 163.16C361.198 162.883 361.065 162.645 360.889 162.448C360.713 162.245 360.497 162.091 360.241 161.984C359.99 161.872 359.702 161.816 359.377 161.816Z" fill="black"/>
<path fill-rule="evenodd" clip-rule="evenodd" d="M105.99 193.586L68.1517 128.539C67.8193 127.615 66.9554 127 65.9887 127C65.0219 127 64.1578 127.615 63.8254 128.539L25.9874 193.612C24.9188 194.766 24.6939 196.487 25.4289 197.886C26.1638 199.284 27.6944 200.049 29.2308 199.784H102.731C104.279 200.065 105.828 199.3 106.57 197.889C107.312 196.478 107.078 194.741 105.99 193.586ZM66.0474 192.468C64.5904 192.523 63.2464 191.672 62.6509 190.317C62.0554 188.962 62.3278 187.374 63.339 186.305C64.3503 185.236 65.8979 184.899 67.2503 185.453C68.6028 186.008 69.489 187.343 69.49 188.827C69.5214 190.798 67.9831 192.425 66.0474 192.468ZM69.49 174.178C69.5386 175.461 68.8937 176.669 67.8093 177.325C66.7249 177.982 65.3748 177.982 64.2904 177.325C63.2061 176.669 62.5613 175.461 62.6099 174.178V152.206C62.5613 150.922 63.2061 149.715 64.2904 149.058C65.3748 148.402 66.7249 148.402 67.8093 149.058C68.8937 149.715 69.5386 150.922 69.49 152.206V174.178Z" fill="#FFD236"/>
</svg>
