<svg width="440" height="205" viewBox="0 0 440 205" fill="none" xmlns="http://www.w3.org/2000/svg">
<rect x="0.5" y="0.5" width="439" height="204" rx="5.5" fill="white" stroke="#DBDBDB"/>
<line y1="134.5" x2="440" y2="134.5" stroke="#DBDBDB"/>
<rect x="335" y="151" width="85" height="38" rx="19" fill="#0064D1"/>
<path d="M364.324 175H363.124C362.985 175 362.873 174.965 362.788 174.896C362.703 174.827 362.639 174.739 362.596 174.632L361.524 171.864H356.38L355.308 174.632C355.271 174.728 355.207 174.813 355.116 174.888C355.025 174.963 354.913 175 354.78 175H353.58L358.164 163.536H359.74L364.324 175ZM356.812 170.744H361.092L359.292 166.08C359.175 165.792 359.06 165.432 358.948 165C358.889 165.219 358.831 165.421 358.772 165.608C358.719 165.789 358.665 165.949 358.612 166.088L356.812 170.744ZM371.071 168.336C371.028 168.395 370.986 168.44 370.943 168.472C370.9 168.504 370.839 168.52 370.759 168.52C370.679 168.52 370.591 168.488 370.495 168.424C370.404 168.355 370.287 168.28 370.143 168.2C369.999 168.12 369.823 168.048 369.615 167.984C369.412 167.915 369.162 167.88 368.863 167.88C368.468 167.88 368.119 167.952 367.815 168.096C367.511 168.235 367.255 168.437 367.047 168.704C366.844 168.971 366.69 169.293 366.583 169.672C366.482 170.051 366.431 170.475 366.431 170.944C366.431 171.435 366.487 171.872 366.599 172.256C366.711 172.635 366.868 172.955 367.071 173.216C367.274 173.472 367.519 173.669 367.807 173.808C368.1 173.941 368.428 174.008 368.791 174.008C369.138 174.008 369.423 173.968 369.647 173.888C369.871 173.803 370.058 173.709 370.207 173.608C370.356 173.507 370.479 173.416 370.575 173.336C370.671 173.251 370.767 173.208 370.863 173.208C370.986 173.208 371.076 173.253 371.135 173.344L371.535 173.864C371.183 174.296 370.743 174.613 370.215 174.816C369.687 175.013 369.13 175.112 368.543 175.112C368.036 175.112 367.564 175.019 367.127 174.832C366.695 174.645 366.319 174.376 365.999 174.024C365.679 173.667 365.426 173.229 365.239 172.712C365.058 172.195 364.967 171.605 364.967 170.944C364.967 170.341 365.05 169.784 365.215 169.272C365.386 168.76 365.631 168.32 365.951 167.952C366.276 167.579 366.676 167.288 367.151 167.08C367.626 166.872 368.17 166.768 368.783 166.768C369.348 166.768 369.85 166.861 370.287 167.048C370.724 167.229 371.111 167.488 371.447 167.824L371.071 168.336ZM378.54 168.336C378.497 168.395 378.454 168.44 378.412 168.472C378.369 168.504 378.308 168.52 378.228 168.52C378.148 168.52 378.06 168.488 377.964 168.424C377.873 168.355 377.756 168.28 377.612 168.2C377.468 168.12 377.292 168.048 377.084 167.984C376.881 167.915 376.63 167.88 376.332 167.88C375.937 167.88 375.588 167.952 375.284 168.096C374.98 168.235 374.724 168.437 374.516 168.704C374.313 168.971 374.158 169.293 374.052 169.672C373.95 170.051 373.9 170.475 373.9 170.944C373.9 171.435 373.956 171.872 374.068 172.256C374.18 172.635 374.337 172.955 374.54 173.216C374.742 173.472 374.988 173.669 375.276 173.808C375.569 173.941 375.897 174.008 376.26 174.008C376.606 174.008 376.892 173.968 377.116 173.888C377.34 173.803 377.526 173.709 377.676 173.608C377.825 173.507 377.948 173.416 378.044 173.336C378.14 173.251 378.236 173.208 378.332 173.208C378.454 173.208 378.545 173.253 378.604 173.344L379.004 173.864C378.652 174.296 378.212 174.613 377.684 174.816C377.156 175.013 376.598 175.112 376.012 175.112C375.505 175.112 375.033 175.019 374.596 174.832C374.164 174.645 373.788 174.376 373.468 174.024C373.148 173.667 372.894 173.229 372.708 172.712C372.526 172.195 372.436 171.605 372.436 170.944C372.436 170.341 372.518 169.784 372.684 169.272C372.854 168.76 373.1 168.32 373.42 167.952C373.745 167.579 374.145 167.288 374.62 167.08C375.094 166.872 375.638 166.768 376.252 166.768C376.817 166.768 377.318 166.861 377.756 167.048C378.193 167.229 378.58 167.488 378.916 167.824L378.54 168.336ZM383.689 166.768C384.174 166.768 384.622 166.851 385.033 167.016C385.443 167.176 385.798 167.411 386.097 167.72C386.395 168.024 386.627 168.403 386.793 168.856C386.963 169.304 387.049 169.816 387.049 170.392C387.049 170.616 387.025 170.765 386.977 170.84C386.929 170.915 386.838 170.952 386.705 170.952H381.312C381.323 171.464 381.393 171.909 381.521 172.288C381.649 172.667 381.825 172.984 382.049 173.24C382.273 173.491 382.539 173.68 382.849 173.808C383.158 173.931 383.505 173.992 383.889 173.992C384.246 173.992 384.553 173.952 384.809 173.872C385.07 173.787 385.294 173.696 385.481 173.6C385.667 173.504 385.822 173.416 385.945 173.336C386.073 173.251 386.182 173.208 386.273 173.208C386.39 173.208 386.481 173.253 386.545 173.344L386.945 173.864C386.769 174.077 386.558 174.264 386.313 174.424C386.067 174.579 385.803 174.707 385.521 174.808C385.243 174.909 384.955 174.984 384.657 175.032C384.358 175.085 384.062 175.112 383.769 175.112C383.209 175.112 382.691 175.019 382.217 174.832C381.747 174.64 381.339 174.363 380.993 174C380.651 173.632 380.385 173.179 380.193 172.64C380.001 172.101 379.905 171.483 379.905 170.784C379.905 170.219 379.99 169.691 380.161 169.2C380.337 168.709 380.587 168.285 380.913 167.928C381.238 167.565 381.635 167.283 382.105 167.08C382.574 166.872 383.102 166.768 383.689 166.768ZM383.72 167.816C383.033 167.816 382.491 168.016 382.097 168.416C381.702 168.811 381.457 169.36 381.361 170.064H385.769C385.769 169.733 385.723 169.432 385.633 169.16C385.542 168.883 385.409 168.645 385.233 168.448C385.057 168.245 384.841 168.091 384.585 167.984C384.334 167.872 384.046 167.816 383.72 167.816ZM388.871 177.744V166.896H389.719C389.922 166.896 390.05 166.995 390.103 167.192L390.223 168.152C390.57 167.731 390.964 167.392 391.407 167.136C391.855 166.88 392.37 166.752 392.951 166.752C393.415 166.752 393.836 166.843 394.215 167.024C394.594 167.2 394.916 167.464 395.183 167.816C395.45 168.163 395.655 168.595 395.799 169.112C395.943 169.629 396.015 170.224 396.015 170.896C396.015 171.493 395.935 172.051 395.775 172.568C395.615 173.08 395.386 173.525 395.087 173.904C394.788 174.277 394.42 174.573 393.983 174.792C393.551 175.005 393.063 175.112 392.519 175.112C392.018 175.112 391.588 175.029 391.231 174.864C390.879 174.699 390.567 174.464 390.295 174.16V177.744H388.871ZM392.479 167.904C392.015 167.904 391.607 168.011 391.255 168.224C390.908 168.437 390.588 168.739 390.295 169.128V173.048C390.556 173.4 390.842 173.648 391.151 173.792C391.466 173.936 391.815 174.008 392.199 174.008C392.951 174.008 393.53 173.739 393.935 173.2C394.34 172.661 394.543 171.893 394.543 170.896C394.543 170.368 394.495 169.915 394.399 169.536C394.308 169.157 394.175 168.848 393.999 168.608C393.823 168.363 393.607 168.184 393.351 168.072C393.095 167.96 392.804 167.904 392.479 167.904ZM400.155 175.128C399.515 175.128 399.022 174.949 398.675 174.592C398.334 174.235 398.163 173.72 398.163 173.048V168.088H397.187C397.102 168.088 397.03 168.064 396.971 168.016C396.913 167.963 396.883 167.883 396.883 167.776V167.208L398.211 167.04L398.539 164.536C398.55 164.456 398.585 164.392 398.643 164.344C398.702 164.291 398.777 164.264 398.867 164.264H399.587V167.056H401.907V168.088H399.587V172.952C399.587 173.293 399.67 173.547 399.835 173.712C400.001 173.877 400.214 173.96 400.475 173.96C400.625 173.96 400.753 173.941 400.859 173.904C400.971 173.861 401.067 173.816 401.147 173.768C401.227 173.72 401.294 173.677 401.347 173.64C401.406 173.597 401.457 173.576 401.499 173.576C401.574 173.576 401.641 173.621 401.699 173.712L402.115 174.392C401.87 174.621 401.574 174.803 401.227 174.936C400.881 175.064 400.523 175.128 400.155 175.128Z" fill="white"/>
<path d="M278.519 172.632C278.604 172.632 278.682 172.667 278.751 172.736L279.359 173.4C278.89 173.944 278.319 174.368 277.647 174.672C276.98 174.976 276.175 175.128 275.231 175.128C274.404 175.128 273.655 174.987 272.983 174.704C272.311 174.416 271.738 174.016 271.263 173.504C270.788 172.987 270.42 172.368 270.159 171.648C269.898 170.928 269.767 170.136 269.767 169.272C269.767 168.408 269.906 167.616 270.183 166.896C270.466 166.176 270.86 165.557 271.367 165.04C271.874 164.523 272.479 164.123 273.183 163.84C273.892 163.552 274.674 163.408 275.527 163.408C276.37 163.408 277.095 163.539 277.703 163.8C278.316 164.061 278.86 164.416 279.335 164.864L278.831 165.576C278.794 165.629 278.751 165.675 278.703 165.712C278.655 165.744 278.586 165.76 278.495 165.76C278.426 165.76 278.351 165.736 278.271 165.688C278.196 165.635 278.106 165.571 277.999 165.496C277.892 165.421 277.767 165.341 277.623 165.256C277.479 165.171 277.308 165.091 277.111 165.016C276.914 164.941 276.684 164.88 276.423 164.832C276.162 164.779 275.86 164.752 275.519 164.752C274.906 164.752 274.343 164.859 273.831 165.072C273.324 165.28 272.887 165.579 272.519 165.968C272.151 166.357 271.863 166.832 271.655 167.392C271.452 167.952 271.351 168.579 271.351 169.272C271.351 169.987 271.452 170.624 271.655 171.184C271.863 171.744 272.143 172.219 272.495 172.608C272.852 172.992 273.274 173.285 273.759 173.488C274.244 173.691 274.767 173.792 275.327 173.792C275.668 173.792 275.975 173.773 276.247 173.736C276.519 173.693 276.77 173.629 276.999 173.544C277.234 173.459 277.45 173.352 277.647 173.224C277.85 173.091 278.052 172.933 278.255 172.752C278.346 172.672 278.434 172.632 278.519 172.632ZM287.12 175H286.488C286.349 175 286.237 174.979 286.152 174.936C286.067 174.893 286.011 174.803 285.984 174.664L285.824 173.912C285.611 174.104 285.403 174.277 285.2 174.432C284.997 174.581 284.784 174.709 284.56 174.816C284.336 174.917 284.096 174.995 283.84 175.048C283.589 175.101 283.309 175.128 283 175.128C282.685 175.128 282.389 175.085 282.112 175C281.84 174.909 281.603 174.776 281.4 174.6C281.197 174.424 281.035 174.203 280.912 173.936C280.795 173.664 280.736 173.344 280.736 172.976C280.736 172.656 280.824 172.349 281 172.056C281.176 171.757 281.459 171.493 281.848 171.264C282.243 171.035 282.757 170.848 283.392 170.704C284.027 170.555 284.803 170.469 285.72 170.448V169.816C285.72 169.187 285.584 168.712 285.312 168.392C285.045 168.067 284.648 167.904 284.12 167.904C283.773 167.904 283.48 167.949 283.24 168.04C283.005 168.125 282.8 168.224 282.624 168.336C282.453 168.443 282.304 168.541 282.176 168.632C282.053 168.717 281.931 168.76 281.808 168.76C281.712 168.76 281.627 168.736 281.552 168.688C281.483 168.635 281.427 168.571 281.384 168.496L281.128 168.04C281.576 167.608 282.059 167.285 282.576 167.072C283.093 166.859 283.667 166.752 284.296 166.752C284.749 166.752 285.152 166.827 285.504 166.976C285.856 167.125 286.152 167.333 286.392 167.6C286.632 167.867 286.813 168.189 286.936 168.568C287.059 168.947 287.12 169.363 287.12 169.816V175ZM283.424 174.128C283.675 174.128 283.904 174.104 284.112 174.056C284.32 174.003 284.515 173.931 284.696 173.84C284.883 173.744 285.059 173.629 285.224 173.496C285.395 173.363 285.56 173.211 285.72 173.04V171.352C285.064 171.373 284.507 171.427 284.048 171.512C283.589 171.592 283.216 171.699 282.928 171.832C282.64 171.965 282.429 172.123 282.296 172.304C282.168 172.485 282.104 172.688 282.104 172.912C282.104 173.125 282.139 173.309 282.208 173.464C282.277 173.619 282.371 173.747 282.488 173.848C282.605 173.944 282.744 174.016 282.904 174.064C283.064 174.107 283.237 174.128 283.424 174.128ZM289.277 175V166.896H290.125C290.328 166.896 290.456 166.995 290.509 167.192L290.621 168.072C290.973 167.683 291.365 167.368 291.797 167.128C292.235 166.888 292.739 166.768 293.309 166.768C293.752 166.768 294.141 166.843 294.477 166.992C294.819 167.136 295.101 167.344 295.325 167.616C295.555 167.883 295.728 168.205 295.845 168.584C295.963 168.963 296.021 169.381 296.021 169.84V175H294.597V169.84C294.597 169.227 294.456 168.752 294.173 168.416C293.896 168.075 293.469 167.904 292.893 167.904C292.472 167.904 292.077 168.005 291.709 168.208C291.347 168.411 291.011 168.685 290.701 169.032V175H289.277ZM303.696 168.336C303.653 168.395 303.611 168.44 303.568 168.472C303.525 168.504 303.464 168.52 303.384 168.52C303.304 168.52 303.216 168.488 303.12 168.424C303.029 168.355 302.912 168.28 302.768 168.2C302.624 168.12 302.448 168.048 302.24 167.984C302.037 167.915 301.787 167.88 301.488 167.88C301.093 167.88 300.744 167.952 300.44 168.096C300.136 168.235 299.88 168.437 299.672 168.704C299.469 168.971 299.315 169.293 299.208 169.672C299.107 170.051 299.056 170.475 299.056 170.944C299.056 171.435 299.112 171.872 299.224 172.256C299.336 172.635 299.493 172.955 299.696 173.216C299.899 173.472 300.144 173.669 300.432 173.808C300.725 173.941 301.053 174.008 301.416 174.008C301.763 174.008 302.048 173.968 302.272 173.888C302.496 173.803 302.683 173.709 302.832 173.608C302.981 173.507 303.104 173.416 303.2 173.336C303.296 173.251 303.392 173.208 303.488 173.208C303.611 173.208 303.701 173.253 303.76 173.344L304.16 173.864C303.808 174.296 303.368 174.613 302.84 174.816C302.312 175.013 301.755 175.112 301.168 175.112C300.661 175.112 300.189 175.019 299.752 174.832C299.32 174.645 298.944 174.376 298.624 174.024C298.304 173.667 298.051 173.229 297.864 172.712C297.683 172.195 297.592 171.605 297.592 170.944C297.592 170.341 297.675 169.784 297.84 169.272C298.011 168.76 298.256 168.32 298.576 167.952C298.901 167.579 299.301 167.288 299.776 167.08C300.251 166.872 300.795 166.768 301.408 166.768C301.973 166.768 302.475 166.861 302.912 167.048C303.349 167.229 303.736 167.488 304.072 167.824L303.696 168.336ZM308.845 166.768C309.33 166.768 309.778 166.851 310.189 167.016C310.599 167.176 310.954 167.411 311.253 167.72C311.551 168.024 311.783 168.403 311.949 168.856C312.119 169.304 312.205 169.816 312.205 170.392C312.205 170.616 312.181 170.765 312.133 170.84C312.085 170.915 311.994 170.952 311.861 170.952H306.469C306.479 171.464 306.549 171.909 306.677 172.288C306.805 172.667 306.981 172.984 307.205 173.24C307.429 173.491 307.695 173.68 308.005 173.808C308.314 173.931 308.661 173.992 309.045 173.992C309.402 173.992 309.709 173.952 309.965 173.872C310.226 173.787 310.45 173.696 310.637 173.6C310.823 173.504 310.978 173.416 311.101 173.336C311.229 173.251 311.338 173.208 311.429 173.208C311.546 173.208 311.637 173.253 311.701 173.344L312.101 173.864C311.925 174.077 311.714 174.264 311.469 174.424C311.223 174.579 310.959 174.707 310.677 174.808C310.399 174.909 310.111 174.984 309.813 175.032C309.514 175.085 309.218 175.112 308.925 175.112C308.365 175.112 307.847 175.019 307.373 174.832C306.903 174.64 306.495 174.363 306.149 174C305.807 173.632 305.541 173.179 305.349 172.64C305.157 172.101 305.061 171.483 305.061 170.784C305.061 170.219 305.146 169.691 305.317 169.2C305.493 168.709 305.743 168.285 306.069 167.928C306.394 167.565 306.791 167.283 307.261 167.08C307.73 166.872 308.258 166.768 308.845 166.768ZM308.877 167.816C308.189 167.816 307.647 168.016 307.253 168.416C306.858 168.811 306.613 169.36 306.517 170.064H310.925C310.925 169.733 310.879 169.432 310.789 169.16C310.698 168.883 310.565 168.645 310.389 168.448C310.213 168.245 309.997 168.091 309.741 167.984C309.49 167.872 309.202 167.816 308.877 167.816ZM315.611 163.216V175H314.187V163.216H315.611Z" fill="#0064D1"/>
<path d="M38.53 65H37.03C36.8567 65 36.7167 64.9567 36.61 64.87C36.5033 64.7833 36.4233 64.6733 36.37 64.54L35.03 61.08H28.6L27.26 64.54C27.2133 64.66 27.1333 64.7667 27.02 64.86C26.9067 64.9533 26.7667 65 26.6 65H25.1L30.83 50.67H32.8L38.53 65ZM29.14 59.68H34.49L32.24 53.85C32.0933 53.49 31.95 53.04 31.81 52.5C31.7367 52.7733 31.6633 53.0267 31.59 53.26C31.5233 53.4867 31.4567 53.6867 31.39 53.86L29.14 59.68ZM47.1838 65C46.9304 65 46.7704 64.8767 46.7038 64.63L46.5438 63.4C46.1104 63.9267 45.6138 64.35 45.0538 64.67C44.5004 64.9833 43.8638 65.14 43.1438 65.14C42.5638 65.14 42.0371 65.03 41.5638 64.81C41.0904 64.5833 40.6871 64.2533 40.3538 63.82C40.0204 63.3867 39.7638 62.8467 39.5838 62.2C39.4038 61.5533 39.3138 60.81 39.3138 59.97C39.3138 59.2233 39.4138 58.53 39.6138 57.89C39.8138 57.2433 40.1004 56.6833 40.4738 56.21C40.8538 55.7367 41.3138 55.3667 41.8538 55.1C42.3938 54.8267 43.0071 54.69 43.6938 54.69C44.3138 54.69 44.8438 54.7967 45.2838 55.01C45.7238 55.2167 46.1171 55.51 46.4638 55.89V50.27H48.2438V65H47.1838ZM43.7337 63.7C44.3138 63.7 44.8204 63.5667 45.2538 63.3C45.6938 63.0333 46.0971 62.6567 46.4638 62.17V57.27C46.1371 56.83 45.7771 56.5233 45.3838 56.35C44.9971 56.17 44.5671 56.08 44.0938 56.08C43.1471 56.08 42.4204 56.4167 41.9138 57.09C41.4071 57.7633 41.1538 58.7233 41.1538 59.97C41.1538 60.63 41.2104 61.1967 41.3238 61.67C41.4371 62.1367 41.6038 62.5233 41.8238 62.83C42.0438 63.13 42.3138 63.35 42.6338 63.49C42.9538 63.63 43.3204 63.7 43.7337 63.7ZM58.3556 65C58.1023 65 57.9423 64.8767 57.8756 64.63L57.7156 63.4C57.2823 63.9267 56.7856 64.35 56.2256 64.67C55.6723 64.9833 55.0356 65.14 54.3156 65.14C53.7356 65.14 53.209 65.03 52.7356 64.81C52.2623 64.5833 51.859 64.2533 51.5256 63.82C51.1923 63.3867 50.9356 62.8467 50.7556 62.2C50.5756 61.5533 50.4856 60.81 50.4856 59.97C50.4856 59.2233 50.5856 58.53 50.7856 57.89C50.9856 57.2433 51.2723 56.6833 51.6456 56.21C52.0256 55.7367 52.4856 55.3667 53.0256 55.1C53.5656 54.8267 54.179 54.69 54.8656 54.69C55.4856 54.69 56.0156 54.7967 56.4556 55.01C56.8956 55.2167 57.289 55.51 57.6356 55.89V50.27H59.4156V65H58.3556ZM54.9056 63.7C55.4856 63.7 55.9923 63.5667 56.4256 63.3C56.8656 63.0333 57.269 62.6567 57.6356 62.17V57.27C57.309 56.83 56.949 56.5233 56.5556 56.35C56.169 56.17 55.739 56.08 55.2656 56.08C54.319 56.08 53.5923 56.4167 53.0856 57.09C52.579 57.7633 52.3256 58.7233 52.3256 59.97C52.3256 60.63 52.3823 61.1967 52.4956 61.67C52.609 62.1367 52.7756 62.5233 52.9956 62.83C53.2156 63.13 53.4856 63.35 53.8056 63.49C54.1256 63.63 54.4923 63.7 54.9056 63.7ZM69.2347 67.99C69.1747 68.1233 69.098 68.23 69.0047 68.31C68.918 68.39 68.7814 68.43 68.5947 68.43H67.2747L69.1247 64.41L64.9447 54.87H66.4847C66.638 54.87 66.758 54.91 66.8447 54.99C66.9314 55.0633 66.9947 55.1467 67.0347 55.24L69.7447 61.62C69.8047 61.7667 69.8547 61.9133 69.8947 62.06C69.9414 62.2067 69.9814 62.3567 70.0147 62.51C70.0614 62.3567 70.108 62.2067 70.1547 62.06C70.2014 61.9133 70.2547 61.7633 70.3147 61.61L72.9447 55.24C72.9847 55.1333 73.0514 55.0467 73.1447 54.98C73.2447 54.9067 73.3514 54.87 73.4647 54.87H74.8847L69.2347 67.99ZM80.3452 54.71C81.0852 54.71 81.7518 54.8333 82.3452 55.08C82.9452 55.3267 83.4518 55.6767 83.8652 56.13C84.2852 56.5833 84.6052 57.1333 84.8252 57.78C85.0518 58.42 85.1652 59.1367 85.1652 59.93C85.1652 60.73 85.0518 61.45 84.8252 62.09C84.6052 62.73 84.2852 63.2767 83.8652 63.73C83.4518 64.1833 82.9452 64.5333 82.3452 64.78C81.7518 65.02 81.0852 65.14 80.3452 65.14C79.6052 65.14 78.9352 65.02 78.3352 64.78C77.7418 64.5333 77.2352 64.1833 76.8152 63.73C76.3952 63.2767 76.0718 62.73 75.8452 62.09C75.6185 61.45 75.5052 60.73 75.5052 59.93C75.5052 59.1367 75.6185 58.42 75.8452 57.78C76.0718 57.1333 76.3952 56.5833 76.8152 56.13C77.2352 55.6767 77.7418 55.3267 78.3352 55.08C78.9352 54.8333 79.6052 54.71 80.3452 54.71ZM80.3452 63.75C81.3452 63.75 82.0918 63.4167 82.5852 62.75C83.0785 62.0767 83.3252 61.14 83.3252 59.94C83.3252 58.7333 83.0785 57.7933 82.5852 57.12C82.0918 56.4467 81.3452 56.11 80.3452 56.11C79.8385 56.11 79.3985 56.1967 79.0252 56.37C78.6518 56.5433 78.3385 56.7933 78.0852 57.12C77.8385 57.4467 77.6518 57.85 77.5252 58.33C77.4052 58.8033 77.3452 59.34 77.3452 59.94C77.3452 60.54 77.4052 61.0767 77.5252 61.55C77.6518 62.0233 77.8385 62.4233 78.0852 62.75C78.3385 63.07 78.6518 63.3167 79.0252 63.49C79.3985 63.6633 79.8385 63.75 80.3452 63.75ZM88.8984 54.87V61.33C88.8984 62.0967 89.0751 62.69 89.4284 63.11C89.7818 63.53 90.3151 63.74 91.0284 63.74C91.5484 63.74 92.0384 63.6167 92.4984 63.37C92.9584 63.1233 93.3818 62.78 93.7684 62.34V54.87H95.5484V65H94.4884C94.2351 65 94.0751 64.8767 94.0084 64.63L93.8684 63.54C93.4284 64.0267 92.9351 64.42 92.3884 64.72C91.8418 65.0133 91.2151 65.16 90.5084 65.16C89.9551 65.16 89.4651 65.07 89.0384 64.89C88.6184 64.7033 88.2651 64.4433 87.9784 64.11C87.6918 63.7767 87.4751 63.3733 87.3284 62.9C87.1884 62.4267 87.1184 61.9033 87.1184 61.33V54.87H88.8984ZM108.139 56.54C108.059 56.6867 107.936 56.76 107.769 56.76C107.669 56.76 107.556 56.7233 107.429 56.65C107.302 56.5767 107.146 56.4967 106.959 56.41C106.779 56.3167 106.562 56.2333 106.309 56.16C106.056 56.08 105.756 56.04 105.409 56.04C105.109 56.04 104.839 56.08 104.599 56.16C104.359 56.2333 104.152 56.3367 103.979 56.47C103.812 56.6033 103.682 56.76 103.589 56.94C103.502 57.1133 103.459 57.3033 103.459 57.51C103.459 57.77 103.532 57.9867 103.679 58.16C103.832 58.3333 104.032 58.4833 104.279 58.61C104.526 58.7367 104.806 58.85 105.119 58.95C105.432 59.0433 105.752 59.1467 106.079 59.26C106.412 59.3667 106.736 59.4867 107.049 59.62C107.362 59.7533 107.642 59.92 107.889 60.12C108.136 60.32 108.332 60.5667 108.479 60.86C108.632 61.1467 108.709 61.4933 108.709 61.9C108.709 62.3667 108.626 62.8 108.459 63.2C108.292 63.5933 108.046 63.9367 107.719 64.23C107.392 64.5167 106.992 64.7433 106.519 64.91C106.046 65.0767 105.499 65.16 104.879 65.16C104.172 65.16 103.532 65.0467 102.959 64.82C102.386 64.5867 101.899 64.29 101.499 63.93L101.919 63.25C101.972 63.1633 102.036 63.0967 102.109 63.05C102.182 63.0033 102.279 62.98 102.399 62.98C102.519 62.98 102.646 63.0267 102.779 63.12C102.912 63.2133 103.072 63.3167 103.259 63.43C103.452 63.5433 103.682 63.6467 103.949 63.74C104.222 63.8333 104.562 63.88 104.969 63.88C105.316 63.88 105.619 63.8367 105.879 63.75C106.139 63.6567 106.356 63.5333 106.529 63.38C106.702 63.2267 106.829 63.05 106.909 62.85C106.996 62.65 107.039 62.4367 107.039 62.21C107.039 61.93 106.962 61.7 106.809 61.52C106.662 61.3333 106.466 61.1767 106.219 61.05C105.972 60.9167 105.689 60.8033 105.369 60.71C105.056 60.61 104.732 60.5067 104.399 60.4C104.072 60.2933 103.749 60.1733 103.429 60.04C103.116 59.9 102.836 59.7267 102.589 59.52C102.342 59.3133 102.142 59.06 101.989 58.76C101.842 58.4533 101.769 58.0833 101.769 57.65C101.769 57.2633 101.849 56.8933 102.009 56.54C102.169 56.18 102.402 55.8667 102.709 55.6C103.016 55.3267 103.392 55.11 103.839 54.95C104.286 54.79 104.796 54.71 105.369 54.71C106.036 54.71 106.632 54.8167 107.159 55.03C107.692 55.2367 108.152 55.5233 108.539 55.89L108.139 56.54ZM112.551 54.87V61.33C112.551 62.0967 112.727 62.69 113.081 63.11C113.434 63.53 113.967 63.74 114.681 63.74C115.201 63.74 115.691 63.6167 116.151 63.37C116.611 63.1233 117.034 62.78 117.421 62.34V54.87H119.201V65H118.141C117.887 65 117.727 64.8767 117.661 64.63L117.521 63.54C117.081 64.0267 116.587 64.42 116.041 64.72C115.494 65.0133 114.867 65.16 114.161 65.16C113.607 65.16 113.117 65.07 112.691 64.89C112.271 64.7033 111.917 64.4433 111.631 64.11C111.344 63.7767 111.127 63.3733 110.981 62.9C110.841 62.4267 110.771 61.9033 110.771 61.33V54.87H112.551ZM122.124 65V54.87H123.144C123.337 54.87 123.471 54.9067 123.544 54.98C123.617 55.0533 123.667 55.18 123.694 55.36L123.814 56.94C124.161 56.2333 124.587 55.6833 125.094 55.29C125.607 54.89 126.207 54.69 126.894 54.69C127.174 54.69 127.427 54.7233 127.654 54.79C127.881 54.85 128.091 54.9367 128.284 55.05L128.054 56.38C128.007 56.5467 127.904 56.63 127.744 56.63C127.651 56.63 127.507 56.6 127.314 56.54C127.121 56.4733 126.851 56.44 126.504 56.44C125.884 56.44 125.364 56.62 124.944 56.98C124.531 57.34 124.184 57.8633 123.904 58.55V65H122.124ZM134.2 54.71C134.807 54.71 135.367 54.8133 135.88 55.02C136.394 55.22 136.837 55.5133 137.21 55.9C137.584 56.28 137.874 56.7533 138.08 57.32C138.294 57.88 138.4 58.52 138.4 59.24C138.4 59.52 138.37 59.7067 138.31 59.8C138.25 59.8933 138.137 59.94 137.97 59.94H131.23C131.244 60.58 131.33 61.1367 131.49 61.61C131.65 62.0833 131.87 62.48 132.15 62.8C132.43 63.1133 132.764 63.35 133.15 63.51C133.537 63.6633 133.97 63.74 134.45 63.74C134.897 63.74 135.28 63.69 135.6 63.59C135.927 63.4833 136.207 63.37 136.44 63.25C136.674 63.13 136.867 63.02 137.02 62.92C137.18 62.8133 137.317 62.76 137.43 62.76C137.577 62.76 137.69 62.8167 137.77 62.93L138.27 63.58C138.05 63.8467 137.787 64.08 137.48 64.28C137.174 64.4733 136.844 64.6333 136.49 64.76C136.144 64.8867 135.784 64.98 135.41 65.04C135.037 65.1067 134.667 65.14 134.3 65.14C133.6 65.14 132.954 65.0233 132.36 64.79C131.774 64.55 131.264 64.2033 130.83 63.75C130.404 63.29 130.07 62.7233 129.83 62.05C129.59 61.3767 129.47 60.6033 129.47 59.73C129.47 59.0233 129.577 58.3633 129.79 57.75C130.01 57.1367 130.324 56.6067 130.73 56.16C131.137 55.7067 131.634 55.3533 132.22 55.1C132.807 54.84 133.467 54.71 134.2 54.71ZM134.24 56.02C133.38 56.02 132.704 56.27 132.21 56.77C131.717 57.2633 131.41 57.95 131.29 58.83H136.8C136.8 58.4167 136.744 58.04 136.63 57.7C136.517 57.3533 136.35 57.0567 136.13 56.81C135.91 56.5567 135.64 56.3633 135.32 56.23C135.007 56.09 134.647 56.02 134.24 56.02ZM147.516 67.99C147.456 68.1233 147.379 68.23 147.286 68.31C147.199 68.39 147.063 68.43 146.876 68.43H145.556L147.406 64.41L143.226 54.87H144.766C144.919 54.87 145.039 54.91 145.126 54.99C145.213 55.0633 145.276 55.1467 145.316 55.24L148.026 61.62C148.086 61.7667 148.136 61.9133 148.176 62.06C148.223 62.2067 148.263 62.3567 148.296 62.51C148.343 62.3567 148.389 62.2067 148.436 62.06C148.483 61.9133 148.536 61.7633 148.596 61.61L151.226 55.24C151.266 55.1333 151.333 55.0467 151.426 54.98C151.526 54.9067 151.633 54.87 151.746 54.87H153.166L147.516 67.99ZM158.626 54.71C159.366 54.71 160.033 54.8333 160.626 55.08C161.226 55.3267 161.733 55.6767 162.146 56.13C162.566 56.5833 162.886 57.1333 163.106 57.78C163.333 58.42 163.446 59.1367 163.446 59.93C163.446 60.73 163.333 61.45 163.106 62.09C162.886 62.73 162.566 63.2767 162.146 63.73C161.733 64.1833 161.226 64.5333 160.626 64.78C160.033 65.02 159.366 65.14 158.626 65.14C157.886 65.14 157.216 65.02 156.616 64.78C156.023 64.5333 155.516 64.1833 155.096 63.73C154.676 63.2767 154.353 62.73 154.126 62.09C153.9 61.45 153.786 60.73 153.786 59.93C153.786 59.1367 153.9 58.42 154.126 57.78C154.353 57.1333 154.676 56.5833 155.096 56.13C155.516 55.6767 156.023 55.3267 156.616 55.08C157.216 54.8333 157.886 54.71 158.626 54.71ZM158.626 63.75C159.626 63.75 160.373 63.4167 160.866 62.75C161.36 62.0767 161.606 61.14 161.606 59.94C161.606 58.7333 161.36 57.7933 160.866 57.12C160.373 56.4467 159.626 56.11 158.626 56.11C158.12 56.11 157.68 56.1967 157.306 56.37C156.933 56.5433 156.62 56.7933 156.366 57.12C156.12 57.4467 155.933 57.85 155.806 58.33C155.686 58.8033 155.626 59.34 155.626 59.94C155.626 60.54 155.686 61.0767 155.806 61.55C155.933 62.0233 156.12 62.4233 156.366 62.75C156.62 63.07 156.933 63.3167 157.306 63.49C157.68 63.6633 158.12 63.75 158.626 63.75ZM167.18 54.87V61.33C167.18 62.0967 167.356 62.69 167.71 63.11C168.063 63.53 168.596 63.74 169.31 63.74C169.83 63.74 170.32 63.6167 170.78 63.37C171.24 63.1233 171.663 62.78 172.05 62.34V54.87H173.83V65H172.77C172.516 65 172.356 64.8767 172.29 64.63L172.15 63.54C171.71 64.0267 171.216 64.42 170.67 64.72C170.123 65.0133 169.496 65.16 168.79 65.16C168.236 65.16 167.746 65.07 167.32 64.89C166.9 64.7033 166.546 64.4433 166.26 64.11C165.973 63.7767 165.756 63.3733 165.61 62.9C165.47 62.4267 165.4 61.9033 165.4 61.33V54.87H167.18ZM179.3 54.87H180.7C180.847 54.87 180.967 54.9067 181.06 54.98C181.153 55.0533 181.217 55.14 181.25 55.24L183.19 61.76C183.243 62 183.293 62.2333 183.34 62.46C183.387 62.68 183.427 62.9033 183.46 63.13C183.513 62.9033 183.573 62.68 183.64 62.46C183.707 62.2333 183.777 62 183.85 61.76L185.99 55.2C186.023 55.1 186.08 55.0167 186.16 54.95C186.247 54.8833 186.353 54.85 186.48 54.85H187.25C187.383 54.85 187.493 54.8833 187.58 54.95C187.667 55.0167 187.727 55.1 187.76 55.2L189.85 61.76C189.923 61.9933 189.987 62.2233 190.04 62.45C190.1 62.6767 190.157 62.9 190.21 63.12C190.243 62.9 190.287 62.67 190.34 62.43C190.393 62.19 190.45 61.9667 190.51 61.76L192.49 55.24C192.523 55.1333 192.587 55.0467 192.68 54.98C192.773 54.9067 192.883 54.87 193.01 54.87H194.35L191.07 65H189.66C189.487 65 189.367 64.8867 189.3 64.66L187.06 57.79C187.007 57.6367 186.963 57.4833 186.93 57.33C186.897 57.17 186.863 57.0133 186.83 56.86C186.797 57.0133 186.763 57.17 186.73 57.33C186.697 57.49 186.653 57.6467 186.6 57.8L184.33 64.66C184.257 64.8867 184.12 65 183.92 65H182.58L179.3 54.87ZM203.373 65H202.583C202.409 65 202.269 64.9733 202.163 64.92C202.056 64.8667 201.986 64.7533 201.953 64.58L201.753 63.64C201.486 63.88 201.226 64.0967 200.973 64.29C200.719 64.4767 200.453 64.6367 200.173 64.77C199.893 64.8967 199.593 64.9933 199.273 65.06C198.959 65.1267 198.609 65.16 198.223 65.16C197.829 65.16 197.459 65.1067 197.113 65C196.773 64.8867 196.476 64.72 196.223 64.5C195.969 64.28 195.766 64.0033 195.613 63.67C195.466 63.33 195.393 62.93 195.393 62.47C195.393 62.07 195.503 61.6867 195.723 61.32C195.943 60.9467 196.296 60.6167 196.783 60.33C197.276 60.0433 197.919 59.81 198.713 59.63C199.506 59.4433 200.476 59.3367 201.623 59.31V58.52C201.623 57.7333 201.453 57.14 201.113 56.74C200.779 56.3333 200.283 56.13 199.623 56.13C199.189 56.13 198.823 56.1867 198.523 56.3C198.229 56.4067 197.973 56.53 197.753 56.67C197.539 56.8033 197.353 56.9267 197.193 57.04C197.039 57.1467 196.886 57.2 196.733 57.2C196.613 57.2 196.506 57.17 196.413 57.11C196.326 57.0433 196.256 56.9633 196.203 56.87L195.883 56.3C196.443 55.76 197.046 55.3567 197.693 55.09C198.339 54.8233 199.056 54.69 199.843 54.69C200.409 54.69 200.913 54.7833 201.353 54.97C201.793 55.1567 202.163 55.4167 202.463 55.75C202.763 56.0833 202.989 56.4867 203.143 56.96C203.296 57.4333 203.373 57.9533 203.373 58.52V65ZM198.753 63.91C199.066 63.91 199.353 63.88 199.613 63.82C199.873 63.7533 200.116 63.6633 200.343 63.55C200.576 63.43 200.796 63.2867 201.003 63.12C201.216 62.9533 201.423 62.7633 201.623 62.55V60.44C200.803 60.4667 200.106 60.5333 199.533 60.64C198.959 60.74 198.493 60.8733 198.133 61.04C197.773 61.2067 197.509 61.4033 197.343 61.63C197.183 61.8567 197.103 62.11 197.103 62.39C197.103 62.6567 197.146 62.8867 197.233 63.08C197.319 63.2733 197.436 63.4333 197.583 63.56C197.729 63.68 197.903 63.77 198.103 63.83C198.303 63.8833 198.519 63.91 198.753 63.91ZM206.069 65V54.87H207.129C207.383 54.87 207.543 54.9933 207.609 55.24L207.749 56.34C208.189 55.8533 208.679 55.46 209.219 55.16C209.766 54.86 210.396 54.71 211.109 54.71C211.663 54.71 212.149 54.8033 212.569 54.99C212.996 55.17 213.349 55.43 213.629 55.77C213.916 56.1033 214.133 56.5067 214.279 56.98C214.426 57.4533 214.499 57.9767 214.499 58.55V65H212.719V58.55C212.719 57.7833 212.543 57.19 212.189 56.77C211.843 56.3433 211.309 56.13 210.589 56.13C210.063 56.13 209.569 56.2567 209.109 56.51C208.656 56.7633 208.236 57.1067 207.849 57.54V65H206.069ZM220.253 65.16C219.453 65.16 218.836 64.9367 218.403 64.49C217.976 64.0433 217.763 63.4 217.763 62.56V56.36H216.543C216.436 56.36 216.346 56.33 216.273 56.27C216.199 56.2033 216.163 56.1033 216.163 55.97V55.26L217.823 55.05L218.233 51.92C218.246 51.82 218.289 51.74 218.363 51.68C218.436 51.6133 218.529 51.58 218.643 51.58H219.543V55.07H222.443V56.36H219.543V62.44C219.543 62.8667 219.646 63.1833 219.853 63.39C220.059 63.5967 220.326 63.7 220.653 63.7C220.839 63.7 220.999 63.6767 221.133 63.63C221.273 63.5767 221.393 63.52 221.493 63.46C221.593 63.4 221.676 63.3467 221.743 63.3C221.816 63.2467 221.879 63.22 221.933 63.22C222.026 63.22 222.109 63.2767 222.183 63.39L222.703 64.24C222.396 64.5267 222.026 64.7533 221.593 64.92C221.159 65.08 220.713 65.16 220.253 65.16ZM231.581 65.16C230.781 65.16 230.164 64.9367 229.731 64.49C229.304 64.0433 229.091 63.4 229.091 62.56V56.36H227.871C227.764 56.36 227.674 56.33 227.601 56.27C227.527 56.2033 227.491 56.1033 227.491 55.97V55.26L229.151 55.05L229.561 51.92C229.574 51.82 229.617 51.74 229.691 51.68C229.764 51.6133 229.857 51.58 229.971 51.58H230.871V55.07H233.771V56.36H230.871V62.44C230.871 62.8667 230.974 63.1833 231.181 63.39C231.387 63.5967 231.654 63.7 231.981 63.7C232.167 63.7 232.327 63.6767 232.461 63.63C232.601 63.5767 232.721 63.52 232.821 63.46C232.921 63.4 233.004 63.3467 233.071 63.3C233.144 63.2467 233.207 63.22 233.261 63.22C233.354 63.22 233.437 63.2767 233.511 63.39L234.031 64.24C233.724 64.5267 233.354 64.7533 232.921 64.92C232.487 65.08 232.041 65.16 231.581 65.16ZM240.072 54.71C240.812 54.71 241.478 54.8333 242.072 55.08C242.672 55.3267 243.178 55.6767 243.592 56.13C244.012 56.5833 244.332 57.1333 244.552 57.78C244.778 58.42 244.892 59.1367 244.892 59.93C244.892 60.73 244.778 61.45 244.552 62.09C244.332 62.73 244.012 63.2767 243.592 63.73C243.178 64.1833 242.672 64.5333 242.072 64.78C241.478 65.02 240.812 65.14 240.072 65.14C239.332 65.14 238.662 65.02 238.062 64.78C237.468 64.5333 236.962 64.1833 236.542 63.73C236.122 63.2767 235.798 62.73 235.572 62.09C235.345 61.45 235.232 60.73 235.232 59.93C235.232 59.1367 235.345 58.42 235.572 57.78C235.798 57.1333 236.122 56.5833 236.542 56.13C236.962 55.6767 237.468 55.3267 238.062 55.08C238.662 54.8333 239.332 54.71 240.072 54.71ZM240.072 63.75C241.072 63.75 241.818 63.4167 242.312 62.75C242.805 62.0767 243.052 61.14 243.052 59.94C243.052 58.7333 242.805 57.7933 242.312 57.12C241.818 56.4467 241.072 56.11 240.072 56.11C239.565 56.11 239.125 56.1967 238.752 56.37C238.378 56.5433 238.065 56.7933 237.812 57.12C237.565 57.4467 237.378 57.85 237.252 58.33C237.132 58.8033 237.072 59.34 237.072 59.94C237.072 60.54 237.132 61.0767 237.252 61.55C237.378 62.0233 237.565 62.4233 237.812 62.75C238.065 63.07 238.378 63.3167 238.752 63.49C239.125 63.6633 239.565 63.75 240.072 63.75ZM258.392 65H257.602C257.429 65 257.289 64.9733 257.182 64.92C257.076 64.8667 257.006 64.7533 256.972 64.58L256.772 63.64C256.506 63.88 256.246 64.0967 255.992 64.29C255.739 64.4767 255.472 64.6367 255.192 64.77C254.912 64.8967 254.612 64.9933 254.292 65.06C253.979 65.1267 253.629 65.16 253.242 65.16C252.849 65.16 252.479 65.1067 252.132 65C251.792 64.8867 251.496 64.72 251.242 64.5C250.989 64.28 250.786 64.0033 250.632 63.67C250.486 63.33 250.412 62.93 250.412 62.47C250.412 62.07 250.522 61.6867 250.742 61.32C250.962 60.9467 251.316 60.6167 251.802 60.33C252.296 60.0433 252.939 59.81 253.732 59.63C254.526 59.4433 255.496 59.3367 256.642 59.31V58.52C256.642 57.7333 256.472 57.14 256.132 56.74C255.799 56.3333 255.302 56.13 254.642 56.13C254.209 56.13 253.842 56.1867 253.542 56.3C253.249 56.4067 252.992 56.53 252.772 56.67C252.559 56.8033 252.372 56.9267 252.212 57.04C252.059 57.1467 251.906 57.2 251.752 57.2C251.632 57.2 251.526 57.17 251.432 57.11C251.346 57.0433 251.276 56.9633 251.222 56.87L250.902 56.3C251.462 55.76 252.066 55.3567 252.712 55.09C253.359 54.8233 254.076 54.69 254.862 54.69C255.429 54.69 255.932 54.7833 256.372 54.97C256.812 55.1567 257.182 55.4167 257.482 55.75C257.782 56.0833 258.009 56.4867 258.162 56.96C258.316 57.4333 258.392 57.9533 258.392 58.52V65ZM253.772 63.91C254.086 63.91 254.372 63.88 254.632 63.82C254.892 63.7533 255.136 63.6633 255.362 63.55C255.596 63.43 255.816 63.2867 256.022 63.12C256.236 62.9533 256.442 62.7633 256.642 62.55V60.44C255.822 60.4667 255.126 60.5333 254.552 60.64C253.979 60.74 253.512 60.8733 253.152 61.04C252.792 61.2067 252.529 61.4033 252.362 61.63C252.202 61.8567 252.122 62.11 252.122 62.39C252.122 62.6567 252.166 62.8867 252.252 63.08C252.339 63.2733 252.456 63.4333 252.602 63.56C252.749 63.68 252.922 63.77 253.122 63.83C253.322 63.8833 253.539 63.91 253.772 63.91ZM268.219 65C267.966 65 267.806 64.8767 267.739 64.63L267.579 63.4C267.146 63.9267 266.649 64.35 266.089 64.67C265.536 64.9833 264.899 65.14 264.179 65.14C263.599 65.14 263.072 65.03 262.599 64.81C262.126 64.5833 261.722 64.2533 261.389 63.82C261.056 63.3867 260.799 62.8467 260.619 62.2C260.439 61.5533 260.349 60.81 260.349 59.97C260.349 59.2233 260.449 58.53 260.649 57.89C260.849 57.2433 261.136 56.6833 261.509 56.21C261.889 55.7367 262.349 55.3667 262.889 55.1C263.429 54.8267 264.042 54.69 264.729 54.69C265.349 54.69 265.879 54.7967 266.319 55.01C266.759 55.2167 267.152 55.51 267.499 55.89V50.27H269.279V65H268.219ZM264.769 63.7C265.349 63.7 265.856 63.5667 266.289 63.3C266.729 63.0333 267.132 62.6567 267.499 62.17V57.27C267.172 56.83 266.812 56.5233 266.419 56.35C266.032 56.17 265.602 56.08 265.129 56.08C264.182 56.08 263.456 56.4167 262.949 57.09C262.442 57.7633 262.189 58.7233 262.189 59.97C262.189 60.63 262.246 61.1967 262.359 61.67C262.472 62.1367 262.639 62.5233 262.859 62.83C263.079 63.13 263.349 63.35 263.669 63.49C263.989 63.63 264.356 63.7 264.769 63.7ZM279.391 65C279.137 65 278.977 64.8767 278.911 64.63L278.751 63.4C278.317 63.9267 277.821 64.35 277.261 64.67C276.707 64.9833 276.071 65.14 275.351 65.14C274.771 65.14 274.244 65.03 273.771 64.81C273.297 64.5833 272.894 64.2533 272.561 63.82C272.227 63.3867 271.971 62.8467 271.791 62.2C271.611 61.5533 271.521 60.81 271.521 59.97C271.521 59.2233 271.621 58.53 271.821 57.89C272.021 57.2433 272.307 56.6833 272.681 56.21C273.061 55.7367 273.521 55.3667 274.061 55.1C274.601 54.8267 275.214 54.69 275.901 54.69C276.521 54.69 277.051 54.7967 277.491 55.01C277.931 55.2167 278.324 55.51 278.671 55.89V50.27H280.451V65H279.391ZM275.941 63.7C276.521 63.7 277.027 63.5667 277.461 63.3C277.901 63.0333 278.304 62.6567 278.671 62.17V57.27C278.344 56.83 277.984 56.5233 277.591 56.35C277.204 56.17 276.774 56.08 276.301 56.08C275.354 56.08 274.627 56.4167 274.121 57.09C273.614 57.7633 273.361 58.7233 273.361 59.97C273.361 60.63 273.417 61.1967 273.531 61.67C273.644 62.1367 273.811 62.5233 274.031 62.83C274.251 63.13 274.521 63.35 274.841 63.49C275.161 63.63 275.527 63.7 275.941 63.7ZM290.37 65.16C289.57 65.16 288.953 64.9367 288.52 64.49C288.093 64.0433 287.88 63.4 287.88 62.56V56.36H286.66C286.553 56.36 286.463 56.33 286.39 56.27C286.317 56.2033 286.28 56.1033 286.28 55.97V55.26L287.94 55.05L288.35 51.92C288.363 51.82 288.407 51.74 288.48 51.68C288.553 51.6133 288.647 51.58 288.76 51.58H289.66V55.07H292.56V56.36H289.66V62.44C289.66 62.8667 289.763 63.1833 289.97 63.39C290.177 63.5967 290.443 63.7 290.77 63.7C290.957 63.7 291.117 63.6767 291.25 63.63C291.39 63.5767 291.51 63.52 291.61 63.46C291.71 63.4 291.793 63.3467 291.86 63.3C291.933 63.2467 291.997 63.22 292.05 63.22C292.143 63.22 292.227 63.2767 292.3 63.39L292.82 64.24C292.513 64.5267 292.143 64.7533 291.71 64.92C291.277 65.08 290.83 65.16 290.37 65.16ZM294.761 65V50.27H296.541V56.23C296.974 55.77 297.454 55.4033 297.981 55.13C298.507 54.85 299.114 54.71 299.801 54.71C300.354 54.71 300.841 54.8033 301.261 54.99C301.687 55.17 302.041 55.43 302.321 55.77C302.607 56.1033 302.824 56.5067 302.971 56.98C303.117 57.4533 303.191 57.9767 303.191 58.55V65H301.411V58.55C301.411 57.7833 301.234 57.19 300.881 56.77C300.534 56.3433 300.001 56.13 299.281 56.13C298.754 56.13 298.261 56.2567 297.801 56.51C297.347 56.7633 296.927 57.1067 296.541 57.54V65H294.761ZM309.884 54.71C310.491 54.71 311.051 54.8133 311.564 55.02C312.077 55.22 312.521 55.5133 312.894 55.9C313.267 56.28 313.557 56.7533 313.764 57.32C313.977 57.88 314.084 58.52 314.084 59.24C314.084 59.52 314.054 59.7067 313.994 59.8C313.934 59.8933 313.821 59.94 313.654 59.94H306.914C306.927 60.58 307.014 61.1367 307.174 61.61C307.334 62.0833 307.554 62.48 307.834 62.8C308.114 63.1133 308.447 63.35 308.834 63.51C309.221 63.6633 309.654 63.74 310.134 63.74C310.581 63.74 310.964 63.69 311.284 63.59C311.611 63.4833 311.891 63.37 312.124 63.25C312.357 63.13 312.551 63.02 312.704 62.92C312.864 62.8133 313.001 62.76 313.114 62.76C313.261 62.76 313.374 62.8167 313.454 62.93L313.954 63.58C313.734 63.8467 313.471 64.08 313.164 64.28C312.857 64.4733 312.527 64.6333 312.174 64.76C311.827 64.8867 311.467 64.98 311.094 65.04C310.721 65.1067 310.351 65.14 309.984 65.14C309.284 65.14 308.637 65.0233 308.044 64.79C307.457 64.55 306.947 64.2033 306.514 63.75C306.087 63.29 305.754 62.7233 305.514 62.05C305.274 61.3767 305.154 60.6033 305.154 59.73C305.154 59.0233 305.261 58.3633 305.474 57.75C305.694 57.1367 306.007 56.6067 306.414 56.16C306.821 55.7067 307.317 55.3533 307.904 55.1C308.491 54.84 309.151 54.71 309.884 54.71ZM309.924 56.02C309.064 56.02 308.387 56.27 307.894 56.77C307.401 57.2633 307.094 57.95 306.974 58.83H312.484C312.484 58.4167 312.427 58.04 312.314 57.7C312.201 57.3533 312.034 57.0567 311.814 56.81C311.594 56.5567 311.324 56.3633 311.004 56.23C310.691 56.09 310.331 56.02 309.924 56.02ZM33.59 89C33.3367 89 33.1767 88.8767 33.11 88.63L32.95 87.4C32.5167 87.9267 32.02 88.35 31.46 88.67C30.9067 88.9833 30.27 89.14 29.55 89.14C28.97 89.14 28.4433 89.03 27.97 88.81C27.4967 88.5833 27.0933 88.2533 26.76 87.82C26.4267 87.3867 26.17 86.8467 25.99 86.2C25.81 85.5533 25.72 84.81 25.72 83.97C25.72 83.2233 25.82 82.53 26.02 81.89C26.22 81.2433 26.5067 80.6833 26.88 80.21C27.26 79.7367 27.72 79.3667 28.26 79.1C28.8 78.8267 29.4133 78.69 30.1 78.69C30.72 78.69 31.25 78.7967 31.69 79.01C32.13 79.2167 32.5233 79.51 32.87 79.89V74.27H34.65V89H33.59ZM30.14 87.7C30.72 87.7 31.2267 87.5667 31.66 87.3C32.1 87.0333 32.5033 86.6567 32.87 86.17V81.27C32.5433 80.83 32.1833 80.5233 31.79 80.35C31.4033 80.17 30.9733 80.08 30.5 80.08C29.5533 80.08 28.8267 80.4167 28.32 81.09C27.8133 81.7633 27.56 82.7233 27.56 83.97C27.56 84.63 27.6167 85.1967 27.73 85.67C27.8433 86.1367 28.01 86.5233 28.23 86.83C28.45 87.13 28.72 87.35 29.04 87.49C29.36 87.63 29.7267 87.7 30.14 87.7ZM41.6419 78.71C42.2485 78.71 42.8085 78.8133 43.3219 79.02C43.8352 79.22 44.2785 79.5133 44.6519 79.9C45.0252 80.28 45.3152 80.7533 45.5219 81.32C45.7352 81.88 45.8419 82.52 45.8419 83.24C45.8419 83.52 45.8119 83.7067 45.7519 83.8C45.6919 83.8933 45.5785 83.94 45.4119 83.94H38.6719C38.6852 84.58 38.7719 85.1367 38.9319 85.61C39.0919 86.0833 39.3119 86.48 39.5919 86.8C39.8719 87.1133 40.2052 87.35 40.5919 87.51C40.9785 87.6633 41.4119 87.74 41.8919 87.74C42.3385 87.74 42.7219 87.69 43.0419 87.59C43.3685 87.4833 43.6485 87.37 43.8819 87.25C44.1152 87.13 44.3085 87.02 44.4619 86.92C44.6219 86.8133 44.7585 86.76 44.8719 86.76C45.0185 86.76 45.1319 86.8167 45.2119 86.93L45.7119 87.58C45.4919 87.8467 45.2285 88.08 44.9219 88.28C44.6152 88.4733 44.2852 88.6333 43.9319 88.76C43.5852 88.8867 43.2252 88.98 42.8519 89.04C42.4785 89.1067 42.1085 89.14 41.7419 89.14C41.0419 89.14 40.3952 89.0233 39.8019 88.79C39.2152 88.55 38.7052 88.2033 38.2719 87.75C37.8452 87.29 37.5119 86.7233 37.2719 86.05C37.0319 85.3767 36.9119 84.6033 36.9119 83.73C36.9119 83.0233 37.0185 82.3633 37.2319 81.75C37.4519 81.1367 37.7652 80.6067 38.1719 80.16C38.5785 79.7067 39.0752 79.3533 39.6619 79.1C40.2485 78.84 40.9085 78.71 41.6419 78.71ZM41.6819 80.02C40.8219 80.02 40.1452 80.27 39.6519 80.77C39.1585 81.2633 38.8519 81.95 38.7319 82.83H44.2419C44.2419 82.4167 44.1852 82.04 44.0719 81.7C43.9585 81.3533 43.7919 81.0567 43.5719 80.81C43.3519 80.5567 43.0819 80.3633 42.7619 80.23C42.4485 80.09 42.0885 80.02 41.6819 80.02ZM46.5863 78.87H48.0463C48.1863 78.87 48.3029 78.9067 48.3963 78.98C48.4896 79.0533 48.5563 79.14 48.5963 79.24L51.1663 85.76C51.2596 86 51.3329 86.24 51.3863 86.48C51.4396 86.72 51.4896 86.9567 51.5363 87.19C51.5896 86.9567 51.6463 86.72 51.7063 86.48C51.7663 86.24 51.8429 86 51.9363 85.76L54.5363 79.24C54.5763 79.1333 54.6396 79.0467 54.7263 78.98C54.8196 78.9067 54.9329 78.87 55.0663 78.87H56.4562L52.3263 89H50.7163L46.5863 78.87ZM60.0806 78.87V89H58.3006V78.87H60.0806ZM60.4806 75.69C60.4806 75.8633 60.444 76.0267 60.3706 76.18C60.304 76.3267 60.2106 76.46 60.0906 76.58C59.9773 76.6933 59.844 76.7833 59.6906 76.85C59.5373 76.9167 59.374 76.95 59.2006 76.95C59.0273 76.95 58.864 76.9167 58.7106 76.85C58.564 76.7833 58.4306 76.6933 58.3106 76.58C58.1973 76.46 58.1073 76.3267 58.0406 76.18C57.974 76.0267 57.9406 75.8633 57.9406 75.69C57.9406 75.5167 57.974 75.3533 58.0406 75.2C58.1073 75.04 58.1973 74.9033 58.3106 74.79C58.4306 74.67 58.564 74.5767 58.7106 74.51C58.864 74.4433 59.0273 74.41 59.2006 74.41C59.374 74.41 59.5373 74.4433 59.6906 74.51C59.844 74.5767 59.9773 74.67 60.0906 74.79C60.2106 74.9033 60.304 75.04 60.3706 75.2C60.444 75.3533 60.4806 75.5167 60.4806 75.69ZM70.1278 80.67C70.0745 80.7433 70.0211 80.8 69.9678 80.84C69.9145 80.88 69.8378 80.9 69.7378 80.9C69.6378 80.9 69.5278 80.86 69.4078 80.78C69.2945 80.6933 69.1478 80.6 68.9678 80.5C68.7878 80.4 68.5678 80.31 68.3078 80.23C68.0545 80.1433 67.7411 80.1 67.3678 80.1C66.8745 80.1 66.4378 80.19 66.0578 80.37C65.6778 80.5433 65.3578 80.7967 65.0978 81.13C64.8445 81.4633 64.6511 81.8667 64.5178 82.34C64.3911 82.8133 64.3278 83.3433 64.3278 83.93C64.3278 84.5433 64.3978 85.09 64.5378 85.57C64.6778 86.0433 64.8745 86.4433 65.1278 86.77C65.3811 87.09 65.6878 87.3367 66.0478 87.51C66.4145 87.6767 66.8245 87.76 67.2778 87.76C67.7111 87.76 68.0678 87.71 68.3478 87.61C68.6278 87.5033 68.8611 87.3867 69.0478 87.26C69.2345 87.1333 69.3878 87.02 69.5078 86.92C69.6278 86.8133 69.7478 86.76 69.8678 86.76C70.0211 86.76 70.1345 86.8167 70.2078 86.93L70.7078 87.58C70.2678 88.12 69.7178 88.5167 69.0578 88.77C68.3978 89.0167 67.7011 89.14 66.9678 89.14C66.3345 89.14 65.7445 89.0233 65.1978 88.79C64.6578 88.5567 64.1878 88.22 63.7878 87.78C63.3878 87.3333 63.0711 86.7867 62.8378 86.14C62.6111 85.4933 62.4978 84.7567 62.4978 83.93C62.4978 83.1767 62.6011 82.48 62.8078 81.84C63.0211 81.2 63.3278 80.65 63.7278 80.19C64.1345 79.7233 64.6345 79.36 65.2278 79.1C65.8211 78.84 66.5011 78.71 67.2678 78.71C67.9745 78.71 68.6011 78.8267 69.1478 79.06C69.6945 79.2867 70.1778 79.61 70.5978 80.03L70.1278 80.67ZM76.5638 78.71C77.1704 78.71 77.7304 78.8133 78.2438 79.02C78.7571 79.22 79.2004 79.5133 79.5738 79.9C79.9471 80.28 80.2371 80.7533 80.4438 81.32C80.6571 81.88 80.7638 82.52 80.7638 83.24C80.7638 83.52 80.7338 83.7067 80.6738 83.8C80.6138 83.8933 80.5004 83.94 80.3338 83.94H73.5938C73.6071 84.58 73.6938 85.1367 73.8538 85.61C74.0138 86.0833 74.2338 86.48 74.5138 86.8C74.7938 87.1133 75.1271 87.35 75.5138 87.51C75.9004 87.6633 76.3338 87.74 76.8138 87.74C77.2604 87.74 77.6438 87.69 77.9638 87.59C78.2904 87.4833 78.5704 87.37 78.8038 87.25C79.0371 87.13 79.2304 87.02 79.3838 86.92C79.5438 86.8133 79.6804 86.76 79.7938 86.76C79.9404 86.76 80.0538 86.8167 80.1338 86.93L80.6338 87.58C80.4138 87.8467 80.1504 88.08 79.8438 88.28C79.5371 88.4733 79.2071 88.6333 78.8538 88.76C78.5071 88.8867 78.1471 88.98 77.7738 89.04C77.4004 89.1067 77.0304 89.14 76.6638 89.14C75.9638 89.14 75.3171 89.0233 74.7238 88.79C74.1371 88.55 73.6271 88.2033 73.1938 87.75C72.7671 87.29 72.4338 86.7233 72.1938 86.05C71.9538 85.3767 71.8338 84.6033 71.8338 83.73C71.8338 83.0233 71.9404 82.3633 72.1538 81.75C72.3738 81.1367 72.6871 80.6067 73.0938 80.16C73.5004 79.7067 73.9971 79.3533 74.5838 79.1C75.1704 78.84 75.8304 78.71 76.5638 78.71ZM76.6037 80.02C75.7438 80.02 75.0671 80.27 74.5738 80.77C74.0804 81.2633 73.7738 81.95 73.6538 82.83H79.1638C79.1638 82.4167 79.1071 82.04 78.9938 81.7C78.8804 81.3533 78.7138 81.0567 78.4938 80.81C78.2738 80.5567 78.0038 80.3633 77.6838 80.23C77.3704 80.09 77.0104 80.02 76.6037 80.02ZM89.9792 89.16C89.1792 89.16 88.5626 88.9367 88.1292 88.49C87.7026 88.0433 87.4892 87.4 87.4892 86.56V80.36H86.2692C86.1626 80.36 86.0726 80.33 85.9992 80.27C85.9259 80.2033 85.8892 80.1033 85.8892 79.97V79.26L87.5492 79.05L87.9592 75.92C87.9726 75.82 88.0159 75.74 88.0892 75.68C88.1626 75.6133 88.2559 75.58 88.3692 75.58H89.2692V79.07H92.1692V80.36H89.2692V86.44C89.2692 86.8667 89.3726 87.1833 89.5792 87.39C89.7859 87.5967 90.0526 87.7 90.3792 87.7C90.5659 87.7 90.7259 87.6767 90.8592 87.63C90.9992 87.5767 91.1192 87.52 91.2192 87.46C91.3192 87.4 91.4026 87.3467 91.4692 87.3C91.5426 87.2467 91.6059 87.22 91.6592 87.22C91.7526 87.22 91.8359 87.2767 91.9092 87.39L92.4292 88.24C92.1226 88.5267 91.7526 88.7533 91.3192 88.92C90.8859 89.08 90.4392 89.16 89.9792 89.16ZM98.4702 78.71C99.2102 78.71 99.8768 78.8333 100.47 79.08C101.07 79.3267 101.577 79.6767 101.99 80.13C102.41 80.5833 102.73 81.1333 102.95 81.78C103.177 82.42 103.29 83.1367 103.29 83.93C103.29 84.73 103.177 85.45 102.95 86.09C102.73 86.73 102.41 87.2767 101.99 87.73C101.577 88.1833 101.07 88.5333 100.47 88.78C99.8768 89.02 99.2102 89.14 98.4702 89.14C97.7302 89.14 97.0602 89.02 96.4602 88.78C95.8668 88.5333 95.3602 88.1833 94.9402 87.73C94.5202 87.2767 94.1968 86.73 93.9702 86.09C93.7435 85.45 93.6302 84.73 93.6302 83.93C93.6302 83.1367 93.7435 82.42 93.9702 81.78C94.1968 81.1333 94.5202 80.5833 94.9402 80.13C95.3602 79.6767 95.8668 79.3267 96.4602 79.08C97.0602 78.8333 97.7302 78.71 98.4702 78.71ZM98.4702 87.75C99.4702 87.75 100.217 87.4167 100.71 86.75C101.203 86.0767 101.45 85.14 101.45 83.94C101.45 82.7333 101.203 81.7933 100.71 81.12C100.217 80.4467 99.4702 80.11 98.4702 80.11C97.9635 80.11 97.5235 80.1967 97.1502 80.37C96.7768 80.5433 96.4635 80.7933 96.2102 81.12C95.9635 81.4467 95.7768 81.85 95.6502 82.33C95.5302 82.8033 95.4702 83.34 95.4702 83.94C95.4702 84.54 95.5302 85.0767 95.6502 85.55C95.7768 86.0233 95.9635 86.4233 96.2102 86.75C96.4635 87.07 96.7768 87.3167 97.1502 87.49C97.5235 87.6633 97.9635 87.75 98.4702 87.75ZM112.421 89.16C111.621 89.16 111.004 88.9367 110.571 88.49C110.144 88.0433 109.931 87.4 109.931 86.56V80.36H108.711C108.604 80.36 108.514 80.33 108.441 80.27C108.367 80.2033 108.331 80.1033 108.331 79.97V79.26L109.991 79.05L110.401 75.92C110.414 75.82 110.457 75.74 110.531 75.68C110.604 75.6133 110.697 75.58 110.811 75.58H111.711V79.07H114.611V80.36H111.711V86.44C111.711 86.8667 111.814 87.1833 112.021 87.39C112.227 87.5967 112.494 87.7 112.821 87.7C113.007 87.7 113.167 87.6767 113.301 87.63C113.441 87.5767 113.561 87.52 113.661 87.46C113.761 87.4 113.844 87.3467 113.911 87.3C113.984 87.2467 114.047 87.22 114.101 87.22C114.194 87.22 114.277 87.2767 114.351 87.39L114.871 88.24C114.564 88.5267 114.194 88.7533 113.761 88.92C113.327 89.08 112.881 89.16 112.421 89.16ZM116.812 89V74.27H118.592V80.23C119.025 79.77 119.505 79.4033 120.032 79.13C120.558 78.85 121.165 78.71 121.852 78.71C122.405 78.71 122.892 78.8033 123.312 78.99C123.738 79.17 124.092 79.43 124.372 79.77C124.658 80.1033 124.875 80.5067 125.022 80.98C125.168 81.4533 125.242 81.9767 125.242 82.55V89H123.462V82.55C123.462 81.7833 123.285 81.19 122.932 80.77C122.585 80.3433 122.052 80.13 121.332 80.13C120.805 80.13 120.312 80.2567 119.852 80.51C119.398 80.7633 118.978 81.1067 118.592 81.54V89H116.812ZM131.935 78.71C132.542 78.71 133.102 78.8133 133.615 79.02C134.128 79.22 134.572 79.5133 134.945 79.9C135.318 80.28 135.608 80.7533 135.815 81.32C136.028 81.88 136.135 82.52 136.135 83.24C136.135 83.52 136.105 83.7067 136.045 83.8C135.985 83.8933 135.872 83.94 135.705 83.94H128.965C128.978 84.58 129.065 85.1367 129.225 85.61C129.385 86.0833 129.605 86.48 129.885 86.8C130.165 87.1133 130.498 87.35 130.885 87.51C131.272 87.6633 131.705 87.74 132.185 87.74C132.632 87.74 133.015 87.69 133.335 87.59C133.662 87.4833 133.942 87.37 134.175 87.25C134.408 87.13 134.602 87.02 134.755 86.92C134.915 86.8133 135.052 86.76 135.165 86.76C135.312 86.76 135.425 86.8167 135.505 86.93L136.005 87.58C135.785 87.8467 135.522 88.08 135.215 88.28C134.908 88.4733 134.578 88.6333 134.225 88.76C133.878 88.8867 133.518 88.98 133.145 89.04C132.772 89.1067 132.402 89.14 132.035 89.14C131.335 89.14 130.688 89.0233 130.095 88.79C129.508 88.55 128.998 88.2033 128.565 87.75C128.138 87.29 127.805 86.7233 127.565 86.05C127.325 85.3767 127.205 84.6033 127.205 83.73C127.205 83.0233 127.312 82.3633 127.525 81.75C127.745 81.1367 128.058 80.6067 128.465 80.16C128.872 79.7067 129.368 79.3533 129.955 79.1C130.542 78.84 131.202 78.71 131.935 78.71ZM131.975 80.02C131.115 80.02 130.438 80.27 129.945 80.77C129.452 81.2633 129.145 81.95 129.025 82.83H134.535C134.535 82.4167 134.478 82.04 134.365 81.7C134.252 81.3533 134.085 81.0567 133.865 80.81C133.645 80.5567 133.375 80.3633 133.055 80.23C132.742 80.09 132.382 80.02 131.975 80.02ZM148.08 80.54C148 80.6867 147.877 80.76 147.71 80.76C147.61 80.76 147.497 80.7233 147.37 80.65C147.244 80.5767 147.087 80.4967 146.9 80.41C146.72 80.3167 146.504 80.2333 146.25 80.16C145.997 80.08 145.697 80.04 145.35 80.04C145.05 80.04 144.78 80.08 144.54 80.16C144.3 80.2333 144.094 80.3367 143.92 80.47C143.754 80.6033 143.624 80.76 143.53 80.94C143.444 81.1133 143.4 81.3033 143.4 81.51C143.4 81.77 143.474 81.9867 143.62 82.16C143.774 82.3333 143.974 82.4833 144.22 82.61C144.467 82.7367 144.747 82.85 145.06 82.95C145.374 83.0433 145.694 83.1467 146.02 83.26C146.354 83.3667 146.677 83.4867 146.99 83.62C147.304 83.7533 147.584 83.92 147.83 84.12C148.077 84.32 148.274 84.5667 148.42 84.86C148.574 85.1467 148.65 85.4933 148.65 85.9C148.65 86.3667 148.567 86.8 148.4 87.2C148.234 87.5933 147.987 87.9367 147.66 88.23C147.334 88.5167 146.934 88.7433 146.46 88.91C145.987 89.0767 145.44 89.16 144.82 89.16C144.114 89.16 143.474 89.0467 142.9 88.82C142.327 88.5867 141.84 88.29 141.44 87.93L141.86 87.25C141.914 87.1633 141.977 87.0967 142.05 87.05C142.124 87.0033 142.22 86.98 142.34 86.98C142.46 86.98 142.587 87.0267 142.72 87.12C142.854 87.2133 143.014 87.3167 143.2 87.43C143.394 87.5433 143.624 87.6467 143.89 87.74C144.164 87.8333 144.504 87.88 144.91 87.88C145.257 87.88 145.56 87.8367 145.82 87.75C146.08 87.6567 146.297 87.5333 146.47 87.38C146.644 87.2267 146.77 87.05 146.85 86.85C146.937 86.65 146.98 86.4367 146.98 86.21C146.98 85.93 146.904 85.7 146.75 85.52C146.604 85.3333 146.407 85.1767 146.16 85.05C145.914 84.9167 145.63 84.8033 145.31 84.71C144.997 84.61 144.674 84.5067 144.34 84.4C144.014 84.2933 143.69 84.1733 143.37 84.04C143.057 83.9 142.777 83.7267 142.53 83.52C142.284 83.3133 142.084 83.06 141.93 82.76C141.784 82.4533 141.71 82.0833 141.71 81.65C141.71 81.2633 141.79 80.8933 141.95 80.54C142.11 80.18 142.344 79.8667 142.65 79.6C142.957 79.3267 143.334 79.11 143.78 78.95C144.227 78.79 144.737 78.71 145.31 78.71C145.977 78.71 146.574 78.8167 147.1 79.03C147.634 79.2367 148.094 79.5233 148.48 79.89L148.08 80.54ZM153.922 91.99C153.862 92.1233 153.786 92.23 153.692 92.31C153.606 92.39 153.469 92.43 153.282 92.43H151.962L153.812 88.41L149.632 78.87H151.172C151.326 78.87 151.446 78.91 151.532 78.99C151.619 79.0633 151.682 79.1467 151.722 79.24L154.432 85.62C154.492 85.7667 154.542 85.9133 154.582 86.06C154.629 86.2067 154.669 86.3567 154.702 86.51C154.749 86.3567 154.796 86.2067 154.842 86.06C154.889 85.9133 154.942 85.7633 155.002 85.61L157.632 79.24C157.672 79.1333 157.739 79.0467 157.832 78.98C157.932 78.9067 158.039 78.87 158.152 78.87H159.572L153.922 91.99ZM166.987 80.54C166.907 80.6867 166.783 80.76 166.617 80.76C166.517 80.76 166.403 80.7233 166.277 80.65C166.15 80.5767 165.993 80.4967 165.807 80.41C165.627 80.3167 165.41 80.2333 165.157 80.16C164.903 80.08 164.603 80.04 164.257 80.04C163.957 80.04 163.687 80.08 163.447 80.16C163.207 80.2333 163 80.3367 162.827 80.47C162.66 80.6033 162.53 80.76 162.437 80.94C162.35 81.1133 162.307 81.3033 162.307 81.51C162.307 81.77 162.38 81.9867 162.527 82.16C162.68 82.3333 162.88 82.4833 163.127 82.61C163.373 82.7367 163.653 82.85 163.967 82.95C164.28 83.0433 164.6 83.1467 164.927 83.26C165.26 83.3667 165.583 83.4867 165.897 83.62C166.21 83.7533 166.49 83.92 166.737 84.12C166.983 84.32 167.18 84.5667 167.327 84.86C167.48 85.1467 167.557 85.4933 167.557 85.9C167.557 86.3667 167.473 86.8 167.307 87.2C167.14 87.5933 166.893 87.9367 166.567 88.23C166.24 88.5167 165.84 88.7433 165.367 88.91C164.893 89.0767 164.347 89.16 163.727 89.16C163.02 89.16 162.38 89.0467 161.807 88.82C161.233 88.5867 160.747 88.29 160.347 87.93L160.767 87.25C160.82 87.1633 160.883 87.0967 160.957 87.05C161.03 87.0033 161.127 86.98 161.247 86.98C161.367 86.98 161.493 87.0267 161.627 87.12C161.76 87.2133 161.92 87.3167 162.107 87.43C162.3 87.5433 162.53 87.6467 162.797 87.74C163.07 87.8333 163.41 87.88 163.817 87.88C164.163 87.88 164.467 87.8367 164.727 87.75C164.987 87.6567 165.203 87.5333 165.377 87.38C165.55 87.2267 165.677 87.05 165.757 86.85C165.843 86.65 165.887 86.4367 165.887 86.21C165.887 85.93 165.81 85.7 165.657 85.52C165.51 85.3333 165.313 85.1767 165.067 85.05C164.82 84.9167 164.537 84.8033 164.217 84.71C163.903 84.61 163.58 84.5067 163.247 84.4C162.92 84.2933 162.597 84.1733 162.277 84.04C161.963 83.9 161.683 83.7267 161.437 83.52C161.19 83.3133 160.99 83.06 160.837 82.76C160.69 82.4533 160.617 82.0833 160.617 81.65C160.617 81.2633 160.697 80.8933 160.857 80.54C161.017 80.18 161.25 79.8667 161.557 79.6C161.863 79.3267 162.24 79.11 162.687 78.95C163.133 78.79 163.643 78.71 164.217 78.71C164.883 78.71 165.48 78.8167 166.007 79.03C166.54 79.2367 167 79.5233 167.387 79.89L166.987 80.54ZM172.928 89.16C172.128 89.16 171.512 88.9367 171.078 88.49C170.652 88.0433 170.438 87.4 170.438 86.56V80.36H169.218C169.112 80.36 169.022 80.33 168.948 80.27C168.875 80.2033 168.838 80.1033 168.838 79.97V79.26L170.498 79.05L170.908 75.92C170.922 75.82 170.965 75.74 171.038 75.68C171.112 75.6133 171.205 75.58 171.318 75.58H172.218V79.07H175.118V80.36H172.218V86.44C172.218 86.8667 172.322 87.1833 172.528 87.39C172.735 87.5967 173.002 87.7 173.328 87.7C173.515 87.7 173.675 87.6767 173.808 87.63C173.948 87.5767 174.068 87.52 174.168 87.46C174.268 87.4 174.352 87.3467 174.418 87.3C174.492 87.2467 174.555 87.22 174.608 87.22C174.702 87.22 174.785 87.2767 174.858 87.39L175.378 88.24C175.072 88.5267 174.702 88.7533 174.268 88.92C173.835 89.08 173.388 89.16 172.928 89.16ZM181.329 78.71C181.936 78.71 182.496 78.8133 183.009 79.02C183.523 79.22 183.966 79.5133 184.339 79.9C184.713 80.28 185.003 80.7533 185.209 81.32C185.423 81.88 185.529 82.52 185.529 83.24C185.529 83.52 185.499 83.7067 185.439 83.8C185.379 83.8933 185.266 83.94 185.099 83.94H178.359C178.373 84.58 178.459 85.1367 178.619 85.61C178.779 86.0833 178.999 86.48 179.279 86.8C179.559 87.1133 179.893 87.35 180.279 87.51C180.666 87.6633 181.099 87.74 181.579 87.74C182.026 87.74 182.409 87.69 182.729 87.59C183.056 87.4833 183.336 87.37 183.569 87.25C183.803 87.13 183.996 87.02 184.149 86.92C184.309 86.8133 184.446 86.76 184.559 86.76C184.706 86.76 184.819 86.8167 184.899 86.93L185.399 87.58C185.179 87.8467 184.916 88.08 184.609 88.28C184.303 88.4733 183.973 88.6333 183.619 88.76C183.273 88.8867 182.913 88.98 182.539 89.04C182.166 89.1067 181.796 89.14 181.429 89.14C180.729 89.14 180.083 89.0233 179.489 88.79C178.903 88.55 178.393 88.2033 177.959 87.75C177.533 87.29 177.199 86.7233 176.959 86.05C176.719 85.3767 176.599 84.6033 176.599 83.73C176.599 83.0233 176.706 82.3633 176.919 81.75C177.139 81.1367 177.453 80.6067 177.859 80.16C178.266 79.7067 178.763 79.3533 179.349 79.1C179.936 78.84 180.596 78.71 181.329 78.71ZM181.369 80.02C180.509 80.02 179.833 80.27 179.339 80.77C178.846 81.2633 178.539 81.95 178.419 82.83H183.929C183.929 82.4167 183.873 82.04 183.759 81.7C183.646 81.3533 183.479 81.0567 183.259 80.81C183.039 80.5567 182.769 80.3633 182.449 80.23C182.136 80.09 181.776 80.02 181.369 80.02ZM187.808 89V78.87H188.868C189.121 78.87 189.281 78.9933 189.348 79.24L189.478 80.28C189.851 79.82 190.268 79.4433 190.728 79.15C191.194 78.8567 191.734 78.71 192.348 78.71C193.034 78.71 193.588 78.9 194.008 79.28C194.434 79.66 194.741 80.1733 194.928 80.82C195.068 80.4533 195.251 80.1367 195.478 79.87C195.711 79.6033 195.971 79.3833 196.258 79.21C196.544 79.0367 196.848 78.91 197.168 78.83C197.494 78.75 197.824 78.71 198.158 78.71C198.691 78.71 199.164 78.7967 199.578 78.97C199.998 79.1367 200.351 79.3833 200.638 79.71C200.931 80.0367 201.154 80.44 201.308 80.92C201.461 81.3933 201.538 81.9367 201.538 82.55V89H199.758V82.55C199.758 81.7567 199.584 81.1567 199.238 80.75C198.891 80.3367 198.388 80.13 197.728 80.13C197.434 80.13 197.154 80.1833 196.888 80.29C196.628 80.39 196.398 80.54 196.198 80.74C195.998 80.94 195.838 81.1933 195.718 81.5C195.604 81.8 195.548 82.15 195.548 82.55V89H193.768V82.55C193.768 81.7367 193.604 81.13 193.278 80.73C192.951 80.33 192.474 80.13 191.848 80.13C191.408 80.13 190.998 80.25 190.618 80.49C190.244 80.7233 189.901 81.0433 189.588 81.45V89H187.808ZM203.113 75.95C203.32 75.7567 203.547 75.5733 203.793 75.4C204.047 75.2267 204.32 75.0733 204.613 74.94C204.913 74.8067 205.233 74.7033 205.573 74.63C205.92 74.55 206.293 74.51 206.693 74.51C207.22 74.51 207.707 74.5867 208.153 74.74C208.607 74.8933 208.997 75.11 209.323 75.39C209.65 75.67 209.907 76.01 210.093 76.41C210.28 76.81 210.373 77.26 210.373 77.76C210.373 78.2667 210.297 78.7033 210.143 79.07C209.997 79.4367 209.807 79.76 209.573 80.04C209.347 80.3133 209.097 80.5533 208.823 80.76C208.55 80.96 208.293 81.15 208.053 81.33C207.82 81.51 207.617 81.69 207.443 81.87C207.277 82.05 207.18 82.25 207.153 82.47L206.973 84H205.753L205.633 82.34V82.23C205.633 81.95 205.707 81.7033 205.853 81.49C206.007 81.27 206.197 81.0667 206.423 80.88C206.657 80.6867 206.903 80.4967 207.163 80.31C207.43 80.1167 207.677 79.9067 207.903 79.68C208.137 79.4467 208.327 79.1833 208.473 78.89C208.627 78.5967 208.703 78.25 208.703 77.85C208.703 77.5633 208.647 77.3033 208.533 77.07C208.42 76.8367 208.267 76.64 208.073 76.48C207.88 76.3133 207.65 76.1867 207.383 76.1C207.123 76.0133 206.843 75.97 206.543 75.97C206.137 75.97 205.787 76.02 205.493 76.12C205.207 76.22 204.963 76.33 204.763 76.45C204.563 76.57 204.4 76.68 204.273 76.78C204.153 76.88 204.053 76.93 203.973 76.93C203.807 76.93 203.677 76.8533 203.583 76.7L203.113 75.95ZM205.073 87.9C205.073 87.7267 205.103 87.5633 205.163 87.41C205.23 87.2567 205.317 87.1233 205.423 87.01C205.537 86.8967 205.67 86.8067 205.823 86.74C205.977 86.6733 206.14 86.64 206.313 86.64C206.487 86.64 206.65 86.6733 206.803 86.74C206.957 86.8067 207.09 86.8967 207.203 87.01C207.317 87.1233 207.403 87.2567 207.463 87.41C207.53 87.5633 207.563 87.7267 207.563 87.9C207.563 88.08 207.53 88.2467 207.463 88.4C207.403 88.5467 207.317 88.6767 207.203 88.79C207.09 88.9033 206.957 88.99 206.803 89.05C206.65 89.1167 206.487 89.15 206.313 89.15C206.14 89.15 205.977 89.1167 205.823 89.05C205.67 88.99 205.537 88.9033 205.423 88.79C205.317 88.6767 205.23 88.5467 205.163 88.4C205.103 88.2467 205.073 88.08 205.073 87.9Z" fill="black"/>
</svg>
