<svg width="679" height="493" viewBox="0 0 679 493" fill="none" xmlns="http://www.w3.org/2000/svg">
<rect x="0.5" y="-0.5" width="678" height="448" rx="5.5" transform="matrix(1 0 0 -1 0 448)" fill="white" stroke="#DBDBDB"/>
<path d="M1 7C1 3.68629 3.68629 1 7 1H672C675.314 1 678 3.68629 678 7V65H1V7Z" fill="#F8F8F8"/>
<line y1="377.5" x2="679" y2="377.5" stroke="#DBDBDB"/>
<rect x="573" y="394" width="89" height="38" rx="19" fill="#0064D1"/>
<path d="M594.908 418V406.536H598.564C599.268 406.536 599.873 406.605 600.38 406.744C600.892 406.883 601.31 407.08 601.636 407.336C601.966 407.592 602.209 407.907 602.364 408.28C602.524 408.648 602.604 409.064 602.604 409.528C602.604 409.811 602.558 410.083 602.468 410.344C602.382 410.605 602.249 410.848 602.068 411.072C601.892 411.296 601.668 411.496 601.396 411.672C601.129 411.848 600.814 411.992 600.452 412.104C601.289 412.269 601.921 412.571 602.348 413.008C602.774 413.445 602.988 414.021 602.988 414.736C602.988 415.221 602.897 415.664 602.716 416.064C602.54 416.464 602.278 416.808 601.932 417.096C601.59 417.384 601.169 417.608 600.668 417.768C600.172 417.923 599.604 418 598.964 418H594.908ZM596.46 412.776V416.768H598.94C599.382 416.768 599.761 416.717 600.076 416.616C600.396 416.515 600.657 416.373 600.86 416.192C601.068 416.005 601.22 415.787 601.316 415.536C601.412 415.28 601.46 415 601.46 414.696C601.46 414.104 601.249 413.637 600.828 413.296C600.412 412.949 599.78 412.776 598.932 412.776H596.46ZM596.46 411.672H598.508C598.945 411.672 599.324 411.624 599.644 411.528C599.964 411.432 600.228 411.299 600.436 411.128C600.649 410.957 600.806 410.752 600.908 410.512C601.009 410.267 601.06 410 601.06 409.712C601.06 409.04 600.857 408.547 600.452 408.232C600.046 407.917 599.417 407.76 598.564 407.76H596.46V411.672ZM606.275 409.896V415.064C606.275 415.677 606.416 416.152 606.699 416.488C606.982 416.824 607.408 416.992 607.979 416.992C608.395 416.992 608.787 416.893 609.155 416.696C609.523 416.499 609.862 416.224 610.171 415.872V409.896H611.595V418H610.747C610.544 418 610.416 417.901 610.363 417.704L610.251 416.832C609.899 417.221 609.504 417.536 609.067 417.776C608.63 418.011 608.128 418.128 607.563 418.128C607.12 418.128 606.728 418.056 606.387 417.912C606.051 417.763 605.768 417.555 605.539 417.288C605.31 417.021 605.136 416.699 605.019 416.32C604.907 415.941 604.851 415.523 604.851 415.064V409.896H606.275ZM616.39 418.128C615.75 418.128 615.256 417.949 614.91 417.592C614.568 417.235 614.398 416.72 614.398 416.048V411.088H613.422C613.336 411.088 613.264 411.064 613.206 411.016C613.147 410.963 613.118 410.883 613.118 410.776V410.208L614.446 410.04L614.774 407.536C614.784 407.456 614.819 407.392 614.878 407.344C614.936 407.291 615.011 407.264 615.102 407.264H615.822V410.056H618.142V411.088H615.822V415.952C615.822 416.293 615.904 416.547 616.07 416.712C616.235 416.877 616.448 416.96 616.71 416.96C616.859 416.96 616.987 416.941 617.094 416.904C617.206 416.861 617.302 416.816 617.382 416.768C617.462 416.72 617.528 416.677 617.582 416.64C617.64 416.597 617.691 416.576 617.734 416.576C617.808 416.576 617.875 416.621 617.934 416.712L618.35 417.392C618.104 417.621 617.808 417.803 617.462 417.936C617.115 418.064 616.758 418.128 616.39 418.128ZM622.358 418.128C621.718 418.128 621.225 417.949 620.878 417.592C620.537 417.235 620.366 416.72 620.366 416.048V411.088H619.39C619.305 411.088 619.233 411.064 619.174 411.016C619.116 410.963 619.086 410.883 619.086 410.776V410.208L620.414 410.04L620.742 407.536C620.753 407.456 620.788 407.392 620.846 407.344C620.905 407.291 620.98 407.264 621.07 407.264H621.79V410.056H624.11V411.088H621.79V415.952C621.79 416.293 621.873 416.547 622.038 416.712C622.204 416.877 622.417 416.96 622.678 416.96C622.828 416.96 622.956 416.941 623.062 416.904C623.174 416.861 623.27 416.816 623.35 416.768C623.43 416.72 623.497 416.677 623.55 416.64C623.609 416.597 623.66 416.576 623.702 416.576C623.777 416.576 623.844 416.621 623.902 416.712L624.318 417.392C624.073 417.621 623.777 417.803 623.43 417.936C623.084 418.064 622.726 418.128 622.358 418.128ZM629.151 409.768C629.743 409.768 630.276 409.867 630.751 410.064C631.231 410.261 631.636 410.541 631.967 410.904C632.303 411.267 632.559 411.707 632.735 412.224C632.916 412.736 633.007 413.309 633.007 413.944C633.007 414.584 632.916 415.16 632.735 415.672C632.559 416.184 632.303 416.621 631.967 416.984C631.636 417.347 631.231 417.627 630.751 417.824C630.276 418.016 629.743 418.112 629.151 418.112C628.559 418.112 628.023 418.016 627.543 417.824C627.068 417.627 626.663 417.347 626.327 416.984C625.991 416.621 625.732 416.184 625.551 415.672C625.37 415.16 625.279 414.584 625.279 413.944C625.279 413.309 625.37 412.736 625.551 412.224C625.732 411.707 625.991 411.267 626.327 410.904C626.663 410.541 627.068 410.261 627.543 410.064C628.023 409.867 628.559 409.768 629.151 409.768ZM629.151 417C629.951 417 630.548 416.733 630.943 416.2C631.338 415.661 631.535 414.912 631.535 413.952C631.535 412.987 631.338 412.235 630.943 411.696C630.548 411.157 629.951 410.888 629.151 410.888C628.746 410.888 628.394 410.957 628.095 411.096C627.796 411.235 627.546 411.435 627.343 411.696C627.146 411.957 626.996 412.28 626.895 412.664C626.799 413.043 626.751 413.472 626.751 413.952C626.751 414.432 626.799 414.861 626.895 415.24C626.996 415.619 627.146 415.939 627.343 416.2C627.546 416.456 627.796 416.653 628.095 416.792C628.394 416.931 628.746 417 629.151 417ZM634.762 418V409.896H635.61C635.812 409.896 635.94 409.995 635.994 410.192L636.106 411.072C636.458 410.683 636.85 410.368 637.282 410.128C637.719 409.888 638.223 409.768 638.794 409.768C639.236 409.768 639.626 409.843 639.962 409.992C640.303 410.136 640.586 410.344 640.81 410.616C641.039 410.883 641.212 411.205 641.33 411.584C641.447 411.963 641.506 412.381 641.506 412.84V418H640.082V412.84C640.082 412.227 639.94 411.752 639.658 411.416C639.38 411.075 638.954 410.904 638.378 410.904C637.956 410.904 637.562 411.005 637.194 411.208C636.831 411.411 636.495 411.685 636.186 412.032V418H634.762Z" fill="white"/>
<rect x="678" y="405" width="16" height="16" transform="rotate(90 678 405)" fill="#B587FF"/>
<rect x="17" y="405" width="16" height="16" transform="rotate(90 17 405)" fill="#B587FF"/>
<rect x="17" y="23" width="16" height="16" transform="rotate(90 17 23)" fill="#B587FF"/>
<rect x="678" y="23" width="16" height="16" transform="rotate(90 678 23)" fill="#B587FF"/>
<rect x="662" y="1" width="16" height="16" transform="rotate(90 662 1)" fill="#B587FF"/>
<rect x="662" y="49" width="16" height="16" transform="rotate(90 662 49)" fill="#B587FF"/>
<rect x="662" y="432" width="16" height="16" transform="rotate(90 662 432)" fill="#B587FF"/>
<rect x="662" y="378" width="16" height="16" transform="rotate(90 662 378)" fill="#B587FF"/>
<rect x="33" y="1" width="16" height="16" transform="rotate(90 33 1)" fill="#B587FF"/>
<rect x="33" y="49" width="16" height="16" transform="rotate(90 33 49)" fill="#B587FF"/>
<rect x="33" y="432" width="16" height="16" transform="rotate(90 33 432)" fill="#B587FF"/>
<rect x="33" y="378" width="16" height="16" transform="rotate(90 33 378)" fill="#B587FF"/>
<rect x="25" y="197" width="24" height="24" transform="rotate(90 25 197)" fill="#FB3F3F" fill-opacity="0.6"/>
<rect x="678" y="197" width="24" height="24" transform="rotate(90 678 197)" fill="#FB3F3F" fill-opacity="0.6"/>
<rect x="447" y="65" width="24" height="24" transform="rotate(90 447 65)" fill="#FB3F3F" fill-opacity="0.6"/>
<rect x="447" y="353" width="24" height="24" transform="rotate(90 447 353)" fill="#FB3F3F" fill-opacity="0.6"/>
<rect x="25.5" y="89.5" width="628" height="263" stroke="#DBDBDB"/>
<path d="M28.5 24.67V26.3H23.87V39H21.93V26.3H17.28V24.67H28.5ZM32.2369 28.87V39H30.4569V28.87H32.2369ZM32.6369 25.69C32.6369 25.8633 32.6002 26.0267 32.5269 26.18C32.4602 26.3267 32.3669 26.46 32.2469 26.58C32.1335 26.6933 32.0002 26.7833 31.8469 26.85C31.6935 26.9167 31.5302 26.95 31.3569 26.95C31.1835 26.95 31.0202 26.9167 30.8669 26.85C30.7202 26.7833 30.5869 26.6933 30.4669 26.58C30.3535 26.46 30.2635 26.3267 30.1969 26.18C30.1302 26.0267 30.0969 25.8633 30.0969 25.69C30.0969 25.5167 30.1302 25.3533 30.1969 25.2C30.2635 25.04 30.3535 24.9033 30.4669 24.79C30.5869 24.67 30.7202 24.5767 30.8669 24.51C31.0202 24.4433 31.1835 24.41 31.3569 24.41C31.5302 24.41 31.6935 24.4433 31.8469 24.51C32.0002 24.5767 32.1335 24.67 32.2469 24.79C32.3669 24.9033 32.4602 25.04 32.5269 25.2C32.6002 25.3533 32.6369 25.5167 32.6369 25.69ZM38.4441 39.16C37.6441 39.16 37.0274 38.9367 36.5941 38.49C36.1674 38.0433 35.9541 37.4 35.9541 36.56V30.36H34.7341C34.6274 30.36 34.5374 30.33 34.4641 30.27C34.3907 30.2033 34.3541 30.1033 34.3541 29.97V29.26L36.0141 29.05L36.4241 25.92C36.4374 25.82 36.4807 25.74 36.5541 25.68C36.6274 25.6133 36.7207 25.58 36.8341 25.58H37.7341V29.07H40.6341V30.36H37.7341V36.44C37.7341 36.8667 37.8374 37.1833 38.0441 37.39C38.2507 37.5967 38.5174 37.7 38.8441 37.7C39.0307 37.7 39.1907 37.6767 39.3241 37.63C39.4641 37.5767 39.5841 37.52 39.6841 37.46C39.7841 37.4 39.8674 37.3467 39.9341 37.3C40.0074 37.2467 40.0707 37.22 40.1241 37.22C40.2174 37.22 40.3007 37.2767 40.3741 37.39L40.8941 38.24C40.5874 38.5267 40.2174 38.7533 39.7841 38.92C39.3507 39.08 38.9041 39.16 38.4441 39.16ZM44.815 24.27V39H43.035V24.27H44.815ZM51.9622 28.71C52.5689 28.71 53.1289 28.8133 53.6422 29.02C54.1555 29.22 54.5989 29.5133 54.9722 29.9C55.3455 30.28 55.6355 30.7533 55.8422 31.32C56.0555 31.88 56.1622 32.52 56.1622 33.24C56.1622 33.52 56.1322 33.7067 56.0722 33.8C56.0122 33.8933 55.8989 33.94 55.7322 33.94H48.9922C49.0055 34.58 49.0922 35.1367 49.2522 35.61C49.4122 36.0833 49.6322 36.48 49.9122 36.8C50.1922 37.1133 50.5255 37.35 50.9122 37.51C51.2989 37.6633 51.7322 37.74 52.2122 37.74C52.6589 37.74 53.0422 37.69 53.3622 37.59C53.6889 37.4833 53.9689 37.37 54.2022 37.25C54.4355 37.13 54.6289 37.02 54.7822 36.92C54.9422 36.8133 55.0789 36.76 55.1922 36.76C55.3389 36.76 55.4522 36.8167 55.5322 36.93L56.0322 37.58C55.8122 37.8467 55.5489 38.08 55.2422 38.28C54.9355 38.4733 54.6055 38.6333 54.2522 38.76C53.9055 38.8867 53.5455 38.98 53.1722 39.04C52.7989 39.1067 52.4289 39.14 52.0622 39.14C51.3622 39.14 50.7155 39.0233 50.1222 38.79C49.5355 38.55 49.0255 38.2033 48.5922 37.75C48.1655 37.29 47.8322 36.7233 47.5922 36.05C47.3522 35.3767 47.2322 34.6033 47.2322 33.73C47.2322 33.0233 47.3389 32.3633 47.5522 31.75C47.7722 31.1367 48.0855 30.6067 48.4922 30.16C48.8989 29.7067 49.3955 29.3533 49.9822 29.1C50.5689 28.84 51.2289 28.71 51.9622 28.71ZM52.0022 30.02C51.1422 30.02 50.4655 30.27 49.9722 30.77C49.4789 31.2633 49.1722 31.95 49.0522 32.83H54.5622C54.5622 32.4167 54.5055 32.04 54.3922 31.7C54.2789 31.3533 54.1122 31.0567 53.8922 30.81C53.6722 30.5567 53.4022 30.3633 53.0822 30.23C52.7689 30.09 52.4089 30.02 52.0022 30.02Z" fill="black"/>
<rect x="375" y="469" width="24" height="24" transform="rotate(90 375 469)" fill="#FB3F3F" fill-opacity="0.6"/>
<rect x="274" y="473" width="16" height="16" transform="rotate(90 274 473)" fill="#B587FF"/>
<path d="M391.824 476.408C392.309 476.408 392.762 476.48 393.184 476.624C393.605 476.768 393.968 476.979 394.272 477.256C394.581 477.528 394.824 477.861 395 478.256C395.176 478.651 395.264 479.099 395.264 479.6C395.264 480.027 395.2 480.421 395.072 480.784C394.944 481.147 394.77 481.496 394.552 481.832C394.333 482.163 394.08 482.485 393.792 482.8C393.509 483.109 393.208 483.427 392.888 483.752L389.872 486.84C390.085 486.781 390.301 486.736 390.52 486.704C390.738 486.667 390.949 486.648 391.152 486.648H394.992C395.146 486.648 395.269 486.693 395.36 486.784C395.45 486.875 395.496 486.992 395.496 487.136V488H387.848V487.512C387.848 487.411 387.866 487.307 387.904 487.2C387.946 487.093 388.013 486.995 388.104 486.904L391.776 483.216C392.08 482.907 392.357 482.611 392.608 482.328C392.858 482.04 393.072 481.752 393.248 481.464C393.429 481.176 393.568 480.885 393.664 480.592C393.76 480.293 393.808 479.976 393.808 479.64C393.808 479.304 393.754 479.011 393.648 478.76C393.541 478.504 393.394 478.293 393.208 478.128C393.021 477.963 392.802 477.84 392.552 477.76C392.301 477.675 392.032 477.632 391.744 477.632C391.456 477.632 391.189 477.675 390.944 477.76C390.698 477.845 390.48 477.965 390.288 478.12C390.101 478.269 389.941 478.448 389.808 478.656C389.68 478.864 389.589 479.093 389.536 479.344C389.493 479.499 389.429 479.611 389.344 479.68C389.258 479.749 389.146 479.784 389.008 479.784C388.981 479.784 388.952 479.784 388.92 479.784C388.893 479.779 388.861 479.773 388.824 479.768L388.08 479.64C388.154 479.117 388.298 478.656 388.512 478.256C388.725 477.851 388.994 477.512 389.32 477.24C389.65 476.968 390.026 476.763 390.448 476.624C390.874 476.48 391.333 476.408 391.824 476.408ZM403.521 483.864H405.257V484.68C405.257 484.765 405.23 484.837 405.177 484.896C405.129 484.955 405.052 484.984 404.945 484.984H403.521V488H402.265V484.984H397.185C397.078 484.984 396.985 484.955 396.905 484.896C396.83 484.832 396.782 484.755 396.761 484.664L396.617 483.936L402.193 476.536H403.521V483.864ZM402.265 479.136C402.265 478.997 402.268 478.848 402.273 478.688C402.284 478.528 402.302 478.363 402.329 478.192L398.161 483.864H402.265V479.136ZM406.746 490.744V479.896H407.594C407.797 479.896 407.925 479.995 407.978 480.192L408.098 481.152C408.445 480.731 408.839 480.392 409.282 480.136C409.73 479.88 410.245 479.752 410.826 479.752C411.29 479.752 411.711 479.843 412.09 480.024C412.469 480.2 412.791 480.464 413.058 480.816C413.325 481.163 413.53 481.595 413.674 482.112C413.818 482.629 413.89 483.224 413.89 483.896C413.89 484.493 413.81 485.051 413.65 485.568C413.49 486.08 413.261 486.525 412.962 486.904C412.663 487.277 412.295 487.573 411.858 487.792C411.426 488.005 410.938 488.112 410.394 488.112C409.893 488.112 409.463 488.029 409.106 487.864C408.754 487.699 408.442 487.464 408.17 487.16V490.744H406.746ZM410.354 480.904C409.89 480.904 409.482 481.011 409.13 481.224C408.783 481.437 408.463 481.739 408.17 482.128V486.048C408.431 486.4 408.717 486.648 409.026 486.792C409.341 486.936 409.69 487.008 410.074 487.008C410.826 487.008 411.405 486.739 411.81 486.2C412.215 485.661 412.418 484.893 412.418 483.896C412.418 483.368 412.37 482.915 412.274 482.536C412.183 482.157 412.05 481.848 411.874 481.608C411.698 481.363 411.482 481.184 411.226 481.072C410.97 480.96 410.679 480.904 410.354 480.904ZM416.986 483.848L414.258 479.896H415.626C415.743 479.896 415.829 479.915 415.882 479.952C415.935 479.989 415.983 480.043 416.026 480.112L418.01 483.152C418.058 483.003 418.127 482.853 418.218 482.704L419.962 480.144C420.015 480.069 420.069 480.011 420.122 479.968C420.175 479.92 420.242 479.896 420.322 479.896H421.634L418.906 483.768L421.746 488H420.378C420.261 488 420.167 487.971 420.098 487.912C420.034 487.848 419.981 487.779 419.938 487.704L417.898 484.528C417.861 484.683 417.805 484.821 417.73 484.944L415.842 487.704C415.789 487.779 415.73 487.848 415.666 487.912C415.607 487.971 415.525 488 415.418 488H414.146L416.986 483.848Z" fill="black"/>
<path d="M286.312 486.912H288.776V479.096C288.776 478.861 288.784 478.624 288.8 478.384L286.752 480.136C286.698 480.179 286.645 480.211 286.592 480.232C286.538 480.248 286.488 480.256 286.44 480.256C286.36 480.256 286.288 480.24 286.224 480.208C286.16 480.171 286.112 480.128 286.08 480.08L285.632 479.464L289.04 476.512H290.2V486.912H292.456V488H286.312V486.912ZM298.497 480.976C298.956 480.976 299.39 481.053 299.801 481.208C300.212 481.357 300.572 481.579 300.881 481.872C301.19 482.16 301.436 482.517 301.617 482.944C301.798 483.365 301.889 483.848 301.889 484.392C301.889 484.92 301.793 485.411 301.601 485.864C301.409 486.317 301.14 486.712 300.793 487.048C300.452 487.384 300.038 487.648 299.553 487.84C299.068 488.032 298.534 488.128 297.953 488.128C297.377 488.128 296.854 488.037 296.385 487.856C295.921 487.669 295.524 487.408 295.193 487.072C294.862 486.731 294.606 486.32 294.425 485.84C294.249 485.355 294.161 484.813 294.161 484.216C294.161 483.715 294.273 483.181 294.497 482.616C294.721 482.051 295.076 481.443 295.561 480.792L298.465 476.88C298.54 476.784 298.644 476.704 298.777 476.64C298.91 476.571 299.062 476.536 299.233 476.536H300.497L296.521 481.568C296.793 481.381 297.094 481.237 297.425 481.136C297.756 481.029 298.113 480.976 298.497 480.976ZM295.537 484.464C295.537 484.832 295.59 485.168 295.697 485.472C295.804 485.776 295.958 486.037 296.161 486.256C296.369 486.475 296.62 486.645 296.913 486.768C297.212 486.885 297.55 486.944 297.929 486.944C298.313 486.944 298.66 486.883 298.969 486.76C299.278 486.637 299.542 486.467 299.761 486.248C299.985 486.029 300.156 485.771 300.273 485.472C300.396 485.173 300.457 484.848 300.457 484.496C300.457 484.123 300.398 483.787 300.281 483.488C300.164 483.184 299.998 482.928 299.785 482.72C299.572 482.507 299.316 482.344 299.017 482.232C298.718 482.12 298.39 482.064 298.033 482.064C297.649 482.064 297.302 482.131 296.993 482.264C296.684 482.392 296.42 482.568 296.201 482.792C295.988 483.011 295.822 483.267 295.705 483.56C295.593 483.848 295.537 484.149 295.537 484.464ZM303.746 490.744V479.896H304.594C304.797 479.896 304.925 479.995 304.978 480.192L305.098 481.152C305.445 480.731 305.839 480.392 306.282 480.136C306.73 479.88 307.245 479.752 307.826 479.752C308.29 479.752 308.711 479.843 309.09 480.024C309.469 480.2 309.791 480.464 310.058 480.816C310.325 481.163 310.53 481.595 310.674 482.112C310.818 482.629 310.89 483.224 310.89 483.896C310.89 484.493 310.81 485.051 310.65 485.568C310.49 486.08 310.261 486.525 309.962 486.904C309.663 487.277 309.295 487.573 308.858 487.792C308.426 488.005 307.938 488.112 307.394 488.112C306.893 488.112 306.463 488.029 306.106 487.864C305.754 487.699 305.442 487.464 305.17 487.16V490.744H303.746ZM307.354 480.904C306.89 480.904 306.482 481.011 306.13 481.224C305.783 481.437 305.463 481.739 305.17 482.128V486.048C305.431 486.4 305.717 486.648 306.026 486.792C306.341 486.936 306.69 487.008 307.074 487.008C307.826 487.008 308.405 486.739 308.81 486.2C309.215 485.661 309.418 484.893 309.418 483.896C309.418 483.368 309.37 482.915 309.274 482.536C309.183 482.157 309.05 481.848 308.874 481.608C308.698 481.363 308.482 481.184 308.226 481.072C307.97 480.96 307.679 480.904 307.354 480.904ZM313.986 483.848L311.258 479.896H312.626C312.743 479.896 312.829 479.915 312.882 479.952C312.935 479.989 312.983 480.043 313.026 480.112L315.01 483.152C315.058 483.003 315.127 482.853 315.218 482.704L316.962 480.144C317.015 480.069 317.069 480.011 317.122 479.968C317.175 479.92 317.242 479.896 317.322 479.896H318.634L315.906 483.768L318.746 488H317.378C317.261 488 317.167 487.971 317.098 487.912C317.034 487.848 316.981 487.779 316.938 487.704L314.898 484.528C314.861 484.683 314.805 484.821 314.73 484.944L312.842 487.704C312.789 487.779 312.73 487.848 312.666 487.912C312.607 487.971 312.525 488 312.418 488H311.146L313.986 483.848Z" fill="black"/>
</svg>
