<svg width="151" height="151" viewBox="0 0 151 151" fill="none" xmlns="http://www.w3.org/2000/svg">
<path d="M56.764 53.907V55.587C56.764 56.063 56.708 56.455 56.596 56.763C56.498 57.071 56.393 57.33 56.281 57.54L43.828 82.677C43.646 83.041 43.394 83.356 43.072 83.622C42.75 83.874 42.316 84 41.77 84H39.103L51.745 59.178C51.927 58.828 52.109 58.506 52.291 58.212C52.487 57.918 52.704 57.638 52.942 57.372H37.234C36.996 57.372 36.779 57.281 36.583 57.099C36.401 56.903 36.31 56.686 36.31 56.448V53.907H56.764ZM78.9013 55.545C78.9013 56.077 78.7333 56.518 78.3973 56.868C78.0613 57.204 77.4943 57.372 76.6963 57.372H67.2463L65.8603 65.268C67.4283 64.932 68.8773 64.764 70.2073 64.764C71.7753 64.764 73.1543 64.995 74.3443 65.457C75.5483 65.919 76.5563 66.556 77.3683 67.368C78.1803 68.18 78.7893 69.139 79.1953 70.245C79.6153 71.351 79.8253 72.555 79.8253 73.857C79.8253 75.453 79.5453 76.895 78.9853 78.183C78.4253 79.471 77.6553 80.577 76.6753 81.501C75.7093 82.411 74.5683 83.111 73.2523 83.601C71.9363 84.091 70.5153 84.336 68.9893 84.336C68.1073 84.336 67.2603 84.245 66.4483 84.063C65.6363 83.895 64.8803 83.664 64.1803 83.37C63.4803 83.076 62.8293 82.74 62.2273 82.362C61.6253 81.984 61.0933 81.585 60.6313 81.165L61.7653 79.569C62.0173 79.205 62.3533 79.023 62.7733 79.023C63.0393 79.023 63.3473 79.135 63.6973 79.359C64.0613 79.569 64.4953 79.807 64.9993 80.073C65.5033 80.339 66.0913 80.584 66.7633 80.808C67.4493 81.018 68.2613 81.123 69.1993 81.123C70.2493 81.123 71.1943 80.955 72.0343 80.619C72.8743 80.283 73.5883 79.807 74.1763 79.191C74.7783 78.561 75.2403 77.812 75.5623 76.944C75.8843 76.076 76.0453 75.103 76.0453 74.025C76.0453 73.087 75.9053 72.24 75.6253 71.484C75.3593 70.728 74.9463 70.084 74.3863 69.552C73.8403 69.02 73.1543 68.607 72.3283 68.313C71.5023 68.019 70.5363 67.872 69.4303 67.872C68.6743 67.872 67.8903 67.935 67.0783 68.061C66.2663 68.187 65.4263 68.39 64.5583 68.67L62.2063 67.977L64.6423 53.907H78.9013V55.545ZM97.5736 61.173C97.5736 62.349 97.3916 63.406 97.0276 64.344C96.6636 65.268 96.1736 66.052 95.5576 66.696C94.9556 67.326 94.2486 67.809 93.4366 68.145C92.6246 68.481 91.7776 68.649 90.8956 68.649C89.9436 68.649 89.0616 68.481 88.2496 68.145C87.4516 67.809 86.7516 67.326 86.1496 66.696C85.5476 66.052 85.0786 65.268 84.7426 64.344C84.4066 63.406 84.2386 62.349 84.2386 61.173C84.2386 59.969 84.4066 58.898 84.7426 57.96C85.0786 57.022 85.5476 56.231 86.1496 55.587C86.7516 54.943 87.4516 54.453 88.2496 54.117C89.0616 53.781 89.9436 53.613 90.8956 53.613C91.8336 53.613 92.7086 53.781 93.5206 54.117C94.3466 54.453 95.0536 54.943 95.6416 55.587C96.2436 56.231 96.7126 57.022 97.0486 57.96C97.3986 58.898 97.5736 59.969 97.5736 61.173ZM94.6546 61.173C94.6546 60.249 94.5566 59.465 94.3606 58.821C94.1646 58.177 93.8916 57.652 93.5416 57.246C93.2056 56.826 92.8066 56.525 92.3446 56.343C91.8966 56.161 91.4136 56.07 90.8956 56.07C90.3776 56.07 89.8876 56.161 89.4256 56.343C88.9776 56.525 88.5856 56.826 88.2496 57.246C87.9136 57.652 87.6476 58.177 87.4516 58.821C87.2696 59.465 87.1786 60.249 87.1786 61.173C87.1786 62.083 87.2696 62.86 87.4516 63.504C87.6476 64.134 87.9136 64.652 88.2496 65.058C88.5856 65.45 88.9776 65.737 89.4256 65.919C89.8876 66.087 90.3776 66.171 90.8956 66.171C91.4136 66.171 91.8966 66.087 92.3446 65.919C92.8066 65.737 93.2056 65.45 93.5416 65.058C93.8916 64.652 94.1646 64.134 94.3606 63.504C94.5566 62.86 94.6546 62.083 94.6546 61.173ZM108.095 54.663C108.277 54.425 108.466 54.243 108.662 54.117C108.872 53.977 109.145 53.907 109.481 53.907H112.169L90.1816 83.391C90.0416 83.573 89.8736 83.72 89.6776 83.832C89.4816 83.944 89.2506 84 88.9846 84H86.2126L108.095 54.663ZM114.206 76.902C114.206 78.078 114.024 79.128 113.66 80.052C113.296 80.976 112.806 81.76 112.19 82.404C111.588 83.034 110.881 83.517 110.069 83.853C109.271 84.189 108.431 84.357 107.549 84.357C106.597 84.357 105.715 84.189 104.903 83.853C104.105 83.517 103.405 83.034 102.803 82.404C102.201 81.76 101.732 80.976 101.396 80.052C101.06 79.128 100.892 78.078 100.892 76.902C100.892 75.698 101.06 74.627 101.396 73.689C101.732 72.737 102.201 71.939 102.803 71.295C103.405 70.651 104.105 70.161 104.903 69.825C105.715 69.489 106.597 69.321 107.549 69.321C108.487 69.321 109.362 69.489 110.174 69.825C110.986 70.161 111.693 70.651 112.295 71.295C112.897 71.939 113.366 72.737 113.702 73.689C114.038 74.627 114.206 75.698 114.206 76.902ZM111.308 76.902C111.308 75.978 111.21 75.194 111.014 74.55C110.818 73.892 110.545 73.36 110.195 72.954C109.859 72.548 109.46 72.254 108.998 72.072C108.55 71.89 108.067 71.799 107.549 71.799C107.031 71.799 106.541 71.89 106.079 72.072C105.631 72.254 105.239 72.548 104.903 72.954C104.567 73.36 104.301 73.892 104.105 74.55C103.923 75.194 103.832 75.978 103.832 76.902C103.832 77.812 103.923 78.582 104.105 79.212C104.301 79.842 104.567 80.36 104.903 80.766C105.239 81.158 105.631 81.445 106.079 81.627C106.541 81.795 107.031 81.879 107.549 81.879C108.067 81.879 108.55 81.795 108.998 81.627C109.46 81.445 109.859 81.158 110.195 80.766C110.545 80.36 110.818 79.842 111.014 79.212C111.21 78.582 111.308 77.812 111.308 76.902Z" fill="black"/>
<path d="M45.1782 101.224C45.2422 101.224 45.3002 101.25 45.3522 101.302L45.8082 101.8C45.4562 102.208 45.0282 102.526 44.5242 102.754C44.0242 102.982 43.4202 103.096 42.7122 103.096C42.0922 103.096 41.5302 102.99 41.0262 102.778C40.5222 102.562 40.0922 102.262 39.7362 101.878C39.3802 101.49 39.1042 101.026 38.9082 100.486C38.7122 99.946 38.6142 99.352 38.6142 98.704C38.6142 98.056 38.7182 97.462 38.9262 96.922C39.1382 96.382 39.4342 95.918 39.8142 95.53C40.1942 95.142 40.6482 94.842 41.1762 94.63C41.7082 94.414 42.2942 94.306 42.9342 94.306C43.5662 94.306 44.1102 94.404 44.5662 94.6C45.0262 94.796 45.4342 95.062 45.7902 95.398L45.4122 95.932C45.3842 95.972 45.3522 96.006 45.3162 96.034C45.2802 96.058 45.2282 96.07 45.1602 96.07C45.1082 96.07 45.0522 96.052 44.9922 96.016C44.9362 95.976 44.8682 95.928 44.7882 95.872C44.7082 95.816 44.6142 95.756 44.5062 95.692C44.3982 95.628 44.2702 95.568 44.1222 95.512C43.9742 95.456 43.8022 95.41 43.6062 95.374C43.4102 95.334 43.1842 95.314 42.9282 95.314C42.4682 95.314 42.0462 95.394 41.6622 95.554C41.2822 95.71 40.9542 95.934 40.6782 96.226C40.4022 96.518 40.1862 96.874 40.0302 97.294C39.8782 97.714 39.8022 98.184 39.8022 98.704C39.8022 99.24 39.8782 99.718 40.0302 100.138C40.1862 100.558 40.3962 100.914 40.6602 101.206C40.9282 101.494 41.2442 101.714 41.6082 101.866C41.9722 102.018 42.3642 102.094 42.7842 102.094C43.0402 102.094 43.2702 102.08 43.4742 102.052C43.6782 102.02 43.8662 101.972 44.0382 101.908C44.2142 101.844 44.3762 101.764 44.5242 101.668C44.6762 101.568 44.8282 101.45 44.9802 101.314C45.0482 101.254 45.1142 101.224 45.1782 101.224ZM56.8191 98.704C56.8191 99.348 56.7171 99.94 56.5131 100.48C56.3091 101.016 56.0211 101.478 55.6491 101.866C55.2771 102.254 54.8291 102.556 54.3051 102.772C53.7851 102.984 53.2091 103.09 52.5771 103.09C51.9451 103.09 51.3691 102.984 50.8491 102.772C50.3291 102.556 49.8831 102.254 49.5111 101.866C49.1391 101.478 48.8511 101.016 48.6471 100.48C48.4431 99.94 48.3411 99.348 48.3411 98.704C48.3411 98.06 48.4431 97.47 48.6471 96.934C48.8511 96.394 49.1391 95.93 49.5111 95.542C49.8831 95.15 50.3291 94.846 50.8491 94.63C51.3691 94.414 51.9451 94.306 52.5771 94.306C53.2091 94.306 53.7851 94.414 54.3051 94.63C54.8291 94.846 55.2771 95.15 55.6491 95.542C56.0211 95.93 56.3091 96.394 56.5131 96.934C56.7171 97.47 56.8191 98.06 56.8191 98.704ZM55.6251 98.704C55.6251 98.176 55.5531 97.702 55.4091 97.282C55.2651 96.862 55.0611 96.508 54.7971 96.22C54.5331 95.928 54.2131 95.704 53.8371 95.548C53.4611 95.392 53.0411 95.314 52.5771 95.314C52.1171 95.314 51.6991 95.392 51.3231 95.548C50.9471 95.704 50.6251 95.928 50.3571 96.22C50.0931 96.508 49.8891 96.862 49.7451 97.282C49.6011 97.702 49.5291 98.176 49.5291 98.704C49.5291 99.232 49.6011 99.706 49.7451 100.126C49.8891 100.542 50.0931 100.896 50.3571 101.188C50.6251 101.476 50.9471 101.698 51.3231 101.854C51.6991 102.006 52.1171 102.082 52.5771 102.082C53.0411 102.082 53.4611 102.006 53.8371 101.854C54.2131 101.698 54.5331 101.476 54.7971 101.188C55.0611 100.896 55.2651 100.542 55.4091 100.126C55.5531 99.706 55.6251 99.232 55.6251 98.704ZM64.1373 99.892C64.1933 99.988 64.2413 100.09 64.2813 100.198C64.3253 100.302 64.3673 100.408 64.4073 100.516C64.4473 100.404 64.4893 100.298 64.5333 100.198C64.5773 100.094 64.6273 99.99 64.6833 99.886L67.5933 94.6C67.6453 94.508 67.6993 94.452 67.7553 94.432C67.8113 94.412 67.8913 94.402 67.9953 94.402H68.8533V103H67.8333V96.682C67.8333 96.598 67.8353 96.508 67.8393 96.412C67.8433 96.316 67.8493 96.218 67.8573 96.118L64.9113 101.494C64.8113 101.674 64.6713 101.764 64.4913 101.764H64.3233C64.1433 101.764 64.0033 101.674 63.9033 101.494L60.8913 96.1C60.9033 96.204 60.9113 96.306 60.9153 96.406C60.9233 96.506 60.9273 96.598 60.9273 96.682V103H59.9073V94.402H60.7653C60.8693 94.402 60.9493 94.412 61.0053 94.432C61.0613 94.452 61.1153 94.508 61.1673 94.6L64.1373 99.892ZM73.7243 99.784V103H72.5663V94.402H75.1043C75.6483 94.402 76.1203 94.466 76.5203 94.594C76.9243 94.718 77.2583 94.896 77.5223 95.128C77.7863 95.36 77.9823 95.64 78.1103 95.968C78.2423 96.296 78.3083 96.662 78.3083 97.066C78.3083 97.466 78.2383 97.832 78.0983 98.164C77.9583 98.496 77.7523 98.782 77.4803 99.022C77.2123 99.262 76.8783 99.45 76.4783 99.586C76.0783 99.718 75.6203 99.784 75.1043 99.784H73.7243ZM73.7243 98.86H75.1043C75.4363 98.86 75.7283 98.816 75.9803 98.728C76.2363 98.64 76.4503 98.518 76.6223 98.362C76.7943 98.202 76.9243 98.012 77.0123 97.792C77.1003 97.572 77.1443 97.33 77.1443 97.066C77.1443 96.518 76.9743 96.09 76.6343 95.782C76.2983 95.474 75.7883 95.32 75.1043 95.32H73.7243V98.86ZM82.4463 102.022H86.1663V103H81.2823V94.402H82.4463V102.022ZM94.2443 94.402V95.35H90.1163V98.206H93.4583V99.118H90.1163V102.052H94.2443V103H88.9463V94.402H94.2443ZM103.275 94.402V95.38H100.497V103H99.333V95.38H96.543V94.402H103.275ZM111.295 94.402V95.35H107.167V98.206H110.509V99.118H107.167V102.052H111.295V103H105.997V94.402H111.295Z" fill="#6A6A6A"/>
<circle cx="75.5" cy="75.5" r="71.5" stroke="#E3E3E3" stroke-width="8"/>
<path d="M75.5 4C89.6414 4 103.465 8.1934 115.223 16.0499C126.981 23.9064 136.146 35.0732 141.557 48.1381C146.969 61.2031 148.385 75.5793 145.626 89.449C142.867 103.319 136.058 116.059 126.058 126.058C116.059 136.058 103.319 142.867 89.449 145.626C75.5793 148.385 61.2031 146.969 48.1381 141.557C35.0732 136.146 23.9064 126.981 16.0499 115.223C8.1934 103.465 4 89.6414 4 75.5" stroke="#0064D1" stroke-width="8"/>
</svg>
