<svg width="800" height="530" viewBox="0 0 800 530" fill="none" xmlns="http://www.w3.org/2000/svg">
<path d="M0 530H800V0H0V530Z" fill="#D1D1D1"/>
<rect x="27" y="124" width="747" height="383" fill="white"/>
<circle cx="144.5" cy="315.5" r="51.5" stroke="#E3E3E3" stroke-width="8"/>
<path d="M144.5 367C158.159 367 171.258 361.574 180.916 351.916C190.574 342.258 196 329.159 196 315.5C196 301.841 190.574 288.742 180.916 279.084C171.258 269.426 158.159 264 144.5 264" stroke="#0064D1" stroke-width="8"/>
<rect x="119.65" y="323.783" width="49.6993" height="7.2028" fill="#E9E9E9"/>
<rect x="129" y="303" width="31" height="13" fill="#E9E9E9"/>
<circle cx="314.5" cy="315.5" r="51.5" stroke="#E3E3E3" stroke-width="8"/>
<path d="M314.5 367C328.159 367 341.258 361.574 350.916 351.916C360.574 342.258 366 329.159 366 315.5C366 301.841 360.574 288.742 350.916 279.084C341.258 269.426 328.159 264 314.5 264" stroke="#0064D1" stroke-width="8"/>
<rect x="289.65" y="323.783" width="49.6993" height="7.2028" fill="#E9E9E9"/>
<rect x="299" y="303" width="31" height="13" fill="#E9E9E9"/>
<circle cx="484.5" cy="315.5" r="51.5" stroke="#E3E3E3" stroke-width="8"/>
<path d="M484.5 367C498.159 367 511.258 361.574 520.916 351.916C530.574 342.258 536 329.159 536 315.5C536 301.841 530.574 288.742 520.916 279.084C511.258 269.426 498.159 264 484.5 264" stroke="#0064D1" stroke-width="8"/>
<rect x="459.65" y="323.783" width="49.6993" height="7.2028" fill="#E9E9E9"/>
<rect x="469" y="303" width="31" height="13" fill="#E9E9E9"/>
<circle cx="654.5" cy="315.5" r="51.5" stroke="#E3E3E3" stroke-width="8"/>
<path d="M654.5 367C668.159 367 681.258 361.574 690.916 351.916C700.574 342.258 706 329.159 706 315.5C706 301.841 700.574 288.742 690.916 279.084C681.258 269.426 668.159 264 654.5 264" stroke="#0064D1" stroke-width="8"/>
<rect x="629.65" y="323.783" width="49.6993" height="7.2028" fill="#E9E9E9"/>
<rect x="639" y="303" width="31" height="13" fill="#E9E9E9"/>
<rect x="27" y="69" width="232" height="29" fill="white"/>
<path d="M0 50H800V20H0V50Z" fill="#171717"/>
</svg>
