<svg width="151" height="151" viewBox="0 0 151 151" fill="none" xmlns="http://www.w3.org/2000/svg">
<path d="M40.027 81.144H46.495V60.627C46.495 60.011 46.516 59.388 46.558 58.758L41.182 63.357C41.042 63.469 40.902 63.553 40.762 63.609C40.622 63.651 40.489 63.672 40.363 63.672C40.153 63.672 39.964 63.63 39.796 63.546C39.628 63.448 39.502 63.336 39.418 63.21L38.242 61.593L47.188 53.844H50.233V81.144H56.155V84H40.027V81.144ZM78.9013 55.545C78.9013 56.077 78.7333 56.518 78.3973 56.868C78.0613 57.204 77.4943 57.372 76.6963 57.372H67.2463L65.8603 65.268C67.4283 64.932 68.8773 64.764 70.2073 64.764C71.7753 64.764 73.1543 64.995 74.3443 65.457C75.5483 65.919 76.5563 66.556 77.3683 67.368C78.1803 68.18 78.7893 69.139 79.1953 70.245C79.6153 71.351 79.8253 72.555 79.8253 73.857C79.8253 75.453 79.5453 76.895 78.9853 78.183C78.4253 79.471 77.6553 80.577 76.6753 81.501C75.7093 82.411 74.5683 83.111 73.2523 83.601C71.9363 84.091 70.5153 84.336 68.9893 84.336C68.1073 84.336 67.2603 84.245 66.4483 84.063C65.6363 83.895 64.8803 83.664 64.1803 83.37C63.4803 83.076 62.8293 82.74 62.2273 82.362C61.6253 81.984 61.0933 81.585 60.6313 81.165L61.7653 79.569C62.0173 79.205 62.3533 79.023 62.7733 79.023C63.0393 79.023 63.3473 79.135 63.6973 79.359C64.0613 79.569 64.4953 79.807 64.9993 80.073C65.5033 80.339 66.0913 80.584 66.7633 80.808C67.4493 81.018 68.2613 81.123 69.1993 81.123C70.2493 81.123 71.1943 80.955 72.0343 80.619C72.8743 80.283 73.5883 79.807 74.1763 79.191C74.7783 78.561 75.2403 77.812 75.5623 76.944C75.8843 76.076 76.0453 75.103 76.0453 74.025C76.0453 73.087 75.9053 72.24 75.6253 71.484C75.3593 70.728 74.9463 70.084 74.3863 69.552C73.8403 69.02 73.1543 68.607 72.3283 68.313C71.5023 68.019 70.5363 67.872 69.4303 67.872C68.6743 67.872 67.8903 67.935 67.0783 68.061C66.2663 68.187 65.4263 68.39 64.5583 68.67L62.2063 67.977L64.6423 53.907H78.9013V55.545ZM97.5736 61.173C97.5736 62.349 97.3916 63.406 97.0276 64.344C96.6636 65.268 96.1736 66.052 95.5576 66.696C94.9556 67.326 94.2486 67.809 93.4366 68.145C92.6246 68.481 91.7776 68.649 90.8956 68.649C89.9436 68.649 89.0616 68.481 88.2496 68.145C87.4516 67.809 86.7516 67.326 86.1496 66.696C85.5476 66.052 85.0786 65.268 84.7426 64.344C84.4066 63.406 84.2386 62.349 84.2386 61.173C84.2386 59.969 84.4066 58.898 84.7426 57.96C85.0786 57.022 85.5476 56.231 86.1496 55.587C86.7516 54.943 87.4516 54.453 88.2496 54.117C89.0616 53.781 89.9436 53.613 90.8956 53.613C91.8336 53.613 92.7086 53.781 93.5206 54.117C94.3466 54.453 95.0536 54.943 95.6416 55.587C96.2436 56.231 96.7126 57.022 97.0486 57.96C97.3986 58.898 97.5736 59.969 97.5736 61.173ZM94.6546 61.173C94.6546 60.249 94.5566 59.465 94.3606 58.821C94.1646 58.177 93.8916 57.652 93.5416 57.246C93.2056 56.826 92.8066 56.525 92.3446 56.343C91.8966 56.161 91.4136 56.07 90.8956 56.07C90.3776 56.07 89.8876 56.161 89.4256 56.343C88.9776 56.525 88.5856 56.826 88.2496 57.246C87.9136 57.652 87.6476 58.177 87.4516 58.821C87.2696 59.465 87.1786 60.249 87.1786 61.173C87.1786 62.083 87.2696 62.86 87.4516 63.504C87.6476 64.134 87.9136 64.652 88.2496 65.058C88.5856 65.45 88.9776 65.737 89.4256 65.919C89.8876 66.087 90.3776 66.171 90.8956 66.171C91.4136 66.171 91.8966 66.087 92.3446 65.919C92.8066 65.737 93.2056 65.45 93.5416 65.058C93.8916 64.652 94.1646 64.134 94.3606 63.504C94.5566 62.86 94.6546 62.083 94.6546 61.173ZM108.095 54.663C108.277 54.425 108.466 54.243 108.662 54.117C108.872 53.977 109.145 53.907 109.481 53.907H112.169L90.1816 83.391C90.0416 83.573 89.8736 83.72 89.6776 83.832C89.4816 83.944 89.2506 84 88.9846 84H86.2126L108.095 54.663ZM114.206 76.902C114.206 78.078 114.024 79.128 113.66 80.052C113.296 80.976 112.806 81.76 112.19 82.404C111.588 83.034 110.881 83.517 110.069 83.853C109.271 84.189 108.431 84.357 107.549 84.357C106.597 84.357 105.715 84.189 104.903 83.853C104.105 83.517 103.405 83.034 102.803 82.404C102.201 81.76 101.732 80.976 101.396 80.052C101.06 79.128 100.892 78.078 100.892 76.902C100.892 75.698 101.06 74.627 101.396 73.689C101.732 72.737 102.201 71.939 102.803 71.295C103.405 70.651 104.105 70.161 104.903 69.825C105.715 69.489 106.597 69.321 107.549 69.321C108.487 69.321 109.362 69.489 110.174 69.825C110.986 70.161 111.693 70.651 112.295 71.295C112.897 71.939 113.366 72.737 113.702 73.689C114.038 74.627 114.206 75.698 114.206 76.902ZM111.308 76.902C111.308 75.978 111.21 75.194 111.014 74.55C110.818 73.892 110.545 73.36 110.195 72.954C109.859 72.548 109.46 72.254 108.998 72.072C108.55 71.89 108.067 71.799 107.549 71.799C107.031 71.799 106.541 71.89 106.079 72.072C105.631 72.254 105.239 72.548 104.903 72.954C104.567 73.36 104.301 73.892 104.105 74.55C103.923 75.194 103.832 75.978 103.832 76.902C103.832 77.812 103.923 78.582 104.105 79.212C104.301 79.842 104.567 80.36 104.903 80.766C105.239 81.158 105.631 81.445 106.079 81.627C106.541 81.795 107.031 81.879 107.549 81.879C108.067 81.879 108.55 81.795 108.998 81.627C109.46 81.445 109.859 81.158 110.195 80.766C110.545 80.36 110.818 79.842 111.014 79.212C111.21 78.582 111.308 77.812 111.308 76.902Z" fill="black"/>
<path d="M63.9198 98.704C63.9198 99.348 63.8178 99.934 63.6138 100.462C63.4098 100.99 63.1218 101.442 62.7498 101.818C62.3778 102.194 61.9318 102.486 61.4118 102.694C60.8918 102.898 60.3158 103 59.6838 103H56.4678V94.402H59.6838C60.3158 94.402 60.8918 94.506 61.4118 94.714C61.9318 94.918 62.3778 95.21 62.7498 95.59C63.1218 95.966 63.4098 96.418 63.6138 96.946C63.8178 97.474 63.9198 98.06 63.9198 98.704ZM62.7258 98.704C62.7258 98.176 62.6538 97.704 62.5098 97.288C62.3658 96.872 62.1618 96.52 61.8978 96.232C61.6338 95.944 61.3138 95.724 60.9378 95.572C60.5618 95.42 60.1438 95.344 59.6838 95.344H57.6378V102.058H59.6838C60.1438 102.058 60.5618 101.982 60.9378 101.83C61.3138 101.678 61.6338 101.46 61.8978 101.176C62.1618 100.888 62.3658 100.536 62.5098 100.12C62.6538 99.704 62.7258 99.232 62.7258 98.704ZM74.989 98.704C74.989 99.348 74.887 99.94 74.683 100.48C74.479 101.016 74.191 101.478 73.819 101.866C73.447 102.254 72.999 102.556 72.475 102.772C71.955 102.984 71.379 103.09 70.747 103.09C70.115 103.09 69.539 102.984 69.019 102.772C68.499 102.556 68.053 102.254 67.681 101.866C67.309 101.478 67.021 101.016 66.817 100.48C66.613 99.94 66.511 99.348 66.511 98.704C66.511 98.06 66.613 97.47 66.817 96.934C67.021 96.394 67.309 95.93 67.681 95.542C68.053 95.15 68.499 94.846 69.019 94.63C69.539 94.414 70.115 94.306 70.747 94.306C71.379 94.306 71.955 94.414 72.475 94.63C72.999 94.846 73.447 95.15 73.819 95.542C74.191 95.93 74.479 96.394 74.683 96.934C74.887 97.47 74.989 98.06 74.989 98.704ZM73.795 98.704C73.795 98.176 73.723 97.702 73.579 97.282C73.435 96.862 73.231 96.508 72.967 96.22C72.703 95.928 72.383 95.704 72.007 95.548C71.631 95.392 71.211 95.314 70.747 95.314C70.287 95.314 69.869 95.392 69.493 95.548C69.117 95.704 68.795 95.928 68.527 96.22C68.263 96.508 68.059 96.862 67.915 97.282C67.771 97.702 67.699 98.176 67.699 98.704C67.699 99.232 67.771 99.706 67.915 100.126C68.059 100.542 68.263 100.896 68.527 101.188C68.795 101.476 69.117 101.698 69.493 101.854C69.869 102.006 70.287 102.082 70.747 102.082C71.211 102.082 71.631 102.006 72.007 101.854C72.383 101.698 72.703 101.476 72.967 101.188C73.231 100.896 73.435 100.542 73.579 100.126C73.723 99.706 73.795 99.232 73.795 98.704ZM78.6772 94.402C78.7812 94.402 78.8572 94.416 78.9052 94.444C78.9572 94.468 79.0152 94.52 79.0792 94.6L84.0592 101.08C84.0472 100.976 84.0392 100.876 84.0352 100.78C84.0312 100.68 84.0292 100.584 84.0292 100.492V94.402H85.0492V103H84.4612C84.3692 103 84.2912 102.984 84.2272 102.952C84.1672 102.92 84.1072 102.866 84.0472 102.79L79.0732 96.316C79.0812 96.416 79.0872 96.514 79.0912 96.61C79.0952 96.706 79.0972 96.794 79.0972 96.874V103H78.0772V94.402H78.6772ZM93.9455 94.402V95.35H89.8175V98.206H93.1595V99.118H89.8175V102.052H93.9455V103H88.6475V94.402H93.9455Z" fill="#6A6A6A"/>
<circle cx="75.5" cy="75.5" r="71.5" stroke="#E3E3E3" stroke-width="8"/>
<path d="M75.5 4C85.8595 4 96.0953 6.25114 105.499 10.5976C114.902 14.9441 123.249 21.2821 129.961 29.1729" stroke="#C2D95D" stroke-width="8"/>
</svg>
