<svg width="151" height="151" viewBox="0 0 151 151" fill="none" xmlns="http://www.w3.org/2000/svg">
<path d="M47.65 65.562C48.854 65.562 49.995 65.765 51.073 66.171C52.151 66.563 53.096 67.144 53.908 67.914C54.72 68.67 55.364 69.608 55.84 70.728C56.316 71.834 56.554 73.101 56.554 74.529C56.554 75.915 56.302 77.203 55.798 78.393C55.294 79.583 54.587 80.619 53.677 81.501C52.781 82.383 51.696 83.076 50.422 83.58C49.148 84.084 47.748 84.336 46.222 84.336C44.71 84.336 43.338 84.098 42.106 83.622C40.888 83.132 39.845 82.446 38.977 81.564C38.109 80.668 37.437 79.59 36.961 78.33C36.499 77.056 36.268 75.635 36.268 74.067C36.268 72.751 36.562 71.351 37.15 69.867C37.738 68.383 38.669 66.787 39.943 65.079L47.566 54.81C47.762 54.558 48.035 54.348 48.385 54.18C48.735 53.998 49.134 53.907 49.582 53.907H52.9L42.463 67.116C43.177 66.626 43.968 66.248 44.836 65.982C45.704 65.702 46.642 65.562 47.65 65.562ZM39.88 74.718C39.88 75.684 40.02 76.566 40.3 77.364C40.58 78.162 40.986 78.848 41.518 79.422C42.064 79.996 42.722 80.444 43.492 80.766C44.276 81.074 45.165 81.228 46.159 81.228C47.167 81.228 48.077 81.067 48.889 80.745C49.701 80.423 50.394 79.975 50.968 79.401C51.556 78.827 52.004 78.148 52.312 77.364C52.634 76.58 52.795 75.726 52.795 74.802C52.795 73.822 52.641 72.94 52.333 72.156C52.025 71.358 51.591 70.686 51.031 70.14C50.471 69.58 49.799 69.153 49.015 68.859C48.231 68.565 47.37 68.418 46.432 68.418C45.424 68.418 44.514 68.593 43.702 68.943C42.89 69.279 42.197 69.741 41.623 70.329C41.063 70.903 40.629 71.575 40.321 72.345C40.027 73.101 39.88 73.892 39.88 74.718ZM81.4633 68.964C81.4633 71.596 81.1763 73.878 80.6023 75.81C80.0423 77.728 79.2723 79.317 78.2923 80.577C77.3123 81.837 76.1503 82.775 74.8063 83.391C73.4763 84.007 72.0483 84.315 70.5223 84.315C68.9823 84.315 67.5473 84.007 66.2173 83.391C64.9013 82.775 63.7533 81.837 62.7733 80.577C61.7933 79.317 61.0233 77.728 60.4633 75.81C59.9033 73.878 59.6233 71.596 59.6233 68.964C59.6233 66.332 59.9033 64.05 60.4633 62.118C61.0233 60.186 61.7933 58.59 62.7733 57.33C63.7533 56.056 64.9013 55.111 66.2173 54.495C67.5473 53.879 68.9823 53.571 70.5223 53.571C72.0483 53.571 73.4763 53.879 74.8063 54.495C76.1503 55.111 77.3123 56.056 78.2923 57.33C79.2723 58.59 80.0423 60.186 80.6023 62.118C81.1763 64.05 81.4633 66.332 81.4633 68.964ZM77.5783 68.964C77.5783 66.668 77.3823 64.743 76.9903 63.189C76.6123 61.621 76.0943 60.361 75.4363 59.409C74.7923 58.457 74.0433 57.778 73.1893 57.372C72.3353 56.952 71.4463 56.742 70.5223 56.742C69.5983 56.742 68.7093 56.952 67.8553 57.372C67.0013 57.778 66.2523 58.457 65.6083 59.409C64.9643 60.361 64.4463 61.621 64.0543 63.189C63.6763 64.743 63.4873 66.668 63.4873 68.964C63.4873 71.26 63.6763 73.185 64.0543 74.739C64.4463 76.293 64.9643 77.546 65.6083 78.498C66.2523 79.45 67.0013 80.136 67.8553 80.556C68.7093 80.962 69.5983 81.165 70.5223 81.165C71.4463 81.165 72.3353 80.962 73.1893 80.556C74.0433 80.136 74.7923 79.45 75.4363 78.498C76.0943 77.546 76.6123 76.293 76.9903 74.739C77.3823 73.185 77.5783 71.26 77.5783 68.964ZM97.5736 61.173C97.5736 62.349 97.3916 63.406 97.0276 64.344C96.6636 65.268 96.1736 66.052 95.5576 66.696C94.9556 67.326 94.2486 67.809 93.4366 68.145C92.6246 68.481 91.7776 68.649 90.8956 68.649C89.9436 68.649 89.0616 68.481 88.2496 68.145C87.4516 67.809 86.7516 67.326 86.1496 66.696C85.5476 66.052 85.0786 65.268 84.7426 64.344C84.4066 63.406 84.2386 62.349 84.2386 61.173C84.2386 59.969 84.4066 58.898 84.7426 57.96C85.0786 57.022 85.5476 56.231 86.1496 55.587C86.7516 54.943 87.4516 54.453 88.2496 54.117C89.0616 53.781 89.9436 53.613 90.8956 53.613C91.8336 53.613 92.7086 53.781 93.5206 54.117C94.3466 54.453 95.0536 54.943 95.6416 55.587C96.2436 56.231 96.7126 57.022 97.0486 57.96C97.3986 58.898 97.5736 59.969 97.5736 61.173ZM94.6546 61.173C94.6546 60.249 94.5566 59.465 94.3606 58.821C94.1646 58.177 93.8916 57.652 93.5416 57.246C93.2056 56.826 92.8066 56.525 92.3446 56.343C91.8966 56.161 91.4136 56.07 90.8956 56.07C90.3776 56.07 89.8876 56.161 89.4256 56.343C88.9776 56.525 88.5856 56.826 88.2496 57.246C87.9136 57.652 87.6476 58.177 87.4516 58.821C87.2696 59.465 87.1786 60.249 87.1786 61.173C87.1786 62.083 87.2696 62.86 87.4516 63.504C87.6476 64.134 87.9136 64.652 88.2496 65.058C88.5856 65.45 88.9776 65.737 89.4256 65.919C89.8876 66.087 90.3776 66.171 90.8956 66.171C91.4136 66.171 91.8966 66.087 92.3446 65.919C92.8066 65.737 93.2056 65.45 93.5416 65.058C93.8916 64.652 94.1646 64.134 94.3606 63.504C94.5566 62.86 94.6546 62.083 94.6546 61.173ZM108.095 54.663C108.277 54.425 108.466 54.243 108.662 54.117C108.872 53.977 109.145 53.907 109.481 53.907H112.169L90.1816 83.391C90.0416 83.573 89.8736 83.72 89.6776 83.832C89.4816 83.944 89.2506 84 88.9846 84H86.2126L108.095 54.663ZM114.206 76.902C114.206 78.078 114.024 79.128 113.66 80.052C113.296 80.976 112.806 81.76 112.19 82.404C111.588 83.034 110.881 83.517 110.069 83.853C109.271 84.189 108.431 84.357 107.549 84.357C106.597 84.357 105.715 84.189 104.903 83.853C104.105 83.517 103.405 83.034 102.803 82.404C102.201 81.76 101.732 80.976 101.396 80.052C101.06 79.128 100.892 78.078 100.892 76.902C100.892 75.698 101.06 74.627 101.396 73.689C101.732 72.737 102.201 71.939 102.803 71.295C103.405 70.651 104.105 70.161 104.903 69.825C105.715 69.489 106.597 69.321 107.549 69.321C108.487 69.321 109.362 69.489 110.174 69.825C110.986 70.161 111.693 70.651 112.295 71.295C112.897 71.939 113.366 72.737 113.702 73.689C114.038 74.627 114.206 75.698 114.206 76.902ZM111.308 76.902C111.308 75.978 111.21 75.194 111.014 74.55C110.818 73.892 110.545 73.36 110.195 72.954C109.859 72.548 109.46 72.254 108.998 72.072C108.55 71.89 108.067 71.799 107.549 71.799C107.031 71.799 106.541 71.89 106.079 72.072C105.631 72.254 105.239 72.548 104.903 72.954C104.567 73.36 104.301 73.892 104.105 74.55C103.923 75.194 103.832 75.978 103.832 76.902C103.832 77.812 103.923 78.582 104.105 79.212C104.301 79.842 104.567 80.36 104.903 80.766C105.239 81.158 105.631 81.445 106.079 81.627C106.541 81.795 107.031 81.879 107.549 81.879C108.067 81.879 108.55 81.795 108.998 81.627C109.46 81.445 109.859 81.158 110.195 80.766C110.545 80.36 110.818 79.842 111.014 79.212C111.21 78.582 111.308 77.812 111.308 76.902Z" fill="black"/>
<path d="M46.3337 99.784V103H45.1757V94.402H47.7137C48.2577 94.402 48.7297 94.466 49.1297 94.594C49.5337 94.718 49.8677 94.896 50.1317 95.128C50.3957 95.36 50.5917 95.64 50.7197 95.968C50.8517 96.296 50.9177 96.662 50.9177 97.066C50.9177 97.466 50.8477 97.832 50.7077 98.164C50.5677 98.496 50.3617 98.782 50.0897 99.022C49.8217 99.262 49.4877 99.45 49.0877 99.586C48.6877 99.718 48.2297 99.784 47.7137 99.784H46.3337ZM46.3337 98.86H47.7137C48.0457 98.86 48.3377 98.816 48.5897 98.728C48.8457 98.64 49.0597 98.518 49.2317 98.362C49.4037 98.202 49.5337 98.012 49.6217 97.792C49.7097 97.572 49.7537 97.33 49.7537 97.066C49.7537 96.518 49.5837 96.09 49.2437 95.782C48.9077 95.474 48.3977 95.32 47.7137 95.32H46.3337V98.86ZM59.1897 94.402V95.35H55.0617V98.206H58.4037V99.118H55.0617V102.052H59.1897V103H53.8917V94.402H59.1897ZM62.9643 94.402C63.0683 94.402 63.1443 94.416 63.1923 94.444C63.2443 94.468 63.3023 94.52 63.3663 94.6L68.3463 101.08C68.3343 100.976 68.3263 100.876 68.3223 100.78C68.3183 100.68 68.3163 100.584 68.3163 100.492V94.402H69.3363V103H68.7483C68.6563 103 68.5783 102.984 68.5143 102.952C68.4543 102.92 68.3943 102.866 68.3343 102.79L63.3603 96.316C63.3683 96.416 63.3743 96.514 63.3783 96.61C63.3823 96.706 63.3843 96.794 63.3843 96.874V103H62.3643V94.402H62.9643ZM80.3866 98.704C80.3866 99.348 80.2846 99.934 80.0806 100.462C79.8766 100.99 79.5886 101.442 79.2166 101.818C78.8446 102.194 78.3986 102.486 77.8786 102.694C77.3586 102.898 76.7826 103 76.1506 103H72.9346V94.402H76.1506C76.7826 94.402 77.3586 94.506 77.8786 94.714C78.3986 94.918 78.8446 95.21 79.2166 95.59C79.5886 95.966 79.8766 96.418 80.0806 96.946C80.2846 97.474 80.3866 98.06 80.3866 98.704ZM79.1926 98.704C79.1926 98.176 79.1206 97.704 78.9766 97.288C78.8326 96.872 78.6286 96.52 78.3646 96.232C78.1006 95.944 77.7806 95.724 77.4046 95.572C77.0286 95.42 76.6106 95.344 76.1506 95.344H74.1046V102.058H76.1506C76.6106 102.058 77.0286 101.982 77.4046 101.83C77.7806 101.678 78.1006 101.46 78.3646 101.176C78.6286 100.888 78.8326 100.536 78.9766 100.12C79.1206 99.704 79.1926 99.232 79.1926 98.704ZM84.8498 103H83.6858V94.402H84.8498V103ZM89.2495 94.402C89.3535 94.402 89.4295 94.416 89.4775 94.444C89.5295 94.468 89.5875 94.52 89.6515 94.6L94.6315 101.08C94.6195 100.976 94.6115 100.876 94.6075 100.78C94.6035 100.68 94.6015 100.584 94.6015 100.492V94.402H95.6215V103H95.0335C94.9415 103 94.8635 102.984 94.7995 102.952C94.7395 102.92 94.6795 102.866 94.6195 102.79L89.6455 96.316C89.6535 96.416 89.6595 96.514 89.6635 96.61C89.6675 96.706 89.6695 96.794 89.6695 96.874V103H88.6495V94.402H89.2495ZM103.054 102.154C103.286 102.154 103.498 102.144 103.69 102.124C103.886 102.1 104.07 102.066 104.242 102.022C104.414 101.978 104.576 101.926 104.728 101.866C104.88 101.802 105.032 101.73 105.184 101.65V99.754H103.852C103.776 99.754 103.714 99.732 103.666 99.688C103.622 99.644 103.6 99.59 103.6 99.526V98.866H106.24V102.166C106.024 102.322 105.798 102.458 105.562 102.574C105.33 102.69 105.08 102.788 104.812 102.868C104.548 102.944 104.264 103 103.96 103.036C103.656 103.076 103.326 103.096 102.97 103.096C102.346 103.096 101.774 102.99 101.254 102.778C100.734 102.562 100.286 102.262 99.9098 101.878C99.5338 101.49 99.2398 101.026 99.0278 100.486C98.8198 99.946 98.7158 99.352 98.7158 98.704C98.7158 98.048 98.8178 97.45 99.0218 96.91C99.2298 96.37 99.5238 95.908 99.9038 95.524C100.288 95.136 100.75 94.836 101.29 94.624C101.834 94.412 102.442 94.306 103.114 94.306C103.454 94.306 103.77 94.332 104.062 94.384C104.354 94.432 104.624 94.504 104.872 94.6C105.124 94.692 105.356 94.806 105.568 94.942C105.78 95.074 105.978 95.224 106.162 95.392L105.832 95.92C105.764 96.028 105.676 96.082 105.568 96.082C105.504 96.082 105.434 96.06 105.358 96.016C105.258 95.96 105.146 95.892 105.022 95.812C104.898 95.732 104.746 95.656 104.566 95.584C104.39 95.508 104.18 95.444 103.936 95.392C103.696 95.34 103.41 95.314 103.078 95.314C102.594 95.314 102.156 95.394 101.764 95.554C101.372 95.71 101.038 95.936 100.762 96.232C100.486 96.524 100.274 96.88 100.126 97.3C99.9778 97.716 99.9038 98.184 99.9038 98.704C99.9038 99.248 99.9798 99.734 100.132 100.162C100.288 100.586 100.506 100.946 100.786 101.242C101.066 101.538 101.398 101.764 101.782 101.92C102.166 102.076 102.59 102.154 103.054 102.154Z" fill="#6A6A6A"/>
<circle cx="75.5" cy="75.5" r="71.5" stroke="#E3E3E3" stroke-width="8"/>
<path d="M75.5 4C86.7837 4 97.9072 6.67057 107.961 11.7934C118.015 16.9162 126.713 24.3457 133.346 33.4745C139.978 42.6034 144.355 53.1723 146.12 64.3171C147.885 75.4619 146.987 86.8662 143.5 97.5975C140.012 108.329 134.035 118.082 126.056 126.061C118.076 134.039 108.322 140.016 97.5905 143.502C86.8589 146.988 75.4545 147.885 64.3099 146.119C53.1652 144.353 42.5968 139.974 33.4686 133.341" stroke="#F7BD53" stroke-width="8"/>
</svg>
