<svg width="151" height="151" viewBox="0 0 151 151" fill="none" xmlns="http://www.w3.org/2000/svg">
<path d="M46.621 53.571C47.895 53.571 49.085 53.76 50.191 54.138C51.297 54.516 52.249 55.069 53.047 55.797C53.859 56.511 54.496 57.386 54.958 58.422C55.42 59.458 55.651 60.634 55.651 61.95C55.651 63.07 55.483 64.106 55.147 65.058C54.811 66.01 54.356 66.927 53.782 67.809C53.208 68.677 52.543 69.524 51.787 70.35C51.045 71.162 50.254 71.995 49.414 72.849L41.497 80.955C42.057 80.801 42.624 80.682 43.198 80.598C43.772 80.5 44.325 80.451 44.857 80.451H54.937C55.343 80.451 55.665 80.57 55.903 80.808C56.141 81.046 56.26 81.354 56.26 81.732V84H36.184V82.719C36.184 82.453 36.233 82.18 36.331 81.9C36.443 81.62 36.618 81.361 36.856 81.123L46.495 71.442C47.293 70.63 48.021 69.853 48.679 69.111C49.337 68.355 49.897 67.599 50.359 66.843C50.835 66.087 51.199 65.324 51.451 64.554C51.703 63.77 51.829 62.937 51.829 62.055C51.829 61.173 51.689 60.403 51.409 59.745C51.129 59.073 50.744 58.52 50.254 58.086C49.764 57.652 49.19 57.33 48.532 57.12C47.874 56.896 47.167 56.784 46.411 56.784C45.655 56.784 44.955 56.896 44.311 57.12C43.667 57.344 43.093 57.659 42.589 58.065C42.099 58.457 41.679 58.926 41.329 59.472C40.993 60.018 40.755 60.62 40.615 61.278C40.503 61.684 40.335 61.978 40.111 62.16C39.887 62.342 39.593 62.433 39.229 62.433C39.159 62.433 39.082 62.433 38.998 62.433C38.928 62.419 38.844 62.405 38.746 62.391L36.793 62.055C36.989 60.683 37.367 59.472 37.927 58.422C38.487 57.358 39.194 56.469 40.048 55.755C40.916 55.041 41.903 54.502 43.009 54.138C44.129 53.76 45.333 53.571 46.621 53.571ZM78.9013 55.545C78.9013 56.077 78.7333 56.518 78.3973 56.868C78.0613 57.204 77.4943 57.372 76.6963 57.372H67.2463L65.8603 65.268C67.4283 64.932 68.8773 64.764 70.2073 64.764C71.7753 64.764 73.1543 64.995 74.3443 65.457C75.5483 65.919 76.5563 66.556 77.3683 67.368C78.1803 68.18 78.7893 69.139 79.1953 70.245C79.6153 71.351 79.8253 72.555 79.8253 73.857C79.8253 75.453 79.5453 76.895 78.9853 78.183C78.4253 79.471 77.6553 80.577 76.6753 81.501C75.7093 82.411 74.5683 83.111 73.2523 83.601C71.9363 84.091 70.5153 84.336 68.9893 84.336C68.1073 84.336 67.2603 84.245 66.4483 84.063C65.6363 83.895 64.8803 83.664 64.1803 83.37C63.4803 83.076 62.8293 82.74 62.2273 82.362C61.6253 81.984 61.0933 81.585 60.6313 81.165L61.7653 79.569C62.0173 79.205 62.3533 79.023 62.7733 79.023C63.0393 79.023 63.3473 79.135 63.6973 79.359C64.0613 79.569 64.4953 79.807 64.9993 80.073C65.5033 80.339 66.0913 80.584 66.7633 80.808C67.4493 81.018 68.2613 81.123 69.1993 81.123C70.2493 81.123 71.1943 80.955 72.0343 80.619C72.8743 80.283 73.5883 79.807 74.1763 79.191C74.7783 78.561 75.2403 77.812 75.5623 76.944C75.8843 76.076 76.0453 75.103 76.0453 74.025C76.0453 73.087 75.9053 72.24 75.6253 71.484C75.3593 70.728 74.9463 70.084 74.3863 69.552C73.8403 69.02 73.1543 68.607 72.3283 68.313C71.5023 68.019 70.5363 67.872 69.4303 67.872C68.6743 67.872 67.8903 67.935 67.0783 68.061C66.2663 68.187 65.4263 68.39 64.5583 68.67L62.2063 67.977L64.6423 53.907H78.9013V55.545ZM97.5736 61.173C97.5736 62.349 97.3916 63.406 97.0276 64.344C96.6636 65.268 96.1736 66.052 95.5576 66.696C94.9556 67.326 94.2486 67.809 93.4366 68.145C92.6246 68.481 91.7776 68.649 90.8956 68.649C89.9436 68.649 89.0616 68.481 88.2496 68.145C87.4516 67.809 86.7516 67.326 86.1496 66.696C85.5476 66.052 85.0786 65.268 84.7426 64.344C84.4066 63.406 84.2386 62.349 84.2386 61.173C84.2386 59.969 84.4066 58.898 84.7426 57.96C85.0786 57.022 85.5476 56.231 86.1496 55.587C86.7516 54.943 87.4516 54.453 88.2496 54.117C89.0616 53.781 89.9436 53.613 90.8956 53.613C91.8336 53.613 92.7086 53.781 93.5206 54.117C94.3466 54.453 95.0536 54.943 95.6416 55.587C96.2436 56.231 96.7126 57.022 97.0486 57.96C97.3986 58.898 97.5736 59.969 97.5736 61.173ZM94.6546 61.173C94.6546 60.249 94.5566 59.465 94.3606 58.821C94.1646 58.177 93.8916 57.652 93.5416 57.246C93.2056 56.826 92.8066 56.525 92.3446 56.343C91.8966 56.161 91.4136 56.07 90.8956 56.07C90.3776 56.07 89.8876 56.161 89.4256 56.343C88.9776 56.525 88.5856 56.826 88.2496 57.246C87.9136 57.652 87.6476 58.177 87.4516 58.821C87.2696 59.465 87.1786 60.249 87.1786 61.173C87.1786 62.083 87.2696 62.86 87.4516 63.504C87.6476 64.134 87.9136 64.652 88.2496 65.058C88.5856 65.45 88.9776 65.737 89.4256 65.919C89.8876 66.087 90.3776 66.171 90.8956 66.171C91.4136 66.171 91.8966 66.087 92.3446 65.919C92.8066 65.737 93.2056 65.45 93.5416 65.058C93.8916 64.652 94.1646 64.134 94.3606 63.504C94.5566 62.86 94.6546 62.083 94.6546 61.173ZM108.095 54.663C108.277 54.425 108.466 54.243 108.662 54.117C108.872 53.977 109.145 53.907 109.481 53.907H112.169L90.1816 83.391C90.0416 83.573 89.8736 83.72 89.6776 83.832C89.4816 83.944 89.2506 84 88.9846 84H86.2126L108.095 54.663ZM114.206 76.902C114.206 78.078 114.024 79.128 113.66 80.052C113.296 80.976 112.806 81.76 112.19 82.404C111.588 83.034 110.881 83.517 110.069 83.853C109.271 84.189 108.431 84.357 107.549 84.357C106.597 84.357 105.715 84.189 104.903 83.853C104.105 83.517 103.405 83.034 102.803 82.404C102.201 81.76 101.732 80.976 101.396 80.052C101.06 79.128 100.892 78.078 100.892 76.902C100.892 75.698 101.06 74.627 101.396 73.689C101.732 72.737 102.201 71.939 102.803 71.295C103.405 70.651 104.105 70.161 104.903 69.825C105.715 69.489 106.597 69.321 107.549 69.321C108.487 69.321 109.362 69.489 110.174 69.825C110.986 70.161 111.693 70.651 112.295 71.295C112.897 71.939 113.366 72.737 113.702 73.689C114.038 74.627 114.206 75.698 114.206 76.902ZM111.308 76.902C111.308 75.978 111.21 75.194 111.014 74.55C110.818 73.892 110.545 73.36 110.195 72.954C109.859 72.548 109.46 72.254 108.998 72.072C108.55 71.89 108.067 71.799 107.549 71.799C107.031 71.799 106.541 71.89 106.079 72.072C105.631 72.254 105.239 72.548 104.903 72.954C104.567 73.36 104.301 73.892 104.105 74.55C103.923 75.194 103.832 75.978 103.832 76.902C103.832 77.812 103.923 78.582 104.105 79.212C104.301 79.842 104.567 80.36 104.903 80.766C105.239 81.158 105.631 81.445 106.079 81.627C106.541 81.795 107.031 81.879 107.549 81.879C108.067 81.879 108.55 81.795 108.998 81.627C109.46 81.445 109.859 81.158 110.195 80.766C110.545 80.36 110.818 79.842 111.014 79.212C111.21 78.582 111.308 77.812 111.308 76.902Z" fill="black"/>
<path d="M37.2687 94.402H38.1987C38.3027 94.402 38.3867 94.428 38.4507 94.48C38.5147 94.532 38.5627 94.598 38.5947 94.678L41.0247 100.744C41.0807 100.88 41.1307 101.028 41.1747 101.188C41.2227 101.348 41.2687 101.514 41.3127 101.686C41.3487 101.514 41.3867 101.348 41.4267 101.188C41.4707 101.028 41.5207 100.88 41.5767 100.744L43.9947 94.678C44.0227 94.61 44.0707 94.548 44.1387 94.492C44.2067 94.432 44.2907 94.402 44.3907 94.402H45.3267L41.8227 103H40.7727L37.2687 94.402ZM54.1746 103H53.2746C53.1706 103 53.0866 102.974 53.0226 102.922C52.9586 102.87 52.9106 102.804 52.8786 102.724L52.0746 100.648H48.2166L47.4126 102.724C47.3846 102.796 47.3366 102.86 47.2686 102.916C47.2006 102.972 47.1166 103 47.0166 103H46.1166L49.5546 94.402H50.7366L54.1746 103ZM48.5406 99.808H51.7506L50.4006 96.31C50.3126 96.094 50.2266 95.824 50.1426 95.5C50.0986 95.664 50.0546 95.816 50.0106 95.956C49.9706 96.092 49.9306 96.212 49.8906 96.316L48.5406 99.808ZM57.9209 102.022H61.6409V103H56.7569V94.402H57.9209V102.022ZM65.801 103H64.637V94.402H65.801V103ZM77.0526 98.704C77.0526 99.348 76.9506 99.934 76.7466 100.462C76.5426 100.99 76.2546 101.442 75.8826 101.818C75.5106 102.194 75.0646 102.486 74.5446 102.694C74.0246 102.898 73.4486 103 72.8166 103H69.6006V94.402H72.8166C73.4486 94.402 74.0246 94.506 74.5446 94.714C75.0646 94.918 75.5106 95.21 75.8826 95.59C76.2546 95.966 76.5426 96.418 76.7466 96.946C76.9506 97.474 77.0526 98.06 77.0526 98.704ZM75.8586 98.704C75.8586 98.176 75.7866 97.704 75.6426 97.288C75.4986 96.872 75.2946 96.52 75.0306 96.232C74.7666 95.944 74.4466 95.724 74.0706 95.572C73.6946 95.42 73.2766 95.344 72.8166 95.344H70.7706V102.058H72.8166C73.2766 102.058 73.6946 101.982 74.0706 101.83C74.4466 101.678 74.7666 101.46 75.0306 101.176C75.2946 100.888 75.4986 100.536 75.6426 100.12C75.7866 99.704 75.8586 99.232 75.8586 98.704ZM86.952 103H86.052C85.948 103 85.864 102.974 85.8 102.922C85.736 102.87 85.688 102.804 85.656 102.724L84.852 100.648H80.994L80.19 102.724C80.162 102.796 80.114 102.86 80.046 102.916C79.978 102.972 79.894 103 79.794 103H78.894L82.332 94.402H83.514L86.952 103ZM81.318 99.808H84.528L83.178 96.31C83.09 96.094 83.004 95.824 82.92 95.5C82.876 95.664 82.832 95.816 82.788 95.956C82.748 96.092 82.708 96.212 82.668 96.316L81.318 99.808ZM94.5934 94.402V95.38H91.8154V103H90.6514V95.38H87.8614V94.402H94.5934ZM102.613 94.402V95.35H98.4855V98.206H101.827V99.118H98.4855V102.052H102.613V103H97.3155V94.402H102.613ZM113.24 98.704C113.24 99.348 113.138 99.934 112.934 100.462C112.73 100.99 112.442 101.442 112.07 101.818C111.698 102.194 111.252 102.486 110.732 102.694C110.212 102.898 109.636 103 109.004 103H105.788V94.402H109.004C109.636 94.402 110.212 94.506 110.732 94.714C111.252 94.918 111.698 95.21 112.07 95.59C112.442 95.966 112.73 96.418 112.934 96.946C113.138 97.474 113.24 98.06 113.24 98.704ZM112.046 98.704C112.046 98.176 111.974 97.704 111.83 97.288C111.686 96.872 111.482 96.52 111.218 96.232C110.954 95.944 110.634 95.724 110.258 95.572C109.882 95.42 109.464 95.344 109.004 95.344H106.958V102.058H109.004C109.464 102.058 109.882 101.982 110.258 101.83C110.634 101.678 110.954 101.46 111.218 101.176C111.482 100.888 111.686 100.536 111.83 100.12C111.974 99.704 112.046 99.232 112.046 98.704Z" fill="#6A6A6A"/>
<circle cx="75.5" cy="75.5" r="71.5" stroke="#E3E3E3" stroke-width="8"/>
<path d="M75.5 4C84.8895 4 94.1871 5.8494 102.862 9.44262C111.537 13.0358 119.419 18.3025 126.058 24.9419C132.698 31.5813 137.964 39.4634 141.557 48.1381C145.151 56.8129 147 66.1105 147 75.5" stroke="#FF4944" stroke-width="8"/>
</svg>
