<svg width="456" height="88" viewBox="0 0 456 88" fill="none" xmlns="http://www.w3.org/2000/svg">
<path d="M9.352 85H7.987V80.436H2.583V85H1.218V74.969H2.583V79.442H7.987V74.969H9.352V85ZM14.411 77.797C14.8357 77.797 15.2277 77.8693 15.587 78.014C15.9464 78.154 16.2567 78.3593 16.518 78.63C16.7794 78.896 16.9824 79.2273 17.127 79.624C17.2764 80.016 17.351 80.464 17.351 80.968C17.351 81.164 17.33 81.2947 17.288 81.36C17.246 81.4253 17.1667 81.458 17.05 81.458H12.332C12.3414 81.906 12.402 82.2957 12.514 82.627C12.626 82.9583 12.78 83.236 12.976 83.46C13.172 83.6793 13.4054 83.845 13.676 83.957C13.9467 84.0643 14.25 84.118 14.586 84.118C14.8987 84.118 15.167 84.083 15.391 84.013C15.6197 83.9383 15.8157 83.859 15.979 83.775C16.1424 83.691 16.2777 83.614 16.385 83.544C16.497 83.4693 16.5927 83.432 16.672 83.432C16.7747 83.432 16.854 83.4717 16.91 83.551L17.26 84.006C17.106 84.1927 16.9217 84.356 16.707 84.496C16.4924 84.6313 16.2614 84.7433 16.014 84.832C15.7714 84.9207 15.5194 84.986 15.258 85.028C14.9967 85.0747 14.7377 85.098 14.481 85.098C13.991 85.098 13.5384 85.0163 13.123 84.853C12.7124 84.685 12.3554 84.4423 12.052 84.125C11.7534 83.803 11.52 83.4063 11.352 82.935C11.184 82.4637 11.1 81.9223 11.1 81.311C11.1 80.8163 11.1747 80.3543 11.324 79.925C11.478 79.4957 11.6974 79.1247 11.982 78.812C12.2667 78.4947 12.6144 78.2473 13.025 78.07C13.4357 77.888 13.8977 77.797 14.411 77.797ZM14.439 78.714C13.837 78.714 13.3634 78.889 13.018 79.239C12.6727 79.5843 12.458 80.065 12.374 80.681H16.231C16.231 80.3917 16.1914 80.128 16.112 79.89C16.0327 79.6473 15.916 79.4397 15.762 79.267C15.608 79.0897 15.419 78.9543 15.195 78.861C14.9757 78.763 14.7237 78.714 14.439 78.714ZM20.3318 74.689V85H19.0858V74.689H20.3318ZM22.5279 87.401V77.909H23.2699C23.4472 77.909 23.5592 77.9953 23.6059 78.168L23.7109 79.008C24.0142 78.6393 24.3595 78.343 24.7469 78.119C25.1389 77.895 25.5892 77.783 26.0979 77.783C26.5039 77.783 26.8725 77.8623 27.2039 78.021C27.5352 78.175 27.8175 78.406 28.0509 78.714C28.2842 79.0173 28.4639 79.3953 28.5899 79.848C28.7159 80.3007 28.7789 80.821 28.7789 81.409C28.7789 81.9317 28.7089 82.4193 28.5689 82.872C28.4289 83.32 28.2282 83.7097 27.9669 84.041C27.7055 84.3677 27.3835 84.6267 27.0009 84.818C26.6229 85.0047 26.1959 85.098 25.7199 85.098C25.2812 85.098 24.9055 85.0257 24.5929 84.881C24.2849 84.7363 24.0119 84.531 23.7739 84.265V87.401H22.5279ZM25.6849 78.791C25.2789 78.791 24.9219 78.8843 24.6139 79.071C24.3105 79.2577 24.0305 79.5213 23.7739 79.862V83.292C24.0025 83.6 24.2522 83.817 24.5229 83.943C24.7982 84.069 25.1039 84.132 25.4399 84.132C26.0979 84.132 26.6042 83.8963 26.9589 83.425C27.3135 82.9537 27.4909 82.2817 27.4909 81.409C27.4909 80.947 27.4489 80.5503 27.3649 80.219C27.2855 79.8877 27.1689 79.617 27.0149 79.407C26.8609 79.1923 26.6719 79.036 26.4479 78.938C26.2239 78.84 25.9695 78.791 25.6849 78.791ZM33.0595 77.797C33.4841 77.797 33.8761 77.8693 34.2355 78.014C34.5948 78.154 34.9051 78.3593 35.1665 78.63C35.4278 78.896 35.6308 79.2273 35.7755 79.624C35.9248 80.016 35.9995 80.464 35.9995 80.968C35.9995 81.164 35.9785 81.2947 35.9365 81.36C35.8945 81.4253 35.8151 81.458 35.6985 81.458H30.9805C30.9898 81.906 31.0505 82.2957 31.1625 82.627C31.2745 82.9583 31.4285 83.236 31.6245 83.46C31.8205 83.6793 32.0538 83.845 32.3245 83.957C32.5951 84.0643 32.8985 84.118 33.2345 84.118C33.5471 84.118 33.8155 84.083 34.0395 84.013C34.2681 83.9383 34.4641 83.859 34.6275 83.775C34.7908 83.691 34.9261 83.614 35.0335 83.544C35.1455 83.4693 35.2411 83.432 35.3205 83.432C35.4231 83.432 35.5025 83.4717 35.5585 83.551L35.9085 84.006C35.7545 84.1927 35.5701 84.356 35.3555 84.496C35.1408 84.6313 34.9098 84.7433 34.6625 84.832C34.4198 84.9207 34.1678 84.986 33.9065 85.028C33.6451 85.0747 33.3861 85.098 33.1295 85.098C32.6395 85.098 32.1868 85.0163 31.7715 84.853C31.3608 84.685 31.0038 84.4423 30.7005 84.125C30.4018 83.803 30.1685 83.4063 30.0005 82.935C29.8325 82.4637 29.7485 81.9223 29.7485 81.311C29.7485 80.8163 29.8231 80.3543 29.9725 79.925C30.1265 79.4957 30.3458 79.1247 30.6305 78.812C30.9151 78.4947 31.2628 78.2473 31.6735 78.07C32.0841 77.888 32.5461 77.797 33.0595 77.797ZM33.0875 78.714C32.4855 78.714 32.0118 78.889 31.6665 79.239C31.3211 79.5843 31.1065 80.065 31.0225 80.681H34.8795C34.8795 80.3917 34.8398 80.128 34.7605 79.89C34.6811 79.6473 34.5645 79.4397 34.4105 79.267C34.2565 79.0897 34.0675 78.9543 33.8435 78.861C33.6241 78.763 33.3721 78.714 33.0875 78.714ZM37.5943 85V77.909H38.3083C38.4436 77.909 38.5369 77.9347 38.5883 77.986C38.6396 78.0373 38.6746 78.126 38.6933 78.252L38.7773 79.358C39.0199 78.8633 39.3186 78.4783 39.6733 78.203C40.0326 77.923 40.4526 77.783 40.9333 77.783C41.1293 77.783 41.3066 77.8063 41.4653 77.853C41.6239 77.895 41.7709 77.9557 41.9063 78.035L41.7453 78.966C41.7126 79.0827 41.6403 79.141 41.5283 79.141C41.4629 79.141 41.3626 79.12 41.2273 79.078C41.0919 79.0313 40.9029 79.008 40.6603 79.008C40.2263 79.008 39.8623 79.134 39.5683 79.386C39.2789 79.638 39.0363 80.0043 38.8403 80.485V85H37.5943ZM48.0968 85.112C47.5368 85.112 47.1051 84.9557 46.8018 84.643C46.5031 84.3303 46.3538 83.88 46.3538 83.292V78.952H45.4998C45.4251 78.952 45.3621 78.931 45.3108 78.889C45.2594 78.8423 45.2338 78.7723 45.2338 78.679V78.182L46.3958 78.035L46.6828 75.844C46.6921 75.774 46.7224 75.718 46.7738 75.676C46.8251 75.6293 46.8904 75.606 46.9698 75.606H47.5998V78.049H49.6298V78.952H47.5998V83.208C47.5998 83.5067 47.6721 83.7283 47.8168 83.873C47.9614 84.0177 48.1481 84.09 48.3768 84.09C48.5074 84.09 48.6194 84.0737 48.7128 84.041C48.8108 84.0037 48.8948 83.964 48.9648 83.922C49.0348 83.88 49.0931 83.8427 49.1398 83.81C49.1911 83.7727 49.2354 83.754 49.2728 83.754C49.3381 83.754 49.3964 83.7937 49.4478 83.873L49.8118 84.468C49.5971 84.6687 49.3381 84.8273 49.0348 84.944C48.7314 85.056 48.4188 85.112 48.0968 85.112ZM53.9774 77.797C54.4021 77.797 54.7941 77.8693 55.1534 78.014C55.5128 78.154 55.8231 78.3593 56.0844 78.63C56.3458 78.896 56.5488 79.2273 56.6934 79.624C56.8428 80.016 56.9174 80.464 56.9174 80.968C56.9174 81.164 56.8964 81.2947 56.8544 81.36C56.8124 81.4253 56.7331 81.458 56.6164 81.458H51.8984C51.9078 81.906 51.9684 82.2957 52.0804 82.627C52.1924 82.9583 52.3464 83.236 52.5424 83.46C52.7384 83.6793 52.9718 83.845 53.2424 83.957C53.5131 84.0643 53.8164 84.118 54.1524 84.118C54.4651 84.118 54.7334 84.083 54.9574 84.013C55.1861 83.9383 55.3821 83.859 55.5454 83.775C55.7088 83.691 55.8441 83.614 55.9514 83.544C56.0634 83.4693 56.1591 83.432 56.2384 83.432C56.3411 83.432 56.4204 83.4717 56.4764 83.551L56.8264 84.006C56.6724 84.1927 56.4881 84.356 56.2734 84.496C56.0588 84.6313 55.8278 84.7433 55.5804 84.832C55.3378 84.9207 55.0858 84.986 54.8244 85.028C54.5631 85.0747 54.3041 85.098 54.0474 85.098C53.5574 85.098 53.1048 85.0163 52.6894 84.853C52.2788 84.685 51.9218 84.4423 51.6184 84.125C51.3198 83.803 51.0864 83.4063 50.9184 82.935C50.7504 82.4637 50.6664 81.9223 50.6664 81.311C50.6664 80.8163 50.7411 80.3543 50.8904 79.925C51.0444 79.4957 51.2638 79.1247 51.5484 78.812C51.8331 78.4947 52.1808 78.2473 52.5914 78.07C53.0021 77.888 53.4641 77.797 53.9774 77.797ZM54.0054 78.714C53.4034 78.714 52.9298 78.889 52.5844 79.239C52.2391 79.5843 52.0244 80.065 51.9404 80.681H55.7974C55.7974 80.3917 55.7578 80.128 55.6784 79.89C55.5991 79.6473 55.4824 79.4397 55.3284 79.267C55.1744 79.0897 54.9854 78.9543 54.7614 78.861C54.5421 78.763 54.2901 78.714 54.0054 78.714ZM59.7474 81.367L57.3604 77.909H58.5574C58.6601 77.909 58.7347 77.9253 58.7814 77.958C58.8281 77.9907 58.8701 78.0373 58.9074 78.098L60.6434 80.758C60.6854 80.6273 60.7461 80.4967 60.8254 80.366L62.3514 78.126C62.3981 78.0607 62.4447 78.0093 62.4914 77.972C62.5381 77.93 62.5964 77.909 62.6664 77.909H63.8144L61.4274 81.297L63.9124 85H62.7154C62.6127 85 62.5311 84.9743 62.4704 84.923C62.4144 84.867 62.3677 84.8063 62.3304 84.741L60.5454 81.962C60.5127 82.0973 60.4637 82.2187 60.3984 82.326L58.7464 84.741C58.6997 84.8063 58.6484 84.867 58.5924 84.923C58.5411 84.9743 58.4687 85 58.3754 85H57.2624L59.7474 81.367ZM67.2921 85.112C66.7321 85.112 66.3004 84.9557 65.9971 84.643C65.6984 84.3303 65.5491 83.88 65.5491 83.292V78.952H64.6951C64.6204 78.952 64.5574 78.931 64.5061 78.889C64.4548 78.8423 64.4291 78.7723 64.4291 78.679V78.182L65.5911 78.035L65.8781 75.844C65.8874 75.774 65.9178 75.718 65.9691 75.676C66.0204 75.6293 66.0858 75.606 66.1651 75.606H66.7951V78.049H68.8251V78.952H66.7951V83.208C66.7951 83.5067 66.8674 83.7283 67.0121 83.873C67.1568 84.0177 67.3434 84.09 67.5721 84.09C67.7028 84.09 67.8148 84.0737 67.9081 84.041C68.0061 84.0037 68.0901 83.964 68.1601 83.922C68.2301 83.88 68.2884 83.8427 68.3351 83.81C68.3864 83.7727 68.4308 83.754 68.4681 83.754C68.5334 83.754 68.5918 83.7937 68.6431 83.873L69.0071 84.468C68.7924 84.6687 68.5334 84.8273 68.2301 84.944C67.9268 85.056 67.6141 85.112 67.2921 85.112Z" fill="#6A6A6A"/>
<path d="M2.944 14.696H7.904V16H1.392V4.536H2.944V14.696ZM15.3388 16H14.7068C14.5681 16 14.4561 15.9787 14.3708 15.936C14.2854 15.8933 14.2294 15.8027 14.2028 15.664L14.0428 14.912C13.8294 15.104 13.6214 15.2773 13.4188 15.432C13.2161 15.5813 13.0028 15.7093 12.7788 15.816C12.5548 15.9173 12.3148 15.9947 12.0588 16.048C11.8081 16.1013 11.5281 16.128 11.2188 16.128C10.9041 16.128 10.6081 16.0853 10.3307 16C10.0588 15.9093 9.82142 15.776 9.61875 15.6C9.41608 15.424 9.25342 15.2027 9.13075 14.936C9.01342 14.664 8.95475 14.344 8.95475 13.976C8.95475 13.656 9.04275 13.3493 9.21875 13.056C9.39475 12.7573 9.67742 12.4933 10.0668 12.264C10.4614 12.0347 10.9761 11.848 11.6108 11.704C12.2454 11.5547 13.0214 11.4693 13.9388 11.448V10.816C13.9388 10.1867 13.8028 9.712 13.5308 9.392C13.2641 9.06667 12.8668 8.904 12.3388 8.904C11.9921 8.904 11.6988 8.94933 11.4588 9.04C11.2241 9.12533 11.0188 9.224 10.8428 9.336C10.6721 9.44267 10.5228 9.54133 10.3948 9.632C10.2721 9.71733 10.1494 9.76 10.0268 9.76C9.93075 9.76 9.84542 9.736 9.77075 9.688C9.70142 9.63467 9.64542 9.57067 9.60275 9.496L9.34675 9.04C9.79475 8.608 10.2774 8.28533 10.7948 8.072C11.3121 7.85867 11.8854 7.752 12.5148 7.752C12.9681 7.752 13.3708 7.82667 13.7228 7.976C14.0748 8.12533 14.3708 8.33333 14.6108 8.6C14.8508 8.86667 15.0321 9.18933 15.1548 9.568C15.2774 9.94667 15.3388 10.3627 15.3388 10.816V16ZM11.6428 15.128C11.8934 15.128 12.1228 15.104 12.3307 15.056C12.5388 15.0027 12.7334 14.9307 12.9148 14.84C13.1014 14.744 13.2774 14.6293 13.4428 14.496C13.6134 14.3627 13.7788 14.2107 13.9388 14.04V12.352C13.2828 12.3733 12.7254 12.4267 12.2668 12.512C11.8081 12.592 11.4348 12.6987 11.1468 12.832C10.8588 12.9653 10.6481 13.1227 10.5148 13.304C10.3868 13.4853 10.3228 13.688 10.3228 13.912C10.3228 14.1253 10.3574 14.3093 10.4268 14.464C10.4961 14.6187 10.5894 14.7467 10.7068 14.848C10.8241 14.944 10.9628 15.016 11.1228 15.064C11.2828 15.1067 11.4561 15.128 11.6428 15.128ZM17.5441 16V4.216H18.9761V9.064C19.3121 8.67467 19.6961 8.36267 20.1281 8.128C20.5655 7.888 21.0641 7.768 21.6241 7.768C22.0935 7.768 22.5175 7.856 22.8961 8.032C23.2748 8.208 23.5975 8.472 23.8641 8.824C24.1308 9.17067 24.3361 9.60267 24.4801 10.12C24.6241 10.632 24.6961 11.224 24.6961 11.896C24.6961 12.4933 24.6161 13.0507 24.4561 13.568C24.2961 14.08 24.0641 14.5253 23.7601 14.904C23.4615 15.2773 23.0935 15.5733 22.6561 15.792C22.2241 16.0053 21.7361 16.112 21.1921 16.112C20.6695 16.112 20.2241 16.0107 19.8561 15.808C19.4935 15.6053 19.1761 15.3227 18.9041 14.96L18.8321 15.696C18.7895 15.8987 18.6668 16 18.4641 16H17.5441ZM21.1601 8.904C20.6961 8.904 20.2881 9.01067 19.9361 9.224C19.5895 9.43733 19.2695 9.73867 18.9761 10.128V14.048C19.2321 14.4 19.5148 14.648 19.8241 14.792C20.1388 14.936 20.4881 15.008 20.8721 15.008C21.6295 15.008 22.2108 14.7387 22.6161 14.2C23.0215 13.6613 23.2241 12.8933 23.2241 11.896C23.2241 11.368 23.1761 10.9147 23.0801 10.536C22.9895 10.1573 22.8561 9.848 22.6801 9.608C22.5041 9.36267 22.2881 9.184 22.0321 9.072C21.7761 8.96 21.4855 8.904 21.1601 8.904ZM29.6416 7.768C30.127 7.768 30.575 7.85067 30.9856 8.016C31.3963 8.176 31.751 8.41067 32.0496 8.72C32.3483 9.024 32.5803 9.40267 32.7456 9.856C32.9163 10.304 33.0016 10.816 33.0016 11.392C33.0016 11.616 32.9776 11.7653 32.9296 11.84C32.8816 11.9147 32.791 11.952 32.6576 11.952H27.2656C27.2763 12.464 27.3456 12.9093 27.4736 13.288C27.6016 13.6667 27.7776 13.984 28.0016 14.24C28.2256 14.4907 28.4923 14.68 28.8016 14.808C29.111 14.9307 29.4576 14.992 29.8416 14.992C30.199 14.992 30.5056 14.952 30.7616 14.872C31.023 14.7867 31.247 14.696 31.4336 14.6C31.6203 14.504 31.775 14.416 31.8976 14.336C32.0256 14.2507 32.135 14.208 32.2256 14.208C32.343 14.208 32.4336 14.2533 32.4976 14.344L32.8976 14.864C32.7216 15.0773 32.511 15.264 32.2656 15.424C32.0203 15.5787 31.7563 15.7067 31.4736 15.808C31.1963 15.9093 30.9083 15.984 30.6096 16.032C30.311 16.0853 30.015 16.112 29.7216 16.112C29.1616 16.112 28.6443 16.0187 28.1696 15.832C27.7003 15.64 27.2923 15.3627 26.9456 15C26.6043 14.632 26.3376 14.1787 26.1456 13.64C25.9536 13.1013 25.8576 12.4827 25.8576 11.784C25.8576 11.2187 25.943 10.6907 26.1136 10.2C26.2896 9.70933 26.5403 9.28533 26.8656 8.928C27.191 8.56533 27.5883 8.28267 28.0576 8.08C28.527 7.872 29.055 7.768 29.6416 7.768ZM29.6736 8.816C28.9856 8.816 28.4443 9.016 28.0496 9.416C27.655 9.81067 27.4096 10.36 27.3136 11.064H31.7216C31.7216 10.7333 31.6763 10.432 31.5856 10.16C31.495 9.88267 31.3616 9.64533 31.1856 9.448C31.0096 9.24533 30.7936 9.09067 30.5376 8.984C30.287 8.872 29.999 8.816 29.6736 8.816ZM36.4083 4.216V16H34.9843V4.216H36.4083Z" fill="black"/>
<rect x="0.5" y="28.5" width="455" height="37" rx="3.5" stroke="#D8D8D8"/>
<path d="M19.032 48.856C19.1067 48.984 19.1707 49.12 19.224 49.264C19.2827 49.4027 19.3387 49.544 19.392 49.688C19.4453 49.5387 19.5013 49.3973 19.56 49.264C19.6187 49.1253 19.6853 48.9867 19.76 48.848L23.64 41.8C23.7093 41.6773 23.7813 41.6027 23.856 41.576C23.9307 41.5493 24.0373 41.536 24.176 41.536H25.32V53H23.96V44.576C23.96 44.464 23.9627 44.344 23.968 44.216C23.9733 44.088 23.9813 43.9573 23.992 43.824L20.064 50.992C19.9307 51.232 19.744 51.352 19.504 51.352H19.28C19.04 51.352 18.8533 51.232 18.72 50.992L14.704 43.8C14.72 43.9387 14.7307 44.0747 14.736 44.208C14.7467 44.3413 14.752 44.464 14.752 44.576V53H13.392V41.536H14.536C14.6747 41.536 14.7813 41.5493 14.856 41.576C14.9307 41.6027 15.0027 41.6773 15.072 41.8L19.032 48.856ZM31.0948 44.768C31.5801 44.768 32.0281 44.8507 32.4388 45.016C32.8494 45.176 33.2041 45.4107 33.5028 45.72C33.8014 46.024 34.0334 46.4027 34.1988 46.856C34.3694 47.304 34.4548 47.816 34.4548 48.392C34.4548 48.616 34.4308 48.7653 34.3828 48.84C34.3348 48.9147 34.2441 48.952 34.1108 48.952H28.7188C28.7294 49.464 28.7988 49.9093 28.9268 50.288C29.0548 50.6667 29.2308 50.984 29.4548 51.24C29.6788 51.4907 29.9454 51.68 30.2548 51.808C30.5641 51.9307 30.9108 51.992 31.2948 51.992C31.6521 51.992 31.9588 51.952 32.2148 51.872C32.4761 51.7867 32.7001 51.696 32.8868 51.6C33.0734 51.504 33.2281 51.416 33.3508 51.336C33.4788 51.2507 33.5881 51.208 33.6788 51.208C33.7961 51.208 33.8868 51.2533 33.9508 51.344L34.3508 51.864C34.1748 52.0773 33.9641 52.264 33.7188 52.424C33.4734 52.5787 33.2094 52.7067 32.9268 52.808C32.6494 52.9093 32.3614 52.984 32.0628 53.032C31.7641 53.0853 31.4681 53.112 31.1748 53.112C30.6148 53.112 30.0974 53.0187 29.6228 52.832C29.1534 52.64 28.7454 52.3627 28.3988 52C28.0574 51.632 27.7908 51.1787 27.5988 50.64C27.4068 50.1013 27.3108 49.4827 27.3108 48.784C27.3108 48.2187 27.3961 47.6907 27.5668 47.2C27.7428 46.7093 27.9934 46.2853 28.3188 45.928C28.6441 45.5653 29.0414 45.2827 29.5108 45.08C29.9801 44.872 30.5081 44.768 31.0948 44.768ZM31.1267 45.816C30.4388 45.816 29.8974 46.016 29.5028 46.416C29.1081 46.8107 28.8628 47.36 28.7668 48.064H33.1748C33.1748 47.7333 33.1294 47.432 33.0388 47.16C32.9481 46.8827 32.8148 46.6453 32.6388 46.448C32.4628 46.2453 32.2468 46.0907 31.9908 45.984C31.7401 45.872 31.4521 45.816 31.1267 45.816ZM36.2774 53V44.896H37.1254C37.328 44.896 37.456 44.9947 37.5094 45.192L37.6214 46.072C37.9734 45.6827 38.3654 45.368 38.7974 45.128C39.2347 44.888 39.7387 44.768 40.3094 44.768C40.752 44.768 41.1414 44.8427 41.4774 44.992C41.8187 45.136 42.1014 45.344 42.3254 45.616C42.5547 45.8827 42.728 46.2053 42.8454 46.584C42.9627 46.9627 43.0214 47.3813 43.0214 47.84V53H41.5974V47.84C41.5974 47.2267 41.456 46.752 41.1734 46.416C40.896 46.0747 40.4694 45.904 39.8934 45.904C39.472 45.904 39.0774 46.0053 38.7094 46.208C38.3467 46.4107 38.0107 46.6853 37.7014 47.032V53H36.2774ZM46.4 44.896V50.064C46.4 50.6773 46.5413 51.152 46.824 51.488C47.1067 51.824 47.5333 51.992 48.104 51.992C48.52 51.992 48.912 51.8933 49.28 51.696C49.648 51.4987 49.9867 51.224 50.296 50.872V44.896H51.72V53H50.872C50.6693 53 50.5413 52.9013 50.488 52.704L50.376 51.832C50.024 52.2213 49.6293 52.536 49.192 52.776C48.7547 53.0107 48.2533 53.128 47.688 53.128C47.2453 53.128 46.8533 53.056 46.512 52.912C46.176 52.7627 45.8933 52.5547 45.664 52.288C45.4347 52.0213 45.2613 51.6987 45.144 51.32C45.032 50.9413 44.976 50.5227 44.976 50.064V44.896H46.4ZM60.4324 44.768C61.0244 44.768 61.5577 44.8667 62.0324 45.064C62.5124 45.2613 62.9177 45.5413 63.2484 45.904C63.5844 46.2667 63.8404 46.7067 64.0164 47.224C64.1977 47.736 64.2884 48.3093 64.2884 48.944C64.2884 49.584 64.1977 50.16 64.0164 50.672C63.8404 51.184 63.5844 51.6213 63.2484 51.984C62.9177 52.3467 62.5124 52.6267 62.0324 52.824C61.5577 53.016 61.0244 53.112 60.4324 53.112C59.8404 53.112 59.3044 53.016 58.8244 52.824C58.3497 52.6267 57.9444 52.3467 57.6084 51.984C57.2724 51.6213 57.0137 51.184 56.8324 50.672C56.651 50.16 56.5604 49.584 56.5604 48.944C56.5604 48.3093 56.651 47.736 56.8324 47.224C57.0137 46.7067 57.2724 46.2667 57.6084 45.904C57.9444 45.5413 58.3497 45.2613 58.8244 45.064C59.3044 44.8667 59.8404 44.768 60.4324 44.768ZM60.4324 52C61.2324 52 61.8297 51.7333 62.2244 51.2C62.619 50.6613 62.8164 49.912 62.8164 48.952C62.8164 47.9867 62.619 47.2347 62.2244 46.696C61.8297 46.1573 61.2324 45.888 60.4324 45.888C60.027 45.888 59.675 45.9573 59.3764 46.096C59.0777 46.2347 58.827 46.4347 58.6244 46.696C58.427 46.9573 58.2777 47.28 58.1764 47.664C58.0804 48.0427 58.0324 48.472 58.0324 48.952C58.0324 49.432 58.0804 49.8613 58.1764 50.24C58.2777 50.6187 58.427 50.9387 58.6244 51.2C58.827 51.456 59.0777 51.6533 59.3764 51.792C59.675 51.9307 60.027 52 60.4324 52ZM66.043 55.744V44.896H66.891C67.0937 44.896 67.2217 44.9947 67.275 45.192L67.395 46.152C67.7417 45.7307 68.1363 45.392 68.579 45.136C69.027 44.88 69.5417 44.752 70.123 44.752C70.587 44.752 71.0083 44.8427 71.387 45.024C71.7657 45.2 72.0883 45.464 72.355 45.816C72.6217 46.1627 72.827 46.5947 72.971 47.112C73.115 47.6293 73.187 48.224 73.187 48.896C73.187 49.4933 73.107 50.0507 72.947 50.568C72.787 51.08 72.5577 51.5253 72.259 51.904C71.9603 52.2773 71.5923 52.5733 71.155 52.792C70.723 53.0053 70.235 53.112 69.691 53.112C69.1897 53.112 68.7603 53.0293 68.403 52.864C68.051 52.6987 67.739 52.464 67.467 52.16V55.744H66.043ZM69.651 45.904C69.187 45.904 68.779 46.0107 68.427 46.224C68.0803 46.4373 67.7603 46.7387 67.467 47.128V51.048C67.7283 51.4 68.0137 51.648 68.323 51.792C68.6377 51.936 68.987 52.008 69.371 52.008C70.123 52.008 70.7017 51.7387 71.107 51.2C71.5123 50.6613 71.715 49.8933 71.715 48.896C71.715 48.368 71.667 47.9147 71.571 47.536C71.4803 47.1573 71.347 46.848 71.171 46.608C70.995 46.3627 70.779 46.184 70.523 46.072C70.267 45.96 69.9763 45.904 69.651 45.904ZM77.3271 53.128C76.6871 53.128 76.1938 52.9493 75.8471 52.592C75.5058 52.2347 75.3351 51.72 75.3351 51.048V46.088H74.3591C74.2738 46.088 74.2018 46.064 74.1431 46.016C74.0845 45.9627 74.0551 45.8827 74.0551 45.776V45.208L75.3831 45.04L75.7111 42.536C75.7218 42.456 75.7565 42.392 75.8151 42.344C75.8738 42.2907 75.9485 42.264 76.0391 42.264H76.7591V45.056H79.0791V46.088H76.7591V50.952C76.7591 51.2933 76.8418 51.5467 77.0071 51.712C77.1725 51.8773 77.3858 51.96 77.6471 51.96C77.7965 51.96 77.9245 51.9413 78.0311 51.904C78.1431 51.8613 78.2391 51.816 78.3191 51.768C78.3991 51.72 78.4658 51.6773 78.5191 51.64C78.5778 51.5973 78.6285 51.576 78.6711 51.576C78.7458 51.576 78.8125 51.6213 78.8711 51.712L79.2871 52.392C79.0418 52.6213 78.7458 52.8027 78.3991 52.936C78.0525 53.064 77.6951 53.128 77.3271 53.128ZM82.4239 44.896V53H80.9999V44.896H82.4239ZM82.7439 42.352C82.7439 42.4907 82.7145 42.6213 82.6559 42.744C82.6025 42.8613 82.5279 42.968 82.4319 43.064C82.3412 43.1547 82.2345 43.2267 82.1119 43.28C81.9892 43.3333 81.8585 43.36 81.7199 43.36C81.5812 43.36 81.4505 43.3333 81.3279 43.28C81.2105 43.2267 81.1039 43.1547 81.0079 43.064C80.9172 42.968 80.8452 42.8613 80.7919 42.744C80.7385 42.6213 80.7119 42.4907 80.7119 42.352C80.7119 42.2133 80.7385 42.0827 80.7919 41.96C80.8452 41.832 80.9172 41.7227 81.0079 41.632C81.1039 41.536 81.2105 41.4613 81.3279 41.408C81.4505 41.3547 81.5812 41.328 81.7199 41.328C81.8585 41.328 81.9892 41.3547 82.1119 41.408C82.2345 41.4613 82.3412 41.536 82.4319 41.632C82.5279 41.7227 82.6025 41.832 82.6559 41.96C82.7145 42.0827 82.7439 42.2133 82.7439 42.352ZM88.2136 44.768C88.8056 44.768 89.339 44.8667 89.8136 45.064C90.2936 45.2613 90.699 45.5413 91.0296 45.904C91.3656 46.2667 91.6216 46.7067 91.7976 47.224C91.979 47.736 92.0696 48.3093 92.0696 48.944C92.0696 49.584 91.979 50.16 91.7976 50.672C91.6216 51.184 91.3656 51.6213 91.0296 51.984C90.699 52.3467 90.2936 52.6267 89.8136 52.824C89.339 53.016 88.8056 53.112 88.2136 53.112C87.6216 53.112 87.0856 53.016 86.6056 52.824C86.131 52.6267 85.7256 52.3467 85.3896 51.984C85.0536 51.6213 84.795 51.184 84.6136 50.672C84.4323 50.16 84.3416 49.584 84.3416 48.944C84.3416 48.3093 84.4323 47.736 84.6136 47.224C84.795 46.7067 85.0536 46.2667 85.3896 45.904C85.7256 45.5413 86.131 45.2613 86.6056 45.064C87.0856 44.8667 87.6216 44.768 88.2136 44.768ZM88.2136 52C89.0136 52 89.611 51.7333 90.0056 51.2C90.4003 50.6613 90.5976 49.912 90.5976 48.952C90.5976 47.9867 90.4003 47.2347 90.0056 46.696C89.611 46.1573 89.0136 45.888 88.2136 45.888C87.8083 45.888 87.4563 45.9573 87.1576 46.096C86.859 46.2347 86.6083 46.4347 86.4056 46.696C86.2083 46.9573 86.059 47.28 85.9576 47.664C85.8616 48.0427 85.8136 48.472 85.8136 48.952C85.8136 49.432 85.8616 49.8613 85.9576 50.24C86.059 50.6187 86.2083 50.9387 86.4056 51.2C86.6083 51.456 86.859 51.6533 87.1576 51.792C87.4563 51.9307 87.8083 52 88.2136 52ZM93.8243 53V44.896H94.6723C94.8749 44.896 95.0029 44.9947 95.0563 45.192L95.1683 46.072C95.5203 45.6827 95.9123 45.368 96.3443 45.128C96.7816 44.888 97.2856 44.768 97.8563 44.768C98.2989 44.768 98.6883 44.8427 99.0243 44.992C99.3656 45.136 99.6483 45.344 99.8723 45.616C100.102 45.8827 100.275 46.2053 100.392 46.584C100.51 46.9627 100.568 47.3813 100.568 47.84V53H99.1443V47.84C99.1443 47.2267 99.0029 46.752 98.7203 46.416C98.4429 46.0747 98.0163 45.904 97.4403 45.904C97.0189 45.904 96.6243 46.0053 96.2563 46.208C95.8936 46.4107 95.5576 46.6853 95.2483 47.032V53H93.8243ZM107.355 46.232C107.291 46.3493 107.192 46.408 107.059 46.408C106.979 46.408 106.888 46.3787 106.787 46.32C106.686 46.2613 106.56 46.1973 106.411 46.128C106.267 46.0533 106.094 45.9867 105.891 45.928C105.688 45.864 105.448 45.832 105.171 45.832C104.931 45.832 104.715 45.864 104.523 45.928C104.331 45.9867 104.166 46.0693 104.027 46.176C103.894 46.2827 103.79 46.408 103.715 46.552C103.646 46.6907 103.611 46.8427 103.611 47.008C103.611 47.216 103.67 47.3893 103.787 47.528C103.91 47.6667 104.07 47.7867 104.267 47.888C104.464 47.9893 104.688 48.08 104.939 48.16C105.19 48.2347 105.446 48.3173 105.707 48.408C105.974 48.4933 106.232 48.5893 106.483 48.696C106.734 48.8027 106.958 48.936 107.155 49.096C107.352 49.256 107.51 49.4533 107.627 49.688C107.75 49.9173 107.811 50.1947 107.811 50.52C107.811 50.8933 107.744 51.24 107.611 51.56C107.478 51.8747 107.28 52.1493 107.019 52.384C106.758 52.6133 106.438 52.7947 106.059 52.928C105.68 53.0613 105.243 53.128 104.747 53.128C104.182 53.128 103.67 53.0373 103.211 52.856C102.752 52.6693 102.363 52.432 102.043 52.144L102.379 51.6C102.422 51.5307 102.472 51.4773 102.531 51.44C102.59 51.4027 102.667 51.384 102.763 51.384C102.859 51.384 102.96 51.4213 103.067 51.496C103.174 51.5707 103.302 51.6533 103.451 51.744C103.606 51.8347 103.79 51.9173 104.003 51.992C104.222 52.0667 104.494 52.104 104.819 52.104C105.096 52.104 105.339 52.0693 105.547 52C105.755 51.9253 105.928 51.8267 106.067 51.704C106.206 51.5813 106.307 51.44 106.371 51.28C106.44 51.12 106.475 50.9493 106.475 50.768C106.475 50.544 106.414 50.36 106.291 50.216C106.174 50.0667 106.016 49.9413 105.819 49.84C105.622 49.7333 105.395 49.6427 105.139 49.568C104.888 49.488 104.63 49.4053 104.363 49.32C104.102 49.2347 103.843 49.1387 103.587 49.032C103.336 48.92 103.112 48.7813 102.915 48.616C102.718 48.4507 102.558 48.248 102.435 48.008C102.318 47.7627 102.259 47.4667 102.259 47.12C102.259 46.8107 102.323 46.5147 102.451 46.232C102.579 45.944 102.766 45.6933 103.011 45.48C103.256 45.2613 103.558 45.088 103.915 44.96C104.272 44.832 104.68 44.768 105.139 44.768C105.672 44.768 106.15 44.8533 106.571 45.024C106.998 45.1893 107.366 45.4187 107.675 45.712L107.355 46.232Z" fill="black"/>
<path fill-rule="evenodd" clip-rule="evenodd" d="M430.707 44.7071C431.098 44.3166 431.731 44.3166 432.121 44.7071L436.707 49.2929C437.098 49.6834 437.098 50.3166 436.707 50.7071C436.317 51.0976 435.683 51.0976 435.293 50.7071L430.707 46.1213C430.317 45.7308 430.317 45.0976 430.707 44.7071Z" fill="black"/>
<path fill-rule="evenodd" clip-rule="evenodd" d="M441.293 44.7071C440.902 44.3166 440.269 44.3166 439.879 44.7071L435.293 49.2929C434.902 49.6834 434.902 50.3166 435.293 50.7071C435.683 51.0976 436.317 51.0976 436.707 50.7071L441.293 46.1213C441.683 45.7308 441.683 45.0976 441.293 44.7071Z" fill="black"/>
</svg>
