<svg width="456" height="297" viewBox="0 0 456 297" fill="none" xmlns="http://www.w3.org/2000/svg">
<path d="M9.352 85H7.987V80.436H2.583V85H1.218V74.969H2.583V79.442H7.987V74.969H9.352V85ZM14.411 77.797C14.8357 77.797 15.2277 77.8693 15.587 78.014C15.9464 78.154 16.2567 78.3593 16.518 78.63C16.7794 78.896 16.9824 79.2273 17.127 79.624C17.2764 80.016 17.351 80.464 17.351 80.968C17.351 81.164 17.33 81.2947 17.288 81.36C17.246 81.4253 17.1667 81.458 17.05 81.458H12.332C12.3414 81.906 12.402 82.2957 12.514 82.627C12.626 82.9583 12.78 83.236 12.976 83.46C13.172 83.6793 13.4054 83.845 13.676 83.957C13.9467 84.0643 14.25 84.118 14.586 84.118C14.8987 84.118 15.167 84.083 15.391 84.013C15.6197 83.9383 15.8157 83.859 15.979 83.775C16.1424 83.691 16.2777 83.614 16.385 83.544C16.497 83.4693 16.5927 83.432 16.672 83.432C16.7747 83.432 16.854 83.4717 16.91 83.551L17.26 84.006C17.106 84.1927 16.9217 84.356 16.707 84.496C16.4924 84.6313 16.2614 84.7433 16.014 84.832C15.7714 84.9207 15.5194 84.986 15.258 85.028C14.9967 85.0747 14.7377 85.098 14.481 85.098C13.991 85.098 13.5384 85.0163 13.123 84.853C12.7124 84.685 12.3554 84.4423 12.052 84.125C11.7534 83.803 11.52 83.4063 11.352 82.935C11.184 82.4637 11.1 81.9223 11.1 81.311C11.1 80.8163 11.1747 80.3543 11.324 79.925C11.478 79.4957 11.6974 79.1247 11.982 78.812C12.2667 78.4947 12.6144 78.2473 13.025 78.07C13.4357 77.888 13.8977 77.797 14.411 77.797ZM14.439 78.714C13.837 78.714 13.3634 78.889 13.018 79.239C12.6727 79.5843 12.458 80.065 12.374 80.681H16.231C16.231 80.3917 16.1914 80.128 16.112 79.89C16.0327 79.6473 15.916 79.4397 15.762 79.267C15.608 79.0897 15.419 78.9543 15.195 78.861C14.9757 78.763 14.7237 78.714 14.439 78.714ZM20.3318 74.689V85H19.0858V74.689H20.3318ZM22.5279 87.401V77.909H23.2699C23.4472 77.909 23.5592 77.9953 23.6059 78.168L23.7109 79.008C24.0142 78.6393 24.3595 78.343 24.7469 78.119C25.1389 77.895 25.5892 77.783 26.0979 77.783C26.5039 77.783 26.8725 77.8623 27.2039 78.021C27.5352 78.175 27.8175 78.406 28.0509 78.714C28.2842 79.0173 28.4639 79.3953 28.5899 79.848C28.7159 80.3007 28.7789 80.821 28.7789 81.409C28.7789 81.9317 28.7089 82.4193 28.5689 82.872C28.4289 83.32 28.2282 83.7097 27.9669 84.041C27.7055 84.3677 27.3835 84.6267 27.0009 84.818C26.6229 85.0047 26.1959 85.098 25.7199 85.098C25.2812 85.098 24.9055 85.0257 24.5929 84.881C24.2849 84.7363 24.0119 84.531 23.7739 84.265V87.401H22.5279ZM25.6849 78.791C25.2789 78.791 24.9219 78.8843 24.6139 79.071C24.3105 79.2577 24.0305 79.5213 23.7739 79.862V83.292C24.0025 83.6 24.2522 83.817 24.5229 83.943C24.7982 84.069 25.1039 84.132 25.4399 84.132C26.0979 84.132 26.6042 83.8963 26.9589 83.425C27.3135 82.9537 27.4909 82.2817 27.4909 81.409C27.4909 80.947 27.4489 80.5503 27.3649 80.219C27.2855 79.8877 27.1689 79.617 27.0149 79.407C26.8609 79.1923 26.6719 79.036 26.4479 78.938C26.2239 78.84 25.9695 78.791 25.6849 78.791ZM33.0595 77.797C33.4841 77.797 33.8761 77.8693 34.2355 78.014C34.5948 78.154 34.9051 78.3593 35.1665 78.63C35.4278 78.896 35.6308 79.2273 35.7755 79.624C35.9248 80.016 35.9995 80.464 35.9995 80.968C35.9995 81.164 35.9785 81.2947 35.9365 81.36C35.8945 81.4253 35.8151 81.458 35.6985 81.458H30.9805C30.9898 81.906 31.0505 82.2957 31.1625 82.627C31.2745 82.9583 31.4285 83.236 31.6245 83.46C31.8205 83.6793 32.0538 83.845 32.3245 83.957C32.5951 84.0643 32.8985 84.118 33.2345 84.118C33.5471 84.118 33.8155 84.083 34.0395 84.013C34.2681 83.9383 34.4641 83.859 34.6275 83.775C34.7908 83.691 34.9261 83.614 35.0335 83.544C35.1455 83.4693 35.2411 83.432 35.3205 83.432C35.4231 83.432 35.5025 83.4717 35.5585 83.551L35.9085 84.006C35.7545 84.1927 35.5701 84.356 35.3555 84.496C35.1408 84.6313 34.9098 84.7433 34.6625 84.832C34.4198 84.9207 34.1678 84.986 33.9065 85.028C33.6451 85.0747 33.3861 85.098 33.1295 85.098C32.6395 85.098 32.1868 85.0163 31.7715 84.853C31.3608 84.685 31.0038 84.4423 30.7005 84.125C30.4018 83.803 30.1685 83.4063 30.0005 82.935C29.8325 82.4637 29.7485 81.9223 29.7485 81.311C29.7485 80.8163 29.8231 80.3543 29.9725 79.925C30.1265 79.4957 30.3458 79.1247 30.6305 78.812C30.9151 78.4947 31.2628 78.2473 31.6735 78.07C32.0841 77.888 32.5461 77.797 33.0595 77.797ZM33.0875 78.714C32.4855 78.714 32.0118 78.889 31.6665 79.239C31.3211 79.5843 31.1065 80.065 31.0225 80.681H34.8795C34.8795 80.3917 34.8398 80.128 34.7605 79.89C34.6811 79.6473 34.5645 79.4397 34.4105 79.267C34.2565 79.0897 34.0675 78.9543 33.8435 78.861C33.6241 78.763 33.3721 78.714 33.0875 78.714ZM37.5943 85V77.909H38.3083C38.4436 77.909 38.5369 77.9347 38.5883 77.986C38.6396 78.0373 38.6746 78.126 38.6933 78.252L38.7773 79.358C39.0199 78.8633 39.3186 78.4783 39.6733 78.203C40.0326 77.923 40.4526 77.783 40.9333 77.783C41.1293 77.783 41.3066 77.8063 41.4653 77.853C41.6239 77.895 41.7709 77.9557 41.9063 78.035L41.7453 78.966C41.7126 79.0827 41.6403 79.141 41.5283 79.141C41.4629 79.141 41.3626 79.12 41.2273 79.078C41.0919 79.0313 40.9029 79.008 40.6603 79.008C40.2263 79.008 39.8623 79.134 39.5683 79.386C39.2789 79.638 39.0363 80.0043 38.8403 80.485V85H37.5943ZM48.0968 85.112C47.5368 85.112 47.1051 84.9557 46.8018 84.643C46.5031 84.3303 46.3538 83.88 46.3538 83.292V78.952H45.4998C45.4251 78.952 45.3621 78.931 45.3108 78.889C45.2594 78.8423 45.2338 78.7723 45.2338 78.679V78.182L46.3958 78.035L46.6828 75.844C46.6921 75.774 46.7224 75.718 46.7738 75.676C46.8251 75.6293 46.8904 75.606 46.9698 75.606H47.5998V78.049H49.6298V78.952H47.5998V83.208C47.5998 83.5067 47.6721 83.7283 47.8168 83.873C47.9614 84.0177 48.1481 84.09 48.3768 84.09C48.5074 84.09 48.6194 84.0737 48.7128 84.041C48.8108 84.0037 48.8948 83.964 48.9648 83.922C49.0348 83.88 49.0931 83.8427 49.1398 83.81C49.1911 83.7727 49.2354 83.754 49.2728 83.754C49.3381 83.754 49.3964 83.7937 49.4478 83.873L49.8118 84.468C49.5971 84.6687 49.3381 84.8273 49.0348 84.944C48.7314 85.056 48.4188 85.112 48.0968 85.112ZM53.9774 77.797C54.4021 77.797 54.7941 77.8693 55.1534 78.014C55.5128 78.154 55.8231 78.3593 56.0844 78.63C56.3458 78.896 56.5488 79.2273 56.6934 79.624C56.8428 80.016 56.9174 80.464 56.9174 80.968C56.9174 81.164 56.8964 81.2947 56.8544 81.36C56.8124 81.4253 56.7331 81.458 56.6164 81.458H51.8984C51.9078 81.906 51.9684 82.2957 52.0804 82.627C52.1924 82.9583 52.3464 83.236 52.5424 83.46C52.7384 83.6793 52.9718 83.845 53.2424 83.957C53.5131 84.0643 53.8164 84.118 54.1524 84.118C54.4651 84.118 54.7334 84.083 54.9574 84.013C55.1861 83.9383 55.3821 83.859 55.5454 83.775C55.7088 83.691 55.8441 83.614 55.9514 83.544C56.0634 83.4693 56.1591 83.432 56.2384 83.432C56.3411 83.432 56.4204 83.4717 56.4764 83.551L56.8264 84.006C56.6724 84.1927 56.4881 84.356 56.2734 84.496C56.0588 84.6313 55.8278 84.7433 55.5804 84.832C55.3378 84.9207 55.0858 84.986 54.8244 85.028C54.5631 85.0747 54.3041 85.098 54.0474 85.098C53.5574 85.098 53.1048 85.0163 52.6894 84.853C52.2788 84.685 51.9218 84.4423 51.6184 84.125C51.3198 83.803 51.0864 83.4063 50.9184 82.935C50.7504 82.4637 50.6664 81.9223 50.6664 81.311C50.6664 80.8163 50.7411 80.3543 50.8904 79.925C51.0444 79.4957 51.2638 79.1247 51.5484 78.812C51.8331 78.4947 52.1808 78.2473 52.5914 78.07C53.0021 77.888 53.4641 77.797 53.9774 77.797ZM54.0054 78.714C53.4034 78.714 52.9298 78.889 52.5844 79.239C52.2391 79.5843 52.0244 80.065 51.9404 80.681H55.7974C55.7974 80.3917 55.7578 80.128 55.6784 79.89C55.5991 79.6473 55.4824 79.4397 55.3284 79.267C55.1744 79.0897 54.9854 78.9543 54.7614 78.861C54.5421 78.763 54.2901 78.714 54.0054 78.714ZM59.7474 81.367L57.3604 77.909H58.5574C58.6601 77.909 58.7347 77.9253 58.7814 77.958C58.8281 77.9907 58.8701 78.0373 58.9074 78.098L60.6434 80.758C60.6854 80.6273 60.7461 80.4967 60.8254 80.366L62.3514 78.126C62.3981 78.0607 62.4447 78.0093 62.4914 77.972C62.5381 77.93 62.5964 77.909 62.6664 77.909H63.8144L61.4274 81.297L63.9124 85H62.7154C62.6127 85 62.5311 84.9743 62.4704 84.923C62.4144 84.867 62.3677 84.8063 62.3304 84.741L60.5454 81.962C60.5127 82.0973 60.4637 82.2187 60.3984 82.326L58.7464 84.741C58.6997 84.8063 58.6484 84.867 58.5924 84.923C58.5411 84.9743 58.4687 85 58.3754 85H57.2624L59.7474 81.367ZM67.2921 85.112C66.7321 85.112 66.3004 84.9557 65.9971 84.643C65.6984 84.3303 65.5491 83.88 65.5491 83.292V78.952H64.6951C64.6204 78.952 64.5574 78.931 64.5061 78.889C64.4548 78.8423 64.4291 78.7723 64.4291 78.679V78.182L65.5911 78.035L65.8781 75.844C65.8874 75.774 65.9178 75.718 65.9691 75.676C66.0204 75.6293 66.0858 75.606 66.1651 75.606H66.7951V78.049H68.8251V78.952H66.7951V83.208C66.7951 83.5067 66.8674 83.7283 67.0121 83.873C67.1568 84.0177 67.3434 84.09 67.5721 84.09C67.7028 84.09 67.8148 84.0737 67.9081 84.041C68.0061 84.0037 68.0901 83.964 68.1601 83.922C68.2301 83.88 68.2884 83.8427 68.3351 83.81C68.3864 83.7727 68.4308 83.754 68.4681 83.754C68.5334 83.754 68.5918 83.7937 68.6431 83.873L69.0071 84.468C68.7924 84.6687 68.5334 84.8273 68.2301 84.944C67.9268 85.056 67.6141 85.112 67.2921 85.112Z" fill="#6A6A6A"/>
<path d="M2.944 14.696H7.904V16H1.392V4.536H2.944V14.696ZM15.3388 16H14.7068C14.5681 16 14.4561 15.9787 14.3708 15.936C14.2854 15.8933 14.2294 15.8027 14.2028 15.664L14.0428 14.912C13.8294 15.104 13.6214 15.2773 13.4188 15.432C13.2161 15.5813 13.0028 15.7093 12.7788 15.816C12.5548 15.9173 12.3148 15.9947 12.0588 16.048C11.8081 16.1013 11.5281 16.128 11.2188 16.128C10.9041 16.128 10.6081 16.0853 10.3307 16C10.0588 15.9093 9.82142 15.776 9.61875 15.6C9.41608 15.424 9.25342 15.2027 9.13075 14.936C9.01342 14.664 8.95475 14.344 8.95475 13.976C8.95475 13.656 9.04275 13.3493 9.21875 13.056C9.39475 12.7573 9.67742 12.4933 10.0668 12.264C10.4614 12.0347 10.9761 11.848 11.6108 11.704C12.2454 11.5547 13.0214 11.4693 13.9388 11.448V10.816C13.9388 10.1867 13.8028 9.712 13.5308 9.392C13.2641 9.06667 12.8668 8.904 12.3388 8.904C11.9921 8.904 11.6988 8.94933 11.4588 9.04C11.2241 9.12533 11.0188 9.224 10.8428 9.336C10.6721 9.44267 10.5228 9.54133 10.3948 9.632C10.2721 9.71733 10.1494 9.76 10.0268 9.76C9.93075 9.76 9.84542 9.736 9.77075 9.688C9.70142 9.63467 9.64542 9.57067 9.60275 9.496L9.34675 9.04C9.79475 8.608 10.2774 8.28533 10.7948 8.072C11.3121 7.85867 11.8854 7.752 12.5148 7.752C12.9681 7.752 13.3708 7.82667 13.7228 7.976C14.0748 8.12533 14.3708 8.33333 14.6108 8.6C14.8508 8.86667 15.0321 9.18933 15.1548 9.568C15.2774 9.94667 15.3388 10.3627 15.3388 10.816V16ZM11.6428 15.128C11.8934 15.128 12.1228 15.104 12.3307 15.056C12.5388 15.0027 12.7334 14.9307 12.9148 14.84C13.1014 14.744 13.2774 14.6293 13.4428 14.496C13.6134 14.3627 13.7788 14.2107 13.9388 14.04V12.352C13.2828 12.3733 12.7254 12.4267 12.2668 12.512C11.8081 12.592 11.4348 12.6987 11.1468 12.832C10.8588 12.9653 10.6481 13.1227 10.5148 13.304C10.3868 13.4853 10.3228 13.688 10.3228 13.912C10.3228 14.1253 10.3574 14.3093 10.4268 14.464C10.4961 14.6187 10.5894 14.7467 10.7068 14.848C10.8241 14.944 10.9628 15.016 11.1228 15.064C11.2828 15.1067 11.4561 15.128 11.6428 15.128ZM17.5441 16V4.216H18.9761V9.064C19.3121 8.67467 19.6961 8.36267 20.1281 8.128C20.5655 7.888 21.0641 7.768 21.6241 7.768C22.0935 7.768 22.5175 7.856 22.8961 8.032C23.2748 8.208 23.5975 8.472 23.8641 8.824C24.1308 9.17067 24.3361 9.60267 24.4801 10.12C24.6241 10.632 24.6961 11.224 24.6961 11.896C24.6961 12.4933 24.6161 13.0507 24.4561 13.568C24.2961 14.08 24.0641 14.5253 23.7601 14.904C23.4615 15.2773 23.0935 15.5733 22.6561 15.792C22.2241 16.0053 21.7361 16.112 21.1921 16.112C20.6695 16.112 20.2241 16.0107 19.8561 15.808C19.4935 15.6053 19.1761 15.3227 18.9041 14.96L18.8321 15.696C18.7895 15.8987 18.6668 16 18.4641 16H17.5441ZM21.1601 8.904C20.6961 8.904 20.2881 9.01067 19.9361 9.224C19.5895 9.43733 19.2695 9.73867 18.9761 10.128V14.048C19.2321 14.4 19.5148 14.648 19.8241 14.792C20.1388 14.936 20.4881 15.008 20.8721 15.008C21.6295 15.008 22.2108 14.7387 22.6161 14.2C23.0215 13.6613 23.2241 12.8933 23.2241 11.896C23.2241 11.368 23.1761 10.9147 23.0801 10.536C22.9895 10.1573 22.8561 9.848 22.6801 9.608C22.5041 9.36267 22.2881 9.184 22.0321 9.072C21.7761 8.96 21.4855 8.904 21.1601 8.904ZM29.6416 7.768C30.127 7.768 30.575 7.85067 30.9856 8.016C31.3963 8.176 31.751 8.41067 32.0496 8.72C32.3483 9.024 32.5803 9.40267 32.7456 9.856C32.9163 10.304 33.0016 10.816 33.0016 11.392C33.0016 11.616 32.9776 11.7653 32.9296 11.84C32.8816 11.9147 32.791 11.952 32.6576 11.952H27.2656C27.2763 12.464 27.3456 12.9093 27.4736 13.288C27.6016 13.6667 27.7776 13.984 28.0016 14.24C28.2256 14.4907 28.4923 14.68 28.8016 14.808C29.111 14.9307 29.4576 14.992 29.8416 14.992C30.199 14.992 30.5056 14.952 30.7616 14.872C31.023 14.7867 31.247 14.696 31.4336 14.6C31.6203 14.504 31.775 14.416 31.8976 14.336C32.0256 14.2507 32.135 14.208 32.2256 14.208C32.343 14.208 32.4336 14.2533 32.4976 14.344L32.8976 14.864C32.7216 15.0773 32.511 15.264 32.2656 15.424C32.0203 15.5787 31.7563 15.7067 31.4736 15.808C31.1963 15.9093 30.9083 15.984 30.6096 16.032C30.311 16.0853 30.015 16.112 29.7216 16.112C29.1616 16.112 28.6443 16.0187 28.1696 15.832C27.7003 15.64 27.2923 15.3627 26.9456 15C26.6043 14.632 26.3376 14.1787 26.1456 13.64C25.9536 13.1013 25.8576 12.4827 25.8576 11.784C25.8576 11.2187 25.943 10.6907 26.1136 10.2C26.2896 9.70933 26.5403 9.28533 26.8656 8.928C27.191 8.56533 27.5883 8.28267 28.0576 8.08C28.527 7.872 29.055 7.768 29.6416 7.768ZM29.6736 8.816C28.9856 8.816 28.4443 9.016 28.0496 9.416C27.655 9.81067 27.4096 10.36 27.3136 11.064H31.7216C31.7216 10.7333 31.6763 10.432 31.5856 10.16C31.495 9.88267 31.3616 9.64533 31.1856 9.448C31.0096 9.24533 30.7936 9.09067 30.5376 8.984C30.287 8.872 29.999 8.816 29.6736 8.816ZM36.4083 4.216V16H34.9843V4.216H36.4083Z" fill="black"/>
<rect x="0.5" y="28.5" width="455" height="37" rx="3.5" stroke="#D8D8D8"/>
<path d="M21.472 50.632C21.5573 50.632 21.6347 50.6667 21.704 50.736L22.312 51.4C21.8427 51.944 21.272 52.368 20.6 52.672C19.9333 52.976 19.128 53.128 18.184 53.128C17.3573 53.128 16.608 52.9867 15.936 52.704C15.264 52.416 14.6907 52.016 14.216 51.504C13.7413 50.9867 13.3733 50.368 13.112 49.648C12.8507 48.928 12.72 48.136 12.72 47.272C12.72 46.408 12.8587 45.616 13.136 44.896C13.4187 44.176 13.8133 43.5573 14.32 43.04C14.8267 42.5227 15.432 42.1227 16.136 41.84C16.8453 41.552 17.6267 41.408 18.48 41.408C19.3227 41.408 20.048 41.5387 20.656 41.8C21.2693 42.0613 21.8133 42.416 22.288 42.864L21.784 43.576C21.7467 43.6293 21.704 43.6747 21.656 43.712C21.608 43.744 21.5387 43.76 21.448 43.76C21.3787 43.76 21.304 43.736 21.224 43.688C21.1493 43.6347 21.0587 43.5707 20.952 43.496C20.8453 43.4213 20.72 43.3413 20.576 43.256C20.432 43.1707 20.2613 43.0907 20.064 43.016C19.8667 42.9413 19.6373 42.88 19.376 42.832C19.1147 42.7787 18.8133 42.752 18.472 42.752C17.8587 42.752 17.296 42.8587 16.784 43.072C16.2773 43.28 15.84 43.5787 15.472 43.968C15.104 44.3573 14.816 44.832 14.608 45.392C14.4053 45.952 14.304 46.5787 14.304 47.272C14.304 47.9867 14.4053 48.624 14.608 49.184C14.816 49.744 15.096 50.2187 15.448 50.608C15.8053 50.992 16.2267 51.2853 16.712 51.488C17.1973 51.6907 17.72 51.792 18.28 51.792C18.6213 51.792 18.928 51.7733 19.2 51.736C19.472 51.6933 19.7227 51.6293 19.952 51.544C20.1867 51.4587 20.4027 51.352 20.6 51.224C20.8027 51.0907 21.0053 50.9333 21.208 50.752C21.2987 50.672 21.3867 50.632 21.472 50.632ZM24.1211 53V41.216H25.5451V45.984C25.8918 45.616 26.2758 45.3227 26.6971 45.104C27.1185 44.88 27.6038 44.768 28.1531 44.768C28.5958 44.768 28.9851 44.8427 29.3211 44.992C29.6625 45.136 29.9451 45.344 30.1691 45.616C30.3985 45.8827 30.5718 46.2053 30.6891 46.584C30.8065 46.9627 30.8651 47.3813 30.8651 47.84V53H29.4411V47.84C29.4411 47.2267 29.2998 46.752 29.0171 46.416C28.7398 46.0747 28.3131 45.904 27.7371 45.904C27.3158 45.904 26.9211 46.0053 26.5531 46.208C26.1905 46.4107 25.8545 46.6853 25.5451 47.032V53H24.1211ZM36.2918 44.768C36.8838 44.768 37.4171 44.8667 37.8918 45.064C38.3718 45.2613 38.7771 45.5413 39.1078 45.904C39.4438 46.2667 39.6998 46.7067 39.8758 47.224C40.0571 47.736 40.1478 48.3093 40.1478 48.944C40.1478 49.584 40.0571 50.16 39.8758 50.672C39.6998 51.184 39.4438 51.6213 39.1078 51.984C38.7771 52.3467 38.3718 52.6267 37.8918 52.824C37.4171 53.016 36.8838 53.112 36.2918 53.112C35.6998 53.112 35.1638 53.016 34.6838 52.824C34.2091 52.6267 33.8038 52.3467 33.4678 51.984C33.1318 51.6213 32.8731 51.184 32.6918 50.672C32.5104 50.16 32.4198 49.584 32.4198 48.944C32.4198 48.3093 32.5104 47.736 32.6918 47.224C32.8731 46.7067 33.1318 46.2667 33.4678 45.904C33.8038 45.5413 34.2091 45.2613 34.6838 45.064C35.1638 44.8667 35.6998 44.768 36.2918 44.768ZM36.2918 52C37.0918 52 37.6891 51.7333 38.0838 51.2C38.4784 50.6613 38.6758 49.912 38.6758 48.952C38.6758 47.9867 38.4784 47.2347 38.0838 46.696C37.6891 46.1573 37.0918 45.888 36.2918 45.888C35.8864 45.888 35.5344 45.9573 35.2358 46.096C34.9371 46.2347 34.6864 46.4347 34.4838 46.696C34.2864 46.9573 34.1371 47.28 34.0358 47.664C33.9398 48.0427 33.8918 48.472 33.8918 48.952C33.8918 49.432 33.9398 49.8613 34.0358 50.24C34.1371 50.6187 34.2864 50.9387 34.4838 51.2C34.6864 51.456 34.9371 51.6533 35.2358 51.792C35.5344 51.9307 35.8864 52 36.2918 52ZM45.1824 44.768C45.7744 44.768 46.3077 44.8667 46.7824 45.064C47.2624 45.2613 47.6677 45.5413 47.9984 45.904C48.3344 46.2667 48.5904 46.7067 48.7664 47.224C48.9477 47.736 49.0384 48.3093 49.0384 48.944C49.0384 49.584 48.9477 50.16 48.7664 50.672C48.5904 51.184 48.3344 51.6213 47.9984 51.984C47.6677 52.3467 47.2624 52.6267 46.7824 52.824C46.3077 53.016 45.7744 53.112 45.1824 53.112C44.5904 53.112 44.0544 53.016 43.5744 52.824C43.0997 52.6267 42.6944 52.3467 42.3584 51.984C42.0224 51.6213 41.7637 51.184 41.5824 50.672C41.401 50.16 41.3104 49.584 41.3104 48.944C41.3104 48.3093 41.401 47.736 41.5824 47.224C41.7637 46.7067 42.0224 46.2667 42.3584 45.904C42.6944 45.5413 43.0997 45.2613 43.5744 45.064C44.0544 44.8667 44.5904 44.768 45.1824 44.768ZM45.1824 52C45.9824 52 46.5797 51.7333 46.9744 51.2C47.369 50.6613 47.5664 49.912 47.5664 48.952C47.5664 47.9867 47.369 47.2347 46.9744 46.696C46.5797 46.1573 45.9824 45.888 45.1824 45.888C44.777 45.888 44.425 45.9573 44.1264 46.096C43.8277 46.2347 43.577 46.4347 43.3744 46.696C43.177 46.9573 43.0277 47.28 42.9264 47.664C42.8304 48.0427 42.7824 48.472 42.7824 48.952C42.7824 49.432 42.8304 49.8613 42.9264 50.24C43.0277 50.6187 43.177 50.9387 43.3744 51.2C43.577 51.456 43.8277 51.6533 44.1264 51.792C44.425 51.9307 44.777 52 45.1824 52ZM55.433 46.232C55.369 46.3493 55.2703 46.408 55.137 46.408C55.057 46.408 54.9663 46.3787 54.865 46.32C54.7637 46.2613 54.6383 46.1973 54.489 46.128C54.345 46.0533 54.1717 45.9867 53.969 45.928C53.7663 45.864 53.5263 45.832 53.249 45.832C53.009 45.832 52.793 45.864 52.601 45.928C52.409 45.9867 52.2437 46.0693 52.105 46.176C51.9717 46.2827 51.8677 46.408 51.793 46.552C51.7237 46.6907 51.689 46.8427 51.689 47.008C51.689 47.216 51.7477 47.3893 51.865 47.528C51.9877 47.6667 52.1477 47.7867 52.345 47.888C52.5423 47.9893 52.7663 48.08 53.017 48.16C53.2677 48.2347 53.5237 48.3173 53.785 48.408C54.0517 48.4933 54.3103 48.5893 54.561 48.696C54.8117 48.8027 55.0357 48.936 55.233 49.096C55.4303 49.256 55.5877 49.4533 55.705 49.688C55.8277 49.9173 55.889 50.1947 55.889 50.52C55.889 50.8933 55.8223 51.24 55.689 51.56C55.5557 51.8747 55.3583 52.1493 55.097 52.384C54.8357 52.6133 54.5157 52.7947 54.137 52.928C53.7583 53.0613 53.321 53.128 52.825 53.128C52.2597 53.128 51.7477 53.0373 51.289 52.856C50.8303 52.6693 50.441 52.432 50.121 52.144L50.457 51.6C50.4997 51.5307 50.5503 51.4773 50.609 51.44C50.6677 51.4027 50.745 51.384 50.841 51.384C50.937 51.384 51.0383 51.4213 51.145 51.496C51.2517 51.5707 51.3797 51.6533 51.529 51.744C51.6837 51.8347 51.8677 51.9173 52.081 51.992C52.2997 52.0667 52.5717 52.104 52.897 52.104C53.1743 52.104 53.417 52.0693 53.625 52C53.833 51.9253 54.0063 51.8267 54.145 51.704C54.2837 51.5813 54.385 51.44 54.449 51.28C54.5183 51.12 54.553 50.9493 54.553 50.768C54.553 50.544 54.4917 50.36 54.369 50.216C54.2517 50.0667 54.0943 49.9413 53.897 49.84C53.6997 49.7333 53.473 49.6427 53.217 49.568C52.9663 49.488 52.7077 49.4053 52.441 49.32C52.1797 49.2347 51.921 49.1387 51.665 49.032C51.4143 48.92 51.1903 48.7813 50.993 48.616C50.7957 48.4507 50.6357 48.248 50.513 48.008C50.3957 47.7627 50.337 47.4667 50.337 47.12C50.337 46.8107 50.401 46.5147 50.529 46.232C50.657 45.944 50.8437 45.6933 51.089 45.48C51.3343 45.2613 51.6357 45.088 51.993 44.96C52.3503 44.832 52.7583 44.768 53.217 44.768C53.7503 44.768 54.2277 44.8533 54.649 45.024C55.0757 45.1893 55.4437 45.4187 55.753 45.712L55.433 46.232ZM60.9385 44.768C61.4238 44.768 61.8718 44.8507 62.2825 45.016C62.6932 45.176 63.0478 45.4107 63.3465 45.72C63.6452 46.024 63.8772 46.4027 64.0425 46.856C64.2132 47.304 64.2985 47.816 64.2985 48.392C64.2985 48.616 64.2745 48.7653 64.2265 48.84C64.1785 48.9147 64.0878 48.952 63.9545 48.952H58.5625C58.5732 49.464 58.6425 49.9093 58.7705 50.288C58.8985 50.6667 59.0745 50.984 59.2985 51.24C59.5225 51.4907 59.7892 51.68 60.0985 51.808C60.4078 51.9307 60.7545 51.992 61.1385 51.992C61.4958 51.992 61.8025 51.952 62.0585 51.872C62.3198 51.7867 62.5438 51.696 62.7305 51.6C62.9172 51.504 63.0718 51.416 63.1945 51.336C63.3225 51.2507 63.4318 51.208 63.5225 51.208C63.6398 51.208 63.7305 51.2533 63.7945 51.344L64.1945 51.864C64.0185 52.0773 63.8078 52.264 63.5625 52.424C63.3172 52.5787 63.0532 52.7067 62.7705 52.808C62.4932 52.9093 62.2052 52.984 61.9065 53.032C61.6078 53.0853 61.3118 53.112 61.0185 53.112C60.4585 53.112 59.9412 53.0187 59.4665 52.832C58.9972 52.64 58.5892 52.3627 58.2425 52C57.9012 51.632 57.6345 51.1787 57.4425 50.64C57.2505 50.1013 57.1545 49.4827 57.1545 48.784C57.1545 48.2187 57.2398 47.6907 57.4105 47.2C57.5865 46.7093 57.8372 46.2853 58.1625 45.928C58.4878 45.5653 58.8852 45.2827 59.3545 45.08C59.8238 44.872 60.3518 44.768 60.9385 44.768ZM60.9705 45.816C60.2825 45.816 59.7412 46.016 59.3465 46.416C58.9518 46.8107 58.7065 47.36 58.6105 48.064H63.0185C63.0185 47.7333 62.9732 47.432 62.8825 47.16C62.7918 46.8827 62.6585 46.6453 62.4825 46.448C62.3065 46.2453 62.0905 46.0907 61.8345 45.984C61.5838 45.872 61.2958 45.816 60.9705 45.816ZM75.1669 53H74.5349C74.3962 53 74.2842 52.9787 74.1989 52.936C74.1135 52.8933 74.0575 52.8027 74.0309 52.664L73.8709 51.912C73.6575 52.104 73.4495 52.2773 73.2469 52.432C73.0442 52.5813 72.8309 52.7093 72.6069 52.816C72.3829 52.9173 72.1429 52.9947 71.8869 53.048C71.6362 53.1013 71.3562 53.128 71.0469 53.128C70.7322 53.128 70.4362 53.0853 70.1589 53C69.8869 52.9093 69.6495 52.776 69.4469 52.6C69.2442 52.424 69.0815 52.2027 68.9589 51.936C68.8415 51.664 68.7829 51.344 68.7829 50.976C68.7829 50.656 68.8709 50.3493 69.0469 50.056C69.2229 49.7573 69.5055 49.4933 69.8949 49.264C70.2895 49.0347 70.8042 48.848 71.4389 48.704C72.0735 48.5547 72.8495 48.4693 73.7669 48.448V47.816C73.7669 47.1867 73.6309 46.712 73.3589 46.392C73.0922 46.0667 72.6949 45.904 72.1669 45.904C71.8202 45.904 71.5269 45.9493 71.2869 46.04C71.0522 46.1253 70.8469 46.224 70.6709 46.336C70.5002 46.4427 70.3509 46.5413 70.2229 46.632C70.1002 46.7173 69.9775 46.76 69.8549 46.76C69.7589 46.76 69.6735 46.736 69.5989 46.688C69.5295 46.6347 69.4735 46.5707 69.4309 46.496L69.1749 46.04C69.6229 45.608 70.1055 45.2853 70.6229 45.072C71.1402 44.8587 71.7135 44.752 72.3429 44.752C72.7962 44.752 73.1989 44.8267 73.5509 44.976C73.9029 45.1253 74.1989 45.3333 74.4389 45.6C74.6789 45.8667 74.8602 46.1893 74.9829 46.568C75.1055 46.9467 75.1669 47.3627 75.1669 47.816V53ZM71.4709 52.128C71.7215 52.128 71.9509 52.104 72.1589 52.056C72.3669 52.0027 72.5615 51.9307 72.7429 51.84C72.9295 51.744 73.1055 51.6293 73.2709 51.496C73.4415 51.3627 73.6069 51.2107 73.7669 51.04V49.352C73.1109 49.3733 72.5535 49.4267 72.0949 49.512C71.6362 49.592 71.2629 49.6987 70.9749 49.832C70.6869 49.9653 70.4762 50.1227 70.3429 50.304C70.2149 50.4853 70.1509 50.688 70.1509 50.912C70.1509 51.1253 70.1855 51.3093 70.2549 51.464C70.3242 51.6187 70.4175 51.7467 70.5349 51.848C70.6522 51.944 70.7909 52.016 70.9509 52.064C71.1109 52.1067 71.2842 52.128 71.4709 52.128ZM77.3243 53V44.896H78.1723C78.3749 44.896 78.5029 44.9947 78.5563 45.192L78.6683 46.072C79.0203 45.6827 79.4123 45.368 79.8443 45.128C80.2816 44.888 80.7856 44.768 81.3563 44.768C81.7989 44.768 82.1883 44.8427 82.5243 44.992C82.8656 45.136 83.1483 45.344 83.3723 45.616C83.6016 45.8827 83.7749 46.2053 83.8923 46.584C84.0096 46.9627 84.0683 47.3813 84.0683 47.84V53H82.6443V47.84C82.6443 47.2267 82.5029 46.752 82.2203 46.416C81.9429 46.0747 81.5163 45.904 80.9403 45.904C80.5189 45.904 80.1243 46.0053 79.7563 46.208C79.3936 46.4107 79.0576 46.6853 78.7483 47.032V53H77.3243ZM92.5886 44.768C93.1806 44.768 93.714 44.8667 94.1886 45.064C94.6686 45.2613 95.074 45.5413 95.4046 45.904C95.7406 46.2667 95.9966 46.7067 96.1726 47.224C96.354 47.736 96.4446 48.3093 96.4446 48.944C96.4446 49.584 96.354 50.16 96.1726 50.672C95.9966 51.184 95.7406 51.6213 95.4046 51.984C95.074 52.3467 94.6686 52.6267 94.1886 52.824C93.714 53.016 93.1806 53.112 92.5886 53.112C91.9966 53.112 91.4606 53.016 90.9806 52.824C90.506 52.6267 90.1006 52.3467 89.7646 51.984C89.4286 51.6213 89.17 51.184 88.9886 50.672C88.8073 50.16 88.7166 49.584 88.7166 48.944C88.7166 48.3093 88.8073 47.736 88.9886 47.224C89.17 46.7067 89.4286 46.2667 89.7646 45.904C90.1006 45.5413 90.506 45.2613 90.9806 45.064C91.4606 44.8667 91.9966 44.768 92.5886 44.768ZM92.5886 52C93.3886 52 93.986 51.7333 94.3806 51.2C94.7753 50.6613 94.9726 49.912 94.9726 48.952C94.9726 47.9867 94.7753 47.2347 94.3806 46.696C93.986 46.1573 93.3886 45.888 92.5886 45.888C92.1833 45.888 91.8313 45.9573 91.5326 46.096C91.234 46.2347 90.9833 46.4347 90.7806 46.696C90.5833 46.9573 90.434 47.28 90.3326 47.664C90.2366 48.0427 90.1886 48.472 90.1886 48.952C90.1886 49.432 90.2366 49.8613 90.3326 50.24C90.434 50.6187 90.5833 50.9387 90.7806 51.2C90.9833 51.456 91.234 51.6533 91.5326 51.792C91.8313 51.9307 92.1833 52 92.5886 52ZM98.1993 55.744V44.896H99.0473C99.2499 44.896 99.3779 44.9947 99.4313 45.192L99.5513 46.152C99.8979 45.7307 100.293 45.392 100.735 45.136C101.183 44.88 101.698 44.752 102.279 44.752C102.743 44.752 103.165 44.8427 103.543 45.024C103.922 45.2 104.245 45.464 104.511 45.816C104.778 46.1627 104.983 46.5947 105.127 47.112C105.271 47.6293 105.343 48.224 105.343 48.896C105.343 49.4933 105.263 50.0507 105.103 50.568C104.943 51.08 104.714 51.5253 104.415 51.904C104.117 52.2773 103.749 52.5733 103.311 52.792C102.879 53.0053 102.391 53.112 101.847 53.112C101.346 53.112 100.917 53.0293 100.559 52.864C100.207 52.6987 99.8953 52.464 99.6233 52.16V55.744H98.1993ZM101.807 45.904C101.343 45.904 100.935 46.0107 100.583 46.224C100.237 46.4373 99.9166 46.7387 99.6233 47.128V51.048C99.8846 51.4 100.17 51.648 100.479 51.792C100.794 51.936 101.143 52.008 101.527 52.008C102.279 52.008 102.858 51.7387 103.263 51.2C103.669 50.6613 103.871 49.8933 103.871 48.896C103.871 48.368 103.823 47.9147 103.727 47.536C103.637 47.1573 103.503 46.848 103.327 46.608C103.151 46.3627 102.935 46.184 102.679 46.072C102.423 45.96 102.133 45.904 101.807 45.904ZM109.483 53.128C108.843 53.128 108.35 52.9493 108.003 52.592C107.662 52.2347 107.491 51.72 107.491 51.048V46.088H106.515C106.43 46.088 106.358 46.064 106.299 46.016C106.241 45.9627 106.211 45.8827 106.211 45.776V45.208L107.539 45.04L107.867 42.536C107.878 42.456 107.913 42.392 107.971 42.344C108.03 42.2907 108.105 42.264 108.195 42.264H108.915V45.056H111.235V46.088H108.915V50.952C108.915 51.2933 108.998 51.5467 109.163 51.712C109.329 51.8773 109.542 51.96 109.803 51.96C109.953 51.96 110.081 51.9413 110.187 51.904C110.299 51.8613 110.395 51.816 110.475 51.768C110.555 51.72 110.622 51.6773 110.675 51.64C110.734 51.5973 110.785 51.576 110.827 51.576C110.902 51.576 110.969 51.6213 111.027 51.712L111.443 52.392C111.198 52.6213 110.902 52.8027 110.555 52.936C110.209 53.064 109.851 53.128 109.483 53.128ZM114.58 44.896V53H113.156V44.896H114.58ZM114.9 42.352C114.9 42.4907 114.871 42.6213 114.812 42.744C114.759 42.8613 114.684 42.968 114.588 43.064C114.497 43.1547 114.391 43.2267 114.268 43.28C114.145 43.3333 114.015 43.36 113.876 43.36C113.737 43.36 113.607 43.3333 113.484 43.28C113.367 43.2267 113.26 43.1547 113.164 43.064C113.073 42.968 113.001 42.8613 112.948 42.744C112.895 42.6213 112.868 42.4907 112.868 42.352C112.868 42.2133 112.895 42.0827 112.948 41.96C113.001 41.832 113.073 41.7227 113.164 41.632C113.26 41.536 113.367 41.4613 113.484 41.408C113.607 41.3547 113.737 41.328 113.876 41.328C114.015 41.328 114.145 41.3547 114.268 41.408C114.391 41.4613 114.497 41.536 114.588 41.632C114.684 41.7227 114.759 41.832 114.812 41.96C114.871 42.0827 114.9 42.2133 114.9 42.352ZM120.37 44.768C120.962 44.768 121.495 44.8667 121.97 45.064C122.45 45.2613 122.855 45.5413 123.186 45.904C123.522 46.2667 123.778 46.7067 123.954 47.224C124.135 47.736 124.226 48.3093 124.226 48.944C124.226 49.584 124.135 50.16 123.954 50.672C123.778 51.184 123.522 51.6213 123.186 51.984C122.855 52.3467 122.45 52.6267 121.97 52.824C121.495 53.016 120.962 53.112 120.37 53.112C119.778 53.112 119.242 53.016 118.762 52.824C118.287 52.6267 117.882 52.3467 117.546 51.984C117.21 51.6213 116.951 51.184 116.77 50.672C116.589 50.16 116.498 49.584 116.498 48.944C116.498 48.3093 116.589 47.736 116.77 47.224C116.951 46.7067 117.21 46.2667 117.546 45.904C117.882 45.5413 118.287 45.2613 118.762 45.064C119.242 44.8667 119.778 44.768 120.37 44.768ZM120.37 52C121.17 52 121.767 51.7333 122.162 51.2C122.557 50.6613 122.754 49.912 122.754 48.952C122.754 47.9867 122.557 47.2347 122.162 46.696C121.767 46.1573 121.17 45.888 120.37 45.888C119.965 45.888 119.613 45.9573 119.314 46.096C119.015 46.2347 118.765 46.4347 118.562 46.696C118.365 46.9573 118.215 47.28 118.114 47.664C118.018 48.0427 117.97 48.472 117.97 48.952C117.97 49.432 118.018 49.8613 118.114 50.24C118.215 50.6187 118.365 50.9387 118.562 51.2C118.765 51.456 119.015 51.6533 119.314 51.792C119.613 51.9307 119.965 52 120.37 52ZM125.981 53V44.896H126.829C127.031 44.896 127.159 44.9947 127.213 45.192L127.325 46.072C127.677 45.6827 128.069 45.368 128.501 45.128C128.938 44.888 129.442 44.768 130.013 44.768C130.455 44.768 130.845 44.8427 131.181 44.992C131.522 45.136 131.805 45.344 132.029 45.616C132.258 45.8827 132.431 46.2053 132.549 46.584C132.666 46.9627 132.725 47.3813 132.725 47.84V53H131.301V47.84C131.301 47.2267 131.159 46.752 130.877 46.416C130.599 46.0747 130.173 45.904 129.597 45.904C129.175 45.904 128.781 46.0053 128.413 46.208C128.05 46.4107 127.714 46.6853 127.405 47.032V53H125.981Z" fill="black"/>
<path fill-rule="evenodd" clip-rule="evenodd" d="M430.707 44.7071C431.098 44.3166 431.731 44.3166 432.121 44.7071L436.707 49.2929C437.098 49.6834 437.098 50.3166 436.707 50.7071C436.317 51.0976 435.683 51.0976 435.293 50.7071L430.707 46.1213C430.317 45.7308 430.317 45.0976 430.707 44.7071Z" fill="black"/>
<path fill-rule="evenodd" clip-rule="evenodd" d="M441.293 44.7071C440.902 44.3166 440.269 44.3166 439.879 44.7071L435.293 49.2929C434.902 49.6834 434.902 50.3166 435.293 50.7071C435.683 51.0976 436.317 51.0976 436.707 50.7071L441.293 46.1213C441.683 45.7308 441.683 45.0976 441.293 44.7071Z" fill="black"/>
<path d="M2.944 144.696H7.904V146H1.392V134.536H2.944V144.696ZM15.3388 146H14.7068C14.5681 146 14.4561 145.979 14.3708 145.936C14.2854 145.893 14.2294 145.803 14.2028 145.664L14.0428 144.912C13.8294 145.104 13.6214 145.277 13.4188 145.432C13.2161 145.581 13.0028 145.709 12.7788 145.816C12.5548 145.917 12.3148 145.995 12.0588 146.048C11.8081 146.101 11.5281 146.128 11.2188 146.128C10.9041 146.128 10.6081 146.085 10.3307 146C10.0588 145.909 9.82142 145.776 9.61875 145.6C9.41608 145.424 9.25342 145.203 9.13075 144.936C9.01342 144.664 8.95475 144.344 8.95475 143.976C8.95475 143.656 9.04275 143.349 9.21875 143.056C9.39475 142.757 9.67742 142.493 10.0668 142.264C10.4614 142.035 10.9761 141.848 11.6108 141.704C12.2454 141.555 13.0214 141.469 13.9388 141.448V140.816C13.9388 140.187 13.8028 139.712 13.5308 139.392C13.2641 139.067 12.8668 138.904 12.3388 138.904C11.9921 138.904 11.6988 138.949 11.4588 139.04C11.2241 139.125 11.0188 139.224 10.8428 139.336C10.6721 139.443 10.5228 139.541 10.3948 139.632C10.2721 139.717 10.1494 139.76 10.0268 139.76C9.93075 139.76 9.84542 139.736 9.77075 139.688C9.70142 139.635 9.64542 139.571 9.60275 139.496L9.34675 139.04C9.79475 138.608 10.2774 138.285 10.7948 138.072C11.3121 137.859 11.8854 137.752 12.5148 137.752C12.9681 137.752 13.3708 137.827 13.7228 137.976C14.0748 138.125 14.3708 138.333 14.6108 138.6C14.8508 138.867 15.0321 139.189 15.1548 139.568C15.2774 139.947 15.3388 140.363 15.3388 140.816V146ZM11.6428 145.128C11.8934 145.128 12.1228 145.104 12.3307 145.056C12.5388 145.003 12.7334 144.931 12.9148 144.84C13.1014 144.744 13.2774 144.629 13.4428 144.496C13.6134 144.363 13.7788 144.211 13.9388 144.04V142.352C13.2828 142.373 12.7254 142.427 12.2668 142.512C11.8081 142.592 11.4348 142.699 11.1468 142.832C10.8588 142.965 10.6481 143.123 10.5148 143.304C10.3868 143.485 10.3228 143.688 10.3228 143.912C10.3228 144.125 10.3574 144.309 10.4268 144.464C10.4961 144.619 10.5894 144.747 10.7068 144.848C10.8241 144.944 10.9628 145.016 11.1228 145.064C11.2828 145.107 11.4561 145.128 11.6428 145.128ZM17.5441 146V134.216H18.9761V139.064C19.3121 138.675 19.6961 138.363 20.1281 138.128C20.5655 137.888 21.0641 137.768 21.6241 137.768C22.0935 137.768 22.5175 137.856 22.8961 138.032C23.2748 138.208 23.5975 138.472 23.8641 138.824C24.1308 139.171 24.3361 139.603 24.4801 140.12C24.6241 140.632 24.6961 141.224 24.6961 141.896C24.6961 142.493 24.6161 143.051 24.4561 143.568C24.2961 144.08 24.0641 144.525 23.7601 144.904C23.4615 145.277 23.0935 145.573 22.6561 145.792C22.2241 146.005 21.7361 146.112 21.1921 146.112C20.6695 146.112 20.2241 146.011 19.8561 145.808C19.4935 145.605 19.1761 145.323 18.9041 144.96L18.8321 145.696C18.7895 145.899 18.6668 146 18.4641 146H17.5441ZM21.1601 138.904C20.6961 138.904 20.2881 139.011 19.9361 139.224C19.5895 139.437 19.2695 139.739 18.9761 140.128V144.048C19.2321 144.4 19.5148 144.648 19.8241 144.792C20.1388 144.936 20.4881 145.008 20.8721 145.008C21.6295 145.008 22.2108 144.739 22.6161 144.2C23.0215 143.661 23.2241 142.893 23.2241 141.896C23.2241 141.368 23.1761 140.915 23.0801 140.536C22.9895 140.157 22.8561 139.848 22.6801 139.608C22.5041 139.363 22.2881 139.184 22.0321 139.072C21.7761 138.96 21.4855 138.904 21.1601 138.904ZM29.6416 137.768C30.127 137.768 30.575 137.851 30.9856 138.016C31.3963 138.176 31.751 138.411 32.0496 138.72C32.3483 139.024 32.5803 139.403 32.7456 139.856C32.9163 140.304 33.0016 140.816 33.0016 141.392C33.0016 141.616 32.9776 141.765 32.9296 141.84C32.8816 141.915 32.791 141.952 32.6576 141.952H27.2656C27.2763 142.464 27.3456 142.909 27.4736 143.288C27.6016 143.667 27.7776 143.984 28.0016 144.24C28.2256 144.491 28.4923 144.68 28.8016 144.808C29.111 144.931 29.4576 144.992 29.8416 144.992C30.199 144.992 30.5056 144.952 30.7616 144.872C31.023 144.787 31.247 144.696 31.4336 144.6C31.6203 144.504 31.775 144.416 31.8976 144.336C32.0256 144.251 32.135 144.208 32.2256 144.208C32.343 144.208 32.4336 144.253 32.4976 144.344L32.8976 144.864C32.7216 145.077 32.511 145.264 32.2656 145.424C32.0203 145.579 31.7563 145.707 31.4736 145.808C31.1963 145.909 30.9083 145.984 30.6096 146.032C30.311 146.085 30.015 146.112 29.7216 146.112C29.1616 146.112 28.6443 146.019 28.1696 145.832C27.7003 145.64 27.2923 145.363 26.9456 145C26.6043 144.632 26.3376 144.179 26.1456 143.64C25.9536 143.101 25.8576 142.483 25.8576 141.784C25.8576 141.219 25.943 140.691 26.1136 140.2C26.2896 139.709 26.5403 139.285 26.8656 138.928C27.191 138.565 27.5883 138.283 28.0576 138.08C28.527 137.872 29.055 137.768 29.6416 137.768ZM29.6736 138.816C28.9856 138.816 28.4443 139.016 28.0496 139.416C27.655 139.811 27.4096 140.36 27.3136 141.064H31.7216C31.7216 140.733 31.6763 140.432 31.5856 140.16C31.495 139.883 31.3616 139.645 31.1856 139.448C31.0096 139.245 30.7936 139.091 30.5376 138.984C30.287 138.872 29.999 138.816 29.6736 138.816ZM36.4083 134.216V146H34.9843V134.216H36.4083Z" fill="black"/>
<rect x="0.5" y="158.5" width="455" height="37" rx="3.5" stroke="#D8D8D8"/>
<path d="M21.472 180.632C21.5573 180.632 21.6347 180.667 21.704 180.736L22.312 181.4C21.8427 181.944 21.272 182.368 20.6 182.672C19.9333 182.976 19.128 183.128 18.184 183.128C17.3573 183.128 16.608 182.987 15.936 182.704C15.264 182.416 14.6907 182.016 14.216 181.504C13.7413 180.987 13.3733 180.368 13.112 179.648C12.8507 178.928 12.72 178.136 12.72 177.272C12.72 176.408 12.8587 175.616 13.136 174.896C13.4187 174.176 13.8133 173.557 14.32 173.04C14.8267 172.523 15.432 172.123 16.136 171.84C16.8453 171.552 17.6267 171.408 18.48 171.408C19.3227 171.408 20.048 171.539 20.656 171.8C21.2693 172.061 21.8133 172.416 22.288 172.864L21.784 173.576C21.7467 173.629 21.704 173.675 21.656 173.712C21.608 173.744 21.5387 173.76 21.448 173.76C21.3787 173.76 21.304 173.736 21.224 173.688C21.1493 173.635 21.0587 173.571 20.952 173.496C20.8453 173.421 20.72 173.341 20.576 173.256C20.432 173.171 20.2613 173.091 20.064 173.016C19.8667 172.941 19.6373 172.88 19.376 172.832C19.1147 172.779 18.8133 172.752 18.472 172.752C17.8587 172.752 17.296 172.859 16.784 173.072C16.2773 173.28 15.84 173.579 15.472 173.968C15.104 174.357 14.816 174.832 14.608 175.392C14.4053 175.952 14.304 176.579 14.304 177.272C14.304 177.987 14.4053 178.624 14.608 179.184C14.816 179.744 15.096 180.219 15.448 180.608C15.8053 180.992 16.2267 181.285 16.712 181.488C17.1973 181.691 17.72 181.792 18.28 181.792C18.6213 181.792 18.928 181.773 19.2 181.736C19.472 181.693 19.7227 181.629 19.952 181.544C20.1867 181.459 20.4027 181.352 20.6 181.224C20.8027 181.091 21.0053 180.933 21.208 180.752C21.2987 180.672 21.3867 180.632 21.472 180.632ZM24.1211 183V171.216H25.5451V175.984C25.8918 175.616 26.2758 175.323 26.6971 175.104C27.1185 174.88 27.6038 174.768 28.1531 174.768C28.5958 174.768 28.9851 174.843 29.3211 174.992C29.6625 175.136 29.9451 175.344 30.1691 175.616C30.3985 175.883 30.5718 176.205 30.6891 176.584C30.8065 176.963 30.8651 177.381 30.8651 177.84V183H29.4411V177.84C29.4411 177.227 29.2998 176.752 29.0171 176.416C28.7398 176.075 28.3131 175.904 27.7371 175.904C27.3158 175.904 26.9211 176.005 26.5531 176.208C26.1905 176.411 25.8545 176.685 25.5451 177.032V183H24.1211ZM36.2918 174.768C36.8838 174.768 37.4171 174.867 37.8918 175.064C38.3718 175.261 38.7771 175.541 39.1078 175.904C39.4438 176.267 39.6998 176.707 39.8758 177.224C40.0571 177.736 40.1478 178.309 40.1478 178.944C40.1478 179.584 40.0571 180.16 39.8758 180.672C39.6998 181.184 39.4438 181.621 39.1078 181.984C38.7771 182.347 38.3718 182.627 37.8918 182.824C37.4171 183.016 36.8838 183.112 36.2918 183.112C35.6998 183.112 35.1638 183.016 34.6838 182.824C34.2091 182.627 33.8038 182.347 33.4678 181.984C33.1318 181.621 32.8731 181.184 32.6918 180.672C32.5104 180.16 32.4198 179.584 32.4198 178.944C32.4198 178.309 32.5104 177.736 32.6918 177.224C32.8731 176.707 33.1318 176.267 33.4678 175.904C33.8038 175.541 34.2091 175.261 34.6838 175.064C35.1638 174.867 35.6998 174.768 36.2918 174.768ZM36.2918 182C37.0918 182 37.6891 181.733 38.0838 181.2C38.4784 180.661 38.6758 179.912 38.6758 178.952C38.6758 177.987 38.4784 177.235 38.0838 176.696C37.6891 176.157 37.0918 175.888 36.2918 175.888C35.8864 175.888 35.5344 175.957 35.2358 176.096C34.9371 176.235 34.6864 176.435 34.4838 176.696C34.2864 176.957 34.1371 177.28 34.0358 177.664C33.9398 178.043 33.8918 178.472 33.8918 178.952C33.8918 179.432 33.9398 179.861 34.0358 180.24C34.1371 180.619 34.2864 180.939 34.4838 181.2C34.6864 181.456 34.9371 181.653 35.2358 181.792C35.5344 181.931 35.8864 182 36.2918 182ZM45.1824 174.768C45.7744 174.768 46.3077 174.867 46.7824 175.064C47.2624 175.261 47.6677 175.541 47.9984 175.904C48.3344 176.267 48.5904 176.707 48.7664 177.224C48.9477 177.736 49.0384 178.309 49.0384 178.944C49.0384 179.584 48.9477 180.16 48.7664 180.672C48.5904 181.184 48.3344 181.621 47.9984 181.984C47.6677 182.347 47.2624 182.627 46.7824 182.824C46.3077 183.016 45.7744 183.112 45.1824 183.112C44.5904 183.112 44.0544 183.016 43.5744 182.824C43.0997 182.627 42.6944 182.347 42.3584 181.984C42.0224 181.621 41.7637 181.184 41.5824 180.672C41.401 180.16 41.3104 179.584 41.3104 178.944C41.3104 178.309 41.401 177.736 41.5824 177.224C41.7637 176.707 42.0224 176.267 42.3584 175.904C42.6944 175.541 43.0997 175.261 43.5744 175.064C44.0544 174.867 44.5904 174.768 45.1824 174.768ZM45.1824 182C45.9824 182 46.5797 181.733 46.9744 181.2C47.369 180.661 47.5664 179.912 47.5664 178.952C47.5664 177.987 47.369 177.235 46.9744 176.696C46.5797 176.157 45.9824 175.888 45.1824 175.888C44.777 175.888 44.425 175.957 44.1264 176.096C43.8277 176.235 43.577 176.435 43.3744 176.696C43.177 176.957 43.0277 177.28 42.9264 177.664C42.8304 178.043 42.7824 178.472 42.7824 178.952C42.7824 179.432 42.8304 179.861 42.9264 180.24C43.0277 180.619 43.177 180.939 43.3744 181.2C43.577 181.456 43.8277 181.653 44.1264 181.792C44.425 181.931 44.777 182 45.1824 182ZM55.433 176.232C55.369 176.349 55.2703 176.408 55.137 176.408C55.057 176.408 54.9663 176.379 54.865 176.32C54.7637 176.261 54.6383 176.197 54.489 176.128C54.345 176.053 54.1717 175.987 53.969 175.928C53.7663 175.864 53.5263 175.832 53.249 175.832C53.009 175.832 52.793 175.864 52.601 175.928C52.409 175.987 52.2437 176.069 52.105 176.176C51.9717 176.283 51.8677 176.408 51.793 176.552C51.7237 176.691 51.689 176.843 51.689 177.008C51.689 177.216 51.7477 177.389 51.865 177.528C51.9877 177.667 52.1477 177.787 52.345 177.888C52.5423 177.989 52.7663 178.08 53.017 178.16C53.2677 178.235 53.5237 178.317 53.785 178.408C54.0517 178.493 54.3103 178.589 54.561 178.696C54.8117 178.803 55.0357 178.936 55.233 179.096C55.4303 179.256 55.5877 179.453 55.705 179.688C55.8277 179.917 55.889 180.195 55.889 180.52C55.889 180.893 55.8223 181.24 55.689 181.56C55.5557 181.875 55.3583 182.149 55.097 182.384C54.8357 182.613 54.5157 182.795 54.137 182.928C53.7583 183.061 53.321 183.128 52.825 183.128C52.2597 183.128 51.7477 183.037 51.289 182.856C50.8303 182.669 50.441 182.432 50.121 182.144L50.457 181.6C50.4997 181.531 50.5503 181.477 50.609 181.44C50.6677 181.403 50.745 181.384 50.841 181.384C50.937 181.384 51.0383 181.421 51.145 181.496C51.2517 181.571 51.3797 181.653 51.529 181.744C51.6837 181.835 51.8677 181.917 52.081 181.992C52.2997 182.067 52.5717 182.104 52.897 182.104C53.1743 182.104 53.417 182.069 53.625 182C53.833 181.925 54.0063 181.827 54.145 181.704C54.2837 181.581 54.385 181.44 54.449 181.28C54.5183 181.12 54.553 180.949 54.553 180.768C54.553 180.544 54.4917 180.36 54.369 180.216C54.2517 180.067 54.0943 179.941 53.897 179.84C53.6997 179.733 53.473 179.643 53.217 179.568C52.9663 179.488 52.7077 179.405 52.441 179.32C52.1797 179.235 51.921 179.139 51.665 179.032C51.4143 178.92 51.1903 178.781 50.993 178.616C50.7957 178.451 50.6357 178.248 50.513 178.008C50.3957 177.763 50.337 177.467 50.337 177.12C50.337 176.811 50.401 176.515 50.529 176.232C50.657 175.944 50.8437 175.693 51.089 175.48C51.3343 175.261 51.6357 175.088 51.993 174.96C52.3503 174.832 52.7583 174.768 53.217 174.768C53.7503 174.768 54.2277 174.853 54.649 175.024C55.0757 175.189 55.4437 175.419 55.753 175.712L55.433 176.232ZM60.9385 174.768C61.4238 174.768 61.8718 174.851 62.2825 175.016C62.6932 175.176 63.0478 175.411 63.3465 175.72C63.6452 176.024 63.8772 176.403 64.0425 176.856C64.2132 177.304 64.2985 177.816 64.2985 178.392C64.2985 178.616 64.2745 178.765 64.2265 178.84C64.1785 178.915 64.0878 178.952 63.9545 178.952H58.5625C58.5732 179.464 58.6425 179.909 58.7705 180.288C58.8985 180.667 59.0745 180.984 59.2985 181.24C59.5225 181.491 59.7892 181.68 60.0985 181.808C60.4078 181.931 60.7545 181.992 61.1385 181.992C61.4958 181.992 61.8025 181.952 62.0585 181.872C62.3198 181.787 62.5438 181.696 62.7305 181.6C62.9172 181.504 63.0718 181.416 63.1945 181.336C63.3225 181.251 63.4318 181.208 63.5225 181.208C63.6398 181.208 63.7305 181.253 63.7945 181.344L64.1945 181.864C64.0185 182.077 63.8078 182.264 63.5625 182.424C63.3172 182.579 63.0532 182.707 62.7705 182.808C62.4932 182.909 62.2052 182.984 61.9065 183.032C61.6078 183.085 61.3118 183.112 61.0185 183.112C60.4585 183.112 59.9412 183.019 59.4665 182.832C58.9972 182.64 58.5892 182.363 58.2425 182C57.9012 181.632 57.6345 181.179 57.4425 180.64C57.2505 180.101 57.1545 179.483 57.1545 178.784C57.1545 178.219 57.2398 177.691 57.4105 177.2C57.5865 176.709 57.8372 176.285 58.1625 175.928C58.4878 175.565 58.8852 175.283 59.3545 175.08C59.8238 174.872 60.3518 174.768 60.9385 174.768ZM60.9705 175.816C60.2825 175.816 59.7412 176.016 59.3465 176.416C58.9518 176.811 58.7065 177.36 58.6105 178.064H63.0185C63.0185 177.733 62.9732 177.432 62.8825 177.16C62.7918 176.883 62.6585 176.645 62.4825 176.448C62.3065 176.245 62.0905 176.091 61.8345 175.984C61.5838 175.872 61.2958 175.816 60.9705 175.816ZM75.1669 183H74.5349C74.3962 183 74.2842 182.979 74.1989 182.936C74.1135 182.893 74.0575 182.803 74.0309 182.664L73.8709 181.912C73.6575 182.104 73.4495 182.277 73.2469 182.432C73.0442 182.581 72.8309 182.709 72.6069 182.816C72.3829 182.917 72.1429 182.995 71.8869 183.048C71.6362 183.101 71.3562 183.128 71.0469 183.128C70.7322 183.128 70.4362 183.085 70.1589 183C69.8869 182.909 69.6495 182.776 69.4469 182.6C69.2442 182.424 69.0815 182.203 68.9589 181.936C68.8415 181.664 68.7829 181.344 68.7829 180.976C68.7829 180.656 68.8709 180.349 69.0469 180.056C69.2229 179.757 69.5055 179.493 69.8949 179.264C70.2895 179.035 70.8042 178.848 71.4389 178.704C72.0735 178.555 72.8495 178.469 73.7669 178.448V177.816C73.7669 177.187 73.6309 176.712 73.3589 176.392C73.0922 176.067 72.6949 175.904 72.1669 175.904C71.8202 175.904 71.5269 175.949 71.2869 176.04C71.0522 176.125 70.8469 176.224 70.6709 176.336C70.5002 176.443 70.3509 176.541 70.2229 176.632C70.1002 176.717 69.9775 176.76 69.8549 176.76C69.7589 176.76 69.6735 176.736 69.5989 176.688C69.5295 176.635 69.4735 176.571 69.4309 176.496L69.1749 176.04C69.6229 175.608 70.1055 175.285 70.6229 175.072C71.1402 174.859 71.7135 174.752 72.3429 174.752C72.7962 174.752 73.1989 174.827 73.5509 174.976C73.9029 175.125 74.1989 175.333 74.4389 175.6C74.6789 175.867 74.8602 176.189 74.9829 176.568C75.1055 176.947 75.1669 177.363 75.1669 177.816V183ZM71.4709 182.128C71.7215 182.128 71.9509 182.104 72.1589 182.056C72.3669 182.003 72.5615 181.931 72.7429 181.84C72.9295 181.744 73.1055 181.629 73.2709 181.496C73.4415 181.363 73.6069 181.211 73.7669 181.04V179.352C73.1109 179.373 72.5535 179.427 72.0949 179.512C71.6362 179.592 71.2629 179.699 70.9749 179.832C70.6869 179.965 70.4762 180.123 70.3429 180.304C70.2149 180.485 70.1509 180.688 70.1509 180.912C70.1509 181.125 70.1855 181.309 70.2549 181.464C70.3242 181.619 70.4175 181.747 70.5349 181.848C70.6522 181.944 70.7909 182.016 70.9509 182.064C71.1109 182.107 71.2842 182.128 71.4709 182.128ZM77.3243 183V174.896H78.1723C78.3749 174.896 78.5029 174.995 78.5563 175.192L78.6683 176.072C79.0203 175.683 79.4123 175.368 79.8443 175.128C80.2816 174.888 80.7856 174.768 81.3563 174.768C81.7989 174.768 82.1883 174.843 82.5243 174.992C82.8656 175.136 83.1483 175.344 83.3723 175.616C83.6016 175.883 83.7749 176.205 83.8923 176.584C84.0096 176.963 84.0683 177.381 84.0683 177.84V183H82.6443V177.84C82.6443 177.227 82.5029 176.752 82.2203 176.416C81.9429 176.075 81.5163 175.904 80.9403 175.904C80.5189 175.904 80.1243 176.005 79.7563 176.208C79.3936 176.411 79.0576 176.685 78.7483 177.032V183H77.3243ZM92.5886 174.768C93.1806 174.768 93.714 174.867 94.1886 175.064C94.6686 175.261 95.074 175.541 95.4046 175.904C95.7406 176.267 95.9966 176.707 96.1726 177.224C96.354 177.736 96.4446 178.309 96.4446 178.944C96.4446 179.584 96.354 180.16 96.1726 180.672C95.9966 181.184 95.7406 181.621 95.4046 181.984C95.074 182.347 94.6686 182.627 94.1886 182.824C93.714 183.016 93.1806 183.112 92.5886 183.112C91.9966 183.112 91.4606 183.016 90.9806 182.824C90.506 182.627 90.1006 182.347 89.7646 181.984C89.4286 181.621 89.17 181.184 88.9886 180.672C88.8073 180.16 88.7166 179.584 88.7166 178.944C88.7166 178.309 88.8073 177.736 88.9886 177.224C89.17 176.707 89.4286 176.267 89.7646 175.904C90.1006 175.541 90.506 175.261 90.9806 175.064C91.4606 174.867 91.9966 174.768 92.5886 174.768ZM92.5886 182C93.3886 182 93.986 181.733 94.3806 181.2C94.7753 180.661 94.9726 179.912 94.9726 178.952C94.9726 177.987 94.7753 177.235 94.3806 176.696C93.986 176.157 93.3886 175.888 92.5886 175.888C92.1833 175.888 91.8313 175.957 91.5326 176.096C91.234 176.235 90.9833 176.435 90.7806 176.696C90.5833 176.957 90.434 177.28 90.3326 177.664C90.2366 178.043 90.1886 178.472 90.1886 178.952C90.1886 179.432 90.2366 179.861 90.3326 180.24C90.434 180.619 90.5833 180.939 90.7806 181.2C90.9833 181.456 91.234 181.653 91.5326 181.792C91.8313 181.931 92.1833 182 92.5886 182ZM98.1993 185.744V174.896H99.0473C99.2499 174.896 99.3779 174.995 99.4313 175.192L99.5513 176.152C99.8979 175.731 100.293 175.392 100.735 175.136C101.183 174.88 101.698 174.752 102.279 174.752C102.743 174.752 103.165 174.843 103.543 175.024C103.922 175.2 104.245 175.464 104.511 175.816C104.778 176.163 104.983 176.595 105.127 177.112C105.271 177.629 105.343 178.224 105.343 178.896C105.343 179.493 105.263 180.051 105.103 180.568C104.943 181.08 104.714 181.525 104.415 181.904C104.117 182.277 103.749 182.573 103.311 182.792C102.879 183.005 102.391 183.112 101.847 183.112C101.346 183.112 100.917 183.029 100.559 182.864C100.207 182.699 99.8953 182.464 99.6233 182.16V185.744H98.1993ZM101.807 175.904C101.343 175.904 100.935 176.011 100.583 176.224C100.237 176.437 99.9166 176.739 99.6233 177.128V181.048C99.8846 181.4 100.17 181.648 100.479 181.792C100.794 181.936 101.143 182.008 101.527 182.008C102.279 182.008 102.858 181.739 103.263 181.2C103.669 180.661 103.871 179.893 103.871 178.896C103.871 178.368 103.823 177.915 103.727 177.536C103.637 177.157 103.503 176.848 103.327 176.608C103.151 176.363 102.935 176.184 102.679 176.072C102.423 175.96 102.133 175.904 101.807 175.904ZM109.483 183.128C108.843 183.128 108.35 182.949 108.003 182.592C107.662 182.235 107.491 181.72 107.491 181.048V176.088H106.515C106.43 176.088 106.358 176.064 106.299 176.016C106.241 175.963 106.211 175.883 106.211 175.776V175.208L107.539 175.04L107.867 172.536C107.878 172.456 107.913 172.392 107.971 172.344C108.03 172.291 108.105 172.264 108.195 172.264H108.915V175.056H111.235V176.088H108.915V180.952C108.915 181.293 108.998 181.547 109.163 181.712C109.329 181.877 109.542 181.96 109.803 181.96C109.953 181.96 110.081 181.941 110.187 181.904C110.299 181.861 110.395 181.816 110.475 181.768C110.555 181.72 110.622 181.677 110.675 181.64C110.734 181.597 110.785 181.576 110.827 181.576C110.902 181.576 110.969 181.621 111.027 181.712L111.443 182.392C111.198 182.621 110.902 182.803 110.555 182.936C110.209 183.064 109.851 183.128 109.483 183.128ZM114.58 174.896V183H113.156V174.896H114.58ZM114.9 172.352C114.9 172.491 114.871 172.621 114.812 172.744C114.759 172.861 114.684 172.968 114.588 173.064C114.497 173.155 114.391 173.227 114.268 173.28C114.145 173.333 114.015 173.36 113.876 173.36C113.737 173.36 113.607 173.333 113.484 173.28C113.367 173.227 113.26 173.155 113.164 173.064C113.073 172.968 113.001 172.861 112.948 172.744C112.895 172.621 112.868 172.491 112.868 172.352C112.868 172.213 112.895 172.083 112.948 171.96C113.001 171.832 113.073 171.723 113.164 171.632C113.26 171.536 113.367 171.461 113.484 171.408C113.607 171.355 113.737 171.328 113.876 171.328C114.015 171.328 114.145 171.355 114.268 171.408C114.391 171.461 114.497 171.536 114.588 171.632C114.684 171.723 114.759 171.832 114.812 171.96C114.871 172.083 114.9 172.213 114.9 172.352ZM120.37 174.768C120.962 174.768 121.495 174.867 121.97 175.064C122.45 175.261 122.855 175.541 123.186 175.904C123.522 176.267 123.778 176.707 123.954 177.224C124.135 177.736 124.226 178.309 124.226 178.944C124.226 179.584 124.135 180.16 123.954 180.672C123.778 181.184 123.522 181.621 123.186 181.984C122.855 182.347 122.45 182.627 121.97 182.824C121.495 183.016 120.962 183.112 120.37 183.112C119.778 183.112 119.242 183.016 118.762 182.824C118.287 182.627 117.882 182.347 117.546 181.984C117.21 181.621 116.951 181.184 116.77 180.672C116.589 180.16 116.498 179.584 116.498 178.944C116.498 178.309 116.589 177.736 116.77 177.224C116.951 176.707 117.21 176.267 117.546 175.904C117.882 175.541 118.287 175.261 118.762 175.064C119.242 174.867 119.778 174.768 120.37 174.768ZM120.37 182C121.17 182 121.767 181.733 122.162 181.2C122.557 180.661 122.754 179.912 122.754 178.952C122.754 177.987 122.557 177.235 122.162 176.696C121.767 176.157 121.17 175.888 120.37 175.888C119.965 175.888 119.613 175.957 119.314 176.096C119.015 176.235 118.765 176.435 118.562 176.696C118.365 176.957 118.215 177.28 118.114 177.664C118.018 178.043 117.97 178.472 117.97 178.952C117.97 179.432 118.018 179.861 118.114 180.24C118.215 180.619 118.365 180.939 118.562 181.2C118.765 181.456 119.015 181.653 119.314 181.792C119.613 181.931 119.965 182 120.37 182ZM125.981 183V174.896H126.829C127.031 174.896 127.159 174.995 127.213 175.192L127.325 176.072C127.677 175.683 128.069 175.368 128.501 175.128C128.938 174.888 129.442 174.768 130.013 174.768C130.455 174.768 130.845 174.843 131.181 174.992C131.522 175.136 131.805 175.344 132.029 175.616C132.258 175.883 132.431 176.205 132.549 176.584C132.666 176.963 132.725 177.381 132.725 177.84V183H131.301V177.84C131.301 177.227 131.159 176.752 130.877 176.416C130.599 176.075 130.173 175.904 129.597 175.904C129.175 175.904 128.781 176.005 128.413 176.208C128.05 176.411 127.714 176.685 127.405 177.032V183H125.981Z" fill="black"/>
<path fill-rule="evenodd" clip-rule="evenodd" d="M430.707 174.707C431.098 174.317 431.731 174.317 432.121 174.707L436.707 179.293C437.098 179.683 437.098 180.317 436.707 180.707C436.317 181.098 435.683 181.098 435.293 180.707L430.707 176.121C430.317 175.731 430.317 175.098 430.707 174.707Z" fill="black"/>
<path fill-rule="evenodd" clip-rule="evenodd" d="M441.293 174.707C440.902 174.317 440.269 174.317 439.879 174.707L435.293 179.293C434.902 179.683 434.902 180.317 435.293 180.707C435.683 181.098 436.317 181.098 436.707 180.707L441.293 176.121C441.683 175.731 441.683 175.098 441.293 174.707Z" fill="black"/>
<rect x="0.5" y="259.5" width="455" height="37" rx="3.5" stroke="#D8D8D8"/>
<path d="M21.472 281.632C21.5573 281.632 21.6347 281.667 21.704 281.736L22.312 282.4C21.8427 282.944 21.272 283.368 20.6 283.672C19.9333 283.976 19.128 284.128 18.184 284.128C17.3573 284.128 16.608 283.987 15.936 283.704C15.264 283.416 14.6907 283.016 14.216 282.504C13.7413 281.987 13.3733 281.368 13.112 280.648C12.8507 279.928 12.72 279.136 12.72 278.272C12.72 277.408 12.8587 276.616 13.136 275.896C13.4187 275.176 13.8133 274.557 14.32 274.04C14.8267 273.523 15.432 273.123 16.136 272.84C16.8453 272.552 17.6267 272.408 18.48 272.408C19.3227 272.408 20.048 272.539 20.656 272.8C21.2693 273.061 21.8133 273.416 22.288 273.864L21.784 274.576C21.7467 274.629 21.704 274.675 21.656 274.712C21.608 274.744 21.5387 274.76 21.448 274.76C21.3787 274.76 21.304 274.736 21.224 274.688C21.1493 274.635 21.0587 274.571 20.952 274.496C20.8453 274.421 20.72 274.341 20.576 274.256C20.432 274.171 20.2613 274.091 20.064 274.016C19.8667 273.941 19.6373 273.88 19.376 273.832C19.1147 273.779 18.8133 273.752 18.472 273.752C17.8587 273.752 17.296 273.859 16.784 274.072C16.2773 274.28 15.84 274.579 15.472 274.968C15.104 275.357 14.816 275.832 14.608 276.392C14.4053 276.952 14.304 277.579 14.304 278.272C14.304 278.987 14.4053 279.624 14.608 280.184C14.816 280.744 15.096 281.219 15.448 281.608C15.8053 281.992 16.2267 282.285 16.712 282.488C17.1973 282.691 17.72 282.792 18.28 282.792C18.6213 282.792 18.928 282.773 19.2 282.736C19.472 282.693 19.7227 282.629 19.952 282.544C20.1867 282.459 20.4027 282.352 20.6 282.224C20.8027 282.091 21.0053 281.933 21.208 281.752C21.2987 281.672 21.3867 281.632 21.472 281.632ZM24.1211 284V272.216H25.5451V276.984C25.8918 276.616 26.2758 276.323 26.6971 276.104C27.1185 275.88 27.6038 275.768 28.1531 275.768C28.5958 275.768 28.9851 275.843 29.3211 275.992C29.6625 276.136 29.9451 276.344 30.1691 276.616C30.3985 276.883 30.5718 277.205 30.6891 277.584C30.8065 277.963 30.8651 278.381 30.8651 278.84V284H29.4411V278.84C29.4411 278.227 29.2998 277.752 29.0171 277.416C28.7398 277.075 28.3131 276.904 27.7371 276.904C27.3158 276.904 26.9211 277.005 26.5531 277.208C26.1905 277.411 25.8545 277.685 25.5451 278.032V284H24.1211ZM36.2918 275.768C36.8838 275.768 37.4171 275.867 37.8918 276.064C38.3718 276.261 38.7771 276.541 39.1078 276.904C39.4438 277.267 39.6998 277.707 39.8758 278.224C40.0571 278.736 40.1478 279.309 40.1478 279.944C40.1478 280.584 40.0571 281.16 39.8758 281.672C39.6998 282.184 39.4438 282.621 39.1078 282.984C38.7771 283.347 38.3718 283.627 37.8918 283.824C37.4171 284.016 36.8838 284.112 36.2918 284.112C35.6998 284.112 35.1638 284.016 34.6838 283.824C34.2091 283.627 33.8038 283.347 33.4678 282.984C33.1318 282.621 32.8731 282.184 32.6918 281.672C32.5104 281.16 32.4198 280.584 32.4198 279.944C32.4198 279.309 32.5104 278.736 32.6918 278.224C32.8731 277.707 33.1318 277.267 33.4678 276.904C33.8038 276.541 34.2091 276.261 34.6838 276.064C35.1638 275.867 35.6998 275.768 36.2918 275.768ZM36.2918 283C37.0918 283 37.6891 282.733 38.0838 282.2C38.4784 281.661 38.6758 280.912 38.6758 279.952C38.6758 278.987 38.4784 278.235 38.0838 277.696C37.6891 277.157 37.0918 276.888 36.2918 276.888C35.8864 276.888 35.5344 276.957 35.2358 277.096C34.9371 277.235 34.6864 277.435 34.4838 277.696C34.2864 277.957 34.1371 278.28 34.0358 278.664C33.9398 279.043 33.8918 279.472 33.8918 279.952C33.8918 280.432 33.9398 280.861 34.0358 281.24C34.1371 281.619 34.2864 281.939 34.4838 282.2C34.6864 282.456 34.9371 282.653 35.2358 282.792C35.5344 282.931 35.8864 283 36.2918 283ZM45.1824 275.768C45.7744 275.768 46.3077 275.867 46.7824 276.064C47.2624 276.261 47.6677 276.541 47.9984 276.904C48.3344 277.267 48.5904 277.707 48.7664 278.224C48.9477 278.736 49.0384 279.309 49.0384 279.944C49.0384 280.584 48.9477 281.16 48.7664 281.672C48.5904 282.184 48.3344 282.621 47.9984 282.984C47.6677 283.347 47.2624 283.627 46.7824 283.824C46.3077 284.016 45.7744 284.112 45.1824 284.112C44.5904 284.112 44.0544 284.016 43.5744 283.824C43.0997 283.627 42.6944 283.347 42.3584 282.984C42.0224 282.621 41.7637 282.184 41.5824 281.672C41.401 281.16 41.3104 280.584 41.3104 279.944C41.3104 279.309 41.401 278.736 41.5824 278.224C41.7637 277.707 42.0224 277.267 42.3584 276.904C42.6944 276.541 43.0997 276.261 43.5744 276.064C44.0544 275.867 44.5904 275.768 45.1824 275.768ZM45.1824 283C45.9824 283 46.5797 282.733 46.9744 282.2C47.369 281.661 47.5664 280.912 47.5664 279.952C47.5664 278.987 47.369 278.235 46.9744 277.696C46.5797 277.157 45.9824 276.888 45.1824 276.888C44.777 276.888 44.425 276.957 44.1264 277.096C43.8277 277.235 43.577 277.435 43.3744 277.696C43.177 277.957 43.0277 278.28 42.9264 278.664C42.8304 279.043 42.7824 279.472 42.7824 279.952C42.7824 280.432 42.8304 280.861 42.9264 281.24C43.0277 281.619 43.177 281.939 43.3744 282.2C43.577 282.456 43.8277 282.653 44.1264 282.792C44.425 282.931 44.777 283 45.1824 283ZM55.433 277.232C55.369 277.349 55.2703 277.408 55.137 277.408C55.057 277.408 54.9663 277.379 54.865 277.32C54.7637 277.261 54.6383 277.197 54.489 277.128C54.345 277.053 54.1717 276.987 53.969 276.928C53.7663 276.864 53.5263 276.832 53.249 276.832C53.009 276.832 52.793 276.864 52.601 276.928C52.409 276.987 52.2437 277.069 52.105 277.176C51.9717 277.283 51.8677 277.408 51.793 277.552C51.7237 277.691 51.689 277.843 51.689 278.008C51.689 278.216 51.7477 278.389 51.865 278.528C51.9877 278.667 52.1477 278.787 52.345 278.888C52.5423 278.989 52.7663 279.08 53.017 279.16C53.2677 279.235 53.5237 279.317 53.785 279.408C54.0517 279.493 54.3103 279.589 54.561 279.696C54.8117 279.803 55.0357 279.936 55.233 280.096C55.4303 280.256 55.5877 280.453 55.705 280.688C55.8277 280.917 55.889 281.195 55.889 281.52C55.889 281.893 55.8223 282.24 55.689 282.56C55.5557 282.875 55.3583 283.149 55.097 283.384C54.8357 283.613 54.5157 283.795 54.137 283.928C53.7583 284.061 53.321 284.128 52.825 284.128C52.2597 284.128 51.7477 284.037 51.289 283.856C50.8303 283.669 50.441 283.432 50.121 283.144L50.457 282.6C50.4997 282.531 50.5503 282.477 50.609 282.44C50.6677 282.403 50.745 282.384 50.841 282.384C50.937 282.384 51.0383 282.421 51.145 282.496C51.2517 282.571 51.3797 282.653 51.529 282.744C51.6837 282.835 51.8677 282.917 52.081 282.992C52.2997 283.067 52.5717 283.104 52.897 283.104C53.1743 283.104 53.417 283.069 53.625 283C53.833 282.925 54.0063 282.827 54.145 282.704C54.2837 282.581 54.385 282.44 54.449 282.28C54.5183 282.12 54.553 281.949 54.553 281.768C54.553 281.544 54.4917 281.36 54.369 281.216C54.2517 281.067 54.0943 280.941 53.897 280.84C53.6997 280.733 53.473 280.643 53.217 280.568C52.9663 280.488 52.7077 280.405 52.441 280.32C52.1797 280.235 51.921 280.139 51.665 280.032C51.4143 279.92 51.1903 279.781 50.993 279.616C50.7957 279.451 50.6357 279.248 50.513 279.008C50.3957 278.763 50.337 278.467 50.337 278.12C50.337 277.811 50.401 277.515 50.529 277.232C50.657 276.944 50.8437 276.693 51.089 276.48C51.3343 276.261 51.6357 276.088 51.993 275.96C52.3503 275.832 52.7583 275.768 53.217 275.768C53.7503 275.768 54.2277 275.853 54.649 276.024C55.0757 276.189 55.4437 276.419 55.753 276.712L55.433 277.232ZM60.9385 275.768C61.4238 275.768 61.8718 275.851 62.2825 276.016C62.6932 276.176 63.0478 276.411 63.3465 276.72C63.6452 277.024 63.8772 277.403 64.0425 277.856C64.2132 278.304 64.2985 278.816 64.2985 279.392C64.2985 279.616 64.2745 279.765 64.2265 279.84C64.1785 279.915 64.0878 279.952 63.9545 279.952H58.5625C58.5732 280.464 58.6425 280.909 58.7705 281.288C58.8985 281.667 59.0745 281.984 59.2985 282.24C59.5225 282.491 59.7892 282.68 60.0985 282.808C60.4078 282.931 60.7545 282.992 61.1385 282.992C61.4958 282.992 61.8025 282.952 62.0585 282.872C62.3198 282.787 62.5438 282.696 62.7305 282.6C62.9172 282.504 63.0718 282.416 63.1945 282.336C63.3225 282.251 63.4318 282.208 63.5225 282.208C63.6398 282.208 63.7305 282.253 63.7945 282.344L64.1945 282.864C64.0185 283.077 63.8078 283.264 63.5625 283.424C63.3172 283.579 63.0532 283.707 62.7705 283.808C62.4932 283.909 62.2052 283.984 61.9065 284.032C61.6078 284.085 61.3118 284.112 61.0185 284.112C60.4585 284.112 59.9412 284.019 59.4665 283.832C58.9972 283.64 58.5892 283.363 58.2425 283C57.9012 282.632 57.6345 282.179 57.4425 281.64C57.2505 281.101 57.1545 280.483 57.1545 279.784C57.1545 279.219 57.2398 278.691 57.4105 278.2C57.5865 277.709 57.8372 277.285 58.1625 276.928C58.4878 276.565 58.8852 276.283 59.3545 276.08C59.8238 275.872 60.3518 275.768 60.9385 275.768ZM60.9705 276.816C60.2825 276.816 59.7412 277.016 59.3465 277.416C58.9518 277.811 58.7065 278.36 58.6105 279.064H63.0185C63.0185 278.733 62.9732 278.432 62.8825 278.16C62.7918 277.883 62.6585 277.645 62.4825 277.448C62.3065 277.245 62.0905 277.091 61.8345 276.984C61.5838 276.872 61.2958 276.816 60.9705 276.816ZM75.1669 284H74.5349C74.3962 284 74.2842 283.979 74.1989 283.936C74.1135 283.893 74.0575 283.803 74.0309 283.664L73.8709 282.912C73.6575 283.104 73.4495 283.277 73.2469 283.432C73.0442 283.581 72.8309 283.709 72.6069 283.816C72.3829 283.917 72.1429 283.995 71.8869 284.048C71.6362 284.101 71.3562 284.128 71.0469 284.128C70.7322 284.128 70.4362 284.085 70.1589 284C69.8869 283.909 69.6495 283.776 69.4469 283.6C69.2442 283.424 69.0815 283.203 68.9589 282.936C68.8415 282.664 68.7829 282.344 68.7829 281.976C68.7829 281.656 68.8709 281.349 69.0469 281.056C69.2229 280.757 69.5055 280.493 69.8949 280.264C70.2895 280.035 70.8042 279.848 71.4389 279.704C72.0735 279.555 72.8495 279.469 73.7669 279.448V278.816C73.7669 278.187 73.6309 277.712 73.3589 277.392C73.0922 277.067 72.6949 276.904 72.1669 276.904C71.8202 276.904 71.5269 276.949 71.2869 277.04C71.0522 277.125 70.8469 277.224 70.6709 277.336C70.5002 277.443 70.3509 277.541 70.2229 277.632C70.1002 277.717 69.9775 277.76 69.8549 277.76C69.7589 277.76 69.6735 277.736 69.5989 277.688C69.5295 277.635 69.4735 277.571 69.4309 277.496L69.1749 277.04C69.6229 276.608 70.1055 276.285 70.6229 276.072C71.1402 275.859 71.7135 275.752 72.3429 275.752C72.7962 275.752 73.1989 275.827 73.5509 275.976C73.9029 276.125 74.1989 276.333 74.4389 276.6C74.6789 276.867 74.8602 277.189 74.9829 277.568C75.1055 277.947 75.1669 278.363 75.1669 278.816V284ZM71.4709 283.128C71.7215 283.128 71.9509 283.104 72.1589 283.056C72.3669 283.003 72.5615 282.931 72.7429 282.84C72.9295 282.744 73.1055 282.629 73.2709 282.496C73.4415 282.363 73.6069 282.211 73.7669 282.04V280.352C73.1109 280.373 72.5535 280.427 72.0949 280.512C71.6362 280.592 71.2629 280.699 70.9749 280.832C70.6869 280.965 70.4762 281.123 70.3429 281.304C70.2149 281.485 70.1509 281.688 70.1509 281.912C70.1509 282.125 70.1855 282.309 70.2549 282.464C70.3242 282.619 70.4175 282.747 70.5349 282.848C70.6522 282.944 70.7909 283.016 70.9509 283.064C71.1109 283.107 71.2842 283.128 71.4709 283.128ZM77.3243 284V275.896H78.1723C78.3749 275.896 78.5029 275.995 78.5563 276.192L78.6683 277.072C79.0203 276.683 79.4123 276.368 79.8443 276.128C80.2816 275.888 80.7856 275.768 81.3563 275.768C81.7989 275.768 82.1883 275.843 82.5243 275.992C82.8656 276.136 83.1483 276.344 83.3723 276.616C83.6016 276.883 83.7749 277.205 83.8923 277.584C84.0096 277.963 84.0683 278.381 84.0683 278.84V284H82.6443V278.84C82.6443 278.227 82.5029 277.752 82.2203 277.416C81.9429 277.075 81.5163 276.904 80.9403 276.904C80.5189 276.904 80.1243 277.005 79.7563 277.208C79.3936 277.411 79.0576 277.685 78.7483 278.032V284H77.3243ZM92.5886 275.768C93.1806 275.768 93.714 275.867 94.1886 276.064C94.6686 276.261 95.074 276.541 95.4046 276.904C95.7406 277.267 95.9966 277.707 96.1726 278.224C96.354 278.736 96.4446 279.309 96.4446 279.944C96.4446 280.584 96.354 281.16 96.1726 281.672C95.9966 282.184 95.7406 282.621 95.4046 282.984C95.074 283.347 94.6686 283.627 94.1886 283.824C93.714 284.016 93.1806 284.112 92.5886 284.112C91.9966 284.112 91.4606 284.016 90.9806 283.824C90.506 283.627 90.1006 283.347 89.7646 282.984C89.4286 282.621 89.17 282.184 88.9886 281.672C88.8073 281.16 88.7166 280.584 88.7166 279.944C88.7166 279.309 88.8073 278.736 88.9886 278.224C89.17 277.707 89.4286 277.267 89.7646 276.904C90.1006 276.541 90.506 276.261 90.9806 276.064C91.4606 275.867 91.9966 275.768 92.5886 275.768ZM92.5886 283C93.3886 283 93.986 282.733 94.3806 282.2C94.7753 281.661 94.9726 280.912 94.9726 279.952C94.9726 278.987 94.7753 278.235 94.3806 277.696C93.986 277.157 93.3886 276.888 92.5886 276.888C92.1833 276.888 91.8313 276.957 91.5326 277.096C91.234 277.235 90.9833 277.435 90.7806 277.696C90.5833 277.957 90.434 278.28 90.3326 278.664C90.2366 279.043 90.1886 279.472 90.1886 279.952C90.1886 280.432 90.2366 280.861 90.3326 281.24C90.434 281.619 90.5833 281.939 90.7806 282.2C90.9833 282.456 91.234 282.653 91.5326 282.792C91.8313 282.931 92.1833 283 92.5886 283ZM98.1993 286.744V275.896H99.0473C99.2499 275.896 99.3779 275.995 99.4313 276.192L99.5513 277.152C99.8979 276.731 100.293 276.392 100.735 276.136C101.183 275.88 101.698 275.752 102.279 275.752C102.743 275.752 103.165 275.843 103.543 276.024C103.922 276.2 104.245 276.464 104.511 276.816C104.778 277.163 104.983 277.595 105.127 278.112C105.271 278.629 105.343 279.224 105.343 279.896C105.343 280.493 105.263 281.051 105.103 281.568C104.943 282.08 104.714 282.525 104.415 282.904C104.117 283.277 103.749 283.573 103.311 283.792C102.879 284.005 102.391 284.112 101.847 284.112C101.346 284.112 100.917 284.029 100.559 283.864C100.207 283.699 99.8953 283.464 99.6233 283.16V286.744H98.1993ZM101.807 276.904C101.343 276.904 100.935 277.011 100.583 277.224C100.237 277.437 99.9166 277.739 99.6233 278.128V282.048C99.8846 282.4 100.17 282.648 100.479 282.792C100.794 282.936 101.143 283.008 101.527 283.008C102.279 283.008 102.858 282.739 103.263 282.2C103.669 281.661 103.871 280.893 103.871 279.896C103.871 279.368 103.823 278.915 103.727 278.536C103.637 278.157 103.503 277.848 103.327 277.608C103.151 277.363 102.935 277.184 102.679 277.072C102.423 276.96 102.133 276.904 101.807 276.904ZM109.483 284.128C108.843 284.128 108.35 283.949 108.003 283.592C107.662 283.235 107.491 282.72 107.491 282.048V277.088H106.515C106.43 277.088 106.358 277.064 106.299 277.016C106.241 276.963 106.211 276.883 106.211 276.776V276.208L107.539 276.04L107.867 273.536C107.878 273.456 107.913 273.392 107.971 273.344C108.03 273.291 108.105 273.264 108.195 273.264H108.915V276.056H111.235V277.088H108.915V281.952C108.915 282.293 108.998 282.547 109.163 282.712C109.329 282.877 109.542 282.96 109.803 282.96C109.953 282.96 110.081 282.941 110.187 282.904C110.299 282.861 110.395 282.816 110.475 282.768C110.555 282.72 110.622 282.677 110.675 282.64C110.734 282.597 110.785 282.576 110.827 282.576C110.902 282.576 110.969 282.621 111.027 282.712L111.443 283.392C111.198 283.621 110.902 283.803 110.555 283.936C110.209 284.064 109.851 284.128 109.483 284.128ZM114.58 275.896V284H113.156V275.896H114.58ZM114.9 273.352C114.9 273.491 114.871 273.621 114.812 273.744C114.759 273.861 114.684 273.968 114.588 274.064C114.497 274.155 114.391 274.227 114.268 274.28C114.145 274.333 114.015 274.36 113.876 274.36C113.737 274.36 113.607 274.333 113.484 274.28C113.367 274.227 113.26 274.155 113.164 274.064C113.073 273.968 113.001 273.861 112.948 273.744C112.895 273.621 112.868 273.491 112.868 273.352C112.868 273.213 112.895 273.083 112.948 272.96C113.001 272.832 113.073 272.723 113.164 272.632C113.26 272.536 113.367 272.461 113.484 272.408C113.607 272.355 113.737 272.328 113.876 272.328C114.015 272.328 114.145 272.355 114.268 272.408C114.391 272.461 114.497 272.536 114.588 272.632C114.684 272.723 114.759 272.832 114.812 272.96C114.871 273.083 114.9 273.213 114.9 273.352ZM120.37 275.768C120.962 275.768 121.495 275.867 121.97 276.064C122.45 276.261 122.855 276.541 123.186 276.904C123.522 277.267 123.778 277.707 123.954 278.224C124.135 278.736 124.226 279.309 124.226 279.944C124.226 280.584 124.135 281.16 123.954 281.672C123.778 282.184 123.522 282.621 123.186 282.984C122.855 283.347 122.45 283.627 121.97 283.824C121.495 284.016 120.962 284.112 120.37 284.112C119.778 284.112 119.242 284.016 118.762 283.824C118.287 283.627 117.882 283.347 117.546 282.984C117.21 282.621 116.951 282.184 116.77 281.672C116.589 281.16 116.498 280.584 116.498 279.944C116.498 279.309 116.589 278.736 116.77 278.224C116.951 277.707 117.21 277.267 117.546 276.904C117.882 276.541 118.287 276.261 118.762 276.064C119.242 275.867 119.778 275.768 120.37 275.768ZM120.37 283C121.17 283 121.767 282.733 122.162 282.2C122.557 281.661 122.754 280.912 122.754 279.952C122.754 278.987 122.557 278.235 122.162 277.696C121.767 277.157 121.17 276.888 120.37 276.888C119.965 276.888 119.613 276.957 119.314 277.096C119.015 277.235 118.765 277.435 118.562 277.696C118.365 277.957 118.215 278.28 118.114 278.664C118.018 279.043 117.97 279.472 117.97 279.952C117.97 280.432 118.018 280.861 118.114 281.24C118.215 281.619 118.365 281.939 118.562 282.2C118.765 282.456 119.015 282.653 119.314 282.792C119.613 282.931 119.965 283 120.37 283ZM125.981 284V275.896H126.829C127.031 275.896 127.159 275.995 127.213 276.192L127.325 277.072C127.677 276.683 128.069 276.368 128.501 276.128C128.938 275.888 129.442 275.768 130.013 275.768C130.455 275.768 130.845 275.843 131.181 275.992C131.522 276.136 131.805 276.344 132.029 276.616C132.258 276.883 132.431 277.205 132.549 277.584C132.666 277.963 132.725 278.381 132.725 278.84V284H131.301V278.84C131.301 278.227 131.159 277.752 130.877 277.416C130.599 277.075 130.173 276.904 129.597 276.904C129.175 276.904 128.781 277.005 128.413 277.208C128.05 277.411 127.714 277.685 127.405 278.032V284H125.981Z" fill="black"/>
<path fill-rule="evenodd" clip-rule="evenodd" d="M430.707 275.707C431.098 275.317 431.731 275.317 432.121 275.707L436.707 280.293C437.098 280.683 437.098 281.317 436.707 281.707C436.317 282.098 435.683 282.098 435.293 281.707L430.707 277.121C430.317 276.731 430.317 276.098 430.707 275.707Z" fill="black"/>
<path fill-rule="evenodd" clip-rule="evenodd" d="M441.293 275.707C440.902 275.317 440.269 275.317 439.879 275.707L435.293 280.293C434.902 280.683 434.902 281.317 435.293 281.707C435.683 282.098 436.317 282.098 436.707 281.707L441.293 277.121C441.683 276.731 441.683 276.098 441.293 275.707Z" fill="black"/>
</svg>
