<svg width="700" height="60" viewBox="0 0 700 60" fill="none" xmlns="http://www.w3.org/2000/svg">
<path d="M253.352 57H251.987V52.436H246.583V57H245.218V46.969H246.583V51.442H251.987V46.969H253.352V57ZM258.411 49.797C258.836 49.797 259.228 49.8693 259.587 50.014C259.946 50.154 260.257 50.3593 260.518 50.63C260.779 50.896 260.982 51.2273 261.127 51.624C261.276 52.016 261.351 52.464 261.351 52.968C261.351 53.164 261.33 53.2947 261.288 53.36C261.246 53.4253 261.167 53.458 261.05 53.458H256.332C256.341 53.906 256.402 54.2957 256.514 54.627C256.626 54.9583 256.78 55.236 256.976 55.46C257.172 55.6793 257.405 55.845 257.676 55.957C257.947 56.0643 258.25 56.118 258.586 56.118C258.899 56.118 259.167 56.083 259.391 56.013C259.62 55.9383 259.816 55.859 259.979 55.775C260.142 55.691 260.278 55.614 260.385 55.544C260.497 55.4693 260.593 55.432 260.672 55.432C260.775 55.432 260.854 55.4717 260.91 55.551L261.26 56.006C261.106 56.1927 260.922 56.356 260.707 56.496C260.492 56.6313 260.261 56.7433 260.014 56.832C259.771 56.9207 259.519 56.986 259.258 57.028C258.997 57.0747 258.738 57.098 258.481 57.098C257.991 57.098 257.538 57.0163 257.123 56.853C256.712 56.685 256.355 56.4423 256.052 56.125C255.753 55.803 255.52 55.4063 255.352 54.935C255.184 54.4637 255.1 53.9223 255.1 53.311C255.1 52.8163 255.175 52.3543 255.324 51.925C255.478 51.4957 255.697 51.1247 255.982 50.812C256.267 50.4947 256.614 50.2473 257.025 50.07C257.436 49.888 257.898 49.797 258.411 49.797ZM258.439 50.714C257.837 50.714 257.363 50.889 257.018 51.239C256.673 51.5843 256.458 52.065 256.374 52.681H260.231C260.231 52.3917 260.191 52.128 260.112 51.89C260.033 51.6473 259.916 51.4397 259.762 51.267C259.608 51.0897 259.419 50.9543 259.195 50.861C258.976 50.763 258.724 50.714 258.439 50.714ZM264.332 46.689V57H263.086V46.689H264.332ZM266.528 59.401V49.909H267.27C267.447 49.909 267.559 49.9953 267.606 50.168L267.711 51.008C268.014 50.6393 268.36 50.343 268.747 50.119C269.139 49.895 269.589 49.783 270.098 49.783C270.504 49.783 270.873 49.8623 271.204 50.021C271.535 50.175 271.818 50.406 272.051 50.714C272.284 51.0173 272.464 51.3953 272.59 51.848C272.716 52.3007 272.779 52.821 272.779 53.409C272.779 53.9317 272.709 54.4193 272.569 54.872C272.429 55.32 272.228 55.7097 271.967 56.041C271.706 56.3677 271.384 56.6267 271.001 56.818C270.623 57.0047 270.196 57.098 269.72 57.098C269.281 57.098 268.906 57.0257 268.593 56.881C268.285 56.7363 268.012 56.531 267.774 56.265V59.401H266.528ZM269.685 50.791C269.279 50.791 268.922 50.8843 268.614 51.071C268.311 51.2577 268.031 51.5213 267.774 51.862V55.292C268.003 55.6 268.252 55.817 268.523 55.943C268.798 56.069 269.104 56.132 269.44 56.132C270.098 56.132 270.604 55.8963 270.959 55.425C271.314 54.9537 271.491 54.2817 271.491 53.409C271.491 52.947 271.449 52.5503 271.365 52.219C271.286 51.8877 271.169 51.617 271.015 51.407C270.861 51.1923 270.672 51.036 270.448 50.938C270.224 50.84 269.97 50.791 269.685 50.791ZM277.059 49.797C277.484 49.797 277.876 49.8693 278.235 50.014C278.595 50.154 278.905 50.3593 279.166 50.63C279.428 50.896 279.631 51.2273 279.775 51.624C279.925 52.016 279.999 52.464 279.999 52.968C279.999 53.164 279.978 53.2947 279.936 53.36C279.894 53.4253 279.815 53.458 279.698 53.458H274.98C274.99 53.906 275.05 54.2957 275.162 54.627C275.274 54.9583 275.428 55.236 275.624 55.46C275.82 55.6793 276.054 55.845 276.324 55.957C276.595 56.0643 276.898 56.118 277.234 56.118C277.547 56.118 277.815 56.083 278.039 56.013C278.268 55.9383 278.464 55.859 278.627 55.775C278.791 55.691 278.926 55.614 279.033 55.544C279.145 55.4693 279.241 55.432 279.32 55.432C279.423 55.432 279.502 55.4717 279.558 55.551L279.908 56.006C279.754 56.1927 279.57 56.356 279.355 56.496C279.141 56.6313 278.91 56.7433 278.662 56.832C278.42 56.9207 278.168 56.986 277.906 57.028C277.645 57.0747 277.386 57.098 277.129 57.098C276.639 57.098 276.187 57.0163 275.771 56.853C275.361 56.685 275.004 56.4423 274.7 56.125C274.402 55.803 274.168 55.4063 274 54.935C273.832 54.4637 273.748 53.9223 273.748 53.311C273.748 52.8163 273.823 52.3543 273.972 51.925C274.126 51.4957 274.346 51.1247 274.63 50.812C274.915 50.4947 275.263 50.2473 275.673 50.07C276.084 49.888 276.546 49.797 277.059 49.797ZM277.087 50.714C276.485 50.714 276.012 50.889 275.666 51.239C275.321 51.5843 275.106 52.065 275.022 52.681H278.879C278.879 52.3917 278.84 52.128 278.76 51.89C278.681 51.6473 278.564 51.4397 278.41 51.267C278.256 51.0897 278.067 50.9543 277.843 50.861C277.624 50.763 277.372 50.714 277.087 50.714ZM281.594 57V49.909H282.308C282.444 49.909 282.537 49.9347 282.588 49.986C282.64 50.0373 282.675 50.126 282.693 50.252L282.777 51.358C283.02 50.8633 283.319 50.4783 283.673 50.203C284.033 49.923 284.453 49.783 284.933 49.783C285.129 49.783 285.307 49.8063 285.465 49.853C285.624 49.895 285.771 49.9557 285.906 50.035L285.745 50.966C285.713 51.0827 285.64 51.141 285.528 51.141C285.463 51.141 285.363 51.12 285.227 51.078C285.092 51.0313 284.903 51.008 284.66 51.008C284.226 51.008 283.862 51.134 283.568 51.386C283.279 51.638 283.036 52.0043 282.84 52.485V57H281.594ZM292.097 57.112C291.537 57.112 291.105 56.9557 290.802 56.643C290.503 56.3303 290.354 55.88 290.354 55.292V50.952H289.5C289.425 50.952 289.362 50.931 289.311 50.889C289.259 50.8423 289.234 50.7723 289.234 50.679V50.182L290.396 50.035L290.683 47.844C290.692 47.774 290.722 47.718 290.774 47.676C290.825 47.6293 290.89 47.606 290.97 47.606H291.6V50.049H293.63V50.952H291.6V55.208C291.6 55.5067 291.672 55.7283 291.817 55.873C291.961 56.0177 292.148 56.09 292.377 56.09C292.507 56.09 292.619 56.0737 292.713 56.041C292.811 56.0037 292.895 55.964 292.965 55.922C293.035 55.88 293.093 55.8427 293.14 55.81C293.191 55.7727 293.235 55.754 293.273 55.754C293.338 55.754 293.396 55.7937 293.448 55.873L293.812 56.468C293.597 56.6687 293.338 56.8273 293.035 56.944C292.731 57.056 292.419 57.112 292.097 57.112ZM297.977 49.797C298.402 49.797 298.794 49.8693 299.153 50.014C299.513 50.154 299.823 50.3593 300.084 50.63C300.346 50.896 300.549 51.2273 300.693 51.624C300.843 52.016 300.917 52.464 300.917 52.968C300.917 53.164 300.896 53.2947 300.854 53.36C300.812 53.4253 300.733 53.458 300.616 53.458H295.898C295.908 53.906 295.968 54.2957 296.08 54.627C296.192 54.9583 296.346 55.236 296.542 55.46C296.738 55.6793 296.972 55.845 297.242 55.957C297.513 56.0643 297.816 56.118 298.152 56.118C298.465 56.118 298.733 56.083 298.957 56.013C299.186 55.9383 299.382 55.859 299.545 55.775C299.709 55.691 299.844 55.614 299.951 55.544C300.063 55.4693 300.159 55.432 300.238 55.432C300.341 55.432 300.42 55.4717 300.476 55.551L300.826 56.006C300.672 56.1927 300.488 56.356 300.273 56.496C300.059 56.6313 299.828 56.7433 299.58 56.832C299.338 56.9207 299.086 56.986 298.824 57.028C298.563 57.0747 298.304 57.098 298.047 57.098C297.557 57.098 297.105 57.0163 296.689 56.853C296.279 56.685 295.922 56.4423 295.618 56.125C295.32 55.803 295.086 55.4063 294.918 54.935C294.75 54.4637 294.666 53.9223 294.666 53.311C294.666 52.8163 294.741 52.3543 294.89 51.925C295.044 51.4957 295.264 51.1247 295.548 50.812C295.833 50.4947 296.181 50.2473 296.591 50.07C297.002 49.888 297.464 49.797 297.977 49.797ZM298.005 50.714C297.403 50.714 296.93 50.889 296.584 51.239C296.239 51.5843 296.024 52.065 295.94 52.681H299.797C299.797 52.3917 299.758 52.128 299.678 51.89C299.599 51.6473 299.482 51.4397 299.328 51.267C299.174 51.0897 298.985 50.9543 298.761 50.861C298.542 50.763 298.29 50.714 298.005 50.714ZM303.747 53.367L301.36 49.909H302.557C302.66 49.909 302.735 49.9253 302.781 49.958C302.828 49.9907 302.87 50.0373 302.907 50.098L304.643 52.758C304.685 52.6273 304.746 52.4967 304.825 52.366L306.351 50.126C306.398 50.0607 306.445 50.0093 306.491 49.972C306.538 49.93 306.596 49.909 306.666 49.909H307.814L305.427 53.297L307.912 57H306.715C306.613 57 306.531 56.9743 306.47 56.923C306.414 56.867 306.368 56.8063 306.33 56.741L304.545 53.962C304.513 54.0973 304.464 54.2187 304.398 54.326L302.746 56.741C302.7 56.8063 302.648 56.867 302.592 56.923C302.541 56.9743 302.469 57 302.375 57H301.262L303.747 53.367ZM311.292 57.112C310.732 57.112 310.3 56.9557 309.997 56.643C309.698 56.3303 309.549 55.88 309.549 55.292V50.952H308.695C308.62 50.952 308.557 50.931 308.506 50.889C308.455 50.8423 308.429 50.7723 308.429 50.679V50.182L309.591 50.035L309.878 47.844C309.887 47.774 309.918 47.718 309.969 47.676C310.02 47.6293 310.086 47.606 310.165 47.606H310.795V50.049H312.825V50.952H310.795V55.208C310.795 55.5067 310.867 55.7283 311.012 55.873C311.157 56.0177 311.343 56.09 311.572 56.09C311.703 56.09 311.815 56.0737 311.908 56.041C312.006 56.0037 312.09 55.964 312.16 55.922C312.23 55.88 312.288 55.8427 312.335 55.81C312.386 55.7727 312.431 55.754 312.468 55.754C312.533 55.754 312.592 55.7937 312.643 55.873L313.007 56.468C312.792 56.6687 312.533 56.8273 312.23 56.944C311.927 57.056 311.614 57.112 311.292 57.112Z" fill="#6A6A6A"/>
<path d="M2.944 23.696H7.904V25H1.392V13.536H2.944V23.696ZM15.3388 25H14.7068C14.5681 25 14.4561 24.9787 14.3708 24.936C14.2854 24.8933 14.2294 24.8027 14.2028 24.664L14.0428 23.912C13.8294 24.104 13.6214 24.2773 13.4188 24.432C13.2161 24.5813 13.0028 24.7093 12.7788 24.816C12.5548 24.9173 12.3148 24.9947 12.0588 25.048C11.8081 25.1013 11.5281 25.128 11.2188 25.128C10.9041 25.128 10.6081 25.0853 10.3307 25C10.0588 24.9093 9.82142 24.776 9.61875 24.6C9.41608 24.424 9.25342 24.2027 9.13075 23.936C9.01342 23.664 8.95475 23.344 8.95475 22.976C8.95475 22.656 9.04275 22.3493 9.21875 22.056C9.39475 21.7573 9.67742 21.4933 10.0668 21.264C10.4614 21.0347 10.9761 20.848 11.6108 20.704C12.2454 20.5547 13.0214 20.4693 13.9388 20.448V19.816C13.9388 19.1867 13.8028 18.712 13.5308 18.392C13.2641 18.0667 12.8668 17.904 12.3388 17.904C11.9921 17.904 11.6988 17.9493 11.4588 18.04C11.2241 18.1253 11.0188 18.224 10.8428 18.336C10.6721 18.4427 10.5228 18.5413 10.3948 18.632C10.2721 18.7173 10.1494 18.76 10.0268 18.76C9.93075 18.76 9.84542 18.736 9.77075 18.688C9.70142 18.6347 9.64542 18.5707 9.60275 18.496L9.34675 18.04C9.79475 17.608 10.2774 17.2853 10.7948 17.072C11.3121 16.8587 11.8854 16.752 12.5148 16.752C12.9681 16.752 13.3708 16.8267 13.7228 16.976C14.0748 17.1253 14.3708 17.3333 14.6108 17.6C14.8508 17.8667 15.0321 18.1893 15.1548 18.568C15.2774 18.9467 15.3388 19.3627 15.3388 19.816V25ZM11.6428 24.128C11.8934 24.128 12.1228 24.104 12.3307 24.056C12.5388 24.0027 12.7334 23.9307 12.9148 23.84C13.1014 23.744 13.2774 23.6293 13.4428 23.496C13.6134 23.3627 13.7788 23.2107 13.9388 23.04V21.352C13.2828 21.3733 12.7254 21.4267 12.2668 21.512C11.8081 21.592 11.4348 21.6987 11.1468 21.832C10.8588 21.9653 10.6481 22.1227 10.5148 22.304C10.3868 22.4853 10.3228 22.688 10.3228 22.912C10.3228 23.1253 10.3574 23.3093 10.4268 23.464C10.4961 23.6187 10.5894 23.7467 10.7068 23.848C10.8241 23.944 10.9628 24.016 11.1228 24.064C11.2828 24.1067 11.4561 24.128 11.6428 24.128ZM17.5441 25V13.216H18.9761V18.064C19.3121 17.6747 19.6961 17.3627 20.1281 17.128C20.5655 16.888 21.0641 16.768 21.6241 16.768C22.0935 16.768 22.5175 16.856 22.8961 17.032C23.2748 17.208 23.5975 17.472 23.8641 17.824C24.1308 18.1707 24.3361 18.6027 24.4801 19.12C24.6241 19.632 24.6961 20.224 24.6961 20.896C24.6961 21.4933 24.6161 22.0507 24.4561 22.568C24.2961 23.08 24.0641 23.5253 23.7601 23.904C23.4615 24.2773 23.0935 24.5733 22.6561 24.792C22.2241 25.0053 21.7361 25.112 21.1921 25.112C20.6695 25.112 20.2241 25.0107 19.8561 24.808C19.4935 24.6053 19.1761 24.3227 18.9041 23.96L18.8321 24.696C18.7895 24.8987 18.6668 25 18.4641 25H17.5441ZM21.1601 17.904C20.6961 17.904 20.2881 18.0107 19.9361 18.224C19.5895 18.4373 19.2695 18.7387 18.9761 19.128V23.048C19.2321 23.4 19.5148 23.648 19.8241 23.792C20.1388 23.936 20.4881 24.008 20.8721 24.008C21.6295 24.008 22.2108 23.7387 22.6161 23.2C23.0215 22.6613 23.2241 21.8933 23.2241 20.896C23.2241 20.368 23.1761 19.9147 23.0801 19.536C22.9895 19.1573 22.8561 18.848 22.6801 18.608C22.5041 18.3627 22.2881 18.184 22.0321 18.072C21.7761 17.96 21.4855 17.904 21.1601 17.904ZM29.6416 16.768C30.127 16.768 30.575 16.8507 30.9856 17.016C31.3963 17.176 31.751 17.4107 32.0496 17.72C32.3483 18.024 32.5803 18.4027 32.7456 18.856C32.9163 19.304 33.0016 19.816 33.0016 20.392C33.0016 20.616 32.9776 20.7653 32.9296 20.84C32.8816 20.9147 32.791 20.952 32.6576 20.952H27.2656C27.2763 21.464 27.3456 21.9093 27.4736 22.288C27.6016 22.6667 27.7776 22.984 28.0016 23.24C28.2256 23.4907 28.4923 23.68 28.8016 23.808C29.111 23.9307 29.4576 23.992 29.8416 23.992C30.199 23.992 30.5056 23.952 30.7616 23.872C31.023 23.7867 31.247 23.696 31.4336 23.6C31.6203 23.504 31.775 23.416 31.8976 23.336C32.0256 23.2507 32.135 23.208 32.2256 23.208C32.343 23.208 32.4336 23.2533 32.4976 23.344L32.8976 23.864C32.7216 24.0773 32.511 24.264 32.2656 24.424C32.0203 24.5787 31.7563 24.7067 31.4736 24.808C31.1963 24.9093 30.9083 24.984 30.6096 25.032C30.311 25.0853 30.015 25.112 29.7216 25.112C29.1616 25.112 28.6443 25.0187 28.1696 24.832C27.7003 24.64 27.2923 24.3627 26.9456 24C26.6043 23.632 26.3376 23.1787 26.1456 22.64C25.9536 22.1013 25.8576 21.4827 25.8576 20.784C25.8576 20.2187 25.943 19.6907 26.1136 19.2C26.2896 18.7093 26.5403 18.2853 26.8656 17.928C27.191 17.5653 27.5883 17.2827 28.0576 17.08C28.527 16.872 29.055 16.768 29.6416 16.768ZM29.6736 17.816C28.9856 17.816 28.4443 18.016 28.0496 18.416C27.655 18.8107 27.4096 19.36 27.3136 20.064H31.7216C31.7216 19.7333 31.6763 19.432 31.5856 19.16C31.495 18.8827 31.3616 18.6453 31.1856 18.448C31.0096 18.2453 30.7936 18.0907 30.5376 17.984C30.287 17.872 29.999 17.816 29.6736 17.816ZM36.4083 13.216V25H34.9843V13.216H36.4083Z" fill="black"/>
<rect x="244.5" y="0.5" width="455" height="37" rx="3.5" stroke="#979797"/>
<path d="M268.04 19.272C268.04 20.1307 267.904 20.92 267.632 21.64C267.36 22.3547 266.976 22.9707 266.48 23.488C265.984 24.0053 265.387 24.408 264.688 24.696C263.995 24.9787 263.227 25.12 262.384 25.12C261.541 25.12 260.773 24.9787 260.08 24.696C259.387 24.408 258.792 24.0053 258.296 23.488C257.8 22.9707 257.416 22.3547 257.144 21.64C256.872 20.92 256.736 20.1307 256.736 19.272C256.736 18.4133 256.872 17.6267 257.144 16.912C257.416 16.192 257.8 15.5733 258.296 15.056C258.792 14.5333 259.387 14.128 260.08 13.84C260.773 13.552 261.541 13.408 262.384 13.408C263.227 13.408 263.995 13.552 264.688 13.84C265.387 14.128 265.984 14.5333 266.48 15.056C266.976 15.5733 267.36 16.192 267.632 16.912C267.904 17.6267 268.04 18.4133 268.04 19.272ZM266.448 19.272C266.448 18.568 266.352 17.936 266.16 17.376C265.968 16.816 265.696 16.344 265.344 15.96C264.992 15.5707 264.565 15.272 264.064 15.064C263.563 14.856 263.003 14.752 262.384 14.752C261.771 14.752 261.213 14.856 260.712 15.064C260.211 15.272 259.781 15.5707 259.424 15.96C259.072 16.344 258.8 16.816 258.608 17.376C258.416 17.936 258.32 18.568 258.32 19.272C258.32 19.976 258.416 20.608 258.608 21.168C258.8 21.7227 259.072 22.1947 259.424 22.584C259.781 22.968 260.211 23.264 260.712 23.472C261.213 23.6747 261.771 23.776 262.384 23.776C263.003 23.776 263.563 23.6747 264.064 23.472C264.565 23.264 264.992 22.968 265.344 22.584C265.696 22.1947 265.968 21.7227 266.16 21.168C266.352 20.608 266.448 19.976 266.448 19.272ZM269.934 27.744V16.896H270.782C270.984 16.896 271.112 16.9947 271.166 17.192L271.286 18.152C271.632 17.7307 272.027 17.392 272.47 17.136C272.918 16.88 273.432 16.752 274.014 16.752C274.478 16.752 274.899 16.8427 275.278 17.024C275.656 17.2 275.979 17.464 276.246 17.816C276.512 18.1627 276.718 18.5947 276.862 19.112C277.006 19.6293 277.078 20.224 277.078 20.896C277.078 21.4933 276.998 22.0507 276.838 22.568C276.678 23.08 276.448 23.5253 276.15 23.904C275.851 24.2773 275.483 24.5733 275.046 24.792C274.614 25.0053 274.126 25.112 273.582 25.112C273.08 25.112 272.651 25.0293 272.294 24.864C271.942 24.6987 271.63 24.464 271.358 24.16V27.744H269.934ZM273.542 17.904C273.078 17.904 272.67 18.0107 272.318 18.224C271.971 18.4373 271.651 18.7387 271.358 19.128V23.048C271.619 23.4 271.904 23.648 272.214 23.792C272.528 23.936 272.878 24.008 273.262 24.008C274.014 24.008 274.592 23.7387 274.998 23.2C275.403 22.6613 275.606 21.8933 275.606 20.896C275.606 20.368 275.558 19.9147 275.462 19.536C275.371 19.1573 275.238 18.848 275.062 18.608C274.886 18.3627 274.67 18.184 274.414 18.072C274.158 17.96 273.867 17.904 273.542 17.904ZM281.218 25.128C280.578 25.128 280.084 24.9493 279.738 24.592C279.396 24.2347 279.226 23.72 279.226 23.048V18.088H278.25C278.164 18.088 278.092 18.064 278.034 18.016C277.975 17.9627 277.946 17.8827 277.946 17.776V17.208L279.274 17.04L279.602 14.536C279.612 14.456 279.647 14.392 279.706 14.344C279.764 14.2907 279.839 14.264 279.93 14.264H280.65V17.056H282.97V18.088H280.65V22.952C280.65 23.2933 280.732 23.5467 280.898 23.712C281.063 23.8773 281.276 23.96 281.538 23.96C281.687 23.96 281.815 23.9413 281.922 23.904C282.034 23.8613 282.13 23.816 282.21 23.768C282.29 23.72 282.356 23.6773 282.41 23.64C282.468 23.5973 282.519 23.576 282.562 23.576C282.636 23.576 282.703 23.6213 282.762 23.712L283.178 24.392C282.932 24.6213 282.636 24.8027 282.29 24.936C281.943 25.064 281.586 25.128 281.218 25.128ZM286.315 16.896V25H284.891V16.896H286.315ZM286.635 14.352C286.635 14.4907 286.605 14.6213 286.547 14.744C286.493 14.8613 286.419 14.968 286.323 15.064C286.232 15.1547 286.125 15.2267 286.003 15.28C285.88 15.3333 285.749 15.36 285.611 15.36C285.472 15.36 285.341 15.3333 285.219 15.28C285.101 15.2267 284.995 15.1547 284.899 15.064C284.808 14.968 284.736 14.8613 284.683 14.744C284.629 14.6213 284.603 14.4907 284.603 14.352C284.603 14.2133 284.629 14.0827 284.683 13.96C284.736 13.832 284.808 13.7227 284.899 13.632C284.995 13.536 285.101 13.4613 285.219 13.408C285.341 13.3547 285.472 13.328 285.611 13.328C285.749 13.328 285.88 13.3547 286.003 13.408C286.125 13.4613 286.232 13.536 286.323 13.632C286.419 13.7227 286.493 13.832 286.547 13.96C286.605 14.0827 286.635 14.2133 286.635 14.352ZM292.104 16.768C292.696 16.768 293.23 16.8667 293.704 17.064C294.184 17.2613 294.59 17.5413 294.92 17.904C295.256 18.2667 295.512 18.7067 295.688 19.224C295.87 19.736 295.96 20.3093 295.96 20.944C295.96 21.584 295.87 22.16 295.688 22.672C295.512 23.184 295.256 23.6213 294.92 23.984C294.59 24.3467 294.184 24.6267 293.704 24.824C293.23 25.016 292.696 25.112 292.104 25.112C291.512 25.112 290.976 25.016 290.496 24.824C290.022 24.6267 289.616 24.3467 289.28 23.984C288.944 23.6213 288.686 23.184 288.504 22.672C288.323 22.16 288.232 21.584 288.232 20.944C288.232 20.3093 288.323 19.736 288.504 19.224C288.686 18.7067 288.944 18.2667 289.28 17.904C289.616 17.5413 290.022 17.2613 290.496 17.064C290.976 16.8667 291.512 16.768 292.104 16.768ZM292.104 24C292.904 24 293.502 23.7333 293.896 23.2C294.291 22.6613 294.488 21.912 294.488 20.952C294.488 19.9867 294.291 19.2347 293.896 18.696C293.502 18.1573 292.904 17.888 292.104 17.888C291.699 17.888 291.347 17.9573 291.048 18.096C290.75 18.2347 290.499 18.4347 290.296 18.696C290.099 18.9573 289.95 19.28 289.848 19.664C289.752 20.0427 289.704 20.472 289.704 20.952C289.704 21.432 289.752 21.8613 289.848 22.24C289.95 22.6187 290.099 22.9387 290.296 23.2C290.499 23.456 290.75 23.6533 291.048 23.792C291.347 23.9307 291.699 24 292.104 24ZM297.715 25V16.896H298.563C298.766 16.896 298.894 16.9947 298.947 17.192L299.059 18.072C299.411 17.6827 299.803 17.368 300.235 17.128C300.672 16.888 301.176 16.768 301.747 16.768C302.19 16.768 302.579 16.8427 302.915 16.992C303.256 17.136 303.539 17.344 303.763 17.616C303.992 17.8827 304.166 18.2053 304.283 18.584C304.4 18.9627 304.459 19.3813 304.459 19.84V25H303.035V19.84C303.035 19.2267 302.894 18.752 302.611 18.416C302.334 18.0747 301.907 17.904 301.331 17.904C300.91 17.904 300.515 18.0053 300.147 18.208C299.784 18.4107 299.448 18.6853 299.139 19.032V25H297.715ZM310.827 23.912H313.291V16.096C313.291 15.8613 313.299 15.624 313.315 15.384L311.267 17.136C311.214 17.1787 311.161 17.2107 311.107 17.232C311.054 17.248 311.003 17.256 310.955 17.256C310.875 17.256 310.803 17.24 310.739 17.208C310.675 17.1707 310.627 17.128 310.595 17.08L310.147 16.464L313.555 13.512H314.715V23.912H316.971V25H310.827V23.912Z" fill="black"/>
<path fill-rule="evenodd" clip-rule="evenodd" d="M674.707 16.7071C675.098 16.3166 675.731 16.3166 676.121 16.7071L680.707 21.2929C681.098 21.6834 681.098 22.3166 680.707 22.7071C680.317 23.0976 679.683 23.0976 679.293 22.7071L674.707 18.1213C674.317 17.7308 674.317 17.0976 674.707 16.7071Z" fill="black"/>
<path fill-rule="evenodd" clip-rule="evenodd" d="M685.293 16.7071C684.902 16.3166 684.269 16.3166 683.879 16.7071L679.293 21.2929C678.902 21.6834 678.902 22.3166 679.293 22.7071C679.683 23.0976 680.317 23.0976 680.707 22.7071L685.293 18.1213C685.683 17.7308 685.683 17.0976 685.293 16.7071Z" fill="black"/>
</svg>
