<svg width="456" height="381" viewBox="0 0 456 381" fill="none" xmlns="http://www.w3.org/2000/svg">
<path d="M9.352 85H7.987V80.436H2.583V85H1.218V74.969H2.583V79.442H7.987V74.969H9.352V85ZM14.411 77.797C14.8357 77.797 15.2277 77.8693 15.587 78.014C15.9464 78.154 16.2567 78.3593 16.518 78.63C16.7794 78.896 16.9824 79.2273 17.127 79.624C17.2764 80.016 17.351 80.464 17.351 80.968C17.351 81.164 17.33 81.2947 17.288 81.36C17.246 81.4253 17.1667 81.458 17.05 81.458H12.332C12.3414 81.906 12.402 82.2957 12.514 82.627C12.626 82.9583 12.78 83.236 12.976 83.46C13.172 83.6793 13.4054 83.845 13.676 83.957C13.9467 84.0643 14.25 84.118 14.586 84.118C14.8987 84.118 15.167 84.083 15.391 84.013C15.6197 83.9383 15.8157 83.859 15.979 83.775C16.1424 83.691 16.2777 83.614 16.385 83.544C16.497 83.4693 16.5927 83.432 16.672 83.432C16.7747 83.432 16.854 83.4717 16.91 83.551L17.26 84.006C17.106 84.1927 16.9217 84.356 16.707 84.496C16.4924 84.6313 16.2614 84.7433 16.014 84.832C15.7714 84.9207 15.5194 84.986 15.258 85.028C14.9967 85.0747 14.7377 85.098 14.481 85.098C13.991 85.098 13.5384 85.0163 13.123 84.853C12.7124 84.685 12.3554 84.4423 12.052 84.125C11.7534 83.803 11.52 83.4063 11.352 82.935C11.184 82.4637 11.1 81.9223 11.1 81.311C11.1 80.8163 11.1747 80.3543 11.324 79.925C11.478 79.4957 11.6974 79.1247 11.982 78.812C12.2667 78.4947 12.6144 78.2473 13.025 78.07C13.4357 77.888 13.8977 77.797 14.411 77.797ZM14.439 78.714C13.837 78.714 13.3634 78.889 13.018 79.239C12.6727 79.5843 12.458 80.065 12.374 80.681H16.231C16.231 80.3917 16.1914 80.128 16.112 79.89C16.0327 79.6473 15.916 79.4397 15.762 79.267C15.608 79.0897 15.419 78.9543 15.195 78.861C14.9757 78.763 14.7237 78.714 14.439 78.714ZM20.3318 74.689V85H19.0858V74.689H20.3318ZM22.5279 87.401V77.909H23.2699C23.4472 77.909 23.5592 77.9953 23.6059 78.168L23.7109 79.008C24.0142 78.6393 24.3595 78.343 24.7469 78.119C25.1389 77.895 25.5892 77.783 26.0979 77.783C26.5039 77.783 26.8725 77.8623 27.2039 78.021C27.5352 78.175 27.8175 78.406 28.0509 78.714C28.2842 79.0173 28.4639 79.3953 28.5899 79.848C28.7159 80.3007 28.7789 80.821 28.7789 81.409C28.7789 81.9317 28.7089 82.4193 28.5689 82.872C28.4289 83.32 28.2282 83.7097 27.9669 84.041C27.7055 84.3677 27.3835 84.6267 27.0009 84.818C26.6229 85.0047 26.1959 85.098 25.7199 85.098C25.2812 85.098 24.9055 85.0257 24.5929 84.881C24.2849 84.7363 24.0119 84.531 23.7739 84.265V87.401H22.5279ZM25.6849 78.791C25.2789 78.791 24.9219 78.8843 24.6139 79.071C24.3105 79.2577 24.0305 79.5213 23.7739 79.862V83.292C24.0025 83.6 24.2522 83.817 24.5229 83.943C24.7982 84.069 25.1039 84.132 25.4399 84.132C26.0979 84.132 26.6042 83.8963 26.9589 83.425C27.3135 82.9537 27.4909 82.2817 27.4909 81.409C27.4909 80.947 27.4489 80.5503 27.3649 80.219C27.2855 79.8877 27.1689 79.617 27.0149 79.407C26.8609 79.1923 26.6719 79.036 26.4479 78.938C26.2239 78.84 25.9695 78.791 25.6849 78.791ZM33.0595 77.797C33.4841 77.797 33.8761 77.8693 34.2355 78.014C34.5948 78.154 34.9051 78.3593 35.1665 78.63C35.4278 78.896 35.6308 79.2273 35.7755 79.624C35.9248 80.016 35.9995 80.464 35.9995 80.968C35.9995 81.164 35.9785 81.2947 35.9365 81.36C35.8945 81.4253 35.8151 81.458 35.6985 81.458H30.9805C30.9898 81.906 31.0505 82.2957 31.1625 82.627C31.2745 82.9583 31.4285 83.236 31.6245 83.46C31.8205 83.6793 32.0538 83.845 32.3245 83.957C32.5951 84.0643 32.8985 84.118 33.2345 84.118C33.5471 84.118 33.8155 84.083 34.0395 84.013C34.2681 83.9383 34.4641 83.859 34.6275 83.775C34.7908 83.691 34.9261 83.614 35.0335 83.544C35.1455 83.4693 35.2411 83.432 35.3205 83.432C35.4231 83.432 35.5025 83.4717 35.5585 83.551L35.9085 84.006C35.7545 84.1927 35.5701 84.356 35.3555 84.496C35.1408 84.6313 34.9098 84.7433 34.6625 84.832C34.4198 84.9207 34.1678 84.986 33.9065 85.028C33.6451 85.0747 33.3861 85.098 33.1295 85.098C32.6395 85.098 32.1868 85.0163 31.7715 84.853C31.3608 84.685 31.0038 84.4423 30.7005 84.125C30.4018 83.803 30.1685 83.4063 30.0005 82.935C29.8325 82.4637 29.7485 81.9223 29.7485 81.311C29.7485 80.8163 29.8231 80.3543 29.9725 79.925C30.1265 79.4957 30.3458 79.1247 30.6305 78.812C30.9151 78.4947 31.2628 78.2473 31.6735 78.07C32.0841 77.888 32.5461 77.797 33.0595 77.797ZM33.0875 78.714C32.4855 78.714 32.0118 78.889 31.6665 79.239C31.3211 79.5843 31.1065 80.065 31.0225 80.681H34.8795C34.8795 80.3917 34.8398 80.128 34.7605 79.89C34.6811 79.6473 34.5645 79.4397 34.4105 79.267C34.2565 79.0897 34.0675 78.9543 33.8435 78.861C33.6241 78.763 33.3721 78.714 33.0875 78.714ZM37.5943 85V77.909H38.3083C38.4436 77.909 38.5369 77.9347 38.5883 77.986C38.6396 78.0373 38.6746 78.126 38.6933 78.252L38.7773 79.358C39.0199 78.8633 39.3186 78.4783 39.6733 78.203C40.0326 77.923 40.4526 77.783 40.9333 77.783C41.1293 77.783 41.3066 77.8063 41.4653 77.853C41.6239 77.895 41.7709 77.9557 41.9063 78.035L41.7453 78.966C41.7126 79.0827 41.6403 79.141 41.5283 79.141C41.4629 79.141 41.3626 79.12 41.2273 79.078C41.0919 79.0313 40.9029 79.008 40.6603 79.008C40.2263 79.008 39.8623 79.134 39.5683 79.386C39.2789 79.638 39.0363 80.0043 38.8403 80.485V85H37.5943ZM48.0968 85.112C47.5368 85.112 47.1051 84.9557 46.8018 84.643C46.5031 84.3303 46.3538 83.88 46.3538 83.292V78.952H45.4998C45.4251 78.952 45.3621 78.931 45.3108 78.889C45.2594 78.8423 45.2338 78.7723 45.2338 78.679V78.182L46.3958 78.035L46.6828 75.844C46.6921 75.774 46.7224 75.718 46.7738 75.676C46.8251 75.6293 46.8904 75.606 46.9698 75.606H47.5998V78.049H49.6298V78.952H47.5998V83.208C47.5998 83.5067 47.6721 83.7283 47.8168 83.873C47.9614 84.0177 48.1481 84.09 48.3768 84.09C48.5074 84.09 48.6194 84.0737 48.7128 84.041C48.8108 84.0037 48.8948 83.964 48.9648 83.922C49.0348 83.88 49.0931 83.8427 49.1398 83.81C49.1911 83.7727 49.2354 83.754 49.2728 83.754C49.3381 83.754 49.3964 83.7937 49.4478 83.873L49.8118 84.468C49.5971 84.6687 49.3381 84.8273 49.0348 84.944C48.7314 85.056 48.4188 85.112 48.0968 85.112ZM53.9774 77.797C54.4021 77.797 54.7941 77.8693 55.1534 78.014C55.5128 78.154 55.8231 78.3593 56.0844 78.63C56.3458 78.896 56.5488 79.2273 56.6934 79.624C56.8428 80.016 56.9174 80.464 56.9174 80.968C56.9174 81.164 56.8964 81.2947 56.8544 81.36C56.8124 81.4253 56.7331 81.458 56.6164 81.458H51.8984C51.9078 81.906 51.9684 82.2957 52.0804 82.627C52.1924 82.9583 52.3464 83.236 52.5424 83.46C52.7384 83.6793 52.9718 83.845 53.2424 83.957C53.5131 84.0643 53.8164 84.118 54.1524 84.118C54.4651 84.118 54.7334 84.083 54.9574 84.013C55.1861 83.9383 55.3821 83.859 55.5454 83.775C55.7088 83.691 55.8441 83.614 55.9514 83.544C56.0634 83.4693 56.1591 83.432 56.2384 83.432C56.3411 83.432 56.4204 83.4717 56.4764 83.551L56.8264 84.006C56.6724 84.1927 56.4881 84.356 56.2734 84.496C56.0588 84.6313 55.8278 84.7433 55.5804 84.832C55.3378 84.9207 55.0858 84.986 54.8244 85.028C54.5631 85.0747 54.3041 85.098 54.0474 85.098C53.5574 85.098 53.1048 85.0163 52.6894 84.853C52.2788 84.685 51.9218 84.4423 51.6184 84.125C51.3198 83.803 51.0864 83.4063 50.9184 82.935C50.7504 82.4637 50.6664 81.9223 50.6664 81.311C50.6664 80.8163 50.7411 80.3543 50.8904 79.925C51.0444 79.4957 51.2638 79.1247 51.5484 78.812C51.8331 78.4947 52.1808 78.2473 52.5914 78.07C53.0021 77.888 53.4641 77.797 53.9774 77.797ZM54.0054 78.714C53.4034 78.714 52.9298 78.889 52.5844 79.239C52.2391 79.5843 52.0244 80.065 51.9404 80.681H55.7974C55.7974 80.3917 55.7578 80.128 55.6784 79.89C55.5991 79.6473 55.4824 79.4397 55.3284 79.267C55.1744 79.0897 54.9854 78.9543 54.7614 78.861C54.5421 78.763 54.2901 78.714 54.0054 78.714ZM59.7474 81.367L57.3604 77.909H58.5574C58.6601 77.909 58.7347 77.9253 58.7814 77.958C58.8281 77.9907 58.8701 78.0373 58.9074 78.098L60.6434 80.758C60.6854 80.6273 60.7461 80.4967 60.8254 80.366L62.3514 78.126C62.3981 78.0607 62.4447 78.0093 62.4914 77.972C62.5381 77.93 62.5964 77.909 62.6664 77.909H63.8144L61.4274 81.297L63.9124 85H62.7154C62.6127 85 62.5311 84.9743 62.4704 84.923C62.4144 84.867 62.3677 84.8063 62.3304 84.741L60.5454 81.962C60.5127 82.0973 60.4637 82.2187 60.3984 82.326L58.7464 84.741C58.6997 84.8063 58.6484 84.867 58.5924 84.923C58.5411 84.9743 58.4687 85 58.3754 85H57.2624L59.7474 81.367ZM67.2921 85.112C66.7321 85.112 66.3004 84.9557 65.9971 84.643C65.6984 84.3303 65.5491 83.88 65.5491 83.292V78.952H64.6951C64.6204 78.952 64.5574 78.931 64.5061 78.889C64.4548 78.8423 64.4291 78.7723 64.4291 78.679V78.182L65.5911 78.035L65.8781 75.844C65.8874 75.774 65.9178 75.718 65.9691 75.676C66.0204 75.6293 66.0858 75.606 66.1651 75.606H66.7951V78.049H68.8251V78.952H66.7951V83.208C66.7951 83.5067 66.8674 83.7283 67.0121 83.873C67.1568 84.0177 67.3434 84.09 67.5721 84.09C67.7028 84.09 67.8148 84.0737 67.9081 84.041C68.0061 84.0037 68.0901 83.964 68.1601 83.922C68.2301 83.88 68.2884 83.8427 68.3351 83.81C68.3864 83.7727 68.4308 83.754 68.4681 83.754C68.5334 83.754 68.5918 83.7937 68.6431 83.873L69.0071 84.468C68.7924 84.6687 68.5334 84.8273 68.2301 84.944C67.9268 85.056 67.6141 85.112 67.2921 85.112Z" fill="#6A6A6A"/>
<path d="M2.944 14.696H7.904V16H1.392V4.536H2.944V14.696ZM15.3388 16H14.7068C14.5681 16 14.4561 15.9787 14.3708 15.936C14.2854 15.8933 14.2294 15.8027 14.2028 15.664L14.0428 14.912C13.8294 15.104 13.6214 15.2773 13.4188 15.432C13.2161 15.5813 13.0028 15.7093 12.7788 15.816C12.5548 15.9173 12.3148 15.9947 12.0588 16.048C11.8081 16.1013 11.5281 16.128 11.2188 16.128C10.9041 16.128 10.6081 16.0853 10.3307 16C10.0588 15.9093 9.82142 15.776 9.61875 15.6C9.41608 15.424 9.25342 15.2027 9.13075 14.936C9.01342 14.664 8.95475 14.344 8.95475 13.976C8.95475 13.656 9.04275 13.3493 9.21875 13.056C9.39475 12.7573 9.67742 12.4933 10.0668 12.264C10.4614 12.0347 10.9761 11.848 11.6108 11.704C12.2454 11.5547 13.0214 11.4693 13.9388 11.448V10.816C13.9388 10.1867 13.8028 9.712 13.5308 9.392C13.2641 9.06667 12.8668 8.904 12.3388 8.904C11.9921 8.904 11.6988 8.94933 11.4588 9.04C11.2241 9.12533 11.0188 9.224 10.8428 9.336C10.6721 9.44267 10.5228 9.54133 10.3948 9.632C10.2721 9.71733 10.1494 9.76 10.0268 9.76C9.93075 9.76 9.84542 9.736 9.77075 9.688C9.70142 9.63467 9.64542 9.57067 9.60275 9.496L9.34675 9.04C9.79475 8.608 10.2774 8.28533 10.7948 8.072C11.3121 7.85867 11.8854 7.752 12.5148 7.752C12.9681 7.752 13.3708 7.82667 13.7228 7.976C14.0748 8.12533 14.3708 8.33333 14.6108 8.6C14.8508 8.86667 15.0321 9.18933 15.1548 9.568C15.2774 9.94667 15.3388 10.3627 15.3388 10.816V16ZM11.6428 15.128C11.8934 15.128 12.1228 15.104 12.3307 15.056C12.5388 15.0027 12.7334 14.9307 12.9148 14.84C13.1014 14.744 13.2774 14.6293 13.4428 14.496C13.6134 14.3627 13.7788 14.2107 13.9388 14.04V12.352C13.2828 12.3733 12.7254 12.4267 12.2668 12.512C11.8081 12.592 11.4348 12.6987 11.1468 12.832C10.8588 12.9653 10.6481 13.1227 10.5148 13.304C10.3868 13.4853 10.3228 13.688 10.3228 13.912C10.3228 14.1253 10.3574 14.3093 10.4268 14.464C10.4961 14.6187 10.5894 14.7467 10.7068 14.848C10.8241 14.944 10.9628 15.016 11.1228 15.064C11.2828 15.1067 11.4561 15.128 11.6428 15.128ZM17.5441 16V4.216H18.9761V9.064C19.3121 8.67467 19.6961 8.36267 20.1281 8.128C20.5655 7.888 21.0641 7.768 21.6241 7.768C22.0935 7.768 22.5175 7.856 22.8961 8.032C23.2748 8.208 23.5975 8.472 23.8641 8.824C24.1308 9.17067 24.3361 9.60267 24.4801 10.12C24.6241 10.632 24.6961 11.224 24.6961 11.896C24.6961 12.4933 24.6161 13.0507 24.4561 13.568C24.2961 14.08 24.0641 14.5253 23.7601 14.904C23.4615 15.2773 23.0935 15.5733 22.6561 15.792C22.2241 16.0053 21.7361 16.112 21.1921 16.112C20.6695 16.112 20.2241 16.0107 19.8561 15.808C19.4935 15.6053 19.1761 15.3227 18.9041 14.96L18.8321 15.696C18.7895 15.8987 18.6668 16 18.4641 16H17.5441ZM21.1601 8.904C20.6961 8.904 20.2881 9.01067 19.9361 9.224C19.5895 9.43733 19.2695 9.73867 18.9761 10.128V14.048C19.2321 14.4 19.5148 14.648 19.8241 14.792C20.1388 14.936 20.4881 15.008 20.8721 15.008C21.6295 15.008 22.2108 14.7387 22.6161 14.2C23.0215 13.6613 23.2241 12.8933 23.2241 11.896C23.2241 11.368 23.1761 10.9147 23.0801 10.536C22.9895 10.1573 22.8561 9.848 22.6801 9.608C22.5041 9.36267 22.2881 9.184 22.0321 9.072C21.7761 8.96 21.4855 8.904 21.1601 8.904ZM29.6416 7.768C30.127 7.768 30.575 7.85067 30.9856 8.016C31.3963 8.176 31.751 8.41067 32.0496 8.72C32.3483 9.024 32.5803 9.40267 32.7456 9.856C32.9163 10.304 33.0016 10.816 33.0016 11.392C33.0016 11.616 32.9776 11.7653 32.9296 11.84C32.8816 11.9147 32.791 11.952 32.6576 11.952H27.2656C27.2763 12.464 27.3456 12.9093 27.4736 13.288C27.6016 13.6667 27.7776 13.984 28.0016 14.24C28.2256 14.4907 28.4923 14.68 28.8016 14.808C29.111 14.9307 29.4576 14.992 29.8416 14.992C30.199 14.992 30.5056 14.952 30.7616 14.872C31.023 14.7867 31.247 14.696 31.4336 14.6C31.6203 14.504 31.775 14.416 31.8976 14.336C32.0256 14.2507 32.135 14.208 32.2256 14.208C32.343 14.208 32.4336 14.2533 32.4976 14.344L32.8976 14.864C32.7216 15.0773 32.511 15.264 32.2656 15.424C32.0203 15.5787 31.7563 15.7067 31.4736 15.808C31.1963 15.9093 30.9083 15.984 30.6096 16.032C30.311 16.0853 30.015 16.112 29.7216 16.112C29.1616 16.112 28.6443 16.0187 28.1696 15.832C27.7003 15.64 27.2923 15.3627 26.9456 15C26.6043 14.632 26.3376 14.1787 26.1456 13.64C25.9536 13.1013 25.8576 12.4827 25.8576 11.784C25.8576 11.2187 25.943 10.6907 26.1136 10.2C26.2896 9.70933 26.5403 9.28533 26.8656 8.928C27.191 8.56533 27.5883 8.28267 28.0576 8.08C28.527 7.872 29.055 7.768 29.6416 7.768ZM29.6736 8.816C28.9856 8.816 28.4443 9.016 28.0496 9.416C27.655 9.81067 27.4096 10.36 27.3136 11.064H31.7216C31.7216 10.7333 31.6763 10.432 31.5856 10.16C31.495 9.88267 31.3616 9.64533 31.1856 9.448C31.0096 9.24533 30.7936 9.09067 30.5376 8.984C30.287 8.872 29.999 8.816 29.6736 8.816ZM36.4083 4.216V16H34.9843V4.216H36.4083Z" fill="black"/>
<rect x="0.5" y="28.5" width="455" height="37" rx="3.5" fill="white" stroke="#979797"/>
<path d="M19.032 48.856C19.1067 48.984 19.1707 49.12 19.224 49.264C19.2827 49.4027 19.3387 49.544 19.392 49.688C19.4453 49.5387 19.5013 49.3973 19.56 49.264C19.6187 49.1253 19.6853 48.9867 19.76 48.848L23.64 41.8C23.7093 41.6773 23.7813 41.6027 23.856 41.576C23.9307 41.5493 24.0373 41.536 24.176 41.536H25.32V53H23.96V44.576C23.96 44.464 23.9627 44.344 23.968 44.216C23.9733 44.088 23.9813 43.9573 23.992 43.824L20.064 50.992C19.9307 51.232 19.744 51.352 19.504 51.352H19.28C19.04 51.352 18.8533 51.232 18.72 50.992L14.704 43.8C14.72 43.9387 14.7307 44.0747 14.736 44.208C14.7467 44.3413 14.752 44.464 14.752 44.576V53H13.392V41.536H14.536C14.6747 41.536 14.7813 41.5493 14.856 41.576C14.9307 41.6027 15.0027 41.6773 15.072 41.8L19.032 48.856ZM31.0948 44.768C31.5801 44.768 32.0281 44.8507 32.4388 45.016C32.8494 45.176 33.2041 45.4107 33.5028 45.72C33.8014 46.024 34.0334 46.4027 34.1988 46.856C34.3694 47.304 34.4548 47.816 34.4548 48.392C34.4548 48.616 34.4308 48.7653 34.3828 48.84C34.3348 48.9147 34.2441 48.952 34.1108 48.952H28.7188C28.7294 49.464 28.7988 49.9093 28.9268 50.288C29.0548 50.6667 29.2308 50.984 29.4548 51.24C29.6788 51.4907 29.9454 51.68 30.2548 51.808C30.5641 51.9307 30.9108 51.992 31.2948 51.992C31.6521 51.992 31.9588 51.952 32.2148 51.872C32.4761 51.7867 32.7001 51.696 32.8868 51.6C33.0734 51.504 33.2281 51.416 33.3508 51.336C33.4788 51.2507 33.5881 51.208 33.6788 51.208C33.7961 51.208 33.8868 51.2533 33.9508 51.344L34.3508 51.864C34.1748 52.0773 33.9641 52.264 33.7188 52.424C33.4734 52.5787 33.2094 52.7067 32.9268 52.808C32.6494 52.9093 32.3614 52.984 32.0628 53.032C31.7641 53.0853 31.4681 53.112 31.1748 53.112C30.6148 53.112 30.0974 53.0187 29.6228 52.832C29.1534 52.64 28.7454 52.3627 28.3988 52C28.0574 51.632 27.7908 51.1787 27.5988 50.64C27.4068 50.1013 27.3108 49.4827 27.3108 48.784C27.3108 48.2187 27.3961 47.6907 27.5668 47.2C27.7428 46.7093 27.9934 46.2853 28.3188 45.928C28.6441 45.5653 29.0414 45.2827 29.5108 45.08C29.9801 44.872 30.5081 44.768 31.0948 44.768ZM31.1267 45.816C30.4388 45.816 29.8974 46.016 29.5028 46.416C29.1081 46.8107 28.8628 47.36 28.7668 48.064H33.1748C33.1748 47.7333 33.1294 47.432 33.0388 47.16C32.9481 46.8827 32.8148 46.6453 32.6388 46.448C32.4628 46.2453 32.2468 46.0907 31.9908 45.984C31.7401 45.872 31.4521 45.816 31.1267 45.816ZM36.2774 53V44.896H37.1254C37.328 44.896 37.456 44.9947 37.5094 45.192L37.6214 46.072C37.9734 45.6827 38.3654 45.368 38.7974 45.128C39.2347 44.888 39.7387 44.768 40.3094 44.768C40.752 44.768 41.1414 44.8427 41.4774 44.992C41.8187 45.136 42.1014 45.344 42.3254 45.616C42.5547 45.8827 42.728 46.2053 42.8454 46.584C42.9627 46.9627 43.0214 47.3813 43.0214 47.84V53H41.5974V47.84C41.5974 47.2267 41.456 46.752 41.1734 46.416C40.896 46.0747 40.4694 45.904 39.8934 45.904C39.472 45.904 39.0774 46.0053 38.7094 46.208C38.3467 46.4107 38.0107 46.6853 37.7014 47.032V53H36.2774ZM46.4 44.896V50.064C46.4 50.6773 46.5413 51.152 46.824 51.488C47.1067 51.824 47.5333 51.992 48.104 51.992C48.52 51.992 48.912 51.8933 49.28 51.696C49.648 51.4987 49.9867 51.224 50.296 50.872V44.896H51.72V53H50.872C50.6693 53 50.5413 52.9013 50.488 52.704L50.376 51.832C50.024 52.2213 49.6293 52.536 49.192 52.776C48.7547 53.0107 48.2533 53.128 47.688 53.128C47.2453 53.128 46.8533 53.056 46.512 52.912C46.176 52.7627 45.8933 52.5547 45.664 52.288C45.4347 52.0213 45.2613 51.6987 45.144 51.32C45.032 50.9413 44.976 50.5227 44.976 50.064V44.896H46.4ZM60.4324 44.768C61.0244 44.768 61.5577 44.8667 62.0324 45.064C62.5124 45.2613 62.9177 45.5413 63.2484 45.904C63.5844 46.2667 63.8404 46.7067 64.0164 47.224C64.1977 47.736 64.2884 48.3093 64.2884 48.944C64.2884 49.584 64.1977 50.16 64.0164 50.672C63.8404 51.184 63.5844 51.6213 63.2484 51.984C62.9177 52.3467 62.5124 52.6267 62.0324 52.824C61.5577 53.016 61.0244 53.112 60.4324 53.112C59.8404 53.112 59.3044 53.016 58.8244 52.824C58.3497 52.6267 57.9444 52.3467 57.6084 51.984C57.2724 51.6213 57.0137 51.184 56.8324 50.672C56.651 50.16 56.5604 49.584 56.5604 48.944C56.5604 48.3093 56.651 47.736 56.8324 47.224C57.0137 46.7067 57.2724 46.2667 57.6084 45.904C57.9444 45.5413 58.3497 45.2613 58.8244 45.064C59.3044 44.8667 59.8404 44.768 60.4324 44.768ZM60.4324 52C61.2324 52 61.8297 51.7333 62.2244 51.2C62.619 50.6613 62.8164 49.912 62.8164 48.952C62.8164 47.9867 62.619 47.2347 62.2244 46.696C61.8297 46.1573 61.2324 45.888 60.4324 45.888C60.027 45.888 59.675 45.9573 59.3764 46.096C59.0777 46.2347 58.827 46.4347 58.6244 46.696C58.427 46.9573 58.2777 47.28 58.1764 47.664C58.0804 48.0427 58.0324 48.472 58.0324 48.952C58.0324 49.432 58.0804 49.8613 58.1764 50.24C58.2777 50.6187 58.427 50.9387 58.6244 51.2C58.827 51.456 59.0777 51.6533 59.3764 51.792C59.675 51.9307 60.027 52 60.4324 52ZM66.043 55.744V44.896H66.891C67.0937 44.896 67.2217 44.9947 67.275 45.192L67.395 46.152C67.7417 45.7307 68.1363 45.392 68.579 45.136C69.027 44.88 69.5417 44.752 70.123 44.752C70.587 44.752 71.0083 44.8427 71.387 45.024C71.7657 45.2 72.0883 45.464 72.355 45.816C72.6217 46.1627 72.827 46.5947 72.971 47.112C73.115 47.6293 73.187 48.224 73.187 48.896C73.187 49.4933 73.107 50.0507 72.947 50.568C72.787 51.08 72.5577 51.5253 72.259 51.904C71.9603 52.2773 71.5923 52.5733 71.155 52.792C70.723 53.0053 70.235 53.112 69.691 53.112C69.1897 53.112 68.7603 53.0293 68.403 52.864C68.051 52.6987 67.739 52.464 67.467 52.16V55.744H66.043ZM69.651 45.904C69.187 45.904 68.779 46.0107 68.427 46.224C68.0803 46.4373 67.7603 46.7387 67.467 47.128V51.048C67.7283 51.4 68.0137 51.648 68.323 51.792C68.6377 51.936 68.987 52.008 69.371 52.008C70.123 52.008 70.7017 51.7387 71.107 51.2C71.5123 50.6613 71.715 49.8933 71.715 48.896C71.715 48.368 71.667 47.9147 71.571 47.536C71.4803 47.1573 71.347 46.848 71.171 46.608C70.995 46.3627 70.779 46.184 70.523 46.072C70.267 45.96 69.9763 45.904 69.651 45.904ZM77.3271 53.128C76.6871 53.128 76.1938 52.9493 75.8471 52.592C75.5058 52.2347 75.3351 51.72 75.3351 51.048V46.088H74.3591C74.2738 46.088 74.2018 46.064 74.1431 46.016C74.0845 45.9627 74.0551 45.8827 74.0551 45.776V45.208L75.3831 45.04L75.7111 42.536C75.7218 42.456 75.7565 42.392 75.8151 42.344C75.8738 42.2907 75.9485 42.264 76.0391 42.264H76.7591V45.056H79.0791V46.088H76.7591V50.952C76.7591 51.2933 76.8418 51.5467 77.0071 51.712C77.1725 51.8773 77.3858 51.96 77.6471 51.96C77.7965 51.96 77.9245 51.9413 78.0311 51.904C78.1431 51.8613 78.2391 51.816 78.3191 51.768C78.3991 51.72 78.4658 51.6773 78.5191 51.64C78.5778 51.5973 78.6285 51.576 78.6711 51.576C78.7458 51.576 78.8125 51.6213 78.8711 51.712L79.2871 52.392C79.0418 52.6213 78.7458 52.8027 78.3991 52.936C78.0525 53.064 77.6951 53.128 77.3271 53.128ZM82.4239 44.896V53H80.9999V44.896H82.4239ZM82.7439 42.352C82.7439 42.4907 82.7145 42.6213 82.6559 42.744C82.6025 42.8613 82.5279 42.968 82.4319 43.064C82.3412 43.1547 82.2345 43.2267 82.1119 43.28C81.9892 43.3333 81.8585 43.36 81.7199 43.36C81.5812 43.36 81.4505 43.3333 81.3279 43.28C81.2105 43.2267 81.1039 43.1547 81.0079 43.064C80.9172 42.968 80.8452 42.8613 80.7919 42.744C80.7385 42.6213 80.7119 42.4907 80.7119 42.352C80.7119 42.2133 80.7385 42.0827 80.7919 41.96C80.8452 41.832 80.9172 41.7227 81.0079 41.632C81.1039 41.536 81.2105 41.4613 81.3279 41.408C81.4505 41.3547 81.5812 41.328 81.7199 41.328C81.8585 41.328 81.9892 41.3547 82.1119 41.408C82.2345 41.4613 82.3412 41.536 82.4319 41.632C82.5279 41.7227 82.6025 41.832 82.6559 41.96C82.7145 42.0827 82.7439 42.2133 82.7439 42.352ZM88.2136 44.768C88.8056 44.768 89.339 44.8667 89.8136 45.064C90.2936 45.2613 90.699 45.5413 91.0296 45.904C91.3656 46.2667 91.6216 46.7067 91.7976 47.224C91.979 47.736 92.0696 48.3093 92.0696 48.944C92.0696 49.584 91.979 50.16 91.7976 50.672C91.6216 51.184 91.3656 51.6213 91.0296 51.984C90.699 52.3467 90.2936 52.6267 89.8136 52.824C89.339 53.016 88.8056 53.112 88.2136 53.112C87.6216 53.112 87.0856 53.016 86.6056 52.824C86.131 52.6267 85.7256 52.3467 85.3896 51.984C85.0536 51.6213 84.795 51.184 84.6136 50.672C84.4323 50.16 84.3416 49.584 84.3416 48.944C84.3416 48.3093 84.4323 47.736 84.6136 47.224C84.795 46.7067 85.0536 46.2667 85.3896 45.904C85.7256 45.5413 86.131 45.2613 86.6056 45.064C87.0856 44.8667 87.6216 44.768 88.2136 44.768ZM88.2136 52C89.0136 52 89.611 51.7333 90.0056 51.2C90.4003 50.6613 90.5976 49.912 90.5976 48.952C90.5976 47.9867 90.4003 47.2347 90.0056 46.696C89.611 46.1573 89.0136 45.888 88.2136 45.888C87.8083 45.888 87.4563 45.9573 87.1576 46.096C86.859 46.2347 86.6083 46.4347 86.4056 46.696C86.2083 46.9573 86.059 47.28 85.9576 47.664C85.8616 48.0427 85.8136 48.472 85.8136 48.952C85.8136 49.432 85.8616 49.8613 85.9576 50.24C86.059 50.6187 86.2083 50.9387 86.4056 51.2C86.6083 51.456 86.859 51.6533 87.1576 51.792C87.4563 51.9307 87.8083 52 88.2136 52ZM93.8243 53V44.896H94.6723C94.8749 44.896 95.0029 44.9947 95.0563 45.192L95.1683 46.072C95.5203 45.6827 95.9123 45.368 96.3443 45.128C96.7816 44.888 97.2856 44.768 97.8563 44.768C98.2989 44.768 98.6883 44.8427 99.0243 44.992C99.3656 45.136 99.6483 45.344 99.8723 45.616C100.102 45.8827 100.275 46.2053 100.392 46.584C100.51 46.9627 100.568 47.3813 100.568 47.84V53H99.1443V47.84C99.1443 47.2267 99.0029 46.752 98.7203 46.416C98.4429 46.0747 98.0163 45.904 97.4403 45.904C97.0189 45.904 96.6243 46.0053 96.2563 46.208C95.8936 46.4107 95.5576 46.6853 95.2483 47.032V53H93.8243ZM107.355 46.232C107.291 46.3493 107.192 46.408 107.059 46.408C106.979 46.408 106.888 46.3787 106.787 46.32C106.686 46.2613 106.56 46.1973 106.411 46.128C106.267 46.0533 106.094 45.9867 105.891 45.928C105.688 45.864 105.448 45.832 105.171 45.832C104.931 45.832 104.715 45.864 104.523 45.928C104.331 45.9867 104.166 46.0693 104.027 46.176C103.894 46.2827 103.79 46.408 103.715 46.552C103.646 46.6907 103.611 46.8427 103.611 47.008C103.611 47.216 103.67 47.3893 103.787 47.528C103.91 47.6667 104.07 47.7867 104.267 47.888C104.464 47.9893 104.688 48.08 104.939 48.16C105.19 48.2347 105.446 48.3173 105.707 48.408C105.974 48.4933 106.232 48.5893 106.483 48.696C106.734 48.8027 106.958 48.936 107.155 49.096C107.352 49.256 107.51 49.4533 107.627 49.688C107.75 49.9173 107.811 50.1947 107.811 50.52C107.811 50.8933 107.744 51.24 107.611 51.56C107.478 51.8747 107.28 52.1493 107.019 52.384C106.758 52.6133 106.438 52.7947 106.059 52.928C105.68 53.0613 105.243 53.128 104.747 53.128C104.182 53.128 103.67 53.0373 103.211 52.856C102.752 52.6693 102.363 52.432 102.043 52.144L102.379 51.6C102.422 51.5307 102.472 51.4773 102.531 51.44C102.59 51.4027 102.667 51.384 102.763 51.384C102.859 51.384 102.96 51.4213 103.067 51.496C103.174 51.5707 103.302 51.6533 103.451 51.744C103.606 51.8347 103.79 51.9173 104.003 51.992C104.222 52.0667 104.494 52.104 104.819 52.104C105.096 52.104 105.339 52.0693 105.547 52C105.755 51.9253 105.928 51.8267 106.067 51.704C106.206 51.5813 106.307 51.44 106.371 51.28C106.44 51.12 106.475 50.9493 106.475 50.768C106.475 50.544 106.414 50.36 106.291 50.216C106.174 50.0667 106.016 49.9413 105.819 49.84C105.622 49.7333 105.395 49.6427 105.139 49.568C104.888 49.488 104.63 49.4053 104.363 49.32C104.102 49.2347 103.843 49.1387 103.587 49.032C103.336 48.92 103.112 48.7813 102.915 48.616C102.718 48.4507 102.558 48.248 102.435 48.008C102.318 47.7627 102.259 47.4667 102.259 47.12C102.259 46.8107 102.323 46.5147 102.451 46.232C102.579 45.944 102.766 45.6933 103.011 45.48C103.256 45.2613 103.558 45.088 103.915 44.96C104.272 44.832 104.68 44.768 105.139 44.768C105.672 44.768 106.15 44.8533 106.571 45.024C106.998 45.1893 107.366 45.4187 107.675 45.712L107.355 46.232Z" fill="black"/>
<path fill-rule="evenodd" clip-rule="evenodd" d="M430.707 44.7071C431.098 44.3166 431.731 44.3166 432.121 44.7071L436.707 49.2929C437.098 49.6834 437.098 50.3166 436.707 50.7071C436.317 51.0976 435.684 51.0976 435.293 50.7071L430.707 46.1213C430.317 45.7308 430.317 45.0976 430.707 44.7071Z" fill="black"/>
<path fill-rule="evenodd" clip-rule="evenodd" d="M441.293 44.7071C440.902 44.3166 440.269 44.3166 439.879 44.7071L435.293 49.2929C434.902 49.6834 434.902 50.3166 435.293 50.7071C435.683 51.0976 436.316 51.0976 436.707 50.7071L441.293 46.1213C441.683 45.7308 441.683 45.0976 441.293 44.7071Z" fill="black"/>
<rect x="0.5" y="74.5" width="455" height="306" rx="3.5" fill="white" stroke="#979797"/>
<path d="M1 79C1 76.7909 2.79086 75 5 75H451C453.209 75 455 76.7909 455 79V113H1V79Z" fill="#F2FAFF"/>
<path d="M15.192 88.536C15.3307 88.536 15.432 88.5547 15.496 88.592C15.5653 88.624 15.6427 88.6933 15.728 88.8L22.368 97.44C22.352 97.3013 22.3413 97.168 22.336 97.04C22.3307 96.9067 22.328 96.7787 22.328 96.656V88.536H23.688V100H22.904C22.7813 100 22.6773 99.9787 22.592 99.936C22.512 99.8933 22.432 99.8213 22.352 99.72L15.72 91.088C15.7307 91.2213 15.7387 91.352 15.744 91.48C15.7493 91.608 15.752 91.7253 15.752 91.832V100H14.392V88.536H15.192ZM29.4698 91.768C29.9551 91.768 30.4031 91.8507 30.8138 92.016C31.2244 92.176 31.5791 92.4107 31.8778 92.72C32.1764 93.024 32.4084 93.4027 32.5738 93.856C32.7444 94.304 32.8298 94.816 32.8298 95.392C32.8298 95.616 32.8058 95.7653 32.7578 95.84C32.7098 95.9147 32.6191 95.952 32.4858 95.952H27.0938C27.1044 96.464 27.1738 96.9093 27.3018 97.288C27.4298 97.6667 27.6058 97.984 27.8298 98.24C28.0538 98.4907 28.3204 98.68 28.6298 98.808C28.9391 98.9307 29.2858 98.992 29.6698 98.992C30.0271 98.992 30.3338 98.952 30.5898 98.872C30.8511 98.7867 31.0751 98.696 31.2618 98.6C31.4484 98.504 31.6031 98.416 31.7258 98.336C31.8538 98.2507 31.9631 98.208 32.0538 98.208C32.1711 98.208 32.2618 98.2533 32.3258 98.344L32.7258 98.864C32.5498 99.0773 32.3391 99.264 32.0938 99.424C31.8484 99.5787 31.5844 99.7067 31.3018 99.808C31.0244 99.9093 30.7364 99.984 30.4378 100.032C30.1391 100.085 29.8431 100.112 29.5498 100.112C28.9898 100.112 28.4724 100.019 27.9978 99.832C27.5284 99.64 27.1204 99.3627 26.7738 99C26.4324 98.632 26.1658 98.1787 25.9738 97.64C25.7818 97.1013 25.6858 96.4827 25.6858 95.784C25.6858 95.2187 25.7711 94.6907 25.9418 94.2C26.1178 93.7093 26.3684 93.2853 26.6938 92.928C27.0191 92.5653 27.4164 92.2827 27.8858 92.08C28.3551 91.872 28.8831 91.768 29.4698 91.768ZM29.5017 92.816C28.8138 92.816 28.2724 93.016 27.8778 93.416C27.4831 93.8107 27.2378 94.36 27.1418 95.064H31.5498C31.5498 94.7333 31.5044 94.432 31.4138 94.16C31.3231 93.8827 31.1898 93.6453 31.0138 93.448C30.8378 93.2453 30.6218 93.0907 30.3658 92.984C30.1151 92.872 29.8271 92.816 29.5017 92.816ZM33.5964 91.896H34.7164C34.8337 91.896 34.9297 91.9253 35.0044 91.984C35.079 92.0427 35.1297 92.112 35.1564 92.192L36.7084 97.408C36.751 97.6 36.791 97.7867 36.8284 97.968C36.8657 98.144 36.8977 98.3227 36.9244 98.504C36.967 98.3227 37.015 98.144 37.0684 97.968C37.1217 97.7867 37.1777 97.6 37.2364 97.408L38.9484 92.16C38.975 92.08 39.0204 92.0133 39.0844 91.96C39.1537 91.9067 39.239 91.88 39.3404 91.88H39.9564C40.063 91.88 40.151 91.9067 40.2204 91.96C40.2897 92.0133 40.3377 92.08 40.3644 92.16L42.0364 97.408C42.095 97.5947 42.1457 97.7787 42.1884 97.96C42.2364 98.1413 42.2817 98.32 42.3244 98.496C42.351 98.32 42.3857 98.136 42.4284 97.944C42.471 97.752 42.5164 97.5733 42.5644 97.408L44.1484 92.192C44.175 92.1067 44.2257 92.0373 44.3004 91.984C44.375 91.9253 44.463 91.896 44.5644 91.896H45.6364L43.0124 100H41.8844C41.7457 100 41.6497 99.9093 41.5964 99.728L39.8044 94.232C39.7617 94.1093 39.727 93.9867 39.7004 93.864C39.6737 93.736 39.647 93.6107 39.6204 93.488C39.5937 93.6107 39.567 93.736 39.5404 93.864C39.5137 93.992 39.479 94.1173 39.4364 94.24L37.6204 99.728C37.5617 99.9093 37.4524 100 37.2924 100H36.2204L33.5964 91.896ZM54.6361 95.44V100H53.0921V95.44L48.8921 88.536H50.2521C50.3908 88.536 50.5001 88.5707 50.5801 88.64C50.6601 88.7093 50.7295 88.7947 50.7881 88.896L53.4121 93.352C53.5188 93.5387 53.6068 93.7147 53.6761 93.88C53.7508 94.0453 53.8175 94.208 53.8761 94.368C53.9348 94.2027 53.9988 94.0373 54.0681 93.872C54.1375 93.7067 54.2255 93.5333 54.3321 93.352L56.9481 88.896C56.9961 88.8107 57.0601 88.7307 57.1401 88.656C57.2255 88.576 57.3348 88.536 57.4681 88.536H58.8441L54.6361 95.44ZM62.0574 91.768C62.6494 91.768 63.1827 91.8667 63.6574 92.064C64.1374 92.2613 64.5427 92.5413 64.8734 92.904C65.2094 93.2667 65.4654 93.7067 65.6414 94.224C65.8227 94.736 65.9134 95.3093 65.9134 95.944C65.9134 96.584 65.8227 97.16 65.6414 97.672C65.4654 98.184 65.2094 98.6213 64.8734 98.984C64.5427 99.3467 64.1374 99.6267 63.6574 99.824C63.1827 100.016 62.6494 100.112 62.0574 100.112C61.4654 100.112 60.9294 100.016 60.4494 99.824C59.9747 99.6267 59.5694 99.3467 59.2334 98.984C58.8974 98.6213 58.6387 98.184 58.4574 97.672C58.276 97.16 58.1854 96.584 58.1854 95.944C58.1854 95.3093 58.276 94.736 58.4574 94.224C58.6387 93.7067 58.8974 93.2667 59.2334 92.904C59.5694 92.5413 59.9747 92.2613 60.4494 92.064C60.9294 91.8667 61.4654 91.768 62.0574 91.768ZM62.0574 99C62.8574 99 63.4547 98.7333 63.8494 98.2C64.244 97.6613 64.4414 96.912 64.4414 95.952C64.4414 94.9867 64.244 94.2347 63.8494 93.696C63.4547 93.1573 62.8574 92.888 62.0574 92.888C61.652 92.888 61.3 92.9573 61.0014 93.096C60.7027 93.2347 60.452 93.4347 60.2494 93.696C60.052 93.9573 59.9027 94.28 59.8014 94.664C59.7054 95.0427 59.6574 95.472 59.6574 95.952C59.6574 96.432 59.7054 96.8613 59.8014 97.24C59.9027 97.6187 60.052 97.9387 60.2494 98.2C60.452 98.456 60.7027 98.6533 61.0014 98.792C61.3 98.9307 61.652 99 62.0574 99ZM67.668 100V91.896H68.484C68.6387 91.896 68.7453 91.9253 68.804 91.984C68.8627 92.0427 68.9027 92.144 68.924 92.288L69.02 93.552C69.2973 92.9867 69.6387 92.5467 70.044 92.232C70.4547 91.912 70.9347 91.752 71.484 91.752C71.708 91.752 71.9107 91.7787 72.092 91.832C72.2733 91.88 72.4413 91.9493 72.596 92.04L72.412 93.104C72.3747 93.2373 72.292 93.304 72.164 93.304C72.0893 93.304 71.9747 93.28 71.82 93.232C71.6653 93.1787 71.4493 93.152 71.172 93.152C70.676 93.152 70.26 93.296 69.924 93.584C69.5933 93.872 69.316 94.2907 69.092 94.84V100H67.668ZM75.6011 88.216V95.152H75.9691C76.0758 95.152 76.1638 95.1387 76.2331 95.112C76.3025 95.08 76.3798 95.0187 76.4651 94.928L79.0251 92.184C79.1051 92.0987 79.1851 92.0293 79.2651 91.976C79.3451 91.9227 79.4518 91.896 79.5851 91.896H80.8811L77.8971 95.072C77.8225 95.1627 77.7478 95.2427 77.6731 95.312C77.6038 95.3813 77.5238 95.4427 77.4331 95.496C77.5291 95.56 77.6145 95.6347 77.6891 95.72C77.7691 95.8 77.8438 95.8933 77.9131 96L81.0811 100H79.8011C79.6838 100 79.5825 99.9787 79.4971 99.936C79.4171 99.888 79.3398 99.816 79.2651 99.72L76.6011 96.4C76.5211 96.288 76.4411 96.216 76.3611 96.184C76.2811 96.1467 76.1611 96.128 76.0011 96.128H75.6011V100H74.1691V88.216H75.6011ZM16.096 133.216V138H14.552V126.536H17.792C18.5173 126.536 19.144 126.611 19.672 126.76C20.2 126.904 20.6347 127.115 20.976 127.392C21.3227 127.669 21.5787 128.005 21.744 128.4C21.9093 128.789 21.992 129.227 21.992 129.712C21.992 130.117 21.928 130.496 21.8 130.848C21.672 131.2 21.4853 131.517 21.24 131.8C21 132.077 20.704 132.315 20.352 132.512C20.0053 132.709 19.6107 132.859 19.168 132.96C19.36 133.072 19.5307 133.235 19.68 133.448L23.024 138H21.648C21.3653 138 21.1573 137.891 21.024 137.672L18.048 133.576C17.9573 133.448 17.8587 133.357 17.752 133.304C17.6453 133.245 17.4853 133.216 17.272 133.216H16.096ZM16.096 132.088H17.72C18.1733 132.088 18.5707 132.035 18.912 131.928C19.2587 131.816 19.5467 131.661 19.776 131.464C20.0107 131.261 20.1867 131.021 20.304 130.744C20.4213 130.467 20.48 130.16 20.48 129.824C20.48 129.141 20.2533 128.627 19.8 128.28C19.352 127.933 18.6827 127.76 17.792 127.76H16.096V132.088ZM27.7449 129.768C28.3369 129.768 28.8702 129.867 29.3449 130.064C29.8249 130.261 30.2302 130.541 30.5609 130.904C30.8969 131.267 31.1529 131.707 31.3289 132.224C31.5102 132.736 31.6009 133.309 31.6009 133.944C31.6009 134.584 31.5102 135.16 31.3289 135.672C31.1529 136.184 30.8969 136.621 30.5609 136.984C30.2302 137.347 29.8249 137.627 29.3449 137.824C28.8702 138.016 28.3369 138.112 27.7449 138.112C27.1529 138.112 26.6169 138.016 26.1369 137.824C25.6622 137.627 25.2569 137.347 24.9209 136.984C24.5849 136.621 24.3262 136.184 24.1449 135.672C23.9635 135.16 23.8729 134.584 23.8729 133.944C23.8729 133.309 23.9635 132.736 24.1449 132.224C24.3262 131.707 24.5849 131.267 24.9209 130.904C25.2569 130.541 25.6622 130.261 26.1369 130.064C26.6169 129.867 27.1529 129.768 27.7449 129.768ZM27.7449 137C28.5449 137 29.1422 136.733 29.5369 136.2C29.9315 135.661 30.1289 134.912 30.1289 133.952C30.1289 132.987 29.9315 132.235 29.5369 131.696C29.1422 131.157 28.5449 130.888 27.7449 130.888C27.3395 130.888 26.9875 130.957 26.6889 131.096C26.3902 131.235 26.1395 131.435 25.9369 131.696C25.7395 131.957 25.5902 132.28 25.4889 132.664C25.3929 133.043 25.3449 133.472 25.3449 133.952C25.3449 134.432 25.3929 134.861 25.4889 135.24C25.5902 135.619 25.7395 135.939 25.9369 136.2C26.1395 136.456 26.3902 136.653 26.6889 136.792C26.9875 136.931 27.3395 137 27.7449 137ZM33.3555 138V129.896H34.2035C34.4062 129.896 34.5342 129.995 34.5875 130.192L34.6915 131.024C34.9902 130.656 35.3235 130.355 35.6915 130.12C36.0648 129.885 36.4968 129.768 36.9875 129.768C37.5368 129.768 37.9795 129.92 38.3155 130.224C38.6568 130.528 38.9022 130.939 39.0515 131.456C39.1635 131.163 39.3102 130.909 39.4915 130.696C39.6782 130.483 39.8862 130.307 40.1155 130.168C40.3448 130.029 40.5875 129.928 40.8435 129.864C41.1048 129.8 41.3688 129.768 41.6355 129.768C42.0622 129.768 42.4408 129.837 42.7715 129.976C43.1075 130.109 43.3902 130.307 43.6195 130.568C43.8542 130.829 44.0328 131.152 44.1555 131.536C44.2782 131.915 44.3395 132.349 44.3395 132.84V138H42.9155V132.84C42.9155 132.205 42.7768 131.725 42.4995 131.4C42.2222 131.069 41.8195 130.904 41.2915 130.904C41.0568 130.904 40.8328 130.947 40.6195 131.032C40.4115 131.112 40.2275 131.232 40.0675 131.392C39.9075 131.552 39.7795 131.755 39.6835 132C39.5928 132.24 39.5475 132.52 39.5475 132.84V138H38.1235V132.84C38.1235 132.189 37.9928 131.704 37.7315 131.384C37.4702 131.064 37.0888 130.904 36.5875 130.904C36.2355 130.904 35.9075 131 35.6035 131.192C35.3048 131.379 35.0302 131.635 34.7795 131.96V138H33.3555ZM49.7041 129.768C50.1895 129.768 50.6375 129.851 51.0481 130.016C51.4588 130.176 51.8135 130.411 52.1121 130.72C52.4108 131.024 52.6428 131.403 52.8081 131.856C52.9788 132.304 53.0641 132.816 53.0641 133.392C53.0641 133.616 53.0401 133.765 52.9921 133.84C52.9441 133.915 52.8535 133.952 52.7201 133.952H47.3281C47.3388 134.464 47.4081 134.909 47.5361 135.288C47.6641 135.667 47.8401 135.984 48.0641 136.24C48.2881 136.491 48.5548 136.68 48.8641 136.808C49.1735 136.931 49.5201 136.992 49.9041 136.992C50.2615 136.992 50.5681 136.952 50.8241 136.872C51.0855 136.787 51.3095 136.696 51.4961 136.6C51.6828 136.504 51.8375 136.416 51.9601 136.336C52.0881 136.251 52.1975 136.208 52.2881 136.208C52.4055 136.208 52.4961 136.253 52.5601 136.344L52.9601 136.864C52.7841 137.077 52.5735 137.264 52.3281 137.424C52.0828 137.579 51.8188 137.707 51.5361 137.808C51.2588 137.909 50.9708 137.984 50.6721 138.032C50.3735 138.085 50.0775 138.112 49.7841 138.112C49.2241 138.112 48.7068 138.019 48.2321 137.832C47.7628 137.64 47.3548 137.363 47.0081 137C46.6668 136.632 46.4001 136.179 46.2081 135.64C46.0161 135.101 45.9201 134.483 45.9201 133.784C45.9201 133.219 46.0055 132.691 46.1761 132.2C46.3521 131.709 46.6028 131.285 46.9281 130.928C47.2535 130.565 47.6508 130.283 48.1201 130.08C48.5895 129.872 49.1175 129.768 49.7041 129.768ZM49.7361 130.816C49.0481 130.816 48.5068 131.016 48.1121 131.416C47.7175 131.811 47.4721 132.36 47.3761 133.064H51.7841C51.7841 132.733 51.7388 132.432 51.6481 132.16C51.5575 131.883 51.4241 131.645 51.2481 131.448C51.0721 131.245 50.8561 131.091 50.6001 130.984C50.3495 130.872 50.0615 130.816 49.7361 130.816ZM15.944 174.696H20.904V176H14.392V164.536H15.944V174.696ZM25.3855 167.768C25.9775 167.768 26.5108 167.867 26.9855 168.064C27.4655 168.261 27.8708 168.541 28.2015 168.904C28.5375 169.267 28.7935 169.707 28.9695 170.224C29.1508 170.736 29.2415 171.309 29.2415 171.944C29.2415 172.584 29.1508 173.16 28.9695 173.672C28.7935 174.184 28.5375 174.621 28.2015 174.984C27.8708 175.347 27.4655 175.627 26.9855 175.824C26.5108 176.016 25.9775 176.112 25.3855 176.112C24.7935 176.112 24.2575 176.016 23.7775 175.824C23.3028 175.627 22.8975 175.347 22.5615 174.984C22.2255 174.621 21.9668 174.184 21.7855 173.672C21.6042 173.16 21.5135 172.584 21.5135 171.944C21.5135 171.309 21.6042 170.736 21.7855 170.224C21.9668 169.707 22.2255 169.267 22.5615 168.904C22.8975 168.541 23.3028 168.261 23.7775 168.064C24.2575 167.867 24.7935 167.768 25.3855 167.768ZM25.3855 175C26.1855 175 26.7828 174.733 27.1775 174.2C27.5722 173.661 27.7695 172.912 27.7695 171.952C27.7695 170.987 27.5722 170.235 27.1775 169.696C26.7828 169.157 26.1855 168.888 25.3855 168.888C24.9802 168.888 24.6282 168.957 24.3295 169.096C24.0308 169.235 23.7802 169.435 23.5775 169.696C23.3802 169.957 23.2308 170.28 23.1295 170.664C23.0335 171.043 22.9855 171.472 22.9855 171.952C22.9855 172.432 23.0335 172.861 23.1295 173.24C23.2308 173.619 23.3802 173.939 23.5775 174.2C23.7802 174.456 24.0308 174.653 24.3295 174.792C24.6282 174.931 24.9802 175 25.3855 175ZM30.9961 176V167.896H31.8441C32.0468 167.896 32.1748 167.995 32.2281 168.192L32.3401 169.072C32.6921 168.683 33.0841 168.368 33.5161 168.128C33.9535 167.888 34.4575 167.768 35.0281 167.768C35.4708 167.768 35.8601 167.843 36.1961 167.992C36.5375 168.136 36.8201 168.344 37.0441 168.616C37.2735 168.883 37.4468 169.205 37.5641 169.584C37.6815 169.963 37.7401 170.381 37.7401 170.84V176H36.3161V170.84C36.3161 170.227 36.1748 169.752 35.8921 169.416C35.6148 169.075 35.1881 168.904 34.6121 168.904C34.1908 168.904 33.7961 169.005 33.4281 169.208C33.0655 169.411 32.7295 169.685 32.4201 170.032V176H30.9961ZM45.5908 176C45.3881 176 45.2601 175.901 45.2068 175.704L45.0788 174.72C44.7321 175.141 44.3348 175.48 43.8868 175.736C43.4441 175.987 42.9348 176.112 42.3588 176.112C41.8948 176.112 41.4734 176.024 41.0948 175.848C40.7161 175.667 40.3934 175.403 40.1268 175.056C39.8601 174.709 39.6548 174.277 39.5108 173.76C39.3668 173.243 39.2948 172.648 39.2948 171.976C39.2948 171.379 39.3748 170.824 39.5348 170.312C39.6948 169.795 39.9241 169.347 40.2228 168.968C40.5268 168.589 40.8948 168.293 41.3268 168.08C41.7588 167.861 42.2494 167.752 42.7988 167.752C43.2948 167.752 43.7188 167.837 44.0708 168.008C44.4228 168.173 44.7374 168.408 45.0148 168.712V164.216H46.4388V176H45.5908ZM42.8307 174.96C43.2948 174.96 43.7001 174.853 44.0468 174.64C44.3988 174.427 44.7214 174.125 45.0148 173.736V169.816C44.7534 169.464 44.4654 169.219 44.1508 169.08C43.8414 168.936 43.4974 168.864 43.1188 168.864C42.3614 168.864 41.7801 169.133 41.3748 169.672C40.9694 170.211 40.7668 170.979 40.7668 171.976C40.7668 172.504 40.8121 172.957 40.9028 173.336C40.9934 173.709 41.1268 174.019 41.3028 174.264C41.4788 174.504 41.6948 174.68 41.9508 174.792C42.2068 174.904 42.5001 174.96 42.8307 174.96ZM52.1043 167.768C52.6963 167.768 53.2296 167.867 53.7043 168.064C54.1843 168.261 54.5896 168.541 54.9203 168.904C55.2563 169.267 55.5123 169.707 55.6883 170.224C55.8696 170.736 55.9603 171.309 55.9603 171.944C55.9603 172.584 55.8696 173.16 55.6883 173.672C55.5123 174.184 55.2563 174.621 54.9203 174.984C54.5896 175.347 54.1843 175.627 53.7043 175.824C53.2296 176.016 52.6963 176.112 52.1043 176.112C51.5123 176.112 50.9763 176.016 50.4963 175.824C50.0216 175.627 49.6163 175.347 49.2803 174.984C48.9443 174.621 48.6856 174.184 48.5043 173.672C48.3229 173.16 48.2323 172.584 48.2323 171.944C48.2323 171.309 48.3229 170.736 48.5043 170.224C48.6856 169.707 48.9443 169.267 49.2803 168.904C49.6163 168.541 50.0216 168.261 50.4963 168.064C50.9763 167.867 51.5123 167.768 52.1043 167.768ZM52.1043 175C52.9043 175 53.5016 174.733 53.8963 174.2C54.2909 173.661 54.4883 172.912 54.4883 171.952C54.4883 170.987 54.2909 170.235 53.8963 169.696C53.5016 169.157 52.9043 168.888 52.1043 168.888C51.6989 168.888 51.3469 168.957 51.0483 169.096C50.7496 169.235 50.4989 169.435 50.2963 169.696C50.0989 169.957 49.9496 170.28 49.8483 170.664C49.7523 171.043 49.7043 171.472 49.7043 171.952C49.7043 172.432 49.7523 172.861 49.8483 173.24C49.9496 173.619 50.0989 173.939 50.2963 174.2C50.4989 174.456 50.7496 174.653 51.0483 174.792C51.3469 174.931 51.6989 175 52.1043 175ZM57.7149 176V167.896H58.5629C58.7655 167.896 58.8935 167.995 58.9469 168.192L59.0589 169.072C59.4109 168.683 59.8029 168.368 60.2349 168.128C60.6722 167.888 61.1762 167.768 61.7469 167.768C62.1895 167.768 62.5789 167.843 62.9149 167.992C63.2562 168.136 63.5389 168.344 63.7629 168.616C63.9922 168.883 64.1655 169.205 64.2829 169.584C64.4002 169.963 64.4589 170.381 64.4589 170.84V176H63.0349V170.84C63.0349 170.227 62.8935 169.752 62.6109 169.416C62.3335 169.075 61.9069 168.904 61.3309 168.904C60.9095 168.904 60.5149 169.005 60.1469 169.208C59.7842 169.411 59.4482 169.685 59.1389 170.032V176H57.7149ZM14.392 214V202.536H18.048C18.752 202.536 19.3573 202.605 19.864 202.744C20.376 202.883 20.7947 203.08 21.12 203.336C21.4507 203.592 21.6933 203.907 21.848 204.28C22.008 204.648 22.088 205.064 22.088 205.528C22.088 205.811 22.0427 206.083 21.952 206.344C21.8667 206.605 21.7333 206.848 21.552 207.072C21.376 207.296 21.152 207.496 20.88 207.672C20.6133 207.848 20.2987 207.992 19.936 208.104C20.7733 208.269 21.4053 208.571 21.832 209.008C22.2587 209.445 22.472 210.021 22.472 210.736C22.472 211.221 22.3813 211.664 22.2 212.064C22.024 212.464 21.7627 212.808 21.416 213.096C21.0747 213.384 20.6533 213.608 20.152 213.768C19.656 213.923 19.088 214 18.448 214H14.392ZM15.944 208.776V212.768H18.424C18.8667 212.768 19.2453 212.717 19.56 212.616C19.88 212.515 20.1413 212.373 20.344 212.192C20.552 212.005 20.704 211.787 20.8 211.536C20.896 211.28 20.944 211 20.944 210.696C20.944 210.104 20.7333 209.637 20.312 209.296C19.896 208.949 19.264 208.776 18.416 208.776H15.944ZM15.944 207.672H17.992C18.4293 207.672 18.808 207.624 19.128 207.528C19.448 207.432 19.712 207.299 19.92 207.128C20.1333 206.957 20.2907 206.752 20.392 206.512C20.4933 206.267 20.544 206 20.544 205.712C20.544 205.04 20.3413 204.547 19.936 204.232C19.5307 203.917 18.9013 203.76 18.048 203.76H15.944V207.672ZM30.4794 214H29.8474C29.7087 214 29.5967 213.979 29.5114 213.936C29.426 213.893 29.37 213.803 29.3434 213.664L29.1834 212.912C28.97 213.104 28.762 213.277 28.5594 213.432C28.3567 213.581 28.1434 213.709 27.9194 213.816C27.6954 213.917 27.4554 213.995 27.1994 214.048C26.9487 214.101 26.6687 214.128 26.3594 214.128C26.0447 214.128 25.7487 214.085 25.4714 214C25.1994 213.909 24.962 213.776 24.7594 213.6C24.5567 213.424 24.394 213.203 24.2714 212.936C24.154 212.664 24.0954 212.344 24.0954 211.976C24.0954 211.656 24.1834 211.349 24.3594 211.056C24.5354 210.757 24.818 210.493 25.2074 210.264C25.602 210.035 26.1167 209.848 26.7514 209.704C27.386 209.555 28.162 209.469 29.0794 209.448V208.816C29.0794 208.187 28.9434 207.712 28.6714 207.392C28.4047 207.067 28.0074 206.904 27.4794 206.904C27.1327 206.904 26.8394 206.949 26.5994 207.04C26.3647 207.125 26.1594 207.224 25.9834 207.336C25.8127 207.443 25.6634 207.541 25.5354 207.632C25.4127 207.717 25.29 207.76 25.1674 207.76C25.0714 207.76 24.986 207.736 24.9114 207.688C24.842 207.635 24.786 207.571 24.7434 207.496L24.4874 207.04C24.9354 206.608 25.418 206.285 25.9354 206.072C26.4527 205.859 27.026 205.752 27.6554 205.752C28.1087 205.752 28.5114 205.827 28.8634 205.976C29.2154 206.125 29.5114 206.333 29.7514 206.6C29.9914 206.867 30.1727 207.189 30.2954 207.568C30.418 207.947 30.4794 208.363 30.4794 208.816V214ZM26.7834 213.128C27.034 213.128 27.2634 213.104 27.4714 213.056C27.6794 213.003 27.874 212.931 28.0554 212.84C28.242 212.744 28.418 212.629 28.5834 212.496C28.754 212.363 28.9194 212.211 29.0794 212.04V210.352C28.4234 210.373 27.866 210.427 27.4074 210.512C26.9487 210.592 26.5754 210.699 26.2874 210.832C25.9994 210.965 25.7887 211.123 25.6554 211.304C25.5274 211.485 25.4634 211.688 25.4634 211.912C25.4634 212.125 25.498 212.309 25.5674 212.464C25.6367 212.619 25.73 212.747 25.8474 212.848C25.9647 212.944 26.1034 213.016 26.2634 213.064C26.4234 213.107 26.5967 213.128 26.7834 213.128ZM32.6368 214V205.896H33.4528C33.6074 205.896 33.7141 205.925 33.7728 205.984C33.8314 206.043 33.8714 206.144 33.8928 206.288L33.9888 207.552C34.2661 206.987 34.6074 206.547 35.0128 206.232C35.4234 205.912 35.9034 205.752 36.4528 205.752C36.6768 205.752 36.8794 205.779 37.0608 205.832C37.2421 205.88 37.4101 205.949 37.5648 206.04L37.3808 207.104C37.3434 207.237 37.2608 207.304 37.1328 207.304C37.0581 207.304 36.9434 207.28 36.7888 207.232C36.6341 207.179 36.4181 207.152 36.1408 207.152C35.6448 207.152 35.2288 207.296 34.8928 207.584C34.5621 207.872 34.2848 208.291 34.0608 208.84V214H32.6368ZM44.6179 207.336C44.5752 207.395 44.5325 207.44 44.4899 207.472C44.4472 207.504 44.3859 207.52 44.3059 207.52C44.2259 207.52 44.1379 207.488 44.0419 207.424C43.9512 207.355 43.8339 207.28 43.6899 207.2C43.5459 207.12 43.3699 207.048 43.1619 206.984C42.9592 206.915 42.7085 206.88 42.4099 206.88C42.0152 206.88 41.6659 206.952 41.3619 207.096C41.0579 207.235 40.8019 207.437 40.5939 207.704C40.3912 207.971 40.2365 208.293 40.1299 208.672C40.0285 209.051 39.9779 209.475 39.9779 209.944C39.9779 210.435 40.0339 210.872 40.1459 211.256C40.2579 211.635 40.4152 211.955 40.6179 212.216C40.8205 212.472 41.0659 212.669 41.3539 212.808C41.6472 212.941 41.9752 213.008 42.3379 213.008C42.6845 213.008 42.9699 212.968 43.1939 212.888C43.4179 212.803 43.6045 212.709 43.7539 212.608C43.9032 212.507 44.0259 212.416 44.1219 212.336C44.2179 212.251 44.3139 212.208 44.4099 212.208C44.5325 212.208 44.6232 212.253 44.6819 212.344L45.0819 212.864C44.7299 213.296 44.2899 213.613 43.7619 213.816C43.2339 214.013 42.6765 214.112 42.0899 214.112C41.5832 214.112 41.1112 214.019 40.6739 213.832C40.2419 213.645 39.8659 213.376 39.5459 213.024C39.2259 212.667 38.9725 212.229 38.7859 211.712C38.6045 211.195 38.5139 210.605 38.5139 209.944C38.5139 209.341 38.5965 208.784 38.7619 208.272C38.9325 207.76 39.1779 207.32 39.4979 206.952C39.8232 206.579 40.2232 206.288 40.6979 206.08C41.1725 205.872 41.7165 205.768 42.3299 205.768C42.8952 205.768 43.3965 205.861 43.8339 206.048C44.2712 206.229 44.6579 206.488 44.9939 206.824L44.6179 207.336ZM49.7666 205.768C50.252 205.768 50.7 205.851 51.1106 206.016C51.5213 206.176 51.876 206.411 52.1746 206.72C52.4733 207.024 52.7053 207.403 52.8706 207.856C53.0413 208.304 53.1266 208.816 53.1266 209.392C53.1266 209.616 53.1026 209.765 53.0546 209.84C53.0066 209.915 52.916 209.952 52.7826 209.952H47.3906C47.4013 210.464 47.4706 210.909 47.5986 211.288C47.7266 211.667 47.9026 211.984 48.1266 212.24C48.3506 212.491 48.6173 212.68 48.9266 212.808C49.236 212.931 49.5826 212.992 49.9666 212.992C50.324 212.992 50.6306 212.952 50.8866 212.872C51.148 212.787 51.372 212.696 51.5586 212.6C51.7453 212.504 51.9 212.416 52.0226 212.336C52.1506 212.251 52.26 212.208 52.3506 212.208C52.468 212.208 52.5586 212.253 52.6226 212.344L53.0226 212.864C52.8466 213.077 52.636 213.264 52.3906 213.424C52.1453 213.579 51.8813 213.707 51.5986 213.808C51.3213 213.909 51.0333 213.984 50.7346 214.032C50.436 214.085 50.14 214.112 49.8466 214.112C49.2866 214.112 48.7693 214.019 48.2946 213.832C47.8253 213.64 47.4173 213.363 47.0706 213C46.7293 212.632 46.4626 212.179 46.2706 211.64C46.0786 211.101 45.9826 210.483 45.9826 209.784C45.9826 209.219 46.068 208.691 46.2386 208.2C46.4146 207.709 46.6653 207.285 46.9906 206.928C47.316 206.565 47.7133 206.283 48.1826 206.08C48.652 205.872 49.18 205.768 49.7666 205.768ZM49.7986 206.816C49.1106 206.816 48.5693 207.016 48.1746 207.416C47.78 207.811 47.5346 208.36 47.4386 209.064H51.8466C51.8466 208.733 51.8013 208.432 51.7106 208.16C51.62 207.883 51.4866 207.645 51.3106 207.448C51.1346 207.245 50.9186 207.091 50.6626 206.984C50.412 206.872 50.124 206.816 49.7986 206.816ZM56.5333 202.216V214H55.1093V202.216H56.5333ZM62.323 205.768C62.915 205.768 63.4483 205.867 63.923 206.064C64.403 206.261 64.8083 206.541 65.139 206.904C65.475 207.267 65.731 207.707 65.907 208.224C66.0883 208.736 66.179 209.309 66.179 209.944C66.179 210.584 66.0883 211.16 65.907 211.672C65.731 212.184 65.475 212.621 65.139 212.984C64.8083 213.347 64.403 213.627 63.923 213.824C63.4483 214.016 62.915 214.112 62.323 214.112C61.731 214.112 61.195 214.016 60.715 213.824C60.2403 213.627 59.835 213.347 59.499 212.984C59.163 212.621 58.9043 212.184 58.723 211.672C58.5417 211.16 58.451 210.584 58.451 209.944C58.451 209.309 58.5417 208.736 58.723 208.224C58.9043 207.707 59.163 207.267 59.499 206.904C59.835 206.541 60.2403 206.261 60.715 206.064C61.195 205.867 61.731 205.768 62.323 205.768ZM62.323 213C63.123 213 63.7203 212.733 64.115 212.2C64.5097 211.661 64.707 210.912 64.707 209.952C64.707 208.987 64.5097 208.235 64.115 207.696C63.7203 207.157 63.123 206.888 62.323 206.888C61.9177 206.888 61.5657 206.957 61.267 207.096C60.9683 207.235 60.7177 207.435 60.515 207.696C60.3177 207.957 60.1683 208.28 60.067 208.664C59.971 209.043 59.923 209.472 59.923 209.952C59.923 210.432 59.971 210.861 60.067 211.24C60.1683 211.619 60.3177 211.939 60.515 212.2C60.7177 212.456 60.9683 212.653 61.267 212.792C61.5657 212.931 61.9177 213 62.323 213ZM67.9336 214V205.896H68.7816C68.9843 205.896 69.1123 205.995 69.1656 206.192L69.2776 207.072C69.6296 206.683 70.0216 206.368 70.4536 206.128C70.891 205.888 71.395 205.768 71.9656 205.768C72.4083 205.768 72.7976 205.843 73.1336 205.992C73.475 206.136 73.7576 206.344 73.9816 206.616C74.211 206.883 74.3843 207.205 74.5016 207.584C74.619 207.963 74.6776 208.381 74.6776 208.84V214H73.2536V208.84C73.2536 208.227 73.1123 207.752 72.8296 207.416C72.5523 207.075 72.1256 206.904 71.5496 206.904C71.1283 206.904 70.7336 207.005 70.3656 207.208C70.003 207.411 69.667 207.685 69.3576 208.032V214H67.9336ZM82.7763 214H82.1443C82.0056 214 81.8936 213.979 81.8083 213.936C81.7229 213.893 81.6669 213.803 81.6403 213.664L81.4803 212.912C81.2669 213.104 81.0589 213.277 80.8563 213.432C80.6536 213.581 80.4403 213.709 80.2163 213.816C79.9923 213.917 79.7523 213.995 79.4963 214.048C79.2456 214.101 78.9656 214.128 78.6563 214.128C78.3416 214.128 78.0456 214.085 77.7682 214C77.4963 213.909 77.2589 213.776 77.0563 213.6C76.8536 213.424 76.6909 213.203 76.5683 212.936C76.4509 212.664 76.3923 212.344 76.3923 211.976C76.3923 211.656 76.4803 211.349 76.6562 211.056C76.8323 210.757 77.1149 210.493 77.5043 210.264C77.8989 210.035 78.4136 209.848 79.0483 209.704C79.6829 209.555 80.4589 209.469 81.3763 209.448V208.816C81.3763 208.187 81.2403 207.712 80.9683 207.392C80.7016 207.067 80.3043 206.904 79.7763 206.904C79.4296 206.904 79.1363 206.949 78.8963 207.04C78.6616 207.125 78.4563 207.224 78.2803 207.336C78.1096 207.443 77.9603 207.541 77.8323 207.632C77.7096 207.717 77.5869 207.76 77.4643 207.76C77.3683 207.76 77.2829 207.736 77.2083 207.688C77.1389 207.635 77.0829 207.571 77.0403 207.496L76.7843 207.04C77.2323 206.608 77.7149 206.285 78.2323 206.072C78.7496 205.859 79.3229 205.752 79.9523 205.752C80.4056 205.752 80.8083 205.827 81.1603 205.976C81.5123 206.125 81.8083 206.333 82.0483 206.6C82.2883 206.867 82.4696 207.189 82.5923 207.568C82.7149 207.947 82.7763 208.363 82.7763 208.816V214ZM79.0803 213.128C79.3309 213.128 79.5603 213.104 79.7682 213.056C79.9763 213.003 80.1709 212.931 80.3523 212.84C80.5389 212.744 80.7149 212.629 80.8803 212.496C81.0509 212.363 81.2163 212.211 81.3763 212.04V210.352C80.7203 210.373 80.1629 210.427 79.7043 210.512C79.2456 210.592 78.8723 210.699 78.5843 210.832C78.2963 210.965 78.0856 211.123 77.9523 211.304C77.8243 211.485 77.7603 211.688 77.7603 211.912C77.7603 212.125 77.7949 212.309 77.8643 212.464C77.9336 212.619 78.0269 212.747 78.1443 212.848C78.2616 212.944 78.4003 213.016 78.5603 213.064C78.7203 213.107 78.8936 213.128 79.0803 213.128ZM16.096 247.712V252H14.552V240.536H17.936C18.6613 240.536 19.2907 240.621 19.824 240.792C20.3627 240.957 20.808 241.195 21.16 241.504C21.512 241.813 21.7733 242.187 21.944 242.624C22.12 243.061 22.208 243.549 22.208 244.088C22.208 244.621 22.1147 245.109 21.928 245.552C21.7413 245.995 21.4667 246.376 21.104 246.696C20.7467 247.016 20.3013 247.267 19.768 247.448C19.2347 247.624 18.624 247.712 17.936 247.712H16.096ZM16.096 246.48H17.936C18.3787 246.48 18.768 246.421 19.104 246.304C19.4453 246.187 19.7307 246.024 19.96 245.816C20.1893 245.603 20.3627 245.349 20.48 245.056C20.5973 244.763 20.656 244.44 20.656 244.088C20.656 243.357 20.4293 242.787 19.976 242.376C19.528 241.965 18.848 241.76 17.936 241.76H16.096V246.48ZM29.495 252H28.863C28.7243 252 28.6123 251.979 28.527 251.936C28.4417 251.893 28.3857 251.803 28.359 251.664L28.199 250.912C27.9857 251.104 27.7777 251.277 27.575 251.432C27.3723 251.581 27.159 251.709 26.935 251.816C26.711 251.917 26.471 251.995 26.215 252.048C25.9643 252.101 25.6843 252.128 25.375 252.128C25.0603 252.128 24.7643 252.085 24.487 252C24.215 251.909 23.9777 251.776 23.775 251.6C23.5723 251.424 23.4097 251.203 23.287 250.936C23.1697 250.664 23.111 250.344 23.111 249.976C23.111 249.656 23.199 249.349 23.375 249.056C23.551 248.757 23.8337 248.493 24.223 248.264C24.6177 248.035 25.1323 247.848 25.767 247.704C26.4017 247.555 27.1777 247.469 28.095 247.448V246.816C28.095 246.187 27.959 245.712 27.687 245.392C27.4203 245.067 27.023 244.904 26.495 244.904C26.1483 244.904 25.855 244.949 25.615 245.04C25.3803 245.125 25.175 245.224 24.999 245.336C24.8283 245.443 24.679 245.541 24.551 245.632C24.4283 245.717 24.3057 245.76 24.183 245.76C24.087 245.76 24.0017 245.736 23.927 245.688C23.8577 245.635 23.8017 245.571 23.759 245.496L23.503 245.04C23.951 244.608 24.4337 244.285 24.951 244.072C25.4683 243.859 26.0417 243.752 26.671 243.752C27.1243 243.752 27.527 243.827 27.879 243.976C28.231 244.125 28.527 244.333 28.767 244.6C29.007 244.867 29.1883 245.189 29.311 245.568C29.4337 245.947 29.495 246.363 29.495 246.816V252ZM25.799 251.128C26.0497 251.128 26.279 251.104 26.487 251.056C26.695 251.003 26.8897 250.931 27.071 250.84C27.2577 250.744 27.4337 250.629 27.599 250.496C27.7697 250.363 27.935 250.211 28.095 250.04V248.352C27.439 248.373 26.8817 248.427 26.423 248.512C25.9643 248.592 25.591 248.699 25.303 248.832C25.015 248.965 24.8043 249.123 24.671 249.304C24.543 249.485 24.479 249.688 24.479 249.912C24.479 250.125 24.5137 250.309 24.583 250.464C24.6523 250.619 24.7457 250.747 24.863 250.848C24.9803 250.944 25.119 251.016 25.279 251.064C25.439 251.107 25.6123 251.128 25.799 251.128ZM31.6524 252V243.896H32.4684C32.623 243.896 32.7297 243.925 32.7884 243.984C32.847 244.043 32.887 244.144 32.9084 244.288L33.0044 245.552C33.2817 244.987 33.623 244.547 34.0284 244.232C34.439 243.912 34.919 243.752 35.4684 243.752C35.6924 243.752 35.895 243.779 36.0764 243.832C36.2577 243.88 36.4257 243.949 36.5804 244.04L36.3964 245.104C36.359 245.237 36.2764 245.304 36.1484 245.304C36.0737 245.304 35.959 245.28 35.8044 245.232C35.6497 245.179 35.4337 245.152 35.1564 245.152C34.6604 245.152 34.2444 245.296 33.9084 245.584C33.5777 245.872 33.3004 246.291 33.0764 246.84V252H31.6524ZM39.6895 243.896V252H38.2655V243.896H39.6895ZM40.0095 241.352C40.0095 241.491 39.9802 241.621 39.9215 241.744C39.8682 241.861 39.7935 241.968 39.6975 242.064C39.6068 242.155 39.5002 242.227 39.3775 242.28C39.2548 242.333 39.1242 242.36 38.9855 242.36C38.8468 242.36 38.7162 242.333 38.5935 242.28C38.4762 242.227 38.3695 242.155 38.2735 242.064C38.1828 241.968 38.1108 241.861 38.0575 241.744C38.0042 241.621 37.9775 241.491 37.9775 241.352C37.9775 241.213 38.0042 241.083 38.0575 240.96C38.1108 240.832 38.1828 240.723 38.2735 240.632C38.3695 240.536 38.4762 240.461 38.5935 240.408C38.7162 240.355 38.8468 240.328 38.9855 240.328C39.1242 240.328 39.2548 240.355 39.3775 240.408C39.5002 240.461 39.6068 240.536 39.6975 240.632C39.7935 240.723 39.8682 240.832 39.9215 240.96C39.9802 241.083 40.0095 241.213 40.0095 241.352ZM46.8393 245.232C46.7753 245.349 46.6766 245.408 46.5433 245.408C46.4633 245.408 46.3726 245.379 46.2713 245.32C46.1699 245.261 46.0446 245.197 45.8953 245.128C45.7513 245.053 45.5779 244.987 45.3753 244.928C45.1726 244.864 44.9326 244.832 44.6553 244.832C44.4153 244.832 44.1993 244.864 44.0073 244.928C43.8153 244.987 43.6499 245.069 43.5113 245.176C43.3779 245.283 43.2739 245.408 43.1993 245.552C43.1299 245.691 43.0953 245.843 43.0953 246.008C43.0953 246.216 43.1539 246.389 43.2713 246.528C43.3939 246.667 43.5539 246.787 43.7513 246.888C43.9486 246.989 44.1726 247.08 44.4233 247.16C44.6739 247.235 44.9299 247.317 45.1913 247.408C45.4579 247.493 45.7166 247.589 45.9673 247.696C46.2179 247.803 46.4419 247.936 46.6393 248.096C46.8366 248.256 46.9939 248.453 47.1113 248.688C47.2339 248.917 47.2953 249.195 47.2953 249.52C47.2953 249.893 47.2286 250.24 47.0953 250.56C46.9619 250.875 46.7646 251.149 46.5033 251.384C46.2419 251.613 45.9219 251.795 45.5433 251.928C45.1646 252.061 44.7273 252.128 44.2313 252.128C43.6659 252.128 43.1539 252.037 42.6953 251.856C42.2366 251.669 41.8473 251.432 41.5273 251.144L41.8633 250.6C41.9059 250.531 41.9566 250.477 42.0153 250.44C42.0739 250.403 42.1513 250.384 42.2473 250.384C42.3433 250.384 42.4446 250.421 42.5513 250.496C42.6579 250.571 42.7859 250.653 42.9353 250.744C43.0899 250.835 43.2739 250.917 43.4873 250.992C43.7059 251.067 43.9779 251.104 44.3033 251.104C44.5806 251.104 44.8233 251.069 45.0312 251C45.2393 250.925 45.4126 250.827 45.5512 250.704C45.6899 250.581 45.7913 250.44 45.8553 250.28C45.9246 250.12 45.9593 249.949 45.9593 249.768C45.9593 249.544 45.8979 249.36 45.7753 249.216C45.6579 249.067 45.5006 248.941 45.3033 248.84C45.1059 248.733 44.8793 248.643 44.6233 248.568C44.3726 248.488 44.1139 248.405 43.8473 248.32C43.5859 248.235 43.3273 248.139 43.0713 248.032C42.8206 247.92 42.5966 247.781 42.3993 247.616C42.2019 247.451 42.0419 247.248 41.9193 247.008C41.8019 246.763 41.7433 246.467 41.7433 246.12C41.7433 245.811 41.8073 245.515 41.9353 245.232C42.0633 244.944 42.2499 244.693 42.4953 244.48C42.7406 244.261 43.0419 244.088 43.3993 243.96C43.7566 243.832 44.1646 243.768 44.6233 243.768C45.1566 243.768 45.6339 243.853 46.0553 244.024C46.4819 244.189 46.8499 244.419 47.1593 244.712L46.8393 245.232ZM14.392 290V278.536H18.048C18.752 278.536 19.3573 278.605 19.864 278.744C20.376 278.883 20.7947 279.08 21.12 279.336C21.4507 279.592 21.6933 279.907 21.848 280.28C22.008 280.648 22.088 281.064 22.088 281.528C22.088 281.811 22.0427 282.083 21.952 282.344C21.8667 282.605 21.7333 282.848 21.552 283.072C21.376 283.296 21.152 283.496 20.88 283.672C20.6133 283.848 20.2987 283.992 19.936 284.104C20.7733 284.269 21.4053 284.571 21.832 285.008C22.2587 285.445 22.472 286.021 22.472 286.736C22.472 287.221 22.3813 287.664 22.2 288.064C22.024 288.464 21.7627 288.808 21.416 289.096C21.0747 289.384 20.6533 289.608 20.152 289.768C19.656 289.923 19.088 290 18.448 290H14.392ZM15.944 284.776V288.768H18.424C18.8667 288.768 19.2453 288.717 19.56 288.616C19.88 288.515 20.1413 288.373 20.344 288.192C20.552 288.005 20.704 287.787 20.8 287.536C20.896 287.28 20.944 287 20.944 286.696C20.944 286.104 20.7333 285.637 20.312 285.296C19.896 284.949 19.264 284.776 18.416 284.776H15.944ZM15.944 283.672H17.992C18.4293 283.672 18.808 283.624 19.128 283.528C19.448 283.432 19.712 283.299 19.92 283.128C20.1333 282.957 20.2907 282.752 20.392 282.512C20.4933 282.267 20.544 282 20.544 281.712C20.544 281.04 20.3413 280.547 19.936 280.232C19.5307 279.917 18.9013 279.76 18.048 279.76H15.944V283.672ZM27.7354 281.768C28.2207 281.768 28.6687 281.851 29.0794 282.016C29.49 282.176 29.8447 282.411 30.1434 282.72C30.442 283.024 30.674 283.403 30.8394 283.856C31.01 284.304 31.0954 284.816 31.0954 285.392C31.0954 285.616 31.0714 285.765 31.0234 285.84C30.9754 285.915 30.8847 285.952 30.7514 285.952H25.3594C25.37 286.464 25.4394 286.909 25.5674 287.288C25.6954 287.667 25.8714 287.984 26.0954 288.24C26.3194 288.491 26.586 288.68 26.8954 288.808C27.2047 288.931 27.5514 288.992 27.9354 288.992C28.2927 288.992 28.5994 288.952 28.8554 288.872C29.1167 288.787 29.3407 288.696 29.5274 288.6C29.714 288.504 29.8687 288.416 29.9914 288.336C30.1194 288.251 30.2287 288.208 30.3194 288.208C30.4367 288.208 30.5274 288.253 30.5914 288.344L30.9914 288.864C30.8154 289.077 30.6047 289.264 30.3594 289.424C30.114 289.579 29.85 289.707 29.5674 289.808C29.29 289.909 29.002 289.984 28.7034 290.032C28.4047 290.085 28.1087 290.112 27.8154 290.112C27.2554 290.112 26.738 290.019 26.2634 289.832C25.794 289.64 25.386 289.363 25.0394 289C24.698 288.632 24.4314 288.179 24.2394 287.64C24.0474 287.101 23.9514 286.483 23.9514 285.784C23.9514 285.219 24.0367 284.691 24.2074 284.2C24.3834 283.709 24.634 283.285 24.9594 282.928C25.2847 282.565 25.682 282.283 26.1514 282.08C26.6207 281.872 27.1487 281.768 27.7354 281.768ZM27.7674 282.816C27.0794 282.816 26.538 283.016 26.1434 283.416C25.7487 283.811 25.5034 284.36 25.4074 285.064H29.8154C29.8154 284.733 29.77 284.432 29.6794 284.16C29.5887 283.883 29.4554 283.645 29.2794 283.448C29.1034 283.245 28.8874 283.091 28.6314 282.984C28.3807 282.872 28.0927 282.816 27.7674 282.816ZM32.918 290V281.896H33.734C33.8887 281.896 33.9953 281.925 34.054 281.984C34.1127 282.043 34.1527 282.144 34.174 282.288L34.27 283.552C34.5473 282.987 34.8887 282.547 35.294 282.232C35.7047 281.912 36.1847 281.752 36.734 281.752C36.958 281.752 37.1607 281.779 37.342 281.832C37.5233 281.88 37.6913 281.949 37.846 282.04L37.662 283.104C37.6247 283.237 37.542 283.304 37.414 283.304C37.3393 283.304 37.2247 283.28 37.07 283.232C36.9153 283.179 36.6993 283.152 36.422 283.152C35.926 283.152 35.51 283.296 35.174 283.584C34.8433 283.872 34.566 284.291 34.342 284.84V290H32.918ZM40.9551 278.216V290H39.5311V278.216H40.9551ZM45.0489 281.896V290H43.6249V281.896H45.0489ZM45.3689 279.352C45.3689 279.491 45.3395 279.621 45.2809 279.744C45.2275 279.861 45.1529 279.968 45.0569 280.064C44.9662 280.155 44.8595 280.227 44.7369 280.28C44.6142 280.333 44.4835 280.36 44.3449 280.36C44.2062 280.36 44.0755 280.333 43.9529 280.28C43.8355 280.227 43.7289 280.155 43.6329 280.064C43.5422 279.968 43.4702 279.861 43.4169 279.744C43.3635 279.621 43.3369 279.491 43.3369 279.352C43.3369 279.213 43.3635 279.083 43.4169 278.96C43.4702 278.832 43.5422 278.723 43.6329 278.632C43.7289 278.536 43.8355 278.461 43.9529 278.408C44.0755 278.355 44.2062 278.328 44.3449 278.328C44.4835 278.328 44.6142 278.355 44.7369 278.408C44.8595 278.461 44.9662 278.536 45.0569 278.632C45.1529 278.723 45.2275 278.832 45.2809 278.96C45.3395 279.083 45.3689 279.213 45.3689 279.352ZM47.5586 290V281.896H48.4066C48.6093 281.896 48.7373 281.995 48.7906 282.192L48.9026 283.072C49.2546 282.683 49.6466 282.368 50.0786 282.128C50.516 281.888 51.02 281.768 51.5906 281.768C52.0333 281.768 52.4226 281.843 52.7586 281.992C53.1 282.136 53.3826 282.344 53.6066 282.616C53.836 282.883 54.0093 283.205 54.1266 283.584C54.244 283.963 54.3026 284.381 54.3026 284.84V290H52.8786V284.84C52.8786 284.227 52.7373 283.752 52.4546 283.416C52.1773 283.075 51.7506 282.904 51.1746 282.904C50.7533 282.904 50.3586 283.005 49.9906 283.208C49.628 283.411 49.292 283.685 48.9826 284.032V290H47.5586ZM25.04 322.272C25.04 323.131 24.904 323.92 24.632 324.64C24.36 325.355 23.976 325.971 23.48 326.488C22.984 327.005 22.3867 327.408 21.688 327.696C20.9947 327.979 20.2267 328.12 19.384 328.12C18.5413 328.12 17.7733 327.979 17.08 327.696C16.3867 327.408 15.792 327.005 15.296 326.488C14.8 325.971 14.416 325.355 14.144 324.64C13.872 323.92 13.736 323.131 13.736 322.272C13.736 321.413 13.872 320.627 14.144 319.912C14.416 319.192 14.8 318.573 15.296 318.056C15.792 317.533 16.3867 317.128 17.08 316.84C17.7733 316.552 18.5413 316.408 19.384 316.408C20.2267 316.408 20.9947 316.552 21.688 316.84C22.3867 317.128 22.984 317.533 23.48 318.056C23.976 318.573 24.36 319.192 24.632 319.912C24.904 320.627 25.04 321.413 25.04 322.272ZM23.448 322.272C23.448 321.568 23.352 320.936 23.16 320.376C22.968 319.816 22.696 319.344 22.344 318.96C21.992 318.571 21.5653 318.272 21.064 318.064C20.5627 317.856 20.0027 317.752 19.384 317.752C18.7707 317.752 18.2133 317.856 17.712 318.064C17.2107 318.272 16.7813 318.571 16.424 318.96C16.072 319.344 15.8 319.816 15.608 320.376C15.416 320.936 15.32 321.568 15.32 322.272C15.32 322.976 15.416 323.608 15.608 324.168C15.8 324.723 16.072 325.195 16.424 325.584C16.7813 325.968 17.2107 326.264 17.712 326.472C18.2133 326.675 18.7707 326.776 19.384 326.776C20.0027 326.776 20.5627 326.675 21.064 326.472C21.5653 326.264 21.992 325.968 22.344 325.584C22.696 325.195 22.968 324.723 23.16 324.168C23.352 323.608 23.448 322.976 23.448 322.272ZM31.5736 321.232C31.5096 321.349 31.411 321.408 31.2776 321.408C31.1976 321.408 31.107 321.379 31.0056 321.32C30.9043 321.261 30.779 321.197 30.6296 321.128C30.4856 321.053 30.3123 320.987 30.1096 320.928C29.907 320.864 29.667 320.832 29.3896 320.832C29.1496 320.832 28.9336 320.864 28.7416 320.928C28.5496 320.987 28.3843 321.069 28.2456 321.176C28.1123 321.283 28.0083 321.408 27.9336 321.552C27.8643 321.691 27.8296 321.843 27.8296 322.008C27.8296 322.216 27.8883 322.389 28.0056 322.528C28.1283 322.667 28.2883 322.787 28.4856 322.888C28.683 322.989 28.907 323.08 29.1576 323.16C29.4083 323.235 29.6643 323.317 29.9256 323.408C30.1923 323.493 30.451 323.589 30.7016 323.696C30.9523 323.803 31.1763 323.936 31.3736 324.096C31.571 324.256 31.7283 324.453 31.8456 324.688C31.9683 324.917 32.0296 325.195 32.0296 325.52C32.0296 325.893 31.963 326.24 31.8296 326.56C31.6963 326.875 31.499 327.149 31.2376 327.384C30.9763 327.613 30.6563 327.795 30.2776 327.928C29.899 328.061 29.4616 328.128 28.9656 328.128C28.4003 328.128 27.8883 328.037 27.4296 327.856C26.971 327.669 26.5816 327.432 26.2616 327.144L26.5976 326.6C26.6403 326.531 26.691 326.477 26.7496 326.44C26.8083 326.403 26.8856 326.384 26.9816 326.384C27.0776 326.384 27.179 326.421 27.2856 326.496C27.3923 326.571 27.5203 326.653 27.6696 326.744C27.8243 326.835 28.0083 326.917 28.2216 326.992C28.4403 327.067 28.7123 327.104 29.0376 327.104C29.315 327.104 29.5576 327.069 29.7656 327C29.9736 326.925 30.147 326.827 30.2856 326.704C30.4243 326.581 30.5256 326.44 30.5896 326.28C30.659 326.12 30.6936 325.949 30.6936 325.768C30.6936 325.544 30.6323 325.36 30.5096 325.216C30.3923 325.067 30.235 324.941 30.0376 324.84C29.8403 324.733 29.6136 324.643 29.3576 324.568C29.107 324.488 28.8483 324.405 28.5816 324.32C28.3203 324.235 28.0616 324.139 27.8056 324.032C27.555 323.92 27.331 323.781 27.1336 323.616C26.9363 323.451 26.7763 323.248 26.6536 323.008C26.5363 322.763 26.4776 322.467 26.4776 322.12C26.4776 321.811 26.5416 321.515 26.6696 321.232C26.7976 320.944 26.9843 320.693 27.2296 320.48C27.475 320.261 27.7763 320.088 28.1336 319.96C28.491 319.832 28.899 319.768 29.3576 319.768C29.891 319.768 30.3683 319.853 30.7896 320.024C31.2163 320.189 31.5843 320.419 31.8936 320.712L31.5736 321.232ZM35.4551 316.216V328H34.0311V316.216H35.4551ZM41.2449 319.768C41.8369 319.768 42.3702 319.867 42.8449 320.064C43.3249 320.261 43.7302 320.541 44.0609 320.904C44.3969 321.267 44.6529 321.707 44.8289 322.224C45.0102 322.736 45.1009 323.309 45.1009 323.944C45.1009 324.584 45.0102 325.16 44.8289 325.672C44.6529 326.184 44.3969 326.621 44.0609 326.984C43.7302 327.347 43.3249 327.627 42.8449 327.824C42.3702 328.016 41.8369 328.112 41.2449 328.112C40.6529 328.112 40.1169 328.016 39.6369 327.824C39.1622 327.627 38.7569 327.347 38.4209 326.984C38.0849 326.621 37.8262 326.184 37.6449 325.672C37.4635 325.16 37.3729 324.584 37.3729 323.944C37.3729 323.309 37.4635 322.736 37.6449 322.224C37.8262 321.707 38.0849 321.267 38.4209 320.904C38.7569 320.541 39.1622 320.261 39.6369 320.064C40.1169 319.867 40.6529 319.768 41.2449 319.768ZM41.2449 327C42.0449 327 42.6422 326.733 43.0369 326.2C43.4315 325.661 43.6289 324.912 43.6289 323.952C43.6289 322.987 43.4315 322.235 43.0369 321.696C42.6422 321.157 42.0449 320.888 41.2449 320.888C40.8395 320.888 40.4875 320.957 40.1889 321.096C39.8902 321.235 39.6395 321.435 39.4369 321.696C39.2395 321.957 39.0902 322.28 38.9889 322.664C38.8929 323.043 38.8449 323.472 38.8449 323.952C38.8449 324.432 38.8929 324.861 38.9889 325.24C39.0902 325.619 39.2395 325.939 39.4369 326.2C39.6395 326.456 39.8902 326.653 40.1889 326.792C40.4875 326.931 40.8395 327 41.2449 327ZM23.824 366H22.624C22.4853 366 22.3733 365.965 22.288 365.896C22.2027 365.827 22.1387 365.739 22.096 365.632L21.024 362.864H15.88L14.808 365.632C14.7707 365.728 14.7067 365.813 14.616 365.888C14.5253 365.963 14.4133 366 14.28 366H13.08L17.664 354.536H19.24L23.824 366ZM16.312 361.744H20.592L18.792 357.08C18.6747 356.792 18.56 356.432 18.448 356C18.3893 356.219 18.3307 356.421 18.272 356.608C18.2187 356.789 18.1653 356.949 18.112 357.088L16.312 361.744ZM25.043 366V357.896H25.891C26.0937 357.896 26.2217 357.995 26.275 358.192L26.379 359.024C26.6777 358.656 27.011 358.355 27.379 358.12C27.7523 357.885 28.1843 357.768 28.675 357.768C29.2243 357.768 29.667 357.92 30.003 358.224C30.3443 358.528 30.5897 358.939 30.739 359.456C30.851 359.163 30.9977 358.909 31.179 358.696C31.3657 358.483 31.5737 358.307 31.803 358.168C32.0323 358.029 32.275 357.928 32.531 357.864C32.7923 357.8 33.0563 357.768 33.323 357.768C33.7497 357.768 34.1283 357.837 34.459 357.976C34.795 358.109 35.0777 358.307 35.307 358.568C35.5417 358.829 35.7203 359.152 35.843 359.536C35.9657 359.915 36.027 360.349 36.027 360.84V366H34.603V360.84C34.603 360.205 34.4643 359.725 34.187 359.4C33.9097 359.069 33.507 358.904 32.979 358.904C32.7443 358.904 32.5203 358.947 32.307 359.032C32.099 359.112 31.915 359.232 31.755 359.392C31.595 359.552 31.467 359.755 31.371 360C31.2803 360.24 31.235 360.52 31.235 360.84V366H29.811V360.84C29.811 360.189 29.6803 359.704 29.419 359.384C29.1577 359.064 28.7763 358.904 28.275 358.904C27.923 358.904 27.595 359 27.291 359.192C26.9923 359.379 26.7177 359.635 26.467 359.96V366H25.043ZM42.8236 359.232C42.7596 359.349 42.661 359.408 42.5276 359.408C42.4476 359.408 42.357 359.379 42.2556 359.32C42.1543 359.261 42.029 359.197 41.8796 359.128C41.7356 359.053 41.5623 358.987 41.3596 358.928C41.157 358.864 40.917 358.832 40.6396 358.832C40.3996 358.832 40.1836 358.864 39.9916 358.928C39.7996 358.987 39.6343 359.069 39.4956 359.176C39.3623 359.283 39.2583 359.408 39.1836 359.552C39.1143 359.691 39.0796 359.843 39.0796 360.008C39.0796 360.216 39.1383 360.389 39.2556 360.528C39.3783 360.667 39.5383 360.787 39.7356 360.888C39.933 360.989 40.157 361.08 40.4076 361.16C40.6583 361.235 40.9143 361.317 41.1756 361.408C41.4423 361.493 41.701 361.589 41.9516 361.696C42.2023 361.803 42.4263 361.936 42.6236 362.096C42.821 362.256 42.9783 362.453 43.0956 362.688C43.2183 362.917 43.2796 363.195 43.2796 363.52C43.2796 363.893 43.213 364.24 43.0796 364.56C42.9463 364.875 42.749 365.149 42.4876 365.384C42.2263 365.613 41.9063 365.795 41.5276 365.928C41.149 366.061 40.7116 366.128 40.2156 366.128C39.6503 366.128 39.1383 366.037 38.6796 365.856C38.221 365.669 37.8316 365.432 37.5116 365.144L37.8476 364.6C37.8903 364.531 37.941 364.477 37.9996 364.44C38.0583 364.403 38.1356 364.384 38.2316 364.384C38.3276 364.384 38.429 364.421 38.5356 364.496C38.6423 364.571 38.7703 364.653 38.9196 364.744C39.0743 364.835 39.2583 364.917 39.4716 364.992C39.6903 365.067 39.9623 365.104 40.2876 365.104C40.565 365.104 40.8076 365.069 41.0156 365C41.2236 364.925 41.397 364.827 41.5356 364.704C41.6743 364.581 41.7756 364.44 41.8396 364.28C41.909 364.12 41.9436 363.949 41.9436 363.768C41.9436 363.544 41.8823 363.36 41.7596 363.216C41.6423 363.067 41.485 362.941 41.2876 362.84C41.0903 362.733 40.8636 362.643 40.6076 362.568C40.357 362.488 40.0983 362.405 39.8316 362.32C39.5703 362.235 39.3116 362.139 39.0556 362.032C38.805 361.92 38.581 361.781 38.3836 361.616C38.1863 361.451 38.0263 361.248 37.9036 361.008C37.7863 360.763 37.7276 360.467 37.7276 360.12C37.7276 359.811 37.7916 359.515 37.9196 359.232C38.0476 358.944 38.2343 358.693 38.4796 358.48C38.725 358.261 39.0263 358.088 39.3836 357.96C39.741 357.832 40.149 357.768 40.6076 357.768C41.141 357.768 41.6183 357.853 42.0396 358.024C42.4663 358.189 42.8343 358.419 43.1436 358.712L42.8236 359.232ZM47.5771 366.128C46.9371 366.128 46.4438 365.949 46.0971 365.592C45.7558 365.235 45.5851 364.72 45.5851 364.048V359.088H44.6091C44.5238 359.088 44.4518 359.064 44.3931 359.016C44.3345 358.963 44.3051 358.883 44.3051 358.776V358.208L45.6331 358.04L45.9611 355.536C45.9718 355.456 46.0065 355.392 46.0651 355.344C46.1238 355.291 46.1985 355.264 46.2891 355.264H47.0091V358.056H49.3291V359.088H47.0091V363.952C47.0091 364.293 47.0918 364.547 47.2571 364.712C47.4225 364.877 47.6358 364.96 47.8971 364.96C48.0465 364.96 48.1745 364.941 48.2811 364.904C48.3931 364.861 48.4891 364.816 48.5691 364.768C48.6491 364.72 48.7158 364.677 48.7691 364.64C48.8278 364.597 48.8785 364.576 48.9211 364.576C48.9958 364.576 49.0625 364.621 49.1211 364.712L49.5371 365.392C49.2918 365.621 48.9958 365.803 48.6491 365.936C48.3025 366.064 47.9451 366.128 47.5771 366.128ZM54.2979 357.768C54.7832 357.768 55.2312 357.851 55.6419 358.016C56.0525 358.176 56.4072 358.411 56.7059 358.72C57.0045 359.024 57.2365 359.403 57.4019 359.856C57.5725 360.304 57.6579 360.816 57.6579 361.392C57.6579 361.616 57.6339 361.765 57.5859 361.84C57.5379 361.915 57.4472 361.952 57.3139 361.952H51.9219C51.9325 362.464 52.0019 362.909 52.1299 363.288C52.2579 363.667 52.4339 363.984 52.6579 364.24C52.8819 364.491 53.1485 364.68 53.4579 364.808C53.7672 364.931 54.1139 364.992 54.4979 364.992C54.8552 364.992 55.1619 364.952 55.4179 364.872C55.6792 364.787 55.9032 364.696 56.0899 364.6C56.2765 364.504 56.4312 364.416 56.5539 364.336C56.6819 364.251 56.7912 364.208 56.8819 364.208C56.9992 364.208 57.0899 364.253 57.1539 364.344L57.5539 364.864C57.3779 365.077 57.1672 365.264 56.9219 365.424C56.6765 365.579 56.4125 365.707 56.1299 365.808C55.8525 365.909 55.5645 365.984 55.2659 366.032C54.9672 366.085 54.6712 366.112 54.3779 366.112C53.8179 366.112 53.3005 366.019 52.8259 365.832C52.3565 365.64 51.9485 365.363 51.6019 365C51.2605 364.632 50.9939 364.179 50.8019 363.64C50.6099 363.101 50.5139 362.483 50.5139 361.784C50.5139 361.219 50.5992 360.691 50.7699 360.2C50.9459 359.709 51.1965 359.285 51.5219 358.928C51.8472 358.565 52.2445 358.283 52.7139 358.08C53.1832 357.872 53.7112 357.768 54.2979 357.768ZM54.3299 358.816C53.6419 358.816 53.1005 359.016 52.7059 359.416C52.3112 359.811 52.0659 360.36 51.9699 361.064H56.3779C56.3779 360.733 56.3325 360.432 56.2419 360.16C56.1512 359.883 56.0179 359.645 55.8419 359.448C55.6659 359.245 55.4499 359.091 55.1939 358.984C54.9432 358.872 54.6552 358.816 54.3299 358.816ZM59.4805 366V357.896H60.2965C60.4512 357.896 60.5578 357.925 60.6165 357.984C60.6752 358.043 60.7152 358.144 60.7365 358.288L60.8325 359.552C61.1098 358.987 61.4512 358.547 61.8565 358.232C62.2672 357.912 62.7472 357.752 63.2965 357.752C63.5205 357.752 63.7232 357.779 63.9045 357.832C64.0858 357.88 64.2538 357.949 64.4085 358.04L64.2245 359.104C64.1872 359.237 64.1045 359.304 63.9765 359.304C63.9018 359.304 63.7872 359.28 63.6325 359.232C63.4778 359.179 63.2618 359.152 62.9845 359.152C62.4885 359.152 62.0725 359.296 61.7365 359.584C61.4058 359.872 61.1285 360.291 60.9045 360.84V366H59.4805ZM71.6376 366C71.435 366 71.307 365.901 71.2536 365.704L71.1256 364.72C70.779 365.141 70.3816 365.48 69.9336 365.736C69.491 365.987 68.9816 366.112 68.4056 366.112C67.9416 366.112 67.5203 366.024 67.1416 365.848C66.763 365.667 66.4403 365.403 66.1736 365.056C65.907 364.709 65.7016 364.277 65.5576 363.76C65.4136 363.243 65.3416 362.648 65.3416 361.976C65.3416 361.379 65.4216 360.824 65.5816 360.312C65.7416 359.795 65.971 359.347 66.2696 358.968C66.5736 358.589 66.9416 358.293 67.3736 358.08C67.8056 357.861 68.2963 357.752 68.8456 357.752C69.3416 357.752 69.7656 357.837 70.1176 358.008C70.4696 358.173 70.7843 358.408 71.0616 358.712V354.216H72.4856V366H71.6376ZM68.8776 364.96C69.3416 364.96 69.747 364.853 70.0936 364.64C70.4456 364.427 70.7683 364.125 71.0616 363.736V359.816C70.8003 359.464 70.5123 359.219 70.1976 359.08C69.8883 358.936 69.5443 358.864 69.1656 358.864C68.4083 358.864 67.827 359.133 67.4216 359.672C67.0163 360.211 66.8136 360.979 66.8136 361.976C66.8136 362.504 66.859 362.957 66.9496 363.336C67.0403 363.709 67.1736 364.019 67.3496 364.264C67.5256 364.504 67.7416 364.68 67.9976 364.792C68.2536 364.904 68.547 364.96 68.8776 364.96ZM80.8231 366H80.1911C80.0525 366 79.9405 365.979 79.8551 365.936C79.7698 365.893 79.7138 365.803 79.6871 365.664L79.5271 364.912C79.3138 365.104 79.1058 365.277 78.9031 365.432C78.7005 365.581 78.4871 365.709 78.2631 365.816C78.0391 365.917 77.7991 365.995 77.5431 366.048C77.2925 366.101 77.0125 366.128 76.7031 366.128C76.3885 366.128 76.0925 366.085 75.8151 366C75.5431 365.909 75.3058 365.776 75.1031 365.6C74.9005 365.424 74.7378 365.203 74.6151 364.936C74.4978 364.664 74.4391 364.344 74.4391 363.976C74.4391 363.656 74.5271 363.349 74.7031 363.056C74.8791 362.757 75.1618 362.493 75.5511 362.264C75.9458 362.035 76.4605 361.848 77.0951 361.704C77.7298 361.555 78.5058 361.469 79.4231 361.448V360.816C79.4231 360.187 79.2871 359.712 79.0151 359.392C78.7485 359.067 78.3511 358.904 77.8231 358.904C77.4765 358.904 77.1831 358.949 76.9431 359.04C76.7085 359.125 76.5031 359.224 76.3271 359.336C76.1565 359.443 76.0071 359.541 75.8791 359.632C75.7565 359.717 75.6338 359.76 75.5111 359.76C75.4151 359.76 75.3298 359.736 75.2551 359.688C75.1858 359.635 75.1298 359.571 75.0871 359.496L74.8311 359.04C75.2791 358.608 75.7618 358.285 76.2791 358.072C76.7965 357.859 77.3698 357.752 77.9991 357.752C78.4525 357.752 78.8551 357.827 79.2071 357.976C79.5591 358.125 79.8551 358.333 80.0951 358.6C80.3351 358.867 80.5165 359.189 80.6391 359.568C80.7618 359.947 80.8231 360.363 80.8231 360.816V366ZM77.1271 365.128C77.3778 365.128 77.6071 365.104 77.8151 365.056C78.0231 365.003 78.2178 364.931 78.3991 364.84C78.5858 364.744 78.7618 364.629 78.9271 364.496C79.0978 364.363 79.2631 364.211 79.4231 364.04V362.352C78.7671 362.373 78.2098 362.427 77.7511 362.512C77.2925 362.592 76.9191 362.699 76.6311 362.832C76.3431 362.965 76.1325 363.123 75.9991 363.304C75.8711 363.485 75.8071 363.688 75.8071 363.912C75.8071 364.125 75.8418 364.309 75.9111 364.464C75.9805 364.619 76.0738 364.747 76.1911 364.848C76.3085 364.944 76.4471 365.016 76.6071 365.064C76.7671 365.107 76.9405 365.128 77.1271 365.128ZM82.9805 366V357.896H83.8285C84.0312 357.896 84.1592 357.995 84.2125 358.192L84.3165 359.024C84.6152 358.656 84.9485 358.355 85.3165 358.12C85.6898 357.885 86.1218 357.768 86.6125 357.768C87.1618 357.768 87.6045 357.92 87.9405 358.224C88.2818 358.528 88.5272 358.939 88.6765 359.456C88.7885 359.163 88.9352 358.909 89.1165 358.696C89.3032 358.483 89.5112 358.307 89.7405 358.168C89.9698 358.029 90.2125 357.928 90.4685 357.864C90.7298 357.8 90.9938 357.768 91.2605 357.768C91.6872 357.768 92.0658 357.837 92.3965 357.976C92.7325 358.109 93.0152 358.307 93.2445 358.568C93.4792 358.829 93.6578 359.152 93.7805 359.536C93.9032 359.915 93.9645 360.349 93.9645 360.84V366H92.5405V360.84C92.5405 360.205 92.4018 359.725 92.1245 359.4C91.8472 359.069 91.4445 358.904 90.9165 358.904C90.6818 358.904 90.4578 358.947 90.2445 359.032C90.0365 359.112 89.8525 359.232 89.6925 359.392C89.5325 359.552 89.4045 359.755 89.3085 360C89.2178 360.24 89.1725 360.52 89.1725 360.84V366H87.7485V360.84C87.7485 360.189 87.6178 359.704 87.3565 359.384C87.0952 359.064 86.7138 358.904 86.2125 358.904C85.8605 358.904 85.5325 359 85.2285 359.192C84.9298 359.379 84.6552 359.635 84.4045 359.96V366H82.9805Z" fill="black"/>
</svg>
