<svg width="456" height="38" viewBox="0 0 456 38" fill="none" xmlns="http://www.w3.org/2000/svg">
<path d="M0 4C0 1.79086 1.79086 0 4 0H452C454.209 0 456 1.79086 456 4V34C456 36.2091 454.209 38 452 38H4.00001C1.79087 38 0 36.2091 0 34V4Z" fill="white"/>
<path fill-rule="evenodd" clip-rule="evenodd" d="M452 1H4C2.34315 1 1 2.34315 1 4V34C1 35.6568 2.34315 37 4.00001 37H452C453.657 37 455 35.6569 455 34V4C455 2.34315 453.657 1 452 1ZM4 0C1.79086 0 0 1.79086 0 4V34C0 36.2091 1.79087 38 4.00001 38H452C454.209 38 456 36.2091 456 34V4C456 1.79086 454.209 0 452 0H4Z" fill="#979797"/>
<path d="M14.192 13.536C14.3307 13.536 14.432 13.5547 14.496 13.592C14.5653 13.624 14.6427 13.6933 14.728 13.8L21.368 22.44C21.352 22.3013 21.3413 22.168 21.336 22.04C21.3307 21.9067 21.328 21.7787 21.328 21.656V13.536H22.688V25H21.904C21.7813 25 21.6773 24.9787 21.592 24.936C21.512 24.8933 21.432 24.8213 21.352 24.72L14.72 16.088C14.7307 16.2213 14.7387 16.352 14.744 16.48C14.7493 16.608 14.752 16.7253 14.752 16.832V25H13.392V13.536H14.192ZM28.4698 16.768C28.9551 16.768 29.4031 16.8507 29.8138 17.016C30.2244 17.176 30.5791 17.4107 30.8778 17.72C31.1764 18.024 31.4084 18.4027 31.5738 18.856C31.7444 19.304 31.8298 19.816 31.8298 20.392C31.8298 20.616 31.8058 20.7653 31.7578 20.84C31.7098 20.9147 31.6191 20.952 31.4858 20.952H26.0938C26.1044 21.464 26.1738 21.9093 26.3018 22.288C26.4298 22.6667 26.6058 22.984 26.8298 23.24C27.0538 23.4907 27.3204 23.68 27.6298 23.808C27.9391 23.9307 28.2858 23.992 28.6698 23.992C29.0271 23.992 29.3338 23.952 29.5898 23.872C29.8511 23.7867 30.0751 23.696 30.2618 23.6C30.4484 23.504 30.6031 23.416 30.7258 23.336C30.8538 23.2507 30.9631 23.208 31.0538 23.208C31.1711 23.208 31.2618 23.2533 31.3258 23.344L31.7258 23.864C31.5498 24.0773 31.3391 24.264 31.0938 24.424C30.8484 24.5787 30.5844 24.7067 30.3018 24.808C30.0244 24.9093 29.7364 24.984 29.4378 25.032C29.1391 25.0853 28.8431 25.112 28.5498 25.112C27.9898 25.112 27.4724 25.0187 26.9978 24.832C26.5284 24.64 26.1204 24.3627 25.7738 24C25.4324 23.632 25.1658 23.1787 24.9738 22.64C24.7818 22.1013 24.6858 21.4827 24.6858 20.784C24.6858 20.2187 24.7711 19.6907 24.9418 19.2C25.1178 18.7093 25.3684 18.2853 25.6938 17.928C26.0191 17.5653 26.4164 17.2827 26.8858 17.08C27.3551 16.872 27.8831 16.768 28.4698 16.768ZM28.5017 17.816C27.8138 17.816 27.2724 18.016 26.8778 18.416C26.4831 18.8107 26.2378 19.36 26.1418 20.064H30.5498C30.5498 19.7333 30.5044 19.432 30.4138 19.16C30.3231 18.8827 30.1898 18.6453 30.0138 18.448C29.8378 18.2453 29.6218 18.0907 29.3658 17.984C29.1151 17.872 28.8271 17.816 28.5017 17.816ZM32.5964 16.896H33.7164C33.8337 16.896 33.9297 16.9253 34.0044 16.984C34.079 17.0427 34.1297 17.112 34.1564 17.192L35.7084 22.408C35.751 22.6 35.791 22.7867 35.8284 22.968C35.8657 23.144 35.8977 23.3227 35.9244 23.504C35.967 23.3227 36.015 23.144 36.0684 22.968C36.1217 22.7867 36.1777 22.6 36.2364 22.408L37.9484 17.16C37.975 17.08 38.0204 17.0133 38.0844 16.96C38.1537 16.9067 38.239 16.88 38.3404 16.88H38.9564C39.063 16.88 39.151 16.9067 39.2204 16.96C39.2897 17.0133 39.3377 17.08 39.3644 17.16L41.0364 22.408C41.095 22.5947 41.1457 22.7787 41.1884 22.96C41.2364 23.1413 41.2817 23.32 41.3244 23.496C41.351 23.32 41.3857 23.136 41.4284 22.944C41.471 22.752 41.5164 22.5733 41.5644 22.408L43.1484 17.192C43.175 17.1067 43.2257 17.0373 43.3004 16.984C43.375 16.9253 43.463 16.896 43.5644 16.896H44.6364L42.0124 25H40.8844C40.7457 25 40.6497 24.9093 40.5964 24.728L38.8044 19.232C38.7617 19.1093 38.727 18.9867 38.7004 18.864C38.6737 18.736 38.647 18.6107 38.6204 18.488C38.5937 18.6107 38.567 18.736 38.5404 18.864C38.5137 18.992 38.479 19.1173 38.4364 19.24L36.6204 24.728C36.5617 24.9093 36.4524 25 36.2924 25H35.2204L32.5964 16.896ZM53.6361 20.44V25H52.0921V20.44L47.8921 13.536H49.2521C49.3908 13.536 49.5001 13.5707 49.5801 13.64C49.6601 13.7093 49.7295 13.7947 49.7881 13.896L52.4121 18.352C52.5188 18.5387 52.6068 18.7147 52.6761 18.88C52.7508 19.0453 52.8175 19.208 52.8761 19.368C52.9348 19.2027 52.9988 19.0373 53.0681 18.872C53.1375 18.7067 53.2255 18.5333 53.3321 18.352L55.9481 13.896C55.9961 13.8107 56.0601 13.7307 56.1401 13.656C56.2255 13.576 56.3348 13.536 56.4681 13.536H57.8441L53.6361 20.44ZM61.0574 16.768C61.6494 16.768 62.1827 16.8667 62.6574 17.064C63.1374 17.2613 63.5427 17.5413 63.8734 17.904C64.2094 18.2667 64.4654 18.7067 64.6414 19.224C64.8227 19.736 64.9134 20.3093 64.9134 20.944C64.9134 21.584 64.8227 22.16 64.6414 22.672C64.4654 23.184 64.2094 23.6213 63.8734 23.984C63.5427 24.3467 63.1374 24.6267 62.6574 24.824C62.1827 25.016 61.6494 25.112 61.0574 25.112C60.4654 25.112 59.9294 25.016 59.4494 24.824C58.9747 24.6267 58.5694 24.3467 58.2334 23.984C57.8974 23.6213 57.6387 23.184 57.4574 22.672C57.276 22.16 57.1854 21.584 57.1854 20.944C57.1854 20.3093 57.276 19.736 57.4574 19.224C57.6387 18.7067 57.8974 18.2667 58.2334 17.904C58.5694 17.5413 58.9747 17.2613 59.4494 17.064C59.9294 16.8667 60.4654 16.768 61.0574 16.768ZM61.0574 24C61.8574 24 62.4547 23.7333 62.8494 23.2C63.244 22.6613 63.4414 21.912 63.4414 20.952C63.4414 19.9867 63.244 19.2347 62.8494 18.696C62.4547 18.1573 61.8574 17.888 61.0574 17.888C60.652 17.888 60.3 17.9573 60.0014 18.096C59.7027 18.2347 59.452 18.4347 59.2494 18.696C59.052 18.9573 58.9027 19.28 58.8014 19.664C58.7054 20.0427 58.6574 20.472 58.6574 20.952C58.6574 21.432 58.7054 21.8613 58.8014 22.24C58.9027 22.6187 59.052 22.9387 59.2494 23.2C59.452 23.456 59.7027 23.6533 60.0014 23.792C60.3 23.9307 60.652 24 61.0574 24ZM66.668 25V16.896H67.484C67.6387 16.896 67.7453 16.9253 67.804 16.984C67.8627 17.0427 67.9027 17.144 67.924 17.288L68.02 18.552C68.2973 17.9867 68.6387 17.5467 69.044 17.232C69.4547 16.912 69.9347 16.752 70.484 16.752C70.708 16.752 70.9107 16.7787 71.092 16.832C71.2733 16.88 71.4413 16.9493 71.596 17.04L71.412 18.104C71.3747 18.2373 71.292 18.304 71.164 18.304C71.0893 18.304 70.9747 18.28 70.82 18.232C70.6653 18.1787 70.4493 18.152 70.172 18.152C69.676 18.152 69.26 18.296 68.924 18.584C68.5933 18.872 68.316 19.2907 68.092 19.84V25H66.668ZM74.6011 13.216V20.152H74.9691C75.0758 20.152 75.1638 20.1387 75.2331 20.112C75.3025 20.08 75.3798 20.0187 75.4651 19.928L78.0251 17.184C78.1051 17.0987 78.1851 17.0293 78.2651 16.976C78.3451 16.9227 78.4518 16.896 78.5851 16.896H79.8811L76.8971 20.072C76.8225 20.1627 76.7478 20.2427 76.6731 20.312C76.6038 20.3813 76.5238 20.4427 76.4331 20.496C76.5291 20.56 76.6145 20.6347 76.6891 20.72C76.7691 20.8 76.8438 20.8933 76.9131 21L80.0811 25H78.8011C78.6838 25 78.5825 24.9787 78.4971 24.936C78.4171 24.888 78.3398 24.816 78.2651 24.72L75.6011 21.4C75.5211 21.288 75.4411 21.216 75.3611 21.184C75.2811 21.1467 75.1611 21.128 75.0011 21.128H74.6011V25H73.1691V13.216H74.6011Z" fill="black"/>
<path fill-rule="evenodd" clip-rule="evenodd" d="M430.707 16.7071C431.098 16.3166 431.731 16.3166 432.121 16.7071L436.707 21.2929C437.098 21.6834 437.098 22.3166 436.707 22.7071C436.317 23.0976 435.684 23.0976 435.293 22.7071L430.707 18.1213C430.317 17.7308 430.317 17.0976 430.707 16.7071Z" fill="black"/>
<path fill-rule="evenodd" clip-rule="evenodd" d="M441.293 16.7071C440.902 16.3166 440.269 16.3166 439.879 16.7071L435.293 21.2929C434.902 21.6834 434.902 22.3166 435.293 22.7071C435.683 23.0976 436.316 23.0976 436.707 22.7071L441.293 18.1213C441.683 17.7308 441.683 17.0976 441.293 16.7071Z" fill="black"/>
<path fill-rule="evenodd" clip-rule="evenodd" d="M395.707 24.6066C395.317 24.2161 395.317 23.5829 395.707 23.1924L405.607 13.2929C405.997 12.9024 406.63 12.9024 407.021 13.2929C407.411 13.6834 407.411 14.3166 407.021 14.7071L397.121 24.6066C396.731 24.9971 396.098 24.9971 395.707 24.6066Z" fill="black"/>
<path fill-rule="evenodd" clip-rule="evenodd" d="M407.021 24.6066C407.411 24.2161 407.411 23.5829 407.021 23.1924L397.121 13.2929C396.731 12.9024 396.098 12.9024 395.707 13.2929C395.317 13.6834 395.317 14.3166 395.707 14.7071L405.607 24.6066C405.997 24.9971 406.63 24.9971 407.021 24.6066Z" fill="black"/>
</svg>
