<svg width="456" height="271" viewBox="0 0 456 271" fill="none" xmlns="http://www.w3.org/2000/svg">
<path d="M9.352 57H7.987V52.436H2.583V57H1.218V46.969H2.583V51.442H7.987V46.969H9.352V57ZM14.411 49.797C14.8357 49.797 15.2277 49.8693 15.587 50.014C15.9464 50.154 16.2567 50.3593 16.518 50.63C16.7794 50.896 16.9824 51.2273 17.127 51.624C17.2764 52.016 17.351 52.464 17.351 52.968C17.351 53.164 17.33 53.2947 17.288 53.36C17.246 53.4253 17.1667 53.458 17.05 53.458H12.332C12.3414 53.906 12.402 54.2957 12.514 54.627C12.626 54.9583 12.78 55.236 12.976 55.46C13.172 55.6793 13.4054 55.845 13.676 55.957C13.9467 56.0643 14.25 56.118 14.586 56.118C14.8987 56.118 15.167 56.083 15.391 56.013C15.6197 55.9383 15.8157 55.859 15.979 55.775C16.1424 55.691 16.2777 55.614 16.385 55.544C16.497 55.4693 16.5927 55.432 16.672 55.432C16.7747 55.432 16.854 55.4717 16.91 55.551L17.26 56.006C17.106 56.1927 16.9217 56.356 16.707 56.496C16.4924 56.6313 16.2614 56.7433 16.014 56.832C15.7714 56.9207 15.5194 56.986 15.258 57.028C14.9967 57.0747 14.7377 57.098 14.481 57.098C13.991 57.098 13.5384 57.0163 13.123 56.853C12.7124 56.685 12.3554 56.4423 12.052 56.125C11.7534 55.803 11.52 55.4063 11.352 54.935C11.184 54.4637 11.1 53.9223 11.1 53.311C11.1 52.8163 11.1747 52.3543 11.324 51.925C11.478 51.4957 11.6974 51.1247 11.982 50.812C12.2667 50.4947 12.6144 50.2473 13.025 50.07C13.4357 49.888 13.8977 49.797 14.411 49.797ZM14.439 50.714C13.837 50.714 13.3634 50.889 13.018 51.239C12.6727 51.5843 12.458 52.065 12.374 52.681H16.231C16.231 52.3917 16.1914 52.128 16.112 51.89C16.0327 51.6473 15.916 51.4397 15.762 51.267C15.608 51.0897 15.419 50.9543 15.195 50.861C14.9757 50.763 14.7237 50.714 14.439 50.714ZM20.3318 46.689V57H19.0858V46.689H20.3318ZM22.5279 59.401V49.909H23.2699C23.4472 49.909 23.5592 49.9953 23.6059 50.168L23.7109 51.008C24.0142 50.6393 24.3595 50.343 24.7469 50.119C25.1389 49.895 25.5892 49.783 26.0979 49.783C26.5039 49.783 26.8725 49.8623 27.2039 50.021C27.5352 50.175 27.8175 50.406 28.0509 50.714C28.2842 51.0173 28.4639 51.3953 28.5899 51.848C28.7159 52.3007 28.7789 52.821 28.7789 53.409C28.7789 53.9317 28.7089 54.4193 28.5689 54.872C28.4289 55.32 28.2282 55.7097 27.9669 56.041C27.7055 56.3677 27.3835 56.6267 27.0009 56.818C26.6229 57.0047 26.1959 57.098 25.7199 57.098C25.2812 57.098 24.9055 57.0257 24.5929 56.881C24.2849 56.7363 24.0119 56.531 23.7739 56.265V59.401H22.5279ZM25.6849 50.791C25.2789 50.791 24.9219 50.8843 24.6139 51.071C24.3105 51.2577 24.0305 51.5213 23.7739 51.862V55.292C24.0025 55.6 24.2522 55.817 24.5229 55.943C24.7982 56.069 25.1039 56.132 25.4399 56.132C26.0979 56.132 26.6042 55.8963 26.9589 55.425C27.3135 54.9537 27.4909 54.2817 27.4909 53.409C27.4909 52.947 27.4489 52.5503 27.3649 52.219C27.2855 51.8877 27.1689 51.617 27.0149 51.407C26.8609 51.1923 26.6719 51.036 26.4479 50.938C26.2239 50.84 25.9695 50.791 25.6849 50.791ZM33.0595 49.797C33.4841 49.797 33.8761 49.8693 34.2355 50.014C34.5948 50.154 34.9051 50.3593 35.1665 50.63C35.4278 50.896 35.6308 51.2273 35.7755 51.624C35.9248 52.016 35.9995 52.464 35.9995 52.968C35.9995 53.164 35.9785 53.2947 35.9365 53.36C35.8945 53.4253 35.8151 53.458 35.6985 53.458H30.9805C30.9898 53.906 31.0505 54.2957 31.1625 54.627C31.2745 54.9583 31.4285 55.236 31.6245 55.46C31.8205 55.6793 32.0538 55.845 32.3245 55.957C32.5951 56.0643 32.8985 56.118 33.2345 56.118C33.5471 56.118 33.8155 56.083 34.0395 56.013C34.2681 55.9383 34.4641 55.859 34.6275 55.775C34.7908 55.691 34.9261 55.614 35.0335 55.544C35.1455 55.4693 35.2411 55.432 35.3205 55.432C35.4231 55.432 35.5025 55.4717 35.5585 55.551L35.9085 56.006C35.7545 56.1927 35.5701 56.356 35.3555 56.496C35.1408 56.6313 34.9098 56.7433 34.6625 56.832C34.4198 56.9207 34.1678 56.986 33.9065 57.028C33.6451 57.0747 33.3861 57.098 33.1295 57.098C32.6395 57.098 32.1868 57.0163 31.7715 56.853C31.3608 56.685 31.0038 56.4423 30.7005 56.125C30.4018 55.803 30.1685 55.4063 30.0005 54.935C29.8325 54.4637 29.7485 53.9223 29.7485 53.311C29.7485 52.8163 29.8231 52.3543 29.9725 51.925C30.1265 51.4957 30.3458 51.1247 30.6305 50.812C30.9151 50.4947 31.2628 50.2473 31.6735 50.07C32.0841 49.888 32.5461 49.797 33.0595 49.797ZM33.0875 50.714C32.4855 50.714 32.0118 50.889 31.6665 51.239C31.3211 51.5843 31.1065 52.065 31.0225 52.681H34.8795C34.8795 52.3917 34.8398 52.128 34.7605 51.89C34.6811 51.6473 34.5645 51.4397 34.4105 51.267C34.2565 51.0897 34.0675 50.9543 33.8435 50.861C33.6241 50.763 33.3721 50.714 33.0875 50.714ZM37.5943 57V49.909H38.3083C38.4436 49.909 38.5369 49.9347 38.5883 49.986C38.6396 50.0373 38.6746 50.126 38.6933 50.252L38.7773 51.358C39.0199 50.8633 39.3186 50.4783 39.6733 50.203C40.0326 49.923 40.4526 49.783 40.9333 49.783C41.1293 49.783 41.3066 49.8063 41.4653 49.853C41.6239 49.895 41.7709 49.9557 41.9063 50.035L41.7453 50.966C41.7126 51.0827 41.6403 51.141 41.5283 51.141C41.4629 51.141 41.3626 51.12 41.2273 51.078C41.0919 51.0313 40.9029 51.008 40.6603 51.008C40.2263 51.008 39.8623 51.134 39.5683 51.386C39.2789 51.638 39.0363 52.0043 38.8403 52.485V57H37.5943ZM48.0968 57.112C47.5368 57.112 47.1051 56.9557 46.8018 56.643C46.5031 56.3303 46.3538 55.88 46.3538 55.292V50.952H45.4998C45.4251 50.952 45.3621 50.931 45.3108 50.889C45.2594 50.8423 45.2338 50.7723 45.2338 50.679V50.182L46.3958 50.035L46.6828 47.844C46.6921 47.774 46.7224 47.718 46.7738 47.676C46.8251 47.6293 46.8904 47.606 46.9698 47.606H47.5998V50.049H49.6298V50.952H47.5998V55.208C47.5998 55.5067 47.6721 55.7283 47.8168 55.873C47.9614 56.0177 48.1481 56.09 48.3768 56.09C48.5074 56.09 48.6194 56.0737 48.7128 56.041C48.8108 56.0037 48.8948 55.964 48.9648 55.922C49.0348 55.88 49.0931 55.8427 49.1398 55.81C49.1911 55.7727 49.2354 55.754 49.2728 55.754C49.3381 55.754 49.3964 55.7937 49.4478 55.873L49.8118 56.468C49.5971 56.6687 49.3381 56.8273 49.0348 56.944C48.7314 57.056 48.4188 57.112 48.0968 57.112ZM53.9774 49.797C54.4021 49.797 54.7941 49.8693 55.1534 50.014C55.5128 50.154 55.8231 50.3593 56.0844 50.63C56.3458 50.896 56.5488 51.2273 56.6934 51.624C56.8428 52.016 56.9174 52.464 56.9174 52.968C56.9174 53.164 56.8964 53.2947 56.8544 53.36C56.8124 53.4253 56.7331 53.458 56.6164 53.458H51.8984C51.9078 53.906 51.9684 54.2957 52.0804 54.627C52.1924 54.9583 52.3464 55.236 52.5424 55.46C52.7384 55.6793 52.9718 55.845 53.2424 55.957C53.5131 56.0643 53.8164 56.118 54.1524 56.118C54.4651 56.118 54.7334 56.083 54.9574 56.013C55.1861 55.9383 55.3821 55.859 55.5454 55.775C55.7088 55.691 55.8441 55.614 55.9514 55.544C56.0634 55.4693 56.1591 55.432 56.2384 55.432C56.3411 55.432 56.4204 55.4717 56.4764 55.551L56.8264 56.006C56.6724 56.1927 56.4881 56.356 56.2734 56.496C56.0588 56.6313 55.8278 56.7433 55.5804 56.832C55.3378 56.9207 55.0858 56.986 54.8244 57.028C54.5631 57.0747 54.3041 57.098 54.0474 57.098C53.5574 57.098 53.1048 57.0163 52.6894 56.853C52.2788 56.685 51.9218 56.4423 51.6184 56.125C51.3198 55.803 51.0864 55.4063 50.9184 54.935C50.7504 54.4637 50.6664 53.9223 50.6664 53.311C50.6664 52.8163 50.7411 52.3543 50.8904 51.925C51.0444 51.4957 51.2638 51.1247 51.5484 50.812C51.8331 50.4947 52.1808 50.2473 52.5914 50.07C53.0021 49.888 53.4641 49.797 53.9774 49.797ZM54.0054 50.714C53.4034 50.714 52.9298 50.889 52.5844 51.239C52.2391 51.5843 52.0244 52.065 51.9404 52.681H55.7974C55.7974 52.3917 55.7578 52.128 55.6784 51.89C55.5991 51.6473 55.4824 51.4397 55.3284 51.267C55.1744 51.0897 54.9854 50.9543 54.7614 50.861C54.5421 50.763 54.2901 50.714 54.0054 50.714ZM59.7474 53.367L57.3604 49.909H58.5574C58.6601 49.909 58.7347 49.9253 58.7814 49.958C58.8281 49.9907 58.8701 50.0373 58.9074 50.098L60.6434 52.758C60.6854 52.6273 60.7461 52.4967 60.8254 52.366L62.3514 50.126C62.3981 50.0607 62.4447 50.0093 62.4914 49.972C62.5381 49.93 62.5964 49.909 62.6664 49.909H63.8144L61.4274 53.297L63.9124 57H62.7154C62.6127 57 62.5311 56.9743 62.4704 56.923C62.4144 56.867 62.3677 56.8063 62.3304 56.741L60.5454 53.962C60.5127 54.0973 60.4637 54.2187 60.3984 54.326L58.7464 56.741C58.6997 56.8063 58.6484 56.867 58.5924 56.923C58.5411 56.9743 58.4687 57 58.3754 57H57.2624L59.7474 53.367ZM67.2921 57.112C66.7321 57.112 66.3004 56.9557 65.9971 56.643C65.6984 56.3303 65.5491 55.88 65.5491 55.292V50.952H64.6951C64.6204 50.952 64.5574 50.931 64.5061 50.889C64.4548 50.8423 64.4291 50.7723 64.4291 50.679V50.182L65.5911 50.035L65.8781 47.844C65.8874 47.774 65.9178 47.718 65.9691 47.676C66.0204 47.6293 66.0858 47.606 66.1651 47.606H66.7951V50.049H68.8251V50.952H66.7951V55.208C66.7951 55.5067 66.8674 55.7283 67.0121 55.873C67.1568 56.0177 67.3434 56.09 67.5721 56.09C67.7028 56.09 67.8148 56.0737 67.9081 56.041C68.0061 56.0037 68.0901 55.964 68.1601 55.922C68.2301 55.88 68.2884 55.8427 68.3351 55.81C68.3864 55.7727 68.4308 55.754 68.4681 55.754C68.5334 55.754 68.5918 55.7937 68.6431 55.873L69.0071 56.468C68.7924 56.6687 68.5334 56.8273 68.2301 56.944C67.9268 57.056 67.6141 57.112 67.2921 57.112Z" fill="#6A6A6A"/>
<rect x="0.5" y="0.5" width="455" height="37" rx="3.5" fill="white" stroke="#979797"/>
<path fill-rule="evenodd" clip-rule="evenodd" d="M430.707 16.7071C431.097 16.3166 431.731 16.3166 432.121 16.7071L436.707 21.2929C437.097 21.6834 437.097 22.3166 436.707 22.7071C436.316 23.0976 435.683 23.0976 435.293 22.7071L430.707 18.1213C430.316 17.7308 430.316 17.0976 430.707 16.7071Z" fill="black"/>
<path fill-rule="evenodd" clip-rule="evenodd" d="M441.293 16.7071C440.903 16.3166 440.269 16.3166 439.879 16.7071L435.293 21.2929C434.903 21.6834 434.903 22.3166 435.293 22.7071C435.684 23.0976 436.317 23.0976 436.707 22.7071L441.293 18.1213C441.684 17.7308 441.684 17.0976 441.293 16.7071Z" fill="black"/>
<rect x="0.5" y="46.5" width="455" height="224" rx="3.5" fill="white" stroke="#979797"/>
<path d="M14.392 136V124.536H18.048C18.752 124.536 19.3573 124.605 19.864 124.744C20.376 124.883 20.7947 125.08 21.12 125.336C21.4507 125.592 21.6933 125.907 21.848 126.28C22.008 126.648 22.088 127.064 22.088 127.528C22.088 127.811 22.0427 128.083 21.952 128.344C21.8667 128.605 21.7333 128.848 21.552 129.072C21.376 129.296 21.152 129.496 20.88 129.672C20.6133 129.848 20.2987 129.992 19.936 130.104C20.7733 130.269 21.4053 130.571 21.832 131.008C22.2587 131.445 22.472 132.021 22.472 132.736C22.472 133.221 22.3813 133.664 22.2 134.064C22.024 134.464 21.7627 134.808 21.416 135.096C21.0747 135.384 20.6533 135.608 20.152 135.768C19.656 135.923 19.088 136 18.448 136H14.392ZM15.944 130.776V134.768H18.424C18.8667 134.768 19.2453 134.717 19.56 134.616C19.88 134.515 20.1413 134.373 20.344 134.192C20.552 134.005 20.704 133.787 20.8 133.536C20.896 133.28 20.944 133 20.944 132.696C20.944 132.104 20.7333 131.637 20.312 131.296C19.896 130.949 19.264 130.776 18.416 130.776H15.944ZM15.944 129.672H17.992C18.4293 129.672 18.808 129.624 19.128 129.528C19.448 129.432 19.712 129.299 19.92 129.128C20.1333 128.957 20.2907 128.752 20.392 128.512C20.4933 128.267 20.544 128 20.544 127.712C20.544 127.04 20.3413 126.547 19.936 126.232C19.5307 125.917 18.9013 125.76 18.048 125.76H15.944V129.672ZM30.4794 136H29.8474C29.7087 136 29.5967 135.979 29.5114 135.936C29.426 135.893 29.37 135.803 29.3434 135.664L29.1834 134.912C28.97 135.104 28.762 135.277 28.5594 135.432C28.3567 135.581 28.1434 135.709 27.9194 135.816C27.6954 135.917 27.4554 135.995 27.1994 136.048C26.9487 136.101 26.6687 136.128 26.3594 136.128C26.0447 136.128 25.7487 136.085 25.4714 136C25.1994 135.909 24.962 135.776 24.7594 135.6C24.5567 135.424 24.394 135.203 24.2714 134.936C24.154 134.664 24.0954 134.344 24.0954 133.976C24.0954 133.656 24.1834 133.349 24.3594 133.056C24.5354 132.757 24.818 132.493 25.2074 132.264C25.602 132.035 26.1167 131.848 26.7514 131.704C27.386 131.555 28.162 131.469 29.0794 131.448V130.816C29.0794 130.187 28.9434 129.712 28.6714 129.392C28.4047 129.067 28.0074 128.904 27.4794 128.904C27.1327 128.904 26.8394 128.949 26.5994 129.04C26.3647 129.125 26.1594 129.224 25.9834 129.336C25.8127 129.443 25.6634 129.541 25.5354 129.632C25.4127 129.717 25.29 129.76 25.1674 129.76C25.0714 129.76 24.986 129.736 24.9114 129.688C24.842 129.635 24.786 129.571 24.7434 129.496L24.4874 129.04C24.9354 128.608 25.418 128.285 25.9354 128.072C26.4527 127.859 27.026 127.752 27.6554 127.752C28.1087 127.752 28.5114 127.827 28.8634 127.976C29.2154 128.125 29.5114 128.333 29.7514 128.6C29.9914 128.867 30.1727 129.189 30.2954 129.568C30.418 129.947 30.4794 130.363 30.4794 130.816V136ZM26.7834 135.128C27.034 135.128 27.2634 135.104 27.4714 135.056C27.6794 135.003 27.874 134.931 28.0554 134.84C28.242 134.744 28.418 134.629 28.5834 134.496C28.754 134.363 28.9194 134.211 29.0794 134.04V132.352C28.4234 132.373 27.866 132.427 27.4074 132.512C26.9487 132.592 26.5754 132.699 26.2874 132.832C25.9994 132.965 25.7887 133.123 25.6554 133.304C25.5274 133.485 25.4634 133.688 25.4634 133.912C25.4634 134.125 25.498 134.309 25.5674 134.464C25.6367 134.619 25.73 134.747 25.8474 134.848C25.9647 134.944 26.1034 135.016 26.2634 135.064C26.4234 135.107 26.5967 135.128 26.7834 135.128ZM32.6368 136V127.896H33.4528C33.6074 127.896 33.7141 127.925 33.7728 127.984C33.8314 128.043 33.8714 128.144 33.8928 128.288L33.9888 129.552C34.2661 128.987 34.6074 128.547 35.0128 128.232C35.4234 127.912 35.9034 127.752 36.4528 127.752C36.6768 127.752 36.8794 127.779 37.0608 127.832C37.2421 127.88 37.4101 127.949 37.5648 128.04L37.3808 129.104C37.3434 129.237 37.2608 129.304 37.1328 129.304C37.0581 129.304 36.9434 129.28 36.7888 129.232C36.6341 129.179 36.4181 129.152 36.1408 129.152C35.6448 129.152 35.2288 129.296 34.8928 129.584C34.5621 129.872 34.2848 130.291 34.0608 130.84V136H32.6368ZM44.6179 129.336C44.5752 129.395 44.5325 129.44 44.4899 129.472C44.4472 129.504 44.3859 129.52 44.3059 129.52C44.2259 129.52 44.1379 129.488 44.0419 129.424C43.9512 129.355 43.8339 129.28 43.6899 129.2C43.5459 129.12 43.3699 129.048 43.1619 128.984C42.9592 128.915 42.7085 128.88 42.4099 128.88C42.0152 128.88 41.6659 128.952 41.3619 129.096C41.0579 129.235 40.8019 129.437 40.5939 129.704C40.3912 129.971 40.2365 130.293 40.1299 130.672C40.0285 131.051 39.9779 131.475 39.9779 131.944C39.9779 132.435 40.0339 132.872 40.1459 133.256C40.2579 133.635 40.4152 133.955 40.6179 134.216C40.8205 134.472 41.0659 134.669 41.3539 134.808C41.6472 134.941 41.9752 135.008 42.3379 135.008C42.6845 135.008 42.9699 134.968 43.1939 134.888C43.4179 134.803 43.6045 134.709 43.7539 134.608C43.9032 134.507 44.0259 134.416 44.1219 134.336C44.2179 134.251 44.3139 134.208 44.4099 134.208C44.5325 134.208 44.6232 134.253 44.6819 134.344L45.0819 134.864C44.7299 135.296 44.2899 135.613 43.7619 135.816C43.2339 136.013 42.6765 136.112 42.0899 136.112C41.5832 136.112 41.1112 136.019 40.6739 135.832C40.2419 135.645 39.8659 135.376 39.5459 135.024C39.2259 134.667 38.9725 134.229 38.7859 133.712C38.6045 133.195 38.5139 132.605 38.5139 131.944C38.5139 131.341 38.5965 130.784 38.7619 130.272C38.9325 129.76 39.1779 129.32 39.4979 128.952C39.8232 128.579 40.2232 128.288 40.6979 128.08C41.1725 127.872 41.7165 127.768 42.3299 127.768C42.8952 127.768 43.3965 127.861 43.8339 128.048C44.2712 128.229 44.6579 128.488 44.9939 128.824L44.6179 129.336ZM49.7666 127.768C50.252 127.768 50.7 127.851 51.1106 128.016C51.5213 128.176 51.876 128.411 52.1746 128.72C52.4733 129.024 52.7053 129.403 52.8706 129.856C53.0413 130.304 53.1266 130.816 53.1266 131.392C53.1266 131.616 53.1026 131.765 53.0546 131.84C53.0066 131.915 52.916 131.952 52.7826 131.952H47.3906C47.4013 132.464 47.4706 132.909 47.5986 133.288C47.7266 133.667 47.9026 133.984 48.1266 134.24C48.3506 134.491 48.6173 134.68 48.9266 134.808C49.236 134.931 49.5826 134.992 49.9666 134.992C50.324 134.992 50.6306 134.952 50.8866 134.872C51.148 134.787 51.372 134.696 51.5586 134.6C51.7453 134.504 51.9 134.416 52.0226 134.336C52.1506 134.251 52.26 134.208 52.3506 134.208C52.468 134.208 52.5586 134.253 52.6226 134.344L53.0226 134.864C52.8466 135.077 52.636 135.264 52.3906 135.424C52.1453 135.579 51.8813 135.707 51.5986 135.808C51.3213 135.909 51.0333 135.984 50.7346 136.032C50.436 136.085 50.14 136.112 49.8466 136.112C49.2866 136.112 48.7693 136.019 48.2946 135.832C47.8253 135.64 47.4173 135.363 47.0706 135C46.7293 134.632 46.4626 134.179 46.2706 133.64C46.0786 133.101 45.9826 132.483 45.9826 131.784C45.9826 131.219 46.068 130.691 46.2386 130.2C46.4146 129.709 46.6653 129.285 46.9906 128.928C47.316 128.565 47.7133 128.283 48.1826 128.08C48.652 127.872 49.18 127.768 49.7666 127.768ZM49.7986 128.816C49.1106 128.816 48.5693 129.016 48.1746 129.416C47.78 129.811 47.5346 130.36 47.4386 131.064H51.8466C51.8466 130.733 51.8013 130.432 51.7106 130.16C51.62 129.883 51.4866 129.645 51.3106 129.448C51.1346 129.245 50.9186 129.091 50.6626 128.984C50.412 128.872 50.124 128.816 49.7986 128.816ZM56.5333 124.216V136H55.1093V124.216H56.5333ZM62.323 127.768C62.915 127.768 63.4483 127.867 63.923 128.064C64.403 128.261 64.8083 128.541 65.139 128.904C65.475 129.267 65.731 129.707 65.907 130.224C66.0883 130.736 66.179 131.309 66.179 131.944C66.179 132.584 66.0883 133.16 65.907 133.672C65.731 134.184 65.475 134.621 65.139 134.984C64.8083 135.347 64.403 135.627 63.923 135.824C63.4483 136.016 62.915 136.112 62.323 136.112C61.731 136.112 61.195 136.016 60.715 135.824C60.2403 135.627 59.835 135.347 59.499 134.984C59.163 134.621 58.9043 134.184 58.723 133.672C58.5417 133.16 58.451 132.584 58.451 131.944C58.451 131.309 58.5417 130.736 58.723 130.224C58.9043 129.707 59.163 129.267 59.499 128.904C59.835 128.541 60.2403 128.261 60.715 128.064C61.195 127.867 61.731 127.768 62.323 127.768ZM62.323 135C63.123 135 63.7203 134.733 64.115 134.2C64.5097 133.661 64.707 132.912 64.707 131.952C64.707 130.987 64.5097 130.235 64.115 129.696C63.7203 129.157 63.123 128.888 62.323 128.888C61.9177 128.888 61.5657 128.957 61.267 129.096C60.9683 129.235 60.7177 129.435 60.515 129.696C60.3177 129.957 60.1683 130.28 60.067 130.664C59.971 131.043 59.923 131.472 59.923 131.952C59.923 132.432 59.971 132.861 60.067 133.24C60.1683 133.619 60.3177 133.939 60.515 134.2C60.7177 134.456 60.9683 134.653 61.267 134.792C61.5657 134.931 61.9177 135 62.323 135ZM67.9336 136V127.896H68.7816C68.9843 127.896 69.1123 127.995 69.1656 128.192L69.2776 129.072C69.6296 128.683 70.0216 128.368 70.4536 128.128C70.891 127.888 71.395 127.768 71.9656 127.768C72.4083 127.768 72.7976 127.843 73.1336 127.992C73.475 128.136 73.7576 128.344 73.9816 128.616C74.211 128.883 74.3843 129.205 74.5016 129.584C74.619 129.963 74.6776 130.381 74.6776 130.84V136H73.2536V130.84C73.2536 130.227 73.1123 129.752 72.8296 129.416C72.5523 129.075 72.1256 128.904 71.5496 128.904C71.1283 128.904 70.7336 129.005 70.3656 129.208C70.003 129.411 69.667 129.685 69.3576 130.032V136H67.9336ZM82.7763 136H82.1443C82.0056 136 81.8936 135.979 81.8083 135.936C81.7229 135.893 81.6669 135.803 81.6403 135.664L81.4803 134.912C81.2669 135.104 81.0589 135.277 80.8563 135.432C80.6536 135.581 80.4403 135.709 80.2163 135.816C79.9923 135.917 79.7523 135.995 79.4963 136.048C79.2456 136.101 78.9656 136.128 78.6563 136.128C78.3416 136.128 78.0456 136.085 77.7682 136C77.4963 135.909 77.2589 135.776 77.0563 135.6C76.8536 135.424 76.6909 135.203 76.5683 134.936C76.4509 134.664 76.3923 134.344 76.3923 133.976C76.3923 133.656 76.4803 133.349 76.6562 133.056C76.8323 132.757 77.1149 132.493 77.5043 132.264C77.8989 132.035 78.4136 131.848 79.0483 131.704C79.6829 131.555 80.4589 131.469 81.3763 131.448V130.816C81.3763 130.187 81.2403 129.712 80.9683 129.392C80.7016 129.067 80.3043 128.904 79.7763 128.904C79.4296 128.904 79.1363 128.949 78.8963 129.04C78.6616 129.125 78.4563 129.224 78.2803 129.336C78.1096 129.443 77.9603 129.541 77.8323 129.632C77.7096 129.717 77.5869 129.76 77.4643 129.76C77.3683 129.76 77.2829 129.736 77.2083 129.688C77.1389 129.635 77.0829 129.571 77.0403 129.496L76.7843 129.04C77.2323 128.608 77.7149 128.285 78.2323 128.072C78.7496 127.859 79.3229 127.752 79.9523 127.752C80.4056 127.752 80.8083 127.827 81.1603 127.976C81.5123 128.125 81.8083 128.333 82.0483 128.6C82.2883 128.867 82.4696 129.189 82.5923 129.568C82.7149 129.947 82.7763 130.363 82.7763 130.816V136ZM79.0803 135.128C79.3309 135.128 79.5603 135.104 79.7682 135.056C79.9763 135.003 80.1709 134.931 80.3523 134.84C80.5389 134.744 80.7149 134.629 80.8803 134.496C81.0509 134.363 81.2163 134.211 81.3763 134.04V132.352C80.7203 132.373 80.1629 132.427 79.7043 132.512C79.2456 132.592 78.8723 132.699 78.5843 132.832C78.2963 132.965 78.0856 133.123 77.9523 133.304C77.8243 133.485 77.7603 133.688 77.7603 133.912C77.7603 134.125 77.7949 134.309 77.8643 134.464C77.9336 134.619 78.0269 134.747 78.1443 134.848C78.2616 134.944 78.4003 135.016 78.5603 135.064C78.7203 135.107 78.8936 135.128 79.0803 135.128ZM14.392 174V162.536H18.048C18.752 162.536 19.3573 162.605 19.864 162.744C20.376 162.883 20.7947 163.08 21.12 163.336C21.4507 163.592 21.6933 163.907 21.848 164.28C22.008 164.648 22.088 165.064 22.088 165.528C22.088 165.811 22.0427 166.083 21.952 166.344C21.8667 166.605 21.7333 166.848 21.552 167.072C21.376 167.296 21.152 167.496 20.88 167.672C20.6133 167.848 20.2987 167.992 19.936 168.104C20.7733 168.269 21.4053 168.571 21.832 169.008C22.2587 169.445 22.472 170.021 22.472 170.736C22.472 171.221 22.3813 171.664 22.2 172.064C22.024 172.464 21.7627 172.808 21.416 173.096C21.0747 173.384 20.6533 173.608 20.152 173.768C19.656 173.923 19.088 174 18.448 174H14.392ZM15.944 168.776V172.768H18.424C18.8667 172.768 19.2453 172.717 19.56 172.616C19.88 172.515 20.1413 172.373 20.344 172.192C20.552 172.005 20.704 171.787 20.8 171.536C20.896 171.28 20.944 171 20.944 170.696C20.944 170.104 20.7333 169.637 20.312 169.296C19.896 168.949 19.264 168.776 18.416 168.776H15.944ZM15.944 167.672H17.992C18.4293 167.672 18.808 167.624 19.128 167.528C19.448 167.432 19.712 167.299 19.92 167.128C20.1333 166.957 20.2907 166.752 20.392 166.512C20.4933 166.267 20.544 166 20.544 165.712C20.544 165.04 20.3413 164.547 19.936 164.232C19.5307 163.917 18.9013 163.76 18.048 163.76H15.944V167.672ZM27.7354 165.768C28.2207 165.768 28.6687 165.851 29.0794 166.016C29.49 166.176 29.8447 166.411 30.1434 166.72C30.442 167.024 30.674 167.403 30.8394 167.856C31.01 168.304 31.0954 168.816 31.0954 169.392C31.0954 169.616 31.0714 169.765 31.0234 169.84C30.9754 169.915 30.8847 169.952 30.7514 169.952H25.3594C25.37 170.464 25.4394 170.909 25.5674 171.288C25.6954 171.667 25.8714 171.984 26.0954 172.24C26.3194 172.491 26.586 172.68 26.8954 172.808C27.2047 172.931 27.5514 172.992 27.9354 172.992C28.2927 172.992 28.5994 172.952 28.8554 172.872C29.1167 172.787 29.3407 172.696 29.5274 172.6C29.714 172.504 29.8687 172.416 29.9914 172.336C30.1194 172.251 30.2287 172.208 30.3194 172.208C30.4367 172.208 30.5274 172.253 30.5914 172.344L30.9914 172.864C30.8154 173.077 30.6047 173.264 30.3594 173.424C30.114 173.579 29.85 173.707 29.5674 173.808C29.29 173.909 29.002 173.984 28.7034 174.032C28.4047 174.085 28.1087 174.112 27.8154 174.112C27.2554 174.112 26.738 174.019 26.2634 173.832C25.794 173.64 25.386 173.363 25.0394 173C24.698 172.632 24.4314 172.179 24.2394 171.64C24.0474 171.101 23.9514 170.483 23.9514 169.784C23.9514 169.219 24.0367 168.691 24.2074 168.2C24.3834 167.709 24.634 167.285 24.9594 166.928C25.2847 166.565 25.682 166.283 26.1514 166.08C26.6207 165.872 27.1487 165.768 27.7354 165.768ZM27.7674 166.816C27.0794 166.816 26.538 167.016 26.1434 167.416C25.7487 167.811 25.5034 168.36 25.4074 169.064H29.8154C29.8154 168.733 29.77 168.432 29.6794 168.16C29.5887 167.883 29.4554 167.645 29.2794 167.448C29.1034 167.245 28.8874 167.091 28.6314 166.984C28.3807 166.872 28.0927 166.816 27.7674 166.816ZM32.918 174V165.896H33.734C33.8887 165.896 33.9953 165.925 34.054 165.984C34.1127 166.043 34.1527 166.144 34.174 166.288L34.27 167.552C34.5473 166.987 34.8887 166.547 35.294 166.232C35.7047 165.912 36.1847 165.752 36.734 165.752C36.958 165.752 37.1607 165.779 37.342 165.832C37.5233 165.88 37.6913 165.949 37.846 166.04L37.662 167.104C37.6247 167.237 37.542 167.304 37.414 167.304C37.3393 167.304 37.2247 167.28 37.07 167.232C36.9153 167.179 36.6993 167.152 36.422 167.152C35.926 167.152 35.51 167.296 35.174 167.584C34.8433 167.872 34.566 168.291 34.342 168.84V174H32.918ZM40.9551 162.216V174H39.5311V162.216H40.9551ZM45.0489 165.896V174H43.6249V165.896H45.0489ZM45.3689 163.352C45.3689 163.491 45.3395 163.621 45.2809 163.744C45.2275 163.861 45.1529 163.968 45.0569 164.064C44.9662 164.155 44.8595 164.227 44.7369 164.28C44.6142 164.333 44.4835 164.36 44.3449 164.36C44.2062 164.36 44.0755 164.333 43.9529 164.28C43.8355 164.227 43.7289 164.155 43.6329 164.064C43.5422 163.968 43.4702 163.861 43.4169 163.744C43.3635 163.621 43.3369 163.491 43.3369 163.352C43.3369 163.213 43.3635 163.083 43.4169 162.96C43.4702 162.832 43.5422 162.723 43.6329 162.632C43.7289 162.536 43.8355 162.461 43.9529 162.408C44.0755 162.355 44.2062 162.328 44.3449 162.328C44.4835 162.328 44.6142 162.355 44.7369 162.408C44.8595 162.461 44.9662 162.536 45.0569 162.632C45.1529 162.723 45.2275 162.832 45.2809 162.96C45.3395 163.083 45.3689 163.213 45.3689 163.352ZM47.5586 174V165.896H48.4066C48.6093 165.896 48.7373 165.995 48.7906 166.192L48.9026 167.072C49.2546 166.683 49.6466 166.368 50.0786 166.128C50.516 165.888 51.02 165.768 51.5906 165.768C52.0333 165.768 52.4226 165.843 52.7586 165.992C53.1 166.136 53.3826 166.344 53.6066 166.616C53.836 166.883 54.0093 167.205 54.1266 167.584C54.244 167.963 54.3026 168.381 54.3026 168.84V174H52.8786V168.84C52.8786 168.227 52.7373 167.752 52.4546 167.416C52.1773 167.075 51.7506 166.904 51.1746 166.904C50.7533 166.904 50.3586 167.005 49.9906 167.208C49.628 167.411 49.292 167.685 48.9826 168.032V174H47.5586ZM15.944 210.696H20.904V212H14.392V200.536H15.944V210.696ZM23.9708 203.896V212H22.5468V203.896H23.9708ZM24.2908 201.352C24.2908 201.491 24.2614 201.621 24.2028 201.744C24.1494 201.861 24.0748 201.968 23.9788 202.064C23.8881 202.155 23.7814 202.227 23.6588 202.28C23.5361 202.333 23.4054 202.36 23.2668 202.36C23.1281 202.36 22.9974 202.333 22.8748 202.28C22.7574 202.227 22.6508 202.155 22.5548 202.064C22.4641 201.968 22.3921 201.861 22.3388 201.744C22.2854 201.621 22.2588 201.491 22.2588 201.352C22.2588 201.213 22.2854 201.083 22.3388 200.96C22.3921 200.832 22.4641 200.723 22.5548 200.632C22.6508 200.536 22.7574 200.461 22.8748 200.408C22.9974 200.355 23.1281 200.328 23.2668 200.328C23.4054 200.328 23.5361 200.355 23.6588 200.408C23.7814 200.461 23.8881 200.536 23.9788 200.632C24.0748 200.723 24.1494 200.832 24.2028 200.96C24.2614 201.083 24.2908 201.213 24.2908 201.352ZM31.1205 205.232C31.0565 205.349 30.9578 205.408 30.8245 205.408C30.7445 205.408 30.6538 205.379 30.5525 205.32C30.4512 205.261 30.3258 205.197 30.1765 205.128C30.0325 205.053 29.8592 204.987 29.6565 204.928C29.4538 204.864 29.2138 204.832 28.9365 204.832C28.6965 204.832 28.4805 204.864 28.2885 204.928C28.0965 204.987 27.9312 205.069 27.7925 205.176C27.6592 205.283 27.5552 205.408 27.4805 205.552C27.4112 205.691 27.3765 205.843 27.3765 206.008C27.3765 206.216 27.4352 206.389 27.5525 206.528C27.6752 206.667 27.8352 206.787 28.0325 206.888C28.2298 206.989 28.4538 207.08 28.7045 207.16C28.9552 207.235 29.2112 207.317 29.4725 207.408C29.7392 207.493 29.9978 207.589 30.2485 207.696C30.4992 207.803 30.7232 207.936 30.9205 208.096C31.1178 208.256 31.2752 208.453 31.3925 208.688C31.5152 208.917 31.5765 209.195 31.5765 209.52C31.5765 209.893 31.5098 210.24 31.3765 210.56C31.2432 210.875 31.0458 211.149 30.7845 211.384C30.5232 211.613 30.2032 211.795 29.8245 211.928C29.4458 212.061 29.0085 212.128 28.5125 212.128C27.9472 212.128 27.4352 212.037 26.9765 211.856C26.5178 211.669 26.1285 211.432 25.8085 211.144L26.1445 210.6C26.1872 210.531 26.2378 210.477 26.2965 210.44C26.3552 210.403 26.4325 210.384 26.5285 210.384C26.6245 210.384 26.7258 210.421 26.8325 210.496C26.9392 210.571 27.0672 210.653 27.2165 210.744C27.3712 210.835 27.5552 210.917 27.7685 210.992C27.9872 211.067 28.2592 211.104 28.5845 211.104C28.8618 211.104 29.1045 211.069 29.3125 211C29.5205 210.925 29.6938 210.827 29.8325 210.704C29.9712 210.581 30.0725 210.44 30.1365 210.28C30.2058 210.12 30.2405 209.949 30.2405 209.768C30.2405 209.544 30.1792 209.36 30.0565 209.216C29.9392 209.067 29.7818 208.941 29.5845 208.84C29.3872 208.733 29.1605 208.643 28.9045 208.568C28.6538 208.488 28.3952 208.405 28.1285 208.32C27.8672 208.235 27.6085 208.139 27.3525 208.032C27.1018 207.92 26.8778 207.781 26.6805 207.616C26.4832 207.451 26.3232 207.248 26.2005 207.008C26.0832 206.763 26.0245 206.467 26.0245 206.12C26.0245 205.811 26.0885 205.515 26.2165 205.232C26.3445 204.944 26.5312 204.693 26.7765 204.48C27.0218 204.261 27.3232 204.088 27.6805 203.96C28.0378 203.832 28.4458 203.768 28.9045 203.768C29.4378 203.768 29.9152 203.853 30.3365 204.024C30.7632 204.189 31.1312 204.419 31.4405 204.712L31.1205 205.232ZM33.466 212V200.216H34.898V205.064C35.234 204.675 35.618 204.363 36.05 204.128C36.4873 203.888 36.986 203.768 37.546 203.768C38.0153 203.768 38.4393 203.856 38.818 204.032C39.1967 204.208 39.5193 204.472 39.786 204.824C40.0527 205.171 40.258 205.603 40.402 206.12C40.546 206.632 40.618 207.224 40.618 207.896C40.618 208.493 40.538 209.051 40.378 209.568C40.218 210.08 39.986 210.525 39.682 210.904C39.3833 211.277 39.0153 211.573 38.578 211.792C38.146 212.005 37.658 212.112 37.114 212.112C36.5913 212.112 36.146 212.011 35.778 211.808C35.4153 211.605 35.098 211.323 34.826 210.96L34.754 211.696C34.7113 211.899 34.5887 212 34.386 212H33.466ZM37.082 204.904C36.618 204.904 36.21 205.011 35.858 205.224C35.5113 205.437 35.1913 205.739 34.898 206.128V210.048C35.154 210.4 35.4367 210.648 35.746 210.792C36.0607 210.936 36.41 211.008 36.794 211.008C37.5513 211.008 38.1327 210.739 38.538 210.2C38.9433 209.661 39.146 208.893 39.146 207.896C39.146 207.368 39.098 206.915 39.002 206.536C38.9113 206.157 38.778 205.848 38.602 205.608C38.426 205.363 38.21 205.184 37.954 205.072C37.698 204.96 37.4073 204.904 37.082 204.904ZM45.6355 203.768C46.2275 203.768 46.7608 203.867 47.2355 204.064C47.7155 204.261 48.1208 204.541 48.4515 204.904C48.7875 205.267 49.0435 205.707 49.2195 206.224C49.4008 206.736 49.4915 207.309 49.4915 207.944C49.4915 208.584 49.4008 209.16 49.2195 209.672C49.0435 210.184 48.7875 210.621 48.4515 210.984C48.1208 211.347 47.7155 211.627 47.2355 211.824C46.7608 212.016 46.2275 212.112 45.6355 212.112C45.0435 212.112 44.5075 212.016 44.0275 211.824C43.5528 211.627 43.1475 211.347 42.8115 210.984C42.4755 210.621 42.2168 210.184 42.0355 209.672C41.8542 209.16 41.7635 208.584 41.7635 207.944C41.7635 207.309 41.8542 206.736 42.0355 206.224C42.2168 205.707 42.4755 205.267 42.8115 204.904C43.1475 204.541 43.5528 204.261 44.0275 204.064C44.5075 203.867 45.0435 203.768 45.6355 203.768ZM45.6355 211C46.4355 211 47.0328 210.733 47.4275 210.2C47.8222 209.661 48.0195 208.912 48.0195 207.952C48.0195 206.987 47.8222 206.235 47.4275 205.696C47.0328 205.157 46.4355 204.888 45.6355 204.888C45.2302 204.888 44.8782 204.957 44.5795 205.096C44.2808 205.235 44.0302 205.435 43.8275 205.696C43.6302 205.957 43.4808 206.28 43.3795 206.664C43.2835 207.043 43.2355 207.472 43.2355 207.952C43.2355 208.432 43.2835 208.861 43.3795 209.24C43.4808 209.619 43.6302 209.939 43.8275 210.2C44.0302 210.456 44.2808 210.653 44.5795 210.792C44.8782 210.931 45.2302 211 45.6355 211ZM57.1981 212H56.5661C56.4275 212 56.3155 211.979 56.2301 211.936C56.1448 211.893 56.0888 211.803 56.0621 211.664L55.9021 210.912C55.6888 211.104 55.4808 211.277 55.2781 211.432C55.0755 211.581 54.8621 211.709 54.6381 211.816C54.4141 211.917 54.1741 211.995 53.9181 212.048C53.6675 212.101 53.3875 212.128 53.0781 212.128C52.7635 212.128 52.4675 212.085 52.1901 212C51.9181 211.909 51.6808 211.776 51.4781 211.6C51.2755 211.424 51.1128 211.203 50.9901 210.936C50.8728 210.664 50.8141 210.344 50.8141 209.976C50.8141 209.656 50.9021 209.349 51.0781 209.056C51.2541 208.757 51.5368 208.493 51.9261 208.264C52.3208 208.035 52.8355 207.848 53.4701 207.704C54.1048 207.555 54.8808 207.469 55.7981 207.448V206.816C55.7981 206.187 55.6621 205.712 55.3901 205.392C55.1235 205.067 54.7261 204.904 54.1981 204.904C53.8515 204.904 53.5581 204.949 53.3181 205.04C53.0835 205.125 52.8781 205.224 52.7021 205.336C52.5315 205.443 52.3821 205.541 52.2541 205.632C52.1315 205.717 52.0088 205.76 51.8861 205.76C51.7901 205.76 51.7048 205.736 51.6301 205.688C51.5608 205.635 51.5048 205.571 51.4621 205.496L51.2061 205.04C51.6541 204.608 52.1368 204.285 52.6541 204.072C53.1715 203.859 53.7448 203.752 54.3741 203.752C54.8275 203.752 55.2301 203.827 55.5821 203.976C55.9341 204.125 56.2301 204.333 56.4701 204.6C56.7101 204.867 56.8915 205.189 57.0141 205.568C57.1368 205.947 57.1981 206.363 57.1981 206.816V212ZM53.5021 211.128C53.7528 211.128 53.9821 211.104 54.1901 211.056C54.3981 211.003 54.5928 210.931 54.7741 210.84C54.9608 210.744 55.1368 210.629 55.3021 210.496C55.4728 210.363 55.6381 210.211 55.7981 210.04V208.352C55.1421 208.373 54.5848 208.427 54.1261 208.512C53.6675 208.592 53.2941 208.699 53.0061 208.832C52.7181 208.965 52.5075 209.123 52.3741 209.304C52.2461 209.485 52.1821 209.688 52.1821 209.912C52.1821 210.125 52.2168 210.309 52.2861 210.464C52.3555 210.619 52.4488 210.747 52.5661 210.848C52.6835 210.944 52.8221 211.016 52.9821 211.064C53.1421 211.107 53.3155 211.128 53.5021 211.128ZM20.264 240.328C20.216 240.408 20.1653 240.469 20.112 240.512C20.0587 240.549 19.9893 240.568 19.904 240.568C19.8133 240.568 19.7067 240.523 19.584 240.432C19.4667 240.341 19.3147 240.243 19.128 240.136C18.9467 240.024 18.7253 239.923 18.464 239.832C18.208 239.741 17.896 239.696 17.528 239.696C17.1813 239.696 16.8747 239.744 16.608 239.84C16.3413 239.931 16.1173 240.056 15.936 240.216C15.76 240.376 15.6267 240.565 15.536 240.784C15.4453 240.997 15.4 241.229 15.4 241.48C15.4 241.8 15.4773 242.067 15.632 242.28C15.792 242.488 16 242.667 16.256 242.816C16.5173 242.965 16.8107 243.096 17.136 243.208C17.4667 243.315 17.8027 243.427 18.144 243.544C18.4907 243.661 18.8267 243.795 19.152 243.944C19.4827 244.088 19.776 244.272 20.032 244.496C20.2933 244.72 20.5013 244.995 20.656 245.32C20.816 245.645 20.896 246.045 20.896 246.52C20.896 247.021 20.8107 247.493 20.64 247.936C20.4693 248.373 20.2187 248.755 19.888 249.08C19.5627 249.405 19.16 249.661 18.68 249.848C18.2053 250.035 17.664 250.128 17.056 250.128C16.3147 250.128 15.6373 249.995 15.024 249.728C14.416 249.456 13.896 249.091 13.464 248.632L13.912 247.896C13.9547 247.837 14.0053 247.789 14.064 247.752C14.128 247.709 14.1973 247.688 14.272 247.688C14.384 247.688 14.512 247.749 14.656 247.872C14.8 247.989 14.9787 248.12 15.192 248.264C15.4107 248.408 15.672 248.541 15.976 248.664C16.2853 248.781 16.6613 248.84 17.104 248.84C17.472 248.84 17.8 248.789 18.088 248.688C18.376 248.587 18.6187 248.445 18.816 248.264C19.0187 248.077 19.1733 247.856 19.28 247.6C19.3867 247.344 19.44 247.059 19.44 246.744C19.44 246.397 19.36 246.115 19.2 245.896C19.0453 245.672 18.84 245.485 18.584 245.336C18.328 245.187 18.0347 245.061 17.704 244.96C17.3787 244.853 17.0427 244.747 16.696 244.64C16.3547 244.528 16.0187 244.4 15.688 244.256C15.3627 244.112 15.072 243.925 14.816 243.696C14.56 243.467 14.352 243.181 14.192 242.84C14.0373 242.493 13.96 242.067 13.96 241.56C13.96 241.155 14.0373 240.763 14.192 240.384C14.352 240.005 14.5813 239.669 14.88 239.376C15.1787 239.083 15.5467 238.848 15.984 238.672C16.4267 238.496 16.9333 238.408 17.504 238.408C18.144 238.408 18.728 238.509 19.256 238.712C19.784 238.915 20.2453 239.208 20.64 239.592L20.264 240.328ZM25.1084 250.128C24.4684 250.128 23.975 249.949 23.6284 249.592C23.287 249.235 23.1164 248.72 23.1164 248.048V243.088H22.1404C22.055 243.088 21.983 243.064 21.9244 243.016C21.8657 242.963 21.8364 242.883 21.8364 242.776V242.208L23.1644 242.04L23.4924 239.536C23.503 239.456 23.5377 239.392 23.5964 239.344C23.655 239.291 23.7297 239.264 23.8204 239.264H24.5404V242.056H26.8604V243.088H24.5404V247.952C24.5404 248.293 24.623 248.547 24.7884 248.712C24.9537 248.877 25.167 248.96 25.4284 248.96C25.5777 248.96 25.7057 248.941 25.8124 248.904C25.9244 248.861 26.0204 248.816 26.1004 248.768C26.1804 248.72 26.247 248.677 26.3004 248.64C26.359 248.597 26.4097 248.576 26.4524 248.576C26.527 248.576 26.5937 248.621 26.6524 248.712L27.0684 249.392C26.823 249.621 26.527 249.803 26.1804 249.936C25.8337 250.064 25.4764 250.128 25.1084 250.128ZM28.1571 249.12C28.1571 248.981 28.1811 248.851 28.2291 248.728C28.2825 248.605 28.3518 248.499 28.4371 248.408C28.5278 248.317 28.6345 248.245 28.7571 248.192C28.8798 248.139 29.0105 248.112 29.1491 248.112C29.2878 248.112 29.4185 248.139 29.5411 248.192C29.6638 248.245 29.7705 248.317 29.8611 248.408C29.9518 248.499 30.0211 248.605 30.0691 248.728C30.1225 248.851 30.1491 248.981 30.1491 249.12C30.1491 249.264 30.1225 249.397 30.0691 249.52C30.0211 249.637 29.9518 249.741 29.8611 249.832C29.7705 249.923 29.6638 249.992 29.5411 250.04C29.4185 250.093 29.2878 250.12 29.1491 250.12C29.0105 250.12 28.8798 250.093 28.7571 250.04C28.6345 249.992 28.5278 249.923 28.4371 249.832C28.3518 249.741 28.2825 249.637 28.2291 249.52C28.1811 249.397 28.1571 249.264 28.1571 249.12ZM37.0335 245.712V250H35.4895V238.536H38.8735C39.5988 238.536 40.2282 238.621 40.7615 238.792C41.3002 238.957 41.7455 239.195 42.0975 239.504C42.4495 239.813 42.7108 240.187 42.8815 240.624C43.0575 241.061 43.1455 241.549 43.1455 242.088C43.1455 242.621 43.0522 243.109 42.8655 243.552C42.6788 243.995 42.4042 244.376 42.0415 244.696C41.6842 245.016 41.2388 245.267 40.7055 245.448C40.1722 245.624 39.5615 245.712 38.8735 245.712H37.0335ZM37.0335 244.48H38.8735C39.3162 244.48 39.7055 244.421 40.0415 244.304C40.3828 244.187 40.6682 244.024 40.8975 243.816C41.1268 243.603 41.3002 243.349 41.4175 243.056C41.5348 242.763 41.5935 242.44 41.5935 242.088C41.5935 241.357 41.3668 240.787 40.9135 240.376C40.4655 239.965 39.7855 239.76 38.8735 239.76H37.0335V244.48ZM47.8604 241.768C48.3457 241.768 48.7937 241.851 49.2044 242.016C49.615 242.176 49.9697 242.411 50.2684 242.72C50.567 243.024 50.799 243.403 50.9644 243.856C51.135 244.304 51.2204 244.816 51.2204 245.392C51.2204 245.616 51.1964 245.765 51.1484 245.84C51.1004 245.915 51.0097 245.952 50.8764 245.952H45.4844C45.495 246.464 45.5644 246.909 45.6924 247.288C45.8204 247.667 45.9964 247.984 46.2204 248.24C46.4444 248.491 46.711 248.68 47.0204 248.808C47.3297 248.931 47.6764 248.992 48.0604 248.992C48.4177 248.992 48.7244 248.952 48.9804 248.872C49.2417 248.787 49.4657 248.696 49.6524 248.6C49.839 248.504 49.9937 248.416 50.1164 248.336C50.2444 248.251 50.3537 248.208 50.4444 248.208C50.5617 248.208 50.6524 248.253 50.7164 248.344L51.1164 248.864C50.9404 249.077 50.7297 249.264 50.4844 249.424C50.239 249.579 49.975 249.707 49.6924 249.808C49.415 249.909 49.127 249.984 48.8284 250.032C48.5297 250.085 48.2337 250.112 47.9404 250.112C47.3804 250.112 46.863 250.019 46.3884 249.832C45.919 249.64 45.511 249.363 45.1644 249C44.823 248.632 44.5564 248.179 44.3644 247.64C44.1724 247.101 44.0764 246.483 44.0764 245.784C44.0764 245.219 44.1617 244.691 44.3324 244.2C44.5084 243.709 44.759 243.285 45.0844 242.928C45.4097 242.565 45.807 242.283 46.2764 242.08C46.7457 241.872 47.2737 241.768 47.8604 241.768ZM47.8924 242.816C47.2044 242.816 46.663 243.016 46.2684 243.416C45.8737 243.811 45.6284 244.36 45.5324 245.064H49.9404C49.9404 244.733 49.895 244.432 49.8044 244.16C49.7137 243.883 49.5804 243.645 49.4044 243.448C49.2284 243.245 49.0124 243.091 48.7564 242.984C48.5057 242.872 48.2177 242.816 47.8924 242.816ZM55.499 250.128C54.859 250.128 54.3657 249.949 54.019 249.592C53.6777 249.235 53.507 248.72 53.507 248.048V243.088H52.531C52.4457 243.088 52.3737 243.064 52.315 243.016C52.2563 242.963 52.227 242.883 52.227 242.776V242.208L53.555 242.04L53.883 239.536C53.8937 239.456 53.9283 239.392 53.987 239.344C54.0457 239.291 54.1203 239.264 54.211 239.264H54.931V242.056H57.251V243.088H54.931V247.952C54.931 248.293 55.0137 248.547 55.179 248.712C55.3443 248.877 55.5577 248.96 55.819 248.96C55.9683 248.96 56.0963 248.941 56.203 248.904C56.315 248.861 56.411 248.816 56.491 248.768C56.571 248.72 56.6377 248.677 56.691 248.64C56.7497 248.597 56.8003 248.576 56.843 248.576C56.9177 248.576 56.9843 248.621 57.043 248.712L57.459 249.392C57.2137 249.621 56.9177 249.803 56.571 249.936C56.2243 250.064 55.867 250.128 55.499 250.128ZM62.2198 241.768C62.7051 241.768 63.1531 241.851 63.5638 242.016C63.9744 242.176 64.3291 242.411 64.6278 242.72C64.9264 243.024 65.1584 243.403 65.3238 243.856C65.4944 244.304 65.5798 244.816 65.5798 245.392C65.5798 245.616 65.5558 245.765 65.5078 245.84C65.4598 245.915 65.3691 245.952 65.2358 245.952H59.8438C59.8544 246.464 59.9238 246.909 60.0518 247.288C60.1798 247.667 60.3558 247.984 60.5798 248.24C60.8038 248.491 61.0704 248.68 61.3798 248.808C61.6891 248.931 62.0358 248.992 62.4198 248.992C62.7771 248.992 63.0838 248.952 63.3398 248.872C63.6011 248.787 63.8251 248.696 64.0118 248.6C64.1984 248.504 64.3531 248.416 64.4758 248.336C64.6038 248.251 64.7131 248.208 64.8038 248.208C64.9211 248.208 65.0118 248.253 65.0758 248.344L65.4758 248.864C65.2998 249.077 65.0891 249.264 64.8438 249.424C64.5984 249.579 64.3344 249.707 64.0518 249.808C63.7744 249.909 63.4864 249.984 63.1878 250.032C62.8891 250.085 62.5931 250.112 62.2998 250.112C61.7398 250.112 61.2224 250.019 60.7478 249.832C60.2784 249.64 59.8704 249.363 59.5238 249C59.1824 248.632 58.9158 248.179 58.7238 247.64C58.5318 247.101 58.4358 246.483 58.4358 245.784C58.4358 245.219 58.5211 244.691 58.6918 244.2C58.8678 243.709 59.1184 243.285 59.4438 242.928C59.7691 242.565 60.1664 242.283 60.6358 242.08C61.1051 241.872 61.6331 241.768 62.2198 241.768ZM62.2517 242.816C61.5638 242.816 61.0224 243.016 60.6278 243.416C60.2331 243.811 59.9878 244.36 59.8918 245.064H64.2998C64.2998 244.733 64.2544 244.432 64.1638 244.16C64.0731 243.883 63.9398 243.645 63.7638 243.448C63.5878 243.245 63.3718 243.091 63.1158 242.984C62.8651 242.872 62.5771 242.816 62.2517 242.816ZM67.4024 250V241.896H68.2184C68.373 241.896 68.4797 241.925 68.5384 241.984C68.597 242.043 68.637 242.144 68.6584 242.288L68.7544 243.552C69.0317 242.987 69.373 242.547 69.7784 242.232C70.189 241.912 70.669 241.752 71.2184 241.752C71.4424 241.752 71.645 241.779 71.8264 241.832C72.0077 241.88 72.1757 241.949 72.3304 242.04L72.1464 243.104C72.109 243.237 72.0264 243.304 71.8984 243.304C71.8237 243.304 71.709 243.28 71.5544 243.232C71.3997 243.179 71.1837 243.152 70.9064 243.152C70.4104 243.152 69.9944 243.296 69.6584 243.584C69.3277 243.872 69.0504 244.291 68.8264 244.84V250H67.4024ZM78.4955 243.232C78.4315 243.349 78.3328 243.408 78.1995 243.408C78.1195 243.408 78.0288 243.379 77.9275 243.32C77.8262 243.261 77.7008 243.197 77.5515 243.128C77.4075 243.053 77.2342 242.987 77.0315 242.928C76.8288 242.864 76.5888 242.832 76.3115 242.832C76.0715 242.832 75.8555 242.864 75.6635 242.928C75.4715 242.987 75.3062 243.069 75.1675 243.176C75.0342 243.283 74.9302 243.408 74.8555 243.552C74.7862 243.691 74.7515 243.843 74.7515 244.008C74.7515 244.216 74.8102 244.389 74.9275 244.528C75.0502 244.667 75.2102 244.787 75.4075 244.888C75.6048 244.989 75.8288 245.08 76.0795 245.16C76.3302 245.235 76.5862 245.317 76.8475 245.408C77.1142 245.493 77.3728 245.589 77.6235 245.696C77.8742 245.803 78.0982 245.936 78.2955 246.096C78.4928 246.256 78.6502 246.453 78.7675 246.688C78.8902 246.917 78.9515 247.195 78.9515 247.52C78.9515 247.893 78.8848 248.24 78.7515 248.56C78.6182 248.875 78.4208 249.149 78.1595 249.384C77.8982 249.613 77.5782 249.795 77.1995 249.928C76.8208 250.061 76.3835 250.128 75.8875 250.128C75.3222 250.128 74.8102 250.037 74.3515 249.856C73.8928 249.669 73.5035 249.432 73.1835 249.144L73.5195 248.6C73.5622 248.531 73.6128 248.477 73.6715 248.44C73.7302 248.403 73.8075 248.384 73.9035 248.384C73.9995 248.384 74.1008 248.421 74.2075 248.496C74.3142 248.571 74.4422 248.653 74.5915 248.744C74.7462 248.835 74.9302 248.917 75.1435 248.992C75.3622 249.067 75.6342 249.104 75.9595 249.104C76.2368 249.104 76.4795 249.069 76.6875 249C76.8955 248.925 77.0688 248.827 77.2075 248.704C77.3462 248.581 77.4475 248.44 77.5115 248.28C77.5808 248.12 77.6155 247.949 77.6155 247.768C77.6155 247.544 77.5542 247.36 77.4315 247.216C77.3142 247.067 77.1568 246.941 76.9595 246.84C76.7622 246.733 76.5355 246.643 76.2795 246.568C76.0288 246.488 75.7702 246.405 75.5035 246.32C75.2422 246.235 74.9835 246.139 74.7275 246.032C74.4768 245.92 74.2528 245.781 74.0555 245.616C73.8582 245.451 73.6982 245.248 73.5755 245.008C73.4582 244.763 73.3995 244.467 73.3995 244.12C73.3995 243.811 73.4635 243.515 73.5915 243.232C73.7195 242.944 73.9062 242.693 74.1515 242.48C74.3968 242.261 74.6982 242.088 75.0555 241.96C75.4128 241.832 75.8208 241.768 76.2795 241.768C76.8128 241.768 77.2902 241.853 77.7115 242.024C78.1382 242.189 78.5062 242.419 78.8155 242.712L78.4955 243.232ZM80.841 250V238.216H82.273V243.064C82.609 242.675 82.993 242.363 83.425 242.128C83.8623 241.888 84.361 241.768 84.921 241.768C85.3903 241.768 85.8143 241.856 86.193 242.032C86.5717 242.208 86.8943 242.472 87.161 242.824C87.4277 243.171 87.633 243.603 87.777 244.12C87.921 244.632 87.993 245.224 87.993 245.896C87.993 246.493 87.913 247.051 87.753 247.568C87.593 248.08 87.361 248.525 87.057 248.904C86.7583 249.277 86.3903 249.573 85.953 249.792C85.521 250.005 85.033 250.112 84.489 250.112C83.9663 250.112 83.521 250.011 83.153 249.808C82.7903 249.605 82.473 249.323 82.201 248.96L82.129 249.696C82.0863 249.899 81.9637 250 81.761 250H80.841ZM84.457 242.904C83.993 242.904 83.585 243.011 83.233 243.224C82.8863 243.437 82.5663 243.739 82.273 244.128V248.048C82.529 248.4 82.8117 248.648 83.121 248.792C83.4357 248.936 83.785 249.008 84.169 249.008C84.9263 249.008 85.5077 248.739 85.913 248.2C86.3183 247.661 86.521 246.893 86.521 245.896C86.521 245.368 86.473 244.915 86.377 244.536C86.2863 244.157 86.153 243.848 85.977 243.608C85.801 243.363 85.585 243.184 85.329 243.072C85.073 242.96 84.7823 242.904 84.457 242.904ZM90.9625 241.896V247.064C90.9625 247.677 91.1038 248.152 91.3865 248.488C91.6692 248.824 92.0958 248.992 92.6665 248.992C93.0825 248.992 93.4745 248.893 93.8425 248.696C94.2105 248.499 94.5492 248.224 94.8585 247.872V241.896H96.2825V250H95.4345C95.2318 250 95.1038 249.901 95.0505 249.704L94.9385 248.832C94.5865 249.221 94.1918 249.536 93.7545 249.776C93.3172 250.011 92.8158 250.128 92.2505 250.128C91.8078 250.128 91.4158 250.056 91.0745 249.912C90.7385 249.763 90.4558 249.555 90.2265 249.288C89.9972 249.021 89.8238 248.699 89.7065 248.32C89.5945 247.941 89.5385 247.523 89.5385 247.064V241.896H90.9625ZM98.6211 250V241.896H99.4371C99.5918 241.896 99.6985 241.925 99.7571 241.984C99.8158 242.043 99.8558 242.144 99.8771 242.288L99.9731 243.552C100.25 242.987 100.592 242.547 100.997 242.232C101.408 241.912 101.888 241.752 102.437 241.752C102.661 241.752 102.864 241.779 103.045 241.832C103.226 241.88 103.394 241.949 103.549 242.04L103.365 243.104C103.328 243.237 103.245 243.304 103.117 243.304C103.042 243.304 102.928 243.28 102.773 243.232C102.618 243.179 102.402 243.152 102.125 243.152C101.629 243.152 101.213 243.296 100.877 243.584C100.546 243.872 100.269 244.291 100.045 244.84V250H98.6211ZM107.802 241.76C108.154 241.76 108.482 241.8 108.786 241.88C109.096 241.955 109.376 242.067 109.626 242.216H111.826V242.744C111.826 242.92 111.714 243.032 111.49 243.08L110.57 243.208C110.752 243.555 110.842 243.941 110.842 244.368C110.842 244.763 110.765 245.123 110.61 245.448C110.461 245.768 110.25 246.043 109.978 246.272C109.712 246.501 109.392 246.677 109.018 246.8C108.65 246.923 108.245 246.984 107.802 246.984C107.424 246.984 107.066 246.939 106.73 246.848C106.56 246.955 106.429 247.069 106.338 247.192C106.253 247.315 106.21 247.435 106.21 247.552C106.21 247.744 106.288 247.891 106.442 247.992C106.597 248.088 106.802 248.157 107.058 248.2C107.314 248.243 107.605 248.269 107.93 248.28C108.256 248.291 108.586 248.309 108.922 248.336C109.264 248.357 109.597 248.397 109.922 248.456C110.248 248.515 110.538 248.611 110.794 248.744C111.05 248.877 111.256 249.061 111.41 249.296C111.565 249.531 111.642 249.835 111.642 250.208C111.642 250.555 111.554 250.891 111.378 251.216C111.208 251.541 110.96 251.829 110.634 252.08C110.309 252.336 109.912 252.539 109.442 252.688C108.973 252.843 108.442 252.92 107.85 252.92C107.258 252.92 106.738 252.861 106.29 252.744C105.848 252.627 105.48 252.469 105.186 252.272C104.893 252.075 104.672 251.845 104.522 251.584C104.378 251.328 104.306 251.059 104.306 250.776C104.306 250.376 104.432 250.037 104.682 249.76C104.938 249.477 105.288 249.253 105.73 249.088C105.501 248.981 105.317 248.84 105.178 248.664C105.045 248.483 104.978 248.243 104.978 247.944C104.978 247.827 105 247.707 105.042 247.584C105.085 247.456 105.149 247.331 105.234 247.208C105.325 247.085 105.434 246.968 105.562 246.856C105.69 246.744 105.84 246.645 106.01 246.56C105.61 246.336 105.296 246.04 105.066 245.672C104.842 245.299 104.73 244.864 104.73 244.368C104.73 243.973 104.805 243.616 104.954 243.296C105.109 242.971 105.322 242.696 105.594 242.472C105.866 242.243 106.189 242.067 106.562 241.944C106.941 241.821 107.354 241.76 107.802 241.76ZM110.33 250.44C110.33 250.237 110.274 250.075 110.162 249.952C110.05 249.829 109.898 249.736 109.706 249.672C109.514 249.603 109.293 249.552 109.042 249.52C108.792 249.488 108.528 249.467 108.25 249.456C107.973 249.44 107.69 249.424 107.402 249.408C107.114 249.392 106.84 249.363 106.578 249.32C106.274 249.464 106.026 249.64 105.834 249.848C105.648 250.056 105.554 250.304 105.554 250.592C105.554 250.773 105.6 250.941 105.69 251.096C105.786 251.256 105.93 251.392 106.122 251.504C106.314 251.621 106.554 251.712 106.842 251.776C107.136 251.845 107.48 251.88 107.874 251.88C108.258 251.88 108.602 251.845 108.906 251.776C109.21 251.707 109.466 251.608 109.674 251.48C109.888 251.352 110.05 251.2 110.162 251.024C110.274 250.848 110.33 250.653 110.33 250.44ZM107.802 246.04C108.09 246.04 108.344 246 108.562 245.92C108.786 245.84 108.973 245.728 109.122 245.584C109.272 245.44 109.384 245.269 109.458 245.072C109.533 244.869 109.57 244.648 109.57 244.408C109.57 243.912 109.418 243.517 109.114 243.224C108.816 242.931 108.378 242.784 107.802 242.784C107.232 242.784 106.794 242.931 106.49 243.224C106.192 243.517 106.042 243.912 106.042 244.408C106.042 244.648 106.08 244.869 106.154 245.072C106.234 245.269 106.349 245.44 106.498 245.584C106.648 245.728 106.832 245.84 107.05 245.92C107.269 246 107.52 246.04 107.802 246.04Z" fill="black"/>
<rect x="14.5" y="60.5" width="427" height="37" rx="3.5" stroke="#979797"/>
<path d="M27.216 85V73.216H28.648V78.064C28.984 77.6747 29.368 77.3627 29.8 77.128C30.2373 76.888 30.736 76.768 31.296 76.768C31.7653 76.768 32.1893 76.856 32.568 77.032C32.9467 77.208 33.2693 77.472 33.536 77.824C33.8027 78.1707 34.008 78.6027 34.152 79.12C34.296 79.632 34.368 80.224 34.368 80.896C34.368 81.4933 34.288 82.0507 34.128 82.568C33.968 83.08 33.736 83.5253 33.432 83.904C33.1333 84.2773 32.7653 84.5733 32.328 84.792C31.896 85.0053 31.408 85.112 30.864 85.112C30.3413 85.112 29.896 85.0107 29.528 84.808C29.1653 84.6053 28.848 84.3227 28.576 83.96L28.504 84.696C28.4613 84.8987 28.3387 85 28.136 85H27.216ZM30.832 77.904C30.368 77.904 29.96 78.0107 29.608 78.224C29.2613 78.4373 28.9413 78.7387 28.648 79.128V83.048C28.904 83.4 29.1867 83.648 29.496 83.792C29.8107 83.936 30.16 84.008 30.544 84.008C31.3013 84.008 31.8827 83.7387 32.288 83.2C32.6933 82.6613 32.896 81.8933 32.896 80.896C32.896 80.368 32.848 79.9147 32.752 79.536C32.6613 79.1573 32.528 78.848 32.352 78.608C32.176 78.3627 31.96 78.184 31.704 78.072C31.448 77.96 31.1573 77.904 30.832 77.904Z" fill="black"/>
<path fill-rule="evenodd" clip-rule="evenodd" d="M416.707 84.6066C416.317 84.2161 416.317 83.5829 416.707 83.1924L426.607 73.2929C426.997 72.9024 427.63 72.9024 428.021 73.2929C428.411 73.6834 428.411 74.3166 428.021 74.7071L418.121 84.6066C417.731 84.9971 417.098 84.9971 416.707 84.6066Z" fill="black"/>
<path fill-rule="evenodd" clip-rule="evenodd" d="M428.021 84.6066C428.411 84.2161 428.411 83.5829 428.021 83.1924L418.121 73.2929C417.731 72.9024 417.098 72.9024 416.707 73.2929C416.317 73.6834 416.317 74.3166 416.707 74.7071L426.607 84.6066C426.997 84.9971 427.63 84.9971 428.021 84.6066Z" fill="black"/>
</svg>
