<svg width="456" height="283" viewBox="0 0 456 283" fill="none" xmlns="http://www.w3.org/2000/svg">
<path d="M9.352 57H7.987V52.436H2.583V57H1.218V46.969H2.583V51.442H7.987V46.969H9.352V57ZM14.411 49.797C14.8357 49.797 15.2277 49.8693 15.587 50.014C15.9464 50.154 16.2567 50.3593 16.518 50.63C16.7794 50.896 16.9824 51.2273 17.127 51.624C17.2764 52.016 17.351 52.464 17.351 52.968C17.351 53.164 17.33 53.2947 17.288 53.36C17.246 53.4253 17.1667 53.458 17.05 53.458H12.332C12.3414 53.906 12.402 54.2957 12.514 54.627C12.626 54.9583 12.78 55.236 12.976 55.46C13.172 55.6793 13.4054 55.845 13.676 55.957C13.9467 56.0643 14.25 56.118 14.586 56.118C14.8987 56.118 15.167 56.083 15.391 56.013C15.6197 55.9383 15.8157 55.859 15.979 55.775C16.1424 55.691 16.2777 55.614 16.385 55.544C16.497 55.4693 16.5927 55.432 16.672 55.432C16.7747 55.432 16.854 55.4717 16.91 55.551L17.26 56.006C17.106 56.1927 16.9217 56.356 16.707 56.496C16.4924 56.6313 16.2614 56.7433 16.014 56.832C15.7714 56.9207 15.5194 56.986 15.258 57.028C14.9967 57.0747 14.7377 57.098 14.481 57.098C13.991 57.098 13.5384 57.0163 13.123 56.853C12.7124 56.685 12.3554 56.4423 12.052 56.125C11.7534 55.803 11.52 55.4063 11.352 54.935C11.184 54.4637 11.1 53.9223 11.1 53.311C11.1 52.8163 11.1747 52.3543 11.324 51.925C11.478 51.4957 11.6974 51.1247 11.982 50.812C12.2667 50.4947 12.6144 50.2473 13.025 50.07C13.4357 49.888 13.8977 49.797 14.411 49.797ZM14.439 50.714C13.837 50.714 13.3634 50.889 13.018 51.239C12.6727 51.5843 12.458 52.065 12.374 52.681H16.231C16.231 52.3917 16.1914 52.128 16.112 51.89C16.0327 51.6473 15.916 51.4397 15.762 51.267C15.608 51.0897 15.419 50.9543 15.195 50.861C14.9757 50.763 14.7237 50.714 14.439 50.714ZM20.3318 46.689V57H19.0858V46.689H20.3318ZM22.5279 59.401V49.909H23.2699C23.4472 49.909 23.5592 49.9953 23.6059 50.168L23.7109 51.008C24.0142 50.6393 24.3595 50.343 24.7469 50.119C25.1389 49.895 25.5892 49.783 26.0979 49.783C26.5039 49.783 26.8725 49.8623 27.2039 50.021C27.5352 50.175 27.8175 50.406 28.0509 50.714C28.2842 51.0173 28.4639 51.3953 28.5899 51.848C28.7159 52.3007 28.7789 52.821 28.7789 53.409C28.7789 53.9317 28.7089 54.4193 28.5689 54.872C28.4289 55.32 28.2282 55.7097 27.9669 56.041C27.7055 56.3677 27.3835 56.6267 27.0009 56.818C26.6229 57.0047 26.1959 57.098 25.7199 57.098C25.2812 57.098 24.9055 57.0257 24.5929 56.881C24.2849 56.7363 24.0119 56.531 23.7739 56.265V59.401H22.5279ZM25.6849 50.791C25.2789 50.791 24.9219 50.8843 24.6139 51.071C24.3105 51.2577 24.0305 51.5213 23.7739 51.862V55.292C24.0025 55.6 24.2522 55.817 24.5229 55.943C24.7982 56.069 25.1039 56.132 25.4399 56.132C26.0979 56.132 26.6042 55.8963 26.9589 55.425C27.3135 54.9537 27.4909 54.2817 27.4909 53.409C27.4909 52.947 27.4489 52.5503 27.3649 52.219C27.2855 51.8877 27.1689 51.617 27.0149 51.407C26.8609 51.1923 26.6719 51.036 26.4479 50.938C26.2239 50.84 25.9695 50.791 25.6849 50.791ZM33.0595 49.797C33.4841 49.797 33.8761 49.8693 34.2355 50.014C34.5948 50.154 34.9051 50.3593 35.1665 50.63C35.4278 50.896 35.6308 51.2273 35.7755 51.624C35.9248 52.016 35.9995 52.464 35.9995 52.968C35.9995 53.164 35.9785 53.2947 35.9365 53.36C35.8945 53.4253 35.8151 53.458 35.6985 53.458H30.9805C30.9898 53.906 31.0505 54.2957 31.1625 54.627C31.2745 54.9583 31.4285 55.236 31.6245 55.46C31.8205 55.6793 32.0538 55.845 32.3245 55.957C32.5951 56.0643 32.8985 56.118 33.2345 56.118C33.5471 56.118 33.8155 56.083 34.0395 56.013C34.2681 55.9383 34.4641 55.859 34.6275 55.775C34.7908 55.691 34.9261 55.614 35.0335 55.544C35.1455 55.4693 35.2411 55.432 35.3205 55.432C35.4231 55.432 35.5025 55.4717 35.5585 55.551L35.9085 56.006C35.7545 56.1927 35.5701 56.356 35.3555 56.496C35.1408 56.6313 34.9098 56.7433 34.6625 56.832C34.4198 56.9207 34.1678 56.986 33.9065 57.028C33.6451 57.0747 33.3861 57.098 33.1295 57.098C32.6395 57.098 32.1868 57.0163 31.7715 56.853C31.3608 56.685 31.0038 56.4423 30.7005 56.125C30.4018 55.803 30.1685 55.4063 30.0005 54.935C29.8325 54.4637 29.7485 53.9223 29.7485 53.311C29.7485 52.8163 29.8231 52.3543 29.9725 51.925C30.1265 51.4957 30.3458 51.1247 30.6305 50.812C30.9151 50.4947 31.2628 50.2473 31.6735 50.07C32.0841 49.888 32.5461 49.797 33.0595 49.797ZM33.0875 50.714C32.4855 50.714 32.0118 50.889 31.6665 51.239C31.3211 51.5843 31.1065 52.065 31.0225 52.681H34.8795C34.8795 52.3917 34.8398 52.128 34.7605 51.89C34.6811 51.6473 34.5645 51.4397 34.4105 51.267C34.2565 51.0897 34.0675 50.9543 33.8435 50.861C33.6241 50.763 33.3721 50.714 33.0875 50.714ZM37.5943 57V49.909H38.3083C38.4436 49.909 38.5369 49.9347 38.5883 49.986C38.6396 50.0373 38.6746 50.126 38.6933 50.252L38.7773 51.358C39.0199 50.8633 39.3186 50.4783 39.6733 50.203C40.0326 49.923 40.4526 49.783 40.9333 49.783C41.1293 49.783 41.3066 49.8063 41.4653 49.853C41.6239 49.895 41.7709 49.9557 41.9063 50.035L41.7453 50.966C41.7126 51.0827 41.6403 51.141 41.5283 51.141C41.4629 51.141 41.3626 51.12 41.2273 51.078C41.0919 51.0313 40.9029 51.008 40.6603 51.008C40.2263 51.008 39.8623 51.134 39.5683 51.386C39.2789 51.638 39.0363 52.0043 38.8403 52.485V57H37.5943ZM48.0968 57.112C47.5368 57.112 47.1051 56.9557 46.8018 56.643C46.5031 56.3303 46.3538 55.88 46.3538 55.292V50.952H45.4998C45.4251 50.952 45.3621 50.931 45.3108 50.889C45.2594 50.8423 45.2338 50.7723 45.2338 50.679V50.182L46.3958 50.035L46.6828 47.844C46.6921 47.774 46.7224 47.718 46.7738 47.676C46.8251 47.6293 46.8904 47.606 46.9698 47.606H47.5998V50.049H49.6298V50.952H47.5998V55.208C47.5998 55.5067 47.6721 55.7283 47.8168 55.873C47.9614 56.0177 48.1481 56.09 48.3768 56.09C48.5074 56.09 48.6194 56.0737 48.7128 56.041C48.8108 56.0037 48.8948 55.964 48.9648 55.922C49.0348 55.88 49.0931 55.8427 49.1398 55.81C49.1911 55.7727 49.2354 55.754 49.2728 55.754C49.3381 55.754 49.3964 55.7937 49.4478 55.873L49.8118 56.468C49.5971 56.6687 49.3381 56.8273 49.0348 56.944C48.7314 57.056 48.4188 57.112 48.0968 57.112ZM53.9774 49.797C54.4021 49.797 54.7941 49.8693 55.1534 50.014C55.5128 50.154 55.8231 50.3593 56.0844 50.63C56.3458 50.896 56.5488 51.2273 56.6934 51.624C56.8428 52.016 56.9174 52.464 56.9174 52.968C56.9174 53.164 56.8964 53.2947 56.8544 53.36C56.8124 53.4253 56.7331 53.458 56.6164 53.458H51.8984C51.9078 53.906 51.9684 54.2957 52.0804 54.627C52.1924 54.9583 52.3464 55.236 52.5424 55.46C52.7384 55.6793 52.9718 55.845 53.2424 55.957C53.5131 56.0643 53.8164 56.118 54.1524 56.118C54.4651 56.118 54.7334 56.083 54.9574 56.013C55.1861 55.9383 55.3821 55.859 55.5454 55.775C55.7088 55.691 55.8441 55.614 55.9514 55.544C56.0634 55.4693 56.1591 55.432 56.2384 55.432C56.3411 55.432 56.4204 55.4717 56.4764 55.551L56.8264 56.006C56.6724 56.1927 56.4881 56.356 56.2734 56.496C56.0588 56.6313 55.8278 56.7433 55.5804 56.832C55.3378 56.9207 55.0858 56.986 54.8244 57.028C54.5631 57.0747 54.3041 57.098 54.0474 57.098C53.5574 57.098 53.1048 57.0163 52.6894 56.853C52.2788 56.685 51.9218 56.4423 51.6184 56.125C51.3198 55.803 51.0864 55.4063 50.9184 54.935C50.7504 54.4637 50.6664 53.9223 50.6664 53.311C50.6664 52.8163 50.7411 52.3543 50.8904 51.925C51.0444 51.4957 51.2638 51.1247 51.5484 50.812C51.8331 50.4947 52.1808 50.2473 52.5914 50.07C53.0021 49.888 53.4641 49.797 53.9774 49.797ZM54.0054 50.714C53.4034 50.714 52.9298 50.889 52.5844 51.239C52.2391 51.5843 52.0244 52.065 51.9404 52.681H55.7974C55.7974 52.3917 55.7578 52.128 55.6784 51.89C55.5991 51.6473 55.4824 51.4397 55.3284 51.267C55.1744 51.0897 54.9854 50.9543 54.7614 50.861C54.5421 50.763 54.2901 50.714 54.0054 50.714ZM59.7474 53.367L57.3604 49.909H58.5574C58.6601 49.909 58.7347 49.9253 58.7814 49.958C58.8281 49.9907 58.8701 50.0373 58.9074 50.098L60.6434 52.758C60.6854 52.6273 60.7461 52.4967 60.8254 52.366L62.3514 50.126C62.3981 50.0607 62.4447 50.0093 62.4914 49.972C62.5381 49.93 62.5964 49.909 62.6664 49.909H63.8144L61.4274 53.297L63.9124 57H62.7154C62.6127 57 62.5311 56.9743 62.4704 56.923C62.4144 56.867 62.3677 56.8063 62.3304 56.741L60.5454 53.962C60.5127 54.0973 60.4637 54.2187 60.3984 54.326L58.7464 56.741C58.6997 56.8063 58.6484 56.867 58.5924 56.923C58.5411 56.9743 58.4687 57 58.3754 57H57.2624L59.7474 53.367ZM67.2921 57.112C66.7321 57.112 66.3004 56.9557 65.9971 56.643C65.6984 56.3303 65.5491 55.88 65.5491 55.292V50.952H64.6951C64.6204 50.952 64.5574 50.931 64.5061 50.889C64.4548 50.8423 64.4291 50.7723 64.4291 50.679V50.182L65.5911 50.035L65.8781 47.844C65.8874 47.774 65.9178 47.718 65.9691 47.676C66.0204 47.6293 66.0858 47.606 66.1651 47.606H66.7951V50.049H68.8251V50.952H66.7951V55.208C66.7951 55.5067 66.8674 55.7283 67.0121 55.873C67.1568 56.0177 67.3434 56.09 67.5721 56.09C67.7028 56.09 67.8148 56.0737 67.9081 56.041C68.0061 56.0037 68.0901 55.964 68.1601 55.922C68.2301 55.88 68.2884 55.8427 68.3351 55.81C68.3864 55.7727 68.4308 55.754 68.4681 55.754C68.5334 55.754 68.5918 55.7937 68.6431 55.873L69.0071 56.468C68.7924 56.6687 68.5334 56.8273 68.2301 56.944C67.9268 57.056 67.6141 57.112 67.2921 57.112Z" fill="#6A6A6A"/>
<rect x="0.5" y="0.5" width="455" height="37" rx="3.5" fill="white" stroke="#D8D8D8"/>
<path d="M21.472 22.632C21.5573 22.632 21.6347 22.6667 21.704 22.736L22.312 23.4C21.8427 23.944 21.272 24.368 20.6 24.672C19.9333 24.976 19.128 25.128 18.184 25.128C17.3573 25.128 16.608 24.9867 15.936 24.704C15.264 24.416 14.6907 24.016 14.216 23.504C13.7413 22.9867 13.3733 22.368 13.112 21.648C12.8507 20.928 12.72 20.136 12.72 19.272C12.72 18.408 12.8587 17.616 13.136 16.896C13.4187 16.176 13.8133 15.5573 14.32 15.04C14.8267 14.5227 15.432 14.1227 16.136 13.84C16.8453 13.552 17.6267 13.408 18.48 13.408C19.3227 13.408 20.048 13.5387 20.656 13.8C21.2693 14.0613 21.8133 14.416 22.288 14.864L21.784 15.576C21.7467 15.6293 21.704 15.6747 21.656 15.712C21.608 15.744 21.5387 15.76 21.448 15.76C21.3787 15.76 21.304 15.736 21.224 15.688C21.1493 15.6347 21.0587 15.5707 20.952 15.496C20.8453 15.4213 20.72 15.3413 20.576 15.256C20.432 15.1707 20.2613 15.0907 20.064 15.016C19.8667 14.9413 19.6373 14.88 19.376 14.832C19.1147 14.7787 18.8133 14.752 18.472 14.752C17.8587 14.752 17.296 14.8587 16.784 15.072C16.2773 15.28 15.84 15.5787 15.472 15.968C15.104 16.3573 14.816 16.832 14.608 17.392C14.4053 17.952 14.304 18.5787 14.304 19.272C14.304 19.9867 14.4053 20.624 14.608 21.184C14.816 21.744 15.096 22.2187 15.448 22.608C15.8053 22.992 16.2267 23.2853 16.712 23.488C17.1973 23.6907 17.72 23.792 18.28 23.792C18.6213 23.792 18.928 23.7733 19.2 23.736C19.472 23.6933 19.7227 23.6293 19.952 23.544C20.1867 23.4587 20.4027 23.352 20.6 23.224C20.8027 23.0907 21.0053 22.9333 21.208 22.752C21.2987 22.672 21.3867 22.632 21.472 22.632ZM24.1211 25V13.216H25.5451V17.984C25.8918 17.616 26.2758 17.3227 26.6971 17.104C27.1185 16.88 27.6038 16.768 28.1531 16.768C28.5958 16.768 28.9851 16.8427 29.3211 16.992C29.6625 17.136 29.9451 17.344 30.1691 17.616C30.3985 17.8827 30.5718 18.2053 30.6891 18.584C30.8065 18.9627 30.8651 19.3813 30.8651 19.84V25H29.4411V19.84C29.4411 19.2267 29.2998 18.752 29.0171 18.416C28.7398 18.0747 28.3131 17.904 27.7371 17.904C27.3158 17.904 26.9211 18.0053 26.5531 18.208C26.1905 18.4107 25.8545 18.6853 25.5451 19.032V25H24.1211ZM36.2918 16.768C36.8838 16.768 37.4171 16.8667 37.8918 17.064C38.3718 17.2613 38.7771 17.5413 39.1078 17.904C39.4438 18.2667 39.6998 18.7067 39.8758 19.224C40.0571 19.736 40.1478 20.3093 40.1478 20.944C40.1478 21.584 40.0571 22.16 39.8758 22.672C39.6998 23.184 39.4438 23.6213 39.1078 23.984C38.7771 24.3467 38.3718 24.6267 37.8918 24.824C37.4171 25.016 36.8838 25.112 36.2918 25.112C35.6998 25.112 35.1638 25.016 34.6838 24.824C34.2091 24.6267 33.8038 24.3467 33.4678 23.984C33.1318 23.6213 32.8731 23.184 32.6918 22.672C32.5104 22.16 32.4198 21.584 32.4198 20.944C32.4198 20.3093 32.5104 19.736 32.6918 19.224C32.8731 18.7067 33.1318 18.2667 33.4678 17.904C33.8038 17.5413 34.2091 17.2613 34.6838 17.064C35.1638 16.8667 35.6998 16.768 36.2918 16.768ZM36.2918 24C37.0918 24 37.6891 23.7333 38.0838 23.2C38.4784 22.6613 38.6758 21.912 38.6758 20.952C38.6758 19.9867 38.4784 19.2347 38.0838 18.696C37.6891 18.1573 37.0918 17.888 36.2918 17.888C35.8864 17.888 35.5344 17.9573 35.2358 18.096C34.9371 18.2347 34.6864 18.4347 34.4838 18.696C34.2864 18.9573 34.1371 19.28 34.0358 19.664C33.9398 20.0427 33.8918 20.472 33.8918 20.952C33.8918 21.432 33.9398 21.8613 34.0358 22.24C34.1371 22.6187 34.2864 22.9387 34.4838 23.2C34.6864 23.456 34.9371 23.6533 35.2358 23.792C35.5344 23.9307 35.8864 24 36.2918 24ZM45.1824 16.768C45.7744 16.768 46.3077 16.8667 46.7824 17.064C47.2624 17.2613 47.6677 17.5413 47.9984 17.904C48.3344 18.2667 48.5904 18.7067 48.7664 19.224C48.9477 19.736 49.0384 20.3093 49.0384 20.944C49.0384 21.584 48.9477 22.16 48.7664 22.672C48.5904 23.184 48.3344 23.6213 47.9984 23.984C47.6677 24.3467 47.2624 24.6267 46.7824 24.824C46.3077 25.016 45.7744 25.112 45.1824 25.112C44.5904 25.112 44.0544 25.016 43.5744 24.824C43.0997 24.6267 42.6944 24.3467 42.3584 23.984C42.0224 23.6213 41.7637 23.184 41.5824 22.672C41.401 22.16 41.3104 21.584 41.3104 20.944C41.3104 20.3093 41.401 19.736 41.5824 19.224C41.7637 18.7067 42.0224 18.2667 42.3584 17.904C42.6944 17.5413 43.0997 17.2613 43.5744 17.064C44.0544 16.8667 44.5904 16.768 45.1824 16.768ZM45.1824 24C45.9824 24 46.5797 23.7333 46.9744 23.2C47.369 22.6613 47.5664 21.912 47.5664 20.952C47.5664 19.9867 47.369 19.2347 46.9744 18.696C46.5797 18.1573 45.9824 17.888 45.1824 17.888C44.777 17.888 44.425 17.9573 44.1264 18.096C43.8277 18.2347 43.577 18.4347 43.3744 18.696C43.177 18.9573 43.0277 19.28 42.9264 19.664C42.8304 20.0427 42.7824 20.472 42.7824 20.952C42.7824 21.432 42.8304 21.8613 42.9264 22.24C43.0277 22.6187 43.177 22.9387 43.3744 23.2C43.577 23.456 43.8277 23.6533 44.1264 23.792C44.425 23.9307 44.777 24 45.1824 24ZM55.433 18.232C55.369 18.3493 55.2703 18.408 55.137 18.408C55.057 18.408 54.9663 18.3787 54.865 18.32C54.7637 18.2613 54.6383 18.1973 54.489 18.128C54.345 18.0533 54.1717 17.9867 53.969 17.928C53.7663 17.864 53.5263 17.832 53.249 17.832C53.009 17.832 52.793 17.864 52.601 17.928C52.409 17.9867 52.2437 18.0693 52.105 18.176C51.9717 18.2827 51.8677 18.408 51.793 18.552C51.7237 18.6907 51.689 18.8427 51.689 19.008C51.689 19.216 51.7477 19.3893 51.865 19.528C51.9877 19.6667 52.1477 19.7867 52.345 19.888C52.5423 19.9893 52.7663 20.08 53.017 20.16C53.2677 20.2347 53.5237 20.3173 53.785 20.408C54.0517 20.4933 54.3103 20.5893 54.561 20.696C54.8117 20.8027 55.0357 20.936 55.233 21.096C55.4303 21.256 55.5877 21.4533 55.705 21.688C55.8277 21.9173 55.889 22.1947 55.889 22.52C55.889 22.8933 55.8223 23.24 55.689 23.56C55.5557 23.8747 55.3583 24.1493 55.097 24.384C54.8357 24.6133 54.5157 24.7947 54.137 24.928C53.7583 25.0613 53.321 25.128 52.825 25.128C52.2597 25.128 51.7477 25.0373 51.289 24.856C50.8303 24.6693 50.441 24.432 50.121 24.144L50.457 23.6C50.4997 23.5307 50.5503 23.4773 50.609 23.44C50.6677 23.4027 50.745 23.384 50.841 23.384C50.937 23.384 51.0383 23.4213 51.145 23.496C51.2517 23.5707 51.3797 23.6533 51.529 23.744C51.6837 23.8347 51.8677 23.9173 52.081 23.992C52.2997 24.0667 52.5717 24.104 52.897 24.104C53.1743 24.104 53.417 24.0693 53.625 24C53.833 23.9253 54.0063 23.8267 54.145 23.704C54.2837 23.5813 54.385 23.44 54.449 23.28C54.5183 23.12 54.553 22.9493 54.553 22.768C54.553 22.544 54.4917 22.36 54.369 22.216C54.2517 22.0667 54.0943 21.9413 53.897 21.84C53.6997 21.7333 53.473 21.6427 53.217 21.568C52.9663 21.488 52.7077 21.4053 52.441 21.32C52.1797 21.2347 51.921 21.1387 51.665 21.032C51.4143 20.92 51.1903 20.7813 50.993 20.616C50.7957 20.4507 50.6357 20.248 50.513 20.008C50.3957 19.7627 50.337 19.4667 50.337 19.12C50.337 18.8107 50.401 18.5147 50.529 18.232C50.657 17.944 50.8437 17.6933 51.089 17.48C51.3343 17.2613 51.6357 17.088 51.993 16.96C52.3503 16.832 52.7583 16.768 53.217 16.768C53.7503 16.768 54.2277 16.8533 54.649 17.024C55.0757 17.1893 55.4437 17.4187 55.753 17.712L55.433 18.232ZM60.9385 16.768C61.4238 16.768 61.8718 16.8507 62.2825 17.016C62.6932 17.176 63.0478 17.4107 63.3465 17.72C63.6452 18.024 63.8772 18.4027 64.0425 18.856C64.2132 19.304 64.2985 19.816 64.2985 20.392C64.2985 20.616 64.2745 20.7653 64.2265 20.84C64.1785 20.9147 64.0878 20.952 63.9545 20.952H58.5625C58.5732 21.464 58.6425 21.9093 58.7705 22.288C58.8985 22.6667 59.0745 22.984 59.2985 23.24C59.5225 23.4907 59.7892 23.68 60.0985 23.808C60.4078 23.9307 60.7545 23.992 61.1385 23.992C61.4958 23.992 61.8025 23.952 62.0585 23.872C62.3198 23.7867 62.5438 23.696 62.7305 23.6C62.9172 23.504 63.0718 23.416 63.1945 23.336C63.3225 23.2507 63.4318 23.208 63.5225 23.208C63.6398 23.208 63.7305 23.2533 63.7945 23.344L64.1945 23.864C64.0185 24.0773 63.8078 24.264 63.5625 24.424C63.3172 24.5787 63.0532 24.7067 62.7705 24.808C62.4932 24.9093 62.2052 24.984 61.9065 25.032C61.6078 25.0853 61.3118 25.112 61.0185 25.112C60.4585 25.112 59.9412 25.0187 59.4665 24.832C58.9972 24.64 58.5892 24.3627 58.2425 24C57.9012 23.632 57.6345 23.1787 57.4425 22.64C57.2505 22.1013 57.1545 21.4827 57.1545 20.784C57.1545 20.2187 57.2398 19.6907 57.4105 19.2C57.5865 18.7093 57.8372 18.2853 58.1625 17.928C58.4878 17.5653 58.8852 17.2827 59.3545 17.08C59.8238 16.872 60.3518 16.768 60.9385 16.768ZM60.9705 17.816C60.2825 17.816 59.7412 18.016 59.3465 18.416C58.9518 18.8107 58.7065 19.36 58.6105 20.064H63.0185C63.0185 19.7333 62.9732 19.432 62.8825 19.16C62.7918 18.8827 62.6585 18.6453 62.4825 18.448C62.3065 18.2453 62.0905 18.0907 61.8345 17.984C61.5838 17.872 61.2958 17.816 60.9705 17.816ZM75.1669 25H74.5349C74.3962 25 74.2842 24.9787 74.1989 24.936C74.1135 24.8933 74.0575 24.8027 74.0309 24.664L73.8709 23.912C73.6575 24.104 73.4495 24.2773 73.2469 24.432C73.0442 24.5813 72.8309 24.7093 72.6069 24.816C72.3829 24.9173 72.1429 24.9947 71.8869 25.048C71.6362 25.1013 71.3562 25.128 71.0469 25.128C70.7322 25.128 70.4362 25.0853 70.1589 25C69.8869 24.9093 69.6495 24.776 69.4469 24.6C69.2442 24.424 69.0815 24.2027 68.9589 23.936C68.8415 23.664 68.7829 23.344 68.7829 22.976C68.7829 22.656 68.8709 22.3493 69.0469 22.056C69.2229 21.7573 69.5055 21.4933 69.8949 21.264C70.2895 21.0347 70.8042 20.848 71.4389 20.704C72.0735 20.5547 72.8495 20.4693 73.7669 20.448V19.816C73.7669 19.1867 73.6309 18.712 73.3589 18.392C73.0922 18.0667 72.6949 17.904 72.1669 17.904C71.8202 17.904 71.5269 17.9493 71.2869 18.04C71.0522 18.1253 70.8469 18.224 70.6709 18.336C70.5002 18.4427 70.3509 18.5413 70.2229 18.632C70.1002 18.7173 69.9775 18.76 69.8549 18.76C69.7589 18.76 69.6735 18.736 69.5989 18.688C69.5295 18.6347 69.4735 18.5707 69.4309 18.496L69.1749 18.04C69.6229 17.608 70.1055 17.2853 70.6229 17.072C71.1402 16.8587 71.7135 16.752 72.3429 16.752C72.7962 16.752 73.1989 16.8267 73.5509 16.976C73.9029 17.1253 74.1989 17.3333 74.4389 17.6C74.6789 17.8667 74.8602 18.1893 74.9829 18.568C75.1055 18.9467 75.1669 19.3627 75.1669 19.816V25ZM71.4709 24.128C71.7215 24.128 71.9509 24.104 72.1589 24.056C72.3669 24.0027 72.5615 23.9307 72.7429 23.84C72.9295 23.744 73.1055 23.6293 73.2709 23.496C73.4415 23.3627 73.6069 23.2107 73.7669 23.04V21.352C73.1109 21.3733 72.5535 21.4267 72.0949 21.512C71.6362 21.592 71.2629 21.6987 70.9749 21.832C70.6869 21.9653 70.4762 22.1227 70.3429 22.304C70.2149 22.4853 70.1509 22.688 70.1509 22.912C70.1509 23.1253 70.1855 23.3093 70.2549 23.464C70.3242 23.6187 70.4175 23.7467 70.5349 23.848C70.6522 23.944 70.7909 24.016 70.9509 24.064C71.1109 24.1067 71.2842 24.128 71.4709 24.128ZM77.3243 25V16.896H78.1723C78.3749 16.896 78.5029 16.9947 78.5563 17.192L78.6683 18.072C79.0203 17.6827 79.4123 17.368 79.8443 17.128C80.2816 16.888 80.7856 16.768 81.3563 16.768C81.7989 16.768 82.1883 16.8427 82.5243 16.992C82.8656 17.136 83.1483 17.344 83.3723 17.616C83.6016 17.8827 83.7749 18.2053 83.8923 18.584C84.0096 18.9627 84.0683 19.3813 84.0683 19.84V25H82.6443V19.84C82.6443 19.2267 82.5029 18.752 82.2203 18.416C81.9429 18.0747 81.5163 17.904 80.9403 17.904C80.5189 17.904 80.1243 18.0053 79.7563 18.208C79.3936 18.4107 79.0576 18.6853 78.7483 19.032V25H77.3243ZM92.5886 16.768C93.1806 16.768 93.714 16.8667 94.1886 17.064C94.6686 17.2613 95.074 17.5413 95.4046 17.904C95.7406 18.2667 95.9966 18.7067 96.1726 19.224C96.354 19.736 96.4446 20.3093 96.4446 20.944C96.4446 21.584 96.354 22.16 96.1726 22.672C95.9966 23.184 95.7406 23.6213 95.4046 23.984C95.074 24.3467 94.6686 24.6267 94.1886 24.824C93.714 25.016 93.1806 25.112 92.5886 25.112C91.9966 25.112 91.4606 25.016 90.9806 24.824C90.506 24.6267 90.1006 24.3467 89.7646 23.984C89.4286 23.6213 89.17 23.184 88.9886 22.672C88.8073 22.16 88.7166 21.584 88.7166 20.944C88.7166 20.3093 88.8073 19.736 88.9886 19.224C89.17 18.7067 89.4286 18.2667 89.7646 17.904C90.1006 17.5413 90.506 17.2613 90.9806 17.064C91.4606 16.8667 91.9966 16.768 92.5886 16.768ZM92.5886 24C93.3886 24 93.986 23.7333 94.3806 23.2C94.7753 22.6613 94.9726 21.912 94.9726 20.952C94.9726 19.9867 94.7753 19.2347 94.3806 18.696C93.986 18.1573 93.3886 17.888 92.5886 17.888C92.1833 17.888 91.8313 17.9573 91.5326 18.096C91.234 18.2347 90.9833 18.4347 90.7806 18.696C90.5833 18.9573 90.434 19.28 90.3326 19.664C90.2366 20.0427 90.1886 20.472 90.1886 20.952C90.1886 21.432 90.2366 21.8613 90.3326 22.24C90.434 22.6187 90.5833 22.9387 90.7806 23.2C90.9833 23.456 91.234 23.6533 91.5326 23.792C91.8313 23.9307 92.1833 24 92.5886 24ZM98.1993 27.744V16.896H99.0473C99.2499 16.896 99.3779 16.9947 99.4313 17.192L99.5513 18.152C99.8979 17.7307 100.293 17.392 100.735 17.136C101.183 16.88 101.698 16.752 102.279 16.752C102.743 16.752 103.165 16.8427 103.543 17.024C103.922 17.2 104.245 17.464 104.511 17.816C104.778 18.1627 104.983 18.5947 105.127 19.112C105.271 19.6293 105.343 20.224 105.343 20.896C105.343 21.4933 105.263 22.0507 105.103 22.568C104.943 23.08 104.714 23.5253 104.415 23.904C104.117 24.2773 103.749 24.5733 103.311 24.792C102.879 25.0053 102.391 25.112 101.847 25.112C101.346 25.112 100.917 25.0293 100.559 24.864C100.207 24.6987 99.8953 24.464 99.6233 24.16V27.744H98.1993ZM101.807 17.904C101.343 17.904 100.935 18.0107 100.583 18.224C100.237 18.4373 99.9166 18.7387 99.6233 19.128V23.048C99.8846 23.4 100.17 23.648 100.479 23.792C100.794 23.936 101.143 24.008 101.527 24.008C102.279 24.008 102.858 23.7387 103.263 23.2C103.669 22.6613 103.871 21.8933 103.871 20.896C103.871 20.368 103.823 19.9147 103.727 19.536C103.637 19.1573 103.503 18.848 103.327 18.608C103.151 18.3627 102.935 18.184 102.679 18.072C102.423 17.96 102.133 17.904 101.807 17.904ZM109.483 25.128C108.843 25.128 108.35 24.9493 108.003 24.592C107.662 24.2347 107.491 23.72 107.491 23.048V18.088H106.515C106.43 18.088 106.358 18.064 106.299 18.016C106.241 17.9627 106.211 17.8827 106.211 17.776V17.208L107.539 17.04L107.867 14.536C107.878 14.456 107.913 14.392 107.971 14.344C108.03 14.2907 108.105 14.264 108.195 14.264H108.915V17.056H111.235V18.088H108.915V22.952C108.915 23.2933 108.998 23.5467 109.163 23.712C109.329 23.8773 109.542 23.96 109.803 23.96C109.953 23.96 110.081 23.9413 110.187 23.904C110.299 23.8613 110.395 23.816 110.475 23.768C110.555 23.72 110.622 23.6773 110.675 23.64C110.734 23.5973 110.785 23.576 110.827 23.576C110.902 23.576 110.969 23.6213 111.027 23.712L111.443 24.392C111.198 24.6213 110.902 24.8027 110.555 24.936C110.209 25.064 109.851 25.128 109.483 25.128ZM114.58 16.896V25H113.156V16.896H114.58ZM114.9 14.352C114.9 14.4907 114.871 14.6213 114.812 14.744C114.759 14.8613 114.684 14.968 114.588 15.064C114.497 15.1547 114.391 15.2267 114.268 15.28C114.145 15.3333 114.015 15.36 113.876 15.36C113.737 15.36 113.607 15.3333 113.484 15.28C113.367 15.2267 113.26 15.1547 113.164 15.064C113.073 14.968 113.001 14.8613 112.948 14.744C112.895 14.6213 112.868 14.4907 112.868 14.352C112.868 14.2133 112.895 14.0827 112.948 13.96C113.001 13.832 113.073 13.7227 113.164 13.632C113.26 13.536 113.367 13.4613 113.484 13.408C113.607 13.3547 113.737 13.328 113.876 13.328C114.015 13.328 114.145 13.3547 114.268 13.408C114.391 13.4613 114.497 13.536 114.588 13.632C114.684 13.7227 114.759 13.832 114.812 13.96C114.871 14.0827 114.9 14.2133 114.9 14.352ZM120.37 16.768C120.962 16.768 121.495 16.8667 121.97 17.064C122.45 17.2613 122.855 17.5413 123.186 17.904C123.522 18.2667 123.778 18.7067 123.954 19.224C124.135 19.736 124.226 20.3093 124.226 20.944C124.226 21.584 124.135 22.16 123.954 22.672C123.778 23.184 123.522 23.6213 123.186 23.984C122.855 24.3467 122.45 24.6267 121.97 24.824C121.495 25.016 120.962 25.112 120.37 25.112C119.778 25.112 119.242 25.016 118.762 24.824C118.287 24.6267 117.882 24.3467 117.546 23.984C117.21 23.6213 116.951 23.184 116.77 22.672C116.589 22.16 116.498 21.584 116.498 20.944C116.498 20.3093 116.589 19.736 116.77 19.224C116.951 18.7067 117.21 18.2667 117.546 17.904C117.882 17.5413 118.287 17.2613 118.762 17.064C119.242 16.8667 119.778 16.768 120.37 16.768ZM120.37 24C121.17 24 121.767 23.7333 122.162 23.2C122.557 22.6613 122.754 21.912 122.754 20.952C122.754 19.9867 122.557 19.2347 122.162 18.696C121.767 18.1573 121.17 17.888 120.37 17.888C119.965 17.888 119.613 17.9573 119.314 18.096C119.015 18.2347 118.765 18.4347 118.562 18.696C118.365 18.9573 118.215 19.28 118.114 19.664C118.018 20.0427 117.97 20.472 117.97 20.952C117.97 21.432 118.018 21.8613 118.114 22.24C118.215 22.6187 118.365 22.9387 118.562 23.2C118.765 23.456 119.015 23.6533 119.314 23.792C119.613 23.9307 119.965 24 120.37 24ZM125.981 25V16.896H126.829C127.031 16.896 127.159 16.9947 127.213 17.192L127.325 18.072C127.677 17.6827 128.069 17.368 128.501 17.128C128.938 16.888 129.442 16.768 130.013 16.768C130.455 16.768 130.845 16.8427 131.181 16.992C131.522 17.136 131.805 17.344 132.029 17.616C132.258 17.8827 132.431 18.2053 132.549 18.584C132.666 18.9627 132.725 19.3813 132.725 19.84V25H131.301V19.84C131.301 19.2267 131.159 18.752 130.877 18.416C130.599 18.0747 130.173 17.904 129.597 17.904C129.175 17.904 128.781 18.0053 128.413 18.208C128.05 18.4107 127.714 18.6853 127.405 19.032V25H125.981Z" fill="black"/>
<path fill-rule="evenodd" clip-rule="evenodd" d="M430.707 16.7071C431.098 16.3166 431.731 16.3166 432.121 16.7071L436.707 21.2929C437.098 21.6834 437.098 22.3166 436.707 22.7071C436.317 23.0976 435.684 23.0976 435.293 22.7071L430.707 18.1213C430.317 17.7308 430.317 17.0976 430.707 16.7071Z" fill="black"/>
<path fill-rule="evenodd" clip-rule="evenodd" d="M441.293 16.7071C440.902 16.3166 440.269 16.3166 439.879 16.7071L435.293 21.2929C434.902 21.6834 434.902 22.3166 435.293 22.7071C435.683 23.0976 436.316 23.0976 436.707 22.7071L441.293 18.1213C441.683 17.7308 441.683 17.0976 441.293 16.7071Z" fill="black"/>
<rect x="0.5" y="46.5" width="455" height="236" rx="3.5" fill="white" stroke="#D8D8D8"/>
<path d="M22.472 69.404C22.5573 69.404 22.6347 69.4387 22.704 69.508L23.312 70.172C22.8427 70.716 22.272 71.14 21.6 71.444C20.9333 71.748 20.128 71.9 19.184 71.9C18.3573 71.9 17.608 71.7587 16.936 71.476C16.264 71.188 15.6907 70.788 15.216 70.276C14.7413 69.7587 14.3733 69.14 14.112 68.42C13.8507 67.7 13.72 66.908 13.72 66.044C13.72 65.18 13.8587 64.388 14.136 63.668C14.4187 62.948 14.8133 62.3293 15.32 61.812C15.8267 61.2947 16.432 60.8947 17.136 60.612C17.8453 60.324 18.6267 60.18 19.48 60.18C20.3227 60.18 21.048 60.3107 21.656 60.572C22.2693 60.8333 22.8133 61.188 23.288 61.636L22.784 62.348C22.7467 62.4013 22.704 62.4467 22.656 62.484C22.608 62.516 22.5387 62.532 22.448 62.532C22.3787 62.532 22.304 62.508 22.224 62.46C22.1493 62.4067 22.0587 62.3427 21.952 62.268C21.8453 62.1933 21.72 62.1133 21.576 62.028C21.432 61.9427 21.2613 61.8627 21.064 61.788C20.8667 61.7133 20.6373 61.652 20.376 61.604C20.1147 61.5507 19.8133 61.524 19.472 61.524C18.8587 61.524 18.296 61.6307 17.784 61.844C17.2773 62.052 16.84 62.3507 16.472 62.74C16.104 63.1293 15.816 63.604 15.608 64.164C15.4053 64.724 15.304 65.3507 15.304 66.044C15.304 66.7587 15.4053 67.396 15.608 67.956C15.816 68.516 16.096 68.9907 16.448 69.38C16.8053 69.764 17.2267 70.0573 17.712 70.26C18.1973 70.4627 18.72 70.564 19.28 70.564C19.6213 70.564 19.928 70.5453 20.2 70.508C20.472 70.4653 20.7227 70.4013 20.952 70.316C21.1867 70.2307 21.4027 70.124 21.6 69.996C21.8027 69.8627 22.0053 69.7053 22.208 69.524C22.2987 69.444 22.3867 69.404 22.472 69.404ZM31.0731 71.772H30.4411C30.3025 71.772 30.1905 71.7507 30.1051 71.708C30.0198 71.6653 29.9638 71.5747 29.9371 71.436L29.7771 70.684C29.5638 70.876 29.3558 71.0493 29.1531 71.204C28.9505 71.3533 28.7371 71.4813 28.5131 71.588C28.2891 71.6893 28.0491 71.7667 27.7931 71.82C27.5425 71.8733 27.2625 71.9 26.9531 71.9C26.6385 71.9 26.3425 71.8573 26.0651 71.772C25.7931 71.6813 25.5558 71.548 25.3531 71.372C25.1505 71.196 24.9878 70.9747 24.8651 70.708C24.7478 70.436 24.6891 70.116 24.6891 69.748C24.6891 69.428 24.7771 69.1213 24.9531 68.828C25.1291 68.5293 25.4118 68.2653 25.8011 68.036C26.1958 67.8067 26.7105 67.62 27.3451 67.476C27.9798 67.3267 28.7558 67.2413 29.6731 67.22V66.588C29.6731 65.9587 29.5371 65.484 29.2651 65.164C28.9985 64.8387 28.6011 64.676 28.0731 64.676C27.7265 64.676 27.4331 64.7213 27.1931 64.812C26.9585 64.8973 26.7531 64.996 26.5771 65.108C26.4065 65.2147 26.2571 65.3133 26.1291 65.404C26.0065 65.4893 25.8838 65.532 25.7611 65.532C25.6651 65.532 25.5798 65.508 25.5051 65.46C25.4358 65.4067 25.3798 65.3427 25.3371 65.268L25.0811 64.812C25.5291 64.38 26.0118 64.0573 26.5291 63.844C27.0465 63.6307 27.6198 63.524 28.2491 63.524C28.7025 63.524 29.1051 63.5987 29.4571 63.748C29.8091 63.8973 30.1051 64.1053 30.3451 64.372C30.5851 64.6387 30.7665 64.9613 30.8891 65.34C31.0118 65.7187 31.0731 66.1347 31.0731 66.588V71.772ZM27.3771 70.9C27.6278 70.9 27.8571 70.876 28.0651 70.828C28.2731 70.7747 28.4678 70.7027 28.6491 70.612C28.8358 70.516 29.0118 70.4013 29.1771 70.268C29.3478 70.1347 29.5131 69.9827 29.6731 69.812V68.124C29.0171 68.1453 28.4598 68.1987 28.0011 68.284C27.5425 68.364 27.1691 68.4707 26.8811 68.604C26.5931 68.7373 26.3825 68.8947 26.2491 69.076C26.1211 69.2573 26.0571 69.46 26.0571 69.684C26.0571 69.8973 26.0918 70.0813 26.1611 70.236C26.2305 70.3907 26.3238 70.5187 26.4411 70.62C26.5585 70.716 26.6971 70.788 26.8571 70.836C27.0171 70.8787 27.1905 70.9 27.3771 70.9ZM35.6865 71.9C35.0465 71.9 34.5532 71.7213 34.2065 71.364C33.8652 71.0067 33.6945 70.492 33.6945 69.82V64.86H32.7185C32.6332 64.86 32.5612 64.836 32.5025 64.788C32.4438 64.7347 32.4145 64.6547 32.4145 64.548V63.98L33.7425 63.812L34.0705 61.308C34.0812 61.228 34.1158 61.164 34.1745 61.116C34.2332 61.0627 34.3078 61.036 34.3985 61.036H35.1185V63.828H37.4385V64.86H35.1185V69.724C35.1185 70.0653 35.2012 70.3187 35.3665 70.484C35.5318 70.6493 35.7452 70.732 36.0065 70.732C36.1558 70.732 36.2838 70.7133 36.3905 70.676C36.5025 70.6333 36.5985 70.588 36.6785 70.54C36.7585 70.492 36.8252 70.4493 36.8785 70.412C36.9372 70.3693 36.9878 70.348 37.0305 70.348C37.1052 70.348 37.1718 70.3933 37.2305 70.484L37.6465 71.164C37.4012 71.3933 37.1052 71.5747 36.7585 71.708C36.4118 71.836 36.0545 71.9 35.6865 71.9ZM42.4073 63.54C42.8926 63.54 43.3406 63.6227 43.7513 63.788C44.1619 63.948 44.5166 64.1827 44.8153 64.492C45.1139 64.796 45.3459 65.1747 45.5113 65.628C45.6819 66.076 45.7673 66.588 45.7673 67.164C45.7673 67.388 45.7433 67.5373 45.6953 67.612C45.6473 67.6867 45.5566 67.724 45.4233 67.724H40.0312C40.0419 68.236 40.1113 68.6813 40.2393 69.06C40.3673 69.4387 40.5433 69.756 40.7673 70.012C40.9913 70.2627 41.2579 70.452 41.5673 70.58C41.8766 70.7027 42.2233 70.764 42.6073 70.764C42.9646 70.764 43.2713 70.724 43.5273 70.644C43.7886 70.5587 44.0126 70.468 44.1993 70.372C44.3859 70.276 44.5406 70.188 44.6633 70.108C44.7913 70.0227 44.9006 69.98 44.9913 69.98C45.1086 69.98 45.1993 70.0253 45.2633 70.116L45.6633 70.636C45.4873 70.8493 45.2766 71.036 45.0313 71.196C44.7859 71.3507 44.5219 71.4787 44.2393 71.58C43.9619 71.6813 43.6739 71.756 43.3753 71.804C43.0766 71.8573 42.7806 71.884 42.4873 71.884C41.9273 71.884 41.4099 71.7907 40.9353 71.604C40.4659 71.412 40.0579 71.1347 39.7113 70.772C39.3699 70.404 39.1033 69.9507 38.9113 69.412C38.7193 68.8733 38.6233 68.2547 38.6233 67.556C38.6233 66.9907 38.7086 66.4627 38.8793 65.972C39.0553 65.4813 39.3059 65.0573 39.6313 64.7C39.9566 64.3373 40.3539 64.0547 40.8233 63.852C41.2926 63.644 41.8206 63.54 42.4073 63.54ZM42.4392 64.588C41.7513 64.588 41.2099 64.788 40.8153 65.188C40.4206 65.5827 40.1753 66.132 40.0793 66.836H44.4873C44.4873 66.5053 44.4419 66.204 44.3513 65.932C44.2606 65.6547 44.1273 65.4173 43.9513 65.22C43.7753 65.0173 43.5593 64.8627 43.3033 64.756C43.0526 64.644 42.7646 64.588 42.4392 64.588ZM50.3179 63.532C50.6699 63.532 50.9979 63.572 51.3019 63.652C51.6112 63.7267 51.8912 63.8387 52.1419 63.988H54.3419V64.516C54.3419 64.692 54.2299 64.804 54.0059 64.852L53.0859 64.98C53.2672 65.3267 53.3579 65.7133 53.3579 66.14C53.3579 66.5347 53.2805 66.8947 53.1259 67.22C52.9765 67.54 52.7659 67.8147 52.4939 68.044C52.2272 68.2733 51.9072 68.4493 51.5339 68.572C51.1659 68.6947 50.7605 68.756 50.3179 68.756C49.9392 68.756 49.5819 68.7107 49.2459 68.62C49.0752 68.7267 48.9445 68.8413 48.8539 68.964C48.7685 69.0867 48.7259 69.2067 48.7259 69.324C48.7259 69.516 48.8032 69.6627 48.9579 69.764C49.1125 69.86 49.3179 69.9293 49.5739 69.972C49.8299 70.0147 50.1205 70.0413 50.4459 70.052C50.7712 70.0627 51.1019 70.0813 51.4379 70.108C51.7792 70.1293 52.1125 70.1693 52.4379 70.228C52.7632 70.2867 53.0539 70.3827 53.3099 70.516C53.5659 70.6493 53.7712 70.8333 53.9259 71.068C54.0805 71.3027 54.1579 71.6067 54.1579 71.98C54.1579 72.3267 54.0699 72.6627 53.8939 72.988C53.7232 73.3133 53.4752 73.6013 53.1499 73.852C52.8245 74.108 52.4272 74.3107 51.9579 74.46C51.4885 74.6147 50.9579 74.692 50.3659 74.692C49.7739 74.692 49.2539 74.6333 48.8059 74.516C48.3632 74.3987 47.9952 74.2413 47.7019 74.044C47.4085 73.8467 47.1872 73.6173 47.0379 73.356C46.8939 73.1 46.8219 72.8307 46.8219 72.548C46.8219 72.148 46.9472 71.8093 47.1979 71.532C47.4539 71.2493 47.8032 71.0253 48.2459 70.86C48.0165 70.7533 47.8325 70.612 47.6939 70.436C47.5605 70.2547 47.4939 70.0147 47.4939 69.716C47.4939 69.5987 47.5152 69.4787 47.5579 69.356C47.6005 69.228 47.6645 69.1027 47.7499 68.98C47.8405 68.8573 47.9499 68.74 48.0779 68.628C48.2059 68.516 48.3552 68.4173 48.5259 68.332C48.1259 68.108 47.8112 67.812 47.5819 67.444C47.3579 67.0707 47.2459 66.636 47.2459 66.14C47.2459 65.7453 47.3205 65.388 47.4699 65.068C47.6245 64.7427 47.8379 64.468 48.1099 64.244C48.3819 64.0147 48.7045 63.8387 49.0779 63.716C49.4565 63.5933 49.8699 63.532 50.3179 63.532ZM52.8459 72.212C52.8459 72.0093 52.7899 71.8467 52.6779 71.724C52.5659 71.6013 52.4139 71.508 52.2219 71.444C52.0299 71.3747 51.8085 71.324 51.5579 71.292C51.3072 71.26 51.0432 71.2387 50.7659 71.228C50.4885 71.212 50.2059 71.196 49.9179 71.18C49.6299 71.164 49.3552 71.1347 49.0939 71.092C48.7899 71.236 48.5419 71.412 48.3499 71.62C48.1632 71.828 48.0699 72.076 48.0699 72.364C48.0699 72.5453 48.1152 72.7133 48.2059 72.868C48.3019 73.028 48.4459 73.164 48.6379 73.276C48.8299 73.3933 49.0699 73.484 49.3579 73.548C49.6512 73.6173 49.9952 73.652 50.3899 73.652C50.7739 73.652 51.1179 73.6173 51.4219 73.548C51.7259 73.4787 51.9819 73.38 52.1899 73.252C52.4032 73.124 52.5659 72.972 52.6779 72.796C52.7899 72.62 52.8459 72.4253 52.8459 72.212ZM50.3179 67.812C50.6059 67.812 50.8592 67.772 51.0779 67.692C51.3019 67.612 51.4885 67.5 51.6379 67.356C51.7872 67.212 51.8992 67.0413 51.9739 66.844C52.0485 66.6413 52.0859 66.42 52.0859 66.18C52.0859 65.684 51.9339 65.2893 51.6299 64.996C51.3312 64.7027 50.8939 64.556 50.3179 64.556C49.7472 64.556 49.3099 64.7027 49.0059 64.996C48.7072 65.2893 48.5579 65.684 48.5579 66.18C48.5579 66.42 48.5952 66.6413 48.6699 66.844C48.7499 67.0413 48.8645 67.212 49.0139 67.356C49.1632 67.5 49.3472 67.612 49.5659 67.692C49.7845 67.772 50.0352 67.812 50.3179 67.812ZM59.0418 63.54C59.6338 63.54 60.1671 63.6387 60.6418 63.836C61.1218 64.0333 61.5271 64.3133 61.8578 64.676C62.1938 65.0387 62.4498 65.4787 62.6258 65.996C62.8071 66.508 62.8978 67.0813 62.8978 67.716C62.8978 68.356 62.8071 68.932 62.6258 69.444C62.4498 69.956 62.1938 70.3933 61.8578 70.756C61.5271 71.1187 61.1218 71.3987 60.6418 71.596C60.1671 71.788 59.6338 71.884 59.0418 71.884C58.4498 71.884 57.9138 71.788 57.4338 71.596C56.9591 71.3987 56.5538 71.1187 56.2178 70.756C55.8818 70.3933 55.6231 69.956 55.4418 69.444C55.2604 68.932 55.1698 68.356 55.1698 67.716C55.1698 67.0813 55.2604 66.508 55.4418 65.996C55.6231 65.4787 55.8818 65.0387 56.2178 64.676C56.5538 64.3133 56.9591 64.0333 57.4338 63.836C57.9138 63.6387 58.4498 63.54 59.0418 63.54ZM59.0418 70.772C59.8418 70.772 60.4391 70.5053 60.8338 69.972C61.2284 69.4333 61.4258 68.684 61.4258 67.724C61.4258 66.7587 61.2284 66.0067 60.8338 65.468C60.4391 64.9293 59.8418 64.66 59.0418 64.66C58.6364 64.66 58.2844 64.7293 57.9858 64.868C57.6871 65.0067 57.4364 65.2067 57.2338 65.468C57.0364 65.7293 56.8871 66.052 56.7858 66.436C56.6898 66.8147 56.6418 67.244 56.6418 67.724C56.6418 68.204 56.6898 68.6333 56.7858 69.012C56.8871 69.3907 57.0364 69.7107 57.2338 69.972C57.4364 70.228 57.6871 70.4253 57.9858 70.564C58.2844 70.7027 58.6364 70.772 59.0418 70.772ZM64.6524 71.772V63.668H65.4684C65.623 63.668 65.7297 63.6973 65.7884 63.756C65.847 63.8147 65.887 63.916 65.9084 64.06L66.0044 65.324C66.2817 64.7587 66.623 64.3187 67.0284 64.004C67.439 63.684 67.919 63.524 68.4684 63.524C68.6924 63.524 68.895 63.5507 69.0764 63.604C69.2577 63.652 69.4257 63.7213 69.5804 63.812L69.3964 64.876C69.359 65.0093 69.2764 65.076 69.1484 65.076C69.0737 65.076 68.959 65.052 68.8044 65.004C68.6497 64.9507 68.4337 64.924 68.1564 64.924C67.6604 64.924 67.2444 65.068 66.9084 65.356C66.5777 65.644 66.3004 66.0627 66.0764 66.612V71.772H64.6524ZM73.4815 74.164C73.4335 74.2707 73.3722 74.356 73.2975 74.42C73.2282 74.484 73.1188 74.516 72.9695 74.516H71.9135L73.3935 71.3L70.0495 63.668H71.2815C71.4042 63.668 71.5002 63.7 71.5695 63.764C71.6388 63.8227 71.6895 63.8893 71.7215 63.964L73.8895 69.068C73.9375 69.1853 73.9775 69.3027 74.0095 69.42C74.0468 69.5373 74.0788 69.6573 74.1055 69.78C74.1428 69.6573 74.1802 69.5373 74.2175 69.42C74.2548 69.3027 74.2975 69.1827 74.3455 69.06L76.4495 63.964C76.4815 63.8787 76.5348 63.8093 76.6095 63.756C76.6895 63.6973 76.7748 63.668 76.8655 63.668H78.0015L73.4815 74.164ZM83.5148 70.684H85.9788V62.868C85.9788 62.6333 85.9868 62.396 86.0028 62.156L83.9548 63.908C83.9014 63.9507 83.8481 63.9827 83.7948 64.004C83.7414 64.02 83.6908 64.028 83.6428 64.028C83.5628 64.028 83.4908 64.012 83.4268 63.98C83.3628 63.9427 83.3148 63.9 83.2828 63.852L82.8348 63.236L86.2428 60.284H87.4028V70.684H89.6588V71.772H83.5148V70.684ZM22.472 183.404C22.5573 183.404 22.6347 183.439 22.704 183.508L23.312 184.172C22.8427 184.716 22.272 185.14 21.6 185.444C20.9333 185.748 20.128 185.9 19.184 185.9C18.3573 185.9 17.608 185.759 16.936 185.476C16.264 185.188 15.6907 184.788 15.216 184.276C14.7413 183.759 14.3733 183.14 14.112 182.42C13.8507 181.7 13.72 180.908 13.72 180.044C13.72 179.18 13.8587 178.388 14.136 177.668C14.4187 176.948 14.8133 176.329 15.32 175.812C15.8267 175.295 16.432 174.895 17.136 174.612C17.8453 174.324 18.6267 174.18 19.48 174.18C20.3227 174.18 21.048 174.311 21.656 174.572C22.2693 174.833 22.8133 175.188 23.288 175.636L22.784 176.348C22.7467 176.401 22.704 176.447 22.656 176.484C22.608 176.516 22.5387 176.532 22.448 176.532C22.3787 176.532 22.304 176.508 22.224 176.46C22.1493 176.407 22.0587 176.343 21.952 176.268C21.8453 176.193 21.72 176.113 21.576 176.028C21.432 175.943 21.2613 175.863 21.064 175.788C20.8667 175.713 20.6373 175.652 20.376 175.604C20.1147 175.551 19.8133 175.524 19.472 175.524C18.8587 175.524 18.296 175.631 17.784 175.844C17.2773 176.052 16.84 176.351 16.472 176.74C16.104 177.129 15.816 177.604 15.608 178.164C15.4053 178.724 15.304 179.351 15.304 180.044C15.304 180.759 15.4053 181.396 15.608 181.956C15.816 182.516 16.096 182.991 16.448 183.38C16.8053 183.764 17.2267 184.057 17.712 184.26C18.1973 184.463 18.72 184.564 19.28 184.564C19.6213 184.564 19.928 184.545 20.2 184.508C20.472 184.465 20.7227 184.401 20.952 184.316C21.1867 184.231 21.4027 184.124 21.6 183.996C21.8027 183.863 22.0053 183.705 22.208 183.524C22.2987 183.444 22.3867 183.404 22.472 183.404ZM31.0731 185.772H30.4411C30.3025 185.772 30.1905 185.751 30.1051 185.708C30.0198 185.665 29.9638 185.575 29.9371 185.436L29.7771 184.684C29.5638 184.876 29.3558 185.049 29.1531 185.204C28.9505 185.353 28.7371 185.481 28.5131 185.588C28.2891 185.689 28.0491 185.767 27.7931 185.82C27.5425 185.873 27.2625 185.9 26.9531 185.9C26.6385 185.9 26.3425 185.857 26.0651 185.772C25.7931 185.681 25.5558 185.548 25.3531 185.372C25.1505 185.196 24.9878 184.975 24.8651 184.708C24.7478 184.436 24.6891 184.116 24.6891 183.748C24.6891 183.428 24.7771 183.121 24.9531 182.828C25.1291 182.529 25.4118 182.265 25.8011 182.036C26.1958 181.807 26.7105 181.62 27.3451 181.476C27.9798 181.327 28.7558 181.241 29.6731 181.22V180.588C29.6731 179.959 29.5371 179.484 29.2651 179.164C28.9985 178.839 28.6011 178.676 28.0731 178.676C27.7265 178.676 27.4331 178.721 27.1931 178.812C26.9585 178.897 26.7531 178.996 26.5771 179.108C26.4065 179.215 26.2571 179.313 26.1291 179.404C26.0065 179.489 25.8838 179.532 25.7611 179.532C25.6651 179.532 25.5798 179.508 25.5051 179.46C25.4358 179.407 25.3798 179.343 25.3371 179.268L25.0811 178.812C25.5291 178.38 26.0118 178.057 26.5291 177.844C27.0465 177.631 27.6198 177.524 28.2491 177.524C28.7025 177.524 29.1051 177.599 29.4571 177.748C29.8091 177.897 30.1051 178.105 30.3451 178.372C30.5851 178.639 30.7665 178.961 30.8891 179.34C31.0118 179.719 31.0731 180.135 31.0731 180.588V185.772ZM27.3771 184.9C27.6278 184.9 27.8571 184.876 28.0651 184.828C28.2731 184.775 28.4678 184.703 28.6491 184.612C28.8358 184.516 29.0118 184.401 29.1771 184.268C29.3478 184.135 29.5131 183.983 29.6731 183.812V182.124C29.0171 182.145 28.4598 182.199 28.0011 182.284C27.5425 182.364 27.1691 182.471 26.8811 182.604C26.5931 182.737 26.3825 182.895 26.2491 183.076C26.1211 183.257 26.0571 183.46 26.0571 183.684C26.0571 183.897 26.0918 184.081 26.1611 184.236C26.2305 184.391 26.3238 184.519 26.4411 184.62C26.5585 184.716 26.6971 184.788 26.8571 184.836C27.0171 184.879 27.1905 184.9 27.3771 184.9ZM35.6865 185.9C35.0465 185.9 34.5532 185.721 34.2065 185.364C33.8652 185.007 33.6945 184.492 33.6945 183.82V178.86H32.7185C32.6332 178.86 32.5612 178.836 32.5025 178.788C32.4438 178.735 32.4145 178.655 32.4145 178.548V177.98L33.7425 177.812L34.0705 175.308C34.0812 175.228 34.1158 175.164 34.1745 175.116C34.2332 175.063 34.3078 175.036 34.3985 175.036H35.1185V177.828H37.4385V178.86H35.1185V183.724C35.1185 184.065 35.2012 184.319 35.3665 184.484C35.5318 184.649 35.7452 184.732 36.0065 184.732C36.1558 184.732 36.2838 184.713 36.3905 184.676C36.5025 184.633 36.5985 184.588 36.6785 184.54C36.7585 184.492 36.8252 184.449 36.8785 184.412C36.9372 184.369 36.9878 184.348 37.0305 184.348C37.1052 184.348 37.1718 184.393 37.2305 184.484L37.6465 185.164C37.4012 185.393 37.1052 185.575 36.7585 185.708C36.4118 185.836 36.0545 185.9 35.6865 185.9ZM42.4073 177.54C42.8926 177.54 43.3406 177.623 43.7513 177.788C44.1619 177.948 44.5166 178.183 44.8153 178.492C45.1139 178.796 45.3459 179.175 45.5113 179.628C45.6819 180.076 45.7673 180.588 45.7673 181.164C45.7673 181.388 45.7433 181.537 45.6953 181.612C45.6473 181.687 45.5566 181.724 45.4233 181.724H40.0312C40.0419 182.236 40.1113 182.681 40.2393 183.06C40.3673 183.439 40.5433 183.756 40.7673 184.012C40.9913 184.263 41.2579 184.452 41.5673 184.58C41.8766 184.703 42.2233 184.764 42.6073 184.764C42.9646 184.764 43.2713 184.724 43.5273 184.644C43.7886 184.559 44.0126 184.468 44.1993 184.372C44.3859 184.276 44.5406 184.188 44.6633 184.108C44.7913 184.023 44.9006 183.98 44.9913 183.98C45.1086 183.98 45.1993 184.025 45.2633 184.116L45.6633 184.636C45.4873 184.849 45.2766 185.036 45.0313 185.196C44.7859 185.351 44.5219 185.479 44.2393 185.58C43.9619 185.681 43.6739 185.756 43.3753 185.804C43.0766 185.857 42.7806 185.884 42.4873 185.884C41.9273 185.884 41.4099 185.791 40.9353 185.604C40.4659 185.412 40.0579 185.135 39.7113 184.772C39.3699 184.404 39.1033 183.951 38.9113 183.412C38.7193 182.873 38.6233 182.255 38.6233 181.556C38.6233 180.991 38.7086 180.463 38.8793 179.972C39.0553 179.481 39.3059 179.057 39.6313 178.7C39.9566 178.337 40.3539 178.055 40.8233 177.852C41.2926 177.644 41.8206 177.54 42.4073 177.54ZM42.4392 178.588C41.7513 178.588 41.2099 178.788 40.8153 179.188C40.4206 179.583 40.1753 180.132 40.0793 180.836H44.4873C44.4873 180.505 44.4419 180.204 44.3513 179.932C44.2606 179.655 44.1273 179.417 43.9513 179.22C43.7753 179.017 43.5593 178.863 43.3033 178.756C43.0526 178.644 42.7646 178.588 42.4392 178.588ZM50.3179 177.532C50.6699 177.532 50.9979 177.572 51.3019 177.652C51.6112 177.727 51.8912 177.839 52.1419 177.988H54.3419V178.516C54.3419 178.692 54.2299 178.804 54.0059 178.852L53.0859 178.98C53.2672 179.327 53.3579 179.713 53.3579 180.14C53.3579 180.535 53.2805 180.895 53.1259 181.22C52.9765 181.54 52.7659 181.815 52.4939 182.044C52.2272 182.273 51.9072 182.449 51.5339 182.572C51.1659 182.695 50.7605 182.756 50.3179 182.756C49.9392 182.756 49.5819 182.711 49.2459 182.62C49.0752 182.727 48.9445 182.841 48.8539 182.964C48.7685 183.087 48.7259 183.207 48.7259 183.324C48.7259 183.516 48.8032 183.663 48.9579 183.764C49.1125 183.86 49.3179 183.929 49.5739 183.972C49.8299 184.015 50.1205 184.041 50.4459 184.052C50.7712 184.063 51.1019 184.081 51.4379 184.108C51.7792 184.129 52.1125 184.169 52.4379 184.228C52.7632 184.287 53.0539 184.383 53.3099 184.516C53.5659 184.649 53.7712 184.833 53.9259 185.068C54.0805 185.303 54.1579 185.607 54.1579 185.98C54.1579 186.327 54.0699 186.663 53.8939 186.988C53.7232 187.313 53.4752 187.601 53.1499 187.852C52.8245 188.108 52.4272 188.311 51.9579 188.46C51.4885 188.615 50.9579 188.692 50.3659 188.692C49.7739 188.692 49.2539 188.633 48.8059 188.516C48.3632 188.399 47.9952 188.241 47.7019 188.044C47.4085 187.847 47.1872 187.617 47.0379 187.356C46.8939 187.1 46.8219 186.831 46.8219 186.548C46.8219 186.148 46.9472 185.809 47.1979 185.532C47.4539 185.249 47.8032 185.025 48.2459 184.86C48.0165 184.753 47.8325 184.612 47.6939 184.436C47.5605 184.255 47.4939 184.015 47.4939 183.716C47.4939 183.599 47.5152 183.479 47.5579 183.356C47.6005 183.228 47.6645 183.103 47.7499 182.98C47.8405 182.857 47.9499 182.74 48.0779 182.628C48.2059 182.516 48.3552 182.417 48.5259 182.332C48.1259 182.108 47.8112 181.812 47.5819 181.444C47.3579 181.071 47.2459 180.636 47.2459 180.14C47.2459 179.745 47.3205 179.388 47.4699 179.068C47.6245 178.743 47.8379 178.468 48.1099 178.244C48.3819 178.015 48.7045 177.839 49.0779 177.716C49.4565 177.593 49.8699 177.532 50.3179 177.532ZM52.8459 186.212C52.8459 186.009 52.7899 185.847 52.6779 185.724C52.5659 185.601 52.4139 185.508 52.2219 185.444C52.0299 185.375 51.8085 185.324 51.5579 185.292C51.3072 185.26 51.0432 185.239 50.7659 185.228C50.4885 185.212 50.2059 185.196 49.9179 185.18C49.6299 185.164 49.3552 185.135 49.0939 185.092C48.7899 185.236 48.5419 185.412 48.3499 185.62C48.1632 185.828 48.0699 186.076 48.0699 186.364C48.0699 186.545 48.1152 186.713 48.2059 186.868C48.3019 187.028 48.4459 187.164 48.6379 187.276C48.8299 187.393 49.0699 187.484 49.3579 187.548C49.6512 187.617 49.9952 187.652 50.3899 187.652C50.7739 187.652 51.1179 187.617 51.4219 187.548C51.7259 187.479 51.9819 187.38 52.1899 187.252C52.4032 187.124 52.5659 186.972 52.6779 186.796C52.7899 186.62 52.8459 186.425 52.8459 186.212ZM50.3179 181.812C50.6059 181.812 50.8592 181.772 51.0779 181.692C51.3019 181.612 51.4885 181.5 51.6379 181.356C51.7872 181.212 51.8992 181.041 51.9739 180.844C52.0485 180.641 52.0859 180.42 52.0859 180.18C52.0859 179.684 51.9339 179.289 51.6299 178.996C51.3312 178.703 50.8939 178.556 50.3179 178.556C49.7472 178.556 49.3099 178.703 49.0059 178.996C48.7072 179.289 48.5579 179.684 48.5579 180.18C48.5579 180.42 48.5952 180.641 48.6699 180.844C48.7499 181.041 48.8645 181.212 49.0139 181.356C49.1632 181.5 49.3472 181.612 49.5659 181.692C49.7845 181.772 50.0352 181.812 50.3179 181.812ZM59.0418 177.54C59.6338 177.54 60.1671 177.639 60.6418 177.836C61.1218 178.033 61.5271 178.313 61.8578 178.676C62.1938 179.039 62.4498 179.479 62.6258 179.996C62.8071 180.508 62.8978 181.081 62.8978 181.716C62.8978 182.356 62.8071 182.932 62.6258 183.444C62.4498 183.956 62.1938 184.393 61.8578 184.756C61.5271 185.119 61.1218 185.399 60.6418 185.596C60.1671 185.788 59.6338 185.884 59.0418 185.884C58.4498 185.884 57.9138 185.788 57.4338 185.596C56.9591 185.399 56.5538 185.119 56.2178 184.756C55.8818 184.393 55.6231 183.956 55.4418 183.444C55.2604 182.932 55.1698 182.356 55.1698 181.716C55.1698 181.081 55.2604 180.508 55.4418 179.996C55.6231 179.479 55.8818 179.039 56.2178 178.676C56.5538 178.313 56.9591 178.033 57.4338 177.836C57.9138 177.639 58.4498 177.54 59.0418 177.54ZM59.0418 184.772C59.8418 184.772 60.4391 184.505 60.8338 183.972C61.2284 183.433 61.4258 182.684 61.4258 181.724C61.4258 180.759 61.2284 180.007 60.8338 179.468C60.4391 178.929 59.8418 178.66 59.0418 178.66C58.6364 178.66 58.2844 178.729 57.9858 178.868C57.6871 179.007 57.4364 179.207 57.2338 179.468C57.0364 179.729 56.8871 180.052 56.7858 180.436C56.6898 180.815 56.6418 181.244 56.6418 181.724C56.6418 182.204 56.6898 182.633 56.7858 183.012C56.8871 183.391 57.0364 183.711 57.2338 183.972C57.4364 184.228 57.6871 184.425 57.9858 184.564C58.2844 184.703 58.6364 184.772 59.0418 184.772ZM64.6524 185.772V177.668H65.4684C65.623 177.668 65.7297 177.697 65.7884 177.756C65.847 177.815 65.887 177.916 65.9084 178.06L66.0044 179.324C66.2817 178.759 66.623 178.319 67.0284 178.004C67.439 177.684 67.919 177.524 68.4684 177.524C68.6924 177.524 68.895 177.551 69.0764 177.604C69.2577 177.652 69.4257 177.721 69.5804 177.812L69.3964 178.876C69.359 179.009 69.2764 179.076 69.1484 179.076C69.0737 179.076 68.959 179.052 68.8044 179.004C68.6497 178.951 68.4337 178.924 68.1564 178.924C67.6604 178.924 67.2444 179.068 66.9084 179.356C66.5777 179.644 66.3004 180.063 66.0764 180.612V185.772H64.6524ZM73.4815 188.164C73.4335 188.271 73.3722 188.356 73.2975 188.42C73.2282 188.484 73.1188 188.516 72.9695 188.516H71.9135L73.3935 185.3L70.0495 177.668H71.2815C71.4042 177.668 71.5002 177.7 71.5695 177.764C71.6388 177.823 71.6895 177.889 71.7215 177.964L73.8895 183.068C73.9375 183.185 73.9775 183.303 74.0095 183.42C74.0468 183.537 74.0788 183.657 74.1055 183.78C74.1428 183.657 74.1802 183.537 74.2175 183.42C74.2548 183.303 74.2975 183.183 74.3455 183.06L76.4495 177.964C76.4815 177.879 76.5348 177.809 76.6095 177.756C76.6895 177.697 76.7748 177.668 76.8655 177.668H78.0015L73.4815 188.164ZM86.0268 174.18C86.5121 174.18 86.9654 174.252 87.3868 174.396C87.8081 174.54 88.1708 174.751 88.4748 175.028C88.7841 175.3 89.0268 175.633 89.2028 176.028C89.3788 176.423 89.4668 176.871 89.4668 177.372C89.4668 177.799 89.4028 178.193 89.2748 178.556C89.1468 178.919 88.9734 179.268 88.7548 179.604C88.5361 179.935 88.2828 180.257 87.9948 180.572C87.7121 180.881 87.4108 181.199 87.0908 181.524L84.0748 184.612C84.2881 184.553 84.5041 184.508 84.7228 184.476C84.9414 184.439 85.1521 184.42 85.3548 184.42H89.1948C89.3494 184.42 89.4721 184.465 89.5628 184.556C89.6534 184.647 89.6988 184.764 89.6988 184.908V185.772H82.0508V185.284C82.0508 185.183 82.0694 185.079 82.1068 184.972C82.1494 184.865 82.2161 184.767 82.3068 184.676L85.9788 180.988C86.2828 180.679 86.5601 180.383 86.8108 180.1C87.0614 179.812 87.2748 179.524 87.4508 179.236C87.6321 178.948 87.7708 178.657 87.8668 178.364C87.9628 178.065 88.0108 177.748 88.0108 177.412C88.0108 177.076 87.9574 176.783 87.8508 176.532C87.7441 176.276 87.5974 176.065 87.4108 175.9C87.2241 175.735 87.0054 175.612 86.7548 175.532C86.5041 175.447 86.2348 175.404 85.9468 175.404C85.6588 175.404 85.3921 175.447 85.1468 175.532C84.9014 175.617 84.6828 175.737 84.4908 175.892C84.3041 176.041 84.1441 176.22 84.0108 176.428C83.8828 176.636 83.7921 176.865 83.7388 177.116C83.6961 177.271 83.6321 177.383 83.5468 177.452C83.4614 177.521 83.3494 177.556 83.2108 177.556C83.1841 177.556 83.1548 177.556 83.1228 177.556C83.0961 177.551 83.0641 177.545 83.0268 177.54L82.2828 177.412C82.3574 176.889 82.5014 176.428 82.7148 176.028C82.9281 175.623 83.1974 175.284 83.5228 175.012C83.8534 174.74 84.2294 174.535 84.6508 174.396C85.0774 174.252 85.5361 174.18 86.0268 174.18Z" fill="#AAAAAA"/>
<path d="M43.6025 104.044C43.6025 104.903 43.4665 105.692 43.1945 106.412C42.9225 107.127 42.5385 107.743 42.0425 108.26C41.5465 108.777 40.9492 109.18 40.2505 109.468C39.5572 109.751 38.7892 109.892 37.9465 109.892C37.1038 109.892 36.3358 109.751 35.6425 109.468C34.9492 109.18 34.3545 108.777 33.8585 108.26C33.3625 107.743 32.9785 107.127 32.7065 106.412C32.4345 105.692 32.2985 104.903 32.2985 104.044C32.2985 103.185 32.4345 102.399 32.7065 101.684C32.9785 100.964 33.3625 100.345 33.8585 99.828C34.3545 99.3053 34.9492 98.9 35.6425 98.612C36.3358 98.324 37.1038 98.18 37.9465 98.18C38.7892 98.18 39.5572 98.324 40.2505 98.612C40.9492 98.9 41.5465 99.3053 42.0425 99.828C42.5385 100.345 42.9225 100.964 43.1945 101.684C43.4665 102.399 43.6025 103.185 43.6025 104.044ZM42.0105 104.044C42.0105 103.34 41.9145 102.708 41.7225 102.148C41.5305 101.588 41.2585 101.116 40.9065 100.732C40.5545 100.343 40.1278 100.044 39.6265 99.836C39.1252 99.628 38.5652 99.524 37.9465 99.524C37.3332 99.524 36.7758 99.628 36.2745 99.836C35.7732 100.044 35.3438 100.343 34.9865 100.732C34.6345 101.116 34.3625 101.588 34.1705 102.148C33.9785 102.708 33.8825 103.34 33.8825 104.044C33.8825 104.748 33.9785 105.38 34.1705 105.94C34.3625 106.495 34.6345 106.967 34.9865 107.356C35.3438 107.74 35.7732 108.036 36.2745 108.244C36.7758 108.447 37.3332 108.548 37.9465 108.548C38.5652 108.548 39.1252 108.447 39.6265 108.244C40.1278 108.036 40.5545 107.74 40.9065 107.356C41.2585 106.967 41.5305 106.495 41.7225 105.94C41.9145 105.38 42.0105 104.748 42.0105 104.044ZM45.4961 112.516V101.668H46.3441C46.5468 101.668 46.6748 101.767 46.7281 101.964L46.8481 102.924C47.1948 102.503 47.5895 102.164 48.0321 101.908C48.4801 101.652 48.9948 101.524 49.5761 101.524C50.0401 101.524 50.4615 101.615 50.8401 101.796C51.2188 101.972 51.5415 102.236 51.8081 102.588C52.0748 102.935 52.2801 103.367 52.4241 103.884C52.5681 104.401 52.6401 104.996 52.6401 105.668C52.6401 106.265 52.5601 106.823 52.4001 107.34C52.2401 107.852 52.0108 108.297 51.7121 108.676C51.4135 109.049 51.0455 109.345 50.6081 109.564C50.1761 109.777 49.6881 109.884 49.1441 109.884C48.6428 109.884 48.2135 109.801 47.8561 109.636C47.5041 109.471 47.1921 109.236 46.9201 108.932V112.516H45.4961ZM49.1041 102.676C48.6401 102.676 48.2321 102.783 47.8801 102.996C47.5335 103.209 47.2135 103.511 46.9201 103.9V107.82C47.1815 108.172 47.4668 108.42 47.7761 108.564C48.0908 108.708 48.4401 108.78 48.8241 108.78C49.5761 108.78 50.1548 108.511 50.5601 107.972C50.9655 107.433 51.1681 106.665 51.1681 105.668C51.1681 105.14 51.1201 104.687 51.0241 104.308C50.9335 103.929 50.8001 103.62 50.6241 103.38C50.4481 103.135 50.2321 102.956 49.9761 102.844C49.7201 102.732 49.4295 102.676 49.1041 102.676ZM56.7803 109.9C56.1403 109.9 55.6469 109.721 55.3003 109.364C54.9589 109.007 54.7883 108.492 54.7883 107.82V102.86H53.8123C53.7269 102.86 53.6549 102.836 53.5963 102.788C53.5376 102.735 53.5083 102.655 53.5083 102.548V101.98L54.8363 101.812L55.1643 99.308C55.1749 99.228 55.2096 99.164 55.2682 99.116C55.3269 99.0627 55.4016 99.036 55.4923 99.036H56.2123V101.828H58.5323V102.86H56.2123V107.724C56.2123 108.065 56.2949 108.319 56.4603 108.484C56.6256 108.649 56.8389 108.732 57.1003 108.732C57.2496 108.732 57.3776 108.713 57.4843 108.676C57.5963 108.633 57.6923 108.588 57.7723 108.54C57.8523 108.492 57.9189 108.449 57.9723 108.412C58.0309 108.369 58.0816 108.348 58.1243 108.348C58.1989 108.348 58.2656 108.393 58.3243 108.484L58.7403 109.164C58.4949 109.393 58.1989 109.575 57.8523 109.708C57.5056 109.836 57.1483 109.9 56.7803 109.9ZM61.877 101.668V109.772H60.453V101.668H61.877ZM62.197 99.124C62.197 99.2627 62.1677 99.3933 62.109 99.516C62.0557 99.6333 61.981 99.74 61.885 99.836C61.7943 99.9267 61.6877 99.9987 61.565 100.052C61.4423 100.105 61.3117 100.132 61.173 100.132C61.0343 100.132 60.9037 100.105 60.781 100.052C60.6637 99.9987 60.557 99.9267 60.461 99.836C60.3703 99.74 60.2983 99.6333 60.245 99.516C60.1917 99.3933 60.165 99.2627 60.165 99.124C60.165 98.9853 60.1917 98.8547 60.245 98.732C60.2983 98.604 60.3703 98.4947 60.461 98.404C60.557 98.308 60.6637 98.2333 60.781 98.18C60.9037 98.1267 61.0343 98.1 61.173 98.1C61.3117 98.1 61.4423 98.1267 61.565 98.18C61.6877 98.2333 61.7943 98.308 61.885 98.404C61.981 98.4947 62.0557 98.604 62.109 98.732C62.1677 98.8547 62.197 98.9853 62.197 99.124ZM67.6668 101.54C68.2588 101.54 68.7921 101.639 69.2668 101.836C69.7468 102.033 70.1521 102.313 70.4828 102.676C70.8188 103.039 71.0748 103.479 71.2508 103.996C71.4321 104.508 71.5228 105.081 71.5228 105.716C71.5228 106.356 71.4321 106.932 71.2508 107.444C71.0748 107.956 70.8188 108.393 70.4828 108.756C70.1521 109.119 69.7468 109.399 69.2668 109.596C68.7921 109.788 68.2588 109.884 67.6668 109.884C67.0748 109.884 66.5388 109.788 66.0588 109.596C65.5841 109.399 65.1788 109.119 64.8428 108.756C64.5068 108.393 64.2481 107.956 64.0668 107.444C63.8854 106.932 63.7948 106.356 63.7948 105.716C63.7948 105.081 63.8854 104.508 64.0668 103.996C64.2481 103.479 64.5068 103.039 64.8428 102.676C65.1788 102.313 65.5841 102.033 66.0588 101.836C66.5388 101.639 67.0748 101.54 67.6668 101.54ZM67.6668 108.772C68.4668 108.772 69.0641 108.505 69.4588 107.972C69.8534 107.433 70.0508 106.684 70.0508 105.724C70.0508 104.759 69.8534 104.007 69.4588 103.468C69.0641 102.929 68.4668 102.66 67.6668 102.66C67.2614 102.66 66.9094 102.729 66.6108 102.868C66.3121 103.007 66.0614 103.207 65.8588 103.468C65.6614 103.729 65.5121 104.052 65.4108 104.436C65.3148 104.815 65.2668 105.244 65.2668 105.724C65.2668 106.204 65.3148 106.633 65.4108 107.012C65.5121 107.391 65.6614 107.711 65.8588 107.972C66.0614 108.228 66.3121 108.425 66.6108 108.564C66.9094 108.703 67.2614 108.772 67.6668 108.772ZM73.2774 109.772V101.668H74.1254C74.328 101.668 74.456 101.767 74.5094 101.964L74.6214 102.844C74.9734 102.455 75.3654 102.14 75.7974 101.9C76.2347 101.66 76.7387 101.54 77.3094 101.54C77.752 101.54 78.1414 101.615 78.4774 101.764C78.8187 101.908 79.1014 102.116 79.3254 102.388C79.5547 102.655 79.728 102.977 79.8454 103.356C79.9627 103.735 80.0214 104.153 80.0214 104.612V109.772H78.5974V104.612C78.5974 103.999 78.456 103.524 78.1734 103.188C77.896 102.847 77.4694 102.676 76.8934 102.676C76.472 102.676 76.0774 102.777 75.7094 102.98C75.3467 103.183 75.0107 103.457 74.7014 103.804V109.772H73.2774ZM86.3898 108.684H88.8538V100.868C88.8538 100.633 88.8618 100.396 88.8778 100.156L86.8298 101.908C86.7764 101.951 86.7231 101.983 86.6698 102.004C86.6164 102.02 86.5658 102.028 86.5178 102.028C86.4378 102.028 86.3658 102.012 86.3018 101.98C86.2378 101.943 86.1898 101.9 86.1578 101.852L85.7098 101.236L89.1178 98.284H90.2778V108.684H92.5338V109.772H86.3898V108.684ZM43.6025 142.044C43.6025 142.903 43.4665 143.692 43.1945 144.412C42.9225 145.127 42.5385 145.743 42.0425 146.26C41.5465 146.777 40.9492 147.18 40.2505 147.468C39.5572 147.751 38.7892 147.892 37.9465 147.892C37.1038 147.892 36.3358 147.751 35.6425 147.468C34.9492 147.18 34.3545 146.777 33.8585 146.26C33.3625 145.743 32.9785 145.127 32.7065 144.412C32.4345 143.692 32.2985 142.903 32.2985 142.044C32.2985 141.185 32.4345 140.399 32.7065 139.684C32.9785 138.964 33.3625 138.345 33.8585 137.828C34.3545 137.305 34.9492 136.9 35.6425 136.612C36.3358 136.324 37.1038 136.18 37.9465 136.18C38.7892 136.18 39.5572 136.324 40.2505 136.612C40.9492 136.9 41.5465 137.305 42.0425 137.828C42.5385 138.345 42.9225 138.964 43.1945 139.684C43.4665 140.399 43.6025 141.185 43.6025 142.044ZM42.0105 142.044C42.0105 141.34 41.9145 140.708 41.7225 140.148C41.5305 139.588 41.2585 139.116 40.9065 138.732C40.5545 138.343 40.1278 138.044 39.6265 137.836C39.1252 137.628 38.5652 137.524 37.9465 137.524C37.3332 137.524 36.7758 137.628 36.2745 137.836C35.7732 138.044 35.3438 138.343 34.9865 138.732C34.6345 139.116 34.3625 139.588 34.1705 140.148C33.9785 140.708 33.8825 141.34 33.8825 142.044C33.8825 142.748 33.9785 143.38 34.1705 143.94C34.3625 144.495 34.6345 144.967 34.9865 145.356C35.3438 145.74 35.7732 146.036 36.2745 146.244C36.7758 146.447 37.3332 146.548 37.9465 146.548C38.5652 146.548 39.1252 146.447 39.6265 146.244C40.1278 146.036 40.5545 145.74 40.9065 145.356C41.2585 144.967 41.5305 144.495 41.7225 143.94C41.9145 143.38 42.0105 142.748 42.0105 142.044ZM45.4961 150.516V139.668H46.3441C46.5468 139.668 46.6748 139.767 46.7281 139.964L46.8481 140.924C47.1948 140.503 47.5895 140.164 48.0321 139.908C48.4801 139.652 48.9948 139.524 49.5761 139.524C50.0401 139.524 50.4615 139.615 50.8401 139.796C51.2188 139.972 51.5415 140.236 51.8081 140.588C52.0748 140.935 52.2801 141.367 52.4241 141.884C52.5681 142.401 52.6401 142.996 52.6401 143.668C52.6401 144.265 52.5601 144.823 52.4001 145.34C52.2401 145.852 52.0108 146.297 51.7121 146.676C51.4135 147.049 51.0455 147.345 50.6081 147.564C50.1761 147.777 49.6881 147.884 49.1441 147.884C48.6428 147.884 48.2135 147.801 47.8561 147.636C47.5041 147.471 47.1921 147.236 46.9201 146.932V150.516H45.4961ZM49.1041 140.676C48.6401 140.676 48.2321 140.783 47.8801 140.996C47.5335 141.209 47.2135 141.511 46.9201 141.9V145.82C47.1815 146.172 47.4668 146.42 47.7761 146.564C48.0908 146.708 48.4401 146.78 48.8241 146.78C49.5761 146.78 50.1548 146.511 50.5601 145.972C50.9655 145.433 51.1681 144.665 51.1681 143.668C51.1681 143.14 51.1201 142.687 51.0241 142.308C50.9335 141.929 50.8001 141.62 50.6241 141.38C50.4481 141.135 50.2321 140.956 49.9761 140.844C49.7201 140.732 49.4295 140.676 49.1041 140.676ZM56.7803 147.9C56.1403 147.9 55.6469 147.721 55.3003 147.364C54.9589 147.007 54.7883 146.492 54.7883 145.82V140.86H53.8123C53.7269 140.86 53.6549 140.836 53.5963 140.788C53.5376 140.735 53.5083 140.655 53.5083 140.548V139.98L54.8363 139.812L55.1643 137.308C55.1749 137.228 55.2096 137.164 55.2682 137.116C55.3269 137.063 55.4016 137.036 55.4923 137.036H56.2123V139.828H58.5323V140.86H56.2123V145.724C56.2123 146.065 56.2949 146.319 56.4603 146.484C56.6256 146.649 56.8389 146.732 57.1003 146.732C57.2496 146.732 57.3776 146.713 57.4843 146.676C57.5963 146.633 57.6923 146.588 57.7723 146.54C57.8523 146.492 57.9189 146.449 57.9723 146.412C58.0309 146.369 58.0816 146.348 58.1243 146.348C58.1989 146.348 58.2656 146.393 58.3243 146.484L58.7403 147.164C58.4949 147.393 58.1989 147.575 57.8523 147.708C57.5056 147.836 57.1483 147.9 56.7803 147.9ZM61.877 139.668V147.772H60.453V139.668H61.877ZM62.197 137.124C62.197 137.263 62.1677 137.393 62.109 137.516C62.0557 137.633 61.981 137.74 61.885 137.836C61.7943 137.927 61.6877 137.999 61.565 138.052C61.4423 138.105 61.3117 138.132 61.173 138.132C61.0343 138.132 60.9037 138.105 60.781 138.052C60.6637 137.999 60.557 137.927 60.461 137.836C60.3703 137.74 60.2983 137.633 60.245 137.516C60.1917 137.393 60.165 137.263 60.165 137.124C60.165 136.985 60.1917 136.855 60.245 136.732C60.2983 136.604 60.3703 136.495 60.461 136.404C60.557 136.308 60.6637 136.233 60.781 136.18C60.9037 136.127 61.0343 136.1 61.173 136.1C61.3117 136.1 61.4423 136.127 61.565 136.18C61.6877 136.233 61.7943 136.308 61.885 136.404C61.981 136.495 62.0557 136.604 62.109 136.732C62.1677 136.855 62.197 136.985 62.197 137.124ZM67.6668 139.54C68.2588 139.54 68.7921 139.639 69.2668 139.836C69.7468 140.033 70.1521 140.313 70.4828 140.676C70.8188 141.039 71.0748 141.479 71.2508 141.996C71.4321 142.508 71.5228 143.081 71.5228 143.716C71.5228 144.356 71.4321 144.932 71.2508 145.444C71.0748 145.956 70.8188 146.393 70.4828 146.756C70.1521 147.119 69.7468 147.399 69.2668 147.596C68.7921 147.788 68.2588 147.884 67.6668 147.884C67.0748 147.884 66.5388 147.788 66.0588 147.596C65.5841 147.399 65.1788 147.119 64.8428 146.756C64.5068 146.393 64.2481 145.956 64.0668 145.444C63.8854 144.932 63.7948 144.356 63.7948 143.716C63.7948 143.081 63.8854 142.508 64.0668 141.996C64.2481 141.479 64.5068 141.039 64.8428 140.676C65.1788 140.313 65.5841 140.033 66.0588 139.836C66.5388 139.639 67.0748 139.54 67.6668 139.54ZM67.6668 146.772C68.4668 146.772 69.0641 146.505 69.4588 145.972C69.8534 145.433 70.0508 144.684 70.0508 143.724C70.0508 142.759 69.8534 142.007 69.4588 141.468C69.0641 140.929 68.4668 140.66 67.6668 140.66C67.2614 140.66 66.9094 140.729 66.6108 140.868C66.3121 141.007 66.0614 141.207 65.8588 141.468C65.6614 141.729 65.5121 142.052 65.4108 142.436C65.3148 142.815 65.2668 143.244 65.2668 143.724C65.2668 144.204 65.3148 144.633 65.4108 145.012C65.5121 145.391 65.6614 145.711 65.8588 145.972C66.0614 146.228 66.3121 146.425 66.6108 146.564C66.9094 146.703 67.2614 146.772 67.6668 146.772ZM73.2774 147.772V139.668H74.1254C74.328 139.668 74.456 139.767 74.5094 139.964L74.6214 140.844C74.9734 140.455 75.3654 140.14 75.7974 139.9C76.2347 139.66 76.7387 139.54 77.3094 139.54C77.752 139.54 78.1414 139.615 78.4774 139.764C78.8187 139.908 79.1014 140.116 79.3254 140.388C79.5547 140.655 79.728 140.977 79.8454 141.356C79.9627 141.735 80.0214 142.153 80.0214 142.612V147.772H78.5974V142.612C78.5974 141.999 78.456 141.524 78.1734 141.188C77.896 140.847 77.4694 140.676 76.8934 140.676C76.472 140.676 76.0774 140.777 75.7094 140.98C75.3467 141.183 75.0107 141.457 74.7014 141.804V147.772H73.2774ZM88.9018 136.18C89.3871 136.18 89.8404 136.252 90.2618 136.396C90.6831 136.54 91.0458 136.751 91.3498 137.028C91.6591 137.3 91.9018 137.633 92.0778 138.028C92.2538 138.423 92.3418 138.871 92.3418 139.372C92.3418 139.799 92.2778 140.193 92.1498 140.556C92.0218 140.919 91.8484 141.268 91.6298 141.604C91.4111 141.935 91.1578 142.257 90.8698 142.572C90.5871 142.881 90.2858 143.199 89.9658 143.524L86.9498 146.612C87.1631 146.553 87.3791 146.508 87.5978 146.476C87.8164 146.439 88.0271 146.42 88.2298 146.42H92.0698C92.2244 146.42 92.3471 146.465 92.4378 146.556C92.5284 146.647 92.5738 146.764 92.5738 146.908V147.772H84.9258V147.284C84.9258 147.183 84.9444 147.079 84.9818 146.972C85.0244 146.865 85.0911 146.767 85.1818 146.676L88.8538 142.988C89.1578 142.679 89.4351 142.383 89.6858 142.1C89.9364 141.812 90.1498 141.524 90.3258 141.236C90.5071 140.948 90.6458 140.657 90.7418 140.364C90.8378 140.065 90.8858 139.748 90.8858 139.412C90.8858 139.076 90.8324 138.783 90.7258 138.532C90.6191 138.276 90.4724 138.065 90.2858 137.9C90.0991 137.735 89.8804 137.612 89.6298 137.532C89.3791 137.447 89.1098 137.404 88.8218 137.404C88.5338 137.404 88.2671 137.447 88.0218 137.532C87.7764 137.617 87.5578 137.737 87.3658 137.892C87.1791 138.041 87.0191 138.22 86.8858 138.428C86.7578 138.636 86.6671 138.865 86.6138 139.116C86.5711 139.271 86.5071 139.383 86.4218 139.452C86.3364 139.521 86.2244 139.556 86.0858 139.556C86.0591 139.556 86.0298 139.556 85.9978 139.556C85.9711 139.551 85.9391 139.545 85.9018 139.54L85.1578 139.412C85.2324 138.889 85.3764 138.428 85.5898 138.028C85.8031 137.623 86.0724 137.284 86.3978 137.012C86.7284 136.74 87.1044 136.535 87.5258 136.396C87.9524 136.252 88.4111 136.18 88.9018 136.18ZM43.6025 218.044C43.6025 218.903 43.4665 219.692 43.1945 220.412C42.9225 221.127 42.5385 221.743 42.0425 222.26C41.5465 222.777 40.9492 223.18 40.2505 223.468C39.5572 223.751 38.7892 223.892 37.9465 223.892C37.1038 223.892 36.3358 223.751 35.6425 223.468C34.9492 223.18 34.3545 222.777 33.8585 222.26C33.3625 221.743 32.9785 221.127 32.7065 220.412C32.4345 219.692 32.2985 218.903 32.2985 218.044C32.2985 217.185 32.4345 216.399 32.7065 215.684C32.9785 214.964 33.3625 214.345 33.8585 213.828C34.3545 213.305 34.9492 212.9 35.6425 212.612C36.3358 212.324 37.1038 212.18 37.9465 212.18C38.7892 212.18 39.5572 212.324 40.2505 212.612C40.9492 212.9 41.5465 213.305 42.0425 213.828C42.5385 214.345 42.9225 214.964 43.1945 215.684C43.4665 216.399 43.6025 217.185 43.6025 218.044ZM42.0105 218.044C42.0105 217.34 41.9145 216.708 41.7225 216.148C41.5305 215.588 41.2585 215.116 40.9065 214.732C40.5545 214.343 40.1278 214.044 39.6265 213.836C39.1252 213.628 38.5652 213.524 37.9465 213.524C37.3332 213.524 36.7758 213.628 36.2745 213.836C35.7732 214.044 35.3438 214.343 34.9865 214.732C34.6345 215.116 34.3625 215.588 34.1705 216.148C33.9785 216.708 33.8825 217.34 33.8825 218.044C33.8825 218.748 33.9785 219.38 34.1705 219.94C34.3625 220.495 34.6345 220.967 34.9865 221.356C35.3438 221.74 35.7732 222.036 36.2745 222.244C36.7758 222.447 37.3332 222.548 37.9465 222.548C38.5652 222.548 39.1252 222.447 39.6265 222.244C40.1278 222.036 40.5545 221.74 40.9065 221.356C41.2585 220.967 41.5305 220.495 41.7225 219.94C41.9145 219.38 42.0105 218.748 42.0105 218.044ZM45.4961 226.516V215.668H46.3441C46.5468 215.668 46.6748 215.767 46.7281 215.964L46.8481 216.924C47.1948 216.503 47.5895 216.164 48.0321 215.908C48.4801 215.652 48.9948 215.524 49.5761 215.524C50.0401 215.524 50.4615 215.615 50.8401 215.796C51.2188 215.972 51.5415 216.236 51.8081 216.588C52.0748 216.935 52.2801 217.367 52.4241 217.884C52.5681 218.401 52.6401 218.996 52.6401 219.668C52.6401 220.265 52.5601 220.823 52.4001 221.34C52.2401 221.852 52.0108 222.297 51.7121 222.676C51.4135 223.049 51.0455 223.345 50.6081 223.564C50.1761 223.777 49.6881 223.884 49.1441 223.884C48.6428 223.884 48.2135 223.801 47.8561 223.636C47.5041 223.471 47.1921 223.236 46.9201 222.932V226.516H45.4961ZM49.1041 216.676C48.6401 216.676 48.2321 216.783 47.8801 216.996C47.5335 217.209 47.2135 217.511 46.9201 217.9V221.82C47.1815 222.172 47.4668 222.42 47.7761 222.564C48.0908 222.708 48.4401 222.78 48.8241 222.78C49.5761 222.78 50.1548 222.511 50.5601 221.972C50.9655 221.433 51.1681 220.665 51.1681 219.668C51.1681 219.14 51.1201 218.687 51.0241 218.308C50.9335 217.929 50.8001 217.62 50.6241 217.38C50.4481 217.135 50.2321 216.956 49.9761 216.844C49.7201 216.732 49.4295 216.676 49.1041 216.676ZM56.7803 223.9C56.1403 223.9 55.6469 223.721 55.3003 223.364C54.9589 223.007 54.7883 222.492 54.7883 221.82V216.86H53.8123C53.7269 216.86 53.6549 216.836 53.5963 216.788C53.5376 216.735 53.5083 216.655 53.5083 216.548V215.98L54.8363 215.812L55.1643 213.308C55.1749 213.228 55.2096 213.164 55.2682 213.116C55.3269 213.063 55.4016 213.036 55.4923 213.036H56.2123V215.828H58.5323V216.86H56.2123V221.724C56.2123 222.065 56.2949 222.319 56.4603 222.484C56.6256 222.649 56.8389 222.732 57.1003 222.732C57.2496 222.732 57.3776 222.713 57.4843 222.676C57.5963 222.633 57.6923 222.588 57.7723 222.54C57.8523 222.492 57.9189 222.449 57.9723 222.412C58.0309 222.369 58.0816 222.348 58.1243 222.348C58.1989 222.348 58.2656 222.393 58.3243 222.484L58.7403 223.164C58.4949 223.393 58.1989 223.575 57.8523 223.708C57.5056 223.836 57.1483 223.9 56.7803 223.9ZM61.877 215.668V223.772H60.453V215.668H61.877ZM62.197 213.124C62.197 213.263 62.1677 213.393 62.109 213.516C62.0557 213.633 61.981 213.74 61.885 213.836C61.7943 213.927 61.6877 213.999 61.565 214.052C61.4423 214.105 61.3117 214.132 61.173 214.132C61.0343 214.132 60.9037 214.105 60.781 214.052C60.6637 213.999 60.557 213.927 60.461 213.836C60.3703 213.74 60.2983 213.633 60.245 213.516C60.1917 213.393 60.165 213.263 60.165 213.124C60.165 212.985 60.1917 212.855 60.245 212.732C60.2983 212.604 60.3703 212.495 60.461 212.404C60.557 212.308 60.6637 212.233 60.781 212.18C60.9037 212.127 61.0343 212.1 61.173 212.1C61.3117 212.1 61.4423 212.127 61.565 212.18C61.6877 212.233 61.7943 212.308 61.885 212.404C61.981 212.495 62.0557 212.604 62.109 212.732C62.1677 212.855 62.197 212.985 62.197 213.124ZM67.6668 215.54C68.2588 215.54 68.7921 215.639 69.2668 215.836C69.7468 216.033 70.1521 216.313 70.4828 216.676C70.8188 217.039 71.0748 217.479 71.2508 217.996C71.4321 218.508 71.5228 219.081 71.5228 219.716C71.5228 220.356 71.4321 220.932 71.2508 221.444C71.0748 221.956 70.8188 222.393 70.4828 222.756C70.1521 223.119 69.7468 223.399 69.2668 223.596C68.7921 223.788 68.2588 223.884 67.6668 223.884C67.0748 223.884 66.5388 223.788 66.0588 223.596C65.5841 223.399 65.1788 223.119 64.8428 222.756C64.5068 222.393 64.2481 221.956 64.0668 221.444C63.8854 220.932 63.7948 220.356 63.7948 219.716C63.7948 219.081 63.8854 218.508 64.0668 217.996C64.2481 217.479 64.5068 217.039 64.8428 216.676C65.1788 216.313 65.5841 216.033 66.0588 215.836C66.5388 215.639 67.0748 215.54 67.6668 215.54ZM67.6668 222.772C68.4668 222.772 69.0641 222.505 69.4588 221.972C69.8534 221.433 70.0508 220.684 70.0508 219.724C70.0508 218.759 69.8534 218.007 69.4588 217.468C69.0641 216.929 68.4668 216.66 67.6668 216.66C67.2614 216.66 66.9094 216.729 66.6108 216.868C66.3121 217.007 66.0614 217.207 65.8588 217.468C65.6614 217.729 65.5121 218.052 65.4108 218.436C65.3148 218.815 65.2668 219.244 65.2668 219.724C65.2668 220.204 65.3148 220.633 65.4108 221.012C65.5121 221.391 65.6614 221.711 65.8588 221.972C66.0614 222.228 66.3121 222.425 66.6108 222.564C66.9094 222.703 67.2614 222.772 67.6668 222.772ZM73.2774 223.772V215.668H74.1254C74.328 215.668 74.456 215.767 74.5094 215.964L74.6214 216.844C74.9734 216.455 75.3654 216.14 75.7974 215.9C76.2347 215.66 76.7387 215.54 77.3094 215.54C77.752 215.54 78.1414 215.615 78.4774 215.764C78.8187 215.908 79.1014 216.116 79.3254 216.388C79.5547 216.655 79.728 216.977 79.8454 217.356C79.9627 217.735 80.0214 218.153 80.0214 218.612V223.772H78.5974V218.612C78.5974 217.999 78.456 217.524 78.1734 217.188C77.896 216.847 77.4694 216.676 76.8934 216.676C76.472 216.676 76.0774 216.777 75.7094 216.98C75.3467 217.183 75.0107 217.457 74.7014 217.804V223.772H73.2774ZM89.0538 212.18C89.5391 212.18 89.9871 212.249 90.3978 212.388C90.8084 212.527 91.1604 212.724 91.4538 212.98C91.7524 213.236 91.9844 213.545 92.1498 213.908C92.3151 214.271 92.3978 214.673 92.3978 215.116C92.3978 215.479 92.3498 215.804 92.2538 216.092C92.1631 216.375 92.0298 216.625 91.8538 216.844C91.6831 217.057 91.4751 217.239 91.2298 217.388C90.9844 217.537 90.7098 217.657 90.4058 217.748C91.1524 217.945 91.7124 218.276 92.0858 218.74C92.4644 219.204 92.6538 219.785 92.6538 220.484C92.6538 221.012 92.5524 221.487 92.3498 221.908C92.1524 222.329 91.8804 222.689 91.5338 222.988C91.1871 223.281 90.7818 223.508 90.3178 223.668C89.8591 223.823 89.3658 223.9 88.8378 223.9C88.2298 223.9 87.7098 223.825 87.2778 223.676C86.8458 223.521 86.4804 223.311 86.1818 223.044C85.8831 222.777 85.6378 222.463 85.4458 222.1C85.2538 221.732 85.0911 221.335 84.9578 220.908L85.5658 220.652C85.6778 220.604 85.7898 220.58 85.9018 220.58C86.0084 220.58 86.1018 220.604 86.1818 220.652C86.2671 220.695 86.3311 220.764 86.3738 220.86C86.3844 220.881 86.3951 220.905 86.4058 220.932C86.4164 220.953 86.4271 220.977 86.4378 221.004C86.5124 221.159 86.6031 221.335 86.7098 221.532C86.8164 221.724 86.9604 221.905 87.1418 222.076C87.3231 222.247 87.5471 222.391 87.8138 222.508C88.0858 222.625 88.4218 222.684 88.8218 222.684C89.2218 222.684 89.5711 222.62 89.8698 222.492C90.1738 222.359 90.4244 222.188 90.6218 221.98C90.8244 221.772 90.9764 221.54 91.0778 221.284C91.1791 221.028 91.2298 220.775 91.2298 220.524C91.2298 220.215 91.1871 219.932 91.1018 219.676C91.0218 219.42 90.8724 219.199 90.6538 219.012C90.4404 218.825 90.1418 218.679 89.7578 218.572C89.3791 218.465 88.8911 218.412 88.2938 218.412V217.38C88.7791 217.375 89.1924 217.321 89.5338 217.22C89.8804 217.119 90.1631 216.98 90.3818 216.804C90.6004 216.628 90.7578 216.417 90.8538 216.172C90.9551 215.927 91.0058 215.655 91.0058 215.356C91.0058 215.025 90.9524 214.737 90.8458 214.492C90.7444 214.247 90.6031 214.044 90.4218 213.884C90.2404 213.724 90.0244 213.604 89.7738 213.524C89.5284 213.444 89.2618 213.404 88.9738 213.404C88.6858 213.404 88.4191 213.447 88.1738 213.532C87.9284 213.617 87.7098 213.737 87.5178 213.892C87.3311 214.041 87.1738 214.223 87.0458 214.436C86.9178 214.644 86.8218 214.871 86.7578 215.116C86.7151 215.271 86.6511 215.383 86.5658 215.452C86.4804 215.521 86.3711 215.556 86.2378 215.556C86.2111 215.556 86.1818 215.556 86.1497 215.556C86.1231 215.551 86.0911 215.545 86.0538 215.54L85.3098 215.412C85.3844 214.889 85.5284 214.428 85.7418 214.028C85.9551 213.623 86.2244 213.284 86.5498 213.012C86.8804 212.74 87.2564 212.535 87.6778 212.396C88.1044 212.252 88.5631 212.18 89.0538 212.18ZM43.6025 256.044C43.6025 256.903 43.4665 257.692 43.1945 258.412C42.9225 259.127 42.5385 259.743 42.0425 260.26C41.5465 260.777 40.9492 261.18 40.2505 261.468C39.5572 261.751 38.7892 261.892 37.9465 261.892C37.1038 261.892 36.3358 261.751 35.6425 261.468C34.9492 261.18 34.3545 260.777 33.8585 260.26C33.3625 259.743 32.9785 259.127 32.7065 258.412C32.4345 257.692 32.2985 256.903 32.2985 256.044C32.2985 255.185 32.4345 254.399 32.7065 253.684C32.9785 252.964 33.3625 252.345 33.8585 251.828C34.3545 251.305 34.9492 250.9 35.6425 250.612C36.3358 250.324 37.1038 250.18 37.9465 250.18C38.7892 250.18 39.5572 250.324 40.2505 250.612C40.9492 250.9 41.5465 251.305 42.0425 251.828C42.5385 252.345 42.9225 252.964 43.1945 253.684C43.4665 254.399 43.6025 255.185 43.6025 256.044ZM42.0105 256.044C42.0105 255.34 41.9145 254.708 41.7225 254.148C41.5305 253.588 41.2585 253.116 40.9065 252.732C40.5545 252.343 40.1278 252.044 39.6265 251.836C39.1252 251.628 38.5652 251.524 37.9465 251.524C37.3332 251.524 36.7758 251.628 36.2745 251.836C35.7732 252.044 35.3438 252.343 34.9865 252.732C34.6345 253.116 34.3625 253.588 34.1705 254.148C33.9785 254.708 33.8825 255.34 33.8825 256.044C33.8825 256.748 33.9785 257.38 34.1705 257.94C34.3625 258.495 34.6345 258.967 34.9865 259.356C35.3438 259.74 35.7732 260.036 36.2745 260.244C36.7758 260.447 37.3332 260.548 37.9465 260.548C38.5652 260.548 39.1252 260.447 39.6265 260.244C40.1278 260.036 40.5545 259.74 40.9065 259.356C41.2585 258.967 41.5305 258.495 41.7225 257.94C41.9145 257.38 42.0105 256.748 42.0105 256.044ZM45.4961 264.516V253.668H46.3441C46.5468 253.668 46.6748 253.767 46.7281 253.964L46.8481 254.924C47.1948 254.503 47.5895 254.164 48.0321 253.908C48.4801 253.652 48.9948 253.524 49.5761 253.524C50.0401 253.524 50.4615 253.615 50.8401 253.796C51.2188 253.972 51.5415 254.236 51.8081 254.588C52.0748 254.935 52.2801 255.367 52.4241 255.884C52.5681 256.401 52.6401 256.996 52.6401 257.668C52.6401 258.265 52.5601 258.823 52.4001 259.34C52.2401 259.852 52.0108 260.297 51.7121 260.676C51.4135 261.049 51.0455 261.345 50.6081 261.564C50.1761 261.777 49.6881 261.884 49.1441 261.884C48.6428 261.884 48.2135 261.801 47.8561 261.636C47.5041 261.471 47.1921 261.236 46.9201 260.932V264.516H45.4961ZM49.1041 254.676C48.6401 254.676 48.2321 254.783 47.8801 254.996C47.5335 255.209 47.2135 255.511 46.9201 255.9V259.82C47.1815 260.172 47.4668 260.42 47.7761 260.564C48.0908 260.708 48.4401 260.78 48.8241 260.78C49.5761 260.78 50.1548 260.511 50.5601 259.972C50.9655 259.433 51.1681 258.665 51.1681 257.668C51.1681 257.14 51.1201 256.687 51.0241 256.308C50.9335 255.929 50.8001 255.62 50.6241 255.38C50.4481 255.135 50.2321 254.956 49.9761 254.844C49.7201 254.732 49.4295 254.676 49.1041 254.676ZM56.7803 261.9C56.1403 261.9 55.6469 261.721 55.3003 261.364C54.9589 261.007 54.7883 260.492 54.7883 259.82V254.86H53.8123C53.7269 254.86 53.6549 254.836 53.5963 254.788C53.5376 254.735 53.5083 254.655 53.5083 254.548V253.98L54.8363 253.812L55.1643 251.308C55.1749 251.228 55.2096 251.164 55.2682 251.116C55.3269 251.063 55.4016 251.036 55.4923 251.036H56.2123V253.828H58.5323V254.86H56.2123V259.724C56.2123 260.065 56.2949 260.319 56.4603 260.484C56.6256 260.649 56.8389 260.732 57.1003 260.732C57.2496 260.732 57.3776 260.713 57.4843 260.676C57.5963 260.633 57.6923 260.588 57.7723 260.54C57.8523 260.492 57.9189 260.449 57.9723 260.412C58.0309 260.369 58.0816 260.348 58.1243 260.348C58.1989 260.348 58.2656 260.393 58.3243 260.484L58.7403 261.164C58.4949 261.393 58.1989 261.575 57.8523 261.708C57.5056 261.836 57.1483 261.9 56.7803 261.9ZM61.877 253.668V261.772H60.453V253.668H61.877ZM62.197 251.124C62.197 251.263 62.1677 251.393 62.109 251.516C62.0557 251.633 61.981 251.74 61.885 251.836C61.7943 251.927 61.6877 251.999 61.565 252.052C61.4423 252.105 61.3117 252.132 61.173 252.132C61.0343 252.132 60.9037 252.105 60.781 252.052C60.6637 251.999 60.557 251.927 60.461 251.836C60.3703 251.74 60.2983 251.633 60.245 251.516C60.1917 251.393 60.165 251.263 60.165 251.124C60.165 250.985 60.1917 250.855 60.245 250.732C60.2983 250.604 60.3703 250.495 60.461 250.404C60.557 250.308 60.6637 250.233 60.781 250.18C60.9037 250.127 61.0343 250.1 61.173 250.1C61.3117 250.1 61.4423 250.127 61.565 250.18C61.6877 250.233 61.7943 250.308 61.885 250.404C61.981 250.495 62.0557 250.604 62.109 250.732C62.1677 250.855 62.197 250.985 62.197 251.124ZM67.6668 253.54C68.2588 253.54 68.7921 253.639 69.2668 253.836C69.7468 254.033 70.1521 254.313 70.4828 254.676C70.8188 255.039 71.0748 255.479 71.2508 255.996C71.4321 256.508 71.5228 257.081 71.5228 257.716C71.5228 258.356 71.4321 258.932 71.2508 259.444C71.0748 259.956 70.8188 260.393 70.4828 260.756C70.1521 261.119 69.7468 261.399 69.2668 261.596C68.7921 261.788 68.2588 261.884 67.6668 261.884C67.0748 261.884 66.5388 261.788 66.0588 261.596C65.5841 261.399 65.1788 261.119 64.8428 260.756C64.5068 260.393 64.2481 259.956 64.0668 259.444C63.8854 258.932 63.7948 258.356 63.7948 257.716C63.7948 257.081 63.8854 256.508 64.0668 255.996C64.2481 255.479 64.5068 255.039 64.8428 254.676C65.1788 254.313 65.5841 254.033 66.0588 253.836C66.5388 253.639 67.0748 253.54 67.6668 253.54ZM67.6668 260.772C68.4668 260.772 69.0641 260.505 69.4588 259.972C69.8534 259.433 70.0508 258.684 70.0508 257.724C70.0508 256.759 69.8534 256.007 69.4588 255.468C69.0641 254.929 68.4668 254.66 67.6668 254.66C67.2614 254.66 66.9094 254.729 66.6108 254.868C66.3121 255.007 66.0614 255.207 65.8588 255.468C65.6614 255.729 65.5121 256.052 65.4108 256.436C65.3148 256.815 65.2668 257.244 65.2668 257.724C65.2668 258.204 65.3148 258.633 65.4108 259.012C65.5121 259.391 65.6614 259.711 65.8588 259.972C66.0614 260.228 66.3121 260.425 66.6108 260.564C66.9094 260.703 67.2614 260.772 67.6668 260.772ZM73.2774 261.772V253.668H74.1254C74.328 253.668 74.456 253.767 74.5094 253.964L74.6214 254.844C74.9734 254.455 75.3654 254.14 75.7974 253.9C76.2347 253.66 76.7387 253.54 77.3094 253.54C77.752 253.54 78.1414 253.615 78.4774 253.764C78.8187 253.908 79.1014 254.116 79.3254 254.388C79.5547 254.655 79.728 254.977 79.8454 255.356C79.9627 255.735 80.0214 256.153 80.0214 256.612V261.772H78.5974V256.612C78.5974 255.999 78.456 255.524 78.1734 255.188C77.896 254.847 77.4694 254.676 76.8934 254.676C76.472 254.676 76.0774 254.777 75.7094 254.98C75.3467 255.183 75.0107 255.457 74.7014 255.804V261.772H73.2774ZM91.3178 257.636H93.0538V258.452C93.0538 258.537 93.0271 258.609 92.9738 258.668C92.9258 258.727 92.8484 258.756 92.7418 258.756H91.3178V261.772H90.0618V258.756H84.9818C84.8751 258.756 84.7818 258.727 84.7018 258.668C84.6271 258.604 84.5791 258.527 84.5578 258.436L84.4138 257.708L89.9898 250.308H91.3178V257.636ZM90.0618 252.908C90.0618 252.769 90.0644 252.62 90.0698 252.46C90.0804 252.3 90.0991 252.135 90.1258 251.964L85.9578 257.636H90.0618V252.908Z" fill="black"/>
</svg>
